<svg width="14" height="14" viewBox="0 0 14 14" fill="none" xmlns="http://www.w3.org/2000/svg">
<g clip-path="url(#clip0)">
<path d="M9.58531 13.9345H11.3353C11.8603 13.9345 12.2103 13.5845 12.2103 13.0595V6.9345H13.0853C13.3478 6.9345 13.6103 6.847 13.7853 6.672C14.1353 6.322 14.0478 5.797 13.6978 5.447L7.57281 0.196997C7.22281 -0.0655029 6.78531 -0.0655029 6.43531 0.196997L0.31031 5.447C-0.0396902 5.797 -0.12719 6.322 0.22281 6.672C0.31031 6.847 0.57281 6.9345 0.83531 6.9345H1.71031V13.0595C1.71031 13.5845 2.06031 13.9345 2.58531 13.9345H4.33531C4.86031 13.9345 5.21031 13.5845 5.21031 13.0595V10.4345H8.71031V13.0595C8.71031 13.5845 9.06031 13.9345 9.58531 13.9345Z" fill="#9F224E"/>
</g>
<defs>
<clipPath id="clip0">
<rect width="14" height="14" fill="white"/>
</clipPath>
</defs>
</svg>
