<svg width="80" height="80" viewBox="0 0 80 80" fill="none" xmlns="http://www.w3.org/2000/svg">
<path fill-rule="evenodd" clip-rule="evenodd" d="M40 77.5C60.7107 77.5 77.5 60.7107 77.5 40C77.5 19.2893 60.7107 2.5 40 2.5C19.2893 2.5 2.5 19.2893 2.5 40C2.5 60.7107 19.2893 77.5 40 77.5ZM40 80C62.0914 80 80 62.0914 80 40C80 17.9086 62.0914 0 40 0C17.9086 0 0 17.9086 0 40C0 62.0914 17.9086 80 40 80Z" fill="white"/>
<path d="M56.5 38.0005L31.5 20.5005C29.75 19.2505 27.5 20.5005 27.5 22.5005V57.5005C27.5 59.5005 29.75 60.7505 31.5 59.5005L56.5 42.0005C57.75 41.0005 57.75 39.0005 56.5 38.0005Z" fill="white"/>
</svg>
