<svg width="14" height="14" viewBox="0 0 14 14" fill="none" xmlns="http://www.w3.org/2000/svg">
<g clip-path="url(#clip0)">
<path d="M7 7C8.933 7 10.5 5.433 10.5 3.5C10.5 1.567 8.933 0 7 0C5.067 0 3.5 1.567 3.5 3.5C3.5 5.433 5.067 7 7 7Z" fill="#9F224E"/>
<path d="M14 11.55C14.0015 11.215 13.9062 10.8868 13.7257 10.6046C13.5452 10.3224 13.2871 10.0983 12.9824 9.95924C11.096 9.13839 9.05713 8.72627 7 8.74999C4.94287 8.72627 2.90403 9.13839 1.01762 9.95924C0.712907 10.0983 0.454807 10.3224 0.274299 10.6046C0.0937922 10.8868 -0.0014516 11.215 -8.36353e-07 11.55V14H14V11.55Z" fill="#9F224E"/>
</g>
<defs>
<clipPath id="clip0">
<rect width="14" height="14" fill="white"/>
</clipPath>
</defs>
</svg>
