<svg width="14" height="14" viewBox="0 0 14 14" fill="none" xmlns="http://www.w3.org/2000/svg">
<g clip-path="url(#clip0)">
<path d="M7 7C8.933 7 10.5 5.433 10.5 3.5C10.5 1.567 8.933 0 7 0C5.067 0 3.5 1.567 3.5 3.5C3.5 5.433 5.067 7 7 7Z" fill="#222222"/>
<path d="M14 11.55C14.0015 11.215 13.9062 10.8868 13.7257 10.6046C13.5452 10.3224 13.2871 10.0983 12.9824 9.95924C11.096 9.13839 9.05715 8.72627 7.00002 8.74999C4.94289 8.72627 2.90405 9.13839 1.01764 9.95924C0.712925 10.0983 0.454824 10.3224 0.274317 10.6046C0.0938094 10.8868 -0.00143443 11.215 1.63298e-05 11.55V14H14V11.55Z" fill="#222222"/>
</g>
<defs>
<clipPath id="clip0">
<rect width="14" height="14" fill="white"/>
</clipPath>
</defs>
</svg>
