<svg width="40" height="40" viewBox="0 0 40 40" fill="none" xmlns="http://www.w3.org/2000/svg">
<path d="M17.3333 5.54976V0L30.6667 8H19.8901V8.00139C11.84 8.11048 5.348 14.6345 5.348 22.6667C5.348 30.7668 11.9505 37.3333 20.0952 37.3333C27.3241 37.3333 33.3383 32.1603 34.5992 25.3333H37.3187C36.029 33.6403 28.8088 40 20.0952 40C10.4696 40 2.66666 32.2396 2.66666 22.6667C2.66666 14.0284 9.02026 6.86609 17.3333 5.54976Z" fill="#FCFAF6"/>
<path d="M16.7388 27.9998V17.7331H12.5881L12.1041 19.8158H14.1575V27.9998H16.7388ZM23.9975 28.1611C21.3721 28.1611 19.8175 26.0344 19.8175 22.8664C19.8175 19.6838 21.3721 17.5718 23.9975 17.5718C26.6081 17.5718 28.1335 19.6838 28.1335 22.8664C28.1335 26.0344 26.6081 28.1611 23.9975 28.1611ZM23.9975 25.9464C24.9361 25.9464 25.5521 24.9491 25.5521 22.8664C25.5521 20.7984 24.9361 19.7864 23.9975 19.7864C23.0588 19.7864 22.4281 20.7984 22.4281 22.8664C22.4281 24.9491 23.0588 25.9464 23.9975 25.9464Z" fill="#FCFAF6"/>
</svg>
