<svg width="40" height="40" viewBox="0 0 40 40" fill="none" xmlns="http://www.w3.org/2000/svg">
<path d="M22.652 5.54976V0L9.3187 8H20.0952V8.00139C28.1453 8.11048 34.6374 14.6345 34.6374 22.6667C34.6374 30.7668 28.0348 37.3333 19.8902 37.3333C12.6612 37.3333 6.64707 32.1603 5.38617 25.3333H2.66669C3.9564 33.6403 11.1765 40 19.8902 40C29.5157 40 37.3187 32.2396 37.3187 22.6667C37.3187 14.0284 30.9651 6.86609 22.652 5.54976Z" fill="#FCFAF6"/>
<path d="M16.7388 27.9998V17.7331H12.5881L12.1041 19.8158H14.1575V27.9998H16.7388ZM23.9975 28.1611C21.3721 28.1611 19.8175 26.0344 19.8175 22.8664C19.8175 19.6838 21.3721 17.5718 23.9975 17.5718C26.6081 17.5718 28.1335 19.6838 28.1335 22.8664C28.1335 26.0344 26.6081 28.1611 23.9975 28.1611ZM23.9975 25.9464C24.9361 25.9464 25.5521 24.9491 25.5521 22.8664C25.5521 20.7984 24.9361 19.7864 23.9975 19.7864C23.0588 19.7864 22.4281 20.7984 22.4281 22.8664C22.4281 24.9491 23.0588 25.9464 23.9975 25.9464Z" fill="#FCFAF6"/>
</svg>
