<svg width="36" height="36" viewBox="0 0 36 36" fill="none" xmlns="http://www.w3.org/2000/svg">
<circle cx="18" cy="18" r="18" fill="url(#paint0_linear)"/>
<path d="M18 9C16.6624 9 15.3933 9.29553 14.2511 9.82113C14.2459 9.82113 14.2413 9.81818 14.2364 9.81818C14.1862 9.8188 14.1368 9.83117 14.0922 9.8543C14.0477 9.87743 14.0092 9.91068 13.9798 9.95138C11.0304 11.4307 9 14.4818 9 18C9 22.5295 12.3644 26.2865 16.7249 26.9084C16.7426 26.911 16.7593 26.9165 16.7773 26.9165L16.7842 26.9156C17.1821 26.9696 17.5873 27 18 27C22.9628 27 27 22.9628 27 18C27 13.0372 22.9628 9 18 9Z" fill="white"/>
<path d="M26.0423 20.2244C23.6336 19.0822 20.8747 18.0225 18.0339 17.1539C17.8255 17.0904 17.6183 17.0305 17.4111 16.9693C17.6567 16.2585 17.9543 15.5668 18.3013 14.8997C19.4785 15.3114 20.8252 15.5454 22.2548 15.5454C23.4974 15.5454 24.6874 15.3696 25.7991 15.0332C26.4324 16.6932 26.5176 18.5124 26.0423 20.2244Z" fill="#F2C94C"/>
<path d="M25.5403 14.426C24.5094 14.7304 23.4075 14.8907 22.2548 14.8907C20.9395 14.8907 19.7008 14.6855 18.6172 14.3252C19.4681 12.8558 20.5507 11.5794 21.8199 10.5835C23.4458 11.4247 24.7523 12.7741 25.5406 14.4263L25.5403 14.426Z" fill="#F2C94C"/>
<path d="M21.1596 10.2777C19.9081 11.3145 18.8386 12.6124 17.9949 14.0943C16.0325 13.2856 14.7035 11.9356 14.5742 10.3929C15.6505 9.90553 16.8186 9.6538 18.0001 9.65454C19.1181 9.65454 20.1843 9.87709 21.1596 10.2777Z" fill="#F2C94C"/>
<path d="M13.9538 10.7043C14.2183 12.3587 15.6419 13.7925 17.688 14.6617C17.3353 15.347 17.0324 16.0569 16.7818 16.7857C14.4958 16.1354 12.2589 15.6337 10.1094 15.2888C10.7838 13.34 12.1526 11.7079 13.9542 10.7043H13.9538Z" fill="#F2C94C"/>
<path d="M9.91696 15.9202C12.0613 16.2609 14.2962 16.7603 16.5815 17.4096C16.3323 18.2354 16.1463 19.0791 16.0252 19.9332C16.0088 20.0536 15.9983 20.1744 15.9839 20.2948C15.3013 20.1827 14.6106 20.1266 13.9189 20.1273C12.615 20.1273 11.3671 20.3148 10.2095 20.6846C10.1763 20.6965 10.1452 20.7139 10.1176 20.736C9.57783 19.1856 9.50804 17.5104 9.91696 15.9205V15.9202Z" fill="#F2C94C"/>
<path d="M10.3438 21.3152C10.3657 21.3129 10.3873 21.3152 10.4092 21.308C11.5023 20.9588 12.6837 20.7817 13.9195 20.7817C14.6107 20.7817 15.2803 20.839 15.9179 20.9454C15.7758 22.7274 15.9185 24.5094 16.3345 26.1778C13.6404 25.6303 11.4149 23.7796 10.3438 21.3152Z" fill="#F2C94C"/>
<path d="M17.0374 26.2883C16.5907 24.6349 16.4303 22.8548 16.5645 21.0715C19.5041 21.7379 21.6068 23.4819 21.6094 25.5238C20.189 26.2079 18.6031 26.4731 17.0374 26.2883Z" fill="#F2C94C"/>
<path d="M22.2452 25.1807C22.0276 22.9683 19.7419 21.1146 16.6279 20.4208C16.6433 20.2886 16.6551 20.1564 16.6737 20.0245C16.7909 19.1899 16.9735 18.3777 17.2095 17.5925C17.4203 17.6547 17.6304 17.7156 17.8418 17.7801C20.6845 18.649 23.4434 19.7106 25.8423 20.8538C25.1771 22.6671 23.9067 24.1953 22.2456 25.1807H22.2452Z" fill="#F2C94C"/>
<defs>
<linearGradient id="paint0_linear" x1="31.2633" y1="2.71644" x2="37.7028" y2="24.4683" gradientUnits="userSpaceOnUse">
<stop offset="0.0016226" stop-color="#BA68DA"/>
<stop offset="1" stop-color="#653EA3"/>
</linearGradient>
</defs>
</svg>
