<svg width="24" height="24" viewBox="0 0 24 24" fill="none" xmlns="http://www.w3.org/2000/svg">
<path d="M12.7105 15.54L18.3605 9.87998C18.4542 9.78702 18.5286 9.67642 18.5793 9.55456C18.6301 9.4327 18.6562 9.30199 18.6562 9.16998C18.6562 9.03797 18.6301 8.90726 18.5793 8.78541C18.5286 8.66355 18.4542 8.55294 18.3605 8.45998C18.1731 8.27373 17.9196 8.16919 17.6555 8.16919C17.3913 8.16919 17.1378 8.27373 16.9505 8.45998L11.9505 13.41L7.00045 8.45998C6.81309 8.27373 6.55964 8.16919 6.29545 8.16919C6.03127 8.16919 5.77781 8.27373 5.59045 8.45998C5.49596 8.5526 5.42079 8.66304 5.3693 8.78492C5.3178 8.90679 5.291 9.03767 5.29045 9.16998C5.291 9.30229 5.3178 9.43317 5.3693 9.55505C5.42079 9.67692 5.49596 9.78737 5.59045 9.87998L11.2405 15.54C11.3341 15.6415 11.4477 15.7225 11.5742 15.7779C11.7007 15.8333 11.8373 15.8619 11.9755 15.8619C12.1136 15.8619 12.2502 15.8333 12.3767 15.7779C12.5032 15.7225 12.6168 15.6415 12.7105 15.54Z" fill="#7A8088"/>
</svg>
