<svg id="Layer_1" data-name="Layer 1" xmlns="http://www.w3.org/2000/svg" viewBox="0 0 26.78 27.16"><defs><style>.cls-1{fill:#dd2925;}.cls-2{fill:#fff;}</style></defs><title>Untitled-1</title><path class="cls-1" d="M3.35,0H23.44A3.35,3.35,0,0,1,25.8,1a3.42,3.42,0,0,1,1,2.41V23.77a3.41,3.41,0,0,1-1,2.4,3.35,3.35,0,0,1-2.36,1H3.35a3.35,3.35,0,0,1-2.37-1,3.41,3.41,0,0,1-1-2.4V3.4A3.42,3.42,0,0,1,1,1,3.35,3.35,0,0,1,3.35,0Z"/><path class="cls-2" d="M23.48,16.37c0,2.58-.87,4.66-3.41,4.66H7C4.49,21,3.35,19,3.35,16.37V11.45c0-2.58,1-4.66,3.57-4.66H20.19c2.53,0,3.29,2.08,3.29,4.66Z"/><path class="cls-1" d="M11.39,11.13,16.88,14l-5.49,2.9Z"/></svg>