<svg width="23" height="21" viewBox="0 0 23 21" fill="none" xmlns="http://www.w3.org/2000/svg">
<path d="M8.96552 12.1132C9.68965 12.1132 13.6724 12.1132 13.6724 16.7736M8.96552 10.3208C10.0517 10.3208 15.4828 10.3208 15.4828 16.7736M4.98276 11.3962V19C4.98276 19.5523 5.43047 20 5.98276 20H17.7414C18.2937 20 18.7414 19.5523 18.7414 19V11.3962M4.98276 3.86792V7.45283M1 11.3962L11.1588 1.67311C11.5502 1.29847 12.1688 1.30371 12.5538 1.68493L22 11.0377M11.8621 15.3396C11.8621 16.1316 11.2137 16.7736 10.4138 16.7736C9.61393 16.7736 8.96552 16.1316 8.96552 15.3396C8.96552 14.5477 9.61393 13.9057 10.4138 13.9057C11.2137 13.9057 11.8621 14.5477 11.8621 15.3396Z" stroke="#666666"/>
</svg>
