<svg width="20" height="20" viewBox="0 0 20 20" fill="none" xmlns="http://www.w3.org/2000/svg">
<path d="M17.7125 3.55859C17.3844 3.55859 17.1172 3.82578 17.1172 4.15391C17.1172 4.48203 17.3844 4.74922 17.7125 4.74922C18.0406 4.74922 18.3078 4.48203 18.3078 4.15391C18.3078 3.82578 18.0406 3.55859 17.7125 3.55859ZM17.7125 4.18203C17.6938 4.18203 17.6797 4.16797 17.6797 4.14922C17.6797 4.13047 17.6938 4.11641 17.7125 4.11641C17.7313 4.11641 17.7453 4.13047 17.7453 4.14922C17.7453 4.16797 17.7313 4.18203 17.7125 4.18203Z" fill="#666666"/>
<path d="M13.2685 3.02417C13.1232 2.96323 12.9591 3.02886 12.8982 3.17417C12.8373 3.3148 12.7857 3.4648 12.7435 3.6148C12.7013 3.7648 12.7904 3.91949 12.9404 3.96167C12.9638 3.96636 12.9919 3.97105 13.0154 3.97105C13.1373 3.97105 13.2544 3.88667 13.2873 3.7648C13.3201 3.63824 13.3623 3.51636 13.4138 3.39917C13.4748 3.24917 13.4091 3.08511 13.2685 3.02417Z" fill="#666666"/>
<path d="M14.7878 1.31781C14.305 1.51 13.8643 1.81937 13.5128 2.21312C13.4096 2.33031 13.419 2.50844 13.5362 2.61156C13.5878 2.65844 13.6581 2.68187 13.7237 2.68187C13.7987 2.68187 13.8784 2.64906 13.9346 2.58812C14.23 2.26 14.5956 2.00219 14.9987 1.84281C15.144 1.78656 15.2143 1.6225 15.1581 1.47719C15.0925 1.32719 14.9284 1.25687 14.7878 1.31781Z" fill="#666666"/>
<path d="M2.36997 3.55859C2.04185 3.55859 1.77466 3.82578 1.77466 4.15391C1.77466 4.48203 2.04653 4.74453 2.36997 4.74453C2.69341 4.74453 2.96528 4.47734 2.96528 4.14922C2.96528 3.82109 2.6981 3.55859 2.36997 3.55859ZM2.36997 4.18203C2.35122 4.18203 2.33716 4.16797 2.33716 4.14922C2.33716 4.13047 2.35122 4.11641 2.36997 4.11641C2.38872 4.11641 2.40278 4.13047 2.40278 4.14922C2.40278 4.16797 2.38872 4.18203 2.36997 4.18203Z" fill="#666666"/>
<path d="M6.81805 3.02425C6.67742 3.08519 6.60711 3.24925 6.66805 3.39456C6.71961 3.51175 6.7618 3.63831 6.79461 3.76019C6.82742 3.88675 6.93992 3.96644 7.06648 3.96644C7.08992 3.96644 7.11805 3.96175 7.14148 3.95706C7.29148 3.91487 7.38055 3.76019 7.33836 3.61019C7.29617 3.46019 7.24461 3.31487 7.18367 3.16956C7.12742 3.02894 6.96336 2.96331 6.81805 3.02425Z" fill="#666666"/>
<path d="M5.29941 1.31819C5.1541 1.26194 4.99004 1.33225 4.93379 1.47756C4.87754 1.62287 4.94785 1.78694 5.09316 1.84319C5.49629 2.00256 5.86191 2.26037 6.15722 2.5885C6.21347 2.64944 6.28847 2.68225 6.36816 2.68225C6.43379 2.68225 6.5041 2.65881 6.55566 2.61194C6.67285 2.50881 6.68222 2.33069 6.5791 2.2135C6.22285 1.81506 5.78222 1.51037 5.29941 1.31819Z" fill="#666666"/>
<path d="M4.35781 0.000936334C2.87188 0.0337488 1.50781 0.863436 0.795312 2.17125C0.725 2.3025 0.6875 2.4525 0.6875 2.60719V5.70562C0.6875 5.85562 0.725 6.00562 0.8 6.14156C1.5125 7.44 2.8625 8.27437 4.33438 8.31656C4.74688 8.32594 5.15469 8.27906 5.54844 8.17125V17.5134C5.54844 18.3572 6.2375 19.0462 7.08125 19.0462C7.925 19.0462 8.61406 18.3572 8.61406 17.5134V4.215C8.61406 3.06656 8.15938 1.98844 7.33906 1.18219C6.52813 0.394686 5.47344 -0.0225012 4.35781 0.000936334ZM8.04219 16.5619H7.37188C7.21719 16.5619 7.09063 16.6884 7.09063 16.8431C7.09063 16.9978 7.21719 17.1244 7.37188 17.1244H8.04219V17.4853C8.04219 18.0103 7.63438 18.4556 7.10938 18.4791C6.55625 18.4978 6.10156 18.0572 6.10156 17.5087V17.1244H6.15313C6.30781 17.1244 6.43438 16.9978 6.43438 16.8431C6.43438 16.6884 6.30781 16.5619 6.15313 16.5619H6.10156V6.88219C6.10156 6.39 5.70781 5.98687 5.21563 5.9775C5.06094 5.97281 4.925 6.08531 4.91563 6.23531C4.90156 6.40406 5.0375 6.54 5.20156 6.54C5.38906 6.53531 5.53906 6.69469 5.53906 6.88219V7.58062C5.15469 7.7025 4.75156 7.75875 4.34375 7.74937C3.07813 7.71187 1.90625 6.99 1.29219 5.865C1.26406 5.81344 1.25 5.75719 1.25 5.70094V2.6025C1.25 2.54625 1.26406 2.49 1.29219 2.43844C1.90625 1.30875 3.0875 0.586874 4.37188 0.563436C5.33281 0.544686 6.24219 0.905624 6.93594 1.58531C7.64844 2.28375 8.04219 3.21656 8.04219 4.215V16.5619Z" fill="#666666"/>
<path d="M15.7247 0.000926708C14.609 -0.0225108 13.5543 0.399364 12.7528 1.18218C11.9325 1.98843 11.4778 3.06186 11.4778 4.21499V17.5134C11.4778 18.3572 12.1668 19.0462 13.0106 19.0462C13.8543 19.0462 14.5434 18.3572 14.5434 17.5134V8.16655C14.9372 8.27436 15.3403 8.32124 15.7575 8.31186C17.2247 8.26968 18.5793 7.4353 19.2918 6.13686C19.3622 6.00561 19.3997 5.85561 19.3997 5.70093V2.60249C19.3997 2.45249 19.3622 2.30249 19.2918 2.17124C18.5793 0.863427 17.2106 0.0290517 15.7247 0.000926708ZM18.8372 5.70093C18.8372 5.75718 18.8231 5.81811 18.795 5.86499C18.1809 6.98999 17.009 7.71186 15.7387 7.74936C15.3309 7.76343 14.9278 7.70249 14.5434 7.58061V6.88218C14.5434 6.69468 14.6934 6.5353 14.8809 6.53999C15.045 6.54468 15.1809 6.40405 15.1668 6.2353C15.1528 6.0853 15.0168 5.9728 14.8668 5.97749C14.3747 5.98686 13.9809 6.38999 13.9809 6.88218V16.5619H13.9293C13.7747 16.5619 13.6481 16.6884 13.6481 16.8431C13.6481 16.9978 13.7747 17.1244 13.9293 17.1244H13.9809V17.4853C13.9809 18.0103 13.5731 18.4556 13.0481 18.479C12.495 18.4978 12.0403 18.0572 12.0403 17.5087V17.1244H12.7106C12.8653 17.1244 12.9918 16.9978 12.9918 16.8431C12.9918 16.6884 12.8653 16.5619 12.7106 16.5619H12.0403V4.21499C12.0403 3.21655 12.434 2.28374 13.1465 1.5853C13.8215 0.924364 14.7028 0.563427 15.6356 0.563427H15.7106C16.995 0.591552 18.1762 1.30874 18.7903 2.43843C18.8184 2.48999 18.8325 2.54624 18.8325 2.60249L18.8372 5.70093Z" fill="#666666"/>
</svg>
