<svg width="22" height="16" viewBox="0 0 22 16" fill="none" xmlns="http://www.w3.org/2000/svg">
<path d="M20.9688 0.4375H1.03125C0.940082 0.4375 0.852648 0.473716 0.788182 0.538182C0.723716 0.602648 0.6875 0.690082 0.6875 0.78125V12.4688C0.6875 12.5599 0.723716 12.6474 0.788182 12.7118C0.852648 12.7763 0.940082 12.8125 1.03125 12.8125H10.6562V13.5526L2.69345 14.8797C2.6084 14.8939 2.53179 14.9395 2.4788 15.0075C2.42582 15.0756 2.40034 15.161 2.40741 15.2469C2.41449 15.3329 2.4536 15.413 2.51699 15.4715C2.58038 15.5299 2.66343 15.5624 2.74966 15.5625C2.76872 15.5625 2.78774 15.5609 2.80655 15.5578L11 14.1922L19.1935 15.5578C19.2123 15.5609 19.2313 15.5625 19.2503 15.5625C19.3366 15.5624 19.4196 15.5299 19.483 15.4715C19.5464 15.413 19.5855 15.3329 19.5926 15.2469C19.5997 15.161 19.5742 15.0756 19.5212 15.0075C19.4682 14.9395 19.3916 14.8939 19.3065 14.8797L11.3438 13.5526V12.8125H20.9688C21.0599 12.8125 21.1474 12.7763 21.2118 12.7118C21.2763 12.6474 21.3125 12.5599 21.3125 12.4688V0.78125C21.3125 0.690082 21.2763 0.602648 21.2118 0.538182C21.1474 0.473716 21.0599 0.4375 20.9688 0.4375ZM16.5 12.125H1.375V11.4375H16.5V12.125ZM17.875 12.125H17.1875V11.4375H17.875V12.125ZM19.25 12.125H18.5625V11.4375H19.25V12.125ZM20.625 12.125H19.9375V11.4375H20.625V12.125ZM20.625 10.75H1.375V1.125H20.625V10.75Z" fill="#666666"/>
</svg>
