<?xml version="1.0" encoding="utf-8"?><svg xmlns="http://www.w3.org/2000/svg" xmlns:xlink="http://www.w3.org/1999/xlink"><symbol viewBox="0 0 24 8" id="arrow" xmlns="http://www.w3.org/2000/svg"><path d="M24 4L20.159.16v3.084H0v1.512h20.159v3.085L24 4z"/></symbol><symbol viewBox="0 0 21 11" id="arrow01" xmlns="http://www.w3.org/2000/svg"><path fill-rule="evenodd" clip-rule="evenodd" d="M15.607 0l5.108 5.091-5.108 5.091-.851-.848L18.41 5.69H0v-1.2h18.41L14.756.85l.85-.849z"/></symbol><symbol viewBox="0 0 21 32" id="face" xmlns="http://www.w3.org/2000/svg"><path d="M5.898 32V17.474H0v-5.898h5.788V7.972c0-5.352 3.386-7.973 8.191-7.973 2.293 0 4.259.218 4.915.218v5.679h-3.386c-2.621 0-3.167 1.201-3.167 3.058v2.621h7.645l-2.949 5.788h-4.696v14.526H5.897v.109z"/></symbol><symbol viewBox="0 0 10 13" id="play" xmlns="http://www.w3.org/2000/svg"><path d="M9.2 6.236L1.7.986a.75.75 0 00-1.2.6v10.5c0 .6.675.975 1.2.6l7.5-5.25a.78.78 0 000-1.2z"/></symbol><symbol viewBox="0 0 16 16" id="search" xmlns="http://www.w3.org/2000/svg"><g clip-path="url(#eclip0)"><path d="M7 14c-3.86 0-7-3.14-7-7s3.14-7 7-7 7 3.14 7 7-3.14 7-7 7zM7 2C4.243 2 2 4.243 2 7s2.243 5 5 5 5-2.243 5-5-2.243-5-5-5zm8.707 12.293L13.314 11.9a8.019 8.019 0 01-1.414 1.414l2.393 2.393a.997.997 0 001.631-.324 1 1 0 00-.217-1.09z"/></g><defs><clipPath id="eclip0"><path d="M0 0h16v16H0z"/></clipPath></defs></symbol><symbol viewBox="0 0 39 32" id="twiter" xmlns="http://www.w3.org/2000/svg"><path d="M39.385 3.815c-1.472.615-2.945 1.108-4.662 1.231 1.718-.985 2.945-2.585 3.558-4.431-1.595.985-3.313 1.6-5.153 1.969a7.954 7.954 0 00-5.889-2.585 8.103 8.103 0 00-8.098 8.123c0 .615.123 1.231.245 1.846-6.748-.369-12.637-3.569-16.564-8.492-.736 1.231-1.104 2.585-1.104 4.062 0 2.831 1.472 5.292 3.558 6.769-1.35 0-2.577-.369-3.681-.985v.123c0 3.938 2.822 7.138 6.503 7.877-.736.123-1.35.246-2.086.246-.491 0-.982 0-1.472-.123.982 3.2 4.049 5.538 7.484 5.662-2.699 2.215-6.257 3.446-10.061 3.446-.613 0-1.35 0-1.963-.123 3.558 2.338 7.852 3.569 12.392 3.569 14.846 0 22.944-12.308 22.944-23.015v-.985c1.595-1.231 2.945-2.585 4.049-4.185z"/></symbol><symbol viewBox="0 0 16 16" id="user" xmlns="http://www.w3.org/2000/svg"><g clip-path="url(#gclip0)"><path d="M8 8a4 4 0 100-8 4 4 0 000 8zm8 5.2a1.989 1.989 0 00-1.163-1.818A16.655 16.655 0 008 10a16.655 16.655 0 00-6.837 1.382A1.99 1.99 0 000 13.2V16h16v-2.8z"/></g><defs><clipPath id="gclip0"><path d="M0 0h16v16H0z"/></clipPath></defs></symbol></svg>