<?xml version="1.0" encoding="utf-8"?><svg xmlns="http://www.w3.org/2000/svg" xmlns:xlink="http://www.w3.org/1999/xlink"><symbol viewBox="0 0 24 8" id="arrow" xmlns="http://www.w3.org/2000/svg"><path d="M24 4L20.159.16v3.084H0v1.512h20.159v3.085L24 4z"/></symbol><symbol viewBox="0 0 21 11" id="arrow01" xmlns="http://www.w3.org/2000/svg"><path fill-rule="evenodd" clip-rule="evenodd" d="M15.607 0l5.108 5.091-5.108 5.091-.851-.848L18.41 5.69H0v-1.2h18.41L14.756.85l.85-.849z"/></symbol><symbol viewBox="0 0 24 14" id="bar" xmlns="http://www.w3.org/2000/svg"><path d="M0 0h24v2H0zm0 6h24v2H0zm0 6h24v2H0z"/></symbol><symbol viewBox="0 0 21 32" id="face" xmlns="http://www.w3.org/2000/svg"><path d="M5.898 32V17.474H0v-5.898h5.788V7.972c0-5.352 3.386-7.973 8.191-7.973 2.293 0 4.259.218 4.915.218v5.679h-3.386c-2.621 0-3.167 1.201-3.167 3.058v2.621h7.645l-2.949 5.788h-4.696v14.526H5.897v.109z"/></symbol><symbol viewBox="0 0 15 24" id="ic-dongho" xmlns="http://www.w3.org/2000/svg"><path d="M11.047 4.19h-8.38A2.672 2.672 0 000 6.86v10.28a2.671 2.671 0 002.667 2.67h8.38a2.672 2.672 0 002.667-2.67V6.86a2.672 2.672 0 00-2.667-2.67zm1.905 12.95a1.909 1.909 0 01-1.905 1.908h-8.38A1.909 1.909 0 01.762 17.14V6.86c0-1.051.854-1.908 1.905-1.908h8.38a1.91 1.91 0 011.905 1.909v10.28z"/><path d="M11.804 4.503l-.558-3.067C11.1.63 10.344 0 9.526 0H4.19c-.818 0-1.573.63-1.72 1.436l-.558 3.067a.381.381 0 00.375.45h9.143a.38.38 0 00.375-.45zM2.743 4.19l.476-2.618c.08-.44.524-.81.97-.81h5.337c.446 0 .89.37.97.81l.476 2.618h-8.23zm8.979 14.995a.38.38 0 00-.293-.137H2.286a.381.381 0 00-.375.449l.558 3.067c.146.805.902 1.436 1.72 1.436h5.337c.818 0 1.574-.63 1.72-1.436l.558-3.067a.38.38 0 00-.082-.312zm-1.225 3.243c-.08.44-.525.81-.97.81H4.189c-.446 0-.89-.371-.97-.81l-.476-2.619h8.23l-.476 2.619zM14.095 8.38h-.762c-.21 0-.38.172-.38.382v2.666c0 .21.17.381.38.381h.762a.38.38 0 00.381-.38V8.761a.38.38 0 00-.38-.381z"/></symbol><symbol viewBox="0 0 23 21" id="ic-home" xmlns="http://www.w3.org/2000/svg"><path d="M8.966 12.113c.724 0 4.706 0 4.706 4.66m-4.706-6.452c1.086 0 6.517 0 6.517 6.453m-10.5-5.378V19a1 1 0 001 1H17.74a1 1 0 001-1v-7.604M4.983 3.868v3.585M1 11.396l10.159-9.723a1 1 0 011.395.012L22 11.038M11.862 15.34a1.44 1.44 0 01-1.448 1.434 1.44 1.44 0 01-1.448-1.434 1.44 1.44 0 011.448-1.434c.8 0 1.448.642 1.448 1.434z" stroke="#666"/></symbol><symbol viewBox="0 0 23 15" id="ic-laptop" xmlns="http://www.w3.org/2000/svg"><g clip-path="url(#gclip0)"><rect x="3.05" y=".4" width="17.55" height="10.75" rx=".6" stroke="#666" stroke-width=".8"/><path d="M1.287 11.732a.5.5 0 100 1v-1zm20.596.97a.5.5 0 00-.004-1l.004 1zm-8.026-.97l-.5.002.004 1 .5-.002-.004-1zm-12.08.68a.5.5 0 000 1v-1zm19.308 1a.5.5 0 100-1v1zm.794-1.71l-8.022.03.004 1 8.022-.03-.004-1zm-20.102 1.71h19.308v-1H1.777v1zm-.49-.68h4.164v-1H1.287v1zm4.165 0h4.67v-1h-4.67v1zm0-.5v-.5.5z"/></g><defs><clipPath id="gclip0"><path transform="translate(-.072)" d="M0 0h22.43v14.09H0z"/></clipPath></defs></symbol><symbol viewBox="0 0 12 20" id="ic-mobile" xmlns="http://www.w3.org/2000/svg"><path d="M9.75.313h-7.5A1.564 1.564 0 00.687 1.875v16.25a1.564 1.564 0 001.563 1.563h7.5a1.564 1.564 0 001.563-1.563V1.875A1.564 1.564 0 009.75.312zM8.119.938l-.188.937H4.07L3.88.937h4.24zm2.569 17.187a.938.938 0 01-.938.938h-7.5a.938.938 0 01-.938-.938V1.875A.939.939 0 012.25.937h.994l.262 1.312a.313.313 0 00.307.251h4.374a.312.312 0 00.307-.251L8.756.937h.994a.939.939 0 01.938.938v16.25z"/></symbol><symbol viewBox="0 0 20 20" id="ic-tainghe" xmlns="http://www.w3.org/2000/svg"><path d="M17.712 3.559a.596.596 0 10.002 1.192.596.596 0 00-.002-1.192zm0 .623a.032.032 0 01-.032-.033c0-.019.014-.033.032-.033.02 0 .033.014.033.033a.032.032 0 01-.033.033zm-4.444-1.158a.28.28 0 00-.37.15c-.06.14-.112.29-.155.44a.282.282 0 10.544.15 2.41 2.41 0 01.127-.365.286.286 0 00-.146-.375zm1.52-1.706a3.41 3.41 0 00-1.275.895.282.282 0 10.422.375 2.85 2.85 0 011.064-.745.282.282 0 00.16-.366c-.067-.15-.23-.22-.371-.16zM2.37 3.559a.596.596 0 00-.595.595.595.595 0 001.19-.005.592.592 0 00-.595-.59zm0 .623a.032.032 0 01-.033-.033c0-.019.014-.033.033-.033.019 0 .033.014.033.033a.032.032 0 01-.033.033zm4.448-1.158a.284.284 0 00-.15.37 2.6 2.6 0 01.127.366.276.276 0 00.271.206.282.282 0 00.272-.356 3.78 3.78 0 00-.154-.44.276.276 0 00-.366-.146zM5.3 1.318a.282.282 0 10-.207.525c.403.16.769.417 1.064.745a.285.285 0 00.399.024.282.282 0 00.023-.399 3.411 3.411 0 00-1.28-.895z"/><path d="M4.358 0A4.17 4.17 0 00.795 2.172a.924.924 0 00-.108.436v3.099c0 .15.038.3.113.436a4.186 4.186 0 003.534 2.175 4.23 4.23 0 001.214-.146v9.342c0 .844.69 1.533 1.533 1.533.844 0 1.533-.689 1.533-1.533V4.215A4.226 4.226 0 007.34 1.182 4.12 4.12 0 004.358.001zm3.684 16.562h-.67a.282.282 0 00-.281.281c0 .155.126.281.28.281h.671v.361a.99.99 0 01-.933.994.972.972 0 01-1.007-.97v-.385h.051a.282.282 0 00.281-.28.282.282 0 00-.28-.282h-.052v-9.68a.904.904 0 00-.886-.904c-.155-.005-.291.107-.3.257a.283.283 0 00.286.305.337.337 0 01.337.342v.699a3.67 3.67 0 01-1.195.168 3.62 3.62 0 01-3.052-1.884.342.342 0 01-.042-.164V2.603c0-.057.014-.113.042-.165A3.593 3.593 0 014.372.563c.96-.018 1.87.343 2.564 1.022a3.654 3.654 0 011.106 2.63v12.347zM15.725 0a4.102 4.102 0 00-2.972 1.182 4.218 4.218 0 00-1.275 3.033v13.298c0 .844.689 1.533 1.533 1.533.843 0 1.532-.689 1.532-1.533V8.167a4.25 4.25 0 001.215.145 4.192 4.192 0 003.534-2.175.923.923 0 00.108-.436V2.602c0-.15-.038-.3-.108-.43A4.167 4.167 0 0015.725 0zm3.112 5.7a.33.33 0 01-.042.165 3.622 3.622 0 01-3.056 1.884 3.549 3.549 0 01-1.196-.168v-.699c0-.187.15-.347.338-.342a.28.28 0 00.286-.305.292.292 0 00-.3-.258.904.904 0 00-.886.905v9.68h-.052a.282.282 0 00-.28.281c0 .155.126.281.28.281h.052v.361a.99.99 0 01-.933.994.972.972 0 01-1.008-.97v-.385h.67a.282.282 0 00.282-.28.282.282 0 00-.281-.282h-.67V4.215c0-.998.393-1.931 1.105-2.63a3.535 3.535 0 012.49-1.022h.075a3.602 3.602 0 013.08 1.875.342.342 0 01.041.164l.005 3.099z"/></symbol><symbol viewBox="0 0 22 16" id="ic-tivi" xmlns="http://www.w3.org/2000/svg"><path d="M20.969.438H1.03A.344.344 0 00.688.78v11.69a.344.344 0 00.343.344h9.625v.74L2.693 14.88a.344.344 0 00.114.678L11 14.192l8.194 1.366a.344.344 0 00.113-.678l-7.963-1.327v-.74h9.625a.343.343 0 00.343-.344V.78a.344.344 0 00-.343-.344zM16.5 12.124H1.375v-.688H16.5v.688zm1.375 0h-.688v-.688h.688v.688zm1.375 0h-.688v-.688h.688v.688zm1.375 0h-.688v-.688h.688v.688zm0-1.375H1.375V1.125h19.25v9.625z"/></symbol><symbol viewBox="0 0 10 13" id="play" xmlns="http://www.w3.org/2000/svg"><path d="M9.2 6.236L1.7.986a.75.75 0 00-1.2.6v10.5c0 .6.675.975 1.2.6l7.5-5.25a.78.78 0 000-1.2z"/></symbol><symbol viewBox="0 0 12 21" id="prev" xmlns="http://www.w3.org/2000/svg"><path d="M10.736.585L.774 10.547l9.962 9.962" stroke="#666"/></symbol><symbol viewBox="0 0 16 16" id="search" xmlns="http://www.w3.org/2000/svg"><g clip-path="url(#mclip0)"><path d="M7 14c-3.86 0-7-3.14-7-7s3.14-7 7-7 7 3.14 7 7-3.14 7-7 7zM7 2C4.243 2 2 4.243 2 7s2.243 5 5 5 5-2.243 5-5-2.243-5-5-5zm8.707 12.293L13.314 11.9a8.019 8.019 0 01-1.414 1.414l2.393 2.393a.997.997 0 001.631-.324 1 1 0 00-.217-1.09z"/></g><defs><clipPath id="mclip0"><path d="M0 0h16v16H0z"/></clipPath></defs></symbol><symbol viewBox="0 0 39 32" id="twiter" xmlns="http://www.w3.org/2000/svg"><path d="M39.385 3.815c-1.472.615-2.945 1.108-4.662 1.231 1.718-.985 2.945-2.585 3.558-4.431-1.595.985-3.313 1.6-5.153 1.969a7.954 7.954 0 00-5.889-2.585 8.103 8.103 0 00-8.098 8.123c0 .615.123 1.231.245 1.846-6.748-.369-12.637-3.569-16.564-8.492-.736 1.231-1.104 2.585-1.104 4.062 0 2.831 1.472 5.292 3.558 6.769-1.35 0-2.577-.369-3.681-.985v.123c0 3.938 2.822 7.138 6.503 7.877-.736.123-1.35.246-2.086.246-.491 0-.982 0-1.472-.123.982 3.2 4.049 5.538 7.484 5.662-2.699 2.215-6.257 3.446-10.061 3.446-.613 0-1.35 0-1.963-.123 3.558 2.338 7.852 3.569 12.392 3.569 14.846 0 22.944-12.308 22.944-23.015v-.985c1.595-1.231 2.945-2.585 4.049-4.185z"/></symbol><symbol viewBox="0 0 16 16" id="user" xmlns="http://www.w3.org/2000/svg"><g clip-path="url(#oclip0)"><path d="M8 8a4 4 0 100-8 4 4 0 000 8zm8 5.2a1.989 1.989 0 00-1.163-1.818A16.655 16.655 0 008 10a16.655 16.655 0 00-6.837 1.382A1.99 1.99 0 000 13.2V16h16v-2.8z"/></g><defs><clipPath id="oclip0"><path d="M0 0h16v16H0z"/></clipPath></defs></symbol></svg>