<svg width="70" height="14" viewBox="0 0 70 14" fill="none" xmlns="http://www.w3.org/2000/svg">
<path d="M27.0861 7.96824L21.0272 0.311018V0.307129H17.1033V0.311018V12.9227H21.0272V5.26546L27.0861 12.9227H31.0061V0.307129H27.0861V7.96824Z" fill="#E1001E"/>
<path d="M5.89167 0.307129L0 12.9227H4.78333L7.77778 1.41935L10.7761 12.9227H15.5556L9.66389 0.307129H5.89167Z" fill="#E1001E"/>
<path d="M40.1023 13.2339C42.669 13.2339 44.9051 12.6583 46.2662 11.8144V5.53H40.3434V8.03833H42.8517V9.79222C42.249 10.1228 41.3429 10.2161 40.6156 10.2161C38.5001 10.2161 36.7501 8.97556 36.7501 6.62278C36.7501 4.32833 38.504 2.99833 40.8606 2.99833C42.8245 2.99833 44.3645 3.815 44.7262 3.96667L45.9045 1.30667C44.3606 0.423889 42.3384 0 40.3123 0C36.5051 0 32.939 2.56667 32.939 6.615C32.9429 10.9667 36.0851 13.2339 40.1023 13.2339Z" fill="#E1001E"/>
<path d="M64.1082 0.307129L69.9999 12.9227H65.2166L62.2221 1.41935L59.2238 12.9227H54.4443L60.336 0.307129H64.1082Z" fill="#E1001E"/>
<path d="M52.8929 0.307129H48.9729V12.9227H52.8929V0.307129Z" fill="#E1001E"/>
</svg>
