<svg width="162" height="30" viewBox="0 0 162 30" fill="none" xmlns="http://www.w3.org/2000/svg">
<path fill-rule="evenodd" clip-rule="evenodd" d="M148.636 18.2517L148.586 18.6L148.467 19.4516L148.356 20.2684L148.187 21.4646H148.137C145.619 21.2246 143.928 19.0646 144.293 16.4323C144.464 15.2869 144.972 14.2192 145.75 13.3665C145.8 13.3722 145.85 13.3722 145.9 13.3665C146.121 13.3625 146.333 13.2811 146.501 13.1362C146.669 12.9914 146.781 12.7922 146.818 12.5729C146.822 12.5227 146.822 12.4722 146.818 12.422C146.813 12.2848 146.767 12.1525 146.685 12.0426C146.603 11.9326 146.49 11.8503 146.361 11.8065C146.284 11.7827 146.203 11.771 146.123 11.7716C145.903 11.7792 145.692 11.863 145.526 12.009C145.36 12.155 145.249 12.3542 145.212 12.5729C145.2 12.6538 145.2 12.7359 145.212 12.8168C144.284 13.8165 143.678 15.0755 143.475 16.4284C143.044 19.5252 145.05 22.0413 148.018 22.2813H148.071C148.206 22.2813 148.344 22.2813 148.486 22.2813C148.629 22.2813 148.767 22.2813 148.905 22.2813L149.021 21.4607L149.186 20.2646L149.301 19.4478L149.47 18.2478L149.616 17.191H148.782L148.636 18.2517ZM149.021 8.68262C148.728 8.72539 148.439 8.79141 148.156 8.88004C144.774 9.83617 141.98 12.8594 141.48 16.44C140.876 20.7871 143.882 24.3136 148.202 24.3136C148.34 24.3136 148.483 24.3136 148.621 24.3136L148.736 23.4929C148.594 23.4929 148.456 23.4929 148.317 23.4929C144.447 23.4929 141.749 20.3304 142.295 16.4362C142.545 14.8944 143.214 13.4525 144.227 12.2698C145.24 11.0872 146.559 10.2101 148.037 9.73552L147.737 11.8839L147.545 13.262C146.994 13.6089 146.523 14.0707 146.165 14.6162C145.806 15.1618 145.568 15.7784 145.466 16.4246C145.336 17.2616 145.514 18.1176 145.965 18.8323C145.935 18.9027 145.914 18.9769 145.904 19.0529C145.886 19.1531 145.891 19.2559 145.917 19.354C145.944 19.4521 145.992 19.543 146.058 19.6201C146.124 19.6972 146.206 19.7586 146.298 19.7997C146.39 19.8409 146.491 19.8608 146.592 19.8581C146.813 19.8519 147.025 19.768 147.191 19.621C147.358 19.474 147.468 19.273 147.503 19.0529C147.52 18.9534 147.515 18.8513 147.488 18.754C147.461 18.6567 147.413 18.5665 147.348 18.4899C147.283 18.4134 147.201 18.3523 147.11 18.3111C147.018 18.2699 146.919 18.2496 146.818 18.2517C146.751 18.2509 146.684 18.26 146.619 18.2787C146.288 17.7245 146.162 17.071 146.261 16.4323C146.385 15.6163 146.789 14.8698 147.403 14.3226C147.677 14.068 147.988 13.8566 148.325 13.6955L148.41 13.0878L148.448 12.8091L148.625 11.5587L149.021 8.68262Z" fill="white"/>
<path fill-rule="evenodd" clip-rule="evenodd" d="M149.893 15.1974L150.086 13.8077L150.139 13.4206L150.255 12.6038L150.42 11.4116H150.474C152.987 11.6516 154.701 13.8116 154.317 16.4438C154.146 17.5892 153.639 18.6569 152.86 19.5096C152.811 19.5055 152.76 19.5055 152.711 19.5096C152.494 19.5189 152.287 19.6027 152.124 19.7471C151.961 19.8915 151.852 20.0877 151.815 20.3032C151.809 20.3546 151.809 20.4066 151.815 20.458C151.819 20.5951 151.865 20.7276 151.947 20.8372C152.029 20.9468 152.143 21.028 152.272 21.0696C152.348 21.0965 152.427 21.1096 152.507 21.1083C152.728 21.1021 152.94 21.0182 153.106 20.8712C153.273 20.7242 153.383 20.5233 153.418 20.3032C153.431 20.2225 153.431 20.14 153.418 20.0593C154.348 19.061 154.953 17.8013 155.155 16.4477C155.585 13.3509 153.579 10.8387 150.616 10.5948H150.562C150.424 10.5948 150.285 10.5948 150.147 10.5948C150.009 10.5948 149.863 10.5948 149.724 10.5948L149.609 11.4193L149.444 12.6116L149.328 13.4283L149.082 15.2012L149.013 15.689H149.851L149.893 15.1974ZM149.582 24.1935C149.875 24.1515 150.164 24.0855 150.447 23.9961C153.825 23.04 156.619 20.0206 157.119 16.44C157.726 12.089 154.717 8.56641 150.401 8.56641H149.978L149.893 9.39479C150.032 9.39479 150.17 9.39479 150.312 9.39479C154.183 9.39479 156.877 12.5535 156.331 16.4516C156.082 17.993 155.414 19.4349 154.401 20.6175C153.388 21.8002 152.07 22.6774 150.593 23.1522L150.893 21L151.085 19.6258C151.635 19.2774 152.105 18.8147 152.462 18.2686C152.82 17.7225 153.058 17.1056 153.16 16.4593C153.29 15.6222 153.112 14.7663 152.661 14.0516C152.69 13.9823 152.711 13.9094 152.722 13.8348C152.74 13.7349 152.736 13.6321 152.71 13.534C152.684 13.4359 152.637 13.3449 152.571 13.2677C152.505 13.1905 152.423 13.1291 152.331 13.0879C152.239 13.0467 152.139 13.0268 152.038 13.0296C151.817 13.0359 151.605 13.1197 151.438 13.2668C151.272 13.4138 151.162 13.6147 151.127 13.8348C151.109 13.9344 151.114 14.0368 151.14 14.1344C151.167 14.232 151.214 14.3225 151.28 14.3992C151.346 14.476 151.427 14.537 151.519 14.578C151.611 14.619 151.711 14.6388 151.811 14.6361C151.88 14.6362 151.948 14.6284 152.015 14.6129C152.344 15.1662 152.47 15.8181 152.372 16.4554C152.248 17.2646 151.85 18.0057 151.246 18.5535C150.973 18.8098 150.662 19.0214 150.324 19.1806L150.224 19.889L150.201 20.067L150.028 21.3174L149.582 24.1935Z" fill="white"/>
<path d="M32.7112 8.92259L30.605 24H26.0697L26.3003 22.3626H26.2388C25.6792 22.9836 24.9934 23.476 24.2282 23.8067C23.4629 24.1373 22.636 24.2983 21.8035 24.2787C17.668 24.2787 15.166 21.1316 15.8155 16.471C16.465 11.8103 19.8857 8.61678 23.7791 8.61678C24.5304 8.58807 25.277 8.74778 25.9519 9.08155C26.6267 9.41533 27.2087 9.91271 27.6455 10.529H27.6724L27.8992 8.92259H32.7112ZM24.6861 7.30452H21.1886L24.4709 3.40259H27.93L30.286 7.30452H26.7654L25.9698 5.54323H25.9198L24.6861 7.30452ZM27.0613 16.4865C27.3496 14.4194 26.1812 12.9058 24.4055 12.9058C22.5645 12.9058 20.9849 14.3574 20.689 16.4865C20.393 18.6155 21.5038 20.0671 23.3793 20.0671C25.1204 20.0671 26.7577 18.6465 27.0613 16.4865ZM24.1826 27.0426C24.0915 27.5704 23.8151 28.0476 23.4038 28.3873C22.9925 28.7269 22.4736 28.9064 21.9419 28.8929C20.8504 28.8929 20.0663 28.1187 20.2201 27.0426C20.3103 26.5141 20.5864 26.0359 20.9978 25.6955C21.4092 25.355 21.9285 25.1751 22.4608 25.1884C23.5523 25.1884 24.3364 25.9355 24.1826 27.0426Z" fill="white"/>
<path d="M48.4884 14.9729L47.2239 24H42.4119L43.5111 16.1303C43.8571 13.6606 43.1921 12.9213 41.5894 12.9213C39.9867 12.9213 38.703 14.0632 38.3763 16.4052L37.281 24H32.4844L34.5906 8.90322H39.4025L39.1489 10.7264C40.417 9.40219 42.1537 8.63685 43.98 8.59741C47.1047 8.61677 49.1533 10.1884 48.4884 14.9729Z" fill="white"/>
<path d="M71.8182 14.911L70.5461 24H65.7226L66.8295 16.0684C67.1677 13.6606 66.4721 12.9213 64.7886 12.9213C63.1052 12.9213 61.8446 14.0323 61.5179 16.3781L60.4648 24H55.6528L58.8237 1.28516H63.6356L62.325 10.6839C62.9704 10.0269 63.739 9.50583 64.5863 9.15095C65.4335 8.79607 66.3424 8.61449 67.26 8.61677C70.3962 8.61677 72.4793 10.1574 71.8182 14.911Z" fill="white"/>
<path d="M90.0282 8.92258L87.922 24.0194H83.4022L83.629 22.3819H83.5675C83.0084 23.0026 82.3233 23.4949 81.5587 23.8255C80.7941 24.1561 79.9679 24.3173 79.136 24.2981C74.9966 24.2981 72.4946 21.151 73.1441 16.4903C73.7937 11.8297 77.1989 8.61677 81.0961 8.61677C81.848 8.58811 82.5951 8.74781 83.2706 9.08155C83.9461 9.4153 84.5288 9.91265 84.9665 10.529H84.9972L85.2201 8.92258H90.0282ZM82.4413 7.27355L80.2198 3.99097L83.6789 4.01419L85.6006 7.27355H82.4413ZM84.363 16.4864C84.6513 14.4194 83.4867 12.9058 81.7072 12.9058C79.8701 12.9058 78.2866 14.3574 77.9907 16.4864C77.6947 18.6155 78.8093 20.0671 80.6811 20.0671C82.4375 20.0671 84.0748 18.6464 84.3746 16.4864H84.363Z" fill="white"/>
<path d="M105.61 14.9729L104.349 24H99.5446L100.644 16.1303C100.986 13.6606 100.325 12.9213 98.6991 12.9213C97.0733 12.9213 95.8127 14.0632 95.486 16.4052L94.4175 24H89.6094L91.7156 8.90322H96.5237L96.27 10.7264C97.5391 9.40126 99.2774 8.63583 101.105 8.59741C104.23 8.61677 106.278 10.1884 105.61 14.9729Z" fill="white"/>
<path d="M122.22 14.911L120.96 24H116.152L117.259 16.0684C117.593 13.6606 116.901 12.9213 115.214 12.9213C113.527 12.9213 112.27 14.0323 111.943 16.3781L110.879 24H106.078L109.245 1.28516H114.057L112.739 10.6839C113.385 10.0255 114.156 9.50363 115.005 9.1487C115.855 8.79378 116.766 8.61294 117.685 8.61677C120.814 8.61677 122.897 10.1574 122.22 14.911Z" fill="white"/>
<path d="M127.759 22.0646L130.48 18.8246C130.928 19.3696 131.491 19.8073 132.128 20.1059C132.765 20.4046 133.459 20.5566 134.162 20.551C135.05 20.551 135.553 20.2413 135.63 19.6878C135.68 19.3007 135.269 18.9794 133.509 18.422C131.137 17.6207 129.108 16.3549 129.523 13.3897C129.938 10.4246 132.671 8.60907 135.826 8.60907C137.794 8.54436 139.715 9.22689 141.207 10.5213L138.455 13.9781C138.062 13.5079 137.576 13.1251 137.028 12.8539C136.48 12.5827 135.883 12.429 135.273 12.4026C134.888 12.4026 134.212 12.5575 134.12 13.1768C134.07 13.5446 134.569 13.9162 135.907 14.4387C139.047 15.6426 140.715 16.4168 140.327 19.44C139.942 22.2194 137.682 24.3175 133.608 24.3175C131.245 24.3252 129.235 23.582 127.759 22.0646Z" fill="white"/>
<path d="M149.344 7.56377H145.846L149.125 3.65796H152.572L154.94 7.56377H151.419L150.627 5.80247H150.577L149.344 7.56377Z" fill="white"/>
<path d="M154.913 5.72521L156.83 2.46585L160.282 2.44263L158.064 5.72521H154.913Z" fill="white"/>
<path d="M12.7103 8.55481L8.33261 18.24H8.27112L6.53389 8.55481L1.61816 8.59739L5.1887 24.2903L9.72393 24.24L17.9335 8.55481H12.7103Z" fill="white"/>
</svg>
