<svg width="99" height="22" viewBox="0 0 99 22" fill="none" xmlns="http://www.w3.org/2000/svg">
<path d="M0.584 1.682H7.5V2.982L5.186 3.294L9.476 15.488L10.438 18.66L11.296 15.436L15.17 3.294L13.116 2.982V1.682H18.914V2.982L17.25 3.294L11.088 21.208H8.826L2.17 3.294L0.584 2.982V1.682ZM19.588 17.1C19.588 15.4707 20.4026 14.2747 22.032 13.512C23.6613 12.732 25.724 12.316 28.22 12.264V11.536C28.22 10.7213 28.1333 10.08 27.96 9.612C27.7866 9.144 27.4833 8.806 27.05 8.598C26.634 8.37267 26.036 8.26 25.256 8.26C24.372 8.26 23.5746 8.39 22.864 8.65C22.1706 8.89267 21.4773 9.196 20.784 9.56L20.134 8.208C20.3593 8.01733 20.7753 7.766 21.382 7.454C21.9886 7.142 22.6906 6.86467 23.488 6.622C24.2853 6.37933 25.0826 6.258 25.88 6.258C27.1106 6.258 28.0813 6.43133 28.792 6.778C29.52 7.10733 30.04 7.64467 30.352 8.39C30.664 9.13533 30.82 10.132 30.82 11.38V19.726H32.354V20.87C32.0073 20.9567 31.5653 21.0433 31.028 21.13C30.508 21.2167 30.0486 21.26 29.65 21.26C29.1646 21.26 28.8353 21.182 28.662 21.026C28.4886 20.8873 28.402 20.5667 28.402 20.064V19.206C27.882 19.726 27.2406 20.2027 26.478 20.636C25.7326 21.0693 24.8833 21.286 23.93 21.286C22.682 21.286 21.642 20.9307 20.81 20.22C19.9953 19.492 19.588 18.452 19.588 17.1ZM25.048 19.518C25.4986 19.518 26.0186 19.3793 26.608 19.102C27.1973 18.8247 27.7346 18.4953 28.22 18.114V13.642C26.3306 13.642 24.9006 13.9367 23.93 14.526C22.9766 15.098 22.5 15.852 22.5 16.788C22.5 17.724 22.7253 18.4173 23.176 18.868C23.644 19.3013 24.268 19.518 25.048 19.518ZM33.8502 13.876C33.8502 12.4373 34.1275 11.1373 34.6822 9.976C35.2542 8.81467 36.0862 7.896 37.1782 7.22C38.2875 6.52667 39.6135 6.18 41.1562 6.18C41.9015 6.18 42.5429 6.24933 43.0802 6.388C43.6175 6.52667 44.2589 6.71733 45.0042 6.96L44.9002 10.964H43.2102L42.6382 8.312C42.5342 7.82667 41.8755 7.584 40.6622 7.584C39.4489 7.584 38.4869 8.078 37.7762 9.066C37.0829 10.0367 36.7362 11.4233 36.7362 13.226C36.7362 15.2713 37.1262 16.8313 37.9062 17.906C38.7035 18.9633 39.7349 19.492 41.0002 19.492C41.7282 19.492 42.4129 19.3793 43.0542 19.154C43.7129 18.9287 44.2762 18.66 44.7442 18.348L45.2382 19.388C44.7702 19.8733 44.0769 20.3153 43.1582 20.714C42.2569 21.0953 41.3382 21.286 40.4022 21.286C38.9809 21.286 37.7762 20.9653 36.7882 20.324C35.8175 19.6827 35.0809 18.8073 34.5782 17.698C34.0929 16.5713 33.8502 15.2973 33.8502 13.876ZM47.1803 13.876C47.1803 12.4373 47.4576 11.1373 48.0123 9.976C48.5843 8.81467 49.4163 7.896 50.5083 7.22C51.6176 6.52667 52.9436 6.18 54.4863 6.18C55.2316 6.18 55.8729 6.24933 56.4103 6.388C56.9476 6.52667 57.5889 6.71733 58.3343 6.96L58.2303 10.964H56.5403L55.9683 8.312C55.8643 7.82667 55.2056 7.584 53.9923 7.584C52.7789 7.584 51.8169 8.078 51.1063 9.066C50.4129 10.0367 50.0663 11.4233 50.0663 13.226C50.0663 15.2713 50.4563 16.8313 51.2363 17.906C52.0336 18.9633 53.0649 19.492 54.3303 19.492C55.0583 19.492 55.7429 19.3793 56.3843 19.154C57.0429 18.9287 57.6063 18.66 58.0743 18.348L58.5683 19.388C58.1003 19.8733 57.4069 20.3153 56.4883 20.714C55.5869 21.0953 54.6683 21.286 53.7323 21.286C52.3109 21.286 51.1063 20.9653 50.1183 20.324C49.1476 19.6827 48.4109 18.8073 47.9083 17.698C47.4229 16.5713 47.1803 15.2973 47.1803 13.876ZM63.8903 3.97C63.3357 3.97 62.9197 3.814 62.6423 3.502C62.365 3.19 62.2263 2.79133 62.2263 2.306C62.2263 1.75133 62.391 1.292 62.7203 0.928C63.067 0.563999 63.535 0.381999 64.1243 0.381999C64.7137 0.381999 65.147 0.537999 65.4243 0.849999C65.7017 1.162 65.8403 1.56067 65.8403 2.046C65.8403 2.63533 65.667 3.10333 65.3203 3.45C64.991 3.79667 64.523 3.97 63.9163 3.97H63.8903ZM62.8503 8.572L60.8743 8.104V6.726L64.9043 6.232H64.9563L65.5543 6.7V19.518L67.6343 19.726V21H60.7443V19.726L62.8503 19.492V8.572ZM71.0405 8.572L69.1685 8.104V6.7L72.8865 6.232H72.9645L73.5105 6.7V7.792L73.4845 8.416C74.1085 7.86133 74.9319 7.35867 75.9545 6.908C76.9772 6.45733 77.9565 6.232 78.8925 6.232C79.9845 6.232 80.8252 6.44 81.4145 6.856C82.0212 7.272 82.4459 7.91333 82.6885 8.78C82.9312 9.62933 83.0525 10.782 83.0525 12.238V19.518L84.8725 19.7V21H78.7105V19.726L80.3225 19.518V12.212C80.3225 11.1893 80.2532 10.392 80.1145 9.82C79.9759 9.23067 79.7159 8.79733 79.3345 8.52C78.9532 8.22533 78.3985 8.078 77.6705 8.078C77.0465 8.078 76.3792 8.234 75.6685 8.546C74.9579 8.858 74.3252 9.222 73.7705 9.638V19.492L75.5385 19.726V21H69.4025V19.726L71.0405 19.492V8.572ZM93.1422 21.286C91.0448 21.286 89.4415 20.6013 88.3322 19.232C87.2402 17.8627 86.6942 16.034 86.6942 13.746C86.6942 12.238 86.9802 10.912 87.5522 9.768C88.1242 8.624 88.9215 7.74 89.9442 7.116C90.9842 6.492 92.1628 6.18 93.4802 6.18C95.0922 6.18 96.3402 6.63067 97.2242 7.532C98.1255 8.416 98.6022 9.69 98.6542 11.354C98.6542 12.4113 98.5935 13.2173 98.4722 13.772H89.5282C89.5628 15.488 89.9615 16.8747 90.7242 17.932C91.4868 18.972 92.5702 19.492 93.9742 19.492C94.6675 19.492 95.3868 19.3707 96.1322 19.128C96.8948 18.868 97.4842 18.5647 97.9002 18.218L98.3942 19.362C97.8915 19.882 97.1462 20.3327 96.1582 20.714C95.1702 21.0953 94.1648 21.286 93.1422 21.286ZM95.7942 12.394C95.8462 12.03 95.8722 11.6573 95.8722 11.276C95.8548 10.1493 95.6122 9.26533 95.1442 8.624C94.6935 7.96533 93.9742 7.636 92.9862 7.636C91.9808 7.636 91.1748 8 90.5682 8.728C89.9788 9.456 89.6408 10.678 89.5542 12.394H95.7942Z" fill="#FFFEFD"/>
</svg>
