<svg width="71" height="45" viewBox="0 0 71 45" fill="none" xmlns="http://www.w3.org/2000/svg">
<path d="M14.17 8.19214C10.2006 8.19214 6.805 10.7547 5.60938 14.3139C5.56155 14.4088 5.56155 14.4563 5.51373 14.5512L5.32243 15.3105L0.348633 36.8079H12.9266C16.7048 36.8079 19.909 34.4351 21.1047 31.1132L21.5829 29.0726L26.461 8.19214H14.17Z" fill="white"/>
<path d="M37.9392 1.02637C33.8263 1.02637 30.335 3.7788 29.2829 7.52779C29.1872 7.81253 29.1394 8.09726 29.0916 8.38199L20.8179 43.9737H33.1089C37.3175 43.9737 40.8565 41.0789 41.8608 37.235L50.2302 1.02637H37.9392Z" fill="white"/>
<path d="M58.3605 8.19214C54.5345 8.19214 51.2345 10.5649 49.9433 13.9343C49.8955 14.1241 49.6563 14.8359 49.6563 14.8359L44.5391 36.8079H56.8301C61.0387 36.8079 64.5777 33.9131 65.582 30.0217L70.6515 8.19214H58.3605Z" fill="white"/>
<path d="M8.67021 16.1173C8.00066 16.6867 7.52241 17.3986 7.37893 17.9206L4.79639 29.5947H4.93986C5.75289 29.5947 6.51808 29.3099 7.18763 28.7405C7.90501 28.171 8.33543 27.5066 8.47891 26.6999L9.14846 23.7576H14.744C15.557 23.7576 16.3222 23.4729 17.0396 22.9034C17.7569 22.334 18.1874 21.6221 18.3787 20.8628L18.4265 20.7205H9.91365L10.4397 18.3951H18.5221C19.3352 18.3951 20.1004 18.1104 20.7699 17.5409C21.4395 16.9715 21.8699 16.2596 22.0612 15.4529L22.109 15.3105H10.9658C10.1528 15.2631 9.38758 15.5478 8.67021 16.1173Z" fill="#F26C1F"/>
<path d="M65.5343 15.9749C65.1039 15.5478 64.4822 15.3105 63.8126 15.3105H52.6694V15.4055C52.6216 15.6427 52.6216 15.8326 52.6216 16.0224C52.6216 16.6868 52.8607 17.2562 53.2911 17.7308C53.7216 18.1579 54.3433 18.3952 55.0128 18.3952H57.4041L55.0128 29.6422H55.1563C55.9693 29.6422 56.7345 29.3574 57.4041 28.788C58.0736 28.2185 58.504 27.5541 58.6953 26.7474L60.4649 18.3952H66.1082V18.3003C66.156 18.1104 66.156 17.8732 66.156 17.6833C66.2039 16.9715 66.0126 16.402 65.5343 15.9749Z" fill="#F26C1F"/>
<path d="M41.0954 15.2629H33.5869H30.4783L27.4175 29.5945H27.561C28.374 29.5945 29.1392 29.3098 29.8087 28.7403C30.4783 28.1709 30.9087 27.5065 31.1 26.6997L31.7217 23.7575H39.3259C40.1389 23.7575 40.9041 23.4728 41.5737 22.9033C42.2432 22.3338 42.7215 21.6695 42.8649 20.8153L43.4388 18.2052C43.4867 18.0154 43.4867 17.7781 43.4867 17.5883C43.4867 16.9239 43.2475 16.3544 42.8171 15.9273C42.3867 15.5002 41.8128 15.2629 41.0954 15.2629ZM32.9173 18.3476H40.378L39.852 20.6729H32.3913L32.9173 18.3476Z" fill="#F26C1F"/>
</svg>
