<svg width="144" height="30" viewBox="0 0 144 30" fill="none" xmlns="http://www.w3.org/2000/svg">
<g clip-path="url(#clip0)">
<path fill-rule="evenodd" clip-rule="evenodd" d="M80.5279 11.7233H75.3004V14.4084H80.5279C80.9598 14.4084 81.2257 14.3531 81.3918 14.1984C81.5025 14.0879 81.6133 13.878 81.6133 13.6017V12.5299C81.6133 12.2647 81.5025 12.0437 81.3918 11.9332C81.2257 11.7785 80.9488 11.7233 80.5279 11.7233ZM72.9746 20.0106V9.99951H81.6022C82.3553 9.99951 82.9534 10.1653 83.3299 10.4857C83.6511 10.7509 83.8726 11.2923 83.8726 11.9332V14.1984C83.8726 14.8393 83.6511 15.3807 83.3299 15.6459C82.9534 15.9664 82.3553 16.1321 81.6022 16.1321H75.2893V20.0106H72.9746Z" fill="white"/>
<path fill-rule="evenodd" clip-rule="evenodd" d="M94.9811 11.7233H89.7536V14.5188H94.9811C95.413 14.5188 95.6788 14.4636 95.8449 14.3531C95.9557 14.2426 96.0664 14.0327 96.0664 13.7012V12.5188C96.0664 12.2537 95.9557 12.0327 95.8449 11.9222C95.6788 11.7785 95.4019 11.7233 94.9811 11.7233ZM87.4278 20.0106V9.99951H96C96.8085 9.99951 97.4065 10.1653 97.7831 10.4857C98.1043 10.7509 98.3258 11.2923 98.3258 11.9332V14.2979C98.3258 14.994 98.1043 15.4802 97.7831 15.7454C97.4065 16.0658 96.8085 16.2316 96 16.2316H94.7042L99.3447 19.9995H96L91.9575 16.2316H89.7425V19.9995H87.4278V20.0106Z" fill="white"/>
<path fill-rule="evenodd" clip-rule="evenodd" d="M103.011 20.0106V9.99951H113.311V11.7233H105.381V13.9222H110.021V15.6459H105.381V18.1211H113.421V20.0106H103.011Z" fill="white"/>
<path fill-rule="evenodd" clip-rule="evenodd" d="M126.424 11.7788H119.845V13.9335H126.102C127.077 13.9335 127.775 14.0993 128.096 14.4197C128.473 14.7401 128.639 15.3921 128.639 16.2982V17.6462C128.639 18.5634 128.473 19.2042 128.096 19.5247C127.775 19.8451 127.066 20.0109 126.102 20.0109H119.9C118.926 20.0109 118.283 19.8451 117.907 19.5247C117.586 19.2042 117.419 18.5523 117.419 17.6462V17.381L119.468 16.9501V18.1324H126.534V15.8672H120.277C119.302 15.8672 118.66 15.7015 118.339 15.3258C117.962 15.0053 117.796 14.4087 117.796 13.4915V12.3645C117.796 11.4473 117.962 10.8617 118.339 10.5302C118.66 10.1545 119.313 9.98877 120.277 9.98877H125.992C126.966 9.98877 127.609 10.1545 127.93 10.475C128.306 10.7954 128.473 11.3921 128.473 12.1987V12.4197L126.424 12.9059V11.7788Z" fill="white"/>
<path fill-rule="evenodd" clip-rule="evenodd" d="M141.84 11.7788H135.262V13.9335H141.519C142.494 13.9335 143.136 14.0993 143.513 14.4197C143.834 14.7401 144 15.3921 144 16.2982V17.6462C144 18.5634 143.834 19.2042 143.513 19.5247C143.136 19.8451 142.494 20.0109 141.519 20.0109H135.317C134.342 20.0109 133.645 19.8451 133.323 19.5247C132.947 19.2042 132.781 18.5523 132.781 17.6462V17.381L134.83 16.9501V18.1324H141.951V15.8672H135.694C134.719 15.8672 134.077 15.7015 133.7 15.3258C133.379 15.0053 133.213 14.4087 133.213 13.4915V12.3645C133.213 11.4473 133.379 10.8617 133.7 10.5302C134.077 10.1545 134.73 9.98877 135.694 9.98877H141.408C142.328 9.98877 142.97 10.1545 143.347 10.475C143.723 10.7954 143.889 11.3921 143.889 12.1987V12.4197L141.84 12.9059V11.7788Z" fill="white"/>
<path fill-rule="evenodd" clip-rule="evenodd" d="M57.9234 20.0106L62.6747 14.8945L57.8126 9.99951H60.9469L64.1255 13.3918L67.2044 9.99951H69.8403L65.4767 14.6293L70.9257 20.0106H67.736L64.0701 16.1321L60.67 20.0106H57.9234Z" fill="white"/>
<path fill-rule="evenodd" clip-rule="evenodd" d="M5.82557 20.0106L0 9.99951H2.70235L6.74481 17.2592L10.6211 9.99951H12.9469L7.44255 20.0106H5.82557Z" fill="white"/>
<path fill-rule="evenodd" clip-rule="evenodd" d="M14.6747 20.0106V9.99951H16.2363L23.3023 15.9222C23.5681 16.1321 23.7896 16.2979 23.9557 16.4636C24.1772 16.6293 24.3323 16.8393 24.4984 17.005C24.443 16.4636 24.3876 16.0327 24.3876 15.8227C24.3876 15.6017 24.3876 15.3918 24.3876 15.2813V9.99951H26.4919V20.0106H24.8749L17.4878 13.8227C17.3216 13.657 17.1666 13.5575 17.0558 13.3918C16.8897 13.2813 16.79 13.1818 16.6793 13.0161C16.7347 13.3365 16.7347 13.6128 16.7347 13.9332C16.79 14.1984 16.79 14.4194 16.79 14.6293V20.0106H14.6747Z" fill="white"/>
<path d="M54.1468 0H30.7448C29.8256 0 29.0835 0.740332 29.0835 1.65746V28.3425C29.0835 29.2597 29.8256 30 30.7448 30H54.1468C55.066 30 55.808 29.2597 55.808 28.3425V1.65746C55.808 0.740332 55.066 0 54.1468 0Z" fill="#9F224E"/>
<path fill-rule="evenodd" clip-rule="evenodd" d="M38.2981 16.8838V21.7788H51.7213V25.9224H33.1703V4.07715H51.5108V7.78986H38.2981V12.3644H45.0872V16.939L38.2981 16.8838Z" fill="white"/>
<path d="M51.7213 20.1216H39.9594V18.5525L45.0761 18.5967C45.5191 18.5636 45.94 18.431 46.2612 18.1105C46.5713 17.8011 46.7485 17.3702 46.7485 16.9393V12.3647C46.7485 11.4475 46.0065 10.7072 45.0872 10.7072H39.9483V9.44755H51.4998C52.419 9.44755 53.161 8.70721 53.161 7.79009V4.07738C53.161 3.16025 52.419 2.41992 51.4998 2.41992H33.1703C32.251 2.41992 31.509 3.16025 31.509 4.07738V25.9227C31.509 26.8398 32.251 27.5801 33.1703 27.5801H51.7213C52.6405 27.5801 53.3825 26.8398 53.3825 25.9227V21.779C53.3825 20.8619 52.6405 20.1216 51.7213 20.1216Z" fill="white"/>
<path fill-rule="evenodd" clip-rule="evenodd" d="M38.2981 16.8843V21.7793H51.7213V25.9229H33.1703V4.07764H51.5108V7.79034H38.2981V12.3649H45.0872V16.9395L38.2981 16.8843Z" fill="#9F224E"/>
</g>
<defs>
<clipPath id="clip0">
<rect width="144" height="30" fill="white"/>
</clipPath>
</defs>
</svg>
