<svg width="91" height="35" viewBox="0 0 91 35" fill="none" xmlns="http://www.w3.org/2000/svg">
<path d="M40.0342 7.58336C40.0342 6.84447 40.3037 6.18336 40.8811 5.63891C41.42 5.09447 42.0744 4.78336 42.8058 4.78336H45.7699C46.5013 4.78336 47.1557 5.05558 47.6946 5.63891C48.272 6.18336 48.5415 6.84447 48.5415 7.58336V19.9111H45.8084V15.1667H42.8058V19.9111H40.0342V7.58336ZM42.8058 12.3667H45.8084V7.58336H42.8058V12.3667Z" fill="white"/>
<path d="M54.6236 4.82227H57.3952C58.1266 4.82227 58.781 5.09449 59.3199 5.67782C59.8973 6.22227 60.1668 6.88338 60.1668 7.62227V8.82782H57.3567V7.62227H54.6236V9.64449L59.0889 12.95C59.8203 13.4945 60.1668 14.1945 60.1668 15.0889V17.1112C60.1668 17.85 59.8973 18.5112 59.3199 19.0556C58.7425 19.6 58.1266 19.8723 57.3952 19.8723H54.6236C53.8922 19.8723 53.2378 19.6 52.6989 19.0556C52.1599 18.5112 51.852 17.85 51.852 17.1112V15.8667H54.6621V17.1112H57.3952V15.0112L52.9683 11.8223C52.2369 11.2778 51.852 10.5778 51.852 9.64449V7.58338C51.852 6.84449 52.1214 6.18338 52.6989 5.63893C53.2378 5.09449 53.8922 4.82227 54.6236 4.82227Z" fill="white"/>
<path d="M66.2104 19.9112H63.4388V4.82227H66.2104V19.9112Z" fill="white"/>
<path d="M69.4825 7.58336C69.4825 6.84447 69.7519 6.18336 70.3293 5.63891C70.8683 5.09447 71.5227 4.78336 72.2541 4.78336H75.2181C75.9495 4.78336 76.6039 5.05558 77.1429 5.63891C77.7203 6.18336 77.9897 6.84447 77.9897 7.58336V19.9111H75.2181V15.1667H72.2156V19.9111H69.444V7.58336H69.4825ZM72.2541 12.3667H75.2566V7.58336H72.2541V12.3667Z" fill="white"/>
<path d="M87.0359 19.9112L84.0333 12.0167V19.9112H81.3002V4.82227H84.2643L87.3054 12.7556V4.82227H90.0385V19.9112H87.0359Z" fill="white"/>
<path d="M43.1523 31.3834H41.42C40.9966 31.3834 40.6116 31.2278 40.2652 30.8778C39.9187 30.5667 39.7648 30.1778 39.7648 29.7111V24.0722C39.7648 23.6445 39.9187 23.2556 40.2652 22.9056C40.6116 22.5556 40.9966 22.4 41.42 22.4H43.1523C43.5757 22.4 43.9607 22.5556 44.3071 22.9056C44.6536 23.2556 44.8075 23.6445 44.8075 24.0722V24.7334H43.1523V24.0722H41.3815V29.7111H43.1523V28.9722H44.8075V29.7111C44.8075 30.1389 44.6536 30.5278 44.3071 30.8778C43.9992 31.2278 43.6142 31.3834 43.1523 31.3834Z" fill="white"/>
<path d="M50.8127 31.3833H49.0034C48.58 31.3833 48.1951 31.2278 47.8486 30.8778C47.5022 30.5666 47.3482 30.1778 47.3482 29.7111V22.4389H49.0034V29.75H50.8512V22.4389H52.5064V29.75C52.5064 30.1778 52.3525 30.5666 52.006 30.9166C51.6596 31.2666 51.2361 31.3833 50.8127 31.3833Z" fill="white"/>
<path d="M58.2806 28.35H56.6253V31.3833H54.9701V22.4389H58.2806C58.704 22.4389 59.089 22.5944 59.4354 22.9444C59.7819 23.2944 59.9358 23.6833 59.9358 24.1111V26.7166C59.9358 27.1444 59.7819 27.5333 59.4354 27.8833C59.089 28.2333 58.704 28.35 58.2806 28.35ZM58.3191 26.6778V24.0722H56.6638V26.6778H58.3191Z" fill="white"/>
<path d="M68.6741 27.7278H67.0188V29.7111H70.3293V31.3834H65.3636V27.7278C65.3636 27.3 65.5175 26.9111 65.864 26.5611C66.2104 26.2111 66.5954 26.0556 67.0188 26.0556H68.6741V24.0722H67.0188V24.7334H65.3636V24.0722C65.3636 23.6445 65.5175 23.2556 65.864 22.9056C66.2104 22.5556 66.5954 22.4 67.0188 22.4H68.6741C69.059 22.4 69.4055 22.5167 69.7134 22.7889C69.9059 22.9834 70.0599 23.1389 70.1754 23.3334C70.2908 23.5278 70.3293 23.7611 70.3293 24.0334V26.0556C70.3293 26.4834 70.1754 26.8722 69.8289 27.2222C69.4825 27.5722 69.0975 27.7278 68.6741 27.7278Z" fill="white"/>
<path d="M76.219 31.3834H74.4867C74.0633 31.3834 73.6784 31.2278 73.3319 30.8778C72.9855 30.5278 72.8315 30.1778 72.8315 29.7111V24.0722C72.8315 23.6445 72.9855 23.2556 73.3319 22.9056C73.6784 22.5556 74.0633 22.4 74.4867 22.4H76.219C76.6424 22.4 77.0274 22.5556 77.3738 22.9056C77.7203 23.2167 77.8743 23.6056 77.8743 24.0722V29.7111C77.8743 30.1389 77.7203 30.5278 77.3738 30.8778C77.0659 31.2278 76.6809 31.3834 76.219 31.3834ZM76.2575 29.75V24.0722H74.4867V29.7111H76.2575V29.75Z" fill="white"/>
<path d="M82.5321 31.3834H80.8769V24.4611H80.4149V22.7889L81.4158 22.4H82.4936V31.3834H82.5321Z" fill="white"/>
<path d="M88.3833 31.3833H86.728C86.3046 31.3833 85.9196 31.2278 85.5732 30.8778C85.2267 30.5278 85.0727 30.1778 85.0727 29.7111V28.9722H86.6895V29.7111H88.3833V27.7278H86.6895C86.2661 27.7278 85.8811 27.5722 85.5347 27.2222C85.1882 26.8722 85.0342 26.5222 85.0342 26.0556V24.0333C85.0342 23.6056 85.1882 23.2167 85.5347 22.8667C85.8811 22.5167 86.2661 22.3611 86.6895 22.3611H88.3448C88.7682 22.3611 89.1532 22.5167 89.4996 22.8667C89.8461 23.2167 90 23.6056 90 24.0333V29.6722C90 30.1 89.8461 30.4889 89.4996 30.8389C89.1532 31.1889 88.8067 31.3833 88.3833 31.3833ZM88.3833 26.0944V24.1111H86.6895V26.0944H88.3833Z" fill="white"/>
<path d="M32.9897 3.42222L32.7588 3.26667C32.5278 3.15 27.2541 0 17.7459 0C8.23781 0 2.92558 3.15 2.7331 3.26667L2.46364 3.42222L0 19.9889L17.7459 35L35.2224 20.1833L35.4919 19.95L32.9897 3.42222ZM17.7459 33.4056L1.27032 19.4833L3.57998 4.16111C4.69632 3.57778 9.6621 1.20556 17.7459 1.20556C25.8298 1.20556 30.7956 3.57778 31.9119 4.16111L34.2216 19.4833L17.7459 33.4056Z" fill="white"/>
<path d="M22.2498 21.35H21.4414V22.5944H22.2498V21.35Z" fill="white"/>
<path d="M17.8614 5.40555C14.7819 5.40555 12.2412 7.93333 12.2412 11.0833C12.2412 11.8611 12.3952 12.6 12.7032 13.3H23.0197C23.3276 12.6 23.4816 11.8611 23.4816 11.0833C23.4816 7.93333 20.941 5.40555 17.8614 5.40555ZM13.4731 11.9778L12.8956 11.6278C12.8956 11.6278 12.7802 10.6944 13.0111 9.7611C13.1651 9.0611 13.4731 8.47777 13.4731 8.47777H14.5124L14.6279 10.2278L13.4731 11.9778ZM20.8255 10.3444L19.7862 10.6944L19.2472 12.2111L19.9401 13.0278L19.8246 13.1444L19.0163 12.4444L17.8614 12.6778L16.7066 12.4444L15.8982 13.1444L15.7827 12.9889L16.4756 12.1722L15.8982 10.6555L14.8589 10.3055V10.1889L16.1292 10.3055L17.515 9.25555L17.7844 7.85555H17.9384L18.2079 9.25555L19.5937 10.3055L20.864 10.1889V10.3444H20.8255ZM20.941 8.28333L19.4397 7.34999L17.8229 7.69999L16.2062 7.34999L14.7049 8.28333V8.04999L16.2062 6.99999L16.4371 6.18333C16.4371 6.18333 17.13 5.94999 17.8229 5.94999C18.5158 5.94999 19.2087 6.18333 19.2087 6.18333L19.4397 6.99999L20.941 8.04999V8.28333ZM22.2498 11.9778L21.095 10.2278L21.2104 8.47777H22.2498C22.2498 8.47777 22.5578 9.0611 22.7117 9.7611C22.9427 10.6944 22.8272 11.6278 22.8272 11.6278L22.2498 11.9778Z" fill="white"/>
<path d="M11.4328 15.1278H10.586V16.4889H11.4328V15.1278Z" fill="white"/>
<path d="M17.7459 2.79999C11.2019 2.79999 6.81351 4.43332 5.04277 5.24999L3.00256 18.8611L17.7459 31.3444L32.4893 18.8611L30.4491 5.24999C28.6784 4.43332 24.29 2.79999 17.7459 2.79999ZM15.2823 21.6611H14.5124V21.35H13.6655V24.0333H14.5124V23.6833H15.2823V24.0333C15.2823 24.2278 15.2053 24.4222 15.0513 24.5778C14.8973 24.7333 14.7049 24.8111 14.5124 24.8111H13.6655C13.4731 24.8111 13.2806 24.7333 13.1266 24.5778C12.9726 24.4222 12.8956 24.2278 12.8956 24.0333V21.35C12.8956 21.1555 12.9726 20.9611 13.1266 20.8055C13.2806 20.65 13.4731 20.5722 13.6655 20.5722H14.4739C14.6664 20.5722 14.8589 20.65 15.0128 20.8055C15.1668 20.9611 15.2438 21.1555 15.2438 21.35V21.6611H15.2823ZM19.1702 24.0333C19.1702 24.2278 19.0932 24.4222 18.9393 24.5778C18.7853 24.7333 18.5928 24.8111 18.4003 24.8111H17.5535C17.361 24.8111 17.1685 24.7333 17.0145 24.5778C16.8606 24.4222 16.7836 24.2278 16.7836 24.0333V20.5722H17.5535V24.0333H18.4388V20.5722H19.2087V24.0333H19.1702ZM23.0197 22.5944C23.0197 22.7889 22.9427 22.9833 22.7887 23.1389C22.6347 23.2944 22.4423 23.3722 22.2498 23.3722H21.4799V24.8111H20.71V20.5333H22.2883C22.4807 20.5333 22.6732 20.6111 22.8272 20.7667C22.9812 20.9222 23.0582 21.1167 23.0582 21.3111V22.5944H23.0197ZM26.2147 19.6778H9.54662V19.3667H26.2147V19.6778ZM10.586 17.2667V18.6278H9.81608V15.1667C9.81608 14.9722 9.89307 14.7778 10.047 14.6222C10.201 14.4667 10.3935 14.3889 10.586 14.3889H11.4328C11.6253 14.3889 11.8178 14.4667 11.9718 14.6222C12.1257 14.7778 12.2027 14.9722 12.2027 15.1667V18.6278H11.4328V17.2667H10.586ZM15.2438 17.8111V17.2278L13.9735 16.3333C13.781 16.1778 13.6655 15.9833 13.6655 15.7111V15.1278C13.6655 14.9333 13.7425 14.7389 13.8965 14.5833C14.0505 14.4278 14.2429 14.35 14.4354 14.35H15.2053C15.3978 14.35 15.5902 14.4278 15.7442 14.5833C15.8982 14.7389 15.9752 14.9333 15.9752 15.1278V15.4778H15.1668V15.1278H14.3969V15.7111L15.6672 16.6444C15.8597 16.8 15.9752 16.9944 15.9752 17.2667V17.85C15.9752 18.0444 15.8982 18.2389 15.7442 18.3944C15.5902 18.55 15.3978 18.6278 15.2053 18.6278H14.4354C14.2429 18.6278 14.0505 18.55 13.8965 18.3944C13.7425 18.2389 13.6655 18.0444 13.6655 17.85V17.5H14.4354V17.85H15.2438V17.8111ZM17.4765 18.5889V14.3111H18.2464V18.5889H17.4765ZM20.5175 17.2667V18.6278H19.7476V15.1667C19.7476 14.9722 19.8246 14.7778 19.9786 14.6222C20.1326 14.4667 20.3251 14.3889 20.5175 14.3889H21.3644C21.5569 14.3889 21.7494 14.4667 21.9033 14.6222C22.0573 14.7778 22.1343 14.9722 22.1343 15.1667V18.6278H21.3644V17.2667H20.5175ZM26.0992 18.5889H25.2523L24.4055 16.3722V18.5889H23.6356V14.3111H24.4825L25.3293 16.5278V14.3111H26.0992V18.5889ZM26.2147 13.6111H9.54662V13.3H12.3567C12.0873 12.6 11.9333 11.8611 11.9333 11.0833C11.9333 7.73888 14.5894 5.05554 17.8614 5.05554C21.1334 5.05554 23.7896 7.73888 23.7896 11.0444C23.7896 11.8222 23.6356 12.5611 23.3661 13.2611H26.2147V13.6111Z" fill="white"/>
<path d="M21.3644 15.1278H20.5175V16.4889H21.3644V15.1278Z" fill="white"/>
</svg>
