<svg width="181" height="42" viewBox="0 0 181 42" fill="none" xmlns="http://www.w3.org/2000/svg">
<path d="M44.7775 5.03027C44.6593 5.27427 44.423 5.51826 44.1867 5.76225L44.0686 5.88425L43.9504 6.00624L41.7057 7.71419L34.2624 13.57L18.0764 26.1356L19.6123 38.5793V38.9453C19.6123 39.3112 19.7305 39.5552 19.9668 39.9212C19.9668 39.9212 19.9668 39.9212 19.9668 40.0432C19.9668 40.0432 19.9668 40.0432 19.9668 40.1652C20.5575 41.0192 21.5027 41.6292 22.566 41.6292C23.6293 41.6292 24.5745 41.0192 25.1652 40.1652L25.2833 40.0432L44.423 5.88425L44.5412 5.76225C44.5412 5.51826 44.7775 5.03027 44.7775 5.03027Z" fill="url(#paint0_linear)"/>
<path d="M3.66252 0.272461H3.89882H42.06C42.06 0.272461 42.1782 0.272461 42.2963 0.272461C43.2415 0.272461 44.1867 0.882443 44.7774 1.85841C45.3681 2.83438 45.25 3.93235 44.7774 4.90832C44.7774 4.90832 44.7774 4.90832 44.7774 5.03032C44.7774 5.03032 44.7774 5.03032 44.7774 5.15232C44.6593 5.39631 44.423 5.6403 44.1867 5.88429L43.9504 6.12829L34.2624 13.6921L15.5953 5.5183L6.97062 1.73642L4.3714 0.63845L4.25325 0.516454H4.13511C3.78067 0.394457 3.54438 0.272461 3.18994 0.272461C3.07179 0.272461 3.66252 0.272461 3.66252 0.272461Z" fill="url(#paint1_linear)"/>
<path d="M19.6123 39.4333V39.3113L0.472585 5.15231L0.354439 5.03032C-0.118146 3.93235 -0.118146 2.83438 0.354439 1.85841C0.94517 0.882443 1.89034 0.272461 2.95366 0.272461H3.0718H3.18995C3.54439 0.272461 3.78068 0.394457 4.13512 0.516454L4.48956 0.63845L15.7134 5.5183L18.1945 26.1357L19.376 35.7734L19.7304 38.7013V38.8233V38.9453C19.7304 39.3113 19.8486 39.5553 20.0849 39.9213C19.9667 39.9213 19.6123 39.4333 19.6123 39.4333Z" fill="url(#paint2_linear)"/>
<path d="M63.3265 10.6423V36.5056H57.6555V10.6423H50.803V5.39648H70.179V10.5203H63.3265V10.6423Z" fill="#2D1D4D"/>
<path d="M84.2382 25.1598C83.2931 25.1598 82.1116 25.0378 81.5209 24.9158V36.2615H75.8499V6.98236C78.0946 6.00639 81.0483 5.27441 84.3564 5.27441C91.6815 5.27441 95.8166 9.1783 95.8166 15.2781C95.8166 21.0119 91.9177 25.1598 84.2382 25.1598ZM84.4745 10.0323C83.2931 10.0323 82.2298 10.2763 81.5209 10.5203V20.402C82.1116 20.524 83.0568 20.646 84.0019 20.646C88.0189 20.646 90.2637 18.694 90.2637 15.4001C90.1456 11.7402 88.2552 10.0323 84.4745 10.0323Z" fill="#2D1D4D"/>
<path d="M109.521 36.3836C106.568 36.3836 103.26 35.6516 101.488 34.7976V6.98244C103.378 6.12846 106.45 5.39648 109.403 5.39648C116.02 5.39648 119.446 8.56839 119.446 13.2043C119.446 17.1081 116.847 19.5481 114.484 20.158V20.28C116.965 20.89 120.391 23.086 120.391 27.9658C120.509 33.2117 116.61 36.3836 109.521 36.3836ZM109.403 8.2024C107.631 8.2024 105.741 8.56839 104.796 8.93438V19.0601H109.049C111.766 19.0601 112.948 18.8161 114.247 17.8401C115.429 16.9861 116.138 15.2782 116.138 13.4482C116.256 10.2763 113.775 8.2024 109.403 8.2024ZM114.365 22.842C112.948 22.11 111.884 21.744 109.167 21.744H104.796V32.7237C105.977 33.0897 107.867 33.4556 109.64 33.4556C114.484 33.4556 117.201 31.3817 117.201 27.7218C117.083 25.5259 116.138 23.8179 114.365 22.842Z" fill="#2D1D4D"/>
<path d="M132.796 36.3833C126.889 36.3833 123.817 33.8214 123.817 29.5515C123.817 23.2077 130.551 22.2318 137.05 21.8658V20.1578C137.05 16.8639 134.923 15.766 131.851 15.766C129.843 15.766 127.362 16.3759 125.944 17.1079L125.117 14.668C126.771 13.936 129.488 13.082 132.206 13.082C137.05 13.082 140.239 15.034 140.239 20.4018V34.7974C138.704 35.6514 135.632 36.3833 132.796 36.3833ZM137.05 24.1837C132.206 24.4277 127.007 24.7937 127.007 29.4295C127.007 31.9915 128.897 33.6994 132.678 33.6994C134.332 33.6994 136.341 33.3334 137.05 32.9674V24.1837Z" fill="#2D1D4D"/>
<path d="M156.78 36.3834V21.0119C156.78 17.962 155.008 16.01 151.463 16.01C149.573 16.01 147.919 16.376 146.856 16.864V36.3834H143.429V14.7901C145.556 13.8141 148.273 13.2041 151.345 13.2041C157.016 13.2041 159.97 16.01 159.97 20.7679V36.3834H156.78Z" fill="#2D1D4D"/>
<path d="M176.983 36.3836L166.822 24.9159H166.704V36.3836H163.396V5.39648H166.704V24.3059H166.822L176.983 13.2043H181L170.485 24.6719L181 36.5056H176.983V36.3836Z" fill="#2D1D4D"/>
<defs>
<linearGradient id="paint0_linear" x1="46.9685" y1="21.4465" x2="17.7887" y2="25.3567" gradientUnits="userSpaceOnUse">
<stop stop-color="#F3B11C"/>
<stop offset="0.7" stop-color="#EC8023"/>
<stop offset="1" stop-color="#DA5C27"/>
</linearGradient>
<linearGradient id="paint1_linear" x1="15.7749" y1="-9.8687" x2="34.5687" y2="13.5286" gradientUnits="userSpaceOnUse">
<stop stop-color="#F3B11C"/>
<stop offset="0.7" stop-color="#EC8023"/>
<stop offset="1" stop-color="#DA5C27"/>
</linearGradient>
<linearGradient id="paint2_linear" x1="5.11266" y1="33.6879" x2="16.8163" y2="5.80288" gradientUnits="userSpaceOnUse">
<stop stop-color="#F3B11C"/>
<stop offset="0.7" stop-color="#EC8023"/>
<stop offset="1" stop-color="#DA5C27"/>
</linearGradient>
</defs>
</svg>
