<svg width="1920" height="816" viewBox="0 0 1920 816" fill="none" xmlns="http://www.w3.org/2000/svg">
<rect width="1920" height="816" fill="url(#paint0_radial)"/>
<g clip-path="url(#clip0)">
<g opacity="0.1">
<g opacity="0.8">
<g opacity="0.6">
<path opacity="0.6" d="M780.647 97.3021V80.5294L813.183 91.4432V106.493L780.647 97.3021Z" fill="white"/>
<path opacity="0.6" d="M358.362 612.66V573.37L514.261 486.405V517.423L358.362 612.66Z" fill="white"/>
<path opacity="0.6" d="M187.631 226.199V182.544L375.722 186.45V220.11L187.631 226.199Z" fill="white"/>
<path opacity="0.6" d="M0 596.806V538.447L311.914 431.262V472.964L0 596.806Z" fill="white"/>
<path opacity="0.6" d="M739.027 509.037V490.081L780.072 452.4V469.173L739.027 509.037Z" fill="white"/>
<path opacity="0.6" d="M892.398 546.603V535.804L906.424 509.956V520.066L892.398 546.603Z" fill="white"/>
</g>
<g opacity="0.6">
<path opacity="0.6" d="M1139.35 97.3021V80.5294L1106.82 91.4432V106.493L1139.35 97.3021Z" fill="white"/>
<path opacity="0.6" d="M1561.64 612.66V573.37L1405.74 486.405V517.423L1561.64 612.66Z" fill="white"/>
<path opacity="0.6" d="M1732.37 226.199V182.544L1544.28 186.45V220.11L1732.37 226.199Z" fill="white"/>
<path opacity="0.6" d="M1920 596.806V538.447L1608.09 431.262V472.964L1920 596.806Z" fill="white"/>
<path opacity="0.6" d="M1180.97 509.037V490.081L1139.93 452.4V469.173L1180.97 509.037Z" fill="white"/>
<path opacity="0.6" d="M1027.6 546.603V535.804L1013.58 509.956V520.066L1027.6 546.603Z" fill="white"/>
</g>
</g>
<g opacity="0.1">
<g opacity="0.1">
<path opacity="0.1" d="M1077.27 97.3021V80.5294L1054.28 91.4432V106.493L1077.27 97.3021Z" fill="white"/>
<path opacity="0.1" d="M1375.85 612.66V573.37L1265.59 486.405V517.423L1375.85 612.66Z" fill="white"/>
<path opacity="0.1" d="M1522.43 226.199V182.544L1389.53 186.45V220.11L1522.43 226.199Z" fill="white"/>
<path opacity="0.1" d="M1629.13 596.806V538.447L1408.61 431.262V472.964L1629.13 596.806Z" fill="white"/>
<path opacity="0.1" d="M1106.7 509.037V490.081L1077.73 452.4V469.173L1106.7 509.037Z" fill="white"/>
<path opacity="0.1" d="M998.285 546.603V535.804L988.397 509.956V520.066L998.285 546.603Z" fill="white"/>
</g>
<g opacity="0.1">
<path opacity="0.1" d="M842.731 97.3021V80.5294L865.725 91.4432V106.493L842.731 97.3021Z" fill="white"/>
<path opacity="0.1" d="M544.153 612.66V573.37L654.41 486.405V517.423L544.153 612.66Z" fill="white"/>
<path opacity="0.1" d="M397.566 226.199V182.544L530.472 186.45V220.11L397.566 226.199Z" fill="white"/>
<path opacity="0.1" d="M290.874 596.806V538.447L511.387 431.262V472.964L290.874 596.806Z" fill="white"/>
<path opacity="0.1" d="M813.298 509.037V490.081L842.271 452.4V469.173L813.298 509.037Z" fill="white"/>
<path opacity="0.1" d="M921.715 546.603V535.804L931.602 509.956V520.066L921.715 546.603Z" fill="white"/>
</g>
</g>
<g opacity="0.1">
<g opacity="0.1">
<path opacity="0.1" d="M622.908 51.5793V72.1431L662.342 84.2057V66.5139L622.908 51.5793Z" fill="white"/>
<path opacity="0.1" d="M737.188 368.997V392.432L787.315 354.292V334.647L737.188 368.997Z" fill="white"/>
<path opacity="0.1" d="M787.2 515.126V534.77L823.3 482.27V465.382L787.2 515.126Z" fill="white"/>
<path opacity="0.1" d="M914.702 79.8402V89.9498L924.819 96.8427V87.5373L914.702 79.8402Z" fill="white"/>
<path opacity="0.1" d="M541.049 621.85V660.106L661.768 539.94V510.875L541.049 621.85Z" fill="white"/>
</g>
<g opacity="0.1">
<path opacity="0.1" d="M1297.09 51.5793V72.1431L1257.66 84.2057V66.5139L1297.09 51.5793Z" fill="white"/>
<path opacity="0.1" d="M1182.81 368.997V392.432L1132.68 354.292V334.647L1182.81 368.997Z" fill="white"/>
<path opacity="0.1" d="M1132.8 515.126V534.77L1096.7 482.27V465.382L1132.8 515.126Z" fill="white"/>
<path opacity="0.1" d="M1005.3 79.8402V89.9498L995.181 96.8427V87.5373L1005.3 79.8402Z" fill="white"/>
<path opacity="0.1" d="M1378.95 621.85V660.106L1258.23 539.94V510.875L1378.95 621.85Z" fill="white"/>
</g>
</g>
<g opacity="0.85">
<g opacity="0.85">
<path opacity="0.85" d="M708.906 17V44.9162L762.367 61.2293V37.334L708.906 17Z" fill="white"/>
<path opacity="0.85" d="M658.204 421.727V453.434L726.036 401.853V375.2L658.204 421.727Z" fill="white"/>
<path opacity="0.85" d="M725.806 619.783V646.32L774.898 575.209V552.232L725.806 619.783Z" fill="white"/>
<path opacity="0.85" d="M898.606 21.1357V34.8066L912.403 44.112V31.5899L898.606 21.1357Z" fill="white"/>
<path opacity="0.85" d="M389.749 767.06V818.757L553.466 656.085V616.681L389.749 767.06Z" fill="white"/>
</g>
<g opacity="0.85">
<path opacity="0.85" d="M1211.09 17V44.9162L1157.63 61.2293V37.334L1211.09 17Z" fill="white"/>
<path opacity="0.85" d="M1261.8 421.727V453.434L1193.96 401.853V375.2L1261.8 421.727Z" fill="white"/>
<path opacity="0.85" d="M1194.19 619.783V646.32L1145.1 575.209V552.232L1194.19 619.783Z" fill="white"/>
<path opacity="0.85" d="M1021.39 21.1357V34.8066L1007.6 44.112V31.5899L1021.39 21.1357Z" fill="white"/>
<path opacity="0.85" d="M1527.61 764.304V816L1363.89 653.328V613.924L1527.61 764.304Z" fill="white"/>
</g>
</g>
</g>
</g>
<defs>
<radialGradient id="paint0_radial" cx="0" cy="0" r="1" gradientUnits="userSpaceOnUse" gradientTransform="translate(960 408) rotate(90) scale(408 960)">
<stop stop-color="#032161"/>
<stop offset="1" stop-color="#021641"/>
</radialGradient>
<clipPath id="clip0">
<rect width="1920" height="799" fill="white" transform="translate(0 17)"/>
</clipPath>
</defs>
</svg>
