<svg width="1920" height="1091" viewBox="0 0 1920 1091" fill="none" xmlns="http://www.w3.org/2000/svg">
<circle opacity="0.6" cx="960" cy="602.836" r="392" fill="url(#paint0_radial)"/>
<g opacity="0.9" clip-path="url(#clip0)">
<g opacity="0.1">
<g opacity="0.8">
<g opacity="0.6">
<path opacity="0.6" d="M631.301 546.712V521.153L698.443 506.243V528.016L631.301 546.712Z" fill="white"/>
<path opacity="0.6" d="M780.647 325.55V308.274L813.183 319.515V335.017L780.647 325.55Z" fill="white"/>
<path opacity="0.6" d="M869.519 542.926V530.383L886.879 521.863V533.341L869.519 542.926Z" fill="white"/>
<path opacity="0.6" d="M358.362 882.42V841.95L514.261 752.373V784.323L358.362 882.42Z" fill="white"/>
<path opacity="0.6" d="M276.158 445.302V400.336L464.249 404.359V439.03L276.158 445.302Z" fill="white"/>
<path opacity="0.6" d="M0 866.09V805.977L311.914 695.574V738.528L0 866.09Z" fill="white"/>
<path opacity="0.6" d="M739.028 775.684V756.16L780.072 717.347V734.623L739.028 775.684Z" fill="white"/>
<path opacity="0.6" d="M892.398 814.379V803.256L906.424 776.631V787.044L892.398 814.379Z" fill="white"/>
</g>
<g opacity="0.6">
<path opacity="0.6" d="M1288.7 546.712V521.153L1221.56 506.243V528.016L1288.7 546.712Z" fill="white"/>
<path opacity="0.6" d="M1139.35 325.55V308.274L1106.82 319.515V335.017L1139.35 325.55Z" fill="white"/>
<path opacity="0.6" d="M1050.48 542.926V530.383L1033.12 521.863V533.341L1050.48 542.926Z" fill="white"/>
<path opacity="0.6" d="M1561.64 882.42V841.95L1405.74 752.373V784.323L1561.64 882.42Z" fill="white"/>
<path opacity="0.6" d="M1643.84 445.302V400.336L1455.75 404.359V439.03L1643.84 445.302Z" fill="white"/>
<path opacity="0.6" d="M1920 866.09V805.977L1608.09 695.574V738.528L1920 866.09Z" fill="white"/>
<path opacity="0.6" d="M1180.97 775.684V756.16L1139.93 717.347V734.623L1180.97 775.684Z" fill="white"/>
<path opacity="0.6" d="M1027.6 814.379V803.256L1013.58 776.631V787.044L1027.6 814.379Z" fill="white"/>
</g>
</g>
<g opacity="0.1">
<g opacity="0.1">
<path opacity="0.1" d="M1182.81 546.712V521.153L1135.33 506.243V528.016L1182.81 546.712Z" fill="white"/>
<path opacity="0.1" d="M1077.27 325.55V308.274L1054.28 319.515V335.017L1077.27 325.55Z" fill="white"/>
<path opacity="0.1" d="M1014.5 542.926V530.383L1002.19 521.863V533.341L1014.5 542.926Z" fill="white"/>
<path opacity="0.1" d="M1375.85 882.42V841.95L1265.59 752.373V784.323L1375.85 882.42Z" fill="white"/>
<path opacity="0.1" d="M1433.91 445.302V400.336L1301 404.359V439.03L1433.91 445.302Z" fill="white"/>
<path opacity="0.1" d="M1629.13 866.09V805.977L1408.61 695.574V738.528L1629.13 866.09Z" fill="white"/>
<path opacity="0.1" d="M1106.7 775.684V756.16L1077.73 717.347V734.623L1106.7 775.684Z" fill="white"/>
<path opacity="0.1" d="M998.285 814.379V803.256L988.398 776.631V787.044L998.285 814.379Z" fill="white"/>
</g>
<g opacity="0.1">
<path opacity="0.1" d="M737.188 546.712V521.153L784.671 506.243V528.016L737.188 546.712Z" fill="white"/>
<path opacity="0.1" d="M842.731 325.55V308.274L865.725 319.515V335.017L842.731 325.55Z" fill="white"/>
<path opacity="0.1" d="M905.504 542.926V530.383L917.806 521.863V533.341L905.504 542.926Z" fill="white"/>
<path opacity="0.1" d="M544.153 882.42V841.95L654.41 752.373V784.323L544.153 882.42Z" fill="white"/>
<path opacity="0.1" d="M486.093 445.302V400.336L618.999 404.359V439.03L486.093 445.302Z" fill="white"/>
<path opacity="0.1" d="M290.874 866.09V805.977L511.387 695.574V738.528L290.874 866.09Z" fill="white"/>
<path opacity="0.1" d="M813.298 775.684V756.16L842.271 717.347V734.623L813.298 775.684Z" fill="white"/>
<path opacity="0.1" d="M921.715 814.379V803.256L931.602 776.631V787.044L921.715 814.379Z" fill="white"/>
</g>
</g>
<g opacity="0.1">
<g opacity="0.1">
<path opacity="0.1" d="M622.908 278.454V299.636L662.342 312.061V293.837L622.908 278.454Z" fill="white"/>
<path opacity="0.1" d="M737.188 631.438V655.578L787.315 616.291V596.057L737.188 631.438Z" fill="white"/>
<path opacity="0.1" d="M787.2 781.956V802.191L823.3 748.113V730.718L787.2 781.956Z" fill="white"/>
<path opacity="0.1" d="M862.39 488.375V502.811L881.59 493.463V480.447L862.39 488.375Z" fill="white"/>
<path opacity="0.1" d="M914.702 307.564V317.977L924.819 325.077V315.492L914.702 307.564Z" fill="white"/>
<path opacity="0.1" d="M541.049 891.886V931.291L661.768 807.515V777.578L541.049 891.886Z" fill="white"/>
</g>
<g opacity="0.1">
<path opacity="0.1" d="M1297.09 278.454V299.636L1257.66 312.061V293.837L1297.09 278.454Z" fill="white"/>
<path opacity="0.1" d="M1182.81 631.438V655.578L1132.69 616.291V596.057L1182.81 631.438Z" fill="white"/>
<path opacity="0.1" d="M1132.8 781.956V802.191L1096.7 748.113V730.718L1132.8 781.956Z" fill="white"/>
<path opacity="0.1" d="M1057.61 488.375V502.811L1038.41 493.463V480.447L1057.61 488.375Z" fill="white"/>
<path opacity="0.1" d="M1005.3 307.564V317.977L995.181 325.077V315.492L1005.3 307.564Z" fill="white"/>
<path opacity="0.1" d="M1378.95 891.886V931.291L1258.23 807.515V777.578L1378.95 891.886Z" fill="white"/>
</g>
</g>
<g opacity="0.85">
<g opacity="0.85">
<path opacity="0.85" d="M708.905 242.836V271.591L762.367 288.394V263.781L708.905 242.836Z" fill="white"/>
<path opacity="0.85" d="M658.204 685.752V718.412L726.036 665.281V637.828L658.204 685.752Z" fill="white"/>
<path opacity="0.85" d="M725.806 889.756V917.091L774.898 843.843V820.177L725.806 889.756Z" fill="white"/>
<path opacity="0.85" d="M827.899 491.925V511.45L853.768 498.788V481.275L827.899 491.925Z" fill="white"/>
<path opacity="0.85" d="M898.606 247.096V261.178L912.402 270.763V257.865L898.606 247.096Z" fill="white"/>
<path opacity="0.85" d="M392.393 1038.62V1091.87L556.11 924.309V883.721L392.393 1038.62Z" fill="white"/>
</g>
<g opacity="0.85">
<path opacity="0.85" d="M1211.09 242.836V271.591L1157.63 288.394V263.781L1211.09 242.836Z" fill="white"/>
<path opacity="0.85" d="M1261.8 685.752V718.412L1193.96 665.281V637.828L1261.8 685.752Z" fill="white"/>
<path opacity="0.85" d="M1194.19 889.756V917.091L1145.1 843.843V820.177L1194.19 889.756Z" fill="white"/>
<path opacity="0.85" d="M1092.1 491.925V511.45L1066.23 498.788V481.275L1092.1 491.925Z" fill="white"/>
<path opacity="0.85" d="M1021.39 247.096V261.178L1007.6 270.763V257.865L1021.39 247.096Z" fill="white"/>
<path opacity="0.85" d="M1527.61 1038.62V1091.87L1363.89 924.309V883.721L1527.61 1038.62Z" fill="white"/>
</g>
</g>
</g>
<path d="M0 1091.84H1920V637.836H0V1091.84Z" fill="url(#paint1_linear)"/>
</g>
<g opacity="0.6">
<ellipse cx="960.5" cy="385.237" rx="400.5" ry="384.635" fill="url(#paint2_radial)"/>
<path d="M1360.5 385.237C1360.5 597.37 1181.43 769.372 960.5 769.372C739.567 769.372 560.5 597.37 560.5 385.237C560.5 173.104 739.567 1.10205 960.5 1.10205C1181.43 1.10205 1360.5 173.104 1360.5 385.237Z" stroke="white" stroke-opacity="0.1"/>
</g>
<g opacity="0.6">
<ellipse cx="960.5" cy="385.237" rx="213.5" ry="205.043" fill="url(#paint3_radial)"/>
<path d="M1173.5 385.237C1173.5 498.184 1078.16 589.78 960.5 589.78C842.844 589.78 747.5 498.184 747.5 385.237C747.5 272.29 842.844 180.695 960.5 180.695C1078.16 180.695 1173.5 272.29 1173.5 385.237Z" stroke="white" stroke-opacity="0.1"/>
</g>
<defs>
<radialGradient id="paint0_radial" cx="0" cy="0" r="1" gradientUnits="userSpaceOnUse" gradientTransform="translate(960 602.836) rotate(90) scale(392)">
<stop stop-color="#1B43A4"/>
<stop offset="1" stop-color="#2E50A3" stop-opacity="0"/>
</radialGradient>
<linearGradient id="paint1_linear" x1="960" y1="1091.84" x2="960" y2="676.602" gradientUnits="userSpaceOnUse">
<stop stop-color="#161237"/>
<stop offset="1" stop-color="#1F1949" stop-opacity="0"/>
</linearGradient>
<radialGradient id="paint2_radial" cx="0" cy="0" r="1" gradientUnits="userSpaceOnUse" gradientTransform="translate(960.5 385.237) rotate(90) scale(384.635 400.5)">
<stop stop-color="#2E50A3"/>
<stop offset="1" stop-color="#2E50A3" stop-opacity="0"/>
</radialGradient>
<radialGradient id="paint3_radial" cx="0" cy="0" r="1" gradientUnits="userSpaceOnUse" gradientTransform="translate(960.5 385.237) rotate(90) scale(205.043 213.5)">
<stop stop-color="#1B43A4"/>
<stop offset="1" stop-color="#2E50A3" stop-opacity="0"/>
</radialGradient>
<clipPath id="clip0">
<rect width="1920" height="848" fill="white" transform="translate(0 242.836)"/>
</clipPath>
</defs>
</svg>
