<svg aria-hidden="true" style="position: absolute; width: 0; height: 0; overflow: hidden;" version="1.1" xmlns="http://www.w3.org/2000/svg" xmlns:xlink="http://www.w3.org/1999/xlink">
<defs>
<symbol id="advertising-2" viewBox="0 0 32 32">
<path d="M30 0h-28c-1.2 0-2 0.8-2 2v28c0 1.2 0.8 2 2 2h28c1.2 0 2-0.8 2-2v-28c0-1.2-0.8-2-2-2zM15 26.8c-5.8-1.2-9.6-6.8-8.6-12.6 1.2-6.2 6.4-9.6 11.6-9 2 0.2 3.8 1.2 5.4 2.4 1.4 1 2.2 2.6 2.2 2.6s-9.8 10-10.4 10.6c-1.2-0.4-2.2-1.2-2.8-2.2 0 0 4.6-4.6 8.2-8.4-1-0.8-2.4-1.2-3.8-1.2-6 0.2-6.8 5.8-6.8 5.8-0.2 1.2-0.2 2.4 0.2 3.4 0.2 0.8 0.8 1.8 1.4 2.4s1.4 1.2 2.2 1.6c0 0 0 0 0 0 0.2 0 0.2 0.2 0.4 0.2 0 0 0.2 0 0.2 0s0.2 0 0.2 0c0 0 0.2 0 0.4 0 1 0.2 2.2 0.4 3.2 0 0.4 0 0.8-0.2 1.2-0.4v0c0.4-0.2 0.8-0.4 1.2-0.6s0.8-0.6 1-0.8c0 0 0 0 0 0v0c0.4-0.4 0.8-0.8 1.4-1 0 0 0 0 0 0v0c0.2 0 0.4 0 0.4 0 0.2 0 0.2 0 0.4 0s0.2 0 0.4 0.2 0.6 0.4 0.8 0.6v0 0c0.2 0.2 0.2 0.4 0.4 0.6 0 0 0 0 0 0s0 0 0 0 0 0.2 0 0.2c-2.2 4.6-6.8 6.2-10.4 5.6z"></path>
</symbol>
<symbol id="ns-play-2" viewBox="0 0 28 32">
<path fill="#111" style="fill: var(--color1, #111)" opacity="0.5" d="M28.19 22.78v-13.56c-0.003-0.813-0.439-1.524-1.090-1.914l-0.010-0.006-10.91-6.3c-0.225-0.149-0.491-0.302-0.765-0.44l-0.045-0.020c-0.315-0.158-0.686-0.254-1.078-0.26l-0.002-0c-0.673 0.043-1.286 0.265-1.802 0.618l0.012-0.008-11.12 6.42c-0.658 0.394-1.093 1.1-1.1 1.909v13.561c0.003 0.813 0.439 1.524 1.090 1.914l0.010 0.006 10.91 6.31c0.225 0.148 0.49 0.301 0.764 0.439l0.046 0.021c0.34 0.159 0.738 0.251 1.157 0.251 0.662 0 1.27-0.23 1.748-0.616l-0.005 0.004 11.12-6.42c0.466-0.243 0.821-0.646 0.996-1.136l0.004-0.014c0.048-0.181 0.075-0.389 0.075-0.603 0-0.055-0.002-0.11-0.005-0.165l0 0.007zM19.81 16c-0.001 0.239-0.092 0.457-0.241 0.621l0.001-0.001c0 0.060-1.22 0.91-5.45 3.94l-1.29 0.93c-0.128 0.094-0.289 0.15-0.463 0.15-0.002 0-0.005 0-0.007-0h0c-0.15-0-0.291-0.037-0.415-0.102l0.005 0.002c-0.319-0.163-0.537-0.485-0.55-0.858l-0-0.002v-9.4c0.013-0.375 0.231-0.697 0.544-0.857l0.006-0.003c0.125-0.080 0.277-0.128 0.44-0.128s0.315 0.048 0.443 0.13l-0.003-0.002 1.17 0.88c4.35 3.11 5.55 4 5.61 4.050 0.148 0.163 0.239 0.381 0.24 0.62v0c-0.012 0.010-0.025 0.019-0.038 0.029l-0.002 0.001z"></path>
<path fill="#fff" style="fill: var(--color2, #fff)" d="M27.23 7.070l-10.91-6.31c-0.233-0.153-0.508-0.309-0.793-0.449l-0.047-0.021c-0.37-0.17-0.802-0.269-1.258-0.269-0.704 0-1.352 0.237-1.87 0.635l0.007-0.005-11.12 6.42c-0.74 0.444-1.23 1.239-1.24 2.149v13.561c0.006 0.915 0.497 1.714 1.229 2.154l0.011 0.006 10.51 6.060 0.39 0.24c0.232 0.152 0.508 0.308 0.792 0.449l0.048 0.021c0.351 0.173 0.763 0.276 1.199 0.28h0.001c0.723-0.041 1.385-0.274 1.944-0.649l-0.014 0.009 11.12-6.42c0.515-0.285 0.904-0.743 1.095-1.294l0.005-0.017v-0.080c0.070-0.227 0.11-0.488 0.11-0.759 0-0.004 0-0.008-0-0.012v0.001-13.55c-0.003-0.906-0.482-1.699-1.199-2.144l-0.011-0.006zM28.070 23.54c-0.179 0.503-0.534 0.907-0.989 1.145l-0.011 0.005-11.070 6.42c-0.47 0.372-1.071 0.596-1.724 0.596-0.415 0-0.809-0.091-1.163-0.253l0.017 0.007c-0.32-0.159-0.585-0.312-0.84-0.479l0.030 0.019-0.4-0.24-10.54-6.070c-0.661-0.396-1.097-1.107-1.1-1.92v-13.55c0.003-0.813 0.439-1.524 1.090-1.914l0.010-0.006 11.12-6.41c0.504-0.345 1.117-0.567 1.779-0.609l0.011-0.001c0.394 0.006 0.765 0.102 1.095 0.267l-0.015-0.007c0.319 0.158 0.585 0.311 0.839 0.478l-0.029-0.018 0.4 0.24 10.51 6.070c0.661 0.396 1.097 1.107 1.1 1.92v13.55c-0.001 0.257-0.041 0.505-0.115 0.737l0.005-0.017z"></path>
<path fill="#fff" style="fill: var(--color2, #fff)" d="M19.57 15.35c-0.060-0.070-1.26-0.94-5.61-4.050l-1.15-0.82c-0.125-0.080-0.277-0.128-0.44-0.128s-0.315 0.048-0.443 0.13l0.003-0.002c-0.319 0.163-0.537 0.485-0.55 0.858l-0 0.002v9.43c0.013 0.375 0.231 0.697 0.544 0.857l0.006 0.003c0.119 0.063 0.26 0.1 0.41 0.1h0c0.002 0 0.004 0 0.007 0 0.174 0 0.335-0.056 0.465-0.152l-0.002 0.002 1.29-0.93c4.23-3 5.4-3.88 5.45-3.94 0.148-0.163 0.239-0.381 0.24-0.62v-0c0.001-0.012 0.001-0.026 0.001-0.040s-0-0.028-0.002-0.042l0 0.002c0.001-0.017 0.002-0.037 0.002-0.057 0-0.231-0.084-0.442-0.223-0.604l0.001 0.001z"></path>
</symbol>
<symbol id="ns-play" viewBox="0 0 32 32">
<path fill="#111" style="fill: var(--color1, #111)" opacity="0.7" d="M28.39 7.813l-10.28-5.935c-0.134-0.078-0.268-0.16-0.401-0.243-0.247-0.152-0.495-0.307-0.752-0.426-0.264-0.133-0.575-0.213-0.904-0.218l-0.002-0c-0.502 0-0.983 0.207-1.566 0.542l-10.875 6.28c-0.537 0.323-0.891 0.901-0.895 1.562v13.25c0 0.636 0.351 1.249 0.895 1.562l10.28 5.935c0.134 0.078 0.268 0.16 0.401 0.243 0.247 0.152 0.495 0.307 0.752 0.426 0.89 0.412 1.556 0.204 2.472-0.325l10.875-6.278c0.403-0.232 0.67-0.545 0.794-0.929 0.073-0.24 0.101-0.433 0.101-0.634v-13.249c-0.004-0.662-0.358-1.24-0.887-1.558l-0.008-0.005z"></path>
<path fill="#fff" style="fill: var(--color2, #fff)" d="M28.886 6.954l-10.28-5.935c-0.125-0.072-0.25-0.15-0.376-0.228-0.238-0.156-0.518-0.317-0.808-0.46l-0.048-0.022c-1.409-0.652-2.485-0.153-3.385 0.366l-10.875 6.279c-0.838 0.494-1.391 1.392-1.391 2.42 0 0.001 0 0.002 0 0.002v-0 13.249c0 0.001 0 0.002 0 0.002 0 1.027 0.553 1.925 1.378 2.413l0.013 0.007 10.28 5.935c0.125 0.072 0.25 0.15 0.376 0.228 0.28 0.173 0.564 0.347 0.856 0.482 0.479 0.222 0.919 0.31 1.328 0.31 0.792 0 1.463-0.334 2.057-0.676l10.875-6.278c0.602-0.34 1.053-0.887 1.261-1.543l0.005-0.019c0.083-0.272 0.125-0.562 0.125-0.86v-13.25c0-0.001 0-0.002 0-0.002 0-1.027-0.553-1.925-1.378-2.413l-0.013-0.007zM29.285 22.625c0 0.201-0.027 0.394-0.101 0.634-0.124 0.384-0.391 0.696-0.794 0.929l-10.875 6.278c-0.916 0.529-1.582 0.737-2.472 0.325-0.258-0.119-0.506-0.274-0.752-0.426-0.049-0.034-0.18-0.115-0.312-0.194l-0.089-0.049-10.28-5.935c-0.537-0.323-0.891-0.901-0.895-1.561v-13.25c0-0.636 0.351-1.249 0.895-1.562l10.875-6.279c0.583-0.336 1.064-0.542 1.566-0.542 0.288 0 0.582 0.067 0.906 0.218 0.258 0.119 0.506 0.273 0.752 0.426 0.134 0.083 0.268 0.165 0.401 0.243l10.28 5.935c0.543 0.313 0.895 0.927 0.895 1.562v13.248z"></path>
<path fill="#fff" style="fill: var(--color2, #fff)" d="M21.481 16.036c-0.001 0.206-0.079 0.393-0.208 0.535l0.001-0.001c-0.071 0.087-4.606 3.328-6.784 4.888-0.513 0.368-1.219-0.128-1.219-0.699v-9.519c0-0.571 0.705-1.067 1.219-0.699 2.177 1.56 6.713 4.801 6.784 4.889 0.129 0.141 0.209 0.33 0.209 0.538 0 0.010-0 0.021-0.001 0.031l0-0.001c0 0.004 0 0.009 0 0.013 0 0.009-0 0.018-0.001 0.027l0-0.001z"></path>
</symbol>
<symbol id="weather-1" viewBox="0 0 32 32">
<path d="M0 15h4v2h-4v-2z"></path>
<path d="M3.975 5.393l1.414-1.414 2.828 2.828-1.414 1.414-2.828-2.828z"></path>
<path d="M15 0h2v4h-2v-4z"></path>
<path d="M23.776 6.806l2.828-2.828 1.414 1.414-2.828 2.828-1.414-1.414z"></path>
<path d="M28 15h4v2h-4v-2z"></path>
<path d="M23.777 25.193l1.414-1.414 2.828 2.828-1.414 1.414-2.828-2.828z"></path>
<path d="M15 28h2v4h-2v-4z"></path>
<path d="M3.976 26.608l2.828-2.828 1.414 1.414-2.828 2.828-1.414-1.414z"></path>
<path d="M16 7c-4.971 0-9 4.029-9 9s4.029 9 9 9c4.971 0 9-4.029 9-9v0c0-4.971-4.029-9-9-9v0z"></path>
</symbol>
<symbol id="quite-happy-e" viewBox="0 0 32 32">
<path d="M16 0c-8.8 0-16 7.2-16 16s7.2 16 16 16 16-7.2 16-16-7.2-16-16-16zM16 28c-6.6 0-12-5.4-12-12s5.4-12 12-12 12 5.4 12 12-5.4 12-12 12z"></path>
<path d="M14 12c0 1.105-0.895 2-2 2s-2-0.895-2-2c0-1.105 0.895-2 2-2s2 0.895 2 2z"></path>
<path d="M22 12c0 1.105-0.895 2-2 2s-2-0.895-2-2c0-1.105 0.895-2 2-2s2 0.895 2 2z"></path>
<path d="M16 24c3.4 0 6-2.6 6-6h-12c0 3.4 2.6 6 6 6z"></path>
</symbol>
<symbol id="ns-pick" viewBox="0 0 32 32">
<path d="M24 0h-20v32l12-6 12 6v-32zM20.68 20.44l-4.68-2.44-4.68 2.44 0.88-5.22-3.78-3.68 5.24-0.76 2.34-4.78 2.34 4.78 5.24 0.76-3.78 3.68z"></path>
</symbol>
<symbol id="ns-flag" viewBox="0 0 32 32">
<path d="M28 1.48c-7.040-5.080-14 4.8-21.1 1.36v-0.72c0-0.906-0.734-1.64-1.64-1.64s-1.64 0.734-1.64 1.64v0 28.24c0 0.906 0.734 1.64 1.64 1.64s1.64-0.734 1.64-1.64v0-12c6.68 3.26 13.38-5.48 20-2 0.134 0.071 0.292 0.112 0.46 0.112 0.549 0 0.995-0.443 1-0.992v-13.2c0-0.009 0-0.020 0-0.031 0-0.308-0.14-0.584-0.359-0.768l-0.002-0.001z"></path>
</symbol>
<symbol id="logo-fb-simple" viewBox="0 0 32 32">
<path d="M12.046 32l-0.046-14h-6v-6h6v-4c0-5.398 3.343-8 8.159-8 2.307 0 4.289 0.172 4.867 0.248v5.642l-3.34 0.002c-2.619 0-3.126 1.245-3.126 3.071v3.038h7.44l-2 6h-5.44v14h-6.514z"></path>
</symbol>
<symbol id="logo-google-plus" viewBox="0 0 32 32">
<path d="M16 14v4.8h8.2c-0.4 2-2.4 6-8 6-4.8 0-8.6-4-8.6-8.8s4-8.8 8.6-8.8c2.8 0 4.6 1.2 5.6 2.2l3.8-3.6c-2.4-2.4-5.6-3.8-9.4-3.8-7.8 0-14 6.2-14 14s6.2 14 14 14c8 0 13.4-5.6 13.4-13.6 0-1 0-1.6-0.2-2.4h-13.4z"></path>
</symbol>
<symbol id="logo-pinterest" viewBox="0 0 32 32">
<path d="M16 0c-8.8 0-16 7.2-16 16 0 6.8 4.2 12.6 10.2 14.8-0.2-1.2-0.2-3.2 0-4.6 0.2-1.2 1.8-8 1.8-8s-0.4-0.8-0.4-2.2c0-2.2 1.4-4 3-4 1.4 0 2 1 2 2.2 0 1.4-0.8 3.4-1.4 5.4-0.4 1.6 0.8 2.8 2.4 2.8 2.8 0 5-3 5-7.4 0-3.8-2.8-6.6-6.6-6.6-4.6 0-7.2 3.4-7.2 7 0 1.4 0.6 2.8 1.2 3.6 0 0.4 0 0.6 0 0.8-0.2 0.6-0.4 1.6-0.4 1.8s-0.2 0.4-0.6 0.2c-2-1-3.2-3.8-3.2-6.2 0-5 3.6-9.6 10.6-9.6 5.6 0 9.8 4 9.8 9.2 0 5.6-3.4 10-8.4 10-1.6 0-3.2-0.8-3.6-1.8 0 0-0.8 3-1 3.8-0.4 1.4-1.4 3.2-2 4.2 1.6 0.4 3.2 0.6 4.8 0.6 8.8 0 16-7.2 16-16s-7.2-16-16-16z"></path>
</symbol>
<symbol id="logo-twitter" viewBox="0 0 32 32">
<path d="M32 6c-1.2 0.6-2.4 0.8-3.8 1 1.4-0.8 2.4-2 2.8-3.6-1.2 0.8-2.6 1.2-4.2 1.6-1.2-1.2-3-2-4.8-2-3.4 0-6.4 3-6.4 6.6 0 0.6 0 1 0.2 1.4-5.4-0.2-10.4-2.8-13.6-6.8-0.6 1-0.8 2-0.8 3.4 0 2.2 1.2 4.2 3 5.4-1 0-2-0.4-3-0.8 0 0 0 0 0 0 0 3.2 2.2 5.8 5.2 6.4-0.6 0.2-1.2 0.2-1.8 0.2-0.4 0-0.8 0-1.2-0.2 0.8 2.6 3.2 4.6 6.2 4.6-2.2 1.8-5 2.8-8.2 2.8-0.6 0-1 0-1.6 0 3 1.8 6.4 3 10 3 12 0 18.6-10 18.6-18.6 0-0.2 0-0.6 0-0.8 1.4-1 2.6-2.2 3.4-3.6z"></path>
</symbol>
<symbol id="square-delete-13" viewBox="0 0 32 32">
<path d="M8 14h16v4h-16v-4z"></path>
<path d="M30 0h-28c-1.2 0-2 0.8-2 2v28c0 1.2 0.8 2 2 2h28c1.2 0 2-0.8 2-2v-28c0-1.2-0.8-2-2-2zM28 28h-24v-24h24v24z"></path>
</symbol>
<symbol id="circle-bold-delete" viewBox="0 0 32 32">
<path d="M8 14h16v4h-16v-4z"></path>
<path d="M16 0c-8.8 0-16 7.2-16 16s7.2 16 16 16 16-7.2 16-16-7.2-16-16-16zM16 28c-6.6 0-12-5.4-12-12s5.4-12 12-12 12 5.4 12 12-5.4 12-12 12z"></path>
</symbol>
<symbol id="small-delete" viewBox="0 0 32 32">
<path d="M8 14h16v4h-16v-4z"></path>
</symbol>
<symbol id="stopwatch" viewBox="0 0 32 32">
<path d="M25.4 0.6c-0.8-0.8-2-0.8-2.8 0s-0.8 2 0 2.8l1.6 1.6-1.8 1.8c-2.4-1.8-5.2-2.8-8.4-2.8-7.8 0-14 6.2-14 14s6.2 14 14 14 14-6.2 14-14c0-3.2-1-6-2.8-8.4l1.8-1.8 1.6 1.6c0.4 0.4 0.8 0.6 1.4 0.6s1-0.2 1.4-0.6c0.8-0.8 0.8-2 0-2.8l-6-6zM14 28c-5.6 0-10-4.4-10-10s4.4-10 10-10 10 4.4 10 10-4.4 10-10 10z"></path>
<path d="M16 12h-4v8h8v-4h-4z"></path>
</symbol>
<symbol id="advertising-1" viewBox="0 0 32 32">
<path d="M6.626 11.5h6.562v-2.624h-6.562v1.312z"></path>
<path d="M20.124 15.438v3.938h5.252v-6.564h-5.252v1.312z"></path>
<path d="M30 0h-28c-1.2 0-2 0.8-2 2v28c0 1.2 0.8 2 2 2h28c1.2 0 2-0.8 2-2v-28c0-1.2-0.8-2-2-2zM4 20.688v-11.812h2.624v-2.626h6.56v2.624h2.628v13.126h-2.624v-7.876h-6.562v7.876h-2.626v-1.312zM28 28h-24v-2h24v2zM28 7.562v14.438h-10.5v-9.188h2.624v-2.624h5.248v-3.938h2.628v1.312z"></path>
</symbol>
<symbol id="alarm-delete" viewBox="0 0 32 32">
<path d="M20 28h-8c0 2.209 1.791 4 4 4s4-1.791 4-4v0z"></path>
<path d="M30.2 25.96c1.017-0.093 1.808-0.943 1.808-1.976 0-1.096-0.888-1.984-1.984-1.984-0.008 0-0.017 0-0.025 0h-0.999c-1.767-1.434-2.911-3.575-3-5.986l-0-0.014v-6c0-0.010 0-0.021 0-0.033 0-5.504-4.462-9.966-9.966-9.966-3.207 0-6.060 1.515-7.883 3.868l-0.017 0.023z"></path>
<path d="M6 10.242v5.758c-0.089 2.425-1.233 4.566-2.985 5.988l-0.015 0.012h-1c-1.105 0-2 0.895-2 2s0.895 2 2 2v0h19.758z"></path>
<path d="M30 31c-0.001 0-0.001 0-0.002 0-0.276 0-0.525-0.112-0.706-0.292l-28-28c-0.181-0.181-0.293-0.431-0.293-0.708 0-0.553 0.448-1.001 1.001-1.001 0.276 0 0.527 0.112 0.708 0.293v0l28 28c0.181 0.181 0.294 0.431 0.294 0.708 0 0.552-0.448 1-1 1-0.001 0-0.001 0-0.002 0h0z"></path>
</symbol>
<symbol id="alert-circle-i" viewBox="0 0 32 32">
<path d="M16 0c-8.8 0-16 7.2-16 16s7.2 16 16 16 16-7.2 16-16-7.2-16-16-16zM18 24h-4v-10h4v10zM16 12c-1.2 0-2-0.8-2-2s0.8-2 2-2 2 0.8 2 2-0.8 2-2 2z"></path>
</symbol>
<symbol id="alert" viewBox="0 0 32 32">
<path d="M30.432 27.058l-12.668-23.75c-0.752-1.412-2.776-1.412-3.53 0l-12.666 23.75c-0.71 1.332 0.256 2.942 1.766 2.942h25.334c1.508 0 2.474-1.61 1.764-2.942zM16 26c-1.104 0-2-0.896-2-2s0.896-2 2-2 2 0.896 2 2c0 1.104-0.896 2-2 2zM18 20h-4v-8h4v8z"></path>
</symbol>
<symbol id="bag-49" viewBox="0 0 32 32">
<path d="M30 8h-6v-6c0-1.2-0.8-2-2-2h-12c-1.2 0-2 0.8-2 2v6h-6c-1.2 0-2 0.8-2 2v20c0 1.2 0.8 2 2 2h28c1.2 0 2-0.8 2-2v-20c0-1.2-0.8-2-2-2zM12 4h8v4h-8v-4zM22 22h-4v4h-4v-4h-4v-4h4v-4h4v4h4v4z"></path>
</symbol>
<symbol id="bell-53" viewBox="0 0 32 32">
<path d="M20 28h-8c0 2.2 1.8 4 4 4s4-1.8 4-4z"></path>
<path d="M30 22h-1c-1.4-1.4-3-3.4-3-6v-6c0-5.6-4.4-10-10-10s-10 4.4-10 10v6c0 2.6-1.6 4.6-3 6h-1c-1.2 0-2 0.8-2 2s0.8 2 2 2h28c1.2 0 2-0.8 2-2s-0.8-2-2-2z"></path>
</symbol>
<symbol id="bookmark-2" viewBox="0 0 32 32">
<path d="M8 0c-2.2 0-4 1.8-4 4v28l12-6 12 6v-28c0-2.2-1.8-4-4-4h-16z"></path>
</symbol>
<symbol id="bullet-list-67" viewBox="0 0 32 32">
<path d="M8 4c0 2.209-1.791 4-4 4s-4-1.791-4-4c0-2.209 1.791-4 4-4s4 1.791 4 4z"></path>
<path d="M12 2h20v4h-20v-4z"></path>
<path d="M8 16c0 2.209-1.791 4-4 4s-4-1.791-4-4c0-2.209 1.791-4 4-4s4 1.791 4 4z"></path>
<path d="M12 14h20v4h-20v-4z"></path>
<path d="M8 28c0 2.209-1.791 4-4 4s-4-1.791-4-4c0-2.209 1.791-4 4-4s4 1.791 4 4z"></path>
<path d="M12 26h20v4h-20v-4z"></path>
</symbol>
<symbol id="bullet-list-69" viewBox="0 0 32 32">
<path d="M12 2h20v4h-20v-4z"></path>
<path d="M12 14h20v4h-20v-4z"></path>
<path d="M12 26h20v4h-20v-4z"></path>
<path d="M6 0h-4c-1.2 0-2 0.8-2 2v4c0 1.2 0.8 2 2 2h4c1.2 0 2-0.8 2-2v-4c0-1.2-0.8-2-2-2z"></path>
<path d="M6 12h-4c-1.2 0-2 0.8-2 2v4c0 1.2 0.8 2 2 2h4c1.2 0 2-0.8 2-2v-4c0-1.2-0.8-2-2-2z"></path>
<path d="M6 24h-4c-1.2 0-2 0.8-2 2v4c0 1.2 0.8 2 2 2h4c1.2 0 2-0.8 2-2v-4c0-1.2-0.8-2-2-2z"></path>
</symbol>
<symbol id="bullet-list-70" viewBox="0 0 32 32">
<path d="M30 0h-16c-1.2 0-2 0.8-2 2v4c0 1.2 0.8 2 2 2h16c1.2 0 2-0.8 2-2v-4c0-1.2-0.8-2-2-2z"></path>
<path d="M30 12h-16c-1.2 0-2 0.8-2 2v4c0 1.2 0.8 2 2 2h16c1.2 0 2-0.8 2-2v-4c0-1.2-0.8-2-2-2z"></path>
<path d="M30 24h-16c-1.2 0-2 0.8-2 2v4c0 1.2 0.8 2 2 2h16c1.2 0 2-0.8 2-2v-4c0-1.2-0.8-2-2-2z"></path>
<path d="M6 0h-4c-1.2 0-2 0.8-2 2v4c0 1.2 0.8 2 2 2h4c1.2 0 2-0.8 2-2v-4c0-1.2-0.8-2-2-2z"></path>
<path d="M6 12h-4c-1.2 0-2 0.8-2 2v4c0 1.2 0.8 2 2 2h4c1.2 0 2-0.8 2-2v-4c0-1.2-0.8-2-2-2z"></path>
<path d="M6 24h-4c-1.2 0-2 0.8-2 2v4c0 1.2 0.8 2 2 2h4c1.2 0 2-0.8 2-2v-4c0-1.2-0.8-2-2-2z"></path>
</symbol>
<symbol id="button-pause" viewBox="0 0 32 32">
<path d="M10 2h-6c-1.2 0-2 0.8-2 2v24c0 1.2 0.8 2 2 2h6c1.2 0 2-0.8 2-2v-24c0-1.2-0.8-2-2-2z"></path>
<path d="M28 2h-6c-1.2 0-2 0.8-2 2v24c0 1.2 0.8 2 2 2h6c1.2 0 2-0.8 2-2v-24c0-1.2-0.8-2-2-2z"></path>
</symbol>
<symbol id="button-play" viewBox="0 0 32 32">
<path d="M27.2 14.4l-20-14c-1.4-1-3.2 0-3.2 1.6v28c0 1.6 1.8 2.6 3.2 1.6l20-14c1-0.8 1-2.4 0-3.2z"></path>
</symbol>
<symbol id="button-record" viewBox="0 0 32 32">
<path d="M30 16c0 7.732-6.268 14-14 14s-14-6.268-14-14c0-7.732 6.268-14 14-14s14 6.268 14 14z"></path>
</symbol>
<symbol id="button-stop" viewBox="0 0 32 32">
<path d="M28 2h-24c-1.2 0-2 0.8-2 2v24c0 1.2 0.8 2 2 2h24c1.2 0 2-0.8 2-2v-24c0-1.2-0.8-2-2-2z"></path>
</symbol>
<symbol id="calendar-grid-61" viewBox="0 0 32 32">
<path d="M30 4h-4v-4h-6v4h-8v-4h-6v4h-4c-1.104 0-2 0.896-2 2v24c0 1.104 0.896 2 2 2h28c1.104 0 2-0.896 2-2v-24c0-1.104-0.896-2-2-2zM28 28h-24v-18h24v18z"></path>
<path d="M8 14h4v4h-4v-4z"></path>
<path d="M14 14h4v4h-4v-4z"></path>
<path d="M8 20h4v4h-4v-4z"></path>
<path d="M14 20h4v4h-4v-4z"></path>
<path d="M20 14h4v4h-4v-4z"></path>
<path d="M20 20h4v4h-4v-4z"></path>
</symbol>
<symbol id="chart-bar-33" viewBox="0 0 32 32">
<path d="M18.667 17.333h-5.333c-0.736 0-1.333 0.597-1.333 1.333v12c0 0.736 0.597 1.333 1.333 1.333h5.333c0.736 0 1.333-0.597 1.333-1.333v-12c0-0.736-0.597-1.333-1.333-1.333z"></path>
<path d="M6.667 22.667h-5.333c-0.736 0-1.333 0.597-1.333 1.333v6.667c0 0.736 0.597 1.333 1.333 1.333h5.333c0.736 0 1.333-0.597 1.333-1.333v-6.667c0-0.736-0.597-1.333-1.333-1.333z"></path>
<path d="M30.667 12h-5.333c-0.736 0-1.333 0.597-1.333 1.333v17.333c0 0.736 0.597 1.333 1.333 1.333h5.333c0.736 0 1.333-0.597 1.333-1.333v-17.333c0-0.736-0.597-1.333-1.333-1.333z"></path>
<path d="M16.943 12.943l8.391-8.391v4.781h2.667v-8c0-0.736-0.597-1.333-1.333-1.333h-8v2.667h4.781l-7.448 7.448-4.391-4.391c-0.521-0.521-1.364-0.521-1.885 0l-6.667 6.667 1.885 1.885 5.724-5.724 4.391 4.391c0.521 0.521 1.364 0.521 1.885 0z"></path>
</symbol>
<symbol id="check-bold" viewBox="0 0 32 32">
<path d="M11.2 16.8l-8-4.8-3.2 3.2 11.2 12.8 20.8-20.8-3.2-3.2z"></path>
</symbol>
<symbol id="check-circle-08" viewBox="0 0 32 32">
<path d="M16 0c-8.8 0-16 7.2-16 16s7.2 16 16 16 16-7.2 16-16-7.2-16-16-16zM14 22.8l-6.8-6.8 2.8-2.8 4 4 8-8 2.8 2.8-10.8 10.8z"></path>
</symbol>
<symbol id="check-double" viewBox="0 0 32 32">
<path d="M31.11 4.336c-0.312-0.211-0.696-0.336-1.11-0.336-0.691 0-1.3 0.35-1.659 0.883l-0.005 0.007-10.646 15.972-1.674-1.674-2.262 3.4 2.832 2.832c0.361 0.358 0.859 0.58 1.408 0.58 0.002 0 0.004 0 0.006 0h-0c0.066 0 0.13 0 0.2-0.010 0.613-0.063 1.138-0.394 1.462-0.873l0.005-0.007 12-18c0.21-0.312 0.336-0.696 0.336-1.109 0-0.692-0.351-1.301-0.885-1.66l-0.007-0.005z"></path>
<path d="M8 26c-0.552-0-1.052-0.224-1.414-0.586l-6-6c-0.377-0.364-0.611-0.874-0.611-1.439 0-1.105 0.895-2 2-2 0.565 0 1.074 0.234 1.438 0.61l0.001 0.001 4.276 4.276 10.646-15.972c0.364-0.54 0.973-0.89 1.664-0.89 1.105 0 2 0.896 2 2 0 0.414-0.126 0.798-0.341 1.117l0.005-0.007-12 18c-0.325 0.489-0.85 0.824-1.455 0.889l-0.009 0.001c-0.070 0-0.134 0-0.2 0z"></path>
</symbol>
<symbol id="check-simple" viewBox="0 0 32 32">
<path d="M11.2 19.2l-6.4-6.4-4.8 4.8 11.2 11.2 20.8-20.8-4.8-4.8z"></path>
</symbol>
<symbol id="check-square-09" viewBox="0 0 32 32">
<path d="M28 0h-24c-2.2 0-4 1.8-4 4v24c0 2.2 1.8 4 4 4h24c2.2 0 4-1.8 4-4v-24c0-2.2-1.8-4-4-4zM14 22.8l-6.8-6.8 2.8-2.8 4 4 8-8 2.8 2.8-10.8 10.8z"></path>
</symbol>
<symbol id="circle-bold-add" viewBox="0 0 32 32">
<path d="M18 8h-4v6h-6v4h6v6h4v-6h6v-4h-6z"></path>
<path d="M16 0c-8.8 0-16 7.2-16 16s7.2 16 16 16 16-7.2 16-16-7.2-16-16-16zM16 28c-6.6 0-12-5.4-12-12s5.4-12 12-12 12 5.4 12 12-5.4 12-12 12z"></path>
</symbol>
<symbol id="circle-bold-remove" viewBox="0 0 32 32">
<path d="M20.2 9l-4.2 4.2-4.2-4.2-2.8 2.8 4.2 4.2-4.2 4.2 2.8 2.8 4.2-4.2 4.2 4.2 2.8-2.8-4.2-4.2 4.2-4.2z"></path>
<path d="M16 0c-8.8 0-16 7.2-16 16s7.2 16 16 16 16-7.2 16-16-7.2-16-16-16zM16 28c-6.6 0-12-5.4-12-12s5.4-12 12-12 12 5.4 12 12-5.4 12-12 12z"></path>
</symbol>
<symbol id="curved-next" viewBox="0 0 32 32">
<path d="M16 10c-10.4 0-16 7.6-16 20 3-4.8 5.4-8 16-8v8l16-14-16-14v8z"></path>
</symbol>
<symbol id="curved-previous" viewBox="0 0 32 32">
<path d="M16 10c10.4 0 16 7.6 16 20-3-4.8-5.4-8-16-8v8l-16-14 16-14v8z"></path>
</symbol>
<symbol id="disk-2" viewBox="0 0 32 32">
<path d="M23.4 0.6c-0.4-0.4-0.8-0.6-1.4-0.6h-2v6c0 1.2-0.8 2-2 2h-10c-1.2 0-2-0.8-2-2v-6h-4c-1.2 0-2 0.8-2 2v28c0 1.2 0.8 2 2 2h28c1.2 0 2-0.8 2-2v-20c0-0.6-0.2-1-0.6-1.4l-8-8zM26 28h-20v-6c0-1.2 0.8-2 2-2h16c1.2 0 2 0.8 2 2v6z"></path>
<path d="M14 0h4v6h-4v-6z"></path>
</symbol>
<symbol id="edit-75" viewBox="0 0 32 32">
<path d="M28.2 0.6c-0.8-0.8-2-0.8-2.8 0l-13.4 13.4v6h6l13.4-13.4c0.8-0.8 0.8-2 0-2.8l-3.2-3.2z"></path>
<path d="M30 18c-1.2 0-2 0.8-2 2v8h-24v-24h8c1.2 0 2-0.8 2-2s-0.8-2-2-2h-10c-1.2 0-2 0.8-2 2v28c0 1.2 0.8 2 2 2h28c1.2 0 2-0.8 2-2v-10c0-1.2-0.8-2-2-2z"></path>
</symbol>
<symbol id="email-83" viewBox="0 0 32 32">
<path d="M30 2h-28c-1.2 0-2 0.8-2 2v2.8l16 9 16-8.8v-3c0-1.2-0.8-2-2-2z"></path>
<path d="M15 19.8l-15-8.4v16.6c0 1.2 0.8 2 2 2h28c1.2 0 2-0.8 2-2v-16.6l-15 8.4c-0.56 0.28-1.44 0.28-2 0z"></path>
</symbol>
<symbol id="enlarge-45" viewBox="0 0 32 32">
<path d="M0 16l12-10v20z"></path>
<path d="M32 16l-12-10v20z"></path>
</symbol>
<symbol id="enlarge-46" viewBox="0 0 32 32">
<path d="M9.688 28.81l-9.25-11.56c-0.584-0.73-0.584-1.77 0-2.5l9.25-11.56 3.124 2.498-8.252 10.312 8.25 10.312-3.122 2.498z"></path>
<path d="M22.312 28.81l-3.124-2.498 8.252-10.312-8.25-10.312 3.124-2.498 9.25 11.56c0.584 0.73 0.584 1.77 0 2.5l-9.252 11.56z"></path>
</symbol>
<symbol id="eraser-33" viewBox="0 0 32 32">
<path d="M0 28h32v4h-32v-4z"></path>
<path d="M9.2 24h9.6l10.6-10.6c0.8-0.8 0.8-2 0-2.8l-10-10c-0.8-0.8-2-0.8-2.8 0l-14 14c-0.8 0.8-0.8 2 0 2.8l6.6 6.6z"></path>
</symbol>
<symbol id="favourite-28" viewBox="0 0 32 32">
<path d="M23.2 0c-3 0-5.6 1.6-7.2 4-1.6-2.4-4.2-4-7.2-4-4.8 0-8.8 4-8.8 8.8 0 8.8 16 21.8 16 21.8s16-13 16-21.8c0-4.8-4-8.8-8.8-8.8z"></path>
</symbol>
<symbol id="filter-check" viewBox="0 0 32 32">
<path d="M30 6h-28c-1.104 0-2-0.896-2-2v0c0-1.104 0.896-2 2-2h28c1.104 0 2 0.896 2 2v0c0 1.104-0.896 2-2 2z"></path>
<path d="M30 14h-28c-1.104 0-2-0.896-2-2v0c0-1.104 0.896-2 2-2h28c1.104 0 2 0.896 2 2v0c0 1.104-0.896 2-2 2z"></path>
<path d="M10 22h-8c-1.106 0-2-0.894-2-2s0.894-2 2-2h8c1.106 0 2 0.894 2 2s-0.894 2-2 2z"></path>
<path d="M10 30h-8c-1.106 0-2-0.894-2-2s0.894-2 2-2h8c1.106 0 2 0.894 2 2s-0.894 2-2 2z"></path>
<path d="M22 30c-0.512 0-1.024-0.196-1.414-0.586l-4-4c-0.782-0.782-0.782-2.046 0-2.828s2.046-0.782 2.828 0l2.586 2.586 6.586-6.586c0.782-0.782 2.046-0.782 2.828 0s0.782 2.046 0 2.828l-8 8c-0.39 0.39-0.902 0.586-1.414 0.586z"></path>
</symbol>
<symbol id="fullscreen-double-74" viewBox="0 0 32 32">
<path d="M18 4h7.2l-8 8 2.8 2.8 8-8v7.2h4v-14h-14z"></path>
<path d="M12 17.2l-8 8v-7.2h-4v14h14v-4h-7.2l8-8z"></path>
</symbol>
<symbol id="funnel-40" viewBox="0 0 32 32">
<path d="M31.79 1.106c-0.34-0.678-1.032-1.106-1.79-1.106h-28c-0.758 0-1.45 0.428-1.79 1.106-0.336 0.678-0.264 1.488 0.19 2.094l11.6 15.466v11.334c0 1.106 0.894 2 2 2h4c1.106 0 2-0.894 2-2v-11.334l11.6-15.466c0.454-0.606 0.526-1.416 0.19-2.094z"></path>
</symbol>
<symbol id="grid-45" viewBox="0 0 32 32">
<path d="M12 0h-10c-1.2 0-2 0.8-2 2v10c0 1.2 0.8 2 2 2h10c1.2 0 2-0.8 2-2v-10c0-1.2-0.8-2-2-2z"></path>
<path d="M30 0h-10c-1.2 0-2 0.8-2 2v10c0 1.2 0.8 2 2 2h10c1.2 0 2-0.8 2-2v-10c0-1.2-0.8-2-2-2z"></path>
<path d="M12 18h-10c-1.2 0-2 0.8-2 2v10c0 1.2 0.8 2 2 2h10c1.2 0 2-0.8 2-2v-10c0-1.2-0.8-2-2-2z"></path>
<path d="M30 18h-10c-1.2 0-2 0.8-2 2v10c0 1.2 0.8 2 2 2h10c1.2 0 2-0.8 2-2v-10c0-1.2-0.8-2-2-2z"></path>
</symbol>
<symbol id="grid-48" viewBox="0 0 32 32">
<path d="M0 0h8v8h-8v-8z"></path>
<path d="M12 0h8v8h-8v-8z"></path>
<path d="M24 0h8v8h-8v-8z"></path>
<path d="M0 12h8v8h-8v-8z"></path>
<path d="M12 12h8v8h-8v-8z"></path>
<path d="M24 12h8v8h-8v-8z"></path>
<path d="M0 24h8v8h-8v-8z"></path>
<path d="M12 24h8v8h-8v-8z"></path>
<path d="M24 24h8v8h-8v-8z"></path>
</symbol>
<symbol id="home-1-2" viewBox="0 0 32 32">
<path d="M21.896 32h3.998c1.2 0 1.998-0.8 1.998-1.998v-14.162h1.998c0.6 0 1.2-0.2 1.6-0.6 0.8-0.8 0.6-1.998-0.2-2.798l-13.99-11.992c-0.8-0.6-1.8-0.6-2.598 0l-13.994 11.992c-0.8 0.8-1 1.998-0.2 2.798 0.2 0.4 0.8 0.6 1.4 0.6h1.998v14.16c0 1.2 0.8 1.998 1.998 1.998h3.998c1.2 0 1.998-0.8 1.998-1.998v-6.164h7.996v6.164c0.002 1.2 0.802 2 2 2z"></path>
</symbol>
<symbol id="ic_closed_caption_24px" viewBox="0 0 32 32">
<path d="M25.333 5.333h-18.667c-1.48 0-2.667 1.2-2.667 2.667v16c0 1.467 1.187 2.667 2.667 2.667h18.667c1.467 0 2.667-1.2 2.667-2.667v-16c0-1.467-1.2-2.667-2.667-2.667zM14.667 14.667h-2v-0.667h-2.667v4h2.667v-0.667h2v1.333c0 0.733-0.6 1.333-1.333 1.333h-4c-0.733 0-1.333-0.6-1.333-1.333v-5.333c0-0.733 0.6-1.333 1.333-1.333h4c0.733 0 1.333 0.6 1.333 1.333v1.333zM24 14.667h-2v-0.667h-2.667v4h2.667v-0.667h2v1.333c0 0.733-0.6 1.333-1.333 1.333h-4c-0.733 0-1.333-0.6-1.333-1.333v-5.333c0-0.733 0.6-1.333 1.333-1.333h4c0.733 0 1.333 0.6 1.333 1.333v1.333z"></path>
</symbol>
<symbol id="image-01" viewBox="0 0 32 32">
<path d="M30 0h-28c-1.2 0-2 0.8-2 2v28c0 1.2 0.8 2 2 2h28c1.2 0 2-0.8 2-2v-28c0-1.2-0.8-2-2-2zM12 8c1.2 0 2 0.8 2 2s-0.8 2-2 2c-1.2 0-2-0.8-2-2s0.8-2 2-2zM6 24l4-8 4 4 6-8 6 12h-20z"></path>
</symbol>
<symbol id="l-facebook" viewBox="0 0 32 32">
<path d="M12.042 30.667l-0.042-13.334h-5.333v-5.333h5.333v-3.333c0-4.949 3.064-7.333 7.479-7.333 2.115 0 3.932 0.157 4.462 0.228v5.171l-3.062 0.001c-2.401 0-2.866 1.141-2.866 2.815v2.451h6.987l-2.667 5.333h-4.32v13.333h-5.971z"></path>
</symbol>
<symbol id="l-google" viewBox="0 0 32 32">
<path d="M32 14.667h-2.667v-2.667h-2.666v2.667h-2.667v2.666h2.667v2.667h2.666v-2.667h2.667z"></path>
<path d="M22.035 14.673l-10.035-0.006v4h5.735c-0.309 1.693-2.005 4.781-6.402 4.781-3.869 0-7.027-3.206-7.027-7.156s3.157-7.156 7.027-7.156c2.202 0 3.675 0.939 4.517 1.749l3.076-2.963c-1.975-1.846-4.533-2.963-7.593-2.963-6.265-0.001-11.333 5.067-11.333 11.333s5.068 11.333 11.333 11.333c7.797 0 11.813-6.472 10.702-12.952z"></path>
</symbol>
<symbol id="l-pinterest" viewBox="0 0 32 32">
<path d="M16 0c-8.8 0-16 7.2-16 16 0 6.8 4.267 12.533 10.133 14.933-0.133-1.2-0.267-3.2 0-4.533 0.267-1.2 1.867-8 1.867-8s-0.4-1.067-0.4-2.4c0-2.267 1.333-3.867 2.933-3.867 1.333 0 2 1.067 2 2.267 0 1.333-0.933 3.467-1.333 5.333-0.4 1.6 0.8 2.933 2.4 2.933 2.8 0 5.067-2.933 5.067-7.333 0-3.867-2.8-6.533-6.667-6.533-4.533 0-7.2 3.467-7.2 6.933 0 1.333 0.533 2.8 1.2 3.6 0.133 0.133 0.133 0.267 0.133 0.4-0.133 0.533-0.4 1.6-0.4 1.867-0.133 0.267-0.266 0.4-0.533 0.267-2-0.934-3.2-3.867-3.2-6.134 0-5.066 3.733-9.733 10.533-9.733 5.6 0 9.867 4 9.867 9.2 0 5.467-3.467 10-8.267 10-1.6 0-3.2-0.8-3.733-1.867 0 0-0.8 3.067-0.933 3.867-0.4 1.333-1.333 3.067-2 4.133 1.333 0.4 2.933 0.667 4.533 0.667 8.8 0 16-7.2 16-16s-7.2-16-16-16z"></path>
</symbol>
<symbol id="l-twitter" viewBox="0 0 32 32">
<path d="M32 6.076c-1.177 0.522-2.443 0.875-3.771 1.034 1.356-0.812 2.396-2.099 2.887-3.632-1.268 0.752-2.674 1.299-4.169 1.593-1.198-1.276-2.904-2.073-4.792-2.073-3.626 0-6.565 2.939-6.565 6.565 0 0.515 0.058 1.016 0.17 1.496-5.457-0.274-10.294-2.888-13.532-6.86-0.565 0.97-0.889 2.097-0.889 3.3 0 2.278 1.159 4.287 2.921 5.464-1.076-0.034-2.089-0.329-2.974-0.821 0 0.027-0.001 0.055-0.001 0.082 0 3.181 2.263 5.834 5.266 6.438-0.551 0.15-1.131 0.23-1.73 0.23-0.423 0-0.834-0.041-1.235-0.118 0.835 2.608 3.26 4.506 6.133 4.559-2.247 1.761-5.078 2.81-8.153 2.81-0.53 0-1.053-0.031-1.566-0.092 2.905 1.863 6.356 2.949 10.064 2.949 12.076 0 18.679-10.004 18.679-18.679 0-0.285-0.006-0.568-0.019-0.849 1.283-0.923 2.396-2.080 3.276-3.396z"></path>
</symbol>
<symbol id="like-2" viewBox="0 0 32 32">
<path d="M26.6 12h-8.6v-8c0-3-1.6-4-4-4-0.6 0-1.2 0.4-1.2 1 0 0-4.6 15-4.8 15v16h17.2c2.6 0 4.8-2 5.2-4.6l1.6-9.2c0.2-1.6-0.2-3.2-1.2-4.2-1-1.4-2.6-2-4.2-2z"></path>
<path d="M0 16h4v16h-4v-16z"></path>
</symbol>
<symbol id="link-72" viewBox="0 0 32 32">
<path d="M9 32c-2.4 0-4.6-1-6.4-2.6-3.6-3.6-3.6-9.2 0-12.8l1.4-1.4 2.8 2.8-1.4 1.4c-2 2-2 5.2 0 7.2s5.2 2 7.2 0l6-6c2-2 2-5.2 0-7.2l-1.4-1.4 2.8-2.8 1.4 1.4c3.6 3.6 3.6 9.2 0 12.8l-6 6c-1.6 1.6-4 2.6-6.4 2.6z"></path>
<path d="M12 22.8l-1.4-1.4c-3.6-3.6-3.6-9.2 0-12.8l6-6c1.8-1.8 4-2.6 6.4-2.6s4.6 1 6.4 2.6c3.6 3.6 3.6 9.2 0 12.8l-1.4 1.4-2.8-2.8 1.4-1.4c2-2 2-5.2 0-7.2s-5.2-2-7.2 0l-6 6c-2 2-2 5.2 0 7.2l1.4 1.4-2.8 2.8z"></path>
</symbol>
<symbol id="lock-open" viewBox="0 0 32 32">
<path d="M2 30c0 1.2 0.8 2 2 2h24c1.2 0 2-0.8 2-2v-18c0-1.2-0.8-2-2-2h-16v-2c0-2.2 1.8-4 4-4 1.2 0 2.2 0.4 3 1.4l1.4 1.4 3-2.6-1.4-1.6c-1.6-1.6-3.8-2.6-6-2.6-4.4 0-8 3.6-8 8v2h-4c-1.2 0-2 0.8-2 2v18zM16 16c2.2 0 4 1.8 4 4 0 1.4-0.8 2.8-2 3.4v2.6h-4v-2.6c-1.2-0.6-2-2-2-3.4 0-2.2 1.8-4 4-4z"></path>
</symbol>
<symbol id="lock" viewBox="0 0 32 32">
<path d="M16 0c-4.4 0-8 3.6-8 8v2h-4c-1.2 0-2 0.8-2 2v18c0 1.2 0.8 2 2 2h24c1.2 0 2-0.8 2-2v-18c0-1.2-0.8-2-2-2h-4v-2c0-4.4-3.6-8-8-8zM18 23.4v2.6h-4v-2.6c-1.2-0.6-2-2-2-3.4 0-2.2 1.8-4 4-4s4 1.8 4 4c0 1.4-0.8 2.8-2 3.4zM20 10h-8v-2c0-2.2 1.8-4 4-4s4 1.8 4 4v2z"></path>
</symbol>
<symbol id="log-in" viewBox="0 0 32 32">
<path d="M16 24l8-8-8-8v6h-16v4h16z"></path>
<path d="M30 32h-18c-1.2 0-2-0.8-2-2v-6h4v4h14v-24h-14v4h-4v-6c0-1.2 0.8-2 2-2h18c1.2 0 2 0.8 2 2v28c0 1.2-0.8 2-2 2z"></path>
</symbol>
<symbol id="log-out" viewBox="0 0 32 32">
<path d="M8 8l-8 8 8 8v-6h12v-4h-12z"></path>
<path d="M30 32h-18c-1.2 0-2-0.8-2-2v-6h4v4h14v-24h-14v4h-4v-6c0-1.2 0.8-2 2-2h18c1.2 0 2 0.8 2 2v28c0 1.2-0.8 2-2 2z"></path>
</symbol>
<symbol id="logo-rss" viewBox="0 0 32 32">
<path d="M10 26c0 2.209-1.791 4-4 4s-4-1.791-4-4c0-2.209 1.791-4 4-4s4 1.791 4 4z"></path>
<path d="M30 30h-5.4c0-12.4-10.2-22.6-22.6-22.6v-5.4c15.4 0 28 12.6 28 28z"></path>
<path d="M20.6 30h-5.2c0-7.4-6-13.4-13.4-13.4v-5.2c10.2 0 18.6 8.4 18.6 18.6z"></path>
</symbol>
<symbol id="media-1" viewBox="0 0 32 32">
<path d="M19.186 30.39c0.222 0.172 0.505 0.276 0.812 0.276 0.737 0 1.334-0.597 1.334-1.334v-5.906l8.49 6.938c0.228 0.189 0.524 0.303 0.846 0.303 0.736 0 1.332-0.596 1.332-1.332 0-0 0-0.001 0-0.001v0-26.668c0-0.001 0-0.002 0-0.003 0-0.736-0.596-1.332-1.332-1.332-0.322 0-0.618 0.114-0.848 0.305l0.002-0.002-8.49 6.938v-5.906c0-0.001 0-0.002 0-0.004 0-0.736-0.596-1.332-1.332-1.332-0.308 0-0.591 0.104-0.817 0.28l0.003-0.002-17.332 13.334c-0.318 0.246-0.521 0.628-0.521 1.058s0.203 0.812 0.518 1.056l0.003 0.002 17.332 13.332z"></path>
</symbol>
<symbol id="media-2" viewBox="0 0 32 32">
<path d="M12.814 1.61c-0.002-0.734-0.597-1.329-1.332-1.329-0.736 0-1.332 0.596-1.332 1.332 0 0.427 0.201 0.807 0.513 1.051l0.003 0.002v5.906l-8.488-6.938c-0.228-0.189-0.524-0.303-0.846-0.303-0.736 0-1.332 0.596-1.332 1.332 0 0.001 0 0.002 0 0.003v-0 26.666c0 0.001 0 0.002 0 0.003 0 0.736 0.596 1.332 1.332 1.332 0.322 0 0.618-0.114 0.848-0.305l-0.002 0.002 8.49-6.938v5.906c0 0.001 0 0.002 0 0.004 0 0.736 0.596 1.332 1.332 1.332 0.308 0 0.591-0.104 0.817-0.28l-0.003 0.002 17.334-13.334c0.319-0.246 0.523-0.628 0.523-1.058s-0.204-0.812-0.52-1.056l-0.003-0.002-17.334-13.33z"></path>
</symbol>
<symbol id="media-3" viewBox="0 0 32 32">
<path d="M19.262 1.474c-0.174-0.088-0.378-0.139-0.595-0.139-0.302 0-0.58 0.1-0.804 0.268l0.003-0.002-10.31 7.734h-6.222c-0.001 0-0.001 0-0.002 0-0.736 0-1.332 0.596-1.332 1.332 0 0 0 0 0 0v0 10.666c0 0.738 0.596 1.334 1.334 1.334h6.222l10.31 7.734c0.219 0.168 0.497 0.269 0.799 0.269 0.218 0 0.424-0.053 0.605-0.146l-0.007 0.003c0.441-0.224 0.737-0.673 0.738-1.192v-26.668c-0.001-0.519-0.297-0.968-0.73-1.188l-0.008-0.004z"></path>
<path d="M24.324 10.344l-0.942-0.942-1.886 1.886 0.942 0.942c0.964 0.966 1.56 2.299 1.56 3.771s-0.596 2.805-1.56 3.771l-0.942 0.942 1.886 1.886 0.942-0.942c1.445-1.449 2.338-3.449 2.338-5.657s-0.893-4.208-2.339-5.657l0 0z"></path>
<path d="M27.152 5.63l-1.886 1.886 0.942 0.942c1.927 1.932 3.119 4.598 3.119 7.543s-1.192 5.611-3.119 7.543l-0.942 0.942 1.886 1.886 0.942-0.942c2.409-2.415 3.898-5.748 3.898-9.429s-1.49-7.014-3.899-9.429l-0.942-0.942z"></path>
</symbol>
<symbol id="media-4" viewBox="0 0 32 32">
<path d="M21.932 1.474c-0.174-0.088-0.378-0.139-0.595-0.139-0.302 0-0.58 0.1-0.804 0.268l0.003-0.002-10.312 7.734h-6.222c-0.001 0-0.001 0-0.002 0-0.736 0-1.332 0.596-1.332 1.332 0 0.001 0 0.001 0 0.002v-0 10.666c0 0.738 0.596 1.334 1.334 1.334h6.222l10.31 7.734c0.219 0.168 0.497 0.269 0.799 0.269 0.218 0 0.424-0.053 0.605-0.146l-0.007 0.003c0.441-0.224 0.738-0.674 0.738-1.193 0-0 0-0 0-0.001v0-26.668c0-0 0-0.001 0-0.001 0-0.518-0.296-0.968-0.728-1.188l-0.008-0.004z"></path>
<path d="M26.992 10.344l-0.942-0.942-1.886 1.886 0.942 0.942c0.964 0.966 1.56 2.299 1.56 3.771s-0.596 2.805-1.56 3.771l-0.942 0.942 1.886 1.886 0.942-0.942c1.446-1.449 2.34-3.448 2.34-5.657s-0.894-4.208-2.34-5.657l0 0z"></path>
</symbol>
<symbol id="media-5" viewBox="0 0 32 32">
<path d="M25.262 1.474c-0.174-0.088-0.378-0.139-0.595-0.139-0.302 0-0.58 0.099-0.805 0.267l0.003-0.002-10.31 7.734h-6.222c-0.001 0-0.001 0-0.002 0-0.736 0-1.332 0.596-1.332 1.332 0 0 0 0 0 0v0 10.666c0 0.738 0.596 1.334 1.334 1.334h6.222l10.31 7.734c0.219 0.168 0.497 0.269 0.799 0.269 0.218 0 0.424-0.053 0.605-0.146l-0.007 0.003c0.441-0.224 0.737-0.673 0.738-1.192v-26.668c-0.001-0.519-0.297-0.968-0.73-1.188l-0.008-0.004z"></path>
</symbol>
<symbol id="media-6" viewBox="0 0 32 32">
<path d="M14.090 23.566l9.11 6.834c0.219 0.168 0.497 0.269 0.799 0.269 0.218 0 0.424-0.053 0.605-0.146l-0.007 0.003c0.441-0.224 0.738-0.674 0.738-1.193 0-0 0-0 0-0.001v0-17.010l-11.244 11.244z"></path>
<path d="M2.666 22.666h6.666l16-16v-4c-0.001-0.519-0.297-0.969-0.73-1.19l-0.008-0.004c-0.173-0.087-0.377-0.138-0.593-0.138-0.302 0-0.581 0.1-0.805 0.269l0.003-0.002-10.31 7.734h-10.224c-0.001 0-0.001 0-0.002 0-0.736 0-1.332 0.596-1.332 1.332 0 0.001 0 0.001 0 0.002v-0 10.666c0.001 0.736 0.598 1.332 1.334 1.332 0 0 0 0 0 0v0z"></path>
<path d="M1.334 32c-0.001 0-0.001 0-0.002 0-0.736 0-1.332-0.596-1.332-1.332 0-0.369 0.15-0.703 0.392-0.944l29.332-29.334c0.241-0.241 0.575-0.391 0.943-0.391 0.737 0 1.334 0.597 1.334 1.334 0 0.368-0.149 0.702-0.391 0.943v0l-29.334 29.334c-0.241 0.241-0.573 0.39-0.941 0.39-0 0-0.001 0-0.001 0h0z"></path>
</symbol>
<symbol id="media-7" viewBox="0 0 32 32">
<path d="M8 0h4v10c0 1.2-0.8 2-2 2h-10v-4h8v-8z"></path>
<path d="M20 0h4v8h8v4h-10c-1.2 0-2-0.8-2-2v-10z"></path>
<path d="M22 20h10v4h-8v8h-4v-10c0-1.2 0.8-2 2-2z"></path>
<path d="M0 20h10c1.2 0 2 0.8 2 2v10h-4v-8h-8v-4z"></path>
</symbol>
<symbol id="menu-34" viewBox="0 0 32 32">
<path d="M30 14h-28c-1.2 0-2 0.8-2 2s0.8 2 2 2h28c1.2 0 2-0.8 2-2s-0.8-2-2-2z"></path>
<path d="M30 2h-28c-1.2 0-2 0.8-2 2s0.8 2 2 2h28c1.2 0 2-0.8 2-2s-0.8-2-2-2z"></path>
<path d="M30 26h-28c-1.2 0-2 0.8-2 2s0.8 2 2 2h28c1.2 0 2-0.8 2-2s-0.8-2-2-2z"></path>
</symbol>
<symbol id="menu-bold" viewBox="0 0 32 32">
<path d="M0 0h32v6h-32v-6z"></path>
<path d="M0 12h32v6h-32v-6z"></path>
<path d="M0 24h32v6h-32v-6z"></path>
</symbol>
<symbol id="menu-dots" viewBox="0 0 32 32">
<path d="M20 16c0 2.209-1.791 4-4 4s-4-1.791-4-4c0-2.209 1.791-4 4-4s4 1.791 4 4z"></path>
<path d="M8 16c0 2.209-1.791 4-4 4s-4-1.791-4-4c0-2.209 1.791-4 4-4s4 1.791 4 4z"></path>
<path d="M32 16c0 2.209-1.791 4-4 4s-4-1.791-4-4c0-2.209 1.791-4 4-4s4 1.791 4 4z"></path>
</symbol>
<symbol id="minimal-down" viewBox="0 0 32 32">
<path d="M16 25.2l-15.4-15.4 2.8-3 12.6 12.6 12.6-12.6 2.8 3z"></path>
</symbol>
<symbol id="minimal-left" viewBox="0 0 32 32">
<path d="M22.2 31.4l-15.4-15.4 15.4-15.4 3 2.8-12.6 12.6 12.6 12.6z"></path>
</symbol>
<symbol id="minimal-right" viewBox="0 0 32 32">
<path d="M9.8 31.4l-3-2.8 12.6-12.6-12.6-12.6 3-2.8 15.4 15.4z"></path>
</symbol>
<symbol id="minimal-up" viewBox="0 0 32 32">
<path d="M28.6 25.2l-12.6-12.6-12.6 12.6-2.8-3 15.4-15.4 15.4 15.4z"></path>
</symbol>
<symbol id="mobile-button" viewBox="0 0 32 32">
<path d="M24 0h-16c-2.206 0-4 1.794-4 4v24c0 2.206 1.794 4 4 4h16c2.206 0 4-1.794 4-4v-24c0-2.206-1.794-4-4-4zM16 28c-1.104 0-2-0.896-2-2s0.896-2 2-2 2 0.896 2 2-0.896 2-2 2zM24 20h-16v-16h16v16z"></path>
</symbol>
<symbol id="ns-arrow" viewBox="0 0 32 32">
<path d="M26.324 16.152c-1.575 0.813-3.264 1.778-5.066 2.895-1.804 1.118-3.594 2.362-5.372 3.733-1.779 1.372-3.518 2.832-5.219 4.381-1.703 1.551-3.264 3.163-4.686 4.839h-0.305c1.016-3.352 2.158-6.387 3.429-9.105 1.269-2.717 2.564-5.016 3.886-6.895-1.321-1.879-2.617-4.177-3.886-6.895-1.271-2.717-2.413-5.753-3.429-9.105h0.305c1.422 1.676 2.983 3.289 4.686 4.838 1.701 1.55 3.44 3.010 5.219 4.381 1.777 1.372 3.568 2.617 5.372 3.733 1.802 1.118 3.492 2.083 5.066 2.895v0.305z"></path>
</symbol>
<symbol id="ns-camera" viewBox="0 0 32 32">
<path d="M27.253 6.273h-2.54l-1.602-1.602c-0.93-0.92-2.554-1.592-3.858-1.592h-6.408c-1.304 0-2.928 0.672-3.858 1.592l-1.602 1.602h-2.54c-2.64 0-4.796 2.156-4.796 4.806v12.796c0.003 2.647 2.149 4.793 4.796 4.796h22.408c2.647-0.003 4.793-2.149 4.796-4.796v-12.796c0-2.65-2.156-4.806-4.796-4.806zM16.049 22.273c-3.094 0-5.602-2.508-5.602-5.602v0c0-3.092 2.508-5.592 5.602-5.592s5.602 2.5 5.602 5.592c0 3.094-2.508 5.602-5.602 5.602v0zM25.651 14.751c-0.002 0-0.003 0-0.005 0-1.145 0-2.073-0.928-2.073-2.073 0-0.002 0-0.005 0-0.007v0c0-1.148 0.93-2.078 2.078-2.078s2.078 0.93 2.078 2.078v0c0 1.158-0.93 2.080-2.078 2.080z"></path>
</symbol>
<symbol id="ns-comment" viewBox="0 0 32 32">
<path d="M16 0c-8.802 0-16 6-16 13.4 0 3.666 1.798 7 4.666 9.466v9.134l7.4-5.6c1.266 0.266 2.6 0.399 3.934 0.399 8.864 0 16-6 16-13.399 0-7.4-7.136-13.4-16-13.4zM23.896 11.97l-3.11 3.582 0.412 4.752c0.002 0.016 0.002 0.034 0.002 0.053 0 0.322-0.261 0.583-0.583 0.583-0.1 0-0.194-0.025-0.277-0.070l0.003 0.002-4.346-1.844-4.395 1.859c-0.068 0.030-0.147 0.048-0.231 0.048-0.237 0-0.441-0.143-0.53-0.348l-0.001-0.004c-0.031-0.068-0.048-0.146-0.048-0.23 0-0.018 0.001-0.037 0.003-0.055l-0 0.002 0.412-4.754-3.121-3.597c-0.088-0.101-0.141-0.234-0.141-0.379 0-0.177 0.079-0.336 0.204-0.442l0.001-0.001c0.067-0.060 0.149-0.104 0.24-0.125l0.004-0.001 4.644-1.074 2.458-4.084c0.104-0.172 0.29-0.285 0.502-0.285s0.398 0.113 0.501 0.282l0.001 0.003 2.452 4.078 4.649 1.090c0.26 0.062 0.451 0.293 0.451 0.568 0 0.043-0.005 0.084-0.013 0.124l0.001-0.004c-0.023 0.106-0.073 0.198-0.143 0.27l0-0z"></path>
</symbol>
<symbol id="ns-quote" viewBox="0 0 32 32">
<path d="M4.351 15.336c0.374-0.467 0.947-0.853 1.719-1.158s1.672-0.456 2.702-0.456c1.73 0 3.193 0.561 4.386 1.684s1.789 2.667 1.789 4.632c0 2.012-0.691 3.626-2.070 4.842-1.38 1.217-3.053 1.825-5.018 1.825-2.386 0-4.293-0.772-5.719-2.316s-2.14-3.555-2.14-6.035c0-2.151 0.397-4.046 1.193-5.684 0.795-1.637 1.883-3.005 3.263-4.105 1.38-1.099 2.983-1.93 4.807-2.491 1.825-0.562 3.742-0.818 5.754-0.772v1.193c-1.403 0.047-2.761 0.235-4.070 0.561-1.31 0.328-2.456 0.842-3.438 1.544s-1.767 1.603-2.351 2.702c-0.586 1.099-0.854 2.444-0.807 4.034zM21.333 15.336c0.374-0.467 0.948-0.853 1.72-1.158s1.672-0.456 2.701-0.456c1.73 0 3.193 0.561 4.386 1.684s1.79 2.667 1.79 4.632c0 2.012-0.691 3.626-2.070 4.842-1.38 1.217-3.053 1.825-5.018 1.825-2.386 0-4.293-0.772-5.719-2.316-1.428-1.544-2.14-3.555-2.14-6.035 0-2.151 0.397-4.046 1.193-5.684 0.795-1.637 1.883-3.005 3.263-4.105 1.379-1.099 2.983-1.93 4.807-2.491 1.824-0.563 3.742-0.819 5.754-0.773v1.193c-1.403 0.047-2.761 0.235-4.070 0.561-1.31 0.328-2.456 0.842-3.439 1.544-0.982 0.702-1.767 1.603-2.351 2.702-0.585 1.1-0.854 2.445-0.807 4.035z"></path>
</symbol>
<symbol id="ns-shop" viewBox="0 0 32 32">
<path d="M20.985 9.061c-0.783 0-1.417-0.634-1.417-1.417 0-3.19-0.553-4.811-3.57-4.811-3.030 0-3.564 1.552-3.564 4.811 0 0.783-0.634 1.417-1.417 1.417s-1.417-0.633-1.417-1.416c0-2.091 0-7.645 6.397-7.645 6.404 0 6.404 5.554 6.404 7.645 0.001 0.783-0.633 1.416-1.416 1.416z"></path>
<path d="M28.050 10.541c-0.067-0.536-0.542-0.962-1.065-0.962h-21.969c-0.523 0-0.998 0.426-1.071 0.962l-3.927 19.842c-0.116 0.881 0.351 1.617 1.039 1.617h29.887c0.686 0 1.149-0.736 1.040-1.617l-3.934-19.842zM10.398 14.567c-1.034 0-1.866-0.839-1.866-1.874 0-1.028 0.833-1.866 1.866-1.866 1.027 0 1.866 0.839 1.866 1.866 0 1.035-0.839 1.874-1.866 1.874v0zM21.604 14.567c-1.034 0-1.866-0.839-1.866-1.874 0-1.028 0.839-1.866 1.866-1.866s1.867 0.839 1.867 1.866c0 1.035-0.833 1.874-1.867 1.874v0z"></path>
</symbol>
<symbol id="ns-video" viewBox="0 0 32 32">
<path d="M31.507 8.045c-0.171-0.107-0.378-0.171-0.601-0.171-0.186 0-0.362 0.045-0.518 0.124l0.006-0.003-6.352 3.745v-4.436c-0.001-1.894-1.535-3.428-3.429-3.429h-17.136c-1.894 0.001-3.428 1.535-3.429 3.429v17.143c0.001 1.893 1.536 3.428 3.429 3.428h17.137c1.893-0.001 3.428-1.535 3.429-3.428v-4.437l6.352 3.751c0.149 0.076 0.325 0.121 0.511 0.121 0.631 0 1.143-0.512 1.143-1.143 0-0.002 0-0.005-0-0.007v0-13.714c-0.001-0.409-0.216-0.768-0.538-0.97l-0.005-0.003zM12.052 21.472c-3.094 0-5.602-2.508-5.602-5.602v0c0.002-3.089 2.506-5.592 5.595-5.592 0.002 0 0.005 0 0.007 0h-0c3.094 0 5.602 2.5 5.602 5.592-0.001 3.094-2.508 5.601-5.602 5.602h-0zM19.961 10.033c-0.002 0-0.003 0-0.005 0-1.145 0-2.073-0.928-2.073-2.073 0-0.002 0-0.005 0-0.007v0c0-1.148 0.93-2.078 2.078-2.078s2.078 0.93 2.078 2.078v0c0 0.002 0 0.005 0 0.008 0 1.144-0.928 2.072-2.072 2.072-0.002 0-0.004 0-0.006 0h0z"></path>
</symbol>
<symbol id="ns-wedding-1" viewBox="0 0 32 32">
<path d="M9.346 14.181c-0.056 0.020-0.112 0.041-0.169 0.060-1.258 0.425-2.526 0.641-3.768 0.641-0.78 0-1.546-0.086-2.277-0.257-0.125-0.029-0.246-0.066-0.363-0.111v16.563c0 0.245 0.097 0.48 0.27 0.653s0.409 0.27 0.653 0.27h6.188c0.51 0 0.923-0.413 0.923-0.923v-12.582c0-1.58-0.512-3.081-1.457-4.314v0z"></path>
<path d="M28.869 14.625c-0.73 0.171-1.497 0.257-2.277 0.257-1.243 0-2.51-0.216-3.768-0.641-0.055-0.019-0.11-0.039-0.165-0.059-0.916 1.197-1.462 2.693-1.462 4.313v12.581c0 0.51 0.413 0.923 0.923 0.923h6.188c0.51 0 0.923-0.413 0.923-0.923v-16.562c-0.117 0.044-0.238 0.082-0.362 0.111v0z"></path>
<path d="M29.157 11.832c-0.34-3.228-1.856-6.212-4.269-8.402-2.43-2.206-5.578-3.424-8.863-3.43h-0.002c-0.007 0-0.015 0.001-0.023 0.001s-0.016-0.001-0.024-0.001h-0.002c-3.284 0.006-6.431 1.224-8.862 3.43-2.413 2.19-3.929 5.174-4.269 8.402-0.004 0.042-0.005 0.083-0.004 0.124 0.005 0.18 0.063 0.351 0.161 0.494v0c0.012 0.017 0.024 0.033 0.037 0.049 0 0 0.007 0.009 0.011 0.014 0.011 0.014 0.023 0.027 0.035 0.040 0.006 0.006 0.012 0.013 0.018 0.019 0.011 0.011 0.022 0.022 0.034 0.033 0.008 0.007 0.016 0.015 0.024 0.022 0.011 0.009 0.022 0.018 0.034 0.027 0.010 0.008 0.020 0.015 0.030 0.022 0.011 0.008 0.022 0.016 0.033 0.023s0.023 0.015 0.035 0.022c0.011 0.006 0.022 0.013 0.033 0.019 0.013 0.007 0.027 0.014 0.041 0.021 0.010 0.005 0.020 0.010 0.031 0.015 0.016 0.007 0.033 0.013 0.049 0.019 0.009 0.003 0.017 0.007 0.026 0.010 0.026 0.009 0.053 0.016 0.080 0.023 0.373 0.087 0.757 0.147 1.147 0.18 0.234 0.019 0.471 0.029 0.71 0.029 0.089 0 0.178-0.002 0.266-0.005 0.020-0.001 0.041-0.001 0.061-0.002 0.089-0.003 0.179-0.008 0.268-0.013 0.004 0 0.008-0.001 0.008-0.001 0.093-0.006 0.181-0.014 0.27-0.023 0.016-0.002 0.031-0.003 0.047-0.005 0.094-0.010 0.187-0.020 0.281-0.032 0 0 0.004-0.001 0.006-0.001 0.095-0.012 0.19-0.027 0.285-0.042 0.008-0.001 0.016-0.002 0.025-0.004 0.2-0.033 0.4-0.072 0.601-0.118l0.003-0.001c0.102-0.023 0.204-0.048 0.306-0.075v0c0.249-0.065 0.499-0.139 0.749-0.223 1.741-0.589 3.393-1.632 4.778-3.017 0.059-0.059 0.119-0.12 0.178-0.182-1.336-0.762-2.156-2.165-2.156-3.717 0-1.527 1.242-2.769 2.769-2.769 0.709 0 1.356 0.268 1.846 0.707 0.49-0.439 1.138-0.707 1.846-0.707 1.527 0 2.769 1.242 2.769 2.769 0 1.552-0.82 2.955-2.156 3.717 0.059 0.061 0.118 0.122 0.178 0.182 1.385 1.385 3.037 2.428 4.778 3.017 0.251 0.085 0.503 0.159 0.754 0.224 0.101 0.026 0.202 0.051 0.303 0.074l0.009 0.002c0.199 0.045 0.397 0.084 0.594 0.116 0.009 0.002 0.019 0.003 0.028 0.004 0.095 0.015 0.189 0.029 0.283 0.042 0.002 0 0.004 0 0.004 0 0.096 0.013 0.189 0.023 0.282 0.033 0.016 0.002 0.032 0.003 0.049 0.005 0.089 0.009 0.177 0.016 0.266 0.022 0.003 0 0.007 0.001 0.007 0.001 0.093 0.006 0.183 0.010 0.272 0.013 0.020 0.001 0.041 0.001 0.061 0.002 0.089 0.003 0.177 0.005 0.266 0.005 0.080 0 0.159-0.001 0.238-0.003 0.158-0.004 0.316-0.013 0.472-0.026 0.078-0.006 0.156-0.014 0.233-0.023 0.31-0.035 0.615-0.087 0.914-0.157v0c0.027-0.006 0.053-0.014 0.079-0.023 0.009-0.003 0.018-0.006 0.026-0.010 0.017-0.006 0.034-0.012 0.050-0.019 0.010-0.005 0.020-0.010 0.031-0.015 0.014-0.006 0.028-0.013 0.041-0.020 0.011-0.006 0.022-0.012 0.033-0.019s0.024-0.014 0.035-0.022c0.011-0.007 0.022-0.015 0.033-0.023 0.010-0.007 0.020-0.014 0.030-0.022 0.012-0.009 0.022-0.018 0.033-0.028 0.008-0.007 0.017-0.014 0.024-0.022 0.012-0.011 0.023-0.022 0.034-0.033 0.006-0.006 0.013-0.013 0.019-0.020 0.012-0.013 0.024-0.026 0.035-0.039l0.011-0.014c0.013-0.016 0.025-0.032 0.036-0.049l0.001-0.001c0.098-0.143 0.155-0.313 0.161-0.494v0c0.001-0.039 0.001-0.080-0.004-0.121v0z"></path>
<path d="M17.846 4.654c-0.509 0-0.923 0.414-0.923 0.923s-0.413 0.923-0.923 0.923c-0.51 0-0.923-0.413-0.923-0.923s-0.414-0.923-0.923-0.923-0.923 0.414-0.923 0.923c0 0.138 0.013 0.274 0.035 0.407 0.011 0.067 0.025 0.134 0.042 0.2l0.001 0.004c0.025 0.097 0.056 0.192 0.092 0.285 0 0 0.004 0.011 0.006 0.016 0.022 0.055 0.046 0.109 0.072 0.162 0 0 0.006 0.012 0.009 0.018 0.014 0.028 0.029 0.056 0.044 0.084 0 0 0.005 0.008 0.007 0.012 0.027 0.050 0.057 0.098 0.088 0.146 0.008 0.012 0.016 0.024 0.024 0.036 0.026 0.038 0.053 0.075 0.081 0.111 0.010 0.013 0.020 0.027 0.031 0.040 0.017 0.021 0.034 0.042 0.052 0.063 0.013 0.015 0.026 0.029 0.039 0.043 0.028 0.031 0.056 0.061 0.085 0.090 0.014 0.014 0.028 0.028 0.043 0.042 0.018 0.018 0.037 0.036 0.056 0.054 0.16 0.143 0.341 0.267 0.54 0.367l1.422 0.711 1.422-0.711c0.199-0.1 0.38-0.224 0.54-0.367 0.019-0.018 0.038-0.036 0.057-0.054 0.014-0.014 0.028-0.027 0.042-0.041 0.030-0.030 0.058-0.060 0.086-0.090 0.013-0.014 0.026-0.029 0.038-0.043 0.018-0.021 0.035-0.042 0.052-0.063 0.011-0.013 0.020-0.026 0.031-0.040 0.028-0.037 0.055-0.074 0.081-0.112 0.008-0.012 0.016-0.024 0.024-0.036 0.031-0.047 0.060-0.096 0.088-0.145 0 0 0.005-0.008 0.007-0.012 0.015-0.028 0.030-0.056 0.044-0.084l0.009-0.018c0.026-0.053 0.050-0.108 0.072-0.163l0.007-0.018c0.036-0.092 0.067-0.188 0.092-0.285l0.001-0.004c0.050-0.195 0.077-0.398 0.077-0.606-0.001-0.508-0.415-0.922-0.924-0.922v0z"></path>
</symbol>
<symbol id="ns-wedding-2" viewBox="0 0 32 32">
<path d="M25.36 3.177v-3.177h-1.959v3.177h-2.25v-3.177h-1.959v3.177h-2.25v-3.177h-1.959v3.177h-2.25v-3.177h-1.959v3.177h-2.25v-3.177h-1.961v3.177h-4.227v23.95c0 2.687 2.185 4.873 4.872 4.873h17.583c2.687 0 4.873-2.186 4.873-4.873v-23.95h-4.304zM27.705 9.861h-23.411v-4.725h2.269v1.7h1.959v-1.7h2.25v1.7h1.959v-1.7h2.25v1.7h1.959v-1.7h2.25v1.7h1.959v-1.7h2.25v1.7h1.959v-1.7h2.345v4.725zM20.875 21.595l-4.111 4.111c-0.219 0.219-0.506 0.329-0.793 0.329s-0.574-0.11-0.793-0.329l-4.096-4.095c-0.596-0.558-0.929-1.429-0.914-2.395 0.015-0.94 0.352-1.769 0.927-2.283 0.615-0.602 1.427-0.933 2.289-0.933 0.876 0 1.699 0.341 2.318 0.96l0.269 0.269 0.269-0.269c1.278-1.278 3.357-1.278 4.635 0 1.277 1.278 1.277 3.357 0 4.635v0z"></path>
</symbol>
<symbol id="ns-wedding-3" viewBox="0 0 32 32">
<path d="M25.602 10.718c-1.148 0-2.078 0.93-2.078 2.078 0 1.158 0.93 2.080 2.078 2.080s2.078-0.922 2.078-2.080c0-1.148-0.93-2.078-2.078-2.078z"></path>
<path d="M27.204 6.398h-2.54l-1.602-1.602c-0.93-0.92-2.554-1.592-3.858-1.592h-6.408c-1.304 0-2.928 0.672-3.858 1.592l-1.602 1.602h-2.54c-2.64 0-4.796 2.156-4.796 4.806v12.796c0 2.648 2.156 4.796 4.796 4.796h22.408c2.64 0 4.796-2.148 4.796-4.796v-12.796c0-2.65-2.156-4.806-4.796-4.806zM20.875 17.613l-4.111 4.11c-0.219 0.219-0.506 0.329-0.793 0.329s-0.575-0.11-0.793-0.329l-4.095-4.095c-0.596-0.558-0.929-1.429-0.914-2.395 0.014-0.94 0.352-1.769 0.927-2.283 0.616-0.602 1.427-0.932 2.289-0.932 0.876 0 1.699 0.341 2.318 0.96l0.269 0.269 0.269-0.269c1.278-1.278 3.357-1.278 4.635 0 1.276 1.277 1.276 3.356-0.001 4.635zM25.602 14.876c-1.148 0-2.078-0.922-2.078-2.080 0-1.148 0.93-2.078 2.078-2.078s2.078 0.93 2.078 2.078c0 1.158-0.93 2.080-2.078 2.080z"></path>
</symbol>
<symbol id="ns-wedding-4" viewBox="0 0 32 32">
<path d="M0 18.812v1.875h2.296l1.875 3.75h8.654l-1.25 3.75h-2.137v1.875h13.125v-1.875h-2.137l-1.25-3.75h8.654l1.875-3.75h2.295v-1.875h-32z"></path>
<path d="M18.549 5.922c0.165-0.358 0.264-0.752 0.264-1.172 0-1.551-1.262-2.812-2.812-2.812s-2.812 1.262-2.812 2.812c0 0.419 0.099 0.814 0.264 1.172-5.628 1.034-10.093 5.426-11.232 11.016h27.558c-1.139-5.59-5.604-9.982-11.23-11.016v0zM15.062 4.75c0-0.517 0.42-0.938 0.938-0.938 0.517 0 0.938 0.42 0.938 0.938s-0.42 0.938-0.938 0.938c-0.517 0-0.938-0.421-0.938-0.938v0z"></path>
</symbol>
<symbol id="ns-wedding-5" viewBox="0 0 32 32">
<path d="M18.068 24.411l13.882-6.201-1.295-1.529c-1.788-2.067-4.68-2.736-7.173-1.71-2.372-1.041-5.107-1.042-7.483-0.003-2.376-1.040-5.111-1.039-7.483 0.003-2.495-1.028-5.386-0.356-7.173 1.71l-1.293 1.529 13.701 6.12 4.317 0.081z"></path>
<path d="M9.55 11.327c0.089 0.442 0.26 0.852 0.468 1.244 1.098-0.221 2.221-0.262 3.337-0.154-0.809-0.67-1.833-1.090-2.963-1.090h-0.842z"></path>
<path d="M8.080 12.889c-0.319-0.777-0.491-1.621-0.491-2.497v-0.934h2.804c2.388 0 4.46 1.3 5.602 3.216 1.147-1.932 3.237-3.216 5.613-3.216h2.804v0.934c0 0.875-0.174 1.719-0.495 2.497 2.080-0.511 4.282-0.153 6.102 0.899-0.070-1.113-0.475-2.197-1.211-3.090 0.424-2.538-1.022-5.041-3.432-5.943-0.437-1.172-1.26-2.148-2.358-2.781-1.097-0.635-2.352-0.858-3.588-0.652-2.062-1.698-4.8-1.698-6.861 0-1.232-0.206-2.49 0.017-3.588 0.652-1.097 0.633-1.92 1.609-2.357 2.781-2.409 0.903-3.855 3.405-3.432 5.943-0.737 0.893-1.141 1.978-1.211 3.091 1.82-1.050 4.021-1.408 6.099-0.9v0z"></path>
<path d="M18.62 12.419c1.124-0.111 2.255-0.071 3.361 0.152 0.208-0.392 0.379-0.803 0.468-1.244h-0.841c-1.133 0-2.173 0.413-2.988 1.092v0z"></path>
<path d="M18.804 26.28h-5.608v2.867c0 0.633 0.219 1.212 0.575 1.682v0l0.001 0.001c0.121 0.16 0.259 0.304 0.412 0.435 0.019 0.017 0.039 0.032 0.059 0.049 0.133 0.108 0.275 0.203 0.426 0.286 0.039 0.021 0.077 0.043 0.117 0.063 0.142 0.069 0.29 0.123 0.444 0.167 0.050 0.014 0.096 0.034 0.147 0.045 0.201 0.045 0.408 0.075 0.623 0.075s0.422-0.030 0.624-0.076c0.050-0.012 0.097-0.031 0.147-0.045 0.154-0.044 0.302-0.098 0.444-0.167 0.040-0.020 0.078-0.042 0.117-0.063 0.152-0.083 0.294-0.178 0.426-0.286 0.020-0.017 0.040-0.032 0.059-0.049 0.152-0.131 0.29-0.275 0.411-0.435l0.001-0.001c0.355-0.47 0.575-1.048 0.575-1.682v-2.866z"></path>
</symbol>
<symbol id="ns-wedding-6" viewBox="0 0 32 32">
<path d="M24.605 3.967h-4.26v-2.704c0.011-0.129 0-0.263-0.037-0.395-0.168-0.597-0.788-0.944-1.385-0.776l-11.856 3.902c-0.958 0.158-1.692 0.991-1.692 1.993v23.943c0 1.114 0.906 2.020 2.020 2.020h17.209c1.114 0 2.020-0.906 2.020-2.020v-23.943c0.001-1.114-0.905-2.020-2.019-2.020v0zM19.496 26.389h-6.88c-0.62 0-1.122-0.503-1.122-1.122 0-0.62 0.503-1.122 1.122-1.122h6.88c0.62 0 1.122 0.503 1.122 1.122 0 0.62-0.502 1.122-1.122 1.122v0zM19.496 23.247h-6.88c-0.62 0-1.122-0.502-1.122-1.122s0.503-1.122 1.122-1.122h6.88c0.62 0 1.122 0.502 1.122 1.122s-0.502 1.122-1.122 1.122v0zM20.96 14.346l-4.111 4.11c-0.219 0.219-0.506 0.329-0.794 0.329s-0.574-0.109-0.793-0.329l-4.096-4.096c-0.596-0.558-0.929-1.429-0.914-2.395 0.015-0.94 0.352-1.769 0.927-2.283 0.616-0.601 1.427-0.932 2.289-0.932 0.876 0 1.698 0.341 2.318 0.96l0.269 0.269 0.269-0.269c1.278-1.278 3.357-1.278 4.635 0 1.279 1.279 1.279 3.358 0.001 4.636v0z"></path>
</symbol>
<symbol id="ns-wedding-7" viewBox="0 0 32 32">
<path d="M11.587 5.15c0.356 0.473 0.552 1.061 0.552 1.655v0.92h1.724c0.651 0 1.304-0.065 1.942-0.193l1.3-0.259v-0.652h1.256l1.502 0.901v-0.718c0-0.593 0.196-1.181 0.552-1.655l0.552-0.735c0.356-0.474 0.552-1.062 0.552-1.655s-0.196-1.181-0.552-1.655l-0.088-0.119c-0.463-0.617-1.201-0.985-1.972-0.985-0.659 0-1.278 0.256-1.743 0.722l-1.162 1.161-1.162-1.161c-0.466-0.466-1.085-0.722-1.744-0.722-0.771 0-1.509 0.368-1.973 0.987l-0.087 0.116c-0.357 0.475-0.553 1.062-0.553 1.656s0.196 1.181 0.552 1.655l0.552 0.736z"></path>
<path d="M19.413 12.769l0.695-2.783-0.691 0.414-1.315 2.63 1.311-0.261z"></path>
<path d="M23.392 13.003l-1.006-2.681-0.561-0.337 0.7 2.8 0.867 0.218z"></path>
<path d="M18.208 7.816v2.024l1.687-1.012-1.687-1.012z"></path>
<path d="M23.725 7.816l-1.687 1.012 1.687 1.012v-2.024z"></path>
<path d="M10.221 23.724h0.451c1.092 0 2.12 0.425 2.893 1.198 0.65 0.651 1.516 1.009 2.435 1.009 0.92 0 1.785-0.358 2.435-1.009 0.772-0.772 1.8-1.198 2.892-1.198h0.451c0.77-1.040 1.984-1.655 3.287-1.655h0.898c-0.586-1.298-1.247-2.563-1.97-3.796-0.817 0.162-1.546 0.635-2.018 1.343l-0.164 0.246h-0.484c-1.154 0-2.239 0.449-3.054 1.265-0.599 0.599-1.428 0.942-2.274 0.942s-1.675-0.343-2.274-0.942c-0.816-0.816-1.901-1.265-3.054-1.265h-0.484l-0.164-0.246c-0.472-0.708-1.201-1.182-2.019-1.343-0.724 1.233-1.384 2.498-1.97 3.796h0.898c1.306 0 2.519 0.616 3.289 1.655v0z"></path>
<path d="M28.496 29.566c-0.506-2.193-1.198-4.327-2.057-6.393h-1.371c-1.001 0-1.93 0.497-2.486 1.33l-0.217 0.325h-1.036c-0.798 0-1.549 0.31-2.113 0.875-0.859 0.859-2.001 1.332-3.215 1.332-1.215 0-2.356-0.473-3.216-1.332-0.564-0.564-1.315-0.875-2.113-0.875h-1.036l-0.216-0.325c-0.556-0.833-1.484-1.33-2.486-1.33h-1.371c-0.86 2.066-1.551 4.201-2.057 6.393l-0.099 0.428c1.445 0.502 6.301 2.006 12.593 2.006s11.147-1.504 12.594-2.007l-0.098-0.427z"></path>
<path d="M11.816 11.035l-0.178 0.178c-0.3 0.3-0.587 0.61-0.866 0.926h0.593c2.037 0 4.033-0.67 5.667-1.882-1.286 0.508-2.668 0.778-4.050 0.778h-1.166z"></path>
<path d="M17.104 8.397l-1.083 0.217c-0.708 0.142-1.435 0.214-2.158 0.214h-1.724v1.104h0.843c1.416 0 2.834-0.314 4.122-0.904v-0.631z"></path>
<path d="M10.767 18.759c1.413 0.024 2.738 0.586 3.74 1.588 0.394 0.393 0.937 0.618 1.494 0.618 0.556 0 1.1-0.225 1.493-0.618 1.002-1.002 2.327-1.564 3.74-1.588 0.789-1.020 1.994-1.629 3.291-1.655-0.523-1.099-1.144-2.151-1.846-3.142l-1.064-0.266-0.649-2.594-0.653 2.613-4.207 0.841 1.76-3.521h-0.031c-1.849 1.421-4.137 2.207-6.471 2.207h-1.513c-0.926 1.197-1.721 2.488-2.375 3.863 1.298 0.025 2.503 0.634 3.291 1.654v0z"></path>
</symbol>
<symbol id="ns-wedding-8" viewBox="0 0 32 32">
<path d="M19.332 1.793c0.016 0.039 0.022 0.072 0.033 0.105 0.006 0.011 0.006 0.022 0.011 0.033l1.732 3.034h5.218l1.732-3.034c0.011-0.011 0.011-0.022 0.017-0.033 0.011-0.033 0.016-0.066 0.033-0.105 0.006-0.033 0.011-0.066 0.016-0.105 0-0.011 0.006-0.022 0.006-0.033-0.003-0.035-0.008-0.071-0.017-0.105v-0.050c-0.259-1.45-3.96-1.5-4.396-1.5-0.431 0-4.137 0.050-4.391 1.5v0.050c-0.010 0.034-0.017 0.069-0.022 0.105 0 0.011 0.011 0.022 0.011 0.033 0.006 0.039 0.011 0.072 0.017 0.105v0z"></path>
<path d="M21.511 6.068h4.413v1.103h-4.413v-1.103z"></path>
<path d="M19.679 6.62c0.124-0.392 0.183-0.802 0.177-1.214 0-1.545-1.672-2.924-1.865-3.078-0.011-0.011-0.022-0.011-0.044-0.022-0.028-0.022-0.060-0.039-0.094-0.050-0.031-0.016-0.065-0.027-0.099-0.033-0.035-0.004-0.070-0.006-0.105-0.005-0.035-0.001-0.070 0.001-0.105 0.005-0.035 0.006-0.068 0.017-0.099 0.033-0.032 0.012-0.061 0.029-0.088 0.050-0.022 0.011-0.033 0.011-0.044 0.022-0.193 0.155-1.87 1.533-1.87 3.078-0.008 0.412 0.053 0.822 0.182 1.214h4.054z"></path>
<path d="M31.992 10.486c-0.001-0.44-0.176-0.861-0.488-1.171-0.311-0.31-0.733-0.484-1.173-0.483h-0.006c-0.433-0.001-0.849 0.172-1.153 0.48l-2.918 2.841c-0.105-0.006-0.215-0.017-0.331-0.017v-3.861h-4.413v3.861h-2.207v-2.207h-3.31v2.207h-1.653v-5.516h-3.31v5.516h-1.103v-3.31c-0.002-0.609-0.495-1.101-1.104-1.103v-1.103h-3.861v1.103c-0.608 0.004-1.1 0.495-1.103 1.103v3.437c-2.257 0.518-3.854 2.528-3.85 4.843l0.011 14.877 30.852 0.017 0.011-14.894c0.008-1.301-0.502-2.551-1.417-3.475l2.041-1.975c0.31-0.31 0.485-0.731 0.485-1.17v0zM30.734 10.867l-2.129 2.063c-0.326-0.213-0.676-0.385-1.043-0.513l2.383-2.322c0.102-0.103 0.241-0.161 0.386-0.16 0.15-0.007 0.297 0.053 0.397 0.165 0.212 0.212 0.214 0.553 0.006 0.767v0zM20.317 22.576l-4.111 4.11c-0.219 0.219-0.506 0.329-0.794 0.329s-0.574-0.11-0.793-0.329l-4.096-4.096c-0.596-0.558-0.929-1.429-0.914-2.395 0.014-0.94 0.352-1.769 0.927-2.283 0.616-0.601 1.427-0.932 2.289-0.932 0.876 0 1.698 0.341 2.318 0.96l0.269 0.269 0.269-0.269c1.278-1.278 3.357-1.278 4.635 0 1.278 1.279 1.278 3.358 0.001 4.636v0z"></path>
<path d="M9.377 1.103c-0.001-0.608-0.494-1.101-1.103-1.103h-2.758c-0.608 0.002-1.101 0.495-1.103 1.103v4.413h4.965v-4.413z"></path>
<path d="M15.997 7.723h3.31v1.103h-3.31v-1.103z"></path>
<path d="M13.757 3.045c-0.122-0.497-0.571-0.845-1.084-0.838s-0.952 0.366-1.062 0.866l-0.48 2.444h3.111l-0.485-2.472z"></path>
</symbol>
<symbol id="pencil" viewBox="0 0 32 32">
<path d="M23.4 0.6c-0.8-0.8-2-0.8-2.8 0l-20 20c-0.4 0.4-0.6 0.8-0.6 1.4v8c0 1.2 0.8 2 2 2h8c0.6 0 1-0.2 1.4-0.6l20-20c0.8-0.8 0.8-2 0-2.8l-8-8zM9.2 28h-5.2v-5.2l12-12 5.2 5.2-12 12zM24 13.2l-5.2-5.2 3.2-3.2 5.2 5.2-3.2 3.2z"></path>
</symbol>
<symbol id="phone-2" viewBox="0 0 32 32">
<path d="M30.57 24.61l-5.156-5.188c-0.78-0.786-2.050-0.786-2.832-0.004l-4.582 4.582-10-10 4.588-4.588c0.78-0.78 0.782-2.046 0.002-2.828l-5.16-5.168c-0.782-0.782-2.048-0.782-2.83 0l-4.592 4.59-0.008-0.006c0 14.36 11.64 26 26 26l4.566-4.566c0.78-0.78 0.782-2.042 0.004-2.824z"></path>
</symbol>
<symbol id="phone-call" viewBox="0 0 32 32">
<path d="M30.57 24.61l-5.156-5.188c-0.78-0.786-2.050-0.786-2.832-0.004l-4.582 4.582-10-10 4.588-4.588c0.78-0.78 0.782-2.046 0.002-2.828l-5.16-5.168c-0.782-0.782-2.048-0.782-2.83 0l-4.592 4.59-0.008-0.006c0 14.36 11.64 26 26 26l4.566-4.566c0.78-0.78 0.782-2.042 0.004-2.824z"></path>
<path d="M32 16h-4c0-6.618-5.382-12-12-12v-4c8.822 0 16 7.178 16 16z"></path>
<path d="M24 16h-4c0-2.206-1.794-4-4-4v-4c4.412 0 8 3.588 8 8z"></path>
</symbol>
<symbol id="pin-3" viewBox="0 0 32 32">
<path d="M16 0c-5.867 0-12 4.533-12 12 0 7.067 10.667 17.867 11.067 18.267 0.267 0.267 0.533 0.4 0.933 0.4s0.667-0.133 0.933-0.4c0.4-0.4 11.067-11.2 11.067-18.267 0-7.467-6.133-12-12-12zM16 16c-2.267 0-4-1.733-4-4s1.733-4 4-4 4 1.733 4 4-1.733 4-4 4z"></path>
</symbol>
<symbol id="print" viewBox="0 0 32 32">
<path d="M6 0h20v6h-20v-6z"></path>
<path d="M30 10h-28c-1.2 0-2 0.8-2 2v12c0 1.2 0.8 2 2 2h4v4c0 1.2 0.8 2 2 2h16c1.2 0 2-0.8 2-2v-4h4c1.2 0 2-0.8 2-2v-12c0-1.2-0.8-2-2-2zM22 28h-12v-10h12v10z"></path>
</symbol>
<symbol id="quote" viewBox="0 0 32 32">
<path d="M6.047 9.121c-2.37 2.963-2.712 5.949-2.016 8.038 2.632-2.090 6.289-1.652 8.517 0.428 2.25 2.102 2.443 5.796 1.008 8.189-1.208 2.013-3.328 3.225-5.694 3.225-5.385 0-7.861-4.75-7.861-10.079 0-3.46 0.882-6.56 2.646-9.298s4.426-4.947 7.987-6.627l0.957 1.865c-2.15 0.907-3.998 2.326-5.543 4.258zM23.584 9.121c-2.37 2.963-2.712 5.949-2.016 8.038 1.176-0.907 2.453-1.361 3.83-1.361 3.623 0 6.602 2.413 6.602 6.602 0 3.851-2.956 6.602-6.602 6.602-5.385 0-7.861-4.75-7.861-10.079 0-3.46 0.882-6.56 2.646-9.298s4.426-4.947 7.987-6.627l0.957 1.865c-2.15 0.907-3.998 2.327-5.543 4.258z"></path>
</symbol>
<symbol id="refresh-01" viewBox="0 0 32 32">
<path d="M30.188 14.062l-1.078-12.422-3.86 3.86c-2.544-2.236-5.83-3.5-9.25-3.5-7.72 0-14 6.28-14 14s6.28 14 14 14c4.982 0 9.628-2.682 12.126-6.998l-3.462-2.002c-1.786 3.084-5.106 5-8.664 5-5.514 0-10-4.486-10-10s4.486-10 10-10c2.358 0 4.622 0.846 6.41 2.34l-4.644 4.644 12.422 1.078z"></path>
</symbol>
<symbol id="refresh-02" viewBox="0 0 32 32">
<path d="M16 6c2.358 0 4.622 0.846 6.41 2.34l-4.644 4.644 12.422 1.078-1.078-12.422-3.86 3.86c-2.544-2.236-5.83-3.5-9.25-3.5-6.866 0-12.672 4.908-13.806 11.668l3.946 0.662c0.808-4.826 4.956-8.33 9.86-8.33z"></path>
<path d="M16 26c-2.358 0-4.622-0.846-6.41-2.34l4.644-4.644-12.422-1.078 1.078 12.422 3.86-3.86c2.544 2.236 5.83 3.5 9.25 3.5 6.866 0 12.672-4.908 13.806-11.668l-3.946-0.662c-0.808 4.826-4.956 8.33-9.86 8.33z"></path>
</symbol>
<symbol id="refresh-19" viewBox="0 0 32 32">
<path d="M15.4 2.4l1.4 12.8 4.2-4.2c3.8 3.8 3.8 10.2 0 14-1.8 2-4.4 3-7 3s-5.2-1-7-3c-3.8-3.8-3.8-10.2 0-14 1.2-1.2 2.8-2.2 4.6-2.6l-1.2-3.8c-2.4 0.6-4.6 1.8-6.4 3.6-5.4 5.4-5.4 14.2 0 19.8 2.6 2.6 6.2 4 9.8 4 3.8 0 7.2-1.4 9.8-4 5.4-5.4 5.4-14.2 0-19.8l4.4-4.4-12.6-1.4z"></path>
</symbol>
<symbol id="replay" viewBox="0 0 32 32">
<path d="M30 6h-4v4h2v12h-12v-4l-8 6 8 6v-4h14c1.2 0 2-0.8 2-2v-16c0-1.2-0.8-2-2-2z"></path>
<path d="M4 10h12v4l8-6-8-6v4h-14c-1.2 0-2 0.8-2 2v16c0 1.2 0.8 2 2 2h4v-4h-2v-12z"></path>
</symbol>
<symbol id="round-e-info" viewBox="0 0 32 32">
<path d="M16 0c-8.8 0-16 7.2-16 16s7.2 16 16 16 16-7.2 16-16-7.2-16-16-16zM16 28c-6.6 0-12-5.4-12-12s5.4-12 12-12 12 5.4 12 12-5.4 12-12 12z"></path>
<path d="M14 14h4v10h-4v-10z"></path>
<path d="M18 10c0 1.105-0.895 2-2 2s-2-0.895-2-2c0-1.105 0.895-2 2-2s2 0.895 2 2z"></path>
</symbol>
<symbol id="search-1" viewBox="0 0 32 32">
<path d="M14.212 24.050c-5.566 0-10.136-4.372-10.136-9.938s4.572-10.136 10.136-10.136 10.136 4.572 10.136 10.136-4.572 9.938-10.136 9.938zM25.342 22.46c1.736-2.262 2.782-5.133 2.782-8.248 0-0.035-0-0.070-0-0.105l0 0.005c0-7.752-6.162-14.112-13.912-14.112-7.752 0-14.112 6.36-14.112 14.112s6.36 14.112 14.112 14.112c3.18 0 6.162-0.994 8.348-2.782l5.962 5.962c0.398 0.398 0.994 0.596 1.39 0.596 0.398 0 0.994-0.198 1.392-0.596 0.368-0.35 0.597-0.844 0.597-1.391s-0.229-1.041-0.596-1.39l-0.001-0.001-5.962-6.162z"></path>
</symbol>
<symbol id="search-2" viewBox="0 0 32 32">
<path d="M1.333 13.333h9.333c0.736 0 1.333-0.597 1.333-1.333v0c0-0.736-0.597-1.333-1.333-1.333h-9.333c-0.737 0-1.333 0.597-1.333 1.333s0.596 1.333 1.333 1.333z"></path>
<path d="M1.333 21.333h9.333c0.736 0 1.333-0.597 1.333-1.333v0c0-0.736-0.597-1.333-1.333-1.333h-9.333c-0.737 0-1.333 0.597-1.333 1.333s0.596 1.333 1.333 1.333z"></path>
<path d="M21.333 26.667h-20c-0.737 0-1.333 0.597-1.333 1.333s0.596 1.333 1.333 1.333h20c0.737 0 1.333-0.597 1.333-1.333s-0.596-1.333-1.333-1.333z"></path>
<path d="M1.333 5.333h20c0.737 0 1.333-0.597 1.333-1.333s-0.596-1.333-1.333-1.333h-20c-0.737 0-1.333 0.597-1.333 1.333s0.596 1.333 1.333 1.333z"></path>
<path d="M31.609 24.391l-4.72-4.72c0.699-1.055 1.111-2.315 1.111-3.671 0-3.676-2.991-6.667-6.667-6.667s-6.667 2.991-6.667 6.667 2.991 6.667 6.667 6.667c1.356 0 2.616-0.412 3.671-1.111l4.72 4.72c0.26 0.26 0.601 0.391 0.943 0.391s0.683-0.131 0.943-0.391c0.521-0.521 0.521-1.364 0-1.885zM21.333 20c-2.209 0-4-1.791-4-4s1.791-4 4-4 4 1.791 4 4-1.791 4-4 4z"></path>
</symbol>
<symbol id="select-83" viewBox="0 0 32 32">
<path d="M4 12h24l-12-12z"></path>
<path d="M16 32l12-12h-24z"></path>
</symbol>
<symbol id="select-84" viewBox="0 0 32 32">
<path d="M14.8 2.4l-10 8 2.4 3.2 8.8-7 8.8 7 2.4-3.2-10-8c-0.6-0.6-1.8-0.6-2.4 0z"></path>
<path d="M16 25.4l-8.8-7-2.4 3.2 10 8c0.4 0.2 0.8 0.4 1.2 0.4s0.8-0.2 1.2-0.4l10-8-2.4-3.2-8.8 7z"></path>
</symbol>
<symbol id="send" viewBox="0 0 32 32">
<path d="M7.2 19.2v9.8c0 1.4 1.6 2 2.6 1l4.6-5.4 9.4 7c0.8 0.6 2 0.2 2.2-0.8l6-29c0.2-1.2-0.8-2-2-1.6l-29 11.6c-1 0.4-1.2 1.8-0.4 2.6l3.2 2.4 9.2-4.4c0.8-0.4 1.4 0.6 0.8 1l-6.6 5.8z"></path>
</symbol>
<symbol id="settings-gear-64-2" viewBox="0 0 32 32">
<path d="M26.6 10.4l2.2-4.2-2.8-2.8-4.2 2.2c-0.6-0.4-1.4-0.6-2.2-0.8l-1.6-4.8h-4l-1.6 4.6c-0.6 0.2-1.4 0.4-2 0.8l-4.2-2.2-3 3 2.2 4.2c-0.4 0.6-0.6 1.4-0.8 2l-4.6 1.6v4l4.6 1.6c0.2 0.8 0.6 1.4 0.8 2.2l-2.2 4.2 2.8 2.8 4.2-2.2c0.6 0.4 1.4 0.6 2.2 0.8l1.6 4.6h4l1.6-4.6c0.8-0.2 1.4-0.6 2.2-0.8l4.2 2.2 2.8-2.8-2.2-4.2c0.4-0.6 0.6-1.4 0.8-2.2l4.6-1.6v-4l-4.6-1.6c-0.2-0.6-0.4-1.4-0.8-2zM16 22c-3.4 0-6-2.6-6-6s2.6-6 6-6 6 2.6 6 6-2.6 6-6 6z"></path>
</symbol>
<symbol id="settings-gear-64" viewBox="0 0 32 32">
<path d="M26.6 10.4l2.2-4.2-2.8-2.8-4.2 2.2c-0.6-0.4-1.4-0.6-2.2-0.8l-1.6-4.8h-4l-1.6 4.6c-0.6 0.2-1.4 0.4-2 0.8l-4.2-2.2-3 3 2.2 4.2c-0.4 0.6-0.6 1.4-0.8 2l-4.6 1.6v4l4.6 1.6c0.2 0.8 0.6 1.4 0.8 2.2l-2.2 4.2 2.8 2.8 4.2-2.2c0.6 0.4 1.4 0.6 2.2 0.8l1.6 4.6h4l1.6-4.6c0.8-0.2 1.4-0.6 2.2-0.8l4.2 2.2 2.8-2.8-2.2-4.2c0.4-0.6 0.6-1.4 0.8-2.2l4.6-1.6v-4l-4.6-1.6c-0.2-0.6-0.4-1.4-0.8-2zM16 22c-3.4 0-6-2.6-6-6s2.6-6 6-6 6 2.6 6 6-2.6 6-6 6z"></path>
</symbol>
<symbol id="shape-star" viewBox="0 0 32 32">
<path d="M30.288 10.878l-8.634-1.256-3.854-7.822c-0.367-0.624-1.036-1.036-1.8-1.036s-1.433 0.412-1.795 1.026l-0.005 0.010-3.854 7.824-8.634 1.254c-0.976 0.144-1.716 0.975-1.716 1.98 0 0.561 0.231 1.069 0.604 1.432l0 0 6.246 6.090-1.474 8.6c-0.018 0.102-0.029 0.218-0.029 0.338 0 1.105 0.895 2 2 2 0.34 0 0.661-0.085 0.941-0.235l-0.011 0.005 7.726-4.062 7.722 4.058c0.27 0.145 0.59 0.23 0.931 0.23 1.105 0 2-0.895 2-2 0-0.119-0.010-0.236-0.030-0.35l0.002 0.012-1.474-8.6 6.25-6.086c0.372-0.364 0.603-0.87 0.603-1.431 0-1.003-0.738-1.833-1.7-1.978l-0.011-0.001z"></path>
</symbol>
<symbol id="share-2" viewBox="0 0 32 32">
<path d="M24 12c3.308 0 6-2.692 6-6s-2.692-6-6-6-6 2.692-6 6c0 0.446 0.058 0.878 0.15 1.298l-6.44 4.024c-1.024-0.814-2.302-1.322-3.71-1.322-3.308 0-6 2.692-6 6s2.692 6 6 6c1.408 0 2.686-0.508 3.71-1.322l6.44 4.024c-0.092 0.42-0.15 0.852-0.15 1.298 0 3.308 2.692 6 6 6s6-2.692 6-6-2.692-6-6-6c-1.408 0-2.686 0.508-3.71 1.322l-6.44-4.024c0.092-0.42 0.15-0.852 0.15-1.298s-0.058-0.878-0.15-1.298l6.44-4.024c1.024 0.814 2.302 1.322 3.71 1.322z"></path>
</symbol>
<symbol id="share-26" viewBox="0 0 32 32">
<path d="M30 0h-14v4h9.2l-12.6 12.6 2.8 2.8 12.6-12.6v9.2h4v-14c0-1.2-0.8-2-2-2z"></path>
<path d="M28 32h-26c-1.2 0-2-0.8-2-2v-26c0-1.2 0.8-2 2-2h8v4h-6v22h22v-6h4v8c0 1.2-0.8 2-2 2z"></path>
</symbol>
<symbol id="share-91" viewBox="0 0 32 32">
<path d="M30 32h-28c-1.2 0-2-0.8-2-2v-24c0-1.2 0.8-2 2-2h6v4h-4v20h24v-10h4v12c0 1.2-0.8 2-2 2z"></path>
<path d="M20 6c-6.4 0-12 5-12 14 2.2-3.4 4.8-6 12-6v6l12-10-12-10v6z"></path>
</symbol>
<symbol id="share-92" viewBox="0 0 32 32">
<path d="M30 32h-28c-1.2 0-2-0.8-2-2v-12h4v10h24v-20h-4v-4h6c1.2 0 2 0.8 2 2v24c0 1.2-0.8 2-2 2z"></path>
<path d="M12 6c6.4 0 12 5 12 14-2.2-3.4-4.8-6-12-6v6l-12-10 12-10v6z"></path>
</symbol>
<symbol id="shuffle-98" viewBox="0 0 32 32">
<path d="M24 22c-2.986 0-4.024-1.066-5.684-2.962l-2.658 3.038c2.166 2.474 4.492 3.924 8.342 3.924v4l8-6-8-6v4z"></path>
<path d="M7.684 12.962l2.658-3.038c-2.1-2.4-4.544-3.924-7.972-3.924h-2.37v4h2.37c2.562 0 3.804 1.238 5.314 2.962z"></path>
<path d="M24 6c-3.434 0-6.036 1.29-7.896 3.416l-9.22 10.534c-1.138 1.302-2.784 2.050-4.514 2.050h-2.37v4h2.37c2.882 0 5.626-1.246 7.528-3.416l9.218-10.536c1.322-1.512 2.958-2.048 4.884-2.048v4l8-6-8-6v4z"></path>
</symbol>
<symbol id="simple-add" viewBox="0 0 32 32">
<path d="M30 14h-12v-12c0-1.2-0.8-2-2-2s-2 0.8-2 2v12h-12c-1.2 0-2 0.8-2 2s0.8 2 2 2h12v12c0 1.2 0.8 2 2 2s2-0.8 2-2v-12h12c1.2 0 2-0.8 2-2s-0.8-2-2-2z"></path>
</symbol>
<symbol id="simple-remove" viewBox="0 0 32 32">
<path d="M29.4 2.6c-0.8-0.8-2-0.8-2.8 0l-10.6 10.6-10.6-10.6c-0.8-0.8-2-0.8-2.8 0s-0.8 2 0 2.8l10.6 10.6-10.6 10.6c-0.8 0.8-0.8 2 0 2.8 0.4 0.4 0.8 0.6 1.4 0.6s1-0.2 1.4-0.6l10.6-10.6 10.6 10.6c0.4 0.4 1 0.6 1.4 0.6s1-0.2 1.4-0.6c0.8-0.8 0.8-2 0-2.8l-10.6-10.6 10.6-10.6c0.8-0.8 0.8-2 0-2.8z"></path>
</symbol>
<symbol id="single-01" viewBox="0 0 32 32">
<path d="M24 8c0 4.418-3.582 8-8 8s-8-3.582-8-8c0-4.418 3.582-8 8-8s8 3.582 8 8z"></path>
<path d="M32 26.4c0-0.005 0-0.011 0-0.017 0-1.598-0.942-2.976-2.302-3.609l-0.025-0.010c-3.915-1.748-8.483-2.766-13.29-2.766-0.135 0-0.27 0.001-0.405 0.002l0.021-0c-0.114-0.001-0.249-0.002-0.384-0.002-4.806 0-9.375 1.018-13.502 2.85l0.212-0.084c-1.384 0.643-2.326 2.021-2.326 3.619 0 0.006 0 0.012 0 0.018v-0.001 5.6h32z"></path>
</symbol>
<symbol id="single-copy-04" viewBox="0 0 32 32">
<path d="M20 8h-16c-1.2 0-2 0.8-2 2v20c0 1.2 0.8 2 2 2h16c1.2 0 2-0.8 2-2v-20c0-1.2-0.8-2-2-2z"></path>
<path d="M28 0h-20v4h18v22h4v-24c0-1.2-0.8-2-2-2z"></path>
</symbol>
<symbol id="slider" viewBox="0 0 32 32">
<path d="M30 20h-28c-1.104 0-2-0.896-2-2v-16c0-1.104 0.896-2 2-2h28c1.104 0 2 0.896 2 2v16c0 1.104-0.896 2-2 2z"></path>
<path d="M20 28c0 2.209-1.791 4-4 4s-4-1.791-4-4c0-2.209 1.791-4 4-4s4 1.791 4 4z"></path>
<path d="M8 28c0 1.105-0.895 2-2 2s-2-0.895-2-2c0-1.105 0.895-2 2-2s2 0.895 2 2z"></path>
<path d="M28 28c0 1.105-0.895 2-2 2s-2-0.895-2-2c0-1.105 0.895-2 2-2s2 0.895 2 2z"></path>
</symbol>
<symbol id="small-down" viewBox="0 0 32 32">
<path d="M16 22.8l-10.8-10.8 2.8-2.8 8 8 8-8 2.8 2.8z"></path>
</symbol>
<symbol id="small-left" viewBox="0 0 32 32">
<path d="M20 26.8l-10.8-10.8 10.8-10.8 2.8 2.8-8 8 8 8z"></path>
</symbol>
<symbol id="small-right" viewBox="0 0 32 32">
<path d="M12 26.8l-2.8-2.8 8-8-8-8 2.8-2.8 10.8 10.8z"></path>
</symbol>
<symbol id="small-triangle-down" viewBox="0 0 32 32">
<path d="M6 10l10 12 10-12z"></path>
</symbol>
<symbol id="small-triangle-left" viewBox="0 0 32 32">
<path d="M22 6l-12 10 12 10z"></path>
</symbol>
<symbol id="small-triangle-right" viewBox="0 0 32 32">
<path d="M10 26l12-10-12-10z"></path>
</symbol>
<symbol id="small-triangle-up" viewBox="0 0 32 32">
<path d="M26 22l-10-12-10 12z"></path>
</symbol>
<symbol id="small-up" viewBox="0 0 32 32">
<path d="M24 22.8l-8-8-8 8-2.8-2.8 10.8-10.8 10.8 10.8z"></path>
</symbol>
<symbol id="square-add-11" viewBox="0 0 32 32">
<path d="M14 24h4v-6h6v-4h-6v-6h-4v6h-6v4h6z"></path>
<path d="M30 0h-28c-1.2 0-2 0.8-2 2v28c0 1.2 0.8 2 2 2h28c1.2 0 2-0.8 2-2v-28c0-1.2-0.8-2-2-2zM28 28h-24v-24h24v24z"></path>
</symbol>
<symbol id="square-download" viewBox="0 0 32 32">
<path d="M16 24c0.6 0 1-0.2 1.4-0.6l11.4-11.4-2.8-2.8-8 8v-17.2h-4v17.2l-8-8-2.8 2.8 11.4 11.4c0.4 0.4 0.8 0.6 1.4 0.6z"></path>
<path d="M28 28h-24v-6h-4v8c0 1.2 0.8 2 2 2h28c1.2 0 2-0.8 2-2v-8h-4v6z"></path>
</symbol>
<symbol id="square-remove-12" viewBox="0 0 32 32">
<path d="M11.8 23l4.2-4.2 4.2 4.2 2.8-2.8-4.2-4.2 4.2-4.2-2.8-2.8-4.2 4.2-4.2-4.2-2.8 2.8 4.2 4.2-4.2 4.2z"></path>
<path d="M30 0h-28c-1.2 0-2 0.8-2 2v28c0 1.2 0.8 2 2 2h28c1.2 0 2-0.8 2-2v-28c0-1.2-0.8-2-2-2zM28 28h-24v-24h24v24z"></path>
</symbol>
<symbol id="square-upload" viewBox="0 0 32 32">
<path d="M14 6.8v17.2h4v-17.2l8 8 2.8-2.8-11.4-11.4c-0.8-0.8-2-0.8-2.8 0l-11.4 11.4 2.8 2.8 8-8z"></path>
<path d="M28 28h-24v-6h-4v8c0 1.2 0.8 2 2 2h28c1.2 0 2-0.8 2-2v-8h-4v6z"></path>
</symbol>
<symbol id="star-half" viewBox="0 0 32 32">
<path d="M16 0.73c-0.728 0-1.456 0.342-1.794 1.024l-3.86 7.822-8.634 1.254c-1.634 0.238-2.296 2.252-1.108 3.412l6.248 6.088-1.474 8.598c-0.278 1.628 1.434 2.878 2.902 2.108l7.72-4.058v-26.248z"></path>
</symbol>
<symbol id="tag" viewBox="0 0 32 32">
<path d="M31.4 16.6l-16-16c-0.4-0.4-0.8-0.6-1.4-0.6h-12c-1.2 0-2 0.8-2 2v12c0 0.6 0.2 1 0.6 1.4l16 16c0.4 0.4 0.8 0.6 1.4 0.6s1-0.2 1.4-0.6l12-12c0.8-0.8 0.8-2 0-2.8zM8 10c-1.2 0-2-0.8-2-2s0.8-2 2-2c1.2 0 2 0.8 2 2s-0.8 2-2 2z"></path>
</symbol>
<symbol id="tail-down" viewBox="0 0 32 32">
<path d="M29.4 18.6l-2.8-2.8-8.6 8.6v-24.4h-4v24.4l-8.6-8.6-2.8 2.8 13.4 13.4z"></path>
</symbol>
<symbol id="tail-left" viewBox="0 0 32 32">
<path d="M13.4 29.4l2.8-2.8-8.6-8.6h24.4v-4h-24.4l8.6-8.6-2.8-2.8-13.4 13.4z"></path>
</symbol>
<symbol id="tail-right" viewBox="0 0 32 32">
<path d="M18.6 2.6l-2.8 2.8 8.6 8.6h-24.4v4h24.4l-8.6 8.6 2.8 2.8 13.4-13.4z"></path>
</symbol>
<symbol id="tail-up" viewBox="0 0 32 32">
<path d="M2.6 13.4l2.8 2.8 8.6-8.6v24.4h4v-24.4l8.6 8.6 2.8-2.8-13.4-13.4z"></path>
</symbol>
<symbol id="tap-01" viewBox="0 0 32 32">
<path d="M19.744 13.001c-0.197 0-0.397-0.058-0.571-0.18-0.453-0.316-0.564-0.939-0.248-1.393 0.704-1.008 1.075-2.193 1.075-3.428 0-3.309-2.691-6-6-6s-6 2.691-6 6c0 1.235 0.372 2.42 1.075 3.428 0.316 0.453 0.205 1.076-0.248 1.393s-1.076 0.206-1.393-0.248c-0.938-1.345-1.435-2.927-1.435-4.573 0-4.411 3.589-8 8-8s8 3.589 8 8c0 1.646-0.496 3.228-1.435 4.573-0.195 0.279-0.505 0.428-0.821 0.428z"></path>
<path d="M24.128 17.478l-8.128-1.478v-7c0-1.105-0.895-2-2-2s-2 0.895-2 2v13h-1v-3h-1c-1.105 0-2 0.895-2 2v2.895c0 1.362 0.464 2.684 1.315 3.748l2.685 3.356h13l1.556-10.114c0.247-1.606-0.83-3.117-2.428-3.408z"></path>
</symbol>
<symbol id="time-3" viewBox="0 0 32 32">
<path d="M16 0c-8.8 0-16 7.2-16 16s7.2 16 16 16 16-7.2 16-16-7.2-16-16-16zM24 18h-10v-10h4v6h6v4z"></path>
</symbol>
<symbol id="trash" viewBox="0 0 32 32">
<path d="M4 12v16c0 2.2 1.8 4 4 4h16c2.2 0 4-1.8 4-4v-16h-24z"></path>
<path d="M24 6v-4c0-1.2-0.8-2-2-2h-12c-1.2 0-2 0.8-2 2v4h-8v4h32v-4h-8zM20 6h-8v-2h8v2z"></path>
</symbol>
<symbol id="triangle-left" viewBox="0 0 32 32">
<path d="M8 16.002c0 0.652 0.318 1.264 0.854 1.638l20 14c0.61 0.428 1.408 0.476 2.070 0.136 0.662-0.346 1.076-1.028 1.076-1.774v-28.004c0-0.746-0.414-1.43-1.076-1.774-0.662-0.34-1.46-0.292-2.070 0.136l-20 14c-0.536 0.374-0.854 0.986-0.854 1.638 0 0.002 0 0.002 0 0.004 0-0.002 0-0.002 0 0z"></path>
<path d="M2 0c1.104 0 2 0.894 2 2v28c0 1.106-0.896 2-2 2s-2-0.894-2-2v-28c0-1.106 0.896-2 2-2z"></path>
</symbol>
<symbol id="triangle-right" viewBox="0 0 32 32">
<path d="M24 15.998c0-0.652-0.318-1.264-0.854-1.638l-20-14c-0.608-0.428-1.408-0.476-2.070-0.136-0.662 0.346-1.076 1.028-1.076 1.774v28.002c0 0.746 0.414 1.43 1.076 1.774 0.662 0.34 1.46 0.292 2.070-0.136l20-14c0.536-0.372 0.854-0.984 0.854-1.636 0-0.002 0-0.002 0-0.004 0 0.002 0 0.002 0 0z"></path>
<path d="M30 32c-1.104 0-2-0.894-2-2v-28c0-1.106 0.896-2 2-2s2 0.894 2 2v28c0 1.106-0.896 2-2 2z"></path>
</symbol>
<symbol id="tv-2" viewBox="0 0 32 32">
<path d="M30 0h-28c-1.2 0-2 0.8-2 2v22c0 1.2 0.8 2 2 2h12v2h-8v4h20v-4h-8v-2h12c1.2 0 2-0.8 2-2v-22c0-1.2-0.8-2-2-2zM28 22h-24v-18h24v18z"></path>
</symbol>
<symbol id="zoom-2" viewBox="0 0 32 32">
<path d="M30.748 27.919l-7.644-7.644c1.394-1.939 2.229-4.361 2.229-6.979 0-6.648-5.389-12.037-12.037-12.037s-12.037 5.389-12.037 12.037c0 6.648 5.389 12.037 12.037 12.037 2.617 0 5.040-0.835 7.015-2.254l-0.036 0.025 7.644 7.644zM4 13.333c0-5.155 4.179-9.333 9.333-9.333s9.333 4.179 9.333 9.333c0 5.155-4.179 9.333-9.333 9.333v0c-5.152-0.006-9.327-4.181-9.333-9.333v-0.001z"></path>
</symbol>
<symbol id="zoom-88" viewBox="0 0 32 32">
<path d="M10 10h12v12h-12v-12z"></path>
<path d="M4 12h-4v-10c0-1.2 0.8-2 2-2h10v4h-8v8z"></path>
<path d="M32 12h-4v-8h-8v-4h10c1.2 0 2 0.8 2 2v10z"></path>
<path d="M30 32h-10v-4h8v-8h4v10c0 1.2-0.8 2-2 2z"></path>
<path d="M12 32h-10c-1.2 0-2-0.8-2-2v-10h4v8h8v4z"></path>
</symbol>
<symbol id="zoom-e" viewBox="0 0 32 32">
<path d="M4 12h-4v-10c0-1.2 0.8-2 2-2h10v4h-8v8z"></path>
<path d="M32 12h-4v-8h-8v-4h10c1.2 0 2 0.8 2 2v10z"></path>
<path d="M30 32h-10v-4h8v-8h4v10c0 1.2-0.8 2-2 2z"></path>
<path d="M12 32h-10c-1.2 0-2-0.8-2-2v-10h4v8h8v4z"></path>
</symbol>
<symbol id="zoom" viewBox="0 0 32 32">
<path d="M11.2 4l16.8 16.8v-16.8z"></path>
<path d="M4 28h16.8l-16.8-16.8z"></path>
</symbol>
</defs>
</svg>
