<svg width="24" height="24" viewBox="0 0 24 24" fill="none" xmlns="http://www.w3.org/2000/svg">
<circle opacity="0.7" cx="12" cy="12" r="12" fill="#CD201F"/>
<path d="M18.825 9.2C18.65 8.0625 18.125 7.275 16.9 7.1C14.975 6.75 12 6.75 12 6.75C12 6.75 9.025 6.75 7.1 7.1C5.875 7.275 5.2625 8.0625 5.175 9.2C5 10.3375 5 12 5 12C5 12 5 13.6625 5.175 14.8C5.35 15.9375 5.875 16.725 7.1 16.9C9.025 17.25 12 17.25 12 17.25C12 17.25 14.975 17.25 16.9 16.9C18.125 16.6375 18.65 15.9375 18.825 14.8C19 13.6625 19 12 19 12C19 12 19 10.3375 18.825 9.2ZM10.25 14.625V9.375L14.625 12L10.25 14.625Z" fill="#FCFAF6"/>
</svg>
