<svg width="136" height="24" viewBox="0 0 136 24" fill="none" xmlns="http://www.w3.org/2000/svg">
<path fill-rule="evenodd" clip-rule="evenodd" d="M24.4957 12C24.4957 18.6274 19.1231 24 12.4957 24C5.86831 24 0.495728 18.6274 0.495728 12C0.495728 5.37258 5.86831 0 12.4957 0C19.1231 0 24.4957 5.37258 24.4957 12ZM10.1293 9.90722V10.1902V10.7266H11.1061H14.0423V13.2737H11.1061H10.1293V13.8695V14.1525V14.7185V15.5676V16.3869H11.1061H18.5144V18.6511H10.7693H7.33424V5.3492H10.7693H18.5144V7.61335H11.1061H10.1293V8.49213V9.34118V9.90722ZM10.9678 8.46241H18.5954C19.0583 8.46241 19.3529 8.11175 19.3529 7.64307V5.37892C19.3529 4.91024 19.0583 4.50015 18.5954 4.50015H10.7693H7.41529C6.95216 4.50015 6.49573 4.91024 6.49573 5.37892V18.6808C6.49573 19.1495 6.95216 19.5001 7.41529 19.5001H10.7693H18.5954C19.0583 19.5001 19.3529 19.1495 19.3529 18.6808V16.4167C19.3529 15.948 19.0583 15.5379 18.5954 15.5379H10.9678V14.7185V14.1228H14.1234C14.5862 14.1228 14.8808 13.7721 14.8808 13.3034V10.7563C14.8808 10.2876 14.5862 9.87751 14.1234 9.87751H10.9678V9.34118V8.46241ZM30.6 6.144L32.0976 6.3936V17.5872L30.6 17.7984V19.0656H35.9376V17.7984L33.9024 17.5872V7.7568L35.1696 10.2912L40.7952 19.0656H43.6176V6.3936L45.0768 6.144V4.8H40.1616V6.144L41.7936 6.3936V15.2832L40.7184 12.9792L35.4192 4.8H30.6V6.144ZM47.2404 17.7984C48.0852 18.784 49.3844 19.2768 51.138 19.2768C51.97 19.2768 52.7828 19.1104 53.5764 18.7776C54.3828 18.4448 54.9524 18.0928 55.2852 17.7216L54.7476 16.5504C54.4276 16.7552 54.0052 16.9408 53.4804 17.1072C52.9684 17.2608 52.4756 17.3376 52.002 17.3376C51.1572 17.3376 50.498 17.056 50.0244 16.4928C49.5636 15.9168 49.3012 15.0848 49.2372 13.9968H55.2468C55.362 13.4976 55.4196 12.8384 55.4196 12.0192C55.394 10.7776 55.0228 9.8176 54.306 9.1392C53.602 8.4608 52.578 8.1216 51.234 8.1216C50.1716 8.1216 49.2436 8.3456 48.45 8.7936C47.6692 9.2288 47.0612 9.8688 46.626 10.7136C46.1908 11.5584 45.9732 12.5632 45.9732 13.728C45.9732 15.4432 46.3956 16.8 47.2404 17.7984ZM52.386 11.9232L52.3668 12.7296H49.218C49.2436 11.4752 49.4036 10.6176 49.698 10.1568C49.9924 9.6832 50.4084 9.4464 50.946 9.4464C51.4708 9.4464 51.842 9.6576 52.0596 10.08C52.2772 10.5024 52.386 11.1168 52.386 11.9232ZM55.6636 8.4096H60.9244V9.6192L59.638 9.8304L60.9436 14.6112L61.3468 16.512L61.6924 14.6112L63.3436 8.4096H65.9356L67.8364 14.6112L68.2396 16.4928L68.6236 14.6112L69.8332 9.8496L68.4508 9.6192V8.4096H72.6748V9.6192L71.7532 9.8304L68.854 19.2192H66.4156L64.5148 13.344L64.1116 11.1168L63.8236 13.344L62.1148 19.2192H59.6188L56.566 9.8304L55.6636 9.6192V8.4096ZM75.9738 17.856C75.6538 17.7408 75.449 17.6128 75.3594 17.472L74.8793 15.9552H73.0554V18.5088L73.6889 18.6816C74.3161 18.8608 74.8922 19.0016 75.417 19.104C75.9418 19.2192 76.5434 19.2768 77.2218 19.2768C78.6938 19.2768 79.8074 18.976 80.5626 18.3744C81.3177 17.76 81.6954 16.9792 81.6954 16.032C81.6954 15.1488 81.401 14.4576 80.8121 13.9584C80.2234 13.4464 79.4106 12.9728 78.3737 12.5376L77.9706 12.3648C77.2666 12.0448 76.7546 11.7696 76.4346 11.5392C76.1146 11.296 75.9546 10.9696 75.9546 10.56C75.9546 10.2016 76.0954 9.92 76.377 9.7152C76.6586 9.4976 77.0426 9.3888 77.529 9.3888C77.8362 9.3888 78.1114 9.44 78.3546 9.5424C78.5977 9.632 78.7514 9.7344 78.8154 9.8496L79.3146 11.328H81.0233V8.7168C80.8698 8.704 80.6394 8.6528 80.3322 8.5632C79.8714 8.448 79.417 8.352 78.9689 8.2752C78.521 8.1984 77.9898 8.16 77.3754 8.16C76.4922 8.16 75.7242 8.2944 75.0714 8.5632C74.4185 8.832 73.9193 9.2032 73.5737 9.6768C73.2281 10.1376 73.0554 10.6624 73.0554 11.2512C73.0554 12.0704 73.2601 12.7488 73.6698 13.2864C74.0921 13.8112 74.7194 14.2592 75.5514 14.6304L76.281 14.9568C77.1002 15.3152 77.6889 15.6224 78.0473 15.8784C78.4057 16.1216 78.585 16.4352 78.585 16.8192C78.585 17.1776 78.4442 17.472 78.1626 17.7024C77.8938 17.92 77.4969 18.0288 76.9722 18.0288C76.6394 18.0288 76.3066 17.9712 75.9738 17.856ZM83.1223 17.7984L84.2935 17.6256V10.4064L83.1607 10.0608V8.5632L86.3479 8.1408H86.4055L86.9431 8.544V9.0048L86.8855 10.5984H86.9431C87.0327 10.304 87.2375 9.9648 87.5575 9.5808C87.8775 9.184 88.2807 8.8448 88.7671 8.5632C89.2663 8.2688 89.8039 8.1216 90.3799 8.1216C90.7127 8.1216 90.9687 8.1664 91.1479 8.256V11.5968C90.9431 11.4432 90.7191 11.3216 90.4759 11.232C90.2455 11.1424 89.9447 11.0976 89.5735 11.0976C89.1127 11.0976 88.6967 11.1616 88.3255 11.2896C87.9543 11.4048 87.6599 11.5392 87.4423 11.6928V17.6256L89.5543 17.8176V19.0656H83.1223V17.7984ZM93.1153 10.6752C92.6289 11.52 92.3857 12.5568 92.3857 13.7856C92.3857 15.5136 92.8401 16.864 93.7489 17.8368C94.6705 18.7968 95.9313 19.2768 97.5313 19.2768C98.5425 19.2768 99.4577 19.072 100.277 18.6624C101.096 18.2528 101.749 17.6256 102.235 16.7808C102.722 15.936 102.965 14.88 102.965 13.6128C102.965 11.8848 102.504 10.5408 101.583 9.5808C100.674 8.608 99.4129 8.1216 97.8001 8.1216C96.8145 8.1216 95.9057 8.3328 95.0737 8.7552C94.2545 9.1776 93.6017 9.8176 93.1153 10.6752ZM99.0865 16.9536C98.7921 17.6064 98.3377 17.9328 97.7233 17.9328C97.0449 17.9328 96.5521 17.5744 96.2449 16.8576C95.9377 16.1408 95.7841 15.04 95.7841 13.5552C95.7841 10.8288 96.4113 9.4656 97.6657 9.4656C98.3441 9.4656 98.8241 9.824 99.1057 10.5408C99.4001 11.2448 99.5473 12.3456 99.5473 13.8432C99.5473 15.2512 99.3937 16.288 99.0865 16.9536ZM104.704 13.7856C104.704 12.5568 104.948 11.52 105.434 10.6752C105.92 9.8176 106.573 9.1776 107.392 8.7552C108.224 8.3328 109.133 8.1216 110.119 8.1216C111.732 8.1216 112.992 8.608 113.901 9.5808C114.823 10.5408 115.284 11.8848 115.284 13.6128C115.284 14.88 115.04 15.936 114.554 16.7808C114.068 17.6256 113.415 18.2528 112.596 18.6624C111.776 19.072 110.861 19.2768 109.85 19.2768C108.25 19.2768 106.989 18.7968 106.068 17.8368C105.159 16.864 104.704 15.5136 104.704 13.7856ZM110.042 17.9328C110.656 17.9328 111.111 17.6064 111.405 16.9536C111.712 16.288 111.866 15.2512 111.866 13.8432C111.866 12.3456 111.719 11.2448 111.424 10.5408C111.143 9.824 110.663 9.4656 109.984 9.4656C108.73 9.4656 108.103 10.8288 108.103 13.5552C108.103 15.04 108.256 16.1408 108.564 16.8576C108.871 17.5744 109.364 17.9328 110.042 17.9328ZM118.041 17.6256L117.023 17.7984V19.0656H122.284V17.7984L121.247 17.6256V10.8096C121.503 10.5792 121.804 10.3872 122.15 10.2336C122.508 10.0672 122.866 9.984 123.225 9.984C123.775 9.984 124.146 10.1568 124.338 10.5024C124.543 10.848 124.646 11.4752 124.646 12.384V17.6256L123.686 17.7984V19.0656H128.927V17.7984L127.852 17.6256V12.3648C127.852 11.7504 127.814 11.2064 127.737 10.7328C128.377 10.2336 128.991 9.984 129.58 9.984C130.143 9.984 130.527 10.1632 130.732 10.5216C130.95 10.88 131.058 11.52 131.058 12.4416V17.6256L130.194 17.7984V19.0656H135.398V17.7984L134.246 17.6256V12.3648C134.246 10.88 133.996 9.8112 133.497 9.1584C133.01 8.5056 132.204 8.1792 131.078 8.1792C130.399 8.1792 129.727 8.3136 129.062 8.5824C128.409 8.8512 127.865 9.1904 127.43 9.6C127.212 9.1136 126.886 8.7552 126.45 8.5248C126.028 8.2944 125.471 8.1792 124.78 8.1792C124.217 8.1792 123.538 8.3328 122.745 8.64C121.951 8.9344 121.35 9.2928 120.94 9.7152V8.7552L120.556 8.2176L120.402 8.1408L116.908 8.5632V10.0608L118.041 10.4064V17.6256Z" fill="#7989AB"/>
</svg>
