<svg width="42" height="42" viewBox="0 0 42 42" fill="none" xmlns="http://www.w3.org/2000/svg">
<path d="M21 42C32.598 42 42 32.598 42 21C42 9.40202 32.598 0 21 0C9.40202 0 0 9.40202 0 21C0 32.598 9.40202 42 21 42Z" fill="#F0F0F0"/>
<path d="M40.6938 28.3043C41.538 26.0293 42 23.5687 42 21C42 18.4313 41.538 15.9707 40.6938 13.6957H1.30618C0.462082 15.9707 0 18.4313 0 21C0 23.5687 0.462082 26.0293 1.30618 28.3043L21 30.1304L40.6938 28.3043Z" fill="#0052B4"/>
<path d="M21 42C30.0293 42 37.7267 36.3011 40.6938 28.3043H1.30618C4.27333 36.3011 11.9707 42 21 42Z" fill="#D80027"/>
</svg>
