<svg width="48" height="48" viewBox="0 0 48 48" fill="none" xmlns="http://www.w3.org/2000/svg">
<path fill-rule="evenodd" clip-rule="evenodd" d="M24 2.14577e-06C10.7452 2.14577e-06 0 10.7452 0 24C0 37.2548 10.7452 48 24 48V2.14577e-06Z" fill="#CE1719"/>
<path fill-rule="evenodd" clip-rule="evenodd" d="M24 48C37.2548 48 48 37.2548 48 24C48 10.7452 37.2548 2.87533e-06 24 1.71655e-06L24 48Z" fill="#134395"/>
<g clip-path="url(#clip0)">
<path d="M22.6211 3.60705L23.9992 3.33635L24.4914 5.81369L23.1133 6.0926L22.6211 3.60705Z" fill="white"/>
<path d="M14.377 9.41486L15.3695 8.42229L17.3547 10.4074L16.3621 11.4L14.377 9.41486Z" fill="white"/>
<path d="M18.2324 6.29763L19.4301 5.57576L20.9148 8.0531L19.7172 8.77498L18.2324 6.29763Z" fill="white"/>
<path d="M9.29102 18.0281L9.56172 16.65L12.0391 17.1422L11.7684 18.5203L9.29102 18.0281Z" fill="white"/>
<path d="M11.5305 13.4836L12.2524 12.286L14.7297 13.7707L14.0078 14.9766L11.5305 13.4836Z" fill="white"/>
<path d="M13.3844 21.3094C14.2047 22.1297 15.5336 22.1297 16.3539 21.3094L16.518 21.1454C19.3481 22.3348 21.932 24.0247 24.1469 26.1411L22.1945 28.0934L21.0379 26.9368C20.1273 26.0262 18.6508 26.0262 17.7402 26.9368L16.7969 27.8883C16.3293 28.3559 16.1734 29.0532 16.4113 29.6766L13.9996 32.0883C12.9496 33.1383 12.9496 34.8364 13.9996 35.8864L17.4941 39.3809C18.3555 40.2422 19.6762 40.4145 20.7262 39.8157L22.6047 41.6942L22.3996 41.8993C22.1289 42.17 22.1289 42.6129 22.3996 42.8918L24.5078 45L25.5004 44.0075L23.8926 42.3996L29.2082 37.084L31.7184 39.5942L27.3051 44.0075L28.2977 45L33.6953 39.7172L29.7004 35.5993C29.4297 35.3286 28.9867 35.3286 28.7078 35.5993L27.8055 36.5016L25.9434 34.5903C26.3125 33.9094 26.3781 33.0973 26.1156 32.3672L28.2484 30.2344L28.7406 30.7266C30.9227 32.9168 34.4746 32.925 36.6731 30.743C38.8633 28.561 38.8715 25.009 36.6895 22.8106C36.6813 22.8024 36.6813 22.8024 36.6731 22.7942L32.5141 18.6352C30.2008 16.3219 28.3551 13.5821 27.0918 10.5633L27.2559 10.3993C28.068 9.57075 28.068 8.24184 27.2395 7.42973C26.4191 6.61762 25.1066 6.61762 24.2863 7.42973L13.3844 18.3399C12.5641 19.1602 12.5641 20.4891 13.3844 21.3094ZM24.5078 34.1965L23.6055 35.0989L21.9977 33.4911C21.727 33.2204 21.284 33.2204 21.0051 33.4911C20.3078 34.1883 19.2414 34.3524 18.3637 33.9094L22.2027 30.0704L24.5078 32.3754C25.0082 32.884 25.0082 33.6961 24.5078 34.1965ZM18.4867 38.3965L14.9922 34.902C14.4918 34.4016 14.4918 33.5895 14.9922 33.0809L17.7895 30.2836C18.0602 30.0129 18.0602 29.57 17.7895 29.2911C17.6746 29.1762 17.6746 28.9957 17.7895 28.8809L18.741 27.9293C19.102 27.5684 19.6926 27.5684 20.0535 27.9293L21.2102 29.086L16.7969 33.4993C16.5262 33.77 16.5262 34.2129 16.7969 34.4918C18.0438 35.7305 19.9879 35.9192 21.4481 34.943L22.6047 36.0997L20.2996 38.4047C19.8074 38.8969 18.9953 38.8969 18.4867 38.3965ZM23.6055 40.7098L21.7926 38.8969L25.0328 35.6567L26.8211 37.4942L23.6055 40.7098ZM25.3035 31.1942L23.1953 29.086L25.1559 27.1254L27.2723 29.2418L25.3035 31.1942ZM35.6887 29.734C34.3762 31.0465 32.35 31.3418 30.7176 30.4641C33.2934 29.3813 35.3359 27.3387 36.4188 24.7629C37.2965 26.4036 37.0012 28.4215 35.6887 29.734ZM35.3934 23.4914C34.4828 26.3133 32.268 28.5282 29.4461 29.4387L26.0828 26.0754C28.7981 24.9926 30.9473 22.8434 32.0301 20.1282L35.3934 23.4914ZM14.377 19.3325L25.2789 8.42231C25.5496 8.1434 25.9926 8.1434 26.2715 8.41411C26.5504 8.68481 26.5504 9.12778 26.2797 9.40668L26.2715 9.41489L23.6465 12.0399L24.6391 13.0325L26.0336 11.6379C27.2395 14.3532 28.9047 16.8469 30.9391 19.0207C30.0285 21.859 27.8055 24.0821 24.9672 24.9926C22.8016 22.9582 20.3078 21.3012 17.5844 20.0872L23.507 14.1645L22.5227 13.1719L15.3695 20.325C15.0988 20.6039 14.6559 20.604 14.377 20.3332C14.0981 20.0625 14.0981 19.6114 14.377 19.3325Z" fill="white"/>
<path d="M30.2336 25.2797L31.2262 24.2871L32.7109 25.7719L31.7184 26.7645L30.2336 25.2797Z" fill="white"/>
<path d="M25.7055 41.7023H27.1082V43.105H25.7055V41.7023Z" fill="white"/>
</g>
<defs>
<clipPath id="clip0">
<rect width="42" height="42" fill="white" transform="translate(4 3)"/>
</clipPath>
</defs>
</svg>
