<svg width="48" height="48" viewBox="0 0 48 48" fill="none" xmlns="http://www.w3.org/2000/svg">
<path fill-rule="evenodd" clip-rule="evenodd" d="M24 2.14577e-06C10.7452 2.14577e-06 0 10.7452 0 24C0 37.2548 10.7452 48 24 48V2.14577e-06Z" fill="#CE1719"/>
<path fill-rule="evenodd" clip-rule="evenodd" d="M24 48C37.2548 48 48 37.2548 48 24C48 10.7452 37.2548 2.87533e-06 24 1.71655e-06L24 48Z" fill="#134395"/>
<path d="M19.4513 22.2518C19.1162 21.9157 18.5713 21.9157 18.2362 22.2518C17.9002 22.5869 17.9002 23.1318 18.2362 23.4669C18.5713 23.8029 19.1162 23.8029 19.4513 23.4669C19.7873 23.1318 19.7873 22.5869 19.4513 22.2518Z" fill="white"/>
<path d="M24 23.7188C22.5784 23.7188 21.4219 24.8753 21.4219 26.2969C21.4219 27.7185 22.5784 28.875 24 28.875C25.4216 28.875 26.5781 27.7185 26.5781 26.2969C26.5781 24.8753 25.4216 23.7188 24 23.7188ZM24 27.1562C23.5261 27.1562 23.1406 26.7707 23.1406 26.2969C23.1406 25.823 23.5261 25.4375 24 25.4375C24.4739 25.4375 24.8594 25.823 24.8594 26.2969C24.8594 26.7707 24.4739 27.1562 24 27.1562Z" fill="white"/>
<path d="M24 19.4219C23.0394 19.4219 22.1105 19.616 21.2393 19.9989C20.8048 20.19 20.6074 20.697 20.7984 21.1315C20.9894 21.566 21.4965 21.7633 21.931 21.5725C22.5828 21.2859 23.279 21.1406 24 21.1406C26.8432 21.1406 29.1562 23.4537 29.1562 26.2969C29.1562 29.14 26.8432 31.4531 24 31.4531C21.1568 31.4531 18.8438 29.14 18.8438 26.2969C18.8438 26.2675 18.8437 26.2388 18.8444 26.2094C18.8554 25.7349 18.4796 25.3413 18.0052 25.3303C17.5299 25.3185 17.1371 25.695 17.1261 26.1695C17.1251 26.2123 17.125 26.2541 17.125 26.2969C17.125 30.0877 20.2091 33.1719 24 33.1719C27.7909 33.1719 30.875 30.0877 30.875 26.2969C30.875 22.506 27.7909 19.4219 24 19.4219Z" fill="white"/>
<path d="M24 6.53125C23.5254 6.53125 23.1406 6.91599 23.1406 7.39062V12.5469C23.1406 13.0215 23.5254 13.4062 24 13.4062C24.4746 13.4062 24.8594 13.0215 24.8594 12.5469V7.39062C24.8594 6.91599 24.4746 6.53125 24 6.53125Z" fill="white"/>
<path d="M14.3992 12.9024L10.7537 9.25698C10.4181 8.92139 9.87394 8.92139 9.53827 9.25698C9.20269 9.59257 9.20269 10.1367 9.53827 10.4724L13.1837 14.1179C13.5193 14.4534 14.0636 14.4535 14.3992 14.1179C14.7347 13.7823 14.7347 13.2381 14.3992 12.9024Z" fill="white"/>
<path d="M38.4617 9.25698C38.1262 8.92139 37.582 8.92139 37.2463 9.25698L33.6009 12.9024C33.2653 13.238 33.2653 13.7822 33.6009 14.1179C33.9364 14.4534 34.4806 14.4535 34.8163 14.1179L38.4617 10.4724C38.7973 10.1368 38.7973 9.59265 38.4617 9.25698Z" fill="white"/>
<path d="M45.7847 26.4438C40.3255 20.2633 32.2196 15.125 24 15.125C15.7793 15.125 7.67342 20.2646 2.21527 26.4438C1.90108 26.7996 1.93477 27.3426 2.29047 27.6568C2.64625 27.971 3.18937 27.9373 3.50347 27.5816C3.68661 27.3743 3.87421 27.1677 4.06422 26.9624C8.31082 33.3788 16.0089 37.4688 24 37.4688C31.9911 37.4688 39.6892 33.3788 43.9358 26.9624C44.1258 27.1678 44.3134 27.3744 44.4965 27.5816C44.8097 27.9362 45.3527 27.972 45.7095 27.6568C46.0652 27.3426 46.0989 26.7995 45.7847 26.4438ZM24 35.75C16.4448 35.75 9.17827 31.8245 5.29235 25.697C8.35413 22.6969 15.4287 16.8438 24 16.8438C32.5714 16.8438 39.6459 22.6969 42.7076 25.6969C38.8217 31.8245 31.5552 35.75 24 35.75Z" fill="white"/>
</svg>
