<svg width="42" height="42" viewBox="0 0 42 42" fill="none" xmlns="http://www.w3.org/2000/svg">
<path d="M21 0C11.8535 0 4.07695 5.84883 1.18945 14.0109H40.8023C37.923 5.84883 30.1465 0 21 0Z" fill="#73AF00"/>
<path d="M40.8023 28.0055C41.5734 25.8152 42 23.4609 42 21C42 18.5391 41.5734 16.1848 40.8023 13.9945H1.19766C0.426563 16.1848 0 18.5473 0 21C0 23.4527 0.426563 25.8152 1.19766 28.0055H40.8023Z" fill="#F5F5F5"/>
<path d="M21 42C30.1465 42 37.923 36.1512 40.8105 27.9891H1.18945C4.07695 36.1512 11.8535 42 21 42Z" fill="#FF4B55"/>
<path d="M2.90391 13.0839V11.6074C2.90391 11.5089 2.83008 11.4351 2.73164 11.4351H2.72344C2.625 11.4351 2.55117 11.5172 2.55117 11.6074V12.7312C2.55117 12.8297 2.46914 12.9035 2.37891 12.9035H2.3625C2.26406 12.9035 2.19023 12.8214 2.19023 12.7312V11.6812C2.06719 11.9273 1.95234 12.1734 1.8375 12.4277V12.7394C1.8375 12.8379 1.75547 12.9117 1.66523 12.9117H1.64062C1.63242 12.9117 1.62422 12.9117 1.62422 12.9117C1.575 13.0347 1.52578 13.1496 1.47656 13.2726H2.73164C2.83008 13.2562 2.90391 13.1742 2.90391 13.0839Z" fill="#F5F5F5"/>
<path d="M9.89297 11.4269H9.88477C9.78633 11.4269 9.7125 11.5008 9.7125 11.5992V12.723C9.7125 12.8215 9.63867 12.8953 9.54023 12.8953H9.53203C9.43359 12.8953 9.35977 12.8215 9.35977 12.723V11.5992C9.35977 11.5008 9.28594 11.4269 9.1875 11.4269H9.17109C9.07266 11.4269 8.99883 11.5008 8.99883 11.5992V12.723C8.99883 12.8215 8.925 12.8953 8.82656 12.8953H8.81016C8.71172 12.8953 8.63789 12.8215 8.63789 12.723V11.5992C8.63789 11.5008 8.56406 11.4269 8.46562 11.4269H8.44922C8.35078 11.4269 8.27695 11.5008 8.27695 11.5992V11.9847C8.27695 12.0832 8.20313 12.157 8.10469 12.157H7.02187C6.92344 12.157 6.84961 12.2308 6.84961 12.3293V13.0758C6.84961 13.1742 6.92344 13.248 7.02187 13.248H7.75195C7.85039 13.248 7.92422 13.1742 7.92422 13.0758V13.0676C7.92422 12.9691 7.85039 12.8953 7.75195 12.8953H7.38281C7.28438 12.8953 7.21055 12.8215 7.21055 12.723V12.7066C7.21055 12.6082 7.28438 12.5344 7.38281 12.5344H8.10469C8.20313 12.5344 8.27695 12.6082 8.27695 12.7066V13.084C8.27695 13.1824 8.35078 13.2562 8.44922 13.2562H9.89297C9.99141 13.2562 10.0652 13.1824 10.0652 13.084V11.6074C10.0734 11.509 9.99141 11.4269 9.89297 11.4269Z" fill="#F5F5F5"/>
<path d="M4.15898 13.2562C4.25742 13.2562 4.33125 13.1824 4.33125 13.084V13.0758C4.33125 12.9773 4.24922 12.9035 4.15898 12.9035H4.15078C4.05234 12.9035 3.97852 12.9773 3.97852 13.0758V13.084C3.97852 13.1824 4.06055 13.2562 4.15078 13.2562H4.15898Z" fill="#F5F5F5"/>
<path d="M3.43712 11.7961H7.75196C7.8504 11.7961 7.92423 11.7222 7.92423 11.6238V11.6074C7.92423 11.5089 7.8504 11.4351 7.75196 11.4351H3.43712C3.33868 11.4351 3.26485 11.5089 3.26485 11.6074V11.6238C3.26485 11.714 3.33868 11.7961 3.43712 11.7961Z" fill="#F5F5F5"/>
<path d="M6.31641 12.1652H5.59454C5.4961 12.1652 5.42227 12.239 5.42227 12.3375V12.3539C5.42227 12.4523 5.4961 12.5262 5.59454 12.5262H5.96368C6.06212 12.5262 6.13595 12.6 6.13595 12.6984V12.7148C6.13595 12.8133 6.06212 12.8871 5.96368 12.8871H5.2336C5.13517 12.8871 5.06134 12.8133 5.06134 12.7148V12.3293C5.06134 12.2308 4.97931 12.157 4.88907 12.157H3.43712C3.33868 12.157 3.26485 12.2308 3.26485 12.3293V13.0758C3.26485 13.1742 3.34689 13.248 3.43712 13.248H3.44532C3.54376 13.248 3.61759 13.1742 3.61759 13.0758V12.6984C3.61759 12.6 3.69962 12.5262 3.78985 12.5262H4.51173C4.61017 12.5262 4.68399 12.6 4.68399 12.6984V13.0758C4.68399 13.1742 4.76602 13.248 4.85626 13.248H6.31641C6.41485 13.248 6.48868 13.1742 6.48868 13.0758V12.3293C6.48868 12.239 6.40665 12.1652 6.31641 12.1652Z" fill="#F5F5F5"/>
<path d="M11.3285 13.2562C11.427 13.2562 11.5008 13.1824 11.5008 13.084V13.0758C11.5008 12.9773 11.427 12.9035 11.3285 12.9035H11.3203C11.2219 12.9035 11.148 12.9773 11.148 13.0758V13.084C11.148 13.1824 11.2219 13.2562 11.3203 13.2562H11.3285Z" fill="#F5F5F5"/>
<path d="M10.5984 11.7961H14.9051C15.0035 11.7961 15.0773 11.7222 15.0773 11.6238V11.6074C15.0773 11.5089 15.0035 11.4351 14.9051 11.4351H10.5984C10.5 11.4351 10.4262 11.5089 10.4262 11.6074V11.6238C10.4262 11.714 10.5082 11.7961 10.5984 11.7961Z" fill="#F5F5F5"/>
<path d="M17.0625 11.4269H17.0543C16.9559 11.4269 16.882 11.5008 16.882 11.5992V12.723C16.882 12.8215 16.8082 12.8953 16.7098 12.8953H16.7016C16.6031 12.8953 16.5293 12.8215 16.5293 12.723V11.5992C16.5293 11.5008 16.4555 11.4269 16.357 11.4269H16.3406C16.2422 11.4269 16.1684 11.5008 16.1684 11.5992V12.723C16.1684 12.8215 16.0945 12.8953 15.9961 12.8953H15.9879C15.8895 12.8953 15.8156 12.8215 15.8156 12.723V11.5992C15.8156 11.5008 15.7418 11.4269 15.6434 11.4269H15.6352C15.5367 11.4269 15.4629 11.5008 15.4629 11.5992V11.9847C15.4629 12.0832 15.3891 12.157 15.2906 12.157H14.1996C14.1012 12.157 14.0273 12.2308 14.0273 12.3293V13.0758C14.0273 13.1742 14.1012 13.248 14.1996 13.248H14.9297C15.0281 13.248 15.102 13.1742 15.102 13.0758V13.0676C15.102 12.9691 15.0281 12.8953 14.9297 12.8953H14.5605C14.4621 12.8953 14.3883 12.8215 14.3883 12.723V12.7066C14.3883 12.6082 14.4621 12.5344 14.5605 12.5344H15.2906C15.3891 12.5344 15.4629 12.6082 15.4629 12.7066V13.084C15.4629 13.1824 15.5367 13.2562 15.6352 13.2562H17.0625C17.1609 13.2562 17.2348 13.1824 17.2348 13.084V11.6074C17.2348 11.509 17.1609 11.4269 17.0625 11.4269Z" fill="#F5F5F5"/>
<path d="M13.4777 12.1652H12.7476C12.6492 12.1652 12.5754 12.239 12.5754 12.3375V12.3539C12.5754 12.4523 12.6492 12.5262 12.7476 12.5262H13.1168C13.2152 12.5262 13.289 12.6 13.289 12.6984V12.7148C13.289 12.8133 13.2152 12.8871 13.1168 12.8871H12.3949C12.2965 12.8871 12.2226 12.8133 12.2226 12.7148V12.3293C12.2226 12.2308 12.1488 12.157 12.0504 12.157H10.6066C10.5082 12.157 10.4344 12.2308 10.4344 12.3293V13.0758C10.4344 13.1742 10.5082 13.248 10.6066 13.248H10.6148C10.7133 13.248 10.7871 13.1742 10.7871 13.0758V12.6984C10.7871 12.6 10.8609 12.5262 10.9594 12.5262H11.6812C11.7797 12.5262 11.8535 12.6 11.8535 12.6984V13.0758C11.8535 13.1742 11.9273 13.248 12.0258 13.248H13.4695C13.5679 13.248 13.6418 13.1742 13.6418 13.0758V12.3293C13.65 12.239 13.5762 12.1652 13.4777 12.1652Z" fill="#F5F5F5"/>
<path d="M24.2238 11.4269H24.2156C24.1172 11.4269 24.0434 11.5008 24.0434 11.5992V12.723C24.0434 12.8215 23.9613 12.8953 23.8711 12.8953H23.8629C23.7645 12.8953 23.6906 12.8215 23.6906 12.723V11.5992C23.6906 11.5008 23.6086 11.4269 23.5184 11.4269H23.5102C23.4117 11.4269 23.3379 11.5008 23.3379 11.5992V12.723C23.3379 12.8215 23.2559 12.8953 23.1656 12.8953H23.1574C23.059 12.8953 22.9852 12.8215 22.9852 12.723V11.5992C22.9852 11.5008 22.9031 11.4269 22.8129 11.4269H22.8047C22.7062 11.4269 22.6324 11.5008 22.6324 11.5992V11.9847C22.6324 12.0832 22.5504 12.157 22.4602 12.157H21.3691C21.2707 12.157 21.1969 12.2308 21.1969 12.3293V13.0758C21.1969 13.1742 21.2789 13.248 21.3691 13.248H22.0992C22.1977 13.248 22.2715 13.1742 22.2715 13.0758V13.0676C22.2715 12.9691 22.1895 12.8953 22.0992 12.8953H21.7301C21.6316 12.8953 21.5578 12.8215 21.5578 12.723V12.7066C21.5578 12.6082 21.6398 12.5344 21.7301 12.5344H22.4602C22.5586 12.5344 22.6324 12.6082 22.6324 12.7066V13.084C22.6324 13.1824 22.7145 13.2562 22.8047 13.2562H24.2484C24.3469 13.2562 24.4207 13.1824 24.4207 13.084V11.6074C24.4043 11.509 24.3223 11.4269 24.2238 11.4269Z" fill="#F5F5F5"/>
<path d="M20.6473 12.1652H19.9172C19.8188 12.1652 19.7449 12.239 19.7449 12.3375V12.3539C19.7449 12.4523 19.8188 12.5262 19.9172 12.5262H20.2863C20.3848 12.5262 20.4586 12.6 20.4586 12.6984V12.7148C20.4586 12.8133 20.3848 12.8871 20.2863 12.8871H19.5645C19.466 12.8871 19.3922 12.8133 19.3922 12.7148V12.3293C19.3922 12.2308 19.3184 12.157 19.2199 12.157H17.7762C17.6777 12.157 17.6039 12.2308 17.6039 12.3293V13.0758C17.6039 13.1742 17.6777 13.248 17.7762 13.248H17.7844C17.8828 13.248 17.9566 13.1742 17.9566 13.0758V12.6984C17.9566 12.6 18.0305 12.5262 18.1289 12.5262H18.8508C18.9492 12.5262 19.023 12.6 19.023 12.6984V13.0758C19.023 13.1742 19.0969 13.248 19.1953 13.248H20.6391C20.7375 13.248 20.8113 13.1742 20.8113 13.0758V12.3293C20.8195 12.239 20.7375 12.1652 20.6473 12.1652Z" fill="#F5F5F5"/>
<path d="M17.768 11.7961H22.0828C22.1813 11.7961 22.2551 11.7222 22.2551 11.6238V11.6074C22.2551 11.5089 22.173 11.4351 22.0828 11.4351H17.768C17.6695 11.4351 17.5957 11.5089 17.5957 11.6074V11.6238C17.5957 11.714 17.6695 11.7961 17.768 11.7961Z" fill="#F5F5F5"/>
<path d="M18.4898 13.2562C18.5883 13.2562 18.6621 13.1824 18.6621 13.084V13.0758C18.6621 12.9773 18.5883 12.9035 18.4898 12.9035H18.4816C18.3832 12.9035 18.3094 12.9773 18.3094 13.0758V13.084C18.3176 13.1742 18.3914 13.2562 18.4898 13.2562Z" fill="#F5F5F5"/>
<path d="M27.8086 12.1652H27.0867C26.9883 12.1652 26.9145 12.239 26.9145 12.3375V12.3539C26.9145 12.4523 26.9965 12.5262 27.0867 12.5262H27.4477C27.5461 12.5262 27.6199 12.6 27.6199 12.6984V12.7148C27.6199 12.8133 27.5379 12.8871 27.4477 12.8871H26.7258C26.6273 12.8871 26.5535 12.8133 26.5535 12.7148V12.3293C26.5535 12.2308 26.4797 12.157 26.3813 12.157H24.9375C24.8391 12.157 24.7652 12.2308 24.7652 12.3293V13.0758C24.7652 13.1742 24.8473 13.248 24.9375 13.248H24.9457C25.0441 13.248 25.118 13.1742 25.118 13.0758V12.6984C25.118 12.6 25.2 12.5262 25.2902 12.5262H26.0121C26.1105 12.5262 26.1844 12.6 26.1844 12.6984V13.0758C26.1844 13.1742 26.2664 13.248 26.3566 13.248H27.8086C27.907 13.248 27.9809 13.1742 27.9809 13.0758V12.3293C27.9809 12.239 27.907 12.1652 27.8086 12.1652Z" fill="#F5F5F5"/>
<path d="M31.3934 11.4269H31.3852C31.2867 11.4269 31.2129 11.5008 31.2129 11.5992V12.723C31.2129 12.8215 31.1309 12.8953 31.0406 12.8953H31.0324C30.934 12.8953 30.8602 12.8215 30.8602 12.723V11.5992C30.8602 11.5008 30.7781 11.4269 30.6879 11.4269H30.6797C30.5813 11.4269 30.5074 11.5008 30.5074 11.5992V12.723C30.5074 12.8215 30.4254 12.8953 30.3352 12.8953H30.327C30.2285 12.8953 30.1547 12.8215 30.1547 12.723V11.5992C30.1547 11.5008 30.0727 11.4269 29.9824 11.4269H29.9742C29.8758 11.4269 29.802 11.5008 29.802 11.5992V11.9847C29.802 12.0832 29.7199 12.157 29.6297 12.157H28.5469C28.4484 12.157 28.3746 12.2308 28.3746 12.3293V13.0758C28.3746 13.1742 28.4566 13.248 28.5469 13.248H29.2687C29.3672 13.248 29.441 13.1742 29.441 13.0758V13.0676C29.441 12.9691 29.359 12.8953 29.2687 12.8953H28.875C28.7766 12.8953 28.7027 12.8215 28.7027 12.723V12.7066C28.7027 12.6082 28.7848 12.5344 28.875 12.5344H29.6051C29.7035 12.5344 29.7773 12.6082 29.7773 12.7066V13.084C29.7773 13.1824 29.8594 13.2562 29.9496 13.2562H31.3934C31.4918 13.2562 31.5656 13.1824 31.5656 13.084V11.6074C31.5656 11.509 31.4918 11.4269 31.3934 11.4269Z" fill="#F5F5F5"/>
<path d="M25.6594 13.2562C25.7578 13.2562 25.8316 13.1824 25.8316 13.084V13.0758C25.8316 12.9773 25.7496 12.9035 25.6594 12.9035H25.6512C25.5527 12.9035 25.4789 12.9773 25.4789 13.0758V13.084C25.4789 13.1742 25.5609 13.2562 25.6594 13.2562Z" fill="#F5F5F5"/>
<path d="M24.9375 11.7961H29.2524C29.3508 11.7961 29.4246 11.7222 29.4246 11.6238V11.6074C29.4246 11.5089 29.3426 11.4351 29.2524 11.4351H24.9375C24.8391 11.4351 24.7652 11.5089 24.7652 11.6074V11.6238C24.757 11.714 24.8391 11.7961 24.9375 11.7961Z" fill="#F5F5F5"/>
<path d="M32.8289 13.2562C32.9273 13.2562 33.0012 13.1824 33.0012 13.084V13.0758C33.0012 12.9773 32.9191 12.9035 32.8289 12.9035H32.8125C32.7141 12.9035 32.6402 12.9773 32.6402 13.0758V13.084C32.6402 13.1824 32.7223 13.2562 32.8125 13.2562H32.8289Z" fill="#F5F5F5"/>
<path d="M32.0988 11.7961H36.4137C36.5121 11.7961 36.5859 11.7222 36.5859 11.6238V11.6074C36.5859 11.5089 36.5039 11.4351 36.4137 11.4351H32.0988C32.0004 11.4351 31.9266 11.5089 31.9266 11.6074V11.6238C31.9266 11.714 32.0004 11.7961 32.0988 11.7961Z" fill="#F5F5F5"/>
<path d="M38.5629 11.4269C38.4644 11.4269 38.3824 11.5008 38.3824 11.5992V12.723C38.3824 12.8215 38.3004 12.8953 38.2101 12.8953H38.1937C38.0953 12.8953 38.0215 12.8215 38.0215 12.723V11.5992C38.0215 11.5008 37.9394 11.4269 37.8492 11.4269H37.841C37.7426 11.4269 37.6687 11.5008 37.6687 11.5992V12.723C37.6687 12.8215 37.5867 12.8953 37.4965 12.8953H37.4883C37.3898 12.8953 37.316 12.8215 37.316 12.723V11.5992C37.316 11.5008 37.234 11.4269 37.1437 11.4269H37.1355C37.0371 11.4269 36.9633 11.5008 36.9633 11.5992V11.9847C36.9633 12.0832 36.8812 12.157 36.791 12.157H35.6836C35.5852 12.157 35.5113 12.2308 35.5113 12.3293V13.0758C35.5113 13.1742 35.5934 13.248 35.6836 13.248H36.4055C36.5039 13.248 36.5777 13.1742 36.5777 13.0758V13.0676C36.5777 12.9691 36.4957 12.8953 36.4055 12.8953H36.0445C35.9461 12.8953 35.8723 12.8215 35.8723 12.723V12.7066C35.8723 12.6082 35.9543 12.5344 36.0445 12.5344H36.7664C36.8648 12.5344 36.9387 12.6082 36.9387 12.7066V13.084C36.9387 13.1824 37.0207 13.2562 37.1109 13.2562H38.5547C38.6531 13.2562 38.7269 13.1824 38.7269 13.084V11.6074C38.7351 11.509 38.6531 11.4269 38.5629 11.4269Z" fill="#F5F5F5"/>
<path d="M34.9781 12.1652H34.2562C34.1578 12.1652 34.084 12.239 34.084 12.3375V12.3539C34.084 12.4523 34.166 12.5262 34.2562 12.5262H34.6254C34.7238 12.5262 34.7977 12.6 34.7977 12.6984V12.7148C34.7977 12.8133 34.7156 12.8871 34.6254 12.8871H33.8871C33.7887 12.8871 33.7148 12.8133 33.7148 12.7148V12.3293C33.7148 12.2308 33.6328 12.157 33.5426 12.157H32.0988C32.0004 12.157 31.9266 12.2308 31.9266 12.3293V13.0758C31.9266 13.1742 32.0086 13.248 32.0988 13.248H32.107C32.2055 13.248 32.2793 13.1742 32.2793 13.0758V12.6984C32.2793 12.6 32.3613 12.5262 32.4516 12.5262H33.1816C33.2801 12.5262 33.3539 12.6 33.3539 12.6984V13.0758C33.3539 13.1742 33.4359 13.248 33.5262 13.248H34.9699C35.0684 13.248 35.1422 13.1742 35.1422 13.0758V12.3293C35.1504 12.239 35.0766 12.1652 34.9781 12.1652Z" fill="#F5F5F5"/>
<path d="M39.0961 12.3375V13.084C39.0961 13.1824 39.1781 13.2562 39.2684 13.2562H39.2766C39.375 13.2562 39.4488 13.1742 39.4488 13.084V12.7066C39.4488 12.6082 39.5309 12.5344 39.6211 12.5344H40.2199C40.1625 12.4113 40.1133 12.2883 40.0559 12.1652H39.2684C39.1699 12.1652 39.0961 12.239 39.0961 12.3375Z" fill="#F5F5F5"/>
<path d="M39.982 13.2562H39.9902C40.0887 13.2562 40.1625 13.1824 40.1625 13.084V13.0758C40.1625 12.9773 40.0805 12.9035 39.9902 12.9035H39.982C39.8836 12.9035 39.8098 12.9773 39.8098 13.0758V13.084C39.8098 13.1742 39.8918 13.2562 39.982 13.2562Z" fill="#F5F5F5"/>
<path d="M2.90391 14.1914V13.8058C2.90391 13.7074 2.83008 13.6336 2.73164 13.6336H1.32891C1.23867 13.8797 1.14844 14.1176 1.06641 14.3637H2.72344C2.83008 14.3637 2.90391 14.2898 2.90391 14.1914Z" fill="#F5F5F5"/>
<path d="M6.31641 13.6336H3.43712C3.33868 13.6336 3.26485 13.7074 3.26485 13.8058V14.1914C3.26485 14.2898 3.34689 14.3637 3.43712 14.3637H6.31641C6.41485 14.3637 6.48868 14.2898 6.48868 14.1914V13.8058C6.48868 13.7074 6.40665 13.6336 6.31641 13.6336Z" fill="#F5F5F5"/>
<path d="M9.89297 13.6336H7.02187C6.92344 13.6336 6.84961 13.7074 6.84961 13.8058V14.1914C6.84961 14.2898 6.92344 14.3637 7.02187 14.3637H9.90117C9.99961 14.3637 10.0734 14.2898 10.0734 14.1914V13.8058C10.0734 13.7074 9.99141 13.6336 9.89297 13.6336Z" fill="#F5F5F5"/>
<path d="M13.4777 13.6336H10.5984C10.5 13.6336 10.4262 13.7074 10.4262 13.8058V14.1914C10.4262 14.2898 10.5 14.3637 10.5984 14.3637H13.4777C13.5762 14.3637 13.65 14.2898 13.65 14.1914V13.8058C13.65 13.7074 13.5762 13.6336 13.4777 13.6336Z" fill="#F5F5F5"/>
<path d="M17.0625 13.6336H14.1832C14.0848 13.6336 14.011 13.7074 14.011 13.8058V14.1914C14.011 14.2898 14.0848 14.3637 14.1832 14.3637H17.0625C17.161 14.3637 17.2348 14.2898 17.2348 14.1914V13.8058C17.2348 13.7074 17.161 13.6336 17.0625 13.6336Z" fill="#F5F5F5"/>
<path d="M20.6473 13.6336H17.768C17.6695 13.6336 17.5957 13.7074 17.5957 13.8058V14.1914C17.5957 14.2898 17.6695 14.3637 17.768 14.3637H20.6473C20.7457 14.3637 20.8195 14.2898 20.8195 14.1914V13.8058C20.8195 13.7074 20.7375 13.6336 20.6473 13.6336Z" fill="#F5F5F5"/>
<path d="M24.2238 13.6336H21.3445C21.2461 13.6336 21.1723 13.7074 21.1723 13.8058V14.1914C21.1723 14.2898 21.2543 14.3637 21.3445 14.3637H24.2238C24.3223 14.3637 24.3961 14.2898 24.3961 14.1914V13.8058C24.4043 13.7074 24.3223 13.6336 24.2238 13.6336Z" fill="#F5F5F5"/>
<path d="M31.3934 13.6336H28.5223C28.4238 13.6336 28.35 13.7074 28.35 13.8058V14.1914C28.35 14.2898 28.432 14.3637 28.5223 14.3637H31.3934C31.4918 14.3637 31.5656 14.2898 31.5656 14.1914V13.8058C31.5656 13.7074 31.4918 13.6336 31.3934 13.6336Z" fill="#F5F5F5"/>
<path d="M27.8086 13.6336H24.9375C24.8391 13.6336 24.7652 13.7074 24.7652 13.8058V14.1914C24.7652 14.2898 24.8473 14.3637 24.9375 14.3637H27.8086C27.907 14.3637 27.9809 14.2898 27.9809 14.1914V13.8058C27.9809 13.7074 27.907 13.6336 27.8086 13.6336Z" fill="#F5F5F5"/>
<path d="M34.9781 13.6336H32.0988C32.0004 13.6336 31.9266 13.7074 31.9266 13.8058V14.1914C31.9266 14.2898 32.0086 14.3637 32.0988 14.3637H34.9781C35.0766 14.3637 35.1504 14.2898 35.1504 14.1914V13.8058C35.1504 13.7074 35.0766 13.6336 34.9781 13.6336Z" fill="#F5F5F5"/>
<path d="M38.5629 13.6336H35.6918C35.5934 13.6336 35.5195 13.7074 35.5195 13.8058V14.1914C35.5195 14.2898 35.6016 14.3637 35.6918 14.3637H38.5629C38.6613 14.3637 38.7352 14.2898 38.7352 14.1914V13.8058C38.7352 13.7074 38.6531 13.6336 38.5629 13.6336Z" fill="#F5F5F5"/>
<path d="M39.0961 13.8058V14.1914C39.0961 14.2898 39.1781 14.3637 39.2684 14.3637H40.9254C40.8434 14.1176 40.7531 13.8715 40.6629 13.6336H39.2602C39.1699 13.6336 39.0961 13.7074 39.0961 13.8058Z" fill="#F5F5F5"/>
<path d="M39.0961 28.9242V30.4008C39.0961 30.4992 39.1781 30.573 39.2684 30.573H39.2766C39.375 30.573 39.4488 30.491 39.4488 30.4008V29.2769C39.4488 29.1785 39.5309 29.1047 39.6211 29.1047H39.6375C39.7359 29.1047 39.8098 29.1867 39.8098 29.2769V30.327C39.9328 30.0809 40.0477 29.8348 40.1625 29.5805V29.2687C40.1625 29.1703 40.2445 29.0965 40.3348 29.0965H40.3512C40.3594 29.0965 40.3676 29.0965 40.3676 29.0965C40.4168 28.9734 40.466 28.8586 40.5152 28.7355H39.2602C39.1699 28.7437 39.0961 28.8258 39.0961 28.9242Z" fill="#F5F5F5"/>
<path d="M37.8492 29.1047C37.9477 29.1047 38.0215 29.0227 38.0215 28.9324V28.9242C38.0215 28.8258 37.9395 28.752 37.8492 28.752H37.841C37.7426 28.752 37.6688 28.834 37.6688 28.9242V28.9324C37.6688 29.0309 37.7508 29.1047 37.841 29.1047H37.8492Z" fill="#F5F5F5"/>
<path d="M35.1586 29.6625V28.916C35.1586 28.8176 35.0766 28.7437 34.9863 28.7437H34.2563C34.1578 28.7437 34.084 28.8258 34.084 28.916V28.9242C34.084 29.0227 34.166 29.0965 34.2563 29.0965H34.6254C34.7238 29.0965 34.7977 29.1785 34.7977 29.2687V29.2852C34.7977 29.3836 34.7156 29.4574 34.6254 29.4574H33.9035C33.8051 29.4574 33.7313 29.3754 33.7313 29.2852V28.9078C33.7313 28.8094 33.6492 28.7355 33.559 28.7355H32.1152C32.0168 28.7355 31.943 28.8176 31.943 28.9078V30.3844C31.943 30.4828 32.025 30.5566 32.1152 30.5566H32.1234C32.2219 30.5566 32.2957 30.4746 32.2957 30.3844V29.2605C32.2957 29.1621 32.3777 29.0883 32.468 29.0883H32.4762C32.5746 29.0883 32.6484 29.1703 32.6484 29.2605V30.3844C32.6484 30.4828 32.7305 30.5566 32.8207 30.5566H32.8371C32.9355 30.5566 33.0094 30.4746 33.0094 30.3844V29.2605C33.0094 29.1621 33.0914 29.0883 33.1816 29.0883H33.198C33.2965 29.0883 33.3703 29.1703 33.3703 29.2605V30.3844C33.3703 30.4828 33.4523 30.5566 33.5426 30.5566H33.5508C33.6492 30.5566 33.723 30.4746 33.723 30.3844V29.9988C33.723 29.9004 33.8051 29.8266 33.8953 29.8266H34.9781C35.0766 29.8348 35.1586 29.7609 35.1586 29.6625Z" fill="#F5F5F5"/>
<path d="M38.5629 30.2039H34.248C34.1496 30.2039 34.0758 30.2777 34.0758 30.3762V30.3926C34.0758 30.491 34.1578 30.5648 34.248 30.5648H38.5629C38.6613 30.5648 38.7352 30.4828 38.7352 30.3926V30.3762C38.7352 30.2859 38.6613 30.2039 38.5629 30.2039Z" fill="#F5F5F5"/>
<path d="M38.5629 28.7437H38.5547C38.4562 28.7437 38.3824 28.8257 38.3824 28.916V29.2933C38.3824 29.3918 38.3004 29.4656 38.2101 29.4656H37.4883C37.3898 29.4656 37.316 29.3836 37.316 29.2933V28.916C37.316 28.8175 37.234 28.7437 37.1437 28.7437H35.6836C35.5852 28.7437 35.5113 28.8257 35.5113 28.916V29.6625C35.5113 29.7609 35.5934 29.8348 35.6836 29.8348H36.4055C36.5039 29.8348 36.5777 29.7527 36.5777 29.6625V29.6461C36.5777 29.5476 36.4957 29.4738 36.4055 29.4738H36.0363C35.9379 29.4738 35.8641 29.3918 35.8641 29.3015V29.2851C35.8641 29.1867 35.9461 29.1129 36.0363 29.1129H36.7664C36.8648 29.1129 36.9387 29.1949 36.9387 29.2851V29.6707C36.9387 29.7691 37.0207 29.843 37.1109 29.843H38.5547C38.6531 29.843 38.7269 29.7609 38.7269 29.6707V28.9242C38.7352 28.8257 38.6613 28.7437 38.5629 28.7437Z" fill="#F5F5F5"/>
<path d="M27.9973 29.6625V28.916C27.9973 28.8176 27.9152 28.7437 27.825 28.7437H27.0949C26.9965 28.7437 26.9227 28.8258 26.9227 28.916V28.9242C26.9227 29.0227 27.0047 29.0965 27.0949 29.0965H27.4641C27.5625 29.0965 27.6363 29.1785 27.6363 29.2687V29.2852C27.6363 29.3836 27.5543 29.4574 27.4641 29.4574H26.734C26.6355 29.4574 26.5617 29.3754 26.5617 29.2852V28.9078C26.5617 28.8094 26.4879 28.7355 26.3895 28.7355H24.9375C24.8391 28.7355 24.7652 28.8176 24.7652 28.9078V30.3844C24.7652 30.4828 24.8473 30.5566 24.9375 30.5566H24.9457C25.0441 30.5566 25.118 30.4746 25.118 30.3844V29.2605C25.118 29.1621 25.2 29.0883 25.2902 29.0883H25.2984C25.3969 29.0883 25.4707 29.1703 25.4707 29.2605V30.3844C25.4707 30.4828 25.5527 30.5566 25.643 30.5566H25.6594C25.7578 30.5566 25.8316 30.4746 25.8316 30.3844V29.2605C25.8316 29.1621 25.9137 29.0883 26.0039 29.0883H26.0121C26.1105 29.0883 26.1844 29.1703 26.1844 29.2605V30.3844C26.1844 30.4828 26.2664 30.5566 26.3566 30.5566H26.3648C26.4633 30.5566 26.5371 30.4746 26.5371 30.3844V29.9988C26.5371 29.9004 26.6191 29.8266 26.7094 29.8266H27.8004C27.9152 29.8348 27.9973 29.7609 27.9973 29.6625Z" fill="#F5F5F5"/>
<path d="M31.4016 30.2039H27.0949C26.9965 30.2039 26.9227 30.2777 26.9227 30.3762V30.3926C26.9227 30.491 27.0047 30.5648 27.0949 30.5648H31.4016C31.5 30.5648 31.5738 30.4828 31.5738 30.3926V30.3762C31.5738 30.2859 31.4918 30.2039 31.4016 30.2039Z" fill="#F5F5F5"/>
<path d="M30.6797 29.1047C30.7781 29.1047 30.852 29.0227 30.852 28.9324V28.9242C30.852 28.8258 30.7699 28.752 30.6797 28.752H30.6715C30.573 28.752 30.4992 28.834 30.4992 28.9242V28.9324C30.4992 29.0309 30.5812 29.1047 30.6715 29.1047H30.6797Z" fill="#F5F5F5"/>
<path d="M31.4016 28.7437H31.3934C31.2949 28.7437 31.2211 28.8257 31.2211 28.916V29.2933C31.2211 29.3918 31.1391 29.4656 31.0488 29.4656H30.327C30.2285 29.4656 30.1547 29.3836 30.1547 29.2933V28.916C30.1547 28.8175 30.0727 28.7437 29.9824 28.7437H28.5387C28.4402 28.7437 28.3664 28.8257 28.3664 28.916V29.6625C28.3664 29.7609 28.4484 29.8348 28.5387 29.8348H29.2687C29.3672 29.8348 29.441 29.7527 29.441 29.6625V29.6461C29.441 29.5476 29.359 29.4738 29.2687 29.4738H28.8996C28.8012 29.4738 28.7273 29.3918 28.7273 29.3015V29.2851C28.7273 29.1867 28.8094 29.1129 28.8996 29.1129H29.6215C29.7199 29.1129 29.7938 29.1949 29.7938 29.2851V29.6707C29.7938 29.7691 29.8758 29.843 29.966 29.843H31.4098C31.5082 29.843 31.582 29.7609 31.582 29.6707V28.9242C31.5738 28.8257 31.4918 28.7437 31.4016 28.7437Z" fill="#F5F5F5"/>
<path d="M20.8195 29.6625V28.916C20.8195 28.8176 20.7457 28.7437 20.6473 28.7437H19.9172C19.8188 28.7437 19.7449 28.8258 19.7449 28.916V28.9242C19.7449 29.0227 19.8188 29.0965 19.9172 29.0965H20.2863C20.3848 29.0965 20.4586 29.1785 20.4586 29.2687V29.2852C20.4586 29.3836 20.3848 29.4574 20.2863 29.4574H19.5562C19.4578 29.4574 19.384 29.3754 19.384 29.2852V28.9078C19.384 28.8094 19.3102 28.7355 19.2117 28.7355H17.768C17.6695 28.7355 17.5957 28.8176 17.5957 28.9078V30.3844C17.5957 30.4828 17.6695 30.5566 17.768 30.5566H17.7762C17.8746 30.5566 17.9484 30.4746 17.9484 30.3844V29.2605C17.9484 29.1621 18.0223 29.0883 18.1207 29.0883H18.1289C18.2273 29.0883 18.3012 29.1703 18.3012 29.2605V30.3844C18.3012 30.4828 18.375 30.5566 18.4734 30.5566H18.4816C18.5801 30.5566 18.6539 30.4746 18.6539 30.3844V29.2605C18.6539 29.1621 18.7277 29.0883 18.8262 29.0883H18.8344C18.9328 29.0883 19.0066 29.1703 19.0066 29.2605V30.3844C19.0066 30.4828 19.0805 30.5566 19.1789 30.5566H19.1871C19.2855 30.5566 19.3594 30.4746 19.3594 30.3844V29.9988C19.3594 29.9004 19.4332 29.8266 19.5316 29.8266H20.6227C20.7457 29.8348 20.8195 29.7609 20.8195 29.6625Z" fill="#F5F5F5"/>
<path d="M23.5102 29.1047C23.6086 29.1047 23.6824 29.0227 23.6824 28.9324V28.9242C23.6824 28.8258 23.6004 28.752 23.5102 28.752H23.502C23.4035 28.752 23.3297 28.834 23.3297 28.9242V28.9324C23.3297 29.0227 23.4117 29.1047 23.5102 29.1047Z" fill="#F5F5F5"/>
<path d="M24.232 28.7437H24.2238C24.1254 28.7437 24.0516 28.8257 24.0516 28.916V29.2933C24.0516 29.3918 23.9695 29.4656 23.8793 29.4656H23.1574C23.059 29.4656 22.9852 29.3836 22.9852 29.2933V28.916C22.9852 28.8175 22.9031 28.7437 22.8129 28.7437H21.3691C21.2707 28.7437 21.1969 28.8257 21.1969 28.916V29.6625C21.1969 29.7609 21.2789 29.8348 21.3691 29.8348H22.0992C22.1977 29.8348 22.2715 29.7527 22.2715 29.6625V29.6461C22.2715 29.5476 22.1895 29.4738 22.0992 29.4738H21.7301C21.6316 29.4738 21.5578 29.3918 21.5578 29.3015V29.2851C21.5578 29.1867 21.6398 29.1129 21.7301 29.1129H22.452C22.5504 29.1129 22.6242 29.1949 22.6242 29.2851V29.6707C22.6242 29.7691 22.7062 29.843 22.7965 29.843H24.2402C24.3387 29.843 24.4125 29.7609 24.4125 29.6707V28.9242C24.4043 28.8257 24.3305 28.7437 24.232 28.7437Z" fill="#F5F5F5"/>
<path d="M24.232 30.2039H19.9172C19.8187 30.2039 19.7449 30.2777 19.7449 30.3762V30.3926C19.7449 30.491 19.8187 30.5648 19.9172 30.5648H24.232C24.3305 30.5648 24.4043 30.4828 24.4043 30.3926V30.3762C24.4043 30.2859 24.3305 30.2039 24.232 30.2039Z" fill="#F5F5F5"/>
<path d="M17.0625 28.7437H17.0543C16.9559 28.7437 16.882 28.8257 16.882 28.916V29.2933C16.882 29.3918 16.8082 29.4656 16.7098 29.4656H15.9879C15.8895 29.4656 15.8156 29.3836 15.8156 29.2933V28.916C15.8156 28.8175 15.7418 28.7437 15.6434 28.7437H14.1914C14.093 28.7437 14.0191 28.8257 14.0191 28.916V29.6625C14.0191 29.7609 14.093 29.8348 14.1914 29.8348H14.9133C15.0117 29.8348 15.0856 29.7527 15.0856 29.6625V29.6461C15.0856 29.5476 15.0117 29.4738 14.9133 29.4738H14.5523C14.4539 29.4738 14.3801 29.3918 14.3801 29.3015V29.2851C14.3801 29.1867 14.4539 29.1129 14.5523 29.1129H15.2742C15.3727 29.1129 15.4465 29.1949 15.4465 29.2851V29.6707C15.4465 29.7691 15.5203 29.843 15.6188 29.843H17.0625C17.1609 29.843 17.2348 29.7609 17.2348 29.6707V28.9242C17.243 28.8257 17.1609 28.7437 17.0625 28.7437Z" fill="#F5F5F5"/>
<path d="M16.3488 29.1047C16.4473 29.1047 16.5211 29.0227 16.5211 28.9324V28.9242C16.5211 28.8258 16.4473 28.752 16.3488 28.752H16.3406C16.2422 28.752 16.1684 28.834 16.1684 28.9242V28.9324C16.1684 29.0227 16.2422 29.1047 16.3488 29.1047Z" fill="#F5F5F5"/>
<path d="M17.0625 30.2039H12.7477C12.6492 30.2039 12.5754 30.2777 12.5754 30.3762V30.3926C12.5754 30.491 12.6492 30.5648 12.7477 30.5648H17.0625C17.1609 30.5648 17.2348 30.4828 17.2348 30.3926V30.3762C17.243 30.2859 17.1609 30.2039 17.0625 30.2039Z" fill="#F5F5F5"/>
<path d="M13.65 29.6625V28.916C13.65 28.8176 13.5762 28.7437 13.4777 28.7437H12.7558C12.6574 28.7437 12.5836 28.8258 12.5836 28.916V28.9242C12.5836 29.0227 12.6574 29.0965 12.7558 29.0965H13.125C13.2234 29.0965 13.2973 29.1785 13.2973 29.2687V29.2852C13.2973 29.3836 13.2234 29.4574 13.125 29.4574H12.3949C12.2965 29.4574 12.2226 29.3754 12.2226 29.2852V28.9078C12.2226 28.8094 12.1488 28.7355 12.0504 28.7355H10.6066C10.5082 28.7355 10.4344 28.8176 10.4344 28.9078V30.3844C10.4344 30.4828 10.5082 30.5566 10.6066 30.5566H10.6148C10.7133 30.5566 10.7871 30.4746 10.7871 30.3844V29.2605C10.7871 29.1621 10.8609 29.0883 10.9594 29.0883H10.9676C11.066 29.0883 11.1398 29.1703 11.1398 29.2605V30.3844C11.1398 30.4828 11.2137 30.5566 11.3121 30.5566H11.3203C11.4187 30.5566 11.4926 30.4746 11.4926 30.3844V29.2605C11.4926 29.1621 11.5664 29.0883 11.6648 29.0883H11.673C11.7715 29.0883 11.8453 29.1703 11.8453 29.2605V30.3844C11.8453 30.4828 11.9191 30.5566 12.0176 30.5566H12.0258C12.1242 30.5566 12.198 30.4746 12.198 30.3844V29.9988C12.198 29.9004 12.2719 29.8266 12.3703 29.8266H13.4531C13.5762 29.8348 13.65 29.7609 13.65 29.6625Z" fill="#F5F5F5"/>
<path d="M9.18749 29.1047C9.28592 29.1047 9.35975 29.0227 9.35975 28.9324V28.9242C9.35975 28.8258 9.28592 28.752 9.18749 28.752H9.17108C9.07264 28.752 8.99881 28.834 8.99881 28.9242V28.9324C8.99881 29.0309 9.07264 29.1047 9.17108 29.1047H9.18749Z" fill="#F5F5F5"/>
<path d="M9.90117 28.7437H9.89297C9.79453 28.7437 9.7207 28.8257 9.7207 28.916V29.2933C9.7207 29.3918 9.64688 29.4656 9.54844 29.4656H8.81836C8.71992 29.4656 8.64609 29.3836 8.64609 29.2933V28.916C8.64609 28.8175 8.57227 28.7437 8.47383 28.7437H7.02187C6.92344 28.7437 6.84961 28.8257 6.84961 28.916V29.6625C6.84961 29.7609 6.92344 29.8348 7.02187 29.8348H7.74375C7.84219 29.8348 7.91602 29.7527 7.91602 29.6625V29.6461C7.91602 29.5476 7.84219 29.4738 7.74375 29.4738H7.37461C7.27617 29.4738 7.20234 29.3918 7.20234 29.3015V29.2851C7.20234 29.1867 7.27617 29.1129 7.37461 29.1129H8.11289C8.21133 29.1129 8.28516 29.1949 8.28516 29.2851V29.6707C8.28516 29.7691 8.35898 29.843 8.45742 29.843H9.90117C9.99961 29.843 10.0734 29.7609 10.0734 29.6707V28.9242C10.0734 28.8257 9.99961 28.7437 9.90117 28.7437Z" fill="#F5F5F5"/>
<path d="M6.48868 29.6625V28.916C6.48868 28.8176 6.41485 28.7437 6.31641 28.7437H5.59454C5.4961 28.7437 5.42227 28.8258 5.42227 28.916V28.9242C5.42227 29.0227 5.4961 29.0965 5.59454 29.0965H5.95548C6.05391 29.0965 6.12774 29.1785 6.12774 29.2687V29.2852C6.12774 29.3836 6.05391 29.4574 5.95548 29.4574H5.2336C5.13517 29.4574 5.06134 29.3754 5.06134 29.2852V28.9078C5.06134 28.8094 4.97931 28.7355 4.88907 28.7355H3.43712C3.33868 28.7355 3.26485 28.8176 3.26485 28.9078V30.3844C3.26485 30.4828 3.34689 30.5566 3.43712 30.5566H3.44532C3.54376 30.5566 3.61759 30.4746 3.61759 30.3844V29.2605C3.61759 29.1621 3.69962 29.0883 3.78985 29.0883H3.80626C3.9047 29.0883 3.97853 29.1703 3.97853 29.2605V30.3844C3.97853 30.4828 4.06056 30.5566 4.15079 30.5566H4.15899C4.25743 30.5566 4.33126 30.4746 4.33126 30.3844V29.2605C4.33126 29.1621 4.41329 29.0883 4.50353 29.0883H4.51173C4.61017 29.0883 4.68399 29.1703 4.68399 29.2605V30.3844C4.68399 30.4828 4.76602 30.5566 4.85626 30.5566H4.86446C4.9629 30.5566 5.03673 30.4746 5.03673 30.3844V29.9988C5.03673 29.9004 5.11876 29.8266 5.20899 29.8266H6.31641C6.40665 29.8348 6.48868 29.7609 6.48868 29.6625Z" fill="#F5F5F5"/>
<path d="M9.90117 30.2039H5.58633C5.48789 30.2039 5.41406 30.2777 5.41406 30.3762V30.3926C5.41406 30.491 5.48789 30.5648 5.58633 30.5648H9.90117C9.99961 30.5648 10.0734 30.4828 10.0734 30.3926V30.3762C10.0734 30.2859 9.99961 30.2039 9.90117 30.2039Z" fill="#F5F5F5"/>
<path d="M2.9039 29.6625V28.916C2.9039 28.8175 2.83007 28.7437 2.73163 28.7437H2.72343C2.62499 28.7437 2.55116 28.8257 2.55116 28.916V29.2933C2.55116 29.3918 2.46913 29.4656 2.3789 29.4656H1.78007C1.83749 29.5887 1.88671 29.7117 1.94413 29.8348H2.73163C2.83007 29.8348 2.9039 29.7609 2.9039 29.6625Z" fill="#F5F5F5"/>
<path d="M2.73165 30.573C2.83009 30.573 2.90391 30.491 2.90391 30.4008V30.3844C2.90391 30.2859 2.82188 30.2121 2.73165 30.2121H2.12461C2.18204 30.3352 2.24766 30.4582 2.30508 30.5812H2.73165V30.573Z" fill="#F5F5F5"/>
<path d="M2.01797 28.7437H2.00977C1.91133 28.7437 1.83751 28.8258 1.83751 28.916V28.9242C1.83751 29.0226 1.91954 29.0965 2.00977 29.0965H2.01797C2.11641 29.0965 2.19024 29.0144 2.19024 28.9242V28.916C2.19024 28.8258 2.10821 28.7437 2.01797 28.7437Z" fill="#F5F5F5"/>
<path d="M32.107 28.3664H34.9863C35.0848 28.3664 35.1586 28.2844 35.1586 28.1941V27.8086C35.1586 27.7101 35.0766 27.6363 34.9863 27.6363H32.107C32.0086 27.6363 31.9348 27.7183 31.9348 27.8086V28.1941C31.9266 28.2926 32.0086 28.3664 32.107 28.3664Z" fill="#F5F5F5"/>
<path d="M38.5629 27.6363H35.6836C35.5852 27.6363 35.5113 27.7183 35.5113 27.8086V28.1941C35.5113 28.2926 35.5934 28.3664 35.6836 28.3664H38.5629C38.6613 28.3664 38.7352 28.2844 38.7352 28.1941V27.8086C38.7352 27.7101 38.6613 27.6363 38.5629 27.6363Z" fill="#F5F5F5"/>
<path d="M31.4016 27.6363H28.5223C28.4238 27.6363 28.35 27.7183 28.35 27.8086V28.1941C28.35 28.2926 28.432 28.3664 28.5223 28.3664H31.4016C31.5 28.3664 31.5738 28.2844 31.5738 28.1941V27.8086C31.5738 27.7101 31.4918 27.6363 31.4016 27.6363Z" fill="#F5F5F5"/>
<path d="M24.9375 28.3664H27.8168C27.9152 28.3664 27.9891 28.2844 27.9891 28.1941V27.8086C27.9891 27.7101 27.907 27.6363 27.8168 27.6363H24.9375C24.8391 27.6363 24.7652 27.7183 24.7652 27.8086V28.1941C24.7652 28.2926 24.8391 28.3664 24.9375 28.3664Z" fill="#F5F5F5"/>
<path d="M17.7762 28.3664H20.6555C20.7539 28.3664 20.8277 28.2844 20.8277 28.1941V27.8086C20.8277 27.7101 20.7539 27.6363 20.6555 27.6363H17.7762C17.6777 27.6363 17.6039 27.7183 17.6039 27.8086V28.1941C17.5957 28.2926 17.6777 28.3664 17.7762 28.3664Z" fill="#F5F5F5"/>
<path d="M24.232 27.6363H21.3527C21.2543 27.6363 21.1805 27.7183 21.1805 27.8086V28.1941C21.1805 28.2926 21.2625 28.3664 21.3527 28.3664H24.232C24.3305 28.3664 24.4043 28.2844 24.4043 28.1941V27.8086C24.4043 27.7101 24.3305 27.6363 24.232 27.6363Z" fill="#F5F5F5"/>
<path d="M17.0625 27.6363H14.1914C14.093 27.6363 14.0191 27.7183 14.0191 27.8086V28.1941C14.0191 28.2926 14.093 28.3664 14.1914 28.3664H17.0625C17.1609 28.3664 17.2348 28.2844 17.2348 28.1941V27.8086C17.243 27.7101 17.1609 27.6363 17.0625 27.6363Z" fill="#F5F5F5"/>
<path d="M10.6066 28.3664H13.4777C13.5762 28.3664 13.65 28.2844 13.65 28.1941V27.8086C13.65 27.7101 13.5762 27.6363 13.4777 27.6363H10.6066C10.5082 27.6363 10.4344 27.7183 10.4344 27.8086V28.1941C10.4344 28.2926 10.5082 28.3664 10.6066 28.3664Z" fill="#F5F5F5"/>
<path d="M9.90117 27.6363H7.02187C6.92344 27.6363 6.84961 27.7183 6.84961 27.8086V28.1941C6.84961 28.2926 6.92344 28.3664 7.02187 28.3664H9.90117C9.99961 28.3664 10.0734 28.2844 10.0734 28.1941V27.8086C10.0734 27.7101 9.99961 27.6363 9.90117 27.6363Z" fill="#F5F5F5"/>
<path d="M3.43712 28.3664H6.30822C6.40665 28.3664 6.48048 28.2844 6.48048 28.1941V27.8086C6.48048 27.7101 6.40665 27.6363 6.30822 27.6363H3.43712C3.33868 27.6363 3.26485 27.7183 3.26485 27.8086V28.1941C3.26485 28.2926 3.34689 28.3664 3.43712 28.3664Z" fill="#F5F5F5"/>
<path d="M39.0961 11.5992V11.6156C39.0961 11.714 39.1781 11.7879 39.2684 11.7879H39.8754C39.818 11.6648 39.7523 11.5418 39.6949 11.4187H39.2684C39.1699 11.4269 39.0961 11.509 39.0961 11.5992Z" fill="#F5F5F5"/>
<path d="M2.73163 28.3664C2.83007 28.3664 2.9039 28.2844 2.9039 28.1941V27.8086C2.9039 27.7101 2.82187 27.6363 2.73163 27.6363H1.0746C1.15664 27.8824 1.24687 28.1285 1.3371 28.3664H2.73163Z" fill="#F5F5F5"/>
<path d="M39.0961 27.8086V28.1941C39.0961 28.2926 39.1781 28.3664 39.2684 28.3664H40.6711C40.7613 28.1203 40.8516 27.8824 40.9336 27.6363H39.2766C39.1699 27.6363 39.0961 27.7101 39.0961 27.8086Z" fill="#F5F5F5"/>
<path d="M20.2863 16.9066C20.5406 16.9723 20.8195 16.8984 21.0082 16.7098C21.2953 16.9969 21.7547 17.0051 22.05 16.7262C22.2387 16.5375 22.3207 16.2586 22.2551 16.0043C22.009 16.4062 21.4758 16.5375 21.0738 16.2832C21.0492 16.2668 21.0246 16.2586 21.0082 16.2422C20.6309 16.5211 20.0895 16.4473 19.8023 16.0699C19.7941 16.0453 19.7695 16.0207 19.7613 16.0043C19.6465 16.398 19.8926 16.8082 20.2863 16.9066Z" fill="#FF4B55"/>
<path d="M21.8777 24.9129C22.7965 24.4043 23.5676 23.6086 23.9859 22.5586C24.6996 20.7621 24.2484 18.7277 22.8785 17.4152C22.8293 17.366 22.7637 17.4316 22.7965 17.4891C24.15 19.6957 23.6168 22.5996 21.525 24.191L21.6234 17.7762C21.6234 17.6859 21.5824 17.6039 21.5168 17.5547L21.1723 17.2758C21.0656 17.1937 20.918 17.1937 20.8113 17.2758L20.475 17.5465C20.4094 17.6039 20.3684 17.6859 20.3684 17.768L20.4668 24.1828C18.375 22.5914 17.8336 19.6875 19.1871 17.4809C19.2199 17.4234 19.1461 17.366 19.1051 17.407C17.7352 18.7277 17.284 20.7539 17.9977 22.5504C18.416 23.6004 19.1871 24.3961 20.1059 24.9047C19.5234 25.1016 18.9 25.2082 18.2766 25.1918C18.2109 25.1918 18.1945 25.282 18.2602 25.2984C19.0477 25.5363 19.868 25.5527 20.6309 25.3805L20.9344 25.9629C20.959 26.0039 21.0164 26.0039 21.0328 25.9629L21.3363 25.3805C22.0992 25.5527 22.9195 25.5363 23.707 25.2984C23.7727 25.282 23.7563 25.1836 23.6906 25.1918C23.0836 25.2164 22.4684 25.1098 21.8777 24.9129Z" fill="#FF4B55"/>
<path d="M25.6266 18.9492C25.159 18.0715 24.3715 17.3988 23.4445 17.0707C23.3871 17.0461 23.3379 17.1281 23.3871 17.1691C25.4461 18.8672 25.8562 21.8859 24.2648 24.068C24.1828 24.1746 24.0926 24.2977 24.0105 24.3879C25.9629 23.3379 26.6848 20.9016 25.6266 18.9492Z" fill="#FF4B55"/>
<path d="M17.7352 24.068C16.1437 21.8859 16.5539 18.8672 18.6129 17.1691C18.6621 17.1281 18.6129 17.0543 18.5555 17.0707C17.6285 17.3988 16.8492 18.0633 16.3734 18.9492C15.3152 20.9016 16.0371 23.3379 17.9977 24.3879C17.9074 24.2894 17.8172 24.1746 17.7352 24.068Z" fill="#FF4B55"/>
</svg>
