<svg width="42" height="42" viewBox="0 0 42 42" fill="none" xmlns="http://www.w3.org/2000/svg">
<path d="M33.8461 9.53203C34.6336 10.4754 35.9953 11.0168 36.7992 11.9684C36.2168 9.19571 34.084 6.92344 31.5492 6.38203C32.8043 7.30078 33.0668 8.58867 33.8461 9.53203ZM3.44531 16.5703C5.19258 12.7723 7.78477 13.5762 8.89219 9.975C8.25234 11.0578 5.41406 11.5254 4.10977 14.3555C4.79063 12.6656 4.4543 10.0898 5.57812 8.68711C2.18203 11.2219 3.62578 15.2824 3.44531 16.5703ZM6.58711 25.6594C6.90703 27.1277 5.98008 29.277 7.44844 31.3113C5.93906 29.6215 2.72344 29.1785 1.41914 26.6027C3.05156 32.8945 7.30898 31.6066 9.22031 32.9766C7.65352 30.7043 8.9332 29.1949 6.58711 25.6594ZM6.10313 29.6215C5.15977 26.1023 6.825 24.8801 5.56172 21.5004C5.43867 23.4117 4.15078 24.3387 5.02031 27.8168C3.51094 24.8555 1.17305 23.748 0.492188 21.7383C0.533203 27.2672 4.9793 28.0875 6.10313 29.6215ZM12.9199 35.5113C11.6156 33.6984 12.5016 32.673 8.83477 29.4C9.62227 30.6059 8.81836 32.1152 11.2875 34.4449C8.87578 33.0176 5.5207 33.6246 3.90469 31.7133C6.68555 37.0207 11.55 34.8469 12.9199 35.5113ZM30.7125 34.4449C33.1816 32.0906 32.3777 30.5813 33.1652 29.4C29.482 32.6813 30.3926 33.7066 29.0637 35.5113C30.45 34.8469 35.3145 37.0207 38.0707 31.7133C36.4793 33.641 33.1242 33.0176 30.7125 34.4449ZM34.5516 31.3113C36.0199 29.277 35.093 27.1523 35.3965 25.6594C33.0422 29.1949 34.3301 30.7043 32.7633 32.9766C34.691 31.6066 38.932 32.8945 40.5645 26.6027C39.252 29.1785 36.0609 29.6215 34.5516 31.3113ZM28.6781 35.7738C27.3738 35.4293 26.0203 35.2078 24.6586 35.1668C23.4117 35.1504 22.1648 35.3473 21 35.7902C19.8352 35.3473 18.5883 35.1504 17.3414 35.1668C15.9715 35.2078 14.6262 35.4293 13.3219 35.7738C11.107 36.3563 9.20391 36.8156 7.53047 35.9789C9.12187 37.3898 10.9922 37.9066 13.6828 37.6113C15.9141 37.3734 17.727 36.2414 19.8352 36.266H19.9172C18.5883 36.9305 17.407 37.8574 16.4391 38.9813L17.4645 39.1207C17.4645 39.1207 18.5309 36.9715 21 36.4055C23.4691 36.9715 24.5355 39.1207 24.5355 39.1207L25.5609 38.9813C24.593 37.8574 23.4117 36.9305 22.0828 36.266H22.1648C24.273 36.2496 26.0859 37.3734 28.3172 37.6113C31.0078 37.8902 32.8617 37.3898 34.4695 35.9789C32.8043 36.8156 30.893 36.3563 28.6781 35.7738ZM5.71758 17.6777C4.81523 19.425 3.38789 19.827 3.54375 23.4281C2.78086 20.2289 0.951563 19.023 0.967969 16.9969C-0.295312 22.3453 3.07617 22.9688 3.96211 25.2164C3.83086 22.0008 5.88164 21.3527 5.71758 17.6777ZM6.98906 13.5516C6.66914 13.9945 6.44766 14.1914 5.60273 14.8805C4.33945 15.8895 3.45352 17.3168 3.15 18.9C3.23203 16.9313 2.02617 14.1176 2.83008 12.0668C-0.287109 16.4719 3.01055 19.1051 3.13359 20.7129C3.91289 17.6367 5.7832 17.6203 6.98906 13.5516ZM38.85 18.9C38.5301 17.3086 37.6605 15.8813 36.3973 14.8805C35.5523 14.175 35.3309 13.9945 35.0109 13.5516C36.2168 17.6121 38.0871 17.6367 38.891 20.7129C39.0141 19.1215 42.3117 16.4883 39.1945 12.0668C39.9984 14.1176 38.7926 16.9313 38.85 18.9ZM41.5078 21.7383C40.827 23.7727 38.4891 24.8555 36.9879 27.8086C37.8492 24.3305 36.5695 23.4035 36.4465 21.4922C35.1832 24.8719 36.8484 26.0941 35.9051 29.6133C37.0207 28.0875 41.4668 27.2672 41.5078 21.7383ZM36.2824 17.6777C36.102 21.3609 38.1691 22.0008 38.0297 25.2164C38.891 22.9852 42.2953 22.3453 41.0238 16.9969C41.0402 19.0477 39.2109 20.2371 38.448 23.4527C38.6121 19.8105 37.2012 19.425 36.2824 17.6777ZM8.15391 9.53203C8.94141 8.58867 9.1957 7.30078 10.4426 6.37383C7.89141 6.91524 5.75859 9.1711 5.17617 11.9438C5.98008 11.0004 7.36641 10.459 8.15391 9.53203ZM33.1242 9.93399C34.2316 13.5516 36.8238 12.7477 38.5711 16.5293C38.3906 15.266 39.8344 11.1809 36.4383 8.68711C37.5867 10.0734 37.2422 12.6656 37.9066 14.3555C36.5859 11.5254 33.7477 11.0578 33.1242 9.93399ZM24.2812 12.0094C23.6168 11.7305 22.9113 11.55 22.2141 11.4434C22.2141 11.6074 22.2141 11.7469 22.2141 11.9027C22.8785 12.0012 23.5184 12.1816 24.1254 12.4277C24.1992 12.2883 24.2566 12.1488 24.2812 12.0094ZM23.7563 7.52227L23.8957 7.39922L23.6332 7.27617L22.9277 7.25977L22.7473 7.38282L22.3453 7.3418V7.44024C22.6078 7.45664 22.8703 7.48125 23.0672 7.52227L23.4117 7.50586L23.7563 7.52227ZM22.4273 22.5258C22.4273 22.4027 22.2633 22.2879 22.0418 22.1813H22.0008C22.0008 22.2797 21.9844 22.7473 21.9844 22.9852C22.2469 22.8457 22.4273 22.7227 22.4273 22.5258ZM14.3637 13.6992C14.3801 13.6172 14.4047 13.5188 14.4211 13.4367C14.3227 13.4531 14.2406 13.4777 14.1422 13.4531L14.3637 13.6992ZM11.1316 10.459L12.7805 12.1078C10.7871 14.175 9.66328 16.9559 9.62227 19.827H7.28438C7.32539 16.3078 8.69531 12.9691 11.1316 10.459ZM10.1227 23.2887L9.9832 23.2723L9.84375 23.1328L9.1793 23.0754L9.38438 23.3543L8.77734 23.2313L8.94141 23.0918L8.80195 22.9523L8.35898 23.1328L8.19492 23.4117L8.25234 24.0762L8.75273 25.282L8.99062 25.6676L9.13008 25.7086L8.74453 24.9867L8.6625 24.6258L8.74453 24.5438L8.68711 24.3387L8.90859 24.3797L9.26953 24.9047L9.35156 24.9457V24.5602L9.49102 24.6422L9.53203 24.8473L9.89297 24.9457L10.057 24.8227L10.1145 24.8637V25.1426L10.2785 25.3477L10.4836 25.3887L10.9266 26.1105L11.1891 26.1926L11.2711 25.8481C11.7305 26.5945 12.2555 27.2918 12.8789 27.9152L11.2301 29.5641C8.77734 27.0949 7.36641 23.7727 7.29258 20.2945H9.62227C9.63867 21.2953 9.81914 22.3207 10.1227 23.2887ZM12.4113 20.2699C12.4113 20.4914 12.4277 20.7129 12.4688 20.9508L12.1898 21.0082L12.1324 21.2871L11.5254 22.05L11.5418 23.0918L10.9348 23.2969H10.5902C10.2703 22.3125 10.1062 21.3035 10.0652 20.2617C10.0816 20.2699 12.4113 20.2699 12.4113 20.2699ZM12.9363 26.8488L13.4613 27.1523L13.5598 27.2344L13.1742 27.6199C12.9938 27.4395 12.8297 27.259 12.6738 27.0539L12.9363 26.8488ZM15.0691 14.3965L16.718 16.0453C16.3734 16.4309 16.0781 16.8492 15.8566 17.3086H15.7336L15.4957 17.366H15.4137L15.1758 17.5875L15.4957 17.5465L15.7746 17.4891L15.7172 17.5711L15.4793 17.7352H15.3562L14.9953 18.0141L14.6508 17.9731L14.1504 18.9164L14.2488 19.0969L13.9699 19.4168L13.9289 19.8188H12.8789C12.8953 17.8008 13.6828 15.8648 15.0691 14.3965ZM16.759 21.2133L16.882 21.1559L17.1855 21.3773L17.0461 21.4758L17.3906 21.6973L17.3742 21.4594L17.5547 21.1559L17.7598 21.3609L17.9648 21.6398L17.6039 21.7383L17.768 22.0582L18.0059 21.9188L17.9648 21.8203L18.1453 21.6973L18.2437 21.1969C18.3832 21.5004 18.5637 21.7793 18.7852 22.0172L17.1363 23.666C16.3324 22.8211 15.832 21.7383 15.6926 20.5734L16.0371 20.9344H16.357L16.759 21.2133ZM14.3883 19.466L14.4293 19.0066L14.7082 18.8426L15.2086 18.9246L15.2906 19.0066C15.2496 19.2691 15.2332 19.548 15.2086 19.8105H14.6426L14.3883 19.466ZM13.6172 21.0738L13.3957 21.4184H13.0102L12.9937 21.402C12.9363 21.041 12.8953 20.6555 12.8707 20.2945H13.5762L13.4121 20.8605L13.6172 21.0738ZM15.1676 25.6184C15.0035 25.4379 14.823 25.2574 14.6836 25.077L14.7656 24.4945L14.5277 23.9285L14.4703 23.0426L14.1914 22.5012L14.2488 22.1566L13.9043 21.5168L13.6254 21.3773L13.7484 21.0328L13.6254 20.7703L13.7484 20.4668H14.0684L14.1914 20.2863H14.7328L14.8148 20.4504L14.6918 20.9918L14.6344 21.0902L14.8395 21.5332L14.7 21.6152L14.6016 21.4922L14.5605 21.5332L14.659 21.7957L14.823 22.0992H14.9051L14.9461 21.8203L14.8641 21.7219V21.5414L14.8477 21.1559L14.9707 20.475L14.8477 20.2945H15.2332C15.3152 21.6809 15.873 22.9852 16.841 23.9941L15.1676 25.6184ZM29.2031 27.8742C31.1965 25.8234 32.3367 23.1082 32.4023 20.2781H34.732C34.65 23.7398 33.2637 27.0539 30.8355 29.523L29.2031 27.8742ZM28.5633 27.2262L28.7437 27.0211L28.5633 26.1188L28.4402 26.0777L28.5223 25.9137L28.1367 25.7906L28.0547 26.1105L28.0137 26.5125L27.9316 26.5945L27.2262 25.8891C28.6945 24.3633 29.5395 22.3699 29.6215 20.2617H31.9512C31.8691 22.9934 30.7863 25.5938 28.875 27.5379L28.5633 27.2262ZM26.5125 29.4164L26.734 28.957L26.652 28.752L26.9719 28.473V28.309L26.693 28.1285L26.9145 27.6691L27.259 27.2262L26.9145 26.8652H26.652L26.4879 26.6027C26.6273 26.4797 26.7668 26.3648 26.8898 26.2418L28.5387 27.8906C27.9398 28.4731 27.2508 28.998 26.5125 29.4164ZM26.1844 24.8719L25.9629 24.6504L26.127 24.4289L26.3484 23.9859L26.2664 23.8629L26.4059 23.543L26.3895 23.2395L26.3074 22.9359L26.1023 22.8785L26.0203 23.0426L25.8973 23.0016C26.0777 22.7391 26.2418 22.4356 26.3813 22.1566L26.5863 22.0746L26.7094 21.9106L26.7668 21.968L26.9062 21.8039L26.7832 21.6645L26.8816 21.648L27.0621 21.7301H27.423L27.6445 21.607L28.2105 21.443L28.1121 21.2625L28.0711 21.041L28.3746 21.1805L28.4977 21.123L28.4402 20.8852L28.0547 21.0246L27.6527 20.9426L27.3328 20.3027H29.1211C29.0391 22.2961 28.2352 24.1828 26.8652 25.6102L26.6273 25.3723L26.7258 25.0523L26.5453 24.3305L26.1844 24.8719ZM25.3395 16.1109L26.9883 14.4621C27.3738 14.8805 27.7102 15.3481 28.0137 15.832L27.8086 15.8895L27.825 16.2504L28.432 16.6359C28.5961 16.9805 28.7109 17.3168 28.8176 17.6777L28.7191 17.8418L28.4977 18.0059L28.4402 18.3504L28.2762 18.4324L28.1531 18.5965L28.0301 18.5391H27.8086L27.9316 18.3586L28.0301 17.8992L28.1941 17.8008L27.7512 17.3824L27.4312 17.5055L27.3492 17.8254L27.1441 18.0469L26.9227 17.8664L26.8406 17.6613L26.9637 17.5793L27.0211 17.7023L27.1195 17.6613L27.0785 17.4563H26.9391V17.5383L26.8406 17.5547L26.3402 16.9477L26.1598 16.8082L26.2172 16.7508L26.3813 16.6934L26.2172 16.6359C26.2172 16.6359 26.0367 16.677 26.0121 16.677L26.1105 16.8164H25.848C25.7086 16.5293 25.5445 16.3078 25.3395 16.1109ZM25.602 25.0934L25.1016 24.9539L24.9375 25.0113L24.6586 24.7898L24.3961 24.6914C24.5355 24.593 24.6586 24.4863 24.7816 24.3879L25.2 24.6914L25.5199 24.8555L25.684 25.0195L25.602 25.0934ZM24.716 17.3578L24.9211 17.3168V17.2758L24.716 17.1363L24.7734 16.6934L25.0113 16.4309C25.1754 16.6113 25.3148 16.7918 25.4543 16.9969L25.3723 17.2594L25.1508 17.0953L24.9703 17.1363L25.0523 17.3004H25.1344L25.0359 17.5383L24.9785 17.4398L24.716 17.3578ZM27.5133 18.9656L27.9316 18.7441L28.35 18.6867L28.4484 18.4816L28.6863 18.3422L28.7848 18.1371L28.8668 17.7926C28.9078 17.9156 28.9242 18.0305 28.9652 18.1535L28.7437 18.818V19.0395L29.0227 18.5801C29.0801 18.982 29.1211 19.4004 29.1457 19.8105H27.0949L27.0539 19.6301L27.2918 19.4496L27.3328 19.3266L27.4312 19.2445L27.7102 19.2035L27.7266 19.0805L27.5133 18.9656ZM27.9727 13.4941L28.5387 13.5105L28.6781 13.6746L28.6207 13.9125L29.4082 14.3965L29.5723 14.3801L30.5566 15.5285L30.9586 15.3891C31.5984 16.7754 31.943 18.3012 31.9676 19.8352H29.6379C29.6379 19.2281 29.5559 18.6457 29.4164 18.0633L29.5148 17.9238L29.6543 17.1773L29.5559 16.3898L29.277 15.4875L28.6371 14.5441L28.8012 14.6262L28.8832 14.5441L28.3582 14.1832L28.3172 14.3063L28.8422 15.0527L29.1457 15.6598L29.3508 16.2668L29.4082 16.6688L29.5066 17.3496L29.3016 17.366C29.3016 17.366 29.0801 16.9477 28.998 16.759L29.0965 16.5949L28.8914 16.316V16.0535L28.752 15.873L28.5715 15.8895C28.5141 15.7664 28.4484 15.6516 28.3664 15.5449L28.4895 15.6023L28.5305 15.5613L28.473 15.4219L28.6371 15.3398L28.5797 15.2578L28.3582 15.3398L28.4402 14.9789L28.3008 14.8969L28.1777 15.1758C27.9152 14.7902 27.6363 14.4293 27.3328 14.093L27.9727 13.4941ZM30.9504 10.5C33.3621 13.0102 34.7074 16.3488 34.7484 19.827H32.4188C32.4023 18.0961 32.0004 16.3898 31.2129 14.8395L31.2293 14.7984L31.3934 14.8805L31.4344 14.7574L31.016 14.0356L30.5156 13.3547L29.9332 12.8707C29.7281 12.6328 29.5312 12.3867 29.3098 12.1488L30.9504 10.5ZM21.0164 34.1414C28.8586 34.1414 35.2078 27.7676 35.1914 19.9254C35.1914 12.6492 29.6789 6.5543 22.4438 5.80782L22.4273 5.88985C22.4109 6.0293 22.3699 6.15235 22.3453 6.27539C25.4625 6.57891 28.3746 7.94063 30.6059 10.1391L29.0391 11.7059L29.0965 11.427L28.8914 11.3285L28.6289 11.3449L28.6863 11.1645L28.5059 10.5246L28.1203 10.1063L26.8898 9.46641L26.7914 9.58946L26.5699 9.64688C26.9883 10.2539 27.2098 10.9758 27.2098 11.6977C27.2098 11.7961 27.2098 11.8781 27.2098 11.9766L27.8168 12.7395L27.5379 12.7969L27.7184 13.0758L27.177 13.6172L26.9555 13.2152C26.857 13.4941 26.7176 13.7813 26.5535 14.0191L26.6766 14.1176L25.0195 15.7664C24.9211 15.668 24.8145 15.5859 24.716 15.4875C24.552 15.5695 24.3961 15.627 24.232 15.6926L24.3715 15.791L24.2895 15.873L24.0844 15.9715L24.0023 16.1766L23.8793 16.0535L23.5348 16.1766L23.6332 16.3406L23.8711 16.2832L24.0352 16.2996L24.0516 16.2176L24.1746 16.1602L24.2156 16.1027L24.4371 16.0453H24.6012L24.6996 16.1273L24.0598 16.7918L24.0187 16.7344L23.3379 16.8574L23.1738 17.0215L23.0344 17.0379L23.4527 16.6359L23.2887 16.5539L22.8867 17.0789L23.0098 17.0625V17.2676L23.1492 17.325L23.1656 17.5301L22.9277 17.4891L22.6898 17.5301L22.0828 17.2266C22.0828 17.2266 22.0418 18.8344 22.0418 19.6383C23.4527 20.1223 24.9539 20.8031 24.9539 22.616C24.9703 23.3789 24.5684 24.1008 23.9285 24.5273L23.8875 24.5438L23.8465 24.5848C23.2805 24.9703 22.5422 25.1672 21.8941 25.3723L21.8777 26.6356C22.9031 27.1359 24.1336 27.8824 24.0105 29.9742C23.9941 30.4992 23.7891 30.6387 23.625 30.6797C23.018 30.8191 22.3945 30.9176 21.7957 30.9586C21.7957 31.1227 21.7957 31.2785 21.7957 31.418C24.4535 31.2375 26.9391 30.1301 28.875 28.3008L30.5238 29.9496C25.2656 35.0273 16.882 35.0273 11.5664 29.9578L13.2152 28.309C15.1266 30.0973 17.5957 31.1801 20.2125 31.3852C20.2125 31.2457 20.2125 31.0816 20.2125 30.9258C17.7188 30.7207 15.3891 29.6953 13.5762 27.9727L13.9945 27.5297L14.6016 27.5871L14.9215 27.2426L15.7664 27.2836L15.8895 26.9801L15.8484 26.857C17.0953 27.8004 18.5801 28.4074 20.1551 28.5633C20.1551 28.3828 20.1551 28.2188 20.1551 28.1039C18.4242 27.8988 16.8164 27.177 15.5285 25.9957L17.1773 24.3469C17.5793 24.7078 18.0223 25.0113 18.5227 25.2492C18.5637 25.0852 18.6047 24.9457 18.6867 24.8063C18.2684 24.5848 17.8664 24.3223 17.5219 24.0188L19.1707 22.3699C19.4332 22.575 19.7367 22.7555 20.032 22.8539C20.032 22.6898 20.032 22.5094 20.032 22.3535C19.827 22.2715 19.6465 22.1484 19.4906 22.0336L19.95 21.5742C19.7859 21.5332 19.6301 21.4758 19.466 21.4102L19.1461 21.7301C18.982 21.5496 18.8426 21.3445 18.7441 21.1477C18.4652 21.0246 18.1781 20.8852 17.9238 20.7047C16.9559 20.1223 16.3734 19.0559 16.398 17.9074C16.3816 17.1445 16.6031 16.3816 17.0625 15.7746L15.4137 14.1258C16.6195 12.9609 18.1699 12.2145 19.8188 11.952C19.8188 11.7879 19.8188 11.632 19.8188 11.4926C18.0469 11.7551 16.3816 12.559 15.0938 13.8059L14.8148 13.527C14.7574 13.6254 14.6754 13.7648 14.5934 13.9453L14.7738 14.1258C13.3055 15.6762 12.4852 17.727 12.4441 19.8598H10.0898C10.1309 17.1035 11.1973 14.4703 13.1086 12.4605L13.8551 13.207C13.8961 13.207 13.9125 13.207 13.9535 13.207C14.093 13.1906 14.257 13.1496 14.3719 13.084L13.4285 12.1406C13.9289 11.6566 14.4703 11.2137 15.0609 10.8363C15.102 10.7133 15.1184 10.5984 15.184 10.4918C15.2824 10.3277 15.4055 10.1719 15.5449 10.0078C14.659 10.4918 13.8551 11.0906 13.1332 11.7961L11.4844 10.1473C13.6992 7.99805 16.5703 6.65274 19.6711 6.32461C19.6711 6.26719 19.6547 6.22617 19.6547 6.22617C19.6383 6.10313 19.6137 6.00469 19.5973 5.86524C11.7797 6.66914 6.12773 13.65 6.94805 21.4512C7.68633 28.6781 13.7648 34.166 21.0164 34.1414ZM27.9973 9.59766L27.8578 9.37617L27.5543 9.21211L27.3164 9.39258L27.6199 9.55664L27.9645 9.79453L27.9973 9.59766ZM26.5863 16.1848L26.6027 16.3652L27.0047 16.2422L27.1277 16.0043L26.8488 15.6434L26.9883 15.4219L27.3738 15.6844L27.4312 15.627L27.3492 15.5695L27.2672 15.4055L27.4312 15.3234L27.2672 15.1184L26.9062 15.2988L26.7832 15.5203L26.7012 15.7254L26.8652 15.9879L26.8078 16.1109L26.5863 16.1848ZM9.73711 26.6438L9.75352 26.5453L9.54844 26.0859L9.31055 25.9875L9.73711 26.6438ZM19.2527 17.8746C19.2527 18.2766 19.4906 18.5391 19.9172 18.777C19.9172 18.777 19.9172 18.7195 19.9172 18.5965L19.6547 18.3176L19.7941 18.0551L19.9172 18.0141C19.9008 17.5547 19.9008 17.0461 19.9008 16.9723H19.8844C19.4742 17.2102 19.2691 17.4973 19.2527 17.8746Z" fill="#009CDE"/>
<path d="M21.8613 27.9891C22.5832 28.35 23.2723 28.875 23.5512 29.8348C23.6742 28.227 22.7637 27.5461 21.8859 27.0621L21.8613 27.9891Z" fill="#009CDE"/>
<path d="M26.734 11.6813C26.734 10.2129 25.6676 8.60508 23.0754 8.03907C22.8129 7.99805 22.5504 7.95703 22.2879 7.94063C22.2879 8.16211 22.2715 8.6625 22.2715 8.6625C22.2715 8.82656 22.2551 9.40899 22.2551 9.52383C22.4191 9.54024 22.5996 9.56485 22.7555 9.58125C24.2648 9.94219 24.8062 10.8117 24.8062 11.6484C24.8062 13.0348 23.6168 13.5598 22.173 13.9617L21.6891 14.0848C21.2461 14.1832 20.7867 14.3062 20.3437 14.4293C20.1797 14.4703 20.0238 14.5113 19.8598 14.5688C18.252 15.0527 16.8656 15.832 16.8656 17.8254C16.8656 19.8187 18.457 20.5406 19.9992 21.0246C19.9992 20.4586 19.9828 19.8762 19.9582 19.3184C19.2527 18.9984 18.7934 18.5719 18.7934 17.8746C18.7934 17.1773 19.2363 16.7672 19.9008 16.4637C20.0402 16.4062 20.2043 16.3406 20.3848 16.2832C20.7703 16.1437 21.2051 16.0453 21.648 15.9223L22.132 15.7992C24.2977 15.2824 26.7504 14.6016 26.734 11.6813Z" fill="#009CDE"/>
<path d="M18.9082 25.6184C18.9082 26.4223 19.4906 26.8488 20.073 27.1852C20.073 27.0457 20.0566 25.8152 20.0566 25.7988C20.073 25.5609 20.2945 25.3969 20.4996 25.3148C20.8031 25.1754 21.123 25.0524 21.443 24.9539C21.6234 24.8965 21.7629 24.8309 21.927 24.7899C23.1164 24.4289 24.4781 23.9859 24.4781 22.534C24.4781 21.0902 23.3133 20.4996 22.0254 20.0648C22.009 20.5242 22.009 21.1887 21.9844 21.6563C22.5258 21.8613 22.8867 22.1156 22.8867 22.5422C22.8867 23.0672 22.3453 23.3461 21.9434 23.5102C21.7793 23.5676 21.5414 23.6496 21.4594 23.6742C21.1395 23.7727 20.8195 23.8793 20.4914 23.9941C20.3273 24.0516 20.1715 24.1172 20.0074 24.1992C19.4906 24.4699 18.9082 24.8965 18.9082 25.6184Z" fill="#009CDE"/>
<path d="M19.7121 8.17032C19.2281 8.33438 18.7441 8.51485 18.2848 8.75274C17.7844 8.9168 17.0543 8.95782 16.316 9.76173C16.0781 10.0406 15.8566 10.3441 15.6352 10.6477C15.4137 10.9676 15.3973 11.4926 15.2332 11.7551C14.9953 12.157 15.0527 12.3949 15.0527 12.3949C15.0117 12.5754 14.9133 12.7559 14.7902 12.8953C14.5523 13.1742 14.1832 13.3137 13.8223 13.2563C14.1668 13.4203 14.6262 13.1988 14.6262 13.1988C14.5441 13.4203 14.4867 13.6418 14.4457 13.8633C14.8313 13.002 15.1676 12.6984 15.2906 12.6C15.4547 12.641 15.791 12.6164 16.4145 12.2555C17.1199 11.8535 18.1863 11.1891 18.4816 10.7707C18.8016 10.3524 19.2281 10.0078 19.7285 9.82735C19.7367 9.21212 19.7121 8.6461 19.7121 8.17032ZM16.7344 10.8445L16.3734 10.9266L16.8164 10.2047L17.3168 10.2211L16.7344 10.8445Z" fill="#009CDE"/>
<path d="M21.1805 25.5199C21.123 25.5363 20.9426 25.6184 20.8195 25.6594C20.6965 25.7004 20.557 25.7578 20.557 25.7988C20.557 25.7988 20.6801 31.9922 20.6801 32.1152C20.6801 33.3785 21.3199 33.4031 21.3199 32.1152C21.3199 32.0332 21.4594 25.4215 21.4594 25.4215C21.4594 25.4215 21.2789 25.4789 21.1805 25.5199Z" fill="#009CDE"/>
<path d="M20.4996 23.4691C20.7047 23.4117 20.9016 23.3297 21.082 23.2887C21.2215 23.2477 21.3445 23.2066 21.484 23.1656C21.484 22.7801 21.607 17.3988 21.6234 16.4309C21.2051 16.5293 20.7785 16.6523 20.3766 16.7918C20.393 17.5137 20.4996 22.8867 20.4996 23.4691Z" fill="#009CDE"/>
<path d="M21.041 2.89571C19.2281 2.89571 19.9992 5.58633 20.1387 6.47227C20.1387 6.51328 20.2781 12.5672 20.3191 13.9535C20.598 13.8715 20.8605 13.8141 21.1395 13.7484L21.6809 13.609C21.6973 12.2637 21.8449 6.48867 21.8449 6.44766C21.968 5.52891 22.9113 2.89571 21.041 2.89571Z" fill="#009CDE"/>
</svg>
