<svg width="48" height="48" viewBox="0 0 48 48" fill="none" xmlns="http://www.w3.org/2000/svg">
<path fill-rule="evenodd" clip-rule="evenodd" d="M24 1.90735e-06C10.7452 1.90735e-06 0 10.7452 0 24C0 37.2548 10.7452 48 24 48V1.90735e-06Z" fill="#CE1719"/>
<path fill-rule="evenodd" clip-rule="evenodd" d="M24 48C37.2548 48 48 37.2548 48 24C48 10.7452 37.2548 2.87533e-06 24 1.71655e-06L24 48Z" fill="#134395"/>
<path d="M34.3055 38.1414C34.3055 39.2804 33.3844 40.2015 32.2453 40.2015H14.3719C13.2328 40.2015 12.3117 39.2804 12.3117 38.1414V15.0507L16.4391 10.9234V13.3914C16.4391 13.7711 16.1297 14.0804 15.75 14.0804H14.3719V15.4586H15.75C16.8891 15.4586 17.8102 14.5375 17.8102 13.3984V9.95309H32.2453C33.3844 9.95309 34.3055 10.8742 34.3055 12.0132V27.1375H35.6836V12.0132C35.6836 10.1148 34.1438 8.57497 32.2453 8.57497H17.1211C16.9383 8.57497 16.7625 8.64528 16.6359 8.77887L11.1375 14.2773C11.0109 14.4039 10.9336 14.5797 10.9336 14.7625V38.1343C10.9336 40.0328 12.4734 41.5726 14.3719 41.5726H32.2453C34.1438 41.5726 35.6836 40.0328 35.6836 38.1343V36.7562H34.3055V38.1414V38.1414Z" fill="white"/>
<path d="M43.7344 25.1195L41.8289 23.2141C41.5617 22.9469 41.1258 22.9469 40.8586 23.2141L30.382 33.6906C30.2906 33.782 30.2273 33.8945 30.1992 34.0211H30.1781V36.0813C30.1781 36.4609 30.4875 36.7703 30.8672 36.7703H32.9273V36.7492C33.0469 36.7211 33.1664 36.6578 33.2578 36.5664L43.7344 26.0898C44.0016 25.8227 44.0016 25.3867 43.7344 25.1195ZM32.7727 35.1039L31.8445 34.1758L41.3437 24.6766L42.2719 25.6047L32.7727 35.1039Z" fill="white"/>
<path d="M32.9344 14.7625V13.3914C32.9344 12.2523 32.0133 11.3312 30.8742 11.3312H29.4961V12.7094H30.8742C31.2539 12.7094 31.5633 13.0187 31.5633 13.3984V14.7765H32.9344V14.7625Z" fill="white"/>
<path d="M29.4961 28.5156V18.8898C29.4961 18.5101 29.1867 18.2007 28.807 18.2007H17.8102C17.4305 18.2007 17.1211 18.5101 17.1211 18.8898V28.5156C17.1211 28.7757 17.2687 29.0218 17.5078 29.1343L22.2891 31.4687C22.6055 31.6515 22.957 31.7429 23.3227 31.7429C23.6672 31.7429 23.9977 31.6585 24.3 31.4898L29.1164 29.1273C29.3484 29.0218 29.4961 28.7757 29.4961 28.5156ZM23.6531 30.2804C23.4281 30.407 23.1539 30.3929 22.9359 30.2593L18.5062 28.0867V19.5789H28.132V28.0867L23.6531 30.2804Z" fill="white"/>
<path d="M22.6195 25.5836L21.0445 24.0086L20.0742 24.9789L22.1344 27.0391C22.2609 27.1656 22.4367 27.243 22.6195 27.243C22.8023 27.243 22.9781 27.1727 23.1047 27.0391L27.232 22.9117L26.2617 21.9414L22.6195 25.5836Z" fill="white"/>
<path d="M22.6195 33.3249V34.7031C22.6195 35.8421 23.5406 36.7632 24.6797 36.7632H28.807V35.3851H24.6797C24.3 35.3851 23.9906 35.0757 23.9906 34.696V33.3179H22.6195V33.3249Z" fill="white"/>
<path d="M28.125 11.3312H26.7469V12.7094H28.125V11.3312Z" fill="white"/>
</svg>
