<svg width="152" height="54" viewBox="0 0 152 54" fill="none" xmlns="http://www.w3.org/2000/svg">
<path fill-rule="evenodd" clip-rule="evenodd" d="M84.8578 28.7222H79.4389V31.4893H84.8578C85.319 31.4893 85.5496 31.4893 85.7802 31.2587C85.8955 31.1434 86.0108 30.9128 86.0108 30.6822V29.5292C86.0108 29.2987 85.8955 29.0681 85.7802 28.9528C85.5496 28.7222 85.319 28.7222 84.8578 28.7222ZM77.0177 37.3694V26.8774H86.0108C86.8178 26.8774 87.3943 26.9927 87.8555 27.3386C88.2014 27.5692 88.432 28.1457 88.432 28.8375V31.1434C88.432 31.8352 88.2014 32.4116 87.8555 32.6422C87.5096 32.9881 86.8178 33.1034 86.0108 33.1034H79.4389V37.1388H77.0177V37.3694Z" fill="#787878"/>
<path fill-rule="evenodd" clip-rule="evenodd" d="M99.7309 28.7222H94.312V31.6046H99.7309C100.192 31.6046 100.423 31.6046 100.653 31.4893C100.769 31.374 100.884 31.1434 100.884 30.7975V29.5292C100.884 29.2987 100.769 29.0681 100.653 28.9528C100.423 28.7222 100.192 28.7222 99.7309 28.7222ZM91.8907 37.3694V26.8774H100.769C101.576 26.8774 102.267 26.9927 102.613 27.3386C102.959 27.5692 103.19 28.1457 103.19 28.8375V31.2587C103.19 31.9505 102.959 32.5269 102.613 32.7575C102.267 33.1034 101.576 33.2187 100.769 33.2187H99.385L104.227 37.1388H100.769L96.5026 33.2187H94.1967V37.1388H91.8907V37.3694Z" fill="#787878"/>
<path fill-rule="evenodd" clip-rule="evenodd" d="M107.917 37.3694V26.8774H118.64V28.7222H110.454V31.0281H115.296V32.7575H110.454V35.4093H118.755V37.3694H107.917Z" fill="#787878"/>
<path fill-rule="evenodd" clip-rule="evenodd" d="M132.36 28.7222H125.557V30.9129H132.014C133.051 30.9129 133.743 31.0282 134.089 31.374C134.435 31.7199 134.666 32.4117 134.666 33.3341V34.7176C134.666 35.64 134.55 36.3318 134.089 36.6777C133.743 37.0236 133.051 37.1388 132.014 37.1388H125.557C124.52 37.1388 123.828 37.0236 123.482 36.6777C123.136 36.3318 123.021 35.64 123.021 34.7176V34.487L125.211 34.0259V35.2941H132.59V32.9882H126.018C124.981 32.9882 124.289 32.8729 123.943 32.4117C123.597 32.0658 123.367 31.4893 123.367 30.4517V29.2987C123.367 28.3764 123.482 27.6846 123.943 27.3387C124.289 26.9928 124.981 26.7622 126.018 26.7622H132.014C133.051 26.7622 133.743 26.8775 134.089 27.2234C134.435 27.5693 134.666 28.1458 134.666 29.0681V29.414L132.59 29.8752V28.7222H132.36Z" fill="#787878"/>
<path fill-rule="evenodd" clip-rule="evenodd" d="M147.694 28.7222H140.892V30.9129H147.348C148.386 30.9129 149.078 31.0282 149.424 31.374C149.769 31.7199 149.885 32.4117 149.885 33.3341V34.7176C149.885 35.64 149.769 36.3318 149.424 36.6777C149.078 37.0236 148.386 37.1388 147.348 37.1388H140.892C139.854 37.1388 139.162 37.0236 138.816 36.6777C138.47 36.3318 138.24 35.64 138.24 34.7176V34.487L140.43 34.0259V35.2941H147.809V32.9882H141.353C140.315 32.9882 139.623 32.8729 139.277 32.4117C138.932 32.0658 138.816 31.4893 138.816 30.4517V29.2987C138.816 28.3764 138.932 27.6846 139.277 27.3387C139.623 26.9928 140.315 26.7622 141.353 26.7622H147.348C148.271 26.7622 148.962 26.8775 149.424 27.2234C149.769 27.5693 150 28.1458 150 29.0681V29.414L147.809 29.8752V28.7222H147.694Z" fill="#787878"/>
<path fill-rule="evenodd" clip-rule="evenodd" d="M60.6456 37.3694L65.488 32.0658L60.5303 26.8774H63.7586L67.1021 30.4516L70.2151 26.8774H72.9822L68.4857 31.7199L74.1352 37.3694H70.7916L66.9868 33.334L63.4127 37.3694H60.6456Z" fill="#787878"/>
<path fill-rule="evenodd" clip-rule="evenodd" d="M6.11068 37.3694L0 26.8774H2.7671L7.03305 34.487L11.0684 26.8774H13.4896L7.72483 37.3694H6.11068Z" fill="#787878"/>
<path fill-rule="evenodd" clip-rule="evenodd" d="M15.219 37.3694V26.8774H16.8331L24.2121 33.1034C24.4427 33.334 24.6733 33.4493 24.9039 33.6799C25.1344 33.7952 25.2497 34.0258 25.4803 34.2564C25.4803 33.6799 25.365 33.2187 25.365 32.9881C25.365 32.7575 25.365 32.5269 25.365 32.4116V26.8774H27.5557V37.3694H25.8262L18.1014 30.9128C17.9861 30.7975 17.7555 30.6822 17.6402 30.4516C17.5249 30.3363 17.4096 30.221 17.2943 30.1057C17.2943 30.4516 17.2943 30.6822 17.2943 31.0281C17.2943 31.2587 17.2943 31.4893 17.2943 31.7199V37.3694H15.219Z" fill="#787878"/>
<path d="M60.5303 44.6329V41.1741H61.3373V44.6329H60.5303Z" fill="black"/>
<path d="M65.1421 44.6329V41.1741H65.7186L68.601 43.48V41.1741H69.408V44.6329H68.8316L65.9492 42.327V44.6329H65.1421Z" fill="black"/>
<path d="M75.2882 41.8658V44.6329H74.4811V41.8658H72.8669V41.2893H77.0176V41.8658H75.2882Z" fill="black"/>
<path d="M80.3612 44.6329V41.1741H84.0507V41.7506H81.2836V42.4423H82.8977V43.0188H81.2836V43.8259H84.166V44.5177H80.3612V44.6329Z" fill="black"/>
<path d="M87.6249 44.6329V41.1741H90.7379C90.9685 41.1741 91.199 41.1741 91.3143 41.2894C91.4296 41.4047 91.5449 41.52 91.5449 41.7506V42.5576C91.5449 42.7882 91.4296 42.9035 91.3143 43.0188C91.199 43.1341 90.9685 43.1341 90.7379 43.1341H90.2767L91.8908 44.4024H90.7379L89.3543 43.1341H88.5472V44.4024H87.6249V44.6329ZM90.392 41.7506H88.5472V42.6729H90.392C90.5073 42.6729 90.6226 42.6729 90.7379 42.5576C90.7379 42.5576 90.8532 42.4423 90.8532 42.327V42.0964C90.8532 41.9811 90.8532 41.9812 90.7379 41.8659C90.6226 41.7506 90.5073 41.7506 90.392 41.7506Z" fill="black"/>
<path d="M95.2344 44.6329V41.1741H95.8109L98.6933 43.48V41.1741H99.5004V44.6329H98.9239L96.0415 42.327V44.6329H95.2344Z" fill="black"/>
<path d="M102.729 44.6329L104.804 41.1741H105.611L107.686 44.6329H106.764L106.303 43.9412H103.997L103.536 44.6329H102.729ZM104.343 43.2494H105.957L105.15 41.8659L104.343 43.2494Z" fill="black"/>
<path d="M112.875 41.8658V44.6329H112.068V41.8658H110.454V41.2893H114.604V41.8658H112.875Z" fill="black"/>
<path d="M117.948 44.6329V41.1741H118.755V44.6329H117.948Z" fill="black"/>
<path d="M122.56 41.9811C122.56 41.6352 122.675 41.4046 122.79 41.4046C122.905 41.2893 123.136 41.2893 123.482 41.2893H126.134C126.48 41.2893 126.71 41.2893 126.826 41.4046C126.941 41.5199 127.056 41.7505 127.056 41.9811V43.8258C127.056 44.1717 126.941 44.4023 126.826 44.5176C126.71 44.6329 126.48 44.6329 126.134 44.6329H123.482C123.136 44.6329 122.905 44.6329 122.79 44.5176C122.675 44.4023 122.56 44.1717 122.56 43.8258V41.9811ZM123.367 43.9411H126.134V41.8658H123.367V43.9411Z" fill="black"/>
<path d="M130.746 44.6329V41.1741H131.322L134.204 43.48V41.1741H135.011V44.6329H134.435L131.553 42.327V44.6329H130.746Z" fill="black"/>
<path d="M138.355 44.6329L140.43 41.1741H141.238L143.313 44.6329H142.39L141.929 43.9412H139.623L139.162 44.6329H138.355ZM139.969 43.2494H141.583L140.776 41.8659L139.969 43.2494Z" fill="black"/>
<path d="M146.426 44.6329V41.1741H147.233V43.9412H149.885V44.6329H146.426Z" fill="black"/>
<path d="M56.3798 17.9998H32.0523C31.1299 17.9998 30.3229 18.8068 30.3229 19.7292V47.6308C30.3229 48.5532 31.1299 49.3602 32.0523 49.3602H56.3798C57.3021 49.3602 58.1092 48.5532 58.1092 47.6308V19.7292C58.1092 18.8068 57.3021 17.9998 56.3798 17.9998ZM55.5727 45.0943C55.5727 46.0167 54.7656 46.8237 53.8432 46.8237H34.4735C33.5512 46.8237 32.7441 46.0167 32.7441 45.0943V22.2657C32.7441 21.3433 33.5512 20.5363 34.4735 20.5363H53.6127C54.535 20.5363 55.3421 21.3433 55.3421 22.2657V26.1858C55.3421 27.1081 54.535 27.9152 53.6127 27.9152H41.6219V29.1835H46.9255C47.8479 29.1835 48.6549 29.9905 48.6549 30.9129V35.64C48.6549 36.1012 48.4243 36.5624 48.1937 36.9083C47.8479 37.2542 47.3867 37.3695 46.9255 37.3695H41.6219V38.9836H53.8432C54.7656 38.9836 55.5727 39.7907 55.5727 40.7131V45.0943Z" fill="#A1234F"/>
<path d="M39.8924 35.64H46.9255V30.9128H39.8924V26.0704H53.6126V22.2656H34.4735V45.0942H53.8432V40.713H39.8924V35.64Z" fill="#A1234F"/>
<path d="M118.308 2.62402V10.2448C115.227 13.1181 107.864 18.5151 103.067 17.1159C100.385 16.3337 99.5064 13.2743 94.0095 10.6508C89.6369 9.52638 88.4501 9.86993 85.7016 6.24698C82.9219 5.96589 77.2688 7.9023 72.0842 12.7433" stroke="#7F7053" stroke-width="1.3" stroke-miterlimit="4.13357"/>
<path d="M119.808 2.37402L127.803 11.2441" stroke="#7F7053" stroke-width="1.2"/>
<g clip-path="url(#clip0)">
<path d="M85.997 18.5804C86.4701 18.5221 86.8841 18.2019 86.9136 17.7361C86.9136 17.2995 86.5884 16.921 86.1744 16.8046C86.204 16.3971 86.0266 15.9895 85.6126 15.844C85.1986 15.6984 84.8438 15.9895 84.6072 16.3097C84.1933 16.1351 83.6315 16.106 83.3358 16.4844C83.0697 16.8337 83.1584 17.2995 83.4245 17.6488C83.1584 17.9399 83.0401 18.4057 83.2766 18.755C83.5132 19.0752 84.0159 19.1335 84.3707 19.0461C84.5777 19.3954 84.9325 19.6574 85.3465 19.541C85.79 19.4246 85.997 18.9879 85.997 18.5804Z" fill="#FBCFD4"/>
<path d="M85.5534 18.1727C85.79 18.1436 86.0265 17.969 86.0265 17.7361C86.0265 17.5032 85.8491 17.2994 85.6421 17.2412C85.6717 17.0374 85.583 16.8337 85.3464 16.7463C85.1394 16.659 84.9325 16.8045 84.8142 16.9792C84.6072 16.8919 84.3115 16.8919 84.1637 17.0665C84.0158 17.2412 84.075 17.5032 84.1932 17.6779C84.0454 17.8525 83.9863 18.0854 84.1341 18.2601C84.2524 18.4347 84.5185 18.4347 84.6959 18.4056C84.8142 18.5803 84.9916 18.7258 85.2282 18.6676C85.4351 18.6094 85.5534 18.3765 85.5534 18.1727Z" fill="#EA585E"/>
</g>
<g clip-path="url(#clip1)">
<path d="M79.2373 3.56595C79.7104 3.50773 80.1244 3.18751 80.154 2.72174C80.154 2.28508 79.8287 1.90664 79.4148 1.7902C79.4443 1.38265 79.2669 0.975106 78.8529 0.829553C78.439 0.684 78.0842 0.975106 77.8476 1.29532C77.4336 1.12066 76.8718 1.09155 76.5761 1.46999C76.31 1.81931 76.3987 2.28508 76.6648 2.63441C76.3987 2.92552 76.2804 3.39128 76.517 3.74061C76.7535 4.06083 77.2562 4.11905 77.611 4.03172C77.818 4.38104 78.1729 4.64304 78.5868 4.5266C79.0304 4.41016 79.2373 3.9735 79.2373 3.56595Z" fill="#FBCFD4"/>
<path d="M78.7938 3.15833C79.0303 3.12922 79.2669 2.95456 79.2669 2.72168C79.2669 2.48879 79.0895 2.28502 78.8825 2.2268C78.912 2.02302 78.8233 1.81925 78.5868 1.73191C78.3798 1.64458 78.1728 1.79014 78.0545 1.9648C77.8476 1.87747 77.5519 1.87747 77.404 2.05213C77.2562 2.2268 77.3153 2.48879 77.4336 2.66345C77.2857 2.83812 77.2266 3.071 77.3745 3.24567C77.4927 3.42033 77.7589 3.42033 77.9363 3.39122C78.0545 3.56588 78.232 3.71144 78.4685 3.65321C78.6755 3.59499 78.7938 3.36211 78.7938 3.15833Z" fill="#EA585E"/>
</g>
<g clip-path="url(#clip2)">
<path d="M111.205 19.5295C111.584 19.4829 111.915 19.2268 111.939 18.8542C111.939 18.5048 111.679 18.2021 111.347 18.1089C111.371 17.7829 111.229 17.4568 110.898 17.3404C110.567 17.224 110.283 17.4568 110.094 17.713C109.762 17.5733 109.313 17.55 109.076 17.8527C108.864 18.1322 108.935 18.5048 109.147 18.7843C108.935 19.0172 108.84 19.3898 109.029 19.6692C109.218 19.9254 109.621 19.972 109.904 19.9021C110.07 20.1816 110.354 20.3912 110.685 20.298C111.04 20.2049 111.205 19.8556 111.205 19.5295Z" fill="#FBCFD4"/>
<path d="M110.851 19.2035C111.04 19.1802 111.229 19.0405 111.229 18.8542C111.229 18.6679 111.087 18.5049 110.922 18.4583C110.945 18.2953 110.874 18.1323 110.685 18.0624C110.519 17.9925 110.354 18.109 110.259 18.2487C110.094 18.1788 109.857 18.1788 109.739 18.3186C109.621 18.4583 109.668 18.6679 109.762 18.8076C109.644 18.9473 109.597 19.1337 109.715 19.2734C109.81 19.4131 110.023 19.4131 110.165 19.3898C110.259 19.5296 110.401 19.646 110.59 19.5994C110.756 19.5528 110.851 19.3665 110.851 19.2035Z" fill="#EA585E"/>
</g>
<g clip-path="url(#clip3)">
<path d="M122.356 15.2211C122.64 15.1862 122.889 14.994 122.906 14.7146C122.906 14.4526 122.711 14.2255 122.463 14.1557C122.481 13.9111 122.374 13.6666 122.126 13.5793C121.877 13.4919 121.664 13.6666 121.522 13.8587C121.274 13.7539 120.937 13.7365 120.76 13.9635C120.6 14.1731 120.653 14.4526 120.813 14.6622C120.653 14.8369 120.582 15.1163 120.724 15.3259C120.866 15.518 121.168 15.553 121.381 15.5006C121.505 15.7102 121.718 15.8674 121.966 15.7975C122.232 15.7276 122.356 15.4656 122.356 15.2211Z" fill="#FBCFD4"/>
<path d="M122.09 14.9765C122.232 14.959 122.374 14.8542 122.374 14.7145C122.374 14.5748 122.268 14.4525 122.143 14.4176C122.161 14.2953 122.108 14.173 121.966 14.1206C121.842 14.0682 121.718 14.1556 121.647 14.2604C121.523 14.208 121.345 14.208 121.256 14.3128C121.168 14.4176 121.203 14.5748 121.274 14.6796C121.185 14.7844 121.15 14.9241 121.239 15.0289C121.31 15.1337 121.469 15.1337 121.576 15.1162C121.647 15.221 121.753 15.3084 121.895 15.2734C122.019 15.2385 122.09 15.0988 122.09 14.9765Z" fill="#EA585E"/>
</g>
<path d="M122.906 5.98678L129.442 5.2063C129.746 5.68921 130.043 6.65876 131.085 6.75535C132.126 6.85193 133.54 7.5965 134.365 7.55626C135.667 8.80377 138.401 11.6127 138.922 12.8683" stroke="#7F7053" stroke-width="1.2"/>
<path d="M113.06 14.3176L115.31 21.9882" stroke="#7F7053" stroke-width="1.2"/>
<path d="M108.064 19.8643L104.191 24.8615" stroke="#7F7053"/>
<path d="M101.068 19.1147H93.8221" stroke="#7F7053"/>
<path d="M76.258 9.37012H65.2131" stroke="#7F7053" stroke-width="1.2"/>
<g clip-path="url(#clip4)">
<path d="M118.126 14.3614C119.073 14.2449 119.901 13.6045 119.96 12.673C119.96 11.7997 119.309 11.0428 118.481 10.8099C118.54 9.9948 118.186 9.1797 117.358 8.8886C116.53 8.59749 115.82 9.1797 115.347 9.82014C114.519 9.47081 113.395 9.41259 112.804 10.1695C112.272 10.8681 112.449 11.7997 112.981 12.4983C112.449 13.0805 112.213 14.0121 112.686 14.7107C113.159 15.3511 114.164 15.4676 114.874 15.2929C115.288 15.9916 115.997 16.5156 116.825 16.2827C117.712 16.0498 118.126 15.1765 118.126 14.3614Z" fill="#FB7C82"/>
<path d="M117.358 13.6628C117.89 13.6046 118.422 13.2553 118.422 12.6731C118.422 12.1491 118.008 11.7415 117.535 11.5668C117.594 11.0429 117.358 10.5771 116.885 10.4606C116.412 10.286 115.938 10.5771 115.702 10.9846C115.229 10.7518 114.578 10.7518 114.223 11.1593C113.928 11.5668 113.987 12.1491 114.342 12.4984C113.987 12.9059 113.869 13.4299 114.164 13.8375C114.401 14.245 114.992 14.3032 115.465 14.1868C115.702 14.5943 116.116 14.8855 116.589 14.769C117.062 14.5943 117.299 14.1286 117.358 13.6628Z" fill="#FABEC0"/>
<path d="M117.003 12.0909C116.707 11.6834 116.116 11.5087 115.702 11.7998C115.229 12.0909 115.111 12.6731 115.406 13.0807C115.702 13.4882 116.293 13.6047 116.707 13.3718C117.18 13.0807 117.299 12.4985 117.003 12.0909Z" fill="#FB7C82"/>
</g>
<g clip-path="url(#clip5)">
<path d="M107.596 21.3853C108.164 21.3155 108.661 20.9312 108.696 20.3723C108.696 19.8483 108.306 19.3942 107.809 19.2544C107.845 18.7654 107.632 18.2763 107.135 18.1017C106.638 17.927 106.213 18.2763 105.929 18.6606C105.432 18.451 104.758 18.4161 104.403 18.8702C104.084 19.2894 104.19 19.8483 104.509 20.2675C104.19 20.6168 104.048 21.1757 104.332 21.5949C104.616 21.9792 105.219 22.0491 105.645 21.9443C105.893 22.3635 106.319 22.6778 106.816 22.5381C107.348 22.3984 107.596 21.8744 107.596 21.3853Z" fill="#FB7C82"/>
<path d="M107.136 20.9677C107.456 20.9328 107.775 20.7232 107.775 20.3738C107.775 20.0595 107.527 19.8149 107.243 19.7101C107.278 19.3957 107.136 19.1163 106.853 19.0464C106.569 18.9416 106.285 19.1163 106.143 19.3608C105.859 19.2211 105.469 19.2211 105.256 19.4656C105.078 19.7101 105.114 20.0595 105.327 20.2691C105.114 20.5136 105.043 20.828 105.22 21.0725C105.362 21.317 105.717 21.352 106.001 21.2821C106.143 21.5266 106.391 21.7013 106.675 21.6314C106.959 21.5266 107.101 21.2472 107.136 20.9677Z" fill="#FABEC0"/>
</g>
<g clip-path="url(#clip6)">
<path d="M136.085 9.85683C136.748 9.77532 137.327 9.32702 137.368 8.67494C137.368 8.06362 136.913 7.5338 136.334 7.37078C136.375 6.80022 136.127 6.22965 135.547 6.02588C134.967 5.8221 134.471 6.22965 134.14 6.67795C133.56 6.43342 132.773 6.39267 132.359 6.92248C131.987 7.41154 132.111 8.06362 132.484 8.55268C132.111 8.96022 131.945 9.6123 132.277 10.1014C132.608 10.5497 133.312 10.6312 133.808 10.5089C134.098 10.998 134.595 11.3648 135.174 11.2017C135.795 11.0387 136.085 10.4274 136.085 9.85683Z" fill="#FB7C82"/>
<path d="M135.549 9.36951C135.921 9.32875 136.294 9.08423 136.294 8.67668C136.294 8.30988 136.004 8.0246 135.673 7.90234C135.714 7.53554 135.549 7.2095 135.217 7.12799C134.886 7.00573 134.555 7.2095 134.39 7.49479C134.058 7.33177 133.603 7.33177 133.355 7.61705C133.148 7.90234 133.189 8.30988 133.437 8.55441C133.189 8.8397 133.106 9.20649 133.313 9.49177C133.479 9.77706 133.893 9.81781 134.224 9.7363C134.39 10.0216 134.679 10.2254 135.01 10.1439C135.342 10.0216 135.507 9.69555 135.549 9.36951Z" fill="#FABEC0"/>
</g>
<g clip-path="url(#clip7)">
<path d="M137.25 15.7727C137.629 15.7261 137.96 15.4699 137.984 15.0973C137.984 14.748 137.723 14.4452 137.392 14.3521C137.416 14.026 137.274 13.7 136.943 13.5836C136.612 13.4671 136.328 13.7 136.139 13.9562C135.807 13.8164 135.358 13.7932 135.121 14.0959C134.909 14.3754 134.979 14.748 135.192 15.0274C134.979 15.2603 134.885 15.6329 135.074 15.9124C135.263 16.1686 135.665 16.2152 135.949 16.1453C136.115 16.4248 136.399 16.6344 136.73 16.5412C137.085 16.448 137.25 16.0987 137.25 15.7727Z" fill="#FB7C82"/>
<path d="M136.944 15.4947C137.157 15.4714 137.37 15.3316 137.37 15.0988C137.37 14.8892 137.204 14.7261 137.015 14.6563C137.039 14.4467 136.944 14.2604 136.755 14.2138C136.566 14.1439 136.377 14.2604 136.282 14.4234C136.093 14.3302 135.832 14.3302 135.691 14.4933C135.572 14.6563 135.596 14.8892 135.738 15.0289C135.596 15.1919 135.549 15.4015 135.667 15.5645C135.762 15.7276 135.998 15.7508 136.187 15.7043C136.282 15.8673 136.448 15.9837 136.637 15.9371C136.826 15.8673 136.921 15.681 136.944 15.4947Z" fill="#FABEC0"/>
</g>
<g clip-path="url(#clip8)">
<path d="M108.142 16.7223C108.425 16.6874 108.674 16.4953 108.692 16.2158C108.692 15.9538 108.496 15.7268 108.248 15.6569C108.266 15.4124 108.159 15.1678 107.911 15.0805C107.663 14.9932 107.45 15.1678 107.308 15.36C107.059 15.2552 106.722 15.2377 106.545 15.4648C106.385 15.6744 106.438 15.9538 106.598 16.1634C106.438 16.3381 106.367 16.6175 106.509 16.8271C106.651 17.0193 106.953 17.0542 107.166 17.0018C107.29 17.2114 107.503 17.3686 107.751 17.2987C108.017 17.2289 108.142 16.9669 108.142 16.7223Z" fill="#FB7C82"/>
<path d="M107.912 16.5135C108.071 16.496 108.231 16.3913 108.231 16.2166C108.231 16.0594 108.107 15.9371 107.965 15.8847C107.983 15.7275 107.912 15.5878 107.77 15.5529C107.628 15.5005 107.486 15.5878 107.415 15.7101C107.273 15.6402 107.078 15.6402 106.971 15.7625C106.883 15.8847 106.9 16.0594 107.007 16.1642C106.9 16.2865 106.865 16.4437 106.954 16.5659C107.025 16.6882 107.202 16.7056 107.344 16.6707C107.415 16.793 107.539 16.8803 107.681 16.8454C107.823 16.793 107.894 16.6532 107.912 16.5135Z" fill="#FABEC0"/>
</g>
<g clip-path="url(#clip9)">
<path d="M123.164 9.96305C123.448 9.92812 123.697 9.73599 123.714 9.45653C123.714 9.19454 123.519 8.96747 123.271 8.89761C123.289 8.65308 123.182 8.40855 122.934 8.32122C122.685 8.23389 122.472 8.40855 122.331 8.60068C122.082 8.49588 121.745 8.47842 121.568 8.70548C121.408 8.91507 121.461 9.19454 121.621 9.40413C121.461 9.5788 121.39 9.85826 121.532 10.0679C121.674 10.26 121.976 10.2949 122.189 10.2425C122.313 10.4521 122.526 10.6093 122.774 10.5394C123.04 10.4696 123.164 10.2076 123.164 9.96305Z" fill="#FB7C82"/>
<path d="M122.934 9.75424C123.094 9.73677 123.254 9.63197 123.254 9.45731C123.254 9.30011 123.13 9.17785 122.988 9.12545C123.005 8.96825 122.934 8.82852 122.793 8.79359C122.651 8.74119 122.509 8.82852 122.438 8.95079C122.296 8.88092 122.101 8.88092 121.994 9.00319C121.905 9.12545 121.923 9.30011 122.03 9.40491C121.923 9.52718 121.888 9.68437 121.976 9.80664C122.047 9.9289 122.225 9.94637 122.367 9.91144C122.438 10.0337 122.562 10.121 122.704 10.0861C122.846 10.0337 122.917 9.89397 122.934 9.75424Z" fill="#FABEC0"/>
</g>
<g clip-path="url(#clip10)">
<path d="M99.8818 9.96305C100.166 9.92812 100.414 9.73599 100.432 9.45653C100.432 9.19454 100.237 8.96747 99.9882 8.89761C100.006 8.65308 99.8995 8.40855 99.6511 8.32122C99.4028 8.23389 99.1899 8.40855 99.0479 8.60068C98.7995 8.49588 98.4625 8.47842 98.285 8.70548C98.1254 8.91507 98.1786 9.19454 98.3383 9.40413C98.1786 9.5788 98.1076 9.85826 98.2496 10.0679C98.3915 10.26 98.6931 10.2949 98.906 10.2425C99.0302 10.4521 99.2431 10.6093 99.4915 10.5394C99.7576 10.4696 99.8818 10.2076 99.8818 9.96305Z" fill="#FB7C82"/>
<path d="M99.6519 9.75424C99.8115 9.73677 99.9712 9.63197 99.9712 9.45731C99.9712 9.30011 99.847 9.17785 99.7051 9.12545C99.7228 8.96825 99.6519 8.82852 99.5099 8.79359C99.368 8.74119 99.2261 8.82852 99.1551 8.95079C99.0132 8.88092 98.818 8.88092 98.7116 9.00319C98.6229 9.12545 98.6406 9.30011 98.7471 9.40491C98.6406 9.52718 98.6051 9.68437 98.6938 9.80664C98.7648 9.9289 98.9422 9.94637 99.0841 9.91144C99.1551 10.0337 99.2793 10.121 99.4212 10.0861C99.5632 10.0337 99.6341 9.89397 99.6519 9.75424Z" fill="#FABEC0"/>
</g>
<g clip-path="url(#clip11)">
<path d="M89.934 8.26218C90.3125 8.21561 90.6437 7.95943 90.6674 7.58682C90.6674 7.23749 90.4071 6.93474 90.076 6.84159C90.0996 6.51555 89.9577 6.18951 89.6265 6.07307C89.2953 5.95662 89.0115 6.18951 88.8222 6.44568C88.4911 6.30595 88.0416 6.28266 87.8051 6.58541C87.5922 6.86487 87.6631 7.23749 87.876 7.51695C87.6631 7.74984 87.5685 8.12245 87.7578 8.40191C87.947 8.65809 88.3491 8.70466 88.633 8.6348C88.7986 8.91426 89.0825 9.12386 89.4136 9.0307C89.7685 8.93755 89.934 8.58822 89.934 8.26218Z" fill="#FB7C82"/>
<path d="M89.628 7.98417C89.8409 7.96088 90.0538 7.82115 90.0538 7.58826C90.0538 7.37867 89.8882 7.21565 89.699 7.14578C89.7226 6.93619 89.628 6.74988 89.4387 6.7033C89.2495 6.63344 89.0603 6.74988 88.9656 6.9129C88.7764 6.81974 88.5162 6.81974 88.3743 6.98276C88.256 7.14578 88.2796 7.37867 88.4216 7.5184C88.2796 7.68142 88.2323 7.89101 88.3506 8.05403C88.4452 8.21705 88.6818 8.24034 88.871 8.19376C88.9656 8.35678 89.1312 8.47323 89.3205 8.42665C89.5097 8.35678 89.6043 8.17048 89.628 7.98417Z" fill="#FABEC0"/>
</g>
<g clip-path="url(#clip12)">
<path d="M70.2238 8.06473C70.6969 8.00651 71.1109 7.68629 71.1404 7.22052C71.1404 6.78386 70.8152 6.40542 70.4012 6.28898C70.4308 5.88143 70.2534 5.47389 69.8394 5.32833C69.4254 5.18278 69.0706 5.47389 68.834 5.7941C68.4201 5.61944 67.8583 5.59033 67.5626 5.96877C67.2965 6.31809 67.3852 6.78386 67.6513 7.13319C67.3852 7.42429 67.2669 7.89006 67.5034 8.23939C67.74 8.55961 68.2427 8.61783 68.5975 8.5305C68.8045 8.87982 69.1593 9.14182 69.5733 9.02538C70.0168 8.90894 70.2238 8.47228 70.2238 8.06473Z" fill="#FB7C82"/>
<path d="M69.8404 7.71654C70.1066 7.68743 70.3727 7.51276 70.3727 7.22166C70.3727 6.95966 70.1657 6.75589 69.9291 6.66856C69.9587 6.40656 69.8404 6.17368 69.6039 6.11545C69.3673 6.02812 69.1308 6.17368 69.0125 6.37745C68.7759 6.26101 68.4507 6.26101 68.2733 6.46478C68.1254 6.66856 68.155 6.95966 68.3324 7.13433C68.155 7.3381 68.0959 7.6001 68.2437 7.80387C68.362 8.00764 68.6577 8.03675 68.8942 7.97853C69.0125 8.18231 69.2195 8.32786 69.456 8.26964C69.6926 8.18231 69.8109 7.94942 69.8404 7.71654Z" fill="#FABEC0"/>
</g>
<g clip-path="url(#clip13)">
<path d="M125.176 16.5237C125.554 16.4771 125.885 16.2209 125.909 15.8483C125.909 15.499 125.649 15.1962 125.318 15.1031C125.341 14.777 125.199 14.451 124.868 14.3345C124.537 14.2181 124.253 14.451 124.064 14.7072C123.733 14.5674 123.283 14.5441 123.047 14.8469C122.834 15.1263 122.905 15.499 123.118 15.7784C122.905 16.0113 122.81 16.3839 123 16.6634C123.189 16.9196 123.591 16.9661 123.875 16.8963C124.04 17.1757 124.324 17.3853 124.655 17.2922C125.01 17.199 125.176 16.8497 125.176 16.5237Z" fill="#FB7C82"/>
<path d="M124.87 16.2456C125.083 16.2224 125.295 16.0826 125.295 15.8497C125.295 15.6401 125.13 15.4771 124.941 15.4073C124.964 15.1977 124.87 15.0114 124.68 14.9648C124.491 14.8949 124.302 15.0114 124.207 15.1744C124.018 15.0812 123.758 15.0812 123.616 15.2442C123.498 15.4073 123.521 15.6401 123.663 15.7799C123.521 15.9429 123.474 16.1525 123.592 16.3155C123.687 16.4785 123.923 16.5018 124.113 16.4552C124.207 16.6183 124.373 16.7347 124.562 16.6881C124.751 16.6183 124.846 16.4319 124.87 16.2456Z" fill="#FABEC0"/>
</g>
<g clip-path="url(#clip14)">
<path d="M101.951 23.2832C102.329 23.2366 102.661 22.9804 102.684 22.6078C102.684 22.2585 102.424 21.9557 102.093 21.8626C102.116 21.5365 101.975 21.2105 101.643 21.0941C101.312 20.9776 101.028 21.2105 100.839 21.4667C100.508 21.3269 100.058 21.3037 99.8219 21.6064C99.609 21.8859 99.68 22.2585 99.8929 22.5379C99.68 22.7708 99.5854 23.1434 99.7746 23.4229C99.9638 23.6791 100.366 23.7257 100.65 23.6558C100.815 23.9353 101.099 24.1449 101.43 24.0517C101.785 23.9585 101.951 23.6092 101.951 23.2832Z" fill="#FB7C82"/>
<path d="M101.645 23.0052C101.858 22.9819 102.071 22.8421 102.071 22.6093C102.071 22.3997 101.905 22.2366 101.716 22.1668C101.739 21.9572 101.645 21.7709 101.456 21.7243C101.266 21.6544 101.077 21.7709 100.982 21.9339C100.793 21.8407 100.533 21.8407 100.391 22.0038C100.273 22.1668 100.296 22.3997 100.438 22.5394C100.296 22.7024 100.249 22.912 100.367 23.075C100.462 23.238 100.699 23.2613 100.888 23.2148C100.982 23.3778 101.148 23.4942 101.337 23.4476C101.526 23.3778 101.621 23.1915 101.645 23.0052Z" fill="#FABEC0"/>
</g>
<g clip-path="url(#clip15)">
<path d="M116.972 22.5322C117.35 22.4856 117.682 22.2295 117.705 21.8568C117.705 21.5075 117.445 21.2048 117.114 21.1116C117.138 20.7856 116.996 20.4595 116.664 20.3431C116.333 20.2266 116.049 20.4595 115.86 20.7157C115.529 20.576 115.08 20.5527 114.843 20.8554C114.63 21.1349 114.701 21.5075 114.914 21.787C114.701 22.0199 114.606 22.3925 114.796 22.6719C114.985 22.9281 115.387 22.9747 115.671 22.9048C115.836 23.1843 116.12 23.3939 116.452 23.3007C116.806 23.2076 116.972 22.8582 116.972 22.5322Z" fill="#FB7C82"/>
<path d="M116.666 22.2542C116.879 22.2309 117.092 22.0912 117.092 21.8583C117.092 21.6487 116.926 21.4857 116.737 21.4158C116.76 21.2062 116.666 21.0199 116.477 20.9733C116.287 20.9035 116.098 21.0199 116.003 21.1829C115.814 21.0898 115.554 21.0898 115.412 21.2528C115.294 21.4158 115.317 21.6487 115.459 21.7884C115.317 21.9514 115.27 22.161 115.388 22.3241C115.483 22.4871 115.72 22.5104 115.909 22.4638C116.003 22.6268 116.169 22.7432 116.358 22.6967C116.548 22.6268 116.642 22.4405 116.666 22.2542Z" fill="#FABEC0"/>
</g>
<g clip-path="url(#clip16)">
<path d="M129.725 12.3399C130.671 12.2235 131.499 11.583 131.558 10.6515C131.558 9.77817 130.908 9.0213 130.08 8.78841C130.139 7.97332 129.784 7.15822 128.956 6.86711C128.128 6.57601 127.418 7.15822 126.945 7.79865C126.117 7.44933 124.994 7.3911 124.402 8.14798C123.87 8.84663 124.048 9.77817 124.58 10.4768C124.048 11.059 123.811 11.9906 124.284 12.6892C124.757 13.3297 125.763 13.4461 126.472 13.2714C126.886 13.9701 127.596 14.4941 128.424 14.2612C129.311 14.0283 129.725 13.155 129.725 12.3399Z" fill="#FB7C82"/>
<path d="M128.956 11.6413C129.488 11.5831 130.021 11.2338 130.021 10.6516C130.021 10.1276 129.607 9.72003 129.134 9.54536C129.193 9.02137 128.956 8.5556 128.483 8.43916C128.01 8.2645 127.537 8.5556 127.3 8.96315C126.827 8.73027 126.177 8.73027 125.822 9.13782C125.526 9.54536 125.585 10.1276 125.94 10.4769C125.585 10.8845 125.467 11.4084 125.763 11.816C125.999 12.2235 126.591 12.2818 127.064 12.1653C127.3 12.5729 127.714 12.864 128.187 12.7475C128.661 12.5729 128.897 12.1071 128.956 11.6413Z" fill="#FABEC0"/>
<path d="M128.601 10.0695C128.306 9.6619 127.714 9.48724 127.3 9.77834C126.827 10.0695 126.709 10.6517 127.005 11.0592C127.3 11.4668 127.892 11.5832 128.306 11.3503C128.779 11.0592 128.897 10.477 128.601 10.0695Z" fill="#FB7C82"/>
</g>
<g clip-path="url(#clip17)">
<path d="M120.177 4.5995C120.839 4.51799 121.419 4.06969 121.46 3.41761C121.46 2.80629 121.005 2.27648 120.425 2.11346C120.467 1.54289 120.218 0.972326 119.639 0.768552C119.059 0.564778 118.563 0.972326 118.231 1.42063C117.652 1.1761 116.865 1.13535 116.451 1.66516C116.079 2.15422 116.203 2.80629 116.576 3.29535C116.203 3.7029 116.037 4.35498 116.369 4.84403C116.7 5.29234 117.403 5.37385 117.9 5.25158C118.19 5.74064 118.687 6.10743 119.266 5.94441C119.887 5.78139 120.177 5.17007 120.177 4.5995Z" fill="#FB7C82"/>
<path d="M119.641 4.11219C120.013 4.07143 120.386 3.8269 120.386 3.41935C120.386 3.05256 120.096 2.76728 119.765 2.64501C119.806 2.27822 119.641 1.95218 119.309 1.87067C118.978 1.74841 118.647 1.95218 118.481 2.23746C118.15 2.07444 117.695 2.07444 117.446 2.35973C117.24 2.64501 117.281 3.05256 117.529 3.29709C117.281 3.58237 117.198 3.94917 117.405 4.23445C117.571 4.51973 117.985 4.56049 118.316 4.47898C118.481 4.76426 118.771 4.96804 119.102 4.88653C119.434 4.76426 119.599 4.43822 119.641 4.11219Z" fill="#FABEC0"/>
<path d="M119.392 3.01175C119.185 2.72647 118.771 2.6042 118.481 2.80798C118.15 3.01175 118.067 3.4193 118.274 3.70458C118.481 3.98987 118.895 4.07138 119.185 3.90836C119.516 3.70458 119.599 3.29703 119.392 3.01175Z" fill="#FB7C82"/>
</g>
<g clip-path="url(#clip18)">
<path d="M77.1846 6.72017C77.9416 6.62701 78.6039 6.11466 78.6512 5.36943C78.6512 4.67078 78.1308 4.06528 77.4685 3.87897C77.5158 3.22689 77.2319 2.57482 76.5696 2.34193C75.9072 2.10905 75.3395 2.57482 74.961 3.08716C74.2987 2.8077 73.3998 2.76113 72.9267 3.36663C72.5009 3.92555 72.6428 4.67078 73.0686 5.2297C72.6428 5.69547 72.4536 6.4407 72.832 6.99963C73.2105 7.51197 74.0148 7.60513 74.5825 7.4654C74.9137 8.02432 75.4814 8.44351 76.1438 8.2572C76.8534 8.0709 77.1846 7.37224 77.1846 6.72017Z" fill="#FB7C82"/>
<path d="M76.5702 6.16194C76.996 6.11536 77.4218 5.8359 77.4218 5.37013C77.4218 4.95094 77.0906 4.6249 76.7121 4.48517C76.7594 4.06598 76.5702 3.69336 76.1917 3.60021C75.8132 3.46048 75.4347 3.69336 75.2455 4.0194C74.867 3.83309 74.3466 3.83309 74.0627 4.15913C73.8262 4.48517 73.8735 4.95094 74.1574 5.2304C73.8735 5.55644 73.7789 5.97563 74.0154 6.30167C74.2047 6.62771 74.6778 6.67428 75.0562 6.58113C75.2455 6.90717 75.5767 7.14005 75.9551 7.0469C76.3336 6.90717 76.5229 6.53455 76.5702 6.16194Z" fill="#FABEC0"/>
<path d="M76.2864 4.90419C76.0498 4.57815 75.5767 4.43842 75.2455 4.67131C74.867 4.90419 74.7724 5.36996 75.009 5.696C75.2455 6.02204 75.7186 6.11519 76.0498 5.92889C76.4283 5.696 76.5229 5.23023 76.2864 4.90419Z" fill="#FB7C82"/>
</g>
<g opacity="0.6">
<g clip-path="url(#clip19)">
<path d="M150.037 16.4838C150.794 16.3907 151.456 15.8783 151.503 15.1331C151.503 14.4345 150.983 13.829 150.321 13.6426C150.368 12.9906 150.084 12.3385 149.422 12.1056C148.759 11.8727 148.192 12.3385 147.813 12.8508C147.151 12.5714 146.252 12.5248 145.779 13.1303C145.353 13.6892 145.495 14.4345 145.921 14.9934C145.495 15.4591 145.306 16.2044 145.684 16.7633C146.063 17.2756 146.867 17.3688 147.435 17.2291C147.766 17.788 148.334 18.2072 148.996 18.0209C149.706 17.8346 150.037 17.1359 150.037 16.4838Z" fill="#FB7C82"/>
<path d="M149.422 15.9256C149.848 15.879 150.274 15.5996 150.274 15.1338C150.274 14.7146 149.943 14.3886 149.564 14.2488C149.612 13.8296 149.422 13.457 149.044 13.3639C148.665 13.2241 148.287 13.457 148.098 13.7831C147.719 13.5968 147.199 13.5968 146.915 13.9228C146.678 14.2488 146.726 14.7146 147.01 14.9941C146.726 15.3201 146.631 15.7393 146.868 16.0653C147.057 16.3914 147.53 16.438 147.908 16.3448C148.098 16.6708 148.429 16.9037 148.807 16.8106C149.186 16.6708 149.375 16.2982 149.422 15.9256Z" fill="#FABEC0"/>
<path d="M149.139 14.6679C148.902 14.3418 148.429 14.2021 148.098 14.435C147.719 14.6679 147.625 15.1336 147.861 15.4597C148.098 15.7857 148.571 15.8789 148.902 15.6926C149.281 15.4597 149.375 14.9939 149.139 14.6679Z" fill="#FB7C82"/>
</g>
</g>
<g clip-path="url(#clip20)">
<path d="M142.892 19.8831C143.46 19.8133 143.957 19.429 143.992 18.8701C143.992 18.3461 143.602 17.892 143.105 17.7522C143.141 17.2632 142.928 16.7741 142.431 16.5995C141.934 16.4248 141.508 16.7741 141.224 17.1584C140.728 16.9488 140.054 16.9139 139.699 17.368C139.379 17.7872 139.486 18.3461 139.805 18.7653C139.486 19.1146 139.344 19.6735 139.628 20.0927C139.912 20.477 140.515 20.5469 140.941 20.4421C141.189 20.8613 141.615 21.1757 142.112 21.0359C142.644 20.8962 142.892 20.3722 142.892 19.8831Z" fill="#FB7C82"/>
<path d="M142.432 19.4655C142.752 19.4306 143.071 19.221 143.071 18.8717C143.071 18.5573 142.823 18.3127 142.539 18.2079C142.574 17.8935 142.432 17.6141 142.148 17.5442C141.865 17.4394 141.581 17.6141 141.439 17.8586C141.155 17.7189 140.765 17.7189 140.552 17.9634C140.374 18.2079 140.41 18.5573 140.623 18.7669C140.41 19.0114 140.339 19.3258 140.516 19.5703C140.658 19.8148 141.013 19.8498 141.297 19.7799C141.439 20.0244 141.687 20.1991 141.971 20.1292C142.255 20.0244 142.397 19.745 142.432 19.4655Z" fill="#FABEC0"/>
<path d="M142.219 18.5221C142.042 18.2776 141.687 18.1728 141.439 18.3475C141.155 18.5221 141.084 18.8715 141.261 19.116C141.439 19.3605 141.794 19.4304 142.042 19.2907C142.326 19.116 142.397 18.7667 142.219 18.5221Z" fill="#FB7C82"/>
</g>
<g clip-path="url(#clip21)">
<path d="M110.902 14.073C111.375 14.0148 111.789 13.6946 111.818 13.2288C111.818 12.7922 111.493 12.4137 111.079 12.2973C111.109 11.8897 110.931 11.4822 110.517 11.3366C110.103 11.1911 109.749 11.4822 109.512 11.8024C109.098 11.6277 108.536 11.5986 108.241 11.9771C107.974 12.3264 108.063 12.7922 108.329 13.1415C108.063 13.4326 107.945 13.8984 108.181 14.2477C108.418 14.5679 108.921 14.6261 109.276 14.5388C109.483 14.8881 109.837 15.1501 110.251 15.0337C110.695 14.9172 110.902 14.4806 110.902 14.073Z" fill="#FB7C82"/>
<path d="M110.518 13.7248C110.785 13.6957 111.051 13.5211 111.051 13.23C111.051 12.968 110.844 12.7642 110.607 12.6769C110.637 12.4149 110.518 12.182 110.282 12.1238C110.045 12.0364 109.809 12.182 109.69 12.3858C109.454 12.2693 109.129 12.2693 108.951 12.4731C108.803 12.6769 108.833 12.968 109.01 13.1426C108.833 13.3464 108.774 13.6084 108.922 13.8122C109.04 14.0159 109.336 14.0451 109.572 13.9868C109.69 14.1906 109.897 14.3362 110.134 14.2779C110.371 14.1906 110.489 13.9577 110.518 13.7248Z" fill="#FABEC0"/>
<path d="M110.341 12.9388C110.193 12.735 109.897 12.6477 109.69 12.7932C109.454 12.9388 109.395 13.2299 109.543 13.4337C109.69 13.6374 109.986 13.6957 110.193 13.5792C110.43 13.4337 110.489 13.1426 110.341 12.9388Z" fill="#FB7C82"/>
</g>
<g clip-path="url(#clip22)">
<path d="M97.2616 11.8199C97.7347 11.7616 98.1487 11.4414 98.1783 10.9756C98.1783 10.539 97.853 10.1606 97.439 10.0441C97.4686 9.63656 97.2912 9.22901 96.8772 9.08346C96.4633 8.93791 96.1084 9.22901 95.8719 9.54923C95.4579 9.37457 94.8961 9.34545 94.6004 9.72389C94.3343 10.0732 94.423 10.539 94.6891 10.8883C94.423 11.1794 94.3047 11.6452 94.5413 11.9945C94.7778 12.3147 95.2805 12.373 95.6353 12.2856C95.8423 12.635 96.1971 12.8969 96.6111 12.7805C97.0547 12.6641 97.2616 12.2274 97.2616 11.8199Z" fill="#FB7C82"/>
<path d="M96.8782 11.4717C97.1443 11.4426 97.4105 11.2679 97.4105 10.9768C97.4105 10.7148 97.2035 10.511 96.9669 10.4237C96.9965 10.1617 96.8782 9.9288 96.6417 9.87058C96.4051 9.78325 96.1686 9.9288 96.0503 10.1326C95.8137 10.0161 95.4885 10.0161 95.3111 10.2199C95.1632 10.4237 95.1928 10.7148 95.3702 10.8895C95.1928 11.0932 95.1336 11.3552 95.2815 11.559C95.3998 11.7628 95.6955 11.7919 95.932 11.7337C96.0503 11.9374 96.2573 12.083 96.4938 12.0248C96.7304 11.9374 96.8486 11.7045 96.8782 11.4717Z" fill="#FABEC0"/>
<path d="M96.7008 10.6856C96.553 10.4818 96.2573 10.3945 96.0503 10.5401C95.8137 10.6856 95.7546 10.9767 95.9024 11.1805C96.0503 11.3843 96.346 11.4425 96.553 11.326C96.7895 11.1805 96.8487 10.8894 96.7008 10.6856Z" fill="#FB7C82"/>
</g>
<g clip-path="url(#clip23)">
<path d="M89.7511 12.5711C90.2242 12.5129 90.6382 12.1926 90.6678 11.7269C90.6678 11.2902 90.3425 10.9118 89.9286 10.7953C89.9581 10.3878 89.7807 9.98023 89.3667 9.83468C88.9528 9.68913 88.5979 9.98023 88.3614 10.3004C87.9474 10.1258 87.3856 10.0967 87.0899 10.4751C86.8238 10.8244 86.9125 11.2902 87.1786 11.6395C86.9125 11.9306 86.7942 12.3964 87.0308 12.7457C87.2673 13.066 87.77 13.1242 88.1248 13.0368C88.3318 13.3862 88.6867 13.6482 89.1006 13.5317C89.5442 13.4153 89.7511 12.9786 89.7511 12.5711Z" fill="#FB7C82"/>
<path d="M89.3678 12.2229C89.6339 12.1938 89.9 12.0191 89.9 11.728C89.9 11.466 89.693 11.2622 89.4565 11.1749C89.4861 10.9129 89.3678 10.68 89.1312 10.6218C88.8947 10.5345 88.6581 10.68 88.5398 10.8838C88.3033 10.7674 87.978 10.7674 87.8006 10.9711C87.6528 11.1749 87.6823 11.466 87.8598 11.6407C87.6823 11.8444 87.6232 12.1064 87.7711 12.3102C87.8893 12.514 88.185 12.5431 88.4216 12.4849C88.5398 12.6887 88.7468 12.8342 88.9834 12.776C89.2199 12.6887 89.3382 12.4558 89.3678 12.2229Z" fill="#FABEC0"/>
<path d="M89.1904 11.4368C89.0425 11.2331 88.7468 11.1457 88.5399 11.2913C88.3033 11.4368 88.2442 11.7279 88.392 11.9317C88.5399 12.1355 88.8355 12.1937 89.0425 12.0773C89.2791 11.9317 89.3382 11.6406 89.1904 11.4368Z" fill="#FB7C82"/>
</g>
<g clip-path="url(#clip24)">
<path d="M83.559 10.8704C84.1267 10.8006 84.6234 10.4163 84.6589 9.8574C84.6589 9.33341 84.2686 8.87928 83.7719 8.73955C83.8073 8.25049 83.5944 7.76144 83.0977 7.58677C82.6009 7.41211 82.1751 7.76144 81.8913 8.1457C81.3945 7.9361 80.7203 7.90117 80.3655 8.35529C80.0462 8.77448 80.1526 9.33341 80.472 9.7526C80.1526 10.1019 80.0107 10.6608 80.2945 11.08C80.5784 11.4643 81.1816 11.5342 81.6074 11.4294C81.8558 11.8486 82.2816 12.163 82.7783 12.0232C83.3106 11.8835 83.559 11.3595 83.559 10.8704Z" fill="#FB7C82"/>
<path d="M83.0991 10.4528C83.4185 10.4179 83.7378 10.2083 83.7378 9.85896C83.7378 9.54456 83.4895 9.30003 83.2056 9.19524C83.2411 8.88084 83.0991 8.60138 82.8153 8.53151C82.5314 8.42672 82.2476 8.60138 82.1056 8.84591C81.8218 8.70618 81.4315 8.70618 81.2186 8.95071C81.0411 9.19524 81.0766 9.54456 81.2895 9.75416C81.0766 9.99869 81.0057 10.3131 81.1831 10.5576C81.325 10.8021 81.6798 10.8371 81.9637 10.7672C82.1056 11.0117 82.354 11.1864 82.6379 11.1165C82.9217 11.0117 83.0637 10.7323 83.0991 10.4528Z" fill="#FABEC0"/>
<path d="M82.8862 9.50944C82.7088 9.26491 82.3539 9.16012 82.1056 9.33478C81.8217 9.50944 81.7507 9.85877 81.9281 10.1033C82.1056 10.3478 82.4604 10.4177 82.7088 10.278C82.9926 10.1033 83.0636 9.75397 82.8862 9.50944Z" fill="#FB7C82"/>
</g>
<g clip-path="url(#clip25)">
<path d="M82.2406 5.81155C82.7137 5.75333 83.1277 5.43312 83.1573 4.96735C83.1573 4.53069 82.832 4.15225 82.4181 4.03581C82.4476 3.62826 82.2702 3.22071 81.8562 3.07516C81.4423 2.92961 81.0874 3.22071 80.8509 3.54093C80.4369 3.36626 79.8751 3.33715 79.5794 3.71559C79.3133 4.06492 79.402 4.53069 79.6681 4.88002C79.402 5.17112 79.2837 5.63689 79.5203 5.98622C79.7568 6.30643 80.2595 6.36466 80.6143 6.27732C80.8213 6.62665 81.1762 6.88865 81.5901 6.7722C82.0337 6.65576 82.2406 6.2191 82.2406 5.81155Z" fill="#FB7C82"/>
<path d="M81.8573 5.46336C82.1234 5.43425 82.3895 5.25959 82.3895 4.96848C82.3895 4.70649 82.1825 4.50271 81.946 4.41538C81.9756 4.15339 81.8573 3.9205 81.6207 3.86228C81.3842 3.77495 81.1476 3.9205 81.0293 4.12428C80.7928 4.00783 80.4675 4.00783 80.2901 4.21161C80.1423 4.41538 80.1718 4.70649 80.3493 4.88115C80.1718 5.08493 80.1127 5.34692 80.2606 5.5507C80.3788 5.75447 80.6745 5.78358 80.9111 5.72536C81.0293 5.92913 81.2363 6.07469 81.4729 6.01646C81.7094 5.92913 81.8277 5.69625 81.8573 5.46336Z" fill="#FABEC0"/>
<path d="M81.6799 4.6773C81.532 4.47353 81.2363 4.3862 81.0294 4.53175C80.7928 4.6773 80.7337 4.96841 80.8815 5.17218C81.0294 5.37596 81.325 5.43418 81.532 5.31774C81.7686 5.17218 81.8277 4.88108 81.6799 4.6773Z" fill="#FB7C82"/>
</g>
<g clip-path="url(#clip26)">
<path d="M129.113 5.19333C129.491 5.14676 129.823 4.89058 129.846 4.51797C129.846 4.16864 129.586 3.86589 129.255 3.77274C129.279 3.4467 129.137 3.12066 128.805 3.00422C128.474 2.88778 128.19 3.12066 128.001 3.37683C127.67 3.2371 127.221 3.21381 126.984 3.51656C126.771 3.79603 126.842 4.16864 127.055 4.4481C126.842 4.68099 126.747 5.0536 126.937 5.33307C127.126 5.58924 127.528 5.63582 127.812 5.56595C127.977 5.84541 128.261 6.05501 128.593 5.96185C128.947 5.8687 129.113 5.51937 129.113 5.19333Z" fill="#FB7C82"/>
<path d="M128.807 4.91532C129.02 4.89203 129.233 4.7523 129.233 4.51942C129.233 4.30982 129.067 4.1468 128.878 4.07693C128.901 3.86734 128.807 3.68103 128.618 3.63445C128.428 3.56459 128.239 3.68103 128.144 3.84405C127.955 3.7509 127.695 3.7509 127.553 3.91392C127.435 4.07693 127.458 4.30982 127.6 4.44955C127.458 4.61257 127.411 4.82217 127.529 4.98519C127.624 5.1482 127.861 5.17149 128.05 5.12492C128.144 5.28794 128.31 5.40438 128.499 5.3578C128.689 5.28794 128.783 5.10163 128.807 4.91532Z" fill="#FABEC0"/>
<path d="M128.665 4.28657C128.547 4.12355 128.31 4.05368 128.144 4.17013C127.955 4.28657 127.908 4.51945 128.026 4.68247C128.144 4.84549 128.381 4.89207 128.547 4.79892C128.736 4.68247 128.783 4.44959 128.665 4.28657Z" fill="#FB7C82"/>
</g>
<g clip-path="url(#clip27)">
<path d="M102.22 19.8831C102.787 19.8133 103.284 19.429 103.32 18.8701C103.32 18.3461 102.929 17.892 102.433 17.7522C102.468 17.2632 102.255 16.7741 101.758 16.5995C101.262 16.4248 100.836 16.7741 100.552 17.1584C100.055 16.9488 99.3811 16.9139 99.0263 17.368C98.7069 17.7872 98.8134 18.3461 99.1327 18.7653C98.8134 19.1146 98.6714 19.6735 98.9553 20.0927C99.2392 20.477 99.8424 20.5469 100.268 20.4421C100.517 20.8613 100.942 21.1757 101.439 21.0359C101.971 20.8962 102.22 20.3722 102.22 19.8831Z" fill="#FDB8A8"/>
<path d="M101.831 19.5352C102.186 19.5003 102.54 19.2558 102.54 18.8715C102.54 18.5222 102.292 18.2427 101.973 18.1379C102.008 17.8235 101.866 17.5091 101.547 17.4043C101.192 17.2646 100.908 17.4742 100.731 17.7537C100.412 17.6139 99.9857 17.579 99.7374 17.8585C99.5245 18.1379 99.5954 18.5222 99.8083 18.7667C99.5954 19.0112 99.5245 19.3955 99.7019 19.64C99.8793 19.9195 100.27 19.9544 100.553 19.8846C100.731 20.164 100.979 20.3736 101.334 20.2688C101.653 20.164 101.831 19.8496 101.831 19.5352Z" fill="#FFDFDA"/>
</g>
<g clip-path="url(#clip28)">
<path d="M66.9156 8.46086C67.1995 8.42593 67.4479 8.2338 67.4656 7.95433C67.4656 7.69234 67.2705 7.46528 67.0221 7.39541C67.0398 7.15088 66.9334 6.90635 66.685 6.81902C66.4366 6.73169 66.2237 6.90635 66.0818 7.09848C65.8334 6.99368 65.4963 6.97622 65.3189 7.20328C65.1592 7.41288 65.2125 7.69234 65.3721 7.90193C65.2125 8.0766 65.1415 8.35606 65.2834 8.56566C65.4254 8.75779 65.727 8.79272 65.9399 8.74032C66.0641 8.94992 66.277 9.10711 66.5253 9.03725C66.7915 8.96738 66.9156 8.70539 66.9156 8.46086Z" fill="#FDB8A8"/>
<path d="M66.7212 8.2869C66.8986 8.26944 67.076 8.14717 67.076 7.95504C67.076 7.78038 66.9518 7.64065 66.7922 7.58825C66.8099 7.43105 66.7389 7.27386 66.5793 7.22146C66.4019 7.15159 66.2599 7.25639 66.1712 7.39612C66.0116 7.32626 65.7987 7.30879 65.6745 7.44852C65.568 7.58825 65.6035 7.78038 65.7099 7.90264C65.6035 8.02491 65.568 8.21704 65.6567 8.3393C65.7454 8.47903 65.9406 8.4965 66.0825 8.46157C66.1712 8.6013 66.2954 8.7061 66.4728 8.6537C66.6325 8.6013 66.7212 8.4441 66.7212 8.2869Z" fill="#FFDFDA"/>
</g>
<g clip-path="url(#clip29)">
<path d="M121.295 8.06473C121.768 8.00651 122.182 7.68629 122.212 7.22052C122.212 6.78386 121.887 6.40542 121.473 6.28898C121.502 5.88143 121.325 5.47389 120.911 5.32833C120.497 5.18278 120.142 5.47389 119.906 5.7941C119.492 5.61944 118.93 5.59033 118.634 5.96877C118.368 6.31809 118.457 6.78386 118.723 7.13319C118.457 7.42429 118.338 7.89006 118.575 8.23939C118.812 8.55961 119.314 8.61783 119.669 8.5305C119.876 8.87982 120.231 9.14182 120.645 9.02538C121.088 8.90893 121.295 8.47228 121.295 8.06473Z" fill="#FDB8A8"/>
<path d="M120.971 7.77472C121.267 7.74561 121.563 7.54184 121.563 7.22162C121.563 6.93052 121.356 6.69763 121.089 6.6103C121.119 6.3483 121.001 6.08631 120.735 5.99898C120.439 5.88254 120.202 6.0572 120.055 6.29008C119.788 6.17364 119.434 6.14453 119.227 6.37742C119.049 6.6103 119.108 6.93052 119.286 7.13429C119.108 7.33806 119.049 7.65828 119.197 7.86206C119.345 8.09494 119.67 8.12405 119.907 8.06583C120.055 8.29871 120.261 8.47338 120.557 8.38605C120.823 8.29871 120.971 8.03672 120.971 7.77472Z" fill="#FFDFDA"/>
</g>
<g clip-path="url(#clip30)">
<path d="M97.2616 8.06473C97.7347 8.00651 98.1487 7.68629 98.1783 7.22052C98.1783 6.78386 97.853 6.40542 97.439 6.28898C97.4686 5.88143 97.2912 5.47389 96.8772 5.32833C96.4633 5.18278 96.1084 5.47389 95.8719 5.7941C95.4579 5.61944 94.8961 5.59033 94.6004 5.96877C94.3343 6.31809 94.423 6.78386 94.6891 7.13319C94.423 7.42429 94.3047 7.89006 94.5413 8.23939C94.7778 8.55961 95.2805 8.61783 95.6353 8.5305C95.8423 8.87982 96.1971 9.14182 96.6111 9.02538C97.0547 8.90893 97.2616 8.47228 97.2616 8.06473Z" fill="#FDB8A8"/>
<path d="M96.9374 7.77472C97.2331 7.74561 97.5288 7.54184 97.5288 7.22162C97.5288 6.93052 97.3218 6.69763 97.0557 6.6103C97.0852 6.3483 96.967 6.08631 96.7009 5.99898C96.4052 5.88254 96.1686 6.0572 96.0208 6.29008C95.7546 6.17364 95.3998 6.14453 95.1928 6.37742C95.0154 6.6103 95.0746 6.93052 95.252 7.13429C95.0746 7.33806 95.0154 7.65828 95.1633 7.86206C95.3111 8.09494 95.6364 8.12405 95.8729 8.06583C96.0208 8.29871 96.2277 8.47338 96.5234 8.38605C96.7896 8.29871 96.9374 8.03672 96.9374 7.77472Z" fill="#FFDFDA"/>
</g>
<g clip-path="url(#clip31)">
<path d="M99.7146 7.51121C100.093 7.46463 100.424 7.20846 100.448 6.83584C100.448 6.48651 100.188 6.18376 99.8565 6.09061C99.8801 5.76457 99.7382 5.43853 99.407 5.32209C99.0759 5.20565 98.792 5.43853 98.6028 5.69471C98.2716 5.55497 97.8221 5.53169 97.5856 5.83444C97.3727 6.1139 97.4437 6.48651 97.6566 6.76597C97.4437 6.99886 97.349 7.37147 97.5383 7.65094C97.7275 7.90711 98.1297 7.95369 98.4135 7.88382C98.5791 8.16328 98.863 8.37288 99.1941 8.27973C99.549 8.18657 99.7146 7.83724 99.7146 7.51121Z" fill="#FDB8A8"/>
<path d="M99.4558 7.27984C99.6923 7.25655 99.9289 7.09353 99.9289 6.83736C99.9289 6.60447 99.7633 6.41816 99.5504 6.3483C99.574 6.1387 99.4794 5.92911 99.2665 5.85924C99.03 5.76609 98.8407 5.90582 98.7225 6.09213C98.5096 5.99897 98.2257 5.97568 98.0601 6.16199C97.9182 6.3483 97.9655 6.60447 98.1074 6.76749C97.9655 6.93051 97.9182 7.18668 98.0365 7.3497C98.1547 7.53601 98.4149 7.5593 98.6042 7.51272C98.7225 7.69903 98.888 7.83876 99.1246 7.7689C99.3375 7.69903 99.4558 7.48943 99.4558 7.27984Z" fill="#FFDFDA"/>
</g>
<g clip-path="url(#clip32)">
<path d="M75.0974 13.5195C75.4759 13.4729 75.807 13.2168 75.8307 12.8441C75.8307 12.4948 75.5705 12.1921 75.2393 12.0989C75.263 11.7729 75.121 11.4468 74.7899 11.3304C74.4587 11.2139 74.1748 11.4468 73.9856 11.703C73.6544 11.5633 73.205 11.54 72.9684 11.8427C72.7555 12.1222 72.8265 12.4948 73.0394 12.7743C72.8265 13.0072 72.7318 13.3798 72.9211 13.6592C73.1103 13.9154 73.5125 13.962 73.7963 13.8921C73.9619 14.1716 74.2458 14.3812 74.577 14.288C74.9318 14.1949 75.0974 13.8455 75.0974 13.5195Z" fill="#FDB8A8"/>
<path d="M74.8386 13.2881C75.0752 13.2648 75.3117 13.1018 75.3117 12.8457C75.3117 12.6128 75.1462 12.4265 74.9333 12.3566C74.9569 12.147 74.8623 11.9374 74.6494 11.8675C74.4128 11.7744 74.2236 11.9141 74.1053 12.1004C73.8924 12.0073 73.6086 11.984 73.443 12.1703C73.3011 12.3566 73.3484 12.6128 73.4903 12.7758C73.3484 12.9388 73.3011 13.195 73.4193 13.358C73.5376 13.5443 73.7978 13.5676 73.9871 13.521C74.1053 13.7073 74.2709 13.8471 74.5075 13.7772C74.7204 13.7073 74.8386 13.4977 74.8386 13.2881Z" fill="#FFDFDA"/>
</g>
<g clip-path="url(#clip33)">
<path d="M93.2714 14.4692C93.5552 14.4342 93.8036 14.2421 93.8213 13.9626C93.8213 13.7006 93.6262 13.4736 93.3778 13.4037C93.3956 13.1592 93.2891 12.9147 93.0407 12.8273C92.7923 12.74 92.5794 12.9147 92.4375 13.1068C92.1891 13.002 91.852 12.9845 91.6746 13.2116C91.515 13.4212 91.5682 13.7006 91.7279 13.9102C91.5682 14.0849 91.4972 14.3644 91.6392 14.574C91.7811 14.7661 92.0827 14.801 92.2956 14.7486C92.4198 14.9582 92.6327 15.1154 92.881 15.0455C93.1472 14.9757 93.2714 14.7137 93.2714 14.4692Z" fill="#FDB8A8"/>
<path d="M93.0769 14.2952C93.2543 14.2777 93.4317 14.1555 93.4317 13.9633C93.4317 13.7887 93.3076 13.649 93.1479 13.5966C93.1656 13.4394 93.0947 13.2822 92.935 13.2298C92.7576 13.1599 92.6156 13.2647 92.5269 13.4044C92.3673 13.3346 92.1544 13.3171 92.0302 13.4568C91.9237 13.5966 91.9592 13.7887 92.0657 13.9109C91.9592 14.0332 91.9237 14.2253 92.0124 14.3476C92.1011 14.4873 92.2963 14.5048 92.4382 14.4699C92.5269 14.6096 92.6511 14.7144 92.8285 14.662C92.9882 14.6096 93.0769 14.4524 93.0769 14.2952Z" fill="#FFDFDA"/>
</g>
<path d="M103.909 24.625L104.484 25.0827L104.106 25.1795L103.519 25.4259L103.736 24.9905L103.909 24.625Z" fill="#7F7053"/>
<path d="M71.7516 12.3882L71.1414 14.0546L72.4205 13.0923L71.7516 12.3882Z" fill="#7F7053"/>
<path d="M139.342 12.6845L138.431 12.8224L138.901 13.2977L139.264 13.8199L139.342 13.2977L139.342 12.6845Z" fill="#7F7053"/>
<path d="M115.918 8.24525C115.412 8.30908 114.751 8.38202 114.217 8.42305C113.196 8.50056 113.588 8.43217 113.005 8.40482C112.421 8.37746 111.199 8.35467 110.999 8.38202C110.853 8.40026 110.319 8.42761 110.014 8.46864C108.249 8.71483 109.613 7.76655 109.631 7.74376C109.631 7.74376 109.631 7.7392 109.635 7.7392C109.717 7.6389 112.685 4.17403 115.79 2.59204C115.79 2.59204 113.374 3.64974 111.792 4.88068C110.21 6.10706 109.271 6.43531 109.622 5.61468C109.973 4.79406 111.03 2.98867 110.725 1.52978C110.47 0.271484 110.47 0.271484 110.47 0.271484C110.47 0.271484 111.035 3.47193 107.866 6.95048C107.857 6.9596 107.844 6.96872 107.83 6.97328C107.734 7.01431 107.278 7.21491 107.119 7.32888C106.822 7.52948 106.522 7.56595 106.23 7.48845C104.93 7.60699 103.836 6.70885 102.984 5.50983C101.137 2.89293 100.075 1.60273 100.075 1.60273C100.075 1.60273 101.511 7.81214 104.434 8.72851L104.438 8.72395C104.434 8.73763 104.424 8.74675 104.411 8.75586C104.32 8.83337 104.133 9.01573 104.032 9.30751C103.927 9.62208 103.927 9.89563 103.932 9.99136C103.932 10.0142 103.927 10.0415 103.909 10.0598L103.745 10.2649C103.681 10.347 103.763 10.4609 103.859 10.4245C103.937 10.3971 104.014 10.4701 103.991 10.5521L103.987 10.5658C103.964 10.6479 104.041 10.7208 104.119 10.6935L104.516 10.5612C104.543 10.5521 104.57 10.5521 104.598 10.5658C104.703 10.6205 105.058 10.771 105.801 10.7482C106.718 10.7208 107.538 10.078 107.707 10.0142C107.876 9.94577 108.145 10.1327 108.874 10.1099C109.521 10.0917 113.72 9.24824 115.968 8.44129C116.082 8.40026 116.041 8.22702 115.918 8.24525Z" fill="black"/>
<path d="M104.251 10.6569C104.251 10.6569 104.776 8.63272 107.146 7.69812C107.146 7.69812 107.944 7.74371 108.423 7.69812C108.901 7.65253 108.742 8.06284 108.742 8.06284C108.742 8.06284 107.921 8.83788 107.876 8.95185C107.83 9.06583 107.707 10.0187 107.707 10.0187C107.707 10.0187 106.244 11.2131 104.598 10.5703L104.251 10.6569Z" fill="white"/>
<g clip-path="url(#clip34)">
<path d="M52.5685 10.3389L52.6177 10.2971L50.9994 10.9517C52.2362 11.4585 52.0339 12.0658 51.5216 12.6013C50.9371 13.2318 47.6162 14.0935 47.6162 14.0935C47.6162 14.0935 51.9277 13.6631 53.32 12.8153C53.4937 12.7012 53.6152 12.5645 53.6962 12.3785C54.3496 10.735 52.5685 10.3389 52.5685 10.3389Z" fill="black"/>
<path d="M52.696 10.3311C52.6815 10.2931 52.7162 10.2134 52.7393 10.1603C52.9418 9.83756 53.4309 9.35513 53.6189 8.99448C53.7491 8.76669 53.8561 8.59204 54.0935 8.47413C54.0935 8.47413 54.105 8.44756 54.1166 8.42099C53.8763 8.47441 53.7054 8.3684 53.5576 8.20925C53.517 8.15999 53.4649 8.13729 53.4128 8.11459C53.126 7.98977 52.8626 8.09633 52.6252 8.21424C52.4515 8.32827 52.2779 8.44231 52.1157 8.52977C52.0722 8.41601 52.0172 8.32883 51.9997 8.22642C51.762 7.77526 51.4288 7.47219 50.9249 7.34764C50.2906 7.16635 49.6565 7.26959 49.0369 7.41075C47.8238 7.70441 48.0265 7.66622 46.9149 8.22532C46.5646 8.3889 46.2288 8.5904 45.893 8.79189L45.9075 8.82981C46.2086 8.70803 46.5183 8.49518 46.8368 8.47581C47.9053 8.37201 47.2422 8.39941 48.1601 8.35651C48.58 8.31804 49.0028 8.34405 49.3938 8.51427C49.7587 8.67315 50.0137 8.94218 50.0574 9.34047C50.0866 9.70083 49.855 9.94772 49.583 10.1453C49.3225 10.3164 49.0619 10.4874 48.8014 10.6585C47.5828 11.3923 46.2336 11.7847 44.8206 11.8966C44.5658 11.9121 44.2994 11.9541 44.0446 11.9696C44.1865 11.9998 44.3023 12.0186 44.4558 12.0222C45.5417 12.0208 46.6072 11.8525 47.6408 11.5439C47.8174 11.4944 47.994 11.4448 48.1851 11.4332C48.2488 11.4293 48.301 11.452 48.3531 11.4747C48.33 11.5279 48.3329 11.5924 48.3098 11.6455C48.1274 11.8506 47.9451 12.0557 47.7223 12.2115C46.9466 12.8537 46.0637 13.3859 45.1634 13.8158C44.9637 13.9184 44.7755 13.9946 44.5758 14.0972C44.6655 14.1047 44.7669 14.0856 44.8421 14.0552C46.1768 13.6248 47.2767 12.8077 48.4026 12.002C48.6747 11.8044 48.9613 11.6447 49.329 11.5835C49.7865 11.5298 50.2295 11.4382 50.6725 11.3466C50.8375 11.3236 51.0257 11.2475 51.2023 11.1979C51.2023 11.1979 51.3413 11.1636 51.3789 11.1484C51.3789 11.1484 51.4571 11.1824 51.5324 11.152C51.7206 11.0759 51.9232 11.0377 52.1028 11.0526L52.986 11.0894C53.2118 10.9981 53.1971 10.6757 52.9886 10.5849C52.8437 10.4902 52.78 10.4941 52.696 10.3311Z" fill="black"/>
</g>
<g clip-path="url(#clip35)">
<path d="M32.8807 51.9622C33.8269 51.8458 34.6548 51.2053 34.714 50.2738C34.714 49.4005 34.0635 48.6436 33.2355 48.4107C33.2947 47.5956 32.9398 46.7805 32.1119 46.4894C31.284 46.1983 30.5743 46.7805 30.1012 47.421C29.2733 47.0716 28.1496 47.0134 27.5583 47.7703C27.026 48.4689 27.2034 49.4005 27.7357 50.0991C27.2034 50.6814 26.9669 51.6129 27.44 52.3115C27.9131 52.952 28.9184 53.0684 29.6281 52.8938C30.0421 53.5924 30.7517 54.1164 31.5797 53.8835C32.4667 53.6506 32.8807 52.7773 32.8807 51.9622Z" fill="#FB7C82"/>
<path d="M32.112 51.2636C32.6443 51.2054 33.1765 50.8561 33.1765 50.2739C33.1765 49.7499 32.7625 49.3423 32.2894 49.1677C32.3486 48.6437 32.112 48.1779 31.6389 48.0615C31.1658 47.8868 30.6927 48.1779 30.4562 48.5855C29.9831 48.3526 29.3325 48.3526 28.9777 48.7601C28.682 49.1677 28.7412 49.7499 29.096 50.0992C28.7412 50.5068 28.6229 51.0308 28.9186 51.4383C29.1551 51.8459 29.7465 51.9041 30.2196 51.7876C30.4562 52.1952 30.8701 52.4863 31.3432 52.3698C31.8163 52.1952 32.0529 51.7294 32.112 51.2636Z" fill="#FABEC0"/>
<path d="M31.7572 49.6918C31.4615 49.2842 30.8701 49.1096 30.4562 49.4007C29.9831 49.6918 29.8648 50.274 30.1605 50.6815C30.4562 51.0891 31.0475 51.2055 31.4615 50.9726C31.9346 50.6815 32.0529 50.0993 31.7572 49.6918Z" fill="#FB7C82"/>
</g>
<g clip-path="url(#clip36)">
<path d="M37.019 48.6025C37.7759 48.5093 38.4383 47.997 38.4856 47.2518C38.4856 46.5531 37.9652 45.9476 37.3028 45.7613C37.3501 45.1092 37.0663 44.4571 36.4039 44.2243C35.7416 43.9914 35.1738 44.4571 34.7954 44.9695C34.133 44.69 33.2341 44.6434 32.761 45.2489C32.3352 45.8079 32.4772 46.5531 32.9029 47.112C32.4772 47.5778 32.2879 48.323 32.6664 48.882C33.0449 49.3943 33.8492 49.4875 34.4169 49.3477C34.7481 49.9066 35.3158 50.3258 35.9781 50.1395C36.6878 49.9532 37.019 49.2546 37.019 48.6025Z" fill="#FB7C82"/>
<path d="M36.4045 48.0443C36.8303 47.9977 37.2561 47.7182 37.2561 47.2525C37.2561 46.8333 36.9249 46.5072 36.5465 46.3675C36.5938 45.9483 36.4045 45.5757 36.026 45.4825C35.6476 45.3428 35.2691 45.5757 35.0798 45.9017C34.7014 45.7154 34.1809 45.7154 33.8971 46.0415C33.6605 46.3675 33.7078 46.8333 33.9917 47.1127C33.7078 47.4388 33.6132 47.858 33.8498 48.184C34.039 48.51 34.5121 48.5566 34.8906 48.4635C35.0798 48.7895 35.411 49.0224 35.7895 48.9292C36.168 48.7895 36.3572 48.4169 36.4045 48.0443Z" fill="#FABEC0"/>
<path d="M36.1207 46.7865C35.8842 46.4605 35.411 46.3207 35.0799 46.5536C34.7014 46.7865 34.6068 47.2523 34.8433 47.5783C35.0799 47.9044 35.553 47.9975 35.8842 47.8112C36.2626 47.5783 36.3573 47.1126 36.1207 46.7865Z" fill="#FB7C82"/>
</g>
<g clip-path="url(#clip37)">
<path d="M39.9833 52.2C40.4564 52.1418 40.8704 51.8215 40.9 51.3558C40.9 50.9191 40.5747 50.5407 40.1607 50.4242C40.1903 50.0167 40.0129 49.6091 39.5989 49.4636C39.185 49.318 38.8301 49.6091 38.5936 49.9294C38.1796 49.7547 37.6178 49.7256 37.3221 50.104C37.056 50.4533 37.1447 50.9191 37.4108 51.2684C37.1447 51.5595 37.0264 52.0253 37.263 52.3746C37.4995 52.6949 38.0022 52.7531 38.357 52.6658C38.564 53.0151 38.9188 53.2771 39.3328 53.1606C39.7763 53.0442 39.9833 52.6075 39.9833 52.2Z" fill="#FB7C82"/>
<path d="M39.6 51.8518C39.8661 51.8227 40.1322 51.648 40.1322 51.3569C40.1322 51.0949 39.9252 50.8911 39.6887 50.8038C39.7182 50.5418 39.6 50.3089 39.3634 50.2507C39.1269 50.1634 38.8903 50.3089 38.772 50.5127C38.5355 50.3963 38.2102 50.3963 38.0328 50.6C37.885 50.8038 37.9145 51.0949 38.0919 51.2696C37.9145 51.4734 37.8554 51.7353 38.0032 51.9391C38.1215 52.1429 38.4172 52.172 38.6537 52.1138C38.772 52.3176 38.979 52.4631 39.2156 52.4049C39.4521 52.3176 39.5704 52.0847 39.6 51.8518Z" fill="#FABEC0"/>
<path d="M39.4225 51.0657C39.2747 50.862 38.979 50.7746 38.772 50.9202C38.5355 51.0657 38.4763 51.3568 38.6242 51.5606C38.772 51.7644 39.0677 51.8226 39.2747 51.7062C39.5113 51.5606 39.5704 51.2695 39.4225 51.0657Z" fill="#FB7C82"/>
</g>
<g clip-path="url(#clip38)">
<path d="M25.3582 44.4915C25.9259 44.4217 26.4226 44.0374 26.4581 43.4785C26.4581 42.9545 26.0678 42.5004 25.571 42.3606C25.6065 41.8716 25.3936 41.3825 24.8969 41.2079C24.4001 41.0332 23.9743 41.3825 23.6905 41.7668C23.1937 41.5572 22.5195 41.5223 22.1647 41.9764C21.8454 42.3956 21.9518 42.9545 22.2711 43.3737C21.9518 43.723 21.8099 44.2819 22.0937 44.7011C22.3776 45.0854 22.9808 45.1553 23.4066 45.0505C23.655 45.4697 24.0808 45.7841 24.5775 45.6443C25.1098 45.5046 25.3582 44.9806 25.3582 44.4915Z" fill="#FB7C82"/>
<path d="M24.8983 44.0739C25.2177 44.039 25.537 43.8294 25.537 43.4801C25.537 43.1657 25.2887 42.9211 25.0048 42.8163C25.0403 42.5019 24.8983 42.2225 24.6145 42.1526C24.3306 42.0478 24.0468 42.2225 23.9048 42.467C23.621 42.3273 23.2306 42.3273 23.0177 42.5718C22.8403 42.8163 22.8758 43.1657 23.0887 43.3753C22.8758 43.6198 22.8049 43.9342 22.9823 44.1787C23.1242 44.4232 23.479 44.4582 23.7629 44.3883C23.9048 44.6328 24.1532 44.8075 24.4371 44.7376C24.7209 44.6328 24.8629 44.3534 24.8983 44.0739Z" fill="#FABEC0"/>
</g>
<g clip-path="url(#clip39)">
<path d="M23.842 51.4051C24.3151 51.3468 24.729 51.0266 24.7586 50.5609C24.7586 50.1242 24.4333 49.7458 24.0194 49.6293C24.0489 49.2218 23.8715 48.8142 23.4576 48.6687C23.0436 48.5231 22.6888 48.8142 22.4522 49.1344C22.0382 48.9598 21.4764 48.9307 21.1807 49.3091C20.9146 49.6584 21.0033 50.1242 21.2695 50.4735C21.0033 50.7646 20.8851 51.2304 21.1216 51.5797C21.3582 51.8999 21.8608 51.9582 22.2157 51.8708C22.4226 52.2202 22.7775 52.4822 23.1914 52.3657C23.635 52.2493 23.842 51.8126 23.842 51.4051Z" fill="#FB7C82"/>
<path d="M23.4585 51.0569C23.7246 51.0278 23.9907 50.8531 23.9907 50.562C23.9907 50.3 23.7837 50.0962 23.5472 50.0089C23.5768 49.7469 23.4585 49.514 23.2219 49.4558C22.9854 49.3685 22.7488 49.514 22.6305 49.7178C22.394 49.6013 22.0687 49.6013 21.8913 49.8051C21.7435 50.0089 21.773 50.3 21.9505 50.4747C21.773 50.6784 21.7139 50.9404 21.8617 51.1442C21.98 51.348 22.2757 51.3771 22.5123 51.3189C22.6305 51.5226 22.8375 51.6682 23.0741 51.61C23.3106 51.5226 23.4289 51.2898 23.4585 51.0569Z" fill="#FABEC0"/>
</g>
<g clip-path="url(#clip40)">
<path d="M20.2695 52.3977C20.648 52.3511 20.9791 52.0949 21.0028 51.7223C21.0028 51.373 20.7426 51.0702 20.4114 50.9771C20.4351 50.651 20.2931 50.325 19.962 50.2086C19.6308 50.0921 19.3469 50.325 19.1577 50.5812C18.8265 50.4414 18.3771 50.4182 18.1405 50.7209C17.9276 51.0004 17.9986 51.373 18.2115 51.6524C17.9986 51.8853 17.904 52.2579 18.0932 52.5374C18.2824 52.7936 18.6846 52.8402 18.9685 52.7703C19.134 53.0498 19.4179 53.2594 19.7491 53.1662C20.1039 53.073 20.2695 52.7237 20.2695 52.3977Z" fill="#FDB8A8"/>
<path d="M20.0108 52.1663C20.2473 52.143 20.4839 51.98 20.4839 51.7238C20.4839 51.4909 20.3183 51.3046 20.1054 51.2348C20.129 51.0252 20.0344 50.8156 19.8215 50.7457C19.585 50.6526 19.3957 50.7923 19.2775 50.9786C19.0646 50.8854 18.7807 50.8622 18.6151 51.0485C18.4732 51.2348 18.5205 51.4909 18.6624 51.654C18.5205 51.817 18.4732 52.0732 18.5914 52.2362C18.7097 52.4225 18.9699 52.4458 19.1592 52.3992C19.2775 52.5855 19.443 52.7252 19.6796 52.6554C19.8925 52.5855 20.0108 52.3759 20.0108 52.1663Z" fill="#FFDFDA"/>
</g>
<defs>
<clipPath id="clip0">
<rect x="83.1583" y="15.8149" width="3.75527" height="3.75527" fill="white"/>
</clipPath>
<clipPath id="clip1">
<rect x="76.3987" y="0.800537" width="3.75527" height="3.75527" fill="white"/>
</clipPath>
<clipPath id="clip2">
<rect x="108.935" y="17.3171" width="3.00421" height="3.00421" fill="white"/>
</clipPath>
<clipPath id="clip3">
<rect x="120.653" y="13.5618" width="2.25316" height="2.25316" fill="white"/>
</clipPath>
<clipPath id="clip4">
<rect x="112.449" y="8.83057" width="7.51053" height="7.51053" fill="white"/>
</clipPath>
<clipPath id="clip5">
<rect x="104.191" y="18.0681" width="4.50632" height="4.50632" fill="white"/>
</clipPath>
<clipPath id="clip6">
<rect x="132.113" y="5.98682" width="5.25737" height="5.25737" fill="white"/>
</clipPath>
<clipPath id="clip7">
<rect x="134.981" y="13.5618" width="3.00421" height="3.00421" fill="white"/>
</clipPath>
<clipPath id="clip8">
<rect x="106.439" y="15.0637" width="2.25316" height="2.25316" fill="white"/>
</clipPath>
<clipPath id="clip9">
<rect x="121.462" y="8.30444" width="2.25316" height="2.25316" fill="white"/>
</clipPath>
<clipPath id="clip10">
<rect x="98.1793" y="8.30444" width="2.25316" height="2.25316" fill="white"/>
</clipPath>
<clipPath id="clip11">
<rect x="87.6646" y="6.05127" width="3.00421" height="3.00421" fill="white"/>
</clipPath>
<clipPath id="clip12">
<rect x="67.3861" y="5.30029" width="3.75527" height="3.75527" fill="white"/>
</clipPath>
<clipPath id="clip13">
<rect x="122.906" y="14.3127" width="3.00421" height="3.00421" fill="white"/>
</clipPath>
<clipPath id="clip14">
<rect x="99.6814" y="21.0723" width="3.00421" height="3.00421" fill="white"/>
</clipPath>
<clipPath id="clip15">
<rect x="114.702" y="20.3213" width="3.00421" height="3.00421" fill="white"/>
</clipPath>
<clipPath id="clip16">
<rect x="124.048" y="6.80908" width="7.51053" height="7.51053" fill="white"/>
</clipPath>
<clipPath id="clip17">
<rect x="116.205" y="0.729492" width="5.25737" height="5.25737" fill="white"/>
</clipPath>
<clipPath id="clip18">
<rect x="72.6434" y="2.2959" width="6.00843" height="6.00843" fill="white"/>
</clipPath>
<clipPath id="clip19">
<rect x="145.496" y="12.0596" width="6.00843" height="6.00843" fill="white"/>
</clipPath>
<clipPath id="clip20">
<rect x="139.487" y="16.5659" width="4.50632" height="4.50632" fill="white"/>
</clipPath>
<clipPath id="clip21">
<rect x="108.064" y="11.3086" width="3.75527" height="3.75527" fill="white"/>
</clipPath>
<clipPath id="clip22">
<rect x="94.424" y="9.05542" width="3.75527" height="3.75527" fill="white"/>
</clipPath>
<clipPath id="clip23">
<rect x="86.9135" y="9.80664" width="3.75527" height="3.75527" fill="white"/>
</clipPath>
<clipPath id="clip24">
<rect x="80.1541" y="7.55322" width="4.50632" height="4.50632" fill="white"/>
</clipPath>
<clipPath id="clip25">
<rect x="79.403" y="3.04712" width="3.75527" height="3.75527" fill="white"/>
</clipPath>
<clipPath id="clip26">
<rect x="126.843" y="2.98242" width="3.00421" height="3.00421" fill="white"/>
</clipPath>
<clipPath id="clip27">
<rect x="98.8148" y="16.5659" width="4.50632" height="4.50632" fill="white"/>
</clipPath>
<clipPath id="clip28">
<rect x="65.2131" y="6.80225" width="2.25316" height="2.25316" fill="white"/>
</clipPath>
<clipPath id="clip29">
<rect x="118.458" y="5.30029" width="3.75527" height="3.75527" fill="white"/>
</clipPath>
<clipPath id="clip30">
<rect x="94.424" y="5.30029" width="3.75527" height="3.75527" fill="white"/>
</clipPath>
<clipPath id="clip31">
<rect x="97.4451" y="5.30029" width="3.00421" height="3.00421" fill="white"/>
</clipPath>
<clipPath id="clip32">
<rect x="72.8279" y="11.3086" width="3.00421" height="3.00421" fill="white"/>
</clipPath>
<clipPath id="clip33">
<rect x="91.5688" y="12.8105" width="2.25316" height="2.25316" fill="white"/>
</clipPath>
<clipPath id="clip34">
<rect x="46.9479" y="5.30029" width="9.01264" height="9.01264" transform="rotate(23.5245 46.9479 5.30029)" fill="white"/>
</clipPath>
<clipPath id="clip35">
<rect x="27.2036" y="46.4314" width="7.51053" height="7.51053" fill="white"/>
</clipPath>
<clipPath id="clip36">
<rect x="32.4778" y="44.1782" width="6.00843" height="6.00843" fill="white"/>
</clipPath>
<clipPath id="clip37">
<rect x="37.1456" y="49.4355" width="3.75527" height="3.75527" fill="white"/>
</clipPath>
<clipPath id="clip38">
<rect x="21.9532" y="41.1743" width="4.50632" height="4.50632" fill="white"/>
</clipPath>
<clipPath id="clip39">
<rect x="21.0043" y="48.6406" width="3.75527" height="3.75527" fill="white"/>
</clipPath>
<clipPath id="clip40">
<rect x="18" y="50.1868" width="3.00421" height="3.00421" fill="white"/>
</clipPath>
</defs>
</svg>
