<svg width="250" height="256" viewBox="0 0 250 256" fill="none" xmlns="http://www.w3.org/2000/svg">
<g clip-path="url(#clip0)">
<path d="M195.764 173.271L136.044 137.758L149.866 173.577L170.266 172.335C170.266 172.335 171.631 172.358 172.87 172.269L195.764 173.271Z" fill="url(#paint0_linear)"/>
<path d="M104.126 54.1553L201.8 57.3585L130.934 124.124L104.126 54.1553Z" fill="url(#paint1_linear)"/>
<path d="M83.2718 87.2243L33.0698 43.3824L52.882 134.356L83.2718 87.2243Z" fill="url(#paint2_linear)"/>
<path d="M33.0826 43.4304L38.538 68.1392L3.69064 66.0178L33.0826 43.4304Z" fill="url(#paint3_linear)"/>
<path d="M136.031 137.712L222.774 209.927L149.865 173.577L136.031 137.712Z" fill="url(#paint4_linear)"/>
<path d="M103.914 54.4544L199.261 15.9911L130.822 124.251L103.914 54.4544Z" fill="url(#paint5_linear)"/>
<path d="M52.8371 134.368L149.866 173.577L103.915 54.4545L52.8371 134.368Z" fill="url(#paint6_linear)"/>
</g>
<defs>
<linearGradient id="paint0_linear" x1="154.119" y1="156.321" x2="217.635" y2="160.133" gradientUnits="userSpaceOnUse">
<stop stop-color="white"/>
<stop offset="1" stop-color="#9FC0BD"/>
</linearGradient>
<linearGradient id="paint1_linear" x1="125.693" y1="83.0371" x2="194.487" y2="14.2113" gradientUnits="userSpaceOnUse">
<stop stop-color="white"/>
<stop offset="1" stop-color="#9FC0BD"/>
</linearGradient>
<linearGradient id="paint2_linear" x1="14.5885" y1="39.1844" x2="137.623" y2="203.806" gradientUnits="userSpaceOnUse">
<stop stop-color="white"/>
<stop offset="1" stop-color="#9FC0BD"/>
</linearGradient>
<linearGradient id="paint3_linear" x1="3.28243" y1="64.4943" x2="36.3689" y2="55.6288" gradientUnits="userSpaceOnUse">
<stop stop-color="white"/>
<stop offset="1" stop-color="#9FC0BD"/>
</linearGradient>
<linearGradient id="paint4_linear" x1="223.13" y1="209.412" x2="138.129" y2="152.408" gradientUnits="userSpaceOnUse">
<stop stop-color="white"/>
<stop offset="1" stop-color="#9FC0BD"/>
</linearGradient>
<linearGradient id="paint5_linear" x1="105.614" y1="51.3791" x2="200.214" y2="81.1865" gradientUnits="userSpaceOnUse">
<stop stop-color="white"/>
<stop offset="1" stop-color="#9FC0BD"/>
</linearGradient>
<linearGradient id="paint6_linear" x1="113.994" y1="199.276" x2="83.0895" y2="75.7989" gradientUnits="userSpaceOnUse">
<stop stop-color="white"/>
<stop offset="1" stop-color="#9FC0BD"/>
</linearGradient>
<clipPath id="clip0">
<rect width="201.855" height="209.968" fill="white" transform="translate(0 52.2437) rotate(-15)"/>
</clipPath>
</defs>
</svg>
