<!-- Generated by IcoMoon.io -->
<svg version="1.1" xmlns="http://www.w3.org/2000/svg" width="32" height="32" viewBox="0 0 32 32">
<title>FAQs</title>
<path d="M1.92 30.080v-14.080c0-7.776 6.304-14.080 14.080-14.080s14.080 6.304 14.080 14.080c0 7.776-6.304 14.080-14.080 14.080h-14.080zM16 0c-8.837 0-16 7.163-16 16v16h16c8.836 0 16-7.164 16-16s-7.164-16-16-16z"></path>
<path d="M17.086 19.44h-2.327c-0.006-0.38-0.009-0.612-0.009-0.695 0-0.857 0.125-1.563 0.374-2.116s0.748-1.175 1.497-1.867c0.748-0.691 1.196-1.144 1.341-1.359 0.225-0.339 0.338-0.712 0.338-1.12 0-0.567-0.201-1.051-0.602-1.452-0.395-0.408-0.931-0.612-1.606-0.612-0.651 0-1.195 0.211-1.633 0.633s-0.739 1.065-0.903 1.929l-2.354-0.332c0.067-1.238 0.529-2.289 1.387-3.153 0.864-0.864 1.995-1.296 3.395-1.296 1.472 0 2.643 0.439 3.513 1.317 0.87 0.871 1.305 1.888 1.305 3.049 0 0.643-0.161 1.251-0.484 1.825-0.316 0.574-0.998 1.355-2.044 2.344-0.542 0.512-0.879 0.923-1.013 1.234-0.128 0.311-0.186 0.868-0.173 1.67zM14.759 23.36v-2.914h2.564v2.914h-2.564z"></path>
</svg>
