<svg width="23" height="19" viewBox="0 0 23 19" fill="none" xmlns="http://www.w3.org/2000/svg">
<path fill-rule="evenodd" clip-rule="evenodd" d="M18.6816 11.9744L22.8536 16.1464L22.1464 16.8536L17.9744 12.6816L18.6816 11.9744Z" fill="#657786"/>
<path fill-rule="evenodd" clip-rule="evenodd" d="M0 6H8V7H0V6Z" fill="#657786"/>
<path fill-rule="evenodd" clip-rule="evenodd" d="M0 12H8V13H0V12Z" fill="#657786"/>
<path fill-rule="evenodd" clip-rule="evenodd" d="M0 18H16V19H0V18Z" fill="#657786"/>
<path fill-rule="evenodd" clip-rule="evenodd" d="M0 0H16V1H0V0Z" fill="#657786"/>
<path fill-rule="evenodd" clip-rule="evenodd" d="M15.5 6C13.567 6 12 7.567 12 9.5C12 11.433 13.567 13 15.5 13C17.433 13 19 11.433 19 9.5C19 7.567 17.433 6 15.5 6ZM11 9.5C11 7.01472 13.0147 5 15.5 5C17.9853 5 20 7.01472 20 9.5C20 11.9853 17.9853 14 15.5 14C13.0147 14 11 11.9853 11 9.5Z" fill="#657786"/>
</svg>
