<svg width="16" height="16" viewBox="0 0 16 16" fill="none" xmlns="http://www.w3.org/2000/svg">
<path d="M7 14C3.14 14 0 10.86 0 7C0 3.14 3.14 0 7 0C10.86 0 14 3.14 14 7C14 10.86 10.86 14 7 14ZM7 2C4.243 2 2 4.243 2 7C2 9.757 4.243 12 7 12C9.757 12 12 9.757 12 7C12 4.243 9.757 2 7 2Z" fill="#222222"/>
<path d="M15.714 14.334L13.3794 12C12.979 12.5155 12.5156 12.9788 12 13.3792L14.3345 15.7132C14.4249 15.8041 14.5324 15.8762 14.6507 15.9254C14.7691 15.9747 14.896 16 15.0242 16C15.1524 16 15.2794 15.9747 15.3977 15.9254C15.5161 15.8762 15.6236 15.8041 15.714 15.7132C15.8046 15.6227 15.8766 15.5152 15.9257 15.3969C15.9747 15.2786 16 15.1517 16 15.0236C16 14.8955 15.9747 14.7687 15.9257 14.6504C15.8766 14.532 15.8046 14.4245 15.714 14.334Z" fill="#222222"/>
</svg>
