<!-- Generated by IcoMoon.io -->
<svg version="1.1" xmlns="http://www.w3.org/2000/svg" width="37" height="32" viewBox="0 0 37 32">
<title>Tracking</title>
<path d="M10.791 0.64c0.403-0.002 0.764 0.248 0.904 0.625l9.844 26.422 4.455-11.595c0.143-0.371 0.499-0.616 0.896-0.616h4.471c0.53 0 0.96 0.43 0.96 0.96s-0.43 0.96-0.96 0.96h-3.811l-5.128 13.348c-0.143 0.372-0.502 0.618-0.901 0.616s-0.755-0.251-0.895-0.625l-9.816-26.349-4.475 12.377c-0.138 0.38-0.498 0.634-0.903 0.634h-4.471c-0.53 0-0.96-0.43-0.96-0.96s0.43-0.96 0.96-0.96h3.797l5.136-14.203c0.137-0.379 0.496-0.632 0.898-0.634z"></path>
<path d="M36.16 16c0 1.767-1.433 3.2-3.2 3.2s-3.2-1.433-3.2-3.2c0-1.767 1.433-3.2 3.2-3.2s3.2 1.433 3.2 3.2z"></path>
</svg>
