<svg width="156" height="90" viewBox="0 0 156 90" fill="none" xmlns="http://www.w3.org/2000/svg">
<g filter="url(#filter0_d)">
<path d="M47.8778 30.1827C47.8778 38.0156 41.6371 44.3654 33.9389 44.3654C26.2407 44.3654 20 38.0156 20 30.1827C20 22.3498 26.2407 16 33.9389 16C41.6371 16 47.8778 22.3498 47.8778 30.1827Z" fill="white"/>
<path d="M47.8778 51.8173C47.8778 59.6502 41.6371 66 33.9389 66C26.2407 66 20 59.6502 20 51.8173C20 43.9844 26.2407 37.6346 33.9389 37.6346C41.6371 37.6346 47.8778 43.9844 47.8778 51.8173Z" fill="white"/>
<path d="M136 30.1827C136 38.0156 129.759 44.3654 122.061 44.3654C114.363 44.3654 108.122 38.0156 108.122 30.1827C108.122 22.3498 114.363 16 122.061 16C129.759 16 136 22.3498 136 30.1827Z" fill="white"/>
<path d="M136 51.8173C136 59.6502 129.759 66 122.061 66C114.363 66 108.122 59.6502 108.122 51.8173C108.122 43.9844 114.363 37.6346 122.061 37.6346C129.759 37.6346 136 43.9844 136 51.8173Z" fill="white"/>
<path d="M32.9939 25.1346H118.99V57.3462H32.9939V25.1346Z" fill="white"/>
</g>
<path d="M47.9173 29.6038C47.9173 37.117 41.8976 43.2076 34.4719 43.2076C27.0461 43.2076 21.0264 37.117 21.0264 29.6038C21.0264 22.0906 27.0461 16 34.4719 16C41.8976 16 47.9173 22.0906 47.9173 29.6038Z" fill="#F9B3AB"/>
<path d="M47.9173 50.3554C47.9173 57.8686 41.8976 63.9592 34.4719 63.9592C27.0461 63.9592 21.0264 57.8686 21.0264 50.3554C21.0264 42.8422 27.0461 36.7516 34.4719 36.7516C41.8976 36.7516 47.9173 42.8422 47.9173 50.3554Z" fill="#F9B3AB"/>
<path d="M132.92 29.6038C132.92 37.117 126.9 43.2076 119.475 43.2076C112.049 43.2076 106.029 37.117 106.029 29.6038C106.029 22.0906 112.049 16 119.475 16C126.9 16 132.92 22.0906 132.92 29.6038Z" fill="#F9B3AB"/>
<path d="M132.92 50.3554C132.92 57.8686 126.9 63.9592 119.475 63.9592C112.049 63.9592 106.029 57.8686 106.029 50.3554C106.029 42.8422 112.049 36.7516 119.475 36.7516C126.9 36.7516 132.92 42.8422 132.92 50.3554Z" fill="#F9B3AB"/>
<path d="M33.5603 24.7618H116.512V55.6586H33.5603V24.7618Z" fill="#F9B3AB"/>
<defs>
<filter id="filter0_d" x="0" y="0" width="156" height="90" filterUnits="userSpaceOnUse" color-interpolation-filters="sRGB">
<feFlood flood-opacity="0" result="BackgroundImageFix"/>
<feColorMatrix in="SourceAlpha" type="matrix" values="0 0 0 0 0 0 0 0 0 0 0 0 0 0 0 0 0 0 127 0"/>
<feOffset dy="4"/>
<feGaussianBlur stdDeviation="10"/>
<feColorMatrix type="matrix" values="0 0 0 0 0.976471 0 0 0 0 0.701961 0 0 0 0 0.670588 0 0 0 0.25 0"/>
<feBlend mode="normal" in2="BackgroundImageFix" result="effect1_dropShadow"/>
<feBlend mode="normal" in="SourceGraphic" in2="effect1_dropShadow" result="shape"/>
</filter>
</defs>
</svg>
