<svg width="209" height="113" fill="none" xmlns="http://www.w3.org/2000/svg"><g filter="url(#filter0_d)" fill="#fff"><path d="M60.615 36.707c0 11.436-9.092 20.706-20.308 20.706C29.092 57.413 20 48.144 20 36.707S29.092 16 40.307 16c11.216 0 20.308 9.27 20.308 20.707z"/><path d="M60.615 68.293C60.615 79.73 51.523 89 40.307 89 29.092 89 20 79.73 20 68.293c0-11.436 9.092-20.707 20.307-20.707 11.216 0 20.308 9.271 20.308 20.707zM189 36.707c0 11.436-9.092 20.706-20.308 20.706-11.215 0-20.307-9.27-20.307-20.706S157.477 16 168.692 16C179.908 16 189 25.27 189 36.707z"/><path d="M189 68.293C189 79.73 179.908 89 168.692 89c-11.215 0-20.307-9.27-20.307-20.707 0-11.436 9.092-20.707 20.307-20.707 11.216 0 20.308 9.271 20.308 20.707z"/><path d="M38.93 29.337h125.288v47.028H38.931V29.337z"/></g><path d="M60.413 35.856c0 10.966-8.823 19.855-19.706 19.855C29.823 55.712 21 46.822 21 35.856 21 24.89 29.823 16 40.707 16c10.883 0 19.706 8.89 19.706 19.856z" fill="#A5736E"/><path d="M60.413 66.144C60.413 77.11 51.59 86 40.707 86 29.823 86 21 77.11 21 66.144c0-10.966 8.823-19.856 19.707-19.856 10.883 0 19.706 8.89 19.706 19.856zM185 35.856c0 10.966-8.823 19.855-19.707 19.855-10.883 0-19.706-8.89-19.706-19.855C145.587 24.89 154.41 16 165.293 16 176.177 16 185 24.89 185 35.856z" fill="#A5736E"/><path d="M185 66.144C185 77.11 176.177 86 165.293 86c-10.883 0-19.706-8.89-19.706-19.856 0-10.966 8.823-19.856 19.706-19.856 10.884 0 19.707 8.89 19.707 19.856z" fill="#A5736E"/><path d="M39.37 28.788h121.581v45.097H39.371V28.788z" fill="#A5736E"/><defs><filter id="filter0_d" x="0" y="0" width="209" height="113" filterUnits="userSpaceOnUse" color-interpolation-filters="sRGB"><feFlood flood-opacity="0" result="BackgroundImageFix"/><feColorMatrix in="SourceAlpha" values="0 0 0 0 0 0 0 0 0 0 0 0 0 0 0 0 0 0 127 0"/><feOffset dy="4"/><feGaussianBlur stdDeviation="10"/><feColorMatrix values="0 0 0 0 0.976471 0 0 0 0 0.701961 0 0 0 0 0.670588 0 0 0 0.25 0"/><feBlend in2="BackgroundImageFix" result="effect1_dropShadow"/><feBlend in="SourceGraphic" in2="effect1_dropShadow" result="shape"/></filter></defs></svg>