<svg width="20" height="20" viewBox="0 0 20 20" fill="none" xmlns="http://www.w3.org/2000/svg">
<rect width="20" height="20" rx="2" fill="#F9AB00"/>
<rect x="2" y="3" width="16" height="14" rx="1" fill="white"/>
<path d="M17.0656 3H2.89688C2.18125 3 2 3.18438 2 3.90313V16.0969C2 16.825 2.18125 17 2.89688 17H17.0656C17.8281 17 18 16.8375 18 16.0719V3.94375C18 3.175 17.8313 3 17.0656 3ZM7.575 8.88438C6.71562 8.25313 5.32187 8.6125 4.94375 9.61562C4.80937 9.9625 4.65312 9.9125 4.39687 9.875C4.09375 9.82812 3.85938 9.775 3.69375 9.70312C2.79375 9.34688 3.9625 7.975 4.47187 7.69375C5.75625 7.025 7.07812 7 8.3875 7.54375C9.66562 8.06875 9.46562 9.39375 9.46562 11.5594C9.55 12.3656 9.33125 13.3813 9.75625 14.3344C9.81562 14.4719 9.76875 14.5813 9.67188 14.6687C9.40938 14.8781 8.44375 14.7375 8.21562 14.4375C8.15625 14.3687 8.15938 14.325 8.09375 14.2437C7.98125 14.1219 7.86563 14.175 7.72188 14.275C5.92813 15.4125 3.3375 14.9438 3.12812 12.9219C3.03125 12.0063 3.51562 11.1375 4.36562 10.7031C5.55937 10.0938 7.87187 10.3344 7.92812 9.7375C7.9625 9.41875 7.86875 9.10938 7.575 8.88438ZM16.5344 15.8219C16.5344 16.2937 16.1875 16.1313 15.9781 16.1313H3.6375C3.40625 16.1313 3.06875 16.2812 3.08125 15.7969C3.09375 15.3625 3.40938 15.5125 3.61563 15.5125C7.75 15.5 11.8813 15.5 16.0156 15.5125C16.2281 15.5125 16.5344 15.375 16.5344 15.8219ZM16.6531 5.18125V14.275C16.6531 14.4531 16.6312 14.7094 16.4 14.7094C16.0125 14.6969 15.5406 14.9313 15.2719 14.5344C15.0906 14.2625 15.0281 14.4094 14.8844 14.4969C13.2156 15.425 10.8812 14.7188 10.3719 11.8344C10.1812 10.7906 10.35 9.7375 10.8625 8.70937C11.2312 7.9625 12.6406 6.33125 15.1156 7.75625V5.5375C15.1156 4.71875 15.1125 4.71875 15.9281 4.71875C16.025 4.71875 16.1344 4.73125 16.2312 4.71875C16.5469 4.69375 16.6562 4.85625 16.6562 5.16563C16.6531 5.17188 16.6531 5.175 16.6531 5.18125ZM15.0437 12.4406C14.4344 13.9281 12.7656 13.7937 12.2312 12.6031C11.7594 11.5625 11.7469 10.4719 12.2437 9.43125C12.7531 8.36563 14.1094 8.31563 14.7906 9.28125C15.4344 10.1813 15.2562 11.925 15.0437 12.4406ZM5.83125 13.5437C5.59687 13.5031 4.8 13.4406 4.77813 12.675C4.76562 12.2406 5.02187 11.9562 5.39687 11.8687C6.15937 11.6844 6.9375 11.5594 7.7 11.4094C7.97812 11.3469 7.93125 11.5469 7.94375 11.7063C7.9875 12.7375 7.12813 13.5562 5.83125 13.5437Z" fill="#F9AB00"/>
</svg>
