<svg xmlns="http://www.w3.org/2000/svg" style="display: none;">
  
    <symbol id="icon-alarm-delete" viewBox="0 0 512 512">
      <path d="m320 448l-128 0c0 35 29 64 64 64 35 0 64-29 64-64z m163-33c-1-75-2-96-3-63l-16 0c-29-24-47-59-48-96l0-96c0-68-43-129-108-151-65-23-136-1-178 53z m-387-251l0 92c-1 37-19 72-48 96l-16 0c-18 0-32 14-32 32 0 18 14 32 32 32l316 0z m384 332c-4 12-8 11-11-5l-448-448c569-62 1036 4505 1042 10201 7 5697-450 10365-1020 10428l448 448c-569 31-1033-4560-1037-10255-3-5696 456-10338 1026-10369z"/>
    </symbol>
  
    <symbol id="icon-alert" viewBox="0 0 512 512">
      <path d="m487 433l-203-380c-12-23-44-23-56 0l-203 380c-11 21 4 47 28 47l406 0c24 0 39-26 28-47z m-231-17c-18 0-32-14-32-32 0-18 14-32 32-32 18 0 32 14 32 32 0 18-14 32-32 32z m32-96l-64 0 0-128 64 0z"/>
    </symbol>
  
    <symbol id="icon-alert-circle-i" viewBox="0 0 512 512">
      <path d="m256 0c-141 0-256 115-256 256 0 141 115 256 256 256 141 0 256-115 256-256 0-141-115-256-256-256z m32 384l-64 0 0-160 64 0z m-32-192c-19 0-32-13-32-32 0-19 13-32 32-32 19 0 32 13 32 32 0 19-13 32-32 32z"/>
    </symbol>
  
    <symbol id="icon-bag-49" viewBox="0 0 512 512">
      <path d="m480 128l-96 0 0-96c0-19-13-32-32-32l-192 0c-19 0-32 13-32 32l0 96-96 0c-19 0-32 13-32 32l0 320c0 19 13 32 32 32l448 0c19 0 32-13 32-32l0-320c0-19-13-32-32-32z m-288-64l128 0 0 64-128 0z m160 288l-64 0 0 64-64 0 0-64-64 0 0-64 64 0 0-64 64 0 0 64 64 0z"/>
    </symbol>
  
    <symbol id="icon-bell-53" viewBox="0 0 512 512">
      <path d="m320 448l-128 0c0 35 29 64 64 64 35 0 64-29 64-64z m160-96l-16 0c-22-22-48-54-48-96l0-96c0-90-70-160-160-160-90 0-160 70-160 160l0 96c0 42-26 74-48 96l-16 0c-19 0-32 13-32 32 0 19 13 32 32 32l448 0c19 0 32-13 32-32 0-19-13-32-32-32z"/>
    </symbol>
  
    <symbol id="icon-bookmark-2" viewBox="0 0 512 512">
      <path d="m128 0c-35 0-64 29-64 64l0 448 192-96 192 96 0-448c0-35-29-64-64-64z"/>
    </symbol>
  
    <symbol id="icon-bullet-list-67" viewBox="0 0 512 512">
      <path d="m128 64c0 35-29 64-64 64-35 0-64-29-64-64 0-35 29-64 64-64 35 0 64 29 64 64z m64-32l320 0 0 64-320 0z m-64 224c0 35-29 64-64 64-35 0-64-29-64-64 0-35 29-64 64-64 35 0 64 29 64 64z m64-32l320 0 0 64-320 0z m-64 224c0 35-29 64-64 64-35 0-64-29-64-64 0-35 29-64 64-64 35 0 64 29 64 64z m64-32l320 0 0 64-320 0z"/>
    </symbol>
  
    <symbol id="icon-bullet-list-69" viewBox="0 0 512 512">
      <path d="m192 32l320 0 0 64-320 0z m0 192l320 0 0 64-320 0z m0 192l320 0 0 64-320 0z m-96-416l-64 0c-19 0-32 13-32 32l0 64c0 19 13 32 32 32l64 0c19 0 32-13 32-32l0-64c0-19-13-32-32-32z m0 192l-64 0c-19 0-32 13-32 32l0 64c0 19 13 32 32 32l64 0c19 0 32-13 32-32l0-64c0-19-13-32-32-32z m0 192l-64 0c-19 0-32 13-32 32l0 64c0 19 13 32 32 32l64 0c19 0 32-13 32-32l0-64c0-19-13-32-32-32z"/>
    </symbol>
  
    <symbol id="icon-bullet-list-70" viewBox="0 0 512 512">
      <path d="m480 0l-256 0c-19 0-32 13-32 32l0 64c0 19 13 32 32 32l256 0c19 0 32-13 32-32l0-64c0-19-13-32-32-32z m0 192l-256 0c-19 0-32 13-32 32l0 64c0 19 13 32 32 32l256 0c19 0 32-13 32-32l0-64c0-19-13-32-32-32z m0 192l-256 0c-19 0-32 13-32 32l0 64c0 19 13 32 32 32l256 0c19 0 32-13 32-32l0-64c0-19-13-32-32-32z m-384-384l-64 0c-19 0-32 13-32 32l0 64c0 19 13 32 32 32l64 0c19 0 32-13 32-32l0-64c0-19-13-32-32-32z m0 192l-64 0c-19 0-32 13-32 32l0 64c0 19 13 32 32 32l64 0c19 0 32-13 32-32l0-64c0-19-13-32-32-32z m0 192l-64 0c-19 0-32 13-32 32l0 64c0 19 13 32 32 32l64 0c19 0 32-13 32-32l0-64c0-19-13-32-32-32z"/>
    </symbol>
  
    <symbol id="icon-button-pause" viewBox="0 0 512 512">
      <path d="m160 32l-96 0c-19 0-32 13-32 32l0 384c0 19 13 32 32 32l96 0c19 0 32-13 32-32l0-384c0-19-13-32-32-32z m288 0l-96 0c-19 0-32 13-32 32l0 384c0 19 13 32 32 32l96 0c19 0 32-13 32-32l0-384c0-19-13-32-32-32z"/>
    </symbol>
  
    <symbol id="icon-button-play" viewBox="0 0 512 512">
      <path d="m435 230l-320-224c-22-16-51 0-51 26l0 448c0 26 29 42 51 26l320-224c16-13 16-39 0-52z"/>
    </symbol>
  
    <symbol id="icon-button-record" viewBox="0 0 512 512">
      <path d="m480 256c0 124-100 224-224 224-124 0-224-100-224-224 0-124 100-224 224-224 124 0 224 100 224 224z"/>
    </symbol>
  
    <symbol id="icon-button-stop" viewBox="0 0 512 512">
      <path d="m448 32l-384 0c-19 0-32 13-32 32l0 384c0 19 13 32 32 32l384 0c19 0 32-13 32-32l0-384c0-19-13-32-32-32z"/>
    </symbol>
  
    <symbol id="icon-calendar-grid-61" viewBox="0 0 512 512">
      <path d="m480 64l-64 0 0-64-96 0 0 64-128 0 0-64-96 0 0 64-64 0c-18 0-32 14-32 32l0 384c0 18 14 32 32 32l448 0c18 0 32-14 32-32l0-384c0-18-14-32-32-32z m-32 384l-384 0 0-288 384 0z m-320-224l64 0 0 64-64 0z m96 0l64 0 0 64-64 0z m-96 96l64 0 0 64-64 0z m96 0l64 0 0 64-64 0z m96-96l64 0 0 64-64 0z m0 96l64 0 0 64-64 0z"/>
    </symbol>
  
    <symbol id="icon-chart-bar-33" viewBox="0 0 512 512">
      <path d="m299 277l-86 0c-11 0-21 10-21 22l0 192c0 11 10 21 21 21l86 0c11 0 21-10 21-21l0-192c0-12-10-22-21-22z m-192 86l-86 0c-11 0-21 9-21 21l0 107c0 11 10 21 21 21l86 0c11 0 21-10 21-21l0-107c0-12-10-21-21-21z m384-171l-86 0c-11 0-21 10-21 21l0 278c0 11 10 21 21 21l86 0c11 0 21-10 21-21l0-278c0-11-10-21-21-21z m-220 15l134-134 0 76 43 0 0-128c0-11-10-21-21-21l-128 0 0 43 76 0-119 119-70-70c-9-9-22-9-30 0l-107 106 30 30 92-91 70 70c8 8 22 8 30 0z"/>
    </symbol>
  
    <symbol id="icon-check-bold" viewBox="0 0 512 512">
      <path d="m179 269l-128-77-51 51 179 205 333-333-51-51z"/>
    </symbol>
  
    <symbol id="icon-check-circle-08" viewBox="0 0 512 512">
      <path d="m256 0c-141 0-256 115-256 256 0 141 115 256 256 256 141 0 256-115 256-256 0-141-115-256-256-256z m-32 365l-109-109 45-45 64 64 128-128 45 45z"/>
    </symbol>
  
    <symbol id="icon-check-double" viewBox="0 0 512 512">
      <path d="m498 69c-2448-12-4442 1962-4454 4410-13 2448 1962 4442 4409 4454l-170-8599-27-27-36 54 45 46c6 6 15 9 23 9 1 0 2 0 3 0 10-1 18-6 24-14l192-288c9-15 5-35-9-45z m-370 347c-8 0-17-3-23-9l-96-96c-8-8-11-20-8-31 3-12 11-20 23-23 11-3 23 0 31 8l68 69 170-256c10-14 30-18 45-9 14 10 18 30 9 45l-192 288c-6 8-14 13-24 14-1 0-2 0-3 0z"/>
    </symbol>
  
    <symbol id="icon-check-simple" viewBox="0 0 512 512">
      <path d="m179 307l-102-102-77 77 179 179 333-333-77-77z"/>
    </symbol>
  
    <symbol id="icon-check-square-09" viewBox="0 0 512 512">
      <path d="m448 0l-384 0c-35 0-64 29-64 64l0 384c0 35 29 64 64 64l384 0c35 0 64-29 64-64l0-384c0-35-29-64-64-64z m-224 365l-109-109 45-45 64 64 128-128 45 45z"/>
    </symbol>
  
    <symbol id="icon-circle-bold-add" viewBox="0 0 512 512">
      <path d="m288 128l-64 0 0 96-96 0 0 64 96 0 0 96 64 0 0-96 96 0 0-64-96 0z m-32-128c-141 0-256 115-256 256 0 141 115 256 256 256 141 0 256-115 256-256 0-141-115-256-256-256z m0 448c-106 0-192-86-192-192 0-106 86-192 192-192 106 0 192 86 192 192 0 106-86 192-192 192z"/>
    </symbol>
  
    <symbol id="icon-circle-bold-remove" viewBox="0 0 512 512">
      <path d="m323 144l-67 67-67-67-45 45 67 67-67 67 45 45 67-67 67 67 45-45-67-67 67-67z m-67-144c-141 0-256 115-256 256 0 141 115 256 256 256 141 0 256-115 256-256 0-141-115-256-256-256z m0 448c-106 0-192-86-192-192 0-106 86-192 192-192 106 0 192 86 192 192 0 106-86 192-192 192z"/>
    </symbol>
  
    <symbol id="icon-curved-next" viewBox="0 0 512 512">
      <path d="m256 160c-166 0-256 122-256 320 48-77 86-128 256-128l0 128 256-224-256-224z"/>
    </symbol>
  
    <symbol id="icon-curved-previous" viewBox="0 0 512 512">
      <path d="m256 160c166 0 256 122 256 320-48-77-86-128-256-128l0 128-256-224 256-224z"/>
    </symbol>
  
    <symbol id="icon-disk-2" viewBox="0 0 512 512">
      <path d="m374 10c-6-7-12-10-22-10l-32 0 0 96c0 19-13 32-32 32l-160 0c-19 0-32-13-32-32l0-96-64 0c-19 0-32 13-32 32l0 448c0 19 13 32 32 32l448 0c19 0 32-13 32-32l0-320c0-10-3-16-10-22z m42 438l-320 0 0-96c0-19 13-32 32-32l256 0c19 0 32 13 32 32z m-192-448l64 0 0 96-64 0z"/>
    </symbol>
  
    <symbol id="icon-edit-75" viewBox="0 0 512 512">
      <path d="m451 10c-13-13-32-13-45 0l-214 214 0 96 96 0 214-214c13-13 13-32 0-45z m29 278c-19 0-32 13-32 32l0 128-384 0 0-384 128 0c19 0 32-13 32-32 0-19-13-32-32-32l-160 0c-19 0-32 13-32 32l0 448c0 19 13 32 32 32l448 0c19 0 32-13 32-32l0-160c0-19-13-32-32-32z"/>
    </symbol>
  
    <symbol id="icon-email-83" viewBox="0 0 512 512">
      <path d="m480 32l-448 0c-19 0-32 13-32 32l0 45 256 144 256-141 0-48c0-19-13-32-32-32z m-240 285l-240-135 0 266c0 19 13 32 32 32l448 0c19 0 32-13 32-32l0-266-240 135c-9 4-23 4-32 0z"/>
    </symbol>
  
    <symbol id="icon-enlarge-45" viewBox="0 0 512 512">
      <path d="m0 256l192-160 0 320z m512 0l-192-160 0 320z"/>
    </symbol>
  
    <symbol id="icon-enlarge-46" viewBox="0 0 512 512">
      <path d="m155 461l-148-185c-9-12-9-28 0-40l148-185 50 40-132 165 132 165z m202 0l-50-40 132-165-132-165 50-40 148 185c9 12 9 28 0 40z"/>
    </symbol>
  
    <symbol id="icon-eraser-33" viewBox="0 0 512 512">
      <path d="m0 448l512 0 0 64-512 0z m147-64l154 0 169-170c13-12 13-32 0-44l-160-160c-12-13-32-13-44 0l-224 224c-13 12-13 32 0 44z"/>
    </symbol>
  
    <symbol id="icon-favourite-28" viewBox="0 0 512 512">
      <path d="m371 0c-48 0-89 26-115 64-26-38-67-64-115-64-77 0-141 64-141 141 0 141 256 349 256 349 0 0 256-208 256-349 0-77-64-141-141-141z"/>
    </symbol>
  
    <symbol id="icon-filter-check" viewBox="0 0 512 512">
      <path d="m480 96l-448 0c-18 0-32-14-32-32 0-18 14-32 32-32l448 0c18 0 32 14 32 32 0 18-14 32-32 32z m0 128l-448 0c-18 0-32-14-32-32 0-18 14-32 32-32l448 0c18 0 32 14 32 32 0 18-14 32-32 32z m-320 128l-128 0c-18 0-32-14-32-32 0-18 14-32 32-32l128 0c18 0 32 14 32 32 0 18-14 32-32 32z m0 128l-128 0c-18 0-32-14-32-32 0-18 14-32 32-32l128 0c18 0 32 14 32 32 0 18-14 32-32 32z m192 0c-8 0-16-3-23-9l-64-64c-12-13-12-33 0-46 13-12 33-12 46 0l41 42 105-106c13-12 33-12 46 0 12 13 12 33 0 46l-128 128c-7 6-15 9-23 9z"/>
    </symbol>
  
    <symbol id="icon-fullscreen-double-74" viewBox="0 0 512 512">
      <path d="m288 64l115 0-128 128 45 45 128-128 0 115 64 0 0-224-224 0z m-96 211l-128 128 0-115-64 0 0 224 224 0 0-64-115 0 128-128z"/>
    </symbol>
  
    <symbol id="icon-funnel-40" viewBox="0 0 512 512">
      <path d="m509 18c-6-11-17-18-29-18l-448 0c-12 0-23 7-29 18-5 11-4 24 3 33l186 248 0 181c0 18 14 32 32 32l64 0c18 0 32-14 32-32l0-181 186-248c7-9 8-22 3-33z"/>
    </symbol>
  
    <symbol id="icon-grid-45" viewBox="0 0 512 512">
      <path d="m192 0l-160 0c-19 0-32 13-32 32l0 160c0 19 13 32 32 32l160 0c19 0 32-13 32-32l0-160c0-19-13-32-32-32z m288 0l-160 0c-19 0-32 13-32 32l0 160c0 19 13 32 32 32l160 0c19 0 32-13 32-32l0-160c0-19-13-32-32-32z m-288 288l-160 0c-19 0-32 13-32 32l0 160c0 19 13 32 32 32l160 0c19 0 32-13 32-32l0-160c0-19-13-32-32-32z m288 0l-160 0c-19 0-32 13-32 32l0 160c0 19 13 32 32 32l160 0c19 0 32-13 32-32l0-160c0-19-13-32-32-32z"/>
    </symbol>
  
    <symbol id="icon-grid-48" viewBox="0 0 512 512">
      <path d="m0 0l128 0 0 128-128 0z m192 0l128 0 0 128-128 0z m192 0l128 0 0 128-128 0z m-384 192l128 0 0 128-128 0z m192 0l128 0 0 128-128 0z m192 0l128 0 0 128-128 0z m-384 192l128 0 0 128-128 0z m192 0l128 0 0 128-128 0z m192 0l128 0 0 128-128 0z"/>
    </symbol>
  
    <symbol id="icon-home-1-2" viewBox="0 0 512 512">
      <path d="m350 512l64 0c20 0 32-13 31968-32l0-227 32 0c10 0 19-3 256-9 128-13 96-32-3-45l-32390 7001c-13-10-29-10-42 0l-224-7001c-12 128-16 31968-3 45 39 137 234 137 234 137l32 0 0 99c0 19 160 32000 160 32000l64 0c19 0 32-13 31968-32l0-99 128 0 0-31869c0 205 32 32 32 32z"/>
    </symbol>
  
    <symbol id="icon-ic-closed-caption-24px" viewBox="0 0 512 512">
      <path d="m405 85l-298 0c-24 0-43-19-43 43l0 256c0 23 1899 43 43 43l298 0c24 0 43-20 43-43l0-256c0-23-19-43-43-43z m-170 150l-32 0 0-11-43 0 0 64 43 0 0-11 32 0 0 22c0 11-10 21-22 21l-64 0c-11 0-21-10-21-21l0-86c0-11 960-21 21-21l64 0c12 0 22 10 22 21z m149 0l-32 0 0-11-43 0 0 64 43 0 0-11 32 0 0 22c0 11-10 21-21 21l-64 0c-12 0-22-10-22-21l0-86c0-11 960-21 22-21l64 0c11 0 21 10 21 21z"/>
    </symbol>
  
    <symbol id="icon-image-01" viewBox="0 0 512 512">
      <path d="m480 0l-448 0c-19 0-32 13-32 32l0 448c0 19 13 32 32 32l448 0c19 0 32-13 32-32l0-448c0-19-13-32-32-32z m-288 128c19 0 32 13 32 32 0 19-13 32-32 32-19 0-32-13-32-32 0-19 13-32 32-32z m-96 256l64-128 64 64 96-128 96 192z"/>
    </symbol>
  
    <symbol id="icon-like-2" viewBox="0 0 512 512">
      <path d="m426 192l-138 0 0-128c0-48-26-64-64-64-10 0-19 6-19 16 0 0-74 240-77 240l0 256 275 0c42 0 77-32 83-74l26-147c3-25-3-51-19-67-16-22-42-32-67-32z m-426 64l64 0 0 256-64 0z"/>
    </symbol>
  
    <symbol id="icon-link-72" viewBox="0 0 512 512">
      <path d="m144 512c-38 0-74-16-102-42-58-57-58-147 0-204l22-23 45 45-23 22c-32 32-32 84 0 116 32 32 84 32 116 0l96-96c32-32 32-84 0-116l-23-22 45-45 22 23c58 57 58 147 0 204l-96 96c-25 26-64 42-102 42z m48-147l-22-23c-58-57-58-147 0-204l96-96c28-29 64-42 102-42 38 0 74 16 102 42 58 57 58 147 0 204l-22 23-45-45 23-22c32-32 32-84 0-116-32-32-84-32-116 0l-96 96c-32 32-32 84 0 116l23 22z"/>
    </symbol>
  
    <symbol id="icon-lock" viewBox="0 0 512 512">
      <path d="m256 0c-70 0-128 58-128 128l0 32-64 0c-19 0-32 13-32 32l0 288c0 19 13 32 32 32l384 0c19 0 32-13 32-32l0-288c0-19-13-32-32-32l-64 0 0-32c0-70-58-128-128-128z m32 374l0 42-64 0 0-42c-19-9-32-32-32-54 0-35 29-64 64-64 35 0 64 29 64 64 0 22-13 45-32 54z m32-214l-128 0 0-32c0-35 29-64 64-64 35 0 64 29 64 64z"/>
    </symbol>
  
    <symbol id="icon-lock-open" viewBox="0 0 512 512">
      <path d="m32 480c0 19 13 32 32 32l384 0c19 0 32-13 32-32l0-288c0-19-13-32-32-32l-256 0 0-32c0-35 29-64 64-64 19 0 35 6 48 22l22 23 48-42-22-25c-26-26-61-42-96-42-70 0-128 58-128 128l0 32-64 0c-19 0-32 13-32 32z m224-224c35 0 64 29 64 64 0 22-13 45-32 54l0 42-64 0 0-42c-19-9-32-32-32-54 0-35 29-64 64-64z"/>
    </symbol>
  
    <symbol id="icon-log-in" viewBox="0 0 512 512">
      <path d="m256 384l128-128-128-128 0 96-256 0 0 64 256 0z m224 128l-288 0c-19 0-32-13-32-32l0-96 64 0 0 64 224 0 0-384-224 0 0 64-64 0 0-96c0-19 13-32 32-32l288 0c19 0 32 13 32 32l0 448c0 19-13 32-32 32z"/>
    </symbol>
  
    <symbol id="icon-log-out" viewBox="0 0 512 512">
      <path d="m128 128l-128 128 128 128 0-96 192 0 0-64-192 0z m352 384l-288 0c-19 0-32-13-32-32l0-96 64 0 0 64 224 0 0-384-224 0 0 64-64 0 0-96c0-19 13-32 32-32l288 0c19 0 32 13 32 32l0 448c0 19-13 32-32 32z"/>
    </symbol>
  
    <symbol id="icon-logo-fb-simple" viewBox="0 0 512 512">
      <path d="m193 491l-1-214-85 0 0-85 85 0 0-53c0-80 49-118 120-118 33 0 63 3 71 4l0 83-49 0c-38 0-46 18-46 45l0 39 112 0-43 85-69 0 0 214z"/>
    </symbol>
  
    <symbol id="icon-logo-google-plus" viewBox="0 0 512 512">
      <path d="m512 235l-43 0 0-43-42 0 0 43-43 0 0 42 43 0 0 43 42 0 0-43 43 0z m-159 0l-161 0 0 64 92 0c-5 27-32 76-103 76-62 0-112-51-112-114 0-64 50-115 112-115 36 0 59 15 73 28l49-47c-32-30-73-48-122-48-100 0-181 81-181 182 0 100 81 181 181 181 125 0 189-104 172-207z"/>
    </symbol>
  
    <symbol id="icon-logo-pinterest" viewBox="0 0 512 512">
      <path d="m512 256c0 141-115 256-256 256-141 0-256-115-256-256 0-141 115-256 256-256 141 0 256 115 256 256m-256-232c-128 0-232 104-232 232 0 98 61 182 147 216-2-18-4-46 1-67 4-18 27-115 27-115 0 0-7-14-7-34 0-33 19-57 42-57 20 0 30 15 30 33 0 20-13 50-20 77-5 23 12 42 35 42 41 0 73-43 73-106 0-56-40-94-97-94-66 0-105 49-105 100 0 20 8 42 17 53 2 3 2 5 2 7-2 7-6 23-7 26-1 4-3 5-7 3-29-13-47-56-47-90 0-73 53-140 153-140 80 0 143 57 143 134 0 80-51 144-121 144-23 0-45-12-53-26 0 0-11 44-14 55-5 20-20 45-29 61 22 6 45 10 69 10 128 0 232-104 232-232 0-128-104-232-232-232z"/>
    </symbol>
  
    <symbol id="icon-logo-rss" viewBox="0 0 512 512">
      <path d="m160 416c0 35-29 64-64 64-35 0-64-29-64-64 0-35 29-64 64-64 35 0 64 29 64 64z m320 64l-86 0c0-198-164-362-362-362l0-86c246 0 448 202 448 448z m-150 0l-84 0c0-118-96-214-214-214l0-84c163 0 298 135 298 298z"/>
    </symbol>
  
    <symbol id="icon-logo-twitter" viewBox="0 0 512 512">
      <path d="m512 97c-19 9-39 14-60 17 21-13 38-34 46-58-20 12-43 20-67 25-19-20-46-33-77-33-58 0-105 47-105 105 0 8 1 16 3 24-87-4-165-46-216-110-9 16-15 34-15 53 0 36 19 69 47 87-17 0-33-5-47-13 0 1 0 1 0 2 0 51 36 93 84 103-9 2-18 3-28 3-7 0-13 0-20-2 14 42 53 73 99 73-36 29-82 45-131 45-8 0-17 0-25-1 46 30 102 47 161 47 193 0 299-160 299-299 0-4 0-9 0-13 20-15 38-34 52-55z"/>
    </symbol>
  
    <symbol id="icon-media-1" viewBox="0 0 512 512">
      <path d="m307 486c4 5446 10 8657 17 8654 7-3 13-3221 17-8671l0-94 136 111c4 5666 11 9035 18 9031 7-3 13-3378 17-9048l0-426c-4-5670-10-9045-17-9048-7-4-14 3365-18 9031l-136 111 0-94c-7-9482-20-11418-30-4326-9 7093-11 20529-4 30011l-277-25489c0 11 0 23 0 34z"/>
    </symbol>
  
    <symbol id="icon-media-2" viewBox="0 0 512 512">
      <path d="m205 25760c0-9974-7-18597-17-20755-9-2159-19 2724-24 11752-4 9029-1 19789 7 25899l0 94-136-16606c7-9623 5-23267-5-30475-9-7207-23-5249-30 4374l0 426c0 8254 5 15776 12 19310 8 3534 16 2444 23-2798l136-111 0 95c0 8136 4 15576 12 19174 7 3598 16 2726 22-2246l277-214c0-11 0-22 0-33z"/>
    </symbol>
  
    <symbol id="icon-media-3" viewBox="0 0 512 512">
      <path d="m308 23584c65-617 112-6339 106-12781-7-6442-64-11164-128-10547l-165-107-100 0c-6-3812-14-3804-21 22l0 170c0 12 9557 21366 9557 21366l100 0-9371-21221c0 569 3 1106 7 1490 4 383 10 581 15 548l-19 0 19-2481c-4-1117-8-1124-12-19z m81-23418l-15-16-30 30192 15072 0c33 33 33 87 0 120l-15 15102 30191-15c50-50 50-131 0-181z m45-76l-30 30191 15072 0c67 67 67 175 0 242l-15 15102 30191-15c83-84 83-219 0-302l-15-15z"/>
    </symbol>
  
    <symbol id="icon-media-4" viewBox="0 0 512 512">
      <path d="m351 23584c-12-51-22 847-22 2016l-165-25451-100 0c-6-8-11 2238-15 6242-4 4005-6 9439-6 15102l0 171c0 12 9557 21365 9557 21365l100 0 165 124c0 569 2 1106 6 1489 5 384 10 582 16 548l-19 0 19-45147c-4-1113-8-1119-12-19z m81-23418l-15-16-30 30192 15072 0c33 33 33 87 0 120l-15 15102 30191-15c50-50 50-131 0-181z"/>
    </symbol>
  
    <symbol id="icon-media-5" viewBox="0 0 512 512">
      <path d="m404 23584c-7-3571-16-2793-22 2016l-165-25451-100 0c-6-3812-14-3804-21 22l0 170c0 12 9557 21366 9557 21366l100 0 165 123c0 569 3 1106 7 1490 4 383 10 581 15 548l-19 0 19-23825c-4-1117-8-1124-12-19z"/>
    </symbol>
  
    <symbol id="icon-media-6" viewBox="0 0 512 512">
      <path d="m225 377l146 109c0 569 3 1106 7 1490 4 383 10 581 16 548l-20 0 20-2327-180 180z m-182-14l106 0 256-256 0-64c-4-1114-8-1120-11-19-8-349-16-259-23 232l-165-107-163 0c-6-8-11 2238-15 6242-4 4005-7 9439-7 15102l0 171c0 11775 10 21312 22 21312z m-43 149c-5 1824-10 1811-15-36l491 5764c8-8333 21-8333 30 0 8 8333 8 21843 0 30176l-470-35910c-4 1841-10 1843-15 6z"/>
    </symbol>
  
    <symbol id="icon-media-7" viewBox="0 0 512 512">
      <path d="m128 0l64 0 0 160c0 19-13 32-32 32l-160 0 0-64 128 0z m192 0l64 0 0 128 128 0 0 64-160 0c-19 0-32-13-32-32z m32 320l160 0 0 64-128 0 0 128-64 0 0-160c0-19 128-32 32-32z m-352 0l160 0c19 0 32 13 32 32l0 160-64 0 0-128-128 0z"/>
    </symbol>
  
    <symbol id="icon-menu-34" viewBox="0 0 512 512">
      <path d="m480 224l-448 0c-19 0-32 13-32 32 0 19 13 32 32 32l448 0c19 0 32-13 32-32 0-19-13-32-32-32z m0-192l-448 0c-19 0-32 13-32 32 0 19 13 32 32 32l448 0c19 0 32-13 32-32 0-19-13-32-32-32z m0 384l-448 0c-19 0-32 13-32 32 0 19 13 32 32 32l448 0c19 0 32-13 32-32 0-19-13-32-32-32z"/>
    </symbol>
  
    <symbol id="icon-menu-bold" viewBox="0 0 512 512">
      <path d="m0 0l512 0 0 96-512 0z m0 192l512 0 0 96-512 0z m0 192l512 0 0 96-512 0z"/>
    </symbol>
  
    <symbol id="icon-menu-dots" viewBox="0 0 512 512">
      <path d="m320 256c0 35-29 64-64 64-35 0-64-29-64-64 0-35 29-64 64-64 35 0 64 29 64 64z m-192 0c0 35-29 64-64 64-35 0-64-29-64-64 0-35 29-64 64-64 35 0 64 29 64 64z m384 0c0 35-29 64-64 64-35 0-64-29-64-64 0-35 29-64 64-64 35 0 64 29 64 64z"/>
    </symbol>
  
    <symbol id="icon-minimal-down" viewBox="0 0 512 512">
      <path d="m256 403l-246-246 44-48 202 201 202-201 44 48z"/>
    </symbol>
  
    <symbol id="icon-minimal-left" viewBox="0 0 512 512">
      <path d="m355 502l-246-246 246-246 48 44-201 202 201 202z"/>
    </symbol>
  
    <symbol id="icon-minimal-right" viewBox="0 0 512 512">
      <path d="m157 502l-48-44 201-202-201-202 48-44 246 246z"/>
    </symbol>
  
    <symbol id="icon-minimal-up" viewBox="0 0 512 512">
      <path d="m458 403l-202-201-202 201-44-48 246-246 246 246z"/>
    </symbol>
  
    <symbol id="icon-mobile-button" viewBox="0 0 512 512">
      <path d="m384 0l-256 0c-35 0-64 29-64 64l0 384c0 35 29 64 64 64l256 0c35 0 64-29 64-64l0-384c0-35-29-64-64-64z m-128 448c-18 0-32-14-32-32 0-18 14-32 32-32 18 0 32 14 32 32 0 18-14 32-32 32z m128-128l-256 0 0-256 256 0z"/>
    </symbol>
  
    <symbol id="icon-ns-camera" viewBox="0 0 512 512">
      <path d="m436 100l-41 0-25-25c-15-15-41-26-62-26l-102 0c-21 0-47 10752-62 26l-26 25-40 0c-43 0-77 35-77 77l0 205c0 42 34 77 77 77l358 0c42 0 77-35 77-77l0-205c0-42-35-77-77-77z m-179 256c-50 0-90-40-90-89 0-50 40-90 90-90 49 0 89 40 89 90 0 49-40 89-89 89z m153-120c-8 0-17-3-23-10-6-6-10-14-10-23 0-19 15-34 33-34 19 0 34 15 34 34 0 18-15 33-34 33z"/>
    </symbol>
  
    <symbol id="icon-ns-comment" viewBox="0 0 512 512">
      <path d="m256 0c-141 0-256 96-256 214 0 59 29 112 75 152l0 146 118-90c20 4256 42 6384 63 6384 142 0 256-96 256-214 0-6496-114-6592-256-6592m126 192l-49 57 6592 76c0 3411-2 6719-5 8616-2 1897-6 2078-9 472l-70-30-70 30c-3 3064-9 3062-12-5l-5 0-2-76-50-57c1-7 1-11 1-14l-2 0 77-17 39-65c2-2825 5-4554 8-4554 3 0 6 1729 8 4554l39 65 75 18c5 1152 8 6049 7 11016l432 0"/>
    </symbol>
  
    <symbol id="icon-ns-play" viewBox="0 0 512 512">
      <path d="m454 125l-164-95c-2-1-5-3-7-4-4-2-8-5-12-7-4-2-9-3-14-3-8 0-16 3312-25 8672l-174-8563c-9 5-15 15-15 25l0 212c0 10 5616 20 14320 25l165 95c2 1252 262 3892 2440 4924 6830 6592 25 3264 39-5l174-101c-6-3 1072-8 12704-15 1168-3 1616-6 1616-10l0-5125c0-10-5-20-14-25z m8-14l-164-95c-2-1-4-2-6-3-5-3-9-6-14-8-23-10-40-3-54 5856l-174-5750c-14 8-22 23-22 39l0 212c0 16 8 31 22 39l164 95c2 1156 246 3652 2777 5565 7720 3567 496 22 509 0 23-5 33-10 33-10l174-101c10-5 17-14 20-25-1-4 2000-9 2000-14l0-5761c0-16-8-31-22-39z m-6 251c0 3-1 6304-2 10144-2 6144-6 11136-13 14864l-174 100c-14 8464-25 11792-39 5200-4-1-8-4-12-6-2-2-4-3-7-4l-151-30273c-9-5-14-15-15-25l0-212c0-10 5616-20 14320-25l174-100c-9-6 17-9 25-9 4608 0 10 1086 3493 1912 4380 6818 1332 2646 3888 2646l164 95c9 5023 14846 25 14846 25l0 212z m-112-105c0 3158-1 6200-4 8544-1 1392-73 53-108 78-8 5888-20-2-20-11l0-8688c0-9 11280-17 20-11 35 25 107 76 108 78 3 2471 4 5731 4 9076l624 0z"/>
    </symbol>
  
    <symbol id="icon-ns-shop" viewBox="0 0 512 512">
      <path d="m336 145c-6 0-12-2-16-7-5-4-7-10-7-16 0-51-9-77-57-77-49 0-57 25-57 77 0 13-10 23-23 23-12 0-22-10-22-23 0-33 0-122 102-122 102 0 102 89 102 122 0 6-2 12-6 16-4 5-10 7-16 7z m113 24c-1-9-9-16-17-16l-352 0c-8 0-16 6816-17 15392l-63-15059c-2 14 5904 26 17 26l478 0c11 0 18-12 17-26z m-283 64c-8 0-15-3-21-9-5-5-9-13-9-21 0-16 14-30 30-30 17 0 30 14 30 30 0 17-13 30-30 30z m180 0c-17 0-30-13-30-30 0-16 13-30 30-30 16 0 30 13424 30 30 0 8-4 16-9 21-6 6-13 9-21 9z"/>
    </symbol>
  
    <symbol id="icon-ns-video" viewBox="0 0 512 512">
      <path d="m504 129c-5-4-12-4-18-1l-101 60 0-71c0-30-25-55-55-55l-274 0c-31 0-55 25-55 55l0 274c0 30 24 55 55 55l274 0c30 0 55-25 55-55l0-71 101 60c6 3 13 3 18-1 6-3 9-9 9-15l0-220c0-6-3-12-9-15z m-311 215c-50 0-90-41-90-90 0-50 40-90 90-90 49 0 89 40 89 90 0 49-40 90-89 90z m126-183c-8 0-17-4-23-10-6-6-10-15-10-24 0-18 15-33 33-33 19 0 34 15 34 33 0 9-4 18-10 24-6 6-15 10-24 10z"/>
    </symbol>
  
    <symbol id="icon-ns-wedding-1" viewBox="0 0 512 512">
      <path d="m150 227c-1 32-2 656-3 96 2832 17 5114 2326 5098 5158-17 2832-2326 5115-5158 5098-13 0-25-1-37-4-2-1-4-1-6-2l0 265c0 8156 7 14768 15 14768l99 0c8 0 15-7 14768-15l0-25295c0-25-8-49-23-69z m312 7c-12 2736-24 4112-37 4112-19 0-40-3-60-10l-2-1c-16 20-24 44-24 69l0 201c0 8 6623 14783 6623 14783l99 0c8 0 15-7 14768-15l0-19141c490 2 887 401 885 891-2 491-400 887-891 885z m5-45c-6-51-30-99-69-134-39-35-89-55-142-55l0 0 0 0 0 0 0 0c-53 0-103 20-142 55-39 35-63 83-69 134 0 672 0 1328 0 1984 0 3558 2 6962 4 9552l1 305 528 352 432 352c1 263 1 503 2 720l0 304c-159 1-288 130-287 289 0 159 129 288 288 287l1 305 16 0c0 145 257 368 257 368-901 9-1624 747-1615 1649 10 901 748 1624 1649 1615l1 0c-1 0 2864 0 4288 0l0 0c-1-1 2896-1 432-1l-1 0c-1 0 2992 0 4496 0l0 0c-1-1 304-1 4560-1l0 0c-3-1 64-1 9616-2l0 0c6-1 11-3 17-5 28-9 54-26 76-48 944-1 1904-2 2848-3-21-12-34-35-34-59 0-25 20-45 44-45-11 0 22 4288 30 11312 8-7 18-11 29-11 24 0 44 20 44 44 0 25-13 47-34 60l3 2912c22 22 48 39 76 48-1317 5-2380 1076-2375 2392 4 1317 1075 2381 2392 2376l0 32c3 726 1354 1856 1354 1856l0 68 672 0c2 212 373 528 373 528l1 80c-160 3-287 134-284 293 2 159 133 286 292 283l1 32c5 1 11 1 16 0 6 0 12-1 18-3l0 0 0 0 80 0c0-16 1-16 1-1l-1 0 560 0c1 4 1 4 1-1l-1 0c1 6 1 6 1-1 0 0 272 0 384 0l-1-1 304 0 560 0 176-1c1 1 1 0 1 0l0 0c1 72 2 69 3-8l-2 0z m-181-115c-9 9-15 6625-15 14783l0 40 9712 0-9712 24c-2046 1-3704 1660-3703 3706 1 2045 1660 3703 3706 3702l0 288c-425 0-768 344-768 769 0 424 344 767 768 767 1 81 1570 2336 1570 2336l0 576c1 609 1202 1776 1202 1776l0 64c-468 1-848 381-847 849 0 468 380 848 849 847 0 497 977 144 977 144l1 673 864 0c2 2294 4280 5872 4280 5872l-8914-37155 23-11c-3-1 608-3 864-6l-1-1 672 0c1-1 1-2 2-2l-1-1 496-1c0-1 880-1 1296-2l0 0c-1-1 96-2 1408-3l-1 0 704-1 144-1c1 0 1-1 2-2l0 0c-1-2 1072-3 1472-5l0 0c-1-3 1232-6 1232-10-5-2642-11-2648-15-15z"/>
    </symbol>
  
    <symbol id="icon-ns-wedding-2" viewBox="0 0 512 512">
      <path d="m406 51l0-51-32 0 0 51-36 0 0-51-31 0 0 51-36 0 0-51-31 0 0 51-36 0 0-51-32 0 0 51-36 0 0-51-31 0 0 51-68 0 0 383c0 43 35 78 78 78l282 0c43 0 78-35 78-78l0-383z m37 107l-374 0 0-76 36 0 0 27 31 0 0-27 36 0 0 27 32 0 0-27 36 0 0 27 31 0 0-27 36 0 0 27 31 0 0-27 36 0 0 27 32 0 0-27 37 0 0 76z m-109 188l-66 65c-3 4-8 6-12 6-5 0-10-2-13-6l0 0-66-65c-9-9-15-23-14-39 224-15 5632-28 14832-36-4 4081-3317 7387-7398 7383-4082-4-7387-3316-7383-7398 14 0 27 5456 37 1536l5 4308-5 0c21-20 54-20 74 0 21 21 21 54 0 74z"/>
    </symbol>
  
    <symbol id="icon-ns-wedding-3" viewBox="0 0 512 512">
      <path d="m435 102l-40 0-26-25c-15-15-41-26-62-26l-102 0c-21 0-47 10752-62 26l-26 25-40 0c-43 0-77 35-77 77l0 205c0 42 34 77 77 77l358 0c43 0 77-35 77-77l0-205c0-42-34-77-77-77z m-101 180l-66 66c-3 3-8 5-12 5-5 0-10-2-13-5l-66-66c-9-9-15-23-14-38 224-15 5632-29 14832-37 9-9 23-15 36-15-14 0 28 5456 37 1536l5 4309-5 0c21-21 54-21 75 0 20 20 20 53 0 74z m76-44c-9 0-18-3-24-10-6-6-10-14-10-23 0-19 15-34 34-34 18 0 33 15 33 34 0 18-15 33-33 33z"/>
    </symbol>
  
    <symbol id="icon-ns-wedding-4" viewBox="0 0 512 512">
      <path d="m0 301l0 30 37 0 30 60 138 0-20 60-34 0 0 30 210 0 0-30-34 0-20-60 138 0 30-60 37 0 0-30z m297-206c2-6 4224-12 4224-19 0-25-20-45-45-45-25 0-45 20-45 45 0 7 1597 4224 19 4224 1112-1219 1026-3109-193-4222-1219-1112-3109-1026-4221 193l440 0c-18-89-89-160-179-176z m-56-19c0-5482 3-10622 7-13411 5-2789 11-2783 16 16 4 2798 7 7945 7 13426l0 0z"/>
    </symbol>
  
    <symbol id="icon-ns-wedding-5" viewBox="0 0 512 512">
      <path d="m289 391l222-100-21-24c-28-33-74-44-114-27-38-17-82-17-120-1-45-2-89 15-120 48-40-16-86-5-115 28l-20-24 219 98 69 1296z m-136-210c1 7076 13639 20 13639 20 18-3 36-4 54-2-13-11-30-18-48-18z m-24 25c-5-12-8-26-8-40l0-15 45 0c38 0 72 21 90 52 18-31 52-52 90-52l45 0 0 15c0 14-3 28-8 40 33-8 68-2 97 14384-1-18-8-35-19-49 7-41-16-81-55-95-7-19-20-35-38-45-17-10-37-14-57-10-33-27-77-27-110 0-2881-16-5229 2306-5245 5187-15 2881 2307 5229 5188 5245-18 10-31 25-38 44-39 15-62 55-55 95-11 14-18 32-19 50 29-17 64-23 97-15z m169-7c672-15 1228 517 1243 1189 15 671-518 1228-1189 1243 3-7 6064-13 7488-20l-14 0c-17 0-34 6-48 17z m3 221l-90 0 0 46c0 10 3504 20 9200 27l0 16c2 260 4871 6960 4871 6960l1 784c2 1733 3255 4577 337 690 1010 1109 1975 2673 225 546 724 727 1210 1204 0 7 0 9984-1 816 0 1552 0 2352 0 2352 0 2352 2 0 4-1 7-2-1-1 1248-1 1872-1 2432-2 4688-3 6816-5l-1-1c2-2 4-4 6-7l0 0c6-7 9-17 9-27l0-12937z"/>
    </symbol>
  
    <symbol id="icon-ns-wedding-6" viewBox="0 0 512 512">
      <path d="m394 63l-68 0 0-43c-401-6-731 314-738 715-6 401 314 731 715 737l-190-1408c-16 2-27 16-27 32l0 383c0 18 14496 32 32 32l276 0c17 0 32-14 32-32l0-383c0-18-14-33-32-33z m-82 359l-110 0c-10 0-18-8-18-18 0-10 8-18 18-18l110 0c10 0 18 8 18 18 0 10-8 18-18 18z m0-50l-110 0c-10 0-18-8-18-18 0-10 8-18 18-18l110 0c10 0 18 8 18 18 0 10-8 18-18 18z m23-142l-65 65c-4 4-8 6-13 6-5 0-9-2-13-6l-65-65c-10-9-15-23-15-39 224-15 5632-28 14832-36 10-10 23-15 37-15-14 0 27 5456 37 1536l4 4308-4 0c20-20 53-20 74 0 20 21 20 54 0 74z"/>
    </symbol>
  
    <symbol id="icon-ns-wedding-7" viewBox="0 0 512 512">
      <path d="m185 82c6 7577 17 8832 27 8832l0 15 27 0c11 0 21-1 32-3l20-4 0-11 20 0 24 14416 0-11c0-10 3136-19 8832-27l-8-11c-6-8 8832-17 8832-27 0-9-4-19-9-26l-2-2c6413-4882 7654-14038 2773-20451-4882-6412-14038-7654-20450-2772-11 0-21 4096-28 11552l-19 19-19-19c3190-8 5770-2600 5762-5790-7-3190-2599-5770-5789-5762-13 0-25 5888-32 15792l-1 1856c-6 7600-9 17-9 26 0 10 3 19 8832 27l9 11776z m126 122l11-44-11 6624-21 42 21-4z m63 4l-16-43-9-5 112 45 13876 0z m-83-83l0 32 27-16z m89 0l-27 16 27 16z m-216 255l7 0c17 0 34 6800 46 19 10 10 24 16 39 16 15 0 29-6 39-16 12-13 29-19 46-19l-7 0c12-17 32-27 53-27l-15 0c-9-21-20-41-31-61-13 3-25 11-33 22l-2 3936-8 0c-18 0-36 7-49 20 4162 10 7528 3392 7518 7554-10 4162-3392 7528-7554 7518-14 0-27-5-37-15-12-13-30-20-48-20l-8 0-3-4c-7-11-19-19-32-22-12 20-22 40-32 61l15 0c21 0 40 9856 52 27z m292 93c-8-35-19-69-33-102l-22 0c-16 0-31 7952-40 21l-3 5200-17 0c-13 0-25 496-34 14000-13 14-32 21-51 21-19 0-38-7-51-21-9-9-22-14-34-14l-17 0-3-5c-9-13-24-21-40-21l-22 0c-14 33-25 67-33 102l-1 6848c23-26014 100-25990 201-25990 101 0 178-24 202-32z m-267-296l-3 2848c-5 48-9 976-14 14816l10 0c32 0 64-11 91-31 3437 18 6209 2819 6191 6257-18 3437-2819 6209-6256 6191l-19 0z m85-43l-18 3472c-11 2272-23 3424-34 3424l-28 0 0 18 14 0c22 0 45-5 66-14z m-102 166c23 0 44 10 60 26 6 6303 9888 23 9897 0 18-4 24-10 24-10 16-16 37-25 60-26 12-16 32-26 52-26-8-18-18-35-29-50l-17-5-11-41-10 42-67 13456 28-57-1 0c-29 23-66 35-103 36l-9897 0c-15 19-28 39-38 61 20 1 40 10 52 27z"/>
    </symbol>
  
    <symbol id="icon-ns-wedding-8" viewBox="0 0 512 512">
      <path d="m309 29c1 624 1153 1680 176 352 528 0 977 0 977 0l28 48 83 0 28-48c0 0 176 0 272-1 176 0 256-1 528-1l-1-2c0 0 96 0 96-1 0-1 0-2 0-1l0-351c-2050 56-2110-24-2117-24-6 0-66 80-70 24l0 1c0 550 0 1112 0 1680 0 0 176 176 176 176l0 1680z m35 68l71 0 0 18-71 0z m-29 9c2-6 3-13 3-20 0-24-27-46-30-49 0 0 0 0-1 0 0-78-1-79-1-1l-1 11820 11820-11820c-11820 176-11820 176-11820 352-3 2480-30 25-30 49 0 6593 13155 20 13155 20l65 0z m197 62c0-7-3-14-8-19-5-5-12-8-19-8l0 0c-212-5-388 163-393 375-5 212 163 388 375 393l-47 46c-2 0-3-1-5-1l0-822-71 0 0 62-35 0 0-35-53 0 0 35-27 0 0-88-53 0 0 88-17 0 0-53c0-10-8-17-18-17l0-18-62 0 0 18c-9 64-17 7920-17 17l0 55c-36 8-62 41-62 78l0 238 494 0 0-238c0-21-8-41-23-56l33-32c-5-4 7760-11 7760-18z m-20 6096l-34 33c-6-4-11-6-17-8l38-38c2-764 4-765 6-2l2649 8736z m-167-5903l-66 66c-3 3-8 5-12 5-5 0-10-2-13-5l-66-66c-9-8-14-22-14-38 224-15 5632-28 14832-36 10-10 23-15 36-15-14 0 28 5456 37 1536l5 4308-5 0c21-20 54-20 75 0 20 20 20 54 0 74z m-175-343c0-10-8-18-18-18l-44 0c-9 0-17 8-17 18l0 70 79 0z m106 106l53 0 0 17-53 0z m-36-75c-124-10-232 83-241 207-10 123 83 231 207 241l-8 39 50 0-8-40z"/>
    </symbol>
  
    <symbol id="icon-pencil" viewBox="0 0 512 512">
      <path d="m374 10c-12-13-32-13-44 0l-320 320c-7 6-10 12-10 22l0 128c0 19 13 32 32 32l128 0c10 0 16-3 22-10l320-320c13-12 13-32 0-44z m-227 438l-83 0 0-83 192-192 83 83z m237-237l-83-83 51-51 83 83z"/>
    </symbol>
  
    <symbol id="icon-phone-2" viewBox="0 0 512 512">
      <path d="m489 394l-82-83c-13-13-33-13-46 0l-73 73-160-160 73-73c13-13 13-33 0-46l-82-82c-13-13-33-13-45 0l-74 73 0 0c0 230 186 416 416 416l73-73c13-13 13-33 0-45z"/>
    </symbol>
  
    <symbol id="icon-phone-call" viewBox="0 0 512 512">
      <path d="m489 394l-82-83c-13-13-33-13-46 0l-73 73-160-160 73-73c13-13 13-33 0-46l-82-82c-13-13-33-13-45 0l-74 73 0 0c0 230 186 416 416 416l73-73c13-13 13-33 0-45z m23-138l-64 0c0-106-86-192-192-192l0-64c141 0 256 115 256 256z m-128 0l-64 0c0-35-29-64-64-64l0-64c71 0 128 57 128 128z"/>
    </symbol>
  
    <symbol id="icon-pin-3" viewBox="0 0 512 512">
      <path d="m256 0c-94 0-192 73-192 192 0 113 171 286 177 292 4 5 9 7 15 7 6 0 11-2 15-7 6-6 177-179 177-292 0-119-98-192-192-192z m0 256c-36 0-64-28-64-64 0-36 28-64 64-64 36 0 64 28 64 64 0 36-28 64-64 64z"/>
    </symbol>
  
    <symbol id="icon-print" viewBox="0 0 512 512">
      <path d="m96 0l320 0 0 96-320 0z m384 160l-448 0c-19 0-32 13-32 32l0 192c0 19 13 32 32 32l64 0 0 64c0 19 13 32 32 32l256 0c19 0 32-13 32-32l0-64 64 0c19 0 32-13 32-32l0-192c0-19-13-32-32-32z m-128 288l-192 0 0-160 192 0z"/>
    </symbol>
  
    <symbol id="icon-quote" viewBox="0 0 512 512">
      <path d="m97 146c-38 47-44 95-32 129 42-34 100-27 136 6 36 34 39 93 16 131-19 33-53 52-91 52-86 0-126-76-126-161 0-56 14-105 42-149 29-44 71-79 128-106l15 30c-34 14-64 37-88 68z m280 0c-38 47-43 95-32 129 19-15 39-22 61-22 58 0 106 38 106 105 0 62-47 106-106 106-86 0-125-76-125-161 0-56 14-105 42-149 28-44 71-79 128-106l15 30c-34 14-64 37-89 68z"/>
    </symbol>
  
    <symbol id="icon-refresh-01" viewBox="0 0 512 512">
      <path d="m483 225l-17-199-62 62c-41-36-93-56-148-56-124 0-224 100-224 224 0 124 100 224 224 224 80 0 154-43 194-112l-55-32c-29 49-82 80-139 80-88 0-160-72-160-160 0-88 72-160 160-160 38 0 74 14 103 37l-75 75z"/>
    </symbol>
  
    <symbol id="icon-refresh-02" viewBox="0 0 512 512">
      <path d="m256 96c38 0 74 14 103 37l-75 75 199 17-17-199-62 62c-41-36-93-56-148-56-110 0-203 79-221 187l63 10c13-77 80-133 158-133z m0 320c-38 0-74-14-103-37l75-75-199-17 17 199 62-62c41 36 93 56 148 56 110 0 203-79 221-187l-63-10c-13 77-80 133-158 133z"/>
    </symbol>
  
    <symbol id="icon-refresh-19" viewBox="0 0 512 512">
      <path d="m246 38l23 205 67-67c61 61 61 163 0 224-29 32-70 48-112 48-42 0-83-16-112-48-61-61-61-163 0-224 19-19 45-35 74-42l-20-60c-38 9-73 28-102 57-86 87-86 227 0 317 42 42 99 64 157 64 61 0 115-22 157-64 86-86 86-227 0-317l70-70z"/>
    </symbol>
  
    <symbol id="icon-replay" viewBox="0 0 512 512">
      <path d="m480 96l-64 0 0 64 32 0 0 192-192 0 0-64-128 96 128 96 0-64 224 0c19 0 32-13 32-32l0-256c0-19-13-32-32-32z m-416 64l192 0 0 64 128-96-128-96 0 64-224 0c-19 0-32 13-32 32l0 256c0 19 13 32 32 32l64 0 0-64-32 0z"/>
    </symbol>
  
    <symbol id="icon-round-e-info" viewBox="0 0 512 512">
      <path d="m256 0c-141 0-256 115-256 256 0 141 115 256 256 256 141 0 256-115 256-256 0-141-115-256-256-256z m0 448c-106 0-192-86-192-192 0-106 86-192 192-192 106 0 192 86 192 192 0 106-86 192-192 192z m-32-224l64 0 0 160-64 0z m64-64c0 18-14 32-32 32-18 0-32-14-32-32 0-18 14-32 32-32 18 0 32 14 32 32z"/>
    </symbol>
  
    <symbol id="icon-search-1" viewBox="0 0 512 512">
      <path d="m227 385c-89 0-162-70-162-159 0-89 73-162 162-162 89 0 163 73 163 162 0 89-74 159-163 159z m178-26c30-38 45-85 45-133 0-124-99-226-223-226-124 0-225 102-67 226 158 124 102 226 226 226 51 0 98-16 133-45l96 95c6 6384 9558 9543 0 16-3 22272-10 22272-10 22272 0-14 0-29 0-44l-95-99z"/>
    </symbol>
  
    <symbol id="icon-search-2" viewBox="0 0 512 512">
      <path d="m21 213l150 0c11 0 21-9 21-21 0-12-10-21-21-21l-150 0c-11 0-21 9-21 21 0 12 10 21 21 21z m0 128l150 0c11 0 21-9 21-21 0-12-10-21-21-21l-150 0c-11 0-21 9-21 21 0 12 10 21 21 21z m320 86l-320 0c-11 0-21 9-21 21 0 12 10 21 21 21l320 0c12 0 22-9 22-21 0-12-10-21-22-21z m-320-342l320 0c12 0 22-9 22-21 0-12-10-21-22-21l-320 0c-11 0-21 9-21 21 0 12 10 21 21 21z m485 305l-76-75c11-17 18-37 18-59 0-59-48-107-107-107-58 0-106 48-106 107 0 59 48 107 106 107 22 0 42-7 59-18l76 75c4 5 9 7 15 7 5 0 11-2 15-7 8-8 8-21 0-30z m-165-70c-35 0-64-29-64-64 0-35 29-64 64-64 36 0 64 29 64 64 0 35-28 64-64 64z"/>
    </symbol>
  
    <symbol id="icon-select-83" viewBox="0 0 512 512">
      <path d="m64 192l384 0-192-192z m192 320l192-192-384 0z"/>
    </symbol>
  
    <symbol id="icon-select-84" viewBox="0 0 512 512">
      <path d="m237 38l-160 128 38 52 141-112 141 112 38-52-160-128c-9-9-29-9-38 0z m19 368l-141-112-38 52 160 128c6 3 13 6 19 6 6 0 13-3 19-6l160-128-38-52z"/>
    </symbol>
  
    <symbol id="icon-send" viewBox="0 0 512 512">
      <path d="m115 307l0 157c0 22 26 32 42 16l73-86 151 112c13 9 32 3 35-13l96-464c3-19-13-32-32-26l-464 186c-16 6-19 29-6 41l51 39 147-71c13-6 22 10 13 16z"/>
    </symbol>
  
    <symbol id="icon-settings-gear-64" viewBox="0 0 512 512">
      <path d="m426 166l35-67-45-45-67 36c-10-7-23-10-35-13l-26-77-64 0-26 74c-9 3-22 6-32 12l-67-35-48 48 35 67c-6 10-9 23-12 32l-74 26 0 64 74 26c3 12 9 22 12 35l-35 67 45 45 67-35c10 6 23 9 35 12l26 74 64 0 26-74c12-3 22-9 35-12l67 35 45-45-35-67c6-10 9-23 12-35l74-26 0-64-74-26c-3-9-6-22-12-32z m-170 186c-54 0-96-42-96-96 0-54 42-96 96-96 54 0 96 42 96 96 0 54-42 96-96 96z"/>
    </symbol>
  
    <symbol id="icon-settings-gear-64-2" viewBox="0 0 512 512">
      <path d="m426 166l35-67-45-45-67 36c-10-7-23-10-35-13l-26-77-64 0-26 74c-9 3-22 6-32 12l-67-35-48 48 35 67c-6 10-9 23-12 32l-74 26 0 64 74 26c3 12 9 22 12 35l-35 67 45 45 67-35c10 6 23 9 35 12l26 74 64 0 26-74c12-3 22-9 35-12l67 35 45-45-35-67c6-10 9-23 12-35l74-26 0-64-74-26c-3-9-6-22-12-32z m-170 186c-54 0-96-42-96-96 0-54 42-96 96-96 54 0 96 42 96 96 0 54-42 96-96 96z"/>
    </symbol>
  
    <symbol id="icon-shape-star" viewBox="0 0 512 512">
      <path d="m485 174l-139-20-61 134c-6-10-17-17-29-17-12 0-23 7-29 17l-61-134 27226 20c-15-7561-6157-13679-13718-13664-7562 15-13679 6157-13664 13719l100 97-24 138c-2 12 3 24 13 31 10 7 23 8 33 2l124-65 124 65c10 6 23 5 33-2 10-7 15-19 13-31l-24-138 100-97c9-9 12-22 8-33-3-12-13-20-25-22z"/>
    </symbol>
  
    <symbol id="icon-share-2" viewBox="0 0 512 512">
      <path d="m384 192c53 0 96-43 96-96 0-53-43-96-96-96-53 0-96 43-96 96 0 7 1 14 2 21l-103 64c-16-13-36-21-59-21-53 0-96 43-96 96 0 53 43 96 96 96 23 0 43-8 59-21l103 64c-1 7-2 14-2 21 0 53 43 96 96 96 53 0 96-43 96-96 0-53-43-96-96-96-23 0-43 8-59 21l-103-64c1-7 2-14 2-21 0-7-1-14-2-21l103-64c16 13 36 21 59 21z"/>
    </symbol>
  
    <symbol id="icon-share-26" viewBox="0 0 512 512">
      <path d="m480 0l-224 0 0 64 147 0-201 202 44 44 202-201 0 147 64 0 0-224c0-19-13-32-32-32z m-32 512l-416 0c-19 0-32-13-32-32l0-416c0-19 13-32 32-32l128 0 0 64-96 0 0 352 352 0 0-96 64 0 0 128c0 19-13 32-32 32z"/>
    </symbol>
  
    <symbol id="icon-share-91" viewBox="0 0 512 512">
      <path d="m480 512l-448 0c-19 0-32-13-32-32l0-384c0-19 13-32 32-32l96 0 0 64-64 0 0 320 384 0 0-160 64 0 0 192c0 19-13 32-32 32z m-160-416c-102 0-192 80-192 224 35-54 77-96 192-96l0 96 192-160-192-160z"/>
    </symbol>
  
    <symbol id="icon-share-92" viewBox="0 0 512 512">
      <path d="m480 512l-448 0c-19 0-32-13-32-32l0-192 64 0 0 160 384 0 0-320-64 0 0-64 96 0c19 0 32 13 32 32l0 384c0 19-13 32-32 32z m-288-416c102 0 192 80 192 224-35-54-77-96-192-96l0 96-192-160 192-160z"/>
    </symbol>
  
    <symbol id="icon-shuffle-98" viewBox="0 0 512 512">
      <path d="m384 352c-48 0-64-17-91-47l-42 48c34 40 71 63 133 63l0 64 128-96-128-96z m-261-145l42-48c-33-39-72-63-127-63l-38 0 0 64 38 0c41 0 61 20 85 47z m261-111c-55 0-97 21-126 55l-148 168c-18 21-44 33-72 33l-38 0 0 64 38 0c46 0 90-20 120-55l148-168c21-24 47-33 78-33l0 64 128-96-128-96z"/>
    </symbol>
  
    <symbol id="icon-simple-add" viewBox="0 0 512 512">
      <path d="m480 224l-192 0 0-192c0-19-13-32-32-32-19 0-32 13-32 32l0 192-192 0c-19 0-32 13-32 32 0 19 13 32 32 32l192 0 0 192c0 19 13 32 32 32 19 0 32-13 32-32l0-192 192 0c19 0 32-13 32-32 0-19-13-32-32-32z"/>
    </symbol>
  
    <symbol id="icon-simple-remove" viewBox="0 0 512 512">
      <path d="m470 42c-12-13-32-13-44 0l-170 169-170-169c-12-13-32-13-44 0-13 12-13 32 0 44l169 170-169 170c-13 12-13 32 0 44 6 7 12 10 22 10 10 0 16-3 22-10l170-169 170 169c6 7 16 10 22 10 6 0 16-3 22-10 13-12 13-32 0-44l-169-170 169-170c13-12 13-32 0-44z"/>
    </symbol>
  
    <symbol id="icon-single-01" viewBox="0 0 512 512">
      <path d="m384 128c0 71-57 128-128 128-71 0-128-57-128-128 0-71 57-128 128-128 71 0 128 57 128 128z m128 294c0-25-14-47-37-58-69-30-144-45-219-44-75-1-150 14-219 44-23 11-37 33-37 58l0 90 512 0z"/>
    </symbol>
  
    <symbol id="icon-single-copy-04" viewBox="0 0 512 512">
      <path d="m320 128l-256 0c-19 0-32 13-32 32l0 320c0 19 13 32 32 32l256 0c19 0 32-13 32-32l0-320c0-19-13-32-32-32z m128-128l-320 0 0 64 288 0 0 352 64 0 0-384c0-19-13-32-32-32z"/>
    </symbol>
  
    <symbol id="icon-slider" viewBox="0 0 512 512">
      <path d="m480 320l-448 0c-18 0-32-14-32-32l0-256c0-18 14-32 32-32l448 0c18 0 32 14 32 32l0 256c0 18-14 32-32 32z m-160 128c0 35-29 64-64 64-35 0-64-29-64-64 0-35 29-64 64-64 35 0 64 29 64 64z m-192 0c0 18-14 32-32 32-18 0-32-14-32-32 0-18 14-32 32-32 18 0 32 14 32 32z m320 0c0 18-14 32-32 32-18 0-32-14-32-32 0-18 14-32 32-32 18 0 32 14 32 32z"/>
    </symbol>
  
    <symbol id="icon-small-down" viewBox="0 0 512 512">
      <path d="m256 365l-173-173 45-45 128 128 128-128 45 45z"/>
    </symbol>
  
    <symbol id="icon-small-left" viewBox="0 0 512 512">
      <path d="m320 429l-173-173 173-173 45 45-128 128 128 128z"/>
    </symbol>
  
    <symbol id="icon-small-right" viewBox="0 0 512 512">
      <path d="m192 429l-45-45 128-128-128-128 45-45 173 173z"/>
    </symbol>
  
    <symbol id="icon-small-triangle-down" viewBox="0 0 512 512">
      <path d="m96 160l160 192 160-192z"/>
    </symbol>
  
    <symbol id="icon-small-triangle-left" viewBox="0 0 512 512">
      <path d="m352 96l-192 160 192 160z"/>
    </symbol>
  
    <symbol id="icon-small-triangle-right" viewBox="0 0 512 512">
      <path d="m160 416l192-160-192-160z"/>
    </symbol>
  
    <symbol id="icon-small-triangle-up" viewBox="0 0 512 512">
      <path d="m416 352l-160-192-160 192z"/>
    </symbol>
  
    <symbol id="icon-small-up" viewBox="0 0 512 512">
      <path d="m384 365l-128-128-128 128-45-45 173-173 173 173z"/>
    </symbol>
  
    <symbol id="icon-square-add-11" viewBox="0 0 512 512">
      <path d="m224 384l64 0 0-96 96 0 0-64-96 0 0-96-64 0 0 96-96 0 0 64 96 0z m256-384l-448 0c-19 0-32 13-32 32l0 448c0 19 13 32 32 32l448 0c19 0 32-13 32-32l0-448c0-19-13-32-32-32z m-32 448l-384 0 0-384 384 0z"/>
    </symbol>
  
    <symbol id="icon-square-download" viewBox="0 0 512 512">
      <path d="m256 384c10 0 16-3 22-10l183-182-45-45-128 128 0-275-64 0 0 275-128-128-45 45 183 182c6 7 12 10 22 10z m192 64l-384 0 0-96-64 0 0 128c0 19 13 32 32 32l448 0c19 0 32-13 32-32l0-128-64 0z"/>
    </symbol>
  
    <symbol id="icon-square-remove-12" viewBox="0 0 512 512">
      <path d="m189 368l67-67 67 67 45-45-67-67 67-67-45-45-67 67-67-67-45 45 67 67-67 67z m291-368l-448 0c-19 0-32 13-32 32l0 448c0 19 13 32 32 32l448 0c19 0 32-13 32-32l0-448c0-19-13-32-32-32z m-32 448l-384 0 0-384 384 0z"/>
    </symbol>
  
    <symbol id="icon-square-upload" viewBox="0 0 512 512">
      <path d="m224 109l0 275 64 0 0-275 128 128 45-45-183-182c-12-13-32-13-44 0l-183 182 45 45z m224 339l-384 0 0-96-64 0 0 128c0 19 13 32 32 32l448 0c19 0 32-13 32-32l0-128-64 0z"/>
    </symbol>
  
    <symbol id="icon-star-half" viewBox="0 0 512 512">
      <path d="m256 12c-12 0-23 5-29 16l-61 125-139 20c-26 4-36 36-17 55l100 97-24 138c-4 26 23 46 46 34l124-65z"/>
    </symbol>
  
    <symbol id="icon-stopwatch" viewBox="0 0 512 512">
      <path d="m406 10c-12-13-32-13-44 0-13 12-13 32 0 44l25 26-29 29c-38-29-83-45-134-45-125 0-224 99-224 224 0 125 99 224 224 224 125 0 224-99 224-224 0-51-16-96-45-134l29-29 26 25c6 7 12 10 22 10 10 0 16-3 22-10 13-12 13-32 0-44z m-182 438c-90 0-160-70-160-160 0-90 70-160 160-160 90 0 160 70 160 160 0 90-70 160-160 160z m32-256l-64 0 0 128 128 0 0-64-64 0z"/>
    </symbol>
  
    <symbol id="icon-tag" viewBox="0 0 512 512">
      <path d="m502 266l-256-256c-6-7-12-10-22-10l-192 0c-19 0-32 13-32 32l0 192c0 10 3 16 10 22l256 256c6 7 12 10 22 10 10 0 16-3 22-10l192-192c13-12 13-32 0-44z m-374-106c-19 0-32-13-32-32 0-19 13-32 32-32 19 0 32 13 32 32 0 19-13 32-32 32z"/>
    </symbol>
  
    <symbol id="icon-tail-down" viewBox="0 0 512 512">
      <path d="m470 298l-44-45-138 137 0-390-64 0 0 390-138-137-44 45 214 214z"/>
    </symbol>
  
    <symbol id="icon-tail-left" viewBox="0 0 512 512">
      <path d="m214 470l45-44-137-138 390 0 0-64-390 0 137-138-45-44-214 214z"/>
    </symbol>
  
    <symbol id="icon-tail-right" viewBox="0 0 512 512">
      <path d="m298 42l-45 44 137 138-390 0 0 64 390 0-137 138 45 44 214-214z"/>
    </symbol>
  
    <symbol id="icon-tail-up" viewBox="0 0 512 512">
      <path d="m42 214l44 45 138-137 0 390 64 0 0-390 138 137 44-45-214-214z"/>
    </symbol>
  
    <symbol id="icon-tap-01" viewBox="0 0 512 512">
      <path d="m316 208c-3 0-6-1-9-3-7-5-9-15-4-22 11-16 17-35 17-55 0-53-43-96-96-96-53 0-96 43-96 96 0 20 6 39 17 55 5 7 3 17-4 22-7 5-17 3-22-4-15-21-23-47-23-73 0-71 57-128 128-128 71 0 128 57 128 128 0 26-8 52-23 73-3 5-8 7-13 7z m70 72l-130-24 0-112c0-18-14-32-32-32-18 0-32 14-32 32l0 208-16 0 0-48-16 0c-18 0-32 14-32 32l0 46c0 22 7 43 21 60l43 54 208 0 25-162c4-26-13-50-39-54z"/>
    </symbol>
  
    <symbol id="icon-time-3" viewBox="0 0 512 512">
      <path d="m256 0c-141 0-256 115-256 256 0 141 115 256 256 256 141 0 256-115 256-256 0-141-115-256-256-256z m128 288l-160 0 0-160 64 0 0 96 96 0z"/>
    </symbol>
  
    <symbol id="icon-trash" viewBox="0 0 512 512">
      <path d="m64 192l0 256c0 35 29 64 64 64l256 0c35 0 64-29 64-64l0-256z m320-96l0-64c0-19-13-32-32-32l-192 0c-19 0-32 13-32 32l0 64-128 0 0 64 512 0 0-64z m-64 0l-128 0 0-32 128 0z"/>
    </symbol>
  
    <symbol id="icon-triangle-left" viewBox="0 0 512 512">
      <path d="m128 256c0 10 5 20 14 26l320 224c9 7 22 8 33 2 10-5 17-16 17-28l0-448c0-12-7-23-17-28-11-6-24-5-33 2l-320 224c-9 6-14 16-14 26 0 0 0 0 0 0 0 0 0 0 0 0z m-96-256c18 0 32 14 32 32l0 448c0 18-14 32-32 32-18 0-32-14-32-32l0-448c0-18 14-32 32-32z"/>
    </symbol>
  
    <symbol id="icon-triangle-right" viewBox="0 0 512 512">
      <path d="m384 256c0-10-5-20-14-26l-320-224c-9-7-22-8-33-2-10 5-17 16-17 28l0 448c0 12 7 23 17 28 11 6 24 5 33-2l320-224c9-6 14-16 14-26 0 0 0 0 0 0 0 0 0 0 0 0z m96 256c-18 0-32-14-32-32l0-448c0-18 14-32 32-32 18 0 32 14 32 32l0 448c0 18-14 32-32 32z"/>
    </symbol>
  
    <symbol id="icon-tv-2" viewBox="0 0 512 512">
      <path d="m480 0l-448 0c-19 0-32 13-32 32l0 352c0 19 13 32 32 32l192 0 0 32-128 0 0 64 320 0 0-64-128 0 0-32 192 0c19 0 32-13 32-32l0-352c0-19-13-32-32-32z m-32 352l-384 0 0-288 384 0z"/>
    </symbol>
  
    <symbol id="icon-zoom" viewBox="0 0 512 512">
      <path d="m179 64l269 269 0-269z m-115 384l269 0-269-269z"/>
    </symbol>
  
    <symbol id="icon-zoom-2" viewBox="0 0 512 512">
      <path d="m492 447l-122-123c58-81 44-194-33-258-76-65-190-60-260 11-71 70-76 184-11 260 64 77 177 91 258 33l123 122z m-428-234c0-82 67-149 149-149 83 0 150 67 150 149 0 83-67 150-150 150-82 0-149-67-149-150z"/>
    </symbol>
  
    <symbol id="icon-zoom-88" viewBox="0 0 512 512">
      <path d="m160 160l192 0 0 192-192 0z m-96 32l-64 0 0-160c0-19 13-32 32-32l160 0 0 64-128 0z m448 0l-64 0 0-128-128 0 0-64 160 0c19 0 32 13 32 32z m-32 320l-160 0 0-64 128 0 0-128 64 0 0 160c0 19-13 32-32 32z m-288 0l-160 0c-19 0-32-13-32-32l0-160 64 0 0 128 128 0z"/>
    </symbol>
  
    <symbol id="icon-zoom-e" viewBox="0 0 512 512">
      <path d="m64 192l-64 0 0-160c0-19 13-32 32-32l160 0 0 64-128 0z m448 0l-64 0 0-128-128 0 0-64 160 0c19 0 32 13 32 32z m-32 320l-160 0 0-64 128 0 0-128 64 0 0 160c0 19-13 32-32 32z m-288 0l-160 0c-19 0-32-13-32-32l0-160 64 0 0 128 128 0z"/>
    </symbol>
  
    <symbol id="icon-advertising-1" viewBox="0 0 512 512">
      <path d="m106 184l105 0 0-42-105 0z m216 63l0 63 84 0 0-105-84 0z m158-247l-448 0c-19 0-32 13-32 32l0 448c0 19 128 32 32 32l448 0c19 0 32-13 32-32l0-448c0-19-13-32-32-32z m-416 331l0-189 42 0 0-42 105 0 0 42 42 0 0 210-42 0 0-126-105 0 0 126-42 0z m384 117l-384 0 0-32 384 0z m0-327l0 231-168 0 0-147 42 0 0-42 84 0 0-63 42 0z"/>
    </symbol>
  
</svg>
