<svg xmlns="http://www.w3.org/2000/svg" viewBox="0 0 120.754 51.607">
    <defs>
        <filter id="prefix__Path_222" width="120.754" height="51.607" x="0" y="0" filterUnits="userSpaceOnUse">
            <feOffset dy="3"/>
            <feGaussianBlur result="blur" stdDeviation="3"/>
            <feFlood flood-opacity=".161"/>
            <feComposite in2="blur" operator="in"/>
            <feComposite in="SourceGraphic"/>
        </filter>
        <style>
            .prefix__cls-1{fill:#fff}
        </style>
    </defs>
    <g id="prefix__appledownload_button" transform="translate(9 6)">
        <g filter="url(#prefix__Path_222)" transform="translate(-9 -6)">
            <path id="prefix__Path_222-2" d="M4.542 0H98.2a4.542 4.542 0 0 1 4.557 4.542v24.523a4.542 4.542 0 0 1-4.542 4.542H4.539A4.539 4.539 0 0 1 0 29.065V4.542A4.542 4.542 0 0 1 4.542 0z" data-name="Path 222" transform="translate(9 6)"/>
        </g>
        <path id="prefix__Path_223" d="M43.066 47.311a16.634 16.634 0 0 1-1.489 2.809c-1.007 1.483-2.383 3.339-4.089 3.354-1.516.015-1.906-.977-3.952-.977s-2.487.992-4 .98c-1.707-.018-3.011-1.689-3.988-3.178-2.731-4.155-3.029-9.036-1.346-11.63a6.032 6.032 0 0 1 4.864-2.925c1.778 0 2.946.992 4.441.992 1.45 0 2.335-.995 4.426-.995a5.892 5.892 0 0 1 4.447 2.35 5.089 5.089 0 0 0 .686 9.22z" class="prefix__cls-1" data-name="Path 223" transform="translate(-16.261 -25.095)"/>
        <path id="prefix__Path_224" d="M58.88 21.3a5.085 5.085 0 0 0 1.129-3.762 5.486 5.486 0 0 0-3.541 1.906 4.71 4.71 0 0 0-1.156 3.666 4.626 4.626 0 0 0 3.568-1.81z" class="prefix__cls-1" data-name="Path 224" transform="translate(-38.8 -12.316)"/>
        <path id="prefix__Path_225" d="M108.674 45.322l-3.914 11.511h1.787l1.168-3.538h3.791l1.191 3.538h1.844L110.61 45.31zm.923 1.894c.131.515.274 1.048.459 1.626l1.054 3.058h-3l1.039-3.074c.151-.502.314-1.041.451-1.61z" class="prefix__cls-1" data-name="Path 225" transform="translate(-73.559 -31.815)"/>
        <path id="prefix__Path_226" d="M144.195 55.373a3.252 3.252 0 0 0-2.77 1.331l-.071-1.147h-1.594v.143c.048.715.066 1.489.066 2.627v8.881h1.745v-4.139a3.056 3.056 0 0 0 2.383 1.022 3.6 3.6 0 0 0 2.642-1.123 4.764 4.764 0 0 0 1.165-3.351 4.625 4.625 0 0 0-1.013-3.062 3.312 3.312 0 0 0-2.553-1.182zm-.435 1.444c1.555 0 2.249 1.439 2.249 2.865 0 1.841-.894 2.978-2.314 2.978a2.109 2.109 0 0 1-2.052-1.617 2.146 2.146 0 0 1-.063-.563v-1.4a2.636 2.636 0 0 1 .054-.429l.027-.143a2.2 2.2 0 0 1 2.099-1.691z" class="prefix__cls-1" data-name="Path 226" transform="translate(-98.134 -38.879)"/>
        <path id="prefix__Path_227" d="M174.335 55.373a3.276 3.276 0 0 0-2.773 1.331l-.068-1.147H169.9v.143c.048.715.066 1.489.066 2.627v8.881h1.751v-4.139a3.056 3.056 0 0 0 2.383 1.022 3.6 3.6 0 0 0 2.645-1.123 4.764 4.764 0 0 0 1.165-3.351 4.64 4.64 0 0 0-1.013-3.062 3.312 3.312 0 0 0-2.561-1.182zm-.435 1.444c1.555 0 2.249 1.439 2.249 2.865 0 1.841-.894 2.978-2.314 2.978a2.115 2.115 0 0 1-2.055-1.617 2.294 2.294 0 0 1-.06-.563v-1.4a2.631 2.631 0 0 1 .054-.432l.027-.14a2.2 2.2 0 0 1 2.099-1.69z" class="prefix__cls-1" data-name="Path 227" transform="translate(-119.297 -38.88)"/>
        <path id="prefix__Path_228" d="M212.759 49.8c-1.626-.631-2.147-1.126-2.147-2.043 0-.768.614-1.546 1.981-1.546a3.94 3.94 0 0 1 2.046.512l.149.092.491-1.456-.1-.057a5.078 5.078 0 0 0-2.541-.569c-2.222 0-3.774 1.31-3.774 3.19 0 1.516.971 2.573 3.059 3.333 1.489.554 2.028 1.12 2.028 2.085 0 1.1-.849 1.787-2.213 1.787a4.765 4.765 0 0 1-2.514-.712l-.152-.1-.462 1.484.086.057a5.957 5.957 0 0 0 2.946.757c3 0 4.06-1.826 4.06-3.389-.002-1.611-.852-2.606-2.943-3.425z" class="prefix__cls-1" data-name="Path 228" transform="translate(-146.478 -31.406)"/>
        <path id="prefix__Path_229" d="M235.978 49.33l-1.71.539v1.447H233v1.394h1.251v4.265a3.3 3.3 0 0 0 .6 2.213 2.24 2.24 0 0 0 1.686.661 4.027 4.027 0 0 0 1.346-.208l.1-.033-.083-1.4-.167.051a2.594 2.594 0 0 1-.81.1c-.676 0-.965-.429-.965-1.43V52.71h2.112v-1.393h-2.085z" class="prefix__cls-1" data-name="Path 229" transform="translate(-163.604 -34.638)"/>
        <path id="prefix__Path_230" d="M254.753 55.376a4.105 4.105 0 0 0-4.143 4.424 3.976 3.976 0 0 0 4.009 4.292h.015a4.108 4.108 0 0 0 4.143-4.441 4.4 4.4 0 0 0-1.111-3.083 3.872 3.872 0 0 0-2.913-1.192zm-.051 1.376c1.567 0 2.281 1.531 2.281 2.952 0 1.745-.974 3.014-2.314 3.014h-.018c-1.322 0-2.281-1.248-2.281-2.978 0-1.481.721-2.988 2.33-2.988z" class="prefix__cls-1" data-name="Path 230" transform="translate(-175.969 -38.882)"/>
        <path id="prefix__Path_231" d="M285.741 55.46l-.1-.024a1.638 1.638 0 0 0-.432-.057 2.493 2.493 0 0 0-2.186 1.4l-.065-1.218h-1.568v.146c.048.691.066 1.465.066 2.511l-.006 5.682h1.742v-4.428a4.34 4.34 0 0 1 .048-.676 1.928 1.928 0 0 1 1.835-1.757 4.361 4.361 0 0 1 .468.03l.185.021z" class="prefix__cls-1" data-name="Path 231" transform="translate(-197.581 -38.886)"/>
        <path id="prefix__Path_232" d="M299.82 55.33c-2.32 0-3.94 1.853-3.94 4.509a3.9 3.9 0 0 0 4.107 4.208 6.684 6.684 0 0 0 2.761-.53l.1-.048-.334-1.3-.146.06a5.406 5.406 0 0 1-2.183.39 2.424 2.424 0 0 1-2.612-2.529l5.626.018.024-.11a3.9 3.9 0 0 0 .051-.73c.004-1.814-.901-3.938-3.454-3.938zm-.116 1.325a1.722 1.722 0 0 1 1.281.488 2.472 2.472 0 0 1 .6 1.623h-3.97a2.223 2.223 0 0 1 2.085-2.111z" class="prefix__cls-1" data-name="Path 232" transform="translate(-207.756 -38.851)"/>
        <path id="prefix__Path_233" d="M104.76 18.663a12.533 12.533 0 0 1 1.671-.113 3.731 3.731 0 0 1 2.457.673 2.383 2.383 0 0 1 .861 1.966 2.755 2.755 0 0 1-.87 2.118 4.048 4.048 0 0 1-2.681.786 12.344 12.344 0 0 1-1.43-.066zm.792 4.831a5.545 5.545 0 0 0 .789.033c1.674 0 2.582-.843 2.582-2.314 0-1.3-.8-2.106-2.454-2.106a4.765 4.765 0 0 0-.917.074z" class="prefix__cls-1" data-name="Path 233" transform="translate(-73.559 -13.025)"/>
        <path id="prefix__Path_234" d="M126.015 27.628a1.962 1.962 0 0 1-2.085-2.013 2.025 2.025 0 0 1 2.159-2.085 1.942 1.942 0 0 1 2.085 2 2.024 2.024 0 0 1-2.156 2.085zm.021-.533a1.393 1.393 0 0 0 1.319-1.528 1.328 1.328 0 1 0-2.633.033 1.37 1.37 0 0 0 1.3 1.5z" class="prefix__cls-1" data-name="Path 234" transform="translate(-87.019 -16.522)"/>
        <path id="prefix__Path_235" d="M140.49 23.85l.6 1.981c.116.438.235.849.316 1.254h.027c.1-.4.241-.816.387-1.245l.709-1.99h.667l.673 1.957a12.9 12.9 0 0 1 .387 1.278h.027a10.877 10.877 0 0 1 .331-1.269l.622-1.966h.78l-1.416 3.916h-.718l-.664-1.867a12.01 12.01 0 0 1-.387-1.3h-.018a10.96 10.96 0 0 1-.4 1.3l-.7 1.858h-.721l-1.313-3.914z" class="prefix__cls-1" data-name="Path 235" transform="translate(-98.078 -16.747)"/>
        <path id="prefix__Path_236" d="M163.476 24.7a9.622 9.622 0 0 0-.036-1.06h.7l.063.64a1.644 1.644 0 0 1 1.436-.727 1.492 1.492 0 0 1 1.54 1.665v2.338h-.792V25.3c0-.628-.262-1.165-1.007-1.165a1.129 1.129 0 0 0-1.057.745.961.961 0 0 0-.054.331v2.35h-.792z" class="prefix__cls-1" data-name="Path 236" transform="translate(-114.761 -16.539)"/>
        <path id="prefix__Path_237" d="M180.31 17.71h.8v5.745h-.792z" class="prefix__cls-1" data-name="Path 237" transform="translate(-126.607 -12.435)"/>
        <path id="prefix__Path_238" d="M188.4 27.628a1.964 1.964 0 0 1-2.085-2.013 2.024 2.024 0 0 1 2.156-2.085 1.94 1.94 0 0 1 2.085 2 2.024 2.024 0 0 1-2.156 2.085zm.027-.533a1.393 1.393 0 0 0 1.322-1.528 1.329 1.329 0 1 0-2.636.024 1.372 1.372 0 0 0 1.3 1.5z" class="prefix__cls-1" data-name="Path 238" transform="translate(-130.827 -16.522)"/>
        <path id="prefix__Path_239" d="M206.207 26.628a5.939 5.939 0 0 0 .063.938h-.712l-.072-.491h-.027a1.668 1.668 0 0 1-1.328.581 1.179 1.179 0 0 1-1.331-1.123c0-.947.935-1.465 2.615-1.456V25c0-.325-.1-.914-.989-.908a2.284 2.284 0 0 0-1.141.3l-.179-.477a3.044 3.044 0 0 1 1.439-.34 1.456 1.456 0 0 1 1.662 1.6zm-.774-1.06c-.861-.015-1.841.122-1.841.893a.661.661 0 0 0 .736.679 1.1 1.1 0 0 0 1.069-.655.677.677 0 0 0 .036-.226z" class="prefix__cls-1" data-name="Path 239" transform="translate(-142.398 -16.549)"/>
        <path id="prefix__Path_240" d="M221.511 17.71v4.733a8.778 8.778 0 0 0 .036 1.01h-.709l-.036-.679h-.018a1.629 1.629 0 0 1-1.474.768 1.868 1.868 0 0 1-1.87-1.99 1.954 1.954 0 0 1 1.951-2.1 1.489 1.489 0 0 1 1.314.6h.018V17.71zm-.789 3.422a1.068 1.068 0 0 0-.039-.3 1.144 1.144 0 0 0-1.141-.819 1.342 1.342 0 0 0-1.3 1.507 1.3 1.3 0 0 0 1.287 1.453 1.173 1.173 0 0 0 1.159-.849 1.007 1.007 0 0 0 .039-.3z" class="prefix__cls-1" data-name="Path 240" transform="translate(-152.678 -12.435)"/>
        <path id="prefix__Path_241" d="M242.945 27.628a1.964 1.964 0 0 1-2.085-2.013 2.024 2.024 0 0 1 2.156-2.085 1.94 1.94 0 0 1 2.085 2 2.027 2.027 0 0 1-2.159 2.085zm.042-.533a1.393 1.393 0 0 0 1.322-1.528 1.328 1.328 0 1 0-2.633.033 1.37 1.37 0 0 0 1.3 1.5z" class="prefix__cls-1" data-name="Path 241" transform="translate(-169.123 -16.522)"/>
        <path id="prefix__Path_242" d="M258.406 24.7a9.605 9.605 0 0 0-.036-1.06h.7l.045.637h.018a1.653 1.653 0 0 1 1.439-.727 1.491 1.491 0 0 1 1.537 1.665v2.341h-.789v-2.264c0-.628-.262-1.165-1.007-1.165a1.129 1.129 0 0 0-1.06.745.962.962 0 0 0-.057.331v2.35h-.789z" class="prefix__cls-1" data-name="Path 242" transform="translate(-181.418 -16.533)"/>
        <path id="prefix__Path_243" d="M281.442 20.7v.938h1.132v.542h-1.132v2.112c0 .485.152.759.6.759A1.615 1.615 0 0 0 282.5 25l.036.542a2.412 2.412 0 0 1-.7.1 1.191 1.191 0 0 1-.855-.3 1.415 1.415 0 0 1-.3-1.028V22.18H280v-.542h.673v-.721z" class="prefix__cls-1" data-name="Path 243" transform="translate(-196.605 -14.535)"/>
        <path id="prefix__Path_244" d="M291.63 17.71h.792v2.442h.018a1.331 1.331 0 0 1 .566-.5 1.65 1.65 0 0 1 .81-.2 1.482 1.482 0 0 1 1.519 1.674v2.332h-.792V21.2c0-.637-.259-1.165-1.007-1.165a1.138 1.138 0 0 0-1.06.712.791.791 0 0 0-.054.34v2.365h-.792z" class="prefix__cls-1" data-name="Path 244" transform="translate(-204.771 -12.435)"/>
        <path id="prefix__Path_245" d="M308.107 25.7a1.328 1.328 0 0 0 1.489 1.358 3.333 3.333 0 0 0 1.206-.194l.143.5a3.887 3.887 0 0 1-1.456.253 1.928 1.928 0 0 1-2.138-1.975 2 2 0 0 1 2.049-2.122 1.712 1.712 0 0 1 1.787 1.844 1.469 1.469 0 0 1-.027.34zm2.311-.509a1.048 1.048 0 0 0-1.087-1.159 1.233 1.233 0 0 0-1.215 1.159z" class="prefix__cls-1" data-name="Path 245" transform="translate(-215.81 -16.515)"/>
    </g>
</svg>
