<svg xmlns="http://www.w3.org/2000/svg" viewBox="0 0 322.738 68.934">
    <defs>
        <filter id="prefix__Path_328" width="322.738" height="68.934" x="0" y="0" filterUnits="userSpaceOnUse">
            <feOffset dy="3"/>
            <feGaussianBlur result="blur" stdDeviation="3"/>
            <feFlood flood-opacity=".161"/>
            <feComposite in2="blur" operator="in"/>
            <feComposite in="SourceGraphic"/>
        </filter>
    </defs>
    <g id="prefix__Group_189" data-name="Group 189" transform="translate(9 2.166)">
        <g id="prefix__Group_126" data-name="Group 126">
            <g filter="url(#prefix__Path_328)" transform="translate(-9 -2.17)">
                <path id="prefix__Path_328-2" fill="#fff" d="M283.425 59.334H21.314A21.309 21.309 0 0 1 0 38.02v-8.26A21.348 21.348 0 0 1 21.314 8.4h262.111a21.309 21.309 0 0 1 21.314 21.314v8.261a21.319 21.319 0 0 1-21.314 21.359z" data-name="Path 328" transform="translate(9 -2.4)"/>
            </g>
            <path id="prefix__Path_329" fill="#00b14f" d="M283.425 50.934H21.314A21.319 21.319 0 0 1 0 29.575v-8.261A21.309 21.309 0 0 1 21.314 0h262.111a21.309 21.309 0 0 1 21.314 21.314v8.261a21.319 21.319 0 0 1-21.314 21.359z" data-name="Path 329"/>
        </g>
        <text id="prefix__DÀNH_CHO_GIÁO_VIÊN" fill="#fff" data-name="DÀNH CHO GIÁO VIÊN" font-family="Niramit-Bold, Niramit" font-size="23px" font-weight="700" transform="translate(37.506 33.721)">
            <tspan x="0" y="0">DÀNH CHO GIÁO VIÊN</tspan>
        </text>
    </g>
</svg>
