<svg xmlns="http://www.w3.org/2000/svg" viewBox="0 0 120.754 51.607">
    <defs>
        <linearGradient id="prefix__linear-gradient" x1=".5" x2=".5" y2="1" gradientUnits="objectBoundingBox">
            <stop offset="0" stop-color="#257db0"/>
            <stop offset=".21" stop-color="#3c90b3"/>
            <stop offset=".74" stop-color="#73bdb9"/>
            <stop offset="1" stop-color="#89cebc"/>
        </linearGradient>
        <linearGradient id="prefix__linear-gradient-2" x2="1" y1=".5" y2=".5" gradientUnits="objectBoundingBox">
            <stop offset="0" stop-color="#51bfac"/>
            <stop offset="1" stop-color="#dee899"/>
        </linearGradient>
        <linearGradient id="prefix__linear-gradient-3" x1=".5" x2=".5" y2="1" gradientUnits="objectBoundingBox">
            <stop offset="0" stop-color="#eb403d"/>
            <stop offset=".19" stop-color="#d64252"/>
            <stop offset=".74" stop-color="#9f4887"/>
            <stop offset="1" stop-color="#894a9c"/>
        </linearGradient>
        <linearGradient id="prefix__linear-gradient-4" x1=".5" x2=".5" y2="1" gradientUnits="objectBoundingBox">
            <stop offset="0" stop-color="#f48779"/>
            <stop offset=".61" stop-color="#fab076"/>
            <stop offset="1" stop-color="#fdc674"/>
        </linearGradient>
        <clipPath id="prefix__clip-path">
            <path id="prefix__Path_251" fill="none" d="M40.431 30.854L35.8 28.173l-8.935-5.161c-.5-.3-.992-.11-.992.488v21.024c0 .45.354.643.786.4L35.8 39.64l4.634-2.68 4.453-2.57c.521-.3.471-.715.03-.953s-4.486-2.583-4.486-2.583z" data-name="Path 251" transform="translate(-25.87 -22.872)"/>
        </clipPath>
        <filter id="prefix__Path_246" width="120.754" height="51.607" x="0" y="0" filterUnits="userSpaceOnUse">
            <feOffset dy="3"/>
            <feGaussianBlur result="blur" stdDeviation="3"/>
            <feFlood flood-opacity=".161"/>
            <feComposite in2="blur" operator="in"/>
            <feComposite in="SourceGraphic"/>
        </filter>
    </defs>
    <g id="prefix__androiddownload_button" transform="translate(9 6)">
        <g filter="url(#prefix__Path_246)" transform="translate(-9 -6)">
            <path id="prefix__Path_246-2" fill="#fff" d="M4.542 0H98.2a4.542 4.542 0 0 1 4.557 4.542v24.523a4.542 4.542 0 0 1-4.542 4.542H4.539A4.539 4.539 0 0 1 0 29.065V4.542A4.542 4.542 0 0 1 4.542 0z" data-name="Path 246" transform="translate(9 6)"/>
        </g>
        <g id="prefix__PLAY" transform="translate(7.705 6.812)">
            <g id="prefix__Group_102" clip-path="url(#prefix__clip-path)" data-name="Group 102">
                <path id="prefix__Path_247" fill="url(#prefix__linear-gradient)" d="M25.87 21.72v22.76L37.349 33.1z" data-name="Path 247" transform="translate(-25.87 -22.063)"/>
                <path id="prefix__Path_248" fill="url(#prefix__linear-gradient-2)" d="M40.431 29.855L35.8 27.18l-9.93-5.73v.08l11.479 11.38z" data-name="Path 248" transform="translate(-25.87 -21.874)"/>
                <path id="prefix__Path_249" fill="url(#prefix__linear-gradient-3)" d="M25.87 71.31v.083l9.93-5.733 4.631-2.675-3.08-3.056z" data-name="Path 249" transform="translate(-25.87 -48.893)"/>
                <path id="prefix__Path_250" fill="url(#prefix__linear-gradient-4)" d="M67.493 49.67l-3.083 3.056 3.08 3.056 5.3-3.056z" data-name="Path 250" transform="translate(-52.931 -41.689)"/>
            </g>
        </g>
        <path id="prefix__Path_252" d="M261.186 58.654a2.868 2.868 0 0 1-1.191-.238 2.233 2.233 0 0 1-.893-.736h-.072a9.02 9.02 0 0 1 .072 1.1v2.72h-1v-9.59h.816l.137.894h.048a2.326 2.326 0 0 1 .893-.783 2.681 2.681 0 0 1 1.176-.244 2.439 2.439 0 0 1 2.031.893 4.779 4.779 0 0 1-.012 5.057 2.451 2.451 0 0 1-2.005.927zm-.137-6.01a1.766 1.766 0 0 0-1.465.563 2.931 2.931 0 0 0-.468 1.787v.223a3.288 3.288 0 0 0 .468 2 1.772 1.772 0 0 0 1.489.6 1.558 1.558 0 0 0 1.346-.694 3.312 3.312 0 0 0 .481-1.923 3.189 3.189 0 0 0-.486-1.9 1.6 1.6 0 0 0-1.365-.656z" data-name="Path 252" transform="translate(-181.228 -36.356)"/>
        <path id="prefix__Path_253" d="M283.114 52.307h-1v-9.4h1z" data-name="Path 253" transform="translate(-198.087 -30.13)"/>
        <path id="prefix__Path_254" d="M294.057 58.605l-.2-.941h-.048a2.793 2.793 0 0 1-.989.843 3.023 3.023 0 0 1-1.227.22 2.2 2.2 0 0 1-1.543-.509 1.832 1.832 0 0 1-.56-1.442q0-2 3.208-2.1l1.123-.036v-.411a1.677 1.677 0 0 0-.337-1.15 1.379 1.379 0 0 0-1.072-.372 4.352 4.352 0 0 0-1.879.509l-.3-.768a4.865 4.865 0 0 1 1.072-.417 4.623 4.623 0 0 1 1.171-.149 2.516 2.516 0 0 1 1.754.524 2.191 2.191 0 0 1 .569 1.686v4.515zm-2.264-.706a2.028 2.028 0 0 0 1.468-.512 1.9 1.9 0 0 0 .536-1.439v-.6l-1 .042a3.693 3.693 0 0 0-1.724.372 1.126 1.126 0 0 0-.536 1.022 1.039 1.039 0 0 0 .328.828 1.379 1.379 0 0 0 .928.288z" data-name="Path 254" transform="translate(-203.267 -36.428)"/>
        <path id="prefix__Path_255" d="M309.28 52.24h1.072l1.45 3.774a14.471 14.471 0 0 1 .6 1.867h.048q.081-.3.331-1.054t1.638-4.587h1.075l-2.844 7.535a3.75 3.75 0 0 1-.989 1.587 2.085 2.085 0 0 1-1.385.468 4.02 4.02 0 0 1-.894-.1v-.8a3.521 3.521 0 0 0 .742.071 1.522 1.522 0 0 0 1.474-1.159l.369-.941z" data-name="Path 255" transform="translate(-217.165 -36.681)"/>
        <path id="prefix__Path_256" d="M193.928 53.115a2.255 2.255 0 0 1-.182 3.836.977.977 0 0 0-.387.679.762.762 0 0 0 .36.6l.5.387a2.441 2.441 0 0 1 1.162 1.939c0 1.3-1.26 2.615-3.643 2.615-2.007 0-2.978-.956-2.978-1.981a1.989 1.989 0 0 1 1.066-1.689 5.946 5.946 0 0 1 2.645-.637 1.451 1.451 0 0 1-.417-.941 1.26 1.26 0 0 1 .14-.539c-.152 0-.3.027-.444.027a2.189 2.189 0 0 1-2.3-2.171 2.49 2.49 0 0 1 .893-1.855 3.765 3.765 0 0 1 2.478-.762h2.859l-.894.5zm-.983 6.147a2.086 2.086 0 0 0-.319 0 5.576 5.576 0 0 0-1.453.223 1.565 1.565 0 0 0-1.191 1.427c0 .983.956 1.689 2.436 1.689 1.328 0 2.037-.637 2.037-1.489 0-.73-.455-1.102-1.51-1.85zm.4-2.63a1.412 1.412 0 0 0 .345-1.01c0-1-.6-2.546-1.745-2.546a1.287 1.287 0 0 0-.968.456 1.6 1.6 0 0 0-.3 1.025c0 .926.542 2.463 1.733 2.463a1.412 1.412 0 0 0 .932-.387z" data-name="Path 256" transform="translate(-132.54 -36.943)"/>
        <path id="prefix__Path_257" d="M168.895 58.554a3.276 3.276 0 0 1-3.375-3.276 3.431 3.431 0 0 1 3.574-3.36 3.231 3.231 0 0 1 3.3 3.276 3.374 3.374 0 0 1-3.5 3.36zm1.727-1.12a2.511 2.511 0 0 0 .4-1.534c0-1.218-.581-3.538-2.293-3.538a1.927 1.927 0 0 0-1.233.474 2.085 2.085 0 0 0-.643 1.683c0 1.367.679 3.619 2.353 3.619a1.787 1.787 0 0 0 1.415-.7z" data-name="Path 257" transform="translate(-116.222 -36.455)"/>
        <path id="prefix__Path_258" d="M143.742 58.554a3.276 3.276 0 0 1-3.372-3.276 3.431 3.431 0 0 1 3.574-3.36 3.232 3.232 0 0 1 3.3 3.276 3.377 3.377 0 0 1-3.506 3.36zm1.73-1.12a2.51 2.51 0 0 0 .414-1.534c0-1.218-.581-3.538-2.3-3.538a1.912 1.912 0 0 0-1.245.474 2.085 2.085 0 0 0-.637 1.686c0 1.367.679 3.619 2.35 3.619a1.787 1.787 0 0 0 1.418-.707z" data-name="Path 258" transform="translate(-98.562 -36.455)"/>
        <path id="prefix__Path_259" d="M114.255 50.994l-1.99.456a14.724 14.724 0 0 1-2.29.235 4.938 4.938 0 0 1-5.3-5.03 5.26 5.26 0 0 1 5.614-5.194 7.991 7.991 0 0 1 2.127.3 5.438 5.438 0 0 1 1.835.861l-1.141 1.087-.485.113.348-.557a3.973 3.973 0 0 0-2.978-1.3 3.837 3.837 0 0 0-3.848 4.1 4.906 4.906 0 0 0 4.917 5.063 4.146 4.146 0 0 0 1.748-.334v-2.246l-2.1.11 1.114-.6h2.946l-.36.345a.325.325 0 0 0-.14.223c0 .125-.027.527-.027.667z" data-name="Path 259" transform="translate(-73.502 -29.112)"/>
        <path id="prefix__Path_260" d="M213.937 49.871c-.462-.042-.557-.125-.557-.667v-7.955c.057-.485.194-.569.625-.819h-1.987l-1.019.5h1.06v8.581c0 .277-.054.319-.375.736h2.46l.515-.3c-.252-.034-.487-.047-.722-.076z" data-name="Path 260" transform="translate(-148.156 -28.389)"/>
        <path id="prefix__Path_261" d="M227.965 58.123c-.152.083-.3.179-.456.247a3.181 3.181 0 0 1-1.337.262 2.943 2.943 0 0 1-1.838-.539 3.574 3.574 0 0 1-1.406-2.91A3.127 3.127 0 0 1 226.089 52a2.681 2.681 0 0 1 1.421.384 2.279 2.279 0 0 1 .965 1.367l-3.24 1.31-1.063.083a3.066 3.066 0 0 0 2.841 2.773 3.574 3.574 0 0 0 1.686-.482zm-1.3-4.113c.262-.1.4-.179.4-.372a1.375 1.375 0 0 0-1.367-1.191 1.7 1.7 0 0 0-1.587 1.918c0 .235.03.485.042.733z" data-name="Path 261" transform="translate(-156.531 -36.512)"/>
        <path id="prefix__Path_262" d="M243.348 52.089V53h-.11v-.911h-.3V52h.712v.092z" data-name="Path 262" transform="translate(-170.583 -36.513)"/>
        <path id="prefix__Path_263" d="M246.711 53v-.92l-.28.92h-.086l-.283-.92V53h-.1v-1h.173l.256.81.253-.81h.173v1z" data-name="Path 263" transform="translate(-172.704 -36.513)"/>
        <path id="prefix__Path_264" d="M107.547 25.759h-.691a4.567 4.567 0 0 0-.2-.807h-1a4.308 4.308 0 0 0-.2.807h-.649a14.611 14.611 0 0 1 .5-1.379 10.839 10.839 0 0 0 .5-1.43h.816a12.076 12.076 0 0 0 .456 1.409 11.99 11.99 0 0 1 .468 1.4zm-1-1.218a11.886 11.886 0 0 1-.369-1.191h-.036a12.4 12.4 0 0 1-.381 1.191z" data-name="Path 264" transform="translate(-73.594 -16.115)"/>
        <path id="prefix__Path_265" d="M117.827 25.745h-.533a5.382 5.382 0 0 0-.6-.932 5.137 5.137 0 0 1-.709-1.221h-.036a7.742 7.742 0 0 1 .06.849c0 .354 0 .789.03 1.3h-.533c.024-.447.033-.935.033-1.468s0-.971-.033-1.34h.643a3.9 3.9 0 0 0 .533.914 5.2 5.2 0 0 1 .654 1.153h.033c-.033-.322-.051-.611-.051-.864 0-.39 0-.789-.03-1.191h.539c-.021.357-.03.8-.03 1.34s.009 1.022.03 1.46z" data-name="Path 265" transform="translate(-81.107 -16.101)"/>
        <path id="prefix__Path_266" d="M128.166 24.243a1.587 1.587 0 0 1-.393 1.069 1.367 1.367 0 0 1-1.1.459c-.214 0-.506 0-.894-.027.018-.435.027-.923.027-1.468s0-.971-.027-1.34h.894a1.45 1.45 0 0 1 1.129.387 1.334 1.334 0 0 1 .363.92zm-.6.092a1.033 1.033 0 0 0-.241-.7.914.914 0 0 0-.739-.3 1.237 1.237 0 0 0-.253.021c0 .3.021.6.021.893s0 .685.021 1.022a1.516 1.516 0 0 0 .28.03.819.819 0 0 0 .688-.3 1.114 1.114 0 0 0 .229-.673z" data-name="Path 266" transform="translate(-88.318 -16.1)"/>
        <path id="prefix__Path_267" d="M138.091 25.752h-.637a4.185 4.185 0 0 0-.4-.941.5.5 0 0 0-.432-.182h-.241c0 .369 0 .745.021 1.12h-.6c.021-.435.03-.923.03-1.468s0-.971-.03-1.34h1.028c.658 0 .989.223.989.676a.757.757 0 0 1-.566.748v.035a.688.688 0 0 1 .393.331 7.921 7.921 0 0 1 .445 1.021zm-.81-1.984c0-.3-.182-.429-.551-.429a1.823 1.823 0 0 0-.357.03c.015.223.024.512.024.87h.2c.461.006.684-.155.684-.471z" data-name="Path 267" transform="translate(-95.361 -16.108)"/>
        <path id="prefix__Path_268" d="M147.377 24.147a1.555 1.555 0 0 1-.408 1.1 1.316 1.316 0 0 1-1 .435 1.278 1.278 0 0 1-.956-.4 1.415 1.415 0 0 1-.384-1.019 1.543 1.543 0 0 1 .408-1.1 1.308 1.308 0 0 1 1-.438 1.278 1.278 0 0 1 .956.4 1.415 1.415 0 0 1 .384 1.022zm-.6.063a1.1 1.1 0 0 0-.232-.73.712.712 0 0 0-.569-.283.658.658 0 0 0-.536.283 1.141 1.141 0 0 0-.22.715 1.105 1.105 0 0 0 .232.73.715.715 0 0 0 .569.283.664.664 0 0 0 .536-.283 1.141 1.141 0 0 0 .224-.716z" data-name="Path 268" transform="translate(-101.552 -15.96)"/>
        <path id="prefix__Path_269" d="M156.6 25.759h-.6c.018-.447.03-.935.03-1.468s0-.971-.03-1.34h.6q-.027.545-.027 1.34a14.474 14.474 0 0 0 .027 1.468z" data-name="Path 269" transform="translate(-109.537 -16.115)"/>
        <path id="prefix__Path_270" d="M162.826 24.243a1.588 1.588 0 0 1-.393 1.069 1.361 1.361 0 0 1-1.1.459c-.214 0-.506 0-.894-.027.021-.435.03-.923.03-1.468s0-.971-.03-1.34h.894a1.459 1.459 0 0 1 1.132.387 1.346 1.346 0 0 1 .361.92zm-.6.092a1.037 1.037 0 0 0-.244-.7.894.894 0 0 0-.736-.3 1.263 1.263 0 0 0-.256.021c0 .3.021.6.021.893s0 .685.024 1.022a1.466 1.466 0 0 0 .28.03.819.819 0 0 0 .688-.3 1.114 1.114 0 0 0 .232-.673z" data-name="Path 270" transform="translate(-112.655 -16.1)"/>
        <path id="prefix__Path_271" d="M175.934 25.759h-.688a4.564 4.564 0 0 0-.2-.807h-1a4.062 4.062 0 0 0-.2.807h-.646a14.613 14.613 0 0 1 .5-1.379 10.842 10.842 0 0 0 .5-1.43h.816a12.069 12.069 0 0 0 .456 1.409 12.294 12.294 0 0 1 .456 1.4zm-1.007-1.218a11.884 11.884 0 0 1-.369-1.191h-.036c0 .054-.128.456-.381 1.191z" data-name="Path 271" transform="translate(-121.614 -16.115)"/>
        <path id="prefix__Path_272" d="M186.027 23.7a.84.84 0 0 1-.381.768 1.71 1.71 0 0 1-.941.244h-.143c0 .271 0 .625.024 1.069h-.6c.018-.414.03-.893.03-1.468 0-.518 0-.965-.03-1.34h1.066a1.23 1.23 0 0 1 .694.185.622.622 0 0 1 .281.542zm-.554.119c0-.3-.205-.462-.614-.462a1.557 1.557 0 0 0-.325.033c.015.271.024.578.024.923h.125c.524 0 .8-.164.8-.494z" data-name="Path 272" transform="translate(-129.191 -16.134)"/>
        <path id="prefix__Path_273" d="M194.717 23.7a.846.846 0 0 1-.381.768 1.71 1.71 0 0 1-.941.244h-.143c0 .271 0 .625.024 1.069h-.6c.018-.414.03-.894.03-1.468 0-.518 0-.965-.03-1.34h1.066a1.215 1.215 0 0 1 .691.185.619.619 0 0 1 .28.542zm-.557.119c0-.3-.2-.462-.611-.462a1.558 1.558 0 0 0-.325.033c.015.271.024.578.024.923h.122c.53.008.79-.159.79-.489z" data-name="Path 273" transform="translate(-135.293 -16.134)"/>
        <path id="prefix__Path_274" d="M207.254 24.147a1.552 1.552 0 0 1-.405 1.1 1.322 1.322 0 0 1-1 .435 1.269 1.269 0 0 1-.953-.4 1.415 1.415 0 0 1-.384-1.019 1.54 1.54 0 0 1 .405-1.1 1.313 1.313 0 0 1 1-.438 1.275 1.275 0 0 1 .953.4 1.415 1.415 0 0 1 .384 1.022zm-.6.063a1.114 1.114 0 0 0-.229-.73.715.715 0 0 0-.584-.283.658.658 0 0 0-.533.283 1.123 1.123 0 0 0-.22.715 1.1 1.1 0 0 0 .232.73.706.706 0 0 0 .566.283.658.658 0 0 0 .536-.283 1.141 1.141 0 0 0 .236-.715z" data-name="Path 274" transform="translate(-143.597 -15.96)"/>
        <path id="prefix__Path_275" d="M218.087 25.759h-.533a5.166 5.166 0 0 0-.6-.932 5.138 5.138 0 0 1-.709-1.221h-.033a7.7 7.7 0 0 1 .054.855c0 .354 0 .789.03 1.3h-.53c.021-.447.03-.935.03-1.468s0-.971-.03-1.34h.64a3.9 3.9 0 0 0 .536.908 5.394 5.394 0 0 1 .652 1.153h.03c-.033-.322-.051-.611-.051-.864 0-.39 0-.789-.03-1.191h.539c-.021.357-.03.8-.03 1.34s.014 1.022.035 1.46z" data-name="Path 275" transform="translate(-151.506 -16.115)"/>
    </g>
</svg>
