<svg xmlns="http://www.w3.org/2000/svg" xmlns:xlink="http://www.w3.org/1999/xlink" id="prefix__Asset_56" data-name="Asset 56" viewBox="0 0 131.488 165.914">
    <defs>
        <linearGradient id="prefix__linear-gradient" x1=".937" x2=".183" y1="-1.586" y2="-.869" gradientUnits="objectBoundingBox">
            <stop offset="0" stop-color="#dadae8"/>
            <stop offset=".54" stop-color="#bdbdd1"/>
            <stop offset="1" stop-color="#84849b"/>
        </linearGradient>
        <linearGradient id="prefix__linear-gradient-2" x1=".656" x2=".308" y1="-1.591" y2="-1.237" xlink:href="#prefix__linear-gradient"/>
        <linearGradient id="prefix__linear-gradient-3" x1=".769" x2=".154" y1="-2.785" y2="-2.394" xlink:href="#prefix__linear-gradient"/>
        <linearGradient id="prefix__linear-gradient-4" x1="-4848.538" x2="-4847.503" y1="-42.219" y2="-42.219" gradientUnits="objectBoundingBox">
            <stop offset=".01" stop-color="#daa191"/>
            <stop offset=".99" stop-color="#de807a"/>
        </linearGradient>
        <linearGradient id="prefix__linear-gradient-5" x1="-4905.267" x2="-4904.257" y1="-44.474" y2="-44.474" xlink:href="#prefix__linear-gradient-4"/>
        <linearGradient id="prefix__linear-gradient-6" x1=".765" x2=".119" y1=".259" y2="-.554" xlink:href="#prefix__linear-gradient-4"/>
        <linearGradient id="prefix__linear-gradient-7" x1="-1872.393" x2="-1873.3" y1="5.961" y2="4.727" xlink:href="#prefix__linear-gradient-4"/>
        <linearGradient id="prefix__linear-gradient-8" x1=".334" x2=".908" y1=".241" y2="-1.703" xlink:href="#prefix__linear-gradient-4"/>
        <linearGradient id="prefix__linear-gradient-9" x1="-1704.895" x2="-1705.653" y1="3.321" y2="2.276" xlink:href="#prefix__linear-gradient-4"/>
        <linearGradient id="prefix__linear-gradient-10" x1=".915" x2="-.011" y1="14.004" y2="13.103" gradientUnits="objectBoundingBox">
            <stop offset="0" stop-color="#ffd150"/>
            <stop offset="1" stop-color="#f2b725"/>
        </linearGradient>
        <linearGradient id="prefix__linear-gradient-11" x1="-.501" x2="1.473" y1=".953" y2=".978" gradientUnits="objectBoundingBox">
            <stop offset="0" stop-color="#ffc440"/>
            <stop offset="1" stop-color="#eeeeef"/>
        </linearGradient>
        <linearGradient id="prefix__linear-gradient-12" x1=".852" x2=".124" y1="9.766" y2="8.552" xlink:href="#prefix__linear-gradient-4"/>
        <linearGradient id="prefix__linear-gradient-13" x1=".35" x2=".882" y1="10.012" y2="9.032" xlink:href="#prefix__linear-gradient-4"/>
        <linearGradient id="prefix__linear-gradient-14" x1="-1131.531" x2="-1130.515" y1="27.939" y2="27.939" gradientUnits="objectBoundingBox">
            <stop offset=".01" stop-color="#c9d9dc"/>
            <stop offset=".99" stop-color="#b8cfd4"/>
        </linearGradient>
        <linearGradient id="prefix__linear-gradient-15" x1="-2229.998" x2="-2227.157" y1="5.434" y2="5.957" xlink:href="#prefix__linear-gradient-4"/>
        <linearGradient id="prefix__linear-gradient-16" x1="-2094.444" x2="-2091.832" y1="4.921" y2="5.422" xlink:href="#prefix__linear-gradient-4"/>
        <linearGradient id="prefix__linear-gradient-17" x1="-4972.913" x2="-4968.244" y1="6.215" y2="5.117" xlink:href="#prefix__linear-gradient-4"/>
        <linearGradient id="prefix__linear-gradient-18" x1="-6294.8" x2="-6289.01" y1="6.097" y2="4.956" xlink:href="#prefix__linear-gradient-4"/>
        <linearGradient id="prefix__linear-gradient-19" x1=".063" x2="1.134" y1="34.348" y2="34.348" xlink:href="#prefix__linear-gradient-4"/>
        <linearGradient id="prefix__linear-gradient-20" x1="-.088" x2=".917" y1="37.602" y2="37.602" xlink:href="#prefix__linear-gradient-4"/>
        <linearGradient id="prefix__linear-gradient-21" x1=".005" x2="1.015" y1="5.639" y2="5.639" xlink:href="#prefix__linear-gradient-4"/>
        <linearGradient id="prefix__linear-gradient-22" x1="-.031" x2=".986" y1="23.78" y2="23.78" xlink:href="#prefix__linear-gradient-4"/>
        <linearGradient id="prefix__linear-gradient-23" x1=".052" x2=".931" y1="6.134" y2="4.811" xlink:href="#prefix__linear-gradient-4"/>
        <linearGradient id="prefix__linear-gradient-24" x1="-.684" x2="1.149" y1="15.935" y2="11.278" xlink:href="#prefix__linear-gradient-4"/>
        <linearGradient id="prefix__linear-gradient-25" x1=".007" x2="1.005" y1="10.943" y2="10.943" xlink:href="#prefix__linear-gradient-4"/>
        <linearGradient id="prefix__linear-gradient-26" x1=".29" x2="1.046" y1="41.574" y2="39.578" xlink:href="#prefix__linear-gradient-4"/>
        <radialGradient id="prefix__radial-gradient" cx="24.045" cy="150.124" r="4.08" gradientTransform="matrix(1 0 0 -1 0 232.047)" gradientUnits="userSpaceOnUse">
            <stop offset="0" stop-color="#888685"/>
            <stop offset=".99" stop-color="#717177"/>
        </radialGradient>
        <radialGradient id="prefix__radial-gradient-2" cx="24.062" cy="155.118" r="5.066" gradientTransform="matrix(.656 0 0 -.656 .537 198.283)" xlink:href="#prefix__radial-gradient"/>
        <radialGradient id="prefix__radial-gradient-3" cx="70.853" cy="148.104" r=".576" gradientTransform="matrix(1.078 0 0 -1.078 -.036 237.245)" xlink:href="#prefix__linear-gradient-10"/>
        <style>
            .prefix__cls-2{fill:#db8c00}.prefix__cls-5{fill:#e0e0e0}.prefix__cls-8{fill:#198baf}.prefix__cls-9{fill:#114c63}.prefix__cls-10{fill:#77d6e5}.prefix__cls-15{fill:#ff822e}.prefix__cls-19{fill:#42a1b7}.prefix__cls-21{fill:#c6c6c6}.prefix__cls-23{fill:#dadae8}.prefix__cls-24{fill:#84849b}.prefix__cls-25,.prefix__cls-28{fill:#bdbdd1}.prefix__cls-50{opacity:.4}.prefix__cls-28,.prefix__cls-49,.prefix__cls-51{opacity:.3}.prefix__cls-31{fill:#8e8e8e}.prefix__cls-32{fill:#686868}.prefix__cls-94{fill:#fff}.prefix__cls-51{fill:#139da0}.prefix__cls-43{fill:#1e4784}.prefix__cls-49{fill:#e28617}.prefix__cls-50{fill:#406985}.prefix__cls-55{fill:#10203d}.prefix__cls-68{fill:#245084}.prefix__cls-83{fill:#0b162d}.prefix__cls-92{fill:#cc0f0a}.prefix__cls-96{fill:#f9efe1}.prefix__cls-97{fill:#1663a3}.prefix__cls-99{fill:#baab9b}.prefix__cls-104{fill:#cb6e05}
        </style>
    </defs>
    <g id="prefix__Group_1106" data-name="Group 1106" transform="translate(58.431 97.407)">
        <path id="prefix__Path_4041" fill="#b57d00" d="M48.3 90.682l32.91-18.805V66L48.3 84.806z" data-name="Path 4041" transform="translate(-25.633 -52.567)"/>
        <path id="prefix__Path_4042" d="M90.377 71.433L67.71 58 34.8 76.806l22.667 13.432z" class="prefix__cls-2" data-name="Path 4042" transform="translate(-34.8 -58)"/>
        <path id="prefix__Path_4043" fill="#d89000" d="M57.467 88.509v-5.876L34.8 69.2v.84l.5.336v4.7l-.5-.336v.672z" data-name="Path 4043" transform="translate(-34.8 -50.394)"/>
        <path id="prefix__Path_4044" fill="#bc7800" d="M56.76 87.194v-4.7L35.1 69.9v4.7z" data-name="Path 4044" transform="translate(-34.596 -49.919)"/>
        <path id="prefix__Path_4045" d="M56.76 87.094v-4.7L35.1 69.8v4.7z" class="prefix__cls-5" data-name="Path 4045" transform="translate(-34.596 -49.987)"/>
    </g>
    <path id="prefix__Path_4046" d="M50.983 81.841V76.3L48.8 77.643l.168 5.373z" class="prefix__cls-2" data-name="Path 4046" transform="translate(33.138 51.834)"/>
    <path id="prefix__Path_4047" d="M53.015 80.641V75.1L51 76.275v5.541z" class="prefix__cls-2" data-name="Path 4047" transform="translate(34.632 51.019)"/>
    <path id="prefix__Path_4048" d="M55.283 79.273V73.9L53.1 75.075v5.373z" class="prefix__cls-2" data-name="Path 4048" transform="translate(36.058 50.204)"/>
    <path id="prefix__Path_4049" d="M57.315 78.141V72.6L55.3 73.943v5.373z" class="prefix__cls-2" data-name="Path 4049" transform="translate(37.552 49.321)"/>
    <path id="prefix__Path_4050" d="M59.583 76.941l-.168-5.541-2.015 1.175v5.541z" class="prefix__cls-2" data-name="Path 4050" transform="translate(38.978 48.507)"/>
    <path id="prefix__Path_4051" d="M61.683 75.573V70.2L59.5 71.375v5.373z" class="prefix__cls-2" data-name="Path 4051" transform="translate(40.404 47.692)"/>
    <g id="prefix__Group_1107" data-name="Group 1107" transform="translate(61.79 95.224)">
        <path id="prefix__Path_4052" fill="#196e90" d="M49 84.588l29.216-16.622V63.6L49 80.391z" data-name="Path 4052" transform="translate(-28.515 -52.014)"/>
        <path id="prefix__Path_4053" fill="#1fa1bf" d="M86.5 68.286L65.848 56.7 36.8 73.491l20.485 11.585z" data-name="Path 4053" transform="translate(-36.8 -56.7)"/>
        <path id="prefix__Path_4054" d="M57.285 78.286L36.8 66.7v.5l.5.168v3.19l-.5-.168v.5l20.485 11.593z" class="prefix__cls-8" data-name="Path 4054" transform="translate(-36.8 -49.909)"/>
        <path id="prefix__Path_4055" d="M56.577 81.54v-3.19L37.1 67.1v3.19z" class="prefix__cls-9" data-name="Path 4055" transform="translate(-36.596 -49.638)"/>
        <path id="prefix__Path_4056" d="M56.577 81.54v-3.19L37.1 67.1v3.19z" class="prefix__cls-5" data-name="Path 4056" transform="translate(-36.596 -49.638)"/>
    </g>
    <path id="prefix__Path_4057" d="M75.45 66.983V64.8L50.6 79.072v2.183z" class="prefix__cls-8" data-name="Path 4057" transform="translate(34.361 44.025)"/>
    <path id="prefix__Path_4058" d="M36.8 69.036l.5-.336v.5z" class="prefix__cls-9" data-name="Path 4058" transform="translate(24.99 46.673)"/>
    <path id="prefix__Path_4059" d="M71.788 68.071l-4.7 2.687L50.8 61.354l4.869-2.854z" class="prefix__cls-10" data-name="Path 4059" transform="translate(34.497 39.747)"/>
    <path id="prefix__Path_4060" d="M52.906 76.308L43 70.6v-.336L57.776 61.7h.168l9.906 5.709v.336l-14.776 8.563zm4.869-14.272l-14.44 8.4 9.571 5.541 14.44-8.4z" class="prefix__cls-10" data-name="Path 4060" transform="translate(29.2 41.92)"/>
    <path id="prefix__Path_4061" fill="#e04b00" d="M56.4 77.706l19.309-11.25-13.1-7.556L43.3 70.15z" data-name="Path 4061" transform="translate(29.404 40.018)"/>
    <path id="prefix__Path_4062" fill="#ff6700" d="M51.4 77.73l19.309-11.25V60.1L51.4 71.35z" data-name="Path 4062" transform="translate(34.904 40.833)"/>
    <g id="prefix__Group_1108" data-name="Group 1108" transform="translate(73.039 104.795)">
        <path id="prefix__Path_4063" fill="#d1e2e8" d="M43.5 67.605l12.761 7.388v-5.205L43.5 62.4a7.855 7.855 0 0 1 .336 2.854 4.025 4.025 0 0 1-.336 2.351z" data-name="Path 4063" transform="translate(-43.5 -62.4)"/>
    </g>
    <path id="prefix__Path_4064" fill="#e25b00" d="M43.3 62.1v.5l13.1 7.56v5.373l-13.1-7.556v.5l13.6 7.892v-6.38z" data-name="Path 4064" transform="translate(29.404 42.191)"/>
    <path id="prefix__Path_4065" d="M56.9 74.541l19.31-11.249L62.609 55.4 43.3 66.65z" class="prefix__cls-15" data-name="Path 4065" transform="translate(29.404 37.641)"/>
    <path id="prefix__Path_4066" fill="#1ab79c" d="M74.323 62.952L62.066 55.9 44.1 66.31l12.257 7.052z" data-name="Path 4066" transform="translate(29.947 37.981)"/>
    <path id="prefix__Path_4067" d="M71.9 62.545L61.319 56.5 45.2 65.9l10.41 6.045z" class="prefix__cls-15" data-name="Path 4067" transform="translate(30.694 38.388)"/>
    <path id="prefix__Path_4068" fill="#63bace" d="M24.179 106.949L0 93.013V86.8l24.179 13.768z" data-name="Path 4068" transform="translate(0 58.964)"/>
    <path id="prefix__Path_4069" fill="#78cbe6" d="M0 91.689L21.324 79.6 45.5 93.368l-21.321 12.09z" data-name="Path 4069" transform="translate(0 54.075)"/>
    <path id="prefix__Path_4070" d="M14.4 106.27v-6.38L35.724 87.8v.5l-.672.336v4.869l.672-.336v.84z" class="prefix__cls-19" data-name="Path 4070" transform="translate(9.779 59.643)"/>
    <path id="prefix__Path_4071" d="M14.7 104.923v-5.037L34.849 88.3v4.869z" class="prefix__cls-5" data-name="Path 4071" transform="translate(9.982 59.983)"/>
    <path id="prefix__Path_4072" d="M1.1 88.1l20.317 11.586v4.2m-.168 0L1.1 92.3v-4.03zm0-4.03L1.436 88.436v3.526l19.981 11.418v-3.527z" class="prefix__cls-19" data-name="Path 4072" transform="translate(.747 59.847)"/>
    <path id="prefix__Path_4073" fill="#2c8391" d="M27.372 91.136L26.7 90.8v.672z" data-name="Path 4073" transform="translate(18.131 61.68)"/>
    <path id="prefix__Path_4074" d="M56.547 97.215l-17.63 10.242.168-.168a1.273 1.273 0 0 0-.336-.672l-16.287-9.4a14.006 14.006 0 0 1-2.015-1.343 5.7 5.7 0 0 1-1.007-1.007 2.706 2.706 0 0 1-.672-1.175 2.49 2.49 0 0 1-.168-1.175v-1.011c0-.336.168-.5.336-.84a41.874 41.874 0 0 1 2.687-5.541c1.847-3.358 4.2-7.22 6.213-10.41l2.351-3.862.672-1.175.168-.336L48.655 59.1l-.336.336-.672 1.175a32.751 32.751 0 0 0-2.347 3.862c-2.015 3.022-4.366 7.052-6.213 10.41a41.873 41.873 0 0 0-2.687 5.541 1.514 1.514 0 0 0-.168.84c0 .336-.168.672-.168 1.007a2.857 2.857 0 0 0 .168 1.175 2.706 2.706 0 0 0 .672 1.175 4.451 4.451 0 0 0 1.007.84 14 14 0 0 0 2.013 1.339l16.287 9.4a.872.872 0 0 1 .336.672v.343z" class="prefix__cls-21" data-name="Path 4074" transform="translate(12.631 40.154)"/>
    <path id="prefix__Path_4075" fill="url(#prefix__linear-gradient)" d="M53.76 94.76l-8.06-4.7-1.511-.84-4.2-2.351-.168-.168-.672-.336-.5-.336-.336-.336-.168-.168-.168.168h.168a.164.164 0 0 0-.168-.168h-.168l-.168-.168a3.981 3.981 0 0 1-1.511-2.519v-.168a4.609 4.609 0 0 1 .336-2.183.586.586 0 0 1 .168-.336 5.964 5.964 0 0 1 .672-1.511c.5-1.007 1.175-2.183 1.847-3.526 1.847-3.358 4.2-7.22 6.213-10.41a15.486 15.486 0 0 0 .84-1.343l1.511-2.351.672-1.175.336-.336-17.632 10.075a.52.52 0 0 0-.168.336l-.672 1.175-1.511 2.351-1.007 1.175c-1.847 3.022-4.366 7.052-6.213 10.41-.672 1.343-1.343 2.519-1.847 3.526L19 90.059l-.168.336v.168c0 .168 0 .336-.168.336a8.175 8.175 0 0 0-.168 2.015v.168c0 .336.168.5.168.672.168.336.336.5.5.84a4.526 4.526 0 0 0 1.343 1.175c.168.168.168.168.336.168l.336.336.5.336.672.336h.168l4.2 2.351.672.336.168.168 1.847 1.007.336.168 2.183 1.175.672.336.168.168.672.336 2.183 1.175.336.168.5.336 2.519 1.511 17.64-10.08z" data-name="Path 4075" transform="translate(12.563 40.426)"/>
    <path id="prefix__Path_4076" d="M48.466 81.9L30.5 91.642h.168L48.3 81.4z" class="prefix__cls-23" data-name="Path 4076" transform="translate(20.712 55.297)"/>
    <path id="prefix__Path_4077" d="M39.324 103.351c0 .168-.168.336-.336.168L22.7 94.116a22.338 22.338 0 0 1-3.19-2.351c-.672-.5-.336-.336-.672-1.007a8.186 8.186 0 0 1-.5-1.175l-.168-.336c0-.336-.168-.672-.168-1.007a3.278 3.278 0 0 1 .168-1.175 2.386 2.386 0 0 1 .336-1.007c.168-.336.336-.84.5-1.175a16.863 16.863 0 0 1 1.511-3.022c1.175-2.351 2.687-4.869 4.2-7.388 3.022-5.037 6.045-9.571 6.045-9.571h.338a.164.164 0 0 1 .168.168c.168.168.168.336.168.672l-.168.336-.672 1.175-2.519 3.694c-1.847 3.022-4.366 7.052-6.213 10.41a41.872 41.872 0 0 0-2.689 5.543 1.826 1.826 0 0 0-.168.84v1.007a2.857 2.857 0 0 0 .168 1.175 2.706 2.706 0 0 0 .672 1.175l1.007 1.003a14 14 0 0 0 2.015 1.343l16.287 9.4a1.691 1.691 0 0 1 .168.508z" class="prefix__cls-24" data-name="Path 4077" transform="translate(12.223 44.093)"/>
    <path id="prefix__Path_4078" d="M43.834 59.1h-.5L25.7 69.342h.336v.336l17.63-10.41z" class="prefix__cls-25" data-name="Path 4078" transform="translate(17.452 40.154)"/>
    <path id="prefix__Path_4079" fill="url(#prefix__linear-gradient-2)" d="M48.723 59.3l-.336.336-.672 1.175-1.515 2.351c-.336.5-.5.84-.84 1.343-2.01 3.022-4.36 7.052-6.207 10.41-.672 1.343-1.343 2.519-1.847 3.526a10.6 10.6 0 0 0-.672 1.511.586.586 0 0 1-.168.336 5.715 5.715 0 0 0-.336 2.351v.168c-4.869 3.022-13.265 8.4-17.462 11.082a1.01 1.01 0 0 1-.168-.672v-.168a8.175 8.175 0 0 1 .168-2.015c0-.168 0-.336.168-.336v-.168l.164-.335.672-1.511c.5-1.007 1.175-2.183 1.847-3.526 1.847-3.358 4.2-7.22 6.213-10.41l.84-1.343 1.511-2.351.672-1.175a.586.586 0 0 1 .168-.336z" data-name="Path 4079" opacity="0.4" transform="translate(12.563 40.29)"/>
    <path id="prefix__Path_4080" fill="url(#prefix__linear-gradient-3)" d="M31.365 65.74l-.168.336-.672 1.175-2.519 3.694c-1.846 3.022-4.365 7.055-6.212 10.41a41.872 41.872 0 0 0-2.687 5.545 1.826 1.826 0 0 0-.168.84v1.007l-.5.5h-.168c0-.336-.168-.672-.168-1.007a3.278 3.278 0 0 1 .168-1.175 2.387 2.387 0 0 1 .336-1.007c.168-.336.336-.84.5-1.175a16.863 16.863 0 0 1 1.511-3.022c1.175-2.351 2.687-4.869 4.2-7.388 3.022-5.037 6.045-9.571 6.045-9.571h.337a.164.164 0 0 1 .168.168z" data-name="Path 4080" opacity="0.8" transform="translate(12.291 44.093)"/>
    <path id="prefix__Path_4081" d="M50.569 82.4l-17.63 10.076-.5-.336-.336-.168-2.187-1.172-.672-.336-.168-.168-.672-.336-2.183-1.175-.336-.168-1.845-1.01-.168-.168-.672-.339 19.309-9.4z" class="prefix__cls-28" data-name="Path 4081" transform="translate(15.754 52.785)"/>
    <path id="prefix__Path_4082" d="M72.374 27.34H71.2l-.336.168-5.709 3.358L28.55 52.022 5.379 65.454 3.7 64.447l22.835-13.1 36.94-21.321 5.709-3.358.336-.168h1.175z" class="prefix__cls-25" data-name="Path 4082" transform="translate(2.513 18.016)"/>
    <path id="prefix__Path_4083" d="M73.181 82.522a4.563 4.563 0 0 1-2.015 3.526l-10.41 6.045-24.514 13.936-30.559 17.8c-1.175.672-2.015.168-2.015-1.175v-5.709L3.5 68.418a4.031 4.031 0 0 1 2.015-3.358l50.036-28.88L71 27.281a.617.617 0 0 1 .5-.168 1.216 1.216 0 0 1 1.511 1.343l.168 48.357z" class="prefix__cls-23" data-name="Path 4083" transform="translate(2.377 18.411)"/>
    <path id="prefix__Path_4084" d="M6.212 49.7l-.336.168-.336.332-.168.168v.336l-.168.168-.168.168V73.711l-.672 33.581a1.907 1.907 0 0 0 .5 1.343l-1.343-.672-.5-.336a1.392 1.392 0 0 1-.5-1.343V50.707l.168-.168V50.2l.336-.336h.336z" class="prefix__cls-24" data-name="Path 4084" transform="translate(1.68 33.771)"/>
    <path id="prefix__Path_4085" fill="#84849b" d="M5.019 99.74l-1.343-.672-.336-.336a1.392 1.392 0 0 1-.5-1.343L2.5 62.8l1.679 2.351.168 33.249a1.527 1.527 0 0 0 .672 1.34z" data-name="Path 4085" opacity="0.4" transform="translate(1.698 42.667)"/>
    <path id="prefix__Path_4086" fill="#34344c" d="M73.181 76.92L3.668 117.05 3.5 68.525A4.563 4.563 0 0 1 5.515 65L71 27.22c1.175-.672 2.015-.168 2.015 1.175z" data-name="Path 4086" transform="translate(2.377 18.304)"/>
    <path id="prefix__Path_4087" d="M70.351 28.6v45.5L45.837 88.2l-2.687 1.679-1.175.672-.672.336-14.775 8.57-1.343.84-1.175.5v.168l-3.358 1.847-.672.5L4.7 112.05V66.715z" class="prefix__cls-23" data-name="Path 4087" transform="translate(3.192 19.442)"/>
    <path id="prefix__Path_4088" d="M58.26 27L47.514 91.98 23 106.084l19.309-70.017 15.447-8.9c.169.001.336-.167.504-.167z" class="prefix__cls-28" data-name="Path 4088" transform="translate(15.619 18.356)"/>
    <g id="prefix__Group_1109" data-name="Group 1109" transform="translate(37.443 61.979)">
        <path id="prefix__Path_4089" d="M22.5 38.475l2.183-1.175v.168L22.5 38.811z" class="prefix__cls-31" data-name="Path 4089" transform="translate(-22.164 -36.628)"/>
        <path id="prefix__Path_4090" d="M25.154 39.279v1.343l-.336-.168v-1.007l-2.183-1.175v.336l-.336.168V37.6z" class="prefix__cls-32" data-name="Path 4090" transform="translate(-22.3 -36.425)"/>
        <path id="prefix__Path_4091" d="M24 39.075l2.015-1.175v1.175L24 40.419z" class="prefix__cls-31" data-name="Path 4091" transform="translate(-21.146 -36.221)"/>
        <path id="prefix__Path_4092" fill="#a8a8a8" d="M24.315 36.9L22.3 38.075l2.854 1.679 2.015-1.175z" data-name="Path 4092" transform="translate(-22.3 -36.9)"/>
    </g>
    <path id="prefix__Path_4093" d="M23.5 37v1.343c0 .168.168.168.168.336a1.07 1.07 0 0 0 1.007 0c.168 0 .168-.168.168-.336V37z" class="prefix__cls-31" data-name="Path 4093" transform="translate(15.958 25.147)"/>
    <path id="prefix__Path_4094" d="M24.609 36.851q.5.252 0 .5a1.07 1.07 0 0 1-1.007 0q-.5-.252 0-.5.755-.251 1.007 0z" class="prefix__cls-32" data-name="Path 4094" transform="translate(15.856 24.96)"/>
    <path id="prefix__Path_4095" fill="url(#prefix__radial-gradient)" d="M27.941 36.954a2.7 2.7 0 0 1-2.854 2.687 2.6 2.6 0 0 1-2.687-2.854 2.652 2.652 0 0 1 2.687-2.687 2.942 2.942 0 0 1 2.854 2.854z" data-name="Path 4095" transform="translate(15.211 23.177)"/>
    <path id="prefix__Path_4096" fill="url(#prefix__radial-gradient-2)" d="M27.873 36.072a2.8 2.8 0 0 1-2.687 2.854 2.874 2.874 0 0 1-2.686-2.015 3.536 3.536 0 0 0 2.183.84 3.432 3.432 0 0 0 3.19-2.351v.672z" data-name="Path 4096" opacity="0.2" transform="translate(15.279 24.06)"/>
    <path id="prefix__Path_4097" fill="#434351" d="M25.175 38.809l.168-.336a2.87 2.87 0 0 0 1.175-2.183v-.168l.168-.336-.672-.336a.749.749 0 0 0-.84 0A2.87 2.87 0 0 0 24 37.634a1.283 1.283 0 0 0 .336.84z" data-name="Path 4097" transform="translate(16.298 24.009)"/>
    <path id="prefix__Path_4098" fill="#4f4f59" d="M25.675 38.508c-.672.336-1.175 0-1.175-.672a2.87 2.87 0 0 1 1.175-2.183c.672-.336 1.343 0 1.343.672a3.067 3.067 0 0 1-1.343 2.183z" data-name="Path 4098" transform="translate(16.637 24.143)"/>
    <path id="prefix__Path_4099" fill="#3b3b44" d="M25.036 36.607a2.023 2.023 0 0 1 .84-.84.617.617 0 0 1 .5-.168.617.617 0 0 1 .168.5 2.386 2.386 0 0 1-.336 1.007 2.023 2.023 0 0 1-.84.84.315.315 0 0 1-.5 0 .617.617 0 0 1-.168-.5 2.837 2.837 0 0 1 .336-.839z" data-name="Path 4099" transform="translate(16.773 24.196)"/>
    <path id="prefix__Path_4100" fill="#2e2e35" d="M25.236 36.9c-.168.168-.336 0-.336-.168s.168-.5.336-.5c.168-.168.336 0 .336.168s-.172.332-.336.5z" data-name="Path 4100" transform="translate(16.909 24.575)"/>
    <path id="prefix__Path_4101" fill="#fff" d="M24.343 35.272a.722.722 0 0 1-.672.672.672.672 0 1 1 .672-.672z" data-name="Path 4101" opacity="0.1" transform="translate(15.619 23.517)"/>
    <path id="prefix__Path_4102" fill="#98b6be" d="M79.262 90.015c4.533 2.519 4.533 6.716 0 9.4a18.5 18.5 0 0 1-16.287 0c-4.533-2.519-4.533-6.716 0-9.4a17.463 17.463 0 0 1 16.287 0z" data-name="Path 4102" opacity="0.4" transform="translate(40.455 59.779)"/>
    <path id="prefix__Path_4103" fill="#139da0" d="M63.958 66.328a4.9 4.9 0 0 0-.336-1.511c-.84-2.687-3.022-5.373-3.022-9.4a8.438 8.438 0 0 1 1.007-4.03 5.11 5.11 0 0 1 1.343-1.343l6.884-3.862.166-.171 5.037-2.854 1.679-1.007 2.351-1.343c4.033-2.352 7.559 3.693 4.533 12.76-1.007 2.854-1.343 4.366-1.679 5.373a22.037 22.037 0 0 0-.5 2.519 9.366 9.366 0 0 0 .84 6.38 44.373 44.373 0 0 1 2.015 6.716v.504h-.168c-.5 1.175-2.351 3.526-8.563 5.541a20.418 20.418 0 0 1-11.418.672l-1.511-.5-.672-.168v-.336a106.772 106.772 0 0 0 2.014-13.94z" data-name="Path 4103" transform="translate(41.151 27.385)"/>
    <path id="prefix__Path_4104" d="M68 90.74c0 .5 2.015 5.709 2.015 5.709a1.957 1.957 0 0 0 2.854.5c.168 0 .168-.168.336-.336a1.283 1.283 0 0 0 .336-.84 7.423 7.423 0 0 0-.336-3.358 4.657 4.657 0 0 0-3.694-3.694 1.125 1.125 0 0 0-1.343.5A5.18 5.18 0 0 0 68 90.74z" class="prefix__cls-43" data-name="Path 4104" transform="translate(46.176 60.229)"/>
    <path id="prefix__Path_4105" d="M60.7 92.92a1.268 1.268 0 0 0 .672 1.175 18.668 18.668 0 0 0 5.709 3.022c2.351.672 3.022-.336 3.022-.336a1.009 1.009 0 0 0 .168-.672A4.134 4.134 0 0 0 70.1 94.1c-1.007-1.511-4.2-1.679-7.556-2.687A1.526 1.526 0 0 0 60.7 92.92z" class="prefix__cls-43" data-name="Path 4105" transform="translate(41.219 62.079)"/>
    <path id="prefix__Path_4106" fill="url(#prefix__linear-gradient-4)" d="M72.544 90.7a12.709 12.709 0 0 1-.168 2.519 1.881 1.881 0 0 1-2.519.5c-1.175-.5-.84-2.854-.84-2.854a3.581 3.581 0 0 0 2.015.5 3.017 3.017 0 0 0 1.512-.665z" data-name="Path 4106" transform="translate(46.838 61.613)"/>
    <path id="prefix__Path_4107" fill="#dd8d19" d="M61.5 66.609c0 2.519.336 4.869.5 7.052a113.552 113.552 0 0 0 3.022 18.134c1.175 4.869 1.511 20.82 1.511 20.82l.336.168a2.861 2.861 0 0 0 2.351 0l1.007-.5s3.19-12.257 2.687-16.959-2.854-6.548-2.519-8.9 2.351-13.6 2.351-13.6 2.015 17.126 2.015 23.339-.5 15.112-.5 15.112c.168.168.5.336.672.5a3.027 3.027 0 0 0 1.679.336 2.772 2.772 0 0 0 1.679-1.679c.84-3.022 4.03-11.753 3.694-17.294s-2.519-9.067-2.351-10.41c1.007-5.373 2.351-10.746 3.862-16.119A11.1 11.1 0 0 0 84 60.9l-.168.336c-.5 1.175-2.351 3.526-8.563 5.541a21.425 21.425 0 0 1-11.25.672c-.5-.168-1.175-.336-1.679-.5z" data-name="Path 4107" transform="translate(41.763 41.376)"/>
    <path id="prefix__Path_4108" fill="#2d123e" d="M61.5 64.436V64.1z" data-name="Path 4108" transform="translate(41.763 43.549)"/>
    <path id="prefix__Path_4109" fill="url(#prefix__linear-gradient-5)" d="M68.026 91.7l-.5 2.519s-.168.84-1.679.672c-1.175-.168-1.343-.336-1.343-1.175v-1.848a4.259 4.259 0 0 0 2.015.336 2.708 2.708 0 0 0 1.507-.504z" data-name="Path 4109" transform="translate(43.8 62.292)"/>
    <path id="prefix__Path_4110" fill="url(#prefix__linear-gradient-6)" d="M71.488 57.063c-1.679 1.847-6.045 6.213-7.556 6.716a1.525 1.525 0 0 1-1.679 0 50.644 50.644 0 0 1-13.433-10.41c-.336-.5-2.015-2.015-1.847-2.351s.84.672 1.007.5-1.343-1.847-1.175-2.015 1.679 1.511 1.679 1.343-1.679-2.346-1.175-2.346 1.679 2.015 1.847 2.015c0 0-.672-1.847-.336-1.679s1.007 2.519 1.511 2.351 1.511-1.679 1.511-1.007a6.516 6.516 0 0 1-1.007 1.847s9.906 5.709 11.25 6.38l4.533-4.869a14.435 14.435 0 0 0 3.358 3.022 2.052 2.052 0 0 1 1.512.503z" data-name="Path 4110" transform="translate(31.775 32.956)"/>
    <path id="prefix__Path_4111" d="M80.319 64.8c-1.343.336-6.716 1.175-8.227 1.679S68.9 69 64.2 68.326a7.383 7.383 0 0 0 7.22-.168c3.862-2.015 3.022-.672 5.037-1.175a10.977 10.977 0 0 0 3.862-2.183z" class="prefix__cls-49" data-name="Path 4111" transform="translate(43.596 44.025)"/>
    <path id="prefix__Path_4112" d="M68 90.511c0 .5 2.015 5.709 2.015 5.709a1.957 1.957 0 0 0 2.854.5c.168 0 .168-.168.336-.336a1.283 1.283 0 0 0 .336-.84 2.1 2.1 0 0 1-2.854.336 21.5 21.5 0 0 1-1.847-4.03 14.22 14.22 0 0 1-.672-2.85A5.18 5.18 0 0 0 68 90.511z" class="prefix__cls-50" data-name="Path 4112" transform="translate(46.176 60.458)"/>
    <path id="prefix__Path_4113" d="M60.7 92.3a1.268 1.268 0 0 0 .672 1.175A18.668 18.668 0 0 0 67.08 96.5c2.351.672 3.022-.336 3.022-.336a1.01 1.01 0 0 0 .168-.672 2.7 2.7 0 0 1-1.847.84 9.557 9.557 0 0 1-4.869-1.847A18.331 18.331 0 0 1 60.7 92.3z" class="prefix__cls-50" data-name="Path 4113" transform="translate(41.219 62.699)"/>
    <path id="prefix__Path_4114" d="M66.1 108.841l1.007-.5S70.3 96.08 69.8 91.379s-2.854-6.548-2.519-8.9 2.351-13.768 2.351-13.768 2.015 17.127 2.015 23.339-.5 15.112-.5 15.112c.168.168.5.336.672.5.168-1.343.336-3.358.672-6.213.5-6.884 1.007-11.418.336-15.447s-1.511-12.257-2.183-15.28a13.938 13.938 0 0 0-1.016-3.522S65.934 79.289 66.1 82.312s2.687 9.067 2.015 15.783a66.651 66.651 0 0 1-2.015 10.746z" class="prefix__cls-49" data-name="Path 4114" transform="translate(44.884 45.654)"/>
    <path id="prefix__Path_4115" d="M61.5 64.3c0 2.519.336 4.869.5 7.052a113.551 113.551 0 0 0 3.022 18.134c1.175 4.869 1.511 20.82 1.511 20.82l.336.168c.168-4.533.168-8.9 0-13.433-.5-8.4-1.847-10.578-2.854-18.134a79.158 79.158 0 0 1-.168-14.1c-.5-.168-1.175-.336-1.679-.5z" class="prefix__cls-49" data-name="Path 4115" transform="translate(41.763 43.685)"/>
    <path id="prefix__Path_4116" d="M62.043 75.848v.336l.672.168 1.511.5a17.658 17.658 0 0 1 .672-7.22c1.343-4.7 1.679-6.884.336-9.571-1.175-2.519-4.2-8.4-3.526-13.265A7.977 7.977 0 0 0 60.7 50.83c0 4.03 2.183 6.884 3.022 9.4a4.9 4.9 0 0 1 .336 1.511C63.89 64.6 62.379 74 62.043 75.848z" class="prefix__cls-51" data-name="Path 4116" transform="translate(41.219 31.801)"/>
    <path id="prefix__Path_4117" fill="#0f9191" d="M58.5 54.235l.168.336a14.435 14.435 0 0 0 3.358 3.022c.672.336 1.175.672 1.511.84l.336.168a11.791 11.791 0 0 0 4.7-5.205 5.549 5.549 0 0 0 .336-4.869 5.788 5.788 0 0 0-2.009-2.016c-4.034-2.011-8.4 7.724-8.4 7.724z" data-name="Path 4117" transform="translate(39.725 31.419)"/>
    <path id="prefix__Path_4118" d="M60.6 56.667c.672.336 1.175.672 1.511.84l.336.168a11.791 11.791 0 0 0 4.7-5.205 5.549 5.549 0 0 0 .336-4.869 14.419 14.419 0 0 1-6.883 9.066z" class="prefix__cls-51" data-name="Path 4118" transform="translate(41.151 32.345)"/>
    <path id="prefix__Path_4119" fill="url(#prefix__linear-gradient-7)" d="M67.9 42.011a29.723 29.723 0 0 1-.168 3.862.164.164 0 0 0 .168-.168l5.037-2.854V41a4.9 4.9 0 0 1-1.511.336 3.619 3.619 0 0 1-2.854-.84 4.687 4.687 0 0 1-4.869.84 3.841 3.841 0 0 0 4.197.675z" data-name="Path 4119" opacity="0.3" transform="translate(43.257 27.523)"/>
    <path id="prefix__Path_4120" fill="url(#prefix__linear-gradient-8)" d="M71.419 56.045c-1.679 1.847-6.045 6.213-7.556 6.716a1.525 1.525 0 0 1-1.679 0 50.644 50.644 0 0 1-13.433-10.41c-.336-.5-2.015-2.015-1.847-2.351 2.351 2.351 4.869 4.7 7.388 6.884 3.022 2.519 7.556 5.877 9.4 5.037a19.865 19.865 0 0 0 6.213-6.716 6.041 6.041 0 0 1 1.514.84z" data-name="Path 4120" opacity="0.3" transform="translate(31.843 33.974)"/>
    <path id="prefix__Path_4121" d="M51.578 58.787S49.731 63.993 50.235 65s4.366 2.854 7.556 4.533 5.037-.336 6.38-1.343 5.037-5.205 5.373-4.869 1.511.5.84 4.869-5.205 39.122-5.037 43.152c0 0 9.739 2.351 15.447 1.007a39.683 39.683 0 0 0 16.623-9.235c.336-.672-4.366-19.813-5.541-27.537C90.869 69.2 87.51 65.168 90.2 57.444s2.183-13.6-.168-15.951-4.03-.84-6.548.672-6.716 4.2-9.067 5.541-4.2 1.847-5.877 4.03-4.7 6.548-6.045 8.563-2.687 3.526-3.19 3.19z" class="prefix__cls-55" data-name="Path 4121" transform="translate(34.054 27.37)"/>
    <path id="prefix__Path_4122" fill="#4f2a1a" d="M63.5 37.269v.336a28.474 28.474 0 0 0 .672 3.694 10.861 10.861 0 0 0 .336 1.679 5.1 5.1 0 0 1 .84-1.175c.5-.336.84-.168 1.007.336a11.54 11.54 0 0 0 1.007 2.183 4.193 4.193 0 0 0 4.2 2.351 4.9 4.9 0 0 0 1.511-.336c.168 0 .336-.168.5-.336l2.015-5.037c.168-.84.336-1.847.5-2.687a5.986 5.986 0 0 0-6.04-5.877h-.168c-3.862.168-5.541 1.847-6.045 3.526-.167.504-.167 1.007-.335 1.343z" data-name="Path 4122" transform="translate(43.121 22.023)"/>
    <path id="prefix__Path_4123" fill="url(#prefix__linear-gradient-9)" d="M63.563 44.339l.5 1.007a4.187 4.187 0 0 0 4.2.672 29.723 29.723 0 0 1-.163 3.862.164.164 0 0 0 .168-.168l5.032-2.855V45.01a4.9 4.9 0 0 1-1.511.336 3.619 3.619 0 0 1-2.854-.84A10.863 10.863 0 0 1 67.592 43c-1.175-2.015-1.175-4.366-3.022-1.511 0 0-.5-3.358-.84-5.373v-.336a2.857 2.857 0 0 1 .17-1.18c-.672 1.343-.168 2.854-.5 3.862a13.805 13.805 0 0 0 .163 5.877z" data-name="Path 4123" transform="translate(42.89 23.517)"/>
    <path id="prefix__Path_4124" fill="#421d11" d="M68.054 39.279c-1.007-.168-1.847-.336-2.854-.5.336.5.5 1.343 1.007 2.183a4.193 4.193 0 0 0 4.2 2.351 4.9 4.9 0 0 0 1.511-.336c.168 0 .336-.168.5-.336l2.017-5.041c-1.008 1.175-2.855 2.015-6.381 1.679z" data-name="Path 4124" opacity="0.2" transform="translate(44.275 25.554)"/>
    <path id="prefix__Path_4125" fill="#15af91" d="M69.791 40.352a1.33 1.33 0 0 1-.168-1.847l.168-.168c.84-.84 1.847 0 1.679 1.175a1.11 1.11 0 0 1-1.175 1.007.617.617 0 0 0-.504-.167z" data-name="Path 4125" transform="translate(47.072 25.824)"/>
    <path id="prefix__Path_4126" fill="#421d11" d="M70.875 52.019a1.351 1.351 0 0 1 .5 1.847l.5-.336c.84-.5 2.351-1.679 2.519-3.022.168-1.847-1.847-2.687-1.007-4.7s2.015-4.869 1.175-6.548a2.628 2.628 0 0 0-3.022-1.007 1.234 1.234 0 0 0-.672 1.343s.84-.5 1.343.168-1.343 2.519-3.526 6.045 1.183 5.371 2.19 6.21z" data-name="Path 4126" transform="translate(46.156 25.91)"/>
    <path id="prefix__Path_4127" fill="#421d11" d="M70.817 51.672a1.351 1.351 0 0 1 .5 1.847l.5-.336c.672-2.183-1.343-3.358-1.847-5.877-.664-2.686 3.03-5.206 2.862-7.388-.168-1.679-1.175-1.343-1.847-1.007v.336s.84-.5 1.343.168-1.343 2.519-3.526 6.045 1.008 5.372 2.015 6.212z" data-name="Path 4127" opacity="0.1" transform="translate(46.214 26.258)"/>
    <path id="prefix__Path_4128" fill="#09172b" d="M75.05 35.119a3.3 3.3 0 0 0-1.511-1.511 8.563 8.563 0 0 0-8.06 0 3.3 3.3 0 0 0-1.511 1.511H63.8v.84a3.032 3.032 0 0 0 1.679 2.351 8.563 8.563 0 0 0 8.06 0 2.792 2.792 0 0 0 1.679-2.351v-.84z" data-name="Path 4128" transform="translate(43.324 22.159)"/>
    <path id="prefix__Path_4129" d="M73.522 33.057c2.183 1.343 2.183 3.358 0 4.7a8.563 8.563 0 0 1-8.06 0c-2.183-1.343-2.183-3.358 0-4.7a9.652 9.652 0 0 1 8.06 0z" class="prefix__cls-55" data-name="Path 4129" transform="translate(43.341 21.87)"/>
    <path id="prefix__Path_4130" d="M75.218 37.433H63.8V36.09l.336-3.694a2.553 2.553 0 0 1 1.679-2.183 5.964 5.964 0 0 1 1.511-.672 8.03 8.03 0 0 1 6.213.672l.336.168a3.342 3.342 0 0 1 1.343 2.019l.168 3.19.168 1.679z" class="prefix__cls-55" data-name="Path 4130" transform="translate(43.324 19.844)"/>
    <path id="prefix__Path_4131" fill="#2e2e42" d="M75.05 35.445l-.5.336-.5.336-1.85 1.175c-1.511.84-2.854 1.679-2.854 1.679s-1.679-.84-3.19-1.679l-1.343-.84-.672-.336-.336-.168.336-3.694a2.553 2.553 0 0 1 1.679-2.183 5.964 5.964 0 0 1 1.511-.672l6.548.84a3.342 3.342 0 0 1 1.343 2.015z" data-name="Path 4131" opacity="0.23" transform="translate(43.324 19.986)"/>
    <path id="prefix__Path_4132" fill="#323247" d="M71.409 35.051c.168 0 .168.168.168.336l-.168.168a1.07 1.07 0 0 1-1.007 0q-.5-.252 0-.5a1.057 1.057 0 0 1 1.007-.004z" data-name="Path 4132" transform="translate(47.636 23.737)"/>
    <path id="prefix__Path_4133" fill="url(#prefix__linear-gradient-10)" d="M71.643 35.575c0-.336-.168-.84-.168-1.175h-1.007a2.857 2.857 0 0 0-.168 1.175v2.015c0 .168 0 .168.168.336a.75.75 0 0 0 .84 0c.168 0 .168-.168.168-.336s.167-1.511.167-2.015z" data-name="Path 4133" transform="translate(47.738 23.381)"/>
    <path id="prefix__Path_4134" fill="#ffda7d" d="M71.223 34.351c.168.168.168.336 0 .336a.511.511 0 0 1-.672 0c-.168-.168-.168-.336 0-.336.168-.168.336-.168.672 0z" data-name="Path 4134" transform="translate(47.823 23.262)"/>
    <path id="prefix__Path_4135" fill="url(#prefix__radial-gradient-3)" d="M71.24 34.362c0 .336-.168.5-.336.5-.336 0-.5-.168-.5-.336v-.168c0-.336.336-.5.5-.336a.361.361 0 0 1 .336.34z" data-name="Path 4135" transform="translate(47.806 23.083)"/>
    <g id="prefix__Group_1110" data-name="Group 1110" transform="translate(102.255 45.02)">
        <path id="prefix__Path_4136" d="M82.056 33.013l-10.578 6.044L60.9 33.013 71.31 26.8z" class="prefix__cls-68" data-name="Path 4136" transform="translate(-60.9 -26.8)"/>
    </g>
    <path id="prefix__Path_4137" d="M60.9 30.84V30l.5.5z" class="prefix__cls-68" data-name="Path 4137" transform="translate(41.355 20.393)"/>
    <path id="prefix__Path_4138" fill="#65657c" d="M73.772 30.84V30l-.672.5z" data-name="Path 4138" transform="translate(49.64 20.393)"/>
    <g id="prefix__Group_1111" data-name="Group 1111" transform="translate(102.255 44.348)">
        <path id="prefix__Path_4139" fill="#152e51" d="M82.056 32.445l-10.578 6.212L60.9 32.445 71.31 26.4z" data-name="Path 4139" transform="translate(-60.9 -26.4)"/>
    </g>
    <path id="prefix__Path_4140" fill="#0a1b33" d="M67.2 36.213v.672l10.578-6.045V30z" data-name="Path 4140" transform="translate(45.633 20.393)"/>
    <path id="prefix__Path_4141" fill="#f2b725" d="M72.705 37.084l-.168-3.862-5.037-2.854V30.2h.168l5.037 3.022v3.862z" data-name="Path 4141" transform="translate(45.837 20.529)"/>
    <path id="prefix__Path_4142" d="M69.187 30.506c0-.336-.168-.5-.336-.5a2.141 2.141 0 0 0-2.015 0c-.168.168-.336.168-.336.336v.168a.872.872 0 0 0 .336.672 2.141 2.141 0 0 0 2.015 0c.168-.341.336-.509.336-.676z" class="prefix__cls-55" data-name="Path 4142" transform="translate(45.158 20.223)"/>
    <path id="prefix__Path_4143" fill="#204572" d="M68.877 29.8a.646.646 0 0 1 0 1.175 2.141 2.141 0 0 1-2.015 0 .613.613 0 0 1-.336-.84.361.361 0 0 1 .336-.336 2.141 2.141 0 0 1 2.015.001z" data-name="Path 4143" transform="translate(45.131 20.087)"/>
    <path id="prefix__Path_4144" fill="#284cb2" d="M6.268 60.608L6.1 77.9l25.018-14.606V46z" data-name="Path 4144" transform="translate(4.142 31.258)"/>
    <path id="prefix__Path_4145" fill="#3333bc" d="M24 60.44l.168 17.294 25.018-14.272L49.018 46z" data-name="Path 4145" transform="translate(16.298 31.258)"/>
    <path id="prefix__Path_4146" fill="#3f3faa" d="M24 52.531v5.709l15.112-8.563-.168-5.877z" data-name="Path 4146" transform="translate(16.298 29.764)"/>
    <path id="prefix__Path_4147" fill="#e5ca48" d="M34.5 39.966l7.724-4.366-.168 14.272-7.556 4.366z" data-name="Path 4147" transform="translate(23.428 24.196)"/>
    <path id="prefix__Path_4148" fill="url(#prefix__linear-gradient-11)" d="M24.6 62.258L49.618 112.8 50.29.3 26.279 59.739S24.6 59.4 24.6 62.258z" data-name="Path 4148" opacity="0.6" transform="translate(16.705 .225)"/>
    <path id="prefix__Path_4149" fill="url(#prefix__linear-gradient-12)" d="M55.513 16.479c-1.847 3.19-4.03 6.38-6.213 9.4-1.511 1.343-4.03 2.687-5.037-1.847a5.718 5.718 0 0 1 .5-5.205l.5-.5s.5 3.862 1.511 3.694S52.658 16.143 54 14.8l.84 1.175z" data-name="Path 4149" transform="translate(29.784 10.071)"/>
    <path id="prefix__Path_4150" fill="url(#prefix__linear-gradient-13)" d="M55.513 16.072c-1.847 3.19-4.03 6.38-6.213 9.4-1.511 1.343-4.03 2.687-5.037-1.847a5.718 5.718 0 0 1 .5-5.205c0 3.022.168 4.7 1.679 5.709s4.03-1.007 5.373-3.022a37.125 37.125 0 0 0 3.026-5.707z" data-name="Path 4150" opacity="0.3" transform="translate(29.784 10.479)"/>
    <path id="prefix__Path_4151" fill="url(#prefix__linear-gradient-14)" d="M43.525 21.966c1.511 1.847 3.358 2.015 5.541 2.854a31.728 31.728 0 0 0 6.885 1.68l.672-.5c-1.679-.336-4.366-1.511-8.06-2.519-3.526-1.007-5.037-3.19-4.533-5.877a8.971 8.971 0 0 0-.505 4.362z" data-name="Path 4151" opacity="0.5" transform="translate(29.514 11.973)"/>
    <path id="prefix__Path_4152" fill="#ad1212" d="M37.253 24.039c2.015 2.351 2.854 3.862 1.679 6.716s-3.19 8.227-3.19 11.921v.84c-.672 11.418 1.847 30.727 1.847 30.727l3.19-1.847L53.2 65.513c3.358-14.944 2.351-27.873 1.679-30.391a25.969 25.969 0 0 0-3.19-6.045 5.574 5.574 0 0 1-.84-2.687 4.966 4.966 0 0 1 1.007-3.358c1.679-1.511 1.679-3.526.672-6.045-1.847-4.7-5.205-10.242-8.9-8.563-3.862 1.679-8.731 4.533-9.906 5.709s-.5 5.541 2.015 8.731z" data-name="Path 4152" transform="translate(22.522 5.533)"/>
    <path id="prefix__Path_4154" d="M37.4 46.768c.168 0 .168 0 .336-.168z" class="prefix__cls-21" data-name="Path 4154" transform="translate(25.397 31.666)"/>
    <path id="prefix__Path_4156" d="M46.363 56.3c1.343 1.007 4.7 3.862 4.366 4.869s-3.022 1.511-4.869 0A15.31 15.31 0 0 0 42 58.318c-1.007-.336-.84-1.679-.336-2.351a3.775 3.775 0 0 1 4.699.333z" class="prefix__cls-83" data-name="Path 4156" transform="translate(28.019 37.578)"/>
    <path id="prefix__Path_4157" d="M39.527 58.768a9.14 9.14 0 0 0 1.847 3.022c.672.672 3.022 2.854 1.007 4.03S36.5 63.3 36 61.454s-.168-2.519.336-2.854a19.279 19.279 0 0 1 3.191.168z" class="prefix__cls-83" data-name="Path 4157" transform="translate(24.278 39.814)"/>
    <path id="prefix__Path_4158" fill="url(#prefix__linear-gradient-15)" d="M41.621 64.8a5.151 5.151 0 0 0 2.687 2.687c1.343.672 2.854 1.007 3.19.168 0-.168.168-.336.168-.5 0-1.343-2.519-3.022-2.519-3.022C45.651 57.412 47.5 45.322 48 42.3l-4.03 2.183-1.845 1.007c-.168.168-1.343 16.959-.504 19.31z" data-name="Path 4158" transform="translate(28.06 28.746)"/>
    <path id="prefix__Path_4159" fill="url(#prefix__linear-gradient-16)" d="M36.192 68.571a1.451 1.451 0 0 0 .5 1.007c1.007 1.343 3.358 2.519 3.862 2.183s-1.007-4.03-1.007-4.03c.672-8.9 3.022-22.332 3.022-22.332L37.7 48.087l-1.679.84c-1.172 5.036-.165 18.473.171 19.644z" data-name="Path 4159" transform="translate(24.086 30.851)"/>
    <path id="prefix__Path_4160" fill="#e92440" d="M36.854 68.347l3.19-1.847c-.336-2.519-.84-6.213-1.679-11.25-1.679-10.75-2.015-15.95-.336-20.15s1.007-9.571 2.183-10.578 4.869-4.7 7.388-4.533a12.961 12.961 0 0 1 2.519.336 4.965 4.965 0 0 1 1.007-3.358 4.927 4.927 0 0 1-2.687.672 6.366 6.366 0 0 0-4.533 2.351 4.869 4.869 0 0 1-6.548-1.511 7.017 7.017 0 0 1-.672-1.679l-.672 1.343c2.015 2.351 2.854 3.862 1.679 6.716S34.5 33.087 34.5 36.781v.84c-.165 11.417 2.354 30.726 2.354 30.726z" data-name="Path 4160" opacity="0.3" transform="translate(23.425 11.429)"/>
    <path id="prefix__Path_4161" fill="url(#prefix__linear-gradient-17)" d="M41.622 63.849a5.151 5.151 0 0 0 2.687 2.687 12.679 12.679 0 0 1-1.847-2.351c-1.007-1.679-.672-5.373-.336-9.571A59.089 59.089 0 0 1 43.805 43.7l-1.847 1.007s-1.175 16.793-.336 19.142z" data-name="Path 4161" opacity="0.3" transform="translate(28.059 29.696)"/>
    <path id="prefix__Path_4162" fill="url(#prefix__linear-gradient-18)" d="M36.175 67.485a1.451 1.451 0 0 0 .5 1.007 57.067 57.067 0 0 1-.5-13.1A28.7 28.7 0 0 1 37.854 47l-1.679.84c-1.344 5.037-.336 18.469 0 19.645z" data-name="Path 4162" opacity="0.3" transform="translate(24.104 31.937)"/>
    <path id="prefix__Path_4163" fill="url(#prefix__linear-gradient-19)" d="M51.657 14.8c.5 0 .672 3.358 0 3.358s-.336-3.358 0-3.358z" data-name="Path 4163" transform="translate(34.815 10.071)"/>
    <path id="prefix__Path_4164" fill="url(#prefix__linear-gradient-20)" d="M52.279 15.2c.5.168.672 2.854 0 3.022s-.504-3.187 0-3.022z" data-name="Path 4164" transform="translate(35.2 10.34)"/>
    <path id="prefix__Path_4165" fill="#f2e6d1" d="M57.433 32.194L44 39.918V22.624L57.433 14.9z" data-name="Path 4165" transform="translate(29.879 10.139)"/>
    <path id="prefix__Path_4166" d="M56.657 31.619L44.4 38.671V22.552L56.657 15.5zM44.4 38.5l12.089-7.052v-15.78L44.4 22.72z" class="prefix__cls-92" data-name="Path 4166" transform="translate(30.151 10.547)"/>
    <path id="prefix__Path_4167" fill="#a5190f" d="M48.807 18.672c0 .336 0 .5-.168.672s-.168.336-.336.5h-.336a.586.586 0 0 1-.168-.336v-.84L48.975 18c-.168.168-.168.336-.168.672z" data-name="Path 4167" transform="translate(32.459 12.244)"/>
    <path id="prefix__Path_4168" d="M48.1 18.2v1.343z" class="prefix__cls-94" data-name="Path 4168" transform="translate(32.663 12.38)"/>
    <path id="prefix__Path_4169" d="M48.875 18.4l-1.175.84v-.168z" class="prefix__cls-94" data-name="Path 4169" transform="translate(32.391 12.516)"/>
    <path id="prefix__Path_4171" d="M55.31 28.974L44.9 34.851V24.777L55.31 18.9z" class="prefix__cls-96" data-name="Path 4171" transform="translate(30.49 12.855)"/>
    <path id="prefix__Path_4172" d="M48 25.568l-.5 1.679.336-.336v.336l.5-1.847z" class="prefix__cls-97" data-name="Path 4172" transform="translate(32.256 17.269)"/>
    <path id="prefix__Path_4173" d="M48.5 25.2l.336 1.175h-.168l-.168.336-.5-1.175z" class="prefix__cls-97" data-name="Path 4173" transform="translate(32.595 17.133)"/>
    <path id="prefix__Path_4174" d="M49.179 25.176a1.263 1.263 0 0 1-.84 1.175c-.336.168-.84.168-.84-.336a1.263 1.263 0 0 1 .84-1.175c.504-.167.84-.167.84.336z" class="prefix__cls-92" data-name="Path 4174" transform="translate(32.256 16.821)"/>
    <path id="prefix__Path_4175" fill="#e22020" d="M48.707 25.242a.923.923 0 0 1-.5.84c-.336.168-.5 0-.5-.168a.923.923 0 0 1 .5-.84c.333-.336.5-.168.5.168z" data-name="Path 4175" transform="translate(32.391 16.924)"/>
    <path id="prefix__Path_4176" d="M54.3 20.4l-8.9 5.205v-.168z" class="prefix__cls-99" data-name="Path 4176" transform="translate(30.83 13.874)"/>
    <path id="prefix__Path_4177" d="M54.3 20.7l-8.9 5.205v-.168z" class="prefix__cls-99" data-name="Path 4177" transform="translate(30.83 14.078)"/>
    <path id="prefix__Path_4178" d="M54.3 21.068l-8.9 5.037 8.9-5.205z" class="prefix__cls-99" data-name="Path 4178" transform="translate(30.83 14.213)"/>
    <path id="prefix__Path_4179" d="M54.3 21.368l-8.9 5.037v-.168l8.9-5.037z" class="prefix__cls-99" data-name="Path 4179" transform="translate(30.83 14.417)"/>
    <path id="prefix__Path_4180" d="M44.068 22.624L57.5 14.9h-.168L43.9 22.624z" class="prefix__cls-96" data-name="Path 4180" transform="translate(29.811 10.139)"/>
    <path id="prefix__Path_4181" fill="url(#prefix__linear-gradient-21)" d="M53.085 23.706a1.434 1.434 0 0 0-2.183 0 54.655 54.655 0 0 1-7.388 2.519c-3.862 1.007-3.862-.672-3.862-.672-.5-4.7.5-15.951-4.2-14.608l-.336.168a1.273 1.273 0 0 0-.672.336c-2.183 1.847-1.679 12.929 1.175 18.806.5.84 2.015 2.854 6.38 1.175l1.007-.336a28.109 28.109 0 0 0 7.394-3.862l1.007.84c1.007.84 1.007-.168.336-.84.336.336.84.84 1.175.84s-.168-1.007-1.175-2.183l1.007 1.175c.5.5.672 1.007 1.007.672s-.336-1.175-.672-1.847c.336.5.672 1.007.84.84s.503-1.512-.84-3.023z" data-name="Path 4181" transform="translate(22.473 7.378)"/>
    <path id="prefix__Path_4182" fill="url(#prefix__linear-gradient-22)" d="M54.374 18.9c.672 0 .336-2.854-.672-4.03a2.149 2.149 0 0 0-3.022-.5l-.336.336c-.84.672 0 2.015.5 2.351s1.007 1.007 1.511.672-1.007-1.343-.5-1.679a.907.907 0 0 1 1.343.336c.169.663.672 2.343 1.176 2.514z" data-name="Path 4182" transform="translate(33.945 9.501)"/>
    <path id="prefix__Path_4183" fill="url(#prefix__linear-gradient-23)" d="M50.814 26.851a23.538 23.538 0 0 1-7.556 4.03l-1.175.336c-4.533 1.679-5.877-.168-6.38-1.175-2.687-5.709-3.358-16.959-1.175-18.806a.872.872 0 0 1 .672-.336 27.239 27.239 0 0 0-.5 10.41c.84 6.045 2.015 8.4 3.19 9.235s12.924-3.694 12.924-3.694z" data-name="Path 4183" opacity="0.3" transform="translate(22.561 7.423)"/>
    <path id="prefix__Path_4184" fill="url(#prefix__linear-gradient-24)" d="M47.677 5.53a4.053 4.053 0 0 0-3.862-4.03c-3.19 0-4.869 4.2-4.869 6.213 0 0-.84-.84-1.679-.5H37.1c-.672.672.168 2.351 1.007 3.022q.5.756 1.007.5a2.318 2.318 0 0 1 .5.672 6.247 6.247 0 0 0 4.7 2.183 3.615 3.615 0 0 0 1.847-.336c1.348-1.008 1.852-4.702 1.516-7.724z" data-name="Path 4184" transform="translate(25.027 1.04)"/>
    <path id="prefix__Path_4185" d="M38.9 8.394a1.094 1.094 0 0 1-1.511.336 2.409 2.409 0 0 1-1.679-2.687l.5-1.007a1.417 1.417 0 0 1 1.179-.336q.252.756.5.5c-.668.675.172 2.354 1.011 3.194z" class="prefix__cls-104" data-name="Path 4185" transform="translate(24.232 3.213)"/>
    <path id="prefix__Path_4186" d="M47.92 7.564v-.84a4.053 4.053 0 0 0-3.862-4.03 4.883 4.883 0 0 0-4.2 3.358 7.91 7.91 0 0 0-.672 2.854s-.84-.84-1.679-.5h-.168q-.252.252-.5-.5a7.048 7.048 0 0 1 .84-6.045l.5-.5c2.521-2.528 6.383-1.185 8.734.998s1.847 4.702 1.007 5.205z" class="prefix__cls-104" data-name="Path 4186" transform="translate(24.783 .012)"/>
    <path id="prefix__Path_4188" fill="url(#prefix__linear-gradient-25)" d="M44.954 19.725L41.932 16.7a27.4 27.4 0 0 1-2.854-3.358C38.406 12.337 37.9 11.5 37.9 11.5a1.525 1.525 0 0 1 0-1.679A16.946 16.946 0 0 0 39.077 7.3a6.247 6.247 0 0 0 4.7 2.183l.336 1.175.168 1.007a26.216 26.216 0 0 1 .673 8.06z" data-name="Path 4188" transform="translate(25.567 4.978)"/>
    <path id="prefix__Path_4189" fill="url(#prefix__linear-gradient-26)" d="M43.437 10.658c-2.854.5-4.2-1.679-5.037-3.358a6.247 6.247 0 0 0 4.7 2.183z" data-name="Path 4189" opacity="0.3" transform="translate(26.076 4.978)"/>
    <path id="prefix__Path_4190" fill="#cb6e05" d="M37.85 7.648c-.672.672.168 2.351 1.007 3.022a1.094 1.094 0 0 1-1.511.336 2.156 2.156 0 0 1-1.511-2.686c.168-.336.168-.672.5-.84a1.417 1.417 0 0 1 1.175-.336 7.048 7.048 0 0 1 .84-6.045 4.724 4.724 0 0 0 2.183 4.03 7.91 7.91 0 0 0-.672 2.854s-.84-.84-1.679-.5z" data-name="Path 4190" opacity="0.1" transform="translate(24.276 .768)"/>
</svg>
