<svg xmlns="http://www.w3.org/2000/svg" xmlns:xlink="http://www.w3.org/1999/xlink" id="prefix__Asset_42" data-name="Asset 42" viewBox="0 0 147.781 156.713">
    <defs>
        <linearGradient id="prefix__linear-gradient" x1="-1677.076" x2="-1676.075" y1=".5" y2=".5" gradientUnits="objectBoundingBox">
            <stop offset="0" stop-color="#f96d02"/>
            <stop offset="1" stop-color="#ec8018"/>
        </linearGradient>
        <linearGradient id="prefix__linear-gradient-2" x1="-1674.167" x2="-1673.166" y1=".5" y2=".5" xlink:href="#prefix__linear-gradient"/>
        <linearGradient id="prefix__linear-gradient-3" x1="1.246" x2=".385" y1=".268" y2=".9" gradientUnits="objectBoundingBox">
            <stop offset="0" stop-color="#f97102"/>
            <stop offset="1" stop-color="#ec8018"/>
        </linearGradient>
        <linearGradient id="prefix__linear-gradient-4" x1=".375" x2=".536" y1=".897" y2=".013" gradientUnits="objectBoundingBox">
            <stop offset="0" stop-color="#0f387a"/>
            <stop offset="1" stop-color="#0f3baa"/>
        </linearGradient>
        <linearGradient id="prefix__linear-gradient-5" x1="-.35" x2="1.759" y1=".501" y2=".501" gradientUnits="objectBoundingBox">
            <stop offset=".01" stop-color="#dba292"/>
            <stop offset=".99" stop-color="#df807a"/>
        </linearGradient>
        <linearGradient id="prefix__linear-gradient-6" x1="-2.344" x2=".998" y1=".505" y2=".505" xlink:href="#prefix__linear-gradient-5"/>
        <linearGradient id="prefix__linear-gradient-7" x1="-.337" x2="1.971" y1=".503" y2=".503" xlink:href="#prefix__linear-gradient-5"/>
        <linearGradient id="prefix__linear-gradient-8" x1=".413" x2="2.042" y1="-.029" y2="10.56" gradientUnits="objectBoundingBox">
            <stop offset=".01" stop-color="#f97602"/>
            <stop offset="1" stop-color="#ec8018"/>
        </linearGradient>
        <linearGradient id="prefix__linear-gradient-9" x1="-.007" x2="1" y1=".5" y2=".5" xlink:href="#prefix__linear-gradient-8"/>
        <linearGradient id="prefix__linear-gradient-10" x1=".395" x2="1.266" y1=".328" y2="1.286" xlink:href="#prefix__linear-gradient-3"/>
        <linearGradient id="prefix__linear-gradient-11" x1="-.011" x2=".989" y1=".499" y2=".499" xlink:href="#prefix__linear-gradient-5"/>
        <linearGradient id="prefix__linear-gradient-12" x1="0" x2="1" y1=".5" y2=".5" xlink:href="#prefix__linear-gradient-8"/>
        <linearGradient id="prefix__linear-gradient-13" x1="-.011" x2=".987" y1=".502" y2=".502" xlink:href="#prefix__linear-gradient-8"/>
        <linearGradient id="prefix__linear-gradient-14" x1="0" x2="1" y1=".501" y2=".501" xlink:href="#prefix__linear-gradient-8"/>
        <linearGradient id="prefix__linear-gradient-15" x1="0" x2="1" y1=".497" y2=".497" xlink:href="#prefix__linear-gradient-8"/>
        <linearGradient id="prefix__linear-gradient-16" x1=".549" x2=".5" y1=".06" y2=".925" xlink:href="#prefix__linear-gradient-4"/>
        <linearGradient id="prefix__linear-gradient-17" x1=".582" x2=".438" y1=".062" y2=".926" xlink:href="#prefix__linear-gradient-4"/>
        <style>
            .prefix__cls-2{fill:#84849b}.prefix__cls-6{fill:#ededf2}.prefix__cls-7{fill:#2a2a3a}.prefix__cls-8{fill:#121217}.prefix__cls-14{fill:#e6f7ff}.prefix__cls-19{fill:#e9f8ff}.prefix__cls-21{fill:#7c1419}.prefix__cls-22{fill:#b31d24}.prefix__cls-23{fill:#c82029}.prefix__cls-24{fill:#a8dae2}.prefix__cls-26{fill:#fb9c1c}.prefix__cls-29{fill:#1b326c}
        </style>
    </defs>
    <g id="prefix__Layer_2" data-name="Layer 2">
        <g id="prefix__Layer_1" data-name="Layer 1">
            <path id="prefix__Path_865" fill="#22222d" d="M120.645 50.5a2.776 2.776 0 0 1 1.283 2.214l-.193 64.509c0 .808-.562 1.142-1.283.738L33.943 68a2.794 2.794 0 0 1-1.283-2.214l.176-64.509c0-.808.58-1.142 1.283-.738z" data-name="Path 865" transform="translate(24.729 .106)"/>
            <path id="prefix__Path_866" d="M122.795 52.2V51.919l-.492-1.037v-.193L34.986.1h-.9L33 .662h.65l.25.123 86.491 49.923.264.176.228.211.211.246.193.281.158.3.105.316a1.985 1.985 0 0 1 .105.633l-.193 64.509a1.248 1.248 0 0 1 0 .264v.228l-.105.158a.475.475 0 0 1-.141.123l1.125-.668a.369.369 0 0 0 .141-.105v-.18l.193-64.509z" class="prefix__cls-2" data-name="Path 866" transform="translate(24.987 -.1)"/>
            <path id="prefix__Path_867" fill="#4e4e68" d="M115.516 105.316L35.21 59.047V4.59l80.306 46.251z" data-name="Path 867" transform="translate(26.66 3.3)"/>
            <path id="prefix__Path_868" fill="#dadae8" d="M145.393 90.34l-55.775 32.4a2.724 2.724 0 0 1-2.548 0L.544 72.8a.773.773 0 0 1 0-1.476l55.775-32.4a2.776 2.776 0 0 1 2.548 0l11.422 6.607 63.155 36.428 11.949 6.906a.773.773 0 0 1 0 1.476z" data-name="Path 868" transform="translate(-.001 29.065)"/>
            <path id="prefix__Path_869" d="M145.843 75.381a1.627 1.627 0 0 1 0 .176l-.141.158h-.123a.316.316 0 0 1-.123 0l-55.845 32.632-.351.158h-1.792l-.264-.123L.537 58.388a.914.914 0 0 1-.527-.738v4.762a.914.914 0 0 0 .527.738l86.509 49.959.264.123h1.863l.351-.158 55.845-32.386h.123l.105-.123v-4.973a.755.755 0 0 1 .246-.211z" class="prefix__cls-2" data-name="Path 869" transform="translate(.006 43.48)"/>
            <path id="prefix__Path_870" fill="#373747" d="M95.792 70.608a.967.967 0 0 1-.334.791L62.317 90.535c-.176.105-.316 0-.316-.422a1 1 0 0 1 .316-.791l33.071-19.136c.193-.105.334 0 .334.422z" data-name="Path 870" transform="translate(46.946 52.944)"/>
            <path id="prefix__Path_871" d="M94.232 107.418a4.129 4.129 0 0 1-3.76.105l-77.6-44.792c-.984-.562-.879-1.529.211-2.161l31.876-18.416a4.182 4.182 0 0 1 3.8-.123l77.6 44.81c.984.562.9 1.529-.211 2.161z" class="prefix__cls-6" data-name="Path 871" transform="translate(9.232 31.352)"/>
            <g id="prefix__Group_236" data-name="Group 236" transform="translate(52.504 74.895)">
                <path id="prefix__Path_872" d="M39.807 46.041c.6.351.6.914 0 1.248l-2.038 1.195a2.355 2.355 0 0 1-2.161 0l-5.272-3.058c-.6-.351-.615-.9 0-1.248l2.056-1.195a2.32 2.32 0 0 1 2.144 0z" class="prefix__cls-7" data-name="Path 872" transform="translate(-29.879 -42.721)"/>
                <path id="prefix__Path_873" d="M40.23 45.938v.141l-.123.141H39.9l-2.13 1.37-.3.123h-1.545l-.316-.123-5.272-3.058a.791.791 0 0 1-.457-.633v.826a.756.756 0 0 0 .439.633l5.272 3.058.228.105h1.511l.316-.141 2.038-1.195h.123l.105-.088v-1.264a.51.51 0 0 1 .316.105z" class="prefix__cls-8" data-name="Path 873" transform="translate(-29.88 -41.828)"/>
            </g>
            <g id="prefix__Group_237" data-name="Group 237" transform="translate(125.298 116.91)">
                <path id="prefix__Path_874" d="M78.185 68.212c.51.281.51.756 0 1.054l-2.355 1.371a2 2 0 0 1-1.757 0L71.7 69.266c-.527-.3-.527-.773 0-1.054l2.372-1.388a2.091 2.091 0 0 1 1.757 0z" class="prefix__cls-7" data-name="Path 874" transform="translate(-71.305 -66.63)"/>
                <path id="prefix__Path_875" d="M78.525 67.948a.37.37 0 0 1 0 .105l-.105.105h-.105l-2.355 1.371-.264.123h-1.283l-.141.211-.193-.105-2.372-1.371a.615.615 0 0 1-.387-.527v.826a.65.65 0 0 0 .387.527l2.39 1.371.176.088h1.353l.246-.123 2.372-1.371h.088v-.9a.422.422 0 0 1 .193-.334z" class="prefix__cls-8" data-name="Path 875" transform="translate(-71.294 -65.698)"/>
            </g>
            <g id="prefix__Group_238" data-name="Group 238" transform="translate(47.051 78.008)">
                <path id="prefix__Path_876" d="M33.723 46.035a.562.562 0 0 1 0 1.072l-2.355 1.371a2 2 0 0 1-1.845 0l-2.355-1.336a.562.562 0 0 1 0-1.072l2.373-1.37a1.968 1.968 0 0 1 1.757 0z" class="prefix__cls-7" data-name="Path 876" transform="translate(-26.777 -44.492)"/>
                <path id="prefix__Path_877" d="M34.188 45.68a.334.334 0 0 1 0 .123v.123l-.105.123h-.088L31.64 47.42a.826.826 0 0 1-.264.105h-1.212l-.193-.088-2.812-1.195a.685.685 0 0 1-.369-.545v.826a.65.65 0 0 0 .369.545l2.39 1.371.176.088h1.353a.615.615 0 0 0 .246-.105l2.376-1.371a.211.211 0 0 0 .088 0V46.1z" class="prefix__cls-8" data-name="Path 877" transform="translate(-26.767 -43.593)"/>
            </g>
            <g id="prefix__Group_239" data-name="Group 239" transform="translate(41.618 81.234)">
                <path id="prefix__Path_878" d="M33.6 49.653a.65.65 0 0 1 0 1.23l-2.038 1.195a2.355 2.355 0 0 1-2.161 0l-5.268-3.058c-.6-.334-.6-.9 0-1.248l2.056-1.195a2.425 2.425 0 0 1 2.144 0z" class="prefix__cls-7" data-name="Path 878" transform="translate(-23.685 -46.328)"/>
                <path id="prefix__Path_879" d="M33.967 49.448a.51.51 0 0 1 0 .158v.141a.474.474 0 0 1-.123.141h-.211l-2.038 1.195a1.758 1.758 0 0 1-.316.141h-1.53l-.228-.123-5.272-3.058a.756.756 0 0 1-.439-.633v1.037a.756.756 0 0 0 .439.633l5.272 3.058a.545.545 0 0 0 .228.105h1.423l.3-.141 2.056-1.177h.193l.105-.105v-.984z" class="prefix__cls-8" data-name="Path 879" transform="translate(-23.59 -45.508)"/>
            </g>
            <g id="prefix__Group_240" data-name="Group 240" transform="translate(116.721 118.189)">
                <path id="prefix__Path_880" d="M76.363 70.665c.6.351.6.914 0 1.248l-2.038 1.195a2.355 2.355 0 0 1-2.161 0l-5.273-3.058a.65.65 0 0 1 0-1.248l2.056-1.195a2.425 2.425 0 0 1 2.144 0z" class="prefix__cls-7" data-name="Path 880" transform="translate(-66.424 -67.358)"/>
                <path id="prefix__Path_881" d="M76.669 70.478a.492.492 0 0 1 0 .158.387.387 0 0 1 0 .141l-.123.123h-.123l-2.038 1.2-.3.141h-1.546a.545.545 0 0 1-.228-.105l-5.272-3.058a.756.756 0 0 1-.439-.633v.984a.72.72 0 0 0 .439.633l5.272 3.058a.6.6 0 0 0 .211.105h1.335l.3-.141 2.055-1.184h.105V70.478z" class="prefix__cls-8" data-name="Path 881" transform="translate(-66.291 -66.538)"/>
            </g>
            <g id="prefix__Group_241" data-name="Group 241" transform="translate(36.223 84.349)">
                <path id="prefix__Path_882" d="M31.571 52a.65.65 0 0 1 0 1.23l-2.056 1.195a2.372 2.372 0 0 1-2.144 0l-6.308-3.655c-.6-.334-.6-.9 0-1.248l1.986-1.16a2.32 2.32 0 0 1 2.144 0z" class="prefix__cls-7" data-name="Path 882" transform="translate(-20.615 -48.101)"/>
                <path id="prefix__Path_883" d="M31.969 51.73a.492.492 0 0 1 0 .158.387.387 0 0 1-.088.141l-.105.123-.158.158-2.056 1.19-.3.141h-1.616l-.228-.105-6.308-3.655a.738.738 0 0 1-.439-.615v.834a.738.738 0 0 0 .439.615l6.308 3.655.211.105h1.581a.932.932 0 0 0 .3-.141l2.056-1.195a.109.109 0 0 0 .105-.088l.088-.105v-.931z" class="prefix__cls-8" data-name="Path 883" transform="translate(-20.573 -47.215)"/>
            </g>
            <g id="prefix__Group_242" data-name="Group 242" transform="translate(30.539 87.611)">
                <path id="prefix__Path_884" d="M26 52.458c.6.351.633.879 0 1.212l-2.179 1.265a2.372 2.372 0 0 1-2.091 0l-3.9-2.249c-.58-.351-.615-.9 0-1.213l2.179-1.265a2.3 2.3 0 0 1 2.091 0z" class="prefix__cls-7" data-name="Path 884" transform="translate(-17.376 -49.957)"/>
                <path id="prefix__Path_885" d="M26.482 52.227a.545.545 0 0 1 0 .141.439.439 0 0 1 0 .123.3.3 0 0 1-.105.105.176.176 0 0 1-.088 0H26.2l-2.179 1.265-.281.123h-1.282l-.474.141-.246-.105-3.9-2.249a.826.826 0 0 1-.457-.65v.826a.773.773 0 0 0 .457.65l3.9 2.249.228.105h1.564l.281-.123 2.179-1.265a.176.176 0 0 0 .088 0l.088-.088v-.966z" class="prefix__cls-8" data-name="Path 885" transform="translate(-17.38 -49.076)"/>
            </g>
            <g id="prefix__Group_243" data-name="Group 243" transform="translate(110.079 123.341)">
                <path id="prefix__Path_886" fill="#121218" d="M65.417 71.977a.615.615 0 0 1-.387-.527v.826a.633.633 0 0 0 .369.527h.141v-.826z" data-name="Path 886" transform="translate(-60.838 -69.411)"/>
                <path id="prefix__Path_887" d="M74.036 71.53v.123l-.105.105h-.088l-6.537 3.813-.984.562-.3.123h-1.527l-.228-.105-1.037-.6a.756.756 0 0 1-.439-.633v.949a.791.791 0 0 0 .457.633l1.037.6.211.105h1.476l.3-.123.984-.562 6.444-3.777V71.829a.422.422 0 0 1 .334-.3z" class="prefix__cls-8" data-name="Path 887" transform="translate(-62.534 -69.351)"/>
                <path id="prefix__Path_888" d="M73.813 71.8c.51.281.51.756 0 1.054l-6.537 3.813-.984.562a2.425 2.425 0 0 1-2.144 0l-1.037-.6a.65.65 0 0 1 0-1.248l1.019-.6.211-.105 3.022-1.757h-.123c-.527-.3-.527-.773 0-1.054l2.372-1.388a2.091 2.091 0 0 1 1.757 0z" class="prefix__cls-7" data-name="Path 888" transform="translate(-62.644 -70.29)"/>
            </g>
            <g id="prefix__Group_244" data-name="Group 244" transform="translate(96.995 125.836)">
                <path id="prefix__Path_889" d="M68.521 77.07c.51.281.51.756 0 1.054l-2.355 1.371a2 2 0 0 1-1.757 0l-1.142-.65-1.23-.72-4.165-2.39-1.757-1.072-.527-.316c-.51-.281-.527-.756 0-1.054L57.96 71.9a2.091 2.091 0 0 1 1.757 0l.545.316 1.757 1.072 4.112 2.443 1.248.72z" class="prefix__cls-7" data-name="Path 889" transform="translate(-55.199 -71.71)"/>
                <path id="prefix__Path_890" d="M68.906 76.829a.281.281 0 0 1 0 .123l-.105.105h-.088l-2.355 1.371-.264.123h-1.317l-.193-.105-1.142-.65-1.23-.72-4.34-2.249-1.757-1.072-.527-.316a.615.615 0 0 1-.387-.527v.826a.615.615 0 0 0 .387.527l.527.316 1.757 1.072 4.006 2.39 1.248.72 1.142.65H65.8a1.072 1.072 0 0 0 .246-.123l2.372-1.371h.105v-.989a.387.387 0 0 1 .387-.105z" class="prefix__cls-8" data-name="Path 890" transform="translate(-55.198 -70.801)"/>
            </g>
            <g id="prefix__Group_245" data-name="Group 245" transform="translate(41.301 100.252)">
                <path id="prefix__Path_891" d="M31.808 59.5c.6.351.6.914 0 1.248l-2.056 1.195a2.32 2.32 0 0 1-2.144 0l-3.637-2.091a.65.65 0 0 1 0-1.248l2.056-1.195a2.32 2.32 0 0 1 2.144 0z" class="prefix__cls-7" data-name="Path 891" transform="translate(-23.504 -57.151)"/>
                <path id="prefix__Path_892" d="M32.213 59.2a.492.492 0 0 1 0 .158v.142a.474.474 0 0 1-.123.141h-.105a.176.176 0 0 1-.088 0l-2.056 1.195-.3.141h-1.317l-.369.246a.545.545 0 0 1-.228-.105l-3.637-2.091a.72.72 0 0 1-.439-.633v.826a.791.791 0 0 0 .457.633l3.637 2.091.211.105h1.582l.3-.141 2.056-1.195h.176V59.704z" class="prefix__cls-8" data-name="Path 892" transform="translate(-23.47 -56.212)"/>
            </g>
            <g id="prefix__Group_246" data-name="Group 246" transform="translate(48.445 104.399)">
                <path id="prefix__Path_893" d="M55.888 73.427a.668.668 0 0 1 0 1.248l-2.056 1.195a2.46 2.46 0 0 1-2.161 0L28.053 62.216c-.6-.351-.6-.914 0-1.248l2-1.195a2.355 2.355 0 0 1 2.161 0z" class="prefix__cls-7" data-name="Path 893" transform="translate(-27.544 -59.511)"/>
                <path id="prefix__Path_894" d="M56.336 73.325a.351.351 0 0 1 0 .141.81.81 0 0 1-.123.123h-.105l-2.056 1.195-.3.123h-1.528L52 74.8l-8.944-5.166-.668-.035-14.361-8.276a.791.791 0 0 1-.457-.633v.826a.791.791 0 0 0 .457.633l14.357 8.277.351.193 8.944 5.166.228.123h1.582l.316-.123 2.038-1.195h.105l.105-.105v-.826a.51.51 0 0 1 .283-.334z" class="prefix__cls-8" data-name="Path 894" transform="translate(-27.57 -58.617)"/>
            </g>
            <g id="prefix__Group_247" data-name="Group 247" transform="translate(75.691 120.139)">
                <path id="prefix__Path_895" d="M51.36 70.791c.6.334.6.9 0 1.248l-2.06 1.195a2.425 2.425 0 0 1-2.144 0l-3.633-2.074c-.6-.334-.6-.9 0-1.248l2.056-1.195a2.425 2.425 0 0 1 2.144 0z" class="prefix__cls-7" data-name="Path 895" transform="translate(-43.075 -68.468)"/>
                <path id="prefix__Path_896" d="M51.726 70.677a1.036 1.036 0 0 1 0 .141l-.123.123h-.211l-2.056 1.195-.3.123h-1.51l-.228-.105-3.778-1.88a.756.756 0 0 1-.439-.633v.844a.759.759 0 0 0 .439.615l3.637 2.109.211.105h1.582l.3-.123 2.109-1.16.123-.088.105-.105v-.968a.387.387 0 0 1 .141-.193z" class="prefix__cls-8" data-name="Path 896" transform="translate(-43.071 -67.58)"/>
            </g>
            <g id="prefix__Group_248" data-name="Group 248" transform="translate(120.085 113.838)">
                <path id="prefix__Path_897" d="M75.212 66.513a.562.562 0 0 1 0 1.072l-2.355 1.371a2.074 2.074 0 0 1-1.757 0l-2.372-1.371c-.51-.3-.527-.773 0-1.072l2.267-1.423a1.968 1.968 0 0 1 1.757 0z" class="prefix__cls-7" data-name="Path 897" transform="translate(-68.339 -64.882)"/>
                <path id="prefix__Path_898" d="M75.464 66.273a.438.438 0 0 1 0 .123l-.105.123L73 67.89l-.26.11h-1.511l-2.372-1.371a.668.668 0 0 1-.387-.545v.826a.685.685 0 0 0 .369.545l2.39 1.371h1.529l.264-.105 2.355-1.371h.088v-.9a.334.334 0 0 1-.001-.177z" class="prefix__cls-8" data-name="Path 898" transform="translate(-68.239 -63.975)"/>
            </g>
            <g id="prefix__Group_249" data-name="Group 249" transform="translate(114.68 110.802)">
                <path id="prefix__Path_899" d="M72.164 64.728a.562.562 0 0 1 0 1.054l-2.372 1.371a1.968 1.968 0 0 1-1.757 0l-2.39-1.371c-.51-.281-.51-.756 0-1.054L68 63.357a2 2 0 0 1 1.757 0z" class="prefix__cls-7" data-name="Path 899" transform="translate(-65.262 -63.154)"/>
                <path id="prefix__Path_900" d="M72.459 64.551v.123a.3.3 0 0 1-.105.105.176.176 0 0 1-.088 0l-2.372 1.371-.246.123H68.33l-.193-.105-2.39-1.368a.65.65 0 0 1-.387-.527v.827a.615.615 0 0 0 .387.527l2.372 1.388h.193l-.07.3h1.248l.246-.105 2.372-1.388a.176.176 0 0 0 .088 0v-.9a.387.387 0 0 1 .264-.369z" class="prefix__cls-8" data-name="Path 900" transform="translate(-65.189 -62.31)"/>
            </g>
            <g id="prefix__Group_250" data-name="Group 250" transform="translate(109.316 107.685)">
                <path id="prefix__Path_901" d="M69.1 62.961a.562.562 0 0 1 0 1.072L66.749 65.4a2 2 0 0 1-1.757 0l-2.372-1.371a.562.562 0 0 1 0-1.072l2.372-1.371a2.126 2.126 0 0 1 1.845 0z" class="prefix__cls-7" data-name="Path 901" transform="translate(-62.197 -61.38)"/>
                <path id="prefix__Path_902" d="M69.467 62.784a.263.263 0 0 1 0 .123l-.105.123-2.355 1.37-.264.123H65.18l-.211-.105-2.369-1.371a.615.615 0 0 1-.387-.527v.826a.615.615 0 0 0 .387.527l2.372 1.371h1.476l.264-.123 2.355-1.371h.088v-1.09a.422.422 0 0 1 .316.123z" class="prefix__cls-8" data-name="Path 902" transform="translate(-62.21 -60.517)"/>
            </g>
            <g id="prefix__Group_251" data-name="Group 251" transform="translate(103.95 104.595)">
                <path id="prefix__Path_903" d="M66.068 61.2a.562.562 0 0 1 0 1.072l-2.368 1.37a1.968 1.968 0 0 1-1.757 0l-2.39-1.371a.562.562 0 0 1 0-1.072l2.372-1.371a1.968 1.968 0 0 1 1.757 0z" class="prefix__cls-7" data-name="Path 903" transform="translate(-59.157 -59.622)"/>
                <path id="prefix__Path_904" d="M66.38 60.93a.439.439 0 0 1 0 .123l-.088.123h-.105l-2.372 1.371a1.038 1.038 0 0 1-.246.105h-.931l-.281.211h-.177l-.193-.088L59.6 61.4a.7.7 0 0 1-.387-.545v.826a.7.7 0 0 0 .387.545l2.39 1.371h1.529a1.037 1.037 0 0 0 .246-.105l2.372-1.371h.105a.176.176 0 0 0 0-.088v-.949a.3.3 0 0 1 .141-.158z" class="prefix__cls-8" data-name="Path 904" transform="translate(-59.117 -58.685)"/>
            </g>
            <g id="prefix__Group_252" data-name="Group 252" transform="translate(98.544 101.542)">
                <path id="prefix__Path_905" d="M62.966 59.423a.562.562 0 0 1 0 1.054l-2.372 1.371a2 2 0 0 1-1.757 0l-2.372-1.371c-.51-.281-.51-.756 0-1.054l2.335-1.336a2 2 0 0 1 1.757 0z" class="prefix__cls-7" data-name="Path 905" transform="translate(-56.078 -57.885)"/>
                <path id="prefix__Path_906" d="M63.39 59.261v.123a.3.3 0 0 1-.105.105.176.176 0 0 1-.088 0l-2.372 1.371a.914.914 0 0 1-.264.123H59.05l-.211-.105-2.372-1.371a.615.615 0 0 1-.387-.527v.826a.615.615 0 0 0 .387.527l2.372 1.388.193.088h1.353l.264-.105 2.32-1.23a.176.176 0 0 0 .088 0V59.56a.387.387 0 0 1 .334-.3z" class="prefix__cls-8" data-name="Path 906" transform="translate(-56.08 -57.055)"/>
            </g>
            <g id="prefix__Group_253" data-name="Group 253" transform="translate(93.287 98.423)">
                <path id="prefix__Path_907" d="M59.962 57.674a.562.562 0 0 1 0 1.072l-2.355 1.371a2 2 0 0 1-1.757 0l-2.372-1.371c-.51-.3-.527-.773 0-1.072L55.85 56.3a2.091 2.091 0 0 1 1.757 0z" class="prefix__cls-7" data-name="Path 907" transform="translate(-53.089 -56.11)"/>
                <path id="prefix__Path_908" d="M60.27 57.5v.123l-.105.123h-.088l-2.355 1.371-.264.123h-1.406l-.193-.105-2.372-1.371a.633.633 0 0 1-.387-.545v.843a.633.633 0 0 0 .369.527l2.39 1.371h1.529l.264-.123 2.3-1.125h.088v-.949a.422.422 0 0 1 .228-.264z" class="prefix__cls-8" data-name="Path 908" transform="translate(-53.08 -55.269)"/>
            </g>
            <g id="prefix__Group_254" data-name="Group 254" transform="translate(87.837 95.304)">
                <path id="prefix__Path_909" d="M56.9 55.908a.562.562 0 0 1 0 1.072l-2.372 1.371a1.968 1.968 0 0 1-1.757 0l-2.39-1.371a.562.562 0 0 1 0-1.072l2.355-1.371a2 2 0 0 1 1.757 0z" class="prefix__cls-7" data-name="Path 909" transform="translate(-49.987 -54.334)"/>
                <path id="prefix__Path_910" d="M57.2 55.731a.44.44 0 0 1 0 .123l-.105.123H57l-2.372 1.371a1.037 1.037 0 0 1-.246.105H53.05l-.193-.088-2.39-1.371a.7.7 0 0 1-.387-.545v.966a.668.668 0 0 0 .387.545l2.372 1.371H54.4a1.037 1.037 0 0 0 .246-.105l2.372-1.371h.088a.158.158 0 0 0 0-.088v-.826a.3.3 0 0 1 .088-.211z" class="prefix__cls-8" data-name="Path 910" transform="translate(-49.916 -53.49)"/>
            </g>
            <g id="prefix__Group_255" data-name="Group 255" transform="translate(82.505 92.207)">
                <path id="prefix__Path_911" d="M53.854 54.15a.562.562 0 0 1 0 1.054l-2.372 1.388a2.091 2.091 0 0 1-1.757 0l-2.39-1.392c-.51-.281-.51-.756 0-1.054l2.372-1.371a1.968 1.968 0 0 1 1.757 0z" class="prefix__cls-7" data-name="Path 911" transform="translate(-46.953 -52.572)"/>
                <path id="prefix__Path_912" d="M54.154 53.918v.123l-.141.141h-.105l-2.372 1.388-.246.105h-1.511l-2.39-1.388a.6.6 0 0 1-.369-.527v.826a.65.65 0 0 0 .387.527L49.8 56.5l.176.088h1.353l.246-.105 2.369-1.383h.088v-1.037a.387.387 0 0 1 .122-.145z" class="prefix__cls-8" data-name="Path 912" transform="translate(-46.901 -51.673)"/>
            </g>
            <g id="prefix__Group_256" data-name="Group 256" transform="translate(77.123 89.102)">
                <path id="prefix__Path_913" d="M50.794 52.395c.51.281.51.756 0 1.054l-2.372 1.371a1.968 1.968 0 0 1-1.757 0l-2.39-1.371c-.51-.3-.51-.773 0-1.054l2.372-1.388a2.021 2.021 0 0 1 1.757 0z" class="prefix__cls-7" data-name="Path 913" transform="translate(-43.888 -50.806)"/>
                <path id="prefix__Path_914" d="M51.112 52.211a.281.281 0 0 1 0 .123l-.105.105H50.9l-2.371 1.371-.246.123H46.86l-.193-.105-2.39-1.371a.65.65 0 0 1-.387-.527v.826a.65.65 0 0 0 .387.527l2.39 1.371H48.2a1.072 1.072 0 0 0 .246-.123l2.372-1.371h.082v-1.107a.387.387 0 0 1 .212.158z" class="prefix__cls-8" data-name="Path 914" transform="translate(-43.89 -49.954)"/>
            </g>
            <g id="prefix__Group_257" data-name="Group 257" transform="translate(71.652 86.008)">
                <path id="prefix__Path_915" d="M47.776 50.618a.562.562 0 0 1 0 1.072L45.4 53.061a2 2 0 0 1-1.845 0l-2.39-1.371a.562.562 0 0 1 0-1.072l2.355-1.371a2 2 0 0 1 1.757 0z" class="prefix__cls-7" data-name="Path 915" transform="translate(-40.777 -49.044)"/>
                <path id="prefix__Path_916" d="M48.2 50.381a.369.369 0 0 1 0 .123.334.334 0 0 1-.105.123L45.718 52a.6.6 0 0 1-.264.105h-1.318l-.211-.088-2.759-1.23a.668.668 0 0 1-.387-.545v.826a.668.668 0 0 0 .387.51l2.372 1.371.193.088h1.353a.6.6 0 0 0 .264-.105l2.425-1.353a.158.158 0 0 0 0-.088v-.826a2.932 2.932 0 0 1 .427-.284z" class="prefix__cls-8" data-name="Path 916" transform="translate(-40.774 -48.139)"/>
            </g>
            <g id="prefix__Group_258" data-name="Group 258" transform="translate(66.384 82.911)">
                <path id="prefix__Path_917" d="M44.687 48.86a.562.562 0 0 1 0 1.072L42.332 51.3a2.126 2.126 0 0 1-1.757 0l-2.407-1.371c-.51-.3-.527-.773 0-1.072l2.372-1.371a1.968 1.968 0 0 1 1.757 0z" class="prefix__cls-7" data-name="Path 917" transform="translate(-37.779 -47.282)"/>
                <path id="prefix__Path_918" d="M45.037 48.621v.123l-.105.105h-.088l-2.355 1.371-.264.105h-1.51l-2.548-1.3a.668.668 0 0 1-.387-.545v.914a.668.668 0 0 0 .387.545l2.372 1.371.176.088h1.353l.264-.105 2.355-1.371h.088v-.988a.422.422 0 0 1 .262-.313z" class="prefix__cls-8" data-name="Path 918" transform="translate(-37.778 -46.375)"/>
            </g>
            <g id="prefix__Group_259" data-name="Group 259" transform="translate(60.956 79.782)">
                <path id="prefix__Path_919" d="M41.647 47.115a.562.562 0 0 1 0 1.054l-2.373 1.371a1.968 1.968 0 0 1-1.757 0l-2.443-1.406c-.51-.3-.51-.773 0-1.054l2.355-1.388a2.126 2.126 0 0 1 1.757 0z" class="prefix__cls-7" data-name="Path 919" transform="translate(-34.688 -45.502)"/>
                <path id="prefix__Path_920" d="M42.018 46.876V47l-.088.105h-.105l-2.372 1.371a1.072 1.072 0 0 1-.246.123h-1.372a.3.3 0 0 1-.176 0l-.193-.105-2.39-1.265a.65.65 0 0 1-.387-.527v.826a.65.65 0 0 0 .387.527l2.372 1.371.193.105H39l.246-.123 2.372-1.371V47a.387.387 0 0 1 .4-.123z" class="prefix__cls-8" data-name="Path 920" transform="translate(-34.69 -44.595)"/>
            </g>
            <g id="prefix__Group_260" data-name="Group 260" transform="translate(109.034 120.199)">
                <path id="prefix__Path_921" d="M68.989 70.08a.562.562 0 0 1 0 1.054l-2.372 1.371a1.968 1.968 0 0 1-1.757 0l-2.425-1.371c-.51-.3-.51-.773 0-1.054l2.355-1.388a2.126 2.126 0 0 1 1.757 0z" class="prefix__cls-7" data-name="Path 921" transform="translate(-62.048 -68.502)"/>
                <path id="prefix__Path_922" d="M69.378 69.841V70.069h-.105L66.9 71.44a1.072 1.072 0 0 1-.246.123H65.09l-.193-.105-2.46-1.23a.65.65 0 0 1-.387-.527v.826a.65.65 0 0 0 .387.527l2.39 1.371.176.105h1.371a1.071 1.071 0 0 0 .246-.123l2.372-1.353v-1.037a.387.387 0 0 1 .386-.176z" class="prefix__cls-8" data-name="Path 922" transform="translate(-62.05 -67.595)"/>
            </g>
            <g id="prefix__Group_261" data-name="Group 261" transform="translate(103.757 117.066)">
                <path id="prefix__Path_923" d="M65.993 68.32a.562.562 0 0 1 0 1.072l-2.425 1.336a2 2 0 0 1-1.757 0l-2.372-1.371a.562.562 0 0 1 0-1.072l2.355-1.371a2.074 2.074 0 0 1 1.757 0z" class="prefix__cls-7" data-name="Path 923" transform="translate(-59.047 -66.719)"/>
                <path id="prefix__Path_924" d="M66.267 68.015a.264.264 0 0 1 0 .123.334.334 0 0 1-.105.123h-.088l-2.53 1.511a.914.914 0 0 1-.264.123h-1.441l-2.372-1.371a.668.668 0 0 1-.387-.545v.826a.633.633 0 0 0 .387.545l2.372 1.371.193.088h1.353l.264-.123 2.32-1.423h.088v-.843z" class="prefix__cls-8" data-name="Path 924" transform="translate(-59.022 -65.764)"/>
            </g>
            <g id="prefix__Group_262" data-name="Group 262" transform="translate(98.394 113.997)">
                <path id="prefix__Path_925" d="M62.875 66.55a.562.562 0 0 1 0 1.072l-2.355 1.37a2.074 2.074 0 0 1-1.757 0l-2.373-1.37c-.527-.3-.527-.773 0-1.072l2.372-1.371a1.968 1.968 0 0 1 1.757 0z" class="prefix__cls-7" data-name="Path 925" transform="translate(-55.995 -64.972)"/>
                <path id="prefix__Path_926" d="M63.169 66.333a.439.439 0 0 1 0 .123l-.105.123h-.105L60.6 67.95a1.651 1.651 0 0 1-.264.105h-1.507l-2.372-1.371a.668.668 0 0 1-.387-.545v.826a.679.679 0 0 0 .369.545l2.39 1.371h1.546l.264-.105 2.179-1.125.088-.088v-.9a.334.334 0 0 1 .264-.334z" class="prefix__cls-8" data-name="Path 926" transform="translate(-55.938 -64.088)"/>
            </g>
            <g id="prefix__Group_263" data-name="Group 263" transform="translate(93.028 110.908)">
                <path id="prefix__Path_927" d="M59.81 64.788a.562.562 0 0 1 0 1.054l-2.372 1.371a2 2 0 0 1-1.757 0l-2.372-1.371a.562.562 0 0 1 0-1.054l2.355-1.371a2 2 0 0 1 1.757 0z" class="prefix__cls-7" data-name="Path 927" transform="translate(-52.941 -63.215)"/>
                <path id="prefix__Path_928" d="M60.127 64.611v.123a.3.3 0 0 1-.105.105.176.176 0 0 1-.088 0l-2.373 1.371a1.071 1.071 0 0 1-.246.123H55.98a1.177 1.177 0 0 1-.211-.105L53.4 64.857a.615.615 0 0 1-.387-.527v.826a.615.615 0 0 0 .387.527l2.372 1.371.193.105h1.371a1.071 1.071 0 0 0 .246-.123l2.372-1.371a.176.176 0 0 0 .088 0v-.825a.387.387 0 0 1 .085-.229z" class="prefix__cls-8" data-name="Path 928" transform="translate(-52.889 -62.37)"/>
            </g>
            <g id="prefix__Group_264" data-name="Group 264" transform="translate(87.576 107.872)">
                <path id="prefix__Path_929" d="M56.8 62.986a.562.562 0 0 1 0 1.072l-2.355 1.371a2 2 0 0 1-1.845 0l-2.372-1.283c-.51-.3-.527-.773 0-1.072L52.6 61.7a2.074 2.074 0 0 1 1.845 0z" class="prefix__cls-7" data-name="Path 929" transform="translate(-49.839 -61.487)"/>
                <path id="prefix__Path_930" d="M57.15 62.735v.123l-.105.123h-.088L54.6 64.352l-.264.123H53l-.193-.088-2.583-1.16a.65.65 0 0 1-.387-.527v.808a.633.633 0 0 0 .387.545l2.376 1.371h1.546l.264-.123 2.355-1.371.387-.176v-.826a.334.334 0 0 1 0-.193z" class="prefix__cls-8" data-name="Path 930" transform="translate(-49.838 -60.568)"/>
            </g>
            <g id="prefix__Group_265" data-name="Group 265" transform="translate(82.196 104.701)">
                <path id="prefix__Path_931" d="M53.759 61.26a.562.562 0 0 1 0 1.072l-2.372 1.423a2.021 2.021 0 0 1-1.757 0l-2.46-1.423a.562.562 0 0 1 0-1.072l2.372-1.371a1.968 1.968 0 0 1 1.757 0z" class="prefix__cls-7" data-name="Path 931" transform="translate(-46.777 -59.682)"/>
                <path id="prefix__Path_932" d="M54.2 61.091a.439.439 0 0 1 0 .123l-.105.123h-.105l-2.6 1.511-.246.105H49.82l-.264-.105-2.39-1.423a.7.7 0 0 1-.387-.545v.826a.7.7 0 0 0 .387.545l2.39 1.371.176.088h1.353l.246-.105 2.369-1.372h.088v-.949a.3.3 0 0 1 .4-.193z" class="prefix__cls-8" data-name="Path 932" transform="translate(-46.774 -58.775)"/>
            </g>
            <g id="prefix__Group_266" data-name="Group 266" transform="translate(76.93 101.52)">
                <path id="prefix__Path_933" d="M50.649 59.538a.562.562 0 0 1 0 1.054l-2.355 1.388a2.126 2.126 0 0 1-1.845 0l-2.284-1.388c-.51-.281-.51-.756 0-1.054l2.267-1.438a2 2 0 0 1 1.845 0z" class="prefix__cls-7" data-name="Path 933" transform="translate(-43.778 -57.872)"/>
                <path id="prefix__Path_934" d="M51.02 59.261v.123l-.105.105h-.088l-2.355 1.388-.264.105h-1.529l-2.513-1.336a.615.615 0 0 1-.387-.527v.826a.615.615 0 0 0 .387.527l2.372 1.388h1.546l.264-.105 2.352-1.387v-.826s.32-.334.32-.281z" class="prefix__cls-8" data-name="Path 934" transform="translate(-43.78 -56.927)"/>
            </g>
            <g id="prefix__Group_267" data-name="Group 267" transform="translate(71.529 98.515)">
                <path id="prefix__Path_935" d="M47.618 57.723c.51.3.527.773 0 1.072l-2.372 1.371a1.968 1.968 0 0 1-1.757 0L41.1 58.794a.562.562 0 0 1 0-1.072l2.355-1.371a2.126 2.126 0 0 1 1.757 0z" class="prefix__cls-7" data-name="Path 935" transform="translate(-40.707 -56.162)"/>
                <path id="prefix__Path_936" d="M47.985 57.554a.281.281 0 0 1 0 .123.316.316 0 0 1 0 .123h-.105l-2.373 1.37a1.072 1.072 0 0 1-.246.123H43.68l-.193-.088-2.387-1.37a.65.65 0 0 1-.387-.545v.826a.633.633 0 0 0 .387.545l2.372 1.371.193.088h1.3a1.071 1.071 0 0 0 .244-.12l2.372-1.371h.088V57.715a.387.387 0 0 1 .316-.158z" class="prefix__cls-8" data-name="Path 936" transform="translate(-40.704 -55.308)"/>
            </g>
            <g id="prefix__Group_268" data-name="Group 268" transform="translate(66.082 95.409)">
                <path id="prefix__Path_937" d="M44.589 55.968a.562.562 0 0 1 0 1.072l-2.372 1.371a2.074 2.074 0 0 1-1.845 0L38 57.04a.562.562 0 0 1 0-1.072l2.354-1.368a2 2 0 0 1 1.757 0z" class="prefix__cls-7" data-name="Path 937" transform="translate(-37.607 -54.395)"/>
                <path id="prefix__Path_938" d="M44.819 55.753a.44.44 0 0 1 0 .123.334.334 0 0 1-.105.123l-2.373 1.371a1.037 1.037 0 0 1-.246.105h-1.546L38.177 56.1a.7.7 0 0 1-.387-.545v.826a.668.668 0 0 0 .387.545l2.372 1.374.193.088h1.178a.615.615 0 0 0 .246-.105l2.355-1.371V55.63a.3.3 0 0 1 .298.123z" class="prefix__cls-8" data-name="Path 938" transform="translate(-37.468 -53.512)"/>
            </g>
            <g id="prefix__Group_269" data-name="Group 269" transform="translate(60.833 92.316)">
                <path id="prefix__Path_939" d="M41.482 54.208a.562.562 0 0 1 0 1.054l-2.355 1.388a2.126 2.126 0 0 1-1.757 0L35 55.262a.562.562 0 0 1 0-1.054l2.372-1.371a2 2 0 0 1 1.757 0z" class="prefix__cls-7" data-name="Path 939" transform="translate(-34.611 -52.635)"/>
                <path id="prefix__Path_940" d="M41.842 53.91v.123l-.105.105a.176.176 0 0 1-.088 0l-2.355 1.388-.492.3h-1.423l-2.372-1.388a.615.615 0 0 1-.387-.527v.826a.615.615 0 0 0 .387.527l2.372 1.388H38.8l.264-.105 2.355-1.388h.088v-.989a.422.422 0 0 1 .334-.264z" class="prefix__cls-8" data-name="Path 940" transform="translate(-34.62 -51.669)"/>
            </g>
            <g id="prefix__Group_270" data-name="Group 270" transform="translate(55.443 89.249)">
                <path id="prefix__Path_941" d="M38.454 52.437a.562.562 0 0 1 0 1.054l-2.372 1.371a1.968 1.968 0 0 1-1.757 0l-2.39-1.371c-.51-.3-.51-.773 0-1.054l2.284-1.353a2.074 2.074 0 0 1 1.757 0z" class="prefix__cls-7" data-name="Path 941" transform="translate(-31.552 -50.889)"/>
                <path id="prefix__Path_942" d="M38.739 52.271a.281.281 0 0 1 0 .123l-.105.105h-.105l-2.373 1.371-.246.123h-1.318l-.193-.105-2.39-1.371a.6.6 0 0 1-.369-.527v.826a.65.65 0 0 0 .387.527l2.39 1.371.176.088h1.195l.246-.123 2.372-1.371h.105l.088-.088v-.949a.387.387 0 0 1 .14 0z" class="prefix__cls-8" data-name="Path 942" transform="translate(-31.486 -50.055)"/>
            </g>
            <g id="prefix__Group_271" data-name="Group 271" transform="translate(50.074 86.091)">
                <path id="prefix__Path_943" d="M35.391 50.688a.562.562 0 0 1 0 1.072l-2.372 1.37a2 2 0 0 1-1.757 0l-2.373-1.37a.562.562 0 0 1 0-1.072l2.249-1.371a2 2 0 0 1 1.845 0z" class="prefix__cls-7" data-name="Path 943" transform="translate(-28.497 -49.092)"/>
                <path id="prefix__Path_944" d="M35.7 50.463a.369.369 0 0 1 0 .123.334.334 0 0 1-.105.123H35.5l-2.369 1.371a.6.6 0 0 1-.264.105h-1.528l-2.372-1.371a.668.668 0 0 1-.387-.545v.831a.668.668 0 0 0 .387.545l2.372 1.371h1.546a.6.6 0 0 0 .264-.105l2.351-1.376h.088v-.826a1.713 1.713 0 0 1 .112-.246z" class="prefix__cls-8" data-name="Path 944" transform="translate(-28.434 -48.2)"/>
            </g>
            <g id="prefix__Group_272" data-name="Group 272" transform="translate(104.759 123.884)">
                <path id="prefix__Path_945" d="M66.581 72.165a.562.562 0 0 1 0 1.072l-2.355 1.371a2 2 0 0 1-1.845 0l-2.372-1.371a.562.562 0 0 1 0-1.072l2.372-1.371a2.073 2.073 0 0 1 1.757 0z" class="prefix__cls-7" data-name="Path 945" transform="translate(-59.617 -70.599)"/>
                <path id="prefix__Path_946" d="M66.87 71.9v.123a.351.351 0 0 1-.105.123h-.088l-2.355 1.371-.264.123h-.316v.228h-1.09l-.193-.105-2.372-1.371a.65.65 0 0 1-.387-.527v.826a.615.615 0 0 0 .387.527l2.372 1.371.193.088h1.212l.264-.123 2.355-1.371v-.826a.545.545 0 0 1 .387-.457z" class="prefix__cls-8" data-name="Path 946" transform="translate(-59.554 -69.644)"/>
            </g>
            <g id="prefix__Group_273" data-name="Group 273" transform="translate(99.466 120.867)">
                <path id="prefix__Path_947" d="M63.5 70.372a.562.562 0 0 1 0 1.072l-2.37 1.371a1.968 1.968 0 0 1-1.757 0L57 71.444c-.527-.3-.527-.773 0-1.072l2.284-1.283a1.968 1.968 0 0 1 1.757 0z" class="prefix__cls-7" data-name="Path 947" transform="translate(-56.605 -68.882)"/>
                <path id="prefix__Path_948" d="M63.789 70.2a.439.439 0 0 1 0 .123l-.105.123h-.105l-2.372 1.371a.615.615 0 0 1-.246.105h-1.512l-2.372-1.371A.668.668 0 0 1 56.69 70v.826a.7.7 0 0 0 .387.545l2.39 1.371h1.283a1.036 1.036 0 0 0 .25-.104l2.372-1.371h.088V70a.3.3 0 0 1 .334.193z" class="prefix__cls-8" data-name="Path 948" transform="translate(-56.541 -68.038)"/>
            </g>
            <g id="prefix__Group_274" data-name="Group 274" transform="translate(94.014 117.744)">
                <path id="prefix__Path_949" d="M60.474 68.678c.51.3.51.773 0 1.054L58.1 71.121a2.126 2.126 0 0 1-1.845 0l-2.372-1.388c-.51-.281-.51-.756 0-1.054l2.355-1.371a2 2 0 0 1 1.757 0z" class="prefix__cls-7" data-name="Path 949" transform="translate(-53.503 -67.105)"/>
                <path id="prefix__Path_950" d="M60.671 68.433v.123a.3.3 0 0 1-.105.105l-2.373 1.389-.264.105h-1.44l-2.372-1.388a.615.615 0 0 1-.387-.527v.826a.615.615 0 0 0 .387.527l2.372 1.388h1.459l.264-.105 2.091-1.3v-.826a.387.387 0 0 1 .369-.316z" class="prefix__cls-8" data-name="Path 950" transform="translate(-53.33 -66.245)"/>
            </g>
            <g id="prefix__Group_275" data-name="Group 275" transform="translate(88.615 114.59)">
                <path id="prefix__Path_951" d="M57.385 66.874a.562.562 0 0 1 0 1.072l-2.355 1.371a2 2 0 0 1-1.757 0L50.9 67.946c-.527-.3-.527-.773 0-1.072l2.232-1.374a2.091 2.091 0 0 1 1.757 0z" class="prefix__cls-7" data-name="Path 951" transform="translate(-50.373 -65.31)"/>
                <path id="prefix__Path_952" d="M57.793 66.651a.281.281 0 0 1 0 .123l-.105.123h-.105l-2.355 1.371-.264.123h-1.459l-.316.018-2.372-1.371a.615.615 0 0 1-.387-.527v.861a.633.633 0 0 0 .369.527l2.39 1.371h1.529a1.071 1.071 0 0 0 .246-.123l2.372-1.371h.088v-.9a.422.422 0 0 1 .369-.228z" class="prefix__cls-8" data-name="Path 952" transform="translate(-50.43 -64.401)"/>
            </g>
            <g id="prefix__Group_276" data-name="Group 276" transform="translate(83.308 111.488)">
                <path id="prefix__Path_953" d="M54.346 65.118a.562.562 0 0 1 0 1.072l-2.39 1.371a1.968 1.968 0 0 1-1.757 0l-2.39-1.371a.562.562 0 0 1 0-1.072l2.39-1.371a2 2 0 0 1 1.757 0z" class="prefix__cls-7" data-name="Path 953" transform="translate(-47.405 -63.545)"/>
                <path id="prefix__Path_954" d="M54.72 64.835a.439.439 0 0 1 0 .123l-.088.123h-.105l-2.566 1.529a.615.615 0 0 1-.246.105h-1.529l-2.386-1.37a.7.7 0 0 1-.387-.545v.826a.7.7 0 0 0 .387.545l2.4 1.265a.545.545 0 0 0 .176 0h1.374a1.037 1.037 0 0 0 .211 0l2.372-1.371h.088v-.949a.3.3 0 0 1 .299-.281z" class="prefix__cls-8" data-name="Path 954" transform="translate(-47.41 -62.594)"/>
            </g>
            <g id="prefix__Group_277" data-name="Group 277" transform="translate(78.066 108.373)">
                <path id="prefix__Path_955" d="M51.25 63.368a.562.562 0 0 1 0 1.072l-2.3 1.353a2 2 0 0 1-1.757 0l-2.374-1.353a.562.562 0 0 1 0-1.072L47.191 62a2 2 0 0 1 1.845 0z" class="prefix__cls-7" data-name="Path 955" transform="translate(-44.427 -61.772)"/>
                <path id="prefix__Path_956" d="M51.594 63.113v.123l-.105.105-2.566 1.529-.264.123H47.43a.791.791 0 0 1-.211-.105l-2.372-1.353a.668.668 0 0 1-.387-.545v.826a.615.615 0 0 0 .387.527l2.372 1.388h1.546l.264-.105 2.355-1.388a.211.211 0 0 0 .088 0v-1.23s.122 0 .122.105z" class="prefix__cls-8" data-name="Path 956" transform="translate(-44.402 -60.85)"/>
            </g>
            <g id="prefix__Group_278" data-name="Group 278" transform="translate(72.629 105.294)">
                <path id="prefix__Path_957" d="M48.234 61.6a.562.562 0 0 1 0 1.054l-2.372 1.371a1.968 1.968 0 0 1-1.757 0l-2.39-1.371c-.51-.3-.51-.773 0-1.054l2.372-1.388a2.091 2.091 0 0 1 1.757 0z" class="prefix__cls-7" data-name="Path 957" transform="translate(-41.333 -60.02)"/>
                <path id="prefix__Path_958" d="M48.519 61.421a.281.281 0 0 1 0 .123l-.105.105h-.105l-2.373 1.371-.246.123h-1.142a.668.668 0 0 1-.176 0l-.193-.105-2.39-1.371a.633.633 0 0 1-.369-.527v.826a.65.65 0 0 0 .387.527l2.39 1.371h1.529l.246-.123 2.2-1.089v-.988a.387.387 0 0 1 .351-.246z" class="prefix__cls-8" data-name="Path 958" transform="translate(-41.266 -59.172)"/>
            </g>
            <g id="prefix__Group_279" data-name="Group 279" transform="translate(67.298 102.188)">
                <path id="prefix__Path_959" d="M45.172 59.83a.562.562 0 0 1 0 1.072l-2.355 1.371a2 2 0 0 1-1.757 0L38.688 60.9c-.51-.3-.527-.773 0-1.072l2.372-1.371a1.968 1.968 0 0 1 1.757 0z" class="prefix__cls-7" data-name="Path 959" transform="translate(-38.299 -58.252)"/>
                <path id="prefix__Path_960" d="M45.462 59.651a.439.439 0 0 1 0 .123l-.105.123a.176.176 0 0 0-.088 0l-2.355 1.371a1.651 1.651 0 0 1-.264.105h-1.318l-.193-.088-2.372-1.371a.668.668 0 0 1-.387-.545v.831a.685.685 0 0 0 .369.545l2.39 1.371.193.088h1.353a.826.826 0 0 0 .264-.105l2.351-1.376a.176.176 0 0 1 .088 0v-.949a.334.334 0 0 1 .07-.123z" class="prefix__cls-8" data-name="Path 960" transform="translate(-38.237 -57.406)"/>
            </g>
            <g id="prefix__Group_280" data-name="Group 280" transform="translate(61.833 99.095)">
                <path id="prefix__Path_961" d="M42.15 58.07a.562.562 0 0 1 0 1.072l-2.355 1.371a2.126 2.126 0 0 1-1.845 0l-2.372-1.371c-.51-.3-.527-.773 0-1.072l2.372-1.37a1.968 1.968 0 0 1 1.757 0z" class="prefix__cls-7" data-name="Path 961" transform="translate(-35.189 -56.492)"/>
                <path id="prefix__Path_962" d="M42.5 57.831v.123l-.105.105h-.105l-2.355 1.371-.264.105H38.16l-2.583-1.3a.668.668 0 0 1-.387-.545v.826a.668.668 0 0 0 .387.545l2.372 1.371H39.5l.264-.105 2.355-1.371v-1.248a.334.334 0 0 1 .381.123z" class="prefix__cls-8" data-name="Path 962" transform="translate(-35.188 -55.586)"/>
            </g>
            <g id="prefix__Group_281" data-name="Group 281" transform="translate(56.458 95.964)">
                <path id="prefix__Path_963" d="M39.056 56.327c.51.281.527.773 0 1.054L36.7 58.734a1.968 1.968 0 0 1-1.757 0l-2.39-1.371c-.51-.3-.51-.773 0-1.054l2.355-1.388a2.126 2.126 0 0 1 1.845 0z" class="prefix__cls-7" data-name="Path 963" transform="translate(-32.098 -54.71)"/>
                <path id="prefix__Path_964" d="M39.458 56.061V56.289h-.105l-2.618 1.529-.246.123h-1.143a.51.51 0 0 1-.176 0l-.264-.123-2.39-1.371a.65.65 0 0 1-.387-.527v.826a.65.65 0 0 0 .387.527l2.39 1.371a.545.545 0 0 0 .176.088h1.335l.246-.123 2.372-1.371V56.2a.387.387 0 0 1 .423-.139z" class="prefix__cls-8" data-name="Path 964" transform="translate(-32.13 -53.794)"/>
            </g>
            <g id="prefix__Group_282" data-name="Group 282" transform="translate(51.023 92.883)">
                <path id="prefix__Path_965" d="M36 54.544a.562.562 0 0 1 0 1.072l-2.355 1.371a2 2 0 0 1-1.845 0l-2.372-1.371a.562.562 0 0 1 0-1.072l2.372-1.371a2.074 2.074 0 0 1 1.845 0z" class="prefix__cls-7" data-name="Path 965" transform="translate(-29.037 -52.957)"/>
                <path id="prefix__Path_966" d="M36.4 54.323v.123a.139.139 0 0 1-.105.123h-.088l-2.355 1.371a.686.686 0 0 1-.264.105h-1.74l-2.372-1.371a.668.668 0 0 1-.387-.545v.826a.65.65 0 0 0 .387.545l2.372 1.371.193.088H33.4a.826.826 0 0 0 .264-.105l2.3-1.3v-.808a4.877 4.877 0 0 1 .436-.423z" class="prefix__cls-8" data-name="Path 966" transform="translate(-28.997 -52.068)"/>
            </g>
            <g id="prefix__Group_283" data-name="Group 283" transform="translate(45.686 89.799)">
                <path id="prefix__Path_967" d="M32.965 52.78a.562.562 0 0 1 0 1.072l-2.355 1.37a2.074 2.074 0 0 1-1.757 0l-2.373-1.37c-.527-.3-.527-.773 0-1.072l2.372-1.371a1.968 1.968 0 0 1 1.757 0z" class="prefix__cls-7" data-name="Path 967" transform="translate(-25.936 -51.202)"/>
                <path id="prefix__Path_968" d="M33.363 52.541a.439.439 0 0 1 0 .123l-.105.105h-.105L30.8 54.14l-.264.105h-1.6l-2.372-1.371A.668.668 0 0 1 26 52.4v.826a.7.7 0 0 0 .387.545l2.425 1.441h1.528l.246-.105 2.443-1.336h.088l.088-.088v-.9a.3.3 0 0 1 .158-.246z" class="prefix__cls-8" data-name="Path 968" transform="translate(-26 -50.295)"/>
            </g>
            <g id="prefix__Group_284" data-name="Group 284" transform="translate(91.629 122.871)">
                <path id="prefix__Path_969" d="M59.112 71.6a.562.562 0 0 1 0 1.072l-2.355 1.371a2.073 2.073 0 0 1-1.845 0l-2.372-1.371c-.527-.3-.527-.773 0-1.072l2.372-1.371a1.968 1.968 0 0 1 1.757 0z" class="prefix__cls-7" data-name="Path 969" transform="translate(-52.145 -70.022)"/>
                <path id="prefix__Path_970" d="M59.369 71.391a.44.44 0 0 1 0 .123l-.105.105h-.105L56.8 72.99l-.264.105h-1.507l-2.372-1.371a.668.668 0 0 1-.387-.545v.826a.685.685 0 0 0 .369.545l2.39 1.371h1.529l.246-.105 2.214-1.195h.088v-.949a.334.334 0 0 1 .264-.281z" class="prefix__cls-8" data-name="Path 970" transform="translate(-52.05 -69.145)"/>
            </g>
            <g id="prefix__Group_285" data-name="Group 285" transform="translate(86.243 119.76)">
                <path id="prefix__Path_971" d="M56.024 69.848a.562.562 0 0 1 0 1.054l-2.372 1.371a1.968 1.968 0 0 1-1.757 0L49.5 70.9c-.51-.281-.51-.756 0-1.054l2.355-1.371a2 2 0 0 1 1.845 0z" class="prefix__cls-7" data-name="Path 971" transform="translate(-49.048 -68.252)"/>
                <path id="prefix__Path_972" d="M56.425 69.661v.123a.3.3 0 0 1-.105.105l-2.372 1.371-.246.123H52.05l-.193-.105-2.39-1.371a.65.65 0 0 1-.387-.527v.826a.615.615 0 0 0 .387.527l2.372 1.367.193.105h1.335a1.071 1.071 0 0 0 .246-.123l2.372-1.371v-.9a.387.387 0 0 1 .44-.15z" class="prefix__cls-8" data-name="Path 972" transform="translate(-49.08 -67.398)"/>
            </g>
            <g id="prefix__Group_286" data-name="Group 286" transform="translate(80.896 116.685)">
                <path id="prefix__Path_973" d="M53 68.063a.562.562 0 0 1 0 1.072l-2.355 1.371a2 2 0 0 1-1.757 0l-2.46-1.371a.562.562 0 0 1 0-1.072l2.355-1.371a2.126 2.126 0 0 1 1.757 0z" class="prefix__cls-7" data-name="Path 973" transform="translate(-46.037 -66.502)"/>
                <path id="prefix__Path_974" d="M53.35 67.841v.123l-.105.123h-.088l-2.357 1.37-.264.123H49.1l-.211-.105-2.46-1.248a.615.615 0 0 1-.387-.527v.826a.615.615 0 0 0 .387.527l2.371 1.371h1.546l.264-.123L53 69.053h.088V68.139a.545.545 0 0 1 .264-.3z" class="prefix__cls-8" data-name="Path 974" transform="translate(-46.034 -65.595)"/>
            </g>
            <g id="prefix__Group_287" data-name="Group 287" transform="translate(75.589 113.522)">
                <path id="prefix__Path_975" d="M50.016 66.333a.562.562 0 0 1 0 1.072l-2.46 1.336a1.968 1.968 0 0 1-1.757 0l-2.39-1.371a.562.562 0 0 1 0-1.072l2.355-1.371a2 2 0 0 1 1.845 0z" class="prefix__cls-7" data-name="Path 975" transform="translate(-43.017 -64.702)"/>
                <path id="prefix__Path_976" d="M50.277 66.023a.44.44 0 0 1 0 .123l-.088.123h-.105l-2.53 1.511-.246.105H45.8l-2.39-1.371a.7.7 0 0 1-.387-.545v.831a.7.7 0 0 0 .387.545l2.39 1.371.176.088h1.353l.246-.105 2.443-1.423v-.914a.3.3 0 0 1 .264-.334z" class="prefix__cls-8" data-name="Path 976" transform="translate(-43.014 -63.742)"/>
            </g>
            <g id="prefix__Group_288" data-name="Group 288" transform="translate(70.272 110.486)">
                <path id="prefix__Path_977" d="M46.842 64.548a.562.562 0 0 1 0 1.054l-2.355 1.371a2 2 0 0 1-1.757 0L40.358 65.6a.562.562 0 0 1 0-1.054l2.355-1.371a2 2 0 0 1 1.757 0z" class="prefix__cls-7" data-name="Path 977" transform="translate(-39.991 -62.974)"/>
                <path id="prefix__Path_978" d="M47.152 64.356v.123l-.176.141a.176.176 0 0 1-.088 0l-2.355 1.37a.914.914 0 0 1-.264.123H43.04l-.211-.105-2.372-1.371a.615.615 0 0 1-.387-.527v.826a.615.615 0 0 0 .387.527l2.372 1.388h1.546l.264-.105 2.355-1.388a.176.176 0 0 0 .088 0V64.444s.07-.144.07-.088z" class="prefix__cls-8" data-name="Path 978" transform="translate(-39.932 -62.115)"/>
            </g>
            <g id="prefix__Group_289" data-name="Group 289" transform="translate(64.884 107.372)">
                <path id="prefix__Path_979" d="M43.8 62.78a.562.562 0 0 1 0 1.072l-2.35 1.37a2 2 0 0 1-1.757 0l-2.373-1.37c-.527-.3-.527-.773 0-1.072l2.372-1.371a1.968 1.968 0 0 1 1.757 0z" class="prefix__cls-7" data-name="Path 979" transform="translate(-36.925 -61.202)"/>
                <path id="prefix__Path_980" d="M44.059 62.6v.123l-.105.123h-.105l-2.355 1.374-.264.123h-1.318l-.193-.105-2.372-1.371a.615.615 0 0 1-.387-.527v.826a.615.615 0 0 0 .387.527l2.372 1.371.193.088h1.353l.246-.123 2.372-1.371h.088v-.949a.544.544 0 0 1 .088-.105z" class="prefix__cls-8" data-name="Path 980" transform="translate(-36.899 -60.341)"/>
            </g>
            <g id="prefix__Group_290" data-name="Group 290" transform="translate(59.352 104.371)">
                <path id="prefix__Path_981" d="M40.811 60.98a.562.562 0 0 1 0 1.072l-2.372 1.371a1.968 1.968 0 0 1-1.757 0l-2.513-1.283a.562.562 0 0 1 0-1.072l2.355-1.368a2 2 0 0 1 1.757 0z" class="prefix__cls-7" data-name="Path 981" transform="translate(-33.777 -59.495)"/>
                <path id="prefix__Path_982" d="M41.2 60.743a.44.44 0 0 1 0 .123l-.105.123H41l-2.37 1.37-.246.105h-1.336l-.193-.088-2.689-1.142a.7.7 0 0 1-.387-.545v.826a.668.668 0 0 0 .387.545l2.372 1.371H38.1a1.037 1.037 0 0 0 .246-.105l2.372-1.371h.088a.176.176 0 0 0 0-.088v-.914a.3.3 0 0 1 .387-.211z" class="prefix__cls-8" data-name="Path 982" transform="translate(-33.774 -58.589)"/>
            </g>
            <g id="prefix__Group_291" data-name="Group 291" transform="translate(54.086 101.186)">
                <path id="prefix__Path_983" d="M37.737 59.26a.562.562 0 0 1 0 1.054l-2.372 1.441a2.091 2.091 0 0 1-1.757 0l-2.443-1.441c-.51-.281-.51-.756 0-1.054l2.372-1.371a1.968 1.968 0 0 1 1.757 0z" class="prefix__cls-7" data-name="Path 983" transform="translate(-30.778 -57.682)"/>
                <path id="prefix__Path_984" d="M38.09 59.091v.123l-.105.105h-.105l-2.513 1.529-.246.105H33.8l-.264-.105-2.372-1.441a.65.65 0 0 1-.387-.527v.826a.65.65 0 0 0 .387.527l2.39 1.388.176.088h1.353l.246-.105 2.371-1.388v-1.037a.387.387 0 0 1 .387-.088z" class="prefix__cls-8" data-name="Path 984" transform="translate(-30.78 -56.775)"/>
            </g>
            <g id="prefix__Group_292" data-name="Group 292" transform="translate(48.756 98.029)">
                <path id="prefix__Path_985" d="M34.658 57.51a.562.562 0 0 1 0 1.072l-2.372 1.371a1.968 1.968 0 0 1-1.757 0l-2.39-1.371a.562.562 0 0 1 0-1.072l2.3-1.423a2.021 2.021 0 0 1 1.757 0z" class="prefix__cls-7" data-name="Path 985" transform="translate(-27.747 -55.886)"/>
                <path id="prefix__Path_986" d="M34.947 57.268a.281.281 0 0 1 0 .123l-.105.123h-.105l-2.372 1.371-.246.123h-1.513l-2.39-1.371a.65.65 0 0 1-.387-.527v.826a.65.65 0 0 0 .387.527l2.39 1.371.176.105h1.353l.246-.123 2.372-1.371v-.9a.387.387 0 0 1 .193-.281z" class="prefix__cls-8" data-name="Path 986" transform="translate(-27.684 -54.958)"/>
            </g>
            <g id="prefix__Group_293" data-name="Group 293" transform="translate(43.308 94.965)">
                <path id="prefix__Path_987" d="M31.629 55.738a.562.562 0 0 1 0 1.072l-2.373 1.37a2 2 0 0 1-1.845 0l-2.372-1.37a.562.562 0 0 1 0-1.072l2.355-1.371a2 2 0 0 1 1.845 0z" class="prefix__cls-7" data-name="Path 987" transform="translate(-24.647 -54.142)"/>
                <path id="prefix__Path_988" d="M31.844 55.551a.369.369 0 0 1 0 .123.334.334 0 0 1-.105.123l-2.372 1.371a.6.6 0 0 1-.264.105H27.82l-.211-.088-2.372-1.371a.668.668 0 0 1-.387-.545v.831a.668.668 0 0 0 .387.545l2.372 1.371.193.088h1.054a.686.686 0 0 0 .264-.105l2.355-1.371a.158.158 0 0 0 0-.088v-.826s.369-.198.369-.163z" class="prefix__cls-8" data-name="Path 988" transform="translate(-24.493 -53.288)"/>
            </g>
            <g id="prefix__Group_294" data-name="Group 294" transform="translate(37.97 91.89)">
                <path id="prefix__Path_989" d="M28.57 53.97c.51.3.51.773 0 1.054l-2.355 1.388a2.126 2.126 0 0 1-1.845 0L22 55.024c-.51-.281-.527-.756 0-1.054l2.37-1.37a1.968 1.968 0 0 1 1.757 0z" class="prefix__cls-7" data-name="Path 989" transform="translate(-21.609 -52.392)"/>
                <path id="prefix__Path_990" d="M28.86 53.753v.123l-.105.105h-.176l-2.355 1.389-.264.105h-1.511l-2.372-1.388a.615.615 0 0 1-.387-.527v.826a.685.685 0 0 0 .369.545l2.39 1.371.193.088h1.335l.264-.105 2.359-1.372h.088V53.63a.422.422 0 0 1 .176.123z" class="prefix__cls-8" data-name="Path 990" transform="translate(-21.547 -51.508)"/>
            </g>
            <g id="prefix__Group_295" data-name="Group 295" transform="translate(52.539 81.101)">
                <path id="prefix__Path_991" d="M36.782 47.83a.562.562 0 0 1 0 1.072l-2.355 1.371a2 2 0 0 1-1.757 0L30.3 48.9c-.51-.3-.527-.773 0-1.072l2.372-1.371a1.968 1.968 0 0 1 1.757 0z" class="prefix__cls-7" data-name="Path 991" transform="translate(-29.893 -46.252)"/>
                <path id="prefix__Path_992" d="M37.1 47.644v.123l-.1.123a.176.176 0 0 0-.088 0l-2.355 1.37-.264.123h-1.441l-.193-.088-2.372-1.371a.65.65 0 0 1-.387-.545v.843a.615.615 0 0 0 .369.527l2.39 1.371.193.088h1.353a.826.826 0 0 0 .264-.105l2.355-1.371a.176.176 0 0 1 .088 0v-.842a.334.334 0 0 1 .193-.246z" class="prefix__cls-8" data-name="Path 992" transform="translate(-29.9 -45.398)"/>
            </g>
            <g id="prefix__Group_296" data-name="Group 296" transform="translate(57.815 84.193)">
                <path id="prefix__Path_993" d="M39.874 49.608a.562.562 0 0 1 0 1.054L37.5 52.033a2 2 0 0 1-1.845 0l-2.372-1.371c-.51-.3-.51-.773 0-1.054l2.355-1.371a2 2 0 0 1 1.845 0z" class="prefix__cls-7" data-name="Path 993" transform="translate(-32.903 -48.012)"/>
                <path id="prefix__Path_994" d="M40.109 49.421a.754.754 0 0 0 0 .123L40 49.65l-2.369 1.37a1.072 1.072 0 0 1-.246.123H36.05l-.211-.105-2.372-1.371a.615.615 0 0 1-.387-.527v.826a.615.615 0 0 0 .387.527l2.372 1.371.193.105H37.4l.246-.123 2.109-1.195V49.737a.387.387 0 0 1 .354-.316z" class="prefix__cls-8" data-name="Path 994" transform="translate(-32.768 -47.158)"/>
            </g>
            <g id="prefix__Group_297" data-name="Group 297" transform="translate(63.183 87.304)">
                <path id="prefix__Path_995" d="M42.939 51.36a.562.562 0 0 1 0 1.072L40.584 53.8a2.074 2.074 0 0 1-1.845 0l-2.39-1.371a.562.562 0 0 1 0-1.072l2.372-1.371a1.968 1.968 0 0 1 1.757 0z" class="prefix__cls-7" data-name="Path 995" transform="translate(-35.957 -49.782)"/>
                <path id="prefix__Path_996" d="M43.257 51.105a.44.44 0 0 1 0 .123l-.105.123h-.105l-2.355 1.371-.264.105h-1.511l-2.39-1.371A.685.685 0 0 1 36 51v.826a.7.7 0 0 0 .387.545l2.39 1.371.176.088h1.353l.246-.105 2.372-1.371h.088V51a.334.334 0 0 1 .245.105z" class="prefix__cls-8" data-name="Path 996" transform="translate(-35.924 -48.86)"/>
            </g>
            <g id="prefix__Group_298" data-name="Group 298" transform="translate(68.658 90.436)">
                <path id="prefix__Path_997" d="M45.974 53.138a.562.562 0 0 1 0 1.054L43.6 55.581a2.091 2.091 0 0 1-1.757 0l-2.39-1.388c-.51-.281-.51-.756 0-1.054l2.355-1.371a2 2 0 0 1 1.757 0z" class="prefix__cls-7" data-name="Path 997" transform="translate(-39.073 -51.564)"/>
                <path id="prefix__Path_998" d="M46.277 52.9v.123l-.105.105-.211.053-2.372 1.389-.246.105h-1.477l-2.39-1.388a.65.65 0 0 1-.387-.527v.826a.7.7 0 0 0 .387.545l2.39 1.371h1.546l.246-.105 2.3-1.265v-.988a.387.387 0 0 1 .316-.246z" class="prefix__cls-8" data-name="Path 998" transform="translate(-39.059 -50.659)"/>
            </g>
            <g id="prefix__Group_299" data-name="Group 299" transform="translate(73.964 93.506)">
                <path id="prefix__Path_999" d="M48.959 54.89a.562.562 0 0 1 0 1.054L46.6 57.315a2 2 0 0 1-1.757 0l-2.372-1.371c-.51-.3-.51-.773 0-1.054l2.376-1.39a2.126 2.126 0 0 1 1.757 0z" class="prefix__cls-7" data-name="Path 999" transform="translate(-42.093 -53.312)"/>
                <path id="prefix__Path_1000" d="M49.357 54.7v.141l-.105.105h-.088l-2.355 1.374-.264.123h-1.3a.615.615 0 0 1-.193 0l-.193-.105-2.372-1.371a.615.615 0 0 1-.387-.527v.984a.615.615 0 0 0 .387.527l2.372 1.371.193.105h1.353l.264-.123 2.284-1.388h.088v-.988a.422.422 0 0 1 .316-.228z" class="prefix__cls-8" data-name="Path 1000" transform="translate(-42.087 -52.458)"/>
            </g>
            <g id="prefix__Group_300" data-name="Group 300" transform="translate(79.388 96.634)">
                <path id="prefix__Path_1001" d="M52.052 56.688a.562.562 0 0 1 0 1.072L49.7 59.13a2.126 2.126 0 0 1-1.757 0l-2.375-1.37c-.51-.3-.527-.773 0-1.072l2.372-1.371a2 2 0 0 1 1.845 0z" class="prefix__cls-7" data-name="Path 1001" transform="translate(-45.179 -55.092)"/>
                <path id="prefix__Path_1002" d="M52.3 56.441v.123l-.105.105-2.351 1.371-.264.105h-1.511l-2.369-1.37a.668.668 0 0 1-.387-.545v.826a.668.668 0 0 0 .387.545l2.372 1.371.193.088h1.353l.264-.105 2.355-1.371h.088v-.826a.334.334 0 0 1-.018-.316z" class="prefix__cls-8" data-name="Path 1002" transform="translate(-45.079 -54.23)"/>
            </g>
            <g id="prefix__Group_301" data-name="Group 301" transform="translate(84.726 99.785)">
                <path id="prefix__Path_1003" d="M55.111 58.37a.562.562 0 0 1 0 1.072l-2.372 1.371a2 2 0 0 1-1.757 0l-2.372-1.371a.562.562 0 0 1 0-1.072l2.284-1.283a2 2 0 0 1 1.757 0z" class="prefix__cls-7" data-name="Path 1003" transform="translate(-48.217 -56.884)"/>
                <path id="prefix__Path_1004" d="M55.417 58.231a.281.281 0 0 1 0 .123.334.334 0 0 1-.105.123h-.088l-2.372 1.371a.615.615 0 0 1-.246.105H51.27l-.211-.088-2.372-1.371a.668.668 0 0 1-.387-.545v.826a.65.65 0 0 0 .387.545l2.372 1.371h1.564a.615.615 0 0 0 .246-.105l2.372-1.371h.088v-.088a.158.158 0 0 0 0-.088v-1a.3.3 0 0 1 .088.192z" class="prefix__cls-8" data-name="Path 1004" transform="translate(-48.154 -56.078)"/>
            </g>
            <g id="prefix__Group_302" data-name="Group 302" transform="translate(90.096 102.799)">
                <path id="prefix__Path_1005" d="M58.174 60.182c.51.281.51.756 0 1.054L55.8 62.607a1.968 1.968 0 0 1-1.757 0l-2.39-1.371c-.51-.3-.51-.773 0-1.054l2.372-1.388a2.091 2.091 0 0 1 1.757 0z" class="prefix__cls-7" data-name="Path 1005" transform="translate(-51.273 -58.6)"/>
                <path id="prefix__Path_1006" d="M58.49 60.009v.123l-.176.088h-.105l-2.373 1.37-.246.123h-1.142a.334.334 0 0 1-.176 0l-.193-.105-2.39-1.371a.6.6 0 0 1-.369-.527v.826a.65.65 0 0 0 .387.527l2.39 1.371h1.529l.246-.123 2.372-1.371h.088v-.949a.386.386 0 0 1 .158.018z" class="prefix__cls-8" data-name="Path 1006" transform="translate(-51.237 -57.759)"/>
            </g>
            <g id="prefix__Group_303" data-name="Group 303" transform="translate(95.455 105.9)">
                <path id="prefix__Path_1007" d="M61.224 61.938c.492.3.51.773 0 1.054l-2.372 1.388a2.091 2.091 0 0 1-1.757 0L54.7 62.992c-.51-.281-.51-.756 0-1.054l2.355-1.371a2 2 0 0 1 1.757 0z" class="prefix__cls-7" data-name="Path 1007" transform="translate(-54.323 -60.365)"/>
                <path id="prefix__Path_1008" d="M61.517 61.761a.439.439 0 0 1 0 .123l-.105.105h-.105l-2.372 1.388-.246.105H57.37l-.193-.088-2.39-1.388a.65.65 0 0 1-.387-.527v.914a.7.7 0 0 0 .387.545l2.39 1.371.176.088h1.353l.246-.105 2.372-1.371a.176.176 0 0 0 .088 0v-1.037a.387.387 0 0 1 .105-.123z" class="prefix__cls-8" data-name="Path 1008" transform="translate(-54.264 -59.52)"/>
            </g>
            <g id="prefix__Group_304" data-name="Group 304" transform="translate(100.846 108.97)">
                <path id="prefix__Path_1009" d="M64.24 63.673c.51.3.527.773 0 1.072l-2.284 1.405a1.968 1.968 0 0 1-1.757 0l-2.39-1.371a.562.562 0 0 1 0-1.072l2.355-1.371a2 2 0 0 1 1.845 0z" class="prefix__cls-7" data-name="Path 1009" transform="translate(-57.37 -62.112)"/>
                <path id="prefix__Path_1010" d="M64.63 63.415a.281.281 0 0 1 0 .123l-.088.123h-.105l-2.46 1.529a.615.615 0 0 1-.246.105h-1.565l-2.39-1.371a.7.7 0 0 1-.387-.545v.826a.668.668 0 0 0 .387.545l2.372 1.371.193.088h1.319a.615.615 0 0 0 .246-.105l2.372-1.371v-.949a.3.3 0 0 1 .351-.369z" class="prefix__cls-8" data-name="Path 1010" transform="translate(-57.39 -61.152)"/>
            </g>
            <g id="prefix__Group_305" data-name="Group 305" transform="translate(106.188 112.098)">
                <path id="prefix__Path_1011" d="M67.316 65.47a.562.562 0 0 1 0 1.054L64.944 67.9a2 2 0 0 1-1.757 0l-2.372-1.371c-.51-.3-.51-.773 0-1.054l2.372-1.388a2.126 2.126 0 0 1 1.757 0z" class="prefix__cls-7" data-name="Path 1011" transform="translate(-60.428 -63.892)"/>
                <path id="prefix__Path_1012" d="M67.687 65.231a.281.281 0 0 1 0 .123.3.3 0 0 1-.105.105l-2.636 1.529a1.072 1.072 0 0 1-.246.123h-1.335l-.176-.123-2.372-1.371a.65.65 0 0 1-.387-.527v.826a.615.615 0 0 0 .387.527l2.372 1.371h1.564a1.072 1.072 0 0 0 .247-.123l2.372-1.371V65.108s.315.07.315.123z" class="prefix__cls-8" data-name="Path 1012" transform="translate(-60.43 -62.985)"/>
            </g>
            <g id="prefix__Group_306" data-name="Group 306" transform="translate(111.552 115.192)">
                <path id="prefix__Path_1013" d="M70.384 67.23c.51.3.51.773 0 1.054l-2.372 1.371a1.968 1.968 0 0 1-1.757 0l-2.39-1.371c-.51-.281-.51-.756 0-1.054l2.284-1.371a1.968 1.968 0 0 1 1.757 0z" class="prefix__cls-7" data-name="Path 1013" transform="translate(-63.483 -65.652)"/>
                <path id="prefix__Path_1014" d="M70.669 67.051v.123l-.105.105h-.105l-2.373 1.371-.246.123h-1.318a.685.685 0 0 1-.193-.105l-2.39-1.368a.633.633 0 0 1-.369-.527v.827a.65.65 0 0 0 .387.527l2.39 1.388h1.529l.246-.105 2.372-1.388h.088v-.9a.333.333 0 0 1 .087-.071z" class="prefix__cls-8" data-name="Path 1014" transform="translate(-63.416 -64.806)"/>
            </g>
            <g id="prefix__Group_307" data-name="Group 307" transform="translate(97.771 132.886)">
                <path id="prefix__Path_1015" d="M62.563 77.265a.562.562 0 0 1 0 1.072l-2.355 1.388a2 2 0 0 1-1.757 0l-2.372-1.371a.562.562 0 0 1 0-1.072l2.355-1.371a2.126 2.126 0 0 1 1.757 0z" class="prefix__cls-7" data-name="Path 1015" transform="translate(-55.605 -75.722)"/>
                <path id="prefix__Path_1016" d="M62.968 77.061a.264.264 0 0 1 0 .123.3.3 0 0 1-.105.105h-.088l-2.53 1.529-.264.123H58.75l-.351-.123-2.372-1.371a.615.615 0 0 1-.387-.527v.826a.615.615 0 0 0 .387.527l2.373 1.371.193.088h1.336l.264-.123 2.355-1.371h.088v-.826z" class="prefix__cls-8" data-name="Path 1016" transform="translate(-55.64 -74.815)"/>
            </g>
            <g id="prefix__Group_308" data-name="Group 308" transform="translate(92.679 129.878)">
                <path id="prefix__Path_1017" d="M59.626 75.592a.562.562 0 0 1 0 1.054l-2.355 1.388a2.126 2.126 0 0 1-1.757 0l-2.39-1.388c-.51-.281-.51-.756 0-1.054L55.5 74.2a2.091 2.091 0 0 1 1.757 0z" class="prefix__cls-7" data-name="Path 1017" transform="translate(-52.743 -74.01)"/>
                <path id="prefix__Path_1018" d="M59.919 75.373v.127l-.105.105h-.105l-2.355 1.385-.264.105h-1.511l-2.39-1.388a.633.633 0 0 1-.369-.527v.826a.65.65 0 0 0 .387.527l2.39 1.388h1.283l.246-.105 2.443-1.195h.088v-.9a.387.387 0 0 1 .262-.348z" class="prefix__cls-8" data-name="Path 1018" transform="translate(-52.684 -73.124)"/>
            </g>
            <g id="prefix__Group_309" data-name="Group 309" transform="translate(87.473 126.916)">
                <path id="prefix__Path_1019" d="M56.7 73.9a.562.562 0 0 1 0 1.054l-2.372 1.388a2.021 2.021 0 0 1-1.757 0l-2.407-1.388c-.51-.281-.51-.756 0-1.054l2.355-1.371a2 2 0 0 1 1.757 0z" class="prefix__cls-7" data-name="Path 1019" transform="translate(-49.778 -72.325)"/>
                <path id="prefix__Path_1020" d="M57.073 73.661v.123a.3.3 0 0 1-.105.105l-2.372 1.388-.246.105h-1.512l-2.671-1.336a.65.65 0 0 1-.387-.527v.843a.668.668 0 0 0 .387.545l2.372 1.371H54.1l.246-.105 2.375-1.373v-.826a.334.334 0 0 1 .351-.316z" class="prefix__cls-8" data-name="Path 1020" transform="translate(-49.78 -71.419)"/>
            </g>
            <g id="prefix__Group_310" data-name="Group 310" transform="translate(82.196 123.925)">
                <path id="prefix__Path_1021" d="M53.829 72.2a.562.562 0 0 1 0 1.072l-2.355 1.371a2 2 0 0 1-1.845 0l-2.46-1.371a.562.562 0 0 1 0-1.072l2.372-1.371a1.968 1.968 0 0 1 1.757 0z" class="prefix__cls-7" data-name="Path 1021" transform="translate(-46.777 -70.622)"/>
                <path id="prefix__Path_1022" d="M54.188 71.961a.281.281 0 0 1 0 .176l-.105.123h-.105l-2.356 1.37-.422.264h-1.511l-2.53-1.529a.633.633 0 0 1-.369-.545v.826a.65.65 0 0 0 .387.545l2.39 1.371.176.088H51.1a1.072 1.072 0 0 0 .246-.123l2.372-1.371h.082v-.949a.3.3 0 0 1 .387-.246z" class="prefix__cls-8" data-name="Path 1022" transform="translate(-46.767 -69.715)"/>
            </g>
            <g id="prefix__Group_311" data-name="Group 311" transform="translate(35.966 97.151)">
                <path id="prefix__Path_1023" d="M27.43 56.957a.562.562 0 0 1 0 1.072L25.075 59.4a2 2 0 0 1-1.845 0l-2.372-1.371c-.51-.3-.527-.773 0-1.072l2.3-1.371a2.021 2.021 0 0 1 1.757 0z" class="prefix__cls-7" data-name="Path 1023" transform="translate(-20.469 -55.386)"/>
                <path id="prefix__Path_1024" d="M27.72 56.743v.123l-.105.123a.176.176 0 0 0-.088 0h-.088l-2.355 1.371a.826.826 0 0 1-.264.105h-1.511l-2.372-1.371a.668.668 0 0 1-.387-.545v.826a.65.65 0 0 0 .387.545l2.372 1.371h1.546l.264-.123 2.355-1.368a.176.176 0 0 1 .088 0v-.966a.334.334 0 0 1 .158-.088z" class="prefix__cls-8" data-name="Path 1024" transform="translate(-20.407 -54.504)"/>
            </g>
            <g id="prefix__Group_312" data-name="Group 312" transform="translate(30.609 94.086)">
                <path id="prefix__Path_1025" d="M24.364 55.238c.51.3.527.773 0 1.054l-2.372 1.388a2.021 2.021 0 0 1-1.757 0l-2.39-1.388c-.51-.281-.51-.756 0-1.054l2.32-1.371a2 2 0 0 1 1.845 0z" class="prefix__cls-7" data-name="Path 1025" transform="translate(-17.388 -53.642)"/>
                <path id="prefix__Path_1026" d="M24.765 54.991a.439.439 0 0 1 0 .123l-.088.105h-.105L22.2 56.607l-.246.105h-1.318l-.439.053-2.39-1.388a.65.65 0 0 1-.387-.527v.826a.615.615 0 0 0 .387.527l2.372 1.388.193.088h1.371l.246-.105 2.372-1.388v-.9a.387.387 0 0 1 .404-.295z" class="prefix__cls-8" data-name="Path 1026" transform="translate(-17.42 -52.727)"/>
            </g>
            <g id="prefix__Group_313" data-name="Group 313" transform="translate(25.008 90.78)">
                <path id="prefix__Path_1027" d="M21.134 53.359a.562.562 0 0 1 0 1.054l-2.372 1.371a1.968 1.968 0 0 1-1.757 0l-2.39-1.371c-.51-.3-.51-.773 0-1.054l2.355-1.388a2.126 2.126 0 0 1 1.845 0z" class="prefix__cls-7" data-name="Path 1027" transform="translate(-14.233 -51.76)"/>
                <path id="prefix__Path_1028" d="M21.427 53.164a.527.527 0 0 1 0 .141l-.105.105h-.105l-2.373 1.37-.244.12h-1.32l-.193-.105-2.387-1.368a.65.65 0 0 1-.387-.527v.826a.65.65 0 0 0 .387.527l2.39 1.371.176.105h1.125l.246-.123 2.372-1.371v-1.159a.387.387 0 0 1 .422.088z" class="prefix__cls-8" data-name="Path 1028" transform="translate(-14.174 -50.897)"/>
            </g>
            <path id="prefix__Path_1029" fill="#bebed3" d="M42.149 82.276a4.323 4.323 0 0 1-3.883 0l-17.08-9.858a1.177 1.177 0 0 1 0-2.232l10.543-6.1a4.288 4.288 0 0 1 3.866 0l17.1 9.876a1.177 1.177 0 0 1 0 2.232z" data-name="Path 1029" transform="translate(15.433 48.006)"/>
            <path id="prefix__Path_1030" d="M80.808 70.25a4.217 4.217 0 0 1-2.109-.51 1.564 1.564 0 0 1-.949-1.336 1.6 1.6 0 0 1 .95-1.334 4.393 4.393 0 0 1 2.109-.51 4.481 4.481 0 0 1 2.126.51 1.617 1.617 0 0 1 .931 1.336 1.582 1.582 0 0 1-.931 1.336 4.27 4.27 0 0 1-2.127.508zm0-3.3a3.971 3.971 0 0 0-1.933.457 1.248 1.248 0 0 0-.738 1 1.283 1.283 0 0 0 .738 1.019 4.182 4.182 0 0 0 1.933.457 4.077 4.077 0 0 0 1.933-.457 1.3 1.3 0 0 0 .756-1.019 1.283 1.283 0 0 0-.756-1 3.884 3.884 0 0 0-1.933-.457z" class="prefix__cls-6" data-name="Path 1030" transform="translate(58.873 50.227)"/>
            <path id="prefix__Path_1031" fill="#11111e" d="M104.548 78.978l-2.653 1.546a3.515 3.515 0 0 1-3.04 0L38.793 45.836c-.843-.474-.843-1.265 0-1.757l2.6-1.529z" data-name="Path 1031" transform="translate(28.894 32.045)"/>
            <g id="prefix__Group_314" data-name="Group 314" transform="translate(131.088 53.543)">
                <path id="prefix__Path_1032" fill="#ace0f9" d="M74.6 33.751l5.447-3.181-.141 48.447-5.254 3.427z" data-name="Path 1032" transform="translate(-74.6 -30.57)"/>
            </g>
            <path id="prefix__Path_1033" fill="#d2f4ff" d="M64.764 31.261a21.6 21.6 0 0 1-3.655-3.427 16.255 16.255 0 0 1-4.059-7.644V67.3s5.834 11.229 13.812 16.624a42.489 42.489 0 0 0 17.08 6.361V41.593s-14.093-3.567-23.178-10.332z" data-name="Path 1033" transform="translate(43.198 15.113)"/>
            <path id="prefix__Path_1034" d="M59.668 19.51L57.05 20.7a19.681 19.681 0 0 0 4.059 7.644 21.6 21.6 0 0 0 3.655 3.427c9.085 6.765 23.125 10.35 23.125 10.35l5.447-3.181z" class="prefix__cls-14" data-name="Path 1034" transform="translate(43.198 14.598)"/>
            <path id="prefix__Path_1035" fill="#b9e2ef" d="M83.321 90.656a101.356 101.356 0 0 1-17.238-9.085A22.475 22.475 0 0 1 57.05 67.3V20.19s.9 5.764 10.842 13.953a43.246 43.246 0 0 0 15.429 8.171z" data-name="Path 1035" transform="translate(43.198 15.113)"/>
            <path id="prefix__Path_1036" fill="#d4edfc" d="M72.99 26.536s-15.39-.615-25.234-5.272S36 11.81 36 11.81v48.518a41.435 41.435 0 0 0 15.323 8.294 155.968 155.968 0 0 0 21.667 3.514z" data-name="Path 1036" transform="translate(27.258 8.767)"/>
            <path id="prefix__Path_1037" fill="#d4f7ff" d="M74.781 41.611v46.778S57.823 82.344 57.05 67.548V20.19s2.179 12.74 17.731 21.421z" data-name="Path 1037" transform="translate(43.198 15.113)"/>
            <path id="prefix__Path_1038" fill="#a3d6e2" d="M37.09 10.44v3.514c2.653 4.165 6.344 6.221 14.058 9.313 8.786 3.514 20.964 4.34 20.964 4.34s-18.627-4.13-26.359-8.575-8.663-8.592-8.663-8.592z" data-name="Path 1038" transform="translate(28.084 7.73)"/>
            <path id="prefix__Path_1039" d="M42.166 8.78L37.14 11.7s1.037 4.112 8.786 8.558 26.359 8.572 26.359 8.572l2.615-1.195z" class="prefix__cls-19" data-name="Path 1039" transform="translate(28.122 6.473)"/>
            <path id="prefix__Path_1040" fill="#c3e1ea" d="M51.579 22.438c-7.767-3.093-11.457-5.149-14.058-9.313-.316-.51-.633-1.054-.931-1.634v1.757s1.757 5.763 14.831 10.452a54.843 54.843 0 0 0 14.954 3.286 43.156 43.156 0 0 0 6.221-.158s-12.318-.928-21.017-4.39z" data-name="Path 1040" transform="translate(27.705 8.525)"/>
            <path id="prefix__Path_1041" d="M66.345 24.672c-7.257-.246-19.523-2-29.785-10.192v48.078s25.234 13.619 36.006 7.574V24.444a26.094 26.094 0 0 1-6.221.228z" class="prefix__cls-14" data-name="Path 1041" transform="translate(27.682 10.789)"/>
            <path id="prefix__Path_1042" d="M53.51 20.348a26.1 26.1 0 0 0 6.221-.158 43.158 43.158 0 0 1-6.221.158z" class="prefix__cls-14" data-name="Path 1042" transform="translate(40.518 15.113)"/>
            <g id="prefix__Group_315" data-name="Group 315" transform="translate(69.338 13.373)">
                <path id="prefix__Path_1043" d="M107.518 47.225l-.018.966L39.46 8.916V7.95z" class="prefix__cls-21" data-name="Path 1043" transform="translate(-39.46 -7.528)"/>
                <path id="prefix__Path_1044" d="M78.19 30.482l.7-.422v.966l-.7.422z" class="prefix__cls-22" data-name="Path 1044" transform="translate(-10.132 9.215)"/>
                <path id="prefix__Path_1045" d="M39.46 8.132l.72-.422 68.04 39.275-.7.422z" class="prefix__cls-23" data-name="Path 1045" transform="translate(-39.46 -7.71)"/>
            </g>
            <path id="prefix__Path_1046" d="M78.75 31.027V79.9l-1.3-.685.3-.193.141-48.447z" class="prefix__cls-21" data-name="Path 1046" transform="translate(58.646 22.973)"/>
            <path id="prefix__Path_1047" d="M78.19 30.824V79.9l.685-.387.018-48.957z" class="prefix__cls-22" data-name="Path 1047" transform="translate(59.206 22.966)"/>
            <path id="prefix__Path_1048" d="M39.46 8.34v1.265l.914-.545z" class="prefix__cls-21" data-name="Path 1048" transform="translate(29.878 6.14)"/>
            <path id="prefix__Path_1049" d="M56.1 18.417l.7-.387 5.939 3.427-.6.474z" class="prefix__cls-19" data-name="Path 1049" transform="translate(42.479 13.477)"/>
            <path id="prefix__Path_1050" d="M56.7 18.026l.492-.246 5.781 3.391-.351.281z" class="prefix__cls-21" data-name="Path 1050" transform="translate(42.933 13.288)"/>
            <path id="prefix__Path_1051" d="M57.13 17.834l.474-.264 5.781 3.409-.351.264z" class="prefix__cls-23" data-name="Path 1051" transform="translate(43.259 13.129)"/>
            <path id="prefix__Path_1052" d="M63.869 26.32a45.688 45.688 0 0 1-15.815-3.11 43.6 43.6 0 0 1-10.544-5.395v-.088c.633.773 16.887 11.018 32.562 7.837a.088.088 0 0 1 0 .088 32.544 32.544 0 0 1-6.2.668z" class="prefix__cls-24" data-name="Path 1052" transform="translate(28.402 13.218)"/>
            <path id="prefix__Path_1053" d="M63.869 27.45a46.074 46.074 0 0 1-15.815-3.093 43.28 43.28 0 0 1-10.544-5.412v-.088c.633.773 16.887 11.018 32.562 7.837a32.543 32.543 0 0 1-6.203.756z" class="prefix__cls-24" data-name="Path 1053" transform="translate(28.402 14.074)"/>
            <path id="prefix__Path_1054" d="M63.849 28.7a46.162 46.162 0 0 1-15.816-3.09A43 43 0 0 1 37.49 20.2v-.09c.633.773 16.887 11.018 32.562 7.837a32.544 32.544 0 0 1-6.2.756z" class="prefix__cls-24" data-name="Path 1054" transform="translate(28.387 15.053)"/>
            <path id="prefix__Path_1055" d="M63.829 29.993A46.162 46.162 0 0 1 48.013 26.9a44.036 44.036 0 0 1-10.543-5.395V21.4h.088c.633.773 16.887 11.018 32.562 7.837a31.243 31.243 0 0 1-6.291.756z" class="prefix__cls-24" data-name="Path 1055" transform="translate(28.372 16.029)"/>
            <path id="prefix__Path_1056" d="M63.815 31.278A46.162 46.162 0 0 1 48 28.185a44.036 44.036 0 0 1-10.543-5.395.105.105 0 0 1 0-.105.123.123 0 0 1 .105 0c.615.773 16.869 11.018 32.544 7.837a32.543 32.543 0 0 1-6.291.756z" class="prefix__cls-24" data-name="Path 1056" transform="translate(28.35 16.994)"/>
            <path id="prefix__Path_1057" d="M63.795 32.553A46.162 46.162 0 0 1 47.98 29.46a44.036 44.036 0 0 1-10.543-5.395.105.105 0 0 1 0-.105h.105c.615.773 16.869 11.018 32.544 7.837a31.243 31.243 0 0 1-6.291.756z" class="prefix__cls-24" data-name="Path 1057" transform="translate(28.335 17.968)"/>
            <path id="prefix__Path_1058" d="M63.769 33.842a46.25 46.25 0 0 1-15.815-3.093 44.036 44.036 0 0 1-10.544-5.394v-.088c.615.791 16.869 11.018 32.544 7.837a31.121 31.121 0 0 1-6.185.738z" class="prefix__cls-24" data-name="Path 1058" transform="translate(28.326 18.928)"/>
            <path id="prefix__Path_1059" d="M63.749 35.068a46.25 46.25 0 0 1-15.815-3.093A44.036 44.036 0 0 1 37.39 26.58h.088c.65.738 16.9 10.93 32.614 7.767a31.278 31.278 0 0 1-6.343.721z" class="prefix__cls-24" data-name="Path 1059" transform="translate(28.311 19.952)"/>
            <path id="prefix__Path_1060" d="M63.739 36.4a46.074 46.074 0 0 1-15.815-3.093 43.93 43.93 0 0 1-10.544-5.392v-.088c.615.791 16.869 11.018 32.544 7.837a31.244 31.244 0 0 1-6.185.738z" class="prefix__cls-24" data-name="Path 1060" transform="translate(28.303 20.867)"/>
            <path id="prefix__Path_1061" d="M63.719 37.7A46.075 46.075 0 0 1 47.9 34.6a43.931 43.931 0 0 1-10.54-5.392v-.088h.088c.615.791 16.869 11.018 32.544 7.837a31.243 31.243 0 0 1-6.273.743z" class="prefix__cls-24" data-name="Path 1061" transform="translate(28.288 21.875)"/>
            <path id="prefix__Path_1062" d="M63.7 38.962a46.074 46.074 0 0 1-15.815-3.093 43.931 43.931 0 0 1-10.545-5.394v-.088c.633.791 16.869 11.018 32.544 7.837a31.242 31.242 0 0 1-6.184.738z" class="prefix__cls-24" data-name="Path 1062" transform="translate(28.273 22.805)"/>
            <path id="prefix__Path_1063" d="M63.679 40.225a46.074 46.074 0 0 1-15.815-3.093 43.193 43.193 0 0 1-10.544-5.394v-.088h.088c.633.791 16.869 11.018 32.544 7.837a.088.088 0 0 1 .088 0 31.243 31.243 0 0 1-6.361.738z" class="prefix__cls-24" data-name="Path 1063" transform="translate(28.258 23.791)"/>
            <path id="prefix__Path_1064" d="M63.659 41.468a46.075 46.075 0 0 1-15.815-3.093A43.6 43.6 0 0 1 37.3 32.98c.633.791 16.869 11.018 32.544 7.837a31.244 31.244 0 0 1-6.185.65z" class="prefix__cls-24" data-name="Path 1064" transform="translate(28.243 24.798)"/>
            <path id="prefix__Path_1065" d="M63.639 42.748a45.688 45.688 0 0 1-15.815-3.093A43.6 43.6 0 0 1 37.28 34.26h.088c.632.791 16.887 11.018 32.561 7.84a31.243 31.243 0 0 1-6.291.65z" class="prefix__cls-24" data-name="Path 1065" transform="translate(28.228 25.768)"/>
            <path id="prefix__Path_1066" d="M63.619 44.028A45.688 45.688 0 0 1 47.8 40.935a44.036 44.036 0 0 1-10.54-5.395c.633.791 16.887 11.018 32.562 7.837a31.243 31.243 0 0 1-6.2.65z" class="prefix__cls-24" data-name="Path 1066" transform="translate(28.213 26.737)"/>
            <path id="prefix__Path_1067" d="M63.6 45.308a45.688 45.688 0 0 1-15.815-3.093A44.036 44.036 0 0 1 37.24 36.82c.633.773 16.887 11 32.562 7.82a31.242 31.242 0 0 1-6.2.668z" class="prefix__cls-24" data-name="Path 1067" transform="translate(28.197 27.706)"/>
            <path id="prefix__Path_1068" d="M63.579 46.643a45.688 45.688 0 0 1-15.815-3.11 44.036 44.036 0 0 1-10.544-5.395v-.088h.105c.615.773 16.869 11 32.544 7.82a31.278 31.278 0 0 1-6.291.773z" class="prefix__cls-24" data-name="Path 1068" transform="translate(28.182 28.638)"/>
            <path id="prefix__Path_1069" d="M63.559 47.922a45.688 45.688 0 0 1-15.815-3.093A44.036 44.036 0 0 1 37.2 39.435v-.088c0-.088 0 0 .088 0 .615.773 16.869 11 32.544 7.82a32.509 32.509 0 0 1-6.273.755z" class="prefix__cls-24" data-name="Path 1069" transform="translate(28.167 29.59)"/>
            <path id="prefix__Path_1070" d="M72.195 40.429a24.8 24.8 0 0 1-12.442-10.543 35.9 35.9 0 0 1-2.653-5.272v-.334a35.445 35.445 0 0 0 2.759 5.535 24.6 24.6 0 0 0 12.3 10.543.123.123 0 0 1 .036.071z" class="prefix__cls-24" data-name="Path 1070" transform="translate(43.236 18.21)"/>
            <path id="prefix__Path_1071" d="M72.423 41.237a22.229 22.229 0 0 1-12.634-9.647 32.651 32.651 0 0 1-2.689-5.1v-.33a32.333 32.333 0 0 0 2.812 5.377 22.053 22.053 0 0 0 12.547 9.577.544.544 0 0 0-.036.123z" class="prefix__cls-24" data-name="Path 1071" transform="translate(43.236 19.634)"/>
            <path id="prefix__Path_1072" d="M72.461 42.864a22.159 22.159 0 0 1-12.722-9.524 32.65 32.65 0 0 1-2.689-5.1v-.33a32.334 32.334 0 0 0 2.812 5.377 21.983 21.983 0 0 0 12.547 9.577s.052-.017.052 0z" class="prefix__cls-24" data-name="Path 1072" transform="translate(43.198 20.959)"/>
            <path id="prefix__Path_1073" d="M72.423 44.6a22.211 22.211 0 0 1-12.635-9.63 33.511 33.511 0 0 1-2.688-5.116v-.334a31.631 31.631 0 0 0 2.812 5.38 21.983 21.983 0 0 0 12.547 9.577.545.545 0 0 0-.036.123z" class="prefix__cls-24" data-name="Path 1073" transform="translate(43.236 22.178)"/>
            <path id="prefix__Path_1074" d="M72.423 46.277a22.141 22.141 0 0 1-12.635-9.63 33.511 33.511 0 0 1-2.688-5.113V31.2a32.332 32.332 0 0 0 2.812 5.377 21.983 21.983 0 0 0 12.547 9.577.088.088 0 0 1-.035.123z" class="prefix__cls-24" data-name="Path 1074" transform="translate(43.236 23.45)"/>
            <path id="prefix__Path_1075" d="M72.461 47.942a22.211 22.211 0 0 1-12.722-9.595 33.511 33.511 0 0 1-2.689-5.114V32.9a31.631 31.631 0 0 0 2.812 5.447 21.983 21.983 0 0 0 12.547 9.577s.052-.017.052.018z" class="prefix__cls-24" data-name="Path 1075" transform="translate(43.198 24.738)"/>
            <path id="prefix__Path_1076" d="M72.423 49.637a22.141 22.141 0 0 1-12.635-9.63 33.511 33.511 0 0 1-2.688-5.113v-.334a31.63 31.63 0 0 0 2.812 5.377 21.983 21.983 0 0 0 12.547 9.577.088.088 0 0 1-.035.123z" class="prefix__cls-24" data-name="Path 1076" transform="translate(43.236 25.995)"/>
            <path id="prefix__Path_1077" d="M72.423 51.327A22.141 22.141 0 0 1 59.789 41.7a32.72 32.72 0 0 1-2.689-5.116v-.334a31.63 31.63 0 0 0 2.812 5.377A21.983 21.983 0 0 0 72.458 51.2z" class="prefix__cls-24" data-name="Path 1077" transform="translate(43.236 27.275)"/>
            <path id="prefix__Path_1078" d="M72.423 52.937a22.141 22.141 0 0 1-12.635-9.63 32.721 32.721 0 0 1-2.688-5.114V38a31.629 31.629 0 0 0 2.724 5.272 21.983 21.983 0 0 0 12.546 9.577.088.088 0 0 1 .053.088z" class="prefix__cls-24" data-name="Path 1078" transform="translate(43.236 28.6)"/>
            <path id="prefix__Path_1079" d="M72.423 54.687a22.141 22.141 0 0 1-12.635-9.63 33.388 33.388 0 0 1-2.689-5.1v-.347a31.63 31.63 0 0 0 2.812 5.377 21.983 21.983 0 0 0 12.547 9.577.088.088 0 0 1-.035.123z" class="prefix__cls-24" data-name="Path 1079" transform="translate(43.236 29.819)"/>
            <path id="prefix__Path_1080" d="M72.423 56.367a22.141 22.141 0 0 1-12.635-9.63 32.721 32.721 0 0 1-2.688-5.113v-.334a31.017 31.017 0 0 0 2.812 5.377 21.983 21.983 0 0 0 12.547 9.577.088.088 0 0 1-.035.123z" class="prefix__cls-24" data-name="Path 1080" transform="translate(43.236 31.091)"/>
            <path id="prefix__Path_1081" d="M72.423 58.024a22.141 22.141 0 0 1-12.635-9.63A33.388 33.388 0 0 1 57.1 43.3V43a31.63 31.63 0 0 0 2.812 5.377 21.913 21.913 0 0 0 12.547 9.577.088.088 0 0 1-.035.07z" class="prefix__cls-24" data-name="Path 1081" transform="translate(43.236 32.386)"/>
            <path id="prefix__Path_1082" d="M72.423 59.727A22.141 22.141 0 0 1 59.789 50.1 33.389 33.389 0 0 1 57.1 45v-.35a31.016 31.016 0 0 0 2.812 5.377A21.913 21.913 0 0 0 72.458 59.6a.088.088 0 0 1-.035.123z" class="prefix__cls-24" data-name="Path 1082" transform="translate(43.236 33.635)"/>
            <path id="prefix__Path_1083" d="M72.308 61.226A22.018 22.018 0 0 1 59.673 51.6a32.841 32.841 0 0 1-2.583-4.832v-.338a31.929 31.929 0 0 0 2.689 5.1 22.036 22.036 0 0 0 12.564 9.57.447.447 0 0 1-.035.126z" class="prefix__cls-24" data-name="Path 1083" transform="translate(43.229 34.983)"/>
            <path id="prefix__Path_1084" fill="#c2d1ea" d="M44.841 66.945c5.008 2.882 5.008 7.574 0 10.543a20.032 20.032 0 0 1-18.223 0c-5.008-2.9-5.008-7.591 0-10.543a20.032 20.032 0 0 1 18.223 0z" data-name="Path 1084" opacity="0.6" transform="translate(17.31 48.858)"/>
            <path id="prefix__Path_1085" d="M32.207 74.793a1.388 1.388 0 0 0 1.353.914 29.679 29.679 0 0 0 5.693-2.864c2.126-1.23 2.126-2.109 1.933-2.6a.615.615 0 0 0-.105-.158c-.422-.527-1.634-.545-3.145-.158a24.6 24.6 0 0 0-5.272 1.546 3.515 3.515 0 0 0-.457 3.32z" class="prefix__cls-26" data-name="Path 1085" transform="translate(24.215 52.573)"/>
            <path id="prefix__Path_1086" fill="url(#prefix__linear-gradient)" d="M32.11 74.609a1.388 1.388 0 0 0 1.353.914 29.679 29.679 0 0 0 5.693-2.864c2.126-1.23 2.126-2.109 1.933-2.6a.615.615 0 0 0-.105-.158 8.786 8.786 0 0 1-3.233 2.6 17.73 17.73 0 0 1-4.622 2.3 3.268 3.268 0 0 1-1.019-.193z" data-name="Path 1086" transform="translate(24.313 52.756)"/>
            <path id="prefix__Path_1087" d="M24.707 70.063a1.388 1.388 0 0 0 1.353.914 29.678 29.678 0 0 0 5.693-2.864c2.126-1.23 2.126-2.109 1.933-2.6l-.105-.158c-.422-.527-1.652-.545-3.145-.158a24.6 24.6 0 0 0-5.272 1.546 3.515 3.515 0 0 0-.457 3.321z" class="prefix__cls-26" data-name="Path 1087" transform="translate(18.536 48.991)"/>
            <path id="prefix__Path_1088" fill="url(#prefix__linear-gradient-2)" d="M24.61 69.879a1.388 1.388 0 0 0 1.353.914 29.679 29.679 0 0 0 5.693-2.864c2.126-1.23 2.126-2.109 1.933-2.6l-.105-.158a8.786 8.786 0 0 1-3.233 2.6 17.731 17.731 0 0 1-4.622 2.372 3.18 3.18 0 0 1-1.019-.264z" data-name="Path 1088" transform="translate(18.634 49.174)"/>
            <path id="prefix__Path_1089" d="M32 70.76s-.141 1.757 1.142 2.355a3.514 3.514 0 0 0 3.145-.545z" class="prefix__cls-29" data-name="Path 1089" transform="translate(24.228 53.407)"/>
            <path id="prefix__Path_1090" d="M24.48 66s0 2.32 1.529 2.741a1.353 1.353 0 0 0 1.757-.966z" class="prefix__cls-29" data-name="Path 1090" transform="translate(18.535 49.803)"/>
            <path id="prefix__Path_1091" fill="url(#prefix__linear-gradient-3)" d="M27.337 39.98a1.916 1.916 0 0 1 0 .316v2.5c-.228 0-6.01 1-6.484-2.548a2.617 2.617 0 0 1 0-.369c-.088-3.514 4.586-13.2 6.625-15.6a3.075 3.075 0 0 0-.387 1.529c0 2.53.193 7.925.3 11.949v.527a14.236 14.236 0 0 0-.054 1.696z" data-name="Path 1091" transform="translate(15.784 18.203)"/>
            <path id="prefix__Path_1092" fill="url(#prefix__linear-gradient-4)" d="M45.255 67.345c-1.125 12.793-2.776 28.116-2.776 28.116a3.128 3.128 0 0 1-.668.176 4.13 4.13 0 0 1-2.9-1.248 5.641 5.641 0 0 1-.72-.72s-.615-8.628-.685-15.6c0-4.165.545-7.328.3-8.927-.65-4.253-2.97-20.613-3.883-21.175s-2.023 11.91-3.517 20.485a183.313 183.313 0 0 0-2.021 18.539 5.13 5.13 0 0 1-1.318 0 3.163 3.163 0 0 1-1.933-1.353 77.722 77.722 0 0 1-1.353-13.056 50.714 50.714 0 0 1 .387-6.853c0-1.582-.474-14.339-.351-20.208 0-1.933.123-3.514.228-4.92a104.7 104.7 0 0 0 9.4 5.869c3.514 1.88 7.029 3.936 9.507 4.34a3.128 3.128 0 0 0 2.548-.474 1.388 1.388 0 0 0 0-.246 97.018 97.018 0 0 1-.246 17.256z" data-name="Path 1092" transform="translate(18.004 30.569)"/>
            <path id="prefix__Path_1093" fill="url(#prefix__linear-gradient-5)" d="M33 29.864a24.9 24.9 0 0 1 .264-3.233c-.281-.984.123-1.757.387-3.022a5.852 5.852 0 0 0-.439-3.778 1.511 1.511 0 0 0-.826.3c-.7.685 0 3.971-.211 5.465-.175 1.052-1.075 1.017-2.075.49a2.144 2.144 0 0 1-.931 2.091l.387.176z" data-name="Path 1093" transform="translate(22.087 14.841)"/>
            <path id="prefix__Path_1094" fill="url(#prefix__linear-gradient-6)" d="M33.444 19.557a2.249 2.249 0 0 1-1.3 1.757 13.637 13.637 0 0 0 .58 4.446 2 2 0 0 0 1.459.668 12.582 12.582 0 0 0 .457-1.529 14.6 14.6 0 0 0-.176-7.521c-.809-.088-.581-.264-1.02 2.179z" data-name="Path 1094" transform="translate(24.332 12.952)"/>
            <path id="prefix__Path_1095" fill="#441b24" d="M37.376 15.805c-2.513-.685-8.259-1.353-9.805 3.514a9.1 9.1 0 0 0 2.776 9.366 6.888 6.888 0 0 0 1.265.843c1 .527 1.9.562 2.074-.492.264-1.494-.492-4.78.211-5.465a1.511 1.511 0 0 1 .756-.334 5.852 5.852 0 0 1 .474 3.813c-.264 1.283-.668 2.038-.387 3.022h.351a2.2 2.2 0 0 0 2.548-1.494c.088-.176.158-.351.246-.562a2 2 0 0 1-1.459-.668 13.636 13.636 0 0 1-.58-4.446 2.249 2.249 0 0 0 1.3-1.757c.439-2.443.211-2.267 1.019-2.109.846.091 1.707-2.528-.789-3.231z" data-name="Path 1095" transform="translate(20.61 11.432)"/>
            <path id="prefix__Path_1096" fill="url(#prefix__linear-gradient-7)" d="M33.277 27.64a4.973 4.973 0 0 1-.193-1.388l-3.374-1.476-.387-.176a1.758 1.758 0 0 1-.264.176z" data-name="Path 1096" transform="translate(22.003 18.453)"/>
            <path id="prefix__Path_1097" fill="url(#prefix__linear-gradient-8)" d="M45.418 43.231a89.778 89.778 0 0 0-.457-11.631c-.615-1.195-4.8-3.2-8-4.639l-3.374-1.476-.387-.176c-4.551-2-7.222-2.144-8.154-.58a3.075 3.075 0 0 0-.387 1.529c0 3.128.316 10.543.351 14.5v2.5c0 .738-.158 2.056-.264 2.97a23.055 23.055 0 0 0-.791 7.2 104.7 104.7 0 0 0 9.4 5.869c3.514 1.915 7.029 4.007 9.63 4.358a3.128 3.128 0 0 0 2.425-.492 1.389 1.389 0 0 0 0-.246c-.01-.497.078-10.97.008-19.686z" data-name="Path 1097" transform="translate(18.122 17.745)"/>
            <path id="prefix__Path_1098" fill="url(#prefix__linear-gradient-9)" d="M37.185 56.185a1.388 1.388 0 0 1 0 .246 3.128 3.128 0 0 1-2.425.492 66.773 66.773 0 0 0 .808-8.4c.176-5.008-.369-15.973-.369-15.973s1.177 2.126 2.038 3.954c.053 8.716-.037 19.189-.052 19.681z" data-name="Path 1098" opacity="0.3" transform="translate(26.319 24.473)"/>
            <path id="prefix__Path_1099" fill="url(#prefix__linear-gradient-10)" d="M45.064 48.112c-3.514-1.757-8.979-7.732-8.979-7.732a37.446 37.446 0 0 1-1.441-5.272c-.474-2.583-.6-5.412.7-6.73s7.029 8.7 7.8 9.682l-3.637-10.4a3.514 3.514 0 0 1 .773-.51 3.919 3.919 0 0 1 3.3-.369s3.52 4.848 4.82 14.812v.58c.494 3.479.565 7.995-3.336 5.939z" data-name="Path 1099" transform="translate(25.979 19.946)"/>
            <path id="prefix__Path_1100" fill="url(#prefix__linear-gradient-11)" d="M38.232 30.37S36 29.315 36 27.681s.193-4.481.949-4.639.193 3.673.193 3.673.843-1.037 1.371 0c0 0 0-.738.914-.492 0 0 .211-.6.808 0 0 0 1.089-.615 2.144 3.251a4.885 4.885 0 0 0-4.147.9z" data-name="Path 1100" transform="translate(27.258 17.269)"/>
            <path id="prefix__Path_1101" fill="url(#prefix__linear-gradient-12)" d="M44.92 44.434c-3.514-1.757-8.979-7.732-8.979-7.732A37.445 37.445 0 0 1 34.5 31.43a33.915 33.915 0 0 0 6.256 7.644c4.762 4.463 5.781 4.446 6.519 3.743a7.767 7.767 0 0 0 1.054-4.323c.422 3.479.492 7.996-3.409 5.94z" data-name="Path 1101" opacity="0.3" transform="translate(26.123 23.625)"/>
            <path id="prefix__Path_1102" fill="url(#prefix__linear-gradient-13)" d="M27.344 33.526v2.5c-.228 0-6.01 1-6.484-2.548.7.949 1.564 1.107 3.058 1.072a7.275 7.275 0 0 0 3.514-1.336 1.915 1.915 0 0 1-.088.312z" data-name="Path 1102" opacity="0.3" transform="translate(15.794 24.973)"/>
            <path id="prefix__Path_1103" fill="url(#prefix__linear-gradient-14)" d="M40.907 37.833L37.27 27.43a3.514 3.514 0 0 1 .773-.51 49.2 49.2 0 0 1 2.864 10.913z" data-name="Path 1103" opacity="0.3" transform="translate(28.22 20.209)"/>
            <path id="prefix__Path_1104" fill="url(#prefix__linear-gradient-15)" d="M25.391 32.467c-.738.211-2.056.527-2.021.246s1.3-.615 2.021-.773z" data-name="Path 1104" opacity="0.3" transform="translate(17.694 24.011)"/>
            <path id="prefix__Path_1105" fill="url(#prefix__linear-gradient-16)" d="M37.494 91.426a5.642 5.642 0 0 1-.72-.72s-.615-8.628-.685-15.6c0-4.165.545-7.328.3-8.927C35.737 61.921 33.417 45.561 32.5 45s-2.021 11.914-3.514 20.49a183.612 183.612 0 0 0-2.018 18.59 5.13 5.13 0 0 1-1.318 0 65.914 65.914 0 0 0 1.142-9.436c.351-5.641 1.634-12.881 2.284-18.908S31.2 45.087 32.011 44.56s1.265.685 2.214 4.973 3.058 15.13 2.812 18.592-.843 14.673 0 19.857a28.754 28.754 0 0 1 .457 3.444z" data-name="Path 1105" opacity="0.3" transform="translate(19.421 33.48)"/>
            <path id="prefix__Path_1106" fill="url(#prefix__linear-gradient-17)" d="M37.516 63.233c-1.125 12.793-2.776 28.116-2.776 28.116a3.128 3.128 0 0 1-.668.176 27.255 27.255 0 0 1 0-3.989c.334-5.131 1.423-15.007 2.056-23A66.46 66.46 0 0 0 35.2 46.75a3.128 3.128 0 0 0 2.548-.474 1.389 1.389 0 0 0 0-.246 97.018 97.018 0 0 1-.228 17.2z" data-name="Path 1106" opacity="0.3" transform="translate(25.743 34.68)"/>
        </g>
    </g>
</svg>
