<svg xmlns="http://www.w3.org/2000/svg" xmlns:xlink="http://www.w3.org/1999/xlink" id="prefix__Asset_45" data-name="Asset 45" viewBox="0 0 120.728 154.461">
    <defs>
        <linearGradient id="prefix__linear-gradient" x1=".987" x2=".011" y1="1.096" y2=".121" gradientUnits="objectBoundingBox">
            <stop offset="0" stop-color="#67838c"/>
            <stop offset=".36" stop-color="#97c1ce"/>
            <stop offset=".73" stop-color="#94bdca"/>
            <stop offset=".95" stop-color="#70b4d2"/>
        </linearGradient>
        <linearGradient id="prefix__linear-gradient-2" x1=".332" x2=".574" y1="-.213" y2=".821" gradientUnits="objectBoundingBox">
            <stop offset=".12" stop-color="#97c1ce"/>
            <stop offset="1" stop-color="#7a9cb1"/>
        </linearGradient>
        <linearGradient id="prefix__linear-gradient-3" x1=".374" x2=".61" y1=".159" y2=".786" xlink:href="#prefix__linear-gradient-2"/>
        <linearGradient id="prefix__linear-gradient-4" x1=".743" x2=".402" y1="1.055" y2=".089" gradientUnits="objectBoundingBox">
            <stop offset=".03" stop-color="#97c1ce"/>
            <stop offset="1" stop-color="#c2e5f0"/>
        </linearGradient>
        <linearGradient id="prefix__linear-gradient-5" x1=".311" x2=".88" y1=".075" y2="1.016" gradientUnits="objectBoundingBox">
            <stop offset=".03" stop-color="#97c1ce"/>
            <stop offset=".53" stop-color="#c2e5f0"/>
            <stop offset=".97" stop-color="#94bdca"/>
        </linearGradient>
        <style>
            .prefix__cls-2{fill:#84849b}.prefix__cls-6{fill:#ededf2}.prefix__cls-7{fill:#2a2a3a}.prefix__cls-8{fill:#121217}.prefix__cls-12{fill:#ceefef}.prefix__cls-14{fill:#72a3af}.prefix__cls-16{fill:#cc7e17}.prefix__cls-17{fill:#bc6b0a}.prefix__cls-18{fill:#ea9f26}.prefix__cls-20{fill:#b2ccd3}.prefix__cls-21{fill:#d1e2e8}.prefix__cls-22{fill:#0a8ba0}.prefix__cls-23{fill:#0caaba}.prefix__cls-25{fill:#d63c3c}.prefix__cls-26{fill:#c32b2b}.prefix__cls-27{fill:#871e1e}.prefix__cls-28{fill:#d93030}.prefix__cls-29{fill:#e0e0e0}.prefix__cls-30{fill:#d63030}.prefix__cls-31{fill:#196e90}.prefix__cls-32{fill:#114c63}.prefix__cls-33{fill:#198baf}.prefix__cls-34{fill:#d39700}.prefix__cls-35{fill:#b68808}.prefix__cls-36{fill:#f4a800}.prefix__cls-42{fill:#db8c00}.prefix__cls-43{fill:#ad1212}.prefix__cls-46{fill:#f44a4a}.prefix__cls-47{fill:#a02020}.prefix__cls-55{fill:#b6f1ff}.prefix__cls-60{fill:#688d96}
        </style>
    </defs>
    <g id="prefix__Layer_1" data-name="Layer 1">
        <path id="prefix__Path_1968" fill="#22222d" d="M75.539 63.622a1.757 1.757 0 0 1 .808 1.388l-.123 40.417c0 .51-.351.7-.808.457l-54.158-31.3a1.757 1.757 0 0 1-.808-1.384l.105-40.417c0-.51.369-.7.808-.457z" data-name="Path 1968" transform="translate(15.485 24.398)"/>
        <path id="prefix__Path_1969" d="M76.861 64.692V64.358L21.877 32.06H21.4l-.7.4h.562L75.35 63.743l.158.105.141.141.141.158.105.176v.193a1.333 1.333 0 0 1 0 .193 1.494 1.494 0 0 1 0 .387l-.123 40.417a.492.492 0 0 1 0 .158.421.421 0 0 1 0 .141l.7-.4v-.246l.128-40.421z" class="prefix__cls-2" data-name="Path 1969" transform="translate(15.675 24.277)"/>
        <path id="prefix__Path_1970" fill="#4e4e68" d="M72.324 97.938L22.05 68.978V34.87l50.274 28.959z" data-name="Path 1970" transform="translate(16.697 26.405)"/>
        <path id="prefix__Path_1971" fill="#dadae8" d="M91.039 88.573L56.1 108.852a1.757 1.757 0 0 1-1.6 0L.348 77.59c-.457-.264-.457-.668 0-.931l34.916-20.3a1.757 1.757 0 0 1 1.6 0l7.17 4.147 39.52 22.844 7.486 4.323a.492.492 0 0 1 0 .9z" data-name="Path 1971" transform="translate(.004 42.535)"/>
        <path id="prefix__Path_1972" d="M91.376 79.2V79.405L56.109 99.843h-1.424L.351 68.564A.58.58 0 0 1 0 68.09v2.987a.545.545 0 0 0 .334.457l54.14 31.279.158.088h1.108l.228-.105 35.057-20.279v-2.97a.249.249 0 0 1 .351-.351z" class="prefix__cls-2" data-name="Path 1972" transform="translate(0 51.561)"/>
        <path id="prefix__Path_1973" fill="#373747" d="M59.978 76.186a.685.685 0 0 1-.193.51L39.031 88.662c-.123 0-.211 0-.211-.246a.633.633 0 0 1 .211-.51L59.784 75.94c.106 0 .194 0 .194.246z" data-name="Path 1973" transform="translate(29.395 57.505)"/>
        <path id="prefix__Path_1974" d="M59.007 99.285a2.6 2.6 0 0 1-2.355 0L8.065 71.169c-.615-.351-.562-.949.123-1.353L28.15 58.289a2.653 2.653 0 0 1 2.355 0L79.092 86.4c.615.351.562.966-.123 1.353z" class="prefix__cls-6" data-name="Path 1974" transform="translate(5.782 43.93)"/>
        <g id="prefix__Group_521" data-name="Group 521" transform="translate(32.86 103.239)">
            <path id="prefix__Path_1975" d="M24.936 60.823c.369.211.369.562 0 .791l-1.283.738a1.529 1.529 0 0 1-1.353 0l-3.321-1.915c-.369-.211-.369-.562 0-.791l1.283-.738a1.529 1.529 0 0 1 1.353 0z" class="prefix__cls-7" data-name="Path 1975" transform="translate(-18.698 -58.75)"/>
            <path id="prefix__Path_1976" d="M25.2 60.808v.092h-.088l-1.283.738-.193.088H22.3l-3.321-1.915a.492.492 0 0 1-.281-.387v.51a.492.492 0 0 0 .281.387l3.321 1.911h1.283l1.283-.738v-.51s.334-.211.334-.176z" class="prefix__cls-8" data-name="Path 1976" transform="translate(-18.7 -58.243)"/>
        </g>
        <g id="prefix__Group_522" data-name="Group 522" transform="translate(78.399 129.522)">
            <path id="prefix__Path_1977" d="M48.982 74.714c.316.176.316.474 0 .668l-1.476.861a1.336 1.336 0 0 1-1.16 0l-1.494-.861c-.316-.193-.316-.492 0-.668l1.476-.861a1.23 1.23 0 0 1 1.16 0z" class="prefix__cls-7" data-name="Path 1977" transform="translate(-44.615 -73.707)"/>
            <path id="prefix__Path_1978" d="M49.1 74.664l-1.476.861h-1.142l-1.494-.861a.4.4 0 0 1-.228-.334v.51a.387.387 0 0 0 .228.334l1.494.861h1.16l1.23-.527v-.6z" class="prefix__cls-8" data-name="Path 1978" transform="translate(-44.505 -73.236)"/>
        </g>
        <g id="prefix__Group_523" data-name="Group 523" transform="translate(29.453 105.149)">
            <path id="prefix__Path_1979" d="M21.117 60.844c.316.176.316.474 0 .668l-1.476.843a1.2 1.2 0 0 1-1.142 0l-1.494-.843c-.316-.193-.334-.492 0-.668l1.494-.861a1.2 1.2 0 0 1 1.142 0z" class="prefix__cls-7" data-name="Path 1979" transform="translate(-16.761 -59.837)"/>
            <path id="prefix__Path_1980" d="M21.25 60.751l-1.476.843H18.65l-1.494-.843a.422.422 0 0 1-.246-.351v.527a.387.387 0 0 0 .246.334l1.494.861h1.142l1.476-.861v-.51z" class="prefix__cls-8" data-name="Path 1980" transform="translate(-16.649 -59.411)"/>
        </g>
        <g id="prefix__Group_524" data-name="Group 524" transform="translate(26.072 107.256)">
            <path id="prefix__Path_1981" d="M21.045 63.063a.4.4 0 0 1 0 .773l-1.283.756a1.529 1.529 0 0 1-1.353 0l-3.286-1.862a.4.4 0 0 1 0-.773l1.283-.756a1.476 1.476 0 0 1 1.353 0z" class="prefix__cls-7" data-name="Path 1981" transform="translate(-14.837 -61.037)"/>
            <path id="prefix__Path_1982" d="M21.324 62.887v.105a.141.141 0 0 1 0 .088l-1.283.756h-1.669l-3.251-1.669a.457.457 0 0 1-.281-.387v.387a.457.457 0 0 0 .281.387l3.321 1.915h1.318l1.3-.756v-.492z" class="prefix__cls-8" data-name="Path 1982" transform="translate(-14.835 -60.474)"/>
        </g>
        <g id="prefix__Group_525" data-name="Group 525" transform="translate(73.075 130.336)">
            <path id="prefix__Path_1983" d="M47.814 76.243c.369.228.369.58 0 .791l-1.283.738a1.423 1.423 0 0 1-1.353 0l-3.3-1.915c-.387-.211-.387-.562 0-.773l1.3-.756a1.494 1.494 0 0 1 1.335 0z" class="prefix__cls-7" data-name="Path 1983" transform="translate(-41.585 -74.17)"/>
            <path id="prefix__Path_1984" d="M47.887 76.254l-1.283.738h-1.16l-3.3-1.915a.457.457 0 0 1-.281-.387v.51a.51.51 0 0 0 .3.4l3.3 1.915h1.317l1.283-.756v-.58z" class="prefix__cls-8" data-name="Path 1984" transform="translate(-41.377 -73.777)"/>
        </g>
        <g id="prefix__Group_526" data-name="Group 526" transform="translate(22.69 109.147)">
            <path id="prefix__Path_1985" d="M19.761 64.551c.369.211.369.562 0 .791l-1.283.738a1.494 1.494 0 0 1-1.336 0l-3.954-2.267c-.369-.228-.369-.58 0-.791l1.283-.738a1.423 1.423 0 0 1 1.353 0z" class="prefix__cls-7" data-name="Path 1985" transform="translate(-12.912 -62.113)"/>
            <path id="prefix__Path_1986" d="M19.976 64.487a.193.193 0 0 1 0 .088v.088h-.088l-1.283.738h-1.16a.352.352 0 0 1-.141 0l-3.954-2.267a.51.51 0 0 1-.281-.4v.527a.457.457 0 0 0 .281.387l3.95 2.28h1.107l1.283-.756v-.615z" class="prefix__cls-8" data-name="Path 1986" transform="translate(-12.793 -61.645)"/>
        </g>
        <g id="prefix__Group_527" data-name="Group 527" transform="translate(19.204 111.182)">
            <path id="prefix__Path_1987" d="M16.326 64.851c.369.211.387.545 0 .756l-1.371.791a1.423 1.423 0 0 1-1.3 0l-2.443-1.406c-.369-.228-.387-.562 0-.773l1.353-.791a1.459 1.459 0 0 1 1.318 0z" class="prefix__cls-7" data-name="Path 1987" transform="translate(-10.929 -63.27)"/>
            <path id="prefix__Path_1988" d="M16.407 64.847l-1.371.791a.44.44 0 0 1-.158 0h-1.054l-2.443-1.406a.51.51 0 0 1-.281-.422v.527a.474.474 0 0 0 .281.4l2.443 1.406h1.3l1.371-.791v-.51z" class="prefix__cls-8" data-name="Path 1988" transform="translate(-10.799 -62.862)"/>
        </g>
        <g id="prefix__Group_528" data-name="Group 528" transform="translate(68.928 133.629)">
            <path id="prefix__Path_1989" fill="#121218" d="M40.948 77.081a.439.439 0 0 1-.228-.351v.47a.4.4 0 0 0 .246.334V77.2z" data-name="Path 1989" transform="translate(-38.093 -75.526)"/>
            <path id="prefix__Path_1990" d="M46.329 76.78l-4.094 2.372-.615.351H40.3l-.633-.369a.51.51 0 0 1-.3-.387v.51a.492.492 0 0 0 .281.387l.65.369H41.5l.615-.351 4.094-2.372v-.44z" class="prefix__cls-8" data-name="Path 1990" transform="translate(-39.115 -75.488)"/>
            <path id="prefix__Path_1991" d="M46.21 76.933c.316.176.316.474 0 .668l-4.094 2.372-.615.351a1.529 1.529 0 0 1-1.353 0l-.633-.369c-.387-.211-.387-.562 0-.791l.65-.369h.123l1.88-1.072c-.316-.193-.316-.492 0-.668l1.476-.879a1.336 1.336 0 0 1 1.16 0z" class="prefix__cls-7" data-name="Path 1991" transform="translate(-39.225 -76.045)"/>
        </g>
        <g id="prefix__Group_529" data-name="Group 529" transform="translate(60.677 135.198)">
            <path id="prefix__Path_1992" d="M42.929 80.211c.316.193.316.492 0 .668l-1.476.861a1.23 1.23 0 0 1-1.16 0l-.7-.4-.72-.457-2.53-1.459-1.23-.615-.334-.193c-.316-.193-.334-.492 0-.668l1.494-.861a1.2 1.2 0 0 1 1.142 0l.351.193 1.142.668 2.545 1.452.773.457z" class="prefix__cls-7" data-name="Path 1992" transform="translate(-34.529 -76.937)"/>
            <path id="prefix__Path_1993" d="M43.158 79.984l-1.476.861h-1.054l-.7-.4-1.058-.145-2.53-1.459-1.23-.615-.334-.193a.4.4 0 0 1-.246-.334v.527a.4.4 0 0 0 .246.334l.334.193 1.16.668L38.8 80.9l.791.439.7.422h1.072l1.476-.861v-.914h.316z" class="prefix__cls-8" data-name="Path 1993" transform="translate(-34.53 -76.36)"/>
        </g>
        <g id="prefix__Group_530" data-name="Group 530" transform="translate(25.844 119.111)">
            <path id="prefix__Path_1994" d="M19.914 69.254c.387.228.387.562 0 .791l-1.3.738a1.494 1.494 0 0 1-1.335 0l-2.284-1.318a.4.4 0 0 1 0-.773l1.283-.738a1.423 1.423 0 0 1 1.353 0z" class="prefix__cls-7" data-name="Path 1994" transform="translate(-14.707 -67.783)"/>
            <path id="prefix__Path_1995" d="M20.018 69.191v.088l-1.3.738a.545.545 0 0 1-.176.088h-.9a.352.352 0 0 1-.141 0l-2.284-1.318a.492.492 0 0 1-.281-.387v.51a.492.492 0 0 0 .281.4l2.284 1.318h1.3l1.3-.756v-.51z" class="prefix__cls-8" data-name="Path 1995" transform="translate(-14.531 -67.315)"/>
        </g>
        <g id="prefix__Group_531" data-name="Group 531" transform="translate(30.33 121.707)">
            <path id="prefix__Path_1996" d="M35 77.976c.387.211.387.562 0 .773l-1.3.738a1.388 1.388 0 0 1-1.335 0l-14.813-8.54a.4.4 0 0 1 0-.773l1.283-.756a1.529 1.529 0 0 1 1.353 0z" class="prefix__cls-7" data-name="Path 1996" transform="translate(-17.255 -69.26)"/>
            <path id="prefix__Path_1997" d="M35.272 78.067l-1.3.738a.544.544 0 0 1-.176 0h-1.441l-5.606-3.233-.211-.123-9-5.272a.492.492 0 0 1-.281-.387v.51a.545.545 0 0 0 .281.4l9 5.272.211.123 5.606 3.233H33.5l.176-.088 1.3-.738V78a.228.228 0 0 1 .3.07z" class="prefix__cls-8" data-name="Path 1997" transform="translate(-17.26 -68.859)"/>
        </g>
        <g id="prefix__Group_532" data-name="Group 532" transform="translate(47.381 131.535)">
            <path id="prefix__Path_1998" d="M32.159 76.324c.387.228.387.562 0 .791l-1.3.738a1.388 1.388 0 0 1-1.336 0l-2.284-1.3a.422.422 0 0 1 0-.791l1.283-.738a1.423 1.423 0 0 1 1.353 0z" class="prefix__cls-7" data-name="Path 1998" transform="translate(-26.964 -74.853)"/>
            <path id="prefix__Path_1999" d="M32.4 76.416l-1.3.738h-1.4a.352.352 0 0 1-.141 0l-2.284-1.3a.545.545 0 0 1-.281-.4v.527a.457.457 0 0 0 .281.387l2.284 1.318h1.3l1.283-.756v-.615a.142.142 0 0 1 .264.105z" class="prefix__cls-8" data-name="Path 1999" transform="translate(-26.943 -74.4)"/>
        </g>
        <g id="prefix__Group_533" data-name="Group 533" transform="translate(75.131 127.637)">
            <path id="prefix__Path_2000" d="M47.122 73.628c.316.193.316.492 0 .668l-1.476.861a1.23 1.23 0 0 1-1.16 0l-1.494-.857c-.316-.176-.316-.474 0-.668l1.476-.861a1.336 1.336 0 0 1 1.16 0z" class="prefix__cls-7" data-name="Path 2000" transform="translate(-42.755 -72.635)"/>
            <path id="prefix__Path_2001" d="M47.24 73.584l-1.476.861h-1.142l-1.494-.861a.387.387 0 0 1-.228-.334v.527a.387.387 0 0 0 .228.334l1.494.861h1.037l1.476-.861v-.6z" class="prefix__cls-8" data-name="Path 2001" transform="translate(-42.645 -72.169)"/>
        </g>
        <g id="prefix__Group_534" data-name="Group 534" transform="translate(71.809 125.704)">
            <path id="prefix__Path_2002" d="M45.2 72.528c.316.193.316.492 0 .668l-1.476.861a1.335 1.335 0 0 1-1.16 0L41.1 73.2c-.316-.176-.316-.474 0-.668l1.476-.861a1.335 1.335 0 0 1 1.16 0z" class="prefix__cls-7" data-name="Path 2002" transform="translate(-40.865 -71.535)"/>
            <path id="prefix__Path_2003" d="M45.4 72.378l-1.476.861H42.61l-1.51-.615a.387.387 0 0 1-.228-.334v.51a.294.294 0 0 0 .228.334l1.494.861h.984a.439.439 0 0 0 .158 0l1.494-.861v-.826a.158.158 0 0 1 .176.07z" class="prefix__cls-8" data-name="Path 2003" transform="translate(-40.861 -70.963)"/>
        </g>
        <g id="prefix__Group_535" data-name="Group 535" transform="translate(68.4 123.758)">
            <path id="prefix__Path_2004" d="M43.292 71.434a.351.351 0 0 1 0 .668l-1.494.843a1.2 1.2 0 0 1-1.142 0l-1.494-.845c-.316-.193-.316-.492 0-.668l1.476-.861a1.23 1.23 0 0 1 1.16 0z" class="prefix__cls-7" data-name="Path 2004" transform="translate(-38.925 -70.427)"/>
            <path id="prefix__Path_2005" d="M43.4 71.344v.088l-1.494.843H40.82l-1.494-.843a.457.457 0 0 1-.246-.351v.527a.4.4 0 0 0 .246.334l1.494.861h1.142l1.476-.861v-.6a.105.105 0 0 1-.035 0z" class="prefix__cls-8" data-name="Path 2005" transform="translate(-38.808 -69.933)"/>
        </g>
        <g id="prefix__Group_536" data-name="Group 536" transform="translate(65.055 121.821)">
            <path id="prefix__Path_2006" d="M41.377 70.318c.316.193.316.492 0 .668l-1.476.861a1.23 1.23 0 0 1-1.16 0l-1.476-.861c-.316-.193-.334-.474 0-.668l1.476-.861a1.3 1.3 0 0 1 1.142 0z" class="prefix__cls-7" data-name="Path 2006" transform="translate(-37.021 -69.325)"/>
            <path id="prefix__Path_2007" d="M41.508 70.236v.088l-1.476.861h-1.16l-1.472-.861a.4.4 0 0 1-.246-.334v.51a.457.457 0 0 0 .246.351l1.476.843h1.142l1.476-.843v-.51s.014-.141.014-.105z" class="prefix__cls-8" data-name="Path 2007" transform="translate(-36.924 -68.821)"/>
        </g>
        <g id="prefix__Group_537" data-name="Group 537" transform="translate(61.699 119.875)">
            <path id="prefix__Path_2008" d="M39.467 69.224c.316.176.316.474 0 .668l-1.476.861a1.336 1.336 0 0 1-1.16 0l-1.476-.861c-.316-.193-.334-.492 0-.668l1.494-.861a1.2 1.2 0 0 1 1.142 0z" class="prefix__cls-7" data-name="Path 2008" transform="translate(-35.111 -68.217)"/>
            <path id="prefix__Path_2009" d="M39.59 69.144L38.114 70h-1.142l-1.472-.856c-.176-.105-.246-.211-.246-.334v.51a.387.387 0 0 0 .246.334l1.476.861h1.16l1.476-.861v-.51h-.022z" class="prefix__cls-8" data-name="Path 2009" transform="translate(-35.006 -67.768)"/>
        </g>
        <g id="prefix__Group_538" data-name="Group 538" transform="translate(58.331 117.942)">
            <path id="prefix__Path_2010" d="M37.562 68.106c.316.193.316.492 0 .668l-1.476.861a1.23 1.23 0 0 1-1.16 0l-1.494-.861c-.316-.176-.316-.474 0-.668l1.476-.843a1.23 1.23 0 0 1 1.16 0z" class="prefix__cls-7" data-name="Path 2010" transform="translate(-33.195 -67.117)"/>
            <path id="prefix__Path_2011" d="M37.64 68.064l-1.476.861h-.949a.193.193 0 0 1-.123 0l-1.492-.861a.387.387 0 0 1-.228-.334v.527a.4.4 0 0 0 .228.334l1.494.861h1.037l1.476-.861v-.6a.105.105 0 0 1 .033.073z" class="prefix__cls-8" data-name="Path 2011" transform="translate(-33.062 -66.653)"/>
        </g>
        <g id="prefix__Group_539" data-name="Group 539" transform="translate(54.975 116.068)">
            <path id="prefix__Path_2012" d="M35.652 66.98a.351.351 0 0 1 0 .668l-1.494.861a1.248 1.248 0 0 1-1.142 0l-1.494-.791c-.316-.193-.316-.492 0-.668L33 66.19a1.283 1.283 0 0 1 1.16 0z" class="prefix__cls-7" data-name="Path 2012" transform="translate(-31.285 -66.051)"/>
            <path id="prefix__Path_2013" d="M35.859 66.855v.088l-1.494.861a.44.44 0 0 1-.158 0h-.984l-1.7-.633a.387.387 0 0 1-.228-.334v.51a.4.4 0 0 0 .246.334l1.494.861a.263.263 0 0 0 .123 0h.879l1.494-.861v-.562a.213.213 0 0 1 .334-.264z" class="prefix__cls-8" data-name="Path 2013" transform="translate(-31.281 -65.504)"/>
        </g>
        <g id="prefix__Group_540" data-name="Group 540" transform="translate(51.619 114.072)">
            <path id="prefix__Path_2014" d="M33.742 65.908c.316.176.316.474 0 .668l-1.476.843a1.23 1.23 0 0 1-1.16 0l-1.494-.843c-.316-.193-.316-.492 0-.668l1.476-.861a1.23 1.23 0 0 1 1.142.018z" class="prefix__cls-7" data-name="Path 2014" transform="translate(-29.375 -64.915)"/>
            <path id="prefix__Path_2015" d="M33.843 65.854l-1.476.843H31.3l-1.5-.843c-.158-.105-.246-.228-.228-.334a4.764 4.764 0 0 0 0 .51.4.4 0 0 0 .246.334l1.494.861h1.142l1.494-.861V65.8a.105.105 0 0 1-.105.053z" class="prefix__cls-8" data-name="Path 2015" transform="translate(-29.23 -64.457)"/>
        </g>
        <g id="prefix__Group_541" data-name="Group 541" transform="translate(48.249 112.121)">
            <path id="prefix__Path_2016" d="M31.82 64.8c.316.193.316.492 0 .668l-1.476.861a1.283 1.283 0 0 1-1.16 0l-1.476-.861c-.334-.176-.334-.474 0-.668l1.476-.861a1.3 1.3 0 0 1 1.142 0z" class="prefix__cls-7" data-name="Path 2016" transform="translate(-27.458 -63.805)"/>
            <path id="prefix__Path_2017" d="M31.94 64.754l-1.476.861h-1.142l-1.476-.861a.387.387 0 0 1-.246-.334v.51a.422.422 0 0 0 .246.351l1.476.861h.9l1.476-.861v-.51s.242-.052.242-.017z" class="prefix__cls-8" data-name="Path 2017" transform="translate(-27.35 -63.339)"/>
        </g>
        <g id="prefix__Group_542" data-name="Group 542" transform="translate(44.84 110.175)">
            <path id="prefix__Path_2018" d="M29.88 63.7c.316.176.316.474 0 .668l-1.476.861a1.336 1.336 0 0 1-1.16 0l-1.476-.861c-.334-.193-.334-.492 0-.668l1.494-.861a1.2 1.2 0 0 1 1.142 0z" class="prefix__cls-7" data-name="Path 2018" transform="translate(-25.517 -62.697)"/>
            <path id="prefix__Path_2019" d="M30.03 63.616v.084l-1.476.861h-1.142l-1.476-.861c-.176-.105-.246-.211-.246-.334v.51a.387.387 0 0 0 .228.334l1.494.861h1.16l1.476-.861v-.562z" class="prefix__cls-8" data-name="Path 2019" transform="translate(-25.387 -62.188)"/>
        </g>
        <g id="prefix__Group_543" data-name="Group 543" transform="translate(41.532 108.237)">
            <path id="prefix__Path_2020" d="M28 62.588c.316.193.316.492 0 .668l-1.494.861a1.2 1.2 0 0 1-1.142 0l-1.494-.861c-.316-.176-.316-.474 0-.668l1.476-.861a1.335 1.335 0 0 1 1.16 0z" class="prefix__cls-7" data-name="Path 2020" transform="translate(-23.635 -61.595)"/>
            <path id="prefix__Path_2021" d="M28.194 62.544L26.7 63.4a.334.334 0 0 1-.158 0h-1.16l-1.494-.861a.387.387 0 0 1-.228-.334v.527a.4.4 0 0 0 .228.334l1.494.861h1.054l1.494-.861v-.6a.136.136 0 1 1 .264.07z" class="prefix__cls-8" data-name="Path 2021" transform="translate(-23.616 -61.129)"/>
        </g>
        <g id="prefix__Group_544" data-name="Group 544" transform="translate(38.158 106.304)">
            <path id="prefix__Path_2022" d="M26.082 61.488c.316.176.334.492 0 .668l-1.494.861a1.248 1.248 0 0 1-1.142 0l-1.494-.861c-.316-.193-.316-.474 0-.668l1.476-.861a1.335 1.335 0 0 1 1.16 0z" class="prefix__cls-7" data-name="Path 2022" transform="translate(-21.715 -60.495)"/>
            <path id="prefix__Path_2023" d="M26.208 61.406v.088l-1.494.861a.334.334 0 0 1-.158 0h-.966l-1.49-.861a.4.4 0 0 1-.246-.334v.51a.4.4 0 0 0 .246.33l1.494.861h1L26.067 62v-.58a.158.158 0 0 1 .141-.018z" class="prefix__cls-8" data-name="Path 2023" transform="translate(-21.613 -59.991)"/>
        </g>
        <g id="prefix__Group_545" data-name="Group 545" transform="translate(68.286 131.585)">
            <path id="prefix__Path_2024" d="M43.2 75.881c.334.176.334.474 0 .668l-1.5.861a1.3 1.3 0 0 1-1.142 0l-1.458-.861c-.316-.193-.316-.492 0-.668l1.476-.861a1.283 1.283 0 0 1 1.16 0z" class="prefix__cls-7" data-name="Path 2024" transform="translate(-38.856 -74.881)"/>
            <path id="prefix__Path_2025" d="M43.429 75.728l-1.494.861h-1.318l-1.511-.615a.4.4 0 0 1-.246-.334v.51a.4.4 0 0 0 .246.334l1.494.861a.263.263 0 0 0 .123 0h.861a.334.334 0 0 0 .158 0l1.494-.861v-.562a.193.193 0 0 1 .193-.194z" class="prefix__cls-8" data-name="Path 2025" transform="translate(-38.86 -74.307)"/>
        </g>
        <g id="prefix__Group_546" data-name="Group 546" transform="translate(64.903 129.645)">
            <path id="prefix__Path_2026" d="M41.3 74.784a.351.351 0 0 1 0 .668l-1.494.843a1.2 1.2 0 0 1-1.142 0l-1.494-.843c-.316-.193-.316-.492 0-.668l1.476-.861a1.23 1.23 0 0 1 1.16 0z" class="prefix__cls-7" data-name="Path 2026" transform="translate(-36.935 -73.777)"/>
            <path id="prefix__Path_2027" d="M41.39 74.731l-1.494.843H38.86l-1.494-.843a.457.457 0 0 1-.246-.351v.527a.4.4 0 0 0 .246.334l1.494.861H40l1.494-.861v-.51a.105.105 0 0 1-.105 0z" class="prefix__cls-8" data-name="Path 2027" transform="translate(-36.795 -73.321)"/>
        </g>
        <g id="prefix__Group_547" data-name="Group 547" transform="translate(61.565 127.708)">
            <path id="prefix__Path_2028" d="M39.384 73.668c.316.193.316.492 0 .668l-1.476.861a1.248 1.248 0 0 1-1.142 0l-1.494-.861c-.316-.176-.316-.474 0-.668l1.476-.861a1.3 1.3 0 0 1 1.142 0z" class="prefix__cls-7" data-name="Path 2028" transform="translate(-35.035 -72.675)"/>
            <path id="prefix__Path_2029" d="M39.518 73.624l-1.476.861H36.9l-1.494-.861a.4.4 0 0 1-.246-.334v.51a.457.457 0 0 0 .246.351l1.476.843h1.054l1.476-.843v-.51s.106-.052.106-.017z" class="prefix__cls-8" data-name="Path 2029" transform="translate(-34.94 -72.209)"/>
        </g>
        <g id="prefix__Group_548" data-name="Group 548" transform="translate(58.191 125.762)">
            <path id="prefix__Path_2030" d="M37.482 72.574c.316.176.316.474 0 .668l-1.476.861a1.336 1.336 0 0 1-1.16 0l-1.494-.861c-.316-.193-.316-.492 0-.668l1.494-.861a1.2 1.2 0 0 1 1.142 0z" class="prefix__cls-7" data-name="Path 2030" transform="translate(-33.115 -71.567)"/>
            <path id="prefix__Path_2031" d="M37.6 72.486v.088l-1.476.861h-1.142l-1.494-.861a.439.439 0 0 1-.228-.334v.51a.387.387 0 0 0 .228.334l1.494.861h1.16l1.476-.861v-.6H37.6z" class="prefix__cls-8" data-name="Path 2031" transform="translate(-33.005 -71.058)"/>
        </g>
        <g id="prefix__Group_549" data-name="Group 549" transform="translate(54.835 123.771)">
            <path id="prefix__Path_2032" d="M35.572 71.428c.316.193.316.492 0 .668l-1.476.861a1.23 1.23 0 0 1-1.16 0l-1.494-.857c-.316-.176-.316-.474 0-.668l1.476-.861a1.335 1.335 0 0 1 1.16 0z" class="prefix__cls-7" data-name="Path 2032" transform="translate(-31.205 -70.435)"/>
            <path id="prefix__Path_2033" d="M35.68 71.414l-1.476.861h-1.142l-1.494-.861a.387.387 0 0 1-.228-.334v.527a.439.439 0 0 0 .228.334l1.494.861h1.054l1.494-.861v-.6a.123.123 0 0 1 .07.073z" class="prefix__cls-8" data-name="Path 2033" transform="translate(-31.103 -69.946)"/>
        </g>
        <g id="prefix__Group_550" data-name="Group 550" transform="translate(51.461 121.891)">
            <path id="prefix__Path_2034" d="M33.652 70.358a.351.351 0 0 1 0 .668l-1.494.861a1.3 1.3 0 0 1-1.142 0l-1.494-.861c-.316-.193-.316-.474 0-.668L31 69.5a1.336 1.336 0 0 1 1.16 0z" class="prefix__cls-7" data-name="Path 2034" transform="translate(-29.285 -69.365)"/>
            <path id="prefix__Path_2035" d="M33.773 70.314l-1.494.861h-1.124l-1.494-.861c-.158 0-.246-.211-.228-.334a4.935 4.935 0 0 0 0 .51.4.4 0 0 0 .246.334l1.494.861h.843a.334.334 0 0 0 .158 0l1.494-.861v-.58a.158.158 0 0 1 .105.07z" class="prefix__cls-8" data-name="Path 2035" transform="translate(-29.178 -68.899)"/>
        </g>
        <g id="prefix__Group_551" data-name="Group 551" transform="translate(48.115 119.945)">
            <path id="prefix__Path_2036" d="M31.737 69.264c.316.176.316.474 0 .668l-1.476.843a1.2 1.2 0 0 1-1.142 0l-1.494-.843c-.316-.193-.334-.492 0-.668L29.1 68.4a1.2 1.2 0 0 1 1.142 0z" class="prefix__cls-7" data-name="Path 2036" transform="translate(-27.381 -68.257)"/>
            <path id="prefix__Path_2037" d="M31.833 69.211l-1.476.843H29.32l-1.494-.843a.457.457 0 0 1-.246-.351v.527a.4.4 0 0 0 .246.334l1.494.861h.88l-.123.281L31.551 70v-.9a.15.15 0 0 1 .281.105z" class="prefix__cls-8" data-name="Path 2037" transform="translate(-27.231 -67.801)"/>
        </g>
        <g id="prefix__Group_552" data-name="Group 552" transform="translate(44.836 118.007)">
            <path id="prefix__Path_2038" d="M29.882 68.148c.316.193.334.492 0 .668l-1.494.861a1.3 1.3 0 0 1-1.142 0l-1.494-.861c-.316-.176-.316-.474 0-.668l1.476-.861a1.335 1.335 0 0 1 1.16 0z" class="prefix__cls-7" data-name="Path 2038" transform="translate(-25.515 -67.155)"/>
            <path id="prefix__Path_2039" d="M29.958 68.106v.088l-1.494.861a.439.439 0 0 1-.158 0h-.966l-1.494-.861a.4.4 0 0 1-.246-.334v.51a.457.457 0 0 0 .246.351l1.494.843h.879l1.6-.756v-.562a.158.158 0 0 1 .139-.14z" class="prefix__cls-8" data-name="Path 2039" transform="translate(-25.451 -66.62)"/>
        </g>
        <g id="prefix__Group_553" data-name="Group 553" transform="translate(41.396 116.062)">
            <path id="prefix__Path_2040" d="M27.85 67.054c.316.176.316.474 0 .668l-1.476.861a1.335 1.335 0 0 1-1.16 0l-1.406-.861c-.334-.193-.334-.492 0-.668l1.494-.861a1.2 1.2 0 0 1 1.142 0z" class="prefix__cls-7" data-name="Path 2040" transform="translate(-23.558 -66.047)"/>
            <path id="prefix__Path_2041" d="M28.146 66.9l-1.476.861h-1.142l-1.722-.615a.422.422 0 0 1-.246-.334v.51a.387.387 0 0 0 .228.334l1.494.861h1.16l1.476-.861v-.6z" class="prefix__cls-8" data-name="Path 2041" transform="translate(-23.556 -65.47)"/>
        </g>
        <g id="prefix__Group_554" data-name="Group 554" transform="translate(38.018 114.124)">
            <path id="prefix__Path_2042" d="M26 65.938c.334.193.334.492 0 .668l-1.476.861a1.23 1.23 0 0 1-1.16 0l-1.494-.861c-.316-.176-.316-.474 0-.668l1.476-.861a1.335 1.335 0 0 1 1.16 0z" class="prefix__cls-7" data-name="Path 2042" transform="translate(-21.635 -64.945)"/>
            <path id="prefix__Path_2043" d="M26.09 65.894l-1.476.861h-1.072l-1.494-.861a.387.387 0 0 1-.228-.334v.527c0 .176.088.228.246.334l1.494.861h1.072l1.476-.861v-.6a.105.105 0 0 1-.018.073z" class="prefix__cls-8" data-name="Path 2043" transform="translate(-21.495 -64.479)"/>
        </g>
        <g id="prefix__Group_555" data-name="Group 555" transform="translate(34.661 112.191)">
            <path id="prefix__Path_2044" d="M24.092 64.838a.351.351 0 0 1 0 .668l-1.494.861a1.3 1.3 0 0 1-1.142 0l-1.494-.861c-.316-.193-.316-.492 0-.668l1.476-.861a1.335 1.335 0 0 1 1.16 0z" class="prefix__cls-7" data-name="Path 2044" transform="translate(-19.725 -63.845)"/>
            <path id="prefix__Path_2045" d="M24.218 64.794l-1.494.861H21.6l-1.494-.861a.4.4 0 0 1-.246-.334v.51a.4.4 0 0 0 .246.334l1.494.861h1.089l1.476-.861v-.6a.158.158 0 0 1 .053.088z" class="prefix__cls-8" data-name="Path 2045" transform="translate(-19.623 -63.379)"/>
        </g>
        <g id="prefix__Group_556" data-name="Group 556" transform="translate(31.384 110.245)">
            <path id="prefix__Path_2046" d="M22.147 63.726c.316.193.316.492 0 .668l-1.476.861a1.2 1.2 0 0 1-1.142 0l-1.423-.861c-.316-.176-.334-.474 0-.668l1.476-.843a1.2 1.2 0 0 1 1.142 0z" class="prefix__cls-7" data-name="Path 2046" transform="translate(-17.859 -62.737)"/>
            <path id="prefix__Path_2047" d="M22.376 63.6l-1.476.861h-1.265l-1.529-.633a.4.4 0 0 1-.246-.334v.527a.4.4 0 0 0 .246.369l1.476.861h1.16l1.406-.861v-.527a.756.756 0 0 0 .228-.264z" class="prefix__cls-8" data-name="Path 2047" transform="translate(-17.86 -62.167)"/>
        </g>
        <g id="prefix__Group_557" data-name="Group 557" transform="translate(65.606 133.893)">
            <path id="prefix__Path_2048" d="M41.684 77.188c.316.193.316.492 0 .668l-1.476.861a1.2 1.2 0 0 1-1.142 0l-1.494-.861c-.316-.176-.316-.474 0-.668l1.476-.861a1.3 1.3 0 0 1 1.142 0z" class="prefix__cls-7" data-name="Path 2048" transform="translate(-37.335 -76.195)"/>
            <path id="prefix__Path_2049" d="M41.8 77.144L40.327 78H39.22l-1.494-.861a.4.4 0 0 1-.246-.334v.527a.457.457 0 0 0 .246.334l1.476.861h1.054l1.476-.861v-.527h.07z" class="prefix__cls-8" data-name="Path 2049" transform="translate(-37.225 -75.729)"/>
        </g>
        <g id="prefix__Group_558" data-name="Group 558" transform="translate(62.237 131.877)">
            <path id="prefix__Path_2050" d="M39.78 76.124c.316.176.316.474 0 .668l-1.476.861a1.336 1.336 0 0 1-1.16 0l-1.476-.931c-.334-.193-.334-.492 0-.668l1.494-.861a1.2 1.2 0 0 1 1.142 0z" class="prefix__cls-7" data-name="Path 2050" transform="translate(-35.418 -75.047)"/>
            <path id="prefix__Path_2051" d="M39.954 75.968l-1.476.861h-1.16l-1.652-.685a.387.387 0 0 1-.246-.334v.51a.387.387 0 0 0 .228.334l1.494.861h1.212l1.476-.861v-.6z" class="prefix__cls-8" data-name="Path 2051" transform="translate(-35.416 -74.47)"/>
        </g>
        <g id="prefix__Group_559" data-name="Group 559" transform="translate(58.894 130.014)">
            <path id="prefix__Path_2052" d="M37.882 74.994c.316.176.316.474 0 .668l-1.476.843a1.23 1.23 0 0 1-1.16 0l-1.494-.843c-.316-.193-.316-.492 0-.668l1.476-.861a1.23 1.23 0 0 1 1.16 0z" class="prefix__cls-7" data-name="Path 2052" transform="translate(-33.515 -73.987)"/>
            <path id="prefix__Path_2053" d="M37.95 74.941l-1.476.843H35.4l-1.494-.843a.439.439 0 0 1-.228-.351v.72a.387.387 0 0 0 .228.334l1.494.861h1.037l1.476-.861v-.6a.105.105 0 0 1 .035-.105z" class="prefix__cls-8" data-name="Path 2053" transform="translate(-33.39 -73.531)"/>
        </g>
        <g id="prefix__Group_560" data-name="Group 560" transform="translate(55.502 128.076)">
            <path id="prefix__Path_2054" d="M35.952 73.878c.316.193.334.492 0 .668l-1.494.861a1.248 1.248 0 0 1-1.142 0l-1.494-.861c-.316-.176-.316-.474 0-.668l1.476-.861a1.335 1.335 0 0 1 1.16 0z" class="prefix__cls-7" data-name="Path 2054" transform="translate(-31.585 -72.885)"/>
            <path id="prefix__Path_2055" d="M36.078 73.834l-1.494.861H33.46l-1.494-.861a.4.4 0 0 1-.246-.334v.51a.4.4 0 0 0 .246.334l1.494.861h1.14l1.476-.861v-.562a.158.158 0 0 1 .002.052z" class="prefix__cls-8" data-name="Path 2055" transform="translate(-31.483 -72.419)"/>
        </g>
        <g id="prefix__Group_561" data-name="Group 561" transform="translate(52.164 126.131)">
            <path id="prefix__Path_2056" d="M34.034 72.784c.316.176.316.474 0 .668l-1.476.861a1.335 1.335 0 0 1-1.16 0l-1.476-.861c-.316-.193-.316-.492 0-.668l1.476-.861a1.2 1.2 0 0 1 1.142 0z" class="prefix__cls-7" data-name="Path 2056" transform="translate(-29.685 -71.777)"/>
            <path id="prefix__Path_2057" d="M34.13 72.734l-1.476.861a.562.562 0 0 1-.158 0h-.914l-1.476-.861a.457.457 0 0 1-.246-.334v.51a.4.4 0 0 0 .246.334l1.476.861h1.16l1.476-.861v-.527a.753.753 0 0 0-.088.018z" class="prefix__cls-8" data-name="Path 2057" transform="translate(-29.552 -71.306)"/>
        </g>
        <g id="prefix__Group_562" data-name="Group 562" transform="translate(48.794 124.193)">
            <path id="prefix__Path_2058" d="M32.13 71.668c.316.193.316.492 0 .668l-1.476.861a1.23 1.23 0 0 1-1.16 0l-1.476-.861c-.334-.176-.334-.474 0-.668l1.494-.861a1.3 1.3 0 0 1 1.142 0z" class="prefix__cls-7" data-name="Path 2058" transform="translate(-27.767 -70.675)"/>
            <path id="prefix__Path_2059" d="M32.349 71.624l-1.476.861H29.5l-1.476-.861a.387.387 0 0 1-.246-.334v.527c0 .123 0 .228.246.334l1.476.861h1.142l1.476-.861v-.6a1.136 1.136 0 0 1 .231.073z" class="prefix__cls-8" data-name="Path 2059" transform="translate(-27.758 -70.209)"/>
        </g>
        <g id="prefix__Group_563" data-name="Group 563" transform="translate(45.438 122.247)">
            <path id="prefix__Path_2060" d="M30.22 70.574c.316.176.316.474 0 .668l-1.476.843a1.335 1.335 0 0 1-1.16 0l-1.476-.843c-.334-.193-.334-.492 0-.668l1.476-.861a1.23 1.23 0 0 1 1.16 0z" class="prefix__cls-7" data-name="Path 2060" transform="translate(-25.858 -69.567)"/>
            <path id="prefix__Path_2061" d="M30.446 70.418v.088l-1.7 1h-1.129l-1.511-.843a.387.387 0 0 1-.246-.334v.51a.294.294 0 0 0 .228.334l1.494.861a.263.263 0 0 0 .123 0h1.037l1.476-.861v-.58z" class="prefix__cls-8" data-name="Path 2061" transform="translate(-25.856 -68.99)"/>
        </g>
        <g id="prefix__Group_564" data-name="Group 564" transform="translate(42.077 120.244)">
            <path id="prefix__Path_2062" d="M28.312 69.434c.316.176.316.474 0 .668l-1.476.843a1.23 1.23 0 0 1-1.16 0l-1.494-.845c-.316-.193-.316-.492 0-.668l1.494-.861a1.2 1.2 0 0 1 1.142 0z" class="prefix__cls-7" data-name="Path 2062" transform="translate(-23.945 -68.427)"/>
            <path id="prefix__Path_2063" d="M28.393 69.421l-1.476.843h-1.055l-1.494-.843a.439.439 0 0 1-.228-.351v.53a.387.387 0 0 0 .228.334l1.494.861h1.16l1.476-.861v-.6z" class="prefix__cls-8" data-name="Path 2063" transform="translate(-23.797 -67.941)"/>
        </g>
        <g id="prefix__Group_565" data-name="Group 565" transform="translate(38.703 118.376)">
            <path id="prefix__Path_2064" d="M26.392 68.358c.316.176.334.492 0 .668l-1.494.861a1.248 1.248 0 0 1-1.142 0l-1.494-.861c-.316-.176-.316-.474 0-.668l1.476-.861a1.335 1.335 0 0 1 1.16 0z" class="prefix__cls-7" data-name="Path 2064" transform="translate(-22.025 -67.365)"/>
            <path id="prefix__Path_2065" d="M26.518 68.314l-1.494.861H23.9l-1.494-.861a.4.4 0 0 1-.246-.334v.51a.457.457 0 0 0 .246.351l1.494.843h1.037l1.476-.843v-.562a.158.158 0 0 1 .105.035z" class="prefix__cls-8" data-name="Path 2065" transform="translate(-21.923 -66.899)"/>
        </g>
        <g id="prefix__Group_566" data-name="Group 566" transform="translate(35.364 116.431)">
            <path id="prefix__Path_2066" d="M24.474 67.264c.316.176.316.474 0 .668l-1.474.86a1.3 1.3 0 0 1-1.142 0l-1.494-.861c-.316-.193-.316-.492 0-.668l1.476-.861a1.2 1.2 0 0 1 1.142 0z" class="prefix__cls-7" data-name="Path 2066" transform="translate(-20.125 -66.257)"/>
            <path id="prefix__Path_2067" d="M24.593 67.184v.088l-1.476.861H22.01l-1.494-.861a.457.457 0 0 1-.246-.351v.527a.4.4 0 0 0 .246.334l1.476.861h1.16l1.476-.861v-.72a.755.755 0 0 0-.035.123z" class="prefix__cls-8" data-name="Path 2067" transform="translate(-20.015 -65.756)"/>
        </g>
        <g id="prefix__Group_567" data-name="Group 567" transform="translate(31.995 114.493)">
            <path id="prefix__Path_2068" d="M22.57 66.148c.316.193.316.492 0 .668l-1.476.861a1.23 1.23 0 0 1-1.16 0l-1.476-.861c-.334-.176-.334-.474 0-.668l1.494-.861a1.3 1.3 0 0 1 1.142 0z" class="prefix__cls-7" data-name="Path 2068" transform="translate(-18.208 -65.155)"/>
            <path id="prefix__Path_2069" d="M22.683 66.144L21.207 67h-1.125l-1.476-.861a.387.387 0 0 1-.246-.334v.527a.4.4 0 0 0 .228.334l1.494.861h1.054l1.476-.861v-.6z" class="prefix__cls-8" data-name="Path 2069" transform="translate(-18.092 -64.659)"/>
        </g>
        <g id="prefix__Group_568" data-name="Group 568" transform="translate(28.634 112.554)">
            <path id="prefix__Path_2070" d="M20.662 65.051c.316.176.316.474 0 .668l-1.476.861a1.335 1.335 0 0 1-1.16 0l-1.494-.861c-.316-.193-.316-.492 0-.668l1.476-.861a1.283 1.283 0 0 1 1.16 0z" class="prefix__cls-7" data-name="Path 2070" transform="translate(-16.295 -64.051)"/>
            <path id="prefix__Path_2071" d="M20.869 64.9l-1.476.861h-1.142l-1.722-.615a.387.387 0 0 1-.228-.334 4.938 4.938 0 0 1 0 .51.4.4 0 0 0 .246.334l1.494.861a.158.158 0 0 0 .123 0h1.019l1.476-.861v-.6a.158.158 0 0 1 .211-.158z" class="prefix__cls-8" data-name="Path 2071" transform="translate(-16.291 -63.477)"/>
        </g>
        <g id="prefix__Group_569" data-name="Group 569" transform="translate(57.383 133.261)">
            <path id="prefix__Path_2072" d="M37 76.828c.316.193.316.492 0 .668l-1.476.861a1.2 1.2 0 0 1-1.142 0l-1.49-.857c-.316-.176-.316-.474 0-.668l1.476-.861a1.3 1.3 0 0 1 1.142 0z" class="prefix__cls-7" data-name="Path 2072" transform="translate(-32.655 -75.835)"/>
            <path id="prefix__Path_2073" d="M37.13 76.784l-1.476.861H34.53l-1.494-.861a.4.4 0 0 1-.246-.334v.527c0 .123.088.228.246.334l1.494.861h1.037l1.476-.861v-.6a.123.123 0 0 1 .088.07z" class="prefix__cls-8" data-name="Path 2073" transform="translate(-32.553 -75.369)"/>
        </g>
        <g id="prefix__Group_570" data-name="Group 570" transform="translate(54.013 131.328)">
            <path id="prefix__Path_2074" d="M35.1 75.728c.316.176.316.474 0 .668l-1.476.861a1.335 1.335 0 0 1-1.16 0l-1.476-.857c-.334-.193-.334-.492 0-.668l1.476-.861a1.3 1.3 0 0 1 1.142 0z" class="prefix__cls-7" data-name="Path 2074" transform="translate(-30.738 -74.735)"/>
            <path id="prefix__Path_2075" d="M35.228 75.684l-1.476.861h-1.16l-1.476-.861a.4.4 0 0 1-.246-.334v.51a.4.4 0 0 0 .246.334l1.476.861h1.019l1.476-.861v-.58s.141.035.141.07z" class="prefix__cls-8" data-name="Path 2075" transform="translate(-30.637 -74.269)"/>
        </g>
        <g id="prefix__Group_571" data-name="Group 571" transform="translate(50.723 129.382)">
            <path id="prefix__Path_2076" d="M33.161 74.634c.316.176.316.474 0 .668l-1.476.843a1.23 1.23 0 0 1-1.16 0L29.1 75.3c-.316-.193-.316-.492 0-.668l1.476-.861a1.23 1.23 0 0 1 1.16 0z" class="prefix__cls-7" data-name="Path 2076" transform="translate(-28.865 -73.627)"/>
            <path id="prefix__Path_2077" d="M33.386 74.468l-1.476.843h-1.423l-1.388-.58a.439.439 0 0 1-.228-.351v.527a.387.387 0 0 0 .228.334l1.494.861h1.16l1.476-.861v-.6z" class="prefix__cls-8" data-name="Path 2077" transform="translate(-28.861 -73.057)"/>
        </g>
        <g id="prefix__Group_572" data-name="Group 572" transform="translate(47.296 127.444)">
            <path id="prefix__Path_2078" d="M31.282 73.518c.316.193.316.492 0 .668l-1.494.861a1.2 1.2 0 0 1-1.142 0l-1.494-.861c-.316-.176-.316-.474 0-.668l1.476-.861a1.336 1.336 0 0 1 1.16 0z" class="prefix__cls-7" data-name="Path 2078" transform="translate(-26.915 -72.525)"/>
            <path id="prefix__Path_2079" d="M31.474 73.362v.088l-1.494.861a.334.334 0 0 1-.158 0H29.1l-.3.228h-.12l-1.494-.861a.4.4 0 0 1-.246-.334v.51a.4.4 0 0 0 .246.334l1.494.879h.984l1.494-.879v-.562a.206.206 0 0 1 .316-.264z" class="prefix__cls-8" data-name="Path 2079" transform="translate(-26.896 -71.947)"/>
        </g>
        <g id="prefix__Group_573" data-name="Group 573" transform="translate(43.94 125.498)">
            <path id="prefix__Path_2080" d="M29.354 72.441c.316.176.316.474 0 .668l-1.476.861a1.3 1.3 0 0 1-1.142 0l-1.494-.861c-.316-.193-.316-.492 0-.668l1.511-.879a1.23 1.23 0 0 1 1.16 0z" class="prefix__cls-7" data-name="Path 2080" transform="translate(-25.005 -71.417)"/>
            <path id="prefix__Path_2081" d="M29.48 72.381l-1.48.862h-1.12l-1.494-.861a.457.457 0 0 1-.246-.351v.527a.4.4 0 0 0 .246.334l1.494.861h1.142l1.476-.861v-.6a.193.193 0 0 1-.018.089z" class="prefix__cls-8" data-name="Path 2081" transform="translate(-24.903 -70.953)"/>
        </g>
        <g id="prefix__Group_574" data-name="Group 574" transform="translate(40.57 123.561)">
            <path id="prefix__Path_2082" d="M27.45 71.308c.316.193.316.492 0 .668l-1.476.861a1.2 1.2 0 0 1-1.142 0l-1.494-.861c-.334-.176-.334-.474 0-.668l1.494-.861a1.3 1.3 0 0 1 1.142 0z" class="prefix__cls-7" data-name="Path 2082" transform="translate(-23.088 -70.315)"/>
            <path id="prefix__Path_2083" d="M27.57 71.264l-1.476.861H24.97l-1.494-.861a.4.4 0 0 1-.246-.334v.527c0 .123.088.228.246.334l1.494.861h1.037l1.476-.861v-.51s.087-.035.087-.017z" class="prefix__cls-8" data-name="Path 2083" transform="translate(-22.98 -69.849)"/>
        </g>
        <g id="prefix__Group_575" data-name="Group 575" transform="translate(37.214 121.621)">
            <path id="prefix__Path_2084" d="M25.54 70.211c.316.176.316.474 0 .668l-1.476.861a1.336 1.336 0 0 1-1.16 0l-1.476-.861c-.334-.193-.334-.492 0-.668l1.494-.861a1.248 1.248 0 0 1 1.142 0z" class="prefix__cls-7" data-name="Path 2084" transform="translate(-21.177 -69.211)"/>
            <path id="prefix__Path_2085" d="M25.653 70.144L24.177 71h-1.125l-1.476-.861a.387.387 0 0 1-.246-.334v.51a.387.387 0 0 0 .228.334l1.494.861h1.125l1.476-.861v-.51z" class="prefix__cls-8" data-name="Path 2085" transform="translate(-21.062 -68.758)"/>
        </g>
        <g id="prefix__Group_576" data-name="Group 576" transform="translate(33.858 119.681)">
            <path id="prefix__Path_2086" d="M23.63 69.1c.316.193.316.492 0 .668l-1.476.861a1.23 1.23 0 0 1-1.16 0l-1.476-.861c-.334-.176-.334-.474 0-.668l1.494-.843a1.2 1.2 0 0 1 1.142 0z" class="prefix__cls-7" data-name="Path 2086" transform="translate(-19.267 -68.107)"/>
            <path id="prefix__Path_2087" d="M23.69 69.054l-1.476.861h-1l-1.476-.861a.4.4 0 0 1-.246-.334v.527a.387.387 0 0 0 .246.334l1.476.861h1.142l1.476-.861v-.6z" class="prefix__cls-8" data-name="Path 2087" transform="translate(-19.099 -67.643)"/>
        </g>
        <g id="prefix__Group_577" data-name="Group 577" transform="translate(30.488 117.832)">
            <path id="prefix__Path_2088" d="M21.7 67.96c.334.193.334.492 0 .668l-1.494.861a1.248 1.248 0 0 1-1.142 0l-1.476-.773c-.316-.176-.316-.474 0-.668l1.476-.861a1.336 1.336 0 0 1 1.16 0z" class="prefix__cls-7" data-name="Path 2088" transform="translate(-17.346 -67.055)"/>
            <path id="prefix__Path_2089" d="M22.007 67.848l-1.494.861h-1.125l-1.788-.527a.4.4 0 0 1-.246-.334v.527a.457.457 0 0 0 .246.334l1.494.843h1.054l1.494-.843v-.562a.237.237 0 0 1 .369-.3z" class="prefix__cls-8" data-name="Path 2089" transform="translate(-17.35 -66.521)"/>
        </g>
        <g id="prefix__Group_578" data-name="Group 578" transform="translate(27.14 115.798)">
            <path id="prefix__Path_2090" d="M19.794 66.9c.316.176.316.474 0 .668l-1.476.861a1.3 1.3 0 0 1-1.142 0l-1.494-.861c-.316-.193-.316-.492 0-.668l1.476-.861a1.2 1.2 0 0 1 1.142 0z" class="prefix__cls-7" data-name="Path 2090" transform="translate(-15.445 -65.897)"/>
            <path id="prefix__Path_2091" d="M19.92 66.816v.084l-1.476.861H17.32l-1.494-.861a.457.457 0 0 1-.246-.334v.756a.4.4 0 0 0 .246.334l1.494.861h.914l1.476-.861v-.527a.193.193 0 0 1 .211-.316z" class="prefix__cls-8" data-name="Path 2091" transform="translate(-15.343 -65.388)"/>
        </g>
        <g id="prefix__Group_579" data-name="Group 579" transform="translate(23.753 113.861)">
            <path id="prefix__Path_2092" d="M17.88 65.788c.316.193.316.492 0 .668l-1.476.861a1.23 1.23 0 0 1-1.16 0l-1.476-.861c-.334-.176-.334-.474 0-.668l1.494-.861a1.3 1.3 0 0 1 1.142 0z" class="prefix__cls-7" data-name="Path 2092" transform="translate(-13.517 -64.795)"/>
            <path id="prefix__Path_2093" d="M17.942 65.744l-1.476.861h-.984l-1.476-.861a.4.4 0 0 1-.246-.334v.51a.457.457 0 0 0 .228.351l1.494.861h1.054l1.16-.685v-.51a.756.756 0 0 1 .246-.193z" class="prefix__cls-8" data-name="Path 2093" transform="translate(-13.334 -64.329)"/>
        </g>
        <g id="prefix__Group_580" data-name="Group 580" transform="translate(32.834 107.112)">
            <path id="prefix__Path_2094" d="M23.052 61.948c.334.193.334.492 0 .668l-1.494.861a1.2 1.2 0 0 1-1.142 0l-1.494-.861c-.316-.176-.316-.474 0-.668l1.476-.861a1.335 1.335 0 0 1 1.16 0z" class="prefix__cls-7" data-name="Path 2094" transform="translate(-18.685 -60.955)"/>
            <path id="prefix__Path_2095" d="M23.17 61.9l-1.494.861a.334.334 0 0 1-.158 0h-.966l-1.494-.861a.387.387 0 0 1-.228-.334v.51a.4.4 0 0 0 .246.334l1.494.879h1.054l1.494-.879v-.6a.158.158 0 0 1 .053.088z" class="prefix__cls-8" data-name="Path 2095" transform="translate(-18.575 -60.489)"/>
        </g>
        <g id="prefix__Group_581" data-name="Group 581" transform="translate(36.212 109.033)">
            <path id="prefix__Path_2096" d="M24.97 63.054a.369.369 0 0 1 0 .685l-1.476.843a1.23 1.23 0 0 1-1.16 0l-1.476-.861c-.334-.193-.334-.492 0-.685l1.476-.843a1.23 1.23 0 0 1 1.16 0z" class="prefix__cls-7" data-name="Path 2096" transform="translate(-20.608 -62.047)"/>
            <path id="prefix__Path_2097" d="M25.2 62.923l-1.476.843h-1.058l-1.81-.615a.422.422 0 0 1-.246-.351v.527a.387.387 0 0 0 .228.334l1.494.861H23.4l1.476-.861v-.6z" class="prefix__cls-8" data-name="Path 2097" transform="translate(-20.606 -61.477)"/>
        </g>
        <g id="prefix__Group_582" data-name="Group 582" transform="translate(39.569 110.99)">
            <path id="prefix__Path_2098" d="M26.88 64.161c.316.176.316.474 0 .668l-1.476.861a1.335 1.335 0 0 1-1.16 0l-1.476-.861c-.334-.193-.334-.492 0-.668l1.494-.861a1.248 1.248 0 0 1 1.142 0z" class="prefix__cls-7" data-name="Path 2098" transform="translate(-22.517 -63.161)"/>
            <path id="prefix__Path_2099" d="M27 64.144L25.524 65h-1.142l-1.476-.861a.4.4 0 0 1-.246-.334v.51a.387.387 0 0 0 .246.334l1.476.861h.791l1.6-.668v-.58z" class="prefix__cls-8" data-name="Path 2099" transform="translate(-22.41 -62.67)"/>
        </g>
        <g id="prefix__Group_583" data-name="Group 583" transform="translate(42.925 112.947)">
            <path id="prefix__Path_2100" d="M28.79 65.268c.316.193.316.492 0 .668l-1.476.861a1.23 1.23 0 0 1-1.16 0l-1.476-.861c-.334-.176-.334-.474 0-.668l1.494-.861a1.3 1.3 0 0 1 1.142 0z" class="prefix__cls-7" data-name="Path 2100" transform="translate(-24.427 -64.275)"/>
            <path id="prefix__Path_2101" d="M28.87 65.224l-1.476.861h-1.142l-1.476-.861a.387.387 0 0 1-.246-.334v.527a.439.439 0 0 0 .228.334l1.494.861h1.019l1.476-.861v-.668a.755.755 0 0 1 .123.141z" class="prefix__cls-8" data-name="Path 2101" transform="translate(-24.35 -63.809)"/>
        </g>
        <g id="prefix__Group_584" data-name="Group 584" transform="translate(46.294 114.867)">
            <path id="prefix__Path_2102" d="M30.694 66.374c.316.176.316.474 0 .668l-1.476.861a1.3 1.3 0 0 1-1.142 0l-1.494-.861c-.316-.193-.316-.492 0-.668l1.476-.861a1.2 1.2 0 0 1 1.142 0z" class="prefix__cls-7" data-name="Path 2102" transform="translate(-26.345 -65.367)"/>
            <path id="prefix__Path_2103" d="M30.87 66.324l-1.476.861H28.27l-1.494-.861c-.158-.105-.246-.211-.246-.334v.51a.4.4 0 0 0 .246.334l1.494.861h1.142l1.476-.861v-.527z" class="prefix__cls-8" data-name="Path 2103" transform="translate(-26.205 -64.896)"/>
        </g>
        <g id="prefix__Group_585" data-name="Group 585" transform="translate(49.651 116.742)">
            <path id="prefix__Path_2104" d="M32.622 67.428c.316.193.316.492 0 .668l-1.476.861a1.283 1.283 0 0 1-1.16 0l-1.494-.857c-.316-.176-.316-.474 0-.668l1.476-.861a1.336 1.336 0 0 1 1.16 0z" class="prefix__cls-7" data-name="Path 2104" transform="translate(-28.255 -66.435)"/>
            <path id="prefix__Path_2105" d="M32.74 67.424l-1.476.861h-1.142l-1.494-.861a.387.387 0 0 1-.228-.334v.527a.439.439 0 0 0 .228.334l1.494.861h1.16l1.476-.861v-.6z" class="prefix__cls-8" data-name="Path 2105" transform="translate(-28.145 -65.938)"/>
        </g>
        <g id="prefix__Group_586" data-name="Group 586" transform="translate(53.011 118.75)">
            <path id="prefix__Path_2106" d="M34.53 68.584c.316.176.316.474 0 .668l-1.476.843a1.23 1.23 0 0 1-1.16 0l-1.476-.843c-.334-.193-.334-.492 0-.668l1.494-.861a1.2 1.2 0 0 1 1.142 0z" class="prefix__cls-7" data-name="Path 2106" transform="translate(-30.168 -67.577)"/>
            <path id="prefix__Path_2107" d="M34.613 68.541l-1.476.843h-1.055l-1.476-.843a.422.422 0 0 1-.246-.351v.527a.387.387 0 0 0 .246.334l1.476.861h1.142l1.476-.861v-.51a.752.752 0 0 0-.087 0z" class="prefix__cls-8" data-name="Path 2107" transform="translate(-30.022 -67.113)"/>
        </g>
        <g id="prefix__Group_587" data-name="Group 587" transform="translate(56.376 120.69)">
            <path id="prefix__Path_2108" d="M36.436 69.681c.316.193.316.492 0 .668l-1.476.861a1.3 1.3 0 0 1-1.142 0l-1.494-.861a.351.351 0 0 1 0-.668l1.494-.861a1.248 1.248 0 0 1 1.142 0z" class="prefix__cls-7" data-name="Path 2108" transform="translate(-32.082 -68.681)"/>
            <path id="prefix__Path_2109" d="M36.56 69.6v.088l-1.476.861H33.96l-1.494-.861a.4.4 0 0 1-.246-.334v.51a.4.4 0 0 0 .246.334l1.494.861h1.14l1.476-.861v-.58s-.016-.057-.016-.018z" class="prefix__cls-8" data-name="Path 2109" transform="translate(-31.978 -68.175)"/>
        </g>
        <g id="prefix__Group_588" data-name="Group 588" transform="translate(59.724 122.629)">
            <path id="prefix__Path_2110" d="M38.35 70.778c.316.193.316.492 0 .668l-1.476.861a1.23 1.23 0 0 1-1.16 0l-1.476-.861c-.334-.176-.334-.474 0-.668l1.494-.861a1.3 1.3 0 0 1 1.142 0z" class="prefix__cls-7" data-name="Path 2110" transform="translate(-33.987 -69.785)"/>
            <path id="prefix__Path_2111" d="M38.41 70.734l-1.476.861h-1l-1.476-.861a.4.4 0 0 1-.246-.334v.527a.4.4 0 0 0 .246.334l1.476.861h1.089l1.476-.861v-.6s-.089.055-.089.073z" class="prefix__cls-8" data-name="Path 2111" transform="translate(-33.819 -69.319)"/>
        </g>
        <g id="prefix__Group_589" data-name="Group 589" transform="translate(63.023 124.573)">
            <path id="prefix__Path_2112" d="M40.284 71.891c.334.176.334.474 0 .668l-1.494.861a1.3 1.3 0 0 1-1.142 0l-1.548-.862c-.316-.193-.316-.492 0-.668l1.476-.861a1.283 1.283 0 0 1 1.16 0z" class="prefix__cls-7" data-name="Path 2112" transform="translate(-35.865 -70.891)"/>
            <path id="prefix__Path_2113" d="M40.509 71.738l-1.494.861H37.61l-1.51-.615a.387.387 0 0 1-.228-.334v.51a.4.4 0 0 0 .246.334l1.494.861h.966a.334.334 0 0 0 .158 0l1.494-.861v-.6a.161.161 0 0 1 .281-.158z" class="prefix__cls-8" data-name="Path 2113" transform="translate(-35.861 -70.317)"/>
        </g>
        <g id="prefix__Group_590" data-name="Group 590" transform="translate(66.529 126.512)">
            <path id="prefix__Path_2114" d="M42.126 72.988c.334.193.334.492 0 .668l-1.494.861a1.2 1.2 0 0 1-1.142 0l-1.39-.861c-.316-.176-.316-.474 0-.668l1.476-.861a1.335 1.335 0 0 1 1.16 0z" class="prefix__cls-7" data-name="Path 2114" transform="translate(-37.856 -71.995)"/>
            <path id="prefix__Path_2115" d="M42.359 72.838l-1.494.861a.334.334 0 0 1-.158 0h-1.09l-1.511-.615a.4.4 0 0 1-.246-.334v.439a.457.457 0 0 0 .246.351l1.494.86h1l1.494-.861v-.562a.158.158 0 0 1 .264-.141z" class="prefix__cls-8" data-name="Path 2115" transform="translate(-37.86 -71.423)"/>
        </g>
        <g id="prefix__Group_591" data-name="Group 591" transform="translate(69.806 128.45)">
            <path id="prefix__Path_2116" d="M44.092 74.1c.316.176.316.474 0 .668l-1.476.861a1.335 1.335 0 0 1-1.16 0l-1.494-.861c-.316-.193-.316-.492 0-.668l1.476-.861a1.23 1.23 0 0 1 1.16 0z" class="prefix__cls-7" data-name="Path 2116" transform="translate(-39.725 -73.097)"/>
            <path id="prefix__Path_2117" d="M44.17 74.051l-1.476.861h-1.072l-1.494-.861a.439.439 0 0 1-.228-.351v.527a.387.387 0 0 0 .228.334l1.494.861h1.16l1.476-.861v-.6a.105.105 0 0 1-.088.088z" class="prefix__cls-8" data-name="Path 2117" transform="translate(-39.592 -72.641)"/>
        </g>
        <g id="prefix__Group_592" data-name="Group 592" transform="translate(61.253 139.516)">
            <path id="prefix__Path_2118" d="M39.185 80.458c.316.193.316.492 0 .668l-1.476.861a1.23 1.23 0 0 1-1.16 0l-1.441-.931c-.334-.176-.334-.474 0-.668l1.494-.861a1.3 1.3 0 0 1 1.142 0z" class="prefix__cls-7" data-name="Path 2118" transform="translate(-34.858 -79.395)"/>
            <path id="prefix__Path_2119" d="M39.411 80.238l-1.476.861h-1.3l-1.529-.615a.387.387 0 0 1-.246-.334v.527a.422.422 0 0 0 .246.334l1.476.843h1.054l1.476-.843v-.6a.755.755 0 0 1 .3-.176z" class="prefix__cls-8" data-name="Path 2119" transform="translate(-34.856 -78.823)"/>
        </g>
        <g id="prefix__Group_593" data-name="Group 593" transform="translate(57.98 137.653)">
            <path id="prefix__Path_2120" d="M37.362 79.328c.316.176.316.474 0 .668l-1.476.861a1.336 1.336 0 0 1-1.16 0L33.232 80c-.316-.193-.316-.492 0-.668l1.476-.861a1.336 1.336 0 0 1 1.16 0z" class="prefix__cls-7" data-name="Path 2120" transform="translate(-32.995 -78.335)"/>
            <path id="prefix__Path_2121" d="M37.47 79.284l-1.476.861h-1.142l-1.494-.861a.387.387 0 0 1-.228-.334v.51a.387.387 0 0 0 .228.334l1.494.861h.826a.334.334 0 0 0 .158 0l1.494-.861v-.58a.158.158 0 0 1 .141.07z" class="prefix__cls-8" data-name="Path 2121" transform="translate(-32.893 -77.869)"/>
        </g>
        <g id="prefix__Group_594" data-name="Group 594" transform="translate(54.751 135.791)">
            <path id="prefix__Path_2122" d="M35.52 78.268c.316.193.316.492 0 .668l-1.476.861a1.23 1.23 0 0 1-1.16 0l-1.476-.861c-.334-.176-.334-.474 0-.668l1.494-.861a1.3 1.3 0 0 1 1.142 0z" class="prefix__cls-7" data-name="Path 2122" transform="translate(-31.158 -77.275)"/>
            <path id="prefix__Path_2123" d="M35.64 78.224l-1.476.861h-1.142l-1.476-.861a.4.4 0 0 1-.246-.334v.51a.457.457 0 0 0 .228.351l1.494.843h1.142l1.476-.843v-.668z" class="prefix__cls-8" data-name="Path 2123" transform="translate(-31.05 -76.809)"/>
        </g>
        <g id="prefix__Group_595" data-name="Group 595" transform="translate(51.518 133.928)">
            <path id="prefix__Path_2124" d="M33.68 77.208c.316.193.316.492 0 .668l-1.476.861a1.336 1.336 0 0 1-1.16 0l-1.476-.861c-.334-.176-.334-.474 0-.668l1.494-.861a1.3 1.3 0 0 1 1.142 0z" class="prefix__cls-7" data-name="Path 2124" transform="translate(-29.318 -76.215)"/>
            <path id="prefix__Path_2125" d="M33.8 77.144L32.324 78h-1.142l-1.476-.861a.4.4 0 0 1-.246-.334v.51a.422.422 0 0 0 .246.351l1.476.843h1.142l1.476-.843v-.527z" class="prefix__cls-8" data-name="Path 2125" transform="translate(-29.21 -75.764)"/>
        </g>
        <g id="prefix__Group_596" data-name="Group 596" transform="translate(22.607 117.151)">
            <path id="prefix__Path_2126" d="M17.126 67.674c.334.176.334.474 0 .668l-1.476.858a1.335 1.335 0 0 1-1.16 0l-1.39-.859c-.316-.193-.316-.492 0-.668l1.476-.861a1.23 1.23 0 0 1 1.16 0z" class="prefix__cls-7" data-name="Path 2126" transform="translate(-12.865 -66.667)"/>
            <path id="prefix__Path_2127" d="M17.351 67.518l-1.476.861H14.61l-1.51-.615a.4.4 0 0 1-.228-.334v.51a.4.4 0 0 0 .246.334l1.494.861h1l1.476-.861v-.562a.163.163 0 0 1 .264-.193z" class="prefix__cls-8" data-name="Path 2127" transform="translate(-12.861 -66.09)"/>
        </g>
        <g id="prefix__Group_597" data-name="Group 597" transform="translate(19.18 115.248)">
            <path id="prefix__Path_2128" d="M15.282 66.578c.316.193.316.492 0 .668l-1.476.861a1.283 1.283 0 0 1-1.16 0l-1.494-.861c-.316-.176-.316-.474 0-.668l1.476-.861a1.335 1.335 0 0 1 1.16 0z" class="prefix__cls-7" data-name="Path 2128" transform="translate(-10.915 -65.585)"/>
            <path id="prefix__Path_2129" d="M15.391 66.534l-1.476.861h-1.142l-1.494-.861c-.158 0-.246-.211-.228-.334v.51a.457.457 0 0 0 .246.351l1.494.861h.9a.334.334 0 0 0 .158 0l1.494-.861V66.5a.123.123 0 0 1 .048.034z" class="prefix__cls-8" data-name="Path 2129" transform="translate(-10.814 -65.119)"/>
        </g>
        <g id="prefix__Group_598" data-name="Group 598" transform="translate(15.565 113.175)">
            <path id="prefix__Path_2130" d="M13.273 65.451c.316.193.316.492 0 .668l-1.476.861a1.23 1.23 0 0 1-1.16 0l-1.529-.914c-.334-.176-.334-.474 0-.668l1.494-.861a1.3 1.3 0 0 1 1.142 0z" class="prefix__cls-7" data-name="Path 2130" transform="translate(-8.858 -64.405)"/>
            <path id="prefix__Path_2131" d="M13.5 65.248l-1.476.861H10.9l-1.792-.615a.387.387 0 0 1-.246-.334v.527a.4.4 0 0 0 .228.334l1.494.861h1.142l1.476-.861v-.6z" class="prefix__cls-8" data-name="Path 2131" transform="translate(-8.856 -63.833)"/>
        </g>
        <path id="prefix__Path_2132" fill="#bebed3" d="M26.4 83.511a2.689 2.689 0 0 1-2.425 0L13.271 77.4a.738.738 0 0 1 0-1.406l6.59-3.866a2.689 2.689 0 0 1 2.425 0l10.7 6.186c.668.387.685 1.019 0 1.406z" data-name="Path 2132" transform="translate(9.661 54.397)"/>
        <path id="prefix__Path_2133" d="M50.588 75.992a2.811 2.811 0 0 1-1.318-.316.984.984 0 0 1-.58-.843.966.966 0 0 1 .58-.826 2.935 2.935 0 0 1 2.653 0 .966.966 0 0 1 .58.826.984.984 0 0 1-.58.843 2.829 2.829 0 0 1-1.335.316zm0-2.074a2.618 2.618 0 0 0-1.212.281.668.668 0 0 0 0 1.265 2.425 2.425 0 0 0 1.212.3 2.337 2.337 0 0 0 1.212-.3.65.65 0 0 0 0-1.265 2.531 2.531 0 0 0-1.212-.3z" class="prefix__cls-6" data-name="Path 2133" transform="translate(36.87 55.801)"/>
        <path id="prefix__Path_2134" fill="#11111e" d="M65.456 81.449l-1.669.966a2.126 2.126 0 0 1-1.9 0L24.284 60.7a.58.58 0 0 1 0-1.089l1.652-.966z" data-name="Path 2134" transform="translate(18.1 44.405)"/>
        <path id="prefix__Path_2135" d="M72.324 67.4L22.05 38.42v-3.55l50.274 28.977z" class="prefix__cls-12" data-name="Path 2135" transform="translate(16.697 26.405)"/>
        <path id="prefix__Path_2136" fill="url(#prefix__linear-gradient)" d="M103.691 64.587h-.176l-.369.158-.3.088h-.9l-.615.088h-3.11l-.422-.105h-.228l-.422-.105h-.246l-.4-.141-.246-.105-.474-.176h-.193c-.211-.105-.439-.193-.65-.316l-.808-.51-48.8-28.2-.6-.351-.58-.387-.193-.141-.439-.264-.228-.176-.334-.264-.264-.211-.316-.264-.264-.228-.316-.281-.246-.334-.316-.3-.246-.228-.316-.334-.211-.228-.369-.4-.141-.158-.51-.6-.123-.141-.369-.457-.316-.422-.176-.246-.562-.861a2.285 2.285 0 0 0-.176-.264l-.334-.51-.176-.281-.334-.562a3.058 3.058 0 0 1-.193-.316l-.545-.843c0-.123-.123-.228-.176-.351a2.252 2.252 0 0 0-.193-.351l-.246-.527-.084-.182-.316-.685a.738.738 0 0 0 0-.176l-.211-.51a1.967 1.967 0 0 1-.088-.228c0-.176-.141-.334-.193-.51a1.072 1.072 0 0 1-.088-.211c-.088-.228-.158-.457-.228-.668a2.647 2.647 0 0 0-.228-.72v-.228a1.731 1.731 0 0 0-.141-.492c-.053-.158 0-.176 0-.264l-.105-.474a1.459 1.459 0 0 1 0-.264l-.105-.474v-.246l-.105-.6a.228.228 0 0 0 0-.105 1.935 1.935 0 0 0-.088-.7c-.088-.228 0-.123 0-.193v-.51a1 1 0 0 0 0-.228v-2.039a.79.79 0 0 0 0-.193v-1.09a1.353 1.353 0 0 0 0-.264 1.863 1.863 0 0 1 0-.334v-1.177a.527.527 0 0 1 .123-.387c.123-.123 0-.158.088-.228a4.833 4.833 0 0 1 .264-.633 6.063 6.063 0 0 1 .369-.808v-.105a6.52 6.52 0 0 1 .4-.562.316.316 0 0 0 .088-.123 5.4 5.4 0 0 1 .439-.457l.51-.439h.123a5.131 5.131 0 0 1 .7-.474L17.885 16.877a3.866 3.866 0 0 0-.562.369H17.2a6.1 6.1 0 0 0-.51.439l-.422.457-.088.123a6.7 6.7 0 0 0-.422.562l-.422.756a6.888 6.888 0 0 0-.281.633v.141a1.421 1.421 0 0 1-.123.387.439.439 0 0 0 0 .123.545.545 0 0 0 0 .141 3.164 3.164 0 0 0 0 .334v.6a.51.51 0 0 1 0 .158.492.492 0 0 1 0 .158 1.757 1.757 0 0 0 0 .281v.158a1.09 1.09 0 0 1 0 .228v.246a.228.228 0 0 0 0 .105 2.126 2.126 0 0 0 0 .334V25.301a1.336 1.336 0 0 1 0 .264V26a.492.492 0 0 1 0 .158 2.39 2.39 0 0 0 0 .351v.191a2.1 2.1 0 0 0 .088.615v.105a1.082 1.082 0 0 0 .088.492c.088.158 0 0 0 .105v1.195a1.3 1.3 0 0 0 0 .246 1.651 1.651 0 0 0 0 .281v.123a3.408 3.408 0 0 1 0 .351l.088.246a2.181 2.181 0 0 0 .193.633s.123.369.193.562a.879.879 0 0 0 .088.228 1.493 1.493 0 0 0 .105.3v.193l.105.246v.158l.158.351v.176l.264.6.088.193.211.422a3.723 3.723 0 0 0 .193.369l.141.281.474.843a.439.439 0 0 0 0 .123l.105.193.351.545.176.3.334.51.105.158v.105l.633.9.176.228.316.4.351.439.123.141.457.545.158.158.316.351.211.211.228.264.246.246a2 2 0 0 1 .193.193l.105.105.264.228.176.176.141.123.264.228.141.123.176.123a1.511 1.511 0 0 0 .246.228l.123.105.211.158.246.176h.105l.281.211.193.141.527.351.492.3h.105l48.872 28.116h.123l.6.3.58.281h.228l.3.123h.387l.211.088h1.195l.334.088h3.04l.615-.088h1.125a1.494 1.494 0 0 0 .387-.158h.176l.545-.281 18.767-10.895a5.272 5.272 0 0 1 .522 2.213z" data-name="Path 2136" transform="translate(11.303 4.543)"/>
        <path id="prefix__Path_2137" d="M41.716 10.748l-.216-.861a1.579 1.579 0 0 0-.141-.791 5.536 5.536 0 0 1 0-.756V6.672l.105-.72s.105-.439.158-.65a.246.246 0 0 0 0-.123 1.6 1.6 0 0 1 .228-.58 3.514 3.514 0 0 1 .316-.562V3.93l.334-1.054.123-.141.281-.264.141-.123.457-.3-18.814 10.897-.457.316-.123.105c-.105 0-.193.193-.281.281l-.123.141-.281.369-.088.105c-.105.176-.193.351-.281.527 0 .141-.123.264-.176.4v.176a.334.334 0 0 0 0 .123.246.246 0 0 0 0 .123 2.478 2.478 0 0 0-.105.387v.123a.228.228 0 0 1 0 .105.422.422 0 0 1 0 .141v.369a.861.861 0 0 1 0 .211.755.755 0 0 1 0 .088v.738a2.479 2.479 0 0 0 0 .351 2.6 2.6 0 0 0 0 .369v.158a.861.861 0 0 1 0 .211v.756a3.251 3.251 0 0 0 0 .4v.281l.105.422.105.4a.58.58 0 0 1 0 .3.334.334 0 0 1 0 .123l18.627-10.55v-.246h.105z" class="prefix__cls-14" data-name="Path 2137" transform="translate(17.239 1.552)"/>
        <path id="prefix__Path_2138" d="M49.676 9.521a2.635 2.635 0 0 1 0-.387 3.918 3.918 0 0 0 0-.4 2.726 2.726 0 0 1 0-.369v-.724a.892.892 0 0 1 .123-.51c.123-.176 0-.176 0-.264l.211-.633v-.157c.123-.281.228-.562.351-.826l.141-.264.141-.281.158-.281.615-.176a1.51 1.51 0 0 1 .123-.176 7.293 7.293 0 0 1 .527-.756 7.029 7.029 0 0 1 .6-.65l.123-.176.633-.545.228-.123c.228-.158.474-.334.72-.474L35.495 12.263a6.168 6.168 0 0 0-.7.474l-.141.105c-.211.158-.422.351-.633.545l-.123.105c-.193.211-.4.422-.58.65-.193.228-.369.492-.545.738v.105l-.211.369-.158.281-.158.281-.088.176c-.123.264-.246.545-.351.826a.439.439 0 0 1 0 .123l-.211.633v.264l-.141.51a.527.527 0 0 0 0 .176v.123a3.515 3.515 0 0 1-.088.422v.231a.3.3 0 0 0 0 .123 3.513 3.513 0 0 0 0 .422 1.2 1.2 0 0 1 0 .246.264.264 0 0 1 0 .123v.4a1.757 1.757 0 0 1 0 .281 1.336 1.336 0 0 1 0 .264.527.527 0 0 1 0 .176l-.105.105 18.17-10.79v-.545z" class="prefix__cls-14" data-name="Path 2138" transform="translate(23.671 1.022)"/>
        <path id="prefix__Path_2139" fill="#abe1ef" d="M60.127 8.568c9.507 5.5 17.133 18.82 17.133 29.75a17.572 17.572 0 0 1 0 2.2c7.96 5.272 14.216 16.571 14.181 25.884l-.492-.281-.492-.281c0-8.927-6.1-19.751-13.777-24.6a1.089 1.089 0 0 1-.369-.422.914.914 0 0 1-.105-.51 17.7 17.7 0 0 0 .176-2.618 32.79 32.79 0 0 0-4.709-15.938A33.212 33.212 0 0 0 60.127 9.71c-8.593-4.955-15.639-1.353-16.254 8a.264.264 0 0 1-.351.3 1 1 0 0 1-.527-.51 16.5 16.5 0 0 0-6.15-7.134 5.518 5.518 0 0 0-5.484-.566 5.447 5.447 0 0 0-2.284 4.991 12.811 12.811 0 0 0 .51 3.515.492.492 0 0 1-.088.51c-.088.088-.228 0-.387 0-.615-.439-1.177-.808-1.757-1.142-3.409-1.968-6.5-2.161-8.786-.879s-3.637 4.024-3.655 7.943a25.2 25.2 0 0 0 3.514 12.143 25.322 25.322 0 0 0 8.786 9.208L76.083 74.2c7.908 4.358 14.216.65 14.251-8.382l.492.281.492.281c0 9.63-6.713 13.6-15.042 9.067L27.25 47.157A29.311 29.311 0 0 1 14 24.1c0-8.488 6.01-11.9 13.39-7.644.351.211.7.422 1.037.65a13.935 13.935 0 0 1-.369-2.9c0-5.535 3.936-7.767 8.786-4.991a17.924 17.924 0 0 1 6.2 6.572c1.145-8.977 8.368-12.245 17.083-7.219z" data-name="Path 2139" transform="translate(10.601 4.7)"/>
        <g id="prefix__Group_599" data-name="Group 599" transform="translate(38.185 19.347)">
            <path id="prefix__Path_2140" d="M22.169 15.186l-.439-.246v22.915l.439.228z" class="prefix__cls-16" data-name="Path 2140" transform="translate(-21.73 -8.034)"/>
            <path id="prefix__Path_2141" d="M22.169 18.162l12.055-6.906-.439-.246-12.055 6.906z" class="prefix__cls-17" data-name="Path 2141" transform="translate(-21.73 -11.01)"/>
            <path id="prefix__Path_2142" d="M21.98 40.953l12.055-6.906V11.15L21.98 18.056z" class="prefix__cls-18" data-name="Path 2142" transform="translate(-21.541 -10.904)"/>
        </g>
        <path id="prefix__Path_2143" fill="#773f12" d="M31.369 12.8l-2.689-1.55.018.562 2.2 1.265z" data-name="Path 2143" transform="translate(21.718 8.519)"/>
        <path id="prefix__Path_2144" d="M24.756 19.722l11.65-6.7-2.688-1.542-11.668 6.7z" class="prefix__cls-20" data-name="Path 2144" transform="translate(16.697 8.693)"/>
        <path id="prefix__Path_2145" d="M24.756 16.836v22.317a3.866 3.866 0 0 0-2.706-1.529V15.29a4.112 4.112 0 0 1 2.706 1.546z" class="prefix__cls-21" data-name="Path 2145" transform="translate(16.697 11.578)"/>
        <g id="prefix__Group_600" data-name="Group 600" transform="translate(41.295 21.14)">
            <path id="prefix__Path_2146" d="M23.939 16.206l-.439-.246v22.915l.439.246z" class="prefix__cls-16" data-name="Path 2146" transform="translate(-23.5 -9.054)"/>
            <path id="prefix__Path_2147" d="M23.939 19.182l12.037-6.906-.422-.246L23.5 18.936z" class="prefix__cls-17" data-name="Path 2147" transform="translate(-23.5 -12.03)"/>
            <path id="prefix__Path_2148" d="M23.75 41.991l12.037-6.924V12.17L23.75 19.076z" class="prefix__cls-18" data-name="Path 2148" transform="translate(-23.311 -11.924)"/>
        </g>
        <path id="prefix__Path_2149" d="M31.359 12.855l-2.689-1.547.3-.158 2.687 1.55z" class="prefix__cls-17" data-name="Path 2149" transform="translate(21.71 8.443)"/>
        <path id="prefix__Path_2150" d="M23.67 24.465l.053 19.576L35.2 37.433l-.055-19.593z" class="prefix__cls-22" data-name="Path 2150" transform="translate(17.924 13.509)"/>
        <path id="prefix__Path_2151" d="M23.22 21.64l.053 19.576 4.85 2.829-.053-19.593z" class="prefix__cls-23" data-name="Path 2151" transform="translate(17.583 16.387)"/>
        <g id="prefix__Group_601" data-name="Group 601" transform="translate(41.875 31.753)">
            <path id="prefix__Path_2152" d="M34.988 18.07L23.83 24.484l3.936 2.249L38.925 20.3a7.609 7.609 0 0 1-2.267-.949 4.534 4.534 0 0 1-1.67-1.281z" class="prefix__cls-21" data-name="Path 2152" transform="translate(-23.83 -18.07)"/>
        </g>
        <path id="prefix__Path_2153" fill="#097d90" d="M39.984 20.542l-.387-.228-11.457 6.624-4.13-2.39 11.475-6.625-.351-.193L23.22 24.6l4.85 2.812z" data-name="Path 2153" transform="translate(17.583 13.426)"/>
        <path id="prefix__Path_2154" d="M25.98 26.2l.053 19.593 11.914-6.888-.053-19.575z" class="prefix__cls-22" data-name="Path 2154" transform="translate(19.673 14.638)"/>
        <path id="prefix__Path_2155" d="M26.363 44.361l10.754-6.221-.053-18.24-10.754 6.221z" class="prefix__cls-25" data-name="Path 2155" transform="translate(19.923 15.069)"/>
        <path id="prefix__Path_2156" d="M26.8 42.432l9.208-5.307-.05-16.465-9.208 5.324z" class="prefix__cls-23" data-name="Path 2156" transform="translate(20.256 15.645)"/>
        <g id="prefix__Group_602" data-name="Group 602" transform="translate(52.559 18.381)">
            <path id="prefix__Path_2157" d="M29.98 15.49l-.07 30.172 3.321 1.915.088-30.172z" class="prefix__cls-26" data-name="Path 2157" transform="translate(-29.91 -6.651)"/>
            <path id="prefix__Path_2158" d="M31.8 50.569l15.446-8.962V11.54L31.888 20.4z" class="prefix__cls-27" data-name="Path 2158" transform="translate(-28.479 -9.642)"/>
            <path id="prefix__Path_2159" d="M33.289 21.214l15.358-8.857-.351-.246-.369.246-2.636-1.511v-.386L29.95 19.3z" class="prefix__cls-28" data-name="Path 2159" transform="translate(-29.88 -10.46)"/>
            <path id="prefix__Path_2160" d="M30.43 19.132l2.653 1.511 14.48-8.452-2.636-1.511z" class="prefix__cls-29" data-name="Path 2160" transform="translate(-29.516 -10.293)"/>
        </g>
        <path id="prefix__Path_2161" d="M30.39 43.023l1.7 1V18.334l-1.7-.984z" class="prefix__cls-30" data-name="Path 2161" transform="translate(23.012 13.138)"/>
        <path id="prefix__Path_2162" d="M32.29 21.75l-.07 22.089 4.288 2.478.053-22.089z" class="prefix__cls-31" data-name="Path 2162" transform="translate(24.398 16.47)"/>
        <path id="prefix__Path_2163" d="M34.66 48.861l14.567-8.4.073-22.071-14.587 8.382z" class="prefix__cls-32" data-name="Path 2163" transform="translate(26.246 13.926)"/>
        <path id="prefix__Path_2164" d="M32.26 25.362l4.27 2.478 14.585-8.382-.422-.246-.861.457-2.671-1.529v-.966l-.334-.193z" class="prefix__cls-33" data-name="Path 2164" transform="translate(24.428 12.858)"/>
        <path id="prefix__Path_2165" d="M32.71 25.279l.756.439 2.723 1.582 13.25-7.714-2.618-1.529v-.967z" class="prefix__cls-32" data-name="Path 2165" transform="translate(24.769 12.941)"/>
        <path id="prefix__Path_2166" d="M33.17 25.337l2.671 1.546 13.3-7.714-2.669-1.529z" class="prefix__cls-29" data-name="Path 2166" transform="translate(25.117 13.358)"/>
        <path id="prefix__Path_2167" d="M35.321 43.179l-2.636-1.529V23.094a.088.088 0 0 1 0-.088.105.105 0 0 1 .105 0l2.618 1.529a.088.088 0 0 1 0 .088v18.468zm-2.5-19.91V41.51l2.443 1.406V24.763z" class="prefix__cls-32" data-name="Path 2167" transform="translate(24.741 17.411)"/>
        <g id="prefix__Group_603" data-name="Group 603" transform="translate(61.205 26.657)">
            <path id="prefix__Path_2168" d="M34.918 20.67l-.088 28.344 3.848 2.2.088-28.344z" class="prefix__cls-34" data-name="Path 2168" transform="translate(-34.83 -11.005)"/>
            <path id="prefix__Path_2169" d="M37.02 54.376l16.413-9.542.087-28.344-16.412 9.542z" class="prefix__cls-35" data-name="Path 2169" transform="translate(-33.172 -14.17)"/>
            <path id="prefix__Path_2170" d="M34.88 24.835l3.848 2.2 16.413-9.545-.264-.158-.316.158-3.061-1.723v-.6z" class="prefix__cls-36" data-name="Path 2170" transform="translate(-34.792 -15.17)"/>
            <path id="prefix__Path_2171" d="M35.33 24.585l3.058 1.74L54.22 17.24l-3.057-1.74z" class="prefix__cls-35" data-name="Path 2171" transform="translate(-34.451 -14.92)"/>
            <path id="prefix__Path_2172" d="M35.33 24.585l3.058 1.74L54.22 17.24l-3.057-1.74z" class="prefix__cls-29" data-name="Path 2172" transform="translate(-34.451 -14.92)"/>
        </g>
        <path id="prefix__Path_2173" d="M34.94 22.94l3.55 2.021v-1.81l-3.55-2.021z" class="prefix__cls-36" data-name="Path 2173" transform="translate(26.458 16.001)"/>
        <path id="prefix__Path_2174" d="M34.94 24.692l3.55 2.021v-1.792L34.94 22.9z" class="prefix__cls-36" data-name="Path 2174" transform="translate(26.458 17.341)"/>
        <path id="prefix__Path_2175" d="M34.94 26.47l3.55 2.021v-1.81l-3.55-2.021z" class="prefix__cls-36" data-name="Path 2175" transform="translate(26.458 18.674)"/>
        <path id="prefix__Path_2176" d="M34.94 28.23l3.55 2.021v-1.81l-3.55-2.021z" class="prefix__cls-36" data-name="Path 2176" transform="translate(26.458 20.007)"/>
        <path id="prefix__Path_2177" d="M34.94 29.982L38.49 32v-1.789l-3.55-2.021z" class="prefix__cls-36" data-name="Path 2177" transform="translate(26.458 21.347)"/>
        <path id="prefix__Path_2178" d="M34.94 31.76l3.55 2.021v-1.81l-3.55-2.021z" class="prefix__cls-36" data-name="Path 2178" transform="translate(26.458 22.68)"/>
        <path id="prefix__Path_2179" fill="#aa7100" d="M38.388 22.5l.334-.193-3.04-1.757-.351.211z" data-name="Path 2179" transform="translate(26.753 15.561)"/>
        <g id="prefix__Group_604" data-name="Group 604" transform="translate(69.376 27.448)">
            <path id="prefix__Path_2180" d="M39.568 20.65l-.088 30.172 3.32 1.915.088-30.172z" class="prefix__cls-26" data-name="Path 2180" transform="translate(-39.48 -11.811)"/>
            <path id="prefix__Path_2181" d="M41.37 55.721l15.464-8.944V16.71l-15.376 8.839z" class="prefix__cls-27" data-name="Path 2181" transform="translate(-38.049 -14.795)"/>
            <path id="prefix__Path_2182" d="M42.851 26.374l15.376-8.839-.351-.246-.369.246-2.653-1.529v-.386L39.53 24.459z" class="prefix__cls-28" data-name="Path 2182" transform="translate(-39.442 -15.62)"/>
            <path id="prefix__Path_2183" d="M40.01 24.292l2.636 1.508 14.5-8.435-2.656-1.525z" class="prefix__cls-29" data-name="Path 2183" transform="translate(-39.079 -15.453)"/>
        </g>
        <path id="prefix__Path_2184" d="M39.96 48.193l1.722.984V23.5l-1.722-.98z" class="prefix__cls-30" data-name="Path 2184" transform="translate(30.259 17.053)"/>
        <path id="prefix__Path_2185" d="M42.393 26.98l-.053 22.089 4.27 2.478.07-22.089z" class="prefix__cls-31" data-name="Path 2185" transform="translate(32.061 20.431)"/>
        <path id="prefix__Path_2186" d="M44.77 54.091l14.585-8.382.07-22.089L44.84 32z" class="prefix__cls-32" data-name="Path 2186" transform="translate(33.901 17.886)"/>
        <path id="prefix__Path_2187" d="M42.37 30.61l4.288 2.46 14.585-8.382-.422-.246-.861.474-2.671-1.546v-.949l-.334-.211z" class="prefix__cls-33" data-name="Path 2187" transform="translate(32.084 16.818)"/>
        <path id="prefix__Path_2188" d="M42.83 30.509l.756.439 2.724 1.582 13.25-7.7-2.618-1.546v-.964z" class="prefix__cls-32" data-name="Path 2188" transform="translate(32.432 16.902)"/>
        <path id="prefix__Path_2189" d="M43.29 30.567l2.671 1.546 13.3-7.7-2.669-1.543z" class="prefix__cls-29" data-name="Path 2189" transform="translate(32.781 17.318)"/>
        <path id="prefix__Path_2190" d="M45.424 48.4l-2.618-1.511a.105.105 0 0 1 0-.105V28.24h.088l2.636 1.511v18.557a.088.088 0 0 1 0 .088zm-2.478-19.91v18.24l2.443 1.406V29.892z" class="prefix__cls-32" data-name="Path 2190" transform="translate(32.404 21.385)"/>
        <g id="prefix__Group_605" data-name="Group 605" transform="translate(81.782 41.172)">
            <path id="prefix__Path_2191" fill="#b57d00" d="M46.61 25.65l-.07 25.287 3.444 1.951.07-25.287z" data-name="Path 2191" transform="translate(-46.54 -21.749)"/>
            <path id="prefix__Path_2192" fill="#8e5f00" d="M48.5 53.728l6.818-3.884.07-25.3-6.818 3.9z" data-name="Path 2192" transform="translate(-45.056 -22.589)"/>
            <path id="prefix__Path_2193" fill="#d89000" d="M46.58 27.314l3.444 1.968 6.818-3.9-.369-.193-2.723-1.548-.35-.211z" data-name="Path 2193" transform="translate(-46.51 -23.43)"/>
            <path id="prefix__Path_2194" fill="#bc7800" d="M46.99 27.223l.562.334 2.161 1.23 6.449-3.69L54 23.866l-.562-.316z" data-name="Path 2194" transform="translate(-46.199 -23.339)"/>
            <path id="prefix__Path_2195" d="M47.31 27.42l2.161 1.23 6.449-3.69-2.161-1.23z" class="prefix__cls-29" data-name="Path 2195" transform="translate(-45.957 -23.203)"/>
        </g>
        <path id="prefix__Path_2196" d="M46.64 27.659l3.163 1.81v-1.617L46.64 26.06z" class="prefix__cls-42" data-name="Path 2196" transform="translate(35.317 19.734)"/>
        <path id="prefix__Path_2197" d="M46.64 29.247l3.16 1.792v-1.6l-3.16-1.809z" class="prefix__cls-42" data-name="Path 2197" transform="translate(35.317 20.923)"/>
        <path id="prefix__Path_2198" d="M46.64 30.809l3.163 1.81V31l-3.163-1.79z" class="prefix__cls-42" data-name="Path 2198" transform="translate(35.317 22.119)"/>
        <path id="prefix__Path_2199" d="M46.64 32.379l3.163 1.81v-1.6L46.64 30.78z" class="prefix__cls-42" data-name="Path 2199" transform="translate(35.317 23.308)"/>
        <path id="prefix__Path_2200" d="M46.64 33.967l3.163 1.81V34.16l-3.163-1.81z" class="prefix__cls-42" data-name="Path 2200" transform="translate(35.317 24.497)"/>
        <path id="prefix__Path_2201" d="M46.64 35.529l3.163 1.81v-1.617L46.64 33.93z" class="prefix__cls-42" data-name="Path 2201" transform="translate(35.317 25.693)"/>
        <path id="prefix__Path_2202" d="M48.07 29.36L48 51.431l4.288 2.478.07-22.071z" class="prefix__cls-26" data-name="Path 2202" transform="translate(36.347 22.233)"/>
        <path id="prefix__Path_2203" d="M50.44 54.757l7.626-4.446.07-22.071-7.626 4.446z" class="prefix__cls-43" data-name="Path 2203" transform="translate(38.195 21.385)"/>
        <path id="prefix__Path_2204" fill="#e03636" d="M48.04 31.268l4.288 2.478 7.626-4.446-.422-.246-3.479-2-.387-.211z" data-name="Path 2204" transform="translate(36.378 20.325)"/>
        <path id="prefix__Path_2205" d="M48.49 31.177l.756.422 2.741 1.582 7.2-4.217-2.719-1.564-.756-.439z" class="prefix__cls-43" data-name="Path 2205" transform="translate(36.718 20.415)"/>
        <path id="prefix__Path_2206" d="M48.92 31.41l2.741 1.582 7.2-4.217-2.719-1.565z" class="prefix__cls-29" data-name="Path 2206" transform="translate(37.044 20.605)"/>
        <path id="prefix__Path_2207" d="M51.14 50.766l-2.64-1.512V30.7a.105.105 0 0 1 0-.088h.105l2.636 1.511a.088.088 0 0 1 0 .088v18.414h-.101zm-2.548-19.91V49.1l2.425 1.4V32.262z" class="prefix__cls-43" data-name="Path 2207" transform="translate(36.722 23.179)"/>
        <g id="prefix__Group_606" data-name="Group 606" transform="translate(95.471 58.921)">
            <path id="prefix__Path_2208" fill="#561111" d="M57.475 35.34l-3.145-1.81v.281l2.9 1.669z" data-name="Path 2208" transform="translate(-54.33 -33.53)"/>
        </g>
        <g id="prefix__Group_607" data-name="Group 607" transform="translate(87.581 58.762)">
            <path id="prefix__Path_2209" d="M50.139 36.1l-.3-.176v13.738l.3.176z" class="prefix__cls-46" data-name="Path 2209" transform="translate(-49.84 -31.562)"/>
            <path id="prefix__Path_2210" d="M50.139 37.974l7.609-4.358-.316-.176-7.592 4.36z" class="prefix__cls-47" data-name="Path 2210" transform="translate(-49.84 -33.44)"/>
            <path id="prefix__Path_2211" fill="#c83532" d="M50.01 51.64l7.609-4.376V33.54L50.01 37.9z" data-name="Path 2211" transform="translate(-49.711 -33.364)"/>
        </g>
        <path id="prefix__Path_2212" fill="#baa999" d="M51.86 52.044l7.416-4.253V34.7l-7.416 4.253z" data-name="Path 2212" transform="translate(39.27 26.277)"/>
        <path id="prefix__Path_2213" d="M60.608 35.465l-7.433 4.27L50.1 37.96l7.433-4.27z" class="prefix__cls-20" data-name="Path 2213" transform="translate(37.937 25.512)"/>
        <path id="prefix__Path_2214" d="M53.2 50.969a5.43 5.43 0 0 0-3.093-1.757V36.12a5.57 5.57 0 0 1 3.058 1.757z" class="prefix__cls-21" data-name="Path 2214" transform="translate(37.945 27.352)"/>
        <g id="prefix__Group_608" data-name="Group 608" transform="translate(90.99 60.731)">
            <path id="prefix__Path_2215" d="M52.079 37.216l-.3-.176v13.742l.3.176z" class="prefix__cls-46" data-name="Path 2215" transform="translate(-51.78 -32.682)"/>
            <path id="prefix__Path_2216" d="M52.079 39.094l7.609-4.358-.281-.176-7.627 4.358z" class="prefix__cls-47" data-name="Path 2216" transform="translate(-51.78 -34.56)"/>
            <path id="prefix__Path_2217" fill="#e02b2b" d="M59.735 34.6l-.562.334-.173.088-7.05 4.041v13.742L59 48.763l.176-.105.562-.316z" data-name="Path 2217" transform="translate(-51.651 -34.53)"/>
        </g>
        <path id="prefix__Path_2218" d="M58.054 35.524l-3.708-2.144-.176.105 3.708 2.144z" class="prefix__cls-47" data-name="Path 2218" transform="translate(41.019 25.277)"/>
        <path id="prefix__Path_2219" d="M56.136 34.79l-.176.088V48.62l.176-.105z" class="prefix__cls-46" data-name="Path 2219" transform="translate(42.375 26.345)"/>
        <path id="prefix__Path_2220" fill="url(#prefix__linear-gradient-2)" d="M45.122 6.62l-.545-.334h-.105l-.492-.3h-.158l-.211-.105h-.176l-.264-.141h-.281l-.51-.228-.527-.193h-4.867l-.387.088h-.422l-.351.141h-.176l-.492.246L16.18 16.2l.51-.264h.176l.334-.141.3-.105h.193l.369-.088h.123l.633-.105h2.917l.387.105h.228l.4.141h.193c.4.141.808.3 1.23.492l.193.088.422.211.228.123.58.316c.351.211.7.422 1.037.65L45.491 6.866z" data-name="Path 2220" transform="translate(12.252 4.029)"/>
        <path id="prefix__Path_2221" fill="url(#prefix__linear-gradient-3)" d="M31.445 13.939h.105l.738.668.738.756.738.843c.228.264.457.562.668.843a.632.632 0 0 0 .123.176c.141.211.3.422.439.65s.334.51.492.773l.264.439L54.623 8.4l-.105-.176-.228-.281-.474-.756-.105-.158-.351-.492-.123-.158-.337-.524-.264-.334c-.105-.123-.211-.264-.334-.387l-.334-.369-.264-.3-.367-.365h-.193a2 2 0 0 0-.369-.527l-.387-.334-.158-.123h-.088L50 3.009l-.387-.3-.264-.193-.369-.246-.369-.228h-.088l-.264-.158h-.369l-.173-.084h-.123l-.316-.123-.334-.123h-2.952l-.562.158h-.088l-.228.088h-.105l-.334.176L23.45 12.129l.316-.158h.439a4.921 4.921 0 0 1 .545-.158h2.741l.264.088h.145l.791.334h.123l.281.141h.141l.387.211a9.3 9.3 0 0 1 .879.562 9.313 9.313 0 0 1 .943.79z" data-name="Path 2221" transform="translate(17.757 1.174)"/>
        <path id="prefix__Path_2222" fill="url(#prefix__linear-gradient-4)" d="M82.86 44.711a.351.351 0 0 0 0-.123v-.826a1.758 1.758 0 0 1 0-.3v-.545a1.546 1.546 0 0 1 0-.3.492.492 0 0 1 0-.158 4.414 4.414 0 0 1 0-.474v-.193a.228.228 0 0 0 0-.105L82.755 41a.193.193 0 0 1 0-.088 3.2 3.2 0 0 0-.176-.791V39.9a.764.764 0 0 0-.123-.51c-.123-.158 0-.088 0-.123v-.3a.545.545 0 0 0-.123-.4v-.193a1.917 1.917 0 0 0 0-.3 2.126 2.126 0 0 0 0-.316 1.019 1.019 0 0 0 0-.246 2.125 2.125 0 0 0 0-.316l-.088-.246-.105-.334-.984-.439v-.141l-.176-.474v-.228c-.105-.246-.211-.492-.3-.738a.633.633 0 0 1 0-.158c0-.176-.158-.369-.228-.527s0-.088 0-.141l-.123-.3-.457-.387-.105-.211-.158-.211a1.757 1.757 0 0 1-.123-.264 1.46 1.46 0 0 1-.123-.228l-.246-.474-.123-.228v-.141l-.685-1.23a1.512 1.512 0 0 1-.123-.176l-.422-.7-.211-.316a7.028 7.028 0 0 0-.387-.6l-.105-.158v-.123c-.264-.387-.527-.773-.808-1.142l-.123-.158c-.176-.211-.334-.439-.492-.65-.105-.105-.193-.228-.281-.334l-.281-.351-.352-.388-.228-.281-.422-.474-.457-.474-.351-.369-.334-.316c-.105-.105-.193-.211-.3-.3l-.65-.668-.316-.281-.351-.3-.3-.264-.316-.264-.316-.246-.474-.4-.3-.228-.316-.228-.264-.193a1.247 1.247 0 0 1-.246-.176L50 30.425l.545.369.281.211.422.316.3.228.4.316.3.246.369.334.316.281a3.674 3.674 0 0 1 .387.351l.3.264.422.422a3.255 3.255 0 0 1 .246.246c.211.193.4.4.6.615l.633.7.176.211.422.51a2.565 2.565 0 0 1 .281.334l.334.4.457.6.158.228c.281.369.545.756.808 1.142l.193.281.439.65.211.34c.141.211.264.439.387.65s.123.176.176.281l.685 1.212.176.351.264.492.228.457.158.334c0 .176.176.369.246.545a2.284 2.284 0 0 1 .141.3c.105.211.193.422.281.65s0 .123 0 .176a8.65 8.65 0 0 0 .334.843 1.212 1.212 0 0 0 .088.228l.211.615a2.353 2.353 0 0 1 .123.316l.172.53a3.023 3.023 0 0 0 .123.369l.141.51a2.916 2.916 0 0 1 .105.369 2.755 2.755 0 0 0 .141.51l.105.351a.893.893 0 0 0 .141.58 1.756 1.756 0 0 0 0 .3l.158.843a.527.527 0 0 1 0 .176 4.678 4.678 0 0 0 .123.685.749.749 0 0 1 0 .3v.545a2.162 2.162 0 0 1 0 .334 5.006 5.006 0 0 1 0 .51v.334a4.6 4.6 0 0 1 0 .492l-.949.562.492.281.492.281v2.794a2.985 2.985 0 0 0 0 .387 3.635 3.635 0 0 0 0 .387 3.4 3.4 0 0 0 0 .351 3.2 3.2 0 0 1-.123.439 2.128 2.128 0 0 1-.088.316l-.158.51a1.019 1.019 0 0 0-.088.246l-.334.791c0 .158-.158.316-.246.457v.105q-.158.281-.316.527c-.158.246-.316.474-.492.7l-.141.158-.527.58c-.193.193-.4.369-.615.545l-.176.123a5.464 5.464 0 0 1-.668.439l18.768-10.915a5.659 5.659 0 0 0 .685-.439l.158-.123c.211-.176.422-.334.615-.527a5.467 5.467 0 0 0 .51-.58l.141-.158c.176-.228.334-.457.492-.7l.316-.527c.088-.158.176-.334.246-.492.123-.264.228-.527.334-.791a.737.737 0 0 0 0-.176l.158-.51v-.319l.105-.4v-.738a.878.878 0 0 1 0-.211 1.372 1.372 0 0 0 0-.246v-.492a1.95 1.95 0 0 0 0-.334 1.355 1.355 0 0 0 0-.264v-2.53z" data-name="Path 2222" transform="translate(37.862 14.789)"/>
        <path id="prefix__Path_2223" fill="url(#prefix__linear-gradient-5)" d="M81.471 31.332a.492.492 0 0 1 0-.158 1.912 1.912 0 0 0 0-.316 2.232 2.232 0 0 0 0-.351 1.422 1.422 0 0 0 0-.281v-.351a.861.861 0 0 1 0-.211v-.457a1.931 1.931 0 0 1 0-.316 2.176 2.176 0 0 0-.123-.879.158.158 0 0 0 0-.088 1.631 1.631 0 0 0-.123-.756c-.123-.246 0-.088 0-.141v-.334a3.51 3.51 0 0 0 0-.422v-.246a2.809 2.809 0 0 0 0-.369 2.386 2.386 0 0 0 0-.3 2.335 2.335 0 0 0-.088-.334L80.4 24.6v-.176a.7.7 0 0 0-.141-.457l-.105-.351v-.086a2.94 2.94 0 0 0-.281-.9v-.141l-.264-.738v-.123l-.105-.3-.158-.422-.105-.264a.908.908 0 0 0-.141-.334 1.371 1.371 0 0 1 0-.246l-.211-.457-.4-.281a.141.141 0 0 1 0-.088c-.141-.264-.264-.545-.387-.826l-.105-.228-.316-.65v-.088l-.264-.51-.211-.422v-.082c-.228-.439-.492-.879-.738-1.318v-.123l-.193-.316a5.642 5.642 0 0 0-.51-.615l-.281-.457c-.123-.193-.228-.369-.351-.527l-.158-.211V12.7c-.316-.474-.633-.949-.966-1.406l-.791-.949-.527-.65-.141-.158c-.211-.264-.439-.51-.668-.773l-.211-.228-.422-.474-.281-.316-.334-.334-.3-.387-.316-.316L69.7 6.5l-.158-.158-.351-.316-.249-.226-.211-.176-.316-.351-.215-.195-.264-.141-.334-.281-.189-.156-.3-.228-.313-.248-.141-.105-.4-.281-.246-.123-.738-.492-.843-.562-.176-.105-.545-.3-.211-.105-.228-.193h-.211l-.387-.228-.211-.123h-.105a5.78 5.78 0 0 0-.685-.3l-.756-.3V.773h-.246L60.314.65h-2.443L57.4 0h-1.88l-.756.176h-.316l-.457.176h-.545l-.457.193h-.228l-.633.615L33.27 12.072l.65-.334.211-.105.474-.176.369-.123h.246l.457-.123h.3l.773-.105h3.04l.457.088h.3l.492.123h.281l.545.176h.246q.773.264 1.582.633l.228.105.58.281.281.158.756.4.826.51.808.545a1.6 1.6 0 0 1 .281.193l.545.387.316.246.492.369.334.281.457.387.351.316a4.8 4.8 0 0 1 .439.4l.351.316.439.422.334.316.439.474.3.316.51.545.211.246c.246.264.474.545.7.826l.088.105.615.738.72.966c.334.457.668.931.984 1.406l.228.316.334.527c.105.158.211.316.3.474l.316.527.281.457.738 1.318.264.492.264.527.369.738.105.228.422.949a1.951 1.951 0 0 1 .123.281c.105.228.193.457.3.7s.088.211.141.334.176.439.246.668a2.356 2.356 0 0 1 .123.316c.105.316.228.615.334.931l.316.984v.334c0 .105.141.457.193.685l.105.387.158.615v.4a1.156 1.156 0 0 0 .141.633c.141.211 0 .246 0 .369s.105.545.141.826 0 .105 0 .141a6.32 6.32 0 0 0 .141.984c.053.334 0 .193 0 .281v3.936a1.422 1.422 0 0 1 0 .281v.9L80.944 34.02v-.51a2.845 2.845 0 0 0 0-.387v-2.072z" data-name="Path 2223" transform="translate(25.193)"/>
        <path id="prefix__Path_2224" d="M27.25 46.015a25.322 25.322 0 0 1-8.786-9.208 25.2 25.2 0 0 1-3.514-12.143c0-3.919 1.406-6.66 3.655-7.943s5.272-1.089 8.786.879c.562.334 1.125.7 1.757 1.142.158.088.3.105.387 0a.492.492 0 0 0 .088-.51 12.81 12.81 0 0 1-.51-3.514A5.447 5.447 0 0 1 31.4 9.727a5.518 5.518 0 0 1 5.447.633 16.5 16.5 0 0 1 6.185 7.134 1 1 0 0 0 .527.51.264.264 0 0 0 .351-.3c.615-9.349 7.662-12.951 16.254-8A33.212 33.212 0 0 1 71.62 21.8a32.79 32.79 0 0 1 4.709 15.938 17.694 17.694 0 0 1-.176 2.618.914.914 0 0 0 .105.51 1.09 1.09 0 0 0 .369.422c7.679 4.8 13.794 15.622 13.777 24.6l.492.281.492.281c0-9.313-6.221-20.577-14.181-25.884a17.57 17.57 0 0 0 .053-2.249c0-10.93-7.662-24.25-17.168-29.75-8.786-5.025-15.938-1.757-17.115 7.223a17.924 17.924 0 0 0-6.133-6.572c-4.815-2.776-8.786-.545-8.786 4.991a13.935 13.935 0 0 0 .316 2.9c-.334-.228-.685-.439-1.037-.65C19.957 12.205 14 15.614 14 24.1a29.311 29.311 0 0 0 13.3 23.057l2.987 1.757v-1.142z" class="prefix__cls-55" data-name="Path 2224" transform="translate(10.601 4.7)"/>
        <path id="prefix__Path_2225" d="M80.26 45.9l-.492-.281c0 9.032-6.344 12.74-14.251 8.382L29 32.91l-1 .58 37.71 21.755c8.329 4.534 15.007.562 15.007-9.067z" class="prefix__cls-55" data-name="Path 2225" transform="translate(21.203 24.921)"/>
        <path id="prefix__Path_2226" d="M35.6 63.182l-8.821-5.1V45.1l8.821 5.1z" class="prefix__cls-34" data-name="Path 2226" transform="translate(20.279 34.152)"/>
        <path id="prefix__Path_2227" fill="#b3dee0" d="M29.448 71.711l-7.4-4.27V36.9l7.4 4.27z" data-name="Path 2227" transform="translate(16.697 27.942)"/>
        <path id="prefix__Path_2228" d="M40.741 67.807l-10.561-6.1V44.91l10.561 6.115z" class="prefix__cls-26" data-name="Path 2228" transform="translate(22.853 34.008)"/>
        <path id="prefix__Path_2229" d="M40 64.647l-7.06-4.094V50.15L40 54.227z" class="prefix__cls-31" data-name="Path 2229" transform="translate(24.943 37.976)"/>
        <path id="prefix__Path_2230" d="M47.221 69.895L38.4 64.816V51.83l8.821 5.1z" class="prefix__cls-34" data-name="Path 2230" transform="translate(29.078 39.248)"/>
        <path id="prefix__Path_2231" d="M53.285 74.272L42.97 68.315V53.15l10.315 5.939z" class="prefix__cls-26" data-name="Path 2231" transform="translate(32.538 40.248)"/>
        <path id="prefix__Path_2232" fill="#ceefef" d="M64.845 76.492L27.31 54.807v-.527l37.535 21.667z" data-name="Path 2232" opacity="0.5" transform="translate(20.68 41.103)"/>
        <path id="prefix__Path_2233" d="M39.019 61.707l-1.669-.967v-.72l1.669.966z" class="prefix__cls-12" data-name="Path 2233" transform="translate(28.283 45.45)"/>
        <path id="prefix__Path_2234" d="M31.28 44.23l-.07 20.208 13.355 7.714.053-20.208z" class="prefix__cls-23" data-name="Path 2234" transform="translate(23.633 33.493)"/>
        <path id="prefix__Path_2235" d="M31.77 63.149l.053-17.959 11.4 6.59-.053 17.959z" class="prefix__cls-25" data-name="Path 2235" transform="translate(24.057 34.22)"/>
        <path id="prefix__Path_2236" d="M32.32 61.86l.053-15.71 9.472 5.465-.053 15.71z" class="prefix__cls-23" data-name="Path 2236" transform="translate(24.474 34.947)"/>
        <path id="prefix__Path_2237" fill="#d9fdff" d="M40.4 56.893l-3.76-.193 3.76 4.059-.72-2.109 3.163 1.828v-.492l-3.181-1.828z" data-name="Path 2237" transform="translate(27.745 42.936)"/>
        <path id="prefix__Path_2238" fill="#fff" d="M42.526 60.116l-3.268-1.88.65 1.88-3.058-3.286 3.04.141-.65 1.107 3.286 1.88z" data-name="Path 2238" transform="translate(27.904 43.034)"/>
        <path id="prefix__Path_2239" d="M72.733 95.7l-.615-.351s-.105-.141 0-.193a.141.141 0 0 1 .193 0l.4.246v-.756a.141.141 0 1 1 .281 0v.984a.158.158 0 0 1 0 .141zm-2.144-1.23l-1.489-.844a.141.141 0 0 1 0-.193.123.123 0 0 1 .193 0l1.494.843a.137.137 0 0 1-.193.193zm2.144-1.529a.158.158 0 0 1-.141-.141v-1.757a.141.141 0 1 1 .281 0V92.8a.158.158 0 0 1-.14.141zm-5.166-.193l-1.494-.848a.142.142 0 1 1 .141-.246l1.494.843a.141.141 0 0 1 0 .193.123.123 0 0 1-.141.057zm-3.023-1.758l-1.494-.861a.141.141 0 0 1 0-.193.158.158 0 0 1 .193 0l1.494.861a.123.123 0 0 1 0 .193.141.141 0 0 1-.141.053zm8.189-1.582a.158.158 0 0 1-.141-.141v-1.756a.141.141 0 1 1 .281 0v1.757a.158.158 0 0 1-.141.193zm-11.211-.141l-1.476-.843a.176.176 0 0 1 0-.211.158.158 0 0 1 .211 0l1.494.843a.158.158 0 0 1 0 .193.211.211 0 0 1-.228.07zm-3-1.757l-1.494-.843a.142.142 0 0 1 .141-.246l1.494.843a.256.256 0 0 1-.141.334zm14.216-1.459a.158.158 0 0 1-.141-.158v-1.756a.141.141 0 1 1 .281 0v1.757a.158.158 0 0 1-.141.158zM55.5 85.946l-1.5-.86a.142.142 0 0 1 .141-.246l1.494.861a.12.12 0 0 1-.141.193zm17.238-3.409a.158.158 0 0 1-.141-.141V80.64a.141.141 0 1 1 .281 0v1.76a.158.158 0 0 1-.141.141zm0-3.514a.141.141 0 0 1-.141-.141v-1.616a.141.141 0 0 1 .281 0v1.757a.141.141 0 0 1-.141 0zm0-3.514a.158.158 0 0 1-.141-.141v-1.616a.141.141 0 0 1 .281 0v1.757a.158.158 0 0 1-.141 0zm0-3.514a.158.158 0 0 1-.141-.141v-1.617a.141.141 0 0 1 .281 0v1.757a.158.158 0 0 1-.141.105zm0-3.514a.141.141 0 0 1-.141-.141v-1.617a.141.141 0 0 1 .281 0v1.757a.141.141 0 0 1-.141.141zm0-3.514a.158.158 0 0 1-.141-.141v-1.758a.141.141 0 1 1 .281 0v1.757a.181.181 0 1 1-.141.334zm0-3.515a.141.141 0 0 1-.141-.141v-1.758a.141.141 0 1 1 .281 0v1.757a.2.2 0 0 1-.141.369zm0-3.514a.158.158 0 0 1-.141-.141v-1.758a.141.141 0 1 1 .281 0V57.8a.222.222 0 1 1-.141.422zm0-3.514a.158.158 0 0 1-.141-.141v-1.759a.141.141 0 1 1 .281 0v1.757a.239.239 0 0 1-.141.457zm0-3.514a.158.158 0 0 1-.141-.158v-1.76a.141.141 0 1 1 .281 0v1.757a.273.273 0 1 1-.141.527zm0-3.514a.158.158 0 0 1-.141-.141V45.5a.141.141 0 1 1 .281 0v1.757a.281.281 0 0 1-.141.545zm0-3.514a.141.141 0 0 1-.141-.141v-1.76a.141.141 0 1 1 .281 0v1.757a.3.3 0 1 1-.141.58z" class="prefix__cls-60" data-name="Path 2239" transform="translate(40.837 31.683)"/>
        <path id="prefix__Path_2240" d="M21.746 67.646l-1.511-.826a.142.142 0 1 1 .141-.246l1.511.826a.123.123 0 0 1 0 .193.141.141 0 0 1-.141.053zm-3.04-1.757l-1.494-.738a.141.141 0 0 1 0-.193.123.123 0 0 1 .193 0l1.511.808a.158.158 0 0 1 0 .193.141.141 0 0 1-.211.018zM16.861 63.6a.158.158 0 0 1-.141-.141v-1.753a.149.149 0 0 1 .3 0v1.757a.158.158 0 0 1-.158.141zm0-3.515a.158.158 0 0 1-.141-.141v-1.752a.15.15 0 0 1 .3 0v1.757a.158.158 0 0 1-.158.176zm0-3.514a.141.141 0 0 1-.141-.141v-1.753a.149.149 0 0 1 .3 0v1.757a.141.141 0 0 1-.158.211zm0-3.514a.158.158 0 0 1-.141-.141v-1.753a.15.15 0 0 1 .3 0v1.757a.158.158 0 0 1-.158.264zm0-3.514a.141.141 0 0 1-.141-.141v-1.754a.15.15 0 0 1 .3 0v1.757a.169.169 0 0 1-.158.3zm0-3.514a.158.158 0 0 1-.141-.141v-1.754a.149.149 0 0 1 .3 0v1.757a.193.193 0 1 1-.158.351zm0-3.514a.141.141 0 0 1-.141-.141v-1.755a.15.15 0 0 1 .3 0v1.757a.209.209 0 0 1-.158.387zm0-3.514a.158.158 0 0 1-.141-.158v-1.756a.149.149 0 0 1 .3 0v1.757a.242.242 0 1 1-.158.457zm0-3.514a.158.158 0 0 1-.141-.141V33.59a.15.15 0 0 1 .3 0v1.757a.25.25 0 0 1-.158.474zm0-3.514a.141.141 0 0 1-.141-.141v-1.756a.15.15 0 1 1 .3 0v1.757a.267.267 0 1 1-.158.51zm0-3.514a.158.158 0 0 1-.141-.141v-1.757a.149.149 0 0 1 .3 0v1.757a.292.292 0 1 1-.158.562z" class="prefix__cls-60" data-name="Path 2240" transform="translate(12.661 20.006)"/>
    </g>
</svg>
