<svg xmlns="http://www.w3.org/2000/svg" xmlns:xlink="http://www.w3.org/1999/xlink" id="prefix__Asset_48" data-name="Asset 48" viewBox="0 0 170.593 131.793">
    <defs>
        <linearGradient id="prefix__linear-gradient" x1=".483" x2=".505" y1=".712" y2="-.22" gradientUnits="objectBoundingBox">
            <stop offset="0" stop-color="#8fa7e3"/>
            <stop offset=".99" stop-color="#eeeeef"/>
        </linearGradient>
        <linearGradient id="prefix__linear-gradient-2" x1="1.076" x2="-.179" y1=".098" y2=".973" gradientUnits="objectBoundingBox">
            <stop offset=".01" stop-color="#656570"/>
            <stop offset=".99" stop-color="#9292a1"/>
        </linearGradient>
        <linearGradient id="prefix__linear-gradient-3" x1="-1751.924" x2="-1751.924" y1="3613.181" y2="3614.774" gradientUnits="objectBoundingBox">
            <stop offset="0" stop-color="#a8c5db"/>
            <stop offset="1" stop-color="#c4d3db"/>
        </linearGradient>
        <linearGradient id="prefix__linear-gradient-4" x1="-15176.54" x2="-15175.126" y1="16222.794" y2="16222.794" xlink:href="#prefix__linear-gradient-3"/>
        <linearGradient id="prefix__linear-gradient-5" x1="-2205.614" x2="-2205.408" y1="4502.146" y2="4502.146" gradientUnits="objectBoundingBox">
            <stop offset="0" stop-color="#00463d"/>
            <stop offset="1" stop-color="#005641"/>
        </linearGradient>
        <linearGradient id="prefix__linear-gradient-6" x1="-15202.239" x2="-15200.822" y1="16715.684" y2="16715.684" gradientUnits="objectBoundingBox">
            <stop offset="0" stop-color="#076d57"/>
            <stop offset="1" stop-color="#07763a"/>
        </linearGradient>
        <linearGradient id="prefix__linear-gradient-7" x1="-1931.736" x2="-1931.693" y1="4607.148" y2="4607.148" xlink:href="#prefix__linear-gradient-3"/>
        <linearGradient id="prefix__linear-gradient-8" x1="-1751.974" x2="-1751.974" y1="3620.741" y2="3622.334" xlink:href="#prefix__linear-gradient-3"/>
        <linearGradient id="prefix__linear-gradient-9" x1="-15172.6" x2="-15171.186" y1="16222.739" y2="16222.739" xlink:href="#prefix__linear-gradient-3"/>
        <linearGradient id="prefix__linear-gradient-10" x1="-1940.364" x2="-1940.319" y1="4613.39" y2="4613.39" xlink:href="#prefix__linear-gradient-3"/>
        <linearGradient id="prefix__linear-gradient-11" x1="-1751.766" x2="-1751.766" y1="3624.175" y2="3625.773" xlink:href="#prefix__linear-gradient-3"/>
        <linearGradient id="prefix__linear-gradient-12" x1="-14967.761" x2="-14966.366" y1="16222.607" y2="16222.607" xlink:href="#prefix__linear-gradient-3"/>
        <linearGradient id="prefix__linear-gradient-13" x1="-1940.362" x2="-1940.317" y1="4625.036" y2="4625.036" xlink:href="#prefix__linear-gradient-3"/>
        <linearGradient id="prefix__linear-gradient-14" x1="-1751.974" x2="-1751.974" y1="3619.288" y2="3620.881" xlink:href="#prefix__linear-gradient-3"/>
        <linearGradient id="prefix__linear-gradient-15" x1="-15172.7" x2="-15171.286" y1="16221.951" y2="16221.951" xlink:href="#prefix__linear-gradient-3"/>
        <linearGradient id="prefix__linear-gradient-16" x1="-1940.364" x2="-1940.319" y1="4607.148" y2="4607.148" xlink:href="#prefix__linear-gradient-3"/>
        <linearGradient id="prefix__linear-gradient-17" x1="-1751.922" x2="-1751.922" y1="3624.178" y2="3625.773" xlink:href="#prefix__linear-gradient-3"/>
        <linearGradient id="prefix__linear-gradient-18" x1="-15213.101" x2="-15211.7" y1="16907.967" y2="16907.967" xlink:href="#prefix__linear-gradient-3"/>
        <linearGradient id="prefix__linear-gradient-19" x1="-2876.079" x2="-2875.811" y1="5603.927" y2="5603.927" gradientUnits="objectBoundingBox">
            <stop offset="0" stop-color="#f96d02"/>
            <stop offset="1" stop-color="#e44320"/>
        </linearGradient>
        <linearGradient id="prefix__linear-gradient-20" x1="-15179.848" x2="-15178.434" y1="16807.746" y2="16807.746" gradientUnits="objectBoundingBox">
            <stop offset="0" stop-color="#f96d02"/>
            <stop offset="1" stop-color="#ec8018"/>
        </linearGradient>
        <linearGradient id="prefix__linear-gradient-21" x1="-1936.039" x2="-1935.995" y1="4625.029" y2="4625.029" xlink:href="#prefix__linear-gradient-3"/>
        <linearGradient id="prefix__linear-gradient-22" x1=".362" x2=".828" y1=".093" y2="1.058" gradientUnits="objectBoundingBox">
            <stop offset=".02" stop-color="#083344"/>
            <stop offset=".99" stop-color="#003c3e"/>
        </linearGradient>
        <linearGradient id="prefix__linear-gradient-23" x1=".877" x2=".168" y1="-.004" y2=".988" gradientUnits="objectBoundingBox">
            <stop offset=".01" stop-color="#088385"/>
            <stop offset="1" stop-color="#08757a"/>
        </linearGradient>
        <linearGradient id="prefix__linear-gradient-24" x1="-.243" x2=".858" y1="1.096" y2="-.107" gradientUnits="objectBoundingBox">
            <stop offset=".02" stop-color="#083e44"/>
            <stop offset=".4" stop-color="#154d56"/>
            <stop offset="1" stop-color="#08757a"/>
        </linearGradient>
        <linearGradient id="prefix__linear-gradient-25" x1=".938" x2="-.058" y1=".173" y2=".827" xlink:href="#prefix__linear-gradient-23"/>
        <linearGradient id="prefix__linear-gradient-26" x1=".895" x2=".054" y1=".16" y2=".8" xlink:href="#prefix__linear-gradient-23"/>
        <linearGradient id="prefix__linear-gradient-27" x1=".555" x2=".46" y1=".318" y2=".606" xlink:href="#prefix__linear-gradient-23"/>
        <linearGradient id="prefix__linear-gradient-28" x1="-.043" x2=".929" y1=".506" y2=".506" xlink:href="#prefix__linear-gradient-23"/>
        <linearGradient id="prefix__linear-gradient-29" x1=".962" x2=".095" y1=".023" y2=".931" gradientUnits="objectBoundingBox">
            <stop offset="0" stop-color="#ffd150"/>
            <stop offset="1" stop-color="#f2b725"/>
        </linearGradient>
        <radialGradient id="prefix__radial-gradient" cx="64.684" cy="23.785" r="23.99" gradientTransform="translate(-.062 -.067)" gradientUnits="userSpaceOnUse">
            <stop offset=".02" stop-color="#3ab9ff"/>
            <stop offset=".99" stop-color="#0271bc"/>
        </radialGradient>
        <radialGradient id="prefix__radial-gradient-2" cx="68.259" cy="12.288" r="1.037" xlink:href="#prefix__linear-gradient-29"/>
        <clipPath id="prefix__clip-path">
            <path id="prefix__Path_3327" fill="none" d="M72.609 46.583L54.545 36.18 24.18 53.717l17.906 10.368z" data-name="Path 3327" transform="translate(-24.18 -36.18)"/>
        </clipPath>
        <style>
            .prefix__cls-10{fill:#28286b}.prefix__cls-11{fill:#f2e6d1}.prefix__cls-12{fill:#baab95}.prefix__cls-13{fill:#ff4440}.prefix__cls-14{fill:#6c9106}.prefix__cls-21{fill:#e0e0e0}.prefix__cls-26{fill:#ff2722}.prefix__cls-41{opacity:.8}.prefix__cls-30{fill:#fff}.prefix__cls-33{fill:#f4a800}.prefix__cls-36{fill:#1a9ab7}.prefix__cls-37{fill:#969696}.prefix__cls-38{fill:#6b6b6b}.prefix__cls-39{fill:#a8a8a8}.prefix__cls-41{fill:#86aec7}.prefix__cls-64{fill:#212323}.prefix__cls-65{fill:#2b2b2b}.prefix__cls-66{fill:#3a3a3a}.prefix__cls-67{fill:#154d56}.prefix__cls-68{fill:#1d6f77}.prefix__cls-76{fill:#083e44}.prefix__cls-81{fill:#cc0f0a}.prefix__cls-84{fill:#f9efe1}.prefix__cls-85{fill:#1663a3}.prefix__cls-87{fill:#baab9b}.prefix__cls-91{fill:#e6f7ff}.prefix__cls-96{fill:#e9f8ff}.prefix__cls-98{fill:#7c1419}.prefix__cls-99{fill:#b31d24}.prefix__cls-100{fill:#c82029}.prefix__cls-101{fill:#a8dae2}.prefix__cls-103{fill:#8db52c}.prefix__cls-106{fill:#232333}.prefix__cls-107{fill:#2e2e42}.prefix__cls-109{fill:#323247}.prefix__cls-113{fill:#535368}
        </style>
    </defs>
    <g id="prefix__Layer_2" data-name="Layer 2">
        <g id="prefix__Layer_1" data-name="Layer 1">
            <g id="prefix__Group_804" data-name="Group 804" transform="translate(0 22.686)">
                <path id="prefix__Path_3271" fill="url(#prefix__linear-gradient)" d="M0 12.91L22.668 78.1l52.348 30.225L156.5 61.269l14.092-48.359z" data-name="Path 3271" opacity="0.3" transform="translate(0 -12.91)"/>
            </g>
            <path id="prefix__Path_3272" fill="#22222d" d="M160.653 54.324L111.274 83l-44.985 26.167-2.53 1.459a7.31 7.31 0 0 1-6.7 0L6.315 81.333a2.056 2.056 0 0 1 0-3.884l79.567-46.268 17.291-10.034a7.363 7.363 0 0 1 6.7 0l16.606 9.577 34.156 19.716a2.056 2.056 0 0 1 .018 3.884z" data-name="Path 3272" transform="translate(3.737 15.404)"/>
            <path id="prefix__Path_3273" fill="#0b162d" d="M162.042 38.58v5.166a.334.334 0 0 1 0 .141v.088a.334.334 0 0 1 0 .141v.141l-.105.176-.193.228-.141.123-.123.105-.193.105-.105.088-51.295 29.961-46.127 26.8-.439.228h-.141l-.387.141h-.843l-.65.369h-3.023l-.51-.176a3.725 3.725 0 0 1-.65-.316L6.316 72.548A2.39 2.39 0 0 1 4.91 70.6v-5.029a2.372 2.372 0 0 0 1.406 1.951l50.766 29.293a3.515 3.515 0 0 0 .633.316 4.322 4.322 0 0 0 .51.158h4.235l.246-.088h.141l.369-.141h.123a3.689 3.689 0 0 0 .457-.228L111.8 68.91l48.869-28.4.176-.105.176-.123.141-.105.141-.123.193-.228h.088a1.229 1.229 0 0 1 .105-.158v-.123a.352.352 0 0 0 0-.141v-.123a.334.334 0 0 0 0-.141.246.246 0 0 0 0-.105v-.158z" data-name="Path 3273" transform="translate(3.718 29.215)"/>
            <path id="prefix__Path_3274" fill="#284cb2" d="M65.248 100.514L12.9 70.289 94.383 23.23l52.348 30.225z" data-name="Path 3274" transform="translate(9.768 17.591)"/>
            <path id="prefix__Path_3275" fill="#121217" d="M31.174 59.931c2.425 1.406 2.425 3.673 0 5.061a9.647 9.647 0 0 1-8.786 0c-2.407-1.388-2.407-3.655 0-5.061a9.753 9.753 0 0 1 8.786 0z" data-name="Path 3275" transform="translate(15.586 44.591)"/>
            <path id="prefix__Path_3276" fill="url(#prefix__linear-gradient-2)" d="M116.8 38.58v5.166a.333.333 0 0 1 0 .141v.088a.333.333 0 0 1 0 .141v.141l-.105.176-.193.228-.141.123-.123.105-.193.105-.105.088-51.29 29.961 1.915-6.133 48.869-28.4.176-.105.176-.123.141-.105.141-.123.193-.228h.088a1.231 1.231 0 0 1 .105-.158v-.123a.351.351 0 0 0 0-.141v-.123a.334.334 0 0 0 0-.141.246.246 0 0 0 0-.105v-.158z" data-name="Path 3276" opacity="0.3" transform="translate(48.955 29.215)"/>
            <path id="prefix__Path_3277" fill="#bcbcc9" d="M100.053 30.724c-2.724 9.436-10.192 35.338-15.218 52.3L39.85 109.167l19.593-77.986 17.291-10.034a7.363 7.363 0 0 1 6.7 0z" data-name="Path 3277" opacity="0.1" transform="translate(30.176 15.404)"/>
            <g id="prefix__Group_805" data-name="Group 805" opacity="0.2" transform="translate(43.316 80.851)">
                <path id="prefix__Path_3278" d="M24.65 58.891L47.266 46.01l25.62 14.69L50.27 73.6z" class="prefix__cls-10" data-name="Path 3278" transform="translate(-24.65 -46.01)"/>
            </g>
            <path id="prefix__Path_3279" d="M75.22 34.2l18.223 10.522V16.1L75.22 5.57z" class="prefix__cls-11" data-name="Path 3279" transform="translate(56.959 4.218)"/>
            <path id="prefix__Path_3280" d="M76.09 10.314l12.582 7.275V17.1L76.09 9.84z" class="prefix__cls-12" data-name="Path 3280" transform="translate(57.618 7.451)"/>
            <path id="prefix__Path_3281" d="M76.09 11.624L88.672 18.9v-.474L76.09 11.15z" class="prefix__cls-12" data-name="Path 3281" transform="translate(57.618 8.443)"/>
            <path id="prefix__Path_3282" d="M76.09 12.944L88.672 20.2v-.474L76.09 12.47z" class="prefix__cls-12" data-name="Path 3282" transform="translate(57.618 9.443)"/>
            <path id="prefix__Path_3283" d="M76.09 14.254l12.582 7.275v-.492L76.09 13.78z" class="prefix__cls-12" data-name="Path 3283" transform="translate(57.618 10.435)"/>
            <path id="prefix__Path_3284" d="M76.09 15.564l12.582 7.275v-.474L76.09 15.09z" class="prefix__cls-12" data-name="Path 3284" transform="translate(57.618 11.427)"/>
            <path id="prefix__Path_3285" d="M76.09 16.884l12.582 7.257v-.474L76.09 16.41z" class="prefix__cls-12" data-name="Path 3285" transform="translate(57.618 12.426)"/>
            <path id="prefix__Path_3286" d="M76.09 18.194l12.582 7.275v-.492L76.09 17.72z" class="prefix__cls-12" data-name="Path 3286" transform="translate(57.618 13.418)"/>
            <path id="prefix__Path_3287" d="M76.09 19.5l12.582 7.275v-.474L76.09 19.03z" class="prefix__cls-12" data-name="Path 3287" transform="translate(57.618 14.41)"/>
            <path id="prefix__Path_3288" d="M76.09 20.824l12.582 7.257v-.474L76.09 20.35z" class="prefix__cls-12" data-name="Path 3288" transform="translate(57.618 15.41)"/>
            <path id="prefix__Path_3289" d="M84.34 14.872c0-.3.228-.387.527-.228a1.142 1.142 0 0 1 .527.843c0 .281-.246.387-.527.211a1.072 1.072 0 0 1-.527-.826zm.141 0a.808.808 0 0 0 .387.633c.211.123.387 0 .387-.176a.826.826 0 0 0-.387-.615c-.228-.053-.387.018-.387.228z" class="prefix__cls-13" data-name="Path 3289" transform="translate(63.865 11.03)"/>
            <path id="prefix__Path_3290" d="M84.34 16.182c0-.3.228-.387.527-.228a1.142 1.142 0 0 1 .527.843c0 .3-.246.387-.527.228a1.089 1.089 0 0 1-.527-.843zm.141.088a.773.773 0 0 0 .387.615c.211.123.387 0 .387-.158a.826.826 0 0 0-.387-.633c-.228-.123-.387 0-.387.176z" class="prefix__cls-13" data-name="Path 3290" transform="translate(63.865 12.022)"/>
            <path id="prefix__Path_3291" d="M84.34 17.505c0-.3.228-.4.527-.228a1.107 1.107 0 0 1 .527.826c0 .3-.246.4-.527.228a1.072 1.072 0 0 1-.527-.826zm.141 0a.773.773 0 0 0 .387.615c.211.123.387 0 .387-.158a.861.861 0 0 0-.387-.633c-.228-.053-.387.035-.387.246z" class="prefix__cls-13" data-name="Path 3291" transform="translate(63.865 13.018)"/>
            <path id="prefix__Path_3292" d="M84.34 18.812c0-.3.228-.387.527-.228a1.142 1.142 0 0 1 .527.843c0 .281-.246.387-.527.211a1.072 1.072 0 0 1-.527-.826zm.141 0a.808.808 0 0 0 .387.633c.211.123.387 0 .387-.176a.826.826 0 0 0-.387-.615c-.228-.053-.387.018-.387.228z" class="prefix__cls-13" data-name="Path 3292" transform="translate(63.865 14.014)"/>
            <path id="prefix__Path_3293" d="M84.34 20.132c0-.3.228-.387.527-.228a1.142 1.142 0 0 1 .527.843c0 .3-.246.387-.527.228a1.089 1.089 0 0 1-.527-.843zm.141.088a.773.773 0 0 0 .387.615c.211.123.387 0 .387-.176a.826.826 0 0 0-.387-.615c-.228-.141-.387-.07-.387.088z" class="prefix__cls-13" data-name="Path 3293" transform="translate(63.865 15.013)"/>
            <path id="prefix__Path_3294" d="M84.34 21.428c0-.281.228-.387.527-.211a1.107 1.107 0 0 1 .527.826c0 .3-.246.4-.527.228a1.089 1.089 0 0 1-.527-.843zm.141.088a.773.773 0 0 0 .387.615c.211.123.387 0 .387-.158a.879.879 0 0 0-.387-.633c-.228-.123-.387-.035-.387.176z" class="prefix__cls-13" data-name="Path 3294" transform="translate(63.865 16.002)"/>
            <path id="prefix__Path_3295" d="M84.34 22.755c0-.3.228-.4.527-.228a1.142 1.142 0 0 1 .527.843c0 .281-.246.387-.527.228a1.125 1.125 0 0 1-.527-.843zm.141 0a.773.773 0 0 0 .387.633c.211.123.387 0 .387-.176a.826.826 0 0 0-.387-.615c-.228-.053-.387.018-.387.228z" class="prefix__cls-13" data-name="Path 3295" transform="translate(63.865 16.994)"/>
            <path id="prefix__Path_3296" d="M84.34 24.06c0-.281.228-.387.527-.228a1.142 1.142 0 0 1 .527.843c0 .3-.246.387-.527.228a1.089 1.089 0 0 1-.527-.843zm.141.088a.773.773 0 0 0 .387.615c.211.123.387 0 .387-.158a.826.826 0 0 0-.387-.633c-.228-.123-.387-.053-.387.211z" class="prefix__cls-13" data-name="Path 3296" transform="translate(63.865 17.991)"/>
            <path id="prefix__Path_3297" d="M84.34 25.385c0-.3.228-.4.527-.228a1.107 1.107 0 0 1 .527.826c0 .3-.246.4-.527.228a1.09 1.09 0 0 1-.527-.826zm.141 0a.773.773 0 0 0 .387.615c.211.123.387 0 .387-.158a.791.791 0 0 0-.387-.615c-.228-.07-.387.018-.387.228z" class="prefix__cls-13" data-name="Path 3297" transform="translate(63.865 18.985)"/>
            <path id="prefix__Path_3298" d="M78.248 9.3l-.808-.457V8.4l2.214 1.265v.435l-.791-.457v2.144l-.615-.351z" data-name="Path 3298" transform="translate(58.64 6.361)"/>
            <path id="prefix__Path_3299" d="M78.923 9.24l1.933 1.142v.439l-1.356-.773v.527l1.212.7v.439l-1.212-.7v.668l1.388.808v.439L78.87 11.77z" data-name="Path 3299" transform="translate(59.723 6.997)"/>
            <path id="prefix__Path_3300" d="M80.24 12.46v-.474l.931.65c.334.193.51.193.51 0v-.158a.4.4 0 0 0 0-.246.861.861 0 0 0-.264-.211l-.3-.176a1.388 1.388 0 0 1-.861-1.177v-.193c0-.211.088-.334.281-.334a2.3 2.3 0 0 1 .9.369l.808.51v.474c-.4-.281-.668-.474-.826-.562a1.757 1.757 0 0 0-.419-.195s-.123 0-.123.105v.193c0 .141.123.264.351.4l.316.176a2.231 2.231 0 0 1 .633.527 1.019 1.019 0 0 1 .193.615v.176c0 .3-.105.457-.316.439a1.476 1.476 0 0 1-.351-.088 4.181 4.181 0 0 1-.474-.246 4.6 4.6 0 0 1-.989-.574z" data-name="Path 3300" transform="translate(60.761 7.679)"/>
            <path id="prefix__Path_3301" d="M82.348 11.689l-.808-.489v-.46l2.214 1.283v.439l-.791-.457v2.179l-.615-.351z" data-name="Path 3301" transform="translate(61.745 8.133)"/>
            <g id="prefix__Group_806" data-name="Group 806" transform="translate(132.671 8.962)">
                <path id="prefix__Path_3302" d="M76.888 5.539l.211-.123-1.388-.316-.211.123z" class="prefix__cls-14" data-name="Path 3302" transform="translate(-75.5 -5.1)"/>
                <path id="prefix__Path_3303" fill="#4b5f15" d="M77.432 8.707l.211-.105L76.5 5.28l-.21.12z" data-name="Path 3303" transform="translate(-74.902 -4.964)"/>
                <path id="prefix__Path_3304" fill="#74a30d" d="M76.888 5.486L75.5 5.17l2.53 5.272 1.406-1.968-.736-.861-.67 1.177z" data-name="Path 3304" transform="translate(-75.5 -5.047)"/>
                <path id="prefix__Path_3305" fill="#3a4910" d="M76.94 9.064l.193-.123 1.406-1.951-.193.105z" data-name="Path 3305" transform="translate(-74.41 -3.669)"/>
                <path id="prefix__Path_3306" d="M78.058 7.466l.193-.105-.72-.861-.211.105z" class="prefix__cls-14" data-name="Path 3306" transform="translate(-74.122 -4.04)"/>
            </g>
            <path id="prefix__Path_3307" fill="#28286b" d="M82.983 65.216L42.25 41.862 68.486 26.89l40.733 23.354z" data-name="Path 3307" opacity="0.2" transform="translate(31.993 20.362)"/>
            <path id="prefix__Path_3308" fill="#3333bc" d="M49.988 67.725L24.35 53.035V46.41L49.988 61.1z" data-name="Path 3308" transform="translate(18.439 35.144)"/>
            <path id="prefix__Path_3309" d="M24.35 51.961L46.966 39.08l25.62 14.691-22.6 12.881z" class="prefix__cls-10" data-name="Path 3309" transform="translate(18.439 29.593)"/>
            <path id="prefix__Path_3310" fill="#282893" d="M38.93 66.938l.018-6.625 22.6-12.863v.492l-.668.369v5.237l.668-.4v.931z" data-name="Path 3310" transform="translate(29.479 35.931)"/>
            <path id="prefix__Path_3311" d="M39.24 65.512v-5.254l21.4-12.318v5.237z" class="prefix__cls-21" data-name="Path 3311" transform="translate(29.714 36.303)"/>
            <path id="prefix__Path_3312" fill="#e5ca48" d="M25.5 47.775a.158.158 0 0 1 .123 0l21.4 12.3a.141.141 0 0 1 0 .123v4.059a.123.123 0 0 1 0 .105H46.9l-21.4-12.3a.141.141 0 0 1 0-.123v-4.164zm21.382 12.494l-21.087-12.2v3.743l21.087 12.3z" data-name="Path 3312" transform="translate(19.296 36.168)"/>
            <path id="prefix__Path_3313" d="M52.088 50.819l-.668-.3v.7z" class="prefix__cls-10" data-name="Path 3313" transform="translate(38.937 38.256)"/>
            <g id="prefix__Group_807" data-name="Group 807" transform="translate(42.437 63.577)">
                <path id="prefix__Path_3314" fill="#dd1414" d="M34.37 64.083l30.523-17.52V42.1L34.37 59.6z" data-name="Path 3314" transform="translate(-16.411 -31.697)"/>
                <path id="prefix__Path_3315" fill="#e53c3c" d="M72.609 46.583L54.563 36.18 24.18 53.717l17.906 10.368z" data-name="Path 3315" transform="translate(-24.127 -36.18)"/>
                <path id="prefix__Path_3316" fill="#af1010" d="M42.109 56.528L24.2 46.16l-.053.492.474.246v3.55l-.387.228 17.875 10.333z" data-name="Path 3316" transform="translate(-24.15 -28.623)"/>
                <path id="prefix__Path_3317" d="M41.412 59.847l-.018-3.567-16.974-9.7v3.55z" class="prefix__cls-21" data-name="Path 3317" transform="translate(-23.946 -28.305)"/>
            </g>
            <path id="prefix__Path_3318" d="M61.937 45.552v-2.3L36 58.222v2.32z" class="prefix__cls-26" data-name="Path 3318" transform="translate(27.26 32.751)"/>
            <g id="prefix__Group_809" data-name="Group 809" opacity="0.8" transform="translate(42.49 63.577)">
                <g id="prefix__Group_808" clip-path="url(#prefix__clip-path)" data-name="Group 808">
                    <path id="prefix__Path_3319" fill="#074e89" d="M53.187 34.88l25.445 14.691-32.14 18.556-25.462-14.69z" data-name="Path 3319" transform="translate(-26.565 -37.164)"/>
                    <path id="prefix__Path_3320" d="M53.187 34.88l3.339 1.92-1.986 9.889 9.56-5.518 3.62 2.091-10.175 5.887 18.24-1.23 2.847 1.652-3.339 1.915-18.416 1.23 8.136 4.709-4.9 2.847-7.433-4.288-1.951 9.682-4.235 2.46-2.128-1.226 2.3-11.475-11.086 6.411-3.637-2.109 10.491-6.045-18.786 1.266-2.618-1.511 3.637-2.091 17.906-1.212-7.925-4.569 4.92-2.829 8.646 4.991 2.267-11.282z" class="prefix__cls-30" data-name="Path 3320" transform="translate(-26.565 -37.164)"/>
                    <path id="prefix__Path_3321" d="M59.69 38.64l2.5 1.423-32.145 18.574L27.55 57.2z" class="prefix__cls-26" data-name="Path 3321" transform="translate(-21.628 -34.317)"/>
                    <path id="prefix__Path_3322" d="M32.385 39.65L57.83 54.341l-3.075 1.775L29.31 41.425z" class="prefix__cls-26" data-name="Path 3322" transform="translate(-20.295 -33.552)"/>
                    <path id="prefix__Path_3323" d="M40.526 34.88l2.214 1.265-1.915 10.913-3.075 1.775 1.582-13.267z" class="prefix__cls-26" data-name="Path 3323" transform="translate(-13.904 -37.164)"/>
                    <path id="prefix__Path_3324" d="M45.807 44.33l-3.075 1.77-19.962 1.182-1.74-1 1.792-1.037z" class="prefix__cls-26" data-name="Path 3324" transform="translate(-26.565 -30.008)"/>
                    <path id="prefix__Path_3325" d="M63.023 42.8l1.336.773-2.109 1.213-22.37.51 2.443-1.423z" class="prefix__cls-26" data-name="Path 3325" transform="translate(-12.291 -31.167)"/>
                    <path id="prefix__Path_3326" d="M39.2 45.6l-1.23 13.267L36 60.009l-1.125-.633 2.372-12.652z" class="prefix__cls-26" data-name="Path 3326" transform="translate(-16.078 -29.047)"/>
                </g>
            </g>
            <path id="prefix__Path_3328" d="M34.984 52.249l-1.564-.9.527-.3.791.457L35.6 51l-.615-.334.545-.316.6.351 1.037-.6-.808-.457.527-.3 1.564.9z" class="prefix__cls-30" data-name="Path 3328" transform="translate(25.307 37.37)"/>
            <path id="prefix__Path_3329" d="M34.068 51.715l-.545-.3.966-1.388-1.757.966-.633-.369 3.514-1.986.51.3-1.071 1.442 1.757-1.037.65.387z" class="prefix__cls-30" data-name="Path 3329" transform="translate(24.307 36.833)"/>
            <path id="prefix__Path_3330" d="M35.557 49.045a1.441 1.441 0 0 1-.668.633l-1.16.668a2.776 2.776 0 0 1-1.125.387 1.88 1.88 0 0 1-1.107-.3c-.369-.193-.545-.4-.527-.6s.193-.369.527-.562l.211-.123.756.422-.281.158a.949.949 0 0 0-.264.211.249.249 0 0 0 .105.193.51.51 0 0 0 .316 0 1.757 1.757 0 0 0 .369-.158l1.617-.931a.685.685 0 0 0 .264-.211.258.258 0 0 0-.123-.211.72.72 0 0 0-.738.088l-.4.246.316.176-.457.264-1-.58 1.752-1.035.6.387-.246.193a1.283 1.283 0 0 1 .9.123c.293.158.433.351.363.562z" class="prefix__cls-30" data-name="Path 3330" transform="translate(23.451 36.181)"/>
            <path id="prefix__Path_3331" d="M30.773 50.062L30 49.623l2.935-1.757-.791-.457.51-.3 1.564.9z" class="prefix__cls-30" data-name="Path 3331" transform="translate(22.717 35.674)"/>
            <path id="prefix__Path_3332" d="M29.686 49.223l-.756-.457 3.514-1.986.756.439z" class="prefix__cls-30" data-name="Path 3332" transform="translate(21.907 35.424)"/>
            <path id="prefix__Path_3333" d="M32.239 46.972q0 .281-.58.633l-.756-.334a.949.949 0 0 0 .387-.316v-.211a.474.474 0 0 0-.457 0 .58.58 0 0 0-.246.264.668.668 0 0 0 0 .334v.334a.826.826 0 0 1 0 .422.879.879 0 0 1-.387.369 1.757 1.757 0 0 1-.931.228 1.968 1.968 0 0 1-.949-.281c-.316-.176-.457-.369-.369-.545a1.09 1.09 0 0 1 .51-.51l.72.334-.334.246v.176a.316.316 0 0 0 .228 0h.246c.123 0 .193-.141.211-.228a.773.773 0 0 0 0-.3v-.316a1.125 1.125 0 0 1 0-.492 1 1 0 0 1 .439-.4 1.335 1.335 0 0 1 .545-.193 1.915 1.915 0 0 1 .633 0 1.757 1.757 0 0 1 .6.211c.351.189.507.364.49.575z" class="prefix__cls-30" data-name="Path 3333" transform="translate(21.146 34.951)"/>
            <path id="prefix__Path_3334" d="M28.256 48.378l-.756-.439 1.406-.808-.545-.316-1.388.808-.773-.439 3.514-2 .773.439-1.511.879.527.316 1.511-.879.756.439z" class="prefix__cls-30" data-name="Path 3334" transform="translate(19.84 34.213)"/>
            <g id="prefix__Group_810" data-name="Group 810" transform="translate(49.413 59.588)">
                <path id="prefix__Path_3335" fill="#d39700" d="M37.655 57.864l24.637-14.128-.035-4.446L37.62 53.418z" data-name="Path 3335" transform="translate(-20.926 -29.836)"/>
                <path id="prefix__Path_3336" fill="#f9aa0d" d="M69.359 43.364L52.876 33.91 28.24 48.038l16.483 9.454z" data-name="Path 3336" transform="translate(-28.029 -33.91)"/>
                <path id="prefix__Path_3337" d="M44.849 55.85l-.035-4.45-16.483-9.45-.018.3.3.193.035 3.514-.527.3z" class="prefix__cls-33" data-name="Path 3337" transform="translate(-28.12 -27.822)"/>
                <path id="prefix__Path_3338" fill="#b68808" d="M44.233 54.952l-.018-3.532L28.4 42.23l.018 3.514z" data-name="Path 3338" transform="translate(-27.908 -27.61)"/>
                <path id="prefix__Path_3339" d="M44.233 54.935l-.018-3.514L28.4 42.23l.018 3.514z" class="prefix__cls-21" data-name="Path 3339" transform="translate(-27.908 -27.61)"/>
            </g>
            <path id="prefix__Path_3340" d="M39.589 50.824l-.035-4.094-1.564.9.035 4.112z" class="prefix__cls-33" data-name="Path 3340" transform="translate(28.767 35.386)"/>
            <path id="prefix__Path_3341" d="M41.119 49.952l-.035-4.112-1.564.914.035 4.094z" class="prefix__cls-33" data-name="Path 3341" transform="translate(29.926 34.712)"/>
            <path id="prefix__Path_3342" d="M42.642 49.054l-.035-4.094-1.546.9.018 4.112z" class="prefix__cls-33" data-name="Path 3342" transform="translate(31.092 34.046)"/>
            <path id="prefix__Path_3343" d="M44.172 48.174l-.035-4.094-1.546.9.018 4.094z" class="prefix__cls-33" data-name="Path 3343" transform="translate(32.251 33.38)"/>
            <path id="prefix__Path_3344" d="M45.7 47.3l-.035-4.112-1.546.9.018 4.112z" class="prefix__cls-33" data-name="Path 3344" transform="translate(33.409 32.706)"/>
            <path id="prefix__Path_3345" d="M47.232 46.4l-.032-4.09-1.546.9.018 4.112z" class="prefix__cls-33" data-name="Path 3345" transform="translate(34.568 32.039)"/>
            <path id="prefix__Path_3346" fill="#aa7100" d="M37.544 47.543l-.334-.193v3.5l.351.211z" data-name="Path 3346" transform="translate(28.177 35.856)"/>
            <path id="prefix__Path_3347" d="M38.476 46.6l-.984-.562c-.246-.158-.369-.3-.351-.457s.158-.316.439-.474a1.546 1.546 0 0 1 .861-.246 1.757 1.757 0 0 1 .791.264l.264.141 1.23-.7.633.369zm.351-1.195a.545.545 0 0 0-.316 0 1.6 1.6 0 0 0-.351.141c-.123 0-.211.141-.228.211s0 .105.141.176l.211.123.756-.439z" class="prefix__cls-36" data-name="Path 3347" transform="translate(28.123 33.743)"/>
            <path id="prefix__Path_3348" d="M37.48 46.181l-.65-.369 1.177-.668-.439-.264-1.177.685-.65-.369 2.9-1.757.65.387-1.265.72.439.264 1.265-.738.633.369z" class="prefix__cls-36" data-name="Path 3348" transform="translate(27.064 32.895)"/>
            <path id="prefix__Path_3349" d="M37.464 44.112l-1.16 1.3-.615-.351.65-.685-1.089.351-.58-.334 2.249-.668 1.181-.685.615.351z" class="prefix__cls-36" data-name="Path 3349" transform="translate(26.253 32.592)"/>
            <path id="prefix__Path_3350" d="M37.6 43.09c0 .158-.176.334-.492.527l-.7-.193a.861.861 0 0 0 .316-.281v-.176a.387.387 0 0 0-.387 0 .6.6 0 0 0-.211.211.773.773 0 0 0 0 .3v.264a.826.826 0 0 1 0 .369.949.949 0 0 1-.334.3 1.494 1.494 0 0 1-.773.193 1.757 1.757 0 0 1-.791-.228c-.281-.158-.387-.316-.316-.457a.9.9 0 0 1 .351-.492l.615.281a1.124 1.124 0 0 0-.281.211v.141a.246.246 0 0 0 .193 0h.193a.225.225 0 0 0 .193-.176 1.072 1.072 0 0 0 0-.246v-.264a.826.826 0 0 1 0-.422.9.9 0 0 1 .369-.351A1.757 1.757 0 0 1 36 42.44h.527a1.494 1.494 0 0 1 .492.176c.369.14.581.316.581.474z" class="prefix__cls-36" data-name="Path 3350" transform="translate(25.661 32.138)"/>
            <path id="prefix__Path_3351" d="M33.713 44.021l-.633-.369L35.962 42l.65.369z" class="prefix__cls-36" data-name="Path 3351" transform="translate(25.049 31.804)"/>
            <path id="prefix__Path_3352" d="M35.921 42.186c0 .176-.211.351-.51.527l-1.054.6a1.968 1.968 0 0 1-.914.316 1.564 1.564 0 0 1-.914-.264c-.316-.176-.457-.334-.439-.492s.176-.316.439-.457l.246-.158.633.369-.3.158-.228.176a.2.2 0 0 0 .088.158.316.316 0 0 0 .281 0 .826.826 0 0 0 .3-.123l1.371-.796a.562.562 0 0 0 .211-.176v-.141a.369.369 0 0 0-.264 0l-.3.123-.3.176-.633-.351.264-.141a1.757 1.757 0 0 1 .826-.264 1.546 1.546 0 0 1 .861.246q.389.25.336.514z" class="prefix__cls-36" data-name="Path 3352" transform="translate(24.299 31.373)"/>
            <path id="prefix__Path_3353" d="M34.7 41.489c0 .158-.176.334-.492.527l-.633-.264a.808.808 0 0 0 .334-.264.141.141 0 0 0 0-.193.4.4 0 0 0-.369 0 .6.6 0 0 0-.211.211.545.545 0 0 0 0 .3v.264a.632.632 0 0 1 0 .369.738.738 0 0 1-.316.3 1.529 1.529 0 0 1-.773.193 1.582 1.582 0 0 1-.791-.228c-.281-.158-.387-.316-.334-.457a1.107 1.107 0 0 1 .422-.439l.633.281a1.335 1.335 0 0 0-.3.211v.141a.211.211 0 0 0 .193 0 .615.615 0 0 0 .193 0c.105 0 .158-.123.176-.193a.545.545 0 0 0 0-.246v-.264a1.072 1.072 0 0 1 0-.422.72.72 0 0 1 .351-.334 1.089 1.089 0 0 1 .474-.158 1.335 1.335 0 0 1 .527 0 1.283 1.283 0 0 1 .492.176c.301.155.424.331.424.489z" class="prefix__cls-36" data-name="Path 3353" transform="translate(23.552 30.892)"/>
            <path id="prefix__Path_3354" d="M38.967 38.37l-.387.211v2.232l.387-.228z" class="prefix__cls-37" data-name="Path 3354" transform="translate(29.214 29.056)"/>
            <path id="prefix__Path_3355" d="M38.967 39.63l5.465 3.163-.387.207-5.465-3.142z" class="prefix__cls-38" data-name="Path 3355" transform="translate(29.214 30.01)"/>
            <path id="prefix__Path_3356" d="M38.678 38.49l-.228.123v2.232l5.465 3.163.228-.141-5.465-3.145z" class="prefix__cls-39" data-name="Path 3356" transform="translate(29.116 29.147)"/>
            <path id="prefix__Path_3357" d="M40 37.77l-.39.23v2.214l.369-.214z" class="prefix__cls-37" data-name="Path 3357" transform="translate(29.994 28.601)"/>
            <path id="prefix__Path_3358" d="M39.979 39.04l5.483 3.145-.387.228-5.465-3.162z" class="prefix__cls-38" data-name="Path 3358" transform="translate(29.994 29.563)"/>
            <path id="prefix__Path_3359" d="M39.708 37.9l-.228.123v2.214l5.465 3.163.228-.123-5.465-3.163z" class="prefix__cls-39" data-name="Path 3359" transform="translate(29.896 28.7)"/>
            <g id="prefix__Group_811" data-name="Group 811" transform="translate(71.15 63.402)">
                <path id="prefix__Path_3360" d="M40.5 36.2l8.118 4.692V45.2L40.5 40.505z" class="prefix__cls-39" data-name="Path 3360" transform="translate(-40.482 -35.989)"/>
                <path id="prefix__Path_3361" d="M45.11 43.274l.387-.211V38.74l-.369.228z" class="prefix__cls-37" data-name="Path 3361" transform="translate(-36.992 -34.066)"/>
                <path id="prefix__Path_3362" d="M48.626 40.983l.374-.229-8.123-4.674-.387.211z" class="prefix__cls-38" data-name="Path 3362" transform="translate(-40.49 -36.08)"/>
            </g>
            <g id="prefix__Group_812" data-name="Group 812" transform="translate(69.903 68.769)">
                <path id="prefix__Path_3363" fill="url(#prefix__linear-gradient-3)" d="M40.483 44.925l7.872-4.551a.334.334 0 0 0 .141-.316 1.125 1.125 0 0 0-.51-.879.369.369 0 0 0-.351 0L39.78 43.73a.334.334 0 0 1 .351 0 1.089 1.089 0 0 1 .51.861.351.351 0 0 1-.158.334z" data-name="Path 3363" transform="translate(-39.78 -39.135)"/>
            </g>
            <path id="prefix__Path_3364" d="M40.645 42.136a1.23 1.23 0 0 0-.387-.4.457.457 0 0 0-.422 0 .422.422 0 0 0-.176.387 1.019 1.019 0 0 0 .158.527 1.037 1.037 0 0 0 .369.4.369.369 0 0 0 .6-.351 1.248 1.248 0 0 0-.141-.562z" class="prefix__cls-41" data-name="Path 3364" transform="translate(30.031 31.563)"/>
            <g id="prefix__Group_813" data-name="Group 813" transform="translate(69.76 73.315)">
                <path id="prefix__Path_3365" fill="url(#prefix__linear-gradient-4)" d="M40.545 42.966a.369.369 0 0 1-.351 0 1.142 1.142 0 0 1-.492-.879.334.334 0 0 1 .141-.316.334.334 0 0 1 .351 0 1.089 1.089 0 0 1 .51.861.351.351 0 0 1-.158.334z" data-name="Path 3365" transform="translate(-39.698 -41.722)"/>
            </g>
            <path id="prefix__Path_3366" fill="url(#prefix__linear-gradient-5)" d="M41.7 43.783l5.887-3.409a.334.334 0 0 0 .141-.316 1.125 1.125 0 0 0-.51-.879.369.369 0 0 0-.351 0l-5.887 3.374a.387.387 0 0 0-.176.334 1.019 1.019 0 0 0 .51.879h.211z" data-name="Path 3366" transform="translate(30.895 29.635)"/>
            <path id="prefix__Path_3367" fill="url(#prefix__linear-gradient-6)" d="M41.651 42.324a.334.334 0 0 0 .141-.316 1.089 1.089 0 0 0-.492-.879.369.369 0 0 0-.351 0 .387.387 0 0 0-.158.334 1.089 1.089 0 0 0 .51.861.527.527 0 0 0 .193 0 .264.264 0 0 0 .158 0z" data-name="Path 3367" transform="translate(30.887 31.111)"/>
            <path id="prefix__Path_3368" fill="url(#prefix__linear-gradient-7)" d="M40.334 43.707l7.574-4.376s-.281-.246-.457-.141L40 43.479a.879.879 0 0 1 .334.228z" data-name="Path 3368" opacity="0.4" transform="translate(30.289 29.658)"/>
            <g id="prefix__Group_814" data-name="Group 814" transform="translate(65.404 66.269)">
                <path id="prefix__Path_3369" fill="url(#prefix__linear-gradient-8)" d="M37.94 43.49l7.86-4.534a.369.369 0 0 0 .141-.334 1.125 1.125 0 0 0-.492-.861.334.334 0 0 0-.351 0L37.22 42.3a.334.334 0 0 1 .351 0 1.089 1.089 0 0 1 .51.861.369.369 0 0 1-.141.334z" data-name="Path 3369" transform="translate(-37.22 -37.712)"/>
            </g>
            <path id="prefix__Path_3370" d="M38.085 40.655a1.019 1.019 0 0 0-.387-.387.369.369 0 0 0-.422 0 .4.4 0 0 0-.176.369 1.072 1.072 0 0 0 .158.545 1.019 1.019 0 0 0 .387.387.4.4 0 0 0 .422 0 .439.439 0 0 0 .176-.387 1.072 1.072 0 0 0-.158-.527z" class="prefix__cls-41" data-name="Path 3370" transform="translate(28.093 30.443)"/>
            <g id="prefix__Group_815" data-name="Group 815" transform="translate(65.261 70.802)">
                <path id="prefix__Path_3371" fill="url(#prefix__linear-gradient-9)" d="M38 41.536a.369.369 0 0 1-.351 0 1.107 1.107 0 0 1-.51-.879.334.334 0 0 1 .141-.316.334.334 0 0 1 .351 0 1.089 1.089 0 0 1 .51.861.369.369 0 0 1-.141.334z" data-name="Path 3371" transform="translate(-37.138 -40.292)"/>
            </g>
            <path id="prefix__Path_3372" fill="#c70917" d="M39.971 41.191a1.089 1.089 0 0 0-.51-.861.334.334 0 0 0-.351 0l4.551-2.618a.334.334 0 0 1 .351 0 1.125 1.125 0 0 1 .492.861.369.369 0 0 1-.141.334l-4.533 2.618a.369.369 0 0 0 .141-.334z" data-name="Path 3372" transform="translate(29.615 28.519)"/>
            <path id="prefix__Path_3373" fill="#f80007" d="M39.523 40.376a1.125 1.125 0 0 1-.492-.879.334.334 0 0 1 .141-.316.334.334 0 0 1 .351 0 1.089 1.089 0 0 1 .51.861.369.369 0 0 1-.141.334.369.369 0 0 1-.369 0z" data-name="Path 3373" transform="translate(29.554 29.632)"/>
            <path id="prefix__Path_3374" fill="url(#prefix__linear-gradient-10)" d="M37.776 42.225l7.556-4.376s-.264-.228-.439-.141l-7.433 4.306a.756.756 0 0 1 .316.211z" data-name="Path 3374" opacity="0.4" transform="translate(28.366 28.54)"/>
            <g id="prefix__Group_816" data-name="Group 816" transform="translate(66.88 67.047)">
                <path id="prefix__Path_3375" fill="url(#prefix__linear-gradient-11)" d="M38.763 43.928l7.855-4.534a.334.334 0 0 0 .158-.334 1.089 1.089 0 0 0-.51-.861.369.369 0 0 0-.351 0l-7.855 4.534a.369.369 0 0 1 .351 0 1.125 1.125 0 0 1 .51.879.351.351 0 0 1-.158.316z" data-name="Path 3375" transform="translate(-38.06 -38.155)"/>
            </g>
            <path id="prefix__Path_3376" d="M38.927 41.21a1.23 1.23 0 0 0-.387-.4.369.369 0 0 0-.6.351 1.072 1.072 0 0 0 .158.527 1.037 1.037 0 0 0 .369.4.457.457 0 0 0 .422 0 .422.422 0 0 0 .176-.387 1.177 1.177 0 0 0-.138-.491z" class="prefix__cls-41" data-name="Path 3376" transform="translate(28.727 30.837)"/>
            <g id="prefix__Group_817" data-name="Group 817" transform="translate(66.722 71.581)">
                <path id="prefix__Path_3377" fill="url(#prefix__linear-gradient-12)" d="M38.831 41.974a.334.334 0 0 1-.351 0 1.142 1.142 0 0 1-.51-.861.387.387 0 0 1 .158-.334.369.369 0 0 1 .351 0 1.125 1.125 0 0 1 .51.879.351.351 0 0 1-.158.316z" data-name="Path 3377" transform="translate(-37.97 -40.735)"/>
            </g>
            <path id="prefix__Path_3378" fill="#0baeb2" d="M41.806 40.923l2.653-1.529a.334.334 0 0 0 .158-.334 1.09 1.09 0 0 0-.51-.861.369.369 0 0 0-.351 0l-2.688 1.441a.387.387 0 0 0-.158.334 1.09 1.09 0 0 0 .51.861.334.334 0 0 0 .193 0s.158.123.193.088z" data-name="Path 3378" transform="translate(30.978 28.893)"/>
            <path id="prefix__Path_3379" fill="#00dcec" d="M41.791 40.261a.351.351 0 0 0 .158-.316 1.16 1.16 0 0 0-.51-.879.422.422 0 0 0-.351 0 .387.387 0 0 0-.158.334 1.089 1.089 0 0 0 .51.861.334.334 0 0 0 .193 0s.123.039.158 0z" data-name="Path 3379" transform="translate(30.993 29.554)"/>
            <path id="prefix__Path_3380" fill="url(#prefix__linear-gradient-13)" d="M38.606 42.71l7.556-4.358s-.264-.246-.439-.141L38.29 42.5a.756.756 0 0 1 .316.21z" data-name="Path 3380" opacity="0.4" transform="translate(28.995 28.916)"/>
            <g id="prefix__Group_818" data-name="Group 818" transform="translate(68.409 67.918)">
                <path id="prefix__Path_3381" fill="url(#prefix__linear-gradient-14)" d="M39.65 44.431l7.855-4.531a.369.369 0 0 0 .141-.334 1.125 1.125 0 0 0-.492-.861.351.351 0 0 0-.369 0l-7.855 4.531a.334.334 0 0 1 .351 0 1.09 1.09 0 0 1 .51.861.369.369 0 0 1-.141.334z" data-name="Path 3381" transform="translate(-38.93 -38.65)"/>
            </g>
            <path id="prefix__Path_3382" d="M39.794 41.645a1.019 1.019 0 0 0-.387-.387.369.369 0 0 0-.422 0 .422.422 0 0 0-.176.369.966.966 0 0 0 .158.527 1.177 1.177 0 0 0 .369.4.4.4 0 0 0 .615-.387 1.072 1.072 0 0 0-.158-.527z" class="prefix__cls-41" data-name="Path 3382" transform="translate(29.388 31.193)"/>
            <g id="prefix__Group_819" data-name="Group 819" transform="translate(68.266 72.454)">
                <path id="prefix__Path_3383" fill="url(#prefix__linear-gradient-15)" d="M39.712 42.476a.4.4 0 0 1-.369 0 1.125 1.125 0 0 1-.492-.879.334.334 0 0 1 .141-.316.334.334 0 0 1 .351 0 1.089 1.089 0 0 1 .51.861.369.369 0 0 1-.141.334z" data-name="Path 3383" transform="translate(-38.848 -41.232)"/>
            </g>
            <path id="prefix__Path_3384" fill="url(#prefix__linear-gradient-16)" d="M39.469 43.217l7.574-4.376s-.281-.246-.439-.141l-7.434 4.307a.633.633 0 0 1 .299.21z" data-name="Path 3384" opacity="0.4" transform="translate(29.661 29.287)"/>
            <g id="prefix__Group_820" data-name="Group 820" transform="translate(63.911 65.325)">
                <path id="prefix__Path_3385" fill="url(#prefix__linear-gradient-17)" d="M37.073 42.948l7.872-4.534a.334.334 0 0 0 .141-.316 1.125 1.125 0 0 0-.51-.879.369.369 0 0 0-.351 0l-7.855 4.534a.387.387 0 0 1 .351 0 1.089 1.089 0 0 1 .51.861c0 .176-.053.299-.158.334z" data-name="Path 3385" transform="translate(-36.37 -37.175)"/>
            </g>
            <path id="prefix__Path_3386" d="M37.234 40.2a1.23 1.23 0 0 0-.387-.4.391.391 0 0 0-.6.387 1.072 1.072 0 0 0 .158.527 1.177 1.177 0 0 0 .369.4.406.406 0 0 0 .615-.387 1.213 1.213 0 0 0-.155-.527z" class="prefix__cls-41" data-name="Path 3386" transform="translate(27.449 30.094)"/>
            <g id="prefix__Group_821" data-name="Group 821" transform="translate(63.768 69.861)">
                <path id="prefix__Path_3387" fill="url(#prefix__linear-gradient-18)" d="M37.135 40.993h-.351a1.072 1.072 0 0 1-.492-.861.369.369 0 0 1 .141-.334.387.387 0 0 1 .351 0 1.089 1.089 0 0 1 .51.861c0 .158 0 .281-.158.316z" data-name="Path 3387" transform="translate(-36.289 -39.756)"/>
            </g>
            <path id="prefix__Path_3388" fill="url(#prefix__linear-gradient-19)" d="M39.155 40.909l4.323-2.5a.334.334 0 0 0 .141-.316 1.125 1.125 0 0 0-.51-.879.369.369 0 0 0-.351 0l-4.305 2.46a.334.334 0 0 0-.141.316 1.125 1.125 0 0 0 .492.879H39z" data-name="Path 3388" transform="translate(29.009 28.15)"/>
            <path id="prefix__Path_3389" fill="url(#prefix__linear-gradient-20)" d="M39.155 39.836a.351.351 0 0 0 .158-.334 1.089 1.089 0 0 0-.51-.861.334.334 0 0 0-.351 0 .334.334 0 0 0-.141.316 1.125 1.125 0 0 0 .492.879h.351z" data-name="Path 3389" transform="translate(29.009 29.223)"/>
            <path id="prefix__Path_3390" fill="url(#prefix__linear-gradient-21)" d="M36.916 41.73l7.574-4.358s-.281-.246-.457-.141L36.6 41.519a1 1 0 0 1 .316.211z" data-name="Path 3390" opacity="0.4" transform="translate(27.715 28.173)"/>
            <g id="prefix__Group_822" data-name="Group 822" transform="translate(69.376 64.421)">
                <path id="prefix__Path_3391" d="M39.62 38.655l.369-.211V36.88l-.369.228z" class="prefix__cls-37" data-name="Path 3391" transform="translate(-39.374 -36.493)"/>
                <path id="prefix__Path_3392" d="M44.927 42.324l.373-.224-2.2-1.27-.369.228z" class="prefix__cls-38" data-name="Path 3392" transform="translate(-37.019 -33.502)"/>
                <path id="prefix__Path_3393" d="M44.963 44.248l.228-.123 2.2 1.265v-3.778l-7.662-4.428v1.546l-.246.141.017-2.091 8.118 4.692v4.305z" class="prefix__cls-39" data-name="Path 3393" transform="translate(-39.48 -36.569)"/>
                <path id="prefix__Path_3394" d="M44.11 43.846l.369-.211.021-4.305-.387.211z" class="prefix__cls-37" data-name="Path 3394" transform="translate(-35.974 -34.638)"/>
                <path id="prefix__Path_3395" d="M47.608 41.563l.392-.211-8.141-4.692-.369.211z" class="prefix__cls-38" data-name="Path 3395" transform="translate(-39.472 -36.66)"/>
            </g>
            <g id="prefix__Group_823" data-name="Group 823" transform="translate(67.566 65.458)">
                <path id="prefix__Path_3396" d="M38.58 39.255l.387-.211V37.48l-.387.211z" class="prefix__cls-37" data-name="Path 3396" transform="translate(-38.352 -37.076)"/>
                <path id="prefix__Path_3397" d="M43.887 42.906l.387-.211-2.2-1.265-.387.211z" class="prefix__cls-38" data-name="Path 3397" transform="translate(-35.997 -34.085)"/>
                <path id="prefix__Path_3398" d="M43.915 44.848l.228-.141 2.2 1.265.018-3.778-7.679-4.428v1.564l-.228.123V37.38l8.136 4.692-.018 4.305z" class="prefix__cls-39" data-name="Path 3398" transform="translate(-38.45 -37.152)"/>
                <path id="prefix__Path_3399" d="M43.07 44.454l.369-.211.018-4.323-.369.228z" class="prefix__cls-37" data-name="Path 3399" transform="translate(-34.952 -35.228)"/>
                <path id="prefix__Path_3400" d="M46.586 42.17l.369-.228-8.118-4.692-.387.228z" class="prefix__cls-38" data-name="Path 3400" transform="translate(-38.45 -37.25)"/>
            </g>
            <path id="prefix__Path_3401" d="M11.156 31.916l-.474.334v.123a4.34 4.34 0 0 0-.65 2.46 10.965 10.965 0 0 0 4.955 8.575 4.165 4.165 0 0 0 2.636.65l.474-.176a3.286 3.286 0 0 0 1.757-3.356 10.948 10.948 0 0 0-4.973-8.593 3.181 3.181 0 0 0-3.725-.018z" class="prefix__cls-64" data-name="Path 3401" transform="translate(7.594 23.719)"/>
            <path id="prefix__Path_3402" d="M11.049 31.982l-.527.316v.088a3.848 3.848 0 0 0-.879 2.706 10.772 10.772 0 0 0 4.868 8.452 3.971 3.971 0 0 0 2.794.6l.545-.3a3.392 3.392 0 0 0 1.494-3.2 10.772 10.772 0 0 0-4.78-8.365 3.409 3.409 0 0 0-3.514-.3z" class="prefix__cls-65" data-name="Path 3402" transform="translate(7.296 23.951)"/>
            <path id="prefix__Path_3403" d="M9.29 35.317c0-3.11 2.179-4.358 4.868-2.812a10.754 10.754 0 0 1 4.885 8.4c0 3.11-2.179 4.358-4.885 2.812a10.772 10.772 0 0 1-4.868-8.4z" class="prefix__cls-66" data-name="Path 3403" transform="translate(7.035 24.113)"/>
            <path id="prefix__Path_3404" d="M10.059 32.873l-.141.105-.618.422v.141a4.042 4.042 0 0 0-.492 2.091 10 10 0 0 0 4.516 7.837 4.323 4.323 0 0 0 2.074.615v.123l.773-.264h.129a3.04 3.04 0 0 0 1.634-3.022 9.981 9.981 0 0 0-4.534-7.837 3.04 3.04 0 0 0-3.339-.211z" class="prefix__cls-67" data-name="Path 3404" transform="translate(6.67 24.589)"/>
            <path id="prefix__Path_3405" d="M9.788 33.172l-.422.158a3.515 3.515 0 0 0-.843 2.5 9.735 9.735 0 0 0 4.393 7.644 3.514 3.514 0 0 0 2.6.51l.422-.246a3.075 3.075 0 0 0 1.336-2.882 9.7 9.7 0 0 0-4.411-7.626 2.987 2.987 0 0 0-3.075-.053z" class="prefix__cls-68" data-name="Path 3405" transform="translate(6.449 24.817)"/>
            <path id="prefix__Path_3406" d="M8.24 36.081c0-2.812 1.986-3.936 4.411-2.53a9.682 9.682 0 0 1 4.411 7.626c0 2.812-1.968 3.954-4.411 2.548a9.788 9.788 0 0 1-4.411-7.644z" class="prefix__cls-67" data-name="Path 3406" transform="translate(6.24 24.948)"/>
            <path id="prefix__Path_3407" fill="#22646b" d="M14.134 42.718a2.917 2.917 0 0 1-1.406-.457A8.663 8.663 0 0 1 8.88 35.6c0-.6.141-2.021 1.318-2.021a2.917 2.917 0 0 1 1.406.457 8.646 8.646 0 0 1 3.848 6.66c0 .651-.123 2.022-1.318 2.022z" data-name="Path 3407" transform="translate(6.724 25.428)"/>
            <path id="prefix__Path_3408" d="M20.37 28.759c0-2.847 1.986-3.989 4.446-2.566a9.841 9.841 0 0 1 4.463 7.714c0 2.829-2 3.989-4.463 2.566a9.823 9.823 0 0 1-4.446-7.714z" class="prefix__cls-68" data-name="Path 3408" transform="translate(15.425 19.372)"/>
            <path id="prefix__Path_3409" d="M20.09 28.919c0-2.847 2-3.989 4.463-2.566A9.805 9.805 0 0 1 29 34.068c0 2.829-1.986 3.989-4.446 2.566a9.841 9.841 0 0 1-4.463-7.714z" class="prefix__cls-67" data-name="Path 3409" transform="translate(15.213 19.493)"/>
            <path id="prefix__Path_3410" d="M19.621 26.583l.3.527a4.5 4.5 0 0 0-.439 2.056 10.333 10.333 0 0 0 4.69 8.134 4.34 4.34 0 0 0 2 .633l.3.51 1.125-.9a3.409 3.409 0 0 0 1.25-2.943 10.333 10.333 0 0 0-4.674-8.118 3.409 3.409 0 0 0-3.11-.387z" class="prefix__cls-66" data-name="Path 3410" transform="translate(14.75 19.597)"/>
            <path id="prefix__Path_3411" d="M19.424 27.031a3.9 3.9 0 0 0-.791 2.6 10.631 10.631 0 0 0 4.85 8.382 3.936 3.936 0 0 0 2.636.633l.088.123.7-.4a3.515 3.515 0 0 0 1.423-3.145 10.737 10.737 0 0 0-4.85-8.4 3.391 3.391 0 0 0-3.427-.334l-.72.4z" class="prefix__cls-65" data-name="Path 3411" transform="translate(14.104 19.817)"/>
            <path id="prefix__Path_3412" fill="#323535" d="M18.17 29.89c0-3.093 2.179-4.34 4.85-2.794a10.684 10.684 0 0 1 4.85 8.4c0 3.075-2.161 4.34-4.85 2.794a10.737 10.737 0 0 1-4.85-8.4z" data-name="Path 3412" transform="translate(13.759 20.016)"/>
            <path id="prefix__Path_3413" d="M19.7 27.206a1.406 1.406 0 0 1 .562-.176 3.11 3.11 0 0 1 1.757.51 9.577 9.577 0 0 1 4.323 7.5 2.812 2.812 0 0 1-.615 2l-.281.228a2.513 2.513 0 0 1-2.372-.351 8.892 8.892 0 0 1-3.04-3.233 8.786 8.786 0 0 1-1.283-4.253 2.46 2.46 0 0 1 .949-2.225z" class="prefix__cls-64" data-name="Path 3413" transform="translate(14.184 20.468)"/>
            <path id="prefix__Path_3414" fill="#3d8280" d="M19.805 27a3.075 3.075 0 0 1 1.757.439h.105a8.892 8.892 0 0 1 3.04 3.233 8.786 8.786 0 0 1 1.283 4.253v.228a2.794 2.794 0 0 1-.615 1.757 3.251 3.251 0 0 1-1.757-.51 9.577 9.577 0 0 1-4.318-7.483A2.829 2.829 0 0 1 19.805 27z" data-name="Path 3414" transform="translate(14.601 20.444)"/>
            <path id="prefix__Path_3415" fill="#1f9993" d="M20.972 27.27h.105a8.892 8.892 0 0 1 3.04 3.233 8.786 8.786 0 0 1 1.283 4.253v.228a2.232 2.232 0 0 1-2.232-.228 7.029 7.029 0 0 1-3.163-5.412 2.2 2.2 0 0 1 .966-2.074z" data-name="Path 3415" transform="translate(15.139 20.65)"/>
            <g id="prefix__Group_824" data-name="Group 824" transform="translate(19.908 35.725)">
                <path id="prefix__Path_3416" fill="url(#prefix__linear-gradient-22)" d="M22.022 22.128L19.65 20.74c3.514 2.056 3.637 9.12 3.637 9.19l2.39 1.371s-.017-7.134-3.655-9.173z" data-name="Path 3416" transform="translate(-5.028 -20.02)"/>
                <path id="prefix__Path_3417" fill="url(#prefix__linear-gradient-23)" d="M21.362 22.53c2.741-1.582 5.008-1.88 6.748-.9 3.637 2.074 3.69 9.243 3.69 9.313l-.193.105s0-7.134-3.655-9.173c-1.757-.966-3.9-.668-6.59.879A16.4 16.4 0 0 0 15.23 29.1a28.679 28.679 0 0 0-3.146 13.41l-.193.123a28.942 28.942 0 0 1 3.216-13.619 16.887 16.887 0 0 1 6.256-6.484z" data-name="Path 3417" transform="translate(-10.905 -19.771)"/>
                <path id="prefix__Path_3418" fill="url(#prefix__linear-gradient-24)" d="M16.181 28.536c.123-.211.264-.4.387-.6l.105-.158.387-.51.088-.123c.176-.228.351-.439.545-.65l.141-.158.246-.281.158-.176.264-.264.141-.141.668-.615.105-.105.685-.545h.123a6.872 6.872 0 0 1 .72-.527h.088c.264-.176.527-.351.808-.51l.474-.264h.141l.316-.158.158-.088.316-.141h.355l.369-.141h.193l.387-.123h2.179a1.916 1.916 0 0 1 .457 0l.422.088h.123l.3.088h.123l.351.158-2.39-1.371-.351-.176h-.093l-.281-.105H25.3l-.492-.615h-2.635l-.4.123h-.176l-.369.141h-.369l-.3.141H20.4l-.316.158-.141.088-.474.246c-.281.158-.545.334-.808.51h-.088l-.738.527-.105.088c-.246.176-.457.369-.685.562l-.126.091-.65.615a.808.808 0 0 0-.123.123l-.246.246-.176.193-.246.264-.088.105c-.193.211-.369.439-.545.668v.086l-.369.51v.09l-.4.6-.316.51-.176.3-.211.4c-.105.193-.211.4-.3.6-.123.228-.228.474-.334.72v.105l-.3.72a.3.3 0 0 1 0 .088l-.334.949a.246.246 0 0 1 0 .105.507.507 0 0 1-.123.387c-.123.141 0 .158 0 .246a.63.63 0 0 1-.123.422v.158a3.832 3.832 0 0 1-.193.773v.193l-.158.668v.088a1.109 1.109 0 0 1-.123.615c-.123.211 0 .105 0 .158v3.005a.668.668 0 0 0 0 .176v1.248a.351.351 0 0 1 0 .123v1.107l2.372 1.371v-1.073a.228.228 0 0 0 0-.105v-.317a.545.545 0 0 0 0-.176v-.334a.492.492 0 0 1 0-.158v1.265a.492.492 0 0 0 0-.158v-.633a.72.72 0 0 1 0-.193v-1.265a.492.492 0 0 1 0-.158 3.514 3.514 0 0 1 0-.422v-.176a4.5 4.5 0 0 0 .088-.474v-.123a1.523 1.523 0 0 1 .123-.633 4.815 4.815 0 0 1 .158-.685.527.527 0 0 1 0-.176 3.321 3.321 0 0 1 .193-.773v-.176a4.235 4.235 0 0 1 .141-.439.879.879 0 0 1 0-.228 3.515 3.515 0 0 1 .123-.4v-.176c.105-.316.228-.65.351-.966v-.123c.088-.228.176-.474.281-.72a.633.633 0 0 0 0-.158c.123-.246.228-.492.334-.738v-.094c.088-.193.193-.387.3-.58l.264-.492.211-.369.316-.51a.369.369 0 0 1-.457-.264z" data-name="Path 3418" transform="translate(-11.329 -20.33)"/>
            </g>
            <path id="prefix__Path_3419" d="M10.833 32c0 .123-.088.826-.633.931a7.187 7.187 0 0 1 3.163 1.863s-.246-.246-.211-1.142z" class="prefix__cls-76" data-name="Path 3419" transform="translate(7.724 24.232)"/>
            <path id="prefix__Path_3420" fill="url(#prefix__linear-gradient-25)" d="M12.054 32.84a1.423 1.423 0 0 0 .439 1.072l-.369.246a1.213 1.213 0 0 1-.193-.668 1.371 1.371 0 0 1 .123-.65z" data-name="Path 3420" transform="translate(9.033 24.868)"/>
            <path id="prefix__Path_3421" d="M21.94 25.37c0 .123.088.773-.51.931a7.24 7.24 0 0 1 3.251 2.056 2.654 2.654 0 0 1-.351-1.476z" class="prefix__cls-76" data-name="Path 3421" transform="translate(16.228 19.211)"/>
            <path id="prefix__Path_3422" fill="url(#prefix__linear-gradient-26)" d="M23.269 26.31a1.3 1.3 0 0 0 .51 1.072l-.387.246a2.355 2.355 0 0 1-.281-.914c-.018-.386.158-.404.158-.404z" data-name="Path 3422" transform="translate(17.499 19.923)"/>
            <path id="prefix__Path_3423" d="M11.143 29a15.815 15.815 0 0 0 2.32 1.16s-.316 1.582-.51 3.321a13.478 13.478 0 0 0-.105 2.724 4.832 4.832 0 0 0-2.407-1.283 26.165 26.165 0 0 1 .211-2.9c.192-1.704.491-3.022.491-3.022z" class="prefix__cls-76" data-name="Path 3423" transform="translate(7.906 21.96)"/>
            <path id="prefix__Path_3424" fill="url(#prefix__linear-gradient-27)" d="M10.84 29a13.408 13.408 0 0 0 2.32 1.16h.088L10.963 29z" data-name="Path 3424" transform="translate(8.208 21.96)"/>
            <path id="prefix__Path_3425" fill="url(#prefix__linear-gradient-28)" d="M12.53 29.63h-.088s-.193.914-.4 2.5a22.247 22.247 0 0 0-.228 2.741 3.884 3.884 0 0 0 0 .808h.105a11.563 11.563 0 0 1 0-2.214c.242-1.34.611-3.835.611-3.835z" data-name="Path 3425" transform="translate(8.926 22.437)"/>
            <path id="prefix__Path_3426" d="M59.776 44.481L27.97 62.845V21.883L59.776 3.52z" class="prefix__cls-11" data-name="Path 3426" transform="translate(21.18 2.666)"/>
            <path id="prefix__Path_3427" d="M57.89 43.026L28.72 59.878V21.534L57.89 4.7zm-28.871 16.4L57.609 42.9V5.227l-28.59 16.43z" class="prefix__cls-81" data-name="Path 3427" transform="translate(21.748 3.559)"/>
            <path id="prefix__Path_3428" fill="#a5190f" d="M39.113 12.014v.316a3.321 3.321 0 0 1-.334 1.089 6.22 6.22 0 0 1-.931 1.125l-.176.158a.439.439 0 0 1-.158 0 2 2 0 0 1-.931 0c-.176 0-.281-.351-.351-.7a1.353 1.353 0 0 0 0-.264 11.055 11.055 0 0 1 0-1.529l3-1.757a13.3 13.3 0 0 1-.123 1.564z" data-name="Path 3428" transform="translate(27.416 7.913)"/>
            <path id="prefix__Path_3429" d="M37.264 10.89v3.321l-.176.158a.439.439 0 0 1-.158 0v-3.286z" class="prefix__cls-30" data-name="Path 3429" transform="translate(27.965 8.246)"/>
            <path id="prefix__Path_3430" d="M39.1 11.34v.316l-2.88 1.652a1.353 1.353 0 0 0 0-.264z" class="prefix__cls-30" data-name="Path 3430" transform="translate(27.427 8.587)"/>
            <path id="prefix__Path_3431" fill="#d32e1c" d="M37.236 11.87a.3.3 0 0 1-.176.246h-.14a.281.281 0 0 1 .141-.211s.175-.105.175-.035z" data-name="Path 3431" transform="translate(27.957 8.971)"/>
            <path id="prefix__Path_3432" d="M32.481 19.269l.211-.123v.51a1.335 1.335 0 0 1-.281.246 1.757 1.757 0 0 1-.316.228 2.794 2.794 0 0 1-.545.246.65.65 0 0 1-.4 0 .387.387 0 0 1-.246-.228.879.879 0 0 1-.088-.474 1.757 1.757 0 0 1 .088-.6 2.46 2.46 0 0 1 .264-.527 2.987 2.987 0 0 1 .387-.422 2.759 2.759 0 0 1 .457-.334l.211-.123h.457v.562l-.211.123V18h-.105l-.246.123a1.089 1.089 0 0 0-.334.246 1.142 1.142 0 0 0-.264.316 1.177 1.177 0 0 0-.176.4 1.511 1.511 0 0 0 0 .492c0 .3 0 .492.228.58a.738.738 0 0 0 .668-.141.914.914 0 0 0 .193-.123l.123-.123v-.088z" data-name="Path 3432" transform="translate(23.329 13.381)"/>
            <path id="prefix__Path_3433" d="M33.785 16.88v.527l-.211.123v-.281l-.808.457v.843l.562-.316v-.141l.211-.123v.562l-.211.123v-.141l-.562.316v.9l.861-.51v-.545l.211-.105v.562l-1.758 1.035v-.193l.3-.158v-1.933l-.3.176v-.176z" data-name="Path 3433" transform="translate(24.292 12.782)"/>
            <path id="prefix__Path_3434" d="M33.91 18.8l.3-.158v.176l-.949.562v-.105l.281-.176v-2l-.281.176v-.193l.316-.176.334-.211.334-.211.334-.158a.826.826 0 0 1 .281 0 .228.228 0 0 1 .176.105.351.351 0 0 1 0 .246 1.107 1.107 0 0 1-.141.492 1.757 1.757 0 0 1-.334.351l.65.474.211-.105v.176l-.545.316-.65-.615-.334.193zm.264-1.107a1.125 1.125 0 0 0 .387-.369.756.756 0 0 0 .158-.457q0-.246-.158-.264a.685.685 0 0 0-.4.105l-.141.105h-.11v.949z" data-name="Path 3434" transform="translate(25.186 12.353)"/>
            <path id="prefix__Path_3435" d="M35.963 17.978l-1.037.6v-.193l.422-.141v-1.97l-.58.334v.527l-.228.141v-.668l2.144-1.248v.685l-.246.141v-.422l-.6.334v1.915l.334-.193z" data-name="Path 3435" transform="translate(26.155 11.631)"/>
            <path id="prefix__Path_3436" d="M36.766 17.254l-.966.562v-.193l.3-.176v-1.915l-.3.176v-.193l.966-.545v.176l-.3.176v1.915l.3-.158z" data-name="Path 3436" transform="translate(27.109 11.336)"/>
            <path id="prefix__Path_3437" d="M37.16 17.041l.351-.211v.193l-1 .58v-.176l.3-.176v-1.932l-.3.176v-.176l1.756-1.019v.527l-.211.123v-.281l-.843.474v.9l.6-.334v-.179l.211-.123V16l-.211.123v-.246l-.6.351z" data-name="Path 3437" transform="translate(27.647 10.829)"/>
            <path id="prefix__Path_3438" d="M38.666 16.154l-.966.562v-.193l.3-.158V14.45l-.3.158v-.176l.966-.562v.23l-.3.158v1.932l.3-.176z" data-name="Path 3438" transform="translate(28.548 10.503)"/>
            <path id="prefix__Path_3439" d="M40.092 14.867l.211-.123v.51l-.264.246-.334.228a2.179 2.179 0 0 1-.527.228.668.668 0 0 1-.4 0 .422.422 0 0 1-.264-.228 1.142 1.142 0 0 1 0-.474 1.757 1.757 0 0 1 .105-.615 1.564 1.564 0 0 1 .264-.51 2.232 2.232 0 0 1 .387-.439 2.654 2.654 0 0 1 .457-.316l.211-.123h.439v.562l-.211.123v-.351h-.246l-.246.123a2.337 2.337 0 0 0-.334.246l-.264.334a2.144 2.144 0 0 0-.176.4 1.933 1.933 0 0 0 0 .474c0 .316 0 .51.246.58a.866.866 0 0 0 .668-.123L40 15.5l.123-.123v-.088z" data-name="Path 3439" transform="translate(29.143 10.034)"/>
            <path id="prefix__Path_3440" d="M40.448 15.261l-.808.457v-.193l.264-.141.843-2.583.351-.211.773 1.669.246-.158v.193l-.949.545v-.193l.3-.158-.211-.457-.861.492-.228.7.281-.158zm0-.949l.738-.439-.264-.562v-.3.422z" data-name="Path 3440" transform="translate(30.017 9.534)"/>
            <path id="prefix__Path_3441" d="M42.471 14.231l-1.037.6v-.176l.334-.193v-1.936l-.58.351v.523l-.228.123v-.663l2.14-1.23v.65l-.246.141V12l-.6.334v1.933l.334-.193z" data-name="Path 3441" transform="translate(31.016 8.807)"/>
            <path id="prefix__Path_3442" d="M43.942 11v.527l-.211.123v-.281l-.791.474v.843l.545-.316v-.14l.211-.123v.562l-.158.088v-.141l-.545.316v.9l.843-.492v-.58l.211-.123v.563l-1.757 1.033v-.176l.3-.176v-1.862l-.3.158V12z" data-name="Path 3442" transform="translate(32.023 8.33)"/>
            <path id="prefix__Path_3443" d="M54.571 36.391L30.04 50.554V26.673L54.571 12.51z" class="prefix__cls-84" data-name="Path 3443" transform="translate(22.747 9.473)"/>
            <path id="prefix__Path_3444" d="M36.949 27.558l-1.089 4.148.6-.756.264.51 1.072-4.13z" class="prefix__cls-85" data-name="Path 3444" transform="translate(27.154 20.696)"/>
            <path id="prefix__Path_3445" d="M37.916 26.83l1.089 2.917-.58-.088-.264.808-1.072-2.9z" class="prefix__cls-85" data-name="Path 3445" transform="translate(28.086 20.317)"/>
            <path id="prefix__Path_3446" d="M39.62 26.775a3.743 3.743 0 0 1-1.863 2.935c-1 .6-1.757.246-1.757-.773a3.8 3.8 0 0 1 1.757-2.864c1.055-.651 1.863-.3 1.863.702z" class="prefix__cls-81" data-name="Path 3446" transform="translate(27.26 19.493)"/>
            <path id="prefix__Path_3447" fill="#e22020" d="M38.871 26.816a2.636 2.636 0 0 1-1.318 2.021c-.7.4-1.283.158-1.283-.545a2.636 2.636 0 0 1 1.283-2c.738-.372 1.318-.179 1.318.524z" data-name="Path 3447" transform="translate(27.465 19.768)"/>
            <path id="prefix__Path_3448" d="M52.006 16.154L31.06 28.243V28l20.946-12.11z" class="prefix__cls-87" data-name="Path 3448" transform="translate(23.52 12.033)"/>
            <path id="prefix__Path_3449" d="M52.006 16.756L31.06 28.863V28.6l20.946-12.09z" class="prefix__cls-87" data-name="Path 3449" transform="translate(23.52 12.502)"/>
            <path id="prefix__Path_3450" d="M52.006 17.384L31.06 29.473v-.246L52.006 17.12z" class="prefix__cls-87" data-name="Path 3450" transform="translate(23.52 12.964)"/>
            <path id="prefix__Path_3451" d="M52.006 17.986L31.06 30.076v-.246l20.946-12.09z" class="prefix__cls-87" data-name="Path 3451" transform="translate(23.52 13.434)"/>
            <path id="prefix__Path_3452" fill="#dbccb4" d="M28.114 55.022l-.334-.211V13.85l.334.211z" data-name="Path 3452" transform="translate(21.036 10.488)"/>
            <path id="prefix__Path_3453" d="M28.114 21.959L59.92 3.6l-.334-.176L27.78 21.748z" class="prefix__cls-84" data-name="Path 3453" transform="translate(21.036 2.59)"/>
            <g id="prefix__Group_825" data-name="Group 825" transform="translate(114.73 63.015)">
                <path id="prefix__Path_3454" fill="#ace0f9" d="M65.308 49.9l-.018 3.655L89.5 39.48l.211-3.62z" data-name="Path 3454" transform="translate(-65.29 -35.86)"/>
            </g>
            <path id="prefix__Path_3455" fill="#d2f4ff" d="M61.874 45.189a12.687 12.687 0 0 0-2.724-.9 9.4 9.4 0 0 0-4.991.176L77.76 30.85a30.172 30.172 0 0 1 12.3 2.109 24.6 24.6 0 0 1 8.14 6.712L73.788 53.729a45.424 45.424 0 0 0-11.914-8.54z" data-name="Path 3455" transform="translate(41.012 23.344)"/>
            <path id="prefix__Path_3456" d="M54.271 40.4l-.141-1.652a11.264 11.264 0 0 1 4.991-.176 12.688 12.688 0 0 1 2.776.843 45.424 45.424 0 0 1 11.861 8.575v3.66z" class="prefix__cls-91" data-name="Path 3456" transform="translate(40.989 29.061)"/>
            <path id="prefix__Path_3457" fill="#b9e2ef" d="M97.007 37.565a60.1 60.1 0 0 0-9.542-6.01 13.021 13.021 0 0 0-9.735-.387l-23.6 13.619s3.145-1.213 10.1 1.406a24.918 24.918 0 0 1 8.558 5.272z" data-name="Path 3457" transform="translate(40.989 23.025)"/>
            <path id="prefix__Path_3458" fill="#d4edfc" d="M61.914 50.789s-4.762-7.521-9.946-11.106-8.118-3.145-8.118-3.145L68.135 22.48a23.81 23.81 0 0 1 8.575 5.272 88.653 88.653 0 0 1 8.031 9.823z" data-name="Path 3458" transform="translate(33.205 17.023)"/>
            <path id="prefix__Path_3459" fill="#d4f7ff" d="M69.963 47.693L93.369 34.18s-7.837-6.748-15.552-2.847L54.13 45s7.011-2.579 15.833 2.693z" data-name="Path 3459" transform="translate(40.989 22.808)"/>
            <path id="prefix__Path_3460" fill="#a3d6e2" d="M43.47 31.859l1.757-1.019c2.864.141 4.955 1.388 8.786 4.376a48.9 48.9 0 0 1 8.241 9.243s-7.5-8.066-11.967-10.7-6.817-1.9-6.817-1.9z" data-name="Path 3460" transform="translate(32.917 23.354)"/>
            <path id="prefix__Path_3461" d="M43.47 34.81v-3.356s2.372-.668 6.818 1.9S62.2 44.053 62.2 44.053l.141 1.652z" class="prefix__cls-96" data-name="Path 3461" transform="translate(32.917 23.759)"/>
            <path id="prefix__Path_3462" fill="#c3e1ea" d="M53.688 35.454c-3.8-2.987-5.887-4.235-8.786-4.376H43.83l.843-.51s3.391-.791 9.524 4.411a32.7 32.7 0 0 1 5.975 6.537 28.573 28.573 0 0 1 1.757 3.163 48.9 48.9 0 0 0-8.241-9.226z" data-name="Path 3462" transform="translate(33.19 23.115)"/>
            <path id="prefix__Path_3463" d="M59.056 47.937A29.592 29.592 0 0 0 45.35 36l23.986-13.93s11 7.17 14.2 15.815l-22.845 13.18a16.482 16.482 0 0 0-1.634-3.128z" class="prefix__cls-91" data-name="Path 3463" transform="translate(34.341 16.712)"/>
            <path id="prefix__Path_3464" d="M53.15 36.79a16.483 16.483 0 0 1 1.757 3.163 28.572 28.572 0 0 0-1.757-3.163z" class="prefix__cls-91" data-name="Path 3464" transform="translate(40.247 27.859)"/>
            <g id="prefix__Group_826" data-name="Group 826" transform="translate(75.403 58.27)">
                <path id="prefix__Path_3465" d="M82.255 56.162l.474-.281L43.4 33.16l-.492.3z" class="prefix__cls-98" data-name="Path 3465" transform="translate(-42.91 -33.16)"/>
                <path id="prefix__Path_3466" d="M65.3 46.371v.492l.474-.281v-.492z" class="prefix__cls-99" data-name="Path 3466" transform="translate(-25.956 -23.369)"/>
                <path id="prefix__Path_3467" d="M42.91 33.33v.457l39.345 22.721v-.474z" class="prefix__cls-100" data-name="Path 3467" transform="translate(-42.91 -33.031)"/>
            </g>
            <path id="prefix__Path_3468" d="M65.764 52.378l.018-.018 24.461-14.111-.72-.439-.023.19-24.21 14.079z" class="prefix__cls-98" data-name="Path 3468" transform="translate(49.44 28.632)"/>
            <path id="prefix__Path_3469" d="M65.5 52.241L90.084 38.06v.457L65.57 52.68z" class="prefix__cls-99" data-name="Path 3469" transform="translate(49.599 28.821)"/>
            <path id="prefix__Path_3470" d="M43.11 33.369l.633-.369-.018.615z" class="prefix__cls-98" data-name="Path 3470" transform="translate(32.644 24.989)"/>
            <path id="prefix__Path_3471" d="M52.88 38.68v.457l3.444 1.986.07-.439z" class="prefix__cls-96" data-name="Path 3471" transform="translate(40.043 29.29)"/>
            <path id="prefix__Path_3472" d="M52.89 39.07l.018.334 3.374 1.9.035-.246z" class="prefix__cls-98" data-name="Path 3472" transform="translate(40.05 29.586)"/>
            <path id="prefix__Path_3473" d="M52.91 39.35l.018.316 3.374 1.9.035-.246z" class="prefix__cls-100" data-name="Path 3473" transform="translate(40.065 29.798)"/>
            <path id="prefix__Path_3474" d="M59.119 40.254A26.728 26.728 0 0 0 53 33.225a25.392 25.392 0 0 0-5.76-3.725c.562 0 10.385 5.272 13.32 14.058a18.118 18.118 0 0 0-1.441-3.304z" class="prefix__cls-101" data-name="Path 3474" transform="translate(35.772 22.339)"/>
            <path id="prefix__Path_3475" d="M59.691 39.927a26.517 26.517 0 0 0-6.115-7.027 25.04 25.04 0 0 0-5.746-3.71c.58.088 10.4 5.272 13.337 14.058a17.573 17.573 0 0 0-1.476-3.321z" class="prefix__cls-101" data-name="Path 3475" transform="translate(36.219 22.104)"/>
            <path id="prefix__Path_3476" d="M60.331 39.547a26.833 26.833 0 0 0-6.115-7.029 25.462 25.462 0 0 0-5.746-3.708c.562 0 10.385 5.272 13.337 14.058a18.645 18.645 0 0 0-1.476-3.321z" class="prefix__cls-101" data-name="Path 3476" transform="translate(36.703 21.816)"/>
            <path id="prefix__Path_3477" d="M60.979 39.174a26.183 26.183 0 0 0-6.133-7.029A24.777 24.777 0 0 0 49.1 28.42c.58.088 10.4 5.272 13.337 14.058a17.45 17.45 0 0 0-1.459-3.3z" class="prefix__cls-101" data-name="Path 3477" transform="translate(37.18 21.521)"/>
            <path id="prefix__Path_3478" d="M61.6 38.787A29.118 29.118 0 0 0 49.74 28.05c.562.088 10.4 5.272 13.337 14.058a18.643 18.643 0 0 0-1.477-3.321z" class="prefix__cls-101" data-name="Path 3478" transform="translate(37.665 21.241)"/>
            <path id="prefix__Path_3479" d="M62.249 38.414a26.447 26.447 0 0 0-6.115-7.029 25.813 25.813 0 0 0-5.764-3.725c.562.088 10.385 5.272 13.32 14.058a17.45 17.45 0 0 0-1.441-3.3z" class="prefix__cls-101" data-name="Path 3479" transform="translate(38.142 20.946)"/>
            <path id="prefix__Path_3480" d="M62.879 38.027A29.117 29.117 0 0 0 51 27.29c.58.088 10.4 5.272 13.337 14.058a19.225 19.225 0 0 0-1.458-3.321z" class="prefix__cls-101" data-name="Path 3480" transform="translate(38.619 20.665)"/>
            <path id="prefix__Path_3481" d="M63.519 37.634a26.447 26.447 0 0 0-6.119-7.029 24.6 24.6 0 0 0-5.76-3.725c.562.088 10.385 5.272 13.32 14.058a17.941 17.941 0 0 0-1.441-3.3z" class="prefix__cls-101" data-name="Path 3481" transform="translate(39.104 20.355)"/>
            <path id="prefix__Path_3482" d="M64.111 37.274A26.358 26.358 0 0 0 58 30.245a25.5 25.5 0 0 0-5.75-3.725c.58.088 10.4 5.272 13.337 14.058a19.223 19.223 0 0 0-1.476-3.3z" class="prefix__cls-101" data-name="Path 3482" transform="translate(39.566 20.082)"/>
            <path id="prefix__Path_3483" d="M64.781 36.894a26.728 26.728 0 0 0-6.115-7.029 25.937 25.937 0 0 0-5.746-3.725c.562 0 10.385 5.272 13.32 14.058a17.941 17.941 0 0 0-1.459-3.304z" class="prefix__cls-101" data-name="Path 3483" transform="translate(40.073 19.794)"/>
            <path id="prefix__Path_3484" d="M65.411 36.514a25.849 25.849 0 0 0-6.111-7.029 25.5 25.5 0 0 0-5.75-3.725c.58.088 10.4 5.272 13.337 14.058a19.224 19.224 0 0 0-1.476-3.3z" class="prefix__cls-101" data-name="Path 3484" transform="translate(40.55 19.507)"/>
            <path id="prefix__Path_3485" d="M66.051 36.134a26.447 26.447 0 0 0-6.115-7.029 25.937 25.937 0 0 0-5.746-3.725c.562.088 10.385 5.272 13.337 14.058a19.225 19.225 0 0 0-1.476-3.304z" class="prefix__cls-101" data-name="Path 3485" transform="translate(41.035 19.219)"/>
            <path id="prefix__Path_3486" d="M66.7 35.754a26.183 26.183 0 0 0-6.133-7.029A25.5 25.5 0 0 0 54.82 25c.58.088 10.4 5.272 13.337 14.058a18.593 18.593 0 0 0-1.459-3.3z" class="prefix__cls-101" data-name="Path 3486" transform="translate(41.512 18.931)"/>
            <path id="prefix__Path_3487" d="M67.321 35.374a26.728 26.728 0 0 0-6.115-7.029 25.937 25.937 0 0 0-5.746-3.725c.58 0 10.385 5.272 13.337 14.058a18.644 18.644 0 0 0-1.476-3.3z" class="prefix__cls-101" data-name="Path 3487" transform="translate(41.996 18.643)"/>
            <path id="prefix__Path_3488" d="M67.969 34.994a26.728 26.728 0 0 0-6.115-7.029 25.393 25.393 0 0 0-5.764-3.725c.562.088 10.385 5.272 13.32 14.058a17.942 17.942 0 0 0-1.441-3.3z" class="prefix__cls-101" data-name="Path 3488" transform="translate(42.473 18.356)"/>
            <path id="prefix__Path_3489" d="M68.591 34.634a26.728 26.728 0 0 0-6.115-7.029 25.937 25.937 0 0 0-5.746-3.725c.58.088 10.4 5.272 13.337 14.058a19.224 19.224 0 0 0-1.476-3.3z" class="prefix__cls-101" data-name="Path 3489" transform="translate(42.958 18.083)"/>
            <path id="prefix__Path_3490" d="M69.239 34.234a26.728 26.728 0 0 0-6.115-7.029 25.392 25.392 0 0 0-5.764-3.725c.562 0 10.385 5.272 13.32 14.058a19.169 19.169 0 0 0-1.441-3.3z" class="prefix__cls-101" data-name="Path 3490" transform="translate(43.435 17.78)"/>
            <path id="prefix__Path_3491" d="M69.861 33.847a26.359 26.359 0 0 0-6.115-7.029A25.5 25.5 0 0 0 58 23.11c.58.088 10.4 5.272 13.337 14.058a19.224 19.224 0 0 0-1.476-3.321z" class="prefix__cls-101" data-name="Path 3491" transform="translate(43.92 17.5)"/>
            <path id="prefix__Path_3492" d="M68.646 40.453a14.251 14.251 0 0 0-8.909-3.163 18.837 18.837 0 0 0-3.409.193h-.158a21.613 21.613 0 0 1 3.514-.211 14.2 14.2 0 0 1 8.786 3.145z" class="prefix__cls-101" data-name="Path 3492" transform="translate(42.534 28.22)"/>
            <path id="prefix__Path_3493" d="M69.164 40.305a12.845 12.845 0 0 0-8.487-3.515 19.1 19.1 0 0 0-3.339.123l-.158.105a17.168 17.168 0 0 1 3.514-.141 12.67 12.67 0 0 1 8.435 3.515z" class="prefix__cls-101" data-name="Path 3493" transform="translate(43.299 27.841)"/>
            <path id="prefix__Path_3494" d="M69.954 39.824a12.7 12.7 0 0 0-8.487-3.514 17.256 17.256 0 0 0-3.321.123h-.176a18.538 18.538 0 0 1 3.514-.141 12.722 12.722 0 0 1 8.435 3.514z" class="prefix__cls-101" data-name="Path 3494" transform="translate(43.897 27.461)"/>
            <path id="prefix__Path_3495" d="M70.794 39.325a12.863 12.863 0 0 0-8.47-3.514 18.942 18.942 0 0 0-3.339.123l-.176.105a18.31 18.31 0 0 1 3.514-.158 12.81 12.81 0 0 1 8.436 3.519z" class="prefix__cls-101" data-name="Path 3495" transform="translate(44.533 27.099)"/>
            <path id="prefix__Path_3496" d="M71.634 38.847a12.81 12.81 0 0 0-8.47-3.514 18.7 18.7 0 0 0-3.339.141h-.175a18.538 18.538 0 0 1 3.514-.141 12.635 12.635 0 0 1 8.436 3.514z" class="prefix__cls-101" data-name="Path 3496" transform="translate(45.169 26.734)"/>
            <path id="prefix__Path_3497" d="M72.474 38.355A12.863 12.863 0 0 0 64 34.841a18.942 18.942 0 0 0-3.339.123l-.176.105A18.38 18.38 0 0 1 64 34.911a12.775 12.775 0 0 1 8.435 3.514z" class="prefix__cls-101" data-name="Path 3497" transform="translate(45.805 26.364)"/>
            <path id="prefix__Path_3498" d="M73.314 37.879a12.775 12.775 0 0 0-8.47-3.515 17.168 17.168 0 0 0-3.339.141h-.175a17.413 17.413 0 0 1 3.514-.141 12.6 12.6 0 0 1 8.417 3.515z" class="prefix__cls-101" data-name="Path 3498" transform="translate(46.441 25.997)"/>
            <path id="prefix__Path_3499" d="M74.164 37.394a12.828 12.828 0 0 0-8.487-3.514 19.1 19.1 0 0 0-3.339.12h-.158a18.537 18.537 0 0 1 3.514-.141 12.687 12.687 0 0 1 8.417 3.514z" class="prefix__cls-101" data-name="Path 3499" transform="translate(47.085 25.621)"/>
            <path id="prefix__Path_3500" d="M75 36.905a12.845 12.845 0 0 0-8.487-3.514 18.732 18.732 0 0 0-3.321.123l-.176.105a18.31 18.31 0 0 1 3.514-.158 12.793 12.793 0 0 1 8.435 3.514z" class="prefix__cls-101" data-name="Path 3500" transform="translate(47.721 25.266)"/>
            <path id="prefix__Path_3501" d="M75.844 36.417a12.81 12.81 0 0 0-8.487-3.517 17.045 17.045 0 0 0-3.321.141h-.176a18.537 18.537 0 0 1 3.514-.141 12.634 12.634 0 0 1 8.435 3.514z" class="prefix__cls-101" data-name="Path 3501" transform="translate(48.357 24.894)"/>
            <path id="prefix__Path_3502" d="M76.684 35.925a12.81 12.81 0 0 0-8.484-3.514 18.8 18.8 0 0 0-3.321.123l-.176.105a18.31 18.31 0 0 1 3.514-.158A12.81 12.81 0 0 1 76.649 36z" class="prefix__cls-101" data-name="Path 3502" transform="translate(48.993 24.524)"/>
            <path id="prefix__Path_3503" d="M77.524 35.446a12.81 12.81 0 0 0-8.47-3.515 17.167 17.167 0 0 0-3.339.141l-.176.088a18.75 18.75 0 0 1 3.514-.141 12.634 12.634 0 0 1 8.417 3.515z" class="prefix__cls-101" data-name="Path 3503" transform="translate(49.629 24.16)"/>
            <path id="prefix__Path_3504" d="M78.364 34.955a12.863 12.863 0 0 0-8.47-3.515 18.943 18.943 0 0 0-3.339.123l-.176.105a17.22 17.22 0 0 1 3.514-.158 12.775 12.775 0 0 1 8.417 3.515z" class="prefix__cls-101" data-name="Path 3504" transform="translate(50.265 23.79)"/>
            <path id="prefix__Path_3505" d="M79.089 34.455A12.845 12.845 0 0 0 70.6 30.94a17.343 17.343 0 0 0-3.163.123l-.158.088a18.8 18.8 0 0 1 3.321-.123 12.67 12.67 0 0 1 8.435 3.514z" class="prefix__cls-101" data-name="Path 3505" transform="translate(50.947 23.411)"/>
            <path id="prefix__Path_3506" fill="url(#prefix__radial-gradient)" d="M87.458 28.143a16.45 16.45 0 0 1-.176 2.478v.615a17.761 17.761 0 0 1-13.3 14.146l-.773.158a17.906 17.906 0 0 1-3.391.334h-.387a16.712 16.712 0 0 1-3.9-.51l-.826-.228a18.84 18.84 0 0 1-2.566-.984l-.334-.158a17.7 17.7 0 0 1-9.12-11.51 3.481 3.481 0 0 0-.141-.58 18.75 18.75 0 0 1-.351-2.618v-1.073a17.573 17.573 0 0 1 1.757-7.732 1.072 1.072 0 0 1 .123-.246 17.239 17.239 0 0 1 2.917-4.165 16.817 16.817 0 0 1 2.739-2.37 12.073 12.073 0 0 1 1.423-.9l.246-.141.439-.228a17.572 17.572 0 0 1 7.591-2h.351a17.572 17.572 0 0 1 8.435 2.126l.756.422a17.959 17.959 0 0 1 5.43 5.114 17.572 17.572 0 0 1 1.757 3.514l.105.246a17.7 17.7 0 0 1 1.195 6.291z" data-name="Path 3506" transform="translate(39.52 7.898)"/>
            <path id="prefix__Path_3507" d="M64.481 36.686c-.334.58-1.617.193-2.425-.193l-.316-.158a17.7 17.7 0 0 1-9.63-14.708c.334.193.633-.088 1.107-.211.756-.211 2.038-1.582 3.2-.633s1.511 1.669 3 .633 5.975-.316 4.9 2.091-1.283 3.514-.633 3.638.791 2 .791 2a8.488 8.488 0 0 1-.791 2.566c-.545.808-1.388 1.072-.123 2.443s1.307 1.882.92 2.532z" class="prefix__cls-103" data-name="Path 3507" transform="translate(39.46 15.487)"/>
            <path id="prefix__Path_3508" d="M57.605 12.25a4.9 4.9 0 0 0 .51 1 1.089 1.089 0 0 1 0 1.476 1.951 1.951 0 0 1-1.757.088c-.756-.422-.422.966-.879 1.388s-.7-.633-.668-1.582z" class="prefix__cls-103" data-name="Path 3508" transform="translate(41.503 9.276)"/>
            <path id="prefix__Path_3509" d="M80.442 20.248l-.685 3.216a18.955 18.955 0 0 0 .492 2.056 3.514 3.514 0 0 1-.545 3.743c-1.107.914-2.284 1.423-3.2.387s-1.335-1.634-2.829-3.233a6.818 6.818 0 0 1-2.021-4.586c.105-1.054-.756-2.355-4.165-.545s-4.479 1.914-6.623 1.106-1.6-1.968-.861-2.074 1.933.316 1.353-.65a1.757 1.757 0 0 0-2.2-.527c-.439.228-.65 1.388-1.582 1.16s.193-1.265-.773-1.986.316-1.757 1.388-2.372l.861-.738a6.906 6.906 0 0 0-1.089-2.653 17.73 17.73 0 0 1 23.073 5.5 10.879 10.879 0 0 1-.594 2.196z" class="prefix__cls-103" data-name="Path 3509" transform="translate(42.758 7.868)"/>
            <path id="prefix__Path_3510" d="M73.842 26.133a17.713 17.713 0 0 1-6.836 6.4 1.582 1.582 0 0 1-.176-1.511 4.481 4.481 0 0 0 .387-3c-.123-1.423 0-2.232.51-1.459s1.915 2.161 1.863 1.089-1-1.353.7-2.109a4.042 4.042 0 0 1 3.514.492z" class="prefix__cls-103" data-name="Path 3510" transform="translate(50.518 19.186)"/>
            <path id="prefix__Path_3511" fill="#0271bc" d="M86.428 21.048a17.713 17.713 0 0 1-25.375 15.991 2.654 2.654 0 0 1-.316-.158 17.678 17.678 0 0 1-7.187-6.73 21.579 21.579 0 0 0 2.794 1.757l.387.193h.123A21.526 21.526 0 0 0 86.463 19.8a9.491 9.491 0 0 0-.035 1.248z" data-name="Path 3511" opacity="0.2" transform="translate(40.55 14.994)"/>
            <path id="prefix__Path_3512" fill="#fff" d="M86.511 31.816a19.857 19.857 0 0 1-5.272 5.412 17.7 17.7 0 0 0 1.6-7.38 18 18 0 0 0-.369-3.638 16.975 16.975 0 0 0 2.987-3.268c.246-.369.474-.756.7-1.142l-.105-.246a13.543 13.543 0 0 1-.773 1.265 16.851 16.851 0 0 1-2.864 3.163 17.4 17.4 0 0 0-2.706-6.221 17.854 17.854 0 0 0-9.893-7.029 17.713 17.713 0 0 1 8.979.3l-.65-.474a17.572 17.572 0 0 0-4.305-.527 18.17 18.17 0 0 0-4.253.51V10.43h-.227v2.109a17.906 17.906 0 0 0-4.235-.51 17.344 17.344 0 0 0-3.514.334l-.439.228-.246.141a17.238 17.238 0 0 1 4.13-.492 16.922 16.922 0 0 1 3.9.439 17.22 17.22 0 0 0-3.743 1.511c-.562.316-1.125.668-1.669 1.037a18.978 18.978 0 0 0-2.776 2.39 18.187 18.187 0 0 0-4.059 7.029 15.551 15.551 0 0 1-2.847-4.428 1.072 1.072 0 0 0-.123.246 15.815 15.815 0 0 0 2.917 4.411 17.8 17.8 0 0 0-.7 5.026v1.072a17.854 17.854 0 0 0 1.6 6.344 19.716 19.716 0 0 1-5.272-5.43.893.893 0 0 0 .141.58 19.611 19.611 0 0 0 5.272 5.272 17.783 17.783 0 0 0 6.836 7.486l.826.228a17.572 17.572 0 0 1-7.31-7.468 22.055 22.055 0 0 0 2.091 1.177l.369.176h.105a20.735 20.735 0 0 0 8.751 1.828v4.692h.211v-4.694a20.928 20.928 0 0 0 9.348-2.232 18.325 18.325 0 0 0 1.845-1.142c-.211.422-.439.826-.685 1.23a17.572 17.572 0 0 1-6.784 6.344l-.246.123.773-.158a17.836 17.836 0 0 0 6.431-6.2c.316-.51.6-1.037.861-1.564a19.927 19.927 0 0 0 5.57-5.676c.141-.246.3-.474.439-.7s0-.4 0-.615a8.241 8.241 0 0 1-.617 1.242zM69.36 40.953a20.331 20.331 0 0 1-8.558-1.88H60.7l-.369-.176a19.8 19.8 0 0 1-2.372-1.371 17.573 17.573 0 0 1-1.757-6.59v-1.053a17.73 17.73 0 0 1 .668-4.832 17.748 17.748 0 0 0 5.377 3.778l.316.158h.105a19.189 19.189 0 0 0 6.678 1.529zm0-10.649a19.329 19.329 0 0 1-6.607-1.511h-.088l-.334-.193a17.168 17.168 0 0 1-5.395-3.831A17.66 17.66 0 0 1 63.72 15.4a16.061 16.061 0 0 1 1.652-1.019 16.834 16.834 0 0 1 3.988-1.561zm.211-17.572a17.572 17.572 0 0 1 10.034 7.029 17.749 17.749 0 0 1 2.724 6.291 19.048 19.048 0 0 1-3.743 2.372 19.329 19.329 0 0 1-8.241 1.757h-.791zm11.44 24.6a24.264 24.264 0 0 1-2.179 1.268 20.718 20.718 0 0 1-9.261 2.214V30.533h.791a19.488 19.488 0 0 0 8.329-1.845 17.748 17.748 0 0 0 3.69-2.337 17.572 17.572 0 0 1 .351 3.515 17.8 17.8 0 0 1-1.775 7.609z" data-name="Path 3512" opacity="0.6" transform="translate(39.588 7.898)"/>
            <path id="prefix__Path_3513" d="M75.62 14.089a5.729 5.729 0 0 0-2.46-2.39 14.884 14.884 0 0 0-13.513 0 5.781 5.781 0 0 0-2.5 2.39H56.8v1.459a4.727 4.727 0 0 0 2.794 3.9 14.884 14.884 0 0 0 13.513 0 4.727 4.727 0 0 0 2.794-3.9v-1.459z" class="prefix__cls-106" data-name="Path 3513" transform="translate(43.011 7.631)"/>
            <path id="prefix__Path_3514" d="M73.137 10.839c3.725 2.161 3.725 5.641 0 7.8a15.007 15.007 0 0 1-13.513 0c-3.725-2.161-3.725-5.641 0-7.8a14.884 14.884 0 0 1 13.513 0z" class="prefix__cls-107" data-name="Path 3514" transform="translate(43.034 6.98)"/>
            <path id="prefix__Path_3515" d="M75.931 18.239h-5.272l-10.016-.123H56.83l.123-2.109.334-6.133a4.534 4.534 0 0 1 2.671-3.708A10.332 10.332 0 0 1 62.4 5.148a14.357 14.357 0 0 1 10.438 1l.51.316a4.27 4.27 0 0 1 2.161 3.391l.281 5.272.141 2.776z" class="prefix__cls-107" data-name="Path 3515" transform="translate(43.034 3.48)"/>
            <path id="prefix__Path_3516" fill="#2e2e42" d="M75.75 14.874l-.931.562-.984.6-3.2 1.933c-2.425 1.459-4.745 2.917-4.885 2.917s-2.724-1.476-5.272-2.935L58.2 16.613l-.826-.492-.51-.3.334-6.133a4.534 4.534 0 0 1 2.671-3.708 10.332 10.332 0 0 1 2.509-1.07l10.947 1.318a4.27 4.27 0 0 1 2.161 3.391z" data-name="Path 3516" opacity="0.23" transform="translate(43.056 3.718)"/>
            <path id="prefix__Path_3517" d="M69.083 13.783a.492.492 0 0 1 0 .931 1.757 1.757 0 0 1-1.6 0 .492.492 0 0 1 0-.931 1.757 1.757 0 0 1 1.6 0z" class="prefix__cls-109" data-name="Path 3517" transform="translate(50.849 10.291)"/>
            <path id="prefix__Path_3518" fill="url(#prefix__linear-gradient-29)" d="M69.51 14.746a11.616 11.616 0 0 0-.351-1.986H67.4a7.8 7.8 0 0 0-.281 1.951v3.514a.545.545 0 0 0 .316.439 1.757 1.757 0 0 0 1.529 0 .562.562 0 0 0 .334-.439s.247-2.548.212-3.479z" data-name="Path 3518" transform="translate(50.826 9.662)"/>
            <path id="prefix__Path_3519" fill="#ffda7d" d="M68.763 12.663c.334.176.334.492 0 .685a1.3 1.3 0 0 1-1.195 0c-.334-.193-.334-.51 0-.685a1.3 1.3 0 0 1 1.195 0z" data-name="Path 3519" transform="translate(50.975 9.479)"/>
            <path id="prefix__Path_3520" fill="url(#prefix__radial-gradient-2)" d="M68.909 12.851a.808.808 0 0 1-.791.808.826.826 0 0 1-.808-.808.808.808 0 0 1 .808-.791.791.791 0 0 1 .791.791z" data-name="Path 3520" transform="translate(50.97 9.132)"/>
            <g id="prefix__Group_827" data-name="Group 827" transform="translate(91.675 1.16)">
                <path id="prefix__Path_3521" d="M87.543 10.9L69.918 21.15 52.17 10.9 69.8.66z" class="prefix__cls-113" data-name="Path 3521" transform="translate(-52.17 -.66)"/>
            </g>
            <path id="prefix__Path_3522" d="M52.17 6.99V5.83l1.072.615z" class="prefix__cls-113" data-name="Path 3522" transform="translate(39.505 4.415)"/>
            <path id="prefix__Path_3523" fill="#65657c" d="M72.777 6.99V5.83l-1.107.65z" data-name="Path 3523" transform="translate(54.271 4.415)"/>
            <g id="prefix__Group_828" data-name="Group 828" transform="translate(91.675)">
                <path id="prefix__Path_3524" d="M87.543 10.245L69.918 20.49 52.17 10.245 69.8 0z" class="prefix__cls-107" data-name="Path 3524" transform="translate(-52.17)"/>
            </g>
            <path id="prefix__Path_3525" d="M62.27 16.075v1.16L79.9 6.99V5.83z" class="prefix__cls-106" data-name="Path 3525" transform="translate(47.153 4.415)"/>
            <path id="prefix__Path_3526" fill="#f2b725" d="M71.471 17.656a.211.211 0 0 1-.211-.211v-6.273L62.861 6.3a.228.228 0 0 1 0-.281.211.211 0 0 1 .281 0l8.505 4.92a.264.264 0 0 1 .105.193v6.309a.211.211 0 0 1-.281.211z" data-name="Path 3526" transform="translate(47.564 4.52)"/>
            <path id="prefix__Path_3527" d="M65.7 6.533V6.34a1.283 1.283 0 0 0-.615-.65 3.62 3.62 0 0 0-3.286 0 1.283 1.283 0 0 0-.615.65v.193a1.107 1.107 0 0 0 .668 1 3.725 3.725 0 0 0 3.286 0 1.125 1.125 0 0 0 .562-1z" class="prefix__cls-106" data-name="Path 3527" transform="translate(46.328 4.01)"/>
            <path id="prefix__Path_3528" d="M65.085 5.49a1 1 0 0 1 0 1.88 3.62 3.62 0 0 1-3.286 0 .984.984 0 0 1 0-1.88 3.62 3.62 0 0 1 3.286 0z" class="prefix__cls-109" data-name="Path 3528" transform="translate(46.271 3.859)"/>
        </g>
    </g>
</svg>
