<svg xmlns="http://www.w3.org/2000/svg" viewBox="0 0 175.996 65.154">
    <defs>
        <style>
            .prefix__cls-1{fill:#fff}
        </style>
    </defs>
    <g id="prefix__logo789" transform="translate(-.035 .006)">
        <g id="prefix__Layer_1" data-name="Layer 1" transform="translate(.036 -.007)">
            <path id="prefix___Path_" d="M34.533 2.219a11.177 11.177 0 0 1-.092 1.264 16.021 16.021 0 0 1-.332 1.79 16.529 16.529 0 0 1-.674 2.067 12 12 0 0 1-1.043 2.095L12.578 40.814a2.529 2.529 0 0 1-.664.664 3.147 3.147 0 0 1-.987.415 8.306 8.306 0 0 1-1.486.212c-.581 0-1.283.046-2.113.046a25.379 25.379 0 0 1-2.695-.111 4.107 4.107 0 0 1-1.449-.369c-.314-.166-.461-.378-.443-.618a1.91 1.91 0 0 1 .36-.923L24.077 8.043H7a.646.646 0 0 1-.637-.369 2.409 2.409 0 0 1-.194-1.1v-.775a6.691 6.691 0 0 1 .175-1.172c.083-.434.24-.877.323-1.32a8.546 8.546 0 0 1 .452-1.246A3.165 3.165 0 0 1 7.7 1.14a1.052 1.052 0 0 1 .817-.351h24.466a1.68 1.68 0 0 1 1.237.341 1.532 1.532 0 0 1 .314 1.089" class="prefix__cls-1" data-name="&lt;Path&gt;" transform="translate(-.244 -.054)"/>
            <path id="prefix___Compound_Path_" d="M65.326 29.67a12.21 12.21 0 0 1-.3 2.556 11.075 11.075 0 0 1-1.043 2.842 12.588 12.588 0 0 1-5.1 5.214 16.88 16.88 0 0 1-4.43 1.707 26.034 26.034 0 0 1-6.026.618 20.691 20.691 0 0 1-5.537-.664 11.324 11.324 0 0 1-3.931-1.843 7.817 7.817 0 0 1-2.335-2.879 8.583 8.583 0 0 1-.784-3.692 10.419 10.419 0 0 1 .72-3.885 11.693 11.693 0 0 1 2.067-3.387 17.535 17.535 0 0 1 3.3-2.944 31.377 31.377 0 0 1 4.439-2.538 11.4 11.4 0 0 1-3.931-3.691 8.574 8.574 0 0 1-1.224-4.484 12 12 0 0 1 .369-2.842 11.176 11.176 0 0 1 1.144-2.861 12.616 12.616 0 0 1 2-2.639 12.182 12.182 0 0 1 2.962-2.2A16.206 16.206 0 0 1 51.621.544 22.075 22.075 0 0 1 56.743 0a17.8 17.8 0 0 1 5.648.766 10.078 10.078 0 0 1 3.544 2 6.589 6.589 0 0 1 1.846 2.686 8.961 8.961 0 0 1 .507 2.948 10.954 10.954 0 0 1-.7 3.941 11.619 11.619 0 0 1-1.956 3.35 16.612 16.612 0 0 1-2.944 2.722 25.343 25.343 0 0 1-3.627 2.132 20.728 20.728 0 0 1 2.861 2.049 11.72 11.72 0 0 1 1.947 2.169 8.112 8.112 0 0 1 1.106 2.337 9.414 9.414 0 0 1 .351 2.566m-8.389.508a5.159 5.159 0 0 0-.231-1.5 4.614 4.614 0 0 0-.794-1.467 8.989 8.989 0 0 0-1.523-1.477 21.171 21.171 0 0 0-2.353-1.569 29.606 29.606 0 0 0-3.848 2.086 11.287 11.287 0 0 0-2.418 2.03 6.94 6.94 0 0 0-1.27 2.094 6.46 6.46 0 0 0-.378 2.187 4.171 4.171 0 0 0 .268 1.5 3.064 3.064 0 0 0 .923 1.237 4.227 4.227 0 0 0 1.652.849 9.293 9.293 0 0 0 2.593.3 9.69 9.69 0 0 0 3.332-.508 6.386 6.386 0 0 0 2.307-1.384 5.427 5.427 0 0 0 1.338-2 6.663 6.663 0 0 0 .434-2.372m3.2-20.636a3.691 3.691 0 0 0-.249-1.237 2.889 2.889 0 0 0-.729-1.117 3.424 3.424 0 0 0-1.366-.775 6.608 6.608 0 0 0-2.095-.286 7.438 7.438 0 0 0-3.009.535 6.193 6.193 0 0 0-1.967 1.346 5.048 5.048 0 0 0-1.126 1.846 6.109 6.109 0 0 0-.351 2 6.783 6.783 0 0 0 .138 1.412 3.6 3.6 0 0 0 .591 1.292 6.571 6.571 0 0 0 1.237 1.264 18.356 18.356 0 0 0 2.1 1.4 24.659 24.659 0 0 0 2.944-1.6 10.8 10.8 0 0 0 2.132-1.846 7.383 7.383 0 0 0 1.3-2.021 5.7 5.7 0 0 0 .443-2.252" class="prefix__cls-1" data-name="&lt;Compound Path&gt;" transform="translate(-2.797 .007)"/>
            <path id="prefix___Compound_Path_2" d="M75.1 17.645a21.144 21.144 0 0 1 .323-3.433 19.538 19.538 0 0 1 1.08-3.858 18.865 18.865 0 0 1 2.03-3.821 14.526 14.526 0 0 1 3.2-3.322A15.551 15.551 0 0 1 86.271.922 18.993 18.993 0 0 1 92.3 0a14.4 14.4 0 0 1 5.211.83 8.74 8.74 0 0 1 3.47 2.335 9.321 9.321 0 0 1 1.938 3.635 17.387 17.387 0 0 1 .609 4.771c0 .748-.046 1.753-.129 3.036a43.476 43.476 0 0 1-.526 4.328q-.4 2.4-1.117 5.085a35.511 35.511 0 0 1-1.846 5.325 29.079 29.079 0 0 1-2.842 5.03 20.3 20.3 0 0 1-4.023 4.225 18.808 18.808 0 0 1-5.362 2.926 20.737 20.737 0 0 1-6.931 1.08 22.857 22.857 0 0 1-2.326-.111 19.524 19.524 0 0 1-2-.3c-.618-.12-1.191-.268-1.717-.425s-1.015-.323-1.458-.489a2.3 2.3 0 0 1-1.052-.674 1.5 1.5 0 0 1-.268-.923 5.39 5.39 0 0 1 0-.637 4.152 4.152 0 0 1 .138-1c.065-.369.148-.757.24-1.144a6.461 6.461 0 0 1 .351-1.08 2.584 2.584 0 0 1 .48-.794.8.8 0 0 1 .618-.3 3.35 3.35 0 0 1 1.052.221c.425.148.923.314 1.541.489a18.458 18.458 0 0 0 2.113.5 15.044 15.044 0 0 0 2.7.221 11.739 11.739 0 0 0 4.753-.923 10.613 10.613 0 0 0 3.608-2.483 13.788 13.788 0 0 0 2.455-3.692 26.3 26.3 0 0 0 1.569-4.513 17.378 17.378 0 0 1-3.692 1.523 16.88 16.88 0 0 1-4.707.6 13.059 13.059 0 0 1-4.614-.711 8.2 8.2 0 0 1-3.156-1.966 7.309 7.309 0 0 1-1.7-2.9 10.945 10.945 0 0 1-.544-3.452m8.306-1.3a5.2 5.2 0 0 0 .258 1.643 3.128 3.128 0 0 0 .784 1.264 3.313 3.313 0 0 0 1.366.8 6.617 6.617 0 0 0 1.984.268 10.917 10.917 0 0 0 1.8-.148 12.173 12.173 0 0 0 1.735-.425 15.9 15.9 0 0 0 1.7-.683c.554-.268 1.08-.544 1.587-.849.258-1.329.443-2.538.572-3.608a23.774 23.774 0 0 0 .194-2.815c0-1.947-.378-3.332-1.144-4.162a4.264 4.264 0 0 0-3.3-1.237 5.98 5.98 0 0 0-2.372.471 6.672 6.672 0 0 0-1.929 1.292A8.426 8.426 0 0 0 85.228 10a12.311 12.311 0 0 0-.978 2.169 15.219 15.219 0 0 0-.591 2.2 10.519 10.519 0 0 0-.212 1.966" class="prefix__cls-1" data-name="&lt;Compound Path&gt;" transform="translate(-5.58 .006)"/>
            <path id="prefix___Path_2" d="M118.039 38.3a10.428 10.428 0 0 1-.1 1.237 13.15 13.15 0 0 1-.3 1.578 9.145 9.145 0 0 1-.535 1.56 4.153 4.153 0 0 1-.831 1.237 3.442 3.442 0 0 1-1.458.794 8.813 8.813 0 0 1-2.566.3 8.186 8.186 0 0 1-1.947-.194 3.009 3.009 0 0 1-1.246-.572 2 2 0 0 1-.646-.923 4.393 4.393 0 0 1-.194-1.384 9.13 9.13 0 0 1 .111-1.274 14.765 14.765 0 0 1 .314-1.569 9.626 9.626 0 0 1 .545-1.55 4.024 4.024 0 0 1 .84-1.218 3.691 3.691 0 0 1 1.43-.794 8.583 8.583 0 0 1 2.575-.3 7.808 7.808 0 0 1 2.04.221 3.055 3.055 0 0 1 1.237.628 1.846 1.846 0 0 1 .591.978 5.648 5.648 0 0 1 .148 1.292" class="prefix__cls-1" data-name="&lt;Path&gt;" transform="translate(-8.379 -2.711)"/>
            <path id="prefix___Path_3" d="M154.814 13.141a4.55 4.55 0 0 1-.092.858 7.843 7.843 0 0 1-.286 1.08c-.784 2.3-1.652 4.614-2.612 6.885s-2 4.614-3.147 6.82-2.381 4.457-3.692 6.617a74.611 74.611 0 0 1-4.31 6.266 2.7 2.7 0 0 1-.766.72 3.608 3.608 0 0 1-1.08.406 7.558 7.558 0 0 1-1.5.175h-2q-1.744 0-2.769-.083a6.525 6.525 0 0 1-1.56-.268 1.311 1.311 0 0 1-.729-.526 1.846 1.846 0 0 1-.222-.849l-3.341-25.5a4.1 4.1 0 0 0-.065-.923 3.571 3.571 0 0 1 0-.831 2.63 2.63 0 0 1 .138-.969 1.089 1.089 0 0 1 .572-.535 4.07 4.07 0 0 1 1.246-.3 18.984 18.984 0 0 1 2.178-.1 17.268 17.268 0 0 1 2 .065 4.458 4.458 0 0 1 1.126.221.923.923 0 0 1 .526.434 1.9 1.9 0 0 1 .157.655l2.418 20.829v.794l.157-.286c1.08-1.633 2.067-3.276 2.944-4.937s1.7-3.341 2.446-5.085 1.458-3.535 2.123-5.408 1.3-3.83 1.938-5.906a1.338 1.338 0 0 1 .341-.674 2 2 0 0 1 .784-.415 7.051 7.051 0 0 1 1.338-.221c.535 0 1.209-.065 2.012-.065a16.392 16.392 0 0 1 1.929.065 5.888 5.888 0 0 1 1.144.194 1.08 1.08 0 0 1 .544.323.766.766 0 0 1 .138.471" class="prefix__cls-1" data-name="&lt;Path&gt;" transform="translate(-9.798 -.926)"/>
            <path id="prefix___Path_4" d="M187.8 19.646a17.976 17.976 0 0 1-.138 2.221c-.1.751-.222 1.507-.37 2.292l-3.522 17.535a1.1 1.1 0 0 1-.3.554 1.846 1.846 0 0 1-.729.4 6.276 6.276 0 0 1-1.274.24 19.113 19.113 0 0 1-1.956.083 18.163 18.163 0 0 1-1.929-.083 4.5 4.5 0 0 1-1.154-.24 1.089 1.089 0 0 1-.563-.4.748.748 0 0 1-.074-.554l3.433-17.018c.1-.508.185-1.024.24-1.56a13.337 13.337 0 0 0 .074-1.394 4.208 4.208 0 0 0-.6-2.353 2.243 2.243 0 0 0-2.04-.923 5.362 5.362 0 0 0-2.713.831 10.854 10.854 0 0 0-2.676 2.243 16.326 16.326 0 0 0-2.243 3.3 14.858 14.858 0 0 0-1.394 4.024l-2.538 12.837a1.1 1.1 0 0 1-.3.554 1.846 1.846 0 0 1-.729.4 6.239 6.239 0 0 1-1.292.24 18.973 18.973 0 0 1-1.938.083 17.968 17.968 0 0 1-1.92-.083 4.863 4.863 0 0 1-1.181-.24.923.923 0 0 1-.554-.4.794.794 0 0 1-.065-.554l5.694-28.4a1.117 1.117 0 0 1 .268-.554 1.421 1.421 0 0 1 .637-.388 6.128 6.128 0 0 1 1.107-.221 13.982 13.982 0 0 1 1.643-.083 12.588 12.588 0 0 1 1.606.083 4.218 4.218 0 0 1 .923.221.831.831 0 0 1 .461.388.849.849 0 0 1 .046.554l-.923 4.67a13.244 13.244 0 0 1 1.79-2.307 13.917 13.917 0 0 1 2.556-2.086 15.062 15.062 0 0 1 3.156-1.5 10.622 10.622 0 0 1 3.544-.591 9.321 9.321 0 0 1 3.691.655A6.46 6.46 0 0 1 186 13.885a6.636 6.636 0 0 1 1.347 2.593 11.489 11.489 0 0 1 .415 3.129" class="prefix__cls-1" data-name="&lt;Path&gt;" transform="translate(-12.167 -.878)"/>
            <path id="prefix___Path_5" d="M9.019 55.738a1.726 1.726 0 0 1 0 .194v.314a1.286 1.286 0 0 1-.083.351 1.643 1.643 0 0 1-.12.341.674.674 0 0 1-.157.249.286.286 0 0 1-.2.1H5.54l-1.846 9.351a.3.3 0 0 1-.092.157.5.5 0 0 1-.221.12 2.5 2.5 0 0 1-.381.073 4.816 4.816 0 0 1-.572 0 4.926 4.926 0 0 1-.572 0 1.771 1.771 0 0 1-.341-.074.249.249 0 0 1-.157-.12.231.231 0 0 1 0-.157l1.846-9.349H.233a.2.2 0 0 1-.185-.1.7.7 0 0 1 0-.268v-.526l.083-.36a2.768 2.768 0 0 1 .12-.332.84.84 0 0 1 .166-.249.24.24 0 0 1 .194-.092H8.8a.166.166 0 0 1 .166.1.563.563 0 0 1 .055.277" class="prefix__cls-1" data-name="&lt;Path&gt;" transform="translate(-.036 -4.263)"/>
            <path id="prefix___Path_6" d="M14.734 58.773v.221a3.756 3.756 0 0 1-.055.378 2.11 2.11 0 0 1-.092.443 2.852 2.852 0 0 1-.12.425 1.523 1.523 0 0 1-.148.323.24.24 0 0 1-.185.129.36.36 0 0 1-.166 0l-.175-.065-.249-.1a1.283 1.283 0 0 0-.277 0 1.228 1.228 0 0 0-.646.231 2.925 2.925 0 0 0-.655.618 4.162 4.162 0 0 0-.563.923 4.365 4.365 0 0 0-.36 1.061l-.711 3.6a.24.24 0 0 1-.083.148.517.517 0 0 1-.212.12 2.336 2.336 0 0 1-.36.065 4.533 4.533 0 0 1-.544 0 4.322 4.322 0 0 1-.544 0 1.92 1.92 0 0 1-.332-.065.277.277 0 0 1-.157-.12.194.194 0 0 1 0-.148l1.6-8.011a.3.3 0 0 1 .083-.157.489.489 0 0 1 .185-.1 1.671 1.671 0 0 1 .314-.065 3.259 3.259 0 0 1 .461 0 3.027 3.027 0 0 1 .452 0 1.264 1.264 0 0 1 .268.065.249.249 0 0 1 .129.1.231.231 0 0 1 0 .157l-.249 1.274a3.947 3.947 0 0 1 1.1-1.264 2.621 2.621 0 0 1 .655-.378 1.975 1.975 0 0 1 .674-.129h.268l.268.046.212.065.148.083a.231.231 0 0 1 .055.175" class="prefix__cls-1" data-name="&lt;Path&gt;" transform="translate(-.657 -4.502)"/>
            <path id="prefix___Path_7" d="M22.549 66.827a.378.378 0 0 1-.258.258 2.418 2.418 0 0 1-.794.1 1.984 1.984 0 0 1-.729-.092.2.2 0 0 1-.129-.258l.24-1.3a2.963 2.963 0 0 1-.5.628 3.812 3.812 0 0 1-.72.581 4.061 4.061 0 0 1-.923.425 3.212 3.212 0 0 1-2.04 0 1.892 1.892 0 0 1-.711-.48 1.772 1.772 0 0 1-.378-.729 3.175 3.175 0 0 1-.12-.923 4.725 4.725 0 0 1 0-.618 3.915 3.915 0 0 1 .1-.646l.987-4.965c0-.12.12-.2.3-.258a2.9 2.9 0 0 1 .923-.092 2.584 2.584 0 0 1 .923.092c.138.055.2.138.175.258l-.923 4.808a3.821 3.821 0 0 1-.065.415 3.054 3.054 0 0 0 0 .406 1.163 1.163 0 0 0 .166.692.609.609 0 0 0 .563.249 1.5 1.5 0 0 0 .766-.231 3.129 3.129 0 0 0 .757-.664 5.177 5.177 0 0 0 1.071-2.215l.683-3.461c0-.12.1-.2.286-.258a3.082 3.082 0 0 1 .923-.092 2.483 2.483 0 0 1 .868.092c.148.055.2.138.175.258l-.286 1.43a1.32 1.32 0 0 0 .831-.508 2.3 2.3 0 0 0 .48-1.043l.1-.517a1.661 1.661 0 0 1 .12-.378.544.544 0 0 1 .212-.221.923.923 0 0 1 .351-.1 4.052 4.052 0 0 1 .517 0 1.975 1.975 0 0 1 .692.083.341.341 0 0 1 .2.36 1.292 1.292 0 0 1 0 .231 1.56 1.56 0 0 1-.065.351 5.731 5.731 0 0 1-.425 1.255 3.285 3.285 0 0 1-.784.978 3.212 3.212 0 0 1-1.061.674 4.614 4.614 0 0 1-1.477.268z" class="prefix__cls-1" data-name="&lt;Path&gt;" transform="translate(-1.227 -4.426)"/>
            <path id="prefix___Compound_Path_3" d="M38.564 57.878l.092-.5a1.726 1.726 0 0 1 .12-.369.609.609 0 0 1 .212-.221 1.07 1.07 0 0 1 .341-.1 3.839 3.839 0 0 1 .5 0 1.947 1.947 0 0 1 .683.083.341.341 0 0 1 .194.351 1.979 1.979 0 0 1-.065.618 4.614 4.614 0 0 1-.341 1.08 3.821 3.821 0 0 1-.591.923 3.387 3.387 0 0 1-.831.655 3.332 3.332 0 0 1-1.071.36 8.887 8.887 0 0 1-.129 1.283 6.405 6.405 0 0 1-.388 1.283 5.537 5.537 0 0 1-.655 1.181 4.227 4.227 0 0 1-.923.923 4.319 4.319 0 0 1-1.264.655 4.817 4.817 0 0 1-1.606.24 3.608 3.608 0 0 1-2.593-.812A3.027 3.027 0 0 1 29.4 63.2a7.125 7.125 0 0 1 .489-2.584 5.621 5.621 0 0 1 .655-1.2 4.614 4.614 0 0 1 .923-.987 4.153 4.153 0 0 1 1.255-.674 4.9 4.9 0 0 1 1.615-.249 4.273 4.273 0 0 1 2.15.471 2.455 2.455 0 0 1 1.107 1.375 1.366 1.366 0 0 0 .591-.526 2.473 2.473 0 0 0 .378-.923m-3.073 2.87a1.79 1.79 0 0 0-.314-1.135 1.32 1.32 0 0 0-1.089-.406 1.781 1.781 0 0 0-.784.175 2.049 2.049 0 0 0-.628.461 3.221 3.221 0 0 0-.48.664 6.119 6.119 0 0 0-.332.8 5.4 5.4 0 0 0-.249 1.68 1.846 1.846 0 0 0 .332 1.117 1.32 1.32 0 0 0 1.089.406 1.781 1.781 0 0 0 .784-.175 2.049 2.049 0 0 0 .628-.461 3.11 3.11 0 0 0 .48-.683 5.224 5.224 0 0 0 .332-.8 6.894 6.894 0 0 0 .194-.84 6.6 6.6 0 0 0 .055-.831m.378-4.614a.526.526 0 0 1 .083.2.129.129 0 0 1-.065.138.461.461 0 0 1-.249.083 3.185 3.185 0 0 1-.48 0h-.415a1.043 1.043 0 0 1-.277-.055.692.692 0 0 1-.185-.092l-.148-.148-1.6-2.03a.3.3 0 0 1-.083-.185.166.166 0 0 1 .1-.148.784.784 0 0 1 .341-.1 3.921 3.921 0 0 1 .637 0h.489a1 1 0 0 1 .323.065.757.757 0 0 1 .2.12.535.535 0 0 1 .138.175z" class="prefix__cls-1" data-name="&lt;Compound Path&gt;" transform="translate(-2.3 -4.142)"/>
            <path id="prefix___Path_8" d="M49.63 60.053a4.54 4.54 0 0 1 0 .618 3.064 3.064 0 0 1-.1.628l-.923 4.817a.3.3 0 0 1-.2.175.591.591 0 0 1-.2.111 2.2 2.2 0 0 1-.351.065h-1.069a1.634 1.634 0 0 1-.323-.065.36.36 0 0 1-.157-.111.3.3 0 0 1 0-.157l.923-4.679a2.141 2.141 0 0 0 .065-.425 3.174 3.174 0 0 0 0-.388 1.154 1.154 0 0 0-.166-.642.628.628 0 0 0-.563-.258 1.523 1.523 0 0 0-.748.231 3.212 3.212 0 0 0-.729.618 4.171 4.171 0 0 0-.618.923 3.793 3.793 0 0 0-.323 1.089l-.711 3.535a.3.3 0 0 1-.083.157.535.535 0 0 1-.194.111 2.335 2.335 0 0 1-.36.065h-1.061a1.79 1.79 0 0 1-.323-.065.314.314 0 0 1-.157-.111.3.3 0 0 1 0-.157l1.569-7.808a.351.351 0 0 1 .074-.157.443.443 0 0 1 .175-.1 1.283 1.283 0 0 1 .3-.055 3.21 3.21 0 0 1 .406-.028 2.768 2.768 0 0 1 .443 0 .923.923 0 0 1 .268.055.3.3 0 0 1 .129.1.3.3 0 0 1 0 .157l-.258 1.283a3.987 3.987 0 0 1 .5-.628 4.393 4.393 0 0 1 .7-.572 3.932 3.932 0 0 1 .868-.406 2.889 2.889 0 0 1 1.043-.157 2.6 2.6 0 0 1 1.037.178 1.846 1.846 0 0 1 .674.489 1.938 1.938 0 0 1 .369.711 3.267 3.267 0 0 1 .111.858" class="prefix__cls-1" data-name="&lt;Path&gt;" transform="translate(-3.214 -4.453)"/>
            <path id="prefix___Compound_Path_4" d="M58.657 66.434a4.614 4.614 0 0 1-.489 1.394 3.212 3.212 0 0 1-.877.987 3.775 3.775 0 0 1-1.32.591 6.949 6.949 0 0 1-1.846.2 6.552 6.552 0 0 1-1.338-.12 4.254 4.254 0 0 1-.978-.3.378.378 0 0 1-.249-.406 1.458 1.458 0 0 1 0-.175v-.268a1.4 1.4 0 0 1 .074-.314 1.686 1.686 0 0 1 .111-.286.923.923 0 0 1 .148-.212.249.249 0 0 1 .185-.083.7.7 0 0 1 .258.074 3.259 3.259 0 0 0 .406.166c.166.055.378.111.628.166a5.186 5.186 0 0 0 .923.074 4.107 4.107 0 0 0 .8-.074 1.763 1.763 0 0 0 .618-.231 1.348 1.348 0 0 0 .425-.4 1.643 1.643 0 0 0 .231-.609 8.5 8.5 0 0 1 .233-.908c.074-.258.148-.471.2-.628a2.4 2.4 0 0 1-.443.572 4.152 4.152 0 0 1-.674.508 3.147 3.147 0 0 1-.8.36 2.9 2.9 0 0 1-.877.138 2.575 2.575 0 0 1-1.126-.221 1.846 1.846 0 0 1-.748-.637 2.575 2.575 0 0 1-.415-.923 4.707 4.707 0 0 1-.129-1.172 8.555 8.555 0 0 1 .1-1.227 8.417 8.417 0 0 1 .332-1.3 6.792 6.792 0 0 1 .563-1.237 4.439 4.439 0 0 1 .812-1.061 3.867 3.867 0 0 1 1.1-.729 3.461 3.461 0 0 1 1.384-.268 2.639 2.639 0 0 1 1.283.3 2.852 2.852 0 0 1 .987.923l.138-.692a.332.332 0 0 1 .277-.258 2.538 2.538 0 0 1 .766-.083h.443a1.541 1.541 0 0 1 .277.065.222.222 0 0 1 .129.111.194.194 0 0 1 0 .148zm-1.015-5.786a2.326 2.326 0 0 0-.674-.72 1.514 1.514 0 0 0-.868-.24 1.283 1.283 0 0 0-.664.175 1.846 1.846 0 0 0-.545.461 3.276 3.276 0 0 0-.415.683 5.99 5.99 0 0 0-.3.8 6.46 6.46 0 0 0-.175.84 6.046 6.046 0 0 0-.055.794 2.473 2.473 0 0 0 .055.544 1.449 1.449 0 0 0 .157.415.7.7 0 0 0 .286.258.812.812 0 0 0 .415.1 1.55 1.55 0 0 0 .784-.24 2.944 2.944 0 0 0 .757-.618 4.513 4.513 0 0 0 .6-.927 3.931 3.931 0 0 0 .388-1.135z" class="prefix__cls-1" data-name="&lt;Compound Path&gt;" transform="translate(-4.009 -4.457)"/>
            <path id="prefix___Path_9" d="M73.394 65.819a.388.388 0 0 1-.092.157.591.591 0 0 1-.194.111 2.417 2.417 0 0 1-.351.065h-1.071a1.523 1.523 0 0 1-.314-.065.378.378 0 0 1-.157-.111.185.185 0 0 1 0-.157l.923-4.679a3.971 3.971 0 0 0 .065-.415 3.265 3.265 0 0 0 0-.415 1.412 1.412 0 0 0 0-.351.923.923 0 0 0-.12-.286.618.618 0 0 0-.231-.175.738.738 0 0 0-.332-.074 1.523 1.523 0 0 0-.748.231 3.027 3.027 0 0 0-.738.618 4.873 4.873 0 0 0-.618.923 4.246 4.246 0 0 0-.378 1.107l-.711 3.516a.3.3 0 0 1-.083.157.794.794 0 0 1-.2.111 2.2 2.2 0 0 1-.351.065h-1.064a1.634 1.634 0 0 1-.323-.065.323.323 0 0 1-.157-.111.3.3 0 0 1 0-.157l2.261-11.5a.369.369 0 0 1 .083-.157.508.508 0 0 1 .2-.12 2.077 2.077 0 0 1 .351-.074 4.264 4.264 0 0 1 .535 0 4.16 4.16 0 0 1 .535 0 1.43 1.43 0 0 1 .314.074.249.249 0 0 1 .148.12.185.185 0 0 1 0 .157l-.618 3.165a1.937 1.937 0 0 1-.1.415 4.281 4.281 0 0 1-.111.434l-.138.415a1.051 1.051 0 0 1-.12.351 2.649 2.649 0 0 1 .452-.554 3.692 3.692 0 0 1 .664-.508 3.35 3.35 0 0 1 .8-.369 2.63 2.63 0 0 1 .923-.148 2.7 2.7 0 0 1 1.006.166 1.79 1.79 0 0 1 .674.461 1.763 1.763 0 0 1 .378.711 3.092 3.092 0 0 1 .12.923 4.678 4.678 0 0 1 0 .628 3.447 3.447 0 0 1-.092.618z" class="prefix__cls-1" data-name="&lt;Path&gt;" transform="translate(-5.134 -4.156)"/>
            <path id="prefix___Compound_Path_5" d="M84.966 60.939a6.94 6.94 0 0 1-.12 1.292 6.349 6.349 0 0 1-.369 1.3 5.343 5.343 0 0 1-.655 1.191 4.337 4.337 0 0 1-.923.978 4.411 4.411 0 0 1-1.274.674 5.168 5.168 0 0 1-1.615.24 5.048 5.048 0 0 1-1.532-.2 2.944 2.944 0 0 1-1.071-.6 2.464 2.464 0 0 1-.637-.987 3.941 3.941 0 0 1-.231-1.3 7.8 7.8 0 0 1 .111-1.292 6.285 6.285 0 0 1 .378-1.292 5.583 5.583 0 0 1 .646-1.2A4.374 4.374 0 0 1 79.9 58.1a5.6 5.6 0 0 1 3.147-.111 2.769 2.769 0 0 1 1.071.609 2.372 2.372 0 0 1 .637.978 3.692 3.692 0 0 1 .212 1.329M80.8 68.2a1.845 1.845 0 0 1-.157.517.849.849 0 0 1-.258.332.923.923 0 0 1-.415.194 2.768 2.768 0 0 1-.6.055 1.551 1.551 0 0 1-.8-.157.609.609 0 0 1-.231-.544 1.846 1.846 0 0 1 .046-.4 1.745 1.745 0 0 1 .148-.508.8.8 0 0 1 .258-.341.923.923 0 0 1 .415-.194 2.677 2.677 0 0 1 .594-.054 1.6 1.6 0 0 1 .8.157.6.6 0 0 1 .249.544v.185a1.7 1.7 0 0 1 0 .212m1.851-7.149a2.7 2.7 0 0 0-.074-.646 1.246 1.246 0 0 0-.249-.48.978.978 0 0 0-.434-.3 1.735 1.735 0 0 0-.655-.111 1.781 1.781 0 0 0-.784.175 2.16 2.16 0 0 0-.628.461 3.221 3.221 0 0 0-.48.664 6.117 6.117 0 0 0-.332.8 5.353 5.353 0 0 0-.185.849 5.279 5.279 0 0 0-.065.831 2.843 2.843 0 0 0 .074.655 1.218 1.218 0 0 0 .24.489 1.246 1.246 0 0 0 .443.3 1.707 1.707 0 0 0 .655.111 1.846 1.846 0 0 0 .784-.175 2.012 2.012 0 0 0 .618-.461 2.972 2.972 0 0 0 .48-.674 4.088 4.088 0 0 0 .332-.8 4.788 4.788 0 0 0 .194-.858 6.4 6.4 0 0 0 .065-.821" class="prefix__cls-1" data-name="&lt;Compound Path&gt;" transform="translate(-5.936 -4.453)"/>
            <path id="prefix___Path_10" d="M93.745 58.839a2.084 2.084 0 0 1 0 .452 3.693 3.693 0 0 1-.129.48.978.978 0 0 1-.194.378.351.351 0 0 1-.258.157.415.415 0 0 1-.258-.1 3.241 3.241 0 0 0-.3-.24 2.556 2.556 0 0 0-.452-.24 1.892 1.892 0 0 0-.7-.111 1.587 1.587 0 0 0-.812.2 2.409 2.409 0 0 0-.628.517 3.2 3.2 0 0 0-.443.729 6.663 6.663 0 0 0-.286.821 5.473 5.473 0 0 0-.157.794 4.7 4.7 0 0 0-.055.664 1.624 1.624 0 0 0 .268 1.107 1.209 1.209 0 0 0 .978.369 2.557 2.557 0 0 0 .84-.12 4.07 4.07 0 0 0 .6-.286l.425-.277a.591.591 0 0 1 .332-.12.129.129 0 0 1 .12.083.452.452 0 0 1 0 .221 3.307 3.307 0 0 1 0 .378 1.9 1.9 0 0 1-.092.443 3.886 3.886 0 0 1-.129.425 1.015 1.015 0 0 1-.194.314 2.666 2.666 0 0 1-.369.258 3.912 3.912 0 0 1-.591.258 5.122 5.122 0 0 1-.72.185 4.613 4.613 0 0 1-.812.065 2.972 2.972 0 0 1-2.229-.753 3.036 3.036 0 0 1-.748-2.233 8.047 8.047 0 0 1 .1-1.172 7.162 7.162 0 0 1 .323-1.274 7.384 7.384 0 0 1 .591-1.255 4.716 4.716 0 0 1 .923-1.061 4.153 4.153 0 0 1 1.209-.748 4.291 4.291 0 0 1 1.6-.277 4.172 4.172 0 0 1 .683.055 3.692 3.692 0 0 1 .609.138 3.11 3.11 0 0 1 .5.222 1.4 1.4 0 0 1 .314.212.526.526 0 0 1 .138.185.609.609 0 0 1 0 .194" class="prefix__cls-1" data-name="&lt;Path&gt;" transform="translate(-6.723 -4.457)"/>
            <path id="prefix___Path_11" d="M105.13 58.24a2.141 2.141 0 0 1 0 .221v.3a1.745 1.745 0 0 1-.083.314 1.671 1.671 0 0 1-.12.286.922.922 0 0 1-.148.212.258.258 0 0 1-.2.111h-1.707l-.738 3.692a2.539 2.539 0 0 0 0 .314 1.847 1.847 0 0 0 0 .3.729.729 0 0 0 .157.508.747.747 0 0 0 .535.166 1.846 1.846 0 0 0 .351 0l.258-.065.185-.074a.545.545 0 0 1 .157 0 .157.157 0 0 1 .12.074.406.406 0 0 1 0 .212 3.062 3.062 0 0 1 0 .378 1.612 1.612 0 0 1-.092.406 2.558 2.558 0 0 1-.129.351.766.766 0 0 1-.148.249.831.831 0 0 1-.231.148 2.631 2.631 0 0 1-.378.12 3.175 3.175 0 0 1-.461.083 4.227 4.227 0 0 1-.489 0 3.129 3.129 0 0 1-.923-.111 1.624 1.624 0 0 1-.664-.341 1.449 1.449 0 0 1-.406-.6 2.566 2.566 0 0 1-.138-.923 1.929 1.929 0 0 1 0-.221v-.268a2.645 2.645 0 0 0 0-.286.481.481 0 0 1 .046-.258l.766-3.8h-.923a.175.175 0 0 1-.157-.074.517.517 0 0 1-.055-.286 3.441 3.441 0 0 1 0-.388 2.86 2.86 0 0 1 .1-.471 1.44 1.44 0 0 1 .185-.4.323.323 0 0 1 .268-.166h.923l.351-1.744a.3.3 0 0 1 .083-.157.535.535 0 0 1 .194-.12 1.587 1.587 0 0 1 .351-.065 4.43 4.43 0 0 1 .544 0 4.052 4.052 0 0 1 .517 0 1.237 1.237 0 0 1 .332.065.332.332 0 0 1 .148.12.185.185 0 0 1 0 .157l-.314 1.633h1.68a.212.212 0 0 1 .2.092.563.563 0 0 1 .055.277" class="prefix__cls-1" data-name="&lt;Path&gt;" transform="translate(-7.707 -4.301)"/>
            <path id="prefix___Path_12" d="M112.974 65.821a.3.3 0 0 1-.083.157.794.794 0 0 1-.2.111 2.2 2.2 0 0 1-.351.065h-1.061a1.634 1.634 0 0 1-.323-.065.461.461 0 0 1-.157-.111.3.3 0 0 1 0-.157l.923-4.679a3.971 3.971 0 0 0 .065-.415 3.36 3.36 0 0 0 0-.415 1.412 1.412 0 0 0 0-.351.923.923 0 0 0-.129-.286.554.554 0 0 0-.231-.175.738.738 0 0 0-.332-.074 1.523 1.523 0 0 0-.748.231 2.99 2.99 0 0 0-.729.618 4.476 4.476 0 0 0-.618.925 3.95 3.95 0 0 0-.388 1.107l-.711 3.516a.3.3 0 0 1-.074.175.664.664 0 0 1-.2.111 2.012 2.012 0 0 1-.351.065h-1.061a1.79 1.79 0 0 1-.323-.065.378.378 0 0 1-.157-.111.3.3 0 0 1 0-.157l2.307-11.5a.351.351 0 0 1 .074-.157.591.591 0 0 1 .2-.12 2.3 2.3 0 0 1 .351-.074 4.43 4.43 0 0 1 .545 0 4.107 4.107 0 0 1 .526 0 1.7 1.7 0 0 1 .323.074.332.332 0 0 1 .148.12.3.3 0 0 1 0 .157l-.628 3.165a1.885 1.885 0 0 1-.092.415c-.037.148-.074.286-.12.434s-.083.277-.129.415a3.635 3.635 0 0 1-.129.351 2.981 2.981 0 0 1 .452-.554 3.691 3.691 0 0 1 .664-.508 3.526 3.526 0 0 1 .8-.369 2.926 2.926 0 0 1 1.846 0 1.79 1.79 0 0 1 .674.461 1.9 1.9 0 0 1 .388.711 3.451 3.451 0 0 1 .111.923v.628a2.883 2.883 0 0 1-.1.618z" class="prefix__cls-1" data-name="&lt;Path&gt;" transform="translate(-8.187 -4.157)"/>
            <path id="prefix___Compound_Path_6" d="M124.539 60.632a7.8 7.8 0 0 1-.111 1.292 6.542 6.542 0 0 1-.378 1.3 5.7 5.7 0 0 1-.646 1.191 4.384 4.384 0 0 1-.923.978 4.485 4.485 0 0 1-1.264.674 5.223 5.223 0 0 1-1.624.24 4.947 4.947 0 0 1-1.523-.2A2.769 2.769 0 0 1 117 65.5a2.372 2.372 0 0 1-.637-.978 3.692 3.692 0 0 1-.212-1.329 6.94 6.94 0 0 1 .12-1.292 6.265 6.265 0 0 1 .369-1.292 5.621 5.621 0 0 1 .655-1.2 4.273 4.273 0 0 1 2.224-1.643 5.537 5.537 0 0 1 3.138-.046 2.769 2.769 0 0 1 1.08.609 2.575 2.575 0 0 1 .637.978 3.94 3.94 0 0 1 .2 1.329m-2.27.148a2.7 2.7 0 0 0-.074-.646 1.043 1.043 0 0 0-.249-.48.978.978 0 0 0-.434-.3 1.707 1.707 0 0 0-.655-.111 1.846 1.846 0 0 0-.784.175 2.16 2.16 0 0 0-.628.461 3.183 3.183 0 0 0-.471.664 4.338 4.338 0 0 0-.332.8 4.522 4.522 0 0 0-.194.849 6.676 6.676 0 0 0-.065.831 2.843 2.843 0 0 0 .074.655 1.227 1.227 0 0 0 .249.489 1.135 1.135 0 0 0 .434.3 1.707 1.707 0 0 0 .655.111 1.781 1.781 0 0 0 .784-.175 2.16 2.16 0 0 0 .628-.461 3.286 3.286 0 0 0 .48-.674 5.638 5.638 0 0 0 .332-.8 5.7 5.7 0 0 0 .185-.858 5.086 5.086 0 0 0 .065-.821m1.7-4.716a1.384 1.384 0 0 1 .111.268.166.166 0 0 1 0 .175.572.572 0 0 1-.258.1 3.691 3.691 0 0 1-.526 0h-.431a1.209 1.209 0 0 1-.249 0 .258.258 0 0 1-.12-.092l-.092-.157-.646-1.31-1.172 1.31a.637.637 0 0 1-.157.157.5.5 0 0 1-.185.092 1.993 1.993 0 0 1-.3 0h-.425a3.875 3.875 0 0 1-.535 0 .273.273 0 0 1-.231-.1c-.028-.046 0-.1 0-.175a1.588 1.588 0 0 1 .221-.268l1.763-1.957a.544.544 0 0 1 .166-.129.812.812 0 0 1 .24-.083 1.55 1.55 0 0 1 .332-.055h.471a3.35 3.35 0 0 1 .461 0 1.283 1.283 0 0 1 .314.055.489.489 0 0 1 .185.083.369.369 0 0 1 .12.12z" class="prefix__cls-1" data-name="&lt;Compound Path&gt;" transform="translate(-8.991 -4.146)"/>
            <path id="prefix___Path_13" d="M134.54 60.055a4.537 4.537 0 0 1 0 .618 3.862 3.862 0 0 1-.1.628l-1.04 4.817a.3.3 0 0 1 0 .175.591.591 0 0 1-.2.111 2.416 2.416 0 0 1-.351.065h-1.069a1.634 1.634 0 0 1-.323-.065.36.36 0 0 1-.157-.111.231.231 0 0 1 0-.157l.923-4.679a3.137 3.137 0 0 0 .065-.425 3.174 3.174 0 0 0 0-.388 1.153 1.153 0 0 0-.166-.646.628.628 0 0 0-.563-.258 1.523 1.523 0 0 0-.748.231 3.461 3.461 0 0 0-.738.618 4.5 4.5 0 0 0-.609.923 3.793 3.793 0 0 0-.406 1.089l-.711 3.535a.3.3 0 0 1-.083.157.628.628 0 0 1-.194.111 2.335 2.335 0 0 1-.36.065h-1.061a1.634 1.634 0 0 1-.323-.065.314.314 0 0 1-.157-.111.3.3 0 0 1 0-.157l1.569-7.808a.35.35 0 0 1 .074-.157.517.517 0 0 1 .175-.1 1.283 1.283 0 0 1 .3-.055 3.21 3.21 0 0 1 .452 0 2.769 2.769 0 0 1 .443 0 .923.923 0 0 1 .268.055.3.3 0 0 1 .129.1.3.3 0 0 1 0 .157l-.258 1.283a3.987 3.987 0 0 1 .5-.628 4.393 4.393 0 0 1 .7-.572 3.932 3.932 0 0 1 .868-.406 2.852 2.852 0 0 1 .969-.166 2.6 2.6 0 0 1 1.034.148 1.846 1.846 0 0 1 .674.489 1.938 1.938 0 0 1 .369.711 3.267 3.267 0 0 1 .111.858" class="prefix__cls-1" data-name="&lt;Path&gt;" transform="translate(-9.763 -4.454)"/>
            <path id="prefix___Compound_Path_7" d="M143.571 66.434a4.615 4.615 0 0 1-.489 1.394 3.212 3.212 0 0 1-.877.987 3.858 3.858 0 0 1-1.32.591 6.949 6.949 0 0 1-1.8.2 6.552 6.552 0 0 1-1.338-.12 4.254 4.254 0 0 1-.978-.3.378.378 0 0 1-.249-.406 1.461 1.461 0 0 1 0-.175v-.268a1.4 1.4 0 0 1 .074-.314 1.686 1.686 0 0 1 .111-.286.922.922 0 0 1 .148-.212.249.249 0 0 1 .185-.083.7.7 0 0 1 .258.074 3.258 3.258 0 0 0 .406.166c.166.055.378.111.628.166a5.186 5.186 0 0 0 .923.074 4.107 4.107 0 0 0 .8-.074 1.763 1.763 0 0 0 .618-.231 1.347 1.347 0 0 0 .425-.4 1.643 1.643 0 0 0 .231-.609 8.5 8.5 0 0 1 .231-.923 6.372 6.372 0 0 1 .2-.628 2.4 2.4 0 0 1-.443.572 4.153 4.153 0 0 1-.674.508 3.148 3.148 0 0 1-.8.36 2.9 2.9 0 0 1-.877.138 2.575 2.575 0 0 1-1.126-.221 1.846 1.846 0 0 1-.748-.637 2.575 2.575 0 0 1-.415-.923 4.707 4.707 0 0 1-.129-1.172 8.553 8.553 0 0 1 .1-1.227 8.415 8.415 0 0 1 .332-1.3 6.794 6.794 0 0 1 .563-1.237 4.439 4.439 0 0 1 .812-1.061 3.867 3.867 0 0 1 1.1-.729 3.461 3.461 0 0 1 1.384-.268 2.639 2.639 0 0 1 1.283.3 2.769 2.769 0 0 1 .978.923l.148-.692a.332.332 0 0 1 .268-.258 2.648 2.648 0 0 1 .831-.157h.443a1.541 1.541 0 0 1 .277.065.221.221 0 0 1 .129.111.194.194 0 0 1 0 .148zm-1.015-5.786a2.326 2.326 0 0 0-.674-.72 1.514 1.514 0 0 0-.868-.24 1.283 1.283 0 0 0-.664.175 1.846 1.846 0 0 0-.544.461 3.275 3.275 0 0 0-.415.683 4.956 4.956 0 0 0-.3.8 6.463 6.463 0 0 0-.175.84 6.046 6.046 0 0 0-.055.794 2.474 2.474 0 0 0 .055.544 1.448 1.448 0 0 0 .157.415.7.7 0 0 0 .286.258.812.812 0 0 0 .415.1 1.551 1.551 0 0 0 .784-.24 2.943 2.943 0 0 0 .757-.628 4.512 4.512 0 0 0 .609-.923 3.932 3.932 0 0 0 .388-1.135z" class="prefix__cls-1" data-name="&lt;Compound Path&gt;" transform="translate(-10.562 -4.457)"/>
            <path id="prefix___Path_14" d="M163.255 66.118a.3.3 0 0 1-.083.157.794.794 0 0 1-.2.111 2.566 2.566 0 0 1-.36.065h-1.061a1.634 1.634 0 0 1-.323-.065.461.461 0 0 1-.157-.111.185.185 0 0 1 0-.157l.923-4.679a2.96 2.96 0 0 1 .065-.4 2.868 2.868 0 0 0 0-.4 1.264 1.264 0 0 0-.157-.664.591.591 0 0 0-.544-.258 1.486 1.486 0 0 0-.729.231 3.138 3.138 0 0 0-.72.618 4.31 4.31 0 0 0-.609.923 3.931 3.931 0 0 0-.378 1.107l-.711 3.535a.369.369 0 0 1-.083.157.729.729 0 0 1-.212.111 2.2 2.2 0 0 1-.351.065h-1.052a1.634 1.634 0 0 1-.323-.065.462.462 0 0 1-.157-.111.231.231 0 0 1 0-.157l.923-4.679a2.768 2.768 0 0 0 .083-.415v-.415a1.209 1.209 0 0 0-.157-.637.6.6 0 0 0-.544-.249 1.486 1.486 0 0 0-.729.231 3.137 3.137 0 0 0-.72.618 4.309 4.309 0 0 0-.609.923 4.245 4.245 0 0 0-.378 1.107l-.711 3.535a.3.3 0 0 1-.083.157.794.794 0 0 1-.2.111 2.417 2.417 0 0 1-.351.065h-1.061a1.634 1.634 0 0 1-.323-.065.323.323 0 0 1-.166-.129.231.231 0 0 1 0-.157l1.569-7.808a.277.277 0 0 1 .074-.148.36.36 0 0 1 .175-.111 1.55 1.55 0 0 1 .3-.065h.886a1.135 1.135 0 0 1 .268.065.222.222 0 0 1 .129.111.249.249 0 0 1 0 .148l-.258 1.283a3.9 3.9 0 0 1 .489-.628 4.181 4.181 0 0 1 .692-.563 3.516 3.516 0 0 1 .858-.415 2.769 2.769 0 0 1 .923-.166 2.547 2.547 0 0 1 .923.138 1.689 1.689 0 0 1 .609.369 1.92 1.92 0 0 1 .369.563 2.5 2.5 0 0 1 .157.7 3.867 3.867 0 0 1 .517-.628 3.765 3.765 0 0 1 .692-.563 3.451 3.451 0 0 1 .849-.415 2.955 2.955 0 0 1 1.956 0 1.717 1.717 0 0 1 .664.48 1.846 1.846 0 0 1 .369.7 3.377 3.377 0 0 1 .111.923 4.49 4.49 0 0 1 0 .609 5.076 5.076 0 0 1-.1.637z" class="prefix__cls-1" data-name="&lt;Path&gt;" transform="translate(-11.678 -4.455)"/>
            <path id="prefix___Compound_Path_8" d="M168.817 65.843a.425.425 0 0 1-.083.157.591.591 0 0 1-.2.111 2.419 2.419 0 0 1-.351.065h-1.071a1.984 1.984 0 0 1-.323-.065.277.277 0 0 1-.148-.111.185.185 0 0 1 0-.157l1.55-7.78a.258.258 0 0 1 .083-.157.535.535 0 0 1 .194-.111 1.55 1.55 0 0 1 .351-.083 4.431 4.431 0 0 1 .545 0 4.107 4.107 0 0 1 .526 0 1.117 1.117 0 0 1 .323.074.314.314 0 0 1 .157.111.221.221 0 0 1 0 .157zm2.252-10.429a1.966 1.966 0 0 1-.166.554.923.923 0 0 1-.277.36 1.172 1.172 0 0 1-.434.194 2.981 2.981 0 0 1-.628.055 2.7 2.7 0 0 1-.6-.055.757.757 0 0 1-.351-.194.628.628 0 0 1-.129-.36 1.753 1.753 0 0 1 .046-.554 2.952 2.952 0 0 1 .166-.526 1.015 1.015 0 0 1 .286-.36 1.135 1.135 0 0 1 .425-.2 3.045 3.045 0 0 1 .628-.055 2.593 2.593 0 0 1 .6.055.683.683 0 0 1 .351.2.572.572 0 0 1 .129.36 1.846 1.846 0 0 1-.046.526" class="prefix__cls-1" data-name="&lt;Compound Path&gt;" transform="translate(-12.883 -4.179)"/>
            <path id="prefix___Path_15" d="M179.775 60.054a4.542 4.542 0 0 1 0 .618 3.062 3.062 0 0 1-.1.628l-.923 4.817a.3.3 0 0 1-.083.157.591.591 0 0 1-.2.111 2.2 2.2 0 0 1-.351.065h-1.061a1.634 1.634 0 0 1-.323-.065.36.36 0 0 1-.157-.111.3.3 0 0 1 0-.157l.923-4.679a3.14 3.14 0 0 0 .074-.425v-.388a1.154 1.154 0 0 0-.166-.646.628.628 0 0 0-.563-.258 1.523 1.523 0 0 0-.748.231 3.211 3.211 0 0 0-.729.618 4.522 4.522 0 0 0-.618.923 3.793 3.793 0 0 0-.388 1.1l-.7 3.535a.388.388 0 0 1-.092.157.535.535 0 0 1-.194.111 2.336 2.336 0 0 1-.36.065h-1.061a1.789 1.789 0 0 1-.323-.065.314.314 0 0 1-.157-.111.231.231 0 0 1 0-.157l1.56-7.808a.35.35 0 0 1 .074-.157.516.516 0 0 1 .175-.1 1.283 1.283 0 0 1 .3-.055 3.211 3.211 0 0 1 .452 0 2.769 2.769 0 0 1 .443 0 .923.923 0 0 1 .268.055.3.3 0 0 1 .129.1.3.3 0 0 1 0 .157l-.249 1.283a3.894 3.894 0 0 1 .489-.628 4.393 4.393 0 0 1 .7-.572 3.931 3.931 0 0 1 .867-.406 2.852 2.852 0 0 1 .923-.166 2.6 2.6 0 0 1 1.034.175 1.846 1.846 0 0 1 .674.489 1.938 1.938 0 0 1 .369.711 3.267 3.267 0 0 1 .111.858" class="prefix__cls-1" data-name="&lt;Path&gt;" transform="translate(-13.256 -4.454)"/>
            <path id="prefix___Path_16" d="M188.9 65.819a.3.3 0 0 1-.083.157.72.72 0 0 1-.194.111 2.419 2.419 0 0 1-.351.065H187.2a1.792 1.792 0 0 1-.323-.065.406.406 0 0 1-.148-.111.185.185 0 0 1 0-.157l.923-4.679a1.016 1.016 0 0 1 .065-.415 3.265 3.265 0 0 0 0-.415 1.412 1.412 0 0 0 0-.351.738.738 0 0 0-.129-.286.526.526 0 0 0-.221-.175.738.738 0 0 0-.332-.074 1.523 1.523 0 0 0-.748.231 3.027 3.027 0 0 0-.738.618 4.873 4.873 0 0 0-.618.923 4.245 4.245 0 0 0-.378 1.107l-.738 3.516a.369.369 0 0 1-.083.157.794.794 0 0 1-.2.111 2.2 2.2 0 0 1-.351.065h-1.061a1.919 1.919 0 0 1-.332-.065.341.341 0 0 1-.148-.111.231.231 0 0 1 0-.157l2.3-11.5a.3.3 0 0 1 .083-.157.452.452 0 0 1 .2-.12 2.077 2.077 0 0 1 .351-.074 4.263 4.263 0 0 1 .535 0 3.913 3.913 0 0 1 .526 0 1.541 1.541 0 0 1 .323.074.286.286 0 0 1 .148.12.231.231 0 0 1 0 .157l-.618 3.165a1.937 1.937 0 0 1-.1.415l-.111.434-.138.415a1.051 1.051 0 0 1-.12.351 2.648 2.648 0 0 1 .452-.554 4 4 0 0 1 .655-.508 3.414 3.414 0 0 1 .812-.369 2.63 2.63 0 0 1 .923-.148 2.7 2.7 0 0 1 1.006.166 1.79 1.79 0 0 1 .674.461 1.762 1.762 0 0 1 .378.711 3.091 3.091 0 0 1 .12.923v.628a3.575 3.575 0 0 1-.092.618z" class="prefix__cls-1" data-name="&lt;Path&gt;" transform="translate(-14.041 -4.156)"/>
        </g>
    </g>
</svg>
