<svg xmlns="http://www.w3.org/2000/svg" viewBox="0 0 94.848 132.801">
    <defs>
        <style>
            .prefix__cls-1{fill:#00b441}
        </style>
    </defs>
    <g id="prefix__Group_185" data-name="Group 185" transform="translate(-.961 -1)">
        <path id="prefix__Path_644" d="M94.1 133.8H5a1.793 1.793 0 0 1-1.8-1.8v-21a2.106 2.106 0 0 1 .5-1.3l37-37.9c7.4-7.5 12.7-13.5 15.8-17.9q4.5-6.3 4.5-12a12.744 12.744 0 0 0-3.6-9.3 12.28 12.28 0 0 0-9.3-3.7c-7.2 0-14.3 5.4-21 16.1a1.877 1.877 0 0 1-2.5.6L1.9 32.2a2.012 2.012 0 0 1-.9-1.1 2.2 2.2 0 0 1 .2-1.4c6-9.3 12.7-16.5 19.9-21.3C28.6 3.5 38 1 49.2 1a45.068 45.068 0 0 1 29.9 10.8c8.6 7.3 13 17.2 13 29.7a39.412 39.412 0 0 1-5.2 19.6c-3.4 6.1-9.6 13.9-18.6 23.2l-19.8 20.6H94a1.793 1.793 0 0 1 1.8 1.8V132a1.653 1.653 0 0 1-1.7 1.8z" class="prefix__cls-1" data-name="Path 644"/>
    </g>
</svg>
