<svg xmlns="http://www.w3.org/2000/svg" viewBox="0 0 93.9 131.4">
    <path id="prefix__Path_646" fill="#007c25" d="M45.3 132.4c-14.3 0-28.9-5.1-43.5-15.1a1.853 1.853 0 0 1-.6-2.4l11.6-22.4a1.594 1.594 0 0 1 1.2-.9 1.971 1.971 0 0 1 1.5.3c11.5 8.2 21.9 12.3 30.9 12.3 5.2 0 9.6-1.3 12.9-3.8q4.8-3.6 4.8-10.5a12.633 12.633 0 0 0-5.6-11c-3.9-2.8-9.4-4.3-16.4-4.3q-5.7 0-16.2 3.3a1.525 1.525 0 0 1-1.6-.3 1.683 1.683 0 0 1-.7-1.5V55.4a2.45 2.45 0 0 1 .4-1.2l21.6-25.5H9.9a1.793 1.793 0 0 1-1.8-1.8v-24A1.76 1.76 0 0 1 9.9 1h77.3A1.793 1.793 0 0 1 89 2.8v19.5a1.845 1.845 0 0 1-.5 1.2L64.8 50.6c9 2.1 16.2 6.4 21.4 12.8a38.023 38.023 0 0 1 8.7 24.7c0 13.8-4.7 24.7-14.1 32.6-9.2 7.7-21.2 11.7-35.5 11.7z" data-name="Path 646" transform="translate(-1 -1)"/>
</svg>
