<svg xmlns="http://www.w3.org/2000/svg" viewBox="0 0 95.801 129.9">
    <path id="prefix__Path_647" fill="#00621a" d="M80.7 130.9H53.6a1.793 1.793 0 0 1-1.8-1.8v-28.3h-49A1.793 1.793 0 0 1 1 99V77.4a1.4 1.4 0 0 1 .3-.9l45-74.6a1.65 1.65 0 0 1 1.5-.9h30.7a1.893 1.893 0 0 1 1.6.9 1.91 1.91 0 0 1 0 1.8l-41.2 69h12.8V52.5a1.793 1.793 0 0 1 1.8-1.8h27.1a1.793 1.793 0 0 1 1.8 1.8v20.2H95a1.793 1.793 0 0 1 1.8 1.8v24.4a1.793 1.793 0 0 1-1.8 1.8H82.5V129a1.817 1.817 0 0 1-1.8 1.9z" data-name="Path 647" transform="translate(-1 -1)"/>
</svg>
