<svg xmlns="http://www.w3.org/2000/svg" viewBox="0 0 93.762 131.4">
    <path id="prefix__Path_648" fill="#00480f" d="M45.6 132.4c-17.6 0-32.4-6.6-44.2-19.6a1.808 1.808 0 0 1-.1-2.3l14.8-20.6a2.223 2.223 0 0 1 1.3-.8 2.168 2.168 0 0 1 1.4.5q1.65 1.65 4.2 3.9a55.338 55.338 0 0 0 9.6 6 29 29 0 0 0 13.6 3.7 18.74 18.74 0 0 0 11.7-3.9C61.4 96.7 63 93 63 87.9s-1.7-8.9-5.3-11.6c-3.7-2.8-8.6-4.2-14.5-4.2-6 0-13.2 2.2-21.3 6.6a1.72 1.72 0 0 1-2.2-.4L7.8 65.7a1.845 1.845 0 0 1-.5-1.2V2.8A1.793 1.793 0 0 1 9.1 1h76.2a1.793 1.793 0 0 1 1.8 1.8v24.4a1.793 1.793 0 0 1-1.8 1.8h-48v17a53.217 53.217 0 0 1 11-1.1 50 50 0 0 1 32.6 11.4c9.2 7.7 13.8 18.2 13.8 31.1s-4.8 23.8-14.2 32.3c-9.3 8.4-21.1 12.7-34.9 12.7z" data-name="Path 648" transform="translate(-.938 -1)"/>
</svg>
