<svg xmlns="http://www.w3.org/2000/svg" viewBox="0 0 97.9 134.301">
    <g id="prefix__Group_186" data-name="Group 186" transform="translate(-1 -1)">
        <path id="prefix__Path_649" fill="none" d="M52.1 111.6a19.793 19.793 0 0 1-14.9-6.3 20.93 20.93 0 0 1-5.9-14.9 18.232 18.232 0 0 1 6.3-14.3 22.53 22.53 0 0 1 15.3-5.4c6.1 0 11.1 2.1 14.7 6.1a21.831 21.831 0 0 1 5.3 14.8 18.716 18.716 0 0 1-6 14.4 20.792 20.792 0 0 1-14.8 5.6z" data-name="Path 649"/>
        <path id="prefix__Path_650" fill="#003a0b" d="M52.1 135.3c-9.2 0-17.3-1.8-24.1-5.4a39.487 39.487 0 0 1-16-15.1C4.7 102.7 1 87.3 1 69.1a103.64 103.64 0 0 1 4.3-31c2.9-9 7-16.2 12.1-21.4C27.3 6.3 39.8 1 54.5 1A56.679 56.679 0 0 1 72 3.7a59.291 59.291 0 0 1 12.8 5.5 103.354 103.354 0 0 1 9.7 7 1.984 1.984 0 0 1 .4 2.5L81.5 38.5a1.826 1.826 0 0 1-1.3.8 2.1 2.1 0 0 1-1.5-.5c-.7-.7-1.7-1.6-3.1-2.8a40.918 40.918 0 0 0-7.8-4.4 26.181 26.181 0 0 0-11.1-2.7c-7.3 0-12.8 2.3-16.7 7.2-3.4 4.2-5.8 9.8-6.9 16.7a46.486 46.486 0 0 1 22.6-5.9c12.2 0 22.6 4.1 30.8 12.1s12.4 18.8 12.4 32.1-4.5 24.1-13.3 32.2c-9 7.9-20.2 12-33.5 12zm.9-60.9a18.957 18.957 0 0 0-12.9 4.5A14.6 14.6 0 0 0 35 90.4a17.207 17.207 0 0 0 4.9 12.4 16.228 16.228 0 0 0 12.2 5.1 17.072 17.072 0 0 0 12.3-4.6c3.3-3 4.8-6.9 4.8-11.8a17.529 17.529 0 0 0-4.4-12.3C62 76 58.1 74.4 53 74.4z" data-name="Path 650"/>
    </g>
</svg>
