<svg width="193" height="100" viewBox="0 0 193 100" fill="none" xmlns="http://www.w3.org/2000/svg">
<g clip-path="url(#clip0)">
<path fill-rule="evenodd" clip-rule="evenodd" d="M160.304 11.3415C160.304 6.63886 156.432 2.76611 151.729 2.76611C128.492 2.76611 64.0388 2.76611 40.6639 2.76611C35.9613 2.76611 32.0886 6.63886 32.0886 11.3415C32.0886 28.3539 32.0886 66.3899 32.0886 88.2433C32.0886 91.5628 33.0567 94.0524 35.9613 95.9888C38.7276 97.9252 42.8769 97.0953 46.1964 96.1271C85.2006 85.6153 103.596 84.5089 146.473 96.542C149.654 97.5102 153.665 97.7869 156.432 95.9888C159.198 94.0524 160.304 91.9777 160.304 88.6582C160.304 66.9431 160.304 28.3539 160.304 11.3415Z" fill="#0D7182"/>
<path fill-rule="evenodd" clip-rule="evenodd" d="M160.304 11.3416C160.304 6.639 156.432 2.76625 151.729 2.76625C128.492 2.76625 64.0388 2.76625 40.664 2.76625C35.9613 2.76625 32.0886 6.639 32.0886 11.3416C32.0886 28.3541 32.0886 66.39 32.0886 88.2434C32.0886 91.5629 33.0568 94.0526 35.9613 95.9889C38.7276 97.9253 42.877 97.0954 46.1965 96.1273C85.2006 85.6155 103.596 84.509 146.473 96.5422C149.654 97.5104 153.665 97.787 156.432 95.9889C159.198 94.0526 160.304 91.9779 160.304 88.6584C160.304 66.9433 160.304 28.3541 160.304 11.3416ZM163.071 11.3416C163.071 5.11757 157.953 0 151.729 0C128.492 0 64.0388 0 40.664 0C34.4399 0 29.3223 5.11757 29.3223 11.3416C29.3223 28.3541 29.3223 66.39 29.3223 88.2434C29.3223 92.6694 30.7055 95.7123 34.4399 98.2019C37.8977 100.553 42.877 99.8617 46.888 98.7552C85.3389 88.3817 103.458 87.4136 145.782 99.1701C149.793 100.277 154.634 100.553 158.091 98.2019C161.687 95.7123 163.071 93.0844 163.071 88.6584C163.071 66.9433 163.071 28.3541 163.071 11.3416Z" fill="white"/>
<path fill-rule="evenodd" clip-rule="evenodd" d="M190.041 40.3874C190.041 35.4082 188.105 30.7055 184.647 27.2477C181.189 23.7899 176.487 21.8535 171.508 21.8535C135.685 21.8535 57.2614 21.8535 21.4384 21.8535C16.4592 21.8535 11.7565 23.7899 8.29872 27.2477C4.7026 30.7055 2.76622 35.4082 2.76622 40.3874C2.76622 45.3667 4.7026 50.0693 8.16041 53.5271C11.6182 56.9849 16.3209 58.9213 21.3001 58.9213C57.1231 58.9213 135.546 58.9213 171.369 58.9213C176.349 58.9213 181.051 56.9849 184.509 53.5271C187.967 50.0693 190.041 45.3667 190.041 40.3874Z" fill="#DB2128"/>
<path fill-rule="evenodd" clip-rule="evenodd" d="M190.041 40.3873C190.041 35.408 188.105 30.7054 184.647 27.2476C181.189 23.7898 176.487 21.8534 171.508 21.8534C135.685 21.8534 57.2614 21.8534 21.4385 21.8534C16.4592 21.8534 11.7566 23.7898 8.29876 27.2476C4.70263 30.7054 2.76625 35.408 2.76625 40.3873C2.76625 45.3666 4.70263 50.0692 8.16044 53.527C11.6183 56.9848 16.3209 58.9212 21.3001 58.9212C57.1231 58.9212 135.546 58.9212 171.369 58.9212C176.349 58.9212 181.051 56.9848 184.509 53.527C187.967 50.0692 190.041 45.3666 190.041 40.3873ZM192.808 40.3873C192.808 34.7165 190.595 29.3223 186.584 25.3112C182.573 21.3002 177.178 19.0872 171.508 19.0872C135.685 19.0872 57.2614 19.0872 21.4385 19.0872C15.7676 19.0872 10.3734 21.3002 6.36238 25.3112C2.213 29.3223 0 34.7165 0 40.3873C0 46.0581 2.213 51.4523 6.22407 55.4634C10.2351 59.4744 15.6293 61.6874 21.3001 61.6874C57.1231 61.6874 135.546 61.6874 171.369 61.6874C177.04 61.6874 182.434 59.4744 186.445 55.4634C190.456 51.4523 192.808 46.0581 192.808 40.3873Z" fill="white"/>
<path fill-rule="evenodd" clip-rule="evenodd" d="M176.763 33.1951H177.593C177.732 33.1951 177.87 33.1951 178.008 33.1951C178.147 33.1951 178.147 33.0568 178.285 33.0568C178.423 33.0568 178.423 32.9185 178.423 32.7802C178.423 32.6418 178.423 32.5035 178.285 32.3652C178.147 32.2269 178.008 32.2269 177.732 32.2269H176.763V33.1951ZM176.487 35.1315V31.812H177.87C178.147 31.812 178.285 31.812 178.423 31.9503C178.561 31.9503 178.7 32.0886 178.7 32.2269C178.838 32.3652 178.838 32.5035 178.838 32.7802C178.838 33.0568 178.7 33.1951 178.561 33.3334C178.423 33.4717 178.147 33.61 177.87 33.61C178.008 33.61 178.008 33.7483 178.147 33.7483C178.285 33.8867 178.423 34.025 178.423 34.1633L178.976 35.1315H178.423L178.008 34.4399C177.87 34.3016 177.732 34.025 177.732 34.025C177.593 33.8867 177.593 33.8867 177.593 33.7483L177.455 33.61C177.455 33.61 177.317 33.61 177.178 33.61H176.763V35.1315H176.487ZM177.593 30.7055C178.976 30.7055 180.221 31.812 180.221 33.3334C180.221 34.8548 179.115 35.9613 177.593 35.9613C176.21 35.9613 174.965 34.8548 174.965 33.3334C174.965 31.812 176.21 30.7055 177.593 30.7055ZM177.593 30.2905C175.934 30.2905 174.55 31.6737 174.55 33.3334C174.55 34.9932 175.934 36.3763 177.593 36.3763C179.253 36.3763 180.636 34.9932 180.636 33.3334C180.636 31.6737 179.253 30.2905 177.593 30.2905ZM108.16 34.9932C109.544 34.9932 113.278 35.1315 113.278 40.3873C113.278 42.6003 112.586 45.7815 108.299 45.7815C107.192 45.7815 103.181 45.3666 103.181 40.5257C103.043 39.0042 103.458 34.9932 108.16 34.9932ZM172.614 35.4081H162.794V38.3127H172.061V41.7705H162.794V45.09H172.614V48.4095H157.676V31.812H172.614V35.4081ZM91.7012 36.7912V31.812H96.6804V48.5478H91.7012V40.8023H86.0304V36.7912H91.7012ZM79.3914 48.6861H84.3706V31.9503H79.3914V48.6861ZM58.5062 31.812H65.0069L73.029 43.9835V31.9503H77.455V48.6861H70.816L62.9322 36.5146V48.6861H58.5062V31.812ZM133.195 31.9503H138.174C138.174 31.9503 138.174 36.9295 138.174 42.1854C138.174 46.3348 135.131 48.6861 131.259 49.101C129.737 49.2394 127.939 49.2394 126.418 49.101C122.683 48.8244 119.502 46.4731 119.502 42.1854C119.502 36.9295 119.502 31.9503 119.502 31.9503H124.62V41.9088C124.62 43.9835 126.418 45.7815 128.492 45.7815C128.769 45.7815 129.046 45.7815 129.322 45.7815C131.397 45.7815 133.195 43.9835 133.195 41.9088V31.9503ZM51.4522 31.9503H56.4315C56.4315 31.9503 56.4315 36.9295 56.4315 42.1854C56.4315 46.0582 53.3886 48.6861 49.5159 49.101C47.9944 49.2394 46.1964 49.2394 44.6749 49.101C40.9405 48.8244 37.7593 46.0582 37.7593 42.1854C37.7593 36.9295 37.7593 31.9503 37.7593 31.9503H42.8769V41.7705C42.8769 43.8452 44.6749 45.6432 46.7496 45.6432C47.0262 45.6432 47.3029 45.6432 47.5795 45.6432C49.6542 45.6432 51.4522 43.8452 51.4522 41.7705V31.9503ZM31.3969 36.6529H36.2379C36.2379 36.6529 37.206 31.397 28.6307 31.397C25.4495 31.397 20.1936 31.812 20.1936 36.9295C20.1936 39.0042 21.3001 40.5257 24.343 41.2172C27.3858 41.9088 31.6735 41.9088 31.6735 43.9835C31.6735 44.675 31.2586 45.6432 28.2157 45.6432C27.1092 45.6432 24.7579 45.5049 24.7579 43.0153H19.7787C19.7787 43.0153 18.6722 48.8244 27.8008 48.8244C29.0456 48.8244 36.6528 48.9627 36.6528 43.4302C36.6528 41.7705 36.3762 39.4192 31.5352 38.451C26.6943 37.6211 25.1728 37.2062 25.1728 35.9613C25.1728 34.8548 26.4177 34.3016 28.354 34.3016C29.3222 34.7165 31.3969 34.9932 31.3969 36.6529ZM151.176 36.6529H156.017C156.017 36.6529 156.985 31.397 148.409 31.397C145.228 31.397 139.972 31.812 139.972 36.9295C139.972 39.0042 141.079 40.5257 144.122 41.2172C147.165 41.9088 151.452 41.9088 151.452 43.9835C151.452 44.675 151.037 45.6432 147.994 45.6432C146.888 45.6432 144.537 45.5049 144.537 43.0153H139.557C139.557 43.0153 138.451 48.8244 147.579 48.8244C148.824 48.8244 156.431 48.9627 156.431 43.4302C156.431 41.7705 156.155 39.4192 151.314 38.451C146.473 37.6211 144.952 37.2062 144.952 35.9613C144.952 34.8548 146.196 34.3016 148.133 34.3016C148.963 34.7165 151.176 34.9932 151.176 36.6529ZM108.022 31.5353C110.927 31.5353 118.396 31.6737 118.396 40.249C118.396 43.8452 116.874 49.2394 108.16 49.2394C105.947 49.2394 97.7869 48.6861 97.7869 40.5257C97.7869 38.1743 98.6168 31.5353 108.022 31.5353Z" fill="white"/>
</g>
<defs>
<clipPath id="clip0">
<rect width="192.808" height="100" fill="white"/>
</clipPath>
</defs>
</svg>
