<svg width="288" height="219" viewBox="0 0 288 219" fill="none" xmlns="http://www.w3.org/2000/svg">
<path d="M179.783 129.135C178.793 129.234 177.903 128.935 177.309 128.039C175.132 125.149 172.856 122.16 170.777 119.171C169.887 117.975 168.996 116.779 168.106 115.484C160.98 105.918 154.053 96.4524 147.522 87.5843C138.121 74.8303 131.094 65.1651 124.464 56.0977C121.99 52.7099 119.714 49.2225 117.438 45.8347C113.974 40.6533 110.412 35.2727 106.453 30.3903L104.771 28.2979L107.047 29.5932C110.313 31.4864 112.49 34.376 114.568 37.1659C115.162 37.8634 115.756 38.6605 116.349 39.4577C117.834 41.2512 119.417 43.244 121.198 45.4361C124.563 49.5214 128.126 54.0053 132.381 59.3859C139.605 68.4532 147.423 78.3177 156.923 90.3743C163.553 98.7441 170.184 107.214 176.616 115.583C177.21 116.381 177.903 117.178 178.496 117.975C179.981 119.768 181.465 121.662 182.851 123.555C183.939 124.95 183.543 126.644 181.762 127.939C181.168 128.636 180.476 129.035 179.783 129.135ZM109.323 32.6821C112.49 36.7673 115.36 41.1516 118.131 45.3365C120.407 48.7243 122.683 52.2117 125.157 55.5995C131.688 64.6669 138.813 74.4317 148.215 87.0861C154.746 95.9542 161.673 105.32 168.798 114.986C169.689 116.181 170.58 117.377 171.47 118.672C173.647 121.562 175.824 124.551 178.002 127.441C178.397 128.039 178.991 128.238 179.585 128.138C180.08 128.039 180.673 127.839 181.168 127.341C181.96 126.743 183.048 125.548 182.059 124.252C180.673 122.359 179.189 120.466 177.705 118.672C177.111 117.875 176.418 117.078 175.824 116.281C169.293 107.911 162.663 99.4416 156.131 91.0718C146.631 79.0152 138.813 69.1507 131.589 60.0834C127.235 54.7027 123.771 50.2189 120.407 46.1336C118.626 43.9415 117.042 41.9487 115.558 40.1551C114.964 39.358 114.37 38.6605 113.776 37.8634C112.391 35.9702 111.006 34.1767 109.323 32.6821Z" fill="#AA7D54"/>
<path d="M176.121 124.252C175.132 124.352 174.241 124.053 173.647 123.156C173.548 123.057 173.153 122.459 172.361 121.462L173.054 120.864C173.45 121.363 173.944 121.562 174.538 121.462C175.033 121.363 175.627 121.163 176.121 120.665C176.814 120.167 177.903 119.071 177.21 117.875L178.002 117.377C178.694 118.274 179.09 118.772 179.189 118.872C180.278 120.267 179.882 121.961 178.101 123.256C177.507 123.854 176.715 124.153 176.121 124.252ZM174.241 122.359C174.34 122.459 174.34 122.459 174.34 122.558C174.736 123.156 175.33 123.356 175.923 123.256C176.418 123.156 177.012 122.957 177.507 122.459C178.298 121.861 179.387 120.665 178.397 119.37C178.397 119.37 178.298 119.27 178.298 119.171C178.101 119.968 177.606 120.665 176.715 121.363C175.923 122.06 175.033 122.459 174.241 122.359Z" fill="#AA7D54"/>
<path d="M198.882 149.063C198.783 149.063 198.585 149.063 198.486 148.964C198.486 148.964 196.21 146.572 193.34 144.38C189.679 141.491 186.809 140.096 184.929 140.295C184.533 140.395 184.137 140.494 183.84 140.693C183.741 140.793 183.543 140.793 183.444 140.793C183.345 140.793 183.147 140.693 183.147 140.494L177.903 129.534C177.804 129.334 177.804 129.135 178.001 129.035C178.1 128.936 178.298 128.836 178.496 128.836C179.288 129.035 180.278 128.637 181.267 127.64C182.356 126.644 182.949 125.448 182.949 124.352C182.949 124.153 183.048 123.954 183.246 123.954C183.444 123.854 183.642 123.954 183.741 124.153L190.174 132.224C190.174 132.224 190.174 132.324 190.273 132.324C190.273 132.324 190.371 132.523 190.47 132.822C190.569 133.021 190.767 133.42 190.866 133.818C192.153 136.708 195.616 143.782 199.179 148.266C199.377 148.465 199.278 148.764 199.08 148.964C199.08 149.063 198.981 149.063 198.882 149.063ZM184.83 139.298C187.897 138.9 192.747 142.487 195.913 145.177C193.34 141.092 191.064 136.409 190.075 134.217C189.877 133.818 189.778 133.519 189.679 133.22C189.58 133.021 189.481 132.822 189.481 132.822L183.741 125.648C183.444 126.644 182.851 127.64 181.96 128.438C181.069 129.334 180.08 129.833 179.189 129.932L183.84 139.697C184.137 139.498 184.434 139.398 184.83 139.298Z" fill="#AA7D54"/>
<path d="M189.481 135.611C189.184 134.615 188.491 133.818 187.501 133.419C187.304 133.32 187.007 133.419 186.908 133.519C186.512 134.117 186.611 134.715 186.908 135.312C187.304 136.01 188.095 136.408 188.788 136.707C189.085 136.807 189.481 136.608 189.481 136.209C189.382 135.91 189.382 135.711 189.283 135.412C189.184 134.814 188.194 134.914 188.392 135.512C188.491 135.811 188.491 136.01 188.59 136.309C188.788 136.109 188.986 136.01 189.283 135.811C188.689 135.611 187.205 134.914 187.798 134.017C187.6 134.017 187.402 134.117 187.205 134.117C187.897 134.416 188.392 135.013 188.689 135.811C188.788 136.608 189.679 136.209 189.481 135.611Z" fill="#AA7D54"/>
<path d="M147.126 78.0191C149.699 74.432 150.49 69.7489 149.303 65.4643C148.61 62.9733 147.027 60.7812 145.74 58.4894C144.355 55.9984 143.563 53.3081 143.365 50.4185C143.365 50.0199 142.772 49.9203 142.574 50.2192C141.584 51.3153 140.99 52.7103 140.792 54.2049C141.089 54.1052 141.386 54.0056 141.584 54.0056C135.844 48.2264 136.438 39.2587 133.865 31.9849C131.589 25.5082 125.948 20.6258 119.219 19.4301C118.724 19.3305 118.625 19.8287 118.823 20.2272C119.516 21.4229 119.912 22.8179 120.011 24.2129C120.308 24.1133 120.506 23.914 120.802 23.8143C117.339 20.9247 116.151 16.3412 115.162 12.0567C115.063 11.6581 114.568 11.5585 114.37 11.8574C112.985 13.2524 112.193 15.0459 111.896 16.9391C112.193 16.9391 112.49 16.8395 112.787 16.8395C111.599 12.8538 108.828 9.56565 105.167 7.67247C104.672 7.37354 104.276 8.27032 104.771 8.56924C108.235 10.2631 110.808 13.4517 111.896 17.238C111.995 17.7362 112.787 17.5369 112.787 17.1384C112.985 15.3448 113.776 13.7506 115.063 12.4552C114.766 12.3556 114.469 12.256 114.271 12.256C115.36 16.7398 116.547 21.6222 120.308 24.6115C120.605 24.9104 121.099 24.6115 121.099 24.2129C121 22.6186 120.506 21.124 119.714 19.729C119.615 20.028 119.417 20.2273 119.318 20.5262C122.683 21.124 125.652 22.6186 128.224 24.9104C130.995 27.4014 132.777 30.5899 133.766 34.177C135.844 41.1519 135.646 49.3225 141.089 54.8027C141.386 55.1016 141.881 55.002 141.881 54.6034C142.079 53.3081 142.574 52.1124 143.464 51.116C143.167 51.0164 142.871 50.9167 142.673 50.9167C142.772 53.4077 143.464 55.7991 144.454 57.9912C145.542 60.283 147.126 62.3754 148.115 64.7668C149.897 68.9518 149.204 74.0335 146.631 77.7202C146.037 78.0191 146.73 78.5173 147.126 78.0191Z" fill="#AA7D54"/>
<path d="M110.115 11.957C108.927 10.6616 107.74 9.36628 106.255 8.36987C104.672 7.27382 102.693 6.87525 100.813 6.47669C96.9532 5.57991 92.7969 4.08529 90.9167 0.298923C90.7188 -0.199283 90.125 -3.86041e-07 90.026 0.398565C89.1354 3.88601 89.8281 7.4731 91.1146 10.8609C92.3021 13.8501 93.8855 16.7397 96.1616 19.1311C100.219 23.5154 106.156 26.8035 108.532 32.5827C108.828 32.3834 109.026 32.2838 109.323 32.0845C106.354 27.8996 102.099 25.01 98.4376 21.6222C93.3907 16.939 90.125 11.2595 88.5416 4.5835C88.2448 4.68314 87.9479 4.78278 87.651 4.78278C88.8385 8.76844 89.9271 12.8537 90.5208 17.0387C90.7188 18.9319 90.8177 20.825 90.6198 22.6186C90.4219 24.1132 90.224 25.4085 90.3229 26.9032C90.5208 30.291 92.2032 33.7784 95.5678 34.8745C95.6668 34.5755 95.7657 34.2766 95.9636 33.9777C94.4792 33.5791 92.8959 33.3798 91.4115 33.3798C91.0156 33.3798 90.9167 33.9777 91.2136 34.177C94.8751 37.0666 96.8543 41.4508 100.021 44.739C101.406 46.1339 102.99 47.4293 104.87 48.1268C105.761 48.4257 106.651 48.625 107.641 48.625C108.63 48.7246 109.719 48.625 110.61 49.3225C110.61 49.1232 110.511 48.9239 110.511 48.625C110.016 49.2228 108.828 49.2228 108.037 49.3225C107.641 49.4221 107.443 50.0199 107.938 50.2192C112.589 51.8135 116.448 54.8027 119.219 58.888C121.495 62.3755 123.376 66.66 127.433 68.2543C127.433 67.9554 127.532 67.6565 127.532 67.3575C126.443 67.5568 125.256 67.8558 124.167 68.055C123.672 68.1547 123.573 68.7525 124.068 68.9518C130.699 72.24 134.657 79.8127 142.277 81.2077C142.871 81.3073 142.97 80.4106 142.376 80.3109C138.714 79.6134 135.746 77.222 133.074 74.731C130.402 72.3396 127.73 69.7489 124.464 68.055C124.464 68.354 124.365 68.6529 124.365 68.9518C125.454 68.7525 126.641 68.4536 127.73 68.2543C128.126 68.1547 128.324 67.5568 127.829 67.3575C123.672 65.7633 121.891 61.0801 119.516 57.5927C116.844 53.7067 112.787 50.8171 108.334 49.2228C108.334 49.5217 108.235 49.8207 108.235 50.1196C109.323 49.9203 110.511 49.9203 111.302 49.0235C111.5 48.8242 111.401 48.5253 111.203 48.326C109.719 47.23 107.641 47.6286 105.959 47.23C103.781 46.7318 101.901 45.1375 100.318 43.5433C97.2501 40.2551 95.3699 36.0702 91.8073 33.1806C91.7084 33.4795 91.6094 33.7784 91.6094 33.9777C92.9948 33.9777 94.3803 34.0773 95.7657 34.4759C96.3595 34.6752 96.7553 33.7784 96.1616 33.5791C92.698 32.3834 91.4115 28.6967 91.4115 25.3089C91.4115 24.1132 91.7084 22.9175 91.8073 21.7218C92.0052 19.8286 91.9063 17.8358 91.6094 15.9426C91.0156 11.8573 89.9271 7.87167 88.7396 3.98565C88.5416 3.48745 87.75 3.68673 87.8489 4.18494C89.4323 10.7613 92.599 16.4408 97.3491 21.124C101.11 24.8107 105.662 27.7999 108.828 32.1842C109.125 32.5827 109.818 32.1842 109.62 31.6859C107.443 26.3053 102.198 22.9175 98.1407 19.0315C95.7657 16.7397 94.1824 14.1491 92.7969 11.1598C91.2136 7.67238 90.224 3.78637 91.2136 0C90.9167 0 90.6198 0.0996408 90.3229 0.0996408C91.9063 3.3878 95.172 5.28099 98.5366 6.2774C100.615 6.87525 102.693 7.17418 104.672 7.97131C106.651 8.76844 108.235 10.4623 109.62 12.0566C109.719 12.9534 110.511 12.3555 110.115 11.957Z" fill="#AA7D54"/>
<path d="M145.344 76.8237C147.126 76.1262 147.324 73.0373 147.423 71.3434C147.62 68.952 147.225 66.5606 146.829 64.1692C146.73 63.5714 145.839 63.671 145.938 64.2689C146.235 66.1621 146.532 68.1549 146.532 70.0481C146.532 71.0445 146.433 72.0409 146.235 73.137C146.037 74.0337 145.839 75.5284 144.949 75.9269C144.454 76.2259 144.85 77.023 145.344 76.8237Z" fill="#AA7D54"/>
<path d="M144.652 75.3286C146.235 72.9372 145.938 70.0476 145.641 67.3572C145.543 66.7594 144.652 66.859 144.751 67.4569C145.048 69.9479 145.345 72.5386 143.959 74.7307C143.563 75.2289 144.256 75.8268 144.652 75.3286Z" fill="#AA7D54"/>
<path d="M141.287 70.4466C140.99 68.4538 141.683 66.461 142.178 64.4681C142.673 62.3757 142.574 60.2832 142.178 58.1907C142.079 57.5929 141.089 57.6925 141.287 58.2904C141.782 60.3828 141.683 62.4753 141.188 64.5678C140.693 66.5606 140.1 68.3541 140.396 70.4466C140.396 71.1441 141.386 71.0445 141.287 70.4466Z" fill="#AA7D54"/>
<path d="M140.1 68.7523C139.011 66.0621 141.485 63.3718 140.892 60.5818C140.793 59.984 139.803 60.0836 140.001 60.6815C140.595 63.571 138.121 66.1617 139.308 69.0513C139.407 69.7487 140.298 69.3502 140.1 68.7523Z" fill="#AA7D54"/>
<path d="M138.615 67.0587C138.22 65.6637 138.318 64.2687 138.714 62.8737C138.912 62.2759 138.022 61.977 137.824 62.4752C137.329 63.9698 137.23 65.5641 137.626 67.1584C137.923 67.7562 138.813 67.6566 138.615 67.0587Z" fill="#AA7D54"/>
<path d="M134.855 62.2759C134.657 61.5784 134.657 60.8809 134.756 60.0838C134.855 59.486 133.964 59.3863 133.865 59.9842C133.667 60.8809 133.766 61.7777 133.964 62.6745C134.162 63.1727 134.954 62.8737 134.855 62.2759Z" fill="#AA7D54"/>
<path d="M133.073 60.781C132.678 57.6921 134.558 54.9021 134.459 51.8133C134.459 51.2154 133.469 51.3151 133.568 51.9129C133.667 55.0018 131.787 57.7917 132.183 60.8806C132.183 61.4784 133.172 61.3788 133.073 60.781Z" fill="#AA7D54"/>
<path d="M131.688 58.6884C131.787 57.0941 131.985 55.4999 132.48 54.0053C132.876 52.6103 133.37 51.315 133.568 49.92C134.063 47.13 133.667 44.1408 133.272 41.3509C133.173 40.753 132.282 40.8527 132.381 41.4505C132.777 44.3401 133.074 47.2297 132.579 50.0196C132.381 51.4146 131.787 52.7099 131.49 54.0053C131.094 55.4999 130.896 56.9945 130.797 58.4891C130.699 59.1866 131.688 59.2862 131.688 58.6884Z" fill="#AA7D54"/>
<path d="M130.501 56.9947C130.006 55.4004 130.699 53.8062 131.193 52.3116C131.688 50.9166 131.985 49.5216 131.985 47.9274C131.985 44.5396 130.501 41.2514 131.292 37.8636C131.391 37.2658 130.501 37.1661 130.402 37.764C129.61 41.1518 130.896 44.4399 130.995 47.8277C131.094 49.7209 130.402 51.4148 129.808 53.1087C129.313 54.5037 129.016 55.8986 129.511 57.3933C129.808 57.8915 130.699 57.5926 130.501 56.9947Z" fill="#AA7D54"/>
<path d="M128.62 55.1021C128.818 53.4082 129.61 51.8139 130.105 50.2197C130.599 48.6254 130.5 46.9316 130.204 45.2377C129.907 43.3445 129.412 41.551 129.511 39.5582C129.61 37.7646 130.105 35.8715 130.599 34.1776C130.797 33.5797 129.808 33.4801 129.709 34.0779C129.313 35.7718 128.818 37.4657 128.62 39.1596C128.422 40.9531 128.719 42.647 129.115 44.4405C129.511 46.4334 129.709 48.3265 129.214 50.2197C128.719 51.8139 128.026 53.3086 127.73 55.0024C127.631 55.5006 128.62 55.6999 128.62 55.1021Z" fill="#AA7D54"/>
<path d="M130.303 31.2875C130.303 28.5972 129.412 26.0065 127.928 23.7148C127.532 23.2166 126.839 23.8144 127.235 24.3126C128.719 26.4051 129.412 28.7964 129.412 31.3871C129.412 32.0846 130.303 31.8853 130.303 31.2875Z" fill="#AA7D54"/>
<path d="M124.662 22.4185C125.256 23.5146 125.751 24.6106 126.047 25.8063C126.344 27.002 126.344 28.1977 126.443 29.3934C126.443 29.9912 127.433 29.8916 127.334 29.2937C127.235 27.9984 127.136 26.6034 126.839 25.3081C126.542 24.1124 126.047 23.116 125.454 22.02C125.256 21.5218 124.365 21.9203 124.662 22.4185Z" fill="#AA7D54"/>
<path d="M122.188 21.1232C123.475 22.8171 124.266 24.7102 124.365 26.9024C124.563 28.9948 123.87 31.0873 122.98 32.9805C121.396 36.5676 119.12 40.1547 119.714 44.3396C119.813 44.9374 120.704 44.8378 120.605 44.2399C119.912 39.6564 122.98 35.7704 124.464 31.5855C125.85 27.7991 125.256 23.7138 122.782 20.5253C122.584 20.0271 121.792 20.6249 122.188 21.1232Z" fill="#AA7D54"/>
<path d="M120.11 20.7255C121.297 22.4194 121.891 24.3126 122.089 26.405C122.188 28.3978 121.594 30.291 120.901 32.1842C119.615 35.3727 117.834 38.4616 118.23 42.0487C118.328 42.6466 119.219 42.5469 119.12 41.9491C118.724 38.1627 121 34.7749 122.287 31.2874C123.573 27.5011 123.276 23.5154 120.901 20.2273C120.506 19.6294 119.813 20.2273 120.11 20.7255Z" fill="#AA7D54"/>
<path d="M119.912 22.2196C121.198 28.5966 114.865 33.5787 115.459 39.9558C115.558 40.5536 116.448 40.454 116.349 39.8561C115.855 33.4791 122.188 28.5966 120.803 22.1199C120.704 21.5221 119.813 21.6217 119.912 22.2196Z" fill="#AA7D54"/>
<path d="M126.938 53.0097C128.323 51.1165 128.62 48.7252 128.521 46.4334C128.422 45.0384 128.027 43.6435 127.928 42.2485C127.73 40.6542 127.829 38.9603 128.224 37.3661C128.323 36.7682 127.433 36.6686 127.334 37.2664C126.74 39.9567 127.037 42.4478 127.532 45.2377C127.928 47.7287 127.829 50.5187 126.344 52.6112C125.849 52.9101 126.641 53.5079 126.938 53.0097Z" fill="#AA7D54"/>
<path d="M108.532 30.7893C108.73 27.3018 108.433 23.914 107.74 20.5262C107.641 19.9283 106.651 20.028 106.849 20.6258C107.542 23.914 107.74 27.3018 107.641 30.6896C107.542 31.1878 108.532 31.3871 108.532 30.7893Z" fill="#AA7D54"/>
<path d="M107.542 29.0957C107.344 25.3093 106.552 21.6226 105.266 18.1351C105.068 17.5372 104.177 17.9358 104.375 18.5337C105.662 22.0211 106.354 25.6083 106.552 29.295C106.651 29.8929 107.542 29.6936 107.542 29.0957Z" fill="#AA7D54"/>
<path d="M105.959 27.1023C105.464 22.2198 104.078 17.5366 101.703 13.1524C101.406 12.6542 100.516 12.9531 100.813 13.551C103.089 17.8356 104.474 22.4191 104.969 27.2019C105.068 27.7997 106.057 27.7001 105.959 27.1023Z" fill="#AA7D54"/>
<path d="M104.672 25.4083C103.979 22.8176 102.99 20.227 101.703 17.8356C101.109 16.7395 100.417 15.6435 99.724 14.5474C98.9323 13.3518 97.6459 12.1561 97.5469 10.5618C97.5469 9.96398 96.5573 10.0636 96.6562 10.6615C96.7552 11.8571 97.349 12.7539 98.0417 13.7503C98.9323 14.946 99.724 16.2413 100.516 17.5367C101.901 20.0277 102.99 22.718 103.682 25.4083C103.88 26.1058 104.771 26.0061 104.672 25.4083Z" fill="#AA7D54"/>
<path d="M109.917 31.9847C109.818 29.9919 109.719 27.8994 109.719 25.9065C109.719 25.3087 108.828 25.4083 108.828 26.0062C108.828 27.999 108.927 30.0915 109.026 32.0843C109.026 32.6822 109.917 32.5826 109.917 31.9847Z" fill="#AA7D54"/>
<path d="M110.709 33.0808C110.907 31.6858 110.907 30.2908 110.808 28.8958C110.808 28.298 109.818 28.3976 109.917 28.9955C110.016 30.2908 110.016 31.6858 109.818 32.9812C109.719 33.579 110.61 33.6787 110.709 33.0808Z" fill="#AA7D54"/>
<path d="M113.084 37.8635C110.412 36.7674 107.542 37.5645 104.87 38.262C101.802 39.0592 98.7345 39.1588 95.6668 37.8635C95.073 37.6642 94.7761 38.4613 95.2709 38.7602C97.9428 39.8563 100.714 40.1552 103.584 39.5574C106.552 38.9595 109.62 37.4649 112.688 38.7602C113.282 38.9595 113.579 38.1624 113.084 37.8635Z" fill="#AA7D54"/>
<path d="M113.776 39.0594C111.104 38.4616 108.531 39.4579 105.958 40.4543C103.386 41.4507 100.12 42.3475 97.7448 40.2551C97.25 39.8565 96.7552 40.554 97.151 41.0522C102.099 45.4363 108.235 38.8601 113.578 40.0558C114.172 40.1554 114.37 39.2587 113.776 39.0594Z" fill="#AA7D54"/>
<path d="M114.766 40.8533C112.292 40.1558 110.016 41.2518 107.839 42.4475C105.167 43.8424 102.396 44.4402 99.4272 43.6431C98.8334 43.4438 98.7345 44.4402 99.3282 44.5399C101.802 45.2373 104.375 45.038 106.75 44.0417C109.224 43.0453 111.599 40.9529 114.469 41.75C114.964 41.9493 115.36 41.0525 114.766 40.8533Z" fill="#AA7D54"/>
<path d="M115.756 42.3476C113.776 42.1484 112.094 42.9455 110.412 43.9419C108.235 45.2373 106.156 46.1341 103.682 46.6323C103.089 46.7319 103.188 47.7284 103.781 47.5291C105.761 47.1305 107.542 46.6323 109.323 45.6359C111.302 44.5398 113.183 43.0451 115.558 43.2444C116.25 43.3441 116.448 42.3476 115.756 42.3476Z" fill="#AA7D54"/>
<path d="M116.844 43.9414C115.162 43.9414 113.579 43.9414 112.391 45.2367C111.995 45.7349 112.688 46.2332 113.183 45.8346C114.073 44.8382 115.558 44.8382 116.745 44.8382C117.24 44.9378 117.438 44.041 116.844 43.9414Z" fill="#AA7D54"/>
<path d="M111.005 35.6716C109.422 35.3727 107.74 35.273 106.156 35.4723C104.375 35.6716 102.792 36.4688 101.01 36.5684C100.417 36.5684 100.516 37.5649 101.109 37.4652C102.792 37.3656 104.276 36.6681 105.958 36.3691C107.641 36.0702 109.224 36.1699 110.907 36.4688C111.5 36.7677 111.599 35.7713 111.005 35.6716Z" fill="#AA7D54"/>
<path d="M110.115 33.7791C107.938 33.0814 105.761 33.181 103.683 33.9784C103.089 34.1778 103.485 35.0748 104.078 34.8754C105.959 34.1778 107.938 34.0781 109.818 34.6761C110.313 34.7758 110.709 33.9784 110.115 33.7791Z" fill="#AA7D54"/>
<path d="M103.089 26.0066C102 25.9069 101.208 25.3091 100.021 25.2095C98.8335 25.2095 97.7449 25.5084 96.6563 25.3091C96.0626 25.2095 95.9636 26.1062 96.5574 26.2058C97.6459 26.4051 98.7345 26.2058 99.823 26.1062C101.011 26.0066 101.901 26.704 103.089 26.9033C103.485 27.0029 103.682 26.0066 103.089 26.0066Z" fill="#AA7D54"/>
<path d="M101.209 24.2132C99.4273 23.8146 97.646 23.5157 95.8647 23.1171C93.8855 22.7186 92.698 21.5229 91.6094 19.829C91.3125 19.3308 90.5208 19.9287 90.9167 20.4269C91.9063 21.9214 92.9949 23.2168 94.7762 23.8146C96.7554 24.5121 99.0315 24.7114 101.11 25.2095C101.703 25.2095 101.802 24.3128 101.209 24.2132Z" fill="#AA7D54"/>
<path d="M97.9429 21.423C96.6564 21.423 95.4689 20.6259 94.4793 20.028C93.3907 19.3306 92.3021 18.5334 91.6094 17.4374C91.3125 16.9392 90.5208 17.5371 90.9167 18.0353C91.7084 19.3306 92.9949 20.1277 94.2814 20.9248C95.4689 21.7219 96.7554 22.4194 98.2398 22.4194C98.7346 22.3198 98.5367 21.3234 97.9429 21.423Z" fill="#AA7D54"/>
<path d="M94.4793 17.6368C93.2918 17.4375 91.5105 16.74 91.5105 15.345C91.5105 14.7472 90.5209 14.8468 90.6199 15.4447C90.7188 17.3379 92.797 18.3343 94.4793 18.5336C94.9741 18.6333 95.0731 17.7365 94.4793 17.6368Z" fill="#AA7D54"/>
<path d="M120.704 49.5218C119.615 49.2229 118.625 49.1233 117.537 49.4222C116.943 49.5218 117.042 50.5181 117.636 50.3189C118.526 50.1196 119.417 50.1196 120.308 50.4185C121 50.5181 121.297 49.7211 120.704 49.5218Z" fill="#AA7D54"/>
<path d="M121.891 51.1163C120.605 50.7178 119.318 50.6181 117.933 50.8174C116.349 51.1163 115.063 52.013 113.479 52.013C112.886 52.013 112.985 52.9098 113.578 52.9098C114.865 52.9098 116.052 52.312 117.24 51.9134C118.625 51.4152 120.11 51.5149 121.495 51.9134C122.089 52.1127 122.485 51.216 121.891 51.1163Z" fill="#AA7D54"/>
<path d="M123.079 52.8097C121.99 52.4111 120.803 52.4111 119.714 52.6104C118.329 52.9093 117.24 53.9058 115.855 54.1051C115.261 54.2047 115.36 55.1015 115.954 55.0019C116.943 54.8026 117.834 54.404 118.724 53.9058C120.011 53.3079 121.396 53.2083 122.683 53.6069C123.277 53.8061 123.672 53.009 123.079 52.8097Z" fill="#AA7D54"/>
<path d="M124.266 54.5042C121.99 53.6074 119.813 54.7035 117.834 55.7995C117.339 56.0984 117.636 56.9951 118.23 56.6962C119.912 55.6999 121.891 54.6038 123.969 55.4009C124.464 55.6002 124.86 54.8031 124.266 54.5042Z" fill="#AA7D54"/>
<path d="M125.652 56.1975C124.761 55.9982 123.771 55.8985 122.881 56.1975C121.792 56.596 120.803 57.2935 119.516 57.4928C118.922 57.5924 119.021 58.4892 119.615 58.3896C120.506 58.2899 121.198 57.8914 121.99 57.4928C123.079 56.895 124.266 56.7953 125.454 57.0942C126.047 57.2935 126.146 56.2971 125.652 56.1975Z" fill="#AA7D54"/>
<path d="M126.74 58.2894C125.058 57.7911 123.376 57.9904 121.792 58.8873C121.297 59.1862 121.891 59.9834 122.386 59.5848C123.574 58.8873 125.058 58.688 126.344 59.0866C126.938 59.3855 127.334 58.4887 126.74 58.2894Z" fill="#AA7D54"/>
<path d="M127.829 59.6849C126.839 59.3859 125.75 59.3859 124.761 59.5852C124.167 59.6849 124.266 60.6815 124.86 60.4822C125.849 60.2828 126.74 60.2828 127.631 60.5818C128.323 60.7811 128.422 59.8842 127.829 59.6849Z" fill="#AA7D54"/>
<path d="M134.261 68.553C133.073 68.4533 131.886 68.3537 130.698 68.7523C130.105 68.9515 129.61 69.3501 128.917 69.4497C128.323 69.5494 127.037 69.9479 126.542 69.4497C126.146 68.9515 125.454 69.5494 125.849 70.0476C126.641 70.9443 128.026 70.6454 129.016 70.4461C129.709 70.3465 130.402 69.9479 130.995 69.649C131.985 69.2505 133.073 69.3501 134.063 69.4497C134.657 69.5494 134.855 68.553 134.261 68.553Z" fill="#AA7D54"/>
<path d="M125.157 69.35C126.344 69.35 127.334 68.9514 128.422 68.4532C129.709 67.7557 130.995 67.3572 132.48 67.6561C133.074 67.7557 133.173 66.8589 132.579 66.7593C131.391 66.56 130.303 66.6597 129.214 67.0582C127.928 67.5564 126.74 68.5528 125.256 68.4532C124.662 68.4532 124.464 69.35 125.157 69.35Z" fill="#AA7D54"/>
<path d="M135.547 70.4467C133.37 69.4503 131.49 71.0446 129.412 71.5428C128.818 71.6425 128.917 72.6389 129.511 72.4397C131.292 72.0411 133.271 70.4467 135.152 71.2439C135.745 71.5428 136.042 70.646 135.547 70.4467Z" fill="#AA7D54"/>
<path d="M137.131 72.1407C136.141 72.041 135.251 72.041 134.261 72.2403C133.667 72.3399 133.766 73.2368 134.36 73.1371C135.251 72.9378 136.042 72.9378 136.933 73.0375C137.626 73.1371 137.725 72.2403 137.131 72.1407Z" fill="#AA7D54"/>
<path d="M190.569 139.199C192.351 141.491 194.33 143.683 196.21 145.974C196.606 146.473 197.299 145.875 196.903 145.377C195.022 143.184 193.043 140.992 191.262 138.601C190.965 138.103 190.272 138.701 190.569 139.199Z" fill="#AA7D54"/>
<path d="M178.793 128.837C178.595 128.737 178.397 128.737 178.199 128.637C178.298 128.737 178.397 128.837 178.496 128.936C178.298 128.637 178.199 128.239 178.199 127.94C178.1 127.342 177.21 127.442 177.309 128.039C177.408 128.438 177.506 128.837 177.605 129.135C177.704 129.335 177.803 129.534 177.902 129.534C178.1 129.634 178.298 129.634 178.496 129.733C178.694 129.833 178.991 129.733 179.09 129.434C179.09 129.235 178.991 128.936 178.793 128.837Z" fill="#AA7D54"/>
<path d="M183.642 123.854C183.444 123.754 183.246 123.655 183.048 123.555C182.85 123.455 182.554 123.555 182.455 123.854C182.356 124.053 182.455 124.352 182.751 124.452C182.949 124.551 183.147 124.651 183.345 124.751C183.543 124.85 183.84 124.751 183.939 124.452C183.939 124.253 183.84 123.954 183.642 123.854Z" fill="#AA7D54"/>
<path d="M7.74944 178.947C4.13253 170.541 2.3847 161.504 1.43384 152.752C0.581925 143.997 0.0304622 135.437 0.374923 127.159C0.0986302 133.741 0.415999 140.313 0.929445 146.781C0.543908 141.905 0.3635 137.424 0.379168 132.839C0.394836 128.255 0.608392 123.667 1.21048 118.673C1.12602 119.472 1.14231 120.368 0.964339 121.468C0.885309 122.565 0.806279 123.663 0.727249 124.761C0.668133 126.954 0.605396 128.949 0.718822 129.744C0.629555 135.725 0.936062 141.699 1.34151 147.671C1.74696 153.643 2.44924 159.61 3.74338 165.466C4.39135 168.444 5.13645 171.321 6.07945 174.193C6.59951 175.579 7.02244 177.066 7.64144 178.45L8.47101 180.528L9.49846 182.602C10.1175 183.986 10.9326 185.267 11.6487 186.55C12.3648 187.832 13.2789 189.111 14.0939 190.392C15.8212 192.852 17.7446 195.209 19.8604 197.263C19.4574 196.872 18.9555 196.482 18.5525 196.091C18.1494 195.7 17.7464 195.308 17.4424 194.915C16.7353 194.131 16.0282 193.346 15.42 192.56C14.8119 191.774 14.2037 190.988 13.6945 190.2C13.1853 189.412 12.6761 188.624 12.2677 187.934C10.3316 184.879 8.99288 182.014 7.74944 178.947Z" fill="#D3BF9F"/>
<path d="M9.05874 93.1172C8.48506 94.2238 7.90957 95.2308 7.33589 96.3374C6.86115 97.4422 6.28747 98.5489 5.90986 99.5523C6.38278 98.3478 6.95646 97.2412 7.4312 96.1364C8.00669 95.1294 8.58219 94.1224 9.05874 93.1172Z" fill="#D3BF9F"/>
<path d="M107.468 159.703C110.134 159.355 112.801 159.108 115.471 158.96C112.801 159.108 110.134 159.355 107.468 159.703Z" fill="#D3BF9F"/>
<path d="M27.9856 202.896C28.5865 203.284 29.1875 203.672 29.7902 204.159C30.3911 204.547 30.9921 204.935 31.6919 205.321C40.9056 211.233 51.9556 214.721 63.2461 215.114C60.177 215.07 57.0017 214.629 53.9235 214.087C50.8436 213.445 47.7618 212.704 44.6745 211.663C38.6008 209.68 32.9047 206.694 27.9856 202.896Z" fill="#D3BF9F"/>
<path d="M19.4227 194.68C15.6855 190.562 12.531 185.836 10.1627 180.796C7.79429 175.756 6.21385 170.503 5.22888 165.339C6.31279 170.501 7.79429 175.756 10.2616 180.794C12.5292 185.736 15.6836 190.463 19.4227 194.68Z" fill="#D3BF9F"/>
<path d="M189.729 165.789C189.729 165.789 189.927 165.785 190.224 165.78C190.522 165.874 190.819 165.869 191.116 165.863L194.394 166.501L197.67 167.04C199.854 167.399 202.139 167.856 204.323 168.215C203.231 168.036 202.239 167.954 201.048 167.776C198.665 167.321 197.175 167.049 195.587 166.779C194.097 166.507 192.508 166.237 189.729 165.789Z" fill="#D3BF9F"/>
<path d="M104.506 160.154L104.211 160.259C103.325 160.475 102.438 160.69 101.551 160.905C101.452 160.907 101.353 160.909 101.256 161.01C102.24 160.694 103.323 160.375 104.506 160.154Z" fill="#D3BF9F"/>
<path d="M184.166 164.694C184.066 164.596 183.965 164.498 183.666 164.404C186.151 164.957 188.633 165.41 191.019 165.965C190.722 165.97 190.423 165.876 190.226 165.88C188.635 165.51 186.052 164.959 184.166 164.694Z" fill="#D3BF9F"/>
<path d="M127.198 156.156C125.514 156.087 124.131 156.212 123.339 156.226C119.081 156.104 114.823 155.981 109.784 156.471C108.994 156.585 107.316 156.815 105.837 157.141C104.949 157.257 103.862 157.376 102.775 157.495C108.397 156.397 114.031 155.996 119.673 155.993C125.315 155.991 130.962 156.288 136.711 156.782C133.639 156.538 130.467 156.297 127.198 156.156Z" fill="#D3BF9F"/>
<path d="M198.761 150.875C205.635 153.342 213.481 154.795 221.295 154.554C223.274 154.518 225.251 154.382 227.126 154.049C229 153.717 230.873 153.284 232.745 152.852C236.392 151.988 239.939 151.127 243.388 150.267C239.346 151.138 234.91 152.115 230.571 152.991C228.401 153.428 226.133 153.868 223.958 154.007C221.783 154.146 219.606 154.185 217.625 154.122C209.503 153.77 203.427 151.688 202.425 151.008C201.324 150.331 206.703 152.226 214.14 152.989C217.809 153.321 222.067 153.443 226.114 152.872C230.162 152.3 234.004 151.334 237.158 150.579C235.481 150.909 235.481 150.909 233.805 151.238C235.481 150.909 237.158 150.579 238.635 150.154C235.282 150.813 228.775 152.226 226.994 152.258C226.994 152.258 227.685 152.146 228.473 151.932C229.162 151.72 229.951 151.607 229.951 151.607C228.865 151.726 227.681 151.947 226.496 152.068C225.31 152.189 223.927 152.313 222.542 152.339C219.771 152.389 216.7 152.245 213.626 151.902C207.576 151.214 201.702 149.327 198.006 147.501C202.697 149.608 207.872 151.209 213.428 151.905C216.206 152.254 219.079 152.401 221.948 152.349C223.432 152.322 224.914 152.196 226.298 152.071C227.778 151.845 229.259 151.619 230.738 151.293C236.753 150.088 242.862 148.583 249.274 147.37C255.588 146.26 262.201 145.243 269.037 145.618C272.406 145.856 275.882 146.49 279.079 148.127C280.679 148.995 282.183 150.064 283.396 151.437C283.7 151.83 284.002 152.124 284.207 152.519L284.614 153.109L284.921 153.702C285.127 154.096 285.332 154.491 285.537 154.886L286.055 156.172C286.158 156.37 286.26 156.567 286.266 156.866L286.476 157.56C286.584 158.056 286.594 158.555 286.7 158.951C286.718 159.947 286.635 160.846 286.357 161.848C285.895 163.65 284.936 165.361 283.774 166.777C282.612 168.194 281.249 169.414 279.682 170.34C278.9 170.852 278.115 171.265 277.329 171.578L274.971 172.518C268.585 175.124 261.882 176.641 255.163 177.261C248.444 177.881 241.81 177.702 235.364 177.021C228.126 176.355 221.08 175.286 214.229 174.115C207.378 172.943 200.727 171.867 193.979 170.893C187.229 169.819 180.873 168.639 174.42 167.56C168.066 166.479 161.814 165.595 155.564 164.811C153.281 164.454 149.313 163.928 144.948 163.409C140.584 162.89 135.725 162.38 131.761 162.153C124.628 161.783 117.6 161.711 110.685 162.434C107.227 162.796 103.872 163.355 100.724 164.408C97.5741 165.362 94.6294 166.711 92.489 168.743C90.1507 170.778 88.9117 173.392 88.6712 176.486C88.6013 178.081 88.7275 179.574 89.0534 181.163C89.3793 182.751 90.0039 184.434 90.6302 186.217C91.2566 187.999 91.9819 189.78 92.5129 191.763C93.044 193.747 93.5787 195.93 93.6205 198.221C93.6623 200.512 93.213 203.012 92.2617 205.122C91.3122 207.332 89.7636 209.253 88.1089 210.778C84.7003 213.829 80.6727 215.497 76.5353 216.568C74.4665 217.104 72.3942 217.44 70.3182 217.578C69.3287 217.595 68.2422 217.715 67.2527 217.733C66.2633 217.751 65.1749 217.77 64.1855 217.788C55.9677 217.638 47.7209 215.893 39.8425 212.648C36.6527 211.41 33.2487 209.279 32.4444 208.596C32.0414 208.205 32.2411 208.301 33.4393 208.877C34.0384 209.165 34.938 209.647 36.1362 210.223C36.7353 210.511 37.4334 210.798 38.1332 211.184C38.9303 211.468 39.7291 211.852 40.7258 212.233C43.9156 213.471 47.2007 214.508 50.5793 215.244C53.9579 215.98 57.3311 216.417 60.7996 216.653C64.2681 216.89 67.7293 216.727 71.1887 216.466C72.966 216.234 74.6444 216.004 76.4163 215.474C78.0911 215.045 79.863 214.515 81.5305 213.687C80.8452 214.098 78.7819 214.933 76.616 215.57C74.3512 216.209 71.982 216.551 70.4008 216.679C72.9715 216.533 75.5367 216.088 77.8987 215.348C80.2624 214.707 82.5218 213.769 84.6749 212.435C86.828 211.1 88.7778 209.47 90.3191 207.15C91.8623 204.93 92.8008 202.123 92.946 199.23C92.918 203.117 91.0081 206.939 88.3839 209.577C87.0223 210.897 85.5581 212.02 83.9896 212.846C82.4228 213.771 80.7517 214.399 79.1795 215.025C81.2446 214.29 83.306 213.356 85.2631 212.125C87.2202 210.894 89.0692 209.166 90.4181 207.149C91.8641 205.03 92.7092 202.523 92.9588 199.927C93.2083 197.332 92.7672 194.848 92.1335 192.667C90.8626 188.106 88.91 184.155 88.2455 180.28C87.581 176.406 88.2027 172.508 90.5265 169.675C92.2693 167.551 94.7193 166.211 97.4715 165.165C100.323 164.117 103.771 163.257 108.013 162.483C105.248 162.832 102.586 163.378 99.927 164.124C97.3672 164.868 94.9136 166.008 92.8612 167.441C91.8845 168.156 90.9114 169.07 90.1362 169.981C89.3628 170.992 88.7873 171.999 88.4115 173.102C88.0357 174.205 87.7625 175.505 87.6872 176.802C87.6119 178.099 87.7344 179.393 87.9559 180.684C88.4979 183.265 89.4393 186.039 90.4796 188.81C91.4227 191.683 92.4685 194.754 92.5303 198.141C92.5612 199.835 92.396 201.632 91.7324 203.238C91.1679 204.843 90.4054 206.451 89.2417 207.768C88.1769 209.083 86.9125 210.301 85.6425 211.221C84.2737 212.143 82.903 212.965 81.4297 213.59C81.4297 213.59 81.5287 213.588 81.5269 213.488C78.9743 214.631 76.3156 215.376 73.6532 215.923C72.3705 216.145 70.989 216.37 69.7027 216.393C68.4182 216.516 67.132 216.539 65.8457 216.562C60.7006 216.655 55.6418 216.049 50.4731 214.847C53.6538 215.587 56.9281 216.026 59.8029 216.273C52.1679 215.514 44.8061 213.455 38.018 210.289C31.228 207.023 24.9128 202.653 19.7649 197.165C23.4949 200.885 27.8131 204.295 32.5143 207C37.2155 209.705 42.3034 211.906 47.5765 213.405C52.8496 214.904 58.4068 215.7 63.9531 215.899C66.7235 215.849 69.4939 215.799 72.3578 215.448C75.121 214.999 77.9794 214.35 80.6309 213.205C83.2824 212.061 85.8295 210.62 87.9663 208.389C89.0365 207.373 89.9034 206.062 90.5706 204.654C90.8547 203.952 91.2377 203.247 91.4229 202.546C91.5146 202.146 91.6081 201.845 91.6997 201.445L91.8776 200.345C92.2189 197.349 91.6697 194.37 90.8291 191.694C89.9885 189.019 88.9518 186.446 88.2138 183.968C87.3768 181.492 86.9356 179.008 87.0881 176.514C87.1652 175.317 87.3413 174.118 87.7153 172.915C88.0911 171.812 88.5658 170.707 89.3392 169.697C90.6899 167.779 92.6397 166.149 94.8954 165.012C97.0522 163.877 99.5094 162.935 101.875 162.394C99.1154 163.042 96.1635 163.992 93.5211 165.635C90.8787 167.277 88.6448 169.61 87.7062 172.417C86.6687 175.226 86.7268 178.414 87.2742 181.294C87.9206 184.173 88.9591 186.845 89.6971 189.323C88.1294 184.767 86.2666 180.316 86.7785 175.822C86.8575 174.725 87.1343 173.623 87.5101 172.52C87.8877 171.517 88.3643 170.512 89.0405 169.602C90.2941 167.786 92.0496 166.359 94.0085 165.227C98.0252 162.962 102.656 161.782 107.394 161.099C112.132 160.415 116.979 160.228 121.829 160.24C120.345 160.266 118.959 160.291 117.576 160.416C129.55 160.299 142.44 161.561 154.449 163.337C155.541 163.516 156.534 163.698 157.626 163.877C156.534 163.698 155.442 163.518 154.449 163.337C143.431 161.643 132.522 160.445 121.831 160.339C126.78 160.349 132.029 160.553 138.275 161.138C134.902 160.701 130.045 160.29 125.191 160.079C118.754 159.896 112.323 160.013 106.108 161.122C110.943 160.337 115.788 160.05 120.537 159.964C125.286 159.878 129.942 160.093 134.4 160.311C127.758 159.734 120.924 159.459 114.201 159.879C110.839 160.04 107.48 160.399 104.127 161.058C102.45 161.387 100.875 161.814 99.2017 162.343C97.6277 162.87 96.0555 163.496 94.584 164.22C97.8183 162.468 101.364 161.507 105.014 160.843C108.664 160.179 112.319 159.814 115.978 159.648C128.343 159.225 140.839 160.593 153.342 162.36C152.845 162.27 152.351 162.278 151.953 162.186C152.946 162.367 153.839 162.451 154.832 162.632C159.694 163.342 164.658 164.149 169.524 165.057C173.892 165.775 178.262 166.593 182.63 167.312C183.327 167.498 184.12 167.584 184.816 167.77C183.427 167.596 182.733 167.509 185.415 168.058C188.197 168.606 191.079 169.252 194.058 169.796C197.037 170.34 200.013 170.684 203.091 171.227C209.247 172.311 215.603 173.492 222.058 174.671C225.534 175.305 230.1 176.02 235.155 176.427C236.544 176.601 237.238 176.688 237.931 176.676C239.021 176.756 240.111 176.835 241.201 176.915C242.588 176.99 243.875 176.967 245.262 177.041C245.954 177.029 246.649 177.116 247.242 177.105C247.935 177.093 248.628 177.08 249.221 177.069C248.529 177.082 247.935 177.093 247.242 177.105C246.55 177.118 245.855 177.031 245.262 177.041C243.875 176.967 242.588 176.99 241.201 176.915C240.21 176.834 239.219 176.752 238.228 176.67C238.92 176.658 239.613 176.645 241.099 176.718C231.784 176.089 222.452 174.564 213.117 172.839C208.45 172.027 203.683 171.116 199.016 170.304C194.252 169.593 189.485 168.682 184.816 167.77C186.007 167.948 187.596 168.218 188.29 168.305C186.403 167.941 184.517 167.676 182.63 167.312C176.472 166.127 170.415 165.041 164.258 163.957C166.144 164.221 167.831 164.49 169.319 164.662C160.581 163.126 151.746 161.691 142.92 160.755C134.094 159.818 125.076 159.184 116.176 159.644C112.023 159.819 107.872 160.193 103.731 161.065C99.6891 161.936 95.6542 163.204 92.233 165.558C90.5728 166.784 89.114 168.206 87.9576 169.921C86.9001 171.634 86.2457 173.739 86.0841 175.735C85.8254 177.833 86.0615 179.921 86.4936 181.906C86.9257 183.892 87.6546 185.872 88.2846 187.854C87.5539 185.774 86.8213 183.595 86.3837 181.311C85.948 179.126 85.9044 176.735 86.3591 174.534C86.8139 172.334 87.7633 170.124 89.2166 168.403C90.6681 166.583 92.6233 165.252 94.683 164.219C91.938 165.663 89.5007 167.701 87.9667 170.419C86.4308 173.038 85.9961 176.335 86.3474 179.318C86.9566 185.585 90.8182 191.096 91.2367 197.766C91.4946 201.05 90.369 204.459 88.2377 206.989C87.1711 208.204 85.9048 209.323 84.6349 210.243C83.2661 211.165 81.7946 211.889 80.3214 212.513C77.2741 213.665 74.1206 214.419 70.9581 214.676C67.7955 214.932 64.6293 214.99 61.4577 214.748C66.0127 214.865 72.3378 214.352 74.9911 213.307C74.8922 213.309 72.8198 213.646 71.4364 213.77C70.7457 213.882 70.152 213.893 70.0512 213.795C69.9523 213.797 70.3481 213.79 71.5318 213.569C75.7772 212.994 79.5153 211.731 82.6506 209.98C85.6852 208.131 88.1151 205.695 89.0555 202.988C89.6256 201.682 89.897 200.282 89.8733 198.986C89.9614 198.387 89.8497 197.691 89.8388 197.094C89.729 196.498 89.7181 195.9 89.5093 195.306C88.9728 193.023 88.1467 191.145 87.425 189.563C87.0184 188.973 88.5825 193.329 88.745 196.814C88.8766 198.606 88.5063 200.008 88.3229 200.808C88.1323 201.21 88.0352 201.312 88.0352 201.312C88.0334 201.212 88.1269 200.912 88.2149 200.312C88.6715 198.211 88.1204 195.132 86.7615 191.17C86.1315 189.188 85.2028 187.112 84.4648 184.634C84.1462 183.444 83.7268 182.156 83.5035 180.765C83.2802 179.373 83.1539 177.881 83.2275 176.484C83.2955 174.789 83.6604 173.088 84.2214 171.284C84.8831 169.578 85.7445 167.968 86.9046 166.452C87.0988 166.249 87.2931 166.046 87.4855 165.744C87.7769 165.44 88.0683 165.135 88.3578 164.732C90.6925 162.497 93.4375 161.052 95.9901 159.91C98.6434 158.865 101.203 158.121 103.571 157.68C108.402 156.695 112.554 156.421 115.523 156.367C117.699 156.328 119.876 156.289 122.053 156.249C123.143 156.329 124.134 156.411 124.928 156.496C126.313 156.471 127.599 156.448 128.986 156.522C134.732 156.817 140.385 157.412 145.94 158.109C149.017 158.552 152.093 158.994 155.171 159.537C155.07 159.439 154.673 159.346 155.266 159.336C162.214 160.406 169.065 161.577 175.819 162.851C178.6 163.398 181.086 164.051 183.274 164.609C185.159 164.874 187.64 165.228 190.421 165.775C191.812 166.049 193.302 166.321 194.89 166.591C196.479 166.862 198.067 167.132 199.755 167.4C206.505 168.474 213.658 169.939 219.614 170.928C225.571 171.916 231.528 172.905 237.576 173.493C238.567 173.575 239.461 173.758 240.452 173.84C241.244 173.825 241.938 173.912 242.631 173.9C243.324 173.887 243.917 173.877 244.214 173.871C245.403 173.949 246.591 173.928 247.681 174.008C248.769 173.988 249.858 173.968 250.946 173.949C251.441 173.94 252.034 173.929 252.529 173.92C253.024 173.911 253.518 173.902 254.11 173.792C255.1 173.774 256.186 173.655 257.176 173.637C257.867 173.525 259.246 173.201 260.826 172.973C262.407 172.844 263.884 172.419 265.363 172.093C266.052 171.882 266.841 171.768 267.53 171.556C268.219 171.344 268.908 171.132 269.696 170.919C270.484 170.705 271.369 170.39 272.157 170.177C272.943 169.863 273.729 169.55 274.614 169.235C275.4 168.922 276.285 168.607 277.072 168.294C277.759 167.983 278.444 167.571 279.129 167.16C281.279 165.627 283.121 163.501 283.771 161.197C284.048 160.095 284.125 158.898 283.809 157.808C283.6 157.213 283.389 156.52 283.083 156.027C282.776 155.435 282.468 154.842 282.063 154.351C281.35 153.268 280.346 152.489 279.342 151.71C278.241 151.032 277.041 150.356 275.748 149.981C273.159 149.131 270.282 148.784 267.409 148.637C267.012 148.544 266.913 148.546 266.812 148.448C265.031 148.481 262.46 148.627 260.879 148.755C261.176 148.75 261.372 148.646 261.372 148.646C258.706 148.994 257.125 149.122 255.545 149.35C254.065 149.576 252.582 149.702 250.116 150.146C249.031 150.364 248.045 150.582 246.962 150.9C246.47 151.009 245.878 151.119 245.385 151.228C239.857 152.025 234.541 153.616 228.326 154.725C221.909 155.639 215.569 155.355 209.312 154.172C206.83 153.719 205.137 153.152 203.742 152.679C201.652 152.019 200.356 151.544 198.761 150.875Z" fill="#D3BF9F"/>
<path d="M205.814 168.586C211.575 169.678 217.236 170.771 222.896 171.765C216.742 170.78 211.282 169.883 205.814 168.586Z" fill="#D3BF9F"/>
<path d="M86.2889 203.237C85.3267 204.75 83.7709 206.273 81.713 207.406C84.4544 205.762 86.3915 203.435 87.0332 200.633C87.6768 197.93 87.025 194.753 85.8748 191.386C84.7247 188.018 83.1751 184.458 82.6004 180.084C82.2636 177.898 82.3226 175.704 82.7773 173.503C83.2321 171.303 84.0826 169.095 85.3344 167.179C84.2732 168.693 83.4154 170.502 82.9552 172.404C82.495 174.306 82.3335 176.302 82.4688 178.292C82.7412 182.373 84.0928 185.937 85.2412 189.205C86.3877 192.373 87.3309 195.246 87.3727 197.537C87.517 200.026 86.8571 201.832 86.2889 203.237Z" fill="#D3BF9F"/>
<path d="M190.224 165.779C190.421 165.776 190.72 165.87 191.017 165.865C191.017 165.865 191.017 165.865 191.116 165.863C190.819 165.868 190.522 165.874 190.224 165.779Z" fill="#D3BF9F"/>
<path d="M63.3289 214.216C62.8341 214.225 62.3376 214.135 61.9418 214.142C65.5074 214.276 69.1683 214.21 72.8184 213.546C71.4386 213.87 69.8573 213.998 68.2742 214.027C67.4845 214.141 66.6929 214.155 65.9014 214.17C65.0109 214.186 64.1222 214.302 63.3289 214.216Z" fill="#D3BF9F"/>
<path d="M27.2602 201.116C24.349 198.876 21.6303 196.335 19.104 193.49C16.5795 190.745 14.4454 187.695 12.6045 184.439C7.90042 176.153 5.55287 166.828 4.40173 157.979C5.64092 166.228 7.66983 174.363 11.4688 181.869C15.1689 189.376 20.6336 195.954 27.2602 201.116Z" fill="#D3BF9F"/>
<path d="M63.2761 211.327C60.4031 211.179 57.4257 210.735 54.5454 210.189C57.4257 210.735 60.4013 211.08 63.2725 211.127C62.6806 211.238 63.1754 211.229 63.2761 211.327Z" fill="#D3BF9F"/>
<path d="M89.3453 202.583C89.0612 203.286 88.7771 203.989 88.3922 204.594C89.2536 202.983 89.8127 201.08 89.8772 199.185C89.9888 199.881 89.7211 201.48 89.3453 202.583Z" fill="#D3BF9F"/>
<path d="M33.7098 201.996C35.5126 203.159 37.4126 204.221 39.3107 205.183C38.1124 204.607 37.015 204.129 35.9157 203.551C35.3129 203.063 34.6112 202.578 33.7098 201.996Z" fill="#D3BF9F"/>
<path d="M12.2686 176.872C11.6495 175.487 11.2283 174.1 10.7081 172.714C10.2869 171.326 9.86568 169.939 9.44629 168.651C10.3986 172.022 11.5469 175.29 12.9902 178.453C12.6807 177.761 12.373 177.169 12.2686 176.872Z" fill="#D3BF9F"/>
</svg>
