<svg width="49" height="48" viewBox="0 0 49 48" fill="none" xmlns="http://www.w3.org/2000/svg">
<rect x="4.1225" y="3.2168" width="44.283" height="44.283" stroke="#AA7D54"/>
<rect width="45.283" height="45.283" fill="#D3BF9F"/>
<path d="M36.6907 7.01317C36.5984 6.98934 36.5007 6.99803 36.414 7.0378C36.3273 7.07756 36.257 7.14596 36.2149 7.2315C36.1771 7.309 35.2416 9.14824 31.1439 11.3121C31.0874 11.3369 31.037 11.374 30.9967 11.4207C30.9563 11.4674 30.9269 11.5226 30.9107 11.5822C30.6547 12.5411 30.3075 13.4733 29.8739 14.3661C29.6347 13.8479 29.4744 13.2967 29.3983 12.731C29.3892 12.6683 29.3659 12.6085 29.3301 12.5562C29.2943 12.504 29.247 12.4606 29.1918 12.4295C29.1366 12.3985 29.075 12.3805 29.0117 12.377C28.9484 12.3735 28.8852 12.3846 28.8269 12.4095C27.7438 12.8709 26.565 13.3104 25.3231 13.7154C23.6764 14.2417 22.0875 14.9342 20.581 15.7822C20.4939 15.8322 20.4279 15.9123 20.3956 16.0074C20.2087 16.5556 20.0069 17.0733 19.7902 17.5607C19.7992 17.3982 19.8111 17.2253 19.8261 17.0423C19.8326 16.9642 19.8167 16.8858 19.7804 16.8164C19.744 16.7469 19.6887 16.6892 19.6208 16.65C19.5529 16.6108 19.4753 16.5917 19.397 16.5949C19.3187 16.5982 19.2429 16.6236 19.1784 16.6683C14.9775 19.5774 12.6884 23.6833 11.9774 29.5746C10.9011 30.7005 9.95557 31.9446 9.159 33.2831C9.01021 33.536 8.9636 33.8361 9.02868 34.1221C9.09377 34.4081 9.26565 34.6585 9.50918 34.8221C9.68912 34.938 9.89859 34.9998 10.1126 35H29.0155C29.1252 35 29.2303 34.9564 29.3079 34.8789C29.3854 34.8013 29.429 34.6962 29.429 34.5865C29.429 34.4768 29.3854 34.3717 29.3079 34.2941C29.2303 34.2166 29.1252 34.173 29.0155 34.173H11.2494C11.9674 33.0166 12.8075 31.9407 13.7552 30.9638C17.8314 30.7639 27.2833 29.9407 30.9979 26.5821C31.2675 26.3381 31.5239 26.08 31.7661 25.8087C31.8146 25.7547 31.8481 25.6888 31.863 25.6178C31.878 25.5467 31.8741 25.473 31.8515 25.404C31.8289 25.3349 31.7886 25.2731 31.7345 25.2246C31.6805 25.1761 31.6146 25.1427 31.5435 25.1278C31.4549 25.1093 31.3672 25.09 31.28 25.0703C31.574 25.0288 31.9043 24.9893 32.2684 24.9567C32.3289 24.9511 32.3874 24.9324 32.4398 24.9018C32.4922 24.8711 32.5373 24.8294 32.5718 24.7795C35.5913 20.3978 36.4604 16.9939 36.9991 7.43612C37.0044 7.34087 36.9766 7.24673 36.9204 7.16965C36.8642 7.09256 36.783 7.03728 36.6907 7.01317ZM9.87329 33.6997C12.4488 29.2812 17.2147 25.9233 22.2601 22.3689C23.3158 21.6253 24.5133 20.7825 25.6609 19.9396C25.7117 19.902 25.7733 19.8816 25.8365 19.8815C25.8523 19.8815 25.8681 19.8828 25.8838 19.8853C25.922 19.8912 25.9587 19.9047 25.9916 19.925C26.0246 19.9453 26.0531 19.9719 26.0756 20.0034C26.1215 20.0666 26.1407 20.1453 26.1289 20.2225C26.1172 20.2997 26.0754 20.3691 26.0128 20.4158C24.8599 21.26 23.6594 22.1057 22.5994 22.8519C17.5989 26.3749 12.8755 29.7025 10.3659 34.0265C10.346 34.0609 10.3193 34.0909 10.2874 34.1146C10.2555 34.1384 10.2191 34.1554 10.1804 34.1646C10.1417 34.1738 10.1015 34.1751 10.0623 34.1683C10.0232 34.1615 9.98576 34.1468 9.95245 34.125C9.8885 34.0769 9.8449 34.0065 9.83025 33.9278C9.8156 33.849 9.83096 33.7677 9.87329 33.6997ZM31.9995 24.1512C31.1242 24.2241 30.257 24.3743 29.4082 24.6001C29.3249 24.6254 29.2517 24.6762 29.199 24.7455C29.1463 24.8147 29.1168 24.8988 29.1146 24.9858C29.1124 25.0727 29.1377 25.1582 29.1869 25.23C29.2361 25.3017 29.3067 25.3562 29.3886 25.3855C29.7865 25.5273 30.2106 25.6563 30.6558 25.7702C30.5849 25.838 30.5152 25.9037 30.4431 25.968C27.1323 28.9615 18.5076 29.8395 14.6266 30.0862C17.016 27.7983 19.9925 25.7008 23.0767 23.5281C24.14 22.7798 25.3427 21.9318 26.5007 21.0823C26.739 20.9061 26.8983 20.643 26.9438 20.3501C26.9893 20.0572 26.9175 19.7581 26.7438 19.5179C26.657 19.3981 26.5474 19.2968 26.4212 19.2196C26.2951 19.1424 26.1549 19.091 26.0088 19.0682C25.8627 19.0455 25.7135 19.0519 25.5698 19.087C25.4262 19.1222 25.2909 19.1854 25.1718 19.2731C24.0296 20.1109 22.8364 20.9507 21.7837 21.6931C18.574 23.9544 15.4763 26.1372 12.9542 28.5778C13.7233 23.8473 15.6498 20.399 18.9483 17.8599C18.9246 18.342 18.9308 18.8251 18.967 19.3064C18.9757 19.3929 19.0114 19.4745 19.0692 19.5396C19.1269 19.6046 19.2037 19.6498 19.2886 19.6687C19.3735 19.6876 19.4622 19.6793 19.542 19.6448C19.6219 19.6104 19.6889 19.5517 19.7335 19.477C20.299 18.5082 20.766 17.4852 21.1276 16.4232C22.5457 15.639 24.0371 14.9954 25.5806 14.5018C26.6652 14.1473 27.7034 13.7679 28.6743 13.37C28.9744 14.748 29.5547 15.4434 29.5823 15.4755C29.6254 15.5261 29.6801 15.5656 29.7417 15.5907C29.8034 15.6157 29.8701 15.6254 29.9363 15.6192C30.0025 15.6129 30.0662 15.5907 30.122 15.5546C30.1779 15.5184 30.2241 15.4693 30.2569 15.4115C30.8605 14.3259 31.3318 13.1719 31.6607 11.9742C33.9872 10.7299 35.3364 9.57309 36.0918 8.75837C35.5625 16.9863 34.6816 20.2095 31.9995 24.1512Z" fill="#191919"/>
<path d="M34.4058 15.3333C34.3523 15.3236 34.2975 15.3245 34.2443 15.336C34.1912 15.3475 34.1409 15.3694 34.0962 15.4004C34.0516 15.4314 34.0135 15.4709 33.9841 15.5166C33.9548 15.5624 33.9348 15.6135 33.9252 15.667C33.8125 16.2938 33.6889 16.8657 33.5504 17.4155C33.5236 17.5218 33.54 17.6344 33.5962 17.7286C33.6523 17.8228 33.7435 17.8909 33.8498 17.9178C33.8831 17.9263 33.9173 17.9305 33.9517 17.9304C34.0436 17.9303 34.1329 17.8996 34.2054 17.8431C34.2779 17.7866 34.3296 17.7076 34.3522 17.6185C34.4961 17.0514 34.6229 16.4607 34.7394 15.814C34.7589 15.706 34.7347 15.5947 34.6721 15.5046C34.6096 15.4144 34.5138 15.3528 34.4058 15.3333Z" fill="#191919"/>
</svg>
