<svg width="81" height="32" viewBox="0 0 81 32" fill="none" xmlns="http://www.w3.org/2000/svg">
<path d="M5.09814 26.1753H8.87955V27.1979H6.21309V28.7353H8.43626V29.7512H6.21309V31.9251H5.09814L5.09814 26.1753Z" fill="#AA7D54"/>
<path d="M11.9624 29.054C11.9624 27.3541 13.1445 26.1147 14.8707 26.1147C16.5431 26.1147 17.7722 27.2999 17.7722 29.054C17.7722 30.8149 16.5431 32 14.8707 32C13.1445 31.9933 11.9624 30.7539 11.9624 29.054ZM14.8774 30.9368C15.858 30.9368 16.6035 30.1376 16.6035 29.054C16.6035 27.9704 15.8647 27.178 14.8774 27.178C13.8497 27.178 13.1445 28.011 13.1445 29.054C13.1378 30.097 13.8497 30.9368 14.8774 30.9368Z" fill="#AA7D54"/>
<path d="M21.3118 29.548V26.1753H22.4469V29.4735C22.4469 30.2997 22.8633 30.9296 23.6155 30.9296C24.3073 30.9296 24.8044 30.3946 24.8044 29.4735V26.1753H25.9327V29.548C25.9327 31.0447 25.0797 31.9929 23.6155 31.9929C22.2386 31.9929 21.3118 31.1192 21.3118 29.548Z" fill="#AA7D54"/>
<path d="M34.503 26.1753V31.9251H33.3478L30.8425 28.119H30.8291V31.9251H29.7007V26.1753H30.8291L33.3612 30.0627H33.3746V26.1753H34.503Z" fill="#AA7D54"/>
<path d="M38.3516 26.1753H40.2389C42.0389 26.1753 43.1942 27.3605 43.1942 29.0604C43.1942 30.7535 42.0927 31.9251 40.2591 31.9251H38.3516V26.1753ZM40.1919 30.9093C41.3001 30.9093 42.0255 30.1101 42.0255 29.0604C42.0255 27.9835 41.2867 27.1979 40.2591 27.1979H39.4665V30.9093H40.1919Z" fill="#AA7D54"/>
<path d="M49.7765 30.7738H47.5936L47.2041 31.9251H46.022L48.131 26.1753H49.219L51.3415 31.9251H50.1593L49.7765 30.7738ZM49.4474 29.8053L48.6817 27.5501H48.675L47.916 29.8053H49.4474Z" fill="#AA7D54"/>
<path d="M55.3983 27.1979H53.8267V26.1753H58.1051V27.1979H56.5267V31.9251H55.3983V27.1979Z" fill="#AA7D54"/>
<path d="M62.7257 26.1753H61.5906V31.9251H62.7257V26.1753Z" fill="#AA7D54"/>
<path d="M66.373 29.054C66.373 27.3541 67.5552 26.1147 69.2813 26.1147C70.9537 26.1147 72.1829 27.2999 72.1829 29.054C72.1829 30.8149 70.9537 32 69.2813 32C67.5619 31.9933 66.373 30.7539 66.373 29.054ZM69.288 30.9368C70.2686 30.9368 71.0142 30.1376 71.0142 29.054C71.0142 27.9704 70.2754 27.178 69.288 27.178C68.2604 27.178 67.5552 28.011 67.5552 29.054C67.5484 30.097 68.2604 30.9368 69.288 30.9368Z" fill="#AA7D54"/>
<path d="M80.5987 26.1753V31.9251H79.4435L76.9382 28.119H76.918V31.9251H75.7964V26.1753H76.918L79.4569 30.0627H79.4703V26.1753H80.5987Z" fill="#AA7D54"/>
<path d="M22.4871 0.866699V7.25316C20.7743 6.61655 18.9743 6.16956 17.1273 5.92575C16.7579 5.87834 16.3817 5.83771 16.0056 5.81062V3.73824C16.0056 1.82162 17.087 0.866699 19.2497 0.866699L22.4871 0.866699Z" fill="#AA7D54"/>
<path d="M11.5796 3.73824V5.87834C9.35642 6.11538 7.16683 6.60977 5.09814 7.20575L5.09814 0.866699L8.34222 0.866699C10.5049 0.866699 11.5796 1.82839 11.5796 3.73824Z" fill="#AA7D54"/>
<path d="M63.8275 3.10219C62.5984 1.65288 61.0737 0.928223 59.2536 0.928223L48.675 0.928223L48.675 23.1488H51.9191C54.0819 23.1488 55.1632 22.1938 55.1632 20.2772V15.7193H58.4677C60.5499 15.7193 62.2491 14.9744 63.5589 13.4912C64.8686 12.008 65.547 10.2675 65.594 8.2696C65.6477 6.27172 65.0566 4.55151 63.8275 3.10219ZM57.0237 10.4436H55.1565V5.35743L57.0237 5.35743C58.8573 5.35743 59.7775 6.20399 59.7775 7.89712C59.7775 9.59701 58.8573 10.4436 57.0237 10.4436Z" fill="#AA7D54"/>
<path d="M36.229 3.35233C36.0208 4.21244 36.0746 5.14704 36.3835 6.06133C36.1283 6.03424 35.8664 6.01392 35.5977 6.01392C33.9589 6.01392 32.6491 6.56249 31.6551 7.65964C30.6611 8.75678 30.164 10.1316 30.164 11.8044V11.8586C28.4379 10.3212 26.4834 9.03445 24.3811 8.04567C24.905 6.2645 25.8252 4.7136 27.1483 3.41329C29.3312 1.27318 32.1454 0.203125 35.591 0.203125C36.5514 0.203125 37.4716 0.291167 38.338 0.46048C37.2634 1.17836 36.5111 2.18746 36.229 3.35233Z" fill="#AA7D54"/>
<path d="M11.5796 18.0758V20.2836C11.5796 20.3716 11.5729 20.4461 11.5729 20.5342C11.5594 20.8051 11.5191 21.0624 11.4587 21.2927C11.3915 21.5365 11.2975 21.7532 11.1833 21.9429C10.693 22.7488 9.74598 23.1551 8.34894 23.1551H5.09814L5.09814 16.4165C7.20713 17.4324 9.3094 17.9674 11.5796 18.0758Z" fill="#AA7D54"/>
<path d="M66.9775 23.155V0.866699L80.5986 0.866699V3.48765C80.5986 5.23496 79.7591 6.11538 78.0799 6.11538L73.4657 6.11538V9.31877H79.9471V11.96C79.9471 13.7209 79.1076 14.6013 77.4284 14.6013H73.4657V17.8995L80.5986 17.8995V20.5272C80.5986 22.2745 79.7591 23.155 78.0799 23.155L66.9775 23.155Z" fill="#AA7D54"/>
<path d="M46.942 8.60106C46.3845 6.50836 45.283 4.87619 43.9397 3.21693C43.6845 2.89863 43.4225 2.56 43.3285 2.16042C43.1472 1.38836 43.6173 0.677249 43.8994 0C42.8785 0.595979 41.8106 0.954921 40.6755 1.28C39.4329 1.63894 38.2239 2.49905 37.915 3.76551C37.7068 4.62561 37.9486 5.54667 38.3919 6.31196C39.0366 7.42942 40.071 8.1744 40.5949 9.37313C41.0919 10.5109 41.2329 11.818 40.9441 13.0303C40.5949 14.5067 39.6143 15.8273 38.2911 16.5452C37.3239 17.0735 36.209 17.2766 35.1142 17.2495C32.9045 17.1954 31.7425 15.9492 30.2984 14.4186C26.779 10.7005 21.9431 8.32339 16.899 7.65292C11.7407 6.96889 6.54883 8.43853 1.70622 10.1316C1.13531 10.3348 0.564407 10.538 0.000219533 10.7615C0.000219533 10.7615 -0.107245 11.3778 4.43312 14.0665C8.97349 16.7551 12.8489 16.7551 18.296 15.6174C20.5528 15.1433 22.5476 15.0282 24.267 15.1162C25.2678 15.1704 26.1678 15.2923 26.9738 15.4548C26.0133 15.3329 25.1536 15.3194 24.3342 15.3871C22.4468 15.5496 20.7744 16.1863 18.6453 17.087C17.1341 17.7304 14.0109 19.9653 12.7818 20.9135C12.7818 20.9135 15.5422 22.7962 18.7662 23.1416C22.0438 23.4938 24.6901 20.8254 26.6111 19.7486C26.6514 19.7283 26.685 19.708 26.7185 19.6876C27.2223 19.4167 27.7059 19.2068 28.176 19.051C27.7395 19.3219 27.3297 19.6131 26.9469 19.9247C26.0872 20.6155 25.3484 21.3875 24.7506 22.1325C24.3812 22.593 24.0588 23.0062 23.7901 23.3719C23.7901 23.3719 25.9529 24.2591 28.3104 23.7376C29.2977 23.5209 30.144 23.0468 30.8559 22.5185C31.8365 21.7871 32.5485 20.9473 32.9448 20.5274C33.4686 19.9856 34.0664 19.4506 34.6508 19.0036L34.6642 19.0104C32.9515 20.4936 31.9574 22.207 31.6552 22.7894C31.635 22.8233 34.8254 23.3448 35.2015 23.3651C36.4373 23.4328 37.6799 23.2838 38.8687 22.9587C41.1994 22.3154 43.3554 20.9609 44.8733 19.051C47.2644 16.0644 47.889 12.1431 46.942 8.60106ZM40.6889 3.26434C40.5008 3.44043 40.212 3.42688 40.0374 3.24402C39.8628 3.05439 39.8762 2.76318 40.0643 2.58709C40.2523 2.41101 40.5411 2.42455 40.7158 2.60741C40.8837 2.79704 40.877 3.08826 40.6889 3.26434Z" fill="#AA7D54"/>
</svg>
