<svg width="145" height="59" viewBox="0 0 145 59" fill="none" xmlns="http://www.w3.org/2000/svg">
<g clip-path="url(#clip0)">
<path d="M35.4873 20.7793C35.3535 21.2676 35.2197 21.7558 35.0591 22.2441C34.952 22.5968 34.8182 22.9223 34.7112 23.2478C34.9253 22.434 35.1929 21.5931 35.4873 20.7793Z" fill="#3F3E3D"/>
<path d="M37.2804 50.9168L36.1564 54.1991H5.53989C6.55687 53.114 7.57385 52.0018 8.59083 50.9168C9.92896 49.4791 11.2939 48.0414 12.632 46.6037L19.7241 38.8455L23.23 34.9393L24.9696 32.9591C25.5316 32.2809 26.0668 31.7113 26.6289 30.8703C28.074 28.9172 29.4389 26.8556 30.563 24.6584C30.9644 23.8988 31.3391 23.085 31.6335 22.2713C31.9279 21.4846 32.1955 20.6708 32.4096 19.8299C32.5969 19.0703 32.7307 18.3108 32.811 17.5513C33.0787 15.0556 32.704 12.4244 31.5799 10.1457C30.5094 7.83999 28.6361 5.91402 26.388 4.74758C24.1399 3.55402 21.5707 3.20137 19.1086 3.337C16.6464 3.44551 14.1307 4.20505 12.07 5.64275C10.0093 7.08045 8.32321 9.08781 7.27946 11.3936C6.23572 13.6993 5.78076 16.1949 5.6737 18.6906L2.54248 18.5278H2.43542C2.43542 18.4736 2.43542 18.4193 2.43542 18.3379C2.56924 15.5982 3.07773 12.7499 4.33557 9.98298C4.97788 8.57241 5.78076 7.24321 6.79774 6.04965C7.78795 4.85608 8.93875 3.82528 10.2234 2.90298C12.8461 1.11264 16.0041 0.16321 18.9212 0.0275782C21.8116 -0.13518 24.9696 0.271716 27.8599 1.7908C29.3051 2.55034 30.5897 3.49976 31.7138 4.6662C32.8378 5.83264 33.8012 7.21608 34.4703 8.68091C35.1394 10.0372 35.5943 11.5292 35.8352 13.0211C35.862 13.0754 35.862 13.1568 35.862 13.211C35.3535 13.9434 34.8985 14.703 34.4703 15.4896C34.4703 15.5168 34.4435 15.5168 34.4435 15.5439C33.8548 16.629 33.3463 17.7411 32.8646 18.8805C32.8646 18.9347 32.8378 18.9618 32.811 18.989C31.3123 22.8409 30.7235 26.8285 30.8038 30.4906C30.7503 30.5719 30.6968 30.6533 30.6433 30.7076C30.1615 31.4129 29.653 32.1182 29.1713 32.7963L29.2784 32.6064C29.1178 32.8506 28.984 33.0676 28.8234 33.3117C28.6628 33.5287 28.6093 33.6101 28.529 33.6915L28.2881 33.9899C27.9937 34.3696 27.6726 34.7494 27.3782 35.1021L25.6119 37.1365L22.0792 41.097L14.9871 48.828C14.3448 49.5333 13.7025 50.2115 13.0602 50.9168H37.2804Z" fill="#3F3E3D"/>
<path d="M35.7549 55.3654L34.6309 58.6477H0V53.6021L3.66648 49.6959C5.59339 47.6343 7.49354 45.5727 9.42045 43.5111L16.4858 35.8072L19.9649 31.9281L21.651 30.0021C21.9454 29.6766 22.1595 29.3782 22.4271 29.0798L22.6144 28.8628C22.6412 28.8086 22.6947 28.7543 22.7215 28.7272L23.1229 28.1304C25.7992 24.4955 28.1008 20.6164 28.4219 17.0357C28.6093 15.2182 28.3416 13.5635 27.619 12.0173C27.2711 11.2849 26.8162 10.6339 26.2809 10.0642C25.7457 9.49455 25.0766 9.00627 24.3808 8.65363C22.9891 7.92122 21.2763 7.62283 19.3762 7.73133C17.5295 7.83984 15.9238 8.32811 14.5589 9.27754C13.8898 9.73869 13.2207 10.3355 12.6855 11.0136C12.1235 11.6647 11.6685 12.3971 11.3206 13.2109C10.5712 14.8113 10.1966 16.7644 10.1163 18.7989L6.85124 18.7175C6.95829 16.3575 7.38649 13.9975 8.34995 11.8817C9.28664 9.76581 10.8389 7.92122 12.7123 6.61915C14.6124 5.31708 16.8605 4.61179 19.1621 4.50329C21.4636 4.36765 23.8188 4.7203 25.826 5.77823C27.8599 6.83616 29.5192 8.54513 30.4827 10.6339C31.4729 12.7226 31.8475 15.0826 31.5799 17.4155C31.3391 19.7483 30.5629 21.9998 29.4657 24.0886C28.3952 26.2044 27.057 28.2118 25.6386 30.1106L25.5851 30.2191C25.2104 30.7888 24.5949 31.5212 24.0329 32.1451L22.32 34.1254L18.8141 38.0316L11.7756 45.7626C10.1966 47.4716 8.59081 49.1805 6.98505 50.8895C5.96807 51.9745 4.95109 53.0867 3.93411 54.1718H3.90735V55.3654H35.7549Z" fill="#3F3E3D"/>
<path d="M58.3693 4.99173C58.182 5.01885 57.9946 5.01885 57.8073 5.04598H57.7805C57.1917 5.10023 56.6297 5.15449 56.0409 5.26299C56.8171 5.15449 57.5932 5.07311 58.3693 5.04598V4.99173H58.3961H58.3693ZM58.1284 0.542991C57.9411 0.570118 57.7538 0.570118 57.5397 0.597244C56.5227 0.678624 55.5057 0.814256 54.5155 1.00414C55.3184 0.868509 56.148 0.732876 56.9776 0.678624C57.9679 0.570118 58.9581 0.542991 59.9751 0.542991C60.0018 0.542991 60.0553 0.542991 60.0821 0.542991V0.515865C59.4398 0.488739 58.7975 0.488739 58.1284 0.542991ZM54.8366 4.25931H54.8099C54.2211 4.36782 53.6591 4.47633 53.0971 4.61196C52.5618 4.77472 51.9998 4.93747 51.4645 5.12736L51.304 5.20874C52.2139 4.88322 53.1238 4.63908 54.0605 4.42207H54.0873C54.5155 4.31357 54.9704 4.23219 55.4254 4.15081C55.2381 4.17793 55.0507 4.23219 54.8366 4.25931Z" fill="#3F3E3D"/>
<path fill-rule="evenodd" clip-rule="evenodd" d="M107.854 25.7701C107.613 25.5802 107.184 25.4717 106.703 25.4717H100.922V32.199H102.474V29.5678H106.703C107.184 29.5678 107.613 29.5135 107.854 29.2694C108.094 29.0795 108.228 28.7268 108.228 28.2928V26.7737C108.228 26.3126 108.094 25.96 107.854 25.7701ZM106.729 27.9673C106.729 28.1572 106.676 28.32 106.622 28.4013C106.515 28.4556 106.328 28.537 106.007 28.537H102.501V26.6924H106.007C106.248 26.6924 106.435 26.6924 106.622 26.8009C106.676 26.9094 106.729 27.045 106.729 27.2349V27.9673Z" fill="#3F3E3D"/>
<path fill-rule="evenodd" clip-rule="evenodd" d="M114.624 29.6222H115.481C116.016 29.6222 116.444 29.568 116.685 29.3239C116.926 29.134 117.06 28.8356 117.06 28.3473V26.774C117.06 26.3399 116.926 25.9873 116.685 25.7974C116.444 25.6075 116.016 25.499 115.481 25.499H109.754V32.2264H111.333V29.6494H112.831L115.534 32.2264H117.756L114.624 29.6222ZM111.333 28.5643V26.6655H114.812C115.106 26.6655 115.294 26.6655 115.401 26.774C115.454 26.8825 115.508 27.0181 115.508 27.208V27.9947C115.508 28.1845 115.454 28.3473 115.401 28.4287C115.294 28.4829 115.106 28.5372 114.812 28.5372H111.333V28.5643Z" fill="#3F3E3D"/>
<path fill-rule="evenodd" clip-rule="evenodd" d="M119.415 32.3076V25.4717H126.293V26.6924H120.994V28.1572H124.072V29.3236H120.994V31.0326H126.346V32.3076H119.415Z" fill="#3F3E3D"/>
<path fill-rule="evenodd" clip-rule="evenodd" d="M133.813 26.6658H129.424V28.1306H133.653C134.322 28.1306 134.803 28.2662 134.991 28.429C135.232 28.6731 135.365 29.1072 135.365 29.7039V30.6262C135.365 31.2501 135.232 31.657 134.991 31.9012C134.75 32.1453 134.322 32.1996 133.653 32.1996H129.504C128.835 32.1996 128.407 32.0639 128.166 31.9012C127.925 31.657 127.872 31.223 127.872 30.6262V30.4364L129.264 30.138V30.9246H133.974V29.4055H129.745C129.076 29.4055 128.648 29.2699 128.407 29.0258C128.166 28.7816 128.059 28.4019 128.059 27.8051V27.0184C128.059 26.3945 128.166 25.9876 128.407 25.7977C128.648 25.5536 129.076 25.418 129.745 25.418H133.599C134.268 25.418 134.696 25.5536 134.937 25.7164C135.178 25.9605 135.312 26.3403 135.312 26.8828V27.0184L133.92 27.3168V26.6387H133.813V26.6658Z" fill="#3F3E3D"/>
<path fill-rule="evenodd" clip-rule="evenodd" d="M143.287 26.6658H138.898V28.1306H143.127C143.796 28.1306 144.224 28.2662 144.465 28.429C144.706 28.6731 144.759 29.1072 144.759 29.7039V30.6262C144.759 31.2501 144.652 31.657 144.465 31.9012C144.224 32.1453 143.796 32.1996 143.127 32.1996H138.978C138.309 32.1996 137.828 32.0639 137.64 31.9012C137.399 31.657 137.266 31.223 137.266 30.6262V30.4364L138.657 30.138V30.9246H143.421V29.4055H139.193C138.523 29.4055 138.095 29.2699 137.854 29.0258C137.614 28.7816 137.56 28.4019 137.56 27.8051V27.0184C137.56 26.3945 137.667 25.9876 137.854 25.7977C138.095 25.5536 138.523 25.418 139.193 25.418H143.046C143.662 25.418 144.063 25.5536 144.384 25.7164C144.625 25.9605 144.759 26.3403 144.759 26.8828V27.0184L143.368 27.3168V26.6387H143.287V26.6658Z" fill="#3F3E3D"/>
<path fill-rule="evenodd" clip-rule="evenodd" d="M91.1536 32.3076L94.2848 28.8354L91.0198 25.4717H93.134L95.3018 27.8046L97.3625 25.4717H99.1021L96.2117 28.6455L99.8247 32.3076H97.7104L95.2483 29.6763L92.9467 32.3076H91.1536Z" fill="#3F3E3D"/>
<path fill-rule="evenodd" clip-rule="evenodd" d="M56.3889 32.2812L52.4548 25.4453H54.2747L56.9777 30.3823L59.5737 25.4453H61.1527L57.4594 32.2812H56.3889Z" fill="#3F3E3D"/>
<path fill-rule="evenodd" clip-rule="evenodd" d="M61.902 32.3076V25.4717H62.919L67.6292 29.5135C67.8165 29.6492 67.9236 29.7577 68.0574 29.8933C68.1912 30.0289 68.2982 30.1374 68.4321 30.2731C68.3785 29.8933 68.3785 29.5949 68.3785 29.4864C68.3785 29.3508 68.3785 29.188 68.3785 29.1066V25.4717H69.7702V32.2533H68.6729L63.7218 28.0487C63.588 27.9131 63.481 27.8588 63.4274 27.7503C63.2936 27.6961 63.2401 27.6147 63.1866 27.5062C63.2401 27.7503 63.2401 27.9402 63.2401 28.1301C63.2936 28.32 63.2936 28.4285 63.2936 28.6184V32.2804H61.902V32.3076Z" fill="#3F3E3D"/>
<path d="M77.692 33.5281H86.7378V36.3221H74.3199V21.4297H86.5505V24.0067H77.692V27.0991H82.2684V30.2187L77.692 30.1644V33.5281Z" fill="#3F3E3D"/>
<path d="M88.3435 18.6904H72.6874C72.0718 18.6904 71.5901 19.1787 71.5901 19.8026V37.9231C71.5901 38.5199 72.0718 39.0353 72.6874 39.0353H88.3435C88.9323 39.0353 89.4408 38.547 89.4408 37.9231V19.7755C89.4408 19.1787 88.959 18.6904 88.3435 18.6904ZM87.8082 36.2684C87.8082 36.8652 87.3265 37.3534 86.711 37.3534H74.2931C73.7043 37.3534 73.2226 36.8652 73.2226 36.2684V21.4302C73.2226 20.8334 73.7043 20.318 74.2931 20.318H86.5236C87.1124 20.318 87.6209 20.8063 87.6209 21.4302V24.0615C87.6209 24.6582 87.1392 25.1737 86.5236 25.1737H78.816V26.0417H82.2416C82.8304 26.0417 83.3121 26.53 83.3121 27.1268V30.2463C83.3121 30.5447 83.2051 30.8431 83.0177 31.033C82.8304 31.2228 82.536 31.3314 82.2416 31.3314H78.816V32.3622H86.711C87.2998 32.3622 87.8082 32.8504 87.8082 33.4743V36.2684Z" fill="#3F3E3D"/>
<path fill-rule="evenodd" clip-rule="evenodd" d="M86.7378 33.5281V36.3221H74.3199V21.4297H86.5505V24.0067H77.692V27.0991H82.2684V30.2187L77.692 30.1644V33.5281H86.7378Z" fill="#3F3E3D"/>
<path d="M86.7378 33.5281V36.3221H74.3199V21.4297H86.5505V24.0067H77.692V27.0991H82.2684V30.2187L77.692 30.1644V33.5281H86.7378Z" fill="#3F3E3D"/>
<path fill-rule="evenodd" clip-rule="evenodd" d="M86.7378 33.5281V36.3221H74.3199V21.4297H86.5505V24.0067H77.692V27.0991H82.2684V30.2187L77.692 30.1644V33.5281H86.7378Z" fill="#3F3E3D"/>
<path d="M55.2113 5.39839C55.4789 5.34414 55.7733 5.31701 56.0677 5.26276C55.7733 5.28988 55.5057 5.34414 55.2113 5.39839ZM54.3013 1.03103C54.1943 1.05816 54.0872 1.05816 53.9802 1.08529C53.4182 1.19379 52.8562 1.3023 52.2941 1.43793C52.1068 1.49218 51.9195 1.54643 51.7321 1.60069L51.6786 1.62781C51.1166 1.79057 50.5278 1.98046 49.9658 2.17034C49.0023 2.52299 48.0656 2.90276 47.129 3.33678L47.1825 3.36391C47.8783 3.03839 48.5741 2.71287 49.2967 2.44161C49.377 2.41448 49.4305 2.38735 49.5108 2.36023C49.6714 2.30598 49.832 2.2246 50.0193 2.17034C51.0898 1.79057 52.1603 1.49218 53.2844 1.24804C53.3111 1.24804 53.3379 1.24804 53.3379 1.22092C53.7126 1.13954 54.0872 1.05816 54.4619 1.00391C54.4352 1.00391 54.3549 1.00391 54.3013 1.03103ZM46.9684 7.21586L46.8613 7.27011C46.9684 7.21586 47.1022 7.13448 47.2092 7.08023C47.3163 7.02598 47.4233 6.97172 47.5036 6.91747C47.5839 6.86322 47.6642 6.83609 47.7445 6.78184C47.8515 6.72758 47.9854 6.6462 48.0924 6.59195C49.0023 6.1308 49.939 5.72391 50.9025 5.34414C50.956 5.31701 51.0363 5.28988 51.1166 5.26276C51.1701 5.23563 51.2504 5.2085 51.3039 5.2085L51.2504 5.23563L46.9684 7.21586Z" fill="#3F3E3D"/>
<path d="M52.9098 54.7686C53.5789 54.9584 54.2479 55.1212 54.917 55.2297C55.5325 55.3382 56.1213 55.4467 56.7368 55.501C57.9412 55.6366 59.1455 55.6908 60.3498 55.6637C57.9679 55.7451 55.4255 55.4738 52.9098 54.7686Z" fill="#3F3E3D"/>
<path d="M122.145 35.4541L120.673 37.1359L119.201 35.4541H117.863L119.843 37.5971L120.084 37.8412V39.7943H121.101V37.8141L121.128 37.787L123.295 35.4541H122.145Z" fill="#3F3E3D"/>
<path d="M124.741 39.0077V37.9226H126.721V37.1631H124.741V36.1865H128.14V35.4541H123.75V39.7943H128.193V38.9805H124.741V39.0077Z" fill="#3F3E3D"/>
<path d="M134.054 39.1433L133.385 37.9769L131.967 35.4541H131.003L129.611 37.9769L128.969 39.1433L128.594 39.8215H129.585L129.933 39.1433L130.04 38.9534L130.093 38.872H132.823L132.984 39.1433L133.358 39.8215H134.482L134.054 39.1433ZM130.495 38.0854L130.548 37.9769L131.458 36.3221L132.314 37.9769L132.368 38.0854H130.495Z" fill="#3F3E3D"/>
<path d="M139.166 39.1433L137.988 38.1667H138.55C138.871 38.1667 139.112 38.1125 139.273 37.9769C139.433 37.8412 139.514 37.6242 139.514 37.3258V36.295C139.514 35.6982 139.192 35.4541 138.55 35.4541H134.884V39.7943H135.874V38.1667H136.811L137.828 39.1433L138.523 39.8215H139.942L139.166 39.1433ZM135.874 36.2136H138.122C138.443 36.2136 138.577 36.2679 138.577 36.5663V37.0817C138.577 37.3801 138.443 37.4343 138.122 37.4343H135.874V36.2136Z" fill="#3F3E3D"/>
<path d="M144.973 37.9771C144.92 37.326 144.652 37.1633 143.903 37.1633H141.226V36.241H144.037V36.7293L144.92 36.5123V36.4309C144.92 35.6713 144.625 35.4814 143.849 35.4814H141.414C140.611 35.4814 140.343 35.6985 140.343 36.5123V37.0005C140.343 37.6516 140.504 37.9228 141.012 38.0042C141.119 38.0313 141.253 38.0313 141.414 38.0313H144.09V39.035H141.066V38.5196L140.183 38.7095V38.818C140.183 38.9536 140.183 39.0621 140.21 39.1706C140.29 39.686 140.584 39.8488 141.253 39.8488H143.903C144.572 39.8488 144.866 39.7132 144.946 39.1706C144.973 39.0621 144.973 38.9536 144.973 38.818V38.2212C145 38.1127 144.973 38.0313 144.973 37.9771Z" fill="#3F3E3D"/>
<path d="M74.9622 8.95134C75.0157 8.97847 75.0692 9.03272 75.1227 9.05985V8.95134H74.9622ZM74.9622 8.95134C75.0157 8.97847 75.0692 9.03272 75.1227 9.05985V8.95134H74.9622ZM74.9622 8.95134C75.0157 8.97847 75.0692 9.03272 75.1227 9.05985V8.95134H74.9622ZM82.3754 4.82812V5.91318H83.4459V4.82812H82.3754ZM76.3003 12.4778L76.2735 14.3495L78.1201 14.3766L78.1469 12.4778H76.3003ZM74.9622 8.95134C75.0157 8.97847 75.0692 9.03272 75.1227 9.05985V8.95134H74.9622ZM74.9622 8.95134C75.0157 8.97847 75.0692 9.03272 75.1227 9.05985V8.95134H74.9622ZM74.9622 8.95134C75.0157 8.97847 75.0692 9.03272 75.1227 9.05985V8.95134H74.9622Z" fill="#3F3E3D"/>
<path d="M76.3084 12.4613L76.295 14.333L78.1417 14.3466L78.1551 12.4749L76.3084 12.4613Z" fill="#3F3E3D"/>
<path d="M80.2879 6.48296L80.2611 9.27699V10.2807V10.4434H79.9132L76.7552 10.4163H76.3538V10.0637L76.3805 6.42871L77.0764 6.45584L80.2879 6.48296Z" fill="#3F3E3D"/>
<path d="M75.1227 8.95193V9.06044L75.0959 10.5524V10.9864V11.7731L72.3126 11.746V11.3119L72.3394 8.9248H72.9014L74.9621 8.95193H75.1227Z" fill="#3F3E3D"/>
<path d="M83.4459 4.82812H82.3754V5.91318H83.4459V4.82812Z" fill="#3F3E3D"/>
<path d="M48.1192 6.59187C48.0122 6.64612 47.8784 6.70037 47.7713 6.78175C47.584 6.89026 47.3966 6.97164 47.2361 7.08014L47.2896 7.05302L50.9293 5.37118C49.9659 5.72382 49.0292 6.13072 48.1192 6.59187ZM47.1558 3.30957C46.3261 3.71647 45.5233 4.15049 44.7471 4.63877C44.533 4.7744 44.3457 4.91003 44.1316 5.04566C44.2654 4.96428 44.3992 4.8829 44.5063 4.80152C45.3627 4.28612 46.2458 3.79785 47.129 3.39095L47.1558 3.30957Z" fill="#3F3E3D"/>
<path d="M41.6695 18.365C41.5089 18.6091 41.3751 18.8804 41.2413 19.1517C41.2145 19.2059 41.1877 19.233 41.161 19.2873C41.1342 19.3415 41.1075 19.3958 41.0807 19.4501C41.4286 18.799 41.83 18.148 42.2315 17.5512C42.0441 17.8225 41.8568 18.0937 41.6695 18.365ZM48.039 7.89419C48.8151 7.4873 49.618 7.10753 50.4208 6.78201V6.75488C49.618 7.0804 48.8151 7.46017 48.039 7.89419Z" fill="#3F3E3D"/>
<path d="M75.2031 44.3521L75.1763 44.3792C73.0353 46.6849 70.1985 48.6652 66.8264 49.913C63.4543 51.1065 59.5737 51.5134 55.7466 50.7539C55.0776 50.6454 54.4085 50.4555 53.7394 50.2656C52.5084 49.8858 51.304 49.3976 50.1532 48.8279C49.056 48.2583 48.0122 47.5801 47.022 46.8206L46.9953 46.7934C46.8614 46.6849 46.7276 46.6035 46.5938 46.495C46.5671 46.4679 46.5135 46.4408 46.4868 46.4137C46.353 46.3052 46.2459 46.2238 46.1388 46.1153C46.1121 46.0881 46.0853 46.061 46.0586 46.061C45.7642 45.8169 45.4965 45.5727 45.2022 45.3015C43.7034 43.8638 42.4456 42.2091 41.4019 40.3916C40.9737 39.632 40.6257 38.8725 40.2778 38.0587C40.1708 37.8146 40.0637 37.5704 39.9834 37.3263C39.7693 36.7295 39.582 36.1327 39.3947 35.536C39.3679 35.4817 39.3679 35.4275 39.3411 35.3732C39.2609 35.0748 39.1806 34.8035 39.1003 34.5323C39.0468 34.1796 38.9665 33.827 38.9129 33.4743C38.7791 32.6877 38.6721 31.8739 38.6185 31.0601C38.5115 29.4325 38.565 27.7778 38.8326 26.1231C39.127 24.2242 39.7693 22.3525 40.5455 20.5622C40.5722 20.5079 40.599 20.4537 40.599 20.3994C40.706 20.1553 40.8398 19.9111 40.9737 19.667C41.0004 19.6127 41.0272 19.5314 41.0807 19.4771C41.1075 19.4229 41.1342 19.3686 41.161 19.3143C41.1878 19.2601 41.2145 19.2058 41.2413 19.1787C41.3751 18.9075 41.5357 18.6633 41.6695 18.3921C41.8568 18.1208 42.0442 17.8495 42.2315 17.5783C42.2315 17.5511 42.2583 17.5511 42.2583 17.524C42.7132 16.873 43.195 16.2219 43.7302 15.598C43.757 15.5709 43.7837 15.5166 43.8373 15.4895C43.864 15.4624 43.8908 15.4353 43.8908 15.4081C43.8908 15.4081 43.8908 15.381 43.9176 15.381C44.9345 14.2417 46.0586 13.1838 47.3432 12.2615C48.1193 11.6918 48.9489 11.1764 49.8321 10.7153H49.8589C50.635 10.3084 51.4646 9.95573 52.2675 9.60308C52.3745 9.54883 52.4816 9.52171 52.5886 9.46745C53.4183 9.16906 54.2747 8.92492 55.1579 8.73504C55.5325 8.65366 55.9072 8.57228 56.2819 8.51803H56.3354C56.8439 8.43665 57.3256 8.35527 57.8341 8.32814C57.9947 8.30102 58.182 8.30101 58.3426 8.27389C58.4229 8.27389 58.4764 8.24676 58.5567 8.24676C59.092 8.21964 59.654 8.21964 60.1892 8.24676H60.216C61.7147 8.30101 63.2134 8.4909 64.6854 8.84354C66.1038 9.19619 67.4687 9.71159 68.78 10.3355C69.3421 10.6068 69.9041 10.9052 70.4393 11.2035C70.5731 11.2849 70.707 11.3663 70.8408 11.4477V11.4206V10.1185L70.8675 7.67711C70.2788 7.37872 69.6632 7.08033 69.0477 6.83619C67.8701 6.32079 66.6926 5.91389 65.4615 5.6155C63.8022 5.23573 62.1161 4.99159 60.4301 4.93734C60.4301 4.93734 60.4301 4.93734 60.4033 4.93734C59.9751 4.91021 59.5202 4.91021 59.092 4.93734C58.8511 4.93734 58.637 4.93734 58.3961 4.96446V4.99159C57.62 5.01872 56.8439 5.1001 56.0678 5.2086C55.7734 5.26285 55.479 5.28998 55.2114 5.34423C55.1311 5.37136 55.0508 5.37136 54.9705 5.39849C54.5958 5.45274 54.2479 5.53412 53.8733 5.6155C53.7127 5.64262 53.5789 5.66975 53.4183 5.724C52.4013 6.02239 51.4111 6.34791 50.4476 6.75481C49.6448 7.08033 48.8419 7.4601 48.0658 7.86699C48.0122 7.89412 47.9587 7.92124 47.9052 7.94837C47.5305 8.13826 47.1826 8.35527 46.8347 8.54515C44.8275 9.84722 42.9541 11.3663 41.3751 13.1566C39.8229 14.947 38.4847 16.9272 37.4945 19.0431C36.5578 21.1861 35.8085 23.3833 35.4606 25.6348C35.2465 26.9911 35.1394 28.3475 35.1394 29.7038V29.8394C35.1394 30.0293 35.1394 30.2192 35.1394 30.4091C35.1929 31.5755 35.3 32.7419 35.4873 33.9084C35.4873 33.9626 35.5141 34.0169 35.5141 34.044C35.6479 34.8578 35.8352 35.6716 36.0493 36.4583V36.4854C36.3437 37.4619 36.6649 38.4114 37.0395 39.3608C38.5383 42.9144 40.7596 45.8983 43.2485 48.1498C45.7909 50.4284 48.5743 51.9746 51.197 52.9511V52.9783C51.4111 53.0596 51.652 53.141 51.8661 53.2224C52.883 53.575 53.9 53.8463 54.9438 54.0362C56.1213 54.2532 57.3256 54.3888 58.5032 54.4431C59.1455 54.4702 59.761 54.4702 60.4033 54.4431C60.6174 54.4431 60.8583 54.416 61.0724 54.416C62.6514 54.3346 64.1501 54.0904 65.5685 53.7378C65.8094 53.6835 66.0235 53.6293 66.2644 53.5479C67.6293 53.1681 68.8871 52.6799 70.0379 52.1373C70.252 52.0288 70.4661 51.9475 70.6802 51.8389C71.6437 51.3507 72.5536 50.8353 73.4367 50.2114C74.427 49.5061 75.3637 48.7737 76.2468 47.9599C76.7018 47.5258 77.1568 47.0647 77.585 46.6035L75.2031 44.3521Z" fill="#3F3E3D"/>
<path d="M78.6019 51.9199C76.113 54.09 73.0888 55.9346 69.7167 57.2096C69.6097 57.2367 69.5026 57.2909 69.4224 57.3181C66.6123 58.3217 63.5078 58.9185 60.3498 58.9728H60.3231C60.0019 58.9999 59.6808 58.9999 59.3596 58.9999C58.5835 58.9999 57.8074 58.9728 57.0313 58.8914C56.041 58.81 55.0508 58.6744 54.0606 58.4845C53.3112 58.3489 52.5887 58.159 51.8661 57.9691C51.0899 57.7521 50.3138 57.4808 49.5377 57.2096C49.3236 57.1282 49.0827 57.0468 48.8686 56.9654L48.8954 56.9383C46.0318 55.799 43.0344 54.0629 40.2778 51.5673C37.3875 48.9631 34.8183 45.4909 33.0519 41.3948C33.0252 41.3677 33.0252 41.3135 32.9984 41.2863C32.5167 40.147 32.1152 38.9806 31.7673 37.787C31.7673 37.7599 31.7673 37.7599 31.7673 37.7328C31.5264 36.8376 31.3123 35.9153 31.1518 34.993C30.9109 33.5824 30.7503 32.1719 30.6968 30.7613C30.6968 30.5443 30.67 30.3544 30.67 30.1645C30.67 30.1102 30.67 30.0289 30.67 29.9746C30.67 29.6491 30.67 29.3236 30.67 29.0252C30.67 28.9981 30.67 28.9981 30.67 28.9981C30.67 28.6454 30.6968 28.3199 30.7236 27.9673C30.7771 26.9907 30.8841 26.0142 31.0447 25.0105C31.1785 24.0882 31.3926 23.193 31.6335 22.2978C31.8476 21.484 32.1152 20.6702 32.4096 19.8836C32.7308 18.9884 33.0787 18.0932 33.4801 17.2252C34.1492 15.7875 34.9521 14.404 35.862 13.102C36.5311 12.1254 37.2804 11.176 38.0565 10.2808C39.7961 8.32771 41.8301 6.61875 44.0246 5.15392C44.0514 5.12679 44.1049 5.09967 44.1317 5.07254C44.2655 4.99116 44.3993 4.90978 44.5063 4.8284C45.3627 4.313 46.2459 3.82473 47.1291 3.41783L47.1826 3.44496C47.8784 3.11944 48.5743 2.79392 49.2968 2.52266C49.3771 2.49553 49.4307 2.4684 49.5109 2.44128C49.6715 2.38702 49.8321 2.30565 50.0194 2.25139C51.0899 1.87162 52.1605 1.57323 53.2845 1.32909C53.3112 1.32909 53.338 1.32909 53.338 1.30197C53.7127 1.22059 54.0874 1.13921 54.462 1.08496H54.4888C55.2917 0.949323 56.1213 0.813691 56.951 0.759438C57.9412 0.650933 58.9314 0.623806 59.9484 0.623806C59.9751 0.623806 60.0287 0.623806 60.0554 0.623806V0.59668C60.1625 0.59668 60.2695 0.59668 60.3766 0.59668C60.4836 0.59668 60.5907 0.59668 60.6977 0.59668C62.6246 0.678059 64.5516 0.949323 66.4249 1.38335C66.4517 1.38335 66.4785 1.41047 66.5052 1.41047C66.7461 1.46473 66.9602 1.51898 67.2011 1.60036C67.8166 1.76312 68.4321 1.98013 69.0477 2.19714C70.0914 2.57691 71.1084 3.01093 72.0986 3.49921C72.5803 3.74335 73.0621 3.98748 73.517 4.23162C73.5706 4.25875 73.6241 4.28588 73.6776 4.313H73.7044C73.8917 4.39438 74.0523 4.50289 74.2129 4.61139L74.1593 7.21553H73.9185L72.3662 7.16128H72.1254H72.0719C71.7507 6.97139 71.4296 6.78151 71.1084 6.61875C71.1084 6.61875 71.0816 6.61875 71.0816 6.59162C70.9211 6.51024 70.6267 6.34748 70.4661 6.26611C70.1182 6.07622 69.5829 5.88633 69.0209 5.66932C68.9674 5.6422 68.9139 5.61507 68.8603 5.61507C68.6998 5.56082 68.5392 5.50656 68.3518 5.42519C67.9504 5.28955 67.549 5.15392 67.1743 5.01829C66.987 4.96404 66.7729 4.88266 66.5855 4.8284C66.5052 4.80128 66.3982 4.77415 66.3179 4.74702C66.1841 4.7199 66.0503 4.66565 65.9432 4.63852C65.9164 4.63852 65.8897 4.61139 65.8629 4.61139C64.7924 4.34013 63.7219 4.12312 62.6514 3.98748C61.8218 3.90611 60.9921 3.85185 60.1625 3.82473C59.9216 3.7976 59.6808 3.7976 59.4667 3.7976C59.0652 3.7976 58.6638 3.7976 58.2356 3.82473C57.9947 3.85185 57.7538 3.85185 57.5397 3.87898C57.0045 3.93323 56.4425 3.98748 55.9072 4.06886C55.8002 4.09599 55.6664 4.09599 55.5593 4.12312C55.5058 4.12312 55.4255 4.15024 55.3452 4.15024C55.1579 4.17737 54.9438 4.2045 54.7564 4.25875H54.7297C54.1409 4.36725 53.5789 4.47576 53.0169 4.61139C52.4816 4.77415 51.9196 4.93691 51.3843 5.12679L51.2238 5.20817C51.1702 5.2353 51.1167 5.26243 51.0364 5.26243C50.9561 5.28955 50.9026 5.31668 50.8223 5.34381C49.8589 5.72358 48.9222 6.13047 48.0122 6.59162C47.9052 6.64587 47.7714 6.70013 47.6643 6.78151C47.584 6.83576 47.5037 6.86289 47.4235 6.91714C47.3164 6.97139 47.2094 7.02565 47.1291 7.0799C46.9953 7.13415 46.8882 7.21553 46.7812 7.26978C46.0586 7.67668 45.3895 8.13783 44.7204 8.6261C43.7035 9.35852 42.74 10.1723 41.8568 11.0404C41.6695 11.2302 41.4822 11.4201 41.2948 11.61C41.054 11.8542 40.8398 12.0983 40.599 12.3424L40.5722 12.3696C40.5187 12.4238 40.4652 12.4781 40.4384 12.5323C39.8496 13.2105 39.2876 13.9429 38.7524 14.6753C38.6988 14.7296 38.6721 14.7838 38.6453 14.8381C38.3777 15.2178 38.1101 15.5976 37.8692 15.9774C37.6551 16.33 37.4678 16.7098 37.2537 17.0624C37.2537 17.0896 37.2269 17.1167 37.2269 17.1167C36.8522 17.7677 36.5311 18.4459 36.2367 19.124C36.2367 19.1512 36.2099 19.1783 36.2099 19.2054C36.1029 19.4496 35.9958 19.7208 35.8888 19.965C35.862 20.0192 35.862 20.0463 35.8352 20.1006C35.4873 21.0229 35.1662 21.9723 34.8985 22.9217C34.6844 23.7355 34.4971 24.5493 34.3901 25.3631C34.3901 25.4174 34.3633 25.4716 34.3633 25.5259C34.3365 25.6344 34.3365 25.7429 34.3098 25.8243C34.3098 25.8785 34.283 25.9328 34.283 25.987C34.283 26.0413 34.2562 26.1227 34.2562 26.1769C34.1224 27.1535 34.0421 28.1571 34.0421 29.1337V29.2965C34.0421 29.3778 34.0421 29.4592 34.0421 29.5677C34.0421 29.6762 34.0421 29.8119 34.0421 29.9204C34.0689 31.2767 34.176 32.6059 34.3901 33.9351C34.3901 33.9893 34.4168 34.0707 34.4168 34.125C34.4703 34.4776 34.5506 34.8302 34.6042 35.1829C34.6042 35.1829 34.6042 35.1829 34.6042 35.21C34.6309 35.3185 34.6309 35.3999 34.6577 35.5084C34.6844 35.5898 34.7112 35.6983 34.738 35.7797C34.8183 36.1052 34.8985 36.4036 35.0056 36.7291C35.0056 36.7562 35.0056 36.7833 35.0324 36.7833C35.2465 37.5158 35.4606 38.2211 35.7282 38.9263C35.8352 39.2247 35.9423 39.496 36.0761 39.7673C36.4775 40.7438 36.9325 41.6932 37.441 42.6155C38.6185 44.6229 40.0102 46.4675 41.616 48.1222C41.6963 48.2036 41.7765 48.285 41.8836 48.3935C41.9371 48.4477 42.0174 48.5291 42.0709 48.5834C42.0977 48.6105 42.1245 48.6105 42.1245 48.6376C43.6499 50.0482 45.2824 51.296 47.0488 52.2997C47.3699 52.4896 47.7179 52.6794 48.0658 52.8693C48.1728 52.9236 48.2799 52.9778 48.3869 53.0321C48.5475 53.1135 48.6813 53.1677 48.8419 53.2491C48.8419 53.2491 48.8686 53.2491 48.8686 53.2762C49.2701 53.4661 49.6983 53.656 50.1265 53.8187C50.2335 53.873 50.3674 53.9273 50.5012 53.9544C50.5815 53.9815 50.6617 54.0086 50.7153 54.0358C50.8223 54.09 50.9561 54.1171 51.0632 54.1714C51.1702 54.2256 51.2773 54.2528 51.3843 54.2799C51.8125 54.4427 52.2407 54.5783 52.6689 54.7139C52.7225 54.741 52.776 54.741 52.8563 54.7682C53.5253 54.9581 54.1944 55.1208 54.8635 55.2293C55.479 55.3378 56.0678 55.4463 56.6833 55.5006C57.8877 55.6362 59.092 55.6905 60.2963 55.6633C61.5541 55.6362 62.812 55.5006 64.0163 55.3107C64.7657 55.1751 65.4882 55.0394 66.2108 54.8496C66.9067 54.6597 67.6025 54.4427 68.2983 54.1985C71.2957 53.1135 73.9452 51.513 76.1665 49.6413L78.6019 51.9199Z" fill="#3F3E3D"/>
<path d="M82.8572 8.08398H81.6528V9.30467H82.8572V8.08398Z" fill="#3F3E3D"/>
</g>
<defs>
<clipPath id="clip0">
<rect width="145" height="59" fill="white"/>
</clipPath>
</defs>
</svg>
