<svg width="170" height="36" viewBox="0 0 170 36" fill="none" xmlns="http://www.w3.org/2000/svg">
<path fill-rule="evenodd" clip-rule="evenodd" d="M95.0938 14.2275H88.9313V17.415H95.0938C95.6251 17.415 95.9438 17.3088 96.1563 17.2025C96.2626 17.0963 96.3688 16.7775 96.3688 16.4588V15.1838C96.3688 14.865 96.2626 14.6525 96.1563 14.44C95.8376 14.2275 95.5188 14.2275 95.0938 14.2275ZM86.1688 24.0025V12.1025H96.3688C97.2188 12.1025 97.9626 12.315 98.3876 12.6338C98.8126 12.9525 99.0251 13.59 99.0251 14.3338V16.99C99.0251 17.7338 98.8126 18.3713 98.3876 18.69C97.9626 19.115 97.2188 19.2213 96.3688 19.2213H88.9313V23.79H86.1688V24.0025Z" fill="#3F3E3D"/>
<path fill-rule="evenodd" clip-rule="evenodd" d="M112.094 14.2275H105.931V17.5213H112.094C112.625 17.5213 112.944 17.415 113.156 17.3088C113.263 17.2025 113.369 16.8838 113.369 16.565V15.1838C113.369 14.865 113.263 14.6525 113.156 14.44C112.944 14.2275 112.625 14.2275 112.094 14.2275ZM103.169 24.0025V12.1025H113.263C114.219 12.1025 114.963 12.315 115.388 12.6338C115.813 12.9525 116.025 13.59 116.025 14.3338V17.0963C116.025 17.9463 115.813 18.4775 115.388 18.7963C114.963 19.2213 114.219 19.3275 113.263 19.3275H111.775L117.3 23.79H113.369L108.588 19.3275H105.931V23.79H103.169V24.0025Z" fill="#3F3E3D"/>
<path fill-rule="evenodd" clip-rule="evenodd" d="M121.656 24.0025V12.1025H133.769V14.2275H124.419V16.7775H129.837V18.7963H124.419V21.7713H133.875V24.0025H121.656Z" fill="#3F3E3D"/>
<path fill-rule="evenodd" clip-rule="evenodd" d="M149.281 14.2275H141.525V16.7775H148.963C150.131 16.7775 150.981 16.99 151.3 17.3088C151.725 17.7338 151.938 18.4775 151.938 19.54V21.1338C151.938 22.1963 151.725 22.94 151.3 23.365C150.875 23.79 150.131 23.8963 148.963 23.8963H141.631C140.463 23.8963 139.719 23.6838 139.294 23.365C138.869 22.94 138.763 22.1963 138.763 21.1338V20.815L141.206 20.2838V21.665H149.494V19.0088H142.056C140.888 19.0088 140.144 18.7963 139.719 18.3713C139.294 17.9463 139.081 17.3088 139.081 16.2463V14.865C139.081 13.8025 139.294 13.0588 139.719 12.74C140.144 12.315 140.888 12.1025 142.056 12.1025H148.856C150.025 12.1025 150.769 12.315 151.194 12.6338C151.619 13.0588 151.831 13.6963 151.831 14.6525V14.865L149.388 15.3963V14.2275H149.281Z" fill="#3F3E3D"/>
<path fill-rule="evenodd" clip-rule="evenodd" d="M167.45 14.2275H159.694V16.7775H167.131C168.3 16.7775 169.044 16.99 169.469 17.3088C169.894 17.7338 170 18.4775 170 19.54V21.1338C170 22.1963 169.788 22.94 169.469 23.365C169.044 23.79 168.3 23.8963 167.131 23.8963H159.8C158.631 23.8963 157.781 23.6838 157.463 23.365C157.038 22.94 156.825 22.1963 156.825 21.1338V20.815L159.269 20.2838V21.665H167.663V19.0088H160.225C159.056 19.0088 158.313 18.7963 157.888 18.3713C157.463 17.9463 157.356 17.3088 157.356 16.2463V14.865C157.356 13.8025 157.569 13.0588 157.888 12.74C158.313 12.315 159.056 12.1025 160.225 12.1025H167.025C168.088 12.1025 168.831 12.315 169.363 12.6338C169.788 13.0588 170 13.6963 170 14.6525V14.865L167.556 15.3963V14.2275H167.45Z" fill="#3F3E3D"/>
<path fill-rule="evenodd" clip-rule="evenodd" d="M68.4249 24.0025L73.9499 17.9463L68.2124 12.1025H71.9312L75.7562 16.14L79.3687 12.1025H82.4499L77.3499 17.6275L83.7249 24.0025H80.0062L75.6499 19.4338L71.6124 24.0025H68.4249Z" fill="#3F3E3D"/>
<path fill-rule="evenodd" clip-rule="evenodd" d="M6.90625 24.003L0 12.103H3.1875L7.96875 20.7093L12.5375 12.103H15.3L8.81875 24.003H6.90625Z" fill="#3F3E3D"/>
<path fill-rule="evenodd" clip-rule="evenodd" d="M17.3188 24.0025V12.1025H19.1251L27.4126 19.115C27.7313 19.3275 27.9438 19.54 28.1563 19.7525C28.3688 19.965 28.5813 20.1775 28.7938 20.39C28.6876 19.7525 28.6876 19.2213 28.6876 19.0088C28.6876 18.7963 28.6876 18.4775 28.6876 18.3713V12.1025H31.1313V23.8963H29.2188L20.5063 16.565C20.2938 16.3525 20.0813 16.2463 19.9751 16.0338C19.7626 15.9275 19.6563 15.8213 19.5501 15.6088C19.6563 16.0338 19.6563 16.3525 19.6563 16.6713C19.7626 16.99 19.7626 17.2025 19.7626 17.5213V23.8963H17.3188V24.0025Z" fill="#3F3E3D"/>
<path d="M63.9624 0.309326H36.3374C35.2749 0.309326 34.4249 1.15933 34.4249 2.22183V33.7781C34.4249 34.8406 35.2749 35.6906 36.3374 35.6906H63.9624C65.0249 35.6906 65.8749 34.8406 65.8749 33.7781V2.22183C65.8749 1.15933 65.0249 0.309326 63.9624 0.309326Z" fill="#9F224E"/>
<path fill-rule="evenodd" clip-rule="evenodd" d="M45.1563 20.2846V26.1283H61.0938V31.0158H39.2063V5.09082H60.775V9.55332H45.1563V14.9721H53.2313V20.3908L45.1563 20.2846Z" fill="white"/>
<path d="M61.0938 24.1095H47.1751V22.3032H53.2313C53.7626 22.3032 54.2938 22.0907 54.6126 21.772C54.9313 21.4532 55.1438 20.922 55.1438 20.3907V14.972C55.1438 13.9095 54.2938 13.0595 53.2313 13.0595H47.1751V11.572H60.7751C61.8376 11.572 62.6876 10.722 62.6876 9.65947V5.09072C62.6876 4.02822 61.8376 3.17822 60.7751 3.17822H39.2063C38.1438 3.17822 37.2938 4.02822 37.2938 5.09072V30.9095C37.2938 31.972 38.1438 32.822 39.2063 32.822H61.0938C62.1563 32.822 63.0063 31.972 63.0063 30.9095V26.022C63.0063 24.9595 62.1563 24.1095 61.0938 24.1095Z" fill="white"/>
<path fill-rule="evenodd" clip-rule="evenodd" d="M45.1562 20.2843V26.1281H61.0937V31.0156H39.2062V5.09058H60.7749V9.55308H45.1562V14.9718H53.2312V20.3906L45.1562 20.2843Z" fill="#9F224E"/>
</svg>
