<svg width="156" height="168" viewBox="0 0 156 168" fill="none" xmlns="http://www.w3.org/2000/svg">
<path d="M33.4498 113.918L70.75 90.5691L62.1171 114.119L49.3759 113.302C49.3759 113.302 48.523 113.317 47.7494 113.258L33.4498 113.918Z" fill="url(#paint0_linear)"/>
<path d="M90.6855 35.6042L29.68 37.7102L73.9418 81.6054L90.6855 35.6042Z" fill="url(#paint1_linear)"/>
<path d="M103.711 57.3458L135.066 28.5218L122.692 88.3325L103.711 57.3458Z" fill="url(#paint2_linear)"/>
<path d="M135.057 28.5549L131.65 44.7997L153.415 43.405L135.057 28.5549Z" fill="url(#paint3_linear)"/>
<path d="M70.7578 90.5393L16.5803 138.017L62.1173 114.119L70.7578 90.5393Z" fill="url(#paint4_linear)"/>
<path d="M90.8173 35.8011L31.2656 10.5132L74.0114 81.6889L90.8173 35.8011Z" fill="url(#paint5_linear)"/>
<path d="M122.719 88.3404L62.1172 114.118L90.8172 35.801L122.719 88.3404Z" fill="url(#paint6_linear)"/>
<defs>
<linearGradient id="paint0_linear" x1="59.4606" y1="102.773" x2="19.7758" y2="105.036" gradientUnits="userSpaceOnUse">
<stop stop-color="white"/>
<stop offset="1" stop-color="#9FC0BD"/>
</linearGradient>
<linearGradient id="paint1_linear" x1="77.2149" y1="54.5927" x2="32.0449" y2="11.6609" gradientUnits="userSpaceOnUse">
<stop stop-color="white"/>
<stop offset="1" stop-color="#9FC0BD"/>
</linearGradient>
<linearGradient id="paint2_linear" x1="146.609" y1="25.7618" x2="64.6364" y2="129.959" gradientUnits="userSpaceOnUse">
<stop stop-color="white"/>
<stop offset="1" stop-color="#9FC0BD"/>
</linearGradient>
<linearGradient id="paint3_linear" x1="153.67" y1="42.4034" x2="132.869" y2="37.1084" gradientUnits="userSpaceOnUse">
<stop stop-color="white"/>
<stop offset="1" stop-color="#9FC0BD"/>
</linearGradient>
<linearGradient id="paint4_linear" x1="16.3574" y1="137.679" x2="71.1034" y2="102.8" gradientUnits="userSpaceOnUse">
<stop stop-color="white"/>
<stop offset="1" stop-color="#9FC0BD"/>
</linearGradient>
<linearGradient id="paint5_linear" x1="89.7555" y1="33.7791" x2="30.1455" y2="51.6226" gradientUnits="userSpaceOnUse">
<stop stop-color="white"/>
<stop offset="1" stop-color="#9FC0BD"/>
</linearGradient>
<linearGradient id="paint6_linear" x1="84.5221" y1="131.015" x2="105.774" y2="50.3477" gradientUnits="userSpaceOnUse">
<stop stop-color="white"/>
<stop offset="1" stop-color="#9FC0BD"/>
</linearGradient>
</defs>
</svg>
