<svg width="90" height="90" viewBox="0 0 90 90" fill="none" xmlns="http://www.w3.org/2000/svg">
<mask id="mask0" mask-type="alpha" maskUnits="userSpaceOnUse" x="0" y="0" width="90" height="90">
<circle cx="45" cy="45" r="43.5" fill="white" stroke="#274C98" stroke-width="3"/>
</mask>
<g mask="url(#mask0)">
<path d="M80.4525 61.1758L68.257 53.62V43.9404C68.257 43.5349 68.0423 43.1614 67.6988 42.9479L60.4523 38.455V20.131C60.4523 19.7254 60.2376 19.3519 59.8941 19.1385L43.8231 9.18143C43.8124 9.18143 43.8016 9.17075 43.8016 9.17075C43.7909 9.17075 43.7802 9.16008 43.7802 9.14941C43.7694 9.13874 43.748 9.13874 43.7372 9.12806C43.7158 9.11739 43.6943 9.10672 43.6621 9.09605C43.6406 9.08538 43.6084 9.0747 43.5869 9.06403C43.5655 9.05336 43.5332 9.04269 43.5118 9.04269C43.4903 9.03202 43.4581 9.03202 43.4366 9.02134C43.4152 9.02134 43.383 9.01067 43.3615 9.01067C43.34 9.01067 43.3078 9.01067 43.2863 9C43.2541 9 43.2327 9 43.2005 9C43.179 9 43.1575 9 43.1253 9C43.0931 9 43.0716 9 43.0394 9.01067C43.0179 9.01067 42.9965 9.02134 42.9643 9.02134C42.9321 9.03202 42.9106 9.03202 42.8784 9.04269C42.8569 9.05336 42.8354 9.05336 42.8032 9.06403C42.7818 9.0747 42.7496 9.08538 42.7281 9.09605C42.7066 9.10672 42.6851 9.11739 42.6637 9.12806C42.6529 9.13874 42.6315 9.13874 42.6207 9.14941C42.61 9.14941 42.5993 9.16008 42.5993 9.17075C42.5885 9.17075 42.5778 9.18143 42.5778 9.18143L26.5068 19.1385C26.1633 19.3519 25.9486 19.7254 25.9486 20.131V35.8723L14.5582 42.9372C14.2147 43.1507 14 43.5242 14 43.9297V91.8261C14 92.4771 14.526 93 15.1809 93H79.8191C80.474 93 81 92.4771 81 91.8261V62.1683C81 61.7628 80.796 61.3893 80.4525 61.1758ZM28.3211 20.7927L42.0303 12.2977V27.0252L41.7619 26.8544C41.7512 26.8544 41.7404 26.8437 41.7404 26.8437C41.7297 26.8437 41.719 26.8331 41.719 26.8224C41.7082 26.8117 41.6868 26.8117 41.676 26.801C41.6545 26.7904 41.6331 26.7797 41.6009 26.769C41.5794 26.7584 41.5472 26.7477 41.5257 26.737C41.5042 26.7263 41.472 26.7157 41.4506 26.7157C41.4291 26.705 41.3969 26.705 41.3754 26.6943C41.354 26.6943 41.3217 26.6837 41.3003 26.6837C41.2788 26.6837 41.2466 26.6836 41.2251 26.673C41.2037 26.673 41.1714 26.673 41.1392 26.673C41.1178 26.673 41.0856 26.673 41.0641 26.673C41.0319 26.673 41.0104 26.673 40.9782 26.6837C40.9567 26.6837 40.9353 26.6943 40.9031 26.6943C40.8709 26.6943 40.8494 26.705 40.8172 26.7157C40.7957 26.7263 40.7742 26.7263 40.742 26.737C40.7206 26.7477 40.6884 26.7584 40.6669 26.769C40.6454 26.7797 40.6239 26.7904 40.6025 26.801C40.5917 26.8117 40.5703 26.8117 40.5595 26.8224C40.5488 26.8224 40.5381 26.8331 40.5381 26.8437C40.5273 26.8437 40.5166 26.8544 40.5166 26.8544L28.3318 34.4102V20.7927H28.3211ZM16.3725 44.5807L39.9583 29.9707V90.6521H16.3725V44.5807ZM48.8688 90.6521V62.8193L62.578 54.3244V90.6521H48.8688Z" fill="#1C2F6E"/>
<path d="M42.3309 90.6521H46.5284V62.1683C46.5284 61.7628 46.7432 61.3893 47.0867 61.1758L63.1577 51.2188C63.1577 51.2188 63.1684 51.2081 63.1791 51.2081C63.1791 51.1974 63.1899 51.1868 63.2006 51.1868C63.2114 51.1761 63.2328 51.1761 63.2436 51.1654C63.2758 51.1547 63.2972 51.1441 63.3187 51.1334C63.3402 51.1227 63.3724 51.1121 63.3939 51.1014C63.4153 51.0907 63.4475 51.0907 63.469 51.08C63.4905 51.0694 63.5227 51.0587 63.5442 51.0587C63.5656 51.0587 63.5978 51.048 63.6193 51.048C63.6408 51.0374 63.673 51.0374 63.6944 51.0374C63.7159 51.0374 63.7481 51.0374 63.7696 51.0374C63.7911 51.0374 63.8233 51.0374 63.8447 51.0374C63.8662 51.048 63.8984 51.048 63.9199 51.048C63.9414 51.048 63.9736 51.0587 63.995 51.0587C64.0165 51.0694 64.0487 51.0694 64.0702 51.08C64.0917 51.08 64.1239 51.0907 64.1453 51.1014C64.1668 51.1121 64.199 51.1227 64.2205 51.1334C64.2527 51.1441 64.2742 51.1547 64.2956 51.1654C64.3064 51.1761 64.3278 51.1761 64.3386 51.1868C64.3386 51.1974 64.3493 51.2081 64.36 51.2081C64.36 51.2081 64.3708 51.2188 64.3815 51.2188L65.8952 52.1579H65.9167V44.5807M44.3814 28.4872L58.0905 36.9822V20.7927M64.9398 90.6521H78.6382V62.8193M80.4525 61.1758L68.257 53.62V43.9404C68.257 43.5349 68.0423 43.1614 67.6988 42.9479L60.4523 38.455V20.131C60.4523 19.7254 60.2376 19.3519 59.8941 19.1385L43.8231 9.18143C43.8124 9.18143 43.8016 9.17075 43.8016 9.17075C43.7909 9.17075 43.7802 9.16008 43.7802 9.14941C43.7694 9.13874 43.748 9.13874 43.7372 9.12806C43.7158 9.11739 43.6943 9.10672 43.6621 9.09605C43.6406 9.08538 43.6084 9.0747 43.5869 9.06403C43.5655 9.05336 43.5332 9.04269 43.5118 9.04269C43.4903 9.03202 43.4581 9.03202 43.4366 9.02134C43.4152 9.02134 43.383 9.01067 43.3615 9.01067C43.34 9.01067 43.3078 9.01067 43.2863 9C43.2541 9 43.2327 9 43.2005 9C43.179 9 43.1575 9 43.1253 9C43.0931 9 43.0716 9 43.0394 9.01067C43.0179 9.01067 42.9965 9.02134 42.9643 9.02134C42.9321 9.03202 42.9106 9.03202 42.8784 9.04269C42.8569 9.05336 42.8354 9.05336 42.8032 9.06403C42.7818 9.0747 42.7496 9.08538 42.7281 9.09605C42.7066 9.10672 42.6851 9.11739 42.6637 9.12806C42.6529 9.13874 42.6315 9.13874 42.6207 9.14941C42.61 9.14941 42.5993 9.16008 42.5993 9.17075C42.5885 9.17075 42.5778 9.18143 42.5778 9.18143L26.5068 19.1385C26.1633 19.3519 25.9486 19.7254 25.9486 20.131V35.8723L14.5582 42.9372C14.2147 43.1507 14 43.5242 14 43.9297V91.8261C14 92.4771 14.526 93 15.1809 93H79.8191C80.474 93 81 92.4771 81 91.8261V62.1683C81 61.7628 80.796 61.3893 80.4525 61.1758ZM28.3211 20.7927L42.0303 12.2977V27.0252L41.7619 26.8544C41.7512 26.8544 41.7404 26.8437 41.7404 26.8437C41.7297 26.8437 41.719 26.8331 41.719 26.8224C41.7082 26.8117 41.6868 26.8117 41.676 26.801C41.6545 26.7904 41.6331 26.7797 41.6009 26.769C41.5794 26.7584 41.5472 26.7477 41.5257 26.737C41.5042 26.7263 41.472 26.7157 41.4506 26.7157C41.4291 26.705 41.3969 26.705 41.3754 26.6943C41.354 26.6943 41.3217 26.6837 41.3003 26.6837C41.2788 26.6837 41.2466 26.6836 41.2251 26.673C41.2037 26.673 41.1715 26.673 41.1392 26.673C41.1178 26.673 41.0856 26.673 41.0641 26.673C41.0319 26.673 41.0104 26.673 40.9782 26.6837C40.9567 26.6837 40.9353 26.6943 40.9031 26.6943C40.8709 26.6943 40.8494 26.705 40.8172 26.7157C40.7957 26.7263 40.7742 26.7263 40.742 26.737C40.7206 26.7477 40.6884 26.7584 40.6669 26.769C40.6454 26.7797 40.6239 26.7904 40.6025 26.801C40.5917 26.8117 40.5703 26.8117 40.5595 26.8224C40.5488 26.8224 40.5381 26.8331 40.5381 26.8437C40.5273 26.8437 40.5166 26.8544 40.5166 26.8544L28.3318 34.4102V20.7927H28.3211ZM16.3725 44.5807L39.9583 29.9707V90.6521H16.3725V44.5807ZM48.8688 90.6521V62.8193L62.578 54.3244V90.6521H48.8688Z" stroke="#1C2F6E" stroke-width="0.6"/>
<circle cx="45" cy="45" r="43.5" stroke="#1C2F6E" stroke-width="3"/>
</g>
</svg>
