<svg width="90" height="90" viewBox="0 0 90 90" fill="none" xmlns="http://www.w3.org/2000/svg">
<mask id="mask0" mask-type="alpha" maskUnits="userSpaceOnUse" x="0" y="0" width="90" height="90">
<circle cx="45" cy="45" r="43.5" fill="white" stroke="#274C98" stroke-width="3"/>
</mask>
<g mask="url(#mask0)">
<circle cx="45" cy="45" r="43.5" stroke="#1C2F6E" stroke-width="3"/>
<path d="M46.9408 103.839C46.3455 103.839 45.8029 103.476 45.5798 102.914C43.9527 98.8134 43.1278 94.4794 43.1278 90.0328C43.1278 70.7641 58.8041 55.0879 78.0727 55.0879C81.7874 55.0879 85.4499 55.6704 88.9582 56.8194C89.5782 57.0226 89.9894 57.6112 89.9659 58.2633C89.809 62.6908 89.0408 67.0556 87.6826 71.236C87.5556 71.6271 87.2697 71.9468 86.8954 72.117C86.5204 72.2871 86.0919 72.2919 85.714 72.1301C83.2952 71.0966 80.7242 70.5725 78.0727 70.5725C67.3423 70.5725 58.6124 79.3024 58.6124 90.0328C58.6124 93.0952 59.3042 96.0268 60.6685 98.7463C60.853 99.1139 60.8742 99.5422 60.7273 99.9264C60.5804 100.311 60.2784 100.615 59.8957 100.766C55.7994 102.379 51.4878 103.41 47.0808 103.832C47.0339 103.836 46.987 103.839 46.9408 103.839ZM78.0727 58.0174C60.4195 58.0174 46.0573 72.3796 46.0573 90.0328C46.0573 93.7343 46.6807 97.3495 47.9115 100.795C51.1455 100.405 54.3175 99.6621 57.3732 98.5816C56.2508 95.8757 55.6829 93.0073 55.6829 90.0328C55.6829 77.687 65.7269 67.643 78.0727 67.643C80.5743 67.643 83.0148 68.0491 85.3486 68.8522C86.24 65.7404 86.7889 62.5297 86.9852 59.2761C84.0969 58.4403 81.1042 58.0174 78.0727 58.0174Z" fill="#1C2F6E"/>
<path d="M59.3594 100.868C58.82 100.868 58.305 100.568 58.0497 100.06C56.4793 96.9288 55.6829 93.5555 55.6829 90.0329C55.6829 77.6871 65.7269 67.6431 78.0727 67.6431C81.1221 67.6431 84.0805 68.2465 86.8655 69.4368C87.5625 69.7347 87.9169 70.515 87.6828 71.2361C85.5342 77.8522 81.8639 84.0389 77.069 89.1269C72.2884 94.1995 66.3499 98.2245 59.8957 100.766C59.7202 100.835 59.5385 100.868 59.3594 100.868ZM78.0727 70.5726C67.3423 70.5726 58.6124 79.3025 58.6124 90.0329C58.6124 92.6375 59.1129 95.1479 60.102 97.5134C71.4928 92.6209 80.2632 83.3009 84.449 71.641C82.4057 70.9317 80.2667 70.5726 78.0727 70.5726Z" fill="#1C2F6E"/>
<path d="M32.0374 91.498C31.2285 91.498 30.5727 90.8422 30.5727 90.0332C30.5727 72.3799 16.2105 58.0178 -1.44273 58.0178C-2.08911 58.0178 -2.74365 58.0389 -3.44422 58.082C-3.84703 58.1067 -4.24335 57.9642 -4.53776 57.6872C-4.83155 57.411 -4.99854 57.0257 -4.99916 56.6223L-5 56.553C-5 52.1565 -4.39861 47.7998 -3.21258 43.6041C-3.03534 42.9768 -2.46492 42.5424 -1.81311 42.5378L-1.67082 42.5359C-1.59486 42.5345 -1.5189 42.5332 -1.44273 42.5332C7.0016 42.5332 15.2948 44.7783 22.5404 49.0252C29.5708 53.1464 35.4627 59.0429 39.5793 66.0773C39.8467 66.5343 39.8467 67.0999 39.5793 67.5567C35.6035 74.3507 33.5022 82.1227 33.5022 90.0332C33.5022 90.8422 32.8464 91.498 32.0374 91.498ZM-1.44273 55.0883C14.0707 55.0883 27.2561 65.2512 31.806 79.2679C32.8142 74.9259 34.4304 70.7359 36.6179 66.8331C28.6819 53.8462 14.5191 45.732 -0.681058 45.4692C-1.48375 48.6073 -1.94159 51.834 -2.04684 55.0937C-1.84428 55.0902 -1.64319 55.0883 -1.44273 55.0883Z" fill="#1C2F6E"/>
<path d="M42.5001 104.053C39.3977 104.053 36.2857 103.749 33.2503 103.15C32.6994 103.041 32.2591 102.627 32.1168 102.083C31.0923 98.1651 30.5728 94.1109 30.5728 90.0332C30.5728 81.6029 32.8128 73.3191 37.0507 66.0775C41.1671 59.0431 47.0592 53.1466 54.0896 49.0254C61.3352 44.7783 69.6284 42.5332 78.0727 42.5332C81.1738 42.5332 84.2858 42.837 87.3223 43.4363C87.8734 43.5451 88.3135 43.9595 88.4558 44.5029C89.4805 48.4209 90.0001 52.4751 90.0001 56.553C90.0001 57.0657 89.9892 57.6091 89.9664 58.2634C89.95 58.7236 89.7184 59.1492 89.3411 59.4129C88.9632 59.6767 88.4838 59.7475 88.0465 59.6039C84.833 58.5516 81.4773 58.0178 78.0727 58.0178C60.4195 58.0178 46.0573 72.3799 46.0573 90.0332C46.0573 94.1084 46.8127 98.0785 48.3028 101.834C48.4727 102.262 48.4311 102.745 48.1909 103.138C47.9506 103.531 47.5395 103.788 47.0808 103.832C45.6957 103.965 44.2793 104.037 42.8715 104.048L42.7355 104.05C42.657 104.052 42.5787 104.053 42.5001 104.053ZM34.7266 100.445C37.2862 100.895 39.8968 101.124 42.5001 101.124C42.5612 101.124 42.6223 101.122 42.6832 101.121L42.8478 101.119C43.5327 101.113 44.2197 101.093 44.9029 101.056C43.7244 97.5131 43.1278 93.8137 43.1278 90.0332C43.1278 70.7645 58.8041 55.0883 78.0727 55.0883C81.1259 55.0883 84.1435 55.4819 87.0695 56.2601C87.0475 52.8415 86.6363 49.4433 85.846 46.1411C83.2856 45.6906 80.6754 45.4627 78.0727 45.4627C62.3044 45.4627 47.5543 53.9286 39.5793 67.5569C35.6036 74.3505 33.5023 82.1225 33.5023 90.0332C33.5023 93.5505 33.9139 97.0486 34.7266 100.445Z" fill="#1C2F6E"/>
<path d="M38.6053 66.3878C37.7963 66.3878 37.1405 65.732 37.1405 64.9231V16.7953C37.1405 15.9864 37.7963 15.3306 38.6053 15.3306C39.4142 15.3306 40.07 15.9864 40.07 16.7953V64.9231C40.07 65.732 39.4142 66.3878 38.6053 66.3878Z" fill="#1C2F6E"/>
<path d="M38.0973 31.3396C39.3405 31.7593 40.5793 31.9715 41.7848 31.9715C41.8823 31.9715 41.9798 31.9701 42.0769 31.9671C43.9221 31.9144 45.6413 31.3444 47.0487 30.3191C48.4258 29.3159 49.4816 27.892 50.1021 26.2008C50.5616 24.9484 50.7842 23.5724 50.7633 22.1114C50.7545 21.4903 50.3553 20.9427 49.7669 20.7442C48.3599 20.2694 46.9621 20.0601 45.6095 20.1233C43.8342 20.206 42.1767 20.7735 40.8164 21.7647C39.4242 22.7787 38.3618 24.2209 37.7439 25.935C37.2972 27.1738 37.0808 28.5321 37.1013 29.9726C37.1101 30.5934 37.5091 31.141 38.0973 31.3396Z" fill="#1C2F6E"/>
<path d="M35.2854 29.0255C35.1906 29.0255 35.0964 29.024 35.0021 29.0213C33.201 28.9696 31.523 28.4134 30.1491 27.4126C28.8049 26.4333 27.7741 25.0435 27.1687 23.3933C26.7203 22.1717 26.5035 20.8302 26.5236 19.4058C26.5324 18.7854 26.9314 18.2378 27.5192 18.0392C28.8902 17.5759 30.2544 17.3729 31.5731 17.4332C33.3052 17.5136 34.9232 18.0674 36.2519 19.0354C37.6106 20.0252 38.6476 21.4328 39.2509 23.1062C39.6866 24.3136 39.8973 25.6379 39.8774 27.0422C39.8686 27.6629 39.4696 28.2107 38.8814 28.4093C37.6698 28.8186 36.4614 29.0253 35.2854 29.0255Z" fill="#1C2F6E"/>
<path d="M42.8842 49.6479C41.3213 49.6479 39.713 49.3721 38.0974 48.8264C37.5094 48.6278 37.1103 48.0802 37.1013 47.4596C37.0748 45.5889 37.3545 43.8263 37.9333 42.2212C38.7283 40.0163 40.0922 38.1632 41.8781 36.862C43.6237 35.5902 45.7532 34.862 48.0366 34.7559C49.7861 34.6758 51.6026 34.9463 53.4296 35.5636C54.0178 35.7622 54.4167 36.31 54.4254 36.9307C54.4524 38.8294 54.1643 40.6145 53.569 42.2362C52.7711 44.411 51.4154 46.2407 49.6489 47.5278C47.8435 48.8436 45.6342 49.5749 43.2604 49.6425C43.1351 49.646 43.01 49.6477 42.8842 49.6479Z" fill="#1C2F6E"/>
<path d="M33.7183 45.4575C33.8433 45.4611 33.9684 45.4628 34.0942 45.4628C35.6571 45.4628 37.2656 45.1872 38.8816 44.6414C39.4698 44.4429 39.8689 43.8951 39.8777 43.2744C39.904 41.4027 39.624 39.6403 39.0452 38.0362C38.2503 35.8316 36.8862 33.9782 35.1004 32.6771C33.3551 31.4055 31.2255 30.6771 28.9418 30.571C27.1899 30.4904 25.3759 30.7614 23.549 31.3787C22.961 31.5773 22.5619 32.1249 22.5531 32.7455C22.5261 34.6434 22.8143 36.4285 23.4096 38.0513C24.2079 40.226 25.5636 42.0559 27.3299 43.3426C29.1357 44.6584 31.3448 45.3897 33.7183 45.4575Z" fill="#1C2F6E"/>
</g>
</svg>
