<svg width="556" height="556" viewBox="0 0 556 556" fill="none" xmlns="http://www.w3.org/2000/svg">
<path d="M278 555.96C431.528 555.96 555.987 431.504 555.987 277.98C555.987 124.456 431.528 0 278 0C124.472 0 0.0131836 124.456 0.0131836 277.98C0.0131836 431.504 124.472 555.96 278 555.96Z" fill="url(#paint0_linear)"/>
<mask id="mask0" mask-type="alpha" maskUnits="userSpaceOnUse" x="0" y="0" width="556" height="556">
<path fill-rule="evenodd" clip-rule="evenodd" d="M278 555.96C431.528 555.96 555.987 431.504 555.987 277.98C555.987 124.456 431.528 0 278 0C124.472 0 0.0131836 124.456 0.0131836 277.98C0.0131836 431.504 124.472 555.96 278 555.96Z" fill="white"/>
</mask>
<g mask="url(#mask0)">
<path d="M278 277.5L554.5 259.5C802.19 431.808 630.657 334.244 588.057 421.459C584.931 427.857 513.873 547.377 510.101 551.674C462.685 605.704 312.708 624.06 280.475 648.382L278 277.5Z" fill="url(#paint1_linear)"/>
</g>
<mask id="mask1" mask-type="alpha" maskUnits="userSpaceOnUse" x="0" y="0" width="556" height="556">
<path fill-rule="evenodd" clip-rule="evenodd" d="M277.987 555.96C431.514 555.96 555.973 431.504 555.973 277.98C555.973 124.456 431.514 0 277.987 0C124.459 0 0 124.456 0 277.98C0 431.504 124.459 555.96 277.987 555.96Z" fill="white"/>
</mask>
<g mask="url(#mask1)">
<path d="M278 277.5L199.487 -41.5204C613.487 -48.5001 612.987 303 600.987 404L278 277.5Z" fill="url(#paint2_linear)"/>
</g>
<circle opacity="0.15" cx="277.5" cy="277.5" r="227.5" fill="white"/>
<circle opacity="0.15" cx="277.5" cy="277.5" r="177.5" fill="white"/>
<circle opacity="0.15" cx="277.5" cy="277.5" r="127.5" fill="white"/>
<circle opacity="0.1" cx="277.5" cy="277.5" r="77.5" fill="white"/>
<path opacity="0.2" fill-rule="evenodd" clip-rule="evenodd" d="M453 135C457.418 135 461 131.418 461 127C461 122.582 457.418 119 453 119C448.582 119 445 122.582 445 127C445 128.29 445.305 129.509 445.848 130.588L92.185 280.478C90.8824 277.826 88.1544 276 85 276C80.5817 276 77 279.582 77 284C77 288.418 80.5817 292 85 292C88.2112 292 90.9804 290.108 92.2539 287.378L404.584 406.221C403.589 407.554 403 409.208 403 411C403 415.418 406.582 419 411 419C415.418 419 419 415.418 419 411C419 406.582 415.418 403 411 403C410.42 403 409.855 403.062 409.31 403.179L451.421 134.844C451.932 134.946 452.46 135 453 135ZM405.406 402.254L94.3611 283.9L447.466 134.246L405.406 402.254Z" fill="white"/>
<g opacity="0.5">
<path d="M204.772 57.3682C204.882 59.1182 206.352 60.2393 208.539 60.2393C210.877 60.2393 212.34 59.0635 212.34 57.1973C212.34 55.7207 211.506 54.9072 209.482 54.4219L208.396 54.1553C207.11 53.8408 206.591 53.4307 206.591 52.7129C206.591 51.79 207.397 51.1953 208.607 51.1953C209.756 51.1953 210.549 51.7695 210.692 52.7061H212.183C212.094 51.0586 210.631 49.8965 208.628 49.8965C206.475 49.8965 205.039 51.0586 205.039 52.7949C205.039 54.2305 205.853 55.0781 207.637 55.5088L208.908 55.8164C210.214 56.1309 210.788 56.6094 210.788 57.3818C210.788 58.2842 209.886 58.9336 208.655 58.9336C207.336 58.9336 206.42 58.3252 206.29 57.3682H204.772ZM214.705 50.7031V52.5967H213.522V53.7725H214.705V58.0449C214.705 59.4736 215.354 60.0479 216.988 60.0479C217.275 60.0479 217.549 60.0137 217.788 59.9727V58.8037C217.583 58.8242 217.453 58.8379 217.228 58.8379C216.496 58.8379 216.175 58.4893 216.175 57.6895V53.7725H217.788V52.5967H216.175V50.7031H214.705ZM219.518 60H220.987V55.5635C220.987 54.5176 221.773 53.7998 222.888 53.7998C223.147 53.7998 223.585 53.8477 223.708 53.8818V52.501C223.551 52.4668 223.271 52.4463 223.052 52.4463C222.081 52.4463 221.254 52.9727 221.042 53.7041H220.933V52.5762H219.518V60ZM228.076 60.1436C230.25 60.1436 231.583 58.6875 231.583 56.2881C231.583 53.8887 230.243 52.4326 228.076 52.4326C225.902 52.4326 224.562 53.8955 224.562 56.2881C224.562 58.6875 225.896 60.1436 228.076 60.1436ZM228.076 58.8926C226.798 58.8926 226.08 57.9424 226.08 56.2881C226.08 54.6338 226.798 53.6768 228.076 53.6768C229.348 53.6768 230.072 54.6338 230.072 56.2881C230.072 57.9355 229.348 58.8926 228.076 58.8926ZM233.354 60H234.823V55.6455C234.823 54.4492 235.514 53.7109 236.601 53.7109C237.688 53.7109 238.207 54.3125 238.207 55.543V60H239.677V55.1943C239.677 53.4238 238.761 52.4326 237.1 52.4326C235.979 52.4326 235.24 52.9316 234.878 53.752H234.769V52.5762H233.354V60ZM244.886 62.8369C246.991 62.8369 248.324 61.7637 248.324 60.0752V52.5762H246.916V53.7588H246.8C246.383 52.9521 245.487 52.4463 244.462 52.4463C242.562 52.4463 241.372 53.9434 241.372 56.1924C241.372 58.4209 242.548 59.8906 244.448 59.8906C245.474 59.8906 246.294 59.4463 246.745 58.6396H246.854V60.0684C246.854 61.0732 246.13 61.6748 244.906 61.6748C243.915 61.6748 243.293 61.3193 243.17 60.7588H241.666C241.823 62.0098 243.026 62.8369 244.886 62.8369ZM244.865 58.6738C243.601 58.6738 242.89 57.71 242.89 56.1924C242.89 54.6748 243.601 53.7041 244.865 53.7041C246.116 53.7041 246.882 54.6748 246.882 56.1924C246.882 57.71 246.123 58.6738 244.865 58.6738Z" fill="white"/>
<path d="M232.652 106.117V104.894H228.605V106.131H231.148V106.35C231.135 107.86 230.027 108.879 228.414 108.879C226.562 108.879 225.399 107.423 225.399 105.058C225.399 102.727 226.555 101.257 228.38 101.257C229.727 101.257 230.663 101.92 231.046 103.144H232.584C232.249 101.154 230.622 99.8965 228.38 99.8965C225.618 99.8965 223.834 101.927 223.834 105.064C223.834 108.243 225.598 110.239 228.394 110.239C230.978 110.239 232.652 108.619 232.652 106.117ZM237.738 110.144C239.912 110.144 241.245 108.688 241.245 106.288C241.245 103.889 239.905 102.433 237.738 102.433C235.564 102.433 234.225 103.896 234.225 106.288C234.225 108.688 235.558 110.144 237.738 110.144ZM237.738 108.893C236.46 108.893 235.742 107.942 235.742 106.288C235.742 104.634 236.46 103.677 237.738 103.677C239.01 103.677 239.734 104.634 239.734 106.288C239.734 107.936 239.01 108.893 237.738 108.893ZM246.16 110.144C248.334 110.144 249.667 108.688 249.667 106.288C249.667 103.889 248.327 102.433 246.16 102.433C243.986 102.433 242.646 103.896 242.646 106.288C242.646 108.688 243.979 110.144 246.16 110.144ZM246.16 108.893C244.882 108.893 244.164 107.942 244.164 106.288C244.164 104.634 244.882 103.677 246.16 103.677C247.432 103.677 248.156 104.634 248.156 106.288C248.156 107.936 247.432 108.893 246.16 108.893ZM254.158 110.123C255.184 110.123 256.052 109.638 256.496 108.824H256.612V110H258.021V99.6641H256.551V103.752H256.441C256.038 102.938 255.177 102.446 254.158 102.446C252.278 102.446 251.068 103.943 251.068 106.281C251.068 108.633 252.265 110.123 254.158 110.123ZM254.575 103.704C255.806 103.704 256.578 104.702 256.578 106.288C256.578 107.888 255.812 108.865 254.575 108.865C253.331 108.865 252.586 107.901 252.586 106.288C252.586 104.682 253.338 103.704 254.575 103.704Z" fill="white"/>
<path d="M237.769 160V155.871H242.007V154.579H237.769V151.455H242.396V150.136H236.237V160H237.769ZM245.835 160.123C246.812 160.123 247.626 159.699 248.07 158.947H248.187V160H249.602V154.921C249.602 153.362 248.549 152.433 246.683 152.433C244.994 152.433 243.791 153.246 243.641 154.497H245.062C245.227 153.957 245.794 153.649 246.614 153.649C247.619 153.649 248.139 154.107 248.139 154.921V155.57L246.122 155.693C244.352 155.803 243.354 156.575 243.354 157.908C243.354 159.262 244.399 160.123 245.835 160.123ZM246.211 158.94C245.411 158.94 244.83 158.537 244.83 157.847C244.83 157.17 245.295 156.808 246.32 156.739L248.139 156.616V157.259C248.139 158.216 247.318 158.94 246.211 158.94ZM252.452 151.25C252.965 151.25 253.382 150.833 253.382 150.327C253.382 149.814 252.965 149.397 252.452 149.397C251.939 149.397 251.522 149.814 251.522 150.327C251.522 150.833 251.939 151.25 252.452 151.25ZM251.721 160H253.184V152.576H251.721V160ZM255.344 160H256.813V155.563C256.813 154.518 257.6 153.8 258.714 153.8C258.974 153.8 259.411 153.848 259.534 153.882V152.501C259.377 152.467 259.097 152.446 258.878 152.446C257.907 152.446 257.08 152.973 256.868 153.704H256.759V152.576H255.344V160Z" fill="white"/>
<path d="M248.829 200.624H248.925L251.044 208H252.486L255.152 198.136H253.56L251.755 205.806H251.659L249.588 198.136H248.166L246.108 205.806H246.013L244.201 198.136H242.608L245.268 208H246.717L248.829 200.624ZM260.977 206.011C260.703 206.612 260.095 206.94 259.206 206.94C258.03 206.94 257.271 206.093 257.224 204.746V204.678H262.48V204.172C262.48 201.848 261.229 200.433 259.158 200.433C257.06 200.433 255.727 201.943 255.727 204.302C255.727 206.674 257.032 208.144 259.165 208.144C260.867 208.144 262.07 207.323 262.392 206.011H260.977ZM259.151 201.629C260.238 201.629 260.949 202.415 260.983 203.618H257.224C257.306 202.422 258.064 201.629 259.151 201.629ZM266.302 208.123C267.279 208.123 268.093 207.699 268.537 206.947H268.653V208H270.068V202.921C270.068 201.362 269.016 200.433 267.149 200.433C265.461 200.433 264.258 201.246 264.107 202.497H265.529C265.693 201.957 266.261 201.649 267.081 201.649C268.086 201.649 268.605 202.107 268.605 202.921V203.57L266.589 203.693C264.818 203.803 263.82 204.575 263.82 205.908C263.82 207.262 264.866 208.123 266.302 208.123ZM266.678 206.94C265.878 206.94 265.297 206.537 265.297 205.847C265.297 205.17 265.762 204.808 266.787 204.739L268.605 204.616V205.259C268.605 206.216 267.785 206.94 266.678 206.94ZM273.814 203.707H273.698V197.664H272.229V208H273.698V205.3L274.348 204.678L276.904 208H278.709L275.441 203.755L278.504 200.576H276.768L273.814 203.707Z" fill="white"/>
</g>
<path d="M54.104 297.008C55.32 297.008 56.392 297.256 57.32 297.752C58.248 298.248 58.968 298.952 59.48 299.864C59.992 300.776 60.248 301.832 60.248 303.032V308.408C60.248 309.832 59.864 311.04 59.096 312.032C58.328 313.008 57.272 313.656 55.928 313.976C55.864 313.992 55.832 314.032 55.832 314.096V316.064C55.832 316.144 55.8 316.208 55.736 316.256C55.688 316.32 55.624 316.352 55.544 316.352H52.736C52.656 316.352 52.584 316.32 52.52 316.256C52.472 316.208 52.448 316.144 52.448 316.064V314.12C52.448 314.056 52.416 314.016 52.352 314C51.008 313.68 49.944 313.024 49.16 312.032C48.376 311.04 47.984 309.832 47.984 308.408V303.032C47.984 301.832 48.24 300.784 48.752 299.888C49.264 298.976 49.984 298.272 50.912 297.776C51.84 297.264 52.904 297.008 54.104 297.008ZM56.864 302.864C56.864 301.984 56.608 301.272 56.096 300.728C55.6 300.184 54.936 299.912 54.104 299.912C53.288 299.912 52.624 300.184 52.112 300.728C51.616 301.272 51.368 301.984 51.368 302.864V308.336C51.368 309.216 51.616 309.928 52.112 310.472C52.624 311.016 53.288 311.288 54.104 311.288C54.936 311.288 55.6 311.016 56.096 310.472C56.608 309.928 56.864 309.216 56.864 308.336V302.864ZM69.6746 301.952C69.6746 301.872 69.6986 301.808 69.7466 301.76C69.8106 301.696 69.8826 301.664 69.9626 301.664H72.7706C72.8506 301.664 72.9146 301.696 72.9626 301.76C73.0266 301.808 73.0586 301.872 73.0586 301.952V313.712C73.0586 313.792 73.0266 313.864 72.9626 313.928C72.9146 313.976 72.8506 314 72.7706 314H69.9626C69.8826 314 69.8106 313.976 69.7466 313.928C69.6986 313.864 69.6746 313.792 69.6746 313.712V312.896C69.6746 312.848 69.6586 312.824 69.6266 312.824C69.5946 312.808 69.5626 312.824 69.5306 312.872C68.8906 313.736 67.8986 314.168 66.5546 314.168C65.3386 314.168 64.3386 313.8 63.5546 313.064C62.7706 312.328 62.3786 311.296 62.3786 309.968V301.952C62.3786 301.872 62.4026 301.808 62.4506 301.76C62.5146 301.696 62.5866 301.664 62.6666 301.664H65.4506C65.5306 301.664 65.5946 301.696 65.6426 301.76C65.7066 301.808 65.7386 301.872 65.7386 301.952V309.128C65.7386 309.768 65.9066 310.288 66.2426 310.688C66.5946 311.088 67.0746 311.288 67.6826 311.288C68.2266 311.288 68.6746 311.128 69.0266 310.808C69.3786 310.472 69.5946 310.04 69.6746 309.512V301.952ZM80.4727 301.472C81.5127 301.472 82.4407 301.656 83.2567 302.024C84.0727 302.376 84.7047 302.864 85.1527 303.488C85.6167 304.112 85.8487 304.808 85.8487 305.576V313.712C85.8487 313.792 85.8167 313.864 85.7527 313.928C85.7047 313.976 85.6407 314 85.5607 314H82.7527C82.6727 314 82.6007 313.976 82.5367 313.928C82.4887 313.864 82.4647 313.792 82.4647 313.712V312.92C82.4647 312.872 82.4487 312.84 82.4167 312.824C82.3847 312.808 82.3527 312.824 82.3207 312.872C81.6487 313.752 80.5687 314.192 79.0807 314.192C77.8327 314.192 76.8247 313.888 76.0567 313.28C75.2887 312.672 74.9047 311.776 74.9047 310.592C74.9047 309.36 75.3367 308.408 76.2007 307.736C77.0647 307.048 78.2967 306.704 79.8967 306.704H82.3447C82.4247 306.704 82.4647 306.664 82.4647 306.584V306.056C82.4647 305.528 82.3047 305.12 81.9847 304.832C81.6647 304.528 81.1847 304.376 80.5447 304.376C80.0487 304.376 79.6327 304.464 79.2967 304.64C78.9767 304.816 78.7687 305.064 78.6727 305.384C78.6247 305.56 78.5207 305.64 78.3607 305.624L75.4567 305.24C75.2647 305.208 75.1767 305.136 75.1927 305.024C75.2567 304.352 75.5207 303.744 75.9847 303.2C76.4647 302.656 77.0887 302.232 77.8567 301.928C78.6407 301.624 79.5127 301.472 80.4727 301.472ZM79.9927 311.672C80.6807 311.672 81.2647 311.488 81.7447 311.12C82.2247 310.752 82.4647 310.28 82.4647 309.704V308.84C82.4647 308.76 82.4247 308.72 82.3447 308.72H80.6167C79.8967 308.72 79.3287 308.856 78.9127 309.128C78.5127 309.4 78.3127 309.784 78.3127 310.28C78.3127 310.712 78.4647 311.056 78.7687 311.312C79.0727 311.552 79.4807 311.672 79.9927 311.672ZM80.3287 300.536C80.1047 300.488 80.0407 300.368 80.1367 300.176C80.2487 299.904 80.3607 299.688 80.4727 299.528C80.5847 299.352 80.7287 299.168 80.9047 298.976C81.0807 298.8 81.2007 298.648 81.2647 298.52C81.3287 298.392 81.3607 298.224 81.3607 298.016C81.3607 297.856 81.2887 297.72 81.1447 297.608C81.0167 297.496 80.8647 297.44 80.6887 297.44C80.4807 297.44 80.3047 297.488 80.1607 297.584C80.0167 297.68 79.8327 297.872 79.6087 298.16C79.5287 298.256 79.4487 298.304 79.3687 298.304C79.2887 298.304 79.2247 298.28 79.1767 298.232L78.3607 297.632C78.2807 297.584 78.2407 297.512 78.2407 297.416C78.2407 297.336 78.2567 297.272 78.2887 297.224C78.6407 296.712 79.0007 296.352 79.3687 296.144C79.7527 295.92 80.2247 295.808 80.7847 295.808C81.5047 295.808 82.0807 296.008 82.5127 296.408C82.9447 296.792 83.1607 297.328 83.1607 298.016C83.1607 298.384 83.0807 298.696 82.9207 298.952C82.7767 299.192 82.5527 299.464 82.2487 299.768C81.9127 300.136 81.7047 300.392 81.6247 300.536C81.5287 300.712 81.4087 300.776 81.2647 300.728L80.3287 300.536ZM94.6644 301.472C95.9444 301.472 96.9764 301.864 97.7604 302.648C98.5444 303.432 98.9364 304.496 98.9364 305.84V313.712C98.9364 313.792 98.9044 313.864 98.8404 313.928C98.7924 313.976 98.7284 314 98.6484 314H95.8404C95.7604 314 95.6884 313.976 95.6244 313.928C95.5764 313.864 95.5524 313.792 95.5524 313.712V306.536C95.5524 305.896 95.3684 305.376 95.0004 304.976C94.6484 304.576 94.1764 304.376 93.5844 304.376C92.9924 304.376 92.5124 304.576 92.1444 304.976C91.7924 305.376 91.6164 305.896 91.6164 306.536V313.712C91.6164 313.792 91.5844 313.864 91.5204 313.928C91.4724 313.976 91.4084 314 91.3284 314H88.5204C88.4404 314 88.3684 313.976 88.3044 313.928C88.2564 313.864 88.2324 313.792 88.2324 313.712V301.952C88.2324 301.872 88.2564 301.808 88.3044 301.76C88.3684 301.696 88.4404 301.664 88.5204 301.664H91.3284C91.4084 301.664 91.4724 301.696 91.5204 301.76C91.5844 301.808 91.6164 301.872 91.6164 301.952V302.792C91.6164 302.84 91.6324 302.872 91.6644 302.888C91.6964 302.904 91.7204 302.896 91.7364 302.864C92.3924 301.936 93.3684 301.472 94.6644 301.472ZM113.242 304.088C113.242 304.168 113.21 304.24 113.146 304.304C113.098 304.352 113.034 304.376 112.954 304.376H110.65C110.57 304.376 110.53 304.416 110.53 304.496V309.584C110.53 310.112 110.634 310.504 110.842 310.76C111.066 311.016 111.418 311.144 111.898 311.144H112.69C112.77 311.144 112.834 311.176 112.882 311.24C112.946 311.288 112.978 311.352 112.978 311.432V313.712C112.978 313.888 112.882 313.992 112.69 314.024C112.018 314.056 111.538 314.072 111.25 314.072C109.922 314.072 108.93 313.856 108.274 313.424C107.618 312.976 107.282 312.144 107.266 310.928V304.496C107.266 304.416 107.226 304.376 107.146 304.376H105.778C105.698 304.376 105.626 304.352 105.562 304.304C105.514 304.24 105.49 304.168 105.49 304.088V301.952C105.49 301.872 105.514 301.808 105.562 301.76C105.626 301.696 105.698 301.664 105.778 301.664H107.146C107.226 301.664 107.266 301.624 107.266 301.544V298.688C107.266 298.608 107.29 298.544 107.338 298.496C107.402 298.432 107.474 298.4 107.554 298.4H110.242C110.322 298.4 110.386 298.432 110.434 298.496C110.498 298.544 110.53 298.608 110.53 298.688V301.544C110.53 301.624 110.57 301.664 110.65 301.664H112.954C113.034 301.664 113.098 301.696 113.146 301.76C113.21 301.808 113.242 301.872 113.242 301.952V304.088ZM121.423 301.496C121.999 301.496 122.455 301.608 122.791 301.832C122.919 301.896 122.967 302.016 122.935 302.192L122.431 304.928C122.415 305.12 122.303 305.176 122.095 305.096C121.855 305.016 121.575 304.976 121.255 304.976C121.127 304.976 120.951 304.992 120.727 305.024C120.151 305.072 119.663 305.288 119.263 305.672C118.863 306.04 118.663 306.536 118.663 307.16V313.712C118.663 313.792 118.631 313.864 118.567 313.928C118.519 313.976 118.455 314 118.375 314H115.567C115.487 314 115.415 313.976 115.351 313.928C115.303 313.864 115.279 313.792 115.279 313.712V301.952C115.279 301.872 115.303 301.808 115.351 301.76C115.415 301.696 115.487 301.664 115.567 301.664H118.375C118.455 301.664 118.519 301.696 118.567 301.76C118.631 301.808 118.663 301.872 118.663 301.952V302.864C118.663 302.912 118.679 302.944 118.711 302.96C118.743 302.976 118.767 302.968 118.783 302.936C119.439 301.976 120.319 301.496 121.423 301.496ZM126.291 300.272C125.747 300.272 125.291 300.096 124.923 299.744C124.571 299.376 124.395 298.92 124.395 298.376C124.395 297.816 124.571 297.36 124.923 297.008C125.275 296.656 125.731 296.48 126.291 296.48C126.851 296.48 127.307 296.656 127.659 297.008C128.011 297.36 128.187 297.816 128.187 298.376C128.187 298.92 128.003 299.376 127.635 299.744C127.283 300.096 126.835 300.272 126.291 300.272ZM124.851 314C124.771 314 124.699 313.976 124.635 313.928C124.587 313.864 124.563 313.792 124.563 313.712V301.928C124.563 301.848 124.587 301.784 124.635 301.736C124.699 301.672 124.771 301.64 124.851 301.64H127.659C127.739 301.64 127.803 301.672 127.851 301.736C127.915 301.784 127.947 301.848 127.947 301.928V313.712C127.947 313.792 127.915 313.864 127.851 313.928C127.803 313.976 127.739 314 127.659 314H124.851ZM126.267 319.184C125.739 319.184 125.307 319.008 124.971 318.656C124.635 318.32 124.467 317.896 124.467 317.384C124.467 316.84 124.635 316.4 124.971 316.064C125.307 315.744 125.739 315.584 126.267 315.584C126.795 315.584 127.227 315.744 127.563 316.064C127.899 316.4 128.067 316.84 128.067 317.384C128.067 317.896 127.891 318.32 127.539 318.656C127.203 319.008 126.779 319.184 126.267 319.184ZM142.469 304.088C142.469 304.168 142.437 304.24 142.373 304.304C142.325 304.352 142.261 304.376 142.181 304.376H139.877C139.797 304.376 139.757 304.416 139.757 304.496V309.584C139.757 310.112 139.861 310.504 140.069 310.76C140.293 311.016 140.645 311.144 141.125 311.144H141.917C141.997 311.144 142.061 311.176 142.109 311.24C142.173 311.288 142.205 311.352 142.205 311.432V313.712C142.205 313.888 142.109 313.992 141.917 314.024C141.245 314.056 140.765 314.072 140.477 314.072C139.149 314.072 138.157 313.856 137.501 313.424C136.845 312.976 136.509 312.144 136.493 310.928V304.496C136.493 304.416 136.453 304.376 136.373 304.376H135.005C134.925 304.376 134.853 304.352 134.789 304.304C134.741 304.24 134.717 304.168 134.717 304.088V301.952C134.717 301.872 134.741 301.808 134.789 301.76C134.853 301.696 134.925 301.664 135.005 301.664H136.373C136.453 301.664 136.493 301.624 136.493 301.544V298.688C136.493 298.608 136.517 298.544 136.565 298.496C136.629 298.432 136.701 298.4 136.781 298.4H139.469C139.549 298.4 139.613 298.432 139.661 298.496C139.725 298.544 139.757 298.608 139.757 298.688V301.544C139.757 301.624 139.797 301.664 139.877 301.664H142.181C142.261 301.664 142.325 301.696 142.373 301.76C142.437 301.808 142.469 301.872 142.469 301.952V304.088ZM150.938 301.472C152.218 301.472 153.25 301.864 154.034 302.648C154.818 303.432 155.21 304.496 155.21 305.84V313.712C155.21 313.792 155.178 313.864 155.114 313.928C155.066 313.976 155.002 314 154.922 314H152.114C152.034 314 151.962 313.976 151.898 313.928C151.85 313.864 151.826 313.792 151.826 313.712V306.536C151.826 305.896 151.642 305.376 151.274 304.976C150.922 304.576 150.45 304.376 149.858 304.376C149.266 304.376 148.786 304.576 148.418 304.976C148.066 305.376 147.89 305.896 147.89 306.536V313.712C147.89 313.792 147.858 313.864 147.794 313.928C147.746 313.976 147.682 314 147.602 314H144.794C144.714 314 144.642 313.976 144.578 313.928C144.53 313.864 144.506 313.792 144.506 313.712V297.488C144.506 297.408 144.53 297.344 144.578 297.296C144.642 297.232 144.714 297.2 144.794 297.2H147.602C147.682 297.2 147.746 297.232 147.794 297.296C147.858 297.344 147.89 297.408 147.89 297.488V302.792C147.89 302.84 147.906 302.872 147.938 302.888C147.97 302.904 147.994 302.896 148.01 302.864C148.666 301.936 149.642 301.472 150.938 301.472ZM170.471 299.552C170.663 299.552 170.759 299.648 170.759 299.84C170.695 300.704 170.439 301.408 169.991 301.952C169.559 302.48 168.999 302.864 168.311 303.104C168.247 303.12 168.215 303.16 168.215 303.224V313.712C168.215 313.792 168.183 313.864 168.119 313.928C168.071 313.976 168.007 314 167.927 314H165.119C165.039 314 164.967 313.976 164.903 313.928C164.855 313.864 164.831 313.792 164.831 313.712V312.896C164.831 312.848 164.815 312.824 164.783 312.824C164.751 312.808 164.719 312.824 164.687 312.872C164.047 313.736 163.055 314.168 161.711 314.168C160.495 314.168 159.495 313.8 158.711 313.064C157.927 312.328 157.535 311.296 157.535 309.968V301.952C157.535 301.872 157.559 301.808 157.607 301.76C157.671 301.696 157.743 301.664 157.823 301.664H160.607C160.687 301.664 160.751 301.696 160.799 301.76C160.863 301.808 160.895 301.872 160.895 301.952V309.128C160.895 309.768 161.063 310.288 161.399 310.688C161.751 311.088 162.231 311.288 162.839 311.288C163.383 311.288 163.831 311.128 164.183 310.808C164.535 310.472 164.751 310.04 164.831 309.512V301.952C164.831 301.872 164.855 301.808 164.903 301.76C164.967 301.696 165.039 301.664 165.119 301.664H166.703C167.167 301.664 167.599 301.536 167.999 301.28C168.399 301.008 168.631 300.528 168.695 299.84C168.695 299.648 168.791 299.552 168.983 299.552H170.471ZM162.863 319.184C162.335 319.184 161.903 319.008 161.567 318.656C161.231 318.32 161.063 317.896 161.063 317.384C161.063 316.84 161.231 316.4 161.567 316.064C161.903 315.744 162.335 315.584 162.863 315.584C163.391 315.584 163.823 315.744 164.159 316.064C164.495 316.4 164.663 316.84 164.663 317.384C164.663 317.896 164.487 318.32 164.135 318.656C163.799 319.008 163.375 319.184 162.863 319.184ZM176.18 314.192C174.9 314.192 173.788 313.872 172.844 313.232C171.916 312.592 171.252 311.712 170.852 310.592C170.58 309.792 170.444 308.848 170.444 307.76C170.444 306.688 170.58 305.76 170.852 304.976C171.236 303.888 171.9 303.032 172.844 302.408C173.788 301.784 174.9 301.472 176.18 301.472C177.46 301.472 178.58 301.792 179.54 302.432C180.516 303.072 181.164 303.88 181.484 304.856C181.612 305.24 181.676 305.528 181.676 305.72V305.768C181.676 305.912 181.596 306 181.436 306.032L178.676 306.44H178.628C178.484 306.44 178.388 306.36 178.34 306.2L178.268 305.816C178.156 305.4 177.908 305.056 177.524 304.784C177.14 304.512 176.684 304.376 176.156 304.376C175.644 304.376 175.212 304.504 174.86 304.76C174.508 305.016 174.26 305.368 174.116 305.816C173.94 306.296 173.852 306.952 173.852 307.784C173.852 308.616 173.932 309.272 174.092 309.752C174.236 310.232 174.484 310.608 174.836 310.88C175.204 311.152 175.644 311.288 176.156 311.288C176.652 311.288 177.084 311.16 177.452 310.904C177.836 310.632 178.1 310.264 178.244 309.8C178.26 309.768 178.268 309.72 178.268 309.656C178.284 309.64 178.292 309.616 178.292 309.584C178.308 309.392 178.42 309.312 178.628 309.344L181.388 309.776C181.548 309.808 181.628 309.896 181.628 310.04C181.628 310.168 181.58 310.408 181.484 310.76C181.148 311.832 180.492 312.672 179.516 313.28C178.556 313.888 177.444 314.192 176.18 314.192ZM195.531 304.088C195.531 304.168 195.499 304.24 195.435 304.304C195.387 304.352 195.323 304.376 195.243 304.376H192.939C192.859 304.376 192.819 304.416 192.819 304.496V309.584C192.819 310.112 192.923 310.504 193.131 310.76C193.355 311.016 193.707 311.144 194.187 311.144H194.979C195.059 311.144 195.123 311.176 195.171 311.24C195.235 311.288 195.267 311.352 195.267 311.432V313.712C195.267 313.888 195.171 313.992 194.979 314.024C194.307 314.056 193.827 314.072 193.539 314.072C192.211 314.072 191.219 313.856 190.563 313.424C189.907 312.976 189.571 312.144 189.555 310.928V304.496C189.555 304.416 189.515 304.376 189.435 304.376H188.067C187.987 304.376 187.915 304.352 187.851 304.304C187.803 304.24 187.779 304.168 187.779 304.088V301.952C187.779 301.872 187.803 301.808 187.851 301.76C187.915 301.696 187.987 301.664 188.067 301.664H189.435C189.515 301.664 189.555 301.624 189.555 301.544V298.688C189.555 298.608 189.579 298.544 189.627 298.496C189.691 298.432 189.763 298.4 189.843 298.4H192.531C192.611 298.4 192.675 298.432 192.723 298.496C192.787 298.544 192.819 298.608 192.819 298.688V301.544C192.819 301.624 192.859 301.664 192.939 301.664H195.243C195.323 301.664 195.387 301.696 195.435 301.76C195.499 301.808 195.531 301.872 195.531 301.952V304.088ZM204 301.472C205.28 301.472 206.312 301.864 207.096 302.648C207.88 303.432 208.272 304.496 208.272 305.84V313.712C208.272 313.792 208.24 313.864 208.176 313.928C208.128 313.976 208.064 314 207.984 314H205.176C205.096 314 205.024 313.976 204.96 313.928C204.912 313.864 204.888 313.792 204.888 313.712V306.536C204.888 305.896 204.704 305.376 204.336 304.976C203.984 304.576 203.512 304.376 202.92 304.376C202.328 304.376 201.848 304.576 201.48 304.976C201.128 305.376 200.952 305.896 200.952 306.536V313.712C200.952 313.792 200.92 313.864 200.856 313.928C200.808 313.976 200.744 314 200.664 314H197.856C197.776 314 197.704 313.976 197.64 313.928C197.592 313.864 197.568 313.792 197.568 313.712V297.488C197.568 297.408 197.592 297.344 197.64 297.296C197.704 297.232 197.776 297.2 197.856 297.2H200.664C200.744 297.2 200.808 297.232 200.856 297.296C200.92 297.344 200.952 297.408 200.952 297.488V302.792C200.952 302.84 200.968 302.872 201 302.888C201.032 302.904 201.056 302.896 201.072 302.864C201.728 301.936 202.704 301.472 204 301.472ZM212.517 300.272C211.973 300.272 211.517 300.096 211.149 299.744C210.797 299.376 210.621 298.92 210.621 298.376C210.621 297.816 210.797 297.36 211.149 297.008C211.501 296.656 211.957 296.48 212.517 296.48C213.077 296.48 213.533 296.656 213.885 297.008C214.237 297.36 214.413 297.816 214.413 298.376C214.413 298.92 214.229 299.376 213.861 299.744C213.509 300.096 213.061 300.272 212.517 300.272ZM211.077 314C210.997 314 210.925 313.976 210.861 313.928C210.813 313.864 210.789 313.792 210.789 313.712V301.928C210.789 301.848 210.813 301.784 210.861 301.736C210.925 301.672 210.997 301.64 211.077 301.64H213.885C213.965 301.64 214.029 301.672 214.077 301.736C214.141 301.784 214.173 301.848 214.173 301.928V313.712C214.173 313.792 214.141 313.864 214.077 313.928C214.029 313.976 213.965 314 213.885 314H211.077Z" fill="white"/>
<path d="M307.104 160.008C308.32 160.008 309.392 160.256 310.32 160.752C311.248 161.248 311.968 161.952 312.48 162.864C312.992 163.776 313.248 164.832 313.248 166.032V171.408C313.248 172.832 312.864 174.04 312.096 175.032C311.328 176.008 310.272 176.656 308.928 176.976C308.864 176.992 308.832 177.032 308.832 177.096V179.064C308.832 179.144 308.8 179.208 308.736 179.256C308.688 179.32 308.624 179.352 308.544 179.352H305.736C305.656 179.352 305.584 179.32 305.52 179.256C305.472 179.208 305.448 179.144 305.448 179.064V177.12C305.448 177.056 305.416 177.016 305.352 177C304.008 176.68 302.944 176.024 302.16 175.032C301.376 174.04 300.984 172.832 300.984 171.408V166.032C300.984 164.832 301.24 163.784 301.752 162.888C302.264 161.976 302.984 161.272 303.912 160.776C304.84 160.264 305.904 160.008 307.104 160.008ZM309.864 165.864C309.864 164.984 309.608 164.272 309.096 163.728C308.6 163.184 307.936 162.912 307.104 162.912C306.288 162.912 305.624 163.184 305.112 163.728C304.616 164.272 304.368 164.984 304.368 165.864V171.336C304.368 172.216 304.616 172.928 305.112 173.472C305.624 174.016 306.288 174.288 307.104 174.288C307.936 174.288 308.6 174.016 309.096 173.472C309.608 172.928 309.864 172.216 309.864 171.336V165.864ZM322.675 164.952C322.675 164.872 322.699 164.808 322.747 164.76C322.811 164.696 322.883 164.664 322.963 164.664H325.771C325.851 164.664 325.915 164.696 325.963 164.76C326.027 164.808 326.059 164.872 326.059 164.952V176.712C326.059 176.792 326.027 176.864 325.963 176.928C325.915 176.976 325.851 177 325.771 177H322.963C322.883 177 322.811 176.976 322.747 176.928C322.699 176.864 322.675 176.792 322.675 176.712V175.896C322.675 175.848 322.659 175.824 322.627 175.824C322.595 175.808 322.563 175.824 322.531 175.872C321.891 176.736 320.899 177.168 319.555 177.168C318.339 177.168 317.339 176.8 316.555 176.064C315.771 175.328 315.379 174.296 315.379 172.968V164.952C315.379 164.872 315.403 164.808 315.451 164.76C315.515 164.696 315.587 164.664 315.667 164.664H318.451C318.531 164.664 318.595 164.696 318.643 164.76C318.707 164.808 318.739 164.872 318.739 164.952V172.128C318.739 172.768 318.907 173.288 319.243 173.688C319.595 174.088 320.075 174.288 320.683 174.288C321.227 174.288 321.675 174.128 322.027 173.808C322.379 173.472 322.595 173.04 322.675 172.512V164.952ZM328.481 181.776C328.433 181.776 328.393 181.744 328.361 181.68C328.329 181.632 328.313 181.568 328.313 181.488V179.28C328.313 179.2 328.337 179.128 328.385 179.064C328.449 179.016 328.521 178.992 328.601 178.992C329.273 178.976 329.801 178.92 330.185 178.824C330.585 178.728 330.897 178.544 331.121 178.272C331.361 178 331.545 177.6 331.673 177.072C331.689 177.04 331.689 176.992 331.673 176.928L327.737 164.976C327.721 164.944 327.713 164.904 327.713 164.856C327.713 164.712 327.801 164.64 327.977 164.64H330.977C331.153 164.64 331.265 164.72 331.313 164.88L333.329 172.656C333.345 172.704 333.369 172.728 333.401 172.728C333.433 172.728 333.457 172.704 333.473 172.656L335.489 164.88C335.537 164.72 335.649 164.64 335.825 164.64H338.753C338.849 164.64 338.913 164.672 338.945 164.736C338.993 164.784 339.001 164.864 338.969 164.976L334.817 177.456C334.417 178.624 334.009 179.496 333.593 180.072C333.177 180.664 332.593 181.096 331.841 181.368C331.089 181.64 330.025 181.776 328.649 181.776H328.481ZM351.883 164.472C353.163 164.472 354.195 164.864 354.979 165.648C355.763 166.432 356.155 167.496 356.155 168.84V176.712C356.155 176.792 356.123 176.864 356.059 176.928C356.011 176.976 355.947 177 355.867 177H353.059C352.979 177 352.907 176.976 352.843 176.928C352.795 176.864 352.771 176.792 352.771 176.712V169.536C352.771 168.896 352.587 168.376 352.219 167.976C351.867 167.576 351.395 167.376 350.803 167.376C350.211 167.376 349.731 167.576 349.363 167.976C349.011 168.376 348.835 168.896 348.835 169.536V176.712C348.835 176.792 348.803 176.864 348.739 176.928C348.691 176.976 348.627 177 348.547 177H345.739C345.659 177 345.587 176.976 345.523 176.928C345.475 176.864 345.451 176.792 345.451 176.712V160.488C345.451 160.408 345.475 160.344 345.523 160.296C345.587 160.232 345.659 160.2 345.739 160.2H348.547C348.627 160.2 348.691 160.232 348.739 160.296C348.803 160.344 348.835 160.408 348.835 160.488V165.792C348.835 165.84 348.851 165.872 348.883 165.888C348.915 165.904 348.939 165.896 348.955 165.864C349.611 164.936 350.587 164.472 351.883 164.472ZM363.954 177.192C362.61 177.192 361.458 176.84 360.498 176.136C359.538 175.432 358.882 174.472 358.53 173.256C358.306 172.504 358.194 171.688 358.194 170.808C358.194 169.864 358.306 169.016 358.53 168.264C358.898 167.08 359.562 166.152 360.522 165.48C361.482 164.808 362.634 164.472 363.978 164.472C365.29 164.472 366.41 164.808 367.338 165.48C368.266 166.136 368.922 167.056 369.306 168.24C369.562 169.04 369.69 169.88 369.69 170.76C369.69 171.624 369.578 172.432 369.354 173.184C369.002 174.432 368.346 175.416 367.386 176.136C366.442 176.84 365.298 177.192 363.954 177.192ZM363.954 174.288C364.482 174.288 364.93 174.128 365.298 173.808C365.666 173.488 365.93 173.048 366.09 172.488C366.218 171.976 366.282 171.416 366.282 170.808C366.282 170.136 366.218 169.568 366.09 169.104C365.914 168.56 365.642 168.136 365.274 167.832C364.906 167.528 364.458 167.376 363.93 167.376C363.386 167.376 362.93 167.528 362.562 167.832C362.21 168.136 361.954 168.56 361.794 169.104C361.666 169.488 361.602 170.056 361.602 170.808C361.602 171.528 361.658 172.088 361.77 172.488C361.93 173.048 362.194 173.488 362.562 173.808C362.946 174.128 363.41 174.288 363.954 174.288ZM376.785 164.472C377.825 164.472 378.753 164.656 379.569 165.024C380.385 165.376 381.017 165.864 381.465 166.488C381.929 167.112 382.161 167.808 382.161 168.576V176.712C382.161 176.792 382.129 176.864 382.065 176.928C382.017 176.976 381.953 177 381.873 177H379.065C378.985 177 378.913 176.976 378.849 176.928C378.801 176.864 378.777 176.792 378.777 176.712V175.92C378.777 175.872 378.761 175.84 378.729 175.824C378.697 175.808 378.665 175.824 378.633 175.872C377.961 176.752 376.881 177.192 375.393 177.192C374.145 177.192 373.137 176.888 372.369 176.28C371.601 175.672 371.217 174.776 371.217 173.592C371.217 172.36 371.649 171.408 372.513 170.736C373.377 170.048 374.609 169.704 376.209 169.704H378.657C378.737 169.704 378.777 169.664 378.777 169.584V169.056C378.777 168.528 378.617 168.12 378.297 167.832C377.977 167.528 377.497 167.376 376.857 167.376C376.361 167.376 375.945 167.464 375.609 167.64C375.289 167.816 375.081 168.064 374.985 168.384C374.937 168.56 374.833 168.64 374.673 168.624L371.769 168.24C371.577 168.208 371.489 168.136 371.505 168.024C371.569 167.352 371.833 166.744 372.297 166.2C372.777 165.656 373.401 165.232 374.169 164.928C374.953 164.624 375.825 164.472 376.785 164.472ZM376.305 174.672C376.993 174.672 377.577 174.488 378.057 174.12C378.537 173.752 378.777 173.28 378.777 172.704V171.84C378.777 171.76 378.737 171.72 378.657 171.72H376.929C376.209 171.72 375.641 171.856 375.225 172.128C374.825 172.4 374.625 172.784 374.625 173.28C374.625 173.712 374.777 174.056 375.081 174.312C375.385 174.552 375.793 174.672 376.305 174.672ZM376.953 182.184C376.425 182.184 375.993 182.008 375.657 181.656C375.321 181.32 375.153 180.896 375.153 180.384C375.153 179.84 375.321 179.4 375.657 179.064C375.993 178.744 376.425 178.584 376.953 178.584C377.481 178.584 377.913 178.744 378.249 179.064C378.585 179.4 378.753 179.84 378.753 180.384C378.753 180.896 378.577 181.32 378.225 181.656C377.889 182.008 377.465 182.184 376.953 182.184ZM389.899 177.192C388.619 177.192 387.507 176.872 386.563 176.232C385.635 175.592 384.971 174.712 384.571 173.592C384.299 172.792 384.163 171.848 384.163 170.76C384.163 169.688 384.299 168.76 384.571 167.976C384.955 166.888 385.619 166.032 386.563 165.408C387.507 164.784 388.619 164.472 389.899 164.472C391.179 164.472 392.299 164.792 393.259 165.432C394.235 166.072 394.883 166.88 395.203 167.856C395.331 168.24 395.395 168.528 395.395 168.72V168.768C395.395 168.912 395.315 169 395.155 169.032L392.395 169.44H392.347C392.203 169.44 392.107 169.36 392.059 169.2L391.987 168.816C391.875 168.4 391.627 168.056 391.243 167.784C390.859 167.512 390.403 167.376 389.875 167.376C389.363 167.376 388.931 167.504 388.579 167.76C388.227 168.016 387.979 168.368 387.835 168.816C387.659 169.296 387.571 169.952 387.571 170.784C387.571 171.616 387.651 172.272 387.811 172.752C387.955 173.232 388.203 173.608 388.555 173.88C388.923 174.152 389.363 174.288 389.875 174.288C390.371 174.288 390.803 174.16 391.171 173.904C391.555 173.632 391.819 173.264 391.963 172.8C391.979 172.768 391.987 172.72 391.987 172.656C392.003 172.64 392.011 172.616 392.011 172.584C392.027 172.392 392.139 172.312 392.347 172.344L395.107 172.776C395.267 172.808 395.347 172.896 395.347 173.04C395.347 173.168 395.299 173.408 395.203 173.76C394.867 174.832 394.211 175.672 393.235 176.28C392.275 176.888 391.163 177.192 389.899 177.192ZM403.797 164.472C405.077 164.472 406.109 164.864 406.893 165.648C407.677 166.432 408.069 167.496 408.069 168.84V176.712C408.069 176.792 408.037 176.864 407.973 176.928C407.925 176.976 407.861 177 407.781 177H404.973C404.893 177 404.821 176.976 404.757 176.928C404.709 176.864 404.685 176.792 404.685 176.712V169.536C404.685 168.896 404.501 168.376 404.133 167.976C403.781 167.576 403.309 167.376 402.717 167.376C402.125 167.376 401.645 167.576 401.277 167.976C400.925 168.376 400.749 168.896 400.749 169.536V176.712C400.749 176.792 400.717 176.864 400.653 176.928C400.605 176.976 400.541 177 400.461 177H397.653C397.573 177 397.501 176.976 397.437 176.928C397.389 176.864 397.365 176.792 397.365 176.712V160.488C397.365 160.408 397.389 160.344 397.437 160.296C397.501 160.232 397.573 160.2 397.653 160.2H400.461C400.541 160.2 400.605 160.232 400.653 160.296C400.717 160.344 400.749 160.408 400.749 160.488V165.792C400.749 165.84 400.765 165.872 400.797 165.888C400.829 165.904 400.853 165.896 400.869 165.864C401.525 164.936 402.501 164.472 403.797 164.472ZM422.375 167.088C422.375 167.168 422.343 167.24 422.279 167.304C422.231 167.352 422.167 167.376 422.087 167.376H419.783C419.703 167.376 419.663 167.416 419.663 167.496V172.584C419.663 173.112 419.767 173.504 419.975 173.76C420.199 174.016 420.551 174.144 421.031 174.144H421.823C421.903 174.144 421.967 174.176 422.015 174.24C422.079 174.288 422.111 174.352 422.111 174.432V176.712C422.111 176.888 422.015 176.992 421.823 177.024C421.151 177.056 420.671 177.072 420.383 177.072C419.055 177.072 418.063 176.856 417.407 176.424C416.751 175.976 416.415 175.144 416.399 173.928V167.496C416.399 167.416 416.359 167.376 416.279 167.376H414.911C414.831 167.376 414.759 167.352 414.695 167.304C414.647 167.24 414.623 167.168 414.623 167.088V164.952C414.623 164.872 414.647 164.808 414.695 164.76C414.759 164.696 414.831 164.664 414.911 164.664H416.279C416.359 164.664 416.399 164.624 416.399 164.544V161.688C416.399 161.608 416.423 161.544 416.471 161.496C416.535 161.432 416.607 161.4 416.687 161.4H419.375C419.455 161.4 419.519 161.432 419.567 161.496C419.631 161.544 419.663 161.608 419.663 161.688V164.544C419.663 164.624 419.703 164.664 419.783 164.664H422.087C422.167 164.664 422.231 164.696 422.279 164.76C422.343 164.808 422.375 164.872 422.375 164.952V167.088ZM424.604 177C424.524 177 424.452 176.976 424.388 176.928C424.34 176.864 424.316 176.792 424.316 176.712V164.952C424.316 164.872 424.34 164.808 424.388 164.76C424.452 164.696 424.524 164.664 424.604 164.664H427.412C427.492 164.664 427.556 164.696 427.604 164.76C427.668 164.808 427.7 164.872 427.7 164.952V176.712C427.7 176.792 427.668 176.864 427.604 176.928C427.556 176.976 427.492 177 427.412 177H424.604ZM424.676 163.176C424.564 163.176 424.492 163.144 424.46 163.08C424.428 163.016 424.436 162.936 424.484 162.84L425.756 160.416C425.82 160.272 425.94 160.2 426.116 160.2H428.54C428.652 160.2 428.724 160.24 428.756 160.32C428.804 160.384 428.796 160.464 428.732 160.56L427.028 162.984C426.948 163.112 426.836 163.176 426.692 163.176H424.676ZM435.531 177.192C434.251 177.192 433.139 176.872 432.195 176.232C431.267 175.592 430.603 174.712 430.203 173.592C429.931 172.792 429.795 171.848 429.795 170.76C429.795 169.688 429.931 168.76 430.203 167.976C430.587 166.888 431.251 166.032 432.195 165.408C433.139 164.784 434.251 164.472 435.531 164.472C436.811 164.472 437.931 164.792 438.891 165.432C439.867 166.072 440.515 166.88 440.835 167.856C440.963 168.24 441.027 168.528 441.027 168.72V168.768C441.027 168.912 440.947 169 440.787 169.032L438.027 169.44H437.979C437.835 169.44 437.739 169.36 437.691 169.2L437.619 168.816C437.507 168.4 437.259 168.056 436.875 167.784C436.491 167.512 436.035 167.376 435.507 167.376C434.995 167.376 434.563 167.504 434.211 167.76C433.859 168.016 433.611 168.368 433.467 168.816C433.291 169.296 433.203 169.952 433.203 170.784C433.203 171.616 433.283 172.272 433.443 172.752C433.587 173.232 433.835 173.608 434.187 173.88C434.555 174.152 434.995 174.288 435.507 174.288C436.003 174.288 436.435 174.16 436.803 173.904C437.187 173.632 437.451 173.264 437.595 172.8C437.611 172.768 437.619 172.72 437.619 172.656C437.635 172.64 437.643 172.616 437.643 172.584C437.659 172.392 437.771 172.312 437.979 172.344L440.739 172.776C440.899 172.808 440.979 172.896 440.979 173.04C440.979 173.168 440.931 173.408 440.835 173.76C440.499 174.832 439.843 175.672 438.867 176.28C437.907 176.888 436.795 177.192 435.531 177.192ZM449.43 164.472C450.71 164.472 451.742 164.864 452.526 165.648C453.31 166.432 453.702 167.496 453.702 168.84V176.712C453.702 176.792 453.67 176.864 453.606 176.928C453.558 176.976 453.494 177 453.414 177H450.606C450.526 177 450.454 176.976 450.39 176.928C450.342 176.864 450.318 176.792 450.318 176.712V169.536C450.318 168.896 450.134 168.376 449.766 167.976C449.414 167.576 448.942 167.376 448.35 167.376C447.758 167.376 447.278 167.576 446.91 167.976C446.558 168.376 446.382 168.896 446.382 169.536V176.712C446.382 176.792 446.35 176.864 446.286 176.928C446.238 176.976 446.174 177 446.094 177H443.286C443.206 177 443.134 176.976 443.07 176.928C443.022 176.864 442.998 176.792 442.998 176.712V160.488C442.998 160.408 443.022 160.344 443.07 160.296C443.134 160.232 443.206 160.2 443.286 160.2H446.094C446.174 160.2 446.238 160.232 446.286 160.296C446.35 160.344 446.382 160.408 446.382 160.488V165.792C446.382 165.84 446.398 165.872 446.43 165.888C446.462 165.904 446.486 165.896 446.502 165.864C447.158 164.936 448.134 164.472 449.43 164.472ZM467.36 164.472C468.64 164.472 469.672 164.864 470.456 165.648C471.24 166.432 471.632 167.496 471.632 168.84V176.712C471.632 176.792 471.6 176.864 471.536 176.928C471.488 176.976 471.424 177 471.344 177H468.536C468.456 177 468.384 176.976 468.32 176.928C468.272 176.864 468.248 176.792 468.248 176.712V169.536C468.248 168.896 468.064 168.376 467.696 167.976C467.344 167.576 466.872 167.376 466.28 167.376C465.688 167.376 465.208 167.576 464.84 167.976C464.488 168.376 464.312 168.896 464.312 169.536V176.712C464.312 176.792 464.28 176.864 464.216 176.928C464.168 176.976 464.104 177 464.024 177H461.216C461.136 177 461.064 176.976 461 176.928C460.952 176.864 460.928 176.792 460.928 176.712V160.488C460.928 160.408 460.952 160.344 461 160.296C461.064 160.232 461.136 160.2 461.216 160.2H464.024C464.104 160.2 464.168 160.232 464.216 160.296C464.28 160.344 464.312 160.408 464.312 160.488V165.792C464.312 165.84 464.328 165.872 464.36 165.888C464.392 165.904 464.416 165.896 464.432 165.864C465.088 164.936 466.064 164.472 467.36 164.472ZM484.782 168.24C485.038 169.04 485.166 169.88 485.166 170.76C485.166 171.624 485.054 172.432 484.83 173.184C484.478 174.432 483.822 175.416 482.862 176.136C481.918 176.84 480.774 177.192 479.43 177.192C478.086 177.192 476.934 176.84 475.974 176.136C475.014 175.432 474.358 174.472 474.006 173.256C473.782 172.504 473.67 171.688 473.67 170.808C473.67 169.864 473.782 169.016 474.006 168.264C474.374 167.08 475.038 166.152 475.998 165.48C476.958 164.808 478.11 164.472 479.454 164.472C479.918 164.472 480.414 164.528 480.942 164.64C480.974 164.656 481.022 164.664 481.086 164.664C481.518 164.6 481.894 164.432 482.214 164.16C482.534 163.888 482.718 163.448 482.766 162.84C482.766 162.648 482.862 162.552 483.054 162.552H484.542C484.734 162.552 484.83 162.648 484.83 162.84C484.734 164.088 484.222 165.032 483.294 165.672C483.23 165.72 483.222 165.776 483.27 165.84C483.942 166.432 484.446 167.232 484.782 168.24ZM481.566 172.488C481.694 171.976 481.758 171.416 481.758 170.808C481.758 170.136 481.694 169.568 481.566 169.104C481.39 168.56 481.118 168.136 480.75 167.832C480.382 167.528 479.934 167.376 479.406 167.376C478.862 167.376 478.406 167.528 478.038 167.832C477.686 168.136 477.43 168.56 477.27 169.104C477.142 169.488 477.078 170.056 477.078 170.808C477.078 171.528 477.134 172.088 477.246 172.488C477.406 173.048 477.67 173.488 478.038 173.808C478.422 174.128 478.886 174.288 479.43 174.288C479.958 174.288 480.406 174.128 480.774 173.808C481.142 173.488 481.406 173.048 481.566 172.488ZM479.334 182.184C478.806 182.184 478.374 182.008 478.038 181.656C477.702 181.32 477.534 180.896 477.534 180.384C477.534 179.84 477.702 179.4 478.038 179.064C478.374 178.744 478.806 178.584 479.334 178.584C479.862 178.584 480.294 178.744 480.63 179.064C480.966 179.4 481.134 179.84 481.134 180.384C481.134 180.896 480.958 181.32 480.606 181.656C480.27 182.008 479.846 182.184 479.334 182.184ZM498.17 167.976C498.458 168.792 498.602 169.752 498.602 170.856C498.602 171.96 498.45 172.96 498.146 173.856C497.778 174.88 497.194 175.696 496.394 176.304C495.61 176.896 494.634 177.192 493.466 177.192C492.314 177.192 491.418 176.792 490.778 175.992C490.746 175.944 490.714 175.928 490.682 175.944C490.65 175.96 490.634 175.992 490.634 176.04V181.176C490.634 181.256 490.602 181.32 490.538 181.368C490.49 181.432 490.426 181.464 490.346 181.464H487.538C487.458 181.464 487.386 181.432 487.322 181.368C487.274 181.32 487.25 181.256 487.25 181.176V164.952C487.25 164.872 487.274 164.808 487.322 164.76C487.386 164.696 487.458 164.664 487.538 164.664H490.346C490.426 164.664 490.49 164.696 490.538 164.76C490.602 164.808 490.634 164.872 490.634 164.952V165.744C490.634 165.792 490.65 165.824 490.682 165.84C490.714 165.84 490.746 165.824 490.778 165.792C491.45 164.912 492.378 164.472 493.562 164.472C494.666 164.472 495.618 164.784 496.418 165.408C497.234 166.016 497.818 166.872 498.17 167.976ZM494.498 173.352C494.898 172.728 495.098 171.88 495.098 170.808C495.098 169.8 494.93 169 494.594 168.408C494.226 167.72 493.634 167.376 492.818 167.376C492.082 167.376 491.53 167.72 491.162 168.408C490.826 168.984 490.658 169.792 490.658 170.832C490.658 171.904 490.834 172.736 491.186 173.328C491.554 173.968 492.098 174.288 492.818 174.288C493.538 174.288 494.098 173.976 494.498 173.352Z" fill="white"/>
<path d="M327.264 419.392C327.344 419.264 327.456 419.2 327.6 419.2H330.408C330.488 419.2 330.552 419.232 330.6 419.296C330.664 419.344 330.696 419.408 330.696 419.488V435.712C330.696 435.792 330.664 435.864 330.6 435.928C330.552 435.976 330.488 436 330.408 436H327.6C327.52 436 327.448 435.976 327.384 435.928C327.336 435.864 327.312 435.792 327.312 435.712V425.128C327.312 425.064 327.296 425.032 327.264 425.032C327.232 425.032 327.2 425.056 327.168 425.104L324.624 429.088C324.544 429.216 324.432 429.28 324.288 429.28H322.872C322.728 429.28 322.616 429.216 322.536 429.088L319.992 425.104C319.96 425.056 319.928 425.04 319.896 425.056C319.864 425.056 319.848 425.088 319.848 425.152V435.712C319.848 435.792 319.816 435.864 319.752 435.928C319.704 435.976 319.64 436 319.56 436H316.752C316.672 436 316.6 435.976 316.536 435.928C316.488 435.864 316.464 435.792 316.464 435.712V419.488C316.464 419.408 316.488 419.344 316.536 419.296C316.6 419.232 316.672 419.2 316.752 419.2H319.56C319.704 419.2 319.816 419.264 319.896 419.392L323.496 424.984C323.544 425.08 323.592 425.08 323.64 424.984L327.264 419.392ZM338.852 436.192C337.508 436.192 336.356 435.84 335.396 435.136C334.436 434.432 333.78 433.472 333.428 432.256C333.204 431.504 333.092 430.688 333.092 429.808C333.092 428.864 333.204 428.016 333.428 427.264C333.796 426.08 334.46 425.152 335.42 424.48C336.38 423.808 337.532 423.472 338.876 423.472C340.188 423.472 341.308 423.808 342.236 424.48C343.164 425.136 343.82 426.056 344.204 427.24C344.46 428.04 344.588 428.88 344.588 429.76C344.588 430.624 344.476 431.432 344.252 432.184C343.9 433.432 343.244 434.416 342.284 435.136C341.34 435.84 340.196 436.192 338.852 436.192ZM338.852 433.288C339.38 433.288 339.828 433.128 340.196 432.808C340.564 432.488 340.828 432.048 340.988 431.488C341.116 430.976 341.18 430.416 341.18 429.808C341.18 429.136 341.116 428.568 340.988 428.104C340.812 427.56 340.54 427.136 340.172 426.832C339.804 426.528 339.356 426.376 338.828 426.376C338.284 426.376 337.828 426.528 337.46 426.832C337.108 427.136 336.852 427.56 336.692 428.104C336.564 428.488 336.5 429.056 336.5 429.808C336.5 430.528 336.556 431.088 336.668 431.488C336.828 432.048 337.092 432.488 337.46 432.808C337.844 433.128 338.308 433.288 338.852 433.288ZM335.204 422.272C335.092 422.272 335.012 422.24 334.964 422.176C334.932 422.096 334.948 422.008 335.012 421.912L336.764 419.392C336.844 419.264 336.956 419.2 337.1 419.2H340.292C340.436 419.2 340.548 419.264 340.628 419.392L342.452 421.912C342.5 421.976 342.524 422.032 342.524 422.08C342.524 422.208 342.436 422.272 342.26 422.272H340.1C339.956 422.272 339.844 422.208 339.764 422.08L338.804 420.616C338.756 420.52 338.708 420.52 338.66 420.616L337.7 422.08C337.62 422.208 337.508 422.272 337.364 422.272H335.204ZM348.4 422.272C347.856 422.272 347.4 422.096 347.032 421.744C346.68 421.376 346.504 420.92 346.504 420.376C346.504 419.816 346.68 419.36 347.032 419.008C347.384 418.656 347.84 418.48 348.4 418.48C348.96 418.48 349.416 418.656 349.768 419.008C350.12 419.36 350.296 419.816 350.296 420.376C350.296 420.92 350.112 421.376 349.744 421.744C349.392 422.096 348.944 422.272 348.4 422.272ZM346.96 436C346.88 436 346.808 435.976 346.744 435.928C346.696 435.864 346.672 435.792 346.672 435.712V423.928C346.672 423.848 346.696 423.784 346.744 423.736C346.808 423.672 346.88 423.64 346.96 423.64H349.768C349.848 423.64 349.912 423.672 349.96 423.736C350.024 423.784 350.056 423.848 350.056 423.928V435.712C350.056 435.792 350.024 435.864 349.96 435.928C349.912 435.976 349.848 436 349.768 436H346.96ZM364.578 426.088C364.578 426.168 364.546 426.24 364.482 426.304C364.434 426.352 364.37 426.376 364.29 426.376H361.986C361.906 426.376 361.866 426.416 361.866 426.496V431.584C361.866 432.112 361.97 432.504 362.178 432.76C362.402 433.016 362.754 433.144 363.234 433.144H364.026C364.106 433.144 364.17 433.176 364.218 433.24C364.282 433.288 364.314 433.352 364.314 433.432V435.712C364.314 435.888 364.218 435.992 364.026 436.024C363.354 436.056 362.874 436.072 362.586 436.072C361.258 436.072 360.266 435.856 359.61 435.424C358.954 434.976 358.618 434.144 358.602 432.928V426.496C358.602 426.416 358.562 426.376 358.482 426.376H357.114C357.034 426.376 356.962 426.352 356.898 426.304C356.85 426.24 356.826 426.168 356.826 426.088V423.952C356.826 423.872 356.85 423.808 356.898 423.76C356.962 423.696 357.034 423.664 357.114 423.664H358.482C358.562 423.664 358.602 423.624 358.602 423.544V420.688C358.602 420.608 358.626 420.544 358.674 420.496C358.738 420.432 358.81 420.4 358.89 420.4H361.578C361.658 420.4 361.722 420.432 361.77 420.496C361.834 420.544 361.866 420.608 361.866 420.688V423.544C361.866 423.624 361.906 423.664 361.986 423.664H364.29C364.37 423.664 364.434 423.696 364.482 423.76C364.546 423.808 364.578 423.872 364.578 423.952V426.088ZM372.759 423.496C373.335 423.496 373.791 423.608 374.127 423.832C374.255 423.896 374.303 424.016 374.271 424.192L373.767 426.928C373.751 427.12 373.639 427.176 373.431 427.096C373.191 427.016 372.911 426.976 372.591 426.976C372.463 426.976 372.287 426.992 372.063 427.024C371.487 427.072 370.999 427.288 370.599 427.672C370.199 428.04 369.999 428.536 369.999 429.16V435.712C369.999 435.792 369.967 435.864 369.903 435.928C369.855 435.976 369.791 436 369.711 436H366.903C366.823 436 366.751 435.976 366.687 435.928C366.639 435.864 366.615 435.792 366.615 435.712V423.952C366.615 423.872 366.639 423.808 366.687 423.76C366.751 423.696 366.823 423.664 366.903 423.664H369.711C369.791 423.664 369.855 423.696 369.903 423.76C369.967 423.808 369.999 423.872 369.999 423.952V424.864C369.999 424.912 370.015 424.944 370.047 424.96C370.079 424.976 370.103 424.968 370.119 424.936C370.775 423.976 371.655 423.496 372.759 423.496ZM388.643 421.552C388.835 421.552 388.931 421.648 388.931 421.84C388.867 422.704 388.611 423.408 388.163 423.952C387.731 424.48 387.171 424.864 386.483 425.104C386.419 425.12 386.387 425.16 386.387 425.224V435.712C386.387 435.792 386.355 435.864 386.291 435.928C386.243 435.976 386.179 436 386.099 436H383.291C383.211 436 383.139 435.976 383.075 435.928C383.027 435.864 383.003 435.792 383.003 435.712V434.896C383.003 434.848 382.987 434.824 382.955 434.824C382.923 434.808 382.891 434.824 382.859 434.872C382.219 435.736 381.227 436.168 379.883 436.168C378.667 436.168 377.667 435.8 376.883 435.064C376.099 434.328 375.707 433.296 375.707 431.968V423.952C375.707 423.872 375.731 423.808 375.779 423.76C375.843 423.696 375.915 423.664 375.995 423.664H378.779C378.859 423.664 378.923 423.696 378.971 423.76C379.035 423.808 379.067 423.872 379.067 423.952V431.128C379.067 431.768 379.235 432.288 379.571 432.688C379.923 433.088 380.403 433.288 381.011 433.288C381.555 433.288 382.003 433.128 382.355 432.808C382.707 432.472 382.923 432.04 383.003 431.512V423.952C383.003 423.872 383.027 423.808 383.075 423.76C383.139 423.696 383.211 423.664 383.291 423.664H384.875C385.339 423.664 385.771 423.536 386.171 423.28C386.571 423.008 386.803 422.528 386.867 421.84C386.867 421.648 386.963 421.552 387.155 421.552H388.643ZM399.728 427.24C399.984 428.04 400.112 428.88 400.112 429.76C400.112 430.624 400 431.432 399.776 432.184C399.424 433.432 398.768 434.416 397.808 435.136C396.864 435.84 395.72 436.192 394.376 436.192C393.032 436.192 391.88 435.84 390.92 435.136C389.96 434.432 389.304 433.472 388.952 432.256C388.728 431.504 388.616 430.688 388.616 429.808C388.616 428.864 388.728 428.016 388.952 427.264C389.32 426.08 389.984 425.152 390.944 424.48C391.904 423.808 393.056 423.472 394.4 423.472C394.864 423.472 395.36 423.528 395.888 423.64C395.92 423.656 395.968 423.664 396.032 423.664C396.464 423.6 396.84 423.432 397.16 423.16C397.48 422.888 397.664 422.448 397.712 421.84C397.712 421.648 397.808 421.552 398 421.552H399.488C399.68 421.552 399.776 421.648 399.776 421.84C399.68 423.088 399.168 424.032 398.24 424.672C398.176 424.72 398.168 424.776 398.216 424.84C398.888 425.432 399.392 426.232 399.728 427.24ZM396.512 431.488C396.64 430.976 396.704 430.416 396.704 429.808C396.704 429.136 396.64 428.568 396.512 428.104C396.336 427.56 396.064 427.136 395.696 426.832C395.328 426.528 394.88 426.376 394.352 426.376C393.808 426.376 393.352 426.528 392.984 426.832C392.632 427.136 392.376 427.56 392.216 428.104C392.088 428.488 392.024 429.056 392.024 429.808C392.024 430.528 392.08 431.088 392.192 431.488C392.352 432.048 392.616 432.488 392.984 432.808C393.368 433.128 393.832 433.288 394.376 433.288C394.904 433.288 395.352 433.128 395.72 432.808C396.088 432.488 396.352 432.048 396.512 431.488ZM395.504 421.84C395.536 421.904 395.552 421.952 395.552 421.984C395.552 422.112 395.472 422.176 395.312 422.176H393.296C393.152 422.176 393.04 422.112 392.96 421.984L391.256 419.56C391.224 419.512 391.208 419.456 391.208 419.392C391.208 419.264 391.288 419.2 391.448 419.2H393.872C394.032 419.2 394.152 419.272 394.232 419.416L395.504 421.84ZM408.532 423.472C409.812 423.472 410.844 423.864 411.628 424.648C412.412 425.432 412.804 426.496 412.804 427.84V435.712C412.804 435.792 412.772 435.864 412.708 435.928C412.66 435.976 412.596 436 412.516 436H409.708C409.628 436 409.556 435.976 409.492 435.928C409.444 435.864 409.42 435.792 409.42 435.712V428.536C409.42 427.896 409.236 427.376 408.868 426.976C408.516 426.576 408.044 426.376 407.452 426.376C406.86 426.376 406.38 426.576 406.012 426.976C405.66 427.376 405.484 427.896 405.484 428.536V435.712C405.484 435.792 405.452 435.864 405.388 435.928C405.34 435.976 405.276 436 405.196 436H402.388C402.308 436 402.236 435.976 402.172 435.928C402.124 435.864 402.1 435.792 402.1 435.712V423.952C402.1 423.872 402.124 423.808 402.172 423.76C402.236 423.696 402.308 423.664 402.388 423.664H405.196C405.276 423.664 405.34 423.696 405.388 423.76C405.452 423.808 405.484 423.872 405.484 423.952V424.792C405.484 424.84 405.5 424.872 405.532 424.888C405.564 424.904 405.588 424.896 405.604 424.864C406.26 423.936 407.236 423.472 408.532 423.472ZM422.761 423.952C422.761 423.872 422.785 423.808 422.833 423.76C422.897 423.696 422.969 423.664 423.049 423.664H425.857C425.937 423.664 426.001 423.696 426.049 423.76C426.113 423.808 426.145 423.872 426.145 423.952V434.896C426.145 436.992 425.537 438.488 424.321 439.384C423.121 440.28 421.569 440.728 419.665 440.728C419.105 440.728 418.481 440.688 417.793 440.608C417.633 440.592 417.553 440.488 417.553 440.296L417.649 437.824C417.649 437.616 417.761 437.528 417.985 437.56C418.561 437.656 419.089 437.704 419.569 437.704C420.593 437.704 421.377 437.48 421.921 437.032C422.481 436.584 422.761 435.864 422.761 434.872C422.761 434.824 422.745 434.8 422.713 434.8C422.681 434.784 422.649 434.792 422.617 434.824C422.009 435.48 421.121 435.808 419.953 435.808C418.913 435.808 417.953 435.56 417.073 435.064C416.209 434.552 415.593 433.736 415.225 432.616C414.985 431.88 414.865 430.928 414.865 429.76C414.865 428.512 415.009 427.496 415.297 426.712C415.633 425.736 416.201 424.952 417.001 424.36C417.801 423.768 418.729 423.472 419.785 423.472C421.017 423.472 421.961 423.84 422.617 424.576C422.649 424.608 422.681 424.624 422.713 424.624C422.745 424.608 422.761 424.576 422.761 424.528V423.952ZM422.569 431.704C422.697 431.224 422.761 430.568 422.761 429.736C422.761 429.24 422.745 428.856 422.713 428.584C422.681 428.312 422.625 428.056 422.545 427.816C422.401 427.384 422.161 427.04 421.825 426.784C421.489 426.512 421.073 426.376 420.577 426.376C420.097 426.376 419.689 426.512 419.353 426.784C419.017 427.04 418.769 427.384 418.609 427.816C418.385 428.296 418.273 428.944 418.273 429.76C418.273 430.656 418.369 431.296 418.561 431.68C418.705 432.112 418.953 432.464 419.305 432.736C419.673 432.992 420.105 433.12 420.601 433.12C421.113 433.12 421.537 432.992 421.873 432.736C422.209 432.464 422.441 432.12 422.569 431.704Z" fill="white"/>
<defs>
<linearGradient id="paint0_linear" x1="278" y1="0" x2="278" y2="555.96" gradientUnits="userSpaceOnUse">
<stop stop-color="#0C267E"/>
<stop offset="1" stop-color="#03144E"/>
</linearGradient>
<linearGradient id="paint1_linear" x1="276" y1="267" x2="275.994" y2="557" gradientUnits="userSpaceOnUse">
<stop stop-color="#004BA4"/>
<stop offset="1" stop-color="#01428F"/>
</linearGradient>
<linearGradient id="paint2_linear" x1="473.5" y1="88.5" x2="286" y2="278.5" gradientUnits="userSpaceOnUse">
<stop stop-color="#00B8C4"/>
<stop offset="1" stop-color="#00848C"/>
</linearGradient>
</defs>
</svg>
