<svg width="90" height="90" viewBox="0 0 90 90" fill="none" xmlns="http://www.w3.org/2000/svg">
<mask id="mask0" mask-type="alpha" maskUnits="userSpaceOnUse" x="0" y="0" width="90" height="90">
<circle cx="45" cy="45" r="43.5" fill="white" stroke="#274C98" stroke-width="3"/>
</mask>
<g mask="url(#mask0)">
<path d="M34.3931 35.3452C29.2549 35.3452 25.0697 39.5256 25.0697 44.6686C25.0697 49.8117 29.2549 53.9921 34.3931 53.9921C39.5346 53.9921 43.7166 49.8101 43.7166 44.6686C43.7166 39.5288 39.5346 35.3452 34.3931 35.3452Z" fill="#1C2F6E"/>
<path d="M27.4603 44.6686C27.4603 48.4921 30.5713 51.6015 34.3931 51.6015C38.2165 51.6015 41.326 48.4921 41.326 44.6686M34.3931 35.3452C29.2549 35.3452 25.0697 39.5256 25.0697 44.6686C25.0697 49.8117 29.2549 53.9921 34.3931 53.9921C39.5346 53.9921 43.7166 49.8101 43.7166 44.6686C43.7166 39.5288 39.5346 35.3452 34.3931 35.3452Z" stroke="#1C2F6E" stroke-width="0.6"/>
<path d="M102 -2.21943C102 -2.24971 101.989 -2.27521 101.986 -2.3039C101.982 -2.35171 101.973 -2.39474 101.963 -2.44096C101.944 -2.54296 101.914 -2.63699 101.871 -2.72784C101.853 -2.76609 101.836 -2.80115 101.814 -2.83621C101.755 -2.93184 101.683 -3.01471 101.6 -3.09121C101.576 -3.11352 101.557 -3.13743 101.531 -3.15656C101.413 -3.2474 101.284 -3.3239 101.136 -3.36693L67.9384 -12.9613C67.9288 -12.9645 67.9176 -12.9597 67.9081 -12.9629C67.8826 -12.9693 67.8555 -12.9693 67.83 -12.9741C67.8157 -12.9772 67.8013 -12.9772 67.787 -12.9804C67.6595 -13.0011 67.5336 -12.9996 67.4061 -12.9788C67.3965 -12.9772 67.3869 -12.9772 67.3774 -12.9741C67.3407 -12.9677 67.3041 -12.9693 67.269 -12.9597L34.4011 -3.46256L1.52681 -12.9629C1.5045 -12.9693 1.48219 -12.9613 1.45987 -12.9661C1.30847 -13.0011 1.15706 -13.0107 1.01044 -12.9868C0.964218 -12.9804 0.924375 -12.9565 0.87975 -12.9454C0.758625 -12.9103 0.647062 -12.8673 0.543469 -12.7987C0.52275 -12.7844 0.49725 -12.7844 0.476531 -12.7701C0.44625 -12.7461 0.431906 -12.7079 0.403219 -12.6808C0.321938 -12.6075 0.255 -12.5262 0.194437 -12.4306C0.159375 -12.3732 0.129094 -12.319 0.105187 -12.2569C0.08925 -12.217 0.0589688 -12.1851 0.0462188 -12.1421C0.0255001 -12.072 0.0350625 -12.0035 0.0286875 -11.9333C0.0239063 -11.8919 0 -11.8552 0 -11.8138V75.8584C0 76.3907 0.352219 76.8592 0.863812 77.0075L34.0074 86.5859C34.0218 86.5907 34.0361 86.5939 34.0505 86.5986L34.0632 86.6018C34.0871 86.6082 34.1126 86.6066 34.1381 86.613C34.2242 86.6321 34.3102 86.656 34.3995 86.656C34.5111 86.656 34.6226 86.6401 34.731 86.6098L67.6053 77.1095L100.473 86.605C100.582 86.6369 100.693 86.6512 100.805 86.6512C101.061 86.6512 101.313 86.5684 101.523 86.4122C101.823 86.1827 102 85.8289 102 85.4527C102 74.8288 102 8.5081 102 -2.21943ZM34.3931 62.9362C30.353 58.9853 22.2009 49.9249 22.2009 44.6703C22.2009 42.5522 22.6695 40.705 23.4536 39.1224C23.7469 38.8435 23.7548 38.7017 23.7931 38.4738C26.0578 34.5659 30.396 32.502 34.5589 32.502C41.7228 32.502 46.5853 38.4196 46.5853 44.6687C46.5853 49.9201 38.4333 58.9822 34.3931 62.9362ZM2.39062 10.5401L33.1978 20.2572V30.1751C28.8277 30.5815 24.5549 32.9371 22.0527 36.8306L2.39062 30.6325V10.5401ZM99.6094 -1.31737V17.7503L82.1339 12.2407C82.1466 12.059 82.1897 11.8693 82.1897 11.6924C82.1897 4.04879 76.2864 -2.23059 68.791 -2.84577V-10.2248L99.6094 -1.31737ZM67.6037 29.9408C63.6942 26.1366 55.3987 16.9948 55.3987 11.694C55.3987 4.9891 60.851 -0.479056 67.5702 -0.512526C67.5798 -0.512526 67.5861 -0.507744 67.5957 -0.507744C67.6069 -0.507744 67.6148 -0.514119 67.626 -0.514119C74.3389 -0.502963 79.799 4.96838 79.799 11.694C79.799 17.0299 71.4621 26.1573 67.6037 29.9408ZM66.3956 -2.84259C58.3296 -2.16684 52.5507 4.98591 53.0639 12.2391L35.5932 17.7503V-1.31418L66.3956 -10.2153V-2.84259ZM46.6762 36.8529C44.1644 32.867 40.2167 30.4907 35.5948 30.1783V20.2588L53.5102 14.6058C55.3828 20.619 62.1626 27.8833 65.2704 30.9895L46.6762 36.8529ZM81.6861 14.6074L99.6094 20.2572V40.3496L69.9305 30.9927C73.0176 27.8849 79.815 20.5616 81.6861 14.6074ZM33.1978 -1.31896V17.7503L2.39062 8.03316V-10.2216L33.1978 -1.31896ZM2.39062 33.1395L20.9259 38.9838C20.2231 40.6732 19.8103 42.5697 19.8103 44.6703C19.8103 50.0524 26.0594 57.6211 30.1426 61.9927L2.39062 53.2431V33.1395ZM48.9759 44.6687C48.9759 42.7132 48.5663 40.7831 47.8157 38.9997L66.3956 33.1427V53.2447L38.6405 61.9959C42.7237 57.6243 48.9759 50.0524 48.9759 44.6687ZM68.7926 33.1411L99.6094 42.8566V62.957L68.7926 53.2415V33.1411ZM2.39062 74.9595V55.75L33.1978 65.4623V83.8638L2.39062 74.9595ZM35.5932 65.4639L66.3956 55.7532V74.9691L35.5932 83.8701V65.4639ZM68.7926 74.9611V55.7484L99.6094 65.4639V83.8638L68.7926 74.9611Z" fill="#1C2F6E" stroke="#1C2F6E" stroke-width="0.6"/>
<circle cx="45" cy="45" r="43.5" stroke="#1C2F6E" stroke-width="3"/>
</g>
</svg>
