<svg xmlns="http://www.w3.org/2000/svg" id="prefix__icon_hocsinh" viewBox="0 0 96.836 67.107">
    <g id="prefix__Layer_1" data-name="Layer 1">
        <path id="prefix__Path_278" d="M78.181 33.848v18.081l-1.2.711c-18.655 10.854-37.265 10.1-56.192-.045l-1.134-.62V34.34L48.414 47.7zm0 20.832v4.22c-17.9 10.484-37.273 11.4-58.528 0v-4.22c21.278 11.414 40.647 10.485 58.547 0zM84 28.519L59.344 17.854l2.132-2.8 26.788 11.462V49.4l-2.222-2.8L84 49.4zM0 22.525L48.414 0l48.422 22.525-5.636 2.661-30.48-13.092-5.148 6.712L81.114 29.82l-32.7 15.269z" data-name="Path 278" style="fill:#fff;fill-rule:evenodd"/>
    </g>
</svg>
