<svg xmlns="http://www.w3.org/2000/svg" id="prefix__icon_truonghoc" viewBox="0 0 122 87.982">
    <g id="prefix__Layer_1" data-name="Layer 1">
        <path id="prefix__Path_279" d="M61.7 0h-1.39a.22.22 0 0 0-.051.119V18H1.33A1.347 1.347 0 0 0 0 19.33v66.281a2.38 2.38 0 0 0 2.372 2.372h18.753V40.048H28.8l13.832-9.487L60.987 18 79.36 30.561l13.815 9.487h7.7v47.935h18.754A2.38 2.38 0 0 0 122 85.611V19.33a1.347 1.347 0 0 0-1.33-1.33H61.758V7.623H72.77V0H61.758v.119A.2.2 0 0 0 61.7 0zm36.066 87.983H89.6V62.741a7.759 7.759 0 0 0-15.509 0 1.965 1.965 0 0 0 .059.584c-.059.059-.059.11-.059.229v24.429h-5.328V63.528c0-.119 0-.169-.059-.229a1.965 1.965 0 0 0 .059-.584 7.759 7.759 0 0 0-15.509 0 2.279 2.279 0 0 0 .051.584c-.051.059-.051.11-.051.229v24.429h-5.328V63.528c0-.119 0-.169-.059-.229a1.965 1.965 0 0 0 .059-.584 7.759 7.759 0 0 0-15.509 0 1.965 1.965 0 0 0 .059.584c-.059.059-.059.11-.059.229v24.429h-8.166V43.2h73.515zM60.987 22.108l12.325 8.47 12.409 8.5H36.355l12.325-8.517z" data-name="Path 279" style="fill:#fff;fill-rule:evenodd"/>
    </g>
</svg>
