<svg xmlns="http://www.w3.org/2000/svg" id="prefix__icon_cauhoi" viewBox="0 0 125 61.914">
    <g id="prefix__Layer_1" data-name="Layer 1">
        <path id="prefix__Path_276" d="M25.532 0h73.906a1.742 1.742 0 0 1 1.645 1.809V16.7a1.712 1.712 0 0 1-1.645 1.8H25.532a1.712 1.712 0 0 1-1.607-1.8 1.742 1.742 0 0 1 1.645-1.809h1.877a3.32 3.32 0 0 0 2.108.748h69.06V2.946h-69.1a3.619 3.619 0 0 0-2.108.673h-1.875a1.712 1.712 0 0 1-1.607-1.809A1.75 1.75 0 0 1 25.532 0zM5.346 47.027h109.478a2.445 2.445 0 0 1 2.557 2.318v6.609a2.437 2.437 0 0 1-2.557 2.363H5.346zm14.669-21.682h81.442a2.475 2.475 0 0 1 2.557 2.318v6.654a2.43 2.43 0 0 1-2.557 2.243H20.015zm9.5-21.682h68.3v11.223h-68.3a2.422 2.422 0 0 1-2.5-2.325v-6.58a2.46 2.46 0 0 1 2.5-2.325zm92.814 39.745H2.677c-1.5 0-2.677.748-2.677 1.809V60.1c0 .987 1.2 1.809 2.677 1.809H122.3c1.5 0 2.669-.822 2.669-1.809 0-.979-1.2-1.809-2.669-1.809h-5.4a3.611 3.611 0 0 1-2.1.673H4.606V46.31h110.218a3.312 3.312 0 0 1 2.1.748h5.406c1.5 0 2.669-.822 2.669-1.809 0-1.032-1.2-1.809-2.669-1.809zm-15.3-3.2H18.056a1.862 1.862 0 0 1-1.989-1.808V23.514a1.892 1.892 0 0 1 1.959-1.832H107a1.936 1.936 0 0 1 2 1.809 1.9 1.9 0 0 1-2 1.809h-3.065a4.149 4.149 0 0 0-2.5-.875H19v13.092h82.459a3.88 3.88 0 0 0 2.5-.927h3.065a1.936 1.936 0 0 1 2 1.809 1.9 1.9 0 0 1-2 1.809z" data-name="Path 276" style="fill:#fff;fill-rule:evenodd"/>
    </g>
</svg>
