<svg xmlns="http://www.w3.org/2000/svg" viewBox="0 0 80.131 67.434">
    <g id="prefix__icon_giaovien" transform="translate(0 -6.348)">
        <path id="prefix__Path_277" d="M48.355 17.922a14.56 14.56 0 0 1 6.776 10.817 11.747 11.747 0 1 0-6.776-10.817zm-7.7 24.062A11.751 11.751 0 1 0 28.9 30.233a11.752 11.752 0 0 0 11.756 11.751zm4.985.8h-9.971a15.065 15.065 0 0 0-15.047 15.049v12.195l.031.191.84.263a68.493 68.493 0 0 0 20.459 3.3c11.059 0 17.469-3.153 17.864-3.354l.785-.4h.084v-12.2a15.06 15.06 0 0 0-15.044-15.043zm19.444-12.131h-9.9a14.483 14.483 0 0 1-4.47 10.088 17.88 17.88 0 0 1 12.776 17.11v3.758c9.77-.358 15.4-3.127 15.771-3.313l.785-.4h.084V45.7a15.064 15.064 0 0 0-15.046-15.047zm-45.049-.8a11.674 11.674 0 0 0 6.25-1.814 14.544 14.544 0 0 1 5.467-9.276c.012-.22.033-.438.033-.66a11.751 11.751 0 1 0-11.75 11.75zm10.554 10.888a14.492 14.492 0 0 1-4.467-10.032c-.367-.027-.73-.056-1.1-.056h-9.975A15.064 15.064 0 0 0 0 45.7v12.2l.031.188.84.265a70.549 70.549 0 0 0 16.945 3.185v-3.687a17.883 17.883 0 0 1 12.773-17.11z" data-name="Path 277" style="fill:#fff"/>
    </g>
</svg>
