<svg width="18" height="18" viewBox="0 0 18 18" fill="none" xmlns="http://www.w3.org/2000/svg">
<path d="M0.333008 8.99998C0.333008 13.7772 4.22244 17.6666 8.99967 17.6666C13.7769 17.6666 17.6663 13.7772 17.6663 8.99998C17.6663 4.22274 13.7769 0.333313 8.99967 0.333313C4.22244 0.333313 0.333008 4.22274 0.333008 8.99998ZM4.58179 8.57722C4.96228 8.19673 5.57528 8.19673 5.93463 8.57722L7.18179 9.82437C7.35089 9.99348 7.64683 9.99348 7.81593 9.82437L12.0647 5.57559C12.4452 5.1951 13.0582 5.1951 13.4176 5.57559C13.798 5.95608 13.798 6.56909 13.4176 6.92844L8.17528 12.1707C7.79479 12.5512 7.18179 12.5512 6.82244 12.1707L4.58179 9.93006C4.2013 9.54957 4.2013 8.9577 4.58179 8.57722Z" fill="white"/>
</svg>
