<svg width="16" height="12" viewBox="0 0 16 12" fill="none" xmlns="http://www.w3.org/2000/svg">
<path d="M15.85 2.60177C15.85 2.60177 15.7 1.43363 15.2 0.902655C14.6 0.21239 13.9 0.212389 13.6 0.159292C11.35 9.49454e-08 8 0 8 0C8 0 4.65 9.49454e-08 2.4 0.159292C2.1 0.212389 1.4 0.21239 0.8 0.902655C0.3 1.43363 0.15 2.60177 0.15 2.60177C0.15 2.60177 0 3.9823 0 5.36283V6.63717C0 8.0177 0.15 9.39823 0.15 9.39823C0.15 9.39823 0.3 10.5664 0.8 11.0973C1.4 11.7876 2.2 11.7345 2.55 11.8407C3.85 11.9469 8 12 8 12C8 12 11.35 12 13.6 11.8407C13.9 11.7876 14.6 11.7876 15.2 11.0973C15.7 10.5664 15.85 9.39823 15.85 9.39823C15.85 9.39823 16 8.0177 16 6.63717V5.36283C16 3.9823 15.85 2.60177 15.85 2.60177ZM6.35 8.23009V3.45133L10.65 5.84071L6.35 8.23009Z" fill="white"/>
</svg>
