<svg width="84" height="18" viewBox="0 0 84 18" fill="none" xmlns="http://www.w3.org/2000/svg">
<path d="M19.1373 0H0V18L19.1373 0Z" fill="#44C8F5"/>
<path d="M9.56863 0H0V9L9.56863 0Z" fill="black"/>
<path d="M45.8432 3.91992L43.3726 14.0799H47.7647L50.2745 3.91992H45.8432Z" fill="#00A1E4"/>
<path d="M35.7649 9.79988H34.7453L36.3924 6.87988L36.9022 9.79988H35.7649ZM35.1374 3.91988L29.4512 14.0799H32.3531L33.3335 12.3999H35.7649H37.3727L37.6865 14.0799H42.0002L40.1571 3.87988H35.1374V3.91988Z" fill="#00A1E4"/>
<path d="M65.9999 3.91992L63.5293 14.0799H67.9214L70.4312 3.91992H65.9999Z" fill="#00A1E4"/>
<path d="M64.0394 3.91992H59.4903L55.7256 7.23992L56.5491 3.91992H52.3138L49.8433 14.0799H54.0393L54.9021 10.5599L57.1766 14.0799H62.2746L58.4707 8.75992L64.0394 3.91992Z" fill="#00A1E4"/>
<path d="M26 8.51992C26 8.51992 25.7255 11.8399 22.9412 11.8399H22.0784H21.3725L22.7451 6.35992H24.1568C24.7059 6.35992 26.1569 6.47992 26 8.51992ZM25.7647 3.91992H24.6274H19.1372L16.6274 14.1199H22.1176H24.2745C27.3333 14.1199 30.3529 11.7999 30.3529 8.23992C30.3529 4.03992 25.7647 3.91992 25.7647 3.91992Z" fill="#00A1E4"/>
<path d="M80.9412 3.91992L79.4902 9.91992L77.5294 3.91992H72.6275L70.1177 14.0799H73.1765L74.6667 8.03992L76.6275 14.0799H81.5294L84 3.91992H80.9412Z" fill="#00A1E4"/>
</svg>
