<svg width="429" height="80" viewBox="0 0 429 80" fill="none" xmlns="http://www.w3.org/2000/svg">
<path fill-rule="evenodd" clip-rule="evenodd" d="M223.755 55.5792V23.8535H251.674C254.114 23.8535 256.035 24.3639 257.251 25.3874C258.3 26.2395 259 27.9449 259 29.9944V37.1576C259 39.2058 258.3 40.91 257.251 41.762C256.035 42.7868 254.114 43.296 251.674 43.296H231.257V55.5792H223.755ZM248.183 29.3112H231.257V37.8369H248.183C249.576 37.8369 250.45 37.6706 250.976 37.1576C251.325 36.816 251.674 36.1328 251.674 35.2807V31.8687C251.674 31.0154 251.325 30.3322 250.976 29.9944C250.45 29.4827 249.576 29.3112 248.183 29.3112Z" fill="#828282"/>
<path fill-rule="evenodd" clip-rule="evenodd" d="M265.328 55.5792V23.8535H293.072C295.693 23.8535 297.604 24.3639 298.823 25.3874C299.873 26.2395 300.573 27.9449 300.573 29.9944V37.4979C300.573 39.7138 299.873 41.2528 298.823 42.1049C297.604 43.1271 295.693 43.6388 293.072 43.6388H288.882L303.89 55.5792H293.072L279.986 43.6388H272.826V55.5792H265.328ZM289.758 29.3112H272.826V38.1811H289.758C291.149 38.1811 292.025 38.0084 292.546 37.6706C292.895 37.3277 293.249 36.6446 293.249 35.6236V31.8687C293.249 31.0154 292.895 30.3322 292.546 29.9944C292.025 29.4827 291.149 29.3112 289.758 29.3112Z" fill="#828282"/>
<path fill-rule="evenodd" clip-rule="evenodd" d="M309.474 55.5792V23.8535H342.794V29.3112H317.149V36.3042H332.15V41.762H317.149V49.6084H343.143V55.5792H309.474Z" fill="#828282"/>
<path fill-rule="evenodd" clip-rule="evenodd" d="M378.593 29.4827H357.308V36.3042H377.549C380.686 36.3042 382.955 36.816 384.004 37.8382C385.219 38.8642 385.747 40.91 385.747 43.8103V48.0757C385.747 50.9709 385.219 53.0179 384.004 54.0439C382.955 55.0674 380.686 55.5792 377.549 55.5792H357.487C354.343 55.5792 352.256 55.0674 351.029 54.0439C349.985 53.0179 349.459 50.9709 349.459 48.0757V47.2198L356.094 45.8573V49.6084H378.947V42.4452H358.706C355.569 42.4452 353.477 41.9334 352.428 40.7398C351.204 39.7138 350.677 37.8382 350.677 34.9392V31.3582C350.677 28.4592 351.204 26.5823 352.428 25.5588C353.477 24.3639 355.569 23.8535 358.706 23.8535H377.197C380.337 23.8535 382.432 24.3639 383.481 25.3874C384.694 26.4109 385.219 28.2877 385.219 30.8439V31.5296L378.593 33.0623V29.4827Z" fill="#828282"/>
<path fill-rule="evenodd" clip-rule="evenodd" d="M421.588 29.4827H400.313V36.3042H420.549C423.69 36.3042 425.782 36.816 426.999 37.8382C428.048 38.8642 428.571 40.91 428.571 43.8103V48.0757C428.571 50.9709 428.048 53.0179 426.999 54.0439C425.782 55.0674 423.69 55.5792 420.549 55.5792H400.487C397.347 55.5792 395.082 55.0674 394.028 54.0439C392.804 53.0179 392.288 50.9709 392.288 48.0757V47.2198L398.922 45.8573V49.6084H421.94V42.4452H401.705C398.57 42.4452 396.47 41.9334 395.256 40.7398C394.205 39.7138 393.679 37.8382 393.679 34.9392V31.3582C393.679 28.4592 394.205 26.5823 395.256 25.5588C396.47 24.3639 398.57 23.8535 401.705 23.8535H420.199C423.165 23.8535 425.256 24.3639 426.477 25.3874C427.697 26.4109 428.225 28.2877 428.225 30.8439V31.5296L421.588 33.0623V29.4827Z" fill="#828282"/>
<path fill-rule="evenodd" clip-rule="evenodd" d="M174.598 55.5792L189.95 39.3747L174.249 23.8535H184.368L194.666 34.5976L204.604 23.8535H213.151L199.024 38.5214L216.643 55.5792H206.35L194.491 43.296L183.495 55.5792H174.598Z" fill="#828282"/>
<path fill-rule="evenodd" clip-rule="evenodd" d="M18.8429 55.5792L0 23.8535H8.7234L21.8078 46.8795L34.3676 23.8535H41.8689L24.0754 55.5792H18.8429Z" fill="#828282"/>
<path fill-rule="evenodd" clip-rule="evenodd" d="M47.7885 55.5792V23.8535H52.847L75.699 42.6154C76.573 43.296 77.2743 43.809 77.7951 44.322C78.4938 44.8325 79.0159 45.5144 79.5406 46.0287C79.3652 44.322 79.1886 42.9557 79.1886 42.2763V40.5671V23.8535H85.9951V55.5792H80.7639L56.8587 35.9639C56.3392 35.4522 55.8132 35.1106 55.4639 34.5976C54.9392 34.2573 54.5977 33.9169 54.247 33.4052C54.421 34.4274 54.421 35.2807 54.421 36.3042C54.5976 37.1576 54.5977 37.8369 54.5977 38.5214V55.5792H47.7885Z" fill="#828282"/>
<path fill-rule="evenodd" clip-rule="evenodd" d="M166.332 76.1905C166.332 78.2946 164.588 80 162.436 80H97.5008C95.3488 80 93.6047 78.2946 93.6047 76.1905V3.80952C93.6047 1.7054 95.3488 0 97.5008 0H162.436C164.588 0 166.332 1.7054 166.332 3.80952V76.1905Z" fill="#9F224E"/>
<path fill-rule="evenodd" clip-rule="evenodd" d="M116.981 30.61V31.8798V34.2861H121.52H135.163V45.7147H121.52H116.981V48.3877V49.6576V52.1973V56.0068V59.683H121.52H155.942V69.8417H119.955H103.994V10.1592H119.955H155.942V20.3179H121.52H116.981V24.2608V28.0703V30.61ZM120.877 24.1274H156.319C158.47 24.1274 159.838 22.5541 159.838 20.4512V10.2925C159.838 8.18965 158.47 6.34965 156.319 6.34965H119.955H104.371C102.219 6.34965 100.098 8.18965 100.098 10.2925V69.975C100.098 72.0779 102.219 73.6512 104.371 73.6512H119.955H156.319C158.47 73.6512 159.838 72.0779 159.838 69.975V59.8163C159.838 57.7134 158.47 55.8734 156.319 55.8734H120.877V52.1973V49.5242H135.54C137.69 49.5242 139.059 47.9509 139.059 45.848V34.4195C139.059 32.3166 137.69 30.4766 135.54 30.4766H120.877V28.0703V24.1274Z" fill="white"/>
</svg>
