<svg width="24" height="24" viewBox="0 0 24 24" fill="none" xmlns="http://www.w3.org/2000/svg">
<path d="M11.29 8.46002L5.64004 14.12C5.54631 14.213 5.47191 14.3236 5.42115 14.4454C5.37038 14.5673 5.34424 14.698 5.34424 14.83C5.34424 14.962 5.37038 15.0927 5.42115 15.2146C5.47191 15.3365 5.54631 15.4471 5.64004 15.54C5.8274 15.7263 6.08085 15.8308 6.34504 15.8308C6.60922 15.8308 6.86267 15.7263 7.05004 15.54L12.05 10.59L17 15.54C17.1874 15.7263 17.4409 15.8308 17.705 15.8308C17.9692 15.8308 18.2227 15.7263 18.41 15.54C18.5045 15.4474 18.5797 15.337 18.6312 15.2151C18.6827 15.0932 18.7095 14.9623 18.71 14.83C18.7095 14.6977 18.6827 14.5668 18.6312 14.445C18.5797 14.3231 18.5045 14.2126 18.41 14.12L12.76 8.46002C12.6664 8.35851 12.5527 8.2775 12.4262 8.2221C12.2997 8.16669 12.1631 8.13809 12.025 8.13809C11.8869 8.13809 11.7503 8.16669 11.6238 8.2221C11.4973 8.2775 11.3837 8.35851 11.29 8.46002Z" fill="#222222"/>
</svg>
