<svg width="42" height="42" viewBox="0 0 42 42" fill="none" xmlns="http://www.w3.org/2000/svg">
<path d="M37.7082 27.7971C37.7059 25.9553 37.0041 24.1831 35.7448 22.8391C34.4855 21.495 32.7627 20.6795 30.9249 20.5574V8.88661C30.9248 8.73435 30.8643 8.58835 30.7566 8.48072L26.1356 3.85973C26.028 3.75203 25.882 3.69148 25.7297 3.69141H4.86621C4.79079 3.69136 4.7161 3.70619 4.64642 3.73503C4.57673 3.76387 4.51341 3.80617 4.46008 3.85949C4.40675 3.91282 4.36446 3.97614 4.33561 4.04583C4.30677 4.11552 4.29195 4.19021 4.29199 4.26563V37.7344C4.29195 37.8098 4.30677 37.8845 4.33561 37.9542C4.36446 38.0239 4.40675 38.0872 4.46008 38.1405C4.51341 38.1938 4.57673 38.2361 4.64642 38.265C4.7161 38.2938 4.79079 38.3086 4.86621 38.3086H30.3517C30.4271 38.3086 30.5018 38.2938 30.5715 38.265C30.6412 38.2361 30.7045 38.1938 30.7578 38.1405C30.8111 38.0872 30.8534 38.0239 30.8823 37.9542C30.9111 37.8845 30.9259 37.8098 30.9259 37.7344V35.0369C32.7635 34.9144 34.486 34.0987 35.745 32.7547C37.0041 31.4107 37.7058 29.6387 37.7082 27.7971V27.7971ZM26.3039 5.65195L28.9644 8.31239H26.3039V5.65195ZM5.44043 37.1602V4.83984H25.1555V8.88661C25.1555 8.96203 25.1703 9.03672 25.1991 9.1064C25.228 9.17609 25.2703 9.23941 25.3236 9.29274C25.3769 9.34607 25.4402 9.38836 25.5099 9.41721C25.5796 9.44605 25.6543 9.46087 25.7297 9.46083H29.7765V20.5734C27.9763 20.7409 26.3034 21.5743 25.0856 22.9107C23.8678 24.247 23.1928 25.9898 23.1928 27.7978C23.1928 29.6057 23.8678 31.3486 25.0856 32.6849C26.3034 34.0212 27.9763 34.8547 29.7765 35.0221V37.1608L5.44043 37.1602ZM30.4501 33.9055C29.2421 33.9052 28.0612 33.5468 27.0568 32.8754C26.0525 32.204 25.2698 31.25 24.8077 30.1338C24.3455 29.0176 24.2247 27.7894 24.4606 26.6046C24.6964 25.4198 25.2783 24.3315 26.1326 23.4774C26.9869 22.6232 28.0754 22.0416 29.2602 21.806C30.4451 21.5704 31.6732 21.6915 32.7893 22.1538C33.9054 22.6162 34.8593 23.3991 35.5305 24.4036C36.2016 25.4081 36.5598 26.589 36.5598 27.7971C36.5579 29.4168 35.9135 30.9696 34.7681 32.1147C33.6227 33.2599 32.0698 33.9039 30.4501 33.9055V33.9055Z" fill="#F37021"/>
<path d="M33.394 25.0182C33.2672 24.9341 33.1122 24.9037 32.9631 24.9337C32.8139 24.9637 32.6827 25.0517 32.5983 25.1783L29.6262 29.649L27.9304 27.8578C27.8797 27.7992 27.8177 27.7514 27.748 27.7174C27.6784 27.6834 27.6026 27.6638 27.5252 27.6599C27.4478 27.656 27.3704 27.6678 27.2976 27.6946C27.2249 27.7213 27.1583 27.7626 27.102 27.8158C27.0456 27.869 27.0006 27.933 26.9696 28.0041C26.9387 28.0752 26.9224 28.1518 26.9219 28.2293C26.9213 28.3068 26.9365 28.3836 26.9664 28.4551C26.9963 28.5266 27.0404 28.5913 27.096 28.6453L29.2876 30.9628C29.3411 31.0196 29.4058 31.0649 29.4775 31.0958C29.5492 31.1267 29.6265 31.1427 29.7046 31.1426C29.721 31.1426 29.7374 31.1426 29.7538 31.1403C29.8398 31.133 29.9231 31.1064 29.9973 31.0624C30.0716 31.0185 30.1349 30.9583 30.1827 30.8864L33.5545 25.8146C33.5963 25.7517 33.6253 25.6813 33.6398 25.6073C33.6544 25.5333 33.6542 25.4571 33.6393 25.3831C33.6244 25.3092 33.595 25.2389 33.553 25.1763C33.5109 25.1136 33.4569 25.0599 33.394 25.0182V25.0182Z" fill="#F37021"/>
<path d="M21.546 23.1078H9.54321C9.39092 23.1078 9.24487 23.1683 9.13718 23.276C9.02949 23.3837 8.96899 23.5298 8.96899 23.6821C8.96899 23.8344 9.02949 23.9804 9.13718 24.0881C9.24487 24.1958 9.39092 24.2563 9.54321 24.2563H21.546C21.6983 24.2563 21.8444 24.1958 21.9521 24.0881C22.0597 23.9804 22.1202 23.8344 22.1202 23.6821C22.1202 23.5298 22.0597 23.3837 21.9521 23.276C21.8444 23.1683 21.6983 23.1078 21.546 23.1078V23.1078Z" fill="#F37021"/>
<path d="M9.54321 27.6993H16.7344C16.8867 27.6993 17.0327 27.6388 17.1404 27.5312C17.2481 27.4235 17.3086 27.2774 17.3086 27.1251C17.3086 26.9728 17.2481 26.8268 17.1404 26.7191C17.0327 26.6114 16.8867 26.5509 16.7344 26.5509H9.54321C9.39092 26.5509 9.24487 26.6114 9.13718 26.7191C9.02949 26.8268 8.96899 26.9728 8.96899 27.1251C8.96899 27.2774 9.02949 27.4235 9.13718 27.5312C9.24487 27.6388 9.39092 27.6993 9.54321 27.6993V27.6993Z" fill="#F37021"/>
<path d="M21.546 29.9939H9.54321C9.39092 29.9939 9.24487 30.0544 9.13718 30.1621C9.02949 30.2698 8.96899 30.4158 8.96899 30.5681C8.96899 30.7204 9.02949 30.8665 9.13718 30.9741C9.24487 31.0818 9.39092 31.1423 9.54321 31.1423H21.546C21.6983 31.1423 21.8444 31.0818 21.9521 30.9741C22.0597 30.8665 22.1202 30.7204 22.1202 30.5681C22.1202 30.4158 22.0597 30.2698 21.9521 30.1621C21.8444 30.0544 21.6983 29.9939 21.546 29.9939V29.9939Z" fill="#F37021"/>
<path d="M16.7344 33.436H9.54321C9.39092 33.436 9.24487 33.4965 9.13718 33.6042C9.02949 33.7118 8.96899 33.8579 8.96899 34.0102C8.96899 34.1625 9.02949 34.3085 9.13718 34.4162C9.24487 34.5239 9.39092 34.5844 9.54321 34.5844H16.7344C16.8867 34.5844 17.0327 34.5239 17.1404 34.4162C17.2481 34.3085 17.3086 34.1625 17.3086 34.0102C17.3086 33.8579 17.2481 33.7118 17.1404 33.6042C17.0327 33.4965 16.8867 33.436 16.7344 33.436V33.436Z" fill="#F37021"/>
<path d="M9.54321 20.4258H25.7296C25.805 20.4258 25.8797 20.411 25.9494 20.3822C26.0191 20.3533 26.0824 20.311 26.1358 20.2577C26.1891 20.2044 26.2314 20.141 26.2602 20.0714C26.2891 20.0017 26.3039 19.927 26.3038 19.8516V11.6642C26.3039 11.5888 26.2891 11.5141 26.2602 11.4444C26.2314 11.3747 26.1891 11.3114 26.1358 11.2581C26.0824 11.2047 26.0191 11.1624 25.9494 11.1336C25.8797 11.1047 25.805 11.0899 25.7296 11.09H9.54321C9.46779 11.0899 9.3931 11.1047 9.32342 11.1336C9.25373 11.1624 9.19041 11.2047 9.13708 11.2581C9.08375 11.3114 9.04146 11.3747 9.01262 11.4444C8.98377 11.5141 8.96895 11.5888 8.96899 11.6642V19.8516C8.96895 19.927 8.98377 20.0017 9.01262 20.0714C9.04146 20.141 9.08375 20.2044 9.13708 20.2577C9.19041 20.311 9.25373 20.3533 9.32342 20.3822C9.3931 20.411 9.46779 20.4258 9.54321 20.4258V20.4258ZM10.1174 12.2391H25.1554V19.2773H10.1174V12.2391Z" fill="#F37021"/>
</svg>
