<svg width="42" height="42" viewBox="0 0 42 42" fill="none" xmlns="http://www.w3.org/2000/svg">
<path d="M25.9219 11.9766C26.3749 11.9766 26.7422 11.6093 26.7422 11.1562C26.7422 10.7032 26.3749 10.3359 25.9219 10.3359C25.4688 10.3359 25.1016 10.7032 25.1016 11.1562C25.1016 11.6093 25.4688 11.9766 25.9219 11.9766Z" fill="#F37021"/>
<path d="M21 11.9766C21.453 11.9766 21.8203 11.6093 21.8203 11.1562C21.8203 10.7032 21.453 10.3359 21 10.3359C20.547 10.3359 20.1797 10.7032 20.1797 11.1562C20.1797 11.6093 20.547 11.9766 21 11.9766Z" fill="#F37021"/>
<path d="M16.0781 11.9766C16.5312 11.9766 16.8984 11.6093 16.8984 11.1562C16.8984 10.7032 16.5312 10.3359 16.0781 10.3359C15.6251 10.3359 15.2578 10.7032 15.2578 11.1562C15.2578 11.6093 15.6251 11.9766 16.0781 11.9766Z" fill="#F37021"/>
<path d="M41.1797 32.4844H38.3086V11.1562C38.3086 10.7032 37.9413 10.3359 37.4883 10.3359H31.6641V6.23438C31.6641 4.42509 30.1921 2.95312 28.3828 2.95312H13.6172C11.8079 2.95312 10.3359 4.42509 10.3359 6.23438V10.3359H4.51172C4.05866 10.3359 3.69141 10.7032 3.69141 11.1562V32.4844H0.820312C0.367254 32.4844 0 32.8516 0 33.3047C0 36.4709 2.57595 39.0469 5.74219 39.0469H17.3086C17.7617 39.0469 18.1289 38.6796 18.1289 38.2266C18.1289 37.7735 17.7617 37.4062 17.3086 37.4062H5.74219C3.76146 37.4062 2.10418 35.9948 1.72298 34.1242H40.2769C39.8959 35.9948 38.2385 37.4062 36.2578 37.4062H24.6914C24.2384 37.4062 23.8711 37.7735 23.8711 38.2266C23.8711 38.6796 24.2384 39.0469 24.6914 39.0469H36.2578C39.4241 39.0469 42 36.4709 42 33.3047C42 32.8516 41.6327 32.4844 41.1797 32.4844ZM11.9766 6.23438C11.9766 5.32973 12.7125 4.59375 13.6172 4.59375H28.3828C29.2875 4.59375 30.0234 5.32973 30.0234 6.23438V16.0781C30.0234 16.9828 29.2875 17.7188 28.3828 17.7188H23.4609C23.1502 17.7188 22.8662 17.8943 22.7272 18.1722L21 21.6266L19.2728 18.1722C19.1338 17.8943 18.8498 17.7188 18.5391 17.7188H13.6172C12.7125 17.7188 11.9766 16.9828 11.9766 16.0781V6.23438ZM36.668 32.4844H5.33203V11.9766H10.3359V16.0781C10.3359 17.8874 11.8079 19.3594 13.6172 19.3594H18.0321L20.2663 23.8278C20.4053 24.1057 20.6893 24.2812 21 24.2812C21.3107 24.2812 21.5947 24.1057 21.7337 23.8278L23.968 19.3594H28.3828C30.1921 19.3594 31.6641 17.8874 31.6641 16.0781V11.9766H36.668V32.4844Z" fill="#F37021"/>
<path d="M21 39.0469C21.453 39.0469 21.8203 38.6796 21.8203 38.2266C21.8203 37.7735 21.453 37.4062 21 37.4062C20.547 37.4062 20.1797 37.7735 20.1797 38.2266C20.1797 38.6796 20.547 39.0469 21 39.0469Z" fill="#F37021"/>
</svg>
