<svg width="42" height="42" viewBox="0 0 42 42" fill="none" xmlns="http://www.w3.org/2000/svg">
<path d="M37.4062 22.6603V9.79125C39.629 9.471 41.3438 7.55934 41.3438 5.25C41.3438 2.71753 39.2831 0.65625 36.75 0.65625C34.2169 0.65625 32.1562 2.71753 32.1562 5.25H0.65625V31.5H20.3772C20.7185 36.9836 25.2761 41.3438 30.8438 41.3438C36.6332 41.3438 41.3438 36.6332 41.3438 30.8438C41.3438 27.5369 39.8035 24.5864 37.4062 22.6603ZM36.75 1.96875C38.5593 1.96875 40.0312 3.44072 40.0312 5.25C40.0312 7.05928 38.5593 8.53125 36.75 8.53125C34.9407 8.53125 33.4688 7.05928 33.4688 5.25C33.4688 3.44072 34.9407 1.96875 36.75 1.96875ZM1.96875 6.5625H32.3498C32.5067 7.08619 32.7561 7.56853 33.0763 7.99641L29.0627 12.01C28.8054 11.8867 28.5219 11.8125 28.2188 11.8125C27.9156 11.8125 27.6321 11.8867 27.3755 12.01L26.0531 10.6877C26.1758 10.4304 26.25 10.1469 26.25 9.84375C26.25 8.75831 25.3667 7.875 24.2812 7.875C23.1958 7.875 22.3125 8.75831 22.3125 9.84375C22.3125 10.1469 22.3867 10.4304 22.51 10.687L19.2189 13.9781C18.9617 13.8554 18.6782 13.7812 18.375 13.7812C17.2896 13.7812 16.4062 14.6646 16.4062 15.75C16.4062 16.8354 17.2896 17.7188 18.375 17.7188C19.4604 17.7188 20.3438 16.8354 20.3438 15.75C20.3438 15.4468 20.2696 15.1633 20.1462 14.9067L23.4373 11.6156C23.6946 11.7383 23.9781 11.8125 24.2812 11.8125C24.5844 11.8125 24.8679 11.7383 25.1245 11.615L26.4469 12.9373C26.3242 13.1946 26.25 13.4781 26.25 13.7812C26.25 14.8667 27.1333 15.75 28.2188 15.75C29.3042 15.75 30.1875 14.8667 30.1875 13.7812C30.1875 13.4781 30.1133 13.1946 29.99 12.938L34.0043 8.92434C34.6047 9.37453 35.3174 9.67969 36.0938 9.79191V21.7652C34.547 20.8668 32.7574 20.3438 30.8438 20.3438C27.7069 20.3438 24.8942 21.7337 22.9688 23.9223V21H19.0312V28.875H20.5354C20.454 29.3035 20.4048 29.7426 20.3772 30.1875H1.96875V6.5625ZM28.2188 13.125C28.5803 13.125 28.875 13.419 28.875 13.7812C28.875 14.1435 28.5803 14.4375 28.2188 14.4375C27.8572 14.4375 27.5625 14.1435 27.5625 13.7812C27.5625 13.419 27.8572 13.125 28.2188 13.125ZM23.625 9.84375C23.625 9.4815 23.9197 9.1875 24.2812 9.1875C24.6428 9.1875 24.9375 9.4815 24.9375 9.84375C24.9375 10.206 24.6428 10.5 24.2812 10.5C23.9197 10.5 23.625 10.206 23.625 9.84375ZM19.0312 15.75C19.0312 16.1122 18.7366 16.4062 18.375 16.4062C18.0134 16.4062 17.7188 16.1122 17.7188 15.75C17.7188 15.3878 18.0134 15.0938 18.375 15.0938C18.7366 15.0938 19.0312 15.3878 19.0312 15.75ZM30.8438 36.0938C27.949 36.0938 25.5938 33.7385 25.5938 30.8438C25.5938 27.949 27.949 25.5938 30.8438 25.5938C33.7385 25.5938 36.0938 27.949 36.0938 30.8438C36.0938 33.7385 33.7385 36.0938 30.8438 36.0938ZM21.6562 25.7716C21.3419 26.3386 21.082 26.9377 20.876 27.5625H20.3438V22.3125H21.6562V25.7716ZM30.1875 21.6897V24.3147C26.8761 24.6455 24.2812 27.447 24.2812 30.8438C24.2812 31.8038 24.4939 32.7141 24.866 33.537L22.5894 34.8515C21.9975 33.6387 21.6562 32.2816 21.6562 30.8438C21.6562 25.9993 25.4277 22.0283 30.1875 21.6897ZM30.8438 40.0312C27.6846 40.0312 24.8929 38.428 23.2391 35.992L25.5248 34.6723C26.7179 36.3247 28.6545 37.4062 30.8438 37.4062C33.033 37.4062 34.9696 36.3247 36.1627 34.6723L38.4484 35.992C36.7946 38.428 34.0029 40.0312 30.8438 40.0312V40.0312ZM39.0981 34.8515L36.8215 33.537C37.1936 32.7141 37.4062 31.8038 37.4062 30.8438C37.4062 27.447 34.8114 24.6448 31.5 24.3147V21.6897C36.2598 22.0283 40.0312 25.9993 40.0312 30.8438C40.0312 32.2816 39.69 33.6387 39.0981 34.8515Z" fill="#F37021"/>
<path d="M30.8438 26.9062C28.6722 26.9062 26.9062 28.6722 26.9062 30.8438C26.9062 33.0153 28.6722 34.7812 30.8438 34.7812C33.0153 34.7812 34.7812 33.0153 34.7812 30.8438C34.7812 28.6722 33.0153 26.9062 30.8438 26.9062ZM30.8438 33.4688C29.3961 33.4688 28.2188 32.2914 28.2188 30.8438C28.2188 29.3961 29.3961 28.2188 30.8438 28.2188C32.2914 28.2188 33.4688 29.3961 33.4688 30.8438C33.4688 32.2914 32.2914 33.4688 30.8438 33.4688Z" fill="#F37021"/>
<path d="M3.28125 7.875H4.59375V9.1875H3.28125V7.875Z" fill="#F37021"/>
<path d="M5.90625 7.875H15.0938V9.1875H5.90625V7.875Z" fill="#F37021"/>
<path d="M3.28125 10.5H4.59375V11.8125H3.28125V10.5Z" fill="#F37021"/>
<path d="M5.90625 10.5H15.0938V11.8125H5.90625V10.5Z" fill="#F37021"/>
<path d="M3.28125 13.125H4.59375V14.4375H3.28125V13.125Z" fill="#F37021"/>
<path d="M5.90625 13.125H15.0938V14.4375H5.90625V13.125Z" fill="#F37021"/>
<path d="M3.28125 15.75H4.59375V17.0625H3.28125V15.75Z" fill="#F37021"/>
<path d="M5.90625 15.75H15.0938V17.0625H5.90625V15.75Z" fill="#F37021"/>
<path d="M3.28125 28.875H7.21875V22.3125H3.28125V28.875ZM4.59375 23.625H5.90625V27.5625H4.59375V23.625Z" fill="#F37021"/>
<path d="M8.53125 28.875H12.4688V23.625H8.53125V28.875ZM9.84375 24.9375H11.1562V27.5625H9.84375V24.9375Z" fill="#F37021"/>
<path d="M13.7812 28.875H17.7188V18.375H13.7812V28.875ZM15.0938 19.6875H16.4062V27.5625H15.0938V19.6875Z" fill="#F37021"/>
</svg>
