<svg width="42" height="42" viewBox="0 0 42 42" fill="none" xmlns="http://www.w3.org/2000/svg">
<path d="M38.0625 0.65625H19.6875C17.8782 0.65625 16.4062 2.12822 16.4062 3.9375V19.1796C16.2002 19.1061 15.981 19.0588 15.75 19.0588C15.244 19.0588 14.7866 19.2563 14.4375 19.5707C14.0884 19.2557 13.631 19.0588 13.125 19.0588C12.894 19.0588 12.6748 19.1061 12.4688 19.1796V16.4062H15.0938V3.28125H0.65625V16.4062H8.53125V21.8525C7.65122 20.9265 6.40172 20.3438 4.99931 20.3438C4.05234 20.3438 3.28125 21.1142 3.28125 22.0618C3.28125 22.3269 3.34425 22.5934 3.46238 22.8303L4.22691 24.36C4.46709 24.8397 4.59375 25.3759 4.59375 25.9114V29.9197C4.59375 30.6252 4.75978 31.3313 5.07281 31.962L6.5625 34.9624V36.0938H5.25V41.3438H18.375H19.6875H38.0625C39.8718 41.3438 41.3438 39.8718 41.3438 38.0625V3.9375C41.3438 2.12822 39.8718 0.65625 38.0625 0.65625ZM19.6875 1.96875H38.0625C39.1479 1.96875 40.0312 2.85206 40.0312 3.9375V5.90625H17.7188V3.9375C17.7188 2.85206 18.6021 1.96875 19.6875 1.96875ZM1.96875 15.0938V4.59375H13.7812V15.0938H12.4688V13.1526C12.4688 12.0671 11.5854 11.1838 10.5 11.1838C9.41456 11.1838 8.53125 12.0671 8.53125 13.1526V15.0938H1.96875ZM6.24816 31.3786C6.02503 30.9284 5.90625 30.4237 5.90625 29.9204V25.912C5.90625 25.1738 5.73103 24.4342 5.40094 23.7733L4.63641 22.2436C4.60819 22.1878 4.59375 22.1248 4.59375 22.0618C4.59375 21.838 4.77553 21.6562 5.06231 21.6562C6.97528 21.6562 8.53125 23.2129 8.53125 25.1258V26.25H9.84375V25.1258V13.1526C9.84375 12.791 10.1378 12.4963 10.5 12.4963C10.8622 12.4963 11.1562 12.791 11.1562 13.1526V21.0276V23.6526H12.4688V21.0276C12.4688 20.666 12.7628 20.3713 13.125 20.3713C13.4872 20.3713 13.7812 20.666 13.7812 21.0276V23.6526H15.0938V21.0276C15.0938 20.666 15.3878 20.3713 15.75 20.3713C16.1122 20.3713 16.4062 20.666 16.4062 21.0276V22.3401V23.6526H17.7188V22.3401C17.7188 21.9778 18.0128 21.6838 18.375 21.6838C18.7372 21.6838 19.0312 21.9778 19.0312 22.3401V29.5312V30.8713C19.0312 31.5768 18.7983 32.2763 18.375 32.8401L17.0625 34.5903V36.0938H7.875V34.6552L6.24816 31.3786ZM33.4688 9.84375H37.4062V13.7812H33.4688V9.84375ZM37.4069 15.0938L37.4076 28.2188H25.5938V22.9688H20.3438V22.3401V15.0938H25.5938V9.84375H32.1562V15.0938H37.4069ZM20.3438 24.2812H24.2812V28.2188H20.3438V24.2812ZM24.2812 13.7812H20.3438V9.84375H24.2812V13.7812ZM6.5625 40.0312V37.4062H18.375V40.0312H6.5625ZM38.0625 40.0312H19.6875V37.4062H38.0625C38.8041 37.4062 39.4813 37.1497 40.0312 36.7329V38.0625C40.0312 39.1479 39.1479 40.0312 38.0625 40.0312ZM38.0625 36.0938H19.6875H19.0312H18.375V35.0273L19.425 33.6276C20.0176 32.8381 20.3438 31.8596 20.3438 30.8713V29.5312H37.4062C38.1301 29.5312 38.7188 28.9426 38.7188 28.2188V9.84375C38.7188 9.11991 38.1301 8.53125 37.4062 8.53125H20.3438C19.6199 8.53125 19.0312 9.11991 19.0312 9.84375V20.4921C18.8252 20.4186 18.606 20.3713 18.375 20.3713C18.144 20.3713 17.9248 20.4186 17.7188 20.4921V7.21875H40.0312V34.125C40.0312 35.2104 39.1479 36.0938 38.0625 36.0938V36.0938Z" fill="#F37021"/>
<path d="M28.2188 3.28125H32.1562V4.59375H28.2188V3.28125Z" fill="#F37021"/>
<path d="M25.5938 3.28125H26.9062V4.59375H25.5938V3.28125Z" fill="#F37021"/>
<path d="M22.0408 30.8438H21.6562C20.9324 30.8438 20.3438 31.4324 20.3438 32.1562V33.4688C20.3438 34.1926 20.9324 34.7812 21.6562 34.7812H22.0408C22.386 34.7812 22.7246 34.6408 22.9688 34.3967L24.5529 32.8125L22.9688 31.2283C22.7246 30.9842 22.386 30.8438 22.0408 30.8438ZM22.0408 33.4688H21.6562V32.1562H22.0408L22.6971 32.8125L22.0408 33.4688Z" fill="#F37021"/>
<path d="M29.5312 30.8438H28.2188C27.4949 30.8438 26.9062 31.4324 26.9062 32.1562V33.4688C26.9062 34.1926 27.4949 34.7812 28.2188 34.7812H29.5312C30.2551 34.7812 30.8438 34.1926 30.8438 33.4688V32.1562C30.8438 31.4324 30.2551 30.8438 29.5312 30.8438ZM28.2188 33.4688V32.1562H29.5312L29.5326 33.4688H28.2188Z" fill="#F37021"/>
<path d="M36.0937 30.8438H35.7091C35.364 30.8438 35.0253 30.9842 34.7812 31.2283L33.197 32.8125L34.7812 34.3967C35.0253 34.6408 35.364 34.7812 35.7091 34.7812H36.0937C36.8176 34.7812 37.4062 34.1926 37.4062 33.4688V32.1562C37.4062 31.4324 36.8176 30.8438 36.0937 30.8438ZM35.7091 33.4688L35.0529 32.8125L35.7091 32.1562H36.0937L36.095 33.4688H35.7091Z" fill="#F37021"/>
<path d="M21.6562 11.1562H22.9688V12.4688H21.6562V11.1562Z" fill="#F37021"/>
<path d="M34.7812 11.1562H36.0938V12.4688H34.7812V11.1562Z" fill="#F37021"/>
<path d="M21.6562 25.5938H22.9688V26.9062H21.6562V25.5938Z" fill="#F37021"/>
<path d="M29.5312 15.0938H30.8438V12.4688C30.8438 11.7449 30.2551 11.1562 29.5312 11.1562H26.9062V12.4688H29.5312V15.0938Z" fill="#F37021"/>
<path d="M28.2188 16.4062V13.7812H26.9062V16.4062H21.6562V17.7188H26.9062C27.6301 17.7188 28.2188 17.1301 28.2188 16.4062Z" fill="#F37021"/>
<path d="M21.6562 19.0312H22.9688V21.6562H21.6562V19.0312Z" fill="#F37021"/>
<path d="M26.9062 22.9688H28.2188V21.6562C28.2188 20.9324 27.6301 20.3438 26.9062 20.3438H24.2812V21.6562H26.9062V22.9688Z" fill="#F37021"/>
<path d="M28.2188 24.2812H26.9062V25.5938C26.9062 26.3176 27.4949 26.9062 28.2188 26.9062H30.8438V25.5938H28.2188V24.2812Z" fill="#F37021"/>
<path d="M29.5312 21.6562H34.7812V26.9062H36.0938V21.6562C36.0938 20.9324 35.5051 20.3438 34.7812 20.3438H29.5312V21.6562Z" fill="#F37021"/>
<path d="M32.1562 22.9688H29.5312V24.2812H32.1562V26.9062H33.4688V24.2812C33.4688 23.5574 32.8801 22.9688 32.1562 22.9688Z" fill="#F37021"/>
<path d="M29.5312 16.4062V17.7188H32.1562V19.0312H33.4688V17.7188C33.4688 16.9949 32.8801 16.4062 32.1562 16.4062H29.5312Z" fill="#F37021"/>
<path d="M34.7812 16.4062H36.0938V19.0312H34.7812V16.4062Z" fill="#F37021"/>
<path d="M11.3484 5.44226L5.90611 10.8845L3.74508 8.72351L2.81714 9.65145L5.90611 12.7404L12.2763 6.3702L11.3484 5.44226Z" fill="#F37021"/>
</svg>
