<svg width="42" height="42" viewBox="0 0 42 42" fill="none" xmlns="http://www.w3.org/2000/svg">
<path d="M12.1269 20.375H7.75435C7.59954 19.9371 7.29493 19.5681 6.89435 19.3331C6.49376 19.0981 6.02301 19.0123 5.56527 19.0909C5.10754 19.1694 4.69231 19.4072 4.39297 19.7623C4.09362 20.1174 3.92944 20.5668 3.92944 21.0313C3.92944 21.4957 4.09362 21.9451 4.39297 22.3002C4.69231 22.6553 5.10754 22.8931 5.56527 22.9717C6.02301 23.0502 6.49376 22.9644 6.89435 22.7294C7.29493 22.4944 7.59954 22.1254 7.75435 21.6875H12.4688C12.5743 21.6875 12.6782 21.6621 12.7718 21.6135C12.8653 21.5648 12.9458 21.4943 13.0063 21.4079L14.7657 18.8938L15.1004 21.1284C15.1237 21.284 15.2021 21.426 15.3214 21.5287C15.4406 21.6313 15.5928 21.6877 15.7501 21.6875H19.8083C19.9436 22.07 20.1937 22.4014 20.5245 22.6364C20.8553 22.8713 21.2506 22.9983 21.6563 23H33.4688C33.991 23 34.4918 22.7926 34.861 22.4234C35.2302 22.0542 35.4376 21.5534 35.4376 21.0313C35.4376 20.5091 35.2302 20.0084 34.861 19.6391C34.4918 19.2699 33.991 19.0625 33.4688 19.0625H21.6563C21.2506 19.0642 20.8553 19.1912 20.5245 19.4261C20.1937 19.6611 19.9436 19.9925 19.8083 20.375H16.3151L15.8558 17.3326L17.4045 15.125H19.8083C19.9436 15.5075 20.1937 15.8389 20.5245 16.0739C20.8553 16.3088 21.2506 16.4358 21.6563 16.4375H33.4688C33.991 16.4375 34.4918 16.2301 34.861 15.8609C35.2302 15.4917 35.4376 14.9909 35.4376 14.4688C35.4376 13.9466 35.2302 13.4458 34.861 13.0766C34.4918 12.7074 33.991 12.5 33.4688 12.5H21.6563C21.2506 12.5017 20.8553 12.6287 20.5245 12.8636C20.1937 13.0986 19.9436 13.43 19.8083 13.8125H17.0626C16.957 13.8125 16.8529 13.8379 16.7592 13.8867C16.6655 13.9355 16.585 14.0062 16.5245 14.0927L15.5762 15.4479L14.9908 11.5465L17.3776 8.5625H19.8057C19.9411 8.94546 20.1916 9.27716 20.523 9.51214C20.8543 9.74712 21.2502 9.87386 21.6563 9.875H33.4688C33.991 9.875 34.4918 9.66758 34.861 9.29837C35.2302 8.92916 35.4376 8.4284 35.4376 7.90625C35.4376 7.38411 35.2302 6.88335 34.861 6.51414C34.4918 6.14493 33.991 5.9375 33.4688 5.9375H21.6563C21.2506 5.93919 20.8553 6.06618 20.5245 6.30112C20.1937 6.53606 19.9436 6.86747 19.8083 7.25H17.0626C16.9642 7.24997 16.867 7.27207 16.7783 7.31467C16.6896 7.35726 16.6116 7.41927 16.5501 7.4961L14.7257 9.77722L14.4304 7.80847C14.407 7.6531 14.3286 7.51129 14.2095 7.40881C14.0904 7.30633 13.9385 7.24998 13.7813 7.25H7.75435C7.59954 6.81214 7.29493 6.44311 6.89435 6.20812C6.49376 5.97313 6.02301 5.88732 5.56527 5.96586C5.10754 6.04439 4.69231 6.28221 4.39297 6.63729C4.09362 6.99237 3.92944 7.44183 3.92944 7.90625C3.92944 8.37067 4.09362 8.82014 4.39297 9.17522C4.69231 9.5303 5.10754 9.76812 5.56527 9.84665C6.02301 9.92518 6.49376 9.83938 6.89435 9.60439C7.29493 9.3694 7.59954 9.00036 7.75435 8.5625H13.2163L13.6101 11.1737L11.4969 13.8125H7.75632C7.60151 13.3746 7.2969 13.0056 6.89632 12.7706C6.49573 12.5356 6.02497 12.4498 5.56724 12.5284C5.10951 12.6069 4.69428 12.8447 4.39494 13.1998C4.09559 13.5549 3.93141 14.0043 3.93141 14.4688C3.93141 14.9332 4.09559 15.3826 4.39494 15.7377C4.69428 16.0928 5.10951 16.3306 5.56724 16.4092C6.02497 16.4877 6.49573 16.4019 6.89632 16.1669C7.2969 15.9319 7.60151 15.5629 7.75632 15.125H11.8126C11.911 15.125 12.0082 15.1029 12.0969 15.0603C12.1856 15.0177 12.2636 14.9557 12.3251 14.8789L13.8732 12.943L14.4835 17.0117L12.1269 20.375ZM5.90635 21.6875C5.77655 21.6875 5.64968 21.649 5.54176 21.5769C5.43384 21.5048 5.34972 21.4023 5.30005 21.2824C5.25038 21.1625 5.23739 21.0305 5.26271 20.9032C5.28803 20.7759 5.35053 20.659 5.44231 20.5672C5.53409 20.4754 5.65102 20.4129 5.77832 20.3876C5.90562 20.3623 6.03757 20.3753 6.15749 20.425C6.2774 20.4746 6.37989 20.5587 6.452 20.6667C6.52411 20.7746 6.5626 20.9015 6.5626 21.0313C6.5626 21.2053 6.49346 21.3722 6.37039 21.4953C6.24732 21.6184 6.0804 21.6875 5.90635 21.6875ZM21.6563 20.375H33.4688C33.6429 20.375 33.8098 20.4441 33.9329 20.5672C34.056 20.6903 34.1251 20.8572 34.1251 21.0313C34.1251 21.2053 34.056 21.3722 33.9329 21.4953C33.8098 21.6184 33.6429 21.6875 33.4688 21.6875H21.6563C21.4823 21.6875 21.3154 21.6184 21.1923 21.4953C21.0692 21.3722 21.0001 21.2053 21.0001 21.0313C21.0001 20.8572 21.0692 20.6903 21.1923 20.5672C21.3154 20.4441 21.4823 20.375 21.6563 20.375ZM21.6563 13.8125H33.4688C33.6429 13.8125 33.8098 13.8816 33.9329 14.0047C34.056 14.1278 34.1251 14.2947 34.1251 14.4688C34.1251 14.6428 34.056 14.8097 33.9329 14.9328C33.8098 15.0559 33.6429 15.125 33.4688 15.125H21.6563C21.4823 15.125 21.3154 15.0559 21.1923 14.9328C21.0692 14.8097 21.0001 14.6428 21.0001 14.4688C21.0001 14.2947 21.0692 14.1278 21.1923 14.0047C21.3154 13.8816 21.4823 13.8125 21.6563 13.8125ZM21.6563 7.25H33.4688C33.6429 7.25 33.8098 7.31914 33.9329 7.44221C34.056 7.56529 34.1251 7.73221 34.1251 7.90625C34.1251 8.0803 34.056 8.24722 33.9329 8.37029C33.8098 8.49336 33.6429 8.5625 33.4688 8.5625H21.6563C21.4823 8.5625 21.3154 8.49336 21.1923 8.37029C21.0692 8.24722 21.0001 8.0803 21.0001 7.90625C21.0001 7.73221 21.0692 7.56529 21.1923 7.44221C21.3154 7.31914 21.4823 7.25 21.6563 7.25ZM5.90635 8.5625C5.77655 8.5625 5.64968 8.52402 5.54176 8.45191C5.43384 8.3798 5.34972 8.2773 5.30005 8.15739C5.25038 8.03748 5.23739 7.90553 5.26271 7.77823C5.28803 7.65093 5.35053 7.53399 5.44231 7.44221C5.53409 7.35044 5.65102 7.28794 5.77832 7.26261C5.90562 7.23729 6.03757 7.25029 6.15749 7.29996C6.2774 7.34963 6.37989 7.43374 6.452 7.54166C6.52411 7.64958 6.5626 7.77646 6.5626 7.90625C6.5626 8.0803 6.49346 8.24722 6.37039 8.37029C6.24732 8.49336 6.0804 8.5625 5.90635 8.5625ZM5.90635 15.125C5.77655 15.125 5.64968 15.0865 5.54176 15.0144C5.43384 14.9423 5.34972 14.8398 5.30005 14.7199C5.25038 14.6 5.23739 14.468 5.26271 14.3407C5.28803 14.2134 5.35053 14.0965 5.44231 14.0047C5.53409 13.9129 5.65102 13.8504 5.77832 13.8251C5.90562 13.7998 6.03757 13.8128 6.15749 13.8625C6.2774 13.9121 6.37989 13.9962 6.452 14.1042C6.52411 14.2121 6.5626 14.339 6.5626 14.4688C6.5626 14.6428 6.49346 14.8097 6.37039 14.9328C6.24732 15.0559 6.0804 15.125 5.90635 15.125Z" fill="#F37021"/>
<path d="M20.3438 27.5938H19.0312V28.9062H20.3438V27.5938Z" fill="#F37021"/>
<path d="M37.4062 2H1.96875C1.44661 2 0.945846 2.20742 0.576634 2.57663C0.207421 2.94585 0 3.44661 0 3.96875V28.9062C0 29.4284 0.207421 29.9292 0.576634 30.2984C0.945846 30.6676 1.44661 30.875 1.96875 30.875H14.9756L14.5379 33.5H13.7812C13.6794 33.5 13.5789 33.5237 13.4878 33.5693C13.3966 33.6148 13.3174 33.681 13.2563 33.7625L11.2875 36.3875C11.2144 36.485 11.1698 36.6009 11.1589 36.7223C11.148 36.8437 11.171 36.9657 11.2255 37.0747C11.28 37.1837 11.3638 37.2754 11.4675 37.3395C11.5712 37.4036 11.6906 37.4375 11.8125 37.4375H27.5625C27.6844 37.4375 27.8038 37.4036 27.9075 37.3395C28.0112 37.2754 28.095 37.1837 28.1495 37.0747C28.204 36.9657 28.227 36.8437 28.2161 36.7223C28.2052 36.6009 28.1606 36.485 28.0875 36.3875L26.1187 33.7625C26.0576 33.681 25.9784 33.6148 25.8872 33.5693C25.7961 33.5237 25.6956 33.5 25.5938 33.5H24.8371L24.3994 30.875H37.4062C37.9284 30.875 38.4292 30.6676 38.7984 30.2984C39.1676 29.9292 39.375 29.4284 39.375 28.9062V3.96875C39.375 3.44661 39.1676 2.94585 38.7984 2.57663C38.4292 2.20742 37.9284 2 37.4062 2V2ZM1.96875 3.3125H37.4062C37.5803 3.3125 37.7472 3.38164 37.8703 3.50471C37.9934 3.62778 38.0625 3.7947 38.0625 3.96875V25.625H1.3125V3.96875C1.3125 3.7947 1.38164 3.62778 1.50471 3.50471C1.62778 3.38164 1.7947 3.3125 1.96875 3.3125ZM26.25 36.125H13.125L14.1094 34.8125H25.2656L26.25 36.125ZM23.5069 33.5H15.8681L16.3058 30.875H23.0692L23.5069 33.5ZM37.4062 29.5625H1.96875C1.7947 29.5625 1.62778 29.4934 1.50471 29.3703C1.38164 29.2472 1.3125 29.0803 1.3125 28.9062V26.9375H38.0625V28.9062C38.0625 29.0803 37.9934 29.2472 37.8703 29.3703C37.7472 29.4934 37.5803 29.5625 37.4062 29.5625Z" fill="#F37021"/>
</svg>
