<svg width="12" height="12" viewBox="0 0 12 12" fill="none" xmlns="http://www.w3.org/2000/svg">
<path d="M11.5446 0H0.48886C0.225628 0 0 0.225 0 0.4875V11.475C0 11.775 0.225628 12 0.48886 12H11.507C11.7703 12 11.9959 11.775 11.9959 11.5125V0.4875C12.0335 0.225 11.8079 0 11.5446 0ZM3.57244 10.2375H1.76742V4.5H3.57244V10.2375ZM2.66993 3.7125C2.10586 3.7125 1.617 3.2625 1.617 2.6625C1.617 2.1 2.06826 1.6125 2.66993 1.6125C3.234 1.6125 3.72286 2.0625 3.72286 2.6625C3.72286 3.2625 3.234 3.7125 2.66993 3.7125ZM10.2661 10.2375H8.49865V7.4625C8.49865 6.7875 8.49865 5.9625 7.55854 5.9625C6.61842 5.9625 6.5056 6.675 6.5056 7.425V10.275H4.73819V4.5H6.39279V5.2875H6.4304C6.65602 4.8375 7.2577 4.35 8.12261 4.35C9.92763 4.35 10.2661 5.55 10.2661 7.0875V10.2375Z" fill="#1C2F6E"/>
</svg>
