<svg width="16" height="17" viewBox="0 0 16 17" fill="none" xmlns="http://www.w3.org/2000/svg">
<path d="M8 8.5C10.2091 8.5 12 6.70914 12 4.5C12 2.29086 10.2091 0.5 8 0.5C5.79086 0.5 4 2.29086 4 4.5C4 6.70914 5.79086 8.5 8 8.5Z" fill="white"/>
<path d="M16 13.7C16.0017 13.3172 15.8928 12.942 15.6865 12.6196C15.4802 12.2971 15.1853 12.041 14.837 11.882C12.6811 10.9439 10.351 10.4729 8.00002 10.5C5.64902 10.4729 3.31892 10.9439 1.16302 11.882C0.814771 12.041 0.519798 12.2971 0.313504 12.6196C0.10721 12.942 -0.00163935 13.3172 1.86627e-05 13.7V16.5H16V13.7Z" fill="white"/>
</svg>
