<?xml version="1.0" encoding="utf-8"?><svg xmlns="http://www.w3.org/2000/svg" xmlns:xlink="http://www.w3.org/1999/xlink"><symbol viewBox="0 0 19 24" id="back" xmlns="http://www.w3.org/2000/svg"><path d="M16.193 23s4.341-11.623-.434-14.113-14.49-.862-14.49-.862m7.263 7.088s-1.076-2.31-2.959-4.105C3.69 9.21 1 7.928 1 7.928M8.532 1S7.456 3.31 5.573 5.106C3.69 6.902 1 8.185 1 8.185" stroke="#787878"/></symbol><symbol viewBox="0 0 24 22" id="chuyennghe" xmlns="http://www.w3.org/2000/svg"><path d="M2.88 13.229h15.989a.351.351 0 100-.704H2.879a.351.351 0 100 .704zm0-3.274h9.73a.351.351 0 100-.703H2.88a.352.352 0 100 .703zm0-3.272h9.73a.351.351 0 100-.704H2.88a.352.352 0 100 .704zM24 4.926A4.732 4.732 0 0019.273.199a4.732 4.732 0 00-4.727 4.727 4.732 4.732 0 004.727 4.727A4.733 4.733 0 0024 4.926zM19.273.902a4.028 4.028 0 014.024 4.024 4 4 0 01-.76 2.348 3.359 3.359 0 00-1.639-2.073c.226-.322.36-.714.36-1.136 0-1.094-.89-1.984-1.985-1.984-1.094 0-1.984.89-1.984 1.984 0 .422.133.814.359 1.136a3.358 3.358 0 00-1.639 2.073 4 4 0 01-.76-2.348A4.028 4.028 0 0119.274.902zm-1.28 3.163c0-.706.574-1.281 1.28-1.281a1.282 1.282 0 010 2.562c-.706 0-1.28-.575-1.28-1.281zm-1.39 3.868a2.664 2.664 0 011.58-2.212 1.972 1.972 0 002.18 0 2.664 2.664 0 011.58 2.212 4.007 4.007 0 01-2.67 1.016 4.006 4.006 0 01-2.67-1.016z"/><path d="M21.735 9.914a.351.351 0 00-.351.351v4.186a1.81 1.81 0 01-1.807 1.808h-8.924c-.404 0-.78.217-.983.566L7.275 20.96a.27.27 0 01-.239.138.27.27 0 01-.238-.138l-2.395-4.135a1.14 1.14 0 00-.983-.566h-.91A1.81 1.81 0 01.703 14.45V4.856c0-.996.81-1.807 1.807-1.807h11.302a.352.352 0 100-.703H2.51A2.513 2.513 0 000 4.856v9.595a2.513 2.513 0 002.51 2.51h.91c.154 0 .297.083.374.217l2.395 4.135a.97.97 0 00.848.488.97.97 0 00.846-.488l2.396-4.135a.434.434 0 01.374-.216h8.924a2.513 2.513 0 002.51-2.51v-4.187a.351.351 0 00-.352-.351z"/></symbol><symbol viewBox="0 0 24 24" id="comment" xmlns="http://www.w3.org/2000/svg"><g clip-path="url(#cclip0)"><path d="M20.838 8.96H9.682a.352.352 0 000 .703h11.156a.352.352 0 100-.703zm0 2.687H9.682a.352.352 0 100 .703h11.156a.352.352 0 100-.703zm0 2.688H9.682a.352.352 0 100 .703h11.156a.352.352 0 100-.703z"/><path d="M21.955 5.885H8.565A2.047 2.047 0 006.522 7.93v8.42c0 1.127.917 2.044 2.045 2.044h9.385c.1 0 .193.045.255.124l3.031 3.837a.604.604 0 00.68.199.604.604 0 00.412-.578v-3.617A2.054 2.054 0 0024 16.35V7.93a2.047 2.047 0 00-2.045-2.044zm1.342 10.464c0 .73-.594 1.332-1.324 1.341a.352.352 0 00-.347.352v3.67l-2.868-3.63a1.023 1.023 0 00-.807-.39H8.566c-.74 0-1.342-.603-1.342-1.343V7.93c0-.739.602-1.34 1.342-1.34h13.39c.74 0 1.341.601 1.341 1.34v8.42z"/><path d="M5.18 11.698a.938.938 0 00-.607.349l-2.415 3.057V12.04a.352.352 0 00-.347-.352 1.126 1.126 0 01-1.108-1.122v-7.33c0-.618.504-1.122 1.123-1.122h11.656c.619 0 1.122.504 1.122 1.123v1.356a.352.352 0 00.703 0V3.237a1.828 1.828 0 00-1.825-1.826H1.826A1.828 1.828 0 000 3.237v7.33c0 .874.627 1.614 1.455 1.786v3.111c0 .25.152.464.388.546a.57.57 0 00.643-.188l2.639-3.34a.238.238 0 01.153-.088.352.352 0 00-.099-.696z"/></g><defs><clipPath id="cclip0"><path d="M0 0h24v24H0z"/></clipPath></defs></symbol><symbol viewBox="0 0 23 25" id="hanhtrinh" xmlns="http://www.w3.org/2000/svg"><path fill-rule="evenodd" clip-rule="evenodd" d="M8.052 13.32a3 3 0 00-2.996-2.996 3 3 0 00-2.995 2.996 3 3 0 002.995 2.996 3 3 0 002.996-2.996zM3 13.32c0-1.134.922-2.056 2.056-2.056s2.057.922 2.057 2.056a2.059 2.059 0 01-2.057 2.057A2.059 2.059 0 013 13.32z"/><path fill-rule="evenodd" clip-rule="evenodd" d="M22.69 3.928l-.975-1.595.99-1.618a.47.47 0 00-.4-.715h-3.942a.47.47 0 00-.47.47v5.414h-2.714a2.383 2.383 0 00-2.38 2.38v4.79a2.383 2.383 0 002.38 2.381h4.39c.795 0 1.442.647 1.442 1.441v4.79c0 .795-.647 1.441-1.442 1.441H5.816l3.861-7.734a5.018 5.018 0 00.435-2.053 5.062 5.062 0 00-5.056-5.056 5.062 5.062 0 00-4.62 7.11l1.26 2.525a.47.47 0 00.84-.42l-1.255-2.515a4.122 4.122 0 013.775-5.761 4.122 4.122 0 013.776 5.761l-3.776 7.562-.84-1.684a.47.47 0 10-.84.42l1.26 2.525c0 .002.002.003.003.004a.427.427 0 00.03.051l.005.007a.46.46 0 00.082.09h.001a.479.479 0 00.104.065l.007.003a.47.47 0 00.056.02c.003.002.007.002.01.003a.48.48 0 00.048.01l.015.003c.02.002.04.004.06.004h14.512a2.383 2.383 0 002.38-2.38v-4.79a2.383 2.383 0 00-2.38-2.381h-4.39a1.443 1.443 0 01-1.441-1.442v-4.79c0-.794.647-1.44 1.441-1.44h2.714v1.154a.47.47 0 00.94 0V4.666h3.472a.47.47 0 00.385-.738zm-3.858-.201V.939h2.634l-.702 1.149a.47.47 0 000 .49l.703 1.149h-2.635z"/><path fill-rule="evenodd" clip-rule="evenodd" d="M2.956 18.9a.47.47 0 000 .94.47.47 0 000-.94z"/></symbol><symbol viewBox="0 0 22 22" id="home" xmlns="http://www.w3.org/2000/svg"><g clip-path="url(#eclip0)"><path d="M18.512 12.378v8.317c0 .36-.29.654-.648.654h-.5a.324.324 0 00-.322.326c0 .18.144.325.322.325h.5a1.3 1.3 0 001.293-1.305v-7.64l.656.689a.759.759 0 001.09.011l.875-.882a.78.78 0 00.01-1.079L11.87 1.374a1.197 1.197 0 00-1.738 0L.21 11.794a.78.78 0 00.011 1.079l.874.882c.303.305.794.3 1.09-.011l.657-.69v1.58c0 .18.144.326.322.326a.324.324 0 00.323-.325v-2.257l7.267-7.635a.337.337 0 01.49 0l7.267 7.635zm2.81.035l-.874.882c-.057.047-.114.047-.17-.002l-8.568-9-.002-.002a.977.977 0 00-1.418.002L2.933 12.02l-1.21 1.272c-.057.049-.114.05-.171.002l-.874-.882a.122.122 0 01-.002-.168l9.92-10.42a.557.557 0 01.808 0l9.92 10.42a.122.122 0 01-.002.168z"/><path d="M15.686 21.376H13.82v-3.53c0-1.57-1.286-2.846-2.867-2.846-1.582 0-2.868 1.276-2.868 2.846v3.53H4.26a.63.63 0 01-.632-.627v-4.355a.313.313 0 00-.315-.312.313.313 0 00-.314.312v4.355C3 21.439 3.566 22 4.261 22h11.425c.173 0 .314-.14.314-.312a.313.313 0 00-.314-.312zm-6.972-3.53a2.233 2.233 0 012.24-2.222c1.234 0 2.239.996 2.239 2.222v3.53H8.714v-3.53z"/></g><defs><clipPath id="eclip0"><path d="M0 0h22v22H0z"/></clipPath></defs></symbol><symbol viewBox="0 0 27 24" id="like" xmlns="http://www.w3.org/2000/svg"><path d="M18.982 0a7.213 7.213 0 00-5.891 3.067A7.213 7.213 0 007.201 0C3.363 0 0 3.569 0 7.636c0 3.965 2.239 8.048 6.474 11.809a34.829 34.829 0 006.417 4.506.437.437 0 00.4 0 34.828 34.828 0 006.415-4.506c4.238-3.761 6.476-7.844 6.476-11.809 0-4.067-3.364-7.636-7.2-7.636z"/></symbol><symbol viewBox="0 0 64 49" id="next" xmlns="http://www.w3.org/2000/svg"><path fill-rule="evenodd" clip-rule="evenodd" d="M37.96.414l.454-.207L38.87 0l.002.004.007.016.03.064a38.454 38.454 0 00.605 1.215 54.525 54.525 0 001.895 3.337c1.663 2.707 4.095 6.161 7.182 9.177 3.093 3.021 6.635 5.537 9.41 7.3 1.387.88 2.579 1.57 3.423 2.04a49.49 49.49 0 001.248.672l.066.034.017.008.004.002.916.46-.925.439h-.001l-.004.002-.016.008-.066.032a45.51 45.51 0 00-1.246.64 63.827 63.827 0 00-3.422 1.965c-2.774 1.707-6.313 4.167-9.404 7.186-3.087 3.016-5.52 6.47-7.182 9.177a54.506 54.506 0 00-1.895 3.337 38.565 38.565 0 00-.605 1.215l-.03.064-.007.016-.002.003-.456-.206A67.785 67.785 0 0137.96 48l.001-.002.003-.005.008-.018.033-.07.126-.266c.112-.23.278-.565.497-.985a55.551 55.551 0 011.93-3.4c1.687-2.747 4.169-6.275 7.335-9.368 3.163-3.09 6.77-5.594 9.58-7.323a65.864 65.864 0 013.011-1.747H0v-1h60.563a71.298 71.298 0 01-3.098-1.86c-2.807-1.782-6.412-4.34-9.573-7.428-3.166-3.093-5.648-6.62-7.335-9.368a55.545 55.545 0 01-1.93-3.4 39.733 39.733 0 01-.623-1.25L37.97.44l-.007-.02-.003-.004V.414z"/></symbol><symbol viewBox="0 0 18 24" id="play" xmlns="http://www.w3.org/2000/svg"><path d="M17.468 11.53L.896.1A.571.571 0 000 .57v22.86a.572.572 0 00.896.47l16.572-11.43a.57.57 0 000-.94zM1.143 22.34V1.66L16.137 12 1.143 22.34z"/></symbol><symbol viewBox="0 0 25 24" id="share" xmlns="http://www.w3.org/2000/svg"><path d="M14.718.875H3.158A3.161 3.161 0 000 4.032V16.95a.374.374 0 10.747 0V4.032a2.413 2.413 0 012.41-2.41h11.561a.374.374 0 100-.747zm8.034 8.033a.374.374 0 00-.374.374v11.56c0 1.33-1.081 2.41-2.41 2.41H3.158a2.413 2.413 0 01-2.41-2.41v-1.966a.374.374 0 10-.748 0v1.966A3.161 3.161 0 003.158 24h16.81a3.161 3.161 0 003.157-3.158V9.282a.374.374 0 00-.373-.374z"/><path d="M24.253 3.252L21.111.109a.374.374 0 00-.528.529l2.504 2.504h-3.339c-5.494 0-9.965 4.47-9.965 9.965v2.88a.374.374 0 10.748 0v-2.88c0-5.083 4.135-9.218 9.217-9.218h3.339l-2.57 2.57a.374.374 0 00.53.528l3.206-3.207a.378.378 0 000-.528z"/></symbol></svg>