<?xml version="1.0" encoding="utf-8"?><svg xmlns="http://www.w3.org/2000/svg" xmlns:xlink="http://www.w3.org/1999/xlink"><symbol viewBox="0 0 24 24" id="comment" xmlns="http://www.w3.org/2000/svg"><g clip-path="url(#aclip0)"><path d="M20.838 8.96H9.682a.352.352 0 000 .703h11.156a.352.352 0 100-.703zm0 2.687H9.682a.352.352 0 100 .703h11.156a.352.352 0 100-.703zm0 2.688H9.682a.352.352 0 100 .703h11.156a.352.352 0 100-.703z"/><path d="M21.955 5.885H8.565A2.047 2.047 0 006.522 7.93v8.42c0 1.127.917 2.044 2.045 2.044h9.385c.1 0 .193.045.255.124l3.031 3.837a.604.604 0 00.68.199.604.604 0 00.412-.578v-3.617A2.054 2.054 0 0024 16.35V7.93a2.047 2.047 0 00-2.045-2.044zm1.342 10.464c0 .73-.594 1.332-1.324 1.341a.352.352 0 00-.347.352v3.67l-2.868-3.63a1.023 1.023 0 00-.807-.39H8.566c-.74 0-1.342-.603-1.342-1.343V7.93c0-.739.602-1.34 1.342-1.34h13.39c.74 0 1.341.601 1.341 1.34v8.42z"/><path d="M5.18 11.698a.938.938 0 00-.607.349l-2.415 3.057V12.04a.352.352 0 00-.347-.352 1.126 1.126 0 01-1.108-1.122v-7.33c0-.618.504-1.122 1.123-1.122h11.656c.619 0 1.122.504 1.122 1.123v1.356a.352.352 0 00.703 0V3.237a1.828 1.828 0 00-1.825-1.826H1.826A1.828 1.828 0 000 3.237v7.33c0 .874.627 1.614 1.455 1.786v3.111c0 .25.152.464.388.546a.57.57 0 00.643-.188l2.639-3.34a.238.238 0 01.153-.088.352.352 0 00-.099-.696z"/></g><defs><clipPath id="aclip0"><path d="M0 0h24v24H0z"/></clipPath></defs></symbol><symbol viewBox="0 0 28 24" id="like" xmlns="http://www.w3.org/2000/svg"><path d="M19.85 0a7.213 7.213 0 00-5.89 3.067A7.213 7.213 0 008.069 0c-3.836 0-7.2 3.569-7.2 7.636 0 3.965 2.238 8.048 6.474 11.809a34.83 34.83 0 006.416 4.506.437.437 0 00.401 0 34.834 34.834 0 006.415-4.506c4.237-3.761 6.476-7.844 6.476-11.809C27.05 3.57 23.686 0 19.85 0zm-5.89 23.068c-1.603-.885-12.22-7.064-12.22-15.432C1.741 4.033 4.698.873 8.07.873a6.34 6.34 0 015.51 3.225.454.454 0 00.76 0A6.34 6.34 0 0119.852.873c3.37 0 6.327 3.16 6.327 6.763 0 8.368-10.616 14.547-12.218 15.432z"/></symbol><symbol viewBox="0 0 64 49" id="next" xmlns="http://www.w3.org/2000/svg"><path fill-rule="evenodd" clip-rule="evenodd" d="M37.96.414l.454-.207L38.87 0l.002.004.007.016.03.064a38.454 38.454 0 00.605 1.215 54.525 54.525 0 001.895 3.337c1.663 2.707 4.095 6.161 7.182 9.177 3.093 3.021 6.635 5.537 9.41 7.3 1.387.88 2.579 1.57 3.423 2.04a49.49 49.49 0 001.248.672l.066.034.017.008.004.002.916.46-.925.439h-.001l-.004.002-.016.008-.066.032a45.51 45.51 0 00-1.246.64 63.827 63.827 0 00-3.422 1.965c-2.774 1.707-6.313 4.167-9.404 7.186-3.087 3.016-5.52 6.47-7.182 9.177a54.506 54.506 0 00-1.895 3.337 38.565 38.565 0 00-.605 1.215l-.03.064-.007.016-.002.003-.456-.206A67.785 67.785 0 0137.96 48l.001-.002.003-.005.008-.018.033-.07.126-.266c.112-.23.278-.565.497-.985a55.551 55.551 0 011.93-3.4c1.687-2.747 4.169-6.275 7.335-9.368 3.163-3.09 6.77-5.594 9.58-7.323a65.864 65.864 0 013.011-1.747H0v-1h60.563a71.298 71.298 0 01-3.098-1.86c-2.807-1.782-6.412-4.34-9.573-7.428-3.166-3.093-5.648-6.62-7.335-9.368a55.545 55.545 0 01-1.93-3.4 39.733 39.733 0 01-.623-1.25L37.97.44l-.007-.02-.003-.004V.414z"/></symbol><symbol viewBox="0 0 18 24" id="play" xmlns="http://www.w3.org/2000/svg"><path d="M17.468 11.53L.896.1A.571.571 0 000 .57v22.86a.572.572 0 00.896.47l16.572-11.43a.57.57 0 000-.94zM1.143 22.34V1.66L16.137 12 1.143 22.34z"/></symbol><symbol viewBox="0 0 25 24" id="share" xmlns="http://www.w3.org/2000/svg"><path d="M14.718.875H3.158A3.161 3.161 0 000 4.032V16.95a.374.374 0 10.747 0V4.032a2.413 2.413 0 012.41-2.41h11.561a.374.374 0 100-.747zm8.034 8.033a.374.374 0 00-.374.374v11.56c0 1.33-1.081 2.41-2.41 2.41H3.158a2.413 2.413 0 01-2.41-2.41v-1.966a.374.374 0 10-.748 0v1.966A3.161 3.161 0 003.158 24h16.81a3.161 3.161 0 003.157-3.158V9.282a.374.374 0 00-.373-.374z"/><path d="M24.253 3.252L21.111.109a.374.374 0 00-.528.529l2.504 2.504h-3.339c-5.494 0-9.965 4.47-9.965 9.965v2.88a.374.374 0 10.748 0v-2.88c0-5.083 4.135-9.218 9.217-9.218h3.339l-2.57 2.57a.374.374 0 00.53.528l3.206-3.207a.378.378 0 000-.528z"/></symbol></svg>