<svg aria-hidden="true" style="position: absolute; width: 0; height: 0; overflow: hidden;" version="1.1" xmlns="http://www.w3.org/2000/svg" xmlns:xlink="http://www.w3.org/1999/xlink">
<defs>
<symbol id="Camera" viewBox="0 0 34 32">
<title>Camera</title>
<path d="M17.95 24c-3.4 0-6-2.6-6-6s2.6-6 6-6c3.4 0 6 2.6 6 6s-2.6 6-6 6zM31.95 8h-5l-3.4-5.2c-0.4-0.4-1-0.8-1.6-0.8h-8c-0.6 0-1.2 0.4-1.6 0.8l-3.4 5.2h-5c-1.2 0-2 0.8-2 2v18c0 1.2 0.8 2 2 2h28c1.2 0 2-0.8 2-2v-18c0-1.2-0.8-2-2-2z"></path>
</symbol>
<symbol id="caption" viewBox="0 0 34 32">
<title>caption</title>
<path d="M25.95 14.701h-2v-0.7h-2.7v4h2.7v-0.7h2v1.3c0 0.7-0.6 1.3-1.3 1.3h-4c-0.7 0-1.3-0.6-1.3-1.3v-5.3c0-0.7 0.6-1.3 1.3-1.3h4c0.7 0 1.3 0.6 1.3 1.3v1.4zM16.65 14.701h-2v-0.7h-2.7v4h2.7v-0.7h2v1.3c0 0.7-0.6 1.3-1.3 1.3h-4c-0.7 0-1.3-0.6-1.3-1.3v-5.3c0-0.7 0.6-1.3 1.3-1.3h4c0.7 0 1.3 0.6 1.3 1.3v1.4zM27.25 5.301h-18.7c-1.5 0-2.7 1.2-2.7 2.7v16c0 1.5 1.2 2.7 2.7 2.7h18.7c1.5 0 2.7-1.2 2.7-2.7v-16c0-1.5-1.2-2.7-2.7-2.7z"></path>
</symbol>
<symbol id="Check" viewBox="0 0 34 32">
<title>Check</title>
<path d="M12.114 23.428l-7.594-7.659-2.572 2.594 10.165 10.252 21.835-22.022-2.572-2.594-19.263 19.428z"></path>
</symbol>
<symbol id="Close" viewBox="0 0 34 32">
<title>Close</title>
<path d="M31.349 2.6c-0.8-0.8-2-0.8-2.8 0l-10.6 10.6-10.6-10.6c-0.8-0.8-2-0.8-2.8 0s-0.8 2 0 2.8l10.6 10.6-10.6 10.6c-0.8 0.8-0.8 2 0 2.8 0.4 0.4 0.8 0.6 1.4 0.6s1-0.2 1.4-0.6l10.6-10.6 10.6 10.6c0.4 0.4 1 0.6 1.4 0.6s1-0.2 1.4-0.6c0.8-0.8 0.8-2 0-2.8l-10.6-10.6 10.6-10.6c0.8-0.8 0.8-2 0-2.8v0z"></path>
</symbol>
<symbol id="Comment" viewBox="0 0 34 32">
<title>Comment</title>
<path d="M3.95 0h28c0.53 0 1.039 0.211 1.414 0.586s0.586 0.884 0.586 1.414v20c0 0.53-0.211 1.039-0.586 1.414s-0.884 0.586-1.414 0.586h-10l-12 8v-8h-6c-0.53 0-1.039-0.211-1.414-0.586s-0.586-0.884-0.586-1.414v-20c0-0.53 0.211-1.039 0.586-1.414s0.884-0.586 1.414-0.586v0z"></path>
</symbol>
<symbol id="down-1" viewBox="0 0 34 32">
<title>down-1</title>
<path d="M7.851 10l10 12 10-12h-20z"></path>
</symbol>
<symbol id="down-2" viewBox="0 0 34 32">
<title>down-2</title>
<path d="M17.851 22.8l-10.8-10.8 2.8-2.8 8 8 8-8 2.8 2.8-10.8 10.8z"></path>
</symbol>
<symbol id="down-3" viewBox="0 0 34 32">
<title>down-3</title>
<path d="M1.851 9.8l2.8-3 12.6 12.6 12.6-12.6 2.8 3-15.4 15.4-15.4-15.4z"></path>
</symbol>
<symbol id="down-4" viewBox="0 0 34 32">
<title>down-4</title>
<path d="M31.251 18.6l-2.8-2.8-8.6 8.6v-24.4h-4v24.4l-8.6-8.6-2.8 2.8 13.4 13.4 13.4-13.4z"></path>
</symbol>
<symbol id="exit-full-screen" viewBox="0 0 34 32">
<title>exit-full-screen</title>
<path d="M9.949 0.001h4v10c0 1.2-0.8 2-2 2h-10v-4h8v-8z"></path>
<path d="M21.949 0.001h4v8h8v4h-10c-1.2 0-2-0.8-2-2v-10z"></path>
<path d="M23.949 20h10v4h-8v8h-4v-10c0-1.2 0.8-2 2-2z"></path>
<path d="M1.949 20h10c1.2 0 2 0.8 2 2v10h-4v-8h-8v-4z"></path>
</symbol>
<symbol id="Facebook" viewBox="0 0 34 32">
<title>Facebook</title>
<path d="M24.862 10.485l-0.582 5.515h-4.409v16h-6.622v-16h-3.3v-5.515h3.3v-3.32c0-4.486 1.865-7.164 7.168-7.164h4.407v5.515h-2.758c-2.058 0-2.195 0.777-2.195 2.214v2.756h4.99z"></path>
</symbol>
<symbol id="football-8" viewBox="0 0 34 32">
<title>football-8</title>
<path  d="M32.080 9.4c0.1-0.2 0.1-0.5 0-0.8-0.1-0.1-0.1-0.2-0.2-0.3l-8-8c-0.4-0.4-1-0.4-1.4 0s-0.4 1 0 1.4l6.3 6.3h-27.6c-0.6 0-1 0.4-1 1s0.4 1 1 1h27.6l-6.3 6.3c-0.4 0.4-0.4 1 0 1.4 0.2 0.2 0.5 0.3 0.7 0.3 0.3 0 0.5-0.1 0.7-0.3l8-8c0.1-0.1 0.2-0.2 0.2-0.3z"></path>
<path  d="M31.18 22h-27.6l6.3-6.3c0.4-0.4 0.4-1 0-1.4s-1-0.4-1.4 0l-8 8c-0.1 0.1-0.2 0.2-0.2 0.3-0.1 0.2-0.1 0.5 0 0.8 0.1 0.1 0.1 0.2 0.2 0.3l8 8c0.2 0.2 0.5 0.3 0.7 0.3 0.3 0 0.5-0.1 0.7-0.3 0.4-0.4 0.4-1 0-1.4l-6.3-6.3h27.6c0.6 0 1-0.4 1-1s-0.4-1-1-1z"></path>
</symbol>
<symbol id="football-9" viewBox="0 0 34 32">
<title>football-9</title>
<path  d="M9.718 10.9c2.1-0.7 4.3-1 6.6-1 2.2 0 4.4 0.3 6.5 1 0.1 0 0.2 0 0.3 0 0.4 0 0.8-0.3 1-0.7 0.2-0.5-0.1-1.1-0.7-1.3-2.3-0.7-4.7-1.1-7.1-1-2.5 0-4.8 0.3-7.2 1-0.5 0.2-0.8 0.7-0.7 1.3 0.2 0.6 0.8 0.9 1.3 0.7z"></path>
<path  d="M32.216 10c0-3-3.1-5.6-8.2-7-4.8-1.3-10.7-1.3-15.5 0-5.2 1.4-8.2 4-8.2 7 0 0.2 0 0.4 0.1 0.6 0 0.1 0 0.1 0 0.2l1.9 13.2c0 3.3 5.2 5.3 11 5.9 1 0.1 2 0.1 3 0.1s2-0.1 3-0.1c5.8-0.5 11-2.5 11-5.7l1.9-13.4c0-0.1 0-0.1 0-0.2 0-0.2 0-0.4 0-0.6zM9.016 4.9c2.2-0.6 4.7-0.9 7.2-0.9s5 0.3 7.2 0.9c4.1 1.1 6.8 3.1 6.8 5.1s-2.7 4-6.8 5.1c-4.5 1.2-10 1.2-14.5 0-4.1-1.1-6.8-3.1-6.8-5.1 0.1-2 2.8-4 6.9-5.1zM14.216 27.9v-3.9h4v3.9c-0.6 0-1.3 0.1-2 0.1s-1.3-0.1-2-0.1zM20.216 27.7v-4.7c0-0.6-0.4-1-1-1h-6c-0.6 0-1 0.4-1 1v4.7c-5-0.6-8-2.4-8-3.9l-0.4-2.9c1.1 0.7 2.5 1.4 4.1 1.9 0.2 0.1 0.5 0.1 0.7 0.2l0.3 0.1c0.1 0 0.2 0 0.2 0 0.4 0 0.9-0.3 1-0.8s-0.2-1.1-0.7-1.2l-0.4-0.1c-0.2 0-0.4-0.1-0.6-0.2-2.9-0.9-4.9-2.2-5.2-3.5l-0.4-3c1.4 1.1 3.3 2 5.6 2.6 2.4 0.6 5.1 1 7.8 1s5.4-0.3 7.8-1c2.3-0.6 4.2-1.5 5.6-2.6l-0.4 3c-0.4 1.3-2.3 2.6-5.2 3.5-0.5 0.2-0.8 0.7-0.7 1.2 0.1 0.4 0.5 0.7 1 0.7 0.1 0 0.2 0 0.3 0 1.7-0.5 3.1-1.1 4.1-1.9l-0.4 3c-0.1 1.5-3.1 3.3-8.1 3.9z"></path>
</symbol>
<symbol id="football-10" viewBox="0 0 34 32">
<title>football-10</title>
<path  d="M25.18 32h-18c-0.6 0-1-0.4-1-1v-17h-5c-0.6 0-1-0.4-1-1v-10c0-0.4 0.3-0.8 0.7-0.9l6-2c0.1 0 0.2-0.1 0.3-0.1h4.1c0.5 0 0.9 0.3 1 0.8 0.2 0.9 0.7 1.7 1.4 2.3 1.4 1.2 3.6 1.2 5.1 0 0.7-0.6 1.2-1.4 1.4-2.3 0.1-0.5 0.5-0.8 1-0.8h4.1c0.1 0 0.2 0 0.3 0.1l6 2c0.4 0.1 0.7 0.5 0.7 0.9v10c0 0.6-0.4 1-1 1h-5v17c-0.1 0.5-0.5 1-1.1 1zM8.18 30h16v-17c0-0.6 0.4-1 1-1h5v-8.3l-5.2-1.7h-3.2c-0.4 1-1 2-1.9 2.6-2.1 1.7-5.5 1.7-7.6 0-0.9-0.7-1.5-1.6-1.9-2.6h-3.2l-5.2 1.7v8.3h5c0.6 0 1 0.4 1 1v17h0.2z"></path>
<path  d="M15.38 21.6h1.6c1.8 0 3.3-1.5 3.3-3.3 0-0.9-0.4-1.7-1-2.3 0.6-0.6 1-1.5 1-2.3 0-1.8-1.5-3.3-3.3-3.3h-1.6c-1.8 0-3.3 1.5-3.3 3.3 0 0.9 0.4 1.7 1 2.3-0.6 0.6-1 1.5-1 2.3 0 1.8 1.5 3.3 3.3 3.3zM15.38 17h1.6c0.7 0 1.3 0.6 1.3 1.3s-0.6 1.3-1.3 1.3h-1.6c-0.7 0-1.3-0.6-1.3-1.3s0.6-1.3 1.3-1.3zM16.98 15h-1.6c-0.7 0-1.3-0.6-1.3-1.3s0.6-1.3 1.3-1.3h1.6c0.7 0 1.3 0.6 1.3 1.3s-0.6 1.3-1.3 1.3z"></path>
</symbol>
<symbol id="football-11" viewBox="0 0 34 32">
<title>football-11</title>
<path  d="M31.18 4h-30c-0.6 0-1 0.4-1 1v20c0 0.6 0.4 1 1 1h30c0.6 0 1-0.4 1-1v-20c0-0.6-0.4-1-1-1zM30.18 18h-4v-6h4v6zM14.68 17.6c-0.9-0.5-1.5-1.5-1.5-2.6s0.6-2.1 1.5-2.6c0.5-0.3 1-0.4 1.5-0.4s1 0.1 1.5 0.4c0.9 0.5 1.5 1.5 1.5 2.6s-0.6 2.1-1.5 2.6c-0.9 0.5-2 0.5-3 0zM2.28 12h4v6h-4v-6zM2.28 20h5c0.6 0 1-0.4 1-1v-8c0-0.6-0.4-1-1-1h-5v-4h13v4.1c-0.5 0.1-1 0.3-1.5 0.5-1.5 0.9-2.5 2.5-2.5 4.3s1 3.4 2.5 4.3c0.5 0.3 1 0.4 1.5 0.5v4.1h-13v-3.8zM17.18 24v-4.1c0.5-0.1 1-0.3 1.5-0.5 1.5-0.9 2.5-2.5 2.5-4.3s-1-3.4-2.5-4.3c-0.5-0.3-1-0.4-1.5-0.5v-4.1h13v4h-5c-0.6 0-1 0.4-1 1v8c0 0.6 0.4 1 1 1h5v4h-13v-0.2z"></path>
</symbol>
<symbol id="football-12" viewBox="0 0 34 32">
<title>football-12</title>
<path  d="M32.080 15.21c-0.1-1.2-0.2-2.1-0.4-2.9s-0.6-1.8-1.5-2.1c-0.4-0.1-0.8-0.2-1.2-0.2-0.7 0-1.2 0.1-1.4 0.2s-0.3 0.2-0.4 0.3c-0.1 0.1-0.9 1-2 1 0 0 0 0-0.1 0-1.1 0-1.9-0.5-2.2-0.8-0.3-1.2-1.1-2.5-2.7-2.7-0.6-0.1-1.7 0.5-5.3 2.5l-0.3 0.1c-1.3 0.7-2.6 1.4-3.7 2-1.8 0.9-2.2 1-2.3 1-1.7 0.1-6.1 1-6.6 1.2-0.9 0.3-1.8 1.1-1.8 2.3 0 1.1 0.4 1.9 0.4 1.9 0.1 0.1 0.2 0.3 0.3 0.4 0.2 0.1 0.6 0.4 1.2 0.8 0 0.1-0.1 0.2-0.1 0.3 0 0.5 0.4 0.9 0.9 0.9h1.3c0.1 0 0.2 0 0.4-0.1 0.4 0.2 0.8 0.3 1.2 0.4 0 0 0 0 0 0.1 0 0.5 0.4 0.9 0.9 0.9h1.3c0.4 0 0.7-0.2 0.9-0.6 0.2 0 0.5 0 0.7 0 0.1 0.4 0.5 0.8 0.9 0.8h1.3c0.4 0 0.8-0.3 0.9-0.7 2.2 0 4.7 0.1 6.9 0.1 1.1 0 2.5 0 3.8 0 0.1 0.3 0.5 0.6 0.9 0.6h1.3c0.4 0 0.8-0.3 0.9-0.7 0.3 0 0.6 0 0.8 0 0.2 0.3 0.5 0.5 0.8 0.5h1.3c0.5 0 0.9-0.4 0.9-0.9 0-0.1 0-0.1 0-0.2 1.5-0.8 1.9-2.3 1.9-2.5v-0.1c0 0.1 0-1.8-0.1-3.8zM15.78 12.21c1.5-0.8 3.7-2.1 4.3-2.3 0.4 0.1 0.7 0.4 0.9 0.8-1 0.4-2.9 1.1-5.3 1.6 0-0.1 0-0.1 0.1-0.1v0zM16.18 13.81l2.1 5.4c-0.4 0-0.7 0-1.1 0l-2.1-5.2c0.4-0.1 0.7-0.2 1.1-0.2zM13.78 14.21l2 4.9c-0.1 0-0.2 0-0.3 0h-0.4c-0.2 0-0.3 0-0.5 0l-1.9-4.8c0.4 0 0.8-0.1 1.1-0.1zM2.58 16.71c0.3-0.1 4.5-0.9 6.1-1.1 0.5 0 1.2-0.3 2.3-0.9 0.1 0 0.1 0 0.2 0l1.6 4.1c-1.9 0-4 0-5-0.2-1.9-0.2-4.3-1.3-5.5-1.9 0.2 0 0.3 0 0.3 0zM28.58 20.61c-1 0.2-4.2 0.3-9 0.3-5.4 0-11.2-0.1-12.1-0.3-2.5-0.4-4.9-1.9-5.5-2.3 1.3 0.7 3.6 1.7 5.7 1.9 1.5 0.2 4.7 0.2 7.5 0.2h0.4c6.4 0 11.3 0 13.7 0-0.2 0.1-0.5 0.2-0.7 0.2zM30.28 18.91c-1.4 0-5.1 0-10.4 0l-2.1-5.2c1.9-0.5 3.3-1.1 4-1.3 0.6 0.5 1.8 1.2 3.3 1.2h0.1c1.6 0 2.7-1 3.2-1.4 0.4-0.1 0.8-0.1 1.2 0 0.1 0.2 0.5 0.9 0.6 3.5 0.2 1.4 0.1 2.8 0.1 3.2z"></path>
</symbol>
<symbol id="football-13" viewBox="0 0 34 32">
<title>football-13</title>
<path  d="M15.28 31.8c-0.3 0-0.7-0.2-0.9-0.5l-13.7-23.8c-0.3-0.5-0.1-1.1 0.4-1.4s1.1-0.1 1.4 0.4l13.7 23.8c0.3 0.5 0.1 1.1-0.4 1.4-0.1 0-0.3 0.1-0.5 0.1z"></path>
<path  d="M13.28 19.6c-0.4 0-0.7-0.2-0.9-0.5l-6.5-11.3c-0.2-0.3-0.2-0.7 0-1 2.5-4.5 6.2-4.5 9.4-4.4 2.6 0 5.1 0 7.3-2 0.2-0.2 0.5-0.3 0.8-0.3s0.6 0.2 0.7 0.5l6.5 11.3c0.2 0.4 0.2 0.9-0.2 1.2-2.8 2.5-5.9 2.5-8.6 2.5-3.2 0-5.7 0-7.6 3.4-0.2 0.4-0.6 0.6-0.9 0.6zM7.981 7.3l5.4 9.4c2.5-3.1 5.6-3.1 8.5-3.1 2.3 0 4.6 0 6.6-1.5l-5.5-9.5c-2.5 1.8-5.3 1.8-7.7 1.7-3 0.1-5.4 0.1-7.3 3z"></path>
</symbol>
<symbol id="football-14" viewBox="0 0 34 32">
<title>football-14</title>
<path  d="M3.18 0c-0.6 0-1 0.4-1 1v30c0 0.6 0.4 1 1 1s1-0.4 1-1v-30c0-0.6-0.5-1-1-1z"></path>
<path  d="M29.18 4h-22c-0.6 0-1 0.4-1 1s0.4 1 1 1h5v6h-5c-0.6 0-1 0.4-1 1s0.4 1 1 1h5v6h-5c-0.6 0-1 0.4-1 1s0.4 1 1 1h22c0.6 0 1-0.4 1-1v-16c0-0.6-0.5-1-1-1zM28.18 12h-6v-6h6v6zM14.18 6h6v6h-6v-6zM14.18 14h6v6h-6v-6zM22.18 20v-6h6v6h-6z"></path>
</symbol>
<symbol id="football-15" viewBox="0 0 34 32">
<title>football-15</title>
<path  d="M9.22 32c-0.9 0-1.9-0.1-2.8-0.4-2.7-0.9-4.9-3-5.8-5.8-0.9-2.7-0.4-5.7 1.3-8.1 1.7-2.3 4.4-3.7 7.3-3.7h22c0.3 0 0.7 0.2 0.9 0.5s0.2 0.7 0 1l-4 8c-0.2 0.3-0.5 0.6-0.9 0.6h-9.1c-0.3 2.5-1.6 4.8-3.7 6.3-1.5 1-3.3 1.6-5.2 1.6zM9.22 16c-2.2 0-4.3 1.1-5.7 2.9-1.3 1.8-1.7 4.2-1 6.3s2.4 3.8 4.5 4.5c2.1 0.7 4.5 0.3 6.3-1s2.9-3.4 2.9-5.7c0-0.6 0.4-1 1-1h9.4l3-6h-20.4z"></path>
<path  d="M15.221 8c-0.6 0-1-0.4-1-1v-6c0-0.6 0.4-1 1-1s1 0.4 1 1v6c0 0.6-0.4 1-1 1z"></path>
<path  d="M22.32 10.9c-0.3 0-0.5-0.1-0.7-0.3-0.4-0.4-0.4-1 0-1.4l4.2-4.2c0.4-0.4 1-0.4 1.4 0s0.4 1 0 1.4l-4.2 4.2c-0.2 0.2-0.5 0.3-0.7 0.3z"></path>
<path  d="M8.12 10.9c-0.3 0-0.5-0.1-0.7-0.3l-4.2-4.2c-0.4-0.4-0.4-1 0-1.4s1-0.4 1.4 0l4.2 4.2c0.4 0.4 0.4 1 0 1.4-0.2 0.2-0.4 0.3-0.7 0.3z"></path>
</symbol>
<symbol id="football-16" viewBox="0 0 34 32">
<title>football-16</title>
<path  d="M25.517 31.3c-0.2 0-0.3 0-0.5-0.1l-8.8-4.6-8.8 4.6c-0.3 0.2-0.7 0.1-1.1-0.1-0.3-0.2-0.5-0.6-0.4-1l1.7-9.8-7.1-6.9c-0.3-0.3-0.4-0.7-0.3-1 0.1-0.4 0.4-0.6 0.8-0.7l9.8-1.4 4.4-8.9c0.2-0.3 0.5-0.6 0.9-0.6s0.7 0.2 0.9 0.6l4.4 8.9 9.8 1.4c0.4 0.1 0.7 0.3 0.8 0.7s0 0.8-0.3 1l-7.1 6.9 1.7 9.8c0.1 0.4-0.1 0.8-0.4 1 0 0.1-0.2 0.2-0.4 0.2zM16.217 24.4c0.2 0 0.3 0 0.5 0.1l7.5 3.9-1.4-8.3c-0.1-0.3 0.1-0.7 0.3-0.9l6-5.9-8.4-1.2c-0.3 0-0.6-0.3-0.8-0.5l-3.7-7.6-3.7 7.6c-0.1 0.3-0.4 0.5-0.8 0.5l-8.4 1.2 6 5.9c0.2 0.2 0.3 0.6 0.3 0.9l-1.4 8.3 7.5-3.9c0.2-0.1 0.4-0.1 0.5-0.1z"></path>
</symbol>
<symbol id="football-17" viewBox="0 0 34 32">
<title>football-17</title>
<path  d="M5.18 32c-0.6 0-1-0.4-1-1v-30c0-0.6 0.4-1 1-1s1 0.4 1 1v30c0 0.6-0.4 1-1 1z"></path>
<path  d="M11.18 24c-0.2 0-0.4 0-0.5-0.1-0.3-0.2-0.5-0.5-0.5-0.9v-20c0-0.4 0.2-0.7 0.5-0.9s0.7-0.2 1 0l18 10c0.3 0.2 0.5 0.5 0.5 0.9s-0.2 0.7-0.5 0.9l-18 10c-0.1 0.1-0.3 0.1-0.5 0.1zM12.18 4.7v16.6l14.9-8.3-14.9-8.3z"></path>
</symbol>
<symbol id="football-18" viewBox="0 0 34 32">
<title>football-18</title>
<path  d="M7.18 8h-6c-0.6 0-1-0.4-1-1v-6c0-0.6 0.4-1 1-1h6c0.6 0 1 0.4 1 1v6c0 0.6-0.4 1-1 1zM2.18 6h4v-4h-4v4z"></path>
<path  d="M7.18 20h-6c-0.6 0-1-0.4-1-1v-6c0-0.6 0.4-1 1-1h6c0.6 0 1 0.4 1 1v6c0 0.6-0.4 1-1 1zM2.18 18h4v-4h-4v4z"></path>
<path  d="M7.18 32h-6c-0.6 0-1-0.4-1-1v-6c0-0.6 0.4-1 1-1h6c0.6 0 1 0.4 1 1v6c0 0.6-0.4 1-1 1zM2.18 30h4v-4h-4v4z"></path>
<path  d="M31.18 8h-18c-0.6 0-1-0.4-1-1v-6c0-0.6 0.4-1 1-1h18c0.6 0 1 0.4 1 1v6c0 0.6-0.4 1-1 1zM14.18 6h16v-4h-16v4z"></path>
<path  d="M31.18 32h-18c-0.6 0-1-0.4-1-1v-6c0-0.6 0.4-1 1-1h18c0.6 0 1 0.4 1 1v6c0 0.6-0.4 1-1 1zM14.18 30h16v-4h-16v4z"></path>
<path  d="M31.18 20h-18c-0.6 0-1-0.4-1-1v-6c0-0.6 0.4-1 1-1h18c0.6 0 1 0.4 1 1v6c0 0.6-0.4 1-1 1zM14.18 18h16v-4h-16v4z"></path>
</symbol>
<symbol id="football-19" viewBox="0 0 34 32">
<title>football-19</title>
<path  d="M25.18 32c-0.3 0-0.5-0.1-0.7-0.3l-5.7-5.7h-5.6c-0.6 0-1-0.4-1-1s0.4-1 1-1h6c0.3 0 0.5 0.1 0.7 0.3l4.3 4.3v-3.6c0-0.6 0.4-1 1-1h4c0.6 0 1-0.4 1-1v-12c0-0.6-0.4-1-1-1h-2c-0.6 0-1-0.4-1-1s0.4-1 1-1h2c1.7 0 3 1.3 3 3v12c0 1.7-1.3 3-3 3h-3v5c0 0.4-0.2 0.8-0.6 0.9-0.1 0.1-0.2 0.1-0.4 0.1z"></path>
<path  d="M7.18 24c-0.1 0-0.3 0-0.4-0.1-0.4-0.2-0.6-0.5-0.6-0.9v-5h-3c-1.7 0-3-1.3-3-3v-12c0-1.7 1.3-3 3-3h18c1.7 0 3 1.3 3 3v12c0 1.7-1.3 3-3 3h-7.6l-5.7 5.7c-0.1 0.2-0.4 0.3-0.7 0.3zM3.18 2c-0.6 0-1 0.4-1 1v12c0 0.6 0.4 1 1 1h4c0.6 0 1 0.4 1 1v3.6l4.3-4.3c0.2-0.2 0.4-0.3 0.7-0.3h8c0.6 0 1-0.4 1-1v-12c0-0.6-0.4-1-1-1h-18z"></path>
</symbol>
<symbol id="football-20" viewBox="0 0 34 32">
<title>football-20</title>
<path  d="M9.18 18c-0.3 0-0.5-0.1-0.7-0.3-0.3-0.3-0.4-0.7-0.2-1l2-6c0-0.1 0.1-0.3 0.2-0.4l10-10c0.4-0.4 1-0.4 1.4 0l4 4c0.4 0.4 0.4 1 0 1.4l-10 10c-0.1 0.1-0.2 0.2-0.4 0.2l-6 2c-0.1 0.1-0.2 0.1-0.3 0.1zM11.98 11.5l-1.3 3.9 3.9-1.3 9.1-9.1-2.6-2.6-9.1 9.1z"></path>
<path  d="M31.18 32h-30c-0.6 0-1-0.4-1-1v-18c0-0.6 0.4-1 1-1h4c0.6 0 1 0.4 1 1s-0.4 1-1 1h-3v16h28v-16h-7c-0.6 0-1-0.4-1-1s0.4-1 1-1h8c0.6 0 1 0.4 1 1v18c0 0.6-0.5 1-1 1z"></path>
<path  d="M25.18 24h-18c-0.6 0-1-0.4-1-1s0.4-1 1-1h18c0.6 0 1 0.4 1 1s-0.5 1-1 1z"></path>
</symbol>
<symbol id="full-screen" viewBox="0 0 34 32">
<title>full-screen</title>
<path d="M5.949 12h-4v-10c0-1.2 0.8-2 2-2h10v4h-8v8z"></path>
<path d="M33.949 12h-4v-8h-8v-4h10c1.2 0 2 0.8 2 2v10z"></path>
<path d="M31.949 32h-10v-4h8v-8h4v10c0 1.2-0.8 2-2 2z"></path>
<path d="M13.949 32h-10c-1.2 0-2-0.8-2-2v-10h4v8h8v4z"></path>
</symbol>
<symbol id="Goal-Fail" viewBox="0 0 34 32">
<title>Goal-Fail</title>
<path  d="M19.28 29.2l-0.1 0.5c-2 0.4-4.1 0.4-6 0l-1.8-6c-0.1-0.4-0.5-0.7-1-0.7l-6.2 0.1c-1-1.7-1.7-3.7-1.9-5.7l5.1-3.6c0.4-0.3 0.5-0.7 0.4-1.1l-2-5.9c1-1.1 2.2-2.1 3.5-2.8 0.5-0.3 0.9-0.5 1.4-0.7l5 3.7c0.1 0 0.3 0.1 0.5 0.1s0.4-0.1 0.6-0.2l5-3.7c0.5 0.2 1 0.4 1.4 0.7 1.3 0.8 2.5 1.7 3.5 2.8l-2 5.9c-0.1 0.4 0 0.9 0.4 1.1l5.1 3.6c-0.1 0.7-0.2 1.4-0.4 2.1 0.6 0.5 1.1 1.2 1.5 1.9 0.6-1.7 0.9-3.5 0.9-5.3 0-3.7-1.3-7.3-3.6-10.1l-0.1-0.1c-1.2-1.4-2.6-2.6-4.3-3.6-4.9-2.8-11.1-2.8-16 0-1.6 0.9-3.1 2.1-4.3 3.5l-0.1 0.1c-2.3 2.9-3.6 6.5-3.6 10.2 0 3 0.9 6 2.4 8.5 0 0.1 0.1 0.1 0.1 0.2 1.4 2.1 3.2 3.9 5.5 5.2 1.2 0.7 2.5 1.2 3.9 1.6h0.1c1.3 0.3 2.7 0.5 4 0.5 1.4 0 2.7-0.2 4-0.5h0.1c0.4-0.1 0.8-0.2 1.2-0.4-0.8-0.5-1.6-1.1-2.2-1.9zM28.080 8.7c1.2 1.9 1.9 4 2 6.2l-3.4-2.4 1.4-3.8zM16.18 2c1.1 0 2.2 0.1 3.3 0.4l-3.3 2.5-3.3-2.5c1.1-0.3 2.2-0.4 3.3-0.4zM4.28 8.7l1.3 3.9-3.4 2.3c0.2-2.2 0.9-4.4 2.1-6.2zM9.18 28.1c-1.4-0.8-2.6-1.9-3.7-3.1h4.2l1.2 3.9c-0.6-0.2-1.2-0.5-1.7-0.8z"></path>
<path  d="M20.48 19.2l2.1-4.1c0.2-0.4 0.1-1-0.3-1.2l-5.5-4.1c-0.4-0.3-0.8-0.3-1.2 0l-5.5 4.1c-0.4 0.3-0.5 0.8-0.3 1.2l2.7 5.5c0.2 0.3 0.5 0.6 0.9 0.6h5.4c0.5-0.8 1-1.5 1.7-2zM14.080 19.1l-2.1-4.2 4.2-3.1 4.2 3.1-2.1 4.2h-4.2z"></path>
<path fill="#d3000f" style="fill: var(--color2, #d3000f)" d="M24.979 17.6c-4 0-7.2 3.2-7.2 7.2s3.2 7.2 7.2 7.2c4 0 7.2-3.2 7.2-7.2s-3.2-7.2-7.2-7.2zM26.779 28.9l-1.8-2.9-1.8 2.9h-1.9l2.7-4.1-2.6-4.1h1.8l1.8 2.8 1.8-2.8h1.8l-2.6 4.1 2.7 4.1h-1.9z"></path>
</symbol>
<symbol id="Goal-OG" viewBox="0 0 34 32">
<title>Goal-OG</title>
<path fill="#d3000f" style="fill: var(--color2, #d3000f)" d="M22.28 22.9c-1 0-1.7 0.8-1.7 1.8s0.7 1.8 1.7 1.8c0.9 0 1.7-0.8 1.7-1.8-0.1-1-0.8-1.8-1.7-1.8z"></path>
<path fill="#d3000f" style="fill: var(--color2, #d3000f)" d="M24.979 17.5c-4 0-7.2 3.2-7.2 7.2s3.2 7.2 7.2 7.2c4 0 7.2-3.2 7.2-7.2s-3.2-7.2-7.2-7.2zM22.179 27.5c-1.7 0-2.8-1.2-2.8-2.8s1.1-2.8 2.8-2.8c1.6 0 2.8 1.1 2.8 2.8s-1.1 2.8-2.8 2.8zM28.379 27.5c-1.6 0-2.8-1-2.8-2.8 0-1.6 1-2.8 2.8-2.8 0.8 0 1.6 0.3 2.2 0.9l-0.8 0.7c-0.3-0.3-0.8-0.6-1.4-0.6-0.9 0-1.6 0.7-1.6 1.8 0 1 0.6 1.8 1.7 1.8 0.4 0 0.8-0.1 1.1-0.3v-0.8h-1.2v-0.9h2.3v2.4c-0.6 0.3-1.5 0.6-2.3 0.6z"></path>
<path  d="M19.28 29.1l-0.1 0.5c-2 0.4-4.1 0.4-6 0l-1.8-6c-0.1-0.4-0.5-0.7-1-0.7l-6.2 0.1c-1-1.7-1.7-3.7-1.9-5.7l5.1-3.6c0.4-0.3 0.5-0.7 0.4-1.1l-2-5.9c1-1.1 2.2-2.1 3.5-2.8 0.5-0.3 0.9-0.5 1.4-0.7l5 3.7c0.1 0 0.3 0.1 0.5 0.1s0.4-0.1 0.6-0.2l5-3.7c0.5 0.2 1 0.4 1.4 0.7 1.3 0.8 2.5 1.7 3.5 2.8l-2 5.9c-0.1 0.4 0 0.9 0.4 1.1l5.1 3.6c-0.1 0.7-0.2 1.4-0.4 2.1 0.6 0.5 1.1 1.2 1.5 1.9 0.6-1.7 0.9-3.5 0.9-5.3 0-3.7-1.3-7.3-3.6-10.1l-0.1-0.1c-1.2-1.4-2.6-2.6-4.3-3.6-4.9-2.8-11.1-2.8-16 0-1.6 0.9-3.1 2.1-4.3 3.5l-0.1 0.1c-2.3 2.9-3.6 6.5-3.6 10.2 0 3 0.9 6 2.4 8.5 0 0.1 0.1 0.1 0.1 0.2 1.4 2.1 3.2 3.9 5.5 5.2 1.2 0.7 2.5 1.2 3.9 1.6h0.1c1.3 0.3 2.7 0.5 4 0.5 1.4 0 2.7-0.2 4-0.5h0.1c0.4-0.1 0.8-0.2 1.2-0.4-0.8-0.5-1.6-1.1-2.2-1.9zM28.080 8.6c1.2 1.9 1.9 4 2 6.2l-3.4-2.4 1.4-3.8zM16.18 1.9c1.1 0 2.2 0.1 3.3 0.4l-3.3 2.5-3.3-2.5c1.1-0.3 2.2-0.4 3.3-0.4zM4.28 8.6l1.3 3.9-3.4 2.3c0.2-2.2 0.9-4.4 2.1-6.2zM9.18 28c-1.4-0.8-2.6-1.9-3.7-3.1h4.2l1.2 3.9c-0.6-0.2-1.2-0.5-1.7-0.8z"></path>
<path  d="M20.48 19.1l2.1-4.1c0.2-0.4 0.1-1-0.3-1.2l-5.5-4.1c-0.4-0.3-0.8-0.3-1.2 0l-5.5 4.1c-0.4 0.3-0.5 0.8-0.3 1.2l2.7 5.5c0.2 0.3 0.5 0.6 0.9 0.6h5.4c0.5-0.8 1-1.5 1.7-2zM14.080 19l-2.1-4.2 4.2-3.1 4.2 3.1-2.1 4.2h-4.2z"></path>
</symbol>
<symbol id="Goal" viewBox="0 0 34 32">
<title>Goal</title>
<path  d="M29.68 24.5c1.6-2.5 2.5-5.5 2.5-8.5 0-3.7-1.3-7.3-3.6-10.1l-0.1-0.1c-1.2-1.4-2.6-2.6-4.3-3.6-4.9-2.8-11.1-2.8-16 0-1.6 0.9-3.1 2.1-4.3 3.5l-0.1 0.1c-2.3 2.9-3.6 6.5-3.6 10.2 0 3 0.9 6 2.4 8.5 0 0.1 0.1 0.1 0.1 0.2 1.4 2.1 3.2 3.9 5.5 5.2 1.2 0.7 2.5 1.2 3.9 1.6h0.1c1.3 0.3 2.7 0.5 4 0.5 1.4 0 2.7-0.2 4-0.5h0.1c1.3-0.4 2.6-0.9 3.9-1.6 2.3-1.3 4.1-3.1 5.5-5.3 0 0 0-0.1 0-0.1zM28.080 8.7c1.2 1.9 1.9 4 2 6.2l-3.4-2.4 1.4-3.8zM16.18 2c1.1 0 2.2 0.1 3.3 0.4l-3.3 2.5-3.3-2.5c1.1-0.3 2.2-0.4 3.3-0.4zM5.58 12.6l-3.4 2.3c0.2-2.2 0.9-4.4 2-6.2l1.4 3.9zM5.48 25.1l4.2-0.1 1.2 3.9c-0.6-0.2-1.1-0.5-1.7-0.8-1.4-0.8-2.6-1.8-3.7-3zM13.18 29.7l-1.8-6c-0.1-0.4-0.5-0.7-1-0.7l-6.2 0.1c-1-1.7-1.7-3.7-1.9-5.7l5.1-3.6c0.4-0.3 0.5-0.7 0.4-1.1l-2-5.9c1-1.1 2.2-2.1 3.5-2.8 0.5-0.3 0.9-0.5 1.4-0.7l5 3.7c0.1 0 0.3 0.1 0.5 0.1s0.4-0.1 0.6-0.2l5-3.7c0.5 0.2 1 0.4 1.4 0.7 1.3 0.8 2.5 1.7 3.5 2.8l-2 5.9c-0.1 0.4 0 0.9 0.4 1.1l5.1 3.6c-0.2 2-0.8 4-1.9 5.7h-6.3c-0.4 0-0.8 0.3-1 0.7l-1.8 6c-2 0.4-4 0.4-6 0zM23.18 28.1c-0.5 0.3-1.1 0.6-1.7 0.8l1.2-3.9 4.1 0.1c-1 1.2-2.2 2.2-3.6 3z"></path>
<path  d="M19.78 20.5l2.7-5.5c0.2-0.4 0.1-1-0.3-1.2l-5.5-4.1c-0.4-0.3-0.8-0.3-1.2 0l-5.5 4.1c-0.4 0.3-0.5 0.8-0.3 1.2l2.7 5.5c0.2 0.3 0.5 0.6 0.9 0.6h5.5c0.5 0 0.9-0.2 1-0.6zM14.080 19.1l-2.1-4.2 4.2-3.1 4.2 3.1-2.1 4.2h-4.2z"></path>
</symbol>
<symbol id="home-1" viewBox="0 0 34 32">
<title>home-1</title>
<path d="M23.847 32h3.998c1.199 0 1.999-0.799 1.999-1.997v-14.178h1.999c0.6 0 1.199-0.2 1.599-0.599 0.8-0.799 0.6-1.997-0.2-2.796l-13.992-11.981c-0.8-0.599-1.799-0.599-2.599 0l-13.992 11.981c-0.8 0.799-0.999 1.997-0.2 2.796 0.2 0.399 0.8 0.599 1.399 0.599 0.4 0 1.999 0 1.999 0v14.178c0 1.198 0.8 1.997 1.999 1.997h3.998c1.199 0 1.999-0.799 1.999-1.997v-6.19h7.995v6.19c0 1.198 0.799 1.997 1.999 1.997z"></path>
</symbol>
<symbol id="Infographic" viewBox="0 0 34 32">
<title>Infographic</title>
<path d="M20.55 17.2h-5.3c-0.7 0-1.3 0.6-1.3 1.3v12c0 0.7 0.6 1.3 1.3 1.3h5.3c0.7 0 1.3-0.6 1.3-1.3v-12c0.1-0.7-0.5-1.3-1.3-1.3z"></path>
<path d="M8.55 22.6h-5.3c-0.7 0-1.3 0.6-1.3 1.3v6.7c0 0.7 0.6 1.3 1.3 1.3h5.3c0.7 0 1.3-0.6 1.3-1.3v-6.7c0.1-0.7-0.5-1.3-1.3-1.3z"></path>
<path d="M32.55 11.9h-5.3c-0.7 0-1.3 0.6-1.3 1.3v17.3c0 0.7 0.6 1.3 1.3 1.3h5.3c0.7 0 1.3-0.6 1.3-1.3v-17.3c0.1-0.7-0.5-1.3-1.3-1.3z"></path>
<path d="M18.85 12.9l8.4-8.4v4.8h2.7v-8c0-0.7-0.6-1.3-1.3-1.3h-8v2.7h4.8l-7.4 7.4-4.4-4.4c-0.5-0.5-1.4-0.5-1.9 0l-6.7 6.7 1.9 1.9 5.7-5.7 4.4 4.4c0.5 0.4 1.3 0.4 1.8-0.1z"></path>
</symbol>
<symbol id="left-1" viewBox="0 0 34 32">
<title>left-1</title>
<path d="M23.851 6l-12 10 12 10v-20z"></path>
</symbol>
<symbol id="left-2" viewBox="0 0 34 32">
<title>left-2</title>
<path d="M21.851 5.2l2.8 2.8-8 8 8 8-2.8 2.8-10.8-10.8 10.8-10.8z"></path>
</symbol>
<symbol id="left-3" viewBox="0 0 34 32">
<title>left-3</title>
<path d="M23.251 0.6l3 2.8-12.6 12.6 12.6 12.6-3 2.8-15.4-15.4 15.4-15.4z"></path>
</symbol>
<symbol id="left-4" viewBox="0 0 34 32">
<title>left-4</title>
<path d="M15.251 29.4l2.8-2.8-8.6-8.6h24.4v-4h-24.4l8.6-8.6-2.8-2.8-13.4 13.4 13.4 13.4z"></path>
</symbol>
<symbol id="Link" viewBox="0 0 34 32">
<title>Link</title>
<path d="M10.951 32c-2.4 0-4.6-1-6.4-2.6-3.6-3.6-3.6-9.2 0-12.8l1.4-1.4 2.8 2.8-1.4 1.4c-2 2-2 5.2 0 7.2s5.2 2 7.2 0l6-6c2-2 2-5.2 0-7.2l-1.4-1.4 2.8-2.8 1.4 1.4c3.6 3.6 3.6 9.2 0 12.8l-6 6c-1.6 1.6-4 2.6-6.4 2.6z"></path>
<path d="M13.951 22.8l-1.4-1.4c-3.6-3.6-3.6-9.2 0-12.8l6-6c1.8-1.8 4-2.6 6.4-2.6s4.6 1 6.4 2.6c3.6 3.6 3.6 9.2 0 12.8l-1.4 1.4-2.8-2.8 1.4-1.4c2-2 2-5.2 0-7.2s-5.2-2-7.2 0l-6 6c-2 2-2 5.2 0 7.2l1.4 1.4-2.8 2.8z"></path>
</symbol>
<symbol id="loop" viewBox="0 0 34 32">
<title>loop</title>
<path d="M31.949 6h-4v4h2v12h-12v-4l-8 6 8 6v-4h14c1.2 0 2-0.8 2-2v-16c0-1.2-0.8-2-2-2z"></path>
<path d="M5.949 10h12v4l8-6-8-6v4h-14c-1.2 0-2 0.8-2 2v16c0 1.2 0.8 2 2 2h4v-4h-2v-12z"></path>
</symbol>
<symbol id="Medal" viewBox="0 0 34 32">
<title>Medal</title>
<path d="M15.934 8.172l-4.321-7.201c-0.178-0.296-0.429-0.541-0.73-0.712s-0.64-0.26-0.985-0.26h-6.947c-0.809 0-1.283 0.911-0.819 1.574l6.954 9.935c1.857-1.736 4.22-2.927 6.848-3.337zM32.947 0h-6.947c-0.702 0-1.354 0.369-1.715 0.971l-4.321 7.201c2.627 0.41 4.99 1.601 6.847 3.336l6.954-9.934c0.464-0.663-0.010-1.574-0.819-1.574zM17.949 10c-6.075 0-11 4.925-11 11s4.925 11 11 11c6.075 0 11-4.925 11-11s-4.925-11-11-11zM23.732 19.829l-2.371 2.31 0.561 3.264c0.1 0.585-0.516 1.032-1.041 0.756l-2.932-1.541-2.931 1.541c-0.525 0.278-1.141-0.171-1.041-0.756l0.561-3.264-2.371-2.31c-0.426-0.415-0.191-1.139 0.397-1.224l3.277-0.477 1.464-2.97c0.132-0.268 0.387-0.399 0.642-0.399 0.257 0 0.514 0.134 0.646 0.399l1.464 2.97 3.277 0.477c0.587 0.085 0.823 0.809 0.397 1.224v0z"></path>
</symbol>
<symbol id="next" viewBox="0 0 34 32">
<title>next</title>
<path d="M10.75 17.6l20 14c1.4 1 3.2 0 3.2-1.6v-28c0-1.6-1.8-2.6-3.2-1.6l-20 14c-1 0.8-1 2.4 0 3.2z"></path>
<path d="M3.949 32.001c1.2 0 2-0.8 2-2v-28c0-1.2-0.8-2-2-2s-2 0.8-2 2v28c0 1.2 0.8 2 2 2z"></path>
</symbol>
<symbol id="pause" viewBox="0 0 34 32">
<title>pause</title>
<path d="M11.949 2h-6c-1.2 0-2 0.8-2 2v24c0 1.2 0.8 2 2 2h6c1.2 0 2-0.8 2-2v-24c0-1.2-0.8-2-2-2z"></path>
<path d="M29.949 2h-6c-1.2 0-2 0.8-2 2v24c0 1.2 0.8 2 2 2h6c1.2 0 2-0.8 2-2v-24c0-1.2-0.8-2-2-2z"></path>
</symbol>
<symbol id="Penalty-Fail" viewBox="0 0 34 32">
<title>Penalty-Fail</title>
<path  d="M19.28 29.1l-0.1 0.5c-2 0.4-4.1 0.4-6 0l-1.8-6c-0.1-0.2-0.2-0.3-0.3-0.4 1.5 1 3.2 1.6 5.1 1.6 0.5 0 1.1-0.1 1.6-0.2 0-3.9 3.2-7.1 7.2-7.2 0.1-0.5 0.2-1.1 0.2-1.6 0-0.9-0.1-1.8-0.4-2.6 0.1 0.1 0.2 0.3 0.3 0.4l5.1 3.6c-0.1 0.7-0.2 1.4-0.4 2.1 0.6 0.5 1.1 1.2 1.5 1.9 0.6-1.7 0.9-3.5 0.9-5.3 0-3.7-1.3-7.3-3.6-10.1l-0.1-0.1c-1.2-1.4-2.6-2.6-4.3-3.6-4.9-2.8-11.1-2.8-16 0-1.6 0.9-3.1 2.1-4.3 3.5l-0.1 0.1c-2.3 2.9-3.6 6.5-3.6 10.2 0 3 0.9 6 2.4 8.5 0 0.1 0.1 0.1 0.1 0.2 1.4 2.1 3.2 3.9 5.5 5.2 1.2 0.7 2.5 1.2 3.9 1.6h0.1c1.3 0.3 2.7 0.5 4 0.5 1.4 0 2.7-0.2 4-0.5h0.1c0.4-0.1 0.8-0.2 1.2-0.4-0.8-0.5-1.6-1.1-2.2-1.9zM16.080 17.9h-2v4.3h-2.5v-12.6h4.7c3.1 0 4.4 1.8 4.4 4.2 0 2.8-1.8 4.1-4.6 4.1zM28.080 8.6c1.2 1.9 1.9 4 2 6.2l-3.4-2.4 1.4-3.8zM23.18 3.8c1.3 0.8 2.5 1.7 3.5 2.8l-2 5.9c-0.1 0.2-0.1 0.3 0 0.5-1.2-3.5-4.4-6-8.3-6 0.2 0 0.3-0.1 0.5-0.2l5-3.7c0.4 0.2 0.8 0.4 1.3 0.7zM16.18 1.9c1.1 0 2.2 0.1 3.3 0.4l-3.3 2.5-3.3-2.5c1.1-0.3 2.2-0.4 3.3-0.4zM9.18 3.8c0.5-0.3 0.9-0.5 1.4-0.7l5 3.7c0.1 0.1 0.3 0.2 0.5 0.2-3.9 0.1-7.1 2.6-8.3 6 0-0.2 0-0.3 0-0.5l-2-5.9c0.9-1.1 2.1-2.1 3.4-2.8zM4.28 8.6l1.3 3.9-3.4 2.3c0.2-2.2 0.9-4.4 2.1-6.2zM9.18 28c-1.4-0.8-2.6-1.9-3.7-3.1h4.2l1.2 3.9c-0.6-0.2-1.2-0.5-1.7-0.8zM10.38 22.9l-6.2 0.1c-1-1.7-1.7-3.7-1.9-5.7l5.1-3.6c0.1-0.1 0.2-0.2 0.3-0.4-0.3 0.8-0.4 1.7-0.4 2.6 0 2.9 1.4 5.5 3.6 7.2-0.1-0.1-0.3-0.2-0.5-0.2z"></path>
<path  d="M15.88 11.8h-1.8v3.9h1.7c1.6 0 2.3-0.8 2.3-1.9 0-1.2-0.7-2-2.2-2z"></path>
<path fill="#d3000f" style="fill: var(--color2, #d3000f)" d="M24.979 17.5c-4 0-7.2 3.2-7.2 7.2s3.2 7.2 7.2 7.2c4 0 7.2-3.2 7.2-7.2s-3.2-7.2-7.2-7.2zM26.779 28.8l-1.8-2.9-1.8 2.9h-1.9l2.7-4.1-2.6-4.1h1.8l1.8 2.8 1.8-2.8h1.8l-2.6 4.1 2.7 4.1h-1.9z"></path>
</symbol>
<symbol id="Penalty" viewBox="0 0 34 32">
<title>Penalty</title>
<path  d="M28.58 5.9l-0.1-0.1c-1.2-1.4-2.6-2.6-4.3-3.6-4.9-2.8-11.1-2.8-16 0-1.6 0.9-3.1 2.2-4.3 3.6l-0.1 0.1c-2.3 2.8-3.6 6.4-3.6 10.1 0 3 0.9 6 2.4 8.5 0 0.1 0.1 0.1 0.1 0.2 1.4 2.1 3.2 3.9 5.5 5.2 1.2 0.7 2.5 1.2 3.9 1.6h0.1c1.3 0.3 2.7 0.5 4 0.5 1.4 0 2.7-0.2 4-0.5h0.1c1.3-0.4 2.6-0.9 3.9-1.6 2.3-1.3 4.1-3.1 5.5-5.3l0.1-0.1c1.5-2.5 2.4-5.5 2.4-8.5 0-3.7-1.3-7.3-3.6-10.1zM28.080 8.7c1.2 1.9 1.9 4 2 6.2l-3.4-2.4 1.4-3.8zM23.18 3.9c1.3 0.8 2.5 1.7 3.5 2.8l-2 5.9c-0.1 0.2-0.1 0.3 0 0.5-1.2-3.5-4.4-6-8.3-6 0.2 0 0.3-0.1 0.5-0.2l5-3.7c0.4 0.2 0.9 0.4 1.3 0.7zM20.78 13.9c0 2.8-1.8 4.1-4.6 4.1h-2v4.3h-2.5v-12.6h4.7c3 0 4.4 1.8 4.4 4.2zM16.18 2c1.1 0 2.2 0.1 3.3 0.4l-3.3 2.5-3.3-2.5c1.1-0.3 2.2-0.4 3.3-0.4zM9.18 3.9c0.5-0.3 0.9-0.5 1.4-0.7l5 3.7c0.1 0.1 0.3 0.2 0.5 0.2-3.9 0.1-7.1 2.6-8.3 6 0-0.2 0-0.3 0-0.5l-2-5.9c0.9-1.1 2.1-2.1 3.4-2.8zM4.28 8.7l1.3 3.9-3.4 2.4c0.3-2.3 1-4.4 2.1-6.3zM9.18 28.1c-1.4-0.8-2.6-1.9-3.7-3.1l4.1-0.1 1.2 3.9c-0.5-0.1-1-0.4-1.6-0.7zM10.38 23l-6.2 0.1c-1-1.7-1.7-3.7-1.9-5.7l5.1-3.6c0.1-0.1 0.2-0.2 0.3-0.4-0.3 0.8-0.4 1.7-0.4 2.6 0 2.9 1.4 5.5 3.6 7.2-0.1-0.1-0.3-0.2-0.5-0.2zM23.18 28.1c-0.5 0.3-1.1 0.6-1.7 0.8l1.2-3.9 4.1 0.1c-0.9 1.2-2.2 2.2-3.6 3zM28.28 23.1l-6.2-0.1c-0.4 0-0.8 0.3-1 0.7l-1.8 6c-2 0.4-4.1 0.4-6 0l-1.8-6c-0.1-0.2-0.2-0.3-0.3-0.4 1.5 1 3.2 1.6 5.1 1.6 4.9 0 8.9-4 8.9-8.9 0-0.9-0.1-1.8-0.4-2.6 0.1 0.1 0.2 0.3 0.3 0.4l5.1 3.6c-0.2 2-0.9 4-1.9 5.7z"></path>
<path  d="M14.18 11.9v3.9h1.7c1.6 0 2.3-0.8 2.3-1.9 0-1.2-0.8-1.9-2.2-1.9h-1.8v-0.1z"></path>
</symbol>
<symbol id="play" viewBox="0 0 34 32">
<title>play</title>
<path fill="#fff" style="fill: var(--color3, #fff)" d="M9.176 7.226h17.548v17.548h-17.548v-17.548z"></path>
<path fill="#000" style="fill: var(--color4, #000)" d="M17.949 0c-8.823 0-16 7.177-16 16s7.177 16 16 16c8.823 0 16-7.177 16-16s-7.177-16-16-16zM24.936 16.436l-11.355 7.226c-0.078 0.049-0.168 0.077-0.26 0.080s-0.184-0.019-0.265-0.063c-0.081-0.045-0.149-0.11-0.196-0.19s-0.072-0.17-0.072-0.263v-14.452c0-0.093 0.025-0.183 0.072-0.263s0.115-0.145 0.196-0.19c0.081-0.045 0.173-0.066 0.265-0.063s0.182 0.031 0.261 0.080l11.355 7.226c0.073 0.047 0.133 0.111 0.174 0.188s0.063 0.161 0.063 0.248c0 0.087-0.022 0.172-0.063 0.248s-0.102 0.14-0.175 0.187v0z"></path>
</symbol>
<symbol id="play2" viewBox="0 0 34 32">
<title>play2</title>
<path d="M29.149 14.4l-20-14c-1.4-1-3.2 0-3.2 1.6v28c0 1.6 1.8 2.6 3.2 1.6l20-14c1-0.8 1-2.4 0-3.2z"></path>
</symbol>
<symbol id="prev" viewBox="0 0 34 32">
<title>prev</title>
<path d="M25.149 14.4l-20-14c-1.4-1-3.2 0-3.2 1.6v28c0 1.6 1.8 2.6 3.2 1.6l20-14c1-0.8 1-2.4 0-3.2z"></path>
<path d="M31.949 0.001c-1.2 0-2 0.8-2 2v28c0 1.2 0.8 2 2 2s2-0.8 2-2v-28c0-1.2-0.8-2-2-2z"></path>
</symbol>
<symbol id="print" viewBox="0 0 34 32">
<title>print</title>
<path d="M27.95 0.001h-20v6h20v-6z"></path>
<path d="M23.95 28h-12v-10h12v10zM31.95 10h-28c-1.2 0-2 0.8-2 2v12c0 1.2 0.8 2 2 2h4v4c0 1.2 0.8 2 2 2h16c1.2 0 2-0.8 2-2v-4h4c1.2 0 2-0.8 2-2v-12c0-1.2-0.8-2-2-2z"></path>
</symbol>
<symbol id="record" viewBox="0 0 34 32">
<title>record</title>
<path d="M31.949 15.976c0 5-2.7 9.6-7 12.1s-9.7 2.5-14 0c-4.3-2.5-7-7.1-7-12.1s2.7-9.6 7-12.1 9.7-2.5 14 0c4.4 2.4 7 7.1 7 12.1z"></path>
</symbol>
<symbol id="Red-Card" viewBox="0 0 34 32">
<title>Red-Card</title>
<path fill="#d3000f" style="fill: var(--color2, #d3000f)" d="M14.18 16.2c1.5-1.5 4.2-1.5 5.7 0 0.1 0.1 0.1 0.1 0.2 0.2v-14.4h-14v20h7v-3c-0.1-1.1 0.4-2.1 1.1-2.8z"></path>
<path  d="M27.78 19.7l-2.4-10.4c-0.3-1.2-1-2.3-2.1-3l-1.2-0.8v-4.5c0-0.6-0.4-1-1-1h-16c-0.6 0-1 0.4-1 1v22c0 0.6 0.4 1 1 1h4c0.6 0 1-0.4 1-1s-0.4-1-1-1h-3v-20h14v11c0 0.6 0.4 1 1 1s1-0.4 1-1v-5.1l0.1 0.1c0.6 0.4 1.1 1.1 1.3 1.8l2.4 10.4c0.1 0.5 0.1 1 0 1.5l-2.5 8.3h-5.9c-1.3-1-2.2-2.5-2.3-4v-7c0-0.5 0.2-1 0.6-1.4 0.8-0.8 2.1-0.8 2.8 0 0.4 0.4 0.6 0.9 0.6 1.4v5c0 0.6 0.4 1 1 1s1-0.4 1-1v-5c0-1-0.4-1.9-1-2.6-0.1-0.1-0.1-0.1-0.2-0.2-1.5-1.5-4.2-1.5-5.7 0-0.8 0.8-1.2 1.8-1.2 2.8v7.1c0.2 2.3 1.5 4.4 3.4 5.7 0.2 0.1 0.4 0.2 0.6 0.2h7c0.4 0 0.8-0.3 1-0.7l2.7-9c0.1-0.8 0.2-1.7 0-2.6z"></path>
</symbol>
<symbol id="replay" viewBox="0 0 34 32">
<title>replay</title>
<path d="M19.399 0.001l1.4 12.8 4.2-4.2c3.8 3.8 3.8 10.2 0 14-1.8 2-4.4 3-7 3s-5.2-1-7-3c-3.8-3.8-3.8-10.2 0-14 1.2-1.2 2.8-2.2 4.6-2.6l-1.2-3.8c-2.4 0.6-4.6 1.8-6.4 3.6-5.4 5.4-5.4 14.2 0 19.8 2.6 2.6 6.2 4 9.8 4 3.8 0 7.2-1.4 9.8-4 5.4-5.4 5.4-14.2 0-19.8l4.4-4.4-12.6-1.4z"></path>
</symbol>
<symbol id="rewind" viewBox="0 0 34 32">
<title>rewind</title>
<path d="M21.15 30.401c0.4 0.3 0.9 0.4 1.4 0.1 0.5-0.2 0.7-0.7 0.7-1.2v-5.9l8.5 6.9c0.4 0.3 0.9 0.4 1.4 0.2s0.8-0.7 0.8-1.2v-26.6c0-0.5-0.3-1-0.8-1.2-0.2-0.1-0.4-0.1-0.6-0.1-0.3 0-0.6 0.1-0.8 0.3l-8.5 6.9v-5.9c0-0.5-0.3-1-0.7-1.2-0.5-0.2-1-0.2-1.4 0.1l-17.3 13.3c-0.3 0.3-0.5 0.6-0.5 1.1 0 0.4 0.2 0.8 0.5 1.1l17.3 13.3z"></path>
</symbol>
<symbol id="right-1" viewBox="0 0 34 32">
<title>right-1</title>
<path d="M11.851 26l12-10-12-10v20z"></path>
</symbol>
<symbol id="right-2" viewBox="0 0 34 32">
<title>right-2</title>
<path d="M13.851 26.8l-2.8-2.8 8-8-8-8 2.8-2.8 10.8 10.8-10.8 10.8z"></path>
</symbol>
<symbol id="right-3" viewBox="0 0 34 32">
<title>right-3</title>
<path d="M10.851 31.4l-3-2.8 12.6-12.6-12.6-12.6 3-2.8 15.4 15.4-15.4 15.4z"></path>
</symbol>
<symbol id="right-4" viewBox="0 0 34 32">
<title>right-4</title>
<path d="M20.451 2.6l-2.8 2.8 8.6 8.6h-24.4v4h24.4l-8.6 8.6 2.8 2.8 13.4-13.4-13.4-13.4z"></path>
</symbol>
<symbol id="save" viewBox="0 0 34 32">
<title>save</title>
<path d="M9.949 0c-2.2 0-4 1.8-4 4v28l12-6 12 6v-28c0-2.2-1.8-4-4-4h-16z"></path>
</symbol>
<symbol id="search" viewBox="0 0 34 32">
<title>search</title>
<path d="M16.049 24c-5.6 0-10.1-4.4-10.1-9.9s4.6-10.1 10.1-10.1c5.5 0 10.1 4.5 10.1 10s-4.5 10-10.1 10zM27.149 22.4c1.8-2.4 2.8-5.2 2.8-8.3 0-7.8-6.2-14.1-13.9-14.1-7.8 0-14.1 6.4-14.1 14.1 0 7.8 6.4 14.1 14.1 14.1 3.2 0 6.2-1 8.3-2.8l6 6c0.4 0.4 1 0.6 1.4 0.6s1-0.2 1.4-0.6c0.8-0.8 0.8-2 0-2.8l-6-6.2z"></path>
</symbol>
<symbol id="setting" viewBox="0 0 34 32">
<title>setting</title>
<path d="M17.949 22c-3.4 0-6-2.6-6-6s2.6-6 6-6c3.4 0 6 2.6 6 6s-2.6 6-6 6zM28.549 10.4l2.2-4.2-2.8-2.8-4.2 2.2c-0.6-0.4-1.4-0.6-2.2-0.8l-1.6-4.8h-4l-1.6 4.6c-0.6 0.2-1.4 0.4-2 0.8l-4.2-2.2-3 3 2.2 4.2c-0.4 0.6-0.6 1.4-0.8 2l-4.6 1.6v4l4.6 1.6c0.2 0.8 0.6 1.4 0.8 2.2l-2.2 4.2 2.8 2.8 4.2-2.2c0.6 0.4 1.4 0.6 2.2 0.8l1.6 4.6h4l1.6-4.6c0.8-0.2 1.4-0.6 2.2-0.8l4.2 2.2 2.8-2.8-2.2-4.2c0.4-0.6 0.6-1.4 0.8-2.2l4.6-1.6v-4l-4.6-1.6c-0.2-0.6-0.4-1.4-0.8-2z"></path>
</symbol>
<symbol id="share" viewBox="0 0 34 32">
<title>share</title>
<path d="M25.849 12c3.3 0 6-2.7 6-6s-2.7-6-6-6c-3.3 0-6 2.7-6 6 0 0.4 0.1 0.9 0.2 1.3l-6.4 4c-1-0.8-2.3-1.3-3.7-1.3-3.3 0-6 2.7-6 6s2.7 6 6 6c1.4 0 2.7-0.5 3.7-1.3l6.4 4c-0.1 0.4-0.2 0.9-0.2 1.3 0 3.3 2.7 6 6 6s6-2.7 6-6c0-3.3-2.7-6-6-6-1.4 0-2.7 0.5-3.7 1.3l-6.4-4c0.1-0.4 0.2-0.9 0.2-1.3s-0.1-0.9-0.2-1.3l6.4-4c1 0.8 2.3 1.3 3.7 1.3z"></path>
</symbol>
<symbol id="shuffle" viewBox="0 0 34 32">
<title>shuffle</title>
<path d="M25.949 22c-3 0-4-1.1-5.7-3l-2.7 3c2.2 2.5 4.5 3.9 8.3 3.9v4l8-6-8-6v4.1h0.1z"></path>
<path d="M9.649 13.001l2.7-3c-2.1-2.4-4.5-3.9-8-3.9h-2.4v4h2.4c2.6-0.1 3.8 1.2 5.3 2.9z"></path>
<path d="M25.949 6.001c-3.4 0-6 1.3-7.9 3.4l-9.2 10.5c-1.1 1.3-2.8 2.1-4.5 2.1h-2.4v4h2.4c2.9 0 5.6-1.2 7.5-3.4l9.2-10.5c1.3-1.5 3-2 4.9-2v4l8-6-8-6v3.9z"></path>
</symbol>
<symbol id="skip" viewBox="0 0 34 32">
<title>skip</title>
<path d="M14.749 1.6c-0.4-0.3-0.9-0.4-1.4-0.1-0.5 0.2-0.7 0.7-0.7 1.2v5.9l-8.5-6.9c-0.4-0.3-0.9-0.4-1.4-0.2s-0.8 0.7-0.8 1.2v26.7c0 0.5 0.3 1 0.8 1.2 0.2 0.1 0.4 0.1 0.6 0.1 0.3 0 0.6-0.1 0.8-0.3l8.5-6.9v5.9c0 0.5 0.3 1 0.7 1.2 0.5 0.2 1 0.2 1.4-0.1l17.3-13.3c0.3-0.3 0.5-0.6 0.5-1.1 0-0.4-0.2-0.8-0.5-1.1l-17.3-13.4z"></path>
</symbol>
<symbol id="Slide-Show" viewBox="0 0 34 32">
<title>Slide-Show</title>
<path d="M30.139 0h-16c-0.689 0.001-1.358 0.241-1.897 0.682s-0.915 1.055-1.069 1.744c0.219-0.052 0.445-0.084 0.68-0.084h16c0.808 0 1.584 0.329 2.155 0.914s0.893 1.38 0.893 2.208v16.39c0 0.24-0.032 0.471-0.082 0.696 0.672-0.157 1.272-0.543 1.702-1.095s0.665-1.237 0.666-1.943v-16.39c0-0.828-0.321-1.622-0.893-2.208s-1.347-0.914-2.155-0.914z"></path>
<path d="M25.569 4.683h-16c-0.689 0.001-1.358 0.241-1.897 0.682s-0.915 1.055-1.069 1.744c0.219-0.051 0.445-0.084 0.68-0.084h16c0.808 0 1.583 0.329 2.155 0.914s0.893 1.38 0.893 2.208v16.39c0 0.24-0.032 0.471-0.082 0.696 0.672-0.157 1.272-0.543 1.702-1.095s0.665-1.237 0.666-1.943v-16.39c0-0.828-0.321-1.622-0.893-2.208s-1.347-0.914-2.155-0.914z"></path>
<path d="M24.044 28.878c0 0.828-0.321 1.622-0.893 2.207s-1.347 0.914-2.155 0.914h-16c-0.808 0-1.583-0.329-2.155-0.914s-0.893-1.379-0.893-2.207v-16.39c0-0.828 0.321-1.622 0.893-2.208s1.347-0.914 2.155-0.914h16c0.808 0 1.583 0.329 2.155 0.914s0.893 1.38 0.893 2.208v16.39z"></path>
</symbol>
<symbol id="sound" viewBox="0 0 34 32">
<title>sound</title>
<path d="M27.149 1.475c-0.5-0.2-1-0.2-1.4 0.1l-10.3 7.7h-6.2c-0.7 0-1.3 0.6-1.3 1.3v10.7c0 0.7 0.6 1.3 1.3 1.3h6.2l10.3 7.7c0.2 0.2 0.5 0.3 0.8 0.3 0.2 0 0.4 0 0.6-0.1 0.5-0.2 0.7-0.7 0.7-1.2v-26.6c0-0.5-0.2-1-0.7-1.2z"></path>
</symbol>
<symbol id="sound-1" viewBox="0 0 34 32">
<title>sound-1</title>
<path d="M23.848 1.475c-0.5-0.2-1-0.2-1.4 0.1l-10.3 7.7h-6.2c-0.7 0-1.3 0.6-1.3 1.3v10.7c0 0.7 0.6 1.3 1.3 1.3h6.2l10.3 7.7c0.2 0.2 0.5 0.3 0.8 0.3 0.2 0 0.4 0 0.6-0.1 0.5-0.2 0.7-0.7 0.7-1.2v-26.6c0-0.5-0.3-1-0.7-1.2z"></path>
<path d="M28.849 10.275l-0.9-0.9-1.9 1.9 0.9 0.9c2.1 2.1 2.1 5.5 0 7.5l-0.9 0.9 1.9 1.9 0.9-0.9c3.2-3.1 3.2-8.1 0-11.3z"></path>
</symbol>
<symbol id="sound-2" viewBox="0 0 34 32">
<title>sound-2</title>
<path d="M21.149 1.475c-0.5-0.2-1-0.2-1.4 0.1l-10.3 7.7h-6.2c-0.7 0-1.3 0.6-1.3 1.3v10.7c0 0.7 0.6 1.3 1.3 1.3h6.2l10.3 7.7c0.2 0.2 0.5 0.3 0.8 0.3 0.2 0 0.4 0 0.6-0.1 0.5-0.2 0.7-0.7 0.7-1.2v-26.6c0-0.5-0.2-1-0.7-1.2z"></path>
<path d="M26.249 10.275l-0.9-0.9-1.9 1.9 0.9 0.9c2.1 2.1 2.1 5.5 0 7.5l-0.9 0.9 1.9 1.9 0.9-0.9c3.1-3.1 3.1-8.1 0-11.3z"></path>
<path d="M29.048 5.575l-1.9 1.9 0.9 0.9c4.2 4.2 4.2 10.9 0 15.1l-0.9 0.9 1.9 1.9 0.9-0.9c5.2-5.2 5.2-13.7 0-18.9l-0.9-0.9z"></path>
</symbol>
<symbol id="sound-mute" viewBox="0 0 34 32">
<title>sound-mute</title>
<path d="M15.924 23.575l9.1 6.8c0.2 0.2 0.5 0.3 0.8 0.3 0.2 0 0.4 0 0.6-0.1 0.5-0.2 0.7-0.7 0.7-1.2v-17l-11.2 11.2z"></path>
<path d="M4.523 22.675h6.7l16-16v-4c0-0.5-0.3-1-0.7-1.2-0.5-0.2-1-0.2-1.4 0.1l-10.3 7.7h-10.2c-0.7 0-1.3 0.6-1.3 1.3v10.7c-0.1 0.8 0.5 1.4 1.2 1.4z"></path>
<path d="M3.224 31.975c-0.3 0-0.7-0.1-0.9-0.4-0.5-0.5-0.5-1.4 0-1.9l29.3-29.3c0.5-0.5 1.4-0.5 1.9 0s0.5 1.4 0 1.9l-29.3 29.3c-0.3 0.3-0.7 0.4-1 0.4z"></path>
</symbol>
<symbol id="stop" viewBox="0 0 34 32">
<title>stop</title>
<path d="M29.949 2h-24c-1.2 0-2 0.8-2 2v24c0 1.2 0.8 2 2 2h24c1.2 0 2-0.8 2-2v-24c0-1.2-0.8-2-2-2z"></path>
</symbol>
<symbol id="Thumb-Down" viewBox="0 0 34 32">
<title>Thumb-Down</title>
<path d="M10.106 21h6.365v6c0 2.25 1.198 3 2.995 3 0.449 0 0.899-0.3 0.899-0.75 0 0 3.445-11.25 3.594-11.25v-12h-12.88c-1.947 0-3.594 1.5-3.894 3.45l-1.198 6.9c-0.15 1.2 0.15 2.4 0.899 3.15 0.749 1.050 2.022 1.5 3.22 1.5z"></path>
<path d="M26.954 18h2.995v-12h-2.995v12z"></path>
</symbol>
<symbol id="Thumb-Up" viewBox="0 0 34 32">
<title>Thumb-Up</title>
<path d="M25.793 11h-6.365v-6c0-2.25-1.198-3-2.995-3-0.449 0-0.899 0.3-0.899 0.75 0 0-3.445 11.25-3.594 11.25v12h12.88c1.947 0 3.594-1.5 3.894-3.45l1.198-6.9c0.15-1.2-0.15-2.4-0.899-3.15-0.749-1.050-2.022-1.5-3.22-1.5z"></path>
<path d="M8.945 14h-2.995v12h2.995v-12z"></path>
</symbol>
<symbol id="Twitter" viewBox="0 0 34 32">
<title>Twitter</title>
<path d="M33.95 6c-1.2 0.6-2.4 0.8-3.8 1 1.4-0.8 2.4-2 2.8-3.6-1.2 0.8-2.6 1.2-4.2 1.6-1.2-1.2-3-2-4.8-2-3.4 0-6.4 3-6.4 6.6 0 0.6 0 1 0.2 1.4-5.4-0.2-10.4-2.8-13.6-6.8-0.6 1-0.8 2-0.8 3.4 0 2.2 1.2 4.2 3 5.4-1 0-2-0.4-3-0.8 0 3.2 2.2 5.8 5.2 6.4-0.6 0.2-1.2 0.2-1.8 0.2-0.4 0-0.8 0-1.2-0.2 0.8 2.6 3.2 4.6 6.2 4.6-2.2 1.8-5 2.8-8.2 2.8h-1.6c3 1.8 6.4 3 10 3 12 0 18.6-10 18.6-18.6v-0.8c1.4-1 2.6-2.2 3.4-3.6z"></path>
</symbol>
<symbol id="up-1" viewBox="0 0 34 32">
<title>up-1</title>
<path d="M27.851 22l-10-12-10 12h20z"></path>
</symbol>
<symbol id="up-2" viewBox="0 0 34 32">
<title>up-2</title>
<path d="M17.851 9.2l10.8 10.8-2.8 2.8-8-8-8 8-2.8-2.8 10.8-10.8z"></path>
</symbol>
<symbol id="up-3" viewBox="0 0 34 32">
<title>up-3</title>
<path d="M33.25 22.2l-2.8 3-12.6-12.6-12.6 12.6-2.8-3 15.4-15.4 15.4 15.4z"></path>
</symbol>
<symbol id="up-4" viewBox="0 0 34 32">
<title>up-4</title>
<path d="M4.45 13.4l2.8 2.8 8.6-8.6v24.4h4v-24.4l8.6 8.6 2.8-2.8-13.4-13.4-13.4 13.4z"></path>
</symbol>
<symbol id="Video" viewBox="0 0 34 32">
<title>Video</title>
<path d="M32.724 25.115c-0.245-0.16-2.612-1.643-5.142-3.246v4.568c0 0.882-0.735 1.563-1.592 1.563h-22.447c-0.898 0-1.592-0.721-1.592-1.563v-18.874c-0.041-0.842 0.694-1.563 1.551-1.563h22.447c0.898 0 1.592 0.721 1.592 1.563v4.568c2.489-1.563 4.816-3.046 5.183-3.286 0.531-0.361 1.224 0.040 1.224 0.842 0 0.842 0 13.986 0 14.546 0.041 0.761-0.612 1.322-1.224 0.882z"></path>
</symbol>
<symbol id="Yellow-Card" viewBox="0 0 34 32">
<title>Yellow-Card</title>
<path fill="#ffe900" style="fill: var(--color5, #ffe900)" d="M14.28 16.2c1.5-1.5 4.2-1.5 5.7 0 0.1 0.1 0.1 0.1 0.2 0.2v-14.4h-14v20h7v-3c0-1.1 0.4-2.1 1.1-2.8z"></path>
<path  d="M27.88 19.7l-2.4-10.4c-0.3-1.2-1-2.3-2.1-3l-1.2-0.8v-4.5c0-0.6-0.4-1-1-1h-16c-0.6 0-1 0.4-1 1v22c0 0.6 0.4 1 1 1h4c0.6 0 1-0.4 1-1s-0.4-1-1-1h-3v-20h14v11c0 0.6 0.4 1 1 1s1-0.4 1-1v-5.1l0.1 0.1c0.6 0.4 1.1 1.1 1.3 1.8l2.4 10.4c0.1 0.5 0.1 1 0 1.5l-2.5 8.3h-5.9c-1.3-1-2.2-2.5-2.3-4v-7c0-0.5 0.2-1 0.6-1.4 0.8-0.8 2.1-0.8 2.8 0 0.4 0.4 0.6 0.9 0.6 1.4v5c0 0.6 0.4 1 1 1s1-0.4 1-1v-5c0-1-0.4-1.9-1-2.6-0.1-0.1-0.1-0.1-0.2-0.2-1.5-1.5-4.2-1.5-5.7 0-0.8 0.8-1.2 1.8-1.2 2.8v7.1c0.2 2.3 1.5 4.4 3.4 5.7 0.2 0.1 0.4 0.2 0.6 0.2h7c0.4 0 0.8-0.3 1-0.7l2.7-9c0.2-0.8 0.2-1.7 0-2.6z"></path>
</symbol>
<symbol id="Zoom" viewBox="0 0 34 32">
<title>Zoom</title>
<path d="M23.479 3.765c-1.040 0-1.883-0.843-1.883-1.883s0.843-1.882 1.883-1.882h8.471c1.039 0 1.882 0.844 1.882 1.882v8.471c0 1.039-0.843 1.882-1.882 1.882s-1.882-0.843-1.882-1.882v-3.927l-6.904 6.904c-0.735 0.735-1.927 0.735-2.662 0s-0.735-1.927 0-2.662l6.904-6.904h-3.927z"></path>
<path d="M12.303 28.117c1.040 0 1.883 0.843 1.883 1.883s-0.843 1.882-1.883 1.882h-8.471c-1.039 0-1.882-0.844-1.882-1.882v-8.471c0-1.039 0.843-1.882 1.882-1.882s1.882 0.843 1.882 1.882v3.927l6.904-6.904c0.735-0.735 1.927-0.735 2.662 0s0.735 1.927 0 2.662l-6.904 6.904h3.927z"></path>
</symbol>

<symbol id="angle-down" viewBox="0 0 10 6">
 <path d="M1.745.442l3.442 3.435L8.63.442 9.687 1.5 5.188 6l-4.5-4.5L1.746.442z" />
 </symbol>

</defs>
</svg>
