<svg width="80" height="80" viewBox="0 0 80 80" fill="none" xmlns="http://www.w3.org/2000/svg">
<path d="M77.6562 42.3438C78.9531 42.3438 80 41.2969 80 40C80 38.7031 78.9531 37.6562 77.6562 37.6562H72.3906C72.2969 36.375 72.125 35.125 71.8906 33.8906L76.9844 32.5312C78.2344 32.2031 78.9844 30.9062 78.6406 29.6562C78.3125 28.4062 77.0156 27.6719 75.7656 28L70.6719 29.3594C70.25 28.1562 69.7656 26.9844 69.2188 25.8438L73.7812 23.2031C74.9062 22.5625 75.2812 21.125 74.6406 20C74 18.875 72.5625 18.5 71.4375 19.1406L66.8594 21.7812C66.1406 20.7344 65.375 19.7188 64.5469 18.7656L68.2812 15.0312C69.2031 14.1094 69.2031 12.625 68.2812 11.7188C67.3594 10.7969 65.875 10.7969 64.9688 11.7188L61.2344 15.4531C60.2812 14.625 59.2656 13.8438 58.2188 13.1406L60.8594 8.5625C61.5 7.4375 61.125 6.01562 60 5.35938C58.875 4.71875 57.4531 5.09375 56.7969 6.21875L54.1562 10.7812C53.0156 10.2344 51.8438 9.73438 50.6406 9.32812L52 4.23438C52.3281 2.98438 51.5938 1.70312 50.3438 1.35938C49.0938 1.03125 47.8125 1.76562 47.4688 3.01562L46.1094 8.10938C44.875 7.875 43.6094 7.70312 42.3281 7.60938V2.34375C42.3281 1.04688 41.2812 0 39.9844 0C38.6875 0 37.6406 1.04688 37.6406 2.34375V7.60938C36.3594 7.70312 35.0938 7.875 33.8594 8.10938L32.5 3.01562C32.1719 1.76562 30.875 1.01562 29.625 1.35938C28.375 1.6875 27.625 2.98438 27.9688 4.23438L29.3281 9.32812C28.125 9.75 26.9531 10.2344 25.8125 10.7812L23.1719 6.21875C22.5312 5.09375 21.0938 4.71875 19.9688 5.35938C18.8438 6 18.4688 7.4375 19.1094 8.5625L21.75 13.1406C20.7031 13.8594 19.6875 14.625 18.7344 15.4531L15.0312 11.7188C14.1094 10.7969 12.625 10.7969 11.7188 11.7188C10.7969 12.6406 10.7969 14.125 11.7188 15.0312L15.4531 18.7656C14.625 19.7188 13.8438 20.7344 13.1406 21.7812L8.5625 19.1406C7.4375 18.5 6.01562 18.875 5.35938 20C4.71875 21.125 5.09375 22.5469 6.21875 23.2031L10.7812 25.8438C10.2344 26.9844 9.73438 28.1562 9.32812 29.3594L4.23438 28C2.98438 27.6719 1.70312 28.4062 1.35938 29.6562C1.01562 30.9062 1.76562 32.1875 3.01562 32.5312L8.10938 33.8906C7.875 35.125 7.70312 36.3906 7.60938 37.6562H2.34375C1.04688 37.6562 0 38.7031 0 40C0 41.2969 1.04688 42.3438 2.34375 42.3438H7.60938C7.70312 43.625 7.875 44.875 8.10938 46.125L3.01562 47.4844C1.76562 47.8125 1.01562 49.1094 1.35938 50.3594C1.6875 51.6094 2.98438 52.3438 4.23438 52.0156L9.32812 50.6562C9.75 51.8594 10.2344 53.0312 10.7812 54.1719L6.21875 56.8125C5.09375 57.4531 4.71875 58.8906 5.35938 60.0156C6 61.1406 7.4375 61.5156 8.5625 60.875L13.1406 58.2344C13.8594 59.2812 14.625 60.2969 15.4531 61.25L11.7188 64.9688C10.7969 65.8906 10.7969 67.375 11.7188 68.2812C12.6406 69.2031 14.125 69.2031 15.0312 68.2812L18.7656 64.5469C19.7188 65.375 20.7344 66.1562 21.7812 66.8594L19.1406 71.4375C18.5 72.5625 18.875 73.9844 20 74.6406C21.125 75.2812 22.5469 74.9062 23.2031 73.7812L25.8438 69.2188C26.9844 69.7656 28.1562 70.2656 29.3594 70.6719L28 75.7656C27.6719 77.0156 28.4062 78.2969 29.6562 78.6406C30.9062 78.9688 32.1875 78.2344 32.5312 76.9844L33.8906 71.8906C35.125 72.125 36.3906 72.2969 37.6719 72.3906V77.6562C37.6719 78.9531 38.7188 80 40.0156 80C41.3125 80 42.3594 78.9531 42.3594 77.6562V72.3906C43.6406 72.2969 44.9062 72.125 46.1406 71.8906L47.5 76.9844C47.8281 78.2344 49.125 78.9844 50.375 78.6406C51.625 78.3125 52.375 77.0156 52.0312 75.7656L50.6719 70.6719C51.875 70.25 53.0469 69.7656 54.1875 69.2188L56.8281 73.7812C57.4688 74.9062 58.9063 75.2812 60.0312 74.6406C61.1562 74 61.5312 72.5625 60.8906 71.4375L58.25 66.8594C59.2969 66.1406 60.3125 65.375 61.2656 64.5469L65 68.2812C65.9219 69.2031 67.4062 69.2031 68.3125 68.2812C69.2344 67.3594 69.2344 65.875 68.3125 64.9688L64.5781 61.2344C65.4062 60.2812 66.1875 59.2656 66.8906 58.2188L71.4688 60.8594C72.5938 61.5 74.0156 61.125 74.6719 60C75.3125 58.875 74.9375 57.4531 73.8125 56.7969L69.2188 54.1562C69.7656 53.0156 70.2656 51.8438 70.6719 50.6406L75.7656 52C77.0156 52.3281 78.2969 51.5938 78.6406 50.3438C78.9688 49.0938 78.2344 47.8125 76.9844 47.4688L71.8906 46.1094C72.125 44.875 72.2969 43.6094 72.3906 42.3281H77.6562V42.3438Z" fill="#BDBDBD"/>
</svg>
