<svg width="50" height="50" viewBox="0 0 50 50" fill="none" xmlns="http://www.w3.org/2000/svg">
<path d="M49.5833 14.7249L47.3417 13.4334C47.4194 12.8137 47.4194 12.1863 47.3417 11.5666L49.5833 10.2751C49.9654 10.0472 50.1013 9.55933 49.8917 9.16667L46.5584 3.33333C46.4485 3.14046 46.2658 2.99927 46.0518 2.94149C45.8373 2.88371 45.6087 2.91382 45.4166 3.0249L43.1831 4.35018C42.6745 3.98926 42.1333 3.67716 41.5665 3.41675V0.833333C41.5665 0.373128 41.1934 0 40.7332 0H34.0665C33.6063 0 33.2332 0.373128 33.2332 0.833333V3.41675C32.6485 3.67269 32.0902 3.98519 31.5665 4.35018L29.3749 3.05827C28.9851 2.82633 28.4818 2.94841 28.2417 3.33333L26.7667 5.91675C26.1832 5.83333 25.5916 5.83333 24.9999 5.83333C21.7053 5.83659 18.4684 6.698 15.6083 8.33333C15.5428 8.35042 15.4785 8.3728 15.4166 8.40006C15.3637 8.43506 15.3161 8.47697 15.275 8.52498C12.4788 10.1823 10.1456 12.5183 8.49157 15.3166C8.45698 15.3459 8.42605 15.3796 8.40001 15.4167C8.37967 15.4683 8.36299 15.5212 8.34996 15.575C6.94005 18.0322 6.10021 20.7747 5.89147 23.5999C5.85932 24.0601 6.20641 24.4596 6.66662 24.4918C7.12682 24.5239 7.52599 24.1768 7.55814 23.7166C7.7327 21.368 8.38455 19.0796 9.47505 16.9918L10.8833 17.8251C11.0078 17.8955 11.1486 17.9329 11.2915 17.9333C11.5905 17.9346 11.8672 17.7755 12.0165 17.5167C12.1284 17.3254 12.1598 17.0976 12.1036 16.8835C12.0475 16.6695 11.9079 16.4864 11.7167 16.3749L10.3165 15.5416C11.6731 13.4408 13.4598 11.6516 15.5582 10.2917L16.3915 11.7C16.503 11.8913 16.6861 12.0308 16.9002 12.087C17.1142 12.1431 17.3421 12.1118 17.5333 11.9999C17.93 11.7712 18.0676 11.2651 17.8417 10.8667L17.0084 9.44987C22.0279 6.83838 28.0053 6.83838 33.0248 9.44987L32.1915 10.8667C32.0804 11.0588 32.0503 11.2874 32.1081 11.5019C32.1659 11.7159 32.3071 11.8982 32.4999 12.0085C32.6912 12.1204 32.9186 12.1517 33.1331 12.0951C33.3471 12.039 33.5302 11.8998 33.6417 11.7082L34.475 10.2917C36.5828 11.6492 38.3756 13.4424 39.7334 15.5501L38.3166 16.3835C37.9235 16.606 37.7795 17.1012 37.9915 17.5C38.1412 17.7588 38.4175 17.9179 38.7166 17.9167C38.8598 17.9163 39.0006 17.8788 39.1251 17.8084L40.5415 16.9751C41.7073 19.2021 42.3754 21.6561 42.4999 24.1667H40.8333C40.3731 24.1667 39.9999 24.5398 39.9999 25C39.9999 25.4602 40.3731 25.8333 40.8333 25.8333H42.4999C42.384 28.335 41.7305 30.7821 40.5834 33.0082L39.1666 32.1749C38.7683 31.9486 38.2621 32.0866 38.0334 32.4833C37.9158 32.6758 37.8816 32.9077 37.9382 33.1258C37.9947 33.3443 38.1371 33.5303 38.3333 33.6418L39.7416 34.4751C38.3817 36.5735 36.5926 38.3602 34.4917 39.7168L33.6584 38.3167C33.4281 37.9163 32.917 37.7783 32.5166 38.0082C32.1162 38.2385 31.9783 38.7496 32.2082 39.15L33.0415 40.5583C30.9537 41.6484 28.6653 42.3006 26.3167 42.4752C25.8565 42.491 25.4964 42.8772 25.5126 43.3374C25.5285 43.7976 25.9147 44.1577 26.3749 44.1418H26.4335C29.2285 43.914 31.938 43.0688 34.3668 41.6667C34.4429 41.6516 34.5161 41.6231 34.5833 41.5833C34.6187 41.5548 34.652 41.5243 34.6834 41.4917C37.4641 39.8482 39.7879 37.533 41.4416 34.7583C41.503 34.7021 41.5563 34.6379 41.5999 34.5667C41.628 34.5056 41.6479 34.4413 41.6585 34.375C43.2971 31.5222 44.1617 28.2902 44.1666 25C44.1682 21.6508 43.2889 18.3602 41.6166 15.4582C41.6166 15.4582 41.6166 15.4582 41.6166 15.4167C39.9389 12.5387 37.5443 10.1444 34.6667 8.4668H34.6166C32.7388 7.35636 30.6839 6.57837 28.5416 6.16658L29.2667 4.91658L31.2581 6.06649C31.5535 6.23779 31.9234 6.21134 32.1915 6.00016C32.8487 5.47323 33.5823 5.04883 34.3668 4.74162C34.687 4.61792 34.899 4.3103 34.8998 3.96647V1.66667H39.8998V3.96647C39.8994 4.30827 40.1078 4.61548 40.4247 4.74162C41.2105 5.04679 41.9441 5.47119 42.6 6.00016C42.8682 6.21134 43.2381 6.23779 43.5335 6.06649L45.5248 4.91658L48.0248 9.25008L46.0335 10.4C45.7409 10.5693 45.5794 10.8984 45.6249 11.2333C45.7694 12.0605 45.7694 12.9061 45.6249 13.7333C45.5794 14.0682 45.7409 14.3974 46.0335 14.5667L48.0248 15.7166L45.8333 19.5833C45.7218 19.7754 45.6921 20.0041 45.7499 20.2185C45.8076 20.4325 45.9488 20.6152 46.1417 20.7251C46.2662 20.7955 46.4066 20.8329 46.5498 20.8333C46.8489 20.8346 47.1256 20.6755 47.2749 20.4167L49.8917 15.8333C50.1013 15.4407 49.9654 14.9528 49.5833 14.7249Z" fill="#222222"/>
<path d="M36.5667 8.33333C36.5667 8.79354 36.9398 9.16667 37.4 9.16667C39.2412 9.16667 40.7333 10.6592 40.7333 12.5C40.7333 12.9602 41.1064 13.3333 41.5666 13.3333C42.0268 13.3333 42.4 12.9602 42.4 12.5C42.4 9.73877 40.1616 7.5 37.4 7.5C36.9398 7.5 36.5667 7.87313 36.5667 8.33333Z" fill="#222222"/>
<path d="M12.5002 34.1666C13.1907 34.1666 13.7502 34.7261 13.7502 35.4166C13.7502 35.8769 14.1233 36.25 14.5835 36.25C15.0437 36.25 15.4168 35.8769 15.4168 35.4166C15.4115 34.1312 14.5656 33.0005 13.3335 32.6334V31.6666C13.3335 31.2064 12.9604 30.8333 12.5002 30.8333C12.04 30.8333 11.6668 31.2064 11.6668 31.6666V32.6334C10.2744 33.0399 9.3947 34.4104 9.60426 35.8459C9.81422 37.2811 11.0496 38.3423 12.5002 38.3333C13.1907 38.3333 13.7502 38.8928 13.7502 39.5833C13.7502 40.2738 13.1907 40.8333 12.5002 40.8333C11.8097 40.8333 11.2502 40.2738 11.2502 39.5833C11.2502 39.1231 10.877 38.75 10.4168 38.75C9.95663 38.75 9.5835 39.1231 9.5835 39.5833C9.58879 40.8687 10.4347 41.9995 11.6668 42.3665V43.3333C11.6668 43.7935 12.04 44.1666 12.5002 44.1666C12.9604 44.1666 13.3335 43.7935 13.3335 43.3333V42.3665C14.7259 41.96 15.6056 40.5896 15.3961 39.154C15.1861 37.7189 13.9508 36.6577 12.5002 36.6666C11.8097 36.6666 11.2502 36.1072 11.2502 35.4166C11.2502 34.7261 11.8097 34.1666 12.5002 34.1666Z" fill="#222222"/>
<path d="M12.4999 28.3334C7.43726 28.3334 3.33325 32.4374 3.33325 37.5C3.33325 42.5627 7.43726 46.6667 12.4999 46.6667C17.5626 46.6667 21.6666 42.5627 21.6666 37.5C21.6666 32.4374 17.5626 28.3334 12.4999 28.3334ZM12.4999 45C8.35767 45 4.99992 41.6423 4.99992 37.5C4.99992 33.3578 8.35767 30 12.4999 30C16.6422 30 19.9999 33.3578 19.9999 37.5C19.9999 41.6423 16.6422 45 12.4999 45Z" fill="#222222"/>
<path d="M12.5 25C5.59652 25 0 30.5965 0 37.5C0 44.4035 5.59652 50 12.5 50C19.4035 50 25 44.4035 25 37.5C25 30.5965 19.4035 25 12.5 25ZM12.5 48.3333C6.51693 48.3333 1.66667 43.4831 1.66667 37.5C1.66667 31.5169 6.51693 26.6667 12.5 26.6667C18.4831 26.6667 23.3333 31.5169 23.3333 37.5C23.3333 43.4831 18.4831 48.3333 12.5 48.3333Z" fill="#222222"/>
<path d="M28.4917 29.7917L28.025 30.625C27.8761 30.8834 27.8761 31.2016 28.0258 31.46C28.1756 31.718 28.4519 31.8763 28.7501 31.875H28.8002L34.7999 31.4917C35.0774 31.473 35.3277 31.3172 35.4664 31.0763C35.6052 30.8354 35.615 30.5412 35.4917 30.2918L32.8252 24.8999C32.6881 24.6277 32.413 24.4519 32.1083 24.4418C31.8007 24.4312 31.5122 24.5915 31.3584 24.8584L30.8916 25.6918L28.2834 24.5915C28.1577 23.7089 27.6832 22.9139 26.9667 22.3833L27.4334 16.6667H29.1668C29.4903 16.6671 29.7849 16.4803 29.9224 16.1874C30.0599 15.8948 30.0156 15.5485 29.8085 15.2999L25.6418 10.2999C25.4835 10.1091 25.2483 9.99841 25.0001 9.99841C24.7519 9.99841 24.5167 10.1091 24.3584 10.2999L20.1918 15.2999C19.9847 15.5485 19.9403 15.8948 20.0778 16.1874C20.2154 16.4803 20.51 16.6671 20.8335 16.6667H22.5669L23.0336 22.3165C21.8759 23.1698 21.3958 24.6688 21.8426 26.0356C22.2893 27.4024 23.5621 28.3285 25.0001 28.3334C25.4253 28.3313 25.8465 28.2491 26.242 28.0917L28.4917 29.7917ZM30.925 27.45C31.3112 27.6111 31.7567 27.4614 31.9667 27.1001L32.0253 27L33.4417 29.8751L30.25 30.0835L30.3 29.9834C30.5071 29.6212 30.4143 29.1618 30.0835 28.9083L27.5835 27.0419C27.7805 26.7892 27.9379 26.5084 28.0503 26.2085L30.925 27.45ZM24.1668 15.7666C24.1318 15.3329 23.7688 14.9988 23.3335 15H22.6169L25.0001 12.1334L27.3833 15H26.6668C26.2314 14.9988 25.8684 15.3329 25.8335 15.7666L25.3419 21.6667C25.2251 21.6667 25.1169 21.6667 25.0001 21.6667C24.8833 21.6667 24.7751 21.6667 24.6583 21.6667L24.1668 15.7666ZM23.3335 25C23.3351 24.3588 23.7046 23.7757 24.2836 23.5002C24.7226 23.2996 25.2276 23.2996 25.6666 23.5002C26.2652 23.761 26.6558 24.3474 26.6668 25V25.0916C26.6375 25.6088 26.3698 26.0832 25.9417 26.375C25.4314 26.7245 24.7698 26.7627 24.2229 26.4742C23.6761 26.1857 23.3335 25.6185 23.3335 25Z" fill="#222222"/>
</svg>
