<svg width="50" height="50" viewBox="0 0 50 50" fill="none" xmlns="http://www.w3.org/2000/svg">
<path d="M35.835 0.00488281H0.83838C0.378219 0.00488281 0.00512695 0.377975 0.00512695 0.838135V28.3355C0.00512695 28.7956 0.378219 29.1687 0.83838 29.1687C1.29854 29.1687 1.67163 28.7956 1.67163 28.3355V1.67139H35.0017V48.3335H1.67163V31.6685C1.67163 31.2083 1.29854 30.8352 0.83838 30.8352C0.378219 30.8352 0.00512695 31.2083 0.00512695 31.6685V49.1668C0.00512695 49.6269 0.378219 50 0.83838 50H35.835C36.2952 50 36.6683 49.6269 36.6683 49.1668V0.838135C36.6683 0.377975 36.2952 0.00488281 35.835 0.00488281Z" fill="#222222"/>
<path d="M32.502 5.00446C32.502 4.5443 32.1289 4.1712 31.6687 4.1712H5.00464C4.54448 4.1712 4.17139 4.5443 4.17139 5.00446V23.336C4.17139 23.7962 4.54448 24.1693 5.00464 24.1693H14.1704C14.6306 24.1693 15.0037 23.7962 15.0037 23.336C15.0037 22.8759 14.6306 22.5028 14.1704 22.5028H5.83789V5.83771H30.8355V22.5028H17.5034C17.0433 22.5028 16.6702 22.8759 16.6702 23.336C16.6702 23.7962 17.0433 24.1693 17.5034 24.1693H31.6687C32.1289 24.1693 32.502 23.7962 32.502 23.336V5.00446Z" fill="#222222"/>
<path d="M26.6693 17.5032C25.9789 17.5032 25.4194 16.9433 25.4194 16.2533C25.4194 15.7931 25.0464 15.4201 24.5862 15.4201C24.126 15.4201 23.7529 15.7931 23.7529 16.2533C23.7582 17.5386 24.6041 18.6693 25.8361 19.0362V20.003C25.8361 20.4631 26.2092 20.8362 26.6693 20.8362C27.1295 20.8362 27.5026 20.4631 27.5026 20.003V19.0362C28.8949 18.6298 29.7745 17.2595 29.565 15.8241C29.355 14.3891 28.1198 13.328 26.6693 13.3369C25.9789 13.3369 25.4194 12.7771 25.4194 12.087C25.4194 11.3966 25.9789 10.8372 26.6693 10.8372C27.3598 10.8372 27.9192 11.3966 27.9192 12.087C27.9192 12.5472 28.2923 12.9203 28.7525 12.9203C29.2126 12.9203 29.5857 12.5472 29.5857 12.087C29.5804 10.8018 28.7346 9.6711 27.5026 9.30411V8.3374C27.5026 7.87724 27.1295 7.50415 26.6693 7.50415C26.2092 7.50415 25.8361 7.87724 25.8361 8.3374V9.30411C24.4438 9.71056 23.5642 11.0809 23.7737 12.5159C23.9836 13.9513 25.2189 15.0124 26.6693 15.0034C27.3598 15.0034 27.9192 15.5629 27.9192 16.2533C27.9192 16.9433 27.3598 17.5032 26.6693 17.5032Z" fill="#222222"/>
<path d="M31.6687 40.001C32.1289 40.001 32.502 39.6279 32.502 39.1677V28.3355C32.502 27.8753 32.1289 27.5022 31.6687 27.5022H25.0027C24.5425 27.5022 24.1694 27.8753 24.1694 28.3355V45.0005C24.1694 45.4607 24.5425 45.8338 25.0027 45.8338H31.6687C32.1289 45.8338 32.502 45.4607 32.502 45.0005V42.5007C32.502 42.0406 32.1289 41.6675 31.6687 41.6675C31.2085 41.6675 30.8355 42.0406 30.8355 42.5007V44.1673H25.8359V29.1687H30.8355V39.1677C30.8355 39.6279 31.2085 40.001 31.6687 40.001Z" fill="#222222"/>
<path d="M4.17139 35.0015C4.17139 35.4616 4.54448 35.8347 5.00464 35.8347H11.6707C12.1308 35.8347 12.5039 35.4616 12.5039 35.0015V28.3354C12.5039 27.8753 12.1308 27.5022 11.6707 27.5022H5.00464C4.54448 27.5022 4.17139 27.8753 4.17139 28.3354V35.0015ZM5.83789 29.1687H10.8374V34.1682H5.83789V29.1687Z" fill="#222222"/>
<path d="M22.5029 28.3354C22.5029 27.8753 22.1299 27.5022 21.6697 27.5022H15.0037C14.5435 27.5022 14.1704 27.8753 14.1704 28.3354V35.0015C14.1704 35.4616 14.5435 35.8347 15.0037 35.8347H21.6697C22.1299 35.8347 22.5029 35.4616 22.5029 35.0015V28.3354ZM20.8364 34.1682H15.8369V29.1687H20.8364V34.1682Z" fill="#222222"/>
<path d="M4.17139 45.0005C4.17139 45.4607 4.54448 45.8338 5.00464 45.8338H11.6707C12.1308 45.8338 12.5039 45.4607 12.5039 45.0005V38.3345C12.5039 37.8744 12.1308 37.5013 11.6707 37.5013H5.00464C4.54448 37.5013 4.17139 37.8744 4.17139 38.3345V45.0005ZM5.83789 39.1678H10.8374V44.1673H5.83789V39.1678Z" fill="#222222"/>
<path d="M21.6697 37.5013H15.0037C14.5435 37.5013 14.1704 37.8744 14.1704 38.3345V45.0005C14.1704 45.4607 14.5435 45.8338 15.0037 45.8338H21.6697C22.1299 45.8338 22.5029 45.4607 22.5029 45.0005V38.3345C22.5029 37.8744 22.1299 37.5013 21.6697 37.5013ZM20.8364 44.1673H15.8369V39.1678H20.8364V44.1673Z" fill="#222222"/>
<path d="M10.0039 11.6704C9.54375 11.6704 9.17065 12.0434 9.17065 12.5036C9.17065 12.9638 9.54375 13.3369 10.0039 13.3369H20.0029C20.4631 13.3369 20.8362 12.9638 20.8362 12.5036V9.17059C20.8362 8.71043 20.4631 8.33734 20.0029 8.33734H10.0039C9.54375 8.33734 9.17065 8.71043 9.17065 9.17059C9.17065 9.63075 9.54375 10.0038 10.0039 10.0038H19.1697V11.6704H10.0039Z" fill="#222222"/>
<path d="M17.5032 15.8367C17.5032 15.3765 17.1301 15.0034 16.6699 15.0034H10.0039C9.54375 15.0034 9.17065 15.3765 9.17065 15.8367C9.17065 16.2968 9.54375 16.6699 10.0039 16.6699H16.6699C17.1301 16.6699 17.5032 16.2968 17.5032 15.8367Z" fill="#222222"/>
<path d="M10.0039 18.3364C9.54375 18.3364 9.17065 18.7095 9.17065 19.1697C9.17065 19.6298 9.54375 20.0029 10.0039 20.0029H13.3369C13.7971 20.0029 14.1702 19.6298 14.1702 19.1697C14.1702 18.7095 13.7971 18.3364 13.3369 18.3364H10.0039Z" fill="#222222"/>
<path d="M48.2258 29.1687L44.8928 23.4027C44.7825 23.2098 44.6002 23.0686 44.3862 23.0109C44.1718 22.9531 43.9431 22.9828 43.7511 23.0943L41.5178 24.3856C41.0093 24.0252 40.4681 23.7127 39.9014 23.4527V20.8362C39.9014 20.376 39.5283 20.0029 39.0681 20.0029C38.608 20.0029 38.2349 20.376 38.2349 20.8362V23.969C38.2345 24.3108 38.4428 24.6176 38.7597 24.7441C39.5441 25.0513 40.2773 25.4752 40.9348 26.0021C41.2029 26.2137 41.5724 26.2401 41.8677 26.0688L43.8593 24.919L46.3591 29.2521L44.3675 30.4019C44.0754 30.5712 43.9139 30.9003 43.9594 31.2352C44.1039 32.0623 44.1039 32.9078 43.9594 33.7349C43.9139 34.0698 44.0754 34.3989 44.3675 34.5682L46.3591 35.718L43.8593 40.051L41.8677 38.9012C41.5724 38.73 41.2029 38.7564 40.9348 38.9676C40.2773 39.4945 39.5441 39.9188 38.7597 40.226C38.4428 40.3521 38.2345 40.6593 38.2349 41.0007V44.1673C38.2349 44.6274 38.608 45.0005 39.0681 45.0005C39.5283 45.0005 39.9014 44.6274 39.9014 44.1673V41.5841C40.4681 41.3237 41.0093 41.0112 41.5178 40.6508L43.7511 41.9425C44.1425 42.1801 44.6523 42.0573 44.8928 41.6675L48.2258 35.9015C48.3369 35.7094 48.367 35.4808 48.3092 35.2663C48.251 35.0519 48.1102 34.8697 47.9174 34.7598L45.676 33.4684C45.7537 32.8484 45.7537 32.2214 45.676 31.6017L47.9174 30.3104C48.1102 30.2001 48.251 30.0178 48.3092 29.8034C48.367 29.5894 48.3369 29.3607 48.2258 29.1687Z" fill="#222222"/>
<path d="M38.6931 35.5349C38.8346 35.6256 38.9994 35.6744 39.1679 35.6764C39.4405 35.676 39.6956 35.5422 39.851 35.318C41.0284 33.6251 41.0284 31.3784 39.851 29.6854C39.6964 29.41 39.3994 29.2456 39.0836 29.2611C38.7679 29.2765 38.4884 29.4694 38.3615 29.7587C38.2345 30.0479 38.2821 30.384 38.4847 30.6269C39.2541 31.7584 39.2541 33.2451 38.4847 34.3765C38.2227 34.7541 38.3159 35.272 38.6931 35.5349Z" fill="#222222"/>
<path d="M49.7585 5.24608L44.759 0.246558C44.6024 0.0886958 44.3896 0 44.1674 0C43.9453 0 43.7321 0.0886958 43.5759 0.246558L38.5764 5.24608C38.34 5.48572 38.2708 5.84376 38.4014 6.15419C38.5292 6.46544 38.8315 6.66928 39.1679 6.67091H40.8344V14.1702C40.8344 14.6303 41.2075 15.0034 41.6677 15.0034C42.1279 15.0034 42.5009 14.6303 42.5009 14.1702V5.83765C42.5009 5.37749 42.1279 5.0044 41.6677 5.0044H41.1762L44.1674 2.01315L47.1587 5.0044H46.6672C46.207 5.0044 45.834 5.37749 45.834 5.83765V14.1702C45.834 14.6303 46.207 15.0034 46.6672 15.0034C47.1274 15.0034 47.5005 14.6303 47.5005 14.1702V6.67091H49.167C49.5034 6.66928 49.8057 6.46544 49.9335 6.15419C50.0641 5.84376 49.9949 5.48572 49.7585 5.24608Z" fill="#222222"/>
</svg>
