<svg width="51" height="50" viewBox="0 0 51 50" fill="none" xmlns="http://www.w3.org/2000/svg">
<path d="M31.3333 38.6666C30.8731 38.6666 30.5 39.0397 30.5 39.4999V41.6667H2.16667V4.16667C2.16667 2.78605 3.28605 1.66667 4.66667 1.66667H28C29.3806 1.66667 30.5 2.78605 30.5 4.16667V6.66667H4.66667C4.20646 6.66667 3.83333 7.03979 3.83333 7.5C3.83333 7.96021 4.20646 8.33333 4.66667 8.33333H30.5V13.7834C29.5849 12.9598 28.3979 12.5028 27.1667 12.5H26.9665L27.7998 11.7082C28.1233 11.3835 28.1233 10.8586 27.7998 10.5334C27.6436 10.3756 27.4303 10.2869 27.2082 10.2869C26.986 10.2869 26.7732 10.3756 26.6165 10.5334L24.2581 12.8833C24.1007 13.04 24.012 13.2528 24.012 13.4749C24.012 13.6971 24.1007 13.9103 24.2581 14.0666L26.6165 16.425C26.7732 16.5828 26.986 16.6715 27.2082 16.6715C27.4303 16.6715 27.6436 16.5828 27.7998 16.425C27.9577 16.2687 28.0464 16.0555 28.0464 15.8333C28.0464 15.6112 27.9577 15.3979 27.7998 15.2417L26.6751 14.1667H27.1667C29.0075 14.1667 30.5 15.6592 30.5 17.5V20.6665C30.5 21.1267 30.8731 21.4998 31.3333 21.4998C31.7935 21.4998 32.1667 21.1267 32.1667 20.6665V4.16667C32.1667 1.86564 30.301 0 28 0H4.66667C2.36564 0 0.5 1.86564 0.5 4.16667V45.8333C0.5 48.1344 2.36564 50 4.66667 50H28C30.301 50 32.1667 48.1344 32.1667 45.8333V39.4999C32.1667 39.0397 31.7935 38.6666 31.3333 38.6666ZM30.5 45.8333C30.5 47.2139 29.3806 48.3333 28 48.3333H4.66667C3.28605 48.3333 2.16667 47.2139 2.16667 45.8333V43.3333H30.5V45.8333Z" fill="#222222"/>
<path d="M4.66659 4.99998H8.83325C9.29346 4.99998 9.66659 4.62685 9.66659 4.16665C9.66659 3.70644 9.29346 3.33331 8.83325 3.33331H4.66659C4.20638 3.33331 3.83325 3.70644 3.83325 4.16665C3.83325 4.62685 4.20638 4.99998 4.66659 4.99998Z" fill="#222222"/>
<path d="M27.9999 4.16665C27.9999 4.62685 27.6268 4.99998 27.1666 4.99998C26.7064 4.99998 26.3333 4.62685 26.3333 4.16665C26.3333 3.70644 26.7064 3.33331 27.1666 3.33331C27.6268 3.33331 27.9999 3.70644 27.9999 4.16665Z" fill="#222222"/>
<path d="M24.6667 4.16665C24.6667 4.62685 24.2935 4.99998 23.8333 4.99998C23.3731 4.99998 23 4.62685 23 4.16665C23 3.70644 23.3731 3.33331 23.8333 3.33331C24.2935 3.33331 24.6667 3.70644 24.6667 4.16665Z" fill="#222222"/>
<path d="M21.3334 4.16665C21.3334 4.62685 20.9603 4.99998 20.5001 4.99998C20.0399 4.99998 19.6667 4.62685 19.6667 4.16665C19.6667 3.70644 20.0399 3.33331 20.5001 3.33331C20.9603 3.33331 21.3334 3.70644 21.3334 4.16665Z" fill="#222222"/>
<path d="M15.5 25.8333V24.8665C16.8924 24.46 17.7721 23.0896 17.5626 21.654C17.3526 20.2189 16.1173 19.1577 14.6667 19.1666C13.9762 19.1666 13.4167 18.6072 13.4167 17.9166C13.4167 17.2261 13.9762 16.6666 14.6667 16.6666C15.3572 16.6666 15.9167 17.2261 15.9167 17.9166C15.9167 18.3769 16.2898 18.75 16.75 18.75C17.2102 18.75 17.5833 18.3769 17.5833 17.9166C17.578 16.6312 16.7321 15.5005 15.5 15.1334V14.1666C15.5 13.7064 15.1269 13.3333 14.6667 13.3333C14.2065 13.3333 13.8333 13.7064 13.8333 14.1666V15.1334C12.4409 15.5399 11.5612 16.9104 11.7708 18.3459C11.9807 19.7811 13.2161 20.8423 14.6667 20.8333C15.3572 20.8333 15.9167 21.3928 15.9167 22.0833C15.9167 22.7738 15.3572 23.3333 14.6667 23.3333C13.9762 23.3333 13.4167 22.7738 13.4167 22.0833C13.4167 21.6231 13.0435 21.25 12.5833 21.25C12.1231 21.25 11.75 21.6231 11.75 22.0833C11.7553 23.3687 12.6012 24.4995 13.8333 24.8665V25.8333C13.8333 26.2935 14.2065 26.6666 14.6667 26.6666C15.1269 26.6666 15.5 26.2935 15.5 25.8333Z" fill="#222222"/>
<path d="M23.8333 20C23.8333 14.9373 19.7293 10.8333 14.6667 10.8333C9.604 10.8333 5.5 14.9373 5.5 20C5.5 25.0626 9.604 29.1666 14.6667 29.1666C19.7293 29.1666 23.8333 25.0626 23.8333 20ZM7.16667 20C7.16667 15.8577 10.5244 12.5 14.6667 12.5C18.8089 12.5 22.1667 15.8577 22.1667 20C22.1667 24.1422 18.8089 27.5 14.6667 27.5C10.5244 27.5 7.16667 24.1422 7.16667 20Z" fill="#222222"/>
<path d="M8.24162 37.7999C8.39787 37.9577 8.61108 38.0464 8.83325 38.0464C9.05542 38.0464 9.26864 37.9577 9.42489 37.7999L11.7833 35.45C11.9412 35.2934 12.0299 35.0805 12.0299 34.8584C12.0299 34.6362 11.9412 34.423 11.7833 34.2667L9.42489 31.9083C9.09814 31.5816 8.56836 31.5816 8.24162 31.9083C7.91488 32.2351 7.91488 32.7649 8.24162 33.0916L9.32479 34.1666H8.83325C6.99243 34.1666 5.49992 32.6741 5.49992 30.8333V29.1666C5.49992 28.7064 5.12679 28.3333 4.66659 28.3333C4.20638 28.3333 3.83325 28.7064 3.83325 29.1666V30.8333C3.83325 33.5945 6.07202 35.8333 8.83325 35.8333H9.03345L8.20011 36.6666C7.91488 36.997 7.93319 37.4914 8.24162 37.7999Z" fill="#222222"/>
<path d="M13.0001 46.6667H19.6667C20.127 46.6667 20.5001 46.2935 20.5001 45.8333C20.5001 45.3731 20.127 45 19.6667 45H13.0001C12.5399 45 12.1667 45.3731 12.1667 45.8333C12.1667 46.2935 12.5399 46.6667 13.0001 46.6667Z" fill="#222222"/>
<path d="M49.6667 35H42.1667V21.6667H49.6667C50.127 21.6667 50.5001 21.2935 50.5001 20.8333C50.5001 20.3731 50.127 20 49.6667 20H41.3334C40.8732 20 40.5001 20.3731 40.5001 20.8333V21.6667H36.3334C36.2533 21.6549 36.1719 21.6549 36.0917 21.6667L30.9501 23.2084C28.6869 23.8814 27.1431 25.9721 27.1667 28.3333C27.1667 28.7935 27.5399 29.1667 28.0001 29.1667H30.2336L29.0666 30H23.0001C21.0197 29.9996 19.3127 31.3932 18.9168 33.3333H18.8334C16.5324 33.3333 14.6667 35.199 14.6667 37.5C14.6667 37.9602 15.0399 38.3333 15.5001 38.3333H28.0001C28.1059 38.335 28.2104 38.315 28.3085 38.2751L36.4917 35H38.0001C38.4603 35 38.8334 34.6269 38.8334 34.1667C38.8334 33.7065 38.4603 33.3333 38.0001 33.3333H36.3334C36.2276 33.3317 36.123 33.3516 36.025 33.3915L27.8418 36.6667H16.475C16.8282 35.6673 17.7734 34.9996 18.8334 35H24.6667C24.7668 34.9984 24.8653 34.9784 24.9585 34.9418H25.05L25.1501 34.8832L35.0834 27.7498C36.071 27.0459 37.2538 26.6671 38.4668 26.6667H40.5001V35.8333C40.5001 36.2935 40.8732 36.6667 41.3334 36.6667H49.6667C50.127 36.6667 50.5001 36.2935 50.5001 35.8333C50.5001 35.3731 50.127 35 49.6667 35ZM20.6417 33.3333C20.9949 32.334 21.9401 31.6663 23.0001 31.6667H26.7334L24.4002 33.3333H20.6417ZM34.1085 26.4001L32.5667 27.5H28.925C29.2175 26.2276 30.1729 25.2116 31.425 24.8417L36.425 23.3333H40.5001V25H38.4668C36.9035 25.0012 35.3796 25.4907 34.1085 26.4001Z" fill="#222222"/>
<path d="M45.4999 25C45.4999 25.4602 45.1268 25.8334 44.6666 25.8334C44.2064 25.8334 43.8333 25.4602 43.8333 25C43.8333 24.5398 44.2064 24.1667 44.6666 24.1667C45.1268 24.1667 45.4999 24.5398 45.4999 25Z" fill="#222222"/>
<path d="M49.6667 24.1667H48.0001C47.5399 24.1667 47.1667 24.5398 47.1667 25C47.1667 25.4602 47.5399 25.8334 48.0001 25.8334H49.6667C50.127 25.8334 50.5001 25.4602 50.5001 25C50.5001 24.5398 50.127 24.1667 49.6667 24.1667Z" fill="#222222"/>
</svg>
