<svg width="180" height="62" viewBox="0 0 180 62" fill="none" xmlns="http://www.w3.org/2000/svg">
<path fill-rule="evenodd" clip-rule="evenodd" d="M135.778 0.444824C132.889 1.11149 131.778 2.2226 132 4.2226C132.222 6.88927 135.111 11.7782 136.444 14.0004C138.889 18.0004 141.778 21.3337 144.889 24.667C147.555 27.1115 149.111 27.7782 151.778 24.0004C154.222 20.8893 156.222 17.7782 158.222 14.0004C159.111 12.2226 159.778 10.4448 160.444 8.44482C161.111 6.00038 160.889 4.00038 158.444 2.44482C160.667 3.55593 161.778 5.55593 161.778 7.77816C162 10.0004 161.333 12.2226 160.667 14.0004C159.333 18.4448 157.778 22.667 155.778 26.667C154.222 29.5559 152.222 33.1115 150.444 35.7782C146.222 41.5559 142 39.7782 137.333 35.7782C134.222 33.3337 131.333 30.0004 128.889 26.667C126.444 23.1115 123.555 18.0004 122 14.0004C119.778 8.44482 121.555 5.77816 124.222 4.00038C127.555 2.2226 132.222 1.11149 135.778 0.444824Z" fill="url(#paint0_linear)"/>
<path fill-rule="evenodd" clip-rule="evenodd" d="M135.778 12.8889C140.222 12.2222 151.778 11.5556 155.778 13.5556C157.111 14.2222 157.111 15.1111 157.111 16.2222C157.556 15.5556 158 14.6667 158.222 14C159.111 12.2222 159.778 10.4444 160.445 8.44444C161.111 6 160.889 4 158.445 2.44444C157.556 2 156.667 1.55556 155.556 1.33333C152.889 0.666666 150 0.222222 146.889 0C145.556 0 144.445 0 143.111 0C140.667 0 138.222 0.222222 135.556 0.444445C132.667 1.11111 131.556 2.22222 131.778 4.22222C132.222 6.44444 134.222 10.4444 135.778 12.8889Z" fill="url(#paint1_linear)"/>
<path fill-rule="evenodd" clip-rule="evenodd" d="M124.222 61.1115C126.444 60.8893 128.444 59.556 129.111 56.2227C129.556 54.0004 129.556 50.4449 128.889 48.2227C128.667 47.3338 128.222 46.4449 127.556 45.7782C126.444 44.8893 125.333 44.6671 124.222 44.6671C122.444 44.6671 121.556 44.8893 120.222 46.0004C120 46.2227 119.778 46.2227 119.778 46.0004V38.4449H115.556V59.7782C117.111 61.1115 122 61.3338 124.222 61.1115ZM13.3333 60.6671C14.2222 60.6671 14 60.6671 14.6667 60.0004C18.2222 55.1115 21.5556 44.4449 21.5556 38.6671C19.7778 38.6671 18.2222 38.8893 16.4444 39.3338C14.6667 48.8893 13.3333 51.556 10.6667 56.4449C8 51.556 6.66667 48.8893 5.11111 39.3338C3.33333 38.8893 1.77778 38.6671 0 38.6671C0 44.4449 3.33333 55.1115 6.88889 60.0004C7.33333 60.6671 7.33333 60.6671 8.22222 60.6671H13.3333ZM132.222 45.556L132.667 49.3338C134.222 49.1115 135.556 48.6671 137.333 48.6671C140 48.6671 141.556 48.4449 141.556 50.4449C139.556 50.4449 137.778 50.4449 135.556 50.4449C133.111 50.4449 131.111 51.556 131.333 56.6671C131.556 62.6671 138.667 62.2227 142 59.7782V61.1115H145.778C145.778 55.1115 146.222 48.6671 145.111 46.8893C142.889 43.3338 136 44.6671 132.222 45.556ZM43.7778 60.2227C43.5556 58.8893 43.5556 57.7782 43.3333 56.4449C41.5556 56.6671 38.6667 57.1115 37.1111 57.1115C35.1111 57.1115 34.4444 56.0004 34.4444 53.3338C35.1111 54.0004 36 54.4449 37.1111 54.6671C39.7778 54.6671 42 54.6671 44.6667 54.6671C44.8889 50.0004 45.1111 45.7782 40.4444 44.8893C38.4444 44.4449 36 44.4449 34.2222 45.1115C32.2222 45.7782 31.3333 46.6671 30.6667 48.6671C29.5556 52.4449 30 57.7782 32.2222 60.0004C34.8889 62.0004 40.4444 61.1115 43.7778 60.2227ZM36.2222 48.4449H38.2222C39.3333 48.4449 40 49.3338 40 50.2227V51.1115H34.2222V50.2227C34.4444 49.3338 35.3333 48.4449 36.2222 48.4449ZM168.444 60.8893L168.667 54.0004C168.667 53.556 169.111 54.2227 169.111 54.2227C170.444 56.4449 171.778 58.2227 173.778 60.2227C174.444 60.8893 174.444 60.6671 175.556 60.6671H180C176.889 58.0004 175.111 56.0004 173.333 52.6671C172.889 52.0004 173.111 52.0004 173.556 51.3338C174.222 50.6671 174.889 49.556 175.778 48.6671L179.556 44.2227H175.556C174.889 44.2227 174.889 44.0004 174.444 44.6671C172.889 46.2227 171.333 48.2227 169.778 49.7782C169.556 50.0004 169.333 50.0004 169.333 50.2227C168.667 50.6671 168.889 50.4449 168.889 50.0004V38.2227H164.667V60.6671H168.444V60.8893ZM71.3333 60.2227L70.8889 56.6671C69.1111 56.8893 67.1111 57.3338 64.8889 57.1115C62.8889 56.8893 62.6667 55.7782 62.6667 54.2227C62.6667 53.3338 62.6667 52.2227 62.6667 51.1115C62.6667 49.7782 63.1111 48.8893 64.8889 48.6671C66.8889 48.4449 68.8889 48.8893 70.8889 49.1115L71.3333 45.556C64.2222 43.7782 59.5556 44.6671 58.6667 50.2227C58.4444 51.3338 58.4444 55.3338 58.8889 56.2227C60 61.1115 64.4444 62.0004 71.3333 60.2227ZM48.6667 44.6671C47.7778 44.6671 46.8889 44.6671 46 44.6671C46 46.0004 46 47.3338 46 48.4449C46.8889 48.4449 47.7778 48.4449 48.6667 48.4449C48.6667 49.7782 48.6667 51.1115 48.6667 52.4449C48.6667 53.7782 48.6667 55.1115 48.6667 56.2227C48.6667 57.7782 48.8889 59.3338 50 60.0004C50.4444 60.2227 50.8889 60.4449 51.5556 60.4449C53.1111 60.6671 55.3333 60.4449 56.6667 60.0004C56.6667 58.8893 56.6667 57.7782 56.4444 56.6671C54.8889 56.8893 52.8889 57.1115 52.8889 56.4449C52.8889 53.556 52.8889 51.1115 52.8889 48.2227C54.2222 48.2227 55.3333 48.2227 56.6667 48.2227C56.6667 46.8893 56.6667 45.556 56.6667 44.4449C55.3333 44.4449 54.2222 44.4449 52.8889 44.4449C52.8889 43.1115 52.8889 41.7782 52.8889 40.6671C51.5556 40.6671 50 40.6671 48.6667 40.6671C48.6667 42.2227 48.6667 43.3338 48.6667 44.6671ZM23.1111 60.8893H27.1111L27.3333 44.6671H23.1111V60.8893ZM78.8889 44.4449H82.6667C85.5556 44.4449 87.7778 46.8893 87.7778 49.556V55.7782C87.7778 58.6671 85.3333 60.8893 82.6667 60.8893H78.8889C76 60.8893 73.7778 58.4449 73.7778 55.7782V49.556C73.5556 46.8893 76 44.4449 78.8889 44.4449ZM79.5556 48.4449C78.4444 48.4449 77.7778 49.3338 77.7778 50.2227V55.3338C77.7778 56.4449 78.6667 57.1115 79.5556 57.1115H81.5556C82.6667 57.1115 83.3333 56.2227 83.3333 55.3338V50.2227C83.3333 49.1115 82.4445 48.4449 81.5556 48.4449H79.5556ZM94.4445 60.8893C94.4445 56.6671 94.4444 52.6671 94.6667 48.4449C95.7778 48.4449 96.6667 48.4449 97.7778 48.4449C98.6667 48.4449 99.3333 48.8893 99.3333 49.7782V50.4449V60.8893H103.556L103.778 48.4449C104.889 48.4449 106 48.4449 107.111 48.4449C108 48.4449 108.667 49.1115 108.667 50.0004V60.8893H112.667L112.889 49.1115C112.889 46.6671 111.556 44.6671 108.667 44.6671C107.778 44.6671 106.889 44.6671 106 44.6671C104.667 44.6671 104 44.8893 103.111 45.7782C102.444 46.4449 102.889 46.4449 102.222 45.7782C101.333 44.8893 100.444 44.6671 99.1111 44.6671C98.4444 44.6671 97.7778 44.6671 97.3333 44.6671C96.2222 44.6671 95.5556 45.1115 94.6667 46.0004C94 46.6671 94 46.8893 94 45.7782C94 45.3338 94 45.1115 94 44.6671C92.8889 44.6671 91.5556 44.6671 90.4445 44.6671C90.4445 50.0004 90.4445 55.3338 90.4445 60.6671H94.4445V60.8893ZM152.444 60.8893C152.444 56.6671 152.444 52.6671 152.667 48.4449C153.778 48.4449 154.667 48.4449 155.778 48.4449C156.667 48.4449 157.333 49.1115 157.333 50.0004C157.333 53.556 157.333 57.3338 157.333 60.8893C158.667 60.8893 160.222 60.8893 161.556 60.8893C161.556 57.3338 161.556 53.7782 161.556 50.0004C161.556 47.1115 160.444 44.6671 157.111 44.6671C156.444 44.6671 155.778 44.6671 155.111 44.6671C154 44.6671 153.333 45.1115 152.444 45.7782C151.778 46.4449 151.778 46.8893 151.778 45.7782V44.6671H148.222C148.222 50.0004 148.222 55.3338 148.222 60.6671C149.778 60.8893 151.111 60.8893 152.444 60.8893ZM136.889 53.7782C138.444 53.7782 140 53.7782 141.556 53.7782C141.556 54.6671 141.556 55.3338 141.556 56.2227C141.556 57.1115 138.667 57.3338 136.889 57.1115C135.556 57.1115 135.778 57.1115 135.556 56.0004C135.556 55.556 135.556 55.1115 135.556 54.6671C135.556 53.7782 135.778 53.7782 136.889 53.7782ZM125.111 50.8893V53.1115V55.3338C125.111 56.4449 124.222 57.1115 123.333 57.1115C122.667 57.1115 122 57.1115 121.111 57.1115C119.556 57.1115 119.556 57.1115 119.556 55.1115V53.1115V50.4449C119.556 48.4449 119.556 48.4449 121.111 48.4449C121.778 48.4449 122.444 48.4449 123.333 48.4449C124.444 48.4449 125.111 49.3338 125.111 50.2227V50.8893Z" fill="#003619"/>
<defs>
<linearGradient id="paint0_linear" x1="157.007" y1="25.4944" x2="124.462" y2="2.70615" gradientUnits="userSpaceOnUse">
<stop stop-color="#005730"/>
<stop offset="0.4" stop-color="#176836"/>
<stop offset="1" stop-color="#7BBB28"/>
</linearGradient>
<linearGradient id="paint1_linear" x1="136.594" y1="0.330889" x2="155.853" y2="13.8162" gradientUnits="userSpaceOnUse">
<stop stop-color="#005730"/>
<stop offset="0.3" stop-color="#176836"/>
<stop offset="1" stop-color="#7BBB28"/>
</linearGradient>
</defs>
</svg>
