<svg width="120" height="60" viewBox="0 0 120 60" fill="none" xmlns="http://www.w3.org/2000/svg">
<g clip-path="url(#clip0)">
<path d="M0 52.5517H1.95205L4.98288 57.9455L7.85958 52.5517H9.60616L5.49658 60.0003H4.31507L0 52.5517Z" fill="#20386B"/>
<path d="M13.562 52.5517H11.8154V60.0003H13.562V52.5517Z" fill="#20386B"/>
<path d="M16.7466 52.5517H24.4006V53.8359H18.4931V55.4797H21.9349V56.764H18.4931V58.6133H24.452V60.0003H16.7466V52.5517Z" fill="#20386B"/>
<path d="M30.9758 60.0003H29.2293V53.8873H25.8389V52.5517H34.4177V53.8873H30.9758V60.0003Z" fill="#20386B"/>
<path d="M36.3696 52.5517H37.5512L42.7908 56.9181C43.0991 57.175 43.4073 57.4318 43.6641 57.7401C43.6128 57.1236 43.6128 56.6613 43.6128 56.4557V52.5517H45.1539V60.0003H43.9724L38.4758 55.377C38.2703 55.1715 38.0648 55.0174 37.8594 54.7606C37.9108 55.3257 37.9108 55.7366 37.9108 55.942V59.9489H36.3696V52.5517Z" fill="#20386B"/>
<path d="M53.9895 57.0208L52.397 53.9901L50.7532 57.0208H53.9895ZM51.5751 52.5517H53.2704L57.5341 60.0003H55.582L54.7088 58.3564H49.9827L49.1093 60.0003H47.3628L51.5751 52.5517Z" fill="#20386B"/>
<path d="M59.7945 52.5517H61.1815L64.6747 57.0722L68.1165 52.5517H69.5035V60.0003H67.911V55.377C67.911 55.2229 67.911 54.966 67.9624 54.6064C67.8083 54.9147 67.6542 55.2229 67.5515 55.377L64.7261 59.0757H64.3665L61.5412 55.3257C61.3871 55.1201 61.1815 54.8633 61.0789 54.555C61.1303 54.8633 61.1303 55.1201 61.1303 55.3257V59.9489H59.7432V52.5517H59.7945Z" fill="#20386B"/>
<path d="M80.1884 53.8359V55.8394H84.0925C84.6062 55.8394 84.8631 55.7366 84.8631 55.2229V54.4524C84.8631 53.9387 84.6062 53.8359 84.0925 53.8359H80.1884ZM78.4932 52.5517H84.8631C85.9932 52.5517 86.5583 52.9626 86.5583 53.9901V55.6338C86.5583 56.6613 86.0445 57.0722 84.8631 57.0722H80.1884V60.0003H78.4932V52.5517Z" fill="#20386B"/>
<path d="M96.3701 53.8873H90.668V58.6133H96.3701V53.8873ZM90.7194 52.5517H96.216C97.6029 52.5517 98.0653 52.9113 98.0653 54.2982V58.2024C98.0653 59.5894 97.6029 59.9489 96.216 59.9489H90.7194C89.3324 59.9489 88.8701 59.5894 88.8701 58.2024V54.2982C88.8701 52.9113 89.3324 52.5517 90.7194 52.5517Z" fill="#20386B"/>
<path d="M103.151 53.8359V55.4283H107.825C109.212 55.4283 109.674 55.788 109.674 57.175V58.2024C109.674 59.5894 109.212 59.9489 107.825 59.9489H103.202C101.815 59.9489 101.353 59.5894 101.353 58.2024V57.9455H102.894V58.562H108.185V56.8667H103.51C102.123 56.8667 101.661 56.5071 101.661 55.1201V54.2982C101.661 52.9113 102.123 52.5517 103.51 52.5517H107.722C109.058 52.5517 109.572 52.9113 109.572 54.1955V54.3496H108.031V53.8359H103.151Z" fill="#20386B"/>
<path d="M116.609 60.0003H114.863V53.8873H111.421V52.5517H120V53.8873H116.609V60.0003Z" fill="#20386B"/>
<path d="M50.5479 27.072H85.4793L89.8458 22.2432H54.9143C53.3218 23.9899 51.8321 25.6337 50.5479 27.072Z" fill="#F4A732"/>
<path d="M57.0718 19.8288H92.0033L96.3697 15H61.4383C59.9999 16.5925 58.5101 18.2363 57.0718 19.8288Z" fill="#F4A732"/>
<path d="M63.5957 12.5855H98.5273L102.894 7.75677H67.9622C66.6266 9.2465 65.1368 10.8903 63.5957 12.5855Z" fill="#F4A732"/>
<path d="M107.774 0H76.4894C75.4108 0 74.4347 0.513698 73.8182 1.23288C73.8182 1.23288 72.3799 2.82535 70.1196 5.34247H105.051L108.493 1.48972C108.647 1.33562 108.698 1.13014 108.698 0.924658C108.698 0.462328 108.287 0 107.774 0Z" fill="#F4A732"/>
<path d="M41.0958 36.5239C41.0958 36.8834 40.7876 37.243 40.3767 37.243C40.2225 37.243 40.0684 37.1916 39.9657 37.1402L23.2191 25.8902C23.0651 25.7875 22.9623 25.582 22.9623 25.3251C22.9623 24.9142 23.2705 24.606 23.6814 24.606H40.4281C40.839 24.606 41.1472 24.9142 41.1472 25.3251V36.5239H41.0958ZM48.1335 29.4862V25.1711C48.1335 24.5546 47.8253 23.9382 47.363 23.5786L30.7191 12.5855C30.4109 12.38 30.0513 12.2258 29.6404 12.2258C29.2293 12.2258 28.8698 12.3286 28.5616 12.5855L11.8151 23.6814C11.3527 24.0409 11.0444 24.606 11.0444 25.2225C11.0444 25.8902 11.3527 26.4553 11.8151 26.8149L37.7054 44.1779C38.4246 44.6402 39.2979 44.9998 40.2225 44.9998H66.8835C68.476 44.9998 69.9657 44.2807 70.9417 43.2532L83.2705 29.5375H48.1335V29.4862Z" fill="#F4A732"/>
</g>
<defs>
<clipPath id="clip0">
<rect width="120" height="60" fill="white"/>
</clipPath>
</defs>
</svg>
