<svg width="109" height="45" viewBox="0 0 109 45" fill="none" xmlns="http://www.w3.org/2000/svg">
<path fill-rule="evenodd" clip-rule="evenodd" d="M80.9086 0.116481C81.5006 -1.01106 65.2817 6.31797 59.9035 10.4182C58.0094 11.8702 58.0769 13.5957 60.3263 14.9625L67.4802 19.2677C70.6598 20.8394 69.5436 22.1719 68.9347 22.8724C66.4148 25.7254 56.4534 31.9269 53.0202 33.9428C52.9864 33.977 52.9864 34.0111 52.9864 34.0453C52.9525 35.3266 79.3527 26.9896 80.7226 21.5569C81.3483 19.0969 72.8414 15.7654 70.4061 14.1254C68.9855 13.1686 69.1884 11.5628 70.4568 10.3156L80.9086 0.116481Z" fill="#E72730"/>
<path fill-rule="evenodd" clip-rule="evenodd" d="M107.715 6.47151C107.072 5.82231 106.176 5.41229 105.195 5.41229C104.214 5.41229 103.318 5.82231 102.674 6.47151C102.032 7.12069 101.626 8.02615 101.626 9.0341C101.626 10.0421 102.032 10.9476 102.674 11.5967C103.318 12.2458 104.214 12.6559 105.195 12.6559C106.176 12.6559 107.072 12.2458 107.715 11.5967C108.357 10.9476 108.763 10.0421 108.763 9.0341C108.763 8.02615 108.357 7.12069 107.715 6.47151ZM107.309 10.9988L106.7 10.025C106.548 9.78578 106.378 9.5808 106.21 9.42703C106.125 9.3587 106.007 9.27328 105.854 9.20494C106.277 9.15369 106.581 8.99993 106.784 8.79492C106.988 8.57283 107.089 8.31657 107.089 7.99198C107.089 7.7528 107.021 7.51363 106.903 7.3257C106.784 7.12069 106.615 6.98402 106.412 6.8986C106.21 6.81318 105.905 6.77902 105.516 6.77902H103.571V11.2379H104.146V9.25619H104.823C104.975 9.25619 105.076 9.25619 105.144 9.27328C105.229 9.29036 105.33 9.34162 105.414 9.39287C105.499 9.44412 105.6 9.54662 105.702 9.70038C105.804 9.83701 105.956 10.0421 106.125 10.3154L106.7 11.2379H107.038C106.531 11.6821 105.871 11.9555 105.16 11.9555C104.366 11.9555 103.639 11.6309 103.131 11.1012C102.607 10.5717 102.286 9.83701 102.286 9.0341C102.286 8.23116 102.607 7.49654 103.131 6.96694C103.655 6.43733 104.366 6.11274 105.16 6.11274C105.956 6.11274 106.683 6.43733 107.191 6.96694C107.715 7.49654 108.036 8.23116 108.036 9.0341C108.07 9.78578 107.782 10.4691 107.309 10.9988ZM105.414 8.74367H104.163V7.25737H105.55C105.871 7.25737 106.108 7.3257 106.26 7.46238C106.412 7.59904 106.48 7.76989 106.48 7.99198C106.48 8.12865 106.447 8.26532 106.361 8.38491C106.277 8.5045 106.176 8.58992 106.023 8.65826C105.888 8.70951 105.686 8.74367 105.414 8.74367Z" fill="#231F20"/>
<path fill-rule="evenodd" clip-rule="evenodd" d="M0.270508 38.4531H2.02939V43.0658H3.23017V38.4531H5.02287V37.4792H0.270508V38.4531Z" fill="#231F20"/>
<path d="M6.79875 37.4624H5.58105V43.066H6.79875V37.4624Z" fill="#231F20"/>
<path fill-rule="evenodd" clip-rule="evenodd" d="M11.2637 41.4943L9.01434 37.4624H7.54297V43.066H8.72683L8.693 38.8292L11.0607 43.066H12.3799V37.4624H11.2298L11.2637 41.4943Z" fill="#231F20"/>
<path fill-rule="evenodd" clip-rule="evenodd" d="M15.5425 38.2654C15.1704 38.7438 14.9844 39.4271 14.9844 40.3667C14.9844 41.238 15.1873 41.9043 15.6101 42.3484C16.0498 42.8268 16.6925 43.066 17.5551 43.066H19.4999V42.0922H17.5888C17.2845 42.0922 17.0477 42.058 16.8955 42.0068C16.6756 41.9213 16.5234 41.7847 16.4219 41.5455C16.3036 41.2892 16.2528 40.9305 16.2528 40.4521C16.2528 39.6834 16.3711 39.1537 16.6249 38.8292C16.8447 38.5558 17.1661 38.4192 17.6058 38.4192H19.5169V37.4624H17.5888C16.6587 37.4624 15.9653 37.7358 15.5425 38.2654Z" fill="#231F20"/>
<path fill-rule="evenodd" clip-rule="evenodd" d="M21.9518 37.4624L19.6348 43.066H20.8694L21.3429 41.7335H23.7444L24.2518 43.066H25.5372L23.1864 37.4624H21.9518ZM21.715 40.7255L22.5268 38.59L23.3555 40.7255H21.715Z" fill="#231F20"/>
<path fill-rule="evenodd" clip-rule="evenodd" d="M27.1445 39.615L25.7745 37.4624H24.4893L26.5695 40.6059V43.066H27.7364V40.6059L29.8504 37.4624H28.5144L27.1445 39.615Z" fill="#231F20"/>
<path d="M32.9455 40.4685H30.3579V41.4423H32.9455V40.4685Z" fill="#231F20"/>
<path d="M40.8769 37.4624H39.6592V43.066H40.8769V37.4624Z" fill="#231F20"/>
<path fill-rule="evenodd" clip-rule="evenodd" d="M42.2134 38.265C41.8413 38.7433 41.6553 39.4267 41.6553 40.3663C41.6553 41.2376 41.8583 41.9038 42.281 42.3481C42.7208 42.8264 43.3634 43.0656 44.226 43.0656H46.1709V42.0918H44.2598C43.8031 42.0918 43.4818 41.9893 43.2789 41.7842C43.059 41.5622 42.9576 41.2205 42.9576 40.7251H46.1709V39.7513H42.9576C42.9576 39.3242 43.076 38.9996 43.2958 38.7775C43.5157 38.5554 43.837 38.4529 44.2598 38.4529H46.1709V37.4791H44.2429C43.3127 37.462 42.6363 37.7354 42.2134 38.265Z" fill="#231F20"/>
<path fill-rule="evenodd" clip-rule="evenodd" d="M34.332 38.4531H36.1078V43.0658H37.3086V38.4531H39.0843V37.4792H34.332V38.4531Z" fill="#231F20"/>
<path fill-rule="evenodd" clip-rule="evenodd" d="M50.9399 41.4943L48.6905 37.4624H47.2192V43.066H48.4031L48.3524 38.8292L50.72 43.066H52.0561V37.4624H50.8891L50.9399 41.4943Z" fill="#231F20"/>
<path d="M56.4872 37.4624H55.2695V43.066H56.4872V37.4624Z" fill="#231F20"/>
<path fill-rule="evenodd" clip-rule="evenodd" d="M57.8232 38.2654C57.4512 38.7438 57.2651 39.4271 57.2651 40.3667C57.2651 41.238 57.4681 41.9043 57.8909 42.3484C58.3306 42.8268 58.9732 43.066 59.8358 43.066H61.7807V42.0922H59.8696C59.5652 42.0922 59.3285 42.058 59.1762 42.0068C58.9563 41.9213 58.8041 41.7847 58.7027 41.5455C58.5843 41.2892 58.5335 40.9305 58.5335 40.4521C58.5335 39.6834 58.6519 39.1537 58.9056 38.8292C59.1254 38.5558 59.4468 38.4192 59.8865 38.4192H61.7976V37.4624H59.8696C58.9395 37.4624 58.246 37.7358 57.8232 38.2654Z" fill="#231F20"/>
<path fill-rule="evenodd" clip-rule="evenodd" d="M65.9411 39.7346H63.8271V37.4624H62.6602V43.066H63.8271V40.7255H65.9411V43.066H67.1081V37.4624H65.9411V39.7346Z" fill="#231F20"/>
<path d="M71.3196 40.4685H68.7319V41.4423H71.3196V40.4685Z" fill="#231F20"/>
<path fill-rule="evenodd" clip-rule="evenodd" d="M77.2216 37.4792H72.4692V38.4531H74.2281V43.0658H75.4289V38.4531H77.2216V37.4792Z" fill="#231F20"/>
<path fill-rule="evenodd" clip-rule="evenodd" d="M78.6251 37.4624L76.3081 43.066H77.5427L78.0163 41.7335H80.4178L80.9252 43.066H82.2105L79.8597 37.4624H78.6251ZM78.3883 40.7255L79.2001 38.59L80.0288 40.7255H78.3883Z" fill="#231F20"/>
<path fill-rule="evenodd" clip-rule="evenodd" d="M86.3209 41.4943L84.0715 37.4624H82.6001V43.066H83.784L83.7502 38.8292L86.101 43.066H87.437V37.4624H86.2701L86.3209 41.4943Z" fill="#231F20"/>
<path fill-rule="evenodd" clip-rule="evenodd" d="M107.85 37.4624V39.7346H105.719V37.4624H104.569V43.066H105.719V40.7255H107.85V43.066H109V37.4624H107.85Z" fill="#231F20"/>
<path fill-rule="evenodd" clip-rule="evenodd" d="M90.9038 38.4531H92.6797V43.0658H93.8804V38.4531H95.6565V37.4792H90.9038V38.4531Z" fill="#231F20"/>
<path fill-rule="evenodd" clip-rule="evenodd" d="M102.32 41.4943L100.071 37.4624H98.5986V43.066H99.7825L99.7493 38.8292L102.1 43.066H103.436V37.4624H102.269L102.32 41.4943Z" fill="#231F20"/>
<path d="M97.4489 37.4624H96.231V43.066H97.4489V37.4624Z" fill="#231F20"/>
<path d="M52.0054 5.60022H44.0059V30.2012H52.0054V5.60022Z" fill="#231F20"/>
<path fill-rule="evenodd" clip-rule="evenodd" d="M94.6244 20.2928L100.189 30.2016H108.679L94.6244 5.48102L80.5703 30.2016H89.0603L94.6244 20.2928Z" fill="#231F20"/>
<path fill-rule="evenodd" clip-rule="evenodd" d="M14.1049 20.3275L20.7345 32.2521L27.3472 20.3275L32.9283 30.2533H41.4353L27.3472 5.48151L20.7345 17.1328L14.1049 5.48151L0 30.2875H8.52382L14.1049 20.3275Z" fill="#231F20"/>
<path d="M52.0056 33.0543H0.0170898V34.1477H52.0056V33.0543Z" fill="#231F20"/>
<path d="M108.645 33.0543H67.1758V34.1477H108.645V33.0543Z" fill="#231F20"/>
<path fill-rule="evenodd" clip-rule="evenodd" d="M57.7387 35.8392H56.4365L55.4556 37.1034L56.1828 37.0864L57.7387 35.8392Z" fill="#231F20"/>
<path d="M44.9699 43.5952H43.8198V44.6544H44.9699V43.5952Z" fill="#231F20"/>
<path fill-rule="evenodd" clip-rule="evenodd" d="M42.8389 37.103H43.8536L44.3779 36.5563L44.8515 37.103H45.9508L44.8515 35.907H43.9382L42.8389 37.103Z" fill="#231F20"/>
<path fill-rule="evenodd" clip-rule="evenodd" d="M21.022 37.103H22.0367L22.5779 36.5563L23.0345 37.103H24.1507L23.0345 35.907H22.1213L21.022 37.103Z" fill="#231F20"/>
<path d="M23.1701 43.5952H22.02V44.6544H23.1701V43.5952Z" fill="#231F20"/>
<path d="M79.8433 43.5952H78.6934V44.6544H79.8433V43.5952Z" fill="#231F20"/>
<path fill-rule="evenodd" clip-rule="evenodd" d="M77.6953 37.103H78.7101L79.2513 36.5563L79.7078 37.103H80.8241L79.7078 35.907H78.7946L77.6953 37.103Z" fill="#231F20"/>
<path fill-rule="evenodd" clip-rule="evenodd" d="M95.1997 35.8392L96.756 37.0864L97.483 37.1034L96.485 35.8392H95.1997Z" fill="#231F20"/>
</svg>
