<svg width="149" height="53" viewBox="0 0 149 53" fill="none" xmlns="http://www.w3.org/2000/svg">
<g clip-path="url(#clip0)">
<path fill-rule="evenodd" clip-rule="evenodd" d="M63.5529 34.3757L55.3794 17.7607H59.6325L65.4775 29.4342H65.5488L71.0374 17.7607H75.3143L67.3783 34.3757H63.5529Z" fill="#1967AF"/>
<path fill-rule="evenodd" clip-rule="evenodd" d="M86.0055 17.7588L96.0089 28.9071H96.0561L96.0089 17.7588H99.9051V34.3739H95.7469L85.4115 23.0107H85.364V34.3739H81.4673V17.7588H86.0055Z" fill="#1967AF"/>
<path fill-rule="evenodd" clip-rule="evenodd" d="M119.415 25.5889C119.889 25.5889 120.341 25.565 120.793 25.4934C121.22 25.4456 121.624 25.3025 121.957 25.1354C122.289 24.9444 122.55 24.7056 122.765 24.3714C122.955 24.061 123.05 23.6075 123.05 23.0823C123.05 22.5571 122.955 22.1274 122.765 21.7932C122.55 21.459 122.289 21.2202 121.957 21.0293C121.624 20.8384 121.22 20.7429 120.793 20.6712C120.364 20.5996 119.889 20.5757 119.415 20.5757H113.926V25.565H119.415V25.5889ZM120.531 17.7588H120.65C121.79 17.7588 122.741 17.9259 123.549 18.2124C124.38 18.5227 125.045 18.9047 125.568 19.406C126.091 19.9073 126.471 20.4564 126.708 21.101C126.946 21.7455 127.065 22.3901 127.065 23.0823C127.065 23.7508 126.946 24.3953 126.708 25.0399C126.471 25.6844 126.091 26.2573 125.568 26.7587C125.045 27.2361 124.38 27.6419 123.549 27.9523C122.717 28.2626 121.743 28.4058 120.555 28.4058H113.926V34.3739H109.768V17.7588H120.531Z" fill="#1967AF"/>
<path fill-rule="evenodd" clip-rule="evenodd" d="M131.27 21.268V17.7588H148.615V21.268H141.892V34.3739H137.733V21.268H131.27Z" fill="#1967AF"/>
<path fill-rule="evenodd" clip-rule="evenodd" d="M47.0628 20.6718C47.2767 22.0564 47.3954 23.5603 47.3954 25.0165C47.3954 37.8836 37.226 48.3635 24.5381 48.6739C24.5381 48.6739 31.5236 45.5228 39.1269 35.4248C46.5163 25.5895 47.0628 20.6718 47.0628 20.6718Z" fill="#1967AF"/>
<path fill-rule="evenodd" clip-rule="evenodd" d="M44.806 3.15107C42.5963 0.739969 36.5374 5.06084 36.5374 5.06084C39.3174 6.82739 41.6934 9.21461 43.4992 11.9838C43.4992 11.9838 46.8732 5.41893 44.806 3.15107ZM47.182 0.716097C49.5818 2.67362 49.5818 6.77964 46.4217 15.2542C42.4062 25.949 32.9258 36.3812 28.1737 41.2989C22.8277 46.8372 12.4682 54.2137 8.19135 51.6117C4.2709 49.2006 7.05085 41.9912 7.28846 41.2272C9.45065 34.6863 15.2007 26.2355 15.9847 20.5539C16.8401 14.371 14.8443 12.8193 13.181 11.9599C12.1831 11.4347 7.2647 9.88301 3.2492 18.1428C-0.76629 26.3549 2.86904 35.3308 2.86904 35.3308C1.37214 32.2274 0.540527 28.7182 0.540527 25.018C0.540527 11.9599 11.0188 1.36065 23.9682 1.36065C27.9837 1.36065 31.8091 2.38715 35.1118 4.20144C35.1118 4.20144 43.7367 -2.07696 47.182 0.716097Z" fill="#1967AF"/>
</g>
<defs>
<clipPath id="clip0">
<rect width="149" height="53" fill="white"/>
</clipPath>
</defs>
</svg>
