<svg width="132" height="50" viewBox="0 0 132 50" fill="none" xmlns="http://www.w3.org/2000/svg">
<path fill-rule="evenodd" clip-rule="evenodd" d="M100.692 43.0316L105.994 25.1349H111.116L112.943 34.826L117.277 25.1349H122.257L122.938 43.0316H118.818L118.316 31.9611L113.015 43.0316H110.507L108.179 31.6781L105.027 43.0316H100.692Z" fill="#245738"/>
<path fill-rule="evenodd" clip-rule="evenodd" d="M0 43.0316L2.54328 25.1349H7.66567L12.5731 36.7712L14.4716 25.1349H18.8776L15.7612 43.0316H11.1045L6.05374 31.7842L4.19105 43.0316H0ZM47.8208 37.4786L47.0328 43.0316H47.8208V37.4786ZM47.8208 28.7071H42.3761L40.3343 43.0316H35.7492L37.8626 28.7071H26.4L25.8985 32.3148H30.591L30.412 35.8517H25.5044L24.9672 39.4593H30.2687L29.5164 43.0316H19.9164L22.5313 25.1349H47.8208V28.7071ZM47.8208 43.0316H51.2239L53.0866 31.7842L58.1374 43.0316H62.7941L65.9105 25.1349H61.5044L59.6059 36.7712L54.6626 25.1349H49.5403L47.7851 37.4432L47.8208 43.0316ZM47.8208 25.1349H48.609L48.1433 28.6718H47.8208" fill="#245738"/>
<path d="M83.033 29.5561C82.4598 29.7329 81.9226 30.0866 81.4211 30.5818C80.5613 31.3953 79.9166 32.5624 79.5226 34.0832C79.3793 34.6492 79.2718 35.0736 79.2002 35.3566C79.1644 35.6395 79.1285 36.0286 79.1285 36.4883C79.1285 37.5494 79.3793 38.3275 79.8808 38.8935C80.418 39.4239 81.027 39.6716 81.7434 39.6716C82.1733 39.6716 82.6031 39.5655 83.033 39.3886C83.4628 39.2118 83.8928 38.9288 84.3226 38.5398C85.1823 37.8324 85.7195 36.9128 86.0062 35.781L86.9016 32.138C86.6867 31.1476 86.3644 30.4756 85.8987 30.0512C85.3613 29.5561 84.7524 29.3438 84.1077 29.3438C83.7495 29.3792 83.3912 29.4499 83.033 29.5561ZM83.033 46.4624C83.2121 46.4624 83.3912 46.4624 83.5703 46.4624C85.3256 46.4624 87.1882 46.1794 89.1584 45.6136C91.0928 45.0476 92.7762 44.2342 94.2092 43.2438L95.5703 45.1891C94.3524 46.0734 93.1344 46.8161 91.9524 47.382C90.7703 47.9479 89.4449 48.3723 88.0479 48.6553C86.651 48.9736 85.1823 49.115 83.642 49.115C83.427 49.115 83.2121 49.115 82.9972 49.115C82.03 49.0797 81.027 48.9736 80.0957 48.7968C78.9495 48.5845 77.839 48.3016 76.8718 47.9832C74.6867 47.2051 72.8241 46.0733 71.3195 44.5879C70.0659 43.3499 69.1346 41.9351 68.5256 40.3436C68.2031 39.5655 67.9882 38.7519 67.8449 37.8678C67.6659 37.0189 67.5942 36.1347 67.5942 35.2505C67.5942 33.4467 67.9166 31.7136 68.4897 29.9805C69.0987 28.2474 69.9942 26.6912 71.1405 25.2764C72.8598 23.2604 74.9375 21.7395 77.4092 20.7138C79.2002 19.9711 81.0628 19.4759 82.9972 19.2991C83.6778 19.2284 84.3942 19.193 85.1106 19.193C86.1136 19.193 87.0808 19.2637 88.0479 19.4051C91.0569 19.865 93.4928 20.8906 95.427 22.4469C97.6838 24.2861 99.0092 26.5143 99.439 29.0962L99.5823 30.1573L99.618 31.1123C99.618 33.0575 99.1524 34.9322 98.2211 36.736C97.2539 38.5398 96.0002 39.9192 94.3882 40.9094C93.6002 41.3693 92.8479 41.723 92.0957 41.9351C91.3793 42.1828 90.5912 42.2888 89.7315 42.2888L88.5495 42.1828L87.5823 41.8998C86.9733 41.5461 86.5793 41.2278 86.3644 40.9094C86.1495 40.4143 86.042 39.9192 86.042 39.4239C85.3256 40.3436 84.5733 41.0156 83.8569 41.4754C83.6062 41.6523 83.2838 41.7584 82.9613 41.8998C82.4241 42.0767 81.7793 42.1828 81.0987 42.1828C79.2002 42.1828 77.7674 41.6876 76.836 40.6619C75.8688 39.6716 75.4031 38.2922 75.4031 36.4883L75.439 35.7456C75.439 33.6235 76.1554 31.6782 77.6241 29.9805C79.0569 28.2474 80.8121 27.2924 82.8897 27.1156H82.9972L83.6778 27.0803C85.4688 27.0803 86.7942 27.7876 87.7256 29.2378L88.7285 27.54H91.7016L89.1584 37.5848L89.0867 38.2214C89.0867 39.0349 89.5166 39.4593 90.3762 39.4593C90.9495 39.4593 91.5584 39.2825 92.2748 38.9288C93.0628 38.4691 93.6718 38.0092 94.1016 37.5141C95.6778 35.7103 96.43 33.5881 96.43 31.183C96.43 29.8391 96.1434 28.5657 95.6061 27.3632C94.6748 25.5594 93.3495 24.18 91.63 23.2604C89.9106 22.3408 87.9762 21.881 85.8987 21.881H85.1823C84.43 21.881 83.7136 21.9163 82.9972 21.9872C79.5584 22.3762 76.6928 23.7555 74.4002 26.1253C71.8928 28.7072 70.6748 31.7489 70.6748 35.2505C70.6748 35.7103 70.7106 36.1347 70.7464 36.4883C70.7823 36.842 70.8539 37.2311 70.9256 37.6555C71.1046 38.4337 71.3554 39.1764 71.6778 39.9192C72.43 41.44 73.3972 42.6779 74.6151 43.6329C75.7972 44.5879 77.1942 45.2953 78.8062 45.755C80.239 46.1794 81.636 46.427 83.033 46.4624Z" fill="#245738"/>
<path d="M126.09 22.1284H124.979L124.477 25.0642H123.439L123.941 22.1284H122.866L122.974 21.4564H126.197L126.09 22.1284ZM129.243 23.9676C129.493 23.3664 129.779 22.6944 130.389 21.4918H132L131.392 25.0995H130.461C130.71 23.7201 130.854 22.8005 130.961 22.27H130.926C130.675 22.8005 130.245 23.6848 129.564 25.0995H128.597C128.418 23.7201 128.239 22.8005 128.203 22.27H128.167C128.095 22.8005 127.953 23.7555 127.702 25.0995H126.771L127.379 21.4918H128.956C129.099 22.7298 129.207 23.3664 129.243 23.9676Z" fill="#245738"/>
<path fill-rule="evenodd" clip-rule="evenodd" d="M41.3731 28.212C39.4029 22.553 36.8238 16.1866 34.1015 12.1191C34.1015 12.1191 36.6805 25.913 34.8536 30.5463C31.4507 38.9995 30.4118 42.2535 29.9103 42.9962C29.9103 42.9962 30.8059 31.6074 30.0895 25.4886L29.9103 13.0387C29.9103 13.0387 25.5044 19.5466 15.6536 25.4886C15.6536 25.4886 16.5492 21.2089 19.988 16.5403C23.1761 12.1545 23.4267 9.7494 24.7164 7.76875C26.0059 5.78808 26.0417 5.29291 26.0417 5.29291C26.0417 5.29291 26.579 2.56951 12.5015 4.37333C12.5015 4.37333 17.2656 0.0229433 32.4536 1.47307C32.4536 1.47307 33.5641 5.61123 31.7372 9.25423L32.2746 10.1385C32.2746 10.1385 38.3283 11.2349 39.7969 16.1159C40.191 17.4953 40.7641 19.3344 41.4089 21.4919L41.3731 28.212ZM41.3731 8.65297C39.3313 9.14813 37.8626 10.669 37.6835 12.5789H38.1492C38.1492 12.5789 39.2238 11.0581 41.3731 10.7044V8.65297ZM41.3731 21.4919C42.9492 26.9387 44.8118 34.1893 45.0626 40.1313C45.0626 40.1313 43.5939 34.6492 41.3731 28.212V21.4919ZM41.3731 10.669C42.8417 10.4214 44.8118 10.7397 47.2835 12.5082C53.3015 16.8232 57.7433 19.5819 62.9015 23.7555C62.9015 23.7555 51.4387 12.6497 46.9253 9.78477C44.9551 8.54686 42.9851 8.26391 41.3731 8.65297" fill="#76B85E"/>
</svg>
