<svg width="105" height="64" viewBox="0 0 105 64" fill="none" xmlns="http://www.w3.org/2000/svg">
<path fill-rule="evenodd" clip-rule="evenodd" d="M52.0354 0C39.3744 0 29.0322 10.3042 29.0322 22.9187C29.0322 35.5332 39.3744 45.8373 52.0354 45.8373C64.6964 45.8373 75.0386 35.5332 75.0386 22.9187C75.0386 10.3042 64.6964 0 52.0354 0Z" fill="#E31B23"/>
<path fill-rule="evenodd" clip-rule="evenodd" d="M55.9771 8.17859C57.5076 6.09928 59.7337 4.57445 63.8613 3.88134C63.8613 3.88134 63.8613 3.88134 63.8613 3.83514C38.5856 6.56135 49.3916 24.8593 49.5307 25.0903C49.3916 24.9517 44.0581 18.7138 34.5972 19.6379C43.177 21.6249 53.5191 30.6814 42.3422 29.7572C46.8408 32.2062 53.7974 34.4241 56.6728 33.269C64.5569 29.9421 50.1335 16.311 55.9771 8.17859Z" fill="#FFF200"/>
<path fill-rule="evenodd" clip-rule="evenodd" d="M44.5689 35.9953L44.6616 37.7974L46.3312 38.5367L44.6152 39.1836L44.4761 40.9857L43.363 39.5533L41.6007 39.9691L42.5746 38.4443L41.6471 36.9194L43.4094 37.3815L44.5689 35.9953ZM65.2531 33.1305L65.8097 34.8401L64.5112 36.0877H66.3198L67.1083 37.705L67.7111 35.9491L69.5198 35.7181L68.0358 34.6091L68.3604 32.8532L66.8763 33.916L65.2531 33.1305ZM59.4096 36.1339L59.3168 37.936L57.6472 38.6291L59.3168 39.276L59.456 41.078L60.6154 39.6918L62.3778 40.1078L61.4038 38.5829L62.3313 37.0581L60.569 37.5201L59.4096 36.1339ZM52.1283 37.1967L51.3863 38.8601L49.5776 38.9526L50.9226 40.1539L50.4588 41.9098L52.0356 40.9857L53.5661 42.0022L53.195 40.2463L54.5863 39.1374L52.7776 38.9988L52.1283 37.1967ZM35.7571 32.8994L36.0818 34.7015L34.644 35.7643L36.4528 35.9953L37.0093 37.705L37.7978 36.0415H39.6065L38.2615 34.7939L38.818 33.0843L37.1948 33.9622L35.7571 32.8994Z" fill="#FFF200"/>
<path fill-rule="evenodd" clip-rule="evenodd" d="M0 45.976C1.29856 48.7484 1.80871 51.3822 2.87539 54.3856C3.24641 55.4946 5.42615 62.2408 5.5189 62.934H11.8726C12.3828 60.4387 13.9596 56.9271 14.748 54.2932C15.5364 51.6132 16.6958 48.0553 17.9017 45.976H14.3306V47.2235C14.3306 49.0718 11.0842 56.7422 10.5741 59.2836H10.3421C10.2958 58.5443 8.8117 54.247 8.53343 53.2305C8.16241 52.0753 6.7711 48.1939 6.7711 47.085V46.8539C6.7711 46.438 6.86385 46.3918 6.86385 45.976H0Z" fill="#E31B23"/>
<path fill-rule="evenodd" clip-rule="evenodd" d="M92.5229 53.2305V61.6401C92.5229 62.2408 92.291 62.6567 92.1055 63.0264H97.1603C96.929 62.5643 96.7431 62.1484 96.7431 61.4091V58.914H101.567C102.911 58.914 104.117 58.3132 104.117 56.9732V53.6926C104.117 52.3063 102.726 51.6594 101.381 51.6594H92.1519C92.2447 52.2139 92.5229 52.2601 92.5229 53.2305ZM99.2473 57.1119H96.6967V53.6001H99.1089C99.619 53.6001 99.8968 53.8773 99.8968 54.3856V55.7718C99.8968 56.3263 99.7575 57.1119 99.2473 57.1119Z" fill="#98002E"/>
<path fill-rule="evenodd" clip-rule="evenodd" d="M38.4004 54.247V60.5312C38.4004 62.2408 39.1888 63.0264 40.812 63.0264H44.8932C46.2381 63.0264 45.9135 62.4719 46.5628 62.2408V62.7029C46.5628 63.3036 49.6237 63.0264 50.3194 63.0264C50.0875 62.6566 49.902 62.3794 49.902 61.7787V57.5739C49.902 56.9271 50.1338 56.8346 50.2266 56.3263H43.3627V58.3595C43.641 58.2208 43.8265 58.1284 44.2439 58.1284H45.6816V60.6236C45.6816 60.9932 45.2642 61.1781 44.8932 61.1781H43.4555C42.8062 61.1781 42.5744 60.716 42.5744 60.0229V54.4319C42.5744 54.016 42.8989 53.5077 43.2236 53.5077H48.2788C48.7889 53.5077 49.0672 53.6464 49.4846 53.7388C49.4846 53.1843 49.3918 51.567 48.928 51.567H41.1366C39.3743 51.6594 38.4004 52.3987 38.4004 54.247Z" fill="#98002E"/>
<path fill-rule="evenodd" clip-rule="evenodd" d="M78.0532 51.6594C79.5373 54.5705 76.7083 63.0726 80.9286 63.0726H87.7461C88.5809 63.0726 89.4621 62.1484 89.7866 61.5015C90.204 60.5774 90.0649 59.5608 90.0649 58.267V54.7553C90.0649 54.2008 90.0186 53.4615 90.0649 52.9532C90.1113 52.2601 90.3896 52.1677 90.5287 51.7056H87.7925C87.9316 52.3063 88.2099 52.3063 88.2099 53.3229V60.5311C88.2099 60.9008 87.7461 61.2243 87.3287 61.2243H84.4533L83.0156 61.0856C82.8764 60.8546 82.691 60.716 82.691 60.3002V53.6001C82.691 52.5373 82.9692 52.3526 83.1084 51.6594H78.0532Z" fill="#98002E"/>
<path fill-rule="evenodd" clip-rule="evenodd" d="M51.3398 51.6594C51.5717 52.1215 51.7572 52.5373 51.7572 53.2767V61.2705C51.7572 62.056 51.618 62.6105 51.3398 63.0726H56.3949C56.1631 62.6105 55.9776 62.1947 55.9776 61.4553V58.267H57.0906C57.4616 58.267 58.0645 60.1615 58.2501 60.6236C58.5283 61.3167 59.0385 62.4256 59.1776 63.0726H64.0008L61.682 58.3132C62.8414 58.3132 63.3516 57.7587 63.3516 56.6036V54.1084C63.3516 52.4911 62.0994 51.7056 60.4761 51.7056H51.3398V51.6594ZM55.9776 53.5539H58.6211C58.8993 53.5539 59.1776 53.8773 59.1776 54.1084V55.587C59.1776 55.9105 59.1312 55.9105 59.0848 56.1415C58.8529 56.1877 58.8529 56.2339 58.5283 56.2339H55.9776V53.5539Z" fill="#98002E"/>
<path fill-rule="evenodd" clip-rule="evenodd" d="M64.6499 60.0691C64.6499 61.7787 65.5774 63.0264 67.2934 63.0264H74.3428C75.5485 63.0264 76.6616 61.7326 76.6616 60.3925V55.4022C76.6616 53.2305 75.9659 51.6594 73.9254 51.6594H68.0818C65.7165 51.6594 64.6499 52.6298 64.6499 55.0788V60.0691ZM68.8239 54.2471C68.8239 53.785 69.4268 53.5539 69.9369 53.5539H71.3746C72.0239 53.5539 72.4876 53.785 72.4876 54.478V60.3002C72.4876 60.716 72.3022 60.8546 72.1631 61.0856L70.7253 61.2243L70.6326 61.1781L69.1948 61.0394C69.0557 60.8084 68.8703 60.6698 68.8703 60.2539V54.2471H68.8239Z" fill="#98002E"/>
<path fill-rule="evenodd" clip-rule="evenodd" d="M18.0874 51.6594C18.3193 52.1215 18.5048 52.5373 18.5048 53.2767V61.8249C18.5048 62.4719 18.273 62.5643 18.1802 63.0726H23.1425C22.9571 62.7491 22.7251 62.1022 22.7251 61.5939V53.1381C22.7251 52.3988 23.0498 52.2139 23.1425 51.6594H18.0874Z" fill="#E31B23"/>
<path fill-rule="evenodd" clip-rule="evenodd" d="M24.4409 51.6594C24.6264 51.9367 24.9974 52.7222 24.9974 53.1381V61.3629C24.9974 62.287 24.7191 62.4719 24.58 63.0726H27.2235C26.3423 61.3166 26.8061 56.5574 26.8061 53.9698C27.6409 54.9401 30.7483 63.0726 31.4439 63.0726H36.499V53.3691C36.499 52.7684 36.8237 52.029 37.0555 51.6594H34.3193C34.5511 52.4911 34.783 52.3063 34.7367 53.6001C34.7367 54.3856 34.7367 55.2174 34.7367 56.0029V60.6698L30.5163 51.7056L24.4409 51.6594Z" fill="#E31B23"/>
</svg>
