<svg width="102" height="29" viewBox="0 0 102 29" fill="none" xmlns="http://www.w3.org/2000/svg">
<path d="M100.703 9.6062C100.794 9.51565 100.824 9.39478 100.824 9.27396C100.824 9.18334 100.794 9.09271 100.764 9.03229C100.733 8.97187 100.673 8.91146 100.582 8.85104C100.522 8.82084 100.431 8.79062 100.372 8.76041C100.281 8.76041 100.19 8.73021 100.07 8.73021H99.3763V10.6334H99.8287V9.93858H100.009L100.552 10.6334H101.125L100.431 9.81772C100.552 9.75728 100.643 9.69685 100.703 9.6062ZM100.311 9.425C100.281 9.45522 100.281 9.48543 100.221 9.51565C100.19 9.54586 100.16 9.54586 100.1 9.57608C100.039 9.57608 99.9789 9.6062 99.9194 9.6062H99.7985V9.0625H99.9487C100.009 9.0625 100.07 9.0625 100.1 9.0625C100.16 9.0625 100.19 9.09271 100.221 9.09271C100.251 9.12291 100.281 9.15312 100.311 9.18334C100.311 9.21354 100.342 9.24375 100.342 9.30416C100.342 9.36457 100.311 9.39478 100.311 9.425ZM101.427 8.39791C101.065 8.03541 100.613 7.82396 100.07 7.82396C99.5567 7.82396 99.1043 8.00521 98.7124 8.39791C98.3507 8.76041 98.1693 9.21354 98.1693 9.75728C98.1693 10.2709 98.3507 10.7239 98.7124 11.0864C99.0741 11.4489 99.5265 11.6302 100.07 11.6302C100.582 11.6302 101.035 11.4489 101.427 11.0864C101.788 10.7239 101.97 10.2709 101.97 9.75728C102 9.21354 101.788 8.76041 101.427 8.39791ZM101.125 10.7844C100.824 11.0864 100.492 11.2375 100.07 11.2375C99.6474 11.2375 99.3159 11.0864 99.0146 10.7844C98.7426 10.4823 98.5915 10.15 98.5915 9.72707C98.5915 9.30416 98.7426 8.97187 99.0146 8.66979C99.3159 8.36771 99.6474 8.21666 100.07 8.21666C100.462 8.21666 100.824 8.36771 101.125 8.66979C101.396 8.97187 101.548 9.30416 101.548 9.72707C101.578 10.15 101.427 10.4823 101.125 10.7844ZM83.8137 22.1729L79.3803 9.51565H71.4181L79.139 28.6375H88.2171L95.998 9.51565H88.1868L83.8137 22.1729ZM18.2768 12.8989C18.2466 12.8989 18.2466 12.8989 18.2164 12.8687C18.7593 12.6271 19.1513 12.4459 19.453 12.2646C21.2324 11.0562 22.4086 9.03229 22.4086 6.70625C22.4086 3.05104 19.453 0.0604166 15.8037 0.0302084H16.2259L0 0V28.6375H13.3306C13.5719 28.6375 13.8433 28.6375 14.0846 28.6375H17.2814H17.7037C22.0165 28.4563 24.8515 24.8916 24.8515 20.5114C24.8515 16.7052 21.8054 13.7448 18.2768 12.8989ZM7.75104 5.28646H11.5813C12.0639 5.31666 12.4861 5.37709 12.8782 5.49791C13.7227 5.83021 14.356 6.55521 14.6275 7.46146C14.6877 7.67291 14.7179 7.91459 14.7179 8.12604C14.7179 8.66979 14.6275 9.15313 14.4766 9.57608C14.2957 9.99892 13.9941 10.3614 13.6322 10.6636C13.5115 10.7541 13.3608 10.8146 13.2099 10.9052C12.6972 11.1469 12.1845 11.2979 11.6718 11.2979C11.1892 11.3281 10.948 11.3281 9.71144 11.3281H7.75104V5.28646ZM15.0798 22.5959C14.3862 23.0489 13.5417 23.3209 12.6369 23.3209H7.75104V16.2219H11.8829C12.1845 16.2219 12.4258 16.2219 12.5766 16.2219C13.3305 16.2521 13.9338 16.3427 14.3862 16.4937C14.5068 16.5239 14.5972 16.5844 14.7179 16.6146C15.8338 17.2187 16.5878 18.3969 16.5878 19.7261C16.5878 20.9344 15.9846 21.9916 15.0798 22.5959ZM41.2283 9.57608L34.5026 18.1552V0H26.9628V28.6375H34.5026L37.7599 24.4989L40.7758 28.6375H49.3714L42.1331 18.8802L49.4015 9.57608H41.2283ZM68.9149 10.3011C67.3767 9.18334 63.6369 8.60937 60.259 8.60937C58.9018 8.60937 57.5446 8.76041 56.1875 8.97187C54.4985 9.24375 52.5985 9.72707 51.4223 10.2406L53.5937 14.6209C55.0414 13.7146 56.3985 13.2916 58.2383 13.0198C59.2336 12.8687 60.3193 12.8386 61.2543 12.9594C61.9178 13.05 62.521 13.2312 62.9734 13.5937C63.6067 14.0469 63.9083 14.7114 63.9083 15.6781V15.8291C60.8924 15.9198 57.9368 16.0709 55.4335 16.7959C52.8699 17.5511 50.2158 19.8166 50.2158 22.8375C50.2158 26.2209 53.1715 28.9698 56.5494 28.9698C56.6398 28.9698 57.4844 28.9698 57.4844 28.9698C59.686 28.8489 62.129 28.1239 63.8782 26.9459L65.1448 28.6375H71.2372V15.3459C71.2069 13.05 70.453 11.4489 68.9149 10.3011ZM63.8782 23.4114C63.8782 23.4114 62.3099 25.0729 60.3193 25.0729C60.1987 25.0729 60.0781 25.0729 59.9876 25.0427C59.9273 25.0427 59.8971 25.0427 59.8368 25.0125C59.8067 25.0125 59.7764 25.0125 59.7463 24.9823C58.5701 24.7406 57.6954 23.7136 57.6954 22.475C57.6954 21.2364 58.5701 20.2094 59.7463 19.9677C59.7764 19.9677 59.7764 19.9677 59.8067 19.9375C60.832 19.6959 63.9083 19.4239 63.9083 19.4239V23.4114H63.8782Z" fill="#E64F21"/>
</svg>
