<svg width="264" height="104" viewBox="0 0 264 104" fill="none" xmlns="http://www.w3.org/2000/svg">
<path d="M19.7705 27.0218L20.781 25.0689C24.2454 18.4146 30.2359 6.76954 31.7516 3.94869C32.8343 1.92346 34.2778 0.621532 36.0821 0.187555C38.6805 -0.463411 41.0622 0.766191 41.4953 1.05551C42.2892 1.34483 50.7337 4.23801 60.9827 7.78215L62.354 8.28846L25.1837 23.767C23.9567 24.3456 22.8019 24.9966 21.5749 25.7922L19.7705 27.0218ZM37.5978 1.05551C37.1648 1.05551 36.7317 1.12784 36.2987 1.20017C34.8552 1.56182 33.6282 2.64676 32.6899 4.38267C31.6794 6.33556 27.9985 13.3515 22.6575 23.6946C23.3071 23.333 24.0289 22.9714 24.6784 22.6097L25.328 22.3204L59.1783 8.21613C49.0737 4.81664 40.9901 2.06812 40.9901 2.06812L40.8457 1.99579C40.8457 1.99579 39.4022 1.05551 37.5978 1.05551Z" fill="#06BEE1"/>
<path d="M91.5849 103.908C89.3475 103.908 87.3988 102.751 87.0379 102.534C85.9553 102.172 70.2932 96.9642 52.9711 91.1779L51.3832 90.6716L100.102 74.9761L100.029 75.844C98.6581 86.6211 98.0086 92.8415 97.7199 96.024C97.359 99.8574 96.132 102.389 94.1111 103.402C93.1728 103.763 92.3789 103.908 91.5849 103.908ZM54.8477 90.6716C72.1698 96.4579 87.3988 101.521 87.3988 101.521L87.5431 101.593C87.5431 101.593 90.9354 103.691 93.5337 102.389C95.2659 101.521 96.2763 99.3511 96.565 95.8793C96.8537 92.7691 97.5033 86.8381 98.8025 76.495L54.8477 90.6716Z" fill="#06BEE1"/>
<path d="M38.3195 40.1857C38.0308 40.1857 37.7421 40.1857 37.7421 40.1857C37.1647 40.1134 36.8038 39.9687 36.4429 39.8241C36.0821 39.6794 35.7934 39.4624 35.5768 39.1731C35.1438 38.6668 34.7107 38.0882 34.1333 37.0756C33.9168 36.7139 33.7003 36.2799 33.5559 35.7013C33.0507 34.3994 33.7003 32.8804 35.2881 31.5062C35.5768 31.2892 36.1542 30.9999 36.2986 30.9275L78.5212 14.0024L78.7377 14.0748C91.0797 18.4869 98.1529 21.0184 100.246 22.031C107.103 25.1412 105.659 31.8678 105.659 31.9402L105.37 34.327L104.649 33.8207C102.844 32.6635 100.896 31.6508 98.9468 30.7829C96.7094 29.8426 94.3998 29.047 91.9458 28.396C89.4918 27.8174 86.8935 27.4557 84.223 27.4557C79.9647 27.3834 75.8507 27.8174 72.0254 28.7577C68.4166 29.6256 65.0966 30.6382 61.993 31.7955L46.8362 37.7265C44.7431 38.5221 42.8666 39.1731 41.2787 39.6794C40.6291 39.8964 39.9074 40.0411 39.33 40.1857C38.8247 40.1857 38.536 40.1857 38.3195 40.1857ZM36.6595 31.7955C36.3708 31.9402 36.0099 32.1571 35.8655 32.2295C34.6386 33.3144 34.1333 34.3994 34.422 35.195C34.5664 35.7013 34.7829 36.0629 34.9273 36.3523C35.5047 37.2925 35.9377 37.8712 36.2986 38.3052C36.4429 38.4498 36.5873 38.5945 36.8038 38.6668C37.0204 38.8115 37.3091 38.8838 37.7421 38.9561C37.8865 38.9561 38.536 38.9561 38.8969 38.9561C39.4743 38.8838 40.0517 38.7391 40.7013 38.5221C42.2892 38.0158 44.0935 37.3649 46.1866 36.5692L61.3435 30.6382C64.447 29.4086 67.8392 28.396 71.5202 27.5281C75.4898 26.5878 79.676 26.1538 83.9343 26.1538C86.7492 26.1538 89.4197 26.5154 91.9458 27.1664C94.4719 27.8174 96.8537 28.613 99.1633 29.5533C100.968 30.3489 102.7 31.2169 104.36 32.2295L104.432 31.5062C104.504 31.2169 105.659 25.5028 99.6686 22.8266C97.5755 21.8864 90.6467 19.3548 78.449 15.0151L36.6595 31.7955Z" fill="#06BEE1"/>
<path d="M19.9866 80.0392L19.77 79.9669C12.6968 77.5077 8.51067 76.0611 6.56194 75.2655C3.24187 73.9636 1.14879 72.083 0.354856 69.6961C-0.79995 66.2243 1.22096 62.9695 1.36531 62.8248L11.7586 42.5002L12.1194 43.9468C12.1916 44.0915 12.1916 44.2362 12.2638 44.3808L12.769 45.7551C12.8412 46.0444 12.9855 46.3337 13.1299 46.623C13.5629 47.491 13.996 48.3589 14.5734 49.2269C15.3673 50.3842 16.3056 51.4691 17.4604 52.4817C18.6152 53.4943 19.9866 54.4346 21.5744 55.1579C23.1623 55.9535 25.0388 56.4598 27.1319 56.7492C30.6685 57.1108 34.3495 56.9661 38.1026 56.0982C41.7835 55.3026 45.2479 54.3623 48.4237 53.205L65.2405 46.9847C67.6223 46.1167 69.8597 45.4658 71.8085 45.0318C73.8294 44.5978 75.1285 44.6701 75.9225 44.7425H76.0668C76.7164 44.8871 77.2938 45.0318 77.799 45.2488C78.3043 45.4658 78.6651 45.6827 79.026 46.0444C79.7478 46.6954 80.3973 47.3463 80.9747 47.925C81.2635 48.2143 81.48 48.5036 81.6965 48.7929C82.2017 49.3715 82.6348 50.0225 82.9957 50.6735C83.2844 51.1798 83.4287 51.7584 83.5009 52.4094V52.554C83.5731 53.1327 83.5009 54.1453 82.9957 55.6642C82.7791 56.2428 82.5626 56.6045 82.2017 56.9661C81.8409 57.2555 81.48 57.5448 81.0469 57.6894L80.7582 57.7618L19.9866 80.0392ZM11.4699 45.5381L2.37577 63.4035C2.30359 63.4758 0.499207 66.4413 1.50966 69.4068C2.15924 71.432 4.0358 73.0956 7.06717 74.2529C8.94372 74.9762 13.2021 76.4951 20.0587 78.8096L80.7582 56.8215C81.1191 56.6768 81.3356 56.5322 81.5522 56.3152C81.7687 56.0982 81.913 55.8812 81.9852 55.5196C82.4904 54.073 82.4904 53.205 82.4183 52.771C82.4183 52.1924 82.2739 51.7584 82.0574 51.3968C81.6965 50.8181 81.2635 50.2395 80.8304 49.6609C80.6139 49.3715 80.3973 49.1546 80.1086 48.8652C79.6034 48.2866 78.9538 47.708 78.2321 47.057C77.9434 46.84 77.6547 46.623 77.2938 46.4784C76.8607 46.2614 76.3555 46.1167 75.7781 46.0444H75.6338C75.1285 45.9721 73.9016 45.8997 71.9528 46.3337C70.0763 46.6954 67.911 47.3463 65.6014 48.2143L48.7845 54.4346C45.6088 55.5919 42.0722 56.6045 38.3191 57.4001C34.4216 58.1957 30.5963 58.4127 26.9876 58.0511C24.7501 57.7618 22.7292 57.1831 20.997 56.3152C19.4092 55.5196 17.9656 54.5793 16.6665 53.4943C15.4395 52.4094 14.4291 51.2521 13.5629 50.0225C12.9855 49.1546 12.4081 48.2143 12.0473 47.274C11.9029 46.9847 11.7586 46.623 11.6864 46.3337L11.4699 45.5381Z" fill="#06BEE1"/>
<path fill-rule="evenodd" clip-rule="evenodd" d="M17.3164 32.9529L15.4398 36.6418C14.9346 38.3053 14.9346 40.1136 15.3676 41.9218V42.0665V42.2111C15.3676 42.5728 15.4398 42.8621 15.5841 43.1514L16.1615 44.5257C16.2337 44.7427 16.3781 45.032 16.5224 45.249C16.8833 45.9723 17.3164 46.7679 17.8938 47.4912C18.6155 48.5038 19.4816 49.3717 20.4921 50.2397C21.5025 51.1077 22.6573 51.831 23.9565 52.4096C25.1835 52.9882 26.5548 53.3499 28.2148 53.5669C31.1019 53.8562 34.1332 53.6392 37.3089 52.9159C40.7012 52.1926 43.8047 51.2523 46.5474 50.2397L62.9312 44.0917C65.5295 43.1514 67.9113 42.4281 70.2209 41.9218H70.2931C72.6749 41.4155 74.9123 41.2708 77.0776 41.5602H77.1498H77.2219C78.4489 41.7771 79.6037 42.0665 80.6142 42.5004C81.6968 42.9344 82.6351 43.5131 83.429 44.164C84.2951 44.8873 85.0169 45.6106 85.7386 46.3339C86.0273 46.6956 86.316 46.9849 86.6047 47.3465C87.2543 48.0698 87.8317 48.8654 88.337 49.6611C88.9865 50.6737 89.2752 51.6863 89.3474 52.8436V52.9159C89.4918 54.2178 89.2752 55.5198 88.8422 57.0387V57.111C88.5535 58.0513 88.0482 58.8469 87.3265 59.6425C86.6047 60.3658 85.5943 61.0168 84.5117 61.4508L84.1508 61.5954H84.0786L26.6992 81.7754L44.0934 87.5617L99.885 69.19L100.318 69.0454C101.689 57.9066 103.277 46.1169 104.216 38.8116C103.205 37.9437 102.05 37.0034 100.895 36.2078C99.3076 35.0505 97.5032 34.0379 95.6267 33.1699C93.7501 32.302 91.8735 31.651 89.8526 31.1447C87.9761 30.6384 86.0273 30.3491 84.0064 30.3491C80.3255 30.2768 76.8611 30.6384 73.541 31.3617H73.4688C70.0044 32.1573 66.9009 33.0976 64.1582 34.1826L48.424 40.1859C46.3309 40.9815 44.31 41.7048 42.4334 42.2835H42.3612C41.3508 42.6451 40.2681 42.8621 39.2577 43.0067C38.2472 43.1514 37.3089 43.1514 36.3707 43.0067H36.2985H36.2263C35.288 42.8621 34.4941 42.5728 33.7723 42.2111C33.0506 41.8495 32.4732 41.3432 32.0401 40.8369C31.6071 40.2582 31.174 39.6796 30.8132 39.101C30.6688 38.8116 30.5245 38.5946 30.3801 38.3777C30.0914 37.8714 29.8749 37.2927 29.7305 36.7864C29.514 36.0631 29.514 35.3398 29.7305 34.5442V34.4719C29.947 33.6039 30.3801 32.736 31.1019 31.7233V31.651C31.4627 31.0724 31.968 30.5661 32.5454 30.1321C33.1228 29.6981 33.7723 29.2641 34.4941 28.9025L34.7828 28.7578L72.7471 12.8453L64.5191 9.66284L26.8435 25.286L26.3383 25.503C24.9669 26.154 23.6678 26.9496 22.3686 27.9622C20.7808 29.1918 19.5538 30.3491 18.6877 31.2894C18.1825 31.868 17.7494 32.4466 17.3164 32.9529Z" fill="#06BEE1"/>
<path d="M44.0214 88.2125L24.9671 81.8475L84.2952 61.0166C85.3779 60.5827 86.244 60.004 86.9657 59.3531C87.6153 58.7021 88.1205 57.9065 88.3371 57.0385C88.8423 55.4473 88.9866 54.2177 88.8423 53.0604C88.7701 51.9031 88.4092 50.8905 87.904 50.0949C87.3988 49.2993 86.8214 48.576 86.244 47.8527C85.9553 47.5633 85.6666 47.2017 85.3779 46.9124C84.7283 46.2614 84.0065 45.5381 83.0683 44.7425C82.3465 44.0915 81.4804 43.5852 80.3978 43.1512C79.3873 42.7173 78.3047 42.428 77.1499 42.211H77.0055C75.0568 41.9216 72.8915 42.0663 70.4376 42.5726C68.128 43.0789 65.7462 43.8022 63.1479 44.7425L46.7641 50.8905C43.9492 51.9031 40.8457 52.8434 37.4534 53.5667C34.2055 54.29 31.102 54.507 28.215 54.2177C26.4828 54.0007 25.0393 53.639 23.7401 52.9881C22.441 52.3371 21.214 51.6138 20.1313 50.7458C19.0487 49.8779 18.1826 48.9376 17.4609 47.925C16.8834 47.1294 16.4504 46.3337 16.0895 45.6105C16.0173 45.3935 15.873 45.1765 15.8008 44.9595L15.0791 43.3682C14.9347 43.0066 14.8625 42.6449 14.8625 42.211V42.0663C14.3573 40.1134 14.3573 38.3052 14.9347 36.4246L16.8834 32.5911C17.3165 32.0125 17.7496 31.5062 18.2548 30.9276C19.1931 29.9149 20.4922 28.7577 22.0079 27.5281C23.3071 26.4431 24.6784 25.6475 26.1219 24.9965L26.6271 24.7796L64.6635 9.01172L74.4072 12.7729L34.7829 29.3363C34.1334 29.6256 33.4838 30.0596 32.9786 30.4213C32.4733 30.8552 31.9681 31.2892 31.6794 31.8678C30.9576 32.9528 30.5968 33.7484 30.3802 34.4717C30.1637 35.2673 30.1637 35.9183 30.3802 36.4969C30.5246 37.0032 30.7411 37.5095 31.0298 38.0159C31.1742 38.2328 31.2463 38.4498 31.3907 38.6668C31.7516 39.2455 32.1125 39.8241 32.5455 40.3304C32.9064 40.8367 33.4838 41.2707 34.1334 41.56C34.7829 41.9216 35.5769 42.1386 36.443 42.2833C37.3091 42.428 38.2474 42.428 39.2578 42.2833C40.1961 42.1386 41.2066 41.9216 42.217 41.6323C44.0214 41.0537 45.9701 40.4027 48.2076 39.5348L63.7253 33.5314C66.5401 32.4465 69.7158 31.5062 73.1081 30.7106C76.6447 29.9149 80.1091 29.5533 83.79 29.6256C85.9553 29.698 87.904 29.9149 89.7806 30.4213C91.8015 30.9276 93.8224 31.6509 95.699 32.5188C97.6477 33.3868 99.4521 34.3994 101.04 35.5567C102.267 36.4246 103.35 37.2926 104.36 38.1605L104.649 38.3052V38.6668C103.133 50.1672 101.834 60.3657 100.751 68.9006L100.679 69.2622L99.9573 69.5515L44.0214 88.2125ZM28.3593 81.7752L44.0214 86.9829L99.6686 68.6836C100.751 60.2933 101.978 50.3842 103.494 39.1008C102.556 38.3052 101.545 37.5095 100.39 36.6416C98.8025 35.5567 97.0703 34.544 95.1937 33.6761C93.3894 32.8805 91.4406 32.1572 89.4919 31.6509C87.6875 31.1446 85.8109 30.9276 83.7178 30.8552C80.1091 30.7829 76.7168 31.0722 73.3968 31.8678C70.0045 32.6635 66.901 33.6038 64.0861 34.6164L48.5684 40.6197C46.331 41.4877 44.3101 42.211 42.5779 42.7173C41.4231 43.0789 40.3404 43.2959 39.4022 43.4406C38.3195 43.5852 37.2369 43.5852 36.3708 43.4406H36.2264C35.2882 43.2959 34.4221 43.0066 33.6281 42.5726C32.8342 42.211 32.1846 41.6323 31.6794 41.0537C31.2463 40.4751 30.8133 39.8964 30.4524 39.2455C30.3081 38.9561 30.1637 38.6668 30.0194 38.4498C29.7307 37.8712 29.5141 37.2926 29.2976 36.7139C29.0811 35.9183 29.0089 35.0503 29.2976 34.1824C29.5141 33.2421 29.9472 32.3018 30.7411 31.2169C31.1742 30.5659 31.7516 29.9873 32.329 29.481C32.9064 28.9747 33.6281 28.5407 34.4221 28.179H34.7108L71.448 12.7729L64.7357 10.169L26.5549 26.0092C25.1836 26.5878 23.9566 27.3834 22.6575 28.396C21.1418 29.6256 19.9148 30.7106 19.0487 31.7232C18.6157 32.2295 18.1826 32.7358 17.8217 33.2421L15.9452 36.8586C15.5121 38.3775 15.5121 40.0411 15.9452 41.777L16.0173 42.211C16.0173 42.5003 16.0895 42.7173 16.1617 42.9343L16.7391 44.4532C16.8113 44.6702 16.8834 44.8148 17.0278 45.0318C17.3887 45.7551 17.7496 46.4784 18.327 47.2017C18.9765 48.142 19.8426 49.0099 20.7809 49.8056C21.7914 50.6012 22.874 51.3245 24.101 51.9031C25.2558 52.4818 26.6271 52.8434 28.1428 52.9881C30.9576 53.2774 33.989 53.0604 37.0926 52.4094C40.4126 51.6861 43.5162 50.7458 46.2588 49.7332L62.6426 43.5852C65.3131 42.5726 67.6949 41.8493 70.0045 41.343C72.675 40.7644 74.9124 40.692 77.0777 40.9814C78.449 41.1984 79.6038 41.56 80.6865 41.994C81.8413 42.5003 82.8517 43.0789 83.6457 43.8022C84.584 44.5978 85.3057 45.3211 86.0275 46.0444C86.3162 46.4061 86.677 46.6954 86.9657 47.057C87.6153 47.7803 88.1927 48.576 88.7701 49.3716C89.4197 50.3842 89.7806 51.5415 89.9249 52.8434C90.0693 54.2177 89.8528 55.5919 89.3475 57.2555C88.9866 58.3404 88.4814 59.2807 87.6875 60.0764C86.8936 60.872 85.8831 61.5229 84.6561 62.0293L84.2952 62.1739L28.3593 81.7752Z" fill="#06BEE1"/>
<path d="M133.952 35.2675H130.921V20.2229H122.765V17.4021H142.108V20.2229H133.952V35.2675Z" fill="#06BEE1"/>
<path d="M145.211 17.4021H162.389V20.223H148.243V24.9244H156.976V27.5282H148.243V32.519H162.605V35.3398H145.283V17.4021H145.211Z" fill="#06BEE1"/>
<path d="M183.536 23.9841V20.2229H169.534V32.519H183.536V28.3962L186.568 29.0471V31.434C186.568 32.1573 186.496 32.8083 186.351 33.3146C186.207 33.8209 185.99 34.2549 185.702 34.5442C185.413 34.8335 184.98 35.0505 184.475 35.1952C183.969 35.3398 183.392 35.4121 182.67 35.4121H170.545C169.823 35.4121 169.173 35.3398 168.74 35.1952C168.235 35.0505 167.874 34.8335 167.513 34.5442C167.225 34.2549 167.008 33.8209 166.864 33.3146C166.719 32.8083 166.647 32.2296 166.647 31.434V21.3079C166.647 19.8613 166.936 18.8487 167.513 18.2701C168.091 17.6914 169.101 17.4021 170.545 17.4021H182.67C184.114 17.4021 185.124 17.6914 185.702 18.2701C186.279 18.8487 186.568 19.8613 186.568 21.3079V23.3331L183.536 23.9841Z" fill="#06BEE1"/>
<path d="M191.259 17.4021H194.291V24.635H208.22V17.4021H211.252V35.3398H208.22V27.3112H194.218V35.3398H191.187V17.4021H191.259Z" fill="#06BEE1"/>
<path d="M131.281 46.1169H135.179L144.923 64.0547H141.458L139.149 59.6426H127.167L124.858 64.0547H121.754L131.281 46.1169ZM137.777 56.9664L133.158 48.1422L128.467 56.9664H137.777Z" fill="#06BEE1"/>
<path d="M144.49 46.1169H147.737L152.429 59.7872L157.481 46.1169H159.935L164.843 59.7872L169.534 46.1169H172.349L165.853 64.0547H163.399L158.419 50.529L153.439 64.0547H150.913L144.49 46.1169Z" fill="#06BEE1"/>
<path d="M181.443 46.1169H185.341L195.085 64.0547H191.62L189.31 59.6426H177.329L175.02 64.0547H171.916L181.443 46.1169ZM187.939 56.9664L183.392 48.2145L178.701 57.0387H187.939V56.9664Z" fill="#06BEE1"/>
<path d="M197.178 64.0547V46.1169H211.324C211.974 46.1169 212.551 46.1169 212.912 46.1893C213.273 46.2616 213.634 46.4063 213.994 46.6233C214.5 46.9126 214.861 47.2742 215.005 47.7805C215.221 48.2868 215.294 49.0101 215.294 50.0227V53.2776C215.294 53.9285 215.294 54.3625 215.221 54.7242C215.149 55.0858 215.077 55.3751 214.933 55.6644C214.644 56.2431 214.283 56.677 213.706 56.894C213.128 57.111 212.334 57.2557 211.252 57.2557H209.592L216.881 63.9823H212.623L205.622 57.2557H200.065V63.9823H197.178V64.0547ZM210.314 54.6518C211.107 54.6518 211.613 54.5072 211.901 54.2178C212.19 53.9285 212.334 53.4222 212.334 52.6266V50.963C212.334 50.1674 212.19 49.6611 211.901 49.3718C211.613 49.0825 211.107 48.9378 210.314 48.9378H200.137V54.6518H210.314Z" fill="#06BEE1"/>
<path d="M220.202 46.1169H232.471C233.77 46.1169 234.781 46.1893 235.503 46.3339C236.297 46.4786 236.946 46.7679 237.524 47.1296C238.462 47.7082 239.111 48.5038 239.545 49.5888C239.978 50.6737 240.194 52.048 240.194 53.7839V56.3154C240.194 57.328 240.122 58.196 240.05 58.9193C239.905 59.6426 239.689 60.2935 239.4 60.8722C238.967 61.7401 238.39 62.4634 237.596 62.9697C237.018 63.3314 236.369 63.6207 235.575 63.7653C234.781 63.91 233.77 63.9823 232.544 63.9823H220.274V46.1169H220.202ZM232.471 61.2338C233.265 61.2338 233.843 61.1615 234.276 61.0891C234.709 61.0168 235.142 60.8722 235.503 60.5828C236.008 60.2212 236.441 59.7149 236.657 59.1363C236.874 58.4853 237.018 57.6897 237.018 56.6047V53.4946C237.018 52.9159 237.018 52.4096 236.946 51.9756C236.874 51.5417 236.73 51.18 236.585 50.8184C236.297 50.1674 235.791 49.6611 235.214 49.3718C234.564 49.0825 233.698 48.9378 232.544 48.9378H223.305V61.2338H232.471Z" fill="#06BEE1"/>
<path d="M259.753 51.0353V48.9378H247.484V53.4946H259.176C259.898 53.4946 260.475 53.5669 260.98 53.7115C261.486 53.8562 261.919 54.0732 262.207 54.3625C262.496 54.6518 262.713 55.0858 262.857 55.5921C263.001 56.0984 263.074 56.677 263.074 57.4727V60.0765C263.074 60.7998 263.001 61.4508 262.857 61.9571C262.713 62.4634 262.496 62.8974 262.207 63.1867C261.919 63.476 261.486 63.693 260.98 63.8377C260.475 63.9823 259.898 64.0547 259.176 64.0547H247.989C247.267 64.0547 246.618 63.9823 246.185 63.8377C245.679 63.693 245.318 63.476 244.958 63.1867C244.669 62.8974 244.452 62.4634 244.308 61.9571C244.164 61.4508 244.091 60.8722 244.091 60.0765V59.2809L247.051 58.6299V61.1615H260.187V56.0984H248.494C247.051 56.0984 246.04 55.8091 245.463 55.2305C244.885 54.6518 244.597 53.6392 244.597 52.1926V50.0227C244.597 48.5761 244.885 47.5635 245.463 46.9849C246.04 46.4063 247.051 46.1169 248.494 46.1169H258.887C259.609 46.1169 260.259 46.1893 260.764 46.3339C261.269 46.4786 261.702 46.6956 261.991 46.9849C262.28 47.2742 262.496 47.7082 262.641 48.2145C262.785 48.7208 262.857 49.3718 262.857 50.0227V50.3844L259.753 51.0353Z" fill="#06BEE1"/>
<path d="M124.353 91.1784C124.353 90.6721 124.353 90.3105 124.425 90.0935C124.497 89.8765 124.569 89.5872 124.786 89.3702C125.147 88.8639 125.724 88.4299 126.374 87.9959L138.499 80.4737V77.5805H127.961V81.3416L125.147 80.6907V78.3761C125.147 77.7975 125.147 77.4358 125.219 77.0742C125.291 76.7849 125.363 76.4955 125.435 76.2786C125.652 75.7723 126.013 75.4106 126.518 75.1936C127.023 74.9766 127.745 74.9043 128.683 74.9043H137.705C138.282 74.9043 138.788 74.9043 139.149 74.9766C139.509 75.049 139.798 75.1936 140.087 75.3383C140.52 75.5553 140.809 75.9169 141.025 76.3509C141.169 76.7849 141.242 77.4358 141.242 78.3761V79.5334C141.242 80.4013 141.169 81.0523 140.953 81.414C140.809 81.6309 140.592 81.9203 140.303 82.2096C139.942 82.4989 139.582 82.7882 139.076 83.1499L127.961 90.0935H139.437V87.2003L142.324 87.8513C142.324 88.6469 142.252 89.2979 142.252 89.7318C142.252 90.1658 142.18 90.5275 142.108 90.8168C142.036 91.1784 141.891 91.5401 141.675 91.7571C141.458 91.9741 141.242 92.1911 140.881 92.3357C140.52 92.4804 140.087 92.625 139.509 92.625C138.932 92.6974 138.282 92.6974 137.489 92.6974H124.353V91.1784Z" fill="#06BEE1"/>
<path d="M150.552 92.7693C149.181 92.7693 148.17 92.4799 147.593 91.9013C147.016 91.3227 146.727 90.3824 146.727 89.0081V78.665C146.727 77.2907 147.016 76.2781 147.593 75.6995C148.17 75.1209 149.109 74.8315 150.552 74.8315H162.028C163.399 74.8315 164.41 75.1209 164.915 75.6995C165.493 76.2781 165.781 77.2184 165.781 78.665V89.0081C165.781 90.3824 165.493 91.395 164.915 91.9013C164.338 92.4799 163.399 92.7693 162.028 92.7693H150.552ZM162.966 90.0931V77.5077H149.614V90.0931H162.966Z" fill="#06BEE1"/>
<path d="M170.112 91.1784C170.112 90.6721 170.112 90.3105 170.184 90.0935C170.256 89.8765 170.328 89.5872 170.545 89.3702C170.906 88.8639 171.483 88.4299 172.133 87.9959L184.258 80.4737V77.5805H173.721V81.3416L170.906 80.6907V78.3761C170.906 77.7975 170.906 77.4358 170.978 77.0742C171.05 76.7849 171.122 76.4955 171.194 76.2786C171.411 75.7723 171.772 75.4106 172.277 75.1936C172.782 74.9766 173.504 74.9043 174.442 74.9043H183.464C184.042 74.9043 184.547 74.9043 184.908 74.9766C185.269 75.049 185.557 75.1936 185.846 75.3383C186.279 75.5553 186.568 75.9169 186.784 76.3509C186.929 76.7849 187.001 77.4358 187.001 78.3761V79.5334C187.001 80.4013 186.929 81.0523 186.712 81.414C186.568 81.6309 186.351 81.9203 186.063 82.2096C185.702 82.4989 185.341 82.7882 184.836 83.1499L173.721 90.0935H185.196V87.2003L188.083 87.8513C188.083 88.6469 188.011 89.2979 188.011 89.7318C188.011 90.1658 187.939 90.5275 187.867 90.8168C187.795 91.1784 187.65 91.5401 187.434 91.7571C187.217 91.9741 187.001 92.1911 186.64 92.3357C186.279 92.4804 185.846 92.625 185.269 92.625C184.691 92.6974 184.042 92.6974 183.248 92.6974H170.112V91.1784Z" fill="#06BEE1"/>
<path d="M196.311 92.7693C194.94 92.7693 193.93 92.4799 193.352 91.9013C192.775 91.3227 192.486 90.3824 192.486 89.0081V78.665C192.486 77.2907 192.775 76.2781 193.352 75.6995C193.93 75.1209 194.868 74.8315 196.311 74.8315H207.787C209.159 74.8315 210.169 75.1209 210.674 75.6995C211.252 76.2781 211.54 77.2184 211.54 78.665V89.0081C211.54 90.3824 211.252 91.395 210.674 91.9013C210.097 92.4799 209.159 92.7693 207.787 92.7693H196.311ZM208.726 90.0931V77.5077H195.373V90.0931H208.726Z" fill="#06BEE1"/>
</svg>
