<svg width="215" height="288" viewBox="0 0 215 288" fill="none" xmlns="http://www.w3.org/2000/svg">
<path d="M31.6152 31.8404L78.3474 11.2977L76.6233 10.6289C63.6472 5.85154 53.0304 2.02966 52.123 1.74302C51.5785 1.45638 48.584 -0.263473 45.3173 0.596451C43.0487 1.16973 41.2339 2.88958 39.8728 5.5649C37.9672 9.29124 30.4356 24.6743 26.08 33.4647L24.8096 36.0444L27.0781 34.4201C28.53 33.4647 29.9819 32.6047 31.6152 31.8404ZM41.0524 6.32928C42.2321 4.03615 43.7747 2.60294 45.5895 2.12521C46.134 1.93411 46.6784 1.93411 47.2229 1.93411C49.4914 1.93411 51.397 3.08068 51.397 3.17622L51.5785 3.27177C51.5785 3.27177 61.6509 6.90256 74.4455 11.5844L31.8875 30.1205L31.0708 30.5027C30.1634 30.8849 29.3467 31.3626 28.53 31.9359C35.1542 18.1771 39.6913 8.90905 41.0524 6.32928Z" fill="#FFE74C"/>
<path d="M66.4577 120.891C88.2358 128.534 107.927 135.509 109.288 135.892C109.742 136.178 112.283 137.707 115.005 137.707C116.003 137.707 117.092 137.516 117.999 137.038C120.631 135.701 122.173 132.356 122.536 127.292C122.899 123.088 123.807 114.871 125.44 100.635L125.531 99.488L64.4614 120.222L66.4577 120.891ZM124.079 101.59C122.446 115.158 121.629 123.088 121.266 127.197C120.903 131.783 119.633 134.65 117.455 135.796C114.279 137.516 110.014 134.745 109.923 134.745L109.742 134.65C109.742 134.65 90.5951 127.961 68.817 120.317L124.079 101.59Z" fill="#FFE74C"/>
<path d="M125.894 29.3561C123.263 28.1139 114.37 24.6742 98.8533 18.8458L98.5811 18.7502L45.497 41.1085C45.3155 41.204 44.4988 41.5862 44.2266 41.8729C42.2303 43.6883 41.4136 45.6948 42.0488 47.4146C42.2303 48.0835 42.5025 48.6568 42.7747 49.2301C43.5006 50.5677 44.1358 51.3321 44.5895 52.0009C44.8618 52.3831 45.2247 52.6698 45.6785 52.8609C46.0414 53.052 46.5859 53.2431 47.3118 53.3386C47.3118 53.3386 47.6748 53.3386 48.0377 53.3386C48.4007 53.3386 48.7637 53.3386 49.0359 53.2431C49.8526 53.1475 50.6693 52.9564 51.4859 52.5742C53.573 51.9054 55.8416 51.0455 58.4731 49.9944L77.5289 42.1595C81.3401 40.6307 85.605 39.1975 90.1421 38.1465C95.0422 36.9044 100.124 36.3311 105.478 36.4266C108.835 36.4266 112.102 36.9044 115.187 37.6687C118.272 38.4331 121.267 39.4842 123.989 40.8218C126.53 41.9684 128.889 43.3061 131.158 44.8348L132.065 45.5037L132.428 42.3506C132.7 42.4461 134.515 33.4646 125.894 29.3561ZM131.339 42.2551L131.248 43.2105C129.161 41.8729 126.983 40.7263 124.715 39.6753C121.902 38.3376 118.817 37.2866 115.641 36.5222C112.374 35.6622 109.016 35.2801 105.568 35.1845C100.214 35.089 94.9514 35.7578 89.9606 36.9999C85.4235 38.1465 81.0679 39.4842 77.166 41.1085L58.1101 48.9434C55.4786 49.9944 53.21 50.8544 51.2137 51.5232C50.397 51.8099 49.6711 52.0009 48.9452 52.0965C48.4915 52.192 47.6748 52.0965 47.4933 52.0965C46.9488 52.0009 46.5859 51.9054 46.3136 51.7143C46.0414 51.6188 45.8599 51.4277 45.6785 51.2366C45.2247 50.6633 44.6803 49.8989 43.9544 48.6568C43.6821 48.179 43.5006 47.7013 43.3192 47.128C42.9562 45.9814 43.5914 44.5482 45.134 43.2105C45.2247 43.115 45.6785 42.8283 46.1322 42.6372L98.6718 20.5657C114.007 26.2985 122.719 29.6427 125.35 30.8848C132.882 34.3246 131.43 41.8729 131.339 42.2551Z" fill="#FFE74C"/>
<path d="M101.85 76.8434C102.394 76.6523 102.939 76.2701 103.302 75.8879C103.755 75.5057 104.028 74.9324 104.3 74.168C104.935 72.1615 105.026 70.8239 104.935 70.0595V69.8684C104.935 69.0085 104.754 68.2441 104.3 67.5753C103.846 66.7153 103.211 65.951 102.666 65.091C102.394 64.7088 102.031 64.3267 101.759 63.9445C101.033 63.1801 100.307 62.3202 99.309 61.4602C98.8553 60.9825 98.3109 60.6959 97.7664 60.4092C97.1312 60.1226 96.4053 59.8359 95.5886 59.7404H95.4071C94.409 59.5493 92.7756 59.5493 90.2348 60.1226C87.7848 60.6959 85.0625 61.5558 81.9773 62.7023L60.8344 70.8239C56.9325 72.3526 52.5768 73.5947 47.8582 74.6458C43.0489 75.6968 38.4211 75.9834 34.0654 75.5057C31.4339 75.1235 29.0746 74.4547 27.0783 73.4037C25.1727 72.4482 23.4486 71.2061 21.906 69.8684C20.4541 68.5307 19.1837 67.0975 18.2763 65.5688C17.5504 64.4222 16.9152 63.3712 16.4615 62.1291C16.28 61.7469 16.1892 61.3647 16.0078 60.9825L15.3726 59.1671C15.2818 58.976 15.2818 58.7849 15.1911 58.5938L14.7374 56.6829L1.67051 83.5317C1.57976 83.7228 -0.961015 88.0224 0.400117 92.6087C1.39828 95.7618 4.0298 98.246 8.20394 99.9658C10.5632 100.921 15.917 102.928 24.8097 106.176L25.082 106.272L101.487 77.13L101.85 76.8434ZM25.082 104.648C16.4615 101.495 11.1077 99.5837 8.74839 98.6282C5.02797 97.0994 2.66867 94.9018 1.76125 92.2265C0.49086 88.3091 2.85015 84.3916 2.85015 84.2961L14.3744 60.6003L14.7374 61.4602C14.9189 61.8424 15.0096 62.2246 15.1911 62.7023C15.7355 63.9445 16.3707 65.1866 17.0967 66.3331C18.0948 67.9575 19.456 69.4862 20.9986 70.9194C22.5412 72.3526 24.4468 73.5947 26.4431 74.6458C28.6209 75.7923 31.071 76.5567 33.9747 76.9389C38.5118 77.5122 43.3211 77.2256 48.2212 76.079C52.9398 75.028 57.3862 73.6903 61.3788 72.1615L82.5217 63.9445C85.4255 62.7979 88.1478 61.938 90.507 61.4602C92.9571 60.8869 94.4997 60.9825 95.1349 61.078H95.3164C96.0423 61.2691 96.6775 61.4602 97.222 61.6513C97.7664 61.8424 98.1294 62.1291 98.4016 62.4157C99.309 63.2756 100.035 64.04 100.761 64.8044C101.033 65.1866 101.396 65.4732 101.668 65.8554C102.304 66.6198 102.757 67.3842 103.211 68.1486C103.483 68.6263 103.574 69.1996 103.665 69.964C103.665 70.4417 103.665 71.6838 103.12 73.5948C102.939 74.0725 102.757 74.3591 102.576 74.6458C102.304 74.9324 102.031 75.1235 101.578 75.3146L25.082 104.648Z" fill="#FFE74C"/>
<path d="M126.985 47.7015C124.988 46.1727 122.72 44.8351 120.27 43.6885C117.91 42.5419 115.46 41.5864 112.829 40.9176C110.469 40.2488 107.929 39.8666 105.297 39.8666C100.669 39.771 96.223 40.2488 91.8674 41.2998C87.6025 42.3508 83.6098 43.5929 80.0709 45.0261L60.5613 52.9566C57.7483 54.1032 55.2983 54.9631 53.0297 55.7275C51.6686 56.2052 50.3982 56.4919 49.3093 56.5874C48.0389 56.7785 46.8593 56.7785 45.7704 56.5874C44.6815 56.3963 43.6833 56.0141 42.8666 55.6319C42.0499 55.2497 41.4147 54.6765 40.8703 54.0076C40.3258 53.3388 39.8721 52.5744 39.4184 51.81C39.2369 51.5234 39.0554 51.2367 38.9647 50.9501C38.6017 50.2813 38.3295 49.6124 38.148 48.9436C37.8758 48.1792 37.8758 47.3193 38.148 46.2683C38.4203 45.3128 38.874 44.1662 39.7814 42.8286C40.2351 42.1597 40.7795 41.4909 41.4147 40.9176C42.0499 40.3443 42.8666 39.8666 43.6833 39.4844L93.5007 17.3174L81.2505 12.3489L33.4294 33.1782L32.7942 33.4649C30.9794 34.3248 29.2553 35.4714 27.6219 36.8091C25.6256 38.4334 24.083 39.9621 22.9034 41.2998C22.2682 42.0642 21.7237 42.733 21.1793 43.4974L18.7292 48.5614C18.0033 50.9501 18.0033 53.4343 18.6385 56.0141V56.2052C18.6385 56.7785 18.7292 57.2562 18.9107 57.734L19.6366 59.7405C19.7274 60.0271 19.9089 60.3138 19.9996 60.6004C20.4533 61.5559 20.9978 62.6069 21.7237 63.6579C22.6311 64.9956 23.8108 66.2377 25.0812 67.3843C26.4423 68.5309 27.8942 69.5819 29.6183 70.3463C31.2516 71.1106 33.0665 71.6839 35.2443 71.9706C38.9647 72.3528 42.8666 72.0661 46.8593 71.1106C51.1241 70.1552 55.1168 68.913 58.565 67.5754L79.1635 59.4538C82.4302 58.2117 85.3339 57.2562 88.3284 56.5874C91.4137 55.9186 94.1359 55.7275 96.586 56.1097H96.7674C98.2193 56.3963 99.6712 56.7785 100.851 57.3518C102.121 57.9251 103.301 58.6895 104.208 59.4538C105.297 60.5049 106.295 61.3648 107.112 62.3203C107.475 62.7025 107.838 63.1802 108.201 63.5624C109.018 64.5179 109.744 65.4733 110.288 66.5244C111.014 67.6709 111.377 68.913 111.468 70.4418C111.558 71.9706 111.377 73.5949 110.832 75.6969C110.469 76.8435 109.925 77.799 109.108 78.7544C108.292 79.6144 107.112 80.3788 105.751 80.952L31.1609 108.47L55.1168 116.878L125.442 92.5133L126.349 92.1311L126.44 91.6534C127.801 80.3788 129.435 67.0021 131.34 51.7145V51.2367L130.977 51.0456C129.979 49.9946 128.527 48.8481 126.985 47.7015Z" fill="#FFE74C"/>
<path d="M18.5465 195.971H13.9444V171.973H1.5625V167.473H30.9283V171.973H18.5465V195.971Z" fill="#FFE74C"/>
<path d="M35.6392 167.473H61.7178V171.973H40.2413V179.472H53.4997V183.626H40.2413V191.587H62.0465V196.086H35.7487V167.473H35.6392Z" fill="#FFE74C"/>
<path d="M93.8215 177.972V171.973H72.5641V191.587H93.8215V185.01L98.4236 186.049V189.856C98.4236 191.01 98.314 192.048 98.0949 192.856C97.8757 193.663 97.547 194.356 97.1087 194.817C96.6704 195.279 96.013 195.625 95.2459 195.856C94.4789 196.086 93.6023 196.202 92.5066 196.202H74.0981C73.0024 196.202 72.0162 196.086 71.3588 195.856C70.5918 195.625 70.0439 195.279 69.496 194.817C69.0577 194.356 68.729 193.663 68.5099 192.856C68.2907 192.048 68.1812 191.125 68.1812 189.856V173.703C68.1812 171.396 68.6194 169.78 69.496 168.857C70.3726 167.934 71.9067 167.473 74.0981 167.473H92.5066C94.6981 167.473 96.2321 167.934 97.1087 168.857C97.9853 169.78 98.4236 171.396 98.4236 173.703V176.934L93.8215 177.972Z" fill="#FFE74C"/>
<path d="M105.546 167.473H110.148V179.011H131.296V167.473H135.898V196.086H131.296V183.279H110.038V196.086H105.436V167.473H105.546Z" fill="#FFE74C"/>
<path d="M14.4886 213.277H20.4056L35.1981 241.891H29.9385L26.4322 234.853H8.24294L4.73656 241.891H0.0249023L14.4886 213.277ZM24.3503 230.584L17.3376 216.508L10.2153 230.584H24.3503Z" fill="#FFE74C"/>
<path d="M34.5435 213.277H39.4743L46.5966 235.084L54.2668 213.277H57.9923L65.4433 235.084L72.5656 213.277H76.839L66.9774 241.891H63.2518L55.6912 220.315L48.1306 241.891H44.2955L34.5435 213.277Z" fill="#FFE74C"/>
<path d="M90.6439 213.277H96.5609L111.353 241.891H106.094L102.587 234.853H84.3982L80.8918 241.891H76.1802L90.6439 213.277ZM100.506 230.584L93.6024 216.623L86.4801 230.699H100.506V230.584Z" fill="#FFE74C"/>
<path d="M114.53 241.891V213.277H136.007C136.993 213.277 137.869 213.277 138.417 213.393C138.965 213.508 139.513 213.739 140.061 214.085C140.828 214.546 141.376 215.123 141.595 215.931C141.924 216.739 142.033 217.892 142.033 219.508V224.7C142.033 225.738 142.033 226.43 141.924 227.007C141.814 227.584 141.705 228.046 141.485 228.507C141.047 229.43 140.499 230.122 139.623 230.469C138.746 230.815 137.541 231.045 135.897 231.045H133.377L144.444 241.775H137.979L127.35 231.045H118.913V241.775H114.53V241.891ZM134.473 226.892C135.678 226.892 136.445 226.661 136.883 226.2C137.322 225.738 137.541 224.93 137.541 223.661V221.008C137.541 219.738 137.322 218.931 136.883 218.469C136.445 218.008 135.678 217.777 134.473 217.777H119.023V226.892H134.473Z" fill="#FFE74C"/>
<path d="M149.487 213.277H168.115C170.087 213.277 171.621 213.393 172.717 213.623C173.922 213.854 174.909 214.316 175.785 214.893C177.21 215.816 178.196 217.085 178.853 218.815C179.511 220.546 179.839 222.738 179.839 225.507V229.545C179.839 231.161 179.73 232.545 179.62 233.699C179.511 234.853 179.072 235.891 178.634 236.814C177.977 238.199 177.1 239.352 175.895 240.16C175.018 240.737 174.032 241.199 172.827 241.429C171.621 241.66 170.087 241.775 168.225 241.775H149.597V213.277H149.487ZM168.115 237.391C169.32 237.391 170.197 237.276 170.854 237.16C171.512 237.045 172.169 236.814 172.717 236.353C173.484 235.776 174.142 234.968 174.47 234.045C174.799 233.007 175.018 231.738 175.018 230.007V225.046C175.018 224.123 175.018 223.315 174.909 222.623C174.799 221.931 174.58 221.354 174.361 220.777C173.922 219.738 173.155 218.931 172.279 218.469C171.293 218.008 169.978 217.777 168.225 217.777H154.199V237.391H168.115Z" fill="#FFE74C"/>
<path d="M209.53 221.123V217.777H190.903V225.046H208.654C209.75 225.046 210.626 225.161 211.393 225.392C212.16 225.623 212.818 225.969 213.256 226.43C213.694 226.892 214.023 227.584 214.242 228.392C214.461 229.199 214.571 230.122 214.571 231.392V235.545C214.571 236.699 214.461 237.737 214.242 238.545C214.023 239.353 213.694 240.045 213.256 240.506C212.818 240.968 212.16 241.314 211.393 241.545C210.626 241.775 209.75 241.891 208.654 241.891H191.67C190.574 241.891 189.588 241.775 188.931 241.545C188.164 241.314 187.616 240.968 187.068 240.506C186.629 240.045 186.301 239.353 186.082 238.545C185.862 237.737 185.753 236.814 185.753 235.545V234.276L190.245 233.238V237.276H210.188V229.199H192.437C190.245 229.199 188.711 228.738 187.835 227.815C186.958 226.892 186.52 225.277 186.52 222.969V219.508C186.52 217.2 186.958 215.585 187.835 214.662C188.711 213.739 190.245 213.277 192.437 213.277H208.216C209.311 213.277 210.297 213.393 211.064 213.623C211.831 213.854 212.489 214.2 212.927 214.662C213.365 215.123 213.694 215.816 213.913 216.623C214.132 217.431 214.242 218.469 214.242 219.508V220.085L209.53 221.123Z" fill="#FFE74C"/>
<path d="M3.97217 285.157C3.97217 284.35 3.97217 283.773 4.08175 283.427C4.19132 283.08 4.3009 282.619 4.62962 282.273C5.17749 281.465 6.05408 280.773 7.04024 280.081L25.4487 268.081V263.466H9.45087V269.466L5.17749 268.428V264.736C5.17749 263.813 5.17748 263.236 5.28705 262.659C5.39663 262.197 5.5062 261.736 5.61578 261.39C5.9445 260.582 6.49237 260.005 7.25939 259.659C8.02641 259.313 9.12215 259.198 10.5466 259.198H24.2434C25.1199 259.198 25.887 259.198 26.4348 259.313C26.9827 259.428 27.421 259.659 27.8593 259.89C28.5167 260.236 28.955 260.813 29.2838 261.505C29.5029 262.197 29.6125 263.236 29.6125 264.736V266.582C29.6125 267.966 29.5029 269.004 29.1742 269.581C28.955 269.928 28.6263 270.389 28.188 270.851C27.6402 271.312 27.0923 271.774 26.3253 272.35L9.45087 283.427H26.8731V278.811L31.2561 279.85C31.2561 281.119 31.1465 282.157 31.1465 282.85C31.1465 283.542 31.037 284.119 30.9274 284.58C30.8178 285.157 30.5986 285.734 30.2699 286.08C29.9412 286.426 29.6125 286.772 29.0646 287.003C28.5168 287.234 27.8593 287.465 26.9827 287.465C26.1061 287.58 25.1199 287.58 23.9146 287.58H3.97217V285.157Z" fill="#FFE74C"/>
<path d="M43.7459 287.695C41.664 287.695 40.13 287.234 39.2534 286.311C38.3768 285.388 37.9385 283.888 37.9385 281.696V265.197C37.9385 263.005 38.3768 261.39 39.2534 260.467C40.13 259.544 41.5544 259.082 43.7459 259.082H61.1682C63.2501 259.082 64.7841 259.544 65.5511 260.467C66.4277 261.39 66.866 262.889 66.866 265.197V281.696C66.866 283.888 66.4277 285.503 65.5511 286.311C64.6745 287.234 63.2501 287.695 61.1682 287.695H43.7459ZM62.5926 283.426V263.351H42.3214V283.426H62.5926Z" fill="#FFE74C"/>
<path d="M73.4385 285.157C73.4385 284.35 73.4385 283.773 73.548 283.427C73.6576 283.08 73.7672 282.619 74.0959 282.273C74.6438 281.465 75.5204 280.773 76.5065 280.081L94.9149 268.081V263.466H78.9172V269.466L74.6438 268.428V264.736C74.6438 263.813 74.6438 263.236 74.7534 262.659C74.8629 262.197 74.9725 261.736 75.0821 261.39C75.4108 260.582 75.9587 260.005 76.7257 259.659C77.4927 259.313 78.5884 259.198 80.0129 259.198H93.7096C94.5862 259.198 95.3532 259.198 95.9011 259.313C96.449 259.428 96.8873 259.659 97.3256 259.89C97.983 260.236 98.4213 260.813 98.75 261.505C98.9692 262.197 99.0787 263.236 99.0787 264.736V266.582C99.0787 267.966 98.9692 269.004 98.6405 269.581C98.4213 269.928 98.0926 270.389 97.6543 270.851C97.1064 271.312 96.5585 271.774 95.7915 272.35L78.9172 283.427H96.3394V278.811L100.722 279.85C100.722 281.119 100.613 282.157 100.613 282.85C100.613 283.542 100.503 284.119 100.394 284.58C100.284 285.157 100.065 285.734 99.7362 286.08C99.4075 286.426 99.0787 286.772 98.5309 287.003C97.983 287.234 97.3256 287.465 96.449 287.465C95.5724 287.58 94.5862 287.58 93.3809 287.58H73.4385V285.157Z" fill="#FFE74C"/>
<path d="M113.214 287.695C111.132 287.695 109.598 287.234 108.722 286.311C107.845 285.388 107.407 283.888 107.407 281.696V265.197C107.407 263.005 107.845 261.39 108.722 260.467C109.598 259.544 111.023 259.082 113.214 259.082H130.636C132.718 259.082 134.252 259.544 135.019 260.467C135.896 261.39 136.334 262.889 136.334 265.197V281.696C136.334 283.888 135.896 285.503 135.019 286.311C134.143 287.234 132.718 287.695 130.636 287.695H113.214ZM132.061 283.426V263.351H111.79V283.426H132.061Z" fill="#FFE74C"/>
</svg>
