<svg width="298" height="118" viewBox="0 0 298 118" fill="none" xmlns="http://www.w3.org/2000/svg">
<path d="M28.4589 27.016L70.5747 9.36117L69.021 8.78637C57.3267 4.68059 47.7586 1.39597 46.9408 1.14962C46.4502 0.903276 43.7515 -0.574803 40.8075 0.164236C38.763 0.65693 37.1274 2.13501 35.9008 4.43424C34.1834 7.63675 27.3958 20.8573 23.4705 28.412L22.3256 30.6291L24.37 29.2331C25.6785 28.412 26.9869 27.6729 28.4589 27.016ZM36.9639 5.09117C38.027 3.12039 39.4172 1.88866 41.0528 1.47808C41.5435 1.31385 42.0341 1.31385 42.5248 1.31385C44.5693 1.31385 46.2866 2.29924 46.2866 2.38136L46.4502 2.46347C46.4502 2.46347 55.5275 5.58386 67.0583 9.60752L28.7043 25.5379L27.9683 25.8664C27.1505 26.1949 26.4145 26.6054 25.6785 27.0981C31.6483 15.2735 35.7372 7.30829 36.9639 5.09117Z" fill="#FFE74C"/>
<path d="M59.8617 103.548C79.4885 110.117 97.2344 116.111 98.4611 116.44C98.87 116.686 101.16 118 103.613 118C104.513 118 105.494 117.836 106.312 117.425C108.683 116.276 110.074 113.402 110.401 109.049C110.728 105.436 111.546 98.3744 113.018 86.1392L113.099 85.1538L58.0626 102.973L59.8617 103.548ZM111.791 86.9604C110.319 98.6208 109.583 105.436 109.256 108.967C108.929 112.909 107.784 115.372 105.821 116.358C102.959 117.836 99.1153 115.454 99.0335 115.454L98.87 115.372C98.87 115.372 81.6148 109.624 61.988 103.055L111.791 86.9604Z" fill="#FFE74C"/>
<path d="M113.427 24.8809C111.055 23.8134 103.041 20.8573 89.0567 15.8482L88.8113 15.7661L40.971 34.9811C40.8075 35.0633 40.0715 35.3917 39.8261 35.6381C38.027 37.1983 37.291 38.9227 37.8635 40.4008C38.027 40.9756 38.2723 41.4683 38.5177 41.961C39.1719 43.1106 39.7444 43.7675 40.1532 44.3423C40.3986 44.6708 40.7257 44.9171 41.1346 45.0814C41.4617 45.2456 41.9524 45.4098 42.6066 45.4919C42.6066 45.4919 42.9337 45.4919 43.2608 45.4919C43.5879 45.4919 43.9151 45.4919 44.1604 45.4098C44.8964 45.3277 45.6324 45.1635 46.3684 44.835C48.2493 44.2602 50.2938 43.5212 52.6653 42.6179L69.8388 35.8844C73.2735 34.5706 77.117 33.3388 81.2059 32.4356C85.622 31.3681 90.2015 30.8754 95.0265 30.9575C98.0523 30.9575 100.996 31.3681 103.777 32.025C106.557 32.6819 109.256 33.5852 111.709 34.7348C113.999 35.7202 116.125 36.8698 118.17 38.1837L118.988 38.7585L119.315 36.0487C119.56 36.1308 121.196 28.4119 113.427 24.8809ZM118.333 35.9665L118.252 36.7877C116.371 35.6381 114.408 34.6527 112.363 33.7494C109.828 32.5998 107.048 31.6965 104.186 31.0396C101.242 30.3006 98.2158 29.9721 95.1082 29.89C90.2833 29.8079 85.5402 30.3827 81.0424 31.4502C76.9535 32.4356 73.0281 33.5852 69.5117 34.9811L52.3382 41.7146C49.9666 42.6179 47.9222 43.3569 46.1231 43.9317C45.3871 44.1781 44.7328 44.3423 44.0786 44.4244C43.6697 44.5065 42.9337 44.4244 42.7702 44.4244C42.2795 44.3423 41.9524 44.2602 41.707 44.096C41.4617 44.0139 41.2981 43.8496 41.1346 43.6854C40.7257 43.1927 40.235 42.5358 39.5808 41.4683C39.3355 41.0577 39.1719 40.6471 39.0084 40.1544C38.6812 39.169 39.2537 37.9373 40.6439 36.7877C40.7257 36.7056 41.1346 36.4592 41.5435 36.295L88.8931 17.3263C102.714 22.2532 110.564 25.1273 112.936 26.1948C119.724 29.1509 118.415 35.6381 118.333 35.9665Z" fill="#FFE74C"/>
<path d="M91.7553 65.6923C92.2459 65.5281 92.7366 65.1996 93.0637 64.8712C93.4726 64.5427 93.7179 64.05 93.9633 63.3931C94.5357 61.6687 94.6175 60.5191 94.5357 59.8621V59.6979C94.5357 58.9589 94.3722 58.3019 93.9633 57.7271C93.5544 56.9881 92.9819 56.3312 92.4913 55.5921C92.2459 55.2637 91.9188 54.9352 91.6735 54.6067C91.0192 53.9498 90.365 53.2108 89.4655 52.4717C89.0566 52.0612 88.5659 51.8148 88.0752 51.5685C87.5028 51.3221 86.8486 51.0758 86.1126 50.9937H85.949C85.0494 50.8294 83.5774 50.8294 81.2876 51.3221C79.0796 51.8148 76.6263 52.5539 73.8458 53.5392L54.7915 60.5191C51.275 61.8329 47.3497 62.9004 43.0972 63.8037C38.7629 64.707 34.5922 64.9533 30.6669 64.5427C28.2953 64.2143 26.1691 63.6395 24.37 62.7362C22.6526 61.915 21.0988 60.8475 19.7086 59.6979C18.4001 58.5483 17.2552 57.3166 16.4375 56.0027C15.7832 55.0173 15.2108 54.1141 14.8019 53.0465C14.6383 52.7181 14.5566 52.3896 14.393 52.0612L13.8206 50.501C13.7388 50.3367 13.7388 50.1725 13.657 50.0083L13.2481 48.366L1.47204 71.4404C1.39026 71.6047 -0.899529 75.2999 0.327145 79.2414C1.22671 81.9512 3.59828 84.0862 7.36008 85.5643C9.48631 86.3855 14.3112 88.1099 22.3255 90.9018L22.5708 90.9839L91.4281 65.9387L91.7553 65.6923ZM22.5708 89.588C14.8019 86.8781 9.97698 85.2358 7.85075 84.4147C4.49784 83.1008 2.3716 81.2122 1.55382 78.9129C0.408923 75.5462 2.53516 72.1795 2.53516 72.0974L12.921 51.7327L13.2481 52.4717C13.4117 52.8002 13.4934 53.1287 13.657 53.5392C14.1477 54.6067 14.7201 55.6742 15.3743 56.6596C16.2739 58.0556 17.5006 59.3694 18.8908 60.6012C20.281 61.8329 21.9984 62.9004 23.7975 63.8037C25.7602 64.7891 27.9682 65.446 30.5851 65.7745C34.674 66.2671 39.0083 66.0208 43.4243 65.0354C47.6768 64.1321 51.6839 62.9825 55.2821 61.6687L74.3365 54.6067C76.9534 53.6214 79.4067 52.8823 81.533 52.4717C83.741 51.979 85.1312 52.0612 85.7037 52.1433H85.8672C86.5214 52.3075 87.0939 52.4717 87.5846 52.636C88.0752 52.8002 88.4024 53.0466 88.6477 53.2929C89.4655 54.0319 90.1197 54.6889 90.7739 55.3458C91.0193 55.6742 91.3464 55.9206 91.5917 56.2491C92.1641 56.906 92.573 57.5629 92.9819 58.2198C93.2273 58.6304 93.309 59.1231 93.3908 59.78C93.3908 60.1906 93.3908 61.2581 92.9002 62.9004C92.7366 63.311 92.573 63.5573 92.4095 63.8037C92.1641 64.05 91.9188 64.2143 91.5099 64.3785L22.5708 89.588Z" fill="#FFE74C"/>
<path d="M114.408 40.6471C112.609 39.3333 110.564 38.1837 108.356 37.1983C106.23 36.2129 104.022 35.3918 101.65 34.8169C99.5242 34.2421 97.2344 33.9137 94.8629 33.9137C90.6922 33.8316 86.685 34.2421 82.7597 35.1454C78.9161 36.0487 75.3178 37.1162 72.1285 38.3479L54.5462 45.1635C52.011 46.1489 49.803 46.8879 47.7586 47.5449C46.5319 47.9554 45.387 48.2018 44.4057 48.2839C43.2608 48.4481 42.1976 48.4481 41.2163 48.2839C40.235 48.1197 39.3354 47.7912 38.5994 47.4627C37.8634 47.1343 37.2909 46.6416 36.8003 46.0668C36.3096 45.492 35.9007 44.835 35.4918 44.1781C35.3283 43.9318 35.1647 43.6854 35.0829 43.4391C34.7558 42.8643 34.5105 42.2895 34.3469 41.7146C34.1016 41.0577 34.1016 40.3187 34.3469 39.4154C34.5923 38.5943 35.0012 37.6089 35.8189 36.4593C36.2278 35.8844 36.7185 35.3096 37.2909 34.8169C37.8634 34.3243 38.5994 33.9137 39.3354 33.5852L84.2317 14.5344L73.1916 10.2644L30.0945 28.1656L29.522 28.4119C27.8864 29.151 26.3327 30.1364 24.8606 31.286C23.0615 32.6819 21.6713 33.9958 20.6082 35.1454C20.0357 35.8023 19.5451 36.3771 19.0544 37.0341L16.8464 41.3862C16.1921 43.4391 16.1921 45.5741 16.7646 47.7912V47.9554C16.7646 48.4481 16.8464 48.8587 17.0099 49.2693L17.6642 50.9937C17.7459 51.2401 17.9095 51.4864 17.9913 51.7327C18.4002 52.5539 18.8908 53.4572 19.5451 54.3604C20.3628 55.5101 21.426 56.5776 22.5709 57.5629C23.7975 58.5483 25.106 59.4516 26.6598 60.1085C28.1318 60.7654 29.7673 61.2581 31.73 61.5045C35.0829 61.833 38.5994 61.5866 42.1976 60.7655C46.0412 59.9443 49.6395 58.8768 52.747 57.7272L71.3107 50.7474C74.2547 49.6799 76.8716 48.8587 79.5703 48.2839C82.3508 47.7091 84.8041 47.5449 87.0121 47.8733H87.1757C88.4841 48.1197 89.7926 48.4481 90.8557 48.9408C92.0006 49.4335 93.0637 50.0904 93.8815 50.7474C94.8629 51.6506 95.7624 52.3897 96.4984 53.2108C96.8255 53.5393 97.1526 53.9499 97.4798 54.2783C98.2158 55.0995 98.87 55.9206 99.3607 56.8239C100.015 57.8093 100.342 58.8768 100.424 60.1906C100.506 61.5045 100.342 62.9005 99.8513 64.707C99.5242 65.6924 99.0335 66.5135 98.2975 67.3347C97.5615 68.0737 96.4984 68.7307 95.2717 69.2234L28.05 92.8726L49.6395 100.099L113.018 79.1593L113.835 78.8309L113.917 78.4203C115.144 68.7307 116.616 57.2345 118.333 44.096V43.6854L118.006 43.5212C117.107 42.6179 115.798 41.6325 114.408 40.6471Z" fill="#FFE74C"/>
<path d="M151.699 40.0723H148.264V22.9923H139.023V19.7898H160.94V22.9923H151.699V40.0723Z" fill="#FFE74C"/>
<path d="M164.456 19.7898H183.919V22.9923H167.891V28.3298H177.786V31.286H167.891V36.9519H184.165V40.1544H164.538V19.7898H164.456Z" fill="#FFE74C"/>
<path d="M207.88 27.2623V22.9923H192.015V36.9519H207.88V32.2714L211.315 33.0104V35.7202C211.315 36.5414 211.233 37.2804 211.07 37.8552C210.906 38.43 210.661 38.9227 210.334 39.2512C210.007 39.5796 209.516 39.826 208.943 39.9902C208.371 40.1544 207.717 40.2366 206.899 40.2366H193.16C192.342 40.2366 191.606 40.1544 191.116 39.9902C190.543 39.826 190.134 39.5796 189.726 39.2512C189.398 38.9227 189.153 38.43 188.99 37.8552C188.826 37.2804 188.744 36.6235 188.744 35.7202V24.224C188.744 22.5817 189.071 21.4321 189.726 20.7752C190.38 20.1183 191.525 19.7898 193.16 19.7898H206.899C208.535 19.7898 209.679 20.1183 210.334 20.7752C210.988 21.4321 211.315 22.5817 211.315 24.224V26.5233L207.88 27.2623Z" fill="#FFE74C"/>
<path d="M216.631 19.7898H220.065V28.0013H235.849V19.7898H239.283V40.1544H235.849V31.0396H219.984V40.1544H216.549V19.7898H216.631Z" fill="#FFE74C"/>
<path d="M148.673 52.3896H153.089L164.129 72.7543H160.204L157.587 67.7452H144.012L141.395 72.7543H137.878L148.673 52.3896ZM156.033 64.707L150.799 54.6889L145.484 64.707H156.033Z" fill="#FFE74C"/>
<path d="M163.638 52.3896H167.318L172.634 67.9095L178.358 52.3896H181.139L186.7 67.9095L192.015 52.3896H195.205L187.845 72.7543H185.064L179.422 57.3987L173.779 72.7543H170.917L163.638 52.3896Z" fill="#FFE74C"/>
<path d="M205.509 52.3896H209.925L220.965 72.7543H217.04L214.423 67.7452H200.847L198.231 72.7543H194.714L205.509 52.3896ZM212.869 64.707L207.717 54.771L202.401 64.7891H212.869V64.707Z" fill="#FFE74C"/>
<path d="M223.336 72.7543V52.3896H239.365C240.101 52.3896 240.755 52.3897 241.164 52.4718C241.573 52.5539 241.982 52.7181 242.391 52.9645C242.963 53.2929 243.372 53.7035 243.536 54.2783C243.781 54.8531 243.863 55.6743 243.863 56.8239V60.5191C243.863 61.2581 243.863 61.7508 243.781 62.1614C243.699 62.572 243.617 62.9004 243.454 63.2289C243.127 63.8858 242.718 64.3785 242.064 64.6249C241.409 64.8712 240.51 65.0354 239.283 65.0354H237.402L245.662 72.6722H240.837L232.904 65.0354H226.608V72.6722H223.336V72.7543ZM238.22 62.0793C239.12 62.0793 239.692 61.915 240.019 61.5866C240.346 61.2581 240.51 60.6833 240.51 59.78V57.8914C240.51 56.9881 240.346 56.4133 240.019 56.0848C239.692 55.7564 239.12 55.5922 238.22 55.5922H226.689V62.0793H238.22Z" fill="#FFE74C"/>
<path d="M249.424 52.3896H263.326C264.798 52.3896 265.943 52.4718 266.761 52.636C267.66 52.8002 268.396 53.1287 269.051 53.5393C270.114 54.1962 270.85 55.0995 271.34 56.3312C271.831 57.5629 272.076 59.1231 272.076 61.0939V63.9679C272.076 65.1175 271.995 66.1029 271.913 66.9241C271.831 67.7452 271.504 68.4843 271.177 69.1412C270.686 70.1266 270.032 70.9477 269.132 71.5226C268.478 71.9331 267.742 72.2616 266.843 72.4258C265.943 72.5901 264.798 72.6722 263.408 72.6722H249.505V52.3896H249.424ZM263.326 69.5518C264.226 69.5518 264.88 69.4697 265.37 69.3876C265.861 69.3054 266.352 69.1412 266.761 68.8127C267.333 68.4022 267.824 67.8274 268.069 67.1704C268.315 66.4314 268.478 65.5281 268.478 64.2964V60.7654C268.478 60.1085 268.478 59.5337 268.396 59.041C268.315 58.5483 268.151 58.1377 267.987 57.7272C267.66 56.9881 267.088 56.4133 266.434 56.0848C265.698 55.7564 264.716 55.5921 263.408 55.5921H252.94V69.5518H263.326Z" fill="#FFE74C"/>
<path d="M294.238 57.9735V55.5922H280.336V60.7654H293.584C294.402 60.7654 295.056 60.8475 295.629 61.0118C296.201 61.176 296.692 61.4224 297.019 61.7508C297.346 62.0793 297.591 62.572 297.755 63.1468C297.918 63.7216 298 64.3785 298 65.2818V68.2379C298 69.0591 297.918 69.7981 297.755 70.3729C297.591 70.9478 297.346 71.4404 297.019 71.7689C296.692 72.0974 296.201 72.3437 295.629 72.5079C295.056 72.6722 294.402 72.7543 293.584 72.7543H280.908C280.091 72.7543 279.355 72.6722 278.864 72.5079C278.292 72.3437 277.883 72.0974 277.474 71.7689C277.147 71.4404 276.901 70.9478 276.738 70.3729C276.574 69.7981 276.492 69.1412 276.492 68.2379V67.3347L279.845 66.5956V69.4697H294.729V63.7216H281.481C279.845 63.7216 278.7 63.3931 278.046 62.7362C277.392 62.0793 277.065 60.9297 277.065 59.2873V56.8239C277.065 55.1816 277.392 54.032 278.046 53.375C278.7 52.7181 279.845 52.3896 281.481 52.3896H293.257C294.075 52.3896 294.811 52.4718 295.383 52.636C295.956 52.8002 296.446 53.0466 296.773 53.375C297.101 53.7035 297.346 54.1962 297.509 54.771C297.673 55.3458 297.755 56.0848 297.755 56.8239V57.2345L294.238 57.9735Z" fill="#FFE74C"/>
<path d="M140.822 103.548C140.822 102.973 140.822 102.562 140.904 102.316C140.986 102.069 141.067 101.741 141.313 101.495C141.722 100.92 142.376 100.427 143.112 99.9344L156.851 91.3944V88.1098H144.911V92.3798L141.722 91.6408V89.0131C141.722 88.3562 141.722 87.9456 141.803 87.535C141.885 87.2065 141.967 86.8781 142.049 86.6317C142.294 86.0569 142.703 85.6463 143.275 85.4C143.848 85.1536 144.666 85.0715 145.729 85.0715H155.951C156.605 85.0715 157.178 85.0715 157.587 85.1536C157.996 85.2358 158.323 85.4 158.65 85.5642C159.14 85.8106 159.468 86.2212 159.713 86.7138C159.876 87.2065 159.958 87.9456 159.958 89.0131V90.3269C159.958 91.3123 159.876 92.0513 159.631 92.4619C159.468 92.7083 159.222 93.0367 158.895 93.3652C158.486 93.6937 158.077 94.0221 157.505 94.4327L144.911 102.316H157.914V99.0312L161.185 99.7702C161.185 100.673 161.103 101.413 161.103 101.905C161.103 102.398 161.021 102.808 160.94 103.137C160.858 103.548 160.694 103.958 160.449 104.204C160.204 104.451 159.958 104.697 159.549 104.861C159.14 105.026 158.65 105.19 157.996 105.19C157.341 105.272 156.605 105.272 155.706 105.272H140.822V103.548Z" fill="#FFE74C"/>
<path d="M170.508 105.354C168.954 105.354 167.809 105.026 167.155 104.369C166.5 103.712 166.173 102.644 166.173 101.084V89.3416C166.173 87.7814 166.5 86.6318 167.155 85.9749C167.809 85.318 168.872 84.9895 170.508 84.9895H183.51C185.064 84.9895 186.209 85.318 186.781 85.9749C187.436 86.6318 187.763 87.6993 187.763 89.3416V101.084C187.763 102.644 187.436 103.794 186.781 104.369C186.127 105.026 185.064 105.354 183.51 105.354H170.508ZM184.573 102.316V88.0278H169.444V102.316H184.573Z" fill="#FFE74C"/>
<path d="M192.67 103.548C192.67 102.973 192.67 102.562 192.751 102.316C192.833 102.069 192.915 101.741 193.16 101.495C193.569 100.92 194.223 100.427 194.959 99.9344L208.698 91.3944V88.1098H196.758V92.3798L193.569 91.6408V89.0131C193.569 88.3562 193.569 87.9456 193.651 87.535C193.733 87.2065 193.814 86.8781 193.896 86.6317C194.142 86.0569 194.55 85.6463 195.123 85.4C195.695 85.1536 196.513 85.0715 197.576 85.0715H207.799C208.453 85.0715 209.025 85.0715 209.434 85.1536C209.843 85.2358 210.17 85.4 210.497 85.5642C210.988 85.8106 211.315 86.2212 211.56 86.7138C211.724 87.2065 211.806 87.9456 211.806 89.0131V90.3269C211.806 91.3123 211.724 92.0513 211.479 92.4619C211.315 92.7083 211.07 93.0367 210.743 93.3652C210.334 93.6937 209.925 94.0221 209.352 94.4327L196.758 102.316H209.761V99.0312L213.032 99.7702C213.032 100.673 212.951 101.413 212.951 101.905C212.951 102.398 212.869 102.808 212.787 103.137C212.705 103.548 212.542 103.958 212.296 104.204C212.051 104.451 211.806 104.697 211.397 104.861C210.988 105.026 210.497 105.19 209.843 105.19C209.189 105.272 208.453 105.272 207.553 105.272H192.67V103.548Z" fill="#FFE74C"/>
<path d="M222.355 105.354C220.801 105.354 219.656 105.026 219.002 104.369C218.348 103.712 218.021 102.644 218.021 101.084V89.3416C218.021 87.7814 218.348 86.6318 219.002 85.9749C219.656 85.318 220.72 84.9895 222.355 84.9895H235.358C236.912 84.9895 238.057 85.318 238.629 85.9749C239.283 86.6318 239.61 87.6993 239.61 89.3416V101.084C239.61 102.644 239.283 103.794 238.629 104.369C237.975 105.026 236.912 105.354 235.358 105.354H222.355ZM236.421 102.316V88.0278H221.292V102.316H236.421Z" fill="#FFE74C"/>
</svg>
