<svg width="185" height="74" viewBox="0 0 185 74" fill="none" xmlns="http://www.w3.org/2000/svg">
<path d="M14.3279 19.4751L15.0346 18.1092C17.4577 13.4551 21.6477 5.31022 22.7078 3.33725C23.465 1.92076 24.4746 1.01015 25.7366 0.70662C27.554 0.251319 29.2198 1.11133 29.5227 1.31369C30.078 1.51604 35.9843 3.5396 43.1527 6.01847L44.1118 6.37259L18.114 17.1986C17.2558 17.6033 16.4481 18.0587 15.5899 18.6151L14.3279 19.4751ZM26.7967 1.31369C26.4939 1.31369 26.191 1.36428 25.8881 1.41487C24.8785 1.66781 24.0203 2.42665 23.364 3.64078C22.6573 5.00669 20.0827 9.91382 16.3471 17.148C16.8015 16.8951 17.3063 16.6422 17.7606 16.3892L18.2149 16.1869L41.8906 6.322C34.8233 3.94432 29.1694 2.02193 29.1694 2.02193L29.0684 1.97134C29.0684 1.97134 28.0588 1.31369 26.7967 1.31369Z" fill="#FFE74C"/>
<path d="M64.5566 73.2512C62.9917 73.2512 61.6287 72.4418 61.3763 72.29C60.6191 72.0371 49.6647 68.3947 37.5492 64.3476L36.4386 63.9934L70.5134 53.0156L70.4629 53.6227C69.5038 61.1605 69.0495 65.5111 68.8475 67.737C68.5951 70.4182 67.737 72.1889 66.3235 72.8971C65.6672 73.1501 65.1119 73.2512 64.5566 73.2512ZM38.8617 63.9934C50.9772 68.0406 61.6287 71.5818 61.6287 71.5818L61.7297 71.6324C61.7297 71.6324 64.1023 73.0995 65.9196 72.1889C67.1312 71.5818 67.8379 70.0641 68.0398 67.6359C68.2418 65.4605 68.6961 61.3122 69.6048 54.078L38.8617 63.9934Z" fill="#FFE74C"/>
<path d="M27.3014 28.6824C27.0995 28.6824 26.8975 28.6824 26.8975 28.6824C26.4937 28.6318 26.2413 28.5306 25.9889 28.4294C25.7365 28.3282 25.5346 28.1765 25.3831 27.9741C25.0802 27.62 24.7773 27.2153 24.3735 26.507C24.222 26.2541 24.0706 25.9506 23.9696 25.5458C23.6163 24.6352 24.0706 23.5729 25.1812 22.6117C25.3831 22.4599 25.787 22.2576 25.8879 22.207L55.4194 10.3691L55.5709 10.4197C64.2032 13.5057 69.1503 15.2763 70.6143 15.9845C75.41 18.1598 74.4004 22.8646 74.4004 22.9152L74.1984 24.5847L73.6936 24.2305C72.4316 23.4211 71.0686 22.7129 69.7056 22.1058C68.1407 21.4481 66.5253 20.8917 64.8089 20.4364C63.0926 20.0316 61.2752 19.7787 59.4074 19.7787C56.429 19.7281 53.5516 20.0316 50.8761 20.6893C48.3521 21.2964 46.0299 22.0046 43.8592 22.814L33.2582 26.9623C31.7942 27.5188 30.4817 27.9741 29.3711 28.3282C28.9168 28.48 28.412 28.5812 28.0081 28.6824C27.6548 28.6824 27.4528 28.6824 27.3014 28.6824ZM26.1403 22.814C25.9384 22.9152 25.686 23.067 25.585 23.1176C24.7269 23.8764 24.3735 24.6352 24.5754 25.1917C24.6764 25.5458 24.8278 25.7988 24.9288 26.0011C25.3326 26.6588 25.6355 27.0635 25.8879 27.367C25.9889 27.4682 26.0898 27.5694 26.2413 27.62C26.3927 27.7212 26.5947 27.7718 26.8975 27.8223C26.9985 27.8223 27.4528 27.8223 27.7052 27.8223C28.1091 27.7718 28.5129 27.6706 28.9673 27.5188C30.0779 27.1647 31.3399 26.7094 32.8038 26.1529L43.4049 22.0046C45.5756 21.1446 47.9482 20.4364 50.5227 19.8293C53.2992 19.1716 56.2271 18.8681 59.2055 18.8681C61.1743 18.8681 63.0421 19.121 64.8089 19.5763C66.5758 20.0316 68.2416 20.5881 69.857 21.2458C71.1191 21.8023 72.3306 22.4093 73.4917 23.1176L73.5422 22.6117C73.5927 22.4093 74.4004 18.4128 70.2104 16.541C68.7465 15.8833 63.9003 14.1127 55.3689 11.0774L26.1403 22.814Z" fill="#FFE74C"/>
<path d="M14.4791 56.5567L14.3276 56.5061C9.38048 54.7861 6.45257 53.7743 5.08958 53.2178C2.76744 52.3072 1.30349 50.9919 0.748195 49.3225C-0.0595043 46.8942 1.35397 44.6177 1.45493 44.5165L8.72423 30.301L8.97663 31.3128C9.02711 31.414 9.02711 31.5152 9.07759 31.6163L9.43096 32.5775C9.48144 32.7799 9.58241 32.9822 9.68337 33.1846C9.98625 33.7917 10.2891 34.3987 10.693 35.0058C11.2483 35.8152 11.9045 36.5741 12.7122 37.2823C13.5199 37.9906 14.4791 38.6482 15.5897 39.1541C16.7003 39.7106 18.0128 40.0647 19.4767 40.2671C21.9503 40.52 24.5248 40.4188 27.1499 39.8118C29.7244 39.2553 32.1475 38.5976 34.3687 37.7882L46.1308 33.4375C47.7967 32.8305 49.3616 32.3752 50.7246 32.0716C52.1381 31.7681 53.0467 31.8187 53.602 31.8693H53.703C54.1573 31.9705 54.5612 32.0716 54.9145 32.2234C55.2679 32.3752 55.5203 32.5269 55.7727 32.7799C56.2775 33.2352 56.7318 33.6905 57.1357 34.0952C57.3376 34.2976 57.4891 34.4999 57.6405 34.7023C57.9939 35.107 58.2968 35.5623 58.5492 36.0176C58.7511 36.3717 58.8521 36.7764 58.9025 37.2317V37.3329C58.953 37.7376 58.9025 38.4459 58.5492 39.5082C58.3977 39.9129 58.2463 40.1659 57.9939 40.4188C57.7415 40.6212 57.4891 40.8235 57.1862 40.9247L56.9843 40.9753L14.4791 56.5567ZM8.5223 32.4258L2.16167 44.9212C2.11119 44.9718 0.849157 47.046 1.55589 49.1201C2.01022 50.5366 3.32274 51.7002 5.44295 52.5096C6.75546 53.0155 9.73385 54.0779 14.5296 55.6967L56.9843 40.3176C57.2367 40.2165 57.3881 40.1153 57.5395 39.9635C57.691 39.8118 57.792 39.66 57.8424 39.407C58.1958 38.3953 58.1958 37.7882 58.1453 37.4847C58.1453 37.08 58.0444 36.7764 57.8929 36.5235C57.6405 36.1188 57.3376 35.714 57.0347 35.3093C56.8833 35.107 56.7318 34.9552 56.5299 34.7529C56.1766 34.3481 55.7222 33.9434 55.2174 33.4881C55.0155 33.3364 54.8136 33.1846 54.5612 33.0834C54.2583 32.9317 53.9049 32.8305 53.501 32.7799H53.4001C53.0467 32.7293 52.1885 32.6787 50.8255 32.9822C49.513 33.2352 47.9986 33.6905 46.3832 34.2976L34.6211 38.6482C32.3999 39.4576 29.9263 40.1659 27.3013 40.7224C24.5753 41.2788 21.8998 41.4306 19.3758 41.1777C17.8108 40.9753 16.3974 40.5706 15.1858 39.9635C14.0752 39.407 13.0656 38.7494 12.1569 37.9906C11.2988 37.2317 10.592 36.4223 9.98625 35.5623C9.58241 34.9552 9.17856 34.2976 8.92615 33.6399C8.82519 33.4375 8.72422 33.1846 8.67374 32.9822L8.5223 32.4258Z" fill="#FFE74C"/>
<path fill-rule="evenodd" clip-rule="evenodd" d="M12.6114 23.6236L11.2989 26.2037C10.9456 27.3672 10.9456 28.632 11.2484 29.8967V29.9979V30.099C11.2484 30.352 11.2989 30.5543 11.3999 30.7567L11.8037 31.7179C11.8542 31.8697 11.9552 32.072 12.0561 32.2238C12.3085 32.7297 12.6114 33.2861 13.0153 33.792C13.5201 34.5003 14.1259 35.1074 14.8326 35.7144C15.5393 36.3215 16.347 36.8274 17.2557 37.2321C18.1139 37.6368 19.073 37.8897 20.2341 38.0415C22.2533 38.2439 24.3736 38.0921 26.5947 37.5862C28.9673 37.0803 31.138 36.4227 33.0563 35.7144L44.5156 31.4144C46.3329 30.7567 47.9988 30.2508 49.6142 29.8967H49.6646C51.3305 29.5426 52.8954 29.4414 54.4099 29.6437H54.4604H54.5108C55.369 29.7955 56.1767 29.9979 56.8835 30.3014C57.6407 30.6049 58.2969 31.0096 58.8522 31.4649C59.458 31.9708 59.9628 32.4767 60.4676 32.9826C60.6696 33.2356 60.8715 33.4379 61.0734 33.6909C61.5277 34.1968 61.9316 34.7532 62.285 35.3097C62.7393 36.018 62.9412 36.7262 62.9917 37.5356V37.5862C63.0927 38.4968 62.9412 39.4074 62.6383 40.4698V40.5204C62.4364 41.178 62.083 41.7345 61.5782 42.291C61.0734 42.7969 60.3667 43.2522 59.6094 43.5557L59.357 43.6569H59.3066L19.174 57.7712L31.34 61.8184L70.3619 48.9687L70.6648 48.8676C71.624 41.0769 72.7346 32.8309 73.3908 27.7214C72.6841 27.1143 71.8764 26.4566 71.0687 25.9002C69.9581 25.0907 68.6961 24.3825 67.3836 23.7754C66.071 23.1683 64.7585 22.713 63.3451 22.3589C62.0325 22.0048 60.6696 21.8024 59.2561 21.8024C56.6815 21.7519 54.2584 22.0048 51.9363 22.5107H51.8858C49.4627 23.0672 47.292 23.7248 45.3737 24.4837L34.3688 28.6825C32.9049 29.239 31.4914 29.7449 30.1789 30.1496H30.1284C29.4217 30.4026 28.6645 30.5543 27.9577 30.6555C27.251 30.7567 26.5947 30.7567 25.9385 30.6555H25.888H25.8375C25.1813 30.5543 24.626 30.352 24.1212 30.099C23.6163 29.8461 23.2125 29.492 22.9096 29.1379C22.6067 28.7331 22.3038 28.3284 22.0514 27.9237C21.9505 27.7214 21.8495 27.5696 21.7485 27.4178C21.5466 27.0637 21.3952 26.659 21.2942 26.3049C21.1428 25.799 21.1428 25.2931 21.2942 24.7366V24.686C21.4456 24.079 21.7485 23.4719 22.2533 22.7636V22.713C22.5058 22.3083 22.8591 21.9542 23.263 21.6507C23.6668 21.3471 24.1212 21.0436 24.626 20.7907L24.8279 20.6895L51.381 9.5599L45.6262 7.33398L19.275 18.2612L18.9216 18.413C17.9624 18.8683 17.0538 19.4248 16.1451 20.133C15.0345 20.993 14.1764 21.8024 13.5706 22.4601C13.2172 22.8648 12.9143 23.2695 12.6114 23.6236Z" fill="#FFE74C"/>
<path d="M31.2897 62.2734L17.9626 57.8216L59.4582 43.2519C60.2154 42.9484 60.8212 42.5437 61.326 42.0884C61.7803 41.6331 62.1337 41.0766 62.2851 40.4695C62.6385 39.3566 62.7395 38.4966 62.6385 37.6871C62.588 36.8777 62.3356 36.1695 61.9822 35.613C61.6289 35.0565 61.225 34.5506 60.8212 34.0447C60.6193 33.8424 60.4173 33.5894 60.2154 33.3871C59.7611 32.9318 59.2563 32.4259 58.6 31.8694C58.0952 31.4141 57.4894 31.06 56.7322 30.7564C56.0255 30.4529 55.2682 30.2505 54.4605 30.0988H54.3596C52.9966 29.8964 51.4822 29.9976 49.7658 30.3517C48.1504 30.7058 46.4845 31.2117 44.6672 31.8694L33.208 36.1695C31.2392 36.8777 29.0685 37.5354 26.6959 38.0412C24.4242 38.5471 22.2535 38.6989 20.2343 38.4966C19.0227 38.3448 18.0131 38.0918 17.1045 37.6365C16.1958 37.1812 15.3376 36.6753 14.5804 36.0683C13.8232 35.4612 13.2174 34.8036 12.7126 34.0953C12.3087 33.5388 12.0058 32.9823 11.7534 32.4765C11.703 32.3247 11.602 32.1729 11.5515 32.0212L11.0467 30.9082C10.9457 30.6553 10.8953 30.4023 10.8953 30.0988V29.9976C10.5419 28.6317 10.5419 27.367 10.9457 26.0517L12.3087 23.3704C12.6116 22.9657 12.9145 22.6116 13.2679 22.2069C13.9241 21.4986 14.8328 20.6892 15.8929 19.8292C16.8016 19.0704 17.7607 18.5139 18.7703 18.0586L19.1237 17.9068L45.7273 6.87842L52.5423 9.50905L24.8281 21.0939C24.3737 21.2963 23.9194 21.5998 23.566 21.8528C23.2127 22.1563 22.8593 22.4598 22.6574 22.8645C22.1526 23.6234 21.9002 24.1799 21.7487 24.6858C21.5973 25.2422 21.5973 25.6975 21.7487 26.1022C21.8497 26.4564 22.0011 26.8105 22.2031 27.1646C22.304 27.3164 22.3545 27.4681 22.4555 27.6199C22.7079 28.0246 22.9603 28.4293 23.2632 28.7835C23.5156 29.1376 23.9194 29.4411 24.3737 29.6435C24.8281 29.8964 25.3834 30.0482 25.9891 30.1494C26.5949 30.2505 27.2512 30.2505 27.9579 30.1494C28.6142 30.0482 29.3209 29.8964 30.0276 29.6941C31.2897 29.2894 32.6527 28.834 34.2176 28.227L45.071 24.0281C47.0398 23.2693 49.261 22.6116 51.6336 22.0551C54.1072 21.4986 56.5303 21.2457 59.1048 21.2963C60.6192 21.3469 61.9822 21.4986 63.2948 21.8528C64.7082 22.2069 66.1217 22.7128 67.4342 23.3198C68.7972 23.9269 70.0592 24.6352 71.1698 25.4446C72.028 26.0517 72.7852 26.6587 73.492 27.2658L73.6939 27.367V27.6199C72.6338 35.6636 71.7251 42.7966 70.9679 48.7661L70.9174 49.0191L70.4126 49.2214L31.2897 62.2734ZM20.3352 57.771L31.2897 61.4134L70.2107 48.6144C70.9679 42.746 71.8261 35.8153 72.8862 27.9234C72.2299 27.367 71.5232 26.8105 70.7155 26.2034C69.6049 25.4446 68.3934 24.7363 67.0808 24.1293C65.8188 23.5728 64.4558 23.0669 63.0928 22.7128C61.8308 22.3587 60.5183 22.2069 59.0543 22.1563C56.5303 22.1057 54.1577 22.3081 51.8355 22.8645C49.4629 23.421 47.2922 24.0787 45.3234 24.7869L34.47 28.9858C32.9051 29.5929 31.4916 30.0988 30.28 30.4529C29.4723 30.7058 28.7151 30.8576 28.0589 30.9588C27.3017 31.06 26.5444 31.06 25.9387 30.9588H25.8377C25.1814 30.8576 24.5757 30.6553 24.0204 30.3517C23.4651 30.0988 23.0108 29.6941 22.6574 29.2894C22.3545 28.8846 22.0516 28.4799 21.7992 28.0246C21.6982 27.8223 21.5973 27.6199 21.4963 27.4681C21.2944 27.0634 21.1429 26.6587 20.9915 26.254C20.8401 25.6975 20.7896 25.0905 20.9915 24.4834C21.1429 23.8257 21.4458 23.1681 22.0011 22.4092C22.304 21.9539 22.7079 21.5492 23.1117 21.1951C23.5156 20.841 24.0204 20.5375 24.5757 20.2845H24.7776L50.4725 9.50905L45.7778 7.68784L19.0732 18.7668C18.1141 19.1715 17.2559 19.728 16.3472 20.4363C15.2871 21.2963 14.4289 22.0551 13.8232 22.7634C13.5203 23.1175 13.2174 23.4716 12.965 23.8257L11.6525 26.3552C11.3496 27.4176 11.3496 28.5811 11.6525 29.7952L11.703 30.0988C11.703 30.3011 11.7534 30.4529 11.8039 30.6047L12.2078 31.667C12.2583 31.8188 12.3087 31.92 12.4097 32.0717C12.6621 32.5776 12.9145 33.0835 13.3184 33.5894C13.7727 34.2471 14.3785 34.8541 15.0347 35.4106C15.7415 35.9671 16.4987 36.473 17.3569 36.8777C18.1646 37.2824 19.1237 37.5354 20.1838 37.6365C22.1526 37.8389 24.2728 37.6871 26.4435 37.2318C28.7656 36.7259 30.9363 36.0683 32.8546 35.36L44.3138 31.06C46.1816 30.3517 47.8475 29.8458 49.4629 29.4917C51.3307 29.087 52.8956 29.0364 54.4101 29.2388C55.3692 29.3905 56.1769 29.6435 56.9341 29.947C57.7418 30.3011 58.4486 30.7058 59.0039 31.2117C59.6601 31.7682 60.1649 32.2741 60.6697 32.78C60.8717 33.0329 61.1241 33.2353 61.326 33.4882C61.7803 33.9941 62.1842 34.5506 62.588 35.1071C63.0423 35.8153 63.2948 36.6248 63.3957 37.5354C63.4967 38.4965 63.3452 39.4577 62.9919 40.6213C62.7395 41.3801 62.3861 42.0378 61.8308 42.5943C61.2755 43.1507 60.5688 43.606 59.7106 43.9602L59.4582 44.0613L20.3352 57.771Z" fill="#FFE74C"/>
<path d="M94.1892 25.2423H92.069V14.7198H86.3646V12.7468H99.8936V14.7198H94.1892V25.2423Z" fill="#FFE74C"/>
<path d="M102.064 12.7468H114.079V14.7198H104.184V18.0081H110.293V19.8293H104.184V23.3199H114.23V25.2929H102.115V12.7468H102.064Z" fill="#FFE74C"/>
<path d="M128.87 17.3504V14.7198H119.076V23.3199H128.87V20.4364L130.99 20.8917V22.5611C130.99 23.067 130.939 23.5223 130.838 23.8764C130.737 24.2305 130.586 24.5341 130.384 24.7364C130.182 24.9388 129.879 25.0905 129.526 25.1917C129.173 25.2929 128.769 25.3435 128.264 25.3435H119.783C119.278 25.3435 118.824 25.2929 118.521 25.1917C118.168 25.0905 117.915 24.9388 117.663 24.7364C117.461 24.5341 117.309 24.2305 117.208 23.8764C117.107 23.5223 117.057 23.1176 117.057 22.5611V15.4786C117.057 14.4669 117.259 13.7586 117.663 13.3539C118.067 12.9492 118.773 12.7468 119.783 12.7468H128.264C129.273 12.7468 129.98 12.9492 130.384 13.3539C130.788 13.7586 130.99 14.4669 130.99 15.4786V16.8951L128.87 17.3504Z" fill="#FFE74C"/>
<path d="M134.271 12.7468H136.391V17.8057H146.134V12.7468H148.254V25.2929H146.134V19.6775H136.341V25.2929H134.221V12.7468H134.271Z" fill="#FFE74C"/>
<path d="M92.3212 32.8308H95.0472L101.862 45.3769H99.4391L97.8237 42.291H89.4438L87.8284 45.3769H85.6577L92.3212 32.8308ZM96.8646 40.4192L93.6337 34.2473L90.3525 40.4192H96.8646Z" fill="#FFE74C"/>
<path d="M101.559 32.8308H103.831L107.112 42.3921L110.646 32.8308H112.362L115.795 42.3921L119.076 32.8308H121.045L116.502 45.3769H114.785L111.302 35.9167L107.819 45.3769H106.052L101.559 32.8308Z" fill="#FFE74C"/>
<path d="M127.406 32.8308H130.132L136.947 45.3769H134.523L132.908 42.291H124.528L122.913 45.3769H120.742L127.406 32.8308ZM131.949 40.4192L128.769 34.2979L125.487 40.4697H131.949V40.4192Z" fill="#FFE74C"/>
<path d="M138.411 45.3769V32.8308H148.305C148.759 32.8308 149.163 32.8308 149.416 32.8814C149.668 32.932 149.92 33.0332 150.173 33.1849C150.526 33.3873 150.779 33.6402 150.879 33.9944C151.031 34.3485 151.081 34.8544 151.081 35.5626V37.8391C151.081 38.2944 151.081 38.598 151.031 38.8509C150.98 39.1038 150.93 39.3062 150.829 39.5086C150.627 39.9133 150.375 40.2168 149.971 40.3686C149.567 40.5203 149.012 40.6215 148.254 40.6215H147.093L152.192 45.3263H149.214L144.317 40.6215H140.43V45.3263H138.411V45.3769ZM147.598 38.8003C148.153 38.8003 148.507 38.6991 148.709 38.4968C148.911 38.2944 149.012 37.9403 149.012 37.3838V36.2203C149.012 35.6638 148.911 35.3097 148.709 35.1073C148.507 34.905 148.153 34.8038 147.598 34.8038H140.48V38.8003H147.598Z" fill="#FFE74C"/>
<path d="M154.514 32.8308H163.096C164.005 32.8308 164.711 32.8814 165.216 32.9826C165.771 33.0838 166.226 33.2861 166.63 33.5391C167.286 33.9438 167.74 34.5002 168.043 35.2591C168.346 36.0179 168.497 36.9791 168.497 38.1932V39.9639C168.497 40.6721 168.447 41.2792 168.396 41.7851C168.296 42.291 168.144 42.7463 167.942 43.151C167.639 43.758 167.235 44.2639 166.68 44.618C166.276 44.871 165.822 45.0733 165.267 45.1745C164.711 45.2757 164.005 45.3263 163.146 45.3263H154.565V32.8308H154.514ZM163.096 43.4039C163.651 43.4039 164.055 43.3533 164.358 43.3027C164.661 43.2521 164.964 43.151 165.216 42.9486C165.57 42.6957 165.872 42.3415 166.024 41.9368C166.175 41.4815 166.276 40.9251 166.276 40.1662V37.9909C166.276 37.5862 166.276 37.2321 166.226 36.9285C166.175 36.625 166.074 36.372 165.973 36.1191C165.771 35.6638 165.418 35.3097 165.014 35.1073C164.56 34.905 163.954 34.8038 163.146 34.8038H156.685V43.4039H163.096Z" fill="#FFE74C"/>
<path d="M182.178 36.2709V34.8038H173.596V37.9909H181.774C182.279 37.9909 182.683 38.0415 183.036 38.1427C183.389 38.2438 183.692 38.3956 183.894 38.598C184.096 38.8003 184.248 39.1038 184.349 39.458C184.449 39.8121 184.5 40.2168 184.5 40.7733V42.5945C184.5 43.1004 184.449 43.5557 184.349 43.9098C184.248 44.2639 184.096 44.5675 183.894 44.7698C183.692 44.9722 183.389 45.1239 183.036 45.2251C182.683 45.3263 182.279 45.3769 181.774 45.3769H173.949C173.445 45.3769 172.99 45.3263 172.687 45.2251C172.334 45.1239 172.082 44.9722 171.829 44.7698C171.627 44.5675 171.476 44.2639 171.375 43.9098C171.274 43.5557 171.223 43.151 171.223 42.5945V42.038L173.293 41.5827V43.3533H182.481V39.8121H174.303C173.293 39.8121 172.586 39.6097 172.183 39.205C171.779 38.8003 171.577 38.0921 171.577 37.0803V35.5626C171.577 34.5508 171.779 33.8426 172.183 33.4379C172.586 33.0332 173.293 32.8308 174.303 32.8308H181.572C182.077 32.8308 182.531 32.8814 182.885 32.9826C183.238 33.0838 183.541 33.2355 183.743 33.4379C183.945 33.6402 184.096 33.9438 184.197 34.2979C184.298 34.652 184.349 35.1073 184.349 35.5626V35.8156L182.178 36.2709Z" fill="#FFE74C"/>
<path d="M87.4751 64.3479C87.4751 63.9937 87.4751 63.7408 87.5256 63.589C87.5761 63.4373 87.6265 63.2349 87.778 63.0831C88.0304 62.729 88.4342 62.4255 88.8886 62.1219L97.3694 56.8607V54.8371H89.9992V57.4678L88.0304 57.0125V55.3936C88.0304 54.9889 88.0304 54.7359 88.0809 54.483C88.1314 54.2806 88.1818 54.0783 88.2323 53.9265C88.3838 53.5724 88.6362 53.3195 88.9895 53.1677C89.3429 53.0159 89.8477 52.9653 90.504 52.9653H96.8141C97.218 52.9653 97.5713 52.9653 97.8237 53.0159C98.0761 53.0665 98.2781 53.1677 98.48 53.2689C98.7829 53.4206 98.9848 53.6736 99.1363 53.9771C99.2372 54.2806 99.2877 54.7359 99.2877 55.3936V56.203C99.2877 56.8101 99.2372 57.2654 99.0858 57.5183C98.9848 57.6701 98.8334 57.8725 98.6314 58.0748C98.379 58.2772 98.1266 58.4795 97.7733 58.7325L89.9992 63.589H98.0257V61.5655L100.045 62.0208C100.045 62.5772 99.9944 63.0325 99.9944 63.3361C99.9944 63.6396 99.9439 63.8926 99.8935 64.0949C99.843 64.3479 99.742 64.6008 99.5906 64.7526C99.4391 64.9043 99.2877 65.0561 99.0353 65.1573C98.7829 65.2585 98.48 65.3596 98.0761 65.3596C97.6723 65.4102 97.218 65.4102 96.6627 65.4102H87.4751V64.3479Z" fill="#FFE74C"/>
<path d="M105.8 65.4604C104.841 65.4604 104.134 65.258 103.73 64.8533C103.326 64.4486 103.124 63.7909 103.124 62.8298V55.5955C103.124 54.6343 103.326 53.9261 103.73 53.5214C104.134 53.1167 104.79 52.9143 105.8 52.9143H113.826C114.785 52.9143 115.492 53.1167 115.846 53.5214C116.249 53.9261 116.451 54.5837 116.451 55.5955V62.8298C116.451 63.7909 116.249 64.4992 115.846 64.8533C115.442 65.258 114.785 65.4604 113.826 65.4604H105.8ZM114.483 63.5886V54.7861H105.144V63.5886H114.483Z" fill="#FFE74C"/>
<path d="M119.48 64.3479C119.48 63.9937 119.48 63.7408 119.531 63.589C119.581 63.4373 119.632 63.2349 119.783 63.0831C120.035 62.729 120.439 62.4255 120.894 62.1219L129.374 56.8607V54.8371H122.004V57.4678L120.035 57.0125V55.3936C120.035 54.9889 120.035 54.7359 120.086 54.483C120.136 54.2806 120.187 54.0783 120.237 53.9265C120.389 53.5724 120.641 53.3195 120.995 53.1677C121.348 53.0159 121.853 52.9653 122.509 52.9653H128.819C129.223 52.9653 129.576 52.9653 129.829 53.0159C130.081 53.0665 130.283 53.1677 130.485 53.2689C130.788 53.4206 130.99 53.6736 131.141 53.9771C131.242 54.2806 131.293 54.7359 131.293 55.3936V56.203C131.293 56.8101 131.242 57.2654 131.091 57.5183C130.99 57.6701 130.838 57.8725 130.636 58.0748C130.384 58.2772 130.132 58.4795 129.778 58.7325L122.004 63.589H130.031V61.5655L132.05 62.0208C132.05 62.5772 131.999 63.0325 131.999 63.3361C131.999 63.6396 131.949 63.8926 131.898 64.0949C131.848 64.3479 131.747 64.6008 131.596 64.7526C131.444 64.9043 131.293 65.0561 131.04 65.1573C130.788 65.2585 130.485 65.3596 130.081 65.3596C129.677 65.4102 129.223 65.4102 128.668 65.4102H119.48V64.3479Z" fill="#FFE74C"/>
<path d="M137.805 65.4604C136.846 65.4604 136.139 65.258 135.735 64.8533C135.331 64.4486 135.129 63.7909 135.129 62.8298V55.5955C135.129 54.6343 135.331 53.9261 135.735 53.5214C136.139 53.1167 136.795 52.9143 137.805 52.9143H145.831C146.791 52.9143 147.497 53.1167 147.851 53.5214C148.254 53.9261 148.456 54.5837 148.456 55.5955V62.8298C148.456 63.7909 148.254 64.4992 147.851 64.8533C147.447 65.258 146.791 65.4604 145.831 65.4604H137.805ZM146.488 63.5886V54.7861H137.149V63.5886H146.488Z" fill="#FFE74C"/>
</svg>
