<!-- Generated by IcoMoon.io -->
<svg version="1.1" xmlns="http://www.w3.org/2000/svg" width="32" height="32" viewBox="0 0 32 32">
<title>calendar</title>
<path d="M28 28h-24v-18h24v18zM30 4h-4v-4h-6v4h-8v-4h-6v4h-4c-1.1 0-2 0.9-2 2v24c0 1.1 0.9 2 2 2h28c1.1 0 2-0.9 2-2v-24c0-1.1-0.9-2-2-2z"></path>
<path d="M12 14h-4v4h4v-4z"></path>
<path d="M18 14h-4v4h4v-4z"></path>
<path d="M12 20h-4v4h4v-4z"></path>
<path d="M18 20h-4v4h4v-4z"></path>
<path d="M24 14h-4v4h4v-4z"></path>
<path d="M24 20h-4v4h4v-4z"></path>
</svg>
