<svg width="32" height="32" viewBox="0 0 32 32" fill="none" xmlns="http://www.w3.org/2000/svg">
<path d="M31.772 5.49732C31.628 5.37063 31.436 5.31332 31.244 5.33863L16.5773 7.33863C16.2467 7.38532 16 7.66669 16 8V20C16 20.3333 16.2467 20.6147 16.5773 20.6613L31.244 22.6613C31.2733 22.6653 31.304 22.6666 31.3333 22.6666C31.4933 22.6666 31.6493 22.6093 31.772 22.4999C31.916 22.3746 32 22.1919 32 21.9986V5.99863C32 5.80669 31.9173 5.624 31.772 5.49732ZM22.6667 20.1453L17.3334 19.4173V14.6666H22.6667V20.1453ZM22.6667 13.3333H17.3334V8.58263L22.6667 7.85463V13.3333ZM30.6667 21.236L24 20.3267V14.6667H30.6667V21.236ZM30.6667 13.3333H24V7.67332L30.6667 6.764V13.3333Z" fill="#171C27"/>
<path d="M23.3333 24C23.7013 24 24 23.7013 24 23.3333C24 22.9653 23.7013 22.6666 23.3333 22.6666H2C1.632 22.6666 1.33331 22.3679 1.33331 21.9999V6C1.33331 5.632 1.632 5.33331 2 5.33331H23.3333C23.7013 5.33331 24 5.03463 24 4.66663C24 4.29863 23.7013 4 23.3333 4H2C0.897313 4 0 4.89731 0 6V22C0 23.1027 0.897313 24 2 24H12V25.436L4.55731 26.676C4.19462 26.736 3.94931 27.08 4.00931 27.4427C4.064 27.7694 4.34662 28 4.66663 28C4.70262 28 4.73863 27.9973 4.77594 27.9907L12.7199 26.6667H15.2786L23.2226 27.9907C23.2599 27.9974 23.2973 28 23.3333 28C23.6546 28 23.9373 27.7693 23.9893 27.4427C24.0506 27.08 23.804 26.736 23.4413 26.676L16 25.436V24H23.3333ZM14.6667 25.3333H13.3334V24H14.6667V25.3333Z" fill="#171C27"/>
</svg>
