<svg width="32" height="32" viewBox="0 0 32 32" fill="none" xmlns="http://www.w3.org/2000/svg">
<path d="M25.3333 13.3334H6.66669C6.29869 13.3334 6 13.6321 6 14.0001V28.6667C6 29.0347 6.29869 29.3334 6.66669 29.3334H25.3334C25.7014 29.3334 26.0001 29.0347 26.0001 28.6667V14.0001C26 13.6321 25.7013 13.3334 25.3333 13.3334ZM24.6667 28.0001H7.33331V14.6667H24.6666V28.0001H24.6667Z" fill="#171C27"/>
<path d="M28.0812 5.13731L23.5292 0.585312C23.1506 0.208 22.6479 0 22.1146 0H5.33325C4.23056 0 3.33325 0.897313 3.33325 2V7.33331C3.33325 7.70131 3.63194 8 3.99994 8H4.66663V10.6667H3.99994C3.63194 10.6667 3.33325 10.9654 3.33325 11.3334V30C3.33325 31.1027 4.23056 32 5.33325 32H26.6666C27.7692 32 28.6666 31.1027 28.6666 30V6.552C28.6666 6.01731 28.4586 5.51469 28.0812 5.13731ZM27.3333 30C27.3333 30.368 27.0346 30.6667 26.6666 30.6667H5.33325C4.96525 30.6667 4.66656 30.368 4.66656 30V12H5.33325C5.70125 12 5.99994 11.7013 5.99994 11.3333V7.33331C5.99994 6.96531 5.70125 6.66663 5.33325 6.66663H4.66663V2C4.66663 1.632 4.96531 1.33331 5.33331 1.33331H7.33331V3.33331C7.33325 3.70131 7.63194 4 7.99994 4C8.36794 4 8.66663 3.70131 8.66663 3.33331V1.33331H9.99994V3.33331C9.99994 3.70131 10.2986 4 10.6666 4C11.0346 4 11.3333 3.70131 11.3333 3.33331V1.33331H12.6666V3.33331C12.6666 3.70131 12.9653 4 13.3333 4C13.7013 4 13.9999 3.70131 13.9999 3.33331V1.33331H15.3333V3.33331C15.3333 3.70131 15.6319 4 15.9999 4C16.3679 4 16.6666 3.70131 16.6666 3.33331V1.33331H17.9999V3.33331C17.9999 3.70131 18.2986 4 18.6666 4C19.0346 4 19.3333 3.70131 19.3333 3.33331V1.33331H20.6666V3.33331C20.6666 3.70131 20.9653 4 21.3333 4C21.7013 4 21.9999 3.70131 21.9999 3.33331V1.33331H22.1146C22.2906 1.33331 22.4626 1.404 22.5866 1.528L27.1386 6.08C27.2626 6.20531 27.3333 6.37731 27.3333 6.552V30H27.3333Z" fill="#171C27"/>
</svg>
