<svg width="32" height="32" viewBox="0 0 32 32" fill="none" xmlns="http://www.w3.org/2000/svg">
<path d="M18.6667 0H13.3334C8.55475 0 4.66675 3.888 4.66675 8.66669V20.6667C4.66675 26.916 9.75075 32 16.0001 32C22.2494 32 27.3334 26.916 27.3334 20.6667V8.66669C27.3334 3.888 23.4454 0 18.6667 0ZM16.0001 5.33331C16.3681 5.33331 16.6667 5.632 16.6667 6V10C16.6667 10.368 16.3681 10.6667 16.0001 10.6667C15.6321 10.6667 15.3334 10.368 15.3334 10V6C15.3334 5.632 15.6321 5.33331 16.0001 5.33331ZM26.0001 20.6667C26.0001 26.1814 21.5147 30.6667 16.0001 30.6667C10.4854 30.6667 6.00006 26.1814 6.00006 20.6667V8.66669C6.00006 4.62269 9.28937 1.33337 13.3334 1.33337H15.3334V4.12269C14.5587 4.39869 14.0001 5.132 14.0001 6V10C14.0001 11.1027 14.8974 12 16.0001 12C17.1027 12 18.0001 11.1027 18.0001 10V6C18.0001 5.132 17.4414 4.39869 16.6667 4.12269V1.33331H18.6667C22.7107 1.33331 26.0001 4.62269 26.0001 8.66669V20.6667Z" fill="#171C27"/>
</svg>
