<svg width="32" height="32" viewBox="0 0 32 32" fill="none" xmlns="http://www.w3.org/2000/svg">
<path d="M27.1584 22.9565C27.5424 22.9565 27.8541 22.6449 27.8541 22.2609C27.8541 21.8769 27.5424 21.5652 27.1584 21.5652H27.1445C26.7605 21.5652 26.4558 21.8769 26.4558 22.2609C26.4557 22.6449 26.7744 22.9565 27.1584 22.9565Z" fill="#171C27"/>
<path d="M28.5217 0.695679H3.47824C1.56104 0.695679 0 2.25672 0 4.17392V22.2608C0 24.178 1.56104 25.7391 3.47824 25.7391H15.3043V29.913H6.26087C5.87687 29.913 5.56519 30.2247 5.56519 30.6087C5.56519 30.9927 5.87687 31.3043 6.26087 31.3043H25.7391C26.1231 31.3043 26.4348 30.9927 26.4348 30.6087C26.4348 30.2247 26.1231 29.913 25.7391 29.913H16.6956V25.7391H28.5217C30.4389 25.7391 31.9999 24.178 31.9999 22.2608V4.17392C32 2.25672 30.439 0.695679 28.5217 0.695679ZM30.6087 22.2608C30.6087 23.4115 29.6723 24.3478 28.5217 24.3478H3.47824C2.32761 24.3478 1.39128 23.4115 1.39128 22.2608V20.1739H30.6087V22.2608ZM30.6087 18.7826H1.39128V4.17392C1.39128 3.02329 2.32761 2.08696 3.47824 2.08696H28.5217C29.6723 2.08696 30.6087 3.02329 30.6087 4.17392V18.7826Z" fill="#171C27"/>
<path d="M15.9999 23.6521C16.7679 23.6521 17.3912 23.0289 17.3912 22.2609C17.3912 21.4929 16.7679 20.8695 15.9999 20.8695C15.2319 20.8695 14.6086 21.4928 14.6086 22.2608C14.6086 23.0288 15.2319 23.6521 15.9999 23.6521Z" fill="#171C27"/>
</svg>
