<svg width="32" height="32" viewBox="0 0 32 32" fill="none" xmlns="http://www.w3.org/2000/svg">
<path d="M31.3333 22.0001H29.3333V6.66675C29.3333 5.56406 28.436 4.66675 27.3333 4.66675H4.66669C3.564 4.66675 2.66669 5.56406 2.66669 6.66675V22.0001H0.666687C0.298687 22.0001 0 22.2987 0 22.6667V24.0001C0 25.8374 1.496 27.3334 3.33331 27.3334H28.6666C30.504 27.3334 32 25.8374 32 24.0001V22.6667C32 22.2987 31.7013 22.0001 31.3333 22.0001ZM4 6.66675C4 6.29875 4.29869 6.00006 4.66669 6.00006H27.3334C27.7014 6.00006 28.0001 6.29875 28.0001 6.66675V22.0001H21.3333C21.156 22.0001 20.9866 22.0707 20.864 22.1947L19.7253 23.3334H12.2773L11.1386 22.1947C11.0133 22.0707 10.8439 22.0001 10.6666 22.0001H4V6.66675ZM30.6667 24.0001C30.6667 25.1027 29.7694 26.0001 28.6667 26.0001H3.33331C2.23063 26.0001 1.33331 25.1027 1.33331 24.0001V23.3334H10.3906L11.5279 24.4721C11.6533 24.5961 11.8226 24.6667 11.9999 24.6667H19.9999C20.1772 24.6667 20.3466 24.5961 20.4706 24.4721L21.6093 23.3334H30.6666V24.0001H30.6667Z" fill="#171C27"/>
</svg>
