<svg width="32" height="32" viewBox="0 0 32 32" fill="none" xmlns="http://www.w3.org/2000/svg">
<path d="M24.6667 9.33331C25.0347 9.33331 25.3334 9.03463 25.3334 8.66663V3.33331C25.3334 2.96531 25.0347 2.66663 24.6667 2.66663C24.2987 2.66663 24 2.96531 24 3.33331V8.66663C24 9.03469 24.2987 9.33331 24.6667 9.33331Z" fill="#171C27"/>
<path d="M24.6667 12C24.84 12 25.0134 11.9333 25.1334 11.8C25.2667 11.68 25.3334 11.5067 25.3334 11.3333C25.3334 11.16 25.2667 10.9866 25.1334 10.852C24.8934 10.6133 24.4667 10.6 24.1867 10.8653C24.0667 10.9866 24 11.16 24 11.3333C24 11.5066 24.0667 11.68 24.1987 11.8C24.32 11.9333 24.4933 12 24.6667 12Z" fill="#171C27"/>
<path d="M24.6667 14.6667C28.7094 14.6667 32.0001 11.376 32.0001 7.33338C32.0001 3.29075 28.7094 0 24.6667 0C20.6241 0 17.3334 3.29069 17.3334 7.33331C17.3334 11.3759 20.6241 14.6667 24.6667 14.6667ZM24.6667 1.33331C27.9747 1.33331 30.6667 4.02531 30.6667 7.33331C30.6667 10.6413 27.9747 13.3333 24.6667 13.3333C21.3587 13.3333 18.6667 10.6413 18.6667 7.33331C18.6667 4.02531 21.3587 1.33331 24.6667 1.33331Z" fill="#171C27"/>
<path d="M31.7493 22.876L28.2493 15.8733C28.084 15.544 27.684 15.4106 27.3546 15.5746C27.0253 15.7386 26.8919 16.1399 27.0559 16.4693L29.4946 21.3493C29.4413 21.3466 29.3893 21.3333 29.3333 21.3333H2.66669C2.612 21.3333 2.56 21.3466 2.50537 21.3493L8.08669 10.1813C8.10537 10.156 8.12 10.1266 8.13469 10.0973C8.35738 9.62663 8.816 9.33331 9.33337 9.33331H15.4387C15.8067 9.33331 16.1054 9.03463 16.1054 8.66663C16.1054 8.29863 15.8067 8 15.4387 8H9.33337C8.34138 8 7.42006 8.56669 6.96537 9.44931C6.95206 9.472 6.93738 9.49463 6.92537 9.52L0.250688 22.8747C0.246688 22.8827 0.248 22.892 0.244 22.9014C0.0906875 23.2373 0 23.6067 0 24V29.3333C0 30.804 1.196 32 2.66669 32H29.3334C30.804 32 32 30.804 32 29.3333V24C32 23.6067 31.9093 23.236 31.756 22.9C31.752 22.892 31.7533 22.884 31.7493 22.876ZM30.6667 29.3333C30.6667 30.0693 30.0694 30.6666 29.3334 30.6666H2.66669C1.93069 30.6666 1.33337 30.0693 1.33337 29.3333V24C1.33337 23.812 1.37469 23.6333 1.44537 23.4707C1.65069 22.9987 2.11869 22.6667 2.66669 22.6667H29.3334C30.0694 22.6667 30.6667 23.264 30.6667 24V29.3333Z" fill="#171C27"/>
<path d="M8.00006 26.6667C8.73607 26.6667 9.33338 26.0694 9.33338 25.3334C9.33338 24.5974 8.73607 24 8.00006 24C7.26406 24 6.66675 24.5973 6.66675 25.3333C6.66675 26.0693 7.26406 26.6667 8.00006 26.6667Z" fill="#171C27"/>
<path d="M28.6667 28H3.33331C2.96531 28 2.66663 28.2987 2.66663 28.6667C2.66663 29.0347 2.96531 29.3334 3.33331 29.3334H28.6666C29.0346 29.3334 29.3333 29.0347 29.3333 28.6667C29.3333 28.2987 29.0347 28 28.6667 28Z" fill="#171C27"/>
<path d="M4.00006 26.6667C4.73606 26.6667 5.33337 26.0694 5.33337 25.3334C5.33337 24.5974 4.73606 24 4.00006 24C3.26406 24 2.66675 24.5973 2.66675 25.3333C2.66675 26.0693 3.26406 26.6667 4.00006 26.6667Z" fill="#171C27"/>
</svg>
