<svg width="32" height="32" viewBox="0 0 32 32" fill="none" xmlns="http://www.w3.org/2000/svg">
<path d="M24.6667 14.6667C28.7107 14.6667 32.0001 11.376 32.0001 7.33338C32.0001 3.29075 28.7107 0 24.6667 0C20.6227 0 17.3334 3.29069 17.3334 7.33331C17.3334 11.3759 20.6227 14.6667 24.6667 14.6667ZM24.6667 1.33331C27.9747 1.33331 30.6667 4.02531 30.6667 7.33331C30.6667 10.6413 27.9747 13.3333 24.6667 13.3333C21.3587 13.3333 18.6667 10.6413 18.6667 7.33331C18.6667 4.02531 21.3587 1.33331 24.6667 1.33331Z" fill="#171C27"/>
<path d="M24.2 10.8652C24.0667 10.9866 24 11.1599 24 11.3332C24 11.5066 24.0667 11.6799 24.2 11.7999C24.32 11.9332 24.4933 11.9999 24.6667 11.9999C24.8401 11.9999 25.0134 11.9332 25.1467 11.7986C25.2667 11.6786 25.3334 11.5053 25.3334 11.3319C25.3334 11.1586 25.2667 10.9866 25.1334 10.8519C24.88 10.6132 24.4267 10.6252 24.2 10.8652Z" fill="#171C27"/>
<path d="M21.9453 5.87069C22.3146 5.9 22.6346 5.62938 22.6653 5.26269C22.7226 4.56669 23.6213 4 24.6653 4C25.7493 4 26.6666 4.61069 26.6666 5.33331C26.6666 5.984 26.0346 6.404 24.6786 6.65331L24.5333 6.68131C24.224 6.74531 24.0013 7.01731 24.0013 7.332L24 8.66531C24 9.03331 24.2973 9.33331 24.6667 9.33331C25.0347 9.33331 25.3334 9.03463 25.3334 8.668L25.3347 7.87731C27.104 7.46269 28 6.60669 28 5.33331C28 3.86263 26.504 2.66663 24.6653 2.66663C22.8866 2.66663 21.4546 3.73463 21.3373 5.15063C21.3067 5.51731 21.5787 5.84131 21.9453 5.87069Z" fill="#171C27"/>
<path d="M8.00006 26.6667C8.73607 26.6667 9.33338 26.0694 9.33338 25.3334C9.33338 24.5974 8.73607 24 8.00006 24C7.26406 24 6.66675 24.5973 6.66675 25.3333C6.66675 26.0693 7.26406 26.6667 8.00006 26.6667Z" fill="#171C27"/>
<path d="M31.7493 22.876L28.2493 15.8733C28.084 15.5453 27.6853 15.408 27.3546 15.5746C27.0253 15.7386 26.8906 16.1399 27.0559 16.4693L29.4946 21.3493C29.4413 21.3466 29.3893 21.3333 29.3333 21.3333H2.66669C2.61069 21.3333 2.55869 21.3466 2.504 21.3493L8.08269 10.1853C8.10269 10.1586 8.11869 10.128 8.13338 10.0986C8.35738 9.62663 8.81738 9.33331 9.33337 9.33331H15.4401C15.8081 9.33331 16.1068 9.03463 16.1068 8.66663C16.1068 8.29863 15.808 8 15.44 8H9.33331C8.34262 8 7.42531 8.56531 6.968 9.444C6.952 9.46931 6.93731 9.49331 6.924 9.52L0.250688 22.8747C0.246688 22.8827 0.248 22.892 0.244 22.9014C0.0906875 23.2373 0 23.6067 0 24V29.3333C0 30.804 1.196 32 2.66669 32H29.3334C30.804 32 32 30.804 32 29.3333V24C32 23.6067 31.9093 23.236 31.756 22.9C31.752 22.892 31.7533 22.884 31.7493 22.876ZM30.6667 29.3333C30.6667 30.0693 30.068 30.6666 29.3334 30.6666H2.66669C1.932 30.6666 1.33337 30.0693 1.33337 29.3333V24C1.33337 23.264 1.93206 22.6667 2.66669 22.6667H29.3334C30.0681 22.6667 30.6667 23.264 30.6667 24V29.3333Z" fill="#171C27"/>
<path d="M28.6667 28H3.33331C2.96531 28 2.66663 28.2987 2.66663 28.6667C2.66663 29.0347 2.96531 29.3334 3.33331 29.3334H28.6666C29.0346 29.3334 29.3333 29.0347 29.3333 28.6667C29.3333 28.2987 29.0347 28 28.6667 28Z" fill="#171C27"/>
<path d="M4.00006 26.6667C4.73606 26.6667 5.33337 26.0694 5.33337 25.3334C5.33337 24.5974 4.73606 24 4.00006 24C3.26406 24 2.66675 24.5973 2.66675 25.3333C2.66675 26.0693 3.26406 26.6667 4.00006 26.6667Z" fill="#171C27"/>
</svg>
