<svg width="32" height="32" viewBox="0 0 32 32" fill="none" xmlns="http://www.w3.org/2000/svg">
<path d="M25.999 16.1067C26.367 16.1067 26.6656 15.808 26.6656 15.44V10.0002C26.6656 9.82293 26.5949 9.65356 26.471 9.52826L22.4711 5.52842C22.3458 5.40442 22.1764 5.33374 21.9991 5.33374H5.99979C5.63181 5.33374 5.33313 5.63242 5.33313 6.0004V25.9996C5.33313 26.3676 5.63181 26.6662 5.99979 26.6662H15.4394C15.8074 26.6662 16.1061 26.3676 16.1061 25.9996C16.1061 25.6316 15.8074 25.3329 15.4394 25.3329H6.66645V6.66706H21.7231L25.3323 10.2762V15.44C25.3323 15.8081 25.631 16.1067 25.999 16.1067Z" fill="#171C27"/>
<path d="M16.2473 28.009H12.7582C12.7262 28.005 12.6982 27.9903 12.6649 27.9903C12.6315 27.9903 12.6035 28.005 12.5715 28.009H7.42507C7.39307 28.005 7.36507 27.9903 7.33176 27.9903C7.29845 27.9903 7.27045 28.005 7.23845 28.009H5.34247C4.60781 28.009 4.00921 27.4104 4.00921 26.6758V5.34326C4.00921 4.6086 4.60787 4.01 5.34247 4.01H26.6749C27.4096 4.01 28.0082 4.60867 28.0082 5.34326V7.28718C28.0069 7.30318 27.9989 7.31787 27.9989 7.33387C27.9989 7.34987 28.0069 7.36455 28.0082 7.38055V12.6216C28.0069 12.6363 27.9989 12.651 27.9989 12.667C27.9989 12.683 28.0069 12.6976 28.0082 12.7136V16.2482C28.0082 16.6162 28.3068 16.9148 28.6748 16.9148C29.0428 16.9148 29.3415 16.6162 29.3415 16.2482V13.3336H31.3321C31.7001 13.3336 31.9987 13.0349 31.9987 12.667C31.9987 12.299 31.7001 12.0003 31.3321 12.0003H29.3415V8.00046H31.3321C31.7001 8.00046 31.9987 7.70179 31.9987 7.3338C31.9987 6.96582 31.7001 6.66714 31.3321 6.66714H29.3415V5.34326C29.3415 3.87263 28.1455 2.67668 26.6749 2.67668H25.3323V0.667454C25.3323 0.299469 25.0336 0.000793457 24.6656 0.000793457C24.2976 0.000793457 23.999 0.299469 23.999 0.667454V2.67668H19.9992V0.667454C19.9992 0.299469 19.7005 0.000793457 19.3325 0.000793457C18.9645 0.000793457 18.6659 0.299469 18.6659 0.667454V2.67668H13.3328V0.667454C13.3328 0.299469 13.0341 0.000793457 12.6661 0.000793457C12.2981 0.000793457 11.9995 0.299469 11.9995 0.667454V2.67668H7.99967V0.667454C7.99967 0.299469 7.701 0.000793457 7.33301 0.000793457C6.96503 0.000793457 6.66635 0.299469 6.66635 0.667454V2.67668H5.34247C3.87184 2.67668 2.67589 3.87263 2.67589 5.34326V6.66721H0.66666C0.298675 6.66721 0 6.96588 0 7.33387C0 7.70185 0.298675 8.00053 0.66666 8.00053H2.67589V12.0004H0.66666C0.298675 12.0004 0 12.299 0 12.667C0 13.0349 0.298675 13.3336 0.66666 13.3336H2.67589V18.6667H0.66666C0.298675 18.6667 0 18.9654 0 19.3334C0 19.7014 0.298675 20 0.66666 20H2.67589V23.9999H0.66666C0.298675 23.9999 0 24.2985 0 24.6665C0 25.0345 0.298675 25.3331 0.66666 25.3331H2.67589V26.6758C2.67589 28.1464 3.87184 29.3423 5.34247 29.3423H6.66641V31.3329C6.66641 31.7009 6.96509 31.9996 7.33307 31.9996C7.70106 31.9996 7.99967 31.7009 7.99967 31.3329V29.3423H11.9995V31.3329C11.9995 31.7009 12.2982 31.9995 12.6662 31.9995C13.0342 31.9995 13.3328 31.7009 13.3328 31.3329V29.3423H16.2474C16.6154 29.3423 16.9141 29.0436 16.9141 28.6756C16.914 28.3077 16.6153 28.009 16.2473 28.009Z" fill="#171C27"/>
<path d="M24.667 17.3333C20.6232 17.3333 17.334 20.6225 17.334 24.6663C17.334 28.7102 20.6232 31.9993 24.667 31.9993C28.7108 31.9993 32 28.7102 32 24.6663C32 20.6225 28.7108 17.3333 24.667 17.3333ZM24.667 30.6661C21.3591 30.6661 18.6672 27.9742 18.6672 24.6663C18.6672 21.3585 21.3591 18.6666 24.667 18.6666C27.9762 18.6666 30.6668 21.3585 30.6668 24.6663C30.6668 27.9742 27.9749 30.6661 24.667 30.6661Z" fill="#171C27"/>
<path d="M25.6084 24.6664L27.803 22.4718C28.0643 22.2118 28.0643 21.7891 27.8043 21.5292C27.5443 21.2692 27.1216 21.2692 26.8616 21.5292L24.6657 23.7238L22.4698 21.5292C22.2098 21.2692 21.7871 21.2692 21.5271 21.5292C21.2672 21.7891 21.2672 22.2118 21.5271 22.4718L23.7217 24.6664L21.5271 26.861C21.2672 27.121 21.2672 27.5437 21.5271 27.8037C21.6591 27.9343 21.8298 27.9996 22.0004 27.9996C22.1711 27.9996 22.3417 27.9343 22.4711 27.805L24.667 25.6091L26.8616 27.805C26.9923 27.9343 27.1616 27.9996 27.3336 27.9996C27.5043 27.9996 27.6749 27.9343 27.8043 27.805C28.0643 27.545 28.0643 27.1223 27.8043 26.8623L25.6084 24.6664Z" fill="#171C27"/>
</svg>
