<svg width="32" height="32" viewBox="0 0 32 32" fill="none" xmlns="http://www.w3.org/2000/svg">
<g clip-path="url(#clip0)">
<path d="M24.6667 20C24.2987 20 24 20.2987 24 20.6667V26C24 26.368 24.2987 26.6667 24.6667 26.6667C25.0347 26.6667 25.3334 26.3694 25.3334 26V20.6667C25.3333 20.2987 25.0347 20 24.6667 20Z" fill="#171C27"/>
<path d="M24.1867 28.2001C24.0667 28.3201 24 28.4934 24 28.6667C24 28.8401 24.0667 29.0134 24.2 29.1467C24.32 29.2667 24.4933 29.3334 24.6667 29.3334C24.8401 29.3334 25.0134 29.2667 25.1467 29.1334C25.2667 29.0134 25.3334 28.8401 25.3334 28.6667C25.3334 28.4934 25.2667 28.3201 25.1334 28.2001C24.8933 27.9467 24.44 27.9467 24.1867 28.2001Z" fill="#171C27"/>
<path d="M24.6667 17.3333C20.6227 17.3333 17.3334 20.6226 17.3334 24.6666C17.3334 28.7106 20.6227 32 24.6667 32C28.7107 32 32 28.7107 32 24.6667C32 20.6227 28.7107 17.3333 24.6667 17.3333ZM24.6667 30.6667C21.3587 30.6667 18.6667 27.9747 18.6667 24.6667C18.6667 21.3587 21.3587 18.6667 24.6667 18.6667C27.9747 18.6667 30.6667 21.3587 30.6667 24.6667C30.6667 27.9747 27.9747 30.6667 24.6667 30.6667Z" fill="#171C27"/>
<path d="M21.7239 6.66669L25.3333 10.276V15.44C25.3333 15.808 25.6319 16.1067 25.9999 16.1067C26.3679 16.1067 26.6666 15.808 26.6666 15.44V10C26.6666 9.82269 26.5959 9.65331 26.4719 9.528L22.4719 5.528C22.3466 5.404 22.1773 5.33331 21.9999 5.33331H5.99994C5.63194 5.33331 5.33325 5.632 5.33325 6V26C5.33325 26.368 5.63194 26.6667 5.99994 26.6667H15.4399C15.8079 26.6667 16.1066 26.368 16.1066 26C16.1066 25.632 15.8079 25.3333 15.4399 25.3333H6.66663V6.66669H21.7239Z" fill="#171C27"/>
<path d="M31.3333 12H29.3426V8H31.3333C31.7013 8 32 7.70131 32 7.33331C32 6.96531 31.7013 6.66663 31.3333 6.66663H29.3426V5.34269C29.3426 3.872 28.1466 2.676 26.6759 2.676H25.3333V0.666687C25.3333 0.298687 25.0347 0 24.6667 0C24.2987 0 24 0.298687 24 0.666687V2.676H20V0.666687C20 0.298687 19.7013 0 19.3333 0C18.9653 0 18.6666 0.298687 18.6666 0.666687V2.676H13.3333V0.666687C13.3333 0.298687 13.0347 0 12.6667 0C12.2987 0 12 0.298687 12 0.666687V2.676H8V0.666687C8 0.298687 7.70131 0 7.33331 0C6.96531 0 6.66663 0.298687 6.66663 0.666687V2.676H5.34269C3.872 2.676 2.676 3.872 2.676 5.34269V6.66669H0.666687C0.298687 6.66669 0 6.96531 0 7.33331C0 7.70131 0.298687 8 0.666687 8H2.676V12H0.666687C0.298687 12 0 12.2987 0 12.6667C0 13.0347 0.298687 13.3334 0.666687 13.3334H2.676V18.6667H0.666687C0.298687 18.6667 0 18.9653 0 19.3333C0 19.7013 0.298687 20 0.666687 20H2.676V24H0.666687C0.298687 24 0 24.2987 0 24.6667C0 25.0347 0.298687 25.3334 0.666687 25.3334H2.676V26.6761C2.676 28.1467 3.872 29.3428 5.34269 29.3428H6.66669V31.3334C6.66669 31.7014 6.96537 32.0001 7.33337 32.0001C7.70138 32.0001 8 31.7013 8 31.3333V29.3426H12V31.3333C12 31.7013 12.2987 32 12.6667 32C13.0347 32 13.3334 31.7013 13.3334 31.3333V29.3426H16.2481C16.6161 29.3426 16.9147 29.0439 16.9147 28.6759C16.9147 28.3079 16.6161 28.0093 16.2481 28.0093H12.76C12.728 28.0053 12.7 27.9906 12.6667 27.9906C12.6334 27.9906 12.6054 28.0053 12.5734 28.0093H7.42669C7.39469 28.0053 7.36669 27.9906 7.33337 27.9906C7.30006 27.9906 7.27206 28.0053 7.24006 28.0093H5.34269C4.608 28.0093 4.00938 27.4106 4.00938 26.6759V5.34269C4.00938 4.608 4.60806 4.00938 5.34269 4.00938H26.676C27.4107 4.00938 28.0093 4.60806 28.0093 5.34269V7.28669C28.008 7.30269 28 7.31738 28 7.33337C28 7.34937 28.008 7.36406 28.0093 7.38006V12.6214C28.008 12.6361 28 12.6507 28 12.6667C28 12.6827 28.008 12.6974 28.0093 12.7134V16.2481C28.0093 16.6161 28.308 16.9147 28.676 16.9147C29.044 16.9147 29.3427 16.6161 29.3427 16.2481V13.3334H31.3334C31.7014 13.3334 32.0001 13.0347 32.0001 12.6667C32.0001 12.2987 31.7013 12 31.3333 12Z" fill="#171C27"/>
</g>
<defs>
<clipPath id="clip0">
<path d="M0 0H32V32H0V0Z" fill="white"/>
</clipPath>
</defs>
</svg>
