<svg width="32" height="32" viewBox="0 0 32 32" fill="none" xmlns="http://www.w3.org/2000/svg">
<g clip-path="url(#clip0)">
<path d="M20.7373 16.368L20.32 17.2013L19.324 11.224C19.272 10.9133 19.0093 10.68 18.6933 10.668C18.364 10.632 18.096 10.8666 18.02 11.172L16 19.252L14.6467 13.8386C14.576 13.556 14.3294 13.3506 14.0374 13.3346C13.7467 13.316 13.4774 13.4933 13.3747 13.7653L11.912 17.668L11.2627 16.368C11.1494 16.1427 10.9187 16 10.6667 16H8.66669C8.29869 16 8 16.2987 8 16.6667C8 17.0347 8.29869 17.3334 8.66669 17.3334H10.2547L11.4027 19.6321C11.5214 19.8694 11.7734 20.0268 12.0347 20.0001C12.2987 19.9854 12.5307 19.8161 12.624 19.5681L13.872 16.2388L15.3533 22.1615C15.428 22.4588 15.6946 22.6668 16 22.6668C16.3054 22.6668 16.572 22.4588 16.6467 22.1615L18.536 14.6055L19.3427 19.4428C19.3907 19.7281 19.616 19.9508 19.9014 19.9935C20.1881 20.0335 20.4681 19.8895 20.5961 19.6321L21.7454 17.3335H23.3334C23.7014 17.3335 24.0001 17.0348 24.0001 16.6668C24.0001 16.2988 23.7013 16 23.3333 16H21.3333C21.0813 16 20.8507 16.1426 20.7373 16.368Z" fill="#171C27"/>
<path d="M22.4719 5.528C22.3466 5.404 22.1773 5.33331 21.9999 5.33331H5.99994C5.63194 5.33331 5.33325 5.632 5.33325 6V26C5.33325 26.368 5.63194 26.6667 5.99994 26.6667H25.9999C26.3679 26.6667 26.6666 26.368 26.6666 26V10C26.6666 9.82269 26.5959 9.65331 26.4719 9.528L22.4719 5.528ZM25.3333 25.3333H6.66663V6.66669H21.7239L25.3333 10.276V25.3333Z" fill="#171C27"/>
<path d="M31.3333 13.3333C31.7013 13.3333 32 13.0346 32 12.6666C32 12.2986 31.7013 12 31.3333 12H29.3426V8H31.3333C31.7013 8 32 7.70131 32 7.33331C32 6.96531 31.7013 6.66663 31.3333 6.66663H29.3426V5.34269C29.3426 3.872 28.1466 2.676 26.6759 2.676H25.3333V0.666687C25.3333 0.298687 25.0347 0 24.6667 0C24.2987 0 24 0.298687 24 0.666687V2.676H20V0.666687C20 0.298687 19.7013 0 19.3333 0C18.9653 0 18.6666 0.298687 18.6666 0.666687V2.676H13.3333V0.666687C13.3333 0.298687 13.0347 0 12.6667 0C12.2987 0 12 0.298687 12 0.666687V2.676H8V0.666687C8 0.298687 7.70131 0 7.33331 0C6.96531 0 6.66663 0.298687 6.66663 0.666687V2.676H5.34269C3.872 2.676 2.676 3.872 2.676 5.34269V6.66669H0.666687C0.298687 6.66669 0 6.96531 0 7.33331C0 7.70131 0.298687 8 0.666687 8H2.676V12H0.666687C0.298687 12 0 12.2987 0 12.6667C0 13.0347 0.298687 13.3334 0.666687 13.3334H2.676V18.6667H0.666687C0.298687 18.6667 0 18.9653 0 19.3333C0 19.7013 0.298687 20 0.666687 20H2.676V24H0.666687C0.298687 24 0 24.2987 0 24.6667C0 25.0347 0.298687 25.3334 0.666687 25.3334H2.676V26.6761C2.676 28.1467 3.872 29.3428 5.34269 29.3428H6.66669V31.3334C6.66669 31.7014 6.96537 32.0001 7.33337 32.0001C7.70138 32.0001 8 31.7013 8 31.3333V29.3426H12V31.3333C12 31.7013 12.2987 32 12.6667 32C13.0347 32 13.3334 31.7013 13.3334 31.3333V29.3426H18.6667V31.3333C18.6667 31.7013 18.9654 32 19.3334 32C19.7014 32 20 31.7013 20 31.3333V29.3426H24V31.3333C24 31.7013 24.2987 32 24.6667 32C25.0347 32 25.3334 31.7013 25.3334 31.3333V29.3426H26.6761C28.1467 29.3426 29.3428 28.1466 29.3428 26.6759V25.3333H31.3334C31.7014 25.3333 32.0001 25.0346 32.0001 24.6666C32.0001 24.2986 31.7013 24 31.3333 24H29.3426V20H31.3333C31.7013 20 32 19.7013 32 19.3333C32 18.9653 31.7013 18.6666 31.3333 18.6666H29.3426V13.3333H31.3333ZM28.0093 7.28669C28.008 7.30269 28 7.31738 28 7.33337C28 7.34937 28.008 7.36406 28.0093 7.38006V12.6214C28.008 12.6361 28 12.6507 28 12.6667C28 12.6827 28.008 12.6974 28.0093 12.7134V19.2881C28.008 19.3027 28 19.3174 28 19.3334C28 19.3494 28.008 19.3641 28.0093 19.3801V24.6214C28.008 24.6361 28 24.6507 28 24.6667C28 24.6827 28.008 24.6974 28.0093 24.7134V26.6761C28.0093 27.4107 27.4106 28.0094 26.676 28.0094H24.76C24.728 28.0054 24.7 27.9907 24.6667 27.9907C24.6334 27.9907 24.6054 28.0054 24.5734 28.0094H19.4267C19.3947 28.0054 19.3667 27.9907 19.3334 27.9907C19.3001 27.9907 19.2721 28.0054 19.2401 28.0094H12.76C12.728 28.0054 12.7 27.9907 12.6667 27.9907C12.6334 27.9907 12.6054 28.0054 12.5734 28.0094H7.42669C7.39469 28.0054 7.36669 27.9907 7.33337 27.9907C7.30006 27.9907 7.27206 28.0054 7.24006 28.0094H5.34269C4.608 28.0094 4.00938 27.4107 4.00938 26.6761V5.34269C4.00938 4.608 4.60806 4.00938 5.34269 4.00938H26.676C27.4107 4.00938 28.0093 4.60806 28.0093 5.34269V7.28669Z" fill="#171C27"/>
</g>
<defs>
<clipPath id="clip0">
<path d="M0 0H32V32H0V0Z" fill="white"/>
</clipPath>
</defs>
</svg>
