<svg width="32" height="32" viewBox="0 0 32 32" fill="none" xmlns="http://www.w3.org/2000/svg">
<path d="M15.9993 17.3333C16.7352 17.3333 17.3325 16.736 17.3325 16C17.3325 15.264 16.7352 14.6667 15.9993 14.6667C15.2633 14.6667 14.666 15.264 14.666 16C14.666 16.736 15.262 17.3333 15.9993 17.3333Z" fill="#171C27"/>
<path d="M18.5539 30.4302C17.6473 30.5902 16.8113 30.6675 15.9993 30.6675C7.91299 30.6675 1.33326 24.0878 1.33326 16.0014C1.33326 7.91509 7.91299 1.33542 15.9993 1.33542C24.0857 1.33542 30.6654 7.91516 30.6654 16.0015C30.6654 17.1642 30.5121 18.3681 30.2068 19.5814C30.1161 19.9374 30.3334 20.3 30.6907 20.3893C31.0414 20.4773 31.408 20.2626 31.4987 19.9054C31.8307 18.5854 31.9987 17.2721 31.9987 16.0002C31.9987 7.17787 24.8217 0.000854492 15.9993 0.000854492C7.17702 0.000854492 0 7.17787 0 16.0002C0 24.8225 7.17702 31.9995 15.9993 31.9995C16.89 31.9995 17.802 31.9155 18.7859 31.7436C19.1472 31.6796 19.3899 31.3343 19.3259 30.9716C19.2619 30.6089 18.9232 30.3676 18.5539 30.4302Z" fill="#171C27"/>
<path d="M16.6659 3.33384C16.6659 2.96585 16.3673 2.66718 15.9993 2.66718C8.64757 2.66718 2.6665 8.64824 2.6665 15.9999C2.6665 16.3679 2.96518 16.6666 3.33316 16.6666C3.70115 16.6666 3.99976 16.368 3.99976 16C3.99976 9.38427 9.38354 4.0005 15.9993 4.0005C16.3673 4.0005 16.6659 3.70182 16.6659 3.33384Z" fill="#171C27"/>
<path d="M26.4082 18.1372C26.2069 17.9826 25.9349 17.9546 25.7069 18.0665C25.4776 18.1785 25.3336 18.4105 25.3336 18.6652V20.6651C25.3336 21.5318 24.2936 22.5038 23.1937 23.5317C21.6964 24.9317 20.0005 26.5183 20.0005 28.6648C20.0005 30.3581 21.4551 31.6007 23.895 31.99C24.167 32.034 24.4323 31.9073 24.571 31.6753L25.683 29.8207L26.0123 31.4633C26.0763 31.7793 26.3536 31.9993 26.6655 31.9993C26.6975 31.9993 26.7322 31.9966 26.7668 31.9886C29.9947 31.4966 32 29.674 32 27.2301C32 22.5224 26.6362 18.3145 26.4082 18.1372ZM27.1895 30.5541L26.6522 27.8689C26.5975 27.5982 26.3842 27.3889 26.1122 27.3422C25.8376 27.2942 25.5683 27.4195 25.427 27.6555L23.667 30.5887C22.8004 30.39 21.3324 29.874 21.3324 28.6661C21.3324 27.0981 22.7417 25.7809 24.103 24.5075C25.4203 23.2756 26.6656 22.1116 26.6656 20.6664V20.1384C28.1549 21.5517 30.6654 24.3609 30.6654 27.2328C30.6654 29.0915 28.9668 30.1381 27.1895 30.5541Z" fill="#171C27"/>
<path d="M15.9994 22.6664C19.6753 22.6664 22.6658 19.6758 22.6658 16C22.6658 12.3241 19.6753 9.33362 15.9994 9.33362C12.3236 9.33362 9.33301 12.3242 9.33301 16C9.33301 19.6759 12.3236 22.6664 15.9994 22.6664ZM15.9994 10.6669C18.9406 10.6669 21.3325 13.0588 21.3325 16C21.3325 18.9412 18.9406 21.3331 15.9994 21.3331C13.0582 21.3331 10.6663 18.9412 10.6663 16C10.6663 13.0588 13.0582 10.6669 15.9994 10.6669Z" fill="#171C27"/>
</svg>
