<svg width="34" height="50" viewBox="0 0 34 50" fill="none" xmlns="http://www.w3.org/2000/svg">
<g clip-path="url(#clip0)">
<path d="M33.3478 16.5693C33.7396 18.9572 34.032 21.6549 33.9989 23.429C33.9492 26.0872 33.2595 29.8212 32.8567 31.1728C32.6691 31.8092 31.7422 33.9099 30.7104 35.791C29.5351 37.9255 28.2439 39.8122 28.2439 39.8122L24.7181 44.8527C24.7181 44.8527 22.2959 47.9953 19.6032 49.3639C18.7977 49.7299 17.9148 49.9946 17.0375 50.0003C16.1271 50.0059 15.2222 49.7412 14.4056 49.3639C11.7129 47.9897 9.29068 44.8527 9.29068 44.8527L5.76488 39.8122C5.76488 39.8122 4.47374 37.9255 3.29847 35.791C2.26115 33.9156 1.33969 31.8092 1.15209 31.1728C0.738264 29.8212 0.0540704 26.0816 -0.00110651 23.429C-0.0342126 21.6493 0.258225 18.9572 0.649981 16.5693C0.8431 15.3922 1.08588 14.2602 1.27348 13.4042C1.61558 11.8554 2.54255 9.25347 3.79506 7.12461C4.63375 5.69411 5.6159 4.59589 6.66426 3.75674C7.90023 2.76552 9.55001 1.76868 11.2495 1.10975C12.0882 0.783095 12.9379 0.52966 13.6993 0.349439C15.8236 -0.101113 18.268 -0.129273 20.293 0.349439C21.0599 0.52966 21.9041 0.777463 22.7428 1.10975C24.4423 1.77431 26.092 2.76552 27.328 3.75674C28.3764 4.59589 29.3585 5.69974 30.1972 7.12461C31.4442 9.24784 32.3767 11.8554 32.7188 13.4042C32.9119 14.2602 33.1547 15.3866 33.3478 16.5693ZM15.4098 39.401C15.2553 39.0012 14.527 35.3855 12.5185 32.0345C11.8564 30.9307 11.0563 29.855 10.0687 28.982C9.23551 28.2499 7.58572 27.2643 6.35527 26.8137C4.21441 26.0309 2.87913 26.2618 2.14527 25.8619C2.11217 26.5152 2.10113 28.5258 2.67497 30.5139C3.22122 32.4175 4.31924 34.2873 5.70419 35.6614C7.23258 37.1821 9.23551 38.376 11.0067 38.928C13.1862 39.6038 15.0236 39.4405 15.4098 39.401ZM31.8525 25.8619C31.1131 26.2618 29.7779 26.0309 27.6425 26.8137C26.4176 27.2643 24.7678 28.2499 23.9291 28.982C22.9414 29.8493 22.1414 30.925 21.4793 32.0345C19.4708 35.3855 18.748 39.0012 18.588 39.401C18.9742 39.4405 20.8116 39.6038 22.9911 38.9336C24.7623 38.3873 26.7707 37.1877 28.2936 35.6671C29.6785 34.2873 30.7766 32.4231 31.3228 30.5195C31.8911 28.5258 31.8801 26.5152 31.8525 25.8619Z" fill="#707070"/>
</g>
<defs>
<clipPath id="clip0">
<rect width="34" height="50" fill="white"/>
</clipPath>
</defs>
</svg>
