<svg width="64" height="16" viewBox="0 0 64 16" fill="none" xmlns="http://www.w3.org/2000/svg">
<g clip-path="url(#clip0)">
<path fill-rule="evenodd" clip-rule="evenodd" d="M58.1998 16L62.5804 3.91864C62.5804 3.91864 59.3065 3.91864 56.0326 4.57594L51.8914 15.9979H58.1998V16Z" fill="#707070"/>
<path fill-rule="evenodd" clip-rule="evenodd" d="M57.4523 0.657304L56.6123 2.97782C59.9072 2.32051 63.1601 2.32051 63.1601 2.32051L64.0001 0C64.0001 0 60.7262 0 57.4523 0.657304Z" fill="#707070"/>
<path fill-rule="evenodd" clip-rule="evenodd" d="M34.6125 13.1314C36.5823 13.4905 38.613 13.6774 40.6857 13.6774H40.6878C42.8173 13.6774 44.3608 13.2028 44.5288 11.758C44.6107 11.0692 43.9597 10.5757 42.769 9.91836C41.4061 9.16656 40.2594 8.79065 39.0771 7.99685C37.8927 7.20514 37.3824 5.95774 37.7814 4.63683C38.2476 3.09332 39.3312 2.20081 40.9818 1.35661C42.9139 0.371702 44.4448 0 48.1786 0C50.5285 0 52.828 0.226801 55.054 0.657304L54.2518 2.86652C52.282 2.50742 50.2513 2.32051 48.1786 2.32051C46.0492 2.32051 44.5036 2.79512 44.3377 4.23993C44.2579 4.92873 44.9068 5.42433 46.0996 6.07954C47.4625 6.83134 48.6091 7.20514 49.7914 7.99895C50.9779 8.79275 51.4861 10.0381 51.0871 11.3611C50.6209 12.9025 49.5373 13.7971 47.8867 14.6413C45.9526 15.6304 44.4175 16.0021 40.6857 16.0021H40.6836C38.3337 16.0021 36.0342 15.7753 33.8103 15.3427L34.6125 13.1314Z" fill="#707070"/>
<path fill-rule="evenodd" clip-rule="evenodd" d="M25.1015 16L28.7555 5.91994C29.9735 2.55992 25.5026 3.78842 24.5029 4.55913C23.7175 5.16603 22.2874 6.54574 21.7603 7.99685L18.8602 15.9979H12.5518L16.2058 5.91784C17.4238 2.55782 12.9529 3.78632 11.9533 4.55703C11.1679 5.16393 9.73776 6.54574 9.21066 7.99685L6.31054 15.9979H0L5.80024 0C7.80995 0 8.89565 0.462003 9.80916 1.36081C10.1431 1.68841 10.351 2.11471 10.4644 2.56832C11.6488 1.85221 12.6946 1.31461 13.3981 1.03951C14.7127 0.525003 16.3423 0 18.352 0C20.3596 0 21.4474 0.462003 22.3609 1.36081C22.6948 1.68841 22.9048 2.11471 23.0182 2.56832C24.2026 1.85221 25.2485 1.31461 25.952 1.03951C27.2624 0.525003 28.8941 0 30.9017 0C32.9114 0 33.9971 0.462003 34.9106 1.36081C35.822 2.25541 35.801 3.89132 35.4713 4.79853L31.4099 16H25.1015Z" fill="#707070"/>
</g>
<defs>
<clipPath id="clip0">
<rect width="64" height="16" fill="white"/>
</clipPath>
</defs>
</svg>
