<svg width="74" height="25" viewBox="0 0 74 25" fill="none" xmlns="http://www.w3.org/2000/svg">
<g clip-path="url(#clip0)">
<path fill-rule="evenodd" clip-rule="evenodd" d="M0 0.475372C3.3926 0.475372 6.78081 0.475372 10.1734 0.475372V3.73938H6.89946V24.9915H3.27834V3.73938H0V0.475372Z" fill="#707070"/>
<path fill-rule="evenodd" clip-rule="evenodd" d="M21.3575 24.9915H24.6359V5.24619H21.3575V24.9915Z" fill="#707070"/>
<path fill-rule="evenodd" clip-rule="evenodd" d="M11.4521 24.9915H14.7305V8.646C15.1875 7.46603 16.4883 7.65279 16.4883 8.646V24.9915H19.8941V7.44057C19.8941 4.64345 16.5059 4.08743 14.7349 6.43887V0.475372H11.4565V24.9915H11.4521Z" fill="#707070"/>
<path fill-rule="evenodd" clip-rule="evenodd" d="M26.0377 24.9915H29.3161V8.64601C29.7731 7.46604 31.0739 7.6528 31.0739 8.64601V24.9915H34.4797V7.44058C34.4797 4.64346 31.0915 4.08744 29.3205 6.43888V5.24618H26.0421V24.9915H26.0377Z" fill="#707070"/>
<path fill-rule="evenodd" clip-rule="evenodd" d="M22.9967 3.98132C21.8585 3.98132 20.9357 3.08998 20.9357 1.99066C20.9357 0.891341 21.8585 0 22.9967 0C24.1349 0 25.0578 0.891341 25.0578 1.99066C25.0578 3.08998 24.1349 3.98132 22.9967 3.98132Z" fill="#949494"/>
<path fill-rule="evenodd" clip-rule="evenodd" d="M35.8464 24.9915H39.1248C39.1248 12.6613 39.1248 7.13496 39.1248 0.475372H35.8464V24.9915Z" fill="#6C6C6C"/>
<path fill-rule="evenodd" clip-rule="evenodd" d="M41.1463 5.24619H44.6004L42.5745 14.3718L44.741 24.9915H41.2913L39.1248 14.3718L41.1463 5.24619Z" fill="#707070"/>
<path fill-rule="evenodd" clip-rule="evenodd" d="M45.9672 0.475372H49.5883C53.3193 0.475372 54.3959 2.15194 54.3959 4.23174V10.5305C54.3959 12.6103 53.3193 14.2869 49.5883 14.2869V24.9915H45.9672V0.475372ZM51.0429 4.23174C51.0429 3.70967 50.5946 3.23004 49.5883 3.23004V11.5365C50.5946 11.5365 51.0429 11.0569 51.0429 10.5348V4.23174Z" fill="#707070"/>
<path fill-rule="evenodd" clip-rule="evenodd" d="M55.8109 12.1986H59.0893C59.0893 10.3141 59.0893 9.46945 59.0893 8.45502C59.0893 7.79288 59.5023 7.40238 59.8671 7.40238H59.9857C60.3505 7.40238 60.7636 7.78863 60.7636 8.45502V9.47794C60.7636 13.9346 55.723 12.9542 55.723 15.9338V23.2301C55.723 25.8065 60.7636 25.3735 60.7636 23.2301V24.9915H64.0419C64.0419 16.6766 64.0419 12.9457 64.0419 8.45502C64.0419 5.84041 61.8842 4.88541 59.9857 4.88541H59.8671C57.9686 4.88541 55.8109 5.84041 55.8109 8.45502V12.1986ZM60.7636 14.6944V21.8209C60.7636 22.5255 59.1771 22.8311 59.1771 21.77V16.528C59.1771 15.7301 60.2318 15.1231 60.7636 14.6944Z" fill="#707070"/>
<path fill-rule="evenodd" clip-rule="evenodd" d="M70.7261 24.9915H74.0044C74.0044 12.6613 74.0044 7.13496 74.0044 0.475372H70.7261V6.54074C70.7261 5.08064 65.5977 4.0662 65.5977 6.79116V23.2767C65.5977 26.0017 70.7261 24.9915 70.7261 23.5272V24.9915ZM68.9727 8.51018C68.9727 7.38114 70.7261 7.51272 70.7261 8.97282V21.0951C70.7261 22.5552 68.9727 22.691 68.9727 21.5577V8.51018Z" fill="#707070"/>
</g>
<defs>
<clipPath id="clip0">
<rect width="74" height="25" fill="white"/>
</clipPath>
</defs>
</svg>
