<svg width="16" height="16" viewBox="0 0 16 16" fill="none" xmlns="http://www.w3.org/2000/svg">
<g clip-path="url(#clip0)">
<path d="M1.87433 12.0015C2.19505 12.599 2.5897 13.1554 3.05398 13.6569C4.4534 15.1678 6.31383 16 8.29273 16C10.2717 16 12.1322 15.1678 13.5315 13.6569C13.9959 13.1554 14.3904 12.599 14.7111 12.0015C15.357 10.7982 15.7014 9.42786 15.7014 8C15.7014 6.57214 15.357 5.20178 14.7111 3.99854C14.3904 3.401 13.9958 2.84448 13.5315 2.34314C12.1322 0.832153 10.2717 0 8.29273 0C6.31383 0 4.45329 0.832153 3.05398 2.34314C2.58958 2.84448 2.19493 3.401 1.87433 3.99854C1.22849 5.20178 0.884033 6.57227 0.884033 8C0.884033 9.42773 1.22849 10.7982 1.87433 12.0015ZM6.40201 8C6.40201 7.62842 6.49482 7.28015 6.65614 6.97961C6.98352 6.36975 7.59421 5.95825 8.29273 5.95825C8.99125 5.95825 9.60193 6.36975 9.92943 6.97961C10.0906 7.28003 10.1836 7.62842 10.1836 8C10.1836 8.37158 10.0906 8.71985 9.92943 9.02026C9.60205 9.63025 8.99125 10.0416 8.29273 10.0416C7.59421 10.0416 6.98352 9.63025 6.65602 9.02026C6.49482 8.71985 6.40201 8.37158 6.40201 8Z" fill="#FF8398"/>
<path d="M8.29272 13.0208V16C10.2717 16 12.1322 15.1678 13.5315 13.6569C13.9959 13.1554 14.3904 12.599 14.7111 12.0015L12.32 10.5107C11.5161 12.0112 10.0137 13.0208 8.29272 13.0208Z" fill="#43BF75"/>
<path d="M12.9425 8C12.9425 8.91467 12.7158 9.77222 12.3201 10.5107L14.7111 12.0015C15.357 10.7982 15.7014 9.42786 15.7014 8C15.7014 6.57214 15.357 5.20178 14.7111 3.99854L12.3201 5.48914C12.7158 6.22778 12.9425 7.08533 12.9425 8Z" fill="#2C95A0"/>
<path d="M4.26546 10.5107L1.87439 12.0015C2.19511 12.599 2.58976 13.1554 3.05404 13.6569C4.45346 15.1678 6.31389 16 8.29279 16V13.0208C6.57186 13.0208 5.06946 12.0112 4.26546 10.5107Z" fill="#FFCF70"/>
<path d="M12.32 5.48914L14.7111 3.99854C14.3904 3.401 13.9958 2.84448 13.5315 2.34314C12.1322 0.832153 10.2717 0 8.29272 0V2.97913C10.0137 2.97913 11.5161 3.98877 12.32 5.48914Z" fill="#1D53B7"/>
<path d="M1.87433 12.0015L4.2654 10.5107C3.86962 9.77222 3.64308 8.91467 3.64308 8C3.64308 7.08533 3.86962 6.22778 4.2654 5.48926L1.87433 3.99854C1.22849 5.20178 0.884033 6.57227 0.884033 8C0.884033 9.42773 1.22849 10.7982 1.87433 12.0015Z" fill="#F19063"/>
<path d="M8.29279 2.97913V0C6.31389 0 4.45335 0.832153 3.05404 2.34314C2.58964 2.84448 2.19499 3.401 1.87439 3.99854L4.26546 5.48926C5.06946 3.98877 6.57186 2.97913 8.29279 2.97913Z" fill="#DE7063"/>
<path d="M10.1836 8C10.1836 8.37158 10.0906 8.71985 9.92944 9.02026L12.3201 10.5107C12.7158 9.77222 12.9425 8.91467 12.9425 8C12.9425 7.0852 12.7158 6.22778 12.3201 5.48914L9.92944 6.97961C10.0906 7.28003 10.1836 7.62842 10.1836 8Z" fill="#284E52"/>
<path d="M9.92943 6.97961L12.32 5.48926C11.5161 3.98877 10.0137 2.97913 8.29272 2.97913V5.95825C8.99125 5.95825 9.60193 6.36975 9.92943 6.97961Z" fill="#174291"/>
<path d="M8.29272 10.0416V13.0208C10.0137 13.0208 11.5161 12.0112 12.32 10.5107L9.92943 9.02039C9.60204 9.63025 8.99125 10.0416 8.29272 10.0416Z" fill="#09863D"/>
<path d="M8.29271 13.0208V10.0417C7.59418 10.0417 6.9835 9.63031 6.656 9.02032L4.26538 10.5108C5.06938 12.0113 6.57178 13.0208 8.29271 13.0208Z" fill="#C19132"/>
<path d="M6.402 8C6.402 7.62842 6.49481 7.28015 6.65613 6.97961L4.26539 5.48926C3.86961 6.22778 3.64307 7.08533 3.64307 8C3.64307 8.91467 3.86961 9.77222 4.26539 10.5107L6.65601 9.02026C6.49481 8.71985 6.402 8.37158 6.402 8Z" fill="#B45326"/>
<path d="M8.29271 5.95825V2.97913C6.57178 2.97913 5.06938 3.98877 4.26538 5.48926L6.65611 6.97961C6.9835 6.36975 7.59418 5.95825 8.29271 5.95825Z" fill="#A13226"/>
</g>
<defs>
<clipPath id="clip0">
<path d="M0.884033 0H15.7014V16H0.884033V0Z" fill="white"/>
</clipPath>
</defs>
</svg>
