<svg width="24" height="24" viewBox="0 0 24 24" fill="none" xmlns="http://www.w3.org/2000/svg">
<path d="M12 24C18.6274 24 24 18.6274 24 12C24 5.37258 18.6274 0 12 0C5.37258 0 0 5.37258 0 12C0 18.6274 5.37258 24 12 24Z" fill="#039BE5"/>
<path d="M5.49102 11.7397L17.061 7.27872C17.598 7.08472 18.067 7.40972 17.893 8.22172L17.894 8.22072L15.924 17.5017C15.778 18.1597 15.387 18.3197 14.84 18.0097L11.84 15.7987L10.393 17.1927C10.233 17.3527 10.098 17.4877 9.78802 17.4877L10.001 14.4347L15.561 9.41172C15.803 9.19872 15.507 9.07872 15.188 9.29072L8.31702 13.6167L5.35502 12.6927C4.71202 12.4887 4.69802 12.0497 5.49102 11.7397Z" fill="white"/>
</svg>
