<svg width="24" height="24" viewBox="0 0 24 24" fill="none" xmlns="http://www.w3.org/2000/svg">
<path d="M12.003 0H11.997C5.3805 0 0 5.382 0 12C0 14.625 0.846 17.058 2.2845 19.0335L0.789 23.4915L5.4015 22.017C7.299 23.274 9.5625 24 12.003 24C18.6195 24 24 18.6165 24 12C24 5.3835 18.6195 0 12.003 0Z" fill="#4CAF50"/>
<path d="M18.9855 16.9458C18.696 17.7633 17.547 18.4413 16.6305 18.6393C16.0035 18.7728 15.1845 18.8793 12.4275 17.7363C8.90095 16.2753 6.62995 12.6918 6.45295 12.4593C6.28345 12.2268 5.02795 10.5618 5.02795 8.83977C5.02795 7.11777 5.90245 6.27927 6.25495 5.91927C6.54445 5.62377 7.02295 5.48877 7.48195 5.48877C7.63045 5.48877 7.76395 5.49627 7.88395 5.50227C8.23645 5.51727 8.41345 5.53827 8.64595 6.09477C8.93545 6.79227 9.64045 8.51427 9.72445 8.69127C9.80995 8.86827 9.89545 9.10827 9.77545 9.34077C9.66295 9.58077 9.56395 9.68727 9.38695 9.89127C9.20995 10.0953 9.04195 10.2513 8.86495 10.4703C8.70295 10.6608 8.51995 10.8648 8.72395 11.2173C8.92795 11.5623 9.63295 12.7128 10.671 13.6368C12.0105 14.8293 13.0965 15.2103 13.485 15.3723C13.7745 15.4923 14.1195 15.4638 14.331 15.2388C14.5995 14.9493 14.931 14.4693 15.2685 13.9968C15.5085 13.6578 15.8115 13.6158 16.1295 13.7358C16.4535 13.8483 18.168 14.6958 18.5205 14.8713C18.873 15.0483 19.1055 15.1323 19.191 15.2808C19.275 15.4293 19.275 16.1268 18.9855 16.9458Z" fill="#FAFAFA"/>
</svg>
