<svg width="134" height="28" viewBox="0 0 134 28" fill="none" xmlns="http://www.w3.org/2000/svg">
<path fill-rule="evenodd" clip-rule="evenodd" d="M74.8383 10.9117H70V13.3823H74.8383C75.25 13.3823 75.4559 13.3823 75.6618 13.1764C75.7647 13.0735 75.8677 12.8676 75.8677 12.6617V11.6323C75.8677 11.4264 75.7647 11.2205 75.6618 11.1176C75.4559 11.0146 75.25 10.9117 74.8383 10.9117ZM67.8383 18.6323V9.26465H75.8677C76.5883 9.26465 77.103 9.36759 77.5147 9.67641C77.8236 9.8823 78.0294 10.397 78.0294 11.0146V13.0735C78.0294 13.6911 77.8236 14.2058 77.5147 14.4117C77.2059 14.7205 76.5883 14.8235 75.8677 14.8235H70V18.4264H67.8383V18.6323Z" fill="#999999"/>
<path fill-rule="evenodd" clip-rule="evenodd" d="M88.3235 10.9117H83.3823V13.4852H88.2206C88.6323 13.4852 88.8382 13.4852 89.0441 13.3823C89.1471 13.2794 89.25 13.0735 89.25 12.7646V11.6323C89.25 11.4264 89.1471 11.2205 89.0441 11.1176C88.9412 11.0146 88.6323 10.9117 88.3235 10.9117ZM81.2206 18.6323V9.26465H89.147C89.8676 9.26465 90.4853 9.36759 90.7941 9.67641C91.1029 9.8823 91.3088 10.397 91.3088 11.0146V13.1764C91.3088 13.7941 91.1029 14.3088 90.7941 14.5146C90.4853 14.8235 89.8676 14.9264 89.147 14.9264H87.9118L92.2353 18.4264H89.147L85.4412 15.1323H83.3823V18.6323H81.2206Z" fill="#999999"/>
<path fill-rule="evenodd" clip-rule="evenodd" d="M95.7354 18.6323V9.26465H105.309V10.9117H98.0001V12.9705H102.221V14.6176H98.0001V16.8823H105.412V18.6323H95.7354Z" fill="#999999"/>
<path fill-rule="evenodd" clip-rule="evenodd" d="M117.456 11.0152H111.382V12.9711H117.147C118.074 12.9711 118.691 13.074 119 13.3829C119.309 13.6917 119.515 14.3093 119.515 15.1329V16.4711C119.515 17.2946 119.412 17.9123 119 18.2211C118.691 18.5299 118.074 18.6329 117.147 18.6329H111.382C110.456 18.6329 109.838 18.5299 109.529 18.2211C109.221 17.9123 109.118 17.2946 109.118 16.4711V16.2652L111.074 15.8535V16.9858H117.662V14.927H111.794C110.868 14.927 110.25 14.824 109.941 14.4123C109.632 14.1035 109.427 13.5888 109.427 12.6623V11.6329C109.427 10.8093 109.529 10.1917 109.941 9.88287C110.25 9.57405 110.868 9.36816 111.794 9.36816H117.147C118.074 9.36816 118.691 9.4711 119 9.77993C119.309 10.0888 119.515 10.6035 119.515 11.427V11.6329L117.662 12.0446V11.0152H117.456Z" fill="#999999"/>
<path fill-rule="evenodd" clip-rule="evenodd" d="M131.868 11.0152H125.794V12.9711H131.559C132.485 12.9711 133.103 13.074 133.412 13.3829C133.721 13.6917 133.823 14.3093 133.823 15.1329V16.4711C133.823 17.2946 133.721 17.9123 133.412 18.2211C133.103 18.5299 132.485 18.6329 131.559 18.6329H125.794C124.868 18.6329 124.25 18.5299 123.941 18.2211C123.632 17.9123 123.426 17.2946 123.426 16.4711V16.2652L125.382 15.8535V16.9858H131.971V14.927H126.206C125.279 14.927 124.662 14.824 124.353 14.4123C124.044 14.1035 123.941 13.5888 123.941 12.6623V11.6329C123.941 10.8093 124.044 10.1917 124.353 9.88287C124.662 9.57405 125.279 9.36816 126.206 9.36816H131.559C132.382 9.36816 133 9.4711 133.412 9.77993C133.721 10.0888 133.926 10.6035 133.926 11.427V11.6329L131.971 12.0446V11.0152H131.868Z" fill="#999999"/>
<path fill-rule="evenodd" clip-rule="evenodd" d="M53.8383 18.6323L58.2648 13.897L53.7354 9.26465H56.6177L59.603 12.4558L62.4854 9.26465H64.9559L60.8383 13.5882L65.8824 18.6323H63.0001L59.603 15.0294L56.4118 18.6323H53.8383Z" fill="#999999"/>
<path fill-rule="evenodd" clip-rule="evenodd" d="M5.45588 18.6323L0 9.26465H2.47059L6.27941 16.0588L9.88235 9.26465H12.0441L6.89706 18.6323H5.45588Z" fill="#999999"/>
<path fill-rule="evenodd" clip-rule="evenodd" d="M13.5883 18.6323V9.26465H15.0294L21.6177 14.8235C21.8236 15.0294 22.0294 15.1323 22.2353 15.3382C22.4412 15.4411 22.5441 15.647 22.75 15.8529C22.75 15.3382 22.6471 14.9264 22.6471 14.7205C22.6471 14.5146 22.6471 14.3088 22.6471 14.2058V9.26465H24.603V18.6323H23.0588L16.1618 12.8676C16.0588 12.7646 15.853 12.6617 15.75 12.4558C15.6471 12.3529 15.5441 12.2499 15.4412 12.147C15.4412 12.4558 15.4412 12.6617 15.4412 12.9705C15.4412 13.1764 15.4412 13.3823 15.4412 13.5882V18.6323H13.5883Z" fill="#999999"/>
<path d="M50.3382 0H28.6176C27.7941 0 27.0735 0.720588 27.0735 1.54412V26.4559C27.0735 27.2794 27.7941 28 28.6176 28H50.3382C51.1617 28 51.8823 27.2794 51.8823 26.4559V1.54412C51.8823 0.720588 51.1617 0 50.3382 0ZM49.6176 24.1912C49.6176 25.0147 48.897 25.7353 48.0735 25.7353H30.7794C29.9558 25.7353 29.2353 25.0147 29.2353 24.1912V3.80882C29.2353 2.98529 29.9558 2.26471 30.7794 2.26471H47.8676C48.6911 2.26471 49.4117 2.98529 49.4117 3.80882V7.30882C49.4117 8.13235 48.6911 8.85294 47.8676 8.85294H37.1617V9.98529H41.897C42.7205 9.98529 43.4411 10.7059 43.4411 11.5294V15.75C43.4411 16.1618 43.2353 16.5735 43.0294 16.8824C42.7205 17.1912 42.3088 17.2941 41.897 17.2941H37.1617V18.7353H48.0735C48.897 18.7353 49.6176 19.4559 49.6176 20.2794V24.1912Z" fill="#9F224E"/>
<path d="M48.0736 18.7352H37.1618V17.2941H41.8971C42.3089 17.2941 42.7206 17.0882 43.0295 16.8823C43.3383 16.5735 43.4412 16.1617 43.4412 15.7499V11.5294C43.4412 10.7058 42.7206 9.98524 41.8971 9.98524H37.1618V8.85288H47.8677C48.6912 8.85288 49.4118 8.1323 49.4118 7.30877V3.80877C49.4118 2.98524 48.6912 2.26465 47.8677 2.26465H30.7795C29.9559 2.26465 29.2354 2.98524 29.2354 3.80877V24.1911C29.2354 25.0146 29.9559 25.7352 30.7795 25.7352H48.0736C48.8971 25.7352 49.6177 25.0146 49.6177 24.1911V20.2794C49.6177 19.4558 48.8971 18.7352 48.0736 18.7352ZM48.0736 24.1911H30.7795V3.80877H47.8677V7.30877H35.6177V11.5294H41.8971V15.7499H35.6177V20.2794H48.0736V24.1911Z" fill="white"/>
<path d="M35.6177 15.7498H41.8971V11.5292H35.6177V7.30859H47.8677V3.80859H30.7794V24.1909H48.0735V20.2792H35.6177V15.7498Z" fill="#9F224E"/>
</svg>
