<svg width="36" height="36" viewBox="0 0 36 36" fill="none" xmlns="http://www.w3.org/2000/svg">
<circle cx="18" cy="18" r="18" fill="url(#paint0_linear)"/>
<g clip-path="url(#clip0)">
<path d="M25.254 23.0391C25.4481 23.0391 25.6056 22.8813 25.6056 22.6869C25.6056 22.4923 25.4481 22.3345 25.254 22.3345C25.0599 22.3345 24.9023 22.4923 24.9023 22.6869C24.9023 22.8813 25.0598 23.0391 25.254 23.0391V23.0391Z" fill="#F2C94C"/>
<path d="M12.75 23.9998H11.625C11.625 23.9998 12 21.375 11.25 18C10.5 14.625 10.125 14.25 10.125 14.25C10.375 13.25 11.1 11.1749 12 10.8749C13.125 10.4999 14.25 13.125 15.375 13.5C16.5 13.875 19.125 20.6249 21.375 20.6249C23.175 20.6249 23.875 20.3749 24 20.2499C26.4 20.2499 27.75 23.6249 27 23.6249C26.25 23.6249 23.5 24.5 18.375 23.6249C17.25 19.4999 14.625 17.9998 13.5 17.6248C12.6 17.3248 12.625 21.7498 12.75 23.9998Z" fill="#F2C94C"/>
<path d="M9.79883 15.3007C9.87997 15.7009 10.0177 16.0773 10.2083 16.4196C10.8288 17.5346 11.1199 18.6957 11.1199 19.7476V24.0958C11.1199 24.2903 11.2773 24.4481 11.4715 24.4481H12.8779C13.072 24.4481 13.2295 24.2903 13.2295 24.0958V20.1658C13.2295 19.3717 13.4121 18.5747 13.758 17.8599L13.7902 17.808C15.4549 19.1964 16.7875 20.966 17.6575 22.9478C18.0574 23.8592 18.9446 24.4481 19.9174 24.4481H22.7926C24.1809 24.4481 25.272 24.4193 26.0843 24.2792C26.4876 24.2096 27.7149 23.9981 27.7149 23.039C27.7149 22.4965 27.2664 21.7089 26.5722 21.0325C26.1061 20.578 25.1245 19.7864 23.7892 19.5896C23.738 19.5821 23.6858 19.586 23.6362 19.601C23.5866 19.616 23.541 19.6418 23.5025 19.6766C23.154 19.9918 22.4709 20.2207 21.8786 20.2207C21.0366 20.2207 20.1451 19.7391 19.8049 19.1005C19.7982 19.0879 19.7908 19.0758 19.7827 19.0642L17.4357 15.7091C15.9836 13.6333 14.2489 11.7713 12.2819 10.1771C12.2197 10.1266 12.1421 10.0989 12.062 10.0986C11.982 10.0983 11.9042 10.1254 11.8416 10.1755C11.2928 10.6137 10.835 11.138 10.4807 11.7336C9.79728 12.883 9.57728 14.1936 9.79658 15.2901C9.79728 15.2937 9.79799 15.2973 9.7988 15.3007H9.79883ZM12.5262 20.1658V23.7434H11.8231V19.7476C11.8231 19.6416 11.8196 19.5274 11.813 19.4086C11.7061 17.4775 10.8685 16.2025 10.7111 15.8554C11.6029 16.2698 12.4489 16.7769 13.2351 17.3683C12.8555 17.9839 12.5262 19.0639 12.5262 20.1658ZM11.0848 12.0943C11.3479 11.6519 11.6765 11.2541 12.0639 10.9087C13.8881 12.4206 15.5012 14.1711 16.86 16.1135L19.1952 19.4519C19.6626 20.3069 20.7868 20.9253 21.8786 20.9253C22.571 20.9253 23.3466 20.6783 23.8366 20.312C24.9009 20.515 25.6947 21.1599 26.082 21.5375C26.6924 22.1324 27.0117 22.7431 27.0117 23.0389C27.0117 23.341 26.4426 23.5025 25.965 23.5849C25.2018 23.7165 24.1448 23.7434 22.7926 23.7434H19.9174C19.2233 23.7434 18.5889 23.3199 18.3011 22.6643C16.7787 19.1961 13.965 16.4331 10.4553 14.9734C10.3277 14.1065 10.52 13.0444 11.0848 12.0943V12.0943Z" fill="white"/>
</g>
<defs>
<linearGradient id="paint0_linear" x1="31.2633" y1="2.71644" x2="37.7028" y2="24.4683" gradientUnits="userSpaceOnUse">
<stop offset="0.0016226" stop-color="#BA68DA"/>
<stop offset="1" stop-color="#653EA3"/>
</linearGradient>
<clipPath id="clip0">
<rect x="9.75" y="8.25" width="18" height="18" fill="white"/>
</clipPath>
</defs>
</svg>
