<?xml version="1.0" encoding="utf-8"?><svg xmlns="http://www.w3.org/2000/svg" xmlns:xlink="http://www.w3.org/1999/xlink"><symbol viewBox="0 0 16 16" id="user" xmlns="http://www.w3.org/2000/svg"><path fill-rule="evenodd" clip-rule="evenodd" d="M8 2.75a1.917 1.917 0 100 3.833A1.917 1.917 0 008 2.75zM4.583 4.667a3.417 3.417 0 116.834 0 3.417 3.417 0 01-6.834 0zM2.917 10.25a3.417 3.417 0 012.416-1.001h5.334a3.417 3.417 0 013.416 3.417V14a.75.75 0 01-1.5 0v-1.333a1.916 1.916 0 00-1.916-1.917H5.333a1.916 1.916 0 00-1.916 1.917V14a.75.75 0 01-1.5 0v-1.333c0-.906.36-1.775 1-2.416z"/></symbol></svg>