<svg width="30" height="31" viewBox="0 0 30 31" fill="none" xmlns="http://www.w3.org/2000/svg">
<g clip-path="url(#clip0)">
<rect y="0.995483" width="30" height="30" rx="15" fill="white"/>
<path d="M15 5.99548C11.1402 5.99548 8 9.1497 8 13.0267C8 14.3367 8.36124 15.615 9.04491 16.7241L14.6015 25.7185C14.708 25.8908 14.8955 25.9955 15.0972 25.9955C15.0987 25.9955 15.1003 25.9955 15.1018 25.9955C15.3052 25.9939 15.4932 25.886 15.5976 25.7106L21.0126 16.6291C21.6586 15.5435 22 14.2978 22 13.0267C22 9.1497 18.8598 5.99548 15 5.99548ZM20.0115 16.0274L15.0884 24.284L10.0365 16.1067C9.46743 15.1835 9.15889 14.1185 9.15889 13.0267C9.15889 9.79587 11.7835 7.15955 15 7.15955C18.2165 7.15955 20.8372 9.79587 20.8372 13.0267C20.8372 14.0861 20.549 15.1239 20.0115 16.0274Z" fill="#757575"/>
<path d="M15 9.99548C13.0701 9.99548 11.5 11.5656 11.5 13.4955C11.5 15.4131 13.0446 16.9955 15 16.9955C16.9796 16.9955 18.5 15.392 18.5 13.4955C18.5 11.5656 16.9299 9.99548 15 9.99548ZM15 15.8366C13.7067 15.8366 12.6589 14.7853 12.6589 13.4955C12.6589 12.2089 13.7134 11.1544 15 11.1544C16.2866 11.1544 17.3372 12.2089 17.3372 13.4955C17.3372 14.7665 16.3138 15.8366 15 15.8366Z" fill="#757575"/>
</g>
<defs>
<clipPath id="clip0">
<rect width="30" height="30" fill="white" transform="translate(0 0.995483)"/>
</clipPath>
</defs>
</svg>
