<svg width="63" height="26" viewBox="0 0 63 26" fill="none" xmlns="http://www.w3.org/2000/svg">
<path fill-rule="evenodd" clip-rule="evenodd" d="M48.361 19.027H54.8867C54.8867 19.027 55.5569 17.8006 55.6275 15.523V15.3127C55.5569 13.0701 54.8867 11.8087 54.8867 11.8087H51.2888L47.3733 13.841C47.3733 13.9111 47.338 14.0162 47.338 14.0863L48.361 19.027ZM49.0312 15.3828C49.0665 14.1564 49.4545 13.4556 49.4545 13.4556H53.3699C53.3699 13.4556 53.7227 14.1213 53.7932 15.3828V15.4879C53.758 16.7143 53.3699 17.4151 53.3699 17.4151H49.4545C49.4545 17.4151 49.0665 16.7494 49.0312 15.4879V15.3828Z" fill="url(#paint0_linear)"/>
<path fill-rule="evenodd" clip-rule="evenodd" d="M17.3548 15.3127V15.523C17.4254 17.7655 18.0956 19.027 18.0956 19.027H25.0446C25.0446 19.027 25.7148 17.8006 25.7854 15.523V15.3127C25.7148 13.0701 25.0446 11.8087 25.0446 11.8087H18.0956C18.0956 11.8437 17.4607 13.0701 17.3548 15.3127ZM19.1891 15.3828C19.2244 14.1564 19.6124 13.4556 19.6124 13.4556H23.5278C23.5278 13.4556 23.8806 14.1213 23.9511 15.3828V15.4879C23.9159 16.7143 23.5278 17.4151 23.5278 17.4151H19.6124C19.6124 17.4151 19.2597 16.7494 19.1891 15.4879V15.3828Z" fill="url(#paint1_linear)"/>
<path fill-rule="evenodd" clip-rule="evenodd" d="M26.1737 11.8437L27.9727 10.9326V19.0269H26.1737V11.8437Z" fill="url(#paint2_linear)"/>
<path fill-rule="evenodd" clip-rule="evenodd" d="M6.34937 11.8434V16.5739L2.01063 11.8434H0V19.0267H1.83426V14.1911L6.20827 19.0267H8.18363V11.8434H6.34937Z" fill="url(#paint3_linear)"/>
<path fill-rule="evenodd" clip-rule="evenodd" d="M8.5717 15.3127V15.523C8.64224 17.7655 9.31246 19.027 9.31246 19.027H16.2262C16.2262 19.027 16.8964 17.8006 16.967 15.523V15.3127C16.967 15.0324 16.9317 14.7521 16.9317 14.5068H13.5101L12.2402 16.2938H15.0622C14.9563 16.9946 14.7447 17.3801 14.7447 17.3801H10.794C10.794 17.3801 10.4412 16.7143 10.3707 15.4529V15.3477C10.406 14.1213 10.794 13.4205 10.794 13.4205H16.7201C16.5084 12.3693 16.1909 11.8087 16.1909 11.8087H9.31246C9.31246 11.8437 8.64224 13.0701 8.5717 15.3127Z" fill="url(#paint4_linear)"/>
<path fill-rule="evenodd" clip-rule="evenodd" d="M28.8896 15.3124V15.5227C28.8896 15.803 28.9249 16.0833 28.9602 16.3286H35.627L36.7558 14.5415H30.7944C30.9003 13.8407 31.1119 13.4553 31.1119 13.4553H36.65L35.1332 11.8434H29.6304C29.6304 11.8434 28.9602 13.0698 28.8896 15.3124ZM34.8863 17.4149H29.3129C29.5246 18.4661 29.842 19.0267 29.842 19.0267H33.828L34.8863 17.4149Z" fill="url(#paint5_linear)"/>
<path fill-rule="evenodd" clip-rule="evenodd" d="M0 21.3048V19.8681H0.282194V20.4288H0.811308V19.8681H1.0935V20.4288H0.811308V20.7441H1.0935V21.3048H0.811308V20.7441H0.282194V21.3048H0Z" fill="url(#paint6_linear)"/>
<path fill-rule="evenodd" clip-rule="evenodd" d="M2.57511 19.8681H3.70389V21.3048H3.38642V20.1485H2.85731V21.3048H2.57511V19.8681Z" fill="url(#paint7_linear)"/>
<path fill-rule="evenodd" clip-rule="evenodd" d="M5.99653 20.9894V20.1134H5.43214V20.9894H5.99653ZM6.24345 19.8681V21.3048H5.14995V19.8681H6.24345Z" fill="url(#paint8_linear)"/>
<path fill-rule="evenodd" clip-rule="evenodd" d="M9.8414 21.3048H7.90131V19.8681H8.18351V20.9894H8.7479V19.8681H9.03009V20.9894H9.5592V19.8681H9.8414V21.3048Z" fill="url(#paint9_linear)"/>
<path fill-rule="evenodd" clip-rule="evenodd" d="M14.4272 20.1485H13.6159V20.4288H14.145V20.7441H13.6159V20.9894H14.4272V21.3048H13.3337V19.8681H14.4272V20.1485Z" fill="url(#paint10_linear)"/>
<path fill-rule="evenodd" clip-rule="evenodd" d="M15.944 21.3048V20.9894H15.697V19.8681H15.944V20.9894H16.5083V19.8681H16.7905V20.9894H16.5083V21.3048H15.944Z" fill="url(#paint11_linear)"/>
<path fill-rule="evenodd" clip-rule="evenodd" d="M19.3655 20.1485H18.5189V20.4288H19.0833V20.7441H18.5189V20.9894H19.3655V21.3048H18.2367V19.8681H19.3655V20.1485Z" fill="url(#paint12_linear)"/>
<path fill-rule="evenodd" clip-rule="evenodd" d="M21.9406 21.3048H21.6584V20.7441H21.1293V21.3048H20.8118V19.8681H21.9053V20.4288H21.6231V20.7441H21.9053V21.3048H21.9406ZM21.6584 20.4288V20.1134H21.1293V20.4288H21.6584Z" fill="url(#paint13_linear)"/>
<path fill-rule="evenodd" clip-rule="evenodd" d="M24.2334 19.8681H24.4803V21.3048H23.4221V20.9894H24.2334V20.7441H23.4221V19.8681H23.669V20.4288H24.2334V19.8681Z" fill="url(#paint14_linear)"/>
<path fill-rule="evenodd" clip-rule="evenodd" d="M26.773 19.8681V20.1485H26.5261V21.3048H26.2439V20.1485H25.9617V19.8681H26.773Z" fill="url(#paint15_linear)"/>
<path fill-rule="evenodd" clip-rule="evenodd" d="M29.0658 19.8681H29.3479V21.3048H29.0658V20.7441H28.5366V21.3048H28.2544V19.8681H28.5366V20.4288H29.0658V19.8681Z" fill="url(#paint16_linear)"/>
<path d="M31.0765 19.8681H30.8296V21.3048H31.0765V19.8681Z" fill="url(#paint17_linear)"/>
<path fill-rule="evenodd" clip-rule="evenodd" d="M32.7698 19.8681H33.8633V21.3048H33.5811V20.1485H33.052V21.3048H32.7698V19.8681Z" fill="url(#paint18_linear)"/>
<path fill-rule="evenodd" clip-rule="evenodd" d="M35.6271 20.9894H36.1562V20.7441H35.874V20.4288H36.4384V21.3048H35.3449V19.8681H36.4384V20.1485H35.6271V20.9894Z" fill="url(#paint19_linear)"/>
<path fill-rule="evenodd" clip-rule="evenodd" d="M46.5269 13.5256L48.9961 26L32.5583 8.19946L39.6837 7.42857L43.6344 0L44.869 6.86793L63 4.90566L46.5269 13.5256ZM46.3861 23.1617L33.4757 9.18058L33.7932 9.21562L38.5199 11.6685L42.2237 6.76279C42.2237 6.76279 43.1761 5.50134 43.4583 7.18328L46.3861 23.1617Z" fill="url(#paint20_linear)"/>
<path fill-rule="evenodd" clip-rule="evenodd" d="M34.6395 10.4068L37.9905 14.0159L34.5689 19.0618H36.6148L39.084 15.2423L45.2923 21.9L42.5762 7.49841L38.8371 12.7194L34.6395 10.4068ZM41.5885 11.3879V14.3313L40.2128 13.5254L41.5885 11.3879Z" fill="url(#paint21_linear)"/>
<path fill-rule="evenodd" clip-rule="evenodd" d="M21.5527 9.91641C21.5527 9.91641 21.0589 10.7223 20.4592 11.0027C19.8948 11.283 19.1188 11.5283 19.1188 11.5283H23.9866C23.9866 11.5283 23.2106 11.2479 22.6462 11.0027C22.0466 10.7223 21.5527 9.91641 21.5527 9.91641Z" fill="url(#paint22_linear)"/>
<defs>
<linearGradient id="paint0_linear" x1="-33.5" y1="6.5" x2="13.7298" y2="69.1686" gradientUnits="userSpaceOnUse">
<stop stop-color="#EFD16E"/>
<stop offset="0.776351" stop-color="#613B02"/>
</linearGradient>
<linearGradient id="paint1_linear" x1="-33.5" y1="6.5" x2="13.7298" y2="69.1686" gradientUnits="userSpaceOnUse">
<stop stop-color="#EFD16E"/>
<stop offset="0.776351" stop-color="#613B02"/>
</linearGradient>
<linearGradient id="paint2_linear" x1="-33.5" y1="6.5" x2="13.7298" y2="69.1686" gradientUnits="userSpaceOnUse">
<stop stop-color="#EFD16E"/>
<stop offset="0.776351" stop-color="#613B02"/>
</linearGradient>
<linearGradient id="paint3_linear" x1="-33.5" y1="6.5" x2="13.7298" y2="69.1686" gradientUnits="userSpaceOnUse">
<stop stop-color="#EFD16E"/>
<stop offset="0.776351" stop-color="#613B02"/>
</linearGradient>
<linearGradient id="paint4_linear" x1="-33.5" y1="6.5" x2="13.7298" y2="69.1686" gradientUnits="userSpaceOnUse">
<stop stop-color="#EFD16E"/>
<stop offset="0.776351" stop-color="#613B02"/>
</linearGradient>
<linearGradient id="paint5_linear" x1="-33.5" y1="6.5" x2="13.7298" y2="69.1686" gradientUnits="userSpaceOnUse">
<stop stop-color="#EFD16E"/>
<stop offset="0.776351" stop-color="#613B02"/>
</linearGradient>
<linearGradient id="paint6_linear" x1="-33.5" y1="6.5" x2="13.7298" y2="69.1686" gradientUnits="userSpaceOnUse">
<stop stop-color="#EFD16E"/>
<stop offset="0.776351" stop-color="#613B02"/>
</linearGradient>
<linearGradient id="paint7_linear" x1="-33.5" y1="6.5" x2="13.7298" y2="69.1686" gradientUnits="userSpaceOnUse">
<stop stop-color="#EFD16E"/>
<stop offset="0.776351" stop-color="#613B02"/>
</linearGradient>
<linearGradient id="paint8_linear" x1="-33.5" y1="6.5" x2="13.7298" y2="69.1686" gradientUnits="userSpaceOnUse">
<stop stop-color="#EFD16E"/>
<stop offset="0.776351" stop-color="#613B02"/>
</linearGradient>
<linearGradient id="paint9_linear" x1="-33.5" y1="6.5" x2="13.7298" y2="69.1686" gradientUnits="userSpaceOnUse">
<stop stop-color="#EFD16E"/>
<stop offset="0.776351" stop-color="#613B02"/>
</linearGradient>
<linearGradient id="paint10_linear" x1="-33.5" y1="6.5" x2="13.7298" y2="69.1686" gradientUnits="userSpaceOnUse">
<stop stop-color="#EFD16E"/>
<stop offset="0.776351" stop-color="#613B02"/>
</linearGradient>
<linearGradient id="paint11_linear" x1="-33.5" y1="6.5" x2="13.7298" y2="69.1686" gradientUnits="userSpaceOnUse">
<stop stop-color="#EFD16E"/>
<stop offset="0.776351" stop-color="#613B02"/>
</linearGradient>
<linearGradient id="paint12_linear" x1="-33.5" y1="6.5" x2="13.7298" y2="69.1686" gradientUnits="userSpaceOnUse">
<stop stop-color="#EFD16E"/>
<stop offset="0.776351" stop-color="#613B02"/>
</linearGradient>
<linearGradient id="paint13_linear" x1="-33.5" y1="6.5" x2="13.7298" y2="69.1686" gradientUnits="userSpaceOnUse">
<stop stop-color="#EFD16E"/>
<stop offset="0.776351" stop-color="#613B02"/>
</linearGradient>
<linearGradient id="paint14_linear" x1="-33.5" y1="6.5" x2="13.7298" y2="69.1686" gradientUnits="userSpaceOnUse">
<stop stop-color="#EFD16E"/>
<stop offset="0.776351" stop-color="#613B02"/>
</linearGradient>
<linearGradient id="paint15_linear" x1="-33.5" y1="6.5" x2="13.7298" y2="69.1686" gradientUnits="userSpaceOnUse">
<stop stop-color="#EFD16E"/>
<stop offset="0.776351" stop-color="#613B02"/>
</linearGradient>
<linearGradient id="paint16_linear" x1="-33.5" y1="6.5" x2="13.7298" y2="69.1686" gradientUnits="userSpaceOnUse">
<stop stop-color="#EFD16E"/>
<stop offset="0.776351" stop-color="#613B02"/>
</linearGradient>
<linearGradient id="paint17_linear" x1="-33.5" y1="6.5" x2="13.7298" y2="69.1686" gradientUnits="userSpaceOnUse">
<stop stop-color="#EFD16E"/>
<stop offset="0.776351" stop-color="#613B02"/>
</linearGradient>
<linearGradient id="paint18_linear" x1="-33.5" y1="6.5" x2="13.7298" y2="69.1686" gradientUnits="userSpaceOnUse">
<stop stop-color="#EFD16E"/>
<stop offset="0.776351" stop-color="#613B02"/>
</linearGradient>
<linearGradient id="paint19_linear" x1="-33.5" y1="6.5" x2="13.7298" y2="69.1686" gradientUnits="userSpaceOnUse">
<stop stop-color="#EFD16E"/>
<stop offset="0.776351" stop-color="#613B02"/>
</linearGradient>
<linearGradient id="paint20_linear" x1="-33.5" y1="6.5" x2="13.7298" y2="69.1686" gradientUnits="userSpaceOnUse">
<stop stop-color="#EFD16E"/>
<stop offset="0.776351" stop-color="#613B02"/>
</linearGradient>
<linearGradient id="paint21_linear" x1="-33.5" y1="6.5" x2="13.7298" y2="69.1686" gradientUnits="userSpaceOnUse">
<stop stop-color="#EFD16E"/>
<stop offset="0.776351" stop-color="#613B02"/>
</linearGradient>
<linearGradient id="paint22_linear" x1="-33.5" y1="6.5" x2="13.7298" y2="69.1686" gradientUnits="userSpaceOnUse">
<stop stop-color="#EFD16E"/>
<stop offset="0.776351" stop-color="#613B02"/>
</linearGradient>
</defs>
</svg>
