<?xml version="1.0" encoding="utf-8"?>
<!-- Generator: Adobe Illustrator 22.0.1, SVG Export Plug-In . SVG Version: 6.00 Build 0)  -->
<svg version="1.1" id="Layer_1" xmlns="http://www.w3.org/2000/svg" xmlns:xlink="http://www.w3.org/1999/xlink" x="0px" y="0px"
	 viewBox="0 0 78 313" style="enable-background:new 0 0 78 313;" xml:space="preserve">
<style type="text/css">
	.st0{fill:#FFFFFF;filter:url(#Adobe_OpacityMaskFilter);}
	.st1{mask:url(#path-1-outside-1_2_);}
	.st2{fill:url(#SVGID_1_);}
</style>
<defs>
	<filter id="Adobe_OpacityMaskFilter" filterUnits="userSpaceOnUse" x="0.6" y="0.2" width="77.3" height="312">
		<feColorMatrix  type="matrix" values="1 0 0 0 0  0 1 0 0 0  0 0 1 0 0  0 0 0 1 0"/>
	</filter>
</defs>
<mask maskUnits="userSpaceOnUse" x="0.6" y="0.2" width="77.3" height="312" id="path-1-outside-1_2_">
	<rect x="0.6" y="-0.5" class="st0" width="78" height="313"/>
	<path d="M64.1,310.7l-51.7-21.6v-7.5l51.7-21.8v10.6L50.7,276v18.3l13.4,5.7V310.7z M41.4,290.9v-11.1l-15.7,5.5L41.4,290.9z
		 M8.8,295.5l-7.2-7.7v-5.5l7.2-7.6v7.6l-3.3,2.8l3.3,2.9V295.5z M64.1,255.5H25.3V247h3.6v-0.2c-1.6-0.8-2.8-2.1-3.6-4
		c-0.8-1.9-1.2-3.9-1.2-6.1c0-2.1,0.4-4,1.3-5.8c0.8-1.8,2-3.4,3.6-4.5c0.3-0.3,0.7-0.6,1.2-0.9c-0.5-0.3-0.9-0.6-1.2-1
		c-1.6-1.3-2.8-3-3.6-5c-0.8-2-1.2-4.1-1.2-6.4c0-5.1,1.6-9,4.8-11.8c1.2-1.1,2.5-2,3.9-2.5c1.4-0.6,2.9-1,4.3-1.2
		c1.5-0.2,3.2-0.3,5.2-0.3h21.8v9.3H43.4c-1.7,0-3.1,0.1-4.3,0.3c-1.2,0.2-2.3,0.5-3.1,1.1c-0.6,0.4-1.1,0.9-1.5,1.5
		c-0.4,0.6-0.8,1.3-1,2c-0.2,0.7-0.3,1.5-0.3,2.3c0,1.4,0.3,2.6,0.9,3.7c0.6,1.1,1.4,2,2.5,2.7c1.1,0.6,2.4,1,3.9,1.2
		c1.5,0.2,3.2,0.2,5.2,0.2h18.5v9.3H43.4c-1.7,0-3,0.1-4.1,0.3c-1.1,0.2-2.1,0.6-3,1.2c-1,0.6-1.8,1.5-2.3,2.6
		c-0.5,1.1-0.8,2.2-0.8,3.5c0,2.3,0.6,4,1.8,5.1c1.2,1.1,2.7,1.8,4.3,2.1c1.6,0.3,3.7,0.4,6.3,0.4h18.5V255.5z M64.1,170.1H25.3
		v-8.6h3.6v-0.2c-1.5-1.1-2.7-2.6-3.6-4.5c-0.8-1.9-1.3-3.9-1.3-6c0-2.1,0.4-4.1,1.3-6.1c0.8-2,2-3.6,3.5-5c0.4-0.5,0.8-0.8,1.1-1
		c1.9-1.4,3.9-2.2,5.9-2.6s4.8-0.5,8-0.5h20.1v9.3H45.8c-2.1,0-4,0.1-5.5,0.3c-1.5,0.2-2.8,0.6-3.9,1.3c-1,0.6-1.8,1.5-2.3,2.6
		c-0.6,1.1-0.9,2.3-0.9,3.6c0,1.3,0.3,2.5,0.9,3.7c0.6,1.2,1.4,2.1,2.5,2.8c1.2,0.7,2.6,1.1,4.2,1.3c1.6,0.2,3.5,0.2,5.7,0.2h17.6
		V170.1z M64.1,128.1H12.4v-9.3h15.9c-1.4-1-2.4-2.4-3.1-4.3c-0.7-1.8-1.1-3.7-1.1-5.7c0-2.1,0.5-4.2,1.4-6.3
		c0.9-2.1,2.2-3.8,3.8-5.2c1.3-1.1,2.6-1.9,4.1-2.5c1.5-0.5,2.9-0.9,4.3-1c1.4-0.1,3.2-0.2,5.5-0.2h21v9.3h-19
		c-2.4,0-4.4,0.2-6.1,0.5c-1.7,0.3-3.1,1.1-4.2,2.3c-1.1,1.2-1.7,2.9-1.7,5.1c0,2.8,1.1,4.9,3.3,6.4c1.1,0.6,2.3,1,3.7,1.2
		c1.4,0.2,3.1,0.2,5,0.2h18.8V128.1z M25.3,46.7h38.8v8.5h-5.3v0.1c2,1.4,3.6,3.3,4.8,5.8c1.2,2.4,1.8,4.9,1.8,7.3
		c0,2.9-0.6,5.6-1.7,8c-1.1,2.4-2.7,4.5-4.8,6.3c-3.9,3.2-8.6,4.9-14.1,4.9c-1.7,0-3.4-0.2-5.1-0.5c-1.7-0.3-3.2-0.9-4.6-1.6
		c-1.4-0.7-2.9-1.7-4.3-2.9c-2.3-2-4-4.1-5.1-6.5c-1.1-2.4-1.6-5-1.6-7.9c0-2.7,0.6-5.1,1.7-7.3c1.1-2.3,2.8-4.1,5-5.7h-5.5V46.7z
		 M44.6,55.6c-1.6,0-3.2,0.3-4.5,0.8c-1.4,0.5-2.6,1.3-3.7,2.3c-1,1-1.8,2.2-2.4,3.6c-0.6,1.4-0.9,2.9-0.9,4.5
		c0,3.4,1.1,6.2,3.4,8.4c2.2,2.2,5.1,3.2,8.5,3.2c3.1,0,5.8-1.1,8-3.4c2.2-2.3,3.2-5,3.2-8.1c0-2.2-0.5-4.1-1.5-5.9
		c-1-1.7-2.4-3.1-4.2-4C48.8,56.1,46.8,55.6,44.6,55.6z M77,71h-6.7v-7.4H77V71z M51.5,12V1.5c2.8,0.9,5.2,2.3,7.3,4.2
		c2.1,1.9,3.7,4.2,4.9,6.8c1.2,2.6,1.7,5.4,1.7,8.2c0,2.6-0.5,5.2-1.6,7.8c-1,2.6-2.5,4.8-4.2,6.6c-2,2.1-4.3,3.7-6.9,4.8
		c-2.6,1-5.3,1.6-8.2,1.6c-2.8,0-5.4-0.5-7.9-1.6c-2.5-1.1-4.6-2.6-6.5-4.5c-1.9-1.9-3.3-4.1-4.4-6.6c-1-2.5-1.6-5.2-1.6-8
		c0-2.8,0.6-5.6,1.8-8.3c1.2-2.7,2.8-5,5-6.9c2.1-2,4.6-3.3,7.3-4.1V12c-3.3,2-5,5-5,9c0,2.2,0.5,4.1,1.5,5.8c1,1.7,2.3,3,4.1,4
		c1.8,0.9,3.7,1.4,5.8,1.4c2.2,0,4.2-0.5,6-1.5c1.8-1,3.2-2.4,4.2-4.2c1-1.8,1.5-3.8,1.5-6c0-1.1-0.2-2.2-0.6-3.3
		c-0.4-1.1-0.9-2.1-1.6-2.9C53.3,13.4,52.4,12.6,51.5,12z"/>
</mask>
<g class="st1">
	
		<linearGradient id="SVGID_1_" gradientUnits="userSpaceOnUse" x1="-2.1493" y1="115.6363" x2="180.8694" y2="262.238" gradientTransform="matrix(1 0 0 -1 0 314)">
		<stop  offset="0" style="stop-color:#613B02"/>
		<stop  offset="1" style="stop-color:#EFD16E"/>
	</linearGradient>
	<path class="st2" d="M65.1,312.2l-53.7-22.4V281l53.7-22.6v12.7l-13.4,5.6v17l13.4,5.7V312.2z M13.4,288.4l49.7,20.7v-8.4L49.7,295
		v-19.6l13.4-5.6v-8.4l-49.7,20.9V288.4z M9.8,298.1l-9.2-9.8V282l9.2-9.7v10.5L7,285.1l2.8,2.4V298.1z M2.6,287.5l5.2,5.6v-4.6
		l-3.9-3.3l3.9-3.3v-4.6l-5.2,5.5V287.5z M42.4,292.3l-19.7-7l19.7-7V292.3z M28.7,285.3l11.7,4.1v-8.2L28.7,285.3z M65.1,256.5
		H24.3V246h1.8c-0.7-0.8-1.3-1.7-1.7-2.8c-0.8-2-1.3-4.2-1.3-6.4c0-2.2,0.5-4.3,1.4-6.3c0.9-2,2.2-3.6,3.8-4.9
		c0.1-0.1,0.1-0.1,0.2-0.2c-0.1-0.1-0.2-0.2-0.2-0.3c-1.7-1.4-2.9-3.2-3.8-5.3c-0.9-2.1-1.3-4.4-1.3-6.7c0-5.4,1.7-9.6,5.2-12.6
		c1.2-1.2,2.6-2.1,4.2-2.7c1.5-0.6,3-1,4.6-1.2c1.5-0.2,3.3-0.3,5.3-0.3h22.8v11.3H43.4c-1.6,0-3,0.1-4.2,0.3c-1.1,0.1-2,0.5-2.7,1
		c-0.5,0.3-0.9,0.8-1.3,1.3c-0.4,0.5-0.7,1.1-0.9,1.7c-0.2,0.6-0.3,1.3-0.3,2c0,1.2,0.3,2.3,0.7,3.3c0.5,1,1.2,1.7,2.1,2.3
		c1,0.5,2.1,0.9,3.5,1.1c1.4,0.2,3.1,0.2,5.1,0.2h19.5v11.3H43.4c-1.6,0-2.9,0.1-4,0.3c-1,0.1-1.8,0.5-2.6,1c-0.9,0.6-1.5,1.3-2,2.2
		c-0.5,0.9-0.7,2-0.7,3c0,2,0.5,3.5,1.5,4.4c1.1,1,2.3,1.6,3.8,1.8c1.6,0.2,3.6,0.4,6.1,0.4h19.5V256.5z M26.3,254.5h36.8v-7.3H45.6
		c-2.6,0-4.7-0.1-6.4-0.4c-1.9-0.3-3.5-1.1-4.9-2.3c-1.4-1.3-2.2-3.3-2.2-5.9c0-1.4,0.3-2.7,0.9-3.9c0.6-1.2,1.5-2.3,2.7-3
		c1-0.7,2.2-1.2,3.4-1.3c1.1-0.2,2.6-0.3,4.3-0.3h19.6v-7.3H45.6c-2.1,0-3.9-0.1-5.3-0.2c-1.6-0.2-3-0.7-4.2-1.4
		c-1.3-0.8-2.2-1.8-2.9-3.1c-0.6-1.3-1-2.7-1-4.2c0-0.9,0.1-1.8,0.4-2.6c0.3-0.8,0.6-1.6,1.1-2.3c0.5-0.7,1.1-1.3,1.8-1.8
		c1-0.7,2.1-1.1,3.5-1.3c1.2-0.2,2.7-0.3,4.4-0.3h19.6v-7.3H42.3c-2,0-3.7,0.1-5.1,0.3c-1.4,0.2-2.8,0.5-4.1,1.1
		c-1.3,0.5-2.5,1.3-3.6,2.3c-3,2.7-4.5,6.3-4.5,11.1c0,2.1,0.4,4.1,1.2,6c0.8,1.8,1.9,3.4,3.3,4.6l0.1,0.2c0.2,0.3,0.5,0.5,0.9,0.7
		l1.6,0.8l-1.5,0.9c-0.5,0.3-0.8,0.5-1,0.7l-0.1,0.1c-1.4,1.1-2.5,2.5-3.3,4.2c-0.8,1.7-1.2,3.5-1.2,5.4c0,2,0.4,3.9,1.1,5.7
		c0.7,1.7,1.7,2.8,3.1,3.5l0.6,0.3v1.8h-3.6V254.5z M65.1,171.1H24.3v-10.6h2.2c-0.8-1-1.5-2.1-2.1-3.3c-0.9-2-1.3-4.2-1.3-6.4
		c0-2.2,0.5-4.4,1.4-6.5c0.9-2.1,2.1-3.8,3.7-5.3c0.5-0.5,0.9-0.9,1.3-1.1c1.9-1.4,4.1-2.3,6.3-2.7c2.1-0.3,4.9-0.5,8.2-0.5h21.1
		V146H45.8c-2.1,0-3.9,0.1-5.4,0.3c-1.4,0.2-2.6,0.6-3.5,1.2c-0.8,0.5-1.5,1.3-2,2.2c-0.5,1-0.8,2-0.8,3.1c0,1.1,0.3,2.2,0.8,3.3
		c0.5,1,1.2,1.8,2.1,2.4c1.1,0.6,2.4,1,3.8,1.2c1.5,0.2,3.4,0.2,5.6,0.2h18.6V171.1z M26.3,169.1h36.8v-7.3H46.5
		c-2.3,0-4.2-0.1-5.8-0.2c-1.7-0.2-3.3-0.7-4.6-1.4c-1.2-0.7-2.2-1.8-2.9-3.2c-0.7-1.4-1-2.8-1-4.2c0-1.4,0.3-2.7,1-4
		c0.6-1.3,1.5-2.3,2.7-3c1.2-0.8,2.7-1.2,4.3-1.4c1.6-0.2,3.4-0.3,5.6-0.3h17.3v-7.3H44c-3.2,0-5.9,0.2-7.9,0.5
		c-1.9,0.3-3.8,1.1-5.5,2.4c-0.2,0.2-0.5,0.4-1,0.8l-0.1,0.1c-1.4,1.3-2.5,2.8-3.3,4.6c-0.8,1.8-1.2,3.7-1.2,5.7
		c0,1.9,0.4,3.8,1.2,5.6c0.7,1.7,1.8,3.1,3.2,4.1l0.4,0.3v1.7h-3.6V169.1z M65.1,129.1H11.4v-11.3h14.4c-0.7-0.8-1.2-1.8-1.6-2.9
		c-0.7-2-1.1-4-1.1-6c0-2.2,0.5-4.5,1.5-6.7c1-2.2,2.3-4,4-5.5c1.3-1.2,2.8-2.1,4.4-2.6c1.5-0.6,3.1-0.9,4.6-1.1
		c1.4-0.1,3.3-0.2,5.6-0.2h22V104h-20c-2.3,0-4.3,0.2-5.9,0.5c-1.5,0.3-2.7,0.9-3.7,2c-0.9,1-1.4,2.5-1.4,4.4c0,2.4,0.9,4.2,2.9,5.5
		c0.9,0.5,2,0.9,3.3,1.1c1.3,0.2,3,0.2,4.9,0.2h19.8V129.1z M13.4,127.1h49.7v-7.3H45.2c-2,0-3.7-0.1-5.1-0.2
		c-1.6-0.2-2.9-0.7-4.1-1.4c-2.6-1.7-3.8-4.1-3.8-7.2c0-2.5,0.7-4.5,2-5.8c1.2-1.3,2.8-2.2,4.7-2.5c1.7-0.4,3.9-0.6,6.3-0.6h18v-7.3
		h-20c-2.2,0-4,0.1-5.4,0.2c-1.3,0.1-2.7,0.5-4.1,1c-1.3,0.5-2.6,1.3-3.8,2.3c-1.5,1.3-2.6,2.9-3.5,4.8c-0.9,1.9-1.3,3.9-1.3,5.8
		c0,1.8,0.3,3.6,1,5.3c0.6,1.6,1.6,2.9,2.8,3.8l2.4,1.8H13.4V127.1z M44.7,88.7c-1.8,0-3.6-0.2-5.2-0.5c-1.8-0.4-3.4-0.9-4.9-1.7
		c-1.5-0.8-3-1.8-4.5-3.1c-2.4-2-4.2-4.4-5.3-6.9c-1.1-2.5-1.7-5.3-1.7-8.3c0-2.8,0.6-5.4,1.8-7.8c0.8-1.6,1.8-3,3.1-4.2h-3.7V45.7
		h40.8v10.5h-3.7c1.2,1.3,2.3,2.8,3.1,4.5c1.2,2.6,1.9,5.2,1.9,7.8c0,3-0.6,5.9-1.8,8.4c-1.2,2.6-2.9,4.8-5.1,6.6
		C55.4,87,50.4,88.7,44.7,88.7z M26.3,54.3h7.6l-2.6,1.8c-2,1.4-3.6,3.2-4.7,5.3c-1.1,2.1-1.6,4.4-1.6,6.9c0,2.7,0.5,5.2,1.6,7.5
		c1,2.2,2.6,4.3,4.8,6.2c1.3,1.2,2.7,2.1,4.1,2.8c1.3,0.7,2.8,1.2,4.4,1.5c1.6,0.3,3.2,0.5,4.9,0.5c5.3,0,9.8-1.6,13.5-4.6
		c1.9-1.6,3.5-3.6,4.6-5.9c1.1-2.3,1.6-4.8,1.6-7.6c0-2.3-0.6-4.6-1.7-6.9c-1.1-2.3-2.6-4.1-4.4-5.4l-0.4-0.3v-1.7h5.3v-6.5H26.3
		V54.3z M45,79.4c-3.7,0-6.8-1.2-9.2-3.5c-2.4-2.4-3.7-5.4-3.7-9.1c0-1.7,0.3-3.4,1-4.9c0.6-1.5,1.5-2.8,2.6-3.9
		c1.1-1.1,2.5-1.9,4-2.5c1.5-0.6,3.1-0.9,4.9-0.9c2.3,0,4.5,0.5,6.4,1.6c1.9,1,3.4,2.5,4.6,4.4c1.1,1.9,1.6,4,1.6,6.4
		c0,3.4-1.2,6.4-3.5,8.8C51.4,78.2,48.4,79.4,45,79.4z M44.6,56.6c-1.5,0-2.9,0.3-4.2,0.8c-1.3,0.5-2.4,1.2-3.3,2.1
		c-0.9,0.9-1.6,2-2.2,3.2c-0.5,1.3-0.8,2.7-0.8,4.1c0,3.1,1,5.6,3.1,7.7c2.1,2,4.6,3,7.8,3c2.9,0,5.3-1,7.2-3.1c2-2.1,3-4.5,3-7.4
		c0-2-0.5-3.8-1.4-5.4c-0.9-1.6-2.2-2.8-3.8-3.6C48.5,57,46.6,56.6,44.6,56.6z M78,72h-8.7v-9.4H78V72z M71.2,70H76v-5.4h-4.7V70z
		 M44.4,42.5c-2.9,0-5.7-0.6-8.3-1.7c-2.6-1.1-4.9-2.7-6.8-4.7c-2-2-3.5-4.3-4.6-7c-1.1-2.6-1.6-5.4-1.6-8.3c0-3,0.6-5.9,1.9-8.7
		c1.2-2.8,3-5.2,5.2-7.3c2.2-2.1,4.9-3.5,7.8-4.3l1.3-0.4v12.4l-0.5,0.3c-3.1,1.8-4.5,4.5-4.5,8.1c0,2,0.5,3.8,1.4,5.3
		c0.9,1.5,2.1,2.7,3.7,3.6c1.6,0.8,3.4,1.3,5.3,1.3c2,0,3.9-0.5,5.5-1.3c1.6-0.9,2.9-2.2,3.8-3.8c0.9-1.6,1.4-3.5,1.4-5.5
		c0-1-0.2-2-0.5-2.9c-0.3-1-0.8-1.9-1.5-2.7c-0.6-0.8-1.4-1.5-2.3-2l-0.5-0.3V0.2l1.3,0.4C54.6,1.5,57.2,3,59.4,5
		c2.2,2,3.9,4.4,5.1,7.2c1.2,2.8,1.8,5.7,1.8,8.6c0,2.7-0.6,5.5-1.6,8.2c-1.1,2.7-2.6,5-4.4,6.9c-2.1,2.2-4.6,3.9-7.3,5
		C50.3,42,47.4,42.5,44.4,42.5z M37.2,2.9c-2.1,0.8-4,1.9-5.7,3.5c-2,1.9-3.6,4.1-4.8,6.6c-1.1,2.5-1.7,5.2-1.7,7.9
		c0,2.6,0.5,5.2,1.5,7.6c1,2.4,2.4,4.5,4.2,6.3c1.8,1.8,3.9,3.2,6.2,4.3c2.3,1,4.8,1.5,7.5,1.5c2.7,0,5.3-0.5,7.8-1.5
		c2.5-1,4.7-2.5,6.6-4.5c1.7-1.7,3-3.9,4-6.3c1-2.4,1.5-4.9,1.5-7.4c0-2.7-0.6-5.3-1.7-7.8c-1.1-2.5-2.7-4.7-4.6-6.5
		c-1.6-1.5-3.5-2.7-5.6-3.5v8.5c0.9,0.6,1.7,1.3,2.3,2.2c0.8,1,1.4,2.1,1.8,3.2c0.4,1.2,0.6,2.4,0.6,3.6c0,2.4-0.5,4.6-1.6,6.5
		c-1.1,2-2.6,3.5-4.6,4.6c-2,1.1-4.1,1.6-6.5,1.6c-2.3,0-4.4-0.5-6.3-1.5c-1.9-1-3.4-2.5-4.5-4.3c-1.1-1.9-1.6-4-1.6-6.3
		c0-4.1,1.7-7.3,5-9.5V2.9z"/>
</g>
</svg>
