<?xml version="1.0" encoding="utf-8"?>
<!-- Generator: Adobe Illustrator 22.0.1, SVG Export Plug-In . SVG Version: 6.00 Build 0)  -->
<svg version="1.1" id="Layer_1" xmlns="http://www.w3.org/2000/svg" xmlns:xlink="http://www.w3.org/1999/xlink" x="0px" y="0px"
	 viewBox="0 0 64 308" style="enable-background:new 0 0 64 308;" xml:space="preserve">
<style type="text/css">
	.st0{fill:#FFFFFF;filter:url(#Adobe_OpacityMaskFilter);}
	.st1{mask:url(#path-1-outside-1_2_);}
	.st2{fill:url(#SVGID_1_);}
</style>
<defs>
	<filter id="Adobe_OpacityMaskFilter" filterUnits="userSpaceOnUse" x="0.5" y="0.2" width="62.6" height="307.2">
		<feColorMatrix  type="matrix" values="1 0 0 0 0  0 1 0 0 0  0 0 1 0 0  0 0 0 1 0"/>
	</filter>
</defs>
<mask maskUnits="userSpaceOnUse" x="0.5" y="0.2" width="62.6" height="307.2" id="path-1-outside-1_2_">
	<rect x="0.5" y="0.2" class="st0" width="63" height="308"/>
	<path d="M60.9,296.8v9.6H9.2v-14c0-1.9,0.1-3.4,0.2-4.6c0.1-1.2,0.3-2.5,0.8-3.8c0.4-1.3,1-2.6,1.8-3.8c1.4-2.1,3.3-3.8,5.6-5
		c2.3-1.2,4.8-1.8,7.4-1.8c1.7,0,3.3,0.2,5,0.7s3.1,1.2,4.6,2.1c1.4,1,2.7,2.1,3.7,3.4c0.9,1.1,1.6,2.4,2.1,3.9
		c0.5,1.4,0.8,2.9,0.9,4.4c0.1,1.5,0.2,3.1,0.2,5v4.1H60.9z M32,296.8v-1.7c0-3.4-0.2-5.9-0.5-7.4c-0.5-1.4-1.3-2.6-2.5-3.4
		c-1.1-0.8-2.4-1.3-3.9-1.3c-1.5,0-2.8,0.5-3.9,1.4c-1.1,0.9-1.8,2.1-2.2,3.6c-0.3,1.4-0.4,3.8-0.4,7.1v1.7H32z M60.9,268.1H9.2
		v-9.3H25c-1.4-1-2.4-2.5-3.1-4.3c-0.7-1.8-1.1-3.7-1.1-5.7c0-2.1,0.5-4.2,1.4-6.3c0.9-2.1,2.2-3.8,3.8-5.2c1.3-1.1,2.6-1.9,4.1-2.5
		c1.5-0.5,2.9-0.9,4.3-1c1.4-0.1,3.2-0.2,5.5-0.2h21v9.3h-19c-2.4,0-4.4,0.2-6.1,0.5c-1.7,0.3-3.1,1.1-4.2,2.3
		c-1.1,1.2-1.7,2.9-1.7,5.1c0,2.8,1.1,4.9,3.3,6.4c1.1,0.6,2.3,1,3.7,1.2c1.4,0.2,3.1,0.2,5,0.2h18.8V268.1z M60.9,226.1H22.1v-9.3
		h38.8V226.1z M17.6,225.1h-6.7v-7.4h6.7V225.1z M60.9,209.3H22.1v-8.5h3.6v-0.2c-1.6-0.8-2.8-2.1-3.6-4c-0.8-1.9-1.2-3.9-1.2-6.1
		c0-2.1,0.4-4,1.3-5.8c0.8-1.8,2-3.4,3.6-4.5c0.3-0.3,0.7-0.6,1.2-0.9c-0.5-0.3-0.9-0.6-1.2-1c-1.6-1.3-2.8-3-3.6-5
		c-0.8-2-1.2-4.1-1.2-6.4c0-5.1,1.6-9,4.8-11.8c1.2-1.1,2.5-2,3.9-2.5c1.4-0.6,2.9-1,4.3-1.2c1.5-0.2,3.2-0.3,5.2-0.3h21.8v9.3H40.2
		c-1.7,0-3.1,0.1-4.3,0.3c-1.2,0.2-2.3,0.5-3.1,1.1c-0.6,0.4-1.1,0.9-1.5,1.5c-0.4,0.6-0.8,1.3-1,2c-0.2,0.7-0.3,1.5-0.3,2.3
		c0,1.4,0.3,2.6,0.9,3.7c0.6,1.1,1.4,2,2.5,2.7c1.1,0.6,2.4,1,3.9,1.2c1.5,0.2,3.2,0.2,5.2,0.2h18.5v9.3H40.2c-1.7,0-3,0.1-4.1,0.3
		c-1.1,0.2-2.1,0.6-3,1.2c-1,0.6-1.8,1.5-2.3,2.6c-0.5,1.1-0.8,2.2-0.8,3.5c0,2.3,0.6,4,1.8,5.1c1.2,1.1,2.7,1.8,4.3,2.1
		c1.6,0.3,3.7,0.4,6.3,0.4h18.5V209.3z M22.1,84.5h38.8v8.5h-5.3v0.1c2,1.4,3.6,3.3,4.8,5.8c1.2,2.4,1.8,4.9,1.8,7.3
		c0,2.9-0.6,5.6-1.7,8c-1.1,2.4-2.7,4.5-4.8,6.3c-3.9,3.2-8.6,4.9-14.1,4.9c-1.7,0-3.4-0.2-5.1-0.5c-1.7-0.3-3.2-0.9-4.6-1.6
		c-1.4-0.7-2.9-1.7-4.3-2.9c-2.3-2-4-4.1-5.1-6.5c-1.1-2.4-1.6-5-1.6-7.9c0-2.7,0.6-5.1,1.7-7.3c1.1-2.3,2.8-4.1,5-5.7h-5.5V84.5z
		 M41.4,93.4c-1.6,0-3.2,0.3-4.5,0.8c-1.4,0.5-2.6,1.3-3.7,2.3c-1,1-1.8,2.2-2.4,3.6c-0.6,1.4-0.9,2.9-0.9,4.5
		c0,3.4,1.1,6.2,3.4,8.4c2.2,2.2,5.1,3.2,8.5,3.2c3.1,0,5.8-1.1,8-3.4c2.2-2.3,3.2-5,3.2-8.1c0-2.2-0.5-4.1-1.5-5.9
		c-1-1.7-2.4-3.1-4.2-4C45.6,93.9,43.6,93.4,41.4,93.4z M9.1,104.3l-1.6,5.3c-1.9-0.2-3.4-1-4.4-2.3c-1-1.3-1.5-3-1.5-5.1
		c0-1.5,0.3-2.8,1-4C3.1,97,4,96.2,5,95.6c1-0.6,2.2-0.9,3.6-0.9c1.1,0,2,0.3,2.8,1c0.7,0.6,1.6,1.6,2.6,3c0.4,0.7,0.8,1.3,1.2,1.6
		c0.3,0.3,0.8,0.5,1.4,0.5v5H16c-1.2,0-2.2-0.4-3.2-1.1c-1-0.7-1.8-1.6-2.3-2.7c-0.2-0.3-0.4-0.5-0.5-0.7c-0.2-0.2-0.3-0.3-0.4-0.4
		c-0.1-0.1-0.3-0.1-0.5-0.1c-1.2,0-1.8,0.6-1.8,1.9C7.2,103.7,7.8,104.3,9.1,104.3z M60.9,77.6H22.1V69h3.6v-0.2
		c-1.5-1.1-2.7-2.6-3.6-4.5c-0.8-1.9-1.3-3.9-1.3-6c0-2.1,0.4-4.1,1.3-6c0.8-2,2-3.6,3.5-5c0.4-0.5,0.8-0.8,1.1-1
		c1.9-1.4,3.9-2.2,5.9-2.6c2.1-0.3,4.8-0.5,8-0.5h20.1v9.3H42.6c-2.1,0-4,0.1-5.5,0.3c-1.5,0.2-2.8,0.6-3.9,1.3
		c-1,0.6-1.8,1.5-2.3,2.6C30.3,57.9,30,59,30,60.3c0,1.3,0.3,2.5,0.9,3.7c0.6,1.2,1.4,2.1,2.5,2.8c1.2,0.7,2.6,1.1,4.2,1.3
		c1.6,0.2,3.5,0.2,5.7,0.2h17.6V77.6z M60.9,35.6H9.2v-9.3H25c-1.4-1-2.4-2.4-3.1-4.3c-0.7-1.8-1.1-3.7-1.1-5.7
		c0-2.1,0.5-4.2,1.4-6.3C23.2,8,24.5,6.3,26,4.9c1.3-1.1,2.6-1.9,4.1-2.5c1.5-0.5,2.9-0.9,4.3-1s3.2-0.2,5.5-0.2h21v9.3h-19
		c-2.4,0-4.4,0.2-6.1,0.5c-1.7,0.3-3.1,1.1-4.2,2.3c-1.1,1.2-1.7,2.9-1.7,5.1c0,2.8,1.1,4.9,3.3,6.4c1.1,0.6,2.3,1,3.7,1.2
		c1.4,0.2,3.1,0.2,5,0.2h18.8V35.6z"/>
</mask>
<g class="st1">
	
		<linearGradient id="SVGID_1_" gradientUnits="userSpaceOnUse" x1="-6.8594" y1="113.9119" x2="176.6176" y2="260.4121" gradientTransform="matrix(1 0 0 -1 0 310)">
		<stop  offset="0" style="stop-color:#613B02"/>
		<stop  offset="1" style="stop-color:#EFD16E"/>
	</linearGradient>
	<path class="st2" d="M61.9,307.4H8.2v-15c0-1.9,0.1-3.5,0.2-4.7c0.1-1.3,0.4-2.6,0.8-4c0.4-1.4,1-2.8,1.9-4c1.5-2.3,3.5-4.1,6-5.4
		c2.5-1.3,5.1-2,7.8-2c1.8,0,3.5,0.2,5.2,0.7c1.7,0.5,3.3,1.2,4.9,2.3c1.5,1,2.8,2.2,3.9,3.6c1,1.2,1.7,2.6,2.2,4.2
		c0.5,1.5,0.8,3.1,1,4.6c0.1,1.5,0.2,3.2,0.2,5v3.1h19.6V307.4z M10.2,305.4h49.7v-7.6H40.3v-5.1c0-1.8-0.1-3.4-0.2-4.9
		c-0.1-1.4-0.4-2.8-0.9-4.2c-0.4-1.3-1.1-2.5-1.9-3.6c-1-1.2-2.1-2.2-3.5-3.1c-1.3-0.9-2.8-1.6-4.3-2c-1.5-0.4-3.1-0.6-4.7-0.6
		c-2.4,0-4.7,0.6-6.9,1.7c-2.2,1.1-3.9,2.7-5.3,4.7c-0.7,1.1-1.3,2.3-1.6,3.5c-0.4,1.2-0.6,2.4-0.7,3.6c-0.1,1.2-0.2,2.7-0.2,4.6
		V305.4z M33,297.8H17.5v-2.7c0-3.4,0.1-5.8,0.4-7.3c0.5-1.7,1.3-3.1,2.6-4.1c1.3-1.1,2.8-1.6,4.6-1.6c1.7,0,3.2,0.5,4.5,1.5
		c1.3,1,2.2,2.3,2.8,3.9l0,0.1c0.4,1.6,0.6,4.1,0.6,7.6V297.8z M19.5,295.8H31v-0.7c0-3.3-0.2-5.7-0.5-7.1c-0.4-1.2-1.1-2.2-2.1-2.9
		c-1-0.7-2.1-1.1-3.3-1.1c-1.3,0-2.4,0.4-3.3,1.2c-0.9,0.8-1.6,1.8-1.9,3.1c-0.2,1.3-0.4,3.6-0.4,6.9V295.8z M61.9,269.1H8.2v-11.3
		h14.4c-0.7-0.8-1.2-1.8-1.6-2.9c-0.7-2-1.1-4-1.1-6c0-2.2,0.5-4.5,1.5-6.7c1-2.2,2.3-4,4-5.5c1.3-1.2,2.8-2.1,4.4-2.6
		c1.5-0.6,3.1-0.9,4.6-1.1c1.4-0.1,3.3-0.2,5.6-0.2h22v11.3h-20c-2.3,0-4.3,0.2-5.9,0.5c-1.5,0.3-2.7,0.9-3.7,2
		c-0.9,1-1.4,2.5-1.4,4.4c0,2.4,0.9,4.2,2.9,5.5c0.9,0.5,2,0.9,3.3,1.1c1.3,0.2,3,0.2,4.9,0.2h19.8V269.1z M10.2,267.1h49.7v-7.3
		H42.1c-2,0-3.7-0.1-5.1-0.2c-1.6-0.2-2.9-0.7-4.1-1.4c-2.6-1.7-3.8-4.1-3.8-7.2c0-2.5,0.7-4.5,2-5.8c1.2-1.3,2.8-2.2,4.7-2.5
		c1.7-0.4,3.9-0.6,6.3-0.6h18v-7.3h-20c-2.2,0-4,0.1-5.4,0.2c-1.3,0.1-2.7,0.5-4.1,1c-1.3,0.5-2.6,1.3-3.8,2.3
		c-1.5,1.3-2.6,2.9-3.5,4.8c-0.9,1.9-1.3,3.9-1.3,5.8c0,1.8,0.3,3.6,1,5.3c0.6,1.6,1.6,2.9,2.8,3.8l2.4,1.8H10.2V267.1z M61.9,227.1
		H21.1v-11.3h40.8V227.1z M23.1,225.1h36.8v-7.3H23.1V225.1z M18.6,226.1H9.9v-9.4h8.7V226.1z M11.9,224.1h4.7v-5.4h-4.7V224.1z
		 M61.9,210.3H21.1v-10.5h1.8c-0.7-0.8-1.3-1.7-1.7-2.8c-0.8-2-1.3-4.2-1.3-6.4c0-2.2,0.5-4.3,1.4-6.3c0.9-2,2.2-3.6,3.8-4.9
		c0.1-0.1,0.1-0.1,0.2-0.2c-0.1-0.1-0.2-0.2-0.2-0.3c-1.7-1.4-2.9-3.2-3.8-5.3c-0.9-2.1-1.3-4.4-1.3-6.7c0-5.4,1.7-9.6,5.2-12.6
		c1.2-1.2,2.6-2.1,4.2-2.7c1.5-0.6,3-1,4.6-1.2c1.5-0.2,3.3-0.3,5.3-0.3h22.8v11.3H40.2c-1.6,0-3,0.1-4.2,0.3c-1.1,0.1-2,0.5-2.7,1
		c-0.5,0.3-0.9,0.8-1.3,1.3c-0.4,0.5-0.7,1.1-0.9,1.7c-0.2,0.6-0.3,1.3-0.3,2c0,1.2,0.3,2.3,0.7,3.3c0.5,1,1.2,1.7,2.1,2.3
		c1,0.5,2.1,0.9,3.5,1.1c1.4,0.2,3.1,0.2,5.1,0.2h19.5v11.3H40.2c-1.6,0-2.9,0.1-4,0.3c-1,0.1-1.8,0.5-2.6,1c-0.9,0.6-1.5,1.3-2,2.2
		c-0.5,0.9-0.7,2-0.7,3c0,2,0.5,3.5,1.5,4.4c1.1,1,2.4,1.6,3.8,1.8c1.6,0.2,3.6,0.4,6.1,0.4h19.5V210.3z M23.1,208.3h36.8V201H42.4
		c-2.6,0-4.7-0.1-6.4-0.4c-1.9-0.3-3.5-1.1-4.9-2.3c-1.5-1.3-2.2-3.3-2.2-5.9c0-1.4,0.3-2.7,0.9-3.9c0.6-1.2,1.5-2.3,2.7-3
		c1-0.7,2.2-1.2,3.4-1.3c1.1-0.2,2.6-0.3,4.3-0.3h19.6v-7.3H42.4c-2.1,0-3.8-0.1-5.3-0.2c-1.6-0.2-3-0.7-4.3-1.4
		c-1.3-0.8-2.2-1.8-2.9-3.1c-0.6-1.3-1-2.7-1-4.2c0-0.9,0.1-1.8,0.4-2.6c0.3-0.8,0.6-1.6,1.1-2.3c0.5-0.7,1.1-1.3,1.8-1.8
		c1-0.7,2.1-1.1,3.5-1.3c1.2-0.2,2.7-0.3,4.4-0.3h19.6v-7.3H39.1c-2,0-3.7,0.1-5.1,0.3c-1.4,0.2-2.8,0.5-4.1,1.1
		c-1.3,0.5-2.5,1.3-3.6,2.3c-3,2.7-4.5,6.3-4.5,11.1c0,2.1,0.4,4.1,1.2,6c0.8,1.8,1.9,3.4,3.3,4.6l0.1,0.2c0.2,0.3,0.5,0.5,0.9,0.7
		l1.6,0.8l-1.5,0.9c-0.5,0.3-0.8,0.5-1,0.7l-0.1,0.1c-1.4,1.1-2.5,2.5-3.3,4.2c-0.8,1.7-1.2,3.5-1.2,5.4c0,2,0.4,3.9,1.1,5.7
		c0.7,1.7,1.7,2.8,3.1,3.5l0.6,0.3v1.8h-3.6V208.3z M41.5,126.5c-1.8,0-3.6-0.2-5.3-0.5c-1.8-0.4-3.4-0.9-4.9-1.7
		c-1.5-0.8-3-1.8-4.5-3.1c-2.4-2-4.2-4.4-5.3-6.9c-1.1-2.5-1.7-5.3-1.7-8.3c0-2.8,0.6-5.4,1.8-7.8c0.8-1.6,1.8-3,3.1-4.2h-3.7V83.5
		h40.8v10.5h-3.7c1.2,1.3,2.3,2.8,3.1,4.5c1.2,2.6,1.9,5.2,1.9,7.8c0,3-0.6,5.9-1.8,8.4c-1.2,2.6-2.9,4.8-5.1,6.6
		C52.2,124.8,47.3,126.5,41.5,126.5z M23.1,92.1h7.6l-2.6,1.8c-2,1.4-3.6,3.2-4.7,5.3c-1.1,2.1-1.6,4.4-1.6,6.9
		c0,2.7,0.5,5.2,1.6,7.5c1,2.2,2.6,4.3,4.8,6.2c1.3,1.2,2.7,2.1,4.1,2.8c1.3,0.7,2.8,1.2,4.4,1.5c1.6,0.3,3.2,0.5,4.9,0.5
		c5.3,0,9.8-1.6,13.5-4.6c1.9-1.6,3.5-3.7,4.6-5.9c1.1-2.3,1.6-4.8,1.6-7.6c0-2.3-0.6-4.6-1.7-6.9c-1.1-2.3-2.6-4.1-4.4-5.4
		l-0.4-0.3v-1.7h5.3v-6.5H23.1V92.1z M41.9,117.2c-3.7,0-6.8-1.2-9.2-3.5c-2.4-2.4-3.7-5.4-3.7-9.1c0-1.7,0.3-3.4,1-4.9
		c0.6-1.5,1.5-2.8,2.6-3.9c1.1-1.1,2.5-1.9,4-2.5c1.5-0.6,3.1-0.9,4.9-0.9c2.3,0,4.5,0.5,6.4,1.6c1.9,1,3.4,2.5,4.6,4.4
		c1.1,1.9,1.6,4,1.6,6.4c0,3.4-1.2,6.4-3.5,8.8C48.2,116,45.3,117.2,41.9,117.2z M41.4,94.4c-1.5,0-2.9,0.3-4.2,0.8
		c-1.3,0.5-2.4,1.2-3.3,2.1c-0.9,0.9-1.6,2-2.2,3.2c-0.5,1.3-0.8,2.7-0.8,4.1c0,3.1,1,5.6,3.1,7.7c2.1,2,4.6,3,7.8,3
		c2.9,0,5.3-1,7.2-3.1c2-2.1,3-4.5,3-7.4c0-2-0.5-3.8-1.4-5.4c-0.9-1.6-2.2-2.8-3.8-3.6C45.3,94.8,43.5,94.4,41.4,94.4z M8.2,110.7
		l-0.8-0.1c-2.2-0.3-3.9-1.2-5.1-2.7c-1.2-1.5-1.7-3.4-1.7-5.7c0-1.7,0.4-3.2,1.1-4.5c0.7-1.3,1.7-2.3,2.9-3
		c1.2-0.7,2.6-1.1,4.1-1.1c1.4,0,2.5,0.4,3.4,1.2c0.8,0.7,1.7,1.7,2.8,3.2c0.5,0.9,0.8,1.3,1,1.4c0.1,0.1,0.4,0.2,0.7,0.2h1v7H16
		c-1.4,0-2.6-0.4-3.8-1.2c-0.7-0.5-1.4-1.1-1.9-1.8L8.2,110.7z M8.6,95.6c-1.2,0-2.1,0.3-3,0.8c-0.9,0.5-1.6,1.3-2.2,2.3
		c-0.6,1-0.8,2.1-0.8,3.5c0,1.8,0.4,3.3,1.3,4.5c0.7,0.9,1.7,1.5,2.9,1.8l1-3.3c-1-0.4-1.6-1.3-1.6-2.5c0-1.8,1.1-2.9,2.8-2.9
		c0.4,0,0.8,0.1,1.1,0.3c0.2,0.1,0.4,0.3,0.6,0.6l0.6,0.8c0.5,0.9,1.2,1.7,2,2.3c0.7,0.5,1.4,0.8,2.1,0.8v-3.1
		c-0.4-0.1-0.8-0.3-1.1-0.6c-0.4-0.4-0.8-1-1.3-1.8c-0.9-1.3-1.8-2.2-2.4-2.8C10.2,95.9,9.5,95.6,8.6,95.6z M9,101.7
		c-0.6,0-0.8,0.2-0.8,0.9c0,0.5,0,0.7,0.9,0.7h1.1c-0.2-0.3-0.4-0.6-0.5-0.9l-0.5-0.6C9.1,101.7,9,101.7,9,101.7z M61.9,78.6H21.1
		V68h2.2c-0.8-1-1.5-2.1-2.1-3.3c-0.9-2-1.3-4.2-1.3-6.4c0-2.2,0.5-4.4,1.4-6.5c0.9-2.1,2.1-3.8,3.7-5.3c0.5-0.5,0.9-0.9,1.3-1.1
		c1.9-1.4,4.1-2.3,6.3-2.7c2.1-0.3,4.9-0.5,8.2-0.5h21.1v11.3H42.6c-2.1,0-3.9,0.1-5.4,0.3c-1.4,0.2-2.6,0.6-3.5,1.2
		c-0.8,0.5-1.5,1.3-2,2.2c-0.5,1-0.8,2-0.8,3.1c0,1.1,0.3,2.2,0.8,3.3c0.5,1,1.2,1.8,2.1,2.4c1.1,0.6,2.4,1,3.8,1.2
		c1.5,0.2,3.4,0.2,5.6,0.2h18.6V78.6z M23.1,76.6h36.8v-7.3H43.3c-2.3,0-4.2-0.1-5.8-0.2c-1.7-0.2-3.3-0.7-4.6-1.4
		c-1.2-0.7-2.2-1.8-2.9-3.2c-0.7-1.4-1-2.8-1-4.2c0-1.4,0.3-2.7,1-4c0.6-1.3,1.5-2.3,2.7-3c1.2-0.8,2.7-1.2,4.3-1.4
		c1.5-0.2,3.4-0.3,5.6-0.3h17.3v-7.3H40.8c-3.2,0-5.9,0.2-7.9,0.5c-1.9,0.3-3.8,1.1-5.5,2.4c-0.2,0.2-0.5,0.4-1,0.8L26.4,48
		c-1.4,1.3-2.5,2.8-3.3,4.6c-0.8,1.8-1.2,3.7-1.2,5.7c0,1.9,0.4,3.8,1.2,5.6c0.7,1.7,1.8,3.1,3.2,4.1l0.4,0.3V70h-3.6V76.6z
		 M61.9,36.6H8.2V25.3h14.4c-0.7-0.8-1.2-1.8-1.6-2.9c-0.7-2-1.1-4-1.1-6c0-2.2,0.5-4.5,1.5-6.7c1-2.2,2.3-4,4-5.5
		c1.3-1.2,2.8-2.1,4.4-2.6c1.5-0.6,3.1-0.9,4.6-1.1c1.4-0.1,3.3-0.2,5.6-0.2h22v11.3h-20c-2.3,0-4.3,0.2-5.9,0.5
		c-1.5,0.3-2.7,0.9-3.7,2c-0.9,1-1.4,2.5-1.4,4.4c0,2.4,0.9,4.2,2.9,5.5c0.9,0.5,2,0.9,3.3,1.1c1.3,0.2,3,0.2,4.9,0.2h19.8V36.6z
		 M10.2,34.6h49.7v-7.3H42.1c-2,0-3.7-0.1-5.1-0.2c-1.6-0.2-2.9-0.7-4.1-1.4C30.2,24,29,21.5,29,18.4c0-2.5,0.7-4.5,2-5.8
		c1.2-1.3,2.8-2.2,4.7-2.5c1.7-0.4,3.9-0.6,6.3-0.6h18V2.2h-20c-2.2,0-4,0.1-5.4,0.2c-1.3,0.1-2.7,0.5-4.1,1
		c-1.3,0.5-2.6,1.3-3.8,2.3c-1.5,1.3-2.6,2.9-3.5,4.8c-0.9,1.9-1.3,3.9-1.3,5.8c0,1.8,0.3,3.6,1,5.3c0.6,1.6,1.6,2.9,2.8,3.8
		l2.4,1.8H10.2V34.6z"/>
</g>
</svg>
