<?xml version="1.0" encoding="utf-8"?>
<!-- Generator: Adobe Illustrator 22.0.1, SVG Export Plug-In . SVG Version: 6.00 Build 0)  -->
<svg version="1.1" id="Layer_1" xmlns="http://www.w3.org/2000/svg" xmlns:xlink="http://www.w3.org/1999/xlink" x="0px" y="0px"
	 viewBox="0 0 395 78" style="enable-background:new 0 0 395 78;" xml:space="preserve">
<style type="text/css">
	.st0{opacity:0.23;}
	.st1{fill:#FFFFFF;filter:url(#Adobe_OpacityMaskFilter);}
	.st2{mask:url(#path-1-outside-1_2_);}
	.st3{fill:url(#SVGID_1_);}
</style>
<g class="st0">
	<defs>
		<filter id="Adobe_OpacityMaskFilter" filterUnits="userSpaceOnUse" x="0.1" y="0.4" width="393.9" height="76.6">
			<feColorMatrix  type="matrix" values="1 0 0 0 0  0 1 0 0 0  0 0 1 0 0  0 0 0 1 0"/>
		</filter>
	</defs>
	<mask maskUnits="userSpaceOnUse" x="0.1" y="0.4" width="393.9" height="76.6" id="path-1-outside-1_2_">
		<rect x="0.1" y="-0.2" class="st1" width="394" height="78"/>
		<path d="M40.8,60.7h11.1c-1.3,3-3.1,5.7-5.6,8.1s-5.4,4.1-8.5,5.4c-3.2,1.3-6.5,1.9-9.8,1.9c-3.6,0-7-0.7-10.3-2.1
			c-3.3-1.4-6.2-3.4-8.6-5.9c-2.5-2.5-4.4-5.4-5.8-8.7C1.8,56,1.1,52.5,1.1,48.8c0-4.8,1.2-9.2,3.6-13.3c2.4-4.1,5.7-7.4,9.7-9.8
			S22.9,22,27.6,22c3.5,0,6.8,0.6,10.1,1.9c3.3,1.3,6.2,3.1,8.7,5.5c2.5,2.4,4.5,5.1,5.8,8.3H41.3c-1.6-2-3.6-3.6-6.1-4.7
			c-2.4-1.2-4.9-1.7-7.5-1.7c-3.1,0-6,0.8-8.6,2.5c-2.6,1.6-4.7,3.8-6.2,6.5c-1.5,2.7-2.3,5.7-2.3,8.9c0,3,0.8,5.9,2.3,8.6
			c1.6,2.7,3.7,4.8,6.3,6.5c2.6,1.6,5.5,2.4,8.4,2.4C32.7,66.7,37,64.7,40.8,60.7z M82.7,22c4.9,0,9.3,1.2,13.5,3.6
			c4.1,2.4,7.4,5.7,9.8,9.9c2.4,4.2,3.6,8.7,3.6,13.6c0,4.9-1.2,9.4-3.7,13.5c-2.4,4.1-5.7,7.4-9.8,9.8C92,74.8,87.5,76,82.7,76
			c-3.6,0-7-0.7-10.3-2.1c-3.3-1.4-6.2-3.3-8.7-5.8c-2.5-2.5-4.5-5.4-5.8-8.7c-1.4-3.3-2.1-6.8-2.1-10.4c0-4.9,1.2-9.4,3.6-13.6
			c2.4-4.2,5.7-7.5,9.8-9.9C73.3,23.2,77.8,22,82.7,22z M82.7,31.3c-3.2,0-6.1,0.8-8.8,2.4c-2.6,1.6-4.7,3.7-6.3,6.4
			c-1.5,2.7-2.3,5.6-2.3,8.8c0,2.3,0.5,4.5,1.4,6.7c0.9,2.2,2.2,4.1,3.8,5.7c1.6,1.7,3.5,3,5.6,3.9c2.1,0.9,4.3,1.4,6.6,1.4
			c3.1,0,6-0.8,8.6-2.4c2.7-1.6,4.8-3.8,6.4-6.5c1.6-2.8,2.4-5.7,2.4-8.8c0-3.2-0.8-6.1-2.3-8.8c-1.5-2.7-3.6-4.9-6.3-6.4
			C88.8,32.1,85.9,31.3,82.7,31.3z M72.2,19.4l7.7-7.2h5.5l7.6,7.2h-7.6l-2.8-3.3l-2.9,3.3H72.2z M91.7,13.6l-2.5-4.8l11.8-6.9
			l2.7,5.5L91.7,13.6z M117.2,74.7V23H128l21.5,37.8V23h9.6v51.7h-10.6l-21.7-37.7v37.7H117.2z M218.9,38.2h-11.5
			c-1-1.4-2.3-2.7-3.7-3.7c-1.4-1-3-1.8-4.7-2.4c-1.7-0.6-3.4-0.9-5.2-0.9c-4.6,0-8.5,1.5-12,4.5c-1.2,1-2.2,2.3-3.1,3.7
			c-0.9,1.4-1.6,2.9-2.1,4.6c-0.5,1.6-0.8,3.2-0.8,4.8c0,2.2,0.4,4.3,1.3,6.5c0.9,2.2,2.1,4,3.6,5.5c1.8,1.9,3.9,3.3,6.2,4.3
			c2.3,1,4.7,1.5,7.2,1.5c3,0,6-0.9,8.8-2.6c2.8-1.7,4.9-4,6.3-6.7h-21.6v-9h33.7v1.1c0,4.9-1.3,9.4-3.8,13.5
			c-2.5,4.1-5.9,7.2-10.1,9.6c-4.2,2.3-8.8,3.5-13.6,3.5c-3.7,0-7.2-0.7-10.6-2c-3.3-1.4-6.3-3.3-8.9-5.7c-2.6-2.4-4.6-5.3-6.1-8.5
			c-1.5-3.3-2.2-6.8-2.2-10.6s0.7-7.3,2.2-10.6c1.5-3.3,3.5-6.2,6-8.7c2.6-2.5,5.5-4.4,8.9-5.8c3.4-1.4,6.9-2.1,10.5-2.1
			c3.5,0,7,0.7,10.3,2c3.4,1.3,6.3,3.2,8.9,5.7C215.7,32.1,217.6,35,218.9,38.2z M247.4,74.7V23h9.6v20.7h18.5V23h9.6v51.7h-9.6V53
			H257v21.7H247.4z M295,74.7V23h9.6v51.7H295z M314.6,74.7V23h27.8v9.3h-18.2v11.9h17.4v9.3h-17.4v11.9h18.2v9.3H314.6z
			 M317.8,19.5l7.7-7.2h5.4l7.7,7.2H331l-2.8-3.3l-2.9,3.3H317.8z M337.3,13.6l-2.5-4.8l11.8-6.9l2.7,5.5L337.3,13.6z M351.1,74.7
			V23h10.8l21.5,37.8V23h9.6v51.7h-10.6l-21.7-37.7v37.7H351.1z"/>
	</mask>
	<g class="st2">
		
			<linearGradient id="SVGID_1_" gradientUnits="userSpaceOnUse" x1="183.1113" y1="101.9618" x2="214.5408" y2="-31.1402" gradientTransform="matrix(1 0 0 -1 0 80)">
			<stop  offset="0" style="stop-color:#613B02"/>
			<stop  offset="1" style="stop-color:#EFD16E"/>
		</linearGradient>
		<path class="st3" d="M194,77c-3.8,0-7.5-0.7-10.9-2.1c-3.4-1.4-6.5-3.4-9.2-5.9c-2.7-2.5-4.8-5.5-6.3-8.9c-1.5-3.4-2.3-7.1-2.3-11
			s0.8-7.6,2.2-11c1.5-3.4,3.6-6.4,6.2-9c2.6-2.6,5.7-4.6,9.2-6c6.9-2.8,14.6-2.9,21.6-0.1c3.5,1.4,6.6,3.3,9.2,5.9
			c2.7,2.5,4.7,5.5,6,8.9l0.5,1.4h-13.4l-0.3-0.4c-1-1.3-2.1-2.5-3.5-3.4c-1.4-1-2.9-1.7-4.5-2.2c-1.6-0.5-3.2-0.8-4.9-0.8
			c-4.3,0-8.1,1.4-11.3,4.2c-1.1,1-2.1,2.1-2.9,3.5c-0.8,1.3-1.5,2.8-2,4.3c-0.5,1.5-0.7,3-0.7,4.5c0,2,0.4,4.1,1.3,6.1
			c0.9,2,2,3.8,3.4,5.2c1.7,1.8,3.7,3.1,5.8,4.1c2.2,0.9,4.5,1.4,6.8,1.4c2.8,0,5.6-0.8,8.3-2.4c2.1-1.3,3.8-2.9,5.1-4.9h-20.9v-11
			h35.7v2.1c0,5.1-1.3,9.8-3.9,14c-2.6,4.2-6.1,7.5-10.5,9.9C203.7,75.8,199,77,194,77z M193.8,23c-3.5,0-6.9,0.7-10.1,2
			c-3.2,1.3-6.1,3.2-8.5,5.6c-2.4,2.4-4.4,5.2-5.8,8.4c-1.4,3.1-2.1,6.6-2.1,10.2c0,3.6,0.7,7,2.1,10.2c1.4,3.1,3.4,5.9,5.8,8.2
			c2.5,2.3,5.3,4.2,8.5,5.5c3.2,1.3,6.6,1.9,10.2,1.9c4.7,0,9.1-1.1,13.2-3.4c4.1-2.2,7.3-5.3,9.7-9.2c2.4-3.9,3.6-8.2,3.6-12.9
			v-0.1h-31.7v7H211l-0.7,1.5c-1.5,2.9-3.7,5.3-6.7,7.1c-3,1.8-6.1,2.7-9.3,2.7c-2.6,0-5.2-0.5-7.6-1.6c-2.4-1.1-4.6-2.6-6.5-4.5
			c-1.6-1.6-2.9-3.6-3.8-5.8c-0.9-2.3-1.4-4.6-1.4-6.9c0-1.6,0.3-3.3,0.8-5c0.5-1.7,1.3-3.3,2.2-4.8c1-1.5,2.1-2.8,3.3-3.9
			c3.6-3.1,7.8-4.7,12.6-4.7c1.9,0,3.7,0.3,5.5,0.9c1.8,0.6,3.5,1.4,5,2.5c1.4,1,2.6,2.1,3.6,3.5h9.4c-1.2-2.5-2.9-4.8-5-6.8
			c-2.5-2.4-5.4-4.2-8.6-5.5C200.6,23.7,197.2,23,193.8,23z M82.7,77c-3.7,0-7.3-0.7-10.7-2.1c-3.4-1.4-6.5-3.5-9-6
			c-2.6-2.6-4.6-5.6-6.1-9c-1.4-3.4-2.2-7-2.2-10.7c0-5,1.3-9.8,3.8-14.1c2.5-4.3,5.9-7.8,10.2-10.2c4.3-2.5,9-3.8,14-3.8
			c5,0,9.7,1.3,14,3.8c4.3,2.5,7.7,5.9,10.2,10.2c2.5,4.3,3.8,9,3.8,14.1c0,5.1-1.3,9.8-3.8,14c-2.5,4.3-5.9,7.7-10.2,10.1
			C92.4,75.8,87.7,77,82.7,77z M82.7,23c-4.7,0-9,1.2-13,3.5c-4,2.3-7.2,5.5-9.5,9.5c-2.3,4-3.5,8.4-3.5,13.1c0,3.4,0.7,6.8,2,10
			c1.3,3.1,3.2,6,5.6,8.4c2.4,2.4,5.2,4.3,8.4,5.6c3.2,1.3,6.5,2,9.9,2c4.7,0,9-1.2,13-3.5c4-2.3,7.1-5.5,9.4-9.4
			c2.3-4,3.5-8.3,3.5-13c0-4.7-1.2-9.1-3.5-13.1c-2.3-4-5.5-7.2-9.5-9.5C91.7,24.2,87.3,23,82.7,23z M27.9,77
			c-3.7,0-7.3-0.7-10.7-2.2c-3.4-1.5-6.4-3.5-8.9-6.1c-2.5-2.6-4.6-5.6-6-9c-1.4-3.4-2.2-7.1-2.2-10.8c0-4.9,1.3-9.6,3.8-13.8
			c2.5-4.3,5.9-7.7,10.1-10.2c4.2-2.5,8.8-3.8,13.7-3.8c3.6,0,7.1,0.7,10.4,2c3.4,1.3,6.4,3.2,9,5.7c2.6,2.5,4.6,5.4,6,8.7l0.6,1.4
			H40.8l-0.3-0.4c-1.5-1.9-3.4-3.4-5.7-4.4c-2.3-1.1-4.6-1.6-7.1-1.6c-2.9,0-5.6,0.8-8,2.3c-2.4,1.5-4.4,3.6-5.8,6.2
			c-1.4,2.5-2.1,5.4-2.1,8.4c0,2.8,0.7,5.6,2.2,8.1c1.5,2.5,3.5,4.6,6,6.1c2.5,1.5,5.1,2.3,7.9,2.3c4.6,0,8.7-1.9,12.3-5.7l0.3-0.3
			h13L52.8,61c-1.3,3.1-3.3,6-5.9,8.4c-2.6,2.4-5.6,4.3-8.9,5.6C34.8,76.4,31.4,77,27.9,77z M27.6,23c-4.5,0-8.8,1.2-12.7,3.5
			C11,28.8,7.9,32,5.6,36c-2.3,4-3.5,8.3-3.5,12.8c0,3.5,0.7,6.9,2,10c1.4,3.2,3.2,6,5.6,8.4c2.4,2.4,5.2,4.3,8.3,5.7
			c6.1,2.6,13,2.7,19.4,0.2c3.1-1.2,5.8-3,8.2-5.2c2-1.9,3.6-4,4.8-6.3h-9.1c-3.9,4-8.4,6-13.4,6c-3.2,0-6.2-0.9-9-2.6
			c-2.8-1.7-5-4-6.7-6.8c-1.6-2.9-2.5-5.9-2.5-9.1c0-3.3,0.8-6.5,2.4-9.3c1.6-2.9,3.8-5.2,6.5-6.9c2.7-1.7,5.8-2.6,9.1-2.6
			c2.7,0,5.4,0.6,7.9,1.8c2.4,1.1,4.5,2.7,6.1,4.6h8.9c-1.2-2.5-2.9-4.7-4.9-6.6c-2.4-2.3-5.2-4.1-8.4-5.3C34.3,23.7,31,23,27.6,23z
			 M394,75.7h-12.2l-20.1-34.9v34.9h-11.6V22h12.4l20,35V22H394V75.7z M383,73.7h9.1V24h-7.6v40.5L361.3,24h-9.2v49.7h7.6V33.3
			L383,73.7z M343.4,75.7h-29.8V22h29.8v11.3h-18.2v9.9h17.4v11.3h-17.4v9.9h18.2V75.7z M315.6,73.7h25.8v-7.3h-18.2V52.5h17.4v-7.3
			h-17.4V31.3h18.2V24h-25.8V73.7z M305.6,75.7H294V22h11.6V75.7z M296,73.7h7.6V24H296V73.7z M286,75.7h-11.6V54H258v21.7h-11.6V22
			H258v20.7h16.5V22H286V75.7z M276.5,73.7h7.6V24h-7.6v20.7H256V24h-7.6v49.7h7.6V52h20.5V73.7z M160.1,75.7h-12.2l-20.1-34.9v34.9
			h-11.6V22h12.4l20,35V22h11.6V75.7z M149,73.7h9.1V24h-7.6v40.5L127.4,24h-9.2v49.7h7.6V33.3L149,73.7z M82.7,67.7
			c-2.4,0-4.8-0.5-7-1.5c-2.2-1-4.2-2.4-5.9-4.1c-1.7-1.8-3-3.8-4-6.1c-1-2.3-1.4-4.7-1.4-7.1c0-3.3,0.8-6.5,2.5-9.3
			c1.6-2.8,3.9-5.1,6.6-6.8c2.8-1.7,5.9-2.5,9.3-2.5s6.5,0.8,9.3,2.5c2.8,1.7,5,3.9,6.6,6.8c1.6,2.8,2.5,6,2.5,9.3
			c0,3.3-0.9,6.4-2.5,9.3c-1.6,2.9-3.9,5.2-6.7,6.9C89,66.8,85.9,67.7,82.7,67.7z M82.7,32.3c-3,0-5.8,0.7-8.2,2.2
			C72,36,70,38.1,68.5,40.6c-1.5,2.5-2.2,5.3-2.2,8.3c0,2.2,0.4,4.3,1.3,6.3c0.9,2,2.1,3.9,3.6,5.4c1.5,1.6,3.3,2.8,5.3,3.7
			c2,0.9,4,1.3,6.2,1.3c2.9,0,5.6-0.8,8.1-2.3c2.5-1.5,4.5-3.6,6-6.2c1.5-2.6,2.3-5.4,2.3-8.3c0-3-0.7-5.8-2.2-8.3
			c-1.5-2.5-3.5-4.6-5.9-6.1C88.4,33.1,85.7,32.3,82.7,32.3z M341.1,20.5h-10.6l-2.3-2.8l-2.4,2.8h-10.6l9.9-9.2h6.2L341.1,20.5z
			 M331.5,18.5h4.6l-5.5-5.2h-4.6l-5.6,5.2h4.6l3.3-3.9L331.5,18.5z M95.5,20.4H84.9l-2.3-2.8l-2.4,2.8H69.7l9.8-9.2h6.3L95.5,20.4z
			 M85.9,18.4h4.6l-5.5-5.2h-4.7l-5.6,5.2h4.6l3.3-3.9L85.9,18.4z M336.9,15l-3.4-6.5l13.5-8l3.7,7.3L336.9,15z M336.1,9.2l1.6,3.1
			L348,6.9l-1.8-3.6L336.1,9.2z M91.3,14.9l-3.4-6.5l13.5-8l3.7,7.3L91.3,14.9z M90.5,9.1l1.6,3.1l10.2-5.4l-1.8-3.6L90.5,9.1z"/>
	</g>
</g>
</svg>
