<?xml version="1.0" encoding="utf-8"?>
<!-- Generator: Adobe Illustrator 22.0.1, SVG Export Plug-In . SVG Version: 6.00 Build 0)  -->
<svg version="1.1" id="Layer_1" xmlns="http://www.w3.org/2000/svg" xmlns:xlink="http://www.w3.org/1999/xlink" x="0px" y="0px"
	 viewBox="0 0 334 73" style="enable-background:new 0 0 334 73;" xml:space="preserve">
<style type="text/css">
	.st0{opacity:0.23;}
	.st1{fill:#FFFFFF;filter:url(#Adobe_OpacityMaskFilter);}
	.st2{mask:url(#path-1-outside-1_2_);}
	.st3{fill:url(#SVGID_1_);}
</style>
<g class="st0">
	<defs>
		<filter id="Adobe_OpacityMaskFilter" filterUnits="userSpaceOnUse" x="0.8" y="0.1" width="332.4" height="72.7">
			<feColorMatrix  type="matrix" values="1 0 0 0 0  0 1 0 0 0  0 0 1 0 0  0 0 0 1 0"/>
		</filter>
	</defs>
	<mask maskUnits="userSpaceOnUse" x="0.8" y="0.1" width="332.4" height="72.7" id="path-1-outside-1_2_">
		<rect x="0.8" y="0.1" class="st1" width="333" height="73"/>
		<path d="M11.4,71.7H1.8V20h14c1.9,0,3.4,0.1,4.6,0.2c1.2,0.1,2.5,0.3,3.8,0.8c1.3,0.4,2.6,1,3.8,1.8c2.1,1.4,3.8,3.3,5,5.6
			c1.2,2.3,1.8,4.8,1.8,7.4c0,1.7-0.2,3.3-0.7,5c-0.5,1.6-1.2,3.1-2.1,4.6c-1,1.4-2.1,2.7-3.3,3.7c-1.1,0.9-2.4,1.6-3.9,2.1
			c-1.4,0.5-2.9,0.8-4.4,0.9c-1.5,0.1-3.1,0.2-5,0.2h-4.1V71.7z M11.4,42.8h1.7c3.4,0,5.9-0.2,7.4-0.5c1.4-0.5,2.6-1.3,3.4-2.5
			s1.3-2.4,1.3-3.9c0-1.5-0.5-2.8-1.4-3.9c-0.9-1.1-2.1-1.8-3.6-2.2c-1.4-0.3-3.8-0.4-7.1-0.4h-1.7V42.8z M41,71.7V20h9.6v20.7h18.5
			V20h9.6v51.7h-9.6V50H50.6v21.7H41z M88.6,71.7V20h9.6v51.7H88.6z M108.3,71.7V20h13.1l13.9,39.5l14-39.5h13v51.7h-9.6V32.9
			l-13.4,38.8h-8.1l-13.4-38.8v38.8H108.3z M186.6,71.7L208.2,20h7.5l21.8,51.7h-10.6l-5.6-13.4H203l-5.7,13.4H186.6z M206.5,49
			h11.1L212,33.4L206.5,49z M210.4,8.6L205.1,7c0.2-1.9,1-3.4,2.3-4.4c1.3-1,3-1.5,5.2-1.5c2.2,0,4,0.7,5.4,2c1.4,1.3,2.1,3,2.1,5
			c0,1.1-0.3,2-1,2.8c-0.6,0.7-1.6,1.6-3,2.6c-0.7,0.4-1.2,0.8-1.5,1.1c-0.3,0.3-0.5,0.8-0.5,1.4h-5v-0.5c0-1.2,0.4-2.2,1.1-3.2
			c0.7-1,1.6-1.7,2.6-2.3c0.3-0.3,0.6-0.4,0.8-0.6c0.2-0.2,0.3-0.3,0.4-0.4c0.1-0.1,0.1-0.3,0.1-0.5c0-1.2-0.6-1.8-1.9-1.8
			C211,6.7,210.4,7.3,210.4,8.6z M242.7,71.7V20h10.8l21.5,37.8V20h9.6v51.7H274l-21.7-37.7v37.7H242.7z M294.5,71.7V20h9.6v20.7
			h18.5V20h9.6v51.7h-9.6V50h-18.5v21.7H294.5z"/>
	</mask>
	<g class="st2">
		
			<linearGradient id="SVGID_1_" gradientUnits="userSpaceOnUse" x1="149.392" y1="94.0238" x2="182.7297" y2="-30.9385" gradientTransform="matrix(1 0 0 -1 0 74)">
			<stop  offset="0" style="stop-color:#613B02"/>
			<stop  offset="1" style="stop-color:#EFD16E"/>
		</linearGradient>
		<path class="st3" d="M333.2,72.7h-11.6V51h-16.5v21.7h-11.6V19h11.6v20.7h16.5V19h11.6V72.7z M323.6,70.7h7.6V21h-7.6v20.7h-20.5
			V21h-7.6v49.7h7.6V49h20.5V70.7z M285.7,72.7h-12.2l-20.1-34.9v34.9h-11.6V19h12.4l20,35V19h11.6V72.7z M274.6,70.7h9.1V21h-7.6
			v40.5L252.9,21h-9.2v49.7h7.6V30.3L274.6,70.7z M239,72.7h-12.7l-5.6-13.4h-17l-5.7,13.4h-12.8L207.5,19h8.8L239,72.7z
			 M227.6,70.7h8.4L215,21h-6.2l-20.7,49.7h8.4l5.7-13.4H222L227.6,70.7z M163.3,72.7h-11.6V38.9l-11.7,33.8h-9.6l-11.7-33.8v33.8
			h-11.6V19h14.8l13.2,37.5L148.6,19h14.7V72.7z M153.7,70.7h7.6V21H150l-14.8,41.5L120.6,21h-11.4v49.7h7.6V32.9l1.9-0.3l13.1,38.1
			h6.7l13.1-38.1l1.9,0.3V70.7z M99.2,72.7H87.6V19h11.6V72.7z M89.6,70.7h7.6V21h-7.6V70.7z M79.7,72.7H68.1V51H51.6v21.7H40V19
			h11.6v20.7h16.5V19h11.6V72.7z M70.1,70.7h7.6V21h-7.6v20.7H49.6V21H42v49.7h7.6V49h20.5V70.7z M12.4,72.7H0.8V19h15
			c1.9,0,3.5,0.1,4.7,0.2c1.3,0.1,2.6,0.4,4,0.8c1.4,0.4,2.8,1.1,4,1.9c2.3,1.5,4.1,3.5,5.4,6c1.3,2.5,2,5.1,2,7.8
			c0,1.8-0.2,3.5-0.7,5.2c-0.5,1.7-1.2,3.3-2.2,4.9c-1,1.5-2.2,2.8-3.6,3.9c-1.2,1-2.6,1.7-4.2,2.2c-1.5,0.5-3.1,0.8-4.6,1
			c-1.5,0.1-3.2,0.2-5,0.2h-3.1V72.7z M2.8,70.7h7.6V51.2h5.1c1.8,0,3.4-0.1,4.9-0.2c1.4-0.1,2.8-0.4,4.2-0.9
			c1.3-0.4,2.5-1.1,3.6-1.9c1.2-1,2.2-2.1,3.1-3.5c0.9-1.3,1.6-2.8,2-4.3c0.4-1.5,0.6-3.1,0.6-4.7c0-2.4-0.6-4.7-1.7-6.9
			c-1.1-2.2-2.7-3.9-4.7-5.3c-1.1-0.7-2.3-1.3-3.5-1.6c-1.2-0.4-2.4-0.6-3.6-0.7c-1.2-0.1-2.7-0.2-4.6-0.2h-13V70.7z M218.9,50H205
			l7-19.7L218.9,50z M207.9,48h8.2L212,36.4L207.9,48z M13.1,43.8h-2.7V28.3h2.7c3.4,0,5.8,0.1,7.3,0.4c1.7,0.5,3.1,1.3,4.1,2.6
			c1.1,1.3,1.6,2.8,1.6,4.6c0,1.7-0.5,3.2-1.5,4.5c-1,1.3-2.3,2.2-3.9,2.8l-0.1,0C19.1,43.6,16.6,43.8,13.1,43.8z M12.4,41.8h0.7
			c3.3,0,5.7-0.2,7.1-0.5c1.2-0.4,2.2-1.1,2.9-2.1c0.7-1,1.1-2.1,1.1-3.3c0-1.3-0.4-2.4-1.2-3.3c-0.8-0.9-1.8-1.6-3.1-1.9
			c-1.3-0.2-3.6-0.4-6.9-0.4h-0.7V41.8z M215,17h-7v-1.5c0-1.4,0.4-2.6,1.3-3.8c0.5-0.7,1.1-1.3,1.8-1.9L204,7.7l0.1-0.8
			c0.2-2.2,1.1-3.9,2.6-5.1c1.5-1.2,3.4-1.7,5.8-1.7c2.5,0,4.5,0.8,6.1,2.3c1.6,1.5,2.4,3.5,2.4,5.7c0,1.4-0.4,2.5-1.2,3.4
			c-0.7,0.8-1.7,1.7-3.2,2.8l-0.1,0.1c-0.6,0.3-1,0.7-1.3,0.9c-0.1,0.1-0.2,0.2-0.2,0.7V17z M210.1,15h3.1c0.1-0.4,0.3-0.8,0.6-1.1
			c0.4-0.4,1-0.9,1.7-1.3c1.3-1,2.3-1.8,2.8-2.4c0.5-0.6,0.7-1.3,0.7-2.1c0-1.7-0.6-3.1-1.8-4.3c-1.2-1.2-2.7-1.7-4.7-1.7
			c-1.9,0-3.4,0.4-4.5,1.3c-0.9,0.7-1.5,1.7-1.7,2.9l3.4,1c0.4-1,1.3-1.6,2.5-1.6c1.8,0,2.9,1.1,2.9,2.8c0,0.4-0.1,0.7-0.2,1
			c-0.1,0.2-0.3,0.4-0.6,0.6c-0.2,0.2-0.5,0.4-0.9,0.6l-0.1,0.1c-0.9,0.5-1.7,1.2-2.3,2C210.4,13.6,210.2,14.3,210.1,15z M212.1,7.7
			c-0.5,0-0.7,0-0.7,0.9v1.1c0.3-0.2,0.5-0.4,0.8-0.5l0.7-0.5c0,0,0.1-0.1,0.1-0.1C213,7.9,212.9,7.7,212.1,7.7z"/>
	</g>
</g>
</svg>
