<?xml version="1.0" encoding="utf-8"?>
<!-- Generator: Adobe Illustrator 22.0.1, SVG Export Plug-In . SVG Version: 6.00 Build 0)  -->
<svg version="1.1" id="Layer_1" xmlns="http://www.w3.org/2000/svg" xmlns:xlink="http://www.w3.org/1999/xlink" x="0px" y="0px"
	 viewBox="0 0 343 76" style="enable-background:new 0 0 343 76;" xml:space="preserve">
<style type="text/css">
	.st0{opacity:0.23;enable-background:new    ;}
	.st1{fill:url(#SVGID_1_);}
</style>
<g class="st0">
	
		<linearGradient id="SVGID_1_" gradientUnits="userSpaceOnUse" x1="153.6341" y1="98.5658" x2="188.6235" y2="-30.8798" gradientTransform="matrix(1 0 0 -1 0 78)">
		<stop  offset="0" style="stop-color:#613B02"/>
		<stop  offset="1" style="stop-color:#EFD16E"/>
	</linearGradient>
	<path class="st1" d="M266.5,75.6h-9.4v-8.7h9.4V75.6z M258.1,74.6h7.4v-6.7h-7.4V74.6z M316.7,66c-3.7,0-7.3-0.7-10.7-2.2
		c-3.4-1.5-6.4-3.5-8.9-6.1c-2.5-2.6-4.6-5.6-6-9c-1.4-3.4-2.2-7.1-2.2-10.8c0-4.9,1.3-9.6,3.8-13.8c2.5-4.3,5.9-7.7,10.1-10.2
		c4.2-2.5,8.8-3.8,13.7-3.8c3.6,0,7.1,0.7,10.5,2c3.4,1.3,6.4,3.2,9,5.7c2.6,2.5,4.6,5.4,6,8.7l0.6,1.4h-12.9l-0.3-0.4
		c-1.5-1.9-3.4-3.4-5.7-4.4c-2.3-1.1-4.6-1.6-7.1-1.6c-2.9,0-5.6,0.8-8,2.3c-2.4,1.5-4.4,3.6-5.8,6.2c-1.4,2.5-2.1,5.4-2.1,8.4
		c0,2.8,0.7,5.6,2.2,8.1c1.5,2.5,3.5,4.6,6,6.1c2.5,1.5,5.1,2.3,7.9,2.3c4.6,0,8.7-1.9,12.3-5.7l0.3-0.3h13l-0.6,1.4
		c-1.3,3.1-3.3,6-5.9,8.4c-2.6,2.4-5.6,4.3-8.9,5.6C323.5,65.4,320.1,66,316.7,66z M293.1,25.2c-2.2,3.9-3.2,8.2-3.2,12.7
		c0,3.6,0.7,7.1,2.1,10.4c1.4,3.3,3.4,6.2,5.8,8.7c2.4,2.5,5.3,4.5,8.6,5.9c6.3,2.7,13.5,2.8,20.1,0.2c3.2-1.2,6-3.1,8.5-5.4
		c2.5-2.3,4.4-5,5.6-8.1l-11.1,0c-3.8,4-8.1,6-13,6c-3,0-5.8-0.8-8.4-2.4c-2.6-1.6-4.8-3.8-6.3-6.5c-1.5-2.7-2.3-5.6-2.3-8.6
		c0-3.2,0.8-6.2,2.3-8.9c1.5-2.7,3.6-4.9,6.2-6.5c2.6-1.6,5.5-2.5,8.6-2.5c2.6,0,5.1,0.6,7.5,1.7c2.4,1.2,4.5,2.7,6.1,4.7h10.9
		c-1.3-3.1-3.2-5.9-5.6-8.2l-0.3-0.3c-2.3-2.1-4.9-3.8-7.8-5L293.1,25.2z M316.4,11.5c-4.6,0-9,1.2-12.9,3.6c-3.6,2.1-6.6,5-8.8,8.5
		L325,12.9C322.2,12,319.3,11.5,316.4,11.5z M288.7,64.7H276l-5.6-13.4h-17l-5.7,13.4h-12.8l0.6-1.4L257.3,11h8.8L288.7,64.7z
		 M276.7,63.7h10.6L265.5,12v0H258l-21.6,51.7H247l5.7-13.4h18.3L276.7,63.7z M231.7,64.7h-11.6V43h-16.5v21.7H192V11h11.6v20.7
		h16.5V11h11.6V64.7z M221.1,63.7h9.6V12h-9.6v20.7h-18.5V12H193v51.7h9.6V42h18.5V63.7z M184.2,64.7h-12.2l-0.3-0.5l-19.8-34.4
		v34.9h-11.6V11h12.4l20,35V11h11.6V64.7z M172.5,63.7h10.6V12h-9.6v37.8L152,12l-10.8,0v51.7h9.6V26.1L172.5,63.7z M113.6,64.7H102
		V30.9L90.4,64.7h-9.6L69.2,30.9v33.8H57.6V11h14.8l13.2,37.5L98.9,11h14.7V64.7z M103,63.7h9.6V12h-13l-14,39.5L71.7,12v0H58.6
		v51.7h9.6V27.9l1-0.2l12.4,36h8.1l12.4-36l1,0.2V63.7z M54.8,64.7H42.1l-5.6-13.4h-17l-5.7,13.4H1L23.4,11h8.8l0.3,0.6L54.8,64.7z
		 M42.7,63.7h10.6l0,0L31.5,12v0H24L2.5,63.7h10.6l5.7-13.4h18.3L42.7,63.7z M267.3,41h-11.1l5.5-15.7L267.3,41z M257.6,40h8.2
		l-4.1-11.7L257.6,40z M33.4,41H22.3l5.5-15.7L33.4,41z M23.7,40H32l-4.1-11.7L23.7,40z M40.9,9.5H30.4L28,6.7l-2.4,2.8H15.1
		l9.8-9.2h6.3L40.9,9.5z M30.8,8.5h7.6l-7.6-7.2l-5.5,0l-7.7,7.2l7.6,0L28,5.2L30.8,8.5z"/>
</g>
</svg>
