<?xml version="1.0" encoding="utf-8"?>
<!-- Generator: Adobe Illustrator 22.0.1, SVG Export Plug-In . SVG Version: 6.00 Build 0)  -->
<svg version="1.1" id="Layer_1" xmlns="http://www.w3.org/2000/svg" xmlns:xlink="http://www.w3.org/1999/xlink" x="0px" y="0px"
	 viewBox="0 0 323 65" style="enable-background:new 0 0 323 65;" xml:space="preserve">
<style type="text/css">
	.st0{opacity:0.23;enable-background:new    ;}
	.st1{fill:url(#SVGID_1_);}
</style>
<g class="st0">
	
		<linearGradient id="SVGID_1_" gradientUnits="userSpaceOnUse" x1="147.72" y1="84.1399" x2="174.9478" y2="-27.4753" gradientTransform="matrix(1 0 0 -1 0 66)">
		<stop  offset="0" style="stop-color:#613B02"/>
		<stop  offset="1" style="stop-color:#EFD16E"/>
	</linearGradient>
	<path class="st1" d="M322,64.7h-12.2l-0.3-0.5l-19.8-34.4v34.9h-11.6V11h12.4l20,35V11H322V64.7z M310.4,63.7H321V12h-9.6v37.8
		L289.9,12v0h-10.8v51.7h9.6V26.1L310.4,63.7z M275.3,64.7h-12.7L257,51.4h-17l-5.7,13.4h-12.8l0.6-1.4L243.9,11h8.8L275.3,64.7z
		 M263.3,63.7l10.6,0L252,12v0l-7.5,0L223,63.7h10.6l5.7-13.4h18.3L263.3,63.7z M218.3,64.7h-11.6V43h-16.5v21.7h-11.6V11h11.6v20.7
		h16.5V11h11.6V64.7z M207.7,63.7h9.6V12h-9.6v20.7h-18.5V12h-9.6v51.7h9.6V42h18.5V63.7z M170.7,64.7h-12.2l-0.3-0.5l-19.8-34.4
		v34.9h-11.6V11h12.4l20,35V11h11.6V64.7z M159.1,63.7h10.6V12h-9.6v37.8L138.6,12l0,0h-10.8v51.7h9.6V26.1L159.1,63.7z M87.8,64.7
		H76.3V44.9L58.6,11h12.8l10.6,22.5L92.7,11h12.8L87.8,44.9V64.7z M77.3,63.7h9.6V44.6l17-32.6l-10.5,0L82.1,35.8L70.8,12H60.2
		l17,32.6V63.7z M56.8,64.7H45.2V30.9L33.6,64.7H24L12.4,30.9v33.8H0.8V11h14.8l13.2,37.5L42.1,11h14.7V64.7z M46.2,63.7h9.6V12h-13
		l-14,39.5L14.8,12v0H1.8v51.7h9.6V27.9l1-0.2l12.4,36h8.1l12.4-36l1,0.2V63.7z M253.9,41h-11.1l5.5-15.7L253.9,41z M244.2,40h8.2
		l-4.1-11.7L244.2,40z M75.7,9.7l-3.5-6.2L72.8,3c1.5-1.4,3.5-2.2,5.9-2.2c1,0,2.2,0.3,3.6,0.8c0.6,0.2,1.1,0.4,1.5,0.5
		c0.5,0.1,0.7,0.1,0.7,0.1c1,0,2-0.4,2.9-1.2l0.9-0.8l3.6,6.1L91.3,7c-2.6,2.3-5.3,3-8,2.1c-0.7-0.2-1.4-0.4-2.1-0.6
		c-1.8-0.6-3.1-0.3-4.6,0.6L75.7,9.7z M79.5,7.2c0.6,0,1.3,0.1,2,0.3c0.7,0.2,1.4,0.4,2.1,0.6c2.4,0.8,4.7,0.2,7-1.9L88,1.9
		c-1.1,0.9-2.3,1.4-3.6,1.4c-0.2,0-0.5-0.1-0.9-0.2c-0.4-0.1-1-0.3-1.6-0.5c-1.3-0.5-2.4-0.8-3.3-0.8c-2.1,0-3.9,0.6-5.2,1.9
		l2.6,4.6C77.1,7.6,78.3,7.2,79.5,7.2z M261.4,9.5h-10.5l-2.3-2.8l-2.4,2.8h-10.5l9.8-9.2h6.3L261.4,9.5z M251.4,8.5h7.6l-7.6-7.2
		h-5.5l-7.7,7.2l7.6,0l2.9-3.3L251.4,8.5z"/>
</g>
</svg>
