<?xml version="1.0" encoding="utf-8"?>
<!-- Generator: Adobe Illustrator 22.0.1, SVG Export Plug-In . SVG Version: 6.00 Build 0)  -->
<svg version="1.1" id="Layer_1" xmlns="http://www.w3.org/2000/svg" xmlns:xlink="http://www.w3.org/1999/xlink" x="0px" y="0px"
	 viewBox="0 0 68 290" style="enable-background:new 0 0 68 290;" xml:space="preserve">
<style type="text/css">
	.st0{fill:#FFFFFF;filter:url(#Adobe_OpacityMaskFilter);}
	.st1{mask:url(#path-1-outside-1_2_);}
	.st2{fill:url(#SVGID_1_);}
</style>
<defs>
	<filter id="Adobe_OpacityMaskFilter" filterUnits="userSpaceOnUse" x="1" y="0.4" width="66.7" height="289">
		<feColorMatrix  type="matrix" values="1 0 0 0 0  0 1 0 0 0  0 0 1 0 0  0 0 0 1 0"/>
	</filter>
</defs>
<mask maskUnits="userSpaceOnUse" x="1" y="0.4" width="66.7" height="289" id="path-1-outside-1_2_">
	<rect x="1" y="0.4" class="st0" width="67" height="290"/>
	<path d="M53.7,288.4H2v-13.1l39.5-13.9L2,247.4v-13h51.7v9.6H14.9l38.8,13.4v8.1l-38.8,13.4h38.8V288.4z M66.7,222.6l-16.6-7.1
		l-35.2,14.2v-10.6l24.8-8.9l-24.8-9.3v-10.6l51.7,22.3V222.6z M10.5,216l-4.6,2.6c-1.3-1.3-1.9-3-1.9-5.2c0-0.9,0.3-2,0.8-3.3
		c0.5-1.3,0.7-2.1,0.7-2.5c0-1.3-0.5-2.5-1.4-3.6l4.4-2.6c0.5,0.5,0.9,1,1.2,1.5c0.3,0.5,0.6,1.1,0.8,1.6c0.2,0.6,0.3,1.2,0.3,1.8
		c0,0.7-0.1,1.4-0.3,2.1c-0.2,0.7-0.4,1.4-0.6,2.1c-0.2,0.7-0.3,1.3-0.3,2C9.4,213.8,9.8,215,10.5,216z M53.7,166.1H14.9v-8.6h3.6
		v-0.2c-1.5-1.1-2.7-2.6-3.6-4.5c-0.8-1.9-1.3-3.9-1.3-6c0-2.1,0.4-4.1,1.3-6c0.8-2,2-3.6,3.5-5c0.4-0.5,0.8-0.8,1.1-1
		c1.9-1.4,3.9-2.2,5.9-2.6c2.1-0.3,4.8-0.5,8-0.5h20.1v9.3H35.4c-2.1,0-4,0.1-5.5,0.3c-1.5,0.2-2.8,0.6-3.9,1.3
		c-1,0.6-1.8,1.5-2.3,2.6c-0.6,1.1-0.9,2.3-0.9,3.6c0,1.3,0.3,2.5,0.9,3.7c0.6,1.2,1.4,2.1,2.5,2.8c1.2,0.7,2.6,1.1,4.2,1.3
		c1.6,0.2,3.5,0.2,5.7,0.2h17.6V166.1z M53.7,124.1H2v-9.3h15.9c-1.4-1-2.4-2.4-3.1-4.3c-0.7-1.8-1.1-3.7-1.1-5.7
		c0-2.1,0.5-4.2,1.4-6.3c0.9-2.1,2.2-3.8,3.8-5.2c1.3-1.1,2.6-1.9,4.1-2.5c1.5-0.5,2.9-0.9,4.3-1c1.4-0.1,3.2-0.2,5.5-0.2h21V99h-19
		c-2.4,0-4.4,0.2-6.1,0.5c-1.7,0.3-3.1,1.1-4.2,2.3c-1.1,1.2-1.7,2.9-1.7,5.1c0,2.8,1.1,4.9,3.3,6.4c1.1,0.6,2.3,1,3.7,1.2
		c1.4,0.2,3.1,0.2,5,0.2h18.8V124.1z M14.9,42.8h38.8v8.5h-5.3v0.1c2,1.4,3.6,3.3,4.8,5.8c1.2,2.4,1.8,4.9,1.8,7.3
		c0,2.9-0.6,5.6-1.7,8c-1.1,2.4-2.7,4.5-4.8,6.3c-3.9,3.2-8.6,4.9-14.1,4.9c-1.7,0-3.4-0.2-5.1-0.5c-1.7-0.3-3.2-0.9-4.6-1.6
		c-1.4-0.7-2.9-1.7-4.3-2.9c-2.3-2-4-4.1-5.1-6.5c-1.1-2.4-1.6-5-1.6-7.9c0-2.7,0.6-5.1,1.7-7.3c1.1-2.3,2.8-4.1,5-5.7h-5.5V42.8z
		 M34.3,51.6c-1.6,0-3.2,0.3-4.5,0.8c-1.4,0.5-2.6,1.3-3.7,2.3c-1,1-1.8,2.2-2.4,3.6c-0.6,1.4-0.9,2.9-0.9,4.5
		c0,3.4,1.1,6.2,3.4,8.4c2.2,2.2,5.1,3.2,8.5,3.2c3.1,0,5.8-1.1,8-3.4c2.2-2.3,3.2-5,3.2-8.1c0-2.2-0.5-4.1-1.5-5.9
		c-1-1.7-2.4-3.1-4.2-4C38.4,52.1,36.5,51.6,34.3,51.6z M10.1,72.3l-7.2-7.7v-5.4l7.2-7.7V59l-3.3,2.8l3.3,2.9V72.3z M53.7,35.8
		H14.9v-8.6h3.6v-0.2C17,26,15.8,24.4,15,22.5c-0.8-1.9-1.3-3.9-1.3-6c0-2.1,0.4-4.1,1.3-6c0.8-2,2-3.6,3.5-5c0.4-0.5,0.8-0.8,1.1-1
		c1.9-1.4,3.9-2.2,5.9-2.6c2.1-0.3,4.8-0.5,8-0.5h20.1v9.3H35.4c-2.1,0-4,0.1-5.5,0.3c-1.5,0.2-2.8,0.6-3.9,1.3
		c-1,0.6-1.8,1.5-2.3,2.6c-0.6,1.1-0.9,2.3-0.9,3.6c0,1.3,0.3,2.5,0.9,3.7c0.6,1.2,1.4,2.1,2.5,2.8c1.2,0.7,2.6,1.1,4.2,1.3
		c1.6,0.2,3.5,0.2,5.7,0.2h17.6V35.8z"/>
</mask>
<g class="st1">
	
		<linearGradient id="SVGID_1_" gradientUnits="userSpaceOnUse" x1="-11.5983" y1="104.4302" x2="163.3422" y2="252.6102" gradientTransform="matrix(1 0 0 -1 0 292)">
		<stop  offset="0" style="stop-color:#613B02"/>
		<stop  offset="1" style="stop-color:#EFD16E"/>
	</linearGradient>
	<path class="st2" d="M54.7,289.4H1v-14.8l37.5-13.2L1,248.1v-14.7h53.7v11.6H20.9l33.8,11.7v9.6l-33.8,11.7h33.8V289.4z M3,287.4
		h49.7v-7.6H14.9l-0.3-1.9l38.1-13.1V258l-38.1-13.1l0.3-1.9h37.8v-7.6H3v11.3l41.5,14.8L3,276V287.4z M13.9,231.2v-12.8l22.9-8.2
		l-22.9-8.6v-12.8L67.7,212v12.2l-17.6-7.6L13.9,231.2z M15.9,219.8v8.4l34.2-13.8l15.6,6.7v-7.8l-49.7-21.4v8.3l26.8,10L15.9,219.8
		z M5.7,219.8l-0.5-0.6c-1.4-1.5-2.2-3.5-2.2-5.8c0-1,0.3-2.2,0.8-3.6c0.6-1.7,0.6-2.1,0.6-2.2c0-1.1-0.4-2-1.2-2.9l-0.8-0.9
		l6.1-3.6l0.5,0.6c0.5,0.5,1,1.1,1.3,1.7c0.4,0.6,0.7,1.2,0.9,1.9c0.2,0.7,0.3,1.4,0.3,2.1c0,0.8-0.1,1.6-0.4,2.4
		c-0.2,0.7-0.4,1.4-0.6,2.1c-0.2,0.6-0.3,1.2-0.3,1.7c0,1.1,0.3,2,0.9,2.8l0.6,0.9L5.7,219.8z M5.5,204.3c0.6,1,0.9,2.1,0.9,3.3
		c0,0.4-0.1,1-0.8,2.9c-0.5,1.2-0.7,2.2-0.7,2.9c0,1.6,0.4,2.8,1.1,3.9l3-1.7c-0.5-0.9-0.7-2-0.7-3.1c0-0.7,0.1-1.5,0.4-2.3
		c0.2-0.7,0.4-1.4,0.6-2.1c0.2-0.6,0.3-1.2,0.3-1.8c0-0.5-0.1-1-0.2-1.5c-0.2-0.5-0.4-1-0.7-1.4c-0.2-0.3-0.4-0.5-0.6-0.8L5.5,204.3
		z M54.7,167.1H13.9v-10.6h2.2c-0.8-1-1.5-2.1-2.1-3.3c-0.9-2-1.3-4.2-1.3-6.4c0-2.2,0.5-4.4,1.4-6.5c0.9-2.1,2.2-3.9,3.8-5.3
		c0.4-0.5,0.9-0.9,1.3-1.1c1.9-1.4,4.1-2.3,6.3-2.7c2.1-0.3,4.9-0.5,8.2-0.5h21.1V142H35.4c-2.1,0-3.9,0.1-5.4,0.3
		c-1.4,0.2-2.6,0.6-3.5,1.2c-0.8,0.5-1.5,1.3-2,2.2c-0.5,1-0.8,2-0.8,3.1c0,1.1,0.3,2.2,0.8,3.3c0.5,1,1.2,1.8,2.1,2.4
		c1.1,0.6,2.4,1,3.8,1.2c1.5,0.2,3.4,0.2,5.6,0.2h18.6V167.1z M15.9,165.1h36.8v-7.3H36.1c-2.3,0-4.2-0.1-5.8-0.2
		c-1.7-0.2-3.3-0.7-4.6-1.4c-1.2-0.7-2.2-1.8-2.9-3.2c-0.7-1.4-1-2.8-1-4.2c0-1.4,0.3-2.7,1-4c0.6-1.3,1.5-2.3,2.7-3
		c1.2-0.8,2.7-1.2,4.3-1.4c1.5-0.2,3.4-0.3,5.6-0.3h17.3v-7.3H33.6c-3.2,0-5.9,0.2-7.9,0.5c-1.9,0.3-3.8,1.1-5.5,2.4
		c-0.2,0.2-0.5,0.4-1,0.9c-1.5,1.3-2.6,2.9-3.3,4.7c-0.8,1.8-1.2,3.7-1.2,5.7c0,1.9,0.4,3.8,1.2,5.6c0.7,1.7,1.8,3.1,3.2,4.1
		l0.4,0.3v1.7h-3.6V165.1z M54.7,125.1H1v-11.3h14.4c-0.7-0.8-1.2-1.8-1.6-2.9c-0.7-2-1.1-4-1.1-6c0-2.2,0.5-4.5,1.5-6.7
		c1-2.2,2.3-4,4-5.5c1.3-1.2,2.8-2.1,4.4-2.6c1.5-0.6,3.1-0.9,4.6-1.1c1.4-0.1,3.3-0.2,5.6-0.2h22V100h-20c-2.3,0-4.3,0.2-5.9,0.5
		c-1.5,0.3-2.7,0.9-3.7,2c-0.9,1-1.4,2.5-1.4,4.4c0,2.4,0.9,4.2,2.9,5.5c0.9,0.5,2,0.9,3.3,1.1c1.3,0.2,3,0.2,4.9,0.2h19.8V125.1z
		 M3,123.1h49.7v-7.3H34.9c-2,0-3.7-0.1-5.1-0.2c-1.6-0.2-2.9-0.7-4.1-1.4c-2.6-1.7-3.8-4.1-3.8-7.2c0-2.5,0.7-4.5,2-5.8
		c1.2-1.3,2.8-2.2,4.7-2.5c1.7-0.4,3.9-0.6,6.3-0.6h18v-7.3h-20c-2.2,0-4,0.1-5.4,0.2c-1.3,0.1-2.7,0.5-4.1,1
		c-1.3,0.5-2.6,1.3-3.8,2.3C18,95.4,16.9,97.1,16,99c-0.9,1.9-1.3,3.9-1.3,5.8c0,1.8,0.3,3.6,1,5.3c0.6,1.6,1.6,2.9,2.8,3.8l2.4,1.8
		H3V123.1z M34.3,84.7c-1.8,0-3.6-0.2-5.2-0.5c-1.8-0.4-3.4-0.9-4.9-1.7c-1.5-0.8-3-1.8-4.5-3.1c-2.4-2-4.2-4.4-5.3-6.9
		c-1.1-2.5-1.7-5.3-1.7-8.3c0-2.8,0.6-5.4,1.8-7.8c0.8-1.6,1.8-3,3.1-4.2h-3.7V41.8h40.8v10.5H51c1.2,1.3,2.3,2.8,3.1,4.5
		c1.2,2.6,1.9,5.2,1.9,7.8c0,3-0.6,5.9-1.8,8.4c-1.2,2.6-2.9,4.8-5.1,6.6C45,83,40.1,84.7,34.3,84.7z M15.9,50.3h7.6L21,52.1
		c-2,1.4-3.6,3.2-4.7,5.3c-1.1,2.1-1.6,4.4-1.6,6.9c0,2.7,0.5,5.2,1.6,7.5c1,2.2,2.6,4.3,4.8,6.2c1.3,1.2,2.7,2.1,4.1,2.8
		c1.3,0.7,2.8,1.2,4.4,1.5c1.6,0.3,3.2,0.5,4.9,0.5c5.3,0,9.8-1.6,13.5-4.6c1.9-1.6,3.5-3.7,4.6-5.9c1.1-2.3,1.6-4.8,1.6-7.6
		c0-2.3-0.6-4.6-1.7-6.9c-1.1-2.3-2.6-4.1-4.4-5.4L47.4,52v-1.7h5.3v-6.5H15.9V50.3z M34.7,75.4c-3.7,0-6.8-1.2-9.2-3.5
		c-2.4-2.4-3.7-5.4-3.7-9.1c0-1.7,0.3-3.4,1-4.9c0.6-1.5,1.5-2.8,2.6-3.9c1.1-1.1,2.5-1.9,4-2.5c1.5-0.6,3.1-0.9,4.9-0.9
		c2.3,0,4.5,0.5,6.4,1.6c1.9,1,3.4,2.5,4.6,4.4c1.1,1.9,1.6,4,1.6,6.4c0,3.4-1.2,6.4-3.5,8.8C41,74.2,38.1,75.4,34.7,75.4z
		 M34.3,52.6c-1.5,0-2.9,0.3-4.2,0.8c-1.3,0.5-2.4,1.2-3.3,2.1c-0.9,0.9-1.6,2-2.2,3.2c-0.5,1.3-0.8,2.7-0.8,4.1
		c0,3.1,1,5.6,3.1,7.7c2.1,2,4.6,3,7.8,3c2.9,0,5.3-1,7.2-3.1c2-2.1,3-4.5,3-7.4c0-2-0.5-3.8-1.4-5.4c-0.9-1.6-2.2-2.8-3.8-3.6
		C38.1,53.1,36.3,52.6,34.3,52.6z M11.1,74.8l-9.2-9.9v-6.2l9.2-9.8v10.6l-2.8,2.3l2.8,2.4V74.8z M3.9,64.1l5.2,5.6v-4.6l-3.9-3.3
		l3.9-3.3V54l-5.2,5.5V64.1z M54.7,36.8H13.9V26.2h2.2c-0.8-1-1.5-2.1-2.1-3.3c-0.9-2-1.3-4.2-1.3-6.4c0-2.2,0.5-4.4,1.4-6.5
		C15,8,16.2,6.2,17.8,4.8c0.5-0.5,0.9-0.9,1.3-1.1c1.9-1.4,4.1-2.3,6.3-2.7c2.1-0.3,4.9-0.5,8.2-0.5h21.1v11.3H35.4
		c-2.1,0-3.9,0.1-5.4,0.3c-1.4,0.2-2.6,0.6-3.5,1.2c-0.8,0.5-1.5,1.2-2,2.2c-0.5,1-0.8,2-0.8,3.1c0,1.1,0.3,2.2,0.8,3.3
		c0.5,1,1.2,1.8,2.1,2.4c1.1,0.6,2.4,1,3.8,1.2c1.5,0.2,3.4,0.2,5.6,0.2h18.6V36.8z M15.9,34.8h36.8v-7.3H36.1
		c-2.3,0-4.2-0.1-5.8-0.2c-1.7-0.2-3.3-0.7-4.6-1.4c-1.2-0.7-2.2-1.8-2.9-3.2c-0.7-1.4-1-2.8-1-4.2c0-1.4,0.3-2.7,1-4
		c0.6-1.3,1.5-2.3,2.7-3c1.2-0.8,2.7-1.2,4.3-1.4c1.6-0.2,3.4-0.3,5.6-0.3h17.3V2.4H33.6c-3.2,0-5.9,0.2-7.9,0.5
		C23.8,3.2,22,4,20.2,5.3c-0.2,0.2-0.5,0.4-1,0.9l-0.1,0.1c-1.4,1.3-2.5,2.8-3.3,4.6c-0.8,1.8-1.2,3.7-1.2,5.7
		c0,1.9,0.4,3.8,1.2,5.6c0.7,1.7,1.8,3.1,3.2,4.1l0.4,0.3v1.7h-3.6V34.8z"/>
</g>
</svg>
