<?xml version="1.0" encoding="utf-8"?>
<!-- Generator: Adobe Illustrator 22.0.1, SVG Export Plug-In . SVG Version: 6.00 Build 0)  -->
<svg version="1.1" id="Layer_1" xmlns="http://www.w3.org/2000/svg" xmlns:xlink="http://www.w3.org/1999/xlink" x="0px" y="0px"
	 viewBox="0 0 81 351" style="enable-background:new 0 0 81 351;" xml:space="preserve">
<style type="text/css">
	.st0{fill:#FFFFFF;filter:url(#Adobe_OpacityMaskFilter);}
	.st1{mask:url(#path-1-outside-1_2_);}
	.st2{fill:url(#SVGID_1_);}
</style>
<defs>
	<filter id="Adobe_OpacityMaskFilter" filterUnits="userSpaceOnUse" x="0.9" y="1" width="79.3" height="349.2">
		<feColorMatrix  type="matrix" values="1 0 0 0 0  0 1 0 0 0  0 0 1 0 0  0 0 0 1 0"/>
	</filter>
</defs>
<mask maskUnits="userSpaceOnUse" x="0.9" y="1" width="79.3" height="349.2" id="path-1-outside-1_2_">
	<rect x="0.3" y="1" class="st0" width="80" height="350"/>
	<path d="M49.4,309.4v-11.1c3,1.3,5.7,3.1,8.1,5.6c2.3,2.5,4.1,5.4,5.4,8.5c1.3,3.2,1.9,6.5,1.9,9.8c0,3.6-0.7,7-2.1,10.3
		c-1.4,3.3-3.4,6.2-5.9,8.6c-2.5,2.5-5.4,4.4-8.7,5.8c-3.3,1.4-6.8,2.1-10.4,2.1c-4.8,0-9.2-1.2-13.3-3.6c-4.1-2.4-7.4-5.7-9.8-9.7
		c-2.4-4.1-3.6-8.5-3.6-13.2c0-3.5,0.6-6.8,1.9-10.1c1.3-3.3,3.1-6.2,5.5-8.7c2.4-2.5,5.1-4.5,8.3-5.8V309c-2,1.6-3.6,3.6-4.7,6.1
		c-1.2,2.4-1.7,4.9-1.7,7.5c0,3.1,0.8,6,2.5,8.6c1.6,2.6,3.8,4.7,6.5,6.2c2.7,1.5,5.7,2.3,8.9,2.3c3,0,5.9-0.8,8.6-2.3
		c2.7-1.6,4.8-3.7,6.5-6.3c1.6-2.6,2.4-5.5,2.4-8.4C55.4,317.6,53.4,313.2,49.4,309.4z M23.5,273.6c0-2.8,0.5-5.5,1.6-7.9
		c1.1-2.5,2.6-4.7,4.5-6.5c1.9-1.9,4.1-3.3,6.6-4.3c2.5-1,5.1-1.5,8-1.5c2.8,0,5.4,0.5,7.9,1.6c2.5,1,4.7,2.6,6.6,4.5
		c1.9,1.9,3.4,4.2,4.5,6.7c1,2.5,1.5,5.2,1.5,7.9c0,3.7-0.9,7.1-2.8,10.3c-1.9,3.1-4.4,5.7-7.6,7.5c-3.2,1.8-6.6,2.8-10.3,2.8
		c-2.9,0-5.6-0.5-8.1-1.6c-2.5-1.1-4.7-2.6-6.6-4.5c-1.9-1.9-3.4-4.1-4.4-6.7C24,279.2,23.5,276.5,23.5,273.6z M32.6,274
		c0,1.4,0.3,2.8,1,4.3c0.6,1.5,1.5,2.7,2.6,3.7c2.2,2.1,4.9,3.2,8.1,3.2c2,0,3.9-0.5,5.7-1.5c1.8-1,3.2-2.4,4.2-4.1
		c1-1.7,1.5-3.6,1.5-5.7c0-2.2-0.5-4.1-1.5-5.8c-1-1.7-2.4-3.1-4.2-4.1c-1.8-1-3.7-1.5-5.8-1.5c-2.1,0-4,0.5-5.8,1.5
		c-1.8,1-3.2,2.4-4.2,4.1C33.1,270,32.6,271.9,32.6,274z M20,284.5l-7.2-7.7v-5.4l7.2-7.7v7.6l-3.3,2.8L20,277V284.5z M14.1,265
		l-4.8,2.5l-6.9-11.8l5.5-2.7L14.1,265z M63.5,248H24.7v-8.6h3.6v-0.2c-1.5-1.1-2.7-2.6-3.6-4.5c-0.8-1.9-1.3-3.9-1.3-6
		c0-2.1,0.4-4.1,1.3-6.1c0.8-2,2-3.6,3.5-5c0.4-0.5,0.8-0.8,1.1-1c1.9-1.4,3.9-2.2,5.9-2.6c2.1-0.3,4.8-0.5,8-0.5h20.1v9.3H45.2
		c-2.1,0-4,0.1-5.5,0.3c-1.5,0.2-2.8,0.6-3.9,1.3c-1,0.6-1.8,1.5-2.3,2.6c-0.6,1.1-0.9,2.3-0.9,3.6c0,1.3,0.3,2.5,0.9,3.7
		c0.6,1.2,1.4,2.1,2.5,2.8c1.2,0.7,2.6,1.1,4.2,1.3c1.6,0.2,3.5,0.2,5.7,0.2h17.6V248z M24.7,175.5V167h32.9c3.2,0,5.9,0.4,8.2,1.2
		c2.3,0.8,4.6,2.2,6.7,4.2c2.1,2,3.7,4.4,4.9,7.1c1.2,2.7,1.8,5.5,1.8,8.3c0,2.7-0.5,5.4-1.6,8c-1,2.6-2.6,4.9-4.5,6.9
		c-1.9,2-4.2,3.4-6.7,4.4v-10.6c1.1-1,2-2.3,2.7-4c0.7-1.6,1.1-3.2,1.1-4.7c0-1.6-0.3-3.2-0.9-4.7c-0.5-1.5-1.3-2.9-2.4-4
		c-1.2-1.3-2.3-2.1-3.6-2.5c-1.2-0.5-2.9-0.9-5.1-1.2l-0.1,0.2c4.4,3.4,6.7,7.5,6.7,12.4c0,1.6-0.3,3.3-0.8,5
		c-0.5,1.7-1.2,3.3-2.2,4.9c-0.9,1.6-2,2.9-3.1,4.1c-1.3,1.2-2.7,2.3-4.4,3.2c-1.7,0.9-3.4,1.6-5.2,2c-1.8,0.4-3.6,0.6-5.5,0.6
		c-2.5,0-4.9-0.5-7.2-1.4c-2.3-0.9-4.4-2.2-6.3-3.8c-2.1-1.8-3.7-4-4.8-6.6c-1.2-2.6-1.7-5.3-1.7-8.1c0-2.7,0.6-5.1,1.7-7.2
		c1.1-2.2,2.7-3.8,4.9-4.9v-0.1H24.7z M44.3,175.7c-1.7,0-3.2,0.3-4.6,0.9c-1.5,0.6-2.7,1.4-3.7,2.4c-1,1-1.8,2.3-2.4,3.7
		c-0.6,1.4-0.9,2.9-0.9,4.6c0,3.1,1.1,5.7,3.4,7.9c1.1,1,2.3,1.8,3.6,2.3c1.3,0.5,2.8,0.8,4.3,0.8c2.2,0,4.2-0.5,6-1.5
		c1.8-1,3.2-2.4,4.2-4.2c1-1.8,1.5-3.8,1.5-6c0-1.5-0.3-3-1-4.3c-0.6-1.4-1.5-2.5-2.6-3.5c-1.1-1-2.3-1.7-3.7-2.3
		C47.1,176,45.7,175.7,44.3,175.7z M63.5,140.1H11.8v-9.3h15.9c-1.4-1-2.4-2.4-3.1-4.3c-0.7-1.8-1.1-3.7-1.1-5.7
		c0-2.1,0.5-4.2,1.4-6.3c0.9-2.1,2.2-3.8,3.8-5.2c1.3-1.1,2.6-1.9,4.1-2.5c1.5-0.5,2.9-0.9,4.3-1c1.4-0.1,3.2-0.2,5.5-0.2h21v9.3
		h-19c-2.4,0-4.4,0.2-6.1,0.5c-1.7,0.3-3.1,1.1-4.2,2.3c-1.1,1.2-1.7,2.9-1.7,5.1c0,2.8,1.1,4.9,3.3,6.4c1.1,0.6,2.3,1,3.7,1.2
		c1.4,0.2,3.1,0.2,5,0.2h18.8V140.1z M63.5,98.1H24.7v-9.3h38.8V98.1z M20.2,97.1h-6.7v-7.4h6.7V97.1z M48.3,43v30.1
		c2.3-0.7,4.1-2,5.4-3.9c1.3-1.9,2-4,2-6.3c0-1.7-0.3-3.4-0.9-5c-0.6-1.6-1.4-2.8-2.5-3.7V43.9c2.3,0.8,4.4,2.1,6.3,4
		c1.9,1.9,3.4,4.1,4.5,6.7c1.1,2.6,1.6,5.2,1.6,7.9c0,3.7-0.9,7.1-2.7,10.3c-1.8,3.1-4.3,5.6-7.5,7.5C51.4,82.1,48,83,44.4,83
		c-3.8,0-7.3-0.9-10.5-2.7c-3.2-1.8-5.8-4.3-7.6-7.5c-1.9-3.2-2.8-6.7-2.8-10.5c0-2.7,0.5-5.3,1.6-7.7c1.1-2.4,2.6-4.5,4.4-6.3
		c1.9-1.8,4-3.2,6.5-4.3c2.5-1,5.1-1.5,7.8-1.5C44.5,42.5,46,42.7,48.3,43z M40,73.2V51.9c-1.5,0.5-2.8,1.3-3.9,2.4
		c-1.1,1.1-2,2.3-2.6,3.7c-0.6,1.4-0.9,2.9-0.9,4.5c0,2.4,0.7,4.6,2.1,6.7C36,71.1,37.8,72.5,40,73.2z M20,73.2l-7.2-7.7v-5.5
		l7.2-7.6V60l-3.3,2.8l3.3,2.9V73.2z M14.1,53.7l-4.8,2.5L2.4,44.4l5.5-2.7L14.1,53.7z M63.5,36.4H24.7v-8.6h3.6v-0.2
		c-1.5-1.1-2.7-2.6-3.6-4.5c-0.8-1.9-1.3-3.9-1.3-6c0-2.1,0.4-4.1,1.3-6c0.8-2,2-3.6,3.5-5c0.4-0.5,0.8-0.8,1.1-1
		c1.9-1.4,3.9-2.2,5.9-2.6c2.1-0.3,4.8-0.5,8-0.5h20.1v9.3H45.2c-2.1,0-4,0.1-5.5,0.3c-1.5,0.2-2.8,0.6-3.9,1.3
		c-1,0.6-1.8,1.5-2.3,2.6c-0.6,1.1-0.9,2.3-0.9,3.6c0,1.3,0.3,2.5,0.9,3.7c0.6,1.2,1.4,2.1,2.5,2.8c1.2,0.7,2.6,1.1,4.2,1.3
		c1.6,0.2,3.5,0.2,5.7,0.2h17.6V36.4z"/>
</mask>
<g class="st1">
	
		<linearGradient id="SVGID_1_" gradientUnits="userSpaceOnUse" x1="18.5188" y1="12.2975" x2="56.0678" y2="391.579" gradientTransform="matrix(1 0 0 -1 0 352)">
		<stop  offset="0" style="stop-color:#613B02"/>
		<stop  offset="1" style="stop-color:#EFD16E"/>
	</linearGradient>
	<path class="st2" d="M37.6,350.2c-4.9,0-9.6-1.3-13.8-3.8c-4.3-2.5-7.7-5.9-10.2-10.1c-2.5-4.2-3.8-8.8-3.8-13.7
		c0-3.6,0.7-7.1,2-10.5c1.3-3.4,3.2-6.4,5.7-9c2.5-2.6,5.4-4.6,8.7-6l1.4-0.6v12.9l-0.4,0.3c-1.9,1.5-3.4,3.4-4.4,5.7
		c-1.1,2.3-1.6,4.6-1.6,7.1c0,2.9,0.8,5.6,2.3,8c1.5,2.4,3.6,4.4,6.2,5.8c2.5,1.4,5.4,2.1,8.4,2.1c2.8,0,5.6-0.7,8.1-2.2
		c2.5-1.5,4.6-3.5,6.1-6c1.5-2.5,2.3-5.1,2.3-7.9c0-4.6-1.9-8.7-5.7-12.3l-0.3-0.3v-13l1.4,0.6c3.1,1.3,6,3.3,8.4,5.9
		c2.4,2.6,4.3,5.6,5.6,8.9c1.3,3.3,1.9,6.7,1.9,10.2c0,3.7-0.7,7.3-2.2,10.7c-1.5,3.4-3.5,6.4-6.1,8.9s-5.6,4.6-9,6
		C45,349.4,41.4,350.2,37.6,350.2z M25.6,299.6c-2.5,1.2-4.7,2.9-6.6,4.9c-2.3,2.4-4.1,5.2-5.3,8.4c-1.2,3.1-1.8,6.4-1.8,9.7
		c0,4.5,1.2,8.8,3.5,12.7c2.3,3.9,5.5,7.1,9.5,9.4c4,2.3,8.3,3.5,12.8,3.5c3.5,0,6.9-0.7,10-2c3.2-1.4,6-3.2,8.4-5.6
		c2.4-2.4,4.3-5.1,5.7-8.3c1.3-3.1,2-6.5,2-9.9c0-3.2-0.6-6.4-1.8-9.4c-1.2-3.1-3-5.8-5.2-8.2c-1.9-2-4-3.6-6.3-4.8v9.1
		c4,3.9,6,8.4,6,13.4c0,3.2-0.9,6.2-2.6,9c-1.7,2.8-4,5-6.8,6.7c-2.9,1.6-5.9,2.5-9.1,2.5c-3.3,0-6.5-0.8-9.3-2.4
		c-2.9-1.6-5.2-3.8-6.9-6.5c-1.7-2.7-2.6-5.8-2.6-9.1c0-2.7,0.6-5.4,1.8-7.9c1.1-2.4,2.7-4.5,4.6-6.1V299.6z M44.2,295.5
		c-3,0-5.9-0.6-8.5-1.7c-2.6-1.1-5-2.7-6.9-4.7c-2-2-3.5-4.3-4.6-7c-1.1-2.6-1.7-5.5-1.7-8.6c0-3,0.6-5.8,1.7-8.3
		c1.1-2.6,2.7-4.9,4.7-6.8c2-2,4.3-3.5,7-4.5c2.6-1.1,5.4-1.6,8.3-1.6c2.9,0,5.7,0.6,8.3,1.7c2.6,1.1,4.9,2.7,7,4.7
		c2,2,3.6,4.4,4.7,7c1.1,2.6,1.6,5.4,1.6,8.3c0,3.8-1,7.4-2.9,10.8c-2,3.3-4.6,5.9-7.9,7.9C51.6,294.6,48,295.5,44.2,295.5z
		 M44.2,254.3c-2.7,0-5.2,0.5-7.6,1.5c-2.4,1-4.5,2.3-6.3,4.1c-1.8,1.8-3.2,3.9-4.3,6.2c-1,2.3-1.6,4.9-1.6,7.5
		c0,2.8,0.5,5.4,1.5,7.8c1,2.4,2.4,4.5,4.2,6.4c1.8,1.8,3.9,3.3,6.3,4.3c2.4,1,5,1.5,7.7,1.5c3.5,0,6.8-0.9,9.8-2.6
		c3-1.8,5.4-4.2,7.2-7.2c1.7-3,2.6-6.3,2.6-9.7c0-2.6-0.5-5.2-1.5-7.6c-1-2.4-2.4-4.5-4.3-6.4c-1.8-1.9-4-3.3-6.3-4.3
		C49.4,254.8,46.8,254.3,44.2,254.3z M21,287.1l-9.2-9.9V271l9.2-9.8v10.6l-2.8,2.3l2.8,2.4V287.1z M13.7,276.4L19,282v-4.6
		l-3.9-3.3l3.9-3.3v-4.6l-5.2,5.5V276.4z M44.2,286.2c-3.5,0-6.4-1.2-8.8-3.5c-1.2-1.1-2.1-2.4-2.8-4c-0.7-1.6-1-3.2-1-4.7
		c0-2.2,0.6-4.4,1.7-6.3c1.1-1.9,2.7-3.4,4.6-4.5c1.9-1.1,4.1-1.6,6.3-1.6c2.2,0,4.3,0.5,6.3,1.6c1.9,1.1,3.5,2.6,4.6,4.4
		c1.1,1.9,1.6,4,1.6,6.4c0,2.2-0.6,4.3-1.7,6.2c-1.1,1.9-2.7,3.3-4.6,4.4C48.5,285.7,46.4,286.2,44.2,286.2z M44.2,263.6
		c-1.9,0-3.7,0.5-5.3,1.4c-1.6,0.9-2.9,2.2-3.9,3.8c-1,1.6-1.4,3.4-1.4,5.2c0,1.2,0.3,2.6,0.9,3.9c0.6,1.3,1.4,2.4,2.4,3.4
		c2,2,4.4,3,7.4,3c1.8,0,3.6-0.5,5.3-1.3c1.6-0.9,2.9-2.2,3.8-3.7c0.9-1.6,1.4-3.3,1.4-5.2c0-2-0.5-3.8-1.4-5.3
		c-0.9-1.6-2.2-2.8-3.8-3.7C47.9,264.1,46.1,263.6,44.2,263.6z M8.9,268.8l-8-13.5l7.3-3.7l7.2,13.7L8.9,268.8z M3.7,256.2l5.9,10
		l3.1-1.6l-5.4-10.2L3.7,256.2z M64.5,249H23.7v-10.6h2.2c-0.8-1-1.5-2.1-2.1-3.3c-0.9-2-1.3-4.2-1.3-6.4c0-2.2,0.5-4.4,1.4-6.5
		c0.9-2.1,2.1-3.8,3.7-5.3c0.5-0.5,0.9-0.9,1.3-1.1c1.9-1.4,4.1-2.3,6.3-2.7c2.1-0.3,4.9-0.5,8.2-0.5h21.1v11.3H45.2
		c-2.1,0-3.9,0.1-5.4,0.3c-1.4,0.2-2.6,0.6-3.5,1.2c-0.8,0.5-1.5,1.3-2,2.2c-0.5,1-0.8,2-0.8,3.1c0,1.1,0.3,2.2,0.8,3.3
		c0.5,1,1.2,1.8,2.1,2.4c1.1,0.6,2.4,1,3.8,1.2c1.5,0.2,3.4,0.2,5.6,0.2h18.6V249z M25.7,247h36.8v-7.3H45.9c-2.3,0-4.2-0.1-5.8-0.2
		c-1.7-0.2-3.3-0.7-4.6-1.4c-1.2-0.7-2.2-1.8-2.9-3.2c-0.7-1.4-1-2.8-1-4.2c0-1.4,0.3-2.7,1-4c0.6-1.3,1.5-2.3,2.7-3
		c1.2-0.8,2.7-1.2,4.3-1.4c1.5-0.2,3.4-0.3,5.6-0.3h17.3v-7.3H43.4c-3.2,0-5.9,0.2-7.9,0.5c-1.9,0.3-3.8,1.1-5.5,2.4
		c-0.2,0.2-0.5,0.4-1,0.9l-0.1,0.1c-1.4,1.3-2.5,2.8-3.3,4.6c-0.8,1.8-1.2,3.7-1.2,5.7c0,1.9,0.4,3.8,1.2,5.6
		c0.7,1.7,1.8,3.1,3.2,4.1l0.4,0.3v1.7h-3.6V247z M43.5,208.7c-2.6,0-5.1-0.5-7.6-1.4c-2.4-0.9-4.7-2.3-6.6-4
		c-2.1-1.9-3.9-4.3-5.1-6.9c-1.2-2.7-1.8-5.6-1.8-8.5c0-2.8,0.6-5.4,1.8-7.7c0.7-1.4,1.6-2.6,2.7-3.6h-3.3V166h33.9
		c3.3,0,6.1,0.4,8.6,1.3c2.4,0.8,4.8,2.3,7.1,4.5c2.2,2.1,3.9,4.6,5.1,7.4c1.2,2.8,1.9,5.8,1.9,8.7c0,2.8-0.6,5.7-1.6,8.4
		c-1.1,2.7-2.7,5.1-4.7,7.2c-2,2.1-4.4,3.6-7.1,4.6l-1.3,0.5v-12.4l0.3-0.3c1-0.9,1.8-2.1,2.4-3.6c0.7-1.5,1-3,1-4.3
		c0-1.5-0.3-2.9-0.8-4.3c-0.5-1.4-1.2-2.7-2.2-3.7c-1-1.1-2.1-1.9-3.2-2.3c-0.5-0.2-1.1-0.4-1.8-0.5c3,3.2,4.6,6.8,4.6,11
		c0,1.7-0.3,3.5-0.8,5.3c-0.5,1.7-1.3,3.4-2.2,5.1c-1,1.6-2.1,3.1-3.3,4.3c-1.3,1.3-2.9,2.4-4.6,3.3c-1.8,0.9-3.6,1.6-5.4,2.1
		C47.5,208.4,45.5,208.7,43.5,208.7z M25.7,174.5H31v1.8l-0.5,0.3c-2,1-3.4,2.5-4.4,4.4c-1,2-1.6,4.3-1.6,6.8c0,2.7,0.6,5.3,1.7,7.7
		c1.1,2.4,2.6,4.5,4.6,6.3c1.7,1.5,3.8,2.8,6,3.6c2.2,0.9,4.5,1.3,6.8,1.3c1.8,0,3.6-0.2,5.3-0.6c1.7-0.4,3.4-1,5-1.9
		c1.6-0.9,3-1.9,4.2-3c1.1-1.1,2.1-2.4,3-3.9c0.9-1.5,1.6-3.1,2.1-4.6c0.5-1.6,0.7-3.2,0.7-4.7c0-4.5-2.1-8.3-6.3-11.6l-0.8-0.6
		l1.1-1.4l0.6,0.1c2.2,0.4,4,0.8,5.3,1.2c1.3,0.5,2.7,1.4,3.9,2.8c1.1,1.2,2,2.7,2.6,4.3c0.6,1.6,0.9,3.3,0.9,5
		c0,1.6-0.4,3.4-1.1,5.1c-0.7,1.6-1.5,2.9-2.6,4v8.6c1.9-0.9,3.5-2.1,5-3.6c1.9-1.9,3.3-4.1,4.3-6.5c1-2.5,1.5-5,1.5-7.6
		c0-2.7-0.6-5.4-1.7-7.9c-1.1-2.6-2.7-4.9-4.7-6.8c-2-1.9-4.2-3.3-6.4-4c-2.2-0.8-4.9-1.1-7.9-1.1H25.7V174.5z M43.9,199.3
		c-1.7,0-3.2-0.3-4.7-0.8c-1.4-0.5-2.8-1.4-4-2.5c-2.5-2.4-3.7-5.3-3.7-8.6c0-1.8,0.3-3.4,1-5c0.6-1.5,1.5-2.9,2.6-4
		c1.1-1.1,2.5-2,4.1-2.6c2.9-1.2,6.5-1.4,9.6-0.1c1.5,0.6,2.8,1.4,4,2.4c1.2,1.1,2.1,2.4,2.8,3.8c0.7,1.5,1.1,3.1,1.1,4.7
		c0,2.4-0.6,4.6-1.7,6.5c-1.1,1.9-2.7,3.5-4.6,4.5C48.5,198.8,46.3,199.3,43.9,199.3z M44.3,176.7c-1.5,0-3,0.3-4.3,0.8
		c-1.3,0.5-2.5,1.3-3.4,2.2c-0.9,0.9-1.7,2.1-2.2,3.4c-0.5,1.3-0.8,2.7-0.8,4.2c0,2.8,1,5.1,3.1,7.2c1,0.9,2.1,1.7,3.3,2.1
		c1.2,0.5,2.5,0.7,4,0.7c2,0,3.9-0.5,5.5-1.4c1.6-0.9,2.9-2.2,3.8-3.8c0.9-1.6,1.4-3.5,1.4-5.5c0-1.4-0.3-2.7-0.9-3.9
		c-0.6-1.2-1.4-2.3-2.3-3.2c-1-0.9-2.1-1.6-3.3-2.1C46.9,177,45.6,176.7,44.3,176.7z M64.5,141.1H10.8v-11.3h14.4
		c-0.7-0.8-1.2-1.8-1.6-2.9c-0.7-2-1.1-4-1.1-6c0-2.2,0.5-4.5,1.5-6.7c1-2.2,2.3-4,4-5.5c1.3-1.2,2.8-2.1,4.4-2.6
		c1.5-0.6,3.1-0.9,4.6-1.1c1.4-0.1,3.3-0.2,5.6-0.2h22v11.3h-20c-2.3,0-4.3,0.2-5.9,0.5c-1.5,0.3-2.7,0.9-3.7,2
		c-0.9,1-1.4,2.5-1.4,4.4c0,2.4,0.9,4.2,2.9,5.5c0.9,0.5,2,0.9,3.3,1.1c1.3,0.2,3,0.2,4.9,0.2h19.8V141.1z M12.8,139.1h49.7v-7.3
		H44.7c-2,0-3.7-0.1-5.1-0.2c-1.6-0.2-2.9-0.7-4.1-1.4c-2.6-1.7-3.8-4.1-3.8-7.2c0-2.5,0.7-4.5,2-5.8c1.2-1.3,2.8-2.2,4.7-2.5
		c1.7-0.4,3.9-0.6,6.3-0.6h18v-7.3h-20c-2.2,0-4,0.1-5.4,0.2c-1.3,0.1-2.7,0.5-4.1,1c-1.3,0.5-2.6,1.3-3.8,2.3
		c-1.5,1.3-2.6,2.9-3.5,4.8c-0.9,1.9-1.3,3.9-1.3,5.8c0,1.8,0.3,3.6,1,5.3c0.6,1.6,1.6,2.9,2.8,3.8l2.4,1.8H12.8V139.1z M64.5,99.1
		H23.7V87.8h40.8V99.1z M25.7,97.1h36.8v-7.3H25.7V97.1z M21.2,98.1h-8.7v-9.4h8.7V98.1z M14.5,96.1h4.7v-5.4h-4.7V96.1z M44.4,84
		c-3.9,0-7.6-1-11-2.8c-3.4-1.9-6-4.5-8-7.8c-2-3.3-3-7-3-11c0-2.9,0.6-5.6,1.7-8.1c1.1-2.5,2.7-4.8,4.7-6.6
		c1.9-1.9,4.2-3.4,6.8-4.5c2.6-1.1,5.3-1.6,8.1-1.6c0.7,0,2.2,0.2,4.5,0.5l0.9,0.1v29.5c1.5-0.7,2.6-1.7,3.6-3
		c1.2-1.7,1.8-3.6,1.8-5.7c0-1.6-0.3-3.2-0.8-4.6c-0.5-1.4-1.3-2.5-2.2-3.3l-0.4-0.3V42.5l1.3,0.4c2.4,0.8,4.7,2.3,6.7,4.3
		c2,2,3.6,4.3,4.8,7c1.1,2.7,1.7,5.5,1.7,8.3c0,3.9-1,7.5-2.9,10.8c-1.9,3.3-4.5,5.9-7.8,7.8C51.8,83,48.2,84,44.4,84z M43.8,43.5
		c-2.5,0-5,0.5-7.4,1.5c-2.4,1-4.4,2.3-6.2,4.1c-1.8,1.7-3.2,3.7-4.2,6c-1,2.3-1.6,4.7-1.6,7.3c0,3.6,0.9,7,2.7,9.9
		c1.8,3,4.2,5.4,7.3,7.1c3,1.7,6.4,2.6,10,2.6c3.5,0,6.7-0.9,9.7-2.6c3-1.7,5.4-4.1,7.1-7.1c1.7-3,2.6-6.2,2.6-9.7
		c0-2.5-0.5-5-1.6-7.5c-1.1-2.5-2.5-4.6-4.3-6.4c-1.4-1.4-3-2.5-4.6-3.3v8.4c1,1,1.8,2.2,2.4,3.8c0.6,1.7,1,3.5,1,5.3
		c0,2.5-0.7,4.8-2.2,6.9c-1.5,2-3.5,3.5-5.9,4.3l-1.3,0.4V43.8C45.1,43.6,44.2,43.5,43.8,43.5z M21,75.8l-9.2-9.8v-6.3l9.2-9.7v10.5
		l-2.8,2.3l2.8,2.4V75.8z M13.8,65.1l5.2,5.6v-4.6l-3.9-3.3l3.9-3.3V55l-5.2,5.5V65.1z M41,74.6l-1.3-0.4c-2.4-0.8-4.4-2.3-5.9-4.5
		c-1.5-2.2-2.3-4.6-2.3-7.2c0-1.7,0.3-3.4,1-4.9c0.6-1.5,1.6-2.9,2.8-4.1c1.2-1.2,2.7-2,4.3-2.6l1.3-0.4V74.6z M39,53.4
		c-0.8,0.4-1.6,0.9-2.2,1.6c-1,1-1.8,2.1-2.4,3.4c-0.5,1.3-0.8,2.6-0.8,4.1c0,2.2,0.6,4.2,1.9,6.1c1,1.4,2.1,2.5,3.5,3.2V53.4z
		 M8.9,57.5L1,44l7.3-3.7l7.2,13.7L8.9,57.5z M3.8,44.9l5.9,10l3.1-1.6L7.4,43L3.8,44.9z M64.5,37.4H23.7V26.8h2.2
		c-0.8-1-1.5-2.1-2.1-3.3c-0.9-2-1.3-4.2-1.3-6.4c0-2.2,0.5-4.4,1.4-6.5c0.9-2.1,2.1-3.8,3.7-5.3c0.5-0.5,0.9-0.9,1.3-1.1
		c1.9-1.4,4.1-2.3,6.3-2.7C37.3,1.2,40.1,1,43.4,1h21.1v11.3H45.2c-2.1,0-3.9,0.1-5.4,0.3c-1.4,0.2-2.6,0.6-3.5,1.2
		c-0.8,0.5-1.5,1.2-2,2.2c-0.5,1-0.8,2-0.8,3.1c0,1.1,0.3,2.2,0.8,3.3c0.5,1,1.2,1.8,2.1,2.4c1.1,0.6,2.4,1,3.8,1.2
		c1.5,0.2,3.4,0.2,5.6,0.2h18.6V37.4z M25.7,35.4h36.8v-7.3H45.9c-2.3,0-4.2-0.1-5.8-0.2c-1.7-0.2-3.3-0.7-4.6-1.4
		c-1.2-0.7-2.2-1.8-2.9-3.2c-0.7-1.4-1-2.8-1-4.2c0-1.4,0.3-2.7,1-4c0.6-1.3,1.5-2.3,2.7-3c1.2-0.8,2.7-1.2,4.3-1.4
		c1.6-0.2,3.4-0.3,5.6-0.3h17.3V3H43.4c-3.2,0-5.9,0.2-7.9,0.5c-1.9,0.3-3.8,1.1-5.5,2.4c-0.2,0.2-0.5,0.4-1,0.8L29,6.8
		c-1.4,1.3-2.5,2.8-3.3,4.6c-0.8,1.8-1.2,3.7-1.2,5.7c0,1.9,0.4,3.8,1.2,5.6c0.7,1.7,1.8,3.1,3.2,4.1l0.4,0.3v1.7h-3.6V35.4z"/>
</g>
</svg>
