<?xml version="1.0" encoding="utf-8"?>
<!-- Generator: Adobe Illustrator 22.0.1, SVG Export Plug-In . SVG Version: 6.00 Build 0)  -->
<svg version="1.1" id="Layer_1" xmlns="http://www.w3.org/2000/svg" xmlns:xlink="http://www.w3.org/1999/xlink" x="0px" y="0px"
	 viewBox="0 0 392 75" style="enable-background:new 0 0 392 75;" xml:space="preserve">
<style type="text/css">
	.st0{opacity:0.23;}
	.st1{fill:#FFFFFF;filter:url(#Adobe_OpacityMaskFilter);}
	.st2{mask:url(#path-1-outside-1_2_);}
	.st3{fill:url(#SVGID_1_);}
</style>
<g class="st0">
	<defs>
		<filter id="Adobe_OpacityMaskFilter" filterUnits="userSpaceOnUse" x="0.1" y="0.1" width="391.2" height="73.9">
			<feColorMatrix  type="matrix" values="1 0 0 0 0  0 1 0 0 0  0 0 1 0 0  0 0 0 1 0"/>
		</filter>
	</defs>
	<mask maskUnits="userSpaceOnUse" x="0.1" y="0.1" width="391.2" height="73.9" id="path-1-outside-1_2_">
		<rect x="0.1" y="0.1" class="st1" width="392" height="74"/>
		<path d="M40.8,57.7h11.1c-1.3,3-3.1,5.7-5.6,8.1c-2.5,2.3-5.4,4.1-8.5,5.4c-3.2,1.3-6.5,1.9-9.8,1.9c-3.6,0-7-0.7-10.3-2.1
			c-3.3-1.4-6.2-3.4-8.6-5.9c-2.5-2.5-4.4-5.4-5.8-8.7C1.8,53,1.1,49.5,1.1,45.8c0-4.8,1.2-9.2,3.6-13.3c2.4-4.1,5.7-7.4,9.7-9.8
			S22.9,19,27.6,19c3.5,0,6.8,0.6,10.1,1.9c3.3,1.3,6.2,3.1,8.7,5.5c2.5,2.4,4.5,5.1,5.8,8.3H41.3c-1.6-2-3.6-3.6-6.1-4.7
			c-2.4-1.2-4.9-1.7-7.5-1.7c-3.1,0-6,0.8-8.6,2.5c-2.6,1.6-4.7,3.8-6.2,6.5c-1.5,2.7-2.3,5.7-2.3,8.9c0,3,0.8,5.9,2.3,8.6
			c1.6,2.7,3.7,4.8,6.3,6.5c2.6,1.6,5.5,2.4,8.4,2.4C32.7,63.7,37,61.7,40.8,57.7z M54.1,71.7L75.7,20h7.5l21.8,51.7H94.4l-5.6-13.4
			H70.4l-5.7,13.4H54.1z M73.9,49H85l-5.5-15.7L73.9,49z M77.9,8.6L72.6,7c0.2-1.9,1-3.4,2.3-4.4c1.3-1,3-1.5,5.2-1.5
			c2.2,0,4,0.7,5.4,2c1.4,1.3,2.1,3,2.1,5c0,1.1-0.3,2-1,2.8c-0.6,0.7-1.6,1.6-3,2.6c-0.7,0.4-1.2,0.8-1.5,1.1
			c-0.3,0.3-0.5,0.8-0.5,1.4h-5v-0.5c0-1.2,0.4-2.2,1.1-3.2c0.7-1,1.6-1.7,2.6-2.3c0.3-0.3,0.6-0.4,0.8-0.6c0.2-0.2,0.3-0.3,0.4-0.4
			c0.1-0.1,0.1-0.3,0.1-0.5c0-1.2-0.6-1.8-1.9-1.8C78.4,6.7,77.9,7.3,77.9,8.6z M110.2,71.7V20h13.1l13.9,39.5l14-39.5h13v51.7h-9.6
			V32.9l-13.4,38.8h-8.1l-13.4-38.8v38.8H110.2z M192.8,71.7V20h9.6v20.7h18.5V20h9.6v51.7h-9.6V50h-18.5v21.7H192.8z M239.9,20h9.6
			v32.3c0,1.6,0,2.9,0.1,3.9c0.1,1,0.4,2,0.9,3.1c0.7,1.4,1.7,2.4,2.9,3.2c1.2,0.8,2.5,1.2,4,1.2c1.3,0,2.5-0.3,3.7-1
			c1.2-0.7,2.1-1.5,2.8-2.6c0.6-1,1-2.2,1.2-3.3c0.2-1.2,0.2-2.6,0.2-4.4V20h9.6v9.3c1.3,0,2.2-0.7,2.8-2.1c0.6-1.4,0.9-3.8,0.9-7.1
			h5.1c-0.1,4.1-0.9,7.2-2.6,9.4c-1.6,2.2-3.7,3.2-6.2,3.2v19.6c0,3-0.3,5.7-0.8,7.9c-0.5,2.2-1.5,4.3-3,6.1
			c-1.8,2.1-3.8,3.7-6.3,4.9c-2.4,1.2-4.9,1.8-7.5,1.8c-2.3,0-4.7-0.6-7.1-1.7c-2.4-1.2-4.4-2.7-6.1-4.5c-1.2-1.4-2.1-2.8-2.7-4.3
			c-0.6-1.5-1-3-1.2-4.6c-0.2-1.6-0.3-3.4-0.3-5.6V20z M256,15.8l-2.5-4.9L265.3,4l2.7,5.4L256,15.8z M286,71.7V20h10.8l21.5,37.8
			V20h9.6v51.7h-10.6l-21.7-37.7v37.7H286z M387.7,35.2h-11.5c-1-1.4-2.3-2.7-3.7-3.7c-1.4-1-3-1.8-4.7-2.4
			c-1.7-0.6-3.4-0.9-5.2-0.9c-4.6,0-8.5,1.5-12,4.5c-1.2,1-2.2,2.3-3.1,3.7c-0.9,1.4-1.6,2.9-2.1,4.6c-0.5,1.6-0.8,3.2-0.8,4.8
			c0,2.2,0.4,4.3,1.3,6.5c0.9,2.2,2.1,4,3.6,5.5c1.8,1.9,3.9,3.3,6.2,4.3c2.3,1,4.7,1.5,7.2,1.5c3,0,6-0.9,8.8-2.6
			c2.8-1.7,4.9-4,6.3-6.7h-21.6v-9h33.7v1.1c0,4.9-1.3,9.4-3.8,13.5c-2.5,4.1-5.9,7.2-10.1,9.6c-4.2,2.3-8.8,3.5-13.6,3.5
			c-3.7,0-7.2-0.7-10.6-2c-3.3-1.4-6.3-3.3-8.9-5.7c-2.6-2.4-4.6-5.3-6-8.5c-1.5-3.3-2.2-6.8-2.2-10.6s0.7-7.3,2.2-10.6
			c1.5-3.3,3.5-6.2,6-8.7c2.6-2.5,5.5-4.4,8.9-5.8c3.4-1.4,6.9-2.1,10.5-2.1c3.5,0,7,0.7,10.3,2c3.4,1.3,6.3,3.2,8.9,5.7
			C384.5,29.1,386.5,32,387.7,35.2z"/>
	</mask>
	<g class="st2">
		
			<linearGradient id="SVGID_1_" gradientUnits="userSpaceOnUse" x1="179.9677" y1="97.5469" x2="209.7928" y2="-31.8229" gradientTransform="matrix(1 0 0 -1 0 76)">
			<stop  offset="0" style="stop-color:#613B02"/>
			<stop  offset="1" style="stop-color:#EFD16E"/>
		</linearGradient>
		<path class="st3" d="M362.8,74c-3.8,0-7.5-0.7-10.9-2.1c-3.4-1.4-6.5-3.4-9.2-5.9c-2.7-2.5-4.8-5.5-6.3-8.9
			c-1.5-3.4-2.3-7.1-2.3-11c0-3.9,0.8-7.6,2.2-11c1.5-3.4,3.6-6.4,6.2-9c2.6-2.6,5.7-4.6,9.2-6c6.9-2.8,14.6-2.9,21.6-0.1
			c3.5,1.4,6.6,3.3,9.2,5.9c2.7,2.5,4.7,5.5,6.1,8.9l0.5,1.4h-13.4l-0.3-0.4c-1-1.3-2.1-2.5-3.5-3.4c-1.4-1-2.9-1.7-4.5-2.2
			c-1.6-0.5-3.2-0.8-4.9-0.8c-4.3,0-8.1,1.4-11.3,4.2c-1.1,1-2.1,2.1-2.9,3.5c-0.8,1.3-1.5,2.8-2,4.3c-0.5,1.5-0.7,3-0.7,4.5
			c0,2,0.4,4.1,1.3,6.1c0.9,2,2,3.8,3.4,5.2c1.7,1.8,3.7,3.1,5.8,4.1c2.2,0.9,4.5,1.4,6.8,1.4c2.8,0,5.6-0.8,8.3-2.4
			c2.1-1.3,3.8-2.9,5.1-4.9h-20.9v-11h35.7v2.1c0,5.1-1.3,9.8-3.9,14c-2.6,4.2-6.1,7.5-10.5,9.9C372.6,72.8,367.8,74,362.8,74z
			 M362.7,20c-3.5,0-6.9,0.7-10.1,2c-3.2,1.3-6.1,3.2-8.5,5.6c-2.4,2.4-4.4,5.2-5.8,8.4c-1.4,3.1-2.1,6.6-2.1,10.2
			c0,3.6,0.7,7,2.1,10.2c1.4,3.1,3.4,5.9,5.8,8.2c2.5,2.3,5.3,4.2,8.5,5.5c3.2,1.3,6.6,1.9,10.2,1.9c4.7,0,9.1-1.1,13.2-3.4
			c4.1-2.2,7.3-5.3,9.7-9.2c2.4-3.9,3.6-8.2,3.6-12.9v-0.1h-31.7v7h22.3l-0.7,1.5c-1.5,2.9-3.7,5.3-6.7,7.1c-3,1.8-6.1,2.7-9.3,2.7
			c-2.6,0-5.2-0.5-7.6-1.6c-2.4-1.1-4.6-2.6-6.5-4.5c-1.6-1.6-2.9-3.6-3.8-5.8c-0.9-2.3-1.4-4.6-1.4-6.9c0-1.6,0.3-3.3,0.8-5
			c0.5-1.7,1.3-3.3,2.2-4.8c1-1.5,2.1-2.8,3.3-3.9c3.6-3.1,7.8-4.7,12.6-4.7c1.9,0,3.7,0.3,5.5,0.9c1.8,0.6,3.5,1.4,5,2.5
			c1.4,1,2.6,2.1,3.6,3.5h9.4c-1.2-2.5-2.9-4.8-5-6.8c-2.5-2.4-5.4-4.2-8.6-5.5C369.4,20.7,366.1,20,362.7,20z M257.4,74
			c-2.5,0-5-0.6-7.6-1.8c-2.5-1.2-4.7-2.8-6.4-4.8c-1.3-1.4-2.3-3-2.9-4.6c-0.6-1.6-1-3.2-1.3-4.8c-0.2-1.6-0.3-3.5-0.3-5.7V19h11.6
			v33.3c0,1.6,0,2.8,0.1,3.8c0.1,0.9,0.4,1.8,0.8,2.8c0.6,1.1,1.5,2.1,2.5,2.8c1,0.7,2.2,1,3.4,1c1.1,0,2.2-0.3,3.2-0.9
			c1.1-0.6,1.9-1.3,2.4-2.3c0.6-0.9,0.9-1.9,1-2.9c0.2-1.1,0.2-2.6,0.2-4.3V19h11.6v9c0.3-0.2,0.6-0.6,0.8-1.2
			c0.5-1.3,0.8-3.6,0.8-6.7v-1h7.1l0,1c-0.1,4.3-1,7.7-2.8,10c-1.6,2.1-3.6,3.3-6,3.6v18.6c0,3.1-0.3,5.8-0.8,8.1
			c-0.5,2.4-1.6,4.6-3.2,6.5c-1.8,2.2-4.1,3.9-6.6,5.2C262.7,73.4,260.1,74,257.4,74z M240.9,21v31.3c0,2.1,0.1,3.9,0.3,5.5
			c0.2,1.4,0.6,2.9,1.1,4.3c0.6,1.4,1.4,2.7,2.6,4c1.5,1.7,3.5,3.2,5.8,4.3c4.7,2.3,9.4,2.1,13.7-0.1c2.3-1.1,4.3-2.7,5.9-4.7
			c1.4-1.7,2.3-3.6,2.8-5.7c0.5-2.2,0.8-4.7,0.8-7.7V31.7h1c2.2,0,4-0.9,5.4-2.8c1.4-1.8,2.2-4.4,2.3-7.8h-3.1
			c-0.1,3-0.4,5.1-0.9,6.5c-0.9,2.3-2.5,2.7-3.7,2.7h-1V21h-7.6v31.3c0,1.8-0.1,3.4-0.2,4.6c-0.2,1.3-0.6,2.5-1.3,3.7
			c-0.7,1.2-1.8,2.2-3.2,3c-1.3,0.7-2.7,1.1-4.2,1.1c-1.6,0-3.2-0.4-4.5-1.3c-1.3-0.9-2.4-2.1-3.2-3.6c-0.5-1.2-0.8-2.4-1-3.4
			c-0.1-1.1-0.1-2.4-0.1-4V21H240.9z M27.9,74c-3.7,0-7.3-0.7-10.7-2.2c-3.4-1.5-6.4-3.5-8.9-6.1c-2.5-2.6-4.6-5.6-6-9
			c-1.4-3.4-2.2-7.1-2.2-10.8c0-4.9,1.3-9.6,3.8-13.8c2.5-4.3,5.9-7.7,10.1-10.2c4.2-2.5,8.8-3.8,13.7-3.8c3.6,0,7.1,0.7,10.4,2
			c3.4,1.3,6.4,3.2,9,5.7c2.6,2.5,4.6,5.4,6,8.7l0.6,1.4H40.8l-0.3-0.4c-1.5-1.9-3.4-3.4-5.7-4.4c-2.3-1.1-4.6-1.6-7.1-1.6
			c-2.9,0-5.6,0.8-8,2.3c-2.4,1.5-4.4,3.6-5.8,6.2c-1.4,2.5-2.1,5.4-2.1,8.4c0,2.8,0.7,5.6,2.2,8.1c1.5,2.5,3.5,4.6,6,6.1
			c2.5,1.5,5.1,2.3,7.9,2.3c4.6,0,8.7-1.9,12.3-5.7l0.3-0.3h13L52.8,58c-1.3,3.1-3.3,6-5.9,8.4c-2.6,2.4-5.6,4.3-8.9,5.6
			C34.8,73.4,31.4,74,27.9,74z M27.6,20c-4.5,0-8.8,1.2-12.7,3.5C11,25.8,7.9,29,5.6,33c-2.3,4-3.5,8.3-3.5,12.8c0,3.5,0.7,6.9,2,10
			c1.4,3.2,3.2,6,5.6,8.4c2.4,2.4,5.2,4.3,8.3,5.7c6.1,2.6,13,2.7,19.4,0.2c3.1-1.2,5.8-3,8.2-5.2c2-1.9,3.6-4,4.8-6.3h-9.1
			c-3.9,4-8.4,6-13.4,6c-3.2,0-6.2-0.9-9-2.6c-2.8-1.7-5-4-6.7-6.8c-1.6-2.9-2.5-5.9-2.5-9.1c0-3.3,0.8-6.5,2.4-9.3
			c1.6-2.9,3.8-5.2,6.5-6.9c2.7-1.7,5.8-2.6,9.1-2.6c2.7,0,5.4,0.6,7.9,1.8c2.4,1.1,4.5,2.7,6.1,4.6h8.9c-1.2-2.5-2.9-4.7-4.9-6.6
			c-2.4-2.3-5.2-4.1-8.4-5.3C34.3,20.7,31,20,27.6,20z M328.9,72.7h-12.2l-20.1-34.9v34.9H285V19h12.4l20,35V19h11.6V72.7z
			 M317.9,70.7h9.1V21h-7.6v40.5L296.2,21H287v49.7h7.6V30.3L317.9,70.7z M231.5,72.7h-11.6V51h-16.5v21.7h-11.6V19h11.6v20.7h16.5
			V19h11.6V72.7z M221.9,70.7h7.6V21h-7.6v20.7h-20.5V21h-7.6v49.7h7.6V49h20.5V70.7z M165.2,72.7h-11.6V38.9L142,72.7h-9.6
			l-11.7-33.8v33.8h-11.6V19H124l13.2,37.5L150.5,19h14.7V72.7z M155.7,70.7h7.6V21h-11.3l-14.8,41.5L122.6,21h-11.4v49.7h7.6V32.9
			l1.9-0.3l13.1,38.1h6.7l13.1-38.1l1.9,0.3V70.7z M106.4,72.7H93.7l-5.6-13.4h-17l-5.7,13.4H52.6L75,19h8.8L106.4,72.7z M95,70.7
			h8.4L82.5,21h-6.2L55.6,70.7H64l5.7-13.4h19.6L95,70.7z M86.4,50H72.5l7-19.7L86.4,50z M75.3,48h8.2l-4.1-11.7L75.3,48z
			 M255.6,17.1l-3.4-6.6l13.5-7.9l3.7,7.3L255.6,17.1z M254.8,11.3l1.6,3.1L266.7,9l-1.8-3.6L254.8,11.3z M82.5,17h-7v-1.5
			c0-1.4,0.4-2.6,1.3-3.8c0.5-0.7,1.1-1.3,1.8-1.9l-7.1-2.2l0.1-0.8c0.2-2.2,1.1-3.9,2.6-5.1c1.5-1.2,3.4-1.7,5.8-1.7
			c2.5,0,4.5,0.8,6.1,2.3c1.6,1.5,2.4,3.5,2.4,5.7c0,1.4-0.4,2.5-1.2,3.4c-0.7,0.8-1.7,1.7-3.2,2.8L84,14.4c-0.6,0.3-1,0.7-1.3,0.9
			c-0.1,0.1-0.2,0.2-0.2,0.7V17z M77.5,15h3.1c0.1-0.4,0.3-0.8,0.6-1.1c0.4-0.4,1-0.9,1.7-1.3c1.3-1,2.3-1.8,2.8-2.4
			c0.5-0.6,0.7-1.2,0.7-2.1c0-1.7-0.6-3.1-1.8-4.3C83.5,2.6,82,2.1,80,2.1c-1.9,0-3.4,0.4-4.5,1.3C74.6,4.1,74,5,73.7,6.3l3.4,1
			c0.4-1,1.3-1.6,2.5-1.6c1.8,0,2.9,1.1,2.9,2.8c0,0.4-0.1,0.7-0.2,1c-0.1,0.2-0.3,0.4-0.6,0.6c-0.2,0.2-0.5,0.4-0.9,0.6l-0.1,0.1
			c-0.9,0.5-1.7,1.2-2.3,2C77.9,13.6,77.6,14.3,77.5,15z M79.6,7.7c-0.5,0-0.7,0-0.7,0.9v1.1c0.3-0.2,0.5-0.4,0.8-0.5
			c0.3-0.2,0.6-0.4,0.7-0.5c0,0,0.1-0.1,0.1-0.1C80.5,7.9,80.3,7.7,79.6,7.7z"/>
	</g>
</g>
</svg>
