<?xml version="1.0" encoding="utf-8"?>
<!-- Generator: Adobe Illustrator 22.0.1, SVG Export Plug-In . SVG Version: 6.00 Build 0)  -->
<svg version="1.1" id="Layer_1" xmlns="http://www.w3.org/2000/svg" xmlns:xlink="http://www.w3.org/1999/xlink" x="0px" y="0px"
	 viewBox="0 0 82 590" style="enable-background:new 0 0 82 590;" xml:space="preserve">
<style type="text/css">
	.st0{fill:#FFFFFF;filter:url(#Adobe_OpacityMaskFilter);}
	.st1{mask:url(#path-1-outside-1_2_);}
	.st2{fill:url(#SVGID_1_);}
</style>
<defs>
	<filter id="Adobe_OpacityMaskFilter" filterUnits="userSpaceOnUse" x="0.7" y="0.4" width="80.7" height="589.2">
		<feColorMatrix  type="matrix" values="1 0 0 0 0  0 1 0 0 0  0 0 1 0 0  0 0 0 1 0"/>
	</filter>
</defs>
<mask maskUnits="userSpaceOnUse" x="0.7" y="0.4" width="80.7" height="589.2" id="path-1-outside-1_2_">
	<rect x="0.1" y="0.4" class="st0" width="82" height="590"/>
	<path d="M64.7,579.1H22.3v9.5H13v-28.8h9.3v9.7h42.4V579.1z M64.7,556H25.9v-8.4h3.5v-0.1c-1.7-1-2.9-2.2-3.6-3.5
		c-0.8-1.3-1.1-2.9-1.1-4.8v-0.7h9c0,2.2,0.6,4.1,1.8,5.7c0.7,0.8,1.4,1.4,2.3,1.8c0.8,0.4,1.7,0.6,2.6,0.7c0.9,0.1,2,0.1,3.5,0.1
		h20.9V556z M25.9,508.4v-9.3h38.8v8.5h-4.1v0.1c3.6,1.8,5.4,5.1,5.4,9.8c0,2.3-0.4,4.6-1.3,6.7c-0.9,2.1-2.3,4-4.1,5.6
		c-1.2,1.1-2.4,1.9-3.7,2.5c-1.3,0.5-2.7,0.9-4.1,1c-1.4,0.1-3.1,0.2-5,0.2H25.9v-9.3h19c3.7,0,6.3-0.4,7.9-1.2
		c1.3-0.6,2.2-1.5,2.9-2.7c0.7-1.2,1.1-2.5,1.1-3.9c0-3.2-1.1-5.3-3.3-6.4c-2.2-1.1-5.1-1.6-8.6-1.6H25.9z M77.7,487.8l-16.6-7.1
		l-35.2,14.2v-10.6l24.8-8.9l-24.8-9.3v-10.6l51.7,22.3V487.8z M49.5,412.6v30.1c2.3-0.7,4.1-2,5.4-3.9c1.3-1.9,2-4,2-6.3
		c0-1.7-0.3-3.4-0.9-5c-0.6-1.6-1.4-2.8-2.5-3.7v-10.3c2.3,0.8,4.4,2.1,6.3,4c1.9,1.9,3.4,4.1,4.5,6.7c1.1,2.6,1.6,5.2,1.6,7.9
		c0,3.7-0.9,7.1-2.7,10.3c-1.8,3.1-4.3,5.6-7.5,7.5c-3.1,1.8-6.5,2.7-10.2,2.7c-3.8,0-7.3-0.9-10.5-2.7c-3.2-1.8-5.8-4.3-7.6-7.5
		c-1.9-3.2-2.8-6.7-2.8-10.5c0-2.7,0.5-5.3,1.6-7.7c1.1-2.4,2.6-4.5,4.4-6.3c1.9-1.8,4-3.2,6.5-4.3c2.5-1,5.1-1.5,7.8-1.5
		C45.7,412.1,47.2,412.3,49.5,412.6z M41.2,442.9v-21.4c-1.5,0.5-2.8,1.3-3.9,2.4c-1.1,1.1-2,2.3-2.6,3.7c-0.6,1.4-0.9,2.9-0.9,4.5
		c0,2.4,0.7,4.6,2.1,6.7C37.2,440.8,39,442.2,41.2,442.9z M21.2,442.9l-7.2-7.7v-5.5l7.2-7.6v7.6l-3.3,2.8l3.3,2.9V442.9z
		 M7.5,434.6l-5.4-2.9L9.2,420l4.8,2.7L7.5,434.6z M64.7,406.1H25.9v-8.6h3.6v-0.2c-1.5-1.1-2.7-2.6-3.6-4.5c-0.8-1.9-1.3-3.9-1.3-6
		c0-2.1,0.4-4.1,1.3-6c0.8-2,2-3.6,3.5-5c0.4-0.5,0.8-0.8,1.1-1c1.9-1.4,3.9-2.2,5.9-2.6c2.1-0.3,4.8-0.5,8-0.5h20.1v9.3H46.4
		c-2.1,0-4,0.1-5.5,0.3c-1.5,0.2-2.8,0.6-3.9,1.3c-1,0.6-1.8,1.5-2.3,2.6c-0.6,1.1-0.9,2.3-0.9,3.6c0,1.3,0.3,2.5,0.9,3.7
		c0.6,1.2,1.4,2.1,2.5,2.8c1.2,0.7,2.6,1.1,4.2,1.3c1.6,0.2,3.5,0.2,5.7,0.2h17.6V406.1z M52.1,316.6v-10.5c2.8,0.9,5.2,2.3,7.3,4.2
		c2.1,1.9,3.7,4.2,4.9,6.8c1.2,2.6,1.7,5.4,1.7,8.2c0,2.6-0.5,5.2-1.6,7.8c-1,2.6-2.5,4.8-4.2,6.6c-2,2.1-4.3,3.7-6.9,4.8
		c-2.6,1-5.3,1.6-8.2,1.6c-2.8,0-5.4-0.5-7.9-1.6c-2.5-1.1-4.6-2.6-6.5-4.5c-1.9-1.9-3.3-4.1-4.4-6.6c-1-2.5-1.6-5.2-1.6-8
		c0-2.8,0.6-5.6,1.8-8.3c1.2-2.7,2.8-5,5-6.9c2.1-2,4.6-3.3,7.3-4.1v10.5c-3.3,2-5,5-5,9c0,2.2,0.5,4.1,1.5,5.8c1,1.7,2.3,3,4.1,4
		c1.8,0.9,3.7,1.4,5.8,1.4c2.2,0,4.2-0.5,6-1.5c1.8-1,3.2-2.4,4.2-4.2c1-1.8,1.5-3.8,1.5-6c0-1.1-0.2-2.2-0.6-3.3
		c-0.4-1.1-0.9-2-1.6-2.9C53.9,318,53.1,317.2,52.1,316.6z M25.9,260.3h38.8v8.5h-5.3v0.1c2,1.4,3.6,3.3,4.8,5.8
		c1.2,2.4,1.8,4.9,1.8,7.3c0,2.9-0.6,5.6-1.7,8c-1.1,2.4-2.7,4.5-4.8,6.3c-3.9,3.2-8.6,4.9-14.1,4.9c-1.7,0-3.4-0.2-5.1-0.5
		c-1.7-0.3-3.2-0.9-4.6-1.6c-1.4-0.7-2.9-1.7-4.3-2.9c-2.3-2-4-4.1-5.1-6.5c-1.1-2.4-1.6-5-1.6-7.9c0-2.7,0.6-5.1,1.7-7.3
		c1.1-2.3,2.8-4.1,5-5.7h-5.5V260.3z M45.3,269.1c-1.6,0-3.2,0.3-4.5,0.8c-1.4,0.5-2.6,1.3-3.7,2.3c-1,1-1.8,2.2-2.4,3.6
		c-0.6,1.4-0.9,2.9-0.9,4.5c0,3.4,1.1,6.2,3.4,8.4c2.2,2.2,5.1,3.2,8.5,3.2c3.1,0,5.8-1.1,8-3.4c2.2-2.3,3.2-5,3.2-8.1
		c0-2.2-0.5-4.1-1.5-5.9c-1-1.7-2.4-3.1-4.2-4C49.4,269.6,47.5,269.1,45.3,269.1z M12.9,280l-1.6,5.3c-1.9-0.2-3.4-1-4.4-2.3
		c-1-1.3-1.5-3-1.5-5.1c0-1.5,0.3-2.8,1-4c0.6-1.1,1.5-2,2.6-2.6c1-0.6,2.2-0.9,3.6-0.9c1.1,0,2,0.3,2.8,1c0.7,0.6,1.6,1.6,2.6,3
		c0.4,0.7,0.8,1.3,1.2,1.6c0.3,0.3,0.8,0.5,1.4,0.5v5h-0.5c-1.2,0-2.2-0.4-3.2-1.1c-1-0.7-1.8-1.6-2.3-2.7c-0.2-0.3-0.4-0.5-0.5-0.7
		c-0.2-0.2-0.3-0.3-0.4-0.4c-0.1-0.1-0.3-0.1-0.5-0.1c-1.2,0-1.8,0.6-1.8,1.9C11,279.5,11.6,280,12.9,280z M64.7,253.3H25.9v-8.5
		h3.6v-0.2c-1.6-0.8-2.8-2.1-3.6-4c-0.8-1.9-1.2-3.9-1.2-6.1c0-2.1,0.4-4,1.3-5.8c0.8-1.8,2-3.4,3.6-4.5c0.3-0.3,0.7-0.6,1.2-0.9
		c-0.5-0.3-0.9-0.6-1.2-1c-1.6-1.3-2.8-3-3.6-5c-0.8-2-1.2-4.1-1.2-6.4c0-5.1,1.6-9,4.8-11.8c1.2-1.1,2.5-2,3.9-2.5
		c1.4-0.6,2.9-1,4.3-1.2c1.5-0.2,3.2-0.3,5.2-0.3h21.8v9.3H44.1c-1.7,0-3.1,0.1-4.3,0.3c-1.2,0.2-2.3,0.5-3.1,1.1
		c-0.6,0.4-1.1,0.9-1.5,1.5c-0.4,0.6-0.8,1.3-1,2c-0.2,0.7-0.3,1.5-0.3,2.3c0,1.4,0.3,2.6,0.9,3.7c0.6,1.1,1.4,2,2.5,2.7
		c1.1,0.6,2.4,1,3.9,1.2c1.5,0.2,3.2,0.2,5.2,0.2h18.5v9.3H44.1c-1.7,0-3,0.1-4.1,0.3c-1.1,0.2-2.1,0.6-3,1.2
		c-1,0.6-1.8,1.5-2.3,2.6c-0.5,1.1-0.8,2.2-0.8,3.5c0,2.3,0.6,4,1.8,5.1c1.2,1.1,2.7,1.8,4.3,2.1c1.6,0.3,3.7,0.4,6.3,0.4h18.5
		V253.3z M64.7,167.9H13v-9.3h15.9c-1.4-1-2.4-2.4-3.1-4.3c-0.7-1.8-1.1-3.7-1.1-5.7c0-2.1,0.5-4.2,1.4-6.3c0.9-2.1,2.2-3.8,3.8-5.2
		c1.3-1.1,2.6-1.9,4.1-2.5c1.5-0.5,2.9-0.9,4.3-1c1.4-0.1,3.2-0.2,5.5-0.2h21v9.3h-19c-2.4,0-4.4,0.2-6.1,0.5
		c-1.7,0.3-3.1,1.1-4.2,2.3c-1.1,1.2-1.7,2.9-1.7,5.1c0,2.8,1.1,4.9,3.3,6.4c1.1,0.6,2.3,1,3.7,1.2c1.4,0.2,3.1,0.2,5,0.2h18.8
		V167.9z M25.9,100.9v-9.3h9.3c0-1.3-0.7-2.2-2.2-2.8c-1.5-0.6-3.8-0.9-7.1-0.9v-5.1c4.1,0.1,7.3,0.9,9.4,2.6
		c2.2,1.6,3.2,3.7,3.2,6.2h26.1v8.5h-4.1v0.1c3.6,1.8,5.4,5.1,5.4,9.9c0,2.3-0.4,4.5-1.3,6.7c-0.9,2.1-2.3,4-4.1,5.6
		c-0.9,0.8-1.8,1.5-2.7,2c-0.9,0.5-1.9,0.9-3,1.1c-1.1,0.3-2.2,0.4-3.4,0.5c-1.2,0.1-2.4,0.1-3.6,0.1H25.9v-9.3h19
		c3.7,0,6.3-0.4,7.9-1.2c1.2-0.6,2.2-1.5,2.9-2.7c0.7-1.2,1.1-2.5,1.1-3.9c0-3.2-1.1-5.3-3.3-6.4c-2.2-1.1-5.1-1.6-8.6-1.6H25.9z
		 M22.4,110.9l-4.8,2.5l-6.9-11.8l5.5-2.7L22.4,110.9z M64.7,82.4H25.9v-8.6h3.6v-0.2c-1.5-1.1-2.7-2.6-3.6-4.5
		c-0.8-1.9-1.3-3.9-1.3-6c0-2.1,0.4-4.1,1.3-6c0.8-2,2-3.6,3.5-5c0.4-0.5,0.8-0.8,1.1-1c1.9-1.4,3.9-2.2,5.9-2.6s4.8-0.5,8-0.5h20.1
		v9.3H46.4c-2.1,0-4,0.1-5.5,0.3c-1.5,0.2-2.8,0.6-3.9,1.3c-1,0.6-1.8,1.5-2.3,2.6c-0.6,1.1-0.9,2.3-0.9,3.6c0,1.3,0.3,2.5,0.9,3.7
		c0.6,1.2,1.4,2.1,2.5,2.8c1.2,0.7,2.6,1.1,4.2,1.3c1.6,0.2,3.5,0.2,5.7,0.2h17.6V82.4z M25.9,10V1.4h32.9c3.2,0,5.9,0.4,8.2,1.2
		c2.3,0.8,4.6,2.2,6.7,4.2c2.1,2,3.7,4.4,4.9,7.1s1.8,5.5,1.8,8.3c0,2.7-0.5,5.4-1.6,8c-1,2.6-2.6,4.9-4.5,6.9
		c-1.9,2-4.2,3.4-6.7,4.4V31c1.1-1,2-2.3,2.7-4c0.7-1.6,1.1-3.2,1.1-4.7c0-1.6-0.3-3.2-0.9-4.7c-0.5-1.5-1.3-2.9-2.4-4
		c-1.2-1.3-2.3-2.1-3.6-2.5c-1.2-0.5-2.9-0.9-5.1-1.2l-0.1,0.2c4.4,3.4,6.7,7.5,6.7,12.4c0,1.6-0.3,3.3-0.8,5
		C64.7,29,64,30.7,63,32.2c-0.9,1.6-2,2.9-3.1,4.1c-1.3,1.2-2.7,2.3-4.4,3.2c-1.7,0.9-3.4,1.5-5.2,2c-1.8,0.4-3.6,0.6-5.5,0.6
		c-2.5,0-4.9-0.5-7.2-1.4c-2.3-0.9-4.4-2.2-6.3-3.8c-2.1-1.8-3.7-4-4.8-6.6c-1.2-2.6-1.7-5.3-1.7-8.1c0-2.7,0.6-5.1,1.7-7.2
		c1.1-2.2,2.7-3.8,4.9-4.9V10H25.9z M45.5,10.2c-1.7,0-3.2,0.3-4.6,0.9c-1.5,0.6-2.7,1.4-3.7,2.4c-1,1-1.8,2.3-2.4,3.7
		c-0.6,1.4-0.9,2.9-0.9,4.6c0,3.1,1.1,5.7,3.4,7.9c1.1,1,2.3,1.8,3.6,2.3c1.3,0.5,2.8,0.8,4.3,0.8c2.2,0,4.2-0.5,6-1.5
		c1.8-1,3.2-2.4,4.2-4.2c1-1.8,1.5-3.8,1.5-6c0-1.5-0.3-3-1-4.3c-0.6-1.4-1.5-2.5-2.6-3.5c-1.1-1-2.3-1.7-3.7-2.3
		C48.3,10.5,46.9,10.2,45.5,10.2z"/>
</mask>
<g class="st1">
	
		<linearGradient id="SVGID_1_" gradientUnits="userSpaceOnUse" x1="-25.1056" y1="271.8856" x2="229.6525" y2="379.7794" gradientTransform="matrix(1 0 0 -1 0 592)">
		<stop  offset="0" style="stop-color:#613B02"/>
		<stop  offset="1" style="stop-color:#EFD16E"/>
	</linearGradient>
	<path class="st2" d="M23.3,589.7H12v-30.8h11.3v9.7h42.4v11.6H23.3V589.7z M14,587.7h7.3v-9.5h42.4v-7.6H21.3v-9.7H14V587.7z
		 M65.7,557H24.9v-10.4h1.7c-0.7-0.7-1.3-1.4-1.7-2.2c-0.8-1.5-1.3-3.3-1.3-5.3v-1.7h11v1c0,2,0.5,3.7,1.6,5.1
		c0.5,0.7,1.2,1.2,1.9,1.5c0.7,0.3,1.5,0.6,2.2,0.6c0.9,0.1,2,0.1,3.4,0.1h21.9V557z M26.9,555h36.8v-7.3H43.8c-1.4,0-2.6,0-3.6-0.1
		c-1-0.1-2-0.4-2.9-0.8c-1-0.4-1.9-1.2-2.6-2.1c-1.2-1.5-1.8-3.3-2-5.3h-7.1c0,1.6,0.4,2.9,1,4c0.6,1.1,1.7,2.2,3.3,3.2l0.5,0.3v1.7
		h-3.5V555z M47.8,534.5H24.9v-11.3h20c3.5,0,6-0.4,7.5-1.1c1.1-0.6,1.9-1.3,2.5-2.4c0.6-1,0.9-2.1,0.9-3.4c0-2.8-0.9-4.6-2.8-5.5
		c-2.1-1-4.8-1.5-8.2-1.5h-20v-11.3h40.8v10.5h-2.2c2.3,2.1,3.4,5.1,3.4,9c0,2.5-0.5,4.9-1.4,7.1c-1,2.3-2.4,4.2-4.3,5.9
		c-1.2,1.1-2.6,2-4,2.6c-1.4,0.6-2.8,0.9-4.3,1.1C51.4,534.5,49.7,534.5,47.8,534.5z M26.9,532.5h20.9c1.8,0,3.5-0.1,4.9-0.2
		c1.3-0.1,2.6-0.5,3.8-1c1.2-0.5,2.3-1.3,3.4-2.3c1.7-1.5,3-3.3,3.8-5.2c0.8-2,1.3-4.1,1.3-6.3c0-4.3-1.6-7.3-4.9-9l-0.5-0.3v-1.7
		h4.1v-6.5H26.9v7.3h18c3.6,0,6.7,0.6,9.1,1.7c2.6,1.3,3.9,3.7,3.9,7.3c0,1.6-0.4,3.1-1.2,4.4c-0.8,1.3-1.9,2.4-3.3,3.1
		c-1.8,0.9-4.5,1.3-8.4,1.3h-18V532.5z M24.9,496.4v-12.8l22.9-8.2l-22.9-8.6V454l53.7,23.1v12.2l-17.6-7.6L24.9,496.4z M26.9,485
		v8.4l34.2-13.8l15.6,6.7v-7.8l-49.7-21.4v8.3l26.8,10L26.9,485z M45.6,453.6c-3.9,0-7.6-1-11-2.8c-3.4-1.9-6-4.5-8-7.8
		c-2-3.3-3-7-3-11c0-2.9,0.6-5.6,1.7-8.1c1.1-2.5,2.7-4.8,4.7-6.6c1.9-1.9,4.2-3.4,6.8-4.5c2.6-1.1,5.3-1.6,8.1-1.6
		c0.7,0,2.2,0.2,4.5,0.5l0.9,0.1v29.5c1.5-0.7,2.6-1.7,3.6-3c1.2-1.7,1.8-3.6,1.8-5.7c0-1.6-0.3-3.2-0.8-4.6
		c-0.5-1.4-1.3-2.5-2.2-3.3l-0.4-0.3v-12.1l1.3,0.4c2.4,0.8,4.7,2.3,6.7,4.3c2,2,3.6,4.3,4.8,7c1.1,2.7,1.7,5.5,1.7,8.3
		c0,3.9-1,7.5-2.9,10.8c-1.9,3.3-4.5,5.9-7.8,7.8C53,452.6,49.4,453.6,45.6,453.6z M45.1,413.1c-2.5,0-5,0.5-7.4,1.5
		c-2.4,1-4.4,2.3-6.2,4.1c-1.8,1.7-3.2,3.7-4.2,6c-1,2.3-1.6,4.7-1.6,7.3c0,3.6,0.9,7,2.7,9.9c1.8,3,4.2,5.4,7.3,7.1
		c3,1.7,6.4,2.6,10,2.6c3.5,0,6.7-0.9,9.7-2.6c3-1.7,5.4-4.1,7.1-7.1c1.7-3,2.6-6.2,2.6-9.7c0-2.5-0.5-5-1.6-7.5
		c-1.1-2.5-2.5-4.6-4.3-6.4c-1.4-1.4-3-2.5-4.6-3.3v8.4c1,1,1.8,2.2,2.4,3.8c0.6,1.7,1,3.5,1,5.3c0,2.5-0.7,4.8-2.2,6.9
		c-1.5,2-3.5,3.5-5.9,4.3l-1.3,0.4v-30.6C46.3,413.2,45.4,413.1,45.1,413.1z M22.2,445.4l-9.2-9.8v-6.3l9.2-9.7v10.5l-2.8,2.3
		l2.8,2.4V445.4z M15,434.8l5.2,5.6v-4.6l-3.9-3.3l3.9-3.3v-4.6l-5.2,5.5V434.8z M42.2,444.2l-1.3-0.4c-2.4-0.8-4.4-2.3-5.9-4.5
		c-1.5-2.2-2.3-4.6-2.3-7.2c0-1.7,0.3-3.4,1-4.9c0.6-1.5,1.6-2.9,2.8-4.1c1.2-1.2,2.7-2,4.3-2.6l1.3-0.4V444.2z M40.2,423
		c-0.8,0.4-1.6,0.9-2.2,1.6c-1,1-1.8,2.1-2.4,3.4c-0.5,1.3-0.8,2.6-0.8,4.1c0,2.2,0.6,4.2,1.9,6.1c1,1.4,2.1,2.5,3.5,3.2V423z
		 M7.9,436L0.7,432l8.1-13.3l6.5,3.7L7.9,436z M3.5,431.3l3.6,2l5.5-10.1l-3.1-1.8L3.5,431.3z M65.7,407.1H24.9v-10.6h2.2
		c-0.8-1-1.5-2.1-2.1-3.3c-0.9-2-1.3-4.2-1.3-6.4c0-2.2,0.5-4.4,1.4-6.5c0.9-2.1,2.1-3.8,3.7-5.3c0.5-0.5,0.9-0.9,1.3-1.1
		c1.9-1.4,4.1-2.3,6.3-2.7c2.1-0.3,4.9-0.5,8.2-0.5h21.1v11.3H46.4c-2.1,0-3.9,0.1-5.4,0.3c-1.4,0.2-2.6,0.6-3.5,1.2
		c-0.8,0.5-1.5,1.3-2,2.2c-0.5,1-0.8,2-0.8,3.1c0,1.1,0.3,2.2,0.8,3.3c0.5,1,1.2,1.8,2.1,2.4c1.1,0.6,2.4,1,3.8,1.2
		c1.5,0.2,3.4,0.2,5.6,0.2h18.6V407.1z M26.9,405.1h36.8v-7.3H47.1c-2.3,0-4.2-0.1-5.8-0.2c-1.7-0.2-3.3-0.7-4.6-1.4
		c-1.2-0.7-2.2-1.8-2.9-3.2c-0.7-1.4-1-2.8-1-4.2c0-1.4,0.3-2.7,1-4c0.6-1.3,1.5-2.3,2.7-3c1.2-0.8,2.7-1.2,4.3-1.4
		c1.6-0.2,3.4-0.3,5.6-0.3h17.3v-7.3H44.6c-3.2,0-5.9,0.2-7.9,0.5c-1.9,0.3-3.8,1.1-5.5,2.4c-0.2,0.2-0.5,0.4-1,0.8l-0.1,0.1
		c-1.4,1.3-2.5,2.8-3.3,4.6c-0.8,1.8-1.2,3.7-1.2,5.7c0,1.9,0.4,3.8,1.2,5.6c0.7,1.7,1.8,3.1,3.2,4.1l0.4,0.3v1.7h-3.6V405.1z
		 M45.1,347.1c-2.9,0-5.7-0.6-8.3-1.7c-2.6-1.1-4.9-2.7-6.8-4.7c-2-2-3.5-4.3-4.6-7c-1.1-2.6-1.6-5.4-1.6-8.3c0-3,0.6-5.9,1.9-8.7
		c1.2-2.8,3-5.2,5.2-7.3c2.2-2.1,4.9-3.5,7.8-4.3l1.3-0.4v12.4l-0.5,0.3c-3.1,1.8-4.5,4.5-4.5,8.1c0,2,0.5,3.8,1.4,5.3
		c0.9,1.5,2.1,2.7,3.7,3.6c1.6,0.8,3.4,1.3,5.3,1.3c2,0,3.9-0.5,5.5-1.3c1.6-0.9,2.9-2.2,3.8-3.8c0.9-1.6,1.4-3.5,1.4-5.5
		c0-1-0.2-2-0.5-2.9c-0.3-1-0.8-1.9-1.5-2.7c-0.6-0.8-1.4-1.5-2.3-2l-0.5-0.3v-12.4l1.3,0.4c2.9,0.9,5.5,2.4,7.7,4.4
		c2.2,2,3.9,4.4,5.1,7.2c1.2,2.8,1.8,5.7,1.8,8.6c0,2.7-0.6,5.5-1.6,8.2c-1.1,2.7-2.6,5-4.4,6.9c-2.1,2.2-4.6,3.9-7.3,5
		C50.9,346.6,48,347.1,45.1,347.1z M37.8,307.5c-2.1,0.8-4,1.9-5.7,3.5c-2,1.9-3.6,4.1-4.8,6.6c-1.1,2.5-1.7,5.2-1.7,7.9
		c0,2.6,0.5,5.2,1.5,7.6c1,2.4,2.4,4.5,4.2,6.3c1.8,1.8,3.9,3.2,6.2,4.3c2.3,1,4.8,1.5,7.5,1.5c2.7,0,5.3-0.5,7.8-1.5
		c2.4-1,4.7-2.5,6.6-4.5c1.7-1.7,3-3.9,4-6.3c1-2.4,1.5-4.9,1.5-7.4c0-2.7-0.6-5.3-1.7-7.8s-2.7-4.7-4.6-6.5
		c-1.6-1.5-3.5-2.7-5.6-3.5v8.5c0.9,0.6,1.7,1.3,2.3,2.2c0.8,1,1.4,2.1,1.8,3.2c0.4,1.2,0.6,2.4,0.6,3.6c0,2.4-0.5,4.6-1.6,6.5
		c-1.1,2-2.6,3.5-4.6,4.6c-2,1.1-4.1,1.6-6.5,1.6c-2.3,0-4.4-0.5-6.3-1.5c-1.9-1-3.4-2.5-4.5-4.3c-1.1-1.9-1.6-4-1.6-6.3
		c0-4.1,1.7-7.3,5-9.5V307.5z M45.3,302.3c-1.8,0-3.6-0.2-5.2-0.5c-1.8-0.4-3.4-0.9-4.9-1.7c-1.5-0.8-3-1.8-4.5-3.1
		c-2.4-2-4.2-4.4-5.3-6.9c-1.1-2.5-1.7-5.3-1.7-8.3c0-2.8,0.6-5.4,1.8-7.8c0.8-1.6,1.8-3,3.1-4.2h-3.7v-10.5h40.8v10.5H62
		c1.2,1.3,2.3,2.8,3.1,4.5c1.2,2.6,1.9,5.2,1.9,7.8c0,3-0.6,5.9-1.8,8.4c-1.2,2.6-2.9,4.8-5.1,6.6C56,300.6,51.1,302.3,45.3,302.3z
		 M26.9,267.8h7.6l-2.6,1.8c-2,1.4-3.6,3.2-4.7,5.3c-1.1,2.1-1.6,4.4-1.6,6.9c0,2.7,0.5,5.2,1.6,7.5c1,2.2,2.6,4.3,4.8,6.2
		c1.4,1.2,2.7,2.1,4.1,2.8c1.3,0.7,2.8,1.2,4.4,1.5c1.6,0.3,3.2,0.5,4.9,0.5c5.3,0,9.8-1.6,13.5-4.6c1.9-1.6,3.5-3.7,4.6-5.9
		c1.1-2.3,1.6-4.8,1.6-7.6c0-2.3-0.6-4.6-1.7-6.9c-1.1-2.3-2.6-4.1-4.4-5.4l-0.4-0.3v-1.7h5.3v-6.5H26.9V267.8z M45.7,292.9
		c-3.7,0-6.8-1.2-9.2-3.5c-2.4-2.4-3.7-5.4-3.7-9.1c0-1.7,0.3-3.4,1-4.9c0.6-1.5,1.5-2.8,2.6-3.9c1.1-1.1,2.5-1.9,4-2.5
		c1.5-0.6,3.1-0.9,4.9-0.9c2.3,0,4.5,0.5,6.4,1.6c1.9,1,3.4,2.5,4.6,4.4c1.1,1.9,1.6,4,1.6,6.4c0,3.4-1.2,6.4-3.5,8.8
		C52,291.7,49.1,292.9,45.7,292.9z M45.3,270.1c-1.5,0-2.9,0.3-4.2,0.8c-1.3,0.5-2.4,1.2-3.3,2.1c-0.9,0.9-1.6,2-2.2,3.2
		c-0.5,1.3-0.8,2.7-0.8,4.1c0,3.1,1,5.6,3.1,7.7c2.1,2,4.6,3,7.8,3c2.9,0,5.3-1,7.2-3.1c2-2.1,3-4.5,3-7.4c0-2-0.5-3.8-1.4-5.4
		c-0.9-1.6-2.2-2.8-3.8-3.6C49.1,270.6,47.3,270.1,45.3,270.1z M12,286.4l-0.8-0.1c-2.2-0.3-3.9-1.2-5.1-2.7
		c-1.2-1.5-1.7-3.4-1.7-5.7c0-1.7,0.4-3.2,1.1-4.5c0.7-1.3,1.7-2.3,2.9-3c1.2-0.7,2.6-1.1,4.1-1.1c1.4,0,2.5,0.4,3.4,1.2
		c0.8,0.7,1.7,1.7,2.8,3.2c0.5,0.9,0.8,1.3,1,1.4c0.1,0.1,0.4,0.2,0.7,0.2h1v7h-1.5c-1.4,0-2.6-0.4-3.8-1.2
		c-0.7-0.5-1.4-1.1-1.9-1.8L12,286.4z M12.4,271.4c-1.2,0-2.1,0.3-3,0.8c-0.9,0.5-1.6,1.3-2.2,2.3c-0.6,1-0.8,2.1-0.8,3.5
		c0,1.8,0.4,3.3,1.3,4.5c0.7,0.9,1.7,1.5,2.9,1.8l1-3.3c-1-0.4-1.6-1.3-1.6-2.5c0-1.8,1.1-2.9,2.8-2.9c0.4,0,0.8,0.1,1.1,0.3
		c0.2,0.1,0.4,0.3,0.6,0.6l0.6,0.8c0.5,0.9,1.2,1.7,2,2.3c0.7,0.5,1.4,0.8,2.1,0.8v-3.1c-0.4-0.1-0.8-0.3-1.1-0.6
		c-0.4-0.4-0.8-0.9-1.3-1.8c-0.9-1.3-1.8-2.2-2.4-2.8C14,271.6,13.3,271.4,12.4,271.4z M12.8,277.4c-0.6,0-0.8,0.2-0.8,0.9
		c0,0.5,0,0.7,0.9,0.7H14c-0.2-0.3-0.4-0.6-0.5-0.9l-0.5-0.6C12.9,277.4,12.8,277.4,12.8,277.4z M65.7,254.3H24.9v-10.5h1.8
		c-0.7-0.8-1.3-1.7-1.7-2.8c-0.8-2-1.3-4.2-1.3-6.4c0-2.2,0.5-4.3,1.4-6.3c0.9-2,2.2-3.6,3.8-4.9c0.1-0.1,0.1-0.1,0.2-0.2
		c-0.1-0.1-0.2-0.2-0.2-0.3c-1.7-1.4-2.9-3.2-3.8-5.3c-0.9-2.1-1.3-4.4-1.3-6.7c0-5.4,1.7-9.6,5.2-12.6c1.2-1.2,2.6-2.1,4.2-2.7
		c1.5-0.6,3-1,4.6-1.2c1.5-0.2,3.3-0.3,5.3-0.3h22.8v11.3H44.1c-1.6,0-3,0.1-4.2,0.3c-1.1,0.1-2,0.5-2.7,1c-0.5,0.3-0.9,0.8-1.3,1.3
		c-0.4,0.5-0.7,1.1-0.9,1.7c-0.2,0.6-0.3,1.3-0.3,2c0,1.2,0.3,2.3,0.7,3.3c0.5,1,1.2,1.7,2.1,2.3c1,0.5,2.1,0.9,3.5,1.1
		c1.4,0.2,3.1,0.2,5.1,0.2h19.5v11.3H44.1c-1.6,0-2.9,0.1-4,0.3c-1,0.1-1.8,0.5-2.6,1c-0.9,0.6-1.5,1.3-2,2.2c-0.5,0.9-0.7,2-0.7,3
		c0,2,0.5,3.5,1.5,4.4c1.1,1,2.3,1.6,3.8,1.8c1.6,0.2,3.6,0.4,6.1,0.4h19.5V254.3z M26.9,252.3h36.8V245H46.2
		c-2.6,0-4.7-0.1-6.4-0.4c-1.9-0.3-3.5-1.1-4.9-2.3c-1.4-1.3-2.2-3.3-2.2-5.9c0-1.4,0.3-2.7,0.9-3.9c0.6-1.2,1.5-2.3,2.7-3
		c1-0.7,2.2-1.2,3.4-1.3c1.1-0.2,2.6-0.3,4.3-0.3h19.6v-7.3H46.2c-2.1,0-3.8-0.1-5.3-0.2c-1.6-0.2-3-0.7-4.3-1.4
		c-1.3-0.8-2.2-1.8-2.9-3.1c-0.6-1.3-1-2.7-1-4.2c0-0.9,0.1-1.8,0.4-2.6c0.3-0.8,0.6-1.6,1.1-2.3c0.5-0.7,1.1-1.3,1.8-1.8
		c1-0.7,2.1-1.1,3.5-1.3c1.2-0.2,2.7-0.3,4.4-0.3h19.6v-7.3H42.9c-2,0-3.7,0.1-5.1,0.3c-1.4,0.2-2.8,0.5-4.1,1.1
		c-1.3,0.5-2.5,1.3-3.6,2.3c-3,2.7-4.5,6.3-4.5,11.1c0,2.1,0.4,4.1,1.2,6c0.8,1.8,1.9,3.4,3.3,4.6l0.1,0.2c0.2,0.3,0.5,0.5,0.9,0.7
		l1.6,0.8l-1.5,0.9c-0.6,0.3-0.9,0.6-1,0.7l-0.1,0.1c-1.4,1.1-2.5,2.5-3.3,4.2c-0.8,1.7-1.2,3.5-1.2,5.4c0,2,0.4,3.9,1.1,5.7
		c0.7,1.7,1.7,2.8,3.1,3.5l0.6,0.3v1.8h-3.6V252.3z M65.7,168.9H12v-11.3h14.4c-0.7-0.8-1.2-1.8-1.6-2.9c-0.7-2-1.1-4-1.1-6
		c0-2.2,0.5-4.5,1.5-6.7c1-2.2,2.3-4,4-5.5c1.3-1.2,2.8-2.1,4.4-2.6c1.5-0.6,3.1-0.9,4.6-1.1c1.4-0.1,3.3-0.2,5.6-0.2h22v11.3h-20
		c-2.3,0-4.3,0.2-5.9,0.5c-1.5,0.3-2.7,0.9-3.7,2c-0.9,1-1.4,2.5-1.4,4.4c0,2.4,0.9,4.2,2.9,5.5c0.9,0.5,2,0.9,3.3,1.1
		c1.3,0.2,3,0.2,4.9,0.2h19.8V168.9z M14,166.9h49.7v-7.3H45.9c-2,0-3.7-0.1-5.1-0.2c-1.6-0.2-2.9-0.7-4.1-1.4
		c-2.6-1.7-3.8-4.1-3.8-7.2c0-2.5,0.7-4.5,2-5.8c1.2-1.3,2.8-2.2,4.7-2.5c1.7-0.4,3.9-0.6,6.3-0.6h18v-7.3h-20c-2.2,0-4,0.1-5.4,0.2
		c-1.3,0.1-2.7,0.5-4.1,1c-1.3,0.5-2.6,1.3-3.8,2.3c-1.5,1.3-2.6,2.9-3.5,4.8c-0.9,1.9-1.3,3.9-1.3,5.8c0,1.8,0.3,3.6,1,5.3
		c0.6,1.6,1.6,2.9,2.8,3.8l2.4,1.8H14V166.9z M47.8,127.2H24.9v-11.3h20c3.5,0,6-0.4,7.5-1.1c1.1-0.5,1.9-1.3,2.5-2.3
		c0.6-1,0.9-2.2,0.9-3.4c0-2.8-0.9-4.6-2.8-5.5c-2.1-1-4.8-1.5-8.2-1.5h-20V90.6h9c-0.2-0.3-0.6-0.6-1.2-0.9
		c-1.3-0.5-3.6-0.8-6.7-0.8h-1V72.9h2.2c-0.8-1-1.5-2.1-2.1-3.3c-0.9-2-1.3-4.2-1.3-6.4c0-2.2,0.5-4.4,1.4-6.5
		c0.9-2.1,2.2-3.9,3.8-5.3c0.4-0.5,0.9-0.8,1.3-1.1c1.9-1.4,4.1-2.3,6.3-2.7c2.1-0.3,4.9-0.5,8.2-0.5h21.1v11.3H46.4
		c-2.1,0-3.9,0.1-5.4,0.3c-1.4,0.2-2.6,0.6-3.5,1.2c-0.8,0.5-1.5,1.2-2,2.2c-0.5,1-0.8,2-0.8,3.1c0,1.1,0.3,2.2,0.8,3.3
		c0.5,1,1.2,1.8,2.1,2.4c1.1,0.6,2.4,1,3.8,1.2c1.5,0.2,3.4,0.2,5.6,0.2h18.6v11.3H33.9c0.7,0.3,1.4,0.8,2,1.2
		c2.1,1.6,3.3,3.6,3.6,6h26.2v10.5h-2.2c2.3,2.1,3.4,5.1,3.4,9c0,2.4-0.5,4.8-1.4,7.1c-1,2.3-2.4,4.2-4.3,5.9
		c-1,0.9-1.9,1.6-2.9,2.1c-1,0.5-2,0.9-3.2,1.2c-1.2,0.3-2.4,0.5-3.6,0.5C50.3,127.1,49.1,127.2,47.8,127.2z M26.9,125.2h20.9
		c1.2,0,2.4,0,3.6-0.1c1.1-0.1,2.2-0.2,3.2-0.5c1-0.3,1.9-0.6,2.8-1c0.8-0.4,1.7-1.1,2.5-1.8c1.7-1.5,3-3.3,3.8-5.2
		c0.8-2,1.3-4.1,1.3-6.3c0-4.4-1.6-7.3-4.9-9l-0.5-0.3v-1.7h4.1v-6.5H37.6v-1c0-2.2-0.9-4-2.8-5.4c-1.8-1.4-4.4-2.2-7.8-2.3V87
		c2.9,0.1,5,0.4,6.5,0.9c2.3,0.9,2.8,2.5,2.8,3.7v1h-9.3v7.3h18c3.6,0,6.7,0.6,9.1,1.7c2.6,1.3,3.9,3.7,3.9,7.3
		c0,1.6-0.4,3.1-1.2,4.4c-0.8,1.4-2,2.4-3.4,3.1c-1.7,0.9-4.5,1.3-8.4,1.3h-18V125.2z M26.9,81.4h36.8v-7.3H47.1
		c-2.3,0-4.2-0.1-5.8-0.2c-1.7-0.2-3.3-0.7-4.6-1.4c-1.2-0.7-2.2-1.8-2.9-3.2c-0.7-1.4-1-2.8-1-4.2c0-1.4,0.3-2.7,1-4
		c0.6-1.3,1.5-2.3,2.7-3c1.2-0.8,2.7-1.2,4.3-1.4c1.6-0.2,3.4-0.3,5.6-0.3h17.3V49H44.6c-3.2,0-5.9,0.2-7.9,0.5
		c-1.9,0.3-3.8,1.1-5.5,2.4c-0.2,0.2-0.5,0.4-1,0.8c-1.5,1.3-2.6,2.9-3.3,4.7c-0.8,1.8-1.2,3.7-1.2,5.7c0,1.9,0.4,3.8,1.2,5.6
		c0.7,1.7,1.8,3.1,3.2,4.1l0.4,0.3v1.7h-3.6V81.4z M17.2,114.8l-8-13.5l7.3-3.7l7.2,13.7L17.2,114.8z M12,102.1l5.9,10l3.1-1.6
		l-5.4-10.2L12,102.1z M44.8,43.1c-2.6,0-5.1-0.5-7.6-1.4c-2.4-0.9-4.7-2.3-6.6-4c-2.1-1.9-3.9-4.3-5.1-6.9
		c-1.2-2.7-1.8-5.6-1.8-8.5c0-2.8,0.6-5.4,1.8-7.7c0.7-1.4,1.6-2.6,2.7-3.6h-3.3V0.4h33.9c3.3,0,6.1,0.4,8.6,1.3
		c2.4,0.8,4.8,2.3,7.1,4.5c2.2,2.1,3.9,4.6,5.1,7.4c1.2,2.8,1.9,5.8,1.9,8.7c0,2.8-0.6,5.7-1.6,8.4c-1.1,2.7-2.7,5.1-4.7,7.2
		c-2,2.1-4.4,3.6-7.1,4.6L66.7,43V30.5l0.3-0.3c1-0.9,1.8-2.1,2.4-3.6c0.7-1.5,1-3,1-4.3c0-1.5-0.3-2.9-0.8-4.3
		c-0.5-1.4-1.2-2.7-2.2-3.7c-1.1-1.1-2.1-1.9-3.2-2.3c-0.5-0.2-1.1-0.4-1.8-0.5c3,3.2,4.6,6.8,4.6,11c0,1.7-0.3,3.5-0.8,5.3
		c-0.5,1.7-1.3,3.4-2.2,5.1c-1,1.6-2.1,3.1-3.3,4.3c-1.3,1.3-2.9,2.4-4.6,3.3c-1.8,0.9-3.6,1.6-5.4,2.1
		C48.7,42.9,46.7,43.1,44.8,43.1z M26.9,9h5.3v1.8L31.7,11c-2,1-3.4,2.5-4.4,4.4c-1,2-1.6,4.3-1.6,6.8c0,2.7,0.6,5.3,1.7,7.7
		c1.1,2.4,2.6,4.5,4.6,6.3c1.7,1.5,3.8,2.8,6,3.6c2.2,0.9,4.5,1.3,6.8,1.3c1.8,0,3.6-0.2,5.3-0.6c1.7-0.4,3.4-1,5-1.9
		c1.6-0.9,3-1.9,4.2-3c1.1-1.1,2.1-2.4,3-3.9c0.9-1.5,1.6-3.1,2.1-4.6c0.5-1.6,0.7-3.2,0.7-4.7c0-4.5-2.1-8.3-6.3-11.6l-0.8-0.6
		L59,8.8l0.6,0.1c2.2,0.3,4,0.8,5.3,1.2c1.3,0.5,2.7,1.4,3.9,2.8c1.1,1.2,2,2.7,2.6,4.3c0.6,1.6,0.9,3.3,0.9,5
		c0,1.6-0.4,3.4-1.1,5.1c-0.7,1.6-1.5,2.9-2.6,4V40c1.9-0.9,3.5-2.1,5-3.6c1.9-1.9,3.3-4.1,4.3-6.5c1-2.5,1.5-5,1.5-7.6
		c0-2.7-0.6-5.4-1.7-7.9c-1.1-2.6-2.7-4.9-4.7-6.8c-2-1.9-4.2-3.3-6.4-4c-2.2-0.8-4.9-1.1-7.9-1.1H26.9V9z M45.1,33.8
		c-1.7,0-3.2-0.3-4.7-0.8c-1.4-0.5-2.8-1.4-4-2.5c-2.5-2.4-3.7-5.3-3.7-8.6c0-1.8,0.3-3.4,1-5c0.6-1.5,1.5-2.9,2.6-4
		c1.1-1.1,2.5-2,4.1-2.6c2.9-1.2,6.5-1.4,9.6-0.1c1.5,0.6,2.8,1.4,4,2.4c1.2,1.1,2.1,2.4,2.8,3.8c0.7,1.5,1.1,3.1,1.1,4.7
		c0,2.4-0.6,4.6-1.7,6.5c-1.1,1.9-2.7,3.5-4.6,4.5C49.7,33.2,47.5,33.8,45.1,33.8z M45.5,11.2c-1.5,0-3,0.3-4.3,0.8
		c-1.3,0.5-2.5,1.3-3.4,2.2c-0.9,0.9-1.7,2.1-2.2,3.4c-0.5,1.3-0.8,2.7-0.8,4.2c0,2.8,1,5.1,3.1,7.2c1,0.9,2.1,1.7,3.3,2.1
		c1.2,0.5,2.5,0.7,4,0.7c2,0,3.9-0.5,5.5-1.4c1.6-0.9,2.9-2.2,3.8-3.8c0.9-1.6,1.4-3.5,1.4-5.5c0-1.4-0.3-2.7-0.9-3.9
		c-0.6-1.2-1.4-2.3-2.3-3.2c-1-0.9-2.1-1.6-3.3-2.1C48.1,11.4,46.8,11.2,45.5,11.2z"/>
</g>
</svg>
