<svg width="352" height="311" viewBox="0 0 352 311" fill="none" xmlns="http://www.w3.org/2000/svg">
<g clip-path="url(#clip0)">
<path d="M40.9996 236.033L131.049 184.5L109.519 237.633L79.0931 235.271C79.0931 235.271 77.0538 235.27 75.2069 235.106L40.9996 236.033Z" fill="url(#paint0_linear)"/>
<path d="M180.788 60.4751L34.8782 62.8219L139.018 164.271L180.788 60.4751Z" fill="url(#paint1_linear)"/>
<path d="M211.098 110.368L287.144 46.1634L255.295 181.494L211.098 110.368Z" fill="url(#paint2_linear)"/>
<path d="M287.124 46.2333L278.363 82.9877L330.443 80.6894L287.124 46.2333Z" fill="url(#paint3_linear)"/>
<path d="M131.068 184.432L-0.240397 290.086L109.519 237.633L131.068 184.432Z" fill="url(#paint4_linear)"/>
<path d="M181.095 60.9276L39.6996 1.12363L139.181 164.464L181.095 60.9276Z" fill="url(#paint5_linear)"/>
<path d="M255.363 181.513L109.519 237.633L181.095 60.9274L255.363 181.513Z" fill="url(#paint6_linear)"/>
</g>
<path d="M90.8105 310.322C91.4777 310.699 92.3051 310.217 92.3051 309.451L92.3051 291.513C92.3051 290.522 91.0142 290.137 90.4682 290.966L81.8602 304.04C81.5421 304.523 81.6992 305.173 82.2025 305.458L90.8105 310.322Z" stroke="url(#paint7_linear)" stroke-miterlimit="10" stroke-linecap="round" stroke-linejoin="round"/>
<path d="M111.538 134.413C112.288 133.978 112.167 132.861 111.342 132.596L59.9257 116.088C59.0359 115.802 58.2753 116.784 58.7747 117.574L80.2134 151.485C80.5007 151.94 81.0958 152.085 81.5607 151.816L111.538 134.413Z" stroke="url(#paint8_linear)" stroke-miterlimit="10" stroke-linecap="round" stroke-linejoin="round"/>
<path d="M98.2464 132.779C97.453 132.431 96.6225 133.188 96.8958 134.01L107.824 166.896C108.118 167.783 109.36 167.817 109.703 166.947L119.145 142.996C119.343 142.496 119.109 141.93 118.617 141.714L98.2464 132.779Z" stroke="url(#paint9_linear)" stroke-miterlimit="10" stroke-linecap="round" stroke-linejoin="round"/>
<path d="M326.088 164.745L332.489 118.343L349.471 143.863L326.088 164.745Z" stroke="url(#paint10_linear)"/>
<defs>
<linearGradient id="paint0_linear" x1="103.599" y1="211.764" x2="8.67365" y2="215.872" gradientUnits="userSpaceOnUse">
<stop stop-color="white"/>
<stop offset="1" stop-color="#9FC0BD"/>
</linearGradient>
<linearGradient id="paint1_linear" x1="147.867" y1="103.058" x2="46.8736" y2="-1.41504" gradientUnits="userSpaceOnUse">
<stop stop-color="white"/>
<stop offset="1" stop-color="#9FC0BD"/>
</linearGradient>
<linearGradient id="paint2_linear" x1="314.841" y1="40.3566" x2="127.044" y2="283.072" gradientUnits="userSpaceOnUse">
<stop stop-color="white"/>
<stop offset="1" stop-color="#9FC0BD"/>
</linearGradient>
<linearGradient id="paint3_linear" x1="331.091" y1="78.425" x2="281.913" y2="64.3637" gradientUnits="userSpaceOnUse">
<stop stop-color="white"/>
<stop offset="1" stop-color="#9FC0BD"/>
</linearGradient>
<linearGradient id="paint4_linear" x1="-0.760398" y1="289.309" x2="127.569" y2="206.32" gradientUnits="userSpaceOnUse">
<stop stop-color="white"/>
<stop offset="1" stop-color="#9FC0BD"/>
</linearGradient>
<linearGradient id="paint5_linear" x1="178.633" y1="56.2936" x2="36.651" y2="98.4377" gradientUnits="userSpaceOnUse">
<stop stop-color="white"/>
<stop offset="1" stop-color="#9FC0BD"/>
</linearGradient>
<linearGradient id="paint6_linear" x1="162.436" y1="276.898" x2="211.656" y2="93.3144" gradientUnits="userSpaceOnUse">
<stop stop-color="white"/>
<stop offset="1" stop-color="#9FC0BD"/>
</linearGradient>
<linearGradient id="paint7_linear" x1="84.1287" y1="295.562" x2="95.5614" y2="301.055" gradientUnits="userSpaceOnUse">
<stop stop-color="white"/>
<stop offset="1" stop-color="#9FC0BD"/>
</linearGradient>
<linearGradient id="paint8_linear" x1="37.8602" y1="143.436" x2="102.291" y2="119.442" gradientUnits="userSpaceOnUse">
<stop stop-color="white"/>
<stop offset="1" stop-color="#9FC0BD"/>
</linearGradient>
<linearGradient id="paint9_linear" x1="111.343" y1="136.856" x2="95.7121" y2="161.162" gradientUnits="userSpaceOnUse">
<stop stop-color="#D6B094"/>
<stop offset="0.3075" stop-color="#D6C3A4"/>
<stop offset="0.7217" stop-color="#D7D8B5"/>
<stop offset="1" stop-color="#D7DFBB"/>
</linearGradient>
<linearGradient id="paint10_linear" x1="319.574" y1="132.947" x2="341.767" y2="152.572" gradientUnits="userSpaceOnUse">
<stop stop-color="#D6B094"/>
<stop offset="0.3075" stop-color="#D6C3A4"/>
<stop offset="0.7217" stop-color="#D7D8B5"/>
<stop offset="1" stop-color="#D7DFBB"/>
</linearGradient>
<clipPath id="clip0">
<rect width="301.414" height="313.53" fill="white" transform="matrix(-0.961469 -0.274913 -0.274913 0.961469 336.297 60.2178)"/>
</clipPath>
</defs>
</svg>
