<svg width="344" height="299" viewBox="0 0 344 299" fill="none" xmlns="http://www.w3.org/2000/svg">
<g clip-path="url(#clip0)">
<path d="M304.052 234.074L215.298 181.296L235.84 234.529L266.157 232.683C266.157 232.683 268.186 232.717 270.027 232.584L304.052 234.074Z" fill="url(#paint0_linear)"/>
<path d="M167.863 57.0497L313.022 61.8102L207.704 161.034L167.863 57.0497Z" fill="url(#paint1_linear)"/>
<path d="M136.871 106.196L62.2631 41.0399L91.707 176.24L136.871 106.196Z" fill="url(#paint2_linear)"/>
<path d="M62.2817 41.1092L70.3892 77.8301L18.6008 74.6774L62.2817 41.1092Z" fill="url(#paint3_linear)"/>
<path d="M215.28 181.229L344.192 288.55L235.839 234.529L215.28 181.229Z" fill="url(#paint4_linear)"/>
<path d="M167.55 57.4944L309.249 0.331969L207.538 161.222L167.55 57.4944Z" fill="url(#paint5_linear)"/>
<path d="M91.6397 176.258L235.839 234.529L167.549 57.4945L91.6397 176.258Z" fill="url(#paint6_linear)"/>
<path d="M258.872 298.098C258.205 298.475 257.377 297.993 257.377 297.227L257.377 279.29C257.377 278.298 258.668 277.913 259.214 278.743L267.822 291.816C268.14 292.299 267.983 292.949 267.48 293.234L258.872 298.098Z" stroke="url(#paint7_linear)" stroke-miterlimit="10" stroke-linecap="round" stroke-linejoin="round"/>
</g>
<path d="M238.144 122.19C237.394 121.755 237.515 120.638 238.34 120.373L289.756 103.864C290.646 103.578 291.407 104.561 290.907 105.351L269.469 139.261C269.181 139.716 268.586 139.862 268.121 139.592L238.144 122.19Z" stroke="url(#paint8_linear)" stroke-miterlimit="10" stroke-linecap="round" stroke-linejoin="round"/>
<path d="M251.436 120.555C252.229 120.207 253.06 120.964 252.786 121.787L241.859 154.672C241.564 155.559 240.322 155.593 239.979 154.724L230.537 130.773C230.34 130.272 230.573 129.706 231.065 129.49L251.436 120.555Z" stroke="url(#paint9_linear)" stroke-miterlimit="10" stroke-linecap="round" stroke-linejoin="round"/>
<path d="M23.594 152.522L17.1936 106.12L0.211488 131.639L23.594 152.522Z" stroke="url(#paint10_linear)"/>
<defs>
<linearGradient id="paint0_linear" x1="173.973" y1="207.685" x2="312.216" y2="210.964" gradientUnits="userSpaceOnUse">
<stop stop-color="#7FDFEF"/>
<stop offset="0.1836" stop-color="#81D8EF"/>
<stop offset="0.4577" stop-color="#86C3EF"/>
<stop offset="0.7866" stop-color="#8FA2EF"/>
<stop offset="1" stop-color="#9589EF"/>
</linearGradient>
<linearGradient id="paint1_linear" x1="279.973" y1="157.215" x2="302.938" y2="53.7672" gradientUnits="userSpaceOnUse">
<stop stop-color="#7FDFEF"/>
<stop offset="0.1836" stop-color="#81D8EF"/>
<stop offset="0.4577" stop-color="#86C3EF"/>
<stop offset="0.7866" stop-color="#8FA2EF"/>
<stop offset="1" stop-color="#9589EF"/>
</linearGradient>
<linearGradient id="paint2_linear" x1="55.9346" y1="62.2148" x2="106.241" y2="179.156" gradientUnits="userSpaceOnUse">
<stop stop-color="#7FDFEF"/>
<stop offset="0.1836" stop-color="#81D8EF"/>
<stop offset="0.4577" stop-color="#86C3EF"/>
<stop offset="0.7866" stop-color="#8FA2EF"/>
<stop offset="1" stop-color="#9589EF"/>
</linearGradient>
<linearGradient id="paint3_linear" x1="5.97266" y1="80.2148" x2="80.409" y2="38.9594" gradientUnits="userSpaceOnUse">
<stop stop-color="#7FDFEF"/>
<stop offset="0.1836" stop-color="#81D8EF"/>
<stop offset="0.4577" stop-color="#86C3EF"/>
<stop offset="0.7866" stop-color="#8FA2EF"/>
<stop offset="1" stop-color="#9589EF"/>
</linearGradient>
<linearGradient id="paint4_linear" x1="327.973" y1="265.215" x2="185.562" y2="187.917" gradientUnits="userSpaceOnUse">
<stop stop-color="#7FDFEF"/>
<stop offset="0.1836" stop-color="#81D8EF"/>
<stop offset="0.4577" stop-color="#86C3EF"/>
<stop offset="0.7866" stop-color="#8FA2EF"/>
<stop offset="1" stop-color="#9589EF"/>
</linearGradient>
<linearGradient id="paint5_linear" x1="196.973" y1="118.215" x2="332.256" y2="-34.6578" gradientUnits="userSpaceOnUse">
<stop stop-color="#7FDFEF"/>
<stop offset="0.1836" stop-color="#81D8EF"/>
<stop offset="0.4577" stop-color="#86C3EF"/>
<stop offset="0.7866" stop-color="#8FA2EF"/>
<stop offset="1" stop-color="#9589EF"/>
</linearGradient>
<linearGradient id="paint6_linear" x1="217.973" y1="191.215" x2="115.86" y2="77.537" gradientUnits="userSpaceOnUse">
<stop stop-color="#7FDFEF"/>
<stop offset="0.1836" stop-color="#81D8EF"/>
<stop offset="0.4577" stop-color="#86C3EF"/>
<stop offset="0.7866" stop-color="#8FA2EF"/>
<stop offset="1" stop-color="#9589EF"/>
</linearGradient>
<linearGradient id="paint7_linear" x1="249.893" y1="273.718" x2="267.549" y2="287.9" gradientUnits="userSpaceOnUse">
<stop stop-color="#7FDFEF"/>
<stop offset="0.1836" stop-color="#81D8EF"/>
<stop offset="0.4577" stop-color="#86C3EF"/>
<stop offset="0.7866" stop-color="#8FA2EF"/>
<stop offset="1" stop-color="#9589EF"/>
</linearGradient>
<linearGradient id="paint8_linear" x1="268.21" y1="81.9346" x2="263.008" y2="131.906" gradientUnits="userSpaceOnUse">
<stop stop-color="#7FDFEF"/>
<stop offset="0.1836" stop-color="#81D8EF"/>
<stop offset="0.4577" stop-color="#86C3EF"/>
<stop offset="0.7866" stop-color="#8FA2EF"/>
<stop offset="1" stop-color="#9589EF"/>
</linearGradient>
<linearGradient id="paint9_linear" x1="209.973" y1="116.28" x2="245.571" y2="137.758" gradientUnits="userSpaceOnUse">
<stop stop-color="white"/>
<stop offset="1" stop-color="#9FC0BD"/>
</linearGradient>
<linearGradient id="paint10_linear" x1="-22.0271" y1="86.2148" x2="27.5564" y2="142.785" gradientUnits="userSpaceOnUse">
<stop stop-color="white"/>
<stop offset="1" stop-color="#9FC0BD"/>
</linearGradient>
<clipPath id="clip0">
<rect width="299.987" height="312.045" fill="white" transform="translate(13.1162 54.2087) rotate(-15)"/>
</clipPath>
</defs>
</svg>
