<svg width="348" height="300" viewBox="0 0 348 300" fill="none" xmlns="http://www.w3.org/2000/svg">
<g clip-path="url(#clip0)">
<path d="M42.0421 234.074L130.796 181.296L110.254 234.529L79.9372 232.683C79.9372 232.683 77.9078 232.717 76.0672 232.584L42.0421 234.074Z" fill="url(#paint0_linear)"/>
<path d="M178.231 57.0496L33.0716 61.81L138.39 161.034L178.231 57.0496Z" fill="url(#paint1_linear)"/>
<path d="M209.223 106.196L283.831 41.0399L254.387 176.24L209.223 106.196Z" fill="url(#paint2_linear)"/>
<path d="M283.812 41.1092L275.704 77.8301L327.493 74.6774L283.812 41.1092Z" fill="url(#paint3_linear)"/>
<path d="M130.814 181.229L1.90155 288.55L110.254 234.529L130.814 181.229Z" fill="url(#paint4_linear)"/>
<path d="M178.544 57.4945L36.8444 0.332091L138.555 161.223L178.544 57.4945Z" fill="url(#paint5_linear)"/>
<path d="M254.454 176.258L110.254 234.529L178.544 57.4944L254.454 176.258Z" fill="url(#paint6_linear)"/>
<path d="M87.222 298.098C87.8892 298.475 88.7166 297.993 88.7166 297.227L88.7166 279.29C88.7166 278.298 87.4257 277.913 86.8797 278.743L78.2717 291.816C77.9536 292.299 78.1107 292.949 78.614 293.234L87.222 298.098Z" stroke="url(#paint7_linear)" stroke-miterlimit="10" stroke-linecap="round" stroke-linejoin="round"/>
</g>
<path d="M107.95 122.19C108.699 121.755 108.579 120.638 107.754 120.373L56.3374 103.864C55.4477 103.578 54.6871 104.561 55.1865 105.351L76.6251 139.261C76.9124 139.716 77.5075 139.862 77.9724 139.592L107.95 122.19Z" stroke="url(#paint8_linear)" stroke-miterlimit="10" stroke-linecap="round" stroke-linejoin="round"/>
<path d="M94.6581 120.556C93.8646 120.208 93.0342 120.965 93.3074 121.787L104.235 154.672C104.53 155.559 105.772 155.593 106.115 154.724L115.557 130.773C115.754 130.273 115.521 129.706 115.029 129.49L94.6581 120.556Z" stroke="url(#paint9_linear)" stroke-miterlimit="10" stroke-linecap="round" stroke-linejoin="round"/>
<path d="M322.5 152.522L328.9 106.12L345.882 131.639L322.5 152.522Z" stroke="url(#paint10_linear)"/>
<defs>
<linearGradient id="paint0_linear" x1="31.7713" y1="240.214" x2="117.245" y2="230.428" gradientUnits="userSpaceOnUse">
<stop stop-color="#E1ABAA"/>
<stop offset="0.056045" stop-color="#E3B0AF"/>
<stop offset="0.4509" stop-color="#F2D1CC"/>
<stop offset="0.7796" stop-color="#FCE6DE"/>
<stop offset="1" stop-color="#FFEDE5"/>
</linearGradient>
<linearGradient id="paint1_linear" x1="-5.2282" y1="46.2138" x2="-8.53313" y2="178.927" gradientUnits="userSpaceOnUse">
<stop stop-color="#E1ABAA"/>
<stop offset="0.056045" stop-color="#E3B0AF"/>
<stop offset="0.4509" stop-color="#F2D1CC"/>
<stop offset="0.7796" stop-color="#FCE6DE"/>
<stop offset="1" stop-color="#FFEDE5"/>
</linearGradient>
<linearGradient id="paint2_linear" x1="159.771" y1="139.214" x2="318.667" y2="41.4101" gradientUnits="userSpaceOnUse">
<stop stop-color="#E1ABAA"/>
<stop offset="0.056045" stop-color="#E3B0AF"/>
<stop offset="0.4509" stop-color="#F2D1CC"/>
<stop offset="0.7796" stop-color="#FCE6DE"/>
<stop offset="1" stop-color="#FFEDE5"/>
</linearGradient>
<linearGradient id="paint3_linear" x1="259.771" y1="51.2139" x2="298.755" y2="127.335" gradientUnits="userSpaceOnUse">
<stop stop-color="#E1ABAA"/>
<stop offset="0.056045" stop-color="#E3B0AF"/>
<stop offset="0.4509" stop-color="#F2D1CC"/>
<stop offset="0.7796" stop-color="#FCE6DE"/>
<stop offset="1" stop-color="#FFEDE5"/>
</linearGradient>
<linearGradient id="paint4_linear" x1="135.772" y1="234.889" x2="25.2327" y2="203.096" gradientUnits="userSpaceOnUse">
<stop stop-color="#E1ABAA"/>
<stop offset="0.056045" stop-color="#E3B0AF"/>
<stop offset="0.4509" stop-color="#F2D1CC"/>
<stop offset="0.7796" stop-color="#FCE6DE"/>
<stop offset="1" stop-color="#FFEDE5"/>
</linearGradient>
<linearGradient id="paint5_linear" x1="47.7713" y1="-4.78607" x2="29.8379" y2="156.676" gradientUnits="userSpaceOnUse">
<stop stop-color="#E1ABAA"/>
<stop offset="0.056045" stop-color="#E3B0AF"/>
<stop offset="0.4509" stop-color="#F2D1CC"/>
<stop offset="0.7796" stop-color="#FCE6DE"/>
<stop offset="1" stop-color="#FFEDE5"/>
</linearGradient>
<linearGradient id="paint6_linear" x1="250.771" y1="81.2138" x2="89.6894" y2="127.479" gradientUnits="userSpaceOnUse">
<stop stop-color="#E1ABAA"/>
<stop offset="0.056045" stop-color="#E3B0AF"/>
<stop offset="0.4509" stop-color="#F2D1CC"/>
<stop offset="0.7796" stop-color="#FCE6DE"/>
<stop offset="1" stop-color="#FFEDE5"/>
</linearGradient>
<linearGradient id="paint7_linear" x1="81.3979" y1="291.722" x2="96.7282" y2="296.204" gradientUnits="userSpaceOnUse">
<stop stop-color="#E1ABAA"/>
<stop offset="0.056045" stop-color="#E3B0AF"/>
<stop offset="0.4509" stop-color="#F2D1CC"/>
<stop offset="0.7796" stop-color="#FCE6DE"/>
<stop offset="1" stop-color="#FFEDE5"/>
</linearGradient>
<linearGradient id="paint8_linear" x1="76.551" y1="132.962" x2="121.102" y2="98.4489" gradientUnits="userSpaceOnUse">
<stop stop-color="#E1ABAA"/>
<stop offset="0.056045" stop-color="#E3B0AF"/>
<stop offset="0.4509" stop-color="#F2D1CC"/>
<stop offset="0.7796" stop-color="#FCE6DE"/>
<stop offset="1" stop-color="#FFEDE5"/>
</linearGradient>
<linearGradient id="paint9_linear" x1="112.285" y1="133.019" x2="75.8852" y2="122.545" gradientUnits="userSpaceOnUse">
<stop stop-color="#C4C4D4"/>
<stop offset="0.0145184" stop-color="#C3C3D3"/>
<stop offset="0.4268" stop-color="#A2A2BB"/>
<stop offset="0.77" stop-color="#8D8EAC"/>
<stop offset="1" stop-color="#8687A7"/>
</linearGradient>
<linearGradient id="paint10_linear" x1="326.506" y1="115.952" x2="309.555" y2="159.632" gradientUnits="userSpaceOnUse">
<stop stop-color="#C4C4D4"/>
<stop offset="0.0145184" stop-color="#C3C3D3"/>
<stop offset="0.4268" stop-color="#A2A2BB"/>
<stop offset="0.77" stop-color="#8D8EAC"/>
<stop offset="1" stop-color="#8687A7"/>
</linearGradient>
<clipPath id="clip0">
<rect width="299.987" height="312.045" fill="white" transform="matrix(-0.965926 -0.258819 -0.258819 0.965926 332.978 54.2087)"/>
</clipPath>
</defs>
</svg>
