<svg width="167" height="160" viewBox="0 0 167 160" fill="none" xmlns="http://www.w3.org/2000/svg">
<g clip-path="url(#clip0)">
<path d="M131.285 108.475L91.4912 86.2422L100.701 108.666L114.294 107.889C114.294 107.889 115.204 107.903 116.029 107.847L131.285 108.475Z" fill="url(#paint0_linear)"/>
<path d="M70.2236 33.9043L135.307 35.9096L88.0867 77.7072L70.2236 33.9043Z" fill="url(#paint1_linear)"/>
<path d="M56.3273 54.6053L22.876 27.1587L36.0776 84.1114L56.3273 54.6053Z" fill="url(#paint2_linear)"/>
<path d="M22.8852 27.1929L26.5203 42.6614L3.30035 41.3334L22.8852 27.1929Z" fill="url(#paint3_linear)"/>
<path d="M91.4834 86.2129L149.283 131.422L100.701 108.665L91.4834 86.2129Z" fill="url(#paint4_linear)"/>
<path d="M70.0821 34.0907L133.615 10.0112L88.0115 77.7857L70.0821 34.0907Z" fill="url(#paint5_linear)"/>
<path d="M36.048 84.1208L100.702 108.667L70.083 34.092L36.048 84.1208Z" fill="url(#paint6_linear)"/>
</g>
<defs>
<linearGradient id="paint0_linear" x1="103.535" y1="97.8634" x2="145.838" y2="100.566" gradientUnits="userSpaceOnUse">
<stop stop-color="white"/>
<stop offset="1" stop-color="#9FC0BD"/>
</linearGradient>
<linearGradient id="paint1_linear" x1="84.5948" y1="51.9853" x2="127.577" y2="6.21488" gradientUnits="userSpaceOnUse">
<stop stop-color="white"/>
<stop offset="1" stop-color="#9FC0BD"/>
</linearGradient>
<linearGradient id="paint2_linear" x1="10.5613" y1="24.5306" x2="86.1024" y2="132.112" gradientUnits="userSpaceOnUse">
<stop stop-color="white"/>
<stop offset="1" stop-color="#9FC0BD"/>
</linearGradient>
<linearGradient id="paint3_linear" x1="3.02834" y1="40.3796" x2="24.8805" y2="34.1475" gradientUnits="userSpaceOnUse">
<stop stop-color="white"/>
<stop offset="1" stop-color="#9FC0BD"/>
</linearGradient>
<linearGradient id="paint4_linear" x1="149.521" y1="131.1" x2="95.1237" y2="92.2712" gradientUnits="userSpaceOnUse">
<stop stop-color="white"/>
<stop offset="1" stop-color="#9FC0BD"/>
</linearGradient>
<linearGradient id="paint5_linear" x1="71.215" y1="32.1654" x2="133.502" y2="53.0549" gradientUnits="userSpaceOnUse">
<stop stop-color="white"/>
<stop offset="1" stop-color="#9FC0BD"/>
</linearGradient>
<linearGradient id="paint6_linear" x1="76.7988" y1="124.756" x2="58.4951" y2="46.9162" gradientUnits="userSpaceOnUse">
<stop stop-color="white"/>
<stop offset="1" stop-color="#9FC0BD"/>
</linearGradient>
<clipPath id="clip0">
<rect width="133.973" height="132.031" fill="white" transform="matrix(0.969743 -0.244127 0.274261 0.961655 0.84082 32.707)"/>
</clipPath>
</defs>
</svg>
