<svg width="351" height="396" viewBox="0 0 351 396" fill="none" xmlns="http://www.w3.org/2000/svg">
<g clip-path="url(#clip0)">
<path fill-rule="evenodd" clip-rule="evenodd" d="M179.878 6.57332C177.009 5.8089 173.991 5.80889 171.122 6.57332L18.6223 47.2143C11.1792 49.1978 6 55.9381 6 63.641V331.166C6 338.849 11.1532 345.577 18.5709 347.579L171.864 388.945C174.778 389.732 177.849 389.728 180.761 388.935L332.468 347.606C339.867 345.59 345 338.872 345 331.204V63.6409C345 55.9381 339.821 49.1978 332.378 47.2143L179.878 6.57332ZM169.577 0.775663C173.458 -0.258555 177.542 -0.258554 181.423 0.775663L333.923 41.4166C343.993 44.1003 351 53.2194 351 63.6409V331.204C351 341.578 344.055 350.668 334.045 353.395L182.338 394.724C178.398 395.797 174.243 395.802 170.3 394.738L17.0077 353.371C6.97197 350.663 0 341.56 0 331.166V63.641C0 53.2194 7.00721 44.1003 17.0773 41.4166L169.577 0.775663Z" fill="url(#paint0_linear)"/>
<path d="M348.001 331.737V63.197C348.001 54.1407 341.915 46.2146 333.166 43.8756L180.666 3.10488C177.282 2.2001 173.719 2.2001 170.335 3.10488L17.8352 43.8755C9.08617 46.2146 3.00073 54.1407 3.00073 63.197V331.699C3.00073 340.732 9.05545 348.644 17.7745 351.004L171.067 392.503C174.505 393.434 178.13 393.429 181.566 392.49L333.273 351.03C341.969 348.653 348.001 340.752 348.001 331.737Z" fill="#FCE6DE"/>
<path d="M157.201 240.269V213.674H163.933L171.07 234.011L178.295 213.674H184.992V240.269H180.07V220.318L173.197 240.269H169.013L162.14 220.318V240.269H157.201ZM196.031 240.269V230.443L187.277 213.674H192.709L198.51 225.908L204.31 213.674H209.707L200.953 230.443V240.269H196.031ZM195.416 211.758L194.08 209.385C194.76 208.74 195.65 208.418 196.752 208.418C197.197 208.418 197.754 208.547 198.422 208.804C199.101 209.051 199.541 209.174 199.74 209.174C200.396 209.174 201.006 208.933 201.568 208.453L202.904 210.72C202.06 211.482 201.211 211.863 200.355 211.863C200.004 211.863 199.646 211.804 199.283 211.687C198.92 211.57 198.556 211.459 198.193 211.353C197.842 211.236 197.502 211.177 197.174 211.177C196.564 211.177 195.978 211.371 195.416 211.758ZM222.029 240.269V213.674H227.584L238.658 233.097V213.674H243.597V240.269H238.131L226.969 220.898V240.269H222.029ZM248.678 240.269V213.674H253.617V224.326H263.127V213.674H268.049V240.269H263.127V229.107H253.617V240.269H248.678ZM270.984 240.269L282.076 213.674H285.926L297.123 240.269H291.691L288.808 233.396H279.387L276.433 240.269H270.984ZM281.179 228.597H286.875L284.027 220.547L281.179 228.597ZM278.771 211.863L282.726 208.154H285.539L289.459 211.863H285.574L284.133 210.14L282.656 211.863H278.771ZM299.83 240.269V213.674H305.385L316.459 233.097V213.674H321.398V240.269H315.931L304.769 220.898V240.269H299.83ZM171.931 285.027H177.644C177 286.586 176.033 287.969 174.744 289.176C173.455 290.383 171.99 291.308 170.349 291.953C168.709 292.597 167.027 292.92 165.304 292.92C163.453 292.92 161.683 292.556 159.996 291.83C158.308 291.092 156.832 290.078 155.566 288.789C154.301 287.5 153.304 286.006 152.578 284.306C151.863 282.607 151.506 280.82 151.506 278.945C151.506 276.496 152.127 274.211 153.369 272.09C154.611 269.957 156.281 268.269 158.379 267.027C160.476 265.785 162.738 265.164 165.164 265.164C166.957 265.164 168.685 265.492 170.349 266.148C172.025 266.804 173.513 267.748 174.814 268.978C176.115 270.197 177.105 271.627 177.785 273.267H172.178C171.345 272.248 170.303 271.439 169.049 270.842C167.806 270.244 166.523 269.945 165.199 269.945C163.594 269.945 162.123 270.367 160.787 271.211C159.451 272.043 158.39 273.162 157.605 274.568C156.832 275.963 156.445 277.48 156.445 279.121C156.445 280.679 156.844 282.156 157.64 283.551C158.449 284.933 159.533 286.041 160.892 286.873C162.252 287.705 163.699 288.121 165.234 288.121C167.754 288.121 169.986 287.09 171.931 285.027ZM180.967 265.674H185.906V282.267C185.906 283.088 185.929 283.756 185.976 284.271C186.035 284.775 186.181 285.302 186.416 285.853C186.767 286.545 187.254 287.095 187.875 287.506C188.496 287.916 189.181 288.121 189.931 288.121C190.599 288.121 191.244 287.945 191.865 287.594C192.486 287.242 192.961 286.797 193.289 286.258C193.617 285.719 193.816 285.15 193.887 284.552C193.969 283.955 194.01 283.193 194.01 282.267V265.674H198.931V282.267C198.931 283.826 198.808 285.174 198.562 286.31C198.316 287.435 197.795 288.484 196.998 289.457C196.4 290.172 195.726 290.787 194.976 291.302C194.226 291.806 193.418 292.199 192.551 292.48C191.683 292.773 190.81 292.92 189.931 292.92C188.724 292.92 187.5 292.621 186.258 292.023C185.015 291.414 183.972 290.635 183.129 289.685C182.543 289.017 182.086 288.285 181.758 287.488C181.429 286.679 181.213 285.883 181.107 285.097C181.013 284.312 180.967 283.369 180.967 282.267V265.674ZM189.439 259.433L186.732 258.607C186.838 257.611 187.224 256.855 187.892 256.34C188.572 255.812 189.457 255.549 190.547 255.549C191.308 255.549 191.982 255.713 192.568 256.041C193.154 256.369 193.605 256.808 193.922 257.359C194.238 257.898 194.396 258.508 194.396 259.187C194.396 259.75 194.226 260.224 193.887 260.611C193.558 260.998 193.043 261.449 192.34 261.965C191.965 262.187 191.695 262.381 191.531 262.545C191.379 262.709 191.303 262.943 191.303 263.248H188.754V263.002C188.754 262.416 188.935 261.871 189.299 261.367C189.662 260.863 190.113 260.459 190.652 260.154C190.957 259.931 191.138 259.791 191.197 259.732C191.267 259.674 191.303 259.562 191.303 259.398C191.303 258.777 190.98 258.467 190.336 258.467C189.738 258.467 189.439 258.789 189.439 259.433ZM201.832 292.269L212.924 265.674H216.773L227.97 292.269H222.539L219.656 285.396H210.234L207.281 292.269H201.832ZM212.027 280.597H217.722L214.875 272.547L212.027 280.597ZM240.767 292.269V265.674H246.322L257.396 285.097V265.674H262.336V292.269H256.869L245.707 272.898V292.269H240.767ZM265.219 292.269L276.31 265.674H280.16L291.357 292.269H285.926L283.043 285.396H273.621L270.668 292.269H265.219ZM275.414 280.597H281.109L278.262 272.547L275.414 280.597ZM273.902 260.629H276.556C276.709 260.957 276.949 261.215 277.277 261.402C277.605 261.578 277.957 261.666 278.332 261.666C278.719 261.666 279.07 261.578 279.387 261.402C279.715 261.215 279.949 260.957 280.09 260.629H282.762C282.621 261.801 282.152 262.703 281.355 263.336C280.558 263.957 279.551 264.267 278.332 264.267C277.125 264.267 276.117 263.957 275.308 263.336C274.512 262.715 274.043 261.812 273.902 260.629ZM294.064 292.269V265.674H300.797L307.933 286.011L315.158 265.674H321.855V292.269H316.933V272.318L310.06 292.269H305.877L299.004 272.318V292.269H294.064Z" fill="#022742"/>
<path d="M167.746 184.264V172.44H168.93V177.64H175.058V172.44H176.242V184.264H175.058V178.712H168.93V184.264H167.746ZM178.427 184.264L183.531 172.44H184.843L189.915 184.264H188.635L186.923 180.296H181.419L179.707 184.264H178.427ZM181.883 179.224H186.459L184.187 173.8L181.883 179.224ZM183.643 186.632V185.352H184.699V186.632H183.643ZM192.111 184.264V172.44H193.711L200.335 182.248V172.44H201.519V184.264H200.335L193.295 173.864V184.264H192.111ZM208.803 178.808H216.835C216.728 180.408 216.062 181.752 214.835 182.84C213.608 183.928 212.19 184.472 210.579 184.472C208.862 184.472 207.374 183.874 206.115 182.68C204.867 181.474 204.243 180.013 204.243 178.296C204.243 176.664 204.851 175.25 206.067 174.056C207.294 172.85 208.798 172.248 210.579 172.248C211.88 172.248 213.038 172.584 214.051 173.256C215.15 173.981 215.838 174.76 216.115 175.592H214.771C214.366 174.909 213.774 174.37 212.995 173.976C212.227 173.581 211.422 173.384 210.579 173.384C209.192 173.384 208.019 173.826 207.059 174.712C205.971 175.714 205.427 176.914 205.427 178.312C205.427 179.73 205.944 180.925 206.979 181.896C207.982 182.856 209.198 183.336 210.627 183.336C211.704 183.336 212.696 183.016 213.603 182.376C214.52 181.725 215.123 180.893 215.411 179.88H208.803V178.808ZM224.746 184.264V172.44H226.57L230.89 182.504L235.194 172.44H237.018V184.264H235.834V173.752L231.386 184.264H230.378L225.93 173.752V184.264H224.746ZM240.249 172.44H241.433V179.624C241.433 180.701 241.614 181.528 241.977 182.104C242.499 182.925 243.267 183.336 244.281 183.336C245.209 183.336 245.934 182.978 246.457 182.264C246.894 181.666 247.113 180.786 247.113 179.624V172.44H248.297V179.624C248.297 181.085 248.003 182.2 247.417 182.968C246.649 183.97 245.603 184.472 244.281 184.472C242.99 184.472 241.961 184.002 241.193 183.064C240.563 182.296 240.249 181.149 240.249 179.624V172.44ZM243.737 186.76V185.48H244.793V186.76H243.737ZM262.589 175.48H261.277C260.85 174.829 260.258 174.317 259.501 173.944C258.744 173.57 257.96 173.384 257.149 173.384C255.816 173.384 254.658 173.88 253.677 174.872C252.696 175.864 252.205 177.01 252.205 178.312C252.205 179.688 252.701 180.872 253.693 181.864C254.696 182.845 255.874 183.336 257.229 183.336C258.018 183.336 258.781 183.138 259.517 182.744C260.253 182.349 260.856 181.826 261.325 181.176H262.637C262.125 182.157 261.373 182.952 260.381 183.56C259.389 184.168 258.338 184.472 257.229 184.472C255.49 184.472 254.018 183.88 252.813 182.696C251.618 181.512 251.021 180.05 251.021 178.312C251.021 176.637 251.618 175.208 252.813 174.024C254.008 172.84 255.448 172.248 257.133 172.248C258.392 172.248 259.528 172.578 260.541 173.24C261.618 173.944 262.301 174.69 262.589 175.48ZM272.506 183.192H274.026C274.997 183.192 275.738 183.138 276.25 183.032C277.018 182.882 277.701 182.573 278.298 182.104C279.514 181.144 280.122 179.885 280.122 178.328C280.122 176.792 279.509 175.544 278.282 174.584C277.696 174.125 277.018 173.821 276.25 173.672C275.738 173.565 274.997 173.512 274.026 173.512H272.506V177.432H274.586V178.504H272.506V183.192ZM274.586 184.264H271.322V178.504H269.786V177.432H271.322V172.44H274.506C276.469 172.44 278.016 172.898 279.146 173.816C279.818 174.36 280.346 175.037 280.73 175.848C281.114 176.648 281.306 177.474 281.306 178.328C281.306 180.077 280.661 181.544 279.37 182.728C278.72 183.325 277.973 183.741 277.13 183.976C276.458 184.168 275.61 184.264 274.586 184.264ZM284.027 184.264V172.44H290.491V173.512H285.211V177.768H290.315V178.84H285.211V183.192H290.491V184.264H284.027ZM284.507 171.88L286.603 170.072H287.515L289.595 171.88H288.299L287.051 170.84L285.803 171.88H284.507ZM286.603 167.448L289.451 169L288.987 169.832L286.155 168.312L286.603 167.448ZM309.698 175.48H308.386C307.96 174.829 307.368 174.317 306.61 173.944C305.853 173.57 305.069 173.384 304.258 173.384C302.925 173.384 301.768 173.88 300.786 174.872C299.805 175.864 299.314 177.01 299.314 178.312C299.314 179.688 299.81 180.872 300.802 181.864C301.805 182.845 302.984 183.336 304.338 183.336C305.128 183.336 305.89 183.138 306.626 182.744C307.362 182.349 307.965 181.826 308.434 181.176H309.746C309.234 182.157 308.482 182.952 307.49 183.56C306.498 184.168 305.448 184.472 304.338 184.472C302.6 184.472 301.128 183.88 299.922 182.696C298.728 181.512 298.13 180.05 298.13 178.312C298.13 176.637 298.728 175.208 299.922 174.024C301.117 172.84 302.557 172.248 304.242 172.248C305.501 172.248 306.637 172.578 307.65 173.24C308.728 173.944 309.41 174.69 309.698 175.48ZM312.458 172.44H313.642V179.624C313.642 180.701 313.823 181.528 314.186 182.104C314.709 182.925 315.477 183.336 316.49 183.336C317.418 183.336 318.143 182.978 318.666 182.264C319.103 181.666 319.322 180.786 319.322 179.624V172.44H320.506V174.456C320.997 174.082 321.263 173.41 321.306 172.44H322.282C322.197 174.274 321.605 175.192 320.506 175.192V179.624C320.506 181.085 320.213 182.2 319.626 182.968C318.858 183.97 317.813 184.472 316.49 184.472C315.199 184.472 314.17 184.002 313.402 183.064C312.773 182.296 312.458 181.149 312.458 179.624V172.44ZM315.69 169.928L314.97 169.496C315.087 169.069 315.306 168.744 315.626 168.52C316.01 168.306 316.394 168.221 316.778 168.264C317.269 168.317 317.642 168.482 317.898 168.76C318.165 169.026 318.298 169.357 318.298 169.752C318.266 170.082 318.042 170.413 317.626 170.744C317.178 171.106 316.933 171.352 316.89 171.48H316.138C316.138 171.17 316.373 170.85 316.842 170.52C317.205 170.264 317.386 170.024 317.386 169.8C317.407 169.597 317.327 169.416 317.146 169.256C316.965 169.096 316.762 169.021 316.538 169.032C316.335 169.042 316.143 169.138 315.962 169.32C315.781 169.49 315.69 169.693 315.69 169.928Z" fill="#343A40"/>
<path d="M40.3219 194.461L98.8491 159.657L85.3034 194.761L65.3112 193.544C65.3112 193.544 63.973 193.566 62.7592 193.479L40.3219 194.461Z" fill="url(#paint1_linear)"/>
<path d="M130.13 77.7251L34.4073 80.8643L103.858 146.296L130.13 77.7251Z" fill="url(#paint2_linear)"/>
<path d="M150.567 110.134L199.766 67.1677L180.349 156.324L150.567 110.134Z" fill="url(#paint3_linear)"/>
<path d="M199.754 67.2127L194.408 91.4278L228.559 89.3488L199.754 67.2127Z" fill="url(#paint4_linear)"/>
<path d="M98.8608 159.613L13.8515 230.385L85.3032 194.761L98.8608 159.613Z" fill="url(#paint5_linear)"/>
<path d="M130.337 78.0184L36.8953 40.3234L103.967 146.42L130.337 78.0184Z" fill="url(#paint6_linear)"/>
<path d="M180.395 156.336L85.3043 194.761L130.337 78.0184L180.395 156.336Z" fill="url(#paint7_linear)"/>
<path fill-rule="evenodd" clip-rule="evenodd" d="M69.3601 236.828C70.3608 237.394 71.6018 236.671 71.6018 235.522L71.6018 225.414C71.6018 223.926 69.6656 223.35 68.8466 224.593L63.9959 231.96C63.5187 232.685 63.7543 233.661 64.5093 234.087L69.3601 236.828ZM70.6011 235.523C70.6011 235.906 70.1874 236.147 69.8538 235.959L65.0031 233.218C64.7514 233.075 64.6729 232.75 64.8319 232.509L69.6826 225.142C69.9556 224.727 70.6011 224.919 70.6011 225.415L70.6011 235.523Z" fill="url(#paint8_linear)"/>
<path fill-rule="evenodd" clip-rule="evenodd" d="M89.5327 118.495C90.6595 117.847 90.4858 116.171 89.2502 115.768L39.4671 99.5414C38.1344 99.107 36.987 100.575 37.7309 101.764L58.3729 134.735C58.8008 135.419 59.6925 135.642 60.3917 135.24L89.5327 118.495ZM88.9403 116.719C89.3521 116.853 89.41 117.412 89.0344 117.628L59.8935 134.373C59.6604 134.507 59.3632 134.433 59.2205 134.205L38.5784 101.233C38.3305 100.837 38.713 100.347 39.1572 100.492L88.9403 116.719Z" fill="url(#paint9_linear)"/>
<path fill-rule="evenodd" clip-rule="evenodd" d="M76.6803 115.951C75.4924 115.424 74.2419 116.554 74.6464 117.789L85.0884 149.674C85.5247 151.006 87.3872 151.065 87.907 149.763L97.1494 126.614C97.4484 125.865 97.1019 125.014 96.3648 124.687L76.6803 115.951ZM75.5967 117.478C75.4619 117.066 75.8787 116.69 76.2747 116.865L95.9592 125.601C96.2049 125.71 96.3204 125.994 96.2207 126.243L86.9783 149.393C86.805 149.826 86.1842 149.807 86.0387 149.363L75.5967 117.478Z" fill="url(#paint10_linear)"/>
</g>
<defs>
<linearGradient id="paint0_linear" x1="-21.2207" y1="16.5181" x2="608.743" y2="131.546" gradientUnits="userSpaceOnUse">
<stop stop-color="#E1ABAA"/>
<stop offset="0.056045" stop-color="#E3B0AF"/>
<stop offset="0.4509" stop-color="#F2D1CC"/>
<stop offset="0.7796" stop-color="#FCE6DE"/>
<stop offset="1" stop-color="#FFEDE5"/>
</linearGradient>
<linearGradient id="paint1_linear" x1="33.5489" y1="198.51" x2="89.9131" y2="192.057" gradientUnits="userSpaceOnUse">
<stop stop-color="#E1ABAA"/>
<stop offset="0.056045" stop-color="#E3B0AF"/>
<stop offset="0.4509" stop-color="#F2D1CC"/>
<stop offset="0.7796" stop-color="#FCE6DE"/>
<stop offset="1" stop-color="#FFEDE5"/>
</linearGradient>
<linearGradient id="paint2_linear" x1="9.15101" y1="70.5796" x2="6.97163" y2="158.095" gradientUnits="userSpaceOnUse">
<stop stop-color="#E1ABAA"/>
<stop offset="0.056045" stop-color="#E3B0AF"/>
<stop offset="0.4509" stop-color="#F2D1CC"/>
<stop offset="0.7796" stop-color="#FCE6DE"/>
<stop offset="1" stop-color="#FFEDE5"/>
</linearGradient>
<linearGradient id="paint3_linear" x1="117.957" y1="131.907" x2="222.738" y2="67.4118" gradientUnits="userSpaceOnUse">
<stop stop-color="#E1ABAA"/>
<stop offset="0.056045" stop-color="#E3B0AF"/>
<stop offset="0.4509" stop-color="#F2D1CC"/>
<stop offset="0.7796" stop-color="#FCE6DE"/>
<stop offset="1" stop-color="#FFEDE5"/>
</linearGradient>
<linearGradient id="paint4_linear" x1="183.901" y1="73.8761" x2="209.608" y2="124.073" gradientUnits="userSpaceOnUse">
<stop stop-color="#E1ABAA"/>
<stop offset="0.056045" stop-color="#E3B0AF"/>
<stop offset="0.4509" stop-color="#F2D1CC"/>
<stop offset="0.7796" stop-color="#FCE6DE"/>
<stop offset="1" stop-color="#FFEDE5"/>
</linearGradient>
<linearGradient id="paint5_linear" x1="102.13" y1="194.999" x2="29.2369" y2="174.033" gradientUnits="userSpaceOnUse">
<stop stop-color="#E1ABAA"/>
<stop offset="0.056045" stop-color="#E3B0AF"/>
<stop offset="0.4509" stop-color="#F2D1CC"/>
<stop offset="0.7796" stop-color="#FCE6DE"/>
<stop offset="1" stop-color="#FFEDE5"/>
</linearGradient>
<linearGradient id="paint6_linear" x1="44.1009" y1="36.9483" x2="32.275" y2="143.422" gradientUnits="userSpaceOnUse">
<stop stop-color="#E1ABAA"/>
<stop offset="0.056045" stop-color="#E3B0AF"/>
<stop offset="0.4509" stop-color="#F2D1CC"/>
<stop offset="0.7796" stop-color="#FCE6DE"/>
<stop offset="1" stop-color="#FFEDE5"/>
</linearGradient>
<linearGradient id="paint7_linear" x1="177.966" y1="93.6598" x2="71.7429" y2="124.169" gradientUnits="userSpaceOnUse">
<stop stop-color="#E1ABAA"/>
<stop offset="0.056045" stop-color="#E3B0AF"/>
<stop offset="0.4509" stop-color="#F2D1CC"/>
<stop offset="0.7796" stop-color="#FCE6DE"/>
<stop offset="1" stop-color="#FFEDE5"/>
</linearGradient>
<linearGradient id="paint8_linear" x1="65.7046" y1="232.912" x2="76.1097" y2="235.661" gradientUnits="userSpaceOnUse">
<stop stop-color="#E1ABAA"/>
<stop offset="0.056045" stop-color="#E3B0AF"/>
<stop offset="0.4509" stop-color="#F2D1CC"/>
<stop offset="0.7796" stop-color="#FCE6DE"/>
<stop offset="1" stop-color="#FFEDE5"/>
</linearGradient>
<linearGradient id="paint9_linear" x1="58.7531" y1="128.869" x2="101.403" y2="96.2158" gradientUnits="userSpaceOnUse">
<stop stop-color="#E1ABAA"/>
<stop offset="0.056045" stop-color="#E3B0AF"/>
<stop offset="0.4509" stop-color="#F2D1CC"/>
<stop offset="0.7796" stop-color="#FCE6DE"/>
<stop offset="1" stop-color="#FFEDE5"/>
</linearGradient>
<linearGradient id="paint10_linear" x1="93.9158" y1="128.289" x2="59.6232" y2="118.187" gradientUnits="userSpaceOnUse">
<stop stop-color="#C4C4D4"/>
<stop offset="0.0145184" stop-color="#C3C3D3"/>
<stop offset="0.4268" stop-color="#A2A2BB"/>
<stop offset="0.77" stop-color="#8D8EAC"/>
<stop offset="1" stop-color="#8687A7"/>
</linearGradient>
<clipPath id="clip0">
<rect width="351" height="395.532" fill="white"/>
</clipPath>
</defs>
</svg>
