<svg width="351" height="396" viewBox="0 0 351 396" fill="none" xmlns="http://www.w3.org/2000/svg">
<g clip-path="url(#clip0)">
<path fill-rule="evenodd" clip-rule="evenodd" d="M179.878 6.57332C177.009 5.8089 173.991 5.80889 171.122 6.57332L18.6223 47.2143C11.1792 49.1978 6 55.9381 6 63.641V331.166C6 338.849 11.1532 345.577 18.5709 347.579L171.864 388.945C174.778 389.732 177.849 389.728 180.761 388.935L332.468 347.606C339.867 345.59 345 338.872 345 331.204V63.6409C345 55.9381 339.821 49.1978 332.378 47.2143L179.878 6.57332ZM169.577 0.775663C173.458 -0.258555 177.542 -0.258554 181.423 0.775663L333.923 41.4166C343.993 44.1003 351 53.2194 351 63.6409V331.204C351 341.578 344.055 350.668 334.045 353.395L182.338 394.724C178.398 395.797 174.243 395.802 170.3 394.738L17.0077 353.371C6.97197 350.663 0 341.56 0 331.166V63.641C0 53.2194 7.00721 44.1003 17.0773 41.4166L169.577 0.775663Z" fill="url(#paint0_linear)"/>
<path d="M348.001 331.737V63.197C348.001 54.1407 341.916 46.2146 333.167 43.8756L180.667 3.10488C177.282 2.2001 173.72 2.2001 170.335 3.10488L17.8354 43.8755C9.08642 46.2146 3.00098 54.1407 3.00098 63.197V331.699C3.00098 340.732 9.0557 348.644 17.7748 351.004L171.067 392.503C174.506 393.434 178.13 393.429 181.566 392.49L333.273 351.03C341.97 348.653 348.001 340.752 348.001 331.737Z" fill="#C9ECF8"/>
<path d="M143.56 240.269V213.674H149.115L160.189 233.097V213.674H165.129V240.269H159.662L148.5 220.898V240.269H143.56ZM195.873 221.478H189.984C189.457 220.74 188.818 220.113 188.068 219.597C187.33 219.07 186.521 218.666 185.642 218.385C184.775 218.092 183.89 217.945 182.988 217.945C180.644 217.945 178.594 218.713 176.836 220.248C176.238 220.775 175.705 221.408 175.236 222.146C174.779 222.873 174.422 223.658 174.164 224.502C173.906 225.334 173.777 226.148 173.777 226.945C173.777 228.058 174.006 229.172 174.463 230.285C174.931 231.398 175.553 232.347 176.326 233.133C177.252 234.094 178.306 234.832 179.49 235.347C180.685 235.863 181.928 236.121 183.217 236.121C184.775 236.121 186.281 235.681 187.734 234.802C189.187 233.912 190.271 232.758 190.986 231.34H179.859V226.699H197.209V227.279C197.209 229.81 196.564 232.119 195.275 234.205C193.986 236.291 192.252 237.931 190.072 239.127C187.892 240.322 185.554 240.92 183.058 240.92C181.16 240.92 179.349 240.574 177.627 239.883C175.916 239.179 174.398 238.201 173.074 236.947C171.75 235.693 170.713 234.228 169.963 232.552C169.213 230.865 168.838 229.054 168.838 227.121C168.838 225.187 169.207 223.377 169.945 221.689C170.695 219.99 171.726 218.502 173.039 217.224C174.351 215.947 175.869 214.951 177.592 214.236C179.326 213.521 181.125 213.164 182.988 213.164C184.804 213.164 186.574 213.504 188.297 214.183C190.031 214.863 191.56 215.836 192.885 217.101C194.22 218.355 195.217 219.814 195.873 221.478ZM212.941 213.164C215.437 213.164 217.746 213.785 219.867 215.027C222 216.258 223.687 217.951 224.929 220.107C226.172 222.252 226.793 224.578 226.793 227.086C226.793 229.605 226.166 231.926 224.912 234.047C223.67 236.168 221.988 237.844 219.867 239.074C217.746 240.304 215.437 240.92 212.941 240.92C211.113 240.92 209.344 240.568 207.633 239.865C205.933 239.15 204.439 238.154 203.15 236.877C201.861 235.588 200.859 234.099 200.144 232.412C199.429 230.713 199.072 228.937 199.072 227.086C199.072 224.578 199.693 222.252 200.935 220.107C202.178 217.951 203.865 216.258 205.998 215.027C208.131 213.785 210.445 213.164 212.941 213.164ZM212.941 217.945C211.301 217.945 209.801 218.349 208.441 219.158C207.082 219.967 206.004 221.068 205.207 222.463C204.41 223.845 204.012 225.351 204.012 226.98C204.012 228.164 204.246 229.318 204.715 230.443C205.183 231.556 205.834 232.541 206.666 233.396C207.51 234.252 208.47 234.92 209.549 235.4C210.627 235.881 211.758 236.121 212.941 236.121C214.535 236.121 216.012 235.705 217.371 234.873C218.742 234.041 219.832 232.922 220.64 231.515C221.461 230.097 221.871 228.586 221.871 226.98C221.871 225.351 221.472 223.845 220.676 222.463C219.879 221.068 218.801 219.967 217.441 219.158C216.082 218.349 214.582 217.945 212.941 217.945ZM207.545 211.828L211.5 208.119H214.312L218.232 211.828H214.347L212.906 210.105L211.429 211.828H207.545ZM230.678 240.269V213.674H235.617V240.269H230.678ZM248.924 232.781H254.074C254.074 233.801 254.431 234.615 255.146 235.224C255.861 235.822 256.734 236.121 257.765 236.121C258.375 236.121 258.943 235.98 259.47 235.699C260.01 235.406 260.437 235.008 260.754 234.504C261.07 233.988 261.228 233.414 261.228 232.781C261.228 231.492 260.818 230.537 259.998 229.916C259.178 229.283 258.041 228.738 256.588 228.281C255.404 227.883 254.484 227.525 253.828 227.209C253.172 226.881 252.556 226.424 251.982 225.838C251.326 225.158 250.81 224.373 250.435 223.482C250.072 222.58 249.89 221.66 249.89 220.722C249.89 219.328 250.242 218.051 250.945 216.89C251.66 215.719 252.621 214.804 253.828 214.148C255.035 213.492 256.336 213.164 257.73 213.164C258.762 213.164 259.74 213.357 260.666 213.744C261.603 214.119 262.435 214.658 263.162 215.361C263.9 216.052 264.474 216.867 264.885 217.804C265.306 218.73 265.517 219.703 265.517 220.722H260.437C260.402 219.902 260.092 219.234 259.506 218.719C258.931 218.203 258.246 217.945 257.449 217.945C256.652 217.945 256.013 218.215 255.533 218.754C255.064 219.281 254.83 219.949 254.83 220.758C254.83 221.636 255.129 222.31 255.726 222.779C256.336 223.248 257.15 223.652 258.17 223.992C259.447 224.414 260.461 224.789 261.211 225.117C261.961 225.433 262.676 225.879 263.355 226.453C265.23 227.941 266.168 229.957 266.168 232.5C266.168 233.66 265.939 234.761 265.482 235.804C265.037 236.836 264.416 237.732 263.619 238.494C262.822 239.256 261.896 239.847 260.842 240.269C259.787 240.703 258.679 240.92 257.519 240.92C256.031 240.92 254.619 240.562 253.283 239.847C251.959 239.133 250.898 238.154 250.101 236.912C249.316 235.67 248.924 234.293 248.924 232.781ZM267.398 240.269L278.49 213.674H282.34L293.537 240.269H288.105L285.222 233.396H275.801L272.847 240.269H267.398ZM277.594 228.597H283.289L280.441 220.547L277.594 228.597ZM308.742 213.164C311.238 213.164 313.547 213.785 315.668 215.027C317.801 216.258 319.488 217.951 320.73 220.107C321.972 222.252 322.594 224.578 322.594 227.086C322.594 229.605 321.967 231.926 320.713 234.047C319.47 236.168 317.789 237.844 315.668 239.074C313.547 240.304 311.238 240.92 308.742 240.92C306.914 240.92 305.144 240.568 303.433 239.865C301.734 239.15 300.24 238.154 298.951 236.877C297.662 235.588 296.66 234.099 295.945 232.412C295.23 230.713 294.873 228.937 294.873 227.086C294.873 224.578 295.494 222.252 296.736 220.107C297.978 217.951 299.666 216.258 301.799 215.027C303.931 213.785 306.246 213.164 308.742 213.164ZM308.742 217.945C307.101 217.945 305.601 218.349 304.242 219.158C302.883 219.967 301.804 221.068 301.008 222.463C300.211 223.845 299.812 225.351 299.812 226.98C299.812 228.164 300.047 229.318 300.515 230.443C300.984 231.556 301.635 232.541 302.467 233.396C303.31 234.252 304.271 234.92 305.349 235.4C306.428 235.881 307.558 236.121 308.742 236.121C310.336 236.121 311.812 235.705 313.172 234.873C314.543 234.041 315.633 232.922 316.441 231.515C317.262 230.097 317.672 228.586 317.672 226.98C317.672 225.351 317.273 223.845 316.476 222.463C315.679 221.068 314.601 219.967 313.242 219.158C311.883 218.349 310.383 217.945 308.742 217.945ZM60.5388 292.269H55.5994V265.674H61.8748H62.8064C63.7791 265.674 64.576 265.703 65.1971 265.761C65.8181 265.808 66.4627 265.937 67.1306 266.148C67.8103 266.347 68.4549 266.652 69.0642 267.062C70.1658 267.801 71.0271 268.767 71.6482 269.963C72.281 271.158 72.5974 272.424 72.5974 273.76C72.5974 274.627 72.4803 275.476 72.2459 276.308C72.0115 277.14 71.6482 277.926 71.156 278.664C70.6638 279.402 70.0896 280.035 69.4334 280.562C68.8592 281.019 68.1971 281.371 67.4471 281.617C66.7088 281.863 65.9529 282.021 65.1795 282.092C64.4178 282.162 63.5681 282.197 62.6306 282.197H61.5056H60.5388V292.269ZM60.5388 277.398H61.4353C63.1931 277.398 64.4646 277.304 65.2498 277.117C65.9881 276.859 66.574 276.437 67.0076 275.851C67.4412 275.265 67.658 274.592 67.658 273.83C67.658 273.045 67.4178 272.371 66.9373 271.808C66.4685 271.246 65.8592 270.865 65.1092 270.666C64.3826 270.525 63.158 270.455 61.4353 270.455H60.5388V277.398ZM75.7791 292.269V265.674H80.7185V276.326H90.2283V265.674H95.1502V292.269H90.2283V281.107H80.7185V292.269H75.7791ZM100.283 292.269V265.674H105.222V292.269H100.283ZM110.373 292.269V265.674H117.105L124.242 286.011L131.467 265.674H138.164V292.269H133.242V272.318L126.369 292.269H122.185L115.312 272.318V292.269H110.373ZM150.679 292.269L161.771 265.674H165.621L176.818 292.269H171.387L168.504 285.396H159.082L156.129 292.269H150.679ZM160.875 280.597H166.57L163.722 272.547L160.875 280.597ZM162.896 259.802L160.189 258.976C160.295 257.98 160.681 257.224 161.349 256.709C162.029 256.181 162.914 255.918 164.004 255.918C165.152 255.918 166.078 256.263 166.781 256.955C167.496 257.646 167.853 258.508 167.853 259.539C167.853 260.113 167.689 260.588 167.361 260.963C167.045 261.338 166.523 261.789 165.797 262.316C165.445 262.515 165.181 262.709 165.006 262.896C164.842 263.072 164.76 263.312 164.76 263.617H162.211V263.353C162.211 262.756 162.392 262.211 162.756 261.719C163.119 261.226 163.57 260.828 164.109 260.523C164.285 260.394 164.42 260.295 164.513 260.224C164.607 260.142 164.672 260.072 164.707 260.013C164.742 259.955 164.76 259.873 164.76 259.767C164.76 259.135 164.437 258.818 163.793 258.818C163.195 258.818 162.896 259.146 162.896 259.802ZM179.525 292.269V265.674H185.08L196.154 285.097V265.674H201.094V292.269H195.627L184.465 272.898V292.269H179.525ZM206.174 292.269V265.674H211.113V276.326H220.623V265.674H225.545V292.269H220.623V281.107H211.113V292.269H206.174ZM240.767 292.269V265.674H246.322L257.396 285.097V265.674H262.336V292.269H256.869L245.707 272.898V292.269H240.767ZM265.219 292.269L276.31 265.674H280.16L291.357 292.269H285.926L283.043 285.396H273.621L270.668 292.269H265.219ZM275.414 280.597H281.109L278.262 272.547L275.414 280.597ZM294.064 292.269V265.674H300.797L307.933 286.011L315.158 265.674H321.855V292.269H316.933V272.318L310.06 292.269H305.877L299.004 272.318V292.269H294.064Z" fill="#022742"/>
<path d="M167.745 184.264V172.44H168.929V177.64H175.057V172.44H176.241V184.264H175.057V178.712H168.929V184.264H167.745ZM178.427 184.264L183.531 172.44H184.843L189.915 184.264H188.635L186.923 180.296H181.419L179.707 184.264H178.427ZM181.883 179.224H186.459L184.187 173.8L181.883 179.224ZM183.643 186.632V185.352H184.699V186.632H183.643ZM192.111 184.264V172.44H193.711L200.335 182.248V172.44H201.519V184.264H200.335L193.295 173.864V184.264H192.111ZM208.803 178.808H216.835C216.728 180.408 216.061 181.752 214.835 182.84C213.608 183.928 212.189 184.472 210.579 184.472C208.861 184.472 207.373 183.874 206.115 182.68C204.867 181.474 204.243 180.013 204.243 178.296C204.243 176.664 204.851 175.25 206.067 174.056C207.293 172.85 208.797 172.248 210.579 172.248C211.88 172.248 213.037 172.584 214.051 173.256C215.149 173.981 215.837 174.76 216.115 175.592H214.771C214.365 174.909 213.773 174.37 212.995 173.976C212.227 173.581 211.421 173.384 210.579 173.384C209.192 173.384 208.019 173.826 207.059 174.712C205.971 175.714 205.427 176.914 205.427 178.312C205.427 179.73 205.944 180.925 206.979 181.896C207.981 182.856 209.197 183.336 210.627 183.336C211.704 183.336 212.696 183.016 213.603 182.376C214.52 181.725 215.123 180.893 215.411 179.88H208.803V178.808ZM224.745 184.264V172.44H226.569L230.889 182.504L235.193 172.44H237.017V184.264H235.833V173.752L231.385 184.264H230.377L225.929 173.752V184.264H224.745ZM240.248 172.44H241.432V179.624C241.432 180.701 241.614 181.528 241.976 182.104C242.499 182.925 243.267 183.336 244.28 183.336C245.208 183.336 245.934 182.978 246.456 182.264C246.894 181.666 247.112 180.786 247.112 179.624V172.44H248.296V179.624C248.296 181.085 248.003 182.2 247.416 182.968C246.648 183.97 245.603 184.472 244.28 184.472C242.99 184.472 241.96 184.002 241.192 183.064C240.563 182.296 240.248 181.149 240.248 179.624V172.44ZM243.736 186.76V185.48H244.792V186.76H243.736ZM262.589 175.48H261.277C260.85 174.829 260.258 174.317 259.501 173.944C258.743 173.57 257.959 173.384 257.149 173.384C255.815 173.384 254.658 173.88 253.677 174.872C252.695 175.864 252.205 177.01 252.205 178.312C252.205 179.688 252.701 180.872 253.693 181.864C254.695 182.845 255.874 183.336 257.229 183.336C258.018 183.336 258.781 183.138 259.517 182.744C260.253 182.349 260.855 181.826 261.325 181.176H262.637C262.125 182.157 261.373 182.952 260.381 183.56C259.389 184.168 258.338 184.472 257.229 184.472C255.49 184.472 254.018 183.88 252.813 182.696C251.618 181.512 251.021 180.05 251.021 178.312C251.021 176.637 251.618 175.208 252.813 174.024C254.007 172.84 255.447 172.248 257.133 172.248C258.391 172.248 259.527 172.578 260.541 173.24C261.618 173.944 262.301 174.69 262.589 175.48ZM272.506 183.192H274.026C274.997 183.192 275.738 183.138 276.25 183.032C277.018 182.882 277.701 182.573 278.298 182.104C279.514 181.144 280.122 179.885 280.122 178.328C280.122 176.792 279.509 175.544 278.282 174.584C277.695 174.125 277.018 173.821 276.25 173.672C275.738 173.565 274.997 173.512 274.026 173.512H272.506V177.432H274.586V178.504H272.506V183.192ZM274.586 184.264H271.322V178.504H269.786V177.432H271.322V172.44H274.506C276.469 172.44 278.015 172.898 279.146 173.816C279.818 174.36 280.346 175.037 280.73 175.848C281.114 176.648 281.306 177.474 281.306 178.328C281.306 180.077 280.661 181.544 279.37 182.728C278.719 183.325 277.973 183.741 277.13 183.976C276.458 184.168 275.61 184.264 274.586 184.264ZM284.027 184.264V172.44H290.491V173.512H285.211V177.768H290.315V178.84H285.211V183.192H290.491V184.264H284.027ZM284.507 171.88L286.603 170.072H287.515L289.595 171.88H288.299L287.051 170.84L285.803 171.88H284.507ZM286.603 167.448L289.451 169L288.987 169.832L286.155 168.312L286.603 167.448ZM309.698 175.48H308.386C307.96 174.829 307.368 174.317 306.61 173.944C305.853 173.57 305.069 173.384 304.258 173.384C302.925 173.384 301.768 173.88 300.786 174.872C299.805 175.864 299.314 177.01 299.314 178.312C299.314 179.688 299.81 180.872 300.802 181.864C301.805 182.845 302.984 183.336 304.338 183.336C305.128 183.336 305.89 183.138 306.626 182.744C307.362 182.349 307.965 181.826 308.434 181.176H309.746C309.234 182.157 308.482 182.952 307.49 183.56C306.498 184.168 305.448 184.472 304.338 184.472C302.6 184.472 301.128 183.88 299.922 182.696C298.728 181.512 298.13 180.05 298.13 178.312C298.13 176.637 298.728 175.208 299.922 174.024C301.117 172.84 302.557 172.248 304.242 172.248C305.501 172.248 306.637 172.578 307.65 173.24C308.728 173.944 309.41 174.69 309.698 175.48ZM312.458 172.44H313.642V179.624C313.642 180.701 313.823 181.528 314.186 182.104C314.708 182.925 315.476 183.336 316.49 183.336C317.418 183.336 318.143 182.978 318.666 182.264C319.103 181.666 319.322 180.786 319.322 179.624V172.44H320.506V174.456C320.996 174.082 321.263 173.41 321.306 172.44H322.282C322.196 174.274 321.604 175.192 320.506 175.192V179.624C320.506 181.085 320.212 182.2 319.626 182.968C318.858 183.97 317.812 184.472 316.49 184.472C315.199 184.472 314.17 184.002 313.402 183.064C312.772 182.296 312.458 181.149 312.458 179.624V172.44ZM315.69 169.928L314.97 169.496C315.087 169.069 315.306 168.744 315.626 168.52C316.01 168.306 316.394 168.221 316.778 168.264C317.268 168.317 317.642 168.482 317.898 168.76C318.164 169.026 318.298 169.357 318.298 169.752C318.266 170.082 318.042 170.413 317.626 170.744C317.178 171.106 316.932 171.352 316.89 171.48H316.138C316.138 171.17 316.372 170.85 316.842 170.52C317.204 170.264 317.386 170.024 317.386 169.8C317.407 169.597 317.327 169.416 317.146 169.256C316.964 169.096 316.762 169.021 316.538 169.032C316.335 169.042 316.143 169.138 315.962 169.32C315.78 169.49 315.69 169.693 315.69 169.928Z" fill="#343A40"/>
<path d="M39.2204 195.093L98.0933 160.083L84.4675 195.394L64.3573 194.17C64.3573 194.17 63.0112 194.192 61.7902 194.104L39.2204 195.093Z" fill="url(#paint1_linear)"/>
<path d="M129.558 77.6672L33.2698 80.825L103.131 146.643L129.558 77.6672Z" fill="url(#paint2_linear)"/>
<path d="M150.117 110.267L199.606 67.0475L180.075 156.73L150.117 110.267Z" fill="url(#paint3_linear)"/>
<path d="M199.594 67.0943L194.216 91.4523L228.569 89.3611L199.594 67.0943Z" fill="url(#paint4_linear)"/>
<path d="M98.105 160.039L12.5937 231.228L84.4673 195.394L98.105 160.039Z" fill="url(#paint5_linear)"/>
<path d="M129.766 77.9621L35.7721 40.0446L103.24 146.768L129.766 77.9621Z" fill="url(#paint6_linear)"/>
<path d="M180.119 156.742L84.4673 195.394L129.766 77.9624L180.119 156.742Z" fill="url(#paint7_linear)"/>
<path fill-rule="evenodd" clip-rule="evenodd" d="M75.2161 235.866C76.2554 235.779 76.8915 234.685 76.4523 233.739L72.4054 225.024C71.7536 223.621 69.6611 224.004 69.5489 225.547L68.8869 234.654C68.8201 235.572 69.5893 236.333 70.5072 236.257L75.2161 235.866ZM75.5453 234.16C75.6917 234.476 75.4797 234.84 75.1333 234.869L70.4244 235.261C70.1184 235.286 69.862 235.032 69.8843 234.726L70.5463 225.62C70.5837 225.105 71.2812 224.978 71.4985 225.445L75.5453 234.16Z" fill="url(#paint8_linear)"/>
<path fill-rule="evenodd" clip-rule="evenodd" d="M89.7104 119.921C90.8372 119.274 90.6635 117.597 89.4279 117.194L39.6448 100.968C38.3121 100.533 37.1648 102.002 37.9086 103.19L58.5507 136.162C58.9786 136.845 59.8703 137.068 60.5694 136.666L89.7104 119.921ZM89.118 118.145C89.5299 118.279 89.5878 118.838 89.2122 119.054L60.0712 135.799C59.8381 135.933 59.5409 135.859 59.3983 135.631L38.7562 102.659C38.5082 102.263 38.8907 101.774 39.3349 101.918L89.118 118.145Z" fill="url(#paint9_linear)"/>
<path fill-rule="evenodd" clip-rule="evenodd" d="M76.8581 117.377C75.6702 116.85 74.4196 117.98 74.8241 119.215L85.2661 151.1C85.7024 152.432 87.5649 152.491 88.0847 151.189L97.3272 128.04C97.6262 127.291 97.2796 126.44 96.5425 126.113L76.8581 117.377ZM75.7744 118.904C75.6396 118.492 76.0565 118.116 76.4524 118.291L96.1369 127.027C96.3826 127.136 96.4981 127.42 96.3984 127.669L87.156 150.819C86.9827 151.252 86.3619 151.233 86.2165 150.789L75.7744 118.904Z" fill="url(#paint10_linear)"/>
</g>
<defs>
<linearGradient id="paint0_linear" x1="440.685" y1="136.065" x2="42.0279" y2="238.259" gradientUnits="userSpaceOnUse">
<stop stop-color="#7FDFEF"/>
<stop offset="0.1836" stop-color="#81D8EF"/>
<stop offset="0.4577" stop-color="#86C3EF"/>
<stop offset="0.7866" stop-color="#8FA2EF"/>
<stop offset="1" stop-color="#9589EF"/>
</linearGradient>
<linearGradient id="paint1_linear" x1="125.505" y1="177.588" x2="33.8048" y2="179.763" gradientUnits="userSpaceOnUse">
<stop stop-color="#7FDFEF"/>
<stop offset="0.1836" stop-color="#81D8EF"/>
<stop offset="0.4577" stop-color="#86C3EF"/>
<stop offset="0.7866" stop-color="#8FA2EF"/>
<stop offset="1" stop-color="#9589EF"/>
</linearGradient>
<linearGradient id="paint2_linear" x1="55.1923" y1="144.11" x2="39.9589" y2="75.4899" gradientUnits="userSpaceOnUse">
<stop stop-color="#7FDFEF"/>
<stop offset="0.1836" stop-color="#81D8EF"/>
<stop offset="0.4577" stop-color="#86C3EF"/>
<stop offset="0.7866" stop-color="#8FA2EF"/>
<stop offset="1" stop-color="#9589EF"/>
</linearGradient>
<linearGradient id="paint3_linear" x1="203.804" y1="81.0935" x2="170.435" y2="158.664" gradientUnits="userSpaceOnUse">
<stop stop-color="#7FDFEF"/>
<stop offset="0.1836" stop-color="#81D8EF"/>
<stop offset="0.4577" stop-color="#86C3EF"/>
<stop offset="0.7866" stop-color="#8FA2EF"/>
<stop offset="1" stop-color="#9589EF"/>
</linearGradient>
<linearGradient id="paint4_linear" x1="236.946" y1="93.0342" x2="187.57" y2="65.6683" gradientUnits="userSpaceOnUse">
<stop stop-color="#7FDFEF"/>
<stop offset="0.1836" stop-color="#81D8EF"/>
<stop offset="0.4577" stop-color="#86C3EF"/>
<stop offset="0.7866" stop-color="#8FA2EF"/>
<stop offset="1" stop-color="#9589EF"/>
</linearGradient>
<linearGradient id="paint5_linear" x1="23.3525" y1="215.749" x2="117.818" y2="164.475" gradientUnits="userSpaceOnUse">
<stop stop-color="#7FDFEF"/>
<stop offset="0.1836" stop-color="#81D8EF"/>
<stop offset="0.4577" stop-color="#86C3EF"/>
<stop offset="0.7866" stop-color="#8FA2EF"/>
<stop offset="1" stop-color="#9589EF"/>
</linearGradient>
<linearGradient id="paint6_linear" x1="110.248" y1="118.24" x2="20.5109" y2="16.8348" gradientUnits="userSpaceOnUse">
<stop stop-color="#7FDFEF"/>
<stop offset="0.1836" stop-color="#81D8EF"/>
<stop offset="0.4577" stop-color="#86C3EF"/>
<stop offset="0.7866" stop-color="#8FA2EF"/>
<stop offset="1" stop-color="#9589EF"/>
</linearGradient>
<linearGradient id="paint7_linear" x1="96.3187" y1="166.663" x2="164.053" y2="91.2572" gradientUnits="userSpaceOnUse">
<stop stop-color="#7FDFEF"/>
<stop offset="0.1836" stop-color="#81D8EF"/>
<stop offset="0.4577" stop-color="#86C3EF"/>
<stop offset="0.7866" stop-color="#8FA2EF"/>
<stop offset="1" stop-color="#9589EF"/>
</linearGradient>
<linearGradient id="paint8_linear" x1="75.9626" y1="221.913" x2="68.629" y2="233.3" gradientUnits="userSpaceOnUse">
<stop stop-color="#7FDFEF"/>
<stop offset="0.1836" stop-color="#81D8EF"/>
<stop offset="0.4577" stop-color="#86C3EF"/>
<stop offset="0.7866" stop-color="#8FA2EF"/>
<stop offset="1" stop-color="#9589EF"/>
</linearGradient>
<linearGradient id="paint9_linear" x1="60.3392" y1="81.485" x2="65.0495" y2="129.333" gradientUnits="userSpaceOnUse">
<stop stop-color="#7FDFEF"/>
<stop offset="0.1836" stop-color="#81D8EF"/>
<stop offset="0.4577" stop-color="#86C3EF"/>
<stop offset="0.7866" stop-color="#8FA2EF"/>
<stop offset="1" stop-color="#9589EF"/>
</linearGradient>
<linearGradient id="paint10_linear" x1="94.0938" y1="129.715" x2="59.8006" y2="119.614" gradientUnits="userSpaceOnUse">
<stop stop-color="#91CDD9"/>
<stop offset="0.0204049" stop-color="#94CED9"/>
<stop offset="0.3344" stop-color="#C2DBDE"/>
<stop offset="0.6135" stop-color="#E3E5E2"/>
<stop offset="0.8449" stop-color="#F8EBE4"/>
<stop offset="1" stop-color="#FFEDE5"/>
</linearGradient>
<clipPath id="clip0">
<rect width="351" height="395.532" fill="white"/>
</clipPath>
</defs>
</svg>
