<svg width="351" height="396" viewBox="0 0 351 396" fill="none" xmlns="http://www.w3.org/2000/svg">
<g clip-path="url(#clip0)">
<path fill-rule="evenodd" clip-rule="evenodd" d="M179.878 6.57332C177.009 5.8089 173.991 5.80889 171.122 6.57332L18.6223 47.2143C11.1792 49.1978 6 55.9381 6 63.641V331.166C6 338.849 11.1532 345.577 18.5709 347.579L171.864 388.945C174.778 389.732 177.849 389.728 180.761 388.935L332.468 347.606C339.867 345.59 345 338.872 345 331.204V63.6409C345 55.9381 339.821 49.1978 332.378 47.2143L179.878 6.57332ZM169.577 0.775663C173.458 -0.258555 177.542 -0.258554 181.423 0.775663L333.923 41.4166C343.993 44.1003 351 53.2194 351 63.6409V331.204C351 341.578 344.055 350.668 334.045 353.395L182.338 394.724C178.398 395.797 174.243 395.802 170.3 394.738L17.0077 353.371C6.97197 350.663 0 341.56 0 331.166V63.641C0 53.2194 7.00721 44.1003 17.0773 41.4166L169.577 0.775663Z" fill="url(#paint0_linear)"/>
<path d="M348.001 331.737V63.197C348.001 54.1407 341.915 46.2146 333.166 43.8756L180.666 3.10488C177.282 2.2001 173.719 2.2001 170.335 3.10488L17.8352 43.8755C9.08617 46.2146 3.00073 54.1407 3.00073 63.197V331.699C3.00073 340.732 9.05545 348.644 17.7745 351.004L171.067 392.503C174.505 393.434 178.13 393.429 181.566 392.49L333.273 351.03C341.969 348.653 348.001 340.752 348.001 331.737Z" fill="#E8EBD6"/>
<path d="M143.56 240.269V213.674H149.115L160.189 233.097V213.674H165.129V240.269H159.662L148.5 220.898V240.269H143.56ZM195.873 221.478H189.984C189.457 220.74 188.818 220.113 188.068 219.597C187.33 219.07 186.521 218.666 185.642 218.385C184.775 218.092 183.89 217.945 182.988 217.945C180.644 217.945 178.594 218.713 176.836 220.248C176.238 220.775 175.705 221.408 175.236 222.146C174.779 222.873 174.422 223.658 174.164 224.502C173.906 225.334 173.777 226.148 173.777 226.945C173.777 228.058 174.006 229.172 174.463 230.285C174.931 231.398 175.553 232.347 176.326 233.133C177.252 234.094 178.306 234.832 179.49 235.347C180.685 235.863 181.928 236.121 183.217 236.121C184.775 236.121 186.281 235.681 187.734 234.802C189.187 233.912 190.271 232.758 190.986 231.34H179.859V226.699H197.209V227.279C197.209 229.81 196.564 232.119 195.275 234.205C193.986 236.291 192.252 237.931 190.072 239.127C187.892 240.322 185.554 240.92 183.058 240.92C181.16 240.92 179.349 240.574 177.627 239.883C175.916 239.179 174.398 238.201 173.074 236.947C171.75 235.693 170.713 234.228 169.963 232.552C169.213 230.865 168.838 229.054 168.838 227.121C168.838 225.187 169.207 223.377 169.945 221.689C170.695 219.99 171.726 218.502 173.039 217.224C174.351 215.947 175.869 214.951 177.592 214.236C179.326 213.521 181.125 213.164 182.988 213.164C184.804 213.164 186.574 213.504 188.297 214.183C190.031 214.863 191.56 215.836 192.885 217.101C194.22 218.355 195.217 219.814 195.873 221.478ZM212.941 213.164C215.437 213.164 217.746 213.785 219.867 215.027C222 216.258 223.687 217.951 224.929 220.107C226.172 222.252 226.793 224.578 226.793 227.086C226.793 229.605 226.166 231.926 224.912 234.047C223.67 236.168 221.988 237.844 219.867 239.074C217.746 240.304 215.437 240.92 212.941 240.92C211.113 240.92 209.344 240.568 207.633 239.865C205.933 239.15 204.439 238.154 203.15 236.877C201.861 235.588 200.859 234.099 200.144 232.412C199.429 230.713 199.072 228.937 199.072 227.086C199.072 224.578 199.693 222.252 200.935 220.107C202.178 217.951 203.865 216.258 205.998 215.027C208.131 213.785 210.445 213.164 212.941 213.164ZM212.941 217.945C211.301 217.945 209.801 218.349 208.441 219.158C207.082 219.967 206.004 221.068 205.207 222.463C204.41 223.845 204.012 225.351 204.012 226.98C204.012 228.164 204.246 229.318 204.715 230.443C205.183 231.556 205.834 232.541 206.666 233.396C207.51 234.252 208.47 234.92 209.549 235.4C210.627 235.881 211.758 236.121 212.941 236.121C214.535 236.121 216.012 235.705 217.371 234.873C218.742 234.041 219.832 232.922 220.64 231.515C221.461 230.097 221.871 228.586 221.871 226.98C221.871 225.351 221.472 223.845 220.676 222.463C219.879 221.068 218.801 219.967 217.441 219.158C216.082 218.349 214.582 217.945 212.941 217.945ZM207.545 211.828L211.5 208.119H214.312L218.232 211.828H214.347L212.906 210.105L211.429 211.828H207.545ZM230.678 240.269V213.674H235.617V240.269H230.678ZM248.924 232.781H254.074C254.074 233.801 254.431 234.615 255.146 235.224C255.861 235.822 256.734 236.121 257.765 236.121C258.375 236.121 258.943 235.98 259.47 235.699C260.01 235.406 260.437 235.008 260.754 234.504C261.07 233.988 261.228 233.414 261.228 232.781C261.228 231.492 260.818 230.537 259.998 229.916C259.178 229.283 258.041 228.738 256.588 228.281C255.404 227.883 254.484 227.525 253.828 227.209C253.172 226.881 252.556 226.424 251.982 225.838C251.326 225.158 250.81 224.373 250.435 223.482C250.072 222.58 249.89 221.66 249.89 220.722C249.89 219.328 250.242 218.051 250.945 216.89C251.66 215.719 252.621 214.804 253.828 214.148C255.035 213.492 256.336 213.164 257.73 213.164C258.762 213.164 259.74 213.357 260.666 213.744C261.603 214.119 262.435 214.658 263.162 215.361C263.9 216.052 264.474 216.867 264.885 217.804C265.306 218.73 265.517 219.703 265.517 220.722H260.437C260.402 219.902 260.092 219.234 259.506 218.719C258.931 218.203 258.246 217.945 257.449 217.945C256.652 217.945 256.013 218.215 255.533 218.754C255.064 219.281 254.83 219.949 254.83 220.758C254.83 221.636 255.129 222.31 255.726 222.779C256.336 223.248 257.15 223.652 258.17 223.992C259.447 224.414 260.461 224.789 261.211 225.117C261.961 225.433 262.676 225.879 263.355 226.453C265.23 227.941 266.168 229.957 266.168 232.5C266.168 233.66 265.939 234.761 265.482 235.804C265.037 236.836 264.416 237.732 263.619 238.494C262.822 239.256 261.896 239.847 260.842 240.269C259.787 240.703 258.679 240.92 257.519 240.92C256.031 240.92 254.619 240.562 253.283 239.847C251.959 239.133 250.898 238.154 250.101 236.912C249.316 235.67 248.924 234.293 248.924 232.781ZM267.398 240.269L278.49 213.674H282.34L293.537 240.269H288.105L285.222 233.396H275.801L272.847 240.269H267.398ZM277.594 228.597H283.289L280.441 220.547L277.594 228.597ZM308.742 213.164C311.238 213.164 313.547 213.785 315.668 215.027C317.801 216.258 319.488 217.951 320.73 220.107C321.972 222.252 322.594 224.578 322.594 227.086C322.594 229.605 321.967 231.926 320.713 234.047C319.47 236.168 317.789 237.844 315.668 239.074C313.547 240.304 311.238 240.92 308.742 240.92C306.914 240.92 305.144 240.568 303.433 239.865C301.734 239.15 300.24 238.154 298.951 236.877C297.662 235.588 296.66 234.099 295.945 232.412C295.23 230.713 294.873 228.937 294.873 227.086C294.873 224.578 295.494 222.252 296.736 220.107C297.978 217.951 299.666 216.258 301.799 215.027C303.931 213.785 306.246 213.164 308.742 213.164ZM308.742 217.945C307.101 217.945 305.601 218.349 304.242 219.158C302.883 219.967 301.804 221.068 301.008 222.463C300.211 223.845 299.812 225.351 299.812 226.98C299.812 228.164 300.047 229.318 300.515 230.443C300.984 231.556 301.635 232.541 302.467 233.396C303.31 234.252 304.271 234.92 305.349 235.4C306.428 235.881 307.558 236.121 308.742 236.121C310.336 236.121 311.812 235.705 313.172 234.873C314.543 234.041 315.633 232.922 316.441 231.515C317.262 230.097 317.672 228.586 317.672 226.98C317.672 225.351 317.273 223.845 316.476 222.463C315.679 221.068 314.601 219.967 313.242 219.158C311.883 218.349 310.383 217.945 308.742 217.945ZM89.0857 292.269L100.178 265.674H104.027L115.224 292.269H109.793L106.91 285.396H97.4881L94.5349 292.269H89.0857ZM99.281 280.597H104.976L102.129 272.547L99.281 280.597ZM96.8728 263.863L100.828 260.154H103.64L107.56 263.863H103.676L102.234 262.14L100.758 263.863H96.8728ZM117.931 292.269V265.674H124.664L131.801 286.011L139.025 265.674H145.722V292.269H140.801V272.318L133.928 292.269H129.744L122.871 272.318V292.269H117.931ZM160.435 292.269V265.674H165.99L177.064 285.097V265.674H182.004V292.269H176.537L165.375 272.898V292.269H160.435ZM187.084 292.269V265.674H192.023V276.326H201.533V265.674H206.455V292.269H201.533V281.107H192.023V292.269H187.084ZM209.39 292.269L220.482 265.674H224.332L235.529 292.269H230.097L227.215 285.396H217.793L214.84 292.269H209.39ZM219.586 280.597H225.281L222.433 272.547L219.586 280.597ZM220.553 297.877V294.431H224.367V297.877H220.553ZM257.291 285.027H263.004C262.359 286.586 261.392 287.969 260.103 289.176C258.814 290.383 257.349 291.308 255.709 291.953C254.068 292.597 252.387 292.92 250.664 292.92C248.812 292.92 247.043 292.556 245.355 291.83C243.668 291.092 242.191 290.078 240.926 288.789C239.66 287.5 238.664 286.006 237.937 284.306C237.222 282.607 236.865 280.82 236.865 278.945C236.865 276.496 237.486 274.211 238.728 272.09C239.97 269.957 241.64 268.269 243.738 267.027C245.836 265.785 248.097 265.164 250.523 265.164C252.316 265.164 254.045 265.492 255.709 266.148C257.385 266.804 258.873 267.748 260.174 268.978C261.474 270.197 262.465 271.627 263.144 273.267H257.537C256.705 272.248 255.662 271.439 254.408 270.842C253.166 270.244 251.883 269.945 250.558 269.945C248.953 269.945 247.482 270.367 246.146 271.211C244.81 272.043 243.75 273.162 242.965 274.568C242.191 275.963 241.804 277.48 241.804 279.121C241.804 280.679 242.203 282.156 243 283.551C243.808 284.933 244.892 286.041 246.252 286.873C247.611 287.705 249.058 288.121 250.594 288.121C253.113 288.121 255.345 287.09 257.291 285.027ZM276.416 292.269V265.674H281.97L293.045 285.097V265.674H297.984V292.269H292.517L281.355 272.898V292.269H276.416ZM302.783 265.674H307.705V282.267C307.705 283.088 307.728 283.756 307.775 284.271C307.834 284.775 307.98 285.302 308.215 285.853C308.59 286.556 309.082 287.113 309.691 287.523C310.312 287.922 310.998 288.121 311.748 288.121C312.404 288.121 313.037 287.951 313.646 287.611C314.267 287.271 314.748 286.82 315.088 286.258C315.416 285.719 315.615 285.15 315.685 284.552C315.767 283.955 315.808 283.193 315.808 282.267V265.674H320.748V270.455C321.416 270.455 321.89 270.092 322.172 269.365C322.465 268.638 322.611 267.42 322.611 265.709H325.248C325.213 267.818 324.773 269.429 323.929 270.543C323.097 271.656 322.037 272.213 320.748 272.213V282.267C320.748 283.826 320.613 285.179 320.344 286.328C320.086 287.476 319.57 288.519 318.797 289.457C317.894 290.523 316.822 291.367 315.58 291.988C314.349 292.609 313.072 292.92 311.748 292.92C310.541 292.92 309.316 292.621 308.074 292.023C306.832 291.414 305.789 290.635 304.945 289.685C304.324 288.982 303.855 288.25 303.539 287.488C303.234 286.715 303.029 285.929 302.924 285.133C302.83 284.324 302.783 283.369 302.783 282.267V265.674ZM308.689 263.406L307.353 261.015C308.033 260.371 308.924 260.049 310.025 260.049C310.47 260.049 311.021 260.177 311.678 260.435C312.345 260.681 312.791 260.804 313.013 260.804C313.67 260.804 314.279 260.564 314.842 260.084L316.178 262.351C315.92 262.597 315.656 262.808 315.387 262.984C315.117 263.148 314.836 263.277 314.543 263.371C314.25 263.465 313.939 263.511 313.611 263.511C313.26 263.511 312.902 263.453 312.539 263.336C312.187 263.219 311.83 263.107 311.467 263.002C311.115 262.885 310.775 262.826 310.447 262.826C309.791 262.826 309.205 263.019 308.689 263.406Z" fill="#022742"/>
<path d="M167.746 184.264V172.44H168.93V177.64H175.058V172.44H176.242V184.264H175.058V178.712H168.93V184.264H167.746ZM178.427 184.264L183.531 172.44H184.843L189.915 184.264H188.635L186.923 180.296H181.419L179.707 184.264H178.427ZM181.883 179.224H186.459L184.187 173.8L181.883 179.224ZM183.643 186.632V185.352H184.699V186.632H183.643ZM192.111 184.264V172.44H193.711L200.335 182.248V172.44H201.519V184.264H200.335L193.295 173.864V184.264H192.111ZM208.803 178.808H216.835C216.728 180.408 216.062 181.752 214.835 182.84C213.608 183.928 212.19 184.472 210.579 184.472C208.862 184.472 207.374 183.874 206.115 182.68C204.867 181.474 204.243 180.013 204.243 178.296C204.243 176.664 204.851 175.25 206.067 174.056C207.294 172.85 208.798 172.248 210.579 172.248C211.88 172.248 213.038 172.584 214.051 173.256C215.15 173.981 215.838 174.76 216.115 175.592H214.771C214.366 174.909 213.774 174.37 212.995 173.976C212.227 173.581 211.422 173.384 210.579 173.384C209.192 173.384 208.019 173.826 207.059 174.712C205.971 175.714 205.427 176.914 205.427 178.312C205.427 179.73 205.944 180.925 206.979 181.896C207.982 182.856 209.198 183.336 210.627 183.336C211.704 183.336 212.696 183.016 213.603 182.376C214.52 181.725 215.123 180.893 215.411 179.88H208.803V178.808ZM224.746 184.264V172.44H226.57L230.89 182.504L235.194 172.44H237.018V184.264H235.834V173.752L231.386 184.264H230.378L225.93 173.752V184.264H224.746ZM240.249 172.44H241.433V179.624C241.433 180.701 241.614 181.528 241.977 182.104C242.499 182.925 243.267 183.336 244.281 183.336C245.209 183.336 245.934 182.978 246.457 182.264C246.894 181.666 247.113 180.786 247.113 179.624V172.44H248.297V179.624C248.297 181.085 248.003 182.2 247.417 182.968C246.649 183.97 245.603 184.472 244.281 184.472C242.99 184.472 241.961 184.002 241.193 183.064C240.563 182.296 240.249 181.149 240.249 179.624V172.44ZM243.737 186.76V185.48H244.793V186.76H243.737ZM262.589 175.48H261.277C260.85 174.829 260.258 174.317 259.501 173.944C258.744 173.57 257.96 173.384 257.149 173.384C255.816 173.384 254.658 173.88 253.677 174.872C252.696 175.864 252.205 177.01 252.205 178.312C252.205 179.688 252.701 180.872 253.693 181.864C254.696 182.845 255.874 183.336 257.229 183.336C258.018 183.336 258.781 183.138 259.517 182.744C260.253 182.349 260.856 181.826 261.325 181.176H262.637C262.125 182.157 261.373 182.952 260.381 183.56C259.389 184.168 258.338 184.472 257.229 184.472C255.49 184.472 254.018 183.88 252.813 182.696C251.618 181.512 251.021 180.05 251.021 178.312C251.021 176.637 251.618 175.208 252.813 174.024C254.008 172.84 255.448 172.248 257.133 172.248C258.392 172.248 259.528 172.578 260.541 173.24C261.618 173.944 262.301 174.69 262.589 175.48ZM272.506 183.192H274.026C274.997 183.192 275.738 183.138 276.25 183.032C277.018 182.882 277.701 182.573 278.298 182.104C279.514 181.144 280.122 179.885 280.122 178.328C280.122 176.792 279.509 175.544 278.282 174.584C277.696 174.125 277.018 173.821 276.25 173.672C275.738 173.565 274.997 173.512 274.026 173.512H272.506V177.432H274.586V178.504H272.506V183.192ZM274.586 184.264H271.322V178.504H269.786V177.432H271.322V172.44H274.506C276.469 172.44 278.016 172.898 279.146 173.816C279.818 174.36 280.346 175.037 280.73 175.848C281.114 176.648 281.306 177.474 281.306 178.328C281.306 180.077 280.661 181.544 279.37 182.728C278.72 183.325 277.973 183.741 277.13 183.976C276.458 184.168 275.61 184.264 274.586 184.264ZM284.027 184.264V172.44H290.491V173.512H285.211V177.768H290.315V178.84H285.211V183.192H290.491V184.264H284.027ZM284.507 171.88L286.603 170.072H287.515L289.595 171.88H288.299L287.051 170.84L285.803 171.88H284.507ZM286.603 167.448L289.451 169L288.987 169.832L286.155 168.312L286.603 167.448ZM309.698 175.48H308.386C307.96 174.829 307.368 174.317 306.61 173.944C305.853 173.57 305.069 173.384 304.258 173.384C302.925 173.384 301.768 173.88 300.786 174.872C299.805 175.864 299.314 177.01 299.314 178.312C299.314 179.688 299.81 180.872 300.802 181.864C301.805 182.845 302.984 183.336 304.338 183.336C305.128 183.336 305.89 183.138 306.626 182.744C307.362 182.349 307.965 181.826 308.434 181.176H309.746C309.234 182.157 308.482 182.952 307.49 183.56C306.498 184.168 305.448 184.472 304.338 184.472C302.6 184.472 301.128 183.88 299.922 182.696C298.728 181.512 298.13 180.05 298.13 178.312C298.13 176.637 298.728 175.208 299.922 174.024C301.117 172.84 302.557 172.248 304.242 172.248C305.501 172.248 306.637 172.578 307.65 173.24C308.728 173.944 309.41 174.69 309.698 175.48ZM312.458 172.44H313.642V179.624C313.642 180.701 313.823 181.528 314.186 182.104C314.709 182.925 315.477 183.336 316.49 183.336C317.418 183.336 318.143 182.978 318.666 182.264C319.103 181.666 319.322 180.786 319.322 179.624V172.44H320.506V174.456C320.997 174.082 321.263 173.41 321.306 172.44H322.282C322.197 174.274 321.605 175.192 320.506 175.192V179.624C320.506 181.085 320.213 182.2 319.626 182.968C318.858 183.97 317.813 184.472 316.49 184.472C315.199 184.472 314.17 184.002 313.402 183.064C312.773 182.296 312.458 181.149 312.458 179.624V172.44ZM315.69 169.928L314.97 169.496C315.087 169.069 315.306 168.744 315.626 168.52C316.01 168.306 316.394 168.221 316.778 168.264C317.269 168.317 317.642 168.482 317.898 168.76C318.165 169.026 318.298 169.357 318.298 169.752C318.266 170.082 318.042 170.413 317.626 170.744C317.178 171.106 316.933 171.352 316.89 171.48H316.138C316.138 171.17 316.373 170.85 316.842 170.52C317.205 170.264 317.386 170.024 317.386 169.8C317.407 169.597 317.327 169.416 317.146 169.256C316.965 169.096 316.762 169.021 316.538 169.032C316.335 169.042 316.143 169.138 315.962 169.32C315.781 169.49 315.69 169.693 315.69 169.928Z" fill="#343A40"/>
<path d="M42.4669 193.293L100.335 158.881L86.9416 193.589L67.1747 192.386C67.1747 192.386 65.8515 192.407 64.6514 192.321L42.4669 193.293Z" fill="url(#paint1_linear)"/>
<path d="M131.262 77.8716L36.6179 80.9754L105.286 145.67L131.262 77.8716Z" fill="url(#paint2_linear)"/>
<path d="M151.47 109.915L200.115 67.4332L180.917 155.585L151.47 109.915Z" fill="url(#paint3_linear)"/>
<path d="M200.103 67.4788L194.817 91.421L228.583 89.3654L200.103 67.4788Z" fill="url(#paint4_linear)"/>
<path d="M100.346 158.837L16.2949 228.811L86.9415 193.589L100.346 158.837Z" fill="url(#paint5_linear)"/>
<path d="M131.468 78.1617L39.0788 40.8915L105.395 145.793L131.468 78.1617Z" fill="url(#paint6_linear)"/>
<path d="M180.961 155.596L86.9425 193.589L131.468 78.1617L180.961 155.596Z" fill="url(#paint7_linear)"/>
<path fill-rule="evenodd" clip-rule="evenodd" d="M71.1569 235.178C72.1577 235.743 73.3987 235.02 73.3987 233.871L73.3987 223.934C73.3987 222.446 71.4624 221.87 70.6435 223.113L65.8747 230.356C65.3976 231.08 65.6331 232.056 66.3882 232.483L71.1569 235.178ZM72.3979 233.872C72.3979 234.255 71.9843 234.496 71.6507 234.308L66.8819 231.613C66.6302 231.471 66.5517 231.146 66.7107 230.904L71.4795 223.662C71.7525 223.247 72.3979 223.439 72.3979 223.935L72.3979 233.872Z" fill="url(#paint8_linear)"/>
<path fill-rule="evenodd" clip-rule="evenodd" d="M84.624 121.882C85.7508 121.234 85.5771 119.558 84.3415 119.155L34.5584 102.929C33.2257 102.494 32.0783 103.963 32.8222 105.151L53.4643 138.123C53.8921 138.806 54.7838 139.029 55.483 138.627L84.624 121.882ZM84.0316 120.106C84.4434 120.24 84.5013 120.799 84.1257 121.015L54.9848 137.76C54.7517 137.894 54.4545 137.82 54.3119 137.592L33.6698 104.62C33.4218 104.224 33.8043 103.735 34.2485 103.879L84.0316 120.106Z" fill="url(#paint9_linear)"/>
<path fill-rule="evenodd" clip-rule="evenodd" d="M71.7731 119.338C70.5852 118.811 69.3347 119.941 69.7391 121.176L80.1812 153.061C80.6174 154.393 82.48 154.452 82.9997 153.15L92.2422 130.001C92.5412 129.252 92.1946 128.401 91.4576 128.074L71.7731 119.338ZM70.6895 120.865C70.5547 120.453 70.9715 120.077 71.3675 120.252L91.0519 128.988C91.2976 129.097 91.4132 129.381 91.3135 129.63L82.071 152.779C81.8978 153.213 81.2769 153.194 81.1315 152.75L70.6895 120.865Z" fill="url(#paint10_linear)"/>
</g>
<defs>
<linearGradient id="paint0_linear" x1="36.6834" y1="55.9387" x2="385.765" y2="302.929" gradientUnits="userSpaceOnUse">
<stop stop-color="#613B02"/>
<stop offset="1" stop-color="#EFD16E"/>
</linearGradient>
<linearGradient id="paint1_linear" x1="42.4671" y1="193.944" x2="67.238" y2="169.95" gradientUnits="userSpaceOnUse">
<stop stop-color="#D6B094"/>
<stop offset="0.3075" stop-color="#D6C3A4"/>
<stop offset="0.7217" stop-color="#D7D8B5"/>
<stop offset="1" stop-color="#D7DFBB"/>
</linearGradient>
<linearGradient id="paint2_linear" x1="36.8056" y1="75.1413" x2="92.4031" y2="129.568" gradientUnits="userSpaceOnUse">
<stop stop-color="#D6B094"/>
<stop offset="0.3075" stop-color="#D6C3A4"/>
<stop offset="0.7217" stop-color="#D7D8B5"/>
<stop offset="1" stop-color="#D7DFBB"/>
</linearGradient>
<linearGradient id="paint3_linear" x1="133.956" y1="124.886" x2="198.917" y2="75.1413" gradientUnits="userSpaceOnUse">
<stop stop-color="#D6B094"/>
<stop offset="0.3075" stop-color="#D6C3A4"/>
<stop offset="0.7217" stop-color="#D7D8B5"/>
<stop offset="1" stop-color="#D7DFBB"/>
</linearGradient>
<linearGradient id="paint4_linear" x1="186.042" y1="75.7276" x2="218.815" y2="83.6018" gradientUnits="userSpaceOnUse">
<stop stop-color="#D6B094"/>
<stop offset="0.3075" stop-color="#D6C3A4"/>
<stop offset="0.7217" stop-color="#D7D8B5"/>
<stop offset="1" stop-color="#D7DFBB"/>
</linearGradient>
<linearGradient id="paint5_linear" x1="128.688" y1="155.904" x2="54.363" y2="203.308" gradientUnits="userSpaceOnUse">
<stop stop-color="#D6B094"/>
<stop offset="0.3075" stop-color="#D6C3A4"/>
<stop offset="0.7217" stop-color="#D7D8B5"/>
<stop offset="1" stop-color="#D7DFBB"/>
</linearGradient>
<linearGradient id="paint6_linear" x1="17.2959" y1="66.3628" x2="134.597" y2="80.4084" gradientUnits="userSpaceOnUse">
<stop stop-color="#D6B094"/>
<stop offset="0.3075" stop-color="#D6C3A4"/>
<stop offset="0.7217" stop-color="#D7D8B5"/>
<stop offset="1" stop-color="#D7DFBB"/>
</linearGradient>
<linearGradient id="paint7_linear" x1="149.172" y1="66.3627" x2="91.2336" y2="181.069" gradientUnits="userSpaceOnUse">
<stop stop-color="#D6B094"/>
<stop offset="0.3075" stop-color="#D6C3A4"/>
<stop offset="0.7217" stop-color="#D7D8B5"/>
<stop offset="1" stop-color="#D7DFBB"/>
</linearGradient>
<linearGradient id="paint8_linear" x1="69.1888" y1="233.783" x2="75.0836" y2="221.661" gradientUnits="userSpaceOnUse">
<stop stop-color="#D6B094"/>
<stop offset="0.3075" stop-color="#D6C3A4"/>
<stop offset="0.7217" stop-color="#D7D8B5"/>
<stop offset="1" stop-color="#D7DFBB"/>
</linearGradient>
<linearGradient id="paint9_linear" x1="67.2344" y1="134.179" x2="52.6044" y2="95.7067" gradientUnits="userSpaceOnUse">
<stop stop-color="#D6B094"/>
<stop offset="0.3075" stop-color="#D6C3A4"/>
<stop offset="0.7217" stop-color="#D7D8B5"/>
<stop offset="1" stop-color="#D7DFBB"/>
</linearGradient>
<linearGradient id="paint10_linear" x1="62.2028" y1="150.155" x2="86.1149" y2="128.794" gradientUnits="userSpaceOnUse">
<stop stop-color="#7FDFEF"/>
<stop offset="0.1836" stop-color="#81D8EF"/>
<stop offset="0.4577" stop-color="#86C3EF"/>
<stop offset="0.7866" stop-color="#8FA2EF"/>
<stop offset="1" stop-color="#9589EF"/>
</linearGradient>
<clipPath id="clip0">
<rect width="351" height="395.532" fill="white"/>
</clipPath>
</defs>
</svg>
