<svg width="111" height="47" viewBox="0 0 111 47" fill="none" xmlns="http://www.w3.org/2000/svg">
<path fill-rule="evenodd" clip-rule="evenodd" d="M85.2076 33.681H96.7054C96.7054 33.681 97.8862 31.51 98.0105 27.4782V27.1061C97.8862 23.1363 96.7054 20.9033 96.7054 20.9033H90.3661L83.4674 24.5009C83.4674 24.625 83.4053 24.811 83.4053 24.9351L85.2076 33.681ZM86.3885 27.2301C86.4506 25.0592 87.1343 23.8186 87.1343 23.8186H94.0329C94.0329 23.8186 94.6544 24.9971 94.7787 27.2301V27.4162C94.7166 29.5872 94.0329 30.8277 94.0329 30.8277H87.1343C87.1343 30.8277 86.4506 29.6492 86.3885 27.4162V27.2301Z" fill="white"/>
<path fill-rule="evenodd" clip-rule="evenodd" d="M30.5771 27.1061V27.4782C30.7014 31.448 31.8823 33.681 31.8823 33.681H44.1258C44.1258 33.681 45.3067 31.51 45.431 27.4782V27.1061C45.3067 23.1363 44.1258 20.9033 44.1258 20.9033H31.8823C31.8823 20.9653 30.7636 23.1363 30.5771 27.1061ZM33.8089 27.2301C33.8711 25.0592 34.5547 23.8186 34.5547 23.8186H41.4534C41.4534 23.8186 42.0749 24.9971 42.1992 27.2301V27.4162C42.137 29.5872 41.4534 30.8277 41.4534 30.8277H34.5547C34.5547 30.8277 33.9332 29.6492 33.8089 27.4162V27.2301Z" fill="white"/>
<path fill-rule="evenodd" clip-rule="evenodd" d="M46.1152 20.9653L49.2849 19.3525V33.6809H46.1152V20.9653Z" fill="white"/>
<path fill-rule="evenodd" clip-rule="evenodd" d="M11.187 20.9653V29.339L3.54255 20.9653H0V33.681H3.2318V25.1212L10.9384 33.681H14.4188V20.9653H11.187Z" fill="white"/>
<path fill-rule="evenodd" clip-rule="evenodd" d="M15.1025 27.1061V27.4782C15.2268 31.448 16.4077 33.681 16.4077 33.681H28.5891C28.5891 33.681 29.7699 31.51 29.8942 27.4782V27.1061C29.8942 26.6098 29.8321 26.1136 29.8321 25.6794H23.8035L21.5661 28.8428H26.5381C26.3517 30.0834 25.9788 30.7657 25.9788 30.7657H19.018C19.018 30.7657 18.3965 29.5872 18.2722 27.3542V27.1681C18.3343 24.9971 19.018 23.7566 19.018 23.7566H29.4592C29.0863 21.8958 28.5269 20.9033 28.5269 20.9033H16.4077C16.4077 20.9653 15.2268 23.1363 15.1025 27.1061Z" fill="white"/>
<path fill-rule="evenodd" clip-rule="evenodd" d="M50.9014 27.106V27.4782C50.9014 27.9744 50.9635 28.4707 51.0257 28.9048H62.772L64.7608 25.7414H54.2575C54.4439 24.5009 54.8168 23.8186 54.8168 23.8186H64.5744L61.9019 20.9653H52.2065C52.2065 20.9653 51.0257 23.1363 50.9014 27.106ZM61.4669 30.8277H51.6472C52.0201 32.6885 52.5794 33.681 52.5794 33.681H59.6024L61.4669 30.8277Z" fill="white"/>
<path fill-rule="evenodd" clip-rule="evenodd" d="M0 37.7126V35.1694H0.4972V36.1619H1.42945V35.1694H1.92665V36.1619H1.42945V36.7201H1.92665V37.7126H1.42945V36.7201H0.4972V37.7126H0Z" fill="white"/>
<path fill-rule="evenodd" clip-rule="evenodd" d="M4.53711 35.1694H6.52591V37.7126H5.96656V35.6657H5.03431V37.7126H4.53711V35.1694Z" fill="white"/>
<path fill-rule="evenodd" clip-rule="evenodd" d="M10.5658 37.1543V35.6036H9.57142V37.1543H10.5658ZM11.0009 35.1694V37.7126H9.07422V35.1694H11.0009Z" fill="white"/>
<path fill-rule="evenodd" clip-rule="evenodd" d="M17.3391 37.7126H13.9209V35.1694H14.4181V37.1543H15.4125V35.1694H15.9097V37.1543H16.8419V35.1694H17.3391V37.7126Z" fill="white"/>
<path fill-rule="evenodd" clip-rule="evenodd" d="M25.4198 35.6657H23.9904V36.1619H24.9226V36.7201H23.9904V37.1543H25.4198V37.7126H23.4932V35.1694H25.4198V35.6657Z" fill="white"/>
<path fill-rule="evenodd" clip-rule="evenodd" d="M28.0923 37.7126V37.1543H27.6572V35.1694H28.0923V37.1543H29.0867V35.1694H29.5839V37.1543H29.0867V37.7126H28.0923Z" fill="white"/>
<path fill-rule="evenodd" clip-rule="evenodd" d="M34.1206 35.6657H32.629V36.1619H33.6234V36.7201H32.629V37.1543H34.1206V37.7126H32.1318V35.1694H34.1206V35.6657Z" fill="white"/>
<path fill-rule="evenodd" clip-rule="evenodd" d="M38.6568 37.7126H38.1596V36.7201H37.2273V37.7126H36.668V35.1694H38.5946V36.1619H38.0974V36.7201H38.5946V37.7126H38.6568ZM38.1596 36.1619V35.6036H37.2273V36.1619H38.1596Z" fill="white"/>
<path fill-rule="evenodd" clip-rule="evenodd" d="M42.697 35.1694H43.1321V37.7126H41.2676V37.1543H42.697V36.7201H41.2676V35.1694H41.7026V36.1619H42.697V35.1694Z" fill="white"/>
<path fill-rule="evenodd" clip-rule="evenodd" d="M47.1716 35.1694V35.6657H46.7366V37.7126H46.2394V35.6657H45.7422V35.1694H47.1716Z" fill="white"/>
<path fill-rule="evenodd" clip-rule="evenodd" d="M51.2117 35.1694H51.7089V37.7126H51.2117V36.7201H50.2794V37.7126H49.7822V35.1694H50.2794V36.1619H51.2117V35.1694Z" fill="white"/>
<path d="M54.7534 35.1694H54.3184V37.7126H54.7534V35.1694Z" fill="white"/>
<path fill-rule="evenodd" clip-rule="evenodd" d="M57.7373 35.1694H59.664V37.7126H59.1668V35.6657H58.2345V37.7126H57.7373V35.1694Z" fill="white"/>
<path fill-rule="evenodd" clip-rule="evenodd" d="M62.7716 37.1543H63.7039V36.7201H63.2067V36.1619H64.2011V37.7126H62.2744V35.1694H64.2011V35.6657H62.7716V37.1543Z" fill="white"/>
<path fill-rule="evenodd" clip-rule="evenodd" d="M81.9757 23.9426L86.3262 46.0244L57.3643 14.5144L69.9186 13.1498L76.8794 0L79.0546 12.1574L111 8.68384L81.9757 23.9426ZM81.7275 41.0001L58.9806 16.2512L59.54 16.3132L67.8681 20.6551L74.3938 11.9713C74.3938 11.9713 76.0719 9.73829 76.5691 12.7156L81.7275 41.0001Z" fill="white"/>
<path fill-rule="evenodd" clip-rule="evenodd" d="M61.0315 18.4222L66.9358 24.811L60.9072 33.743H64.5119L68.8624 26.982L79.8008 38.7672L75.0153 13.2739L68.4274 22.516L61.0315 18.4222ZM73.2751 20.159V25.3693L70.8512 23.9426L73.2751 20.159Z" fill="white"/>
<path fill-rule="evenodd" clip-rule="evenodd" d="M37.9739 17.5537C37.9739 17.5537 37.1038 18.9803 36.0472 19.4766C35.0528 19.9728 33.6855 20.407 33.6855 20.407H37.9739H42.2622C42.2622 20.407 40.8949 19.9108 39.9005 19.4766C38.844 18.9803 37.9739 17.5537 37.9739 17.5537Z" fill="white"/>
</svg>
