<svg width="114" height="35" viewBox="0 0 114 35" fill="none" xmlns="http://www.w3.org/2000/svg">
<path d="M24.4768 4.81226H16.27V5.33142C17.0088 5.39132 17.5879 5.4712 17.9873 5.591C18.3866 5.69084 18.766 5.87055 19.1254 6.11017C19.5647 6.38972 19.9241 6.78908 20.2436 7.28827C20.5431 7.78747 29.4089 29.3728 29.4089 29.3728L31.7252 22.7434L24.4768 4.81226Z" fill="#034D7F"/>
<path d="M44.2054 5.17166C43.846 4.89211 43.4466 4.7723 43.0473 4.83221C42.628 4.89211 42.2885 5.09179 41.989 5.47118C41.7094 5.8306 41.5896 6.22996 41.6296 6.66925C41.6495 6.8889 41.7294 7.10855 41.8292 7.32819C41.9291 7.54784 42.1487 7.9472 42.4882 8.5063C42.7877 9.02547 42.9474 9.46476 42.9474 9.84415C42.9474 10.2235 42.7877 10.6029 42.4882 10.9624C42.4882 10.9624 44.6846 9.60453 44.9642 7.18842C45.064 6.3298 44.8044 5.65089 44.2054 5.17166Z" fill="#034D7F"/>
<path d="M5.9268 4.81226V5.31145C7.38445 5.43126 8.54259 5.93046 9.38124 6.80905C9.92037 7.34818 10.2598 8.08699 10.4196 9.04545C10.5593 9.78426 10.6193 10.6229 10.6193 11.5414V24.3209C10.6193 27.6755 10.4395 29.9319 10.0801 31.11C9.80057 31.9686 9.40121 32.6275 8.88204 33.0668C8.36288 33.5261 7.76384 33.7457 7.06497 33.7457C6.52583 33.7457 6.08654 33.606 5.74709 33.3464C5.40763 33.0868 5.12808 32.6275 4.8685 32.0085C4.60892 31.3296 4.40924 30.8504 4.26946 30.5908C4.12969 30.3312 3.98991 30.1116 3.8102 29.9518C3.45078 29.5924 3.01148 29.4327 2.47235 29.4327C1.93322 29.4327 1.49392 29.5924 1.15447 29.9319C0.815017 30.2713 0.655273 30.6906 0.655273 31.2298C0.655273 32.1084 1.09457 32.8072 1.95319 33.3264C2.41245 33.6259 3.03145 33.8456 3.8102 34.0253C4.58895 34.205 5.3677 34.2849 6.18638 34.2849C7.56416 34.2849 8.90201 34.0452 10.1999 33.606C11.5178 33.1467 12.5561 32.5477 13.3149 31.8088C14.0937 31.0501 14.6128 30.1515 14.9123 29.0932C15.2119 28.0349 15.3516 26.5174 15.3516 24.5405V4.81226H5.9268Z" fill="#034D7F"/>
<path d="M42.0488 13.0191C41.929 13.2187 41.7693 13.4584 41.6095 13.7379C41.4498 14.0175 41.2701 14.3569 41.0904 14.7163C40.9106 15.0758 40.7309 15.4751 40.5512 15.9144C40.3715 16.3337 40.1918 16.793 40.0321 17.2722C39.8723 17.7514 39.7126 18.2506 39.5728 18.7698C39.5528 18.8097 39.5528 18.8697 39.5329 18.9296L33.822 4.81226H25.6152V5.33142C26.354 5.39132 26.9331 5.4712 27.3325 5.591C27.7318 5.69084 28.1112 5.87055 28.4706 6.11017C28.9099 6.38972 29.2694 6.78908 29.5888 7.28827C29.8684 7.74754 37.4562 26.2178 38.5944 29.0133C38.5944 28.9335 38.5944 28.8336 38.5944 28.7538C38.6143 28.634 38.6343 28.4343 38.6742 28.1547C38.6942 27.9151 38.7341 27.6356 38.7541 27.3161C38.7741 26.9966 38.834 26.6172 38.8739 26.2178C38.9139 25.8185 38.9738 25.3792 39.0337 24.9399C39.1135 24.4806 39.1734 24.0014 39.2533 23.5222C39.3132 23.023 39.433 22.5238 39.5129 22.0046C39.5928 21.4854 39.7126 20.9663 39.8324 20.4471C39.9322 19.928 40.072 19.4088 40.1918 18.9096C40.3316 18.4104 40.4514 17.9112 40.5912 17.432C40.7309 16.9527 40.8707 16.4935 41.0105 16.0542C41.1503 15.6149 41.29 15.2155 41.4298 14.8361C41.5696 14.4767 41.6894 14.1173 41.8292 13.8178C41.949 13.5183 42.0688 13.2587 42.1686 13.039C42.2685 12.8194 42.3483 12.6596 42.4082 12.5598C42.4681 12.44 42.4881 12.3801 42.4881 12.3801C42.4881 12.3801 42.3084 12.6197 42.0488 13.0191Z" fill="#034D7F"/>
<path d="M68.666 10.1636L66.17 7.60772L68.5462 5.39129C68.646 5.31142 68.666 5.19161 68.6261 5.0718C68.5861 4.97196 68.4863 4.89209 68.3665 4.89209H67.9871C67.8873 4.89209 67.7874 4.95199 67.7475 5.0119L65.5111 7.14846V5.21158C65.5111 5.05183 65.3713 4.91206 65.2115 4.91206H64.9919C64.8122 4.91206 64.6924 5.05183 64.6924 5.21158V10.3034C64.6924 10.4831 64.8322 10.6029 64.9919 10.6029H65.2115C65.3713 10.6029 65.5111 10.4631 65.5111 10.3034V8.12689L67.8074 10.523C67.8473 10.5829 67.9671 10.6229 68.047 10.6229H68.4463C68.5662 10.6229 68.666 10.563 68.7059 10.4631C68.7459 10.3433 68.7259 10.2435 68.666 10.1636Z" fill="#034D7F"/>
<path d="M73.3186 4.83228C71.7012 4.83228 70.3833 6.15016 70.3833 7.76756C70.3833 9.40492 71.6612 10.7028 73.3186 10.7028C74.9559 10.7028 76.2539 9.42489 76.2539 7.76756C76.2539 6.15016 74.936 4.83228 73.3186 4.83228ZM73.3186 9.90412C72.1405 9.90412 71.182 8.94566 71.182 7.76756C71.182 6.58945 72.1405 5.61102 73.3186 5.61102C74.4967 5.61102 75.4751 6.56948 75.4751 7.76756C75.4751 8.94566 74.5167 9.90412 73.3186 9.90412Z" fill="#034D7F"/>
<path d="M81.9048 8.34659C82.5837 8.0271 83.023 7.38813 83.023 6.68925C83.023 5.71082 82.2043 4.91211 81.2059 4.91211H79.1492C79.0095 4.91211 78.8896 5.03192 78.8896 5.17169V10.3434C78.8896 10.4832 79.0095 10.603 79.1492 10.603H79.4487C79.5885 10.603 79.7283 10.4832 79.7283 10.3434V8.46639H81.0262L82.0246 10.4632C82.0645 10.5231 82.1444 10.603 82.2642 10.603H82.6636C82.7634 10.603 82.8433 10.563 82.9032 10.4832C82.9431 10.4033 82.9631 10.3034 82.9032 10.2036L81.9048 8.34659ZM79.7483 5.71083H81.146C81.6852 5.71083 82.1444 6.17009 82.1444 6.68925C82.1444 7.24835 81.6852 7.70761 81.146 7.70761H79.7483V5.71083Z" fill="#034D7F"/>
<path d="M89.5724 5.67089C89.7122 5.67089 89.852 5.55108 89.852 5.41131V5.17169C89.852 5.03192 89.7322 4.91211 89.5724 4.91211H86.4974C86.3576 4.91211 86.2378 5.03192 86.2378 5.17169V10.3434C86.2378 10.4832 86.3576 10.603 86.4974 10.603H89.5724C89.7122 10.603 89.852 10.4832 89.852 10.3434V10.1237C89.852 9.98395 89.7322 9.86415 89.5724 9.86415H87.0565V8.10697H89.1731C89.3128 8.10697 89.4526 7.98717 89.4526 7.84739V7.62774C89.4526 7.48797 89.3328 7.36816 89.1731 7.36816H87.0565V5.71083H89.5724V5.67089Z" fill="#034D7F"/>
<path d="M97.2197 10.2435L94.8635 4.972C94.8236 4.87216 94.7237 4.81226 94.6239 4.81226H94.544C94.4442 4.81226 94.3443 4.87216 94.3044 4.972L91.9282 10.2435C91.8883 10.3234 91.8883 10.4232 91.9482 10.5031C91.9881 10.583 92.088 10.6229 92.1878 10.6229H92.5073C92.6271 10.6229 92.7269 10.543 92.7469 10.4632L93.286 9.24513H95.9018L96.441 10.4632C96.4809 10.543 96.5608 10.6229 96.6806 10.6229H97.0001C97.0999 10.6229 97.1798 10.583 97.2197 10.5031C97.2597 10.4232 97.2597 10.3234 97.2197 10.2435ZM93.5856 8.52628L94.564 6.30985C94.7237 6.66927 95.3827 8.16686 95.5424 8.52628H93.5856Z" fill="#034D7F"/>
<path d="M66.6692 14.2771H64.9319C64.7922 14.2771 64.6724 14.3969 64.6724 14.5567V19.7283C64.6724 19.8681 64.7922 19.9879 64.9319 19.9879H65.2315C65.3712 19.9879 65.511 19.8681 65.511 19.7283V18.0111H66.6891C67.7075 18.0111 68.5461 17.1724 68.5461 16.1341C68.5461 15.1158 67.7075 14.2771 66.6692 14.2771ZM65.511 17.1924V15.1158H66.6292C67.2083 15.1158 67.6875 15.555 67.6875 16.1141C67.6875 16.7132 67.2083 17.1924 66.6292 17.1924H65.511Z" fill="#034D7F"/>
<path d="M74.277 19.2292H72.1404V14.5567C72.1404 14.4169 72.0206 14.2971 71.8808 14.2971H71.5613C71.4216 14.2971 71.3018 14.4169 71.3018 14.5567V19.7284C71.3018 19.8682 71.4216 19.988 71.5613 19.988H74.257C74.3968 19.988 74.5166 19.8682 74.5166 19.7284V19.5087C74.5365 19.349 74.4167 19.2292 74.277 19.2292Z" fill="#034D7F"/>
<path d="M82.0644 19.6285L79.7082 14.357C79.6682 14.2572 79.5684 14.1973 79.4686 14.1973H79.3887C79.2889 14.1973 79.189 14.2572 79.1491 14.357L76.7529 19.6285C76.713 19.7084 76.713 19.8082 76.7729 19.8881C76.8128 19.968 76.9127 20.0079 77.0125 20.0079H77.332C77.4518 20.0079 77.5516 19.9281 77.5716 19.8482L78.1107 18.6301H80.7265L81.2657 19.8482C81.3056 19.9281 81.3855 20.0079 81.5053 20.0079H81.8248C81.9246 20.0079 82.0045 19.968 82.0644 19.8881C82.1043 19.8082 82.1043 19.7084 82.0644 19.6285ZM78.4302 17.8913L79.4087 15.6749C79.5684 16.0343 80.2273 17.5319 80.3871 17.8913H78.4302Z" fill="#034D7F"/>
<path d="M86.078 16.6933C85.3792 16.3937 85.0996 16.1142 85.0996 15.6949C85.0996 15.4153 85.2993 14.956 86.0581 14.956C86.2378 14.956 86.5572 15.0159 86.9965 15.2755L87.0165 15.2955C87.0764 15.3354 87.1363 15.3554 87.1962 15.3554C87.356 15.3554 87.4358 15.2356 87.4558 15.1957L87.4957 15.1158C87.5157 15.0958 87.5357 15.0559 87.5357 15.0359C87.5956 14.9161 87.5956 14.8362 87.5756 14.7763C87.5556 14.6765 87.4758 14.6366 87.4558 14.6166C87.4358 14.5966 86.8368 14.1973 86.0581 14.1973C84.7402 14.1973 84.2809 15.0958 84.2809 15.7148C84.2809 16.7332 84.9399 17.0926 85.7386 17.452C86.697 17.8514 87.0365 18.1509 87.0365 18.5702C87.0365 18.9896 86.6371 19.309 86.118 19.309C85.7186 19.309 85.2993 19.1094 84.88 18.7499C84.8201 18.69 84.7601 18.6701 84.7002 18.6701C84.5804 18.6701 84.4806 18.7699 84.4407 18.8298C84.4207 18.8498 84.4007 18.8897 84.3808 18.9097C84.3608 18.9297 84.3408 18.9496 84.3208 18.9896C84.1811 19.2292 84.3209 19.349 84.3808 19.4089C84.5006 19.5287 85.1595 20.0678 86.118 20.0678C87.1363 20.0678 87.935 19.3889 87.935 18.5303C87.8951 17.5319 87.0565 17.1126 86.078 16.6933Z" fill="#034D7F"/>
<path d="M93.7456 14.2771H90.4309C90.2911 14.2771 90.1514 14.3969 90.1514 14.5567V14.7763C90.1514 14.9161 90.2712 15.0359 90.4309 15.0359H91.6689V19.7084C91.6689 19.8481 91.7887 19.9679 91.9285 19.9679H92.228C92.3678 19.9679 92.4876 19.8481 92.4876 19.7084V15.0558H93.7256C93.8654 15.0558 93.9852 14.936 93.9852 14.7963V14.5567C94.0052 14.3969 93.8854 14.2771 93.7456 14.2771Z" fill="#034D7F"/>
<path d="M97.6592 14.2771H97.3397C97.1999 14.2771 97.0801 14.3969 97.0801 14.5367V19.7084C97.0801 19.8481 97.1999 19.9679 97.3397 19.9679H97.6592C97.7989 19.9679 97.9187 19.8481 97.9187 19.7084V14.5567C97.9387 14.4169 97.8189 14.2771 97.6592 14.2771Z" fill="#034D7F"/>
<path d="M106.066 18.8897L105.826 18.6701C105.727 18.6102 105.607 18.6102 105.507 18.69C105.088 19.0095 104.708 19.2491 104.089 19.2491C102.951 19.2491 102.032 18.2907 102.032 17.1325C102.032 15.9544 102.951 14.996 104.089 14.996C104.568 14.996 105.108 15.1957 105.507 15.5551C105.647 15.6949 105.786 15.6749 105.886 15.5551L106.106 15.3354C106.166 15.2755 106.186 15.2156 106.186 15.1557C106.186 15.0759 106.146 15.0159 106.086 14.956C105.467 14.4369 104.868 14.1973 104.109 14.1973C102.492 14.1973 101.174 15.5151 101.174 17.1325C101.174 18.7499 102.492 20.0678 104.109 20.0678C104.868 20.0678 105.567 19.7883 106.086 19.2691C106.146 19.2092 106.166 19.1293 106.166 19.0495C106.146 18.9896 106.106 18.9297 106.066 18.8897Z" fill="#034D7F"/>
<path d="M69.0255 23.6619H68.7259C68.5862 23.6619 68.4664 23.7817 68.4664 23.9214V26.078H65.5311V23.9414C65.5311 23.8016 65.4113 23.6818 65.2715 23.6818H64.972C64.8322 23.6818 64.7124 23.8016 64.7124 23.9414V29.1131C64.7124 29.2529 64.8322 29.3727 64.972 29.3727H65.2715C65.4113 29.3727 65.5311 29.2529 65.5311 29.1131V26.8567H68.4664V29.1131C68.4664 29.2529 68.5862 29.3727 68.7259 29.3727H69.0255C69.1652 29.3727 69.305 29.2529 69.305 29.1131V23.9414C69.2851 23.7817 69.1652 23.6619 69.0255 23.6619Z" fill="#034D7F"/>
<path d="M74.6765 23.582C73.0591 23.582 71.7412 24.8999 71.7412 26.5173C71.7412 28.1547 73.0192 29.4526 74.6765 29.4526C76.3139 29.4526 77.6118 28.1746 77.6118 26.5173C77.6118 24.8999 76.2939 23.582 74.6765 23.582ZM74.6765 28.6738C73.4984 28.6738 72.5399 27.7154 72.5399 26.5373C72.5399 25.3592 73.4984 24.3807 74.6765 24.3807C75.8546 24.3807 76.8131 25.3392 76.8131 26.5373C76.8131 27.7154 75.8546 28.6738 74.6765 28.6738Z" fill="#034D7F"/>
<path d="M81.9248 26.078C81.2259 25.7785 80.9463 25.4989 80.9463 25.0796C80.9463 24.8001 81.146 24.3408 81.9048 24.3408C82.0845 24.3408 82.404 24.4007 82.8433 24.6603L82.8632 24.6803C82.9232 24.7202 82.9831 24.7402 83.043 24.7402C83.2027 24.7402 83.2826 24.6204 83.3025 24.5804L83.4024 24.4207C83.4822 24.3208 83.4623 24.221 83.4423 24.1611C83.4223 24.0812 83.3624 24.0014 83.3225 24.0014C83.3025 23.9814 82.7035 23.582 81.9248 23.582C80.6069 23.582 80.1476 24.4806 80.1476 25.0996C80.1476 26.118 80.8066 26.4774 81.6053 26.8368C82.5637 27.2362 82.9032 27.5357 82.9032 27.955C82.9032 28.3743 82.5038 28.6938 81.9847 28.6938C81.4455 28.6938 80.9863 28.3544 80.7466 28.1347C80.6867 28.0748 80.6268 28.0548 80.5669 28.0548C80.4471 28.0548 80.3473 28.1547 80.3074 28.2146C80.2874 28.2346 80.2674 28.2745 80.2475 28.2945C80.2275 28.3144 80.2075 28.3344 80.1876 28.3743C80.0478 28.6139 80.1875 28.7337 80.2475 28.7937C80.3673 28.9135 81.0262 29.4526 81.9847 29.4526C83.003 29.4526 83.8017 28.7737 83.8017 27.9151C83.7219 26.8967 82.9032 26.4774 81.9248 26.078Z" fill="#034D7F"/>
<path d="M88.6335 23.6619H86.8963C86.7565 23.6619 86.6367 23.7817 86.6367 23.9414V29.1131C86.6367 29.2529 86.7565 29.3727 86.8963 29.3727H87.1958C87.3356 29.3727 87.4754 29.2529 87.4754 29.1131V27.3959H88.6535C89.6718 27.3959 90.5105 26.5572 90.5105 25.5189C90.5105 24.5005 89.6718 23.6619 88.6335 23.6619ZM87.4754 26.5772V24.5005H88.5936C89.1726 24.5005 89.6519 24.9398 89.6519 25.4989C89.6519 26.0979 89.1726 26.5772 88.5936 26.5772H87.4754Z" fill="#034D7F"/>
<path d="M94.2846 23.6619H93.9652C93.8254 23.6619 93.7056 23.7817 93.7056 23.9214V29.0931C93.7056 29.2329 93.8254 29.3527 93.9652 29.3527H94.2846C94.4244 29.3527 94.5442 29.2329 94.5442 29.0931V23.9414C94.5642 23.7817 94.4244 23.6619 94.2846 23.6619Z" fill="#034D7F"/>
<path d="M101.213 23.6619H97.8987C97.759 23.6619 97.6392 23.7817 97.6392 23.9214V24.1411C97.6392 24.2809 97.759 24.4007 97.8987 24.4007H99.1368V29.0732C99.1368 29.2129 99.2566 29.3327 99.3963 29.3327H99.6959C99.8356 29.3327 99.9554 29.2129 99.9554 29.0732V24.4007H101.193C101.333 24.4007 101.453 24.2809 101.453 24.1411V23.9414C101.493 23.7817 101.373 23.6619 101.213 23.6619Z" fill="#034D7F"/>
<path d="M108.122 29.0133L105.746 23.7418C105.706 23.6419 105.607 23.582 105.507 23.582H105.427C105.327 23.582 105.227 23.6419 105.187 23.7418L102.811 28.9933C102.771 29.0732 102.771 29.173 102.831 29.2529C102.871 29.3328 102.971 29.3727 103.071 29.3727H103.39C103.51 29.3727 103.61 29.2928 103.63 29.213L104.169 27.9949H106.785L107.324 29.213C107.364 29.2928 107.444 29.3727 107.563 29.3727H107.883C107.983 29.3727 108.063 29.3328 108.103 29.2529C108.162 29.193 108.162 29.0932 108.122 29.0133ZM104.488 27.2761L105.467 25.0597C105.627 25.4191 106.285 26.9167 106.445 27.2761H104.488Z" fill="#034D7F"/>
<path d="M113.614 28.614H111.477V23.9415C111.477 23.8017 111.358 23.6819 111.218 23.6819H110.898C110.758 23.6819 110.639 23.8017 110.639 23.9415V29.1132C110.639 29.2529 110.758 29.3727 110.898 29.3727H113.594C113.734 29.3727 113.854 29.2529 113.854 29.1132V28.8935C113.873 28.7338 113.754 28.614 113.614 28.614Z" fill="#034D7F"/>
<path d="M47.8594 30.4509C47.7795 30.3711 47.6797 30.3111 47.5998 30.2313C45.6629 28.6139 44.8242 26.1578 45.4832 23.7417C47.1605 17.5916 53.6501 14.2769 52.452 5.43115C53.2906 12.8193 46.7212 18.0309 44.7044 21.3256C40.3115 28.4741 44.5647 34.3247 49.8761 34.3247C49.9161 34.3247 49.8162 33.2664 49.7164 32.6873C49.5167 31.6091 48.6182 31.0699 47.8594 30.4509Z" fill="#8AC042"/>
<path d="M59.321 14.956C59.321 14.956 57.4839 12.9991 56.8849 12.2403C56.2858 11.4815 56.2858 9.92404 56.3857 8.02709C56.4655 6.68924 55.2076 3.03512 51.6333 0.778748C50.9544 0.359422 50.595 0.219647 49.9161 0C50.3953 0.239615 51.194 1.15814 51.4536 1.59743C51.833 2.29631 52.1125 3.03512 52.3122 3.7939C53.1908 7.24835 52.9512 10.4831 51.5734 13.7778C50.3753 16.6333 48.2987 18.9895 46.861 21.7251C45.1238 25.0397 46.242 29.4127 49.8961 29.4127C50.3154 27.5357 50.3953 25.7186 52.8713 25.7186C54.6884 25.7186 56.6852 25.8385 57.3641 24.9199C58.1828 23.8417 57.5238 22.5837 57.5438 21.9247C57.5638 21.2658 58.0031 21.4056 58.3026 21.0062C58.5821 20.6069 57.5238 19.908 57.5238 19.908C57.5238 19.908 58.023 19.6883 58.3825 19.289C58.642 18.9895 58.3026 18.7698 58.2627 18.63C58.043 18.1109 57.9432 17.2922 57.9432 17.2922C58.3226 16.8329 59.3409 16.4735 59.6005 15.9543C59.8401 15.4352 59.321 14.956 59.321 14.956Z" fill="#8AC042"/>
</svg>
