<svg width="216" height="37" viewBox="0 0 216 37" fill="none" xmlns="http://www.w3.org/2000/svg">
<path d="M70.9588 21.8528C71.0299 20.0953 71.5509 19.124 71.5509 19.124H77.2115C77.2115 19.124 77.7563 20.0953 77.8036 21.8528V22.0147C77.7326 23.7722 77.2115 24.7434 77.2115 24.7434H71.5509C71.5509 24.7434 71.0062 23.7722 70.9588 22.0147V21.8528ZM69.9641 27.0559H79.3905C79.3905 27.0559 80.3379 25.2984 80.4563 22.084V21.7834C80.3379 18.5921 79.3905 16.8115 79.3905 16.8115H74.1562L68.4956 19.679C68.4719 19.7947 68.4482 19.9103 68.4482 20.049L69.9641 27.0559Z" fill="white"/>
<path d="M27.7816 21.8528C27.8526 20.0953 28.3737 19.124 28.3737 19.124H34.0343C34.0343 19.124 34.5791 20.0953 34.6264 21.8528V22.0147C34.5554 23.7722 34.0343 24.7434 34.0343 24.7434H28.3737C28.3737 24.7434 27.8289 23.7722 27.7816 22.0147V21.8528ZM25.1289 21.7834V22.084C25.2473 25.2753 26.1947 27.0559 26.1947 27.0559H36.237C36.237 27.0559 37.1844 25.2984 37.3028 22.084V21.7834C37.1844 18.5921 36.237 16.8115 36.237 16.8115H26.1947C26.1947 16.8346 25.2473 18.5921 25.1289 21.7834Z" fill="white"/>
<path d="M37.8721 16.8354L40.5011 15.5635V27.0566H37.8721V16.8354Z" fill="white"/>
<path d="M9.18961 16.835V23.5875L2.9132 16.835H0V27.0562H2.62899V20.1881L8.97645 27.0562H11.8186V16.835H9.18961Z" fill="white"/>
<path d="M12.4111 21.7834V22.084C12.5296 25.2753 13.4769 27.0559 13.4769 27.0559H23.4955C23.4955 27.0559 24.4429 25.2984 24.5613 22.084V21.7834C24.5376 21.3903 24.5139 20.9972 24.4903 20.6503H19.5402L17.6928 23.2172H21.7902C21.7192 23.749 21.5534 24.2578 21.3165 24.7434H15.6559C15.6559 24.7434 15.1112 23.7722 15.0638 22.0147V21.8528C15.1349 20.0953 15.6559 19.124 15.6559 19.124H24.2534C24.1113 18.3146 23.8508 17.5515 23.5192 16.8115H13.4533C13.4533 16.8115 12.5059 18.5921 12.4111 21.7834Z" fill="white"/>
<path d="M50.472 24.7434H42.3956C42.5377 25.5528 42.7982 26.3159 43.1298 27.0559H48.8852L50.472 24.7434ZM41.8271 21.7834V22.084C41.8508 22.4772 41.8745 22.8703 41.8982 23.2172H51.5378L53.1958 20.6503H44.5982C44.6693 20.1184 44.8351 19.6096 45.0719 19.124H53.0536L50.8747 16.8115H42.893C42.893 16.8115 41.9456 18.5921 41.8271 21.7834Z" fill="white"/>
<path d="M60.1826 16.2108V20.3964L58.1695 19.2864L60.1826 16.2108ZM50.1167 14.7771L54.9957 19.9108L50.0693 27.0796H53.0536L56.63 21.6221L65.6301 31.1033L61.6985 10.6377L56.2984 18.0377L50.1167 14.7771Z" fill="white"/>
<path d="M31.1694 13.8516C31.1694 13.8516 30.4352 15.0078 29.6062 15.3778C28.7772 15.7478 27.6641 16.1409 27.6641 16.1409H34.6747C34.6747 16.1409 33.5615 15.7478 32.7326 15.3778C31.9036 15.0078 31.1694 13.8516 31.1694 13.8516Z" fill="white"/>
<path d="M91.1854 6.98375L64.9192 9.75875L63.1665 0L57.4112 10.5681L47.1084 11.655L48.1505 12.7419L55.7296 16.6038L61.0823 9.62C61.0823 9.62 62.456 7.79313 62.8586 10.1981L67.0745 32.93L70.8877 37L67.3113 19.2169L91.1854 6.98375Z" fill="white"/>
<path d="M90.7123 24.7668H85.028C85.028 24.7668 84.4832 23.7956 84.4359 22.0381V21.8762C84.5069 20.1187 85.028 19.1475 85.028 19.1475H93.6255C93.4834 18.3381 93.2229 17.575 92.8913 16.835H82.849C82.849 16.835 81.9016 18.6156 81.7832 21.83V22.1306C81.9016 25.3218 82.849 27.1025 82.849 27.1025H92.8913C92.8913 27.1025 93.3176 26.2931 93.6255 24.79H90.7123V24.7668Z" fill="white"/>
<path d="M107.386 16.7422H103.904C105.444 18.8003 105.515 21.4828 105.538 21.7834V21.9684C105.467 23.7259 104.852 24.7203 104.852 24.7203H98.22C98.22 24.7203 97.6041 23.7491 97.5331 21.9684V21.8066C97.5568 21.4828 97.5094 18.9391 99.1673 16.7653H95.6857C95.6857 16.7653 94.5725 18.5459 94.4541 21.7603V22.0609C94.5725 25.2753 95.6857 27.0559 95.6857 27.0559H107.41C107.41 27.0559 108.523 25.2753 108.641 22.0609V21.7372C108.499 18.5228 107.386 16.7422 107.386 16.7422Z" fill="white"/>
<path d="M101.512 13.8516C102.175 13.8516 102.625 13.8978 102.815 13.9903C103.075 14.1059 103.217 14.4066 103.217 14.8459C103.217 15.1234 103.146 15.3547 103.004 15.5166C102.886 15.6784 102.72 15.7709 102.531 15.7941C102.175 15.8634 101.986 15.9097 101.891 15.9328C101.82 15.9559 101.773 16.0253 101.773 16.1178H100.802V15.7941C100.802 15.6091 100.873 15.4703 100.991 15.4009C101.133 15.3084 101.346 15.2391 101.702 15.1928C101.915 15.1466 102.033 15.1234 102.104 15.1003C102.223 15.0541 102.294 14.9616 102.294 14.8691C102.294 14.7303 102.27 14.6609 102.199 14.6378C102.128 14.6147 101.891 14.6147 101.488 14.6147C101.086 14.6147 100.849 14.6378 100.778 14.6841C100.707 14.7303 100.683 14.8922 100.683 15.1466H99.7832C99.7832 14.5222 99.8779 14.1522 100.067 14.0366C100.257 13.9209 100.731 13.8516 101.512 13.8516Z" fill="white"/>
<path d="M118.968 16.7422H115.723L109.139 27.0097H113.094L114.136 25.2059H120.863L121.905 27.0097H125.86L118.968 16.7422ZM115.581 22.5003L117.499 19.0547L119.418 22.5003H115.581Z" fill="white"/>
<path d="M150.61 14.7305V14.7998C150.61 15.2392 150.492 15.5861 150.279 15.8173C150.065 16.0486 149.71 16.1642 149.26 16.1642H147.602C146.702 16.1642 146.229 15.7017 146.229 14.7536H146.915C146.915 15.1236 147.2 15.3086 147.744 15.3086H149.142C149.402 15.3086 149.568 15.2855 149.686 15.2392C149.852 15.1698 149.947 15.008 149.947 14.7998C149.947 14.7767 149.947 14.7536 149.947 14.7536H150.61V14.7305Z" fill="white"/>
<path d="M136.589 16.7656V23.5181L130.313 16.7656H127.399V26.9869H130.052V20.1188L136.4 26.9869H139.242V16.7656H136.589Z" fill="white"/>
<path d="M149.899 16.7197H146.655L140.07 26.9872H144.002L145.044 25.1835H151.77L152.813 26.9872H156.792L149.899 16.7197ZM146.513 22.4547L148.431 19.0091L150.349 22.4547H146.513Z" fill="white"/>
<path d="M173.608 16.7422H173.371H173.348L167 23.5872L160.653 16.7422H160.629H160.392H158V26.9866H160.629V20.3728L166.692 26.9634H167.308L173.371 20.3728V26.9866H176V16.7422H173.608Z" fill="white"/>
<path d="M182.166 17.9985V19.3535H180.664V17.9985C180.664 17.7935 180.703 17.6006 180.781 17.4199C180.859 17.2344 180.967 17.0757 181.104 16.9438C181.24 16.8071 181.399 16.6997 181.58 16.6216C181.765 16.5386 181.96 16.4971 182.166 16.4971H186.919C187.124 16.4971 187.317 16.5386 187.498 16.6216C187.683 16.6997 187.842 16.8071 187.974 16.9438C188.11 17.0757 188.218 17.2344 188.296 17.4199C188.379 17.6006 188.42 17.7935 188.42 17.9985V19.9175C188.42 20.1226 188.401 20.3057 188.362 20.4668C188.323 20.6279 188.259 20.7744 188.171 20.9062C188.088 21.0332 187.981 21.1479 187.849 21.2505C187.717 21.353 187.556 21.4507 187.366 21.5435L182.166 23.9824V25.4985H187.109V24.1509H188.611V27H180.664V24.2388C180.664 24.0337 180.684 23.8506 180.723 23.6895C180.767 23.5283 180.83 23.3843 180.913 23.2573C180.996 23.1304 181.104 23.0156 181.235 22.9131C181.372 22.8057 181.531 22.708 181.711 22.6201L186.919 20.1738V17.9985H182.166Z" fill="white"/>
<path d="M199.421 25.4985C199.421 25.7036 199.382 25.8989 199.304 26.0845C199.226 26.2651 199.119 26.4238 198.982 26.5605C198.845 26.6973 198.684 26.8047 198.499 26.8828C198.318 26.9609 198.125 27 197.92 27H192.668C192.463 27 192.268 26.9609 192.083 26.8828C191.902 26.8047 191.743 26.6973 191.606 26.5605C191.47 26.4238 191.362 26.2651 191.284 26.0845C191.206 25.8989 191.167 25.7036 191.167 25.4985V17.9985C191.167 17.7935 191.206 17.6006 191.284 17.4199C191.362 17.2344 191.47 17.0757 191.606 16.9438C191.743 16.8071 191.902 16.6997 192.083 16.6216C192.268 16.5386 192.463 16.4971 192.668 16.4971H197.92C198.125 16.4971 198.318 16.5386 198.499 16.6216C198.684 16.6997 198.845 16.8071 198.982 16.9438C199.119 17.0757 199.226 17.2344 199.304 17.4199C199.382 17.6006 199.421 17.7935 199.421 17.9985V25.4985ZM192.668 17.9985V25.4985H197.92V17.9985H192.668Z" fill="white"/>
<path d="M204.526 16.4971V27H203.025V17.9985H201.223V16.4971H204.526Z" fill="white"/>
<path d="M215.183 25.4985C215.183 25.7036 215.144 25.8989 215.066 26.0845C214.988 26.2651 214.88 26.4238 214.744 26.5605C214.607 26.6973 214.446 26.8047 214.26 26.8828C214.08 26.9609 213.887 27 213.682 27H208.884C208.679 27 208.484 26.9609 208.298 26.8828C208.118 26.8047 207.959 26.6973 207.822 26.5605C207.686 26.4238 207.578 26.2651 207.5 26.0845C207.422 25.8989 207.383 25.7036 207.383 25.4985V24.1509H208.884V25.4985H213.682V22.5029H208.884C208.679 22.5029 208.484 22.4639 208.298 22.3857C208.118 22.3027 207.959 22.1953 207.822 22.0635C207.686 21.9268 207.578 21.7681 207.5 21.5874C207.422 21.4019 207.383 21.2065 207.383 21.0015V17.9985C207.383 17.7935 207.422 17.6006 207.5 17.4199C207.578 17.2344 207.686 17.0757 207.822 16.9438C207.959 16.8071 208.118 16.6997 208.298 16.6216C208.484 16.5386 208.679 16.4971 208.884 16.4971H213.682C213.887 16.4971 214.08 16.5386 214.26 16.6216C214.446 16.6997 214.607 16.8071 214.744 16.9438C214.88 17.0757 214.988 17.2344 215.066 17.4199C215.144 17.6006 215.183 17.7935 215.183 17.9985V25.4985ZM213.682 21.0015V17.9985H208.884V21.0015H213.682Z" fill="white"/>
</svg>
