<svg width="111" height="47" viewBox="0 0 111 47" fill="none" xmlns="http://www.w3.org/2000/svg">
<path fill-rule="evenodd" clip-rule="evenodd" d="M85.2076 34.3509H96.7054C96.7054 34.3509 97.8862 32.1799 98.0105 28.1481V27.776C97.8862 23.8062 96.7054 21.5732 96.7054 21.5732H90.3661L83.4674 25.1708C83.4674 25.2949 83.4053 25.481 83.4053 25.605L85.2076 34.3509ZM86.3885 27.9C86.4506 25.7291 87.1343 24.4885 87.1343 24.4885H94.0329C94.0329 24.4885 94.6544 25.6671 94.7787 27.9V28.0861C94.7166 30.2571 94.0329 31.4976 94.0329 31.4976H87.1343C87.1343 31.4976 86.4506 30.3191 86.3885 28.0861V27.9Z" fill="#222222"/>
<path fill-rule="evenodd" clip-rule="evenodd" d="M30.5776 27.776V28.1481C30.7019 32.1179 31.8828 34.3509 31.8828 34.3509H44.1263C44.1263 34.3509 45.3072 32.1799 45.4315 28.1481V27.776C45.3072 23.8062 44.1263 21.5732 44.1263 21.5732H31.8828C31.8828 21.6353 30.7641 23.8062 30.5776 27.776ZM33.8094 27.9C33.8716 25.7291 34.5552 24.4885 34.5552 24.4885H41.4539C41.4539 24.4885 42.0754 25.6671 42.1997 27.9V28.0861C42.1375 30.2571 41.4539 31.4976 41.4539 31.4976H34.5552C34.5552 31.4976 33.9337 30.3191 33.8094 28.0861V27.9Z" fill="#222222"/>
<path fill-rule="evenodd" clip-rule="evenodd" d="M46.1157 21.6352L49.2854 20.0225V34.3508H46.1157V21.6352Z" fill="#222222"/>
<path fill-rule="evenodd" clip-rule="evenodd" d="M11.187 21.6348V30.0085L3.54255 21.6348H0V34.3504H3.2318V25.7906L10.9384 34.3504H14.4188V21.6348H11.187Z" fill="#222222"/>
<path fill-rule="evenodd" clip-rule="evenodd" d="M15.1025 27.776V28.1481C15.2268 32.1179 16.4077 34.3509 16.4077 34.3509H28.5891C28.5891 34.3509 29.7699 32.1799 29.8942 28.1481V27.776C29.8942 27.2798 29.8321 26.7835 29.8321 26.3494H23.8035L21.5661 29.5128H26.5381C26.3517 30.7533 25.9788 31.4356 25.9788 31.4356H19.018C19.018 31.4356 18.3965 30.2571 18.2722 28.0241V27.838C18.3343 25.6671 19.018 24.4265 19.018 24.4265H29.4592C29.0863 22.5657 28.5269 21.5732 28.5269 21.5732H16.4077C16.4077 21.6353 15.2268 23.8062 15.1025 27.776Z" fill="#222222"/>
<path fill-rule="evenodd" clip-rule="evenodd" d="M50.9009 27.7755V28.1476C50.9009 28.6439 50.963 29.1401 51.0252 29.5743H62.7715L64.7603 26.4109H54.257C54.4434 25.1703 54.8163 24.488 54.8163 24.488H64.5739L61.9014 21.6348H52.206C52.206 21.6348 51.0252 23.8057 50.9009 27.7755ZM61.4664 31.4971H51.6467C52.0196 33.358 52.5789 34.3504 52.5789 34.3504H59.6019L61.4664 31.4971Z" fill="#222222"/>
<path fill-rule="evenodd" clip-rule="evenodd" d="M0 38.383V35.8398H0.4972V36.8323H1.42945V35.8398H1.92665V36.8323H1.42945V37.3905H1.92665V38.383H1.42945V37.3905H0.4972V38.383H0Z" fill="#222222"/>
<path fill-rule="evenodd" clip-rule="evenodd" d="M4.53711 35.8398H6.52591V38.383H5.96656V36.3361H5.03431V38.383H4.53711V35.8398Z" fill="#222222"/>
<path fill-rule="evenodd" clip-rule="evenodd" d="M10.5653 37.8247V36.274H9.57093V37.8247H10.5653ZM11.0004 35.8398V38.383H9.07373V35.8398H11.0004Z" fill="#222222"/>
<path fill-rule="evenodd" clip-rule="evenodd" d="M17.3396 38.383H13.9214V35.8398H14.4186V37.8247H15.413V35.8398H15.9102V37.8247H16.8424V35.8398H17.3396V38.383Z" fill="#222222"/>
<path fill-rule="evenodd" clip-rule="evenodd" d="M25.4193 36.3361H23.9899V36.8323H24.9221V37.3905H23.9899V37.8247H25.4193V38.383H23.4927V35.8398H25.4193V36.3361Z" fill="#222222"/>
<path fill-rule="evenodd" clip-rule="evenodd" d="M28.0918 38.383V37.8247H27.6567V35.8398H28.0918V37.8247H29.0862V35.8398H29.5834V37.8247H29.0862V38.383H28.0918Z" fill="#222222"/>
<path fill-rule="evenodd" clip-rule="evenodd" d="M34.1201 36.3361H32.6285V36.8323H33.6229V37.3905H32.6285V37.8247H34.1201V38.383H32.1313V35.8398H34.1201V36.3361Z" fill="#222222"/>
<path fill-rule="evenodd" clip-rule="evenodd" d="M38.6573 38.383H38.1601V37.3905H37.2278V38.383H36.6685V35.8398H38.5951V36.8323H38.0979V37.3905H38.5951V38.383H38.6573ZM38.1601 36.8323V36.274H37.2278V36.8323H38.1601Z" fill="#222222"/>
<path fill-rule="evenodd" clip-rule="evenodd" d="M42.697 35.8398H43.1321V38.383H41.2676V37.8247H42.697V37.3905H41.2676V35.8398H41.7026V36.8323H42.697V35.8398Z" fill="#222222"/>
<path fill-rule="evenodd" clip-rule="evenodd" d="M47.1716 35.8398V36.3361H46.7366V38.383H46.2394V36.3361H45.7422V35.8398H47.1716Z" fill="#222222"/>
<path fill-rule="evenodd" clip-rule="evenodd" d="M51.2112 35.8398H51.7084V38.383H51.2112V37.3905H50.2789V38.383H49.7817V35.8398H50.2789V36.8323H51.2112V35.8398Z" fill="#222222"/>
<path d="M54.7539 35.8398H54.3188V38.383H54.7539V35.8398Z" fill="#222222"/>
<path fill-rule="evenodd" clip-rule="evenodd" d="M57.7373 35.8398H59.664V38.383H59.1668V36.3361H58.2345V38.383H57.7373V35.8398Z" fill="#222222"/>
<path fill-rule="evenodd" clip-rule="evenodd" d="M62.7716 37.8247H63.7039V37.3905H63.2067V36.8323H64.2011V38.383H62.2744V35.8398H64.2011V36.3361H62.7716V37.8247Z" fill="#222222"/>
<path fill-rule="evenodd" clip-rule="evenodd" d="M81.9761 24.6125L86.3266 46.6943L57.3647 15.1843L69.919 13.8197L76.8798 0.669922L79.0551 12.8273L111 9.35376L81.9761 24.6125ZM81.728 41.67L58.9811 16.9211L59.5404 16.9831L67.8685 21.325L74.3943 12.6412C74.3943 12.6412 76.0723 10.4082 76.5695 13.3855L81.728 41.67Z" fill="#222222"/>
<path fill-rule="evenodd" clip-rule="evenodd" d="M61.0315 19.0916L66.9358 25.4805L60.9072 34.4124H64.5119L68.8624 27.6514L79.8008 39.4366L75.0153 13.9434L68.4274 23.1854L61.0315 19.0916ZM73.2751 20.8284V26.0387L70.8512 24.6121L73.2751 20.8284Z" fill="#222222"/>
<path fill-rule="evenodd" clip-rule="evenodd" d="M37.9739 18.2236C37.9739 18.2236 37.1038 19.6503 36.0472 20.1465C35.0528 20.6427 33.6855 21.0769 33.6855 21.0769H37.9739H42.2622C42.2622 21.0769 40.8949 20.5807 39.9005 20.1465C38.844 19.6503 37.9739 18.2236 37.9739 18.2236Z" fill="#222222"/>
</svg>
