<svg width="111" height="47" viewBox="0 0 111 47" fill="none" xmlns="http://www.w3.org/2000/svg">
<path fill-rule="evenodd" clip-rule="evenodd" d="M84.9863 33.681H96.4542C96.4542 33.681 97.6319 31.51 97.7559 27.4782V27.1061C97.6319 23.1363 96.4542 20.9033 96.4542 20.9033H90.1313L83.2506 24.5009C83.2506 24.625 83.1886 24.811 83.1886 24.9351L84.9863 33.681ZM86.1641 27.2301C86.226 25.0592 86.9079 23.8186 86.9079 23.8186H93.7887C93.7887 23.8186 94.4085 24.9971 94.5325 27.2301V27.4162C94.4705 29.5872 93.7887 30.8277 93.7887 30.8277H86.9079C86.9079 30.8277 86.226 29.6492 86.1641 27.4162V27.2301Z" fill="white"/>
<path fill-rule="evenodd" clip-rule="evenodd" d="M30.4981 27.1061V27.4782C30.6221 31.448 31.7999 33.681 31.7999 33.681H44.0116C44.0116 33.681 45.1894 31.51 45.3134 27.4782V27.1061C45.1894 23.1363 44.0116 20.9033 44.0116 20.9033H31.7999C31.7999 20.9653 30.6841 23.1363 30.4981 27.1061ZM33.7215 27.2301C33.7835 25.0592 34.4654 23.8186 34.4654 23.8186H41.3461C41.3461 23.8186 41.966 24.9971 42.09 27.2301V27.4162C42.028 29.5872 41.3461 30.8277 41.3461 30.8277H34.4654C34.4654 30.8277 33.8455 29.6492 33.7215 27.4162V27.2301Z" fill="white"/>
<path fill-rule="evenodd" clip-rule="evenodd" d="M45.9958 20.9653L49.1572 19.3525V33.6809H45.9958V20.9653Z" fill="white"/>
<path fill-rule="evenodd" clip-rule="evenodd" d="M11.1579 20.9653V29.339L3.53335 20.9653H0V33.681H3.22341V25.1212L10.91 33.681H14.3814V20.9653H11.1579Z" fill="white"/>
<path fill-rule="evenodd" clip-rule="evenodd" d="M15.0632 27.1061V27.4782C15.1871 31.448 16.3649 33.681 16.3649 33.681H28.5147C28.5147 33.681 29.6925 31.51 29.8165 27.4782V27.1061C29.8165 26.6098 29.7545 26.1136 29.7545 25.6794H23.7416L21.51 28.8428H26.4691C26.2831 30.0834 25.9112 30.7657 25.9112 30.7657H18.9685C18.9685 30.7657 18.3486 29.5872 18.2246 27.3542V27.1681C18.2866 24.9971 18.9685 23.7566 18.9685 23.7566H29.3825C29.0106 21.8958 28.4527 20.9033 28.4527 20.9033H16.3649C16.3649 20.9653 15.1871 23.1363 15.0632 27.1061Z" fill="white"/>
<path fill-rule="evenodd" clip-rule="evenodd" d="M50.7687 27.106V27.4782C50.7687 27.9744 50.8307 28.4707 50.8927 28.9048H62.6086L64.5922 25.7414H54.1161C54.3021 24.5009 54.674 23.8186 54.674 23.8186H64.4062L61.7407 20.9653H52.0705C52.0705 20.9653 50.8927 23.1363 50.7687 27.106ZM61.3068 30.8277H51.5126C51.8845 32.6885 52.4424 33.681 52.4424 33.681H59.4471L61.3068 30.8277Z" fill="white"/>
<path fill-rule="evenodd" clip-rule="evenodd" d="M0 37.7126V35.1694H0.495909V36.1619H1.42574V35.1694H1.92165V36.1619H1.42574V36.7201H1.92165V37.7126H1.42574V36.7201H0.495909V37.7126H0Z" fill="white"/>
<path fill-rule="evenodd" clip-rule="evenodd" d="M4.52505 35.1694H6.50869V37.7126H5.95079V35.6657H5.02096V37.7126H4.52505V35.1694Z" fill="white"/>
<path fill-rule="evenodd" clip-rule="evenodd" d="M10.5379 37.1543V35.6036H9.54605V37.1543H10.5379ZM10.9718 35.1694V37.7126H9.05014V35.1694H10.9718Z" fill="white"/>
<path fill-rule="evenodd" clip-rule="evenodd" d="M17.5129 37.5431H14.1035V35H14.5994V36.9849H15.5912V35H16.0872V36.9849H17.017V35H17.5129V37.5431Z" fill="white"/>
<path fill-rule="evenodd" clip-rule="evenodd" d="M25.3533 35.6657H23.9276V36.1619H24.8574V36.7201H23.9276V37.1543H25.3533V37.7126H23.4317V35.1694H25.3533V35.6657Z" fill="white"/>
<path fill-rule="evenodd" clip-rule="evenodd" d="M28.0189 37.7126V37.1543H27.585V35.1694H28.0189V37.1543H29.0107V35.1694H29.5066V37.1543H29.0107V37.7126H28.0189Z" fill="white"/>
<path fill-rule="evenodd" clip-rule="evenodd" d="M34.0317 35.6657H32.544V36.1619H33.5358V36.7201H32.544V37.1543H34.0317V37.7126H32.0481V35.1694H34.0317V35.6657Z" fill="white"/>
<path fill-rule="evenodd" clip-rule="evenodd" d="M38.5568 37.7126H38.0609V36.7201H37.1311V37.7126H36.5732V35.1694H38.4948V36.1619H37.9989V36.7201H38.4948V37.7126H38.5568ZM38.0609 36.1619V35.6036H37.1311V36.1619H38.0609Z" fill="white"/>
<path fill-rule="evenodd" clip-rule="evenodd" d="M42.5859 35.1694H43.0198V37.7126H41.1602V37.1543H42.5859V36.7201H41.1602V35.1694H41.5941V36.1619H42.5859V35.1694Z" fill="white"/>
<path fill-rule="evenodd" clip-rule="evenodd" d="M47.049 35.1694V35.6657H46.6151V37.7126H46.1192V35.6657H45.6233V35.1694H47.049Z" fill="white"/>
<path fill-rule="evenodd" clip-rule="evenodd" d="M51.0784 35.1694H51.5743V37.7126H51.0784V36.7201H50.1486V37.7126H49.6526V35.1694H50.1486V36.1619H51.0784V35.1694Z" fill="white"/>
<path d="M54.6116 35.1694H54.1777V37.7126H54.6116V35.1694Z" fill="white"/>
<path fill-rule="evenodd" clip-rule="evenodd" d="M57.5873 35.1694H59.509V37.7126H59.0131V35.6657H58.0832V37.7126H57.5873V35.1694Z" fill="white"/>
<path fill-rule="evenodd" clip-rule="evenodd" d="M62.6083 37.1543H63.5382V36.7201H63.0423V36.1619H64.0341V37.7126H62.1124V35.1694H64.0341V35.6657H62.6083V37.1543Z" fill="white"/>
<path fill-rule="evenodd" clip-rule="evenodd" d="M81.763 23.9426L86.1022 46.0244L57.2155 14.5144L69.7372 13.1498L76.6799 0L78.8495 12.1574L110.712 8.68384L81.763 23.9426ZM81.5155 41.0002L58.8277 16.2513L59.3856 16.3133L67.692 20.6552L74.2008 11.9714C74.2008 11.9714 75.8745 9.73837 76.3704 12.7157L81.5155 41.0002Z" fill="white"/>
<path fill-rule="evenodd" clip-rule="evenodd" d="M60.8731 18.4222L66.762 24.811L60.7491 33.743H64.3445L68.6837 26.982L79.5936 38.7672L74.8205 13.2739L68.2497 22.516L60.8731 18.4222ZM73.0848 20.159V25.3693L70.6673 23.9426L73.0848 20.159Z" fill="white"/>
<path fill-rule="evenodd" clip-rule="evenodd" d="M37.8752 17.5537C37.8752 17.5537 37.0073 18.9803 35.9535 19.4766C34.9617 19.9728 33.598 20.407 33.598 20.407H42.1524C42.1524 20.407 40.7886 19.9108 39.7968 19.4766C38.743 18.9803 37.8752 17.5537 37.8752 17.5537Z" fill="white"/>
</svg>
