<svg width="380" height="170" viewBox="0 0 380 170" fill="none" xmlns="http://www.w3.org/2000/svg">
<g clip-path="url(#clip0)">
<path d="M55.2902 59.9047L75.6836 47.6267L70.9637 60.0104L63.9975 59.581C63.9975 59.581 63.5312 59.5888 63.1083 59.558L55.2902 59.9047Z" fill="url(#paint0_linear)"/>
<path d="M86.5825 18.7229L53.2285 19.8303L77.4281 42.9131L86.5825 18.7229Z" fill="url(#paint1_linear)"/>
<path d="M93.7031 30.1557L110.846 14.9983L104.081 46.4504L93.7031 30.1557Z" fill="url(#paint2_linear)"/>
<path d="M110.843 15.0139L108.98 23.5564L120.88 22.823L110.843 15.0139Z" fill="url(#paint3_linear)"/>
<path d="M75.6868 47.6111L46.0658 72.5776L70.9627 60.0105L75.6868 47.6111Z" fill="url(#paint4_linear)"/>
<path d="M86.6547 18.8262L54.0955 5.52835L77.4663 42.9568L86.6547 18.8262Z" fill="url(#paint5_linear)"/>
<path d="M104.097 46.4547L70.963 60.0103L86.6544 18.8263L104.097 46.4547Z" fill="url(#paint6_linear)"/>
</g>
<path d="M73.7648 123.874C75.1659 125.522 76.8141 126.923 78.6273 128.077C80.0283 128.984 81.759 129.396 83.4073 129.478C84.7259 129.561 86.0446 129.148 87.0336 128.324C87.9401 127.583 88.5171 126.511 88.4346 125.275C88.5171 124.121 88.0226 122.967 87.1984 122.143C86.3743 121.401 84.4787 120.66 81.5942 119.918C77.6383 118.847 74.8362 117.446 73.1879 115.715C71.4572 113.819 70.5506 111.264 70.7155 108.627C70.5506 105.083 72.0341 101.622 74.589 99.1495C77.3087 96.677 80.9349 95.3584 84.726 95.4408C86.8688 95.4408 89.0116 95.7705 91.0719 96.3474C93.1323 96.9243 95.0278 97.9133 96.7585 99.0671L93.2971 106.979C92.1433 105.99 90.8247 105.166 89.4236 104.589C88.1874 104.094 86.8687 103.765 85.4677 103.765C84.3139 103.682 83.1601 104.012 82.2535 104.754C81.4294 105.331 81.0173 106.237 81.0173 107.226C81.0173 108.133 81.347 109.039 82.0887 109.699C83.4073 110.523 84.8084 111.182 86.2918 111.429L86.7863 111.594C91.3192 112.83 94.2861 114.149 95.6871 115.632C96.6761 116.621 97.4178 117.858 97.9123 119.259C98.4068 120.742 98.654 122.308 98.654 123.874C98.8189 127.747 97.253 131.538 94.4509 134.258C91.6488 136.895 87.8577 138.214 83.1601 138.214C80.5228 138.214 77.8856 137.72 75.4131 136.813C72.9407 135.742 70.633 134.176 68.7375 132.28L73.7648 123.874Z" fill="url(#paint7_linear)"/>
<path d="M105.494 136.978V96.4297H116.538V112.171H131.29V96.4297H142.334V136.978H131.29V120.495H116.538V136.978H105.494Z" fill="url(#paint8_linear)"/>
<path d="M146.784 136.978L160.795 96.4297H174.64L188.651 136.978H177.69L175.629 129.725H159.888L157.745 136.978H146.784ZM162.278 121.896H173.239L169.119 108.545C168.954 108.133 168.789 107.473 168.624 106.567C168.377 105.66 168.13 104.506 167.8 103.105C167.553 104.094 167.305 105.083 167.058 105.99C166.811 106.896 166.564 107.803 166.316 108.627L162.278 121.896Z" fill="url(#paint9_linear)"/>
<path d="M193.101 136.978V96.4301H204.639C207.771 96.3476 210.985 96.5125 214.117 97.0894C215.765 97.419 217.331 98.1608 218.732 99.1497C220.216 100.221 221.37 101.705 222.111 103.353C222.935 105.166 223.347 107.062 223.265 109.04C223.43 111.759 222.606 114.479 220.957 116.704C219.227 118.764 216.837 120.165 214.199 120.66L225.243 136.978H212.716L203.403 121.072V136.978H193.101ZM203.485 115.633H205.546C207.359 115.798 209.172 115.385 210.738 114.396C211.892 113.49 212.469 112.006 212.386 110.605C212.551 109.04 211.974 107.391 210.82 106.237C209.831 105.413 208.101 104.919 205.628 104.919H203.403L203.485 115.633Z" fill="url(#paint10_linear)"/>
<path d="M230.353 136.978V96.4297H241.561V136.978H230.353Z" fill="url(#paint11_linear)"/>
<path d="M251.039 96.4297H261.67L276.999 117.281C277.494 118.105 277.989 118.929 278.483 119.836C279.142 121.154 279.884 122.638 280.708 124.451C280.461 122.802 280.296 121.237 280.214 120C280.131 118.682 280.049 117.528 280.049 116.539V96.5121H290.68V137.06H280.049L264.72 116.127C264.143 115.303 263.648 114.479 263.236 113.572C262.577 112.253 261.835 110.77 261.011 109.039C261.258 110.77 261.423 112.253 261.505 113.572C261.588 114.891 261.67 116.044 261.67 117.033V137.06H251.039V96.4297Z" fill="url(#paint12_linear)"/>
<path d="M319.196 122.061V113.572H340.953C340.953 113.819 340.953 114.149 341.036 114.479C341.036 114.808 341.036 115.303 341.036 115.962C341.036 122.967 339.223 128.324 335.514 132.198C331.805 136.071 326.613 137.967 319.938 137.967C316.971 138.049 314.004 137.555 311.202 136.483C308.647 135.494 306.257 133.928 304.361 131.951C302.383 129.973 300.9 127.665 299.911 125.028C298.839 122.39 298.345 119.588 298.345 116.704C298.345 113.819 298.839 111.017 299.911 108.38C302.054 103.188 306.257 99.067 311.531 97.0067C314.251 95.9353 317.135 95.4408 320.02 95.5232C323.646 95.4408 327.273 96.2649 330.569 97.9132C333.701 99.5615 336.338 101.952 338.316 104.918L328.756 109.534C327.767 108.05 326.448 106.896 324.882 105.99C323.399 105.248 321.751 104.836 320.102 104.836C317.136 104.671 314.251 105.907 312.273 108.133C310.378 110.358 309.389 113.325 309.389 117.198C309.389 121.072 310.378 124.121 312.273 126.346C314.251 128.572 317.136 129.808 320.102 129.643C322.575 129.725 325.047 128.984 327.108 127.583C328.921 126.264 330.157 124.286 330.404 122.061H319.196Z" fill="url(#paint13_linear)"/>
<path d="M263.771 169.413C262.534 169.413 261.216 169.413 259.897 169.413C244.238 169.166 228.662 168.095 213.168 166.117L200.971 164.386C198.333 163.974 195.614 163.562 193.059 163.15C191.658 162.902 190.174 162.655 188.773 162.408C184.158 161.666 179.46 160.842 174.845 160.018H174.763C171.137 159.359 167.428 158.699 163.802 158.122C150.038 155.732 137.676 153.672 126.22 151.859C121.193 154.826 115.919 157.216 110.397 158.947C103.474 161.172 96.3039 162.573 89.0514 163.15C85.9197 163.397 82.7055 163.562 79.4913 163.562C75.0409 163.562 70.5081 163.314 66.0577 162.82C58.0635 161.996 50.2341 160.183 42.5695 157.545C40.5915 156.804 38.696 156.062 36.8829 155.155C35.9763 154.661 34.9873 154.166 34.0807 153.59C33.0918 153.013 32.2676 152.271 31.5259 151.529L30.949 150.787C30.7842 150.54 30.6194 150.211 30.4546 149.881C30.3722 149.716 30.3721 149.551 30.2897 149.386C30.2897 149.304 30.2073 149.222 30.2073 149.139L29.96 148.315C29.7952 147.738 29.7128 147.079 29.7128 146.502C29.7128 146.419 29.7128 146.337 29.7128 146.255C29.7128 146.007 29.7952 145.76 29.8776 145.513C29.96 145.183 30.1248 144.854 30.2897 144.524C30.949 143.453 32.0204 142.628 33.1742 142.216C33.5038 142.051 33.8336 141.969 34.2456 141.804C34.4105 141.722 34.5752 141.722 34.8225 141.639C35.1521 141.557 35.5643 141.475 35.8939 141.392C36.0587 141.392 36.2235 141.31 36.4708 141.31C40.0146 140.733 43.6408 140.486 47.2671 140.568C47.844 140.568 48.4209 140.568 49.2451 140.568C52.8713 140.65 56.8272 140.815 62.0194 141.145C78.1726 142.381 94.1611 144.441 113.364 147.079C118.144 147.738 123.089 148.48 128.116 149.222C132.154 146.584 136.028 143.7 139.654 140.486H141.22C137.676 143.782 133.885 146.749 129.847 149.469C140.478 151.035 151.769 152.848 164.379 154.908L177.153 157.051L189.268 159.029C190.751 159.276 192.235 159.523 193.636 159.688C196.273 160.1 198.91 160.512 201.548 160.924L213.662 162.573C229.074 164.551 244.65 165.704 260.062 166.117C262.947 166.199 265.831 166.199 268.633 166.199C279.677 166.281 290.72 165.622 301.681 164.386C313.302 163.067 324.84 160.76 336.131 157.545C336.955 157.216 337.862 156.969 338.686 156.721C340.334 156.227 341.817 155.732 343.301 155.155L346.68 153.919L349.894 152.601C350.965 152.188 351.954 151.694 352.943 151.282L353.603 150.952L355.91 149.881C356.487 149.634 356.982 149.304 357.559 149.057C358.877 148.397 360.031 147.82 361.185 147.079C366.295 144.277 370.992 140.815 375.278 136.942C376.432 135.87 377.421 134.799 378.492 133.645C379.151 132.903 379.481 132.409 379.481 132.409C379.481 132.327 379.563 132.327 379.646 132.327H379.728C379.811 132.409 379.811 132.491 379.811 132.574C378.657 134.304 377.256 135.87 375.772 137.354C371.569 141.475 366.872 145.101 361.844 148.15C354.015 152.848 345.608 156.639 336.873 159.441C325.582 163.067 313.961 165.622 302.176 167.106C289.237 168.671 276.463 169.413 263.771 169.413ZM46.2782 142.793C43.1464 142.711 39.9322 142.958 36.8005 143.453C36.6356 143.453 36.4708 143.535 36.306 143.535C35.9763 143.617 35.6467 143.7 35.3994 143.782C35.2346 143.865 35.0697 143.865 34.9049 143.947C34.5752 144.029 34.328 144.112 34.0807 144.277C33.339 144.524 32.5973 145.018 32.1853 145.678C31.8556 146.419 31.7731 147.161 32.0204 147.903L32.1853 148.562C32.1853 148.645 32.2677 148.727 32.2677 148.809C32.3501 148.974 32.35 149.139 32.4324 149.304C32.5149 149.469 32.5973 149.634 32.6797 149.716L33.0918 150.211C34.4928 151.529 36.0587 152.601 37.7894 153.425C39.6025 154.331 41.4157 155.073 43.3112 155.815C50.7286 158.452 58.4756 160.265 66.305 161.172C71.0026 161.749 75.7826 161.996 80.4803 161.996C83.3648 161.996 86.1669 161.913 88.8865 161.666C96.0566 161.172 103.062 159.771 109.902 157.71C114.847 156.144 119.627 154.084 124.16 151.612C120.451 151.035 116.578 150.458 112.787 149.881C93.749 147.079 77.7605 144.936 61.6897 143.535C56.58 143.123 52.7065 142.876 49.0803 142.876C48.0089 142.793 47.1023 142.793 46.2782 142.793ZM175.752 92.273H175.257C175.999 90.7895 176.823 89.2236 177.482 87.6577C179.213 84.0315 180.037 82.0535 180.037 81.9711C180.037 81.8887 180.12 81.8887 180.202 81.8887H180.285C180.367 81.8887 180.367 81.9711 180.367 81.9711C180.367 82.0535 180.367 82.0535 180.367 82.136C180.367 82.2184 179.543 84.1963 177.894 87.8226C177.235 89.306 176.493 90.7895 175.752 92.273Z" fill="url(#paint14_linear)"/>
<path d="M51.5531 56.6697C52.9541 56.9994 54.2727 57.5762 55.4265 58.4828C56.2507 59.0597 56.8276 59.8839 57.0748 60.8729C57.2396 61.697 56.9925 62.6036 56.4156 63.2629C55.5914 64.1694 54.5199 64.8287 53.3661 65.1584C52.542 65.4881 51.7178 65.5705 50.8937 65.4057C50.2344 65.3232 49.5751 65.076 48.9982 64.6639C48.5861 64.4167 48.174 64.087 47.9268 63.6749C47.762 63.3453 47.762 63.098 47.9268 63.098C48.4213 63.0156 49.0806 62.7684 49.9048 62.6035C50.7289 62.3563 51.4706 62.0267 52.1299 61.6146C53.3661 60.7904 53.9431 59.9663 53.6958 59.3894C53.4486 58.7301 52.542 58.318 50.9761 57.9883C48.8333 57.6587 46.6082 57.5762 44.4654 57.7411C41.1688 57.9059 37.8722 58.318 34.658 58.8949C32.268 59.307 29.8779 59.8015 27.4055 60.3784C24.933 61.0377 22.4606 61.7794 20.0706 62.686C17.6805 63.5925 15.373 64.6639 13.1478 65.8177C11.005 66.9715 8.94464 68.3726 6.96669 70.0209C5.48322 71.0923 4.32938 72.4109 3.42281 74.0592C2.84591 75.2954 2.84591 76.202 3.42281 76.8613C3.58764 77.1086 3.58766 77.191 3.34042 77.2734C3.01076 77.2734 2.68104 77.2734 2.35138 77.1085C1.93931 76.9437 1.52723 76.6965 1.11516 76.3668C0.703087 76.0372 0.373428 75.5427 0.291013 74.9658C-0.121061 73.6471 -0.121001 72.1637 0.455903 70.845C1.03281 69.444 1.93933 68.2077 3.09313 67.1364C4.32936 65.9001 5.73041 64.8287 7.21387 63.9222C8.77975 62.9332 10.4281 62.0267 12.0764 61.2025C15.0433 59.719 18.1751 58.4828 21.3893 57.5763C28.0649 55.6807 35.0701 54.939 41.993 55.3511C45.2896 55.3511 48.4213 55.8455 51.5531 56.6697ZM14.8785 91.2015C15.2081 89.4708 15.6202 87.74 16.1971 86.0917C16.774 84.2786 17.5157 82.3831 18.3399 80.4876C19.164 78.592 19.9882 76.6965 20.9772 74.8834C21.8838 73.1527 22.7903 71.4219 23.8617 69.7736C24.7683 68.3726 25.7572 66.9715 26.8286 65.6529C27.6528 64.6639 28.5594 63.7573 29.6307 63.0156C30.1252 62.686 30.7845 62.4387 31.3614 62.2739C31.9383 62.1091 32.5152 62.1091 33.0921 62.1091C33.5042 62.1091 33.9987 62.1915 34.4107 62.2739C34.7404 62.3563 34.8228 62.4387 34.7404 62.6035C33.9163 63.5101 32.8449 64.6639 31.7735 66.1474C30.6197 67.5484 29.4659 69.1967 28.2296 71.0099C26.9934 72.823 25.8396 74.7185 24.6034 76.6965C23.4496 78.6744 22.2958 80.8172 21.3068 82.8776C20.3178 84.9379 19.4937 87.0807 18.7519 89.2235C18.0926 91.2015 17.5982 93.1794 17.3509 95.2398C17.2685 95.6519 17.1036 95.8991 16.774 95.8991C16.3619 95.8991 16.0323 95.6519 15.785 95.3222C15.373 94.8277 15.1257 94.2508 14.8785 93.6739C14.7137 92.8498 14.6312 92.0256 14.8785 91.2015Z" fill="url(#paint15_linear)"/>
<path d="M57.1571 57.4938C57.322 58.3179 57.0748 59.142 56.4979 59.8014C55.7561 60.9552 54.8495 62.109 53.8605 63.1804C52.7067 64.4166 51.3882 65.7352 49.9047 67.1363C48.4212 68.5373 46.8553 69.9384 45.207 71.3394C43.5587 72.7405 41.9104 74.0591 40.2621 75.3777C38.6138 76.6964 37.048 77.8502 35.6469 78.8392C35.3172 79.4161 35.07 79.9106 34.8228 80.3226C34.6579 80.5699 34.5755 80.8995 34.4931 81.2292C34.4107 81.4764 34.4931 81.4764 34.658 81.3116C34.9052 81.1468 35.3173 80.7347 35.9766 80.0754C36.6359 79.4161 37.3776 78.8392 38.2017 78.0974C39.0259 77.4381 39.7677 76.7788 40.5094 76.1195C41.0863 75.625 41.6632 75.2129 42.3225 74.8833C42.6521 74.7184 43.1466 74.7184 43.4763 74.8009C43.8884 74.9657 44.2181 75.2129 44.4653 75.5426C44.7126 75.8722 44.9597 76.2019 45.207 76.5316C45.3718 76.7788 45.4542 77.1085 45.6191 77.4381C45.7015 77.6854 45.5367 78.0974 45.0422 78.7568C44.5477 79.4161 44.0532 79.993 43.5587 80.6523C42.9818 81.3116 42.5698 81.8885 42.1577 82.383C41.7456 82.8775 41.6632 83.2072 41.9104 83.372C42.2401 83.372 42.5698 83.2896 42.817 83.1248C43.3939 82.8775 43.8884 82.6303 44.4653 82.3006C45.0422 81.9709 45.7839 81.5589 46.4432 81.0644C47.1849 80.5699 47.8443 80.1578 48.5036 79.7457C49.1629 79.3337 49.7398 78.9216 50.1519 78.5919C50.4815 78.3447 50.8113 78.0975 51.1409 77.7678C51.8002 77.2733 52.2947 77.1909 52.7068 77.4381C53.1189 77.6854 53.1189 78.015 52.7068 78.5095C52.542 78.7568 52.1299 79.1688 51.553 79.8282C50.9761 80.4875 50.3168 81.1468 49.4926 81.8885C48.6685 82.6303 47.8443 83.2896 46.9378 83.9489C46.1136 84.5258 45.2894 84.9379 44.3004 85.1851C43.3939 85.4324 42.4049 85.4324 41.4983 85.1851C40.839 85.0203 40.1797 84.6082 39.6852 84.1137C39.2732 83.6192 38.9435 83.0423 38.7787 82.4654C38.6139 81.8885 38.6139 81.3116 38.7787 80.7347C38.2018 81.2292 37.7073 81.7237 37.1304 82.1358C36.7183 82.5478 36.2239 82.9599 35.8118 83.2896C35.3997 83.7016 34.9876 83.9489 34.7404 84.1961C34.4107 84.5258 34.081 84.6906 33.6689 84.8554C33.1744 85.0203 32.68 85.1027 32.1855 85.1027C31.691 85.1027 31.279 85.0203 30.8669 84.8554C30.4548 84.6906 30.2076 84.361 30.1252 83.9489C30.2076 82.8775 30.4548 81.8885 30.9493 80.982C31.7734 79.1688 32.5976 77.3557 33.5865 75.625C34.7403 73.5646 36.059 71.3394 37.5425 69.0318C39.0259 66.7242 40.5918 64.499 42.1577 62.4386C43.5587 60.5431 45.207 58.73 46.8553 57.0817C48.0091 55.8455 49.4926 54.8565 51.0585 54.1972C51.553 54.0323 51.965 53.9499 52.4595 54.0323C53.0364 54.0323 53.6133 54.1972 54.1902 54.4444C54.7671 54.6916 55.344 55.1037 55.7561 55.5982C56.4979 56.0103 56.9099 56.752 57.1571 57.4938ZM54.932 56.1751C54.7671 56.0103 54.4374 56.0927 53.8605 56.5872C53.1188 57.1641 52.4595 57.8234 51.8002 58.5651C50.976 59.3893 50.0695 60.3783 49.0805 61.5321C48.0916 62.6859 47.1026 63.8397 46.1136 65.0759C43.7236 67.9604 41.0863 71.257 38.1193 75.0481C38.5314 74.636 39.3556 73.9767 40.427 72.9877C41.4984 71.9987 42.7346 70.845 44.0533 69.5263C45.3719 68.2077 46.6905 66.889 48.0915 65.4056C49.4926 63.9221 50.7288 62.6035 51.8002 61.3672C52.7067 60.2958 53.531 59.2245 54.3551 58.0706C54.932 57.0817 55.1792 56.5048 54.932 56.1751Z" fill="url(#paint16_linear)"/>
<path d="M63.9977 78.5096C64.7394 78.0151 65.0691 77.8503 65.1515 78.0151C65.2339 78.1799 65.0691 78.592 64.7394 79.0865C64.3273 79.7458 63.8328 80.4051 63.3383 81.0645C62.679 81.8062 62.0197 82.5479 61.2779 83.2072C60.5362 83.8665 59.7946 84.4435 58.888 85.0204C58.2287 85.5148 57.4045 85.8445 56.5803 86.0093C55.921 86.0918 55.2617 85.9269 54.6848 85.6797C53.8606 85.35 53.1189 84.8555 52.3772 84.2786C51.6355 83.7017 51.0585 82.96 50.564 82.2183C50.0695 81.4765 49.9047 80.6524 50.0695 79.8282C50.2344 79.0865 50.4816 78.4272 50.8937 77.8503C51.3058 77.2734 51.8003 76.6965 52.3772 76.202C52.8717 75.7899 53.4486 75.3778 54.1079 75.0482C54.6024 74.8009 55.0969 74.6361 55.5914 74.6361C56.0035 74.6361 56.4155 74.7185 56.7451 74.8834C57.1572 75.0482 57.5693 75.2954 57.899 75.6251C58.2286 75.8723 58.5583 76.2844 58.7231 76.6965C58.8879 77.0261 59.0528 77.5206 58.9704 77.9327C58.8056 78.5096 58.5583 79.0041 58.1462 79.3337C57.6517 79.9106 57.0748 80.4051 56.4979 80.8996C55.7562 81.5589 54.932 82.2183 54.1079 82.7128C55.5089 82.8776 56.8276 82.5479 58.0638 81.8886C60.289 81.0645 62.1845 79.9106 63.9977 78.5096ZM57.3221 77.4382C57.1573 77.3558 56.8276 77.4382 56.2507 77.6854C55.6738 78.0151 55.1792 78.3448 54.6848 78.7568C54.1903 79.1689 53.6958 79.6634 53.3661 80.2403C53.0365 80.6524 52.9541 81.1469 53.119 81.6413C53.531 81.3941 53.8606 81.1469 54.1903 80.8172C54.6848 80.4051 55.1793 79.993 55.6738 79.4986C56.1683 79.0041 56.5804 78.592 56.91 78.1799C57.3221 77.8503 57.4869 77.603 57.3221 77.4382Z" fill="url(#paint17_linear)"/>
<path d="M63.7505 104.635C63.5033 104.965 63.1736 105.212 62.7616 105.212C62.3495 105.294 61.855 105.294 61.4429 105.212C61.0309 105.13 60.7012 104.882 60.3715 104.635C60.1243 104.223 60.1243 103.728 60.3715 103.316C60.5363 102.904 60.9484 102.163 61.6077 101.009C62.2671 99.855 63.0088 98.5364 63.9154 96.9705C64.822 95.4046 65.8933 93.6739 66.9647 91.7784C68.0361 89.8828 69.1899 87.9873 70.4262 86.1741C71.58 84.2786 72.7337 82.4655 73.8876 80.6524C75.0414 78.8392 76.0303 77.2733 76.9369 75.8723C77.8434 74.4712 78.6676 73.3174 79.3269 72.4109C79.6566 71.834 80.0686 71.4219 80.5631 71.0098C80.9752 70.7626 81.3873 70.7626 81.7993 70.9274C82.2114 71.0922 82.6235 71.3395 83.0356 71.6691C83.3652 71.9164 83.6949 72.246 83.9421 72.6581C84.1069 72.9054 84.1894 73.235 84.107 73.5647C84.0246 73.8119 83.8598 74.0592 83.6949 74.3064C83.5301 74.5537 83.2005 74.9657 82.7884 75.5426C82.3763 76.0371 81.9642 76.7789 81.3049 77.603L79.0797 80.6524C79.6566 80.1579 80.2335 79.5809 80.8104 79.0865C81.3873 78.5096 81.9642 78.0151 82.3763 77.603C82.8708 77.1909 83.2829 76.7789 83.6125 76.4492C83.7774 76.2844 84.0246 76.1195 84.1894 75.9547C84.4366 75.8723 84.7663 75.8723 85.0959 75.9547C85.5904 76.0371 86.0025 76.1195 86.4146 76.2844C86.8266 76.4492 87.3212 76.614 87.7333 76.8613C88.0629 77.0261 88.3101 77.2733 88.4749 77.603C88.5573 77.7678 88.475 78.0975 88.2277 78.4272C87.9805 78.8392 87.7332 79.1689 87.4036 79.581C87.0739 79.993 86.6618 80.4051 86.2498 80.8172C85.8377 81.2292 85.4256 81.6413 85.0959 82.0534C84.8487 82.3831 84.519 82.6303 84.3542 83.0424C84.1894 83.2896 84.1894 83.5369 84.2718 83.5369C84.4366 83.6193 85.0135 83.4545 85.8377 83.0424C86.6618 82.6303 87.6508 82.0534 88.7222 81.3941C89.7936 80.7348 90.7826 80.0755 91.6891 79.4161C92.3484 79.0041 92.9254 78.5096 93.5023 78.0975C94.0792 77.5206 94.4913 77.3558 94.7385 77.6854C94.9858 77.9327 94.9857 78.3447 94.656 78.9216C94.1615 79.4985 93.6671 79.993 93.1726 80.4051C92.3485 81.1468 91.4419 81.971 90.5353 82.7951C89.5463 83.6193 88.6397 84.4434 87.6508 85.1028C87.0739 85.5972 86.3321 86.0093 85.5904 86.339C85.0135 86.4214 84.3542 86.4214 83.7773 86.339C83.118 86.2566 82.5411 86.0093 81.9642 85.7621C81.3873 85.5148 80.8928 85.1852 80.4807 84.7731C80.0687 84.4434 79.8214 83.9489 79.8214 83.4545C79.8214 83.1248 79.9038 82.7951 80.0687 82.5479C80.2335 82.1358 80.4807 81.8062 80.6455 81.3941C80.8928 80.982 81.2225 80.5699 81.5522 80.0754C80.8104 80.6524 80.0686 81.3117 79.3269 81.8886C78.6676 82.3831 78.0082 83.0424 77.3489 83.7017C76.6896 84.361 76.1128 85.0203 75.5359 85.6796C73.97 87.9873 72.1569 90.7894 70.0141 94.1684C67.8713 97.5474 65.9757 100.844 63.7505 104.635Z" fill="url(#paint18_linear)"/>
<path d="M98.0349 74.471C98.5294 74.471 99.0238 74.6358 99.4359 74.883C99.848 75.1303 100.095 75.4599 100.178 75.9544C101.002 76.1192 101.826 76.6137 102.238 77.3555C102.65 78.0972 102.815 78.9214 102.732 79.7455C103.639 79.8279 104.628 79.6631 105.452 79.3334C106.276 79.0038 106.936 78.5093 107.513 77.8499C107.76 77.6027 108.007 77.3555 108.337 77.1906C108.502 77.1082 108.749 77.0258 108.914 77.1082C109.078 77.1906 109.161 77.3555 109.161 77.5203C109.161 77.7675 109.078 78.0148 108.914 78.262C108.254 79.3334 107.348 80.3224 106.276 80.9817C104.958 81.8883 103.392 82.3828 101.744 82.5476C101.249 83.2893 100.59 84.0311 99.9304 84.608C99.1886 85.2673 98.2821 85.6794 97.2931 85.9266C96.7162 86.0914 96.1393 86.0914 95.6448 85.9266C94.9855 85.7618 94.3262 85.5145 93.7493 85.1025C93.1724 84.6904 92.5954 84.1959 92.1834 83.5366C91.7713 82.8773 91.6065 82.1355 91.7713 81.3938C91.8537 80.5696 92.101 79.8279 92.4306 79.0862C92.7603 78.262 93.2548 77.5203 93.7493 76.861C94.2438 76.2017 94.9031 75.6248 95.6448 75.2127C96.3866 74.7182 97.2107 74.471 98.0349 74.471ZM95.7272 83.7838C95.8921 84.1135 96.3042 84.1135 96.8811 83.7838C97.5404 83.4542 98.1173 82.9597 98.6118 82.3828C98.1997 82.0531 97.7876 81.641 97.5403 81.1465C97.2107 80.5696 97.0459 79.9928 96.9635 79.4158C96.3866 80.1576 95.8921 81.0641 95.6448 81.9707C95.3152 82.5476 95.3976 83.2069 95.7272 83.7838Z" fill="url(#paint19_linear)"/>
<path d="M116.743 75.4601C116.99 75.2129 117.32 75.1305 117.65 75.2953C118.062 75.3777 118.391 75.6249 118.721 75.8722C119.051 76.2018 119.38 76.5315 119.628 76.8612C119.875 77.1908 120.04 77.5205 120.122 77.9325C120.122 78.3446 119.957 78.8391 119.71 79.1688C119.38 79.6632 119.133 80.2401 118.803 80.7346C118.556 81.2291 118.226 81.7236 118.062 82.2181C117.897 82.6302 117.897 82.9598 118.144 83.0423C118.391 83.1247 118.886 82.8774 119.463 82.3829C120.122 81.8884 120.781 81.2291 121.523 80.4874C121.193 79.9929 121.029 79.416 121.193 78.9215C121.276 78.3446 121.523 77.8501 121.77 77.3556C122.1 76.8612 122.512 76.4491 122.924 76.1194C123.336 75.7898 123.748 75.6249 124.243 75.6249H124.325C124.737 75.6249 125.149 75.7073 125.397 75.9546C125.644 76.2018 125.809 76.5315 125.809 76.8612C125.809 77.2732 125.726 77.6853 125.561 78.0974C125.397 78.5919 125.149 79.0039 124.902 79.416C125.561 79.7457 126.303 79.9929 127.045 79.9105C128.034 79.9105 128.94 79.416 129.6 78.7567C129.765 78.5919 130.012 78.427 130.177 78.3446C130.341 78.2622 130.506 78.2622 130.671 78.2622C130.836 78.2622 130.918 78.427 130.918 78.5095C130.918 78.6743 130.836 78.8391 130.589 79.0863C130.094 79.6632 129.517 80.2402 128.858 80.6522C128.281 81.1467 127.622 81.4764 126.962 81.7236C126.303 81.9709 125.644 82.1357 124.902 82.1357C124.16 82.1357 123.501 81.9709 122.842 81.6412C121.935 82.5478 120.946 83.4543 119.875 84.1961C119.051 84.8554 118.062 85.2675 117.073 85.3499C116.743 85.3499 116.496 85.2675 116.249 85.1026C115.919 84.9378 115.589 84.6906 115.26 84.3609C114.93 84.1137 114.683 83.784 114.435 83.3719C114.106 82.795 113.859 82.1357 113.776 81.4764C113.776 81.1467 113.776 80.8995 113.776 80.5698C113.364 80.9819 112.869 81.4764 112.375 81.9709C111.881 82.4653 111.386 82.9598 110.892 83.4543C110.397 83.8664 109.903 84.2785 109.49 84.6081C109.161 84.8554 108.749 85.0202 108.337 85.1026C108.09 85.1026 107.76 85.0202 107.513 84.9378C107.183 84.773 106.771 84.6081 106.441 84.4433C106.112 84.1961 105.782 83.9488 105.452 83.7016C105.205 83.4543 104.958 83.1247 104.958 82.795C104.958 82.2181 105.122 81.6412 105.37 81.1467C105.699 80.405 106.029 79.5808 106.524 78.7567C106.936 77.9325 107.43 77.026 108.007 76.2842C108.419 75.6249 108.914 74.9656 109.49 74.3887C109.738 74.2239 110.067 74.1415 110.397 74.2239C110.809 74.3063 111.139 74.4711 111.551 74.7184C111.963 74.9656 112.293 75.2953 112.54 75.6249C112.787 75.8722 112.952 76.2018 113.117 76.6139C113.117 76.9436 113.034 77.1908 112.87 77.438C112.622 77.8501 112.375 78.2622 112.045 78.6743C111.716 79.0863 111.386 79.5808 111.056 80.0753C110.727 80.5698 110.397 80.9819 110.15 81.3115C109.985 81.5588 109.82 81.806 109.655 82.1357C109.573 82.3005 109.738 82.3829 109.985 82.2181C110.315 82.0533 110.562 81.8884 110.892 81.6412C111.221 81.394 111.633 81.0643 112.045 80.6522C112.457 80.2402 112.952 79.8281 113.364 79.3336C113.859 78.8391 114.271 78.427 114.683 77.9325C114.93 77.438 115.26 76.9436 115.589 76.5315C116.001 76.2018 116.331 75.7898 116.743 75.4601Z" fill="url(#paint20_linear)"/>
<path d="M143.445 78.5096C144.187 78.0151 144.517 77.8503 144.599 78.0151C144.682 78.1799 144.517 78.592 144.187 79.0865C143.775 79.7458 143.281 80.4051 142.786 81.0645C142.127 81.8062 141.467 82.5479 140.726 83.2072C139.984 83.8665 139.242 84.4435 138.336 85.0204C137.676 85.5148 136.852 85.8445 136.028 86.0093C135.369 86.0918 134.709 85.9269 134.132 85.6797C133.308 85.35 132.567 84.8555 131.825 84.2786C131.083 83.7017 130.506 82.96 130.012 82.2183C129.517 81.4765 129.352 80.6524 129.517 79.8282C129.682 79.0865 129.929 78.4272 130.341 77.8503C130.754 77.2734 131.248 76.6965 131.825 76.202C132.319 75.7899 132.896 75.3778 133.556 75.0482C134.05 74.8009 134.545 74.6361 135.039 74.6361C135.451 74.6361 135.863 74.7185 136.193 74.8834C136.605 75.0482 137.017 75.2954 137.347 75.6251C137.676 75.8723 138.006 76.2844 138.171 76.6965C138.336 77.0261 138.501 77.5206 138.418 77.9327C138.253 78.5096 138.006 79.0041 137.594 79.3337C137.099 79.9106 136.523 80.4051 135.946 80.8996C135.204 81.5589 134.38 82.2183 133.556 82.7128C134.957 82.8776 136.275 82.5479 137.511 81.8886C139.737 81.0645 141.715 79.9106 143.445 78.5096ZM136.852 77.4382C136.687 77.3558 136.358 77.4382 135.781 77.6854C135.204 78.0151 134.709 78.3448 134.215 78.7568C133.72 79.1689 133.226 79.6634 132.896 80.2403C132.567 80.6524 132.484 81.1469 132.649 81.6413C133.061 81.3941 133.391 81.1469 133.72 80.8172C134.215 80.4051 134.709 79.993 135.204 79.4986C135.698 79.0041 136.11 78.592 136.44 78.1799C136.852 77.8503 136.935 77.603 136.852 77.4382Z" fill="url(#paint21_linear)"/>
<path d="M145.836 77.5205C146 77.6853 146.248 77.7678 146.495 77.6854C146.824 77.6854 147.154 77.6029 147.401 77.5205C147.731 77.4381 147.978 77.2733 148.308 77.1084C148.555 77.026 148.72 76.8612 148.885 76.6964C148.967 76.5315 149.132 76.4491 149.462 76.4491C149.791 76.4491 150.121 76.5315 150.451 76.614C150.78 76.7788 151.11 76.9436 151.357 77.1909C151.605 77.4381 151.852 77.6854 151.852 78.0974C151.852 78.5919 151.687 79.004 151.44 79.4161C151.11 79.993 150.78 80.5699 150.451 81.0644C150.121 81.5589 149.874 81.9709 149.627 82.4654C149.462 82.8775 149.462 83.0423 149.791 83.0423C150.286 82.9599 150.78 82.7126 151.11 82.383C151.687 81.9709 152.264 81.4764 152.923 80.8995C153.583 80.3226 154.159 79.7457 154.736 79.2512L155.973 78.015C156.549 77.5205 157.044 77.3557 157.374 77.4381C157.703 77.5205 157.703 77.9326 157.209 78.5919C156.961 78.9216 156.632 79.4161 156.137 80.0754C155.643 80.7347 155.148 81.394 154.572 82.1357C153.995 82.8775 153.335 83.5368 152.676 84.1961C152.099 84.773 151.44 85.2675 150.616 85.5148C150.203 85.5972 149.791 85.5972 149.379 85.5148C148.802 85.4323 148.226 85.1851 147.731 84.9378C147.154 84.6906 146.66 84.361 146.248 83.8665C145.836 83.4544 145.671 82.9599 145.671 82.383C145.671 81.8885 145.836 81.3116 146 80.8171C146.248 80.2402 146.495 79.6633 146.824 79.0864C146.165 79.2512 145.423 79.3336 144.764 79.1688C144.105 79.0864 143.528 78.7567 143.033 78.3447C142.621 78.015 142.292 77.5205 142.209 76.9436C142.209 76.2843 142.457 75.625 142.951 75.2129C143.363 74.636 144.022 74.2239 144.682 74.0591C145.176 73.9767 145.671 74.0591 146.083 74.3888C146.412 74.7184 146.577 75.2129 146.577 75.7074C146.66 76.4491 146.33 77.1084 145.836 77.5205Z" fill="url(#paint22_linear)"/>
<path d="M172.373 74.471C172.868 74.471 173.362 74.6358 173.774 74.883C174.186 75.1303 174.433 75.4599 174.516 75.9544C175.34 76.1192 176.164 76.6137 176.576 77.3555C176.988 78.0972 177.153 78.9214 177.071 79.7455C177.977 79.8279 178.966 79.6631 179.79 79.3334C180.615 79.0038 181.274 78.5093 181.851 77.8499C182.098 77.6027 182.345 77.3555 182.675 77.1906C182.84 77.1082 183.087 77.0258 183.252 77.1082C183.417 77.1906 183.499 77.3555 183.499 77.5203C183.499 77.7675 183.417 78.0148 183.252 78.262C182.592 79.3334 181.686 80.3224 180.615 80.9817C179.296 81.8883 177.73 82.3828 176.082 82.5476C175.587 83.2893 174.928 84.0311 174.269 84.608C173.527 85.2673 172.62 85.6794 171.631 85.9266C171.054 86.0914 170.477 86.0914 169.983 85.9266C169.324 85.7618 168.664 85.5145 168.088 85.1025C167.511 84.6904 166.934 84.1959 166.522 83.5366C166.11 82.8773 165.945 82.1355 166.11 81.3938C166.192 80.5696 166.439 79.8279 166.769 79.0862C167.098 78.262 167.593 77.5203 168.088 76.861C168.582 76.2017 169.241 75.6248 169.983 75.2127C170.807 74.7182 171.549 74.471 172.373 74.471ZM170.148 83.7838C170.313 84.1135 170.725 84.1135 171.302 83.7838C171.961 83.4542 172.538 82.9597 173.032 82.3828C172.62 82.0531 172.208 81.641 171.961 81.1465C171.631 80.5696 171.467 79.9928 171.384 79.4158C170.807 80.1576 170.313 81.0641 170.065 81.9707C169.736 82.5476 169.818 83.2069 170.148 83.7838Z" fill="url(#paint23_linear)"/>
<path d="M205.834 57.1642C205.834 57.8235 205.586 58.4828 205.092 59.0597C204.268 60.2135 203.361 61.2849 202.455 62.3563C201.218 63.7574 199.488 65.4881 197.262 67.7133C195.037 69.8561 192.318 72.5758 189.021 75.8723C187.208 77.6855 185.56 79.6634 184.159 81.8062C184.653 81.8062 185.148 81.6414 185.56 81.4766C186.301 81.2293 187.043 80.8996 187.785 80.4876C188.526 80.0755 189.268 79.6634 190.01 79.2514C190.587 78.9217 191.081 78.592 191.576 78.18C191.823 77.9327 192.07 77.7679 192.482 77.6855C192.647 77.6855 192.812 77.7679 192.812 77.9327C192.812 78.18 192.812 78.4272 192.647 78.592C192.482 78.9217 192.318 79.169 192.07 79.4162C189.928 81.3941 188.279 82.7952 187.125 83.7017C186.384 84.3611 185.56 84.8556 184.653 85.1852C184.241 85.2676 183.829 85.1852 183.499 85.0204C183.17 84.8556 182.84 84.5259 182.593 84.2787C180.367 87.4104 177.318 91.2839 176.659 92.3553C176.329 92.685 174.928 92.4377 174.846 92.3553C176.164 88.729 177.071 87.328 178.719 83.7017C180.367 80.0755 180.038 80.0755 181.439 78.0151C182.84 75.9548 184.241 73.8944 185.724 71.7516C187.208 69.6088 188.691 67.5484 190.257 65.4881C191.741 63.4277 193.224 61.6146 194.543 59.9663C195.697 58.5653 196.85 57.2466 198.169 56.0104C198.828 55.2687 199.735 54.6094 200.642 54.2797C201.301 54.1149 202.043 54.1148 202.702 54.3621C203.279 54.5269 203.773 54.7742 204.268 55.1862C204.68 55.5159 205.009 55.8456 205.257 56.3401C205.586 56.5049 205.751 56.8346 205.834 57.1642ZM203.114 57.329C202.949 57.2466 202.619 57.4114 202.043 57.8235C201.301 58.4828 200.641 59.1422 199.982 59.8839C199.158 60.7905 198.251 61.7794 197.262 62.9332C196.273 64.0871 195.202 65.4057 194.131 66.7243C193.059 68.0429 191.988 69.444 190.999 70.7626C189.928 72.1637 188.939 73.4823 188.114 74.7185C189.763 73.0702 191.576 71.2571 193.471 69.3616C195.367 67.3836 197.015 65.5705 198.581 63.9222C200.147 62.1915 201.301 60.7905 202.29 59.5542C203.032 58.2356 203.361 57.5763 203.114 57.329Z" fill="url(#paint24_linear)"/>
<defs>
<linearGradient id="paint0_linear" x1="73.5185" y1="49.4829" x2="55.213" y2="57.1589" gradientUnits="userSpaceOnUse">
<stop stop-color="#613B02"/>
<stop offset="1" stop-color="#EFD16E"/>
</linearGradient>
<linearGradient id="paint1_linear" x1="82.6673" y1="21.3203" x2="52.9344" y2="38.3958" gradientUnits="userSpaceOnUse">
<stop stop-color="#613B02"/>
<stop offset="1" stop-color="#EFD16E"/>
</linearGradient>
<linearGradient id="paint2_linear" x1="109.834" y1="19.2908" x2="89.6168" y2="20.9358" gradientUnits="userSpaceOnUse">
<stop stop-color="#613B02"/>
<stop offset="1" stop-color="#EFD16E"/>
</linearGradient>
<linearGradient id="paint3_linear" x1="120.726" y1="18.9365" x2="110.497" y2="25.3382" gradientUnits="userSpaceOnUse">
<stop stop-color="#613B02"/>
<stop offset="1" stop-color="#EFD16E"/>
</linearGradient>
<linearGradient id="paint4_linear" x1="72.4724" y1="51.2668" x2="43.9931" y2="58.5481" gradientUnits="userSpaceOnUse">
<stop stop-color="#613B02"/>
<stop offset="1" stop-color="#EFD16E"/>
</linearGradient>
<linearGradient id="paint5_linear" x1="83.4176" y1="17.7481" x2="49.316" y2="35.8775" gradientUnits="userSpaceOnUse">
<stop stop-color="#613B02"/>
<stop offset="1" stop-color="#EFD16E"/>
</linearGradient>
<linearGradient id="paint6_linear" x1="105.52" y1="30.1783" x2="68.1081" y2="38.5909" gradientUnits="userSpaceOnUse">
<stop stop-color="#613B02"/>
<stop offset="1" stop-color="#EFD16E"/>
</linearGradient>
<linearGradient id="paint7_linear" x1="37.0821" y1="69.8341" x2="109.512" y2="260.946" gradientUnits="userSpaceOnUse">
<stop stop-color="#613B02"/>
<stop offset="1" stop-color="#EFD16E"/>
</linearGradient>
<linearGradient id="paint8_linear" x1="37.0821" y1="69.8341" x2="109.512" y2="260.946" gradientUnits="userSpaceOnUse">
<stop stop-color="#613B02"/>
<stop offset="1" stop-color="#EFD16E"/>
</linearGradient>
<linearGradient id="paint9_linear" x1="37.0821" y1="69.8341" x2="109.512" y2="260.946" gradientUnits="userSpaceOnUse">
<stop stop-color="#613B02"/>
<stop offset="1" stop-color="#EFD16E"/>
</linearGradient>
<linearGradient id="paint10_linear" x1="37.0821" y1="69.8341" x2="109.512" y2="260.946" gradientUnits="userSpaceOnUse">
<stop stop-color="#613B02"/>
<stop offset="1" stop-color="#EFD16E"/>
</linearGradient>
<linearGradient id="paint11_linear" x1="37.0821" y1="69.8341" x2="109.512" y2="260.946" gradientUnits="userSpaceOnUse">
<stop stop-color="#613B02"/>
<stop offset="1" stop-color="#EFD16E"/>
</linearGradient>
<linearGradient id="paint12_linear" x1="37.0821" y1="69.8341" x2="109.512" y2="260.946" gradientUnits="userSpaceOnUse">
<stop stop-color="#613B02"/>
<stop offset="1" stop-color="#EFD16E"/>
</linearGradient>
<linearGradient id="paint13_linear" x1="37.0821" y1="69.8341" x2="109.512" y2="260.946" gradientUnits="userSpaceOnUse">
<stop stop-color="#613B02"/>
<stop offset="1" stop-color="#EFD16E"/>
</linearGradient>
<linearGradient id="paint14_linear" x1="37.0821" y1="69.8341" x2="109.512" y2="260.946" gradientUnits="userSpaceOnUse">
<stop stop-color="#613B02"/>
<stop offset="1" stop-color="#EFD16E"/>
</linearGradient>
<linearGradient id="paint15_linear" x1="37.0821" y1="69.8341" x2="109.512" y2="260.946" gradientUnits="userSpaceOnUse">
<stop stop-color="#613B02"/>
<stop offset="1" stop-color="#EFD16E"/>
</linearGradient>
<linearGradient id="paint16_linear" x1="37.0821" y1="69.8341" x2="109.512" y2="260.946" gradientUnits="userSpaceOnUse">
<stop stop-color="#613B02"/>
<stop offset="1" stop-color="#EFD16E"/>
</linearGradient>
<linearGradient id="paint17_linear" x1="37.0821" y1="69.8341" x2="109.512" y2="260.946" gradientUnits="userSpaceOnUse">
<stop stop-color="#613B02"/>
<stop offset="1" stop-color="#EFD16E"/>
</linearGradient>
<linearGradient id="paint18_linear" x1="37.0821" y1="69.8341" x2="109.512" y2="260.946" gradientUnits="userSpaceOnUse">
<stop stop-color="#613B02"/>
<stop offset="1" stop-color="#EFD16E"/>
</linearGradient>
<linearGradient id="paint19_linear" x1="37.0821" y1="69.8341" x2="109.512" y2="260.946" gradientUnits="userSpaceOnUse">
<stop stop-color="#613B02"/>
<stop offset="1" stop-color="#EFD16E"/>
</linearGradient>
<linearGradient id="paint20_linear" x1="37.0821" y1="69.8341" x2="109.512" y2="260.946" gradientUnits="userSpaceOnUse">
<stop stop-color="#613B02"/>
<stop offset="1" stop-color="#EFD16E"/>
</linearGradient>
<linearGradient id="paint21_linear" x1="37.0821" y1="69.8341" x2="109.512" y2="260.946" gradientUnits="userSpaceOnUse">
<stop stop-color="#613B02"/>
<stop offset="1" stop-color="#EFD16E"/>
</linearGradient>
<linearGradient id="paint22_linear" x1="37.0821" y1="69.8341" x2="109.512" y2="260.946" gradientUnits="userSpaceOnUse">
<stop stop-color="#613B02"/>
<stop offset="1" stop-color="#EFD16E"/>
</linearGradient>
<linearGradient id="paint23_linear" x1="37.0821" y1="69.8341" x2="109.512" y2="260.946" gradientUnits="userSpaceOnUse">
<stop stop-color="#613B02"/>
<stop offset="1" stop-color="#EFD16E"/>
</linearGradient>
<linearGradient id="paint24_linear" x1="37.0821" y1="69.8341" x2="109.512" y2="260.946" gradientUnits="userSpaceOnUse">
<stop stop-color="#613B02"/>
<stop offset="1" stop-color="#EFD16E"/>
</linearGradient>
<clipPath id="clip0">
<rect width="68.9875" height="72.5326" fill="white" transform="matrix(-0.965117 -0.261818 -0.25585 0.966717 122.139 18.062)"/>
</clipPath>
</defs>
</svg>
