<svg width="280" height="123" viewBox="0 0 280 123" fill="none" xmlns="http://www.w3.org/2000/svg">
<g opacity="0.4" clip-path="url(#clip0)">
<path d="M36.9627 48.1648L56.475 39.1482L51.1022 49.6711L44.8522 48.6636C44.8522 48.6636 44.4306 48.6284 44.0515 48.5631L36.9627 48.1648Z" fill="url(#paint0_linear)"/>
<path d="M68.9095 14.577L38.7004 12.5495L58.4734 35.1382L68.9095 14.577Z" fill="url(#paint1_linear)"/>
<path d="M74.3115 25.3267L91.1481 13.4714L82.2164 40.6683L74.3115 25.3267Z" fill="url(#paint2_linear)"/>
<path d="M91.1421 13.487L88.6934 20.8715L99.5015 21.2957L91.1421 13.487Z" fill="url(#paint3_linear)"/>
<path d="M56.4802 39.1348L27.4987 58.5376L51.1023 49.6713L56.4802 39.1348Z" fill="url(#paint4_linear)"/>
<path d="M68.9653 14.6749L40.7673 -0.0166563L58.5038 35.1804L68.9653 14.6749Z" fill="url(#paint5_linear)"/>
<path d="M82.2301 40.6734L51.1022 49.6712L68.9654 14.675L82.2301 40.6734Z" fill="url(#paint6_linear)"/>
</g>
<path d="M54.3206 89.4648C55.3523 90.6786 56.5661 91.7104 57.9013 92.56C58.933 93.2276 60.2075 93.5311 61.4213 93.5918C62.3923 93.6525 63.3634 93.349 64.0917 92.7421C64.7593 92.1959 65.1841 91.4069 65.1234 90.4966C65.1841 89.6469 64.82 88.7972 64.2131 88.1903C63.6062 87.6441 62.2103 87.0979 60.0861 86.5517C57.173 85.7627 55.1095 84.731 53.8957 83.4565C52.6212 82.0606 51.9536 80.1792 52.075 78.2371C51.9536 75.6274 53.0461 73.0784 54.9275 71.2577C56.9302 69.437 59.6006 68.466 62.3924 68.5267C63.9703 68.5267 65.5483 68.7694 67.0655 69.1943C68.5828 69.6191 69.9786 70.3474 71.2531 71.197L68.7041 77.0233C67.8545 76.295 66.8835 75.6881 65.8517 75.2633C64.9414 74.8991 63.9703 74.6564 62.9386 74.6564C62.0889 74.5957 61.2392 74.8385 60.5717 75.3847C59.9648 75.8095 59.6613 76.4771 59.6613 77.2054C59.6613 77.873 59.9041 78.5406 60.4503 79.0261C61.4213 79.633 62.453 80.1185 63.5455 80.3006L63.9096 80.422C67.2476 81.3323 69.4324 82.3034 70.4642 83.3958C71.1925 84.1241 71.7387 85.0344 72.1028 86.0662C72.467 87.1586 72.649 88.3117 72.649 89.4648C72.7704 92.3173 71.6173 95.109 69.5538 97.1118C67.4903 99.0539 64.6986 100.025 61.2392 100.025C59.2971 100.025 57.3551 99.6608 55.5344 98.9932C53.7137 98.2042 52.0143 97.0511 50.6184 95.6552L54.3206 89.4648Z" fill="url(#paint7_linear)"/>
<path d="M77.6862 99.1145V69.2549H85.8187V80.8467H96.6823V69.2549H104.815V99.1145H96.6823V86.9765H85.8187V99.1145H77.6862Z" fill="url(#paint8_linear)"/>
<path d="M108.092 99.1145L118.409 69.2549H128.605L138.923 99.1145H130.851L129.334 93.7738H117.742L116.164 99.1145H108.092ZM119.502 88.0082H127.574L124.539 78.1764C124.418 77.8729 124.296 77.3874 124.175 76.7198C123.993 76.0522 123.811 75.2025 123.568 74.1708C123.386 74.8991 123.204 75.6274 123.022 76.2949C122.84 76.9625 122.658 77.6301 122.476 78.237L119.502 88.0082Z" fill="url(#paint9_linear)"/>
<path d="M142.2 99.1146V69.255H150.697C153.003 69.1943 155.37 69.3156 157.676 69.7405C158.89 69.9832 160.043 70.5295 161.075 71.2577C162.167 72.0467 163.017 73.1391 163.563 74.3529C164.17 75.6881 164.473 77.084 164.413 78.5406C164.534 80.5434 163.927 82.5461 162.713 84.1848C161.439 85.702 159.679 86.7338 157.737 87.0979L165.869 99.1146H156.644L149.786 87.4014V99.1146H142.2V99.1146ZM149.847 83.3958H151.364C152.7 83.5172 154.035 83.2137 155.188 82.4855C156.037 81.8179 156.462 80.7254 156.402 79.6937C156.523 78.5406 156.098 77.3268 155.249 76.4771C154.52 75.8702 153.246 75.5061 151.425 75.5061H149.786L149.847 83.3958Z" fill="url(#paint10_linear)"/>
<path d="M169.632 99.1145V69.2549H177.886V99.1145H169.632Z" fill="url(#paint11_linear)"/>
<path d="M184.865 99.1145V69.2549H192.694L203.983 84.6095C204.347 85.2164 204.711 85.8233 205.075 86.4909C205.561 87.462 206.107 88.5544 206.714 89.8896C206.532 88.6758 206.41 87.5227 206.35 86.6123C206.289 85.6413 206.228 84.7916 206.228 84.0633V69.3156H214.057V99.1752H206.228L194.94 83.7599C194.515 83.153 194.151 82.5461 193.848 81.8785C193.362 80.9074 192.816 79.815 192.209 78.5405C192.391 79.815 192.512 80.9074 192.573 81.8785C192.634 82.8495 192.694 83.6992 192.694 84.4275V99.1752H184.865V99.1145Z" fill="url(#paint12_linear)"/>
<path d="M235.056 88.1295V81.8784H251.079C251.079 82.0604 251.079 82.3032 251.139 82.546C251.139 82.7887 251.139 83.1529 251.139 83.6384C251.139 88.7971 249.804 92.7419 247.073 95.5944C244.342 98.4468 240.518 99.8427 235.603 99.8427C233.418 99.9034 231.233 99.5392 229.169 98.7503C227.288 98.022 225.528 96.8689 224.132 95.4123C222.675 93.9557 221.583 92.2564 220.855 90.3143C220.066 88.3722 219.702 86.3088 219.702 84.1846C219.702 82.0604 220.066 79.997 220.855 78.0549C222.433 74.2314 225.528 71.1969 229.412 69.6796C231.415 68.8906 233.539 68.5265 235.663 68.5872C238.334 68.5265 241.004 69.1334 243.432 70.3472C245.738 71.561 247.68 73.321 249.136 75.5059L242.096 78.9045C241.368 77.8121 240.397 76.9624 239.244 76.2949C238.152 75.7486 236.938 75.4452 235.724 75.4452C233.539 75.3238 231.415 76.2342 229.958 77.8728C228.562 79.5114 227.834 81.6963 227.834 84.5487C227.834 87.4012 228.562 89.6467 229.958 91.2854C231.415 92.924 233.539 93.8344 235.724 93.713C237.545 93.7737 239.365 93.2275 240.883 92.1957C242.218 91.2247 243.128 89.7681 243.31 88.1295H235.056Z" fill="url(#paint13_linear)"/>
<path d="M194.241 123C193.331 123 192.36 123 191.389 123C179.858 122.818 168.387 122.029 156.977 120.572L147.995 119.298C146.053 118.994 144.05 118.691 142.169 118.387C141.137 118.205 140.045 118.023 139.013 117.841C135.614 117.295 132.155 116.688 128.756 116.081H128.696C126.025 115.596 123.294 115.11 120.624 114.685C110.488 112.925 101.385 111.408 92.949 110.073C89.2469 112.258 85.3627 114.018 81.2965 115.292C76.1985 116.931 70.9184 117.963 65.5777 118.387C63.2714 118.57 60.9045 118.691 58.5376 118.691C55.2603 118.691 51.9223 118.509 48.645 118.145C42.7581 117.538 36.9925 116.203 31.3483 114.261C29.8917 113.714 28.4958 113.168 27.1606 112.5C26.4931 112.136 25.7648 111.772 25.0972 111.347C24.3689 110.923 23.762 110.376 23.2158 109.83L22.791 109.284C22.6696 109.102 22.5482 108.859 22.4268 108.616C22.3662 108.495 22.3661 108.374 22.3054 108.252C22.3054 108.191 22.2447 108.131 22.2447 108.07L22.0626 107.463C21.9413 107.038 21.8806 106.553 21.8806 106.128C21.8806 106.067 21.8806 106.007 21.8806 105.946C21.8806 105.764 21.9413 105.582 22.002 105.4C22.0627 105.157 22.184 104.914 22.3054 104.671C22.7909 103.882 23.5799 103.276 24.4296 102.972C24.6723 102.851 24.9151 102.79 25.2186 102.669C25.34 102.608 25.4613 102.608 25.6434 102.547C25.8861 102.487 26.1896 102.426 26.4324 102.365C26.5538 102.365 26.6751 102.304 26.8572 102.304C29.4669 101.88 32.1372 101.698 34.8076 101.758C35.2324 101.758 35.6573 101.758 36.2642 101.758C38.9346 101.819 41.8477 101.94 45.6712 102.183C57.5665 103.093 69.3405 104.611 83.4813 106.553C87.0013 107.038 90.6428 107.585 94.3449 108.131C97.3187 106.189 100.171 104.065 102.842 101.698H103.995C101.385 104.125 98.5932 106.31 95.6194 108.313C103.448 109.466 111.763 110.801 121.049 112.318L130.456 113.896L139.377 115.353C140.47 115.535 141.562 115.717 142.594 115.838C144.536 116.142 146.478 116.445 148.42 116.749L157.341 117.963C168.691 119.419 180.161 120.269 191.51 120.572C193.634 120.633 195.758 120.633 197.822 120.633C205.954 120.694 214.087 120.208 222.159 119.298C230.716 118.327 239.213 116.627 247.527 114.261C248.134 114.018 248.802 113.836 249.409 113.654C250.623 113.289 251.715 112.925 252.807 112.5L255.296 111.59L257.663 110.619C258.452 110.316 259.18 109.951 259.908 109.648L260.272 109.466L260.394 109.405L262.093 108.616C262.518 108.434 262.882 108.191 263.307 108.009C264.278 107.524 265.127 107.099 265.977 106.553C269.74 104.489 273.199 101.94 276.355 99.0879C277.205 98.2989 277.933 97.51 278.722 96.6603C279.208 96.1141 279.45 95.7499 279.45 95.7499C279.45 95.6893 279.511 95.6893 279.572 95.6893H279.632C279.693 95.7499 279.693 95.8106 279.693 95.8713C278.843 97.1458 277.812 98.2989 276.719 99.3914C273.624 102.426 270.165 105.096 266.463 107.342C260.697 110.801 254.507 113.593 248.073 115.656C239.759 118.327 231.202 120.208 222.523 121.301C212.994 122.454 203.587 123 194.241 123ZM34.0794 103.397C31.7731 103.336 29.4062 103.518 27.1 103.882C26.9786 103.882 26.8572 103.943 26.7358 103.943C26.4931 104.004 26.2503 104.065 26.0683 104.125C25.9469 104.186 25.8254 104.186 25.7041 104.247C25.4613 104.307 25.2792 104.368 25.0972 104.489C24.5509 104.671 24.0048 105.036 23.7013 105.521C23.4586 106.067 23.3978 106.614 23.5799 107.16L23.7013 107.645C23.7013 107.706 23.762 107.767 23.762 107.827C23.8227 107.949 23.8227 108.07 23.8834 108.191C23.944 108.313 24.0048 108.434 24.0655 108.495L24.3689 108.859C25.4006 109.83 26.5537 110.619 27.8282 111.226C29.1634 111.894 30.4986 112.44 31.8945 112.986C37.3567 114.928 43.0616 116.263 48.8271 116.931C52.2865 117.356 55.8065 117.538 59.2658 117.538C61.39 117.538 63.4535 117.477 65.4562 117.295C70.7363 116.931 75.895 115.899 80.9323 114.382C84.5737 113.229 88.0938 111.712 91.4317 109.891C88.7007 109.466 85.8482 109.041 83.0564 108.616C69.037 106.553 57.263 104.975 45.4284 103.943C41.6656 103.64 38.8132 103.458 36.1428 103.458C35.3539 103.397 34.6863 103.397 34.0794 103.397ZM129.424 66.1937H129.06C129.606 65.1013 130.213 63.9482 130.698 62.7951C131.973 60.1247 132.58 58.6681 132.58 58.6075C132.58 58.5468 132.64 58.5468 132.701 58.5468H132.762C132.823 58.5468 132.823 58.6075 132.823 58.6075C132.823 58.6681 132.823 58.6682 132.823 58.7288C132.823 58.7895 132.216 60.2461 131.002 62.9165C130.516 64.0089 129.97 65.1013 129.424 66.1937Z" fill="#385A6F"/>
<path d="M37.9637 39.9756C38.9955 40.2184 39.9665 40.6432 40.8162 41.3108C41.4231 41.7356 41.8479 42.3425 42.03 43.0708C42.1514 43.6777 41.9693 44.3453 41.5445 44.8308C40.9376 45.4984 40.1486 45.9839 39.2989 46.2267C38.692 46.4695 38.0851 46.5302 37.4782 46.4088C36.9927 46.3481 36.5072 46.166 36.0824 45.8626C35.7789 45.6805 35.4754 45.4377 35.2934 45.1343C35.172 44.8915 35.172 44.7094 35.2934 44.7094C35.6575 44.6488 36.143 44.4667 36.7499 44.3453C37.3568 44.1632 37.903 43.9205 38.3885 43.617C39.2989 43.0101 39.7238 42.4032 39.5417 41.9784C39.3596 41.4929 38.692 41.1894 37.5389 40.9467C35.9609 40.7039 34.3223 40.6432 32.7444 40.7646C30.3168 40.886 27.8891 41.1894 25.5222 41.6142C23.7622 41.9177 22.0022 42.2818 20.1814 42.7067C18.3607 43.1922 16.54 43.7384 14.78 44.406C13.02 45.0736 11.3207 45.8626 9.68206 46.7122C8.10411 47.5619 6.58685 48.5936 5.13028 49.8074C4.03785 50.5964 3.18816 51.5675 2.52057 52.7813C2.09573 53.6916 2.09573 54.3592 2.52057 54.8447C2.64195 55.0268 2.64196 55.0875 2.45989 55.1482C2.21713 55.1482 1.97432 55.1482 1.73156 55.0268C1.42811 54.9054 1.12466 54.7234 0.821206 54.4806C0.517754 54.2378 0.274993 53.8737 0.214302 53.4489C-0.0891495 52.4778 -0.0891051 51.3854 0.335727 50.4143C0.76056 49.3826 1.42812 48.4722 2.27779 47.6833C3.18814 46.7729 4.21988 45.9839 5.31231 45.3164C6.46542 44.5881 7.67924 43.9205 8.89305 43.3136C11.0779 42.2212 13.3842 41.3108 15.7511 40.6432C20.667 39.2473 25.8257 38.7011 30.9237 39.0046C33.3513 39.0046 35.6575 39.3687 37.9637 39.9756ZM10.9565 65.4049C11.1993 64.1304 11.5027 62.8559 11.9276 61.642C12.3524 60.3069 12.8986 58.911 13.5055 57.5151C14.1124 56.1192 14.7194 54.7234 15.4476 53.3882C16.1152 52.1137 16.7828 50.8392 17.5718 49.6254C18.2394 48.5936 18.9677 47.5619 19.7566 46.5909C20.3635 45.8626 21.0312 45.195 21.8201 44.6488C22.1843 44.406 22.6698 44.2239 23.0946 44.1025C23.5194 43.9812 23.9443 43.9812 24.3691 43.9812C24.6725 43.9812 25.0367 44.0419 25.3401 44.1025C25.5829 44.1632 25.6436 44.2239 25.5829 44.3453C24.976 45.0129 24.187 45.8626 23.3981 46.955C22.5484 47.9867 21.6987 49.2005 20.7883 50.5357C19.878 51.8709 19.0283 53.2668 18.118 54.7234C17.2683 56.1799 16.4186 57.7579 15.6903 59.2751C14.9621 60.7924 14.3552 62.3703 13.809 63.9483C13.3234 65.4049 12.9593 66.8614 12.7772 68.3787C12.7166 68.6821 12.5951 68.8642 12.3524 68.8642C12.0489 68.8642 11.8062 68.6821 11.6241 68.4394C11.3207 68.0752 11.1386 67.6504 10.9565 67.2256C10.8352 66.6187 10.7745 66.0118 10.9565 65.4049Z" fill="#385A6F"/>
<path d="M42.0907 40.5824C42.212 41.1893 42.03 41.7962 41.6052 42.2817C41.059 43.1314 40.3913 43.9811 39.663 44.77C38.8134 45.6804 37.8424 46.6514 36.75 47.6832C35.6575 48.7149 34.5044 49.7467 33.2906 50.7784C32.0768 51.8101 30.8629 52.7812 29.6491 53.7522C28.4353 54.7233 27.2822 55.5729 26.2505 56.3012C26.0077 56.726 25.8257 57.0902 25.6436 57.3936C25.5222 57.5757 25.4615 57.8185 25.4008 58.0612C25.3401 58.2433 25.4009 58.2433 25.5222 58.1219C25.7043 58.0005 26.0077 57.6971 26.4933 57.2116C26.9788 56.726 27.525 56.3012 28.1319 55.755C28.7388 55.2695 29.285 54.784 29.8312 54.2984C30.2561 53.9343 30.6809 53.6308 31.1664 53.3881C31.4092 53.2667 31.7733 53.2667 32.0161 53.3274C32.3195 53.4488 32.5623 53.6308 32.7444 53.8736C32.9265 54.1164 33.1085 54.3591 33.2906 54.6019C33.4119 54.784 33.4726 55.0267 33.594 55.2695C33.6547 55.4515 33.5334 55.755 33.1692 56.2405C32.8051 56.726 32.4409 57.1509 32.0768 57.6364C31.6519 58.1219 31.3485 58.5467 31.045 58.9109C30.7416 59.275 30.6809 59.5178 30.8629 59.6392C31.1057 59.6392 31.3485 59.5785 31.5306 59.4571C31.9554 59.275 32.3196 59.093 32.7444 58.8502C33.1692 58.6074 33.7154 58.304 34.2009 57.9399C34.7471 57.5757 35.2327 57.2723 35.7182 56.9688C36.2037 56.6654 36.6285 56.3619 36.932 56.1191C37.1747 55.9371 37.4175 55.755 37.6603 55.5122C38.1458 55.1481 38.51 55.0874 38.8134 55.2695C39.1169 55.4515 39.1169 55.6943 38.8134 56.0585C38.6921 56.2405 38.3886 56.544 37.9638 57.0295C37.5389 57.515 37.0534 58.0005 36.4465 58.5468C35.8396 59.093 35.2327 59.5785 34.5651 60.064C33.9582 60.4888 33.3513 60.7923 32.623 60.9744C31.9554 61.1564 31.2271 61.1564 30.5595 60.9744C30.074 60.853 29.5885 60.5495 29.2243 60.1854C28.9209 59.8212 28.6781 59.3964 28.5568 58.9716C28.4354 58.5467 28.4354 58.1219 28.5568 57.6971C28.1319 58.0612 27.7678 58.4254 27.343 58.7288C27.0395 59.0323 26.6754 59.3357 26.3719 59.5785C26.0685 59.8819 25.765 60.064 25.5829 60.2461C25.3402 60.4888 25.0974 60.6102 24.7939 60.7316C24.4298 60.853 24.0657 60.9137 23.7015 60.9137C23.3374 60.9137 23.034 60.853 22.7305 60.7316C22.427 60.6102 22.245 60.3675 22.1843 60.064C22.245 59.275 22.427 58.5468 22.7912 57.8792C23.3981 56.544 24.005 55.2088 24.7332 53.9343C25.5829 52.417 26.554 50.7784 27.6464 49.0791C28.7388 47.3797 29.8919 45.7411 31.045 44.2238C32.0768 42.828 33.2906 41.4928 34.5044 40.279C35.354 39.3686 36.4465 38.6403 37.5996 38.1548C37.9638 38.0334 38.2672 37.9727 38.6313 38.0334C39.0562 38.0334 39.481 38.1548 39.9058 38.3369C40.3307 38.5189 40.7555 38.8224 41.059 39.1865C41.6052 39.49 41.9086 40.0362 42.0907 40.5824ZM40.452 39.6114C40.3307 39.49 40.0879 39.5507 39.663 39.9148C39.1168 40.3397 38.6313 40.8252 38.1458 41.3714C37.5389 41.9783 36.8713 42.7066 36.1431 43.5562C35.4148 44.4059 34.6865 45.2556 33.9582 46.1659C32.1982 48.2901 30.2561 50.7177 28.0712 53.5095C28.3747 53.206 28.9816 52.7205 29.7706 51.9922C30.5595 51.2639 31.4699 50.4143 32.441 49.4432C33.412 48.4722 34.383 47.5011 35.4147 46.4087C36.4465 45.3163 37.3568 44.3452 38.1458 43.4349C38.8134 42.6459 39.4203 41.8569 40.0272 41.0072C40.4521 40.279 40.6341 39.8541 40.452 39.6114Z" fill="#385A6F"/>
<path d="M47.128 56.0584C47.6742 55.6943 47.917 55.5729 47.9777 55.6943C48.0384 55.8157 47.917 56.1191 47.6743 56.4833C47.3708 56.9688 47.0066 57.4543 46.6425 57.9398C46.1569 58.486 45.6714 59.0322 45.1252 59.5178C44.579 60.0033 44.0328 60.4281 43.3653 60.853C42.8797 61.2171 42.2728 61.4599 41.6659 61.5813C41.1804 61.6419 40.6948 61.5205 40.27 61.3385C39.6631 61.0957 39.1169 60.7316 38.5707 60.3068C38.0245 59.8819 37.5996 59.3357 37.2355 58.7895C36.8713 58.2433 36.75 57.6364 36.8713 57.0295C36.9927 56.4833 37.1748 55.9977 37.4782 55.5729C37.7817 55.1481 38.1459 54.7232 38.5707 54.3591C38.9348 54.0556 39.3597 53.7522 39.8452 53.5094C40.2093 53.3274 40.5735 53.206 40.9376 53.206C41.2411 53.206 41.5445 53.2667 41.7872 53.3881C42.0907 53.5094 42.3942 53.6915 42.6369 53.9343C42.8797 54.1163 43.1224 54.4198 43.2438 54.7232C43.3652 54.966 43.4866 55.3301 43.4259 55.6336C43.3045 56.0584 43.1225 56.4226 42.819 56.6653C42.4549 57.0902 42.03 57.4543 41.6052 57.8184C41.059 58.304 40.4521 58.7895 39.8452 59.1536C40.8769 59.275 41.848 59.0323 42.7583 58.5467C44.397 57.9398 45.7928 57.0902 47.128 56.0584ZM42.2121 55.2694C42.0907 55.2088 41.8479 55.2695 41.4231 55.4515C40.9983 55.6943 40.6341 55.937 40.27 56.2405C39.9058 56.5439 39.5417 56.9081 39.299 57.3329C39.0562 57.6364 38.9955 58.0005 39.1169 58.3647C39.4204 58.1826 39.6631 58.0005 39.9059 57.7578C40.27 57.4543 40.6342 57.1508 40.9983 56.7867C41.3625 56.4226 41.6659 56.1191 41.9087 55.8157C42.2121 55.5729 42.3335 55.3908 42.2121 55.2694Z" fill="#385A6F"/>
<path d="M46.9459 75.2973C46.7638 75.5401 46.5211 75.7221 46.2177 75.7221C45.9142 75.7828 45.5501 75.7828 45.2466 75.7221C44.9432 75.6614 44.7004 75.4794 44.4576 75.2973C44.2756 74.9938 44.2756 74.6297 44.4576 74.3263C44.579 74.0228 44.8825 73.4766 45.368 72.6269C45.8535 71.7773 46.3997 70.8062 47.0673 69.6531C47.7349 68.5 48.5239 67.2255 49.3129 65.8296C50.1018 64.4337 50.9515 63.0378 51.8619 61.7027C52.7116 60.3068 53.5612 58.9716 54.4109 57.6364C55.2605 56.3012 55.9888 55.1481 56.6564 54.1164C57.324 53.0846 57.9309 52.235 58.4164 51.5674C58.6592 51.1426 58.9626 50.8391 59.3268 50.5356C59.6302 50.3536 59.9337 50.3536 60.2371 50.4749C60.5406 50.5963 60.844 50.7784 61.1475 51.0212C61.3902 51.2032 61.633 51.446 61.815 51.7495C61.9364 51.9315 61.9972 52.1743 61.9365 52.417C61.8758 52.5991 61.7544 52.7812 61.633 52.9633C61.5116 53.1453 61.2689 53.4488 60.9654 53.8736C60.662 54.2378 60.3585 54.784 59.873 55.3909L58.2344 57.6364C58.6592 57.2723 59.084 56.8474 59.5089 56.4833C59.9337 56.0585 60.3585 55.6943 60.662 55.3909C61.0261 55.0874 61.3296 54.784 61.5723 54.5412C61.6937 54.4198 61.8758 54.2984 61.9971 54.1771C62.1792 54.1164 62.422 54.1164 62.6647 54.1771C63.0289 54.2378 63.3323 54.2984 63.6358 54.4198C63.9392 54.5412 64.3034 54.6626 64.6069 54.8447C64.8496 54.966 65.0316 55.1481 65.153 55.3909C65.2137 55.5123 65.1531 55.755 64.971 55.9978C64.7889 56.3012 64.6068 56.544 64.3641 56.8474C64.1213 57.1509 63.8179 57.4543 63.5144 57.7578C63.211 58.0612 62.9075 58.3647 62.6647 58.6681C62.4827 58.9109 62.2399 59.093 62.1185 59.3964C61.9971 59.5785 61.9971 59.7606 62.0578 59.7606C62.1792 59.8213 62.6041 59.6999 63.211 59.3964C63.8179 59.093 64.5461 58.6682 65.3351 58.1826C66.1241 57.6971 66.8524 57.2116 67.52 56.7261C68.0055 56.4226 68.4304 56.0585 68.8552 55.755C69.28 55.3302 69.5835 55.2088 69.7655 55.4516C69.9476 55.6336 69.9476 55.9371 69.7048 56.3619C69.3406 56.7868 68.9766 57.1509 68.6124 57.4543C68.0055 58.0006 67.3379 58.6075 66.6703 59.2144C65.942 59.8213 65.2744 60.4282 64.5461 60.9137C64.1213 61.2778 63.5751 61.5813 63.0289 61.824C62.604 61.8847 62.1185 61.8847 61.6937 61.824C61.2082 61.7634 60.7834 61.5813 60.3585 61.3992C59.9337 61.2171 59.5695 60.9744 59.2661 60.6709C58.9626 60.4282 58.7805 60.064 58.7805 59.6999C58.7805 59.4571 58.8413 59.2144 58.9626 59.0323C59.084 58.7288 59.2661 58.4861 59.3874 58.1826C59.5695 57.8792 59.8123 57.5757 60.0551 57.2116C59.5089 57.6364 58.9626 58.1219 58.4164 58.5468C57.9309 58.9109 57.4453 59.3964 56.9598 59.882C56.4743 60.3675 56.0495 60.853 55.6247 61.3385C54.4715 63.0378 53.1364 65.1013 51.5584 67.5896C49.9805 70.0779 48.5846 72.5055 46.9459 75.2973Z" fill="#385A6F"/>
<path d="M72.1929 53.0844C72.5571 53.0844 72.9212 53.2058 73.2247 53.3879C73.5281 53.57 73.7102 53.8127 73.7709 54.1769C74.3778 54.2982 74.9847 54.6624 75.2881 55.2086C75.5916 55.7548 75.713 56.3617 75.6523 56.9686C76.3199 57.0293 77.0482 56.9079 77.6551 56.6652C78.262 56.4224 78.7475 56.0583 79.1723 55.5727C79.3544 55.3907 79.5365 55.2086 79.7792 55.0872C79.9006 55.0265 80.0827 54.9658 80.204 55.0265C80.3254 55.0872 80.3861 55.2086 80.3861 55.33C80.3861 55.512 80.3254 55.6941 80.204 55.8762C79.7185 56.6652 79.051 57.3935 78.262 57.879C77.2909 58.5466 76.1378 58.9107 74.924 59.0321C74.5599 59.5783 74.0743 60.1245 73.5888 60.5493C73.0426 61.0349 72.375 61.3383 71.6467 61.5204C71.2219 61.6418 70.7971 61.6418 70.4329 61.5204C69.9474 61.399 69.4618 61.2169 69.037 60.9135C68.6122 60.61 68.1873 60.2459 67.8839 59.7604C67.5804 59.2749 67.459 58.7286 67.5804 58.1824C67.6411 57.5755 67.8232 57.0293 68.066 56.4831C68.3087 55.8762 68.6729 55.33 69.037 54.8445C69.4011 54.3589 69.8867 53.9341 70.4329 53.6307C70.9791 53.2665 71.586 53.0844 72.1929 53.0844ZM70.4936 59.9424C70.615 60.1852 70.9184 60.1852 71.3433 59.9424C71.8288 59.6997 72.2536 59.3355 72.6177 58.9107C72.3143 58.6679 72.0108 58.3645 71.8287 58.0003C71.586 57.5755 71.4646 57.1507 71.4039 56.7259C70.9791 57.2721 70.615 57.9397 70.4329 58.6072C70.1901 59.0321 70.2508 59.5176 70.4936 59.9424Z" fill="#385A6F"/>
<path d="M85.9698 53.8129C86.1519 53.6309 86.3946 53.5702 86.6374 53.6916C86.9408 53.7523 87.1836 53.9343 87.4264 54.1164C87.6691 54.3591 87.9119 54.6019 88.094 54.8447C88.276 55.0874 88.3974 55.3302 88.4581 55.6336C88.4581 55.9371 88.3367 56.3012 88.1546 56.544C87.9119 56.9081 87.7298 57.333 87.4871 57.6971C87.305 58.0612 87.0622 58.4254 86.9408 58.7895C86.8194 59.093 86.8194 59.3358 87.0015 59.3964C87.1836 59.4571 87.5478 59.2751 87.9726 58.9109C88.4581 58.5468 88.9437 58.0613 89.4899 57.515C89.2471 57.1509 89.1257 56.7261 89.2471 56.3619C89.3078 55.9371 89.4898 55.573 89.6719 55.2088C89.9147 54.8447 90.2181 54.5412 90.5216 54.2985C90.825 54.0557 91.1285 53.9343 91.4926 53.9343H91.5533C91.8567 53.9343 92.1602 53.995 92.3423 54.1771C92.5244 54.3591 92.6457 54.6019 92.6457 54.8447C92.6457 55.1481 92.585 55.4516 92.4636 55.755C92.3422 56.1192 92.1602 56.4226 91.9782 56.7261C92.4637 56.9688 93.0099 57.1509 93.5561 57.0902C94.2844 57.0902 94.9519 56.7261 95.4375 56.2405C95.5589 56.1192 95.741 55.9978 95.8623 55.9371C95.9837 55.8764 96.1051 55.8764 96.2265 55.8764C96.3479 55.8764 96.4085 55.9978 96.4085 56.0585C96.4085 56.1799 96.3479 56.3012 96.1658 56.4833C95.8017 56.9081 95.3768 57.333 94.8912 57.6364C94.4664 58.0006 93.9809 58.2433 93.4954 58.4254C93.0099 58.6075 92.5244 58.7289 91.9782 58.7289C91.4319 58.7289 90.9464 58.6075 90.4609 58.3647C89.7933 59.0323 89.065 59.6999 88.2761 60.2461C87.6692 60.7316 86.9409 61.0351 86.2126 61.0958C85.9698 61.0958 85.7877 61.0351 85.6057 60.9137C85.3629 60.7923 85.1201 60.6103 84.8773 60.3675C84.6346 60.1854 84.4525 59.9427 84.2704 59.6392C84.0277 59.2144 83.8456 58.7289 83.785 58.2433C83.785 58.0006 83.785 57.8185 83.785 57.5757C83.4815 57.8792 83.1173 58.2433 82.7532 58.6075C82.389 58.9716 82.0249 59.3358 81.6608 59.6999C81.2967 60.0034 80.9325 60.3068 80.629 60.5496C80.3863 60.7316 80.0829 60.853 79.7794 60.9137C79.5973 60.9137 79.3546 60.853 79.1725 60.7923C78.9297 60.6709 78.6263 60.5496 78.3835 60.4282C78.1407 60.2461 77.898 60.064 77.6552 59.882C77.4732 59.6999 77.291 59.4571 77.291 59.2144C77.291 58.7895 77.4124 58.3647 77.5945 58.0006C77.8373 57.4543 78.08 56.8474 78.4442 56.2405C78.7476 55.6336 79.1118 54.966 79.5366 54.4198C79.8401 53.9343 80.2042 53.4488 80.629 53.024C80.8111 52.9026 81.0539 52.8419 81.2967 52.9026C81.6001 52.9633 81.8428 53.0846 82.1463 53.2667C82.4497 53.4488 82.6925 53.6916 82.8746 53.9343C83.0567 54.1164 83.178 54.3591 83.2994 54.6626C83.2994 54.9054 83.2388 55.0874 83.1174 55.2695C82.9353 55.5729 82.7532 55.8764 82.5105 56.1798C82.2677 56.4833 82.0249 56.8475 81.7821 57.2116C81.5394 57.5757 81.2966 57.8792 81.1146 58.1219C80.9932 58.304 80.8718 58.4861 80.7504 58.7289C80.6897 58.8502 80.8111 58.9109 80.9932 58.7895C81.236 58.6682 81.418 58.5468 81.6608 58.3647C81.9036 58.1826 82.207 57.9399 82.5105 57.6364C82.8139 57.333 83.1781 57.0295 83.4815 56.6654C83.8456 56.3012 84.1491 55.9978 84.4525 55.6336C84.6346 55.2695 84.8774 54.9054 85.1201 54.6019C85.4236 54.3592 85.6663 54.0557 85.9698 53.8129Z" fill="#385A6F"/>
<path d="M105.633 56.0584C106.18 55.6943 106.422 55.5729 106.483 55.6943C106.544 55.8157 106.422 56.1191 106.18 56.4833C105.876 56.9688 105.512 57.4543 105.148 57.9398C104.662 58.486 104.177 59.0322 103.631 59.5178C103.084 60.0033 102.538 60.4281 101.871 60.853C101.385 61.2171 100.778 61.4599 100.171 61.5813C99.6858 61.6419 99.2003 61.5205 98.7754 61.3385C98.1685 61.0957 97.6224 60.7316 97.0761 60.3068C96.5299 59.8819 96.105 59.3357 95.7409 58.7895C95.3768 58.2433 95.2554 57.6364 95.3768 57.0295C95.4982 56.4833 95.6802 55.9977 95.9837 55.5729C96.2871 55.1481 96.6513 54.7232 97.0761 54.3591C97.4403 54.0556 97.8651 53.7522 98.3506 53.5094C98.7148 53.3274 99.0789 53.206 99.443 53.206C99.7465 53.206 100.05 53.2667 100.293 53.3881C100.596 53.5094 100.9 53.6915 101.142 53.9343C101.385 54.1163 101.628 54.4198 101.749 54.7232C101.871 54.966 101.992 55.3301 101.931 55.6336C101.81 56.0584 101.628 56.4226 101.324 56.6653C100.96 57.0902 100.535 57.4543 100.111 57.8184C99.5644 58.304 98.9575 58.7895 98.3506 59.1536C99.3824 59.275 100.353 59.0323 101.264 58.5467C102.902 57.9398 104.359 57.0902 105.633 56.0584ZM100.778 55.2694C100.657 55.2088 100.414 55.2695 99.9892 55.4515C99.5644 55.6943 99.2002 55.937 98.8361 56.2405C98.472 56.5439 98.1078 56.9081 97.8651 57.3329C97.6223 57.6364 97.5617 58.0005 97.683 58.3647C97.9865 58.1826 98.2292 58.0005 98.472 57.7578C98.8361 57.4543 99.2003 57.1508 99.5644 56.7867C99.9286 56.4226 100.232 56.1191 100.475 55.8157C100.778 55.5729 100.839 55.3908 100.778 55.2694Z" fill="#385A6F"/>
<path d="M107.393 55.3301C107.515 55.4515 107.697 55.5122 107.879 55.4515C108.122 55.4515 108.364 55.3908 108.547 55.3301C108.789 55.2694 108.971 55.148 109.214 55.0266C109.396 54.9659 109.518 54.8446 109.639 54.7232C109.7 54.6018 109.821 54.5411 110.064 54.5411C110.307 54.5411 110.549 54.6018 110.792 54.6625C111.035 54.7839 111.278 54.9053 111.46 55.0873C111.642 55.2694 111.824 55.4515 111.824 55.7549C111.824 56.1191 111.702 56.4225 111.52 56.726C111.278 57.1508 111.035 57.5756 110.792 57.9398C110.549 58.3039 110.367 58.6074 110.185 58.9715C110.064 59.275 110.064 59.3963 110.307 59.3963C110.671 59.3357 111.035 59.1536 111.278 58.9108C111.702 58.6074 112.127 58.2432 112.613 57.8184C113.098 57.3936 113.523 56.9687 113.948 56.6046L114.858 55.6942C115.283 55.3301 115.647 55.2087 115.89 55.2694C116.133 55.3301 116.133 55.6335 115.769 56.1191C115.587 56.3618 115.344 56.726 114.98 57.2115C114.616 57.697 114.251 58.1825 113.827 58.7287C113.402 59.275 112.916 59.7605 112.431 60.246C112.006 60.6708 111.52 61.035 110.913 61.2171C110.61 61.2777 110.307 61.2777 110.003 61.2171C109.578 61.1564 109.153 60.9743 108.789 60.7922C108.364 60.6101 108 60.3674 107.697 60.0032C107.393 59.6998 107.272 59.3356 107.272 58.9108C107.272 58.5467 107.393 58.1218 107.515 57.7577C107.697 57.3329 107.879 56.908 108.122 56.4832C107.636 56.6046 107.09 56.6653 106.604 56.5439C106.119 56.4832 105.694 56.2404 105.33 55.937C105.027 55.6942 104.784 55.3301 104.723 54.9053C104.723 54.4197 104.905 53.9342 105.269 53.6308C105.573 53.2059 106.058 52.9025 106.544 52.7811C106.908 52.7204 107.272 52.7811 107.575 53.0239C107.818 53.2666 107.94 53.6308 107.94 53.9949C108 54.5411 107.758 55.0266 107.393 55.3301Z" fill="#385A6F"/>
<path d="M126.936 53.0844C127.3 53.0844 127.664 53.2058 127.967 53.3879C128.271 53.57 128.453 53.8127 128.514 54.1769C129.121 54.2982 129.727 54.6624 130.031 55.2086C130.334 55.7548 130.456 56.3617 130.395 56.9686C131.063 57.0293 131.791 56.9079 132.398 56.6652C133.005 56.4224 133.49 56.0583 133.915 55.5727C134.097 55.3907 134.279 55.2086 134.522 55.0872C134.643 55.0265 134.825 54.9658 134.947 55.0265C135.068 55.0872 135.129 55.2086 135.129 55.33C135.129 55.512 135.068 55.6941 134.947 55.8762C134.461 56.6652 133.794 57.3935 133.005 57.879C132.034 58.5466 130.881 58.9107 129.667 59.0321C129.303 59.5783 128.817 60.1245 128.332 60.5493C127.785 61.0349 127.118 61.3383 126.39 61.5204C125.965 61.6418 125.54 61.6418 125.176 61.5204C124.69 61.399 124.205 61.2169 123.78 60.9135C123.355 60.61 122.93 60.2459 122.627 59.7604C122.323 59.2749 122.202 58.7286 122.323 58.1824C122.384 57.5755 122.566 57.0293 122.809 56.4831C123.052 55.8762 123.416 55.33 123.78 54.8445C124.144 54.3589 124.63 53.9341 125.176 53.6307C125.783 53.2665 126.329 53.0844 126.936 53.0844ZM125.297 59.9424C125.419 60.1852 125.722 60.1852 126.147 59.9424C126.632 59.6997 127.057 59.3355 127.421 58.9107C127.118 58.6679 126.814 58.3645 126.632 58.0003C126.39 57.5755 126.268 57.1507 126.208 56.7259C125.783 57.2721 125.418 57.9397 125.236 58.6072C124.994 59.0321 125.054 59.5176 125.297 59.9424Z" fill="#385A6F"/>
<path d="M151.576 40.3397C151.576 40.8252 151.394 41.3108 151.03 41.7356C150.423 42.5853 149.755 43.3742 149.088 44.1632C148.178 45.1949 146.903 46.4694 145.264 48.1081C143.626 49.686 141.623 51.6888 139.195 54.1164C137.86 55.4516 136.646 56.9082 135.615 58.4861C135.979 58.4861 136.343 58.3648 136.646 58.2434C137.193 58.0613 137.739 57.8185 138.285 57.5151C138.831 57.2116 139.377 56.9082 139.924 56.6047C140.348 56.362 140.713 56.1192 141.077 55.8158C141.259 55.6337 141.441 55.5123 141.744 55.4516C141.866 55.4516 141.987 55.5123 141.987 55.6337C141.987 55.8158 141.987 55.9978 141.866 56.1192C141.744 56.362 141.623 56.544 141.441 56.7261C139.863 58.1827 138.649 59.2144 137.799 59.882C137.253 60.3675 136.646 60.7317 135.979 60.9744C135.675 61.0351 135.372 60.9744 135.129 60.8531C134.886 60.7317 134.644 60.4889 134.462 60.3068C132.823 62.6131 130.577 65.4655 130.092 66.2545C129.849 66.4973 128.817 66.3152 128.757 66.2545C129.728 63.5841 130.395 62.5524 131.609 59.882C132.823 57.2116 132.58 57.2116 133.612 55.6944C134.644 54.1771 135.675 52.6599 136.768 51.0819C137.86 49.504 138.953 47.9867 140.106 46.4694C141.198 44.9522 142.291 43.617 143.262 42.4032C144.111 41.3715 144.961 40.4004 145.932 39.49C146.418 38.9438 147.085 38.4583 147.753 38.2156C148.238 38.0942 148.784 38.0942 149.27 38.2762C149.695 38.3976 150.059 38.5797 150.423 38.8831C150.726 39.1259 150.969 39.3687 151.151 39.7328C151.394 39.8542 151.515 40.097 151.576 40.3397ZM149.573 40.4611C149.452 40.4004 149.209 40.5218 148.784 40.8252C148.238 41.3108 147.753 41.7963 147.267 42.3425C146.66 43.0101 145.993 43.7384 145.264 44.5881C144.536 45.4377 143.747 46.4087 142.958 47.3798C142.169 48.3508 141.38 49.3826 140.652 50.3536C139.863 51.3854 139.135 52.3564 138.528 53.2668C139.742 52.053 141.077 50.7178 142.473 49.3219C143.869 47.8653 145.082 46.5301 146.235 45.3163C147.389 44.0418 148.238 43.0101 148.967 42.0997C149.513 41.1287 149.756 40.6432 149.573 40.4611Z" fill="#385A6F"/>
<defs>
<linearGradient id="paint0_linear" x1="50.3268" y1="44.2657" x2="30.6291" y2="43.4624" gradientUnits="userSpaceOnUse">
<stop stop-color="white"/>
<stop offset="1" stop-color="#9FC0BD"/>
</linearGradient>
<linearGradient id="paint1_linear" x1="61.3644" y1="22.741" x2="42.4885" y2="-0.570786" gradientUnits="userSpaceOnUse">
<stop stop-color="white"/>
<stop offset="1" stop-color="#9FC0BD"/>
</linearGradient>
<linearGradient id="paint2_linear" x1="96.9756" y1="12.7572" x2="54.3347" y2="59.6488" gradientUnits="userSpaceOnUse">
<stop stop-color="white"/>
<stop offset="1" stop-color="#9FC0BD"/>
</linearGradient>
<linearGradient id="paint3_linear" x1="99.6746" y1="20.8426" x2="89.7717" y2="17.0586" gradientUnits="userSpaceOnUse">
<stop stop-color="white"/>
<stop offset="1" stop-color="#9FC0BD"/>
</linearGradient>
<linearGradient id="paint4_linear" x1="27.4046" y1="58.3694" x2="55.2714" y2="43.3653" gradientUnits="userSpaceOnUse">
<stop stop-color="white"/>
<stop offset="1" stop-color="#9FC0BD"/>
</linearGradient>
<linearGradient id="paint5_linear" x1="68.5367" y1="13.6826" x2="38.4708" y2="19.9832" gradientUnits="userSpaceOnUse">
<stop stop-color="white"/>
<stop offset="1" stop-color="#9FC0BD"/>
</linearGradient>
<linearGradient id="paint6_linear" x1="61.3625" y1="58.6306" x2="74.5229" y2="21.7688" gradientUnits="userSpaceOnUse">
<stop stop-color="white"/>
<stop offset="1" stop-color="#9FC0BD"/>
</linearGradient>
<linearGradient id="paint7_linear" x1="57.3197" y1="84.2819" x2="232.512" y2="82.6635" gradientUnits="userSpaceOnUse">
<stop stop-color="#E3B24C"/>
<stop offset="0.8275" stop-color="#FFE4A0"/>
<stop offset="1" stop-color="#E8B751"/>
</linearGradient>
<linearGradient id="paint8_linear" x1="57.3218" y1="84.5187" x2="232.514" y2="82.9002" gradientUnits="userSpaceOnUse">
<stop stop-color="#E3B24C"/>
<stop offset="0.8275" stop-color="#FFE4A0"/>
<stop offset="1" stop-color="#E8B751"/>
</linearGradient>
<linearGradient id="paint9_linear" x1="57.325" y1="84.8642" x2="232.518" y2="83.2458" gradientUnits="userSpaceOnUse">
<stop stop-color="#E3B24C"/>
<stop offset="0.8275" stop-color="#FFE4A0"/>
<stop offset="1" stop-color="#E8B751"/>
</linearGradient>
<linearGradient id="paint10_linear" x1="57.3272" y1="85.0987" x2="232.52" y2="83.4803" gradientUnits="userSpaceOnUse">
<stop stop-color="#E3B24C"/>
<stop offset="0.8275" stop-color="#FFE4A0"/>
<stop offset="1" stop-color="#E8B751"/>
</linearGradient>
<linearGradient id="paint11_linear" x1="57.3293" y1="85.2805" x2="232.522" y2="83.662" gradientUnits="userSpaceOnUse">
<stop stop-color="#E3B24C"/>
<stop offset="0.8275" stop-color="#FFE4A0"/>
<stop offset="1" stop-color="#E8B751"/>
</linearGradient>
<linearGradient id="paint12_linear" x1="57.3311" y1="85.5178" x2="232.524" y2="83.8995" gradientUnits="userSpaceOnUse">
<stop stop-color="#E3B24C"/>
<stop offset="0.8275" stop-color="#FFE4A0"/>
<stop offset="1" stop-color="#E8B751"/>
</linearGradient>
<linearGradient id="paint13_linear" x1="57.3346" y1="85.8678" x2="232.527" y2="84.2494" gradientUnits="userSpaceOnUse">
<stop stop-color="#E3B24C"/>
<stop offset="0.8275" stop-color="#FFE4A0"/>
<stop offset="1" stop-color="#E8B751"/>
</linearGradient>
<clipPath id="clip0">
<rect width="62.4734" height="64.5723" fill="white" transform="matrix(-0.936121 -0.351677 -0.356942 0.934127 101.067 17.1978)"/>
</clipPath>
</defs>
</svg>
