<?xml version="1.0" encoding="utf-8"?>
<!-- Generator: Adobe Illustrator 22.0.1, SVG Export Plug-In . SVG Version: 6.00 Build 0)  -->
<svg version="1.1" id="Layer_1" xmlns="http://www.w3.org/2000/svg" xmlns:xlink="http://www.w3.org/1999/xlink" x="0px" y="0px"
	 viewBox="0 0 519 75" style="enable-background:new 0 0 519 75;" xml:space="preserve">
<style type="text/css">
	.st0{opacity:0.23;}
	.st1{fill:#FFFFFF;filter:url(#Adobe_OpacityMaskFilter);}
	.st2{mask:url(#path-1-outside-1_2_);}
	.st3{fill:url(#SVGID_1_);}
</style>
<g class="st0">
	<defs>
		<filter id="Adobe_OpacityMaskFilter" filterUnits="userSpaceOnUse" x="0" y="0.3" width="518.6" height="74.3">
			<feColorMatrix  type="matrix" values="1 0 0 0 0  0 1 0 0 0  0 0 1 0 0  0 0 0 1 0"/>
		</filter>
	</defs>
	<mask maskUnits="userSpaceOnUse" x="0" y="0.3" width="518.6" height="74.3" id="path-1-outside-1_2_">
		<rect x="0" y="0.3" class="st1" width="519" height="75"/>
		<path d="M1,57.8h10c0,2,0.7,3.6,2.1,4.8c1.4,1.2,3.1,1.7,5.1,1.7c1.2,0,2.3-0.3,3.3-0.8c1-0.6,1.9-1.3,2.5-2.3
			c0.6-1,0.9-2.1,0.9-3.3c0-2.5-0.8-4.4-2.4-5.6C21,51,18.7,50,15.9,49.1c-2.3-0.8-4.1-1.5-5.4-2.1c-1.3-0.6-2.5-1.5-3.6-2.7
			c-1.3-1.3-2.3-2.8-3-4.6c-0.7-1.8-1.1-3.5-1.1-5.4c0-2.7,0.7-5.2,2.1-7.5c1.4-2.3,3.3-4.1,5.6-5.3c2.3-1.3,4.9-1.9,7.6-1.9
			c2,0,3.9,0.4,5.7,1.1c1.8,0.7,3.4,1.8,4.9,3.1c1.4,1.3,2.6,2.9,3.3,4.8c0.8,1.8,1.2,3.7,1.2,5.7h-9.9c-0.1-1.6-0.7-2.9-1.8-3.9
			c-1.1-1-2.4-1.5-4-1.5c-1.5,0-2.8,0.5-3.7,1.6c-0.9,1-1.4,2.3-1.4,3.9c0,1.7,0.6,3,1.7,3.9c1.2,0.9,2.8,1.7,4.8,2.4
			c2.5,0.8,4.5,1.5,5.9,2.2c1.5,0.6,2.8,1.5,4.2,2.6c3.6,2.9,5.5,6.8,5.5,11.8c0,2.3-0.4,4.4-1.3,6.4c-0.9,2-2.1,3.7-3.6,5.2
			c-1.5,1.5-3.3,2.6-5.4,3.5c-2.1,0.8-4.2,1.3-6.5,1.3c-2.9,0-5.6-0.7-8.2-2.1c-2.6-1.4-4.6-3.3-6.2-5.7C1.8,63.4,1,60.8,1,57.8z
			 M40.7,20.7h9.6v32.3c0,1.6,0,2.9,0.1,3.9c0.1,1,0.4,2,0.9,3.1c0.7,1.4,1.7,2.4,2.9,3.2c1.2,0.8,2.5,1.2,4,1.2
			c1.3,0,2.5-0.3,3.7-1c1.2-0.7,2.1-1.5,2.8-2.6c0.6-1,1-2.2,1.2-3.3c0.2-1.2,0.2-2.6,0.2-4.4V20.7h9.6V30c1.3,0,2.2-0.7,2.8-2.1
			c0.6-1.4,0.9-3.8,0.9-7.1h5.1c-0.1,4.1-0.9,7.2-2.6,9.4c-1.6,2.2-3.7,3.2-6.2,3.2v19.6c0,3-0.3,5.7-0.8,7.9
			c-0.5,2.2-1.5,4.3-3,6.1C70,69,68,70.6,65.5,71.8c-2.4,1.2-4.9,1.8-7.5,1.8c-2.3,0-4.7-0.6-7.1-1.7c-2.4-1.2-4.4-2.7-6.1-4.5
			c-1.2-1.4-2.1-2.8-2.7-4.3c-0.6-1.5-1-3-1.2-4.6c-0.2-1.6-0.3-3.4-0.3-5.6V20.7z M56.8,16.4l-2.5-4.9L66,4.6l2.7,5.4L56.8,16.4z
			 M156.3,35.8h-11.4c-1-1.4-2.3-2.7-3.7-3.7c-1.4-1-3-1.8-4.7-2.4c-1.7-0.6-3.4-0.9-5.2-0.9c-4.6,0-8.5,1.5-12,4.5
			c-1.2,1-2.2,2.3-3.1,3.7c-0.9,1.4-1.6,2.9-2.1,4.6c-0.5,1.6-0.8,3.2-0.8,4.8c0,2.2,0.4,4.3,1.3,6.5c0.9,2.2,2.1,4,3.6,5.5
			c1.8,1.9,3.9,3.3,6.2,4.3c2.3,1,4.7,1.5,7.2,1.5c3,0,6-0.9,8.8-2.6c2.8-1.7,4.9-4,6.3-6.7h-21.6v-9h33.7v1.1
			c0,4.9-1.3,9.4-3.8,13.5c-2.5,4.1-5.9,7.2-10.1,9.6c-4.2,2.3-8.8,3.5-13.6,3.5c-3.7,0-7.2-0.7-10.6-2c-3.3-1.4-6.3-3.3-8.9-5.7
			c-2.6-2.4-4.6-5.3-6.1-8.5c-1.5-3.3-2.2-6.8-2.2-10.6c0-3.8,0.7-7.3,2.2-10.6c1.5-3.3,3.5-6.2,6-8.7c2.6-2.5,5.5-4.4,8.9-5.8
			c3.4-1.4,6.9-2.1,10.5-2.1c3.5,0,7,0.7,10.3,2c3.4,1.3,6.3,3.2,8.9,5.7C153,29.8,155,32.6,156.3,35.8z M165.1,72.4V20.7h9.6v51.7
			H165.1z M180.5,72.4l21.6-51.7h7.5l21.8,51.7h-10.6L215.1,59h-18.3l-5.7,13.4H180.5z M200.3,49.7h11.1L205.9,34L200.3,49.7z
			 M204.2,9.2L199,7.6c0.2-1.9,1-3.4,2.3-4.4c1.3-1,3-1.5,5.2-1.5c2.2,0,4,0.7,5.4,2c1.4,1.3,2.1,3,2.1,5c0,1.1-0.3,2-1,2.8
			c-0.6,0.7-1.6,1.6-3,2.6c-0.7,0.4-1.2,0.8-1.5,1.1c-0.3,0.3-0.5,0.8-0.5,1.4h-5v-0.5c0-1.2,0.4-2.2,1.1-3.2c0.7-1,1.6-1.7,2.6-2.3
			c0.3-0.3,0.6-0.4,0.8-0.6c0.2-0.2,0.3-0.3,0.4-0.4c0.1-0.1,0.1-0.3,0.1-0.5c0-1.2-0.6-1.8-1.9-1.8C204.8,7.3,204.2,8,204.2,9.2z
			 M252.4,57.8h10c0,2,0.7,3.6,2.1,4.8c1.4,1.2,3.1,1.7,5.1,1.7c1.2,0,2.3-0.3,3.3-0.8c1-0.6,1.9-1.3,2.5-2.3c0.6-1,0.9-2.1,0.9-3.3
			c0-2.5-0.8-4.4-2.4-5.6c-1.6-1.2-3.8-2.3-6.6-3.2c-2.3-0.8-4.1-1.5-5.4-2.1c-1.3-0.6-2.5-1.5-3.6-2.7c-1.3-1.3-2.3-2.8-3-4.6
			c-0.7-1.8-1.1-3.5-1.1-5.4c0-2.7,0.7-5.2,2.1-7.5c1.4-2.3,3.3-4.1,5.6-5.3c2.3-1.3,4.9-1.9,7.6-1.9c2,0,3.9,0.4,5.7,1.1
			c1.8,0.7,3.4,1.8,4.9,3.1c1.4,1.3,2.6,2.9,3.4,4.8c0.8,1.8,1.2,3.7,1.2,5.7h-9.9c-0.1-1.6-0.7-2.9-1.8-3.9c-1.1-1-2.5-1.5-4-1.5
			c-1.6,0-2.8,0.5-3.7,1.6c-0.9,1-1.4,2.3-1.4,3.9c0,1.7,0.6,3,1.7,3.9c1.2,0.9,2.8,1.7,4.8,2.4c2.5,0.8,4.5,1.5,5.9,2.2
			c1.5,0.6,2.8,1.5,4.2,2.6c3.6,2.9,5.5,6.8,5.5,11.8c0,2.3-0.4,4.4-1.3,6.4c-0.9,2-2.1,3.7-3.6,5.2c-1.6,1.5-3.4,2.6-5.4,3.5
			c-2.1,0.8-4.2,1.3-6.5,1.3c-2.9,0-5.6-0.7-8.2-2.1c-2.6-1.4-4.6-3.3-6.2-5.7C253.2,63.4,252.4,60.8,252.4,57.8z M292.6,72.4V20.7
			h27.8V30h-18.2v11.9h17.4v9.3h-17.4v11.9h18.2v9.3H292.6z M305.9,8.9l-5.2-1.6c0.2-1.9,1-3.4,2.3-4.4c1.3-1,3-1.5,5.2-1.5
			c1.5,0,2.8,0.3,3.9,1c1.1,0.6,2,1.5,2.6,2.6c0.6,1,0.9,2.2,0.9,3.6c0,1.1-0.3,2-1,2.8c-0.6,0.7-1.6,1.6-3,2.6
			c-0.7,0.4-1.3,0.8-1.6,1.2c-0.3,0.3-0.4,0.8-0.4,1.4h-5v-0.5c0-1.1,0.4-2.2,1.1-3.1c0.7-1,1.6-1.8,2.7-2.4
			c0.6-0.4,0.9-0.7,1.1-0.8c0.1-0.1,0.2-0.3,0.2-0.6c0-1.2-0.6-1.8-1.9-1.8C306.5,7,305.9,7.6,305.9,8.9z M385.7,58.3h11.1
			c-1.3,3-3.1,5.7-5.6,8.1c-2.5,2.3-5.4,4.1-8.5,5.4c-3.2,1.3-6.5,1.9-9.8,1.9c-3.6,0-7-0.7-10.3-2.1c-3.3-1.4-6.2-3.4-8.6-5.9
			c-2.5-2.5-4.4-5.4-5.8-8.7c-1.4-3.3-2.1-6.8-2.1-10.4c0-4.8,1.2-9.2,3.6-13.3c2.4-4.1,5.7-7.4,9.7-9.8c4.1-2.4,8.5-3.6,13.2-3.6
			c3.5,0,6.8,0.6,10.1,1.9c3.3,1.3,6.2,3.1,8.7,5.5c2.5,2.4,4.5,5.1,5.8,8.3h-10.9c-1.6-2-3.6-3.6-6.1-4.7c-2.4-1.2-4.9-1.7-7.5-1.7
			c-3.1,0-6,0.8-8.6,2.5c-2.6,1.6-4.7,3.8-6.2,6.5c-1.5,2.7-2.3,5.7-2.3,8.9c0,3,0.8,5.9,2.3,8.6c1.6,2.7,3.7,4.8,6.3,6.5
			c2.6,1.6,5.5,2.4,8.4,2.4C377.6,64.3,382,62.3,385.7,58.3z M403.3,72.4V20.7h9.6v20.7h18.5V20.7h9.6v51.7h-9.6V50.7h-18.5v21.7
			H403.3z M451,72.4V20.7h9.6v51.7H451z M466.3,72.4l21.6-51.7h7.5l21.8,51.7h-10.6L501,59h-18.3l-5.7,13.4H466.3z M486.1,49.7h11.1
			L491.7,34L486.1,49.7z"/>
	</mask>
	<g class="st2">
		
			<linearGradient id="SVGID_1_" gradientUnits="userSpaceOnUse" x1="243.8175" y1="98.3928" x2="267.0457" y2="-34.5108" gradientTransform="matrix(1 0 0 -1 0 76)">
			<stop  offset="0" style="stop-color:#613B02"/>
			<stop  offset="1" style="stop-color:#EFD16E"/>
		</linearGradient>
		<path class="st3" d="M372.9,74.6c-3.7,0-7.3-0.7-10.7-2.2c-3.4-1.5-6.4-3.5-8.9-6.1c-2.5-2.6-4.6-5.6-6-9
			c-1.4-3.4-2.2-7.1-2.2-10.8c0-4.9,1.3-9.6,3.8-13.8c2.5-4.3,5.9-7.7,10.1-10.2c4.2-2.5,8.8-3.8,13.7-3.8c3.6,0,7.1,0.7,10.5,2
			c3.4,1.3,6.4,3.2,9,5.7c2.6,2.5,4.6,5.4,6,8.7l0.6,1.4h-12.9l-0.3-0.4c-1.5-1.9-3.4-3.4-5.7-4.4c-2.3-1.1-4.6-1.6-7.1-1.6
			c-2.9,0-5.6,0.8-8,2.3c-2.4,1.5-4.4,3.6-5.8,6.2c-1.4,2.5-2.1,5.4-2.1,8.4c0,2.8,0.7,5.6,2.2,8.1c1.5,2.5,3.5,4.6,6,6.1
			c2.5,1.5,5.1,2.3,7.9,2.3c4.6,0,8.7-1.9,12.3-5.7l0.3-0.3h13l-0.6,1.4c-1.3,3.1-3.3,6-5.9,8.4c-2.6,2.4-5.6,4.3-8.9,5.6
			C379.7,74,376.3,74.6,372.9,74.6z M372.6,20.7c-4.5,0-8.8,1.2-12.7,3.5c-3.9,2.3-7.1,5.5-9.4,9.5c-2.3,4-3.5,8.3-3.5,12.8
			c0,3.5,0.7,6.9,2,10c1.4,3.2,3.2,6,5.6,8.4c2.4,2.4,5.2,4.3,8.3,5.7c6.1,2.6,13,2.7,19.4,0.2c3.1-1.2,5.8-3,8.2-5.2
			c2-1.9,3.6-4,4.8-6.3h-9.1c-3.9,4-8.4,6-13.4,6c-3.2,0-6.2-0.9-9-2.6c-2.8-1.7-5-4-6.7-6.8c-1.6-2.9-2.5-5.9-2.5-9.1
			c0-3.3,0.8-6.5,2.4-9.3c1.6-2.9,3.8-5.2,6.5-6.9c2.7-1.7,5.8-2.6,9.1-2.6c2.7,0,5.4,0.6,7.9,1.8c2.4,1.1,4.5,2.7,6.1,4.6h8.9
			c-1.2-2.5-2.9-4.7-4.9-6.6c-2.4-2.3-5.2-4.1-8.4-5.3C379.2,21.3,375.9,20.7,372.6,20.7z M269.2,74.6c-3,0-6-0.7-8.7-2.2
			c-2.7-1.5-4.9-3.5-6.6-6c-1.6-2.6-2.4-5.5-2.4-8.6v-1h12v1c0,1.7,0.6,3,1.7,4c1.2,1,2.7,1.5,4.4,1.5c1,0,2-0.2,2.8-0.7
			c0.9-0.5,1.6-1.1,2.1-2c0.5-0.8,0.8-1.8,0.8-2.8c0-2.2-0.7-3.8-2-4.8c-1.5-1.2-3.6-2.2-6.3-3c-2.3-0.8-4.2-1.5-5.5-2.1
			c-1.4-0.7-2.7-1.7-3.9-2.9c-1.4-1.4-2.4-3.1-3.2-4.9c-0.8-1.9-1.1-3.8-1.1-5.8c0-2.9,0.7-5.6,2.2-8c1.5-2.4,3.5-4.3,6-5.7
			c2.5-1.4,5.2-2,8.1-2c2.1,0,4.2,0.4,6.1,1.2c1.9,0.8,3.7,1.9,5.2,3.3c1.5,1.4,2.7,3.1,3.6,5.1c0.9,1.9,1.3,4,1.3,6.1v1h-11.8l0-1
			c-0.1-1.3-0.5-2.4-1.5-3.2c-0.9-0.8-2-1.3-3.3-1.3c-1.3,0-2.2,0.4-3,1.2c-0.8,0.8-1.1,1.9-1.1,3.2c0,1.4,0.4,2.4,1.4,3.1
			c1.1,0.8,2.6,1.6,4.5,2.2c2.5,0.8,4.5,1.6,6,2.2c1.5,0.6,3,1.6,4.4,2.8c3.9,3.1,5.8,7.3,5.8,12.5c0,2.4-0.5,4.7-1.4,6.8
			c-0.9,2.1-2.2,4-3.8,5.6c-1.6,1.6-3.6,2.8-5.7,3.7C273.8,74.2,271.5,74.6,269.2,74.6z M253.5,58.8c0.2,2.3,0.9,4.5,2.1,6.5
			c1.4,2.3,3.4,4.1,5.8,5.4c2.4,1.3,5,2,7.8,2c2.1,0,4.2-0.4,6.1-1.2c1.9-0.8,3.6-1.9,5.1-3.3c1.4-1.4,2.6-3,3.4-4.9
			c0.8-1.9,1.3-3.9,1.3-6c0-4.7-1.7-8.3-5.1-11c-1.3-1.1-2.6-1.9-3.9-2.5c-1.4-0.6-3.4-1.4-5.8-2.2c-2.1-0.7-3.8-1.5-5-2.5
			c-1.4-1.1-2.1-2.7-2.1-4.7c0-1.8,0.5-3.4,1.6-4.6c1.1-1.3,2.6-1.9,4.5-1.9c1.8,0,3.4,0.6,4.7,1.8c1.1,1,1.8,2.2,2,3.6h7.9
			c-0.1-1.5-0.5-2.9-1.1-4.3c-0.7-1.7-1.8-3.2-3.1-4.4c-1.3-1.3-2.8-2.3-4.5-2.9c-1.7-0.7-3.5-1.1-5.3-1.1c-2.5,0-4.9,0.6-7.1,1.8
			c-2.2,1.2-3.9,2.9-5.2,5c-1.3,2.1-1.9,4.4-1.9,6.9c0,1.7,0.3,3.4,1,5c0.7,1.6,1.6,3,2.8,4.3c1,1,2.1,1.9,3.3,2.5
			c1.2,0.6,3,1.3,5.2,2c2.9,0.9,5.2,2,6.9,3.3c1.8,1.4,2.8,3.5,2.8,6.4c0,1.4-0.4,2.7-1.1,3.9c-0.7,1.1-1.7,2-2.9,2.7
			c-1.2,0.6-2.4,0.9-3.8,0.9c-2.2,0-4.2-0.7-5.7-2c-1.4-1.2-2.2-2.7-2.4-4.5H253.5z M131.3,74.6c-3.8,0-7.5-0.7-10.9-2.1
			c-3.4-1.4-6.5-3.4-9.2-5.9c-2.7-2.5-4.8-5.5-6.3-8.9c-1.5-3.4-2.3-7.1-2.3-11c0-3.9,0.8-7.6,2.2-11c1.5-3.4,3.6-6.4,6.2-9
			c2.6-2.6,5.7-4.6,9.2-6c6.9-2.8,14.6-2.9,21.6-0.1c3.5,1.4,6.6,3.3,9.2,5.9c2.7,2.5,4.7,5.5,6,8.9l0.5,1.4h-13.4l-0.3-0.4
			c-1-1.3-2.1-2.5-3.5-3.4c-1.4-1-2.9-1.7-4.5-2.2c-1.6-0.5-3.2-0.8-4.9-0.8c-4.3,0-8.1,1.4-11.3,4.2c-1.1,1-2.1,2.1-2.9,3.5
			c-0.8,1.3-1.5,2.8-2,4.3c-0.5,1.5-0.7,3-0.7,4.5c0,2,0.4,4.1,1.3,6.1c0.9,2,2,3.8,3.4,5.2c1.7,1.8,3.7,3.1,5.8,4.1
			c2.2,0.9,4.5,1.4,6.8,1.4c2.8,0,5.6-0.8,8.3-2.4c2.1-1.3,3.8-2.9,5.1-4.9h-20.9V45h35.7v2.1c0,5.1-1.3,9.8-3.9,14
			c-2.6,4.2-6.1,7.5-10.5,9.9C141.1,73.4,136.3,74.6,131.3,74.6z M131.2,20.7c-3.5,0-6.9,0.7-10.1,2c-3.2,1.3-6.1,3.2-8.5,5.6
			c-2.4,2.4-4.4,5.2-5.8,8.4c-1.4,3.1-2.1,6.6-2.1,10.2c0,3.6,0.7,7,2.1,10.2c1.4,3.1,3.4,5.9,5.8,8.2c2.5,2.3,5.3,4.2,8.5,5.5
			c3.2,1.3,6.6,1.9,10.2,1.9c4.7,0,9.1-1.1,13.2-3.4c4.1-2.2,7.3-5.3,9.7-9.2c2.4-3.9,3.6-8.2,3.6-12.9V47h-31.7v7h22.3l-0.7,1.5
			c-1.5,2.9-3.7,5.3-6.7,7.1c-3,1.8-6.1,2.7-9.3,2.7c-2.6,0-5.2-0.5-7.6-1.6c-2.4-1.1-4.6-2.6-6.5-4.5c-1.6-1.6-2.9-3.6-3.8-5.8
			c-0.9-2.3-1.4-4.6-1.4-6.9c0-1.6,0.3-3.3,0.8-5c0.5-1.7,1.3-3.3,2.2-4.8c1-1.5,2.1-2.8,3.3-3.9c3.6-3.1,7.8-4.7,12.6-4.7
			c1.9,0,3.7,0.3,5.5,0.9c1.8,0.6,3.5,1.4,5,2.5c1.4,1,2.6,2.1,3.6,3.5h9.4c-1.2-2.5-2.9-4.8-5-6.8c-2.5-2.4-5.4-4.2-8.6-5.5
			C137.9,21.3,134.6,20.7,131.2,20.7z M58.1,74.6c-2.5,0-5-0.6-7.6-1.8c-2.5-1.2-4.7-2.8-6.4-4.8c-1.3-1.4-2.3-3-2.9-4.6
			c-0.6-1.6-1-3.2-1.3-4.8c-0.2-1.6-0.3-3.5-0.3-5.7V19.7h11.6v33.3c0,1.6,0,2.8,0.1,3.8c0.1,0.9,0.4,1.8,0.8,2.8
			c0.6,1.1,1.5,2.1,2.5,2.8c1,0.7,2.2,1,3.4,1c1.1,0,2.2-0.3,3.2-0.9c1.1-0.6,1.9-1.3,2.4-2.3c0.6-0.9,0.9-1.9,1-2.9
			c0.2-1.1,0.2-2.6,0.2-4.3V19.7h11.6v9c0.3-0.2,0.6-0.6,0.8-1.2c0.5-1.3,0.8-3.6,0.8-6.7v-1h7.1l0,1c-0.1,4.3-1,7.7-2.8,10
			c-1.6,2.1-3.6,3.3-6,3.6v18.6c0,3.1-0.3,5.8-0.8,8.1c-0.5,2.4-1.6,4.6-3.2,6.5c-1.8,2.2-4.1,3.9-6.6,5.2
			C63.5,74,60.8,74.6,58.1,74.6z M41.7,21.7v31.3c0,2.1,0.1,3.9,0.3,5.5c0.2,1.4,0.6,2.9,1.1,4.3c0.6,1.4,1.4,2.7,2.6,4
			c1.5,1.7,3.5,3.2,5.8,4.3c4.8,2.3,9.4,2.1,13.7-0.1c2.3-1.1,4.3-2.7,5.9-4.7c1.4-1.7,2.3-3.6,2.8-5.7c0.5-2.2,0.8-4.7,0.8-7.7
			V32.4h1c2.2,0,4-0.9,5.4-2.8c1.4-1.8,2.2-4.4,2.3-7.8h-3.1c-0.1,3-0.4,5.1-0.9,6.5c-0.9,2.3-2.5,2.7-3.7,2.7h-1v-9.3H67v31.3
			c0,1.8-0.1,3.4-0.2,4.6c-0.2,1.3-0.6,2.5-1.3,3.7c-0.7,1.2-1.8,2.2-3.2,3c-1.3,0.7-2.7,1.1-4.2,1.1c-1.6,0-3.2-0.4-4.5-1.3
			c-1.3-0.9-2.4-2.1-3.2-3.6c-0.5-1.2-0.8-2.4-1-3.4c-0.1-1-0.1-2.4-0.1-4V21.7H41.7z M17.7,74.6c-3,0-6-0.7-8.7-2.2
			c-2.7-1.5-4.9-3.5-6.6-6C0.8,63.8,0,60.9,0,57.8v-1h12v1c0,1.7,0.6,3,1.7,4c1.2,1,2.7,1.5,4.4,1.5c1,0,2-0.2,2.8-0.7
			c0.9-0.5,1.6-1.1,2.1-2c0.5-0.8,0.8-1.8,0.8-2.8c0-2.2-0.7-3.8-2-4.8c-1.5-1.2-3.6-2.2-6.3-3c-2.3-0.8-4.2-1.5-5.5-2.1
			c-1.4-0.7-2.7-1.7-3.9-2.9C4.9,43.6,3.8,42,3,40.1c-0.8-1.9-1.1-3.8-1.1-5.8c0-2.9,0.7-5.6,2.2-8c1.5-2.4,3.5-4.3,6-5.7
			c2.5-1.4,5.2-2,8.1-2c2.1,0,4.2,0.4,6.1,1.2c1.9,0.8,3.7,1.9,5.2,3.3c1.5,1.4,2.7,3.1,3.6,5.1c0.9,1.9,1.3,4,1.3,6.1v1H22.4l0-1
			c-0.1-1.3-0.5-2.4-1.5-3.2c-0.9-0.8-2-1.3-3.3-1.3c-1.3,0-2.2,0.4-3,1.2c-0.7,0.8-1.1,1.9-1.1,3.2c0,1.4,0.4,2.4,1.4,3.1
			c1.1,0.8,2.6,1.6,4.5,2.2c2.5,0.8,4.5,1.6,6,2.2c1.5,0.6,3,1.6,4.4,2.8c3.9,3.1,5.8,7.3,5.8,12.5c0,2.4-0.5,4.7-1.4,6.8
			c-0.9,2.1-2.2,4-3.8,5.6c-1.6,1.6-3.6,2.8-5.7,3.7C22.4,74.2,20.1,74.6,17.7,74.6z M2,58.8c0.2,2.4,0.9,4.5,2.1,6.5
			c1.4,2.3,3.4,4.1,5.8,5.4c2.4,1.3,5,2,7.8,2c2.1,0,4.2-0.4,6.1-1.2c1.9-0.8,3.6-1.9,5.1-3.3c1.4-1.4,2.6-3,3.4-4.9
			c0.8-1.9,1.3-3.9,1.3-6c0-4.7-1.7-8.3-5.1-11c-1.3-1.1-2.6-1.9-3.9-2.5c-1.4-0.6-3.4-1.4-5.8-2.2c-2.1-0.7-3.8-1.5-5-2.5
			c-1.4-1.1-2.1-2.7-2.1-4.7c0-1.8,0.5-3.4,1.6-4.6c1.1-1.3,2.6-1.9,4.5-1.9c1.8,0,3.4,0.6,4.7,1.8c1.1,1,1.8,2.2,2,3.6h7.9
			c-0.1-1.5-0.5-2.9-1.1-4.3c-0.7-1.7-1.8-3.2-3.1-4.4c-1.3-1.3-2.8-2.3-4.5-2.9c-1.7-0.7-3.5-1.1-5.3-1.1c-2.5,0-4.9,0.6-7.1,1.8
			c-2.2,1.2-3.9,2.9-5.2,5c-1.3,2.1-1.9,4.4-1.9,6.9c0,1.7,0.3,3.4,1,5c0.7,1.6,1.6,3,2.8,4.3c1,1,2.1,1.9,3.3,2.5
			c1.2,0.6,3,1.3,5.2,2c2.9,0.9,5.2,2,6.9,3.3c1.8,1.4,2.8,3.5,2.8,6.4c0,1.4-0.4,2.7-1.1,3.9c-0.7,1.1-1.7,2-2.9,2.7
			c-1.2,0.6-2.4,0.9-3.8,0.9c-2.2,0-4.2-0.7-5.7-2c-1.4-1.2-2.2-2.7-2.4-4.5H2z M518.6,73.4h-12.7L500.3,60h-17l-5.7,13.4h-12.8
			l22.4-53.7h8.8L518.6,73.4z M507.2,71.4h8.4l-20.9-49.7h-6.2l-20.7,49.7h8.4L482,58h19.6L507.2,71.4z M461.6,73.4H450V19.7h11.6
			V73.4z M452,71.4h7.6V21.7H452V71.4z M442,73.4h-11.6V51.7h-16.5v21.7h-11.6V19.7h11.6v20.7h16.5V19.7H442V73.4z M432.4,71.4h7.6
			V21.7h-7.6v20.7h-20.5V21.7h-7.6v49.7h7.6V49.7h20.5V71.4z M321.4,73.4h-29.8V19.7h29.8V31h-18.2v9.9h17.4v11.3h-17.4v9.9h18.2
			V73.4z M293.6,71.4h25.8v-7.3h-18.2V50.1h17.4v-7.3h-17.4V29h18.2v-7.3h-25.8V71.4z M232.8,73.4h-12.7L214.5,60h-17l-5.7,13.4H179
			l22.4-53.7h8.8L232.8,73.4z M221.4,71.4h8.4l-20.9-49.7h-6.2L182,71.4h8.4l5.7-13.4h19.6L221.4,71.4z M175.8,73.4h-11.6V19.7h11.6
			V73.4z M166.1,71.4h7.6V21.7h-7.6V71.4z M498.6,50.7h-13.9l7-19.7L498.6,50.7z M487.5,48.7h8.2L491.7,37L487.5,48.7z M212.8,50.7
			h-13.9l7-19.7L212.8,50.7z M201.7,48.7h8.2L205.9,37L201.7,48.7z M56.3,17.7l-3.4-6.6l13.5-7.9l3.7,7.3L56.3,17.7z M55.6,11.9
			l1.6,3.1l10.2-5.4L65.6,6L55.6,11.9z M208.9,17.7h-7v-1.5c0-1.4,0.4-2.6,1.3-3.8c0.5-0.7,1.1-1.3,1.8-1.9l-7.1-2.2l0.1-0.8
			c0.2-2.2,1.1-3.9,2.6-5.1c1.5-1.2,3.4-1.7,5.8-1.7c2.5,0,4.5,0.8,6.1,2.3c1.6,1.5,2.4,3.5,2.4,5.7c0,1.4-0.4,2.5-1.2,3.4
			c-0.7,0.8-1.7,1.7-3.2,2.8l-0.1,0.1c-0.6,0.3-1,0.7-1.3,0.9c-0.1,0.1-0.2,0.2-0.2,0.7V17.7z M203.9,15.7h3.1
			c0.1-0.4,0.3-0.8,0.6-1.1c0.4-0.4,1-0.9,1.7-1.3c1.3-1,2.3-1.8,2.8-2.4c0.5-0.6,0.7-1.2,0.7-2.1c0-1.7-0.6-3.1-1.8-4.3
			c-1.2-1.2-2.7-1.7-4.7-1.7c-1.9,0-3.4,0.4-4.5,1.3c-0.9,0.7-1.5,1.7-1.7,2.9l3.4,1c0.4-1,1.3-1.6,2.5-1.6c1.8,0,2.9,1.1,2.9,2.8
			c0,0.4-0.1,0.7-0.2,1c-0.1,0.2-0.3,0.4-0.6,0.7l-1,0.7c-0.9,0.5-1.7,1.2-2.3,2C204.3,14.2,204,14.9,203.9,15.7z M206,8.3
			c-0.5,0-0.7,0-0.7,0.9v1.1c0.3-0.2,0.5-0.4,0.8-0.5l0.7-0.5c0,0,0.1-0.1,0.1-0.1C206.9,8.5,206.7,8.3,206,8.3z M310.5,17.3h-7
			v-1.5c0-1.3,0.4-2.6,1.2-3.7c0.5-0.7,1.1-1.4,1.8-1.9L299.6,8l0.1-0.8c0.2-2.2,1.1-3.9,2.6-5.1c1.5-1.2,3.4-1.7,5.8-1.7
			c1.6,0,3.1,0.4,4.4,1.1c1.3,0.7,2.3,1.7,3,2.9c0.7,1.2,1.1,2.6,1.1,4.1c0,1.4-0.4,2.5-1.2,3.4c-0.7,0.8-1.7,1.7-3.2,2.8
			c-0.9,0.5-1.3,0.8-1.4,1c-0.1,0.1-0.2,0.4-0.2,0.7V17.3z M305.6,15.3h3.1c0.1-0.4,0.3-0.7,0.6-1c0.4-0.4,1-0.9,1.8-1.4
			c1.3-0.9,2.2-1.8,2.8-2.4c0.5-0.6,0.7-1.3,0.7-2.1c0-1.2-0.3-2.1-0.8-3c-0.5-0.9-1.3-1.6-2.3-2.2c-1-0.6-2.1-0.8-3.4-0.8
			c-1.9,0-3.4,0.4-4.5,1.3c-0.9,0.7-1.5,1.7-1.7,2.9l3.3,1c0.4-1,1.3-1.6,2.6-1.6c1.8,0,2.9,1.1,2.9,2.8c0,0.6-0.2,1.1-0.6,1.4
			c0,0.1-0.3,0.2-1.1,0.9l-0.1,0.1c-0.9,0.5-1.7,1.2-2.3,2.1C305.9,13.9,305.6,14.6,305.6,15.3z M307.6,8c-0.5,0-0.8,0.1-0.8,0.9V10
			c0.3-0.2,0.6-0.4,0.9-0.5c0.5-0.3,0.7-0.5,0.8-0.6c0,0,0,0,0,0C308.5,8.2,308.4,8,307.6,8z M308.6,8.7
			C308.6,8.7,308.6,8.7,308.6,8.7C308.6,8.7,308.6,8.7,308.6,8.7z"/>
	</g>
</g>
</svg>
