<svg width="305" height="61" viewBox="0 0 305 61" fill="none" xmlns="http://www.w3.org/2000/svg">
<path d="M1.10742 45.8774H0.107422L0.107422 46.8774H1.10742V45.8774ZM1.10742 1.55127L1.10742 0.55127H0.107422V1.55127H1.10742ZM9.33984 1.55127H10.3398V0.55127H9.33984V1.55127ZM9.33984 19.3052H8.33984V20.3052H9.33984V19.3052ZM25.1895 19.3052V20.3052H26.1895V19.3052H25.1895ZM25.1895 1.55127V0.55127H24.1895V1.55127H25.1895ZM33.3926 1.55127H34.3926V0.55127H33.3926V1.55127ZM33.3926 45.8774V46.8774H34.3926V45.8774H33.3926ZM25.1895 45.8774H24.1895V46.8774H25.1895V45.8774ZM25.1895 27.2739H26.1895V26.2739H25.1895V27.2739ZM9.33984 27.2739V26.2739H8.33984V27.2739H9.33984ZM9.33984 45.8774V46.8774H10.3398V45.8774H9.33984ZM2.10742 45.8774L2.10742 1.55127H0.107422L0.107422 45.8774H2.10742ZM1.10742 2.55127L9.33984 2.55127V0.55127L1.10742 0.55127L1.10742 2.55127ZM8.33984 1.55127L8.33984 19.3052H10.3398L10.3398 1.55127H8.33984ZM9.33984 20.3052L25.1895 20.3052V18.3052L9.33984 18.3052V20.3052ZM26.1895 19.3052L26.1895 1.55127H24.1895L24.1895 19.3052H26.1895ZM25.1895 2.55127L33.3926 2.55127V0.55127L25.1895 0.55127V2.55127ZM32.3926 1.55127L32.3926 45.8774H34.3926L34.3926 1.55127H32.3926ZM33.3926 44.8774H25.1895V46.8774H33.3926V44.8774ZM26.1895 45.8774L26.1895 27.2739H24.1895L24.1895 45.8774H26.1895ZM25.1895 26.2739L9.33984 26.2739V28.2739L25.1895 28.2739V26.2739ZM8.33984 27.2739L8.33984 45.8774H10.3398L10.3398 27.2739H8.33984ZM9.33984 44.8774H1.10742L1.10742 46.8774H9.33984V44.8774ZM75.5091 12.6255H76.5091V11.6255H75.5091V12.6255ZM75.5091 45.8774V46.8774H76.5091V45.8774H75.5091ZM68.1848 45.8774H67.1848V46.8774H68.1848V45.8774ZM68.1848 41.3657H69.1848V40.3657H68.1848V41.3657ZM68.0677 41.3657V40.3657H67.5524L67.2533 40.7854L68.0677 41.3657ZM63.0872 45.438L62.6534 44.537L62.6501 44.5386L63.0872 45.438ZM44.5423 41.3657L43.7748 42.0068L43.7789 42.0117L44.5423 41.3657ZM40.7923 24.9302L39.8127 24.7289L39.8106 24.7393L40.7923 24.9302ZM42.1399 20.9751L41.2483 20.5222L41.2455 20.5279L42.1399 20.9751ZM44.6595 17.313L45.4136 17.9698L45.4176 17.965L44.6595 17.313ZM50.2552 12.9771L49.8426 12.0661L49.8394 12.0676L50.2552 12.9771ZM63.3216 13.0356L62.8671 13.9264L62.8708 13.9283L63.3216 13.0356ZM68.1848 17.313L67.3648 17.8853L69.1848 20.4931V17.313H68.1848ZM68.1848 12.6255V11.6255H67.1848V12.6255H68.1848ZM67.218 25.311L66.2855 25.672L66.2875 25.6772L67.218 25.311ZM62.2083 20.1255L61.8161 21.0455L61.8291 21.0508L62.2083 20.1255ZM51.1634 22.2642L50.4455 21.568L50.4454 21.5681L51.1634 22.2642ZM63.263 37.8794L63.764 38.7449L63.7725 38.7399L63.263 37.8794ZM66.6907 34.3052L65.8102 33.8311L65.808 33.8352L66.6907 34.3052ZM54.7376 56.9224H53.7376V57.9224H54.7376V56.9224ZM54.7376 51.1509V50.1509H53.7376V51.1509H54.7376ZM61.095 51.1509H62.095V50.1509H61.095V51.1509ZM61.095 56.9224V57.9224H62.095V56.9224H61.095ZM74.5091 12.6255L74.5091 45.8774H76.5091L76.5091 12.6255H74.5091ZM75.5091 44.8774H68.1848V46.8774H75.5091V44.8774ZM69.1848 45.8774V41.3657H67.1848V45.8774H69.1848ZM68.1848 40.3657H68.0677V42.3657H68.1848V40.3657ZM67.2533 40.7854C66.1516 42.3313 64.6298 43.5854 62.6534 44.537L63.521 46.339C65.7634 45.2593 67.5618 43.7986 68.882 41.9461L67.2533 40.7854ZM62.6501 44.5386C60.6824 45.4948 58.7315 45.9614 56.7884 45.9614V47.9614C59.064 47.9614 61.3122 47.4124 63.5243 46.3374L62.6501 44.5386ZM56.7884 45.9614C54.443 45.9614 52.3038 45.5007 50.3562 44.5906L49.5095 46.4025C51.7417 47.4456 54.1728 47.9614 56.7884 47.9614V45.9614ZM50.3562 44.5906C48.3984 43.6758 46.7172 42.388 45.3057 40.7198L43.7789 42.0117C45.3751 43.8982 47.2877 45.3643 49.5095 46.4025L50.3562 44.5906ZM45.3097 40.7247C42.7014 37.602 41.3821 33.8022 41.3821 29.2661H39.3821C39.3821 34.2222 40.8362 38.4888 43.7748 42.0068L45.3097 40.7247ZM41.3821 29.2661C41.3821 27.8435 41.5131 26.4622 41.7739 25.121L39.8106 24.7393C39.5246 26.2107 39.3821 27.72 39.3821 29.2661H41.3821ZM41.7718 25.1315C42.0485 23.7846 42.4706 22.5497 43.0344 21.4223L41.2455 20.5279C40.5983 21.8224 40.1219 23.2242 39.8127 24.7289L41.7718 25.1315ZM43.0315 21.428C43.6138 20.2817 44.4043 19.1285 45.4135 17.9698L43.9054 16.6562C42.8052 17.9193 41.9161 19.2076 41.2483 20.5222L43.0315 21.428ZM45.4176 17.965C47.0165 16.1059 48.769 14.756 50.6709 13.8865L49.8394 12.0676C47.6397 13.0731 45.6618 14.6139 43.9013 16.6609L45.4176 17.965ZM50.6677 13.888C52.5989 13.0135 54.7129 12.5708 57.0227 12.5708V10.5708C54.4498 10.5708 52.052 11.0656 49.8427 12.0661L50.6677 13.888ZM57.0227 12.5708C59.1602 12.5708 61.1027 13.0262 62.8671 13.9264L63.776 12.1449C61.7123 11.092 59.4556 10.5708 57.0227 10.5708V12.5708ZM62.8708 13.9283C64.6484 14.8261 66.1455 16.1382 67.3648 17.8853L69.0049 16.7407C67.607 14.7378 65.8619 13.1983 63.7724 12.143L62.8708 13.9283ZM69.1848 17.313V12.6255H67.1848V17.313H69.1848ZM68.1848 13.6255L75.5091 13.6255V11.6255L68.1848 11.6255V13.6255ZM68.9212 29.2075C68.9212 27.6883 68.6676 26.2639 68.1486 24.9449L66.2875 25.6772C66.706 26.741 66.9212 27.9142 66.9212 29.2075H68.9212ZM68.1506 24.95C67.6377 23.6249 66.9149 22.4658 65.9781 21.4854L64.5322 22.8671C65.2751 23.6446 65.8609 24.5753 66.2855 25.672L68.1506 24.95ZM65.9781 21.4854C65.0358 20.4992 63.9009 19.7384 62.5875 19.2002L61.8291 21.0508C62.8985 21.4891 63.7949 22.0955 64.5322 22.8671L65.9781 21.4854ZM62.6004 19.2056C61.2764 18.6413 59.8529 18.3638 58.3411 18.3638V20.3638C59.6027 20.3638 60.7573 20.5941 61.8162 21.0454L62.6004 19.2056ZM58.3411 18.3638C55.1845 18.3638 52.525 19.4235 50.4455 21.568L51.8813 22.9603C53.5517 21.2376 55.6773 20.3638 58.3411 20.3638V18.3638ZM50.4454 21.5681C48.3891 23.6893 47.3802 26.3802 47.3802 29.5591H49.3802C49.3802 26.8395 50.2267 24.6671 51.8814 22.9602L50.4454 21.5681ZM47.3802 29.5591C47.3802 32.525 48.4568 35.0615 50.5882 37.1068L51.9729 35.6637C50.2371 33.9981 49.3802 31.9838 49.3802 29.5591H47.3802ZM50.5882 37.1068C52.7092 39.1421 55.2722 40.1685 58.2239 40.1685V38.1685C55.785 38.1685 53.7191 37.3394 51.9729 35.6637L50.5882 37.1068ZM58.2239 40.1685C60.258 40.1685 62.1134 39.7004 63.764 38.7448L62.7619 37.014C61.4438 37.7771 59.9398 38.1685 58.2239 38.1685V40.1685ZM63.7725 38.7399C65.4126 37.7687 66.6852 36.4431 67.5734 34.7752L65.808 33.8352C65.0946 35.175 64.0821 36.2323 62.7535 37.0189L63.7725 38.7399ZM67.5712 34.7793C68.4764 33.0981 68.9212 31.2338 68.9212 29.2075H66.9212C66.9212 30.9312 66.5456 32.4654 65.8102 33.8311L67.5712 34.7793ZM55.7376 56.9224V51.1509H53.7376V56.9224H55.7376ZM54.7376 52.1509H61.095V50.1509H54.7376V52.1509ZM60.095 51.1509V56.9224H62.095V51.1509H60.095ZM61.095 55.9224H54.7376V57.9224H61.095V55.9224ZM82.1763 45.8774H81.1763V46.8774H82.1763V45.8774ZM82.1763 12.6255V11.6255H81.1763V12.6255H82.1763ZM89.5298 12.6255H90.5298V11.6255H89.5298V12.6255ZM89.5298 15.7017H88.5298V16.7017H89.5298V15.7017ZM89.6763 15.7017V16.7017H90.1883L90.4876 16.2863L89.6763 15.7017ZM93.5728 12.6548L93.9668 13.574L93.9759 13.5699L93.5728 12.6548ZM103.915 12.6841L103.51 13.5988L103.519 13.6027L103.915 12.6841ZM108.192 15.7017L107.452 16.3743L107.486 16.4114L107.523 16.445L108.192 15.7017ZM109.042 16.6685L108.184 17.183L108.206 17.2196L108.231 17.2543L109.042 16.6685ZM111.678 45.8774V46.8774H112.678V45.8774H111.678ZM103.71 45.8774H102.71V46.8774H103.71V45.8774ZM103.446 25.4868L102.453 25.6054L102.454 25.6127L102.455 25.6199L103.446 25.4868ZM102.333 22.1177L103.181 21.5877L103.179 21.5859L102.333 22.1177ZM100.077 20.1255L99.6154 21.0127L99.6224 21.0164L99.6295 21.0199L100.077 20.1255ZM93.8365 20.1548L93.3893 19.2603L93.3826 19.2637L93.8365 20.1548ZM91.4634 22.2935L90.6092 21.7735L90.6026 21.7845L90.5962 21.7956L91.4634 22.2935ZM90.3502 25.9263L91.3451 26.0272L91.3452 26.0258L90.3502 25.9263ZM90.1451 45.8774V46.8774H91.1451V45.8774H90.1451ZM83.1763 45.8774L83.1763 12.6255H81.1763L81.1763 45.8774H83.1763ZM82.1763 13.6255H89.5298V11.6255H82.1763V13.6255ZM88.5298 12.6255V15.7017H90.5298V12.6255H88.5298ZM89.5298 16.7017H89.6763V14.7017H89.5298V16.7017ZM90.4876 16.2863C91.329 15.1187 92.4774 14.2122 93.9667 13.5739L93.1789 11.7356C91.3869 12.5036 89.9377 13.6284 88.865 15.117L90.4876 16.2863ZM93.9759 13.5699C95.4892 12.9034 97.0707 12.5708 98.7291 12.5708V10.5708C96.7937 10.5708 94.9377 10.9609 93.1697 11.7396L93.9759 13.5699ZM98.7291 12.5708C100.363 12.5708 101.954 12.9109 103.51 13.5988L104.319 11.7694C102.516 10.9729 100.65 10.5708 98.7291 10.5708V12.5708ZM103.519 13.6027C105.075 14.2718 106.381 15.1961 107.452 16.3743L108.932 15.029C107.659 13.6291 106.114 12.5417 104.31 11.7655L103.519 13.6027ZM107.523 16.445C107.875 16.7617 108.079 17.008 108.184 17.183L109.899 16.154C109.652 15.743 109.29 15.3447 108.861 14.9584L107.523 16.445ZM108.231 17.2543C109.322 18.7639 109.987 20.3204 110.252 21.9288L112.226 21.6035C111.905 19.6571 111.104 17.8152 109.852 16.0826L108.231 17.2543ZM110.252 21.9288C110.533 23.6313 110.678 25.8662 110.678 28.6509H112.678C112.678 25.8105 112.531 23.4557 112.226 21.6035L110.252 21.9288ZM110.678 28.6509V45.8774H112.678V28.6509H110.678ZM111.678 44.8774L103.71 44.8774V46.8774H111.678V44.8774ZM104.71 45.8774V30.2036H102.71V45.8774H104.71ZM104.71 30.2036C104.71 28.3389 104.62 26.7197 104.437 25.3537L102.455 25.6199C102.623 26.8711 102.71 28.3964 102.71 30.2036H104.71ZM104.439 25.3683C104.268 23.9412 103.858 22.6717 103.181 21.5877L101.485 22.6477C101.979 23.4387 102.311 24.4152 102.453 25.6054L104.439 25.3683ZM103.179 21.5859C102.545 20.5754 101.647 19.7928 100.524 19.2311L99.6295 21.0199C100.459 21.4348 101.065 21.9802 101.486 22.6494L103.179 21.5859ZM100.538 19.2383C99.4254 18.6597 98.2522 18.3638 97.0298 18.3638V20.3638C97.9168 20.3638 98.7749 20.5756 99.6154 21.0127L100.538 19.2383ZM97.0298 18.3638C95.7857 18.3638 94.569 18.6705 93.3893 19.2604L94.2837 21.0492C95.2133 20.5844 96.1256 20.3638 97.0298 20.3638V18.3638ZM93.3826 19.2637C92.2 19.8662 91.2625 20.7004 90.6092 21.7735L92.3176 22.8134C92.7582 22.0897 93.4027 21.4981 94.2904 21.0458L93.3826 19.2637ZM90.5962 21.7956C89.9119 22.9875 89.5041 24.3375 89.3551 25.8268L91.3452 26.0258C91.4697 24.7807 91.804 23.7088 92.3307 22.7913L90.5962 21.7956ZM89.3553 25.8253C89.2141 27.217 89.1451 28.8836 89.1451 30.8188H91.1451C91.1451 28.9259 91.2128 27.3308 91.3451 26.0272L89.3553 25.8253ZM89.1451 30.8188V45.8774H91.1451V30.8188H89.1451ZM90.1451 44.8774H82.1763V46.8774H90.1451V44.8774ZM145.006 12.6255V11.6255H144.006V12.6255H145.006ZM152.33 12.6255H153.33V11.6255H152.33V12.6255ZM147.672 53.6704L148.391 54.3656L148.396 54.3599L148.402 54.3541L147.672 53.6704ZM121.715 54.1685L122.418 53.4573L122.414 53.4532L121.715 54.1685ZM117.965 48.397V47.397H116.534L117.026 48.7407L117.965 48.397ZM127.017 48.397L127.747 47.713L127.451 47.397H127.017V48.397ZM130.416 50.6821L130.811 49.7636L130.805 49.761L130.416 50.6821ZM138.473 50.8579L138.14 49.9149L138.131 49.9179L138.123 49.921L138.473 50.8579ZM141.9 48.8071L141.22 48.0738L141.216 48.0781L141.9 48.8071ZM144.068 45.7603L143.13 45.4129L143.127 45.4228L144.068 45.7603ZM145.094 41.3657L146.082 41.5201L146.171 40.9471L145.718 40.5849L145.094 41.3657ZM144.947 41.2485L145.572 40.4677L144.776 39.831L144.154 40.6388L144.947 41.2485ZM130.094 46.2876L130.39 45.3326L130.382 45.3301L130.094 46.2876ZM122.447 41.7466L121.721 42.434L121.727 42.4404L121.733 42.4467L122.447 41.7466ZM119.723 37.9673L118.838 38.4335L118.842 38.4407L118.846 38.4478L119.723 37.9673ZM118.639 22.5864L119.569 22.9515L119.571 22.9484L118.639 22.5864ZM121.92 17.1958L121.176 16.5268L121.172 16.5314L121.92 17.1958ZM127.574 13.0649L127.163 12.1535L127.16 12.1549L127.574 13.0649ZM140.699 13.0063L140.237 13.8932L140.248 13.8989L140.699 13.0063ZM144.889 17.1958L143.996 17.6468L144.273 18.1958H144.889V17.1958ZM145.006 17.1958V18.1958H146.006V17.1958H145.006ZM144.039 25.3989L143.112 25.7753L143.116 25.7841L143.12 25.7928L144.039 25.3989ZM138.795 20.1255L138.408 21.0477L138.413 21.0499L138.795 20.1255ZM128.101 22.2935L127.384 21.5972L127.379 21.6016L128.101 22.2935ZM126.754 34.2466L125.88 34.7332L125.883 34.7379L126.754 34.2466ZM130.328 37.8501L129.828 38.7163L129.833 38.719L130.328 37.8501ZM139.176 38.3481L138.753 37.4419L138.747 37.4447L139.176 38.3481ZM144.127 33.0161L143.198 32.6447L143.196 32.6514L143.193 32.6582L144.127 33.0161ZM145.006 13.6255H152.33V11.6255H145.006V13.6255ZM151.33 12.6255V40.8384L153.33 40.8384V12.6255H151.33ZM151.33 40.8384C151.33 43.473 150.998 45.7118 150.359 47.5744L152.25 48.2235C152.978 46.1016 153.33 43.6334 153.33 40.8384L151.33 40.8384ZM150.359 47.5744C149.729 49.4082 148.603 51.2134 146.942 52.9867L148.402 54.3541C150.217 52.4165 151.512 50.374 152.25 48.2235L150.359 47.5744ZM146.953 52.9753C145.327 54.6563 143.415 55.9788 141.207 56.9435L142.008 58.7762C144.448 57.7097 146.579 56.2392 148.391 54.3656L146.953 52.9753ZM141.207 56.9435C139.004 57.9062 136.757 58.3833 134.459 58.3833V60.3833C137.043 60.3833 139.562 59.8448 142.008 58.7762L141.207 56.9435ZM134.459 58.3833C132.246 58.3833 130.088 57.9599 127.978 57.1083L127.229 58.963C129.572 59.9082 131.984 60.3833 134.459 60.3833V58.3833ZM127.978 57.1083C125.873 56.2592 124.022 55.0434 122.418 53.4573L121.012 54.8796C122.806 56.6529 124.88 58.0152 127.229 58.963L127.978 57.1083ZM122.414 53.4532C120.819 51.8952 119.652 50.0976 118.904 48.0532L117.026 48.7407C117.879 51.0713 119.212 53.1214 121.016 54.8837L122.414 53.4532ZM117.965 49.397H127.017V47.397H117.965V49.397ZM126.288 49.0809C127.277 50.1364 128.533 50.9722 130.027 51.6033L130.805 49.761C129.525 49.2202 128.515 48.5326 127.747 47.713L126.288 49.0809ZM130.02 51.6006C131.529 52.2499 133.011 52.5903 134.459 52.5903V50.5903C133.329 50.5903 132.116 50.3253 130.811 49.7636L130.02 51.6006ZM134.459 52.5903C135.948 52.5903 137.404 52.3239 138.822 51.7948L138.123 49.921C136.924 50.3685 135.704 50.5903 134.459 50.5903V52.5903ZM138.805 51.8009C140.255 51.2894 141.519 50.5363 142.585 49.5362L141.216 48.0781C140.367 48.8748 139.347 49.4889 138.14 49.9149L138.805 51.8009ZM142.58 49.5404C143.735 48.47 144.569 47.3256 145.01 46.0977L143.127 45.4228C142.825 46.2653 142.214 47.1521 141.22 48.0739L142.58 49.5404ZM145.006 46.1076C145.43 44.9623 145.784 43.4227 146.082 41.5201L144.106 41.2113C143.817 43.0588 143.488 44.4488 143.13 45.4129L145.006 46.1076ZM145.718 40.5849L145.572 40.4677L144.322 42.0294L144.469 42.1466L145.718 40.5849ZM144.154 40.6388C141.38 44.246 138.12 45.9614 134.342 45.9614V47.9614C138.845 47.9614 142.655 45.8683 145.74 41.8582L144.154 40.6388ZM134.342 45.9614C133.064 45.9614 131.748 45.7547 130.39 45.3327L129.797 47.2425C131.329 47.7189 132.846 47.9614 134.342 47.9614V45.9614ZM130.382 45.3301C129.038 44.9251 127.726 44.3437 126.444 43.5822L125.423 45.3016C126.836 46.1417 128.297 46.7907 129.805 47.2451L130.382 45.3301ZM126.444 43.5822C125.162 42.8203 124.07 41.9738 123.161 41.0465L121.733 42.4467C122.777 43.5116 124.01 44.462 125.423 45.3016L126.444 43.5822ZM123.173 41.0592C122.202 40.0324 121.343 38.8433 120.599 37.4868L118.846 38.4478C119.665 39.9428 120.622 41.2733 121.721 42.434L123.173 41.0592ZM120.607 37.501C119.882 36.1253 119.346 34.7178 118.995 33.2775L117.052 33.7508C117.443 35.3574 118.039 36.9186 118.838 38.4335L120.607 37.501ZM118.995 33.2775C118.644 31.835 118.467 30.3326 118.467 28.7681H116.467C116.467 30.4847 116.661 32.1464 117.052 33.7508L118.995 33.2775ZM118.467 28.7681C118.467 26.7648 118.834 24.828 119.569 22.9515L117.708 22.2213C116.881 24.3292 116.467 26.5136 116.467 28.7681H118.467ZM119.571 22.9484C120.31 21.0455 121.342 19.3515 122.667 17.8602L121.172 16.5314C119.685 18.2042 118.53 20.1039 117.706 22.2244L119.571 22.9484ZM122.663 17.8648C124.152 16.2108 125.924 14.9151 127.988 13.975L127.16 12.1549C124.849 13.2069 122.852 14.6652 121.176 16.5268L122.663 17.8648ZM127.985 13.9764C130.063 13.0387 132.237 12.5708 134.517 12.5708V10.5708C131.954 10.5708 129.499 11.099 127.163 12.1535L127.985 13.9764ZM134.517 12.5708C136.659 12.5708 138.558 13.0179 140.237 13.8931L141.161 12.1196C139.168 11.0807 136.947 10.5708 134.517 10.5708V12.5708ZM140.248 13.8989C141.913 14.7401 143.155 15.9819 143.996 17.6468L145.781 16.7448C144.747 14.6988 143.196 13.1476 141.15 12.1138L140.248 13.8989ZM144.889 18.1958H145.006V16.1958H144.889V18.1958ZM146.006 17.1958V12.6255H144.006V17.1958H146.006ZM145.83 29.3833C145.83 27.831 145.542 26.3679 144.958 25.005L143.12 25.7928C143.59 26.8909 143.83 28.084 143.83 29.3833H145.83ZM144.965 25.0225C144.412 23.6594 143.647 22.4797 142.666 21.4985L141.252 22.9127C142.028 23.6893 142.651 24.6384 143.112 25.7753L144.965 25.0225ZM142.666 21.4985C141.687 20.5199 140.52 19.7556 139.176 19.2011L138.413 21.0499C139.531 21.511 140.472 22.1334 141.252 22.9127L142.666 21.4985ZM139.182 19.2033C137.84 18.6406 136.398 18.3638 134.869 18.3638V20.3638C136.152 20.3638 137.328 20.5948 138.408 21.0477L139.182 19.2033ZM134.869 18.3638C131.969 18.3638 129.458 19.4585 127.384 21.5972L128.819 22.9897C130.534 21.2221 132.534 20.3638 134.869 20.3638V18.3638ZM127.379 21.6016C126.395 22.629 125.655 23.7771 125.174 25.0443L127.044 25.7536C127.423 24.7552 128.011 23.8329 128.823 22.9854L127.379 21.6016ZM125.174 25.0443C124.698 26.3008 124.465 27.6527 124.465 29.0903H126.465C126.465 27.8717 126.661 26.7627 127.044 25.7536L125.174 25.0443ZM124.465 29.0903C124.465 31.1424 124.932 33.0306 125.88 34.7332L127.627 33.76C126.857 32.3766 126.465 30.8273 126.465 29.0903H124.465ZM125.883 34.7379C126.831 36.4182 128.151 37.7484 129.828 38.7163L130.828 36.9839C129.458 36.194 128.396 35.1219 127.625 33.7553L125.883 34.7379ZM129.833 38.719C131.537 39.6896 133.428 40.1685 135.484 40.1685V38.1685C133.751 38.1685 132.205 37.7684 130.823 36.9812L129.833 38.719ZM135.484 40.1685C136.937 40.1685 138.315 39.8637 139.604 39.2516L138.747 37.4447C137.732 37.9263 136.648 38.1685 135.484 38.1685V40.1685ZM139.599 39.2543C140.885 38.6541 141.999 37.8447 142.931 36.8259L141.455 35.4759C140.708 36.293 139.81 36.9485 138.753 37.442L139.599 39.2543ZM142.931 36.8259C143.856 35.8146 144.567 34.6619 145.061 33.3741L143.193 32.6582C142.788 33.7141 142.21 34.6512 141.455 35.4759L142.931 36.8259ZM145.055 33.3875C145.571 32.0987 145.83 30.7618 145.83 29.3833H143.83C143.83 30.5048 143.62 31.5898 143.198 32.6447L145.055 33.3875ZM176.797 45.8774H175.797V46.8774H176.797V45.8774ZM176.797 12.6255V11.6255H175.797V12.6255H176.797ZM184.092 12.6255L185.092 12.6255V11.6255L184.092 11.6255V12.6255ZM184.092 15.7017H183.092V16.7017H184.092V15.7017ZM184.239 15.7017V16.7017H184.872L185.143 16.1287L184.239 15.7017ZM187.666 12.5962L188.045 13.5216L188.051 13.5193L187.666 12.5962ZM197.862 12.6548L197.442 13.5624L197.446 13.5644L197.862 12.6548ZM201.758 15.7017L200.968 16.3148L201.007 16.3644L201.051 16.4088L201.758 15.7017ZM202.52 16.7271L201.666 17.247L202.585 18.7576L203.406 17.1911L202.52 16.7271ZM203.37 15.7017L203.983 16.491L204.067 16.4261L204.135 16.3451L203.37 15.7017ZM207.647 12.6255L207.272 11.6984L207.268 11.6999L207.647 12.6255ZM223.233 15.7017L222.479 16.359L222.495 16.3771L222.512 16.3945L223.233 15.7017ZM225.401 19.0415L224.471 19.4104L224.475 19.4193L224.479 19.4282L225.401 19.0415ZM226.397 22.7622L225.404 22.8844L225.405 22.8862L226.397 22.7622ZM226.631 45.8774V46.8774H227.631V45.8774H226.631ZM218.663 45.8774H217.663V46.8774L218.663 46.8774V45.8774ZM218.428 24.4907L217.436 24.6193L217.438 24.6296L217.439 24.64L218.428 24.4907ZM217.461 21.8247L216.629 22.3794L216.636 22.3896L216.643 22.3997L217.461 21.8247ZM216.143 20.5063L215.553 21.3137L215.57 21.3265L215.588 21.3384L216.143 20.5063ZM206.973 22.2349L206.125 21.7049L206.115 21.7216L206.105 21.7387L206.973 22.2349ZM205.918 25.5454L204.926 25.4214L204.925 25.429L204.924 25.4367L205.918 25.5454ZM205.713 45.8774V46.8774H206.713V45.8774H205.713ZM197.715 45.8774H196.715V46.8774H197.715V45.8774ZM197.481 24.6372L196.491 24.7815L196.493 24.7916L196.494 24.8016L197.481 24.6372ZM196.455 22.0591L195.612 22.596L195.624 22.6145L195.636 22.6325L196.455 22.0591ZM194.229 20.0669L193.774 20.9575L193.782 20.9613L194.229 20.0669ZM186.846 20.9458L186.105 20.2738L186.099 20.2814L186.846 20.9458ZM185.088 24.6665L184.101 24.5043L184.1 24.5155L185.088 24.6665ZM184.766 45.8774V46.8774H185.766V45.8774H184.766ZM177.797 45.8774V12.6255H175.797V45.8774H177.797ZM176.797 13.6255H184.092V11.6255H176.797V13.6255ZM183.092 12.6255V15.7017H185.092V12.6255L183.092 12.6255ZM184.092 16.7017H184.239V14.7017H184.092V16.7017ZM185.143 16.1287C185.687 14.9773 186.624 14.1038 188.045 13.5216L187.287 11.6708C185.467 12.4167 184.119 13.6135 183.334 15.2747L185.143 16.1287ZM188.051 13.5193C189.567 12.8876 191.165 12.5708 192.852 12.5708V10.5708C190.906 10.5708 189.047 10.9376 187.282 11.6731L188.051 13.5193ZM192.852 12.5708C194.489 12.5708 196.015 12.9026 197.442 13.5624L198.282 11.7472C196.583 10.9617 194.769 10.5708 192.852 10.5708V12.5708ZM197.446 13.5644C198.889 14.2234 200.057 15.1402 200.968 16.3148L202.548 15.0885C201.429 13.6459 199.999 12.5315 198.277 11.7452L197.446 13.5644ZM201.051 16.4088C201.206 16.564 201.413 16.8311 201.666 17.247L203.374 16.2071C203.08 15.7246 202.779 15.3081 202.465 14.9946L201.051 16.4088ZM203.406 17.1911C203.557 16.9024 203.749 16.6732 203.983 16.491L202.756 14.9123C202.287 15.277 201.913 15.7314 201.634 16.263L203.406 17.1911ZM204.135 16.3451C205.158 15.1282 206.448 14.1963 208.026 13.551L207.268 11.6999C205.408 12.4609 203.847 13.5798 202.604 15.0582L204.135 16.3451ZM208.022 13.5525C209.64 12.8981 211.329 12.5708 213.096 12.5708V10.5708C211.074 10.5708 209.131 10.9466 207.272 11.6985L208.022 13.5525ZM213.096 12.5708C217.223 12.5708 220.303 13.8648 222.479 16.359L223.986 15.0443C221.358 12.0307 217.68 10.5708 213.096 10.5708V12.5708ZM222.512 16.3945C223.383 17.3012 224.033 18.3056 224.471 19.4104L226.33 18.6727C225.792 17.3165 224.997 16.0943 223.954 15.0088L222.512 16.3945ZM224.479 19.4282C224.952 20.5569 225.26 21.7082 225.404 22.8844L227.389 22.6401C227.222 21.2771 226.865 19.948 226.323 18.6548L224.479 19.4282ZM225.405 22.8862C225.554 24.0834 225.631 25.5242 225.631 27.2153H227.631C227.631 25.4689 227.552 23.9411 227.389 22.6382L225.405 22.8862ZM225.631 27.2153V45.8774H227.631V27.2153H225.631ZM226.631 44.8774H218.663V46.8774H226.631V44.8774ZM219.663 45.8774V28.1821H217.663V45.8774H219.663ZM219.663 28.1821C219.663 26.7229 219.583 25.4401 219.417 24.3415L217.439 24.64C217.586 25.6117 217.663 26.7898 217.663 28.1821H219.663ZM219.42 24.3622C219.267 23.1794 218.898 22.1294 218.28 21.2498L216.643 22.3997C217.041 22.9653 217.316 23.6927 217.436 24.6193L219.42 24.3622ZM218.293 21.27C217.869 20.6328 217.335 20.0991 216.698 19.6743L215.588 21.3384C216.006 21.6167 216.351 21.9619 216.629 22.3794L218.293 21.27ZM216.733 19.699C216.133 19.2605 215.467 18.9289 214.742 18.7023L214.145 20.6112C214.67 20.7752 215.137 21.01 215.553 21.3137L216.733 19.699ZM214.742 18.7023C214.016 18.4755 213.261 18.3638 212.481 18.3638V20.3638C213.068 20.3638 213.621 20.4474 214.145 20.6112L214.742 18.7023ZM212.481 18.3638C211.166 18.3638 209.943 18.639 208.833 19.2054L209.742 20.987C210.546 20.5768 211.452 20.3638 212.481 20.3638V18.3638ZM208.833 19.2054C207.71 19.7786 206.804 20.6183 206.125 21.7049L207.821 22.7649C208.314 21.9764 208.951 21.3904 209.742 20.987L208.833 19.2054ZM206.105 21.7387C205.484 22.8256 205.096 24.059 204.926 25.4214L206.911 25.6694C207.053 24.5319 207.369 23.5582 207.841 22.731L206.105 21.7387ZM204.924 25.4367C204.782 26.7335 204.713 28.2659 204.713 30.0278H206.713C206.713 28.3133 206.781 26.8573 206.912 25.6541L204.924 25.4367ZM204.713 30.0278V45.8774H206.713V30.0278H204.713ZM205.713 44.8774H197.715V46.8774H205.713V44.8774ZM198.715 45.8774V28.1821H196.715V45.8774H198.715ZM198.715 28.1821C198.715 26.7256 198.636 25.4843 198.467 24.4728L196.494 24.8016C196.638 25.6651 196.715 26.7871 196.715 28.1821H198.715ZM198.47 24.4929C198.311 23.4 197.91 22.3938 197.275 21.4856L195.636 22.6325C196.094 23.2869 196.377 23.9994 196.491 24.7815L198.47 24.4929ZM197.299 21.5222C196.652 20.5053 195.771 19.7198 194.676 19.1725L193.782 20.9613C194.562 21.3515 195.165 21.8941 195.612 22.596L197.299 21.5222ZM194.684 19.1763C193.619 18.6326 192.466 18.3638 191.241 18.3638V20.3638C192.164 20.3638 193.003 20.5637 193.774 20.9575L194.684 19.1763ZM191.241 18.3638C189.098 18.3638 187.316 18.9394 186.106 20.2738L187.587 21.6178C188.29 20.8428 189.438 20.3638 191.241 20.3638V18.3638ZM186.099 20.2814C185.032 21.481 184.366 22.8966 184.102 24.5043L186.075 24.8287C186.28 23.5849 186.785 22.5199 187.594 21.6102L186.099 20.2814ZM184.1 24.5155C183.874 25.9904 183.766 27.8326 183.766 30.0278H185.766C185.766 27.8872 185.872 26.1551 186.077 24.8175L184.1 24.5155ZM183.766 30.0278V45.8774H185.766V30.0278H183.766ZM184.766 44.8774H176.797V46.8774H184.766V44.8774ZM255.535 12.6255V11.6255H254.535V12.6255H255.535ZM263.504 12.6255H264.504V11.6255H263.504V12.6255ZM263.504 45.8774V46.8774H264.504V45.8774H263.504ZM256.179 45.8774H255.179V46.8774H256.179V45.8774ZM256.179 42.3325H257.179V41.3325H256.179V42.3325ZM256.062 42.3325V41.3325H255.451L255.172 41.8763L256.062 42.3325ZM241.883 45.8188L241.487 46.7375L241.496 46.741L241.883 45.8188ZM237.107 42.3325L237.856 41.6693L237.846 41.6581L237.835 41.6472L237.107 42.3325ZM234.998 39.1685L234.07 39.5427L234.073 39.5496L234.076 39.5565L234.998 39.1685ZM234.119 35.6821L233.123 35.7769L233.124 35.7856L233.125 35.7943L234.119 35.6821ZM233.943 12.6255V11.6255H232.943V12.6255H233.943ZM241.912 12.6255H242.912V11.6255H241.912V12.6255ZM242.937 35.7407L242.043 36.1879L242.046 36.1944L242.937 35.7407ZM245.281 38.2603L245.793 37.4013L245.281 38.2603ZM254.129 36.3267L255.025 36.7702L255.027 36.7665L254.129 36.3267ZM245.515 56.6294H244.515V57.6294H245.515V56.6294ZM245.515 50.8579V49.8579H244.515V50.8579H245.515ZM251.873 50.8579H252.873V49.8579H251.873V50.8579ZM251.873 56.6294V57.6294H252.873V56.6294H251.873ZM255.535 13.6255H263.504V11.6255H255.535V13.6255ZM262.504 12.6255V45.8774H264.504V12.6255H262.504ZM263.504 44.8774H256.179V46.8774H263.504V44.8774ZM257.179 45.8774V42.3325H255.179V45.8774H257.179ZM256.179 41.3325H256.062V43.3325H256.179V41.3325ZM255.172 41.8763C254.465 43.2565 253.502 44.26 252.285 44.9275C251.06 45.5997 249.521 45.9614 247.625 45.9614V47.9614C249.771 47.9614 251.66 47.5517 253.247 46.6809C254.843 45.8054 256.078 44.4945 256.952 42.7887L255.172 41.8763ZM247.625 45.9614C245.743 45.9614 243.961 45.6059 242.269 44.8967L241.496 46.741C243.437 47.5552 245.483 47.9614 247.625 47.9614V45.9614ZM242.278 44.9002C240.602 44.1796 239.129 43.107 237.856 41.6693L236.359 42.9957C237.819 44.644 239.53 45.8956 241.487 46.7375L242.278 44.9002ZM237.835 41.6472C236.969 40.7265 236.336 39.7703 235.919 38.7804L234.076 39.5565C234.597 40.7932 235.37 41.9464 236.379 43.0179L237.835 41.6472ZM235.925 38.7943C235.51 37.7662 235.239 36.6923 235.113 35.5699L233.125 35.7943C233.272 37.0938 233.587 38.3442 234.07 39.5427L235.925 38.7943ZM235.114 35.5873C235.001 34.3963 234.943 33.0033 234.943 31.4048H232.943C232.943 33.0484 233.002 34.507 233.123 35.7769L235.114 35.5873ZM234.943 31.4048V12.6255H232.943V31.4048H234.943ZM233.943 13.6255H241.912V11.6255H233.943V13.6255ZM240.912 12.6255V28.9438H242.912V12.6255H240.912ZM240.912 28.9438C240.912 32.1313 241.248 34.5989 242.043 36.1879L243.832 35.2935C243.259 34.1482 242.912 32.0845 242.912 28.9438H240.912ZM242.046 36.1944C242.677 37.4333 243.588 38.4151 244.769 39.1192L245.793 37.4013C244.943 36.8944 244.291 36.1966 243.828 35.287L242.046 36.1944ZM244.769 39.1192C245.943 39.8193 247.234 40.1685 248.621 40.1685V38.1685C247.586 38.1685 246.65 37.9121 245.793 37.4013L244.769 39.1192ZM248.621 40.1685C251.603 40.1685 253.867 39.1098 255.025 36.7702L253.232 35.8831C252.515 37.3325 251.107 38.1685 248.621 38.1685V40.1685ZM255.027 36.7665C256.053 34.6711 256.535 32.0455 256.535 28.9438H254.535C254.535 31.8578 254.079 34.1541 253.231 35.8868L255.027 36.7665ZM256.535 28.9438V12.6255H254.535V28.9438H256.535ZM246.515 56.6294V50.8579H244.515V56.6294H246.515ZM245.515 51.8579H251.873V49.8579H245.515V51.8579ZM250.873 50.8579V56.6294H252.873V50.8579H250.873ZM251.873 55.6294H245.515V57.6294H251.873V55.6294ZM294.517 35.0669V34.0669H293.953L293.661 34.5495L294.517 35.0669ZM303.511 35.0669L304.465 35.3665L304.873 34.0669H303.511V35.0669ZM299.907 41.3071L299.173 40.6285L299.172 40.6288L299.907 41.3071ZM274.653 41.981L273.958 42.6997L273.96 42.7013L274.653 41.981ZM270.581 36.0337L269.654 36.4079L269.657 36.4148L270.581 36.0337ZM274.448 16.6685L273.745 15.9571L274.448 16.6685ZM280.132 12.9185L280.51 13.844L280.515 13.8423L280.132 12.9185ZM294.048 13.0942L294.454 12.1804L294.048 13.0942ZM299.995 17.3716L299.257 18.0466L299.995 17.3716ZM303.511 23.6704V24.6704H304.83L304.473 23.3999L303.511 23.6704ZM294.517 23.6704L293.659 24.184L293.95 24.6704H294.517V23.6704ZM281.831 20.6528L282.333 21.5175L282.337 21.5154L281.831 20.6528ZM278.433 24.1685L277.555 23.6896L277.55 23.6985L278.433 24.1685ZM278.491 34.3052L277.613 34.7832L277.616 34.7899L277.62 34.7965L278.491 34.3052ZM290.063 38.6704L289.723 37.73L290.063 38.6704ZM292.583 37.2642L293.205 38.047L293.208 38.045L292.583 37.2642ZM294.517 36.0669H303.511V34.0669H294.517V36.0669ZM302.557 34.7673C301.858 36.9914 300.731 38.9416 299.173 40.6285L300.642 41.9857C302.403 40.0789 303.679 37.869 304.465 35.3665L302.557 34.7673ZM299.172 40.6288C297.627 42.3027 295.788 43.6098 293.645 44.5519L294.45 46.3827C296.839 45.3326 298.906 43.8662 300.642 41.9854L299.172 40.6288ZM293.645 44.5519C291.504 45.4934 289.297 45.9614 287.017 45.9614V47.9614C289.58 47.9614 292.061 47.4333 294.45 46.3827L293.645 44.5519ZM287.017 45.9614C284.908 45.9614 282.809 45.5403 280.714 44.6876L279.96 46.54C282.279 47.4841 284.633 47.9614 287.017 47.9614V45.9614ZM280.714 44.6876C278.615 43.8329 276.83 42.6887 275.347 41.2606L273.96 42.7013C275.641 44.3201 277.645 45.5977 279.96 46.54L280.714 44.6876ZM275.349 41.2622C273.647 39.6158 272.369 37.7472 271.506 35.6525L269.657 36.4148C270.629 38.7733 272.066 40.8696 273.958 42.6997L275.349 41.2622ZM271.508 35.6595C270.659 33.5539 270.233 31.3471 270.233 29.0317H268.233C268.233 31.5992 268.706 34.0604 269.654 36.4079L271.508 35.6595ZM270.233 29.0317C270.233 26.7605 270.667 24.6411 271.527 22.6632L269.693 21.8651C268.718 24.106 268.233 26.4983 268.233 29.0317H270.233ZM271.527 22.6632C272.394 20.6709 273.601 18.9116 275.151 17.3798L273.745 15.9571C272.014 17.6675 270.662 19.6387 269.693 21.8651L271.527 22.6632ZM275.151 17.3798C276.698 15.8512 278.482 14.6737 280.51 13.844L279.753 11.9929C277.484 12.921 275.48 14.2435 273.745 15.9571L275.151 17.3798ZM280.515 13.8423C282.559 12.9949 284.704 12.5708 286.958 12.5708V10.5708C284.446 10.5708 282.04 11.0451 279.749 11.9946L280.515 13.8423ZM286.958 12.5708C289.256 12.5708 291.481 13.0478 293.642 14.008L294.454 12.1804C292.044 11.1094 289.543 10.5708 286.958 10.5708V12.5708ZM293.642 14.008C295.802 14.968 297.671 16.3128 299.257 18.0466L300.733 16.6966C298.96 14.7585 296.864 13.2517 294.454 12.1804L293.642 14.008ZM299.257 18.0466C300.833 19.7688 301.927 21.7303 302.548 23.9409L304.473 23.3999C303.766 20.8839 302.517 18.6463 300.733 16.6966L299.257 18.0466ZM303.511 22.6704H294.517V24.6704H303.511V22.6704ZM295.375 23.1568C293.472 19.9782 290.584 18.3638 286.841 18.3638V20.3638C289.894 20.3638 292.124 21.6204 293.659 24.184L295.375 23.1568ZM286.841 18.3638C284.807 18.3638 282.959 18.8318 281.325 19.7903L282.337 21.5154C283.633 20.7552 285.125 20.3638 286.841 20.3638V18.3638ZM281.329 19.7882C279.721 20.7223 278.46 22.0294 277.555 23.6896L279.31 24.6473C280.046 23.2997 281.05 22.2631 282.333 21.5175L281.329 19.7882ZM277.55 23.6985C276.667 25.3566 276.231 27.1798 276.231 29.1489H278.231C278.231 27.4853 278.597 25.9881 279.315 24.6385L277.55 23.6985ZM276.231 29.1489C276.231 31.197 276.687 33.0822 277.613 34.7832L279.37 33.8271C278.616 32.4422 278.231 30.8899 278.231 29.1489H276.231ZM277.62 34.7965C278.571 36.482 279.906 37.805 281.608 38.753L282.581 37.0058C281.198 36.2351 280.13 35.1752 279.362 33.8139L277.62 34.7965ZM281.608 38.753C283.311 39.7013 285.199 40.1685 287.251 40.1685V38.1685C285.514 38.1685 283.965 37.7763 282.581 37.0058L281.608 38.753ZM287.251 40.1685C288.326 40.1685 289.379 39.9815 290.404 39.6108L289.723 37.73C288.912 38.0234 288.09 38.1685 287.251 38.1685V40.1685ZM290.404 39.6108C291.423 39.242 292.358 38.7201 293.205 38.047L291.961 36.4813C291.284 37.0191 290.54 37.4348 289.723 37.73L290.404 39.6108ZM293.208 38.045C294.079 37.3479 294.802 36.5269 295.372 35.5843L293.661 34.5495C293.215 35.2866 292.649 35.9304 291.958 36.4833L293.208 38.045Z" fill="#8687A7" fill-opacity="0.5"/>
</svg>
