<?xml version="1.0" encoding="utf-8"?>
<!-- Generator: Adobe Illustrator 22.0.1, SVG Export Plug-In . SVG Version: 6.00 Build 0)  -->
<svg version="1.1" id="Layer_1" xmlns="http://www.w3.org/2000/svg" xmlns:xlink="http://www.w3.org/1999/xlink" x="0px" y="0px"
	 viewBox="0 0 254 67" style="enable-background:new 0 0 254 67;" xml:space="preserve">
<style type="text/css">
	.st0{fill:#FFFFFF;filter:url(#Adobe_OpacityMaskFilter);}
	.st1{mask:url(#path-1-outside-1_2_);}
	.st2{fill:url(#SVGID_1_);}
</style>
<defs>
	<filter id="Adobe_OpacityMaskFilter" filterUnits="userSpaceOnUse" x="0.5" y="0.5" width="252.5" height="65.7">
		<feColorMatrix  type="matrix" values="1 0 0 0 0  0 1 0 0 0  0 0 1 0 0  0 0 0 1 0"/>
	</filter>
</defs>
<mask maskUnits="userSpaceOnUse" x="0.5" y="0.5" width="252.5" height="65.7" id="path-1-outside-1_2_">
	<rect x="0.5" y="-0.1" class="st0" width="253" height="67"/>
	<path d="M12.4,63.8V15.3H1.5V4.7h32.9v10.6H23.4v48.5H12.4z M39.9,63.8V19.4h10.6v44.3H39.9z M41,14.3V6.7h8.5v7.7H41z M60.1,63.8
		V19.4h9.8v4.1h0.2c1.3-1.8,3-3.1,5.2-4.1c2.2-1,4.5-1.4,6.9-1.4c2.4,0,4.7,0.5,6.9,1.5c2.2,1,4.1,2.3,5.7,4
		c0.5,0.5,0.9,0.9,1.1,1.3c1.6,2.2,2.5,4.4,2.9,6.8c0.4,2.4,0.6,5.4,0.6,9.2v23H88.8V42.9c0-2.4-0.1-4.5-0.4-6.3
		c-0.2-1.7-0.7-3.2-1.5-4.5c-0.7-1.1-1.7-2-3-2.7c-1.3-0.7-2.7-1-4.1-1c-1.4,0-2.9,0.4-4.3,1.1c-1.4,0.7-2.4,1.7-3.2,2.9
		c-0.8,1.4-1.3,3-1.5,4.8c-0.2,1.8-0.3,4-0.3,6.5v20.1H60.1z M134.1,63.8V28.9h-5.2v-9.5h5.2V4.7h10.6v14.8h6.4v9.5h-6.4v34.9H134.1
		z M185.9,19.4h10.6V30c1.5,0,2.6-0.8,3.2-2.5c0.7-1.7,1-4.4,1-8.1h5.8c-0.1,4.7-1.1,8.3-2.9,10.8c-1.8,2.5-4.2,3.7-7.1,3.7v29.8
		h-9.8v-4.7h-0.2c-2.1,4.1-5.9,6.2-11.3,6.2c-2.7,0-5.2-0.5-7.6-1.5c-2.4-1-4.5-2.6-6.4-4.6c-1-1-1.7-2.1-2.3-3.1
		c-0.5-1-1-2.2-1.3-3.4c-0.3-1.3-0.5-2.6-0.6-3.9c-0.1-1.4-0.1-2.7-0.1-4.1v-25h10.7v21.8c0,4.2,0.5,7.2,1.4,9.1
		c0.7,1.4,1.7,2.5,3.1,3.4c1.4,0.8,2.9,1.2,4.5,1.2c3.6,0,6.1-1.3,7.3-3.8c1.3-2.6,1.9-5.8,1.9-9.8V19.4z M174.4,15.4l-2.9-5.5
		L185,1.9l3.1,6.3L174.4,15.4z M239.7,49.4h12c-1,3.2-2.6,5.9-4.8,8.3c-2.2,2.4-4.8,4.2-7.8,5.5c-3,1.3-6.1,2-9.4,2
		c-3,0-6-0.6-8.9-1.8c-2.9-1.2-5.5-2.8-7.6-4.8c-2.4-2.3-4.2-5-5.4-7.9c-1.2-3-1.8-6.1-1.8-9.3c0-3.2,0.6-6.2,1.8-9s2.9-5.3,5.1-7.5
		c2.2-2.2,4.7-3.8,7.6-5c2.9-1.2,5.9-1.8,9.1-1.8c3.3,0,6.4,0.7,9.5,2c3,1.4,5.7,3.3,7.9,5.7c2.2,2.4,3.8,5.2,4.7,8.4h-12
		c-2.3-3.8-5.7-5.7-10.2-5.7c-2.5,0-4.7,0.6-6.7,1.7c-1.9,1.1-3.4,2.7-4.5,4.7c-1.1,2-1.6,4.2-1.6,6.6c0,2.5,0.6,4.8,1.7,6.9
		c1.1,2,2.7,3.6,4.8,4.8c2.1,1.1,4.3,1.7,6.9,1.7c1.3,0,2.5-0.2,3.8-0.7s2.3-1.1,3.4-1.9C238.2,51.5,239.1,50.5,239.7,49.4z"/>
</mask>
<g class="st1">
	
		<linearGradient id="SVGID_1_" gradientUnits="userSpaceOnUse" x1="95.965" y1="118.4247" x2="192.7589" y2="-148.8569" gradientTransform="matrix(1 0 0 -1 0 68)">
		<stop  offset="0" style="stop-color:#613B02;stop-opacity:0"/>
		<stop  offset="1" style="stop-color:#EFD16E"/>
	</linearGradient>
	<path class="st2" d="M229.7,66.2c-3.1,0-6.2-0.6-9.3-1.9c-3-1.2-5.7-2.9-7.9-5.1c-2.5-2.4-4.4-5.2-5.7-8.3
		c-1.2-3.1-1.9-6.3-1.9-9.7c0-3.3,0.6-6.5,1.9-9.4c1.3-2.9,3.1-5.5,5.3-7.8c2.3-2.2,4.9-4,7.9-5.2c3-1.2,6.2-1.9,9.5-1.9
		c3.4,0,6.7,0.7,9.9,2.1c3.2,1.4,5.9,3.4,8.3,5.9c2.3,2.6,4,5.5,4.9,8.8l0.4,1.3h-13.9l-0.3-0.5c-2.1-3.5-5.2-5.3-9.4-5.3
		c-2.3,0-4.4,0.5-6.2,1.6c-1.8,1-3.2,2.5-4.2,4.3c-1,1.8-1.5,3.9-1.5,6.2c0,2.3,0.5,4.5,1.6,6.4c1,1.8,2.5,3.3,4.4,4.4
		c1.9,1.1,4,1.6,6.4,1.6c1.2,0,2.3-0.2,3.4-0.6c1.1-0.4,2.2-1,3.1-1.7c0.9-0.8,1.7-1.7,2.3-2.7l0.3-0.5h13.9l-0.4,1.3
		c-1,3.3-2.7,6.2-5,8.7c-2.3,2.5-5,4.4-8.1,5.8C236.4,65.5,233.1,66.2,229.7,66.2z M229.7,19c-3,0-6,0.6-8.7,1.7
		c-2.7,1.1-5.2,2.7-7.3,4.8c-2.1,2.1-3.7,4.5-4.9,7.1c-1.2,2.7-1.8,5.6-1.8,8.6c0,3.1,0.6,6.1,1.7,9c1.2,2.8,2.9,5.4,5.2,7.6
		c2,1.9,4.4,3.5,7.3,4.6c5.8,2.4,12,2.3,17.5-0.2c2.9-1.3,5.4-3.1,7.5-5.3c1.8-1.9,3.2-4.2,4.1-6.6h-10c-0.7,1-1.5,1.9-2.5,2.7
		c-1.1,0.9-2.3,1.6-3.6,2c-1.3,0.5-2.7,0.7-4.1,0.7c-2.7,0-5.2-0.6-7.4-1.8c-2.2-1.2-4-3-5.2-5.1c-1.2-2.2-1.8-4.7-1.8-7.4
		c0-2.6,0.6-5,1.7-7.1c1.2-2.2,2.8-3.9,4.9-5.1c2.1-1.2,4.5-1.9,7.2-1.9c4.7,0,8.3,1.9,10.8,5.7h10.1c-0.9-2.5-2.2-4.7-4.1-6.7
		c-2.1-2.3-4.7-4.2-7.6-5.5C235.8,19.7,232.8,19,229.7,19z M175.3,66.2c-2.8,0-5.5-0.5-8-1.6c-2.6-1.1-4.8-2.7-6.7-4.9
		c-1-1.1-1.8-2.2-2.4-3.3c-0.6-1.1-1-2.3-1.4-3.6c-0.3-1.3-0.5-2.7-0.6-4.1c-0.1-1.4-0.1-2.8-0.1-4.2v-26h12.7v22.8
		c0,4,0.4,6.9,1.3,8.6c0.6,1.3,1.5,2.2,2.7,3c1.2,0.7,2.5,1.1,4,1.1c3.3,0,5.4-1.1,6.4-3.2c1.2-2.4,1.8-5.6,1.8-9.4V18.4h12.6v10.4
		c0.5-0.2,0.9-0.7,1.3-1.6c0.6-1.5,0.9-4.1,0.9-7.8v-1h7.8l0,1c-0.1,4.9-1.1,8.7-3.1,11.4c-1.8,2.4-4.1,3.8-6.9,4.1v29.9h-11.8v-2.7
		C183.3,64.8,179.8,66.2,175.3,66.2z M158,20.4v24c0,1.4,0,2.8,0.1,4.1c0.1,1.3,0.3,2.5,0.6,3.7c0.3,1.1,0.7,2.2,1.2,3.2
		c0.5,1,1.2,1.9,2.1,2.9c1.7,2,3.8,3.4,6,4.4c2.3,1,4.7,1.4,7.2,1.4c5.1,0,8.5-1.8,10.4-5.6l0.3-0.5h1.8v4.7h7.8V32.9h1
		c2.6,0,4.6-1.1,6.3-3.3c1.6-2.1,2.5-5.2,2.7-9.2h-3.8c-0.1,3.4-0.4,5.8-1,7.5c-1,2.6-2.8,3.1-4.1,3.1h-1V20.4h-8.6v20.8
		c0,4.1-0.7,7.6-2,10.3c-1.4,2.9-4.2,4.3-8.2,4.3c-1.8,0-3.5-0.5-5-1.3c-1.6-0.9-2.7-2.2-3.5-3.8c-1-2-1.5-5.1-1.5-9.5V20.4H158z
		 M145.7,64.8h-12.6V29.9h-5.2V18.4h5.2V3.7h12.6v14.8h6.4v11.5h-6.4V64.8z M135.1,62.8h8.6V27.9h6.4v-7.5h-6.4V5.7h-8.6v14.8h-5.2
		v7.5h5.2V62.8z M100.4,64.8H87.8V42.9c0-2.4-0.1-4.5-0.3-6.2c-0.2-1.6-0.6-3-1.3-4.1c-0.6-1-1.5-1.7-2.6-2.3
		c-2.4-1.2-4.9-1.2-7.4,0c-1.2,0.6-2.1,1.4-2.8,2.5c-0.7,1.3-1.2,2.8-1.3,4.4c-0.2,1.8-0.3,3.9-0.3,6.4v21.1H59.1V18.4h11.8v2.7
		c1.1-1,2.5-1.9,4-2.6c4.6-2,9.9-2,14.6,0c2.3,1,4.4,2.4,6,4.2c0.6,0.5,1,1,1.3,1.5c1.6,2.2,2.6,4.6,3.1,7.1
		c0.4,2.4,0.6,5.6,0.6,9.3V64.8z M89.8,62.8h8.6v-22c0-3.7-0.2-6.7-0.6-9c-0.4-2.2-1.3-4.3-2.8-6.4c-0.2-0.4-0.5-0.7-1-1.1L94,24.2
		c-1.5-1.6-3.3-2.9-5.4-3.8c-4.2-1.9-8.9-1.8-13,0c-2,0.9-3.6,2.1-4.8,3.7l-0.3,0.4h-1.7v-4.1h-7.8v42.3h8.6V43.7
		c0-2.6,0.1-4.8,0.3-6.6c0.2-2,0.7-3.7,1.6-5.2c0.8-1.4,2-2.5,3.6-3.2c3.1-1.5,6.3-1.5,9.2,0c1.4,0.7,2.6,1.7,3.4,3
		c0.9,1.4,1.4,3,1.6,4.9c0.2,1.8,0.4,3.9,0.4,6.4V62.8z M51.5,64.8H38.9V18.4h12.6V64.8z M40.9,62.8h8.6V20.4h-8.6V62.8z M24.4,64.8
		H11.4V16.3H0.5V3.7h34.9v12.6H24.4V64.8z M13.4,62.8h8.9V14.3h11.1V5.7H2.5v8.6h10.9V62.8z M174,16.7l-3.8-7.2l15.2-9l4,8.1
		L174,16.7z M172.9,10.3l2,3.8l11.9-6.3l-2.2-4.4L172.9,10.3z M50.5,15.3H40V5.7h10.5V15.3z M42,13.3h6.5V7.7H42V13.3z"/>
</g>
</svg>
