<?xml version="1.0" encoding="utf-8"?>
<!-- Generator: Adobe Illustrator 22.0.1, SVG Export Plug-In . SVG Version: 6.00 Build 0)  -->
<svg version="1.1" id="Layer_1" xmlns="http://www.w3.org/2000/svg" xmlns:xlink="http://www.w3.org/1999/xlink" x="0px" y="0px"
	 viewBox="0 0 384 72" style="enable-background:new 0 0 384 72;" xml:space="preserve">
<style type="text/css">
	.st0{fill:#FFFFFF;filter:url(#Adobe_OpacityMaskFilter);}
	.st1{mask:url(#path-1-outside-1_2_);}
	.st2{fill:url(#SVGID_1_);}
</style>
<defs>
	<filter id="Adobe_OpacityMaskFilter" filterUnits="userSpaceOnUse" x="0.5" y="0.8" width="382.5" height="70.2">
		<feColorMatrix  type="matrix" values="1 0 0 0 0  0 1 0 0 0  0 0 1 0 0  0 0 0 1 0"/>
	</filter>
</defs>
<mask maskUnits="userSpaceOnUse" x="0.5" y="0.8" width="382.5" height="70.2" id="path-1-outside-1_2_">
	<rect x="0.5" y="0.8" class="st0" width="383" height="71"/>
	<path d="M12.4,68.6V20.1H1.5V9.5h32.9v10.6H23.4v48.5H12.4z M39.9,68.6V9.5h10.6v18.1c1.2-1.6,2.8-2.7,4.9-3.6
		c2.1-0.8,4.3-1.2,6.5-1.2c2.4,0,4.8,0.5,7.1,1.6c2.4,1.1,4.3,2.5,5.9,4.3c1.3,1.4,2.2,3,2.8,4.6c0.6,1.7,1,3.3,1.2,4.9
		c0.2,1.6,0.2,3.7,0.2,6.3v24H68.5V46.9c0-2.7-0.2-5.1-0.6-7c-0.4-1.9-1.3-3.5-2.6-4.8c-1.3-1.3-3.3-1.9-5.9-1.9
		c-3.2,0-5.6,1.3-7.3,3.8c-0.7,1.2-1.2,2.6-1.4,4.3c-0.2,1.6-0.3,3.5-0.3,5.7v21.5H39.9z M117.4,24.2H128v10.6
		c1.5,0,2.6-0.8,3.2-2.5c0.7-1.7,1-4.4,1-8.1h5.8c-0.1,4.7-1.1,8.3-2.9,10.8c-1.8,2.5-4.2,3.7-7.1,3.7v29.8h-9.8v-4.7h-0.2
		C116,68,112.2,70,106.8,70c-2.7,0-5.2-0.5-7.6-1.5c-2.4-1-4.5-2.6-6.4-4.6c-1-1-1.7-2.1-2.3-3.1c-0.5-1-1-2.2-1.3-3.4
		c-0.3-1.3-0.5-2.6-0.6-3.9c-0.1-1.4-0.1-2.7-0.1-4.1v-25h10.7V46c0,4.2,0.5,7.2,1.4,9.1c0.7,1.4,1.7,2.5,3.1,3.4
		c1.4,0.8,2.9,1.2,4.5,1.2c3.6,0,6.1-1.3,7.3-3.8c1.3-2.6,1.9-5.8,1.9-9.8V24.2z M107.5,10.4l-6-1.8c0.2-2.2,1.1-3.9,2.6-5
		c1.5-1.2,3.5-1.8,5.9-1.8c1.7,0,3.2,0.4,4.5,1.1c1.3,0.7,2.3,1.7,3,2.9c0.7,1.2,1.1,2.6,1.1,4.1c0,1.3-0.4,2.3-1.1,3.1
		c-0.7,0.8-1.9,1.8-3.5,3c-0.8,0.4-1.3,0.9-1.8,1.3c-0.4,0.4-0.6,0.9-0.6,1.6H106v-0.5c0-1.3,0.4-2.5,1.2-3.6s1.8-2,3-2.7
		c0.7-0.5,1.1-0.8,1.2-0.9c0.2-0.1,0.2-0.4,0.2-0.7c0-1.4-0.7-2.1-2.1-2.1C108.2,8.3,107.5,9,107.5,10.4z M164.4,68.6V33.7h-5.2
		v-9.5h5.2V9.5h10.6v14.8h6.4v9.5h-6.4v34.9H164.4z M187.8,68.6V9.5h10.6v18.1c1.2-1.6,2.8-2.7,4.9-3.6c2.1-0.8,4.3-1.2,6.5-1.2
		c2.4,0,4.8,0.5,7.1,1.6s4.3,2.5,5.9,4.3c1.3,1.4,2.2,3,2.8,4.6c0.6,1.7,1,3.3,1.2,4.9c0.2,1.6,0.2,3.7,0.2,6.3v24h-10.6V46.9
		c0-2.7-0.2-5.1-0.6-7c-0.4-1.9-1.3-3.5-2.6-4.8c-1.3-1.3-3.3-1.9-5.9-1.9c-3.2,0-5.6,1.3-7.3,3.8c-0.7,1.2-1.2,2.6-1.4,4.3
		c-0.2,1.6-0.3,3.5-0.3,5.7v21.5H187.8z M281.7,24.2v44.3h-9.8v-6h-0.2c-1.6,2.3-3.8,4.1-6.6,5.4c-2.8,1.4-5.6,2-8.4,2
		c-3.3,0-6.4-0.7-9.1-2c-2.8-1.3-5.2-3.1-7.2-5.5c-3.7-4.4-5.5-9.8-5.5-16.1c0-2,0.2-3.9,0.5-5.8c0.4-1.9,1-3.7,1.8-5.3
		c0.8-1.6,2-3.3,3.4-4.9c2.2-2.6,4.7-4.5,7.5-5.8c2.8-1.3,5.8-1.9,9-1.9c3,0,5.8,0.7,8.4,2c2.6,1.3,4.7,3.2,6.5,5.7v-6.3H281.7z
		 M271.6,46.3c0-1.9-0.3-3.6-0.9-5.2c-0.6-1.6-1.5-3-2.6-4.2c-1.1-1.2-2.5-2.1-4.1-2.7c-1.6-0.7-3.3-1-5.2-1c-3.9,0-7.1,1.3-9.6,3.9
		c-2.5,2.6-3.7,5.8-3.7,9.7c0,3.6,1.3,6.6,3.9,9.1c2.6,2.5,5.7,3.7,9.3,3.7c2.5,0,4.7-0.6,6.7-1.7c2-1.2,3.5-2.8,4.6-4.8
		C271,51.1,271.6,48.8,271.6,46.3z M258.3,17.9l-2.9-5.5l13.4-7.9l3.1,6.2L258.3,17.9z M322.3,54.2h12c-1,3.2-2.6,5.9-4.8,8.3
		c-2.2,2.4-4.8,4.2-7.8,5.5c-3,1.3-6.1,2-9.4,2c-3,0-6-0.6-8.9-1.8c-2.9-1.2-5.5-2.8-7.6-4.8c-2.4-2.3-4.2-5-5.4-7.9
		c-1.2-3-1.8-6.1-1.8-9.3c0-3.2,0.6-6.2,1.8-9s2.9-5.3,5.1-7.5c2.2-2.2,4.7-3.8,7.6-5c2.9-1.2,5.9-1.8,9.1-1.8c3.3,0,6.4,0.7,9.5,2
		c3,1.4,5.7,3.3,7.9,5.7s3.8,5.2,4.7,8.4h-12c-2.3-3.8-5.7-5.7-10.2-5.7c-2.5,0-4.7,0.6-6.7,1.7c-1.9,1.1-3.4,2.7-4.5,4.7
		c-1.1,2-1.6,4.2-1.6,6.6c0,2.5,0.6,4.8,1.7,6.9c1.1,2,2.7,3.6,4.8,4.8c2.1,1.1,4.3,1.7,6.9,1.7c1.3,0,2.5-0.2,3.8-0.7
		s2.3-1.1,3.4-1.9C320.8,56.3,321.7,55.3,322.3,54.2z M342.8,68.6V9.5h10.6v18.1c1.2-1.6,2.8-2.7,4.9-3.6c2.1-0.8,4.3-1.2,6.5-1.2
		c2.4,0,4.8,0.5,7.1,1.6s4.3,2.5,5.9,4.3c1.3,1.4,2.2,3,2.8,4.6c0.6,1.7,1,3.3,1.2,4.9c0.2,1.6,0.2,3.7,0.2,6.3v24h-10.6V46.9
		c0-2.7-0.2-5.1-0.6-7c-0.4-1.9-1.3-3.5-2.6-4.8c-1.3-1.3-3.3-1.9-5.9-1.9c-3.2,0-5.6,1.3-7.3,3.8c-0.7,1.2-1.2,2.6-1.4,4.3
		c-0.2,1.6-0.3,3.5-0.3,5.7v21.5H342.8z"/>
</mask>
<g class="st1">
	
		<linearGradient id="SVGID_1_" gradientUnits="userSpaceOnUse" x1="171.9819" y1="125.9935" x2="240.1572" y2="-160.0953" gradientTransform="matrix(1 0 0 -1 0 74)">
		<stop  offset="0" style="stop-color:#613B02;stop-opacity:0"/>
		<stop  offset="1" style="stop-color:#EFD16E"/>
	</linearGradient>
	<path class="st2" d="M312.3,71c-3.1,0-6.2-0.6-9.3-1.9c-3-1.2-5.7-2.9-7.9-5c-2.5-2.4-4.4-5.2-5.7-8.3c-1.2-3.1-1.9-6.3-1.9-9.7
		c0-3.3,0.6-6.5,1.9-9.4c1.3-2.9,3.1-5.5,5.3-7.8c2.3-2.2,4.9-4,7.9-5.2c3-1.2,6.2-1.9,9.5-1.9c3.4,0,6.7,0.7,9.9,2.1
		c3.2,1.4,5.9,3.4,8.3,5.9c2.3,2.6,4,5.5,4.9,8.8l0.4,1.3h-13.9l-0.3-0.5c-2.1-3.5-5.2-5.3-9.4-5.3c-2.3,0-4.4,0.5-6.2,1.6
		c-1.8,1-3.2,2.5-4.2,4.3c-1,1.8-1.5,3.9-1.5,6.2c0,2.3,0.5,4.5,1.6,6.4c1,1.8,2.5,3.3,4.4,4.4c1.9,1.1,4,1.6,6.4,1.6
		c1.2,0,2.3-0.2,3.4-0.6c1.1-0.4,2.2-1,3.1-1.7c0.9-0.8,1.7-1.7,2.3-2.7l0.3-0.5h13.9l-0.4,1.3c-1,3.3-2.7,6.2-5,8.7
		c-2.3,2.5-5,4.4-8.1,5.8S315.7,71,312.3,71z M312.3,23.8c-3,0-6,0.6-8.7,1.7c-2.7,1.1-5.2,2.7-7.3,4.8c-2.1,2.1-3.7,4.5-4.9,7.1
		c-1.2,2.7-1.8,5.6-1.8,8.6c0,3.1,0.6,6.1,1.7,9c1.2,2.8,2.9,5.4,5.2,7.6c2,1.9,4.4,3.5,7.3,4.6c5.8,2.4,12,2.3,17.5-0.2
		c2.9-1.3,5.4-3.1,7.5-5.3c1.8-1.9,3.2-4.2,4.1-6.6h-10c-0.7,1-1.5,1.9-2.5,2.7c-1.1,0.9-2.3,1.6-3.6,2c-1.3,0.5-2.7,0.7-4.1,0.7
		c-2.7,0-5.2-0.6-7.4-1.8c-2.2-1.2-4-3-5.2-5.1c-1.2-2.2-1.8-4.7-1.8-7.4c0-2.6,0.6-5,1.7-7.1c1.2-2.2,2.8-3.9,4.9-5.1
		c2.1-1.2,4.5-1.9,7.2-1.9c4.7,0,8.3,1.9,10.8,5.7H333c-0.9-2.5-2.2-4.7-4.1-6.7c-2.1-2.3-4.7-4.2-7.6-5.5
		C318.4,24.5,315.4,23.8,312.3,23.8z M256.7,71c-3.4,0-6.7-0.7-9.6-2c-2.9-1.4-5.4-3.3-7.5-5.8c-3.8-4.6-5.8-10.2-5.8-16.8
		c0-2,0.2-4,0.6-6c0.4-2,1-3.8,1.9-5.5c0.9-1.7,2-3.4,3.5-5.1c2.3-2.7,4.9-4.7,7.8-6c2.9-1.3,6.1-2,9.4-2c3.2,0,6.2,0.7,8.9,2.1
		c1.9,0.9,3.6,2.2,5,3.8v-4.4h11.8v46.3h-11.8v-4.5c-1.5,1.5-3.3,2.8-5.4,3.8C262.6,70.3,259.7,71,256.7,71z M257,23.8
		c-3.1,0-6,0.6-8.6,1.8c-2.6,1.2-5,3-7.1,5.5c-1.3,1.5-2.4,3.1-3.2,4.7c-0.8,1.5-1.3,3.2-1.7,5c-0.3,1.8-0.5,3.7-0.5,5.6
		c0,6.1,1.8,11.3,5.3,15.5c1.9,2.2,4.2,4,6.8,5.2c2.6,1.2,5.6,1.9,8.7,1.9c2.6,0,5.3-0.6,8-1.9c2.6-1.3,4.8-3,6.3-5.1l0.3-0.4h1.7v6
		h7.8V25.2h-7.8v8.4l-1.8-2.6c-1.6-2.4-3.7-4.2-6.1-5.4C262.6,24.4,259.9,23.8,257,23.8z M106.8,71c-2.8,0-5.5-0.5-8-1.6
		c-2.6-1.1-4.8-2.7-6.7-4.9c-1-1.1-1.8-2.2-2.4-3.3c-0.6-1.1-1-2.3-1.4-3.6c-0.3-1.3-0.5-2.7-0.6-4.1c-0.1-1.4-0.1-2.8-0.1-4.2v-26
		h12.7V46c0,4,0.4,6.9,1.3,8.6c0.6,1.3,1.5,2.2,2.7,3c1.2,0.7,2.5,1.1,4,1.1c3.3,0,5.4-1.1,6.4-3.2c1.2-2.4,1.8-5.6,1.8-9.4V23.2
		H129v10.4c0.5-0.2,0.9-0.7,1.3-1.6c0.6-1.5,0.9-4.1,0.9-7.8v-1h7.8l0,1c-0.1,4.9-1.1,8.7-3.1,11.4c-1.8,2.4-4.1,3.8-6.9,4.1v29.9
		h-11.8v-2.7C114.8,69.6,111.3,71,106.8,71z M89.5,25.2v24c0,1.4,0,2.8,0.1,4.1c0.1,1.3,0.3,2.5,0.6,3.7c0.3,1.1,0.7,2.2,1.2,3.2
		c0.5,1,1.2,1.9,2.1,2.9c1.7,2,3.8,3.4,6,4.4c2.3,1,4.7,1.4,7.2,1.4c5.1,0,8.5-1.8,10.4-5.6l0.3-0.5h1.8v4.7h7.8V37.7h1
		c2.6,0,4.6-1.1,6.3-3.3c1.6-2.1,2.5-5.2,2.7-9.2h-3.8c-0.1,3.4-0.4,5.8-1,7.5c-1,2.6-2.8,3.1-4.1,3.1h-1V25.2h-8.6V46
		c0,4.1-0.7,7.6-2,10.3c-1.4,2.9-4.2,4.3-8.2,4.3c-1.8,0-3.5-0.5-5-1.3c-1.6-0.9-2.7-2.2-3.5-3.8c-1-2-1.5-5.1-1.5-9.5V25.2H89.5z
		 M383,69.6h-12.6V46.9c0-2.7-0.2-4.9-0.6-6.8c-0.4-1.7-1.1-3.1-2.3-4.2c-1.1-1.1-2.9-1.6-5.2-1.6c-2.8,0-4.9,1.1-6.4,3.4
		c-0.6,1.1-1.1,2.4-1.2,3.8c-0.2,1.5-0.3,3.4-0.3,5.6v22.5h-12.6V8.5h12.6v16.7c1-0.8,2.2-1.5,3.5-2c4.6-1.8,9.6-1.7,14.4,0.4
		c2.5,1.1,4.6,2.7,6.2,4.6c1.3,1.5,2.3,3.2,3,5c0.7,1.7,1.1,3.5,1.2,5.2c0.2,1.6,0.2,3.8,0.2,6.4V69.6z M372.4,67.6h8.6v-23
		c0-2.5-0.1-4.6-0.2-6.2c-0.1-1.5-0.5-3.1-1.1-4.7c-0.6-1.5-1.5-3-2.6-4.3c-1.5-1.7-3.3-3-5.6-4c-4.3-1.9-8.7-1.9-12.9-0.4
		c-1.9,0.7-3.4,1.8-4.4,3.2l-1.8,2.4V10.5h-8.6v57.1h8.6V47c0-2.3,0.1-4.2,0.3-5.9c0.2-1.8,0.7-3.3,1.5-4.7c1.9-2.9,4.6-4.3,8.1-4.3
		c2.8,0,5,0.7,6.6,2.2c1.5,1.4,2.4,3.2,2.9,5.3c0.4,2,0.6,4.4,0.6,7.2V67.6z M228,69.6h-12.6V46.9c0-2.7-0.2-4.9-0.6-6.8
		c-0.4-1.7-1.1-3.1-2.3-4.2c-1.1-1.1-2.9-1.6-5.2-1.6c-2.8,0-4.9,1.1-6.4,3.4c-0.6,1.1-1.1,2.4-1.2,3.8c-0.2,1.5-0.3,3.4-0.3,5.6
		v22.5h-12.6V8.5h12.6v16.7c1-0.8,2.2-1.5,3.5-2c4.6-1.8,9.6-1.7,14.4,0.4c2.5,1.1,4.6,2.7,6.2,4.6c1.3,1.5,2.3,3.2,3,5
		c0.7,1.7,1.1,3.5,1.2,5.2c0.2,1.6,0.2,3.8,0.2,6.4V69.6z M217.4,67.6h8.6v-23c0-2.5-0.1-4.6-0.2-6.2c-0.1-1.5-0.5-3.1-1.1-4.7
		c-0.6-1.5-1.5-3-2.6-4.3c-1.5-1.7-3.3-3-5.6-4c-4.3-1.9-8.7-1.9-12.9-0.4c-1.9,0.7-3.4,1.8-4.4,3.2l-1.8,2.4V10.5h-8.6v57.1h8.6V47
		c0-2.3,0.1-4.2,0.3-5.9c0.2-1.8,0.7-3.3,1.5-4.7c1.9-2.9,4.6-4.3,8.1-4.3c2.8,0,5,0.7,6.6,2.2c1.5,1.4,2.4,3.2,2.9,5.3
		c0.4,2,0.6,4.4,0.6,7.2V67.6z M176.1,69.6h-12.6V34.7h-5.2V23.2h5.2V8.5h12.6v14.8h6.4v11.5h-6.4V69.6z M165.4,67.6h8.6V32.7h6.4
		v-7.5h-6.4V10.5h-8.6v14.8h-5.2v7.5h5.2V67.6z M80.1,69.6H67.5V46.9c0-2.7-0.2-4.9-0.6-6.8c-0.4-1.7-1.1-3.1-2.3-4.2
		c-1.1-1.1-2.9-1.6-5.2-1.6c-2.8,0-4.9,1.1-6.4,3.4c-0.6,1.1-1.1,2.4-1.2,3.8c-0.2,1.5-0.3,3.4-0.3,5.6v22.5H38.9V8.5h12.6v16.7
		c1-0.8,2.2-1.5,3.5-2c4.6-1.8,9.6-1.7,14.4,0.4c2.5,1.1,4.6,2.7,6.2,4.6c1.3,1.5,2.3,3.2,3,5c0.7,1.7,1.1,3.5,1.2,5.2
		c0.2,1.6,0.2,3.8,0.2,6.4V69.6z M69.5,67.6h8.6v-23c0-2.5-0.1-4.6-0.2-6.2c-0.1-1.5-0.5-3.1-1.1-4.7c-0.6-1.5-1.5-3-2.6-4.3
		c-1.5-1.7-3.3-3-5.6-4c-4.3-1.9-8.7-1.9-12.9-0.4c-1.9,0.7-3.4,1.8-4.4,3.2l-1.8,2.4V10.5h-8.6v57.1h8.6V47c0-2.3,0.1-4.2,0.3-5.9
		c0.2-1.8,0.7-3.3,1.5-4.7c1.9-2.9,4.6-4.3,8.1-4.3c2.8,0,5,0.7,6.6,2.2c1.5,1.4,2.4,3.2,2.9,5.3c0.4,2,0.6,4.4,0.6,7.2V67.6z
		 M24.4,69.6H11.4V21.1H0.5V8.5h34.9v12.6H24.4V69.6z M13.4,67.6h8.9V19.1h11.1v-8.6H2.5v8.6h10.9V67.6z M258.6,60.6
		c-3.8,0-7.2-1.3-10-4c-2.8-2.7-4.2-6-4.2-9.8c0-4.2,1.3-7.7,4-10.4c2.7-2.8,6.1-4.2,10.3-4.2c2,0,3.8,0.4,5.5,1.1
		c1.7,0.7,3.2,1.7,4.4,3c1.2,1.3,2.2,2.8,2.8,4.5c0.7,1.7,1,3.6,1,5.6c0,2.7-0.6,5.1-1.8,7.3c-1.1,2.2-2.8,3.9-4.9,5.2
		C263.7,60,261.3,60.6,258.6,60.6z M258.8,34.2c-3.6,0-6.5,1.2-8.9,3.6c-2.3,2.4-3.4,5.3-3.4,9c0,3.3,1.2,6.1,3.6,8.4
		c2.4,2.3,5.2,3.4,8.6,3.4c2.3,0,4.4-0.5,6.2-1.6c1.8-1.1,3.2-2.5,4.2-4.4c1-1.9,1.5-4,1.5-6.3c0-1.7-0.3-3.4-0.9-4.8
		c-0.6-1.5-1.4-2.8-2.4-3.9c-1-1.1-2.3-1.9-3.7-2.5C262.1,34.5,260.5,34.2,258.8,34.2z M112.7,19.9H105v-1.5c0-1.5,0.5-2.9,1.4-4.2
		c0.9-1.2,2-2.2,3.3-3c0.6-0.5,0.9-0.7,1-0.7c0,0,0-0.1,0-0.1c0-0.7-0.2-1.1-1.1-1.1c-0.7,0-1,0.2-1,1.1v1.4l-8.1-2.5l0.1-0.8
		c0.3-2.5,1.3-4.4,3-5.7c1.7-1.3,3.9-2,6.5-2c1.9,0,3.5,0.4,5,1.2c1.5,0.8,2.6,1.9,3.4,3.3c0.8,1.3,1.2,2.9,1.2,4.6
		c0,1.5-0.4,2.8-1.3,3.8c-0.8,0.9-2,1.9-3.7,3.2c-0.8,0.5-1.3,0.8-1.6,1.2c-0.1,0.1-0.3,0.3-0.3,0.9V19.9z M107,17.9h3.8
		c0.1-0.5,0.4-0.9,0.8-1.3c0.5-0.5,1.1-1,2-1.4c1.5-1.1,2.6-2,3.2-2.8c0.6-0.7,0.8-1.5,0.8-2.5c0-1.3-0.3-2.5-0.9-3.6
		c-0.6-1.1-1.5-1.9-2.6-2.6c-1.1-0.6-2.5-1-4-1c-2.2,0-4,0.5-5.3,1.5c-1.1,0.8-1.8,2-2.1,3.5l4.1,1.2c0.4-1.2,1.4-1.9,2.8-1.9
		c2,0,3.1,1.1,3.1,3.1c0,0.7-0.2,1.2-0.6,1.5c-0.1,0.1-0.3,0.3-1.3,1l-0.1,0.1c-1.1,0.6-2,1.4-2.7,2.4C107.4,16.1,107.1,17,107,17.9
		z M110.7,10.4C110.7,10.4,110.7,10.4,110.7,10.4C110.7,10.4,110.7,10.4,110.7,10.4z M257.9,19.3l-3.8-7.3l15.2-8.9l4,8L257.9,19.3z
		 M256.8,12.8l2,3.8l11.9-6.3l-2.2-4.4L256.8,12.8z"/>
</g>
</svg>
