<?xml version="1.0" encoding="utf-8"?>
<!-- Generator: Adobe Illustrator 22.0.1, SVG Export Plug-In . SVG Version: 6.00 Build 0)  -->
<svg version="1.1" id="Layer_1" xmlns="http://www.w3.org/2000/svg" xmlns:xlink="http://www.w3.org/1999/xlink" x="0px" y="0px"
	 viewBox="0 0 225 63" style="enable-background:new 0 0 225 63;" xml:space="preserve">
<style type="text/css">
	.st0{fill:#FFFFFF;filter:url(#Adobe_OpacityMaskFilter);}
	.st1{mask:url(#path-1-outside-1_2_);}
	.st2{fill:url(#SVGID_1_);}
</style>
<defs>
	<filter id="Adobe_OpacityMaskFilter" filterUnits="userSpaceOnUse" x="0.6" y="0" width="223.9" height="62.5">
		<feColorMatrix  type="matrix" values="1 0 0 0 0  0 1 0 0 0  0 0 1 0 0  0 0 0 1 0"/>
	</filter>
</defs>
<mask maskUnits="userSpaceOnUse" x="0.6" y="0" width="223.9" height="62.5" id="path-1-outside-1_2_">
	<rect x="0.1" y="0" class="st0" width="225" height="63"/>
	<path d="M20,60.1L2.1,15.8h11.8l10.3,29.1l10.2-29.1h11.9L28.4,60.1H20z M52.2,60.1V15.8h10.6v44.3H52.2z M53.3,10.7V3h8.5v7.7
		H53.3z M117,1v59.1h-9.7v-6h-0.2c-1,1.6-2.3,2.9-3.8,4.1c-1.5,1.1-3.2,2-5.1,2.5c-1.8,0.6-3.8,0.9-5.7,0.9c-3.1,0-6.1-0.7-8.8-2
		c-2.8-1.3-5.2-3.2-7.2-5.5c-1.8-2.1-3.3-4.6-4.4-7.4c-1.1-2.8-1.6-5.7-1.6-8.6c0-6.3,2-11.7,6-16.3c1.3-1.5,2.9-2.8,4.6-3.9
		c1.8-1.1,3.6-2,5.6-2.6c2-0.6,4-0.9,6.1-0.9c1.7,0,3.3,0.2,5,0.7c1.7,0.4,3.3,1.1,4.7,2c1.5,0.9,2.8,2,3.9,3.3V1H117z M107.1,37.9
		c0-1.8-0.4-3.6-1.1-5.2c-0.7-1.6-1.6-3-2.8-4.1c-1.2-1.2-2.6-2.1-4.2-2.8c-1.6-0.7-3.4-1.1-5.2-1.1c-1.6,0-3.2,0.3-4.8,1
		c-1.5,0.7-2.9,1.6-4.1,2.8c-1.2,1.2-2.2,2.6-2.9,4.2c-0.7,1.6-1,3.2-1,4.9c0,2.4,0.6,4.6,1.7,6.7c1.1,2.1,2.7,3.7,4.6,5
		c2,1.2,4.2,1.8,6.6,1.8c2.4,0,4.6-0.6,6.6-1.8c2-1.2,3.6-2.8,4.8-4.8C106.5,42.5,107.1,40.3,107.1,37.9z M169.9,42.7h-34.4
		c0.8,2.6,2.3,4.6,4.5,6.2c2.2,1.5,4.6,2.3,7.2,2.3c2,0,3.9-0.3,5.7-1c1.8-0.7,3.2-1.7,4.3-2.9h11.8c-0.9,2.6-2.4,5-4.6,7.2
		c-2.2,2.2-4.7,3.9-7.7,5.2c-2.9,1.3-5.9,1.9-9,1.9c-4.2,0-8.2-1-11.7-3.1c-3.6-2.1-6.4-4.9-8.5-8.5c-2.1-3.6-3.1-7.5-3.1-11.6
		c0-4.3,1-8.3,3.1-12c2.1-3.7,4.9-6.6,8.5-8.7c3.6-2.2,7.6-3.2,12-3.2c3.1,0,6.1,0.6,8.8,1.9c2.8,1.2,5.2,2.9,7.2,5.1
		c2.1,2.1,3.7,4.6,4.9,7.5c1.2,2.8,1.8,5.8,1.8,8.9C170.4,38.4,170.2,40.1,169.9,42.7z M135.3,33.2h24.4c-0.6-1.7-1.5-3.2-2.7-4.5
		c-1.2-1.3-2.6-2.3-4.3-3c-1.6-0.7-3.3-1-5.1-1c-2.7,0-5.3,0.8-7.6,2.4C137.7,28.7,136.1,30.7,135.3,33.2z M200.3,14.4
		c3.2,0,6.3,0.6,9.1,1.9c2.8,1.2,5.3,2.9,7.5,5.1c2.1,2.2,3.8,4.7,4.9,7.6c1.2,2.8,1.8,5.9,1.8,9.1c0,3.2-0.6,6.2-1.8,9.1
		c-1.2,2.8-2.9,5.4-5.2,7.6c-2.2,2.2-4.8,3.9-7.7,5.1c-2.9,1.2-5.9,1.8-9.1,1.8c-4.2,0-8.1-1.1-11.7-3.2c-3.6-2.1-6.5-5-8.6-8.6
		c-2.1-3.6-3.2-7.5-3.2-11.7c0-3.3,0.6-6.4,1.8-9.3c1.3-2.9,3-5.4,5.2-7.5c2.2-2.2,4.7-3.8,7.6-5C193.9,15,197,14.4,200.3,14.4z
		 M199.8,24.8c-1.6,0-3.2,0.4-4.9,1.1c-1.7,0.7-3.1,1.7-4.2,3c-2.4,2.5-3.7,5.5-3.7,9.2c0,2.3,0.6,4.5,1.7,6.6
		c1.1,2,2.7,3.6,4.6,4.8c2,1.2,4.1,1.8,6.5,1.8c2.5,0,4.7-0.6,6.7-1.7c2-1.2,3.5-2.8,4.6-4.8c1.1-2,1.7-4.2,1.7-6.6
		s-0.6-4.6-1.7-6.6c-1.1-2.1-2.7-3.7-4.7-4.8C204.4,25.4,202.2,24.8,199.8,24.8z"/>
</mask>
<g class="st1">
	
		<linearGradient id="SVGID_1_" gradientUnits="userSpaceOnUse" x1="81.1715" y1="116.2142" x2="187.4092" y2="-142.4964" gradientTransform="matrix(1 0 0 -1 0 64)">
		<stop  offset="0" style="stop-color:#613B02;stop-opacity:0"/>
		<stop  offset="1" style="stop-color:#EFD16E"/>
	</linearGradient>
	<path class="st2" d="M199.8,62.6c-4.4,0-8.5-1.1-12.2-3.3c-3.7-2.2-6.7-5.2-9-9c-2.2-3.8-3.3-7.9-3.3-12.2c0-3.4,0.6-6.7,1.9-9.7
		c1.3-3,3.1-5.6,5.4-7.9c2.3-2.2,4.9-4,7.9-5.2c3-1.3,6.3-1.9,9.7-1.9c3.4,0,6.5,0.7,9.5,2c2.9,1.3,5.6,3.1,7.8,5.3
		c2.2,2.3,3.9,4.9,5.1,7.9c1.2,2.9,1.8,6.1,1.8,9.5c0,3.3-0.6,6.5-1.9,9.5c-1.2,2.9-3,5.6-5.4,7.9c-2.3,2.3-5,4.1-8,5.3
		C206.3,61.9,203.1,62.6,199.8,62.6z M200.3,15.4c-3.2,0-6.2,0.6-8.9,1.8c-2.8,1.1-5.2,2.8-7.3,4.8c-2.1,2-3.7,4.5-4.9,7.2
		c-1.2,2.7-1.8,5.7-1.8,8.9c0,4,1,7.8,3,11.2c2,3.5,4.8,6.2,8.2,8.3c3.4,2,7.2,3,11.2,3c3,0,6-0.6,8.7-1.7c2.8-1.1,5.2-2.8,7.3-4.9
		c2.1-2.1,3.8-4.6,4.9-7.3c1.1-2.7,1.7-5.6,1.7-8.7c0-3.1-0.6-6-1.7-8.7c-1.1-2.7-2.7-5.2-4.7-7.3c-2-2.1-4.4-3.7-7.1-4.9
		C206.3,16,203.4,15.4,200.3,15.4z M147.5,62.6c-4.4,0-8.5-1.1-12.2-3.3c-3.7-2.2-6.7-5.1-8.9-8.9c-2.2-3.7-3.3-7.8-3.3-12.1
		c0-4.5,1.1-8.7,3.2-12.4c2.2-3.8,5.1-6.9,8.9-9.1c3.8-2.2,8-3.4,12.5-3.4c3.3,0,6.4,0.7,9.2,2c2.9,1.3,5.4,3.1,7.5,5.3
		c2.2,2.2,3.9,4.8,5.1,7.8c1.2,2.9,1.8,6.1,1.8,9.2c0,0.8-0.2,2.5-0.6,5.2l-0.1,0.9h-33.8c0.8,1.8,2,3.2,3.6,4.4
		c2,1.4,4.2,2.1,6.6,2.1c1.8,0,3.6-0.3,5.3-1c1.6-0.6,2.9-1.5,3.8-2.6l0.3-0.4h13.6l-0.5,1.3c-0.9,2.7-2.6,5.3-4.8,7.6
		c-2.2,2.3-4.9,4.1-8,5.4C153.8,61.9,150.7,62.6,147.5,62.6z M147.7,15.4c-4.1,0-8,1-11.4,3.1c-3.4,2-6.2,4.8-8.2,8.3
		c-2,3.5-3,7.3-3,11.5c0,4,1,7.7,3,11.1c2,3.4,4.8,6.2,8.2,8.2c3.4,2,7.2,3,11.2,3c2.9,0,5.8-0.6,8.6-1.8c2.8-1.2,5.3-2.9,7.4-5
		c1.7-1.7,3-3.5,3.9-5.5h-9.8c-1.1,1.2-2.6,2.1-4.3,2.8c-1.9,0.7-3.9,1.1-6,1.1c-2.9,0-5.5-0.8-7.8-2.5c-2.3-1.7-3.9-3.9-4.8-6.7
		l-0.4-1.3H169c0.3-2.5,0.4-3.6,0.4-4c0-2.9-0.6-5.8-1.7-8.5c-1.1-2.7-2.7-5.1-4.7-7.1c-2-2.1-4.3-3.7-6.9-4.9
		C153.5,16,150.7,15.4,147.7,15.4z M92.4,62.6c-3.3,0-6.4-0.7-9.3-2.1c-2.9-1.4-5.4-3.3-7.5-5.7c-1.9-2.2-3.5-4.8-4.6-7.7
		c-1.1-2.9-1.7-5.9-1.7-8.9c0-6.5,2.1-12.2,6.3-16.9c1.4-1.5,3-2.9,4.9-4.1c1.8-1.2,3.8-2.1,5.9-2.7c3.7-1.2,7.7-1.3,11.6-0.3
		c1.8,0.5,3.5,1.2,5,2.1c0.9,0.5,1.7,1.1,2.4,1.7V0H118v61.1h-11.7v-4.3c-0.7,0.8-1.5,1.5-2.4,2.2c-1.6,1.2-3.4,2.1-5.4,2.7
		C96.5,62.2,94.5,62.6,92.4,62.6z M92.7,15.4c-1.9,0-3.9,0.3-5.8,0.9c-1.9,0.6-3.7,1.4-5.4,2.5c-1.7,1.1-3.2,2.4-4.4,3.8
		c-3.8,4.3-5.8,9.6-5.8,15.6c0,2.7,0.5,5.5,1.5,8.2c1,2.7,2.5,5.1,4.2,7.1c1.9,2.2,4.2,4,6.9,5.2c2.6,1.3,5.4,1.9,8.4,1.9
		c1.9,0,3.7-0.3,5.4-0.8c1.8-0.5,3.4-1.3,4.8-2.4c1.5-1,2.7-2.3,3.6-3.8l0.3-0.5h1.8v6h7.7V2h-8.6v21l-1.8-2
		c-1.1-1.2-2.3-2.3-3.7-3.1c-1.4-0.9-2.9-1.5-4.5-1.9C95.9,15.6,94.3,15.4,92.7,15.4z M63.8,61.1H51.2V14.8h12.6V61.1z M53.2,59.1
		h8.6V16.8h-8.6V59.1z M29,61.1h-9.7L0.6,14.8h14l9.6,27.1l9.5-27.1h14.1L29,61.1z M20.7,59.1h7l17.1-42.3h-9.7L24.3,47.9l-11-31.2
		H3.6L20.7,59.1z M199.8,52.2c-2.5,0-4.9-0.6-7-1.9c-2.1-1.3-3.8-3-5-5.2c-1.2-2.2-1.8-4.6-1.8-7.1c0-3.9,1.3-7.3,4-9.9
		c1.2-1.3,2.7-2.4,4.5-3.2c1.8-0.8,3.6-1.2,5.3-1.2c2.5,0,4.9,0.7,7.1,1.9c2.1,1.3,3.9,3,5.1,5.2c1.2,2.2,1.8,4.6,1.8,7.1
		c0,2.5-0.6,4.9-1.8,7.1c-1.2,2.2-2.9,3.9-5,5.2C204.9,51.5,202.5,52.2,199.8,52.2z M199.8,25.8c-1.4,0-3,0.3-4.5,1
		c-1.5,0.7-2.8,1.6-3.9,2.7c-2.3,2.3-3.4,5.1-3.4,8.5c0,2.1,0.5,4.2,1.6,6.1c1,1.9,2.5,3.3,4.3,4.4c1.8,1.1,3.8,1.6,6,1.6
		c2.3,0,4.4-0.5,6.2-1.6c1.8-1.1,3.2-2.6,4.3-4.4c1-1.9,1.6-3.9,1.6-6.1c0-2.2-0.5-4.3-1.6-6.2c-1.1-1.9-2.5-3.4-4.4-4.5
		C204.1,26.3,202,25.8,199.8,25.8z M94,52.2c-2.6,0-5-0.7-7.2-2c-2.1-1.3-3.8-3.1-5-5.3c-1.2-2.2-1.8-4.6-1.8-7.2
		c0-1.8,0.4-3.6,1.1-5.3c0.8-1.7,1.8-3.2,3.1-4.5c1.3-1.3,2.8-2.3,4.5-3c3.4-1.5,7.3-1.4,10.7,0c1.7,0.7,3.3,1.7,4.5,3
		c1.3,1.3,2.3,2.8,3,4.5c0.8,1.7,1.1,3.6,1.1,5.5c0,2.6-0.6,5-1.9,7.1c-1.2,2.2-2.9,3.9-5.1,5.2C98.9,51.5,96.6,52.2,94,52.2z
		 M93.9,25.8c-1.5,0-3,0.3-4.4,0.9c-1.4,0.6-2.7,1.5-3.8,2.6c-1.1,1.1-2,2.4-2.7,3.9c-0.6,1.4-0.9,3-0.9,4.5c0,2.2,0.5,4.3,1.6,6.2
		c1,1.9,2.5,3.5,4.3,4.6c1.8,1.1,3.9,1.7,6.1,1.7c2.2,0,4.2-0.6,6-1.7c1.9-1.1,3.4-2.6,4.4-4.5c1.1-1.9,1.6-3.9,1.6-6.1
		c0-1.7-0.3-3.3-1-4.8c-0.6-1.5-1.5-2.8-2.6-3.8c-1.1-1.1-2.4-1.9-3.9-2.6C97.1,26.1,95.5,25.8,93.9,25.8z M161.1,34.2h-27.2
		l0.4-1.3c0.9-2.7,2.6-4.9,5.1-6.6c2.5-1.7,5.2-2.6,8.2-2.6c1.9,0,3.8,0.4,5.5,1.1c1.7,0.7,3.3,1.8,4.6,3.2c1.3,1.4,2.3,3,2.9,4.9
		L161.1,34.2z M136.8,32.2h21.5c-0.5-1-1.1-2-1.9-2.8c-1.1-1.2-2.4-2.1-3.9-2.7c-1.5-0.6-3.1-0.9-4.7-0.9c-2.5,0-4.9,0.7-7.1,2.2
		C138.8,29.1,137.6,30.5,136.8,32.2z M62.7,11.7H52.3V2h10.5V11.7z M54.3,9.7h6.5V4h-6.5V9.7z"/>
</g>
</svg>
