<?xml version="1.0" encoding="utf-8"?>
<!-- Generator: Adobe Illustrator 22.0.1, SVG Export Plug-In . SVG Version: 6.00 Build 0)  -->
<svg version="1.1" id="Layer_1" xmlns="http://www.w3.org/2000/svg" xmlns:xlink="http://www.w3.org/1999/xlink" x="0px" y="0px"
	 viewBox="0 0 406 80" style="enable-background:new 0 0 406 80;" xml:space="preserve">
<style type="text/css">
	.st0{fill:#FFFFFF;filter:url(#Adobe_OpacityMaskFilter);}
	.st1{mask:url(#path-1-outside-1_2_);}
	.st2{fill:url(#SVGID_1_);}
</style>
<defs>
	<filter id="Adobe_OpacityMaskFilter" filterUnits="userSpaceOnUse" x="0.4" y="0.5" width="405.6" height="79.1">
		<feColorMatrix  type="matrix" values="1 0 0 0 0  0 1 0 0 0  0 0 1 0 0  0 0 0 1 0"/>
	</filter>
</defs>
<mask maskUnits="userSpaceOnUse" x="0.4" y="0.5" width="405.6" height="79.1" id="path-1-outside-1_2_">
	<rect x="0.4" y="0.5" class="st0" width="406" height="80"/>
	<path d="M1.4,60.6V1.5h11v23.7h21.1V1.5h10.9v59.1H33.5V35.8H12.4v24.8H1.4z M100.6,16.2v44.3h-9.8v-6h-0.2
		c-1.6,2.3-3.8,4.1-6.6,5.4c-2.8,1.4-5.6,2-8.4,2c-3.3,0-6.4-0.7-9.1-2c-2.8-1.3-5.2-3.1-7.2-5.5c-3.7-4.4-5.5-9.8-5.5-16.1
		c0-2,0.2-3.9,0.5-5.8c0.4-1.9,1-3.7,1.8-5.3c0.8-1.6,2-3.3,3.4-4.9c2.2-2.6,4.7-4.5,7.5-5.8c2.8-1.3,5.8-1.9,9-1.9
		c3,0,5.8,0.7,8.4,2c2.6,1.3,4.7,3.2,6.5,5.7v-6.3H100.6z M90.5,38.3c0-1.9-0.3-3.6-0.9-5.2c-0.6-1.6-1.5-3-2.6-4.2
		c-1.1-1.2-2.5-2.1-4.1-2.7c-1.6-0.7-3.3-1-5.2-1c-3.9,0-7.1,1.3-9.6,3.9c-2.5,2.6-3.7,5.8-3.7,9.7c0,3.6,1.3,6.6,3.9,9.1
		c2.6,2.5,5.7,3.7,9.3,3.7c2.5,0,4.7-0.6,6.7-1.7c2-1.2,3.5-2.8,4.6-4.8C90,43.1,90.5,40.8,90.5,38.3z M72.9,75.3v-7.7h8.5v7.7H72.9
		z M109.5,60.6V16.2h9.8v4.1h0.2c1.3-1.8,3-3.1,5.2-4.1c2.2-1,4.5-1.4,6.9-1.4c2.4,0,4.7,0.5,6.9,1.5c2.2,1,4.1,2.3,5.7,4
		c0.5,0.5,0.9,0.9,1.1,1.3c1.6,2.2,2.5,4.4,2.9,6.8c0.4,2.4,0.6,5.4,0.6,9.2v23h-10.6V39.7c0-2.4-0.1-4.5-0.4-6.3
		c-0.2-1.7-0.7-3.2-1.5-4.5c-0.7-1.1-1.7-2-3-2.7c-1.3-0.7-2.7-1-4.1-1c-1.4,0-2.9,0.4-4.3,1.1c-1.4,0.7-2.4,1.7-3.2,2.9
		c-0.8,1.4-1.3,3-1.5,4.8c-0.2,1.8-0.3,4-0.3,6.5v20.1H109.5z M193.3,16.2h9.8v37.6c0,3.6-0.5,6.8-1.4,9.4c-0.9,2.7-2.5,5.2-4.8,7.7
		c-2.3,2.4-5,4.2-8.1,5.6c-3.1,1.4-6.3,2-9.5,2c-3.1,0-6.2-0.6-9.1-1.8c-3-1.2-5.6-2.9-7.9-5.2c-2.3-2.2-3.9-4.8-5-7.7h12.1
		c1.2,1.3,2.7,2.3,4.5,3c1.9,0.8,3.7,1.2,5.4,1.2c1.8,0,3.6-0.3,5.4-1c1.8-0.6,3.3-1.5,4.6-2.7c1.4-1.3,2.4-2.7,2.9-4.1
		c0.5-1.4,1-3.4,1.4-5.9l-0.2-0.2c-3.9,5.1-8.6,7.6-14.1,7.6c-1.8,0-3.7-0.3-5.7-0.9c-1.9-0.6-3.8-1.4-5.5-2.5
		c-1.8-1.1-3.3-2.3-4.6-3.6c-1.4-1.5-2.6-3.1-3.6-5c-1-1.9-1.8-3.9-2.3-5.9c-0.5-2-0.7-4.1-0.7-6.3c0-2.8,0.5-5.6,1.6-8.2
		c1-2.7,2.5-5.1,4.4-7.2c2.1-2.3,4.6-4.2,7.5-5.5c2.9-1.3,6-2,9.3-2c3,0,5.8,0.6,8.2,1.9c2.5,1.3,4.3,3.1,5.6,5.6h0.2V16.2z
		 M193.1,38.6c0-1.9-0.4-3.7-1.1-5.3c-0.7-1.7-1.6-3.1-2.8-4.3c-1.2-1.2-2.6-2.1-4.2-2.8c-1.6-0.7-3.4-1-5.2-1c-3.5,0-6.5,1.3-9,3.9
		c-1.2,1.3-2.1,2.6-2.7,4.1c-0.6,1.5-0.9,3.2-0.9,4.9c0,2.5,0.6,4.8,1.7,6.9c1.1,2,2.7,3.6,4.8,4.8c2.1,1.2,4.3,1.8,6.9,1.8
		c1.7,0,3.4-0.4,4.9-1.1c1.6-0.7,2.9-1.7,4-2.9c1.1-1.2,2-2.6,2.6-4.2C192.7,41.9,193.1,40.2,193.1,38.6z M235.7,60.6V16.2h9.7v4.1
		h0.2c0.9-1.9,2.4-3.3,4.6-4.1c2.2-0.9,4.5-1.4,6.9-1.4c2.4,0,4.6,0.5,6.7,1.4c2.1,1,3.8,2.3,5.2,4.1c0.3,0.3,0.7,0.8,1,1.4
		c0.3-0.5,0.7-1,1.1-1.4c1.5-1.8,3.4-3.2,5.7-4.1c2.3-0.9,4.7-1.4,7.3-1.4c5.8,0,10.3,1.8,13.5,5.5c1.3,1.3,2.2,2.8,2.9,4.5
		c0.7,1.6,1.1,3.3,1.3,5c0.2,1.7,0.3,3.6,0.3,5.9v24.9h-10.6V37c0-1.9-0.1-3.5-0.3-4.9c-0.2-1.4-0.6-2.6-1.3-3.6
		c-0.5-0.7-1.1-1.3-1.8-1.8c-0.7-0.5-1.4-0.9-2.3-1.1c-0.8-0.3-1.7-0.4-2.6-0.4c-1.6,0-3,0.3-4.3,1c-1.3,0.7-2.3,1.6-3.1,2.9
		c-0.7,1.3-1.2,2.7-1.4,4.4c-0.2,1.7-0.3,3.7-0.3,6v21.1h-10.7V37c0-1.9-0.1-3.5-0.3-4.7c-0.2-1.3-0.6-2.4-1.4-3.4
		c-0.7-1.1-1.7-2-3-2.7c-1.2-0.6-2.6-0.9-4-0.9c-2.6,0-4.6,0.7-5.9,2.1c-1.3,1.4-2,3.1-2.3,5c-0.3,1.9-0.4,4.3-0.4,7.1v21.1H235.7z
		 M340.7,16.2h10.6v44.3h-9.8v-4.7h-0.2c-2.1,4.1-5.9,6.2-11.3,6.2c-2.7,0-5.2-0.5-7.7-1.5c-2.4-1-4.5-2.6-6.4-4.6
		c-1.3-1.3-2.2-2.7-2.8-4.2c-0.6-1.5-1-3-1.2-4.6c-0.2-1.6-0.2-3.5-0.2-5.7v-25h10.6V38c0,4.2,0.5,7.2,1.4,9.1
		c0.7,1.4,1.8,2.6,3.1,3.4c1.4,0.8,2.8,1.2,4.5,1.2c3.6,0,6.1-1.3,7.3-3.8c1.3-2.6,1.9-5.8,1.9-9.8V16.2z M327.3,74.9v-7.7h8.5v7.7
		H327.3z M392.6,46.2h12c-1,3.2-2.6,5.9-4.8,8.3c-2.2,2.4-4.8,4.2-7.8,5.5c-3,1.3-6.1,2-9.4,2c-3,0-6-0.6-8.9-1.8
		c-2.9-1.2-5.5-2.8-7.6-4.8c-2.4-2.3-4.2-5-5.4-7.9c-1.2-3-1.8-6.1-1.8-9.3c0-3.2,0.6-6.2,1.8-9s2.9-5.3,5.1-7.5
		c2.2-2.2,4.7-3.8,7.6-5c2.9-1.2,5.9-1.8,9.1-1.8c3.3,0,6.4,0.7,9.5,2c3,1.4,5.7,3.3,7.9,5.7c2.2,2.4,3.8,5.2,4.7,8.4h-12
		c-2.3-3.8-5.7-5.7-10.2-5.7c-2.5,0-4.7,0.6-6.7,1.7c-1.9,1.1-3.4,2.7-4.5,4.7c-1.1,2-1.6,4.2-1.6,6.6c0,2.5,0.6,4.8,1.7,6.9
		c1.1,2,2.7,3.6,4.8,4.8c2.1,1.1,4.3,1.7,6.9,1.7c1.3,0,2.5-0.2,3.8-0.7s2.3-1.1,3.4-1.9C391.1,48.3,392,47.3,392.6,46.2z"/>
</mask>
<g class="st1">
	
		<linearGradient id="SVGID_1_" gradientUnits="userSpaceOnUse" x1="179.3151" y1="142.176" x2="243.6106" y2="-145.8049" gradientTransform="matrix(1 0 0 -1 0 82)">
		<stop  offset="0" style="stop-color:#613B02;stop-opacity:0"/>
		<stop  offset="1" style="stop-color:#EFD16E"/>
	</linearGradient>
	<path class="st2" d="M179.2,79.6c-3.2,0-6.4-0.6-9.5-1.9c-3.1-1.2-5.8-3-8.2-5.4c-2.4-2.3-4.1-5-5.2-8.1l-0.5-1.3h13.9l0.3,0.3
		c1.1,1.1,2.5,2.1,4.2,2.8c3.6,1.6,6.9,1.4,10,0.2c1.6-0.6,3.1-1.4,4.2-2.5c1.3-1.2,2.2-2.4,2.6-3.7c0.3-0.7,0.5-1.6,0.7-2.6
		c-3.7,3.7-7.9,5.5-12.8,5.5c-1.9,0-3.9-0.3-6-0.9c-2-0.6-3.9-1.5-5.8-2.6c-1.9-1.1-3.5-2.4-4.9-3.8c-1.4-1.5-2.7-3.3-3.8-5.3
		c-1.1-2-1.8-4.1-2.4-6.2c-0.5-2.1-0.8-4.3-0.8-6.6c0-3,0.5-5.8,1.6-8.6c1.1-2.8,2.6-5.3,4.6-7.5c2.2-2.4,4.8-4.4,7.9-5.8
		c3.1-1.4,6.3-2.1,9.7-2.1c3.2,0,6.1,0.7,8.7,2c1.7,0.8,3.1,2,4.3,3.4v-4h11.8v38.6c0,3.7-0.5,7-1.4,9.7c-1,2.8-2.7,5.5-5.1,8.1
		c-2.4,2.5-5.2,4.4-8.4,5.8C186,78.9,182.6,79.6,179.2,79.6z M158.7,64.9c1,2.2,2.4,4.2,4.2,6c2.2,2.1,4.7,3.8,7.5,4.9
		c5.8,2.3,12.1,2.3,17.9-0.2c3-1.3,5.6-3.1,7.8-5.4c2.2-2.3,3.8-4.8,4.6-7.3c0.9-2.5,1.3-5.6,1.3-9.1V17.2h-7.8v6.1h-1.8l-0.3-0.5
		c-1.1-2.3-2.9-4-5.1-5.1c-2.3-1.2-4.9-1.8-7.8-1.8c-3.1,0-6,0.6-8.8,1.9c-2.8,1.3-5.2,3-7.2,5.3c-1.8,2-3.2,4.3-4.2,6.9
		c-1,2.5-1.5,5.2-1.5,7.9c0,2.1,0.2,4.1,0.7,6.1c0.5,1.9,1.2,3.9,2.2,5.7c1,1.8,2.2,3.4,3.5,4.8c1.2,1.2,2.7,2.4,4.4,3.4
		c1.7,1,3.5,1.8,5.3,2.4c1.8,0.6,3.6,0.9,5.4,0.9c5.2,0,9.6-2.4,13.3-7.2L193,53l1.4,1.2l-0.1,0.6c-0.4,2.6-0.9,4.6-1.4,6.1
		c-0.5,1.5-1.6,3-3.1,4.4c-1.4,1.3-3,2.3-4.9,2.9c-3.6,1.3-7.4,1.5-11.5-0.3c-1.8-0.8-3.3-1.8-4.6-3H158.7z M82.4,76.3H71.9v-9.7
		h10.5V76.3z M73.9,74.3h6.5v-5.7h-6.5V74.3z M336.8,75.9h-10.5v-9.7h10.5V75.9z M328.3,73.9h6.5v-5.7h-6.5V73.9z M382.6,63
		c-3.1,0-6.2-0.6-9.3-1.9c-3-1.2-5.7-2.9-7.9-5c-2.5-2.4-4.4-5.2-5.7-8.3c-1.2-3.1-1.9-6.3-1.9-9.7c0-3.3,0.6-6.5,1.9-9.4
		c1.3-2.9,3.1-5.5,5.3-7.8c2.3-2.2,4.9-4,7.9-5.2c3-1.2,6.2-1.9,9.5-1.9c3.4,0,6.7,0.7,9.9,2.1c3.2,1.4,5.9,3.4,8.3,5.9
		c2.3,2.6,4,5.5,4.9,8.8L406,32h-13.9l-0.3-0.5c-2.1-3.5-5.2-5.3-9.4-5.3c-2.3,0-4.4,0.5-6.2,1.6c-1.8,1-3.2,2.5-4.2,4.3
		c-1,1.8-1.5,3.9-1.5,6.2c0,2.3,0.5,4.5,1.6,6.4c1,1.8,2.5,3.3,4.4,4.4c1.9,1.1,4,1.6,6.4,1.6c1.2,0,2.3-0.2,3.4-0.6
		c1.1-0.4,2.2-1,3.1-1.7c0.9-0.8,1.7-1.7,2.3-2.7l0.3-0.5H406l-0.4,1.3c-1,3.3-2.7,6.2-5,8.7c-2.3,2.5-5,4.4-8.1,5.8
		C389.3,62.3,386,63,382.6,63z M382.6,15.8c-3,0-6,0.6-8.7,1.7c-2.7,1.1-5.2,2.7-7.3,4.8c-2.1,2.1-3.7,4.5-4.9,7.1
		c-1.2,2.7-1.8,5.6-1.8,8.6c0,3.1,0.6,6.1,1.7,9c1.2,2.8,2.9,5.4,5.2,7.6c2,1.9,4.4,3.5,7.3,4.6c5.8,2.4,12,2.3,17.5-0.2
		c2.9-1.3,5.4-3.1,7.5-5.3c1.8-1.9,3.2-4.2,4.1-6.6h-10c-0.7,1-1.5,1.9-2.5,2.7c-1.1,0.9-2.3,1.6-3.6,2c-1.3,0.5-2.7,0.7-4.1,0.7
		c-2.7,0-5.2-0.6-7.4-1.8c-2.2-1.2-4-3-5.2-5.1c-1.2-2.2-1.8-4.7-1.8-7.4c0-2.6,0.6-5,1.7-7.1c1.2-2.2,2.8-3.9,4.9-5.1
		c2.1-1.2,4.5-1.9,7.2-1.9c4.7,0,8.3,1.9,10.8,5.7h10.1c-0.9-2.5-2.2-4.7-4.1-6.7c-2.1-2.3-4.7-4.2-7.6-5.5
		C388.7,16.5,385.7,15.8,382.6,15.8z M330.1,63c-2.8,0-5.5-0.5-8-1.6c-2.6-1.1-4.8-2.7-6.7-4.9c-1.3-1.4-2.3-2.9-3-4.5
		c-0.6-1.6-1.1-3.2-1.2-4.9c-0.2-1.7-0.2-3.6-0.2-5.8v-26h12.6V38c0,4,0.4,6.9,1.3,8.6c0.6,1.3,1.5,2.2,2.7,2.9
		c1.2,0.7,2.5,1.1,3.9,1.1c3.3,0,5.4-1.1,6.4-3.2c1.2-2.4,1.8-5.6,1.8-9.4V15.2h12.6v46.3h-11.8v-2.7C338.1,61.6,334.6,63,330.1,63z
		 M312.9,17.2v24c0,2.1,0.1,4,0.2,5.6c0.2,1.5,0.5,3,1.1,4.4c0.6,1.4,1.5,2.7,2.6,3.9c1.7,2,3.8,3.4,6,4.4c2.3,1,4.7,1.4,7.3,1.4
		c5,0,8.4-1.8,10.4-5.6l0.3-0.5h1.8v4.7h7.8V17.2h-8.6V38c0,4.1-0.7,7.6-2,10.3c-1.4,2.9-4.2,4.3-8.2,4.3c-1.8,0-3.5-0.5-5-1.4
		c-1.5-0.9-2.7-2.2-3.5-3.8c-1-2-1.5-5.1-1.5-9.5V17.2H312.9z M75.7,63c-3.4,0-6.7-0.7-9.6-2c-2.9-1.4-5.4-3.3-7.5-5.8
		c-3.8-4.6-5.8-10.2-5.8-16.8c0-2,0.2-4,0.6-6c0.4-2,1-3.8,1.9-5.5c0.9-1.7,2-3.4,3.5-5.1c2.3-2.7,4.9-4.7,7.8-6
		c2.9-1.3,6.1-2,9.4-2c3.2,0,6.2,0.7,8.9,2.1c1.9,0.9,3.6,2.2,5,3.8v-4.4h11.8v46.3H89.9v-4.5c-1.5,1.5-3.3,2.8-5.4,3.8
		C81.6,62.3,78.6,63,75.7,63z M76,15.8c-3.1,0-6,0.6-8.6,1.8c-2.6,1.2-5,3-7.1,5.5c-1.3,1.5-2.4,3.1-3.2,4.7c-0.8,1.5-1.3,3.2-1.7,5
		c-0.3,1.8-0.5,3.7-0.5,5.6c0,6.1,1.8,11.3,5.3,15.5c1.9,2.2,4.2,4,6.8,5.2c2.6,1.2,5.6,1.9,8.7,1.9c2.6,0,5.3-0.6,8-1.9
		c2.6-1.3,4.8-3,6.3-5.1l0.3-0.4h1.7v6h7.8V17.2h-7.8v8.4L90,23.1c-1.6-2.4-3.7-4.2-6.1-5.4C81.5,16.4,78.9,15.8,76,15.8z
		 M303.1,61.6h-12.6V37c0-1.8-0.1-3.5-0.3-4.8c-0.2-1.3-0.5-2.3-1.1-3.1c-0.4-0.6-0.9-1.1-1.5-1.5c-0.6-0.5-1.3-0.8-2-1
		c-0.7-0.2-1.5-0.3-2.3-0.3c-1.4,0-2.7,0.3-3.8,0.9c-1.1,0.6-2,1.4-2.7,2.5c-0.6,1.1-1.1,2.5-1.3,4c-0.2,1.6-0.3,3.6-0.3,5.9v22.1
		h-12.7V37c0-1.8-0.1-3.4-0.3-4.6c-0.2-1.1-0.6-2.1-1.2-3c-0.7-1-1.5-1.8-2.6-2.3c-1.1-0.6-2.3-0.8-3.5-0.8c-2.3,0-4,0.6-5.1,1.8
		c-1.1,1.2-1.8,2.7-2.1,4.5c-0.3,1.8-0.4,4.2-0.4,7v22.1h-12.6V15.2h11.7v2.2c0.9-0.9,2-1.6,3.4-2.2c2.3-1,4.8-1.4,7.3-1.4
		c2.5,0,4.9,0.5,7.1,1.5c2.2,1,4.1,2.5,5.5,4.3c0.1,0.1,0.2,0.2,0.3,0.3c0.1-0.1,0.3-0.3,0.4-0.4c1.6-1.9,3.6-3.3,6-4.3
		c2.4-1,5-1.5,7.6-1.5c6.1,0,10.9,2,14.3,5.9c1.3,1.4,2.4,3,3.1,4.7c0.7,1.7,1.2,3.4,1.4,5.2c0.2,1.7,0.3,3.7,0.3,6.1V61.6z
		 M292.5,59.6h8.6V35.7c0-2.2-0.1-4.2-0.3-5.8c-0.2-1.6-0.6-3.2-1.3-4.7c-0.6-1.5-1.5-2.9-2.7-4.1c-3-3.5-7.3-5.2-12.8-5.2
		c-2.4,0-4.7,0.4-6.9,1.3c-2.1,0.9-3.9,2.2-5.3,3.8l-0.2,0.1c-0.4,0.3-0.6,0.6-0.9,1l-0.8,1.6l-0.9-1.5c-0.3-0.5-0.6-0.9-0.9-1.2
		l-0.1-0.1c-1.2-1.6-2.9-2.9-4.8-3.8c-1.9-0.9-4.1-1.4-6.3-1.4c-2.3,0-4.5,0.4-6.5,1.3c-1.9,0.8-3.3,2-4,3.6l-0.3,0.6h-1.8v-4.1
		h-7.7v42.3h8.6V39.4c0-2.9,0.1-5.4,0.4-7.3c0.3-2.1,1.2-3.9,2.6-5.5c1.5-1.6,3.7-2.4,6.6-2.4c1.6,0,3.1,0.4,4.4,1
		c1.4,0.7,2.5,1.7,3.4,3c0.8,1.1,1.3,2.4,1.5,3.8c0.2,1.3,0.3,2.9,0.3,4.9v22.6h8.7V39.4c0-2.3,0.1-4.4,0.3-6.1
		c0.2-1.8,0.7-3.4,1.5-4.8c0.9-1.4,2.1-2.5,3.5-3.2c1.4-0.7,3-1.1,4.7-1.1c1,0,2,0.1,2.9,0.4c0.9,0.3,1.8,0.7,2.6,1.3
		c0.8,0.5,1.5,1.2,2,2c0.8,1.1,1.2,2.4,1.4,4c0.2,1.4,0.3,3.1,0.3,5.1V59.6z M149.9,61.6h-12.6V39.7c0-2.4-0.1-4.5-0.3-6.2
		c-0.2-1.6-0.6-3-1.3-4.1c-0.6-1-1.5-1.7-2.6-2.3c-2.4-1.2-4.9-1.2-7.4,0c-1.2,0.6-2.1,1.4-2.8,2.5c-0.7,1.3-1.2,2.8-1.3,4.4
		c-0.2,1.8-0.3,3.9-0.3,6.4v21.1h-12.6V15.2h11.8v2.7c1.1-1,2.5-1.9,4-2.6c4.6-2,9.8-2,14.6,0c2.3,1,4.4,2.4,6,4.2
		c0.6,0.5,1,1,1.3,1.5c1.6,2.2,2.6,4.6,3.1,7.1c0.4,2.4,0.6,5.6,0.6,9.3V61.6z M139.2,59.6h8.6v-22c0-3.7-0.2-6.7-0.6-9
		c-0.4-2.2-1.3-4.3-2.8-6.4c-0.2-0.4-0.5-0.7-1-1.1l-0.1-0.1c-1.5-1.6-3.3-2.9-5.4-3.8c-4.2-1.9-8.9-1.8-13,0
		c-2,0.9-3.6,2.1-4.8,3.7l-0.3,0.4h-1.7v-4.1h-7.8v42.3h8.6V40.5c0-2.6,0.1-4.8,0.3-6.6c0.2-2,0.7-3.7,1.6-5.2
		c0.8-1.4,2-2.5,3.6-3.2c3.1-1.5,6.3-1.5,9.2,0c1.4,0.7,2.6,1.7,3.4,3c0.9,1.4,1.4,3,1.6,4.9c0.2,1.8,0.4,3.9,0.4,6.4V59.6z
		 M45.5,61.6H32.5V36.8H13.4v24.8h-13V0.5h13v23.7h19.1V0.5h12.9V61.6z M34.5,59.6h8.9V2.5h-8.9v23.7H11.4V2.5h-9v57.1h9V34.8h23.1
		V59.6z M180.6,52.6c-2.7,0-5.2-0.6-7.4-1.9c-2.2-1.3-3.9-3-5.1-5.2c-1.2-2.2-1.8-4.7-1.8-7.4c0-1.9,0.3-3.7,0.9-5.3
		c0.6-1.6,1.6-3.1,2.9-4.5c2.7-2.8,6-4.2,9.7-4.2c2,0,3.9,0.4,5.6,1.1c1.8,0.7,3.3,1.7,4.5,3c1.3,1.3,2.3,2.8,3,4.6
		c0.7,1.7,1.1,3.7,1.1,5.7c0,1.8-0.3,3.5-1,5.2c-0.6,1.7-1.6,3.2-2.8,4.5c-1.2,1.3-2.7,2.4-4.3,3.2
		C184.3,52.2,182.5,52.6,180.6,52.6z M179.8,26.2c-3.2,0-6,1.2-8.3,3.6c-1.1,1.1-1.9,2.4-2.4,3.8c-0.5,1.4-0.8,2.9-0.8,4.6
		c0,2.3,0.5,4.5,1.6,6.4c1,1.9,2.5,3.3,4.4,4.4c1.9,1.1,4,1.6,6.4,1.6c1.6,0,3.1-0.3,4.5-1c1.4-0.7,2.7-1.6,3.7-2.7
		c1-1.1,1.8-2.4,2.4-3.9c0.6-1.5,0.9-3,0.9-4.5c0-1.8-0.3-3.4-1-4.9c-0.6-1.6-1.5-2.9-2.6-3.9c-1.1-1.1-2.4-1.9-3.9-2.6
		C183.1,26.5,181.5,26.2,179.8,26.2z M77.6,52.6c-3.8,0-7.2-1.3-10-4c-2.8-2.7-4.2-6-4.2-9.8c0-4.2,1.3-7.7,4-10.4
		c2.7-2.8,6.1-4.2,10.3-4.2c2,0,3.8,0.4,5.5,1.1c1.7,0.7,3.2,1.7,4.4,3c1.2,1.3,2.2,2.8,2.8,4.5c0.7,1.7,1,3.6,1,5.6
		c0,2.7-0.6,5.1-1.8,7.3c-1.1,2.2-2.8,3.9-4.9,5.2C82.7,52,80.3,52.6,77.6,52.6z M77.7,26.2c-3.6,0-6.5,1.2-8.9,3.6
		c-2.3,2.4-3.4,5.3-3.4,9c0,3.3,1.2,6.1,3.6,8.4c2.4,2.3,5.2,3.4,8.6,3.4c2.3,0,4.4-0.5,6.2-1.6c1.8-1.1,3.2-2.5,4.2-4.4
		c1-1.9,1.5-4,1.5-6.3c0-1.7-0.3-3.4-0.9-4.8c-0.6-1.5-1.4-2.8-2.4-3.9c-1-1.1-2.3-1.9-3.7-2.5C81,26.5,79.4,26.2,77.7,26.2z"/>
</g>
</svg>
