<?xml version="1.0" encoding="utf-8"?>
<!-- Generator: Adobe Illustrator 22.0.1, SVG Export Plug-In . SVG Version: 6.00 Build 0)  -->
<svg version="1.1" id="Layer_1" xmlns="http://www.w3.org/2000/svg" xmlns:xlink="http://www.w3.org/1999/xlink" x="0px" y="0px"
	 viewBox="0 0 375 81" style="enable-background:new 0 0 375 81;" xml:space="preserve">
<style type="text/css">
	.st0{fill:#FFFFFF;filter:url(#Adobe_OpacityMaskFilter);}
	.st1{mask:url(#path-1-outside-1_2_);}
	.st2{fill:url(#SVGID_1_);}
</style>
<defs>
	<filter id="Adobe_OpacityMaskFilter" filterUnits="userSpaceOnUse" x="0.4" y="1" width="374.6" height="79.4">
		<feColorMatrix  type="matrix" values="1 0 0 0 0  0 1 0 0 0  0 0 1 0 0  0 0 0 1 0"/>
	</filter>
</defs>
<mask maskUnits="userSpaceOnUse" x="0.4" y="1" width="374.6" height="79.4" id="path-1-outside-1_2_">
	<rect x="0.4" y="0.4" class="st0" width="375" height="80"/>
	<path d="M61.5,23.5H48.4c-1.2-1.6-2.6-3-4.3-4.2c-1.6-1.2-3.4-2.1-5.4-2.7c-1.9-0.7-3.9-1-5.9-1c-5.2,0-9.8,1.7-13.7,5.1
		c-1.3,1.2-2.5,2.6-3.6,4.2c-1,1.6-1.8,3.4-2.4,5.2c-0.6,1.8-0.9,3.7-0.9,5.4c0,2.5,0.5,4.9,1.5,7.4c1,2.5,2.4,4.6,4.1,6.3
		c2.1,2.1,4.4,3.8,7,4.9c2.7,1.1,5.4,1.7,8.3,1.7c3.5,0,6.8-1,10-2.9c3.2-2,5.6-4.5,7.2-7.7H25.9V35.1h38.6v1.3
		c0,5.6-1.4,10.8-4.3,15.4c-2.9,4.6-6.7,8.3-11.6,10.9c-4.8,2.7-10,4-15.6,4c-4.2,0-8.2-0.8-12.1-2.3c-3.8-1.6-7.2-3.7-10.1-6.5
		c-2.9-2.8-5.2-6-6.9-9.8c-1.7-3.8-2.5-7.8-2.5-12.1c0-4.3,0.8-8.3,2.5-12.1c1.7-3.8,4-7.1,6.9-9.9C13.6,11.2,17,9,20.8,7.4
		c3.9-1.6,7.9-2.4,12-2.4c4,0,8,0.8,11.8,2.3c3.9,1.5,7.3,3.7,10.2,6.5C57.8,16.6,60,19.8,61.5,23.5z M71.5,65.3V20.9h10.6v44.3
		H71.5z M72.6,15.8V8.2h8.5v7.7H72.6z M113.7,19.5L113.7,19.5c2.3,0,4.5,0.4,6.6,1.1s4,1.6,5.6,2.7c1.6,1.1,3,2.2,4.2,3.4
		c1.2,1.2,2.1,2.4,2.8,3.6c1.1-0.2,1.9-0.6,2.4-1.3c0.5-0.7,0.8-1.7,0.9-3c0.2-1.4,0.3-3.5,0.3-6.4h6.2c0,3-0.4,5.5-1.2,7.7
		c-0.8,2.2-1.8,3.8-3,4.9c-1.2,1.1-2.4,1.6-3.5,1.6c0.6,1,1,2.3,1.4,4.1c0.4,1.7,0.6,3.5,0.6,5.4c0,3.2-0.6,6.2-1.8,9.1
		c-1.2,2.8-2.9,5.4-5.2,7.6c-2.2,2.2-4.8,3.9-7.7,5.1c-2.9,1.2-5.9,1.8-9.1,1.8c-4.2,0-8.1-1.1-11.7-3.2c-3.6-2.1-6.5-5-8.6-8.6
		c-2.1-3.6-3.2-7.5-3.2-11.7c0-3.3,0.6-6.4,1.8-9.3c1.3-2.9,3-5.4,5.2-7.5c2.2-2.2,4.7-3.8,7.6-5C107.2,20.2,110.3,19.5,113.7,19.5z
		 M113.3,29.9c-1.6,0-3.2,0.4-4.9,1.1c-1.7,0.7-3.1,1.7-4.2,3c-2.4,2.5-3.7,5.5-3.7,9.2c0,2.3,0.6,4.5,1.7,6.6
		c1.1,2,2.7,3.6,4.6,4.8c2,1.2,4.1,1.8,6.5,1.8c2.5,0,4.7-0.6,6.7-1.7c2-1.2,3.5-2.8,4.6-4.8c1.1-2,1.7-4.2,1.7-6.6
		c0-2.4-0.6-4.6-1.7-6.6c-1.1-2.1-2.7-3.7-4.7-4.8C117.8,30.5,115.6,29.9,113.3,29.9z M109,15.8l-2.9-5.5l13.4-7.9l3.1,6.3L109,15.8
		z M144.7,65.3V20.9h10.6v44.3H144.7z M145.7,15.8V8.2h8.5v7.7H145.7z M189.8,65.3V30.4h-5.2v-9.5h5.2V6.2h10.6v14.8h6.4v9.5h-6.4
		v34.9H189.8z M213.2,65.3V6.2h10.6v18.1c1.2-1.6,2.8-2.7,4.9-3.6c2.1-0.8,4.3-1.2,6.5-1.2c2.4,0,4.8,0.5,7.1,1.6
		c2.4,1.1,4.3,2.5,5.9,4.3c1.3,1.4,2.2,3,2.8,4.6s1,3.3,1.2,4.9c0.2,1.6,0.2,3.7,0.2,6.3v24h-10.6V43.6c0-2.7-0.2-5.1-0.6-7
		c-0.4-1.9-1.3-3.5-2.6-4.8c-1.3-1.3-3.3-1.9-5.9-1.9c-3.2,0-5.6,1.3-7.3,3.8c-0.7,1.2-1.2,2.6-1.4,4.3c-0.2,1.6-0.3,3.5-0.3,5.7
		v21.5H213.2z M262.2,65.3V20.9h10.6v44.3H262.2z M263.3,15.8V8.2h8.5v7.7H263.3z M326.1,47.9h-34.4c0.8,2.6,2.3,4.6,4.5,6.2
		c2.2,1.5,4.6,2.3,7.2,2.3c2,0,3.9-0.3,5.7-1c1.8-0.7,3.2-1.7,4.3-2.9H325c-0.9,2.6-2.4,5-4.6,7.2c-2.2,2.2-4.7,3.9-7.7,5.2
		c-2.9,1.3-5.9,1.9-9,1.9c-4.2,0-8.2-1-11.7-3.1c-3.6-2.1-6.4-4.9-8.5-8.5c-2.1-3.6-3.1-7.5-3.1-11.6c0-4.3,1-8.3,3.1-12
		c2.1-3.7,4.9-6.6,8.5-8.7c3.6-2.2,7.6-3.2,12-3.2c3.1,0,6.1,0.6,8.8,1.9c2.8,1.2,5.2,2.9,7.2,5.1c2.1,2.1,3.7,4.6,4.9,7.5
		c1.2,2.8,1.8,5.8,1.8,8.9C326.6,43.6,326.5,45.3,326.1,47.9z M291.5,38.4h24.4c-0.6-1.7-1.5-3.2-2.7-4.5c-1.2-1.3-2.6-2.3-4.3-3
		c-1.6-0.7-3.3-1-5.1-1c-2.7,0-5.3,0.8-7.6,2.4C293.9,33.9,292.3,35.9,291.5,38.4z M291.5,15.6l8.8-8.2h6.3l8.7,8.2h-8.6l-3.2-3.8
		l-3.3,3.8H291.5z M297.5,79.3v-7.7h8.5v7.7H297.5z M363.3,20.9H374v44.3h-9.8v-4.7H364c-2.1,4.1-5.9,6.2-11.3,6.2
		c-2.7,0-5.2-0.5-7.7-1.5c-2.4-1-4.5-2.6-6.4-4.6c-1.3-1.3-2.2-2.7-2.8-4.2c-0.6-1.5-1-3-1.2-4.6c-0.2-1.6-0.2-3.5-0.2-5.7v-25h10.6
		v21.8c0,4.2,0.5,7.2,1.4,9.1c0.7,1.4,1.8,2.6,3.1,3.4s2.8,1.2,4.5,1.2c3.6,0,6.1-1.3,7.3-3.8c1.3-2.6,1.9-5.8,1.9-9.8V20.9z"/>
</mask>
<g class="st1">
	
		<linearGradient id="SVGID_1_" gradientUnits="userSpaceOnUse" x1="167.0682" y1="137.2062" x2="236.1971" y2="-148.3752" gradientTransform="matrix(1 0 0 -1 0 82)">
		<stop  offset="0" style="stop-color:#613B02;stop-opacity:0"/>
		<stop  offset="1" style="stop-color:#EFD16E"/>
	</linearGradient>
	<path class="st2" d="M307,80.3h-10.5v-9.7H307V80.3z M298.5,78.3h6.5v-5.7h-6.5V78.3z M352.8,67.7c-2.8,0-5.5-0.5-8-1.6
		c-2.6-1.1-4.8-2.7-6.7-4.9c-1.3-1.4-2.3-2.9-3-4.5c-0.6-1.6-1.1-3.2-1.2-4.9c-0.2-1.7-0.2-3.6-0.2-5.8v-26h12.6v22.8
		c0,4,0.4,6.9,1.3,8.6c0.6,1.3,1.5,2.2,2.7,2.9c1.2,0.7,2.5,1.1,3.9,1.1c3.3,0,5.4-1.1,6.4-3.2c1.2-2.4,1.8-5.6,1.8-9.4V19.9H375
		v46.3h-11.8v-2.7C360.8,66.3,357.3,67.7,352.8,67.7z M335.6,21.9v24c0,2.1,0.1,4,0.2,5.6c0.2,1.5,0.5,3,1.1,4.4
		c0.6,1.4,1.5,2.7,2.6,3.9c1.7,2,3.8,3.4,6,4.4c2.3,1,4.7,1.4,7.3,1.4c5,0,8.4-1.8,10.4-5.6l0.3-0.5h1.8v4.7h7.8V21.9h-8.6v20.8
		c0,4.1-0.7,7.6-2,10.3c-1.4,2.9-4.2,4.3-8.2,4.3c-1.8,0-3.5-0.5-5-1.4c-1.5-0.9-2.7-2.2-3.5-3.8c-1-2-1.5-5.1-1.5-9.5V21.9H335.6z
		 M303.8,67.7c-4.4,0-8.5-1.1-12.2-3.3c-3.7-2.2-6.7-5.1-8.9-8.9c-2.2-3.7-3.3-7.8-3.3-12.1c0-4.5,1.1-8.7,3.2-12.4
		c2.2-3.8,5.1-6.9,8.9-9.1c3.8-2.2,8-3.4,12.5-3.4c3.3,0,6.4,0.7,9.2,2c2.9,1.3,5.4,3.1,7.5,5.3c2.2,2.2,3.9,4.8,5.1,7.8
		c1.2,2.9,1.8,6.1,1.8,9.2c0,0.8-0.2,2.5-0.6,5.2l-0.1,0.9h-33.8c0.8,1.8,2,3.2,3.6,4.4c2,1.4,4.2,2.1,6.6,2.1c1.8,0,3.6-0.3,5.3-1
		c1.6-0.6,2.9-1.5,3.8-2.6l0.3-0.4h13.6l-0.4,1.3c-0.9,2.7-2.6,5.3-4.8,7.6c-2.2,2.3-4.9,4.1-8,5.4
		C310.1,67.1,306.9,67.7,303.8,67.7z M303.9,20.5c-4.1,0-8,1-11.4,3.1c-3.4,2-6.2,4.8-8.2,8.3c-2,3.5-3,7.3-3,11.5c0,4,1,7.7,3,11.1
		c2,3.4,4.8,6.2,8.2,8.2c3.4,2,7.2,3,11.2,3c2.9,0,5.8-0.6,8.6-1.8c2.8-1.2,5.3-2.9,7.4-5c1.7-1.7,3-3.5,3.9-5.5h-9.8
		c-1.1,1.2-2.6,2.1-4.3,2.8c-1.9,0.7-3.9,1.1-6,1.1c-2.9,0-5.5-0.8-7.8-2.5c-2.3-1.7-3.9-3.9-4.8-6.7l-0.4-1.3h34.9
		c0.3-2.5,0.4-3.6,0.4-4c0-2.9-0.6-5.8-1.7-8.5c-1.1-2.7-2.7-5.1-4.7-7.1c-2-2.1-4.3-3.7-6.9-4.9C309.7,21.1,306.9,20.5,303.9,20.5z
		 M113.2,67.7c-4.4,0-8.5-1.1-12.2-3.3c-3.7-2.2-6.7-5.2-9-9c-2.2-3.8-3.3-7.9-3.3-12.2c0-3.4,0.6-6.7,1.9-9.7
		c1.3-3,3.1-5.6,5.4-7.9c2.3-2.2,4.9-4,7.9-5.2c3-1.3,6.3-1.9,9.7-1.9h0.1c2.4,0,4.7,0.4,6.9,1.1c2.2,0.7,4.1,1.7,5.8,2.8
		c1.7,1.1,3.1,2.3,4.3,3.5c1,1,1.9,2.1,2.5,3.1c0.5-0.2,0.9-0.4,1.1-0.7c0.3-0.3,0.6-1.1,0.8-2.6c0.2-1.4,0.3-3.5,0.3-6.3v-1h8.2v1
		c0,3.1-0.4,5.8-1.3,8c-0.9,2.3-2,4.1-3.3,5.3c-0.9,0.8-1.8,1.4-2.7,1.7c0.4,0.9,0.6,1.9,0.9,3.1c0.4,1.8,0.6,3.7,0.6,5.6
		c0,3.3-0.6,6.5-1.9,9.5c-1.2,2.9-3.1,5.6-5.4,7.9c-2.3,2.3-5,4.1-8,5.3C119.7,67.1,116.5,67.7,113.2,67.7z M113.7,20.5
		c-3.2,0-6.2,0.6-8.9,1.8c-2.8,1.1-5.2,2.8-7.3,4.8c-2.1,2-3.7,4.5-4.9,7.2c-1.2,2.7-1.8,5.7-1.8,8.9c0,4,1,7.8,3,11.2
		c2,3.5,4.8,6.2,8.2,8.3c3.4,2,7.2,3,11.2,3c3,0,6-0.6,8.7-1.7c2.8-1.1,5.2-2.8,7.3-4.9c2.1-2.1,3.8-4.6,4.9-7.3
		c1.1-2.7,1.7-5.6,1.7-8.7c0-1.8-0.2-3.5-0.6-5.2c-0.3-1.6-0.8-2.9-1.3-3.8l-0.9-1.5h1.8c0.9,0,1.8-0.5,2.8-1.4c1.1-1,2-2.5,2.7-4.5
		c0.7-1.8,1-3.9,1.1-6.3h-4.2c0,2.4-0.1,4.2-0.3,5.5c-0.2,1.6-0.5,2.7-1.1,3.5c-0.6,0.9-1.6,1.4-3,1.7l-0.7,0.1l-0.3-0.6
		c-0.6-1.1-1.5-2.2-2.6-3.3c-1.1-1.2-2.5-2.2-4-3.3c-1.5-1-3.3-1.9-5.4-2.6C118,20.9,115.9,20.5,113.7,20.5L113.7,20.5z M33,67.7
		c-4.3,0-8.5-0.8-12.4-2.4c-3.9-1.6-7.4-3.9-10.4-6.7c-3-2.9-5.4-6.3-7.1-10.1c-1.7-3.9-2.6-8.1-2.6-12.5c0-4.4,0.9-8.6,2.5-12.5
		C4.6,19.7,7,16.3,10,13.4c3-2.9,6.5-5.2,10.4-6.8C28.3,3.3,37,3.2,45,6.4c4,1.5,7.5,3.8,10.5,6.7c3.1,2.9,5.4,6.3,6.9,10.1l0.5,1.4
		H47.9l-0.3-0.4c-1.1-1.5-2.4-2.9-4-3.9c-1.6-1.1-3.3-2-5.1-2.6c-1.8-0.6-3.7-0.9-5.6-0.9c-4.9,0-9.3,1.6-13,4.9
		c-1.2,1.1-2.4,2.4-3.4,4c-1,1.5-1.7,3.2-2.3,5c-0.5,1.7-0.8,3.5-0.8,5.1c0,2.3,0.5,4.7,1.4,7c1,2.3,2.3,4.4,3.9,6
		c2,2,4.2,3.6,6.7,4.7c2.5,1.1,5.2,1.6,7.9,1.6c3.3,0,6.5-0.9,9.5-2.8c2.5-1.6,4.6-3.5,6-5.8h-24V34.1h40.6v2.3
		c0,5.8-1.5,11.1-4.4,15.9c-2.9,4.8-7,8.6-11.9,11.3C44.1,66.3,38.7,67.7,33,67.7z M32.8,6.1c-4,0-7.9,0.8-11.6,2.3
		c-3.7,1.5-7,3.7-9.8,6.4c-2.8,2.7-5.1,6-6.7,9.6C3.2,28,2.4,31.9,2.4,36.1c0,4.1,0.8,8.1,2.4,11.7c1.6,3.6,3.9,6.8,6.7,9.4
		c2.8,2.7,6.1,4.8,9.8,6.3C25,65,28.9,65.7,33,65.7c5.4,0,10.4-1.3,15.1-3.9c4.7-2.6,8.4-6.1,11.2-10.6c2.8-4.5,4.1-9.5,4.1-14.9
		v-0.3H26.9v8.3h25.4l-0.7,1.5c-1.7,3.3-4.2,6-7.6,8.1c-3.4,2-6.9,3.1-10.6,3.1c-3,0-5.9-0.6-8.7-1.8c-2.7-1.2-5.2-2.9-7.4-5.1
		c-1.8-1.8-3.3-4.1-4.3-6.6c-1.1-2.6-1.6-5.2-1.6-7.8c0-1.9,0.3-3.8,0.9-5.7c0.6-1.9,1.4-3.8,2.5-5.5c1.1-1.7,2.3-3.2,3.7-4.4
		c4.1-3.6,8.9-5.4,14.3-5.4c2.1,0,4.2,0.3,6.2,1c2,0.6,3.9,1.6,5.7,2.8c1.6,1.1,3,2.4,4.2,4h11.1c-1.4-3-3.3-5.7-5.8-8
		c-2.8-2.7-6.2-4.8-9.9-6.3C40.6,6.8,36.7,6.1,32.8,6.1z M273.8,66.3h-12.6V19.9h12.6V66.3z M263.2,64.3h8.6V21.9h-8.6V64.3z
		 M253.4,66.3h-12.6V43.6c0-2.7-0.2-4.9-0.6-6.8c-0.4-1.7-1.1-3.1-2.3-4.2c-1.1-1.1-2.9-1.6-5.2-1.6c-2.8,0-4.9,1.1-6.4,3.4
		c-0.6,1.1-1.1,2.4-1.2,3.8c-0.2,1.5-0.3,3.4-0.3,5.6v22.5h-12.6V5.2h12.6v16.7c1-0.8,2.2-1.5,3.5-2c4.6-1.8,9.6-1.7,14.4,0.4
		c2.5,1.1,4.6,2.7,6.2,4.6c1.3,1.5,2.3,3.2,3,5c0.7,1.7,1.1,3.5,1.2,5.2c0.2,1.6,0.2,3.8,0.2,6.4V66.3z M242.8,64.3h8.6v-23
		c0-2.5-0.1-4.6-0.2-6.2c-0.1-1.5-0.5-3.1-1.1-4.7c-0.6-1.5-1.5-3-2.6-4.3c-1.5-1.7-3.3-3-5.6-4c-4.3-1.9-8.7-1.9-12.9-0.4
		c-1.9,0.7-3.4,1.8-4.4,3.2l-1.8,2.4V7.2h-8.6v57.1h8.6V43.8c0-2.3,0.1-4.2,0.3-5.9c0.2-1.8,0.7-3.3,1.5-4.7
		c1.9-2.9,4.6-4.3,8.1-4.3c2.8,0,5,0.7,6.6,2.2c1.5,1.4,2.4,3.2,2.9,5.3c0.4,2,0.6,4.4,0.6,7.2V64.3z M201.4,66.3h-12.6V31.4h-5.2
		V19.9h5.2V5.2h12.6v14.8h6.4v11.5h-6.4V66.3z M190.8,64.3h8.6V29.4h6.4v-7.5h-6.4V7.2h-8.6v14.8h-5.2v7.5h5.2V64.3z M156.3,66.3
		h-12.6V19.9h12.6V66.3z M145.7,64.3h8.6V21.9h-8.6V64.3z M83.1,66.3H70.5V19.9h12.6V66.3z M72.5,64.3h8.6V21.9h-8.6V64.3z
		 M113.3,57.3c-2.5,0-4.9-0.6-7-1.9c-2.1-1.3-3.8-3-5-5.2c-1.2-2.2-1.8-4.6-1.8-7.1c0-3.9,1.3-7.3,4-9.9c1.2-1.3,2.7-2.4,4.5-3.2
		c1.8-0.8,3.6-1.2,5.3-1.2c2.5,0,4.9,0.7,7.1,1.9c2.1,1.3,3.9,3,5.1,5.2c1.2,2.2,1.8,4.6,1.8,7.1c0,2.5-0.6,4.9-1.8,7.1
		c-1.2,2.2-2.9,3.9-5,5.2C118.3,56.7,115.9,57.3,113.3,57.3z M113.3,30.9c-1.4,0-3,0.3-4.5,1c-1.5,0.7-2.8,1.6-3.9,2.7
		c-2.3,2.3-3.4,5.1-3.4,8.5c0,2.1,0.5,4.2,1.6,6.1c1,1.9,2.5,3.3,4.3,4.4c1.8,1.1,3.8,1.6,6,1.6c2.3,0,4.4-0.5,6.2-1.6
		c1.8-1.1,3.2-2.6,4.3-4.4c1-1.9,1.6-3.9,1.6-6.1c0-2.2-0.5-4.3-1.6-6.2c-1.1-1.9-2.5-3.4-4.4-4.5C117.5,31.5,115.4,30.9,113.3,30.9
		z M317.3,39.4h-27.2l0.4-1.3c0.9-2.7,2.6-4.9,5.1-6.6c2.5-1.7,5.2-2.6,8.2-2.6c2,0,3.8,0.4,5.5,1.1c1.7,0.7,3.3,1.8,4.6,3.2
		c1.3,1.4,2.3,3,2.9,4.9L317.3,39.4z M293,37.4h21.5c-0.5-1-1.1-2-1.9-2.8c-1.1-1.2-2.4-2.1-3.9-2.7c-1.5-0.6-3.1-0.9-4.7-0.9
		c-2.5,0-4.9,0.7-7.1,2.2C295.1,34.3,293.8,35.7,293,37.4z M108.6,17.2l-3.8-7.2L120,1l4,8.1L108.6,17.2z M107.4,10.7l2,3.8
		l11.9-6.3l-2.2-4.4L107.4,10.7z M272.7,16.8h-10.5V7.2h10.5V16.8z M264.3,14.8h6.5V9.2h-6.5V14.8z M155.2,16.8h-10.5V7.2h10.5V16.8
		z M146.7,14.8h6.5V9.2h-6.5V14.8z M82.1,16.8H71.6V7.2h10.5V16.8z M73.6,14.8h6.5V9.2h-6.5V14.8z M317.8,16.6h-11.6l-2.7-3.3
		l-2.8,3.3H289l10.9-10.2h7L317.8,16.6z M307.1,14.6h5.7l-6.6-6.2h-5.5l-6.7,6.2h5.6l3.7-4.4L307.1,14.6z"/>
</g>
</svg>
