<?xml version="1.0" encoding="utf-8"?>
<!-- Generator: Adobe Illustrator 22.0.1, SVG Export Plug-In . SVG Version: 6.00 Build 0)  -->
<svg version="1.1" id="Layer_1" xmlns="http://www.w3.org/2000/svg" xmlns:xlink="http://www.w3.org/1999/xlink" x="0px" y="0px"
	 viewBox="0 0 341 72" style="enable-background:new 0 0 341 72;" xml:space="preserve">
<style type="text/css">
	.st0{fill:#FFFFFF;filter:url(#Adobe_OpacityMaskFilter);}
	.st1{mask:url(#path-1-outside-1_2_);}
	.st2{fill:url(#SVGID_1_);}
</style>
<defs>
	<filter id="Adobe_OpacityMaskFilter" filterUnits="userSpaceOnUse" x="0.4" y="0.3" width="339.9" height="71.3">
		<feColorMatrix  type="matrix" values="1 0 0 0 0  0 1 0 0 0  0 0 1 0 0  0 0 0 1 0"/>
	</filter>
</defs>
<mask maskUnits="userSpaceOnUse" x="0.4" y="0.3" width="339.9" height="71.3" id="path-1-outside-1_2_">
	<rect x="0.4" y="0.3" class="st0" width="340" height="72"/>
	<path d="M1.4,69.1V10h11v23.7h21.1V10h10.9v59.1H33.5V44.3H12.4v24.8H1.4z M55.7,69.1V24.8h10.6v44.3H55.7z M52.7,11.4l3.4-6.1
		l13.3,8l-3.1,5.5L52.7,11.4z M75.9,69.1V24.8h9.8v4.1h0.2c1.3-1.8,3-3.1,5.2-4.1c2.2-1,4.5-1.4,6.9-1.4c2.4,0,4.7,0.5,6.9,1.5
		c2.2,1,4.1,2.3,5.7,4c0.5,0.5,0.9,0.9,1.1,1.3c1.6,2.2,2.5,4.4,2.9,6.8c0.4,2.4,0.6,5.4,0.6,9.2v23h-10.6V48.2
		c0-2.4-0.1-4.5-0.4-6.3c-0.2-1.7-0.7-3.2-1.5-4.5c-0.7-1.1-1.7-2-3-2.7c-1.3-0.7-2.7-1-4.1-1c-1.4,0-2.9,0.4-4.3,1.1
		c-1.4,0.7-2.4,1.7-3.2,2.9c-0.8,1.4-1.3,3-1.5,4.8c-0.2,1.8-0.3,4-0.3,6.5v20.1H75.9z M124.9,69.1V10h10.6v18.1
		c1.2-1.6,2.8-2.7,4.9-3.6c2.1-0.8,4.3-1.2,6.5-1.2c2.4,0,4.8,0.5,7.1,1.6c2.4,1.1,4.3,2.5,5.9,4.3c1.3,1.4,2.2,3,2.8,4.6
		c0.6,1.7,1,3.3,1.2,4.9c0.2,1.6,0.2,3.7,0.2,6.3v24h-10.6V47.5c0-2.7-0.2-5.1-0.6-7c-0.4-1.9-1.3-3.5-2.6-4.8
		c-1.3-1.3-3.3-1.9-5.9-1.9c-3.2,0-5.6,1.3-7.3,3.8c-0.7,1.2-1.2,2.6-1.4,4.3c-0.2,1.6-0.3,3.5-0.3,5.7v21.5H124.9z M242.2,24.8
		v44.3h-9.8v-6h-0.2c-1.6,2.3-3.8,4.1-6.6,5.4c-2.8,1.4-5.6,2-8.4,2c-3.3,0-6.4-0.7-9.1-2c-2.8-1.3-5.2-3.1-7.2-5.5
		c-3.7-4.4-5.5-9.8-5.5-16.1c0-2,0.2-3.9,0.5-5.8c0.4-1.9,1-3.7,1.8-5.3c0.8-1.6,2-3.3,3.4-4.9c2.2-2.6,4.7-4.5,7.5-5.8
		c2.8-1.3,5.8-1.9,9-1.9c3,0,5.8,0.7,8.4,2c2.6,1.3,4.7,3.2,6.5,5.7v-6.3H242.2z M232.1,46.9c0-1.9-0.3-3.6-0.9-5.2
		c-0.6-1.6-1.5-3-2.6-4.2c-1.1-1.2-2.5-2.1-4.1-2.7c-1.6-0.7-3.3-1-5.2-1c-3.9,0-7.1,1.3-9.6,3.9c-2.5,2.6-3.7,5.8-3.7,9.7
		c0,3.6,1.3,6.6,3.9,9.1c2.6,2.5,5.7,3.7,9.3,3.7c2.5,0,4.7-0.6,6.7-1.7c2-1.2,3.5-2.8,4.6-4.8C231.5,51.7,232.1,49.4,232.1,46.9z
		 M219.6,9.9l-6-1.8c0.3-2.2,1.1-3.9,2.7-5c1.5-1.2,3.4-1.8,5.8-1.8c1.7,0,3.3,0.4,4.5,1.1c1.3,0.7,2.3,1.7,3,2.9
		c0.7,1.2,1.1,2.6,1.1,4.1c0,1.3-0.4,2.3-1.1,3.2c-0.7,0.8-1.9,1.8-3.5,3c-0.8,0.5-1.4,0.9-1.8,1.3c-0.4,0.4-0.5,0.9-0.5,1.6h-5.7
		v-0.6c0-1.3,0.4-2.6,1.2-3.7c0.8-1.1,1.8-2,3-2.7c0.3-0.2,0.6-0.4,0.8-0.6c0.2-0.2,0.4-0.3,0.5-0.5c0.1-0.2,0.2-0.4,0.2-0.6
		c0-1.4-0.7-2.1-2.1-2.1C220.3,7.8,219.6,8.5,219.6,9.9z M251.1,69.1V24.8h9.8v4.1h0.2c1.3-1.8,3-3.1,5.2-4.1c2.2-1,4.5-1.4,6.9-1.4
		c2.4,0,4.7,0.5,6.9,1.5c2.2,1,4.1,2.3,5.7,4c0.5,0.5,0.9,0.9,1.1,1.3c1.6,2.2,2.5,4.4,2.9,6.8c0.4,2.4,0.6,5.4,0.6,9.2v23h-10.6
		V48.2c0-2.4-0.1-4.5-0.4-6.3c-0.2-1.7-0.7-3.2-1.5-4.5c-0.7-1.1-1.7-2-3-2.7c-1.3-0.7-2.7-1-4.1-1c-1.4,0-2.9,0.4-4.3,1.1
		c-1.4,0.7-2.4,1.7-3.2,2.9c-0.8,1.4-1.3,3-1.5,4.8c-0.2,1.8-0.3,4-0.3,6.5v20.1H251.1z M300.1,69.1V10h10.6v18.1
		c1.2-1.6,2.8-2.7,4.9-3.6c2.1-0.8,4.3-1.2,6.5-1.2c2.4,0,4.8,0.5,7.1,1.6c2.4,1.1,4.3,2.5,5.9,4.3c1.3,1.4,2.2,3,2.8,4.6
		c0.6,1.7,1,3.3,1.2,4.9c0.2,1.6,0.2,3.7,0.2,6.3v24h-10.6V47.5c0-2.7-0.2-5.1-0.6-7c-0.4-1.9-1.3-3.5-2.6-4.8
		c-1.3-1.3-3.3-1.9-5.9-1.9c-3.2,0-5.6,1.3-7.3,3.8c-0.7,1.2-1.2,2.6-1.4,4.3c-0.2,1.6-0.3,3.5-0.3,5.7v21.5H300.1z"/>
</mask>
<g class="st1">
	
		<linearGradient id="SVGID_1_" gradientUnits="userSpaceOnUse" x1="142.921" y1="123.512" x2="217.6164" y2="-159.0807" gradientTransform="matrix(1 0 0 -1 0 74)">
		<stop  offset="0" style="stop-color:#613B02;stop-opacity:0"/>
		<stop  offset="1" style="stop-color:#EFD16E"/>
	</linearGradient>
	<path class="st2" d="M217.2,71.6c-3.4,0-6.7-0.7-9.6-2c-2.9-1.4-5.4-3.3-7.5-5.8c-3.8-4.6-5.8-10.2-5.8-16.8c0-2,0.2-4,0.6-6
		c0.4-2,1-3.8,1.9-5.5c0.9-1.7,2-3.4,3.5-5.1c2.3-2.7,4.9-4.7,7.8-6c2.9-1.3,6.1-2,9.4-2c3.2,0,6.2,0.7,8.9,2.1
		c1.9,0.9,3.6,2.2,5,3.8v-4.4h11.8v46.3h-11.8v-4.5c-1.5,1.5-3.3,2.8-5.4,3.8C223.2,70.9,220.2,71.6,217.2,71.6z M217.6,24.4
		c-3.1,0-6,0.6-8.6,1.8c-2.6,1.2-5,3-7.1,5.5c-1.3,1.5-2.4,3.1-3.2,4.7c-0.8,1.5-1.3,3.2-1.7,5c-0.3,1.8-0.5,3.7-0.5,5.6
		c0,6.1,1.8,11.3,5.3,15.5c1.9,2.2,4.2,4,6.8,5.2c2.6,1.2,5.6,1.9,8.7,1.9c2.6,0,5.3-0.6,8-1.9c2.6-1.3,4.8-3,6.3-5.1l0.3-0.4h1.7v6
		h7.8V25.8h-7.8v8.4l-1.8-2.6c-1.6-2.4-3.7-4.2-6.1-5.4C223.1,25,220.4,24.4,217.6,24.4z M340.4,70.1h-12.6V47.5
		c0-2.6-0.2-4.9-0.6-6.8c-0.4-1.7-1.1-3.1-2.3-4.2c-1.1-1.1-2.9-1.6-5.2-1.6c-2.8,0-4.9,1.1-6.4,3.4c-0.6,1.1-1.1,2.4-1.2,3.8
		c-0.2,1.5-0.3,3.4-0.3,5.6v22.5h-12.6V9h12.6v16.7c1-0.8,2.2-1.5,3.5-2c4.6-1.8,9.6-1.7,14.4,0.4c2.5,1.1,4.6,2.7,6.2,4.6
		c1.3,1.5,2.3,3.2,3,5c0.7,1.7,1.1,3.5,1.2,5.2c0.2,1.6,0.2,3.8,0.2,6.4V70.1z M329.7,68.1h8.6v-23c0-2.5-0.1-4.6-0.2-6.2
		c-0.1-1.5-0.5-3.1-1.1-4.7c-0.6-1.5-1.5-3-2.6-4.3c-1.5-1.7-3.3-3-5.6-4c-4.3-1.9-8.7-1.9-12.9-0.4c-1.9,0.7-3.4,1.8-4.4,3.2
		l-1.8,2.4V11h-8.6v57.1h8.6V47.6c0-2.3,0.1-4.2,0.3-5.9c0.2-1.8,0.7-3.3,1.5-4.7c1.9-2.9,4.6-4.3,8.1-4.3c2.8,0,5,0.7,6.6,2.2
		c1.5,1.4,2.4,3.2,2.9,5.3c0.4,2,0.6,4.4,0.6,7.2V68.1z M291.4,70.1h-12.6V48.2c0-2.4-0.1-4.5-0.3-6.2c-0.2-1.6-0.6-3-1.3-4.1
		c-0.6-1-1.5-1.7-2.6-2.3c-2.4-1.2-4.9-1.2-7.4,0c-1.2,0.6-2.1,1.4-2.8,2.5c-0.7,1.3-1.2,2.7-1.3,4.4c-0.2,1.8-0.3,3.9-0.3,6.4v21.1
		h-12.6V23.8h11.8v2.7c1.1-1,2.5-1.9,4-2.6c4.6-2,9.8-2.1,14.6,0c2.4,1,4.4,2.4,6,4.3c0.5,0.5,1,1,1.3,1.4c1.6,2.2,2.6,4.6,3.1,7.1
		c0.4,2.4,0.6,5.5,0.6,9.3V70.1z M280.8,68.1h8.6v-22c0-3.7-0.2-6.7-0.6-9c-0.4-2.2-1.3-4.3-2.8-6.4c-0.2-0.4-0.5-0.7-1-1.1
		c-1.5-1.7-3.3-2.9-5.4-3.8c-4.2-1.9-8.9-1.8-13,0c-2,0.9-3.6,2.1-4.8,3.7l-0.3,0.4h-1.7v-4.1h-7.8v42.3h8.6V49.1
		c0-2.6,0.1-4.8,0.3-6.6c0.2-2,0.7-3.7,1.6-5.2c0.8-1.4,2-2.5,3.6-3.2c3.1-1.5,6.3-1.5,9.2,0c1.4,0.7,2.6,1.7,3.4,3
		c0.9,1.4,1.4,3,1.6,4.9c0.2,1.8,0.4,3.9,0.4,6.4V68.1z M165.2,70.1h-12.6V47.5c0-2.6-0.2-4.9-0.6-6.8c-0.4-1.7-1.1-3.1-2.3-4.2
		c-1.1-1.1-2.9-1.6-5.2-1.6c-2.8,0-4.9,1.1-6.4,3.4c-0.6,1.1-1.1,2.4-1.2,3.8c-0.2,1.5-0.3,3.4-0.3,5.6v22.5h-12.6V9h12.6v16.7
		c1-0.8,2.2-1.5,3.5-2c4.6-1.8,9.6-1.7,14.4,0.4c2.5,1.1,4.6,2.7,6.2,4.6c1.3,1.5,2.3,3.2,3,5c0.7,1.7,1.1,3.5,1.2,5.2
		c0.2,1.6,0.2,3.8,0.2,6.4V70.1z M154.6,68.1h8.6v-23c0-2.5-0.1-4.6-0.2-6.2c-0.1-1.5-0.5-3.1-1.1-4.7c-0.6-1.5-1.5-3-2.6-4.3
		c-1.5-1.7-3.3-3-5.6-4c-4.3-1.9-8.7-1.9-12.9-0.4c-1.9,0.7-3.4,1.8-4.4,3.2l-1.8,2.4V11h-8.6v57.1h8.6V47.6c0-2.3,0.1-4.2,0.3-5.9
		c0.2-1.8,0.7-3.3,1.5-4.7c1.9-2.9,4.6-4.3,8.1-4.3c2.8,0,5,0.7,6.6,2.2c1.5,1.4,2.4,3.2,2.9,5.3c0.4,2,0.6,4.4,0.6,7.2V68.1z
		 M116.3,70.1h-12.6V48.2c0-2.4-0.1-4.5-0.3-6.2c-0.2-1.6-0.6-3-1.3-4.1c-0.6-1-1.5-1.7-2.6-2.3c-2.4-1.2-4.9-1.2-7.4,0
		c-1.2,0.6-2.1,1.4-2.8,2.5c-0.7,1.3-1.2,2.8-1.3,4.4c-0.2,1.8-0.3,3.9-0.3,6.4v21.1H74.9V23.8h11.8v2.7c1.1-1,2.5-1.9,4-2.6
		c4.6-2,9.8-2.1,14.6,0c2.3,1,4.4,2.4,6,4.2c0.6,0.5,1,1,1.3,1.5c1.6,2.2,2.6,4.6,3.1,7.1c0.4,2.4,0.6,5.6,0.6,9.3V70.1z
		 M105.6,68.1h8.6v-22c0-3.7-0.2-6.7-0.6-9c-0.4-2.2-1.3-4.3-2.8-6.4c-0.2-0.3-0.4-0.6-1-1.1l-0.1-0.1c-1.5-1.6-3.3-2.9-5.4-3.8
		c-4.2-1.9-8.9-1.8-13,0c-2,0.9-3.6,2.1-4.8,3.7l-0.3,0.4h-1.7v-4.1h-7.8v42.3h8.6V49.1c0-2.6,0.1-4.8,0.3-6.6
		c0.2-2,0.7-3.7,1.6-5.2c0.8-1.4,2-2.5,3.6-3.2c3.1-1.5,6.3-1.5,9.2,0c1.4,0.7,2.6,1.7,3.4,3c0.9,1.4,1.4,3,1.6,4.9
		c0.2,1.8,0.4,3.9,0.4,6.4V68.1z M67.4,70.1H54.7V23.8h12.6V70.1z M56.7,68.1h8.6V25.8h-8.6V68.1z M45.5,70.1H32.5V45.3H13.4v24.8
		h-13V9h13v23.7h19.1V9h12.9V70.1z M34.5,68.1h8.9V11h-8.9v23.7H11.4V11h-9v57.1h9V43.3h23.1V68.1z M219.2,61.2
		c-3.8,0-7.2-1.3-9.9-4c-2.8-2.7-4.2-6-4.2-9.8c0-4.2,1.3-7.7,4-10.4c2.7-2.8,6.1-4.2,10.3-4.2c2,0,3.8,0.4,5.5,1.1
		c1.7,0.7,3.2,1.7,4.4,3c1.2,1.3,2.2,2.8,2.8,4.5c0.7,1.7,1,3.6,1,5.6c0,2.7-0.6,5.1-1.8,7.3c-1.1,2.2-2.8,3.9-4.9,5.2
		C224.3,60.6,221.8,61.2,219.2,61.2z M219.3,34.8c-3.6,0-6.5,1.2-8.9,3.6c-2.3,2.4-3.4,5.3-3.4,9c0,3.3,1.2,6.1,3.6,8.4
		c2.4,2.3,5.2,3.4,8.6,3.4c2.3,0,4.4-0.5,6.2-1.6c1.8-1.1,3.2-2.5,4.2-4.4c1-1.9,1.5-4,1.5-6.3c0-1.7-0.3-3.4-0.9-4.8
		c-0.6-1.5-1.4-2.8-2.4-3.9c-1-1.1-2.3-1.9-3.7-2.5C222.6,35.1,221,34.8,219.3,34.8z M66.6,20.2l-15.3-8.4l4.3-7.9l15,9.1L66.6,20.2
		z M54.1,11l11.8,6.5l2.2-3.8l-11.6-7L54.1,11z M224.8,19.4h-7.7v-1.6c0-1.5,0.5-3,1.4-4.3c0.9-1.2,2-2.2,3.3-2.9l0.7-0.5
		c0.1-0.1,0.2-0.2,0.2-0.2c0,0,0,0,0-0.1c0-0.7-0.2-1.1-1.1-1.1c-0.7,0-1,0.2-1,1.1v1.4l-8.1-2.5l0.1-0.8c0.3-2.5,1.3-4.4,3-5.7
		c1.7-1.3,3.8-2,6.4-2c1.9,0,3.6,0.4,5,1.2c1.4,0.8,2.6,1.9,3.4,3.3c0.8,1.3,1.2,2.9,1.2,4.6c0,1.5-0.5,2.8-1.3,3.8
		c-0.7,0.9-1.9,1.9-3.6,3.2c-1,0.6-1.4,1-1.7,1.2c-0.2,0.2-0.3,0.5-0.3,0.9V19.4z M219.1,17.4h3.8c0.1-0.5,0.4-0.9,0.7-1.3
		c0.4-0.4,1.1-0.9,2-1.5c1.5-1.1,2.6-2,3.2-2.8c0.6-0.7,0.9-1.5,0.9-2.5c0-1.3-0.3-2.5-0.9-3.6c-0.6-1.1-1.5-1.9-2.6-2.6
		c-1.1-0.6-2.5-1-4-1c-2.1,0-3.9,0.5-5.2,1.5c-1.1,0.8-1.8,2-2.1,3.5l4.1,1.2c0.4-1.2,1.4-1.9,2.8-1.9c2,0,3.1,1.1,3.1,3.1
		c0,0.5-0.1,0.9-0.3,1.2c-0.1,0.2-0.4,0.4-0.7,0.7l-0.9,0.7c-1.1,0.5-2,1.3-2.7,2.4C219.5,15.6,219.2,16.5,219.1,17.4z"/>
</g>
</svg>
