<?xml version="1.0" encoding="utf-8"?>
<!-- Generator: Adobe Illustrator 22.0.1, SVG Export Plug-In . SVG Version: 6.00 Build 0)  -->
<svg version="1.1" id="Layer_1" xmlns="http://www.w3.org/2000/svg" xmlns:xlink="http://www.w3.org/1999/xlink" x="0px" y="0px"
	 viewBox="0 0 508 175" style="enable-background:new 0 0 508 175;" xml:space="preserve">
<style type="text/css">
	.st0{fill:#FFFFFF;filter:url(#Adobe_OpacityMaskFilter);}
	.st1{mask:url(#path-1-outside-1_2_);}
	.st2{fill:url(#SVGID_1_);}
	.st3{fill:#FFFFFF;filter:url(#Adobe_OpacityMaskFilter_1_);}
	.st4{mask:url(#path-2-outside-2_2_);}
	.st5{fill:url(#SVGID_2_);}
</style>
<defs>
	<filter id="Adobe_OpacityMaskFilter" filterUnits="userSpaceOnUse" x="0.4" y="1" width="351.6" height="92">
		<feColorMatrix  type="matrix" values="1 0 0 0 0  0 1 0 0 0  0 0 1 0 0  0 0 0 1 0"/>
	</filter>
</defs>
<mask maskUnits="userSpaceOnUse" x="0.4" y="1" width="351.6" height="92" id="path-1-outside-1_2_">
	<rect x="0.4" y="0.4" class="st0" width="352" height="93"/>
	<path d="M1.4,74V14.9h11v23.7h21.1V14.9h10.9V74H33.5V49.2H12.4V74H1.4z M77.7,28.3c3.2,0,6.3,0.6,9.1,1.9c2.8,1.2,5.3,2.9,7.5,5.1
		s3.8,4.7,4.9,7.6c1.2,2.8,1.8,5.9,1.8,9.1c0,3.2-0.6,6.2-1.8,9.1c-1.2,2.8-2.9,5.4-5.2,7.6c-2.2,2.2-4.8,3.9-7.7,5.1
		c-2.9,1.2-5.9,1.8-9.1,1.8c-4.2,0-8.1-1.1-11.7-3.2c-3.6-2.1-6.5-5-8.6-8.6c-2.1-3.6-3.2-7.5-3.2-11.7c0-3.3,0.6-6.4,1.8-9.3
		c1.3-2.9,3-5.4,5.2-7.5c2.2-2.2,4.7-3.8,7.6-5C71.3,28.9,74.4,28.3,77.7,28.3z M77.3,38.6c-1.6,0-3.2,0.4-4.9,1.1
		c-1.7,0.7-3.1,1.7-4.2,3c-2.4,2.5-3.7,5.5-3.7,9.2c0,2.3,0.6,4.5,1.7,6.6c1.1,2,2.7,3.6,4.6,4.8c2,1.2,4.1,1.8,6.5,1.8
		c2.5,0,4.7-0.6,6.7-1.7c2-1.2,3.5-2.8,4.6-4.8c1.1-2,1.7-4.2,1.7-6.6s-0.6-4.6-1.7-6.6c-1.1-2.1-2.7-3.7-4.7-4.8
		C81.8,39.2,79.6,38.6,77.3,38.6z M65.2,24.2l8.8-8.2h6.2l8.8,8.2h-8.7l-3.2-3.8l-3.3,3.8H65.2z M71.3,88v-7.7h8.5V88H71.3z M108,74
		V29.7h10.6V74H108z M109.1,24.5v-7.7h8.5v7.7H109.1z M196.2,11.5v6.8h3.8v3.8h-3.8v51.9h-9.7v-6h-0.2c-1,1.6-2.3,2.9-3.8,4.1
		c-1.5,1.1-3.2,2-5.1,2.5c-1.8,0.6-3.8,0.9-5.7,0.9c-3.1,0-6.1-0.7-8.8-2c-2.8-1.3-5.2-3.2-7.2-5.5c-1.8-2.1-3.3-4.6-4.4-7.4
		c-1.1-2.8-1.6-5.7-1.6-8.6c0-6.3,2-11.7,6-16.3c1.3-1.5,2.9-2.8,4.6-3.9c1.8-1.1,3.6-2,5.6-2.6c2-0.6,4-0.9,6.1-0.9
		c1.7,0,3.3,0.2,5,0.7c1.7,0.4,3.3,1.1,4.7,2c1.5,0.9,2.8,2,3.9,3.3V22.2h-11.3v-4h11.3v-6.7H196.2z M186,51.8
		c0-1.8-0.4-3.6-1.1-5.2c-0.7-1.6-1.6-3-2.8-4.1c-1.2-1.2-2.6-2.1-4.2-2.8c-1.6-0.7-3.3-1-5.2-1c-2.2,0-4.3,0.6-6.3,1.8
		c-2,1.2-3.6,2.8-4.8,4.8c-1.2,2-1.8,4.1-1.8,6.3c0,2.4,0.6,4.6,1.7,6.7c1.1,2.1,2.7,3.7,4.6,5c2,1.2,4.2,1.8,6.6,1.8
		c2.4,0,4.6-0.6,6.6-1.8c2-1.2,3.6-2.8,4.8-4.8C185.4,56.4,186,54.2,186,51.8z M227.3,28.3c3.2,0,6.3,0.6,9.1,1.9
		c2.8,1.2,5.3,2.9,7.5,5.1c2.1,2.2,3.8,4.7,4.9,7.6c1.2,2.8,1.8,5.9,1.8,9.1c0,3.2-0.6,6.2-1.8,9.1c-1.2,2.8-2.9,5.4-5.2,7.6
		c-2.2,2.2-4.8,3.9-7.7,5.1c-2.9,1.2-5.9,1.8-9.1,1.8c-4.2,0-8.1-1.1-11.7-3.2c-3.6-2.1-6.5-5-8.6-8.6c-2.1-3.6-3.2-7.5-3.2-11.7
		c0-3.3,0.6-6.4,1.8-9.3c1.3-2.9,3-5.4,5.2-7.5c2.2-2.2,4.7-3.8,7.6-5C220.8,28.9,224,28.3,227.3,28.3z M226.8,38.6
		c-1.6,0-3.2,0.4-4.9,1.1c-1.7,0.7-3.1,1.7-4.2,3c-2.4,2.5-3.7,5.5-3.7,9.2c0,2.3,0.6,4.5,1.7,6.6c1.1,2,2.7,3.6,4.6,4.8
		c2,1.2,4.1,1.8,6.5,1.8c2.5,0,4.7-0.6,6.7-1.7c2-1.2,3.5-2.8,4.6-4.8c1.1-2,1.7-4.2,1.7-6.6s-0.6-4.6-1.7-6.6
		c-1.1-2.1-2.7-3.7-4.7-4.8C231.4,39.2,229.2,38.6,226.8,38.6z M214.8,24.2l8.8-8.2h6.2l8.8,8.2h-8.7l-3.2-3.8l-3.3,3.8H214.8z
		 M224.2,8.6l3.4-6.2l13.3,8.1l-3.1,5.5L224.2,8.6z M257.5,74V29.7h9.8v4.1h0.2c1.3-1.8,3-3.1,5.2-4.1c2.2-1,4.5-1.4,6.9-1.4
		c2.4,0,4.7,0.5,6.9,1.5c2.2,1,4.1,2.3,5.7,4c0.5,0.5,0.9,0.9,1.1,1.3c1.6,2.2,2.5,4.4,2.9,6.8c0.4,2.4,0.6,5.4,0.6,9.2v23h-10.6
		V53.1c0-2.4-0.1-4.5-0.4-6.3c-0.2-1.7-0.7-3.2-1.5-4.5c-0.7-1.1-1.7-2-3-2.7c-1.3-0.7-2.7-1-4.1-1c-1.4,0-2.9,0.4-4.3,1.1
		c-1.4,0.7-2.4,1.7-3.2,2.9c-0.8,1.4-1.3,3-1.5,4.8c-0.2,1.8-0.3,4-0.3,6.5V74H257.5z M341.3,29.7h9.8v37.6c0,3.6-0.5,6.8-1.4,9.4
		c-0.9,2.7-2.5,5.2-4.8,7.7c-2.3,2.4-5,4.2-8.1,5.6c-3.1,1.4-6.3,2-9.5,2c-3.1,0-6.2-0.6-9.1-1.8c-3-1.2-5.6-2.9-7.9-5.2
		c-2.3-2.2-3.9-4.8-5-7.7h12.1c1.2,1.3,2.7,2.3,4.5,3c1.9,0.8,3.7,1.2,5.4,1.2c1.8,0,3.6-0.3,5.4-1c1.8-0.6,3.3-1.5,4.6-2.7
		c1.4-1.3,2.4-2.7,2.9-4.1c0.5-1.4,1-3.4,1.4-5.9l-0.2-0.2c-3.9,5.1-8.6,7.6-14.1,7.6c-1.8,0-3.7-0.3-5.7-0.9
		c-1.9-0.6-3.8-1.4-5.5-2.5c-1.8-1.1-3.3-2.3-4.6-3.6c-1.4-1.5-2.6-3.1-3.6-5c-1-1.9-1.8-3.9-2.3-5.9c-0.5-2-0.7-4.1-0.7-6.3
		c0-2.8,0.5-5.6,1.6-8.2c1-2.7,2.5-5.1,4.4-7.2c2.1-2.3,4.6-4.2,7.5-5.5c2.9-1.3,6-2,9.3-2c3,0,5.8,0.6,8.2,1.9
		c2.5,1.3,4.3,3.1,5.6,5.6h0.2V29.7z M341,52c0-1.9-0.4-3.7-1.1-5.3c-0.7-1.7-1.6-3.1-2.8-4.3s-2.6-2.1-4.2-2.8
		c-1.6-0.7-3.4-1-5.2-1c-3.5,0-6.5,1.3-9,3.9c-1.2,1.3-2.1,2.6-2.7,4.1c-0.6,1.5-0.9,3.2-0.9,4.9c0,2.5,0.6,4.8,1.7,6.9
		c1.1,2,2.7,3.6,4.8,4.8c2.1,1.2,4.3,1.8,6.9,1.8c1.7,0,3.4-0.4,4.9-1.1c1.6-0.7,2.9-1.7,4-2.9c1.1-1.2,2-2.6,2.6-4.2
		C340.7,55.3,341,53.7,341,52z"/>
</mask>
<g class="st1">
	
		<linearGradient id="SVGID_1_" gradientUnits="userSpaceOnUse" x1="151.2697" y1="221.6031" x2="223.9617" y2="-62.102" gradientTransform="matrix(1 0 0 -1 0 176)">
		<stop  offset="0" style="stop-color:#613B02;stop-opacity:0"/>
		<stop  offset="1" style="stop-color:#EFD16E"/>
	</linearGradient>
	<path class="st2" d="M327.2,93c-3.2,0-6.4-0.6-9.5-1.9c-3.1-1.2-5.8-3-8.2-5.4c-2.4-2.3-4.1-5-5.2-8.1l-0.5-1.3h13.9l0.3,0.3
		c1.1,1.1,2.5,2.1,4.2,2.8c3.6,1.6,6.9,1.4,10,0.2c1.6-0.6,3.1-1.4,4.2-2.5c1.3-1.2,2.2-2.4,2.6-3.7c0.3-0.7,0.5-1.6,0.7-2.6
		c-3.7,3.7-7.9,5.5-12.8,5.5c-1.9,0-3.9-0.3-6-0.9c-2-0.6-3.9-1.5-5.8-2.6c-1.9-1.1-3.5-2.4-4.9-3.8c-1.4-1.5-2.7-3.3-3.8-5.3
		c-1.1-2-1.8-4.1-2.4-6.2c-0.5-2.1-0.8-4.3-0.8-6.6c0-2.9,0.5-5.8,1.6-8.6c1.1-2.8,2.6-5.3,4.6-7.5c2.2-2.4,4.8-4.4,7.9-5.8
		c3.1-1.4,6.3-2.1,9.7-2.1c3.2,0,6.1,0.7,8.7,2c1.7,0.9,3.1,2,4.3,3.4v-4H352v38.6c0,3.7-0.5,7-1.4,9.7c-1,2.8-2.7,5.5-5.1,8.1
		c-2.4,2.5-5.2,4.4-8.4,5.8C333.9,92.3,330.6,93,327.2,93z M306.7,78.4c1,2.2,2.4,4.2,4.2,6c2.2,2.1,4.7,3.8,7.5,4.9
		c5.8,2.3,12.1,2.3,17.9-0.2c3-1.3,5.6-3.1,7.8-5.4c2.2-2.3,3.8-4.8,4.6-7.3c0.9-2.5,1.3-5.6,1.3-9.1V30.7h-7.8v6.1h-1.8l-0.3-0.5
		c-1.1-2.3-2.9-4-5.1-5.1c-2.3-1.2-4.9-1.8-7.8-1.8c-3.1,0-6,0.6-8.8,1.9c-2.8,1.3-5.2,3-7.2,5.3c-1.8,2-3.2,4.3-4.2,6.9
		c-1,2.5-1.5,5.2-1.5,7.9c0,2.1,0.2,4.1,0.7,6.1c0.5,1.9,1.2,3.9,2.2,5.7c1,1.8,2.2,3.4,3.5,4.8c1.2,1.2,2.7,2.4,4.4,3.4
		c1.7,1,3.5,1.8,5.3,2.4c1.8,0.6,3.6,0.9,5.4,0.9c5.2,0,9.6-2.4,13.3-7.2l0.6-0.8l1.4,1.2l-0.1,0.6c-0.4,2.6-0.9,4.6-1.4,6.1
		c-0.5,1.5-1.6,3-3.1,4.4c-1.4,1.3-3,2.3-4.9,2.9c-3.6,1.3-7.4,1.5-11.5-0.3c-1.8-0.8-3.3-1.8-4.6-3H306.7z M80.7,89H70.3v-9.7h10.5
		V89z M72.3,87h6.5v-5.7h-6.5V87z M171.6,76.5c-3.3,0-6.4-0.7-9.3-2.1c-2.9-1.4-5.4-3.3-7.5-5.7c-1.9-2.2-3.5-4.8-4.6-7.7
		c-1.1-2.9-1.7-5.9-1.7-8.9c0-6.5,2.1-12.2,6.3-16.9c1.4-1.5,3-2.9,4.9-4.1c1.8-1.2,3.8-2.1,5.9-2.7c3.7-1.2,7.7-1.3,11.6-0.3
		c1.8,0.5,3.5,1.2,5,2.1c0.9,0.5,1.7,1.1,2.4,1.7v-8.7h-11.3v-6h11.3v-6.7h12.6v6.8h3.8v5.8h-3.8v51.9h-11.7v-4.3
		c-0.7,0.8-1.5,1.5-2.4,2.2c-1.6,1.2-3.4,2.1-5.4,2.7C175.7,76.2,173.7,76.5,171.6,76.5z M171.9,29.3c-1.9,0-3.9,0.3-5.8,0.9
		c-1.9,0.6-3.7,1.4-5.4,2.5c-1.7,1.1-3.2,2.4-4.4,3.8c-3.8,4.3-5.8,9.6-5.8,15.6c0,2.7,0.5,5.5,1.5,8.2c1,2.7,2.5,5.1,4.2,7.1
		c1.9,2.2,4.2,4,6.9,5.2c2.6,1.3,5.4,1.9,8.4,1.9c1.9,0,3.7-0.3,5.4-0.8c1.8-0.5,3.4-1.3,4.8-2.4c1.5-1,2.7-2.3,3.6-3.8l0.3-0.5h1.8
		v6h7.7V21.2h3.8v-1.8h-3.8v-6.8h-8.6v6.7h-11.3v2h11.3V37l-1.8-2c-1.1-1.2-2.3-2.3-3.7-3.1c-1.4-0.9-2.9-1.5-4.5-1.9
		C175.1,29.5,173.5,29.3,171.9,29.3z M226.8,76.4c-4.4,0-8.5-1.1-12.2-3.3c-3.7-2.2-6.7-5.2-9-9c-2.2-3.8-3.3-7.9-3.3-12.2
		c0-3.4,0.6-6.7,1.9-9.7c1.3-3,3.1-5.6,5.4-7.9c2.3-2.2,4.9-4,7.9-5.2c3-1.3,6.3-1.9,9.7-1.9c3.4,0,6.5,0.7,9.5,2
		c2.9,1.3,5.6,3.1,7.8,5.3c2.2,2.3,3.9,4.9,5.1,7.9c1.2,2.9,1.8,6.1,1.8,9.5c0,3.3-0.6,6.5-1.9,9.5c-1.2,2.9-3.1,5.6-5.4,7.9
		c-2.3,2.3-5,4.1-8,5.3C233.3,75.8,230.1,76.4,226.8,76.4z M227.3,29.3c-3.2,0-6.2,0.6-8.9,1.8c-2.8,1.1-5.2,2.8-7.3,4.8
		c-2.1,2-3.7,4.5-4.9,7.2c-1.2,2.7-1.8,5.7-1.8,8.9c0,4,1,7.8,3,11.2c2,3.5,4.8,6.2,8.2,8.3c3.4,2,7.2,3,11.2,3c3,0,6-0.6,8.7-1.7
		c2.8-1.1,5.2-2.8,7.3-4.9c2.1-2.1,3.8-4.6,4.9-7.3c1.1-2.7,1.7-5.6,1.7-8.7c0-3.1-0.6-6-1.7-8.7c-1.1-2.7-2.7-5.2-4.7-7.3
		c-2-2.1-4.4-3.7-7.1-4.9C233.3,29.9,230.4,29.3,227.3,29.3z M77.3,76.4c-4.4,0-8.5-1.1-12.2-3.3c-3.7-2.2-6.7-5.2-9-9
		c-2.2-3.8-3.3-7.9-3.3-12.2c0-3.4,0.6-6.7,1.9-9.7c1.3-3,3.1-5.6,5.4-7.9c2.3-2.2,4.9-4,7.9-5.2c3-1.3,6.3-1.9,9.7-1.9
		c3.4,0,6.5,0.7,9.5,2c2.9,1.3,5.6,3.1,7.8,5.3c2.2,2.3,3.9,4.9,5.1,7.9c1.2,2.9,1.8,6.1,1.8,9.5c0,3.3-0.6,6.5-1.9,9.5
		c-1.2,2.9-3.1,5.6-5.4,7.9c-2.3,2.3-5,4.1-8,5.3C83.7,75.8,80.6,76.4,77.3,76.4z M77.7,29.3c-3.2,0-6.2,0.6-8.9,1.8
		c-2.8,1.1-5.2,2.8-7.3,4.8c-2.1,2-3.7,4.5-4.9,7.2c-1.2,2.7-1.8,5.7-1.8,8.9c0,4,1,7.8,3,11.2c2,3.5,4.8,6.2,8.2,8.3
		c3.4,2,7.2,3,11.2,3c3,0,6-0.6,8.7-1.7c2.8-1.1,5.2-2.8,7.3-4.9c2.1-2.1,3.8-4.6,4.9-7.3c1.1-2.7,1.7-5.6,1.7-8.7
		c0-3.1-0.6-6-1.7-8.7c-1.1-2.7-2.7-5.2-4.7-7.3c-2-2.1-4.4-3.7-7.1-4.9C83.7,29.9,80.8,29.3,77.7,29.3z M297.8,75h-12.6V53.1
		c0-2.4-0.1-4.5-0.3-6.2c-0.2-1.6-0.6-3-1.3-4.1c-0.6-1-1.5-1.7-2.6-2.3c-2.4-1.2-4.9-1.2-7.4,0c-1.2,0.6-2.1,1.4-2.8,2.5
		c-0.7,1.3-1.2,2.8-1.3,4.4c-0.2,1.8-0.3,3.9-0.3,6.4V75h-12.6V28.7h11.8v2.7c1.1-1,2.5-1.9,4-2.6c4.6-2,9.8-2.1,14.6,0
		c2.4,1,4.4,2.4,6,4.3c0.5,0.5,1,1,1.2,1.4c1.6,2.2,2.6,4.6,3.1,7.2c0.4,2.4,0.6,5.6,0.6,9.3V75z M287.2,73h8.6V51
		c0-3.7-0.2-6.7-0.6-9c-0.4-2.2-1.3-4.3-2.8-6.4c-0.2-0.4-0.5-0.7-1-1.1c-1.5-1.7-3.3-2.9-5.4-3.8c-4.2-1.9-8.9-1.8-13,0
		c-2,0.9-3.6,2.1-4.8,3.7l-0.3,0.4h-1.7v-4.1h-7.8V73h8.6V53.9c0-2.6,0.1-4.8,0.3-6.6c0.2-2,0.7-3.7,1.6-5.2c0.8-1.4,2-2.5,3.6-3.2
		c3.1-1.5,6.3-1.5,9.2,0c1.4,0.7,2.6,1.7,3.4,3c0.9,1.4,1.4,3,1.6,4.9c0.2,1.8,0.4,3.9,0.4,6.4V73z M119.6,75H107V28.7h12.6V75z
		 M109,73h8.6V30.7H109V73z M45.5,75H32.5V50.2H13.4V75h-13V13.9h13v23.7h19.1V13.9h12.9V75z M34.5,73h8.9V15.9h-8.9v23.7H11.4V15.9
		h-9V73h9V48.2h23.1V73z M328.6,66.1c-2.7,0-5.2-0.6-7.4-1.9c-2.2-1.3-3.9-3-5.1-5.2c-1.2-2.2-1.8-4.7-1.8-7.4
		c0-1.9,0.3-3.7,0.9-5.3c0.6-1.6,1.6-3.1,2.9-4.5c2.7-2.8,6-4.2,9.7-4.2c2,0,3.9,0.4,5.6,1.1c1.8,0.7,3.3,1.7,4.5,3
		c1.3,1.3,2.3,2.8,3,4.6c0.7,1.7,1.1,3.7,1.1,5.7c0,1.8-0.3,3.5-1,5.2c-0.6,1.7-1.6,3.2-2.8,4.5c-1.2,1.3-2.7,2.4-4.3,3.2
		C332.3,65.7,330.5,66.1,328.6,66.1z M327.8,39.6c-3.2,0-6,1.2-8.3,3.6c-1.1,1.1-1.9,2.4-2.4,3.8c-0.5,1.4-0.8,2.9-0.8,4.6
		c0,2.3,0.5,4.5,1.6,6.4c1,1.9,2.5,3.4,4.4,4.4c1.9,1.1,4,1.6,6.4,1.6c1.6,0,3.1-0.3,4.5-1c1.4-0.7,2.7-1.6,3.7-2.7
		c1-1.1,1.8-2.4,2.4-3.9c0.6-1.5,0.9-3,0.9-4.5c0-1.8-0.3-3.4-1-4.9c-0.6-1.6-1.5-2.9-2.6-3.9c-1.1-1.1-2.4-1.9-3.9-2.6
		C331.1,40,329.5,39.6,327.8,39.6z M226.8,66.1c-2.5,0-4.9-0.6-7-1.9c-2.1-1.3-3.8-3-5-5.2c-1.2-2.2-1.8-4.6-1.8-7.1
		c0-3.9,1.3-7.3,4-9.9c1.2-1.3,2.7-2.4,4.5-3.2c1.8-0.8,3.6-1.2,5.3-1.2c2.5,0,4.9,0.7,7.1,1.9c2.1,1.3,3.9,3,5.1,5.2
		c1.2,2.2,1.8,4.6,1.8,7.1c0,2.5-0.6,4.9-1.8,7.1c-1.2,2.2-2.9,3.9-5,5.2C231.9,65.4,229.5,66.1,226.8,66.1z M226.8,39.6
		c-1.4,0-3,0.3-4.5,1c-1.5,0.7-2.8,1.6-3.9,2.7c-2.3,2.3-3.4,5.1-3.4,8.5c0,2.1,0.5,4.2,1.6,6.1c1,1.9,2.5,3.3,4.3,4.4
		c1.8,1.1,3.8,1.6,6,1.6c2.3,0,4.4-0.5,6.2-1.6c1.8-1.1,3.2-2.6,4.3-4.4c1-1.9,1.6-3.9,1.6-6.1c0-2.2-0.5-4.3-1.6-6.2
		c-1.1-1.9-2.5-3.4-4.4-4.5C231,40.2,229,39.6,226.8,39.6z M172.8,66.1c-2.6,0-5-0.7-7.2-2c-2.1-1.3-3.8-3.1-5-5.3
		c-1.2-2.2-1.8-4.6-1.8-7.2c0-2.4,0.6-4.7,1.9-6.8c1.3-2.1,3-3.9,5.1-5.1c2.1-1.3,4.4-1.9,6.8-1.9c2,0,3.9,0.4,5.6,1.1
		c1.7,0.7,3.3,1.7,4.5,3c1.3,1.3,2.3,2.8,3,4.5c0.8,1.7,1.1,3.6,1.1,5.5c0,2.6-0.6,5-1.9,7.1c-1.2,2.2-2.9,3.9-5.1,5.2
		C177.8,65.4,175.4,66.1,172.8,66.1z M172.7,39.6c-2,0-3.9,0.6-5.7,1.7c-1.8,1.1-3.3,2.6-4.4,4.4c-1.1,1.8-1.6,3.8-1.6,5.8
		c0,2.2,0.5,4.3,1.6,6.2c1,1.9,2.5,3.5,4.3,4.6c1.8,1.1,3.9,1.7,6.1,1.7c2.2,0,4.2-0.6,6.1-1.7c1.9-1.1,3.4-2.6,4.4-4.5
		c1.1-1.9,1.6-3.9,1.6-6.1c0-1.7-0.3-3.3-1-4.8c-0.6-1.5-1.5-2.8-2.6-3.8c-1.1-1.1-2.4-2-3.9-2.6C176,40,174.4,39.6,172.7,39.6z
		 M77.3,66.1c-2.5,0-4.9-0.6-7-1.9c-2.1-1.3-3.8-3-5-5.2c-1.2-2.2-1.8-4.6-1.8-7.1c0-3.9,1.3-7.3,4-9.9c1.2-1.3,2.7-2.4,4.5-3.2
		c1.8-0.8,3.6-1.2,5.3-1.2c2.5,0,4.9,0.7,7.1,1.9c2.1,1.3,3.9,3,5.1,5.2c1.2,2.2,1.8,4.6,1.8,7.1c0,2.5-0.6,4.9-1.8,7.1
		c-1.2,2.2-2.9,3.9-5,5.2C82.3,65.4,79.9,66.1,77.3,66.1z M77.3,39.6c-1.4,0-3,0.3-4.5,1c-1.5,0.7-2.8,1.6-3.9,2.7
		c-2.3,2.3-3.4,5.1-3.4,8.5c0,2.1,0.5,4.2,1.6,6.1c1,1.9,2.5,3.3,4.3,4.4c1.8,1.1,3.8,1.6,6,1.6c2.3,0,4.4-0.5,6.2-1.6
		c1.8-1.1,3.2-2.6,4.3-4.4c1-1.9,1.6-3.9,1.6-6.1c0-2.2-0.5-4.3-1.6-6.2c-1.1-1.9-2.5-3.4-4.4-4.5C81.5,40.2,79.4,39.6,77.3,39.6z
		 M118.5,25.5h-10.5v-9.7h10.5V25.5z M110.1,23.5h6.5v-5.7h-6.5V23.5z M241.1,25.2h-11.7l-2.7-3.3l-2.8,3.3h-11.6l11-10.2h7
		L241.1,25.2z M230.4,23.2h5.7l-6.6-6.2H224l-6.7,6.2h5.6l3.8-4.4L230.4,23.2z M91.6,25.2H79.9L77.1,22l-2.8,3.3H62.7l11-10.2h7
		L91.6,25.2z M80.8,23.2h5.7L79.9,17h-5.4l-6.7,6.2h5.6l3.8-4.4L80.8,23.2z M238.1,17.3L222.9,9l4.3-8l15,9.1L238.1,17.3z
		 M225.6,8.2l11.8,6.5l2.2-3.8l-11.6-7L225.6,8.2z"/>
</g>
<defs>
	<filter id="Adobe_OpacityMaskFilter_1_" filterUnits="userSpaceOnUse" x="13.7" y="98.9" width="493.9" height="75.9">
		<feColorMatrix  type="matrix" values="1 0 0 0 0  0 1 0 0 0  0 0 1 0 0  0 0 0 1 0"/>
	</filter>
</defs>
<mask maskUnits="userSpaceOnUse" x="13.7" y="98.9" width="493.9" height="75.9" id="path-2-outside-2_2_">
	<rect x="13.7" y="98.9" class="st3" width="494" height="76"/>
	<path d="M48.5,144.6h12c-1,3.2-2.6,5.9-4.8,8.3c-2.2,2.4-4.8,4.2-7.8,5.5c-3,1.3-6.1,2-9.4,2c-3,0-6-0.6-8.9-1.8
		c-2.9-1.2-5.5-2.8-7.6-4.8c-2.4-2.3-4.2-5-5.4-7.9c-1.2-3-1.8-6.1-1.8-9.3c0-3.2,0.6-6.2,1.8-9c1.2-2.8,2.9-5.3,5.1-7.5
		c2.2-2.2,4.7-3.8,7.6-5c2.9-1.2,5.9-1.8,9.1-1.8c3.3,0,6.4,0.7,9.5,2c3,1.4,5.7,3.3,7.9,5.7c2.2,2.4,3.8,5.2,4.7,8.4h-12
		c-2.3-3.8-5.7-5.7-10.2-5.7c-2.5,0-4.7,0.6-6.7,1.7c-1.9,1.1-3.4,2.7-4.5,4.7c-1.1,2-1.6,4.2-1.6,6.6c0,2.5,0.6,4.8,1.7,6.9
		c1.1,2,2.7,3.6,4.8,4.8s4.3,1.7,6.9,1.7c1.3,0,2.5-0.2,3.8-0.7c1.2-0.4,2.3-1.1,3.4-1.9C46.9,146.7,47.8,145.7,48.5,144.6z
		 M68.9,159V99.9h10.6V118c1.2-1.6,2.8-2.7,4.9-3.6c2.1-0.8,4.3-1.2,6.5-1.2c2.4,0,4.8,0.5,7.1,1.6c2.4,1.1,4.3,2.5,5.9,4.3
		c1.3,1.4,2.2,3,2.8,4.6c0.6,1.7,1,3.3,1.2,4.9c0.2,1.6,0.2,3.7,0.2,6.3v24H97.5v-21.7c0-2.7-0.2-5.1-0.6-7
		c-0.4-1.9-1.3-3.5-2.6-4.8c-1.3-1.3-3.3-1.9-5.9-1.9c-3.2,0-5.6,1.3-7.3,3.8c-0.7,1.2-1.2,2.6-1.4,4.3c-0.2,1.6-0.3,3.5-0.3,5.7
		V159H68.9z M146.7,114.7h10.6V159h-9.8v-4.7h-0.2c-2.1,4.1-5.9,6.2-11.3,6.2c-2.7,0-5.2-0.5-7.7-1.5c-2.4-1-4.5-2.6-6.4-4.6
		c-1.3-1.3-2.2-2.7-2.8-4.2c-0.6-1.5-1-3-1.2-4.6c-0.2-1.6-0.2-3.5-0.2-5.7v-25h10.6v21.8c0,4.2,0.5,7.2,1.4,9.1
		c0.7,1.4,1.8,2.6,3.1,3.4c1.4,0.8,2.8,1.2,4.5,1.2c3.6,0,6.1-1.3,7.3-3.8c1.3-2.6,1.9-5.8,1.9-9.8V114.7z M171.1,173.8l8.2-18.9
		l-16.3-40.2h12.1l10.2,28.4l10.6-28.4H208l-25.4,59.1H171.1z M258,141.6h-34.4c0.8,2.6,2.3,4.6,4.5,6.2c2.2,1.5,4.6,2.3,7.2,2.3
		c2,0,3.9-0.3,5.7-1c1.8-0.7,3.2-1.7,4.3-2.9H257c-0.9,2.6-2.4,5-4.6,7.2c-2.2,2.2-4.7,3.9-7.7,5.2c-2.9,1.3-5.9,1.9-9,1.9
		c-4.2,0-8.2-1-11.7-3.1c-3.6-2.1-6.4-4.9-8.5-8.5c-2.1-3.6-3.1-7.5-3.1-11.6c0-4.3,1-8.3,3.1-12c2.1-3.7,4.9-6.6,8.5-8.7
		c3.6-2.2,7.6-3.2,12-3.2c3.1,0,6.1,0.6,8.8,1.9c2.8,1.2,5.2,2.9,7.2,5.1c2.1,2.1,3.7,4.6,4.9,7.5c1.2,2.8,1.8,5.8,1.8,8.9
		C258.6,137.3,258.4,139,258,141.6z M223.5,132.1h24.4c-0.6-1.7-1.5-3.2-2.7-4.5c-1.2-1.3-2.6-2.3-4.3-3c-1.6-0.7-3.3-1-5.1-1
		c-2.7,0-5.3,0.8-7.6,2.4C225.8,127.6,224.3,129.6,223.5,132.1z M223.5,109.3l8.8-8.2h6.3l8.7,8.2h-8.6l-3.2-3.8l-3.3,3.8H223.5z
		 M266.5,159v-44.3h9.8v4.1h0.2c1.3-1.8,3-3.1,5.2-4.1c2.2-1,4.5-1.4,6.9-1.4c2.4,0,4.7,0.5,6.9,1.5c2.2,1,4.1,2.3,5.7,4
		c0.5,0.5,0.9,0.9,1.1,1.3c1.6,2.2,2.5,4.4,2.9,6.8c0.4,2.4,0.6,5.4,0.6,9.2v23h-10.6v-20.9c0-2.4-0.1-4.5-0.4-6.3
		c-0.2-1.7-0.7-3.2-1.5-4.5c-0.7-1.1-1.7-2-3-2.7c-1.3-0.7-2.7-1-4.1-1c-1.4,0-2.9,0.4-4.3,1.1c-1.4,0.7-2.4,1.7-3.2,2.9
		c-0.8,1.4-1.3,3-1.5,4.8c-0.2,1.8-0.3,4-0.3,6.5V159H266.5z M338.9,159v-44.3h9.7v4.1h0.2c0.9-1.9,2.4-3.3,4.6-4.1
		c2.2-0.9,4.5-1.4,6.9-1.4c2.4,0,4.6,0.5,6.7,1.4c2.1,1,3.8,2.3,5.2,4.1c0.3,0.3,0.7,0.8,1,1.4c0.3-0.5,0.7-1,1.1-1.4
		c1.5-1.8,3.4-3.2,5.7-4.1c2.3-0.9,4.7-1.4,7.3-1.4c5.8,0,10.3,1.8,13.5,5.5c1.3,1.3,2.2,2.8,2.9,4.5c0.7,1.6,1.1,3.3,1.3,5
		c0.2,1.7,0.3,3.6,0.3,5.9V159h-10.6v-23.6c0-1.9-0.1-3.5-0.3-4.9c-0.2-1.4-0.6-2.6-1.3-3.6c-0.5-0.7-1.1-1.3-1.8-1.8
		c-0.7-0.5-1.4-0.9-2.3-1.1c-0.8-0.3-1.7-0.4-2.6-0.4c-1.6,0-3,0.3-4.3,1s-2.3,1.6-3.1,2.9c-0.7,1.3-1.2,2.7-1.4,4.4
		c-0.2,1.7-0.3,3.7-0.3,6V159h-10.7v-23.6c0-1.9-0.1-3.5-0.3-4.7c-0.2-1.3-0.6-2.4-1.4-3.4c-0.7-1.1-1.7-2-3-2.7
		c-1.2-0.6-2.6-0.9-4-0.9c-2.6,0-4.6,0.7-5.9,2.1c-1.3,1.4-2,3.1-2.3,5c-0.3,1.9-0.4,4.3-0.4,7.1V159H338.9z M437.1,113.3
		c3.2,0,6.3,0.6,9.1,1.9c2.8,1.2,5.3,2.9,7.5,5.1s3.8,4.7,4.9,7.6c1.2,2.8,1.8,5.9,1.8,9.1c0,3.2-0.6,6.2-1.8,9.1
		c-1.2,2.8-2.9,5.4-5.2,7.6c-2.2,2.2-4.8,3.9-7.7,5.1c-2.9,1.2-5.9,1.8-9.1,1.8c-4.2,0-8.1-1.1-11.7-3.2c-3.6-2.1-6.5-5-8.6-8.6
		c-2.1-3.6-3.2-7.5-3.2-11.7c0-3.3,0.6-6.4,1.8-9.3c1.3-2.9,3-5.4,5.2-7.5c2.2-2.2,4.7-3.8,7.6-5
		C430.6,113.9,433.7,113.3,437.1,113.3z M436.6,123.6c-1.6,0-3.2,0.4-4.9,1.1c-1.7,0.7-3.1,1.7-4.2,3c-2.4,2.5-3.7,5.5-3.7,9.2
		c0,2.3,0.6,4.5,1.7,6.6c1.1,2,2.7,3.6,4.6,4.8c2,1.2,4.1,1.8,6.5,1.8c2.5,0,4.7-0.6,6.7-1.7c2-1.2,3.5-2.8,4.6-4.8
		c1.1-2,1.7-4.2,1.7-6.6c0-2.4-0.6-4.6-1.7-6.6c-1.1-2.1-2.7-3.7-4.7-4.8C441.2,124.2,439,123.6,436.6,123.6z M424.6,109.2l8.8-8.2
		h6.2l8.8,8.2h-8.7l-3.2-3.8l-3.3,3.8H424.6z M467.3,159v-44.3h9.8v4.1h0.2c1.3-1.8,3-3.1,5.2-4.1c2.2-1,4.5-1.4,6.9-1.4
		c2.4,0,4.7,0.5,6.9,1.5c2.2,1,4.1,2.3,5.7,4c0.5,0.5,0.9,0.9,1.1,1.3c1.6,2.2,2.5,4.4,2.9,6.8c0.4,2.4,0.6,5.4,0.6,9.2v23H496
		v-20.9c0-2.4-0.1-4.5-0.4-6.3c-0.2-1.7-0.7-3.2-1.5-4.5c-0.7-1.1-1.7-2-3-2.7c-1.3-0.7-2.7-1-4.1-1c-1.4,0-2.9,0.4-4.3,1.1
		c-1.4,0.7-2.4,1.7-3.2,2.9c-0.8,1.4-1.3,3-1.5,4.8c-0.2,1.8-0.3,4-0.3,6.5V159H467.3z"/>
</mask>
<g class="st4">
	
		<linearGradient id="SVGID_2_" gradientUnits="userSpaceOnUse" x1="149.4218" y1="228.8537" x2="309.0907" y2="-40.109" gradientTransform="matrix(1 0 0 -1 0 176)">
		<stop  offset="0" style="stop-color:#613B02;stop-opacity:0"/>
		<stop  offset="1" style="stop-color:#EFD16E"/>
	</linearGradient>
	<path class="st5" d="M183.2,174.8h-13.6l8.6-20l-16.6-41.2h14.3l9.5,26.5l9.9-26.5h14.3L183.2,174.8z M172.7,172.8h9.3l24.6-57.1
		h-9.9L185.3,146l-10.8-30.3h-9.9l15.9,39.2L172.7,172.8z M436.6,161.4c-4.4,0-8.5-1.1-12.2-3.3c-3.7-2.2-6.7-5.2-9-9
		c-2.2-3.8-3.3-7.9-3.3-12.2c0-3.4,0.6-6.7,1.9-9.7c1.3-3,3.1-5.6,5.4-7.9c2.3-2.2,4.9-4,7.9-5.2c3-1.3,6.3-1.9,9.7-1.9
		c3.4,0,6.5,0.7,9.5,2c2.9,1.3,5.6,3.1,7.8,5.3c2.2,2.3,3.9,4.9,5.1,7.9c1.2,2.9,1.8,6.1,1.8,9.5c0,3.3-0.6,6.5-1.9,9.5
		c-1.2,2.9-3,5.6-5.4,7.9c-2.3,2.3-5,4.1-8,5.3C443.1,160.8,439.9,161.4,436.6,161.4z M437.1,114.3c-3.2,0-6.2,0.6-8.9,1.8
		c-2.8,1.1-5.2,2.8-7.3,4.8c-2.1,2-3.7,4.5-4.9,7.2c-1.2,2.7-1.8,5.7-1.8,8.9c0,4,1,7.8,3,11.2c2,3.5,4.8,6.2,8.2,8.3
		c3.4,2,7.2,3,11.2,3c3,0,6-0.6,8.7-1.7c2.8-1.1,5.2-2.8,7.3-4.9c2.1-2.1,3.8-4.6,4.9-7.3c1.1-2.7,1.7-5.6,1.7-8.7
		c0-3.1-0.6-6-1.7-8.7c-1.1-2.7-2.7-5.2-4.7-7.3c-2-2.1-4.4-3.7-7.1-4.9C443.1,114.9,440.1,114.3,437.1,114.3z M235.7,161.4
		c-4.4,0-8.5-1.1-12.2-3.3c-3.7-2.2-6.7-5.1-8.9-8.9c-2.2-3.7-3.3-7.8-3.3-12.1c0-4.5,1.1-8.7,3.2-12.4c2.2-3.8,5.1-6.9,8.9-9.1
		c3.8-2.2,8-3.4,12.5-3.4c3.3,0,6.4,0.7,9.2,2c2.9,1.3,5.4,3.1,7.5,5.3c2.2,2.2,3.9,4.8,5.1,7.8c1.2,2.9,1.8,6.1,1.8,9.2
		c0,0.8-0.2,2.5-0.6,5.2l-0.1,0.9h-33.8c0.8,1.8,2,3.2,3.6,4.4c2,1.4,4.2,2.1,6.6,2.1c1.8,0,3.6-0.3,5.3-1c1.6-0.6,2.9-1.5,3.8-2.6
		l0.3-0.4h13.6l-0.5,1.3c-0.9,2.7-2.6,5.3-4.8,7.6c-2.2,2.3-4.9,4.1-8,5.4C242,160.8,238.9,161.4,235.7,161.4z M235.9,114.3
		c-4.1,0-8,1-11.4,3.1c-3.4,2-6.2,4.8-8.2,8.3c-2,3.5-3,7.3-3,11.5c0,4,1,7.7,3,11.1c2,3.4,4.8,6.2,8.2,8.2c3.4,2,7.2,3,11.2,3
		c2.9,0,5.8-0.6,8.6-1.8c2.8-1.2,5.3-2.9,7.4-5c1.7-1.7,3-3.5,3.9-5.5h-9.8c-1.1,1.2-2.6,2.1-4.3,2.8c-1.9,0.7-3.9,1.1-6,1.1
		c-2.9,0-5.5-0.8-7.8-2.5c-2.3-1.7-3.9-3.9-4.8-6.7l-0.4-1.3h34.9c0.3-2.5,0.4-3.6,0.4-4c0-2.9-0.6-5.8-1.7-8.5
		c-1.1-2.7-2.7-5.1-4.7-7.1c-2-2.1-4.3-3.7-6.9-4.9C241.7,114.9,238.9,114.3,235.9,114.3z M136.2,161.4c-2.8,0-5.5-0.5-8-1.6
		c-2.6-1.1-4.8-2.7-6.7-4.9c-1.3-1.4-2.3-2.9-3-4.5c-0.6-1.6-1.1-3.2-1.2-4.9c-0.2-1.7-0.2-3.6-0.2-5.8v-26h12.6v22.8
		c0,4,0.4,6.9,1.3,8.6c0.6,1.3,1.5,2.2,2.7,2.9c1.2,0.7,2.5,1.1,3.9,1.1c3.3,0,5.4-1.1,6.4-3.2c1.2-2.4,1.8-5.6,1.8-9.4v-22.8h12.6
		V160h-11.8v-2.7C144.2,160.1,140.7,161.4,136.2,161.4z M118.9,115.7v24c0,2.1,0.1,4,0.2,5.6c0.2,1.5,0.5,3,1.1,4.4
		c0.6,1.4,1.5,2.7,2.6,3.9c1.7,2,3.8,3.4,6,4.4c2.3,1,4.7,1.4,7.3,1.4c5,0,8.4-1.8,10.4-5.6l0.3-0.5h1.8v4.7h7.8v-42.3h-8.6v20.8
		c0,4.1-0.7,7.6-2,10.3c-1.4,2.9-4.2,4.3-8.2,4.3c-1.8,0-3.5-0.5-5-1.4c-1.5-0.9-2.7-2.2-3.5-3.8c-1-2-1.5-5.1-1.5-9.5v-20.8H118.9z
		 M38.5,161.4c-3.1,0-6.2-0.6-9.3-1.9c-3-1.2-5.7-2.9-7.9-5c-2.5-2.4-4.4-5.2-5.7-8.3c-1.2-3.1-1.9-6.3-1.9-9.7
		c0-3.3,0.6-6.5,1.9-9.4c1.3-2.9,3.1-5.5,5.3-7.8c2.3-2.2,4.9-4,7.9-5.2c3-1.2,6.2-1.9,9.5-1.9c3.4,0,6.7,0.7,9.9,2.1
		c3.2,1.4,5.9,3.4,8.3,5.9c2.3,2.6,4,5.5,4.9,8.8l0.4,1.3H47.9l-0.3-0.5c-2.1-3.5-5.2-5.3-9.4-5.3c-2.3,0-4.4,0.5-6.2,1.6
		c-1.8,1-3.2,2.5-4.2,4.3c-1,1.8-1.5,3.9-1.5,6.2c0,2.3,0.5,4.5,1.6,6.4c1,1.8,2.5,3.3,4.4,4.4c1.9,1.1,4,1.6,6.4,1.6
		c1.2,0,2.3-0.2,3.4-0.6c1.1-0.4,2.2-1,3.1-1.7c0.9-0.8,1.7-1.7,2.3-2.7l0.3-0.5h13.9l-0.4,1.3c-1,3.3-2.7,6.2-5,8.7
		c-2.3,2.5-5,4.4-8.1,5.8C45.1,160.7,41.8,161.4,38.5,161.4z M38.4,114.3c-3,0-6,0.6-8.7,1.7c-2.7,1.1-5.2,2.7-7.3,4.8
		c-2.1,2.1-3.7,4.5-4.9,7.1c-1.2,2.7-1.8,5.6-1.8,8.6c0,3.1,0.6,6.1,1.7,9c1.2,2.8,2.9,5.4,5.2,7.6c2,1.9,4.5,3.5,7.3,4.6
		c5.8,2.4,12,2.3,17.5-0.2c2.9-1.3,5.4-3.1,7.5-5.3c1.8-1.9,3.2-4.2,4.1-6.6H49c-0.7,1-1.5,1.9-2.5,2.7c-1.1,0.9-2.3,1.6-3.6,2
		c-1.3,0.5-2.7,0.7-4.1,0.7c-2.7,0-5.2-0.6-7.4-1.8c-2.2-1.2-4-3-5.2-5.1c-1.2-2.2-1.8-4.7-1.8-7.4c0-2.6,0.6-5,1.7-7.1
		c1.2-2.2,2.8-3.9,4.9-5.1c2.1-1.2,4.5-1.9,7.2-1.9c4.7,0,8.3,1.9,10.8,5.7h10.1c-0.9-2.5-2.2-4.7-4.1-6.7c-2.1-2.3-4.7-4.2-7.6-5.5
		C44.5,114.9,41.5,114.3,38.4,114.3z M507.6,160H495v-21.9c0-2.4-0.1-4.5-0.3-6.2c-0.2-1.6-0.6-3-1.3-4.1c-0.6-1-1.5-1.7-2.6-2.3
		c-2.4-1.2-4.9-1.2-7.4,0c-1.2,0.6-2.1,1.4-2.8,2.5c-0.7,1.3-1.2,2.8-1.3,4.4c-0.2,1.8-0.3,3.9-0.3,6.4V160h-12.6v-46.3h11.8v2.7
		c1.1-1,2.5-1.9,4-2.6c4.6-2,9.8-2,14.6,0c2.3,1,4.4,2.4,6,4.2c0.6,0.5,1,1,1.3,1.5c1.6,2.2,2.6,4.6,3.1,7.2
		c0.4,2.4,0.6,5.6,0.6,9.3V160z M497,158h8.6v-22c0-3.7-0.2-6.7-0.6-9c-0.4-2.2-1.3-4.3-2.8-6.4c-0.2-0.4-0.5-0.7-1-1.1l-0.1-0.1
		c-1.5-1.6-3.3-2.9-5.4-3.8c-4.2-1.9-8.9-1.8-13,0c-2,0.9-3.6,2.1-4.8,3.7l-0.3,0.4h-1.7v-4.1h-7.8V158h8.6v-19.1
		c0-2.6,0.1-4.8,0.3-6.6c0.2-2,0.7-3.7,1.6-5.2c0.8-1.4,2-2.5,3.6-3.2c3.1-1.5,6.3-1.5,9.2,0c1.4,0.7,2.6,1.7,3.4,3
		c0.9,1.4,1.4,3,1.6,4.9c0.2,1.8,0.4,3.9,0.4,6.4V158z M406.3,160h-12.6v-24.6c0-1.8-0.1-3.4-0.3-4.8c-0.2-1.3-0.5-2.3-1.1-3.1
		c-0.4-0.6-0.9-1.1-1.5-1.5c-0.6-0.5-1.3-0.8-2-1c-0.7-0.2-1.5-0.3-2.3-0.3c-1.4,0-2.7,0.3-3.8,0.9c-1.1,0.6-2,1.4-2.7,2.5
		c-0.6,1.1-1.1,2.5-1.3,4c-0.2,1.6-0.3,3.6-0.3,5.9V160h-12.7v-24.6c0-1.8-0.1-3.4-0.3-4.6c-0.2-1.1-0.6-2.1-1.2-3
		c-0.7-1-1.5-1.8-2.6-2.3c-1.1-0.6-2.3-0.8-3.5-0.8c-2.3,0-4,0.6-5.1,1.8c-1.1,1.2-1.8,2.7-2.1,4.5c-0.3,1.8-0.4,4.2-0.4,7V160
		h-12.6v-46.3h11.7v2.2c0.9-0.9,2-1.6,3.4-2.2c2.3-1,4.8-1.4,7.3-1.4c2.5,0,4.9,0.5,7.1,1.5c2.2,1,4.1,2.5,5.5,4.3
		c0.1,0.1,0.2,0.2,0.3,0.3c0.1-0.1,0.3-0.3,0.4-0.4c1.6-1.9,3.6-3.3,6-4.3c2.4-1,5-1.5,7.6-1.5c6.1,0,10.9,2,14.3,5.9
		c1.3,1.4,2.4,3,3.1,4.7c0.7,1.7,1.2,3.4,1.4,5.2c0.2,1.7,0.3,3.7,0.3,6.1V160z M395.7,158h8.6v-23.9c0-2.2-0.1-4.2-0.3-5.8
		c-0.2-1.6-0.6-3.2-1.3-4.7c-0.6-1.5-1.5-2.9-2.7-4.1c-3-3.5-7.3-5.2-12.8-5.2c-2.4,0-4.7,0.4-6.9,1.3c-2.1,0.9-3.9,2.2-5.3,3.8
		l-0.2,0.1c-0.4,0.3-0.6,0.6-0.9,1l-0.8,1.6l-0.9-1.5c-0.3-0.5-0.6-0.9-0.9-1.2l-0.1-0.1c-1.2-1.6-2.9-2.9-4.8-3.8
		c-1.9-0.9-4.1-1.4-6.3-1.4c-2.3,0-4.5,0.4-6.5,1.3c-1.9,0.8-3.3,2-4.1,3.6l-0.3,0.6h-1.8v-4.1h-7.7V158h8.6v-20.1
		c0-2.9,0.1-5.4,0.4-7.3c0.3-2.1,1.2-3.9,2.6-5.5c1.5-1.6,3.7-2.4,6.6-2.4c1.6,0,3.1,0.4,4.4,1c1.4,0.7,2.5,1.7,3.4,3
		c0.8,1.1,1.3,2.4,1.5,3.8c0.2,1.3,0.3,2.9,0.3,4.9V158h8.7v-20.1c0-2.3,0.1-4.4,0.3-6.1c0.2-1.8,0.7-3.4,1.5-4.8
		c0.9-1.4,2.1-2.5,3.5-3.2c1.4-0.7,3-1.1,4.7-1.1c1,0,2,0.1,2.9,0.4c0.9,0.3,1.8,0.7,2.6,1.3c0.8,0.5,1.5,1.2,2,2
		c0.8,1.1,1.2,2.4,1.4,4c0.2,1.4,0.3,3.1,0.3,5V158z M306.8,160h-12.6v-21.9c0-2.4-0.1-4.5-0.3-6.2c-0.2-1.6-0.6-3-1.3-4.1
		c-0.6-1-1.5-1.7-2.6-2.3c-2.4-1.2-4.9-1.2-7.4,0c-1.2,0.6-2.1,1.4-2.8,2.5c-0.7,1.3-1.2,2.8-1.3,4.4c-0.2,1.8-0.3,3.9-0.3,6.4V160
		h-12.6v-46.3h11.8v2.7c1.1-1,2.5-1.9,4-2.6c4.6-2,9.8-2,14.6,0c2.3,1,4.4,2.4,6,4.2c0.6,0.5,1,1,1.3,1.5c1.6,2.2,2.6,4.6,3.1,7.2
		c0.4,2.4,0.6,5.6,0.6,9.3V160z M296.2,158h8.6v-22c0-3.7-0.2-6.7-0.6-9c-0.4-2.2-1.3-4.3-2.8-6.4c-0.2-0.4-0.5-0.7-1-1.1l-0.1-0.1
		c-1.5-1.6-3.3-2.9-5.4-3.8c-4.2-1.9-8.9-1.8-13,0c-2,0.9-3.6,2.1-4.8,3.7l-0.3,0.4h-1.7v-4.1h-7.8V158h8.6v-19.1
		c0-2.6,0.1-4.8,0.3-6.6c0.2-2,0.7-3.7,1.6-5.2c0.8-1.4,2-2.5,3.6-3.2c3.1-1.5,6.3-1.5,9.2,0c1.4,0.7,2.6,1.7,3.4,3
		c0.9,1.4,1.4,3,1.6,4.9c0.2,1.8,0.4,3.9,0.4,6.4V158z M109.2,160H96.5v-22.7c0-2.7-0.2-4.9-0.6-6.8c-0.4-1.7-1.1-3.1-2.3-4.2
		c-1.1-1.1-2.9-1.6-5.2-1.6c-2.8,0-4.9,1.1-6.4,3.4c-0.6,1.1-1.1,2.4-1.2,3.8c-0.2,1.5-0.3,3.4-0.3,5.6V160H67.9V98.9h12.6v16.7
		c1-0.8,2.2-1.5,3.5-2c4.6-1.8,9.6-1.7,14.4,0.4c2.5,1.1,4.6,2.7,6.2,4.6c1.3,1.5,2.3,3.2,3,5c0.7,1.7,1.1,3.5,1.2,5.2
		c0.2,1.6,0.2,3.8,0.2,6.4V160z M98.5,158h8.6v-23c0-2.5-0.1-4.6-0.2-6.2c-0.1-1.5-0.5-3.1-1.1-4.7c-0.6-1.5-1.5-3-2.6-4.3
		c-1.5-1.7-3.3-3-5.6-4c-4.3-1.9-8.7-1.9-12.9-0.4c-1.9,0.7-3.4,1.8-4.4,3.2l-1.8,2.4v-20.1h-8.6V158h8.6v-20.5
		c0-2.3,0.1-4.2,0.3-5.9c0.2-1.8,0.7-3.3,1.5-4.7c1.9-2.9,4.6-4.3,8.1-4.3c2.8,0,5,0.7,6.6,2.2c1.5,1.4,2.4,3.2,2.9,5.3
		c0.4,2,0.6,4.4,0.6,7.2V158z M436.6,151.1c-2.5,0-4.9-0.6-7-1.9c-2.1-1.3-3.8-3-5-5.2c-1.2-2.2-1.8-4.6-1.8-7.1
		c0-3.9,1.3-7.3,4-9.9c1.2-1.3,2.7-2.4,4.5-3.2c1.8-0.8,3.6-1.2,5.3-1.2c2.5,0,4.9,0.7,7.1,1.9c2.1,1.3,3.9,3,5.1,5.2
		c1.2,2.2,1.8,4.6,1.8,7.1c0,2.5-0.6,4.9-1.8,7.1c-1.2,2.2-2.9,3.9-5,5.2C441.7,150.4,439.2,151.1,436.6,151.1z M436.6,124.6
		c-1.4,0-3,0.3-4.5,1c-1.5,0.7-2.8,1.6-3.9,2.7c-2.3,2.3-3.4,5.1-3.4,8.5c0,2.1,0.5,4.2,1.6,6.1c1,1.9,2.5,3.3,4.3,4.4
		c1.8,1.1,3.8,1.6,6,1.6c2.3,0,4.4-0.5,6.2-1.6c1.8-1.1,3.2-2.6,4.3-4.4c1-1.9,1.6-3.9,1.6-6.1c0-2.2-0.5-4.3-1.6-6.2
		c-1.1-1.9-2.5-3.4-4.4-4.5C440.8,125.2,438.8,124.6,436.6,124.6z M249.3,133.1h-27.2l0.4-1.3c0.9-2.7,2.6-4.9,5.1-6.6
		c2.5-1.7,5.2-2.6,8.2-2.6c1.9,0,3.8,0.4,5.5,1.1c1.7,0.7,3.3,1.8,4.6,3.2c1.3,1.4,2.3,3,2.9,4.9L249.3,133.1z M224.9,131.1h21.5
		c-0.5-1-1.1-2-1.9-2.8c-1.1-1.2-2.4-2.1-3.9-2.7c-1.5-0.6-3.1-0.9-4.7-0.9c-2.5,0-4.9,0.7-7.1,2.2C227,128,225.7,129.4,224.9,131.1
		z M249.7,110.3h-11.6l-2.7-3.3l-2.8,3.3h-11.6l10.9-10.2h7L249.7,110.3z M239.1,108.3h5.7l-6.6-6.2h-5.5l-6.7,6.2h5.6l3.8-4.4
		L239.1,108.3z M450.9,110.2h-11.7l-2.7-3.3l-2.8,3.3H422l11-10.2h7L450.9,110.2z M440.2,108.2h5.7l-6.6-6.2h-5.4l-6.7,6.2h5.6
		l3.8-4.4L440.2,108.2z"/>
</g>
</svg>
