<?xml version="1.0" encoding="utf-8"?>
<!-- Generator: Adobe Illustrator 22.0.1, SVG Export Plug-In . SVG Version: 6.00 Build 0)  -->
<svg version="1.1" id="Layer_1" xmlns="http://www.w3.org/2000/svg" xmlns:xlink="http://www.w3.org/1999/xlink" x="0px" y="0px"
	 viewBox="0 0 413 81" style="enable-background:new 0 0 413 81;" xml:space="preserve">
<style type="text/css">
	.st0{fill:#FFFFFF;filter:url(#Adobe_OpacityMaskFilter);}
	.st1{mask:url(#path-1-outside-1_2_);}
	.st2{fill:url(#SVGID_1_);}
</style>
<defs>
	<filter id="Adobe_OpacityMaskFilter" filterUnits="userSpaceOnUse" x="1" y="0.5" width="412" height="79.7">
		<feColorMatrix  type="matrix" values="1 0 0 0 0  0 1 0 0 0  0 0 1 0 0  0 0 0 1 0"/>
	</filter>
</defs>
<mask maskUnits="userSpaceOnUse" x="1" y="0.5" width="412" height="79.7" id="path-1-outside-1_2_">
	<rect x="1" y="-0.1" class="st0" width="412" height="81"/>
	<path d="M2,65.2V6.1h12.3l24.6,43.2V6.1h11v59.1H37.7l-24.8-43v43H2z M61,65.2V6.1h10.6v18.1c1.2-1.6,2.8-2.7,4.9-3.6
		c2.1-0.8,4.3-1.2,6.5-1.2c2.4,0,4.8,0.5,7.1,1.6c2.4,1.1,4.3,2.5,5.9,4.3c1.3,1.4,2.2,3,2.8,4.6c0.6,1.7,1,3.3,1.2,4.9
		c0.2,1.6,0.2,3.7,0.2,6.3v24H89.7V43.6c0-2.7-0.2-5.1-0.6-7c-0.4-1.9-1.3-3.5-2.6-4.8c-1.3-1.3-3.3-1.9-5.9-1.9
		c-3.2,0-5.6,1.3-7.3,3.8c-0.7,1.2-1.2,2.6-1.4,4.3c-0.2,1.6-0.3,3.5-0.3,5.7v21.5H61z M154.9,20.9v44.3h-9.8v-6H145
		c-1.6,2.3-3.8,4.1-6.6,5.4c-2.8,1.4-5.6,2-8.4,2c-3.3,0-6.4-0.7-9.1-2c-2.8-1.3-5.2-3.1-7.2-5.5c-3.7-4.4-5.5-9.8-5.5-16.1
		c0-2,0.2-3.9,0.5-5.8c0.4-1.9,1-3.7,1.8-5.3c0.8-1.6,2-3.3,3.4-4.9c2.2-2.6,4.7-4.5,7.5-5.8c2.8-1.3,5.8-1.9,9-1.9
		c3,0,5.8,0.7,8.4,2c2.6,1.3,4.7,3.2,6.5,5.7v-6.3H154.9z M144.8,43c0-1.9-0.3-3.6-0.9-5.2c-0.6-1.6-1.5-3-2.6-4.2
		c-1.1-1.2-2.5-2.1-4.1-2.7c-1.6-0.7-3.3-1-5.2-1c-3.9,0-7.1,1.3-9.6,3.9c-2.5,2.6-3.7,5.8-3.7,9.7c0,3.6,1.3,6.6,3.9,9.1
		c2.6,2.5,5.7,3.7,9.3,3.7c2.5,0,4.7-0.6,6.7-1.7c2-1.2,3.5-2.8,4.6-4.8C144.3,47.8,144.8,45.5,144.8,43z M126.3,8.1l3.4-6.2
		l13.3,8.1l-3.1,5.5L126.3,8.1z M188.8,65.2V30.4h-5.2v-9.5h5.2V6.1h10.6v14.8h6.4v9.5h-6.4v34.9H188.8z M257,20.9v44.3h-9.8v-6
		h-0.2c-1.6,2.3-3.8,4.1-6.6,5.4c-2.8,1.4-5.6,2-8.4,2c-3.3,0-6.4-0.7-9.1-2c-2.8-1.3-5.2-3.1-7.2-5.5c-3.7-4.4-5.5-9.8-5.5-16.1
		c0-2,0.2-3.9,0.5-5.8c0.4-1.9,1-3.7,1.8-5.3c0.8-1.6,2-3.3,3.4-4.9c2.2-2.6,4.7-4.5,7.5-5.8c2.8-1.3,5.8-1.9,9-1.9
		c3,0,5.8,0.7,8.4,2c2.6,1.3,4.7,3.2,6.5,5.7v-6.3H257z M246.9,43c0-1.9-0.3-3.6-0.9-5.2c-0.6-1.6-1.5-3-2.6-4.2
		c-1.1-1.2-2.5-2.1-4.1-2.7c-1.6-0.7-3.3-1-5.2-1c-3.9,0-7.1,1.3-9.6,3.9c-2.5,2.6-3.7,5.8-3.7,9.7c0,3.6,1.3,6.6,3.9,9.1
		c2.6,2.5,5.7,3.7,9.3,3.7c2.5,0,4.7-0.6,6.7-1.7c2-1.2,3.5-2.8,4.6-4.8C246.4,47.8,246.9,45.5,246.9,43z M228.4,8.1l3.4-6.2L245,10
		l-3.1,5.5L228.4,8.1z M265.9,65.2V20.9h10.6v44.3H265.9z M267,15.8V8.1h8.5v7.7H267z M311.1,65.2V30.4h-5.2v-9.5h5.2V6.1h10.6v14.8
		h6.4v9.5h-6.4v34.9H311.1z M334.4,65.2V20.9h9.6v4h0.2c1.2-1.9,2.5-3.3,4-4.1c1.5-0.9,3.3-1.3,5.5-1.3h0.8v10.3
		c-2.6,0-4.7,0.7-6.5,2.1c-0.9,0.8-1.6,1.6-2.1,2.6c-0.4,0.9-0.7,1.9-0.8,2.9c-0.1,1-0.2,2.3-0.2,3.9v23.9H334.4z M383,19.5
		L383,19.5c2.3,0,4.5,0.4,6.6,1.1c2.1,0.7,4,1.6,5.6,2.7c1.6,1.1,3,2.2,4.2,3.4c1.2,1.2,2.1,2.4,2.8,3.6c1.1-0.2,1.9-0.6,2.4-1.3
		c0.5-0.7,0.8-1.7,0.9-3c0.2-1.4,0.3-3.5,0.3-6.4h6.2c0,3-0.4,5.5-1.2,7.7c-0.8,2.2-1.8,3.8-3,4.9c-1.2,1.1-2.4,1.6-3.5,1.6
		c0.6,1,1,2.3,1.4,4.1c0.4,1.7,0.6,3.5,0.6,5.4c0,3.2-0.6,6.2-1.8,9.1c-1.2,2.8-2.9,5.4-5.2,7.6c-2.2,2.2-4.8,3.9-7.7,5.1
		c-2.9,1.2-5.9,1.8-9.1,1.8c-4.2,0-8.1-1.1-11.7-3.2c-3.6-2.1-6.5-5-8.6-8.6c-2.1-3.6-3.2-7.5-3.2-11.7c0-3.3,0.6-6.4,1.8-9.3
		c1.3-2.9,3-5.4,5.2-7.5c2.2-2.2,4.7-3.8,7.6-5C376.6,20.1,379.7,19.5,383,19.5z M382.6,29.9c-1.6,0-3.2,0.4-4.9,1.1
		c-1.7,0.7-3.1,1.7-4.2,3c-2.4,2.5-3.7,5.5-3.7,9.2c0,2.3,0.6,4.5,1.7,6.6c1.1,2,2.7,3.6,4.6,4.8c2,1.2,4.1,1.8,6.5,1.8
		c2.5,0,4.7-0.6,6.7-1.7c2-1.2,3.5-2.8,4.6-4.8c1.1-2,1.7-4.2,1.7-6.6s-0.6-4.6-1.7-6.6s-2.7-3.7-4.7-4.8
		C387.2,30.5,385,29.9,382.6,29.9z M378.4,79.1v-7.7h8.5v7.7H378.4z"/>
</mask>
<g class="st1">
	
		<linearGradient id="SVGID_1_" gradientUnits="userSpaceOnUse" x1="184.9199" y1="138.5389" x2="249.0738" y2="-149.508" gradientTransform="matrix(1 0 0 -1 0 82)">
		<stop  offset="0" style="stop-color:#613B02;stop-opacity:0"/>
		<stop  offset="1" style="stop-color:#EFD16E"/>
	</linearGradient>
	<path class="st2" d="M387.9,80.1h-10.5v-9.7h10.5V80.1z M379.4,78.1h6.5v-5.7h-6.5V78.1z M382.5,67.7c-4.4,0-8.5-1.1-12.2-3.3
		c-3.7-2.2-6.7-5.2-9-9c-2.2-3.8-3.3-7.9-3.3-12.2c0-3.4,0.6-6.7,1.9-9.7c1.3-3,3.1-5.6,5.4-7.9c2.3-2.2,4.9-4,7.9-5.2
		c3-1.3,6.3-1.9,9.7-1.9h0.1c2.4,0,4.7,0.4,6.9,1.1c2.2,0.7,4.1,1.7,5.8,2.8c1.7,1.1,3.1,2.3,4.3,3.5c1,1,1.9,2.1,2.5,3.1
		c0.5-0.2,0.9-0.4,1.1-0.7c0.3-0.3,0.6-1.1,0.8-2.6c0.2-1.4,0.3-3.5,0.3-6.3v-1h8.2v1c0,3.1-0.4,5.8-1.3,8c-0.9,2.3-2,4.1-3.3,5.3
		c-0.9,0.8-1.8,1.4-2.7,1.7c0.4,0.9,0.6,1.9,0.9,3.1c0.4,1.8,0.6,3.7,0.6,5.6c0,3.3-0.6,6.5-1.9,9.5c-1.2,2.9-3.1,5.6-5.4,7.9
		c-2.3,2.3-5,4.1-8,5.3C389,67.1,385.8,67.7,382.5,67.7z M383,20.5c-3.2,0-6.2,0.6-8.9,1.8c-2.8,1.1-5.2,2.8-7.3,4.8
		c-2.1,2-3.8,4.5-4.9,7.2c-1.2,2.7-1.8,5.7-1.8,8.9c0,4,1,7.8,3,11.2c2,3.5,4.8,6.2,8.2,8.3c3.4,2,7.2,3,11.2,3c3,0,6-0.6,8.7-1.7
		c2.8-1.1,5.2-2.8,7.3-4.9c2.1-2.1,3.8-4.6,4.9-7.3c1.1-2.7,1.7-5.6,1.7-8.7c0-1.8-0.2-3.5-0.6-5.2c-0.3-1.6-0.8-2.9-1.3-3.8
		l-0.9-1.5h1.8c0.9,0,1.8-0.5,2.8-1.4c1.1-1,2-2.5,2.7-4.5c0.7-1.8,1-3.9,1.1-6.3h-4.2c0,2.4-0.1,4.2-0.3,5.5
		c-0.2,1.6-0.5,2.7-1.1,3.5c-0.6,0.9-1.6,1.4-3,1.7l-0.7,0.1l-0.3-0.6c-0.6-1.1-1.5-2.2-2.6-3.3c-1.1-1.1-2.5-2.2-4-3.3
		c-1.5-1-3.3-1.9-5.4-2.6C387.3,20.8,385.2,20.5,383,20.5L383,20.5z M232.1,67.7c-3.4,0-6.7-0.7-9.6-2c-2.9-1.4-5.4-3.3-7.5-5.8
		c-3.8-4.6-5.8-10.2-5.8-16.8c0-2,0.2-4,0.6-6c0.4-2,1-3.8,1.9-5.5c0.9-1.7,2-3.4,3.5-5.1c2.3-2.7,4.9-4.7,7.8-6
		c2.9-1.3,6.1-2,9.4-2c3.2,0,6.2,0.7,8.9,2.1c1.9,0.9,3.6,2.2,5,3.8v-4.4H258v46.3h-11.8v-4.5c-1.5,1.5-3.3,2.8-5.4,3.8
		C238,67,235,67.7,232.1,67.7z M232.4,20.5c-3.1,0-6,0.6-8.6,1.8c-2.6,1.2-5,3-7.1,5.5c-1.3,1.6-2.4,3.1-3.2,4.7
		c-0.8,1.5-1.3,3.2-1.7,5c-0.3,1.8-0.5,3.7-0.5,5.6c0,6.1,1.8,11.3,5.3,15.5c1.9,2.2,4.2,4,6.8,5.2s5.6,1.9,8.7,1.9
		c2.6,0,5.3-0.6,8-1.9c2.6-1.3,4.8-3,6.3-5.1l0.3-0.4h1.7v6h7.8V21.9h-7.8v8.4l-1.8-2.6c-1.6-2.4-3.7-4.2-6.1-5.4
		C237.9,21.1,235.3,20.5,232.4,20.5z M130,67.7c-3.4,0-6.7-0.7-9.6-2c-2.9-1.4-5.4-3.3-7.5-5.8c-3.8-4.6-5.8-10.2-5.8-16.8
		c0-2,0.2-4,0.6-6c0.4-2,1-3.8,1.9-5.5c0.9-1.7,2-3.4,3.5-5.1c2.3-2.7,4.9-4.7,7.8-6c2.9-1.3,6.1-2,9.4-2c3.2,0,6.2,0.7,8.9,2.1
		c1.9,0.9,3.6,2.2,5,3.8v-4.4h11.8v46.3h-11.8v-4.5c-1.5,1.5-3.3,2.8-5.4,3.8C135.9,67,132.9,67.7,130,67.7z M130.3,20.5
		c-3.1,0-6,0.6-8.6,1.8c-2.6,1.2-5,3-7.1,5.5c-1.4,1.6-2.4,3.1-3.2,4.7c-0.8,1.5-1.3,3.2-1.7,5c-0.3,1.8-0.5,3.7-0.5,5.6
		c0,6.1,1.8,11.3,5.3,15.5c1.9,2.2,4.2,4,6.8,5.2c2.6,1.2,5.6,1.9,8.7,1.9c2.6,0,5.3-0.6,8-1.9c2.6-1.3,4.8-3,6.3-5.1l0.3-0.4h1.7v6
		h7.8V21.9h-7.8v8.4l-1.8-2.6c-1.6-2.4-3.7-4.2-6.1-5.4C135.8,21.1,133.2,20.5,130.3,20.5z M346,66.2h-12.6V19.9h11.6v2.2
		c0.8-0.9,1.7-1.7,2.7-2.2c1.7-0.9,3.7-1.4,6-1.4h1.8v12.3h-1c-2.3,0-4.3,0.6-5.9,1.9c-0.8,0.6-1.4,1.4-1.8,2.2
		c-0.4,0.8-0.6,1.7-0.7,2.6c-0.1,1-0.2,2.3-0.2,3.8V66.2z M335.4,64.2h8.6V41.3c0-1.7,0.1-3,0.2-4c0.1-1.1,0.4-2.2,0.9-3.3
		c0.5-1.1,1.3-2.1,2.3-2.9c1.7-1.3,3.8-2.1,6.1-2.3v-8.3c-1.9,0-3.5,0.4-4.8,1.2c-1.3,0.7-2.6,2-3.7,3.8l-0.3,0.5h-1.7v-4h-7.6V64.2
		z M322.7,66.2h-12.6V31.4h-5.2V19.9h5.2V5.1h12.6v14.8h6.4v11.5h-6.4V66.2z M312.1,64.2h8.6V29.4h6.4v-7.5h-6.4V7.1h-8.6v14.8h-5.2
		v7.5h5.2V64.2z M277.5,66.2h-12.6V19.9h12.6V66.2z M266.9,64.2h8.6V21.9h-8.6V64.2z M200.4,66.2h-12.6V31.4h-5.2V19.9h5.2V5.1h12.6
		v14.8h6.4v11.5h-6.4V66.2z M189.8,64.2h8.6V29.4h6.4v-7.5h-6.4V7.1h-8.6v14.8h-5.2v7.5h5.2V64.2z M101.3,66.2H88.7V43.6
		c0-2.6-0.2-4.9-0.6-6.8c-0.4-1.7-1.1-3.1-2.3-4.2c-1.1-1.1-2.9-1.6-5.2-1.6c-2.8,0-4.9,1.1-6.4,3.4c-0.6,1.1-1.1,2.4-1.2,3.8
		c-0.2,1.5-0.3,3.4-0.3,5.6v22.5H60V5.1h12.6v16.7c1-0.8,2.2-1.5,3.5-2c4.6-1.8,9.6-1.7,14.4,0.4c2.5,1.1,4.6,2.7,6.2,4.6
		c1.3,1.5,2.3,3.2,3,5c0.7,1.7,1.1,3.5,1.2,5.2c0.2,1.6,0.2,3.8,0.2,6.4V66.2z M90.7,64.2h8.6v-23c0-2.5-0.1-4.6-0.2-6.2
		c-0.1-1.5-0.5-3.1-1.1-4.7c-0.6-1.5-1.5-3-2.6-4.3c-1.5-1.7-3.3-3-5.6-4c-4.3-1.9-8.7-1.9-12.9-0.4c-1.9,0.7-3.4,1.8-4.4,3.2
		l-1.8,2.4V7.1H62v57.1h8.6V43.7c0-2.3,0.1-4.2,0.3-5.9c0.2-1.8,0.7-3.3,1.5-4.7c1.9-2.9,4.6-4.3,8.1-4.3c2.8,0,5,0.7,6.6,2.2
		c1.5,1.4,2.4,3.2,2.9,5.3c0.4,2,0.6,4.4,0.6,7.2V64.2z M50.9,66.2H37.2L13.9,25.9v40.3H1V5.1h13.9l23,40.4V5.1h13V66.2z M38.3,64.2
		h10.6V7.1h-9v45.9L13.7,7.1H3v57.1h9V18.5L38.3,64.2z M382.6,57.3c-2.5,0-4.9-0.6-7-1.9c-2.1-1.3-3.8-3-5-5.2
		c-1.2-2.2-1.8-4.6-1.8-7.1c0-3.9,1.3-7.3,4-9.9c1.2-1.3,2.7-2.4,4.5-3.2c1.8-0.8,3.6-1.2,5.3-1.2c2.5,0,4.9,0.7,7.1,1.9
		c2.1,1.3,3.9,3,5.1,5.2c1.2,2.2,1.8,4.6,1.8,7.1c0,2.5-0.6,4.9-1.8,7.1c-1.2,2.2-2.9,3.9-5,5.2C387.7,56.7,385.2,57.3,382.6,57.3z
		 M382.6,30.9c-1.4,0-3,0.3-4.5,1c-1.5,0.7-2.8,1.6-3.9,2.7c-2.3,2.3-3.4,5.1-3.4,8.5c0,2.1,0.5,4.2,1.6,6.1c1,1.9,2.5,3.3,4.3,4.4
		c1.8,1.1,3.8,1.6,6,1.6c2.3,0,4.4-0.5,6.2-1.6c1.8-1.1,3.2-2.6,4.3-4.4c1-1.9,1.6-3.9,1.6-6.1c0-2.2-0.5-4.3-1.6-6.2
		c-1.1-1.9-2.5-3.4-4.4-4.5C386.8,31.4,384.8,30.9,382.6,30.9z M234,57.3c-3.8,0-7.2-1.3-10-4c-2.8-2.7-4.2-6-4.2-9.8
		c0-4.2,1.3-7.7,4-10.4c2.7-2.8,6.1-4.2,10.3-4.2c2,0,3.8,0.4,5.5,1.1c1.7,0.7,3.2,1.7,4.4,3c1.2,1.3,2.2,2.8,2.8,4.5
		c0.7,1.7,1,3.6,1,5.6c0,2.7-0.6,5.1-1.8,7.3c-1.1,2.2-2.8,3.9-4.9,5.2C239.1,56.7,236.6,57.3,234,57.3z M234.1,30.9
		c-3.6,0-6.5,1.2-8.9,3.6c-2.3,2.4-3.4,5.3-3.4,9c0,3.3,1.2,6.1,3.6,8.4c2.4,2.3,5.2,3.4,8.6,3.4c2.3,0,4.4-0.5,6.2-1.6
		c1.8-1.1,3.2-2.5,4.2-4.4c1-1.9,1.5-4,1.5-6.3c0-1.7-0.3-3.4-0.9-4.8c-0.6-1.5-1.4-2.8-2.4-3.9c-1-1.1-2.3-1.9-3.7-2.5
		C237.4,31.2,235.8,30.9,234.1,30.9z M131.9,57.3c-3.8,0-7.2-1.3-10-4c-2.8-2.7-4.2-6-4.2-9.8c0-4.2,1.3-7.7,4-10.4
		c2.7-2.8,6.1-4.2,10.3-4.2c2,0,3.8,0.4,5.5,1.1c1.7,0.7,3.2,1.7,4.4,3c1.2,1.3,2.2,2.8,2.8,4.5c0.7,1.7,1,3.6,1,5.6
		c0,2.7-0.6,5.1-1.8,7.3c-1.1,2.2-2.8,3.9-4.9,5.2C137,56.7,134.5,57.3,131.9,57.3z M132,30.9c-3.6,0-6.5,1.2-8.9,3.6
		c-2.3,2.4-3.4,5.3-3.4,9c0,3.3,1.2,6.1,3.6,8.4c2.4,2.3,5.2,3.4,8.6,3.4c2.3,0,4.4-0.5,6.2-1.6c1.8-1.1,3.2-2.5,4.2-4.4
		c1-1.9,1.5-4,1.5-6.3c0-1.7-0.3-3.4-0.9-4.8c-0.6-1.5-1.4-2.8-2.4-3.9c-1-1.1-2.3-1.9-3.7-2.5C135.3,31.2,133.7,30.9,132,30.9z
		 M242.3,16.8L227,8.4l4.3-8l15,9.1L242.3,16.8z M229.7,7.7l11.8,6.5l2.2-3.8l-11.6-7L229.7,7.7z M140.2,16.8l-15.3-8.4l4.3-8
		l15,9.1L140.2,16.8z M127.6,7.7l11.8,6.5l2.2-3.8l-11.6-7L127.6,7.7z M276.5,16.8H266V7.1h10.5V16.8z M268,14.8h6.5V9.1H268V14.8z"
		/>
</g>
</svg>
