<?xml version="1.0" encoding="UTF-8"?>
<svg width="726px" height="349px" viewBox="0 0 726 349" version="1.1" xmlns="http://www.w3.org/2000/svg" xmlns:xlink="http://www.w3.org/1999/xlink">
    <!-- Generator: Sketch 49 (51002) - http://www.bohemiancoding.com/sketch -->
    <title>Icons</title>
    <desc>Created with Sketch.</desc>
    <defs></defs>
    <g id="Icons" stroke="none" stroke-width="1" fill="none" fill-rule="evenodd">
        <path d="M7,21.25 L7,24.75 C7,24.822917 6.97656273,24.8828123 6.9296875,24.9296875 C6.88281227,24.9765627 6.82291703,25 6.75,25 L4.25,25 C4.17708297,25 4.11718773,24.9765627 4.0703125,24.9296875 C4.02343727,24.8828123 4,24.822917 4,24.75 L4,24.25 C4,24.177083 4.02343727,24.1171877 4.0703125,24.0703125 C4.11718773,24.0234373 4.17708297,24 4.25,24 L6,24 L6,21.25 C6,21.177083 6.02343727,21.1171877 6.0703125,21.0703125 C6.11718773,21.0234373 6.17708297,21 6.25,21 L6.75,21 C6.82291703,21 6.88281227,21.0234373 6.9296875,21.0703125 C6.97656273,21.1171877 7,21.177083 7,21.25 Z M9.6796875,26.1328125 C10.0598977,25.4817676 10.25,24.7708372 10.25,24 C10.25,23.2291628 10.0598977,22.5182324 9.6796875,21.8671875 C9.29947727,21.2161426 8.78385742,20.7005227 8.1328125,20.3203125 C7.48176758,19.9401023 6.77083719,19.75 6,19.75 C5.22916281,19.75 4.51823242,19.9401023 3.8671875,20.3203125 C3.21614258,20.7005227 2.70052273,21.2161426 2.3203125,21.8671875 C1.94010227,22.5182324 1.75,23.2291628 1.75,24 C1.75,24.7708372 1.94010227,25.4817676 2.3203125,26.1328125 C2.70052273,26.7838574 3.21614258,27.2994773 3.8671875,27.6796875 C4.51823242,28.0598977 5.22916281,28.25 6,28.25 C6.77083719,28.25 7.48176758,28.0598977 8.1328125,27.6796875 C8.78385742,27.2994773 9.29947727,26.7838574 9.6796875,26.1328125 Z M11.1953125,20.9921875 C11.7317735,21.9088588 12,22.9114529 12,24 C12,25.0885471 11.7317735,26.0924433 11.1953125,27.0117188 C10.6588515,27.9309942 9.93099418,28.6588515 9.01171875,29.1953125 C8.09244332,29.7317735 7.08854711,30 6,30 C4.91145289,30 3.90755668,29.7317735 2.98828125,29.1953125 C2.06900582,28.6588515 1.34114852,27.9309942 0.8046875,27.0117188 C0.268226484,26.0924433 0,25.0885471 0,24 C0,22.9114529 0.268226484,21.9075567 0.8046875,20.9882812 C1.34114852,20.0690058 2.06900582,19.3411485 2.98828125,18.8046875 C3.90755668,18.2682265 4.91145289,18 6,18 C7.08854711,18 8.09244332,18.2682265 9.01171875,18.8046875 C9.93099418,19.3411485 10.6588515,20.0703079 11.1953125,20.9921875 Z" id="Clock-Icon" fill="#CCCCCC"></path>
        <g id="Icon-Play" transform="translate(0.000000, 254.000000)">
            <circle id="Oval" fill-opacity="0.75" fill="#000000" cx="32" cy="32" r="32"></circle>
            <polygon id="" fill="#FFFFFF" points="23.1328125 18.3671875 47 33.5 23.1328125 48.6328125"></polygon>
        </g>
        <path d="M276.389156,163.002348 C276.568576,162.986607 276.745491,163.050633 276.86709,163.175315 C276.988689,163.299997 277.040907,163.470912 277.008156,163.637041 L277.008156,177.561834 C277.027742,177.680354 276.986747,177.80061 276.897476,177.886515 C276.808204,177.97242 276.681045,178.013976 276.554156,177.998712 C276.412023,177.996809 276.277186,177.939381 276.182156,177.840273 L272.838156,174.587124 C272.750822,174.505823 272.631096,174.462626 272.508156,174.46806 C272.39823,174.46779 272.293286,174.511025 272.219156,174.587124 L268.792156,177.879649 C268.704822,177.96095 268.585096,178.004147 268.462156,177.998712 C268.335592,178.013328 268.209036,177.971486 268.120251,177.885671 C268.031465,177.799855 267.990714,177.679988 268.010156,177.561834 L268.010156,163.638916 C267.976382,163.472785 268.027879,163.301433 268.149196,163.176268 C268.270513,163.051104 268.447536,162.986689 268.627156,163.002348 L276.389156,163.002348 Z" id="Bookmark" fill="#3B5999"></path>
        <path d="M250.389156,162.502505 C250.568576,162.485714 250.745491,162.554009 250.86709,162.687002 C250.988689,162.819994 251.040907,163.002302 251.008156,163.179505 L251.008156,178.032505 C251.027742,178.158925 250.986747,178.287198 250.897476,178.378829 C250.808204,178.47046 250.681045,178.514786 250.554156,178.498505 C250.412023,178.496476 250.277186,178.435219 250.182156,178.329505 L246.838156,174.859505 C246.750822,174.772785 246.631096,174.726708 246.508156,174.732505 C246.39823,174.732217 246.293286,174.778334 246.219156,174.859505 L242.792156,178.371505 C242.704822,178.458225 242.585096,178.504302 242.462156,178.498505 C242.335592,178.514095 242.209036,178.469464 242.120251,178.377929 C242.031465,178.286393 241.990714,178.158535 242.010156,178.032505 L242.010156,163.181505 C241.976382,163.0043 242.027879,162.821526 242.149196,162.688018 C242.270513,162.55451 242.447536,162.485801 242.627156,162.502505 L250.389156,162.502505 Z" id="Bookmark" fill="#CCCCCC"></path>
        <polygon id="Comments" fill="#CCCCCC" points="290 162.500909 290 173.046909 292.64 173.046909 292.64 178.500909 298.724 173.042909 306 173.042909 306 162.500909"></polygon>
        <polygon id="Comments" fill="#9F224E" points="316 162.500909 316 173.046909 318.64 173.046909 318.64 178.500909 324.724 173.042909 332 173.042909 332 162.500909"></polygon>
        <path d="M166.066406,178.999979 L166.066406,170.949216 L163.359375,170.949216 L163.359375,167.750005 L166.066406,167.750005 L166.066406,165.218761 C166.066406,163.882827 166.441406,162.84572 167.191406,162.107441 C167.941406,161.369161 168.9375,161.000021 170.179688,161.000021 C171.1875,161.000021 172.007812,161.046896 172.640625,161.140646 L172.640625,163.988296 L170.953125,163.988296 C170.320312,163.988296 169.886719,164.12892 169.652344,164.41017 C169.464844,164.644544 169.371094,165.019543 169.371094,165.535167 L169.371094,167.750005 L172.359375,167.750005 L171.9375,170.949216 L169.371094,170.949216 L169.371094,178.999979 L166.066406,178.999979 Z" id="Facebook" fill="#3B5999"></path>
        <path d="M196.11325,169.015627 C196.183562,169.414064 196.218718,169.789063 196.218718,170.140625 C196.218718,171.429684 195.949188,172.57226 195.410127,173.568351 C194.871066,174.564442 194.109349,175.343737 193.124976,175.906236 C192.140603,176.468735 191.015606,176.749984 189.749984,176.749984 C188.531237,176.749984 187.40038,176.445297 186.357414,175.835924 C185.314447,175.22655 184.494137,174.406239 183.896482,173.374992 C183.298827,172.343745 183,171.218747 183,170 C183,168.781253 183.298827,167.656255 183.896482,166.625008 C184.494137,165.593761 185.314447,164.77345 186.357414,164.164076 C187.40038,163.554703 188.531237,163.250016 189.749984,163.250016 C191.507792,163.250016 193.007789,163.835952 194.249973,165.007824 L192.421853,166.765633 C191.718729,166.085947 190.828107,165.746104 189.749984,165.746104 C188.999986,165.746104 188.302722,165.933603 187.658192,166.308603 C187.013662,166.683602 186.503898,167.199225 186.128899,167.855474 C185.7539,168.511722 185.5664,169.226564 185.5664,170 C185.5664,170.773436 185.7539,171.488278 186.128899,172.144526 C186.503898,172.800775 187.013662,173.316398 187.658192,173.691397 C188.302722,174.066397 188.999986,174.253896 189.749984,174.253896 C190.570294,174.253896 191.285137,174.078115 191.89451,173.726554 C192.386696,173.445304 192.785133,173.046868 193.08982,172.531244 C193.347631,172.132808 193.511694,171.74609 193.582006,171.37109 L189.749984,171.37109 L189.749984,169.015627 L196.11325,169.015627 Z M202.617141,169.261721 L204.585886,169.261721 L204.585886,171.230466 L202.617141,171.230466 L202.617141,173.199211 L200.648395,173.199211 L200.648395,171.230466 L198.714806,171.230466 L198.714806,169.261721 L200.648395,169.261721 L200.648395,167.292975 L202.617141,167.292975 L202.617141,169.261721 Z" id="Google-Plus" fill="#DD4B39"></path>
        <path d="M227.136719,166.844668 C227.160156,166.938418 227.171875,167.090761 227.171875,167.301698 C227.171875,168.989194 226.761719,170.618096 225.941406,172.188405 C225.097656,173.852463 223.914062,175.176679 222.390625,176.161052 C220.726563,177.262612 218.816406,177.813392 216.660156,177.813392 C214.597656,177.813392 212.710938,177.262612 211,176.161052 C211.257812,176.18449 211.550781,176.196208 211.878906,176.196208 C213.589844,176.196208 215.125,175.668866 216.484375,174.614181 C215.664063,174.614181 214.94336,174.373947 214.322266,173.893479 C213.701172,173.413011 213.273438,172.809498 213.039062,172.082937 C213.273438,172.106374 213.496094,172.118093 213.707031,172.118093 C214.035156,172.118093 214.363281,172.082937 214.691406,172.012624 C213.847656,171.825125 213.144531,171.391532 212.582031,170.711846 C212.019531,170.03216 211.738281,169.258725 211.738281,168.391539 L211.738281,168.321227 C212.253906,168.625914 212.804687,168.789976 213.390625,168.813413 C212.898438,168.461851 212.5,168.01654 212.195312,167.477479 C211.890625,166.938418 211.738281,166.346622 211.738281,165.702092 C211.738281,165.057563 211.914062,164.44233 212.265625,163.856394 C213.179688,165.004829 214.298828,165.918889 215.623047,166.598575 C216.947266,167.27826 218.359375,167.65326 219.859375,167.723572 C219.8125,167.442323 219.789062,167.161073 219.789062,166.879824 C219.789062,166.223575 219.953125,165.608342 220.28125,165.034125 C220.609375,164.459908 221.054688,164.008737 221.617188,163.680613 C222.179688,163.352489 222.789062,163.188427 223.445312,163.188427 C223.984375,163.188427 224.482422,163.293895 224.939453,163.504832 C225.396484,163.715769 225.800781,163.997018 226.152344,164.34858 C226.996094,164.184518 227.78125,163.89155 228.507812,163.469676 C228.226562,164.336862 227.6875,165.016547 226.890625,165.508734 C227.59375,165.414984 228.296875,165.215766 229,164.911079 C228.484375,165.661077 227.863281,166.305607 227.136719,166.844668 Z" id="Twitter" fill="#55ACEE"></path>
        <g id="Icons/Circle/Play16" transform="translate(0.000000, 84.000000)">
            <g id="Icon-Play">
                <circle id="Oval" fill-opacity="0.75" fill="#000000" cx="8" cy="8" r="8"></circle>
                <polygon id="" fill="#FFFFFF" points="5.53320312 4.34179688 11.5 8.125 5.53320312 11.9082031"></polygon>
            </g>
        </g>
        <path d="M29.647194,53.6195964 L16.3465065,53.6195964 C16.3041794,53.620236 16.2620103,53.6249402 16.2205757,53.6336449 C16.1666999,53.6473305 16.1180332,53.6766479 16.0806527,53.7179361 C16.0408274,53.7525062 16.0137249,53.7995078 16.003695,53.8513971 C16.0001632,53.8961256 15.9991621,53.9410193 16.0006966,53.9858616 L16.0006966,62.6347382 C16.0006412,62.6816558 16.0029763,62.7285455 16.0076928,62.7752235 C16.0162156,62.8296391 16.0434428,62.8793421 16.0846505,62.9157088 C16.12494,62.9501507 16.1729566,62.9742554 16.2245736,62.9859515 C16.2659922,62.9947557 16.308171,62.999461 16.3505043,63 L29.647194,63 C29.6895265,62.9994482 29.731704,62.994743 29.7731247,62.9859515 C29.8247148,62.9741799 29.8727142,62.9500838 29.9130478,62.9157088 C29.9552346,62.8797024 29.983525,62.8299953 29.9930038,62.7752235 C29.9930038,62.7280606 30,62.6819012 30,62.6347382 L30,53.9045808 C30,53.8574179 30,53.810255 29.9930038,53.7630921 C29.984163,53.7087862 29.9569912,53.6591845 29.9160462,53.6226068 C29.8756263,53.5883631 29.8276603,53.5642838 29.7761231,53.5523642 C29.7346875,53.5436655 29.6925191,53.5389613 29.6501923,53.5383156 L29.6501923,53.6226068 L29.647194,53.6195964 Z M20.4862305,52.0000017 L17.7877142,52.0000017 C17.737109,52.0013497 17.6881883,52.0185408 17.6477911,52.0491715 C17.6117305,52.077967 17.567823,52.0951108 17.5218603,52.0983414 C17.4795959,52.1289342 17.4497774,52.1738416 17.4379065,52.2247781 C17.4286406,52.2710289 17.4239537,52.3180864 17.4239142,52.3652634 L17.4239142,53.2683832 L20.749086,53.2683832 L20.749086,52.0983414 C20.7134262,52.0584039 20.6674003,52.0292181 20.6161591,52.0140502 C20.5724781,52.0046076 20.5279141,51.9998978 20.4832322,52.0000017 L20.4862305,52.0000017 Z M22.9968502,62.0998907 C22.7449367,62.1019175 22.4934638,62.0783837 22.2462629,62.029648 C22.0144614,61.9809157 21.786873,61.9138076 21.5656371,61.8289547 C21.3470065,61.7385527 21.1397011,61.6226958 20.9479767,61.4837623 C20.7507603,61.3386247 20.5634441,61.1803921 20.3872849,61.0101262 C20.2164117,60.8399972 20.0593326,60.6564493 19.9175432,60.4612301 C19.7802413,60.2704023 19.6692948,60.0617949 19.5877245,59.8410879 C19.496336,59.6189254 19.4293111,59.3874331 19.3878344,59.150703 C19.3448117,58.9042137 19.32374,58.654367 19.324869,58.404124 C19.3250212,58.1764853 19.3508381,57.9495954 19.4018267,57.7277877 C19.4582568,57.4896508 19.5506062,57.2615721 19.6756762,57.0514514 C19.7628615,56.8365622 19.870995,56.6308545 19.9984987,56.43733 C20.1244295,56.2493473 20.2530254,56.061699 20.3842866,55.8743853 C20.5606374,55.7049523 20.7479423,55.5473997 20.9449783,55.4027561 C21.1351008,55.2649964 21.3428602,55.1536111 21.5626388,55.0716122 C21.7817502,54.9805752 22.0099196,54.9132959 22.2432646,54.870919 C22.491875,54.8252466 22.7441125,54.802407 22.9968502,54.8026832 C23.2481418,54.8011837 23.4991466,54.8199757 23.7474376,54.8588774 L24.4280634,54.9712656 C24.646567,55.0619318 24.8538426,55.1777721 25.0457238,55.316458 C25.2427009,55.4611771 25.430001,55.6187257 25.6064155,55.7880872 C25.7770832,55.9584083 25.9341478,56.1419393 26.0761573,56.3369833 C26.2133347,56.5278891 26.3242719,56.736479 26.4059759,56.9571255 C26.4972601,57.1793247 26.5642817,57.4108055 26.6058661,57.6475104 C26.6493225,57.8986709 26.6703943,58.1532207 26.6688314,58.4081379 C26.6700296,58.6583837 26.6489573,58.9082365 26.6058661,59.1547169 C26.5643124,59.3914289 26.4972898,59.622913 26.4059759,59.8451017 C26.3243164,60.0657684 26.2133761,60.2743641 26.0761573,60.465244 C25.9342488,60.6603684 25.7771776,60.8439071 25.6064155,61.0141401 C25.4301293,61.1836453 25.2428194,61.3412021 25.0457238,61.4857693 C24.8539598,61.6246403 24.646662,61.7404931 24.4280634,61.8309617 C24.2068154,61.9157787 23.9792299,61.9828859 23.7474376,62.031655 C23.5002328,62.0803636 23.2487626,62.103897 22.9968502,62.1018976 L22.9968502,62.0998907 Z M22.9968502,56.0570162 C22.8338975,56.0553267 22.6713794,56.074206 22.5131162,56.1132103 C22.3678627,56.1506731 22.2299385,56.1928187 22.0993437,56.2396471 L21.7065596,56.5216211 C21.5757926,56.6152837 21.4658572,56.7352291 21.3837371,56.8738378 C21.246858,56.9552717 21.129484,57.0659232 21.0399261,57.1979575 C20.9569826,57.3204126 20.8898183,57.4529208 20.840036,57.5923197 C20.8027232,57.7261153 20.7654104,57.8645936 20.7280976,58.0077548 C20.689218,58.1666482 20.6704138,58.3298234 20.6721283,58.4934325 C20.6745681,58.6452036 20.6933334,58.7962657 20.7280976,58.9439889 C20.7654104,59.1132403 20.8027232,59.2634257 20.840036,59.3945453 C20.9333181,59.5283409 21.0246012,59.659795 21.1138855,59.7889076 C21.1918479,59.9076161 21.283796,60.016443 21.3877349,60.1130273 C21.4687375,60.2505358 21.578966,60.3684025 21.7105574,60.4582197 C21.8324619,60.5415994 21.9644533,60.6090404 22.1033415,60.658913 C22.2366015,60.6963757 22.3745257,60.7338385 22.517114,60.7713012 C22.6753583,60.8104107 22.8378898,60.8292915 23.000848,60.8274953 C23.152015,60.8250929 23.3024776,60.8062515 23.4496013,60.7713012 C23.6181753,60.7338385 23.7677597,60.6963757 23.8983546,60.658913 C24.0316147,60.5652561 24.1625427,60.4689233 24.2911387,60.3699147 C24.4185232,60.2752523 24.5278777,60.1583202 24.6139612,60.0247222 C24.7481322,59.9368363 24.864742,59.8245228 24.9577722,59.6935783 C25.0414745,59.5740945 25.1087128,59.4438031 25.1576623,59.3062403 L25.2696007,58.883781 C25.3087594,58.7273247 25.3275723,58.5664355 25.3255699,58.4051275 C25.3239402,58.2509841 25.3051674,58.0975058 25.2696007,57.9475468 C25.2322879,57.7836473 25.1949751,57.6358033 25.1576623,57.5040147 C25.0643802,57.3628604 24.9730971,57.2290649 24.8838128,57.1026282 C24.8021077,56.9846039 24.7104901,56.8738182 24.6099634,56.7714843 C24.5258714,56.6402366 24.4160305,56.5275644 24.2871409,56.4403404 C24.1650837,56.35722 24.0331261,56.2897961 23.8943568,56.2396471 C23.7610967,56.1928187 23.6231726,56.1506731 23.4805843,56.1132103 C23.3223211,56.074206 23.1598029,56.0553267 22.9968502,56.0570162 Z" id="_8" fill="#999999"></path>
        <path d="M14,61.1301668 L12.6880075,61.1301668 L11.3750151,59.8005655 L11.3750151,58.4699508 L12.6880075,57.1403496 L14,57.1403496 L14,61.1311802 L14,61.1301668 Z M8.02753839e-05,58.1233627 C-0.00442419359,57.6894146 0.180837013,57.2757019 0.506077374,56.9934043 C0.820212418,56.6931923 1.23629339,56.5269937 1.66807071,56.5292599 L9.01002861,56.5292599 C9.44178667,56.5270979 9.85783084,56.6932818 10.1720219,56.9934043 C10.4969929,57.2754733 10.6822269,57.6887543 10.678019,58.1223493 L10.678019,61.4058159 C10.6840588,61.8325961 10.512772,62.2422879 10.2060218,62.5347608 C9.88455233,62.8477785 9.45154423,63.0152614 9.00602864,62.9989052 L1.66807071,62.9989052 C1.23627412,63.0012758 0.820156264,62.8350625 0.506077374,62.5347608 C0.18137556,62.2529206 -0.00383123542,61.8400712 8.02753839e-05,61.4068293 L8.02753839e-05,58.1233627 Z M6.04304563,53.9531575 C6.03678624,53.4328111 6.2447918,52.933361 6.61704233,52.5749122 C7.42187616,51.8083626 8.67619209,51.8083626 9.48102591,52.5749122 C9.85225214,52.9348938 10.0622051,53.4329726 10.0622051,53.9536642 C10.0622051,54.4743557 9.85225214,54.9724345 9.48102591,55.3324161 C8.67619209,56.0989658 7.42187616,56.0989658 6.61704233,55.3324161 C6.24443273,54.9737983 6.03638468,54.473879 6.04304563,53.9531575 Z M0.700076262,53.9531575 C0.694277592,53.4314655 0.905110939,52.9313249 1.28107293,52.5749122 C2.08863549,51.8084398 3.34449391,51.8084398 4.15205647,52.5749122 C4.5232827,52.9348938 4.73323566,53.4329726 4.73323566,53.9536642 C4.73323566,54.4743557 4.5232827,54.9724345 4.15205647,55.3324161 C3.34449391,56.0988885 2.08863549,56.0988885 1.28107293,55.3324161 C0.904748717,54.9758382 0.69387152,54.4752257 0.700076262,53.9531575 Z" id="_7" fill="#999999"></path>
        <path d="M33.1069603,90.9967704 C31.1551183,92.3621752 29.6732384,93.4236206 28.6613203,94.1811067 C28.3213478,94.4395755 28.0460368,94.6411813 27.8353872,94.7859238 C27.5680314,94.9602999 27.2854909,95.1084443 26.9914555,95.2284225 C26.6817649,95.3700233 26.3480696,95.4469694 26.0095351,95.4548412 L25.9915365,95.4548412 C25.6529892,95.4470779 25.3192736,95.3701272 25.009616,95.2284225 C24.715484,95.1086667 24.4329238,94.9605119 24.1656844,94.7859238 C23.9550348,94.6411813 23.6797237,94.4395755 23.3397513,94.1811067 C22.5398161,93.5724987 21.0609358,92.5110533 18.9031106,90.9967704 C18.5714542,90.769467 18.2690593,90.4995338 18.0031835,90.1934492 L18.0031835,97.522592 C18.0059228,98.3369627 18.6434463,98.9965975 19.4310678,99 L32.5730035,99 C33.3602345,98.9960315 33.9971524,98.3365615 33.999888,97.522592 L33.999888,90.1934492 C33.7343262,90.4971172 33.4345494,90.766811 33.1069603,90.9967704 Z M33.5759223,86.436346 C33.3138366,86.1566651 32.9526351,85.9998087 32.5760033,86.0021183 L19.429068,86.0021183 C19.0223725,85.9782654 18.6291698,86.15695 18.3711537,86.4828704 C18.1168379,86.8260627 17.9860262,87.250102 18.0011836,87.6821658 C18.0293069,88.1459682 18.2015004,88.5879888 18.4921439,88.94246 C18.7805068,89.3555451 19.1336886,89.7158283 19.5370592,90.0083855 C19.737043,90.1558851 20.3469936,90.5945929 21.366911,91.3245089 C22.3868284,92.054425 23.166432,92.6158193 23.7057216,93.008692 L24.0856909,93.2899061 C24.2783419,93.4346486 24.4389956,93.5518212 24.5676518,93.6414237 C24.6963081,93.7310263 24.8509622,93.8309676 25.0316143,93.9412476 C25.1941583,94.042419 25.3663959,94.1259188 25.5455726,94.1904116 C25.6890224,94.242347 25.8395719,94.2702684 25.9915365,94.2731216 L26.0095351,94.2731216 C26.1614997,94.2702684 26.3120492,94.242347 26.4554989,94.1904116 C26.6346757,94.1259188 26.8069133,94.042419 26.9694573,93.9412476 C27.150776,93.8309676 27.3054301,93.7310263 27.4334197,93.6414237 C27.5614094,93.5518212 27.722063,93.4346486 27.9153807,93.2899061 L28.2953499,93.008692 C28.842639,92.6151301 30.2351928,91.6157172 32.4730116,90.0104533 C32.900842,89.7042087 33.2700517,89.3186049 33.5619234,88.8731903 C33.8426283,88.4660378 33.9955195,87.9795168 33.999888,87.4795263 C34.0047502,87.0860236 33.8511732,86.7081428 33.5759223,86.436346 Z" id="_5" fill="#CCCCCC"></path>
        <polygon id="Arrow_Right" fill="#CCCCCC" points="39 84.95 40.2015292 84 50 92 40.2015292 100 39 99.05 47.594939 92"></polygon>
        <g id="Group" transform="translate(0.000000, 123.000000)" fill="#9B9B9B">
            <rect id="Rectangle" x="0" y="0" width="18" height="2"></rect>
            <rect id="Rectangle" x="0" y="5" width="18" height="2"></rect>
            <rect id="Rectangle" x="0" y="10" width="18" height="2"></rect>
        </g>
        <path d="M20,137 C20,136.900113 20.0056667,136.766931 20.017,136.600454 C20.0525447,136.330627 20.1158804,136.065187 20.206,135.808353 C20.2931316,135.490881 20.4581032,135.200105 20.686,134.962314 C21.0423788,134.679796 21.4459095,134.462366 21.878,134.320043 C22.4726667,134.086309 23.1443333,133.840255 23.893,133.581882 C24.4536403,133.398609 25.0032211,133.183162 25.539,132.936615 C25.9677384,132.73191 26.3251414,132.403444 26.565,131.993685 C26.8008731,131.601348 26.9266094,131.152799 26.929,130.69516 C26.8753369,130.278175 26.6746685,129.893938 26.363,129.611391 C25.9343835,129.100456 25.6172847,128.505762 25.432,127.865374 C25.181861,127.039905 25.0617594,126.180602 25.076,125.318266 C25.0649021,124.66121 25.1722803,124.007521 25.393,123.388458 C25.5712735,122.875353 25.8679372,122.411358 26.259,122.033996 C26.6201943,121.697491 27.0442871,121.435449 27.507,121.262872 C27.9867962,121.084735 28.4951511,120.995704 29.007,121.00017 C29.5149552,120.995564 30.0194008,121.084622 30.495,121.262872 C30.955152,121.43762 31.3772063,121.699452 31.738,122.033996 C32.1311602,122.410402 32.4293226,122.874597 32.608,123.388458 C32.8286563,124.007537 32.9360325,124.661214 32.925,125.318266 C32.9389967,126.180301 32.8202776,127.039364 32.573,127.865374 C32.3903951,128.505829 32.0748909,129.100728 31.647,129.611391 C31.3336972,129.893726 31.1303889,130.277592 31.073,130.69516 C31.0763555,131.153343 31.2038687,131.602067 31.442,131.993685 C31.6816535,132.407635 32.0400966,132.740271 32.471,132.948601 C33.007104,133.195186 33.5570199,133.410634 34.118,133.593868 C34.8666667,133.852907 35.5353333,134.098961 36.124,134.33203 C36.5529256,134.475314 36.9533368,134.692704 37.307,134.9743 C37.5293219,135.201498 37.6939155,135.478592 37.787,135.782383 C37.8888334,136.061558 37.9524093,136.353205 37.976,136.649398 L38,137 L20,137 Z" id="Icon_User" fill="#CCCCCC"></path>
        <path d="M69,86.5 L69,97.5 C69,97.9166665 68.8541665,98.2708335 68.5625,98.5625 C68.2708335,98.8541665 67.9166665,99 67.5,99 L64.84375,99 L64.84375,93.46875 L66.71875,93.46875 L67,91.34375 L64.84375,91.34375 L64.84375,90 C64.84375,89.6666665 64.90625,89.4166665 65.03125,89.25 C65.1979165,89.0625 65.4791665,88.96875 65.875,88.96875 L67,88.96875 L67,87.09375 C66.5625,87.03125 66.0208335,87 65.375,87 C64.5416665,87 63.8802085,87.2447915 63.390625,87.734375 C62.9010415,88.2239585 62.65625,88.90625 62.65625,89.78125 L62.65625,91.34375 L60.75,91.34375 L60.75,93.46875 L62.65625,93.46875 L62.65625,99 L56.5,99 C56.0833335,99 55.7291665,98.8541665 55.4375,98.5625 C55.1458335,98.2708335 55,97.9166665 55,97.5 L55,86.5 C55,86.0833335 55.1458335,85.7291665 55.4375,85.4375 C55.7291665,85.1458335 56.0833335,85 56.5,85 L67.5,85 C67.9166665,85 68.2708335,85.1458335 68.5625,85.4375 C68.8541665,85.7291665 69,86.0833335 69,86.5 Z" id="" fill="#004F8B"></path>
        <path d="M87.6776557,88.71875 C87.814408,89.234375 87.9120879,90.017361 87.970696,91.0677083 L88,92.5 L87.970696,93.9322917 C87.9120879,95.001736 87.814408,95.7942708 87.6776557,96.3098958 C87.5799757,96.6345485 87.4041516,96.9210068 87.1501832,97.1692708 C86.8962147,97.4175349 86.5934066,97.5894099 86.2417582,97.6848958 C85.7338219,97.8185765 84.5421245,97.9140625 82.6666667,97.9713542 L80,98 L77.3333333,97.9713542 C75.4578755,97.9140625 74.2661781,97.8185765 73.7582418,97.6848958 C73.4065934,97.5894099 73.1037853,97.4175349 72.8498168,97.1692708 C72.5958484,96.9210068 72.4200243,96.6345485 72.3223443,96.3098958 C72.185592,95.7942708 72.0879121,95.001736 72.029304,93.9322917 L72,92.5 C72,92.079861 72.0097679,91.6024307 72.029304,91.0677083 C72.0879121,90.017361 72.185592,89.234375 72.3223443,88.71875 C72.4200243,88.375 72.5958484,88.0789932 72.8498168,87.8307292 C73.1037853,87.5824651 73.4065934,87.4105901 73.7582418,87.3151042 C74.2661781,87.1814235 75.4578755,87.0859375 77.3333333,87.0286458 L80,87 L82.6666667,87.0286458 C84.5421245,87.0859375 85.7338219,87.1814235 86.2417582,87.3151042 C86.5934066,87.4105901 86.8962147,87.5824651 87.1501832,87.8307292 C87.4041516,88.0789932 87.5799757,88.375 87.6776557,88.71875 Z M78.3589744,94.8489583 L82.5494505,92.5 L78.3589744,90.1796875 L78.3589744,94.8489583 Z" id="" fill="#CD201F"></path>
        <path d="M72.8813904,131.338485 L78,136.454112 L76.4521181,138 L71.3375082,132.885372 L71.3375082,132.064432 L71.0475303,131.775453 C69.8485564,132.828086 68.3000928,133.395704 66.7048615,133.367337 C64.9232852,133.401659 63.2055238,132.704144 61.952224,131.437477 C60.6715391,130.201068 59.9645075,128.486573 60.0013728,126.706822 C59.9925551,124.926762 60.6953671,123.216972 61.9535071,121.957701 C63.2116472,120.69843 64.9208009,119.994085 66.7008618,120.001309 C68.480459,119.965297 70.1943693,120.673479 71.4295012,121.955167 C72.6964848,123.208743 73.3943348,124.926812 73.3603539,126.708821 C73.3885414,128.304207 72.8205511,129.852726 71.7674754,131.051506 L72.0574533,131.340484 L72.8773907,131.340484 L72.8813904,131.338485 Z M66.7048615,131.338485 C68.9041804,131.329533 70.7914115,129.76939 71.2138325,127.610993 C71.6362535,125.452596 70.476407,123.296104 68.4427281,122.458704 C66.4090492,121.621304 64.0670184,122.335841 62.8471497,124.165876 C61.627281,125.995911 61.8687687,128.432588 63.4241117,129.987583 C64.2833884,130.870409 65.4690735,131.35923 66.7008618,131.338485 L66.7048615,131.338485 Z" id="Icon_Search" fill="#999999"></path>
        <polygon id="Rectangle_1_copy_2" fill="#999999" points="58 136.201798 56.2019978 138 48.9990011 130.798202 41.7980022 138 40 136.201798 47.2009989 129 40 121.798202 41.7980022 120 48.9990011 127.201798 56.2 120 57.9980022 121.798202 50.7970033 129"></polygon>
        <polygon id="Rectangle_1_copy_2-Copy" fill="#CCCCCC" points="94 62.6013986 92.6015538 64 86.9992231 58.3986014 81.3984462 64 80 62.6013986 85.6007769 57 80 51.3986014 81.3984462 50 86.9992231 55.6013986 92.6 50 93.9984462 51.3986014 88.3976693 57"></polygon>
        <path d="M56,24 C56,22.9193547 56.2701614,21.9193548 56.8104839,21 C57.3508063,20.0806452 58.0806452,19.3508063 59,18.8104839 C59.9193548,18.2701614 60.9193547,18 62,18 C63.0806453,18 64.0806452,18.2701614 65,18.8104839 C65.9193548,19.3508063 66.6491937,20.0806452 67.1895161,21 C67.7298386,21.9193548 68,22.9193547 68,24 C68,25.0806453 67.7298386,26.0806452 67.1895161,27 C66.6491937,27.9193548 65.9193548,28.6491937 65,29.1895161 C64.0806452,29.7298386 63.0806453,30 62,30 C60.9193547,30 59.9193548,29.7298386 59,29.1895161 C58.0806452,28.6491937 57.3508063,27.9193548 56.8104839,27 C56.2701614,26.0806452 56,25.0806453 56,24 Z M66.8387097,24 C66.8387097,23.1290323 66.6209677,22.3225808 66.1854839,21.5806452 C65.75,20.8387096 65.1612904,20.25 64.4193548,19.8145161 C63.6774192,19.3790323 62.8709677,19.1612903 62,19.1612903 C61.1290323,19.1612903 60.3225808,19.3790323 59.5806452,19.8145161 C58.8387096,20.25 58.25,20.8387096 57.8145161,21.5806452 C57.3790323,22.3225808 57.1612903,23.1290323 57.1612903,24 C57.1612903,24.8709677 57.3790323,25.6774192 57.8145161,26.4193548 C58.25,27.1612904 58.8387096,27.75 59.5806452,28.1854839 C60.3225808,28.6209677 61.1290323,28.8387097 62,28.8387097 C62.8709677,28.8387097 63.6774192,28.6209677 64.4193548,28.1854839 C65.1612904,27.75 65.75,27.1612904 66.1854839,26.4193548 C66.6209677,25.6774192 66.8387097,24.8709677 66.8387097,24 Z M65.0967742,24.483871 C65.0967742,24.564516 65.0685483,24.6330646 65.0120968,24.6895161 C64.9556453,24.7459676 64.8870967,24.7741935 64.8064516,24.7741935 L62,24.7741935 L62,26.3951613 C62,26.5241934 61.9395161,26.6129032 61.8185484,26.6612903 C61.6975806,26.7096774 61.5967741,26.6854839 61.516129,26.5887097 L59.1209677,24.1935484 C59.0564515,24.1451613 59.0241935,24.080645 59.0241935,24 C59.0241935,23.919355 59.0564515,23.8467743 59.1209677,23.7822581 L61.516129,21.3870968 C61.5967741,21.3064517 61.6975806,21.2903226 61.8185484,21.3387097 C61.9395161,21.3870968 62,21.4758066 62,21.6048387 L62,23.2258065 L64.8064516,23.2258065 C64.8870967,23.2258065 64.9556453,23.2540324 65.0120968,23.3104839 C65.0685483,23.3669354 65.0967742,23.435484 65.0967742,23.516129 L65.0967742,24.483871 Z" id="" fill="#004F8B"></path>
        <path d="M70,24 C70,22.9193547 70.2701614,21.9193548 70.8104839,21 C71.3508063,20.0806452 72.0806452,19.3508063 73,18.8104839 C73.9193548,18.2701614 74.9193547,18 76,18 C77.0806453,18 78.0806452,18.2701614 79,18.8104839 C79.9193548,19.3508063 80.6491937,20.0806452 81.1895161,21 C81.7298386,21.9193548 82,22.9193547 82,24 C82,25.0806453 81.7298386,26.0806452 81.1895161,27 C80.6491937,27.9193548 79.9193548,28.6491937 79,29.1895161 C78.0806452,29.7298386 77.0806453,30 76,30 C74.9193547,30 73.9193548,29.7298386 73,29.1895161 C72.0806452,28.6491937 71.3508063,27.9193548 70.8104839,27 C70.2701614,26.0806452 70,25.0806453 70,24 Z M80.8387097,24 C80.8387097,23.1290323 80.6209677,22.3225808 80.1854839,21.5806452 C79.75,20.8387096 79.1612904,20.25 78.4193548,19.8145161 C77.6774192,19.3790323 76.8709677,19.1612903 76,19.1612903 C75.1290323,19.1612903 74.3225808,19.3790323 73.5806452,19.8145161 C72.8387096,20.25 72.25,20.8387096 71.8145161,21.5806452 C71.3790323,22.3225808 71.1612903,23.1290323 71.1612903,24 C71.1612903,24.8709677 71.3790323,25.6774192 71.8145161,26.4193548 C72.25,27.1612904 72.8387096,27.75 73.5806452,28.1854839 C74.3225808,28.6209677 75.1290323,28.8387097 76,28.8387097 C76.8709677,28.8387097 77.6774192,28.6209677 78.4193548,28.1854839 C79.1612904,27.75 79.75,27.1612904 80.1854839,26.4193548 C80.6209677,25.6774192 80.8387097,24.8709677 80.8387097,24 Z M79.0967742,24.483871 C79.0967742,24.564516 79.0685483,24.6330646 79.0120968,24.6895161 C78.9556453,24.7459676 78.8870967,24.7741935 78.8064516,24.7741935 L76,24.7741935 L76,26.3951613 C76,26.5241934 75.9395161,26.6129032 75.8185484,26.6612903 C75.6975806,26.7096774 75.5967741,26.6854839 75.516129,26.5887097 L73.1209677,24.1935484 C73.0564515,24.1451613 73.0241935,24.080645 73.0241935,24 C73.0241935,23.919355 73.0564515,23.8467743 73.1209677,23.7822581 L75.516129,21.3870968 C75.5967741,21.3064517 75.6975806,21.2903226 75.8185484,21.3387097 C75.9395161,21.3870968 76,21.4758066 76,21.6048387 L76,23.2258065 L78.8064516,23.2258065 C78.8870967,23.2258065 78.9556453,23.2540324 79.0120968,23.3104839 C79.0685483,23.3669354 79.0967742,23.435484 79.0967742,23.516129 L79.0967742,24.483871 Z" id="-copy" fill="#9B9B9B"></path>
        <polygon id="Rectangle_1_copy_2-Copy-2" fill="#CCCCCC" points="54 28.8011988 52.8013319 30 47.9993341 25.1988012 43.1986681 30 42 28.8011988 46.8006659 24 42 19.1988012 43.1986681 18 47.9993341 22.8011988 52.8 18 53.9986681 19.1988012 49.1980022 24"></polygon>
        <path d="M16.3881354,158 C16.5390298,159.389755 16.1353105,160.782914 15.265164,161.875161 C14.4775848,163.035122 13.1739461,163.735412 11.7745782,163.75024 L11.712745,163.75024 C11.5440951,162.397592 11.9513766,161.036269 12.834719,160.000083 C13.6820212,158.857446 14.9740775,158.130197 16.3881354,158 Z M16.8867905,163.625234 C18.6710223,163.666141 20.3235853,164.575842 21.3158452,166.063336 C20.1202558,166.706001 19.2407057,167.813241 18.8834055,169.125464 C18.5049331,170.411339 18.6161771,171.792332 19.1955636,173.000625 C19.7417214,174.217193 20.7520977,175.162961 22,175.625734 C21.5865164,176.625982 21.0859247,177.587742 20.5040347,178.499854 C19.0074044,180.833285 17.6557167,182 16.4489713,182 L16.387138,182 C15.7665221,181.957117 15.1612935,181.78693 14.6089339,181.499979 C13.9359785,181.179372 13.2017349,181.008785 12.4567384,180.999958 C11.6910178,181.004 10.9352896,181.174598 10.2417124,181.499979 C9.68975115,181.787038 9.08482479,181.957236 8.46450561,182 L8.40167506,182 C7.15437241,182 5.82462544,180.895954 4.41243416,178.687862 C3.11519409,176.701531 2.32285357,174.426841 2.10465829,172.062586 C1.80385445,170.189105 2.15606152,168.268911 3.10196852,166.625359 C4.0526444,164.80633 5.91998742,163.654993 7.96784512,163.625234 C8.7695463,163.661661 9.55974363,163.830608 10.3065376,164.125255 C10.9749504,164.398644 11.68133,164.56729 12.4008891,164.625276 C13.0873228,164.561699 13.7599958,164.39307 14.3955095,164.125255 C15.1909111,163.815578 16.0337989,163.646404 16.8867905,163.625234 Z" id="Icon_Apple" fill="#000000" fill-rule="nonzero"></path>
        <g id="google_icon" transform="translate(27.000000, 157.000000)">
            <path d="M16.02,9.008 L1.728,1.087 L1.718,1.094 C1.34192247,0.922961532 0.904702211,0.954748512 0.557318466,1.17838438 C0.209934721,1.40202025 -3.07449082e-06,1.78685539 0,2.2 C0,2.212 0,2.224 0,2.237 L0,11.629 L11.214,19.673 L16.02,9.008 Z" id="Polygon_1_copy" fill="#00F076"></path>
            <path d="M0.362,1.336 L16.285,16.893 L2,24.726 C1.63844032,25.0298718 1.13371759,25.0971155 0.705212442,24.8985034 C0.276707293,24.6998912 0.00180756427,24.2712925 -6.01755457e-15,23.799 C-6.01755457e-15,23.789 -6.01755457e-15,23.78 -6.01755457e-15,23.77 L-6.01755457e-15,2.238 C-6.01755457e-15,2.225 -6.01755457e-15,2.213 -6.01755457e-15,2.201 C-0.000615035497,1.87570818 0.129878951,1.56389244 0.362,1.336 Z" id="Icon_VnExpress" fill="#00D5FF"></path>
            <path d="M0.362,1.336 L14,14.659 L3,23 C2.48139226,23.7350467 1.88345909,24.4107816 1.217,25.015 C0.894496715,25.0152653 0.585096937,24.8874058 0.356865141,24.6595491 C0.128633344,24.4316923 0.000265107464,24.1225033 -3.44397328e-14,23.8 C-3.44397328e-14,23.79 -3.44397328e-14,23.781 -3.44397328e-14,23.771 L-3.44397328e-14,2.238 C-3.44397328e-14,2.225 -3.44397328e-14,2.213 -3.44397328e-14,2.201 C-0.000615035497,1.87570818 0.129878951,1.56389244 0.362,1.336 Z" id="Icon_VnExpress_copy_2" fill="#00D5FF"></path>
            <path d="M15.165,17.507 L21.229,14.182 C21.6820434,14.0042466 21.9851497,13.5731216 21.9990923,13.0866545 C22.0130349,12.6001874 21.7351189,12.1524097 21.293,11.949 L21.293,11.93 L16.193,9.104 L11.83,13.37 L15.165,17.507 Z" id="Icon_Google_24_copy_2" fill="#FFD800"></path>
            <path d="M12.245,12.965 L16.262,16.906 L2,24.726 C1.50350415,25.1488166 0.761866206,25.1046977 0.319,24.626 L12.245,12.965 Z" id="Icon_Google_24_copy" fill="#FC3944"></path>
        </g>
        <g id="Icons/Circle/Play" transform="translate(0.000000, 202.000000)">
            <g id="Icon-Play">
                <circle id="Oval" fill-opacity="0.75" fill="#000000" cx="16" cy="16" r="16"></circle>
                <polygon id="" fill="#FFFFFF" points="11.0664062 8.68359375 23 16.25 11.0664062 23.8164062"></polygon>
            </g>
        </g>
        <path d="M14,18 L26,18 L26,30 L14,30 L14,18 Z M23.7451144,23.6301988 L20.3687991,23.6301988 L20.3687991,20.2548856 L19.6301988,20.2548856 L19.6301988,23.6312009 L16.2548856,23.6312009 L16.2548856,24.3687991 L19.6301988,24.3687991 L19.6301988,27.7451144 L20.3687991,27.7451144 L20.3687991,24.3687991 L23.7441122,24.3687991 L23.7441122,23.6312009 L23.7451144,23.6301988 Z" id="_10" fill="#CCCCCC"></path>
        <path d="M28,18 L40,18 L40,30 L28,30 L28,18 Z M37.7451144,23.6301988 L30.2548856,23.6301988 L30.2548856,24.3687991 L37.7451144,24.3687991 L37.7451144,23.6312009 L37.7451144,23.6301988 Z" id="_11" fill="#CCCCCC"></path>
        <g id="like_n_dislike" transform="translate(33.000000, 50.000000)" fill="#9F224E">
            <path d="M0.014,12.1834957 L2.5626181,12.1834957 L2.5626181,6.30545744 L0.014,6.30545744 L0.014,12.1824947 L0.014,12.1834957 Z M3.21729062,6.30645847 C4.16625178,6.07005245 4.98739977,5.47660271 5.50964548,4.6497566 C5.60603081,4.37966967 5.65381719,4.09464589 5.65079047,3.80789178 C5.6587987,3.45452878 5.65079047,3.10717195 5.6307699,2.75981513 C5.61074934,2.4124583 5.56970718,1.99202641 5.50964548,1.49151225 C5.71034003,1.14564214 6.09762145,0.95239501 6.49465734,1.00000734 C6.88999255,1.03759261 7.25223837,1.23682782 7.49568566,1.55057292 C7.75180084,1.86231896 7.89001092,2.25426857 7.88608671,2.65771024 C7.90841703,2.8788893 7.89112897,3.10227816 7.83503426,3.3173879 C7.76706224,3.44560657 7.72746044,3.58694403 7.71891498,3.73181363 C7.66991174,4.0632704 7.64448852,4.39778646 7.64283683,4.73284195 L11.2415336,4.73284195 C11.6191706,5.05383833 11.88027,5.49052879 11.9842967,5.97511809 C12.056824,6.3276139 11.9954406,6.69448668 11.8121198,7.0041752 C11.6844055,7.12688408 11.6009727,7.28846912 11.5748761,7.4636472 C11.5849062,7.57863964 11.6268573,7.68854442 11.6960005,7.78097318 C11.7784488,7.91030105 11.8209289,8.0610706 11.8181259,8.21441844 C11.8406955,8.47316488 11.7625213,8.73063765 11.5999018,8.93315678 C11.4904819,9.03548428 11.3997026,9.15607163 11.3316262,9.28952286 C11.2949804,9.40543913 11.3298719,9.53206801 11.4207177,9.61285501 C11.5278239,9.75715748 11.5822335,9.93381189 11.5748761,10.1133692 C11.6015434,10.3866776 11.4762612,10.6526139 11.2485408,10.8060808 C11.0834704,10.8718163 10.9611452,11.014342 10.9212046,11.1874726 C10.9328709,11.2728396 10.9674659,11.353446 11.0213074,11.4207122 C11.0721831,11.5296489 11.0899356,11.6511314 11.0723599,11.770071 C10.986399,12.3037493 10.6520017,12.7648461 10.1714344,13.0123472 L5.33046141,13.0123472 C5.0122796,12.8120378 4.75857102,12.5242697 4.59971073,12.1834957 L3.2162896,12.1834957 L3.2162896,6.30545744 L3.21729062,6.30645847 Z" id="_copy_2-3"></path>
        </g>
        <g id="like_n_dislike-copy" transform="translate(49.000000, 50.000000)" fill="#999999">
            <path d="M0.014,12.1834957 L2.5626181,12.1834957 L2.5626181,6.30545744 L0.014,6.30545744 L0.014,12.1824947 L0.014,12.1834957 Z M3.21729062,6.30645847 C4.16625178,6.07005245 4.98739977,5.47660271 5.50964548,4.6497566 C5.60603081,4.37966967 5.65381719,4.09464589 5.65079047,3.80789178 C5.6587987,3.45452878 5.65079047,3.10717195 5.6307699,2.75981513 C5.61074934,2.4124583 5.56970718,1.99202641 5.50964548,1.49151225 C5.71034003,1.14564214 6.09762145,0.95239501 6.49465734,1.00000734 C6.88999255,1.03759261 7.25223837,1.23682782 7.49568566,1.55057292 C7.75180084,1.86231896 7.89001092,2.25426857 7.88608671,2.65771024 C7.90841703,2.8788893 7.89112897,3.10227816 7.83503426,3.3173879 C7.76706224,3.44560657 7.72746044,3.58694403 7.71891498,3.73181363 C7.66991174,4.0632704 7.64448852,4.39778646 7.64283683,4.73284195 L11.2415336,4.73284195 C11.6191706,5.05383833 11.88027,5.49052879 11.9842967,5.97511809 C12.056824,6.3276139 11.9954406,6.69448668 11.8121198,7.0041752 C11.6844055,7.12688408 11.6009727,7.28846912 11.5748761,7.4636472 C11.5849062,7.57863964 11.6268573,7.68854442 11.6960005,7.78097318 C11.7784488,7.91030105 11.8209289,8.0610706 11.8181259,8.21441844 C11.8406955,8.47316488 11.7625213,8.73063765 11.5999018,8.93315678 C11.4904819,9.03548428 11.3997026,9.15607163 11.3316262,9.28952286 C11.2949804,9.40543913 11.3298719,9.53206801 11.4207177,9.61285501 C11.5278239,9.75715748 11.5822335,9.93381189 11.5748761,10.1133692 C11.6015434,10.3866776 11.4762612,10.6526139 11.2485408,10.8060808 C11.0834704,10.8718163 10.9611452,11.014342 10.9212046,11.1874726 C10.9328709,11.2728396 10.9674659,11.353446 11.0213074,11.4207122 C11.0721831,11.5296489 11.0899356,11.6511314 11.0723599,11.770071 C10.986399,12.3037493 10.6520017,12.7648461 10.1714344,13.0123472 L5.33046141,13.0123472 C5.0122796,12.8120378 4.75857102,12.5242697 4.59971073,12.1834957 L3.2162896,12.1834957 L3.2162896,6.30545744 L3.21729062,6.30645847 Z" id="_copy_2-3"></path>
        </g>
        <path d="M114.540344,168.311683 C114.926406,167.697563 115.076419,166.964169 114.962509,166.247771 C114.888086,165.479534 114.567359,164.75593 114.048152,164.184858 C113.624858,163.667853 113.003666,163.352702 112.336484,163.316474 C111.733786,163.289166 111.165317,163.597087 110.858907,164.116828 C110.4886,164.719538 110.354934,165.438161 110.48376,166.13372 C110.58274,166.907013 110.909364,167.633423 111.422127,168.220643 C111.825951,168.755207 112.441462,169.088702 113.109785,169.135048 C113.705225,169.158286 114.261304,168.838232 114.540344,168.311683 Z M114.165197,172.437508 C113.770373,172.314403 113.35929,172.251338 112.945721,172.250425 C112.081419,172.237238 111.23544,172.500087 110.530779,173.000757 C109.908245,173.363299 109.511161,174.015981 109.475367,174.735524 C109.472994,175.450335 109.802227,176.125834 110.366715,176.564333 C111.001487,177.07861 111.801226,177.345203 112.617593,177.314665 C114.962509,177.314665 116.134966,176.486299 116.134966,174.829566 C116.131106,174.6536 116.099366,174.47936 116.040929,174.313338 C116.03957,174.215363 116.015242,174.119075 115.969902,174.032213 C115.912343,173.923995 115.841794,173.823206 115.75982,173.732081 C115.665783,173.622032 115.587753,173.531992 115.524728,173.473966 C115.436583,173.389181 115.342654,173.310624 115.243618,173.238862 C115.118569,173.144821 115.01653,173.066786 114.938499,173.004759 C114.860469,172.942731 114.727417,172.84869 114.538343,172.723635 C114.405798,172.639406 114.280933,172.54366 114.165197,172.437508 Z M124.997425,168.545787 L121.996254,168.545787 L121.996254,171.500094 L120.495668,171.500094 L120.495668,168.545787 L117.494497,168.545787 L117.494497,166.998103 L120.495668,166.998103 L120.495668,163.996775 L121.996254,163.996775 L121.996254,166.998103 L124.997425,166.998103 L124.997425,168.545787 Z M112.664612,178.064997 C111.453899,178.102493 110.253026,177.83665 109.171248,177.291655 C108.335682,176.951028 107.776328,176.153417 107.74069,175.251753 C107.790549,174.284724 108.306314,173.401948 109.12423,172.883705 C110.074995,172.171274 111.237817,171.799504 112.425518,171.828239 L113.269848,171.828239 C112.875652,171.482888 112.638769,170.992125 112.613592,170.468637 C112.6212,170.157338 112.701357,169.85211 112.847683,169.577243 C112.709388,169.609975 112.567626,169.625765 112.425518,169.624264 C111.44967,169.658024 110.50194,169.294076 109.799493,168.615818 C109.125604,167.976116 108.751368,167.082768 108.768091,166.153729 C108.785267,165.180938 109.253193,164.271279 110.034585,163.69164 C110.844626,163.000811 111.877181,162.626286 112.94172,162.637174 L117.724587,162.637174 L116.646166,163.387506 L115.14558,163.387506 C115.634683,163.593192 116.03394,163.967271 116.271019,164.441972 C116.554681,164.967498 116.69996,165.556566 116.693184,166.153729 C116.676603,167.155644 116.168227,168.085282 115.333653,168.639829 C115.057761,168.853783 114.80616,169.097345 114.583361,169.36615 C114.449804,169.567091 114.383912,169.805438 114.395287,170.046451 C114.598427,170.685214 115.056875,171.211407 115.661781,171.500094 C116.190575,171.865191 116.637565,172.336394 116.974294,172.883705 C117.245094,173.428783 117.374118,174.033337 117.34944,174.641483 C117.327134,175.593462 116.85838,176.479508 116.083946,177.033541 C115.099149,177.765265 113.889746,178.130086 112.664612,178.064997 Z M124.481224,161.511676 C120.432389,157.465531 114.089468,156.842788 109.331106,160.02425 C104.572745,163.205711 102.72402,169.305425 104.915413,174.593463 C107.106806,179.881501 112.728072,182.885287 118.341851,181.768029 C123.955629,180.65077 127.998633,175.723594 127.998597,169.99943 C128.048309,166.805856 126.775267,163.733884 124.481224,161.511676 Z" id="Icon_Google_24" fill="#DA5542" opacity="0.75"></path>
        <path d="M135.592468,175.816303 C134.362947,175.821192 133.307816,176.693567 133.071555,177.900578 C132.835295,179.107589 133.483599,180.313612 134.62048,180.782002 C135.757362,181.250393 137.066698,180.850909 137.748739,179.827558 C138.430779,178.804206 138.295876,177.441542 137.426429,176.571887 C136.945706,176.077403 136.281885,175.803911 135.592468,175.816303 Z M144.0019,175.937197 C142.779726,173.319879 140.676372,171.21584 138.059906,169.993267 C136.75885,169.388995 135.360641,169.021249 133.930723,168.907241 L133.863246,168.907241 C133.388392,168.911614 133.004518,169.295613 133.000147,169.770622 L133.000147,171.595106 C132.996101,171.810125 133.075934,172.018266 133.22272,172.175395 C133.366392,172.335288 133.56715,172.432262 133.78167,172.44539 C137.898576,172.838883 141.157684,176.09863 141.551583,180.216826 C141.564506,180.43154 141.661043,180.632634 141.820483,180.776966 C141.977846,180.923343 142.185727,181.003129 142.400583,180.999611 L144.221452,180.999611 C144.465305,181.007232 144.699172,180.902514 144.855936,180.715511 C145.023443,180.543943 145.107367,180.307556 145.085559,180.068731 C144.971748,178.63823 144.604829,177.239323 144.0019,175.937197 Z M150.375948,173.326905 C148.431503,169.01596 144.980098,165.563789 140.670355,163.619159 C138.536805,162.661128 136.242526,162.111976 133.906553,162.000194 L133.866268,162.000194 C133.643133,161.995304 133.427968,162.083222 133.272068,162.242988 C133.094883,162.399735 132.996383,162.627062 133.003168,162.863574 L133.003168,164.792833 C133.000934,165.011797 133.085699,165.22269 133.238833,165.379166 C133.386042,165.541412 133.592941,165.636711 133.811883,165.643117 C135.718404,165.753104 137.587377,166.219901 139.321824,167.019288 C142.726185,168.545182 145.450521,171.270405 146.975919,174.675875 C147.774158,176.41045 148.2362,178.28076 148.337542,180.18761 C148.343685,180.406473 148.438579,180.613416 148.6004,180.760846 C148.761981,180.917559 148.979673,181.002849 149.20467,180.997596 L151.134308,180.997596 C151.370906,181.004131 151.598185,180.905217 151.754692,180.727601 C151.927465,180.563694 152.016711,180.330318 151.997407,180.09291 C151.884234,177.756048 151.334255,175.4611 150.375948,173.326905 Z" id="Icon_RSS" fill="#999999"></path>
        <path d="M67.0925747,169.996943 L65.1237907,169.996943 L65.1237907,177.215526 L62.4530837,177.215526 L62.4530837,169.996943 L60.6242844,169.996943 L60.6242844,167.513087 L62.4520838,167.513087 L62.4520838,166.060171 C62.3906194,165.196203 62.6037448,164.334908 63.061017,163.599314 C63.6536946,162.975895 64.5073071,162.671177 65.3607647,162.778361 L67.3295487,162.778361 L67.3295487,165.263217 L66.1086826,165.263217 C65.8141568,165.21493 65.5134593,165.300743 65.2887726,165.497204 C65.1582292,165.742502 65.1012879,166.020278 65.1247906,166.297158 L65.1247906,167.516087 L67.3745437,167.516087 L67.0925747,169.996943 Z M72.4829832,161.513434 C68.4346565,157.46612 62.0912199,156.842332 57.3321403,160.023559 C52.5730606,163.204787 50.7238416,169.304993 52.9154135,174.593462 C55.1069853,179.881932 60.7289492,182.885716 66.3430706,181.767785 C71.9571919,180.649853 75.99982,175.721574 75.9985974,169.996943 C76.0482851,166.804967 74.7758789,163.73453 72.4829832,161.513434 Z" id="Icon_Facebook_24" fill="#3B589C" opacity="0.75"></path>
        <path d="M95.9522549,167.326098 C95.9836131,167.44862 95.9994025,167.574606 95.9992497,167.701077 C95.9889864,169.851412 95.1676935,171.918679 93.6995029,173.489742 C92.1460325,175.233205 89.8922098,176.187487 87.5591789,176.089591 C85.9637094,176.097971 84.4002922,175.641777 83.0596743,174.776667 C83.2915991,174.808651 83.5254787,174.824355 83.7595972,174.823665 C85.0866051,174.829571 86.3760075,174.383053 87.4151948,173.557738 C86.7885408,173.53708 86.183337,173.324514 85.6813857,172.948773 C85.1908692,172.587535 84.8294629,172.078174 84.6504992,171.495857 C84.8362088,171.526886 85.0241537,171.542605 85.2124373,171.542854 C85.4817261,171.54114 85.7499975,171.509617 86.0123492,171.44886 C85.3437263,171.303977 84.7420406,170.941399 84.3015376,170.417919 C83.8528192,169.897457 83.6111731,169.230137 83.6226123,168.543028 L83.6226123,168.498031 C84.0311077,168.748746 84.5022059,168.878747 84.9814627,168.873009 C84.1229256,168.36454 83.603937,167.433825 83.6226123,166.43615 C83.6215759,165.906738 83.767661,165.387451 84.0445659,164.936237 C85.5118032,166.825049 87.7462531,167.959385 90.1368951,168.029058 C90.0734152,167.801194 90.041785,167.565638 90.0429055,167.329098 C90.0462078,165.697619 91.3681846,164.37602 92.99958,164.373269 C93.8220223,164.350549 94.6121068,164.694145 95.1563425,165.311215 C95.8192801,165.196216 96.4550321,164.958857 97.0311361,164.611255 C96.8352432,165.300342 96.3820557,165.887798 95.7652755,166.252161 C96.3484244,166.184063 96.91747,166.025855 97.4520897,165.783188 C97.0430781,166.378684 96.5359251,166.900402 95.9522549,167.326098 Z M98.4839761,161.514435 C94.4361005,157.466616 88.0926861,156.842102 83.3332284,160.022831 C78.5737707,163.203561 76.7238976,169.303622 78.9149516,174.592348 C81.1060055,179.881074 86.7277233,182.885423 92.3419835,181.768001 C97.9562438,180.650578 101.999335,175.722614 101.998589,169.997944 C102.048418,166.806139 100.776402,163.735771 98.4839761,161.514435 Z" id="Icon_Twitter_24" fill="#55ACEE" opacity="0.75"></path>
        <path d="M65,51 L77,51 L77,59 L65,59 L65,51 Z M67,63 L67,59 L71.666,59 L67,63 Z" id="Icon_Comment_copy" fill="#9F224E"></path>
        <path d="M82.8652356,127.140204 C82.3177991,127.140629 81.8463324,126.741822 81.7392415,126.187742 C81.6321505,125.633662 81.9192719,125.078681 82.4249676,124.862293 C82.9306632,124.645904 83.5140411,124.828396 83.8182369,125.298134 C84.1224327,125.767873 84.0626942,126.393984 83.6755648,126.793462 C83.4635065,127.019676 83.1701728,127.145194 82.8652356,127.140204 Z M93.234039,130.438912 L86.8316364,123.840461 C86.2914239,123.335553 85.5988457,123.038667 84.8710009,123 L81.1462948,123 C80.5169858,123.008353 80.0086438,123.532541 80,124.182028 L80,128.027243 C80.009926,128.400026 80.0906815,128.767169 80.2376832,129.107836 C80.366655,129.455524 80.5628581,129.772475 80.8143407,130.039382 L87.2167433,136.656463 C87.4277294,136.878669 87.7176296,137.002089 88.0190494,136.99803 C88.3236684,137.000267 88.6166441,136.877382 88.8333901,136.656463 L93.2300274,132.109484 C93.4465973,131.892535 93.5667204,131.592895 93.5619816,131.281443 C93.5644841,130.966481 93.4449783,130.663536 93.2300274,130.439947 L93.234039,130.438912 Z M96.6729234,130.438912 L90.2705208,123.840461 C89.7299962,123.336062 89.0376013,123.039255 88.3098853,123 L86.3041201,123 C87.0318361,123.039255 87.724231,123.336062 88.2647556,123.840461 L94.6671582,130.438912 C94.8814581,130.662864 95.0005447,130.96566 94.9981095,131.280408 C95.0028714,131.591659 94.8831579,131.891183 94.6671582,132.108449 L90.4550512,136.455663 C90.5960163,136.61334 90.7553486,136.752404 90.9294147,136.869683 C91.0902552,136.962386 91.272877,137.007177 91.456931,136.999065 C91.7618966,137.001578 92.0552826,136.878672 92.2722745,136.657498 L96.6689119,132.110519 C96.8849116,131.893253 97.0046251,131.593729 96.9998632,131.282478 C97.0022984,130.96773 96.8832118,130.664934 96.6689119,130.440982 L96.6729234,130.438912 Z" id="_copy-7" fill="#999999"></path>
        <path d="M117.707031,130.875 C117.707031,130.914063 117.703125,130.941406 117.695312,130.957031 C117.19531,133.050792 116.148445,134.74804 114.554688,136.048828 C112.96093,137.349616 111.093761,138 108.953125,138 C107.812494,138 106.70899,137.785158 105.642578,137.355469 C104.576167,136.925779 103.625004,136.312504 102.789062,135.515625 L101.277344,137.027344 C101.128906,137.175782 100.953126,137.25 100.75,137.25 C100.546874,137.25 100.371094,137.175782 100.222656,137.027344 C100.074218,136.878906 100,136.703126 100,136.5 L100,131.25 C100,131.046874 100.074218,130.871094 100.222656,130.722656 C100.371094,130.574218 100.546874,130.5 100.75,130.5 L106,130.5 C106.203126,130.5 106.378906,130.574218 106.527344,130.722656 C106.675782,130.871094 106.75,131.046874 106.75,131.25 C106.75,131.453126 106.675782,131.628906 106.527344,131.777344 L104.921875,133.382812 C105.476565,133.89844 106.105465,134.296874 106.808594,134.578125 C107.511722,134.859376 108.242184,135 109,135 C110.04688,135 111.023433,134.746096 111.929688,134.238281 C112.835942,133.730466 113.562497,133.031254 114.109375,132.140625 C114.195313,132.007812 114.402342,131.550785 114.730469,130.769531 C114.792969,130.589843 114.910155,130.5 115.082031,130.5 L117.332031,130.5 C117.433594,130.5 117.521484,130.537109 117.595703,130.611328 C117.669922,130.685547 117.707031,130.773437 117.707031,130.875 Z M118,121.5 L118,126.75 C118,126.953126 117.925782,127.128906 117.777344,127.277344 C117.628906,127.425782 117.453126,127.5 117.25,127.5 L112,127.5 C111.796874,127.5 111.621094,127.425782 111.472656,127.277344 C111.324218,127.128906 111.25,126.953126 111.25,126.75 C111.25,126.546874 111.324218,126.371094 111.472656,126.222656 L113.089844,124.605469 C111.933588,123.535151 110.57032,123 109,123 C107.95312,123 106.976567,123.253904 106.070312,123.761719 C105.164058,124.269534 104.437503,124.968746 103.890625,125.859375 C103.804687,125.992188 103.597658,126.449215 103.269531,127.230469 C103.207031,127.410157 103.089845,127.5 102.917969,127.5 L100.585938,127.5 C100.484374,127.5 100.396485,127.462891 100.322266,127.388672 C100.248047,127.314453 100.210938,127.226563 100.210938,127.125 L100.210938,127.042969 C100.718753,124.949208 101.773429,123.25196 103.375,121.951172 C104.976571,120.650384 106.851552,120 109,120 C110.140631,120 111.249995,120.216795 112.328125,120.650391 C113.406255,121.083987 114.363277,121.695309 115.199219,122.484375 L116.722656,120.972656 C116.871094,120.824218 117.046874,120.75 117.25,120.75 C117.453126,120.75 117.628906,120.824218 117.777344,120.972656 C117.925782,121.121094 118,121.296874 118,121.5 Z" id="" fill="#4A4A4A"></path>
        <path d="M35,206 L62,206 L62,209 L35,209 L35,206 Z M35,215 L62,215 L62,218 L35,218 L35,215 Z M35,224 L53,224 L53,227 L35,227 L35,224 Z M57,220 L64.7310671,225.389856 L57,231 L57,220 Z" id="Icon-Playlist" fill="#CCCCCC"></path>
        <path d="M70,206 L97,206 L97,209 L70,209 L70,206 Z M70,215 L97,215 L97,218 L70,218 L70,215 Z M70,224 L88,224 L88,227 L70,227 L70,224 Z M92,220 L99.7310671,225.389856 L92,231 L92,220 Z" id="Icon-Playlist" fill="#666666"></path>
        <polygon id="" fill="#FFFFFF" points="106 202 131.234899 218 106 234"></polygon>
        <polygon id="Arrow_Right_copy" fill="#CCCCCC" points="102.986 84.95 101.786 84 92 92 101.786 100 102.986 99.05 94.403 92"></polygon>
        <polygon id="Arrow_Right_copy_2" fill="#CCCCCC" points="123.05 97.986 124 96.786 116 87 108 96.786 108.95 97.986 116 89.402"></polygon>
        <polygon id="Arrow_Right_copy_3" fill="#CCCCCC" points="141.05 87 142 88.2 134 97.986 126 88.2 126.95 87 134 95.584"></polygon>
        <path d="M144,86 L158.530255,86 L158.530255,87.6144728 L144,87.6144728 L144,86 Z M144,90.8434185 L158.530255,90.8434185 L158.530255,92.4578913 L144,92.4578913 L144,90.8434185 Z M144,95.686837 L153.686837,95.686837 L153.686837,97.3013098 L144,97.3013098 L144,95.686837 Z M155.839467,93.5342065 L160,96.4347985 L155.839467,99.4539402 L155.839467,93.5342065 Z" id="Icon-Playlist" fill="#CCCCCC"></path>
        <path d="M162,92 C162,90.5591396 162.360215,89.2258065 163.080645,88 C163.801075,86.7741935 164.774194,85.8010751 166,85.0806452 C167.225806,84.3602152 168.55914,84 170,84 C171.44086,84 172.774194,84.3602152 174,85.0806452 C175.225806,85.8010751 176.198925,86.7741935 176.919355,88 C177.639785,89.2258065 178,90.5591396 178,92 C178,93.4408604 177.639785,94.7741935 176.919355,96 C176.198925,97.2258065 175.225806,98.1989249 174,98.9193548 C172.774194,99.6397848 171.44086,100 170,100 C168.55914,100 167.225806,99.6397848 166,98.9193548 C164.774194,98.1989249 163.801075,97.2258065 163.080645,96 C162.360215,94.7741935 162,93.4408604 162,92 Z M176.451613,92 C176.451613,90.8387097 176.16129,89.763441 175.580645,88.7741935 C175,87.7849461 174.215054,87 173.225806,86.4193548 C172.236559,85.8387097 171.16129,85.5483871 170,85.5483871 C168.83871,85.5483871 167.763441,85.8387097 166.774194,86.4193548 C165.784946,87 165,87.7849461 164.419355,88.7741935 C163.83871,89.763441 163.548387,90.8387097 163.548387,92 C163.548387,93.1612903 163.83871,94.236559 164.419355,95.2258065 C165,96.2150539 165.784946,97 166.774194,97.5806452 C167.763441,98.1612903 168.83871,98.4516129 170,98.4516129 C171.16129,98.4516129 172.236559,98.1612903 173.225806,97.5806452 C174.215054,97 175,96.2150539 175.580645,95.2258065 C176.16129,94.236559 176.451613,93.1612903 176.451613,92 Z M174.129032,92.6451613 C174.129032,92.752688 174.091398,92.8440862 174.016129,92.9193548 C173.94086,92.9946235 173.849462,93.0322581 173.741935,93.0322581 L170,93.0322581 L170,95.1935484 C170,95.3655912 169.919355,95.483871 169.758065,95.5483871 C169.596774,95.6129032 169.462365,95.5806452 169.354839,95.4516129 L166.16129,92.2580645 C166.075269,92.1935484 166.032258,92.1075267 166.032258,92 C166.032258,91.8924733 166.075269,91.7956991 166.16129,91.7096774 L169.354839,88.516129 C169.462365,88.4086023 169.596774,88.3870968 169.758065,88.4516129 C169.919355,88.516129 170,88.6344088 170,88.8064516 L170,90.9677419 L173.741935,90.9677419 C173.849462,90.9677419 173.94086,91.0053765 174.016129,91.0806452 C174.091398,91.1559138 174.129032,91.247312 174.129032,91.3548387 L174.129032,92.6451613 Z" id="" fill="#004F8B"></path>
        <path d="M338,160 L359.795383,160 L359.795383,162.421709 L338,162.421709 L338,160 Z M338,167.265128 L359.795383,167.265128 L359.795383,169.686837 L338,169.686837 L338,167.265128 Z M338,174.530255 L352.530255,174.530255 L352.530255,176.951965 L338,176.951965 L338,174.530255 Z M355.759201,171.30131 L362,175.652198 L355.759201,180.18091 L355.759201,171.30131 Z" id="Icon-Playlist" fill="#CCCCCC"></path>
    </g>
</svg>