<svg id="_24" data-name="24" xmlns="http://www.w3.org/2000/svg" xmlns:xlink="http://www.w3.org/1999/xlink" width="1200" height="476" viewBox="0 0 1200 476">
  <defs>
    <style>
      .cls-1, .cls-33 {
        fill: #fff;
      }

      .cls-1, .cls-10, .cls-11, .cls-12, .cls-13, .cls-14, .cls-15, .cls-16, .cls-17, .cls-18, .cls-19, .cls-2, .cls-20, .cls-21, .cls-22, .cls-23, .cls-24, .cls-25, .cls-26, .cls-27, .cls-28, .cls-29, .cls-3, .cls-30, .cls-31, .cls-34, .cls-35, .cls-36, .cls-4, .cls-5, .cls-6, .cls-7, .cls-8, .cls-9 {
        fill-rule: evenodd;
      }

      .cls-2, .cls-20 {
        fill: #da5542;
      }

      .cls-2, .cls-6, .cls-7 {
        opacity: 0.75;
      }

      .cls-3 {
        fill: #999;
      }

      .cls-4 {
        fill: #e19126;
      }

      .cls-5 {
        fill: #9f224e;
      }

      .cls-19, .cls-6 {
        fill: #3b589c;
      }

      .cls-23, .cls-7 {
        fill: #55acee;
      }

      .cls-8 {
        fill: #ccc;
      }

      .cls-9 {
        fill: #004f8b;
      }

      .cls-11 {
        fill: #00f076;
      }

      .cls-12 {
        fill: #00d5ff;
      }

      .cls-13 {
        fill: #ffd800;
      }

      .cls-14 {
        fill: #fc3944;
      }

      .cls-15 {
        fill: #333;
      }

      .cls-16, .cls-17 {
        fill: #f5f5f5;
      }

      .cls-16 {
        filter: url(#filter);
      }

      .cls-17 {
        filter: url(#filter-2);
      }

      .cls-18 {
        fill: #212121;
        filter: url(#filter-3);
      }

      .cls-21 {
        fill: #3b5999;
      }

      .cls-22 {
        fill: #dd4b39;
      }

      .cls-24 {
        fill: #666;
      }

      .cls-25 {
        fill: #e5bd9e;
      }

      .cls-26 {
        fill: #ff586f;
      }

      .cls-27 {
        fill: #403108;
      }

      .cls-28 {
        fill: #d5ae91;
      }

      .cls-29 {
        fill: none;
        stroke: #403108;
        stroke-width: 1px;
      }

      .cls-30 {
        fill: #ff6ca1;
      }

      .cls-31 {
        fill: #0cb2a5;
      }

      .cls-32 {
        filter: url(#filter-4);
      }

      .cls-33 {
        opacity: 0.7;
      }

      .cls-34 {
        fill: #911b3a;
      }

      .cls-35 {
        fill: #090;
      }

      .cls-36 {
        fill: #cc0001;
      }
    </style>
    <filter id="filter" x="0" y="195" width="18" height="12" filterUnits="userSpaceOnUse">
      <feFlood result="flood" flood-color="#212121"/>
      <feComposite result="composite" operator="in" in2="SourceGraphic"/>
      <feBlend result="blend" in2="SourceGraphic"/>
    </filter>
    <filter id="filter-2" x="18" y="195" width="18" height="12" filterUnits="userSpaceOnUse">
      <feFlood result="flood" flood-color="#999"/>
      <feComposite result="composite" operator="in" in2="SourceGraphic"/>
      <feBlend result="blend" in2="SourceGraphic"/>
    </filter>
    <filter id="filter-3" x="72" y="192" width="18" height="18" filterUnits="userSpaceOnUse">
      <feFlood result="flood" flood-color="#999"/>
      <feComposite result="composite" operator="in" in2="SourceGraphic"/>
      <feBlend result="blend" in2="SourceGraphic"/>
    </filter>
    <filter id="filter-4" filterUnits="userSpaceOnUse">
      <feFlood result="flood" flood-color="#fff"/>
      <feComposite result="composite" operator="in" in2="SourceGraphic"/>
      <feBlend result="blend" in2="SourceGraphic"/>
    </filter>
  </defs>
  <path id="_" data-name="" class="cls-1" d="M622.064,355.476v-1.492h-1.508v-0.871l1.822-1.8,2.386,2.363-1.821,1.8h-0.879Zm7.772-10.681-5.5,5.442a0.327,0.327,0,0,1-.519.015,0.319,0.319,0,0,1,.016-0.513l5.5-5.441a0.327,0.327,0,0,1,.518-0.016,0.319,0.319,0,0,1-.016.513h0Zm0.958,8.272a0.475,0.475,0,0,0-.55.108l-1,1a0.466,0.466,0,0,0-.141.342v1.959a2.384,2.384,0,0,1-.738,1.757,2.427,2.427,0,0,1-1.774.731H613.522a2.427,2.427,0,0,1-1.774-.731,2.384,2.384,0,0,1-.738-1.757V343.536a2.384,2.384,0,0,1,.738-1.757,2.431,2.431,0,0,1,1.774-.731h13.064a2.828,2.828,0,0,1,.706.094,0.462,0.462,0,0,0,.5-0.125l0.769-.761a0.482,0.482,0,0,0,.142-0.451,0.475,0.475,0,0,0-.283-0.358,4.358,4.358,0,0,0-1.837-.389H613.522a4.375,4.375,0,0,0-3.2,1.314A4.291,4.291,0,0,0,609,343.536v12.935a4.29,4.29,0,0,0,1.327,3.164,4.375,4.375,0,0,0,3.2,1.314h13.064a4.378,4.378,0,0,0,3.195-1.314,4.29,4.29,0,0,0,1.327-3.164v-2.954A0.451,0.451,0,0,0,630.794,353.067Zm-11.745-.576v4.478h4.522l10.552-10.448-4.522-4.478Zm17.963-9.452a1.435,1.435,0,0,0-.44-1.058l-2.387-2.363a1.527,1.527,0,0,0-2.135,0l-1.445,1.43,4.523,4.478,1.444-1.43A1.433,1.433,0,0,0,637.012,343.039Z"/>
  <path id="Shape_22_copy" data-name="Shape 22 copy" class="cls-1" d="M656,337a13,13,0,1,1-13,13A13,13,0,0,1,656,337Zm-2,7v12l-5-6Zm9,6-5-6v12"/>
  <path id="Icon_Google_24" data-name="Icon Google 24" class="cls-2" d="M322.547,270.313a2.993,2.993,0,0,0,.422-2.063,3.578,3.578,0,0,0-.914-2.062,2.378,2.378,0,0,0-1.711-.868,1.629,1.629,0,0,0-1.477.8,2.857,2.857,0,0,0-.375,2.016,3.93,3.93,0,0,0,.938,2.086,2.315,2.315,0,0,0,1.687.914A1.55,1.55,0,0,0,322.547,270.313Zm-0.375,4.124a4.126,4.126,0,0,0-1.219-.187,4.061,4.061,0,0,0-2.414.75,2.129,2.129,0,0,0-1.055,1.734,2.305,2.305,0,0,0,.891,1.828,3.374,3.374,0,0,0,2.25.75q3.516,0,3.516-2.484a1.664,1.664,0,0,0-.094-0.516,0.626,0.626,0,0,0-.071-0.281,1.506,1.506,0,0,0-.21-0.3c-0.094-.11-0.172-0.2-0.235-0.258a2.639,2.639,0,0,0-.281-0.235c-0.125-.094-0.227-0.172-0.305-0.234s-0.211-.156-0.4-0.281A2.672,2.672,0,0,1,322.172,274.437ZM333,270.547h-3V273.5h-1.5v-2.953h-3V269h3v-3H330v3h3v1.547Zm-12.328,9.515a7.262,7.262,0,0,1-3.492-.773,2.3,2.3,0,0,1-1.43-2.039,2.984,2.984,0,0,1,1.383-2.367,5.291,5.291,0,0,1,3.305-1.055h0.843a1.93,1.93,0,0,1-.656-1.359,2,2,0,0,1,.234-0.891,1.749,1.749,0,0,1-.421.047,3.6,3.6,0,0,1-2.625-1.008,3.308,3.308,0,0,1-1.032-2.461,3.133,3.133,0,0,1,1.266-2.461,4.409,4.409,0,0,1,2.906-1.054h4.781l-1.078.75h-1.5a2.219,2.219,0,0,1,1.125,1.054,3.518,3.518,0,0,1,.422,1.711,3.044,3.044,0,0,1-1.359,2.485,4.774,4.774,0,0,0-.75.726,1.132,1.132,0,0,0-.188.68,2.424,2.424,0,0,0,1.266,1.453,4.627,4.627,0,0,1,1.312,1.383,3.619,3.619,0,0,1,.375,1.757,3.027,3.027,0,0,1-1.265,2.391A5.263,5.263,0,0,1,320.672,280.062Zm11.812-16.546A11.994,11.994,0,1,0,336,272,11.561,11.561,0,0,0,332.484,263.516Z"/>
  <path id="Icon_RSS" data-name="Icon RSS" class="cls-3" d="M341.88,276.99a2.561,2.561,0,1,0,1.821.75A2.479,2.479,0,0,0,341.88,276.99Zm8.35,0.12a12.22,12.22,0,0,0-5.9-5.9,12,12,0,0,0-4.1-1.078h-0.067a0.865,0.865,0,0,0-.857.857V272.8a0.821,0.821,0,0,0,.221.576,0.813,0.813,0,0,0,.555.268,8.569,8.569,0,0,1,7.715,7.714,0.816,0.816,0,0,0,.267.556,0.826,0.826,0,0,0,.576.221h1.808a0.79,0.79,0,0,0,.63-0.282,0.813,0.813,0,0,0,.228-0.642A12.028,12.028,0,0,0,350.23,277.11Zm6.329-2.591a19.261,19.261,0,0,0-9.637-9.636,18.566,18.566,0,0,0-6.716-1.607h-0.04a0.8,0.8,0,0,0-.59.241,0.792,0.792,0,0,0-.267.616v1.915a0.82,0.82,0,0,0,.234.582,0.8,0.8,0,0,0,.569.262,15.16,15.16,0,0,1,5.471,1.366,15.089,15.089,0,0,1,7.6,7.6,14.986,14.986,0,0,1,1.352,5.471,0.8,0.8,0,0,0,.261.569,0.834,0.834,0,0,0,.6.235h1.916a0.792,0.792,0,0,0,.616-0.268,0.781,0.781,0,0,0,.241-0.63A18.586,18.586,0,0,0,356.559,274.519Z"/>
  <path id="Icon_RSS-2" data-name="Icon RSS" class="cls-4" d="M276.921,138.873a1.144,1.144,0,1,1,.808-0.335A1.1,1.1,0,0,1,276.921,138.873Zm4.2-.09a0.28,0.28,0,0,1-.205.09h-1.143a0.272,0.272,0,0,1-.2-0.076,0.285,0.285,0,0,1-.09-0.192,3.724,3.724,0,0,0-3.437-3.438,0.276,0.276,0,0,1-.192-0.089,0.272,0.272,0,0,1-.076-0.2v-1.143a0.287,0.287,0,0,1,.089-0.206,0.265,0.265,0,0,1,.214-0.08,5.406,5.406,0,0,1,5.117,5.116A0.264,0.264,0,0,1,281.117,138.783Zm3.429,0a0.282,0.282,0,0,1-.206.09H283.2a0.267,0.267,0,0,1-.2-0.081,0.3,0.3,0,0,1-.089-0.2,6.917,6.917,0,0,0-1-3.375,7.158,7.158,0,0,0-2.486-2.487,6.916,6.916,0,0,0-3.375-1,0.305,0.305,0,0,1-.2-0.089,0.27,0.27,0,0,1-.08-0.2V130.31a0.283,0.283,0,0,1,.089-0.205,0.238,0.238,0,0,1,.206-0.08,8.7,8.7,0,0,1,2.656.5,8.505,8.505,0,0,1,2.321,1.245,9.531,9.531,0,0,1,1.831,1.83,8.553,8.553,0,0,1,1.245,2.322,8.725,8.725,0,0,1,.5,2.656,0.21,0.21,0,0,1-.08.2h0Zm1.906-10.584a2.478,2.478,0,0,0-1.817-.755h-8.571a2.578,2.578,0,0,0-2.572,2.572v8.571a2.576,2.576,0,0,0,2.572,2.571h8.571a2.574,2.574,0,0,0,2.571-2.571v-8.571A2.475,2.475,0,0,0,286.452,128.2Z"/>
  <g id="Icon_Font_Size" data-name="Icon Font Size">
    <path id="_2" data-name="" class="cls-3" d="M654.061,209.327a0.427,0.427,0,0,1-.315.123h-3.719a0.421,0.421,0,0,1-.437-0.438v-0.875a0.421,0.421,0,0,1,.437-0.437h0.629l-0.711-2.215h-3.773L645.8,206.6l-1.36-2.719,2.224-6.38a0.338,0.338,0,0,1,.15-0.219,0.462,0.462,0,0,1,.26-0.082h1.969a0.459,0.459,0,0,1,.26.082,0.335,0.335,0,0,1,.15.219l3.555,10.2h0.738a0.421,0.421,0,0,1,.438.437v0.875A0.427,0.427,0,0,1,654.061,209.327Zm-5.784-9.065a4.27,4.27,0,0,1-.218-0.929,8.616,8.616,0,0,1-.219.929l-1.149,3.391H649.4Zm-14,7.188a0.541,0.541,0,0,1,.563.562v1.125a0.541,0.541,0,0,1-.563.563H629.5a0.541,0.541,0,0,1-.562-0.563v-1.125a0.541,0.541,0,0,1,.562-0.562h0.949l4.571-13.113a0.433,0.433,0,0,1,.193-0.282,0.6,0.6,0,0,1,.334-0.105h2.531a0.591,0.591,0,0,1,.334.105,0.435,0.435,0,0,1,.194.282l4.57,13.113h0.949a0.542,0.542,0,0,1,.563.562v1.125a0.543,0.543,0,0,1-.563.563H639.34a0.543,0.543,0,0,1-.563-0.563v-1.125a0.542,0.542,0,0,1,.563-0.562h0.809l-0.915-2.848h-4.851l-0.949,2.848h0.843Zm2.25-9.563-1.476,4.36h3.48l-1.441-4.36a5.492,5.492,0,0,1-.281-1.195A10.939,10.939,0,0,1,636.527,197.887Z"/>
    <path id="_copy" data-name=" copy" class="cls-5" d="M679.061,209.327a0.427,0.427,0,0,1-.315.123h-3.719a0.421,0.421,0,0,1-.437-0.438v-0.875a0.421,0.421,0,0,1,.437-0.437h0.629l-0.711-2.215h-3.773L670.8,206.6l-1.36-2.719,2.224-6.38a0.333,0.333,0,0,1,.151-0.219,0.456,0.456,0,0,1,.259-0.082h1.969a0.459,0.459,0,0,1,.26.082,0.335,0.335,0,0,1,.15.219l3.555,10.2h0.738a0.421,0.421,0,0,1,.438.437v0.875A0.427,0.427,0,0,1,679.061,209.327Zm-5.784-9.065a4.27,4.27,0,0,1-.218-0.929,8.616,8.616,0,0,1-.219.929l-1.149,3.391H674.4Zm-14,7.188a0.541,0.541,0,0,1,.563.562v1.125a0.541,0.541,0,0,1-.563.563H654.5a0.541,0.541,0,0,1-.562-0.563v-1.125a0.541,0.541,0,0,1,.562-0.562h0.949l4.571-13.113a0.433,0.433,0,0,1,.193-0.282,0.6,0.6,0,0,1,.334-0.105h2.531a0.594,0.594,0,0,1,.334.105,0.435,0.435,0,0,1,.194.282l4.57,13.113h0.949a0.541,0.541,0,0,1,.563.562v1.125a0.541,0.541,0,0,1-.563.563H664.34a0.543,0.543,0,0,1-.563-0.563v-1.125a0.542,0.542,0,0,1,.563-0.562h0.808l-0.914-2.848h-4.851l-0.949,2.848h0.843Zm2.25-9.563-1.476,4.36h3.48l-1.441-4.36a5.492,5.492,0,0,1-.281-1.195A10.939,10.939,0,0,1,661.527,197.887Z"/>
    <path id="_3" data-name="" class="cls-3" d="M717.914,204.348a0.56,0.56,0,0,1-.563.562h-3.234v3.235a0.56,0.56,0,0,1-.563.562h-1.781a0.56,0.56,0,0,1-.562-0.562V204.91h-3.235a0.56,0.56,0,0,1-.562-0.562v-1.781a0.56,0.56,0,0,1,.562-0.563h3.235V198.77a0.56,0.56,0,0,1,.562-0.563h1.781a0.56,0.56,0,0,1,.563.563V202h3.234a0.56,0.56,0,0,1,.563.563v1.781Zm-13.853,4.979a0.427,0.427,0,0,1-.315.123h-3.719a0.421,0.421,0,0,1-.437-0.438v-0.875a0.421,0.421,0,0,1,.437-0.437h0.629l-0.711-2.215h-3.773L695.8,206.6l-1.36-2.719,2.224-6.38a0.336,0.336,0,0,1,.151-0.219,0.456,0.456,0,0,1,.259-0.082h1.969a0.459,0.459,0,0,1,.26.082,0.335,0.335,0,0,1,.15.219l3.555,10.2h0.738a0.421,0.421,0,0,1,.438.437v0.875A0.427,0.427,0,0,1,704.061,209.327Zm-5.784-9.065a4.27,4.27,0,0,1-.218-0.929,8.616,8.616,0,0,1-.219.929l-1.149,3.391H699.4Zm-14,7.188a0.541,0.541,0,0,1,.563.562v1.125a0.541,0.541,0,0,1-.563.563H679.5a0.541,0.541,0,0,1-.562-0.563v-1.125a0.541,0.541,0,0,1,.562-0.562h0.949l4.571-13.113a0.433,0.433,0,0,1,.193-0.282,0.6,0.6,0,0,1,.334-0.105h2.531a0.591,0.591,0,0,1,.334.105,0.435,0.435,0,0,1,.194.282l4.57,13.113h0.949a0.542,0.542,0,0,1,.563.562v1.125a0.543,0.543,0,0,1-.563.563H689.34a0.543,0.543,0,0,1-.563-0.563v-1.125a0.542,0.542,0,0,1,.563-0.562h0.809l-0.915-2.848h-4.851l-0.949,2.848h0.843Zm2.25-9.563-1.476,4.36h3.48l-1.441-4.36a5.492,5.492,0,0,1-.281-1.195A10.939,10.939,0,0,1,686.527,197.887Z"/>
    <path id="_copy_2" data-name=" copy 2" class="cls-5" d="M756.914,204.348a0.56,0.56,0,0,1-.563.562h-3.234v3.235a0.56,0.56,0,0,1-.563.562h-1.781a0.56,0.56,0,0,1-.562-0.562V204.91h-3.235a0.56,0.56,0,0,1-.562-0.562v-1.781a0.56,0.56,0,0,1,.562-0.563h3.235V198.77a0.56,0.56,0,0,1,.562-0.563h1.781a0.56,0.56,0,0,1,.563.563V202h3.234a0.56,0.56,0,0,1,.563.563v1.781Zm-13.853,4.979a0.427,0.427,0,0,1-.315.123h-3.719a0.421,0.421,0,0,1-.437-0.438v-0.875a0.421,0.421,0,0,1,.437-0.437h0.629l-0.711-2.215h-3.773L734.8,206.6l-1.36-2.719,2.224-6.38a0.336,0.336,0,0,1,.151-0.219,0.456,0.456,0,0,1,.259-0.082h1.969a0.459,0.459,0,0,1,.26.082,0.335,0.335,0,0,1,.15.219l3.555,10.2h0.738a0.421,0.421,0,0,1,.438.437v0.875A0.427,0.427,0,0,1,743.061,209.327Zm-5.784-9.065a4.27,4.27,0,0,1-.218-0.929,8.616,8.616,0,0,1-.219.929l-1.149,3.391H738.4Zm-14,7.188a0.541,0.541,0,0,1,.563.562v1.125a0.541,0.541,0,0,1-.563.563H718.5a0.541,0.541,0,0,1-.562-0.563v-1.125a0.541,0.541,0,0,1,.562-0.562h0.949l4.571-13.113a0.433,0.433,0,0,1,.193-0.282,0.6,0.6,0,0,1,.334-0.105h2.531a0.594,0.594,0,0,1,.334.105,0.435,0.435,0,0,1,.194.282l4.57,13.113h0.949a0.541,0.541,0,0,1,.563.562v1.125a0.541,0.541,0,0,1-.563.563H728.34a0.543,0.543,0,0,1-.563-0.563v-1.125a0.542,0.542,0,0,1,.563-0.562h0.809l-0.915-2.848h-4.851l-0.949,2.848h0.843Zm2.25-9.563-1.476,4.36h3.48l-1.441-4.36a5.492,5.492,0,0,1-.281-1.195A10.939,10.939,0,0,1,725.527,197.887Z"/>
    <path class="cls-3" d="M777.245,197.27h-1.987a0.452,0.452,0,0,0-.261.083,0.338,0.338,0,0,0-.153.222l-2.243,6.47,1.371,2.757,0.376-1.131h3.807l0.718,2.246h-0.651a0.426,0.426,0,0,0-.425.443v0.888a0.429,0.429,0,0,0,.124.319,0.421,0.421,0,0,0,.3.125h3.783a0.426,0.426,0,0,0,.427-0.443v-0.888a0.426,0.426,0,0,0-.424-0.443h-0.762l-3.587-10.343a0.34,0.34,0,0,0-.152-0.222,0.458,0.458,0,0,0-.262-0.083m28.291,0.76h-1.8a0.567,0.567,0,0,0-.566.571v3.28H799.9a0.568,0.568,0,0,0-.566.571v1.806a0.568,0.568,0,0,0,.567.57h3.265v3.28a0.567,0.567,0,0,0,.566.57h1.8a0.568,0.568,0,0,0,.4-0.166,0.575,0.575,0,0,0,.165-0.4v-3.28h3.265a0.565,0.565,0,0,0,.566-0.57v-1.811a0.57,0.57,0,0,0-.165-0.4,0.559,0.559,0,0,0-.4-0.166H806.1V198.6a0.57,0.57,0,0,0-.165-0.4,0.563,0.563,0,0,0-.4-0.167m-14.127,0h-1.8a0.568,0.568,0,0,0-.566.571v3.28h-3.266a0.567,0.567,0,0,0-.565.571v1.806a0.567,0.567,0,0,0,.566.57h3.265v3.28a0.568,0.568,0,0,0,.566.57h1.8a0.567,0.567,0,0,0,.4-0.166,0.576,0.576,0,0,0,.166-0.4v-3.28h3.265a0.567,0.567,0,0,0,.566-0.57v-1.811a0.567,0.567,0,0,0-.166-0.4,0.557,0.557,0,0,0-.4-0.166h-3.267V198.6a0.571,0.571,0,0,0-.166-0.4,0.561,0.561,0,0,0-.4-0.167m-16.537,5.784,1.159-3.439a8.937,8.937,0,0,0,.22-0.942,4.419,4.419,0,0,0,.221.942l1.134,3.439h-2.734m-11.746-1.426,1.49-4.421a11.215,11.215,0,0,0,.284-1.212,5.678,5.678,0,0,0,.283,1.212l1.455,4.421h-3.512m3.055-8.414h-2.554a0.6,0.6,0,0,0-.337.107,0.435,0.435,0,0,0-.195.286l-4.612,13.3H757.5a0.547,0.547,0,0,0-.387.161,0.554,0.554,0,0,0-.16.41v1.14a0.554,0.554,0,0,0,.16.411,0.544,0.544,0,0,0,.387.161h4.864a0.547,0.547,0,0,0,.545-0.572v-1.14a0.547,0.547,0,0,0-.545-0.571h-0.874l0.958-2.888h4.895l0.924,2.888h-0.838a0.549,0.549,0,0,0-.547.571v1.14a0.548,0.548,0,0,0,.16.41,0.542,0.542,0,0,0,.387.162h4.872a0.547,0.547,0,0,0,.545-0.572v-1.14a0.549,0.549,0,0,0-.545-0.571h-0.98l-4.611-13.3a0.444,0.444,0,0,0-.2-0.286,0.6,0.6,0,0,0-.337-0.107"/>
    <path id="Shape_22_copy_2" data-name="Shape 22 copy 2" class="cls-5" d="M830.245,197.27h-1.987a0.452,0.452,0,0,0-.261.083,0.338,0.338,0,0,0-.153.222l-2.243,6.47,1.371,2.757,0.376-1.131h3.807l0.718,2.246h-0.651a0.426,0.426,0,0,0-.425.443v0.888a0.426,0.426,0,0,0,.425.444h3.783a0.426,0.426,0,0,0,.427-0.443v-0.888a0.429,0.429,0,0,0-.124-0.318,0.425,0.425,0,0,0-.3-0.125h-0.763l-3.586-10.343a0.34,0.34,0,0,0-.152-0.222,0.458,0.458,0,0,0-.262-0.083m28.291,0.76h-1.8a0.567,0.567,0,0,0-.566.571v3.28H852.9a0.568,0.568,0,0,0-.566.571v1.806a0.569,0.569,0,0,0,.166.4,0.563,0.563,0,0,0,.4.167h3.266v3.28a0.567,0.567,0,0,0,.566.57h1.8a0.568,0.568,0,0,0,.4-0.166,0.575,0.575,0,0,0,.165-0.4v-3.28h3.265a0.565,0.565,0,0,0,.566-0.57v-1.811a0.57,0.57,0,0,0-.165-0.4,0.559,0.559,0,0,0-.4-0.166H859.1V198.6a0.57,0.57,0,0,0-.165-0.4,0.563,0.563,0,0,0-.4-0.167m-14.127,0h-1.8a0.567,0.567,0,0,0-.566.571v3.28h-3.266a0.567,0.567,0,0,0-.565.571v1.806a0.567,0.567,0,0,0,.566.57h3.265v3.28a0.567,0.567,0,0,0,.566.57h1.8a0.567,0.567,0,0,0,.565-0.57v-3.28h3.265a0.567,0.567,0,0,0,.566-0.57v-1.811a0.567,0.567,0,0,0-.166-0.4,0.557,0.557,0,0,0-.4-0.166h-3.267V198.6a0.567,0.567,0,0,0-.166-0.4,0.561,0.561,0,0,0-.4-0.167m-16.537,5.784,1.159-3.439a8.937,8.937,0,0,0,.22-0.942,4.419,4.419,0,0,0,.221.942l1.134,3.439h-2.734m-11.746-1.426,1.49-4.421a11.215,11.215,0,0,0,.284-1.212,5.618,5.618,0,0,0,.283,1.212l1.455,4.421h-3.512m3.055-8.414h-2.554a0.6,0.6,0,0,0-.337.107,0.435,0.435,0,0,0-.195.286l-4.612,13.3H810.5a0.549,0.549,0,0,0-.547.571v1.14a0.554,0.554,0,0,0,.16.411,0.546,0.546,0,0,0,.387.161h4.864a0.549,0.549,0,0,0,.545-0.572v-1.14a0.549,0.549,0,0,0-.545-0.571h-0.874l0.958-2.888h4.895l0.924,2.888h-0.838a0.549,0.549,0,0,0-.547.571v1.14a0.548,0.548,0,0,0,.16.41,0.542,0.542,0,0,0,.387.162h4.872a0.547,0.547,0,0,0,.545-0.572v-1.14a0.549,0.549,0,0,0-.545-0.571h-0.98l-4.611-13.3a0.444,0.444,0,0,0-.2-0.286,0.6,0.6,0,0,0-.337-0.107"/>
  </g>
  <path id="Icon_Facebook_24" data-name="Icon Facebook 24" class="cls-6" d="M87.093,272H85.124v7.219H82.453V272H80.624v-2.484h1.828v-1.453a4.109,4.109,0,0,1,.609-2.461,2.708,2.708,0,0,1,2.3-.821h1.969v2.485H86.109a1,1,0,0,0-.82.234,1.443,1.443,0,0,0-.164.8v1.219h2.25Zm5.391-8.484A12,12,0,1,0,96,272,11.561,11.561,0,0,0,92.484,263.516Z"/>
  <path id="Icon_Twitter_24" data-name="Icon Twitter 24" class="cls-7" d="M137.953,269.328a1.505,1.505,0,0,1,.047.375,8.538,8.538,0,0,1-2.3,5.789,7.788,7.788,0,0,1-6.141,2.6,8.22,8.22,0,0,1-4.5-1.313,5.016,5.016,0,0,0,.7.047,5.837,5.837,0,0,0,3.656-1.266,3.062,3.062,0,0,1-1.734-.609,2.841,2.841,0,0,1-1.031-1.453,3.438,3.438,0,0,0,.562.047,3.649,3.649,0,0,0,.8-0.094,3.092,3.092,0,0,1-1.711-1.031,2.8,2.8,0,0,1-.679-1.875V270.5a2.54,2.54,0,0,0,1.359.375,2.772,2.772,0,0,1-1.359-2.437,2.857,2.857,0,0,1,.422-1.5,8.011,8.011,0,0,0,6.093,3.093,2.563,2.563,0,0,1-.094-0.7A2.962,2.962,0,0,1,135,266.375a2.774,2.774,0,0,1,2.157.938,5.424,5.424,0,0,0,1.875-.7,2.793,2.793,0,0,1-1.266,1.641,5.674,5.674,0,0,0,1.687-.469A6.382,6.382,0,0,1,137.953,269.328Zm2.532-5.812A12,12,0,1,0,144,272,11.562,11.562,0,0,0,140.485,263.516Z"/>
  <path id="Icon_Save_24" data-name="Icon Save 24" class="cls-8" d="M36,260a12,12,0,1,0,12,12A12,12,0,0,0,36,260Zm4.033,6.857v11.729a0.359,0.359,0,0,1-.407.407,0.459,0.459,0,0,1-.333-0.148l-3-3.034A0.4,0.4,0,0,0,36,275.7a0.355,0.355,0,0,0-.259.111l-3.071,3.071a0.4,0.4,0,0,1-.3.111,0.36,0.36,0,0,1-.407-0.407V265.6a0.507,0.507,0,0,1,.555-0.592h6.956a0.507,0.507,0,0,1,.555.592v1.258Z"/>
  <path id="Icon_Commment_24" data-name="Icon Commment 24" class="cls-8" d="M12,260a12,12,0,1,0,12,12A12,12,0,0,0,12,260Zm6.445,14.871H12.857L8.183,279.1v-4.227H6.155V266.7h12.29v8.17Z"/>
  <path id="Icon_Save_24-2" data-name="Icon Save 24" class="cls-9" d="M60,260a12,12,0,1,0,12,12A12,12,0,0,0,60,260Zm4.033,6.857v11.729a0.36,0.36,0,0,1-.407.407,0.459,0.459,0,0,1-.333-0.148l-3-3.034A0.4,0.4,0,0,0,60,275.7a0.355,0.355,0,0,0-.259.111l-3.071,3.071a0.4,0.4,0,0,1-.3.111,0.359,0.359,0,0,1-.407-0.407V265.6a0.507,0.507,0,0,1,.555-0.592h6.956a0.507,0.507,0,0,1,.555.592v1.258Z"/>
  <path id="Icon_Apple" data-name="Icon Apple" class="cls-10" d="M160.373,260a5.291,5.291,0,0,1-1.126,3.875,4.289,4.289,0,0,1-3.5,1.875h-0.063a4.851,4.851,0,0,1,1.126-3.75A5.011,5.011,0,0,1,160.373,260Zm0.5,5.625a5.494,5.494,0,0,1,4.441,2.438,4.955,4.955,0,0,0-2.439,3.062,5.409,5.409,0,0,0,.313,3.875A4.977,4.977,0,0,0,166,277.625a18.428,18.428,0,0,1-1.5,2.874q-2.251,3.5-4.066,3.5h-0.062a4.557,4.557,0,0,1-1.783-.5,5.171,5.171,0,0,0-2.158-.5,5.3,5.3,0,0,0-2.221.5,4.548,4.548,0,0,1-1.782.5h-0.063q-1.876,0-4-3.312a14.538,14.538,0,0,1-2.314-6.625,8.259,8.259,0,0,1,1-5.437,5.6,5.6,0,0,1,4.88-3,7.308,7.308,0,0,1,2.345.5,7.057,7.057,0,0,0,2.1.5,6.769,6.769,0,0,0,2-.5A7.412,7.412,0,0,1,160.873,265.625Z"/>
  <g id="google_icon" data-name="google icon">
    <path id="Polygon_1_copy" data-name="Polygon 1 copy" class="cls-11" d="M185.02,268.008l-14.292-7.921-0.01.007A1.215,1.215,0,0,0,169,261.2c0,0.012,0,.024,0,0.037h0v9.392l11.214,8.044Z"/>
    <path id="Icon_VnExpress" data-name="Icon VnExpress" class="cls-12" d="M169.362,260.336l15.923,15.557L171,283.726a1.217,1.217,0,0,1-2-.927c0-.01,0-0.019,0-0.029V261.238h0c0-.013,0-0.025,0-0.037A1.209,1.209,0,0,1,169.362,260.336Z"/>
    <path id="Icon_VnExpress_copy_2" data-name="Icon VnExpress copy 2" class="cls-12" d="M169.362,260.336L183,273.659,172,282a12.26,12.26,0,0,1-1.783,2.015A1.216,1.216,0,0,1,169,282.8c0-.01,0-0.019,0-0.029V261.238h0c0-.013,0-0.025,0-0.037A1.209,1.209,0,0,1,169.362,260.336Z"/>
    <path id="Icon_Google_24_copy_2" data-name="Icon Google 24 copy 2" class="cls-13" d="M184.165,276.507l6.064-3.325v0a1.214,1.214,0,0,0,.064-2.233V270.93l-5.1-2.826-4.363,4.266Z"/>
    <path id="Icon_Google_24_copy" data-name="Icon Google 24 copy" class="cls-14" d="M181.245,271.965l4.017,3.941L171,283.726a1.216,1.216,0,0,1-1.681-.1Z"/>
  </g>
  <path id="_copy-2" data-name=" copy" class="cls-15" d="M238,276.615h-1.875l-1.875-1.875v-1.875l1.875-1.875H238v5.625Zm-20-4.238a2.068,2.068,0,0,1,.722-1.592,2.4,2.4,0,0,1,1.66-.654H230.87a2.4,2.4,0,0,1,1.66.654,2.069,2.069,0,0,1,.723,1.592v4.629a2.136,2.136,0,0,1-.674,1.592,2.355,2.355,0,0,1-1.709.654H220.381a2.4,2.4,0,0,1-1.66-.654,2.067,2.067,0,0,1-.722-1.592v-4.629h0Zm8.632-5.879a2.634,2.634,0,0,1,.821-1.943,2.986,2.986,0,0,1,4.092,0,2.69,2.69,0,0,1,0,3.887,2.989,2.989,0,0,1-4.092,0,2.637,2.637,0,0,1-.821-1.944h0Zm-7.636,0a2.617,2.617,0,0,1,.83-1.943,3,3,0,0,1,4.1,0,2.69,2.69,0,0,1,0,3.887,3,3,0,0,1-4.1,0A2.619,2.619,0,0,1,219,266.5h0Z"/>
  <path id="_copy-3" data-name=" copy" class="cls-15" d="M261.488,266.364H242.511a0.89,0.89,0,0,0-.18.021,0.405,0.405,0,0,0-.2.123,0.344,0.344,0,0,0-.11.195,1.711,1.711,0,0,0-.01.194v12.586a2,2,0,0,0,.01.2,0.346,0.346,0,0,0,.11.2,0.468,0.468,0,0,0,.2.1,0.959,0.959,0,0,0,.18.02h18.977a0.969,0.969,0,0,0,.181-0.02,0.473,0.473,0,0,0,.2-0.1,0.351,0.351,0,0,0,.11-0.2c0.006-.068.01-0.136,0.01-0.2V266.774c0-.068,0-0.136-0.01-0.2a0.357,0.357,0,0,0-.11-0.205,0.482,0.482,0,0,0-.2-0.1,0.9,0.9,0,0,0-.181-0.021v0.123Zm-13.071-2.357h-3.844a0.341,0.341,0,0,0-.2.072,0.321,0.321,0,0,1-.18.072,0.313,0.313,0,0,0-.12.184,1.025,1.025,0,0,0-.02.205v1.312H248.8v-1.7a0.4,0.4,0,0,0-.19-0.123,0.838,0.838,0,0,0-.19-0.021h0ZM252,278.7a5.264,5.264,0,0,1-1.071-.1,6.254,6.254,0,0,1-.971-0.287,4.339,4.339,0,0,1-.881-0.5,7.775,7.775,0,0,1-.8-0.687,6.528,6.528,0,0,1-.671-0.8,3.8,3.8,0,0,1-.47-0.9,4.881,4.881,0,0,1-.291-1,6.265,6.265,0,0,1-.09-1.086,4.518,4.518,0,0,1,.11-0.984,3.575,3.575,0,0,1,.391-0.984,5.186,5.186,0,0,1,.47-0.9q0.27-.41.551-0.82a8.031,8.031,0,0,1,.8-0.687,3.7,3.7,0,0,1,.881-0.481,4.676,4.676,0,0,1,.971-0.3,5.848,5.848,0,0,1,1.071-.092,6.584,6.584,0,0,1,1.071.082l0.971,0.164a4.367,4.367,0,0,1,.881.5,8.263,8.263,0,0,1,.8.687,6.689,6.689,0,0,1,.671.8,3.861,3.861,0,0,1,.47.9,4.944,4.944,0,0,1,.291,1,6.412,6.412,0,0,1,.09,1.107,6.265,6.265,0,0,1-.09,1.086,4.944,4.944,0,0,1-.291,1,3.834,3.834,0,0,1-.47.9,6.619,6.619,0,0,1-.671.8,7.993,7.993,0,0,1-.8.687,4.367,4.367,0,0,1-.881.5,6.287,6.287,0,0,1-.971.287,5.264,5.264,0,0,1-1.071.1h0Zm0-8.793a2.689,2.689,0,0,0-.691.082c-0.207.054-.4,0.116-0.59,0.184l-0.561.41a1.675,1.675,0,0,0-.46.512,1.571,1.571,0,0,0-.491.472,2.582,2.582,0,0,0-.29.574c-0.053.191-.107,0.393-0.16,0.605a2.912,2.912,0,0,0-.08.707,3.162,3.162,0,0,0,.08.656c0.053,0.246.107,0.464,0.16,0.656q0.2,0.286.39,0.574a2.559,2.559,0,0,0,.391.471,1.553,1.553,0,0,0,.46.5,2.459,2.459,0,0,0,.561.3q0.279,0.083.59,0.164a2.689,2.689,0,0,0,.691.082,2.9,2.9,0,0,0,.64-0.082c0.241-.054.454-0.109,0.641-0.164q0.28-.2.56-0.42a1.892,1.892,0,0,0,.461-0.5,1.844,1.844,0,0,0,.49-0.482,2.378,2.378,0,0,0,.291-0.563q0.079-.308.16-0.615a2.794,2.794,0,0,0,.08-0.7,3.091,3.091,0,0,0-.08-0.666c-0.054-.239-0.107-0.455-0.16-0.646q-0.2-.307-0.391-0.584a3.677,3.677,0,0,0-.39-0.482,1.654,1.654,0,0,0-.461-0.482,2.512,2.512,0,0,0-.56-0.3c-0.187-.068-0.384-0.13-0.59-0.184a2.7,2.7,0,0,0-.691-0.082h0Z"/>
  <path id="_copy-4" data-name=" copy" class="cls-15" d="M284.092,266.345a0.3,0.3,0,0,0,.178.117,1,1,0,0,0,.2.019,1.881,1.881,0,0,0,.3-0.019,0.31,0.31,0,0,0,.2-0.117,0.332,0.332,0,0,0,.119-0.233,2.114,2.114,0,0,0,.02-0.252v-2.371a0.72,0.72,0,0,0-.02-0.175,0.106,0.106,0,0,0-.119-0.078,0.133,0.133,0,0,1-.118-0.058,0.135,0.135,0,0,0-.118-0.059H282.2a0.528,0.528,0,0,0-.306.078,1.777,1.777,0,0,0-.207.175,0.371,0.371,0,0,0-.108.253c-0.007.1-.01,0.181-0.01,0.233a0.3,0.3,0,0,0,.079.194l0.158,0.195a0.5,0.5,0,0,0,.256.1,2.167,2.167,0,0,0,.257.019h0.513l-4.3,4.722-5.566-5.344a1.247,1.247,0,0,0-.375-0.116,1.846,1.846,0,0,0-.187.009,0.343,0.343,0,0,0-.188.107l-5.94,5.344a0.984,0.984,0,0,0-.178.253,0.6,0.6,0,0,0-.079.253,0.562,0.562,0,0,0,.069.291,0.409,0.409,0,0,1,.069.195,0.947,0.947,0,0,0,.257.174,0.609,0.609,0,0,0,.237.078,0.62,0.62,0,0,0,.256-0.078,0.963,0.963,0,0,0,.257-0.174l5.427-4.975,5.685,5.48a0.441,0.441,0,0,1,.138.252h0.237a1.2,1.2,0,0,1,.128-0.116,0.267,0.267,0,0,1,.128-0.02,0.679,0.679,0,0,1,.257-0.116l4.678-5.228v0.506a0.513,0.513,0,0,0,.078.291,0.835,0.835,0,0,0,.178.194h0Zm-16.046,14.439,0.128-.126c0.02-.019.062-0.062,0.129-0.126v-6.957a0.265,0.265,0,0,0-.02-0.127,1.311,1.311,0,0,0-.119-0.126,1.245,1.245,0,0,0-.128-0.117,0.287,0.287,0,0,0-.128-0.019h-1.382a0.284,0.284,0,0,0-.128.019,1.142,1.142,0,0,0-.128.117,0.571,0.571,0,0,0-.109.126,0.482,0.482,0,0,0-.01.127v6.957a0.473,0.473,0,0,0,.01.126,0.571,0.571,0,0,0,.109.126,0.535,0.535,0,0,0,.128.107,0.486,0.486,0,0,0,.128.01h1.263a0.5,0.5,0,0,0,.129-0.01,0.58,0.58,0,0,0,.128-0.107h0Zm3.089-.126a0.122,0.122,0,0,0,.069-0.126v-9.076a0.26,0.26,0,0,0-.02-0.126,1.389,1.389,0,0,0-.118-0.126,0.313,0.313,0,0,0-.119-0.107,0.5,0.5,0,0,0-.118-0.01h-1.4a0.491,0.491,0,0,0-.128.01,0.58,0.58,0,0,0-.128.107q-0.079.1-.1,0.126a0.263,0.263,0,0,0-.019.126v9.076a0.263,0.263,0,0,0,.019.126q0.019,0.029.1,0.126a0.58,0.58,0,0,0,.128.107,0.491,0.491,0,0,0,.128.01h1.4a0.135,0.135,0,0,0,.118-0.058,0.135,0.135,0,0,1,.119-0.059A0.121,0.121,0,0,1,271.135,280.658Zm2.852,0.126c0.052-.065.085-0.107,0.1-0.126a0.26,0.26,0,0,0,.02-0.126v-11.7a0.27,0.27,0,0,0-.02-0.117,0.564,0.564,0,0,0-.1-0.116,1.212,1.212,0,0,0-.129-0.117,0.268,0.268,0,0,0-.128-0.019h-1.638a1.247,1.247,0,0,0-.118.126,0.248,0.248,0,0,0-.02.126v11.816a0.248,0.248,0,0,0,.02.126,1.247,1.247,0,0,0,.118.126,0.312,0.312,0,0,0,.118.107,0.508,0.508,0,0,0,.119.01h1.4a0.481,0.481,0,0,0,.128-0.01,0.552,0.552,0,0,0,.129-0.107h0Zm3.039-.126a1.2,1.2,0,0,1,.119-0.126v-8.823a0.257,0.257,0,0,0-.02-0.126,1.166,1.166,0,0,0-.119-0.127,1.2,1.2,0,0,0-.128-0.116,0.267,0.267,0,0,0-.128-0.02h-1.382a0.267,0.267,0,0,0-.128.02,1.2,1.2,0,0,0-.128.116,0.544,0.544,0,0,0-.109.127,0.468,0.468,0,0,0-.01.126v8.823a0.473,0.473,0,0,0,.01.126,0.571,0.571,0,0,0,.109.126,0.535,0.535,0,0,0,.128.107,0.486,0.486,0,0,0,.128.01h1.382a0.486,0.486,0,0,0,.128-0.01,0.535,0.535,0,0,0,.128-0.107A0.257,0.257,0,0,1,277.026,280.658Zm3,0a0.26,0.26,0,0,0,.02-0.126v-6.957a0.265,0.265,0,0,0-.02-0.127,1.389,1.389,0,0,0-.118-0.126,0.466,0.466,0,0,0-.119-0.117,0.294,0.294,0,0,0-.118-0.019h-1.4a0.29,0.29,0,0,0-.129.019,1.367,1.367,0,0,0-.128.117q-0.079.1-.1,0.126a0.268,0.268,0,0,0-.019.127v6.957a0.263,0.263,0,0,0,.019.126q0.02,0.029.1,0.126a0.58,0.58,0,0,0,.128.107,0.5,0.5,0,0,0,.129.01h1.4a0.5,0.5,0,0,0,.118-0.01,0.313,0.313,0,0,0,.119-0.107A1.389,1.389,0,0,0,280.026,280.658Zm2.941,0c0.013-.019.046-0.062,0.1-0.126V271.32a0.544,0.544,0,0,0-.01-0.116,0.315,0.315,0,0,0-.109-0.117,1.187,1.187,0,0,0-.128-0.116,0.27,0.27,0,0,0-.128-0.02h-1.382a0.267,0.267,0,0,0-.128.02,1.093,1.093,0,0,0-.128.116,0.3,0.3,0,0,0-.109.117,0.485,0.485,0,0,0-.01.116v9.212a0.473,0.473,0,0,0,.01.126,0.515,0.515,0,0,0,.109.126,0.535,0.535,0,0,0,.128.107,0.486,0.486,0,0,0,.128.01h1.382a0.491,0.491,0,0,0,.128-0.01,0.556,0.556,0,0,0,.128-0.107A0.257,0.257,0,0,1,282.967,280.658Zm3,0a0.26,0.26,0,0,0,.02-0.126V269.707a0.26,0.26,0,0,0-.02-0.126,1.389,1.389,0,0,0-.118-0.126c-0.066-.052-0.109-0.084-0.129-0.1a0.264,0.264,0,0,0-.128-0.02H284.21a0.667,0.667,0,0,0-.256.117,0.571,0.571,0,0,0-.109.126,0.54,0.54,0,0,0-.009.126v10.825a0.54,0.54,0,0,0,.009.126,0.571,0.571,0,0,0,.109.126,0.556,0.556,0,0,0,.128.107,0.486,0.486,0,0,0,.128.01h1.382a0.481,0.481,0,0,0,.128-0.01,0.552,0.552,0,0,0,.129-0.107h0A1.389,1.389,0,0,0,285.967,280.658Z"/>
  <path id="_copy-5" data-name=" copy" class="cls-15" d="M198.907,267.706a0.367,0.367,0,0,1-.322.11,0.438,0.438,0,0,1-.3-0.153,4.088,4.088,0,0,1-.718-1.269,4.3,4.3,0,0,1-.247-1.444,4.064,4.064,0,0,1,1.18-2.943,3.894,3.894,0,0,1,5.652,0,4.084,4.084,0,0,1,1.17,2.943,4.327,4.327,0,0,1-.247,1.444,4.378,4.378,0,0,1-.7,1.269,0.543,0.543,0,0,1-.161.109,0.452,0.452,0,0,1-.183.044,0.559,0.559,0,0,1-.161-0.022,0.315,0.315,0,0,1-.139-0.088,0.452,0.452,0,0,1-.161-0.328,0.416,0.416,0,0,1,.118-0.328,3.414,3.414,0,0,0,.536-0.985,3.317,3.317,0,0,0,.194-1.115,3.154,3.154,0,0,0-.912-2.276,3,3,0,0,0-4.366,0,3.173,3.173,0,0,0-.9,2.276,3.488,3.488,0,0,0,.183,1.115,2.986,2.986,0,0,0,.547.985,0.389,0.389,0,0,1,.107.328,0.5,0.5,0,0,1-.172.328h0Zm0.279-2.756a2.21,2.21,0,0,1,.622-1.576,2.021,2.021,0,0,1,1.523-.656,2,2,0,0,1,1.5.656,2.21,2.21,0,0,1,.622,1.576,2.423,2.423,0,0,1-.021.328,2.384,2.384,0,0,1-.065.306,2.122,2.122,0,0,0-.751-1.116,2.061,2.061,0,0,0-1.308-.437,2.1,2.1,0,0,0-1.287.415,2.02,2.02,0,0,0-.751,1.094,1.578,1.578,0,0,1-.064-0.284,2.1,2.1,0,0,1-.022-0.306h0Zm10.726,9.189a5.823,5.823,0,0,1-.193,2.648,13.764,13.764,0,0,1-1.652,3.325,0.371,0.371,0,0,0-.021.088l-0.172,2.822a0.173,0.173,0,0,1-.053.121,0.164,0.164,0,0,1-.118.054h-6.629a0.141,0.141,0,0,1-.086-0.033,0.2,0.2,0,0,1-.064-0.076l-4.72-9.408a1.155,1.155,0,0,1,.011-1.379,1.353,1.353,0,0,1,1.1-.612,1.1,1.1,0,0,1,.547.153,1.443,1.443,0,0,1,.482.481l0.6,0.963a0.589,0.589,0,0,0,.215.229,0.524,0.524,0,0,0,.279.077,0.561,0.561,0,0,0,.4-0.175,0.607,0.607,0,0,0,.183-0.459v-6.7a1.174,1.174,0,0,1,.4-0.962,1.306,1.306,0,0,1,.847-0.329,1.293,1.293,0,0,1,.858.329,1.189,1.189,0,0,1,.386.962v3.807a0.149,0.149,0,0,0,.065.132,0.257,0.257,0,0,0,.15.043h0.064a3.28,3.28,0,0,1,.322-0.087,1.849,1.849,0,0,1,.408-0.044,1.784,1.784,0,0,1,.772.2,1.691,1.691,0,0,1,.708.744,0.336,0.336,0,0,0,.086.066,0.187,0.187,0,0,0,.085.021h0.065c0.086-.029.2-0.061,0.332-0.1a1.762,1.762,0,0,1,1.18.109,1.7,1.7,0,0,1,.7.646,0.443,0.443,0,0,0,.183.2,0.5,0.5,0,0,0,.246.065,2.915,2.915,0,0,1,1.127.394,2.169,2.169,0,0,1,.911,1.685h0Z"/>
  <path id="Icon_User_copy_2" data-name="Icon User copy 2" class="cls-8" d="M288,283.683c0-.134.008-0.31,0.023-0.529a5.286,5.286,0,0,1,.251-1.057,2.662,2.662,0,0,1,.64-1.13,5.162,5.162,0,0,1,1.59-.856q1.188-.468,2.686-0.985a20.421,20.421,0,0,0,2.2-.863A3.161,3.161,0,0,0,296.753,277a3.4,3.4,0,0,0,.486-1.736,2.364,2.364,0,0,0-.755-1.447,6.4,6.4,0,0,1-1.24-2.331,11.081,11.081,0,0,1-.475-3.4,7.313,7.313,0,0,1,.423-2.576,4.63,4.63,0,0,1,1.155-1.808,5.04,5.04,0,0,1,1.663-1.029,5.62,5.62,0,0,1,2-.351,5.518,5.518,0,0,1,1.983.351,5.133,5.133,0,0,1,1.658,1.029,4.606,4.606,0,0,1,1.161,1.808,7.313,7.313,0,0,1,.423,2.576,11.244,11.244,0,0,1-.469,3.4,6.338,6.338,0,0,1-1.235,2.331,2.382,2.382,0,0,0-.766,1.447,3.382,3.382,0,0,0,.492,1.73,3.185,3.185,0,0,0,1.371,1.274,20.508,20.508,0,0,0,2.2.863q1.5,0.518,2.675.985a5.163,5.163,0,0,1,1.578.856,2.658,2.658,0,0,1,.64,1.08,4.356,4.356,0,0,1,.251,1.157L312,283.683H288Z"/>
  <path id="Line_18x2" data-name="Line 18x2" class="cls-16" d="M0,195H18v2H0v-2Zm0,5H18v2H0v-2Zm0,5H18v2H0v-2Z"/>
  <path id="Line_18x2-2" data-name="Line 18x2" class="cls-17" d="M18,195H36v2H18v-2Zm0,5H36v2H18v-2Zm0,5H36v2H18v-2Z"/>
  <path id="Icon_User" data-name="Icon User" class="cls-15" d="M36,210.012q0-.15.017-0.4a3.959,3.959,0,0,1,.189-0.793,1.983,1.983,0,0,1,.48-0.847,3.864,3.864,0,0,1,1.192-.643q0.892-.351,2.015-0.739a15.337,15.337,0,0,0,1.646-.646A2.376,2.376,0,0,0,42.565,205a2.551,2.551,0,0,0,.364-1.3,1.77,1.77,0,0,0-.566-1.085,4.794,4.794,0,0,1-.931-1.748,8.328,8.328,0,0,1-.356-2.55,5.483,5.483,0,0,1,.317-1.932,3.465,3.465,0,0,1,.866-1.356,3.756,3.756,0,0,1,1.248-.772,4.2,4.2,0,0,1,1.5-.263,4.129,4.129,0,0,1,1.488.263,3.826,3.826,0,0,1,1.243.772,3.443,3.443,0,0,1,.87,1.356,5.486,5.486,0,0,1,.317,1.932,8.424,8.424,0,0,1-.352,2.55,4.749,4.749,0,0,1-.926,1.748,1.789,1.789,0,0,0-.574,1.085,2.54,2.54,0,0,0,.369,1.3,2.393,2.393,0,0,0,1.029.956,15.327,15.327,0,0,0,1.647.646q1.123,0.389,2.006.739a3.863,3.863,0,0,1,1.183.643,1.991,1.991,0,0,1,.48.809,3.3,3.3,0,0,1,.189.868L54,210.012H36Z"/>
  <path id="Icon_User_copy" data-name="Icon User copy" class="cls-8" d="M611,210.012q0-.15.018-0.4a3.939,3.939,0,0,1,.188-0.793,2,2,0,0,1,.48-0.847,3.883,3.883,0,0,1,1.192-.643q0.892-.351,2.015-0.739a15.358,15.358,0,0,0,1.647-.646,2.377,2.377,0,0,0,1.025-.952,2.55,2.55,0,0,0,.364-1.3,1.771,1.771,0,0,0-.566-1.085,4.792,4.792,0,0,1-.93-1.748,8.307,8.307,0,0,1-.356-2.55,5.5,5.5,0,0,1,.317-1.932,3.471,3.471,0,0,1,.866-1.356,3.757,3.757,0,0,1,1.248-.772,4.2,4.2,0,0,1,1.5-.263,4.129,4.129,0,0,1,1.488.263,3.817,3.817,0,0,1,1.243.772,3.445,3.445,0,0,1,.871,1.356,5.5,5.5,0,0,1,.317,1.932,8.4,8.4,0,0,1-.352,2.55,4.745,4.745,0,0,1-.926,1.748,1.788,1.788,0,0,0-.574,1.085,2.537,2.537,0,0,0,.369,1.3,2.387,2.387,0,0,0,1.028.956,15.358,15.358,0,0,0,1.647.646q1.124,0.389,2.006.739a3.867,3.867,0,0,1,1.184.643,1.987,1.987,0,0,1,.48.809,3.345,3.345,0,0,1,.189.868L629,210.012H611Z"/>
  <path id="Rectangle_1_copy_2" data-name="Rectangle 1 copy 2" class="cls-18" d="M90.011,208.209l-1.8,1.8L81,202.8l-7.209,7.209-1.8-1.8L79.2,201l-7.209-7.209,1.8-1.8L81,199.2l7.209-7.209,1.8,1.8L82.8,201Z"/>
  <path id="Icon_Close" data-name="Icon Close" class="cls-9" d="M107.989,193.823L100.8,201l7.19,7.177-1.813,1.809-7.189-7.176L91.8,209.986l-1.812-1.809L97.174,201l-7.189-7.177,1.813-1.809,7.189,7.177,7.189-7.177Z"/>
  <path id="Icon_User-2" data-name="Icon User" class="cls-9" d="M54,210.012q0-.15.017-0.4a3.973,3.973,0,0,1,.189-0.793,1.985,1.985,0,0,1,.48-0.847,3.869,3.869,0,0,1,1.192-.643q0.892-.351,2.015-0.739a15.328,15.328,0,0,0,1.646-.646A2.376,2.376,0,0,0,60.565,205a2.552,2.552,0,0,0,.364-1.3,1.77,1.77,0,0,0-.566-1.085,4.794,4.794,0,0,1-.93-1.748,8.328,8.328,0,0,1-.356-2.55,5.486,5.486,0,0,1,.317-1.932,3.466,3.466,0,0,1,.866-1.356,3.756,3.756,0,0,1,1.248-.772,4.2,4.2,0,0,1,1.5-.263,4.13,4.13,0,0,1,1.488.263,3.822,3.822,0,0,1,1.243.772,3.443,3.443,0,0,1,.87,1.356,5.483,5.483,0,0,1,.317,1.932,8.427,8.427,0,0,1-.352,2.55,4.751,4.751,0,0,1-.926,1.748,1.79,1.79,0,0,0-.575,1.085,2.54,2.54,0,0,0,.369,1.3,2.393,2.393,0,0,0,1.029.956,15.328,15.328,0,0,0,1.646.646q1.123,0.389,2.007.739a3.866,3.866,0,0,1,1.183.643,1.993,1.993,0,0,1,.48.809,3.315,3.315,0,0,1,.189.868L72,210.012H54Z"/>
  <path id="Icon_Facebook" data-name="Icon Facebook" class="cls-19" d="M142.963,191.934a1.019,1.019,0,0,1,.708.294,0.908,0.908,0,0,1,.317.685V208.96a0.908,0.908,0,0,1-.317.685,1.022,1.022,0,0,1-.708.293h-4.586v-6.947h2.342l0.341-2.74h-2.683V198.49a1.188,1.188,0,0,1,1.366-1.321h1.415v-2.4a11.351,11.351,0,0,0-2.1-.147,3.392,3.392,0,0,0-2.513.954,3.608,3.608,0,0,0-.952,2.667v2h-2.342v2.74H135.6v6.947h-8.637a1,1,0,0,1-.975-0.978V192.913a1,1,0,0,1,.975-0.979h16Z"/>
  <path id="Icon_Google" data-name="Icon Google" class="cls-20" d="M161.711,197.6v-1.426h-2.83v-2.853h-1.366v2.853h-2.879V197.6h2.879v2.853h1.366V197.6h2.83ZM160.735,192a1.222,1.222,0,0,1,.9.369,1.241,1.241,0,0,1,.366.91v15.444a1.241,1.241,0,0,1-.366.91,1.222,1.222,0,0,1-.9.369H153.66a4.34,4.34,0,0,0,.146-1.131,4.091,4.091,0,0,0-.634-2.263,8.532,8.532,0,0,0-1.464-1.574l-0.927-.738a4.706,4.706,0,0,1-.44-0.492,1.189,1.189,0,0,1-.244-0.688,1.486,1.486,0,0,1,.244-0.787l0.44-.59q0.048-.05.365-0.3a4.994,4.994,0,0,0,.464-0.393,5.131,5.131,0,0,0,.634-0.787,4.113,4.113,0,0,0,.635-2.361,5.978,5.978,0,0,0-.195-1.426,4.4,4.4,0,0,0-.488-1.033,5.881,5.881,0,0,0-.586-0.787,4.392,4.392,0,0,0-.585-0.443h1.659l1.708-.984h-5.417a13.528,13.528,0,0,0-2.342.246,5.763,5.763,0,0,0-2.391,1.23,1.28,1.28,0,0,0-.122.148A1.623,1.623,0,0,1,144,195v-1.721a1.2,1.2,0,0,1,.39-0.91,1.247,1.247,0,0,1,.879-0.369h15.468ZM149.17,206.309a14.657,14.657,0,0,1,2.245,1.82,2.693,2.693,0,0,1,.683,1.82V210h-6.831a1.247,1.247,0,0,1-.879-0.369,1.2,1.2,0,0,1-.39-0.91v-0.738a5.543,5.543,0,0,1,.439-0.541,3.745,3.745,0,0,1,.781-0.492c0.065-.033.162-0.073,0.293-0.123a3.115,3.115,0,0,0,.292-0.123q0.195-.048,1.708-0.344c0.391-.033.748-0.049,1.074-0.049h0.585Zm-0.732-.787a17.546,17.546,0,0,0-2.391.246,8.762,8.762,0,0,0-2.049.639v-4.869a4.07,4.07,0,0,0,3.025,1.131,5.747,5.747,0,0,0,.879-0.049l-0.147.443a2.023,2.023,0,0,0-.1.639,1.936,1.936,0,0,0,.245,1.033A4.845,4.845,0,0,0,148.438,205.522Zm-1.659-4.132a4.265,4.265,0,0,1-1.073-1.279,6.331,6.331,0,0,1-.83-3.049,3.653,3.653,0,0,1,.586-2.066,2.255,2.255,0,0,1,1.805-.885,2.609,2.609,0,0,1,1.464.492,3.491,3.491,0,0,1,1.025,1.278,7.378,7.378,0,0,1,.829,3.3,6.623,6.623,0,0,1-.048.885,2.091,2.091,0,0,1-2.245,1.869A2.379,2.379,0,0,1,146.779,201.39Z"/>
  <path class="cls-15" d="M177.361,194.641l2.64-2.628V199.9h-7.919l3.643-3.626a6.723,6.723,0,1,0-4.751,11.456,6.672,6.672,0,0,0,3.959-1.235,6.434,6.434,0,0,0,2.428-3.232h2.323a8.641,8.641,0,0,1-3.167,4.835,8.778,8.778,0,0,1-5.543,1.892A8.987,8.987,0,1,1,177.361,194.641Z"/>
  <path id="Icon_Arrow_Left" data-name="Icon Arrow Left" class="cls-15" d="M198.01,199.894V202.1h-13.7l6.272,6.314L189,210l-9.013-9L189,192l1.633,1.578-6.324,6.314h13.7Z"/>
  <path id="Icon_Arrow_Left_copy" data-name="Icon Arrow Left copy" class="cls-15" d="M197.99,199.894V202.1h13.7l-6.272,6.314L207,210l9.013-9L207,192l-1.634,1.578,6.325,6.314h-13.7Z"/>
  <path id="Icon_Arrow_Left_copy_2" data-name="Icon Arrow Left copy 2" class="cls-15" d="M223.894,210.01H226.1v-13.7l6.314,6.272L234,201l-9-9.013L216,201l1.578,1.634,6.314-6.325v13.7Z"/>
  <path id="Icon_Arrow_Left_copy_3" data-name="Icon Arrow Left copy 3" class="cls-15" d="M241.894,191.99H244.1v13.7l6.314-6.272L252,201l-9,9.013L234,201l1.579-1.634,6.314,6.325v-13.7Z"/>
  <path id="Icon_Bell" data-name="Icon Bell" class="cls-8" d="M262.64,209.437A2.546,2.546,0,0,1,261,210a2.485,2.485,0,0,1-1.641-.586,2.123,2.123,0,0,1-.8-1.43h4.875A2.2,2.2,0,0,1,262.64,209.437Zm4.266-9.843q0,0.984.07,1.8t0.141,1.383a3.835,3.835,0,0,0,.328,1.125,6.146,6.146,0,0,1,.328.821,1.983,1.983,0,0,0,.493.7c0.281,0.3.437,0.468,0.468,0.515a6.114,6.114,0,0,0,.633.539q0.586,0.469.633,0.516H252a5.42,5.42,0,0,1,.515-0.422,5.435,5.435,0,0,0,.493-0.4c0.078-.078.218-0.219,0.422-0.422a3.083,3.083,0,0,0,.421-0.492q0.119-.187.352-0.539a2.575,2.575,0,0,0,.328-0.657c0.063-.2.141-0.468,0.235-0.8a5.5,5.5,0,0,0,.187-1.007q0.047-.516.094-1.2t0.047-1.476q0-5.673,4.781-6.469v-0.094a0.956,0.956,0,0,1,.328-0.726,1.194,1.194,0,0,1,1.594,0,0.956,0.956,0,0,1,.328.726v0.094Q266.906,193.829,266.906,199.594Z"/>
  <path id="Icon_Bell_copy" data-name="Icon Bell copy" class="cls-5" d="M280.641,209.437A2.551,2.551,0,0,1,279,210a2.485,2.485,0,0,1-1.641-.586,2.123,2.123,0,0,1-.8-1.43h4.875A2.2,2.2,0,0,1,280.641,209.437Zm4.265-9.843q0,0.984.07,1.8t0.141,1.383a3.835,3.835,0,0,0,.328,1.125,6.146,6.146,0,0,1,.328.821,1.983,1.983,0,0,0,.493.7c0.281,0.3.437,0.468,0.468,0.515a6.114,6.114,0,0,0,.633.539q0.586,0.469.633,0.516H270a5.42,5.42,0,0,1,.515-0.422,5.435,5.435,0,0,0,.493-0.4c0.078-.078.218-0.219,0.422-0.422a3.083,3.083,0,0,0,.421-0.492c0.078-.125.2-0.3,0.352-0.539a2.575,2.575,0,0,0,.328-0.657c0.063-.2.141-0.468,0.234-0.8a5.42,5.42,0,0,0,.188-1.007q0.047-.516.094-1.2t0.047-1.476q0-5.673,4.781-6.469v-0.094a0.956,0.956,0,0,1,.328-0.726,1.194,1.194,0,0,1,1.594,0,0.96,0.96,0,0,1,.328.726v0.094Q284.906,193.829,284.906,199.594Z"/>
  <path id="Icon_PDF" data-name="Icon PDF" class="cls-3" d="M304.215,192a1.8,1.8,0,0,1,1.772,1.775v10.821a1.779,1.779,0,0,1-.527,1.268,1.672,1.672,0,0,1-1.245.549h-10.8a1.876,1.876,0,0,1-1.814-1.817V193.772a1.677,1.677,0,0,1,.548-1.247,1.773,1.773,0,0,1,1.266-.528h10.8Zm-7.679,6.763v-0.93a1.371,1.371,0,0,0-1.351-1.353h-2.236v5.411h1.35v-1.776h0.886A1.369,1.369,0,0,0,296.536,198.76Zm4.514,1.775v-2.7a1.339,1.339,0,0,0-.379-0.951,1.277,1.277,0,0,0-.971-0.4h-2.236v5.411H299.7a1.277,1.277,0,0,0,.971-0.4A1.339,1.339,0,0,0,301.05,200.535Zm3.587-2.7v-1.353h-2.7v5.411h1.35v-1.776h1.35V198.76h-1.35v-0.93h1.35Zm-10.338.93v-0.93h0.886v0.93H294.3Zm-4.515-3.17v12.638H302.4V210H289.784a1.8,1.8,0,0,1-1.772-1.775V195.59h1.772Zm9.03,4.945v-2.7H299.7v2.7h-0.886Z"/>
  <path id="Icon_Facebook-2" data-name="Icon Facebook" class="cls-21" d="M370.331,196.9a1.511,1.511,0,0,1,.194-0.883,1.24,1.24,0,0,1,.972-0.26h1.443V193h-2.332a3.332,3.332,0,0,0-2.721.909,4.333,4.333,0,0,0-.721,2.727v1.611H365V201h2.166v8h3.165v-8h2.332L373,198.246h-2.665V196.9Z"/>
  <path id="Icon_Google-2" data-name="Icon Google" class="cls-22" d="M386.28,202.194a2.517,2.517,0,0,1-1.321-1.508,1.162,1.162,0,0,1,.2-0.705,4.935,4.935,0,0,1,.782-0.754,3.153,3.153,0,0,0,1.419-2.578,3.636,3.636,0,0,0-.44-1.776,2.313,2.313,0,0,0-1.174-1.094h1.565l1.125-.779h-4.989a4.614,4.614,0,0,0-3.033,1.095,3.242,3.242,0,0,0-1.321,2.554,3.425,3.425,0,0,0,1.076,2.553,3.768,3.768,0,0,0,2.74,1.046,1.8,1.8,0,0,0,.44-0.049,2.068,2.068,0,0,0-.245.925,2,2,0,0,0,.685,1.41h-0.88a5.541,5.541,0,0,0-3.449,1.095,3.092,3.092,0,0,0-1.443,2.456,2.389,2.389,0,0,0,1.492,2.116,7.607,7.607,0,0,0,3.644.8,5.511,5.511,0,0,0,3.571-1.07,3.137,3.137,0,0,0,1.321-2.481,3.737,3.737,0,0,0-.391-1.824A4.825,4.825,0,0,0,386.28,202.194Zm-2.666-2.457a2.416,2.416,0,0,1-1.761-.948,4.072,4.072,0,0,1-.979-2.165,2.944,2.944,0,0,1,.392-2.091,1.7,1.7,0,0,1,1.541-.827,2.483,2.483,0,0,1,1.785.9,3.7,3.7,0,0,1,.954,2.14,3.087,3.087,0,0,1-.44,2.14A1.614,1.614,0,0,1,383.614,199.737Zm-0.514,8.489a3.532,3.532,0,0,1-2.348-.779,2.39,2.39,0,0,1-.929-1.9,2.209,2.209,0,0,1,1.1-1.8,4.263,4.263,0,0,1,2.52-.778,4.319,4.319,0,0,1,1.272.195,2.876,2.876,0,0,0,.391.292c0.2,0.129.334,0.227,0.416,0.291s0.187,0.146.318,0.244a2.812,2.812,0,0,1,.293.243c0.065,0.065.147,0.154,0.245,0.267a1.59,1.59,0,0,1,.22.317,0.64,0.64,0,0,1,.073.291,1.706,1.706,0,0,1,.1.536Q386.769,208.225,383.1,208.226Zm9.784-13.815h-1.566v3.113h-3.13v1.6h3.13v3.065h1.566v-3.065h3.131v-1.6h-3.131v-3.113Z"/>
  <path id="Icon_Tiwtter" data-name="Icon Tiwtter" class="cls-23" d="M412.53,195.26a6.042,6.042,0,0,1-2.085.78,3.084,3.084,0,0,0-2.4-1.04,3.288,3.288,0,0,0-3.283,3.276,2.806,2.806,0,0,0,.105.78,8.915,8.915,0,0,1-6.775-3.432,3.183,3.183,0,0,0-.469,1.664,3.075,3.075,0,0,0,1.511,2.7,2.836,2.836,0,0,1-1.511-.416v0.052a3.1,3.1,0,0,0,.756,2.08,3.446,3.446,0,0,0,1.9,1.144,4.123,4.123,0,0,1-.886.1,3.876,3.876,0,0,1-.625-0.052,3.156,3.156,0,0,0,1.146,1.612,3.416,3.416,0,0,0,1.928.676,6.5,6.5,0,0,1-4.064,1.4,5.65,5.65,0,0,1-.782-0.052A9.158,9.158,0,0,0,402,208a8.661,8.661,0,0,0,6.826-2.886,9.464,9.464,0,0,0,2.554-6.422,1.7,1.7,0,0,0-.053-0.416A7.091,7.091,0,0,0,413,196.56a6.337,6.337,0,0,1-1.876.52A3.1,3.1,0,0,0,412.53,195.26Z"/>
  <path id="Icon_Google_24-2" data-name="Icon Google 24" class="cls-2" d="M349.91,199.734a2.236,2.236,0,0,0,.316-1.546,2.675,2.675,0,0,0-.685-1.547,1.785,1.785,0,0,0-1.283-.651,1.223,1.223,0,0,0-1.108.6,2.142,2.142,0,0,0-.281,1.512,2.942,2.942,0,0,0,.7,1.564,1.738,1.738,0,0,0,1.266.686A1.162,1.162,0,0,0,349.91,199.734Zm-0.281,3.094a3.091,3.091,0,0,0-.914-0.141,3.048,3.048,0,0,0-1.811.563,1.6,1.6,0,0,0-.791,1.3,1.731,1.731,0,0,0,.668,1.371,2.531,2.531,0,0,0,1.688.562q2.636,0,2.636-1.863a1.232,1.232,0,0,0-.07-0.387,0.474,0.474,0,0,0-.053-0.211,1.166,1.166,0,0,0-.158-0.228c-0.07-.082-0.129-0.147-0.176-0.194a2.131,2.131,0,0,0-.211-0.175c-0.093-.071-0.17-0.129-0.228-0.176s-0.158-.117-0.3-0.211A2.08,2.08,0,0,1,349.629,202.828Zm8.121-2.918H355.5v2.215h-1.125V199.91h-2.25v-1.16h2.25V196.5H355.5v2.25h2.25v1.16Zm-9.246,7.137a5.45,5.45,0,0,1-2.619-.58,1.729,1.729,0,0,1-1.073-1.53,2.237,2.237,0,0,1,1.038-1.775,3.968,3.968,0,0,1,2.478-.791h0.633a1.447,1.447,0,0,1-.492-1.019,1.5,1.5,0,0,1,.175-0.668,1.323,1.323,0,0,1-.316.035,2.7,2.7,0,0,1-1.969-.756,2.484,2.484,0,0,1-.773-1.846,2.346,2.346,0,0,1,.949-1.845,3.3,3.3,0,0,1,2.18-.791H352.3l-0.809.562h-1.125a1.665,1.665,0,0,1,.844.791,2.637,2.637,0,0,1,.316,1.283,2.281,2.281,0,0,1-1.019,1.863,3.61,3.61,0,0,0-.563.545,0.846,0.846,0,0,0-.14.51,1.816,1.816,0,0,0,.949,1.09,3.457,3.457,0,0,1,.984,1.037,2.709,2.709,0,0,1,.281,1.318,2.268,2.268,0,0,1-.949,1.793A3.941,3.941,0,0,1,348.5,207.047Zm8.859-12.41A9,9,0,1,0,360,201,8.671,8.671,0,0,0,357.363,194.637Z"/>
  <path id="Icon_Facebook_24-2" data-name="Icon Facebook 24" class="cls-6" d="M317.32,201h-1.477v5.414h-2V201h-1.371v-1.863h1.371v-1.09a3.089,3.089,0,0,1,.457-1.846,2.032,2.032,0,0,1,1.723-.615H317.5v1.863h-0.915a0.751,0.751,0,0,0-.615.176,1.082,1.082,0,0,0-.123.6v0.914h1.688Zm4.043-6.363A9,9,0,1,0,324,201,8.671,8.671,0,0,0,321.363,194.637Z"/>
  <path id="Icon_Twitter_24-2" data-name="Icon Twitter 24" class="cls-7" d="M337.465,199a1.132,1.132,0,0,1,.035.281,6.406,6.406,0,0,1-1.722,4.342,5.839,5.839,0,0,1-4.606,1.951,6.17,6.17,0,0,1-3.375-.984,3.8,3.8,0,0,0,.528.035,4.378,4.378,0,0,0,2.742-.949,2.3,2.3,0,0,1-1.3-.457,2.135,2.135,0,0,1-.773-1.09,2.6,2.6,0,0,0,.421.035,2.751,2.751,0,0,0,.6-0.07,2.317,2.317,0,0,1-1.283-.774,2.1,2.1,0,0,1-.51-1.406v-0.035a1.913,1.913,0,0,0,1.02.281,2.078,2.078,0,0,1-1.02-1.828,2.153,2.153,0,0,1,.317-1.125,6.006,6.006,0,0,0,4.57,2.32,1.9,1.9,0,0,1-.07-0.527,2.221,2.221,0,0,1,2.214-2.215,2.08,2.08,0,0,1,1.617.7,4.048,4.048,0,0,0,1.407-.527,2.1,2.1,0,0,1-.95,1.231,4.29,4.29,0,0,0,1.266-.352A4.818,4.818,0,0,1,337.465,199Zm1.9-4.359A9,9,0,1,0,342,201,8.672,8.672,0,0,0,339.364,194.637Z"/>
  <path id="Icon_Search" data-name="Icon Search" class="cls-3" d="M120.881,203.338L126,208.454,124.452,210l-5.115-5.115v-0.821l-0.29-.289a6.41,6.41,0,0,1-4.343,1.592,6.51,6.51,0,0,1-4.753-1.93A6.392,6.392,0,0,1,108,198.706,6.673,6.673,0,0,1,114.7,192a6.388,6.388,0,0,1,4.729,1.954,6.513,6.513,0,0,1,1.931,4.754,6.409,6.409,0,0,1-1.593,4.343l0.29,0.289h0.82Zm-6.177,0a4.614,4.614,0,1,0-3.281-1.351A4.468,4.468,0,0,0,114.7,203.338Z"/>
  <path id="Icon_VnExpress-2" data-name="Icon VnExpress" class="cls-5" d="M417.286,194.286v13.428h11.428v-2.286H421v-3.142h3.143v-2.572H421v-3.142h7.714v-2.286H417.286ZM430.142,192H415.857a0.858,0.858,0,0,0-.857.858v16.284a0.857,0.857,0,0,0,.857.857h14.285a0.857,0.857,0,0,0,.858-0.857V192.858A0.858,0.858,0,0,0,430.142,192Zm-0.571,4.6a0.765,0.765,0,0,1-.774.827h-6.94v1.428h2.368a0.817,0.817,0,0,1,.775.887v2.572a0.765,0.765,0,0,1-.775.827h-2.368v1.428h6.94a0.817,0.817,0,0,1,.774.887v2.286a0.765,0.765,0,0,1-.774.827H417.369a0.907,0.907,0,0,1-.94-0.827V194.316a0.957,0.957,0,0,1,.94-0.887H428.8a0.817,0.817,0,0,1,.774.887V196.6Z"/>
  <path id="Icon_Arrow_Left-2" data-name="Icon Arrow Left" class="cls-1" d="M539.01,199.894V202.1h-13.7l6.272,6.314L530,210l-9.013-9L530,192l1.633,1.578-6.324,6.314h13.7Z"/>
  <path id="Icon_Arrow_Left_copy-2" data-name="Icon Arrow Left copy" class="cls-1" d="M538.989,199.894V202.1h13.7l-6.272,6.314L548,210l9.012-9L548,192l-1.634,1.578,6.325,6.314h-13.7Z"/>
  <path id="Icon_Arrow_Left_copy_4" data-name="Icon Arrow Left copy 4" class="cls-1" d="M567.106,210.01H564.9v-13.7l-6.314,6.272L557.005,201l9-9.013L575,201l-1.578,1.633-6.314-6.324v13.7Z"/>
  <path id="Icon_Arrow_Left_copy_4-2" data-name="Icon Arrow Left copy 4" class="cls-1" d="M585.106,191.989H582.9v13.7l-6.314-6.272L575.005,201l9,9.012L593,201l-1.578-1.634-6.314,6.325v-13.7Z"/>
  <path id="Rectangle_1_copy_2-2" data-name="Rectangle 1 copy 2" class="cls-1" d="M521.011,208.209l-1.8,1.8L512,202.8l-7.209,7.209-1.8-1.8L510.2,201l-7.209-7.209,1.8-1.8L512,199.2l7.208-7.209,1.8,1.8L513.8,201Z"/>
  <path id="_copy_2-2" data-name=" copy 2" class="cls-1" d="M493.8,192.723a7.6,7.6,0,0,0-2.486.413,6.866,6.866,0,0,0-2.143,1.187,5.86,5.86,0,0,0-1.508,1.872,5.392,5.392,0,0,0-.566,2.5,6.48,6.48,0,0,0,.429,2.189,2.318,2.318,0,0,0,1.337,1.52h0.2a0.564,0.564,0,0,0,.4-0.536,3.5,3.5,0,0,0,.146-0.712,1.483,1.483,0,0,0-.377-0.738,2.475,2.475,0,0,1-.377-1.512,4.649,4.649,0,0,1,.36-1.845,4.273,4.273,0,0,1,1-1.451,4.353,4.353,0,0,1,1.5-.922,4.81,4.81,0,0,1,1.851-.282,4.467,4.467,0,0,1,1.526.255,3.561,3.561,0,0,1,1.217.73,3.314,3.314,0,0,1,.805,1.16,4,4,0,0,1,.292,1.582,9.9,9.9,0,0,1-.137,1.5,6.882,6.882,0,0,1-.48,1.661,4.139,4.139,0,0,1-.917,1.345,1.982,1.982,0,0,1-1.432.553,1.591,1.591,0,0,1-1.1-.4,1.372,1.372,0,0,1-.446-1.081,4.363,4.363,0,0,1,.446-1.863,4.55,4.55,0,0,0,.446-1.952,1.51,1.51,0,0,0-.377-1.028,1.2,1.2,0,0,0-.943-0.431,1.463,1.463,0,0,0-1.294.739,2.771,2.771,0,0,0-.472,1.511q0,0.423.043,0.879a1.593,1.593,0,0,0,.3.809q-0.171.7-.394,1.6t-0.429,1.836q-0.206.942-.351,1.855a10.576,10.576,0,0,0-.146,1.67q0,0.51.009,0.958a6.469,6.469,0,0,0,.094.958l0.12,0.123h0.1a9.379,9.379,0,0,0,1.483-2.575q0.248-.888.814-3.173a2.3,2.3,0,0,0,.994.923,2.923,2.923,0,0,0,1.32.325,4.182,4.182,0,0,0,2.272-.6,5.054,5.054,0,0,0,1.568-1.547,6.922,6.922,0,0,0,.909-2.135,9.9,9.9,0,0,0,.291-2.365,5.233,5.233,0,0,0-.488-2.285,5.381,5.381,0,0,0-1.312-1.74,5.875,5.875,0,0,0-1.894-1.107,6.487,6.487,0,0,0-2.22-.387h0Z"/>
  <path id="_copy_2-3" data-name=" copy 2" class="cls-1" d="M476.507,195.7h2.64v-3.375h-2.64a3.718,3.718,0,0,0-.805.088,2.8,2.8,0,0,0-.72.264,3,3,0,0,0-.652.413,3.679,3.679,0,0,0-.565.589,3.047,3.047,0,0,0-.515.686,8.38,8.38,0,0,0-.36.773,2.965,2.965,0,0,0-.248.809,5.207,5.207,0,0,0-.077.878v1.688h-2.64v3.375h2.64v8.1h3.291v-8.209h3.291v-3.374h-3.291v-1.688a0.894,0.894,0,0,1,.069-0.343,3.323,3.323,0,0,1,.154-0.325,0.527,0.527,0,0,1,.206-0.264,0.455,0.455,0,0,1,.222-0.088h0Z"/>
  <path id="_copy-6" data-name=" copy" class="cls-3" d="M458.9,193a7.882,7.882,0,0,0-2.561.422,7.094,7.094,0,0,0-2.208,1.211,6.015,6.015,0,0,0-1.554,1.91,5.459,5.459,0,0,0-.583,2.557,6.552,6.552,0,0,0,.442,2.234,2.376,2.376,0,0,0,1.377,1.551h0.212a0.578,0.578,0,0,0,.415-0.547,3.563,3.563,0,0,0,.151-0.726,1.507,1.507,0,0,0-.389-0.754,2.512,2.512,0,0,1-.389-1.543,4.716,4.716,0,0,1,.371-1.884,4.371,4.371,0,0,1,1.034-1.48,4.511,4.511,0,0,1,1.545-.942,5,5,0,0,1,1.908-.287,4.629,4.629,0,0,1,1.572.26,3.691,3.691,0,0,1,1.254.745,3.4,3.4,0,0,1,.83,1.184,4.071,4.071,0,0,1,.3,1.615,9.987,9.987,0,0,1-.141,1.534,6.891,6.891,0,0,1-.5,1.695,4.192,4.192,0,0,1-.945,1.373,2.053,2.053,0,0,1-1.474.565,1.652,1.652,0,0,1-1.131-.4,1.393,1.393,0,0,1-.459-1.1,4.422,4.422,0,0,1,.459-1.9,4.6,4.6,0,0,0,.459-1.991,1.532,1.532,0,0,0-.388-1.05,1.244,1.244,0,0,0-.972-0.44,1.51,1.51,0,0,0-1.333.754,2.815,2.815,0,0,0-.486,1.543q0,0.431.044,0.9a1.618,1.618,0,0,0,.309.825q-0.177.718-.406,1.633t-0.442,1.875q-0.211.96-.362,1.892a10.821,10.821,0,0,0-.15,1.7q0,0.52.009,0.978a6.6,6.6,0,0,0,.1.977l0.124,0.126h0.106a9.547,9.547,0,0,0,1.528-2.628q0.255-.906.839-3.239a2.348,2.348,0,0,0,1.024.942,3.032,3.032,0,0,0,1.36.332,4.341,4.341,0,0,0,2.341-.61,5.192,5.192,0,0,0,1.616-1.579,7,7,0,0,0,.936-2.18,10,10,0,0,0,.3-2.413,5.294,5.294,0,0,0-.5-2.332,5.507,5.507,0,0,0-1.351-1.776,6.073,6.073,0,0,0-1.952-1.13,6.751,6.751,0,0,0-2.288-.4h0Z"/>
  <path id="_copy-7" data-name=" copy" class="cls-3" d="M441.421,195.433h2.573v-3.441h-2.573a3.431,3.431,0,0,0-.785.09,2.67,2.67,0,0,0-.7.268,2.934,2.934,0,0,0-.635.422,3.647,3.647,0,0,0-.551.6,3.087,3.087,0,0,0-.5.7,8.241,8.241,0,0,0-.351.788,3.135,3.135,0,0,0-.242.825,5.631,5.631,0,0,0-.075.9v1.72h-2.573v3.441h2.573V210h3.207v-8.369h3.208v-3.441h-3.208v-1.72a0.958,0.958,0,0,1,.067-0.349,3.551,3.551,0,0,1,.151-0.332,0.538,0.538,0,0,1,.2-0.269,0.435,0.435,0,0,1,.217-0.089h0Z"/>
  <path id="_copy-8" data-name=" copy" class="cls-3" d="M595.857,198.429a1.144,1.144,0,1,1,.808-0.335A1.1,1.1,0,0,1,595.857,198.429Zm10.339,3.187-6.384-6.375a3.154,3.154,0,0,0-1.955-.812h-3.714A1.158,1.158,0,0,0,593,195.571v3.715a2.752,2.752,0,0,0,.237,1.044,2.65,2.65,0,0,0,.575.9l6.384,6.393a1.094,1.094,0,0,0,.8.33,1.144,1.144,0,0,0,.812-0.33l4.384-4.393a1.091,1.091,0,0,0,.331-0.8,1.141,1.141,0,0,0-.331-0.813h0Zm3.429,0-6.384-6.375a3.161,3.161,0,0,0-1.955-.812h-2a3.161,3.161,0,0,1,1.955.812l6.384,6.375a1.144,1.144,0,0,1,.33.813,1.093,1.093,0,0,1-.33.8l-4.2,4.2a2.512,2.512,0,0,0,.473.4,0.993,0.993,0,0,0,.527.125,1.144,1.144,0,0,0,.812-0.33l4.384-4.393a1.093,1.093,0,0,0,.33-0.8,1.144,1.144,0,0,0-.33-0.813h0Z"/>
  <path id="Arrow_Right" data-name="Arrow Right" class="cls-8" d="M3.006,126.95l1.2-.95,9.786,8-9.786,8-1.2-.95L11.59,134Z"/>
  <path id="Arrow_Right_copy" data-name="Arrow Right copy" class="cls-8" d="M29.994,126.95l-1.2-.95-9.785,8,9.785,8,1.2-.95L21.41,134Z"/>
  <path id="Arrow_Right_copy_2" data-name="Arrow Right copy 2" class="cls-8" d="M47.05,138.994l0.95-1.2-8-9.786-8,9.786,0.95,1.2L40,130.41Z"/>
  <path id="Arrow_Right_copy_3" data-name="Arrow Right copy 3" class="cls-8" d="M63.05,128.006l0.95,1.2-8,9.786-8-9.786,0.95-1.2L56,136.59Z"/>
  <path id="Icon_Bookmark" data-name="Icon Bookmark" class="cls-8" d="M91.379,126a0.574,0.574,0,0,1,.619.677V141.53a0.407,0.407,0,0,1-.454.466,0.51,0.51,0,0,1-.372-0.169l-3.344-3.47a0.439,0.439,0,0,0-.33-0.127,0.39,0.39,0,0,0-.289.127l-3.427,3.512a0.438,0.438,0,0,1-.33.127A0.407,0.407,0,0,1,83,141.53V126.679A0.574,0.574,0,0,1,83.617,126h7.762Z"/>
  <path id="Icon_Comments" data-name="Icon Comments" class="cls-8" d="M64,126v10.546h2.64V142l6.084-5.458H80V126H64Z"/>
  <path id="Icon_Bookmark-2" data-name="Icon Bookmark" class="cls-9" d="M107.379,126a0.575,0.575,0,0,1,.62.677V141.53a0.407,0.407,0,0,1-.454.466,0.511,0.511,0,0,1-.372-0.169l-3.344-3.47a0.441,0.441,0,0,0-.331-0.127,0.391,0.391,0,0,0-.289.127l-3.427,3.512a0.439,0.439,0,0,1-.33.127A0.407,0.407,0,0,1,99,141.53V126.679A0.574,0.574,0,0,1,99.617,126h7.762Z"/>
  <path id="_4" data-name="" class="cls-1" d="M125.139,130.07a2.332,2.332,0,0,0,.334-0.791,0.892,0.892,0,0,1-.493.3q-0.386.129-1.007,0.305a1.7,1.7,0,0,0-.381-0.393,1.322,1.322,0,0,0-.44-0.216c-0.148-.032-0.285-0.063-0.41-0.094a1.757,1.757,0,0,0-.422-0.047c-0.109,0-.238.006-0.386,0.018a1.82,1.82,0,0,0-.5.123q-0.341.175-.616,0.351a1.608,1.608,0,0,0-.439.4,3.624,3.624,0,0,0-.281.468,1.782,1.782,0,0,0-.164.516,2.318,2.318,0,0,0-.071.5c-0.008.187-.011,0.394-0.011,0.621a8.518,8.518,0,0,1-1.172-.076,3.192,3.192,0,0,1-1-.3q-0.458-.234-0.85-0.457c-0.262-.148-0.506-0.3-0.732-0.445a3.34,3.34,0,0,1-.639-0.551q-0.3-.328-0.639-0.727a6.9,6.9,0,0,0-.258.733,1.294,1.294,0,0,0-.035.615,1.879,1.879,0,0,0,.082.586q0.083,0.246.141,0.469a2.108,2.108,0,0,0,.322.445c0.137,0.148.279,0.3,0.428,0.457a1.537,1.537,0,0,1-.41-0.07,6.369,6.369,0,0,1-.645-0.235,3.013,3.013,0,0,0,.071.657,1.394,1.394,0,0,0,.234.539q0.163,0.234.328,0.439a3.811,3.811,0,0,0,.27.311,2.358,2.358,0,0,0,.433.334,3.96,3.96,0,0,0,.539.275h-0.972a2.9,2.9,0,0,0,.24.469,2.16,2.16,0,0,0,.287.351,3,3,0,0,0,.375.317,1.581,1.581,0,0,0,.375.211,3.163,3.163,0,0,0,.457.175,4.29,4.29,0,0,0,.516.118,5.72,5.72,0,0,1-.639.463,2.876,2.876,0,0,1-.639.287q-0.328.117-.586,0.222a1.262,1.262,0,0,0-.3.153,3.493,3.493,0,0,1-.563.07c-0.187.008-.375,0.012-0.562,0.012a4.3,4.3,0,0,0,.632.457,3.9,3.9,0,0,0,.633.293,4.316,4.316,0,0,0,.6.175c0.214,0.047.416,0.086,0.6,0.118a3.493,3.493,0,0,0,.563.07c0.187,0.008.375,0.012,0.562,0.012s0.36,0,.516-0.012a2.243,2.243,0,0,0,.457-0.07q0.5-.106.99-0.241a3.984,3.984,0,0,0,.885-0.357l0.732-.41a4.742,4.742,0,0,0,.616-0.41,6.716,6.716,0,0,0,.562-0.5c0.188-.188.375-0.4,0.563-0.621q0.339-.5.609-0.967a6.649,6.649,0,0,0,.445-0.908q0.106-.457.211-0.85t0.164-.732a5.29,5.29,0,0,0,.065-0.639q0.006-.252.006-0.486a0.587,0.587,0,0,1-.018-0.334,0.131,0.131,0,0,1,.1-0.112,2.377,2.377,0,0,0,.386-0.34q0.282-.28.739-0.785a2.226,2.226,0,0,1-.569.182q-0.333.065-.791,0.123h0A2.2,2.2,0,0,0,125.139,130.07Z"/>
  <path id="_5" data-name="" class="cls-1" d="M137.172,135.759a3.917,3.917,0,0,0-.721-0.756q-0.393-.31-0.721-0.556a0.721,0.721,0,0,1-.328-0.586,1.245,1.245,0,0,1,.785-1.055,1.788,1.788,0,0,0,.786-1.723,2.145,2.145,0,0,0-.264-1.119,3.463,3.463,0,0,0-.709-0.826h0.9l0.9-.68h-2.778a4.76,4.76,0,0,0-1.441.223,3.8,3.8,0,0,0-1.266.68,3.388,3.388,0,0,0-.638.884,2.322,2.322,0,0,0-.252,1.061,2.18,2.18,0,0,0,.181.891,2.254,2.254,0,0,0,1.237,1.189,2.393,2.393,0,0,0,.9.17H134.2c-0.031.117-.062,0.219-0.094,0.3a0.858,0.858,0,0,0-.046.293,0.869,0.869,0,0,0,.158.509,1.337,1.337,0,0,0,.439.393q-0.679.058-1.412,0.17a2.975,2.975,0,0,0-1.3.51,3.055,3.055,0,0,0-.814.785,1.721,1.721,0,0,0-.311,1.008,2.149,2.149,0,0,0,.059.486,1.143,1.143,0,0,0,.176.416,1.894,1.894,0,0,0,1.213.973,5.7,5.7,0,0,0,1.552.234,5.881,5.881,0,0,0,.973-0.082,4.526,4.526,0,0,0,.943-0.264,3.4,3.4,0,0,0,.832-0.48,2.373,2.373,0,0,0,.627-0.756,2.988,2.988,0,0,0,.211-0.533,2.035,2.035,0,0,0,.094-0.592A1.935,1.935,0,0,0,137.172,135.759Zm-1.3,2.936a3.141,3.141,0,0,1-1.441.334,3.737,3.737,0,0,1-.832-0.1,2.815,2.815,0,0,1-.8-0.316,1.941,1.941,0,0,1-.61-0.557,1.386,1.386,0,0,1-.24-0.82,1.308,1.308,0,0,1,.264-0.838,1.9,1.9,0,0,1,.668-0.533,3.072,3.072,0,0,1,.879-0.276,5.635,5.635,0,0,1,.9-0.076h0.293q0.516,0.387,1.049.826a1.388,1.388,0,0,1,.533,1.119A1.259,1.259,0,0,1,135.871,138.7Zm-0.9-5.614a1.473,1.473,0,0,1-.539.1,1.254,1.254,0,0,1-.791-0.258,2.249,2.249,0,0,1-.563-0.644,3.113,3.113,0,0,1-.34-0.832,3.377,3.377,0,0,1-.111-0.809,2.472,2.472,0,0,1,.076-0.592,1.11,1.11,0,0,1,.3-0.533,1.6,1.6,0,0,1,.428-0.316,1.138,1.138,0,0,1,.545-0.141,1.178,1.178,0,0,1,.791.287,2.525,2.525,0,0,1,.562.7,3.559,3.559,0,0,1,.34.879,3.629,3.629,0,0,1,.111.838,2.013,2.013,0,0,1-.076.551,1.119,1.119,0,0,1-.3.492A1.231,1.231,0,0,1,134.969,133.081Zm4.933,0.1v-1.418h-0.679v1.418h-1.418v0.75h1.418v1.5H139.9v-1.5h1.418v-0.75H139.9Z"/>
  <path id="_6" data-name="" class="cls-1" d="M152.735,130.717h1.655v-2.062h-1.655a2.425,2.425,0,0,0-.505.053,1.811,1.811,0,0,0-.451.161,1.9,1.9,0,0,0-.408.253,2.236,2.236,0,0,0-.354.36,1.864,1.864,0,0,0-.323.419,4.625,4.625,0,0,0-.225.472,1.768,1.768,0,0,0-.156.494,3.188,3.188,0,0,0-.048.538v1.031H148.61V134.5h1.655v4.952h2.062v-5.016h2.063v-2.063h-2.063V131.34a0.529,0.529,0,0,1,.043-0.209,2.032,2.032,0,0,1,.1-0.2,0.317,0.317,0,0,1,.129-0.161,0.283,0.283,0,0,1,.139-0.054h0Z"/>
  <path id="Forma_1" data-name="Forma 1" class="cls-15" d="M174.819,133.685l-12.162-7.621a0.456,0.456,0,0,0-.433-0.023,0.376,0.376,0,0,0-.224.337v15.241a0.378,0.378,0,0,0,.224.338,0.458,0.458,0,0,0,.2.043,0.453,0.453,0,0,0,.238-0.067l12.162-7.621A0.362,0.362,0,0,0,174.819,133.685Z"/>
  <path id="Rectangle_10_copy" data-name="Rectangle 10 copy" class="cls-15" d="M186,126h4v16h-4V126Zm-8,0h4v16h-4V126Z"/>
  <path id="_7" data-name="" class="cls-8" d="M207.107,131.824q-2.928,1.981-4.446,3.08-0.51.375-.826,0.585a5.071,5.071,0,0,1-.844.428,2.571,2.571,0,0,1-.982.219h-0.018a2.567,2.567,0,0,1-.982-0.219,5.031,5.031,0,0,1-.844-0.428q-0.316-.21-0.826-0.585-1.2-.883-4.437-3.08a4.7,4.7,0,0,1-.9-0.777v7.089a1.434,1.434,0,0,0,1.428,1.429h13.143A1.434,1.434,0,0,0,208,138.136v-7.089a4.96,4.96,0,0,1-.893.777h0Zm0.469-4.411a1.381,1.381,0,0,0-1-.42H193.428a1.274,1.274,0,0,0-1.058.465,1.8,1.8,0,0,0-.37,1.16,2.087,2.087,0,0,0,.491,1.219,4.417,4.417,0,0,0,1.045,1.031q0.3,0.214,1.83,1.273t2.339,1.629l0.38,0.272q0.289,0.21.482,0.34t0.464,0.29a2.749,2.749,0,0,0,.514.241,1.428,1.428,0,0,0,.446.08h0.018a1.428,1.428,0,0,0,.446-0.08,2.749,2.749,0,0,0,.514-0.241q0.272-.16.464-0.29t0.482-.34l0.38-.272q0.821-.571,4.178-2.9a4.21,4.21,0,0,0,1.089-1.1,2.359,2.359,0,0,0,.438-1.348A1.371,1.371,0,0,0,207.576,127.413Z"/>
  <path id="_copy_2-4" data-name=" copy 2" class="cls-24" d="M304,139.015h-1.5l-1.5-1.448v-1.448l1.5-1.449H304v4.345Zm-16-3.274a1.576,1.576,0,0,1,.578-1.229,1.958,1.958,0,0,1,1.328-.506H298.3a1.96,1.96,0,0,1,1.328.506,1.576,1.576,0,0,1,.578,1.229v3.576a1.622,1.622,0,0,1-.539,1.229,1.919,1.919,0,0,1-1.367.506h-8.391a1.958,1.958,0,0,1-1.328-.506,1.574,1.574,0,0,1-.578-1.229v-3.576h0Zm6.906-4.541a2,2,0,0,1,.656-1.5,2.453,2.453,0,0,1,3.274,0,2.029,2.029,0,0,1,0,3,2.45,2.45,0,0,1-3.274,0,2,2,0,0,1-.656-1.5h0Zm-6.109,0a1.991,1.991,0,0,1,.664-1.5,2.463,2.463,0,0,1,3.281,0,2.029,2.029,0,0,1,0,3,2.46,2.46,0,0,1-3.281,0,1.988,1.988,0,0,1-.664-1.5h0Z"/>
  <path id="_copy_2-5" data-name=" copy 2" class="cls-24" d="M319.6,130.791H304.4a0.8,0.8,0,0,0-.145.015,0.327,0.327,0,0,0-.16.093,0.249,0.249,0,0,0-.088.146,1.133,1.133,0,0,0-.009.146v9.456a1.313,1.313,0,0,0,.009.154,0.249,0.249,0,0,0,.088.154,0.369,0.369,0,0,0,.16.077,0.728,0.728,0,0,0,.145.016H319.6a0.728,0.728,0,0,0,.145-0.016,0.374,0.374,0,0,0,.16-0.077A0.254,0.254,0,0,0,320,140.8c0-.051.008-0.1,0.008-0.154V131.1c0-.051,0-0.1-0.008-0.154a0.257,0.257,0,0,0-.088-0.154,0.386,0.386,0,0,0-.16-0.077,0.811,0.811,0,0,0-.145-0.016v0.093Zm-10.476-1.771h-3.08a0.282,0.282,0,0,0-.16.054,0.267,0.267,0,0,1-.145.053,0.241,0.241,0,0,0-.1.139,0.739,0.739,0,0,0-.016.154v0.986h3.8v-1.279a0.331,0.331,0,0,0-.152-0.092,0.749,0.749,0,0,0-.153-0.015h0ZM312,140.062a4.415,4.415,0,0,1-.858-0.077,5.255,5.255,0,0,1-.778-0.215,3.5,3.5,0,0,1-.706-0.378,6.047,6.047,0,0,1-.642-0.516,5.01,5.01,0,0,1-.537-0.6,2.823,2.823,0,0,1-.378-0.678,3.5,3.5,0,0,1-.232-0.755,4.425,4.425,0,0,1-.072-0.816,3.162,3.162,0,0,1,.088-0.739,2.563,2.563,0,0,1,.313-0.739,3.75,3.75,0,0,1,.377-0.678c0.144-.205.291-0.411,0.441-0.616a6.31,6.31,0,0,1,.642-0.516,3.014,3.014,0,0,1,.706-0.362,3.926,3.926,0,0,1,.778-0.223,4.967,4.967,0,0,1,.858-0.07,5.561,5.561,0,0,1,.858.062l0.778,0.123a3.524,3.524,0,0,1,.706.378,6.31,6.31,0,0,1,.642.516,5.1,5.1,0,0,1,.537.6,2.819,2.819,0,0,1,.377.678,3.51,3.51,0,0,1,.233.754,4.531,4.531,0,0,1,.072.832,4.425,4.425,0,0,1-.072.816,3.5,3.5,0,0,1-.233.755,2.819,2.819,0,0,1-.377.678,5.1,5.1,0,0,1-.537.6,6.047,6.047,0,0,1-.642.516,3.524,3.524,0,0,1-.706.378,5.289,5.289,0,0,1-.778.215,4.415,4.415,0,0,1-.858.077h0Zm0-6.607a2.313,2.313,0,0,0-.554.062q-0.248.061-.473,0.138l-0.449.308a1.29,1.29,0,0,0-.369.385,1.233,1.233,0,0,0-.393.355,1.9,1.9,0,0,0-.233.431c-0.043.144-.085,0.3-0.128,0.454a2.047,2.047,0,0,0-.064.532,2.193,2.193,0,0,0,.064.492c0.043,0.185.085,0.35,0.128,0.493q0.161,0.216.313,0.431a1.993,1.993,0,0,0,.313.355,1.2,1.2,0,0,0,.369.377,2,2,0,0,0,.449.223c0.15,0.041.308,0.083,0.473,0.124a2.315,2.315,0,0,0,.554.061,2.484,2.484,0,0,0,.513-0.061c0.193-.041.364-0.083,0.514-0.124,0.149-.1.3-0.208,0.449-0.315a1.486,1.486,0,0,0,.369-0.378,1.442,1.442,0,0,0,.393-0.362,1.771,1.771,0,0,0,.233-0.423c0.042-.154.085-0.308,0.128-0.462a1.994,1.994,0,0,0,.064-0.524,2.2,2.2,0,0,0-.064-0.5q-0.065-.27-0.128-0.486-0.162-.231-0.313-0.438a2.729,2.729,0,0,0-.313-0.362,1.274,1.274,0,0,0-.369-0.362,2.067,2.067,0,0,0-.449-0.224q-0.225-.076-0.474-0.138a2.3,2.3,0,0,0-.553-0.062h0Z"/>
  <path class="cls-1" d="M332,139.8l-1.2,1.2-4.8-4.8-4.8,4.8-1.2-1.2,4.8-4.8-4.8-4.8,1.2-1.2,4.8,4.8,4.8-4.8,1.2,1.2-4.8,4.8Z"/>
  <path id="Shape_23_copy" data-name="Shape 23 copy" class="cls-8" d="M344,139.8l-1.2,1.2-4.8-4.8-4.8,4.8-1.2-1.2,4.8-4.8-4.8-4.8,1.2-1.2,4.8,4.8,4.8-4.8,1.2,1.2-4.8,4.8Z"/>
  <path id="Icon_Comment_copy" data-name="Icon Comment copy" class="cls-5" d="M1,63H13v8H1V63ZM3,75V71H7.666Z"/>
  <path id="_copy-9" data-name=" copy" class="cls-3" d="M75.855,62.951a6.188,6.188,0,0,1,3.256,3.256,5.988,5.988,0,0,1,0,4.71,6.188,6.188,0,0,1-3.256,3.256,5.99,5.99,0,0,1-4.71,0,6.188,6.188,0,0,1-3.256-3.256,5.988,5.988,0,0,1,0-4.71,6.188,6.188,0,0,1,3.256-3.256A5.99,5.99,0,0,1,75.855,62.951Zm-0.692,3.428a1.134,1.134,0,0,0-.368.889,1.223,1.223,0,0,0,.336.851,1.138,1.138,0,0,0,.882.368,1.216,1.216,0,0,0,.857-0.336,1.149,1.149,0,0,0,.362-0.882,1.23,1.23,0,0,0-.33-0.857,1.144,1.144,0,0,0-.889-0.362A1.236,1.236,0,0,0,75.163,66.379Zm-5.11,0a1.125,1.125,0,0,0-.374.889,1.09,1.09,0,0,0,.406.882,1.379,1.379,0,0,0,.9.336,1.224,1.224,0,0,0,.851-0.336,1.139,1.139,0,0,0,.368-0.882,1.217,1.217,0,0,0-.337-0.857,1.149,1.149,0,0,0-.882-0.362A1.36,1.36,0,0,0,70.053,66.379Zm5.205,5.9a4.343,4.343,0,0,0,1.289-.711,3.5,3.5,0,0,0,.863-1.016,2.4,2.4,0,0,0,.317-1.181H69.6a2.437,2.437,0,0,0,.311,1.181,3.367,3.367,0,0,0,.863,1.016,4.432,4.432,0,0,0,1.295.711A4.894,4.894,0,0,0,75.258,72.282Z"/>
  <path id="_8" data-name="" class="cls-3" d="M28.164,63.05l-2.757,2.4a0.222,0.222,0,0,1-.056.139,1.7,1.7,0,0,1-.125.139,1.68,1.68,0,0,0-.139.125,1.705,1.705,0,0,0-.125.139H22.817a0.537,0.537,0,0,0-.272.077,0.811,0.811,0,0,0-.258.272,0.463,0.463,0,0,0-.209.2,0.729,0.729,0,0,0-.07.341v3.2a0.574,0.574,0,0,0,.07.272,1.141,1.141,0,0,0,.209.272,0.4,0.4,0,0,0,.195.195,0.737,0.737,0,0,0,.334.07h2.228a0.17,0.17,0,0,0,.09.132,0.171,0.171,0,0,1,.091.132,0.2,0.2,0,0,0,.056.132q0.056,0.063.125,0.132l2.757,2.493a0.947,0.947,0,0,0,.39.272,0.449,0.449,0,0,0,.32.007,0.417,0.417,0,0,0,.2-0.258,1.491,1.491,0,0,0,.063-0.466V63.5a1.491,1.491,0,0,0-.063-0.467,0.418,0.418,0,0,0-.2-0.258,0.45,0.45,0,0,0-.32.007,0.947,0.947,0,0,0-.39.272h0Zm2.674,2.841a0.288,0.288,0,0,0-.16.139,0.484,0.484,0,0,0-.021.139,0.45,0.45,0,0,0-.07.2,0.206,0.206,0,0,0,.07.146q0.139,0.265.251,0.487a1.105,1.105,0,0,1,.112.5q0.07,0.265.125,0.529a2.573,2.573,0,0,1,.056.529,2.637,2.637,0,0,1-.056.543q-0.056.265-.125,0.529a2.067,2.067,0,0,1-.195.487q-0.125.223-.251,0.5v0.348a0.222,0.222,0,0,0,.056.139,0.782,0.782,0,0,0,.125.125h0.167a0.269,0.269,0,0,0,.139-0.042,0.269,0.269,0,0,1,.139-0.042,0.273,0.273,0,0,1,.111-0.091,0.086,0.086,0,0,0,.056-0.09,5.73,5.73,0,0,0,.341-0.62,2.858,2.858,0,0,0,.2-0.62q0.07-.278.125-0.6a3.836,3.836,0,0,0,.056-0.655,3.587,3.587,0,0,0-.056-0.592q-0.056-.327-0.125-0.661a3.691,3.691,0,0,0-.2-0.654,2.449,2.449,0,0,0-.341-0.585,0.821,0.821,0,0,0-.125-0.125,0.224,0.224,0,0,0-.139-0.056,0.613,0.613,0,0,0-.132.014,0.335,0.335,0,0,0-.132.07h0Zm2.312-.71a0.151,0.151,0,0,0-.1-0.16,0.438,0.438,0,0,1-.167-0.1,0.3,0.3,0,0,0-.146.042,1.247,1.247,0,0,1-.327.446,0.223,0.223,0,0,0-.056.139c0,0.047,0,.107.007,0.181a0.218,0.218,0,0,0,.077.167,4.305,4.305,0,0,1,.348.682q0.139,0.348.279,0.752,0.069,0.4.125,0.759a4.931,4.931,0,0,1,.056.759q0,0.39-.021.752a2.7,2.7,0,0,1-.16.752q-0.139.4-.279,0.752a4.3,4.3,0,0,1-.348.682,0.269,0.269,0,0,0-.077.181c0,0.074-.007.13-0.007,0.167a0.222,0.222,0,0,0,.056.139,1.579,1.579,0,0,0,.125.139H32.7a0.242,0.242,0,0,0,.139-0.049,0.242,0.242,0,0,1,.139-0.049,0.273,0.273,0,0,1,.111-0.091,0.086,0.086,0,0,0,.056-0.09,3.411,3.411,0,0,0,.432-0.808q0.153-.418.292-0.877t0.195-.9a5.462,5.462,0,0,0,.07-0.884,6.086,6.086,0,0,0-.07-0.926,5.97,5.97,0,0,0-.195-0.856Q33.735,66.407,33.582,66a3.757,3.757,0,0,0-.432-0.815h0Zm1.337-1.963a0.134,0.134,0,0,0-.084-0.1q-0.084-.049-0.084.021a1.3,1.3,0,0,0-.216.014,0.329,0.329,0,0,0-.146.07,1.638,1.638,0,0,0-.125.139,0.223,0.223,0,0,0-.056.139,1.47,1.47,0,0,0,.014.167,0.3,0.3,0,0,0,.084.181,10.091,10.091,0,0,1,.6,1.128,11.052,11.052,0,0,1,.459,1.2,5.864,5.864,0,0,1,.285,1.246,10.178,10.178,0,0,1,0,2.493,5.859,5.859,0,0,1-.285,1.246,12.145,12.145,0,0,1-.459,1.191,8.891,8.891,0,0,1-.6,1.121,0.3,0.3,0,0,0-.084.181,1.522,1.522,0,0,0-.014.181,0.2,0.2,0,0,0,.056.132q0.055,0.063.125,0.132a0.1,0.1,0,0,0,.084.1h0.1a0.317,0.317,0,0,1,.181-0.1A0.559,0.559,0,0,1,34.4,74a0.581,0.581,0,0,0,.084-0.091,7.467,7.467,0,0,0,.682-1.253q0.278-.654.487-1.323a7.966,7.966,0,0,0,.272-1.386A13.071,13.071,0,0,0,36,68.565a12.62,12.62,0,0,0-.077-1.406,8.021,8.021,0,0,0-.272-1.351q-0.209-.668-0.487-1.323a8,8,0,0,0-.682-1.267h0Z"/>
  <path id="_9" data-name="" class="cls-3" d="M52,72.082H50.688L49.375,70.77V69.457l1.313-1.312H52v3.938ZM38,69.115A1.448,1.448,0,0,1,38.506,68a1.681,1.681,0,0,1,1.162-.458H47.01A1.682,1.682,0,0,1,48.172,68a1.448,1.448,0,0,1,.506,1.114v3.24a1.5,1.5,0,0,1-.472,1.114,1.646,1.646,0,0,1-1.2.458H39.668a1.68,1.68,0,0,1-1.162-.458A1.448,1.448,0,0,1,38,72.355v-3.24h0ZM44.043,65a1.845,1.845,0,0,1,.574-1.36,2.091,2.091,0,0,1,2.864,0,1.883,1.883,0,0,1,0,2.721,2.091,2.091,0,0,1-2.864,0A1.844,1.844,0,0,1,44.043,65h0ZM38.7,65a1.834,1.834,0,0,1,.581-1.36,2.1,2.1,0,0,1,2.871,0,1.883,1.883,0,0,1,0,2.721,2.1,2.1,0,0,1-2.871,0A1.833,1.833,0,0,1,38.7,65h0Z"/>
  <path id="_10" data-name="" class="cls-3" d="M65.654,64.635H52.346a0.663,0.663,0,0,0-.126.014,0.282,0.282,0,0,0-.14.084,0.235,0.235,0,0,0-.077.133A1.182,1.182,0,0,0,52,65v8.619a1.371,1.371,0,0,0,.007.14,0.235,0.235,0,0,0,.077.14,0.326,0.326,0,0,0,.14.07,0.647,0.647,0,0,0,.126.014H65.654a0.65,0.65,0,0,0,.126-0.014,0.328,0.328,0,0,0,.14-0.07A0.237,0.237,0,0,0,66,73.759c0-.047.007-0.093,0.007-0.14v-8.7c0-.047,0-0.094-0.007-0.141a0.239,0.239,0,0,0-.077-0.14,0.333,0.333,0,0,0-.14-0.07,0.665,0.665,0,0,0-.126-0.014v0.084Zm-9.166-1.614h-2.7a0.243,0.243,0,0,0-.14.049,0.228,0.228,0,0,1-.127.049,0.216,0.216,0,0,0-.084.126,0.713,0.713,0,0,0-.014.14v0.9h3.327V63.119a0.288,0.288,0,0,0-.133-0.084,0.625,0.625,0,0,0-.133-0.014h0ZM59,73.086a3.742,3.742,0,0,1-.751-0.07,4.487,4.487,0,0,1-.681-0.2,3.026,3.026,0,0,1-.618-0.344A5.481,5.481,0,0,1,56.389,72a4.507,4.507,0,0,1-.47-0.547,2.6,2.6,0,0,1-.33-0.618,3.3,3.3,0,0,1-.2-0.688,4.2,4.2,0,0,1-.063-0.744,3.006,3.006,0,0,1,.077-0.674,2.394,2.394,0,0,1,.274-0.674A3.515,3.515,0,0,1,56,67.443q0.189-.281.386-0.561a5.546,5.546,0,0,1,.561-0.47,2.611,2.611,0,0,1,.618-0.33,3.334,3.334,0,0,1,.681-0.2A4.164,4.164,0,0,1,59,65.814a4.69,4.69,0,0,1,.751.056l0.681,0.112a3.055,3.055,0,0,1,.618.344,5.579,5.579,0,0,1,.561.47,4.584,4.584,0,0,1,.47.547,2.612,2.612,0,0,1,.33.618,3.32,3.32,0,0,1,.2.688,4.285,4.285,0,0,1,.063.758,4.2,4.2,0,0,1-.063.744,3.317,3.317,0,0,1-.2.688,2.608,2.608,0,0,1-.33.618,4.553,4.553,0,0,1-.47.547,5.513,5.513,0,0,1-.561.47,3.031,3.031,0,0,1-.618.344,4.5,4.5,0,0,1-.681.2,3.746,3.746,0,0,1-.751.07h0Zm0-6.022a1.944,1.944,0,0,0-.484.056q-0.218.056-.414,0.126l-0.393.281a1.16,1.16,0,0,0-.323.351,1.086,1.086,0,0,0-.344.323,1.743,1.743,0,0,0-.2.393q-0.056.2-.112,0.414a1.938,1.938,0,0,0-.056.484,2.094,2.094,0,0,0,.056.449q0.056,0.253.112,0.449,0.14,0.2.274,0.393a1.761,1.761,0,0,0,.274.323,1.083,1.083,0,0,0,.323.344,1.737,1.737,0,0,0,.393.2q0.2,0.056.414,0.112a1.935,1.935,0,0,0,.484.056,2.094,2.094,0,0,0,.449-0.056q0.253-.056.449-0.112,0.2-.14.393-0.288a1.32,1.32,0,0,0,.323-0.344,1.287,1.287,0,0,0,.344-0.33,1.619,1.619,0,0,0,.2-0.386l0.112-.421a1.862,1.862,0,0,0,.056-0.477,2.063,2.063,0,0,0-.056-0.456q-0.056-.245-0.112-0.442-0.141-.211-0.274-0.4a2.51,2.51,0,0,0-.274-0.33,1.145,1.145,0,0,0-.323-0.33,1.765,1.765,0,0,0-.393-0.2q-0.2-.07-0.414-0.126A1.947,1.947,0,0,0,59,67.064h0Z"/>
  <path id="Forma_1-2" data-name="Forma 1" class="cls-1" d="M82,71H80v5h5V74H82V71Zm-2-4h2V64h3V62H80v5Zm9-5v2h3v3h2V62H89Zm3,12H89v2h5V71H92v3Z"/>
  <g id="like_n_dislike" data-name="like n dislike">
    <path id="_11" data-name="" class="cls-3" d="M109.009,74.172V68.3h2.54v5.871h-2.54Zm3.528-5.871a3.8,3.8,0,0,0,2.052-1.655,2.114,2.114,0,0,0,.116-0.841c-0.009-.354-0.034-0.7-0.077-1.047s-0.111-.767-0.2-1.267A1,1,0,0,1,115.411,63a1.407,1.407,0,0,1,1.007.582,1.762,1.762,0,0,1,.391,1.073,1.87,1.87,0,0,1-.051.66,1.009,1.009,0,0,0-.116.414,7.048,7.048,0,0,0-.077,1h3.7a2.26,2.26,0,0,1,.731,1.241,1.566,1.566,0,0,1-.173,1.06,0.97,0.97,0,0,0-.237.427,0.62,0.62,0,0,0,.121.317,0.771,0.771,0,0,1,.122.433,0.94,0.94,0,0,1-.243.718,0.613,0.613,0,0,0-.244.356,0.307,0.307,0,0,0,.09.323,0.791,0.791,0,0,1,.154.5,0.725,0.725,0,0,1-.36.692c-0.239.133-.338,0.261-0.3,0.381a0.542,0.542,0,0,0,.116.233,0.614,0.614,0,0,1,.051.349A1.743,1.743,0,0,1,119.182,75h-4.836a1.884,1.884,0,0,1-.744-0.828h-1.065V68.3h0Z"/>
    <path id="_copy_2-6" data-name=" copy 2" class="cls-5" d="M95.014,74.172H97.56V68.3H95.014v5.871Zm3.2-5.871a3.793,3.793,0,0,0,2.29-1.655,2.426,2.426,0,0,0,.141-0.841c0.008-.353,0-0.7-0.02-1.047s-0.061-.767-0.121-1.267A1,1,0,0,1,101.488,63a1.434,1.434,0,0,1,1,.55,1.711,1.711,0,0,1,.391,1.106,1.868,1.868,0,0,1-.051.659,1,1,0,0,0-.115.414,6.905,6.905,0,0,0-.077,1h3.595a2.248,2.248,0,0,1,.742,1.241,1.446,1.446,0,0,1-.172,1.028,0.8,0.8,0,0,0-.237.459,0.619,0.619,0,0,0,.121.317,0.779,0.779,0,0,1,.122.433,1.007,1.007,0,0,1-.218.718,1.29,1.29,0,0,0-.268.356,0.308,0.308,0,0,0,.089.323,0.785,0.785,0,0,1,.154.5,0.747,0.747,0,0,1-.326.692,0.541,0.541,0,0,0-.327.381,0.485,0.485,0,0,0,.1.233,0.613,0.613,0,0,1,.051.349,1.7,1.7,0,0,1-.9,1.241h-4.836a1.954,1.954,0,0,1-.73-0.828H98.213V68.3h0Z"/>
  </g>
  <g id="plus_n_minus" data-name="plus n minus">
    <path id="_12-2" data-name="" class="cls-8" d="M48.013,0.013H59.987V11.987H48.013V0.013h0Zm9.724,5.618H54.368V2.263H53.631V5.632H50.263V6.368h3.368V9.737h0.737V6.368h3.368V5.632Z"/>
    <path id="_13" data-name="" class="cls-8" d="M60.013,0.013H71.987V11.987H60.013V0.013h0Zm9.724,5.618H62.263V6.368h7.474V5.632Z"/>
  </g>
  <g id="small_arrow" data-name="small arrow">
    <path id="_14-2" data-name="" class="cls-24" d="M5.733,8.9H6.267V8.367H6.8V7.833H7.333V7.3H7.867V6.767H8.4V6.233H8.933V5.7H9.466V5.167H10V4.1H9.466V4.633H8.933V5.167H8.4V5.7H7.867V6.233H7.333V6.767H6.8V7.3H6.267V7.833H5.733V7.3H5.2V6.767H4.667V6.233H4.133V5.7H3.6V5.167H3.067V4.633H2.533V4.1H2V5.167H2.533V5.7H3.067V6.233H3.6V6.767H4.133V7.3H4.667V7.833H5.2V8.367H5.733V8.9Z"/>
    <path id="_15" data-name="" class="cls-24" d="M17.733,4h0.533V4.555H18.8V5.111h0.533V5.667h0.533V6.222H20.4V6.778h0.533V7.333h0.533V7.889H22V9H21.467V8.444H20.933V7.889H20.4V7.333H19.867V6.778H19.333V6.222H18.8V5.667H18.267V5.111H17.733V5.667H17.2V6.222H16.667V6.778H16.133V7.333H15.6V7.889H15.067V8.444H14.533V9H14V7.889h0.533V7.333h0.533V6.778H15.6V6.222h0.533V5.667h0.533V5.111H17.2V4.555h0.533V4Z"/>
    <path id="_copy-10" data-name=" copy" class="cls-24" d="M27.1,5.733V6.267h0.533V6.8h0.533V7.333H28.7V7.867h0.533V8.4h0.533V8.933H30.3V9.467h0.533V10H31.9V9.467H31.367V8.933H30.833V8.4H30.3V7.867H29.767V7.333H29.233V6.8H28.7V6.267H28.167V5.733H28.7V5.2h0.533V4.667h0.533V4.133H30.3V3.6h0.533V3.067h0.533V2.533H31.9V2H30.833V2.533H30.3V3.067H29.767V3.6H29.233V4.133H28.7V4.667H28.167V5.2H27.633V5.733H27.1Z"/>
    <path id="_copy-11" data-name=" copy" class="cls-24" d="M45,5.733V6.267H44.445V6.8H43.889V7.333H43.333V7.867H42.778V8.4H42.222V8.933H41.667V9.467H41.111V10H40V9.467h0.556V8.933h0.556V8.4h0.556V7.867h0.556V7.333h0.556V6.8h0.556V6.267h0.556V5.733H43.333V5.2H42.778V4.667H42.222V4.133H41.667V3.6H41.111V3.067H40.556V2.533H40V2h1.111V2.533h0.556V3.067h0.556V3.6h0.556V4.133h0.556V4.667h0.556V5.2h0.556V5.733H45Z"/>
  </g>
  <g id="face_1" data-name="face 1">
    <path class="cls-25" d="M62.993,350.468a15,15,0,1,1-14.526-15.461A15,15,0,0,1,62.993,350.468ZM40.307,352.7a0.459,0.459,0,0,0-.426.631,8.521,8.521,0,0,0,8.085,5.5,8.659,8.659,0,0,0,8.151-5.54,0.459,0.459,0,0,0-.428-0.634A39.467,39.467,0,0,1,40.307,352.7Zm0,0a0.459,0.459,0,0,0-.426.631,8.521,8.521,0,0,0,8.085,5.5,8.659,8.659,0,0,0,8.151-5.54,0.459,0.459,0,0,0-.428-0.634A39.467,39.467,0,0,1,40.307,352.7Z"/>
    <path class="cls-26" d="M57.686,344.683a2.016,2.016,0,0,0-2.553-.32,2.015,2.015,0,0,0-1.921-1.712,2.093,2.093,0,0,0-2.092,2.3,15.939,15.939,0,0,0,1.21,4.223,0.808,0.808,0,0,0,1.024.465,15.945,15.945,0,0,0,3.977-1.867A2.093,2.093,0,0,0,57.686,344.683Zm-19.325,0a2.016,2.016,0,0,1,2.553-.32,2.015,2.015,0,0,1,1.921-1.712,2.093,2.093,0,0,1,2.091,2.3,15.942,15.942,0,0,1-1.21,4.223,0.808,0.808,0,0,1-1.024.465,15.944,15.944,0,0,1-3.977-1.867A2.093,2.093,0,0,1,38.361,344.683Z"/>
    <path class="cls-27" d="M40.307,352.7a0.459,0.459,0,0,0-.426.631,8.521,8.521,0,0,0,8.085,5.5,8.659,8.659,0,0,0,8.151-5.54,0.459,0.459,0,0,0-.428-0.634A39.467,39.467,0,0,1,40.307,352.7Z"/>
    <path class="cls-26" d="M47.966,358.834a8.361,8.361,0,0,1-5.007-1.532,7.289,7.289,0,0,1,5.1-1.693,7.425,7.425,0,0,1,5.023,1.615A8.379,8.379,0,0,1,47.966,358.834Z"/>
  </g>
  <g id="face_2" data-name="face 2">
    <path class="cls-28" d="M95,350a15,15,0,1,1-15-15A15,15,0,0,1,95,350Z"/>
    <path class="cls-27" d="M73.7,350.307h0a1.563,1.563,0,0,1-1.562-1.563V348.12a1.567,1.567,0,0,1,1.562-1.562h0a1.567,1.567,0,0,1,1.562,1.562v0.624A1.567,1.567,0,0,1,73.7,350.307Zm12.822,0h0a1.567,1.567,0,0,1-1.562-1.563V348.12a1.567,1.567,0,0,1,1.562-1.562h0a1.567,1.567,0,0,1,1.562,1.562v0.624A1.567,1.567,0,0,1,86.52,350.307Zm-3.468,5.77A3.064,3.064,0,1,1,80,352.743,3.2,3.2,0,0,1,83.052,356.077Z"/>
    <path class="cls-29" d="M74,342a2.943,2.943,0,0,0-3,3"/>
    <path id="Shape_13_copy" data-name="Shape 13 copy" class="cls-29" d="M86,342a2.982,2.982,0,0,1,3,3"/>
  </g>
  <g id="face_3" data-name="face 3">
    <path class="cls-28" d="M127,350a15,15,0,1,1-15-15A15,15,0,0,1,127,350Z"/>
    <path id="Shape_13_copy_3" data-name="Shape 13 copy 3" class="cls-29" d="M106,342a2.947,2.947,0,0,0-3,3"/>
    <path id="Shape_13_copy_2" data-name="Shape 13 copy 2" class="cls-29" d="M118,342s3,0.09,3,3"/>
    <path class="cls-27" d="M105.7,349.191c-0.956.02-1.788,0.665-1.788-.323v-0.715a1.794,1.794,0,0,1,1.788-1.788h0a1.794,1.794,0,0,1,1.788,1.788v0.715C107.486,349.852,106.676,349.17,105.7,349.191Zm12.66,0c-0.956.02-1.789,0.665-1.789-.323v-0.715a1.794,1.794,0,0,1,1.789-1.788h0a1.794,1.794,0,0,1,1.788,1.788v0.715C120.146,349.852,119.336,349.17,118.358,349.191Z"/>
    <path class="cls-27" d="M119.311,359.191a0.437,0.437,0,0,0,.406-0.6,8.1,8.1,0,0,0-7.685-5.227,8.228,8.228,0,0,0-7.747,5.266,0.436,0.436,0,0,0,.406.6A18.415,18.415,0,0,1,119.311,359.191Z"/>
  </g>
  <g id="face_4" data-name="face 4">
    <path class="cls-30" d="M159,350a15,15,0,1,1-15-15A15,15,0,0,1,159,350Z"/>
    <path class="cls-29" d="M137,343l4,3"/>
    <path class="cls-29" d="M151,343l-4,3"/>
    <path class="cls-29" d="M140,357s-0.011-4,4-4c4.031,0,4,3.988,4,4"/>
    <path class="cls-27" d="M139.029,350.306h0a1.562,1.562,0,0,1-1.562-1.562v-0.625a1.567,1.567,0,0,1,1.562-1.562h0a1.567,1.567,0,0,1,1.563,1.562v0.625A1.567,1.567,0,0,1,139.029,350.306Zm9.989,0h0a1.567,1.567,0,0,1-1.562-1.562v-0.625a1.567,1.567,0,0,1,1.562-1.562h0a1.567,1.567,0,0,1,1.562,1.562v0.625A1.567,1.567,0,0,1,149.018,350.306Z"/>
  </g>
  <path id="Forma_1-3" data-name="Forma 1" class="cls-31" d="M16,334a16,16,0,1,0,16,16A16,16,0,0,0,16,334Zm-2.264,23.542L6.195,350l3.017-3.017,4.525,4.525,9.051-9.05,3.017,3.017Z"/>
  <g id="_999" data-name="999">
    <path id="_16-2" data-name="" class="cls-3" d="M176,360.148a1.41,1.41,0,0,1-1.029-.423,1.42,1.42,0,0,1,0-2.032,1.466,1.466,0,0,1,2.058,0,1.418,1.418,0,0,1,0,2.032A1.41,1.41,0,0,1,176,360.148Zm5.074-3.911a0.565,0.565,0,0,1-.41.171h-9.328a0.563,0.563,0,0,1-.41-0.171,0.548,0.548,0,0,1-.173-0.405V343.175a0.548,0.548,0,0,1,.173-0.405,0.563,0.563,0,0,1,.41-0.171h9.328a0.565,0.565,0,0,1,.41.171,0.552,0.552,0,0,1,.173.405v12.657A0.552,0.552,0,0,1,181.077,356.237Zm-3.616-15.364h-2.915a0.288,0.288,0,1,1,0-.575h2.915a0.288,0.288,0,1,1,0,.575h0Zm4.846-2.193a2.255,2.255,0,0,0-1.64-.684h-9.328a2.255,2.255,0,0,0-1.64.684,2.2,2.2,0,0,0-.692,1.618v18.411a2.2,2.2,0,0,0,.692,1.618,2.255,2.255,0,0,0,1.64.684h9.328a2.255,2.255,0,0,0,1.64-.684,2.2,2.2,0,0,0,.692-1.618V340.3A2.2,2.2,0,0,0,182.307,338.68Z"/>
    <path id="_17" data-name="" class="cls-3" d="M208,350.068a1.227,1.227,0,0,0-.91.383,1.279,1.279,0,0,0-.375.93,0.432,0.432,0,0,1-.12.315,0.446,0.446,0,0,1-.615,0,0.429,0.429,0,0,1-.121-0.315,2.133,2.133,0,0,1,.629-1.546,2.04,2.04,0,0,1,1.512-.642,0.414,0.414,0,0,1,.308.123,0.472,0.472,0,0,1,0,.629,0.414,0.414,0,0,1-.308.123h0Zm0-2.161a3.264,3.264,0,0,0-2.422,1.026,3.556,3.556,0,0,0,0,4.951,3.372,3.372,0,0,0,4.844,0,3.554,3.554,0,0,0,0-4.951A3.265,3.265,0,0,0,208,347.907Zm-10.276,9.6h20.553v1.75H197.725v-1.75ZM208,356.661a4.9,4.9,0,0,1-3.633-1.539,5.334,5.334,0,0,1,0-7.427,5.058,5.058,0,0,1,7.266,0,5.334,5.334,0,0,1,0,7.427A4.9,4.9,0,0,1,208,356.661Zm-8.564-15.785h5.139v1.751h-5.139v-1.751Zm-1.712,2.627h8.617l0.856-1.751h11.08v3.5H197.725V343.5Zm21.763-2.989a1.631,1.631,0,0,0-1.21-.513H197.725a1.631,1.631,0,0,0-1.211.513,1.7,1.7,0,0,0-.5,1.238v17.507a1.7,1.7,0,0,0,.5,1.238,1.631,1.631,0,0,0,1.211.513h20.553a1.631,1.631,0,0,0,1.21-.513,1.7,1.7,0,0,0,.5-1.238V341.752A1.7,1.7,0,0,0,219.488,340.514Z"/>
    <path id="_18-2" data-name="" class="cls-3" d="M247.7,355.738a2.2,2.2,0,0,0,1.621-.682,2.251,2.251,0,0,0,.674-1.64V343.2a2.252,2.252,0,0,0-.674-1.64,2.2,2.2,0,0,0-1.621-.681H232.1a2.2,2.2,0,0,0-1.621.681,2.248,2.248,0,0,0-.674,1.64v10.214a2.247,2.247,0,0,0,.674,1.64,2.2,2.2,0,0,0,1.621.682H247.7Zm-15.93-12.862a0.44,0.44,0,0,1,.323-0.138H247.7a0.44,0.44,0,0,1,.323.138,0.447,0.447,0,0,1,.136.326v10.214a0.449,0.449,0,0,1-.136.327,0.44,0.44,0,0,1-.323.138H232.1a0.44,0.44,0,0,1-.323-0.138,0.449,0.449,0,0,1-.136-0.327V343.2A0.447,0.447,0,0,1,231.773,342.876Zm-3.349,13.79h-2.3v1.393a1.163,1.163,0,0,0,.675.987,3.079,3.079,0,0,0,1.621.406h22.951a3.079,3.079,0,0,0,1.621-.406,1.163,1.163,0,0,0,.675-0.987v-1.393H228.424Zm10.328,1.393a0.232,0.232,0,0,1,0-.464h2.295a0.232,0.232,0,0,1,0,.464h-2.295Z"/>
    <path class="cls-3" d="M299.867,350.005l1.349,2.422h-8.993a13.439,13.439,0,0,1-.225-2.422,11.745,11.745,0,0,1,3.148-8.11Zm-7.307,3.605h11.579l-4.384,7.6a11.567,11.567,0,0,1-4.469-2.957A11.987,11.987,0,0,1,292.56,353.61Zm8.319-5.407-0.056.113-4.384-7.6a11.457,11.457,0,0,1,7.531-2.7,12.967,12.967,0,0,1,2.642.282Zm5.171,5.407,1.124-1.915,4.384,7.6a11.674,11.674,0,0,1-7.588,2.7,12.692,12.692,0,0,1-2.585-.281Zm9.386-7.209H303.858l4.384-7.6a11.6,11.6,0,0,1,4.468,2.957A12.009,12.009,0,0,1,315.436,346.4Zm0.281,1.182a10.963,10.963,0,0,1,.281,2.422,11.491,11.491,0,0,1-3.2,8.11l-5.677-9.912-0.338-.62h8.937Z"/>
    <path id="_19" data-name="" class="cls-3" d="M337.689,350.506h-3.38a0.8,0.8,0,0,1-.594-0.26,0.88,0.88,0,0,1,0-1.231,0.8,0.8,0,0,1,.594-0.26h3.38a0.8,0.8,0,0,1,.594.26,0.88,0.88,0,0,1,0,1.231,0.8,0.8,0,0,1-.594.26h0Zm8.2-4.117a0.8,0.8,0,0,0-.594-0.26H326.7a0.8,0.8,0,0,0-.6.26,0.856,0.856,0,0,0-.251.615v13.131a0.856,0.856,0,0,0,.251.615,0.8,0.8,0,0,0,.6.26H345.3a0.8,0.8,0,0,0,.594-0.26,0.856,0.856,0,0,0,.251-0.615V347A0.856,0.856,0,0,0,345.889,346.389Zm0.845-6.128a0.8,0.8,0,0,0-.594-0.26H325.858a0.8,0.8,0,0,0-.594.26,0.856,0.856,0,0,0-.251.615v3.5a0.86,0.86,0,0,0,.251.616,0.8,0.8,0,0,0,.594.259H346.14a0.8,0.8,0,0,0,.594-0.259,0.86,0.86,0,0,0,.251-0.616v-3.5A0.856,0.856,0,0,0,346.734,340.261Z"/>
    <path id="_20" data-name="" class="cls-3" d="M273.259,347.025a3,3,0,0,0-5.118,2.123,0.858,0.858,0,0,1-1.715,0,4.717,4.717,0,1,1,9.433,0,0.858,0.858,0,0,1-1.715,0A2.88,2.88,0,0,0,273.259,347.025Zm3.384-3.334a7.76,7.76,0,0,1,1.648,2.464,7.546,7.546,0,0,1,.609,2.993,6.4,6.4,0,0,1-.154,1.453,4.428,4.428,0,0,1-.5,1.253,9.611,9.611,0,0,1-.59.9q-0.241.314-.71,0.863-0.416.47-.61,0.724c-0.129.169-.279,0.393-0.448,0.669a2.814,2.814,0,0,0-.355.857,4.492,4.492,0,0,0-.1.992,5.144,5.144,0,0,1-5.145,5.142,0.857,0.857,0,0,1,0-1.714,3.43,3.43,0,0,0,3.43-3.428,6.1,6.1,0,0,1,.154-1.413,4.266,4.266,0,0,1,.5-1.219q0.342-.57.583-0.891c0.16-.214.393-0.495,0.7-0.844,0.358-.41.623-0.732,0.8-0.964a4.027,4.027,0,0,0,.5-1,3.944,3.944,0,0,0,.241-1.386,6,6,0,0,0-12,0,0.858,0.858,0,0,1-1.715,0,7.53,7.53,0,0,1,.61-2.993,7.612,7.612,0,0,1,4.113-4.112,7.667,7.667,0,0,1,5.989,0A7.78,7.78,0,0,1,276.643,343.691Zm-16.487,15.127a0.549,0.549,0,0,0,0,.777l2.251,2.25a0.552,0.552,0,0,0,.777,0l7.758-7.755-3.029-3.027Zm21.049-20.813a0.576,0.576,0,0,0-.4.161l-2.774,2.772-1.219,1.219a8.983,8.983,0,0,1,2.613,3.456l0.951-.951,0.348-.335,3.122-3.121a0.576,0.576,0,0,0,.161-0.4,0.53,0.53,0,0,0-.161-0.388l-2.251-2.25A0.529,0.529,0,0,0,281.205,338.005Z"/>
  </g>
  <g id="fff" class="cls-32">
    <path id="_21" data-name="" class="cls-3" d="M368,360.148a1.41,1.41,0,0,1-1.029-.423,1.42,1.42,0,0,1,0-2.032,1.466,1.466,0,0,1,2.058,0,1.418,1.418,0,0,1,0,2.032A1.41,1.41,0,0,1,368,360.148Zm5.074-3.911a0.565,0.565,0,0,1-.41.171h-9.328a0.563,0.563,0,0,1-.41-0.171,0.548,0.548,0,0,1-.173-0.405V343.175a0.548,0.548,0,0,1,.173-0.405,0.563,0.563,0,0,1,.41-0.171h9.328a0.565,0.565,0,0,1,.41.171,0.552,0.552,0,0,1,.173.405v12.657A0.552,0.552,0,0,1,373.077,356.237Zm-3.616-15.364h-2.915a0.288,0.288,0,1,1,0-.575h2.915a0.288,0.288,0,1,1,0,.575h0Zm4.846-2.193a2.255,2.255,0,0,0-1.64-.684h-9.328a2.255,2.255,0,0,0-1.64.684,2.2,2.2,0,0,0-.692,1.618v18.411a2.2,2.2,0,0,0,.692,1.618,2.255,2.255,0,0,0,1.64.684h9.328a2.255,2.255,0,0,0,1.64-.684,2.2,2.2,0,0,0,.692-1.618V340.3A2.2,2.2,0,0,0,374.307,338.68Z"/>
    <path id="_22" data-name="" class="cls-3" d="M400,350.068a1.227,1.227,0,0,0-.91.383,1.278,1.278,0,0,0-.374.93,0.433,0.433,0,0,1-.121.315,0.446,0.446,0,0,1-.615,0,0.429,0.429,0,0,1-.121-0.315,2.133,2.133,0,0,1,.629-1.546,2.04,2.04,0,0,1,1.512-.642,0.412,0.412,0,0,1,.308.123,0.472,0.472,0,0,1,0,.629,0.412,0.412,0,0,1-.308.123h0Zm0-2.161a3.264,3.264,0,0,0-2.422,1.026,3.556,3.556,0,0,0,0,4.951,3.372,3.372,0,0,0,4.844,0,3.556,3.556,0,0,0,0-4.951A3.264,3.264,0,0,0,400,347.907Zm-10.276,9.6h20.552v1.75H389.725v-1.75ZM400,356.661a4.9,4.9,0,0,1-3.633-1.539,5.334,5.334,0,0,1,0-7.427,5.058,5.058,0,0,1,7.266,0,5.334,5.334,0,0,1,0,7.427A4.9,4.9,0,0,1,400,356.661Zm-8.564-15.785h5.139v1.751h-5.139v-1.751Zm-1.712,2.627h8.617l0.856-1.751h11.079v3.5H389.725V343.5Zm21.763-2.989a1.631,1.631,0,0,0-1.211-.513H389.725a1.631,1.631,0,0,0-1.211.513,1.7,1.7,0,0,0-.5,1.238v17.507a1.7,1.7,0,0,0,.5,1.238,1.631,1.631,0,0,0,1.211.513h20.552a1.631,1.631,0,0,0,1.211-.513,1.7,1.7,0,0,0,.5-1.238V341.752A1.7,1.7,0,0,0,411.488,340.514Z"/>
    <path id="_23" data-name="" class="cls-3" d="M439.7,355.738a2.2,2.2,0,0,0,1.621-.682,2.251,2.251,0,0,0,.674-1.64V343.2a2.252,2.252,0,0,0-.674-1.64,2.2,2.2,0,0,0-1.621-.681H424.1a2.2,2.2,0,0,0-1.621.681,2.248,2.248,0,0,0-.674,1.64v10.214a2.247,2.247,0,0,0,.674,1.64,2.2,2.2,0,0,0,1.621.682H439.7Zm-15.93-12.862a0.438,0.438,0,0,1,.323-0.138H439.7a0.44,0.44,0,0,1,.323.138,0.447,0.447,0,0,1,.136.326v10.214a0.449,0.449,0,0,1-.136.327,0.44,0.44,0,0,1-.323.138H424.1a0.438,0.438,0,0,1-.323-0.138,0.449,0.449,0,0,1-.136-0.327V343.2A0.447,0.447,0,0,1,423.773,342.876Zm-3.349,13.79h-2.3v1.393a1.163,1.163,0,0,0,.675.987,3.079,3.079,0,0,0,1.621.406h22.951a3.079,3.079,0,0,0,1.621-.406,1.163,1.163,0,0,0,.675-0.987v-1.393H420.424Zm10.328,1.393a0.232,0.232,0,0,1,0-.464h2.3a0.232,0.232,0,0,1,0,.464h-2.3Z"/>
    <path class="cls-3" d="M491.867,350.005l1.349,2.422h-8.993a13.439,13.439,0,0,1-.225-2.422,11.745,11.745,0,0,1,3.148-8.11Zm-7.307,3.605h11.579l-4.384,7.6a11.567,11.567,0,0,1-4.469-2.957A11.987,11.987,0,0,1,484.56,353.61Zm8.319-5.407-0.056.113-4.384-7.6a11.457,11.457,0,0,1,7.531-2.7,12.967,12.967,0,0,1,2.642.282Zm5.171,5.407,1.124-1.915,4.384,7.6a11.674,11.674,0,0,1-7.588,2.7,12.692,12.692,0,0,1-2.585-.281Zm9.386-7.209H495.858l4.384-7.6a11.6,11.6,0,0,1,4.468,2.957A12.009,12.009,0,0,1,507.436,346.4Zm0.281,1.182a10.963,10.963,0,0,1,.281,2.422,11.491,11.491,0,0,1-3.2,8.11l-5.677-9.912-0.338-.62h8.937Z"/>
    <path id="_24-2" data-name="" class="cls-3" d="M529.689,350.506h-3.38a0.8,0.8,0,0,1-.594-0.26,0.88,0.88,0,0,1,0-1.231,0.8,0.8,0,0,1,.594-0.26h3.38a0.8,0.8,0,0,1,.594.26,0.88,0.88,0,0,1,0,1.231,0.8,0.8,0,0,1-.594.26h0Zm8.2-4.117a0.8,0.8,0,0,0-.594-0.26H518.7a0.8,0.8,0,0,0-.594.26,0.856,0.856,0,0,0-.251.615v13.131a0.856,0.856,0,0,0,.251.615,0.8,0.8,0,0,0,.594.26h18.592a0.8,0.8,0,0,0,.594-0.26,0.856,0.856,0,0,0,.251-0.615V347A0.856,0.856,0,0,0,537.889,346.389Zm0.845-6.128a0.8,0.8,0,0,0-.594-0.26H517.858a0.8,0.8,0,0,0-.594.26,0.856,0.856,0,0,0-.251.615v3.5a0.86,0.86,0,0,0,.251.616,0.8,0.8,0,0,0,.594.259H538.14a0.8,0.8,0,0,0,.594-0.259,0.86,0.86,0,0,0,.251-0.616v-3.5A0.856,0.856,0,0,0,538.734,340.261Z"/>
    <path id="_25" data-name="" class="cls-3" d="M465.259,347.025a3,3,0,0,0-5.118,2.123,0.858,0.858,0,0,1-1.715,0,4.717,4.717,0,1,1,9.433,0,0.858,0.858,0,0,1-1.715,0A2.88,2.88,0,0,0,465.259,347.025Zm3.384-3.334a7.76,7.76,0,0,1,1.648,2.464,7.546,7.546,0,0,1,.609,2.993,6.4,6.4,0,0,1-.154,1.453,4.428,4.428,0,0,1-.5,1.253,9.611,9.611,0,0,1-.59.9q-0.241.314-.71,0.863-0.416.47-.61,0.724c-0.129.169-.279,0.393-0.448,0.669a2.868,2.868,0,0,0-.356.857,4.494,4.494,0,0,0-.1.992,5.144,5.144,0,0,1-5.145,5.142,0.857,0.857,0,0,1,0-1.714,3.43,3.43,0,0,0,3.43-3.428,6.1,6.1,0,0,1,.154-1.413,4.266,4.266,0,0,1,.5-1.219q0.342-.57.583-0.891c0.16-.214.393-0.495,0.7-0.844,0.358-.41.623-0.732,0.8-0.964a4.027,4.027,0,0,0,.5-1,3.944,3.944,0,0,0,.241-1.386,6,6,0,0,0-12,0,0.858,0.858,0,0,1-1.715,0,7.53,7.53,0,0,1,.61-2.993,7.612,7.612,0,0,1,4.113-4.112,7.667,7.667,0,0,1,5.989,0A7.769,7.769,0,0,1,468.643,343.691Zm-16.487,15.127a0.549,0.549,0,0,0,0,.777l2.251,2.25a0.552,0.552,0,0,0,.777,0l7.758-7.755-3.028-3.027Zm21.049-20.813a0.576,0.576,0,0,0-.4.161l-2.774,2.772-1.219,1.219a8.983,8.983,0,0,1,2.613,3.456l0.951-.951,0.348-.335,3.122-3.121a0.576,0.576,0,0,0,.161-0.4,0.53,0.53,0,0,0-.161-0.388l-2.251-2.25A0.53,0.53,0,0,0,473.205,338.005Z"/>
  </g>
  <g id="icon_play" data-name="icon play">
    <rect class="cls-33" y="416" width="60" height="60"/>
    <path id="Shape_1_copy" data-name="Shape 1 copy" class="cls-34" d="M18,433v27s0.305,5.251,6,1c3.59-2.68,16-12,16-12s3.167-2.833-1-6c-2.441-1.855-15-11-15-11S18,426.75,18,433Zm5,7.624v12s0.247,2.538,2.969.461c1.57-1.2,7.917-5.538,7.917-5.538a1.323,1.323,0,0,0,0-2.308c-1.146-.928-8.412-6-8.412-6S23,437.739,23,440.624Z"/>
  </g>
  <path id="Shape_2_copy_2" data-name="Shape 2 copy 2" class="cls-3" d="M136.006,67.943l-3.841,3.244L133.314,76l-4.333-2.57L124.648,76l1.149-4.818-3.808-3.244,5.022-.418L128.981,63l1.97,4.529Zm-7.025,4.24,2.659,1.542L130.918,70.8l2.33-1.991-3.053-.257-1.214-2.762L127.8,68.553l-3.053.257,2.3,1.991-0.689,2.923Z"/>
  <path class="cls-5" d="M142.979,73.435L138.646,76l1.149-4.818-3.808-3.244,5.023-.418L142.979,63l1.97,4.529,5.056,0.418-3.841,3.244L147.313,76Z"/>
  <path id="Shape_2_copy_2-2" data-name="Shape 2 copy 2" class="cls-3" d="M576.006,347.015l-8.77,7.235,2.624,10.744-9.894-5.73-9.894,5.73L552.7,354.25,544,347.015l11.467-.931,4.5-10.1,4.5,10.1Zm-16.04,9.455,6.071,3.438-1.649-6.518,5.322-4.441-6.971-.573-2.773-6.16-2.7,6.16-6.971.573,5.246,4.441-1.574,6.518Z"/>
  <path id="Shape_1_copy-2" data-name="Shape 1 copy" class="cls-5" d="M591.961,359.285l-9.893,5.728,2.623-10.74-8.7-7.232,11.468-.93,4.5-10.1,4.5,10.1L608,347.041l-8.77,7.232,2.623,10.74Z"/>
  <path id="_26" data-name="" class="cls-24" d="M211.086,131.676a1.98,1.98,0,0,0-1.453.636,2.151,2.151,0,0,0-.481.645,1.9,1.9,0,0,0-.155.808v4.179h2.824v2.825h8.358v-2.825H223v-4.179a2.118,2.118,0,0,0-2.089-2.089h-9.828Zm0.735-3.445v2.824h8.358v-2.824h-8.358Zm7,11.068h-5.648v-3.444h5.648V139.3Zm1.42-5.232a0.706,0.706,0,0,1-.065-0.3,0.572,0.572,0,0,1,.065-0.22c0.044-.092.093-0.193,0.147-0.3,0.1-.054.182-0.1,0.253-0.147a0.514,0.514,0,0,1,.27-0.065,0.719,0.719,0,0,1,.293.065,0.78,0.78,0,0,1,.229.147c0.054,0.109.1,0.2,0.147,0.269a0.478,0.478,0,0,1,.065.253,0.706,0.706,0,0,1-.065.3,0.8,0.8,0,0,1-.147.221c-0.109.054-.2,0.1-0.269,0.147a0.478,0.478,0,0,1-.253.065,0.706,0.706,0,0,1-.3-0.065A0.673,0.673,0,0,1,220.244,134.067Z"/>
  <path id="_27" data-name="" class="cls-24" d="M236.742,136.8a2.278,2.278,0,0,1,1.566.623,1.933,1.933,0,0,1,.692,1.485,1.981,1.981,0,0,1-.642,1.471,2.177,2.177,0,0,1-3.049,0,1.981,1.981,0,0,1-.642-1.471,0.515,0.515,0,0,1,.043-0.226,0.492,0.492,0,0,0,.042-0.212l-5.871-3.243a1.967,1.967,0,0,1-.72.636,2.07,2.07,0,0,1-.988.239,2.124,2.124,0,0,1-1.531-.622,2.022,2.022,0,0,1,0-2.956,2.125,2.125,0,0,1,1.531-.623,2.071,2.071,0,0,1,.988.24,1.95,1.95,0,0,1,.72.636l5.786-3.066a0.8,0.8,0,0,1-.084-0.308c-0.01-.114-0.015-0.216-0.015-0.307a1.992,1.992,0,0,1,.65-1.478,2.115,2.115,0,0,1,1.524-.63,2.211,2.211,0,0,1,1.524.582,1.859,1.859,0,0,1,.649,1.443,1.972,1.972,0,0,1-.649,1.472,2.131,2.131,0,0,1-1.524.622,2.041,2.041,0,0,1-.875-0.184,1.86,1.86,0,0,1-.663-0.514l-5.956,3.066v0.876l5.772,3.243a3.538,3.538,0,0,1,.762-0.561,1.96,1.96,0,0,1,.96-0.233h0Z"/>
  <path id="_28" data-name="" class="cls-35" d="M253.762,131.089l-1.063-1.062a0.753,0.753,0,0,0-1.062,0l-5.125,5.132-2.3-2.3a0.753,0.753,0,0,0-1.062,0l-1.063,1.062a0.754,0.754,0,0,0,0,1.063l2.828,2.828,1.063,1.062a0.753,0.753,0,0,0,1.062,0l1.063-1.062,5.656-5.656a0.754,0.754,0,0,0,0-1.063h0Z"/>
  <path id="_29" data-name="" class="cls-36" d="M268.848,137l-2.3-2.3,2.3-2.3a0.754,0.754,0,0,0,0-1.063l-1.063-1.062a0.753,0.753,0,0,0-1.062,0l-2.3,2.3-2.3-2.3a0.753,0.753,0,0,0-1.062,0L260,131.339a0.754,0.754,0,0,0,0,1.063l2.3,2.3L260,137a0.754,0.754,0,0,0,0,1.063l1.063,1.062a0.753,0.753,0,0,0,1.062,0l2.3-2.3,2.3,2.3a0.753,0.753,0,0,0,1.062,0l1.063-1.062a0.754,0.754,0,0,0,0-1.063h0Z"/>
</svg>
