<!-- Generated by IcoMoon.io -->
<svg version="1.1" xmlns="http://www.w3.org/2000/svg" width="32" height="32" viewBox="0 0 32 32">
<title>advertising-2</title>
<path d="M30 0h-28c-1.2 0-2 0.8-2 2v28c0 1.2 0.8 2 2 2h28c1.2 0 2-0.8 2-2v-28c0-1.2-0.8-2-2-2zM15 26.8c-5.8-1.2-9.6-6.8-8.6-12.6 1.2-6.2 6.4-9.6 11.6-9 2 0.2 3.8 1.2 5.4 2.4 1.4 1 2.2 2.6 2.2 2.6s-9.8 10-10.4 10.6c-1.2-0.4-2.2-1.2-2.8-2.2 0 0 4.6-4.6 8.2-8.4-1-0.8-2.4-1.2-3.8-1.2-6 0.2-6.8 5.8-6.8 5.8-0.2 1.2-0.2 2.4 0.2 3.4 0.2 0.8 0.8 1.8 1.4 2.4s1.4 1.2 2.2 1.6c0 0 0 0 0 0 0.2 0 0.2 0.2 0.4 0.2 0 0 0.2 0 0.2 0s0.2 0 0.2 0c0 0 0.2 0 0.4 0 1 0.2 2.2 0.4 3.2 0 0.4 0 0.8-0.2 1.2-0.4v0c0.4-0.2 0.8-0.4 1.2-0.6s0.8-0.6 1-0.8c0 0 0 0 0 0v0c0.4-0.4 0.8-0.8 1.4-1 0 0 0 0 0 0v0c0.2 0 0.4 0 0.4 0 0.2 0 0.2 0 0.4 0s0.2 0 0.4 0.2 0.6 0.4 0.8 0.6v0 0c0.2 0.2 0.2 0.4 0.4 0.6 0 0 0 0 0 0s0 0 0 0 0 0.2 0 0.2c-2.2 4.6-6.8 6.2-10.4 5.6z"></path>
</svg>
