<!-- Generated by IcoMoon.io -->
<svg version="1.1" xmlns="http://www.w3.org/2000/svg" width="32" height="32" viewBox="0 0 32 32">
<title>Bell-2</title>
<path d="M16.444 0.009c-0.147-0.006-0.295-0.009-0.444-0.009-5.877 0-10.64 4.859-10.64 10.857v7.429c-1.856 0.003-3.36 1.537-3.36 3.428v0.573c0 0.947 0.752 1.713 1.681 1.713h24.638c0.929 0 1.681-0.764 1.681-1.713v-0.573c0-0.054-0.001-0.107-0.004-0.16-8.014-1.82-13.996-8.988-13.996-17.553 0-1.371 0.153-2.707 0.444-3.991z"></path>
<path d="M12 26c0 2.209 1.791 4 4 4s4-1.791 4-4h-8z"></path>
</svg>
