<!-- Generated by IcoMoon.io -->
<svg version="1.1" xmlns="http://www.w3.org/2000/svg" width="32" height="32" viewBox="0 0 32 32">
<title>bullet-list-70</title>
<path d="M30 0h-16c-1.2 0-2 0.8-2 2v4c0 1.2 0.8 2 2 2h16c1.2 0 2-0.8 2-2v-4c0-1.2-0.8-2-2-2z"></path>
<path d="M30 12h-16c-1.2 0-2 0.8-2 2v4c0 1.2 0.8 2 2 2h16c1.2 0 2-0.8 2-2v-4c0-1.2-0.8-2-2-2z"></path>
<path d="M30 24h-16c-1.2 0-2 0.8-2 2v4c0 1.2 0.8 2 2 2h16c1.2 0 2-0.8 2-2v-4c0-1.2-0.8-2-2-2z"></path>
<path d="M6 0h-4c-1.2 0-2 0.8-2 2v4c0 1.2 0.8 2 2 2h4c1.2 0 2-0.8 2-2v-4c0-1.2-0.8-2-2-2z"></path>
<path d="M6 12h-4c-1.2 0-2 0.8-2 2v4c0 1.2 0.8 2 2 2h4c1.2 0 2-0.8 2-2v-4c0-1.2-0.8-2-2-2z"></path>
<path d="M6 24h-4c-1.2 0-2 0.8-2 2v4c0 1.2 0.8 2 2 2h4c1.2 0 2-0.8 2-2v-4c0-1.2-0.8-2-2-2z"></path>
</svg>
