<!-- Generated by IcoMoon.io -->
<svg version="1.1" xmlns="http://www.w3.org/2000/svg" width="32" height="32" viewBox="0 0 32 32">
<title>calendar-grid-61</title>
<path d="M30 4h-4v-4h-6v4h-8v-4h-6v4h-4c-1.104 0-2 0.896-2 2v24c0 1.104 0.896 2 2 2h28c1.104 0 2-0.896 2-2v-24c0-1.104-0.896-2-2-2zM28 28h-24v-18h24v18z"></path>
<path d="M8 14h4v4h-4v-4z"></path>
<path d="M14 14h4v4h-4v-4z"></path>
<path d="M8 20h4v4h-4v-4z"></path>
<path d="M14 20h4v4h-4v-4z"></path>
<path d="M20 14h4v4h-4v-4z"></path>
<path d="M20 20h4v4h-4v-4z"></path>
</svg>
