<!-- Generated by IcoMoon.io -->
<svg version="1.1" xmlns="http://www.w3.org/2000/svg" width="32" height="32" viewBox="0 0 32 32">
<title>check-double</title>
<path d="M31.11 4.336c-0.312-0.211-0.696-0.336-1.11-0.336-0.691 0-1.3 0.35-1.659 0.883l-0.005 0.007-10.646 15.972-1.674-1.674-2.262 3.4 2.832 2.832c0.361 0.358 0.859 0.58 1.408 0.58 0.002 0 0.004 0 0.006 0h-0c0.066 0 0.13 0 0.2-0.010 0.613-0.063 1.138-0.394 1.462-0.873l0.005-0.007 12-18c0.21-0.312 0.336-0.696 0.336-1.109 0-0.692-0.351-1.301-0.885-1.66l-0.007-0.005z"></path>
<path d="M8 26c-0.552-0-1.052-0.224-1.414-0.586l-6-6c-0.377-0.364-0.611-0.874-0.611-1.439 0-1.105 0.895-2 2-2 0.565 0 1.074 0.234 1.438 0.61l0.001 0.001 4.276 4.276 10.646-15.972c0.364-0.54 0.973-0.89 1.664-0.89 1.105 0 2 0.896 2 2 0 0.414-0.126 0.798-0.341 1.117l0.005-0.007-12 18c-0.325 0.489-0.85 0.824-1.455 0.889l-0.009 0.001c-0.070 0-0.134 0-0.2 0z"></path>
</svg>
