<!-- Generated by IcoMoon.io -->
<svg version="1.1" xmlns="http://www.w3.org/2000/svg" width="28" height="32" viewBox="0 0 28 32">
<title>ns-play-2</title>
<path fill="#111" opacity="0.5" d="M28.19 22.78v-13.56c-0.003-0.813-0.439-1.524-1.090-1.914l-0.010-0.006-10.91-6.3c-0.225-0.149-0.491-0.302-0.765-0.44l-0.045-0.020c-0.315-0.158-0.686-0.254-1.078-0.26l-0.002-0c-0.673 0.043-1.286 0.265-1.802 0.618l0.012-0.008-11.12 6.42c-0.658 0.394-1.093 1.1-1.1 1.909v13.561c0.003 0.813 0.439 1.524 1.090 1.914l0.010 0.006 10.91 6.31c0.225 0.148 0.49 0.301 0.764 0.439l0.046 0.021c0.34 0.159 0.738 0.251 1.157 0.251 0.662 0 1.27-0.23 1.748-0.616l-0.005 0.004 11.12-6.42c0.466-0.243 0.821-0.646 0.996-1.136l0.004-0.014c0.048-0.181 0.075-0.389 0.075-0.603 0-0.055-0.002-0.11-0.005-0.165l0 0.007zM19.81 16c-0.001 0.239-0.092 0.457-0.241 0.621l0.001-0.001c0 0.060-1.22 0.91-5.45 3.94l-1.29 0.93c-0.128 0.094-0.289 0.15-0.463 0.15-0.002 0-0.005 0-0.007-0h0c-0.15-0-0.291-0.037-0.415-0.102l0.005 0.002c-0.319-0.163-0.537-0.485-0.55-0.858l-0-0.002v-9.4c0.013-0.375 0.231-0.697 0.544-0.857l0.006-0.003c0.125-0.080 0.277-0.128 0.44-0.128s0.315 0.048 0.443 0.13l-0.003-0.002 1.17 0.88c4.35 3.11 5.55 4 5.61 4.050 0.148 0.163 0.239 0.381 0.24 0.62v0c-0.012 0.010-0.025 0.019-0.038 0.029l-0.002 0.001z"></path>
<path fill="#fff" d="M27.23 7.070l-10.91-6.31c-0.233-0.153-0.508-0.309-0.793-0.449l-0.047-0.021c-0.37-0.17-0.802-0.269-1.258-0.269-0.704 0-1.352 0.237-1.87 0.635l0.007-0.005-11.12 6.42c-0.74 0.444-1.23 1.239-1.24 2.149v13.561c0.006 0.915 0.497 1.714 1.229 2.154l0.011 0.006 10.51 6.060 0.39 0.24c0.232 0.152 0.508 0.308 0.792 0.449l0.048 0.021c0.351 0.173 0.763 0.276 1.199 0.28h0.001c0.723-0.041 1.385-0.274 1.944-0.649l-0.014 0.009 11.12-6.42c0.515-0.285 0.904-0.743 1.095-1.294l0.005-0.017v-0.080c0.070-0.227 0.11-0.488 0.11-0.759 0-0.004 0-0.008-0-0.012v0.001-13.55c-0.003-0.906-0.482-1.699-1.199-2.144l-0.011-0.006zM28.070 23.54c-0.179 0.503-0.534 0.907-0.989 1.145l-0.011 0.005-11.070 6.42c-0.47 0.372-1.071 0.596-1.724 0.596-0.415 0-0.809-0.091-1.163-0.253l0.017 0.007c-0.32-0.159-0.585-0.312-0.84-0.479l0.030 0.019-0.4-0.24-10.54-6.070c-0.661-0.396-1.097-1.107-1.1-1.92v-13.55c0.003-0.813 0.439-1.524 1.090-1.914l0.010-0.006 11.12-6.41c0.504-0.345 1.117-0.567 1.779-0.609l0.011-0.001c0.394 0.006 0.765 0.102 1.095 0.267l-0.015-0.007c0.319 0.158 0.585 0.311 0.839 0.478l-0.029-0.018 0.4 0.24 10.51 6.070c0.661 0.396 1.097 1.107 1.1 1.92v13.55c-0.001 0.257-0.041 0.505-0.115 0.737l0.005-0.017z"></path>
<path fill="#fff" d="M19.57 15.35c-0.060-0.070-1.26-0.94-5.61-4.050l-1.15-0.82c-0.125-0.080-0.277-0.128-0.44-0.128s-0.315 0.048-0.443 0.13l0.003-0.002c-0.319 0.163-0.537 0.485-0.55 0.858l-0 0.002v9.43c0.013 0.375 0.231 0.697 0.544 0.857l0.006 0.003c0.119 0.063 0.26 0.1 0.41 0.1h0c0.002 0 0.004 0 0.007 0 0.174 0 0.335-0.056 0.465-0.152l-0.002 0.002 1.29-0.93c4.23-3 5.4-3.88 5.45-3.94 0.148-0.163 0.239-0.381 0.24-0.62v-0c0.001-0.012 0.001-0.026 0.001-0.040s-0-0.028-0.002-0.042l0 0.002c0.001-0.017 0.002-0.037 0.002-0.057 0-0.231-0.084-0.442-0.223-0.604l0.001 0.001z"></path>
</svg>
