<!-- Generated by IcoMoon.io -->
<svg version="1.1" xmlns="http://www.w3.org/2000/svg" width="32" height="32" viewBox="0 0 32 32">
<title>ns-wedding-1</title>
<path d="M9.346 14.181c-0.056 0.020-0.112 0.041-0.169 0.060-1.258 0.425-2.526 0.641-3.768 0.641-0.78 0-1.546-0.086-2.277-0.257-0.125-0.029-0.246-0.066-0.363-0.111v16.563c0 0.245 0.097 0.48 0.27 0.653s0.409 0.27 0.653 0.27h6.188c0.51 0 0.923-0.413 0.923-0.923v-12.582c0-1.58-0.512-3.081-1.457-4.314v0z"></path>
<path d="M28.869 14.625c-0.73 0.171-1.497 0.257-2.277 0.257-1.243 0-2.51-0.216-3.768-0.641-0.055-0.019-0.11-0.039-0.165-0.059-0.916 1.197-1.462 2.693-1.462 4.313v12.581c0 0.51 0.413 0.923 0.923 0.923h6.188c0.51 0 0.923-0.413 0.923-0.923v-16.562c-0.117 0.044-0.238 0.082-0.362 0.111v0z"></path>
<path d="M29.157 11.832c-0.34-3.228-1.856-6.212-4.269-8.402-2.43-2.206-5.578-3.424-8.863-3.43h-0.002c-0.007 0-0.015 0.001-0.023 0.001s-0.016-0.001-0.024-0.001h-0.002c-3.284 0.006-6.431 1.224-8.862 3.43-2.413 2.19-3.929 5.174-4.269 8.402-0.004 0.042-0.005 0.083-0.004 0.124 0.005 0.18 0.063 0.351 0.161 0.494v0c0.012 0.017 0.024 0.033 0.037 0.049 0 0 0.007 0.009 0.011 0.014 0.011 0.014 0.023 0.027 0.035 0.040 0.006 0.006 0.012 0.013 0.018 0.019 0.011 0.011 0.022 0.022 0.034 0.033 0.008 0.007 0.016 0.015 0.024 0.022 0.011 0.009 0.022 0.018 0.034 0.027 0.010 0.008 0.020 0.015 0.030 0.022 0.011 0.008 0.022 0.016 0.033 0.023s0.023 0.015 0.035 0.022c0.011 0.006 0.022 0.013 0.033 0.019 0.013 0.007 0.027 0.014 0.041 0.021 0.010 0.005 0.020 0.010 0.031 0.015 0.016 0.007 0.033 0.013 0.049 0.019 0.009 0.003 0.017 0.007 0.026 0.010 0.026 0.009 0.053 0.016 0.080 0.023 0.373 0.087 0.757 0.147 1.147 0.18 0.234 0.019 0.471 0.029 0.71 0.029 0.089 0 0.178-0.002 0.266-0.005 0.020-0.001 0.041-0.001 0.061-0.002 0.089-0.003 0.179-0.008 0.268-0.013 0.004 0 0.008-0.001 0.008-0.001 0.093-0.006 0.181-0.014 0.27-0.023 0.016-0.002 0.031-0.003 0.047-0.005 0.094-0.010 0.187-0.020 0.281-0.032 0 0 0.004-0.001 0.006-0.001 0.095-0.012 0.19-0.027 0.285-0.042 0.008-0.001 0.016-0.002 0.025-0.004 0.2-0.033 0.4-0.072 0.601-0.118l0.003-0.001c0.102-0.023 0.204-0.048 0.306-0.075v0c0.249-0.065 0.499-0.139 0.749-0.223 1.741-0.589 3.393-1.632 4.778-3.017 0.059-0.059 0.119-0.12 0.178-0.182-1.336-0.762-2.156-2.165-2.156-3.717 0-1.527 1.242-2.769 2.769-2.769 0.709 0 1.356 0.268 1.846 0.707 0.49-0.439 1.138-0.707 1.846-0.707 1.527 0 2.769 1.242 2.769 2.769 0 1.552-0.82 2.955-2.156 3.717 0.059 0.061 0.118 0.122 0.178 0.182 1.385 1.385 3.037 2.428 4.778 3.017 0.251 0.085 0.503 0.159 0.754 0.224 0.101 0.026 0.202 0.051 0.303 0.074l0.009 0.002c0.199 0.045 0.397 0.084 0.594 0.116 0.009 0.002 0.019 0.003 0.028 0.004 0.095 0.015 0.189 0.029 0.283 0.042 0.002 0 0.004 0 0.004 0 0.096 0.013 0.189 0.023 0.282 0.033 0.016 0.002 0.032 0.003 0.049 0.005 0.089 0.009 0.177 0.016 0.266 0.022 0.003 0 0.007 0.001 0.007 0.001 0.093 0.006 0.183 0.010 0.272 0.013 0.020 0.001 0.041 0.001 0.061 0.002 0.089 0.003 0.177 0.005 0.266 0.005 0.080 0 0.159-0.001 0.238-0.003 0.158-0.004 0.316-0.013 0.472-0.026 0.078-0.006 0.156-0.014 0.233-0.023 0.31-0.035 0.615-0.087 0.914-0.157v0c0.027-0.006 0.053-0.014 0.079-0.023 0.009-0.003 0.018-0.006 0.026-0.010 0.017-0.006 0.034-0.012 0.050-0.019 0.010-0.005 0.020-0.010 0.031-0.015 0.014-0.006 0.028-0.013 0.041-0.020 0.011-0.006 0.022-0.012 0.033-0.019s0.024-0.014 0.035-0.022c0.011-0.007 0.022-0.015 0.033-0.023 0.010-0.007 0.020-0.014 0.030-0.022 0.012-0.009 0.022-0.018 0.033-0.028 0.008-0.007 0.017-0.014 0.024-0.022 0.012-0.011 0.023-0.022 0.034-0.033 0.006-0.006 0.013-0.013 0.019-0.020 0.012-0.013 0.024-0.026 0.035-0.039l0.011-0.014c0.013-0.016 0.025-0.032 0.036-0.049l0.001-0.001c0.098-0.143 0.155-0.313 0.161-0.494v0c0.001-0.039 0.001-0.080-0.004-0.121v0z"></path>
<path d="M17.846 4.654c-0.509 0-0.923 0.414-0.923 0.923s-0.413 0.923-0.923 0.923c-0.51 0-0.923-0.413-0.923-0.923s-0.414-0.923-0.923-0.923-0.923 0.414-0.923 0.923c0 0.138 0.013 0.274 0.035 0.407 0.011 0.067 0.025 0.134 0.042 0.2l0.001 0.004c0.025 0.097 0.056 0.192 0.092 0.285 0 0 0.004 0.011 0.006 0.016 0.022 0.055 0.046 0.109 0.072 0.162 0 0 0.006 0.012 0.009 0.018 0.014 0.028 0.029 0.056 0.044 0.084 0 0 0.005 0.008 0.007 0.012 0.027 0.050 0.057 0.098 0.088 0.146 0.008 0.012 0.016 0.024 0.024 0.036 0.026 0.038 0.053 0.075 0.081 0.111 0.010 0.013 0.020 0.027 0.031 0.040 0.017 0.021 0.034 0.042 0.052 0.063 0.013 0.015 0.026 0.029 0.039 0.043 0.028 0.031 0.056 0.061 0.085 0.090 0.014 0.014 0.028 0.028 0.043 0.042 0.018 0.018 0.037 0.036 0.056 0.054 0.16 0.143 0.341 0.267 0.54 0.367l1.422 0.711 1.422-0.711c0.199-0.1 0.38-0.224 0.54-0.367 0.019-0.018 0.038-0.036 0.057-0.054 0.014-0.014 0.028-0.027 0.042-0.041 0.030-0.030 0.058-0.060 0.086-0.090 0.013-0.014 0.026-0.029 0.038-0.043 0.018-0.021 0.035-0.042 0.052-0.063 0.011-0.013 0.020-0.026 0.031-0.040 0.028-0.037 0.055-0.074 0.081-0.112 0.008-0.012 0.016-0.024 0.024-0.036 0.031-0.047 0.060-0.096 0.088-0.145 0 0 0.005-0.008 0.007-0.012 0.015-0.028 0.030-0.056 0.044-0.084l0.009-0.018c0.026-0.053 0.050-0.108 0.072-0.163l0.007-0.018c0.036-0.092 0.067-0.188 0.092-0.285l0.001-0.004c0.050-0.195 0.077-0.398 0.077-0.606-0.001-0.508-0.415-0.922-0.924-0.922v0z"></path>
</svg>
