<!-- Generated by IcoMoon.io -->
<svg version="1.1" xmlns="http://www.w3.org/2000/svg" width="32" height="32" viewBox="0 0 32 32">
<title>ns-wedding-7</title>
<path d="M11.587 5.15c0.356 0.473 0.552 1.061 0.552 1.655v0.92h1.724c0.651 0 1.304-0.065 1.942-0.193l1.3-0.259v-0.652h1.256l1.502 0.901v-0.718c0-0.593 0.196-1.181 0.552-1.655l0.552-0.735c0.356-0.474 0.552-1.062 0.552-1.655s-0.196-1.181-0.552-1.655l-0.088-0.119c-0.463-0.617-1.201-0.985-1.972-0.985-0.659 0-1.278 0.256-1.743 0.722l-1.162 1.161-1.162-1.161c-0.466-0.466-1.085-0.722-1.744-0.722-0.771 0-1.509 0.368-1.973 0.987l-0.087 0.116c-0.357 0.475-0.553 1.062-0.553 1.656s0.196 1.181 0.552 1.655l0.552 0.736z"></path>
<path d="M19.413 12.769l0.695-2.783-0.691 0.414-1.315 2.63 1.311-0.261z"></path>
<path d="M23.392 13.003l-1.006-2.681-0.561-0.337 0.7 2.8 0.867 0.218z"></path>
<path d="M18.208 7.816v2.024l1.687-1.012-1.687-1.012z"></path>
<path d="M23.725 7.816l-1.687 1.012 1.687 1.012v-2.024z"></path>
<path d="M10.221 23.724h0.451c1.092 0 2.12 0.425 2.893 1.198 0.65 0.651 1.516 1.009 2.435 1.009 0.92 0 1.785-0.358 2.435-1.009 0.772-0.772 1.8-1.198 2.892-1.198h0.451c0.77-1.040 1.984-1.655 3.287-1.655h0.898c-0.586-1.298-1.247-2.563-1.97-3.796-0.817 0.162-1.546 0.635-2.018 1.343l-0.164 0.246h-0.484c-1.154 0-2.239 0.449-3.054 1.265-0.599 0.599-1.428 0.942-2.274 0.942s-1.675-0.343-2.274-0.942c-0.816-0.816-1.901-1.265-3.054-1.265h-0.484l-0.164-0.246c-0.472-0.708-1.201-1.182-2.019-1.343-0.724 1.233-1.384 2.498-1.97 3.796h0.898c1.306 0 2.519 0.616 3.289 1.655v0z"></path>
<path d="M28.496 29.566c-0.506-2.193-1.198-4.327-2.057-6.393h-1.371c-1.001 0-1.93 0.497-2.486 1.33l-0.217 0.325h-1.036c-0.798 0-1.549 0.31-2.113 0.875-0.859 0.859-2.001 1.332-3.215 1.332-1.215 0-2.356-0.473-3.216-1.332-0.564-0.564-1.315-0.875-2.113-0.875h-1.036l-0.216-0.325c-0.556-0.833-1.484-1.33-2.486-1.33h-1.371c-0.86 2.066-1.551 4.201-2.057 6.393l-0.099 0.428c1.445 0.502 6.301 2.006 12.593 2.006s11.147-1.504 12.594-2.007l-0.098-0.427z"></path>
<path d="M11.816 11.035l-0.178 0.178c-0.3 0.3-0.587 0.61-0.866 0.926h0.593c2.037 0 4.033-0.67 5.667-1.882-1.286 0.508-2.668 0.778-4.050 0.778h-1.166z"></path>
<path d="M17.104 8.397l-1.083 0.217c-0.708 0.142-1.435 0.214-2.158 0.214h-1.724v1.104h0.843c1.416 0 2.834-0.314 4.122-0.904v-0.631z"></path>
<path d="M10.767 18.759c1.413 0.024 2.738 0.586 3.74 1.588 0.394 0.393 0.937 0.618 1.494 0.618 0.556 0 1.1-0.225 1.493-0.618 1.002-1.002 2.327-1.564 3.74-1.588 0.789-1.020 1.994-1.629 3.291-1.655-0.523-1.099-1.144-2.151-1.846-3.142l-1.064-0.266-0.649-2.594-0.653 2.613-4.207 0.841 1.76-3.521h-0.031c-1.849 1.421-4.137 2.207-6.471 2.207h-1.513c-0.926 1.197-1.721 2.488-2.375 3.863 1.298 0.025 2.503 0.634 3.291 1.654v0z"></path>
</svg>
