<!-- Generated by IcoMoon.io -->
<svg version="1.1" xmlns="http://www.w3.org/2000/svg" width="32" height="32" viewBox="0 0 32 32">
<title>ns-wedding-5</title>
<path d="M18.068 24.411l13.882-6.201-1.295-1.529c-1.788-2.067-4.68-2.736-7.173-1.71-2.372-1.041-5.107-1.042-7.483-0.003-2.376-1.040-5.111-1.039-7.483 0.003-2.495-1.028-5.386-0.356-7.173 1.71l-1.293 1.529 13.701 6.12 4.317 0.081z"></path>
<path d="M9.55 11.327c0.089 0.442 0.26 0.852 0.468 1.244 1.098-0.221 2.221-0.262 3.337-0.154-0.809-0.67-1.833-1.090-2.963-1.090h-0.842z"></path>
<path d="M8.080 12.889c-0.319-0.777-0.491-1.621-0.491-2.497v-0.934h2.804c2.388 0 4.46 1.3 5.602 3.216 1.147-1.932 3.237-3.216 5.613-3.216h2.804v0.934c0 0.875-0.174 1.719-0.495 2.497 2.080-0.511 4.282-0.153 6.102 0.899-0.070-1.113-0.475-2.197-1.211-3.090 0.424-2.538-1.022-5.041-3.432-5.943-0.437-1.172-1.26-2.148-2.358-2.781-1.097-0.635-2.352-0.858-3.588-0.652-2.062-1.698-4.8-1.698-6.861 0-1.232-0.206-2.49 0.017-3.588 0.652-1.097 0.633-1.92 1.609-2.357 2.781-2.409 0.903-3.855 3.405-3.432 5.943-0.737 0.893-1.141 1.978-1.211 3.091 1.82-1.050 4.021-1.408 6.099-0.9v0z"></path>
<path d="M18.62 12.419c1.124-0.111 2.255-0.071 3.361 0.152 0.208-0.392 0.379-0.803 0.468-1.244h-0.841c-1.133 0-2.173 0.413-2.988 1.092v0z"></path>
<path d="M18.804 26.28h-5.608v2.867c0 0.633 0.219 1.212 0.575 1.682v0l0.001 0.001c0.121 0.16 0.259 0.304 0.412 0.435 0.019 0.017 0.039 0.032 0.059 0.049 0.133 0.108 0.275 0.203 0.426 0.286 0.039 0.021 0.077 0.043 0.117 0.063 0.142 0.069 0.29 0.123 0.444 0.167 0.050 0.014 0.096 0.034 0.147 0.045 0.201 0.045 0.408 0.075 0.623 0.075s0.422-0.030 0.624-0.076c0.050-0.012 0.097-0.031 0.147-0.045 0.154-0.044 0.302-0.098 0.444-0.167 0.040-0.020 0.078-0.042 0.117-0.063 0.152-0.083 0.294-0.178 0.426-0.286 0.020-0.017 0.040-0.032 0.059-0.049 0.152-0.131 0.29-0.275 0.411-0.435l0.001-0.001c0.355-0.47 0.575-1.048 0.575-1.682v-2.866z"></path>
</svg>
