<!-- Generated by IcoMoon.io -->
<svg version="1.1" xmlns="http://www.w3.org/2000/svg" width="32" height="32" viewBox="0 0 32 32">
<title>phone-call</title>
<path d="M30.57 24.61l-5.156-5.188c-0.78-0.786-2.050-0.786-2.832-0.004l-4.582 4.582-10-10 4.588-4.588c0.78-0.78 0.782-2.046 0.002-2.828l-5.16-5.168c-0.782-0.782-2.048-0.782-2.83 0l-4.592 4.59-0.008-0.006c0 14.36 11.64 26 26 26l4.566-4.566c0.78-0.78 0.782-2.042 0.004-2.824z"></path>
<path d="M32 16h-4c0-6.618-5.382-12-12-12v-4c8.822 0 16 7.178 16 16z"></path>
<path d="M24 16h-4c0-2.206-1.794-4-4-4v-4c4.412 0 8 3.588 8 8z"></path>
</svg>
