<!-- Generated by IcoMoon.io -->
<svg version="1.1" xmlns="http://www.w3.org/2000/svg" width="32" height="32" viewBox="0 0 32 32">
<title>Quote</title>
<path d="M8.062 26.175c-4.142 0-7.735-2.678-7.735-8.376 0-8.148 7.126-12.935 11.085-13.391l0.914 2.222c-2.314 1.425-4.264 3.875-4.081 5.299 2.619 0.171 6.883 1.539 6.883 6.838 0.061 4.046-2.375 7.408-7.065 7.408z"></path>
<path d="M24.607 26.175c-4.142 0-7.735-2.678-7.735-8.376 0-8.148 7.126-12.935 11.085-13.391l0.914 2.222c-2.314 1.425-4.263 3.875-4.081 5.299 2.619 0.171 6.883 1.539 6.883 6.838 0.061 4.046-2.375 7.408-7.065 7.408z"></path>
</svg>
