<!-- Generated by IcoMoon.io -->
<svg version="1.1" xmlns="http://www.w3.org/2000/svg" width="32" height="32" viewBox="0 0 32 32">
<title>settings-gear-64</title>
<path d="M26.6 10.4l2.2-4.2-2.8-2.8-4.2 2.2c-0.6-0.4-1.4-0.6-2.2-0.8l-1.6-4.8h-4l-1.6 4.6c-0.6 0.2-1.4 0.4-2 0.8l-4.2-2.2-3 3 2.2 4.2c-0.4 0.6-0.6 1.4-0.8 2l-4.6 1.6v4l4.6 1.6c0.2 0.8 0.6 1.4 0.8 2.2l-2.2 4.2 2.8 2.8 4.2-2.2c0.6 0.4 1.4 0.6 2.2 0.8l1.6 4.6h4l1.6-4.6c0.8-0.2 1.4-0.6 2.2-0.8l4.2 2.2 2.8-2.8-2.2-4.2c0.4-0.6 0.6-1.4 0.8-2.2l4.6-1.6v-4l-4.6-1.6c-0.2-0.6-0.4-1.4-0.8-2zM16 22c-3.4 0-6-2.6-6-6s2.6-6 6-6 6 2.6 6 6-2.6 6-6 6z"></path>
</svg>
