<!-- Generated by IcoMoon.io -->
<svg version="1.1" xmlns="http://www.w3.org/2000/svg" width="32" height="32" viewBox="0 0 32 32">
<title>share-2</title>
<path d="M24 12c3.308 0 6-2.692 6-6s-2.692-6-6-6-6 2.692-6 6c0 0.446 0.058 0.878 0.15 1.298l-6.44 4.024c-1.024-0.814-2.302-1.322-3.71-1.322-3.308 0-6 2.692-6 6s2.692 6 6 6c1.408 0 2.686-0.508 3.71-1.322l6.44 4.024c-0.092 0.42-0.15 0.852-0.15 1.298 0 3.308 2.692 6 6 6s6-2.692 6-6-2.692-6-6-6c-1.408 0-2.686 0.508-3.71 1.322l-6.44-4.024c0.092-0.42 0.15-0.852 0.15-1.298s-0.058-0.878-0.15-1.298l6.44-4.024c1.024 0.814 2.302 1.322 3.71 1.322z"></path>
</svg>
