<!-- Generated by IcoMoon.io -->
<svg version="1.1" xmlns="http://www.w3.org/2000/svg" width="32" height="32" viewBox="0 0 32 32">
<title>single-01</title>
<path d="M24 8c0 4.418-3.582 8-8 8s-8-3.582-8-8c0-4.418 3.582-8 8-8s8 3.582 8 8z"></path>
<path d="M32 26.4c0-0.005 0-0.011 0-0.017 0-1.598-0.942-2.976-2.302-3.609l-0.025-0.010c-3.915-1.748-8.483-2.766-13.29-2.766-0.135 0-0.27 0.001-0.405 0.002l0.021-0c-0.114-0.001-0.249-0.002-0.384-0.002-4.806 0-9.375 1.018-13.502 2.85l0.212-0.084c-1.384 0.643-2.326 2.021-2.326 3.619 0 0.006 0 0.012 0 0.018v-0.001 5.6h32z"></path>
</svg>
