<!-- Generated by IcoMoon.io -->
<svg version="1.1" xmlns="http://www.w3.org/2000/svg" width="32" height="32" viewBox="0 0 32 32">
<title>sync</title>
<path d="M16 5.938c2.366 0 4.535 0.789 6.31 2.268l-4.535 4.535 12.225 1.085-1.084-12.225-3.845 3.845c-2.465-2.169-5.718-3.451-9.070-3.451-6.803 0-12.521 4.831-13.606 11.535l3.845 0.69c0.887-4.831 4.93-8.282 9.761-8.282z"></path>
<path d="M16 25.656c-2.366 0-4.535-0.789-6.31-2.268l4.535-4.535-12.225-1.085 1.084 12.226 3.845-3.845c2.465 2.169 5.718 3.451 9.070 3.451 6.803 0 12.521-4.831 13.606-11.535l-3.845-0.69c-0.789 4.831-4.93 8.282-9.761 8.282z"></path>
</svg>
