<!-- Generated by IcoMoon.io -->
<svg version="1.1" xmlns="http://www.w3.org/2000/svg" width="32" height="32" viewBox="0 0 32 32">
<title>tap-01</title>
<path d="M19.744 13.001c-0.197 0-0.397-0.058-0.571-0.18-0.453-0.316-0.564-0.939-0.248-1.393 0.704-1.008 1.075-2.193 1.075-3.428 0-3.309-2.691-6-6-6s-6 2.691-6 6c0 1.235 0.372 2.42 1.075 3.428 0.316 0.453 0.205 1.076-0.248 1.393s-1.076 0.206-1.393-0.248c-0.938-1.345-1.435-2.927-1.435-4.573 0-4.411 3.589-8 8-8s8 3.589 8 8c0 1.646-0.496 3.228-1.435 4.573-0.195 0.279-0.505 0.428-0.821 0.428z"></path>
<path d="M24.128 17.478l-8.128-1.478v-7c0-1.105-0.895-2-2-2s-2 0.895-2 2v13h-1v-3h-1c-1.105 0-2 0.895-2 2v2.895c0 1.362 0.464 2.684 1.315 3.748l2.685 3.356h13l1.556-10.114c0.247-1.606-0.83-3.117-2.428-3.408z"></path>
</svg>
