<!-- Generated by IcoMoon.io -->
<svg version="1.1" xmlns="http://www.w3.org/2000/svg" width="32" height="32" viewBox="0 0 32 32">
<title>triangle-left</title>
<path d="M8 16.002c0 0.652 0.318 1.264 0.854 1.638l20 14c0.61 0.428 1.408 0.476 2.070 0.136 0.662-0.346 1.076-1.028 1.076-1.774v-28.004c0-0.746-0.414-1.43-1.076-1.774-0.662-0.34-1.46-0.292-2.070 0.136l-20 14c-0.536 0.374-0.854 0.986-0.854 1.638 0 0.002 0 0.002 0 0.004 0-0.002 0-0.002 0 0z"></path>
<path d="M2 0c1.104 0 2 0.894 2 2v28c0 1.106-0.896 2-2 2s-2-0.894-2-2v-28c0-1.106 0.896-2 2-2z"></path>
</svg>
