<svg width="16" height="11" viewBox="0 0 16 11" fill="none" xmlns="http://www.w3.org/2000/svg">
<path d="M15.6657 1.72113C15.4817 1.04365 14.9395 0.510096 14.2511 0.329026C13.0033 0 8 0 8 0C8 0 2.99669 0 1.7489 0.329026C1.06052 0.510125 0.518349 1.04365 0.334336 1.72113C0 2.94909 -1.13994e-08 5.51111 -1.13994e-08 5.51111C-1.13994e-08 5.51111 0 8.07314 0.334336 9.3011C0.518349 9.97858 1.06052 10.4899 1.7489 10.671C2.99669 11 8 11 8 11C8 11 13.0033 11 14.2511 10.671C14.9395 10.4899 15.4817 9.97858 15.6657 9.3011C16 8.07314 16 5.51111 16 5.51111C16 5.51111 16 2.94909 15.6657 1.72113ZM6.36363 7.83724V3.18499L10.5454 5.51117L6.36363 7.83724Z" fill="white"/>
</svg>
