<svg width="74" height="39" viewBox="0 0 74 39" fill="none" xmlns="http://www.w3.org/2000/svg">
<path d="M56.9432 22.4246H64.507C64.507 22.4246 65.2634 20.9685 65.3579 18.3401V18.0943C65.2634 15.4659 64.507 14.0099 64.507 14.0099H60.328L55.7898 16.3546C55.7709 16.4492 55.752 16.5437 55.752 16.6383L56.9432 22.4246ZM57.7374 18.17C57.7753 16.7328 58.2102 15.9386 58.2102 15.9386H62.7484C62.7484 15.9386 63.1833 16.7328 63.2212 18.17V18.3023C63.1644 19.7394 62.7484 20.5336 62.7484 20.5336H58.2102C58.2102 20.5336 57.7753 19.7394 57.7374 18.3023V18.17Z" fill="white"/>
<path d="M21.0342 18.1133V18.3591C21.1287 20.9875 21.8851 22.4435 21.8851 22.4435H29.9216C29.9216 22.4435 30.678 20.9875 30.7725 18.3591V18.1133C30.678 15.4849 29.9216 14.0289 29.9216 14.0289H21.8851C21.8662 14.0478 21.1098 15.4849 21.0342 18.1133ZM23.152 18.17C23.2088 16.7329 23.6248 15.9387 23.6248 15.9387H28.163C28.163 15.9387 28.5979 16.7329 28.6358 18.17V18.3024C28.579 19.7395 28.163 20.5337 28.163 20.5337H23.6248C23.6248 20.5337 23.1899 19.7395 23.152 18.3024V18.17Z" fill="white"/>
<path d="M31.2263 14.0478L33.3442 13.0078V22.4435H31.2263V14.0478Z" fill="white"/>
<path d="M8.25149 14.0477V19.5882L3.2216 14.0477H0.895752V22.4435H3.0136V16.8085L8.10022 22.4435H10.3883V14.0477H8.25149Z" fill="white"/>
<path d="M10.8232 18.1133V18.3591C10.9178 20.9875 11.6742 22.4435 11.6742 22.4435H19.7107C19.7107 22.4435 20.467 20.9875 20.5616 18.3591V18.1133C20.5427 17.7918 20.5238 17.4703 20.5048 17.1867H16.5528L15.0779 19.2856H18.3681C18.2168 20.0987 17.9899 20.5526 17.9899 20.5526H13.4516C13.4516 20.5526 13.0167 19.7584 12.9789 18.3213V18.1889C13.0356 16.7518 13.4516 15.9576 13.4516 15.9576H20.3347C20.0888 14.7285 19.7296 14.0667 19.7296 14.0667H11.6931C11.6742 14.0477 10.9178 15.4849 10.8232 18.1133Z" fill="white"/>
<path d="M34.4033 18.1133V18.3591C34.4222 18.6806 34.4411 19.002 34.46 19.2857H42.1751L43.4987 17.1867H36.6157C36.767 16.3736 36.9939 15.9198 36.9939 15.9198H43.4042L41.6456 14.0289H35.2542C35.2542 14.0478 34.479 15.4849 34.4033 18.1133ZM41.3241 20.5337H34.8571C35.103 21.7628 35.4622 22.4246 35.4622 22.4246H40.0761L41.3241 20.5337Z" fill="white"/>
<path d="M73.9428 5.97343L52.8967 8.24255L51.4974 0.224976L46.8835 8.88547L38.6201 9.77421L57.6997 30.5745L54.8444 15.9954L73.9428 5.97343ZM39.698 10.9466L40.0383 11.0033L45.522 13.8775L49.8145 8.14801C49.8145 8.14801 50.9112 6.65417 51.2516 8.62074L54.6364 27.2843L39.698 10.9466Z" fill="url(#paint0_linear)"/>
<path d="M41.0404 12.3648L44.9357 16.5816L40.9836 22.4624H43.3662L46.2404 17.9809L53.4449 25.7716L50.2871 8.96112L45.9568 15.0499L41.0404 12.3648ZM49.1147 13.5372V16.9598L47.5074 16.0332L49.1147 13.5372Z" fill="url(#paint1_linear)"/>
<path d="M25.8561 11.8164C25.8561 11.8164 25.2699 12.7619 24.6081 13.0644C23.9462 13.367 23.0386 13.6884 23.0386 13.6884H28.6547C28.6547 13.6884 27.7659 13.367 27.1041 13.0644C26.4423 12.7619 25.8561 11.8164 25.8561 11.8164Z" fill="white"/>
<path d="M1.17944 28.4188C1.17944 26.8115 2.40855 25.6581 4.07258 25.6581C4.99914 25.6581 5.75551 25.9984 6.26606 26.6035L5.47187 27.341C5.1126 26.925 4.65876 26.717 4.1293 26.717C3.1271 26.717 2.42746 27.4166 2.42746 28.4188C2.42746 29.421 3.1271 30.1207 4.1293 30.1207C4.65876 30.1207 5.1126 29.9127 5.47187 29.4967L6.26606 30.2341C5.75551 30.8582 4.99914 31.1796 4.07258 31.1796C2.40855 31.1796 1.17944 30.0261 1.17944 28.4188Z" fill="white"/>
<path d="M7.23047 28.7403V25.7527H8.45958V28.6836C8.45958 29.7047 8.89449 30.1207 9.65087 30.1207C10.4072 30.1207 10.8422 29.7047 10.8422 28.6836V25.7527H12.0524V28.7403C12.0524 30.3098 11.1447 31.1797 9.63196 31.1797C8.11921 31.1797 7.23047 30.3098 7.23047 28.7403ZM9.49959 24.9963C9.80214 24.8639 9.89669 24.7127 9.89669 24.5236C9.89669 24.3345 9.74542 24.2021 9.53741 24.2021C9.38614 24.2021 9.23486 24.2399 9.08359 24.3534L8.83777 23.8806C9.06468 23.7105 9.34831 23.6159 9.66977 23.6159C10.2181 23.6159 10.5774 23.9374 10.5774 24.429C10.5774 24.8639 10.3505 25.1665 9.87778 25.3934L9.49959 24.9963Z" fill="white"/>
<path d="M16.8933 29.9505H14.4162L13.9434 31.0851H12.6765L15.0591 25.7526H16.2693L18.6519 31.0851H17.366L16.8933 29.9505ZM16.5151 29.005L15.6642 26.9628L14.8133 29.005H16.5151Z" fill="white"/>
<path d="M5.86902 33.5811V38.403H4.96137L2.55988 35.491V38.4219H1.46313V33.6H2.38969L4.79118 36.531V33.6H5.86902V33.5811Z" fill="white"/>
<path d="M10.4072 37.3819H8.17592L7.74101 38.4219H6.60645L8.76211 33.6H9.85885L12.0145 38.4219H10.8421L10.4072 37.3819ZM8.02465 32.2007H8.70538C8.72429 32.5033 8.97011 32.6924 9.29157 32.6924C9.61303 32.6924 9.87777 32.5033 9.87777 32.2007H10.5585C10.5396 32.8437 10.0101 33.2408 9.29157 33.2408C8.57301 33.2408 8.06247 32.8437 8.02465 32.2007ZM10.0479 36.531L9.29157 34.6779L8.53519 36.531H10.0479Z" fill="white"/>
<path d="M17.1011 38.403V35.5099L15.6829 37.8925H15.1723L13.7541 35.5666V38.403H12.7141V33.5811H13.6407L15.4371 36.5688L17.2145 33.5811H18.1222L18.1411 38.403H17.1011Z" fill="white"/>
<path d="M24.8013 38.4811H30.1526L30.1337 36.3632L24.8013 36.3821V38.4811Z" fill="url(#paint2_linear)"/>
<path d="M22.6831 33.2432L22.702 36.3632L24.8199 38.4621V33.2432H22.6831Z" fill="url(#paint3_linear)"/>
<path d="M24.8011 31.0308L22.6643 33.2243H27.94V31.0308H24.8011Z" fill="url(#paint4_linear)"/>
<path d="M30.1334 27.8918H27.9399V33.2431L30.1523 31.0307L30.1334 27.8918Z" fill="url(#paint5_linear)"/>
<path d="M27.9419 25.774H22.6851L22.704 27.8918H30.1543L27.9419 25.774Z" fill="white"/>
<path d="M39.9477 25.8118L36.7898 25.7929L36.8087 27.9108H42.1601L39.9477 25.8118Z" fill="white"/>
<path d="M36.7707 38.5L39.9097 38.4811L39.8908 36.3821H34.5583L36.7707 38.5Z" fill="url(#paint6_linear)"/>
<path d="M39.9097 27.9296L39.9286 38.4811L42.1599 36.3254V27.9296H39.9097Z" fill="url(#paint7_linear)"/>
<path d="M36.7897 25.7929L34.5583 27.9108L34.5773 36.3822H36.8086L36.7897 25.7929Z" fill="url(#paint8_linear)"/>
<path d="M48.6318 38.4811H53.9832L53.9643 36.3632L48.6318 36.3821V38.4811Z" fill="url(#paint9_linear)"/>
<path d="M46.5142 33.2432L46.5331 36.3632L48.6509 38.4621V33.2432H46.5142Z" fill="url(#paint10_linear)"/>
<path d="M48.6509 31.0308L46.5142 33.2243H51.7899V31.0308H48.6509Z" fill="url(#paint11_linear)"/>
<path d="M53.9833 27.8918H51.7898V33.2431L54.0022 31.0307L53.9833 27.8918Z" fill="url(#paint12_linear)"/>
<path d="M51.7899 25.774H46.5142L46.5331 27.8918H53.9834L51.7899 25.774Z" fill="white"/>
<path d="M63.7973 25.8118L60.6394 25.7929L60.6583 27.9108H66.0097L63.7973 25.8118Z" fill="white"/>
<path d="M60.6205 38.5L63.7594 38.4811L63.7405 36.3821H58.427L60.6205 38.5Z" fill="url(#paint13_linear)"/>
<path d="M63.7595 27.9296L63.7784 38.4811L66.0097 36.3254V27.9296H63.7595Z" fill="url(#paint14_linear)"/>
<path d="M60.6395 25.7929L58.4082 27.9108L58.4271 36.3822H60.6584L60.6395 25.7929Z" fill="url(#paint15_linear)"/>
<defs>
<linearGradient id="paint0_linear" x1="65.4294" y1="5.39104" x2="42.6522" y2="24.9144" gradientUnits="userSpaceOnUse">
<stop stop-color="#E3B24C"/>
<stop offset="0.3692" stop-color="#FFFFA0"/>
<stop offset="0.4911" stop-color="#FFFFA0"/>
<stop offset="0.8275" stop-color="#FFFFA0"/>
<stop offset="1" stop-color="#E8B751"/>
</linearGradient>
<linearGradient id="paint1_linear" x1="64.4892" y1="4.29423" x2="41.7119" y2="23.8176" gradientUnits="userSpaceOnUse">
<stop stop-color="#E3B24C"/>
<stop offset="0.3692" stop-color="#FFFFA0"/>
<stop offset="0.4911" stop-color="#FFFFA0"/>
<stop offset="0.8275" stop-color="#FFFFA0"/>
<stop offset="1" stop-color="#E8B751"/>
</linearGradient>
<linearGradient id="paint2_linear" x1="25.3732" y1="38.6298" x2="26.2805" y2="35.302" gradientUnits="userSpaceOnUse">
<stop offset="0.1619" stop-color="#A6C8CC"/>
<stop offset="0.3286" stop-color="#BFD7DA"/>
<stop offset="0.6754" stop-color="#EDF4F5"/>
<stop offset="0.8491" stop-color="white"/>
</linearGradient>
<linearGradient id="paint3_linear" x1="23.7406" y1="38.4624" x2="23.7406" y2="33.2357" gradientUnits="userSpaceOnUse">
<stop offset="0.1509" stop-color="white"/>
<stop offset="0.5418" stop-color="#FDFEFE"/>
<stop offset="0.6826" stop-color="#F6FAFA"/>
<stop offset="0.783" stop-color="#EBF2F3"/>
<stop offset="0.8641" stop-color="#DAE8EA"/>
<stop offset="0.9328" stop-color="#C4DBDD"/>
<stop offset="0.9934" stop-color="#A9CACE"/>
<stop offset="1" stop-color="#A6C8CC"/>
</linearGradient>
<linearGradient id="paint4_linear" x1="27.944" y1="32.1372" x2="22.6752" y2="32.1372" gradientUnits="userSpaceOnUse">
<stop stop-color="#A6C8CC"/>
<stop offset="0.00198829" stop-color="#A7C9CD"/>
<stop offset="0.0683341" stop-color="#C2D9DC"/>
<stop offset="0.143" stop-color="#D9E7E9"/>
<stop offset="0.2302" stop-color="#EAF2F3"/>
<stop offset="0.3365" stop-color="#F6F9FA"/>
<stop offset="0.4821" stop-color="#FDFEFE"/>
<stop offset="0.8491" stop-color="white"/>
</linearGradient>
<linearGradient id="paint5_linear" x1="29.0503" y1="33.24" x2="29.0503" y2="27.893" gradientUnits="userSpaceOnUse">
<stop offset="0.1509" stop-color="white"/>
<stop offset="0.5418" stop-color="#FDFEFE"/>
<stop offset="0.6826" stop-color="#F6FAFA"/>
<stop offset="0.783" stop-color="#EBF2F3"/>
<stop offset="0.8641" stop-color="#DAE8EA"/>
<stop offset="0.9328" stop-color="#C4DBDD"/>
<stop offset="0.9934" stop-color="#A9CACE"/>
<stop offset="1" stop-color="#A6C8CC"/>
</linearGradient>
<linearGradient id="paint6_linear" x1="39.9171" y1="37.4364" x2="34.5732" y2="37.4364" gradientUnits="userSpaceOnUse">
<stop stop-color="#A6C8CC"/>
<stop offset="0.00198829" stop-color="#A7C9CD"/>
<stop offset="0.0683341" stop-color="#C2D9DC"/>
<stop offset="0.143" stop-color="#D9E7E9"/>
<stop offset="0.2302" stop-color="#EAF2F3"/>
<stop offset="0.3365" stop-color="#F6F9FA"/>
<stop offset="0.4821" stop-color="#FDFEFE"/>
<stop offset="0.8491" stop-color="white"/>
</linearGradient>
<linearGradient id="paint7_linear" x1="41.0316" y1="38.4844" x2="41.0316" y2="27.93" gradientUnits="userSpaceOnUse">
<stop offset="0.1509" stop-color="white"/>
<stop offset="0.5418" stop-color="#FDFEFE"/>
<stop offset="0.6826" stop-color="#F6FAFA"/>
<stop offset="0.783" stop-color="#EBF2F3"/>
<stop offset="0.8641" stop-color="#DAE8EA"/>
<stop offset="0.9328" stop-color="#C4DBDD"/>
<stop offset="0.9934" stop-color="#A9CACE"/>
<stop offset="1" stop-color="#A6C8CC"/>
</linearGradient>
<linearGradient id="paint8_linear" x1="35.6777" y1="36.3768" x2="35.6777" y2="25.7991" gradientUnits="userSpaceOnUse">
<stop stop-color="#A6C8CC"/>
<stop offset="0.0676848" stop-color="#BED7DA"/>
<stop offset="0.1551" stop-color="#D6E6E7"/>
<stop offset="0.255" stop-color="#E8F1F2"/>
<stop offset="0.373" stop-color="#F5F9F9"/>
<stop offset="0.5268" stop-color="#FDFEFE"/>
<stop offset="0.8491" stop-color="white"/>
</linearGradient>
<linearGradient id="paint9_linear" x1="49.2199" y1="38.6298" x2="50.1272" y2="35.302" gradientUnits="userSpaceOnUse">
<stop offset="0.1619" stop-color="#A6C8CC"/>
<stop offset="0.3286" stop-color="#BFD7DA"/>
<stop offset="0.6754" stop-color="#EDF4F5"/>
<stop offset="0.8491" stop-color="white"/>
</linearGradient>
<linearGradient id="paint10_linear" x1="47.5886" y1="38.4624" x2="47.5886" y2="33.2357" gradientUnits="userSpaceOnUse">
<stop offset="0.1509" stop-color="white"/>
<stop offset="0.5418" stop-color="#FDFEFE"/>
<stop offset="0.6826" stop-color="#F6FAFA"/>
<stop offset="0.783" stop-color="#EBF2F3"/>
<stop offset="0.8641" stop-color="#DAE8EA"/>
<stop offset="0.9328" stop-color="#C4DBDD"/>
<stop offset="0.9934" stop-color="#A9CACE"/>
<stop offset="1" stop-color="#A6C8CC"/>
</linearGradient>
<linearGradient id="paint11_linear" x1="51.7885" y1="32.1372" x2="46.5196" y2="32.1372" gradientUnits="userSpaceOnUse">
<stop stop-color="#A6C8CC"/>
<stop offset="0.00198829" stop-color="#A7C9CD"/>
<stop offset="0.0683341" stop-color="#C2D9DC"/>
<stop offset="0.143" stop-color="#D9E7E9"/>
<stop offset="0.2302" stop-color="#EAF2F3"/>
<stop offset="0.3365" stop-color="#F6F9FA"/>
<stop offset="0.4821" stop-color="#FDFEFE"/>
<stop offset="0.8491" stop-color="white"/>
</linearGradient>
<linearGradient id="paint12_linear" x1="52.8975" y1="33.24" x2="52.8975" y2="27.893" gradientUnits="userSpaceOnUse">
<stop offset="0.1509" stop-color="white"/>
<stop offset="0.5418" stop-color="#FDFEFE"/>
<stop offset="0.6826" stop-color="#F6FAFA"/>
<stop offset="0.783" stop-color="#EBF2F3"/>
<stop offset="0.8641" stop-color="#DAE8EA"/>
<stop offset="0.9328" stop-color="#C4DBDD"/>
<stop offset="0.9934" stop-color="#A9CACE"/>
<stop offset="1" stop-color="#A6C8CC"/>
</linearGradient>
<linearGradient id="paint13_linear" x1="63.7694" y1="37.4364" x2="58.4231" y2="37.4364" gradientUnits="userSpaceOnUse">
<stop stop-color="#A6C8CC"/>
<stop offset="0.00198829" stop-color="#A7C9CD"/>
<stop offset="0.0683341" stop-color="#C2D9DC"/>
<stop offset="0.143" stop-color="#D9E7E9"/>
<stop offset="0.2302" stop-color="#EAF2F3"/>
<stop offset="0.3365" stop-color="#F6F9FA"/>
<stop offset="0.4821" stop-color="#FDFEFE"/>
<stop offset="0.8491" stop-color="white"/>
</linearGradient>
<linearGradient id="paint14_linear" x1="64.8808" y1="38.4844" x2="64.8808" y2="27.93" gradientUnits="userSpaceOnUse">
<stop offset="0.1509" stop-color="white"/>
<stop offset="0.5418" stop-color="#FDFEFE"/>
<stop offset="0.6826" stop-color="#F6FAFA"/>
<stop offset="0.783" stop-color="#EBF2F3"/>
<stop offset="0.8641" stop-color="#DAE8EA"/>
<stop offset="0.9328" stop-color="#C4DBDD"/>
<stop offset="0.9934" stop-color="#A9CACE"/>
<stop offset="1" stop-color="#A6C8CC"/>
</linearGradient>
<linearGradient id="paint15_linear" x1="59.5248" y1="36.3768" x2="59.5248" y2="25.7991" gradientUnits="userSpaceOnUse">
<stop stop-color="#A6C8CC"/>
<stop offset="0.0676848" stop-color="#BED7DA"/>
<stop offset="0.1551" stop-color="#D6E6E7"/>
<stop offset="0.255" stop-color="#E8F1F2"/>
<stop offset="0.373" stop-color="#F5F9F9"/>
<stop offset="0.5268" stop-color="#FDFEFE"/>
<stop offset="0.8491" stop-color="white"/>
</linearGradient>
</defs>
</svg>
