<svg width="197" height="90" viewBox="0 0 197 90" fill="none" xmlns="http://www.w3.org/2000/svg">
<path fill-rule="evenodd" clip-rule="evenodd" d="M75.7133 61.115C76.6224 63.0746 77.7122 64.8697 78.9825 66.5004C83.5159 72.1671 90.0492 75.0004 98.5825 75.0004C103.849 75.0004 108.616 73.7337 112.883 71.2004C117.149 68.6671 120.516 64.9337 122.983 60.0004C125.516 55.0004 126.783 49.0671 126.783 42.2004C126.783 32.4986 124.716 24.9591 120.582 19.5817C119.68 17.59 118.589 15.7962 117.308 14.2004C112.975 8.73372 106.508 6.00039 97.9079 6.00039C92.6413 6.00039 87.8413 7.23372 83.5079 9.70039C79.2413 12.1004 75.8079 15.7337 73.2079 20.6004C70.6079 25.4004 69.3079 31.2671 69.3079 38.2004C69.3079 47.7825 71.4431 55.4207 75.7133 61.115ZM78.5791 64.2217C82.8957 68.0742 88.572 70.0004 95.6079 70.0004C100.875 70.0004 105.641 68.7337 109.908 66.2004C114.175 63.6671 117.541 59.9337 120.008 55.0004C122.541 50.0004 123.808 44.0671 123.808 37.2004C123.808 32.2581 123.272 27.877 122.199 24.0569C124.568 28.7874 125.783 34.8157 125.783 42.2004C125.783 48.9448 124.539 54.7166 122.09 59.5484L122.088 59.5532C119.697 64.3348 116.456 67.9158 112.372 70.3405C108.269 72.7765 103.681 74.0004 98.5825 74.0004C90.2958 74.0004 84.0763 71.2638 79.7674 65.8806C79.3516 65.3467 78.9555 64.7938 78.5791 64.2217ZM96.6079 64.0004C100.808 64.0004 103.875 61.8671 105.808 57.6004C107.808 53.2671 108.808 46.8337 108.808 38.3004C108.808 30.0343 108.032 23.7907 106.481 19.5698C104.736 17.8569 102.47 17.0004 99.6825 17.0004C91.4159 17.0004 87.2825 25.3671 87.2825 42.1004C87.2825 50.3314 88.1032 56.6948 89.7445 61.1904C91.557 63.0637 93.8448 64.0004 96.6079 64.0004ZM87.9549 58.7738C86.8288 54.4181 86.2825 48.847 86.2825 42.1004C86.2825 33.6835 87.3168 27.2232 89.486 22.8325C90.5775 20.6231 91.9726 18.9045 93.6982 17.7402C95.4307 16.5712 97.4384 16.0004 99.6825 16.0004C101.953 16.0004 103.96 16.5305 105.659 17.6324C103.819 13.8777 100.835 12.0004 96.7079 12.0004C88.4413 12.0004 84.3079 20.3671 84.3079 37.1004C84.3079 46.0337 85.2746 52.7671 87.2079 57.3004C87.4415 57.822 87.6905 58.3131 87.9549 58.7738Z" fill="#0963C8"/>
<path fill-rule="evenodd" clip-rule="evenodd" d="M163.831 0.900391L174.687 6.47263L178.105 11.7004L151.857 61.4056L168.731 60.4004L169.731 41.7004L180.631 40.8004L183.605 45.8004V59.4377L193.431 58.9004L196.405 63.9004V74.0004H183.605V90.0004H171.605L168.631 84.7782V74.0004H138.605L132.431 63.8004C138.164 52.9337 147.631 31.9671 160.831 0.900391H163.831ZM136.702 69.0004H168.631V73.0004H139.164L136.702 69.0004ZM174.609 7.69497L176.962 11.7262L150.599 61.4806L145.231 61.8004L174.609 7.69497ZM180.631 59.6004V42.9681L182.605 46.0901V59.4924L180.631 59.6004ZM193.431 69.0004V60.7571L195.405 64.1689V73.0004H182.605V89.0004H172.168L169.739 85.0004H180.631V69.0004H193.431Z" fill="#0963C8"/>
<path fill-rule="evenodd" clip-rule="evenodd" d="M31.4947 0.900391L42.351 6.47263L45.7693 11.7004L19.5212 61.4056L36.3947 60.4004L37.3947 41.7004L48.2947 40.8004L51.2693 45.8004V59.4377L61.0947 58.9004L64.0693 63.9004V74.0004H51.2693V90.0004H39.2693L36.2947 84.7782V74.0004H6.26933L0.0947266 63.8004C5.82806 52.9337 15.2947 31.9671 28.4947 0.900391H31.4947ZM4.36659 69.0004H36.2947V73.0004H6.82812L4.36659 69.0004ZM42.2729 7.69497L44.6265 11.7262L18.2629 61.4806L12.8947 61.8004L42.2729 7.69497ZM48.2947 59.6004V42.9681L50.2693 46.0901V59.4924L48.2947 59.6004ZM61.0947 69.0004V60.7571L63.0693 64.1689V73.0004H50.2693V89.0004H39.832L37.4033 85.0004H48.2947V69.0004H61.0947Z" fill="#0963C8"/>
</svg>
