<svg width="351" height="48" viewBox="0 0 351 48" fill="none" xmlns="http://www.w3.org/2000/svg">
<g clip-path="url(#clip0)">
<rect width="351" height="48" rx="4" fill="url(#paint0_linear)"/>
<g opacity="0.2">
<path d="M65.0247 74L56.9108 32.6933L111 4.25413L51.4138 10.7041L47.4481 -12L34.3745 12.5476L11 15.0524L14.005 18.331L30.5486 26.5982L42.7141 10.344C42.7141 10.344 45.82 6.09233 46.7711 11.6983L56.3543 64.5392L65.0247 74Z" fill="white"/>
<path fill-rule="evenodd" clip-rule="evenodd" d="M28.8989 34.3006L17.8403 22.357L31.8221 29.925L44.0789 12.725L53.0204 60.3315L32.6012 38.294L24.4873 50.9631H17.7006L28.8989 34.3006ZM40.6883 35.4018V25.6953L36.1316 32.7952L40.6883 35.4018Z" fill="white"/>
</g>
<path d="M95.0001 27.75C95.2814 27.75 95.4689 27.6563 95.6564 27.4688L101 22.125L99.6876 20.8125L95.9376 24.5625V16.5H94.0626V24.5625L90.3126 20.8125L89.0001 22.125L94.3439 27.4688C94.5314 27.6563 94.7189 27.75 95.0001 27.75Z" fill="white"/>
<path d="M100.625 29.625H89.375V26.8125H87.5V30.5625C87.5 31.125 87.875 31.5 88.4375 31.5H101.562C102.125 31.5 102.5 31.125 102.5 30.5625V26.8125H100.625V29.625Z" fill="white"/>
<path d="M117.148 30V19.8984H113.375V18.5469H122.453V19.8984H118.664V30H117.148ZM129.25 28.9766C128.729 29.4193 128.227 29.7318 127.742 29.9141C127.263 30.0964 126.747 30.1875 126.195 30.1875C125.284 30.1875 124.583 29.9661 124.094 29.5234C123.604 29.0755 123.359 28.5052 123.359 27.8125C123.359 27.4062 123.451 27.0365 123.633 26.7031C123.82 26.3646 124.062 26.0938 124.359 25.8906C124.661 25.6875 125 25.5339 125.375 25.4297C125.651 25.3568 126.068 25.2865 126.625 25.2188C127.76 25.0833 128.596 24.9219 129.133 24.7344C129.138 24.5417 129.141 24.4193 129.141 24.3672C129.141 23.7943 129.008 23.3906 128.742 23.1562C128.383 22.8385 127.849 22.6797 127.141 22.6797C126.479 22.6797 125.99 22.7969 125.672 23.0312C125.359 23.2604 125.128 23.6693 124.977 24.2578L123.602 24.0703C123.727 23.4818 123.932 23.0078 124.219 22.6484C124.505 22.2839 124.919 22.0052 125.461 21.8125C126.003 21.6146 126.63 21.5156 127.344 21.5156C128.052 21.5156 128.628 21.599 129.07 21.7656C129.513 21.9323 129.839 22.1432 130.047 22.3984C130.255 22.6484 130.401 22.9661 130.484 23.3516C130.531 23.5911 130.555 24.0234 130.555 24.6484V26.5234C130.555 27.8307 130.583 28.6589 130.641 29.0078C130.703 29.3516 130.823 29.6823 131 30H129.531C129.385 29.7083 129.292 29.3672 129.25 28.9766ZM129.133 25.8359C128.622 26.0443 127.857 26.2214 126.836 26.3672C126.258 26.4505 125.849 26.5443 125.609 26.6484C125.37 26.7526 125.185 26.9062 125.055 27.1094C124.924 27.3073 124.859 27.5286 124.859 27.7734C124.859 28.1484 125 28.4609 125.281 28.7109C125.568 28.9609 125.984 29.0859 126.531 29.0859C127.073 29.0859 127.555 28.9688 127.977 28.7344C128.398 28.4948 128.708 28.1693 128.906 27.7578C129.057 27.4401 129.133 26.9714 129.133 26.3516V25.8359ZM126.922 19.7344C127.219 19.7031 127.409 19.6745 127.492 19.6484C127.768 19.5547 127.909 19.4089 127.914 19.2109C127.919 19.0911 127.846 18.9896 127.695 18.9062C127.477 18.7865 127.13 18.7266 126.656 18.7266C126.495 18.7266 126.25 18.737 125.922 18.7578L125.836 17.9609C126.039 17.9193 126.414 17.901 126.961 17.9062C127.602 17.9115 128.125 18.0156 128.531 18.2188C128.979 18.4375 129.208 18.7422 129.219 19.1328C129.24 19.7786 128.766 20.1615 127.797 20.2812V20.6719H126.922V19.7344ZM132.75 20.1641V18.5469H134.156V20.1641H132.75ZM132.75 30V21.7031H134.156V30H132.75ZM148.422 23.3359V21.7031H149.93V22.9922C149.93 23.8099 149.836 24.3802 149.648 24.7031C149.169 25.5365 148.438 26.0052 147.453 26.1094V30H146.195V28.7812C145.549 29.7188 144.672 30.1875 143.562 30.1875C143.078 30.1875 142.622 30.0964 142.195 29.9141C141.773 29.7266 141.458 29.4896 141.25 29.2031C141.042 28.9167 140.896 28.5677 140.812 28.1562C140.755 27.875 140.727 27.4375 140.727 26.8438V21.7031H142.133V26.3047C142.133 27.0495 142.161 27.5443 142.219 27.7891C142.401 28.5807 142.943 28.9766 143.844 28.9766C144.276 28.9766 144.674 28.8672 145.039 28.6484C145.409 28.4297 145.669 28.1354 145.82 27.7656C145.971 27.3958 146.047 26.8568 146.047 26.1484V21.7031H147.453V25.5156C148.115 25.401 148.609 25.0911 148.938 24.5859C149.083 24.3672 149.156 23.9505 149.156 23.3359H148.422ZM143.242 20.6719L144.281 18.4844H146.125L144.406 20.6719H143.242ZM151.477 30V21.7031H152.742V22.8828C153.352 21.9714 154.232 21.5156 155.383 21.5156C155.883 21.5156 156.341 21.6068 156.758 21.7891C157.18 21.9661 157.495 22.2005 157.703 22.4922C157.911 22.7839 158.057 23.1302 158.141 23.5312C158.193 23.7917 158.219 24.2474 158.219 24.8984V30H156.812V24.9531C156.812 24.3802 156.758 23.9531 156.648 23.6719C156.539 23.3854 156.344 23.1589 156.062 22.9922C155.786 22.8203 155.461 22.7344 155.086 22.7344C154.487 22.7344 153.969 22.9245 153.531 23.3047C153.099 23.6849 152.883 24.4062 152.883 25.4688V30H151.477ZM160.125 30.6875L161.492 30.8906C161.549 31.3125 161.708 31.6198 161.969 31.8125C162.318 32.0729 162.794 32.2031 163.398 32.2031C164.049 32.2031 164.552 32.0729 164.906 31.8125C165.26 31.5521 165.5 31.1875 165.625 30.7188C165.698 30.4323 165.732 29.8307 165.727 28.9141C165.112 29.638 164.346 30 163.43 30C162.289 30 161.406 29.5885 160.781 28.7656C160.156 27.9427 159.844 26.9557 159.844 25.8047C159.844 25.013 159.987 24.2839 160.273 23.6172C160.56 22.9453 160.974 22.4271 161.516 22.0625C162.062 21.6979 162.703 21.5156 163.438 21.5156C164.417 21.5156 165.224 21.9115 165.859 22.7031V21.7031H167.156V28.875C167.156 30.1667 167.023 31.0807 166.758 31.6172C166.497 32.1589 166.081 32.5859 165.508 32.8984C164.94 33.2109 164.24 33.3672 163.406 33.3672C162.417 33.3672 161.617 33.1432 161.008 32.6953C160.398 32.2526 160.104 31.5833 160.125 30.6875ZM161.289 25.7031C161.289 26.7917 161.505 27.5859 161.938 28.0859C162.37 28.5859 162.911 28.8359 163.562 28.8359C164.208 28.8359 164.75 28.5885 165.188 28.0938C165.625 27.5938 165.844 26.8125 165.844 25.75C165.844 24.7344 165.617 23.9688 165.164 23.4531C164.716 22.9375 164.174 22.6797 163.539 22.6797C162.914 22.6797 162.383 22.9349 161.945 23.4453C161.508 23.9505 161.289 24.7031 161.289 25.7031ZM179.125 30V28.9531C178.599 29.776 177.826 30.1875 176.805 30.1875C176.143 30.1875 175.534 30.0052 174.977 29.6406C174.424 29.276 173.995 28.7682 173.688 28.1172C173.385 27.4609 173.234 26.7083 173.234 25.8594C173.234 25.0312 173.372 24.2812 173.648 23.6094C173.924 22.9323 174.339 22.4141 174.891 22.0547C175.443 21.6953 176.06 21.5156 176.742 21.5156C177.242 21.5156 177.688 21.6224 178.078 21.8359C178.469 22.0443 178.786 22.3177 179.031 22.6562V18.5469H180.43V30H179.125ZM174.68 25.8594C174.68 26.9219 174.904 27.7161 175.352 28.2422C175.799 28.7682 176.328 29.0312 176.938 29.0312C177.552 29.0312 178.073 28.7812 178.5 28.2812C178.932 27.776 179.148 27.0078 179.148 25.9766C179.148 24.8411 178.93 24.0078 178.492 23.4766C178.055 22.9453 177.516 22.6797 176.875 22.6797C176.25 22.6797 175.727 22.9349 175.305 23.4453C174.888 23.9557 174.68 24.7604 174.68 25.8594ZM188.086 30V28.7812C187.44 29.7188 186.562 30.1875 185.453 30.1875C184.964 30.1875 184.505 30.0938 184.078 29.9062C183.656 29.7188 183.341 29.4844 183.133 29.2031C182.93 28.9167 182.786 28.5677 182.703 28.1562C182.646 27.8802 182.617 27.4427 182.617 26.8438V21.7031H184.023V26.3047C184.023 27.0391 184.052 27.5339 184.109 27.7891C184.198 28.1589 184.385 28.4505 184.672 28.6641C184.958 28.8724 185.312 28.9766 185.734 28.9766C186.156 28.9766 186.552 28.8698 186.922 28.6562C187.292 28.4375 187.552 28.1432 187.703 27.7734C187.859 27.3984 187.938 26.8568 187.938 26.1484V21.7031H189.344V30H188.086ZM184.922 32.5391V30.9375H186.523V32.5391H184.922ZM191.555 30V21.7031H192.82V22.8828C193.43 21.9714 194.31 21.5156 195.461 21.5156C195.961 21.5156 196.419 21.6068 196.836 21.7891C197.258 21.9661 197.573 22.2005 197.781 22.4922C197.99 22.7839 198.135 23.1302 198.219 23.5312C198.271 23.7917 198.297 24.2474 198.297 24.8984V30H196.891V24.9531C196.891 24.3802 196.836 23.9531 196.727 23.6719C196.617 23.3854 196.422 23.1589 196.141 22.9922C195.865 22.8203 195.539 22.7344 195.164 22.7344C194.565 22.7344 194.047 22.9245 193.609 23.3047C193.177 23.6849 192.961 24.4062 192.961 25.4688V30H191.555ZM200.203 30.6875L201.57 30.8906C201.628 31.3125 201.786 31.6198 202.047 31.8125C202.396 32.0729 202.872 32.2031 203.477 32.2031C204.128 32.2031 204.63 32.0729 204.984 31.8125C205.339 31.5521 205.578 31.1875 205.703 30.7188C205.776 30.4323 205.81 29.8307 205.805 28.9141C205.19 29.638 204.424 30 203.508 30C202.367 30 201.484 29.5885 200.859 28.7656C200.234 27.9427 199.922 26.9557 199.922 25.8047C199.922 25.013 200.065 24.2839 200.352 23.6172C200.638 22.9453 201.052 22.4271 201.594 22.0625C202.141 21.6979 202.781 21.5156 203.516 21.5156C204.495 21.5156 205.302 21.9115 205.938 22.7031V21.7031H207.234V28.875C207.234 30.1667 207.102 31.0807 206.836 31.6172C206.576 32.1589 206.159 32.5859 205.586 32.8984C205.018 33.2109 204.318 33.3672 203.484 33.3672C202.495 33.3672 201.695 33.1432 201.086 32.6953C200.477 32.2526 200.182 31.5833 200.203 30.6875ZM201.367 25.7031C201.367 26.7917 201.583 27.5859 202.016 28.0859C202.448 28.5859 202.99 28.8359 203.641 28.8359C204.286 28.8359 204.828 28.5885 205.266 28.0938C205.703 27.5938 205.922 26.8125 205.922 25.75C205.922 24.7344 205.695 23.9688 205.242 23.4531C204.794 22.9375 204.253 22.6797 203.617 22.6797C202.992 22.6797 202.461 22.9349 202.023 23.4453C201.586 23.9505 201.367 24.7031 201.367 25.7031ZM219.203 30V28.9531C218.677 29.776 217.904 30.1875 216.883 30.1875C216.221 30.1875 215.612 30.0052 215.055 29.6406C214.503 29.276 214.073 28.7682 213.766 28.1172C213.464 27.4609 213.312 26.7083 213.312 25.8594C213.312 25.0312 213.451 24.2812 213.727 23.6094C214.003 22.9323 214.417 22.4141 214.969 22.0547C215.521 21.6953 216.138 21.5156 216.82 21.5156C217.32 21.5156 217.766 21.6224 218.156 21.8359C218.547 22.0443 218.865 22.3177 219.109 22.6562V18.5469H220.508V30H219.203ZM214.758 25.8594C214.758 26.9219 214.982 27.7161 215.43 28.2422C215.878 28.7682 216.406 29.0312 217.016 29.0312C217.63 29.0312 218.151 28.7812 218.578 28.2812C219.01 27.776 219.227 27.0078 219.227 25.9766C219.227 24.8411 219.008 24.0078 218.57 23.4766C218.133 22.9453 217.594 22.6797 216.953 22.6797C216.328 22.6797 215.805 22.9349 215.383 23.4453C214.966 23.9557 214.758 24.7604 214.758 25.8594ZM222.734 20.1641V18.5469H224.141V20.1641H222.734ZM222.734 30V21.7031H224.141V30H222.734ZM236.031 20.4766H233.328V19.4453H236.031V18.5469H237.43V19.4453H238.562V20.4766H237.43V30H236.125V28.9531C235.599 29.776 234.826 30.1875 233.805 30.1875C233.143 30.1875 232.534 30.0052 231.977 29.6406C231.424 29.276 230.995 28.7682 230.688 28.1172C230.385 27.4609 230.234 26.7083 230.234 25.8594C230.234 25.0312 230.372 24.2812 230.648 23.6094C230.924 22.9323 231.339 22.4141 231.891 22.0547C232.443 21.6953 233.06 21.5156 233.742 21.5156C234.242 21.5156 234.688 21.6224 235.078 21.8359C235.469 22.0443 235.786 22.3177 236.031 22.6562V20.4766ZM231.68 25.8594C231.68 26.9219 231.904 27.7161 232.352 28.2422C232.799 28.7682 233.328 29.0312 233.938 29.0312C234.552 29.0312 235.073 28.7812 235.5 28.2812C235.932 27.776 236.148 27.0078 236.148 25.9766C236.148 24.8411 235.93 24.0078 235.492 23.4766C235.055 22.9453 234.516 22.6797 233.875 22.6797C233.25 22.6797 232.727 22.9349 232.305 23.4453C231.888 23.9557 231.68 24.7604 231.68 25.8594ZM239.125 25.8516C239.125 24.3151 239.552 23.1771 240.406 22.4375C241.12 21.8229 241.99 21.5156 243.016 21.5156C244.156 21.5156 245.089 21.8906 245.812 22.6406C246.536 23.3854 246.898 24.4167 246.898 25.7344C246.898 26.8021 246.737 27.6432 246.414 28.2578C246.096 28.8672 245.63 29.3411 245.016 29.6797C244.406 30.0182 243.74 30.1875 243.016 30.1875C241.854 30.1875 240.914 29.8151 240.195 29.0703C239.482 28.3255 239.125 27.2526 239.125 25.8516ZM240.57 25.8516C240.57 26.9141 240.802 27.7109 241.266 28.2422C241.729 28.7682 242.312 29.0312 243.016 29.0312C243.714 29.0312 244.294 28.7656 244.758 28.2344C245.221 27.7031 245.453 26.8932 245.453 25.8047C245.453 24.7786 245.219 24.0026 244.75 23.4766C244.286 22.9453 243.708 22.6797 243.016 22.6797C242.312 22.6797 241.729 22.9427 241.266 23.4688C240.802 23.9948 240.57 24.7891 240.57 25.8516ZM243.031 19.3438L242.148 20.6719H240.539L242.227 18.4844H243.727L245.484 20.6719H243.891L243.031 19.3438ZM242.156 32.5391V30.9375H243.758V32.5391H242.156ZM248.555 30V21.7031H249.82V22.8828C250.43 21.9714 251.31 21.5156 252.461 21.5156C252.961 21.5156 253.419 21.6068 253.836 21.7891C254.258 21.9661 254.573 22.2005 254.781 22.4922C254.99 22.7839 255.135 23.1302 255.219 23.5312C255.271 23.7917 255.297 24.2474 255.297 24.8984V30H253.891V24.9531C253.891 24.3802 253.836 23.9531 253.727 23.6719C253.617 23.3854 253.422 23.1589 253.141 22.9922C252.865 22.8203 252.539 22.7344 252.164 22.7344C251.565 22.7344 251.047 22.9245 250.609 23.3047C250.177 23.6849 249.961 24.4062 249.961 25.4688V30H248.555ZM257.203 30.6875L258.57 30.8906C258.628 31.3125 258.786 31.6198 259.047 31.8125C259.396 32.0729 259.872 32.2031 260.477 32.2031C261.128 32.2031 261.63 32.0729 261.984 31.8125C262.339 31.5521 262.578 31.1875 262.703 30.7188C262.776 30.4323 262.81 29.8307 262.805 28.9141C262.19 29.638 261.424 30 260.508 30C259.367 30 258.484 29.5885 257.859 28.7656C257.234 27.9427 256.922 26.9557 256.922 25.8047C256.922 25.013 257.065 24.2839 257.352 23.6172C257.638 22.9453 258.052 22.4271 258.594 22.0625C259.141 21.6979 259.781 21.5156 260.516 21.5156C261.495 21.5156 262.302 21.9115 262.938 22.7031V21.7031H264.234V28.875C264.234 30.1667 264.102 31.0807 263.836 31.6172C263.576 32.1589 263.159 32.5859 262.586 32.8984C262.018 33.2109 261.318 33.3672 260.484 33.3672C259.495 33.3672 258.695 33.1432 258.086 32.6953C257.477 32.2526 257.182 31.5833 257.203 30.6875ZM258.367 25.7031C258.367 26.7917 258.583 27.5859 259.016 28.0859C259.448 28.5859 259.99 28.8359 260.641 28.8359C261.286 28.8359 261.828 28.5885 262.266 28.0938C262.703 27.5938 262.922 26.8125 262.922 25.75C262.922 24.7344 262.695 23.9688 262.242 23.4531C261.794 22.9375 261.253 22.6797 260.617 22.6797C259.992 22.6797 259.461 22.9349 259.023 23.4453C258.586 23.9505 258.367 24.7031 258.367 25.7031Z" fill="white"/>
<path opacity="0.6" d="M291.61 17.0385L294.728 21.8392L300.257 20.3576L296.654 24.8061L299.772 29.6068L294.428 27.5554L290.826 32.0039L291.125 26.2876L285.781 24.2363L291.311 22.7548L291.61 17.0385Z" fill="white"/>
<path opacity="0.4" d="M315.167 23.4564L316.643 26.9242L320.397 26.5924L317.555 29.0674L319.03 32.5352L315.798 30.5971L312.956 33.0721L313.801 29.3992L310.568 27.4611L314.323 27.1293L315.167 23.4564Z" fill="white"/>
<path opacity="0.2" d="M322.319 8.80384L323.96 11.6666L327.189 10.9908L324.974 13.4358L326.614 16.2985L323.604 14.9469L321.389 17.3919L321.744 14.1115L318.734 12.7599L321.964 12.0842L322.319 8.80384Z" fill="white"/>
</g>
<defs>
<linearGradient id="paint0_linear" x1="0" y1="0" x2="351" y2="-1.3306e-09" gradientUnits="userSpaceOnUse">
<stop stop-color="#0CA0F4"/>
<stop offset="1" stop-color="#0C69F4"/>
</linearGradient>
<clipPath id="clip0">
<rect width="351" height="48" fill="white"/>
</clipPath>
</defs>
</svg>
