<svg xmlns="http://www.w3.org/2000/svg" xmlns:xlink="http://www.w3.org/1999/xlink" width="117" height="60" viewBox="0 0 117 60">
    <defs>
        <path id="a" d="M0 0h7.775v4.418H0z"/>
        <path id="c" d="M0 0h23.636v31.088H0z"/>
    </defs>
    <g fill="none" fill-rule="evenodd">
        <path fill="#FFF" d="M87.798 7.869h-2.727c-.616 0-1.12-.466-1.12-1.036V1.036c0-.57.504-1.036 1.12-1.036h2.727c.616 0 1.12.466 1.12 1.036v5.797c0 .57-.504 1.036-1.12 1.036M81.07 8.218l-2.417.618c-.546.139-1.112-.173-1.258-.693L75.907 2.85c-.146-.52.181-1.06.727-1.199l2.418-.618c.546-.139 1.112.173 1.258.693l1.487 5.292c.147.52-.18 1.06-.726 1.2M78.653 51.033l2.418.618c.546.14.873.68.726 1.2l-1.487 5.292c-.146.52-.713.832-1.258.693l-2.418-.618c-.546-.14-.873-.68-.727-1.2l1.488-5.292c.146-.52.712-.832 1.258-.693M85.071 52h2.727c.616 0 1.12.466 1.12 1.036v5.797c0 .57-.504 1.036-1.12 1.036h-2.727c-.616 0-1.12-.467-1.12-1.036v-5.797c0-.57.504-1.036 1.12-1.036M90.772 51.651l2.418-.618c.546-.139 1.112.173 1.258.693l1.487 5.292c.146.52-.18 1.06-.726 1.2l-2.418.618c-.546.139-1.112-.173-1.258-.693l-1.488-5.292c-.146-.52.18-1.06.727-1.2M96.572 49.32l2.125-1.19a1.028 1.028 0 0 1 1.375.357l2.816 4.729a.962.962 0 0 1-.368 1.333l-2.124 1.19a1.027 1.027 0 0 1-1.376-.358l-2.816-4.729a.963.963 0 0 1 .368-1.333M101.421 46.065l1.784-1.766a1.046 1.046 0 0 1 1.464 0l4.094 4.055a1.02 1.02 0 0 1 0 1.45l-1.783 1.766a1.046 1.046 0 0 1-1.464 0l-4.095-4.055a1.02 1.02 0 0 1 0-1.45M75.254 49.32l-2.124-1.19a1.028 1.028 0 0 0-1.376.357l-2.816 4.729a.962.962 0 0 0 .368 1.333l2.125 1.19c.48.268 1.098.107 1.375-.358l2.816-4.729a.962.962 0 0 0-.368-1.333M71.399 46.065l-1.784-1.766a1.046 1.046 0 0 0-1.464 0l-4.095 4.055a1.02 1.02 0 0 0 0 1.45l1.784 1.766a1.046 1.046 0 0 0 1.464 0l4.095-4.055a1.02 1.02 0 0 0 0-1.45M105.306 41.602l1.35-2.104c.305-.475.988-.64 1.516-.365l5.372 2.788c.528.275.711.888.406 1.362l-1.35 2.104c-.306.475-.988.64-1.515.366l-5.373-2.79c-.528-.273-.71-.886-.406-1.361M107.212 36.148l.623-2.394a.99.99 0 0 1 1.212-.72l5.344 1.474c.526.144.84.705.7 1.245l-.624 2.395a.99.99 0 0 1-1.212.72l-5.344-1.474c-.526-.145-.84-.705-.7-1.246"/>
        <g transform="translate(108.403 27.541)">
            <mask id="b" fill="#fff">
                <use xlink:href="#a"/>
            </mask>
            <path fill="#FFF" d="M0 3.422V.996C0 .448.46 0 1.024 0h5.727c.564 0 1.024.448 1.024.996v2.426c0 .548-.46.996-1.024.996H1.024C.461 4.418 0 3.97 0 3.422" mask="url(#b)"/>
        </g>
        <path fill="#FFF" d="M107.835 25.148l-.623-2.394c-.141-.541.173-1.102.699-1.247l5.344-1.472a.99.99 0 0 1 1.212.719l.624 2.394c.14.54-.174 1.101-.7 1.246l-5.344 1.473a.99.99 0 0 1-1.212-.72M106.657 19.387l-1.351-2.103c-.305-.475-.123-1.088.406-1.363l5.372-2.788c.528-.274 1.21-.11 1.515.365l1.351 2.104c.305.475.122 1.088-.406 1.362l-5.372 2.789c-.529.274-1.21.11-1.515-.366M103.204 15.57l-1.783-1.766a1.021 1.021 0 0 1 0-1.45l4.095-4.055a1.045 1.045 0 0 1 1.464 0l1.783 1.766a1.021 1.021 0 0 1 0 1.45l-4.094 4.055a1.046 1.046 0 0 1-1.465 0M98.697 10.739l-2.125-1.19a.963.963 0 0 1-.368-1.333l2.816-4.729a1.028 1.028 0 0 1 1.375-.357l2.125 1.19c.48.268.645.868.369 1.333l-2.817 4.728a1.027 1.027 0 0 1-1.375.358M93.19 8.836l-2.418-.618c-.546-.14-.873-.68-.727-1.2l1.488-5.292c.146-.52.712-.832 1.258-.693l2.418.618c.546.14.872.68.726 1.2l-1.487 5.292c-.146.52-.712.832-1.258.693M73.13 10.739l2.124-1.19a.963.963 0 0 0 .369-1.333l-2.817-4.729a1.028 1.028 0 0 0-1.375-.357l-2.125 1.19a.963.963 0 0 0-.368 1.333l2.816 4.728c.277.465.896.626 1.375.358"/>
        <g transform="translate(.134 10.82)">
            <mask id="d" fill="#fff">
                <use xlink:href="#c"/>
            </mask>
            <path fill="#FFF" d="M14.688 17.124c-.81-.778-1.813-1.167-3.009-1.167-1.156 0-2.126.382-2.91 1.146-.784.779-1.176 1.744-1.176 2.898 0 1.18.385 2.18 1.156 2.998.784.832 1.76 1.248 2.93 1.248 1.169 0 2.165-.39 2.989-1.168.837-.79 1.256-1.777 1.256-2.957 0-1.208-.412-2.207-1.236-2.998m5.56 10.664c-2.232 2.2-5.009 3.3-8.33 3.3-3.455 0-6.298-1.086-8.53-3.26C1.128 25.628 0 22.785 0 19.297c0-1.409.26-2.838.777-4.286.465-1.288 1.13-2.583 1.993-3.884L10.283 0h8.949l-6.656 9.196.08.08c.198-.067.438-.114.717-.14l.757-.02c2.79 0 5.088 1.025 6.895 3.078 1.741 1.985 2.611 4.407 2.611 7.263 0 3.34-1.13 6.118-3.388 8.331" mask="url(#d)"/>
        </g>
        <path fill="#FFF" d="M41.412 21.306c0-1.348-.243-2.395-.728-3.142-.607-.907-1.564-1.36-2.87-1.36-1.241 0-2.178.46-2.812 1.38-.525.787-.788 1.828-.788 3.122v8.844c0 1.307.263 2.355.788 3.141.62.92 1.558 1.381 2.811 1.381 1.307 0 2.264-.453 2.87-1.36.486-.76.729-1.815.729-3.162v-8.844zm7.824 8.644c0 2.361-.499 4.422-1.496 6.183-1.079 1.868-2.662 3.275-4.752 4.222-1.563.747-3.248 1.12-5.054 1.12-1.59 0-3.147-.313-4.67-.94-4.583-1.907-6.874-5.436-6.874-10.585v-8.444c0-5.243 2.305-8.778 6.914-10.606 1.564-.6 3.107-.9 4.63-.9 1.578 0 3.14.327 4.69.98 4.408 1.908 6.612 5.417 6.612 10.526v8.444zM66.658 21.306c0-1.348-.243-2.395-.728-3.142-.606-.907-1.563-1.36-2.87-1.36-1.241 0-2.178.46-2.812 1.38-.525.787-.788 1.828-.788 3.122v8.844c0 1.307.263 2.355.788 3.141.62.92 1.558 1.381 2.811 1.381 1.308 0 2.265-.453 2.87-1.36.486-.76.729-1.815.729-3.162v-8.844zm7.824 8.644c0 2.361-.499 4.422-1.496 6.183-1.079 1.868-2.662 3.275-4.751 4.222-1.564.747-3.248 1.12-5.054 1.12-1.59 0-3.148-.313-4.67-.94-4.584-1.907-6.875-5.436-6.875-10.585v-8.444c0-5.243 2.305-8.778 6.914-10.606 1.564-.6 3.107-.9 4.63-.9 1.578 0 3.14.327 4.69.98 4.408 1.908 6.612 5.417 6.612 10.526v8.444zM92.8 39.607c-1.78 1.322-3.94 1.983-6.48 1.983-2.528 0-4.642-.64-6.34-1.922-1.807-1.363-2.84-3.266-3.098-5.708h6.89c.203 1.417 1.08 2.125 2.628 2.125.598 0 1.134-.148 1.61-.445.543-.337.816-.79.816-1.356 0-.715-.367-1.302-1.101-1.761l-1.02-.486-4.014-1.437c-1.617-.58-2.88-1.301-3.791-2.165-1.155-1.08-1.732-2.36-1.732-3.846 0-2.28.937-4.142 2.812-5.586C81.705 17.668 83.764 17 86.156 17c2.432 0 4.436.6 6.012 1.801 1.699 1.283 2.656 3.104 2.874 5.465h-6.807c-.041-1.16-.761-1.74-2.16-1.74-1.32 0-1.978.512-1.978 1.537 0 .77.612 1.397 1.835 1.883.407.175 1.025.384 1.854.627.067.014.156.034.265.06l1.875.588c.829.27 1.542.553 2.14.85.734.364 1.352.782 1.855 1.255 1.222 1.12 1.834 2.597 1.834 4.432 0 2.442-.985 4.391-2.955 5.849M4.293 47.986v6.866H1.946v-6.866H.134V46h5.96v1.986zM13.737 54.852v-3.538h-3.103v3.538H8.212V46h2.422v3.328h3.103V46h2.422v8.852zM25.31 45.835l-3.144-1.359.652-1.476 3.075 1.611-.584 1.224zm.838 3.205c-.489-.558-1.108-.837-1.858-.837s-1.368.27-1.857.812c-.472.52-.708 1.156-.708 1.907 0 .767.236 1.415.708 1.944.493.553 1.122.83 1.888.83.733 0 1.344-.28 1.833-.837.464-.529.696-1.162.696-1.9 0-.75-.234-1.39-.702-1.92zm1.913-1.267c.795.881 1.193 1.94 1.193 3.174 0 1.369-.487 2.521-1.46 3.456-.96.923-2.137 1.384-3.528 1.384-1.346 0-2.502-.453-3.467-1.36-.985-.918-1.478-2.039-1.478-3.364 0-.705.122-1.37.367-1.993.127-.332.33-.68.608-1.045.982-1.275 2.309-1.913 3.982-1.913 1.168 0 2.187.33 3.056.99l.13-.049c.432-.209.647-.515.647-.916h-.497v-1.403h1.422v1.446c-.058.594-.254 1.037-.59 1.328-.124.103-.252.19-.385.265zM31.439 54.852h1.987V46h-1.987zM47.508 55.123c-.604.475-1.415.713-2.432.713-1.04 0-1.876-.25-2.51-.75-.686-.534-1.028-1.289-1.028-2.264v-.306h2.49c0 .35.08.644.24.881a.88.88 0 0 0 .782.413c.633 0 .95-.302.95-.907a.808.808 0 0 0-.33-.669 1.932 1.932 0 0 0-.336-.2l-.187-.088-1.068-.443a7.316 7.316 0 0 1-.912-.432 3.772 3.772 0 0 1-.763-.556 2.33 2.33 0 0 1-.718-1.726c0-.838.362-1.523 1.087-2.057.664-.488 1.445-.732 2.341-.732.505 0 .988.088 1.45.263.5.191.9.462 1.202.813.406.483.621 1.106.647 1.87h-2.477c-.095-.618-.395-.926-.9-.926-.572 0-.86.248-.86.744 0 .175.03.309.091.4.1.163.399.363.9.6l1.034.45c.362.16.664.311.906.457.293.175.534.36.724.556.44.45.66 1.017.66 1.701 0 .95-.328 1.682-.983 2.195M52.077 58.77h1.915v-1.883h-1.915v1.883zm4.37-10.655v4.005c0 .63-.05 1.14-.153 1.53-.137.5-.382.935-.734 1.304-.63.667-1.46 1-2.49 1-.497 0-.96-.075-1.386-.225a2.838 2.838 0 0 1-1.175-.762c-.376-.411-.627-.85-.752-1.317a4.024 4.024 0 0 1-.111-.713 9.096 9.096 0 0 1-.03-.817v-5.584h2.273v5.584c0 .244.012.453.035.628.032.223.085.412.159.567.18.378.501.567.963.567.478 0 .8-.185.964-.555.07-.15.117-.337.14-.561.016-.162.024-.378.024-.646v-5.584h2.273v.494a.91.91 0 0 0 .24-.64h-.469V45h1.345v1.432c-.055.59-.24 1.028-.558 1.317a2.275 2.275 0 0 1-.558.366z"/>
    </g>
</svg>
