<svg xmlns="http://www.w3.org/2000/svg" width="183" height="16" viewBox="0 0 183 16">
    <path fill="#333" fill-rule="evenodd" d="M0 .729h3.11l1.918 10.855L8.022.729h2.993l2.643 12.905c1.037-2.527 1.555-4.943 1.555-7.248 0-1.817-.32-3.703-.959-5.657h3.321c.499 1.466.748 2.905.748 4.317 0 1.534-.348 3.122-1.046 4.763-.698 1.641-1.705 3.462-3.023 5.462h-3.356L8.618 3.775 5.508 15.27h-3.11L0 .729zm19.972 8.027c0-.794.09-1.579.27-2.353.178-.775.465-1.52.859-2.233a7.989 7.989 0 0 1 1.426-1.884c.558-.542 1.245-.975 2.064-1.3C25.41.663 26.306.5 27.281.5c.974 0 1.868.162 2.683.487.815.324 1.503.757 2.064 1.3a7.785 7.785 0 0 1 1.427 1.883c.39.714.674 1.458.853 2.233.18.774.27 1.559.27 2.353 0 1.03-.143 1.946-.428 2.748-.284.801-.658 1.448-1.122 1.94a5.717 5.717 0 0 1-1.667 1.214 7.583 7.583 0 0 1-1.964.659 11.67 11.67 0 0 1-2.117.183 11.67 11.67 0 0 1-2.116-.183 7.671 7.671 0 0 1-1.97-.659 5.693 5.693 0 0 1-1.672-1.213c-.464-.493-.839-1.14-1.123-1.941-.285-.802-.427-1.718-.427-2.748zm3.356.32c0 1.672.357 2.947 1.07 3.825.713.878 1.674 1.317 2.882 1.317 1.209 0 2.168-.44 2.877-1.317.71-.878 1.064-2.153 1.064-3.825 0-.931-.074-1.815-.222-2.65a10.757 10.757 0 0 0-.672-2.32c-.3-.71-.712-1.274-1.234-1.694a2.81 2.81 0 0 0-1.813-.63c-.686 0-1.29.21-1.812.63-.522.42-.935.985-1.24 1.695-.304.71-.53 1.483-.678 2.319-.148.835-.222 1.719-.222 2.65zm13.377 6.195V.729h7.051c.406 0 .739.002 1 .006s.6.017 1.017.04c.417.023.764.055 1.041.097.277.042.6.107.97.195.37.088.677.19.919.309.241.118.493.271.754.458.26.187.468.397.62.63.152.233.276.511.374.836.097.324.146.68.146 1.07 0 .84-.341 1.672-1.023 2.496-.682.825-1.776 1.672-3.28 2.542l4.9 5.863H47.37l-3.836-4.523c-.67.382-1.508.81-2.514 1.283V9.924c4.155-2.1 6.233-3.95 6.233-5.554 0-1.488-1.166-2.233-3.497-2.233h-3.929v13.134h-3.122zm15.927 0V.729h3.122v13.134h6.466v1.408h-9.588zm11.132 0V.729h5.8c1.153 0 2.192.134 3.116.4.923.268 1.691.627 2.303 1.077a6.29 6.29 0 0 1 1.532 1.603 6.43 6.43 0 0 1 .877 1.941c.175.676.263 1.387.263 2.136 0 1.068-.158 2.03-.473 2.885-.316.855-.735 1.557-1.257 2.107a6.914 6.914 0 0 1-1.86 1.38 8.435 8.435 0 0 1-2.216.784c-.76.153-1.56.229-2.403.229h-1.368v-1.408h1.368c.757 0 1.42-.1 1.988-.298a3.88 3.88 0 0 0 1.52-.985c.445-.458.782-1.09 1.012-1.895.23-.805.345-1.784.345-2.937 0-.595-.043-1.149-.129-1.66a5.994 5.994 0 0 0-.473-1.517c-.23-.5-.528-.924-.895-1.271-.366-.348-.85-.628-1.45-.842-.6-.214-1.29-.32-2.07-.32h-2.408V15.27h-3.122zm20.591-6.962c0-.97.176-1.92.527-2.851a8.586 8.586 0 0 1 1.45-2.502c.615-.737 1.39-1.33 2.32-1.78A6.827 6.827 0 0 1 91.665.5c1.075 0 2.064.21 2.964.63.9.42 1.596.992 2.087 1.717l-1.204.836c-.335-.443-.807-.83-1.415-1.162-.608-.332-1.22-.498-1.836-.498-.71 0-1.335.124-1.877.372s-.978.573-1.31.973c-.33.401-.602.886-.812 1.455a8.037 8.037 0 0 0-.433 1.723c-.078.58-.117 1.206-.117 1.878 0 .954.117 1.795.351 2.524.234.73.556 1.31.965 1.74.41.432.87.755 1.38.968.51.214 1.062.321 1.654.321.998 0 1.852-.198 2.561-.595.71-.397 1.24-.87 1.59-1.42l1.193.847c-1.068 1.794-2.904 2.691-5.507 2.691a10.84 10.84 0 0 1-2.111-.2 8 8 0 0 1-2.029-.71 6.038 6.038 0 0 1-1.748-1.3c-.487-.527-.885-1.216-1.193-2.067-.308-.85-.462-1.822-.462-2.914zm14.126 1.523c0-.641.129-1.72.386-3.235s.518-2.872.783-4.07l.386-1.798h2.397c-.397 4.603-.596 7.763-.596 9.48 0 .566.064 1.08.193 1.541.128.462.33.884.602 1.265.273.382.657.678 1.152.888.495.21 1.081.315 1.76.315.678 0 1.264-.105 1.76-.315.495-.21.88-.506 1.157-.888.277-.381.48-.803.608-1.265.129-.462.193-.975.193-1.54 0-.763-.05-1.935-.152-3.515-.101-1.58-.199-2.97-.292-4.168l-.152-1.798h2.385c.117.52.261 1.183.433 1.992.171.81.401 2.037.69 3.682.288 1.645.432 2.788.432 3.43 0 1.045-.16 1.938-.479 2.678a3.99 3.99 0 0 1-1.427 1.758c-.631.431-1.366.744-2.204.939-.838.195-1.822.292-2.952.292s-2.115-.097-2.953-.292c-.838-.195-1.573-.508-2.204-.939a3.99 3.99 0 0 1-1.427-1.758c-.32-.74-.48-1.633-.48-2.679zm16.37 5.439V.729h6.97c.545 0 .97.004 1.274.011.304.008.725.035 1.263.08.538.046.969.111 1.292.195a7.25 7.25 0 0 1 1.094.395c.405.18.72.393.947.642.226.248.419.568.579.961.16.393.24.838.24 1.334 0 .466-.112.934-.334 1.403-.222.47-.505.899-.848 1.288-.343.39-.781.788-1.315 1.197-.534.408-1.043.761-1.526 1.059-.484.298-1.055.616-1.713.956-.659.34-1.21.613-1.655.819-.444.206-.959.442-1.543.71l-.41.183V9.855a47.16 47.16 0 0 0 2.86-1.489 12.694 12.694 0 0 0 1.812-1.242c.495-.416.838-.82 1.029-1.214.19-.393.286-.837.286-1.334 0-.336-.048-.637-.146-.904a2.09 2.09 0 0 0-.357-.647 1.9 1.9 0 0 0-.55-.43 3.633 3.633 0 0 0-.607-.269 3.559 3.559 0 0 0-.65-.131 7.01 7.01 0 0 0-.566-.052 15.267 15.267 0 0 0-.456-.006h-3.847v13.134h-3.122zm19.634 0v-1.408a50.792 50.792 0 0 0 3.7-2.302c1.049-.725 1.89-1.376 2.526-1.952.636-.577 1.144-1.14 1.526-1.69.382-.549.641-1.037.778-1.465.136-.427.204-.866.204-1.317 0-.946-.282-1.694-.847-2.244-.566-.55-1.374-.824-2.427-.824-1.029 0-1.86.282-2.496.847-.636.565-.953 1.229-.953 1.992 0 .413.113.832.339 1.26.008.015-.076.065-.252.149-.175.084-.352.168-.532.252l-.269.114a3.787 3.787 0 0 1-.17-.246c-.065-.103-.155-.319-.268-.647a3.04 3.04 0 0 1-.17-.996c0-.802.256-1.533.766-2.193.511-.66 1.203-1.175 2.076-1.546.873-.37 1.836-.555 2.888-.555 1.668 0 3.03.448 4.087 1.345 1.056.897 1.584 2.025 1.584 3.384 0 .718-.15 1.399-.45 2.044-.3.645-.627 1.187-.982 1.626-.355.439-.934.937-1.736 1.494-.803.557-1.448.973-1.936 1.248a182.601 182.601 0 0 1-2.777 1.523h8.36v2.107h-12.57zm13.891-6.515c0-.802.082-1.586.246-2.353.163-.768.43-1.512.8-2.233a7.561 7.561 0 0 1 1.357-1.89c.534-.538 1.2-.969 2-1.293.799-.325 1.685-.487 2.66-.487.974 0 1.861.162 2.66.487.8.324 1.466.755 2 1.294a7.561 7.561 0 0 1 1.356 1.889c.37.721.637 1.465.801 2.233.164.767.246 1.551.246 2.353 0 1.03-.135 1.946-.404 2.748-.269.801-.623 1.448-1.064 1.94-.44.493-.972.898-1.596 1.214a7.108 7.108 0 0 1-1.906.659c-.647.122-1.345.183-2.093.183s-1.446-.061-2.093-.183a7.108 7.108 0 0 1-1.906-.659 5.393 5.393 0 0 1-1.596-1.213c-.44-.493-.795-1.14-1.064-1.941-.27-.802-.404-1.718-.404-2.748zm3.356.32c0 1.703.322 3.004.965 3.905.643.9 1.557 1.351 2.742 1.351s2.1-.45 2.748-1.351c.647-.9.97-2.202.97-3.905 0-.954-.062-1.847-.187-2.679a11.666 11.666 0 0 0-.596-2.347c-.273-.733-.659-1.313-1.158-1.74-.499-.428-1.091-.642-1.777-.642-.686 0-1.279.214-1.777.641-.5.428-.883 1.01-1.152 1.746-.27.737-.466 1.52-.59 2.348a17.98 17.98 0 0 0-.188 2.673zm11.729-6.309v-.985a13.55 13.55 0 0 0 1.73-.297c.444-.115.77-.222.977-.32.206-.1.567-.291 1.081-.573h1.146V15.27h-3.11V4.015c0-.404-.12-.713-.357-.927-.238-.214-.56-.32-.965-.32h-.502zm15.33 4.74l.01.002-.01-.001zm.01.002c.144.023.281.047.41.073.133.027.351.084.655.172.304.088.581.187.83.298.25.11.525.265.825.463.3.199.551.418.754.659.203.24.374.538.515.893.14.355.21.738.21 1.15 0 .512-.082.98-.246 1.403-.163.424-.378.78-.643 1.07-.265.29-.582.547-.953.768-.37.221-.744.397-1.122.527-.378.13-.782.234-1.21.315a11.027 11.027 0 0 1-2.175.2 11.027 11.027 0 0 1-2.175-.2 8.584 8.584 0 0 1-1.21-.315 5.8 5.8 0 0 1-1.117-.527 4.246 4.246 0 0 1-.948-.767 3.365 3.365 0 0 1-.643-1.07 3.862 3.862 0 0 1-.245-1.403c0-.413.07-.796.21-1.151.14-.355.312-.653.515-.893.202-.24.454-.46.754-.659.3-.198.575-.353.824-.463.25-.111.527-.21.83-.298.305-.088.523-.145.655-.172a9.4 9.4 0 0 1 .421-.074 3.546 3.546 0 0 1-.526-.132 4.531 4.531 0 0 1-.754-.344c-.3-.164-.57-.356-.807-.578a2.88 2.88 0 0 1-.62-.887 2.812 2.812 0 0 1-.263-1.22c0-.671.152-1.263.456-1.774a3.32 3.32 0 0 1 1.21-1.203 6.28 6.28 0 0 1 1.626-.652A7.428 7.428 0 0 1 176.65.5c.49 0 .972.042 1.444.126.471.084.931.225 1.38.424.448.198.84.442 1.175.732.335.29.604.655.806 1.094.203.439.305.93.305 1.471 0 .443-.088.85-.264 1.22a2.88 2.88 0 0 1-.62.887 3.979 3.979 0 0 1-.806.578c-.3.165-.552.28-.754.344a3.546 3.546 0 0 1-.527.132l.01.001zm-5.144 3.892c0 1.954.998 2.931 2.994 2.931 1.995 0 2.993-.977 2.993-2.931 0-.183-.021-.393-.064-.63a4.247 4.247 0 0 0-.246-.807 3.821 3.821 0 0 0-.456-.83 2.61 2.61 0 0 0-.742-.67 2.64 2.64 0 0 0-1.053-.372V6.969a2.37 2.37 0 0 0 1.38-.818c.374-.44.561-1.075.561-1.907 0-.442-.058-.828-.175-1.156-.117-.328-.257-.58-.421-.756a1.863 1.863 0 0 0-.596-.424 2.37 2.37 0 0 0-.62-.2 3.806 3.806 0 0 0-.561-.04c-.195 0-.382.013-.562.04a2.37 2.37 0 0 0-.62.2 1.863 1.863 0 0 0-.596.424c-.164.176-.302.428-.415.756-.113.328-.17.714-.17 1.156 0 .832.188 1.468.562 1.907a2.37 2.37 0 0 0 1.38.818v1.123a2.563 2.563 0 0 0-1.263.503 2.655 2.655 0 0 0-.801.962 5.767 5.767 0 0 0-.386 1.02 3.314 3.314 0 0 0-.123.824z"/>
</svg>
