<svg width="24" height="24" viewBox="0 0 24 24" fill="none" xmlns="http://www.w3.org/2000/svg">
<path d="M4.32004 1.91992C3.00028 1.91992 1.92004 3.00015 1.92004 4.31992V19.6799C1.92004 20.9997 3.00028 22.0799 4.32004 22.0799H19.68C20.9998 22.0799 22.08 20.9997 22.08 19.6799V4.31992C22.08 3.00015 20.9998 1.91992 19.68 1.91992H4.32004ZM4.32004 2.87992H7.47848C5.76436 4.66345 4.80004 6.9686 4.80004 9.35992C4.80004 11.8367 5.81292 14.2078 7.63692 16.003C7.69452 16.1038 7.74241 16.5981 7.52161 17.1693C7.38241 17.5293 7.10389 17.9995 6.56629 18.1771C6.35989 18.2443 6.22564 18.4467 6.24004 18.6627C6.25444 18.8787 6.41322 19.0611 6.62442 19.1043C8.00202 19.3779 8.89411 18.9648 9.61411 18.6384C10.2621 18.3408 10.6899 18.1389 11.3475 18.4077C12.6915 18.9309 14.1216 19.1999 15.6 19.1999C17.565 19.1999 19.4551 18.7203 21.12 17.8143V19.6799C21.12 20.4808 20.4809 21.1199 19.68 21.1199H4.32004C3.51917 21.1199 2.88004 20.4808 2.88004 19.6799V4.31992C2.88004 3.51905 3.51917 2.87992 4.32004 2.87992ZM15.84 7.19992C16.104 7.19992 16.32 7.41592 16.32 7.67992V11.9999C16.32 12.2639 16.104 12.4799 15.84 12.4799C15.576 12.4799 15.36 12.2639 15.36 11.9999V7.67992C15.36 7.41592 15.576 7.19992 15.84 7.19992ZM8.64004 7.67992H11.04C11.2128 7.67992 11.3765 7.7757 11.4629 7.9293C11.5445 8.0781 11.5391 8.26518 11.4479 8.41399L9.50442 11.5199H11.04C11.304 11.5199 11.52 11.7359 11.52 11.9999C11.52 12.2639 11.304 12.4799 11.04 12.4799H8.64004C8.46724 12.4799 8.30363 12.3841 8.21723 12.2305C8.13563 12.0817 8.14103 11.8947 8.23223 11.7459L10.1757 8.63992H8.64004C8.37604 8.63992 8.16004 8.42392 8.16004 8.15992C8.16004 7.89592 8.37604 7.67992 8.64004 7.67992ZM13.2 9.11992C13.4928 9.11992 13.7662 9.20115 14.011 9.33555C14.0974 9.21075 14.232 9.11992 14.4 9.11992C14.664 9.11992 14.88 9.33592 14.88 9.59992V11.9999C14.88 12.2639 14.664 12.4799 14.4 12.4799C14.232 12.4799 14.0974 12.3891 14.011 12.2643C13.7662 12.3987 13.4928 12.4799 13.2 12.4799C12.2736 12.4799 11.52 11.7263 11.52 10.7999C11.52 9.87352 12.2736 9.11992 13.2 9.11992ZM18.48 9.11992C19.4064 9.11992 20.16 9.87352 20.16 10.7999C20.16 11.7263 19.4064 12.4799 18.48 12.4799C17.5536 12.4799 16.8 11.7263 16.8 10.7999C16.8 9.87352 17.5536 9.11992 18.48 9.11992ZM13.2 10.0799C13.1502 10.0799 13.1017 10.0854 13.0547 10.0949C12.9609 10.1141 12.8735 10.151 12.7969 10.2027C12.7203 10.2544 12.6546 10.3202 12.6029 10.3968C12.5512 10.4734 12.5142 10.5608 12.495 10.6546C12.4855 10.7015 12.48 10.7501 12.48 10.7999C12.48 10.8497 12.4855 10.8983 12.495 10.9452C12.5046 10.9922 12.5181 11.0371 12.5363 11.0802C12.5545 11.1233 12.577 11.1648 12.6029 11.203C12.6287 11.2413 12.6584 11.2764 12.691 11.309C12.7235 11.3415 12.7586 11.3713 12.7969 11.3971C12.8735 11.4488 12.9609 11.4858 13.0547 11.5049C13.1017 11.5145 13.1502 11.5199 13.2 11.5199C13.2498 11.5199 13.2984 11.5145 13.3454 11.5049C13.6738 11.4379 13.92 11.1485 13.92 10.7999C13.92 10.4015 13.5984 10.0799 13.2 10.0799ZM18.48 10.0799C18.4302 10.0799 18.3817 10.0854 18.3347 10.0949C18.2878 10.1045 18.2428 10.118 18.1997 10.1362C18.1566 10.1544 18.1152 10.1769 18.0769 10.2027C18.0386 10.2286 18.0035 10.2583 17.971 10.2909C17.9059 10.356 17.8527 10.4334 17.8163 10.5196C17.7981 10.5627 17.7846 10.6077 17.775 10.6546C17.7655 10.7015 17.76 10.7501 17.76 10.7999C17.76 10.8497 17.7655 10.8983 17.775 10.9452C17.7846 10.9922 17.7981 11.0371 17.8163 11.0802C17.8345 11.1233 17.857 11.1648 17.8829 11.203C17.9087 11.2413 17.9384 11.2764 17.971 11.309C18.0035 11.3415 18.0386 11.3713 18.0769 11.3971C18.1152 11.423 18.1566 11.4455 18.1997 11.4637C18.2428 11.4819 18.2878 11.4954 18.3347 11.5049C18.3817 11.5145 18.4302 11.5199 18.48 11.5199C18.5298 11.5199 18.5784 11.5145 18.6254 11.5049C18.9538 11.4379 19.2 11.1485 19.2 10.7999C19.2 10.4015 18.8784 10.0799 18.48 10.0799Z" fill="#0173FF"/>
</svg>
