<svg width="90" height="33" viewBox="0 0 90 33" fill="none" xmlns="http://www.w3.org/2000/svg">
<rect x="0.933258" width="89" height="33" rx="4" fill="#0078FF"/>
<g clip-path="url(#clip0)">
<path d="M24.9939 8.00098H9.87151C9.35368 8.00098 8.93326 8.42057 8.93326 8.93925V24.0619C8.93326 24.5805 9.35368 25.0007 9.87151 25.0007H18.0129V18.4174H15.7977V15.8514H18.0129V13.9592C18.0129 11.7639 19.3534 10.5678 21.3122 10.5678C22.2513 10.5678 23.0566 10.638 23.2915 10.6686V12.9633L21.9328 12.9638C20.8677 12.9638 20.6623 13.4702 20.6623 14.2128V15.8506H23.2033L22.8711 18.4163H20.662V24.9999H24.9936C25.512 24.9999 25.9327 24.5791 25.9327 24.0619V8.93869C25.9324 8.42057 25.5123 8.00098 24.9939 8.00098Z" fill="white"/>
</g>
<path d="M32.6703 13.159V16.526H36.7023V17.737H32.6703V22H31.1723V11.948H37.4023V13.159H32.6703ZM41.6459 18.843C41.0906 18.8617 40.6192 18.906 40.2319 18.976C39.8446 19.0413 39.5296 19.13 39.2869 19.242C39.0442 19.354 38.8692 19.487 38.7619 19.641C38.6546 19.7903 38.6009 19.9583 38.6009 20.145C38.6009 20.3223 38.6289 20.4763 38.6849 20.607C38.7456 20.733 38.8249 20.838 38.9229 20.922C39.0256 21.0013 39.1446 21.0597 39.2799 21.097C39.4152 21.1343 39.5622 21.153 39.7209 21.153C39.9309 21.153 40.1222 21.132 40.2949 21.09C40.4722 21.048 40.6379 20.9897 40.7919 20.915C40.9459 20.8357 41.0929 20.74 41.2329 20.628C41.3729 20.516 41.5106 20.3877 41.6459 20.243V18.843ZM37.6419 15.882C38.0386 15.504 38.4679 15.2217 38.9299 15.035C39.3966 14.8483 39.9076 14.755 40.4629 14.755C40.8689 14.755 41.2282 14.8227 41.5409 14.958C41.8536 15.0887 42.1172 15.273 42.3319 15.511C42.5466 15.749 42.7076 16.0337 42.8149 16.365C42.9269 16.6963 42.9829 17.0627 42.9829 17.464V22H42.3739C42.2386 22 42.1359 21.979 42.0659 21.937C41.9959 21.8903 41.9399 21.8063 41.8979 21.685L41.7509 21.062C41.5689 21.23 41.3892 21.3793 41.2119 21.51C41.0346 21.636 40.8479 21.7457 40.6519 21.839C40.4606 21.9277 40.2552 21.9953 40.0359 22.042C39.8166 22.0887 39.5739 22.112 39.3079 22.112C39.0279 22.112 38.7642 22.0747 38.5169 22C38.2742 21.9207 38.0619 21.8017 37.8799 21.643C37.6979 21.4843 37.5532 21.286 37.4459 21.048C37.3432 20.81 37.2919 20.5323 37.2919 20.215C37.2919 19.935 37.3666 19.6667 37.5159 19.41C37.6699 19.1487 37.9172 18.9153 38.2579 18.71C38.6032 18.5047 39.0512 18.3367 39.6019 18.206C40.1572 18.0753 40.8386 18.0007 41.6459 17.982V17.464C41.6459 16.9273 41.5316 16.526 41.3029 16.26C41.0742 15.994 40.7382 15.861 40.2949 15.861C39.9962 15.861 39.7442 15.8983 39.5389 15.973C39.3382 16.0477 39.1632 16.1317 39.0139 16.225C38.8692 16.3137 38.7409 16.3953 38.6289 16.47C38.5216 16.5447 38.4096 16.582 38.2929 16.582C38.1996 16.582 38.1179 16.5563 38.0479 16.505C37.9826 16.4537 37.9289 16.393 37.8869 16.323L37.6419 15.882ZM46.0912 15.875C46.2452 15.7117 46.4062 15.5623 46.5742 15.427C46.7422 15.2917 46.9196 15.1773 47.1062 15.084C47.2976 14.986 47.5006 14.9113 47.7152 14.86C47.9346 14.804 48.1679 14.776 48.4152 14.776C48.8072 14.776 49.1502 14.8413 49.4442 14.972C49.7429 15.1027 49.9926 15.287 50.1932 15.525C50.3939 15.7583 50.5456 16.0407 50.6482 16.372C50.7509 16.7033 50.8022 17.0697 50.8022 17.471V22H49.4302V17.471C49.4302 16.9623 49.3136 16.568 49.0802 16.288C48.8469 16.0033 48.4899 15.861 48.0092 15.861C47.6592 15.861 47.3302 15.945 47.0222 16.113C46.7189 16.2763 46.4366 16.5003 46.1752 16.785V22H44.8102V14.888H45.6292C45.8206 14.888 45.9396 14.979 45.9862 15.161L46.0912 15.875ZM55.8325 17.121C56.2105 17.121 56.5418 17.072 56.8265 16.974C57.1158 16.876 57.3562 16.7383 57.5475 16.561C57.7435 16.379 57.8905 16.1643 57.9885 15.917C58.0865 15.665 58.1355 15.3873 58.1355 15.084C58.1355 14.4727 57.9442 13.992 57.5615 13.642C57.1835 13.292 56.6072 13.117 55.8325 13.117H54.2785V17.121H55.8325ZM55.8325 11.948C56.4765 11.948 57.0365 12.0227 57.5125 12.172C57.9885 12.3213 58.3828 12.5337 58.6955 12.809C59.0082 13.0797 59.2392 13.4087 59.3885 13.796C59.5425 14.1833 59.6195 14.6127 59.6195 15.084C59.6195 15.5553 59.5378 15.9893 59.3745 16.386C59.2112 16.778 58.9708 17.1163 58.6535 17.401C58.3362 17.6857 57.9395 17.9073 57.4635 18.066C56.9922 18.22 56.4485 18.297 55.8325 18.297H54.2785V22H52.7875V11.948H55.8325ZM64.5873 18.843C64.032 18.8617 63.5606 18.906 63.1733 18.976C62.786 19.0413 62.471 19.13 62.2283 19.242C61.9856 19.354 61.8106 19.487 61.7033 19.641C61.596 19.7903 61.5423 19.9583 61.5423 20.145C61.5423 20.3223 61.5703 20.4763 61.6263 20.607C61.687 20.733 61.7663 20.838 61.8643 20.922C61.967 21.0013 62.086 21.0597 62.2213 21.097C62.3566 21.1343 62.5036 21.153 62.6623 21.153C62.8723 21.153 63.0636 21.132 63.2363 21.09C63.4136 21.048 63.5793 20.9897 63.7333 20.915C63.8873 20.8357 64.0343 20.74 64.1743 20.628C64.3143 20.516 64.452 20.3877 64.5873 20.243V18.843ZM60.5833 15.882C60.98 15.504 61.4093 15.2217 61.8713 15.035C62.338 14.8483 62.849 14.755 63.4043 14.755C63.8103 14.755 64.1696 14.8227 64.4823 14.958C64.795 15.0887 65.0586 15.273 65.2733 15.511C65.488 15.749 65.649 16.0337 65.7563 16.365C65.8683 16.6963 65.9243 17.0627 65.9243 17.464V22H65.3153C65.18 22 65.0773 21.979 65.0073 21.937C64.9373 21.8903 64.8813 21.8063 64.8393 21.685L64.6923 21.062C64.5103 21.23 64.3306 21.3793 64.1533 21.51C63.976 21.636 63.7893 21.7457 63.5933 21.839C63.402 21.9277 63.1966 21.9953 62.9773 22.042C62.758 22.0887 62.5153 22.112 62.2493 22.112C61.9693 22.112 61.7056 22.0747 61.4583 22C61.2156 21.9207 61.0033 21.8017 60.8213 21.643C60.6393 21.4843 60.4946 21.286 60.3873 21.048C60.2846 20.81 60.2333 20.5323 60.2333 20.215C60.2333 19.935 60.308 19.6667 60.4573 19.41C60.6113 19.1487 60.8586 18.9153 61.1993 18.71C61.5446 18.5047 61.9926 18.3367 62.5433 18.206C63.0986 18.0753 63.78 18.0007 64.5873 17.982V17.464C64.5873 16.9273 64.473 16.526 64.2443 16.26C64.0156 15.994 63.6796 15.861 63.2363 15.861C62.9376 15.861 62.6856 15.8983 62.4803 15.973C62.2796 16.0477 62.1046 16.1317 61.9553 16.225C61.8106 16.3137 61.6823 16.3953 61.5703 16.47C61.463 16.5447 61.351 16.582 61.2343 16.582C61.141 16.582 61.0593 16.5563 60.9893 16.505C60.924 16.4537 60.8703 16.393 60.8283 16.323L60.5833 15.882ZM70.2506 18.451C70.4933 18.451 70.7056 18.4183 70.8876 18.353C71.0743 18.2877 71.2283 18.1967 71.3496 18.08C71.4756 17.9587 71.569 17.814 71.6296 17.646C71.695 17.478 71.7276 17.2937 71.7276 17.093C71.7276 16.6823 71.6016 16.3557 71.3496 16.113C71.1023 15.8657 70.736 15.742 70.2506 15.742C69.77 15.742 69.4036 15.8657 69.1516 16.113C68.9043 16.3557 68.7806 16.6823 68.7806 17.093C68.7806 17.2937 68.811 17.478 68.8716 17.646C68.937 17.8093 69.0303 17.9517 69.1516 18.073C69.2776 18.1897 69.4316 18.283 69.6136 18.353C69.8003 18.4183 70.0126 18.451 70.2506 18.451ZM72.4276 22.371C72.4276 22.203 72.381 22.07 72.2876 21.972C72.1943 21.8693 72.066 21.79 71.9026 21.734C71.744 21.6733 71.5573 21.6313 71.3426 21.608C71.128 21.58 70.9016 21.559 70.6636 21.545C70.4303 21.531 70.19 21.5193 69.9426 21.51C69.6953 21.496 69.4573 21.4727 69.2286 21.44C68.986 21.5613 68.7853 21.7083 68.6266 21.881C68.4726 22.0537 68.3956 22.2567 68.3956 22.49C68.3956 22.6393 68.433 22.7793 68.5076 22.91C68.587 23.0407 68.706 23.1527 68.8646 23.246C69.028 23.344 69.231 23.4187 69.4736 23.47C69.721 23.526 70.015 23.554 70.3556 23.554C70.6916 23.554 70.988 23.5237 71.2446 23.463C71.5013 23.407 71.716 23.3253 71.8886 23.218C72.066 23.1153 72.199 22.9917 72.2876 22.847C72.381 22.7023 72.4276 22.5437 72.4276 22.371ZM73.8136 15.154V15.665C73.8136 15.833 73.7086 15.938 73.4986 15.98L72.7356 16.092C72.801 16.2367 72.8523 16.3907 72.8896 16.554C72.927 16.7127 72.9456 16.8807 72.9456 17.058C72.9456 17.408 72.878 17.7253 72.7426 18.01C72.6073 18.29 72.4206 18.5303 72.1826 18.731C71.9446 18.9317 71.66 19.0857 71.3286 19.193C71.002 19.3003 70.6426 19.354 70.2506 19.354C69.9286 19.354 69.6276 19.319 69.3476 19.249C69.2076 19.333 69.1003 19.4263 69.0256 19.529C68.9556 19.627 68.9206 19.725 68.9206 19.823C68.9206 19.9863 68.9883 20.1077 69.1236 20.187C69.2636 20.2663 69.4433 20.3247 69.6626 20.362C69.8866 20.3947 70.141 20.4157 70.4256 20.425C70.715 20.4343 71.0066 20.4507 71.3006 20.474C71.5993 20.4927 71.891 20.53 72.1756 20.586C72.465 20.6373 72.7193 20.7237 72.9386 20.845C73.1626 20.9617 73.3423 21.125 73.4776 21.335C73.6176 21.5403 73.6876 21.8087 73.6876 22.14C73.6876 22.448 73.6106 22.7467 73.4566 23.036C73.3073 23.3253 73.088 23.582 72.7986 23.806C72.5093 24.03 72.157 24.2097 71.7416 24.345C71.3263 24.4803 70.855 24.548 70.3276 24.548C69.8003 24.548 69.3406 24.4967 68.9486 24.394C68.5613 24.2913 68.237 24.1537 67.9756 23.981C67.719 23.8083 67.5253 23.6077 67.3946 23.379C67.2686 23.1503 67.2056 22.9123 67.2056 22.665C67.2056 22.3197 67.313 22.028 67.5276 21.79C67.7423 21.5473 68.0386 21.3583 68.4166 21.223C68.2113 21.1297 68.048 21.0037 67.9266 20.845C67.8053 20.6817 67.7446 20.467 67.7446 20.201C67.7446 20.0983 67.7633 19.9933 67.8006 19.886C67.838 19.774 67.894 19.6643 67.9686 19.557C68.048 19.445 68.1436 19.34 68.2556 19.242C68.3723 19.144 68.5053 19.0553 68.6546 18.976C68.3046 18.78 68.0293 18.521 67.8286 18.199C67.628 17.8723 67.5276 17.492 67.5276 17.058C67.5276 16.708 67.5953 16.393 67.7306 16.113C67.866 15.833 68.0526 15.5927 68.2906 15.392C68.5333 15.1913 68.8203 15.0373 69.1516 14.93C69.4876 14.8227 69.854 14.769 70.2506 14.769C70.8666 14.769 71.3963 14.8973 71.8396 15.154H73.8136ZM79.6677 17.653C79.6677 17.3823 79.628 17.1327 79.5487 16.904C79.474 16.6753 79.362 16.477 79.2127 16.309C79.0634 16.141 78.8814 16.0103 78.6667 15.917C78.452 15.8237 78.2047 15.777 77.9247 15.777C77.3507 15.777 76.898 15.9427 76.5667 16.274C76.24 16.6053 76.0324 17.065 75.9437 17.653H79.6677ZM80.7947 20.985C80.6267 21.181 80.433 21.3513 80.2137 21.496C79.9944 21.636 79.761 21.7503 79.5137 21.839C79.2664 21.9277 79.0097 21.993 78.7437 22.035C78.4824 22.077 78.2234 22.098 77.9667 22.098C77.4767 22.098 77.0217 22.0163 76.6017 21.853C76.1864 21.685 75.8247 21.4423 75.5167 21.125C75.2134 20.803 74.9754 20.4063 74.8027 19.935C74.6347 19.459 74.5507 18.913 74.5507 18.297C74.5507 17.8023 74.6277 17.3427 74.7817 16.918C74.9357 16.4887 75.155 16.1153 75.4397 15.798C75.729 15.4807 76.0814 15.231 76.4967 15.049C76.912 14.867 77.3787 14.776 77.8967 14.776C78.3307 14.776 78.7297 14.8483 79.0937 14.993C79.4624 15.133 79.7797 15.3383 80.0457 15.609C80.3117 15.8797 80.5194 16.2133 80.6687 16.61C80.8227 17.0067 80.8997 17.4593 80.8997 17.968C80.8997 18.178 80.8764 18.3203 80.8297 18.395C80.783 18.465 80.6967 18.5 80.5707 18.5H75.9087C75.9227 18.9247 75.9834 19.2957 76.0907 19.613C76.198 19.9257 76.345 20.187 76.5317 20.397C76.723 20.607 76.9494 20.7633 77.2107 20.866C77.472 20.9687 77.7637 21.02 78.0857 21.02C78.389 21.02 78.6504 20.985 78.8697 20.915C79.0937 20.845 79.285 20.7703 79.4437 20.691C79.607 20.607 79.7424 20.53 79.8497 20.46C79.9617 20.39 80.0597 20.355 80.1437 20.355C80.2557 20.355 80.342 20.397 80.4027 20.481L80.7947 20.985Z" fill="white"/>
<defs>
<clipPath id="clip0">
<rect width="17" height="17" fill="white" transform="translate(8.93326 8)"/>
</clipPath>
</defs>
</svg>
