<svg width="94" height="33" viewBox="0 0 94 33" fill="none" xmlns="http://www.w3.org/2000/svg">
<rect y="0.5" width="93.9333" height="32" rx="4" fill="#0078FF"/>
<path d="M9.08889 23.3446H10.6444C11.2449 23.3446 11.7333 22.8561 11.7333 22.2557V15.1001C11.7333 14.4997 11.2449 14.0112 10.6444 14.0112H9.08889C8.48844 14.0112 8 14.4997 8 15.1001V22.2557C8 22.8561 8.48844 23.3446 9.08889 23.3446Z" fill="white"/>
<path d="M15.9526 9.5C15.3304 9.5 15.0193 9.81111 15.0193 11.3667C15.0193 12.8451 13.5875 14.0348 12.6667 14.6476V22.3557C13.6628 22.8168 15.6571 23.5 18.7526 23.5H19.7482C20.9615 23.5 21.9944 22.6289 22.1997 21.4342L22.8966 17.3898C23.1579 15.8653 21.9882 14.4778 20.4451 14.4778H17.5082C17.5082 14.4778 17.9748 13.5444 17.9748 11.9889C17.9748 10.1222 16.5748 9.5 15.9526 9.5Z" fill="white"/>
<path d="M33.9263 20.247V21.5H28.1723V11.448H29.6633V20.247H33.9263ZM36.5253 14.388V21.5H35.1603V14.388H36.5253ZM36.7843 12.19C36.7843 12.316 36.7587 12.4373 36.7073 12.554C36.656 12.666 36.586 12.7663 36.4973 12.855C36.4133 12.939 36.313 13.0067 36.1963 13.058C36.0797 13.1047 35.9583 13.128 35.8323 13.128C35.7063 13.128 35.5873 13.1047 35.4753 13.058C35.3633 13.0067 35.263 12.939 35.1743 12.855C35.0903 12.7663 35.0227 12.666 34.9713 12.554C34.9247 12.4373 34.9013 12.316 34.9013 12.19C34.9013 12.0593 34.9247 11.938 34.9713 11.826C35.0227 11.7093 35.0903 11.609 35.1743 11.525C35.263 11.4363 35.3633 11.3687 35.4753 11.322C35.5873 11.2707 35.7063 11.245 35.8323 11.245C35.9583 11.245 36.0797 11.2707 36.1963 11.322C36.313 11.3687 36.4133 11.4363 36.4973 11.525C36.586 11.609 36.656 11.7093 36.7073 11.826C36.7587 11.938 36.7843 12.0593 36.7843 12.19ZM39.8666 11.168V17.209H40.1886C40.2866 17.209 40.3683 17.195 40.4336 17.167C40.499 17.139 40.5666 17.083 40.6366 16.999L42.7646 14.654C42.83 14.5653 42.9023 14.5 42.9816 14.458C43.061 14.4113 43.1613 14.388 43.2826 14.388H44.5286L42.0156 17.139C41.8803 17.3117 41.7356 17.4447 41.5816 17.538C41.6703 17.5987 41.7473 17.6687 41.8126 17.748C41.8826 17.8273 41.9503 17.9137 42.0156 18.007L44.6896 21.5H43.4646C43.3526 21.5 43.2546 21.4813 43.1706 21.444C43.0913 21.4067 43.019 21.339 42.9536 21.241L40.7556 18.385C40.6856 18.2777 40.6156 18.21 40.5456 18.182C40.4756 18.1493 40.3706 18.133 40.2306 18.133H39.8666V21.5H38.5016V11.168H39.8666ZM50.0212 17.153C50.0212 16.8823 49.9816 16.6327 49.9022 16.404C49.8276 16.1753 49.7156 15.977 49.5662 15.809C49.4169 15.641 49.2349 15.5103 49.0202 15.417C48.8056 15.3237 48.5582 15.277 48.2782 15.277C47.7042 15.277 47.2516 15.4427 46.9202 15.774C46.5936 16.1053 46.3859 16.565 46.2972 17.153H50.0212ZM51.1482 20.485C50.9802 20.681 50.7866 20.8513 50.5672 20.996C50.3479 21.136 50.1146 21.2503 49.8672 21.339C49.6199 21.4277 49.3632 21.493 49.0972 21.535C48.8359 21.577 48.5769 21.598 48.3202 21.598C47.8302 21.598 47.3752 21.5163 46.9552 21.353C46.5399 21.185 46.1782 20.9423 45.8702 20.625C45.5669 20.303 45.3289 19.9063 45.1562 19.435C44.9882 18.959 44.9042 18.413 44.9042 17.797C44.9042 17.3023 44.9812 16.8427 45.1352 16.418C45.2892 15.9887 45.5086 15.6153 45.7932 15.298C46.0826 14.9807 46.4349 14.731 46.8502 14.549C47.2656 14.367 47.7322 14.276 48.2502 14.276C48.6842 14.276 49.0832 14.3483 49.4472 14.493C49.8159 14.633 50.1332 14.8383 50.3992 15.109C50.6652 15.3797 50.8729 15.7133 51.0222 16.11C51.1762 16.5067 51.2532 16.9593 51.2532 17.468C51.2532 17.678 51.2299 17.8203 51.1832 17.895C51.1366 17.965 51.0502 18 50.9242 18H46.2622C46.2762 18.4247 46.3369 18.7957 46.4442 19.113C46.5516 19.4257 46.6986 19.687 46.8852 19.897C47.0766 20.107 47.3029 20.2633 47.5642 20.366C47.8256 20.4687 48.1172 20.52 48.4392 20.52C48.7426 20.52 49.0039 20.485 49.2232 20.415C49.4472 20.345 49.6386 20.2703 49.7972 20.191C49.9606 20.107 50.0959 20.03 50.2032 19.96C50.3152 19.89 50.4132 19.855 50.4972 19.855C50.6092 19.855 50.6956 19.897 50.7562 19.981L51.1482 20.485ZM59.5864 16.621C59.9644 16.621 60.2957 16.572 60.5804 16.474C60.8697 16.376 61.1101 16.2383 61.3014 16.061C61.4974 15.879 61.6444 15.6643 61.7424 15.417C61.8404 15.165 61.8894 14.8873 61.8894 14.584C61.8894 13.9727 61.6981 13.492 61.3154 13.142C60.9374 12.792 60.3611 12.617 59.5864 12.617H58.0324V16.621H59.5864ZM59.5864 11.448C60.2304 11.448 60.7904 11.5227 61.2664 11.672C61.7424 11.8213 62.1367 12.0337 62.4494 12.309C62.7621 12.5797 62.9931 12.9087 63.1424 13.296C63.2964 13.6833 63.3734 14.1127 63.3734 14.584C63.3734 15.0553 63.2917 15.4893 63.1284 15.886C62.9651 16.278 62.7247 16.6163 62.4074 16.901C62.0901 17.1857 61.6934 17.4073 61.2174 17.566C60.7461 17.72 60.2024 17.797 59.5864 17.797H58.0324V21.5H56.5414V11.448H59.5864ZM68.3412 18.343C67.7859 18.3617 67.3145 18.406 66.9272 18.476C66.5399 18.5413 66.2249 18.63 65.9822 18.742C65.7395 18.854 65.5645 18.987 65.4572 19.141C65.3499 19.2903 65.2962 19.4583 65.2962 19.645C65.2962 19.8223 65.3242 19.9763 65.3802 20.107C65.4409 20.233 65.5202 20.338 65.6182 20.422C65.7209 20.5013 65.8399 20.5597 65.9752 20.597C66.1105 20.6343 66.2575 20.653 66.4162 20.653C66.6262 20.653 66.8175 20.632 66.9902 20.59C67.1675 20.548 67.3332 20.4897 67.4872 20.415C67.6412 20.3357 67.7882 20.24 67.9282 20.128C68.0682 20.016 68.2059 19.8877 68.3412 19.743V18.343ZM64.3372 15.382C64.7339 15.004 65.1632 14.7217 65.6252 14.535C66.0919 14.3483 66.6029 14.255 67.1582 14.255C67.5642 14.255 67.9235 14.3227 68.2362 14.458C68.5489 14.5887 68.8125 14.773 69.0272 15.011C69.2419 15.249 69.4029 15.5337 69.5102 15.865C69.6222 16.1963 69.6782 16.5627 69.6782 16.964V21.5H69.0692C68.9339 21.5 68.8312 21.479 68.7612 21.437C68.6912 21.3903 68.6352 21.3063 68.5932 21.185L68.4462 20.562C68.2642 20.73 68.0845 20.8793 67.9072 21.01C67.7299 21.136 67.5432 21.2457 67.3472 21.339C67.1559 21.4277 66.9505 21.4953 66.7312 21.542C66.5119 21.5887 66.2692 21.612 66.0032 21.612C65.7232 21.612 65.4595 21.5747 65.2122 21.5C64.9695 21.4207 64.7572 21.3017 64.5752 21.143C64.3932 20.9843 64.2485 20.786 64.1412 20.548C64.0385 20.31 63.9872 20.0323 63.9872 19.715C63.9872 19.435 64.0619 19.1667 64.2112 18.91C64.3652 18.6487 64.6125 18.4153 64.9532 18.21C65.2985 18.0047 65.7465 17.8367 66.2972 17.706C66.8525 17.5753 67.5339 17.5007 68.3412 17.482V16.964C68.3412 16.4273 68.2269 16.026 67.9982 15.76C67.7695 15.494 67.4335 15.361 66.9902 15.361C66.6915 15.361 66.4395 15.3983 66.2342 15.473C66.0335 15.5477 65.8585 15.6317 65.7092 15.725C65.5645 15.8137 65.4362 15.8953 65.3242 15.97C65.2169 16.0447 65.1049 16.082 64.9882 16.082C64.8949 16.082 64.8132 16.0563 64.7432 16.005C64.6779 15.9537 64.6242 15.893 64.5822 15.823L64.3372 15.382ZM74.0045 17.951C74.2472 17.951 74.4595 17.9183 74.6415 17.853C74.8282 17.7877 74.9822 17.6967 75.1035 17.58C75.2295 17.4587 75.3229 17.314 75.3835 17.146C75.4489 16.978 75.4815 16.7937 75.4815 16.593C75.4815 16.1823 75.3555 15.8557 75.1035 15.613C74.8562 15.3657 74.4899 15.242 74.0045 15.242C73.5239 15.242 73.1575 15.3657 72.9055 15.613C72.6582 15.8557 72.5345 16.1823 72.5345 16.593C72.5345 16.7937 72.5649 16.978 72.6255 17.146C72.6909 17.3093 72.7842 17.4517 72.9055 17.573C73.0315 17.6897 73.1855 17.783 73.3675 17.853C73.5542 17.9183 73.7665 17.951 74.0045 17.951ZM76.1815 21.871C76.1815 21.703 76.1349 21.57 76.0415 21.472C75.9482 21.3693 75.8199 21.29 75.6565 21.234C75.4979 21.1733 75.3112 21.1313 75.0965 21.108C74.8819 21.08 74.6555 21.059 74.4175 21.045C74.1842 21.031 73.9439 21.0193 73.6965 21.01C73.4492 20.996 73.2112 20.9727 72.9825 20.94C72.7399 21.0613 72.5392 21.2083 72.3805 21.381C72.2265 21.5537 72.1495 21.7567 72.1495 21.99C72.1495 22.1393 72.1869 22.2793 72.2615 22.41C72.3409 22.5407 72.4599 22.6527 72.6185 22.746C72.7819 22.844 72.9849 22.9187 73.2275 22.97C73.4749 23.026 73.7689 23.054 74.1095 23.054C74.4455 23.054 74.7419 23.0237 74.9985 22.963C75.2552 22.907 75.4699 22.8253 75.6425 22.718C75.8199 22.6153 75.9529 22.4917 76.0415 22.347C76.1349 22.2023 76.1815 22.0437 76.1815 21.871ZM77.5675 14.654V15.165C77.5675 15.333 77.4625 15.438 77.2525 15.48L76.4895 15.592C76.5549 15.7367 76.6062 15.8907 76.6435 16.054C76.6809 16.2127 76.6995 16.3807 76.6995 16.558C76.6995 16.908 76.6319 17.2253 76.4965 17.51C76.3612 17.79 76.1745 18.0303 75.9365 18.231C75.6985 18.4317 75.4139 18.5857 75.0825 18.693C74.7559 18.8003 74.3965 18.854 74.0045 18.854C73.6825 18.854 73.3815 18.819 73.1015 18.749C72.9615 18.833 72.8542 18.9263 72.7795 19.029C72.7095 19.127 72.6745 19.225 72.6745 19.323C72.6745 19.4863 72.7422 19.6077 72.8775 19.687C73.0175 19.7663 73.1972 19.8247 73.4165 19.862C73.6405 19.8947 73.8949 19.9157 74.1795 19.925C74.4689 19.9343 74.7605 19.9507 75.0545 19.974C75.3532 19.9927 75.6449 20.03 75.9295 20.086C76.2189 20.1373 76.4732 20.2237 76.6925 20.345C76.9165 20.4617 77.0962 20.625 77.2315 20.835C77.3715 21.0403 77.4415 21.3087 77.4415 21.64C77.4415 21.948 77.3645 22.2467 77.2105 22.536C77.0612 22.8253 76.8419 23.082 76.5525 23.306C76.2632 23.53 75.9109 23.7097 75.4955 23.845C75.0802 23.9803 74.6089 24.048 74.0815 24.048C73.5542 24.048 73.0945 23.9967 72.7025 23.894C72.3152 23.7913 71.9909 23.6537 71.7295 23.481C71.4729 23.3083 71.2792 23.1077 71.1485 22.879C71.0225 22.6503 70.9595 22.4123 70.9595 22.165C70.9595 21.8197 71.0669 21.528 71.2815 21.29C71.4962 21.0473 71.7925 20.8583 72.1705 20.723C71.9652 20.6297 71.8019 20.5037 71.6805 20.345C71.5592 20.1817 71.4985 19.967 71.4985 19.701C71.4985 19.5983 71.5172 19.4933 71.5545 19.386C71.5919 19.274 71.6479 19.1643 71.7225 19.057C71.8019 18.945 71.8975 18.84 72.0095 18.742C72.1262 18.644 72.2592 18.5553 72.4085 18.476C72.0585 18.28 71.7832 18.021 71.5825 17.699C71.3819 17.3723 71.2815 16.992 71.2815 16.558C71.2815 16.208 71.3492 15.893 71.4845 15.613C71.6199 15.333 71.8065 15.0927 72.0445 14.892C72.2872 14.6913 72.5742 14.5373 72.9055 14.43C73.2415 14.3227 73.6079 14.269 74.0045 14.269C74.6205 14.269 75.1502 14.3973 75.5935 14.654H77.5675ZM83.4216 17.153C83.4216 16.8823 83.382 16.6327 83.3026 16.404C83.228 16.1753 83.116 15.977 82.9666 15.809C82.8173 15.641 82.6353 15.5103 82.4206 15.417C82.206 15.3237 81.9586 15.277 81.6786 15.277C81.1046 15.277 80.652 15.4427 80.3206 15.774C79.994 16.1053 79.7863 16.565 79.6976 17.153H83.4216ZM84.5486 20.485C84.3806 20.681 84.187 20.8513 83.9676 20.996C83.7483 21.136 83.515 21.2503 83.2676 21.339C83.0203 21.4277 82.7636 21.493 82.4976 21.535C82.2363 21.577 81.9773 21.598 81.7206 21.598C81.2306 21.598 80.7756 21.5163 80.3556 21.353C79.9403 21.185 79.5786 20.9423 79.2706 20.625C78.9673 20.303 78.7293 19.9063 78.5566 19.435C78.3886 18.959 78.3046 18.413 78.3046 17.797C78.3046 17.3023 78.3816 16.8427 78.5356 16.418C78.6896 15.9887 78.909 15.6153 79.1936 15.298C79.483 14.9807 79.8353 14.731 80.2506 14.549C80.666 14.367 81.1326 14.276 81.6506 14.276C82.0846 14.276 82.4836 14.3483 82.8476 14.493C83.2163 14.633 83.5336 14.8383 83.7996 15.109C84.0656 15.3797 84.2733 15.7133 84.4226 16.11C84.5766 16.5067 84.6536 16.9593 84.6536 17.468C84.6536 17.678 84.6303 17.8203 84.5836 17.895C84.537 17.965 84.4506 18 84.3246 18H79.6626C79.6766 18.4247 79.7373 18.7957 79.8446 19.113C79.952 19.4257 80.099 19.687 80.2856 19.897C80.477 20.107 80.7033 20.2633 80.9646 20.366C81.226 20.4687 81.5176 20.52 81.8396 20.52C82.143 20.52 82.4043 20.485 82.6236 20.415C82.8476 20.345 83.039 20.2703 83.1976 20.191C83.361 20.107 83.4963 20.03 83.6036 19.96C83.7156 19.89 83.8136 19.855 83.8976 19.855C84.0096 19.855 84.096 19.897 84.1566 19.981L84.5486 20.485Z" fill="white"/>
</svg>
