<svg width="32" height="32" viewBox="0 0 32 32" fill="none" xmlns="http://www.w3.org/2000/svg">
<path d="M7.00011 7.49705L7.00011 7.4969C7.00007 7.35161 7.00095 7.25443 7.01172 7.17121C7.02075 7.10141 7.03328 7.07542 7.03619 7.07014C7.03846 7.06837 7.04869 7.06093 7.0728 7.05129C7.12844 7.02903 7.24613 6.9999 7.46677 6.9999H24.9979C25 7.13115 25 7.29291 25 7.49705V21.1524C24.7822 21.1595 24.4652 21.1599 24 21.1599H10.1334H9.87986L9.70316 21.3417L7.00011 24.1219V7.49705ZM24.9789 6.67542C24.979 6.67525 24.9797 6.67798 24.9808 6.68417C24.9793 6.67869 24.9788 6.6756 24.9789 6.67542Z" stroke="#222222" stroke-width="1.2"/>
<rect x="10.6667" y="10.6665" width="6.4" height="1.06667" rx="0.533333" fill="#222222"/>
<rect x="10.6667" y="12.7998" width="11.7333" height="1.06667" rx="0.533333" fill="#222222"/>
<rect x="10.6667" y="16" width="11.7333" height="1.06667" rx="0.533334" fill="#222222"/>
</svg>
