<svg width="16" height="16" viewBox="0 0 16 16" fill="none" xmlns="http://www.w3.org/2000/svg">
<path d="M15.6521 7.87979L8.45171 0.227748C8.38423 0.156015 8.30197 0.0986999 8.21021 0.0594798C8.11845 0.0202597 8.01922 0 7.91888 0C7.81855 0 7.71932 0.0202597 7.62756 0.0594798C7.5358 0.0986999 7.45354 0.156015 7.38606 0.227748L0.185666 7.87979C0.0924014 7.97972 0.0310656 8.10358 0.00906199 8.23645C-0.0129416 8.36931 0.00532746 8.50548 0.0616642 8.62853C0.118001 8.75158 0.209997 8.85625 0.326549 8.9299C0.443101 9.00355 0.579226 9.04304 0.718495 9.0436H2.15857V15.3044C2.15857 15.4889 2.23443 15.6658 2.36947 15.7963C2.5045 15.9267 2.68765 16 2.87861 16H6.47881V11.8262H9.35896V16H12.9592C13.1501 16 13.3333 15.9267 13.4683 15.7963C13.6033 15.6658 13.6792 15.4889 13.6792 15.3044V9.0436H15.1193C15.259 9.04395 15.3957 9.00501 15.5129 8.93152C15.63 8.85804 15.7225 8.75318 15.779 8.62977C15.8355 8.50636 15.8536 8.36972 15.8311 8.23654C15.8085 8.10336 15.7463 7.9794 15.6521 7.87979Z" fill="#7043A9"/>
</svg>
