<svg width="25" height="18" viewBox="0 0 25 18" fill="none" xmlns="http://www.w3.org/2000/svg">
<path fill-rule="evenodd" clip-rule="evenodd" d="M6.16908 17.3599C2.86598 17.3599 6.00815e-05 15.224 6.00815e-05 10.6796C6.00815e-05 4.18103 5.68333 0.363707 8.8407 0.000152588L9.56932 1.77248C7.72347 2.90859 6.16908 4.86269 6.3148 5.9988C8.40352 6.13513 11.8038 7.22579 11.8038 11.4521C11.8523 14.6787 9.90935 17.3599 6.16908 17.3599Z" fill="#222222"/>
<path fill-rule="evenodd" clip-rule="evenodd" d="M19.3644 17.3599C16.0613 17.3599 13.1954 15.224 13.1954 10.6796C13.1954 4.18103 18.8787 0.363707 22.036 0.000152588L22.7647 1.77248C20.9188 2.90859 19.3644 4.86269 19.5101 5.9988C21.5989 6.13513 24.9991 7.22579 24.9991 11.4521C25.0477 14.6787 23.1047 17.3599 19.3644 17.3599Z" fill="#222222"/>
</svg>
