<svg width="32" height="32" viewBox="0 0 32 32" fill="none" xmlns="http://www.w3.org/2000/svg">
<path fill-rule="evenodd" clip-rule="evenodd" d="M14.2222 4.75C8.99086 4.75 4.75 8.99086 4.75 14.2222C4.75 19.4536 8.99086 23.6944 14.2222 23.6944C19.4536 23.6944 23.6944 19.4536 23.6944 14.2222C23.6944 8.99086 19.4536 4.75 14.2222 4.75ZM3.25 14.2222C3.25 8.16243 8.16243 3.25 14.2222 3.25C20.282 3.25 25.1944 8.16243 25.1944 14.2222C25.1944 20.282 20.282 25.1944 14.2222 25.1944C8.16243 25.1944 3.25 20.282 3.25 14.2222Z" fill="#4F4F4F"/>
<path fill-rule="evenodd" clip-rule="evenodd" d="M20.9114 20.9116C21.2043 20.6187 21.6792 20.6187 21.9721 20.9116L27.5304 26.4699C27.8233 26.7628 27.8233 27.2377 27.5304 27.5306C27.2375 27.8235 26.7626 27.8235 26.4697 27.5306L20.9114 21.9722C20.6185 21.6793 20.6185 21.2045 20.9114 20.9116Z" fill="#4F4F4F"/>
</svg>
