<svg width="20" height="14" viewBox="0 0 20 14" fill="none" xmlns="http://www.w3.org/2000/svg">
<path d="M19.8333 3C19.8333 3 19.6667 1.58333 19 1C18.25 0.166667 17.4167 0.166667 17 0.166667C14.1667 3.72529e-08 10 0 10 0C10 0 5.83333 3.72529e-08 3 0.166667C2.58333 0.25 1.75 0.25 1 1C0.416667 1.58333 0.166667 3 0.166667 3C0.166667 3 0 4.58333 0 6.25V7.75C0 9.33333 0.166667 11 0.166667 11C0.166667 11 0.333333 12.4167 1 13C1.75 13.8333 2.75 13.75 3.16667 13.8333C4.75 14 10 14 10 14C10 14 14.1667 14 17 13.75C17.4167 13.6667 18.25 13.6667 19 12.9167C19.5833 12.3333 19.8333 10.9167 19.8333 10.9167C19.8333 10.9167 20 9.33333 20 7.66667V6.16667C20 4.58333 19.8333 3 19.8333 3ZM7.91667 9.58333V4L13.3333 6.83333L7.91667 9.58333Z" fill="black"/>
</svg>
