<svg width="64" height="61" viewBox="0 0 64 61" fill="none" xmlns="http://www.w3.org/2000/svg">
<path d="M29.6528 50.4277V47.321C29.6528 46.801 29.6109 46.2771 29.5281 45.764C29.3725 44.8001 29.0733 43.8647 28.6383 42.9838C28.4085 42.5185 27.8395 42.325 27.3676 42.5515C26.8956 42.7781 26.6994 43.3393 26.9291 43.8048C27.2818 44.5192 27.5245 45.2776 27.6507 46.0587C27.7177 46.4747 27.7518 46.8993 27.7518 47.321V49.5788C27.67 49.5723 13.9384 49.5682 13.9384 49.5682L11.0947 47.8277C8.28994 46.1112 5.95913 43.7001 4.35415 40.855C2.74916 38.0098 1.90104 34.7853 1.90104 31.5296V22.1008C1.90104 21.2075 2.63789 20.4807 3.54379 20.4807C4.4497 20.4807 5.18655 21.2075 5.18655 22.1008V31.8727C5.18655 33.1076 5.69767 34.3135 6.58888 35.181L6.87657 35.4608C7.00597 36.2313 7.3896 36.966 8.02011 37.5357L15.9288 44.6835C16.1112 44.8483 16.3412 44.9297 16.5706 44.9297C16.8278 44.9297 17.0843 44.8273 17.2716 44.6256C17.6263 44.2438 17.6001 43.6508 17.213 43.301L9.3042 36.1532C8.60259 35.5192 8.53504 34.4615 9.15009 33.7453C9.76438 33.0306 10.8321 32.922 11.5814 33.4983L17.8526 38.324C17.9441 38.3943 18.048 38.4477 18.1589 38.4812L21.9904 39.6383C22.9532 39.9291 23.8439 40.3887 24.6379 41.0042C25.0504 41.3242 25.6481 41.2536 25.9725 40.8466C26.297 40.4396 26.2254 39.8501 25.8126 39.5302C24.8336 38.7711 23.7349 38.2043 22.547 37.8455L19.3504 36.8802V31.8267C19.3504 29.5481 17.7029 27.6421 15.5211 27.2062V26.5347C15.5211 24.8711 14.1488 23.5176 12.4621 23.5176C12.0524 23.5176 11.6616 23.598 11.3041 23.7427V23.5773C11.3041 21.9137 9.9318 20.5602 8.24507 20.5602C7.74903 20.5602 7.28061 20.678 6.86593 20.8856C6.36431 19.5556 5.06437 18.6055 3.54341 18.6055C1.58978 18.6056 0 20.1736 0 22.1008V31.5296C0 35.1036 0.931257 38.6435 2.69302 41.7666C4.45465 44.8897 7.01345 47.5366 10.0925 49.421L11.4937 50.2786C10.8149 50.8386 10.3822 51.6795 10.3822 52.6185V59.4136C10.3822 59.9313 10.8077 60.3511 11.3327 60.3511C11.8578 60.3511 12.2833 59.9313 12.2833 59.4136V52.6185C12.2833 51.9705 12.8178 51.4432 13.4748 51.4432H27.504C28.161 51.4432 28.6955 51.9705 28.6955 52.6185V59.4136C28.6955 59.9313 29.1209 60.3511 29.646 60.3511C30.1711 60.3511 30.5965 59.9313 30.5965 59.4136V52.6185C30.5966 51.7593 30.2342 50.9827 29.6528 50.4277ZM17.4498 31.8267V35.6358L15.5215 34.1521V29.1471C16.6431 29.5353 17.4498 30.5896 17.4498 31.8267ZM12.4625 25.3926C13.101 25.3926 13.6205 25.905 13.6205 26.5347V32.6892L12.7509 32.0201C12.3099 31.6807 11.8155 31.4558 11.3046 31.3412V26.5346C11.3045 25.905 11.824 25.3926 12.4625 25.3926ZM8.24558 22.4353C8.88407 22.4353 9.40357 22.9477 9.40357 23.5775V31.4168C8.7619 31.6147 8.16763 31.9891 7.70011 32.5333C7.56615 32.6892 7.44879 32.8533 7.34588 33.023C7.17973 32.6637 7.08772 32.2715 7.08772 31.8727V23.5773C7.08759 22.9476 7.60695 22.4353 8.24558 22.4353Z" fill="#B76E23"/>
<path d="M59.8185 18.6057C58.2975 18.6057 56.9976 19.5558 56.496 20.8857C56.0813 20.6782 55.6129 20.5603 55.1168 20.5603C53.4301 20.5603 52.0578 21.9138 52.0578 23.5775V23.7428C51.7004 23.5981 51.3095 23.5177 50.8998 23.5177C49.2131 23.5177 47.8408 24.8712 47.8408 26.5348V27.2063C45.659 27.6423 44.0114 29.5482 44.0114 31.8268V36.8803L40.8149 37.8456C37.1727 38.9456 34.4326 42.0538 33.8343 45.764C33.7514 46.2771 33.7094 46.801 33.7094 47.321V50.4277C33.1281 50.9826 32.7656 51.7593 32.7656 52.6183V59.4135C32.7656 59.9312 33.1911 60.351 33.7161 60.351C34.2412 60.351 34.6667 59.9312 34.6667 59.4135V52.6183C34.6667 51.9703 35.2012 51.4431 35.8581 51.4431H49.8873C50.5444 51.4431 51.0789 51.9703 51.0789 52.6183V59.4135C51.0789 59.9312 51.5043 60.351 52.0294 60.351C52.5545 60.351 52.9799 59.9312 52.9799 59.4135V52.6183C52.9799 51.6793 52.5472 50.8385 51.8684 50.2785L53.2696 49.421C55.0391 48.3381 56.6361 47.0071 58.0163 45.4651C58.3638 45.077 58.3264 44.4845 57.9329 44.1418C57.5394 43.7992 56.9385 43.8361 56.5913 44.2242C55.3338 45.6291 53.8791 46.8415 52.2674 47.8278L49.4237 49.5682C49.4237 49.5682 35.6922 49.5725 35.6103 49.5788V47.321C35.6103 46.8993 35.6444 46.4746 35.7116 46.0586C36.1968 43.0503 38.4183 40.5302 41.3715 39.6385L45.203 38.4813C45.3139 38.4478 45.4178 38.3945 45.5093 38.3241L51.7805 33.4985C52.5295 32.922 53.5975 33.0307 54.2118 33.7455C54.827 34.4616 54.7593 35.5192 54.0575 36.1533L46.1488 43.3011C45.7618 43.6508 45.7355 44.244 46.0903 44.6257C46.4448 45.0075 47.046 45.0333 47.4333 44.6836L55.3419 37.5358C55.9725 36.966 56.3562 36.2313 56.4856 35.4608L56.7733 35.181C57.6643 34.3136 58.1755 33.1077 58.1755 31.8728V22.101C58.1755 21.2076 58.9123 20.4808 59.8182 20.4808C60.7241 20.4808 61.461 21.2076 61.461 22.101V31.5297C61.461 34.8916 60.5578 38.2098 58.8493 41.126C58.5866 41.5742 58.7421 42.1477 59.1966 42.4068C59.3465 42.4922 59.51 42.5328 59.6713 42.5328C59.9997 42.5328 60.3191 42.3648 60.4951 42.0642C62.3707 38.8633 63.362 35.2206 63.362 31.5298V22.1011C63.3623 20.1737 61.7725 18.6057 59.8185 18.6057ZM47.8408 29.1472V34.1522L45.9125 35.636V31.8268C45.9125 30.5897 46.7191 29.5355 47.8408 29.1472ZM50.6113 32.0202L49.7418 32.6893V26.5348C49.7418 25.9051 50.2613 25.3927 50.8998 25.3927C51.5383 25.3927 52.0578 25.9051 52.0578 26.5348V31.3415C51.5468 31.456 51.0525 31.6808 50.6113 32.0202ZM53.9588 31.417V23.5776C53.9588 22.9478 54.4783 22.4355 55.1168 22.4355C55.7545 22.4355 56.2733 22.9465 56.2748 23.575V31.8728C56.2748 32.2715 56.1828 32.6638 56.0166 33.023C55.9137 32.8533 55.7964 32.6893 55.6624 32.5333C55.1948 31.9892 54.6005 31.6148 53.9588 31.417Z" fill="#B76E23"/>
<path d="M49.4823 20.0925C51.5949 17.9999 52.8189 15.2224 52.9292 12.2714C53.0396 9.32052 52.0261 6.46152 50.0738 4.21927C50.0602 4.20365 50.0462 4.1884 50.0312 4.17265C49.6881 3.78052 49.0879 3.7369 48.6907 4.07515C48.2932 4.4134 48.2489 5.00527 48.5919 5.3974C48.6056 5.41315 48.6198 5.42852 48.6333 5.44277C50.2711 7.3239 51.1222 9.72452 51.0295 12.2023C50.937 14.6801 49.909 17.0124 48.1353 18.7695L32.331 34.4246C32.1405 34.6133 31.887 34.7171 31.6171 34.7171C31.3471 34.7171 31.0937 34.6133 30.9032 34.4246L15.0989 18.7695C13.3252 17.0124 12.2973 14.6801 12.2047 12.2023C12.1122 9.72452 12.9631 7.3239 14.6009 5.44277C16.2453 3.55402 18.5324 2.3604 21.0407 2.0819C23.5483 1.80302 26.0478 2.4654 28.077 3.94627L30.6092 5.79427C31.2121 6.23427 32.0221 6.2344 32.625 5.79427L35.1572 3.94627C38.1928 1.73102 42.3198 1.4089 45.6714 3.1249C46.1373 3.3634 46.711 3.1844 46.9529 2.72477C47.1949 2.26515 47.0133 1.69927 46.5474 1.46077C44.6025 0.465025 42.4169 0.0201494 40.2253 0.174774C37.9828 0.333024 35.8393 1.1159 34.0265 2.4389L31.617 4.19727L29.2075 2.4389C26.7911 0.675524 23.8156 -0.113226 20.8281 0.218774C17.8409 0.550524 15.1171 1.9719 13.1586 4.22127C11.2082 6.46152 10.1946 9.32052 10.305 12.2714C10.4153 15.2223 11.6393 17.9999 13.7519 20.0925L29.5561 35.7476C30.1059 36.2923 30.8378 36.5923 31.6171 36.5923C32.3964 36.5923 33.1283 36.2924 33.6781 35.7478L49.4823 20.0925Z" fill="#B76E23"/>
</svg>
