<svg width="24" height="24" viewBox="0 0 24 24" fill="none" xmlns="http://www.w3.org/2000/svg">
<path d="M15.4423 15.4599C15.4845 15.3912 15.5266 15.3239 15.5688 15.254C17.4649 12.1148 18.419 9.36879 18.4054 7.09308C18.3969 5.52739 17.7691 4.02868 16.6591 2.92444C15.5491 1.82021 14.0472 1.20022 12.4815 1.19995C10.9157 1.19969 9.41358 1.81917 8.30321 2.92303C7.19283 4.02689 6.56452 5.52538 6.55557 7.09107C6.54169 9.36879 7.49604 12.1152 9.39213 15.254C9.43429 15.3239 9.47645 15.3912 9.51861 15.4599C5.52676 15.9532 2.88037 17.3799 2.88037 19.0737C2.88037 21.2003 7.09634 22.8661 12.4804 22.8661C17.8644 22.8661 22.0804 21.2003 22.0804 19.0737C22.0804 17.3799 19.434 15.9532 15.4423 15.4599ZM7.19435 7.09308C7.19039 6.39628 7.32423 5.70558 7.58817 5.06069C7.85211 4.41581 8.24094 3.82947 8.7323 3.3354C9.22367 2.84133 9.80786 2.44929 10.4513 2.18181C11.0947 1.91433 11.7847 1.7767 12.4815 1.77683C13.1783 1.77696 13.8682 1.91485 14.5115 2.18258C15.1548 2.4503 15.7389 2.84257 16.23 3.33683C16.7212 3.83108 17.1098 4.41757 17.3735 5.06255C17.6372 5.70754 17.7708 6.39829 17.7666 7.09508C17.794 11.6319 13.5524 17.2275 12.4804 18.5693C11.4083 17.2275 7.16661 11.6317 7.19435 7.09308ZM12.4804 22.2273C7.11988 22.2273 3.51915 20.5966 3.51915 19.0737C3.51915 17.7232 6.18909 16.4666 9.89494 16.059C10.6117 17.1781 11.3937 18.254 12.2371 19.2811C12.267 19.3164 12.3043 19.3447 12.3463 19.3642C12.3883 19.3836 12.4341 19.3937 12.4804 19.3937C12.5267 19.3937 12.5724 19.3836 12.6144 19.3642C12.6564 19.3447 12.6937 19.3164 12.7237 19.2811C13.5671 18.254 14.3492 17.1781 15.066 16.059C18.7709 16.4666 21.4418 17.7224 21.4418 19.0737C21.4416 20.5966 17.8409 22.2273 12.4804 22.2273Z" fill="#26282B"/>
<path d="M9.8689 20.3774C8.45153 20.196 7.31377 19.8766 6.66623 19.4785C6.63049 19.4557 6.59056 19.4402 6.54877 19.4329C6.50698 19.4257 6.46417 19.4268 6.42283 19.4363C6.38149 19.4458 6.34245 19.4634 6.30799 19.4881C6.27353 19.5128 6.24434 19.5442 6.22212 19.5803C6.19991 19.6164 6.18511 19.6566 6.1786 19.6986C6.17208 19.7405 6.17398 19.7832 6.18418 19.8244C6.19438 19.8656 6.21267 19.9043 6.238 19.9383C6.26332 19.9724 6.29517 20.001 6.33169 20.0226C7.05497 20.4672 8.28253 20.8183 9.78787 21.0109C9.80143 21.0126 9.81508 21.0135 9.82875 21.0134C9.90971 21.013 9.98749 20.9819 10.0464 20.9263C10.1053 20.8708 10.1409 20.7949 10.146 20.7142C10.1511 20.6334 10.1253 20.5536 10.0739 20.4911C10.0224 20.4286 9.94917 20.3879 9.8689 20.3774Z" fill="#26282B"/>
<path d="M13.0168 20.53C12.5716 20.5402 12.108 20.5378 11.6556 20.5212C11.6137 20.5197 11.5718 20.5264 11.5325 20.541C11.4931 20.5556 11.4571 20.5779 11.4263 20.6064C11.3956 20.635 11.3707 20.6693 11.3533 20.7075C11.3358 20.7457 11.326 20.7869 11.3244 20.8288C11.3229 20.8708 11.3296 20.9126 11.3442 20.952C11.3589 20.9913 11.3811 21.0274 11.4097 21.0581C11.4382 21.0889 11.4726 21.1137 11.5107 21.1312C11.5489 21.1487 11.5901 21.1585 11.6321 21.16C11.9128 21.1702 12.1978 21.1755 12.4804 21.1755C12.6662 21.1755 12.8499 21.1733 13.0317 21.1689C13.1164 21.167 13.1968 21.1315 13.2553 21.0702C13.3138 21.0089 13.3456 20.9269 13.3436 20.8422C13.3432 20.8001 13.3343 20.7585 13.3176 20.7199C13.3008 20.6812 13.2765 20.6463 13.246 20.6172C13.2155 20.5881 13.1796 20.5654 13.1402 20.5504C13.1008 20.5354 13.0589 20.5285 13.0168 20.53Z" fill="#26282B"/>
<path d="M15.1775 7.09312C15.1774 6.55969 15.0191 6.03826 14.7227 5.59476C14.4263 5.15127 14.005 4.80563 13.5122 4.60155C13.0193 4.39747 12.477 4.34412 11.9539 4.44825C11.4307 4.55237 10.9501 4.80929 10.573 5.18653C10.1958 5.56376 9.939 6.04436 9.83498 6.56755C9.73096 7.09075 9.78442 7.63303 9.9886 8.12584C10.1928 8.61866 10.5385 9.03985 10.9821 9.33618C11.4256 9.63251 11.9471 9.79065 12.4805 9.79061C13.1956 9.78974 13.8812 9.50525 14.3868 8.99954C14.8924 8.49384 15.1767 7.80823 15.1775 7.09312ZM10.4222 7.09312C10.4222 6.68604 10.543 6.28811 10.7692 5.94967C10.9955 5.61123 11.317 5.34746 11.6931 5.19172C12.0692 5.03599 12.483 4.99528 12.8823 5.07474C13.2816 5.1542 13.6483 5.35027 13.9361 5.63815C14.2239 5.92603 14.4199 6.29279 14.4993 6.69206C14.5787 7.09133 14.5379 7.50518 14.3821 7.88127C14.2263 8.25736 13.9625 8.57881 13.624 8.80496C13.2855 9.03112 12.8876 9.15183 12.4805 9.15183C11.9347 9.15125 11.4115 8.93415 11.0256 8.54819C10.6397 8.16222 10.4227 7.63892 10.4222 7.09312Z" fill="#26282B"/>
</svg>
