<svg width="25" height="25" viewBox="0 0 25 25" fill="none" xmlns="http://www.w3.org/2000/svg">
<g clip-path="url(#clip0)">
<path d="M0 23.9585V24.4794C0 24.767 0.233203 25.0002 0.52085 25.0002H24.4792C24.7668 25.0002 25 24.767 25 24.4793V23.9585H0V23.9585Z" fill="#089256"/>
<path d="M9.89595 9.375H1.5626C1.27495 9.375 1.04175 9.6082 1.04175 9.89585V24.4792C1.04175 24.7668 1.27495 25 1.5626 25H9.89595C10.1836 25 10.4168 24.7668 10.4168 24.4792V9.89585C10.4167 9.6082 10.1836 9.375 9.89595 9.375ZM9.3751 23.9583H2.08345V10.4167H9.3751V23.9583Z" fill="#089256"/>
<path d="M23.4375 3.125H15.1041C14.8165 3.125 14.5833 3.3582 14.5833 3.64585V24.4792C14.5833 24.7668 14.8165 25 15.1041 25H23.4375C23.7251 25 23.9583 24.7668 23.9583 24.4792V3.64585C23.9583 3.3582 23.7251 3.125 23.4375 3.125ZM22.9166 23.9583H15.625V4.16665H22.9166V23.9583Z" fill="#089256"/>
<path d="M19.7916 0H5.7291C5.44146 0 5.20825 0.233203 5.20825 0.52085V8.33335H6.24995V1.04165H19.2708V2.0833H20.3125V0.520801C20.3125 0.233203 20.0792 0 19.7916 0Z" fill="#089256"/>
<path d="M4.16665 11.4585H3.125V20.8335H4.16665V11.4585Z" fill="#089256"/>
<path d="M6.2499 11.4585H5.20825V20.8335H6.2499V11.4585Z" fill="#089256"/>
<path d="M8.3334 11.4585H7.29175V20.8335H8.3334V11.4585Z" fill="#089256"/>
<path d="M20.8334 5.729H15.1042V6.77065H20.8334V5.729Z" fill="#089256"/>
<path d="M20.8334 8.3335H15.1042V9.37515H20.8334V8.3335Z" fill="#089256"/>
<path d="M20.8334 10.9375H15.1042V11.9791H20.8334V10.9375Z" fill="#089256"/>
<path d="M20.8334 13.5415H15.1042V14.5832H20.8334V13.5415Z" fill="#089256"/>
<path d="M20.8334 16.146H15.1042V17.1876H20.8334V16.146Z" fill="#089256"/>
<path d="M20.8334 18.75H15.1042V19.7917H20.8334V18.75Z" fill="#089256"/>
<path d="M8.85415 2.604H7.8125V4.1665H8.85415V2.604Z" fill="#089256"/>
<path d="M8.85415 5.729H7.8125V7.2915H8.85415V5.729Z" fill="#089256"/>
<path d="M10.9374 5.729H9.89575V7.2915H10.9374V5.729Z" fill="#089256"/>
<path d="M10.9374 2.604H9.89575V4.1665H10.9374V2.604Z" fill="#089256"/>
<path d="M13.0209 2.604H11.9792V4.1665H13.0209V2.604Z" fill="#089256"/>
<path d="M13.0209 5.729H11.9792V7.2915H13.0209V5.729Z" fill="#089256"/>
<path d="M13.0209 8.854H11.9792V10.4165H13.0209V8.854Z" fill="#089256"/>
<path d="M13.0209 11.979H11.9792V13.5415H13.0209V11.979Z" fill="#089256"/>
<path d="M13.0209 15.104H11.9792V16.6665H13.0209V15.104Z" fill="#089256"/>
<path d="M13.0209 18.229H11.9792V19.7915H13.0209V18.229Z" fill="#089256"/>
<path d="M19.7917 21.354H17.1876C16.9 21.354 16.6667 21.5872 16.6667 21.8749V24.479H17.7084V22.3957H19.2709V24.479H20.3126V21.8749C20.3126 21.5872 20.0794 21.354 19.7917 21.354Z" fill="#089256"/>
<path d="M7.8125 21.875H3.64585C3.3582 21.875 3.125 22.1082 3.125 22.3958V24.4792H4.16665V22.9167H7.29165V24.4792H8.3333V22.3958C8.33335 22.1082 8.10015 21.875 7.8125 21.875Z" fill="#089256"/>
</g>
<defs>
<clipPath id="clip0">
<rect width="25" height="25" fill="white"/>
</clipPath>
</defs>
</svg>
