<svg width="25" height="25" viewBox="0 0 25 25" fill="none" xmlns="http://www.w3.org/2000/svg">
<path d="M18.4909 1.93996C18.2905 0.957631 17.4203 0.21582 16.3793 0.21582C16.1414 0.21582 15.9483 0.408493 15.9483 0.646855C15.9483 0.885217 16.1414 1.07789 16.3793 1.07789C17.0922 1.07789 17.6724 1.65806 17.6724 2.37099C17.6724 3.08392 17.0922 3.6641 16.3793 3.6641C16.1414 3.6641 15.9483 3.85677 15.9483 4.09513C15.9483 4.33349 16.1414 4.52617 16.3793 4.52617C17.4198 4.52617 18.2905 3.78435 18.4909 2.80203H24.1379V6.68134H0.862069V2.80203H6.89655H8.18966C8.42759 2.80203 8.62069 2.60935 8.62069 2.37099C8.62069 2.13263 8.42759 1.93996 8.18966 1.93996H7.4069C7.58534 1.4391 8.05948 1.07789 8.62069 1.07789C9.33362 1.07789 9.91379 1.65806 9.91379 2.37099C9.91379 3.08392 9.33362 3.6641 8.62069 3.6641C8.38276 3.6641 8.18966 3.85677 8.18966 4.09513C8.18966 4.33349 8.38276 4.52617 8.62069 4.52617C9.80905 4.52617 10.7759 3.55935 10.7759 2.37099C10.7759 1.18263 9.80905 0.21582 8.62069 0.21582C7.58017 0.21582 6.70948 0.957631 6.50905 1.93996H0V7.54341V24.7848H25V7.54341V1.93996H18.4909ZM24.1379 23.9227H0.862069V7.54341H24.1379V23.9227Z" fill="#089256"/>
<path d="M11.2069 1.07789C11.9198 1.07789 12.5 1.65806 12.5 2.37099C12.5 3.08392 11.9198 3.6641 11.2069 3.6641C10.969 3.6641 10.7759 3.85677 10.7759 4.09513C10.7759 4.33349 10.969 4.52617 11.2069 4.52617C12.3953 4.52617 13.3621 3.55935 13.3621 2.37099C13.3621 1.18263 12.3953 0.21582 11.2069 0.21582C10.969 0.21582 10.7759 0.408493 10.7759 0.646855C10.7759 0.885217 10.969 1.07789 11.2069 1.07789Z" fill="#089256"/>
<path d="M13.7931 1.07789C14.506 1.07789 15.0862 1.65806 15.0862 2.37099C15.0862 3.08392 14.506 3.6641 13.7931 3.6641C13.5552 3.6641 13.3621 3.85677 13.3621 4.09513C13.3621 4.33349 13.5552 4.52617 13.7931 4.52617C14.9815 4.52617 15.9483 3.55935 15.9483 2.37099C15.9483 1.18263 14.9815 0.21582 13.7931 0.21582C13.5552 0.21582 13.3621 0.408493 13.3621 0.646855C13.3621 0.885217 13.5552 1.07789 13.7931 1.07789Z" fill="#089256"/>
<path d="M5.6033 14.44C7.02959 14.44 8.1895 13.2801 8.1895 11.8538C8.1895 10.4275 7.02959 9.26758 5.6033 9.26758C4.177 9.26758 3.01709 10.4275 3.01709 11.8538C3.01709 13.2801 4.177 14.44 5.6033 14.44ZM5.6033 10.1296C6.55416 10.1296 7.32743 10.9029 7.32743 11.8538C7.32743 12.8046 6.55416 13.5779 5.6033 13.5779C4.65243 13.5779 3.87916 12.8046 3.87916 11.8538C3.87916 10.9029 4.65243 10.1296 5.6033 10.1296Z" fill="#089256"/>
<path d="M12.5 14.44C13.9263 14.44 15.0862 13.2801 15.0862 11.8538C15.0862 10.4275 13.9263 9.26758 12.5 9.26758C11.0737 9.26758 9.91382 10.4275 9.91382 11.8538C9.91382 13.2801 11.0737 14.44 12.5 14.44ZM12.5 10.1296C13.4509 10.1296 14.2242 10.9029 14.2242 11.8538C14.2242 12.8046 13.4509 13.5779 12.5 13.5779C11.5492 13.5779 10.7759 12.8046 10.7759 11.8538C10.7759 10.9029 11.5492 10.1296 12.5 10.1296Z" fill="#089256"/>
<path d="M19.3965 14.44C20.8228 14.44 21.9827 13.2801 21.9827 11.8538C21.9827 10.4275 20.8228 9.26758 19.3965 9.26758C17.9702 9.26758 16.8103 10.4275 16.8103 11.8538C16.8103 13.2801 17.9702 14.44 19.3965 14.44ZM19.3965 10.1296C20.3474 10.1296 21.1206 10.9029 21.1206 11.8538C21.1206 12.8046 20.3474 13.5779 19.3965 13.5779C18.4456 13.5779 17.6724 12.8046 17.6724 11.8538C17.6724 10.9029 18.4456 10.1296 19.3965 10.1296Z" fill="#089256"/>
<path d="M5.6033 21.3365C7.02959 21.3365 8.1895 20.1766 8.1895 18.7503C8.1895 17.324 7.02959 16.1641 5.6033 16.1641C4.177 16.1641 3.01709 17.324 3.01709 18.7503C3.01709 20.1766 4.177 21.3365 5.6033 21.3365ZM5.6033 17.0261C6.55416 17.0261 7.32743 17.7994 7.32743 18.7503C7.32743 19.7011 6.55416 20.4744 5.6033 20.4744C4.65243 20.4744 3.87916 19.7011 3.87916 18.7503C3.87916 17.7994 4.65243 17.0261 5.6033 17.0261Z" fill="#089256"/>
<path d="M12.5 21.3365C13.9263 21.3365 15.0862 20.1766 15.0862 18.7503C15.0862 17.324 13.9263 16.1641 12.5 16.1641C11.0737 16.1641 9.91382 17.324 9.91382 18.7503C9.91382 20.1766 11.0737 21.3365 12.5 21.3365ZM12.5 17.0261C13.4509 17.0261 14.2242 17.7994 14.2242 18.7503C14.2242 19.7011 13.4509 20.4744 12.5 20.4744C11.5492 20.4744 10.7759 19.7011 10.7759 18.7503C10.7759 17.7994 11.5492 17.0261 12.5 17.0261Z" fill="#089256"/>
<path d="M19.3966 21.3367C19.6347 21.3367 19.8276 21.1437 19.8276 20.9056C19.8276 20.6676 19.6347 20.4746 19.3966 20.4746C19.1586 20.4746 18.9656 20.6676 18.9656 20.9056C18.9656 21.1437 19.1586 21.3367 19.3966 21.3367Z" fill="#089256"/>
<path d="M17.6725 20.9055C17.9105 20.9055 18.1035 20.7125 18.1035 20.4745C18.1035 20.2364 17.9105 20.0435 17.6725 20.0435C17.4344 20.0435 17.2415 20.2364 17.2415 20.4745C17.2415 20.7125 17.4344 20.9055 17.6725 20.9055Z" fill="#089256"/>
<path d="M21.1207 20.9055C21.3588 20.9055 21.5518 20.7125 21.5518 20.4745C21.5518 20.2364 21.3588 20.0435 21.1207 20.0435C20.8827 20.0435 20.6897 20.2364 20.6897 20.4745C20.6897 20.7125 20.8827 20.9055 21.1207 20.9055Z" fill="#089256"/>
<path d="M21.1207 17.4573C21.3588 17.4573 21.5518 17.2643 21.5518 17.0263C21.5518 16.7882 21.3588 16.5952 21.1207 16.5952C20.8827 16.5952 20.6897 16.7882 20.6897 17.0263C20.6897 17.2643 20.8827 17.4573 21.1207 17.4573Z" fill="#089256"/>
<path d="M17.6725 17.4573C17.9105 17.4573 18.1035 17.2643 18.1035 17.0263C18.1035 16.7882 17.9105 16.5952 17.6725 16.5952C17.4344 16.5952 17.2415 16.7882 17.2415 17.0263C17.2415 17.2643 17.4344 17.4573 17.6725 17.4573Z" fill="#089256"/>
<path d="M18.5343 18.3191C18.7724 18.3191 18.9653 18.1261 18.9653 17.8881C18.9653 17.65 18.7724 17.457 18.5343 17.457C18.2963 17.457 18.1033 17.65 18.1033 17.8881C18.1033 18.1261 18.2963 18.3191 18.5343 18.3191Z" fill="#089256"/>
<path d="M20.2587 18.3191C20.4967 18.3191 20.6897 18.1261 20.6897 17.8881C20.6897 17.65 20.4967 17.457 20.2587 17.457C20.0206 17.457 19.8276 17.65 19.8276 17.8881C19.8276 18.1261 20.0206 18.3191 20.2587 18.3191Z" fill="#089256"/>
<path d="M19.3966 19.1814C19.6347 19.1814 19.8276 18.9884 19.8276 18.7504C19.8276 18.5123 19.6347 18.3193 19.3966 18.3193C19.1586 18.3193 18.9656 18.5123 18.9656 18.7504C18.9656 18.9884 19.1586 19.1814 19.3966 19.1814Z" fill="#089256"/>
<path d="M18.5343 20.0432C18.7724 20.0432 18.9653 19.8502 18.9653 19.6122C18.9653 19.3741 18.7724 19.1812 18.5343 19.1812C18.2963 19.1812 18.1033 19.3741 18.1033 19.6122C18.1033 19.8502 18.2963 20.0432 18.5343 20.0432Z" fill="#089256"/>
<path d="M20.2587 20.0432C20.4967 20.0432 20.6897 19.8502 20.6897 19.6122C20.6897 19.3741 20.4967 19.1812 20.2587 19.1812C20.0206 19.1812 19.8276 19.3741 19.8276 19.6122C19.8276 19.8502 20.0206 20.0432 20.2587 20.0432Z" fill="#089256"/>
<path d="M21.5516 19.1814C21.7897 19.1814 21.9827 18.9884 21.9827 18.7504C21.9827 18.5123 21.7897 18.3193 21.5516 18.3193C21.3136 18.3193 21.1206 18.5123 21.1206 18.7504C21.1206 18.9884 21.3136 19.1814 21.5516 19.1814Z" fill="#089256"/>
<path d="M17.2413 19.1814C17.4794 19.1814 17.6724 18.9884 17.6724 18.7504C17.6724 18.5123 17.4794 18.3193 17.2413 18.3193C17.0033 18.3193 16.8103 18.5123 16.8103 18.7504C16.8103 18.9884 17.0033 19.1814 17.2413 19.1814Z" fill="#089256"/>
<path d="M19.3966 17.0261C19.6347 17.0261 19.8276 16.8332 19.8276 16.5951C19.8276 16.357 19.6347 16.1641 19.3966 16.1641C19.1586 16.1641 18.9656 16.357 18.9656 16.5951C18.9656 16.8332 19.1586 17.0261 19.3966 17.0261Z" fill="#089256"/>
</svg>
