<svg width="25" height="25" viewBox="0 0 25 25" fill="none" xmlns="http://www.w3.org/2000/svg">
<path d="M9.58333 8.33334H8.75V9.16668H9.58333V8.33334Z" fill="#089256"/>
<path d="M9.58333 10H8.75V10.8333H9.58333V10Z" fill="#089256"/>
<path d="M9.58333 11.6667H8.75V12.5H9.58333V11.6667Z" fill="#089256"/>
<path d="M9.58333 13.3333H8.75V14.1667H9.58333V13.3333Z" fill="#089256"/>
<path d="M11.2498 8.33334H10.4165V9.16668H11.2498V8.33334Z" fill="#089256"/>
<path d="M11.2498 10H10.4165V10.8333H11.2498V10Z" fill="#089256"/>
<path d="M11.2498 11.6667H10.4165V12.5H11.2498V11.6667Z" fill="#089256"/>
<path d="M11.2498 13.3333H10.4165V14.1667H11.2498V13.3333Z" fill="#089256"/>
<path d="M12.9168 8.33334H12.0835V9.16668H12.9168V8.33334Z" fill="#089256"/>
<path d="M12.9168 10H12.0835V10.8333H12.9168V10Z" fill="#089256"/>
<path d="M12.9168 11.6667H12.0835V12.5H12.9168V11.6667Z" fill="#089256"/>
<path d="M12.9168 13.3333H12.0835V14.1667H12.9168V13.3333Z" fill="#089256"/>
<path d="M14.5833 8.33334H13.75V9.16668H14.5833V8.33334Z" fill="#089256"/>
<path d="M11.2498 6.66666H10.4165V7.49999H11.2498V6.66666Z" fill="#089256"/>
<path d="M12.9168 6.66666H12.0835V7.49999H12.9168V6.66666Z" fill="#089256"/>
<path d="M14.5833 6.66666H13.75V7.49999H14.5833V6.66666Z" fill="#089256"/>
<path d="M14.5833 10H13.75V10.8333H14.5833V10Z" fill="#089256"/>
<path d="M14.5833 11.6667H13.75V12.5H14.5833V11.6667Z" fill="#089256"/>
<path d="M14.5833 13.3333H13.75V14.1667H14.5833V13.3333Z" fill="#089256"/>
<path d="M16.2498 8.33334H15.4165V9.16668H16.2498V8.33334Z" fill="#089256"/>
<path d="M16.2498 10H15.4165V10.8333H16.2498V10Z" fill="#089256"/>
<path d="M16.2498 11.6667H15.4165V12.5H16.2498V11.6667Z" fill="#089256"/>
<path d="M16.2498 13.3333H15.4165V14.1667H16.2498V13.3333Z" fill="#089256"/>
<path d="M24.5838 6.25C24.5836 6.25 24.5835 6.25 24.5833 6.25H18.3333V0.416667C18.3335 0.186667 18.1471 0.000156348 17.9171 9.81849e-08C17.917 9.81849e-08 17.9168 9.81849e-08 17.9167 9.81849e-08H7.08333C6.85333 -0.000156152 6.66682 0.186198 6.66667 0.416198C6.66667 0.416354 6.66667 0.41651 6.66667 0.416667V6.25H0.416667C0.186667 6.24984 0.000156348 6.4362 9.81849e-08 6.6662C9.81849e-08 6.66635 9.81849e-08 6.66651 9.81849e-08 6.66667V21.6667C-0.000156152 21.8967 0.186198 22.0832 0.416198 22.0833C0.416354 22.0833 0.41651 22.0833 0.416667 22.0833H1.28766C1.26349 22.2209 1.25089 22.3603 1.25 22.5V24.5833C1.24984 24.8133 1.4362 24.9998 1.6662 25C1.66635 25 1.66651 25 1.66667 25H23.3333C23.5633 25.0002 23.7498 24.8138 23.75 24.5838C23.75 24.5836 23.75 24.5835 23.75 24.5833V22.5C23.7492 22.3603 23.7366 22.2209 23.7123 22.0833H24.5833C24.8133 22.0835 24.9998 21.8971 25 21.6671C25 21.667 25 21.6668 25 21.6667V6.66667C25.0002 6.43667 24.8138 6.25016 24.5838 6.25ZM17.9167 17.9167C17.9167 18.3769 17.5436 18.75 17.0833 18.75C16.6231 18.75 16.25 18.3769 16.25 17.9167C16.25 17.4564 16.6231 17.0833 17.0833 17.0833C17.5433 17.0839 17.9161 17.4567 17.9167 17.9167ZM7.91667 17.0833C8.37693 17.0833 8.75 17.4564 8.75 17.9167C8.75 18.3769 8.37693 18.75 7.91667 18.75C7.45641 18.75 7.08333 18.3769 7.08333 17.9167C7.08391 17.4567 7.45667 17.0839 7.91667 17.0833ZM5.41667 24.1667H2.08333V22.5C2.08333 21.5795 2.82953 20.8333 3.75 20.8333C4.67047 20.8333 5.41667 21.5795 5.41667 22.5V24.1667ZM2.91667 19.1667C2.91667 18.7064 3.28974 18.3333 3.75 18.3333C4.21026 18.3333 4.58333 18.7064 4.58333 19.1667C4.58333 19.6269 4.21026 20 3.75 20C3.29 19.9994 2.91724 19.6267 2.91667 19.1667ZM5.47979 20.6992C5.32266 20.5477 5.14646 20.4172 4.95563 20.3113C5.59115 19.6454 5.56661 18.5904 4.90078 17.9548C4.23495 17.3193 3.17995 17.3439 2.54437 18.0097C1.92964 18.6537 1.92964 19.6672 2.54437 20.3112C2.14667 20.5319 1.81625 20.8564 1.58823 21.2499H0.833333V7.08333H6.66667V16.8258C6.09448 17.4679 6.1138 18.4424 6.71104 19.0613C6.08604 19.4069 5.63818 20.0028 5.47979 20.6992ZM9.58333 24.1667H6.25V21.25C6.25 20.3295 6.9962 19.5833 7.91667 19.5833C8.83714 19.5833 9.58333 20.3295 9.58333 21.25V24.1667ZM14.5833 24.1667H10.4167V21.25C10.4167 20.0994 11.3494 19.1667 12.5 19.1667C13.6506 19.1667 14.5833 20.0994 14.5833 21.25V24.1667ZM11.25 17.0833C11.25 16.393 11.8096 15.8333 12.5 15.8333C13.1904 15.8333 13.75 16.393 13.75 17.0833C13.75 17.7737 13.1904 18.3333 12.5 18.3333C11.8099 18.3326 11.2507 17.7734 11.25 17.0833ZM15.0376 19.8174C14.7586 19.3256 14.3435 18.9248 13.8421 18.6633C14.7222 17.922 14.8347 16.6077 14.0935 15.7277C13.3522 14.8476 12.0379 14.7351 11.1579 15.4763C10.2778 16.2176 10.1653 17.5319 10.9065 18.4119C10.983 18.5027 11.067 18.5868 11.1579 18.6633C10.6565 18.9248 10.2414 19.3256 9.9624 19.8174C9.74333 19.5049 9.45604 19.2464 9.12229 19.0613C9.76109 18.4078 9.74922 17.3601 9.09568 16.7213C8.6749 16.3099 8.06734 16.1531 7.5 16.3092V0.833333H17.5V16.3092C17.3642 16.2717 17.2242 16.2518 17.0833 16.25C16.1653 16.2476 15.4191 16.9898 15.4167 17.9079C15.4155 18.3374 15.5808 18.7508 15.8777 19.0613C15.544 19.2464 15.2567 19.5049 15.0376 19.8174ZM18.75 22.5V24.1667H15.4167V21.25C15.4167 20.3295 16.1629 19.5833 17.0833 19.5833C18.0038 19.5833 18.75 20.3295 18.75 21.25V22.5ZM22.9167 24.1667H19.5833V22.5C19.5833 21.5795 20.3295 20.8333 21.25 20.8333C22.1705 20.8333 22.9167 21.5795 22.9167 22.5V24.1667ZM20.4167 19.1667C20.4167 18.7064 20.7897 18.3333 21.25 18.3333C21.7103 18.3333 22.0833 18.7064 22.0833 19.1667C22.0833 19.6269 21.7103 20 21.25 20C20.79 19.9994 20.4172 19.6267 20.4167 19.1667ZM24.1667 21.25H23.4118C23.1838 20.8564 22.8533 20.532 22.4556 20.3113C23.0911 19.6454 23.0666 18.5904 22.4008 17.9548C21.7349 17.3193 20.6799 17.3439 20.0444 18.0097C19.4296 18.6537 19.4296 19.6672 20.0444 20.3112C19.8535 20.4172 19.6773 20.5476 19.5202 20.6992C19.3619 20.0027 18.914 19.4069 18.289 19.0612C18.8862 18.4424 18.9056 17.4678 18.3334 16.8258V7.08333H24.1667V21.25H24.1667Z" fill="#089256"/>
<path d="M20.4168 9.58334H19.5835V16.25H20.4168V9.58334Z" fill="#089256"/>
<path d="M22.9168 9.58334H22.0835V16.25H22.9168V9.58334Z" fill="#089256"/>
<path d="M2.91683 9.58334H2.0835V16.25H2.91683V9.58334Z" fill="#089256"/>
<path d="M5.41683 9.58334H4.5835V16.25H5.41683V9.58334Z" fill="#089256"/>
<path d="M15.0006 1.66666C15.0005 1.66666 15.0003 1.66666 15.0002 1.66666H10.0002C9.77016 1.6665 9.58365 1.85285 9.5835 2.08285C9.5835 2.08301 9.5835 2.08317 9.5835 2.08332V5.41666C9.58334 5.64666 9.76969 5.83317 9.99969 5.83332C9.99985 5.83332 10 5.83332 10.0002 5.83332H15.0002C15.2302 5.83348 15.4167 5.64713 15.4168 5.41713C15.4168 5.41697 15.4168 5.41681 15.4168 5.41666V2.08332C15.417 1.85332 15.2306 1.66681 15.0006 1.66666ZM14.5835 4.99999H10.4168V2.49999H14.5835V4.99999Z" fill="#089256"/>
</svg>
