<svg width="25" height="25" viewBox="0 0 25 25" fill="none" xmlns="http://www.w3.org/2000/svg">
<path d="M19.7578 15.4864C19.246 14.9534 18.6286 14.6685 17.9743 14.6685C17.3253 14.6685 16.7027 14.9482 16.1698 15.4811L14.5024 17.1432C14.3653 17.0693 14.2281 17.0007 14.0962 16.9321C13.9062 16.8371 13.7268 16.7474 13.5738 16.6524C12.012 15.6605 10.5926 14.3678 9.2313 12.6951C8.57175 11.8615 8.12853 11.1597 7.80667 10.4474C8.23934 10.0516 8.64034 9.64008 9.0308 9.24435C9.17854 9.09661 9.32628 8.94359 9.47402 8.79585C10.5821 7.68781 10.5821 6.25262 9.47402 5.14457L8.03356 3.70411C7.86999 3.54054 7.70114 3.37169 7.54285 3.20285C7.22626 2.87571 6.89385 2.53802 6.55088 2.22143C6.03907 1.7149 5.427 1.4458 4.78328 1.4458C4.13956 1.4458 3.51694 1.7149 2.9893 2.22143C2.98402 2.22671 2.98402 2.22671 2.97874 2.23199L1.18476 4.0418C0.50938 4.71718 0.124201 5.5403 0.0397781 6.49534C-0.086856 8.03605 0.366916 9.47124 0.71516 10.4104C1.56994 12.7162 2.84683 14.8532 4.75162 17.1432C7.06269 19.9027 9.84337 22.0819 13.0198 23.6173C14.2334 24.1925 15.8532 24.8731 17.663 24.9892C17.7738 24.9945 17.8899 24.9997 17.9954 24.9997C19.2143 24.9997 20.2379 24.5618 21.0399 23.6912C21.0452 23.6806 21.0558 23.6754 21.061 23.6648C21.3354 23.3324 21.652 23.0316 21.9844 22.7098C22.2113 22.4934 22.4435 22.2666 22.6703 22.0291C23.1927 21.4856 23.4671 20.8525 23.4671 20.2035C23.4671 19.5492 23.1874 18.9213 22.6545 18.3937L19.7578 15.4864ZM21.6467 21.0424C21.6414 21.0424 21.6414 21.0477 21.6467 21.0424C21.4409 21.264 21.2299 21.4645 21.003 21.6862C20.66 22.0133 20.3118 22.3563 19.9846 22.7414C19.4517 23.3113 18.8238 23.5804 18.0007 23.5804C17.9216 23.5804 17.8371 23.5804 17.758 23.5751C16.1909 23.4749 14.7346 22.8628 13.6424 22.3404C10.6559 20.8947 8.03356 18.8422 5.85439 16.2409C4.05513 14.0723 2.85211 12.0672 2.05537 9.91446C1.56466 8.60063 1.38527 7.577 1.46441 6.61142C1.51718 5.99408 1.75462 5.48226 2.19256 5.04432L3.99182 3.24506C4.25036 3.00234 4.52474 2.87043 4.79383 2.87043C5.12625 2.87043 5.39535 3.07094 5.56419 3.23978C5.56947 3.24506 5.57474 3.25034 5.58002 3.25561C5.90188 3.55637 6.20791 3.86768 6.52978 4.20009C6.69335 4.36894 6.86219 4.53778 7.03104 4.71191L8.4715 6.15237C9.0308 6.71167 9.0308 7.22876 8.4715 7.78806C8.31848 7.94108 8.17074 8.09409 8.01773 8.24183C7.57451 8.6956 7.15239 9.11772 6.69335 9.52928C6.68279 9.53983 6.67224 9.54511 6.66696 9.55566C6.21319 10.0094 6.29761 10.4527 6.39259 10.7534C6.39787 10.7692 6.40314 10.7851 6.40842 10.8009C6.78304 11.7084 7.31069 12.5632 8.1127 13.5816L8.11798 13.5868C9.57427 15.3808 11.1097 16.7791 12.8034 17.8502C13.0198 17.9874 13.2414 18.0982 13.4524 18.2037C13.6424 18.2987 13.8218 18.3884 13.9748 18.4834C13.9959 18.4939 14.017 18.5097 14.0381 18.5203C14.2175 18.61 14.3864 18.6522 14.5605 18.6522C14.9984 18.6522 15.2728 18.3778 15.3625 18.2881L17.167 16.4836C17.3464 16.3042 17.6314 16.0879 17.9638 16.0879C18.2909 16.0879 18.56 16.2936 18.7236 16.473C18.7289 16.4783 18.7289 16.4783 18.7341 16.4836L21.6414 19.3909C22.1849 19.9291 22.1849 20.4831 21.6467 21.0424Z" fill="#089256"/>
<path d="M13.5106 5.94676C14.8931 6.17892 16.1488 6.83319 17.1514 7.83571C18.1539 8.83823 18.8029 10.094 19.0403 11.4764C19.0984 11.8247 19.3991 12.0674 19.7421 12.0674C19.7843 12.0674 19.8212 12.0621 19.8634 12.0569C20.2539 11.9935 20.5124 11.6242 20.4491 11.2337C20.1642 9.5611 19.3727 8.03622 18.1644 6.82792C16.9561 5.61962 15.4313 4.82815 13.7586 4.54323C13.3682 4.47991 13.0041 4.73846 12.9355 5.12363C12.8669 5.50881 13.1202 5.88344 13.5106 5.94676Z" fill="#089256"/>
<path d="M24.971 11.028C24.5014 8.27374 23.2034 5.76744 21.2089 3.77295C19.2144 1.77846 16.7081 0.480461 13.9538 0.0108597C13.5687 -0.0577338 13.2046 0.206087 13.136 0.591266C13.0727 0.981721 13.3312 1.34579 13.7217 1.41439C16.1805 1.83123 18.423 2.99731 20.2064 4.77547C21.9898 6.5589 23.1506 8.80138 23.5675 11.2602C23.6255 11.6084 23.9263 11.8511 24.2692 11.8511C24.3115 11.8511 24.3484 11.8459 24.3906 11.8406C24.7758 11.7826 25.0396 11.4132 24.971 11.028Z" fill="#089256"/>
</svg>
