<svg width="25" height="25" viewBox="0 0 25 25" fill="none" xmlns="http://www.w3.org/2000/svg">
<path fill-rule="evenodd" clip-rule="evenodd" d="M15.2027 19.5946C20.6136 19.5946 25 15.2082 25 9.7973C25 4.3864 20.6136 0 15.2027 0C9.79173 0 5.4053 4.3864 5.4053 9.7973C5.4053 12.1377 6.22596 14.2865 7.59522 15.9715L0.296854 23.2698C-0.0989512 23.6656 -0.0989512 24.3073 0.296854 24.7031C0.692658 25.0989 1.33438 25.0989 1.73019 24.7031L9.02857 17.4048C10.7136 18.774 12.8623 19.5946 15.2027 19.5946ZM15.203 17.5676C10.9115 17.5676 7.43265 14.0887 7.43265 9.79732C7.43265 5.50592 10.9115 2.02705 15.203 2.02705C19.4944 2.02705 22.9733 5.50592 22.9733 9.79732C22.9733 14.0887 19.4944 17.5676 15.203 17.5676Z" fill="#3D3D3D"/>
</svg>
