<svg width="25" height="25" viewBox="0 0 25 25" fill="none" xmlns="http://www.w3.org/2000/svg">
<path d="M11.2506 14.3752C11.2506 14.6053 11.4371 14.7918 11.6672 14.7918C11.8974 14.7918 12.0839 14.6053 12.0839 14.3752C12.0839 12.9968 10.8089 11.8577 9.16724 11.6902V11.2502C9.16724 11.02 8.98069 10.8335 8.75057 10.8335C8.52045 10.8335 8.3339 11.02 8.3339 11.2502V11.6902C6.69224 11.8568 5.41724 12.9968 5.41724 14.3752C5.41724 15.7535 6.69224 16.8927 8.3339 17.0602V20.8052C7.15349 20.656 6.25057 19.8856 6.25057 18.9585C6.25057 18.7284 6.06402 18.5418 5.8339 18.5418C5.60378 18.5418 5.41724 18.7284 5.41724 18.9585C5.41724 20.3368 6.69224 21.476 8.3339 21.6435V22.0835C8.3339 22.3136 8.52045 22.5002 8.75057 22.5002C8.98069 22.5002 9.16724 22.3136 9.16724 22.0835V21.6435C10.8089 21.4768 12.0839 20.3368 12.0839 18.9585C12.0839 17.5802 10.8089 16.441 9.16724 16.2735V12.5285C10.3477 12.6777 11.2506 13.4481 11.2506 14.3752ZM6.25057 14.3752C6.25057 13.4481 7.15349 12.6777 8.3339 12.5285V16.2218C7.15349 16.0727 6.25057 15.3022 6.25057 14.3752ZM11.2506 18.9585C11.2506 19.8856 10.3477 20.656 9.16724 20.8052V17.1118C10.3477 17.261 11.2506 18.0314 11.2506 18.9585Z" fill="#089256"/>
<path d="M1.50027 12.5725C1.29156 12.4756 1.04383 12.5663 0.946941 12.775C0.319824 14.1247 -0.00333851 15.5955 0.000274098 17.0838C0.000274098 22.3367 2.94403 25.0004 8.75028 25.0004C9.92349 25.0189 11.0941 24.884 12.2324 24.5992C12.4548 24.54 12.5871 24.3118 12.528 24.0894C12.4688 23.867 12.2406 23.7346 12.0182 23.7938C10.9494 24.0577 9.85108 24.1832 8.75028 24.1671C3.42319 24.1671 0.833608 21.85 0.833608 17.0838C0.826111 15.7161 1.12316 14.364 1.70319 13.1254C1.79972 12.9167 1.70891 12.6692 1.50027 12.5725Z" fill="#089256"/>
<path d="M23.7509 10.417H14.5842C13.8939 10.417 13.3342 10.9766 13.3342 11.667V23.7503C13.3342 24.4407 13.8939 25.0003 14.5842 25.0003H23.7509C24.4413 25.0003 25.0009 24.4407 25.0009 23.7503V11.667C25.0009 10.9766 24.4413 10.417 23.7509 10.417ZM24.1676 23.7503C24.1676 23.9804 23.981 24.167 23.7509 24.167H14.5842C14.3541 24.167 14.1676 23.9804 14.1676 23.7503V11.667C14.1676 11.4369 14.3541 11.2503 14.5842 11.2503H23.7509C23.981 11.2503 24.1676 11.4369 24.1676 11.667V23.7503Z" fill="#089256"/>
<path d="M16.2508 15.8333H22.0841C22.5444 15.8333 22.9175 15.4602 22.9175 15V13.3333C22.9175 12.8731 22.5444 12.5 22.0841 12.5H16.2508C15.7906 12.5 15.4175 12.8731 15.4175 13.3333V15C15.4175 15.4602 15.7906 15.8333 16.2508 15.8333ZM16.2508 13.3333H22.0841V15H16.2508V13.3333Z" fill="#089256"/>
<path d="M17.0841 17.0835H15.8341C15.604 17.0835 15.4175 17.27 15.4175 17.5002C15.4175 17.7303 15.604 17.9168 15.8341 17.9168H17.0841C17.3143 17.9168 17.5008 17.7303 17.5008 17.5002C17.5008 17.27 17.3143 17.0835 17.0841 17.0835Z" fill="#089256"/>
<path d="M17.0841 18.75H15.8341C15.604 18.75 15.4175 18.9365 15.4175 19.1667C15.4175 19.3968 15.604 19.5833 15.8341 19.5833H17.0841C17.3143 19.5833 17.5008 19.3968 17.5008 19.1667C17.5008 18.9365 17.3143 18.75 17.0841 18.75Z" fill="#089256"/>
<path d="M17.0841 20.417H15.8341C15.604 20.417 15.4175 20.6035 15.4175 20.8337C15.4175 21.0638 15.604 21.2503 15.8341 21.2503H17.0841C17.3143 21.2503 17.5008 21.0638 17.5008 20.8337C17.5008 20.6035 17.3143 20.417 17.0841 20.417Z" fill="#089256"/>
<path d="M17.0841 22.0835H15.8341C15.604 22.0835 15.4175 22.27 15.4175 22.5002C15.4175 22.7303 15.604 22.9168 15.8341 22.9168H17.0841C17.3143 22.9168 17.5008 22.7303 17.5008 22.5002C17.5008 22.27 17.3143 22.0835 17.0841 22.0835Z" fill="#089256"/>
<path d="M20.0004 17.0835H18.7504C18.5203 17.0835 18.3337 17.27 18.3337 17.5002C18.3337 17.7303 18.5203 17.9168 18.7504 17.9168H20.0004C20.2305 17.9168 20.4171 17.7303 20.4171 17.5002C20.4171 17.27 20.2305 17.0835 20.0004 17.0835Z" fill="#089256"/>
<path d="M20.0004 18.75H18.7504C18.5203 18.75 18.3337 18.9365 18.3337 19.1667C18.3337 19.3968 18.5203 19.5833 18.7504 19.5833H20.0004C20.2305 19.5833 20.4171 19.3968 20.4171 19.1667C20.4171 18.9365 20.2305 18.75 20.0004 18.75Z" fill="#089256"/>
<path d="M20.0004 20.417H18.7504C18.5203 20.417 18.3337 20.6035 18.3337 20.8337C18.3337 21.0638 18.5203 21.2503 18.7504 21.2503H20.0004C20.2305 21.2503 20.4171 21.0638 20.4171 20.8337C20.4171 20.6035 20.2305 20.417 20.0004 20.417Z" fill="#089256"/>
<path d="M20.0004 22.0835H18.7504C18.5203 22.0835 18.3337 22.27 18.3337 22.5002C18.3337 22.7303 18.5203 22.9168 18.7504 22.9168H20.0004C20.2305 22.9168 20.4171 22.7303 20.4171 22.5002C20.4171 22.27 20.2305 22.0835 20.0004 22.0835Z" fill="#089256"/>
<path d="M22.9176 17.0835H21.6676C21.4375 17.0835 21.251 17.27 21.251 17.5002C21.251 17.7303 21.4375 17.9168 21.6676 17.9168H22.9176C23.1478 17.9168 23.3343 17.7303 23.3343 17.5002C23.3343 17.27 23.1478 17.0835 22.9176 17.0835Z" fill="#089256"/>
<path d="M22.9176 18.75H21.6676C21.4375 18.75 21.251 18.9365 21.251 19.1667C21.251 19.3968 21.4375 19.5833 21.6676 19.5833H22.9176C23.1478 19.5833 23.3343 19.3968 23.3343 19.1667C23.3343 18.9365 23.1478 18.75 22.9176 18.75Z" fill="#089256"/>
<path d="M22.9176 20.417H21.6676C21.4375 20.417 21.251 20.6035 21.251 20.8337C21.251 21.0638 21.4375 21.2503 21.6676 21.2503H22.9176C23.1478 21.2503 23.3343 21.0638 23.3343 20.8337C23.3343 20.6035 23.1478 20.417 22.9176 20.417Z" fill="#089256"/>
<path d="M22.9176 22.0835H21.6676C21.4375 22.0835 21.251 22.27 21.251 22.5002C21.251 22.7303 21.4375 22.9168 21.6676 22.9168H22.9176C23.1478 22.9168 23.3343 22.7303 23.3343 22.5002C23.3343 22.27 23.1478 22.0835 22.9176 22.0835Z" fill="#089256"/>
<path d="M2.63591 0.526382C1.53883 1.53138 3.46633 4.63138 4.60216 6.25013H4.3755C3.98844 6.24872 3.61687 6.40203 3.34341 6.67597C3.07089 6.95056 2.91772 7.32159 2.91716 7.70847C2.91896 8.22768 3.19753 8.70652 3.648 8.96472C3.16163 9.47915 2.70346 10.0195 2.2755 10.5835C2.13743 10.7676 2.17473 11.0287 2.35883 11.1668C2.54292 11.3049 2.80409 11.2676 2.94216 11.0835C3.45683 10.4101 4.01349 9.76998 4.60883 9.1668H13.1255C13.6465 9.1668 14.1279 8.88884 14.3885 8.43763C14.649 7.98642 14.649 7.43051 14.3885 6.9793C14.1279 6.52809 13.6465 6.25013 13.1255 6.25013H12.8988C14.0342 4.63138 15.9617 1.5318 14.8655 0.526382C14.3613 0.0647153 13.7738 0.401382 13.2559 0.695965C12.7849 1.01851 12.2366 1.20979 11.6672 1.25013C11.2152 1.24918 10.7842 1.05874 10.4792 0.725132C10.0233 0.261566 9.4003 0.000488281 8.75008 0.000488281C8.09986 0.000488281 7.47687 0.261566 7.02091 0.725132C6.71543 1.05927 6.28365 1.24976 5.83091 1.25013C5.26181 1.2102 4.71373 1.01888 4.24341 0.695965C3.72591 0.400549 3.13883 0.065132 2.63591 0.526382ZM13.5684 7.26597C13.7477 7.44479 13.8014 7.71411 13.7043 7.94799C13.6073 8.18187 13.3787 8.33409 13.1255 8.33347H4.3755C4.03032 8.33347 3.7505 8.05364 3.7505 7.70847C3.7505 7.36329 4.03032 7.08347 4.3755 7.08347H13.1255C13.2914 7.08351 13.4506 7.14911 13.5684 7.26597ZM5.83091 2.08347C6.48139 2.08337 7.10457 1.822 7.5605 1.35805C7.86481 1.02375 8.29593 0.833208 8.748 0.833208C9.20006 0.833208 9.63118 1.02375 9.9355 1.35805C10.392 1.82236 11.016 2.08374 11.6672 2.08347C12.3826 2.04588 13.0747 1.81647 13.6709 1.4193C13.8611 1.28503 14.0764 1.19025 14.3038 1.14055C14.7313 1.53222 13.6013 3.8943 11.8738 6.25013H10.8338V4.1668C10.8338 3.93668 10.6473 3.75013 10.4172 3.75013C10.187 3.75013 10.0005 3.93668 10.0005 4.1668V6.25013H7.5005V4.1668C7.5005 3.93668 7.31395 3.75013 7.08383 3.75013C6.85371 3.75013 6.66716 3.93668 6.66716 4.1668V6.25013H5.62883C3.90133 3.8943 2.77133 1.53222 3.20466 1.1343C3.42743 1.1938 3.63867 1.29013 3.82966 1.4193C4.42498 1.81642 5.11629 2.04584 5.83091 2.08347Z" fill="#089256"/>
</svg>
