<svg width="25" height="25" viewBox="0 0 25 25" fill="none" xmlns="http://www.w3.org/2000/svg">
<path d="M12.5 0C5.60762 0 0 5.60762 0 12.5C0 19.3924 5.60762 25 12.5 25C19.3924 25 25 19.3924 25 12.5C25 5.60762 19.3924 0 12.5 0ZM12.5 23.9583C9.07417 23.9583 6.00313 22.4394 3.90161 20.0485C3.96152 20.0123 4.02192 19.9728 4.0812 19.9422C6.06636 18.9229 9.13848 17.7083 12.5 17.7083C15.8615 17.7083 18.9336 18.923 20.9183 19.9417C20.9778 19.9725 21.0384 20.012 21.0984 20.0485C18.9969 22.4393 15.9258 23.9583 12.5 23.9583ZM21.3949 19.0155C19.3075 17.9438 16.0695 16.6667 12.5 16.6667C8.93047 16.6667 5.69253 17.9438 3.60464 19.016C3.48418 19.078 3.36528 19.1493 3.24482 19.2276C1.86582 17.3357 1.04165 15.015 1.04165 12.5C1.04165 6.18184 6.18184 1.04165 12.5 1.04165C18.8182 1.04165 23.9583 6.18184 23.9583 12.5C23.9583 15.015 23.1342 17.3358 21.7552 19.2276C21.6347 19.1492 21.5157 19.0777 21.3949 19.0155Z" fill="#089256"/>
<path d="M12.4999 3.64587C9.19736 3.64587 6.51025 6.33293 6.51025 9.63547C6.51025 12.938 9.19736 15.625 12.4999 15.625C15.8023 15.625 18.4895 12.938 18.4895 9.63542C18.4895 6.33288 15.8023 3.64587 12.4999 3.64587ZM12.4999 14.5834C9.77158 14.5834 7.55195 12.3637 7.55195 9.63547C7.55195 6.9072 9.77158 4.68752 12.4999 4.68752C15.2281 4.68752 17.4478 6.90715 17.4478 9.63542C17.4478 12.3637 15.2281 14.5834 12.4999 14.5834Z" fill="#089256"/>
</svg>
