<svg width="32" height="32" viewBox="0 0 32 32" fill="none" xmlns="http://www.w3.org/2000/svg">
<path d="M28.5318 15.8142L28.6062 16.0001L28.5318 16.1859C26.5655 21.0969 21.162 24.9001 15.9996 24.9001C10.8372 24.9001 5.43375 21.0969 3.46743 16.1859L3.39301 16.0001L3.46743 15.8142C5.43375 10.9032 10.8372 7.10007 15.9996 7.10007C21.162 7.10007 26.5655 10.9032 28.5318 15.8142ZM7.82767 9.02636C5.43081 10.7366 3.5872 13.1111 2.52431 15.857C2.4919 15.9496 2.4919 16.0505 2.52431 16.1432C3.58719 18.889 5.43081 21.2636 7.82767 22.9738C10.2212 24.6816 13.0617 25.6522 15.9996 25.7664C18.9375 25.6522 21.778 24.6816 24.1715 22.9738C26.5684 21.2636 28.412 18.889 29.4749 16.1432C29.5073 16.0505 29.5073 15.9496 29.4749 15.857C28.412 13.1112 26.5684 10.7366 24.1715 9.02636C21.778 7.31853 18.9375 6.34791 15.9996 6.23376C13.0617 6.34791 10.2212 7.31853 7.82767 9.02636Z" fill="#222222" stroke="#222222"/>
<path d="M18.8334 11.7594C17.9948 11.199 17.0087 10.8999 16 10.8999C14.6474 10.8999 13.3502 11.4372 12.3938 12.3937L12.0402 12.0401L12.3938 12.3937C11.4374 13.3501 10.9 14.6473 10.9 15.9999C10.9 17.0086 11.1991 17.9946 11.7595 18.8333C12.3199 19.672 13.1164 20.3257 14.0483 20.7117C14.9803 21.0977 16.0057 21.1987 16.995 21.0019C17.9843 20.8051 18.893 20.3194 19.6063 19.6061C20.3195 18.8929 20.8053 17.9842 21.002 16.9949C21.1988 16.0056 21.0978 14.9801 20.7118 14.0482C20.3258 13.1163 19.6721 12.3198 18.8334 11.7594ZM18.3519 19.5198C17.6558 19.985 16.8373 20.2332 16 20.2332C14.8773 20.2332 13.8005 19.7872 13.0066 18.9933C12.2127 18.1994 11.7667 17.1227 11.7667 15.9999C11.7667 15.1626 12.015 14.3442 12.4801 13.648C12.9453 12.9518 13.6065 12.4092 14.38 12.0888C15.1535 11.7684 16.0047 11.6846 16.8259 11.8479C17.6471 12.0113 18.4014 12.4144 18.9935 13.0065C19.5855 13.5985 19.9887 14.3528 20.152 15.174C20.3154 15.9952 20.2315 16.8464 19.9111 17.6199C19.5907 18.3935 19.0481 19.0546 18.3519 19.5198Z" fill="black" stroke="black"/>
</svg>
