<svg width="18" height="18" viewBox="0 0 18 18" fill="none" xmlns="http://www.w3.org/2000/svg">
<g clip-path="url(#clip0)">
<rect opacity="0.2" x="5" y="7" width="8" height="1" fill="#236852"/>
<path d="M13.2287 8.1748V6.96113C13.4046 6.53892 13.8075 5.39453 13.744 3.89441C13.703 2.92745 14.278 0.976366 14.2838 0.956759L14.3968 0.575594L11.8934 0L11.8068 0.359391C11.8056 0.364508 11.6726 0.88438 11.2677 1.39615C10.7223 2.08576 9.95982 2.43541 9.00168 2.43541C6.73836 2.43541 6.21726 0.4429 6.19653 0.359391L6.10999 0L3.6065 0.575669L3.71962 0.956833C3.72545 0.976403 4.30048 2.9263 4.2594 3.89448C4.19588 5.39468 4.59881 6.53915 4.77465 6.96124V8.168L1.13867 16.3675L1.35051 16.5483C1.41993 16.6076 3.11867 18 8.99999 18C14.8817 18 16.5807 16.6076 16.6501 16.5484L16.862 16.3675L13.2287 8.1748ZM5.52159 7.8736V7.34357H12.4818V7.8736H5.52159ZM5.58833 0.886397C5.68984 1.14051 5.86578 1.50046 6.14981 1.85955C6.62714 2.46301 7.50943 3.18235 9.00168 3.18235C10.4939 3.18235 11.3762 2.46301 11.8535 1.85955C12.1376 1.50046 12.3135 1.14051 12.415 0.886397L13.4606 1.12684C13.2857 1.77896 12.963 3.10877 12.9977 3.92608C13.0512 5.18979 12.7305 6.18401 12.5695 6.59662H5.43308C5.27196 6.18629 4.95182 5.19753 5.00571 3.92608C5.04037 3.10877 4.71762 1.77892 4.54272 1.1268L5.58833 0.886397ZM14.6873 16.614C12.8806 17.1421 10.5974 17.253 9.00018 17.253C7.40299 17.253 5.11988 17.1421 3.31332 16.614C2.68541 16.4304 2.28766 16.2457 2.06428 16.1229L5.3911 8.62054H6.77672L6.04348 11.8762L6.7722 12.0404L7.54237 8.62058H10.4262L11.1964 12.0404L11.9251 11.8762L11.1919 8.62054H12.6094L15.9364 16.1229C15.713 16.2457 15.3152 16.4305 14.6873 16.614Z" fill="#666666"/>
</g>
<defs>
<clipPath id="clip0">
<rect width="18" height="18" fill="white"/>
</clipPath>
</defs>
</svg>
