<svg width="18" height="18" viewBox="0 0 18 18" fill="none" xmlns="http://www.w3.org/2000/svg">
<path opacity="0.2" d="M1 12H17V13.3684C17 13.7172 16.4192 14 15.7027 14H2.2973C1.58082 14 1 13.7172 1 13.3684V12Z" fill="#EBEBEB"/>
<path fill-rule="evenodd" clip-rule="evenodd" d="M2.14514 2.521H15.8552C16.0995 2.521 16.2975 2.719 16.2975 2.96326V12H1.70288V2.96326C1.70288 2.719 1.90089 2.521 2.14514 2.521ZM1.70288 12.8845V13.3564C1.70288 13.6006 1.90089 13.7986 2.14514 13.7986H15.8552C16.0995 13.7986 16.2975 13.6006 16.2975 13.3564V12.8845H1.70288ZM0.818359 2.96326C0.818359 2.2305 1.41238 1.63647 2.14514 1.63647H15.8552C16.588 1.63647 17.182 2.23049 17.182 2.96326V13.3564C17.182 14.0891 16.588 14.6832 15.8552 14.6832H2.14514C1.41238 14.6832 0.818359 14.0891 0.818359 13.3564V2.96326Z" fill="white"/>
<path fill-rule="evenodd" clip-rule="evenodd" d="M13.2013 16.4521L5.01953 16.4521L5.01953 15.5676L13.2013 15.5676L13.2013 16.4521Z" fill="white"/>
</svg>
