<svg width="111" height="18" fill="none" xmlns="http://www.w3.org/2000/svg">
  <path fill-rule="evenodd" clip-rule="evenodd" d="M64.345 12.5055V5.36719h6.2816c.549 0 .9812.11485 1.255.34514.2358.19171.3933.57543.3933 1.03657v1.61172c0 .46085-.1575.84428-.3933 1.03599-.2738.23058-.706.34515-1.255.34515h-4.5938v2.76374H64.345zm5.4961-5.91031h-3.8083v1.91828h3.8083c.3136 0 .5102-.03743.6286-.15285.0786-.07686.1569-.23058.1569-.42229v-.76771c0-.192-.0783-.34572-.1569-.42172-.1184-.11514-.315-.15371-.6286-.15371zM73.6987 12.5055V5.36719h6.2425c.5897 0 1.0198.11485 1.2939.34514.2364.19171.3939.57543.3939 1.03657v1.68829c0 .49857-.1575.84485-.3939 1.03657-.2741.23-.7042.34514-1.2939.34514h-.9427l3.3768 2.6866h-2.4341l-2.9443-2.6866h-1.611v2.6866h-1.6872zm5.4968-5.91031h-3.8096V8.5909h3.8096c.3129 0 .5102-.03886.6273-.11486.0786-.07714.1581-.23085.1581-.46057v-.84485c0-.192-.0795-.34572-.1581-.42172-.1171-.11514-.3144-.15371-.6273-.15371zM83.6316 12.5055V5.36719h7.4972v1.228h-5.7703v1.57343h3.3753v1.22799h-3.3753V11.162h5.8486v1.3435h-7.5755zM99.1833 6.63376h-4.789v1.53486h4.554c.706 0 1.2167.11514 1.4527.34514.273.23086.392.69114.392 1.34371v.95973c0 .6514-.119 1.112-.392 1.3428-.236.2303-.7467.3455-1.4527.3455h-4.5137c-.7074 0-1.177-.1152-1.4531-.3455-.235-.2308-.3533-.6914-.3533-1.3428v-.1926l1.4929-.3066v.844h5.142V9.55033h-4.5544c-.7057 0-1.1764-.11514-1.4125-.38372-.2753-.23085-.3939-.65285-.3939-1.30514v-.80571c0-.65229.1186-1.07457.3939-1.30486.2361-.26886.7068-.38371 1.4125-.38371h4.1605c.7065 0 1.1778.11485 1.4138.34514.273.23029.391.65257.391 1.22771v.15429l-1.4907.34486v-.80543zM108.857 6.63376h-4.787v1.53486h4.554c.706 0 1.177.11514 1.451.34514.236.23086.354.69114.354 1.34371v.95973c0 .6514-.118 1.112-.354 1.3428-.274.2303-.745.3455-1.451.3455h-4.514c-.707 0-1.217-.1152-1.454-.3455-.275-.2308-.391-.6914-.391-1.3428v-.1926l1.492-.3066v.844h5.18V9.55033h-4.553c-.706 0-1.178-.11514-1.451-.38372-.237-.23085-.355-.65285-.355-1.30514v-.80571c0-.65229.118-1.07457.355-1.30486.273-.26886.745-.38371 1.451-.38371h4.161c.667 0 1.138.11485 1.412.34514.275.23029.394.65257.394 1.22771v.15429l-1.494.34486v-.80543zM53.2847 12.5055l3.4542-3.64603-3.5328-3.49228h2.2768l2.317 2.41743 2.2362-2.41743h1.9231l-3.1787 3.30028 3.9644 3.83803h-2.316l-2.6682-2.76374-2.4741 2.76374h-2.0019zM18.2397 12.5055L14 5.36719h1.9628l2.944 5.18081 2.8259-5.18081h1.6878L19.417 12.5055h-1.1773zM24.7524 12.5055V5.36719h1.1382l5.1417 4.22142c.1967.15315.3544.26858.4716.384.1572.11489.2747.26829.3927.38399-.0394-.38399-.0791-.69141-.0791-.84427V5.36719h1.5314v7.13831h-1.177l-5.3787-4.41346c-.1169-.11514-.2352-.192-.3138-.30742-.1181-.07658-.1949-.15315-.2738-.26829.0392.23.0391.422.0391.65229.0398.192.0398.34485.0398.49885v3.83803h-1.5321z" fill="#828282"/>
  <path fill-rule="evenodd" clip-rule="evenodd" d="M51.4247 17.1429c0 .4734-.3924.8571-.8766.8571H35.9377c-.4842 0-.8767-.3837-.8767-.8571V.857143C35.061.383714 35.4535 0 35.9377 0h14.6104c.4842 0 .8766.383714.8766.857143V17.1429z" fill="#9F224E"/>
  <path fill-rule="evenodd" clip-rule="evenodd" d="M40.3207 6.88728v.82714H44.4116v2.57138H40.3207v3.1429H49.0869v2.2857H37.3986V2.28585h11.6883v2.28572H40.3207v2.31571zm.8766-1.45857h7.9744c.4839 0 .7919-.354.7919-.82714V2.31585c0-.47314-.308-.88714-.7919-.88714H37.4833c-.4842 0-.9613.414-.9613.88714V15.7444c0 .4732.4771.8272.9613.8272H49.1717c.4839 0 .7919-.354.7919-.8272v-2.2857c0-.4731-.308-.8871-.7919-.8871h-7.9744V11.143h3.299c.4839 0 .7919-.354.7919-.8271V7.74442c0-.47314-.308-.88714-.7919-.88714h-3.299V5.42871z" fill="#fff"/>
  <path d="M4.86457 14.6677c-.12449.0004-.2475-.027-.35998-.0804-.11249-.0534-.21158-.1312-.29002-.2279L.189573 9.35938C.0670052 9.21027 0 9.02323 0 8.83021c0-.19302.0670052-.38006.189573-.52917l4.166667-5c.14145-.17018.34471-.2772.56506-.29751.22036-.02032.43976.04773.60994.18918.17018.14145.2772.34471.29752.56506.02031.22036-.04774.43976-.18919.60994l-3.725 4.46667 3.6 4.46662c.10191.1224.16664.2713.18654.4293.0199.1579-.00587.3183-.07425.4621-.06838.1437-.17651.2649-.3116.3491-.1351.0843-.29149.1281-.45069.1262z" fill="#757575"/>
</svg>
