<svg xmlns="http://www.w3.org/2000/svg" xmlns:xlink="http://www.w3.org/1999/xlink" width="56" height="20" viewBox="0 0 56 20">
    <defs>
        <path id="a" d="M0 0h56v20H0z"/>
        <path id="c" d="M.056.07h17.843v17.922H.056z"/>
    </defs>
    <g fill="none" fill-rule="evenodd">
        <mask id="b" fill="#fff">
            <use xlink:href="#a"/>
        </mask>
        <use fill="#FFF" xlink:href="#a"/>
        <g mask="url(#b)">
            <path fill="#243B80" d="M11.647 16.882h3.177V4.176h-3.177zM31.779 12.417c-.32-.824-3.242-8.24-3.242-8.24l-3.125.002.054.135 4.954 12.568h2.71L38.118 4.18h-3.135s-2.694 6.87-3.204 8.238M24.376 5.425c-1.173-.903-2.6-1.25-5.115-1.249h-3.379v12.706h3.2c2.489 0 3.794-.254 4.929-.972 1.62-1.034 2.461-2.92 2.46-5.398.001-2.28-.707-4.016-2.095-5.087m-2.207 8.8c-.645.453-1.64.688-3.023.688h-.482V6.145h.393c1.824.002 2.46.144 3.164.653.923.695 1.458 2.053 1.458 3.731s-.553 3.034-1.51 3.696M7.882 10.393c1.586-.439 2.378-1.385 2.367-2.81.002-1.24-.67-2.31-1.818-2.818-.967-.444-1.986-.589-4.15-.589H0v12.706h4.786c2.024 0 3.041-.164 3.965-.628 1.185-.613 1.838-1.666 1.837-2.923.01-1.542-.917-2.53-2.706-2.938zM2.813 6.177h.878c1.441 0 2.407-.05 2.944.226.496.247.8.594.8 1.276-.001.627-.278.977-.778 1.246-.44.236-1.551.348-2.852.346h-.992V6.177zm3.962 8.566c-.514.223-1.364.196-2.85.196H2.81v-3.281h1.136c1.191 0 2.163.046 2.747.227.712.22 1.08.67 1.08 1.418 0 .87-.414 1.187-.998 1.44z"/>
            <path fill="#FFFFFE" d="M46.588 2.059l-8.47 8.471L46.583 19l.004-.002 8.472-8.465-8.47-8.471"/>
            <path fill="#D8262C" d="M45.531 4.176l-.002 7.411h1.657l1.519.001v-7.41l-1.519-.002"/>
            <g transform="translate(38.118 1)">
                <mask id="d" fill="#fff">
                    <use xlink:href="#c"/>
                </mask>
                <path fill="#243B80" d="M11.267 9.04l-.755.002.001-4.244h.755c.766 0 1.35.952 1.355 2.12.009 1.143-.587 2.122-1.356 2.122M6.049 4.797h1.397V9.04H6.05V4.797" mask="url(#d)"/>
                <path fill="#D8262C" d="M.056 9.035l.073.075L8.977 18l8.922-8.962L8.98.07m-.003 17.353l-.004.002-8.349-8.39L8.977.643v.002l8.354 8.393-8.355 8.385" mask="url(#d)"/>
            </g>
            <path fill="#D8262C" d="M47.115 14.804L43.11 10.53h-3.933l6.924 7.388L47.115 19l7.944-8.47h-3.934"/>
        </g>
    </g>
</svg>
