<svg width="99" height="22" viewBox="0 0 99 22" fill="none" xmlns="http://www.w3.org/2000/svg">
<path d="M0.084 2.182H7V3.482L4.686 3.794L8.976 15.988L9.938 19.16L10.796 15.936L14.67 3.794L12.616 3.482V2.182H18.414V3.482L16.75 3.794L10.588 21.708H8.326L1.67 3.794L0.084 3.482V2.182ZM19.088 17.6C19.088 15.9707 19.9026 14.7747 21.532 14.012C23.1613 13.232 25.224 12.816 27.72 12.764V12.036C27.72 11.2213 27.6333 10.58 27.46 10.112C27.2866 9.644 26.9833 9.306 26.55 9.098C26.134 8.87267 25.536 8.76 24.756 8.76C23.872 8.76 23.0746 8.89 22.364 9.15C21.6706 9.39267 20.9773 9.696 20.284 10.06L19.634 8.708C19.8593 8.51733 20.2753 8.266 20.882 7.954C21.4886 7.642 22.1906 7.36467 22.988 7.122C23.7853 6.87933 24.5826 6.758 25.38 6.758C26.6106 6.758 27.5813 6.93133 28.292 7.278C29.02 7.60733 29.54 8.14467 29.852 8.89C30.164 9.63533 30.32 10.632 30.32 11.88V20.226H31.854V21.37C31.5073 21.4567 31.0653 21.5433 30.528 21.63C30.008 21.7167 29.5486 21.76 29.15 21.76C28.6646 21.76 28.3353 21.682 28.162 21.526C27.9886 21.3873 27.902 21.0667 27.902 20.564V19.706C27.382 20.226 26.7406 20.7027 25.978 21.136C25.2326 21.5693 24.3833 21.786 23.43 21.786C22.182 21.786 21.142 21.4307 20.31 20.72C19.4953 19.992 19.088 18.952 19.088 17.6ZM24.548 20.018C24.9986 20.018 25.5186 19.8793 26.108 19.602C26.6973 19.3247 27.2346 18.9953 27.72 18.614V14.142C25.8306 14.142 24.4006 14.4367 23.43 15.026C22.4766 15.598 22 16.352 22 17.288C22 18.224 22.2253 18.9173 22.676 19.368C23.144 19.8013 23.768 20.018 24.548 20.018ZM33.3502 14.376C33.3502 12.9373 33.6275 11.6373 34.1822 10.476C34.7542 9.31467 35.5862 8.396 36.6782 7.72C37.7875 7.02667 39.1135 6.68 40.6562 6.68C41.4015 6.68 42.0429 6.74933 42.5802 6.888C43.1175 7.02667 43.7589 7.21733 44.5042 7.46L44.4002 11.464H42.7102L42.1382 8.812C42.0342 8.32667 41.3755 8.084 40.1622 8.084C38.9489 8.084 37.9869 8.578 37.2762 9.566C36.5829 10.5367 36.2362 11.9233 36.2362 13.726C36.2362 15.7713 36.6262 17.3313 37.4062 18.406C38.2035 19.4633 39.2349 19.992 40.5002 19.992C41.2282 19.992 41.9129 19.8793 42.5542 19.654C43.2129 19.4287 43.7762 19.16 44.2442 18.848L44.7382 19.888C44.2702 20.3733 43.5769 20.8153 42.6582 21.214C41.7569 21.5953 40.8382 21.786 39.9022 21.786C38.4809 21.786 37.2762 21.4653 36.2882 20.824C35.3175 20.1827 34.5809 19.3073 34.0782 18.198C33.5929 17.0713 33.3502 15.7973 33.3502 14.376ZM46.6803 14.376C46.6803 12.9373 46.9576 11.6373 47.5123 10.476C48.0843 9.31467 48.9163 8.396 50.0083 7.72C51.1176 7.02667 52.4436 6.68 53.9863 6.68C54.7316 6.68 55.3729 6.74933 55.9103 6.888C56.4476 7.02667 57.0889 7.21733 57.8343 7.46L57.7303 11.464H56.0403L55.4683 8.812C55.3643 8.32667 54.7056 8.084 53.4923 8.084C52.2789 8.084 51.3169 8.578 50.6063 9.566C49.9129 10.5367 49.5663 11.9233 49.5663 13.726C49.5663 15.7713 49.9563 17.3313 50.7363 18.406C51.5336 19.4633 52.5649 19.992 53.8303 19.992C54.5583 19.992 55.2429 19.8793 55.8843 19.654C56.5429 19.4287 57.1063 19.16 57.5743 18.848L58.0683 19.888C57.6003 20.3733 56.9069 20.8153 55.9883 21.214C55.0869 21.5953 54.1683 21.786 53.2323 21.786C51.8109 21.786 50.6063 21.4653 49.6183 20.824C48.6476 20.1827 47.9109 19.3073 47.4083 18.198C46.9229 17.0713 46.6803 15.7973 46.6803 14.376ZM63.3903 4.47C62.8357 4.47 62.4197 4.314 62.1423 4.002C61.865 3.69 61.7263 3.29133 61.7263 2.806C61.7263 2.25133 61.891 1.792 62.2203 1.428C62.567 1.064 63.035 0.881999 63.6243 0.881999C64.2137 0.881999 64.647 1.038 64.9243 1.35C65.2017 1.662 65.3403 2.06067 65.3403 2.546C65.3403 3.13533 65.167 3.60333 64.8203 3.95C64.491 4.29667 64.023 4.47 63.4163 4.47H63.3903ZM62.3503 9.072L60.3743 8.604V7.226L64.4043 6.732H64.4563L65.0543 7.2V20.018L67.1343 20.226V21.5H60.2443V20.226L62.3503 19.992V9.072ZM70.5405 9.072L68.6685 8.604V7.2L72.3865 6.732H72.4645L73.0105 7.2V8.292L72.9845 8.916C73.6085 8.36133 74.4319 7.85867 75.4545 7.408C76.4772 6.95733 77.4565 6.732 78.3925 6.732C79.4845 6.732 80.3252 6.94 80.9145 7.356C81.5212 7.772 81.9459 8.41333 82.1885 9.28C82.4312 10.1293 82.5525 11.282 82.5525 12.738V20.018L84.3725 20.2V21.5H78.2105V20.226L79.8225 20.018V12.712C79.8225 11.6893 79.7532 10.892 79.6145 10.32C79.4759 9.73067 79.2159 9.29733 78.8345 9.02C78.4532 8.72533 77.8985 8.578 77.1705 8.578C76.5465 8.578 75.8792 8.734 75.1685 9.046C74.4579 9.358 73.8252 9.722 73.2705 10.138V19.992L75.0385 20.226V21.5H68.9025V20.226L70.5405 19.992V9.072ZM92.6422 21.786C90.5448 21.786 88.9415 21.1013 87.8322 19.732C86.7402 18.3627 86.1942 16.534 86.1942 14.246C86.1942 12.738 86.4802 11.412 87.0522 10.268C87.6242 9.124 88.4215 8.24 89.4442 7.616C90.4842 6.992 91.6628 6.68 92.9802 6.68C94.5922 6.68 95.8402 7.13067 96.7242 8.032C97.6255 8.916 98.1022 10.19 98.1542 11.854C98.1542 12.9113 98.0935 13.7173 97.9722 14.272H89.0282C89.0628 15.988 89.4615 17.3747 90.2242 18.432C90.9868 19.472 92.0702 19.992 93.4742 19.992C94.1675 19.992 94.8868 19.8707 95.6322 19.628C96.3948 19.368 96.9842 19.0647 97.4002 18.718L97.8942 19.862C97.3915 20.382 96.6462 20.8327 95.6582 21.214C94.6702 21.5953 93.6648 21.786 92.6422 21.786ZM95.2942 12.894C95.3462 12.53 95.3722 12.1573 95.3722 11.776C95.3548 10.6493 95.1122 9.76533 94.6442 9.124C94.1935 8.46533 93.4742 8.136 92.4862 8.136C91.4808 8.136 90.6748 8.5 90.0682 9.228C89.4788 9.956 89.1408 11.178 89.0542 12.894H95.2942Z" fill="#FFFEFD"/>
</svg>
