<svg width="16" height="16" viewBox="0 0 16 16" fill="none" xmlns="http://www.w3.org/2000/svg">
<path d="M5.08335 1H2.75002C2.59531 1 2.44694 1.06146 2.33754 1.17085C2.22815 1.28025 2.16669 1.42862 2.16669 1.58333C2.16669 1.73804 2.22815 1.88642 2.33754 1.99581C2.44694 2.10521 2.59531 2.16667 2.75002 2.16667H3.33335V3.33333H4.50002V2.16667H5.08335C5.23806 2.16667 5.38644 2.10521 5.49583 1.99581C5.60523 1.88642 5.66669 1.73804 5.66669 1.58333C5.66669 1.42862 5.60523 1.28025 5.49583 1.17085C5.38644 1.06146 5.23806 1 5.08335 1V1Z" fill="#828282"/>
<path d="M13.25 1H10.9166C10.7619 1 10.6136 1.06146 10.5042 1.17085C10.3948 1.28025 10.3333 1.42862 10.3333 1.58333C10.3333 1.73804 10.3948 1.88642 10.5042 1.99581C10.6136 2.10521 10.7619 2.16667 10.9166 2.16667H11.5V3.33333H12.6666V2.16667H13.25C13.4047 2.16667 13.5531 2.10521 13.6625 1.99581C13.7719 1.88642 13.8333 1.73804 13.8333 1.58333C13.8333 1.42862 13.7719 1.28025 13.6625 1.17085C13.5531 1.06146 13.4047 1 13.25 1V1Z" fill="#828282"/>
<path d="M14.4167 4.5H1.58333C1.42862 4.5 1.28025 4.56146 1.17085 4.67085C1.06146 4.78025 1 4.92862 1 5.08333L1 14.4167C1 14.5714 1.06146 14.7198 1.17085 14.8291C1.28025 14.9385 1.42862 15 1.58333 15H14.4167C14.5714 15 14.7198 14.9385 14.8291 14.8291C14.9385 14.7198 15 14.5714 15 14.4167V5.08333C15 4.92862 14.9385 4.78025 14.8291 4.67085C14.7198 4.56146 14.5714 4.5 14.4167 4.5ZM3.91667 6.83333H6.25V8H3.91667V6.83333ZM12.0833 12.0833C12.0833 12.238 12.0219 12.3864 11.9125 12.4958C11.8031 12.6052 11.6547 12.6667 11.5 12.6667H4.5C4.34529 12.6667 4.19692 12.6052 4.08752 12.4958C3.97813 12.3864 3.91667 12.238 3.91667 12.0833V10.3333C3.91667 10.1786 3.97813 10.0303 4.08752 9.92085C4.19692 9.81146 4.34529 9.75 4.5 9.75H11.5C11.6547 9.75 11.8031 9.81146 11.9125 9.92085C12.0219 10.0303 12.0833 10.1786 12.0833 10.3333V12.0833ZM12.0833 8H9.75V6.83333H12.0833V8Z" fill="#828282"/>
</svg>
