<svg width="32" height="32" viewBox="0 0 32 32" fill="none" xmlns="http://www.w3.org/2000/svg">
<path d="M20.6666 5.33331C21.0346 5.33331 21.3333 5.03463 21.3333 4.66663C21.3333 4.29863 21.0346 4 20.6666 4C20.2986 4 19.9999 4.29869 19.9999 4.66669C19.9999 5.03469 20.2986 5.33331 20.6666 5.33331Z" fill="#171C27"/>
<path d="M15.9999 10.6667C13.7946 10.6667 11.9999 12.4614 11.9999 14.6667C11.9999 15.0347 12.2986 15.3334 12.6666 15.3334C13.0346 15.3334 13.3333 15.0347 13.3333 14.6667C13.3332 13.1961 14.5292 12.0001 15.9999 12.0001C16.3679 12.0001 16.6666 11.7014 16.6666 11.3334C16.6666 10.9654 16.3679 10.6667 15.9999 10.6667Z" fill="#171C27"/>
<path d="M15.9999 5.33325C10.8533 5.33325 6.66663 9.51994 6.66663 14.6666C6.66663 19.8132 10.8533 23.9999 15.9999 23.9999C21.1466 23.9999 25.3333 19.8133 25.3333 14.6666C25.3333 9.52 21.1466 5.33325 15.9999 5.33325ZM15.9999 22.6666C11.5879 22.6666 7.99994 19.0786 7.99994 14.6666C7.99994 10.2546 11.5879 6.66663 15.9999 6.66663C20.4119 6.66663 23.9999 10.2546 23.9999 14.6666C23.9999 19.0786 20.4119 22.6666 15.9999 22.6666Z" fill="#171C27"/>
<path d="M15.9999 8C12.3239 8 9.33325 10.9907 9.33325 14.6667C9.33325 18.3427 12.3239 21.3334 15.9999 21.3334C19.6759 21.3334 22.6666 18.3427 22.6666 14.6667C22.6666 10.9907 19.6759 8 15.9999 8ZM15.9999 20C13.0586 20 10.6666 17.608 10.6666 14.6667C10.6666 11.7254 13.0586 9.33337 15.9999 9.33337C18.9413 9.33337 21.3333 11.7254 21.3333 14.6667C21.3333 17.608 18.9413 20 15.9999 20Z" fill="#171C27"/>
<path d="M26.6839 24.6827C29.1453 22.0574 30.6666 18.54 30.6666 14.6667C30.6666 6.58 24.0866 0 15.9999 0C7.91325 0 1.33325 6.58 1.33325 14.6667C1.33325 18.5414 2.85456 22.0587 5.31725 24.684L4.65194 28.0133C4.45463 28.996 4.70794 30.004 5.34263 30.78C5.97725 31.556 6.91725 32 7.91994 32H24.0813C25.0826 32 26.0239 31.5547 26.6586 30.78C27.2933 30.0053 27.5452 28.996 27.3493 28.0133L26.6839 24.6827ZM25.6279 29.9347C25.2466 30.4 24.6826 30.6667 24.0813 30.6667H7.91994C7.31725 30.6667 6.75463 30.4 6.37325 29.9347C5.99188 29.4694 5.84125 28.864 5.95856 28.2747L6.45725 25.78C9.02525 27.9893 12.3559 29.3333 15.9999 29.3333C19.6453 29.3333 22.9759 27.988 25.5439 25.78L26.0426 28.2747C26.1599 28.8653 26.0093 29.4693 25.6279 29.9347ZM15.9999 28C8.64794 28 2.66663 22.0187 2.66663 14.6667C2.66663 7.31469 8.64794 1.33331 15.9999 1.33331C23.3519 1.33331 29.3333 7.31462 29.3333 14.6666C29.3333 22.0186 23.3519 28 15.9999 28Z" fill="#171C27"/>
</svg>
