<svg width="32" height="32" viewBox="0 0 32 32" fill="none" xmlns="http://www.w3.org/2000/svg">
<g clip-path="url(#clip0)">
<path d="M28.6655 26.6663H3.33316C2.96518 26.6663 2.6665 26.9649 2.6665 27.3329C2.6665 27.7009 2.96518 27.9996 3.33316 27.9996H28.6654C29.0334 27.9996 29.3321 27.7009 29.3321 27.3329C29.3321 26.9649 29.0335 26.6663 28.6655 26.6663Z" fill="#171C27"/>
<path d="M7.99964 25.333C8.73561 25.333 9.3329 24.7357 9.3329 23.9998C9.3329 23.2638 8.73561 22.6665 7.99964 22.6665C7.26367 22.6665 6.66638 23.2638 6.66638 23.9998C6.66638 24.7357 7.26236 25.333 7.99964 25.333Z" fill="#171C27"/>
<path d="M3.99988 25.333C4.73585 25.333 5.33314 24.7357 5.33314 23.9997C5.33314 23.2637 4.73585 22.6664 3.99988 22.6664C3.26391 22.6664 2.66663 23.2637 2.66663 23.9996C2.66663 24.7356 3.2626 25.333 3.99988 25.333Z" fill="#171C27"/>
<path d="M31.748 21.5424L28.2482 14.54C28.0828 14.2121 27.6842 14.0748 27.3535 14.2414C27.0242 14.4054 26.8895 14.8067 27.0548 15.136L29.4934 20.0158C29.4387 20.0131 29.3867 19.9998 29.3321 19.9998H2.66658C2.61058 19.9998 2.55858 20.0131 2.5039 20.0158L8.08236 8.85228C8.10236 8.82559 8.11835 8.79497 8.13304 8.76559C8.35703 8.29361 8.81701 8.00031 9.33299 8.00031H17.9993C18.3672 8.00031 18.6659 7.70164 18.6659 7.33365C18.6659 6.96567 18.3672 6.66699 17.9993 6.66699H9.33293C8.34228 6.66699 7.42501 7.23228 6.96771 8.11093C6.95171 8.13624 6.93703 8.16024 6.92372 8.18693L0.250677 21.5411C0.246677 21.5491 0.24799 21.5584 0.24399 21.5664C0.0893088 21.9024 0 22.2731 0 22.6664V27.9995C0 29.4701 1.19595 30.6661 2.66658 30.6661H29.3322C30.8028 30.6661 31.9987 29.4701 31.9987 27.9995V22.6664C31.9987 22.2731 31.9081 21.9024 31.7548 21.5664C31.7507 21.5584 31.7507 21.5504 31.748 21.5424ZM30.6654 27.9996C30.6654 28.7355 30.0668 29.3328 29.3322 29.3328H2.66658C1.93192 29.3328 1.33332 28.7355 1.33332 27.9996V22.6665C1.33332 21.9305 1.93198 21.3332 2.66658 21.3332H29.3322C30.0668 21.3332 30.6654 21.9305 30.6654 22.6665V27.9996Z" fill="#171C27"/>
<path d="M31.3334 1.33398C30.9654 1.33398 30.6667 1.63266 30.6667 2.00064V3.47527C29.5468 2.31401 27.8482 1.33405 26.0002 1.33405C22.6924 1.33405 20.0005 4.02594 20.0005 7.3338C20.0005 10.6417 22.6924 13.3336 26.0002 13.3336C26.3695 13.3336 26.6669 13.0349 26.6669 12.6669C26.6669 12.2989 26.3682 12.0002 26.0002 12.0002C23.427 12.0002 21.3337 9.90701 21.3337 7.33374C21.3337 4.76053 23.427 2.66724 26.0002 2.66724C28.0628 2.66724 29.8241 4.24449 30.4267 5.33382H27.3336C26.9656 5.33382 26.6669 5.6325 26.6669 6.00048C26.6669 6.36847 26.9656 6.66714 27.3336 6.66714H31.3334C31.7027 6.66714 32.0001 6.36847 32.0001 6.00048V2.00064C32 1.63266 31.7014 1.33398 31.3334 1.33398Z" fill="#171C27"/>
</g>
<defs>
<clipPath id="clip0">
<path d="M0 0H32V32H0V0Z" fill="white"/>
</clipPath>
</defs>
</svg>
