<svg width="32" height="32" viewBox="0 0 32 32" fill="none" xmlns="http://www.w3.org/2000/svg">
<path d="M30 2.66675H2C0.897313 2.66675 0 3.56406 0 4.66675V23.3334C0 24.4361 0.897313 25.3334 2 25.3334H13.3333V26.7694L5.89062 28.0094C5.52794 28.0694 5.28263 28.4134 5.34263 28.7761C5.39731 29.1028 5.67994 29.3334 5.99994 29.3334C6.03594 29.3334 6.07194 29.3308 6.10925 29.3241L14.0533 28.0001H17.9453L25.8893 29.3241C25.9266 29.3308 25.964 29.3334 26 29.3334C26.3213 29.3334 26.604 29.1027 26.656 28.7761C26.7173 28.4134 26.4707 28.0694 26.108 28.0094L18.6667 26.7694V25.3334H30C31.1027 25.3334 32 24.4361 32 23.3334V4.66675C32 3.56406 31.1027 2.66675 30 2.66675ZM17.3333 26.6668H14.6666V25.3334H17.3333V26.6668ZM30.6667 23.3334C30.6667 23.7014 30.368 24.0001 30 24.0001H2C1.632 24.0001 1.33331 23.7014 1.33331 23.3334V4.66675C1.33331 4.29875 1.632 4.00006 2 4.00006H30C30.368 4.00006 30.6667 4.29875 30.6667 4.66675V23.3334Z" fill="#171C27"/>
<path d="M28.6667 5.33337H3.33331C2.96531 5.33337 2.66663 5.63206 2.66663 6.00006V22.0001C2.66663 22.3681 2.96531 22.6667 3.33331 22.6667H28.6666C29.0346 22.6667 29.3333 22.3681 29.3333 22.0001V6.00006C29.3333 5.63206 29.0347 5.33337 28.6667 5.33337ZM28 21.3334H4V6.66675H28V21.3334Z" fill="#171C27"/>
</svg>
