<svg width="32" height="32" viewBox="0 0 32 32" fill="none" xmlns="http://www.w3.org/2000/svg">
<path d="M25.3333 13.3333H7.99994C7.63194 13.3333 7.33325 13.6319 7.33325 13.9999V28.6666C7.33325 29.0346 7.63194 29.3333 7.99994 29.3333H25.3333C25.7013 29.3333 25.9999 29.0346 25.9999 28.6666V13.9999C25.9999 13.6319 25.7013 13.3333 25.3333 13.3333ZM24.6666 27.9999H8.66663V14.6666H24.6666V27.9999Z" fill="#171C27"/>
<path d="M25.3333 0H9.33325C7.49594 0 5.99994 1.496 5.99994 3.33331V11.0573L3.52794 13.528C3.40394 13.6533 3.33325 13.8227 3.33325 14V16.6667C3.33325 17.0347 3.63194 17.3334 3.99994 17.3334H4.66663V19.7241L3.52794 20.8614C3.40394 20.9867 3.33325 21.1561 3.33325 21.3334V28.6667C3.33325 30.504 4.82925 32 6.66656 32H25.3333C27.1706 32 28.6666 30.504 28.6666 28.6667V3.33331C28.6666 1.496 27.1706 0 25.3333 0ZM27.3333 28.6667C27.3333 29.7694 26.4359 30.6667 25.3333 30.6667H6.66663C5.56394 30.6667 4.66663 29.7694 4.66663 28.6667V21.6093L5.80531 20.472C5.92925 20.3467 5.99994 20.1773 5.99994 20V16.6667C5.99994 16.2987 5.70125 16 5.33325 16H4.66663V14.276L7.13863 11.8053C7.26263 11.68 7.33331 11.5106 7.33331 11.3333V3.33331C7.33331 2.46531 7.892 1.732 8.66663 1.456V3.33331C8.66663 3.70131 8.96531 4 9.33331 4C9.70131 4 9.99994 3.70131 9.99994 3.33331V1.33331H11.3333V3.33331C11.3333 3.70131 11.6319 4 11.9999 4C12.3679 4 12.6666 3.70131 12.6666 3.33331V1.33331H13.9999V3.33331C13.9999 3.70131 14.2986 4 14.6666 4C15.0346 4 15.3333 3.70131 15.3333 3.33331V1.33331H16.6666V3.33331C16.6666 3.70131 16.9653 4 17.3333 4C17.7013 4 17.9999 3.70131 17.9999 3.33331V1.33331H19.3333V3.33331C19.3333 3.70131 19.6319 4 19.9999 4C20.3679 4 20.6666 3.70131 20.6666 3.33331V1.33331H21.9999V3.33331C21.9999 3.70131 22.2986 4 22.6666 4C23.0346 4 23.3333 3.70131 23.3333 3.33331V1.33331H24.6666V3.33331C24.6666 3.70131 24.9653 4 25.3333 4C25.7013 4 25.9999 3.70131 25.9999 3.33331V1.456C26.7746 1.732 27.3333 2.46531 27.3333 3.33331V28.6667Z" fill="#171C27"/>
</svg>
