<svg width="32" height="32" viewBox="0 0 32 32" fill="none" xmlns="http://www.w3.org/2000/svg">
<path d="M31.9867 24.6C31.9827 24.56 31.9747 24.5227 31.9627 24.484C31.948 24.4347 31.9307 24.3907 31.9067 24.3467C31.8974 24.3307 31.896 24.312 31.8867 24.2974L29.3334 20.4667V6.66669C29.3334 5.196 28.1374 4 26.6667 4H5.33331C3.86263 4 2.66663 5.196 2.66663 6.66669V20.4654L0.112 24.2973C0.1 24.3146 0.0986875 24.3346 0.0893125 24.352C0.066625 24.392 0.050625 24.4333 0.0373125 24.4787C0.024 24.5214 0.016 24.5627 0.012 24.6067C0.0106875 24.628 0 24.6453 0 24.6667V25.3334C0 26.804 1.196 28 2.66669 28H29.3334C30.804 28 32 26.804 32 25.3333V24.6666C32 24.6427 31.9893 24.6227 31.9867 24.6ZM4 6.66669C4 5.932 4.59869 5.33337 5.33331 5.33337H26.6666C27.4013 5.33337 27.9999 5.93206 27.9999 6.66669V20H4V6.66669ZM3.68931 21.3333H28.308L30.0853 24H19.3333C19.156 24 18.9866 24.0707 18.864 24.1947L18.392 24.6667H13.6107L13.1387 24.1947C13.0134 24.0707 12.844 24 12.6667 24H1.912L3.68931 21.3333ZM29.3333 26.6667H2.66669C1.932 26.6667 1.33337 26.068 1.33337 25.3334H12.3907L12.86 25.8054C12.9853 25.9294 13.1547 26.0001 13.332 26.0001H18.6653C18.8426 26.0001 19.012 25.9307 19.1373 25.8054L19.6093 25.3334H30.6666C30.6667 26.068 30.068 26.6667 29.3333 26.6667Z" fill="#171C27"/>
</svg>
