<svg width="32" height="32" viewBox="0 0 32 32" fill="none" xmlns="http://www.w3.org/2000/svg">
<path d="M22.0001 20.6667V23.3334C22.0001 23.7014 22.2988 24.0001 22.6668 24.0001H25.3335C25.7015 24.0001 26.0002 23.7014 26.0002 23.3334V20.6667C26.0002 20.2987 25.7015 20 25.3335 20H22.6668C22.2988 20 22.0001 20.2987 22.0001 20.6667ZM23.3334 21.3333H24.6667V22.6666H23.3334V21.3333Z" fill="#171C27"/>
<path d="M20.0001 18.6667H22.6667C23.0347 18.6667 23.3334 18.368 23.3334 18V15.3333C23.3334 14.9653 23.0347 14.6666 22.6667 14.6666H20.0001C19.6321 14.6666 19.3334 14.9653 19.3334 15.3333V18C19.3334 18.368 19.6321 18.6667 20.0001 18.6667ZM20.6667 16H22.0001V17.3333H20.6667V16Z" fill="#171C27"/>
<path d="M17.3333 20C16.9653 20 16.6666 20.2987 16.6666 20.6667V23.3334C16.6666 23.7014 16.9653 24.0001 17.3333 24.0001H20C20.368 24.0001 20.6667 23.7014 20.6667 23.3334V20.6667C20.6667 20.2987 20.368 20 20 20H17.3333ZM19.3333 22.6667H18V21.3334H19.3333V22.6667Z" fill="#171C27"/>
<path d="M14.6668 18.6667H17.3335C17.7015 18.6667 18.0002 18.368 18.0002 18V15.3333C18.0002 14.9653 17.7015 14.6666 17.3335 14.6666H14.6668C14.2988 14.6666 14.0001 14.9653 14.0001 15.3333V18C14.0001 18.368 14.2988 18.6667 14.6668 18.6667ZM15.3334 16H16.6667V17.3333H15.3334V16Z" fill="#171C27"/>
<path d="M22.6667 25.3334H9.33331C8.96531 25.3334 8.66663 25.6321 8.66663 26.0001V28.6667C8.66663 29.0347 8.96531 29.3334 9.33331 29.3334H22.6666C23.0346 29.3334 23.3333 29.0347 23.3333 28.6667V26.0001C23.3333 25.6321 23.0347 25.3334 22.6667 25.3334ZM22 28.0001H10V26.6667H22V28.0001Z" fill="#171C27"/>
<path d="M28 14.6667H25.3333C24.9653 14.6667 24.6666 14.9654 24.6666 15.3334V18.0001C24.6666 18.368 24.9653 18.6667 25.3333 18.6667H28C28.368 18.6667 28.6667 18.368 28.6667 18.0001V15.3334C28.6667 14.9654 28.368 14.6667 28 14.6667ZM27.3333 17.3334H26V16.0001H27.3333V17.3334Z" fill="#171C27"/>
<path d="M28 25.3334H25.3333C24.9653 25.3334 24.6666 25.6321 24.6666 26.0001V28.6667C24.6666 29.0347 24.9653 29.3334 25.3333 29.3334H28C28.368 29.3334 28.6667 29.0347 28.6667 28.6667V26.0001C28.6667 25.6321 28.368 25.3334 28 25.3334ZM27.3333 28.0001H26V26.6667H27.3333V28.0001Z" fill="#171C27"/>
<path d="M28.0001 12H16.6667V3.33331C16.6667 2.23063 17.5641 1.33331 18.6667 1.33331C19.7694 1.33331 20.6667 2.23063 20.6667 3.33331V6C20.6667 7.83731 22.1627 9.33331 24.0001 9.33331C25.8374 9.33331 27.3334 7.83731 27.3334 6V3.33331C27.3334 2.96531 27.0347 2.66663 26.6667 2.66663C26.2987 2.66663 26.0001 2.96531 26.0001 3.33331V6C26.0001 7.10269 25.1027 8 24.0001 8C22.8974 8 22.0001 7.10269 22.0001 6V3.33331C22.0001 1.496 20.5041 0 18.6667 0C16.8294 0 15.3334 1.496 15.3334 3.33331V12H4.00006C2.16275 12 0.666748 13.496 0.666748 15.3333V28.6666C0.666748 30.504 2.16275 32 4.00006 32H28.0001C29.8374 32 31.3334 30.504 31.3334 28.6667V15.3333C31.3334 13.496 29.8374 12 28.0001 12ZM30.0001 28.6667C30.0001 29.7694 29.1027 30.6667 28.0001 30.6667H4.00006C2.89737 30.6667 2.00006 29.7694 2.00006 28.6667V15.3333C2.00006 14.2306 2.89737 13.3333 4.00006 13.3333H28.0001C29.1027 13.3333 30.0001 14.2306 30.0001 15.3333V28.6667Z" fill="#171C27"/>
<path d="M6.66675 25.3334H4.00006C3.63206 25.3334 3.33337 25.6321 3.33337 26.0001V28.6667C3.33337 29.0347 3.63206 29.3334 4.00006 29.3334H6.66675C7.03475 29.3334 7.33344 29.0347 7.33344 28.6667V26.0001C7.33337 25.6321 7.03475 25.3334 6.66675 25.3334ZM6.00006 28.0001H4.66675V26.6667H6.00006V28.0001Z" fill="#171C27"/>
<path d="M6.66669 20C6.29869 20 6 20.2987 6 20.6667V23.3334C6 23.7014 6.29869 24.0001 6.66669 24.0001H9.33337C9.70138 24.0001 10.0001 23.7014 10.0001 23.3334V20.6667C10.0001 20.2987 9.70138 20 9.33337 20H6.66669ZM8.66669 22.6667H7.33337V21.3334H8.66669V22.6667Z" fill="#171C27"/>
<path d="M9.33331 18.6667H12C12.368 18.6667 12.6667 18.368 12.6667 18V15.3333C12.6667 14.9653 12.368 14.6666 12 14.6666H9.33331C8.96531 14.6666 8.66663 14.9653 8.66663 15.3333V18C8.66669 18.368 8.96531 18.6667 9.33331 18.6667ZM10 16H11.3333V17.3333H10V16Z" fill="#171C27"/>
<path d="M4.00006 18.6667H6.66675C7.03475 18.6667 7.33344 18.368 7.33344 18V15.3333C7.33344 14.9653 7.03475 14.6666 6.66675 14.6666H4.00006C3.63206 14.6666 3.33337 14.9653 3.33337 15.3333V18C3.33337 18.368 3.63206 18.6667 4.00006 18.6667ZM4.66675 16H6.00006V17.3333H4.66675V16Z" fill="#171C27"/>
<path d="M12.0001 20C11.6321 20 11.3334 20.2987 11.3334 20.6667V23.3334C11.3334 23.7014 11.6321 24.0001 12.0001 24.0001H14.6667C15.0347 24.0001 15.3334 23.7014 15.3334 23.3334V20.6667C15.3334 20.2987 15.0347 20 14.6667 20H12.0001ZM14.0001 22.6667H12.6667V21.3334H14.0001V22.6667Z" fill="#171C27"/>
</svg>
