<svg width="32" height="32" viewBox="0 0 32 32" fill="none" xmlns="http://www.w3.org/2000/svg">
<path d="M24.6667 0H7.33331C5.496 0 4 1.496 4 3.33331V28.6666C4 30.504 5.496 32 7.33331 32H24.6666C26.504 32 28 30.504 28 28.6667V3.33331C28 1.496 26.504 0 24.6667 0ZM26.6667 28.6667C26.6667 29.7694 25.7694 30.6667 24.6667 30.6667H7.33331C6.23063 30.6667 5.33331 29.7694 5.33331 28.6667V3.33331C5.33331 2.23063 6.23063 1.33331 7.33331 1.33331H24.6666C25.7693 1.33331 26.6666 2.23063 26.6666 3.33331V28.6667H26.6667Z" fill="#171C27"/>
<path d="M23.3094 17.7881C24.5734 16.1961 25.3347 14.1867 25.3347 12.0001C25.3347 6.85337 21.148 2.66675 16.0014 2.66675C10.8547 2.66675 6.66806 6.85337 6.66806 12.0001C6.66806 14.1601 7.42406 16.1694 8.69875 17.7788L6.73744 21.7014C6.69075 21.7948 6.66675 21.8961 6.66675 22.0001V28.6668C6.66675 29.0348 6.96544 29.3335 7.33344 29.3335H24.6667C25.0347 29.3335 25.3334 29.0348 25.3361 28.6668V22.0001C25.3361 21.8961 25.3121 21.7934 25.2654 21.7014L23.3094 17.7881ZM8.00137 12.0014C8.00137 7.58937 11.5894 4.00137 16.0014 4.00137C20.4134 4.00137 24.0014 7.58937 24.0014 12.0014C24.0014 16.1987 20.7521 19.6441 16.6374 19.9694L17.9454 16.9307C18.0694 16.644 17.9774 16.3107 17.7254 16.128C17.4747 15.944 17.1281 15.9587 16.8934 16.1653L13.1507 19.4493C10.0627 18.2694 8.00137 15.3321 8.00137 12.0014ZM15.5534 19.1161L13.2361 24.4948C13.1681 24.6654 13.0694 24.8174 12.9427 24.9441C12.4227 25.4641 11.5774 25.4641 11.0574 24.9441C10.8054 24.6921 10.6667 24.3588 10.6667 24.0014C10.6667 23.6441 10.8054 23.3107 11.0254 23.0881L15.5534 19.1161ZM24.0014 28.0001H8.00137V22.1574L9.66669 18.8254C10.3627 19.4707 11.1574 20.0107 12.0414 20.4241L10.1147 22.1147C9.61069 22.6174 9.33337 23.2868 9.33337 24.0001C9.33337 24.7121 9.61069 25.3814 10.1147 25.8854C10.6347 26.4054 11.3174 26.6654 12 26.6654C12.6826 26.6654 13.3653 26.4054 13.8853 25.8867C14.1413 25.6307 14.3413 25.3267 14.4693 25.0027L16.0506 21.3307C18.4786 21.3174 20.6839 20.368 22.3386 18.8307L24.0013 22.156V28.0001H24.0014Z" fill="#171C27"/>
<path d="M15.9999 14.6666C17.4706 14.6666 18.6666 13.4706 18.6666 11.9999C18.6666 10.5293 17.4706 9.33325 15.9999 9.33325C14.5293 9.33325 13.3333 10.5293 13.3333 11.9999C13.3333 13.4706 14.5293 14.6666 15.9999 14.6666ZM15.9999 10.6666C16.7346 10.6666 17.3333 11.2653 17.3333 11.9999C17.3333 12.7346 16.7346 13.3333 15.9999 13.3333C15.2653 13.3333 14.6666 12.7346 14.6666 11.9999C14.6666 11.2653 15.2653 10.6666 15.9999 10.6666Z" fill="#171C27"/>
</svg>
