<svg width="32" height="32" viewBox="0 0 32 32" fill="none" xmlns="http://www.w3.org/2000/svg">
<path d="M25.3333 13.3333C28.2746 13.3333 30.6666 10.9413 30.6666 7.99994H31.3333C31.7013 7.99994 32 7.70125 32 7.33325C32 4.02525 29.308 1.33325 26 1.33325C25.632 1.33325 25.3333 1.63194 25.3333 1.99994V2.66663C22.392 2.66663 20 5.05863 20 7.99994C20 10.9413 22.392 13.3333 25.3333 13.3333ZM26.6667 2.71325C28.7067 3.00794 30.3254 4.62656 30.6187 6.66656H26.6667V2.71325ZM25.3333 3.99994V7.33325C25.3333 7.70125 25.632 7.99994 26 7.99994H29.3333C29.3333 10.2053 27.5386 11.9999 25.3333 11.9999C23.128 11.9999 21.3333 10.2053 21.3333 7.99994C21.3333 5.79463 23.128 3.99994 25.3333 3.99994Z" fill="#171C27"/>
<path d="M28.6667 26.6666H3.33331C2.96531 26.6666 2.66663 26.9653 2.66663 27.3333C2.66663 27.7013 2.96531 28 3.33331 28H28.6666C29.0346 28 29.3333 27.7013 29.3333 27.3333C29.3333 26.9653 29.0347 26.6666 28.6667 26.6666Z" fill="#171C27"/>
<path d="M31.7493 21.5426L28.2493 14.5399C28.084 14.2119 27.684 14.0746 27.3546 14.2412C27.0253 14.4052 26.8906 14.8065 27.0559 15.1359L29.4946 20.0159C29.4413 20.0132 29.3893 19.9999 29.3333 19.9999H2.66669C2.61069 19.9999 2.55869 20.0132 2.504 20.0159L8.08269 8.85188C8.10269 8.82519 8.11869 8.79457 8.13338 8.76519C8.35738 8.29319 8.81738 7.99988 9.33337 7.99988H18C18.368 7.99988 18.6667 7.70119 18.6667 7.33319C18.6667 6.96519 18.368 6.6665 18 6.6665H9.33331C8.34262 6.6665 7.42531 7.23182 6.968 8.1105C6.952 8.13582 6.93731 8.15982 6.924 8.1865L0.250688 21.5412C0.246688 21.5492 0.248 21.5585 0.244 21.5679C0.0906875 21.9039 0 22.2732 0 22.6666V27.9999C0 29.4706 1.196 30.6666 2.66669 30.6666H29.3334C30.804 30.6666 32 29.4706 32 27.9999V22.6666C32 22.2733 31.9093 21.9026 31.756 21.5666C31.752 21.5586 31.7533 21.5506 31.7493 21.5426ZM30.6667 27.9999C30.6667 28.7359 30.068 29.3332 29.3334 29.3332H2.66669C1.932 29.3332 1.33337 28.7359 1.33337 27.9999V22.6666C1.33337 21.9306 1.93206 21.3333 2.66669 21.3333H29.3334C30.0681 21.3333 30.6667 21.9306 30.6667 22.6666V27.9999Z" fill="#171C27"/>
<path d="M8.00006 25.3333C8.73607 25.3333 9.33338 24.7359 9.33338 23.9999C9.33338 23.2639 8.73607 22.6666 8.00006 22.6666C7.26406 22.6666 6.66675 23.2639 6.66675 23.9999C6.66675 24.7359 7.26406 25.3333 8.00006 25.3333Z" fill="#171C27"/>
<path d="M4.00006 25.3333C4.73606 25.3333 5.33337 24.7359 5.33337 23.9999C5.33337 23.2639 4.73606 22.6666 4.00006 22.6666C3.26406 22.6666 2.66675 23.2639 2.66675 23.9999C2.66675 24.7359 3.26406 25.3333 4.00006 25.3333Z" fill="#171C27"/>
</svg>
