<svg width="32" height="32" viewBox="0 0 32 32" fill="none" xmlns="http://www.w3.org/2000/svg">
<g clip-path="url(#clip0)">
<path d="M18.1051 10.0042C18.2744 10.0802 18.4678 10.0829 18.6384 10.0095C18.957 9.87886 19.3063 9.98285 19.4703 10.2682C19.6356 10.5535 19.5543 10.9108 19.2783 11.1188C19.129 11.2308 19.0343 11.3988 19.0156 11.5841C18.997 11.7694 19.0556 11.9534 19.1783 12.092C20.2649 13.3266 21.6661 14.1466 23.2287 14.4572C23.41 14.4945 23.6046 14.4505 23.7553 14.3399C23.9073 14.2279 24.0033 14.0586 24.0233 13.8706C24.058 13.5266 24.3353 13.268 24.6659 13.268C24.9966 13.268 25.2739 13.5266 25.3086 13.8706C25.3286 14.0586 25.4259 14.2279 25.5765 14.3399C25.6925 14.4252 25.8312 14.4705 25.9725 14.4705C26.0165 14.4705 26.0605 14.4665 26.1032 14.4572C27.6657 14.1466 29.0669 13.3293 30.1548 12.0921C30.2775 11.9521 30.3361 11.7695 30.3175 11.5842C30.2988 11.3989 30.2028 11.2309 30.0548 11.1189C29.7789 10.9096 29.6976 10.5536 29.8629 10.2683C30.0268 9.98298 30.3748 9.87499 30.6935 10.0096C30.8641 10.0816 31.0574 10.0789 31.2267 10.0043C31.396 9.92829 31.5254 9.78562 31.5854 9.60963C31.8641 8.78839 32.0001 8.02308 32.0001 7.26852C32.0001 6.51389 31.8641 5.74864 31.5854 4.9274C31.5254 4.75142 31.3961 4.60874 31.2267 4.53275C31.0574 4.45675 30.8641 4.45407 30.6935 4.52743C30.3762 4.66474 30.0282 4.55543 29.8629 4.26877C29.6976 3.98348 29.7789 3.62614 30.0548 3.41815C30.2041 3.30616 30.2988 3.13818 30.3175 2.95288C30.3362 2.76758 30.2775 2.5836 30.1548 2.44492C29.0656 1.20903 27.6644 0.390407 26.1032 0.0798084C25.9205 0.0398117 25.7272 0.0864953 25.5765 0.197111C25.4245 0.309102 25.3286 0.4784 25.3086 0.666384C25.2739 1.01036 24.9966 1.26902 24.6659 1.26902C24.3353 1.26902 24.058 1.01036 24.0233 0.666384C24.0033 0.4784 23.906 0.309102 23.7553 0.197111C23.6033 0.0864328 23.41 0.0411241 23.2287 0.0798084C21.6661 0.39047 20.2649 1.20903 19.1783 2.44492C19.0556 2.58491 18.997 2.76758 19.0156 2.95288C19.0343 3.13818 19.1303 3.30616 19.2783 3.41815C19.5543 3.62745 19.6356 3.98342 19.4703 4.26877C19.305 4.55406 18.9556 4.65942 18.6384 4.52743C18.4664 4.45413 18.2731 4.45544 18.1051 4.53275C17.9358 4.60874 17.8051 4.75142 17.7464 4.9274C17.4678 5.75133 17.3318 6.51658 17.3318 7.26852C17.3318 8.02045 17.4678 8.7857 17.7464 9.60963C17.8051 9.78562 17.9357 9.92823 18.1051 10.0042ZM18.8437 5.91657C19.5409 5.97125 20.2529 5.5806 20.6248 4.93796C20.9955 4.2967 20.9608 3.51677 20.5848 2.90882C21.2608 2.26887 22.0514 1.8036 22.9139 1.53694C23.2472 2.17957 23.9099 2.60616 24.6658 2.60616C25.4217 2.60616 26.0844 2.17688 26.4176 1.53694C27.2816 1.8036 28.0722 2.26887 28.7481 2.90882C28.3722 3.51677 28.3375 4.2967 28.7081 4.93796C29.0788 5.5806 29.7801 5.90857 30.4893 5.91788C30.608 6.38853 30.6666 6.83512 30.6666 7.27108C30.6666 7.70704 30.6079 8.15369 30.4893 8.62428C29.7814 8.62297 29.0787 8.96156 28.7081 9.6042C28.3375 10.2468 28.3722 11.0254 28.7481 11.6333C28.0709 12.2733 27.2803 12.7386 26.4176 13.0052C26.0844 12.364 25.4217 11.936 24.6658 11.936C23.9099 11.936 23.2472 12.3627 22.9139 13.0052C22.0513 12.7386 21.2608 12.2733 20.5848 11.6333C20.9595 11.0254 20.9955 10.2455 20.6248 9.6042C20.2529 8.96156 19.5409 8.59759 18.8437 8.62559C18.725 8.15232 18.6664 7.70698 18.6664 7.27102C18.6664 6.83505 18.725 6.38853 18.8437 5.91657Z" fill="#171C27"/>
<path d="M24.666 10.6028C26.5046 10.6028 27.9991 9.10827 27.9991 7.2698C27.9991 5.43127 26.5032 3.93677 24.666 3.93677C22.8289 3.93677 21.333 5.43133 21.333 7.2698C21.333 9.10827 22.8289 10.6028 24.666 10.6028ZM24.666 5.26991C25.7699 5.26991 26.6659 6.16714 26.6659 7.26974C26.6659 8.37233 25.7686 9.26957 24.666 9.26957C23.5634 9.26957 22.6662 8.37233 22.6662 7.26974C22.6662 6.1672 23.5634 5.26991 24.666 5.26991Z" fill="#171C27"/>
<path d="M31.7466 22.8111L28.2469 15.809C28.083 15.481 27.683 15.3437 27.3523 15.5103C27.023 15.6743 26.8884 16.0756 27.0537 16.4049L29.4921 21.2845C29.4375 21.2805 29.3855 21.2685 29.3308 21.2685H2.66646C2.61047 21.2685 2.55847 21.2818 2.50379 21.2845L8.08201 10.1215C8.10201 10.0948 8.11801 10.0642 8.13269 10.0348C8.35667 9.56283 8.81663 9.26954 9.33259 9.26954H15.4388C15.8067 9.26954 16.1054 8.97088 16.1054 8.60291C16.1054 8.23494 15.8067 7.93628 15.4388 7.93628H9.33259C8.34199 7.93628 7.42475 8.50154 6.96748 9.38016C6.95148 9.40547 6.93679 9.42947 6.92348 9.45615L0.250666 22.8098C0.246667 22.8178 0.247979 22.8271 0.243979 22.8351C0.0906799 23.1711 0 23.5417 0 23.935V29.2679C0 30.7384 1.1959 31.9343 2.66646 31.9343H29.3309C30.8015 31.9343 31.9974 30.7384 31.9974 29.2679V23.935C31.9974 23.5417 31.9067 23.1711 31.7534 22.8351C31.7493 22.8271 31.7506 22.8191 31.7466 22.8111ZM30.6641 29.2679C30.6641 30.0038 30.0655 30.6011 29.3309 30.6011H2.66646C1.93184 30.6011 1.33326 30.0038 1.33326 29.2679V23.935C1.33326 23.1991 1.9319 22.6018 2.66646 22.6018H29.3309C30.0655 22.6018 30.6641 23.1991 30.6641 23.935V29.2679Z" fill="#171C27"/>
<path d="M28.6644 27.9347H3.33314C2.96517 27.9347 2.6665 28.2334 2.6665 28.6013C2.6665 28.9693 2.96517 29.268 3.33314 29.268H28.6643C29.0323 29.268 29.3309 28.9693 29.3309 28.6013C29.3309 28.2334 29.0323 27.9347 28.6644 27.9347Z" fill="#171C27"/>
<path d="M7.99946 26.6015C8.7354 26.6015 9.33267 26.0042 9.33267 25.2683C9.33267 24.5323 8.7354 23.9351 7.99946 23.9351C7.26352 23.9351 6.66626 24.5323 6.66626 25.2683C6.66626 26.0042 7.26352 26.6015 7.99946 26.6015Z" fill="#171C27"/>
<path d="M3.9997 26.6015C4.73564 26.6015 5.3329 26.0043 5.3329 25.2683C5.3329 24.5324 4.73564 23.9351 3.9997 23.9351C3.26377 23.9351 2.6665 24.5323 2.6665 25.2683C2.6665 26.0042 3.26377 26.6015 3.9997 26.6015Z" fill="#171C27"/>
</g>
<defs>
<clipPath id="clip0">
<path d="M0 0H32V32H0V0Z" fill="white"/>
</clipPath>
</defs>
</svg>
