<svg width="32" height="32" viewBox="0 0 32 32" fill="none" xmlns="http://www.w3.org/2000/svg">
<path d="M8.66669 12H11.3334C11.7014 12 12.0001 11.7013 12.0001 11.3333C12.0001 10.9653 11.7014 10.6666 11.3334 10.6666H8.66669C8.29869 10.6666 8 10.9653 8 11.3333C8 11.7013 8.29869 12 8.66669 12Z" fill="#171C27"/>
<path d="M31.58 16.5907C31.5787 16.588 31.5787 16.584 31.5773 16.5814L25.16 2.024C24.7413 0.814687 23.6053 0 22.3333 0H9.66669C8.39469 0 7.25869 0.813313 6.86137 1.972L0.424 16.58C0.422688 16.5813 0.424 16.584 0.422688 16.5853C0.150687 17.2253 0 17.928 0 18.6667C0 21.608 2.392 24 5.33331 24H5.684C6.87331 28.5933 11.04 32 16 32C20.96 32 25.1267 28.5933 26.316 24H26.6667C29.608 24 32 21.608 32 18.6667C32 17.9293 31.8507 17.228 31.58 16.5907ZM8.10131 2.45869C8.33331 1.78538 8.96263 1.33337 9.66663 1.33337H22.3333C23.0373 1.33337 23.6666 1.78538 23.9186 2.51069L28.9146 13.848C28.2293 13.5253 27.4719 13.3333 26.6666 13.3333H5.33331C4.52663 13.3333 3.77063 13.5266 3.08531 13.848L8.10131 2.45869ZM16 30.6667C10.8533 30.6667 6.66669 26.48 6.66669 21.3334C6.66669 20.4387 6.8 19.5441 7.064 18.6667H13.04C12.4013 19.376 12 20.3053 12 21.3333C12 23.5386 13.7947 25.3333 16 25.3333C18.2053 25.3333 20 23.5386 20 21.3333C20 20.3053 19.5987 19.376 18.9587 18.6666H24.936C25.2 19.5439 25.3333 20.4373 25.3333 21.3333C25.3333 26.4787 21.1467 30.6667 16 30.6667ZM13.3333 21.3333C13.3333 19.8626 14.5293 18.6666 16 18.6666C17.4707 18.6666 18.6667 19.8626 18.6667 21.3333C18.6667 22.804 17.4707 24 16 24C14.5293 24 13.3333 22.8027 13.3333 21.3333ZM26.6667 22.6667H26.5747C26.6294 22.228 26.6667 21.7854 26.6667 21.3334C26.6667 20.4387 26.5507 19.5454 26.32 18.6667H27.3333C27.7013 18.6667 28 18.368 28 18C28 17.632 27.7013 17.3333 27.3333 17.3333H4.66669C4.29869 17.3333 4 17.632 4 18C4 18.368 4.29869 18.6667 4.66669 18.6667H5.68C5.44931 19.544 5.33331 20.4374 5.33331 21.3334C5.33331 21.7854 5.37063 22.2294 5.42531 22.6667H5.33331C3.128 22.6667 1.33331 20.872 1.33331 18.6667C1.33331 16.4614 3.128 14.6667 5.33331 14.6667H26.6666C28.8719 14.6667 30.6666 16.4614 30.6666 18.6667C30.6666 20.872 28.872 22.6667 26.6667 22.6667Z" fill="#171C27"/>
</svg>
