<svg width="32" height="32" viewBox="0 0 32 32" fill="none" xmlns="http://www.w3.org/2000/svg">
<g clip-path="url(#clip0)">
<path d="M24.6667 21.3333C22.8294 21.3333 21.3334 22.8293 21.3334 24.6666C21.3334 26.5039 22.8293 28 24.6667 28C26.5041 28 28 26.504 28 24.6667C28 22.8294 26.504 21.3333 24.6667 21.3333ZM24.6667 26.6667C23.564 26.6667 22.6667 25.7694 22.6667 24.6667C22.6667 23.564 23.564 22.6667 24.6667 22.6667C25.7694 22.6667 26.6667 23.564 26.6667 24.6667C26.6667 25.7694 25.7693 26.6667 24.6667 26.6667Z" fill="#171C27"/>
<path d="M31.3333 12H29.3426V8H31.3333C31.7013 8 32 7.70131 32 7.33331C32 6.96531 31.7013 6.66663 31.3333 6.66663H29.3426V5.34269C29.3426 3.872 28.1466 2.676 26.6759 2.676H25.3333V0.666687C25.3333 0.298687 25.0347 0 24.6667 0C24.2987 0 24 0.298687 24 0.666687V2.676H20V0.666687C20 0.298687 19.7013 0 19.3333 0C18.9653 0 18.6666 0.298687 18.6666 0.666687V2.676H13.3333V0.666687C13.3333 0.298687 13.0347 0 12.6667 0C12.2987 0 12 0.298687 12 0.666687V2.676H8V0.666687C8 0.298687 7.70131 0 7.33331 0C6.96531 0 6.66663 0.298687 6.66663 0.666687V2.676H5.34269C3.872 2.676 2.676 3.872 2.676 5.34269V6.66669H0.666687C0.298687 6.66669 0 6.96531 0 7.33331C0 7.70131 0.298687 8 0.666687 8H2.676V12H0.666687C0.298687 12 0 12.2987 0 12.6667C0 13.0347 0.298687 13.3334 0.666687 13.3334H2.676V18.6667H0.666687C0.298687 18.6667 0 18.9653 0 19.3333C0 19.7013 0.298687 20 0.666687 20H2.676V24H0.666687C0.298687 24 0 24.2987 0 24.6667C0 25.0347 0.298687 25.3334 0.666687 25.3334H2.676V26.6761C2.676 28.1467 3.872 29.3428 5.34269 29.3428H6.66669V31.3334C6.66669 31.7014 6.96537 32.0001 7.33337 32.0001C7.70138 32.0001 8 31.7013 8 31.3333V29.3426H12V31.3333C12 31.7013 12.2987 32 12.6667 32C13.0347 32 13.3334 31.7013 13.3334 31.3333V29.3426H16.2481C16.6161 29.3426 16.9147 29.0439 16.9147 28.6759C16.9147 28.3079 16.6161 28.0093 16.2481 28.0093H12.76C12.728 28.0053 12.7 27.9906 12.6667 27.9906C12.6334 27.9906 12.6054 28.0053 12.5734 28.0093H7.42669C7.39469 28.0053 7.36669 27.9906 7.33337 27.9906C7.30006 27.9906 7.27206 28.0053 7.24006 28.0093H5.34269C4.608 28.0093 4.00938 27.4106 4.00938 26.6759V5.34269C4.00938 4.608 4.60806 4.00938 5.34269 4.00938H26.676C27.4107 4.00938 28.0093 4.60806 28.0093 5.34269V7.28669C28.008 7.30269 28 7.31738 28 7.33337C28 7.34937 28.008 7.36406 28.0093 7.38006V12.6214C28.008 12.6361 28 12.6507 28 12.6667C28 12.6827 28.008 12.6974 28.0093 12.7134V16.2481C28.0093 16.6161 28.308 16.9147 28.676 16.9147C29.044 16.9147 29.3427 16.6161 29.3427 16.2481V13.3334H31.3334C31.7014 13.3334 32.0001 13.0347 32.0001 12.6667C32.0001 12.2987 31.7013 12 31.3333 12Z" fill="#171C27"/>
<path d="M21.7239 6.66669L25.3333 10.276V15.44C25.3333 15.808 25.6319 16.1067 25.9999 16.1067C26.3679 16.1067 26.6666 15.808 26.6666 15.44V10C26.6666 9.82269 26.5959 9.65331 26.4719 9.528L22.4719 5.528C22.3466 5.404 22.1773 5.33331 21.9999 5.33331H5.99994C5.63194 5.33331 5.33325 5.632 5.33325 6V26C5.33325 26.368 5.63194 26.6667 5.99994 26.6667H15.4399C15.8079 26.6667 16.1066 26.368 16.1066 26C16.1066 25.632 15.8079 25.3333 15.4399 25.3333H6.66663V6.66669H21.7239Z" fill="#171C27"/>
<path d="M31.2293 21.932C31.0599 21.856 30.8666 21.8534 30.6959 21.9267C30.3813 22.0627 30.0279 21.9534 29.8639 21.668C29.6999 21.3827 29.7813 21.0254 30.0573 20.8174C30.2066 20.7054 30.3013 20.5374 30.3199 20.352C30.3386 20.168 30.2799 19.9827 30.1573 19.844C29.0693 18.608 27.6679 17.7894 26.1053 17.4787C25.9226 17.4387 25.7293 17.484 25.5786 17.596C25.4266 17.7067 25.3306 17.8774 25.3106 18.064C25.2759 18.4094 24.9986 18.668 24.6679 18.668C24.3372 18.668 24.0599 18.408 24.0252 18.064C24.0052 17.8774 23.9079 17.7067 23.7572 17.596C23.6052 17.484 23.4119 17.4387 23.2305 17.4787C21.6678 17.788 20.2665 18.6067 19.1785 19.844C19.0558 19.984 18.9972 20.168 19.0158 20.352C19.0345 20.5374 19.1305 20.7067 19.2785 20.8174C19.5558 21.0254 19.6372 21.3827 19.4718 21.668C19.3065 21.9534 18.9545 22.0614 18.6398 21.9267C18.4678 21.852 18.2731 21.8547 18.1065 21.932C17.9372 22.0067 17.8078 22.1494 17.7478 22.3254C17.4691 23.1467 17.3331 23.9134 17.3331 24.6667C17.3331 25.42 17.4691 26.1867 17.7464 27.0094C17.8064 27.184 17.9358 27.3267 18.1051 27.4027C18.2744 27.4774 18.4678 27.48 18.6384 27.408C18.9558 27.2747 19.3051 27.3827 19.4704 27.6667C19.6344 27.952 19.5531 28.3094 19.2771 28.5174C19.1278 28.6294 19.0331 28.7974 19.0144 28.9827C18.9958 29.1667 19.0544 29.352 19.1771 29.4907C20.2651 30.7267 21.6664 31.5454 23.2291 31.856C23.4104 31.8933 23.6038 31.8493 23.7558 31.7387C23.9078 31.628 24.0038 31.4574 24.0238 31.2707C24.0585 30.9254 24.3345 30.6667 24.6665 30.6667C24.9985 30.6667 25.2745 30.9254 25.3092 31.2694C25.3292 31.456 25.4265 31.6267 25.5772 31.7374C25.6932 31.8227 25.8319 31.868 25.9732 31.868C26.0172 31.868 26.0599 31.864 26.1025 31.8547C27.6652 31.5454 29.0665 30.7267 30.1545 29.4894C30.2772 29.3494 30.3358 29.1654 30.3172 28.9814C30.2985 28.7961 30.2025 28.6267 30.0545 28.5161C29.7772 28.3081 29.6958 27.9508 29.8612 27.6654C30.0265 27.3801 30.3772 27.2721 30.6932 27.4067C30.8639 27.4787 31.0572 27.4774 31.2265 27.4014C31.3958 27.3267 31.5252 27.1841 31.5852 27.0081C31.8639 26.1868 31.9999 25.4201 31.9999 24.6668C31.9999 23.9135 31.8639 23.1468 31.5879 22.3255C31.5279 22.1507 31.3986 22.008 31.2293 21.932ZM30.4893 26.0214C29.7493 25.9867 29.0799 26.3587 28.7079 27.0014C28.3373 27.6427 28.3733 28.4227 28.7493 29.0307C28.0733 29.6707 27.2813 30.136 26.4186 30.4027C26.0853 29.7614 25.4226 29.3334 24.6666 29.3334C23.9106 29.3334 23.2479 29.7614 22.9146 30.4014C22.0506 30.136 21.2599 29.6694 20.5839 29.0294C20.9599 28.4227 20.9959 27.6427 20.6252 27C20.2532 26.356 19.5665 25.9867 18.8439 26.02C18.7252 25.5494 18.6666 25.1027 18.6666 24.6667C18.6666 24.2307 18.7253 23.7827 18.8439 23.3134C19.5652 23.3254 20.2532 22.9761 20.6252 22.3334C20.9959 21.6921 20.9599 20.9121 20.5839 20.3041C21.2599 19.6641 22.0519 19.1988 22.9146 18.9321C23.2479 19.5734 23.9106 20.0014 24.6666 20.0014C25.4226 20.0014 26.0853 19.5734 26.4186 18.9321C27.2826 19.1974 28.0733 19.6641 28.7493 20.3041C28.3733 20.9108 28.3373 21.6908 28.7079 22.3334C29.0786 22.9761 29.7506 23.3267 30.4893 23.3134C30.6079 23.7841 30.6666 24.2307 30.6666 24.6667C30.6666 25.1027 30.6079 25.5494 30.4893 26.0214Z" fill="#171C27"/>
</g>
<defs>
<clipPath id="clip0">
<path d="M0 0H32V32H0V0Z" fill="white"/>
</clipPath>
</defs>
</svg>
