<svg width="32" height="32" viewBox="0 0 32 32" fill="none" xmlns="http://www.w3.org/2000/svg">
<path d="M19.8112 28.009H19.4259C19.3939 28.005 19.3659 27.9903 19.3326 27.9903C19.2993 27.9903 19.2713 28.005 19.2393 28.009H12.7582C12.7262 28.005 12.6982 27.9903 12.6649 27.9903C12.6316 27.9903 12.6036 28.005 12.5716 28.009H7.42508C7.39309 28.005 7.36509 27.9903 7.33178 27.9903C7.29846 27.9903 7.27047 28.005 7.23847 28.009H5.34248C4.60782 28.009 4.00922 27.4103 4.00922 26.6757V5.34315C4.00922 4.60849 4.60788 4.00989 5.34248 4.00989H26.675C27.4096 4.00989 28.0082 4.60855 28.0082 5.34315V7.28707C28.0069 7.30307 27.9989 7.31776 27.9989 7.33376C27.9989 7.34976 28.0069 7.36445 28.0082 7.38045V12.6216C28.0069 12.6362 27.9989 12.6509 27.9989 12.6669C27.9989 12.6829 28.0069 12.6975 28.0082 12.7135V14.3028C28.0082 14.6708 28.3069 14.9695 28.6749 14.9695C29.0429 14.9695 29.3415 14.6708 29.3415 14.3028V13.3335H31.3322C31.7001 13.3335 31.9988 13.0348 31.9988 12.6669C31.9988 12.2989 31.7001 12.0002 31.3322 12.0002H29.3415V8.00036H31.3322C31.7001 8.00036 31.9988 7.70168 31.9988 7.3337C31.9988 6.96571 31.7001 6.66704 31.3322 6.66704H29.3415V5.34315C29.3415 3.87252 28.1456 2.67657 26.675 2.67657H25.3323V0.667333C25.3323 0.299347 25.0336 0.000671387 24.6657 0.000671387C24.2977 0.000671387 23.9991 0.299347 23.9991 0.667333V2.67657H19.9992V0.667333C19.9992 0.299347 19.7005 0.000671387 19.3326 0.000671387C18.9646 0.000671387 18.6659 0.299347 18.6659 0.667333V2.67657H13.3328V0.667333C13.3328 0.299347 13.0341 0.000671387 12.6661 0.000671387C12.2981 0.000671387 11.9995 0.299347 11.9995 0.667333V2.67657H7.99969V0.667333C7.99969 0.299347 7.70101 0.000671387 7.33303 0.000671387C6.96504 0.000671387 6.66636 0.299347 6.66636 0.667333V2.67657H5.34248C3.87185 2.67657 2.6759 3.87252 2.6759 5.34315V6.6671H0.666661C0.298676 6.6671 0 6.96577 0 7.33376C0 7.70175 0.298676 8.00042 0.666661 8.00042H2.6759V12.0003H0.666661C0.298676 12.0003 0 12.2989 0 12.6669C0 13.0348 0.298676 13.3335 0.666661 13.3335H2.6759V18.6666H0.666661C0.298676 18.6666 0 18.9653 0 19.3333C0 19.7013 0.298676 20 0.666661 20H2.6759V23.9998H0.666661C0.298676 23.9998 0 24.2984 0 24.6664C0 25.0344 0.298676 25.3331 0.666661 25.3331H2.6759V26.6757C2.6759 28.1463 3.87185 29.3423 5.34248 29.3423H6.66643V31.3329C6.66643 31.7009 6.9651 31.9995 7.33309 31.9995C7.70107 31.9995 7.99969 31.7008 7.99969 31.3328V29.3422H11.9995V31.3328C11.9995 31.7008 12.2982 31.9995 12.6662 31.9995C13.0342 31.9995 13.3329 31.7008 13.3329 31.3328V29.3422H18.666V31.3328C18.666 31.7008 18.9646 31.9995 19.3326 31.9995C19.7006 31.9995 19.9992 31.7008 19.9992 31.3328V29.3049C20.2739 29.2222 20.4779 28.9782 20.4779 28.6756C20.4779 28.3076 20.1792 28.009 19.8112 28.009Z" fill="#171C27"/>
<path d="M31.5442 17.3678L27.5443 16.0346C27.3536 15.9693 27.143 15.9973 26.9737 16.1053C26.8044 16.2133 26.6924 16.3932 26.6697 16.5932L26.1084 21.6424L24.2978 20.7371C24.1125 20.6451 23.8951 20.6438 23.7071 20.7344C23.5191 20.8251 23.3858 20.9984 23.3458 21.2024L21.3459 31.202C21.2832 31.514 21.4499 31.8273 21.7446 31.9486C21.8272 31.9833 21.9139 31.9993 21.9992 31.9993C22.2165 31.9993 22.4272 31.8926 22.5565 31.7033L26.2297 26.1929L28.3696 27.2635C28.5456 27.3515 28.7496 27.3582 28.9296 27.2795C29.1096 27.2022 29.2469 27.0502 29.3043 26.8622L31.9708 18.1959C32.0761 17.8491 31.8881 17.4811 31.5442 17.3678ZM28.259 25.7181L26.2964 24.7369C25.9951 24.5876 25.6297 24.6862 25.4431 24.9635L23.3125 28.1594L24.4804 22.3196L26.3671 23.2623C26.5617 23.3596 26.7924 23.3543 26.983 23.2516C27.1737 23.1476 27.303 22.9569 27.327 22.7396L27.903 17.5598L30.5029 18.4265L28.259 25.7181Z" fill="#171C27"/>
<path d="M20.3459 25.333H6.66645V6.667H21.7232L25.3323 10.2762V14.3733C25.3323 14.7413 25.631 15.04 25.999 15.04C26.367 15.04 26.6657 14.7413 26.6657 14.3733V10.0002C26.6657 9.82294 26.595 9.65357 26.471 9.52826L22.4711 5.52842C22.3458 5.40442 22.1765 5.33374 21.9992 5.33374H5.99979C5.63181 5.33374 5.33313 5.63242 5.33313 6.0004V25.9996C5.33313 26.3676 5.63181 26.6663 5.99979 26.6663H20.3459C20.7139 26.6663 21.0126 26.3676 21.0126 25.9996C21.0125 25.6316 20.7139 25.333 20.3459 25.333Z" fill="#171C27"/>
</svg>
