<svg width="32" height="32" viewBox="0 0 32 32" fill="none" xmlns="http://www.w3.org/2000/svg">
<g clip-path="url(#clip0)">
<path d="M22.472 5.5186C22.3467 5.3946 22.1773 5.32391 22 5.32391L6.00934 5.34391C5.64134 5.34391 5.34265 5.6426 5.34265 6.0106V25.9906C5.34265 26.3586 5.64134 26.6573 6.00934 26.6573H26C26.368 26.6573 26.6667 26.3586 26.6667 25.9906V9.9906C26.6667 9.81329 26.596 9.64391 26.472 9.5186L22.472 5.5186ZM25.3333 25.3239H6.67603V6.67591L21.724 6.65723L25.3333 10.2665V25.3239Z" fill="#171C27"/>
<path d="M18.6667 14.6572C18.6667 13.1865 17.4707 11.9905 16 11.9905C14.5293 11.9905 13.3333 13.1865 13.3333 14.6572C13.3333 15.0252 13.632 15.3239 14 15.3239C14.368 15.3239 14.6667 15.0252 14.6667 14.6572C14.6667 13.9225 15.2654 13.3239 16 13.3239C16.7347 13.3239 17.3333 13.9226 17.3333 14.6572C17.3333 15.7679 16.9 16.8145 16.1133 17.5999L13.528 20.1852C13.3373 20.3759 13.28 20.6625 13.384 20.9119C13.4867 21.1612 13.7307 21.3239 14 21.3239H18C18.368 21.3239 18.6667 21.0252 18.6667 20.6572C18.6667 20.2892 18.368 19.9905 18 19.9905H15.6093L17.0573 18.5425C18.0947 17.5052 18.6667 16.1252 18.6667 14.6572Z" fill="#171C27"/>
<path d="M31.3333 13.3333C31.7013 13.3333 32 13.0346 32 12.6666C32 12.2986 31.7013 12 31.3333 12H29.3426V8H31.3333C31.7013 8 32 7.70131 32 7.33331C32 6.96531 31.7013 6.66663 31.3333 6.66663H29.3426V5.344C29.3426 3.87331 28.1466 2.67731 26.6759 2.67731H25.3333V0.666687C25.3333 0.298687 25.0347 0 24.6667 0C24.2987 0 24 0.298687 24 0.666687V2.67738H20V0.666687C20 0.298687 19.7013 0 19.3333 0C18.9653 0 18.6666 0.298687 18.6666 0.666687V2.67738H13.3333V0.666687C13.3333 0.298687 13.0347 0 12.6667 0C12.2987 0 12 0.298687 12 0.666687V2.67738H8V0.666687C8 0.298687 7.70131 0 7.33331 0C6.96531 0 6.66663 0.298687 6.66663 0.666687V2.67738H5.34269C3.872 2.67738 2.676 3.87337 2.676 5.34406V6.66675H0.666687C0.298687 6.66669 0 6.96531 0 7.33331C0 7.70131 0.298687 8 0.666687 8H2.676V12H0.666687C0.298687 12 0 12.2987 0 12.6667C0 13.0347 0.298687 13.3334 0.666687 13.3334H2.676V18.6667H0.666687C0.298687 18.6667 0 18.9653 0 19.3333C0 19.7013 0.298687 20 0.666687 20H2.676V24H0.666687C0.298687 24 0 24.2987 0 24.6667C0 25.0347 0.298687 25.3334 0.666687 25.3334H2.676V26.6774C2.676 28.1481 3.872 29.3441 5.34269 29.3441H6.66669V31.3334C6.66669 31.7014 6.96537 32.0001 7.33337 32.0001C7.70138 32.0001 8 31.7027 8 31.3333V29.344H12V31.3333C12 31.7013 12.2987 32 12.6667 32C13.0347 32 13.3334 31.7027 13.3334 31.3333V29.344H18.6667V31.3333C18.6667 31.7013 18.9654 32 19.3334 32C19.7014 32 20 31.7027 20 31.3333V29.344H24V31.3333C24 31.7013 24.2987 32 24.6667 32C25.0347 32 25.3334 31.7027 25.3334 31.3333V29.344H26.6761C28.1467 29.344 29.3428 28.148 29.3428 26.6773V25.3333H31.3334C31.7014 25.3333 32.0001 25.0346 32.0001 24.6666C32.0001 24.2986 31.7013 24 31.3333 24H29.3426V20H31.3333C31.7013 20 32 19.7013 32 19.3333C32 18.9653 31.7013 18.6666 31.3333 18.6666H29.3426V13.3333H31.3333ZM28.0093 7.28669C28.008 7.30269 28 7.31738 28 7.33337C28 7.34937 28.008 7.36406 28.0093 7.38006V12.6214C28.008 12.6361 28 12.6507 28 12.6667C28 12.6827 28.008 12.6974 28.0093 12.7134V19.2881C28.008 19.3027 28 19.3174 28 19.3334C28 19.3494 28.008 19.3641 28.0093 19.3801V24.6214C28.008 24.6361 28 24.6507 28 24.6667C28 24.6827 28.008 24.6974 28.0093 24.7134V26.6774C28.0093 27.4121 27.4106 28.0107 26.676 28.0107H24.7653C24.732 28.0054 24.7013 27.9907 24.6666 27.9907C24.6319 27.9907 24.6013 28.0054 24.5679 28.0107H19.4333C19.3999 28.0054 19.3692 27.9907 19.3346 27.9907C19.2999 27.9907 19.2692 28.0054 19.2359 28.0107H12.7653C12.732 28.0054 12.7013 27.9907 12.6666 27.9907C12.6319 27.9907 12.6013 28.0054 12.5679 28.0107H7.43194C7.39863 28.0054 7.36794 27.9907 7.33325 27.9907C7.29856 27.9907 7.26794 28.0054 7.23456 28.0107H5.34269C4.608 28.0107 4.00938 27.412 4.00938 26.6774V5.344C4.00938 4.60931 4.60806 4.01069 5.34269 4.01069H26.676C27.4107 4.01069 28.0093 4.60938 28.0093 5.344V7.28669Z" fill="#171C27"/>
</g>
<defs>
<clipPath id="clip0">
<path d="M0 0H32V32H0V0Z" fill="white"/>
</clipPath>
</defs>
</svg>
