<svg width="32" height="32" viewBox="0 0 32 32" fill="none" xmlns="http://www.w3.org/2000/svg">
<path d="M21.9999 8H23.9999V10C23.9999 10.368 24.2986 10.6667 24.6666 10.6667C25.0373 10.6667 25.3333 10.368 25.3333 10V8H27.3333C27.704 8 28 7.70132 28 7.33332C28 6.96532 27.7013 6.66663 27.3333 6.66663H25.3333V4.66663C25.3333 4.29863 25.0346 3.99994 24.6666 3.99994C24.2986 3.99994 23.9999 4.29869 23.9999 4.66669V6.66669H21.9999C21.6319 6.66669 21.3333 6.96538 21.3333 7.33338C21.3333 7.70138 21.6319 8 21.9999 8Z" fill="#171C27"/>
<path d="M8.00006 26.6667C8.73607 26.6667 9.33338 26.0694 9.33338 25.3334C9.33338 24.5974 8.73607 24 8.00006 24C7.26406 24 6.66675 24.5973 6.66675 25.3333C6.66675 26.0693 7.26275 26.6667 8.00006 26.6667Z" fill="#171C27"/>
<path d="M24.6668 14.6667C28.7108 14.6667 32.0001 11.376 32.0001 7.33338C32.0001 3.29075 28.7121 0 24.6668 0C20.6241 0 17.3335 3.29069 17.3335 7.33331C17.3335 11.3759 20.6241 14.6667 24.6668 14.6667ZM24.6668 1.33331C27.9761 1.33331 30.6668 4.02531 30.6668 7.33331C30.6668 10.6413 27.9761 13.3333 24.6668 13.3333C21.3601 13.3333 18.6668 10.6413 18.6668 7.33331C18.6668 4.02531 21.3601 1.33331 24.6668 1.33331Z" fill="#171C27"/>
<path d="M31.7493 22.876L28.2493 15.8733C28.084 15.5453 27.6853 15.408 27.3546 15.5746C27.0253 15.7386 26.8906 16.1399 27.0559 16.4693L29.4946 21.3493C29.4399 21.3466 29.3879 21.3333 29.3333 21.3333H2.66669C2.61069 21.3333 2.55869 21.3466 2.504 21.3493L8.08269 10.1853C8.10269 10.1586 8.11869 10.128 8.13338 10.0986C8.35738 9.62663 8.81606 9.33331 9.33337 9.33331H15.4401C15.8081 9.33331 16.1068 9.03463 16.1068 8.66663C16.1068 8.29863 15.808 8 15.44 8H9.33331C8.34262 8 7.424 8.56531 6.968 9.444C6.952 9.46931 6.93731 9.49331 6.924 9.52L0.250688 22.8747C0.246688 22.8827 0.248 22.892 0.244 22.9C0.0893125 23.236 0 23.6067 0 24V29.3333C0 30.804 1.196 32 2.66669 32H29.3334C30.804 32 32 30.804 32 29.3333V24C32 23.6067 31.9093 23.236 31.756 22.9C31.752 22.892 31.752 22.884 31.7493 22.876ZM30.6667 29.3333C30.6667 30.0693 30.068 30.6666 29.3334 30.6666H2.66669C1.932 30.6666 1.33337 30.0693 1.33337 29.3333V24C1.33337 23.264 1.93206 22.6667 2.66669 22.6667H29.3334C30.0681 22.6667 30.6667 23.264 30.6667 24V29.3333Z" fill="#171C27"/>
<path d="M4.00006 26.6667C4.73606 26.6667 5.33337 26.0694 5.33337 25.3334C5.33337 24.5974 4.73606 24 4.00006 24C3.26406 24 2.66675 24.5973 2.66675 25.3333C2.66675 26.0693 3.26275 26.6667 4.00006 26.6667Z" fill="#171C27"/>
<path d="M28.6666 28H3.33319C2.96519 28 2.6665 28.2987 2.6665 28.6667C2.6665 29.0347 2.96519 29.3334 3.33319 29.3334H28.6665C29.0345 29.3334 29.3332 29.0347 29.3332 28.6667C29.3332 28.2987 29.0346 28 28.6666 28Z" fill="#171C27"/>
</svg>
