<svg width="32" height="32" viewBox="0 0 32 32" fill="none" xmlns="http://www.w3.org/2000/svg">
<path d="M24 16H21.3333V14.6667H24C24.368 14.6667 24.6666 14.368 24.6666 14V6.00002C24.6666 4.89735 23.7693 4.00002 22.6666 4.00002H7.99996C6.89729 4.00002 5.99996 4.89735 5.99996 6.00002V14C5.99996 14.368 6.29863 14.6667 6.66663 14.6667H9.33329V16H6.66663C5.56396 16 4.66663 15.1027 4.66663 14V6.00002C4.66663 4.16202 6.16196 2.66669 7.99996 2.66669H22.6666C24.5046 2.66669 26 4.16202 26 6.00002V14C26 15.1027 25.1026 16 24 16Z" fill="#171C27"/>
<path d="M22 4H18C17.6314 4 17.3334 3.702 17.3334 3.33333V0.666667C17.3334 0.298 17.6314 0 18 0H22C22.3687 0 22.6667 0.298 22.6667 0.666667V3.33333C22.6667 3.702 22.3687 4 22 4ZM18.6667 2.66667H21.3334V1.33333H18.6667V2.66667Z" fill="#171C27"/>
<path d="M12.6667 4H8.66667C8.298 4 8 3.702 8 3.33333V0.666667C8 0.298 8.298 0 8.66667 0H12.6667C13.0353 0 13.3333 0.298 13.3333 0.666667V3.33333C13.3333 3.702 13.0353 4 12.6667 4ZM9.33333 2.66667H12V1.33333H9.33333V2.66667Z" fill="#171C27"/>
<path d="M6.66667 26.6666H2.66667C2.298 26.6666 2 26.3686 2 26V24C2 22.5293 3.196 21.3333 4.66667 21.3333H6.66667C7.03533 21.3333 7.33333 21.6313 7.33333 22V26C7.33333 26.3686 7.03533 26.6666 6.66667 26.6666ZM3.33333 25.3333H6V22.6666H4.66667C3.93133 22.6666 3.33333 23.2646 3.33333 24V25.3333Z" fill="#171C27"/>
<path d="M6.66667 32H4C2.89733 32 2 31.1026 2 30V26C2 25.6313 2.298 25.3333 2.66667 25.3333H6.66667C7.03533 25.3333 7.33333 25.6313 7.33333 26V31.3333C7.33333 31.702 7.03533 32 6.66667 32ZM3.33333 26.6666V30C3.33333 30.368 3.632 30.6666 4 30.6666H6V26.6666H3.33333Z" fill="#171C27"/>
<path d="M28 26.6666H24C23.6314 26.6666 23.3334 26.3686 23.3334 26V22C23.3334 21.6313 23.6314 21.3333 24 21.3333H26C27.4707 21.3333 28.6667 22.5293 28.6667 24V26C28.6667 26.3686 28.3687 26.6666 28 26.6666ZM24.6667 25.3333H27.3334V24C27.3334 23.2646 26.7354 22.6666 26 22.6666H24.6667V25.3333Z" fill="#171C27"/>
<path d="M26.6667 32H24C23.6314 32 23.3334 31.702 23.3334 31.3333V26C23.3334 25.6313 23.6314 25.3333 24 25.3333H28C28.3687 25.3333 28.6667 25.6313 28.6667 26V30C28.6667 31.1026 27.7694 32 26.6667 32ZM24.6667 30.6666H26.6667C27.0347 30.6666 27.3334 30.368 27.3334 30V26.6666H24.6667V30.6666Z" fill="#171C27"/>
<path d="M21.3333 26.6666H9.33329C8.96463 26.6666 8.66663 26.3686 8.66663 26V24C8.66663 22.5293 9.86263 21.3333 11.3333 21.3333H19.3333C20.804 21.3333 22 22.5293 22 24V26C22 26.3686 21.702 26.6666 21.3333 26.6666ZM9.99996 25.3333H20.6666V24C20.6666 23.2646 20.0686 22.6666 19.3333 22.6666H11.3333C10.598 22.6666 9.99996 23.2646 9.99996 24V25.3333Z" fill="#171C27"/>
<path d="M10.6666 19.3333C9.56396 19.3333 8.66663 18.436 8.66663 17.3333V14C8.66663 12.8973 9.56396 12 10.6666 12C11.7693 12 12.6666 12.8973 12.6666 14V17.3333C12.6666 18.436 11.7693 19.3333 10.6666 19.3333ZM10.6666 13.3333C10.2986 13.3333 9.99996 13.632 9.99996 14V17.3333C9.99996 17.7013 10.2986 18 10.6666 18C11.0346 18 11.3333 17.7013 11.3333 17.3333V14C11.3333 13.632 11.0346 13.3333 10.6666 13.3333Z" fill="#171C27"/>
<path d="M20 19.3333C18.8973 19.3333 18 18.436 18 17.3333V14C18 12.8973 18.8973 12 20 12C21.1027 12 22 12.8973 22 14V17.3333C22 18.436 21.1027 19.3333 20 19.3333ZM20 13.3333C19.632 13.3333 19.3333 13.632 19.3333 14V17.3333C19.3333 17.7013 19.632 18 20 18C20.368 18 20.6667 17.7013 20.6667 17.3333V14C20.6667 13.632 20.368 13.3333 20 13.3333Z" fill="#171C27"/>
<path d="M22.6667 6.66665H8.00004C7.63137 6.66665 7.33337 6.36865 7.33337 5.99998C7.33337 5.63131 7.63137 5.33331 8.00004 5.33331H22.6667C23.0354 5.33331 23.3334 5.63131 23.3334 5.99998C23.3334 6.36865 23.0354 6.66665 22.6667 6.66665Z" fill="#171C27"/>
<path d="M9.33329 7.99998C8.96463 7.99998 8.66663 7.70198 8.66663 7.33331V5.99998C8.66663 5.63131 8.96463 5.33331 9.33329 5.33331C9.70196 5.33331 9.99996 5.63131 9.99996 5.99998V7.33331C9.99996 7.70198 9.70196 7.99998 9.33329 7.99998Z" fill="#171C27"/>
<path d="M12 28C11.6314 28 11.3334 27.702 11.3334 27.3333V24.6667C11.3334 24.298 11.6314 24 12 24C12.3687 24 12.6667 24.298 12.6667 24.6667V27.3333C12.6667 27.702 12.3687 28 12 28Z" fill="#171C27"/>
<path d="M18.6667 28C18.298 28 18 27.702 18 27.3333V24.6667C18 24.298 18.298 24 18.6667 24C19.0353 24 19.3333 24.298 19.3333 24.6667V27.3333C19.3333 27.702 19.0353 28 18.6667 28Z" fill="#171C27"/>
<path d="M18.6667 14.6667H12V16H18.6667V14.6667Z" fill="#171C27"/>
<path d="M6.66667 22.6667C6.298 22.6667 6 22.3687 6 22V15.3334C6 14.9647 6.298 14.6667 6.66667 14.6667C7.03533 14.6667 7.33333 14.9647 7.33333 15.3334V22C7.33333 22.3687 7.03533 22.6667 6.66667 22.6667Z" fill="#171C27"/>
<path d="M24 22.6667C23.6314 22.6667 23.3334 22.3687 23.3334 22V15.3334C23.3334 14.9647 23.6314 14.6667 24 14.6667C24.3687 14.6667 24.6667 14.9647 24.6667 15.3334V22C24.6667 22.3687 24.3687 22.6667 24 22.6667Z" fill="#171C27"/>
<path d="M24 32H6.66667C6.298 32 6 31.702 6 31.3334C6 30.9647 6.298 30.6667 6.66667 30.6667H24C24.3687 30.6667 24.6667 30.9647 24.6667 31.3334C24.6667 31.702 24.3687 32 24 32Z" fill="#171C27"/>
<path d="M21.3333 32C20.9646 32 20.6666 31.702 20.6666 31.3333V26.6666H9.99996V31.3333C9.99996 31.702 9.70196 32 9.33329 32C8.96463 32 8.66663 31.702 8.66663 31.3333V26C8.66663 25.6313 8.96463 25.3333 9.33329 25.3333H21.3333C21.702 25.3333 22 25.6313 22 26V31.3333C22 31.702 21.702 32 21.3333 32Z" fill="#171C27"/>
</svg>
