<svg width="54" height="15" viewBox="0 0 54 15" fill="none" xmlns="http://www.w3.org/2000/svg">
<g clip-path="url(#clip0)">
<path fill-rule="evenodd" clip-rule="evenodd" d="M42.874 0.491811H47.289L46.7667 3.15315C48.1143 0.964938 49.66 0.333064 51.5539 0.199219C52.2081 0.17743 53.0125 0.267698 53.7298 0.379755L52.8804 3.87841C52.1841 3.69787 51.4458 3.56403 50.7915 3.56403C48.1804 3.52045 46.2445 5.34448 45.5692 7.96224L44.0475 13.9666H39.4795C40.611 9.47189 42.1117 4.57565 42.874 0.491811Z" fill="#707070"/>
<path fill-rule="evenodd" clip-rule="evenodd" d="M30.3164 6.47435C31.0788 6.09149 33.732 6.13196 35.4517 5.90785C37.4326 5.65883 40.1938 4.53204 40.1278 2.81696C40.0198 0.989812 38.4531 0.575826 36.9944 0.77815C33.5579 1.29485 31.3159 3.62936 30.3164 6.47435ZM29.8903 7.6385C29.8032 8.42912 29.7072 9.26643 29.7702 9.8983C30.0523 12.1332 31.9402 13.176 33.9661 13.2444C35.6498 13.2849 37.7057 12.239 38.8222 10.9379C39.0323 10.692 39.2754 10.773 39.4195 10.9691C39.5275 11.1185 39.4855 11.4578 39.3835 11.5605C37.6277 13.3658 35.8239 14.3868 33.3178 14.4086C30.4665 14.4304 26.8979 13.3036 26.4657 10.2345C26.3997 9.8734 26.3997 9.46875 26.4447 9.0392C27.012 3.35545 32.0152 0.283234 36.9314 0.0124311C39.2814 -0.121414 42.6759 0.51046 42.4809 3.15001C42.2858 5.92652 38.237 6.89457 35.6048 6.96304C33.3838 7.03464 30.6526 7.0253 29.8903 7.6385Z" fill="#707070"/>
<path fill-rule="evenodd" clip-rule="evenodd" d="M27.4352 10.8477L26.6969 13.7798C25.4573 14.0506 23.8456 14.2997 22.3659 14.253C17.972 14.1627 14.7516 12.0648 14.9466 7.7319C15.1867 2.7485 19.9529 0.199216 24.5419 0.130737C26.0636 0.130737 27.4562 0.289484 29.0019 0.672344L27.6303 3.49243C26.6308 3.19984 25.2802 2.92904 23.9326 3.06288C21.8227 3.22163 19.8868 4.39511 19.3196 6.69538C18.5813 9.58394 20.19 11.6165 23.0412 11.6165C24.5419 11.6165 26.0006 11.299 27.4352 10.8477Z" fill="#707070"/>
<path fill-rule="evenodd" clip-rule="evenodd" d="M8.85394 0.174316C12.5306 0.174316 15.3008 1.04898 15.5649 4.21769C15.667 5.43474 15.2378 6.52107 14.9136 7.80972L13.3799 13.9853C10.4416 13.9853 8.04958 14.0538 5.3964 14.2779C2.93831 14.2779 0 13.7363 0 10.4866C0.0510227 5.17639 7.98355 5.65886 11.357 5.65886C12.0744 3.53912 10.3996 2.68002 8.04958 2.68002C5.91863 2.68002 4.16285 3.3119 2.44309 3.89708L3.04635 1.0303C4.7211 0.466908 6.87606 0.174316 8.85394 0.174316ZM10.8558 7.77859C9.004 7.77859 3.76667 7.32414 3.76667 10.2594C3.76667 11.7255 5.24633 11.9434 6.48588 11.9434C9.74833 11.9465 10.2556 10.7668 10.8558 7.77859Z" fill="#707070"/>
</g>
<defs>
<clipPath id="clip0">
<rect width="54" height="15" fill="white"/>
</clipPath>
</defs>
</svg>
