<svg width="43" height="50" viewBox="0 0 43 50" fill="none" xmlns="http://www.w3.org/2000/svg">
<g clip-path="url(#clip0)">
<path d="M36.9525 31.0845C36.3425 29.6771 36.0002 28.0998 36.0002 26.4333C36.0002 25.731 36.0606 25.0489 36.1785 24.3927C36.682 21.5577 38.2241 19.2148 40.356 17.7009C40.7358 17.4303 41.1357 17.1857 41.5499 16.9698C38.6787 12.4424 34.0035 11.743 32.5334 11.5905C29.3341 11.2595 24.8287 13.7405 22.3803 13.7808H22.317C19.8716 13.7405 15.3662 11.2595 12.164 11.5905C10.573 11.7574 5.48357 12.8108 2.41379 17.7009C1.33778 19.4163 0.5092 21.6037 0.166834 24.3927C0.0431217 25.4001 -0.0144188 26.4823 -3.37083e-05 27.6508C0.0143514 28.8222 0.109293 29.9677 0.26753 31.0845C0.609895 33.4676 1.25723 35.7155 2.09156 37.7763C3.01796 40.0616 4.17741 42.1137 5.40877 43.8608C8.13907 47.7233 11.229 49.9597 12.9696 49.9971C16.5486 50.0777 19.6615 47.6571 22.2307 47.7205C22.2566 47.7262 22.2854 47.7291 22.3113 47.7262H22.3429H22.3746C22.4005 47.7291 22.4292 47.7262 22.4523 47.7205C25.0186 47.6543 28.1344 50.0777 31.7163 49.9971C33.4569 49.9568 36.5468 47.7233 39.2771 43.8608C40.5085 42.1166 41.6679 40.0616 42.5943 37.7763C42.7324 37.4367 42.8647 37.0913 42.9913 36.7401C40.333 35.9055 38.1378 33.8188 36.9525 31.0845Z" fill="#707070"/>
<path d="M28.6378 8.18559C31.3854 4.92747 31.2818 0.238895 31.0315 0.0316647C30.7841 -0.178444 26.2384 0.656233 23.4189 3.80498C20.6023 6.95372 20.7749 11.7517 21.0252 11.9589C21.2726 12.169 25.8874 11.4437 28.6378 8.18559Z" fill="#707070"/>
</g>
<defs>
<clipPath id="clip0">
<rect width="43" height="50" fill="white"/>
</clipPath>
</defs>
</svg>
