<svg width="48" height="48" viewBox="0 0 48 48" fill="none" xmlns="http://www.w3.org/2000/svg">
<path d="M43 30C42.9956 28.7994 42.6311 27.6278 41.9536 26.6366C41.2762 25.6454 40.317 24.8802 39.2 24.44L42.94 10.44C43.0181 10.1419 43.0263 9.82968 42.9638 9.52785C42.9014 9.22601 42.77 8.9427 42.58 8.70002C42.3857 8.47263 42.1429 8.2917 41.8695 8.17056C41.5961 8.04942 41.2989 7.99114 41 8.00002H13.6L12.94 5.48002C12.8253 5.05384 12.5728 4.67759 12.2219 4.40989C11.8709 4.14219 11.4414 3.99808 11 4.00002H7V8.00002H9.46L14.42 26.52C14.5372 26.9563 14.7987 27.3401 15.1618 27.6089C15.525 27.8776 15.9685 28.0155 16.42 28H37C37.5304 28 38.0391 28.2107 38.4142 28.5858C38.7893 28.9609 39 29.4696 39 30C39 30.5305 38.7893 31.0392 38.4142 31.4142C38.0391 31.7893 37.5304 32 37 32H11C10.4696 32 9.96086 32.2107 9.58579 32.5858C9.21071 32.9609 9 33.4696 9 34C9 34.5305 9.21071 35.0392 9.58579 35.4142C9.96086 35.7893 10.4696 36 11 36H13.36C13.0311 36.9063 12.9254 37.8785 13.0519 38.8342C13.1783 39.79 13.5333 40.7012 14.0866 41.4907C14.64 42.2802 15.3754 42.9248 16.2307 43.3698C17.086 43.8147 18.0359 44.0471 19 44.0471C19.9641 44.0471 20.914 43.8147 21.7693 43.3698C22.6246 42.9248 23.36 42.2802 23.9134 41.4907C24.4667 40.7012 24.8217 39.79 24.9481 38.8342C25.0746 37.8785 24.9689 36.9063 24.64 36H29.36C29.0606 36.8252 28.9459 37.7061 29.024 38.5805C29.1021 39.4548 29.3711 40.3014 29.8121 41.0605C30.2531 41.8196 30.8552 42.4726 31.5761 42.9736C32.2969 43.4746 33.119 43.8113 33.9841 43.9599C34.8493 44.1086 35.7366 44.0656 36.5833 43.8339C37.4301 43.6023 38.2157 43.1877 38.8847 42.6194C39.5538 42.051 40.0899 41.3428 40.4554 40.5446C40.8209 39.7465 41.0068 38.8778 41 38C40.9963 36.9668 40.7204 35.9527 40.2 35.06C41.0552 34.5208 41.7603 33.7742 42.2499 32.8896C42.7394 32.005 42.9974 31.011 43 30ZM35.18 24H18L14.68 12H38.4L35.18 24ZM19 40C18.6044 40 18.2178 39.8827 17.8889 39.663C17.56 39.4432 17.3036 39.1308 17.1522 38.7654C17.0009 38.3999 16.9613 37.9978 17.0384 37.6098C17.1156 37.2219 17.3061 36.8655 17.5858 36.5858C17.8655 36.3061 18.2219 36.1156 18.6098 36.0384C18.9978 35.9613 19.3999 36.0009 19.7654 36.1523C20.1308 36.3036 20.4432 36.56 20.6629 36.8889C20.8827 37.2178 21 37.6045 21 38C21 38.5305 20.7893 39.0392 20.4142 39.4142C20.0391 39.7893 19.5304 40 19 40ZM35 40C34.6044 40 34.2178 39.8827 33.8889 39.663C33.56 39.4432 33.3036 39.1308 33.1522 38.7654C33.0009 38.3999 32.9613 37.9978 33.0384 37.6098C33.1156 37.2219 33.3061 36.8655 33.5858 36.5858C33.8655 36.3061 34.2219 36.1156 34.6098 36.0384C34.9978 35.9613 35.3999 36.0009 35.7654 36.1523C36.1308 36.3036 36.4432 36.56 36.6629 36.8889C36.8827 37.2178 37 37.6045 37 38C37 38.5305 36.7893 39.0392 36.4142 39.4142C36.0391 39.7893 35.5304 40 35 40Z" fill="#06C1D4"/>
</svg>
