<svg width="32" height="31" viewBox="0 0 32 31" fill="none" xmlns="http://www.w3.org/2000/svg">
<path fill-rule="evenodd" clip-rule="evenodd" d="M21.3587 3.50881C18.7345 2.33956 15.8028 2.0499 13.0005 2.68302C10.1983 3.31615 7.67586 4.83813 5.80931 7.02199C3.94276 9.20584 2.83216 11.9346 2.64314 14.8012C2.45411 17.6678 3.1968 20.5187 4.76042 22.9288C6.32405 25.3388 8.62484 27.1788 11.3196 28.1744C14.0145 29.17 16.9589 29.2678 19.7139 28.4533C22.4688 27.6387 24.8866 25.9554 26.6068 23.6545C28.3269 21.3535 29.2571 18.5582 29.2588 15.6854V14.3683C29.2588 13.816 29.7065 13.3683 30.2588 13.3683C30.8111 13.3683 31.2588 13.816 31.2588 14.3683V15.6859L31.2588 15.6865C31.2569 18.9906 30.187 22.2056 28.2086 24.852C26.2303 27.4984 23.4495 29.4344 20.2809 30.3712C17.1124 31.308 13.7259 31.1955 10.6265 30.0505C7.52717 28.9054 4.88098 26.7892 3.08261 24.0173C1.28425 21.2455 0.430071 17.9665 0.647472 14.6696C0.864872 11.3726 2.1422 8.23425 4.28896 5.72254C6.43572 3.21084 9.33689 1.46037 12.5598 0.732197C15.7827 0.00402746 19.1546 0.337175 22.1727 1.68195C22.6772 1.90673 22.9039 2.49791 22.6791 3.00238C22.4543 3.50685 21.8632 3.73359 21.3587 3.50881Z" fill="#27BECE"/>
<path fill-rule="evenodd" clip-rule="evenodd" d="M30.9656 3.52057C31.3563 3.9109 31.3566 4.54406 30.9663 4.93478L16.644 19.2714C16.4565 19.4591 16.2021 19.5645 15.9368 19.5646C15.6715 19.5647 15.4171 19.4593 15.2295 19.2717L10.9328 14.975C10.5423 14.5845 10.5423 13.9513 10.9328 13.5608C11.3233 13.1703 11.9565 13.1703 12.347 13.5608L15.9362 17.15L29.5514 3.52127C29.9417 3.13055 30.5749 3.13024 30.9656 3.52057Z" fill="#27BECE"/>
</svg>
