<svg width="50" height="50" viewBox="0 0 50 50" fill="none" xmlns="http://www.w3.org/2000/svg">
<g clip-path="url(#clip0)">
<path d="M49.6263 0.96039C49.6827 0.659135 49.5637 0.341317 49.3005 0.152903C48.9632 -0.0883078 48.4965 -0.0406868 48.2156 0.264709L47.777 0.741955L47.0857 1.03596C46.8403 0.96039 46.5657 0.954179 46.2807 1.02457C46.1167 1.06495 46.0687 1.05563 45.9235 1.02665C45.605 0.964531 45.2719 0.927262 44.7415 1.09601C44.5546 1.08565 44.3342 1.11154 43.9897 1.22334C43.5563 1.36517 43.2869 1.70266 43.0895 1.95008L43.0238 2.0329C41.7853 2.34968 41.2956 3.03915 41.1055 3.57644C41.0679 3.681 41.0429 3.78452 41.023 3.88908C39.7178 2.90768 37.9228 2.81865 36.4003 3.7017C34.6523 4.71624 33.8702 6.63661 34.409 8.59528C35.2778 11.759 38.306 14.7394 40.1146 16.5211L40.7004 17.1018C41.6423 18.0543 42.8619 19.9757 42.6186 21.2594C42.5591 21.5793 42.3878 22.0441 41.5984 22.3981C41.1964 22.5783 40.8111 22.6901 40.4393 22.7336C41.1076 20.8774 40.7839 18.8814 39.5162 17.5739C37.7066 15.7115 35.9973 16.1763 35.3446 16.6815C35.07 16.8958 34.9614 17.2592 35.0742 17.5874C35.189 17.9145 35.5002 18.135 35.8521 18.135C36.7209 18.134 37.6972 18.7758 38.1222 19.6258C38.4804 20.3422 38.4104 21.1196 37.9259 21.8919C37.5583 21.5948 37.242 21.2666 36.9705 20.984C36.8587 20.8681 36.7533 20.7583 36.6603 20.6693L36.5925 20.5947C35.2935 19.1433 33.9704 18.2976 32.6453 18.0657C32.4793 15.7436 30.8242 13.3947 28.316 12.0292C28.1124 11.9174 27.9015 11.819 27.6832 11.73C27.2154 9.30442 25.718 7.67703 23.331 7.01137C19.8464 6.03824 17.0793 7.58178 15.7395 11.2455C15.2822 12.495 14.3111 16.7561 13.5133 20.3287L13.3629 20.9985C13.2564 21.4706 12.7009 22.3195 12.1088 22.5224C11.9459 22.5793 11.7392 22.6052 11.4551 22.3754C10.8746 21.9064 11.2171 20.5544 11.4019 19.8276C11.4384 19.6868 11.4687 19.5647 11.4938 19.4539C11.6441 18.7613 11.4155 17.9891 10.8944 17.4393C10.3848 16.901 9.68102 16.6546 8.96155 16.7623C7.43805 16.99 6.95562 18.2116 6.76558 18.7613C6.61834 18.4818 6.41472 18.1153 6.03045 17.8979C5.71823 17.7209 5.50939 17.6516 5.32352 17.6236C4.83274 17.3503 4.49964 17.3234 4.1728 17.3213C4.02556 17.3203 3.97544 17.3203 3.82403 17.2478C3.52121 17.105 3.20795 17.0604 2.91557 17.1163L2.35065 16.7613L2.00815 16.2436C1.81392 15.9496 1.45367 15.7912 1.11117 15.8782C0.716456 15.9786 0.481508 16.3254 0.489862 16.6878C0.207925 16.812 0.0105688 17.0874 0.00221513 17.4093C-0.00822699 17.8224 0.294594 18.1764 0.707058 18.2344L1.35134 18.3245L1.9079 18.6744C1.97786 18.9518 2.14389 19.2117 2.39868 19.426C2.52712 19.5347 2.548 19.5792 2.60857 19.7138C2.74327 20.0078 2.90512 20.2987 3.35622 20.631C3.45647 20.7863 3.60475 20.9478 3.89713 21.159C4.26573 21.426 4.69908 21.4457 5.01652 21.4592C5.04785 21.4612 5.08648 21.4623 5.12303 21.4654C6.1025 22.2801 6.95458 22.2729 7.50697 22.1124C7.61348 22.0824 7.71372 22.042 7.80979 21.9975C7.76593 23.6208 8.73809 25.1198 10.3483 25.832C12.1976 26.6519 14.2275 26.1633 15.5213 24.5887C17.6087 22.0451 18.2905 17.87 18.6967 15.3751L18.8325 14.5634C19.0654 13.2487 19.9289 11.1482 21.1235 10.5964C21.42 10.4587 21.9025 10.3262 22.6522 10.7569C23.0354 10.9753 23.3498 11.2196 23.6025 11.494C21.6926 12.0375 20.2443 13.4599 19.9101 15.2436C19.435 17.7841 20.8113 18.8928 21.607 19.1237C21.9432 19.222 22.3035 19.0968 22.506 18.8131C22.7086 18.5315 22.7076 18.1516 22.5039 17.87C21.9965 17.1691 21.9536 16.0086 22.4037 15.1711C22.7827 14.4661 23.4604 14.0686 24.3752 14.0106C24.347 14.4806 24.2624 14.9268 24.1903 15.3098C24.1601 15.4672 24.1319 15.6152 24.112 15.7426C24.1089 15.756 24.0985 15.8026 24.0891 15.8389C23.6954 17.5594 23.7236 19.0088 24.1715 20.1662C22.2481 21.3443 20.8833 23.7512 20.686 26.4418C20.6682 26.6716 20.6651 26.9045 20.6745 27.1364C18.6445 28.5692 17.7778 30.5962 18.1611 33.0259C18.7208 36.5726 21.2874 38.4216 25.2064 38.1038C26.543 37.9951 30.8556 37.0975 34.4643 36.3273L35.1389 36.1824C35.6172 36.083 36.6269 36.2279 37.0582 36.6772C37.1783 36.8025 37.2879 36.9764 37.196 37.3284C37.0091 38.0468 35.6245 38.3015 34.881 38.4381C34.7379 38.464 34.6126 38.4868 34.5019 38.5116C33.8034 38.6638 33.1904 39.1928 32.9043 39.8906C32.6234 40.5728 32.6892 41.312 33.0881 41.9145C33.9318 43.193 35.2527 43.1195 35.8364 43.0615C35.6422 43.311 35.3906 43.6464 35.3509 44.0854C35.3196 44.4394 35.3415 44.6579 35.3947 44.8359C35.3467 45.3918 35.4626 45.7045 35.5963 45.9985C35.6568 46.132 35.6767 46.1766 35.6746 46.3432C35.6683 46.6869 35.7665 46.9954 35.9492 47.2408L35.8281 48.0762L35.4783 48.6208C35.2506 48.9738 35.33 49.4376 35.661 49.6964C35.9064 49.8889 36.2406 49.9252 36.5225 49.7916C36.7533 49.9966 37.0885 50.0618 37.3871 49.9376C37.7714 49.7782 37.9739 49.3589 37.857 48.9624L37.6763 48.3423L37.8048 47.4551C38.0178 47.277 38.1786 47.0265 38.2674 46.7221C38.3123 46.5627 38.3446 46.5254 38.4417 46.4136C38.6548 46.1693 38.8542 45.9022 38.9701 45.3587C39.0725 45.2045 39.157 45.0016 39.2301 44.6516C39.322 44.2086 39.1581 43.809 39.0401 43.5181L39.0004 43.4197C39.3398 42.1971 38.9785 41.4331 38.6015 41.0014C38.5274 40.9186 38.4491 40.8451 38.3697 40.7757C39.8755 40.1401 40.8455 38.639 40.8288 36.8905C40.8079 34.8821 39.5142 33.2568 37.5333 32.7464C34.3307 31.9254 30.2186 33.0497 27.7616 33.7216L26.9617 33.9369C25.6585 34.2754 23.3727 34.3707 22.3682 33.5239C22.1186 33.3137 21.796 32.9358 21.8785 32.0787C21.9202 31.6428 22.0132 31.2577 22.1593 30.9161C23.4531 32.412 25.3619 33.1243 27.1361 32.6812C29.6641 32.0507 30.1069 30.3477 29.9868 29.5351C29.9366 29.1924 29.6725 28.9181 29.3289 28.8529C28.9854 28.7887 28.6376 28.9481 28.4653 29.2483C28.033 29.9968 26.9878 30.5186 26.0313 30.4627C25.2262 30.415 24.5798 29.9699 24.1444 29.1686C24.5882 28.9999 25.0309 28.8891 25.4131 28.7959C25.5416 28.7649 25.6637 28.7348 25.7713 28.7059C25.8151 28.6955 25.8872 28.6779 25.93 28.6675C27.9161 28.2566 29.3456 27.5029 30.1967 26.4252C32.1775 27.4222 34.8497 27.3652 37.2566 26.2213C37.4654 26.1219 37.6701 26.008 37.8695 25.8848C40.1323 26.919 42.3388 26.6602 44.2758 25.1229C47.1014 22.8816 47.4481 19.7521 45.2229 16.5397C44.4637 15.4434 41.5358 12.1782 39.0693 9.45557L38.6078 8.94519C38.2841 8.58286 37.9092 7.64183 38.0878 7.0476C38.1368 6.883 38.235 6.70079 38.59 6.60555C39.3116 6.41093 40.2221 7.47515 40.7108 8.04661C40.8058 8.15738 40.8863 8.25262 40.9635 8.33751C41.4439 8.86341 42.2103 9.12636 42.9632 9.02801C43.7014 8.9307 44.3144 8.50625 44.6454 7.8644C45.3461 6.5041 44.6245 5.40364 44.2841 4.9295C44.5995 4.97298 45.0182 5.02371 45.4213 4.83943C45.7471 4.69139 45.9256 4.56302 46.0572 4.42948C46.5668 4.19448 46.7829 3.94085 46.974 3.67893C47.0628 3.56091 47.091 3.52054 47.2382 3.43979C47.6413 3.21928 47.8261 2.92631 47.9128 2.69649L48.5153 2.43975L49.1658 2.45217C49.5877 2.46045 49.9469 2.15092 49.996 1.73578C50.0325 1.42211 49.8811 1.12499 49.6263 0.96039ZM27.3136 23.6518C27.0546 24.3589 25.4549 25.0504 24.3219 25.4718C24.6237 24.9055 25.0236 24.3734 25.4862 23.9458C26.3623 23.1352 27.0974 23.157 27.2509 23.2388C27.3647 23.4375 27.3491 23.5555 27.3136 23.6518ZM28.5196 19.2831C28.291 19.3017 28.1897 19.2396 28.1155 19.1682C27.5746 18.6392 27.607 16.9103 27.6926 15.7136C28.0863 16.2209 28.4079 16.8037 28.6074 17.4C28.9843 18.5243 28.6596 19.1785 28.5196 19.2831ZM32.685 23.3309C31.5406 22.9799 31.1939 22.3371 31.1907 22.1642C31.3077 21.9675 31.4184 21.9219 31.5197 21.9033C32.2684 21.776 33.6676 22.8081 34.598 23.5752C33.9558 23.5969 33.2896 23.5162 32.685 23.3309Z" fill="#707070"/>
<path d="M49.1793 1.64295L48.4431 1.48041L48.8201 0.812683L48.2625 1.41933L47.0481 1.93695C46.9405 1.82204 46.7578 1.74336 46.4769 1.81272C45.7344 1.99596 45.7125 1.60361 44.8886 1.90176C44.7195 1.96387 44.7769 1.82101 44.2433 1.99596C43.8726 2.11605 43.622 2.73202 43.3745 2.78481C40.9822 3.29208 41.9304 5.31598 42.2604 5.71661C42.6707 6.21456 42.3293 6.38538 42.1476 6.20628C41.8636 5.9247 41.5127 5.46298 40.8381 4.8056C38.5283 2.54671 34.2251 4.84287 35.1983 8.38236C36.1152 11.7148 39.7605 14.9944 41.2851 16.5338C42.6645 17.9273 45.0609 21.7349 41.9356 23.1387C40.8736 23.6169 39.962 23.6532 39.1862 23.4585C40.2764 21.6955 40.2137 19.4667 38.9251 18.1395C37.1521 16.3133 35.8499 17.3237 35.8499 17.3237C37.9133 17.3216 40.505 19.9118 38.3696 22.6863C38.284 22.797 38.1921 22.9037 38.095 23.0041C37.1803 22.4668 36.5235 21.6779 36.0765 21.2411C35.8781 21.0464 34.0716 18.7637 31.8255 18.8124C32.0219 16.4427 30.2937 14.0337 27.9233 12.7417C27.6132 12.574 27.2874 12.4353 26.9501 12.3277C26.7183 10.5564 25.8391 8.55628 23.1074 7.7933C18.9452 6.63073 17.1732 9.70746 16.509 11.5222C15.941 13.0761 14.4175 20.0474 14.1617 21.1769C13.9184 22.2535 12.3959 24.1832 10.9371 23.0041C9.81147 22.0962 10.5205 20.063 10.6907 19.2814C10.8745 18.4397 10.1206 17.4096 9.08156 17.5649C7.83686 17.7502 7.60296 18.8849 7.46094 19.2503C7.15917 20.0205 6.45641 19.6396 6.31544 19.5474C6.10242 19.4108 5.96146 18.7938 5.62209 18.6022C5.13444 18.3269 5.16263 18.477 5.00914 18.3838C4.26148 17.9273 4.16019 18.3072 3.46997 17.9821C3.25486 17.8807 3.08465 17.89 2.95935 17.948C2.91758 17.9749 2.88938 18.0028 2.8497 18.0391L1.76164 17.3548L1.30845 16.6694L1.5883 17.3631L0.820801 17.4314L1.64051 17.5463L2.71396 18.2202C2.65861 18.3797 2.68054 18.5991 2.92906 18.8093C3.51069 19.301 3.20265 19.5474 3.92733 20.0392C4.07665 20.1396 3.92629 20.1758 4.37948 20.504C4.69378 20.7328 5.34433 20.5754 5.53229 20.7452C7.34086 22.3778 8.44877 20.4356 8.58452 19.9356C8.75368 19.3155 9.09305 19.4905 9.05232 19.741C8.98549 20.1334 8.81216 20.6851 8.66492 21.6117C8.15639 24.7899 12.5463 26.9214 14.8822 24.0766C17.0802 21.3974 17.6483 16.5494 18.0231 14.424C18.3646 12.5016 20.0917 8.3513 23.0615 10.0532C24.0723 10.6319 24.632 11.3452 24.9254 12.0833C22.8443 12.2303 21.0535 13.5803 20.7151 15.392C20.2505 17.8827 21.8366 18.3445 21.8366 18.3445C20.6326 16.6819 21.2487 13.0865 24.7667 13.1921C24.9076 13.1962 25.0476 13.2086 25.1875 13.2283C25.2794 14.278 25.0152 15.2677 24.917 15.8806C24.8742 16.1446 24.1119 18.741 25.2616 20.5226C23.1074 21.4005 21.6925 23.8985 21.5014 26.5022C21.4753 26.8624 21.4858 27.2123 21.5254 27.5509C19.9978 28.4991 18.5306 30.1245 18.9692 32.9041C19.6375 37.1392 23.1962 37.455 25.1374 37.2976C26.7977 37.1631 33.8263 35.6309 34.9665 35.3918C36.0556 35.163 38.4594 35.7313 37.9874 37.5368C37.622 38.9292 35.4636 39.1373 34.6762 39.3091C33.8263 39.4944 33.1966 40.6032 33.772 41.4748C34.4611 42.5194 35.5983 42.2575 35.992 42.2347C36.8252 42.186 36.7678 42.978 36.7427 43.1436C36.7062 43.3931 36.1997 43.7772 36.1653 44.1613C36.1152 44.7151 36.2415 44.6282 36.2206 44.8042C36.1131 45.6686 36.5036 45.6003 36.4921 46.3591C36.489 46.5889 36.5652 46.7359 36.6655 46.8249L36.6686 46.8208L36.6978 46.8519L36.7271 46.8746V46.8757C36.7563 46.8953 36.7887 46.9098 36.8231 46.9202L36.6122 48.3695L36.1674 49.0621L36.6916 48.5238L37.0696 49.1905L36.8388 48.4016L37.0518 46.9388C37.2137 46.9129 37.3902 46.7991 37.4747 46.503C37.6836 45.7731 38.0376 45.9491 38.1858 45.092C38.2172 44.916 38.3111 45.036 38.4239 44.4915C38.5033 44.1126 38.0887 43.5919 38.165 43.3517C38.9074 41.04 36.6655 40.8516 36.1517 40.9365C35.5116 41.0421 35.5304 40.6642 35.7789 40.598C36.1663 40.4934 36.7438 40.4199 37.6554 40.1673C40.7818 39.2998 40.9071 34.4569 37.3265 33.5366C33.9526 32.6711 29.2714 34.1805 27.1673 34.7271C25.2627 35.222 20.7381 35.3938 21.0608 32.0076C21.1704 30.8564 21.5902 30.0541 22.1457 29.4826C23.1481 31.2953 25.1311 32.3471 26.9334 31.8968C29.4134 31.2787 29.1743 29.6565 29.1743 29.6565C28.151 31.432 24.5986 32.3771 23.2285 29.1617C23.1742 29.0333 23.1273 28.9018 23.0865 28.7683C24.0117 28.2476 25.0288 28.0736 25.6313 27.907C25.9059 27.8314 28.9205 27.3935 29.9324 25.3261C31.7765 26.6429 34.5823 26.5964 36.8994 25.4949C37.2283 25.3396 37.529 25.1563 37.8057 24.9534C39.394 25.7972 41.5461 26.2527 43.7619 24.4948C47.1389 21.8156 45.6478 18.5971 44.5451 17.0049C43.6011 15.6425 38.7716 10.3555 37.9937 9.49213C37.2565 8.66498 36.5579 6.31498 38.3748 5.82531C39.7751 5.44745 41.0303 7.20218 41.5712 7.79537C42.1549 8.43308 43.4372 8.42584 43.9154 7.49723C44.4877 6.38538 43.693 5.53648 43.4779 5.20935C43.0216 4.51781 43.7431 4.17411 43.9008 4.11199C44.1368 4.01986 44.7247 4.26521 45.0787 4.10371C45.5893 3.87182 45.4494 3.8066 45.6154 3.73723C46.4257 3.39975 46.172 3.09746 46.8413 2.73098C47.0261 2.62953 47.118 2.50737 47.1556 2.38832L47.1494 2.36554C47.1786 2.26305 47.1755 2.19162 47.1608 2.13572L48.3544 1.62742L49.1793 1.64295ZM26.9574 14.7149C26.9804 14.4934 27.0013 14.2356 27.0138 13.9499C28.1624 14.7273 28.9947 15.9831 29.3842 17.1426C29.9481 18.8269 29.3226 20.0122 28.6449 20.0888C26.3915 20.3435 26.7851 16.4376 26.9574 14.7149ZM23.711 26.5498C23.499 26.6222 23.2526 26.7102 22.9852 26.8189C23.2202 25.4597 24.0253 24.1863 24.9264 23.353C26.2348 22.1428 27.5819 22.2121 27.9348 22.7919C29.1075 24.7143 25.3619 25.9876 23.711 26.5498ZM32.4406 24.1066C30.7312 23.5817 30.1235 22.3871 30.4545 21.796C31.5572 19.83 34.5321 22.4212 35.8447 23.5641C36.0128 23.7111 36.2123 23.8789 36.4399 24.0548C35.1336 24.529 33.6174 24.4689 32.4406 24.1066Z" fill="#707070"/>
</g>
<defs>
<clipPath id="clip0">
<rect width="50" height="50" fill="white"/>
</clipPath>
</defs>
</svg>
