<svg width="55" height="55" viewBox="0 0 55 55" fill="none" xmlns="http://www.w3.org/2000/svg">
<g clip-path="url(#clip0)">
<path d="M4.92479 41.6373C4.31979 41.6373 3.73312 41.3188 3.41917 40.7527C1.18479 36.7194 0 32.136 0 27.5C0 12.336 12.336 0 27.5 0C31.9206 0 36.3046 1.07708 40.1798 3.11208C41.0208 3.55438 41.344 4.5925 40.9017 5.43354C40.464 6.27458 39.4258 6.6 38.5802 6.15542C35.1954 4.37708 31.366 3.4375 27.5 3.4375C14.2313 3.4375 3.4375 14.2313 3.4375 27.5C3.4375 31.554 4.47104 35.5598 6.42813 39.0867C6.88646 39.9163 6.58625 40.9635 5.75896 41.4242C5.49313 41.5685 5.20667 41.6373 4.92479 41.6373Z" fill="#06C1D4"/>
<path d="M27.5 55C22.4057 55 17.435 53.5929 13.1267 50.9323C12.3177 50.435 12.0679 49.3739 12.5652 48.5673C13.0648 47.7629 14.1259 47.5085 14.9302 48.0081C18.6977 50.3318 23.045 51.5625 27.5 51.5625C40.7688 51.5625 51.5625 40.7687 51.5625 27.5C51.5625 23.0381 50.3342 18.7 48.0082 14.9554C47.5086 14.1487 47.7584 13.09 48.5627 12.5881C49.3694 12.0839 50.4282 12.336 50.9277 13.1427C53.593 17.4304 55 22.3964 55 27.5C55 42.6639 42.664 55 27.5 55Z" fill="#06C1D4"/>
<path d="M21.198 25.7813C20.2492 25.7813 19.4792 25.0113 19.4792 24.0625C19.4792 22.7998 18.4525 21.7709 17.1875 21.7709C15.9225 21.7709 14.8959 22.7998 14.8959 24.0625C14.8959 25.0113 14.1259 25.7813 13.1771 25.7813C12.2284 25.7813 11.4584 25.0113 11.4584 24.0625C11.4584 20.9046 14.0273 18.3334 17.1875 18.3334C20.3477 18.3334 22.9167 20.9046 22.9167 24.0625C22.9167 25.0113 22.1467 25.7813 21.198 25.7813Z" fill="#06C1D4"/>
<path d="M41.823 25.7813C40.8742 25.7813 40.1042 25.0113 40.1042 24.0625C40.1042 22.7998 39.0775 21.7709 37.8125 21.7709C36.5475 21.7709 35.5209 22.7998 35.5209 24.0625C35.5209 25.0113 34.7509 25.7813 33.8021 25.7813C32.8534 25.7813 32.0834 25.0113 32.0834 24.0625C32.0834 20.9046 34.6523 18.3334 37.8125 18.3334C40.9727 18.3334 43.5417 20.9046 43.5417 24.0625C43.5417 25.0113 42.7717 25.7813 41.823 25.7813Z" fill="#06C1D4"/>
<path d="M27.5 41.25C22.495 41.25 17.7925 39.3021 14.2542 35.7615C13.5827 35.09 13.5827 34.0015 14.2542 33.33C14.9257 32.6586 16.0142 32.6586 16.6857 33.33C19.5732 36.2221 23.414 37.8125 27.5 37.8125C31.5861 37.8125 35.4269 36.2221 38.3167 33.3323C38.9882 32.6608 40.0767 32.6608 40.7482 33.3323C41.4196 34.0038 41.4196 35.0923 40.7482 35.7638C37.2075 39.3021 32.505 41.25 27.5 41.25Z" fill="#06C1D4"/>
<path d="M45.8333 18.4159C45.4895 18.4159 45.1458 18.3127 44.8479 18.1065C43.4843 17.1509 36.6666 12.1619 36.6666 7.56253C36.6666 4.61086 39.1806 2.21149 42.2698 2.21149C43.5966 2.21149 44.8479 2.65836 45.8333 3.42836C46.8187 2.65836 48.07 2.21149 49.3968 2.21149C52.486 2.2092 55 4.61086 55 7.56253C55 12.1619 48.1823 17.1532 46.8187 18.1065C46.5208 18.3127 46.177 18.4159 45.8333 18.4159ZM42.2698 5.6467C41.0758 5.6467 40.1041 6.50607 40.1041 7.56024C40.1041 9.39357 43.2368 12.5492 45.8333 14.5613C48.4756 12.5217 51.5625 9.4142 51.5625 7.56024C51.5625 6.50607 50.5908 5.6467 49.3968 5.6467C48.5123 5.6467 47.7262 6.11191 47.3939 6.83149C46.8302 8.04607 44.8387 8.04607 44.275 6.83149C43.9404 6.11191 43.1543 5.6467 42.2698 5.6467Z" fill="#06C1D4"/>
<path d="M9.16667 55.0825C8.82292 55.0825 8.47917 54.9794 8.18125 54.7731C6.81771 53.8175 0 48.8285 0 44.2292C0 41.2775 2.51396 38.8781 5.60313 38.8781C6.93 38.8781 8.18125 39.325 9.16667 40.095C10.1521 39.325 11.4033 38.8781 12.7302 38.8781C15.8194 38.8758 18.3333 41.2775 18.3333 44.2292C18.3333 48.8285 11.5156 53.8198 10.1521 54.7731C9.85417 54.9794 9.51042 55.0825 9.16667 55.0825ZM5.60313 42.3133C4.40917 42.3133 3.4375 43.1727 3.4375 44.2269C3.4375 46.0602 6.57021 49.2158 9.16667 51.2279C11.809 49.1883 14.8958 46.0808 14.8958 44.2269C14.8958 43.1727 13.9242 42.3133 12.7302 42.3133C11.8456 42.3133 11.0596 42.7785 10.7273 43.4981C10.1635 44.7127 8.17208 44.7127 7.60833 43.4981C7.27375 42.7785 6.48771 42.3133 5.60313 42.3133Z" fill="#06C1D4"/>
</g>
<defs>
<clipPath id="clip0">
<rect width="55" height="55" fill="white"/>
</clipPath>
</defs>
</svg>
