<svg width="24" height="24" viewBox="0 0 24 24" fill="none" xmlns="http://www.w3.org/2000/svg">
<path d="M23.0364 6.37619C22.7771 5.41228 22.0171 4.65244 21.0533 4.39288C19.2926 3.91113 12.2497 3.91113 12.2497 3.91113C12.2497 3.91113 5.20708 3.91113 3.44638 4.37462C2.50114 4.6339 1.72263 5.41241 1.46335 6.37619C1 8.13675 1 11.7879 1 11.7879C1 11.7879 1 15.4575 1.46335 17.1996C1.7229 18.1634 2.4826 18.9233 3.44652 19.1828C5.22562 19.6647 12.25 19.6647 12.25 19.6647C12.25 19.6647 19.2926 19.6647 21.0533 19.2012C22.0173 18.9418 22.7771 18.182 23.0366 17.2182C23.4999 15.4575 23.4999 11.8065 23.4999 11.8065C23.4999 11.8065 23.5184 8.13675 23.0364 6.37619ZM10.0074 15.161V8.41484L15.864 11.7879L10.0074 15.161Z" fill="#171C27"/>
</svg>
