<svg width="20" height="20" viewBox="0 0 20 20" fill="none" xmlns="http://www.w3.org/2000/svg">
<g clip-path="url(#clip0)">
<path d="M10.7687 13.8223L7.70949 16.8815C7.0939 17.4555 6.27945 17.768 5.43789 17.7531C4.59634 17.7382 3.79345 17.3971 3.19856 16.8016C2.60367 16.2062 2.26326 15.403 2.24913 14.5615C2.235 13.7199 2.54825 12.9057 3.12282 12.2906L3.12116 12.2923L6.18032 9.23314C6.36604 9.02684 6.46548 8.75712 6.45813 8.47963C6.45077 8.20214 6.33718 7.93806 6.14079 7.74189C5.9444 7.54571 5.6802 7.43241 5.4027 7.42535C5.12521 7.4183 4.85559 7.51803 4.64949 7.70398L4.65032 7.70315L1.59116 10.7623C0.618999 11.7859 0.0853254 13.149 0.103989 14.5605C0.122653 15.9721 0.692176 17.3205 1.69106 18.3181C2.68994 19.3157 4.0391 19.8835 5.45071 19.9003C6.86232 19.9171 8.22462 19.3816 9.24699 18.4081L9.24449 18.4098L12.3037 15.3506C12.4894 15.1443 12.5888 14.8746 12.5815 14.5971C12.5741 14.3196 12.4605 14.0556 12.2641 13.8594C12.0677 13.6632 11.8035 13.5499 11.526 13.5429C11.2485 13.5358 10.9789 13.6355 10.7728 13.8215L10.7737 13.8206L10.7687 13.8223Z" fill="#F9B3AB"/>
<path d="M20.0056 5.40731C20.0052 4.33719 19.6874 3.29123 19.0926 2.40165C18.4978 1.51207 17.6525 0.818822 16.6638 0.409529C15.675 0.000236337 14.5871 -0.106722 13.5376 0.102175C12.488 0.311071 11.524 0.826445 10.7673 1.58315L7.70814 4.64231C7.59888 4.74066 7.51079 4.86022 7.44922 4.9937C7.38765 5.12719 7.35389 5.2718 7.34999 5.41875C7.34609 5.5657 7.37215 5.7119 7.42656 5.84846C7.48097 5.98502 7.56261 6.10908 7.66649 6.21308C7.77038 6.31708 7.89435 6.39885 8.03085 6.45341C8.16735 6.50797 8.31352 6.53418 8.46047 6.53044C8.60742 6.52671 8.75208 6.4931 8.88563 6.43168C9.01918 6.37025 9.13883 6.28229 9.2373 6.17315L9.23814 6.17231L12.2973 3.11315C12.9129 2.53913 13.7273 2.22662 14.5689 2.24152C15.4105 2.25641 16.2133 2.59754 16.8082 3.19298C17.4031 3.78841 17.7435 4.5916 17.7577 5.43317C17.7718 6.27474 17.4585 7.08891 16.884 7.70398L16.8856 7.70231L13.8265 10.7615C13.7172 10.8598 13.6291 10.9794 13.5676 11.1129C13.506 11.2464 13.4722 11.391 13.4683 11.5379C13.4644 11.6849 13.4905 11.8311 13.5449 11.9676C13.5993 12.1042 13.6809 12.2282 13.7848 12.3322C13.8887 12.4362 14.0127 12.518 14.1492 12.5726C14.2857 12.6271 14.4319 12.6533 14.5788 12.6496C14.7258 12.6459 14.8704 12.6123 15.004 12.5508C15.1375 12.4894 15.2572 12.4015 15.3556 12.2923L15.3565 12.2915L18.4156 9.23231C18.9202 8.7331 19.3205 8.13865 19.5935 7.48346C19.8664 6.82828 20.0065 6.12541 20.0056 5.41565V5.40814V5.40731Z" fill="#F9B3AB"/>
<path d="M6.17702 13.8265C6.37285 14.0223 6.64285 14.1432 6.94202 14.1432C7.24118 14.1432 7.51119 14.0223 7.70702 13.8265L13.8254 7.70815C14.0111 7.50185 14.1105 7.23212 14.1032 6.95463C14.0958 6.67715 13.9822 6.41307 13.7858 6.21689C13.5894 6.02072 13.3252 5.90741 13.0477 5.90036C12.7702 5.89331 12.5006 5.99304 12.2945 6.17898L12.2954 6.17815L6.17702 12.2965C5.98118 12.4923 5.86035 12.7623 5.86035 13.0615C5.86035 13.3607 5.98118 13.6307 6.17702 13.8265Z" fill="#F9B3AB"/>
</g>
<defs>
<clipPath id="clip0">
<rect y="-0.000183105" width="20" height="20" fill="white"/>
</clipPath>
</defs>
</svg>
