<svg width="51" height="48" viewBox="0 0 51 48" fill="none" xmlns="http://www.w3.org/2000/svg">
<path d="M19.7343 17.4944C23.1695 16.1844 24.8413 11.2782 23.4692 6.53517C22.0971 1.79459 18.1987 -0.98599 14.7635 0.323973C11.3283 1.63394 9.65648 6.54012 11.0286 11.2832C12.4032 16.0237 16.2991 18.8043 19.7343 17.4944Z" fill="#A5736E"/>
<path d="M12.2398 18.6956C9.57727 14.7262 5.10429 13.5299 2.24861 16.0238C-0.607064 18.5152 -0.763098 23.755 1.89692 27.7245C4.55941 31.6939 9.03239 32.8902 11.8881 30.3963C14.7462 27.9049 14.9023 22.665 12.2398 18.6956Z" fill="#A5736E"/>
<path d="M36.6058 32.5219C35.6548 31.7433 34.7582 30.5668 34.1316 28.2188C31.9719 20.1143 27.8877 19.6892 25.6611 19.6892C25.5794 19.6892 25.4977 19.6892 25.411 19.6917C23.1473 19.7312 19.2712 20.4109 17.1907 28.2188C16.5641 30.5668 15.6675 31.7433 14.7164 32.5219C13.1066 33.8417 11.1524 34.8897 10.1419 38.5699C9.03482 43.6615 11.8533 46.9512 16.3783 47.8113C20.5269 48.5998 22.7634 46.6719 25.411 46.4791C25.4927 46.4742 25.5769 46.4693 25.6611 46.4668C28.4202 46.5508 30.6666 48.6245 34.9415 47.8113C39.4665 46.9512 42.285 43.6615 41.1779 38.5699C40.1699 34.8872 38.2157 33.8417 36.6058 32.5219Z" fill="#A5736E"/>
<path d="M31.0902 17.4944C34.5254 18.8043 38.4213 16.0237 39.7959 11.2832C41.168 6.54259 39.4962 1.63641 36.061 0.323973C32.6257 -0.98599 28.7298 1.79459 27.3577 6.53517C25.9831 11.2782 27.6549 16.1844 31.0902 17.4944Z" fill="#A5736E"/>
<path d="M48.5735 16.0212C45.7178 13.5274 41.2448 14.7236 38.5823 18.6931C35.9198 22.665 36.0784 27.9048 38.934 30.3962C41.7897 32.8901 46.2627 31.6938 48.9252 27.7244C51.5877 23.755 51.4316 18.5151 48.5735 16.0212Z" fill="#A5736E"/>
</svg>
