<svg width="60" height="54" viewBox="0 0 60 54" fill="none" xmlns="http://www.w3.org/2000/svg">
<path d="M48.8665 53.325C53.6801 49.4315 57.1713 44.144 58.861 38.1879C60.5508 32.2318 60.3564 25.8987 58.3045 20.0574C56.2526 14.2162 52.4438 9.15277 47.4004 5.5618C42.357 1.97083 36.3262 0.0281747 30.135 0.000303977C23.9439 -0.0275667 17.8958 1.86071 12.8203 5.40613C7.74481 8.95155 3.89053 13.9804 1.78614 19.803C-0.318233 25.6256 -0.56963 31.9566 1.06644 37.9277C2.7025 43.8988 6.1459 49.2175 10.9243 53.1542L21.8994 39.8326C19.8702 38.1609 18.4079 35.9022 17.7132 33.3666C17.0184 30.8309 17.1251 28.1424 18.0188 25.6698C18.9124 23.1972 20.5492 21.0616 22.7045 19.556C24.8599 18.0505 27.4282 17.2486 30.0574 17.2604C32.6865 17.2723 35.2475 18.0972 37.3892 19.6221C39.5309 21.1471 41.1484 23.2973 42.0197 25.7778C42.8911 28.2584 42.9736 30.9477 42.256 33.4771C41.5385 36.0064 40.0559 38.2517 38.0118 39.9051L48.8665 53.325Z" fill="#E4265C"/>
</svg>
