<svg width="19" height="15" viewBox="0 0 19 15" fill="none" xmlns="http://www.w3.org/2000/svg">
<path d="M0.26799 14.0183C0.267902 14.0184 0.267753 14.0183 0.267786 14.0182C1.49497 9.51312 3.98392 6.32994 7.61607 4.62267C8.71545 4.12133 9.99632 3.72067 11.3329 3.48333C11.3987 3.47357 11.4658 3.47434 11.5316 3.46394C11.7348 3.43184 11.7358 3.18166 11.7358 1.234C11.7358 0.41588 12.7282 0.00984681 13.3017 0.593353L17.8572 5.2288C18.6219 6.00694 18.6219 7.25439 17.8572 8.03253L13.9583 11.9999C13.1444 12.828 11.7358 12.2517 11.7358 11.0906V10.7053C11.7358 10.2016 11.3275 9.79333 10.8238 9.79333C8.43222 9.84508 6.08121 10.4323 3.93794 11.5133L4.03294 11.47C2.87142 12.1548 1.81843 13.0146 0.909731 14.02L0.901214 14.03L0.357433 14.6155C0.265788 14.7142 0.10327 14.6239 0.138665 14.494L0.268195 14.0184C0.268228 14.0183 0.268078 14.0182 0.26799 14.0183Z" fill="#F9B3AB"/>
</svg>
