<!-- Generated by IcoMoon.io -->
<svg version="1.1" xmlns="http://www.w3.org/2000/svg" width="32" height="32" viewBox="0 0 32 32">
<title>sound-1</title>
<path d="M21.9 1.475c-0.5-0.2-1-0.2-1.4 0.1l-10.3 7.7h-6.2c-0.7 0-1.3 0.6-1.3 1.3v10.7c0 0.7 0.6 1.3 1.3 1.3h6.2l10.3 7.7c0.2 0.2 0.5 0.3 0.8 0.3 0.2 0 0.4 0 0.6-0.1 0.5-0.2 0.7-0.7 0.7-1.2v-26.6c0-0.5-0.3-1-0.7-1.2z"></path>
<path d="M26.9 10.275l-0.9-0.9-1.9 1.9 0.9 0.9c2.1 2.1 2.1 5.5 0 7.5l-0.9 0.9 1.9 1.9 0.9-0.9c3.2-3.1 3.2-8.1 0-11.3z"></path>
</svg>
