<?xml version="1.0" encoding="utf-8"?><svg xmlns="http://www.w3.org/2000/svg" xmlns:xlink="http://www.w3.org/1999/xlink"><symbol viewBox="0 0 32 32" id="advertising-1" xmlns="http://www.w3.org/2000/svg"><path d="M6.626 11.5h6.562V8.876H6.626v1.312zm13.498 3.938v3.938h5.252v-6.564h-5.252v1.312z"/><path d="M30 0H2C.8 0 0 .8 0 2v28c0 1.2.8 2 2 2h28c1.2 0 2-.8 2-2V2c0-1.2-.8-2-2-2zM4 20.688V8.876h2.624V6.25h6.56v2.624h2.628V22h-2.624v-7.876H6.626V22H4v-1.312zM28 28H4v-2h24v2zm0-20.438V22H17.5v-9.188h2.624v-2.624h5.248V6.25H28v1.312z"/></symbol><symbol viewBox="0 0 32 32" id="advertising-2" xmlns="http://www.w3.org/2000/svg"><path d="M30 0H2C.8 0 0 .8 0 2v28c0 1.2.8 2 2 2h28c1.2 0 2-.8 2-2V2c0-1.2-.8-2-2-2zM15 26.8C9.2 25.6 5.4 20 6.4 14.2 7.6 8 12.8 4.6 18 5.2c2 .2 3.8 1.2 5.4 2.4 1.4 1 2.2 2.6 2.2 2.6s-9.8 10-10.4 10.6c-1.2-.4-2.2-1.2-2.8-2.2 0 0 4.6-4.6 8.2-8.4-1-.8-2.4-1.2-3.8-1.2-6 .2-6.8 5.8-6.8 5.8-.2 1.2-.2 2.4.2 3.4.2.8.8 1.8 1.4 2.4s1.4 1.2 2.2 1.6c.2 0 .2.2.4.2h.8c1 .2 2.2.4 3.2 0 .4 0 .8-.2 1.2-.4l1.2-.6c.4-.2.8-.6 1-.8.4-.4.8-.8 1.4-1h.8c.2 0 .2 0 .4.2s.6.4.8.6c.2.2.2.4.4.6s0 .2 0 .2c-2.2 4.6-6.8 6.2-10.4 5.6z"/></symbol><symbol viewBox="0 0 32 32" id="alarm-delete" xmlns="http://www.w3.org/2000/svg"><path d="M20 28h-8a4 4 0 008 0zm10.2-2.04a1.984 1.984 0 00-.176-3.96H29a8.074 8.074 0 01-3-5.986V9.967C26 4.463 21.538.001 16.034.001a9.95 9.95 0 00-7.883 3.868l-.017.023zM6 10.242V16a8.07 8.07 0 01-2.985 5.988L3 22H2a2 2 0 100 4h19.758zM30 31h-.002a.998.998 0 01-.706-.292l-28-28a1 1 0 111.416-1.416l28 28A.998.998 0 0130.002 31H30z"/></symbol><symbol viewBox="0 0 32 32" id="alert" xmlns="http://www.w3.org/2000/svg"><path d="M30.432 27.058L17.764 3.308c-.752-1.412-2.776-1.412-3.53 0L1.568 27.058C.858 28.39 1.824 30 3.334 30h25.334c1.508 0 2.474-1.61 1.764-2.942zM16 26a2 2 0 11.001-4.001A2 2 0 0116 26zm2-6h-4v-8h4v8z"/></symbol><symbol viewBox="0 0 32 32" id="alert-circle-i" xmlns="http://www.w3.org/2000/svg"><path d="M16 0C7.2 0 0 7.2 0 16s7.2 16 16 16 16-7.2 16-16S24.8 0 16 0zm2 24h-4V14h4v10zm-2-12c-1.2 0-2-.8-2-2s.8-2 2-2 2 .8 2 2-.8 2-2 2z"/></symbol><symbol viewBox="0 0 32 32" id="bag-49" xmlns="http://www.w3.org/2000/svg"><path d="M30 8h-6V2c0-1.2-.8-2-2-2H10C8.8 0 8 .8 8 2v6H2c-1.2 0-2 .8-2 2v20c0 1.2.8 2 2 2h28c1.2 0 2-.8 2-2V10c0-1.2-.8-2-2-2zM12 4h8v4h-8V4zm10 18h-4v4h-4v-4h-4v-4h4v-4h4v4h4v4z"/></symbol><symbol viewBox="0 0 32 32" id="bell-53" xmlns="http://www.w3.org/2000/svg"><path d="M20 28h-8c0 2.2 1.8 4 4 4s4-1.8 4-4zm10-6h-1c-1.4-1.4-3-3.4-3-6v-6c0-5.6-4.4-10-10-10S6 4.4 6 10v6c0 2.6-1.6 4.6-3 6H2c-1.2 0-2 .8-2 2s.8 2 2 2h28c1.2 0 2-.8 2-2s-.8-2-2-2z"/></symbol><symbol viewBox="0 0 32 32" id="bookmark-2" xmlns="http://www.w3.org/2000/svg"><path d="M8 0C5.8 0 4 1.8 4 4v28l12-6 12 6V4c0-2.2-1.8-4-4-4H8z"/></symbol><symbol viewBox="0 0 32 32" id="bullet-list-67" xmlns="http://www.w3.org/2000/svg"><path d="M8 4a4 4 0 11-8 0 4 4 0 018 0zm4-2h20v4H12V2zM8 16a4 4 0 11-8 0 4 4 0 018 0zm4-2h20v4H12v-4zM8 28a4 4 0 11-8 0 4 4 0 018 0zm4-2h20v4H12v-4z"/></symbol><symbol viewBox="0 0 32 32" id="bullet-list-69" xmlns="http://www.w3.org/2000/svg"><path d="M12 2h20v4H12V2zm0 12h20v4H12v-4zm0 12h20v4H12v-4zM6 0H2C.8 0 0 .8 0 2v4c0 1.2.8 2 2 2h4c1.2 0 2-.8 2-2V2c0-1.2-.8-2-2-2zm0 12H2c-1.2 0-2 .8-2 2v4c0 1.2.8 2 2 2h4c1.2 0 2-.8 2-2v-4c0-1.2-.8-2-2-2zm0 12H2c-1.2 0-2 .8-2 2v4c0 1.2.8 2 2 2h4c1.2 0 2-.8 2-2v-4c0-1.2-.8-2-2-2z"/></symbol><symbol viewBox="0 0 32 32" id="bullet-list-70" xmlns="http://www.w3.org/2000/svg"><path d="M30 0H14c-1.2 0-2 .8-2 2v4c0 1.2.8 2 2 2h16c1.2 0 2-.8 2-2V2c0-1.2-.8-2-2-2zm0 12H14c-1.2 0-2 .8-2 2v4c0 1.2.8 2 2 2h16c1.2 0 2-.8 2-2v-4c0-1.2-.8-2-2-2zm0 12H14c-1.2 0-2 .8-2 2v4c0 1.2.8 2 2 2h16c1.2 0 2-.8 2-2v-4c0-1.2-.8-2-2-2zM6 0H2C.8 0 0 .8 0 2v4c0 1.2.8 2 2 2h4c1.2 0 2-.8 2-2V2c0-1.2-.8-2-2-2zm0 12H2c-1.2 0-2 .8-2 2v4c0 1.2.8 2 2 2h4c1.2 0 2-.8 2-2v-4c0-1.2-.8-2-2-2zm0 12H2c-1.2 0-2 .8-2 2v4c0 1.2.8 2 2 2h4c1.2 0 2-.8 2-2v-4c0-1.2-.8-2-2-2z"/></symbol><symbol viewBox="0 0 32 32" id="button-pause" xmlns="http://www.w3.org/2000/svg"><path d="M10 2H4c-1.2 0-2 .8-2 2v24c0 1.2.8 2 2 2h6c1.2 0 2-.8 2-2V4c0-1.2-.8-2-2-2zm18 0h-6c-1.2 0-2 .8-2 2v24c0 1.2.8 2 2 2h6c1.2 0 2-.8 2-2V4c0-1.2-.8-2-2-2z"/></symbol><symbol viewBox="0 0 32 32" id="button-play" xmlns="http://www.w3.org/2000/svg"><path d="M27.2 14.4L7.2.4C5.8-.6 4 .4 4 2v28c0 1.6 1.8 2.6 3.2 1.6l20-14c1-.8 1-2.4 0-3.2z"/></symbol><symbol viewBox="0 0 32 32" id="button-record" xmlns="http://www.w3.org/2000/svg"><path d="M30 16c0 7.732-6.268 14-14 14S2 23.732 2 16 8.268 2 16 2s14 6.268 14 14z"/></symbol><symbol viewBox="0 0 32 32" id="button-stop" xmlns="http://www.w3.org/2000/svg"><path d="M28 2H4c-1.2 0-2 .8-2 2v24c0 1.2.8 2 2 2h24c1.2 0 2-.8 2-2V4c0-1.2-.8-2-2-2z"/></symbol><symbol viewBox="0 0 32 32" id="calendar-grid-61" xmlns="http://www.w3.org/2000/svg"><path d="M30 4h-4V0h-6v4h-8V0H6v4H2a2 2 0 00-2 2v24a2 2 0 002 2h28a2 2 0 002-2V6a2 2 0 00-2-2zm-2 24H4V10h24v18z"/><path d="M8 14h4v4H8v-4zm6 0h4v4h-4v-4zm-6 6h4v4H8v-4zm6 0h4v4h-4v-4zm6-6h4v4h-4v-4zm0 6h4v4h-4v-4z"/></symbol><symbol viewBox="0 0 32 32" id="chart-bar-33" xmlns="http://www.w3.org/2000/svg"><path d="M18.667 17.333h-5.333c-.736 0-1.333.597-1.333 1.333v12c0 .736.597 1.333 1.333 1.333h5.333c.736 0 1.333-.597 1.333-1.333v-12c0-.736-.597-1.333-1.333-1.333zm-12 5.334H1.334c-.736 0-1.333.597-1.333 1.333v6.667C.001 31.403.598 32 1.334 32h5.333C7.403 32 8 31.403 8 30.667V24c0-.736-.597-1.333-1.333-1.333zm24-10.667h-5.333c-.736 0-1.333.597-1.333 1.333v17.333c0 .736.597 1.333 1.333 1.333h5.333c.736 0 1.333-.597 1.333-1.333V13.333c0-.736-.597-1.333-1.333-1.333zm-13.724.943l8.391-8.391v4.781h2.667v-8C28.001.597 27.404 0 26.668 0h-8v2.667h4.781l-7.448 7.448-4.391-4.391a1.332 1.332 0 00-1.885 0l-6.667 6.667 1.885 1.885 5.724-5.724 4.391 4.391a1.332 1.332 0 001.885 0z"/></symbol><symbol viewBox="0 0 32 32" id="check-bold" xmlns="http://www.w3.org/2000/svg"><path d="M11.2 16.8l-8-4.8L0 15.2 11.2 28 32 7.2 28.8 4z"/></symbol><symbol viewBox="0 0 32 32" id="check-circle-08" xmlns="http://www.w3.org/2000/svg"><path d="M16 0C7.2 0 0 7.2 0 16s7.2 16 16 16 16-7.2 16-16S24.8 0 16 0zm-2 22.8L7.2 16l2.8-2.8 4 4 8-8 2.8 2.8L14 22.8z"/></symbol><symbol viewBox="0 0 32 32" id="check-double" xmlns="http://www.w3.org/2000/svg"><path d="M31.11 4.336a1.996 1.996 0 00-2.769.547l-.005.007L17.69 20.862l-1.674-1.674-2.262 3.4 2.832 2.832c.361.358.859.58 1.408.58H18c.066 0 .13 0 .2-.01a2.007 2.007 0 001.462-.873l.005-.007 12-18a1.996 1.996 0 00-.549-2.769l-.007-.005zM8 26a1.994 1.994 0 01-1.414-.586l-6-6a2 2 0 112.827-2.829l.001.001 4.276 4.276L18.336 4.89a2 2 0 113.323 2.227l.005-.007-12 18c-.325.489-.85.824-1.455.889L8.2 26H8z"/></symbol><symbol viewBox="0 0 32 32" id="check-simple" xmlns="http://www.w3.org/2000/svg"><path d="M11.2 19.2l-6.4-6.4L0 17.6l11.2 11.2L32 8l-4.8-4.8z"/></symbol><symbol viewBox="0 0 32 32" id="check-square-09" xmlns="http://www.w3.org/2000/svg"><path d="M28 0H4C1.8 0 0 1.8 0 4v24c0 2.2 1.8 4 4 4h24c2.2 0 4-1.8 4-4V4c0-2.2-1.8-4-4-4zM14 22.8L7.2 16l2.8-2.8 4 4 8-8 2.8 2.8L14 22.8z"/></symbol><symbol viewBox="0 0 32 32" id="circle-bold-add" xmlns="http://www.w3.org/2000/svg"><path d="M18 8h-4v6H8v4h6v6h4v-6h6v-4h-6z"/><path d="M16 0C7.2 0 0 7.2 0 16s7.2 16 16 16 16-7.2 16-16S24.8 0 16 0zm0 28C9.4 28 4 22.6 4 16S9.4 4 16 4s12 5.4 12 12-5.4 12-12 12z"/></symbol><symbol viewBox="0 0 32 32" id="circle-bold-delete" xmlns="http://www.w3.org/2000/svg"><path d="M8 14h16v4H8v-4z"/><path d="M16 0C7.2 0 0 7.2 0 16s7.2 16 16 16 16-7.2 16-16S24.8 0 16 0zm0 28C9.4 28 4 22.6 4 16S9.4 4 16 4s12 5.4 12 12-5.4 12-12 12z"/></symbol><symbol viewBox="0 0 32 32" id="circle-bold-remove" xmlns="http://www.w3.org/2000/svg"><path d="M20.2 9L16 13.2 11.8 9 9 11.8l4.2 4.2L9 20.2l2.8 2.8 4.2-4.2 4.2 4.2 2.8-2.8-4.2-4.2 4.2-4.2z"/><path d="M16 0C7.2 0 0 7.2 0 16s7.2 16 16 16 16-7.2 16-16S24.8 0 16 0zm0 28C9.4 28 4 22.6 4 16S9.4 4 16 4s12 5.4 12 12-5.4 12-12 12z"/></symbol><symbol viewBox="0 0 32 32" id="curved-next" xmlns="http://www.w3.org/2000/svg"><path d="M16 10C5.6 10 0 17.6 0 30c3-4.8 5.4-8 16-8v8l16-14L16 2v8z"/></symbol><symbol viewBox="0 0 32 32" id="curved-previous" xmlns="http://www.w3.org/2000/svg"><path d="M16 10c10.4 0 16 7.6 16 20-3-4.8-5.4-8-16-8v8L0 16 16 2v8z"/></symbol><symbol viewBox="0 0 32 32" id="disk-2" xmlns="http://www.w3.org/2000/svg"><path d="M23.4.6C23 .2 22.6 0 22 0h-2v6c0 1.2-.8 2-2 2H8c-1.2 0-2-.8-2-2V0H2C.8 0 0 .8 0 2v28c0 1.2.8 2 2 2h28c1.2 0 2-.8 2-2V10c0-.6-.2-1-.6-1.4l-8-8zM26 28H6v-6c0-1.2.8-2 2-2h16c1.2 0 2 .8 2 2v6z"/><path d="M14 0h4v6h-4V0z"/></symbol><symbol viewBox="0 0 32 32" id="edit-75" xmlns="http://www.w3.org/2000/svg"><path d="M28.2.6c-.8-.8-2-.8-2.8 0L12 14v6h6L31.4 6.6c.8-.8.8-2 0-2.8L28.2.6z"/><path d="M30 18c-1.2 0-2 .8-2 2v8H4V4h8c1.2 0 2-.8 2-2s-.8-2-2-2H2C.8 0 0 .8 0 2v28c0 1.2.8 2 2 2h28c1.2 0 2-.8 2-2V20c0-1.2-.8-2-2-2z"/></symbol><symbol viewBox="0 0 32 32" id="email-83" xmlns="http://www.w3.org/2000/svg"><path d="M30 2H2C.8 2 0 2.8 0 4v2.8l16 9L32 7V4c0-1.2-.8-2-2-2z"/><path d="M15 19.8L0 11.4V28c0 1.2.8 2 2 2h28c1.2 0 2-.8 2-2V11.4l-15 8.4c-.56.28-1.44.28-2 0z"/></symbol><symbol viewBox="0 0 32 32" id="enlarge-45" xmlns="http://www.w3.org/2000/svg"><path d="M0 16L12 6v20zm32 0L20 6v20z"/></symbol><symbol viewBox="0 0 32 32" id="enlarge-46" xmlns="http://www.w3.org/2000/svg"><path d="M9.688 28.81L.438 17.25a2.003 2.003 0 010-2.5l9.25-11.56 3.124 2.498L4.56 16l8.25 10.312-3.122 2.498zm12.624 0l-3.124-2.498L27.44 16 19.19 5.688l3.124-2.498 9.25 11.56c.584.73.584 1.77 0 2.5l-9.252 11.56z"/></symbol><symbol viewBox="0 0 32 32" id="eraser-33" xmlns="http://www.w3.org/2000/svg"><path d="M0 28h32v4H0v-4zm9.2-4h9.6l10.6-10.6c.8-.8.8-2 0-2.8l-10-10c-.8-.8-2-.8-2.8 0l-14 14c-.8.8-.8 2 0 2.8L9.2 24z"/></symbol><symbol viewBox="0 0 32 32" id="favourite-28" xmlns="http://www.w3.org/2000/svg"><path d="M23.2 0c-3 0-5.6 1.6-7.2 4-1.6-2.4-4.2-4-7.2-4C4 0 0 4 0 8.8c0 8.8 16 21.8 16 21.8s16-13 16-21.8C32 4 28 0 23.2 0z"/></symbol><symbol viewBox="0 0 32 32" id="filter-check" xmlns="http://www.w3.org/2000/svg"><path d="M30 6H2a2 2 0 010-4h28a2 2 0 010 4zm0 8H2a2 2 0 010-4h28a2 2 0 010 4zm-20 8H2c-1.106 0-2-.894-2-2s.894-2 2-2h8c1.106 0 2 .894 2 2s-.894 2-2 2zm0 8H2c-1.106 0-2-.894-2-2s.894-2 2-2h8c1.106 0 2 .894 2 2s-.894 2-2 2zm12 0a1.995 1.995 0 01-1.414-.586l-4-4c-.782-.782-.782-2.046 0-2.828s2.046-.782 2.828 0L22 25.172l6.586-6.586c.782-.782 2.046-.782 2.828 0s.782 2.046 0 2.828l-8 8c-.39.39-.902.586-1.414.586z"/></symbol><symbol viewBox="0 0 32 32" id="fullscreen-double-74" xmlns="http://www.w3.org/2000/svg"><path d="M18 4h7.2l-8 8 2.8 2.8 8-8V14h4V0H18zm-6 13.2l-8 8V18H0v14h14v-4H6.8l8-8z"/></symbol><symbol viewBox="0 0 32 32" id="funnel-40" xmlns="http://www.w3.org/2000/svg"><path d="M31.79 1.106A2.002 2.002 0 0030 0H2C1.242 0 .55.428.21 1.106A2.006 2.006 0 00.4 3.2L12 18.666V30c0 1.106.894 2 2 2h4c1.106 0 2-.894 2-2V18.666L31.6 3.2a2.006 2.006 0 00.19-2.094z"/></symbol><symbol viewBox="0 0 32 32" id="grid-45" xmlns="http://www.w3.org/2000/svg"><path d="M12 0H2C.8 0 0 .8 0 2v10c0 1.2.8 2 2 2h10c1.2 0 2-.8 2-2V2c0-1.2-.8-2-2-2zm18 0H20c-1.2 0-2 .8-2 2v10c0 1.2.8 2 2 2h10c1.2 0 2-.8 2-2V2c0-1.2-.8-2-2-2zM12 18H2c-1.2 0-2 .8-2 2v10c0 1.2.8 2 2 2h10c1.2 0 2-.8 2-2V20c0-1.2-.8-2-2-2zm18 0H20c-1.2 0-2 .8-2 2v10c0 1.2.8 2 2 2h10c1.2 0 2-.8 2-2V20c0-1.2-.8-2-2-2z"/></symbol><symbol viewBox="0 0 32 32" id="grid-48" xmlns="http://www.w3.org/2000/svg"><path d="M0 0h8v8H0V0zm12 0h8v8h-8V0zm12 0h8v8h-8V0zM0 12h8v8H0v-8zm12 0h8v8h-8v-8zm12 0h8v8h-8v-8zM0 24h8v8H0v-8zm12 0h8v8h-8v-8zm12 0h8v8h-8v-8z"/></symbol><symbol viewBox="0 0 32 32" id="home-1-2" xmlns="http://www.w3.org/2000/svg"><path d="M21.896 32h3.998c1.2 0 1.998-.8 1.998-1.998V15.84h1.998c.6 0 1.2-.2 1.6-.6.8-.8.6-1.998-.2-2.798L17.3.45c-.8-.6-1.8-.6-2.598 0L.708 12.442c-.8.8-1 1.998-.2 2.798.2.4.8.6 1.4.6h1.998V30c0 1.2.8 1.998 1.998 1.998h3.998c1.2 0 1.998-.8 1.998-1.998v-6.164h7.996V30c.002 1.2.802 2 2 2z"/></symbol><symbol viewBox="0 0 32 32" id="ic_closed_caption_24px" xmlns="http://www.w3.org/2000/svg"><path d="M25.333 5.333H6.666c-1.48 0-2.667 1.2-2.667 2.667v16a2.666 2.666 0 002.667 2.667h18.667C26.8 26.667 28 25.467 28 24V8c0-1.467-1.2-2.667-2.667-2.667zm-10.666 9.334h-2V14H10v4h2.667v-.667h2v1.333c0 .733-.6 1.333-1.333 1.333h-4c-.733 0-1.333-.6-1.333-1.333v-5.333c0-.733.6-1.333 1.333-1.333h4c.733 0 1.333.6 1.333 1.333v1.333zm9.333 0h-2V14h-2.667v4H22v-.667h2v1.333c0 .733-.6 1.333-1.333 1.333h-4c-.733 0-1.333-.6-1.333-1.333v-5.333c0-.733.6-1.333 1.333-1.333h4C23.4 12 24 12.6 24 13.333v1.333z"/></symbol><symbol viewBox="0 0 32 32" id="image-01" xmlns="http://www.w3.org/2000/svg"><path d="M30 0H2C.8 0 0 .8 0 2v28c0 1.2.8 2 2 2h28c1.2 0 2-.8 2-2V2c0-1.2-.8-2-2-2zM12 8c1.2 0 2 .8 2 2s-.8 2-2 2-2-.8-2-2 .8-2 2-2zM6 24l4-8 4 4 6-8 6 12H6z"/></symbol><symbol viewBox="0 0 32 32" id="l-facebook" xmlns="http://www.w3.org/2000/svg"><path d="M12.042 30.667L12 17.333H6.667V12H12V8.667c0-4.949 3.064-7.333 7.479-7.333 2.115 0 3.932.157 4.462.228v5.171l-3.062.001c-2.401 0-2.866 1.141-2.866 2.815V12H25l-2.667 5.333h-4.32v13.333h-5.971z"/></symbol><symbol viewBox="0 0 32 32" id="l-google" xmlns="http://www.w3.org/2000/svg"><path d="M32 14.667h-2.667V12h-2.666v2.667H24v2.666h2.667V20h2.666v-2.667H32zm-9.965.006L12 14.667v4h5.735c-.309 1.693-2.005 4.781-6.402 4.781-3.869 0-7.027-3.206-7.027-7.156s3.157-7.156 7.027-7.156c2.202 0 3.675.939 4.517 1.749l3.076-2.963c-1.975-1.846-4.533-2.963-7.593-2.963C5.068 4.958 0 10.026 0 16.292s5.068 11.333 11.333 11.333c7.797 0 11.813-6.472 10.702-12.952z"/></symbol><symbol viewBox="0 0 32 32" id="l-pinterest" xmlns="http://www.w3.org/2000/svg"><path d="M16 0C7.2 0 0 7.2 0 16c0 6.8 4.267 12.533 10.133 14.933-.133-1.2-.267-3.2 0-4.533.267-1.2 1.867-8 1.867-8s-.4-1.067-.4-2.4c0-2.267 1.333-3.867 2.933-3.867 1.333 0 2 1.067 2 2.267 0 1.333-.933 3.467-1.333 5.333-.4 1.6.8 2.933 2.4 2.933 2.8 0 5.067-2.933 5.067-7.333 0-3.867-2.8-6.533-6.667-6.533-4.533 0-7.2 3.467-7.2 6.933 0 1.333.533 2.8 1.2 3.6.133.133.133.267.133.4-.133.533-.4 1.6-.4 1.867-.133.267-.266.4-.533.267C7.2 20.933 6 18 6 15.733 6 10.667 9.733 6 16.533 6c5.6 0 9.867 4 9.867 9.2 0 5.467-3.467 10-8.267 10-1.6 0-3.2-.8-3.733-1.867 0 0-.8 3.067-.933 3.867-.4 1.333-1.333 3.067-2 4.133C12.8 31.733 14.4 32 16 32c8.8 0 16-7.2 16-16S24.8 0 16 0z"/></symbol><symbol viewBox="0 0 32 32" id="l-twitter" xmlns="http://www.w3.org/2000/svg"><path d="M32 6.076a13.14 13.14 0 01-3.771 1.034 6.585 6.585 0 002.887-3.632 13.142 13.142 0 01-4.169 1.593 6.557 6.557 0 00-4.792-2.073 6.565 6.565 0 00-6.565 6.565c0 .515.058 1.016.17 1.496a18.639 18.639 0 01-13.532-6.86 6.535 6.535 0 00-.889 3.3 6.56 6.56 0 002.921 5.464 6.536 6.536 0 01-2.974-.821l-.001.082a6.57 6.57 0 005.266 6.438 6.578 6.578 0 01-2.965.112 6.571 6.571 0 006.133 4.559 13.172 13.172 0 01-8.153 2.81c-.53 0-1.053-.031-1.566-.092A18.578 18.578 0 0010.064 29c12.076 0 18.679-10.004 18.679-18.679 0-.285-.006-.568-.019-.849A13.29 13.29 0 0032 6.076z"/></symbol><symbol viewBox="0 0 32 32" id="like-2" xmlns="http://www.w3.org/2000/svg"><path d="M26.6 12H18V4c0-3-1.6-4-4-4-.6 0-1.2.4-1.2 1 0 0-4.6 15-4.8 15v16h17.2c2.6 0 4.8-2 5.2-4.6l1.6-9.2c.2-1.6-.2-3.2-1.2-4.2-1-1.4-2.6-2-4.2-2zM0 16h4v16H0V16z"/></symbol><symbol viewBox="0 0 32 32" id="link-72" xmlns="http://www.w3.org/2000/svg"><path d="M9 32c-2.4 0-4.6-1-6.4-2.6-3.6-3.6-3.6-9.2 0-12.8L4 15.2 6.8 18l-1.4 1.4c-2 2-2 5.2 0 7.2s5.2 2 7.2 0l6-6c2-2 2-5.2 0-7.2L17.2 12 20 9.2l1.4 1.4c3.6 3.6 3.6 9.2 0 12.8l-6 6C13.8 31 11.4 32 9 32z"/><path d="M12 22.8l-1.4-1.4C7 17.8 7 12.2 10.6 8.6l6-6C18.4.8 20.6 0 23 0s4.6 1 6.4 2.6c3.6 3.6 3.6 9.2 0 12.8L28 16.8 25.2 14l1.4-1.4c2-2 2-5.2 0-7.2s-5.2-2-7.2 0l-6 6c-2 2-2 5.2 0 7.2l1.4 1.4-2.8 2.8z"/></symbol><symbol viewBox="0 0 32 32" id="lock" xmlns="http://www.w3.org/2000/svg"><path d="M16 0c-4.4 0-8 3.6-8 8v2H4c-1.2 0-2 .8-2 2v18c0 1.2.8 2 2 2h24c1.2 0 2-.8 2-2V12c0-1.2-.8-2-2-2h-4V8c0-4.4-3.6-8-8-8zm2 23.4V26h-4v-2.6c-1.2-.6-2-2-2-3.4 0-2.2 1.8-4 4-4s4 1.8 4 4c0 1.4-.8 2.8-2 3.4zM20 10h-8V8c0-2.2 1.8-4 4-4s4 1.8 4 4v2z"/></symbol><symbol viewBox="0 0 32 32" id="lock-open" xmlns="http://www.w3.org/2000/svg"><path d="M2 30c0 1.2.8 2 2 2h24c1.2 0 2-.8 2-2V12c0-1.2-.8-2-2-2H12V8c0-2.2 1.8-4 4-4 1.2 0 2.2.4 3 1.4l1.4 1.4 3-2.6L22 2.6C20.4 1 18.2 0 16 0c-4.4 0-8 3.6-8 8v2H4c-1.2 0-2 .8-2 2v18zm14-14c2.2 0 4 1.8 4 4 0 1.4-.8 2.8-2 3.4V26h-4v-2.6c-1.2-.6-2-2-2-3.4 0-2.2 1.8-4 4-4z"/></symbol><symbol viewBox="0 0 32 32" id="log-in" xmlns="http://www.w3.org/2000/svg"><path d="M16 24l8-8-8-8v6H0v4h16z"/><path d="M30 32H12c-1.2 0-2-.8-2-2v-6h4v4h14V4H14v4h-4V2c0-1.2.8-2 2-2h18c1.2 0 2 .8 2 2v28c0 1.2-.8 2-2 2z"/></symbol><symbol viewBox="0 0 32 32" id="log-out" xmlns="http://www.w3.org/2000/svg"><path d="M8 8l-8 8 8 8v-6h12v-4H8z"/><path d="M30 32H12c-1.2 0-2-.8-2-2v-6h4v4h14V4H14v4h-4V2c0-1.2.8-2 2-2h18c1.2 0 2 .8 2 2v28c0 1.2-.8 2-2 2z"/></symbol><symbol viewBox="0 0 32 32" id="logo-fb-simple" xmlns="http://www.w3.org/2000/svg"><path d="M12.046 32L12 18H6v-6h6V8c0-5.398 3.343-8 8.159-8 2.307 0 4.289.172 4.867.248V5.89l-3.34.002c-2.619 0-3.126 1.245-3.126 3.071v3.038H26l-2 6h-5.44v14h-6.514z"/></symbol><symbol viewBox="0 0 32 32" id="logo-google-plus" xmlns="http://www.w3.org/2000/svg"><path d="M16 14v4.8h8.2c-.4 2-2.4 6-8 6-4.8 0-8.6-4-8.6-8.8s4-8.8 8.6-8.8c2.8 0 4.6 1.2 5.6 2.2l3.8-3.6C23.2 3.4 20 2 16.2 2c-7.8 0-14 6.2-14 14s6.2 14 14 14c8 0 13.4-5.6 13.4-13.6 0-1 0-1.6-.2-2.4H16z"/></symbol><symbol viewBox="0 0 32 32" id="logo-pinterest" xmlns="http://www.w3.org/2000/svg"><path d="M16 0C7.2 0 0 7.2 0 16c0 6.8 4.2 12.6 10.2 14.8-.2-1.2-.2-3.2 0-4.6.2-1.2 1.8-8 1.8-8s-.4-.8-.4-2.2c0-2.2 1.4-4 3-4 1.4 0 2 1 2 2.2 0 1.4-.8 3.4-1.4 5.4-.4 1.6.8 2.8 2.4 2.8 2.8 0 5-3 5-7.4 0-3.8-2.8-6.6-6.6-6.6-4.6 0-7.2 3.4-7.2 7 0 1.4.6 2.8 1.2 3.6v.8c-.2.6-.4 1.6-.4 1.8s-.2.4-.6.2c-2-1-3.2-3.8-3.2-6.2 0-5 3.6-9.6 10.6-9.6 5.6 0 9.8 4 9.8 9.2 0 5.6-3.4 10-8.4 10-1.6 0-3.2-.8-3.6-1.8 0 0-.8 3-1 3.8-.4 1.4-1.4 3.2-2 4.2 1.6.4 3.2.6 4.8.6 8.8 0 16-7.2 16-16S24.8 0 16 0z"/></symbol><symbol viewBox="0 0 32 32" id="logo-rss" xmlns="http://www.w3.org/2000/svg"><path d="M10 26a4 4 0 11-8 0 4 4 0 018 0zm20 4h-5.4C24.6 17.6 14.4 7.4 2 7.4V2c15.4 0 28 12.6 28 28z"/><path d="M20.6 30h-5.2c0-7.4-6-13.4-13.4-13.4v-5.2c10.2 0 18.6 8.4 18.6 18.6z"/></symbol><symbol viewBox="0 0 32 32" id="logo-twitter" xmlns="http://www.w3.org/2000/svg"><path d="M32 6c-1.2.6-2.4.8-3.8 1 1.4-.8 2.4-2 2.8-3.6-1.2.8-2.6 1.2-4.2 1.6-1.2-1.2-3-2-4.8-2-3.4 0-6.4 3-6.4 6.6 0 .6 0 1 .2 1.4-5.4-.2-10.4-2.8-13.6-6.8-.6 1-.8 2-.8 3.4 0 2.2 1.2 4.2 3 5.4-1 0-2-.4-3-.8 0 3.2 2.2 5.8 5.2 6.4-.6.2-1.2.2-1.8.2-.4 0-.8 0-1.2-.2.8 2.6 3.2 4.6 6.2 4.6C7.6 25 4.8 26 1.6 26H0c3 1.8 6.4 3 10 3 12 0 18.6-10 18.6-18.6v-.8C30 8.6 31.2 7.4 32 6z"/></symbol><symbol viewBox="0 0 32 32" id="media-1" xmlns="http://www.w3.org/2000/svg"><path d="M19.186 30.39a1.334 1.334 0 002.146-1.058v-5.906l8.49 6.938A1.332 1.332 0 0032 29.335V2.663a1.332 1.332 0 00-2.18-1.027l.002-.002-8.49 6.938V2.662a1.332 1.332 0 00-2.149-1.052l.003-.002L1.854 14.942a1.333 1.333 0 00-.003 2.114l.003.002L19.186 30.39z"/></symbol><symbol viewBox="0 0 32 32" id="media-2" xmlns="http://www.w3.org/2000/svg"><path d="M12.814 1.61a1.332 1.332 0 10-2.151 1.054l.003.002v5.906L2.178 1.634A1.332 1.332 0 000 2.663v26.672a1.332 1.332 0 002.18 1.027l-.002.002 8.49-6.938v5.91a1.332 1.332 0 002.149 1.052l-.003.002 17.334-13.334a1.332 1.332 0 00.003-2.114l-.003-.002L12.814 1.61z"/></symbol><symbol viewBox="0 0 32 32" id="media-3" xmlns="http://www.w3.org/2000/svg"><path d="M19.262 1.474a1.335 1.335 0 00-1.399.129l.003-.002-10.31 7.734H1.332C.596 9.335 0 9.931 0 10.667v10.666c0 .738.596 1.334 1.334 1.334h6.222l10.31 7.734a1.321 1.321 0 001.404.123l-.007.003c.441-.224.737-.673.738-1.192V2.667a1.333 1.333 0 00-.73-1.188l-.008-.004zm5.062 8.87l-.942-.942-1.886 1.886.942.942c.964.966 1.56 2.299 1.56 3.771s-.596 2.805-1.56 3.771l-.942.942 1.886 1.886.942-.942c1.445-1.449 2.338-3.449 2.338-5.657s-.893-4.208-2.339-5.657z"/><path d="M27.152 5.63l-1.886 1.886.942.942c1.927 1.932 3.119 4.598 3.119 7.543s-1.192 5.611-3.119 7.543l-.942.942 1.886 1.886.942-.942c2.409-2.415 3.898-5.748 3.898-9.429s-1.49-7.014-3.899-9.429l-.942-.942z"/></symbol><symbol viewBox="0 0 32 32" id="media-4" xmlns="http://www.w3.org/2000/svg"><path d="M21.932 1.474a1.335 1.335 0 00-1.399.129l.003-.002-10.312 7.734H4c-.736 0-1.332.596-1.332 1.332v10.668c0 .738.596 1.334 1.334 1.334h6.222l10.31 7.734a1.321 1.321 0 001.404.123l-.007.003c.441-.224.738-.674.738-1.193V2.666c0-.518-.296-.968-.728-1.188l-.008-.004zm5.06 8.87l-.942-.942-1.886 1.886.942.942c.964.966 1.56 2.299 1.56 3.771s-.596 2.805-1.56 3.771l-.942.942L26.05 22.6l.942-.942c1.446-1.449 2.34-3.448 2.34-5.657s-.894-4.208-2.34-5.657z"/></symbol><symbol viewBox="0 0 32 32" id="media-5" xmlns="http://www.w3.org/2000/svg"><path d="M25.262 1.474a1.34 1.34 0 00-1.4.128l.003-.002-10.31 7.734H7.331c-.736 0-1.332.596-1.332 1.332v10.666c0 .738.596 1.334 1.334 1.334h6.222l10.31 7.734a1.321 1.321 0 001.404.123l-.007.003c.441-.224.737-.673.738-1.192V2.666a1.333 1.333 0 00-.73-1.188l-.008-.004z"/></symbol><symbol viewBox="0 0 32 32" id="media-6" xmlns="http://www.w3.org/2000/svg"><path d="M14.09 23.566L23.2 30.4a1.321 1.321 0 001.404.123l-.007.003c.441-.224.738-.674.738-1.193V12.322L14.091 23.566zm-11.424-.9h6.666l16-16v-4a1.338 1.338 0 00-.73-1.19l-.008-.004a1.332 1.332 0 00-1.398.131l.003-.002-10.31 7.734H2.663c-.736 0-1.332.596-1.332 1.332v10.668a1.334 1.334 0 001.334 1.332z"/><path d="M1.334 32h-.002a1.332 1.332 0 01-.94-2.276L29.724.39a1.334 1.334 0 111.886 1.886L2.276 31.61c-.241.241-.573.39-.941.39h-.001z"/></symbol><symbol viewBox="0 0 32 32" id="media-7" xmlns="http://www.w3.org/2000/svg"><path d="M8 0h4v10c0 1.2-.8 2-2 2H0V8h8V0zm12 0h4v8h8v4H22c-1.2 0-2-.8-2-2V0zm2 20h10v4h-8v8h-4V22c0-1.2.8-2 2-2zM0 20h10c1.2 0 2 .8 2 2v10H8v-8H0v-4z"/></symbol><symbol viewBox="0 0 32 32" id="menu-34" xmlns="http://www.w3.org/2000/svg"><path d="M30 14H2c-1.2 0-2 .8-2 2s.8 2 2 2h28c1.2 0 2-.8 2-2s-.8-2-2-2zm0-12H2C.8 2 0 2.8 0 4s.8 2 2 2h28c1.2 0 2-.8 2-2s-.8-2-2-2zm0 24H2c-1.2 0-2 .8-2 2s.8 2 2 2h28c1.2 0 2-.8 2-2s-.8-2-2-2z"/></symbol><symbol viewBox="0 0 32 32" id="menu-bold" xmlns="http://www.w3.org/2000/svg"><path d="M0 0h32v6H0V0zm0 12h32v6H0v-6zm0 12h32v6H0v-6z"/></symbol><symbol viewBox="0 0 32 32" id="menu-dots" xmlns="http://www.w3.org/2000/svg"><path d="M20 16a4 4 0 11-8 0 4 4 0 018 0zM8 16a4 4 0 11-8 0 4 4 0 018 0zm24 0a4 4 0 11-8 0 4 4 0 018 0z"/></symbol><symbol viewBox="0 0 32 32" id="minimal-down" xmlns="http://www.w3.org/2000/svg"><path d="M16 25.2L.6 9.8l2.8-3L16 19.4 28.6 6.8l2.8 3z"/></symbol><symbol viewBox="0 0 32 32" id="minimal-left" xmlns="http://www.w3.org/2000/svg"><path d="M22.2 31.4L6.8 16 22.2.6l3 2.8L12.6 16l12.6 12.6z"/></symbol><symbol viewBox="0 0 32 32" id="minimal-right" xmlns="http://www.w3.org/2000/svg"><path d="M9.8 31.4l-3-2.8L19.4 16 6.8 3.4l3-2.8L25.2 16z"/></symbol><symbol viewBox="0 0 32 32" id="minimal-up" xmlns="http://www.w3.org/2000/svg"><path d="M28.6 25.2L16 12.6 3.4 25.2l-2.8-3L16 6.8l15.4 15.4z"/></symbol><symbol viewBox="0 0 32 32" id="mobile-button" xmlns="http://www.w3.org/2000/svg"><path d="M24 0H8C5.794 0 4 1.794 4 4v24c0 2.206 1.794 4 4 4h16c2.206 0 4-1.794 4-4V4c0-2.206-1.794-4-4-4zm-8 28a2 2 0 11.001-4.001A2 2 0 0116 28zm8-8H8V4h16v16z"/></symbol><symbol viewBox="0 0 32 32" id="ns-arrow" xmlns="http://www.w3.org/2000/svg"><path d="M26.324 16.152a74.877 74.877 0 00-5.066 2.895 64.11 64.11 0 00-5.372 3.733 83.369 83.369 0 00-5.219 4.381A52.415 52.415 0 005.981 32h-.305c1.016-3.352 2.158-6.387 3.429-9.105 1.269-2.717 2.564-5.016 3.886-6.895-1.321-1.879-2.617-4.177-3.886-6.895C7.834 6.388 6.692 3.352 5.676 0h.305a52.155 52.155 0 004.686 4.838 82.687 82.687 0 005.219 4.381 63.25 63.25 0 005.372 3.733 74.268 74.268 0 005.066 2.895v.305z"/></symbol><symbol viewBox="0 0 32 32" id="ns-camera" xmlns="http://www.w3.org/2000/svg"><path d="M27.253 6.273h-2.54l-1.602-1.602c-.93-.92-2.554-1.592-3.858-1.592h-6.408c-1.304 0-2.928.672-3.858 1.592L7.385 6.273h-2.54c-2.64 0-4.796 2.156-4.796 4.806v12.796a4.802 4.802 0 004.796 4.796h22.408a4.802 4.802 0 004.796-4.796V11.079c0-2.65-2.156-4.806-4.796-4.806zm-11.204 16a5.602 5.602 0 01-5.602-5.602c0-3.092 2.508-5.592 5.602-5.592s5.602 2.5 5.602 5.592a5.602 5.602 0 01-5.602 5.602zm9.602-7.522h-.005a2.073 2.073 0 01-2.073-2.073v-.007a2.078 2.078 0 114.156 0c0 1.158-.93 2.08-2.078 2.08z"/></symbol><symbol viewBox="0 0 32 32" id="ns-comment" xmlns="http://www.w3.org/2000/svg"><path d="M16 0C7.198 0 0 6 0 13.4c0 3.666 1.798 7 4.666 9.466V32l7.4-5.6c1.266.266 2.6.399 3.934.399 8.864 0 16-6 16-13.399C32 6 24.864 0 16 0zm7.896 11.97l-3.11 3.582.412 4.752c.002.016.002.034.002.053a.583.583 0 01-.86.513l.003.002-4.346-1.844-4.395 1.859a.578.578 0 01-.761-.3l-.001-.004a.553.553 0 01-.045-.285v.002l.412-4.754-3.121-3.597a.578.578 0 01.063-.821l.001-.001a.543.543 0 01.24-.125l.004-.001 4.644-1.074 2.458-4.084a.585.585 0 011.003-.003l.001.003 2.452 4.078 4.649 1.09a.585.585 0 01.438.692l.001-.004a.552.552 0 01-.143.27z"/></symbol><symbol viewBox="0 0 32 32" id="ns-flag" xmlns="http://www.w3.org/2000/svg"><path d="M28 1.48C20.96-3.6 14 6.28 6.9 2.84v-.72a1.64 1.64 0 10-3.28 0v28.24a1.64 1.64 0 103.28 0v-12c6.68 3.26 13.38-5.48 20-2a1 1 0 001.46-.88V2.249c0-.308-.14-.584-.359-.768l-.002-.001z"/></symbol><symbol viewBox="0 0 32 32" id="ns-pick" xmlns="http://www.w3.org/2000/svg"><path d="M24 0H4v32l12-6 12 6V0zm-3.32 20.44L16 18l-4.68 2.44.88-5.22-3.78-3.68 5.24-.76L16 6l2.34 4.78 5.24.76-3.78 3.68z"/></symbol><symbol viewBox="0 0 32 32" id="ns-play" xmlns="http://www.w3.org/2000/svg"><path opacity=".7" d="M28.39 7.813L18.11 1.878c-.134-.078-.268-.16-.401-.243-.247-.152-.495-.307-.752-.426a2.089 2.089 0 00-.904-.218h-.002c-.502 0-.983.207-1.566.542L3.61 7.813a1.831 1.831 0 00-.895 1.562v13.25c0 .636.351 1.249.895 1.562l10.28 5.935c.134.078.268.16.401.243.247.152.495.307.752.426.89.412 1.556.204 2.472-.325l10.875-6.278c.403-.232.67-.545.794-.929.073-.24.101-.433.101-.634V9.376a1.827 1.827 0 00-.887-1.558l-.008-.005z"/><path d="M28.886 6.954l-10.28-5.935c-.125-.072-.25-.15-.376-.228a7.782 7.782 0 00-.808-.46l-.048-.022c-1.409-.652-2.485-.153-3.385.366L3.114 6.954a2.802 2.802 0 00-1.391 2.42v13.253a2.8 2.8 0 001.378 2.413l.013.007 10.28 5.935c.125.072.25.15.376.228.28.173.564.347.856.482.479.222.919.31 1.328.31.792 0 1.463-.334 2.057-.676l10.875-6.278a2.716 2.716 0 001.261-1.543l.005-.019c.083-.272.125-.562.125-.86V9.374a2.8 2.8 0 00-1.378-2.413l-.013-.007zm.399 15.671c0 .201-.027.394-.101.634-.124.384-.391.696-.794.929l-10.875 6.278c-.916.529-1.582.737-2.472.325-.258-.119-.506-.274-.752-.426a7.721 7.721 0 00-.312-.194l-.089-.049-10.28-5.935a1.831 1.831 0 01-.895-1.561V9.376c0-.636.351-1.249.895-1.562l10.875-6.279c.583-.336 1.064-.542 1.566-.542.288 0 .582.067.906.218.258.119.506.273.752.426.134.083.268.165.401.243l10.28 5.935c.543.313.895.927.895 1.562v13.248z"/><path d="M21.481 16.036a.797.797 0 01-.208.535l.001-.001c-.071.087-4.606 3.328-6.784 4.888-.513.368-1.219-.128-1.219-.699V11.24c0-.571.705-1.067 1.219-.699 2.177 1.56 6.713 4.801 6.784 4.889.129.141.209.33.209.538l-.001.031v-.001.013l-.001.027v-.001z"/></symbol><symbol viewBox="0 0 28 32" id="ns-play-2" xmlns="http://www.w3.org/2000/svg"><path opacity=".5" d="M28.19 22.78V9.22a2.238 2.238 0 00-1.09-1.914l-.01-.006L16.18 1a7.642 7.642 0 00-.765-.44L15.37.54a2.501 2.501 0 00-1.078-.26h-.002a3.578 3.578 0 00-1.802.618L12.5.89 1.38 7.31a2.242 2.242 0 00-1.1 1.909V22.78a2.238 2.238 0 001.09 1.914l.01.006 10.91 6.31c.225.148.49.301.764.439l.046.021c.34.159.738.251 1.157.251.662 0 1.27-.23 1.748-.616l-.005.004 11.12-6.42c.466-.243.821-.646.996-1.136l.004-.014a2.387 2.387 0 00.07-.768v.007zM19.81 16a.926.926 0 01-.241.621l.001-.001c0 .06-1.22.91-5.45 3.94l-1.29.93a.781.781 0 01-.463.15h-.007a.89.89 0 01-.415-.102l.005.002a1.003 1.003 0 01-.55-.858V11.28c.013-.375.231-.697.544-.857l.006-.003a.817.817 0 01.883.002l-.003-.002 1.17.88c4.35 3.11 5.55 4 5.61 4.05a.926.926 0 01.24.62l-.038.029-.002.001z"/><path d="M27.23 7.07L16.32.76a7.494 7.494 0 00-.793-.449L15.48.29a3.027 3.027 0 00-1.258-.269c-.704 0-1.352.237-1.87.635l.007-.005-11.12 6.42A2.534 2.534 0 00-.001 9.22v13.561a2.53 2.53 0 001.229 2.154l.011.006 10.51 6.06.39.24c.232.152.508.308.792.449l.048.021a2.78 2.78 0 001.199.28h.001a3.865 3.865 0 001.944-.649l-.014.009 11.12-6.42a2.364 2.364 0 001.095-1.294l.005-.017v-.08c.07-.227.11-.488.11-.759v-.012.001V9.22a2.53 2.53 0 00-1.199-2.144l-.011-.006zm.84 16.47a2.068 2.068 0 01-.989 1.145l-.011.005L16 31.11a2.772 2.772 0 01-1.724.596c-.415 0-.809-.091-1.163-.253l.017.007a7.956 7.956 0 01-.84-.479l.03.019-.4-.24-10.54-6.07a2.243 2.243 0 01-1.1-1.92V9.22a2.238 2.238 0 011.09-1.914l.01-.006L12.5.89a3.55 3.55 0 011.779-.609L14.29.28c.394.006.765.102 1.095.267L15.37.54c.319.158.585.311.839.478L16.18 1l.4.24 10.51 6.07a2.243 2.243 0 011.1 1.92v13.55a2.455 2.455 0 01-.115.737l.005-.017z"/><path d="M19.57 15.35c-.06-.07-1.26-.94-5.61-4.05l-1.15-.82a.817.817 0 00-.883.002l.003-.002a1.003 1.003 0 00-.55.858v9.432c.013.375.231.697.544.857l.006.003c.119.063.26.1.41.1h.007a.78.78 0 00.465-.152l-.002.002 1.29-.93c4.23-3 5.4-3.88 5.45-3.94a.926.926 0 00.24-.62l.001-.04c0-.014 0-.028-.002-.042v.002a.924.924 0 00-.221-.661l.001.001z"/></symbol><symbol viewBox="0 0 32 32" id="ns-quote" xmlns="http://www.w3.org/2000/svg"><path d="M4.351 15.336c.374-.467.947-.853 1.719-1.158s1.672-.456 2.702-.456c1.73 0 3.193.561 4.386 1.684s1.789 2.667 1.789 4.632c0 2.012-.691 3.626-2.07 4.842-1.38 1.217-3.053 1.825-5.018 1.825-2.386 0-4.293-.772-5.719-2.316S0 20.834 0 18.354c0-2.151.397-4.046 1.193-5.684a11.72 11.72 0 013.263-4.105c1.38-1.099 2.983-1.93 4.807-2.491 1.825-.562 3.742-.818 5.754-.772v1.193a19.506 19.506 0 00-4.07.561c-1.31.328-2.456.842-3.438 1.544s-1.767 1.603-2.351 2.702c-.586 1.099-.854 2.444-.807 4.034zm16.982 0c.374-.467.948-.853 1.72-1.158s1.672-.456 2.701-.456c1.73 0 3.193.561 4.386 1.684s1.79 2.667 1.79 4.632c0 2.012-.691 3.626-2.07 4.842-1.38 1.217-3.053 1.825-5.018 1.825-2.386 0-4.293-.772-5.719-2.316-1.428-1.544-2.14-3.555-2.14-6.035 0-2.151.397-4.046 1.193-5.684a11.72 11.72 0 013.263-4.105c1.379-1.099 2.983-1.93 4.807-2.491 1.824-.563 3.742-.819 5.754-.773v1.193a19.506 19.506 0 00-4.07.561c-1.31.328-2.456.842-3.439 1.544a7.729 7.729 0 00-2.351 2.702c-.585 1.1-.854 2.445-.807 4.035z"/></symbol><symbol viewBox="0 0 32 32" id="ns-shop" xmlns="http://www.w3.org/2000/svg"><path d="M20.985 9.061a1.416 1.416 0 01-1.417-1.417c0-3.19-.553-4.811-3.57-4.811-3.03 0-3.564 1.552-3.564 4.811a1.416 1.416 0 11-2.834.001C9.6 5.554 9.6 0 15.997 0c6.404 0 6.404 5.554 6.404 7.645a1.414 1.414 0 01-1.416 1.416zm7.065 1.48c-.067-.536-.542-.962-1.065-.962H5.016c-.523 0-.998.426-1.071.962L.018 30.383C-.098 31.264.369 32 1.057 32h29.887c.686 0 1.149-.736 1.04-1.617L28.05 10.541zm-17.652 4.026a1.868 1.868 0 01-1.866-1.874 1.866 1.866 0 013.732 0 1.872 1.872 0 01-1.866 1.874zm11.206 0a1.87 1.87 0 010-3.74c1.027 0 1.867.839 1.867 1.866a1.869 1.869 0 01-1.867 1.874z"/></symbol><symbol viewBox="0 0 32 32" id="ns-video" xmlns="http://www.w3.org/2000/svg"><path d="M31.507 8.045a1.132 1.132 0 00-1.119-.047l.006-.003-6.352 3.745V7.304a3.43 3.43 0 00-3.429-3.429H3.477A3.43 3.43 0 00.048 7.304v17.143a3.43 3.43 0 003.429 3.428h17.137a3.43 3.43 0 003.429-3.428V20.01l6.352 3.751a1.143 1.143 0 001.654-1.022V9.018a1.147 1.147 0 00-.538-.97l-.005-.003zM12.052 21.472A5.602 5.602 0 016.45 15.87a5.595 5.595 0 015.595-5.592h.007c3.094 0 5.602 2.5 5.602 5.592a5.603 5.603 0 01-5.602 5.602zm7.909-11.439h-.005a2.073 2.073 0 01-2.073-2.073v-.007a2.078 2.078 0 114.156 0v.008a2.072 2.072 0 01-2.072 2.072h-.006z"/></symbol><symbol viewBox="0 0 32 32" id="ns-wedding-1" xmlns="http://www.w3.org/2000/svg"><path d="M9.346 14.181c-.056.02-.112.041-.169.06a11.772 11.772 0 01-3.768.641c-.78 0-1.546-.086-2.277-.257a2.726 2.726 0 01-.363-.111v16.563a.923.923 0 00.923.923H9.88c.51 0 .923-.413.923-.923V18.495c0-1.58-.512-3.081-1.457-4.314zm19.523.444c-.73.171-1.497.257-2.277.257-1.243 0-2.51-.216-3.768-.641l-.165-.059a7.076 7.076 0 00-1.462 4.313v12.581c0 .51.413.923.923.923h6.188c.51 0 .923-.413.923-.923V14.514a2.918 2.918 0 01-.362.111zm.288-2.793a13.205 13.205 0 00-4.269-8.402A13.198 13.198 0 0016.025 0h-.002L16 .001 15.976 0h-.002a13.199 13.199 0 00-8.862 3.43 13.205 13.205 0 00-4.269 8.402c-.004.042-.005.083-.004.124a.897.897 0 00.244.597l.018.019.034.033.024.022.034.027.03.022.033.023.035.022.033.019a1.551 1.551 0 00.072.036l.049.019.026.01c.026.009.053.016.08.023a8.037 8.037 0 002.123.204l.061-.002c.089-.003.179-.008.268-.013l.008-.001c.093-.006.181-.014.27-.023l.047-.005c.094-.01.187-.02.281-.032l.006-.001c.095-.012.19-.027.285-.042l.025-.004c.2-.033.4-.072.601-.118l.003-.001a11.36 11.36 0 001.055-.298c1.741-.589 3.393-1.632 4.778-3.017.059-.059.119-.12.178-.182a4.257 4.257 0 01-2.156-3.717 2.772 2.772 0 012.769-2.769c.709 0 1.356.268 1.846.707a2.76 2.76 0 011.846-.707 2.772 2.772 0 012.769 2.769c0 1.552-.82 2.955-2.156 3.717l.178.182c1.385 1.385 3.037 2.428 4.778 3.017a10.76 10.76 0 001.057.298l.009.002c.199.045.397.084.594.116l.028.004.283.042h.004c.096.013.189.023.282.033l.049.005a7.943 7.943 0 00.545.036l.061.002a7.867 7.867 0 00.976-.024 7.892 7.892 0 001.147-.18.715.715 0 00.079-.023l.026-.01.05-.019a.907.907 0 01.072-.035l.033-.019.035-.022a.657.657 0 00.033-.023l.03-.022a.443.443 0 00.033-.028c.008-.007.017-.014.024-.022l.034-.033.019-.02.035-.039.011-.014a.56.56 0 00.036-.049l.001-.001a.925.925 0 00.161-.494.825.825 0 00-.004-.121z"/><path d="M17.846 4.654a.924.924 0 00-.923.923.923.923 0 01-1.846 0 .923.923 0 00-1.846 0 2.493 2.493 0 00.077.607l.001.004a2.558 2.558 0 00.17.463l.009.018a3.384 3.384 0 00.051.096c.027.05.057.098.088.146l.024.036c.026.038.053.075.081.111l.031.04a2.884 2.884 0 00.091.106c.028.031.056.061.085.09l.043.042.056.054c.16.143.341.267.54.367L16 8.468l1.422-.711c.199-.1.38-.224.54-.367l.057-.054.042-.041a3.572 3.572 0 00.124-.133l.052-.063.031-.04c.028-.037.055-.074.081-.112l.024-.036c.031-.047.06-.096.088-.145l.007-.012.044-.084.009-.018a2.37 2.37 0 00.072-.163l.007-.018c.036-.092.067-.188.092-.285l.001-.004c.05-.195.077-.398.077-.606a.925.925 0 00-.924-.922z"/></symbol><symbol viewBox="0 0 32 32" id="ns-wedding-2" xmlns="http://www.w3.org/2000/svg"><path d="M25.36 3.177V0h-1.959v3.177h-2.25V0h-1.959v3.177h-2.25V0h-1.959v3.177h-2.25V0h-1.959v3.177h-2.25V0H6.563v3.177H2.336v23.95A4.878 4.878 0 007.208 32h17.583a4.878 4.878 0 004.873-4.873V3.177H25.36zm2.345 6.684H4.294V5.136h2.269v1.7h1.959v-1.7h2.25v1.7h1.959v-1.7h2.25v1.7h1.959v-1.7h2.25v1.7h1.959v-1.7h2.25v1.7h1.959v-1.7h2.345v4.725zm-6.83 11.734l-4.111 4.111a1.118 1.118 0 01-1.586 0l-4.096-4.095c-.596-.558-.929-1.429-.914-2.395.015-.94.352-1.769.927-2.283A3.252 3.252 0 0113.384 16c.876 0 1.699.341 2.318.96l.269.269.269-.269a3.28 3.28 0 014.635 0 3.283 3.283 0 010 4.635z"/></symbol><symbol viewBox="0 0 32 32" id="ns-wedding-3" xmlns="http://www.w3.org/2000/svg"><path d="M25.602 10.718c-1.148 0-2.078.93-2.078 2.078 0 1.158.93 2.08 2.078 2.08s2.078-.922 2.078-2.08c0-1.148-.93-2.078-2.078-2.078z"/><path d="M27.204 6.398h-2.54l-1.602-1.602c-.93-.92-2.554-1.592-3.858-1.592h-6.408c-1.304 0-2.928.672-3.858 1.592L7.336 6.398h-2.54C2.156 6.398 0 8.554 0 11.204V24a4.802 4.802 0 004.796 4.796h22.408A4.802 4.802 0 0032 24V11.204c0-2.65-2.156-4.806-4.796-4.806zm-6.329 11.215l-4.111 4.11a1.118 1.118 0 01-1.586 0l-4.095-4.095c-.596-.558-.929-1.429-.914-2.395.014-.94.352-1.769.927-2.283a3.253 3.253 0 012.289-.932c.876 0 1.699.341 2.318.96l.269.269.269-.269a3.28 3.28 0 014.635 0 3.284 3.284 0 01-.001 4.635zm4.727-2.737a2.073 2.073 0 01-2.078-2.08 2.078 2.078 0 114.156 0c0 1.158-.93 2.08-2.078 2.08z"/></symbol><symbol viewBox="0 0 32 32" id="ns-wedding-4" xmlns="http://www.w3.org/2000/svg"><path d="M0 18.812v1.875h2.296l1.875 3.75h8.654l-1.25 3.75H9.438v1.875h13.125v-1.875h-2.137l-1.25-3.75h8.654l1.875-3.75H32v-1.875H0zm18.549-12.89c.165-.358.264-.752.264-1.172 0-1.551-1.262-2.812-2.812-2.812S13.189 3.2 13.189 4.75c0 .419.099.814.264 1.172A14.099 14.099 0 002.221 16.938h27.558c-1.139-5.59-5.604-9.982-11.23-11.016zM15.062 4.75a.939.939 0 111.877.001.939.939 0 01-1.877-.001z"/></symbol><symbol viewBox="0 0 32 32" id="ns-wedding-5" xmlns="http://www.w3.org/2000/svg"><path d="M18.068 24.411L31.95 18.21l-1.295-1.529a6.309 6.309 0 00-7.173-1.71 9.364 9.364 0 00-7.483-.003 9.355 9.355 0 00-7.483.003 6.306 6.306 0 00-7.173 1.71L.05 18.21l13.701 6.12 4.317.081zM9.55 11.327c.089.442.26.852.468 1.244a11.352 11.352 0 013.337-.154c-.809-.67-1.833-1.09-2.963-1.09H9.55z"/><path d="M8.08 12.889a6.562 6.562 0 01-.491-2.497v-.934h2.804c2.388 0 4.46 1.3 5.602 3.216 1.147-1.932 3.237-3.216 5.613-3.216h2.804v.934c0 .875-.174 1.719-.495 2.497 2.08-.511 4.282-.153 6.102.899a5.373 5.373 0 00-1.211-3.09 5.411 5.411 0 00-3.432-5.943 5.356 5.356 0 00-2.358-2.781 5.36 5.36 0 00-3.588-.652c-2.062-1.698-4.8-1.698-6.861 0a5.366 5.366 0 00-3.588.652 5.36 5.36 0 00-2.357 2.781 5.414 5.414 0 00-3.432 5.943 5.37 5.37 0 00-1.211 3.091c1.82-1.05 4.021-1.408 6.099-.9z"/><path d="M18.62 12.419a11.344 11.344 0 013.361.152c.208-.392.379-.803.468-1.244h-.841a4.656 4.656 0 00-2.988 1.092zm.184 13.861h-5.608v2.867c0 .633.219 1.212.575 1.682l.001.001c.121.16.259.304.412.435l.059.049c.133.108.275.203.426.286.039.021.077.043.117.063.142.069.29.123.444.167.05.014.096.034.147.045.201.045.408.075.623.075s.422-.03.624-.076c.05-.012.097-.031.147-.045a2.72 2.72 0 00.444-.167c.04-.02.078-.042.117-.063.152-.083.294-.178.426-.286l.059-.049a2.82 2.82 0 00.411-.435l.001-.001a2.78 2.78 0 00.575-1.682V26.28z"/></symbol><symbol viewBox="0 0 32 32" id="ns-wedding-6" xmlns="http://www.w3.org/2000/svg"><path d="M24.605 3.967h-4.26V1.263A1.122 1.122 0 0018.923.092L7.067 3.994a2.024 2.024 0 00-1.692 1.993V29.93c0 1.114.906 2.02 2.02 2.02h17.209c1.114 0 2.02-.906 2.02-2.02V5.987a2.02 2.02 0 00-2.019-2.02zm-5.109 22.422h-6.88a1.122 1.122 0 010-2.244h6.88a1.122 1.122 0 010 2.244zm0-3.142h-6.88a1.122 1.122 0 110-2.244h6.88a1.122 1.122 0 110 2.244zm1.464-8.901l-4.111 4.11a1.12 1.12 0 01-1.587 0l-4.096-4.096c-.596-.558-.929-1.429-.914-2.395.015-.94.352-1.769.927-2.283a3.257 3.257 0 012.289-.932c.876 0 1.698.341 2.318.96l.269.269.269-.269a3.28 3.28 0 014.635 0 3.281 3.281 0 01.001 4.636z"/></symbol><symbol viewBox="0 0 32 32" id="ns-wedding-7" xmlns="http://www.w3.org/2000/svg"><path d="M11.587 5.15c.356.473.552 1.061.552 1.655v.92h1.724c.651 0 1.304-.065 1.942-.193l1.3-.259v-.652h1.256l1.502.901v-.718c0-.593.196-1.181.552-1.655l.552-.735c.356-.474.552-1.062.552-1.655s-.196-1.181-.552-1.655l-.088-.119A2.478 2.478 0 0018.907 0c-.659 0-1.278.256-1.743.722l-1.162 1.161L14.84.722A2.45 2.45 0 0013.096 0c-.771 0-1.509.368-1.973.987l-.087.116c-.357.475-.553 1.062-.553 1.656s.196 1.181.552 1.655l.552.736zm7.826 7.619l.695-2.783-.691.414-1.315 2.63 1.311-.261zm3.979.234l-1.006-2.681-.561-.337.7 2.8.867.218zm-5.184-5.187V9.84l1.687-1.012-1.687-1.012zm5.517 0l-1.687 1.012 1.687 1.012V7.816zM10.221 23.724h.451c1.092 0 2.12.425 2.893 1.198A3.42 3.42 0 0016 25.931c.92 0 1.785-.358 2.435-1.009a4.065 4.065 0 012.892-1.198h.451a4.082 4.082 0 013.287-1.655h.898a40.26 40.26 0 00-1.97-3.796 3.154 3.154 0 00-2.018 1.343l-.164.246h-.484a4.288 4.288 0 00-3.054 1.265c-.599.599-1.428.942-2.274.942s-1.675-.343-2.274-.942a4.291 4.291 0 00-3.054-1.265h-.484l-.164-.246a3.15 3.15 0 00-2.019-1.343 40.027 40.027 0 00-1.97 3.796h.898c1.306 0 2.519.616 3.289 1.655z"/><path d="M28.496 29.566a40.168 40.168 0 00-2.057-6.393h-1.371c-1.001 0-1.93.497-2.486 1.33l-.217.325h-1.036c-.798 0-1.549.31-2.113.875a4.517 4.517 0 01-3.215 1.332 4.52 4.52 0 01-3.216-1.332 2.97 2.97 0 00-2.113-.875H9.636l-.216-.325a2.981 2.981 0 00-2.486-1.33H5.563a40.099 40.099 0 00-2.057 6.393l-.099.428C4.852 30.496 9.708 32 16 32s11.147-1.504 12.594-2.007l-.098-.427zm-16.68-18.531l-.178.178c-.3.3-.587.61-.866.926h.593c2.037 0 4.033-.67 5.667-1.882a11.063 11.063 0 01-4.05.778h-1.166zm5.288-2.638l-1.083.217c-.708.142-1.435.214-2.158.214h-1.724v1.104h.843a9.946 9.946 0 004.122-.904v-.631zm-6.337 10.362a5.386 5.386 0 013.74 1.588c.394.393.937.618 1.494.618.556 0 1.1-.225 1.493-.618a5.386 5.386 0 013.74-1.588 4.261 4.261 0 013.291-1.655 21.215 21.215 0 00-1.846-3.142l-1.064-.266-.649-2.594-.653 2.613-4.207.841 1.76-3.521h-.031a10.659 10.659 0 01-6.471 2.207H9.851a21.156 21.156 0 00-2.375 3.863 4.254 4.254 0 013.291 1.654z"/></symbol><symbol viewBox="0 0 32 32" id="ns-wedding-8" xmlns="http://www.w3.org/2000/svg"><path d="M19.332 1.793c.016.039.022.072.033.105.006.011.006.022.011.033l1.732 3.034h5.218l1.732-3.034c.011-.011.011-.022.017-.033.011-.033.016-.066.033-.105l.016-.105c0-.011.006-.022.006-.033a.621.621 0 00-.017-.105V1.5C27.854.05 24.153 0 23.717 0c-.431 0-4.137.05-4.391 1.5v.05a.724.724 0 00-.022.105c0 .011.011.022.011.033l.017.105zm2.179 4.275h4.413v1.103h-4.413V6.068zm-1.832.552a3.84 3.84 0 00.177-1.214c0-1.545-1.672-2.924-1.865-3.078-.011-.011-.022-.011-.044-.022a.304.304 0 00-.094-.05.35.35 0 00-.099-.033.738.738 0 00-.105-.005.738.738 0 00-.105.005.34.34 0 00-.099.033.334.334 0 00-.088.05c-.022.011-.033.011-.044.022-.193.155-1.87 1.533-1.87 3.078-.008.412.053.822.182 1.214h4.054zm12.313 3.866a1.655 1.655 0 00-1.661-1.654h-.006a1.616 1.616 0 00-1.153.48l-2.918 2.841c-.105-.006-.215-.017-.331-.017V8.275H21.51v3.861h-2.207V9.929h-3.31v2.207H14.34V6.62h-3.31v5.516H9.927v-3.31a1.107 1.107 0 00-1.104-1.103V6.62H4.962v1.103c-.608.004-1.1.495-1.103 1.103v3.437a4.96 4.96 0 00-3.85 4.843L.02 31.983 30.872 32l.011-14.894a4.895 4.895 0 00-1.417-3.475l2.041-1.975c.31-.31.485-.731.485-1.17zm-1.258.381l-2.129 2.063a4.79 4.79 0 00-1.043-.513l2.383-2.322a.538.538 0 01.386-.16.502.502 0 01.397.165.546.546 0 01.006.767zM20.317 22.576l-4.111 4.11a1.12 1.12 0 01-1.587 0l-4.096-4.096c-.596-.558-.929-1.429-.914-2.395.014-.94.352-1.769.927-2.283a3.257 3.257 0 012.289-.932c.876 0 1.698.341 2.318.96l.269.269.269-.269a3.28 3.28 0 014.635 0 3.283 3.283 0 01.001 4.636zM9.377 1.103A1.106 1.106 0 008.274 0H5.516a1.107 1.107 0 00-1.103 1.103v4.413h4.965V1.103z"/><path d="M15.997 7.723h3.31v1.103h-3.31V7.723zm-2.24-4.678a1.1 1.1 0 00-2.146.028l-.48 2.444h3.111l-.485-2.472z"/></symbol><symbol viewBox="0 0 32 32" id="pencil" xmlns="http://www.w3.org/2000/svg"><path d="M23.4.6c-.8-.8-2-.8-2.8 0l-20 20c-.4.4-.6.8-.6 1.4v8c0 1.2.8 2 2 2h8c.6 0 1-.2 1.4-.6l20-20c.8-.8.8-2 0-2.8l-8-8zM9.2 28H4v-5.2l12-12 5.2 5.2-12 12zM24 13.2L18.8 8 22 4.8l5.2 5.2-3.2 3.2z"/></symbol><symbol viewBox="0 0 32 32" id="phone-2" xmlns="http://www.w3.org/2000/svg"><path d="M30.57 24.61l-5.156-5.188a1.999 1.999 0 00-2.832-.004L18 24 8 14l4.588-4.588c.78-.78.782-2.046.002-2.828L7.43 1.416a2 2 0 00-2.83 0L.008 6.006 0 6c0 14.36 11.64 26 26 26l4.566-4.566c.78-.78.782-2.042.004-2.824z"/></symbol><symbol viewBox="0 0 32 32" id="phone-call" xmlns="http://www.w3.org/2000/svg"><path d="M30.57 24.61l-5.156-5.188a1.999 1.999 0 00-2.832-.004L18 24 8 14l4.588-4.588c.78-.78.782-2.046.002-2.828L7.43 1.416a2 2 0 00-2.83 0L.008 6.006 0 6c0 14.36 11.64 26 26 26l4.566-4.566c.78-.78.782-2.042.004-2.824zM32 16h-4c0-6.618-5.382-12-12-12V0c8.822 0 16 7.178 16 16z"/><path d="M24 16h-4c0-2.206-1.794-4-4-4V8c4.412 0 8 3.588 8 8z"/></symbol><symbol viewBox="0 0 32 32" id="pin-3" xmlns="http://www.w3.org/2000/svg"><path d="M16 0C10.133 0 4 4.533 4 12c0 7.067 10.667 17.867 11.067 18.267.267.267.533.4.933.4s.667-.133.933-.4C17.333 29.867 28 19.067 28 12c0-7.467-6.133-12-12-12zm0 16c-2.267 0-4-1.733-4-4s1.733-4 4-4 4 1.733 4 4-1.733 4-4 4z"/></symbol><symbol viewBox="0 0 32 32" id="print" xmlns="http://www.w3.org/2000/svg"><path d="M6 0h20v6H6V0zm24 10H2c-1.2 0-2 .8-2 2v12c0 1.2.8 2 2 2h4v4c0 1.2.8 2 2 2h16c1.2 0 2-.8 2-2v-4h4c1.2 0 2-.8 2-2V12c0-1.2-.8-2-2-2zm-8 18H10V18h12v10z"/></symbol><symbol viewBox="0 0 32 32" id="quite-happy-e" xmlns="http://www.w3.org/2000/svg"><path d="M16 0C7.2 0 0 7.2 0 16s7.2 16 16 16 16-7.2 16-16S24.8 0 16 0zm0 28C9.4 28 4 22.6 4 16S9.4 4 16 4s12 5.4 12 12-5.4 12-12 12z"/><path d="M14 12a2 2 0 11-3.999.001A2 2 0 0114 12zm8 0a2 2 0 11-3.999.001A2 2 0 0122 12zm-6 12c3.4 0 6-2.6 6-6H10c0 3.4 2.6 6 6 6z"/></symbol><symbol viewBox="0 0 32 32" id="quote" xmlns="http://www.w3.org/2000/svg"><path d="M6.047 9.121c-2.37 2.963-2.712 5.949-2.016 8.038 2.632-2.09 6.289-1.652 8.517.428 2.25 2.102 2.443 5.796 1.008 8.189a6.582 6.582 0 01-5.694 3.225c-5.385 0-7.861-4.75-7.861-10.079 0-3.46.882-6.56 2.646-9.298s4.426-4.947 7.987-6.627l.957 1.865c-2.15.907-3.998 2.326-5.543 4.258zm17.537 0c-2.37 2.963-2.712 5.949-2.016 8.038 1.176-.907 2.453-1.361 3.83-1.361 3.623 0 6.602 2.413 6.602 6.602 0 3.851-2.956 6.602-6.602 6.602-5.385 0-7.861-4.75-7.861-10.079 0-3.46.882-6.56 2.646-9.298s4.426-4.947 7.987-6.627l.957 1.865c-2.15.907-3.998 2.327-5.543 4.258z"/></symbol><symbol viewBox="0 0 32 32" id="refresh-01" xmlns="http://www.w3.org/2000/svg"><path d="M30.188 14.062L29.11 1.64 25.25 5.5A14.028 14.028 0 0016 2C8.28 2 2 8.28 2 16s6.28 14 14 14c4.982 0 9.628-2.682 12.126-6.998L24.664 21A10.045 10.045 0 0116 26c-5.514 0-10-4.486-10-10S10.486 6 16 6c2.358 0 4.622.846 6.41 2.34l-4.644 4.644 12.422 1.078z"/></symbol><symbol viewBox="0 0 32 32" id="refresh-02" xmlns="http://www.w3.org/2000/svg"><path d="M16 6c2.358 0 4.622.846 6.41 2.34l-4.644 4.644 12.422 1.078L29.11 1.64 25.25 5.5A14.028 14.028 0 0016 2 13.95 13.95 0 002.194 13.668l3.946.662A9.96 9.96 0 0116 6zm0 20c-2.358 0-4.622-.846-6.41-2.34l4.644-4.644-12.422-1.078L2.89 30.36l3.86-3.86A14.028 14.028 0 0016 30a13.95 13.95 0 0013.806-11.668l-3.946-.662A9.96 9.96 0 0116 26z"/></symbol><symbol viewBox="0 0 32 32" id="refresh-19" xmlns="http://www.w3.org/2000/svg"><path d="M15.4 2.4l1.4 12.8L21 11c3.8 3.8 3.8 10.2 0 14-1.8 2-4.4 3-7 3s-5.2-1-7-3c-3.8-3.8-3.8-10.2 0-14 1.2-1.2 2.8-2.2 4.6-2.6l-1.2-3.8C8 5.2 5.8 6.4 4 8.2-1.4 13.6-1.4 22.4 4 28c2.6 2.6 6.2 4 9.8 4 3.8 0 7.2-1.4 9.8-4 5.4-5.4 5.4-14.2 0-19.8L28 3.8 15.4 2.4z"/></symbol><symbol viewBox="0 0 32 32" id="replay" xmlns="http://www.w3.org/2000/svg"><path d="M30 6h-4v4h2v12H16v-4l-8 6 8 6v-4h14c1.2 0 2-.8 2-2V8c0-1.2-.8-2-2-2z"/><path d="M4 10h12v4l8-6-8-6v4H2C.8 6 0 6.8 0 8v16c0 1.2.8 2 2 2h4v-4H4V10z"/></symbol><symbol viewBox="0 0 32 32" id="round-e-info" xmlns="http://www.w3.org/2000/svg"><path d="M16 0C7.2 0 0 7.2 0 16s7.2 16 16 16 16-7.2 16-16S24.8 0 16 0zm0 28C9.4 28 4 22.6 4 16S9.4 4 16 4s12 5.4 12 12-5.4 12-12 12z"/><path d="M14 14h4v10h-4V14zm4-4a2 2 0 11-3.999.001A2 2 0 0118 10z"/></symbol><symbol viewBox="0 0 32 32" id="search-1" xmlns="http://www.w3.org/2000/svg"><path d="M14.212 24.05c-5.566 0-10.136-4.372-10.136-9.938S8.648 3.976 14.212 3.976s10.136 4.572 10.136 10.136-4.572 9.938-10.136 9.938zm11.13-1.59a13.525 13.525 0 002.782-8.248v-.105.005C28.124 6.36 21.962 0 14.212 0 6.46 0 .1 6.36.1 14.112s6.36 14.112 14.112 14.112c3.18 0 6.162-.994 8.348-2.782l5.962 5.962c.398.398.994.596 1.39.596.398 0 .994-.198 1.392-.596.368-.35.597-.844.597-1.391s-.229-1.041-.596-1.39l-.001-.001-5.962-6.162z"/></symbol><symbol viewBox="0 0 32 32" id="search-2" xmlns="http://www.w3.org/2000/svg"><path d="M1.333 13.333h9.333a1.333 1.333 0 000-2.666H1.333a1.333 1.333 0 100 2.666zm0 8h9.333a1.333 1.333 0 000-2.666H1.333a1.333 1.333 0 100 2.666zm20 5.334h-20a1.333 1.333 0 100 2.666h20a1.333 1.333 0 100-2.666zm-20-21.334h20a1.333 1.333 0 100-2.666h-20a1.333 1.333 0 100 2.666zm30.276 19.058l-4.72-4.72A6.624 6.624 0 0028 16c0-3.676-2.991-6.667-6.667-6.667S14.666 12.324 14.666 16s2.991 6.667 6.667 6.667a6.624 6.624 0 003.671-1.111l4.72 4.72a1.33 1.33 0 001.886 0 1.332 1.332 0 000-1.885zM21.333 20a4 4 0 110-8 4 4 0 010 8z"/></symbol><symbol viewBox="0 0 32 32" id="select-83" xmlns="http://www.w3.org/2000/svg"><path d="M4 12h24L16 0zm12 20l12-12H4z"/></symbol><symbol viewBox="0 0 32 32" id="select-84" xmlns="http://www.w3.org/2000/svg"><path d="M14.8 2.4l-10 8 2.4 3.2 8.8-7 8.8 7 2.4-3.2-10-8c-.6-.6-1.8-.6-2.4 0zm1.2 23l-8.8-7-2.4 3.2 10 8c.4.2.8.4 1.2.4s.8-.2 1.2-.4l10-8-2.4-3.2-8.8 7z"/></symbol><symbol viewBox="0 0 32 32" id="send" xmlns="http://www.w3.org/2000/svg"><path d="M7.2 19.2V29c0 1.4 1.6 2 2.6 1l4.6-5.4 9.4 7c.8.6 2 .2 2.2-.8l6-29c.2-1.2-.8-2-2-1.6L1 11.8c-1 .4-1.2 1.8-.4 2.6l3.2 2.4 9.2-4.4c.8-.4 1.4.6.8 1l-6.6 5.8z"/></symbol><symbol viewBox="0 0 32 32" id="settings-gear-64" xmlns="http://www.w3.org/2000/svg"><path d="M26.6 10.4l2.2-4.2L26 3.4l-4.2 2.2c-.6-.4-1.4-.6-2.2-.8L18 0h-4l-1.6 4.6c-.6.2-1.4.4-2 .8L6.2 3.2l-3 3 2.2 4.2c-.4.6-.6 1.4-.8 2L0 14v4l4.6 1.6c.2.8.6 1.4.8 2.2L3.2 26 6 28.8l4.2-2.2c.6.4 1.4.6 2.2.8L14 32h4l1.6-4.6c.8-.2 1.4-.6 2.2-.8l4.2 2.2 2.8-2.8-2.2-4.2c.4-.6.6-1.4.8-2.2L32 18v-4l-4.6-1.6c-.2-.6-.4-1.4-.8-2zM16 22c-3.4 0-6-2.6-6-6s2.6-6 6-6 6 2.6 6 6-2.6 6-6 6z"/></symbol><symbol viewBox="0 0 32 32" id="settings-gear-64-2" xmlns="http://www.w3.org/2000/svg"><path d="M26.6 10.4l2.2-4.2L26 3.4l-4.2 2.2c-.6-.4-1.4-.6-2.2-.8L18 0h-4l-1.6 4.6c-.6.2-1.4.4-2 .8L6.2 3.2l-3 3 2.2 4.2c-.4.6-.6 1.4-.8 2L0 14v4l4.6 1.6c.2.8.6 1.4.8 2.2L3.2 26 6 28.8l4.2-2.2c.6.4 1.4.6 2.2.8L14 32h4l1.6-4.6c.8-.2 1.4-.6 2.2-.8l4.2 2.2 2.8-2.8-2.2-4.2c.4-.6.6-1.4.8-2.2L32 18v-4l-4.6-1.6c-.2-.6-.4-1.4-.8-2zM16 22c-3.4 0-6-2.6-6-6s2.6-6 6-6 6 2.6 6 6-2.6 6-6 6z"/></symbol><symbol viewBox="0 0 32 32" id="shape-star" xmlns="http://www.w3.org/2000/svg"><path d="M30.288 10.878l-8.634-1.256L17.8 1.8a2.084 2.084 0 00-3.595-.01l-.005.01-3.854 7.824-8.634 1.254A2.002 2.002 0 00.6 14.29l6.246 6.09-1.474 8.6a2 2 0 002.912 2.103l-.011.005 7.726-4.062 7.722 4.058a2 2 0 002.901-2.12l.002.012-1.474-8.6 6.25-6.086a2.001 2.001 0 00-1.097-3.409l-.011-.001z"/></symbol><symbol viewBox="0 0 32 32" id="share-2" xmlns="http://www.w3.org/2000/svg"><path d="M24 12c3.308 0 6-2.692 6-6s-2.692-6-6-6-6 2.692-6 6c0 .446.058.878.15 1.298l-6.44 4.024C10.686 10.508 9.408 10 8 10c-3.308 0-6 2.692-6 6s2.692 6 6 6c1.408 0 2.686-.508 3.71-1.322l6.44 4.024c-.092.42-.15.852-.15 1.298 0 3.308 2.692 6 6 6s6-2.692 6-6-2.692-6-6-6c-1.408 0-2.686.508-3.71 1.322l-6.44-4.024c.092-.42.15-.852.15-1.298s-.058-.878-.15-1.298l6.44-4.024C21.314 11.492 22.592 12 24 12z"/></symbol><symbol viewBox="0 0 32 32" id="share-26" xmlns="http://www.w3.org/2000/svg"><path d="M30 0H16v4h9.2L12.6 16.6l2.8 2.8L28 6.8V16h4V2c0-1.2-.8-2-2-2z"/><path d="M28 32H2c-1.2 0-2-.8-2-2V4c0-1.2.8-2 2-2h8v4H4v22h22v-6h4v8c0 1.2-.8 2-2 2z"/></symbol><symbol viewBox="0 0 32 32" id="share-91" xmlns="http://www.w3.org/2000/svg"><path d="M30 32H2c-1.2 0-2-.8-2-2V6c0-1.2.8-2 2-2h6v4H4v20h24V18h4v12c0 1.2-.8 2-2 2z"/><path d="M20 6C13.6 6 8 11 8 20c2.2-3.4 4.8-6 12-6v6l12-10L20 0v6z"/></symbol><symbol viewBox="0 0 32 32" id="share-92" xmlns="http://www.w3.org/2000/svg"><path d="M30 32H2c-1.2 0-2-.8-2-2V18h4v10h24V8h-4V4h6c1.2 0 2 .8 2 2v24c0 1.2-.8 2-2 2z"/><path d="M12 6c6.4 0 12 5 12 14-2.2-3.4-4.8-6-12-6v6L0 10 12 0v6z"/></symbol><symbol viewBox="0 0 32 32" id="shuffle-98" xmlns="http://www.w3.org/2000/svg"><path d="M24 22c-2.986 0-4.024-1.066-5.684-2.962l-2.658 3.038C17.824 24.55 20.15 26 24 26v4l8-6-8-6v4zM7.684 12.962l2.658-3.038C8.242 7.524 5.798 6 2.37 6H0v4h2.37c2.562 0 3.804 1.238 5.314 2.962zM24 6c-3.434 0-6.036 1.29-7.896 3.416L6.884 19.95A5.996 5.996 0 012.37 22H0v4h2.37c2.882 0 5.626-1.246 7.528-3.416l9.218-10.536C20.438 10.536 22.074 10 24 10v4l8-6-8-6v4z"/></symbol><symbol viewBox="0 0 32 32" id="simple-add" xmlns="http://www.w3.org/2000/svg"><path d="M30 14H18V2c0-1.2-.8-2-2-2s-2 .8-2 2v12H2c-1.2 0-2 .8-2 2s.8 2 2 2h12v12c0 1.2.8 2 2 2s2-.8 2-2V18h12c1.2 0 2-.8 2-2s-.8-2-2-2z"/></symbol><symbol viewBox="0 0 32 32" id="simple-remove" xmlns="http://www.w3.org/2000/svg"><path d="M29.4 2.6c-.8-.8-2-.8-2.8 0L16 13.2 5.4 2.6c-.8-.8-2-.8-2.8 0s-.8 2 0 2.8L13.2 16 2.6 26.6c-.8.8-.8 2 0 2.8.4.4.8.6 1.4.6s1-.2 1.4-.6L16 18.8l10.6 10.6c.4.4 1 .6 1.4.6s1-.2 1.4-.6c.8-.8.8-2 0-2.8L18.8 16 29.4 5.4c.8-.8.8-2 0-2.8z"/></symbol><symbol viewBox="0 0 32 32" id="single-01" xmlns="http://www.w3.org/2000/svg"><path d="M24 8A8 8 0 118 8a8 8 0 0116 0zm8 18.4v-.017a3.979 3.979 0 00-2.302-3.609l-.025-.01c-3.915-1.748-8.483-2.766-13.29-2.766l-.405.002h.021a33.197 33.197 0 00-13.886 2.848l.212-.084a3.986 3.986 0 00-2.326 3.619v.018-.001V32h32z"/></symbol><symbol viewBox="0 0 32 32" id="single-copy-04" xmlns="http://www.w3.org/2000/svg"><path d="M20 8H4c-1.2 0-2 .8-2 2v20c0 1.2.8 2 2 2h16c1.2 0 2-.8 2-2V10c0-1.2-.8-2-2-2z"/><path d="M28 0H8v4h18v22h4V2c0-1.2-.8-2-2-2z"/></symbol><symbol viewBox="0 0 32 32" id="slider" xmlns="http://www.w3.org/2000/svg"><path d="M30 20H2a2 2 0 01-2-2V2a2 2 0 012-2h28a2 2 0 012 2v16a2 2 0 01-2 2zm-10 8a4 4 0 11-8 0 4 4 0 018 0zM8 28a2 2 0 11-3.999.001A2 2 0 018 28zm20 0a2 2 0 11-3.999.001A2 2 0 0128 28z"/></symbol><symbol viewBox="0 0 32 32" id="small-delete" xmlns="http://www.w3.org/2000/svg"><path d="M8 14h16v4H8v-4z"/></symbol><symbol viewBox="0 0 32 32" id="small-down" xmlns="http://www.w3.org/2000/svg"><path d="M16 22.8L5.2 12 8 9.2l8 8 8-8 2.8 2.8z"/></symbol><symbol viewBox="0 0 32 32" id="small-left" xmlns="http://www.w3.org/2000/svg"><path d="M20 26.8L9.2 16 20 5.2 22.8 8l-8 8 8 8z"/></symbol><symbol viewBox="0 0 32 32" id="small-right" xmlns="http://www.w3.org/2000/svg"><path d="M12 26.8L9.2 24l8-8-8-8L12 5.2 22.8 16z"/></symbol><symbol viewBox="0 0 32 32" id="small-triangle-down" xmlns="http://www.w3.org/2000/svg"><path d="M6 10l10 12 10-12z"/></symbol><symbol viewBox="0 0 32 32" id="small-triangle-left" xmlns="http://www.w3.org/2000/svg"><path d="M22 6L10 16l12 10z"/></symbol><symbol viewBox="0 0 32 32" id="small-triangle-right" xmlns="http://www.w3.org/2000/svg"><path d="M10 26l12-10L10 6z"/></symbol><symbol viewBox="0 0 32 32" id="small-triangle-up" xmlns="http://www.w3.org/2000/svg"><path d="M26 22L16 10 6 22z"/></symbol><symbol viewBox="0 0 32 32" id="small-up" xmlns="http://www.w3.org/2000/svg"><path d="M24 22.8l-8-8-8 8L5.2 20 16 9.2 26.8 20z"/></symbol><symbol viewBox="0 0 32 32" id="square-add-11" xmlns="http://www.w3.org/2000/svg"><path d="M14 24h4v-6h6v-4h-6V8h-4v6H8v4h6z"/><path d="M30 0H2C.8 0 0 .8 0 2v28c0 1.2.8 2 2 2h28c1.2 0 2-.8 2-2V2c0-1.2-.8-2-2-2zm-2 28H4V4h24v24z"/></symbol><symbol viewBox="0 0 32 32" id="square-delete-13" xmlns="http://www.w3.org/2000/svg"><path d="M8 14h16v4H8v-4z"/><path d="M30 0H2C.8 0 0 .8 0 2v28c0 1.2.8 2 2 2h28c1.2 0 2-.8 2-2V2c0-1.2-.8-2-2-2zm-2 28H4V4h24v24z"/></symbol><symbol viewBox="0 0 32 32" id="square-download" xmlns="http://www.w3.org/2000/svg"><path d="M16 24c.6 0 1-.2 1.4-.6L28.8 12 26 9.2l-8 8V0h-4v17.2l-8-8L3.2 12l11.4 11.4c.4.4.8.6 1.4.6z"/><path d="M28 28H4v-6H0v8c0 1.2.8 2 2 2h28c1.2 0 2-.8 2-2v-8h-4v6z"/></symbol><symbol viewBox="0 0 32 32" id="square-remove-12" xmlns="http://www.w3.org/2000/svg"><path d="M11.8 23l4.2-4.2 4.2 4.2 2.8-2.8-4.2-4.2 4.2-4.2L20.2 9 16 13.2 11.8 9 9 11.8l4.2 4.2L9 20.2z"/><path d="M30 0H2C.8 0 0 .8 0 2v28c0 1.2.8 2 2 2h28c1.2 0 2-.8 2-2V2c0-1.2-.8-2-2-2zm-2 28H4V4h24v24z"/></symbol><symbol viewBox="0 0 32 32" id="square-upload" xmlns="http://www.w3.org/2000/svg"><path d="M14 6.8V24h4V6.8l8 8 2.8-2.8L17.4.6c-.8-.8-2-.8-2.8 0L3.2 12 6 14.8l8-8z"/><path d="M28 28H4v-6H0v8c0 1.2.8 2 2 2h28c1.2 0 2-.8 2-2v-8h-4v6z"/></symbol><symbol viewBox="0 0 32 32" id="star-half" xmlns="http://www.w3.org/2000/svg"><path d="M16 .73c-.728 0-1.456.342-1.794 1.024l-3.86 7.822-8.634 1.254c-1.634.238-2.296 2.252-1.108 3.412l6.248 6.088-1.474 8.598c-.278 1.628 1.434 2.878 2.902 2.108L16 26.978V.73z"/></symbol><symbol viewBox="0 0 32 32" id="stopwatch" xmlns="http://www.w3.org/2000/svg"><path d="M25.4.6c-.8-.8-2-.8-2.8 0s-.8 2 0 2.8L24.2 5l-1.8 1.8C20 5 17.2 4 14 4 6.2 4 0 10.2 0 18s6.2 14 14 14 14-6.2 14-14c0-3.2-1-6-2.8-8.4L27 7.8l1.6 1.6c.4.4.8.6 1.4.6s1-.2 1.4-.6c.8-.8.8-2 0-2.8l-6-6zM14 28C8.4 28 4 23.6 4 18S8.4 8 14 8s10 4.4 10 10-4.4 10-10 10z"/><path d="M16 12h-4v8h8v-4h-4z"/></symbol><symbol viewBox="0 0 32 32" id="tag" xmlns="http://www.w3.org/2000/svg"><path d="M31.4 16.6l-16-16C15 .2 14.6 0 14 0H2C.8 0 0 .8 0 2v12c0 .6.2 1 .6 1.4l16 16c.4.4.8.6 1.4.6s1-.2 1.4-.6l12-12c.8-.8.8-2 0-2.8zM8 10c-1.2 0-2-.8-2-2s.8-2 2-2 2 .8 2 2-.8 2-2 2z"/></symbol><symbol viewBox="0 0 32 32" id="tail-down" xmlns="http://www.w3.org/2000/svg"><path d="M29.4 18.6l-2.8-2.8-8.6 8.6V0h-4v24.4l-8.6-8.6-2.8 2.8L16 32z"/></symbol><symbol viewBox="0 0 32 32" id="tail-left" xmlns="http://www.w3.org/2000/svg"><path d="M13.4 29.4l2.8-2.8L7.6 18H32v-4H7.6l8.6-8.6-2.8-2.8L0 16z"/></symbol><symbol viewBox="0 0 32 32" id="tail-right" xmlns="http://www.w3.org/2000/svg"><path d="M18.6 2.6l-2.8 2.8 8.6 8.6H0v4h24.4l-8.6 8.6 2.8 2.8L32 16z"/></symbol><symbol viewBox="0 0 32 32" id="tail-up" xmlns="http://www.w3.org/2000/svg"><path d="M2.6 13.4l2.8 2.8L14 7.6V32h4V7.6l8.6 8.6 2.8-2.8L16 0z"/></symbol><symbol viewBox="0 0 32 32" id="tap-01" xmlns="http://www.w3.org/2000/svg"><path d="M19.744 13.001a1 1 0 01-.819-1.573A5.955 5.955 0 0020 8c0-3.309-2.691-6-6-6S8 4.691 8 8c0 1.235.372 2.42 1.075 3.428a1 1 0 01-1.641 1.145A7.958 7.958 0 015.999 8c0-4.411 3.589-8 8-8s8 3.589 8 8a7.95 7.95 0 01-1.435 4.573.999.999 0 01-.821.428z"/><path d="M24.128 17.478L16 16V9a2 2 0 10-4 0v13h-1v-3h-1a2 2 0 00-2 2v2.895c0 1.362.464 2.684 1.315 3.748L12 30.999h13l1.556-10.114a3 3 0 00-2.428-3.408z"/></symbol><symbol viewBox="0 0 32 32" id="time-3" xmlns="http://www.w3.org/2000/svg"><path d="M16 0C7.2 0 0 7.2 0 16s7.2 16 16 16 16-7.2 16-16S24.8 0 16 0zm8 18H14V8h4v6h6v4z"/></symbol><symbol viewBox="0 0 32 32" id="trash" xmlns="http://www.w3.org/2000/svg"><path d="M4 12v16c0 2.2 1.8 4 4 4h16c2.2 0 4-1.8 4-4V12H4zm20-6V2c0-1.2-.8-2-2-2H10C8.8 0 8 .8 8 2v4H0v4h32V6h-8zm-4 0h-8V4h8v2z"/></symbol><symbol viewBox="0 0 32 32" id="triangle-left" xmlns="http://www.w3.org/2000/svg"><path d="M8 16.002c0 .652.318 1.264.854 1.638l20 14A2 2 0 0032 30.002V1.998A1.998 1.998 0 0028.854.36l-20 14A1.997 1.997 0 008 15.998v.004c0-.002 0-.002 0 0zM2 0a2 2 0 012 2v28a2 2 0 11-4 0V2a2 2 0 012-2z"/></symbol><symbol viewBox="0 0 32 32" id="triangle-right" xmlns="http://www.w3.org/2000/svg"><path d="M24 15.998c0-.652-.318-1.264-.854-1.638l-20-14A2 2 0 000 1.998V30a1.998 1.998 0 003.146 1.638l20-14A1.99 1.99 0 0024 16.002v-.004c0 .002 0 .002 0 0zM30 32a2 2 0 01-2-2V2a2 2 0 114 0v28a2 2 0 01-2 2z"/></symbol><symbol viewBox="0 0 32 32" id="tv-2" xmlns="http://www.w3.org/2000/svg"><path d="M30 0H2C.8 0 0 .8 0 2v22c0 1.2.8 2 2 2h12v2H6v4h20v-4h-8v-2h12c1.2 0 2-.8 2-2V2c0-1.2-.8-2-2-2zm-2 22H4V4h24v18z"/></symbol><symbol viewBox="0 0 32 32" id="weather-1" xmlns="http://www.w3.org/2000/svg"><path d="M0 15h4v2H0v-2zm3.975-9.607l1.414-1.414 2.828 2.828-1.414 1.414-2.828-2.828zM15 0h2v4h-2V0zm8.776 6.806l2.828-2.828 1.414 1.414L25.19 8.22l-1.414-1.414zM28 15h4v2h-4v-2zm-4.223 10.193l1.414-1.414 2.828 2.828-1.414 1.414-2.828-2.828zM15 28h2v4h-2v-4zM3.976 26.608l2.828-2.828 1.414 1.414-2.828 2.828-1.414-1.414zM16 7c-4.971 0-9 4.029-9 9s4.029 9 9 9a9 9 0 009-9 9 9 0 00-9-9z"/></symbol><symbol viewBox="0 0 32 32" id="zoom" xmlns="http://www.w3.org/2000/svg"><path d="M11.2 4L28 20.8V4zM4 28h16.8L4 11.2z"/></symbol><symbol viewBox="0 0 32 32" id="zoom-2" xmlns="http://www.w3.org/2000/svg"><path d="M30.748 27.919l-7.644-7.644a11.942 11.942 0 002.229-6.979c0-6.648-5.389-12.037-12.037-12.037S1.259 6.648 1.259 13.296c0 6.648 5.389 12.037 12.037 12.037 2.617 0 5.04-.835 7.015-2.254l-.036.025 7.644 7.644zM4 13.333a9.333 9.333 0 1118.666 0 9.333 9.333 0 01-9.333 9.333A9.344 9.344 0 014 13.333v-.001z"/></symbol><symbol viewBox="0 0 32 32" id="zoom-88" xmlns="http://www.w3.org/2000/svg"><path d="M10 10h12v12H10V10zm-6 2H0V2C0 .8.8 0 2 0h10v4H4v8zm28 0h-4V4h-8V0h10c1.2 0 2 .8 2 2v10zm-2 20H20v-4h8v-8h4v10c0 1.2-.8 2-2 2zm-18 0H2c-1.2 0-2-.8-2-2V20h4v8h8v4z"/></symbol><symbol viewBox="0 0 32 32" id="zoom-e" xmlns="http://www.w3.org/2000/svg"><path d="M4 12H0V2C0 .8.8 0 2 0h10v4H4v8zm28 0h-4V4h-8V0h10c1.2 0 2 .8 2 2v10zm-2 20H20v-4h8v-8h4v10c0 1.2-.8 2-2 2zm-18 0H2c-1.2 0-2-.8-2-2V20h4v8h8v4z"/></symbol></svg>