<svg xmlns="http://www.w3.org/2000/svg" style="display: none;">
	<linearGradient id="my-cool-gradient" x2="1" y2="1">
		<stop offset="0%" stop-color="#447799" />
		<stop offset="50%" stop-color="#224488" />
		<stop offset="100%" stop-color="#112266" />
	</linearGradient>
	<linearGradient id="my-warm-gradient" x2="1" y2="1">
		<stop offset="0%" stop-color="#CC7744" />
		<stop offset="50%" stop-color="#992244" />
		<stop offset="100%" stop-color="#661133" />
	</linearGradient>
	<symbol id="home-1-2" viewBox="0 0 16 16">
		<title>home 1 2</title>
		<g>
			<g class="nc-icon-wrapper" >
				<path d="M10.948 16h1.999c.6 0 .999-.4.999-.999V7.92h.999c.3 0 .6-.1.8-.3.4-.4.3-.999-.1-1.399L8.65.225c-.4-.3-.9-.3-1.299 0L.354 6.221c-.4.4-.5.999-.1 1.399.1.2.4.3.7.3h.999V15c0 .6.4.999.999.999h1.999c.6 0 .999-.4.999-.999v-3.082h3.998V15c.001.6.401 1 1 1z"  id="Layer_1" />
			</g>
		</g>
	</symbol>
	<symbol id="image-01" viewBox="0 0 16 16">
		<title>image 01</title>
		<g>
			<g class="nc-icon-wrapper">
				<path  d="M15,0H1C0.4,0,0,0.4,0,1v14c0,0.6,0.4,1,1,1h14c0.6,0,1-0.4,1-1V1C16,0.4,15.6,0,15,0z M6,4c0.6,0,1,0.4,1,1 S6.6,6,6,6C5.4,6,5,5.6,5,5S5.4,4,6,4z M3,12l2-4l2,2l3-4l3,6H3z" />
			</g>
		</g>
	</symbol>
	<symbol id="chart-bar-33" viewBox="0 0 24 24">
		<title>chart bar 33</title>
		<g>
			<g class="nc-icon-wrapper">
				<path  d="M14,13h-4c-0.552,0-1,0.448-1,1v9c0,0.552,0.448,1,1,1h4c0.552,0,1-0.448,1-1v-9C15,13.448,14.552,13,14,13z " />
				<path  d="M5,17H1c-0.552,0-1,0.448-1,1v5c0,0.552,0.448,1,1,1h4c0.552,0,1-0.448,1-1v-5C6,17.448,5.552,17,5,17z" />
				<path  d="M23,9h-4c-0.552,0-1,0.448-1,1v13c0,0.552,0.448,1,1,1h4c0.552,0,1-0.448,1-1V10C24,9.448,23.552,9,23,9z" />
				<path data-color="color-2" d="M12.707,9.707L19,3.414V7h2V1c0-0.552-0.448-1-1-1h-6v2h3.586L12,7.586L8.707,4.293 c-0.391-0.391-1.023-0.391-1.414,0l-5,5l1.414,1.414L8,6.414l3.293,3.293C11.684,10.098,12.316,10.098,12.707,9.707z" />
			</g>
		</g>
	</symbol>
	<symbol id="tap-01" viewBox="0 0 32 32">
		<title>tap 01</title>
		<g>
			<g class="nc-icon-wrapper">
				<path data-color="color-2" d="M19.74414,13.00049c-0.19727,0-0.39697-0.05811-0.57129-0.17969 c-0.45264-0.31641-0.56396-0.93945-0.24805-1.39258C19.62842,10.42041,20,9.23486,20,8c0-3.30859-2.69141-6-6-6S8,4.69141,8,8 c0,1.23486,0.37158,2.42041,1.0752,3.42822c0.31592,0.45312,0.20459,1.07617-0.24805,1.39258 c-0.45312,0.31689-1.07568,0.20557-1.39258-0.24805C6.49609,11.22754,6,9.646,6,8c0-4.41113,3.58887-8,8-8s8,3.58887,8,8 c0,1.646-0.49609,3.22754-1.43457,4.57275C20.37061,12.85156,20.06006,13.00049,19.74414,13.00049z" />
				<path  d="M24.12762,17.47772L16,16V9c0-1.10455-0.89545-2-2-2s-2,0.89545-2,2v13h-1v-3h-1c-1.10455,0-2,0.89539-2,2 v2.89532c0,1.36243,0.46368,2.68433,1.31482,3.74823L12,31h13l1.55609-10.1145 C26.80316,19.27936,25.7265,17.76843,24.12762,17.47772z" />
			</g>
		</g>
	</symbol>
	<symbol id="zoom-2" viewBox="0 0 24 24">
		<title>zoom 2</title>
		<g>
			<g class="nc-icon-wrapper">
				<path d="M23.061,20.939l-5.733-5.733a9.028,9.028,0,1,0-2.122,2.122l5.733,5.733ZM3,10a7,7,0,1,1,7,7A7.008,7.008,0,0,1,3,10Z"  />
			</g>
		</g>
	</symbol>
	<symbol id="search-1" viewBox="0 0 16 16">
		<title>search 1</title>
		<g>
			<g class="nc-icon-wrapper" >
				<path d="M7.106 12.025c-2.783 0-5.068-2.186-5.068-4.969s2.286-5.068 5.068-5.068 5.068 2.286 5.068 5.068-2.286 4.969-5.068 4.969zm5.565-.795a6.808 6.808 0 0 0 1.391-4.174C14.062 3.18 10.981 0 7.106 0 3.23 0 .05 3.18.05 7.056s3.18 7.056 7.056 7.056c1.59 0 3.081-.497 4.174-1.391l2.981 2.981c.199.199.497.298.695.298.199 0 .497-.099.696-.298a.96.96 0 0 0 0-1.391l-2.981-3.081z"  id="Layer_1" />
			</g>
		</g>
	</symbol>
	<symbol id="single-01" viewBox="0 0 16 16">
		<title>single 01</title>
		<g>
			<g class="nc-icon-wrapper">
				<circle cx="8" cy="4" r="4"  />
				<path data-color="color-2" d="M16,13.2a1.989,1.989,0,0,0-1.163-1.818A16.654,16.654,0,0,0,8,10a16.654,16.654,0,0,0-6.837,1.382A1.989,1.989,0,0,0,0,13.2V16H16Z" />
			</g>
		</g>
	</symbol>
	<symbol id="log-in" viewBox="0 0 16 16">
		<title>log in</title>
		<g>
			<g class="nc-icon-wrapper">
				<polygon data-color="color-2" points="8,12 12,8 8,4 8,7 0,7 0,9 8,9 " />
				<path  d="M15,16H6c-0.6,0-1-0.4-1-1v-3h2v2h7V2H7v2H5V1c0-0.6,0.4-1,1-1h9c0.6,0,1,0.4,1,1v14C16,15.6,15.6,16,15,16z " />
			</g>
		</g>
	</symbol>
	<symbol id="settings-gear-64" viewBox="0 0 16 16">
		<title>settings gear 64</title>
		<g>
			<g class="nc-icon-wrapper">
				<path  d="M13.3,5.2l1.1-2.1l-1.4-1.4l-2.1,1.1c-0.3-0.2-0.7-0.3-1.1-0.4L9,0H7L6.2,2.3C5.9,2.4,5.5,2.5,5.2,2.7 L3.1,1.6L1.6,3.1l1.1,2.1C2.5,5.5,2.4,5.9,2.3,6.2L0,7v2l2.3,0.8c0.1,0.4,0.3,0.7,0.4,1.1l-1.1,2.1l1.4,1.4l2.1-1.1 c0.3,0.2,0.7,0.3,1.1,0.4L7,16h2l0.8-2.3c0.4-0.1,0.7-0.3,1.1-0.4l2.1,1.1l1.4-1.4l-1.1-2.1c0.2-0.3,0.3-0.7,0.4-1.1L16,9V7 l-2.3-0.8C13.6,5.9,13.5,5.5,13.3,5.2z M8,11c-1.7,0-3-1.3-3-3s1.3-3,3-3s3,1.3,3,3S9.7,11,8,11z" />
			</g>
		</g>
	</symbol>
	<symbol id="log-out" viewBox="0 0 16 16">
		<title>log out</title>
		<g>
			<g class="nc-icon-wrapper">
				<polygon data-color="color-2" points="4,4 0,8 4,12 4,9 10,9 10,7 4,7 " />
				<path  d="M15,16H6c-0.6,0-1-0.4-1-1v-3h2v2h7V2H7v2H5V1c0-0.6,0.4-1,1-1h9c0.6,0,1,0.4,1,1v14C16,15.6,15.6,16,15,16z " />
			</g>
		</g>
	</symbol>
	<symbol id="menu-bold" viewBox="0 0 16 16">
		<title>menu bold</title>
		<g>
			<g class="nc-icon-wrapper">
				<rect  width="16" height="3" />
				<rect data-color="color-2" y="6" width="16" height="3" />
				<rect y="12"  width="16" height="3" />
			</g>
		</g>
	</symbol>
	<symbol id="menu-34" viewBox="0 0 16 16">
		<title>menu 34</title>
		<g>
			<g class="nc-icon-wrapper">
				<path data-color="color-2" d="M15,7H1C0.4,7,0,7.4,0,8s0.4,1,1,1h14c0.6,0,1-0.4,1-1S15.6,7,15,7z" />
				<path  d="M15,1H1C0.4,1,0,1.4,0,2s0.4,1,1,1h14c0.6,0,1-0.4,1-1S15.6,1,15,1z" />
				<path  d="M15,13H1c-0.6,0-1,0.4-1,1s0.4,1,1,1h14c0.6,0,1-0.4,1-1S15.6,13,15,13z" />
			</g>
		</g>
	</symbol>
	<symbol id="bullet-list-70" viewBox="0 0 16 16">
		<title>bullet list 70</title>
		<g>
			<g class="nc-icon-wrapper">
				<path  d="M15,0H7C6.4,0,6,0.4,6,1v2c0,0.6,0.4,1,1,1h8c0.6,0,1-0.4,1-1V1C16,0.4,15.6,0,15,0z" />
				<path  d="M15,6H7C6.4,6,6,6.4,6,7v2c0,0.6,0.4,1,1,1h8c0.6,0,1-0.4,1-1V7C16,6.4,15.6,6,15,6z" />
				<path  d="M15,12H7c-0.6,0-1,0.4-1,1v2c0,0.6,0.4,1,1,1h8c0.6,0,1-0.4,1-1v-2C16,12.4,15.6,12,15,12z" />
				<path data-color="color-2" d="M3,0H1C0.4,0,0,0.4,0,1v2c0,0.6,0.4,1,1,1h2c0.6,0,1-0.4,1-1V1C4,0.4,3.6,0,3,0z" />
				<path data-color="color-2" d="M3,6H1C0.4,6,0,6.4,0,7v2c0,0.6,0.4,1,1,1h2c0.6,0,1-0.4,1-1V7C4,6.4,3.6,6,3,6z" />
				<path data-color="color-2" d="M3,12H1c-0.6,0-1,0.4-1,1v2c0,0.6,0.4,1,1,1h2c0.6,0,1-0.4,1-1v-2C4,12.4,3.6,12,3,12z" />
			</g>
		</g>
	</symbol>
	<symbol id="bullet-list-67" viewBox="0 0 16 16">
		<title>bullet list 67</title>
		<g>
			<g class="nc-icon-wrapper">
				<circle data-color="color-2" cx="2" cy="2" r="2" />
				<rect x="6" y="1"  width="10" height="2" />
				<circle data-color="color-2" cx="2" cy="8" r="2" />
				<rect x="6" y="7"  width="10" height="2" />
				<circle data-color="color-2" cx="2" cy="14" r="2" />
				<rect x="6" y="13"  width="10" height="2" />
			</g>
		</g>
	</symbol>
	<symbol id="bullet-list-69" viewBox="0 0 16 16">
		<title>bullet list 69</title>
		<g>
			<g class="nc-icon-wrapper">
				<rect x="6" y="1"  width="10" height="2" />
				<rect x="6" y="7"  width="10" height="2" />
				<rect x="6" y="13"  width="10" height="2" />
				<path data-color="color-2" d="M3,0H1C0.4,0,0,0.4,0,1v2c0,0.6,0.4,1,1,1h2c0.6,0,1-0.4,1-1V1C4,0.4,3.6,0,3,0z" />
				<path data-color="color-2" d="M3,6H1C0.4,6,0,6.4,0,7v2c0,0.6,0.4,1,1,1h2c0.6,0,1-0.4,1-1V7C4,6.4,3.6,6,3,6z" />
				<path data-color="color-2" d="M3,12H1c-0.6,0-1,0.4-1,1v2c0,0.6,0.4,1,1,1h2c0.6,0,1-0.4,1-1v-2C4,12.4,3.6,12,3,12z" />
			</g>
		</g>
	</symbol>
	<symbol id="grid-48" viewBox="0 0 16 16">
		<title>grid 48</title>
		<g>
			<g class="nc-icon-wrapper">
				<rect  width="4" height="4" />
				<rect x="6"  width="4" height="4" />
				<rect x="12"  width="4" height="4" />
				<rect y="6"  width="4" height="4" />
				<rect x="6" y="6"  width="4" height="4" />
				<rect x="12" y="6"  width="4" height="4" />
				<rect y="12"  width="4" height="4" />
				<rect x="6" y="12"  width="4" height="4" />
				<rect x="12" y="12"  width="4" height="4" />
			</g>
		</g>
	</symbol>
	<symbol id="grid-45" viewBox="0 0 16 16">
		<title>grid 45</title>
		<g>
			<g class="nc-icon-wrapper">
				<path  d="M6,0H1C0.4,0,0,0.4,0,1v5c0,0.6,0.4,1,1,1h5c0.6,0,1-0.4,1-1V1C7,0.4,6.6,0,6,0z" />
				<path  d="M15,0h-5C9.4,0,9,0.4,9,1v5c0,0.6,0.4,1,1,1h5c0.6,0,1-0.4,1-1V1C16,0.4,15.6,0,15,0z" />
				<path  d="M6,9H1c-0.6,0-1,0.4-1,1v5c0,0.6,0.4,1,1,1h5c0.6,0,1-0.4,1-1v-5C7,9.4,6.6,9,6,9z" />
				<path  d="M15,9h-5c-0.6,0-1,0.4-1,1v5c0,0.6,0.4,1,1,1h5c0.6,0,1-0.4,1-1v-5C16,9.4,15.6,9,15,9z" />
			</g>
		</g>
	</symbol>
	<symbol id="email-83" viewBox="0 0 16 16">
		<title>email 83</title>
		<g>
			<g class="nc-icon-wrapper">
				<path data-color="color-2" d="M15,1H1C0.4,1,0,1.4,0,2v1.4l8,4.5l8-4.4V2C16,1.4,15.6,1,15,1z" />
				<path  d="M7.5,9.9L0,5.7V14c0,0.6,0.4,1,1,1h14c0.6,0,1-0.4,1-1V5.7L8.5,9.9C8.22,10.04,7.78,10.04,7.5,9.9z" />
			</g>
		</g>
	</symbol>
	<symbol id="phone-call" viewBox="0 0 16 16">
		<title>phone call</title>
		<g>
			<g class="nc-icon-wrapper">
				<path  d="M15.285,12.305l-2.578-2.594c-0.39-0.393-1.025-0.393-1.416-0.002L9,12L4,7l2.294-2.294 c0.39-0.39,0.391-1.023,0.001-1.414l-2.58-2.584C3.324,0.317,2.691,0.317,2.3,0.708L0.004,3.003L0,3c0,7.18,5.82,13,13,13 l2.283-2.283C15.673,13.327,15.674,12.696,15.285,12.305z" />
				<path data-color="color-2" d="M16,8h-2c0-3.309-2.691-6-6-6V0C12.411,0,16,3.589,16,8z" />
				<path data-color="color-2" d="M12,8h-2c0-1.103-0.897-2-2-2V4C10.206,4,12,5.794,12,8z" />
			</g>
		</g>
	</symbol>
	<symbol id="phone-2" viewBox="0 0 16 16">
		<title>phone 2</title>
		<g>
			<g class="nc-icon-wrapper">
				<path  d="M15.285,12.305l-2.578-2.594c-0.39-0.393-1.025-0.393-1.416-0.002L9,12L4,7l2.294-2.294 c0.39-0.39,0.391-1.023,0.001-1.414l-2.58-2.584C3.324,0.317,2.691,0.317,2.3,0.708L0.004,3.003L0,3c0,7.18,5.82,13,13,13 l2.283-2.283C15.673,13.327,15.674,12.696,15.285,12.305z" />
			</g>
		</g>
	</symbol>
	<symbol id="share-26" viewBox="0 0 16 16">
		<title>share 26</title>
		<g>
			<g class="nc-icon-wrapper">
				<path data-color="color-2" d="M15,0H8v2h4.6L6.3,8.3l1.4,1.4L14,3.4V8h2V1C16,0.4,15.6,0,15,0z" />
				<path  d="M14,16H1c-0.6,0-1-0.4-1-1V2c0-0.6,0.4-1,1-1h4v2H2v11h11v-3h2v4C15,15.6,14.6,16,14,16z" />
			</g>
		</g>
	</symbol>
	<symbol id="share-2" viewBox="0 0 16 16">
		<title>share 2</title>
		<g>
			<g class="nc-icon-wrapper">
				<path  d="M12,6c1.654,0,3-1.346,3-3s-1.346-3-3-3S9,1.346,9,3c0,0.223,0.029,0.439,0.075,0.649l-3.22,2.012 C5.343,5.254,4.704,5,4,5C2.346,5,1,6.346,1,8s1.346,3,3,3c0.704,0,1.343-0.254,1.855-0.661l3.22,2.012C9.029,12.561,9,12.777,9,13 c0,1.654,1.346,3,3,3s3-1.346,3-3s-1.346-3-3-3c-0.704,0-1.343,0.254-1.855,0.661l-3.22-2.012C6.971,8.439,7,8.223,7,8 S6.971,7.561,6.925,7.351l3.22-2.012C10.657,5.746,11.296,6,12,6z" />
			</g>
		</g>
	</symbol>
	<symbol id="link-72" viewBox="0 0 16 16">
		<title>link 72</title>
		<g>
			<g class="nc-icon-wrapper">
				<path data-color="color-2" d="M4.5,16c-1.2,0-2.3-0.5-3.2-1.3c-1.8-1.8-1.8-4.6,0-6.4L2,7.6L3.4,9L2.7,9.7 c-1,1-1,2.6,0,3.6c1,1,2.6,1,3.6,0l3-3c1-1,1-2.6,0-3.6L8.6,6L10,4.6l0.7,0.7c1.8,1.8,1.8,4.6,0,6.4l-3,3C6.9,15.5,5.7,16,4.5,16z" />
				<path  d="M6,11.4l-0.7-0.7c-1.8-1.8-1.8-4.6,0-6.4l3-3c0.9-0.9,2-1.3,3.2-1.3s2.3,0.5,3.2,1.3c1.8,1.8,1.8,4.6,0,6.4 L14,8.4L12.6,7l0.7-0.7c1-1,1-2.6,0-3.6c-1-1-2.6-1-3.6,0l-3,3c-1,1-1,2.6,0,3.6L7.4,10L6,11.4z" />
			</g>
		</g>
	</symbol>
	<symbol id="share-92" viewBox="0 0 16 16">
		<title>share 92</title>
		<g>
			<g class="nc-icon-wrapper">
				<path  d="M15,16H1c-0.6,0-1-0.4-1-1V9h2v5h12V4h-2V2h3c0.6,0,1,0.4,1,1v12C16,15.6,15.6,16,15,16z" />
				<path data-color="color-2" d="M6,3c3.2,0,6,2.5,6,7c-1.1-1.7-2.4-3-6-3v3L0,5l6-5V3z" />
			</g>
		</g>
	</symbol>
	<symbol id="share-91" viewBox="0 0 16 16">
		<title>share 91</title>
		<g>
			<g class="nc-icon-wrapper">
				<path  d="M15,16H1c-0.6,0-1-0.4-1-1V3c0-0.6,0.4-1,1-1h3v2H2v10h12V9h2v6C16,15.6,15.6,16,15,16z" />
				<path data-color="color-2" d="M10,3c-3.2,0-6,2.5-6,7c1.1-1.7,2.4-3,6-3v3l6-5l-6-5V3z" />
			</g>
		</g>
	</symbol>
	<symbol id="curved-previous" viewBox="0 0 16 16">
		<title>curved previous</title>
		<g>
			<g class="nc-icon-wrapper">
				<path  d="M8,5c5.2,0,8,3.8,8,10c-1.5-2.4-2.7-4-8-4v4L0,8l8-7V5z" />
			</g>
		</g>
	</symbol>
	<symbol id="curved-next" viewBox="0 0 16 16">
		<title>curved next</title>
		<g>
			<g class="nc-icon-wrapper">
				<path  d="M8,5C2.8,5,0,8.8,0,15c1.5-2.4,2.7-4,8-4v4l8-7L8,1V5z" />
			</g>
		</g>
	</symbol>
	<symbol id="refresh-01" viewBox="0 0 16 16">
		<title>refresh 01</title>
		<g>
			<g class="nc-icon-wrapper">
				<path  d="M15.094,7.031L14.555,0.82l-1.93,1.93C11.353,1.632,9.71,1,8,1C4.14,1,1,4.14,1,8s3.14,7,7,7 c2.491,0,4.814-1.341,6.063-3.499L12.332,10.5C11.439,12.042,9.779,13,8,13c-2.757,0-5-2.243-5-5s2.243-5,5-5 c1.179,0,2.311,0.423,3.205,1.17L8.883,6.492L15.094,7.031z" /> </g>
			</g>
		</symbol>
		<symbol id="refresh-02" viewBox="0 0 16 16">
			<title>refresh 02</title>
			<g>
				<g class="nc-icon-wrapper">
					<path  d="M8,3c1.179,0,2.311,0.423,3.205,1.17L8.883,6.492l6.211,0.539L14.555,0.82l-1.93,1.93 C11.353,1.632,9.71,1,8,1C4.567,1,1.664,3.454,1.097,6.834l1.973,0.331C3.474,4.752,5.548,3,8,3z" />
					<path d="M8,13c-1.179,0-2.311-0.423-3.205-1.17l2.322-2.322L0.906,8.969l0.539,6.211l1.93-1.93 C4.647,14.368,6.29,15,8,15c3.433,0,6.336-2.454,6.903-5.834l-1.973-0.331C12.526,11.248,10.452,13,8,13z" data-color="color-2" /> </g>
				</g>
			</symbol>
			<symbol id="bell-53" viewBox="0 0 16 16">
				<title>bell 53</title>
				<g>
					<g class="nc-icon-wrapper">
						<path data-color="color-2" d="M10,14H6c0,1.1,0.9,2,2,2S10,15.1,10,14z" />
						<path  d="M15,11h-0.5C13.8,10.3,13,9.3,13,8V5c0-2.8-2.2-5-5-5S3,2.2,3,5v3c0,1.3-0.8,2.3-1.5,3H1c-0.6,0-1,0.4-1,1 s0.4,1,1,1h14c0.6,0,1-0.4,1-1S15.6,11,15,11z" />
					</g>
				</g>
			</symbol>
			<symbol id="alarm-delete" viewBox="0 0 16 16">
				<title>alarm delete</title>
				<g>
					<g class="nc-icon-wrapper">
						<path d="M10,14H6a2,2,0,0,0,4,0Z"  />
						<path d="M15.1,12.98A.992.992,0,0,0,15,11h-.5A4.04,4.04,0,0,1,13,8V5A4.983,4.983,0,0,0,4.067,1.946Z"  />
						<path d="M3,5.121V8a4.04,4.04,0,0,1-1.5,3H1a1,1,0,0,0,0,2h9.879Z"  />
						<path d="M15,15.5a.5.5,0,0,1-.354-.146l-14-14A.5.5,0,0,1,1.354.646l14,14A.5.5,0,0,1,15,15.5Z" data-color="color-2" /> </g>
					</g>
				</symbol>
				<symbol id="like-2" viewBox="0 0 16 16">
					<title>like 2</title>
					<g>
						<g class="nc-icon-wrapper">
							<path  d="M13.3,6H9V2c0-1.5-0.8-2-2-2C6.7,0,6.4,0.2,6.4,0.5C6.4,0.5,4.1,8,4,8v8h8.6c1.3,0,2.4-1,2.6-2.3L16,9.1 c0.1-0.8-0.1-1.6-0.6-2.1C14.9,6.3,14.1,6,13.3,6z" />
							<rect data-color="color-2" y="8" width="2" height="8" />
						</g>
					</g>
				</symbol>
				<symbol id="favourite-28" viewBox="0 0 16 16">
					<title>favourite 28</title>
					<g>
						<g class="nc-icon-wrapper">
							<path  d="M11.6,0C10.1,0,8.8,0.8,8,2C7.2,0.8,5.9,0,4.4,0C2,0,0,2,0,4.4c0,4.4,8,10.9,8,10.9s8-6.5,8-10.9 C16,2,14,0,11.6,0z" />
						</g>
					</g>
				</symbol>
				<symbol id="tag" viewBox="0 0 16 16">
					<title>tag</title>
					<g>
						<g class="nc-icon-wrapper">
							<path  d="M15.7,8.3l-8-8C7.5,0.1,7.3,0,7,0H1C0.4,0,0,0.4,0,1v6c0,0.3,0.1,0.5,0.3,0.7l8,8C8.5,15.9,8.7,16,9,16 s0.5-0.1,0.7-0.3l6-6C16.1,9.3,16.1,8.7,15.7,8.3z M4,5C3.4,5,3,4.6,3,4s0.4-1,1-1c0.6,0,1,0.4,1,1S4.6,5,4,5z" />
						</g>
					</g>
				</symbol>
				<symbol id="print" viewBox="0 0 16 16">
					<title>print</title>
					<g>
						<g class="nc-icon-wrapper">
							<rect data-color="color-2" x="3" width="10" height="3" />
							<path  d="M15,5H1C0.4,5,0,5.4,0,6v6c0,0.6,0.4,1,1,1h2v2c0,0.6,0.4,1,1,1h8c0.6,0,1-0.4,1-1v-2h2c0.6,0,1-0.4,1-1V6 C16,5.4,15.6,5,15,5z M11,14H5V9h6V14z" />
						</g>
					</g>
				</symbol>
				<symbol id="logo-rss" viewBox="0 0 16 16">
					<title>logo rss</title>
					<g>
						<g class="nc-icon-wrapper">
							<circle  cx="3" cy="13" r="2" />
							<path  d="M15,15h-2.7C12.3,8.8,7.2,3.7,1,3.7V1C8.7,1,15,7.3,15,15z" />
							<path data-color="color-2" d="M10.3,15H7.7c0-3.7-3-6.7-6.7-6.7V5.7C6.1,5.7,10.3,9.9,10.3,15z" />
						</g>
					</g>
				</symbol>
				<symbol id="bookmark-2" viewBox="0 0 16 16">
					<title>bookmark 2</title>
					<g>
						<g class="nc-icon-wrapper">
							<path  d="M4,0C2.9,0,2,0.9,2,2v14l6-3l6,3V2c0-1.1-0.9-2-2-2H4z" />
						</g>
					</g>
				</symbol>
				<symbol id="filter-check" viewBox="0 0 16 16">
					<title>filter check</title>
					<g>
						<g class="nc-icon-wrapper">
							<path  d="M15,3H1C0.448,3,0,2.552,0,2v0c0-0.552,0.448-1,1-1h14c0.552,0,1,0.448,1,1v0C16,2.552,15.552,3,15,3z" />
							<path  d="M15,7H1C0.448,7,0,6.552,0,6v0c0-0.552,0.448-1,1-1h14c0.552,0,1,0.448,1,1v0C16,6.552,15.552,7,15,7z" />
							<path  d="M5,11H1c-0.553,0-1-0.447-1-1s0.447-1,1-1h4c0.553,0,1,0.447,1,1S5.553,11,5,11z" />
							<path  d="M5,15H1c-0.553,0-1-0.447-1-1s0.447-1,1-1h4c0.553,0,1,0.447,1,1S5.553,15,5,15z" />
							<path data-color="color-2" d="M11,15c-0.256,0-0.512-0.098-0.707-0.293l-2-2c-0.391-0.391-0.391-1.023,0-1.414 s1.023-0.391,1.414,0L11,12.586l3.293-3.293c0.391-0.391,1.023-0.391,1.414,0s0.391,1.023,0,1.414l-4,4 C11.512,14.902,11.256,15,11,15z" />
						</g>
					</g>
				</symbol>
				<symbol id="check-double" viewBox="0 0 16 16">
					<title>check double</title>
					<g>
						<g class="nc-icon-wrapper">
							<path d="M15.555,2.168a1,1,0,0,0-1.387.277L8.845,10.431l-.837-.837-1.131,1.7,1.416,1.416A1,1,0,0,0,9,13c.033,0,.065,0,.1-.005a1,1,0,0,0,.733-.44l6-9A1,1,0,0,0,15.555,2.168Z" data-color="color-2" />
							<path d="M4,13a1,1,0,0,1-.707-.293l-3-3A1,1,0,1,1,1.707,8.293l2.138,2.138L9.168,2.445a1,1,0,0,1,1.664,1.11l-6,9A1,1,0,0,1,4.1,13C4.065,13,4.033,13,4,13Z"  />
						</g>
					</g>
				</symbol>
				<symbol id="shape-star" viewBox="0 0 16 16">
					<title>shape star</title>
					<g>
						<g class="nc-icon-wrapper">
							<path d="M15.144,5.439l-4.317-.628L8.9.9A1.041,1.041,0,0,0,7.1.9L5.173,4.812.856,5.439A1,1,0,0,0,.3,7.145l3.123,3.045-.737,4.3a1,1,0,0,0,1.451,1.054L8,13.513l3.861,2.029a1,1,0,0,0,1.451-1.054l-.737-4.3L15.7,7.145a1,1,0,0,0-.554-1.705Z"  />
						</g>
					</g>
				</symbol>
				<symbol id="star-half" viewBox="0 0 16 16">
					<title>star half</title>
					<g>
						<g class="nc-icon-wrapper">
							<path  d="M8,0.365c-0.364,0-0.728,0.171-0.897,0.512l-1.93,3.911L0.856,5.415C0.039,5.534-0.292,6.541,0.302,7.121 l3.124,3.044l-0.737,4.299c-0.139,0.814,0.717,1.439,1.451,1.054L8,13.489V0.365z" />
						</g>
					</g>
				</symbol>
				<symbol id="funnel-40" viewBox="0 0 16 16">
					<title>funnel 40</title>
					<g>
						<g class="nc-icon-wrapper">
							<path  d="M15.895,0.553C15.725,0.214,15.379,0,15,0H1C0.621,0,0.275,0.214,0.105,0.553 C-0.063,0.892-0.027,1.297,0.2,1.6L6,9.333V15c0,0.553,0.447,1,1,1h2c0.553,0,1-0.447,1-1V9.333L15.8,1.6 C16.027,1.297,16.063,0.892,15.895,0.553z" />
						</g>
					</g>
				</symbol>
				<symbol id="zoom" viewBox="0 0 16 16">
					<title>zoom</title>
					<g>
						<g class="nc-icon-wrapper">
							<polygon  points="5.6,2 14,10.4 14,2 " />
							<polygon  points="2,14 10.4,14 2,5.6 " />
						</g>
					</g>
				</symbol>
				<symbol id="fullscreen-double-74" viewBox="0 0 16 16">
					<title>fullscreen double 74</title>
					<g>
						<g class="nc-icon-wrapper">
							<polygon  points="9,2 12.6,2 8.6,6 10,7.4 14,3.4 14,7 16,7 16,0 9,0 " />
							<polygon data-color="color-2" points="6,8.6 2,12.6 2,9 0,9 0,16 7,16 7,14 3.4,14 7.4,10 " />
						</g>
					</g>
				</symbol>
				<symbol id="zoom-88" viewBox="0 0 16 16">
					<title>zoom 88</title>
					<g>
						<g class="nc-icon-wrapper">
							<rect data-color="color-2" x="5" y="5" width="6" height="6" />
							<path  d="M2,6H0V1c0-0.6,0.4-1,1-1h5v2H2V6z" />
							<path  d="M16,6h-2V2h-4V0h5c0.6,0,1,0.4,1,1V6z" />
							<path  d="M15,16h-5v-2h4v-4h2v5C16,15.6,15.6,16,15,16z" />
							<path  d="M6,16H1c-0.6,0-1-0.4-1-1v-5h2v4h4V16z" />
						</g>
					</g>
				</symbol>
				<symbol id="slider" viewBox="0 0 16 16">
					<title>slider</title>
					<g>
						<g class="nc-icon-wrapper">
							<path  d="M15,10H1c-0.552,0-1-0.448-1-1V1c0-0.552,0.448-1,1-1h14c0.552,0,1,0.448,1,1v8C16,9.552,15.552,10,15,10z" />
							<circle data-color="color-2" cx="8" cy="14" r="2" />
							<circle  cx="3" cy="14" r="1" />
							<circle  cx="13" cy="14" r="1" />
						</g>
					</g>
				</symbol>
				<symbol id="pin-3" viewBox="0 0 24 24">
					<title>pin 3</title>
					<g>
						<g class="nc-icon-wrapper">
							<path  d="M12,0C7.6,0,3,3.4,3,9c0,5.3,8,13.4,8.3,13.7c0.2,0.2,0.4,0.3,0.7,0.3s0.5-0.1,0.7-0.3C13,22.4,21,14.3,21,9 C21,3.4,16.4,0,12,0z M12,12c-1.7,0-3-1.3-3-3s1.3-3,3-3s3,1.3,3,3S13.7,12,12,12z" />
						</g>
					</g>
				</symbol>
				<symbol id="time-3" viewBox="0 0 16 16">
					<title>time 3</title>
					<g>
						<g class="nc-icon-wrapper">
							<path  d="M8,0C3.6,0,0,3.6,0,8s3.6,8,8,8s8-3.6,8-8S12.4,0,8,0z M12,9H7V4h2v3h3V9z" />
						</g>
					</g>
				</symbol>
				<symbol id="-stopwatch" viewBox="0 0 16 16">
					<title> stopwatch</title>
					<g>
						<g class="nc-icon-wrapper">
							<path  d="M12.7,0.3c-0.4-0.4-1-0.4-1.4,0s-0.4,1,0,1.4l0.8,0.8l-0.9,0.9C10,2.5,8.6,2,7,2C3.1,2,0,5.1,0,9s3.1,7,7,7 s7-3.1,7-7c0-1.6-0.5-3-1.4-4.2l0.9-0.9l0.8,0.8C14.5,4.9,14.7,5,15,5s0.5-0.1,0.7-0.3c0.4-0.4,0.4-1,0-1.4L12.7,0.3z M7,14 c-2.8,0-5-2.2-5-5s2.2-5,5-5s5,2.2,5,5S9.8,14,7,14z" />
							<polygon data-color="color-2" points="8,6 6,6 6,10 10,10 10,8 8,8 " />
						</g>
					</g>
				</symbol>
				<symbol id="calendar-grid-61" viewBox="0 0 16 16">
					<title>calendar grid 61</title>
					<g>
						<g class="nc-icon-wrapper">
							<path  d="M15,2h-2V0h-3v2H6V0H3v2H1C0.448,2,0,2.448,0,3v12c0,0.552,0.448,1,1,1h14c0.552,0,1-0.448,1-1V3 C16,2.448,15.552,2,15,2z M14,14H2V5h12V14z" />
							<rect data-color="color-2" x="4" y="7" width="2" height="2" />
							<rect data-color="color-2" x="7" y="7" width="2" height="2" />
							<rect data-color="color-2" x="4" y="10" width="2" height="2" />
							<rect data-color="color-2" x="7" y="10" width="2" height="2" />
							<rect data-color="color-2" x="10" y="7" width="2" height="2" />
							<rect data-color="color-2" x="10" y="10" width="2" height="2" /> </g>
						</g>
					</symbol>
					<symbol id="bag-49" viewBox="0 0 16 16">
						<title>bag 49</title>
						<g>
							<g class="nc-icon-wrapper">
								<path  d="M15,4h-3V1c0-0.6-0.4-1-1-1H5C4.4,0,4,0.4,4,1v3H1C0.4,4,0,4.4,0,5v10c0,0.6,0.4,1,1,1h14c0.6,0,1-0.4,1-1V5 C16,4.4,15.6,4,15,4z M6,2h4v2H6V2z M11,11H9v2H7v-2H5V9h2V7h2v2h2V11z" />
							</g>
						</g>
					</symbol>
					<symbol id="menu-dots" viewBox="0 0 16 16">
						<title>menu dots</title>
						<g>
							<g class="nc-icon-wrapper">
								<circle data-color="color-2" cx="8" cy="8" r="2" />
								<circle  cx="2" cy="8" r="2" />
								<circle  cx="14" cy="8" r="2" />
							</g>
						</g>
					</symbol>
					<symbol id="alert-circle-i" viewBox="0 0 16 16">
						<title>alert circle i</title>
						<g>
							<g class="nc-icon-wrapper">
								<path  d="M8,0C3.6,0,0,3.6,0,8s3.6,8,8,8s8-3.6,8-8S12.4,0,8,0z M9,12H7V7h2V12z M8,6C7.4,6,7,5.6,7,5s0.4-1,1-1 s1,0.4,1,1S8.6,6,8,6z" />
							</g>
						</g>
					</symbol>
					<symbol id="round-e-info" viewBox="0 0 16 16">
						<title>round e info</title>
						<g>
							<g class="nc-icon-wrapper">
								<path  d="M8,0C3.6,0,0,3.6,0,8s3.6,8,8,8s8-3.6,8-8S12.4,0,8,0z M8,14c-3.3,0-6-2.7-6-6s2.7-6,6-6s6,2.7,6,6 S11.3,14,8,14z" />
								<rect data-color="color-2" x="7" y="7" width="2" height="5" />
								<circle data-color="color-2" cx="8" cy="5" r="1" />
							</g>
						</g>
					</symbol>
					<symbol id="alert" viewBox="0 0 16 16">
						<title>alert</title>
						<g>
							<g class="nc-icon-wrapper">
								<path  d="M15.216,13.529L8.882,1.654c-0.376-0.706-1.388-0.706-1.765,0L0.784,13.529C0.429,14.195,0.912,15,1.667,15 h12.667C15.088,15,15.571,14.195,15.216,13.529z M8,13c-0.552,0-1-0.448-1-1c0-0.552,0.448-1,1-1s1,0.448,1,1 C9,12.552,8.552,13,8,13z M9,10H7V6h2V10z" />
							</g>
						</g>
					</symbol>
					<symbol id="square-download" viewBox="0 0 16 16">
						<title>square download</title>
						<g>
							<g class="nc-icon-wrapper">
								<path  d="M8,12c0.3,0,0.5-0.1,0.7-0.3L14.4,6L13,4.6l-4,4V0H7v8.6l-4-4L1.6,6l5.7,5.7C7.5,11.9,7.7,12,8,12z" />
								<path data-color="color-2" d="M14,14H2v-3H0v4c0,0.6,0.4,1,1,1h14c0.6,0,1-0.4,1-1v-4h-2V14z" />
							</g>
						</g>
					</symbol>
					<symbol id="square-upload" viewBox="0 0 16 16">
						<title>square upload</title>
						<g>
							<g class="nc-icon-wrapper">
								<path  d="M7,3.4V12h2V3.4l4,4L14.4,6L8.7,0.3c-0.4-0.4-1-0.4-1.4,0L1.6,6L3,7.4L7,3.4z" />
								<path data-color="color-2" d="M14,14H2v-3H0v4c0,0.6,0.4,1,1,1h14c0.6,0,1-0.4,1-1v-4h-2V14z" />
							</g>
						</g>
					</symbol>
					<symbol id="simple-remove" viewBox="0 0 16 16">
						<title>simple remove</title>
						<g>
							<g class="nc-icon-wrapper">
								<path  d="M14.7,1.3c-0.4-0.4-1-0.4-1.4,0L8,6.6L2.7,1.3c-0.4-0.4-1-0.4-1.4,0s-0.4,1,0,1.4L6.6,8l-5.3,5.3 c-0.4,0.4-0.4,1,0,1.4C1.5,14.9,1.7,15,2,15s0.5-0.1,0.7-0.3L8,9.4l5.3,5.3c0.2,0.2,0.5,0.3,0.7,0.3s0.5-0.1,0.7-0.3 c0.4-0.4,0.4-1,0-1.4L9.4,8l5.3-5.3C15.1,2.3,15.1,1.7,14.7,1.3z" />
							</g>
						</g>
					</symbol>
					<symbol id="square-remove-12" viewBox="0 0 16 16">
						<title>square remove 12</title>
						<g>
							<g class="nc-icon-wrapper">
								<polygon data-color="color-2" points="5.9,11.5 8,9.4 10.1,11.5 11.5,10.1 9.4,8 11.5,5.9 10.1,4.5 8,6.6 5.9,4.5 4.5,5.9 6.6,8 4.5,10.1 " />
								<path  d="M15,0H1C0.4,0,0,0.4,0,1v14c0,0.6,0.4,1,1,1h14c0.6,0,1-0.4,1-1V1C16,0.4,15.6,0,15,0z M14,14H2V2h12V14z" />
							</g>
						</g>
					</symbol>
					<symbol id="circle-bold-remove" viewBox="0 0 16 16">
						<title>circle bold remove</title>
						<g>
							<g class="nc-icon-wrapper">
								<polygon data-color="color-2" points="10.1,4.5 8,6.6 5.9,4.5 4.5,5.9 6.6,8 4.5,10.1 5.9,11.5 8,9.4 10.1,11.5 11.5,10.1 9.4,8 11.5,5.9 " />
								<path  d="M8,0C3.6,0,0,3.6,0,8s3.6,8,8,8s8-3.6,8-8S12.4,0,8,0z M8,14c-3.3,0-6-2.7-6-6s2.7-6,6-6s6,2.7,6,6 S11.3,14,8,14z" />
							</g>
						</g>
					</symbol>
					<symbol id="simple-add" viewBox="0 0 16 16">
						<title>simple add</title>
						<g>
							<g class="nc-icon-wrapper">
								<path  d="M15,7H9V1c0-0.6-0.4-1-1-1S7,0.4,7,1v6H1C0.4,7,0,7.4,0,8s0.4,1,1,1h6v6c0,0.6,0.4,1,1,1s1-0.4,1-1V9h6 c0.6,0,1-0.4,1-1S15.6,7,15,7z" />
							</g>
						</g>
					</symbol>
					<symbol id="square-add-11" viewBox="0 0 16 16">
						<title>square add 11</title>
						<g>
							<g class="nc-icon-wrapper">
								<polygon data-color="color-2" points="7,12 9,12 9,9 12,9 12,7 9,7 9,4 7,4 7,7 4,7 4,9 7,9 " />
								<path  d="M15,0H1C0.4,0,0,0.4,0,1v14c0,0.6,0.4,1,1,1h14c0.6,0,1-0.4,1-1V1C16,0.4,15.6,0,15,0z M14,14H2V2h12V14z" />
							</g>
						</g>
					</symbol>
					<symbol id="circle-bold-add" viewBox="0 0 16 16">
						<title>circle bold add</title>
						<g>
							<g class="nc-icon-wrapper">
								<polygon data-color="color-2" points="9,4 7,4 7,7 4,7 4,9 7,9 7,12 9,12 9,9 12,9 12,7 9,7 " />
								<path  d="M8,0C3.6,0,0,3.6,0,8s3.6,8,8,8s8-3.6,8-8S12.4,0,8,0z M8,14c-3.3,0-6-2.7-6-6s2.7-6,6-6s6,2.7,6,6 S11.3,14,8,14z" />
							</g>
						</g>
					</symbol>
					<symbol id="check-simple" viewBox="0 0 16 16">
						<title>check simple</title>
						<g>
							<g class="nc-icon-wrapper">
								<polygon  points="5.6,9.6 2.4,6.4 0,8.8 5.6,14.4 16,4 13.6,1.6 " />
							</g>
						</g>
					</symbol>
					<symbol id="check-bold" viewBox="0 0 16 16">
						<title>check bold</title>
						<g>
							<g class="nc-icon-wrapper">
								<polygon  points="5.6,8.4 1.6,6 0,7.6 5.6,14 16,3.6 14.4,2 " />
							</g>
						</g>
					</symbol>
					<symbol id="check-square-09" viewBox="0 0 16 16">
						<title>check square 09</title>
						<g>
							<g class="nc-icon-wrapper">
								<path  d="M14,0H2C0.9,0,0,0.9,0,2v12c0,1.1,0.9,2,2,2h12c1.1,0,2-0.9,2-2V2C16,0.9,15.1,0,14,0z M7,11.4L3.6,8L5,6.6 l2,2l4-4L12.4,6L7,11.4z" />
							</g>
						</g>
					</symbol>
					<symbol id="check-circle-08" viewBox="0 0 16 16">
						<title>check circle 08</title>
						<g>
							<g class="nc-icon-wrapper">
								<path  d="M8,0C3.6,0,0,3.6,0,8s3.6,8,8,8s8-3.6,8-8S12.4,0,8,0z M7,11.4L3.6,8L5,6.6l2,2l4-4L12.4,6L7,11.4z" />
							</g>
						</g>
					</symbol>
					<symbol id="tv-2" viewBox="0 0 16 16">
						<title>tv 2</title>
						<g>
							<g class="nc-icon-wrapper">
								<path  d="M15,0H1C0.4,0,0,0.4,0,1v11c0,0.6,0.4,1,1,1h6v1H3v2h10v-2H9v-1h6c0.6,0,1-0.4,1-1V1C16,0.4,15.6,0,15,0z M14,11H2V2h12V11z" />
							</g>
						</g>
					</symbol>
					<symbol id="mobile-button" viewBox="0 0 16 16">
						<title>mobile button</title>
						<g>
							<g class="nc-icon-wrapper">
								<path  d="M12,0H4C2.897,0,2,0.897,2,2v12c0,1.103,0.897,2,2,2h8c1.103,0,2-0.897,2-2V2C14,0.897,13.103,0,12,0z M8,14 c-0.552,0-1-0.448-1-1s0.448-1,1-1s1,0.448,1,1S8.552,14,8,14z M12,10H4V2h8V10z" />
							</g>
						</g>
					</symbol>
					<symbol id="lock" viewBox="0 0 16 16">
						<title>lock</title>
						<g>
							<g class="nc-icon-wrapper">
								<path  d="M8,0C5.8,0,4,1.8,4,4v1H2C1.4,5,1,5.4,1,6v9c0,0.6,0.4,1,1,1h12c0.6,0,1-0.4,1-1V6c0-0.6-0.4-1-1-1h-2V4 C12,1.8,10.2,0,8,0z M9,11.7V13H7v-1.3c-0.6-0.3-1-1-1-1.7c0-1.1,0.9-2,2-2s2,0.9,2,2C10,10.7,9.6,11.4,9,11.7z M10,5H6V4 c0-1.1,0.9-2,2-2s2,0.9,2,2V5z" />
							</g>
						</g>
					</symbol>
					<symbol id="lock-open" viewBox="0 0 16 16">
						<title>lock open</title>
						<g>
							<g class="nc-icon-wrapper">
								<path  d="M1,15c0,0.6,0.4,1,1,1h12c0.6,0,1-0.4,1-1V6c0-0.6-0.4-1-1-1h-2H6V4c0-1.1,0.9-2,2-2c0.6,0,1.1,0.2,1.5,0.7 l0.7,0.7l1.5-1.3L11,1.3C10.2,0.5,9.1,0,8,0C5.8,0,4,1.8,4,4v1H2C1.4,5,1,5.4,1,6V15z M8,8c1.1,0,2,0.9,2,2c0,0.7-0.4,1.4-1,1.7V13 H7v-1.3c-0.6-0.3-1-1-1-1.7C6,8.9,6.9,8,8,8z" />
							</g>
						</g>
					</symbol>

					<symbol id="advertising-1" viewBox="0 0 16 16">
						<title>advertising 1</title>
						<g>
							<g class="nc-icon-wrapper" >
								<g id="Layer_1">
									<path d="M1 0H0v1c0-.6.4-1 1-1z" fill="none" />
									<path d="M15 16h1v-1c0 .6-.4 1-1 1z" fill="none" />
									<path d="M0 15v1h1c-.6 0-1-.4-1-1z" fill="none" />
									<path d="M15 0c.6 0 1 .4 1 1V0h-1z" fill="none" />
									<path  d="M3.313 5.75h3.281V4.438H3.313v.656z" />
									<path  d="M10.062 7.719v1.969H12.688V6.406H10.062v.656z" />
									<path d="M15 0H1C.4 0 0 .4 0 1v14c0 .6.4 1 1 1h14c.6 0 1-.4 1-1V1c0-.6-.4-1-1-1zM2 10.344V4.438h1.312V3.125H6.592v1.312h1.314V11H6.594V7.062H3.313V11H2v-.656zM14 14H2v-1h12v1zm0-10.219V11H8.75V6.406h1.312V5.094h2.624V3.125H14v.656z"  />
								</g>
							</g>
						</g>
					</symbol>
					<symbol id="ns-camera" viewBox="0 0 32 32">
						<title>ns camera</title>
						<g>
							<g class="nc-icon-wrapper" >
								<path d="M27.253 6.273h-2.54l-1.602-1.602c-.93-.92-2.554-1.592-3.858-1.592h-6.408c-1.304 0-2.928.672-3.858 1.592L7.385 6.273h-2.54c-2.64 0-4.796 2.156-4.796 4.806v12.796a4.802 4.802 0 0 0 4.796 4.796h22.408a4.802 4.802 0 0 0 4.796-4.796V11.079c0-2.65-2.156-4.806-4.796-4.806zm-11.204 16a5.602 5.602 0 0 1-5.602-5.602c0-3.092 2.508-5.592 5.602-5.592s5.602 2.5 5.602 5.592a5.602 5.602 0 0 1-5.602 5.602zm9.602-7.522a2.073 2.073 0 0 1-2.078-2.08 2.078 2.078 0 1 1 4.156 0c0 1.158-.93 2.08-2.078 2.08zm0 0"  id="Layer_1" />
							</g>
						</g>
					</symbol>
					<symbol id="ns-video" viewBox="0 0 32 32">
						<title>ns video</title>
						<g>
							<g class="nc-icon-wrapper" >
								<path d="M31.507 8.045a1.144 1.144 0 0 0-1.112-.05l-6.352 3.745V7.304a3.43 3.43 0 0 0-3.429-3.429H3.478A3.43 3.43 0 0 0 .049 7.304v17.143a3.429 3.429 0 0 0 3.429 3.428h17.137a3.43 3.43 0 0 0 3.429-3.428V20.01l6.352 3.751a1.143 1.143 0 0 0 1.654-1.029V9.018a1.148 1.148 0 0 0-.543-.973zM12.052 21.472A5.602 5.602 0 0 1 6.45 15.87a5.595 5.595 0 0 1 5.602-5.592c3.094 0 5.602 2.5 5.602 5.592a5.603 5.603 0 0 1-5.602 5.602zm7.909-11.439a2.073 2.073 0 0 1-2.078-2.08 2.078 2.078 0 1 1 4.156 0 2.072 2.072 0 0 1-2.078 2.08z"  id="Layer_1" />
							</g>
						</g>
					</symbol>
					<symbol id="ns-comment" viewBox="0 0 32 32">
						<title>ns comment</title>
						<g>
							<g class="nc-icon-wrapper" fill="">
								<path d="M16 0C7.198 0 0 6 0 13.4c0 3.666 1.798 7 4.666 9.466V32l7.4-5.6c1.266.266 2.6.399 3.934.399 8.864 0 16-6 16-13.399C32 6 24.864 0 16 0m7.896 11.97l-3.11 3.582.412 4.752a.583.583 0 0 1-.854.568l-4.346-1.844-4.395 1.859a.577.577 0 0 1-.762-.304.568.568 0 0 1-.046-.282l.412-4.754-3.121-3.597a.58.58 0 0 1 .064-.822.549.549 0 0 1 .244-.126l4.644-1.074 2.458-4.084a.585.585 0 0 1 1.004 0l2.452 4.078 4.649 1.09a.583.583 0 0 1 .438.688.554.554 0 0 1-.143.27" fill="" id="Layer_1" />
							</g>
						</g>
					</symbol>
					<symbol id="ns-play" viewBox="0 0 32 32">
						<title>ns play</title>
						<g>
							<g class="nc-icon-wrapper">
								<g id="Layer_1">
									<path d="M28.39 7.813L18.11 1.878c-.134-.078-.268-.16-.401-.243-.247-.152-.495-.307-.752-.426a2.126 2.126 0 0 0-.906-.218c-.502 0-.983.207-1.566.542L3.61 7.813a1.83 1.83 0 0 0-.895 1.563v13.249c0 .636.351 1.249.895 1.562l10.28 5.935c.134.078.268.16.401.243.247.152.495.307.752.426.89.412 1.556.204 2.472-.325l10.875-6.278c.403-.232.67-.545.794-.929.073-.24.101-.433.101-.634V9.376a1.83 1.83 0 0 0-.895-1.563z" fill="#111" opacity=".7" />
									<path d="M28.886 6.954l-10.28-5.935c-.125-.072-.25-.15-.376-.228a8.255 8.255 0 0 0-.856-.482c-1.409-.652-2.485-.153-3.385.366L3.114 6.954a2.8 2.8 0 0 0-1.391 2.422v13.249a2.8 2.8 0 0 0 1.391 2.422l10.28 5.935c.125.072.25.15.376.228.28.173.564.347.856.482.479.222.919.31 1.328.31.792 0 1.463-.334 2.057-.676l10.875-6.278a2.7 2.7 0 0 0 1.266-1.562c.083-.272.125-.562.125-.86V9.376a2.8 2.8 0 0 0-1.391-2.422zm.399 15.671c0 .201-.027.394-.101.634-.124.384-.391.696-.794.929l-10.875 6.278c-.916.529-1.582.737-2.472.325-.258-.119-.506-.274-.752-.426a19.501 19.501 0 0 0-.401-.243L3.61 24.187a1.83 1.83 0 0 1-.895-1.562V9.376c0-.636.351-1.249.895-1.562l10.875-6.279c.583-.336 1.064-.542 1.566-.542.288 0 .582.067.906.218.258.119.506.273.752.426.134.083.268.165.401.243l10.28 5.935c.543.313.895.927.895 1.562v13.248z" fill="#FFF" />
									<path d="M21.481 16.036a.802.802 0 0 1-.207.534c-.071.087-4.606 3.328-6.784 4.888-.513.368-1.219-.128-1.219-.699V11.24c0-.571.705-1.067 1.219-.699 2.177 1.56 6.713 4.801 6.784 4.889a.797.797 0 0 1 .208.567.247.247 0 0 1-.001.039z" fill="#FFF" />
								</g>
							</g>
						</g>
					</symbol>
					<symbol id="ns-shop" viewBox="0 0 32 32">
						<title>ns shop</title>
						<g>
							<g class="nc-icon-wrapper" >
								<g id="Layer_1">
									<path d="M20.985 9.061a1.416 1.416 0 0 1-1.417-1.417c0-3.19-.553-4.811-3.57-4.811-3.03 0-3.564 1.552-3.564 4.811a1.416 1.416 0 1 1-2.834.001C9.6 5.554 9.6 0 15.997 0c6.404 0 6.404 5.554 6.404 7.645a1.414 1.414 0 0 1-1.416 1.416z"  />
									<path d="M28.05 10.541c-.067-.536-.542-.962-1.065-.962H5.016c-.523 0-.998.426-1.071.962L.018 30.383C-.098 31.264.369 32 1.057 32h29.887c.686 0 1.149-.736 1.04-1.617L28.05 10.541zm-17.652 4.026a1.868 1.868 0 0 1-1.866-1.874 1.866 1.866 0 0 1 3.732 0 1.872 1.872 0 0 1-1.866 1.874zm11.206 0a1.87 1.87 0 1 1 0-3.74c1.027 0 1.867.839 1.867 1.866a1.869 1.869 0 0 1-1.867 1.874zm0 0"  />
								</g>
							</g>
						</g>
					</symbol>
					<symbol id="logo-fb-simple" viewBox="0 0 48 48">
						<title>logo fb simple</title>
						<g>
							<g class="nc-icon-wrapper">
								<path id="White_1_" fill="#39579A" d="M18.06306,46L18,26h-8v-8h8v-5c0-7.42279,4.59664-11,11.21828-11 c3.17183,0,5.89786,0.23615,6.6923,0.3417v7.75726l-4.59246,0.00209c-3.60122,0-4.2985,1.71125-4.2985,4.22238V18H37.5l-4,8 h-6.48038v20H18.06306z" />
							</g>
						</g>
					</symbol>
					<symbol id="logo-google-plus" viewBox="0 0 48 48">
						<title>logo google plus</title>
						<g>
							<g class="nc-icon-wrapper">
								<path fill="#DE4D3B" d="M48,22h-4v-4h-4v4h-4v4h4v4h4v-4h4V22z" />
								<path fill="#DE4D3B" d="M33.05286,22.00891L18,22v6h8.60217c-0.46423,2.53943-3.0072,7.17175-9.60217,7.17175 c-5.80432,0-10.54004-4.80859-10.54004-10.73425c0-5.92567,4.73572-10.73426,10.54004-10.73426 c3.30286,0,5.51282,1.40857,6.77576,2.6228l4.61426-4.44421C25.42712,9.11316,21.58997,7.43751,17,7.43751 c-9.39856,0-17,7.60143-17,17c0,9.39855,7.60144,17,17,17C28.69557,41.43751,34.71981,31.73002,33.05286,22.00891z" />
							</g>
						</g>
					</symbol>
					<symbol id="logo-twitter" viewBox="0 0 48 48">
						<title>logo twitter</title>
						<g>
							<g class="nc-icon-wrapper">
								<path fill="#69ACE0" d="M48,9.11341c-1.76603,0.78322-3.66389,1.31268-5.65607,1.55067 c2.03332-1.21873,3.5948-3.14867,4.33001-5.44828c-1.90268,1.12855-4.01024,1.94811-6.25344,2.3898 c-1.79636-1.914-4.35574-3.10992-7.18805-3.10992c-5.43885,0-9.84807,4.40923-9.84807,9.84756 c0,0.77191,0.0871,1.5234,0.25495,2.24422c-8.1844-0.41065-15.4407-4.33121-20.29778-10.28923 C2.49387,7.75272,2.0083,9.44432,2.0083,11.24909c0,3.41649,1.73858,6.43073,4.38093,8.19676 c-1.61427-0.05109-3.13272-0.49415-4.4605-1.23177c-0.00069,0.04115-0.00084,0.08231-0.00084,0.1238 c0,4.77144,3.39452,8.75168,7.8996,9.6563c-0.82642,0.22494-1.69641,0.34532-2.5945,0.34532 c-0.63458,0-1.25149-0.06173-1.8528-0.17661c1.25319,3.91234,4.89001,6.75958,9.19929,6.83914 c-3.37036,2.64116-7.61654,4.21549-12.23032,4.21549C1.55427,39.21751,0.77036,39.17088,0,39.08 c4.35814,2.79408,9.53447,4.42431,15.09573,4.42431c18.11374,0,28.0189-15.00571,28.0189-28.01916 c0-0.42694-0.00959-0.85164-0.02846-1.27394C45.01011,12.82274,46.67978,11.08826,48,9.11341z" />
							</g>
						</g>
					</symbol>
					<symbol id="logo-pinterest" viewBox="0 0 48 48">
						<title>logo pinterest</title>
						<g>
							<g class="nc-icon-wrapper">
								<path fill="#FFFFFF" d="M48,24c0,13.25491-10.74522,23.99987-24,23.99987S0,37.25491,0,24C0,10.74522,10.74522,0.00013,24,0.00013 S48,10.74522,48,24" />
								<path fill="#BD081C" d="M23.97145,2.25318C11.96105,2.25318,2.22463,11.9896,2.22463,24 c0,9.21299,5.73188,17.08208,13.82164,20.25073c-0.19021-1.72064-0.36175-4.35987,0.07557-6.23819 c0.39505-1.69722,2.55008-10.8097,2.55008-10.8097s-0.65056-1.30266-0.65056-3.22869c0-3.02385,1.75266-5.2814,3.93495-5.2814 c1.85531,0,2.75163,1.39299,2.75163,3.06335c0,1.86584-1.188,4.65539-1.80116,7.24071 c-0.51232,2.16456,1.08551,3.92971,3.22038,3.92971c3.86524,0,6.83625-4.07552,6.83625-9.95849 c0-5.20683-3.74144-8.84742-9.08377-8.84742c-6.18763,0-9.81961,4.64112-9.81961,9.43754c0,1.86906,0.72002,3.87337,1.61839,4.96285 c0.17759,0.21527,0.20373,0.40405,0.15086,0.6237c-0.16514,0.68697-0.53199,2.16405-0.60402,2.46627 c-0.0949,0.39812-0.31521,0.48248-0.72722,0.29086c-2.71624-1.26434-4.41427-5.2352-4.41427-8.42482 c0-6.86006,4.98423-13.15994,14.36892-13.15994c7.54392,0,13.40669,5.37563,13.40669,12.55992 c0,7.4948-4.7257,13.52656-11.28484,13.52656c-2.20353,0-4.27524-1.14479-4.98433-2.49712c0,0-1.09038,4.15217-1.35476,5.16964 c-0.49112,1.88896-1.8164,4.25675-2.70293,5.7011c2.03484,0.62992,4.19713,0.96979,6.43895,0.96979 c12.01053,0,21.74694-9.73641,21.74694-21.74694C45.71839,11.9896,35.98199,2.25318,23.97145,2.25318z" />
							</g>
						</g>
					</symbol>
					<symbol id="button-play" viewBox="0 0 16 16">
						<title>button play</title>
						<g>
							<g class="nc-icon-wrapper">
								<path  d="M13.6,7.2l-10-7C2.9-0.3,2,0.2,2,1v14c0,0.8,0.9,1.3,1.6,0.8l10-7C14.1,8.4,14.1,7.6,13.6,7.2z" />
							</g>
						</g>
					</symbol>
					<symbol id="button-pause" viewBox="0 0 16 16">
						<title>button pause</title>
						<g>
							<g class="nc-icon-wrapper">
								<path  d="M5,1H2C1.4,1,1,1.4,1,2v12c0,0.6,0.4,1,1,1h3c0.6,0,1-0.4,1-1V2C6,1.4,5.6,1,5,1z" />
								<path  d="M14,1h-3c-0.6,0-1,0.4-1,1v12c0,0.6,0.4,1,1,1h3c0.6,0,1-0.4,1-1V2C15,1.4,14.6,1,14,1z" />
							</g>
						</g>
					</symbol>
					<symbol id="triangle-left" viewBox="0 0 16 16">
						<title>triangle left</title>
						<g>
							<g class="nc-icon-wrapper">
								<path  d="M4,8.001C4,8.327,4.159,8.633,4.427,8.82l10,7c0.305,0.214,0.704,0.238,1.035,0.068 C15.793,15.715,16,15.374,16,15.001V0.999c0-0.373-0.207-0.715-0.538-0.887c-0.331-0.17-0.73-0.146-1.035,0.068l-10,7 C4.159,7.367,4,7.673,4,7.999C4,8,4,8,4,8.001C4,8,4,8,4,8.001z" />
								<path data-color="color-2" d="M1,0c0.552,0,1,0.447,1,1v14c0,0.553-0.448,1-1,1s-1-0.447-1-1L0,1C0,0.447,0.448,0,1,0z" />
							</g>
						</g>
					</symbol>
					<symbol id="button-stop" viewBox="0 0 16 16">
						<title>button stop</title>
						<g>
							<g class="nc-icon-wrapper">
								<path  d="M14,1H2C1.4,1,1,1.4,1,2v12c0,0.6,0.4,1,1,1h12c0.6,0,1-0.4,1-1V2C15,1.4,14.6,1,14,1z" />
							</g>
						</g>
					</symbol>
					<symbol id="triangle-right" viewBox="0 0 16 16">
						<title>triangle right</title>
						<g>
							<g class="nc-icon-wrapper">
								<path  d="M12,7.999c0-0.326-0.159-0.632-0.427-0.819l-10-7C1.269-0.034,0.869-0.058,0.538,0.112 C0.207,0.285,0,0.626,0,0.999v14.001c0,0.373,0.207,0.715,0.538,0.887c0.331,0.17,0.73,0.146,1.035-0.068l10-7 C11.841,8.633,12,8.327,12,8.001C12,8,12,8,12,7.999C12,8,12,8,12,7.999z" />
								<path data-color="color-2" d="M15,16c-0.552,0-1-0.447-1-1V1c0-0.553,0.448-1,1-1s1,0.447,1,1v14C16,15.553,15.552,16,15,16 z" />
							</g>
						</g>
					</symbol>
					<symbol id="media-1" viewBox="0 0 16 16">
						<title>media 1</title>
						<g>
							<g class="nc-icon-wrapper" >
								<path d="M9.593 15.195a.667.667 0 0 0 1.073-.529v-2.953l4.245 3.469A.666.666 0 0 0 16 14.667V1.333a.666.666 0 0 0-1.089-.516l-4.245 3.469V1.333A.666.666 0 0 0 9.593.804L.927 7.471a.667.667 0 0 0 0 1.058l8.666 6.666z"  id="Layer_1" />
							</g>
						</g>
					</symbol>
					<symbol id="media-2" viewBox="0 0 16 16">
						<title>media 2</title>
						<g>
							<g class="nc-icon-wrapper" >
								<path d="M6.407.805a.666.666 0 1 0-1.074.528v2.953L1.089.817A.666.666 0 0 0 0 1.333v13.333a.666.666 0 0 0 1.089.516l4.245-3.469v2.953a.666.666 0 0 0 1.073.529l8.667-6.667a.666.666 0 0 0 0-1.058L6.407.805z"  id="Layer_1" />
							</g>
						</g>
					</symbol>
					<symbol id="media-3" viewBox="0 0 16 16">
						<title>media 3</title>
						<g>
							<g class="nc-icon-wrapper" >
								<g id="Layer_1">
									<path d="M9.631.737A.67.67 0 0 0 8.933.8L3.778 4.667H.667A.666.666 0 0 0 0 5.333v5.333c0 .369.298.667.667.667h3.111L8.933 15.2a.66.66 0 0 0 .698.063.667.667 0 0 0 .369-.596V1.333a.667.667 0 0 0-.369-.596z"  />
									<path d="M12.162 5.172l-.471-.471-.943.943.471.471a2.669 2.669 0 0 1 0 3.771l-.471.471.943.943.471-.471a4.006 4.006 0 0 0 0-5.657z"  />
									<path d="M13.576 2.815l-.943.943.471.471a5.34 5.34 0 0 1 0 7.543l-.471.471.943.943.471-.471a6.676 6.676 0 0 0 0-9.429l-.471-.471z"  />
								</g>
							</g>
						</g>
					</symbol>
					<symbol id="media-4" viewBox="0 0 16 16">
						<title>media 4</title>
						<g>
							<g class="nc-icon-wrapper" >
								<g id="Layer_1">
									<path d="M10.966.737a.67.67 0 0 0-.698.063L5.112 4.667H2.001a.666.666 0 0 0-.667.667v5.333c0 .369.298.667.667.667h3.111l5.155 3.867a.66.66 0 0 0 .698.063.667.667 0 0 0 .369-.597V1.333a.666.666 0 0 0-.368-.596z"  />
									<path d="M13.496 5.172l-.471-.471-.943.943.471.471a2.669 2.669 0 0 1 0 3.771l-.471.471.943.943.471-.471a4.004 4.004 0 0 0 0-5.657z"  />
								</g>
							</g>
						</g>
					</symbol>
					<symbol id="media-5" viewBox="0 0 16 16">
						<title>media 5</title>
						<g>
							<g class="nc-icon-wrapper" >
								<path d="M12.631.737a.672.672 0 0 0-.698.063L6.778 4.667H3.667A.666.666 0 0 0 3 5.333v5.333c0 .369.298.667.667.667h3.111l5.155 3.867a.66.66 0 0 0 .698.063.667.667 0 0 0 .369-.596V1.333a.667.667 0 0 0-.369-.596z"  id="Layer_1" />
							</g>
						</g>
					</symbol>
					<symbol id="media-6" viewBox="0 0 16 16">
						<title>media 6</title>
						<g>
							<g class="nc-icon-wrapper" >
								<g id="Layer_1">
									<path d="M7.045 11.783L11.6 15.2a.66.66 0 0 0 .698.063.667.667 0 0 0 .369-.597V6.161l-5.622 5.622z"  />
									<path d="M1.333 11.333h3.333l8-8v-2a.669.669 0 0 0-.369-.597A.67.67 0 0 0 11.6.8L6.445 4.667H1.333a.666.666 0 0 0-.667.667v5.333a.667.667 0 0 0 .667.666z"  />
									<path d="M.667 16a.666.666 0 0 1-.471-1.138L14.862.195a.666.666 0 1 1 .943.943L1.138 15.805A.665.665 0 0 1 .667 16z"  />
								</g>
							</g>
						</g>
					</symbol>
					<symbol id="media-7" viewBox="0 0 16 16">
						<title>media 7</title>
						<g>
							<g class="nc-icon-wrapper" >
								<g id="Layer_1">
									<path d="M4 0h2v5c0 .6-.4 1-1 1H0V4h4V0z"  />
									<path d="M10 0h2v4h4v2h-5c-.6 0-1-.4-1-1V0z"  />
									<path d="M11 10h5v2h-4v4h-2v-5c0-.6.4-1 1-1z"  />
									<path d="M0 10h5c.6 0 1 .4 1 1v5H4v-4H0v-2z"  />
								</g>
							</g>
						</g>
					</symbol>
					<symbol id="zoom-e" viewBox="0 0 16 16">
						<title>zoom e</title>
						<g>
							<g class="nc-icon-wrapper">
								<path  d="M2,6H0V1c0-0.6,0.4-1,1-1h5v2H2V6z" />
								<path  d="M16,6h-2V2h-4V0h5c0.6,0,1,0.4,1,1V6z" />
								<path  d="M15,16h-5v-2h4v-4h2v5C16,15.6,15.6,16,15,16z" />
								<path  d="M6,16H1c-0.6,0-1-0.4-1-1v-5h2v4h4V16z" />
							</g>
						</g>
					</symbol>
					<symbol id="ic_closed_caption_24px" viewBox="0 0 24 24">
						<title>ic closed caption 24px</title>
						<g>
							<g class="nc-icon-wrapper" >
								<path d="M19 4H5c-1.11 0-2 .9-2 2v12c0 1.1.89 2 2 2h14c1.1 0 2-.9 2-2V6c0-1.1-.9-2-2-2zm-8 7H9.5v-.5h-2v3h2V13H11v1c0 .55-.45 1-1 1H7c-.55 0-1-.45-1-1v-4c0-.55.45-1 1-1h3c.55 0 1 .45 1 1v1zm7 0h-1.5v-.5h-2v3h2V13H18v1c0 .55-.45 1-1 1h-3c-.55 0-1-.45-1-1v-4c0-.55.45-1 1-1h3c.55 0 1 .45 1 1v1z" /> </g>
							</g>
						</symbol>
						<symbol id="shuffle-98" viewBox="0 0 16 16">
							<title>shuffle 98</title>
							<g>
								<g class="nc-icon-wrapper">
									<path data-color="color-2" d="M12,11c-1.493,0-2.012-0.533-2.842-1.481l-1.329,1.519C8.912,12.275,10.075,13,12,13v2l4-3 l-4-3V11z" />
									<path data-color="color-2" d="M3.842,6.481l1.329-1.519C4.121,3.762,2.899,3,1.185,3H0v2h1.185 C2.466,5,3.087,5.619,3.842,6.481z" />
									<path  d="M12,3c-1.717,0-3.018,0.645-3.948,1.708L3.442,9.975C2.873,10.626,2.05,11,1.185,11H0v2h1.185 c1.441,0,2.813-0.623,3.764-1.708l4.609-5.268C10.219,5.268,11.037,5,12,5v2l4-3l-4-3V3z" />
								</g>
							</g>
						</symbol>
						<symbol id="replay" viewBox="0 0 16 16">
							<title>replay</title>
							<g>
								<g class="nc-icon-wrapper">
									<path data-color="color-2" d="M15,3h-2v2h1v6H8V9l-4,3l4,3v-2h7c0.6,0,1-0.4,1-1V4C16,3.4,15.6,3,15,3z" />
									<path  d="M2,5h6v2l4-3L8,1v2H1C0.4,3,0,3.4,0,4v8c0,0.6,0.4,1,1,1h2v-2H2V5z" />
								</g>
							</g>
						</symbol>
						<symbol id="settings-gear-64-2" viewBox="0 0 16 16">
							<title>settings gear 64 2</title>
							<g>
								<g class="nc-icon-wrapper">
									<path  d="M13.3,5.2l1.1-2.1l-1.4-1.4l-2.1,1.1c-0.3-0.2-0.7-0.3-1.1-0.4L9,0H7L6.2,2.3C5.9,2.4,5.5,2.5,5.2,2.7 L3.1,1.6L1.6,3.1l1.1,2.1C2.5,5.5,2.4,5.9,2.3,6.2L0,7v2l2.3,0.8c0.1,0.4,0.3,0.7,0.4,1.1l-1.1,2.1l1.4,1.4l2.1-1.1 c0.3,0.2,0.7,0.3,1.1,0.4L7,16h2l0.8-2.3c0.4-0.1,0.7-0.3,1.1-0.4l2.1,1.1l1.4-1.4l-1.1-2.1c0.2-0.3,0.3-0.7,0.4-1.1L16,9V7 l-2.3-0.8C13.6,5.9,13.5,5.5,13.3,5.2z M8,11c-1.7,0-3-1.3-3-3s1.3-3,3-3s3,1.3,3,3S9.7,11,8,11z" />
								</g>
							</g>
						</symbol>
						<symbol id="button-record" viewBox="0 0 16 16">
							<title>button record</title>
							<g>
								<g class="nc-icon-wrapper">
									<circle  cx="8" cy="8" r="7" />
								</g>
							</g>
						</symbol>
						<symbol id="refresh-19" viewBox="0 0 16 16">
							<title>refresh 19</title>
							<g>
								<g class="nc-icon-wrapper">
									<path  d="M7.7,1.2l0.7,6.4l2.1-2.1c1.9,1.9,1.9,5.1,0,7C9.6,13.5,8.3,14,7,14c-1.3,0-2.6-0.5-3.5-1.5 c-1.9-1.9-1.9-5.1,0-7c0.6-0.6,1.4-1.1,2.3-1.3L5.2,2.3C4,2.6,2.9,3.2,2,4.1c-2.7,2.7-2.7,7.1,0,9.9c1.3,1.3,3.1,2,4.9,2 c1.9,0,3.6-0.7,4.9-2c2.7-2.7,2.7-7.1,0-9.9l2.2-2.2L7.7,1.2z" />
								</g>
							</g>
						</symbol>
						<symbol id="small-triangle-left" viewBox="0 0 16 16">
							<title>small triangle left</title>
							<g>
								<g class="nc-icon-wrapper">
									<polygon  points="11,3 5,8 11,13 " />
								</g>
							</g>
						</symbol>
						<symbol id="small-triangle-right" viewBox="0 0 16 16">
							<title>small triangle right</title>
							<g>
								<g class="nc-icon-wrapper">
									<polygon  points="5,13 11,8 5,3 " />
								</g>
							</g>
						</symbol>
						<symbol id="small-triangle-up" viewBox="0 0 16 16">
							<title>small triangle up</title>
							<g>
								<g class="nc-icon-wrapper">
									<polygon  points="13,11 8,5 3,11 " />
								</g>
							</g>
						</symbol>
						<symbol id="small-triangle-down" viewBox="0 0 16 16">
							<title>small triangle down</title>
							<g>
								<g class="nc-icon-wrapper">
									<polygon  points="3,5 8,11 13,5 " />
								</g>
							</g>
						</symbol>
						<symbol id="small-left" viewBox="0 0 16 16">
							<title>small left</title>
							<g>
								<g class="nc-icon-wrapper">
									<polygon  points="10,13.4 4.6,8 10,2.6 11.4,4 7.4,8 11.4,12 " />
								</g>
							</g>
						</symbol>
						<symbol id="small-right" viewBox="0 0 16 16">
							<title>small right</title>
							<g>
								<g class="nc-icon-wrapper">
									<polygon  points="6,13.4 4.6,12 8.6,8 4.6,4 6,2.6 11.4,8 " />
								</g>
							</g>
						</symbol>
						<symbol id="small-up" viewBox="0 0 16 16">
							<title>small up</title>
							<g>
								<g class="nc-icon-wrapper">
									<polygon  points="12,11.4 8,7.4 4,11.4 2.6,10 8,4.6 13.4,10 " />
								</g>
							</g>
						</symbol>
						<symbol id="small-down" viewBox="0 0 16 16">
							<title>small down</title>
							<g>
								<g class="nc-icon-wrapper">
									<polygon  points="8,11.4 2.6,6 4,4.6 8,8.6 12,4.6 13.4,6 " />
								</g>
							</g>
						</symbol>
						<symbol id="minimal-left" viewBox="0 0 16 16">
							<title>minimal left</title>
							<g>
								<g class="nc-icon-wrapper">
									<polygon  points="11.1,15.7 3.4,8 11.1,0.3 12.6,1.7 6.3,8 12.6,14.3 " />
								</g>
							</g>
						</symbol>
						<symbol id="minimal-right" viewBox="0 0 16 16">
							<title>minimal right</title>
							<g>
								<g class="nc-icon-wrapper">
									<polygon  points="4.9,15.7 3.4,14.3 9.7,8 3.4,1.7 4.9,0.3 12.6,8 " />
								</g>
							</g>
						</symbol>
						<symbol id="minimal-up" viewBox="0 0 16 16">
							<title>minimal up</title>
							<g>
								<g class="nc-icon-wrapper">
									<polygon  points="14.3,12.6 8,6.3 1.7,12.6 0.3,11.1 8,3.4 15.7,11.1 " />
								</g>
							</g>
						</symbol>
						<symbol id="minimal-down" viewBox="0 0 16 16">
							<title>minimal down</title>
							<g>
								<g class="nc-icon-wrapper">
									<polygon  points="8,12.6 0.3,4.9 1.7,3.4 8,9.7 14.3,3.4 15.7,4.9 " />
								</g>
							</g>
						</symbol>
						<symbol id="tail-left" viewBox="0 0 16 16">
							<title>tail left</title>
							<g>
								<g class="nc-icon-wrapper">
									<polygon  points="6.7,14.7 8.1,13.3 3.8,9 16,9 16,7 3.8,7 8.1,2.7 6.7,1.3 0,8 " />
								</g>
							</g>
						</symbol>
						<symbol id="tail-right" viewBox="0 0 16 16">
							<title>tail right</title>
							<g>
								<g class="nc-icon-wrapper">
									<polygon  points="9.3,1.3 7.9,2.7 12.2,7 0,7 0,9 12.2,9 7.9,13.3 9.3,14.7 16,8 " />
								</g>
							</g>
						</symbol>
						<symbol id="tail-up" viewBox="0 0 16 16">
							<title>tail up</title>
							<g>
								<g class="nc-icon-wrapper">
									<polygon  points="1.3,6.7 2.7,8.1 7,3.8 7,16 9,16 9,3.8 13.3,8.1 14.7,6.7 8,0 " />
								</g>
							</g>
						</symbol>
						<symbol id="tail-down" viewBox="0 0 16 16">
							<title>tail down</title>
							<g>
								<g class="nc-icon-wrapper">
									<polygon  points="14.7,9.3 13.3,7.9 9,12.2 9,0 7,0 7,12.2 2.7,7.9 1.3,9.3 8,16 " />
								</g>
							</g>
						</symbol>
						<symbol id="select-83" viewBox="0 0 16 16">
							<title>select 83</title>
							<g>
								<g class="nc-icon-wrapper">
									<polygon  points="2,6 14,6 8,0 " />
									<polygon  points="8,16 14,10 2,10 " />
								</g>
							</g>
						</symbol>
						<symbol id="select-84" viewBox="0 0 16 16">
							<title>select 84</title>
							<g>
								<g class="nc-icon-wrapper">
									<path  d="M7.4,1.2l-5,4l1.2,1.6L8,3.3l4.4,3.5l1.2-1.6l-5-4C8.3,0.9,7.7,0.9,7.4,1.2z" />
									<path  d="M8,12.7L3.6,9.2l-1.2,1.6l5,4C7.6,14.9,7.8,15,8,15s0.4-0.1,0.6-0.2l5-4l-1.2-1.6L8,12.7z" />
								</g>
							</g>
						</symbol>
						<symbol id="enlarge-45" viewBox="0 0 16 16">
							<title>enlarge 45</title>
							<g>
								<g class="nc-icon-wrapper">
									<polygon  points="0,8 6,3 6,13 " />
									<polygon data-color="color-2" points="16,8 10,3 10,13 " />
								</g>
							</g>
						</symbol>
						<symbol id="enlarge-46" viewBox="0 0 16 16">
							<title>enlarge 46</title>
							<g>
								<g class="nc-icon-wrapper">
									<path  d="M4.844,14.405l-4.625-5.78c-0.292-0.365-0.292-0.885,0-1.25l4.625-5.78l1.562,1.249L2.28,8l4.125,5.156 L4.844,14.405z" />
									<path data-color="color-2" d="M11.156,14.405l-1.562-1.249L13.72,8L9.595,2.844l1.562-1.249l4.625,5.78 c0.292,0.365,0.292,0.885,0,1.25L11.156,14.405z" />
								</g>
							</g>
						</symbol>
						<symbol id="edit-75" viewBox="0 0 16 16">
							<title>edit 75</title>
							<g>
								<g class="nc-icon-wrapper">
									<path data-color="color-2" d="M14.1,0.3c-0.4-0.4-1-0.4-1.4,0L6,7v3h3l6.7-6.7c0.4-0.4,0.4-1,0-1.4L14.1,0.3z" />
									<path  d="M15,9c-0.6,0-1,0.4-1,1v4H2V2h4c0.6,0,1-0.4,1-1S6.6,0,6,0H1C0.4,0,0,0.4,0,1v14c0,0.6,0.4,1,1,1h14 c0.6,0,1-0.4,1-1v-5C16,9.4,15.6,9,15,9z" />
								</g>
							</g>
						</symbol>
						<symbol id="eraser-33" viewBox="0 0 16 16">
							<title>eraser 33</title>
							<g>
								<g class="nc-icon-wrapper">
									<rect data-color="color-2" y="14" width="16" height="2" />
									<path  d="M4.6,12h4.8l5.3-5.3c0.4-0.4,0.4-1,0-1.4l-5-5c-0.4-0.4-1-0.4-1.4,0l-7,7c-0.4,0.4-0.4,1,0,1.4L4.6,12z" />
								</g>
							</g>
						</symbol>
						<symbol id="pencil" viewBox="0 0 16 16">
							<title>pencil</title>
							<g>
								<g class="nc-icon-wrapper">
									<path  d="M11.7,0.3c-0.4-0.4-1-0.4-1.4,0l-10,10C0.1,10.5,0,10.7,0,11v4c0,0.6,0.4,1,1,1h4c0.3,0,0.5-0.1,0.7-0.3 l10-10c0.4-0.4,0.4-1,0-1.4L11.7,0.3z M4.6,14H2v-2.6l6-6L10.6,8L4.6,14z M12,6.6L9.4,4L11,2.4L13.6,5L12,6.6z" />
								</g>
							</g>
						</symbol>
						<symbol id="single-copy-04" viewBox="0 0 16 16">
							<title>single copy 04</title>
							<g>
								<g class="nc-icon-wrapper">
									<path  d="M10,4H2C1.4,4,1,4.4,1,5v10c0,0.6,0.4,1,1,1h8c0.6,0,1-0.4,1-1V5C11,4.4,10.6,4,10,4z" />
									<path data-color="color-2" d="M14,0H4v2h9v11h2V1C15,0.4,14.6,0,14,0z" />
								</g>
							</g>
						</symbol>
						<symbol id="trash" viewBox="0 0 16 16">
							<title>trash</title>
							<g>
								<g class="nc-icon-wrapper">
									<path  d="M2,6v8c0,1.1,0.9,2,2,2h8c1.1,0,2-0.9,2-2V6H2z" />
									<path data-color="color-2" d="M12,3V1c0-0.6-0.4-1-1-1H5C4.4,0,4,0.4,4,1v2H0v2h16V3H12z M10,3H6V2h4V3z" />
								</g>
							</g>
						</symbol>
						<symbol id="search-2" viewBox="0 0 24 24">
							<title>search 2</title>
							<g>
								<g class="nc-icon-wrapper">
									<path  d="M1,10h7c0.552,0,1-0.448,1-1v0c0-0.552-0.448-1-1-1H1C0.447,8,0,8.448,0,9S0.447,10,1,10z" />
									<path  d="M1,16h7c0.552,0,1-0.448,1-1v0c0-0.552-0.448-1-1-1H1c-0.553,0-1,0.448-1,1S0.447,16,1,16z" />
									<path  d="M16,20H1c-0.553,0-1,0.448-1,1s0.447,1,1,1h15c0.553,0,1-0.448,1-1S16.553,20,16,20z" />
									<path  d="M1,4h15c0.553,0,1-0.448,1-1s-0.447-1-1-1H1C0.447,2,0,2.448,0,3S0.447,4,1,4z" />
									<path data-color="color-2" d="M23.707,18.293l-3.54-3.54C20.691,13.962,21,13.017,21,12c0-2.757-2.243-5-5-5s-5,2.243-5,5 s2.243,5,5,5c1.017,0,1.962-0.309,2.753-0.833l3.54,3.54C22.488,19.902,22.744,20,23,20s0.512-0.098,0.707-0.293 C24.098,19.316,24.098,18.684,23.707,18.293z M16,15c-1.657,0-3-1.343-3-3s1.343-3,3-3s3,1.343,3,3S17.657,15,16,15z" />
								</g>
							</g>
						</symbol>
						<symbol id="disk-2" viewBox="0 0 16 16">
							<title>disk 2</title>
							<g>
								<g class="nc-icon-wrapper">
									<path  d="M11.7,0.3C11.5,0.1,11.3,0,11,0h-1v3c0,0.6-0.4,1-1,1H4C3.4,4,3,3.6,3,3V0H1C0.4,0,0,0.4,0,1v14 c0,0.6,0.4,1,1,1h14c0.6,0,1-0.4,1-1V5c0-0.3-0.1-0.5-0.3-0.7L11.7,0.3z M13,14H3v-3c0-0.6,0.4-1,1-1h8c0.6,0,1,0.4,1,1V14z" />
									<rect data-color="color-2" x="7" width="2" height="3" />
								</g>
							</g>
						</symbol>
						<symbol id="send" viewBox="0 0 16 16">
							<title>send</title>
							<g>
								<g class="nc-icon-wrapper">
									<path  d="M3.6,9.6v4.9c0,0.7,0.8,1,1.3,0.5l2.3-2.7l4.7,3.5c0.4,0.3,1,0.1,1.1-0.4L16,0.9c0.1-0.6-0.4-1-1-0.8 L0.5,5.9c-0.5,0.2-0.6,0.9-0.2,1.3l1.6,1.2l4.6-2.2C6.9,6,7.2,6.5,6.9,6.7L3.6,9.6z" />
								</g>
							</g>
						</symbol>
						<symbol id="quote" viewBox="0 0 16 16">
							<title>quote</title>
							<g>
								<g class="nc-icon-wrapper">
									<path  d="M3.02362,4.56063c-1.18508,1.48134-1.35607,2.9743-1.00787,4.0189 C3.33164,7.53456,5.16042,7.75337,6.27402,8.7937c1.12491,1.05091,1.2217,2.89822,0.50394,4.09449 c-0.60379,1.00632-1.66412,1.6126-2.84724,1.6126C1.23817,14.50079,0,12.12601,0,9.46142C0,7.73123,0.44094,6.18163,1.32283,4.8126 s2.21312-2.47349,3.9937-3.31339L5.79528,2.4315C4.72021,2.88504,3.79633,3.59475,3.02362,4.56063z M11.79213,4.56063 c-1.18507,1.48134-1.35607,2.9743-1.00787,4.0189c0.58793-0.45354,1.22625-0.68032,1.91496-0.68032 C14.51086,7.89921,16,9.10579,16,11.2c0,1.92572-1.47785,3.30079-3.30079,3.30079c-2.69254,0-3.93071-2.37478-3.93071-5.03937 c0-1.73018,0.44094-3.27979,1.32283-4.64882c0.88189-1.36903,2.21312-2.47349,3.9937-3.31339l0.47874,0.93228 C13.48871,2.88504,12.56483,3.59475,11.79213,4.56063z" />
								</g>
							</g>
						</symbol>
						<symbol id="ns-wedding-1" viewBox="0 0 32 32">
							<title>ns wedding 1</title>
							<g>
								<g class="nc-icon-wrapper" >
									<g id="Layer_1">
										<path d="M9.346 14.181c-.056.02-.112.041-.169.06a11.772 11.772 0 0 1-3.768.641c-.78 0-1.546-.086-2.277-.257a2.726 2.726 0 0 1-.363-.111v16.563a.923.923 0 0 0 .923.923H9.88c.51 0 .923-.413.923-.923V18.495c0-1.58-.512-3.081-1.457-4.314zm0 0"  />
										<path d="M28.869 14.625c-.73.171-1.497.257-2.277.257-1.243 0-2.51-.216-3.768-.641l-.165-.059a7.076 7.076 0 0 0-1.462 4.313v12.581c0 .51.413.923.923.923h6.188c.51 0 .923-.413.923-.923V14.514a2.918 2.918 0 0 1-.362.111zm0 0"  />
										<path d="M29.157 11.832a13.205 13.205 0 0 0-4.269-8.402A13.198 13.198 0 0 0 16.025 0h-.002L16 .001 15.976 0h-.002a13.199 13.199 0 0 0-8.862 3.43 13.205 13.205 0 0 0-4.269 8.402c-.004.042-.005.083-.004.124a.897.897 0 0 0 .244.597l.018.019.034.033.024.022.034.027.03.022a.657.657 0 0 0 .068.045l.033.019a1.551 1.551 0 0 0 .072.036l.049.019.026.01c.026.009.053.016.08.023a8.037 8.037 0 0 0 2.123.204l.061-.002c.089-.003.179-.008.268-.013l.008-.001c.093-.006.181-.014.27-.023l.047-.005c.094-.01.187-.02.281-.032l.006-.001c.095-.012.19-.027.285-.042l.025-.004c.2-.033.4-.072.601-.118l.003-.001a11.36 11.36 0 0 0 1.055-.298c1.741-.589 3.393-1.632 4.778-3.017.059-.059.119-.12.178-.182a4.257 4.257 0 0 1-2.156-3.717 2.772 2.772 0 0 1 2.769-2.769c.709 0 1.356.268 1.846.707a2.76 2.76 0 0 1 1.846-.707 2.772 2.772 0 0 1 2.769 2.769c0 1.552-.82 2.955-2.156 3.717l.178.182c1.385 1.385 3.037 2.428 4.778 3.017a10.76 10.76 0 0 0 1.057.298l.009.002c.199.045.397.084.594.116l.028.004.283.042h.004c.096.013.189.023.282.033l.049.005a7.943 7.943 0 0 0 .545.036l.061.002a7.867 7.867 0 0 0 .976-.024 7.892 7.892 0 0 0 1.147-.18.715.715 0 0 0 .079-.023l.026-.01.05-.019a.907.907 0 0 1 .072-.035l.033-.019.035-.022a.657.657 0 0 0 .033-.023l.03-.022a.443.443 0 0 0 .033-.028c.008-.007.017-.014.024-.022l.034-.033.019-.02.035-.039.011-.014a.56.56 0 0 0 .036-.049l.001-.001a.925.925 0 0 0 .161-.494.825.825 0 0 0-.004-.121zm0 0"  />
										<path d="M17.846 4.654a.924.924 0 0 0-.923.923.923.923 0 0 1-1.846 0 .924.924 0 0 0-1.846 0 2.493 2.493 0 0 0 .077.607l.001.004a2.558 2.558 0 0 0 .17.463l.009.018a3.384 3.384 0 0 0 .051.096c.027.05.057.098.088.146l.024.036c.026.038.053.075.081.111l.031.04a2.884 2.884 0 0 0 .091.106c.028.031.056.061.085.09l.043.042.056.054c.16.143.341.267.54.367L16 8.468l1.422-.711c.199-.1.38-.224.54-.367l.057-.054.042-.041a3.572 3.572 0 0 0 .124-.133l.052-.063.031-.04c.028-.037.055-.074.081-.112l.024-.036c.031-.047.06-.096.088-.145l.007-.012.044-.084.009-.018a2.37 2.37 0 0 0 .072-.163l.007-.018c.036-.092.067-.188.092-.285l.001-.004c.05-.195.077-.398.077-.606a.925.925 0 0 0-.924-.922zm0 0"  />
									</g>
								</g>
							</g>
						</symbol>
						<symbol id="ns-wedding-2" viewBox="0 0 32 32">
							<title>ns wedding 2</title>
							<g>
								<g class="nc-icon-wrapper" >
									<path d="M25.36 3.177V0h-1.959v3.177h-2.25V0h-1.959v3.177h-2.25V0h-1.959v3.177h-2.25V0h-1.959v3.177h-2.25V0H6.563v3.177H2.336v23.95A4.878 4.878 0 0 0 7.208 32h17.583a4.878 4.878 0 0 0 4.873-4.873V3.177H25.36zm2.345 6.684H4.294V5.136h2.269v1.7h1.959v-1.7h2.25v1.7h1.959v-1.7h2.25v1.7h1.959v-1.7h2.25v1.7h1.959v-1.7h2.25v1.7h1.959v-1.7h2.345v4.725zm-6.83 11.734l-4.111 4.111a1.118 1.118 0 0 1-1.586 0l-.001-.001-4.095-4.094c-.596-.558-.929-1.429-.914-2.395.015-.94.352-1.769.927-2.283A3.252 3.252 0 0 1 13.384 16c.876 0 1.699.341 2.318.96l.269.269.269-.269a3.28 3.28 0 0 1 4.635 0 3.283 3.283 0 0 1 0 4.635z"  id="Layer_1" />
								</g>
							</g>
						</symbol>
						<symbol id="ns-wedding-3" viewBox="0 0 32 32">
							<title>ns wedding 3</title>
							<g>
								<g class="nc-icon-wrapper" >
									<g id="Layer_1">
										<path d="M25.602 10.718c-1.148 0-2.078.93-2.078 2.078 0 1.158.93 2.08 2.078 2.08a2.073 2.073 0 0 0 2.078-2.08c0-1.148-.93-2.078-2.078-2.078z"  />
										<path d="M27.204 6.398h-2.54l-1.602-1.602c-.93-.92-2.554-1.592-3.858-1.592h-6.408c-1.304 0-2.928.672-3.858 1.592L7.336 6.398h-2.54C2.156 6.398 0 8.554 0 11.204V24a4.802 4.802 0 0 0 4.796 4.796h22.408A4.802 4.802 0 0 0 32 24V11.204c0-2.65-2.156-4.806-4.796-4.806zm-6.329 11.215l-4.111 4.11a1.118 1.118 0 0 1-1.586 0l-.001-.001-4.094-4.094c-.596-.558-.929-1.429-.914-2.395.014-.94.352-1.769.927-2.283a3.253 3.253 0 0 1 2.289-.932c.876 0 1.699.341 2.318.96l.269.269.269-.269a3.28 3.28 0 0 1 4.635 0 3.284 3.284 0 0 1-.001 4.635zm4.727-2.737a2.073 2.073 0 0 1-2.078-2.08 2.078 2.078 0 1 1 4.156 0c0 1.158-.93 2.08-2.078 2.08z"  />
									</g>
								</g>
							</g>
						</symbol>
						<symbol id="ns-wedding-4" viewBox="0 0 32 32">
							<title>ns wedding 4</title>
							<g>
								<g class="nc-icon-wrapper" >
									<g id="Layer_1">
										<path d="M0 18.812v1.875h2.296l1.875 3.75h8.654l-1.25 3.75H9.438v1.875h13.125v-1.875h-2.137l-1.25-3.75h8.654l1.875-3.75H32v-1.875H0zm0 0"  />
										<path d="M18.549 5.922c.165-.358.264-.752.264-1.172a2.815 2.815 0 0 0-2.812-2.812 2.815 2.815 0 0 0-2.812 2.812c0 .419.099.814.264 1.172A14.099 14.099 0 0 0 2.221 16.938h27.558c-1.139-5.59-5.604-9.982-11.23-11.016zM15.062 4.75a.939.939 0 1 1 1.877.001.939.939 0 0 1-1.877-.001zm0 0"  />
									</g>
								</g>
							</g>
						</symbol>
						<symbol id="ns-wedding-5" viewBox="0 0 32 32">
							<title>ns wedding 5</title>
							<g>
								<g class="nc-icon-wrapper" >
									<g id="Layer_1">
										<path d="M18.068 24.411L31.95 18.21l-1.295-1.529a6.309 6.309 0 0 0-7.173-1.71 9.364 9.364 0 0 0-7.483-.003 9.355 9.355 0 0 0-7.483.003 6.306 6.306 0 0 0-7.173 1.71L.05 18.21l13.701 6.12 4.317.081zm0 0"  />
										<path d="M9.55 11.327c.089.442.26.852.468 1.244a11.352 11.352 0 0 1 3.337-.154c-.809-.67-1.833-1.09-2.963-1.09H9.55zm0 0"  />
										<path d="M8.08 12.889a6.562 6.562 0 0 1-.491-2.497v-.934h2.804c2.388 0 4.46 1.3 5.602 3.216 1.147-1.932 3.237-3.216 5.613-3.216h2.804v.934c0 .875-.174 1.719-.495 2.497 2.08-.511 4.282-.153 6.102.899a5.373 5.373 0 0 0-1.211-3.09 5.411 5.411 0 0 0-3.432-5.943 5.356 5.356 0 0 0-2.358-2.781 5.36 5.36 0 0 0-3.588-.652c-2.062-1.698-4.8-1.698-6.861 0a5.366 5.366 0 0 0-3.588.652 5.36 5.36 0 0 0-2.357 2.781 5.414 5.414 0 0 0-3.432 5.943 5.37 5.37 0 0 0-1.211 3.091c1.82-1.05 4.021-1.408 6.099-.9zm0 0"  />
										<path d="M18.62 12.419a11.344 11.344 0 0 1 3.361.152c.208-.392.379-.803.468-1.244h-.841a4.656 4.656 0 0 0-2.988 1.092zm0 0"  />
										<path d="M18.804 26.28h-5.608v2.867c0 .633.219 1.212.575 1.682l.001.001c.121.16.259.304.412.435l.059.049c.133.108.275.203.426.286.039.021.077.043.117.063.142.069.29.123.444.167.05.014.096.034.147.045.201.045.408.075.623.075.215 0 .422-.03.624-.076.05-.012.097-.031.147-.045a2.72 2.72 0 0 0 .444-.167c.04-.02.078-.042.117-.063.152-.083.294-.178.426-.286l.059-.049a2.82 2.82 0 0 0 .411-.435l.001-.001a2.78 2.78 0 0 0 .575-1.682V26.28z"  />
									</g>
								</g>
							</g>
						</symbol>
						<symbol id="ns-wedding-6" viewBox="0 0 32 32">
							<title>ns wedding 6</title>
							<g>
								<g class="nc-icon-wrapper" >
									<path d="M24.605 3.967h-4.26V1.263A1.122 1.122 0 0 0 18.923.092L7.067 3.994a2.024 2.024 0 0 0-1.692 1.993V29.93c0 1.114.906 2.02 2.02 2.02h17.209c1.114 0 2.02-.906 2.02-2.02V5.987a2.02 2.02 0 0 0-2.019-2.02zm-5.109 22.422h-6.88a1.122 1.122 0 0 1 0-2.244h6.88a1.122 1.122 0 0 1 0 2.244zm0-3.142h-6.88a1.122 1.122 0 1 1 0-2.244h6.88a1.122 1.122 0 1 1 0 2.244zm1.464-8.901l-4.111 4.11a1.12 1.12 0 0 1-1.587 0l-.001-.001-4.095-4.095c-.596-.558-.929-1.429-.914-2.395.015-.94.352-1.769.927-2.283a3.257 3.257 0 0 1 2.289-.932c.876 0 1.698.341 2.318.96l.269.269.269-.269a3.28 3.28 0 0 1 4.635 0 3.281 3.281 0 0 1 .001 4.636zm0 0"  id="Layer_1" />
								</g>
							</g>
						</symbol>
						<symbol id="ns-wedding-7" viewBox="0 0 32 32">
							<title>ns wedding 7</title>
							<g>
								<g class="nc-icon-wrapper" >
									<g id="Layer_1">
										<path d="M11.587 5.15c.356.473.552 1.061.552 1.655v.92h1.724c.651 0 1.304-.065 1.942-.193l1.3-.259v-.652h1.256l1.502.901v-.718c0-.593.196-1.181.552-1.655l.552-.735c.356-.474.552-1.062.552-1.655s-.196-1.181-.552-1.655l-.088-.119A2.478 2.478 0 0 0 18.907 0c-.659 0-1.278.256-1.743.722l-1.162 1.161L14.84.722A2.45 2.45 0 0 0 13.096 0c-.771 0-1.509.368-1.973.987l-.087.116c-.357.475-.553 1.062-.553 1.656s.196 1.181.552 1.655l.552.736zm0 0"  />
										<path d="M19.413 12.769l.695-2.783-.691.414-1.315 2.63 1.311-.261zm0 0"  />
										<path d="M23.392 13.003l-1.006-2.681-.561-.337.7 2.8.867.218zm0 0"  />
										<path d="M18.208 7.816V9.84l1.687-1.012-1.687-1.012zm0 0"  />
										<path d="M23.725 7.816l-1.687 1.012 1.687 1.012V7.816zm0 0"  />
										<path d="M10.221 23.724h.451c1.092 0 2.12.425 2.893 1.198A3.42 3.42 0 0 0 16 25.931c.92 0 1.785-.358 2.435-1.009a4.065 4.065 0 0 1 2.892-1.198h.451a4.082 4.082 0 0 1 3.287-1.655h.898a40.26 40.26 0 0 0-1.97-3.796 3.154 3.154 0 0 0-2.018 1.343l-.164.246h-.484a4.288 4.288 0 0 0-3.054 1.265 3.238 3.238 0 0 1-2.274.942 3.237 3.237 0 0 1-2.274-.942 4.291 4.291 0 0 0-3.054-1.265h-.484l-.164-.246a3.15 3.15 0 0 0-2.019-1.343 40.027 40.027 0 0 0-1.97 3.796h.898c1.306 0 2.519.616 3.289 1.655zm0 0"  />
										<path d="M28.496 29.566a40.168 40.168 0 0 0-2.057-6.393h-1.371c-1.001 0-1.93.497-2.486 1.33l-.217.325h-1.036c-.798 0-1.549.31-2.113.875a4.517 4.517 0 0 1-3.215 1.332 4.52 4.52 0 0 1-3.216-1.332 2.97 2.97 0 0 0-2.113-.875H9.636l-.216-.325a2.981 2.981 0 0 0-2.486-1.33H5.563a40.099 40.099 0 0 0-2.057 6.393l-.099.428C4.852 30.496 9.708 32 16 32s11.147-1.504 12.594-2.007l-.098-.427zm0 0"  />
										<path d="M11.816 11.035l-.178.178c-.3.3-.587.61-.866.926h.593c2.037 0 4.033-.67 5.667-1.882a11.063 11.063 0 0 1-4.05.778h-1.166zm0 0"  />
										<path d="M17.104 8.397l-1.083.217c-.708.142-1.435.214-2.158.214h-1.724v1.104h.843a9.946 9.946 0 0 0 4.122-.904v-.631zm0 0"  />
										<path d="M10.767 18.759a5.386 5.386 0 0 1 3.74 1.588c.394.393.937.618 1.494.618.556 0 1.1-.225 1.493-.618a5.386 5.386 0 0 1 3.74-1.588 4.261 4.261 0 0 1 3.291-1.655 21.215 21.215 0 0 0-1.846-3.142l-1.064-.266-.649-2.594-.653 2.613-4.207.841 1.76-3.521h-.031a10.659 10.659 0 0 1-6.471 2.207H9.851a21.156 21.156 0 0 0-2.375 3.863 4.254 4.254 0 0 1 3.291 1.654zm0 0"  />
									</g>
								</g>
							</g>
						</symbol>
						<symbol id="ns-wedding-8" viewBox="0 0 32 32">
							<title>ns wedding 8</title>
							<g>
								<g class="nc-icon-wrapper" >
									<g id="Layer_1">
										<path d="M19.332 1.793c.016.039.022.072.033.105.006.011.006.022.011.033l1.732 3.034h5.218l1.732-3.034c.011-.011.011-.022.017-.033.011-.033.016-.066.033-.105l.016-.105c0-.011.006-.022.006-.033a.621.621 0 0 0-.017-.105V1.5C27.854.05 24.153 0 23.717 0c-.431 0-4.137.05-4.391 1.5v.05a.724.724 0 0 0-.022.105c0 .011.011.022.011.033l.017.105zm0 0"  />
										<path  d="M21.511 6.068h4.413v1.103h-4.413z" />
										<path d="M19.679 6.62a3.84 3.84 0 0 0 .177-1.214c0-1.545-1.672-2.924-1.865-3.078-.011-.011-.022-.011-.044-.022a.304.304 0 0 0-.094-.05.35.35 0 0 0-.099-.033.738.738 0 0 0-.105-.005.738.738 0 0 0-.105.005.34.34 0 0 0-.099.033.334.334 0 0 0-.088.05c-.022.011-.033.011-.044.022-.193.155-1.87 1.533-1.87 3.078-.008.412.053.822.182 1.214h4.054zm0 0"  />
										<path d="M31.992 10.486a1.655 1.655 0 0 0-1.661-1.654h-.006a1.616 1.616 0 0 0-1.153.48l-2.918 2.841c-.105-.006-.215-.017-.331-.017V8.275H21.51v3.861h-2.207V9.929h-3.31v2.207H14.34V6.62h-3.31v5.516H9.927v-3.31a1.107 1.107 0 0 0-1.104-1.103V6.62H4.962v1.103c-.608.004-1.1.495-1.103 1.103v3.437a4.96 4.96 0 0 0-3.85 4.843L.02 31.983 30.872 32l.011-14.894a4.895 4.895 0 0 0-1.417-3.475l2.041-1.975c.31-.31.485-.731.485-1.17zm-1.258.381l-2.129 2.063a4.79 4.79 0 0 0-1.043-.513l2.383-2.322a.538.538 0 0 1 .386-.16.502.502 0 0 1 .397.165.546.546 0 0 1 .006.767zM20.317 22.576l-4.111 4.11a1.12 1.12 0 0 1-1.587 0l-.001-.001-4.095-4.095c-.596-.558-.929-1.429-.914-2.395.014-.94.352-1.769.927-2.283a3.257 3.257 0 0 1 2.289-.932c.876 0 1.698.341 2.318.96l.269.269.269-.269a3.28 3.28 0 0 1 4.635 0 3.283 3.283 0 0 1 .001 4.636z"  />
										<path d="M9.377 1.103A1.106 1.106 0 0 0 8.274 0H5.516a1.107 1.107 0 0 0-1.103 1.103v4.413h4.965V1.103zm0 0"  />
										<path  d="M15.997 7.723h3.31v1.103h-3.31z" />
										<path d="M13.757 3.045a1.1 1.1 0 0 0-2.146.028l-.48 2.444h3.111l-.485-2.472zm0 0"  />
									</g>
								</g>
							</g>
						</symbol>
						<symbol id="icon-carpet1" viewBox="0 0 38 60"><path d="M34 18v33.9c0 .3-.1.6-.3.8-.4.3-.8.3-1.2.3H5a1 1 0 0 1-1-1V8c0-.6.4-1 1-1h28c.6 0 1 .4 1 1v10zm3-18a1 1 0 0 0-1 1v2h-2V1a1 1 0 0 0-2 0v2h-2V1a1 1 0 0 0-2 0v2h-2V1a1 1 0 0 0-2 0v2h-2V1a1 1 0 0 0-2 0v2h-2V1a1 1 0 0 0-2 0v2h-2V1a1 1 0 0 0-2 0v2h-2V1a1 1 0 0 0-2 0v2H6V1a1 1 0 0 0-2 0v2H2V1a1 1 0 0 0-2 0v58a1 1 0 0 0 2 0v-2h2v2a1 1 0 0 0 2 0v-2h2v2a1 1 0 0 0 2 0v-2h2v2a1 1 0 0 0 2 0v-2h2v2a1 1 0 0 0 2 0v-2h2v2a1 1 0 0 0 2 0v-2h2v2a1 1 0 0 0 2 0v-2h2v2a1 1 0 0 0 2 0v-2h2v2a1 1 0 0 0 2 0v-2h2v2a1 1 0 0 0 2 0V1c0-.6-.4-1-1-1z"/><path d="M8 16c0-.6.4-1 1-1h3v-3c0-.6.4-1 1-1h3V9H6v10h2v-3zM11 28.5l21 21V39h-3a1 1 0 0 1-1-1v-3h-3a1 1 0 0 1-1-1v-3h-3a1 1 0 0 1-1-1v-4c0-.6.4-1 1-1h3v-3c0-.6.4-1 1-1h3v-3c0-.6.4-1 1-1h3V9h-1.6L11 28.5z"/><path d="M30 22c0 .6-.4 1-1 1h-3v3c0 .6-.4 1-1 1h-3v2h3c.6 0 1 .4 1 1v3h3c.6 0 1 .4 1 1v3h2V19h-2v3zM27.6 9H18v3c0 .6-.4 1-1 1h-3v3c0 .6-.4 1-1 1h-3v3c0 .6-.4 1-1 1H6v9.6l2.8-2.8L27.6 9zM16 45h-3a1 1 0 0 1-1-1v-3H9a1 1 0 0 1-1-1v-3H6v14h6v-3c0-.6.4-1 1-1h3v-2z"/><path d="M6 33.4V35h3c.6 0 1 .4 1 1v3h3c.6 0 1 .4 1 1v3h3c.6 0 1 .4 1 1v4c0 .6-.4 1-1 1h-3v2h16.6L9.5 30 6 33.3z"/></symbol>
						<symbol id="test" viewBox="0 0 16 16">
							<title>lock open</title>
							<g>
								<g class="nc-icon-wrapper">
									<path d="M1,15c0,0.6,0.4,1,1,1h12c0.6,0,1-0.4,1-1V6c0-0.6-0.4-1-1-1h-2H6V4c0-1.1,0.9-2,2-2c0.6,0,1.1,0.2,1.5,0.7 l0.7,0.7l1.5-1.3L11,1.3C10.2,0.5,9.1,0,8,0C5.8,0,4,1.8,4,4v1H2C1.4,5,1,5.4,1,6V15z M8,8c1.1,0,2,0.9,2,2c0,0.7-0.4,1.4-1,1.7V13 H7v-1.3c-0.6-0.3-1-1-1-1.7C6,8.9,6.9,8,8,8z" />
								</g>
							</g>
						</symbol>
						<symbol id="ns-camera1" viewBox="0 0 32 32">
							<title>ns camera</title>
							<g>
								<g class="nc-icon-wrapper" >
									<path d="M27.253 6.273h-2.54l-1.602-1.602c-.93-.92-2.554-1.592-3.858-1.592h-6.408c-1.304 0-2.928.672-3.858 1.592L7.385 6.273h-2.54c-2.64 0-4.796 2.156-4.796 4.806v12.796a4.802 4.802 0 0 0 4.796 4.796h22.408a4.802 4.802 0 0 0 4.796-4.796V11.079c0-2.65-2.156-4.806-4.796-4.806zm-11.204 16a5.602 5.602 0 0 1-5.602-5.602c0-3.092 2.508-5.592 5.602-5.592s5.602 2.5 5.602 5.592a5.602 5.602 0 0 1-5.602 5.602zm9.602-7.522a2.073 2.073 0 0 1-2.078-2.08 2.078 2.078 0 1 1 4.156 0c0 1.158-.93 2.08-2.078 2.08zm0 0"  id="Layer_1" />
								</g>
							</g>
						</symbol>
					</svg>