<svg id="Layer_1" data-name="Layer 1" xmlns="http://www.w3.org/2000/svg" viewBox="0 0 68.03 68.03"><defs><style>.cls-1{fill:#e5007e;}.cls-2{fill:#fff;}</style></defs><title>Nu</title><circle class="cls-1" cx="34.02" cy="34.02" r="34.02"/><path class="cls-2" d="M115.08,52.33c-.94,1.53,2.79,7.09,5.83,9,4,2.59,6.16.29,6-.62-2.17,1.36-2.63-1.24-2.63-1.24s3.62,1.13,3.73-1.1c-2.95,1-3.64-4.55-3.64-4.55s5.73,5.95,6.8-.29c-1.86,2.09-2.68-.48-2.68-.48s1.9-.53,1.77-1.38c-.83.5-2.77-1.15-2.77-1.15a7.72,7.72,0,0,0,.89-3.71c-.06-2-.27-4-.27-4a1.78,1.78,0,0,0,2.64,0c-2.91-1.43-2.74-3.36-2.41-4.61a11.51,11.51,0,0,0-3.25-11.42c-3.17-2.76-4.93-.29-4.93-.29s-.46-.8-1-.77a1.54,1.54,0,0,0-1,.67s-.34-1-.87-.87a1,1,0,0,0-.67.63s-.57-3.06-7-5.75S94.77,22.06,93,23.59s-2.44,2-1.87,3.83c.21.64.54.87.89.91a11.58,11.58,0,0,0-.11,7.92c0,.1,0,.21.07.31a1.32,1.32,0,0,1-1.36-.6c-.19.91.8,1.08,1.42,1.11A2.89,2.89,0,0,1,91.6,39c-.92,1.37-1.94,2-2.27,2.92-.47,1.28,2,1.51,2,1.51v.48s-.79.77-.62,1.37c.23.8,1.81.51,1.81.51s-1.52.56-1.45,1.31a1.4,1.4,0,0,0,.71,1.06s-1,2.57,1.18,3.21,5.67-1.67,7.29,2.37c.82,2,2.75,5.67,2.17,8.25-.32,1.39-.93,5.49-1.34,8.38a30.65,30.65,0,0,0,4.09.28,30.13,30.13,0,0,0,15-4c-2.27-2.78-5.59-7.11-6.58-9.83C113.32,56.21,114,54.13,115.08,52.33Z" transform="translate(-71.16 -6.31)"/></svg>