<svg width="15" height="16" viewBox="0 0 15 16" fill="none" xmlns="http://www.w3.org/2000/svg">
<path d="M14.3388 11.9804C14.3388 11.9625 14.3226 11.9625 14.3226 11.9445C14.3226 11.9397 14.3207 11.9352 14.3173 11.9318C14.314 11.9284 14.3094 11.9266 14.3046 11.9266C14.2451 11.7624 14.152 11.6123 14.0314 11.4861L14.0151 11.4681L13.963 11.416C13.7955 11.248 13.5995 11.1111 13.3842 11.0115C13.3093 10.9704 13.2287 10.9407 13.1451 10.9234C13.0438 10.9026 12.941 10.8906 12.8376 10.8874C12.724 10.884 12.6104 10.89 12.4979 10.9054H12.4637C12.4395 10.9026 12.4151 10.909 12.3954 10.9234C11.9605 11.0125 11.5727 11.2565 11.3042 11.6101L11.27 11.6461C11.252 11.6622 11.2179 11.6982 11.2017 11.7162C10.9704 11.9494 10.7189 12.1618 10.4502 12.3508C10.1677 12.5274 9.87133 12.6808 9.56394 12.8092H9.54777C9.27558 12.9165 8.99625 13.0049 8.71181 13.0736C7.94572 13.2427 7.15009 13.2242 6.39271 13.0196C6.3244 13.0016 6.2381 12.9674 6.16979 12.9494C6.10147 12.9315 6.03496 12.8973 5.96664 12.8794C5.91993 12.8645 5.87427 12.8465 5.83001 12.8254C5.74081 12.7925 5.65476 12.7516 5.57294 12.7032C5.56817 12.7032 5.5636 12.7013 5.56022 12.6979C5.55686 12.6946 5.55496 12.6899 5.55496 12.6852C4.94176 12.3813 4.39252 11.9627 3.93698 11.452C3.48568 10.9343 3.14875 10.3272 2.94822 9.67035C2.6953 8.8256 2.6339 7.93509 2.76844 7.06361C2.76844 7.06361 3.36529 2.92878 7.85069 2.8335C8.85779 2.8761 9.83032 3.213 10.648 3.80248C8.06282 6.47215 4.67406 9.91845 4.67406 9.91845C5.11652 10.7153 5.84022 11.3185 6.70372 11.6101C7.19091 11.1157 14.3388 3.77552 14.3388 3.77552C14.3388 3.77552 13.6628 2.55125 12.7011 1.84653C11.5861 0.877344 10.2106 0.257741 8.74597 0.0649543C4.89159 -0.445608 0.95271 2.05687 0.100575 6.67529C-0.564593 11.0115 2.14642 15.1248 6.42687 15.8924C9.05338 16.3868 12.4979 15.1876 14.4071 12.1566C14.3764 12.1013 14.3534 12.042 14.3388 11.9804Z" fill="#00747B"/>
</svg>
 