<svg width="141" height="146" viewBox="0 0 141 146" fill="none" xmlns="http://www.w3.org/2000/svg">
<g filter="url(#filter0_d)">
<path d="M100.188 64.7654C99.7203 44.918 83.6961 28.9609 63.9328 28.9609C44.1695 28.9609 28.0785 44.918 27.6779 64.7654C23.338 70.5021 20.8008 77.2937 20.8008 84.5469C20.8008 104.79 40.0967 121.209 63.9328 121.209C87.7689 121.209 107.065 104.79 107.065 84.5469C107.065 77.2937 104.528 70.5021 100.188 64.7654Z" fill="#F4C871"/>
<path d="M30.683 50.8523C30.683 50.8523 25.2748 18.2128 29.6814 16.8281C34.0213 15.4434 51.1139 31.4005 51.1139 31.4005C51.1139 31.4005 38.6951 51.9073 30.683 50.8523Z" fill="#F4C871"/>
<path d="M78.8894 32.2579C78.8894 32.2579 101.657 17.158 104.395 19.5317C107.132 21.9715 98.9866 49.4018 97.2506 51.1162C95.4479 52.8965 77.4873 34.4998 78.8894 32.2579Z" fill="#F4C871"/>
<path d="M100.589 64.7653C98.1853 64.04 91.6421 69.5129 86.5677 70.6998C81.4266 71.8867 77.8211 68.5238 75.0169 64.6994C70.3431 58.3034 59.9273 58.1715 53.3173 64.6994C49.9122 68.0622 46.8408 71.8207 41.7665 70.6998C36.6254 69.5129 30.0821 64.1059 27.7452 64.7653C23.4053 70.502 20.8682 77.2936 20.8682 84.5468C20.8682 104.79 40.164 121.209 64.0002 121.209C64.0669 121.209 64.1337 121.209 64.2005 121.209C64.2672 121.209 64.334 121.209 64.4008 121.209C88.2369 121.209 107.533 104.79 107.533 84.5468C107.466 77.2936 104.929 70.502 100.589 64.7653Z" fill="white"/>
<g opacity="0.2">
<path opacity="0.2" d="M27.6115 64.7656C27.6115 64.7656 21.6024 85.4703 30.9499 99.8448C43.5023 119.033 64.2671 121.209 64.2671 121.209C64.2671 121.209 36.5584 121.143 26.2762 102.548C15.9939 83.8877 22.2033 72.1507 27.6115 64.7656Z" fill="#231F20"/>
</g>
<path d="M47.4416 33.049C47.4416 33.049 32.2853 18.6085 31.217 20.9163C30.1488 23.2242 33.3536 47.6873 33.3536 47.6873C33.3536 47.6873 38.695 37.2031 47.4416 33.049Z" fill="#A5736E"/>
<path d="M82.4282 34.2359C82.4282 34.2359 100.522 22.6308 101.257 24.3452C101.991 26.0596 94.6467 48.083 94.6467 48.083C94.6467 48.083 90.7074 38.456 82.4282 34.2359Z" fill="#A5736E"/>
<path d="M63.9332 122C39.6965 122 20 105.186 20 84.613C20 77.4916 22.4037 70.5681 26.8771 64.5677C27.0106 59.7542 28.0121 55.1385 29.9484 50.7866C29.0137 45.05 25.1411 19.4 28.5463 16.4987C29.7481 15.5096 32.3521 15.3118 41.8331 22.565C46.9074 26.4554 51.6479 30.7414 51.7147 30.8073L50.6464 31.9283C50.5797 31.8623 45.9059 27.6423 40.8983 23.7519C31.4173 16.4987 29.7481 17.4878 29.6146 17.6196C27.7451 19.2022 29.1472 35.6208 31.5508 50.6547L31.6176 50.8526L31.5508 51.0504C29.6813 55.3364 28.6131 59.952 28.5463 64.6996V64.9634L28.4127 65.1612C24.0061 70.9638 21.736 77.6235 21.736 84.4811C21.736 104.263 40.7648 120.352 64.0668 120.352C87.4355 120.352 106.398 104.263 106.398 84.4811C106.398 77.6235 104.061 70.8978 99.7208 65.1612L99.5873 64.9634V64.6996C99.5205 61.4686 97.8513 54.9407 96.7162 51.3141L96.6495 51.0504L96.7162 50.7866C100.589 40.4343 105.863 23.7519 104.395 20.3231C104.328 20.1912 104.261 20.0594 103.927 19.9934C100.522 19.0703 87.1684 27.3126 79.5569 32.7855L78.6222 31.5326C80.692 30.016 99.1199 17.0262 104.328 18.4768C105.062 18.6746 105.53 19.1362 105.797 19.7297C107.933 24.6751 99.5873 47.4238 98.2519 51.0504C99.2534 54.2814 100.989 60.7433 101.123 64.3699C105.596 70.3703 108 77.2938 108 84.4811C107.866 105.252 88.1032 122 63.9332 122Z" fill="#A5736E"/>
<path d="M44.5039 34.6319C44.5039 34.6319 45.038 34.1703 46.1063 33.5109C47.1746 32.8515 48.7103 31.9943 50.6465 31.1371C52.5828 30.2799 54.9865 29.4227 57.5904 28.8952C58.9258 28.6315 60.2611 28.4337 61.73 28.3018C63.1321 28.1699 64.601 28.1699 66.0031 28.3018C67.472 28.4337 68.8742 28.5655 70.2763 28.8293C71.6784 29.093 73.0138 29.4887 74.2824 29.8843C76.8195 30.7415 79.0896 31.7965 80.9591 32.8515C82.8286 33.9065 84.2308 34.9616 85.1655 35.7528C86.1003 36.5441 86.6344 37.0716 86.6344 37.0716C86.6344 37.0716 86.0335 36.6759 85.032 36.0166C83.9637 35.3572 82.428 34.5 80.5585 33.6428C78.689 32.7856 76.4189 31.8624 73.8817 31.1371C72.6132 30.8074 71.3446 30.4778 70.0092 30.2799C68.6738 30.0162 67.2717 29.8843 65.9364 29.8184C64.601 29.7524 63.1989 29.6865 61.7968 29.8184C60.4614 29.8843 59.1261 30.0162 57.8575 30.2799C55.3203 30.6756 52.9166 31.3349 50.9804 31.9943C48.9773 32.6537 47.3749 33.3131 46.2399 33.8406C45.1716 34.3022 44.5039 34.6319 44.5039 34.6319Z" fill="#7A6439"/>
<path d="M52.4493 50.5888C54.4037 50.5888 55.988 49.0242 55.988 47.0941C55.988 45.164 54.4037 43.5994 52.4493 43.5994C50.495 43.5994 48.9106 45.164 48.9106 47.0941C48.9106 49.0242 50.495 50.5888 52.4493 50.5888Z" fill="white"/>
<path d="M75.818 50.8527C77.7724 50.8527 79.3567 49.2881 79.3567 47.358C79.3567 45.4279 77.7724 43.8633 75.818 43.8633C73.8636 43.8633 72.2793 45.4279 72.2793 47.358C72.2793 49.2881 73.8636 50.8527 75.818 50.8527Z" fill="white"/>
<path d="M63.4653 72.1505C63.4653 81.4478 63.4653 90.811 63.4653 100.108C63.4653 100.965 64.8007 100.965 64.8007 100.108C64.8007 90.811 64.8007 81.4478 64.8007 72.1505C64.7339 71.2933 63.4653 71.2933 63.4653 72.1505Z" fill="#7A6439"/>
<g opacity="0.1">
<path opacity="0.1" d="M33.2864 47.6872C33.2864 47.6872 35.5566 43.2034 39.5626 38.9834C38.3608 39.7087 36.2242 40.434 34.8221 38.324C32.6855 35.2249 31.1499 20.9163 31.1499 20.9163C30.1484 23.29 33.2864 47.6872 33.2864 47.6872Z" fill="#231F20"/>
</g>
<path d="M81.0259 82.7008C80.7588 91.8002 73.4811 99.4491 64.0668 99.4491C54.6526 99.4491 47.3749 91.8662 47.1078 82.7008C47.1078 81.8436 45.7725 81.8436 45.7725 82.7008C46.0395 92.5256 53.9181 100.768 64.0668 100.768C74.2155 100.768 82.0941 92.5256 82.3612 82.7008C82.3612 81.9095 81.0259 81.9095 81.0259 82.7008Z" fill="#7A6439"/>
<g opacity="0.1">
<path opacity="0.1" d="M92.9776 40.1706C92.1764 40.6981 91.3084 40.9618 90.4404 41.0278C93.3114 44.6544 94.7136 48.0172 94.7136 48.0172C94.7136 48.0172 99.187 34.4339 100.789 27.7742C100.856 27.8401 95.1142 38.7859 92.9776 40.1706Z" fill="#231F20"/>
</g>
<path d="M57.123 52.7648C57.123 52.7648 51.9151 51.0504 43.903 51.446C39.8969 51.6438 30.4827 53.2263 30.4827 53.2263L30.3491 56.9189L32.2186 58.0398C32.2186 58.0398 31.7512 70.1725 43.7027 71.1616C55.5874 72.1506 57.5236 57.9739 57.123 52.7648Z" fill="#424242"/>
<path d="M71.1444 52.7648C71.1444 52.7648 76.3523 51.0504 84.3645 51.512C88.3705 51.7098 97.7848 53.2923 97.7848 53.2923L97.9183 56.9849L96.0488 58.1058C96.0488 58.1058 96.4495 70.2385 84.5648 71.2276C72.6133 72.0848 70.6771 57.974 71.1444 52.7648Z" fill="#424242"/>
<path d="M57.1226 52.7647C57.1226 52.7647 60.9284 50.8525 64.3336 50.8525C67.7387 50.8525 71.1439 52.7647 71.1439 52.7647L71.7448 55.0726L71.1439 55.9957C71.1439 55.9957 67.6719 53.4241 64.4003 53.4241C61.1287 53.4241 57.0559 55.9957 57.0559 55.9957C57.0559 55.9957 56.3882 55.2704 56.3882 55.1385C56.3882 55.0067 57.1226 52.7647 57.1226 52.7647Z" fill="#424242"/>
<path d="M64.1334 72.1504C68.079 72.1504 71.2776 70.3496 71.2776 68.1282C71.2776 65.9068 68.079 64.106 64.1334 64.106C60.1878 64.106 56.9893 65.9068 56.9893 68.1282C56.9893 70.3496 60.1878 72.1504 64.1334 72.1504Z" fill="#424242"/>
<path d="M60.8616 68.1285C61.636 68.1285 62.2637 67.5086 62.2637 66.7438C62.2637 65.9791 61.636 65.3591 60.8616 65.3591C60.0872 65.3591 59.4595 65.9791 59.4595 66.7438C59.4595 67.5086 60.0872 68.1285 60.8616 68.1285Z" fill="white"/>
</g>
<defs>
<filter id="filter0_d" x="0" y="0" width="128" height="146" filterUnits="userSpaceOnUse" color-interpolation-filters="sRGB">
<feFlood flood-opacity="0" result="BackgroundImageFix"/>
<feColorMatrix in="SourceAlpha" type="matrix" values="0 0 0 0 0 0 0 0 0 0 0 0 0 0 0 0 0 0 127 0"/>
<feOffset dy="4"/>
<feGaussianBlur stdDeviation="10"/>
<feColorMatrix type="matrix" values="0 0 0 0 0.976471 0 0 0 0 0.701961 0 0 0 0 0.670588 0 0 0 0.25 0"/>
<feBlend mode="normal" in2="BackgroundImageFix" result="effect1_dropShadow"/>
<feBlend mode="normal" in="SourceGraphic" in2="effect1_dropShadow" result="shape"/>
</filter>
</defs>
</svg>
