<svg width="127" height="146" viewBox="0 0 127 146" fill="none" xmlns="http://www.w3.org/2000/svg">
<g filter="url(#filter0_d)">
<path d="M99.2768 64.7654C98.8148 44.918 82.9726 28.9609 63.4339 28.9609C43.8952 28.9609 27.987 44.918 27.5909 64.7654C23.3003 70.5021 20.792 77.2937 20.792 84.5469C20.792 104.79 39.8686 121.209 63.4339 121.209C86.9991 121.209 106.076 104.79 106.076 84.5469C106.076 77.2937 103.567 70.5021 99.2768 64.7654Z" fill="#F4C871"/>
<path d="M30.627 50.8525C30.627 50.8525 25.2803 18.213 29.6369 16.8283C33.9275 15.4436 50.8258 31.4007 50.8258 31.4007C50.8258 31.4007 38.4821 51.9075 30.627 50.8525Z" fill="#F4C871"/>
<path d="M78.2862 32.2576C78.2862 32.2576 100.795 17.1577 103.502 19.5315C106.208 21.9712 98.1549 49.4016 96.4387 51.116C94.6565 52.8963 76.834 34.4995 78.2862 32.2576Z" fill="#F4C871"/>
<path d="M99.6723 64.7651C97.296 64.0398 90.8271 69.5126 85.8104 70.6995C80.7277 71.8864 77.1632 68.5236 74.3908 64.6991C69.7702 58.3031 59.4728 58.1712 52.9379 64.6991C49.5714 68.062 46.535 71.8205 41.5183 70.6995C36.4356 69.5126 29.9667 64.1057 27.6564 64.7651C23.3658 70.5017 20.8574 77.2934 20.8574 84.5466C20.8574 104.79 39.9341 121.208 63.4993 121.208C63.5653 121.208 63.6313 121.208 63.6973 121.208C63.7633 121.208 63.8293 121.208 63.8954 121.208C87.4606 121.208 106.537 104.79 106.537 84.5466C106.471 77.2934 103.963 70.5017 99.6723 64.7651Z" fill="white"/>
<g opacity="0.2">
<path opacity="0.2" d="M27.5911 64.7651C27.5911 64.7651 21.6503 85.4698 30.8916 99.8443C43.3013 119.032 63.8302 121.208 63.8302 121.208C63.8302 121.208 36.4364 121.142 26.271 102.548C16.1056 83.8872 22.1784 72.1502 27.5911 64.7651Z" fill="#231F20"/>
</g>
<path d="M47.1298 33.049C47.1298 33.049 32.1457 18.6085 31.0896 20.9163C30.0334 23.2242 33.2019 47.6873 33.2019 47.6873C33.2019 47.6873 38.5486 37.2031 47.1298 33.049Z" fill="#A5736E"/>
<path d="M81.7852 34.2359C81.7852 34.2359 99.6736 22.6308 100.4 24.3452C101.126 26.0596 93.8648 48.083 93.8648 48.083C93.8648 48.083 89.9043 38.456 81.7852 34.2359Z" fill="#A5736E"/>
<path d="M63.434 122C39.4727 122 20 105.186 20 84.613C20 77.4916 22.3763 70.5681 26.7989 64.5677C26.931 59.7542 27.9211 55.1385 29.8354 50.7866C28.9112 45.05 25.0827 19.4 28.4492 16.4987C29.6373 15.5096 32.2117 15.3118 41.585 22.565C46.6017 26.4554 51.2883 30.7414 51.3543 30.8073L50.2982 31.9283C50.2322 31.8623 45.6115 27.6423 40.6609 23.7519C31.3536 16.4987 29.6373 17.4878 29.5053 17.6196C27.6571 19.2022 29.0432 35.6208 31.4196 50.6547L31.4856 50.8526L31.4196 51.0504C29.5713 55.3364 28.5152 59.952 28.4492 64.6996V64.9634L28.3172 65.1612C23.9606 70.9638 21.7162 77.6235 21.7162 84.4811C21.7162 104.263 40.5288 120.352 63.566 120.352C86.6032 120.352 105.416 104.263 105.416 84.4811C105.416 77.6235 103.105 70.8978 98.8149 65.1612L98.6829 64.9634V64.6996C98.6168 61.4686 96.9666 54.9407 95.8445 51.3141L95.7785 51.0504L95.8445 50.7866C99.673 40.4343 104.888 23.7519 103.436 20.3231C103.37 20.1912 103.303 20.0594 102.973 19.9934C99.607 19.0703 86.4052 27.3126 78.8801 32.7855L77.956 31.5326C80.0023 30.016 98.2208 17.0262 103.37 18.4768C104.096 18.6746 104.558 19.1362 104.822 19.7297C106.934 24.6751 98.6829 47.4238 97.3627 51.0504C98.3528 54.2814 100.069 60.7433 100.201 64.3699C104.624 70.3703 107 77.2938 107 84.4811C106.868 105.252 87.3953 122 63.434 122Z" fill="#A5736E"/>
<path d="M44.291 34.6316C44.291 34.6316 44.8191 34.1701 45.8752 33.5107C46.9314 32.8513 48.4496 31.9941 50.3639 31.1369C52.2781 30.2797 54.6544 29.4225 57.2288 28.895C58.549 28.6312 59.8692 28.4334 61.3214 28.3015C62.7076 28.1697 64.1598 28.1697 65.5459 28.3015C66.9981 28.4334 68.3843 28.5653 69.7705 28.829C71.1567 29.0928 72.4769 29.4884 73.7311 29.8841C76.2394 30.7413 78.4837 31.7963 80.332 32.8513C82.1802 33.9063 83.5664 34.9613 84.4906 35.7526C85.4147 36.5438 85.9428 37.0713 85.9428 37.0713C85.9428 37.0713 85.3487 36.6757 84.3585 36.0163C83.3024 35.3569 81.7842 34.4997 79.9359 33.6425C78.0877 32.7853 75.8434 31.8622 73.335 31.1369C72.0808 30.8072 70.8267 30.4775 69.5065 30.2797C68.1863 30.0159 66.8001 29.8841 65.4799 29.8181C64.1598 29.7522 62.7736 29.6862 61.3874 29.8181C60.0672 29.8841 58.747 30.0159 57.4928 30.2797C54.9845 30.6753 52.6082 31.3347 50.6939 31.9941C48.7136 32.6535 47.1294 33.3129 46.0073 33.8404C44.8851 34.3019 44.291 34.6316 44.291 34.6316Z" fill="#7A6439"/>
<path d="M52.1459 50.5891C54.0781 50.5891 55.6444 49.0244 55.6444 47.0944C55.6444 45.1643 54.0781 43.5996 52.1459 43.5996C50.2138 43.5996 48.6475 45.1643 48.6475 47.0944C48.6475 49.0244 50.2138 50.5891 52.1459 50.5891Z" fill="white"/>
<path d="M75.2495 50.8527C77.1816 50.8527 78.7479 49.2881 78.7479 47.358C78.7479 45.4279 77.1816 43.8633 75.2495 43.8633C73.3173 43.8633 71.751 45.4279 71.751 47.358C71.751 49.2881 73.3173 50.8527 75.2495 50.8527Z" fill="white"/>
<path d="M83.0391 75.1177C83.0391 75.1177 80.5968 81.2499 74.5239 82.7665C68.4511 84.2831 63.6324 79.4037 63.6324 79.4037C63.6324 79.4037 58.8798 84.2831 52.7409 82.7665C46.6681 81.2499 44.2258 75.1177 44.2258 75.1177C44.2258 75.1177 43.8957 94.4376 50.0346 103.669C55.9754 112.637 63.6324 112.637 63.6324 112.637C63.6324 112.637 71.2895 112.637 77.2303 103.669C83.3692 94.4376 83.0391 75.1177 83.0391 75.1177Z" fill="#D08D87"/>
<path d="M49.5723 103.01C49.5723 103.01 55.117 96.6797 63.4342 96.6797C71.7513 96.6797 77.2301 103.669 77.2301 103.669C77.2301 103.669 71.4873 112.769 63.6322 112.637C55.7771 112.505 49.5723 103.01 49.5723 103.01Z" fill="#EA9E98"/>
<path d="M82.3788 74.9203C79.3423 82.3713 69.903 84.6791 64.0942 78.8766C63.8302 78.6128 63.4341 78.6128 63.1701 78.8766C57.3613 84.6791 47.922 82.3713 44.8856 74.9203C44.6215 74.2609 43.6314 74.3268 43.6314 75.1181C43.4334 87.6464 45.0176 104.988 57.5593 111.516C69.1109 117.516 78.9463 105.252 81.5866 94.8996C83.2369 88.5036 83.8309 81.7119 83.7649 75.1181C83.7649 74.2609 82.4447 74.2609 82.4447 75.1181C82.6428 86.9211 81.3886 103.142 70.1671 109.868C66.6686 111.978 63.4341 112.571 59.6716 111.054C51.6185 107.824 48.054 99.6472 46.4698 91.7346C45.4137 86.3276 44.8856 80.6569 45.0176 75.1181C44.6215 75.184 44.1595 75.25 43.7634 75.3159C45.2156 78.8106 48.186 81.9097 51.8165 83.1626C54.3249 84.0198 57.0313 83.822 59.5396 82.8988C60.7938 82.3713 61.9819 81.7119 63.1041 80.8547C63.5001 80.525 64.6223 79.9975 63.8302 79.9316C62.9721 79.8657 64.2262 80.591 64.5563 80.8547C65.5464 81.58 66.6026 82.2394 67.7247 82.701C70.2991 83.822 73.1375 84.0198 75.7778 83.1626C79.4083 81.9757 82.4448 78.8106 83.8309 75.3159C83.963 74.5247 82.7088 74.195 82.3788 74.9203Z" fill="#7A6439"/>
<path d="M62.9717 72.1507C62.9717 74.5904 62.9717 76.9642 62.9717 79.4039C62.9717 80.2611 64.2919 80.2611 64.2919 79.4039C64.2919 76.9642 64.2919 74.5904 64.2919 72.1507C64.2919 71.2935 62.9717 71.2935 62.9717 72.1507Z" fill="#7A6439"/>
<g opacity="0.1">
<path opacity="0.1" d="M33.2019 47.6875C33.2019 47.6875 35.4462 43.2037 39.4067 38.9836C38.2186 39.7089 36.1063 40.4342 34.7201 38.3242C32.6078 35.2251 31.0896 20.9165 31.0896 20.9165C30.0334 23.2903 33.2019 47.6875 33.2019 47.6875Z" fill="#231F20"/>
</g>
<g opacity="0.1">
<path opacity="0.1" d="M92.148 40.1708C91.3559 40.6983 90.4978 40.9621 89.6396 41.028C92.478 44.6546 93.8642 48.0175 93.8642 48.0175C93.8642 48.0175 98.2868 34.4342 99.8711 27.7744C99.8711 27.8404 94.1943 38.7861 92.148 40.1708Z" fill="#231F20"/>
</g>
<path d="M42.6419 53.49C39.9355 50.7865 35.5789 50.7865 32.8726 53.49C30.1662 56.1935 30.1662 60.5454 32.8726 63.2489L42.6419 73.0078L52.4113 63.2489C55.1176 60.5454 55.1176 56.1935 52.4113 53.49C49.7049 50.7865 45.3483 50.7865 42.6419 53.49Z" fill="#EC442E"/>
<path d="M84.5569 53.49C81.8506 50.7865 77.494 50.7865 74.7876 53.49C72.0812 56.1935 72.0812 60.5454 74.7876 63.2489L84.5569 73.0078L94.3263 63.2489C97.0326 60.5454 97.0326 56.1935 94.3263 53.49C91.6199 50.7865 87.2633 50.7865 84.5569 53.49Z" fill="#EC442E"/>
<path d="M63.6323 72.1504C67.5331 72.1504 70.6953 70.3496 70.6953 68.1282C70.6953 65.9068 67.5331 64.106 63.6323 64.106C59.7315 64.106 56.5693 65.9068 56.5693 68.1282C56.5693 70.3496 59.7315 72.1504 63.6323 72.1504Z" fill="#424242"/>
<path d="M60.3969 68.1288C61.1625 68.1288 61.7831 67.5088 61.7831 66.7441C61.7831 65.9793 61.1625 65.3594 60.3969 65.3594C59.6314 65.3594 59.0107 65.9793 59.0107 66.7441C59.0107 67.5088 59.6314 68.1288 60.3969 68.1288Z" fill="white"/>
</g>
<defs>
<filter id="filter0_d" x="0" y="0" width="127" height="146" filterUnits="userSpaceOnUse" color-interpolation-filters="sRGB">
<feFlood flood-opacity="0" result="BackgroundImageFix"/>
<feColorMatrix in="SourceAlpha" type="matrix" values="0 0 0 0 0 0 0 0 0 0 0 0 0 0 0 0 0 0 127 0"/>
<feOffset dy="4"/>
<feGaussianBlur stdDeviation="10"/>
<feColorMatrix type="matrix" values="0 0 0 0 0.976471 0 0 0 0 0.701961 0 0 0 0 0.670588 0 0 0 0.25 0"/>
<feBlend mode="normal" in2="BackgroundImageFix" result="effect1_dropShadow"/>
<feBlend mode="normal" in="SourceGraphic" in2="effect1_dropShadow" result="shape"/>
</filter>
</defs>
</svg>
