<svg width="141" height="146" viewBox="0 0 141 146" fill="none" xmlns="http://www.w3.org/2000/svg">
<g filter="url(#filter0_d)">
<path d="M106.839 64.7655C106.379 44.918 90.5946 28.9609 71.1277 28.9609C51.6609 28.9609 35.8112 44.918 35.4166 64.7655C31.1417 70.5021 28.6426 77.2938 28.6426 84.5469C28.6426 104.79 47.6491 121.208 71.1277 121.208C94.6064 121.208 113.613 104.79 113.613 84.5469C113.613 77.2938 111.114 70.5021 106.839 64.7655Z" fill="#F4C871"/>
<path d="M38.4423 50.8518C38.4423 50.8518 33.1152 18.2123 37.4558 16.8276C41.7306 15.4429 58.5668 31.4 58.5668 31.4C58.5668 31.4 46.2685 51.9068 38.4423 50.8518Z" fill="#F4C871"/>
<path d="M85.9262 32.2569C85.9262 32.2569 108.353 17.157 111.049 19.5308C113.745 21.9706 105.722 49.4009 104.012 51.1152C102.302 52.8297 84.4794 34.4988 85.9262 32.2569Z" fill="#F4C871"/>
<path d="M107.233 64.7656C104.866 64.0403 98.4204 69.5131 93.4222 70.7C88.3582 71.8869 84.8068 68.524 82.0446 64.6996C77.4409 58.3036 67.1814 58.1718 60.6705 64.6996C57.3164 68.0625 54.2912 71.821 49.2929 70.7C44.2289 69.5131 37.7838 64.1062 35.4819 64.7656C31.2071 70.5022 28.708 77.2939 28.708 84.547C28.708 104.79 47.7145 121.209 71.1931 121.209C71.2589 121.209 71.3247 121.209 71.3904 121.209C71.4562 121.209 71.522 121.209 71.5878 121.209C95.0664 121.209 114.073 104.79 114.073 84.547C114.007 77.2939 111.508 70.5022 107.233 64.7656Z" fill="white"/>
<g opacity="0.2">
<path opacity="0.2" d="M35.4167 64.7656C35.4167 64.7656 29.4977 85.4703 38.705 99.8448C51.0691 119.033 71.5225 121.208 71.5225 121.208C71.5225 121.208 44.2294 121.143 34.1014 102.549C23.9733 83.8878 30.0239 72.1507 35.4167 64.7656Z" fill="#231F20"/>
</g>
<path d="M54.8835 33.0483C54.8835 33.0483 39.9545 18.6078 38.9022 20.9156C37.85 23.2234 41.0068 47.6866 41.0068 47.6866C41.0068 47.6866 46.3339 37.2024 54.8835 33.0483Z" fill="#A5736E"/>
<path d="M89.4102 34.2358C89.4102 34.2358 107.233 22.6306 107.956 24.3449C108.68 26.0594 101.445 48.0828 101.445 48.0828C101.445 48.0828 97.4994 38.4557 89.4102 34.2358Z" fill="#A5736E"/>
<path d="M71.1278 122C47.2546 122 27.8535 105.186 27.8535 84.613C27.8535 77.4917 30.2211 70.5682 34.6275 64.5678C34.759 59.7542 35.7455 55.1385 37.6527 50.7866C36.732 45.05 32.9175 19.4 36.2716 16.4987C37.4554 15.5096 40.0203 15.3118 49.3591 22.565C54.3574 26.4554 59.0268 30.7414 59.0926 30.8073L58.0403 31.9283C57.9745 31.8624 53.3709 27.6423 48.4384 23.7519C39.1653 16.4987 37.4554 17.4878 37.3239 17.6196C35.4824 19.2021 36.8635 35.6208 39.2311 50.6548L39.2969 50.8525L39.2311 51.0504C37.3896 55.3364 36.3374 59.9521 36.2716 64.6997V64.9634L36.1401 65.1612C31.7995 70.9638 29.5634 77.6236 29.5634 84.4812C29.5634 104.262 48.3069 120.351 71.2594 120.351C94.2777 120.351 112.955 104.262 112.955 84.4812C112.955 77.6236 110.653 70.8979 106.379 65.1612L106.247 64.9634V64.6997C106.181 61.4687 104.537 54.9408 103.419 51.3142L103.353 51.0504L103.419 50.7866C107.234 40.4343 112.429 23.7519 110.982 20.3231C110.917 20.1913 110.851 20.0593 110.522 19.9934C107.234 19.0703 94.0146 27.3126 86.5172 32.7855L85.5965 31.5327C87.6352 30.0161 105.787 17.0922 110.917 18.4768C111.64 18.6747 112.1 19.1362 112.363 19.7297C114.468 24.675 106.247 47.4238 104.932 51.0504C105.918 54.2814 107.628 60.7434 107.76 64.3699C112.166 70.3704 114.534 77.2938 114.534 84.4812C114.402 105.252 95.0011 122 71.1278 122Z" fill="#A5736E"/>
<path d="M52.0557 34.6316C52.0557 34.6316 52.5818 34.17 53.634 33.5106C54.6863 32.8513 56.199 31.994 58.1062 31.1368C60.0134 30.2797 62.381 29.4225 64.9459 28.8949C66.2612 28.6312 67.5765 28.4334 69.0234 28.3015C70.4045 28.1697 71.8514 28.1697 73.2325 28.3015C74.6793 28.4334 76.0604 28.5653 77.4415 28.829C78.8226 29.0928 80.1379 29.4884 81.3875 29.884C83.8866 30.7412 86.1227 31.7963 87.9641 32.8513C89.8056 33.9062 91.1867 34.9613 92.1074 35.7525C93.0282 36.5438 93.5543 37.0713 93.5543 37.0713C93.5543 37.0713 92.9624 36.6756 91.9759 36.0163C90.9237 35.3569 89.411 34.4997 87.5696 33.6426C85.7281 32.7853 83.492 31.8622 80.9929 31.1368C79.7433 30.8071 78.4938 30.4775 77.1785 30.2797C75.8631 30.0159 74.482 29.884 73.1667 29.8181C71.8514 29.7522 70.4703 29.6862 69.0892 29.8181C67.7738 29.884 66.4585 30.0159 65.209 30.2797C62.7098 30.6753 60.3422 31.3347 58.435 31.994C56.462 32.6534 54.8836 33.3128 53.7656 33.8403C52.6475 34.3019 52.0557 34.6316 52.0557 34.6316Z" fill="#7A6439"/>
<path d="M59.8821 50.5893C61.8072 50.5893 63.3678 49.0247 63.3678 47.0946C63.3678 45.1645 61.8072 43.5999 59.8821 43.5999C57.957 43.5999 56.3965 45.1645 56.3965 47.0946C56.3965 49.0247 57.957 50.5893 59.8821 50.5893Z" fill="white"/>
<path d="M82.9007 50.8525C84.8257 50.8525 86.3863 49.2879 86.3863 47.3578C86.3863 45.4277 84.8257 43.863 82.9007 43.863C80.9756 43.863 79.415 45.4277 79.415 47.3578C79.415 49.2879 80.9756 50.8525 82.9007 50.8525Z" fill="white"/>
<path d="M90.6601 75.1177C90.6601 75.1177 88.2268 81.2499 82.1763 82.7665C76.1257 84.2831 71.3248 79.4037 71.3248 79.4037C71.3248 79.4037 66.5896 84.2831 60.4733 82.7665C54.4228 81.2499 51.9894 75.1177 51.9894 75.1177C51.9894 75.1177 51.6606 94.4376 57.7769 103.669C63.6959 112.636 71.3248 112.636 71.3248 112.636C71.3248 112.636 78.9537 112.636 84.8727 103.669C90.9889 94.4376 90.6601 75.1177 90.6601 75.1177Z" fill="#D08D87"/>
<path d="M57.3174 103.01C57.3174 103.01 62.8418 96.6797 71.1283 96.6797C79.4149 96.6797 84.8735 103.669 84.8735 103.669C84.8735 103.669 79.1518 112.769 71.3256 112.637C63.4994 112.505 57.3174 103.01 57.3174 103.01Z" fill="#EA9E98"/>
<path d="M90.0039 74.9198C86.9786 82.3708 77.574 84.6787 71.7865 78.8761C71.5235 78.6123 71.1289 78.6123 70.8658 78.8761C65.0783 84.6787 55.6737 82.3708 52.6485 74.9198C52.3854 74.2604 51.3989 74.3264 51.3989 75.1176C51.2016 87.6459 52.78 104.988 65.2756 111.516C76.7848 117.516 86.584 105.252 89.2146 94.8991C90.8588 88.5031 91.4507 81.7114 91.3849 75.1176C91.3849 74.2604 90.0696 74.2604 90.0696 75.1176C90.2669 86.9206 89.0174 103.142 77.8371 109.867C74.3514 111.977 71.1289 112.57 67.3802 111.054C59.3567 107.823 55.8053 99.6467 54.2269 91.7341C53.1746 86.3271 52.6485 80.6565 52.78 75.1176C52.3854 75.1836 51.9251 75.2495 51.5305 75.3154C52.9773 78.8102 55.9368 81.9093 59.5539 83.1621C62.0531 84.0192 64.7495 83.8215 67.2486 82.8983C68.4982 82.3708 69.682 81.7114 70.8 80.8542C71.1946 80.5245 72.3126 79.997 71.5235 79.9311C70.6685 79.8652 71.9181 80.5904 72.2469 80.8542C73.2334 81.5796 74.2857 82.239 75.4037 82.7005C77.9686 83.8215 80.7965 84.0192 83.4272 83.1621C87.0444 81.9752 90.0696 78.8102 91.4507 75.3154C91.5822 74.5242 90.3327 74.1945 90.0039 74.9198Z" fill="#7A6439"/>
<path d="M70.668 72.1509C70.668 74.5906 70.668 76.9644 70.668 79.4041C70.668 80.2614 71.9833 80.2614 71.9833 79.4041C71.9833 76.9644 71.9833 74.5906 71.9833 72.1509C71.9833 71.2938 70.668 71.2938 70.668 72.1509Z" fill="#7A6439"/>
<g opacity="0.1">
<path opacity="0.1" d="M41.0068 47.6863C41.0068 47.6863 43.2428 43.2024 47.1888 38.9824C46.005 39.7077 43.9005 40.433 42.5194 38.3229C40.4149 35.2239 38.9022 20.9153 38.9022 20.9153C37.85 23.2891 41.0068 47.6863 41.0068 47.6863Z" fill="#231F20"/>
</g>
<g opacity="0.1">
<path opacity="0.1" d="M99.7364 40.1711C98.9472 40.6986 98.0923 40.9623 97.2373 41.0283C100.065 44.6549 101.446 48.0177 101.446 48.0177C101.446 48.0177 105.853 34.4344 107.431 27.7747C107.431 27.8406 101.775 38.7863 99.7364 40.1711Z" fill="#231F20"/>
</g>
<path d="M83.4924 62.5898C84.5446 60.216 86.7149 58.1719 89.4113 58.1719C92.3051 58.1719 95.133 60.282 96.7772 62.5898C97.2376 63.2492 98.4214 62.5898 97.8952 61.9304C93.8835 56.4575 85.5311 54.6112 82.3743 61.9304C82.0455 62.7217 83.1635 63.3811 83.4924 62.5898Z" fill="#424242"/>
<path d="M59.8816 61.9304C56.7248 54.6112 48.3724 56.4575 44.3607 61.9304C43.8345 62.5898 45.0184 63.2492 45.4787 62.5898C47.1229 60.3479 49.9508 58.1719 52.8446 58.1719C55.541 58.1719 57.7771 60.216 58.7636 62.5898C59.0924 63.3811 60.2104 62.7217 59.8816 61.9304Z" fill="#424242"/>
<path d="M113.81 66.7438C109.996 64.8316 105.918 63.3809 101.906 61.9302C100.986 61.6005 99.8676 62.3259 100.394 63.5787C102.235 67.7988 104.471 72.0848 107.365 75.6454C109.009 77.6896 110.851 79.4039 113.481 79.7996C115.98 80.1293 118.677 79.2062 120.058 77.0302C123.281 72.0848 117.493 68.59 113.81 66.7438ZM118.217 74.9201C117.427 77.6236 113.81 77.7555 111.771 76.5686C109.93 75.4476 108.615 73.2716 107.431 71.4914C106.247 69.6451 105.063 67.5351 104.011 65.4909C105.852 66.1503 107.694 66.8757 109.47 67.6669C111.903 68.6559 119.335 71.1617 118.217 74.9201Z" fill="#7A6439"/>
<path d="M101.579 63.1826C101.579 63.1826 107.235 76.0406 111.904 78.0187C116.574 80.0628 121.178 76.1065 119.139 72.2162C117.1 68.3258 101.579 63.1826 101.579 63.1826Z" fill="#A5736E"/>
<g opacity="0.2">
<path opacity="0.2" d="M119.598 74.7214C118.875 75.183 116.77 76.3699 113.942 76.1721C111.246 75.9742 107.037 71.952 104.998 69.7761C106.971 73.2709 109.602 76.9634 111.904 78.0184C115.521 79.6009 119.138 77.5569 119.598 74.7214Z" fill="#231F20"/>
</g>
<path d="M20.9483 77.0302C22.3294 79.2062 25.0916 80.1293 27.525 79.7996C30.1556 79.4039 32.0628 77.6896 33.6412 75.6454C36.5349 72.0188 38.771 67.7988 40.6125 63.5787C41.1386 62.3259 40.0206 61.6005 39.0998 61.9302C35.0881 63.3809 31.0106 64.8316 27.1961 66.7438C23.4474 68.59 17.7257 72.0848 20.9483 77.0302ZM31.4709 67.601C33.2466 66.8097 35.0881 66.0844 36.9295 65.425C35.8773 67.4691 34.6935 69.5791 33.5097 71.4254C32.3917 73.2057 31.0106 75.3817 29.1691 76.5027C27.1961 77.7555 23.5132 77.5576 22.724 74.8542C21.6059 71.1617 29.0376 68.6559 31.4709 67.601Z" fill="#7A6439"/>
<path d="M39.3616 63.1826C39.3616 63.1826 33.7057 76.0406 29.0363 78.0187C24.3669 80.0628 19.7632 76.1065 21.802 72.2162C23.9065 68.3258 39.3616 63.1826 39.3616 63.1826Z" fill="#A5736E"/>
<g opacity="0.2">
<path opacity="0.2" d="M21.4082 74.7214C22.1316 75.183 24.2362 76.3699 27.0641 76.1721C29.7606 75.9742 33.9696 71.952 36.0084 69.7761C34.0354 73.2709 31.4047 76.9634 29.1029 78.0184C25.42 79.6009 21.8686 77.5569 21.4082 74.7214Z" fill="#231F20"/>
</g>
<path d="M71.3261 72.1505C75.2125 72.1505 78.3631 70.3496 78.3631 68.1283C78.3631 65.9068 75.2125 64.106 71.3261 64.106C67.4396 64.106 64.2891 65.9068 64.2891 68.1283C64.2891 70.3496 67.4396 72.1505 71.3261 72.1505Z" fill="#424242"/>
<path d="M68.1028 68.1282C68.8655 68.1282 69.4839 67.5084 69.4839 66.7438C69.4839 65.9792 68.8655 65.3594 68.1028 65.3594C67.34 65.3594 66.7217 65.9792 66.7217 66.7438C66.7217 67.5084 67.34 68.1282 68.1028 68.1282Z" fill="white"/>
</g>
<defs>
<filter id="filter0_d" x="0" y="0" width="141" height="146" filterUnits="userSpaceOnUse" color-interpolation-filters="sRGB">
<feFlood flood-opacity="0" result="BackgroundImageFix"/>
<feColorMatrix in="SourceAlpha" type="matrix" values="0 0 0 0 0 0 0 0 0 0 0 0 0 0 0 0 0 0 127 0"/>
<feOffset dy="4"/>
<feGaussianBlur stdDeviation="10"/>
<feColorMatrix type="matrix" values="0 0 0 0 0.976471 0 0 0 0 0.701961 0 0 0 0 0.670588 0 0 0 0.25 0"/>
<feBlend mode="normal" in2="BackgroundImageFix" result="effect1_dropShadow"/>
<feBlend mode="normal" in="SourceGraphic" in2="effect1_dropShadow" result="shape"/>
</filter>
</defs>
</svg>
