<svg width="451" height="80" viewBox="0 0 451 80" fill="none" xmlns="http://www.w3.org/2000/svg">
<g filter="url(#filter0_d)">
<path d="M41.92 21.28C37.8133 21.28 34.6667 22.5333 32.48 25.04C30.2933 27.5467 29.2 31.0933 29.2 35.68C29.2 40.32 30.4 43.8933 32.8 46.4C35.2533 48.9067 38.5333 50.16 42.64 50.16C44.8267 50.16 46.6667 49.8667 48.16 49.28C49.7067 48.6933 51.1733 48.0267 52.56 47.28C53.4667 48.0267 54.16 48.9333 54.64 50C55.1733 51.0133 55.44 52.2133 55.44 53.6C55.44 55.7867 54.2133 57.6533 51.76 59.2C49.36 60.6933 45.68 61.44 40.72 61.44C37.1467 61.44 33.7867 60.9333 30.64 59.92C27.4933 58.9067 24.7467 57.36 22.4 55.28C20.0533 53.1467 18.1867 50.48 16.8 47.28C15.4667 44.0267 14.8 40.16 14.8 35.68C14.8 31.52 15.44 27.8667 16.72 24.72C18.0533 21.52 19.84 18.8267 22.08 16.64C24.3733 14.4533 27.04 12.8 30.08 11.68C33.12 10.56 36.3733 10 39.84 10C44.7467 10 48.5333 10.8 51.2 12.4C53.92 14 55.28 16.0533 55.28 18.56C55.28 19.9467 54.9333 21.1467 54.24 22.16C53.5467 23.1733 52.7467 23.9733 51.84 24.56C50.4533 23.6533 48.96 22.88 47.36 22.24C45.8133 21.6 44 21.28 41.92 21.28ZM105.863 42.08C105.863 44.96 105.356 47.6 104.343 50C103.383 52.3467 101.97 54.3733 100.103 56.08C98.2365 57.7333 95.9698 59.0133 93.3031 59.92C90.6365 60.8267 87.6231 61.28 84.2631 61.28C80.9031 61.28 77.8898 60.8267 75.2231 59.92C72.5565 59.0133 70.2898 57.7333 68.4231 56.08C66.5565 54.3733 65.1165 52.3467 64.1031 50C63.1431 47.6 62.6631 44.96 62.6631 42.08V11.52C63.2498 11.4133 64.1831 11.28 65.4631 11.12C66.7431 10.9067 67.9698 10.8 69.1431 10.8C70.3698 10.8 71.4365 10.9067 72.3431 11.12C73.3031 11.28 74.1031 11.6 74.7431 12.08C75.3831 12.56 75.8631 13.2267 76.1831 14.08C76.5031 14.9333 76.6631 16.0533 76.6631 17.44V41.84C76.6631 44.4 77.3565 46.4 78.7431 47.84C80.1831 49.28 82.0231 50 84.2631 50C86.5565 50 88.3965 49.28 89.7831 47.84C91.1698 46.4 91.8631 44.4 91.8631 41.84V11.52C92.4498 11.4133 93.3831 11.28 94.6631 11.12C95.9431 10.9067 97.1698 10.8 98.3431 10.8C99.5698 10.8 100.636 10.9067 101.543 11.12C102.503 11.28 103.303 11.6 103.943 12.08C104.583 12.56 105.063 13.2267 105.383 14.08C105.703 14.9333 105.863 16.0533 105.863 17.44V42.08ZM113.788 22.72C113.415 22.1333 113.068 21.3333 112.748 20.32C112.428 19.3067 112.268 18.24 112.268 17.12C112.268 15.04 112.721 13.5467 113.628 12.64C114.588 11.7333 115.815 11.28 117.308 11.28H152.188C152.561 11.8667 152.908 12.6667 153.228 13.68C153.548 14.6933 153.708 15.76 153.708 16.88C153.708 18.96 153.228 20.4533 152.268 21.36C151.361 22.2667 150.161 22.72 148.668 22.72H139.788V59.68C139.201 59.84 138.268 60 136.988 60.16C135.761 60.32 134.535 60.4 133.308 60.4C132.081 60.4 130.988 60.2933 130.028 60.08C129.121 59.92 128.348 59.6 127.708 59.12C127.068 58.64 126.588 57.9733 126.268 57.12C125.948 56.2667 125.788 55.1467 125.788 53.76V22.72H113.788ZM160.481 18.96C160.481 16.6667 161.148 14.8533 162.481 13.52C163.815 12.1867 165.628 11.52 167.921 11.52H194.321C194.695 12.1067 195.015 12.88 195.281 13.84C195.601 14.8 195.761 15.8133 195.761 16.88C195.761 18.9067 195.308 20.3467 194.401 21.2C193.548 22.0533 192.401 22.48 190.961 22.48H174.081V29.92H192.081C192.455 30.5067 192.775 31.28 193.041 32.24C193.361 33.1467 193.521 34.1333 193.521 35.2C193.521 37.2267 193.095 38.6667 192.241 39.52C191.388 40.3733 190.241 40.8 188.801 40.8H174.081V49.2H194.641C195.015 49.7867 195.335 50.56 195.601 51.52C195.921 52.48 196.081 53.4933 196.081 54.56C196.081 56.5867 195.628 58.0533 194.721 58.96C193.868 59.8133 192.721 60.24 191.281 60.24H167.921C165.628 60.24 163.815 59.5733 162.481 58.24C161.148 56.9067 160.481 55.0933 160.481 52.8V18.96ZM218.46 40.72C216.113 39.92 213.98 39.12 212.06 38.32C210.14 37.4667 208.487 36.4533 207.1 35.28C205.713 34.1067 204.62 32.72 203.82 31.12C203.073 29.4667 202.7 27.4667 202.7 25.12C202.7 20.5867 204.433 16.96 207.9 14.24C211.42 11.52 216.327 10.16 222.62 10.16C224.913 10.16 227.047 10.32 229.02 10.64C230.993 10.96 232.673 11.4667 234.06 12.16C235.5 12.8 236.62 13.6533 237.42 14.72C238.22 15.7333 238.62 16.9333 238.62 18.32C238.62 19.7067 238.3 20.9067 237.66 21.92C237.02 22.88 236.247 23.7067 235.34 24.4C234.167 23.6533 232.593 23.0133 230.62 22.48C228.647 21.8933 226.487 21.6 224.14 21.6C221.74 21.6 219.98 21.9467 218.86 22.64C217.74 23.28 217.18 24.1067 217.18 25.12C217.18 25.92 217.527 26.5867 218.22 27.12C218.913 27.6 219.953 28.0533 221.34 28.48L225.58 29.84C230.593 31.44 234.433 33.4933 237.1 36C239.82 38.4533 241.18 41.8133 241.18 46.08C241.18 50.6133 239.393 54.2933 235.82 57.12C232.247 59.8933 226.993 61.28 220.06 61.28C217.607 61.28 215.313 61.0667 213.18 60.64C211.1 60.2667 209.26 59.7067 207.66 58.96C206.113 58.16 204.887 57.2 203.98 56.08C203.127 54.9067 202.7 53.5733 202.7 52.08C202.7 50.5333 203.153 49.2267 204.06 48.16C204.967 47.04 205.953 46.1867 207.02 45.6C208.513 46.7733 210.327 47.7867 212.46 48.64C214.647 49.4933 217.02 49.92 219.58 49.92C222.193 49.92 224.033 49.52 225.1 48.72C226.167 47.92 226.7 46.9867 226.7 45.92C226.7 44.8533 226.273 44.0533 225.42 43.52C224.567 42.9333 223.367 42.3733 221.82 41.84L218.46 40.72ZM245.507 22.72C245.134 22.1333 244.787 21.3333 244.467 20.32C244.147 19.3067 243.987 18.24 243.987 17.12C243.987 15.04 244.44 13.5467 245.347 12.64C246.307 11.7333 247.534 11.28 249.027 11.28H283.907C284.28 11.8667 284.627 12.6667 284.947 13.68C285.267 14.6933 285.427 15.76 285.427 16.88C285.427 18.96 284.947 20.4533 283.987 21.36C283.08 22.2667 281.88 22.72 280.387 22.72H271.507V59.68C270.92 59.84 269.987 60 268.707 60.16C267.48 60.32 266.254 60.4 265.027 60.4C263.8 60.4 262.707 60.2933 261.747 60.08C260.84 59.92 260.067 59.6 259.427 59.12C258.787 58.64 258.307 57.9733 257.987 57.12C257.667 56.2667 257.507 55.1467 257.507 53.76V22.72H245.507ZM326.376 34C328.616 34 330.322 33.4933 331.496 32.48C332.722 31.4133 333.336 29.8133 333.336 27.68C333.336 25.6533 332.696 24.1067 331.416 23.04C330.189 21.92 328.376 21.36 325.976 21.36C325.122 21.36 324.402 21.3867 323.816 21.44C323.282 21.44 322.722 21.4933 322.136 21.6V34H326.376ZM322.216 59.68C321.629 59.84 320.696 60 319.416 60.16C318.189 60.32 316.962 60.4 315.736 60.4C314.509 60.4 313.416 60.2933 312.456 60.08C311.549 59.92 310.776 59.6 310.136 59.12C309.496 58.64 309.016 57.9733 308.696 57.12C308.376 56.2667 308.216 55.1467 308.216 53.76V16.08C308.216 14.96 308.509 14.1067 309.096 13.52C309.736 12.88 310.589 12.3733 311.656 12C313.469 11.36 315.522 10.9067 317.816 10.64C320.162 10.32 322.509 10.16 324.856 10.16C332.216 10.16 337.842 11.7333 341.736 14.88C345.629 18.0267 347.576 22.2933 347.576 27.68C347.576 30.2933 347.149 32.6667 346.296 34.8C345.496 36.88 344.269 38.6933 342.616 40.24C341.016 41.7333 338.962 42.9067 336.456 43.76C334.002 44.56 331.149 44.96 327.896 44.96H322.216V59.68ZM354.7 18.96C354.7 16.6667 355.367 14.8533 356.7 13.52C358.033 12.1867 359.847 11.52 362.14 11.52H388.54C388.913 12.1067 389.233 12.88 389.5 13.84C389.82 14.8 389.98 15.8133 389.98 16.88C389.98 18.9067 389.527 20.3467 388.62 21.2C387.767 22.0533 386.62 22.48 385.18 22.48H368.3V29.92H386.3C386.673 30.5067 386.993 31.28 387.26 32.24C387.58 33.1467 387.74 34.1333 387.74 35.2C387.74 37.2267 387.313 38.6667 386.46 39.52C385.607 40.3733 384.46 40.8 383.02 40.8H368.3V49.2H388.86C389.233 49.7867 389.553 50.56 389.82 51.52C390.14 52.48 390.3 53.4933 390.3 54.56C390.3 56.5867 389.847 58.0533 388.94 58.96C388.087 59.8133 386.94 60.24 385.5 60.24H362.14C359.847 60.24 358.033 59.5733 356.7 58.24C355.367 56.9067 354.7 55.0933 354.7 52.8V18.96ZM396.288 22.72C395.915 22.1333 395.568 21.3333 395.248 20.32C394.928 19.3067 394.768 18.24 394.768 17.12C394.768 15.04 395.221 13.5467 396.128 12.64C397.088 11.7333 398.315 11.28 399.808 11.28H434.688C435.061 11.8667 435.408 12.6667 435.728 13.68C436.048 14.6933 436.208 15.76 436.208 16.88C436.208 18.96 435.728 20.4533 434.768 21.36C433.861 22.2667 432.661 22.72 431.168 22.72H422.288V59.68C421.701 59.84 420.768 60 419.488 60.16C418.261 60.32 417.035 60.4 415.808 60.4C414.581 60.4 413.488 60.2933 412.528 60.08C411.621 59.92 410.848 59.6 410.208 59.12C409.568 58.64 409.088 57.9733 408.768 57.12C408.448 56.2667 408.288 55.1467 408.288 53.76V22.72H396.288Z" fill="#A5736E"/>
<path d="M32.48 25.04L35.4943 27.6695L35.4943 27.6695L32.48 25.04ZM32.8 46.4L29.9108 49.1663L29.926 49.1822L29.9413 49.1979L32.8 46.4ZM48.16 49.28L46.7414 45.54L46.7193 45.5484L46.6974 45.557L48.16 49.28ZM52.56 47.28L55.1028 44.1923L53.029 42.4844L50.6636 43.7581L52.56 47.28ZM54.64 50L50.9923 51.6415L51.0429 51.7539L51.1003 51.863L54.64 50ZM51.76 59.2L53.8732 62.5962L53.8832 62.59L53.8932 62.5837L51.76 59.2ZM30.64 59.92L29.4139 63.7274L29.4139 63.7274L30.64 59.92ZM22.4 55.28L19.7093 58.2398L19.7279 58.2567L19.7468 58.2734L22.4 55.28ZM16.8 47.28L13.0988 48.7969L13.1139 48.8338L13.1298 48.8704L16.8 47.28ZM16.72 24.72L13.0277 23.1815L13.0212 23.1971L13.0148 23.2128L16.72 24.72ZM22.08 16.64L19.3197 13.745L19.3027 13.7613L19.2859 13.7777L22.08 16.64ZM30.08 11.68L28.6972 7.92662L28.6972 7.92663L30.08 11.68ZM51.2 12.4L49.142 15.83L49.1569 15.8389L49.1719 15.8477L51.2 12.4ZM54.24 22.16L50.9388 19.9013L50.9388 19.9013L54.24 22.16ZM51.84 24.56L49.651 27.9079L51.8286 29.3317L54.013 27.9183L51.84 24.56ZM47.36 22.24L45.8306 25.9361L45.8525 25.9451L45.8744 25.9539L47.36 22.24ZM41.92 17.28C36.9517 17.28 32.586 18.8336 29.4657 22.4105L35.4943 27.6695C36.7473 26.233 38.6749 25.28 41.92 25.28V17.28ZM29.4657 22.4105C26.4381 25.8812 25.2 30.493 25.2 35.68H33.2C33.2 31.6937 34.1486 29.2121 35.4943 27.6695L29.4657 22.4105ZM25.2 35.68C25.2 40.9946 26.5847 45.6924 29.9108 49.1663L35.6892 43.6337C34.2153 42.0943 33.2 39.6454 33.2 35.68H25.2ZM29.9413 49.1979C33.2757 52.6047 37.6565 54.16 42.64 54.16V46.16C39.4102 46.16 37.231 45.2086 35.6587 43.6021L29.9413 49.1979ZM42.64 54.16C45.1573 54.16 47.5278 53.826 49.6226 53.003L46.6974 45.557C45.8056 45.9074 44.496 46.16 42.64 46.16V54.16ZM49.5786 53.02C51.281 52.3743 52.9079 51.6357 54.4564 50.8019L50.6636 43.7581C49.4388 44.4176 48.1324 45.0124 46.7414 45.54L49.5786 53.02ZM50.0172 50.3677C50.4514 50.7253 50.7657 51.1378 50.9923 51.6415L58.2877 48.3585C57.5543 46.7289 56.482 45.328 55.1028 44.1923L50.0172 50.3677ZM51.1003 51.863C51.2739 52.1928 51.44 52.7268 51.44 53.6H59.44C59.44 51.6998 59.0728 49.8339 58.1797 48.137L51.1003 51.863ZM51.44 53.6C51.44 53.976 51.3435 54.734 49.6268 55.8163L53.8932 62.5837C57.0831 60.5727 59.44 57.5973 59.44 53.6H51.44ZM49.6468 55.8038C48.1983 56.7051 45.4251 57.44 40.72 57.44V65.44C45.9349 65.44 50.5217 64.6816 53.8732 62.5962L49.6468 55.8038ZM40.72 57.44C37.5293 57.44 34.5858 56.9884 31.8661 56.1126L29.4139 63.7274C32.9875 64.8783 36.764 65.44 40.72 65.44V57.44ZM31.8661 56.1126C29.2173 55.2595 26.9634 53.9797 25.0532 52.2866L19.7468 58.2734C22.53 60.7403 25.7694 62.5538 29.4139 63.7274L31.8661 56.1126ZM25.0907 52.3202C23.2043 50.6053 21.6539 48.4212 20.4702 45.6896L13.1298 48.8704C14.7194 52.5388 16.9024 55.688 19.7093 58.2398L25.0907 52.3202ZM20.5012 45.7631C19.4112 43.1034 18.8 39.7766 18.8 35.68H10.8C10.8 40.5434 11.5222 44.95 13.0988 48.7969L20.5012 45.7631ZM18.8 35.68C18.8 31.924 19.3783 28.8008 20.4252 26.2272L13.0148 23.2128C11.5017 26.9325 10.8 31.116 10.8 35.68H18.8ZM20.4123 26.2585C21.5608 23.5021 23.0591 21.2741 24.8741 19.5023L19.2859 13.7777C16.6209 16.3792 14.5459 19.5379 13.0277 23.1815L20.4123 26.2585ZM24.8403 19.5349C26.729 17.7341 28.924 16.3687 31.4628 15.4334L28.6972 7.92663C25.156 9.23128 22.0177 11.1725 19.3197 13.745L24.8403 19.5349ZM31.4628 15.4334C34.0299 14.4876 36.812 14 39.84 14V6C35.9347 6 32.2101 6.63238 28.6972 7.92662L31.4628 15.4334ZM39.84 14C44.403 14 47.3581 14.7596 49.142 15.83L53.258 8.97003C49.7085 6.84035 45.0903 6 39.84 6V14ZM49.1719 15.8477C51.0364 16.9445 51.28 17.8497 51.28 18.56H59.28C59.28 14.257 56.8036 11.0555 53.2281 8.95226L49.1719 15.8477ZM51.28 18.56C51.28 19.2486 51.1195 19.6372 50.9388 19.9013L57.5412 24.4187C58.7472 22.6562 59.28 20.6447 59.28 18.56H51.28ZM50.9388 19.9013C50.5041 20.5366 50.0715 20.94 49.667 21.2017L54.013 27.9183C55.4218 27.0067 56.5892 25.8101 57.5412 24.4187L50.9388 19.9013ZM54.029 21.2121C52.4119 20.1548 50.6817 19.2606 48.8456 18.5261L45.8744 25.9539C47.2383 26.4994 48.4948 27.1519 49.651 27.9079L54.029 21.2121ZM48.8894 18.5439C46.7556 17.661 44.4016 17.28 41.92 17.28V25.28C43.5984 25.28 44.871 25.539 45.8306 25.9361L48.8894 18.5439ZM104.343 50L100.658 48.4441L100.649 48.4647L100.641 48.4855L104.343 50ZM100.103 56.08L102.755 59.0744L102.779 59.0534L102.802 59.0321L100.103 56.08ZM93.3031 59.92L94.5907 63.7071L93.3031 59.92ZM75.2231 59.92L73.9355 63.7071L73.9355 63.7071L75.2231 59.92ZM68.4231 56.08L65.724 59.0321L65.7473 59.0534L65.771 59.0744L68.4231 56.08ZM64.1031 50L60.3892 51.4856L60.4094 51.5359L60.4309 51.5857L64.1031 50ZM62.6631 11.52L61.9476 7.58452L58.6631 8.1817V11.52H62.6631ZM65.4631 11.12L65.9593 15.0891L66.0402 15.079L66.1207 15.0656L65.4631 11.12ZM72.3431 11.12L71.427 15.0137L71.5554 15.0439L71.6855 15.0656L72.3431 11.12ZM74.7431 12.08L77.1431 8.88L77.1431 8.88L74.7431 12.08ZM76.1831 14.08L72.4378 15.4845L72.4378 15.4845L76.1831 14.08ZM78.7431 47.84L75.8618 50.6146L75.888 50.6417L75.9147 50.6684L78.7431 47.84ZM89.7831 47.84L86.9018 45.0654L86.9018 45.0654L89.7831 47.84ZM91.8631 11.52L91.1476 7.58452L87.8631 8.1817V11.52H91.8631ZM94.6631 11.12L95.1593 15.0891L95.2402 15.079L95.3207 15.0656L94.6631 11.12ZM101.543 11.12L100.627 15.0137L100.755 15.0439L100.886 15.0656L101.543 11.12ZM103.943 12.08L101.543 15.28L101.543 15.28L103.943 12.08ZM105.383 14.08L101.638 15.4845L101.638 15.4845L105.383 14.08ZM101.863 42.08C101.863 44.4821 101.443 46.5861 100.658 48.4441L108.028 51.5559C109.27 48.6139 109.863 45.4379 109.863 42.08H101.863ZM100.641 48.4855C99.9043 50.2861 98.8331 51.8214 97.404 53.1279L102.802 59.0321C105.107 56.9253 106.862 54.4073 108.045 51.5145L100.641 48.4855ZM97.451 53.0856C96.0303 54.3439 94.2442 55.3752 92.0155 56.1329L94.5907 63.7071C97.6954 62.6515 100.443 61.1227 102.755 59.0744L97.451 53.0856ZM92.0155 56.1329C89.8347 56.8744 87.2673 57.28 84.2631 57.28V65.28C87.979 65.28 91.4382 64.7789 94.5907 63.7071L92.0155 56.1329ZM84.2631 57.28C81.259 57.28 78.6916 56.8744 76.5107 56.1329L73.9355 63.7071C77.088 64.7789 80.5473 65.28 84.2631 65.28V57.28ZM76.5107 56.1329C74.2821 55.3752 72.4959 54.3439 71.0753 53.0856L65.771 59.0744C68.0837 61.1227 70.8308 62.6515 73.9355 63.7071L76.5107 56.1329ZM71.1222 53.1279C69.6774 51.8069 68.567 50.2475 67.7754 48.4143L60.4309 51.5857C61.6659 54.4458 63.4355 56.9397 65.724 59.0321L71.1222 53.1279ZM67.817 48.5144C67.0664 46.6379 66.6631 44.5091 66.6631 42.08H58.6631C58.6631 45.4109 59.2198 48.5621 60.3892 51.4856L67.817 48.5144ZM66.6631 42.08V11.52H58.6631V42.08H66.6631ZM63.3787 15.4555C63.8488 15.37 64.6887 15.2479 65.9593 15.0891L64.967 7.15089C63.6775 7.31207 62.6508 7.45666 61.9476 7.58452L63.3787 15.4555ZM66.1207 15.0656C67.2059 14.8847 68.2118 14.8 69.1431 14.8V6.8C67.7277 6.8 66.2803 6.92863 64.8055 7.17442L66.1207 15.0656ZM69.1431 14.8C70.1524 14.8 70.8979 14.8892 71.427 15.0137L73.2593 7.22633C71.9751 6.92416 70.5872 6.8 69.1431 6.8V14.8ZM71.6855 15.0656C72.1487 15.1428 72.3153 15.2591 72.3431 15.28L77.1431 8.88C75.8909 7.94086 74.4576 7.41723 73.0007 7.17442L71.6855 15.0656ZM72.3431 15.28C72.3303 15.2704 72.3273 15.2637 72.337 15.2772C72.3488 15.2937 72.3888 15.3537 72.4378 15.4845L79.9284 12.6755C79.3788 11.2097 78.4754 9.87922 77.1431 8.88L72.3431 15.28ZM72.4378 15.4845C72.5254 15.7182 72.6631 16.3088 72.6631 17.44H80.6631C80.6631 15.7978 80.4808 14.1485 79.9284 12.6755L72.4378 15.4845ZM72.6631 17.44V41.84H80.6631V17.44H72.6631ZM72.6631 41.84C72.6631 45.1323 73.572 48.2366 75.8618 50.6146L81.6244 45.0654C81.141 44.5634 80.6631 43.6677 80.6631 41.84H72.6631ZM75.9147 50.6684C78.1834 52.9371 81.0787 54 84.2631 54V46C82.9675 46 82.1829 45.6229 81.5716 45.0116L75.9147 50.6684ZM84.2631 54C87.4688 54 90.4106 52.9551 92.6644 50.6146L86.9018 45.0654C86.3823 45.6049 85.6441 46 84.2631 46V54ZM92.6644 50.6146C94.9543 48.2366 95.8631 45.1323 95.8631 41.84H87.8631C87.8631 43.6677 87.3853 44.5634 86.9018 45.0654L92.6644 50.6146ZM95.8631 41.84V11.52H87.8631V41.84H95.8631ZM92.5787 15.4555C93.0488 15.37 93.8887 15.2479 95.1593 15.0891L94.167 7.15089C92.8775 7.31207 91.8508 7.45666 91.1476 7.58452L92.5787 15.4555ZM95.3207 15.0656C96.4059 14.8847 97.4118 14.8 98.3431 14.8V6.8C96.9277 6.8 95.4803 6.92863 94.0055 7.17442L95.3207 15.0656ZM98.3431 14.8C99.3524 14.8 100.098 14.8892 100.627 15.0137L102.459 7.22633C101.175 6.92416 99.7872 6.8 98.3431 6.8V14.8ZM100.886 15.0656C101.349 15.1428 101.515 15.2591 101.543 15.28L106.343 8.88C105.091 7.94087 103.658 7.41723 102.201 7.17442L100.886 15.0656ZM101.543 15.28C101.53 15.2704 101.527 15.2637 101.537 15.2772C101.549 15.2937 101.589 15.3537 101.638 15.4845L109.128 12.6755C108.579 11.2097 107.675 9.87921 106.343 8.88L101.543 15.28ZM101.638 15.4845C101.725 15.7182 101.863 16.3088 101.863 17.44H109.863C109.863 15.7978 109.681 14.1485 109.128 12.6755L101.638 15.4845ZM101.863 17.44V42.08H109.863V17.44H101.863ZM113.788 22.72L110.413 24.8675L111.592 26.72H113.788V22.72ZM112.748 20.32L108.934 21.5245L108.934 21.5245L112.748 20.32ZM113.628 12.64L110.882 9.73195L110.84 9.77117L110.8 9.81157L113.628 12.64ZM152.188 11.28L155.563 9.13249L154.384 7.28H152.188V11.28ZM153.228 13.68L157.042 12.4755L157.042 12.4755L153.228 13.68ZM152.268 21.36L149.522 18.4519L149.48 18.4912L149.44 18.5316L152.268 21.36ZM139.788 22.72V18.72H135.788V22.72H139.788ZM139.788 59.68L140.841 63.5391L143.788 62.7352V59.68H139.788ZM136.988 60.16L136.492 56.1909L136.481 56.1922L136.471 56.1936L136.988 60.16ZM130.028 60.08L130.896 56.1753L130.81 56.1562L130.723 56.1409L130.028 60.08ZM127.708 59.12L130.108 55.92L127.708 59.12ZM126.268 57.12L122.523 58.5245L122.523 58.5245L126.268 57.12ZM125.788 22.72H129.788V18.72H125.788V22.72ZM117.163 20.5725C117.047 20.391 116.827 19.9519 116.562 19.1155L108.934 21.5245C109.31 22.7148 109.782 23.8757 110.413 24.8675L117.163 20.5725ZM116.562 19.1155C116.372 18.5124 116.268 17.8535 116.268 17.12H108.268C108.268 18.6265 108.484 20.101 108.934 21.5245L116.562 19.1155ZM116.268 17.12C116.268 16.3514 116.354 15.8704 116.436 15.6019C116.512 15.3492 116.559 15.3662 116.457 15.4684L110.8 9.81157C108.791 11.8204 108.268 14.6106 108.268 17.12H116.268ZM116.375 15.5481C116.493 15.4359 116.692 15.28 117.308 15.28V7.28C114.938 7.28 112.683 8.03074 110.882 9.73195L116.375 15.5481ZM117.308 15.28H152.188V7.28H117.308V15.28ZM148.813 13.4275C148.929 13.609 149.15 14.0481 149.414 14.8845L157.042 12.4755C156.667 11.2852 156.194 10.1243 155.563 9.13249L148.813 13.4275ZM149.414 14.8845C149.604 15.4876 149.708 16.1465 149.708 16.88H157.708C157.708 15.3735 157.492 13.899 157.042 12.4755L149.414 14.8845ZM149.708 16.88C149.708 17.6314 149.619 18.0899 149.54 18.336C149.468 18.5614 149.427 18.5413 149.522 18.4519L155.015 24.2681C157.134 22.2662 157.708 19.4419 157.708 16.88H149.708ZM149.44 18.5316C149.407 18.5644 149.289 18.72 148.668 18.72V26.72C151.034 26.72 153.316 25.9689 155.097 24.1884L149.44 18.5316ZM148.668 18.72H139.788V26.72H148.668V18.72ZM135.788 22.72V59.68H143.788V22.72H135.788ZM138.736 55.8209C138.44 55.9017 137.744 56.0344 136.492 56.1909L137.484 64.1291C138.792 63.9656 139.963 63.7783 140.841 63.5391L138.736 55.8209ZM136.471 56.1936C135.414 56.3314 134.36 56.4 133.308 56.4V64.4C134.709 64.4 136.109 64.3086 137.505 64.1264L136.471 56.1936ZM133.308 56.4C132.305 56.4 131.511 56.312 130.896 56.1753L129.16 63.9847C130.465 64.2747 131.858 64.4 133.308 64.4V56.4ZM130.723 56.1409C130.341 56.0735 130.175 55.97 130.108 55.92L125.308 62.32C126.521 63.23 127.901 63.7665 129.333 64.0191L130.723 56.1409ZM130.108 55.92C130.121 55.9296 130.124 55.9363 130.114 55.9228C130.102 55.9063 130.062 55.8463 130.013 55.7155L122.523 58.5245C123.072 59.9903 123.976 61.3208 125.308 62.32L130.108 55.92ZM130.013 55.7155C129.926 55.4818 129.788 54.8912 129.788 53.76H121.788C121.788 55.4022 121.97 57.0515 122.523 58.5245L130.013 55.7155ZM129.788 53.76V22.72H121.788V53.76H129.788ZM125.788 18.72H113.788V26.72H125.788V18.72ZM194.321 11.52L197.696 9.37249L196.517 7.52H194.321V11.52ZM195.281 13.84L191.427 14.9106L191.454 15.0085L191.487 15.1049L195.281 13.84ZM194.401 21.2L191.66 18.2872L191.616 18.3287L191.573 18.3716L194.401 21.2ZM174.081 22.48V18.48H170.081V22.48H174.081ZM174.081 29.92H170.081V33.92H174.081V29.92ZM192.081 29.92L195.456 27.7725L194.277 25.92H192.081V29.92ZM193.041 32.24L189.187 33.3106L189.224 33.4423L189.269 33.5713L193.041 32.24ZM174.081 40.8V36.8H170.081V40.8H174.081ZM174.081 49.2H170.081V53.2H174.081V49.2ZM194.641 49.2L198.016 47.0525L196.837 45.2H194.641V49.2ZM195.601 51.52L191.747 52.5906L191.774 52.6885L191.807 52.7849L195.601 51.52ZM194.721 58.96L191.893 56.1316L191.893 56.1316L194.721 58.96ZM162.481 58.24L165.31 55.4116L165.31 55.4116L162.481 58.24ZM164.481 18.96C164.481 17.4831 164.883 16.7748 165.31 16.3484L159.653 10.6916C157.413 12.9318 156.481 15.8503 156.481 18.96H164.481ZM165.31 16.3484C165.736 15.922 166.444 15.52 167.921 15.52V7.52C164.812 7.52 161.893 8.4513 159.653 10.6916L165.31 16.3484ZM167.921 15.52H194.321V7.52H167.921V15.52ZM190.947 13.6675C191.038 13.811 191.225 14.1814 191.427 14.9106L199.135 12.7694C198.805 11.5786 198.351 10.4023 197.696 9.37249L190.947 13.6675ZM191.487 15.1049C191.663 15.6354 191.761 16.2199 191.761 16.88H199.761C199.761 15.4068 199.539 13.9646 199.076 12.5751L191.487 15.1049ZM191.761 16.88C191.761 17.616 191.676 18.0547 191.606 18.2789C191.541 18.4839 191.519 18.4199 191.66 18.2872L197.143 24.1128C199.235 22.1434 199.761 19.342 199.761 16.88H191.761ZM191.573 18.3716C191.558 18.3863 191.549 18.3952 191.506 18.4111C191.451 18.4318 191.288 18.48 190.961 18.48V26.48C193.242 26.48 195.484 25.7742 197.23 24.0284L191.573 18.3716ZM190.961 18.48H174.081V26.48H190.961V18.48ZM170.081 22.48V29.92H178.081V22.48H170.081ZM174.081 33.92H192.081V25.92H174.081V33.92ZM188.707 32.0675C188.798 32.211 188.985 32.5814 189.187 33.3106L196.895 31.1694C196.565 29.9786 196.111 28.8023 195.456 27.7725L188.707 32.0675ZM189.269 33.5713C189.423 34.0062 189.521 34.5375 189.521 35.2H197.521C197.521 33.7292 197.3 32.2872 196.813 30.9087L189.269 33.5713ZM189.521 35.2C189.521 35.9535 189.44 36.4157 189.366 36.6636C189.297 36.8984 189.266 36.838 189.413 36.6916L195.07 42.3484C197.046 40.3725 197.521 37.6083 197.521 35.2H189.521ZM189.413 36.6916C189.398 36.7063 189.389 36.7152 189.346 36.7311C189.291 36.7518 189.128 36.8 188.801 36.8V44.8C191.082 44.8 193.324 44.0942 195.07 42.3484L189.413 36.6916ZM188.801 36.8H174.081V44.8H188.801V36.8ZM170.081 40.8V49.2H178.081V40.8H170.081ZM174.081 53.2H194.641V45.2H174.081V53.2ZM191.267 51.3475C191.358 51.491 191.545 51.8614 191.747 52.5906L199.455 50.4494C199.125 49.2586 198.671 48.0823 198.016 47.0525L191.267 51.3475ZM191.807 52.7849C191.983 53.3154 192.081 53.8999 192.081 54.56H200.081C200.081 53.0868 199.859 51.6446 199.396 50.2551L191.807 52.7849ZM192.081 54.56C192.081 55.293 191.997 55.748 191.92 55.9988C191.847 56.2324 191.804 56.2208 191.893 56.1316L197.55 61.7884C199.543 59.7954 200.081 57.0518 200.081 54.56H192.081ZM191.893 56.1316C191.878 56.1463 191.869 56.1553 191.826 56.1711C191.771 56.1918 191.608 56.24 191.281 56.24V64.24C193.562 64.24 195.804 63.5342 197.55 61.7884L191.893 56.1316ZM191.281 56.24H167.921V64.24H191.281V56.24ZM167.921 56.24C166.444 56.24 165.736 55.838 165.31 55.4116L159.653 61.0684C161.893 63.3087 164.812 64.24 167.921 64.24V56.24ZM165.31 55.4116C164.883 54.9852 164.481 54.2769 164.481 52.8H156.481C156.481 55.9097 157.413 58.8282 159.653 61.0684L165.31 55.4116ZM164.481 52.8V18.96H156.481V52.8H164.481ZM218.46 40.72L217.169 44.506L217.182 44.5104L217.195 44.5147L218.46 40.72ZM212.06 38.32L210.435 41.9752L210.478 41.9943L210.522 42.0123L212.06 38.32ZM203.82 31.12L200.175 32.7663L200.207 32.8383L200.242 32.9089L203.82 31.12ZM207.9 14.24L205.454 11.0749L205.442 11.0839L205.431 11.093L207.9 14.24ZM229.02 10.64L229.66 6.69158L229.66 6.69157L229.02 10.64ZM234.06 12.16L232.271 15.7377L232.352 15.7783L232.435 15.8152L234.06 12.16ZM237.42 14.72L234.22 17.12L234.25 17.1597L234.28 17.1986L237.42 14.72ZM237.66 21.92L240.988 24.1388L241.016 24.0977L241.042 24.056L237.66 21.92ZM235.34 24.4L233.192 27.7746L235.55 29.2749L237.77 27.5774L235.34 24.4ZM230.62 22.48L229.48 26.3141L229.528 26.3284L229.576 26.3415L230.62 22.48ZM218.86 22.64L220.845 26.113L220.906 26.0781L220.965 26.0411L218.86 22.64ZM218.22 27.12L215.781 30.2905L215.861 30.3517L215.943 30.4088L218.22 27.12ZM221.34 28.48L222.562 24.6711L222.539 24.6639L222.516 24.6569L221.34 28.48ZM225.58 29.84L224.358 33.6489L224.364 33.6506L225.58 29.84ZM237.1 36L234.36 38.9145L234.39 38.9427L234.421 38.9703L237.1 36ZM235.82 57.12L238.272 60.2799L238.287 60.2686L238.302 60.2571L235.82 57.12ZM213.18 60.64L213.964 56.7177L213.926 56.7099L213.887 56.7029L213.18 60.64ZM207.66 58.96L205.822 62.5129L205.895 62.5503L205.968 62.5847L207.66 58.96ZM203.98 56.08L200.745 58.4327L200.806 58.5164L200.871 58.5968L203.98 56.08ZM204.06 48.16L207.108 50.7506L207.139 50.7141L207.169 50.6768L204.06 48.16ZM207.02 45.6L209.491 42.4547L207.411 40.82L205.092 42.0951L207.02 45.6ZM212.46 48.64L210.974 52.3539L210.99 52.3602L211.006 52.3663L212.46 48.64ZM225.1 48.72L227.5 51.92L227.5 51.92L225.1 48.72ZM225.42 43.52L223.154 46.8162L223.226 46.8657L223.3 46.912L225.42 43.52ZM221.82 41.84L223.124 38.0585L223.104 38.0518L223.085 38.0453L221.82 41.84ZM219.751 36.934C217.472 36.1572 215.423 35.388 213.598 34.6277L210.522 42.0123C212.537 42.852 214.754 43.6828 217.169 44.506L219.751 36.934ZM213.685 34.6648C212.058 33.9419 210.74 33.1199 209.684 32.2265L204.516 38.3335C206.234 39.7868 208.222 40.9914 210.435 41.9752L213.685 34.6648ZM209.684 32.2265C208.704 31.3975 207.952 30.439 207.398 29.3311L200.242 32.9089C201.288 35.001 202.723 36.8158 204.516 38.3335L209.684 32.2265ZM207.465 29.4737C207.01 28.4659 206.7 27.0589 206.7 25.12H198.7C198.7 27.8745 199.136 30.4674 200.175 32.7663L207.465 29.4737ZM206.7 25.12C206.7 21.7738 207.901 19.3236 210.369 17.387L205.431 11.093C200.966 14.5964 198.7 19.3995 198.7 25.12H206.7ZM210.346 17.4051C212.927 15.4107 216.854 14.16 222.62 14.16V6.16C215.8 6.16 209.913 7.62925 205.454 11.0749L210.346 17.4051ZM222.62 14.16C224.729 14.16 226.646 14.3073 228.38 14.5884L229.66 6.69157C227.447 6.33268 225.097 6.16 222.62 6.16V14.16ZM228.38 14.5884C230.063 14.8614 231.334 15.2689 232.271 15.7377L235.849 8.58228C234.013 7.6644 231.924 7.05863 229.66 6.69158L228.38 14.5884ZM232.435 15.8152C233.366 16.2286 233.898 16.6909 234.22 17.12L240.62 12.32C239.342 10.6158 237.634 9.37137 235.685 8.50475L232.435 15.8152ZM234.28 17.1986C234.481 17.452 234.62 17.7615 234.62 18.32H242.62C242.62 16.1051 241.959 14.0146 240.56 12.2414L234.28 17.1986ZM234.62 18.32C234.62 19.0717 234.454 19.5052 234.278 19.784L241.042 24.056C242.146 22.3081 242.62 20.3416 242.62 18.32H234.62ZM234.332 19.7012C233.934 20.2984 233.463 20.8 232.91 21.2226L237.77 27.5774C239.031 26.6133 240.106 25.4616 240.988 24.1388L234.332 19.7012ZM237.488 21.0254C235.853 19.9855 233.862 19.2127 231.664 18.6185L229.576 26.3415C231.325 26.814 232.48 27.3211 233.192 27.7746L237.488 21.0254ZM231.76 18.6459C229.369 17.9351 226.82 17.6 224.14 17.6V25.6C226.154 25.6 227.924 25.8516 229.48 26.3141L231.76 18.6459ZM224.14 17.6C221.521 17.6 218.84 17.9481 216.755 19.2389L220.965 26.0411C221.12 25.9452 221.959 25.6 224.14 25.6V17.6ZM216.875 19.167C214.904 20.2937 213.18 22.2682 213.18 25.12H221.18C221.18 25.24 221.163 25.3923 221.112 25.5596C221.061 25.7275 220.988 25.8711 220.912 25.9834C220.764 26.2013 220.666 26.2152 220.845 26.113L216.875 19.167ZM213.18 25.12C213.18 27.2896 214.209 29.0814 215.781 30.2905L220.659 23.9495C220.699 23.9803 220.853 24.1124 220.989 24.3746C221.131 24.6479 221.18 24.9202 221.18 25.12H213.18ZM215.943 30.4088C217.131 31.2314 218.624 31.8294 220.164 32.3031L222.516 24.6569C221.283 24.2773 220.695 23.9686 220.497 23.8312L215.943 30.4088ZM220.118 32.2889L224.358 33.6489L226.802 26.0311L222.562 24.6711L220.118 32.2889ZM224.364 33.6506C229.04 35.1429 232.276 36.955 234.36 38.9145L239.84 33.0855C236.591 30.0316 232.147 27.7371 226.796 26.0294L224.364 33.6506ZM234.421 38.9703C236.159 40.5379 237.18 42.7407 237.18 46.08H245.18C245.18 40.8859 243.481 36.3688 239.779 33.0297L234.421 38.9703ZM237.18 46.08C237.18 49.3833 235.958 51.9104 233.338 53.9829L238.302 60.2571C242.828 56.6763 245.18 51.8434 245.18 46.08H237.18ZM233.368 53.9601C230.782 55.9666 226.553 57.28 220.06 57.28V65.28C227.434 65.28 233.711 63.8201 238.272 60.2799L233.368 53.9601ZM220.06 57.28C217.837 57.28 215.809 57.0866 213.964 56.7177L212.396 64.5623C214.817 65.0467 217.376 65.28 220.06 65.28V57.28ZM213.887 56.7029C212.083 56.3791 210.584 55.9103 209.352 55.3353L205.968 62.5847C207.936 63.503 210.117 64.1542 212.473 64.5771L213.887 56.7029ZM209.498 55.4071C208.342 54.8092 207.583 54.174 207.089 53.5632L200.871 58.5968C202.19 60.226 203.885 61.5108 205.822 62.5129L209.498 55.4071ZM207.215 53.7273C206.874 53.2588 206.7 52.7545 206.7 52.08H198.7C198.7 54.3922 199.379 56.5545 200.745 58.4327L207.215 53.7273ZM206.7 52.08C206.7 51.3759 206.881 51.0168 207.108 50.7506L201.012 45.5694C199.425 47.4365 198.7 49.6908 198.7 52.08H206.7ZM207.169 50.6768C207.808 49.8869 208.41 49.4004 208.948 49.1049L205.092 42.0951C203.496 42.9729 202.125 44.1931 200.951 45.6432L207.169 50.6768ZM204.549 48.7453C206.397 50.1974 208.559 51.3876 210.974 52.3539L213.946 44.9261C212.095 44.1858 210.63 43.3492 209.491 42.4547L204.549 48.7453ZM211.006 52.3663C213.696 53.4163 216.568 53.92 219.58 53.92V45.92C217.472 45.92 215.597 45.5704 213.914 44.9137L211.006 52.3663ZM219.58 53.92C222.357 53.92 225.336 53.5432 227.5 51.92L222.7 45.52C222.775 45.4636 222.644 45.5865 222.07 45.7113C221.513 45.8323 220.702 45.92 219.58 45.92V53.92ZM227.5 51.92C229.295 50.5741 230.7 48.5581 230.7 45.92H222.7C222.7 45.8494 222.709 45.7608 222.735 45.6643C222.761 45.5681 222.796 45.4902 222.827 45.4354C222.888 45.3286 222.898 45.3712 222.7 45.52L227.5 51.92ZM230.7 45.92C230.7 43.574 229.645 41.4437 227.54 40.128L223.3 46.912C223.2 46.8493 223.002 46.6863 222.851 46.4024C222.705 46.1287 222.7 45.9273 222.7 45.92H230.7ZM227.686 40.2238C226.415 39.3501 224.839 38.6499 223.124 38.0585L220.516 45.6215C221.894 46.0968 222.718 46.5166 223.154 46.8162L227.686 40.2238ZM223.085 38.0453L219.725 36.9253L217.195 44.5147L220.555 45.6347L223.085 38.0453ZM245.507 22.72L242.132 24.8675L243.311 26.72H245.507V22.72ZM244.467 20.32L240.653 21.5245L240.653 21.5245L244.467 20.32ZM245.347 12.64L242.6 9.73195L242.559 9.77117L242.518 9.81157L245.347 12.64ZM283.907 11.28L287.282 9.13249L286.103 7.28H283.907V11.28ZM284.947 13.68L288.761 12.4755L288.761 12.4755L284.947 13.68ZM283.987 21.36L281.24 18.4519L281.199 18.4912L281.158 18.5316L283.987 21.36ZM271.507 22.72V18.72H267.507V22.72H271.507ZM271.507 59.68L272.559 63.5391L275.507 62.7352V59.68H271.507ZM268.707 60.16L268.211 56.1909L268.2 56.1922L268.19 56.1936L268.707 60.16ZM261.747 60.08L262.615 56.1753L262.529 56.1562L262.442 56.1409L261.747 60.08ZM259.427 59.12L261.827 55.92L259.427 59.12ZM257.987 57.12L254.242 58.5245L254.242 58.5245L257.987 57.12ZM257.507 22.72H261.507V18.72H257.507V22.72ZM248.882 20.5725C248.766 20.391 248.545 19.9519 248.281 19.1155L240.653 21.5245C241.028 22.7148 241.501 23.8757 242.132 24.8675L248.882 20.5725ZM248.281 19.1155C248.091 18.5124 247.987 17.8535 247.987 17.12H239.987C239.987 18.6265 240.203 20.101 240.653 21.5245L248.281 19.1155ZM247.987 17.12C247.987 16.3514 248.073 15.8704 248.154 15.6019C248.231 15.3492 248.278 15.3662 248.175 15.4684L242.518 9.81157C240.51 11.8204 239.987 14.6106 239.987 17.12H247.987ZM248.093 15.5481C248.212 15.4359 248.41 15.28 249.027 15.28V7.28C246.657 7.28 244.402 8.03074 242.6 9.73195L248.093 15.5481ZM249.027 15.28H283.907V7.28H249.027V15.28ZM280.532 13.4275C280.648 13.609 280.868 14.0481 281.133 14.8845L288.761 12.4755C288.385 11.2852 287.913 10.1243 287.282 9.13249L280.532 13.4275ZM281.133 14.8845C281.323 15.4876 281.427 16.1465 281.427 16.88H289.427C289.427 15.3735 289.211 13.899 288.761 12.4755L281.133 14.8845ZM281.427 16.88C281.427 17.6314 281.338 18.0899 281.259 18.336C281.186 18.5614 281.146 18.5413 281.24 18.4519L286.733 24.2681C288.853 22.2662 289.427 19.4419 289.427 16.88H281.427ZM281.158 18.5316C281.126 18.5644 281.008 18.72 280.387 18.72V26.72C282.752 26.72 285.035 25.9689 286.815 24.1884L281.158 18.5316ZM280.387 18.72H271.507V26.72H280.387V18.72ZM267.507 22.72V59.68H275.507V22.72H267.507ZM270.454 55.8209C270.158 55.9017 269.463 56.0344 268.211 56.1909L269.203 64.1291C270.511 63.9656 271.682 63.7783 272.559 63.5391L270.454 55.8209ZM268.19 56.1936C267.133 56.3314 266.079 56.4 265.027 56.4V64.4C266.428 64.4 267.827 64.3086 269.224 64.1264L268.19 56.1936ZM265.027 56.4C264.024 56.4 263.23 56.312 262.615 56.1753L260.879 63.9847C262.184 64.2747 263.577 64.4 265.027 64.4V56.4ZM262.442 56.1409C262.06 56.0735 261.894 55.97 261.827 55.92L257.027 62.32C258.24 63.23 259.62 63.7665 261.052 64.0191L262.442 56.1409ZM261.827 55.92C261.84 55.9296 261.843 55.9363 261.833 55.9228C261.821 55.9063 261.781 55.8463 261.732 55.7155L254.242 58.5245C254.791 59.9903 255.695 61.3208 257.027 62.32L261.827 55.92ZM261.732 55.7155C261.645 55.4818 261.507 54.8912 261.507 53.76H253.507C253.507 55.4022 253.689 57.0515 254.242 58.5245L261.732 55.7155ZM261.507 53.76V22.72H253.507V53.76H261.507ZM257.507 18.72H245.507V26.72H257.507V18.72ZM331.496 32.48L334.11 35.5073L334.12 35.4984L331.496 32.48ZM331.416 23.04L328.719 25.9939L328.785 26.055L328.855 26.1129L331.416 23.04ZM323.816 21.44V25.44H323.997L324.178 25.4236L323.816 21.44ZM322.136 21.6L321.42 17.6645L318.136 18.2617V21.6H322.136ZM322.136 34H318.136V38H322.136V34ZM322.216 59.68L323.268 63.5391L326.216 62.7352V59.68H322.216ZM319.416 60.16L318.919 56.1909L318.909 56.1922L318.898 56.1936L319.416 60.16ZM312.456 60.08L313.323 56.1753L313.237 56.1562L313.151 56.1409L312.456 60.08ZM310.136 59.12L307.736 62.32L307.736 62.32L310.136 59.12ZM308.696 57.12L304.95 58.5245L304.95 58.5245L308.696 57.12ZM309.096 13.52L311.924 16.3484L311.924 16.3484L309.096 13.52ZM311.656 12L312.977 15.7754L312.987 15.772L311.656 12ZM317.816 10.64L318.278 14.6132L318.317 14.6087L318.356 14.6033L317.816 10.64ZM341.736 14.88L339.221 17.991L341.736 14.88ZM346.296 34.8L342.582 33.3144L342.572 33.3392L342.562 33.3641L346.296 34.8ZM342.616 40.24L345.345 43.1642L345.348 43.1611L342.616 40.24ZM336.456 43.76L337.696 47.5629L337.72 47.5549L337.745 47.5466L336.456 43.76ZM322.216 44.96V40.96H318.216V44.96H322.216ZM326.376 38C329.156 38 331.946 37.3765 334.11 35.5073L328.881 29.4527C328.699 29.6102 328.075 30 326.376 30V38ZM334.12 35.4984C336.474 33.4517 337.336 30.5868 337.336 27.68H329.336C329.336 29.0399 328.971 29.3749 328.871 29.4616L334.12 35.4984ZM337.336 27.68C337.336 24.7483 336.365 21.9576 333.976 19.9671L328.855 26.1129C329.026 26.2558 329.336 26.5583 329.336 27.68H337.336ZM334.113 20.0861C331.879 18.0462 328.934 17.36 325.976 17.36V25.36C327.817 25.36 328.499 25.7937 328.719 25.9939L334.113 20.0861ZM325.976 17.36C325.05 17.36 324.201 17.3885 323.453 17.4564L324.178 25.4236C324.604 25.3848 325.195 25.36 325.976 25.36V17.36ZM323.816 17.44C323.016 17.44 322.216 17.5199 321.42 17.6645L322.851 25.5355C323.229 25.4668 323.548 25.44 323.816 25.44V17.44ZM318.136 21.6V34H326.136V21.6H318.136ZM322.136 38H326.376V30H322.136V38ZM321.163 55.8209C320.867 55.9017 320.171 56.0344 318.919 56.1909L319.912 64.1291C321.22 63.9656 322.391 63.7783 323.268 63.5391L321.163 55.8209ZM318.898 56.1936C317.842 56.3314 316.788 56.4 315.736 56.4V64.4C317.137 64.4 318.536 64.3086 319.933 64.1264L318.898 56.1936ZM315.736 56.4C314.732 56.4 313.939 56.312 313.323 56.1753L311.588 63.9847C312.893 64.2747 314.285 64.4 315.736 64.4V56.4ZM313.151 56.1409C312.769 56.0735 312.602 55.97 312.536 55.92L307.736 62.32C308.949 63.23 310.329 63.7665 311.76 64.0191L313.151 56.1409ZM312.536 55.92C312.548 55.9296 312.551 55.9363 312.542 55.9228C312.53 55.9063 312.49 55.8463 312.441 55.7155L304.95 58.5245C305.5 59.9903 306.403 61.3208 307.736 62.32L312.536 55.92ZM312.441 55.7155C312.353 55.4818 312.216 54.8912 312.216 53.76H304.216C304.216 55.4022 304.398 57.0515 304.95 58.5245L312.441 55.7155ZM312.216 53.76V16.08H304.216V53.76H312.216ZM312.216 16.08C312.216 15.86 312.245 15.8216 312.218 15.9003C312.204 15.9426 312.175 16.0117 312.124 16.0958C312.072 16.181 312.005 16.2677 311.924 16.3484L306.267 10.6916C304.698 12.261 304.216 14.281 304.216 16.08H312.216ZM311.924 16.3484C312.047 16.2254 312.34 15.9984 312.977 15.7754L310.334 8.22456C308.838 8.74828 307.424 9.53455 306.267 10.6916L311.924 16.3484ZM312.987 15.772C314.469 15.2487 316.224 14.8521 318.278 14.6132L317.354 6.66677C314.821 6.96126 312.468 7.47129 310.324 8.22804L312.987 15.772ZM318.356 14.6033C320.525 14.3075 322.691 14.16 324.856 14.16V6.16C322.327 6.16 319.799 6.33248 317.275 6.67668L318.356 14.6033ZM324.856 14.16C331.717 14.16 336.307 15.6356 339.221 17.991L344.25 11.769C339.378 7.83103 332.715 6.16 324.856 6.16V14.16ZM339.221 17.991C342.096 20.3144 343.576 23.3962 343.576 27.68H351.576C351.576 21.1905 349.162 15.7389 344.25 11.769L339.221 17.991ZM343.576 27.68C343.576 29.8538 343.222 31.714 342.582 33.3144L350.01 36.2856C351.076 33.6193 351.576 30.7328 351.576 27.68H343.576ZM342.562 33.3641C341.983 34.8705 341.102 36.1785 339.883 37.3189L345.348 43.1611C347.436 41.2082 349.008 38.8895 350.029 36.2359L342.562 33.3641ZM339.886 37.3158C338.777 38.3508 337.248 39.2649 335.167 39.9734L337.745 47.5466C340.677 46.5484 343.254 45.1159 345.345 43.1642L339.886 37.3158ZM335.216 39.9571C333.251 40.5976 330.832 40.96 327.896 40.96V48.96C331.465 48.96 334.753 48.5224 337.696 47.5629L335.216 39.9571ZM327.896 40.96H322.216V48.96H327.896V40.96ZM318.216 44.96V59.68H326.216V44.96H318.216ZM388.54 11.52L391.915 9.37249L390.736 7.52H388.54V11.52ZM389.5 13.84L385.646 14.9106L385.673 15.0085L385.705 15.1049L389.5 13.84ZM388.62 21.2L385.879 18.2872L385.834 18.3287L385.792 18.3716L388.62 21.2ZM368.3 22.48V18.48H364.3V22.48H368.3ZM368.3 29.92H364.3V33.92H368.3V29.92ZM386.3 29.92L389.675 27.7725L388.496 25.92H386.3V29.92ZM387.26 32.24L383.406 33.3106L383.443 33.4423L383.488 33.5713L387.26 32.24ZM368.3 40.8V36.8H364.3V40.8H368.3ZM368.3 49.2H364.3V53.2H368.3V49.2ZM388.86 49.2L392.235 47.0525L391.056 45.2H388.86V49.2ZM389.82 51.52L385.966 52.5906L385.993 52.6885L386.025 52.7849L389.82 51.52ZM388.94 58.96L386.112 56.1316L386.112 56.1316L388.94 58.96ZM356.7 58.24L359.528 55.4116L359.528 55.4116L356.7 58.24ZM358.7 18.96C358.7 17.4831 359.102 16.7748 359.528 16.3484L353.872 10.6916C351.631 12.9318 350.7 15.8503 350.7 18.96H358.7ZM359.528 16.3484C359.955 15.922 360.663 15.52 362.14 15.52V7.52C359.03 7.52 356.112 8.4513 353.872 10.6916L359.528 16.3484ZM362.14 15.52H388.54V7.52H362.14V15.52ZM385.165 13.6675C385.257 13.811 385.443 14.1814 385.646 14.9106L393.354 12.7694C393.023 11.5786 392.57 10.4023 391.915 9.37249L385.165 13.6675ZM385.705 15.1049C385.882 15.6354 385.98 16.2199 385.98 16.88H393.98C393.98 15.4068 393.758 13.9646 393.295 12.5751L385.705 15.1049ZM385.98 16.88C385.98 17.616 385.895 18.0547 385.825 18.2789C385.76 18.4839 385.738 18.4199 385.879 18.2872L391.361 24.1128C393.454 22.1434 393.98 19.342 393.98 16.88H385.98ZM385.792 18.3716C385.777 18.3863 385.768 18.3952 385.725 18.4111C385.669 18.4318 385.506 18.48 385.18 18.48V26.48C387.461 26.48 389.703 25.7742 391.448 24.0284L385.792 18.3716ZM385.18 18.48H368.3V26.48H385.18V18.48ZM364.3 22.48V29.92H372.3V22.48H364.3ZM368.3 33.92H386.3V25.92H368.3V33.92ZM382.925 32.0675C383.017 32.211 383.203 32.5814 383.406 33.3106L391.114 31.1694C390.783 29.9786 390.33 28.8023 389.675 27.7725L382.925 32.0675ZM383.488 33.5713C383.642 34.0062 383.74 34.5375 383.74 35.2H391.74C391.74 33.7292 391.518 32.2872 391.032 30.9087L383.488 33.5713ZM383.74 35.2C383.74 35.9535 383.658 36.4157 383.585 36.6636C383.515 36.8984 383.485 36.838 383.632 36.6916L389.288 42.3484C391.264 40.3725 391.74 37.6083 391.74 35.2H383.74ZM383.632 36.6916C383.617 36.7063 383.608 36.7152 383.565 36.7311C383.509 36.7518 383.346 36.8 383.02 36.8V44.8C385.301 44.8 387.543 44.0942 389.288 42.3484L383.632 36.6916ZM383.02 36.8H368.3V44.8H383.02V36.8ZM364.3 40.8V49.2H372.3V40.8H364.3ZM368.3 53.2H388.86V45.2H368.3V53.2ZM385.485 51.3475C385.577 51.491 385.763 51.8614 385.966 52.5906L393.674 50.4494C393.343 49.2586 392.89 48.0823 392.235 47.0525L385.485 51.3475ZM386.025 52.7849C386.202 53.3154 386.3 53.8999 386.3 54.56H394.3C394.3 53.0868 394.078 51.6446 393.615 50.2551L386.025 52.7849ZM386.3 54.56C386.3 55.293 386.216 55.748 386.138 55.9988C386.066 56.2324 386.022 56.2208 386.112 56.1316L391.768 61.7884C393.761 59.7954 394.3 57.0518 394.3 54.56H386.3ZM386.112 56.1316C386.097 56.1463 386.088 56.1553 386.045 56.1711C385.989 56.1918 385.826 56.24 385.5 56.24V64.24C387.781 64.24 390.023 63.5342 391.768 61.7884L386.112 56.1316ZM385.5 56.24H362.14V64.24H385.5V56.24ZM362.14 56.24C360.663 56.24 359.955 55.838 359.528 55.4116L353.872 61.0684C356.112 63.3087 359.03 64.24 362.14 64.24V56.24ZM359.528 55.4116C359.102 54.9852 358.7 54.2769 358.7 52.8H350.7C350.7 55.9097 351.631 58.8282 353.872 61.0684L359.528 55.4116ZM358.7 52.8V18.96H350.7V52.8H358.7ZM396.288 22.72L392.913 24.8675L394.092 26.72H396.288V22.72ZM395.248 20.32L391.434 21.5245L391.434 21.5245L395.248 20.32ZM396.128 12.64L393.382 9.73195L393.34 9.77117L393.3 9.81157L396.128 12.64ZM434.688 11.28L438.063 9.13249L436.884 7.28H434.688V11.28ZM435.728 13.68L439.542 12.4755L439.542 12.4755L435.728 13.68ZM434.768 21.36L432.022 18.4519L431.98 18.4912L431.94 18.5316L434.768 21.36ZM422.288 22.72V18.72H418.288V22.72H422.288ZM422.288 59.68L423.341 63.5391L426.288 62.7352V59.68H422.288ZM419.488 60.16L418.992 56.1909L418.981 56.1922L418.971 56.1936L419.488 60.16ZM412.528 60.08L413.396 56.1753L413.31 56.1562L413.223 56.1409L412.528 60.08ZM410.208 59.12L412.608 55.92L410.208 59.12ZM408.768 57.12L405.023 58.5245L405.023 58.5245L408.768 57.12ZM408.288 22.72H412.288V18.72H408.288V22.72ZM399.663 20.5725C399.547 20.391 399.327 19.9519 399.062 19.1155L391.434 21.5245C391.81 22.7148 392.282 23.8757 392.913 24.8675L399.663 20.5725ZM399.062 19.1155C398.872 18.5124 398.768 17.8535 398.768 17.12H390.768C390.768 18.6265 390.984 20.101 391.434 21.5245L399.062 19.1155ZM398.768 17.12C398.768 16.3514 398.854 15.8704 398.936 15.6019C399.012 15.3492 399.059 15.3662 398.957 15.4684L393.3 9.81157C391.291 11.8204 390.768 14.6106 390.768 17.12H398.768ZM398.875 15.5481C398.993 15.4359 399.192 15.28 399.808 15.28V7.28C397.438 7.28 395.183 8.03074 393.382 9.73195L398.875 15.5481ZM399.808 15.28H434.688V7.28H399.808V15.28ZM431.313 13.4275C431.429 13.609 431.65 14.0481 431.914 14.8845L439.542 12.4755C439.167 11.2852 438.694 10.1243 438.063 9.13249L431.313 13.4275ZM431.914 14.8845C432.104 15.4876 432.208 16.1465 432.208 16.88H440.208C440.208 15.3735 439.992 13.899 439.542 12.4755L431.914 14.8845ZM432.208 16.88C432.208 17.6314 432.119 18.0899 432.04 18.336C431.968 18.5614 431.927 18.5413 432.022 18.4519L437.515 24.2681C439.634 22.2662 440.208 19.4419 440.208 16.88H432.208ZM431.94 18.5316C431.907 18.5644 431.789 18.72 431.168 18.72V26.72C433.534 26.72 435.816 25.9689 437.597 24.1884L431.94 18.5316ZM431.168 18.72H422.288V26.72H431.168V18.72ZM418.288 22.72V59.68H426.288V22.72H418.288ZM421.236 55.8209C420.94 55.9017 420.244 56.0344 418.992 56.1909L419.984 64.1291C421.292 63.9656 422.463 63.7783 423.341 63.5391L421.236 55.8209ZM418.971 56.1936C417.914 56.3314 416.86 56.4 415.808 56.4V64.4C417.209 64.4 418.609 64.3086 420.005 64.1264L418.971 56.1936ZM415.808 56.4C414.805 56.4 414.011 56.312 413.396 56.1753L411.66 63.9847C412.965 64.2747 414.358 64.4 415.808 64.4V56.4ZM413.223 56.1409C412.841 56.0735 412.675 55.97 412.608 55.92L407.808 62.32C409.021 63.23 410.401 63.7665 411.833 64.0191L413.223 56.1409ZM412.608 55.92C412.621 55.9296 412.624 55.9363 412.614 55.9228C412.602 55.9063 412.562 55.8463 412.513 55.7155L405.023 58.5245C405.572 59.9903 406.476 61.3208 407.808 62.32L412.608 55.92ZM412.513 55.7155C412.426 55.4818 412.288 54.8912 412.288 53.76H404.288C404.288 55.4022 404.47 57.0515 405.023 58.5245L412.513 55.7155ZM412.288 53.76V22.72H404.288V53.76H412.288ZM408.288 18.72H396.288V26.72H408.288V18.72Z" fill="white"/>
</g>
<defs>
<filter id="filter0_d" x="0.799988" y="0" width="449.408" height="79.44" filterUnits="userSpaceOnUse" color-interpolation-filters="sRGB">
<feFlood flood-opacity="0" result="BackgroundImageFix"/>
<feColorMatrix in="SourceAlpha" type="matrix" values="0 0 0 0 0 0 0 0 0 0 0 0 0 0 0 0 0 0 127 0"/>
<feOffset dy="4"/>
<feGaussianBlur stdDeviation="5"/>
<feColorMatrix type="matrix" values="0 0 0 0 0.525 0 0 0 0 0.330475 0 0 0 0 0.310625 0 0 0 0.5 0"/>
<feBlend mode="normal" in2="BackgroundImageFix" result="effect1_dropShadow"/>
<feBlend mode="normal" in="SourceGraphic" in2="effect1_dropShadow" result="shape"/>
</filter>
</defs>
</svg>
