<svg width="275" height="122" viewBox="0 0 275 122" fill="none" xmlns="http://www.w3.org/2000/svg">
<path d="M159.533 83.4453C163.063 78.9544 165.107 73.2919 170.681 70.9488C180.9 66.4578 188.332 58.0617 194.835 49.0798C200.595 41.2695 205.612 33.0686 211.557 24.282C210.071 24.6725 209.514 24.8678 208.213 25.063C216.202 19.5958 218.06 10.8091 222.52 3.19407C216.76 4.75614 202.825 17.2527 192.42 30.1397C183.873 40.6837 176.069 52.0087 171.424 66.0673C173.654 46.932 203.754 6.51346 224.378 0.460449C222.705 4.95139 221.591 9.24708 219.733 13.1523C210.814 32.2876 199.295 49.6656 184.245 64.1147C179.971 68.2151 174.211 70.5583 169.381 74.0729C166.594 76.0255 161.763 80.3212 159.533 83.4453Z" fill="#029B9C"/>
<path d="M175.884 61.9678C185.917 45.7613 197.623 29.9454 210.629 16.082C199.109 31.1169 187.403 46.7376 175.884 61.9678Z" fill="#029B9C"/>
<path d="M82.9495 38.019C82.9495 39.9716 82.3921 42.1195 81.4631 44.8531C81.2773 45.2436 81.0915 45.6341 80.9057 45.6341C80.7198 45.6341 80.534 45.4389 80.534 45.2436C80.534 45.0484 80.7198 44.4626 81.0915 43.291C81.4631 42.1195 81.6488 41.3384 81.6488 40.5574C81.6488 38.6048 79.9766 37.4333 76.6322 37.4333C74.5884 37.4333 71.244 37.8238 66.4132 38.4096C68.6428 41.3384 69.7576 44.4626 69.7576 47.9772C69.7576 53.6397 66.599 61.0595 60.2817 70.2367C57.6805 73.9466 55.0793 77.0707 52.1065 79.8044C48.2047 83.319 44.8603 85.2716 41.8875 85.2716C38.1714 85.2716 36.4992 81.9522 36.4992 75.5087C36.4992 74.7276 36.4992 73.1656 36.3134 70.6272C36.1276 68.0889 36.1276 66.1363 36.1276 64.3789C36.1276 61.2548 36.1276 55.5923 35.9418 47.5867C35.756 44.6578 35.0128 43.291 33.5264 43.291C32.5974 43.291 31.2968 44.2673 29.6246 46.0246C23.679 52.6634 18.1049 60.669 12.5309 70.432C9.00069 76.8755 6.02788 82.7332 3.98407 88.2005C2.68346 91.3246 2.12606 94.0582 2.12606 96.5966V97.3776C2.12606 97.7681 2.12606 97.9634 1.94025 97.9634C1.56865 97.9634 1.19705 96.5966 0.639648 93.6677C0.639648 93.2772 0.639648 93.0819 0.639648 92.8867C0.639648 91.9104 0.825449 90.9341 1.38285 89.7625C3.98407 82.1475 9.18649 72.7751 16.9901 61.2548C23.4932 51.4919 28.8814 44.4626 32.969 40.1669C34.4554 38.6048 35.756 37.8238 36.8708 37.8238C38.3572 37.8238 39.1004 39.9716 39.1004 44.2673C39.1004 46.0246 39.1004 48.563 39.1004 52.0777C39.1004 55.5923 39.1004 58.1307 39.1004 59.888C39.1004 63.7932 39.1004 66.9173 39.2862 69.0652C39.472 72.9703 39.8436 75.8992 40.2152 77.4613C41.1442 80.9759 42.8165 82.7332 45.0461 82.7332C46.3467 82.7332 47.8331 82.1475 49.3195 80.9759C52.8497 78.2423 56.1941 74.1419 59.3527 68.8699C64.741 59.888 67.528 51.8824 67.528 45.2436C67.528 42.3147 66.9706 40.1669 65.67 38.4096C62.883 38.8001 60.6534 38.9953 58.9811 38.9953C56.0083 38.9953 53.5929 38.4096 51.9207 37.238C50.9917 36.6522 50.4343 36.0665 50.4343 35.0902C50.4343 33.5281 52.2923 32.7471 55.8225 32.7471C59.5385 32.7471 62.6972 34.1139 65.1126 36.6522L71.4298 35.0902C73.8452 34.5044 76.0748 34.3091 77.9328 34.3091C81.2773 34.3091 82.9495 35.4807 82.9495 38.019ZM64.1836 36.8475C62.3256 35.2854 59.9101 34.5044 56.7515 34.5044C53.5929 34.5044 52.1065 35.0902 52.2923 36.2617C52.4781 37.4333 53.7787 38.019 56.5657 38.019C58.4237 37.8238 61.025 37.4333 64.1836 36.8475Z" fill="#029B9C"/>
<path d="M91.3095 71.4077C91.3095 71.603 91.3095 71.7982 91.1237 71.9935C89.4515 74.7271 86.2929 77.2654 81.6478 79.6085C78.8608 80.9754 75.888 82.3422 72.5436 83.5137C66.2264 95.2292 60.8381 103.235 56.1931 107.335C50.6191 112.217 45.4167 114.755 40.2142 114.755C37.4272 114.755 34.826 113.974 32.5964 112.607C29.9952 110.85 28.5088 108.702 28.5088 105.968C28.5088 99.1344 36.4982 93.4719 52.2913 88.981C57.4937 87.4189 63.811 85.6616 71.243 83.3185C71.4288 82.9279 71.8004 82.1469 72.3578 80.9754C73.8442 77.656 75.3306 74.7271 76.6312 71.9935C72.3578 77.656 68.6418 80.3896 65.669 80.3896C64.1826 80.3896 63.4394 79.6086 63.4394 78.0465C63.4394 77.4607 63.6252 76.8749 63.9968 75.8986C65.1116 73.165 66.598 70.6267 68.8276 68.2835C71.0572 65.5499 73.2868 63.7926 75.7022 62.6211C77.1886 62.0353 78.4892 61.6448 79.7898 61.6448C80.533 61.6448 81.0904 61.84 81.462 62.0353C81.6478 61.6448 82.2052 60.8637 82.9485 59.4969C83.8775 57.9348 84.6207 57.1538 84.9923 57.1538C85.3639 57.1538 85.5497 57.3491 85.7355 57.7396V57.9348C85.7355 58.9111 85.1781 60.4732 84.0633 62.4258C82.2052 65.9404 78.8608 72.1887 73.6584 81.1706L73.101 82.1469C75.7022 81.1706 78.4892 79.9991 81.462 78.6323C85.9213 76.2892 88.8941 73.946 90.5663 71.2124C90.7521 71.0172 90.9379 70.8219 91.1237 70.8219C91.1237 71.0172 91.3095 71.2124 91.3095 71.4077ZM70.6856 83.9042L50.2475 90.9336C41.3291 94.6435 35.3834 98.1581 32.5964 101.673C31.11 103.625 30.3668 105.578 30.3668 107.14C30.3668 109.093 31.2958 110.655 33.1538 111.631C34.6402 112.412 36.4982 112.803 38.542 112.803C44.8593 112.803 51.1765 109.483 57.6795 102.649C62.5104 97.7676 66.7838 91.5193 70.6856 83.9042ZM80.9046 62.8163C80.3472 62.621 79.7898 62.4258 78.8608 62.4258C77.5602 62.4258 76.4454 62.8163 75.7022 63.4021C74.03 64.5736 72.3578 66.7215 70.314 70.0409C68.0844 73.3603 66.9696 75.8986 66.9696 77.656C66.9696 78.0465 67.1554 78.437 67.527 78.437H67.7128C68.456 78.437 69.385 77.8512 70.6856 76.6797C73.8442 74.1413 77.1886 69.4551 80.9046 62.8163Z" fill="#029B9C"/>
<path d="M106.174 64.7691C102.272 70.6269 100.414 75.1178 100.414 77.8514C100.414 79.6087 101.343 80.585 103.201 80.585C103.759 80.585 104.502 80.3898 105.431 80.1945C108.589 79.4135 111.934 76.6799 115.464 71.7984C115.65 71.6032 115.65 71.6032 115.836 71.6032C116.021 71.6032 116.021 71.6032 116.021 71.7984C116.021 71.9937 116.021 71.9937 115.836 72.1889C110.819 78.6325 106.174 81.9518 102.086 81.9518C99.2994 81.9518 97.813 80.585 97.813 77.6562C97.813 76.6799 97.9988 75.8988 98.1846 74.9225C96.6982 76.8751 95.3976 78.2419 94.2828 79.2182C92.4248 80.7803 90.9384 81.5613 89.6378 81.5613C88.7088 81.5613 88.1514 80.9756 88.1514 79.804C88.1514 79.2182 88.3372 78.2419 88.7088 77.2656C90.1952 73.1652 92.239 69.0648 95.026 64.5739C95.2118 64.1833 95.7692 63.4023 96.3266 62.426C96.6982 61.8402 97.813 61.2545 99.4852 61.0592C100.043 61.2545 100.228 61.4497 100.228 61.4497C100.228 62.0355 99.8568 62.8165 99.1136 63.5976C98.1846 64.5739 97.4414 65.1596 97.4414 65.5501C95.2118 69.2601 93.5396 72.5794 92.4248 75.8988C92.0532 77.0704 91.8674 77.8514 91.8674 78.2419C91.8674 78.8277 92.0532 79.023 92.4248 79.023C93.3538 79.023 94.8402 77.4609 97.0698 74.3368C98.742 71.6032 101.343 67.5027 104.873 62.0355C105.245 61.4497 105.617 61.2545 105.988 61.2545C106.731 61.2545 107.103 61.8402 107.103 62.8165C107.103 63.0118 107.103 63.4023 106.917 63.5976C107.103 63.5976 107.103 63.4023 107.289 63.4023C108.032 63.0118 108.775 62.426 109.147 61.645C109.704 60.8639 109.518 60.2782 108.961 59.8877C108.404 59.4971 108.218 59.1066 108.589 58.7161C108.961 58.3256 109.518 58.1303 110.262 57.9351C111.005 57.7398 111.562 58.1303 111.748 58.7161C111.934 59.3019 111.934 60.0829 111.562 60.8639C110.447 62.6213 108.589 63.7928 106.174 64.7691Z" fill="#029B9C"/>
<path d="M128.842 63.9874C130.514 64.5731 132.558 64.7684 135.345 64.7684C137.574 64.7684 139.432 64.5731 140.919 63.9874H141.104C141.29 63.9874 141.29 63.9874 141.29 64.1826C141.29 64.3779 141.104 64.5731 140.919 64.5731C137.76 65.5494 135.345 65.9399 133.858 65.9399H132C129.771 65.9399 127.913 65.7447 126.426 65.3542C125.869 70.0404 123.639 74.5313 119.737 78.6317C117.508 80.9749 115.278 82.1464 113.42 82.1464C111.376 82.1464 110.447 81.1701 110.447 79.2175V79.0223C110.447 74.5313 113.606 69.6499 120.109 64.3779C121.038 63.7921 121.781 63.2063 122.896 62.6206C122.896 62.4253 122.896 62.4253 123.082 62.23C124.197 61.2537 124.94 60.8632 125.126 60.8632C125.497 60.8632 125.683 61.0585 125.683 61.449C125.869 62.4253 126.612 63.2063 127.727 63.7921C127.727 63.7921 127.913 63.7921 127.913 63.5968C128.656 63.2063 129.399 62.6205 129.771 61.8395C130.328 61.0585 130.142 60.4727 129.585 60.0822C129.027 59.6917 128.842 59.3012 129.213 58.9106C129.585 58.5201 130.328 57.9343 130.885 57.9343C131.443 57.9343 132.186 58.1296 132.372 58.7154C132.558 59.3012 132.558 60.0822 132.186 60.8632C131.443 62.23 130.328 63.2063 128.842 63.9874ZM123.268 66.3305V65.5494C123.268 64.1826 123.082 63.5968 122.524 63.5968C122.339 63.5968 121.967 63.7921 121.224 64.1826C116.207 68.0878 113.792 72.5787 113.792 78.046C113.792 79.608 114.163 80.3891 115.092 80.3891C115.65 80.3891 116.207 80.1938 117.136 79.608C121.224 76.6792 123.268 72.1882 123.268 66.3305ZM128.656 58.1296C128.47 58.1296 128.47 58.1296 128.284 58.1296C124.94 56.177 122.153 54.4197 119.923 53.0529C119.552 52.8576 119.18 52.6624 119.18 52.2718C119.18 52.0766 119.18 51.6861 119.18 51.1003C119.18 50.905 119.366 50.7098 119.552 50.5145C119.737 50.3193 119.923 50.5145 120.109 50.5145C120.852 51.1003 121.781 51.6861 122.71 52.2718C125.497 54.4197 127.355 55.9818 128.842 56.958L129.213 57.3486C128.842 57.7391 128.842 57.7391 128.656 58.1296Z" fill="#029B9C"/>
<path d="M154.484 80.3901C149.281 86.8336 143.893 79.8043 138.505 82.3427C136.089 83.5142 134.231 84.1 133.117 84.1C131.444 84.1 130.701 83.319 130.701 81.7569C130.701 80.3901 131.259 78.6328 132.559 76.2897C133.488 74.5324 136.275 69.6509 140.734 61.8406C141.478 60.669 142.035 60.0832 142.407 60.0832C142.964 60.0832 143.336 60.669 143.521 62.0358V62.4263C143.521 62.8169 143.336 63.0121 143.15 63.4026C141.849 64.9647 140.734 66.722 139.62 68.4793C137.204 72.5798 135.532 75.8992 134.789 78.4375C134.603 79.0233 134.603 79.6091 134.603 79.9996C134.603 81.5617 135.16 82.1474 136.461 82.1474C136.833 82.1474 137.204 82.1474 137.576 81.9522C145.91 76.2897 148.91 87.6147 154.484 80.3901ZM149.839 51.6871C149.839 52.4682 149.467 53.2492 148.91 53.835C148.352 54.4207 147.609 55.0065 146.866 55.0065C146.123 55.0065 145.751 54.616 145.751 53.835C145.751 53.0539 146.123 52.2729 146.68 51.4919C147.237 50.7108 147.981 50.3203 148.724 50.3203C149.467 50.5156 149.839 50.9061 149.839 51.6871Z" fill="#029B9C"/>
<path d="M79.2328 112.823V120.243C79.2328 120.438 79.4186 120.634 79.6044 121.024H76.8174C77.0032 120.634 77.189 120.438 77.189 120.243V104.818C77.189 104.622 77.0032 104.427 76.8174 104.037H79.6044C79.4186 104.427 79.2328 104.622 79.2328 104.818V112.042L85.7358 105.013C85.9216 104.818 85.9216 104.427 85.9216 104.037H88.1513C87.9655 104.232 87.5939 104.427 87.0365 104.818L80.7192 111.652L88.7087 120.243C88.8945 120.438 89.2661 120.634 89.8235 121.024H85.9216C86.1074 120.634 86.1074 120.438 85.9216 120.243L79.2328 112.823Z" fill="#029B9C"/>
<path d="M105.987 104.818V120.243C105.987 120.438 106.173 120.634 106.359 121.024H103.572C103.758 120.634 103.944 120.438 103.944 120.243V112.042H93.5387V120.243C93.5387 120.438 93.7245 120.634 93.9103 121.024H91.1233C91.3091 120.634 91.3091 120.438 91.3091 120.243V104.818C91.3091 104.622 91.1233 104.427 90.9375 104.037H93.7245C93.5387 104.427 93.3529 104.622 93.3529 104.818V111.261H103.758V104.818C103.758 104.622 103.572 104.427 103.386 104.037H106.173C105.987 104.427 105.987 104.622 105.987 104.818Z" fill="#029B9C"/>
<path d="M125.125 112.432C125.125 114.775 124.196 116.923 122.524 118.681C120.852 120.438 118.808 121.219 116.393 121.219C113.977 121.219 111.934 120.438 110.261 118.681C108.589 116.923 107.66 114.971 107.66 112.432C107.66 110.089 108.589 107.941 110.261 106.184C111.934 104.427 113.977 103.646 116.393 103.646C118.808 103.646 120.852 104.427 122.524 106.184C124.196 107.941 125.125 110.089 125.125 112.432ZM123.082 112.628C123.082 110.285 122.524 108.332 121.409 106.77C120.109 105.208 118.437 104.427 116.207 104.427C114.163 104.427 112.491 105.208 111.19 106.77C109.89 108.332 109.332 110.089 109.332 112.432C109.332 114.58 110.076 116.533 111.376 118.095C112.677 119.657 114.349 120.438 116.207 120.438C118.065 120.438 119.737 119.657 121.038 118.095C122.338 116.533 123.082 114.775 123.082 112.628ZM113.234 102.669L116.579 99.1548L119.923 102.669H119.366L116.579 100.522L113.792 102.669H113.234Z" fill="#029B9C"/>
<path d="M142.033 121.219L128.098 105.989V120.243C128.098 120.634 128.284 120.829 128.655 121.024H126.797C127.169 120.829 127.355 120.634 127.355 120.243V105.403C127.169 104.818 126.983 104.427 126.611 104.232H129.77C129.77 104.427 129.77 104.622 129.77 104.622C129.77 104.818 129.77 104.818 129.77 104.818L141.29 117.509V104.818C141.29 104.427 141.104 104.232 140.732 104.037H142.59C142.219 104.232 142.033 104.427 142.033 104.818V121.219Z" fill="#029B9C"/>
<path d="M158.384 113.409V120.048C155.969 120.829 153.925 121.024 152.624 121.024C150.209 121.024 148.165 120.243 146.493 118.486C144.821 116.729 143.892 114.776 143.892 112.433C143.892 110.09 144.635 107.942 146.121 106.185C147.793 104.427 149.837 103.451 152.438 103.451C154.296 103.451 155.783 103.646 157.084 104.037L158.198 104.232V105.794C157.641 105.208 156.898 104.623 155.969 104.427C155.411 104.232 154.482 104.232 153.367 104.037C150.952 104.037 149.094 104.818 147.608 106.38C146.307 107.942 145.564 109.699 145.564 112.043C145.564 114.19 146.307 116.143 147.793 117.51C149.28 119.072 151.138 119.853 153.367 119.853C154.482 119.853 155.411 119.658 156.155 119.462V113.019C156.155 112.824 155.969 112.628 155.783 112.238H158.57C158.384 113.019 158.384 113.214 158.384 113.409Z" fill="#029B9C"/>
<path d="M174.92 104.818V120.243C174.92 120.438 175.106 120.634 175.291 121.024H172.504C172.69 120.634 172.876 120.438 172.876 120.243V104.818H167.116C166.745 104.818 166.559 105.013 166.373 105.403V104.037H181.237V105.403C181.051 105.013 180.866 104.818 180.494 104.818H174.92Z" fill="#029B9C"/>
<path d="M197.402 104.818V120.243C197.402 120.438 197.588 120.634 197.774 121.024H194.987C195.173 120.634 195.358 120.438 195.358 120.243V112.042H184.954V120.243C184.954 120.438 185.139 120.634 185.325 121.024H182.538C182.724 120.634 182.91 120.438 182.91 120.243V104.818C182.91 104.622 182.724 104.427 182.538 104.037H185.325C185.139 104.427 184.954 104.622 184.954 104.818V111.261H195.358V104.818C195.358 104.622 195.173 104.427 194.987 104.037H197.774C197.588 104.427 197.402 104.622 197.402 104.818Z" fill="#029B9C"/>
<path d="M201.49 104.817V112.433H205.763C206.135 112.433 206.32 112.237 206.506 111.847V113.799C206.32 113.409 206.135 113.214 205.949 113.214H201.49V120.243H205.949C206.32 120.243 206.692 120.048 206.878 119.657L206.506 121.024H199.074C199.26 120.633 199.446 120.438 199.446 120.243V104.817C199.446 104.622 199.26 104.427 199.074 104.036H206.506V105.403C206.32 105.013 206.135 104.817 205.763 104.817H201.49ZM199.632 102.67L202.976 99.155L206.32 102.67H205.763L202.976 100.522L200.189 102.67H199.632ZM204.277 99.936V98.5692C204.834 98.1787 205.02 97.9834 205.206 97.7881C205.391 97.3976 205.577 97.0071 205.763 96.4213C205.763 96.0308 205.763 95.8356 205.577 95.445C205.391 95.0545 205.206 94.8593 204.834 94.8593C204.648 94.8593 204.277 95.0545 204.091 95.2498C203.905 95.445 203.719 95.8356 203.719 96.2261C203.719 96.4213 203.719 96.4213 203.719 96.6166C203.719 96.6166 203.719 96.6166 203.905 96.8119L202.047 97.5929C202.233 97.2024 202.419 97.0071 202.419 97.0071C202.419 96.2261 202.604 95.6403 202.976 95.2498C203.348 94.8593 204.091 94.4688 204.648 94.4688C205.206 94.4688 205.949 94.664 206.32 95.0545C206.692 95.445 207.064 96.0308 207.064 96.6166C207.064 97.0071 206.878 97.5929 206.32 97.9834C205.949 98.3739 205.577 98.7644 205.206 98.7644V99.5455L204.277 99.936Z" fill="#029B9C"/>
<path d="M232.704 121.609C232.147 121.805 231.589 122 231.032 122C229.731 122 228.431 121.414 227.316 120.242C226.015 120.828 224.715 121.219 223.414 121.219C220.999 121.219 218.955 120.438 217.283 118.68C215.611 116.923 214.682 114.97 214.682 112.432C214.682 110.089 215.611 107.941 217.283 106.184C218.955 104.427 220.999 103.646 223.414 103.646C225.83 103.646 227.873 104.427 229.546 106.184C231.218 107.941 232.147 109.894 232.147 112.432C232.147 115.166 231.218 117.314 229.174 119.071C230.66 120.828 231.961 121.609 232.704 121.609ZM230.289 112.627C230.289 110.284 229.731 108.332 228.617 106.77C227.316 105.208 225.644 104.427 223.414 104.427C221.37 104.427 219.698 105.208 218.398 106.77C217.097 108.332 216.54 110.089 216.54 112.432C216.54 114.58 217.283 116.533 218.583 118.095C219.884 119.657 221.556 120.438 223.414 120.438C225.272 120.438 226.944 119.657 228.245 118.095C229.546 116.533 230.289 114.775 230.289 112.627Z" fill="#029B9C"/>
<path d="M248.312 104.818V120.243C248.312 120.438 248.497 120.634 248.683 121.024H245.896C246.082 120.634 246.268 120.438 246.268 120.243V118.876C244.967 120.438 243.109 121.219 240.879 121.219C239.207 121.219 237.907 120.634 236.42 119.657C235.12 118.486 234.376 117.119 234.376 115.362V104.818C234.376 104.622 234.191 104.427 234.005 104.037H236.792C236.606 104.427 236.42 104.622 236.42 104.818V115.362C236.42 116.338 236.978 117.314 237.907 118.29C238.836 119.072 239.579 119.657 240.136 119.853C240.508 119.853 240.88 120.048 241.437 120.048C242.738 120.048 243.852 119.657 244.967 119.072C245.896 118.486 246.268 118.095 246.268 117.9V104.818C246.268 104.622 246.082 104.427 245.896 104.037H248.683C248.312 104.427 248.312 104.622 248.312 104.818Z" fill="#029B9C"/>
<path d="M252.214 104.817V112.432H256.488C256.859 112.432 257.045 112.237 257.231 111.847V113.799C257.045 113.409 256.859 113.213 256.673 113.213H252.214V120.243H256.673C257.045 120.243 257.417 120.047 257.603 119.657L257.231 121.024H249.799C249.985 120.633 250.17 120.438 250.17 120.243V104.817C250.17 104.622 249.985 104.427 249.799 104.036H257.231V105.403C257.045 105.013 256.859 104.817 256.488 104.817H252.214ZM250.356 102.669L253.701 99.1548L257.045 102.669H256.673L253.886 100.522L251.099 102.669H250.356Z" fill="#029B9C"/>
<path d="M274.324 121.219L260.389 105.989V120.243C260.389 120.634 260.575 120.829 260.946 121.024H259.088C259.46 120.829 259.646 120.634 259.646 120.243V105.403C259.46 104.818 259.274 104.427 258.902 104.232H262.061C262.061 104.427 262.061 104.622 262.061 104.622C262.061 104.818 262.061 104.818 262.061 104.818L273.581 117.509V104.818C273.581 104.427 273.395 104.232 273.023 104.037H274.881C274.51 104.232 274.324 104.427 274.324 104.818V121.219Z" fill="#029B9C"/>
</svg>
