<svg width="120" height="48" viewBox="0 0 120 48" fill="none" xmlns="http://www.w3.org/2000/svg">
<path d="M72.6207 0.972168C71.1265 0.972168 69.6322 1.27102 68.138 1.7193C66.6437 2.16757 65.2989 2.317 64.1035 2.317C63.3563 2.317 62.7586 2.317 62.4598 2.317C62.1609 2.16757 61.8621 2.16757 61.5632 2.16757C61.4138 2.16757 60.9655 2.16757 60.6667 2.01815C60.3678 2.01815 59.6207 2.01815 58.7242 2.01815C57.3793 2.01815 56.1839 2.317 55.2874 2.76527C54.3908 3.36298 53.6437 3.96068 53.1954 4.85723C52 6.94919 51.8506 9.78827 51.8506 12.1791V26.6733C51.8506 39.3745 66.6437 39.9722 66.6437 28.6159V21.7423C66.6437 19.9492 66.7931 17.8572 67.9885 16.5124C68.2874 16.2136 68.7357 15.9147 69.1839 15.9147C71.7242 15.9147 71.7242 20.0986 71.7242 21.8917V28.7653C71.7242 39.3745 86.5173 39.0757 86.5173 28.0182V16.2136C86.5173 14.1216 86.2184 12.0297 85.6207 10.2365C84.4253 6.65034 82.184 3.66183 78.7472 2.16757C76.8046 1.42044 74.8621 0.972168 72.6207 0.972168Z" fill="#632F87"/>
<path fill-rule="evenodd" clip-rule="evenodd" d="M0 29.8112C0 34.5928 3.58621 36.8342 7.17242 36.9836C10.9081 36.9836 14.6437 34.5928 14.6437 29.6618V25.0296C14.6437 20.0986 10.9081 17.7078 7.17242 17.7078C3.58621 17.8572 0 20.0986 0 24.8802V29.8112Z" fill="#EA1E8C"/>
<path fill-rule="evenodd" clip-rule="evenodd" d="M35.4139 0.67334C32.1266 0.67334 29.138 1.27104 26.8967 2.46645C22.7127 4.5584 19.5748 8.29404 18.0806 12.9262C16.7357 17.409 16.7357 22.1906 18.5288 26.3745C21.5173 33.0987 28.2415 36.8343 35.2645 36.9837H35.5633C42.5863 36.9837 49.0116 32.7998 52.0001 26.5239C54.2415 21.8918 54.2415 15.7653 52.1496 11.2825C50.207 6.79978 46.6208 3.66185 42.2875 1.86874C40.345 0.972191 37.9541 0.67334 35.4139 0.67334ZM35.4139 22.1906C34.6668 22.1906 34.0691 21.8918 33.322 21.1446C32.5748 20.3975 32.276 19.5009 32.276 18.6044C32.276 17.8573 32.5748 17.1101 33.1725 16.363C33.7702 15.6159 34.5174 15.1676 35.4139 15.1676L35.5633 15.317C36.161 15.317 36.6093 15.317 37.0576 15.6159C38.253 16.2136 38.7013 17.7078 38.7013 19.0527C38.7013 19.9492 38.4024 20.6964 37.8047 21.2941C37.0576 21.8918 36.3105 22.1906 35.4139 22.1906Z" fill="#632F87"/>
<path fill-rule="evenodd" clip-rule="evenodd" d="M108.483 16.6619C108.632 17.1102 108.931 18.3056 108.931 18.3056C109.23 19.9493 108.632 20.8459 108.184 21.2941C107.437 22.1907 106.839 22.3401 106.391 22.4895C105.345 22.7884 103.701 21.4436 104.598 20.2482C105.943 18.3056 103.851 16.5125 101.759 16.8114C100.414 16.9608 99.0691 18.0068 98.6209 18.7539C96.2301 21.8918 97.1266 25.9263 101.161 28.7654C108.931 33.9953 119.54 26.9723 119.989 18.4551C120.138 13.8229 118.793 8.1447 116.552 6.50102C114.311 3.66193 112.966 2.61596 110.276 1.42055C108.334 0.523998 102.655 -1.26911 96.2301 1.42055C94.5864 2.01825 92.9427 2.91481 91.5979 3.96078C87.7128 6.79987 84.8737 11.1332 84.276 16.0642C83.9772 18.4551 84.1266 20.8459 84.8737 23.0872L85.1726 24.1332C85.7703 25.9263 86.6668 27.57 87.7128 29.0643C88.7588 30.5585 90.1036 31.9034 91.4484 32.9493C92.7933 33.9953 96.9772 36.0873 101.161 36.685C106.989 37.4321 110.874 35.4896 112.219 34.593C115.655 32.5011 116.104 31.4551 116.403 30.7079C116.701 29.662 116.253 28.3171 114.609 29.0643C113.862 29.3631 112.368 30.4091 111.92 30.8574C110.276 31.6045 109.081 31.9034 106.989 31.9034C105.046 31.9034 102.954 31.6045 101.012 30.5585C98.4714 29.2137 96.6783 27.4206 95.9312 25.3286C94.7358 21.8918 95.6324 18.4551 97.4255 16.6619C99.368 14.7194 101.908 13.6734 104.448 14.1217C105.943 14.2711 107.736 15.1677 108.483 16.6619Z" fill="#45C1CD"/>
<path fill-rule="evenodd" clip-rule="evenodd" d="M7.32182 2.31738C5.97699 2.31738 4.78159 2.46681 3.88503 2.91508C2.24135 3.66221 0.896524 5.15647 0.448248 6.94957C-0.149454 8.59325 -0.149454 10.5358 0.597673 12.1795C1.79308 14.7197 4.48274 16.214 7.32182 16.214H7.47125C10.3103 16.214 12.8506 14.5703 14.046 12.1795C14.7931 10.3864 14.9425 8.14498 14.046 6.35187C13.2988 4.70819 11.8046 3.36336 10.1609 2.76566C9.26435 2.46681 8.21837 2.31738 7.32182 2.31738Z" fill="#EA1E8C"/>
<path fill-rule="evenodd" clip-rule="evenodd" d="M3.88501 46.5471C4.03444 46.6965 4.33329 46.6965 4.48271 46.8459C4.78156 46.8459 5.08041 46.9953 5.37926 46.9953C5.82754 46.9953 6.27582 46.8459 6.57467 46.6965C6.87352 46.5471 7.17237 46.3976 7.3218 46.0988C7.47122 45.7999 7.62065 45.5011 7.62065 45.2022C7.62065 44.7539 7.47122 44.4551 7.3218 44.1562C7.02295 43.8574 6.72409 43.708 6.27582 43.4091C5.82754 43.4091 5.67812 43.2597 5.52869 43.2597C5.37926 43.1103 5.22984 42.9608 5.22984 42.8114C5.22984 42.662 5.22984 42.5126 5.37926 42.3631C5.52869 42.2137 5.67812 42.2137 5.97697 42.2137C6.27582 42.2137 6.42524 42.2137 6.72409 42.3631C6.87352 42.3631 7.02295 42.5126 7.17237 42.5126L7.47122 41.4666C7.3218 41.3172 7.17237 41.3172 6.87352 41.3172C6.57467 41.3172 6.42524 41.1677 6.12639 41.1677C5.52869 41.1677 4.93099 41.3172 4.63214 41.616C4.33329 41.9149 4.03444 42.3631 4.03444 42.8114C4.03444 43.2597 4.18386 43.5585 4.48271 43.8574C4.78156 44.1562 5.08041 44.3057 5.52869 44.4551C5.82754 44.6045 5.97697 44.7539 6.12639 44.9034C6.27582 45.0528 6.27582 45.2022 6.27582 45.3516C6.27582 45.5011 6.27582 45.6505 5.97697 45.7999C5.82754 45.9494 5.67812 45.9494 5.37926 45.9494C5.08041 45.9494 4.78156 45.9494 4.63214 45.7999C4.33329 45.7999 4.18386 45.6505 4.03444 45.5011L3.88501 46.5471ZM12.4023 41.3172V46.8459H13.5977V44.4551H15.6896V46.8459H16.885V41.3172H15.6896V43.4091H13.5977V41.3172H12.4023ZM23.0115 44.4551L23.3103 43.2597L23.4597 42.662L23.6092 42.0643L23.7586 42.662L23.908 43.2597L24.2069 44.4551H23.0115ZM24.5057 45.3516L24.954 46.8459H26.2988L24.5057 41.3172H22.862L21.2184 46.8459H22.4138L22.862 45.3516H24.5057ZM31.977 42.2137H32.1264C32.2759 42.2137 32.2759 42.2137 32.4253 42.2137C32.7241 42.2137 32.8736 42.2137 33.1724 42.3631C33.3218 42.5126 33.4713 42.662 33.4713 42.9608C33.4713 43.2597 33.3218 43.4091 33.1724 43.5585C33.023 43.708 32.7241 43.708 32.4253 43.708H31.977V42.2137ZM30.7816 46.8459H31.977V44.6045H32.4253C32.7241 44.6045 32.8736 44.6045 33.023 44.7539C33.1724 44.9034 33.3218 45.0528 33.3218 45.5011C33.4713 45.7999 33.4713 46.0988 33.4713 46.3976C33.4713 46.5471 33.6207 46.6965 33.6207 46.8459H34.9655C34.9655 46.6965 34.8161 46.5471 34.8161 46.2482L34.5172 45.3516C34.5172 45.0528 34.3678 44.9034 34.2184 44.7539C34.069 44.6045 33.9195 44.4551 33.7701 44.3057C34.069 44.1562 34.2184 44.0068 34.3678 43.8574C34.5172 43.5585 34.6667 43.2597 34.6667 42.9608C34.6667 42.662 34.6667 42.5126 34.5172 42.3631C34.3678 42.2137 34.3678 42.0643 34.069 41.9149C33.9195 41.7654 33.6207 41.616 33.3218 41.616C33.023 41.616 32.7241 41.4666 32.2759 41.4666C31.977 41.4666 31.6781 41.4666 31.3793 41.4666C31.0804 41.4666 30.7816 41.4666 30.6322 41.616V46.8459H30.7816ZM42.2874 43.4091H40.1954V42.2137H42.4368V41.1677H39V46.6965H42.5862V45.6505H40.3448V44.3057H42.4368V43.4091H42.2874ZM53.7931 46.8459H54.9885V42.3631H56.4828V41.3172H52.2989V42.3631H53.7931V46.8459ZM63.5058 42.2137C63.8046 42.2137 64.1035 42.3631 64.2529 42.5126C64.4023 42.662 64.5518 42.9608 64.7012 43.2597C64.8506 43.5585 64.8506 43.8574 64.8506 44.1562C64.8506 44.7539 64.7012 45.2022 64.5518 45.5011C64.2529 45.7999 63.9541 46.0988 63.5058 46.0988C63.0575 46.0988 62.7587 45.9494 62.4598 45.6505C62.1609 45.3517 62.1609 44.9034 62.1609 44.3057C62.1609 43.708 62.3104 43.2597 62.4598 42.9608C62.7587 42.3631 63.0575 42.2137 63.5058 42.2137ZM63.5058 41.1677C62.9081 41.1677 62.4598 41.3172 62.0115 41.616C61.5632 41.9149 61.2644 42.2137 61.115 42.662C60.9655 43.1103 60.8161 43.5585 60.8161 44.1562C60.8161 44.7539 60.9655 45.2022 61.115 45.6505C61.2644 46.0988 61.5632 46.3976 62.0115 46.6965C62.4598 46.9953 62.9081 46.9953 63.3564 47.1448C64.2529 47.1448 64.8506 46.8459 65.2989 46.3976C65.7472 45.9494 66.046 45.2022 66.046 44.3057C66.046 43.8574 65.8966 43.2597 65.7472 42.9608C65.5977 42.5126 65.2989 42.2137 64.8506 41.9149C64.5518 41.3172 64.1035 41.1677 63.5058 41.1677ZM76.5058 46.5471C76.6552 46.6965 76.9541 46.6965 77.1035 46.8459C77.4023 46.8459 77.7012 46.9953 78.0001 46.9953C78.4483 46.9953 78.8966 46.8459 79.1955 46.6965C79.4943 46.5471 79.7932 46.3976 79.9426 46.0988C80.092 45.7999 80.2414 45.5011 80.2414 45.2022C80.2414 44.7539 80.092 44.4551 79.9426 44.1562C79.6437 43.8574 79.3449 43.708 78.8966 43.4091C78.5978 43.2597 78.2989 43.1103 78.1495 43.1103C78.0001 42.9608 77.8506 42.8114 77.8506 42.662C77.8506 42.5126 77.8506 42.3631 78.0001 42.2137C78.1495 42.0643 78.2989 42.0643 78.5977 42.0643C78.8966 42.0643 79.046 42.0643 79.3449 42.2137C79.4943 42.2137 79.6437 42.3631 79.7932 42.3631L80.092 41.3172C79.9426 41.1677 79.7932 41.1677 79.4943 41.1677C79.1955 41.1677 79.046 41.0183 78.7472 41.0183C78.1495 41.0183 77.5518 41.1677 77.2529 41.4666C76.9541 41.7654 76.6552 42.2137 76.6552 42.662C76.6552 43.1103 76.8046 43.4091 77.1035 43.708C77.4023 44.0068 77.7012 44.1562 78.1495 44.3057C78.4483 44.4551 78.7472 44.6045 78.8966 44.6045C79.046 44.7539 79.046 44.9034 79.046 45.0528C79.046 45.2022 78.8966 45.3516 78.7472 45.5011C78.5978 45.6505 78.4483 45.6505 78.1495 45.6505C77.8506 45.6505 77.5518 45.6505 77.4024 45.5011C77.1035 45.5011 76.9541 45.3516 76.8046 45.2022L76.5058 46.5471ZM84.8736 41.3172V46.8459H86.069V44.4551H88.161V46.8459H89.3564V41.3172H88.161V43.4091H86.069V41.3172H84.8736ZM95.0346 41.3172V46.8459H96.23V41.3172H95.0346ZM102.655 46.8459V45.2022V43.8574C102.655 43.4091 102.655 43.1103 102.655 42.662C102.805 42.9608 102.954 43.2597 103.104 43.708C103.253 44.0068 103.402 44.3057 103.552 44.6045L104.747 46.6965H106.092V41.1677H104.897V42.8114C104.897 43.2597 104.897 43.5585 104.897 44.0068C104.897 44.4551 104.897 44.7539 105.046 45.2022C104.897 44.9034 104.747 44.6045 104.598 44.3057C104.448 44.0068 104.299 43.708 104.15 43.4091L102.954 41.3172H101.46V46.8459H102.655ZM114.012 43.4091H111.92V42.2137H114.161V41.1677H110.575V46.6965H114.161V45.6505H111.92V44.3057H114.012V43.4091Z" fill="#632F87"/>
</svg>
