<svg width="221" height="42" viewBox="0 0 221 42" fill="none" xmlns="http://www.w3.org/2000/svg">
<path fill-rule="evenodd" clip-rule="evenodd" d="M128.583 15.4613H119.952V19.9042H128.583C129.287 19.9042 129.816 19.9042 129.992 19.5488C130.168 19.371 130.344 19.0156 130.344 18.4825V16.7053C130.344 16.1722 130.168 15.8168 129.992 15.6391C129.816 15.6391 129.287 15.4613 128.583 15.4613ZM116.253 29.1453V12.6179H130.344C131.577 12.6179 132.634 12.9733 133.162 13.5065C133.691 14.0396 134.043 14.9282 134.043 15.9945V19.5488C134.043 20.615 133.691 21.5036 133.162 22.0367C132.458 22.5699 131.577 22.9253 130.344 22.9253H119.952V29.323H116.253V29.1453Z" fill="#989798"/>
<path fill-rule="evenodd" clip-rule="evenodd" d="M149.72 15.4613H141.089V20.0819H149.72C150.424 20.0819 150.953 19.9042 151.129 19.9042C151.305 19.7265 151.481 19.371 151.481 18.8379V16.883C151.481 16.3499 151.305 15.9945 151.129 15.8168C150.777 15.6391 150.424 15.4613 149.72 15.4613ZM137.214 29.1453V12.6179H151.305C152.714 12.6179 153.595 12.9733 154.299 13.5065C154.828 14.0396 155.18 14.9282 155.18 15.9945V19.9042C155.18 21.1482 154.828 21.859 154.299 22.3922C153.595 22.9253 152.714 23.2807 151.305 23.2807H149.191L156.765 29.5007H151.305L144.612 23.2807H140.913V29.5007H137.214V29.1453Z" fill="#989798"/>
<path fill-rule="evenodd" clip-rule="evenodd" d="M159.584 29.1453V12.6179H176.493V15.4613H163.459V19.1933H171.209V22.0367H163.459V26.1242H176.669V29.1453H159.584Z" fill="#989798"/>
<path fill-rule="evenodd" clip-rule="evenodd" d="M194.636 15.6391H183.891V19.1933H194.107C195.693 19.1933 196.926 19.5488 197.454 20.0819C197.982 20.615 198.335 21.6813 198.335 23.2807V25.591C198.335 27.1904 197.982 28.2567 197.454 28.7899C196.926 29.323 195.693 29.6784 194.107 29.6784H183.891C182.306 29.6784 181.249 29.323 180.544 28.7899C180.016 28.2567 179.664 27.1904 179.664 25.591V24.8802L183.01 24.1693V26.1242H194.636V22.3922H184.419C182.834 22.3922 181.777 22.0367 181.249 21.5036C180.544 20.9705 180.368 19.9042 180.368 18.4825V16.5276C180.368 14.9282 180.721 14.0396 181.249 13.5065C181.777 12.7956 182.834 12.6179 184.419 12.6179H193.755C195.34 12.6179 196.397 12.9733 196.926 13.5065C197.454 14.0396 197.806 15.1059 197.806 16.3499V16.7053L194.46 17.5939V15.6391H194.636Z" fill="#989798"/>
<path fill-rule="evenodd" clip-rule="evenodd" d="M216.477 15.6391H205.733V19.1933H215.949C217.534 19.1933 218.591 19.5488 219.295 20.0819C219.824 20.615 220.176 21.6813 220.176 23.2807V25.591C220.176 27.1904 219.824 28.2567 219.295 28.7899C218.591 29.323 217.534 29.6784 215.949 29.6784H205.733C204.147 29.6784 202.914 29.323 202.386 28.7899C201.681 28.2567 201.505 27.1904 201.505 25.591V24.8802L204.852 24.1693V26.1242H216.477V22.3922H206.261C204.676 22.3922 203.619 22.0367 202.914 21.5036C202.386 20.9705 202.034 19.9042 202.034 18.4825V16.5276C202.034 14.9282 202.386 14.0396 202.914 13.5065C203.443 12.7956 204.676 12.6179 206.261 12.6179H215.597C217.182 12.6179 218.239 12.9733 218.767 13.5065C219.472 14.0396 219.648 15.1059 219.648 16.3499V16.7053L216.301 17.5939V15.6391H216.477Z" fill="#989798"/>
<path fill-rule="evenodd" clip-rule="evenodd" d="M91.241 29.1453L98.9912 20.7927L91.0648 12.6179H96.1729L101.457 18.3048L106.565 12.6179H110.793L103.747 20.2596L112.554 29.1453H107.446L101.281 22.7476L95.8206 29.1453H91.241Z" fill="#989798"/>
<path fill-rule="evenodd" clip-rule="evenodd" d="M9.51161 29.1453L0 12.6179H4.40352L11.0969 24.7024L17.4379 12.6179H21.313L12.1537 29.1453H9.51161Z" fill="#989798"/>
<path fill-rule="evenodd" clip-rule="evenodd" d="M24.3074 29.1453V12.6179H26.9495L38.5749 22.3922C39.1033 22.7476 39.4556 23.103 39.6317 23.2807C39.984 23.6362 40.3363 23.9916 40.5124 24.1693C40.3363 23.2807 40.3363 22.5699 40.3363 22.2145C40.3363 21.859 40.3363 21.5036 40.3363 21.3259V12.6179H43.8591V29.1453H41.217L29.0632 18.8379C28.8871 18.4825 28.5348 18.3048 28.3587 18.127C28.0064 17.9493 28.0064 17.7716 27.6541 17.4162C27.8303 17.9493 27.8303 18.4825 27.8303 19.0156C28.0064 19.5488 28.0064 19.9042 28.0064 20.2596V29.1453H24.3074Z" fill="#989798"/>
<path fill-rule="evenodd" clip-rule="evenodd" d="M85.7806 39.8079C85.7806 40.8741 84.8999 41.7627 83.8431 41.7627H50.9047C49.8479 41.7627 48.9672 40.8741 48.9672 39.8079V1.95485C48.9672 0.888568 49.8479 0 50.9047 0H83.8431C84.8999 0 85.7806 0.888568 85.7806 1.95485V39.8079Z" fill="#9F264F"/>
<path d="M64.6437 12.6176H80.6725C81.7294 12.6176 82.4339 11.729 82.4339 10.6627V5.33129C82.4339 4.26501 81.7294 3.19873 80.6725 3.19873H62.3539H54.4275C53.3707 3.19873 52.3138 4.0873 52.3138 5.33129V36.6089C52.3138 37.6752 53.3707 38.5638 54.4275 38.5638H62.3539H80.8487C81.9055 38.5638 82.6101 37.6752 82.6101 36.6089V31.2775C82.6101 30.2112 81.9055 29.1449 80.8487 29.1449H64.8198V27.1901V25.7684H70.2802C71.3371 25.7684 72.0416 24.8798 72.0416 23.8135V17.7712C72.0416 16.705 71.3371 15.6387 70.2802 15.6387H64.8198V14.7501V12.6176H64.6437ZM64.8198 17.949H69.9279V23.9912H64.8198H62.7062V25.4129V26.1238V27.3678V29.3226V31.2775H64.8198H80.4964V36.6089H62.3539H54.2514V5.33129H62.3539H80.6725V10.6627H64.996H62.8823V12.7953V14.7501V15.9941V16.705V17.949H64.8198Z" fill="white"/>
</svg>
