<svg width="190" height="102" viewBox="0 0 190 102" fill="none" xmlns="http://www.w3.org/2000/svg">
<g clip-path="url(#clip0)">
<path d="M12.7352 83.2479V88.4313H12.1543C11.5287 85.2587 9.96472 83.6947 7.46237 83.6947C6.12182 83.6947 5.09407 84.2309 4.46848 85.3034C3.8429 86.3758 3.5301 88.61 3.5301 92.0508C3.5301 94.8659 3.66416 96.7874 3.93227 97.8151C4.20038 98.8429 4.64722 99.5578 5.3175 100.005C5.98777 100.452 6.70273 100.675 7.50705 100.675C8.53481 100.675 9.51787 100.273 10.4563 99.5132C11.35 98.7088 12.0649 97.4576 12.6011 95.7149H13.2267L13.0033 101.032H12.4671C12.2883 100.496 11.9755 100.005 11.5287 99.6025C10.1435 100.764 8.75823 101.301 7.32832 101.301C5.49624 101.301 3.79821 100.407 2.27893 98.6641C0.759642 96.9661 0 94.8212 0 92.2742C0 89.6825 0.759642 87.4929 2.23424 85.7055C3.70884 83.9181 5.45155 83.0244 7.41769 83.0244C8.93697 83.0244 10.2328 83.5607 11.3946 84.6331C11.7521 84.0969 11.9755 83.6053 12.1543 83.2032H12.7352V83.2479ZM33.5583 95.4468H28.0174L26.23 100.228H29.4473V100.898H23.1468V100.228H25.5597L31.905 82.9798H32.3071L38.429 100.273H40.7526V100.943H32.4412V100.273H35.2563L33.5583 95.4468ZM28.2855 94.8212H33.3349L30.8772 87.8057H30.8325L28.2855 94.8212ZM53.7559 100.273V84.0969H51.0301V83.4266H60.5927C61.8438 83.4266 62.8716 83.516 63.6759 83.7394C64.4802 83.9628 65.1505 84.4097 65.7314 85.0799C66.3123 85.7502 66.5804 86.5545 66.5804 87.4482C66.5804 88.5654 66.1783 89.4591 65.3293 90.1293C64.4802 90.7996 63.0503 91.3358 60.9948 91.6933V91.738C62.4694 92.0061 63.6312 92.587 64.5696 93.3913C65.508 94.2403 65.9548 95.6256 65.9548 97.5917C65.9548 98.7088 66.0889 99.4685 66.357 99.7813C66.6251 100.094 66.9826 100.273 67.4741 100.273C67.7869 100.273 68.1444 100.228 68.5466 100.094V100.72C67.7869 100.988 67.072 101.122 66.357 101.122C64.9271 101.122 63.8993 100.72 63.3184 99.9153C62.7375 99.111 62.4247 98.3513 62.4694 97.547L62.5141 95.3128C62.5141 94.5531 62.2907 93.7935 61.7992 93.0339C61.3076 92.2742 60.1905 91.9167 58.4478 91.9167H56.8391V100.228H59.5649V100.898H50.9854V100.228H53.7559V100.273ZM56.8391 84.0969V91.3358H59.1627C60.1458 91.3358 60.9501 91.2465 61.4417 91.1124C61.9779 90.9783 62.3801 90.6209 62.6928 90.04C63.0056 89.4591 63.1844 88.5654 63.1844 87.3142C63.1844 86.2864 63.0056 85.5715 62.6928 85.0799C62.3801 84.5884 61.9779 84.3203 61.531 84.2309C61.0842 84.1416 60.5033 84.0522 59.7436 84.0522L56.8391 84.0969ZM88.5654 95.4468H83.0245L81.2371 100.228H84.4544V100.898H78.1538V100.228H80.5668L86.912 82.9798H87.3142L93.3913 100.228H95.715V100.898H87.4036V100.228H90.2187L88.5654 95.4468ZM83.2926 94.7766H88.3419L85.8843 87.761H85.8396L83.2926 94.7766ZM129.899 95.4468H124.358L122.571 100.228H125.788V100.898H119.487V100.228H121.9L128.246 82.9798H128.648L134.725 100.228H137.048V100.898H128.737V100.228H131.552L129.899 95.4468ZM124.626 94.7766H129.675L127.218 87.761H127.173L124.626 94.7766ZM150.096 100.228V84.0522H147.371V83.3819H156.933C158.184 83.3819 159.212 83.4713 160.016 83.6947C160.821 83.9181 161.491 84.365 162.072 85.0353C162.653 85.7055 162.921 86.5099 162.921 87.4036C162.921 88.5207 162.519 89.4144 161.67 90.0847C160.821 90.7549 159.391 91.2911 157.335 91.6486V91.6933C158.81 91.9614 159.972 92.5423 160.91 93.3466C161.849 94.1957 162.295 95.5809 162.295 97.547C162.295 98.6641 162.429 99.4238 162.698 99.7366C162.966 100.049 163.323 100.228 163.815 100.228C164.127 100.228 164.485 100.183 164.887 100.049V100.675C164.127 100.943 163.413 101.077 162.698 101.077C161.268 101.077 160.24 100.675 159.659 99.8706C159.078 99.0663 158.765 98.3067 158.81 97.5023L158.855 95.2681C158.855 94.5084 158.631 93.7488 158.14 92.9892C157.648 92.2295 156.531 91.872 154.788 91.872H153.18V100.183H155.905V100.854H147.326V100.183L150.096 100.228ZM153.18 84.0522V91.2911H155.503C156.486 91.2911 157.291 91.2018 157.782 91.0677C158.318 90.9337 158.721 90.5762 159.033 89.9953C159.346 89.4144 159.525 88.5207 159.525 87.2695C159.525 86.2418 159.346 85.5268 159.033 85.0353C158.721 84.5437 158.318 84.2756 157.872 84.1862C157.425 84.0969 156.844 84.0075 156.084 84.0075L153.18 84.0522ZM174.673 83.3819H189.508L189.955 89.325H189.285C188.883 87.3142 188.347 85.9736 187.676 85.1693C187.006 84.4097 186.112 84.0075 185.04 84.0075H183.655V100.183H186.783V100.854H177.488V100.183H180.616V84.0075H179.186C178.114 84.0075 177.22 84.4097 176.55 85.1693C175.88 85.929 175.343 87.3142 174.941 89.325H174.271L174.673 83.3819ZM132.58 35.7926C132.58 35.7926 148.667 53.5324 125.207 71.5851C125.207 71.5851 153.761 59.1181 143.394 36.9991C138.97 27.5259 129.273 17.4271 127.933 13.4054C126.056 7.68579 133.071 9.74129 133.071 9.74129C120.515 -0.178747 119.979 13.5842 125.386 21.6721C131.82 31.2794 119.666 27.5259 116.806 47.5447C112.919 74.7578 82.3542 75.2046 82.3542 75.2046C82.3542 75.2046 105.814 79.4497 117.655 61.8885C127.799 48.7512 134.323 48.8405 134.323 48.8405C134.323 48.8405 127.754 48.4384 121.409 52.5941C121.409 52.5494 125.028 40.1717 132.58 35.7926ZM126.726 8.84759C126.369 8.84759 125.922 8.62417 125.922 8.26669C125.922 7.9539 126.369 7.6411 126.726 7.6411C127.084 7.6411 127.575 7.90921 127.575 8.222C127.575 8.57948 127.084 8.84759 126.726 8.84759ZM120.113 5.67497C119.219 5.67497 118.817 4.78127 119.979 4.51316C121.9 4.06631 123.33 6.52398 123.33 6.52398C123.33 6.52398 121.99 5.63028 120.113 5.67497ZM119.845 7.81984C119.085 8.26669 118.281 7.6411 119.175 6.83677C120.694 5.54091 123.062 7.01551 123.062 7.01551C123.062 7.01551 121.453 6.92614 119.845 7.81984ZM121.9 4.46848C121.319 4.111 121.409 3.35136 122.258 3.61947C123.732 4.111 123.688 6.25587 123.688 6.25587C123.688 6.25587 123.107 5.18344 121.9 4.46848ZM93.302 71.183C93.5701 71.183 93.8382 71.183 94.1063 71.183C93.8382 71.2723 93.5701 71.3617 93.3466 71.4958C89.0122 72.881 84.9012 73.5959 81.1477 73.6406H81.0583H80.9689H80.9243C80.6562 73.6406 80.4327 73.6406 80.1646 73.6406H80.0752C79.9859 73.6406 79.8965 73.6406 79.8518 73.6406H79.8071H79.7625C71.4064 73.3278 68.1444 69.6637 67.3401 68.5465C64.659 64.8824 65.1058 62.2013 65.9102 60.5927C67.0273 58.4031 69.5743 56.9285 72.2107 56.9285C73.4619 56.9285 75.7408 57.286 76.992 59.6543C79.7178 64.5249 84.4097 71.183 93.302 71.183ZM66.9379 70.7808C66.6698 70.6914 66.4017 70.5574 66.1336 70.4233C62.0226 68.4125 58.5818 66.0889 55.8114 63.5418L55.7667 63.4972L55.722 63.4525L55.6773 63.4078C55.4986 63.2291 55.3198 63.0503 55.1411 62.8716L55.0964 62.8269C55.0517 62.7822 54.9624 62.6928 54.9177 62.6482L54.873 62.6035L54.8283 62.5588C49.0193 56.5263 49.1533 51.6557 49.3321 50.2705C50.1811 43.8358 54.158 43.1656 55.8114 43.1656C58.0009 43.1656 60.2352 44.238 61.531 45.936C62.246 46.8744 63.0056 48.4384 62.4694 50.4939C61.531 54.024 58.984 63.8546 66.9379 70.7808ZM47.4553 51.6557C47.3213 51.3876 47.2319 51.1195 47.0978 50.8514C45.4892 46.5616 44.5955 42.4953 44.3721 38.6971V38.6077V38.5183V38.4736C44.3721 38.2055 44.3721 37.9821 44.3274 37.714V37.6246C44.3274 37.5353 44.3274 37.4459 44.3274 37.4012V37.3565V37.3118C44.238 28.9111 47.7234 25.4704 48.7512 24.5767C50.6279 23.0574 52.5047 22.253 54.2921 22.253C57.4647 22.253 59.6096 24.7554 60.3246 27.2578C60.9501 29.4026 60.682 32.2625 58.135 33.8264C55.0517 35.7926 46.4722 41.1547 47.4553 51.6557ZM59.833 18.0974C54.2027 18.0974 49.7342 20.1975 46.5169 24.3086C46.6063 24.0404 46.6957 23.7723 46.8297 23.5042C48.6171 19.3038 50.762 15.6844 53.175 12.8245L53.2197 12.7799L53.2643 12.7352L53.309 12.6905C53.4878 12.5118 53.6665 12.2883 53.8006 12.1096L53.8452 12.0649C53.8899 12.0202 53.9346 11.9308 54.024 11.8862L54.0687 11.8415L54.1134 11.7968C57.6881 7.9539 61.9332 5.63028 65.4633 5.63028C65.6867 5.63028 65.8655 5.63028 66.0442 5.67497C68.6359 5.89839 70.6021 6.70272 71.8979 8.08795C73.2385 9.56255 73.5066 11.2606 73.4619 12.4671C73.3278 15.6397 70.9595 18.9911 67.6082 18.9911C67.2507 18.9911 66.8932 18.9464 66.4911 18.857C64.8377 18.5442 62.4247 18.0974 59.833 18.0974ZM67.0273 3.66415C66.2229 3.66415 65.3739 3.70884 64.5696 3.84289C64.8377 3.70884 65.0611 3.57478 65.3293 3.48541C69.5296 1.65333 73.5066 0.536211 77.2601 0.134047H77.3495H77.3942H77.4389C77.707 0.0893626 77.9304 0.0893626 78.1985 0.0893626H78.2432C78.3326 0.0893626 78.4219 0.0893626 78.5113 0.0893626H78.556H78.6006C79.1369 0.0446777 79.6731 0.0446777 80.2093 0.0446777C85.08 0.0446777 89.325 1.47459 91.4699 3.93226C93.9276 6.65804 94.6425 9.51787 93.5701 11.9755C92.5423 14.3438 89.8166 16.0419 87.1355 16.0419C85.3034 16.0419 83.7394 15.2375 82.7117 13.8076C79.7625 9.4285 74.9365 3.66415 67.0273 3.66415ZM111.176 20.2422C111.087 22.8786 110.372 24.8895 109.031 26.23C107.646 27.6599 105.903 27.9727 104.741 27.9727C102.641 27.9727 100.541 27.0343 99.2451 25.515C98.5301 24.666 97.7258 23.2361 98.0386 21.3147C98.6195 17.7399 100.228 7.73047 91.6486 1.56396C91.9167 1.65333 92.1848 1.7427 92.453 1.83207C96.7427 3.39604 100.407 5.40686 103.401 7.68579L103.445 7.73047L103.49 7.77516H103.535C103.714 7.9539 103.937 8.08795 104.116 8.26669L104.16 8.31138C104.205 8.35606 104.294 8.40074 104.339 8.49011L104.384 8.5348L104.428 8.57948C110.863 13.9864 111.221 18.857 111.176 20.2422Z" fill="url(#paint0_linear)"/>
</g>
<defs>
<linearGradient id="paint0_linear" x1="0" y1="50.6663" x2="189.999" y2="50.6663" gradientUnits="userSpaceOnUse">
<stop stop-color="#912C87"/>
<stop offset="1" stop-color="#2D2E7A"/>
</linearGradient>
<clipPath id="clip0">
<rect width="190" height="101.345" fill="white"/>
</clipPath>
</defs>
</svg>
