<svg width="582" height="276" viewBox="0 0 582 276" fill="none" xmlns="http://www.w3.org/2000/svg">
<path d="M309.866 53.325C314.68 49.4315 318.171 44.144 319.861 38.1879C321.551 32.2318 321.356 25.8987 319.305 20.0574C317.253 14.2162 313.444 9.15277 308.4 5.5618C303.357 1.97083 297.326 0.0281747 291.135 0.000303977C284.944 -0.0275667 278.896 1.86071 273.82 5.40613C268.745 8.95155 264.891 13.9804 262.786 19.803C260.682 25.6256 260.43 31.9566 262.066 37.9277C263.703 43.8988 267.146 49.2175 271.924 53.1542L282.899 39.8326C280.87 38.1609 279.408 35.9022 278.713 33.3666C278.018 30.8309 278.125 28.1424 279.019 25.6698C279.912 23.1972 281.549 21.0616 283.705 19.556C285.86 18.0505 288.428 17.2486 291.057 17.2604C293.686 17.2723 296.248 18.0972 298.389 19.6221C300.531 21.1471 302.148 23.2973 303.02 25.7778C303.891 28.2584 303.974 30.9477 303.256 33.4771C302.538 36.0064 301.056 38.2517 299.012 39.9051L309.866 53.325Z" fill="#E4265C"/>
<path d="M104.994 111H109.517V98.0273H113.83V93.9609H100.646V98.0273H104.994V111ZM130.784 89.1445C131.183 89.1445 131.382 89.2383 131.382 89.5078C131.382 90.3047 129.542 90.6562 129.542 91.3477C129.542 91.582 129.73 91.8516 129.941 92.0977L131.511 91.9805L131.605 91.4766C132.823 91.207 133.714 90.5391 133.714 89.5195C133.714 88.3477 132.8 87.5391 131.195 87.5391C129.894 87.5391 128.839 88.1133 128.265 88.6406L129.39 89.7422C129.695 89.5312 130.374 89.1328 130.784 89.1328V89.1445ZM125.394 91.1836H125.452L126.343 92.8828H129.941L127.222 89.1562H123.519L120.976 92.8828H124.538L125.394 91.1836ZM125.441 93.7031C120.191 93.7031 116.57 97.3008 116.57 102.48C116.57 107.66 120.191 111.246 125.441 111.246C130.62 111.246 134.277 107.695 134.277 102.48C134.277 97.2539 130.62 93.7031 125.441 93.7031ZM125.429 106.992C123.027 106.992 121.327 105 121.327 102.48C121.327 99.9492 123.027 97.9688 125.429 97.9688C127.855 97.9688 129.519 99.9727 129.519 102.48C129.519 105 127.855 106.992 125.429 106.992ZM149.005 93.9609V103.57H148.946L143.262 93.9609H138.669V111H143.192V101.672H143.262L148.852 111H153.587V93.9609H149.005ZM166.873 111.211C169.534 111.211 172.194 110.32 173.705 109.16V101.238H166.534V104.918H169.44V106.488C168.514 106.91 167.776 107.051 166.873 107.051C164.225 107.051 162.737 104.941 162.737 102.516C162.737 99.5977 164.6 97.9922 166.674 97.9922C168.455 97.9922 169.698 98.8359 170.483 99.5859L173.717 96.8555C171.995 94.793 169.182 93.7031 166.686 93.7031C161.143 93.7031 157.979 97.5938 157.979 102.516C157.979 108.129 161.94 111.211 166.873 111.211ZM194.595 111.211C197.255 111.211 199.916 110.32 201.427 109.16V101.238H194.255V104.918H197.162V106.488C196.236 106.91 195.498 107.051 194.595 107.051C191.947 107.051 190.459 104.941 190.459 102.516C190.459 99.5977 192.322 97.9922 194.396 97.9922C196.177 97.9922 197.42 98.8359 198.205 99.5859L201.439 96.8555C199.716 94.793 196.904 93.7031 194.408 93.7031C188.865 93.7031 185.701 97.5938 185.701 102.516C185.701 108.129 189.662 111.211 194.595 111.211ZM206.159 111H210.8V93.9609H206.159V111ZM222.692 89.8594C223.091 89.8594 223.29 89.9531 223.29 90.2227C223.29 91.0195 221.45 91.3711 221.45 92.0625C221.45 92.3086 221.637 92.5664 221.848 92.8125L223.419 92.6953L223.512 92.1914C224.872 91.9219 225.762 91.2539 225.762 90.2344C225.762 89.0625 224.837 88.2539 223.102 88.2539C221.802 88.2539 220.759 88.8398 220.184 89.3672L221.298 90.4688C221.602 90.2578 222.294 89.8594 222.692 89.8594ZM226.501 111.012H231.27L225.083 93.9609H220.723L214.536 111.012H219.317L220.173 108.258H225.645L226.501 111.012ZM221.356 104.426L222.88 99.5273H222.927L224.45 104.426H221.356ZM234.983 111H239.623V93.9609H234.983V111ZM256.072 111H260.595V98.0273H264.908V93.9609H251.724V98.0273H256.072V111ZM269.007 111H273.624V104.801H278.769V111H283.386V93.9609H278.769V100.758H273.624V93.9609H269.007V111ZM304.055 92.4023V94.5C304.055 95.9414 303.845 96.6797 302.544 96.8789V93.9609H297.95V103.594C297.95 105.773 296.825 107.016 295.325 107.016C293.579 107.016 292.782 105.398 292.782 103.594V93.9609H288.165V103.852C288.165 108.656 291.036 111.246 295.325 111.246C300.001 111.246 302.544 108.316 302.544 103.852V98.5547C305.45 98.6016 307.489 97.4883 307.489 94.2891V92.4023H304.055ZM316.967 89.8711C317.366 89.8711 317.565 89.9648 317.565 90.2344C317.565 91.0312 315.725 91.3828 315.725 92.0742C315.725 92.3203 315.912 92.5781 316.123 92.8242L317.694 92.707L317.811 92.2031C319.159 91.9336 320.049 91.2656 320.049 90.2461C320.049 89.0742 319.112 88.2656 317.389 88.2656C316.1 88.2656 315.034 88.8516 314.471 89.3789L315.573 90.4805C315.889 90.2695 316.58 89.8711 316.979 89.8711H316.967ZM324.561 92.4141V94.5117C324.561 95.5312 324.455 96.1992 323.94 96.5742C322.37 94.7695 319.991 93.7148 317.166 93.7148C311.916 93.7148 308.295 97.3008 308.295 102.492C308.295 107.672 311.916 111.258 317.166 111.258C322.346 111.258 326.002 107.707 326.002 102.492C326.002 100.969 325.686 99.5742 325.123 98.3789L325.135 98.3438C326.881 97.875 327.995 96.6445 327.995 94.2891V92.4141H324.561ZM317.155 107.004C314.752 107.004 313.053 105.012 313.053 102.492C313.053 99.9609 314.752 97.9805 317.155 97.9805C319.592 97.9805 321.256 99.9844 321.256 102.492C321.256 105 319.592 107.004 317.155 107.004ZM341.797 93.9609V103.57H341.738L336.055 93.9609H331.461V111H335.984V101.672H336.055L341.645 111H346.379V93.9609H341.797ZM359.666 111.211C362.326 111.211 364.986 110.32 366.498 109.16V101.238H359.326V104.918H362.232V106.488C361.306 106.91 360.568 107.051 359.666 107.051C357.017 107.051 355.529 104.941 355.529 102.516C355.529 99.5977 357.392 97.9922 359.466 97.9922C361.248 97.9922 362.49 98.8359 363.275 99.5859L366.509 96.8555C364.787 94.793 361.974 93.7031 359.478 93.7031C353.935 93.7031 350.771 97.5938 350.771 102.516C350.771 108.129 354.732 111.211 359.666 111.211ZM379.032 111H390.399V106.957H383.637V93.9609H379.044L379.032 111ZM400.088 90.75H400.135L401.026 92.4609H404.623L401.905 88.7344H398.19L395.659 92.4609H399.209L400.088 90.75ZM398.858 106.957V104.555H404.272V100.594H398.858V98.0273H405.772V93.9609H394.44V111.012H406.288V106.957H398.858ZM420.992 93.9609V103.57H420.934L415.25 93.9609H410.656V111H415.18V101.672H415.25L420.84 111H425.574V93.9609H420.992ZM441.917 111H446.441V98.0273H450.753V93.9609H437.57V98.0273H441.917V111ZM467.333 88.6992L463.149 88.7227L460.536 92.3672H464.368L467.333 88.6992ZM469.747 92.4141V94.5117C469.747 95.5312 469.641 96.1992 469.126 96.5742C467.555 94.7695 465.177 93.7148 462.352 93.7148C457.102 93.7148 453.481 97.3008 453.481 102.492C453.481 107.672 457.102 111.246 462.352 111.246C467.532 111.246 471.188 107.707 471.188 102.492C471.188 100.969 470.872 99.5742 470.309 98.3789L470.321 98.3438C472.067 97.875 473.18 96.6445 473.18 94.2891V92.4141H469.747ZM462.341 107.004C459.938 107.004 458.239 105.012 458.239 102.492C458.239 99.9609 459.938 97.9805 462.341 97.9805C464.778 97.9805 466.442 99.9844 466.442 102.492C466.442 105 464.778 107.004 462.341 107.004ZM476.741 111H481.381V93.9609H476.741V111Z" fill="#1B2240"/>
<path d="M234.139 269H238.662V256.027H242.975V251.961H229.791V256.027H234.139V269ZM247.18 269H251.82V251.961H247.18V269ZM270.392 249.418L268.353 245.762L264.685 245.75L267.416 249.418H270.392ZM262.47 249.23H262.517L263.408 250.93H267.005L264.287 247.191H260.584L258.041 250.93H261.603L262.47 249.23ZM261.252 262.543H266.666V258.582H261.252V256.027H268.166V251.961H256.834V269H268.681V264.945H261.252V262.543ZM283.386 251.961V261.57H283.327L277.644 251.961H273.05V269H277.573V259.672H277.644L283.234 269H287.968V251.961H283.386ZM313.967 251.961L309.76 260.387H309.666L305.424 251.961H300.807V269H305.319V260.586H305.377L308.248 265.93H311.155L314.014 260.609H314.084V269H318.596V251.961H313.967ZM330.594 250.531C333.207 250.531 334.754 248.797 334.93 246.688H331.871C331.824 247.484 331.262 247.895 330.594 247.895C329.809 247.895 329.363 247.344 329.305 246.688H326.258C326.457 249.184 328.367 250.543 330.594 250.543V250.531ZM338.949 269.012L332.762 251.961H328.402L322.227 269.012H326.996L327.852 266.258H333.324L334.191 269.012H338.949ZM329.035 262.426L330.559 257.527H330.605L332.129 262.426H329.035ZM330.594 270.652C329.152 270.652 328.133 271.637 328.133 272.973C328.133 274.273 329.152 275.246 330.594 275.246C332.035 275.246 333.055 274.238 333.055 272.961C333.055 271.648 332.035 270.641 330.594 270.641V270.652ZM344.338 269H348.861V256.027H353.173V251.961H339.99V256.027H344.338V269Z" fill="#1B2240"/>
<path d="M11.9625 220H23.9937V176.094H14.525L0.274994 186L5.96249 194.906L11.9625 190.375V220ZM52.8625 191.375C51.5187 191.375 49.8 191.688 48.0187 192.188L48.3625 186.719H63.5812V176.094H38.9875L37.55 199.938L43.7062 202.375C45.925 200.719 47.3937 200.281 48.9875 200.281C50.8937 200.281 54.0812 201.688 54.0812 205.281C54.0812 207.969 51.7062 210.094 48.7687 210.094C46.2062 210.094 44.175 208.875 42.5812 207.281L34.1437 214.156C38.425 218.844 43.925 220.688 49.925 220.688C59.1125 220.688 66.0187 214.469 66.0187 205.469C66.0187 197 60.05 191.375 52.8937 191.375H52.8625ZM93.575 220.656C104.387 220.656 111.387 211.938 111.387 198C111.387 184.031 104.356 175.438 93.575 175.438C82.7625 175.438 75.825 184.219 75.825 198C75.825 212.125 82.7937 220.656 93.575 220.656ZM93.575 209.562C89.6687 209.562 88.1062 204.688 88.1062 198C88.1062 189.938 90.4187 186.562 93.575 186.562C97.5125 186.562 99.075 191.406 99.075 198.031C99.075 206.25 96.7625 209.562 93.575 209.562ZM153.594 220H165.656V185.406H177.156V174.562H142V185.406H153.594V220ZM225.462 220L215.15 204.312L215.181 204.219C220.025 201.875 222.9 197.375 222.9 190.719C222.9 181.406 217.744 174.562 206.337 174.562H188.119V220H199.931V206.156H202.744L211.306 220H225.462ZM199.931 185.25H203.619C208.056 185.25 210.275 187.656 210.275 190.406C210.275 193.844 207.494 195.625 203.619 195.625H199.931V185.25ZM235.769 220H248.144V174.562H235.769V220ZM276.575 166H276.7L279.075 170.562H288.669L281.419 160.625H271.512L264.762 170.562H274.231L276.575 166ZM273.294 209.219V202.812H287.731V192.25H273.294V185.406H291.731V174.562H261.512V220.031H293.106V209.219H273.294ZM277.231 224.406C273.387 224.406 270.669 227.031 270.669 230.594C270.669 234.062 273.387 236.656 277.231 236.656C281.075 236.656 283.794 233.969 283.794 230.562C283.794 227.062 281.075 224.375 277.231 224.375V224.406ZM323.381 220.656C335.85 220.656 342.631 212.844 342.631 200.938V174.562H330.381V200.25C330.381 206.062 327.381 209.375 323.381 209.375C318.725 209.375 316.6 205.062 316.6 200.25V174.562H304.288V200.938C304.288 213.75 311.944 220.656 323.381 220.656ZM392.837 174.562H376.462V192.781H373.712V202.938H376.462V220H393.025C407.775 220 416.431 210.75 416.431 197.375C416.431 183.938 407.212 174.562 392.837 174.562ZM392.244 209.219H388.275V202.938H393.462V192.781H388.275V185.406H393.087C399.056 185.406 403.681 190.594 403.681 197.375C403.681 203.906 399.15 209.219 392.244 209.219ZM471.362 167.656L465.925 157.969L456.144 157.906L463.425 167.688L471.362 167.656ZM450.237 167.188H450.362L452.737 171.719H462.331L455.081 161.781H445.206L438.425 171.719H447.925L450.237 167.188ZM450.3 173.906C436.3 173.906 426.644 183.469 426.644 197.312C426.644 211.125 436.3 220.656 450.3 220.656C464.112 220.656 473.862 211.219 473.862 197.281C473.862 183.344 464.112 173.875 450.3 173.875V173.906ZM450.269 209.312C443.862 209.312 439.331 204 439.331 197.281C439.331 190.562 443.862 185.281 450.269 185.281C456.769 185.281 461.206 190.594 461.206 197.281C461.206 204 456.769 209.344 450.269 209.344V209.312ZM513.169 174.562V200.188H513.012L497.856 174.562H485.606V220H497.669V195.125H497.856L512.762 220H525.387V174.562H513.169ZM560.819 220.562C567.912 220.562 575.006 218.188 579.037 215.094V193.969H559.912V203.781H567.662V207.969C565.194 209.094 563.225 209.469 560.819 209.469C553.756 209.469 549.787 203.844 549.787 197.375C549.787 189.594 554.756 185.312 560.287 185.312C565.037 185.312 568.35 187.562 570.444 189.562L579.069 182.281C574.475 176.781 566.975 173.875 560.319 173.875C545.537 173.875 537.1 184.25 537.1 197.375C537.1 212.344 547.662 220.562 560.819 220.562Z" fill="#E4265C"/>
<line x1="41" y1="142.5" x2="541" y2="142.5" stroke="#E4265C" stroke-width="3"/>
<line x1="41" y1="258.5" x2="199" y2="258.5" stroke="#E4265C" stroke-width="3"/>
<line x1="383" y1="258.5" x2="541" y2="258.5" stroke="#E4265C" stroke-width="3"/>
</svg>
