<svg width="453" height="163" viewBox="0 0 453 163" fill="none" xmlns="http://www.w3.org/2000/svg">
<g filter="url(#filter0_d)">
<path d="M43.92 104.28C39.8133 104.28 36.6667 105.533 34.48 108.04C32.2933 110.547 31.2 114.093 31.2 118.68C31.2 123.32 32.4 126.893 34.8 129.4C37.2533 131.907 40.5333 133.16 44.64 133.16C46.8267 133.16 48.6667 132.867 50.16 132.28C51.7067 131.693 53.1733 131.027 54.56 130.28C55.4667 131.027 56.16 131.933 56.64 133C57.1733 134.013 57.44 135.213 57.44 136.6C57.44 138.787 56.2133 140.653 53.76 142.2C51.36 143.693 47.68 144.44 42.72 144.44C39.1467 144.44 35.7867 143.933 32.64 142.92C29.4933 141.907 26.7467 140.36 24.4 138.28C22.0533 136.147 20.1867 133.48 18.8 130.28C17.4667 127.027 16.8 123.16 16.8 118.68C16.8 114.52 17.44 110.867 18.72 107.72C20.0533 104.52 21.84 101.827 24.08 99.64C26.3733 97.4533 29.04 95.8 32.08 94.68C35.12 93.56 38.3733 93 41.84 93C46.7467 93 50.5333 93.8 53.2 95.4C55.92 97 57.28 99.0533 57.28 101.56C57.28 102.947 56.9333 104.147 56.24 105.16C55.5467 106.173 54.7467 106.973 53.84 107.56C52.4533 106.653 50.96 105.88 49.36 105.24C47.8133 104.6 46 104.28 43.92 104.28ZM107.863 125.08C107.863 127.96 107.356 130.6 106.343 133C105.383 135.347 103.97 137.373 102.103 139.08C100.236 140.733 97.9698 142.013 95.3031 142.92C92.6365 143.827 89.6231 144.28 86.2631 144.28C82.9031 144.28 79.8898 143.827 77.2231 142.92C74.5565 142.013 72.2898 140.733 70.4231 139.08C68.5565 137.373 67.1165 135.347 66.1031 133C65.1431 130.6 64.6631 127.96 64.6631 125.08V94.52C65.2498 94.4133 66.1831 94.28 67.4631 94.12C68.7431 93.9067 69.9698 93.8 71.1431 93.8C72.3698 93.8 73.4365 93.9067 74.3431 94.12C75.3031 94.28 76.1031 94.6 76.7431 95.08C77.3831 95.56 77.8631 96.2267 78.1831 97.08C78.5031 97.9333 78.6631 99.0533 78.6631 100.44V124.84C78.6631 127.4 79.3565 129.4 80.7431 130.84C82.1831 132.28 84.0231 133 86.2631 133C88.5565 133 90.3965 132.28 91.7831 130.84C93.1698 129.4 93.8631 127.4 93.8631 124.84V94.52C94.4498 94.4133 95.3831 94.28 96.6631 94.12C97.9431 93.9067 99.1698 93.8 100.343 93.8C101.57 93.8 102.636 93.9067 103.543 94.12C104.503 94.28 105.303 94.6 105.943 95.08C106.583 95.56 107.063 96.2267 107.383 97.08C107.703 97.9333 107.863 99.0533 107.863 100.44V125.08ZM115.788 105.72C115.415 105.133 115.068 104.333 114.748 103.32C114.428 102.307 114.268 101.24 114.268 100.12C114.268 98.04 114.721 96.5467 115.628 95.64C116.588 94.7333 117.815 94.28 119.308 94.28H154.188C154.561 94.8667 154.908 95.6667 155.228 96.68C155.548 97.6933 155.708 98.76 155.708 99.88C155.708 101.96 155.228 103.453 154.268 104.36C153.361 105.267 152.161 105.72 150.668 105.72H141.788V142.68C141.201 142.84 140.268 143 138.988 143.16C137.761 143.32 136.535 143.4 135.308 143.4C134.081 143.4 132.988 143.293 132.028 143.08C131.121 142.92 130.348 142.6 129.708 142.12C129.068 141.64 128.588 140.973 128.268 140.12C127.948 139.267 127.788 138.147 127.788 136.76V105.72H115.788ZM162.481 101.96C162.481 99.6667 163.148 97.8533 164.481 96.52C165.815 95.1867 167.628 94.52 169.921 94.52H196.321C196.695 95.1067 197.015 95.88 197.281 96.84C197.601 97.8 197.761 98.8133 197.761 99.88C197.761 101.907 197.308 103.347 196.401 104.2C195.548 105.053 194.401 105.48 192.961 105.48H176.081V112.92H194.081C194.455 113.507 194.775 114.28 195.041 115.24C195.361 116.147 195.521 117.133 195.521 118.2C195.521 120.227 195.095 121.667 194.241 122.52C193.388 123.373 192.241 123.8 190.801 123.8H176.081V132.2H196.641C197.015 132.787 197.335 133.56 197.601 134.52C197.921 135.48 198.081 136.493 198.081 137.56C198.081 139.587 197.628 141.053 196.721 141.96C195.868 142.813 194.721 143.24 193.281 143.24H169.921C167.628 143.24 165.815 142.573 164.481 141.24C163.148 139.907 162.481 138.093 162.481 135.8V101.96ZM220.46 123.72C218.113 122.92 215.98 122.12 214.06 121.32C212.14 120.467 210.487 119.453 209.1 118.28C207.713 117.107 206.62 115.72 205.82 114.12C205.073 112.467 204.7 110.467 204.7 108.12C204.7 103.587 206.433 99.96 209.9 97.24C213.42 94.52 218.327 93.16 224.62 93.16C226.913 93.16 229.047 93.32 231.02 93.64C232.993 93.96 234.673 94.4667 236.06 95.16C237.5 95.8 238.62 96.6533 239.42 97.72C240.22 98.7333 240.62 99.9333 240.62 101.32C240.62 102.707 240.3 103.907 239.66 104.92C239.02 105.88 238.247 106.707 237.34 107.4C236.167 106.653 234.593 106.013 232.62 105.48C230.647 104.893 228.487 104.6 226.14 104.6C223.74 104.6 221.98 104.947 220.86 105.64C219.74 106.28 219.18 107.107 219.18 108.12C219.18 108.92 219.527 109.587 220.22 110.12C220.913 110.6 221.953 111.053 223.34 111.48L227.58 112.84C232.593 114.44 236.433 116.493 239.1 119C241.82 121.453 243.18 124.813 243.18 129.08C243.18 133.613 241.393 137.293 237.82 140.12C234.247 142.893 228.993 144.28 222.06 144.28C219.607 144.28 217.313 144.067 215.18 143.64C213.1 143.267 211.26 142.707 209.66 141.96C208.113 141.16 206.887 140.2 205.98 139.08C205.127 137.907 204.7 136.573 204.7 135.08C204.7 133.533 205.153 132.227 206.06 131.16C206.967 130.04 207.953 129.187 209.02 128.6C210.513 129.773 212.327 130.787 214.46 131.64C216.647 132.493 219.02 132.92 221.58 132.92C224.193 132.92 226.033 132.52 227.1 131.72C228.167 130.92 228.7 129.987 228.7 128.92C228.7 127.853 228.273 127.053 227.42 126.52C226.567 125.933 225.367 125.373 223.82 124.84L220.46 123.72ZM247.507 105.72C247.134 105.133 246.787 104.333 246.467 103.32C246.147 102.307 245.987 101.24 245.987 100.12C245.987 98.04 246.44 96.5467 247.347 95.64C248.307 94.7333 249.534 94.28 251.027 94.28H285.907C286.28 94.8667 286.627 95.6667 286.947 96.68C287.267 97.6933 287.427 98.76 287.427 99.88C287.427 101.96 286.947 103.453 285.987 104.36C285.08 105.267 283.88 105.72 282.387 105.72H273.507V142.68C272.92 142.84 271.987 143 270.707 143.16C269.48 143.32 268.254 143.4 267.027 143.4C265.8 143.4 264.707 143.293 263.747 143.08C262.84 142.92 262.067 142.6 261.427 142.12C260.787 141.64 260.307 140.973 259.987 140.12C259.667 139.267 259.507 138.147 259.507 136.76V105.72H247.507ZM328.376 117C330.616 117 332.322 116.493 333.496 115.48C334.722 114.413 335.336 112.813 335.336 110.68C335.336 108.653 334.696 107.107 333.416 106.04C332.189 104.92 330.376 104.36 327.976 104.36C327.122 104.36 326.402 104.387 325.816 104.44C325.282 104.44 324.722 104.493 324.136 104.6V117H328.376ZM324.216 142.68C323.629 142.84 322.696 143 321.416 143.16C320.189 143.32 318.962 143.4 317.736 143.4C316.509 143.4 315.416 143.293 314.456 143.08C313.549 142.92 312.776 142.6 312.136 142.12C311.496 141.64 311.016 140.973 310.696 140.12C310.376 139.267 310.216 138.147 310.216 136.76V99.08C310.216 97.96 310.509 97.1067 311.096 96.52C311.736 95.88 312.589 95.3733 313.656 95C315.469 94.36 317.522 93.9067 319.816 93.64C322.162 93.32 324.509 93.16 326.856 93.16C334.216 93.16 339.842 94.7333 343.736 97.88C347.629 101.027 349.576 105.293 349.576 110.68C349.576 113.293 349.149 115.667 348.296 117.8C347.496 119.88 346.269 121.693 344.616 123.24C343.016 124.733 340.962 125.907 338.456 126.76C336.002 127.56 333.149 127.96 329.896 127.96H324.216V142.68ZM356.7 101.96C356.7 99.6667 357.367 97.8533 358.7 96.52C360.033 95.1867 361.847 94.52 364.14 94.52H390.54C390.913 95.1067 391.233 95.88 391.5 96.84C391.82 97.8 391.98 98.8133 391.98 99.88C391.98 101.907 391.527 103.347 390.62 104.2C389.767 105.053 388.62 105.48 387.18 105.48H370.3V112.92H388.3C388.673 113.507 388.993 114.28 389.26 115.24C389.58 116.147 389.74 117.133 389.74 118.2C389.74 120.227 389.313 121.667 388.46 122.52C387.607 123.373 386.46 123.8 385.02 123.8H370.3V132.2H390.86C391.233 132.787 391.553 133.56 391.82 134.52C392.14 135.48 392.3 136.493 392.3 137.56C392.3 139.587 391.847 141.053 390.94 141.96C390.087 142.813 388.94 143.24 387.5 143.24H364.14C361.847 143.24 360.033 142.573 358.7 141.24C357.367 139.907 356.7 138.093 356.7 135.8V101.96ZM398.288 105.72C397.915 105.133 397.568 104.333 397.248 103.32C396.928 102.307 396.768 101.24 396.768 100.12C396.768 98.04 397.221 96.5467 398.128 95.64C399.088 94.7333 400.315 94.28 401.808 94.28H436.688C437.061 94.8667 437.408 95.6667 437.728 96.68C438.048 97.6933 438.208 98.76 438.208 99.88C438.208 101.96 437.728 103.453 436.768 104.36C435.861 105.267 434.661 105.72 433.168 105.72H424.288V142.68C423.701 142.84 422.768 143 421.488 143.16C420.261 143.32 419.035 143.4 417.808 143.4C416.581 143.4 415.488 143.293 414.528 143.08C413.621 142.92 412.848 142.6 412.208 142.12C411.568 141.64 411.088 140.973 410.768 140.12C410.448 139.267 410.288 138.147 410.288 136.76V105.72H398.288Z" fill="#A5736E"/>
<path d="M34.48 108.04L37.4943 110.669L37.4943 110.669L34.48 108.04ZM34.8 129.4L31.9108 132.166L31.926 132.182L31.9413 132.198L34.8 129.4ZM50.16 132.28L48.7414 128.54L48.7193 128.548L48.6974 128.557L50.16 132.28ZM54.56 130.28L57.1028 127.192L55.029 125.484L52.6636 126.758L54.56 130.28ZM56.64 133L52.9923 134.641L53.0429 134.754L53.1003 134.863L56.64 133ZM53.76 142.2L55.8732 145.596L55.8832 145.59L55.8932 145.584L53.76 142.2ZM32.64 142.92L31.4139 146.727L31.4139 146.727L32.64 142.92ZM24.4 138.28L21.7093 141.24L21.7279 141.257L21.7468 141.273L24.4 138.28ZM18.8 130.28L15.0988 131.797L15.1139 131.834L15.1298 131.87L18.8 130.28ZM18.72 107.72L15.0277 106.182L15.0212 106.197L15.0148 106.213L18.72 107.72ZM24.08 99.64L21.3197 96.745L21.3027 96.7613L21.2859 96.7777L24.08 99.64ZM32.08 94.68L30.6972 90.9266L30.6972 90.9266L32.08 94.68ZM53.2 95.4L51.142 98.83L51.1569 98.8389L51.1719 98.8477L53.2 95.4ZM56.24 105.16L52.9388 102.901L52.9388 102.901L56.24 105.16ZM53.84 107.56L51.651 110.908L53.8286 112.332L56.013 110.918L53.84 107.56ZM49.36 105.24L47.8306 108.936L47.8525 108.945L47.8744 108.954L49.36 105.24ZM43.92 100.28C38.9517 100.28 34.586 101.834 31.4657 105.411L37.4943 110.669C38.7473 109.233 40.6749 108.28 43.92 108.28V100.28ZM31.4657 105.411C28.4381 108.881 27.2 113.493 27.2 118.68H35.2C35.2 114.694 36.1486 112.212 37.4943 110.669L31.4657 105.411ZM27.2 118.68C27.2 123.995 28.5847 128.692 31.9108 132.166L37.6892 126.634C36.2153 125.094 35.2 122.645 35.2 118.68H27.2ZM31.9413 132.198C35.2757 135.605 39.6565 137.16 44.64 137.16V129.16C41.4102 129.16 39.231 128.209 37.6587 126.602L31.9413 132.198ZM44.64 137.16C47.1573 137.16 49.5278 136.826 51.6226 136.003L48.6974 128.557C47.8056 128.907 46.496 129.16 44.64 129.16V137.16ZM51.5786 136.02C53.281 135.374 54.9079 134.636 56.4564 133.802L52.6636 126.758C51.4388 127.418 50.1324 128.012 48.7414 128.54L51.5786 136.02ZM52.0172 133.368C52.4514 133.725 52.7657 134.138 52.9923 134.641L60.2877 131.359C59.5543 129.729 58.482 128.328 57.1028 127.192L52.0172 133.368ZM53.1003 134.863C53.2739 135.193 53.44 135.727 53.44 136.6H61.44C61.44 134.7 61.0728 132.834 60.1797 131.137L53.1003 134.863ZM53.44 136.6C53.44 136.976 53.3435 137.734 51.6268 138.816L55.8932 145.584C59.0831 143.573 61.44 140.597 61.44 136.6H53.44ZM51.6468 138.804C50.1983 139.705 47.4251 140.44 42.72 140.44V148.44C47.9349 148.44 52.5217 147.682 55.8732 145.596L51.6468 138.804ZM42.72 140.44C39.5293 140.44 36.5858 139.988 33.8661 139.113L31.4139 146.727C34.9875 147.878 38.764 148.44 42.72 148.44V140.44ZM33.8661 139.113C31.2173 138.26 28.9634 136.98 27.0532 135.287L21.7468 141.273C24.53 143.74 27.7694 145.554 31.4139 146.727L33.8661 139.113ZM27.0907 135.32C25.2043 133.605 23.6539 131.421 22.4702 128.69L15.1298 131.87C16.7194 135.539 18.9024 138.688 21.7093 141.24L27.0907 135.32ZM22.5012 128.763C21.4112 126.103 20.8 122.777 20.8 118.68H12.8C12.8 123.543 13.5222 127.95 15.0988 131.797L22.5012 128.763ZM20.8 118.68C20.8 114.924 21.3783 111.801 22.4252 109.227L15.0148 106.213C13.5017 109.932 12.8 114.116 12.8 118.68H20.8ZM22.4123 109.258C23.5608 106.502 25.0591 104.274 26.8741 102.502L21.2859 96.7777C18.6209 99.3792 16.5459 102.538 15.0277 106.182L22.4123 109.258ZM26.8403 102.535C28.729 100.734 30.924 99.3687 33.4628 98.4334L30.6972 90.9266C27.156 92.2313 24.0177 94.1725 21.3197 96.745L26.8403 102.535ZM33.4628 98.4334C36.0299 97.4876 38.812 97 41.84 97V89C37.9347 89 34.2101 89.6324 30.6972 90.9266L33.4628 98.4334ZM41.84 97C46.403 97 49.3581 97.7596 51.142 98.83L55.258 91.97C51.7085 89.8404 47.0903 89 41.84 89V97ZM51.1719 98.8477C53.0364 99.9445 53.28 100.85 53.28 101.56H61.28C61.28 97.257 58.8036 94.0555 55.2281 91.9523L51.1719 98.8477ZM53.28 101.56C53.28 102.249 53.1195 102.637 52.9388 102.901L59.5412 107.419C60.7472 105.656 61.28 103.645 61.28 101.56H53.28ZM52.9388 102.901C52.5041 103.537 52.0715 103.94 51.667 104.202L56.013 110.918C57.4218 110.007 58.5892 108.81 59.5412 107.419L52.9388 102.901ZM56.029 104.212C54.4119 103.155 52.6817 102.261 50.8456 101.526L47.8744 108.954C49.2383 109.499 50.4948 110.152 51.651 110.908L56.029 104.212ZM50.8894 101.544C48.7556 100.661 46.4016 100.28 43.92 100.28V108.28C45.5984 108.28 46.871 108.539 47.8306 108.936L50.8894 101.544ZM106.343 133L102.658 131.444L102.649 131.465L102.641 131.485L106.343 133ZM102.103 139.08L104.755 142.074L104.779 142.053L104.802 142.032L102.103 139.08ZM95.3031 142.92L96.5907 146.707L95.3031 142.92ZM77.2231 142.92L75.9355 146.707L75.9355 146.707L77.2231 142.92ZM70.4231 139.08L67.724 142.032L67.7473 142.053L67.771 142.074L70.4231 139.08ZM66.1031 133L62.3892 134.486L62.4094 134.536L62.4309 134.586L66.1031 133ZM64.6631 94.52L63.9476 90.5845L60.6631 91.1817V94.52H64.6631ZM67.4631 94.12L67.9593 98.0891L68.0402 98.079L68.1207 98.0656L67.4631 94.12ZM74.3431 94.12L73.427 98.0137L73.5554 98.0439L73.6855 98.0656L74.3431 94.12ZM76.7431 95.08L79.1431 91.88L79.1431 91.88L76.7431 95.08ZM78.1831 97.08L74.4378 98.4845L74.4378 98.4845L78.1831 97.08ZM80.7431 130.84L77.8618 133.615L77.888 133.642L77.9147 133.668L80.7431 130.84ZM91.7831 130.84L88.9018 128.065L88.9018 128.065L91.7831 130.84ZM93.8631 94.52L93.1476 90.5845L89.8631 91.1817V94.52H93.8631ZM96.6631 94.12L97.1593 98.0891L97.2402 98.079L97.3207 98.0656L96.6631 94.12ZM103.543 94.12L102.627 98.0137L102.755 98.0439L102.886 98.0656L103.543 94.12ZM105.943 95.08L103.543 98.28L103.543 98.28L105.943 95.08ZM107.383 97.08L103.638 98.4845L103.638 98.4845L107.383 97.08ZM103.863 125.08C103.863 127.482 103.443 129.586 102.658 131.444L110.028 134.556C111.27 131.614 111.863 128.438 111.863 125.08H103.863ZM102.641 131.485C101.904 133.286 100.833 134.821 99.404 136.128L104.802 142.032C107.107 139.925 108.862 137.407 110.045 134.515L102.641 131.485ZM99.451 136.086C98.0303 137.344 96.2442 138.375 94.0155 139.133L96.5907 146.707C99.6954 145.651 102.443 144.123 104.755 142.074L99.451 136.086ZM94.0155 139.133C91.8347 139.874 89.2673 140.28 86.2631 140.28V148.28C89.979 148.28 93.4382 147.779 96.5907 146.707L94.0155 139.133ZM86.2631 140.28C83.259 140.28 80.6916 139.874 78.5107 139.133L75.9355 146.707C79.088 147.779 82.5473 148.28 86.2631 148.28V140.28ZM78.5107 139.133C76.2821 138.375 74.4959 137.344 73.0753 136.086L67.771 142.074C70.0837 144.123 72.8308 145.651 75.9355 146.707L78.5107 139.133ZM73.1222 136.128C71.6774 134.807 70.567 133.247 69.7754 131.414L62.4309 134.586C63.6659 137.446 65.4355 139.94 67.724 142.032L73.1222 136.128ZM69.817 131.514C69.0664 129.638 68.6631 127.509 68.6631 125.08H60.6631C60.6631 128.411 61.2198 131.562 62.3892 134.486L69.817 131.514ZM68.6631 125.08V94.52H60.6631V125.08H68.6631ZM65.3787 98.4555C65.8488 98.37 66.6887 98.2479 67.9593 98.0891L66.967 90.1509C65.6775 90.3121 64.6508 90.4567 63.9476 90.5845L65.3787 98.4555ZM68.1207 98.0656C69.2059 97.8847 70.2118 97.8 71.1431 97.8V89.8C69.7277 89.8 68.2803 89.9286 66.8055 90.1744L68.1207 98.0656ZM71.1431 97.8C72.1524 97.8 72.8979 97.8892 73.427 98.0137L75.2593 90.2263C73.9751 89.9242 72.5872 89.8 71.1431 89.8V97.8ZM73.6855 98.0656C74.1487 98.1428 74.3153 98.2591 74.3431 98.28L79.1431 91.88C77.8909 90.9409 76.4576 90.4172 75.0007 90.1744L73.6855 98.0656ZM74.3431 98.28C74.3303 98.2704 74.3273 98.2637 74.337 98.2772C74.3488 98.2937 74.3888 98.3537 74.4378 98.4845L81.9284 95.6755C81.3788 94.2097 80.4754 92.8792 79.1431 91.88L74.3431 98.28ZM74.4378 98.4845C74.5254 98.7182 74.6631 99.3088 74.6631 100.44H82.6631C82.6631 98.7978 82.4808 97.1485 81.9284 95.6755L74.4378 98.4845ZM74.6631 100.44V124.84H82.6631V100.44H74.6631ZM74.6631 124.84C74.6631 128.132 75.572 131.237 77.8618 133.615L83.6244 128.065C83.141 127.563 82.6631 126.668 82.6631 124.84H74.6631ZM77.9147 133.668C80.1834 135.937 83.0787 137 86.2631 137V129C84.9675 129 84.1829 128.623 83.5716 128.012L77.9147 133.668ZM86.2631 137C89.4688 137 92.4106 135.955 94.6644 133.615L88.9018 128.065C88.3823 128.605 87.6441 129 86.2631 129V137ZM94.6644 133.615C96.9543 131.237 97.8631 128.132 97.8631 124.84H89.8631C89.8631 126.668 89.3853 127.563 88.9018 128.065L94.6644 133.615ZM97.8631 124.84V94.52H89.8631V124.84H97.8631ZM94.5787 98.4555C95.0488 98.37 95.8887 98.2479 97.1593 98.0891L96.167 90.1509C94.8775 90.3121 93.8508 90.4567 93.1476 90.5845L94.5787 98.4555ZM97.3207 98.0656C98.4059 97.8847 99.4118 97.8 100.343 97.8V89.8C98.9277 89.8 97.4803 89.9286 96.0055 90.1744L97.3207 98.0656ZM100.343 97.8C101.352 97.8 102.098 97.8892 102.627 98.0137L104.459 90.2263C103.175 89.9242 101.787 89.8 100.343 89.8V97.8ZM102.886 98.0656C103.349 98.1428 103.515 98.2591 103.543 98.28L108.343 91.88C107.091 90.9409 105.658 90.4172 104.201 90.1744L102.886 98.0656ZM103.543 98.28C103.53 98.2704 103.527 98.2637 103.537 98.2772C103.549 98.2937 103.589 98.3537 103.638 98.4845L111.128 95.6755C110.579 94.2097 109.675 92.8792 108.343 91.88L103.543 98.28ZM103.638 98.4845C103.725 98.7182 103.863 99.3088 103.863 100.44H111.863C111.863 98.7978 111.681 97.1485 111.128 95.6755L103.638 98.4845ZM103.863 100.44V125.08H111.863V100.44H103.863ZM115.788 105.72L112.413 107.867L113.592 109.72H115.788V105.72ZM114.748 103.32L110.934 104.525L110.934 104.525L114.748 103.32ZM115.628 95.64L112.882 92.7319L112.84 92.7712L112.8 92.8116L115.628 95.64ZM154.188 94.28L157.563 92.1325L156.384 90.28H154.188V94.28ZM155.228 96.68L159.042 95.4755L159.042 95.4755L155.228 96.68ZM154.268 104.36L151.522 101.452L151.48 101.491L151.44 101.532L154.268 104.36ZM141.788 105.72V101.72H137.788V105.72H141.788ZM141.788 142.68L142.841 146.539L145.788 145.735V142.68H141.788ZM138.988 143.16L138.492 139.191L138.481 139.192L138.471 139.194L138.988 143.16ZM132.028 143.08L132.896 139.175L132.81 139.156L132.723 139.141L132.028 143.08ZM129.708 142.12L132.108 138.92L129.708 142.12ZM128.268 140.12L124.523 141.524L124.523 141.524L128.268 140.12ZM127.788 105.72H131.788V101.72H127.788V105.72ZM119.163 103.572C119.047 103.391 118.827 102.952 118.562 102.115L110.934 104.525C111.31 105.715 111.782 106.876 112.413 107.867L119.163 103.572ZM118.562 102.115C118.372 101.512 118.268 100.854 118.268 100.12H110.268C110.268 101.626 110.484 103.101 110.934 104.525L118.562 102.115ZM118.268 100.12C118.268 99.3514 118.354 98.8704 118.436 98.6019C118.512 98.3492 118.559 98.3662 118.457 98.4684L112.8 92.8116C110.791 94.8204 110.268 97.6106 110.268 100.12H118.268ZM118.375 98.5481C118.493 98.4359 118.692 98.28 119.308 98.28V90.28C116.938 90.28 114.683 91.0307 112.882 92.7319L118.375 98.5481ZM119.308 98.28H154.188V90.28H119.308V98.28ZM150.813 96.4275C150.929 96.609 151.15 97.0481 151.414 97.8845L159.042 95.4755C158.667 94.2852 158.194 93.1243 157.563 92.1325L150.813 96.4275ZM151.414 97.8845C151.604 98.4876 151.708 99.1465 151.708 99.88H159.708C159.708 98.3735 159.492 96.899 159.042 95.4755L151.414 97.8845ZM151.708 99.88C151.708 100.631 151.619 101.09 151.54 101.336C151.468 101.561 151.427 101.541 151.522 101.452L157.015 107.268C159.134 105.266 159.708 102.442 159.708 99.88H151.708ZM151.44 101.532C151.407 101.564 151.289 101.72 150.668 101.72V109.72C153.034 109.72 155.316 108.969 157.097 107.188L151.44 101.532ZM150.668 101.72H141.788V109.72H150.668V101.72ZM137.788 105.72V142.68H145.788V105.72H137.788ZM140.736 138.821C140.44 138.902 139.744 139.034 138.492 139.191L139.484 147.129C140.792 146.966 141.963 146.778 142.841 146.539L140.736 138.821ZM138.471 139.194C137.414 139.331 136.36 139.4 135.308 139.4V147.4C136.709 147.4 138.109 147.309 139.505 147.126L138.471 139.194ZM135.308 139.4C134.305 139.4 133.511 139.312 132.896 139.175L131.16 146.985C132.465 147.275 133.858 147.4 135.308 147.4V139.4ZM132.723 139.141C132.341 139.073 132.175 138.97 132.108 138.92L127.308 145.32C128.521 146.23 129.901 146.767 131.333 147.019L132.723 139.141ZM132.108 138.92C132.121 138.93 132.124 138.936 132.114 138.923C132.102 138.906 132.062 138.846 132.013 138.716L124.523 141.524C125.072 142.99 125.976 144.321 127.308 145.32L132.108 138.92ZM132.013 138.716C131.926 138.482 131.788 137.891 131.788 136.76H123.788C123.788 138.402 123.97 140.052 124.523 141.524L132.013 138.716ZM131.788 136.76V105.72H123.788V136.76H131.788ZM127.788 101.72H115.788V109.72H127.788V101.72ZM196.321 94.52L199.696 92.3725L198.517 90.52H196.321V94.52ZM197.281 96.84L193.427 97.9106L193.454 98.0085L193.487 98.1049L197.281 96.84ZM196.401 104.2L193.66 101.287L193.616 101.329L193.573 101.372L196.401 104.2ZM176.081 105.48V101.48H172.081V105.48H176.081ZM176.081 112.92H172.081V116.92H176.081V112.92ZM194.081 112.92L197.456 110.772L196.277 108.92H194.081V112.92ZM195.041 115.24L191.187 116.311L191.224 116.442L191.269 116.571L195.041 115.24ZM176.081 123.8V119.8H172.081V123.8H176.081ZM176.081 132.2H172.081V136.2H176.081V132.2ZM196.641 132.2L200.016 130.052L198.837 128.2H196.641V132.2ZM197.601 134.52L193.747 135.591L193.774 135.689L193.807 135.785L197.601 134.52ZM196.721 141.96L193.893 139.132L193.893 139.132L196.721 141.96ZM164.481 141.24L167.31 138.412L167.31 138.412L164.481 141.24ZM166.481 101.96C166.481 100.483 166.883 99.7748 167.31 99.3484L161.653 93.6916C159.413 95.9318 158.481 98.8503 158.481 101.96H166.481ZM167.31 99.3484C167.736 98.922 168.444 98.52 169.921 98.52V90.52C166.812 90.52 163.893 91.4513 161.653 93.6916L167.31 99.3484ZM169.921 98.52H196.321V90.52H169.921V98.52ZM192.947 96.6675C193.038 96.811 193.225 97.1814 193.427 97.9106L201.135 95.7694C200.805 94.5786 200.351 93.4023 199.696 92.3725L192.947 96.6675ZM193.487 98.1049C193.663 98.6354 193.761 99.2199 193.761 99.88H201.761C201.761 98.4068 201.539 96.9646 201.076 95.5751L193.487 98.1049ZM193.761 99.88C193.761 100.616 193.676 101.055 193.606 101.279C193.541 101.484 193.519 101.42 193.66 101.287L199.143 107.113C201.235 105.143 201.761 102.342 201.761 99.88H193.761ZM193.573 101.372C193.558 101.386 193.549 101.395 193.506 101.411C193.451 101.432 193.288 101.48 192.961 101.48V109.48C195.242 109.48 197.484 108.774 199.23 107.028L193.573 101.372ZM192.961 101.48H176.081V109.48H192.961V101.48ZM172.081 105.48V112.92H180.081V105.48H172.081ZM176.081 116.92H194.081V108.92H176.081V116.92ZM190.707 115.067C190.798 115.211 190.985 115.581 191.187 116.311L198.895 114.169C198.565 112.979 198.111 111.802 197.456 110.772L190.707 115.067ZM191.269 116.571C191.423 117.006 191.521 117.537 191.521 118.2H199.521C199.521 116.729 199.3 115.287 198.813 113.909L191.269 116.571ZM191.521 118.2C191.521 118.953 191.44 119.416 191.366 119.664C191.297 119.898 191.266 119.838 191.413 119.692L197.07 125.348C199.046 123.372 199.521 120.608 199.521 118.2H191.521ZM191.413 119.692C191.398 119.706 191.389 119.715 191.346 119.731C191.291 119.752 191.128 119.8 190.801 119.8V127.8C193.082 127.8 195.324 127.094 197.07 125.348L191.413 119.692ZM190.801 119.8H176.081V127.8H190.801V119.8ZM172.081 123.8V132.2H180.081V123.8H172.081ZM176.081 136.2H196.641V128.2H176.081V136.2ZM193.267 134.348C193.358 134.491 193.545 134.861 193.747 135.591L201.455 133.449C201.125 132.259 200.671 131.082 200.016 130.052L193.267 134.348ZM193.807 135.785C193.983 136.315 194.081 136.9 194.081 137.56H202.081C202.081 136.087 201.859 134.645 201.396 133.255L193.807 135.785ZM194.081 137.56C194.081 138.293 193.997 138.748 193.92 138.999C193.847 139.232 193.804 139.221 193.893 139.132L199.55 144.788C201.543 142.795 202.081 140.052 202.081 137.56H194.081ZM193.893 139.132C193.878 139.146 193.869 139.155 193.826 139.171C193.771 139.192 193.608 139.24 193.281 139.24V147.24C195.562 147.24 197.804 146.534 199.55 144.788L193.893 139.132ZM193.281 139.24H169.921V147.24H193.281V139.24ZM169.921 139.24C168.444 139.24 167.736 138.838 167.31 138.412L161.653 144.068C163.893 146.309 166.812 147.24 169.921 147.24V139.24ZM167.31 138.412C166.883 137.985 166.481 137.277 166.481 135.8H158.481C158.481 138.91 159.413 141.828 161.653 144.068L167.31 138.412ZM166.481 135.8V101.96H158.481V135.8H166.481ZM220.46 123.72L219.169 127.506L219.182 127.51L219.195 127.515L220.46 123.72ZM214.06 121.32L212.435 124.975L212.478 124.994L212.522 125.012L214.06 121.32ZM205.82 114.12L202.175 115.766L202.207 115.838L202.242 115.909L205.82 114.12ZM209.9 97.24L207.454 94.0749L207.442 94.0839L207.431 94.093L209.9 97.24ZM231.02 93.64L231.66 89.6916L231.66 89.6916L231.02 93.64ZM236.06 95.16L234.271 98.7377L234.352 98.7783L234.435 98.8152L236.06 95.16ZM239.42 97.72L236.22 100.12L236.25 100.16L236.28 100.199L239.42 97.72ZM239.66 104.92L242.988 107.139L243.016 107.098L243.042 107.056L239.66 104.92ZM237.34 107.4L235.192 110.775L237.55 112.275L239.77 110.577L237.34 107.4ZM232.62 105.48L231.48 109.314L231.528 109.328L231.576 109.341L232.62 105.48ZM220.86 105.64L222.845 109.113L222.906 109.078L222.965 109.041L220.86 105.64ZM220.22 110.12L217.781 113.29L217.861 113.352L217.943 113.409L220.22 110.12ZM223.34 111.48L224.562 107.671L224.539 107.664L224.516 107.657L223.34 111.48ZM227.58 112.84L226.358 116.649L226.364 116.651L227.58 112.84ZM239.1 119L236.36 121.915L236.39 121.943L236.421 121.97L239.1 119ZM237.82 140.12L240.272 143.28L240.287 143.269L240.302 143.257L237.82 140.12ZM215.18 143.64L215.964 139.718L215.926 139.71L215.887 139.703L215.18 143.64ZM209.66 141.96L207.822 145.513L207.895 145.55L207.968 145.585L209.66 141.96ZM205.98 139.08L202.745 141.433L202.806 141.516L202.871 141.597L205.98 139.08ZM206.06 131.16L209.108 133.751L209.139 133.714L209.169 133.677L206.06 131.16ZM209.02 128.6L211.491 125.455L209.411 123.82L207.092 125.095L209.02 128.6ZM214.46 131.64L212.974 135.354L212.99 135.36L213.006 135.366L214.46 131.64ZM227.1 131.72L229.5 134.92L229.5 134.92L227.1 131.72ZM227.42 126.52L225.154 129.816L225.226 129.866L225.3 129.912L227.42 126.52ZM223.82 124.84L225.124 121.059L225.104 121.052L225.085 121.045L223.82 124.84ZM221.751 119.934C219.472 119.157 217.423 118.388 215.598 117.628L212.522 125.012C214.537 125.852 216.754 126.683 219.169 127.506L221.751 119.934ZM215.685 117.665C214.058 116.942 212.74 116.12 211.684 115.226L206.516 121.334C208.234 122.787 210.222 123.991 212.435 124.975L215.685 117.665ZM211.684 115.226C210.704 114.397 209.952 113.439 209.398 112.331L202.242 115.909C203.288 118.001 204.723 119.816 206.516 121.334L211.684 115.226ZM209.465 112.474C209.01 111.466 208.7 110.059 208.7 108.12H200.7C200.7 110.874 201.136 113.467 202.175 115.766L209.465 112.474ZM208.7 108.12C208.7 104.774 209.901 102.324 212.369 100.387L207.431 94.093C202.966 97.5964 200.7 102.4 200.7 108.12H208.7ZM212.346 100.405C214.927 98.4107 218.854 97.16 224.62 97.16V89.16C217.8 89.16 211.913 90.6293 207.454 94.0749L212.346 100.405ZM224.62 97.16C226.729 97.16 228.646 97.3073 230.38 97.5884L231.66 89.6916C229.447 89.3327 227.097 89.16 224.62 89.16V97.16ZM230.38 97.5884C232.063 97.8614 233.334 98.2689 234.271 98.7377L237.849 91.5823C236.013 90.6644 233.924 90.0586 231.66 89.6916L230.38 97.5884ZM234.435 98.8152C235.366 99.2286 235.898 99.6909 236.22 100.12L242.62 95.32C241.342 93.6158 239.634 92.3714 237.685 91.5048L234.435 98.8152ZM236.28 100.199C236.481 100.452 236.62 100.762 236.62 101.32H244.62C244.62 99.1051 243.959 97.0146 242.56 95.2414L236.28 100.199ZM236.62 101.32C236.62 102.072 236.454 102.505 236.278 102.784L243.042 107.056C244.146 105.308 244.62 103.342 244.62 101.32H236.62ZM236.332 102.701C235.934 103.298 235.463 103.8 234.91 104.223L239.77 110.577C241.031 109.613 242.106 108.462 242.988 107.139L236.332 102.701ZM239.488 104.025C237.853 102.986 235.862 102.213 233.664 101.619L231.576 109.341C233.325 109.814 234.48 110.321 235.192 110.775L239.488 104.025ZM233.76 101.646C231.369 100.935 228.82 100.6 226.14 100.6V108.6C228.154 108.6 229.924 108.852 231.48 109.314L233.76 101.646ZM226.14 100.6C223.521 100.6 220.84 100.948 218.755 102.239L222.965 109.041C223.12 108.945 223.959 108.6 226.14 108.6V100.6ZM218.875 102.167C216.904 103.294 215.18 105.268 215.18 108.12H223.18C223.18 108.24 223.163 108.392 223.112 108.56C223.061 108.728 222.988 108.871 222.912 108.983C222.764 109.201 222.666 109.215 222.845 109.113L218.875 102.167ZM215.18 108.12C215.18 110.29 216.209 112.081 217.781 113.29L222.659 106.95C222.699 106.98 222.853 107.112 222.989 107.375C223.131 107.648 223.18 107.92 223.18 108.12H215.18ZM217.943 113.409C219.131 114.231 220.624 114.829 222.164 115.303L224.516 107.657C223.283 107.277 222.695 106.969 222.497 106.831L217.943 113.409ZM222.118 115.289L226.358 116.649L228.802 109.031L224.562 107.671L222.118 115.289ZM226.364 116.651C231.04 118.143 234.276 119.955 236.36 121.915L241.84 116.085C238.591 113.032 234.147 110.737 228.796 109.029L226.364 116.651ZM236.421 121.97C238.159 123.538 239.18 125.741 239.18 129.08H247.18C247.18 123.886 245.481 119.369 241.779 116.03L236.421 121.97ZM239.18 129.08C239.18 132.383 237.958 134.91 235.338 136.983L240.302 143.257C244.828 139.676 247.18 134.843 247.18 129.08H239.18ZM235.368 136.96C232.782 138.967 228.553 140.28 222.06 140.28V148.28C229.434 148.28 235.711 146.82 240.272 143.28L235.368 136.96ZM222.06 140.28C219.837 140.28 217.809 140.087 215.964 139.718L214.396 147.562C216.817 148.047 219.376 148.28 222.06 148.28V140.28ZM215.887 139.703C214.083 139.379 212.584 138.91 211.352 138.335L207.968 145.585C209.936 146.503 212.117 147.154 214.473 147.577L215.887 139.703ZM211.498 138.407C210.342 137.809 209.583 137.174 209.089 136.563L202.871 141.597C204.19 143.226 205.885 144.511 207.822 145.513L211.498 138.407ZM209.215 136.727C208.874 136.259 208.7 135.754 208.7 135.08H200.7C200.7 137.392 201.379 139.555 202.745 141.433L209.215 136.727ZM208.7 135.08C208.7 134.376 208.881 134.017 209.108 133.751L203.012 128.569C201.425 130.437 200.7 132.691 200.7 135.08H208.7ZM209.169 133.677C209.808 132.887 210.41 132.4 210.948 132.105L207.092 125.095C205.496 125.973 204.125 127.193 202.951 128.643L209.169 133.677ZM206.549 131.745C208.397 133.197 210.559 134.388 212.974 135.354L215.946 127.926C214.095 127.186 212.63 126.349 211.491 125.455L206.549 131.745ZM213.006 135.366C215.696 136.416 218.568 136.92 221.58 136.92V128.92C219.472 128.92 217.597 128.57 215.914 127.914L213.006 135.366ZM221.58 136.92C224.357 136.92 227.336 136.543 229.5 134.92L224.7 128.52C224.775 128.464 224.644 128.587 224.07 128.711C223.513 128.832 222.702 128.92 221.58 128.92V136.92ZM229.5 134.92C231.295 133.574 232.7 131.558 232.7 128.92H224.7C224.7 128.849 224.709 128.761 224.735 128.664C224.761 128.568 224.796 128.49 224.827 128.435C224.888 128.329 224.898 128.371 224.7 128.52L229.5 134.92ZM232.7 128.92C232.7 126.574 231.645 124.444 229.54 123.128L225.3 129.912C225.2 129.849 225.002 129.686 224.851 129.402C224.705 129.129 224.7 128.927 224.7 128.92H232.7ZM229.686 123.224C228.415 122.35 226.839 121.65 225.124 121.059L222.516 128.621C223.894 129.097 224.718 129.517 225.154 129.816L229.686 123.224ZM225.085 121.045L221.725 119.925L219.195 127.515L222.555 128.635L225.085 121.045ZM247.507 105.72L244.132 107.867L245.311 109.72H247.507V105.72ZM246.467 103.32L242.653 104.525L242.653 104.525L246.467 103.32ZM247.347 95.64L244.6 92.7319L244.559 92.7712L244.518 92.8116L247.347 95.64ZM285.907 94.28L289.282 92.1325L288.103 90.28H285.907V94.28ZM286.947 96.68L290.761 95.4755L290.761 95.4755L286.947 96.68ZM285.987 104.36L283.24 101.452L283.199 101.491L283.158 101.532L285.987 104.36ZM273.507 105.72V101.72H269.507V105.72H273.507ZM273.507 142.68L274.559 146.539L277.507 145.735V142.68H273.507ZM270.707 143.16L270.211 139.191L270.2 139.192L270.19 139.194L270.707 143.16ZM263.747 143.08L264.615 139.175L264.529 139.156L264.442 139.141L263.747 143.08ZM261.427 142.12L263.827 138.92L261.427 142.12ZM259.987 140.12L256.242 141.524L256.242 141.524L259.987 140.12ZM259.507 105.72H263.507V101.72H259.507V105.72ZM250.882 103.572C250.766 103.391 250.545 102.952 250.281 102.115L242.653 104.525C243.028 105.715 243.501 106.876 244.132 107.867L250.882 103.572ZM250.281 102.115C250.091 101.512 249.987 100.854 249.987 100.12H241.987C241.987 101.626 242.203 103.101 242.653 104.525L250.281 102.115ZM249.987 100.12C249.987 99.3514 250.073 98.8704 250.154 98.6019C250.231 98.3492 250.278 98.3662 250.175 98.4684L244.518 92.8116C242.51 94.8204 241.987 97.6106 241.987 100.12H249.987ZM250.093 98.5481C250.212 98.4359 250.41 98.28 251.027 98.28V90.28C248.657 90.28 246.402 91.0307 244.6 92.7319L250.093 98.5481ZM251.027 98.28H285.907V90.28H251.027V98.28ZM282.532 96.4275C282.648 96.609 282.868 97.0481 283.133 97.8845L290.761 95.4755C290.385 94.2852 289.913 93.1243 289.282 92.1325L282.532 96.4275ZM283.133 97.8845C283.323 98.4876 283.427 99.1465 283.427 99.88H291.427C291.427 98.3735 291.211 96.899 290.761 95.4755L283.133 97.8845ZM283.427 99.88C283.427 100.631 283.338 101.09 283.259 101.336C283.186 101.561 283.146 101.541 283.24 101.452L288.733 107.268C290.853 105.266 291.427 102.442 291.427 99.88H283.427ZM283.158 101.532C283.126 101.564 283.008 101.72 282.387 101.72V109.72C284.752 109.72 287.035 108.969 288.815 107.188L283.158 101.532ZM282.387 101.72H273.507V109.72H282.387V101.72ZM269.507 105.72V142.68H277.507V105.72H269.507ZM272.454 138.821C272.158 138.902 271.463 139.034 270.211 139.191L271.203 147.129C272.511 146.966 273.682 146.778 274.559 146.539L272.454 138.821ZM270.19 139.194C269.133 139.331 268.079 139.4 267.027 139.4V147.4C268.428 147.4 269.827 147.309 271.224 147.126L270.19 139.194ZM267.027 139.4C266.024 139.4 265.23 139.312 264.615 139.175L262.879 146.985C264.184 147.275 265.577 147.4 267.027 147.4V139.4ZM264.442 139.141C264.06 139.073 263.894 138.97 263.827 138.92L259.027 145.32C260.24 146.23 261.62 146.767 263.052 147.019L264.442 139.141ZM263.827 138.92C263.84 138.93 263.843 138.936 263.833 138.923C263.821 138.906 263.781 138.846 263.732 138.716L256.242 141.524C256.791 142.99 257.695 144.321 259.027 145.32L263.827 138.92ZM263.732 138.716C263.645 138.482 263.507 137.891 263.507 136.76H255.507C255.507 138.402 255.689 140.052 256.242 141.524L263.732 138.716ZM263.507 136.76V105.72H255.507V136.76H263.507ZM259.507 101.72H247.507V109.72H259.507V101.72ZM333.496 115.48L336.11 118.507L336.12 118.498L333.496 115.48ZM333.416 106.04L330.719 108.994L330.785 109.055L330.855 109.113L333.416 106.04ZM325.816 104.44V108.44H325.997L326.178 108.424L325.816 104.44ZM324.136 104.6L323.42 100.665L320.136 101.262V104.6H324.136ZM324.136 117H320.136V121H324.136V117ZM324.216 142.68L325.268 146.539L328.216 145.735V142.68H324.216ZM321.416 143.16L320.919 139.191L320.909 139.192L320.898 139.194L321.416 143.16ZM314.456 143.08L315.323 139.175L315.237 139.156L315.151 139.141L314.456 143.08ZM312.136 142.12L309.736 145.32L309.736 145.32L312.136 142.12ZM310.696 140.12L306.95 141.524L306.95 141.524L310.696 140.12ZM311.096 96.52L313.924 99.3484L313.924 99.3484L311.096 96.52ZM313.656 95L314.977 98.7754L314.987 98.772L313.656 95ZM319.816 93.64L320.278 97.6132L320.317 97.6087L320.356 97.6033L319.816 93.64ZM343.736 97.88L341.221 100.991L343.736 97.88ZM348.296 117.8L344.582 116.314L344.572 116.339L344.562 116.364L348.296 117.8ZM344.616 123.24L347.345 126.164L347.348 126.161L344.616 123.24ZM338.456 126.76L339.696 130.563L339.72 130.555L339.745 130.547L338.456 126.76ZM324.216 127.96V123.96H320.216V127.96H324.216ZM328.376 121C331.156 121 333.946 120.376 336.11 118.507L330.881 112.453C330.699 112.61 330.075 113 328.376 113V121ZM336.12 118.498C338.474 116.452 339.336 113.587 339.336 110.68H331.336C331.336 112.04 330.971 112.375 330.871 112.462L336.12 118.498ZM339.336 110.68C339.336 107.748 338.365 104.958 335.976 102.967L330.855 109.113C331.026 109.256 331.336 109.558 331.336 110.68H339.336ZM336.113 103.086C333.879 101.046 330.934 100.36 327.976 100.36V108.36C329.817 108.36 330.499 108.794 330.719 108.994L336.113 103.086ZM327.976 100.36C327.05 100.36 326.201 100.388 325.453 100.456L326.178 108.424C326.604 108.385 327.195 108.36 327.976 108.36V100.36ZM325.816 100.44C325.016 100.44 324.216 100.52 323.42 100.665L324.851 108.535C325.229 108.467 325.548 108.44 325.816 108.44V100.44ZM320.136 104.6V117H328.136V104.6H320.136ZM324.136 121H328.376V113H324.136V121ZM323.163 138.821C322.867 138.902 322.171 139.034 320.919 139.191L321.912 147.129C323.22 146.966 324.391 146.778 325.268 146.539L323.163 138.821ZM320.898 139.194C319.842 139.331 318.788 139.4 317.736 139.4V147.4C319.137 147.4 320.536 147.309 321.933 147.126L320.898 139.194ZM317.736 139.4C316.732 139.4 315.939 139.312 315.323 139.175L313.588 146.985C314.893 147.275 316.285 147.4 317.736 147.4V139.4ZM315.151 139.141C314.769 139.073 314.602 138.97 314.536 138.92L309.736 145.32C310.949 146.23 312.329 146.767 313.76 147.019L315.151 139.141ZM314.536 138.92C314.548 138.93 314.551 138.936 314.542 138.923C314.53 138.906 314.49 138.846 314.441 138.716L306.95 141.524C307.5 142.99 308.403 144.321 309.736 145.32L314.536 138.92ZM314.441 138.716C314.353 138.482 314.216 137.891 314.216 136.76H306.216C306.216 138.402 306.398 140.052 306.95 141.524L314.441 138.716ZM314.216 136.76V99.08H306.216V136.76H314.216ZM314.216 99.08C314.216 98.86 314.245 98.8216 314.218 98.9003C314.204 98.9426 314.175 99.0117 314.124 99.0958C314.072 99.181 314.005 99.2677 313.924 99.3484L308.267 93.6916C306.698 95.261 306.216 97.281 306.216 99.08H314.216ZM313.924 99.3484C314.047 99.2254 314.34 98.9984 314.977 98.7754L312.334 91.2246C310.838 91.7483 309.424 92.5346 308.267 93.6916L313.924 99.3484ZM314.987 98.772C316.469 98.2487 318.224 97.8521 320.278 97.6132L319.354 89.6668C316.821 89.9613 314.468 90.4713 312.324 91.228L314.987 98.772ZM320.356 97.6033C322.525 97.3075 324.691 97.16 326.856 97.16V89.16C324.327 89.16 321.799 89.3325 319.275 89.6767L320.356 97.6033ZM326.856 97.16C333.717 97.16 338.307 98.6356 341.221 100.991L346.25 94.769C341.378 90.831 334.715 89.16 326.856 89.16V97.16ZM341.221 100.991C344.096 103.314 345.576 106.396 345.576 110.68H353.576C353.576 104.19 351.162 98.7389 346.25 94.769L341.221 100.991ZM345.576 110.68C345.576 112.854 345.222 114.714 344.582 116.314L352.01 119.286C353.076 116.619 353.576 113.733 353.576 110.68H345.576ZM344.562 116.364C343.983 117.871 343.102 119.179 341.883 120.319L347.348 126.161C349.436 124.208 351.008 121.889 352.029 119.236L344.562 116.364ZM341.886 120.316C340.777 121.351 339.248 122.265 337.167 122.973L339.745 130.547C342.677 129.548 345.254 128.116 347.345 126.164L341.886 120.316ZM337.216 122.957C335.251 123.598 332.832 123.96 329.896 123.96V131.96C333.465 131.96 336.753 131.522 339.696 130.563L337.216 122.957ZM329.896 123.96H324.216V131.96H329.896V123.96ZM320.216 127.96V142.68H328.216V127.96H320.216ZM390.54 94.52L393.915 92.3725L392.736 90.52H390.54V94.52ZM391.5 96.84L387.646 97.9106L387.673 98.0085L387.705 98.1049L391.5 96.84ZM390.62 104.2L387.879 101.287L387.834 101.329L387.792 101.372L390.62 104.2ZM370.3 105.48V101.48H366.3V105.48H370.3ZM370.3 112.92H366.3V116.92H370.3V112.92ZM388.3 112.92L391.675 110.772L390.496 108.92H388.3V112.92ZM389.26 115.24L385.406 116.311L385.443 116.442L385.488 116.571L389.26 115.24ZM370.3 123.8V119.8H366.3V123.8H370.3ZM370.3 132.2H366.3V136.2H370.3V132.2ZM390.86 132.2L394.235 130.052L393.056 128.2H390.86V132.2ZM391.82 134.52L387.966 135.591L387.993 135.689L388.025 135.785L391.82 134.52ZM390.94 141.96L388.112 139.132L388.112 139.132L390.94 141.96ZM358.7 141.24L361.528 138.412L361.528 138.412L358.7 141.24ZM360.7 101.96C360.7 100.483 361.102 99.7748 361.528 99.3484L355.872 93.6916C353.631 95.9318 352.7 98.8503 352.7 101.96H360.7ZM361.528 99.3484C361.955 98.922 362.663 98.52 364.14 98.52V90.52C361.03 90.52 358.112 91.4513 355.872 93.6916L361.528 99.3484ZM364.14 98.52H390.54V90.52H364.14V98.52ZM387.165 96.6675C387.257 96.811 387.443 97.1814 387.646 97.9106L395.354 95.7694C395.023 94.5786 394.57 93.4023 393.915 92.3725L387.165 96.6675ZM387.705 98.1049C387.882 98.6354 387.98 99.2199 387.98 99.88H395.98C395.98 98.4068 395.758 96.9646 395.295 95.5751L387.705 98.1049ZM387.98 99.88C387.98 100.616 387.895 101.055 387.825 101.279C387.76 101.484 387.738 101.42 387.879 101.287L393.361 107.113C395.454 105.143 395.98 102.342 395.98 99.88H387.98ZM387.792 101.372C387.777 101.386 387.768 101.395 387.725 101.411C387.669 101.432 387.506 101.48 387.18 101.48V109.48C389.461 109.48 391.703 108.774 393.448 107.028L387.792 101.372ZM387.18 101.48H370.3V109.48H387.18V101.48ZM366.3 105.48V112.92H374.3V105.48H366.3ZM370.3 116.92H388.3V108.92H370.3V116.92ZM384.925 115.067C385.017 115.211 385.203 115.581 385.406 116.311L393.114 114.169C392.783 112.979 392.33 111.802 391.675 110.772L384.925 115.067ZM385.488 116.571C385.642 117.006 385.74 117.537 385.74 118.2H393.74C393.74 116.729 393.518 115.287 393.032 113.909L385.488 116.571ZM385.74 118.2C385.74 118.953 385.658 119.416 385.585 119.664C385.515 119.898 385.485 119.838 385.632 119.692L391.288 125.348C393.264 123.372 393.74 120.608 393.74 118.2H385.74ZM385.632 119.692C385.617 119.706 385.608 119.715 385.565 119.731C385.509 119.752 385.346 119.8 385.02 119.8V127.8C387.301 127.8 389.543 127.094 391.288 125.348L385.632 119.692ZM385.02 119.8H370.3V127.8H385.02V119.8ZM366.3 123.8V132.2H374.3V123.8H366.3ZM370.3 136.2H390.86V128.2H370.3V136.2ZM387.485 134.348C387.577 134.491 387.763 134.861 387.966 135.591L395.674 133.449C395.343 132.259 394.89 131.082 394.235 130.052L387.485 134.348ZM388.025 135.785C388.202 136.315 388.3 136.9 388.3 137.56H396.3C396.3 136.087 396.078 134.645 395.615 133.255L388.025 135.785ZM388.3 137.56C388.3 138.293 388.216 138.748 388.138 138.999C388.066 139.232 388.022 139.221 388.112 139.132L393.768 144.788C395.761 142.795 396.3 140.052 396.3 137.56H388.3ZM388.112 139.132C388.097 139.146 388.088 139.155 388.045 139.171C387.989 139.192 387.826 139.24 387.5 139.24V147.24C389.781 147.24 392.023 146.534 393.768 144.788L388.112 139.132ZM387.5 139.24H364.14V147.24H387.5V139.24ZM364.14 139.24C362.663 139.24 361.955 138.838 361.528 138.412L355.872 144.068C358.112 146.309 361.03 147.24 364.14 147.24V139.24ZM361.528 138.412C361.102 137.985 360.7 137.277 360.7 135.8H352.7C352.7 138.91 353.631 141.828 355.872 144.068L361.528 138.412ZM360.7 135.8V101.96H352.7V135.8H360.7ZM398.288 105.72L394.913 107.867L396.092 109.72H398.288V105.72ZM397.248 103.32L393.434 104.525L393.434 104.525L397.248 103.32ZM398.128 95.64L395.382 92.7319L395.34 92.7712L395.3 92.8116L398.128 95.64ZM436.688 94.28L440.063 92.1325L438.884 90.28H436.688V94.28ZM437.728 96.68L441.542 95.4755L441.542 95.4755L437.728 96.68ZM436.768 104.36L434.022 101.452L433.98 101.491L433.94 101.532L436.768 104.36ZM424.288 105.72V101.72H420.288V105.72H424.288ZM424.288 142.68L425.341 146.539L428.288 145.735V142.68H424.288ZM421.488 143.16L420.992 139.191L420.981 139.192L420.971 139.194L421.488 143.16ZM414.528 143.08L415.396 139.175L415.31 139.156L415.223 139.141L414.528 143.08ZM412.208 142.12L414.608 138.92L412.208 142.12ZM410.768 140.12L407.023 141.524L407.023 141.524L410.768 140.12ZM410.288 105.72H414.288V101.72H410.288V105.72ZM401.663 103.572C401.547 103.391 401.327 102.952 401.062 102.115L393.434 104.525C393.81 105.715 394.282 106.876 394.913 107.867L401.663 103.572ZM401.062 102.115C400.872 101.512 400.768 100.854 400.768 100.12H392.768C392.768 101.626 392.984 103.101 393.434 104.525L401.062 102.115ZM400.768 100.12C400.768 99.3514 400.854 98.8704 400.936 98.6019C401.012 98.3492 401.059 98.3662 400.957 98.4684L395.3 92.8116C393.291 94.8204 392.768 97.6106 392.768 100.12H400.768ZM400.875 98.5481C400.993 98.4359 401.192 98.28 401.808 98.28V90.28C399.438 90.28 397.183 91.0307 395.382 92.7319L400.875 98.5481ZM401.808 98.28H436.688V90.28H401.808V98.28ZM433.313 96.4275C433.429 96.609 433.65 97.0481 433.914 97.8845L441.542 95.4755C441.167 94.2852 440.694 93.1243 440.063 92.1325L433.313 96.4275ZM433.914 97.8845C434.104 98.4876 434.208 99.1465 434.208 99.88H442.208C442.208 98.3735 441.992 96.899 441.542 95.4755L433.914 97.8845ZM434.208 99.88C434.208 100.631 434.119 101.09 434.04 101.336C433.968 101.561 433.927 101.541 434.022 101.452L439.515 107.268C441.634 105.266 442.208 102.442 442.208 99.88H434.208ZM433.94 101.532C433.907 101.564 433.789 101.72 433.168 101.72V109.72C435.534 109.72 437.816 108.969 439.597 107.188L433.94 101.532ZM433.168 101.72H424.288V109.72H433.168V101.72ZM420.288 105.72V142.68H428.288V105.72H420.288ZM423.236 138.821C422.94 138.902 422.244 139.034 420.992 139.191L421.984 147.129C423.292 146.966 424.463 146.778 425.341 146.539L423.236 138.821ZM420.971 139.194C419.914 139.331 418.86 139.4 417.808 139.4V147.4C419.209 147.4 420.609 147.309 422.005 147.126L420.971 139.194ZM417.808 139.4C416.805 139.4 416.011 139.312 415.396 139.175L413.66 146.985C414.965 147.275 416.358 147.4 417.808 147.4V139.4ZM415.223 139.141C414.841 139.073 414.675 138.97 414.608 138.92L409.808 145.32C411.021 146.23 412.401 146.767 413.833 147.019L415.223 139.141ZM414.608 138.92C414.621 138.93 414.624 138.936 414.614 138.923C414.602 138.906 414.562 138.846 414.513 138.716L407.023 141.524C407.572 142.99 408.476 144.321 409.808 145.32L414.608 138.92ZM414.513 138.716C414.426 138.482 414.288 137.891 414.288 136.76H406.288C406.288 138.402 406.47 140.052 407.023 141.524L414.513 138.716ZM414.288 136.76V105.72H406.288V136.76H414.288ZM410.288 101.72H398.288V109.72H410.288V101.72Z" fill="white"/>
</g>
<g filter="url(#filter1_d)">
<path d="M44.64 59.68C44.0533 59.84 43.1467 60 41.92 60.16C40.6933 60.32 39.4933 60.4 38.32 60.4C35.8667 60.4 34.0267 60 32.8 59.2C31.5733 58.3467 30.96 56.5867 30.96 53.92V43.12C29.6267 41.1467 28.1867 38.96 26.64 36.56C25.0933 34.16 23.5733 31.7067 22.08 29.2C20.5867 26.6933 19.2 24.24 17.92 21.84C16.64 19.3867 15.6 17.1467 14.8 15.12C15.4933 14.16 16.4267 13.28 17.6 12.48C18.8267 11.68 20.32 11.28 22.08 11.28C24.16 11.28 25.84 11.7067 27.12 12.56C28.4533 13.4133 29.7067 15.0133 30.88 17.36L37.52 30.72H38C38.7467 29.0667 39.3867 27.5733 39.92 26.24C40.5067 24.8533 41.0667 23.4933 41.6 22.16C42.1333 20.7733 42.6933 19.36 43.28 17.92C43.8667 16.4267 44.5333 14.72 45.28 12.8C46.24 12.32 47.3067 11.9467 48.48 11.68C49.6533 11.4133 50.7733 11.28 51.84 11.28C53.7067 11.28 55.28 11.7867 56.56 12.8C57.8933 13.76 58.56 15.2267 58.56 17.2C58.56 17.84 58.4267 18.6133 58.16 19.52C57.8933 20.4267 57.28 21.8133 56.32 23.68C55.36 25.4933 53.9467 27.9733 52.08 31.12C50.2667 34.2667 47.7867 38.3733 44.64 43.44V59.68ZM61.5656 35.68C61.5656 31.52 62.2056 27.84 63.4856 24.64C64.819 21.44 66.6056 18.7733 68.8456 16.64C71.139 14.4533 73.8056 12.8 76.8456 11.68C79.939 10.56 83.2723 10 86.8456 10C90.419 10 93.7256 10.56 96.7656 11.68C99.859 12.8 102.552 14.4533 104.846 16.64C107.139 18.7733 108.926 21.44 110.206 24.64C111.539 27.84 112.206 31.52 112.206 35.68C112.206 39.84 111.566 43.5467 110.286 46.8C109.006 50 107.219 52.6933 104.926 54.88C102.686 57.0133 100.019 58.64 96.9256 59.76C93.8323 60.88 90.4723 61.44 86.8456 61.44C83.219 61.44 79.859 60.88 76.7656 59.76C73.6723 58.5867 71.0056 56.9067 68.7656 54.72C66.5256 52.5333 64.7656 49.84 63.4856 46.64C62.2056 43.44 61.5656 39.7867 61.5656 35.68ZM75.9656 35.68C75.9656 40.5333 76.9523 44.16 78.9256 46.56C80.899 48.96 83.539 50.16 86.8456 50.16C90.2056 50.16 92.8723 48.96 94.8456 46.56C96.819 44.16 97.8056 40.5333 97.8056 35.68C97.8056 30.88 96.819 27.28 94.8456 24.88C92.9256 22.48 90.2856 21.28 86.9256 21.28C83.619 21.28 80.9523 22.48 78.9256 24.88C76.9523 27.2267 75.9656 30.8267 75.9656 35.68ZM163.176 42.08C163.176 44.96 162.669 47.6 161.656 50C160.696 52.3467 159.282 54.3733 157.416 56.08C155.549 57.7333 153.282 59.0133 150.616 59.92C147.949 60.8267 144.936 61.28 141.576 61.28C138.216 61.28 135.202 60.8267 132.536 59.92C129.869 59.0133 127.602 57.7333 125.736 56.08C123.869 54.3733 122.429 52.3467 121.416 50C120.456 47.6 119.976 44.96 119.976 42.08V11.52C120.562 11.4133 121.496 11.28 122.776 11.12C124.056 10.9067 125.282 10.8 126.456 10.8C127.682 10.8 128.749 10.9067 129.656 11.12C130.616 11.28 131.416 11.6 132.056 12.08C132.696 12.56 133.176 13.2267 133.496 14.08C133.816 14.9333 133.976 16.0533 133.976 17.44V41.84C133.976 44.4 134.669 46.4 136.056 47.84C137.496 49.28 139.336 50 141.576 50C143.869 50 145.709 49.28 147.096 47.84C148.482 46.4 149.176 44.4 149.176 41.84V11.52C149.762 11.4133 150.696 11.28 151.976 11.12C153.256 10.9067 154.482 10.8 155.656 10.8C156.882 10.8 157.949 10.9067 158.856 11.12C159.816 11.28 160.616 11.6 161.256 12.08C161.896 12.56 162.376 13.2267 162.696 14.08C163.016 14.9333 163.176 16.0533 163.176 17.44V42.08ZM187.261 44.32V59.68C186.674 59.84 185.741 60 184.461 60.16C183.234 60.32 182.007 60.4 180.781 60.4C179.554 60.4 178.461 60.2933 177.501 60.08C176.594 59.92 175.821 59.6 175.181 59.12C174.594 58.64 174.141 57.9733 173.821 57.12C173.501 56.2667 173.341 55.1467 173.341 53.76V16.08C173.341 14.96 173.634 14.1067 174.221 13.52C174.861 12.88 175.714 12.3733 176.781 12C178.594 11.36 180.701 10.9067 183.101 10.64C185.501 10.32 188.061 10.16 190.781 10.16C198.141 10.16 203.687 11.7067 207.421 14.8C211.154 17.8933 213.021 22.08 213.021 27.36C213.021 30.6667 212.167 33.4933 210.461 35.84C208.754 38.1867 206.727 40 204.381 41.28C206.301 43.8933 208.194 46.3467 210.061 48.64C211.927 50.9333 213.394 53.0133 214.461 54.88C213.927 56.7467 212.941 58.1867 211.501 59.2C210.114 60.16 208.541 60.64 206.781 60.64C205.607 60.64 204.594 60.5067 203.741 60.24C202.887 59.9733 202.141 59.6 201.501 59.12C200.861 58.64 200.274 58.0533 199.741 57.36C199.207 56.6667 198.701 55.92 198.221 55.12L191.501 44.32H187.261ZM192.301 33.68C194.327 33.68 195.927 33.1733 197.101 32.16C198.274 31.0933 198.861 29.5467 198.861 27.52C198.861 25.4933 198.194 23.9733 196.861 22.96C195.581 21.8933 193.527 21.36 190.701 21.36C189.901 21.36 189.261 21.3867 188.781 21.44C188.301 21.4933 187.767 21.5733 187.181 21.68V33.68H192.301Z" fill="#A5736E"/>
<path d="M44.64 59.68L45.6925 63.5391L48.64 62.7352V59.68H44.64ZM41.92 60.16L41.4026 56.1936L41.92 60.16ZM32.8 59.2L30.5157 62.4836L30.5648 62.5178L30.6149 62.5504L32.8 59.2ZM30.96 43.12H34.96V41.8953L34.2744 40.8806L30.96 43.12ZM26.64 36.56L23.2777 38.7268L23.2777 38.7268L26.64 36.56ZM22.08 29.2L18.6436 31.2472L18.6436 31.2472L22.08 29.2ZM17.92 21.84L14.3737 23.6903L14.3821 23.7063L14.3906 23.7224L17.92 21.84ZM14.8 15.12L11.5573 12.778L10.2757 14.5526L11.0794 16.5887L14.8 15.12ZM17.6 12.48L15.4149 9.12955L15.3806 9.15197L15.3467 9.17509L17.6 12.48ZM27.12 12.56L24.9012 15.8882L24.9323 15.9089L24.9638 15.9291L27.12 12.56ZM30.88 17.36L34.462 15.5797L34.4577 15.5711L30.88 17.36ZM37.52 30.72L33.938 32.5003L35.0412 34.72H37.52V30.72ZM38 30.72V34.72H40.5825L41.6455 32.3663L38 30.72ZM39.92 26.24L36.2361 24.6814L36.2208 24.7178L36.2061 24.7544L39.92 26.24ZM41.6 22.16L45.3139 23.6456L45.3238 23.6208L45.3334 23.5959L41.6 22.16ZM43.28 17.92L46.9844 19.4292L46.9938 19.406L47.003 19.3826L43.28 17.92ZM45.28 12.8L43.4911 9.22229L42.1112 9.91227L41.552 11.3502L45.28 12.8ZM48.48 11.68L49.3665 15.5805L49.3665 15.5805L48.48 11.68ZM56.56 12.8L54.0772 15.9362L54.1487 15.9928L54.2228 16.0461L56.56 12.8ZM58.16 19.52L54.3225 18.3913L54.3225 18.3913L58.16 19.52ZM56.32 23.68L59.8552 25.5515L59.8663 25.5305L59.8772 25.5094L56.32 23.68ZM52.08 31.12L48.6398 29.0792L48.6269 29.1009L48.6143 29.1228L52.08 31.12ZM44.64 43.44L41.242 41.3297L40.64 42.299V43.44H44.64ZM43.5875 55.8209C43.2763 55.9058 42.5933 56.0383 41.4026 56.1936L42.4374 64.1264C43.7001 63.9617 44.8304 63.7742 45.6925 63.5391L43.5875 55.8209ZM41.4026 56.1936C40.3383 56.3324 39.3113 56.4 38.32 56.4V64.4C39.6754 64.4 41.0484 64.3076 42.4374 64.1264L41.4026 56.1936ZM38.32 56.4C36.1738 56.4 35.257 56.0269 34.9851 55.8496L30.6149 62.5504C32.7963 63.9731 35.5595 64.4 38.32 64.4V56.4ZM35.0843 55.9164C35.3189 56.0796 35.2957 56.2062 35.1972 55.9237C35.0867 55.6065 34.96 54.9817 34.96 53.92H26.96C26.96 56.8968 27.5955 60.4522 30.5157 62.4836L35.0843 55.9164ZM34.96 53.92V43.12H26.96V53.92H34.96ZM34.2744 40.8806C32.9601 38.9354 31.5362 36.7734 30.0023 34.3932L23.2777 38.7268C24.8371 41.1466 26.2933 43.3579 27.6456 45.3594L34.2744 40.8806ZM30.0023 34.3932C28.4816 32.0335 26.9863 29.62 25.5164 27.1528L18.6436 31.2472C20.1604 33.7933 21.7051 36.2865 23.2777 38.7268L30.0023 34.3932ZM25.5164 27.1528C24.0531 24.6965 22.6977 22.2981 21.4494 19.9576L14.3906 23.7224C15.7023 26.1819 17.1203 28.6902 18.6436 31.2472L25.5164 27.1528ZM21.4663 19.9897C20.2347 17.6291 19.2577 15.5187 18.5206 13.6513L11.0794 16.5887C11.9423 18.7747 13.0453 21.1442 14.3737 23.6903L21.4663 19.9897ZM18.0427 17.462C18.4165 16.9444 18.9889 16.3743 19.8533 15.7849L15.3467 9.17509C13.8644 10.1857 12.5701 11.3756 11.5573 12.778L18.0427 17.462ZM19.7851 15.8304C20.2407 15.5333 20.9375 15.28 22.08 15.28V7.28C19.7025 7.28 17.4126 7.8267 15.4149 9.12955L19.7851 15.8304ZM22.08 15.28C23.6415 15.28 24.4725 15.6024 24.9012 15.8882L29.3388 9.23179C27.2075 7.81094 24.6785 7.28 22.08 7.28V15.28ZM24.9638 15.9291C25.4117 16.2157 26.2625 17.0693 27.3023 19.1489L34.4577 15.5711C33.1508 12.9573 31.495 10.6109 29.2762 9.19091L24.9638 15.9291ZM27.298 19.1403L33.938 32.5003L41.102 28.9397L34.462 15.5797L27.298 19.1403ZM37.52 34.72H38V26.72H37.52V34.72ZM41.6455 32.3663C42.4102 30.673 43.0742 29.1248 43.6339 27.7256L36.2061 24.7544C35.6991 26.0218 35.0831 27.4603 34.3545 29.0737L41.6455 32.3663ZM43.6039 27.7986C44.2003 26.3888 44.7703 25.0045 45.3139 23.6456L37.8861 20.6744C37.363 21.9822 36.813 23.3178 36.2361 24.6814L43.6039 27.7986ZM45.3334 23.5959C45.8569 22.2349 46.4072 20.846 46.9844 19.4292L39.5756 16.4108C38.9795 17.874 38.4098 19.3118 37.8666 20.7241L45.3334 23.5959ZM47.003 19.3826C47.5917 17.884 48.2601 16.1729 49.008 14.2498L41.552 11.3502C40.8065 13.2671 40.1416 14.9693 39.557 16.4574L47.003 19.3826ZM47.0689 16.3777C47.7099 16.0572 48.4687 15.7846 49.3665 15.5805L47.5935 7.77947C46.1447 8.10875 44.7701 8.58283 43.4911 9.22229L47.0689 16.3777ZM49.3665 15.5805C50.2854 15.3717 51.1068 15.28 51.84 15.28V7.28C50.4399 7.28 49.0213 7.45497 47.5935 7.77947L49.3665 15.5805ZM51.84 15.28C52.9412 15.28 53.6034 15.5611 54.0772 15.9362L59.0428 9.66381C56.9566 8.01221 54.4722 7.28 51.84 7.28V15.28ZM54.2228 16.0461C54.3352 16.1271 54.3797 16.1899 54.4185 16.2752C54.4687 16.3855 54.56 16.6589 54.56 17.2H62.56C62.56 14.2331 61.4915 11.4217 58.8972 9.55386L54.2228 16.0461ZM54.56 17.2C54.56 17.323 54.5276 17.6942 54.3225 18.3913L61.9975 20.6487C62.3258 19.5325 62.56 18.357 62.56 17.2H54.56ZM54.3225 18.3913C54.171 18.9066 53.7122 20.0047 52.7629 21.8506L59.8772 25.5094C60.8478 23.6219 61.6157 21.9468 61.9975 20.6487L54.3225 18.3913ZM52.7849 21.8084C51.8698 23.5369 50.4946 25.9524 48.6398 29.0792L55.5202 33.1608C57.3987 29.9942 58.8502 27.4497 59.8552 25.5515L52.7849 21.8084ZM48.6143 29.1228C46.8323 32.2151 44.3781 36.28 41.242 41.3297L48.038 45.5503C51.1952 40.4667 53.7011 36.3182 55.5457 33.1172L48.6143 29.1228ZM40.64 43.44V59.68H48.64V43.44H40.64ZM63.4856 24.64L59.7933 23.1015L59.7823 23.1279L59.7717 23.1544L63.4856 24.64ZM68.8456 16.64L71.6042 19.5365L71.6059 19.5349L68.8456 16.64ZM76.8456 11.68L75.4839 7.91893L75.4733 7.92275L75.4628 7.92663L76.8456 11.68ZM96.7656 11.68L95.3828 15.4334L95.3933 15.4372L95.4039 15.4411L96.7656 11.68ZM104.846 16.64L102.085 19.5349L102.103 19.552L102.121 19.5687L104.846 16.64ZM110.206 24.64L106.492 26.1256L106.502 26.1521L106.513 26.1785L110.206 24.64ZM110.286 46.8L114 48.2856L114.004 48.275L114.008 48.2645L110.286 46.8ZM104.926 54.88L107.684 57.7766L107.686 57.7749L104.926 54.88ZM96.9256 59.76L95.5639 55.9989L96.9256 59.76ZM76.7656 59.76L75.347 63.5L75.3754 63.5107L75.4039 63.5211L76.7656 59.76ZM68.7656 54.72L65.9715 57.5823L65.9715 57.5823L68.7656 54.72ZM63.4856 46.64L67.1995 45.1544L67.1995 45.1544L63.4856 46.64ZM78.9256 46.56L82.0153 44.0196L82.0153 44.0196L78.9256 46.56ZM94.8456 46.56L91.7559 44.0196L91.7559 44.0196L94.8456 46.56ZM94.8456 24.88L91.7222 27.3788L91.7389 27.3997L91.7559 27.4204L94.8456 24.88ZM78.9256 24.88L75.8695 22.2993L75.8642 22.3056L78.9256 24.88ZM65.5656 35.68C65.5656 31.9262 66.1432 28.7663 67.1995 26.1256L59.7717 23.1544C58.268 26.9137 57.5656 31.1138 57.5656 35.68H65.5656ZM67.1779 26.1785C68.3235 23.4291 69.8123 21.2432 71.6042 19.5365L66.087 13.7434C63.3989 16.3035 61.3144 19.4509 59.7933 23.1015L67.1779 26.1785ZM71.6059 19.5349C73.4946 17.7341 75.6896 16.3687 78.2284 15.4334L75.4628 7.92663C71.9216 9.23128 68.7833 11.1725 66.0853 13.745L71.6059 19.5349ZM78.2074 15.4411C80.828 14.4922 83.6966 14 86.8456 14V6C82.848 6 79.0499 6.62777 75.4839 7.91893L78.2074 15.4411ZM86.8456 14C89.9955 14 92.8289 14.4925 95.3828 15.4334L98.1484 7.92662C94.6224 6.62754 90.8424 6 86.8456 6V14ZM95.4039 15.4411C97.9964 16.3797 100.209 17.7454 102.085 19.5349L107.606 13.745C104.896 11.1612 101.721 9.22025 98.1274 7.91893L95.4039 15.4411ZM102.121 19.5687C103.94 21.261 105.409 23.4181 106.492 26.1256L113.92 23.1544C112.443 19.4619 110.338 16.2856 107.57 13.7112L102.121 19.5687ZM106.513 26.1785C107.607 28.8039 108.206 31.9447 108.206 35.68H116.206C116.206 31.0953 115.471 26.8761 113.898 23.1015L106.513 26.1785ZM108.206 35.68C108.206 39.4319 107.629 42.6281 106.563 45.3355L114.008 48.2645C115.503 44.4652 116.206 40.2481 116.206 35.68H108.206ZM106.572 45.3144C105.486 48.029 104.008 50.228 102.165 51.9851L107.686 57.7749C110.43 55.1586 112.525 51.971 114 48.2856L106.572 45.3144ZM102.167 51.9834C100.353 53.7112 98.1704 55.0552 95.5639 55.9989L98.2874 63.5211C101.868 62.2248 105.018 60.3155 107.684 57.7766L102.167 51.9834ZM95.5639 55.9989C92.9496 56.9455 90.0553 57.44 86.8456 57.44V65.44C90.8893 65.44 94.715 64.8145 98.2874 63.5211L95.5639 55.9989ZM86.8456 57.44C83.6359 57.44 80.7417 56.9455 78.1274 55.9989L75.4039 63.5211C78.9762 64.8145 82.802 65.44 86.8456 65.44V57.44ZM78.1842 56.02C75.5751 55.0303 73.3843 53.6388 71.5598 51.8577L65.9715 57.5823C68.627 60.1746 71.7695 62.143 75.347 63.5L78.1842 56.02ZM71.5598 51.8577C69.7577 50.0986 68.2934 47.8891 67.1995 45.1544L59.7717 48.1256C61.2379 51.7909 63.2935 54.9681 65.9715 57.5823L71.5598 51.8577ZM67.1995 45.1544C66.141 42.5081 65.5656 39.3732 65.5656 35.68H57.5656C57.5656 40.2001 58.2703 44.3719 59.7717 48.1256L67.1995 45.1544ZM71.9656 35.68C71.9656 40.9674 73.023 45.6793 75.8359 49.1004L82.0153 44.0196C80.8816 42.6407 79.9656 40.0992 79.9656 35.68H71.9656ZM75.8359 49.1004C78.6233 52.4904 82.4307 54.16 86.8456 54.16V46.16C84.6473 46.16 83.1746 45.4296 82.0153 44.0196L75.8359 49.1004ZM86.8456 54.16C91.2909 54.16 95.1343 52.507 97.9353 49.1004L91.7559 44.0196C90.6102 45.413 89.1204 46.16 86.8456 46.16V54.16ZM97.9353 49.1004C100.748 45.6793 101.806 40.9674 101.806 35.68H93.8056C93.8056 40.0992 92.8896 42.6407 91.7559 44.0196L97.9353 49.1004ZM101.806 35.68C101.806 30.433 100.743 25.7543 97.9353 22.3396L91.7559 27.4204C92.8949 28.8057 93.8056 31.327 93.8056 35.68H101.806ZM97.9691 22.3812C95.2127 18.9357 91.3713 17.28 86.9256 17.28V25.28C89.1999 25.28 90.6386 26.0243 91.7222 27.3788L97.9691 22.3812ZM86.9256 17.28C82.5119 17.28 78.7008 18.9464 75.8695 22.2993L81.9817 27.4607C83.2038 26.0136 84.726 25.28 86.9256 25.28V17.28ZM75.8642 22.3056C73.0188 25.6893 71.9656 30.4027 71.9656 35.68H79.9656C79.9656 31.2506 80.8858 28.7641 81.9871 27.4544L75.8642 22.3056ZM161.656 50L157.971 48.4441L157.962 48.4647L157.953 48.4855L161.656 50ZM157.416 56.08L160.068 59.0744L160.091 59.0534L160.115 59.0321L157.416 56.08ZM150.616 59.92L151.903 63.7071L150.616 59.92ZM132.536 59.92L131.248 63.7071L131.248 63.7071L132.536 59.92ZM125.736 56.08L123.037 59.0321L123.06 59.0534L123.083 59.0744L125.736 56.08ZM121.416 50L117.702 51.4856L117.722 51.5359L117.743 51.5857L121.416 50ZM119.976 11.52L119.26 7.58452L115.976 8.1817V11.52H119.976ZM122.776 11.12L123.272 15.0891L123.353 15.079L123.433 15.0656L122.776 11.12ZM129.656 11.12L128.739 15.0137L128.868 15.0439L128.998 15.0656L129.656 11.12ZM132.056 12.08L134.456 8.88L134.456 8.88L132.056 12.08ZM133.496 14.08L129.75 15.4845L129.75 15.4845L133.496 14.08ZM136.056 47.84L133.174 50.6146L133.201 50.6417L133.227 50.6684L136.056 47.84ZM147.096 47.84L144.214 45.0654L144.214 45.0654L147.096 47.84ZM149.176 11.52L148.46 7.58452L145.176 8.1817V11.52H149.176ZM151.976 11.12L152.472 15.0891L152.553 15.079L152.633 15.0656L151.976 11.12ZM158.856 11.12L157.939 15.0137L158.068 15.0439L158.198 15.0656L158.856 11.12ZM161.256 12.08L158.856 15.28L158.856 15.28L161.256 12.08ZM162.696 14.08L158.95 15.4845L158.95 15.4845L162.696 14.08ZM159.176 42.08C159.176 44.4821 158.755 46.5861 157.971 48.4441L165.341 51.5559C166.583 48.6139 167.176 45.4379 167.176 42.08H159.176ZM157.953 48.4855C157.217 50.2861 156.146 51.8214 154.717 53.1279L160.115 59.0321C162.419 56.9253 164.174 54.4073 165.358 51.5145L157.953 48.4855ZM154.763 53.0856C153.343 54.3439 151.557 55.3752 149.328 56.1329L151.903 63.7071C155.008 62.6515 157.755 61.1227 160.068 59.0744L154.763 53.0856ZM149.328 56.1329C147.147 56.8744 144.58 57.28 141.576 57.28V65.28C145.291 65.28 148.751 64.7789 151.903 63.7071L149.328 56.1329ZM141.576 57.28C138.572 57.28 136.004 56.8744 133.823 56.1329L131.248 63.7071C134.401 64.7789 137.86 65.28 141.576 65.28V57.28ZM133.823 56.1329C131.595 55.3752 129.808 54.3439 128.388 53.0856L123.083 59.0744C125.396 61.1227 128.143 62.6515 131.248 63.7071L133.823 56.1329ZM128.435 53.1279C126.99 51.8069 125.879 50.2475 125.088 48.4143L117.743 51.5857C118.978 54.4458 120.748 56.9397 123.037 59.0321L128.435 53.1279ZM125.13 48.5144C124.379 46.6379 123.976 44.5091 123.976 42.08H115.976C115.976 45.4109 116.532 48.5621 117.702 51.4856L125.13 48.5144ZM123.976 42.08V11.52H115.976V42.08H123.976ZM120.691 15.4555C121.161 15.37 122.001 15.2479 123.272 15.0891L122.279 7.15089C120.99 7.31207 119.963 7.45666 119.26 7.58452L120.691 15.4555ZM123.433 15.0656C124.518 14.8847 125.524 14.8 126.456 14.8V6.8C125.04 6.8 123.593 6.92863 122.118 7.17442L123.433 15.0656ZM126.456 14.8C127.465 14.8 128.21 14.8892 128.739 15.0137L130.572 7.22633C129.288 6.92416 127.9 6.8 126.456 6.8V14.8ZM128.998 15.0656C129.461 15.1428 129.628 15.2591 129.656 15.28L134.456 8.88C133.203 7.94086 131.77 7.41723 130.313 7.17442L128.998 15.0656ZM129.656 15.28C129.643 15.2704 129.64 15.2637 129.649 15.2772C129.661 15.2937 129.701 15.3537 129.75 15.4845L137.241 12.6755C136.691 11.2097 135.788 9.87922 134.456 8.88L129.656 15.28ZM129.75 15.4845C129.838 15.7182 129.976 16.3088 129.976 17.44H137.976C137.976 15.7978 137.793 14.1485 137.241 12.6755L129.75 15.4845ZM129.976 17.44V41.84H137.976V17.44H129.976ZM129.976 41.84C129.976 45.1323 130.884 48.2366 133.174 50.6146L138.937 45.0654C138.453 44.5634 137.976 43.6677 137.976 41.84H129.976ZM133.227 50.6684C135.496 52.9371 138.391 54 141.576 54V46C140.28 46 139.495 45.6229 138.884 45.0116L133.227 50.6684ZM141.576 54C144.781 54 147.723 52.9551 149.977 50.6146L144.214 45.0654C143.695 45.6049 142.957 46 141.576 46V54ZM149.977 50.6146C152.267 48.2366 153.176 45.1323 153.176 41.84H145.176C145.176 43.6677 144.698 44.5634 144.214 45.0654L149.977 50.6146ZM153.176 41.84V11.52H145.176V41.84H153.176ZM149.891 15.4555C150.361 15.37 151.201 15.2479 152.472 15.0891L151.479 7.15089C150.19 7.31207 149.163 7.45666 148.46 7.58452L149.891 15.4555ZM152.633 15.0656C153.718 14.8847 154.724 14.8 155.656 14.8V6.8C154.24 6.8 152.793 6.92863 151.318 7.17442L152.633 15.0656ZM155.656 14.8C156.665 14.8 157.41 14.8892 157.939 15.0137L159.772 7.22633C158.488 6.92416 157.1 6.8 155.656 6.8V14.8ZM158.198 15.0656C158.661 15.1428 158.828 15.2591 158.856 15.28L163.656 8.88C162.403 7.94087 160.97 7.41723 159.513 7.17442L158.198 15.0656ZM158.856 15.28C158.843 15.2704 158.84 15.2637 158.849 15.2772C158.861 15.2937 158.901 15.3537 158.95 15.4845L166.441 12.6755C165.891 11.2097 164.988 9.87921 163.656 8.88L158.856 15.28ZM158.95 15.4845C159.038 15.7182 159.176 16.3088 159.176 17.44H167.176C167.176 15.7978 166.993 14.1485 166.441 12.6755L158.95 15.4845ZM159.176 17.44V42.08H167.176V17.44H159.176ZM187.261 44.32V40.32H183.261V44.32H187.261ZM187.261 59.68L188.313 63.5391L191.261 62.7352V59.68H187.261ZM184.461 60.16L183.964 56.1909L183.954 56.1922L183.943 56.1936L184.461 60.16ZM177.501 60.08L178.368 56.1753L178.282 56.1562L178.196 56.1409L177.501 60.08ZM175.181 59.12L172.648 62.2158L172.713 62.2693L172.781 62.32L175.181 59.12ZM173.821 57.12L170.075 58.5245L170.075 58.5245L173.821 57.12ZM174.221 13.52L177.049 16.3484L177.049 16.3484L174.221 13.52ZM176.781 12L178.102 15.7754L178.112 15.772L176.781 12ZM183.101 10.64L183.542 14.6155L183.586 14.6107L183.629 14.6049L183.101 10.64ZM207.421 14.8L204.869 17.8801L204.869 17.8801L207.421 14.8ZM210.461 35.84L213.696 38.1927L213.696 38.1927L210.461 35.84ZM204.381 41.28L202.465 37.7684L198.447 39.96L201.157 43.6483L204.381 41.28ZM210.061 48.64L213.163 46.1149L213.163 46.1149L210.061 48.64ZM214.461 54.88L218.307 55.9789L218.77 54.3586L217.934 52.8954L214.461 54.88ZM211.501 59.2L213.777 62.4888L213.79 62.48L213.803 62.4712L211.501 59.2ZM203.741 60.24L204.934 56.4221L203.741 60.24ZM201.501 59.12L203.901 55.92L203.901 55.92L201.501 59.12ZM199.741 57.36L196.57 59.7988L196.57 59.7988L199.741 57.36ZM198.221 55.12L201.651 53.062L201.634 53.0343L201.617 53.0068L198.221 55.12ZM191.501 44.32L194.897 42.2068L193.723 40.32H191.501V44.32ZM197.101 32.16L199.715 35.1873L199.754 35.154L199.791 35.1198L197.101 32.16ZM196.861 22.96L194.3 26.0329L194.369 26.0903L194.44 26.1446L196.861 22.96ZM187.181 21.68L186.465 17.7445L183.181 18.3417V21.68H187.181ZM187.181 33.68H183.181V37.68H187.181V33.68ZM183.261 44.32V59.68H191.261V44.32H183.261ZM186.208 55.8209C185.912 55.9017 185.216 56.0344 183.964 56.1909L184.957 64.1291C186.265 63.9656 187.436 63.7783 188.313 63.5391L186.208 55.8209ZM183.943 56.1936C182.887 56.3314 181.833 56.4 180.781 56.4V64.4C182.182 64.4 183.581 64.3086 184.978 64.1264L183.943 56.1936ZM180.781 56.4C179.777 56.4 178.984 56.312 178.368 56.1753L176.633 63.9847C177.938 64.2747 179.33 64.4 180.781 64.4V56.4ZM178.196 56.1409C177.814 56.0735 177.647 55.97 177.581 55.92L172.781 62.32C173.994 63.23 175.374 63.7665 176.805 64.0191L178.196 56.1409ZM177.714 56.0242C177.736 56.0427 177.733 56.0463 177.708 56.0108C177.682 55.9722 177.628 55.8822 177.566 55.7155L170.075 58.5245C170.593 59.9049 171.414 61.2063 172.648 62.2158L177.714 56.0242ZM177.566 55.7155C177.478 55.4818 177.341 54.8912 177.341 53.76H169.341C169.341 55.4022 169.523 57.0515 170.075 58.5245L177.566 55.7155ZM177.341 53.76V16.08H169.341V53.76H177.341ZM177.341 16.08C177.341 15.86 177.37 15.8216 177.343 15.9003C177.329 15.9426 177.3 16.0117 177.249 16.0958C177.197 16.181 177.13 16.2677 177.049 16.3484L171.392 10.6916C169.823 12.261 169.341 14.281 169.341 16.08H177.341ZM177.049 16.3484C177.172 16.2254 177.465 15.9984 178.102 15.7754L175.459 8.22456C173.963 8.74828 172.549 9.53455 171.392 10.6916L177.049 16.3484ZM178.112 15.772C179.575 15.2555 181.372 14.8567 183.542 14.6155L182.659 6.66446C180.029 6.95668 177.613 7.46453 175.449 8.22804L178.112 15.772ZM183.629 14.6049C185.834 14.3109 188.216 14.16 190.781 14.16V6.16C187.905 6.16 185.167 6.32907 182.572 6.67508L183.629 14.6049ZM190.781 14.16C197.671 14.16 202.142 15.6213 204.869 17.8801L209.973 11.7199C205.232 7.79201 198.61 6.16 190.781 6.16V14.16ZM204.869 17.8801C207.596 20.1398 209.021 23.1505 209.021 27.36H217.021C217.021 21.0095 214.712 15.6469 209.973 11.7199L204.869 17.8801ZM209.021 27.36C209.021 29.9441 208.367 31.9174 207.226 33.4873L213.696 38.1927C215.967 35.0693 217.021 31.3892 217.021 27.36H209.021ZM207.226 33.4873C205.837 35.3963 204.248 36.7959 202.465 37.7684L206.296 44.7916C209.206 43.2041 211.671 40.977 213.696 38.1927L207.226 33.4873ZM201.157 43.6483C203.113 46.3099 205.046 48.8159 206.958 51.1651L213.163 46.1149C211.342 43.8774 209.489 41.4768 207.604 38.9117L201.157 43.6483ZM206.958 51.1651C208.734 53.3469 210.061 55.2435 210.988 56.8646L217.934 52.8954C216.727 50.7832 215.12 48.5198 213.163 46.1149L206.958 51.1651ZM210.615 53.7811C210.305 54.8644 209.813 55.4965 209.199 55.9288L213.803 62.4712C216.068 60.8769 217.55 58.6289 218.307 55.9789L210.615 53.7811ZM209.224 55.9112C208.536 56.3872 207.765 56.64 206.781 56.64V64.64C209.317 64.64 211.692 63.9328 213.777 62.4888L209.224 55.9112ZM206.781 56.64C205.893 56.64 205.302 56.5371 204.934 56.4221L202.548 64.0579C203.886 64.4762 205.321 64.64 206.781 64.64V56.64ZM204.934 56.4221C204.464 56.2754 204.136 56.0967 203.901 55.92L199.101 62.32C200.145 63.1033 201.31 63.6713 202.548 64.0579L204.934 56.4221ZM203.901 55.92C203.576 55.6769 203.244 55.3536 202.911 54.9212L196.57 59.7988C197.304 60.7531 198.145 61.6031 199.101 62.32L203.901 55.92ZM202.911 54.9212C202.477 54.3574 202.057 53.7388 201.651 53.062L194.791 57.178C195.345 58.1012 195.937 58.9759 196.57 59.7988L202.911 54.9212ZM201.617 53.0068L194.897 42.2068L188.104 46.4332L194.824 57.2332L201.617 53.0068ZM191.501 40.32H187.261V48.32H191.501V40.32ZM192.301 37.68C194.987 37.68 197.616 36.9999 199.715 35.1873L194.486 29.1327C194.238 29.3468 193.668 29.68 192.301 29.68V37.68ZM199.791 35.1198C202.017 33.0964 202.861 30.34 202.861 27.52H194.861C194.861 28.7533 194.531 29.0903 194.41 29.2002L199.791 35.1198ZM202.861 27.52C202.861 24.5371 201.822 21.7067 199.281 19.7753L194.44 26.1446C194.566 26.2399 194.861 26.4496 194.861 27.52H202.861ZM199.421 19.8871C197.069 17.9269 193.867 17.36 190.701 17.36V25.36C193.188 25.36 194.092 25.8598 194.3 26.0329L199.421 19.8871ZM190.701 17.36C189.835 17.36 189.029 17.3878 188.339 17.4645L189.222 25.4155C189.492 25.3856 189.966 25.36 190.701 25.36V17.36ZM188.339 17.4645C187.749 17.53 187.122 17.625 186.465 17.7445L187.896 25.6155C188.412 25.5217 188.852 25.4566 189.222 25.4155L188.339 17.4645ZM183.181 21.68V33.68H191.181V21.68H183.181ZM187.181 37.68H192.301V29.68H187.181V37.68Z" fill="white"/>
</g>
<defs>
<filter id="filter0_d" x="2.79999" y="83" width="449.408" height="79.44" filterUnits="userSpaceOnUse" color-interpolation-filters="sRGB">
<feFlood flood-opacity="0" result="BackgroundImageFix"/>
<feColorMatrix in="SourceAlpha" type="matrix" values="0 0 0 0 0 0 0 0 0 0 0 0 0 0 0 0 0 0 127 0"/>
<feOffset dy="4"/>
<feGaussianBlur stdDeviation="5"/>
<feColorMatrix type="matrix" values="0 0 0 0 0.525 0 0 0 0 0.330475 0 0 0 0 0.310625 0 0 0 0.5 0"/>
<feBlend mode="normal" in2="BackgroundImageFix" result="effect1_dropShadow"/>
<feBlend mode="normal" in="SourceGraphic" in2="effect1_dropShadow" result="shape"/>
</filter>
<filter id="filter1_d" x="0.275665" y="0" width="228.494" height="79.44" filterUnits="userSpaceOnUse" color-interpolation-filters="sRGB">
<feFlood flood-opacity="0" result="BackgroundImageFix"/>
<feColorMatrix in="SourceAlpha" type="matrix" values="0 0 0 0 0 0 0 0 0 0 0 0 0 0 0 0 0 0 127 0"/>
<feOffset dy="4"/>
<feGaussianBlur stdDeviation="5"/>
<feColorMatrix type="matrix" values="0 0 0 0 0 0 0 0 0 0 0 0 0 0 0 0 0 0 0.25 0"/>
<feBlend mode="normal" in2="BackgroundImageFix" result="effect1_dropShadow"/>
<feBlend mode="normal" in="SourceGraphic" in2="effect1_dropShadow" result="shape"/>
</filter>
</defs>
</svg>
