<svg width="60" height="68" viewBox="0 0 60 68" fill="none" xmlns="http://www.w3.org/2000/svg">
<path d="M34.4622 10.504V7.43626H37.3207C37.8785 7.43626 38.3665 6.94821 38.3665 6.39045V1.37052C38.3665 0.812755 37.8785 0.324707 37.3207 0.324707H25.1195C24.5618 0.324707 24.0737 0.812755 24.0737 1.37052V6.39045C24.0737 6.94821 24.5618 7.43626 25.1195 7.43626H27.9781V10.504C21.2151 11.2709 15.2191 14.4084 10.6873 19.01L9.502 17.8247L11.4542 15.8725C11.8725 15.4542 11.8725 14.8267 11.4542 14.4084L7.41037 10.3645C6.99204 9.94622 6.36455 9.94622 5.94622 10.3645L0.438257 15.7331C0.01993 16.1514 0.01993 16.7789 0.438257 17.1972L4.48208 21.241C4.69124 21.4502 4.97013 21.5199 5.24901 21.5199C5.5279 21.5199 5.80678 21.4502 6.01595 21.241L8.03786 19.2191L9.36256 20.5438C5.17929 25.494 2.66933 31.9084 2.66933 38.8805C2.66933 54.6375 15.498 67.4661 31.255 67.4661C47.012 67.4661 59.8406 54.6375 59.8406 38.8805C59.7709 24.239 48.6853 12.1076 34.4622 10.504ZM5.24901 19.0797L2.66933 16.4303L6.57371 12.5259L9.15339 15.1056L7.61953 16.6394L6.8526 17.4064L5.24901 19.0797ZM29.0239 5.34463H26.1653V2.41634H36.2749V5.34463H33.4163C32.8586 5.34463 32.3705 5.83268 32.3705 6.39045V10.3645H30.1395V6.39045C30.0697 5.76296 29.5817 5.34463 29.0239 5.34463ZM31.1853 65.3745C16.6136 65.3745 4.69124 53.5219 4.69124 38.8805C4.69124 24.239 16.5438 12.3865 31.1853 12.3865C31.743 12.3865 32.3008 12.3865 32.8586 12.4562C33.1375 12.4562 33.4163 12.5259 33.6952 12.5259C47.1514 13.7809 57.6793 25.1454 57.6793 38.8805C57.6793 53.5219 45.8267 65.3745 31.1853 65.3745Z" fill="#F9B3AB"/>
<path d="M46.2449 21.7291L46.0357 21.5199C42.0616 18.1036 36.9023 16.0817 31.2549 16.0817C18.6353 16.0817 8.45605 26.3307 8.45605 38.8805C8.45605 51.4303 18.6353 61.749 31.1851 61.749C43.7349 61.749 53.9839 51.5 53.9839 38.9502C54.0537 32.0478 50.9859 25.9123 46.2449 21.7291ZM31.1851 59.6574C19.7509 59.6574 10.478 50.3845 10.478 38.9502C10.478 27.5159 19.7509 18.243 31.1851 18.243C35.9959 18.243 40.3883 19.9163 43.8744 22.6355L32.5796 35.6036C32.1612 35.4641 31.6732 35.3247 31.2549 35.3247C29.3027 35.3247 27.6991 36.9283 27.6991 38.8805C27.6991 40.8327 29.3027 42.4362 31.2549 42.4362C33.2071 42.4362 34.7409 40.8327 34.7409 38.8805C34.7409 38.1833 34.5318 37.486 34.1831 36.9283L45.5477 23.8904C49.5218 27.6554 51.962 32.9542 51.962 38.8805C51.962 50.3147 42.6194 59.6574 31.1851 59.6574ZM32.6493 38.8805C32.6493 39.7171 32.0218 40.3446 31.1851 40.3446C30.3485 40.3446 29.721 39.7171 29.721 38.8805C29.721 38.1135 30.3485 37.4163 31.1851 37.4163C32.0218 37.4163 32.6493 38.1135 32.6493 38.8805Z" fill="#F9B3AB"/>
</svg>
