<svg width="96" height="43" viewBox="0 0 96 43" fill="none" xmlns="http://www.w3.org/2000/svg">
<path d="M55.3151 28.8893C56.5441 27.3258 57.2556 25.3546 59.1961 24.5389C62.7536 22.9755 65.3409 20.0525 67.6048 16.9257C69.6099 14.2067 71.3563 11.3518 73.4262 8.29291C72.9087 8.42886 72.7146 8.49684 72.2619 8.56481C75.0432 6.66152 75.69 3.60266 77.2424 0.951646C75.2373 1.49544 70.3861 5.84583 66.7639 10.3322C63.7885 14.0028 61.0718 17.9453 59.4548 22.8395C60.231 16.178 70.7095 2.10722 77.8892 0C77.3071 1.56342 76.919 3.05886 76.2722 4.41836C73.1674 11.0799 69.1571 17.1296 63.9179 22.1598C62.4302 23.5872 60.425 24.4029 58.7433 25.6265C57.7731 26.3062 56.0913 27.8017 55.3151 28.8893Z" fill="white"/>
<path d="M61.007 21.4123C64.4999 15.7704 68.5749 10.2644 73.1026 5.43823C69.0923 10.6723 65.0173 16.1103 61.007 21.4123Z" fill="white"/>
<path d="M28.6543 13.0753C28.6543 13.7551 28.4602 14.5028 28.1368 15.4544C28.0721 15.5904 28.0074 15.7263 27.9428 15.7263C27.8781 15.7263 27.8134 15.6583 27.8134 15.5904C27.8134 15.5224 27.8781 15.3185 28.0074 14.9106C28.1368 14.5028 28.2015 14.2309 28.2015 13.959C28.2015 13.2792 27.6193 12.8714 26.4551 12.8714C25.7436 12.8714 24.5793 13.0073 22.8975 13.2113C23.6737 14.2309 24.0618 15.3185 24.0618 16.542C24.0618 18.5133 22.9622 21.0963 20.763 24.2911C19.8575 25.5827 18.9519 26.6703 17.917 27.6219C16.5587 28.8454 15.3944 29.5252 14.3595 29.5252C13.0658 29.5252 12.4837 28.3696 12.4837 26.1265C12.4837 25.8546 12.4837 25.3108 12.419 24.4271C12.3543 23.5434 12.3543 22.8637 12.3543 22.2519C12.3543 21.1643 12.3543 19.193 12.2896 16.4061C12.225 15.3864 11.9662 14.9106 11.4488 14.9106C11.1254 14.9106 10.6726 15.2505 10.0904 15.8623C8.0206 18.1734 6.08014 20.9604 4.13967 24.3591C2.9107 26.6023 1.87579 28.6415 1.16428 30.5448C0.711505 31.6324 0.517458 32.5841 0.517458 33.4677V33.7396C0.517458 33.8756 0.517458 33.9435 0.452776 33.9435C0.323411 33.9435 0.194047 33.4677 0 32.4481C0 32.3122 0 32.2442 0 32.1762C0 31.8363 0.0646823 31.4965 0.258729 31.0886C1.16428 28.4376 2.97539 25.1748 5.69204 21.1643C7.95592 17.7656 9.83171 15.3185 11.2547 13.823C11.7722 13.2792 12.225 13.0073 12.613 13.0073C13.1305 13.0073 13.3892 13.7551 13.3892 15.2505C13.3892 15.8623 13.3892 16.7459 13.3892 17.9695C13.3892 19.193 13.3892 20.0767 13.3892 20.6885C13.3892 22.048 13.3892 23.1356 13.4539 23.8833C13.5186 25.2428 13.648 26.2624 13.7773 26.8062C14.1007 28.0297 14.6829 28.6415 15.4591 28.6415C15.9118 28.6415 16.4293 28.4376 16.9468 28.0297C18.1757 27.0781 19.34 25.6506 20.4396 23.8153C22.3154 20.6885 23.2856 17.9015 23.2856 15.5904C23.2856 14.5708 23.0916 13.823 22.6388 13.2113C21.6686 13.3472 20.8924 13.4152 20.3102 13.4152C19.2753 13.4152 18.4345 13.2113 17.8523 12.8034C17.5289 12.5995 17.3349 12.3956 17.3349 12.0557C17.3349 11.5119 17.9817 11.24 19.2106 11.24C20.5043 11.24 21.6039 11.7158 22.4448 12.5995L24.644 12.0557C25.4848 11.8518 26.261 11.7838 26.9078 11.7838C28.0721 11.7838 28.6543 12.1916 28.6543 13.0753ZM22.1213 12.6675C21.4745 12.1237 20.6336 11.8518 19.5341 11.8518C18.4345 11.8518 17.917 12.0557 17.9817 12.4635C18.0464 12.8714 18.4991 13.0753 19.4694 13.0753C20.1162 13.0073 21.0217 12.8714 22.1213 12.6675Z" fill="white"/>
<path d="M31.5649 24.699C31.5649 24.767 31.5649 24.8349 31.5002 24.9029C30.9181 25.8545 29.8185 26.7382 28.2014 27.5539C27.2312 28.0297 26.1962 28.5056 25.032 28.9134C22.8328 32.9919 20.957 35.7789 19.3399 37.2063C17.3995 38.9057 15.5884 39.7894 13.7773 39.7894C12.807 39.7894 11.9015 39.5175 11.1253 39.0417C10.2197 38.4299 9.70227 37.6822 9.70227 36.7305C9.70227 34.3514 12.4836 32.3801 17.9816 30.8167C19.7927 30.2729 21.9919 29.6611 24.5792 28.8454C24.6439 28.7095 24.7732 28.4376 24.9673 28.0297C25.4847 26.8742 26.0022 25.8545 26.455 24.9029C24.9673 26.8742 23.6736 27.8258 22.6387 27.8258C22.1213 27.8258 21.8625 27.5539 21.8625 27.0101C21.8625 26.8062 21.9272 26.6023 22.0566 26.2624C22.4447 25.3107 22.9621 24.4271 23.7383 23.6114C24.5145 22.6597 25.2907 22.048 26.1316 21.6401C26.649 21.4362 27.1018 21.3002 27.5546 21.3002C27.8133 21.3002 28.0074 21.3682 28.1367 21.4362C28.2014 21.3002 28.3954 21.0283 28.6542 20.5525C28.9776 20.0087 29.2363 19.7368 29.3657 19.7368C29.495 19.7368 29.5597 19.8048 29.6244 19.9407V20.0087C29.6244 20.3486 29.4304 20.8924 29.0423 21.5721C28.3954 22.7957 27.2312 24.9709 25.4201 28.0977L25.226 28.4376C26.1316 28.0977 27.1018 27.6899 28.1367 27.214C29.6891 26.3983 30.724 25.5826 31.3061 24.631C31.3708 24.563 31.4355 24.495 31.5002 24.495C31.5002 24.563 31.5649 24.631 31.5649 24.699ZM24.3851 29.0494L17.2701 31.4965C14.1653 32.788 12.0955 34.0115 11.1253 35.2351C10.6078 35.9148 10.3491 36.5946 10.3491 37.1384C10.3491 37.8181 10.6725 38.3619 11.3193 38.7018C11.8368 38.9737 12.4836 39.1096 13.1951 39.1096C15.3943 39.1096 17.5935 37.9541 19.8574 35.5749C21.5391 33.8756 23.0268 31.7004 24.3851 29.0494ZM27.9427 21.7081C27.7486 21.6401 27.5546 21.5721 27.2312 21.5721C26.7784 21.5721 26.3903 21.7081 26.1316 21.912C25.5494 22.3199 24.9673 23.0676 24.2558 24.2232C23.4796 25.3787 23.0915 26.2624 23.0915 26.8742C23.0915 27.0101 23.1562 27.1461 23.2855 27.1461H23.3502C23.609 27.1461 23.9324 26.9421 24.3851 26.5343C25.4847 25.6506 26.649 24.0192 27.9427 21.7081Z" fill="white"/>
<path d="M36.7395 22.3878C35.3812 24.427 34.7344 25.9904 34.7344 26.9421C34.7344 27.5538 35.0578 27.8937 35.7046 27.8937C35.8986 27.8937 36.1574 27.8257 36.4808 27.7578C37.5804 27.4859 38.7447 26.5342 39.9736 24.8348C40.0383 24.7669 40.0383 24.7669 40.103 24.7669C40.1677 24.7669 40.1677 24.7669 40.1677 24.8348C40.1677 24.9028 40.1677 24.9028 40.103 24.9708C38.3566 27.214 36.7395 28.3695 35.3165 28.3695C34.3463 28.3695 33.8288 27.8937 33.8288 26.8741C33.8288 26.5342 33.8935 26.2623 33.9582 25.9224C33.4407 26.6022 32.9879 27.078 32.5998 27.4179C31.953 27.9617 31.4356 28.2336 30.9828 28.2336C30.6594 28.2336 30.4653 28.0297 30.4653 27.6218C30.4653 27.4179 30.53 27.078 30.6594 26.7381C31.1768 25.3107 31.8883 23.8832 32.8586 22.3198C32.9233 22.1838 33.1173 21.9119 33.3113 21.5721C33.4407 21.3681 33.8288 21.1642 34.4109 21.0962C34.605 21.1642 34.6697 21.2322 34.6697 21.2322C34.6697 21.4361 34.5403 21.708 34.2816 21.9799C33.9582 22.3198 33.6994 22.5237 33.6994 22.6597C32.9233 23.9512 32.3411 25.1067 31.953 26.2623C31.8237 26.6702 31.759 26.9421 31.759 27.078C31.759 27.2819 31.8237 27.3499 31.953 27.3499C32.2764 27.3499 32.7939 26.8061 33.5701 25.7185C34.1522 24.7669 35.0578 23.3394 36.2867 21.4361C36.4161 21.2322 36.5455 21.1642 36.6748 21.1642C36.9336 21.1642 37.0629 21.3681 37.0629 21.708C37.0629 21.776 37.0629 21.9119 36.9982 21.9799C37.0629 21.9799 37.0629 21.9119 37.1276 21.9119C37.3863 21.776 37.6451 21.5721 37.7744 21.3002C37.9685 21.0283 37.9038 20.8243 37.7097 20.6884C37.5157 20.5524 37.451 20.4165 37.5804 20.2805C37.7097 20.1446 37.9038 20.0766 38.1625 20.0086C38.4212 19.9407 38.6153 20.0766 38.68 20.2805C38.7447 20.4845 38.7447 20.7564 38.6153 21.0283C38.2272 21.64 37.5804 22.0479 36.7395 22.3878Z" fill="white"/>
<path d="M44.6307 22.1157C45.2128 22.3197 45.9243 22.3876 46.8945 22.3876C47.6707 22.3876 48.3176 22.3197 48.835 22.1157H48.8997C48.9644 22.1157 48.9644 22.1157 48.9644 22.1837C48.9644 22.2517 48.8997 22.3197 48.835 22.3197C47.7354 22.6595 46.8945 22.7955 46.3771 22.7955H45.7303C44.9541 22.7955 44.3073 22.7275 43.7898 22.5916C43.5957 24.2229 42.8196 25.7864 41.4612 27.2138C40.685 28.0295 39.9089 28.4374 39.262 28.4374C38.5505 28.4374 38.2271 28.0975 38.2271 27.4178V27.3498C38.2271 25.7864 39.3267 24.087 41.5906 22.2517C41.914 22.0478 42.1727 21.8438 42.5608 21.6399C42.5608 21.5719 42.5608 21.5719 42.6255 21.504C43.0136 21.1641 43.2723 21.0281 43.337 21.0281C43.4664 21.0281 43.5311 21.0961 43.5311 21.2321C43.5957 21.5719 43.8545 21.8438 44.2426 22.0478C44.2426 22.0478 44.3072 22.0478 44.3072 21.9798C44.566 21.8438 44.8247 21.6399 44.9541 21.368C45.1481 21.0961 45.0834 20.8922 44.8894 20.7562C44.6953 20.6203 44.6307 20.4843 44.76 20.3484C44.8894 20.2124 45.1481 20.0085 45.3422 20.0085C45.5362 20.0085 45.7949 20.0765 45.8596 20.2804C45.9243 20.4843 45.9243 20.7562 45.7949 21.0281C45.5362 21.504 45.1481 21.8438 44.6307 22.1157ZM42.6902 22.9314V22.6595C42.6902 22.1837 42.6255 21.9798 42.4315 21.9798C42.3668 21.9798 42.2374 22.0478 41.9787 22.1837C40.2323 23.5432 39.3914 25.1066 39.3914 27.0099C39.3914 27.5537 39.5208 27.8256 39.8442 27.8256C40.0382 27.8256 40.2323 27.7576 40.5557 27.5537C41.9787 26.5341 42.6902 24.9707 42.6902 22.9314ZM44.566 20.0765C44.5013 20.0765 44.5013 20.0765 44.4366 20.0765C43.2723 19.3967 42.3021 18.785 41.5259 18.3091C41.3965 18.2412 41.2672 18.1732 41.2672 18.0372C41.2672 17.9693 41.2672 17.8333 41.2672 17.6294C41.2672 17.5614 41.3319 17.4934 41.3965 17.4255C41.4612 17.3575 41.5259 17.4255 41.5906 17.4255C41.8493 17.6294 42.1727 17.8333 42.4961 18.0372C43.4664 18.785 44.1132 19.3288 44.6307 19.6686L44.76 19.8046C44.6307 19.9405 44.6307 19.9405 44.566 20.0765Z" fill="white"/>
<path d="M53.5568 27.8258C51.7457 30.0689 49.8699 27.6218 47.9941 28.5055C47.1533 28.9134 46.5064 29.1173 46.1183 29.1173C45.5362 29.1173 45.2775 28.8454 45.2775 28.3016C45.2775 27.8258 45.4715 27.214 45.9243 26.3983C46.2477 25.7865 47.2179 24.0872 48.7703 21.3682C49.029 20.9603 49.2231 20.7564 49.3525 20.7564C49.5465 20.7564 49.6759 20.9603 49.7405 21.4361V21.5721C49.7405 21.708 49.6759 21.776 49.6112 21.912C49.1584 22.4558 48.7703 23.0675 48.3822 23.6793C47.5413 25.1068 46.9592 26.2624 46.7005 27.146C46.6358 27.3499 46.6358 27.5539 46.6358 27.6898C46.6358 28.2336 46.8298 28.4375 47.2826 28.4375C47.412 28.4375 47.5413 28.4375 47.6707 28.3696C50.5722 26.3983 51.6163 30.3408 53.5568 27.8258ZM51.9397 17.8335C51.9397 18.1054 51.8104 18.3773 51.6163 18.5812C51.4223 18.7851 51.1636 18.9891 50.9048 18.9891C50.6461 18.9891 50.5167 18.8531 50.5167 18.5812C50.5167 18.3093 50.6461 18.0374 50.8401 17.7655C51.0342 17.4936 51.2929 17.3577 51.5516 17.3577C51.8104 17.4256 51.9397 17.5616 51.9397 17.8335Z" fill="white"/>
<path d="M27.3606 39.1162V41.6993C27.3606 41.7673 27.4253 41.8352 27.49 41.9712H26.5197C26.5844 41.8352 26.6491 41.7673 26.6491 41.6993V36.3293C26.6491 36.2613 26.5844 36.1933 26.5197 36.0574H27.49C27.4253 36.1933 27.3606 36.2613 27.3606 36.3293V38.8443L29.6245 36.3972C29.6892 36.3293 29.6892 36.1933 29.6892 36.0574H30.4653C30.4007 36.1253 30.2713 36.1933 30.0772 36.3293L27.878 38.7084L30.6594 41.6993C30.7241 41.7673 30.8534 41.8352 31.0475 41.9712H29.6892C29.7538 41.8352 29.7538 41.7673 29.6892 41.6993L27.3606 39.1162Z" fill="#FFFBFB"/>
<path d="M36.6749 36.3293V41.6993C36.6749 41.7673 36.7396 41.8352 36.8043 41.9712H35.8341C35.8987 41.8352 35.9634 41.7673 35.9634 41.6993V38.8443H32.3412V41.6993C32.3412 41.7673 32.4059 41.8352 32.4706 41.9712H31.5004C31.565 41.8352 31.565 41.7673 31.565 41.6993V36.3293C31.565 36.2613 31.5004 36.1933 31.4357 36.0574H32.4059C32.3412 36.1933 32.2765 36.2613 32.2765 36.3293V38.5724H35.8988V36.3293C35.8988 36.2613 35.8341 36.1933 35.7694 36.0574H36.7396C36.6749 36.1933 36.6749 36.2613 36.6749 36.3293Z" fill="#FFFBFB"/>
<path d="M43.3371 38.9804C43.3371 39.7961 43.0137 40.5438 42.4315 41.1556C41.8494 41.7674 41.1379 42.0393 40.297 42.0393C39.4562 42.0393 38.7447 41.7674 38.1625 41.1556C37.5804 40.5438 37.257 39.8641 37.257 38.9804C37.257 38.1647 37.5804 37.417 38.1625 36.8052C38.7447 36.1935 39.4562 35.9216 40.297 35.9216C41.1379 35.9216 41.8494 36.1935 42.4315 36.8052C43.0137 37.417 43.3371 38.1647 43.3371 38.9804ZM42.6256 39.0484C42.6256 38.2327 42.4315 37.553 42.0434 37.0092C41.5907 36.4654 41.0085 36.1935 40.2323 36.1935C39.5208 36.1935 38.9387 36.4654 38.4859 37.0092C38.0331 37.553 37.8391 38.1647 37.8391 38.9804C37.8391 39.7281 38.0978 40.4079 38.5506 40.9517C39.0034 41.4955 39.5855 41.7674 40.2323 41.7674C40.8792 41.7674 41.4613 41.4955 41.9141 40.9517C42.3669 40.4079 42.6256 39.7961 42.6256 39.0484ZM39.1974 35.5817L40.3617 34.3582L41.526 35.5817H41.3319L40.3617 34.834L39.3915 35.5817H39.1974Z" fill="#FFFBFB"/>
<path d="M49.2232 42.0391L44.3721 36.7371V41.6993C44.3721 41.8352 44.4368 41.9032 44.5661 41.9712H43.9193C44.0487 41.9032 44.1133 41.8352 44.1133 41.6993V36.5332C44.0487 36.3293 43.984 36.1933 43.8546 36.1253H44.9542C44.9542 36.1933 44.9542 36.2613 44.9542 36.2613C44.9542 36.3293 44.9542 36.3293 44.9542 36.3293L48.9645 40.7476V36.3293C48.9645 36.1933 48.8998 36.1253 48.7705 36.0574H49.4173C49.2879 36.1253 49.2232 36.1933 49.2232 36.3293V42.0391Z" fill="#FFFBFB"/>
<path d="M54.9152 39.3205V41.6316C54.0744 41.9035 53.3628 41.9715 52.9101 41.9715C52.0692 41.9715 51.3577 41.6996 50.7755 41.0878C50.1934 40.476 49.87 39.7963 49.87 38.9806C49.87 38.1649 50.1287 37.4172 50.6462 36.8054C51.2283 36.1936 51.9398 35.8538 52.8454 35.8538C53.4922 35.8538 54.0097 35.9217 54.4625 36.0577L54.8505 36.1257V36.6695C54.6565 36.4655 54.3978 36.2616 54.0744 36.1936C53.8803 36.1257 53.5569 36.1257 53.1688 36.0577C52.3279 36.0577 51.6811 36.3296 51.1636 36.8734C50.7109 37.4172 50.4521 38.0289 50.4521 38.8446C50.4521 39.5924 50.7109 40.2721 51.2283 40.7479C51.7458 41.2917 52.3926 41.5636 53.1688 41.5636C53.5569 41.5636 53.8803 41.4957 54.139 41.4277V39.1845C54.139 39.1165 54.0744 39.0486 54.0097 38.9126H54.9799C54.9152 39.1845 54.9152 39.2525 54.9152 39.3205Z" fill="#FFFBFB"/>
<path d="M60.6719 36.3293V41.6993C60.6719 41.7673 60.7366 41.8352 60.8013 41.9712H59.831C59.8957 41.8352 59.9604 41.7673 59.9604 41.6993V36.3293H57.9553C57.8259 36.3293 57.7612 36.3972 57.6965 36.5332V36.0574H62.8711V36.5332C62.8064 36.3972 62.7418 36.3293 62.6124 36.3293H60.6719Z" fill="#FFFBFB"/>
<path d="M68.4985 36.3293V41.6993C68.4985 41.7673 68.5632 41.8352 68.6279 41.9712H67.6577C67.7224 41.8352 67.787 41.7673 67.787 41.6993V38.8443H64.1648V41.6993C64.1648 41.7673 64.2295 41.8352 64.2942 41.9712H63.324C63.3887 41.8352 63.4533 41.7673 63.4533 41.6993V36.3293C63.4533 36.2613 63.3887 36.1933 63.324 36.0574H64.2942C64.2295 36.1933 64.1648 36.2613 64.1648 36.3293V38.5724H67.787V36.3293C67.787 36.2613 67.7224 36.1933 67.6577 36.0574H68.6279C68.5632 36.1933 68.4985 36.2613 68.4985 36.3293Z" fill="#FFFBFB"/>
<path d="M69.9216 36.3295V38.9805H71.4093C71.5387 38.9805 71.6034 38.9125 71.668 38.7766V39.4563C71.6034 39.3204 71.5387 39.2524 71.474 39.2524H69.9216V41.6995H71.474C71.6033 41.6995 71.7327 41.6315 71.7974 41.4955L71.668 41.9714H69.0807C69.1454 41.8354 69.2101 41.7674 69.2101 41.6995V36.3295C69.2101 36.2615 69.1454 36.1935 69.0807 36.0576H71.668V36.5334C71.6034 36.3974 71.5387 36.3295 71.4093 36.3295H69.9216ZM69.2748 35.5817L70.4391 34.3582L71.6034 35.5817H71.4093L70.4391 34.834L69.4688 35.5817H69.2748ZM70.8918 34.6301V34.1543C71.0859 34.0183 71.1506 33.9504 71.2153 33.8824C71.2799 33.7464 71.3446 33.6105 71.4093 33.4066C71.4093 33.2706 71.4093 33.2026 71.3446 33.0667C71.2799 32.9307 71.2153 32.8628 71.0859 32.8628C71.0212 32.8628 70.8918 32.9307 70.8272 32.9987C70.7625 33.0667 70.6978 33.2026 70.6978 33.3386C70.6978 33.4066 70.6978 33.4066 70.6978 33.4745C70.6978 33.4745 70.6978 33.4745 70.7625 33.5425L70.1157 33.8144C70.1803 33.6785 70.245 33.6105 70.245 33.6105C70.245 33.3386 70.3097 33.1347 70.4391 32.9987C70.5684 32.8628 70.8272 32.7268 71.0212 32.7268C71.2153 32.7268 71.474 32.7948 71.6034 32.9307C71.7327 33.0667 71.8621 33.2706 71.8621 33.4745C71.8621 33.6105 71.7974 33.8144 71.6034 33.9504C71.474 34.0863 71.3446 34.2222 71.2153 34.2222V34.4941L70.8918 34.6301Z" fill="#FFFBFB"/>
<path d="M80.7881 42.1751C80.5941 42.243 80.4 42.311 80.206 42.311C79.7532 42.311 79.3004 42.1071 78.9124 41.6992C78.4596 41.9032 78.0068 42.0391 77.554 42.0391C76.7132 42.0391 76.0017 41.7672 75.4195 41.1554C74.8374 40.5437 74.514 39.8639 74.514 38.9802C74.514 38.1645 74.8374 37.4168 75.4195 36.8051C76.0017 36.1933 76.7132 35.9214 77.554 35.9214C78.3949 35.9214 79.1064 36.1933 79.6885 36.8051C80.2707 37.4168 80.5941 38.0966 80.5941 38.9802C80.5941 39.9319 80.2707 40.6796 79.5592 41.2914C80.0766 41.9032 80.5294 42.1751 80.7881 42.1751ZM79.9473 39.0482C79.9473 38.2325 79.7532 37.5528 79.3651 37.009C78.9124 36.4652 78.3302 36.1933 77.554 36.1933C76.8425 36.1933 76.2604 36.4652 75.8076 37.009C75.3548 37.5528 75.1608 38.1645 75.1608 38.9802C75.1608 39.728 75.4195 40.4077 75.8723 40.9515C76.3251 41.4953 76.9072 41.7672 77.554 41.7672C78.2009 41.7672 78.783 41.4953 79.2358 40.9515C79.6885 40.4077 79.9473 39.7959 79.9473 39.0482Z" fill="#FFFBFB"/>
<path d="M86.2215 36.3293V41.6993C86.2215 41.7672 86.2862 41.8352 86.3509 41.9712H85.3806C85.4453 41.8352 85.51 41.7672 85.51 41.6993V41.2235C85.0572 41.7672 84.4104 42.0391 83.6342 42.0391C83.0521 42.0391 82.5993 41.8352 82.0818 41.4954C81.6291 41.0875 81.3703 40.6117 81.3703 39.9999V36.3293C81.3703 36.2613 81.3056 36.1933 81.241 36.0574H82.2112C82.1465 36.1933 82.0818 36.2613 82.0818 36.3293V39.9999C82.0818 40.3398 82.2759 40.6797 82.5993 41.0195C82.9227 41.2914 83.1814 41.4954 83.3755 41.5633C83.5048 41.5633 83.6342 41.6313 83.8283 41.6313C84.281 41.6313 84.6691 41.4954 85.0572 41.2914C85.3806 41.0875 85.51 40.9516 85.51 40.8836V36.3293C85.51 36.2613 85.4453 36.1933 85.3806 36.0574H86.3509C86.2215 36.1933 86.2215 36.2613 86.2215 36.3293Z" fill="#FFFBFB"/>
<path d="M87.5798 36.3294V38.9804H89.0675C89.1968 38.9804 89.2615 38.9125 89.3262 38.7765V39.4563C89.2615 39.3203 89.1968 39.2523 89.1321 39.2523H87.5798V41.6994H89.1321C89.2615 41.6994 89.3909 41.6315 89.4556 41.4955L89.3262 41.9713H86.7389C86.8036 41.8354 86.8683 41.7674 86.8683 41.6994V36.3294C86.8683 36.2614 86.8036 36.1935 86.7389 36.0575H89.3262V36.5333C89.2615 36.3974 89.1968 36.3294 89.0675 36.3294H87.5798ZM86.9329 35.5817L88.0972 34.3582L89.2615 35.5817H89.1321L88.1619 34.834L87.1917 35.5817H86.9329Z" fill="#FFFBFB"/>
<path d="M95.2771 42.0391L90.426 36.7371V41.6993C90.426 41.8352 90.4906 41.9032 90.62 41.9712H89.9732C90.1026 41.9032 90.1672 41.8352 90.1672 41.6993V36.5332C90.1026 36.3293 90.0379 36.1933 89.9085 36.1253H91.0081C91.0081 36.1933 91.0081 36.2613 91.0081 36.2613C91.0081 36.3293 91.0081 36.3293 91.0081 36.3293L95.0184 40.7476V36.3293C95.0184 36.1933 94.9537 36.1253 94.8243 36.0574H95.4712C95.3418 36.1253 95.2771 36.1933 95.2771 36.3293V42.0391Z" fill="#FFFBFB"/>
</svg>
