<svg width="244" height="87" viewBox="0 0 244 87" fill="none" xmlns="http://www.w3.org/2000/svg">
<path d="M91.6364 47.852C93.672 45.2623 94.8505 41.9971 98.0647 40.646C103.957 38.0564 108.243 33.2149 111.993 28.0356C115.314 23.5319 118.207 18.803 121.635 13.7363C120.778 13.9615 120.457 14.0741 119.707 14.1867C124.314 11.0341 125.385 5.96742 127.957 1.5763C124.635 2.47704 116.6 9.68298 110.6 17.1141C105.672 23.1941 101.172 29.7245 98.4933 37.8312C99.7789 26.7971 117.135 3.49038 129.028 0C128.064 2.58964 127.421 5.06668 126.349 7.31853C121.207 18.3526 114.564 28.3734 105.886 36.7053C103.422 39.0697 100.1 40.4208 97.3147 42.4475C95.7076 43.5734 92.922 46.0505 91.6364 47.852Z" fill="white"/>
<path d="M101.064 35.4671C106.85 26.1219 113.6 17.0019 121.1 9.00781C114.457 17.6775 107.707 26.6849 101.064 35.4671Z" fill="white"/>
<path d="M47.4754 21.6577C47.4754 22.7836 47.154 24.0221 46.6183 25.5984C46.5112 25.8236 46.404 26.0488 46.2969 26.0488C46.1897 26.0488 46.0826 25.9362 46.0826 25.8236C46.0826 25.711 46.1897 25.3732 46.404 24.6977C46.6183 24.0221 46.7254 23.5718 46.7254 23.1214C46.7254 21.9955 45.7612 21.3199 43.8327 21.3199C42.6541 21.3199 40.7256 21.5451 37.94 21.8829C39.2257 23.5718 39.8685 25.3732 39.8685 27.3999C39.8685 30.6651 38.0471 34.9436 34.4044 40.2355C32.9045 42.3748 31.4045 44.1763 29.6903 45.7526C27.4404 47.7792 25.5118 48.9052 23.7976 48.9052C21.6548 48.9052 20.6906 46.9911 20.6906 43.2755C20.6906 42.8251 20.6906 41.9244 20.5834 40.4607C20.4763 38.997 20.4763 37.8711 20.4763 36.8577C20.4763 35.0562 20.4763 31.791 20.3692 27.1747C20.262 25.4858 19.8335 24.6977 18.9764 24.6977C18.4407 24.6977 17.6907 25.2607 16.7264 26.274C13.298 30.1021 10.0838 34.7185 6.86961 40.3481C4.83396 44.0637 3.11974 47.4414 1.9412 50.594C1.19123 52.3955 0.86981 53.9718 0.86981 55.4355V55.8859C0.86981 56.1111 0.86981 56.2237 0.76267 56.2237C0.548392 56.2237 0.334113 55.4355 0.0126953 53.7466C0.0126953 53.5215 0.0126953 53.4089 0.0126953 53.2963C0.0126953 52.7333 0.119835 52.1703 0.441253 51.4948C1.9412 47.1037 4.9411 41.6992 9.44095 35.0562C13.1908 29.4266 16.2979 25.3732 18.6549 22.8962C19.512 21.9955 20.262 21.5451 20.9049 21.5451C21.762 21.5451 22.1905 22.7836 22.1905 25.2607C22.1905 26.274 22.1905 27.7377 22.1905 29.7644C22.1905 31.791 22.1905 33.2547 22.1905 34.2681C22.1905 36.5199 22.1905 38.3214 22.2977 39.5599C22.4048 41.8118 22.6191 43.5007 22.8334 44.4014C23.3691 46.4281 24.3333 47.4415 25.619 47.4415C26.369 47.4415 27.2261 47.1037 28.0832 46.4281C30.1188 44.8518 32.0473 42.4874 33.8687 39.4474C36.9758 34.2681 38.5828 29.6518 38.5828 25.8236C38.5828 24.1347 38.2614 22.8962 37.5115 21.8829C35.9044 22.1081 34.6187 22.2206 33.6544 22.2206C31.9402 22.2206 30.5474 21.8829 29.5831 21.2073C29.0474 20.8695 28.726 20.5318 28.726 19.9688C28.726 19.068 29.7974 18.6177 31.8331 18.6177C33.9759 18.6177 35.7972 19.4058 37.19 20.8695L40.8328 19.9688C42.2256 19.631 43.5112 19.5184 44.5826 19.5184C46.5112 19.5184 47.4754 20.194 47.4754 21.6577ZM36.6543 20.9821C35.5829 20.0814 34.1901 19.631 32.3688 19.631C30.5474 19.631 29.6903 19.9688 29.7974 20.6443C29.9046 21.3199 30.6545 21.6577 32.2616 21.6577C33.333 21.5451 34.833 21.3199 36.6543 20.9821Z" fill="white"/>
<path d="M52.2966 40.9112C52.2966 41.0238 52.2966 41.1364 52.1894 41.249C51.2252 42.8253 49.4038 44.289 46.7253 45.6401C45.1182 46.4282 43.404 47.2164 41.4755 47.8919C37.8328 54.6475 34.7257 59.2638 32.0472 61.6283C28.8331 64.4431 25.8332 65.9068 22.8333 65.9068C21.2262 65.9068 19.7262 65.4564 18.4406 64.6683C16.9406 63.655 16.0835 62.4164 16.0835 60.8401C16.0835 56.8994 20.6905 53.6342 29.7973 51.0445C32.7972 50.1438 36.44 49.1305 40.7255 47.7793C40.8327 47.5542 41.0469 47.1038 41.3684 46.4282C42.2255 44.5142 43.0826 42.8253 43.8326 41.249C41.3684 44.5142 39.2256 46.0905 37.5113 46.0905C36.6542 46.0905 36.2257 45.6401 36.2257 44.7393C36.2257 44.4016 36.3328 44.0638 36.5471 43.5008C37.1899 41.9245 38.047 40.4608 39.3327 39.1097C40.6184 37.5334 41.9041 36.5201 43.2969 35.8445C44.154 35.5067 44.904 35.2815 45.6539 35.2815C46.0825 35.2815 46.4039 35.3941 46.6182 35.5067C46.7253 35.2815 47.0467 34.8312 47.4753 34.043C48.011 33.1423 48.4396 32.6919 48.6538 32.6919C48.8681 32.6919 48.9753 32.8045 49.0824 33.0297V33.1423C49.0824 33.7052 48.761 34.606 48.1181 35.7319C47.0467 37.7586 45.1182 41.3616 42.1183 46.5408L41.7969 47.1038C43.2969 46.5408 44.904 45.8653 46.6182 45.0771C49.1895 43.726 50.9038 42.3749 51.868 40.7986C51.9751 40.686 52.0823 40.5734 52.1894 40.5734C52.1894 40.686 52.2966 40.7986 52.2966 40.9112ZM40.4041 48.1171L28.6188 52.1705C23.4761 54.3097 20.0476 56.3364 18.4406 58.3631C17.5834 59.489 17.1549 60.6149 17.1549 61.5157C17.1549 62.6416 17.6906 63.5424 18.762 64.1053C19.6191 64.5557 20.6905 64.7809 21.869 64.7809C25.5118 64.7809 29.1545 62.8668 32.9044 58.9261C35.69 56.1112 38.1542 52.5083 40.4041 48.1171ZM46.2968 35.9571C45.9754 35.8445 45.6539 35.7319 45.1182 35.7319C44.3683 35.7319 43.7254 35.9571 43.2969 36.2949C42.3326 36.9704 41.3684 38.2089 40.1898 40.123C38.9042 42.0371 38.2613 43.5008 38.2613 44.5142C38.2613 44.7393 38.3685 44.9645 38.5827 44.9645H38.6899C39.1184 44.9645 39.6541 44.6267 40.4041 43.9512C42.2255 42.4875 44.154 39.7852 46.2968 35.9571Z" fill="white"/>
<path d="M60.8678 37.0828C58.6179 40.4606 57.5465 43.0502 57.5465 44.6265C57.5465 45.6399 58.0822 46.2028 59.1536 46.2028C59.475 46.2028 59.9036 46.0903 60.4393 45.9777C62.2606 45.5273 64.1892 43.951 66.2248 41.1362C66.3319 41.0236 66.3319 41.0236 66.4391 41.0236C66.5462 41.0236 66.5462 41.0236 66.5462 41.1362C66.5462 41.2488 66.5462 41.2488 66.4391 41.3614C63.5463 45.0769 60.8678 46.991 58.5108 46.991C56.9037 46.991 56.0466 46.2028 56.0466 44.5139C56.0466 43.951 56.1537 43.5006 56.2609 42.9377C55.4037 44.0636 54.6538 44.8517 54.0109 45.4147C52.9395 46.3154 52.0824 46.7658 51.3325 46.7658C50.7968 46.7658 50.4753 46.428 50.4753 45.7525C50.4753 45.4147 50.5825 44.8517 50.7968 44.2888C51.6539 41.9243 52.8324 39.5599 54.4395 36.9702C54.5466 36.7451 54.868 36.2947 55.1895 35.7317C55.4037 35.3939 56.0466 35.0562 57.0108 34.9436C57.3322 35.0562 57.4394 35.1688 57.4394 35.1688C57.4394 35.5065 57.2251 35.9569 56.7966 36.4073C56.2609 36.9702 55.8323 37.308 55.8323 37.5332C54.5466 39.6725 53.5824 41.5865 52.9395 43.5006C52.7253 44.1762 52.6181 44.6265 52.6181 44.8517C52.6181 45.1895 52.7253 45.3021 52.9395 45.3021C53.4752 45.3021 54.3324 44.4014 55.618 42.5999C56.5823 41.0236 58.0822 38.6591 60.1179 35.5065C60.3321 35.1687 60.5464 35.0562 60.7607 35.0562C61.1893 35.0562 61.4035 35.3939 61.4035 35.9569C61.4035 36.0695 61.4035 36.2947 61.2964 36.4073C61.4035 36.4073 61.4035 36.2947 61.5107 36.2947C61.9392 36.0695 62.3678 35.7317 62.5821 35.2813C62.9035 34.831 62.7963 34.4932 62.4749 34.268C62.1535 34.0428 62.0464 33.8176 62.2606 33.5925C62.4749 33.3673 62.7963 33.2547 63.2249 33.1421C63.6535 33.0295 63.9749 33.2547 64.082 33.5925C64.1892 33.9302 64.1892 34.3806 63.9749 34.831C63.332 35.8443 62.2606 36.5199 60.8678 37.0828Z" fill="white"/>
<path d="M73.9386 36.6324C74.9028 36.9702 76.0814 37.0828 77.6885 37.0828C78.9741 37.0828 80.0455 36.9702 80.9026 36.6324H81.0098C81.1169 36.6324 81.1169 36.6324 81.1169 36.745C81.1169 36.8576 81.0098 36.9702 80.9026 36.9702C79.0813 37.5332 77.6885 37.7584 76.8313 37.7584H75.76C74.4743 37.7584 73.4029 37.6458 72.5458 37.4206C72.2244 40.1228 70.9387 42.7124 68.6888 45.0769C67.4031 46.428 66.1174 47.1036 65.046 47.1036C63.8675 47.1036 63.3318 46.5406 63.3318 45.4147V45.3021C63.3318 42.7124 65.1532 39.8976 68.903 36.8576C69.4387 36.5198 69.8673 36.1821 70.5101 35.8443C70.5101 35.7317 70.5101 35.7317 70.6173 35.6191C71.2601 35.0561 71.6887 34.8309 71.7958 34.8309C72.0101 34.8309 72.1172 34.9435 72.1172 35.1687C72.2244 35.7317 72.6529 36.1821 73.2957 36.5198C73.2957 36.5198 73.4029 36.5198 73.4029 36.4072C73.8314 36.1821 74.26 35.8443 74.4743 35.3939C74.7957 34.9435 74.6886 34.6058 74.3671 34.3806C74.0457 34.1554 73.9386 33.9302 74.1529 33.705C74.3671 33.4798 74.7957 33.142 75.1171 33.142C75.4385 33.142 75.8671 33.2546 75.9742 33.5924C76.0814 33.9302 76.0814 34.3806 75.8671 34.8309C75.4385 35.6191 74.7957 36.1821 73.9386 36.6324ZM70.7244 37.9835V37.5332C70.7244 36.745 70.6173 36.4072 70.2958 36.4072C70.1887 36.4072 69.9744 36.5198 69.5459 36.745C66.6531 38.9969 65.2603 41.5865 65.2603 44.7391C65.2603 45.6399 65.4746 46.0902 66.0103 46.0902C66.3317 46.0902 66.6531 45.9776 67.1888 45.6399C69.5459 43.951 70.7244 41.3613 70.7244 37.9835ZM73.8314 33.2546C73.7243 33.2546 73.7243 33.2546 73.6172 33.2546C71.6887 32.1287 70.0816 31.1154 68.7959 30.3272C68.5816 30.2146 68.3673 30.102 68.3673 29.8769C68.3673 29.7643 68.3673 29.5391 68.3673 29.2013C68.3673 29.0887 68.4745 28.9761 68.5816 28.8635C68.6888 28.7509 68.7959 28.8635 68.903 28.8635C69.3316 29.2013 69.8673 29.5391 70.403 29.8769C72.0101 31.1154 73.0815 32.0161 73.9386 32.5791L74.1529 32.8043C73.9386 33.0295 73.9386 33.0295 73.8314 33.2546Z" fill="white"/>
<path d="M88.7238 46.0903C85.7239 49.8058 82.6169 45.7525 79.5099 47.2162C78.1171 47.8918 77.0457 48.2295 76.4028 48.2295C75.4386 48.2295 75.01 47.7792 75.01 46.8784C75.01 46.0903 75.3314 45.0769 76.0814 43.7258C76.6171 42.7125 78.2242 39.8977 80.7955 35.394C81.2241 34.7184 81.5455 34.3806 81.7598 34.3806C82.0812 34.3806 82.2955 34.7184 82.4026 35.5065V35.7317C82.4026 35.9569 82.2955 36.0695 82.1883 36.2947C81.4384 37.1954 80.7955 38.2088 80.1527 39.2221C78.7599 41.5866 77.7956 43.5006 77.3671 44.9643C77.2599 45.3021 77.2599 45.6399 77.2599 45.8651C77.2599 46.7658 77.5814 47.1036 78.3313 47.1036C78.5456 47.1036 78.7599 47.1036 78.9742 46.991C83.7801 43.7258 85.5097 50.2562 88.7238 46.0903ZM86.0454 29.5391C86.0454 29.9895 85.8311 30.4399 85.5097 30.7776C85.1882 31.1154 84.7597 31.4532 84.3311 31.4532C83.9026 31.4532 83.6883 31.228 83.6883 30.7776C83.6883 30.3273 83.9026 29.8769 84.224 29.4265C84.5454 28.9762 84.974 28.751 85.4025 28.751C85.8311 28.8636 86.0454 29.0888 86.0454 29.5391Z" fill="white"/>
<path d="M45.3325 64.7918V69.0703C45.3325 69.1829 45.4396 69.2955 45.5468 69.5207H43.9397C44.0468 69.2955 44.154 69.1829 44.154 69.0703V60.1755C44.154 60.0629 44.0468 59.9503 43.9397 59.7251H45.5468C45.4396 59.9503 45.3325 60.0629 45.3325 60.1755V64.3414L49.0824 60.2881C49.1895 60.1755 49.1895 59.9503 49.1895 59.7251H50.4752C50.3681 59.8377 50.1538 59.9503 49.8324 60.1755L46.1896 64.1162L50.7966 69.0703C50.9038 69.1829 51.118 69.2955 51.4395 69.5207H49.1895C49.2967 69.2955 49.2967 69.1829 49.1895 69.0703L45.3325 64.7918Z" fill="#FFFBFB"/>
<path d="M60.7608 60.1755V69.0703C60.7608 69.1829 60.8679 69.2955 60.9751 69.5207H59.368C59.4751 69.2955 59.5823 69.1829 59.5823 69.0703V64.3414H53.5825V69.0703C53.5825 69.1829 53.6896 69.2955 53.7968 69.5207H52.1897C52.2968 69.2955 52.2968 69.1829 52.2968 69.0703V60.1755C52.2968 60.0629 52.1897 59.9503 52.0825 59.7251H53.6896C53.5825 59.9503 53.4753 60.0629 53.4753 60.1755V63.891H59.4751V60.1755C59.4751 60.0629 59.368 59.9503 59.2609 59.7251H60.8679C60.7608 59.9503 60.7608 60.0629 60.7608 60.1755Z" fill="#FFFBFB"/>
<path d="M71.7958 64.5669C71.7958 65.9181 71.2601 67.1566 70.2959 68.1699C69.3316 69.1832 68.1531 69.6336 66.7603 69.6336C65.3675 69.6336 64.1889 69.1832 63.2247 68.1699C62.2604 67.1566 61.7247 66.0307 61.7247 64.5669C61.7247 63.2158 62.2604 61.9773 63.2247 60.964C64.1889 59.9506 65.3675 59.5003 66.7603 59.5003C68.1531 59.5003 69.3316 59.9506 70.2959 60.964C71.2601 61.9773 71.7958 63.2158 71.7958 64.5669ZM70.6173 64.6795C70.6173 63.3284 70.2959 62.2025 69.653 61.3018C68.9031 60.401 67.9388 59.9506 66.6531 59.9506C65.4746 59.9506 64.5104 60.401 63.7604 61.3018C63.0104 62.2025 62.689 63.2158 62.689 64.5669C62.689 65.8055 63.1175 66.9314 63.8675 67.8321C64.6175 68.7329 65.5817 69.1832 66.6531 69.1832C67.7245 69.1832 68.6888 68.7329 69.4388 67.8321C70.1887 66.9314 70.6173 65.9181 70.6173 64.6795ZM64.9389 58.9373L66.8674 56.9106L68.7959 58.9373H68.4745L66.8674 57.6988L65.2603 58.9373H64.9389Z" fill="#FFFBFB"/>
<path d="M81.5456 69.6333L73.5102 60.851V69.0703C73.5102 69.2955 73.6173 69.4081 73.8316 69.5207H72.7602C72.9745 69.4081 73.0816 69.2955 73.0816 69.0703V60.5132C72.9745 60.1755 72.8674 59.9503 72.6531 59.8377H74.4744C74.4744 59.9503 74.4744 60.0629 74.4744 60.0629C74.4744 60.1755 74.4744 60.1755 74.4744 60.1755L81.1171 67.494V60.1755C81.1171 59.9503 81.0099 59.8377 80.7957 59.7251H81.8671C81.6528 59.8377 81.5456 59.9503 81.5456 60.1755V69.6333Z" fill="#FFFBFB"/>
<path d="M90.974 65.1299V68.9581C89.5811 69.4085 88.4026 69.5211 87.6526 69.5211C86.2598 69.5211 85.0813 69.0707 84.117 68.0573C83.1528 67.044 82.6171 65.9181 82.6171 64.567C82.6171 63.2159 83.0456 61.9773 83.9027 60.964C84.867 59.9507 86.0455 59.3877 87.5455 59.3877C88.6169 59.3877 89.474 59.5003 90.224 59.7255L90.8668 59.8381V60.7388C90.5454 60.401 90.1168 60.0633 89.5811 59.9507C89.2597 59.8381 88.724 59.8381 88.0812 59.7255C86.6884 59.7255 85.617 60.1758 84.7599 61.0766C84.0099 61.9773 83.5813 62.9907 83.5813 64.3418C83.5813 65.5803 84.0099 66.7062 84.867 67.4944C85.7241 68.3951 86.7955 68.8455 88.0812 68.8455C88.724 68.8455 89.2597 68.7329 89.6883 68.6203V64.9047C89.6883 64.7921 89.5811 64.6796 89.474 64.4544H91.0811C90.974 64.9047 90.974 65.0173 90.974 65.1299Z" fill="#FFFBFB"/>
<path d="M100.509 60.1755V69.0703C100.509 69.1829 100.616 69.2955 100.723 69.5207H99.1163C99.2234 69.2955 99.3306 69.1829 99.3306 69.0703V60.1755H96.0092C95.795 60.1755 95.6878 60.2881 95.5807 60.5133V59.7251H104.152V60.5133C104.045 60.2881 103.938 60.1755 103.723 60.1755H100.509Z" fill="#FFFBFB"/>
<path d="M113.473 60.1755V69.0703C113.473 69.1829 113.58 69.2955 113.687 69.5207H112.08C112.187 69.2955 112.295 69.1829 112.295 69.0703V64.3414H106.295V69.0703C106.295 69.1829 106.402 69.2955 106.509 69.5207H104.902C105.009 69.2955 105.116 69.1829 105.116 69.0703V60.1755C105.116 60.0629 105.009 59.9503 104.902 59.7251H106.509C106.402 59.9503 106.295 60.0629 106.295 60.1755V63.891H112.295V60.1755C112.295 60.0629 112.187 59.9503 112.08 59.7251H113.687C113.58 59.9503 113.473 60.0629 113.473 60.1755Z" fill="#FFFBFB"/>
<path d="M115.83 60.1759V64.567H118.294C118.509 64.567 118.616 64.4544 118.723 64.2293V65.3552C118.616 65.13 118.509 65.0174 118.402 65.0174H115.83V69.0707H118.402C118.616 69.0707 118.83 68.9582 118.937 68.733L118.723 69.5211H114.437C114.545 69.2959 114.652 69.1833 114.652 69.0707V60.1759C114.652 60.0633 114.545 59.9507 114.437 59.7255H118.723V60.5137C118.616 60.2885 118.509 60.1759 118.294 60.1759H115.83ZM114.759 58.9374L116.687 56.9107L118.616 58.9374H118.294L116.687 57.6989L115.08 58.9374H114.759ZM117.437 57.3611V56.5729C117.759 56.3478 117.866 56.2352 117.973 56.1226C118.08 55.8974 118.187 55.6722 118.294 55.3344C118.294 55.1092 118.294 54.9966 118.187 54.7715C118.08 54.5463 117.973 54.4337 117.759 54.4337C117.652 54.4337 117.437 54.5463 117.33 54.6589C117.223 54.7715 117.116 54.9966 117.116 55.2218C117.116 55.3344 117.116 55.3344 117.116 55.447C117.116 55.447 117.116 55.447 117.223 55.5596L116.152 56.01C116.259 55.7848 116.366 55.6722 116.366 55.6722C116.366 55.2218 116.473 54.8841 116.687 54.6589C116.902 54.4337 117.33 54.2085 117.652 54.2085C117.973 54.2085 118.402 54.3211 118.616 54.5463C118.83 54.7715 119.044 55.1092 119.044 55.447C119.044 55.6722 118.937 56.01 118.616 56.2352C118.402 56.4604 118.187 56.6855 117.973 56.6855V57.1359L117.437 57.3611Z" fill="#FFFBFB"/>
<path d="M133.83 69.8585C133.508 69.9711 133.187 70.0837 132.865 70.0837C132.115 70.0837 131.365 69.7459 130.723 69.0704C129.973 69.4082 129.223 69.6333 128.473 69.6333C127.08 69.6333 125.901 69.183 124.937 68.1696C123.973 67.1563 123.437 66.0304 123.437 64.5667C123.437 63.2156 123.973 61.977 124.937 60.9637C125.901 59.9504 127.08 59.5 128.473 59.5C129.865 59.5 131.044 59.9504 132.008 60.9637C132.973 61.977 133.508 63.103 133.508 64.5667C133.508 66.143 132.972 67.3815 131.794 68.3948C132.651 69.4082 133.401 69.8585 133.83 69.8585ZM132.437 64.6793C132.437 63.3282 132.115 62.2022 131.473 61.3015C130.723 60.4007 129.758 59.9504 128.473 59.9504C127.294 59.9504 126.33 60.4007 125.58 61.3015C124.83 62.2022 124.509 63.2156 124.509 64.5667C124.509 65.8052 124.937 66.9311 125.687 67.8319C126.437 68.7326 127.401 69.183 128.473 69.183C129.544 69.183 130.508 68.7326 131.258 67.8319C132.008 66.9311 132.437 65.9178 132.437 64.6793Z" fill="#FFFBFB"/>
<path d="M142.829 60.1755V69.0703C142.829 69.1829 142.936 69.2955 143.044 69.5207H141.436C141.544 69.2955 141.651 69.1829 141.651 69.0703V68.2822C140.901 69.1829 139.829 69.6333 138.544 69.6333C137.579 69.6333 136.83 69.2955 135.972 68.7325C135.222 68.057 134.794 67.2688 134.794 66.2555V60.1755C134.794 60.0629 134.687 59.9503 134.58 59.7251H136.187C136.08 59.9503 135.972 60.0629 135.972 60.1755V66.2555C135.972 66.8184 136.294 67.3814 136.83 67.9444C137.365 68.3947 137.794 68.7325 138.115 68.8451C138.329 68.8451 138.544 68.9577 138.865 68.9577C139.615 68.9577 140.258 68.7325 140.901 68.3947C141.436 68.057 141.651 67.8318 141.651 67.7192V60.1755C141.651 60.0629 141.544 59.9503 141.436 59.7251H143.044C142.829 59.9503 142.829 60.0629 142.829 60.1755Z" fill="#FFFBFB"/>
<path d="M145.079 60.1758V64.567H147.543C147.758 64.567 147.865 64.4544 147.972 64.2292V65.3551C147.865 65.1299 147.758 65.0173 147.65 65.0173H145.079V69.0707H147.65C147.865 69.0707 148.079 68.9581 148.186 68.7329L147.972 69.521H143.686C143.793 69.2959 143.901 69.1833 143.901 69.0707V60.1758C143.901 60.0632 143.793 59.9507 143.686 59.7255H147.972V60.5136C147.865 60.2884 147.758 60.1758 147.543 60.1758H145.079ZM144.008 58.9373L145.936 56.9106L147.865 58.9373H147.65L146.043 57.6988L144.436 58.9373H144.008Z" fill="#FFFBFB"/>
<path d="M157.829 69.6333L149.794 60.851V69.0703C149.794 69.2955 149.901 69.4081 150.115 69.5207H149.044C149.258 69.4081 149.365 69.2955 149.365 69.0703V60.5132C149.258 60.1755 149.151 59.9503 148.936 59.8377H150.758C150.758 59.9503 150.758 60.0629 150.758 60.0629C150.758 60.1755 150.758 60.1755 150.758 60.1755L157.4 67.494V60.1755C157.4 59.9503 157.293 59.8377 157.079 59.7251H158.15C157.936 59.8377 157.829 59.9503 157.829 60.1755V69.6333Z" fill="#FFFBFB"/>
<path d="M43.999 52.9888H158.327" stroke="#E1E1E1" stroke-opacity="0.5" stroke-width="0.5"/>
<path d="M46.2817 84.314H47.0117V75.7764H49.9443V75.0781H43.3936V75.7764H46.2817V84.314ZM55.9162 77.9346C55.3957 77.9346 54.926 78.0488 54.5007 78.2773C54.0754 78.5059 53.7326 78.8232 53.466 79.2295H53.4406V74.7417H52.7551V84.314H53.4406V81.1846C53.4406 80.3975 53.6501 79.769 54.0754 79.293C54.4943 78.8232 55.0593 78.582 55.7575 78.582C56.0114 78.582 56.2336 78.6138 56.424 78.6772C56.6145 78.7407 56.7858 78.8486 56.9445 79.001C57.0969 79.1533 57.2175 79.3628 57.3 79.6421C57.3825 79.9214 57.427 80.2578 57.427 80.6577V84.314H58.1125V80.5688C58.1125 79.6611 57.9157 78.9946 57.5349 78.5693C57.154 78.1504 56.6145 77.9346 55.9162 77.9346ZM66.8012 80.9878C66.8012 80.4102 66.6806 79.8896 66.4521 79.4263C66.2172 78.9692 65.8808 78.6074 65.4491 78.3408C65.0111 78.0742 64.5097 77.9409 63.9511 77.9409C63.5385 77.9409 63.1513 78.0234 62.7895 78.1821C62.4276 78.3408 62.1166 78.5566 61.85 78.8359C61.5834 79.1152 61.3739 79.458 61.2216 79.8579C61.0692 80.2642 60.9931 80.6958 60.9931 81.1592C60.9931 81.6289 61.0692 82.0669 61.2279 82.4668C61.3803 82.873 61.5961 83.2095 61.869 83.4888C62.142 83.7681 62.4657 83.9902 62.8466 84.1426C63.2274 84.3013 63.6337 84.3774 64.0653 84.3774C64.5985 84.3774 65.0683 84.2759 65.4872 84.0664C65.9062 83.8569 66.2553 83.5649 66.5346 83.1968L66.0458 82.7778C65.8046 83.0762 65.5189 83.311 65.1825 83.4761C64.8461 83.6475 64.4716 83.73 64.059 83.73C63.3988 83.73 62.8466 83.5078 62.4086 83.0635C61.9643 82.6191 61.7294 82.0415 61.6977 81.3242H66.7821C66.7948 81.2861 66.8012 81.1782 66.8012 80.9878ZM64.0082 78.5884C64.3891 78.5884 64.7382 78.6772 65.0429 78.855C65.3476 79.0327 65.5888 79.2739 65.7729 79.5913C65.9506 79.9087 66.0648 80.2769 66.1156 80.6895H61.723C61.7802 80.2705 61.9198 79.9023 62.1356 79.585C62.3515 79.2676 62.6181 79.02 62.9418 78.8486C63.2655 78.6772 63.621 78.5884 64.0082 78.5884ZM78.2308 84.3774C78.7513 84.3774 79.2273 84.2949 79.659 84.1172C80.0906 83.9395 80.4588 83.6919 80.7635 83.3682C81.0682 83.0508 81.303 82.6509 81.4681 82.1748C81.6331 81.7051 81.722 81.1782 81.722 80.5942V75.0781H80.992V80.5371C80.992 81.502 80.7381 82.2637 80.2303 82.8223C79.7225 83.3809 79.056 83.6538 78.2308 83.6538C77.6849 83.6538 77.2024 83.5332 76.7898 83.2793C76.3709 83.0254 76.0535 82.6636 75.825 82.1938C75.5965 81.7241 75.4822 81.1719 75.4822 80.5371V75.0781H74.7522V80.5942C74.7522 81.1782 74.8348 81.7114 75.0062 82.1875C75.1712 82.6699 75.4124 83.0635 75.7171 83.3809C76.0218 83.6982 76.3899 83.9458 76.8216 84.1172C77.2469 84.2949 77.7166 84.3774 78.2308 84.3774ZM88.3096 77.9346C87.7891 77.9346 87.3193 78.0488 86.894 78.2773C86.4688 78.5059 86.126 78.8232 85.8594 79.2295H85.834V77.998H85.1484V84.314H85.834V81.1846C85.834 80.3975 86.0435 79.769 86.4688 79.293C86.8877 78.8232 87.4526 78.582 88.1509 78.582C88.335 78.582 88.5063 78.6011 88.6587 78.6392C88.811 78.6772 88.9507 78.7471 89.0903 78.8423C89.23 78.9375 89.3442 79.0645 89.4395 79.2168C89.5347 79.3691 89.6108 79.5723 89.668 79.8135C89.7188 80.0547 89.7505 80.3403 89.7505 80.6577V84.314H90.436V80.5688C90.436 79.6675 90.2456 79.001 89.8711 78.5757C89.4902 78.1504 88.9697 77.9346 88.3096 77.9346ZM93.9387 84.314H94.6242V78.6328H96.6364V77.998H94.6242V76.6587C94.6242 76.2017 94.7131 75.8716 94.8972 75.6558C95.0812 75.4399 95.3352 75.332 95.6525 75.332C96.0207 75.332 96.4079 75.4399 96.8015 75.6558L96.9475 75.0464C96.5222 74.8052 96.0715 74.6782 95.5954 74.6782C95.0749 74.6782 94.6687 74.8433 94.3767 75.1606C94.0847 75.4844 93.9387 75.9668 93.9387 76.6016V77.998H93.1135V78.6328H93.9387V84.314ZM101.891 84.3774C102.488 84.3774 103.034 84.2441 103.522 83.9775C104.005 83.7109 104.392 83.3301 104.671 82.835C104.951 82.3462 105.09 81.7876 105.09 81.1655C105.09 80.5371 104.951 79.9785 104.671 79.4834C104.392 78.9883 104.005 78.6074 103.522 78.3408C103.034 78.0742 102.488 77.9346 101.891 77.9346C101.415 77.9346 100.977 78.0234 100.571 78.1885C100.164 78.3599 99.828 78.5884 99.5551 78.8804C99.2758 79.1724 99.06 79.5151 98.9076 79.9087C98.7553 80.3022 98.6791 80.7212 98.6791 81.1655C98.6791 81.6099 98.7553 82.0225 98.9076 82.416C99.06 82.8096 99.2758 83.1523 99.5551 83.438C99.828 83.73 100.164 83.9585 100.571 84.1235C100.977 84.2949 101.415 84.3774 101.891 84.3774ZM101.885 83.73C101.396 83.73 100.958 83.6157 100.577 83.3872C100.19 83.1587 99.8915 82.8477 99.6884 82.4541C99.4789 82.0669 99.3773 81.6353 99.3773 81.1655C99.3773 80.6958 99.4789 80.2642 99.682 79.8706C99.8852 79.4771 100.183 79.166 100.571 78.9312C100.952 78.7026 101.39 78.582 101.885 78.582C102.227 78.582 102.558 78.6455 102.862 78.7725C103.167 78.8994 103.433 79.0708 103.662 79.293C103.884 79.5215 104.062 79.7944 104.195 80.1182C104.322 80.4419 104.392 80.791 104.392 81.1655C104.392 81.6606 104.278 82.105 104.056 82.4985C103.827 82.8921 103.529 83.1968 103.148 83.4126C102.767 83.6284 102.342 83.73 101.885 83.73ZM110.954 77.9346C110.497 77.9346 110.078 78.0488 109.71 78.2646C109.342 78.4868 109.037 78.7979 108.809 79.1978H108.777V77.998H108.091V84.314H108.777V81.2163C108.777 80.4673 108.967 79.8579 109.355 79.3882C109.735 78.9185 110.25 78.6772 110.891 78.6772C110.961 78.6772 111.094 78.6899 111.291 78.7026V77.9409C111.214 77.9409 111.107 77.9346 110.954 77.9346ZM118.621 77.998V79.1216H118.596C118.323 78.7471 117.98 78.4551 117.567 78.2456C117.148 78.0425 116.704 77.9346 116.221 77.9346C115.777 77.9346 115.365 78.0171 114.984 78.1758C114.603 78.3408 114.285 78.563 114.025 78.8423C113.759 79.1216 113.555 79.458 113.409 79.8452C113.257 80.2324 113.187 80.645 113.187 81.0894C113.187 81.5527 113.263 81.978 113.422 82.3716C113.581 82.7651 113.797 83.0889 114.076 83.3555C114.349 83.6221 114.673 83.8252 115.047 83.9712C115.422 84.1235 115.822 84.1934 116.247 84.1934C116.742 84.1934 117.193 84.0981 117.599 83.895C117.999 83.6919 118.329 83.4062 118.596 83.0381H118.621V84.1172C118.621 84.4346 118.57 84.7266 118.475 84.9868C118.38 85.2534 118.24 85.4819 118.05 85.6787C117.859 85.8755 117.618 86.0278 117.32 86.1357C117.015 86.25 116.672 86.3008 116.285 86.3008C115.834 86.3008 115.422 86.25 115.054 86.1357C114.679 86.0215 114.292 85.8438 113.898 85.5962L113.727 86.2437C114.501 86.7134 115.358 86.9482 116.298 86.9482C116.805 86.9482 117.25 86.8784 117.637 86.7324C118.018 86.5928 118.335 86.3896 118.576 86.123C118.818 85.8628 118.995 85.5581 119.116 85.2026C119.237 84.8472 119.3 84.4536 119.3 84.0156V77.998H118.621ZM116.272 83.5459C115.949 83.5459 115.644 83.4888 115.352 83.3745C115.06 83.2603 114.806 83.0952 114.59 82.8794C114.374 82.6699 114.203 82.4097 114.076 82.0923C113.949 81.7812 113.886 81.4385 113.886 81.0703C113.886 80.6006 113.987 80.1816 114.19 79.8008C114.393 79.4199 114.673 79.1216 115.041 78.9058C115.403 78.6899 115.815 78.582 116.279 78.582C116.539 78.582 116.786 78.6201 117.028 78.6963C117.262 78.7725 117.478 78.8804 117.675 79.02C117.866 79.166 118.037 79.3374 118.183 79.5278C118.329 79.7246 118.443 79.9531 118.519 80.207C118.596 80.4609 118.64 80.7339 118.64 81.0195C118.64 81.3813 118.583 81.7178 118.469 82.0288C118.354 82.3398 118.196 82.6064 117.992 82.8286C117.789 83.0571 117.535 83.2285 117.243 83.3555C116.945 83.4824 116.621 83.5459 116.272 83.5459ZM128.021 80.9878C128.021 80.4102 127.9 79.8896 127.671 79.4263C127.437 78.9692 127.1 78.6074 126.668 78.3408C126.23 78.0742 125.729 77.9409 125.17 77.9409C124.758 77.9409 124.371 78.0234 124.009 78.1821C123.647 78.3408 123.336 78.5566 123.069 78.8359C122.803 79.1152 122.593 79.458 122.441 79.8579C122.289 80.2642 122.212 80.6958 122.212 81.1592C122.212 81.6289 122.289 82.0669 122.447 82.4668C122.6 82.873 122.815 83.2095 123.088 83.4888C123.361 83.7681 123.685 83.9902 124.066 84.1426C124.447 84.3013 124.853 84.3774 125.285 84.3774C125.818 84.3774 126.288 84.2759 126.707 84.0664C127.125 83.8569 127.475 83.5649 127.754 83.1968L127.265 82.7778C127.024 83.0762 126.738 83.311 126.402 83.4761C126.065 83.6475 125.691 83.73 125.278 83.73C124.618 83.73 124.066 83.5078 123.628 83.0635C123.184 82.6191 122.949 82.0415 122.917 81.3242H128.001C128.014 81.2861 128.021 81.1782 128.021 80.9878ZM125.228 78.5884C125.608 78.5884 125.958 78.6772 126.262 78.855C126.567 79.0327 126.808 79.2739 126.992 79.5913C127.17 79.9087 127.284 80.2769 127.335 80.6895H122.942C123 80.2705 123.139 79.9023 123.355 79.585C123.571 79.2676 123.837 79.02 124.161 78.8486C124.485 78.6772 124.84 78.5884 125.228 78.5884ZM132.685 84.3774C133.205 84.3774 133.688 84.2441 134.132 83.9712L133.954 83.3555C133.535 83.5967 133.142 83.7173 132.761 83.7173C132.405 83.7173 132.158 83.6094 132.031 83.3936C131.904 83.1777 131.841 82.8286 131.841 82.3589V78.6328H134.145V77.998H131.841V75.7065L131.155 75.7891V77.998H130.317V78.6328H131.155V82.5303C131.155 83.1396 131.269 83.603 131.504 83.9141C131.739 84.2251 132.133 84.3774 132.685 84.3774ZM138.758 84.3774C139.279 84.3774 139.761 84.2441 140.205 83.9712L140.028 83.3555C139.609 83.5967 139.215 83.7173 138.834 83.7173C138.479 83.7173 138.231 83.6094 138.104 83.3936C137.977 83.1777 137.914 82.8286 137.914 82.3589V78.6328H140.218V77.998H137.914V75.7065L137.228 75.7891V77.998H136.391V78.6328H137.228V82.5303C137.228 83.1396 137.343 83.603 137.578 83.9141C137.812 84.2251 138.206 84.3774 138.758 84.3774ZM147.866 77.998V79.2358H147.84C147.574 78.8296 147.237 78.5059 146.818 78.2773C146.4 78.0488 145.942 77.9346 145.447 77.9346C144.857 77.9346 144.33 78.0806 143.86 78.3726C143.391 78.6646 143.023 79.0581 142.769 79.5532C142.508 80.0483 142.381 80.6006 142.381 81.21C142.381 81.6797 142.458 82.1177 142.623 82.5112C142.788 82.9111 143.01 83.2476 143.289 83.5142C143.568 83.7871 143.892 83.9966 144.273 84.1489C144.648 84.3013 145.047 84.3774 145.473 84.3774C146 84.3774 146.469 84.2695 146.882 84.041C147.288 83.8188 147.625 83.5078 147.879 83.1016H147.898V84.314H148.551V77.998H147.866ZM145.517 83.73C145.041 83.73 144.616 83.6221 144.248 83.3999C143.873 83.1841 143.588 82.8794 143.384 82.4985C143.181 82.1177 143.08 81.686 143.08 81.2163C143.08 80.8291 143.143 80.4673 143.27 80.1372C143.397 79.8071 143.575 79.5278 143.797 79.2993C144.019 79.0771 144.279 78.9058 144.578 78.7788C144.87 78.6519 145.187 78.5884 145.524 78.5884C145.974 78.5884 146.38 78.709 146.742 78.9438C147.104 79.1787 147.383 79.4961 147.587 79.896C147.79 80.2959 147.891 80.7339 147.891 81.2163C147.891 81.5845 147.821 81.9272 147.694 82.2446C147.567 82.562 147.396 82.8223 147.18 83.0381C146.964 83.2539 146.711 83.4253 146.425 83.5459C146.133 83.6729 145.835 83.73 145.517 83.73ZM155.006 77.9346C154.511 77.9346 154.054 78.0488 153.635 78.2773C153.216 78.5059 152.873 78.8296 152.613 79.2358H152.581V74.7417H151.895V84.314H152.562V83.1079H152.581C152.835 83.5078 153.165 83.8188 153.577 84.041C153.984 84.2695 154.453 84.3774 154.98 84.3774C155.399 84.3774 155.799 84.3013 156.18 84.1489C156.554 83.9966 156.885 83.7871 157.164 83.5142C157.443 83.2476 157.659 82.9111 157.824 82.5112C157.989 82.1177 158.072 81.6797 158.072 81.21C158.072 80.8481 158.021 80.499 157.926 80.1626C157.83 79.8325 157.691 79.5278 157.513 79.2612C157.329 78.9946 157.113 78.7598 156.866 78.5566C156.612 78.3599 156.332 78.2075 156.015 78.0996C155.698 77.9917 155.361 77.9346 155.006 77.9346ZM154.936 83.73C154.72 83.73 154.517 83.7046 154.314 83.6475C154.111 83.5967 153.927 83.5142 153.749 83.4126C153.571 83.311 153.412 83.1904 153.266 83.0381C153.12 82.8857 152.993 82.7207 152.892 82.5366C152.79 82.3589 152.708 82.1558 152.651 81.9272C152.587 81.6987 152.562 81.4639 152.562 81.2163C152.562 80.8608 152.619 80.5181 152.74 80.1943C152.854 79.8706 153.019 79.5913 153.222 79.3564C153.425 79.1216 153.679 78.9375 153.977 78.7979C154.269 78.6582 154.587 78.5884 154.929 78.5884C155.26 78.5884 155.571 78.6519 155.869 78.7788C156.167 78.9058 156.428 79.0771 156.65 79.2993C156.872 79.5278 157.05 79.8071 157.177 80.1372C157.304 80.4673 157.373 80.8291 157.373 81.2163C157.373 81.686 157.272 82.1177 157.069 82.4985C156.866 82.8794 156.574 83.1841 156.205 83.3999C155.831 83.6221 155.406 83.73 154.936 83.73ZM161.155 84.314H161.841V74.7417H161.155V84.314ZM170.733 80.9878C170.733 80.4102 170.612 79.8896 170.383 79.4263C170.149 78.9692 169.812 78.6074 169.381 78.3408C168.943 78.0742 168.441 77.9409 167.883 77.9409C167.47 77.9409 167.083 78.0234 166.721 78.1821C166.359 78.3408 166.048 78.5566 165.781 78.8359C165.515 79.1152 165.305 79.458 165.153 79.8579C165.001 80.2642 164.925 80.6958 164.925 81.1592C164.925 81.6289 165.001 82.0669 165.159 82.4668C165.312 82.873 165.528 83.2095 165.8 83.4888C166.073 83.7681 166.397 83.9902 166.778 84.1426C167.159 84.3013 167.565 84.3774 167.997 84.3774C168.53 84.3774 169 84.2759 169.419 84.0664C169.838 83.8569 170.187 83.5649 170.466 83.1968L169.977 82.7778C169.736 83.0762 169.45 83.311 169.114 83.4761C168.778 83.6475 168.403 83.73 167.99 83.73C167.33 83.73 166.778 83.5078 166.34 83.0635C165.896 82.6191 165.661 82.0415 165.629 81.3242H170.714C170.726 81.2861 170.733 81.1782 170.733 80.9878ZM167.94 78.5884C168.321 78.5884 168.67 78.6772 168.974 78.855C169.279 79.0327 169.52 79.2739 169.704 79.5913C169.882 79.9087 169.996 80.2769 170.047 80.6895H165.654C165.712 80.2705 165.851 79.9023 166.067 79.585C166.283 79.2676 166.55 79.02 166.873 78.8486C167.197 78.6772 167.552 78.5884 167.94 78.5884ZM183.006 84.3774C183.635 84.3774 184.232 84.2695 184.79 84.041C185.349 83.8125 185.831 83.5015 186.244 83.0952C186.65 82.6953 186.974 82.2002 187.215 81.6099C187.45 81.0195 187.57 80.3784 187.57 79.6865C187.57 79.001 187.45 78.3662 187.215 77.7822C186.974 77.1982 186.65 76.7031 186.244 76.2969C185.831 75.897 185.349 75.5859 184.79 75.3574C184.232 75.1289 183.635 75.0146 183.006 75.0146C182.334 75.0146 181.712 75.1416 181.14 75.3828C180.563 75.624 180.074 75.9541 179.68 76.373C179.287 76.792 178.976 77.2871 178.754 77.8584C178.531 78.4297 178.423 79.0391 178.423 79.6865C178.423 80.3403 178.531 80.9561 178.754 81.5273C178.976 82.105 179.287 82.6001 179.68 83.019C180.074 83.438 180.563 83.7744 181.14 84.0156C181.712 84.2568 182.334 84.3774 183.006 84.3774ZM183.006 83.6538C182.556 83.6538 182.13 83.5903 181.737 83.457C181.337 83.3237 180.982 83.1333 180.677 82.8921C180.372 82.6509 180.106 82.3652 179.883 82.0352C179.655 81.7051 179.483 81.3433 179.369 80.9434C179.255 80.5435 179.198 80.1245 179.198 79.6865C179.198 79.1533 179.287 78.6392 179.477 78.1567C179.661 77.6743 179.915 77.2554 180.245 76.8999C180.569 76.5444 180.969 76.2588 181.451 76.0493C181.927 75.8462 182.448 75.7383 183.006 75.7383C183.527 75.7383 184.016 75.8398 184.479 76.0303C184.942 76.2207 185.342 76.4873 185.685 76.8301C186.028 77.1729 186.295 77.5854 186.498 78.0806C186.694 78.5757 186.796 79.1152 186.796 79.6865C186.796 80.2642 186.694 80.8037 186.498 81.2988C186.295 81.7939 186.028 82.2129 185.685 82.5557C185.342 82.8984 184.942 83.1714 184.479 83.3618C184.016 83.5586 183.527 83.6538 183.006 83.6538ZM193.904 77.9346C193.384 77.9346 192.914 78.0488 192.489 78.2773C192.063 78.5059 191.721 78.8232 191.454 79.2295H191.429V77.998H190.743V84.314H191.429V81.1846C191.429 80.3975 191.638 79.769 192.063 79.293C192.482 78.8232 193.047 78.582 193.745 78.582C193.929 78.582 194.101 78.6011 194.253 78.6392C194.406 78.6772 194.545 78.7471 194.685 78.8423C194.825 78.9375 194.939 79.0645 195.034 79.2168C195.129 79.3691 195.205 79.5723 195.262 79.8135C195.313 80.0547 195.345 80.3403 195.345 80.6577V84.314H196.031V80.5688C196.031 79.6675 195.84 79.001 195.466 78.5757C195.085 78.1504 194.564 77.9346 193.904 77.9346ZM204.713 80.9878C204.713 80.4102 204.592 79.8896 204.364 79.4263C204.129 78.9692 203.792 78.6074 203.361 78.3408C202.923 78.0742 202.421 77.9409 201.863 77.9409C201.45 77.9409 201.063 78.0234 200.701 78.1821C200.339 78.3408 200.028 78.5566 199.762 78.8359C199.495 79.1152 199.286 79.458 199.133 79.8579C198.981 80.2642 198.905 80.6958 198.905 81.1592C198.905 81.6289 198.981 82.0669 199.14 82.4668C199.292 82.873 199.508 83.2095 199.781 83.4888C200.054 83.7681 200.377 83.9902 200.758 84.1426C201.139 84.3013 201.545 84.3774 201.977 84.3774C202.51 84.3774 202.98 84.2759 203.399 84.0664C203.818 83.8569 204.167 83.5649 204.446 83.1968L203.958 82.7778C203.716 83.0762 203.431 83.311 203.094 83.4761C202.758 83.6475 202.383 83.73 201.971 83.73C201.311 83.73 200.758 83.5078 200.32 83.0635C199.876 82.6191 199.641 82.0415 199.609 81.3242H204.694C204.707 81.2861 204.713 81.1782 204.713 80.9878ZM201.92 78.5884C202.301 78.5884 202.65 78.6772 202.955 78.855C203.259 79.0327 203.5 79.2739 203.685 79.5913C203.862 79.9087 203.977 80.2769 204.027 80.6895H199.635C199.692 80.2705 199.832 79.9023 200.047 79.585C200.263 79.2676 200.53 79.02 200.854 78.8486C201.177 78.6772 201.533 78.5884 201.92 78.5884Z" fill="white"/>
</svg>
