<svg width="258" height="45" viewBox="0 0 258 45" fill="none" xmlns="http://www.w3.org/2000/svg">
<path d="M55.3151 28.8893C56.5441 27.3258 57.2556 25.3546 59.1961 24.5389C62.7536 22.9755 65.3409 20.0525 67.6048 16.9257C69.6099 14.2067 71.3563 11.3518 73.4262 8.29291C72.9087 8.42886 72.7146 8.49684 72.2619 8.56481C75.0432 6.66152 75.69 3.60266 77.2424 0.951646C75.2373 1.49544 70.3861 5.84583 66.7639 10.3322C63.7885 14.0028 61.0718 17.9453 59.4548 22.8395C60.231 16.178 70.7095 2.10722 77.8892 0C77.3071 1.56342 76.919 3.05886 76.2722 4.41836C73.1674 11.0799 69.1571 17.1296 63.9179 22.1598C62.4302 23.5872 60.425 24.4029 58.7433 25.6265C57.7731 26.3062 56.0913 27.8017 55.3151 28.8893Z" fill="white"/>
<path d="M61.007 21.4123C64.4999 15.7704 68.5749 10.2644 73.1026 5.43823C69.0923 10.6723 65.0173 16.1103 61.007 21.4123Z" fill="white"/>
<path d="M28.6543 13.0753C28.6543 13.7551 28.4602 14.5028 28.1368 15.4544C28.0721 15.5904 28.0074 15.7263 27.9428 15.7263C27.8781 15.7263 27.8134 15.6583 27.8134 15.5904C27.8134 15.5224 27.8781 15.3185 28.0074 14.9106C28.1368 14.5028 28.2015 14.2309 28.2015 13.959C28.2015 13.2792 27.6193 12.8714 26.4551 12.8714C25.7436 12.8714 24.5793 13.0073 22.8975 13.2113C23.6737 14.2309 24.0618 15.3185 24.0618 16.542C24.0618 18.5133 22.9622 21.0963 20.763 24.2911C19.8575 25.5827 18.9519 26.6703 17.917 27.6219C16.5587 28.8454 15.3944 29.5252 14.3595 29.5252C13.0658 29.5252 12.4837 28.3696 12.4837 26.1265C12.4837 25.8546 12.4837 25.3108 12.419 24.4271C12.3543 23.5434 12.3543 22.8637 12.3543 22.2519C12.3543 21.1643 12.3543 19.193 12.2896 16.4061C12.225 15.3864 11.9662 14.9106 11.4488 14.9106C11.1254 14.9106 10.6726 15.2505 10.0904 15.8623C8.0206 18.1734 6.08014 20.9604 4.13967 24.3591C2.9107 26.6023 1.87579 28.6415 1.16428 30.5448C0.711505 31.6324 0.517458 32.5841 0.517458 33.4677V33.7396C0.517458 33.8756 0.517458 33.9435 0.452776 33.9435C0.323411 33.9435 0.194047 33.4677 0 32.4481C0 32.3122 0 32.2442 0 32.1762C0 31.8363 0.0646823 31.4965 0.258729 31.0886C1.16428 28.4376 2.97539 25.1748 5.69204 21.1643C7.95592 17.7656 9.83171 15.3185 11.2547 13.823C11.7722 13.2792 12.225 13.0073 12.613 13.0073C13.1305 13.0073 13.3892 13.7551 13.3892 15.2505C13.3892 15.8623 13.3892 16.7459 13.3892 17.9695C13.3892 19.193 13.3892 20.0767 13.3892 20.6885C13.3892 22.048 13.3892 23.1356 13.4539 23.8833C13.5186 25.2428 13.648 26.2624 13.7773 26.8062C14.1007 28.0297 14.6829 28.6415 15.4591 28.6415C15.9118 28.6415 16.4293 28.4376 16.9468 28.0297C18.1757 27.0781 19.34 25.6506 20.4396 23.8153C22.3154 20.6885 23.2856 17.9015 23.2856 15.5904C23.2856 14.5708 23.0916 13.823 22.6388 13.2113C21.6686 13.3472 20.8924 13.4152 20.3102 13.4152C19.2753 13.4152 18.4345 13.2113 17.8523 12.8034C17.5289 12.5995 17.3349 12.3956 17.3349 12.0557C17.3349 11.5119 17.9817 11.24 19.2106 11.24C20.5043 11.24 21.6039 11.7158 22.4448 12.5995L24.644 12.0557C25.4848 11.8518 26.261 11.7838 26.9078 11.7838C28.0721 11.7838 28.6543 12.1916 28.6543 13.0753ZM22.1213 12.6675C21.4745 12.1237 20.6336 11.8518 19.5341 11.8518C18.4345 11.8518 17.917 12.0557 17.9817 12.4635C18.0464 12.8714 18.4991 13.0753 19.4694 13.0753C20.1162 13.0073 21.0217 12.8714 22.1213 12.6675Z" fill="white"/>
<path d="M31.5649 24.699C31.5649 24.767 31.5649 24.8349 31.5002 24.9029C30.9181 25.8545 29.8185 26.7382 28.2014 27.5539C27.2312 28.0297 26.1962 28.5056 25.032 28.9134C22.8328 32.9919 20.957 35.7789 19.3399 37.2063C17.3995 38.9057 15.5884 39.7894 13.7773 39.7894C12.807 39.7894 11.9015 39.5175 11.1253 39.0417C10.2197 38.4299 9.70227 37.6822 9.70227 36.7305C9.70227 34.3514 12.4836 32.3801 17.9816 30.8167C19.7927 30.2729 21.9919 29.6611 24.5792 28.8454C24.6439 28.7095 24.7732 28.4376 24.9673 28.0297C25.4847 26.8742 26.0022 25.8545 26.455 24.9029C24.9673 26.8742 23.6736 27.8258 22.6387 27.8258C22.1213 27.8258 21.8625 27.5539 21.8625 27.0101C21.8625 26.8062 21.9272 26.6023 22.0566 26.2624C22.4447 25.3107 22.9621 24.4271 23.7383 23.6114C24.5145 22.6597 25.2907 22.048 26.1316 21.6401C26.649 21.4362 27.1018 21.3002 27.5546 21.3002C27.8133 21.3002 28.0074 21.3682 28.1367 21.4362C28.2014 21.3002 28.3954 21.0283 28.6542 20.5525C28.9776 20.0087 29.2363 19.7368 29.3657 19.7368C29.495 19.7368 29.5597 19.8048 29.6244 19.9407V20.0087C29.6244 20.3486 29.4304 20.8924 29.0423 21.5721C28.3954 22.7957 27.2312 24.9709 25.4201 28.0977L25.226 28.4376C26.1316 28.0977 27.1018 27.6899 28.1367 27.214C29.6891 26.3983 30.724 25.5826 31.3061 24.631C31.3708 24.563 31.4355 24.495 31.5002 24.495C31.5002 24.563 31.5649 24.631 31.5649 24.699ZM24.3851 29.0494L17.2701 31.4965C14.1653 32.788 12.0955 34.0115 11.1253 35.2351C10.6078 35.9148 10.3491 36.5946 10.3491 37.1384C10.3491 37.8181 10.6725 38.3619 11.3193 38.7018C11.8368 38.9737 12.4836 39.1096 13.1951 39.1096C15.3943 39.1096 17.5935 37.9541 19.8574 35.5749C21.5391 33.8756 23.0268 31.7004 24.3851 29.0494ZM27.9427 21.7081C27.7486 21.6401 27.5546 21.5721 27.2312 21.5721C26.7784 21.5721 26.3903 21.7081 26.1316 21.912C25.5494 22.3199 24.9673 23.0676 24.2558 24.2232C23.4796 25.3787 23.0915 26.2624 23.0915 26.8742C23.0915 27.0101 23.1562 27.1461 23.2855 27.1461H23.3502C23.609 27.1461 23.9324 26.9421 24.3851 26.5343C25.4847 25.6506 26.649 24.0192 27.9427 21.7081Z" fill="white"/>
<path d="M36.7395 22.3878C35.3812 24.427 34.7344 25.9904 34.7344 26.9421C34.7344 27.5538 35.0578 27.8937 35.7046 27.8937C35.8986 27.8937 36.1574 27.8257 36.4808 27.7578C37.5804 27.4859 38.7447 26.5342 39.9736 24.8348C40.0383 24.7669 40.0383 24.7669 40.103 24.7669C40.1677 24.7669 40.1677 24.7669 40.1677 24.8348C40.1677 24.9028 40.1677 24.9028 40.103 24.9708C38.3566 27.214 36.7395 28.3695 35.3165 28.3695C34.3463 28.3695 33.8288 27.8937 33.8288 26.8741C33.8288 26.5342 33.8935 26.2623 33.9582 25.9224C33.4407 26.6022 32.9879 27.078 32.5998 27.4179C31.953 27.9617 31.4356 28.2336 30.9828 28.2336C30.6594 28.2336 30.4653 28.0297 30.4653 27.6218C30.4653 27.4179 30.53 27.078 30.6594 26.7381C31.1768 25.3107 31.8883 23.8832 32.8586 22.3198C32.9233 22.1838 33.1173 21.9119 33.3113 21.5721C33.4407 21.3681 33.8288 21.1642 34.4109 21.0962C34.605 21.1642 34.6697 21.2322 34.6697 21.2322C34.6697 21.4361 34.5403 21.708 34.2816 21.9799C33.9582 22.3198 33.6994 22.5237 33.6994 22.6597C32.9233 23.9512 32.3411 25.1067 31.953 26.2623C31.8237 26.6702 31.759 26.9421 31.759 27.078C31.759 27.2819 31.8237 27.3499 31.953 27.3499C32.2764 27.3499 32.7939 26.8061 33.5701 25.7185C34.1522 24.7669 35.0578 23.3394 36.2867 21.4361C36.4161 21.2322 36.5455 21.1642 36.6748 21.1642C36.9336 21.1642 37.0629 21.3681 37.0629 21.708C37.0629 21.776 37.0629 21.9119 36.9982 21.9799C37.0629 21.9799 37.0629 21.9119 37.1276 21.9119C37.3863 21.776 37.6451 21.5721 37.7744 21.3002C37.9685 21.0283 37.9038 20.8243 37.7097 20.6884C37.5157 20.5524 37.451 20.4165 37.5804 20.2805C37.7097 20.1446 37.9038 20.0766 38.1625 20.0086C38.4212 19.9407 38.6153 20.0766 38.68 20.2805C38.7447 20.4845 38.7447 20.7564 38.6153 21.0283C38.2272 21.64 37.5804 22.0479 36.7395 22.3878Z" fill="white"/>
<path d="M44.6307 22.1157C45.2128 22.3197 45.9243 22.3876 46.8945 22.3876C47.6707 22.3876 48.3176 22.3197 48.835 22.1157H48.8997C48.9644 22.1157 48.9644 22.1157 48.9644 22.1837C48.9644 22.2517 48.8997 22.3197 48.835 22.3197C47.7354 22.6595 46.8945 22.7955 46.3771 22.7955H45.7303C44.9541 22.7955 44.3073 22.7275 43.7898 22.5916C43.5957 24.2229 42.8196 25.7864 41.4612 27.2138C40.685 28.0295 39.9089 28.4374 39.262 28.4374C38.5505 28.4374 38.2271 28.0975 38.2271 27.4178V27.3498C38.2271 25.7864 39.3267 24.087 41.5906 22.2517C41.914 22.0478 42.1727 21.8438 42.5608 21.6399C42.5608 21.5719 42.5608 21.5719 42.6255 21.504C43.0136 21.1641 43.2723 21.0281 43.337 21.0281C43.4664 21.0281 43.5311 21.0961 43.5311 21.2321C43.5957 21.5719 43.8545 21.8438 44.2426 22.0478C44.2426 22.0478 44.3072 22.0478 44.3072 21.9798C44.566 21.8438 44.8247 21.6399 44.9541 21.368C45.1481 21.0961 45.0834 20.8922 44.8894 20.7562C44.6953 20.6203 44.6307 20.4843 44.76 20.3484C44.8894 20.2124 45.1481 20.0085 45.3422 20.0085C45.5362 20.0085 45.7949 20.0765 45.8596 20.2804C45.9243 20.4843 45.9243 20.7562 45.7949 21.0281C45.5362 21.504 45.1481 21.8438 44.6307 22.1157ZM42.6902 22.9314V22.6595C42.6902 22.1837 42.6255 21.9798 42.4315 21.9798C42.3668 21.9798 42.2374 22.0478 41.9787 22.1837C40.2323 23.5432 39.3914 25.1066 39.3914 27.0099C39.3914 27.5537 39.5208 27.8256 39.8442 27.8256C40.0382 27.8256 40.2323 27.7576 40.5557 27.5537C41.9787 26.5341 42.6902 24.9707 42.6902 22.9314ZM44.566 20.0765C44.5013 20.0765 44.5013 20.0765 44.4366 20.0765C43.2723 19.3967 42.3021 18.785 41.5259 18.3091C41.3965 18.2412 41.2672 18.1732 41.2672 18.0372C41.2672 17.9693 41.2672 17.8333 41.2672 17.6294C41.2672 17.5614 41.3319 17.4934 41.3965 17.4255C41.4612 17.3575 41.5259 17.4255 41.5906 17.4255C41.8493 17.6294 42.1727 17.8333 42.4961 18.0372C43.4664 18.785 44.1132 19.3288 44.6307 19.6686L44.76 19.8046C44.6307 19.9405 44.6307 19.9405 44.566 20.0765Z" fill="white"/>
<path d="M53.5568 27.8258C51.7457 30.0689 49.8699 27.6218 47.9941 28.5055C47.1533 28.9134 46.5064 29.1173 46.1183 29.1173C45.5362 29.1173 45.2775 28.8454 45.2775 28.3016C45.2775 27.8258 45.4715 27.214 45.9243 26.3983C46.2477 25.7865 47.2179 24.0872 48.7703 21.3682C49.029 20.9603 49.2231 20.7564 49.3525 20.7564C49.5465 20.7564 49.6759 20.9603 49.7405 21.4361V21.5721C49.7405 21.708 49.6759 21.776 49.6112 21.912C49.1584 22.4558 48.7703 23.0675 48.3822 23.6793C47.5413 25.1068 46.9592 26.2624 46.7005 27.146C46.6358 27.3499 46.6358 27.5539 46.6358 27.6898C46.6358 28.2336 46.8298 28.4375 47.2826 28.4375C47.412 28.4375 47.5413 28.4375 47.6707 28.3696C50.5722 26.3983 51.6163 30.3408 53.5568 27.8258ZM51.9397 17.8335C51.9397 18.1054 51.8104 18.3773 51.6163 18.5812C51.4223 18.7851 51.1636 18.9891 50.9048 18.9891C50.6461 18.9891 50.5167 18.8531 50.5167 18.5812C50.5167 18.3093 50.6461 18.0374 50.8401 17.7655C51.0342 17.4936 51.2929 17.3577 51.5516 17.3577C51.8104 17.4256 51.9397 17.5616 51.9397 17.8335Z" fill="white"/>
<path d="M27.3606 39.1162V41.6993C27.3606 41.7673 27.4253 41.8352 27.49 41.9712H26.5197C26.5844 41.8352 26.6491 41.7673 26.6491 41.6993V36.3293C26.6491 36.2613 26.5844 36.1933 26.5197 36.0574H27.49C27.4253 36.1933 27.3606 36.2613 27.3606 36.3293V38.8443L29.6245 36.3972C29.6892 36.3293 29.6892 36.1933 29.6892 36.0574H30.4653C30.4007 36.1253 30.2713 36.1933 30.0772 36.3293L27.878 38.7084L30.6594 41.6993C30.7241 41.7673 30.8534 41.8352 31.0475 41.9712H29.6892C29.7538 41.8352 29.7538 41.7673 29.6892 41.6993L27.3606 39.1162Z" fill="#FFFBFB"/>
<path d="M36.6749 36.3293V41.6993C36.6749 41.7673 36.7396 41.8352 36.8043 41.9712H35.8341C35.8987 41.8352 35.9634 41.7673 35.9634 41.6993V38.8443H32.3412V41.6993C32.3412 41.7673 32.4059 41.8352 32.4706 41.9712H31.5004C31.565 41.8352 31.565 41.7673 31.565 41.6993V36.3293C31.565 36.2613 31.5004 36.1933 31.4357 36.0574H32.4059C32.3412 36.1933 32.2765 36.2613 32.2765 36.3293V38.5724H35.8988V36.3293C35.8988 36.2613 35.8341 36.1933 35.7694 36.0574H36.7396C36.6749 36.1933 36.6749 36.2613 36.6749 36.3293Z" fill="#FFFBFB"/>
<path d="M43.3371 38.9804C43.3371 39.7961 43.0137 40.5438 42.4315 41.1556C41.8494 41.7674 41.1379 42.0393 40.297 42.0393C39.4562 42.0393 38.7447 41.7674 38.1625 41.1556C37.5804 40.5438 37.257 39.8641 37.257 38.9804C37.257 38.1647 37.5804 37.417 38.1625 36.8052C38.7447 36.1935 39.4562 35.9216 40.297 35.9216C41.1379 35.9216 41.8494 36.1935 42.4315 36.8052C43.0137 37.417 43.3371 38.1647 43.3371 38.9804ZM42.6256 39.0484C42.6256 38.2327 42.4315 37.553 42.0434 37.0092C41.5907 36.4654 41.0085 36.1935 40.2323 36.1935C39.5208 36.1935 38.9387 36.4654 38.4859 37.0092C38.0331 37.553 37.8391 38.1647 37.8391 38.9804C37.8391 39.7281 38.0978 40.4079 38.5506 40.9517C39.0034 41.4955 39.5855 41.7674 40.2323 41.7674C40.8792 41.7674 41.4613 41.4955 41.9141 40.9517C42.3669 40.4079 42.6256 39.7961 42.6256 39.0484ZM39.1974 35.5817L40.3617 34.3582L41.526 35.5817H41.3319L40.3617 34.834L39.3915 35.5817H39.1974Z" fill="#FFFBFB"/>
<path d="M49.2232 42.0391L44.3721 36.7371V41.6993C44.3721 41.8352 44.4368 41.9032 44.5661 41.9712H43.9193C44.0487 41.9032 44.1133 41.8352 44.1133 41.6993V36.5332C44.0487 36.3293 43.984 36.1933 43.8546 36.1253H44.9542C44.9542 36.1933 44.9542 36.2613 44.9542 36.2613C44.9542 36.3293 44.9542 36.3293 44.9542 36.3293L48.9645 40.7476V36.3293C48.9645 36.1933 48.8998 36.1253 48.7705 36.0574H49.4173C49.2879 36.1253 49.2232 36.1933 49.2232 36.3293V42.0391Z" fill="#FFFBFB"/>
<path d="M54.9152 39.3205V41.6316C54.0744 41.9035 53.3628 41.9715 52.9101 41.9715C52.0692 41.9715 51.3577 41.6996 50.7755 41.0878C50.1934 40.476 49.87 39.7963 49.87 38.9806C49.87 38.1649 50.1287 37.4172 50.6462 36.8054C51.2283 36.1936 51.9398 35.8538 52.8454 35.8538C53.4922 35.8538 54.0097 35.9217 54.4625 36.0577L54.8505 36.1257V36.6695C54.6565 36.4655 54.3978 36.2616 54.0744 36.1936C53.8803 36.1257 53.5569 36.1257 53.1688 36.0577C52.3279 36.0577 51.6811 36.3296 51.1636 36.8734C50.7109 37.4172 50.4521 38.0289 50.4521 38.8446C50.4521 39.5924 50.7109 40.2721 51.2283 40.7479C51.7458 41.2917 52.3926 41.5636 53.1688 41.5636C53.5569 41.5636 53.8803 41.4957 54.139 41.4277V39.1845C54.139 39.1165 54.0744 39.0486 54.0097 38.9126H54.9799C54.9152 39.1845 54.9152 39.2525 54.9152 39.3205Z" fill="#FFFBFB"/>
<path d="M60.6719 36.3293V41.6993C60.6719 41.7673 60.7366 41.8352 60.8013 41.9712H59.831C59.8957 41.8352 59.9604 41.7673 59.9604 41.6993V36.3293H57.9553C57.8259 36.3293 57.7612 36.3972 57.6965 36.5332V36.0574H62.8711V36.5332C62.8064 36.3972 62.7418 36.3293 62.6124 36.3293H60.6719Z" fill="#FFFBFB"/>
<path d="M68.4985 36.3293V41.6993C68.4985 41.7673 68.5632 41.8352 68.6279 41.9712H67.6577C67.7224 41.8352 67.787 41.7673 67.787 41.6993V38.8443H64.1648V41.6993C64.1648 41.7673 64.2295 41.8352 64.2942 41.9712H63.324C63.3887 41.8352 63.4533 41.7673 63.4533 41.6993V36.3293C63.4533 36.2613 63.3887 36.1933 63.324 36.0574H64.2942C64.2295 36.1933 64.1648 36.2613 64.1648 36.3293V38.5724H67.787V36.3293C67.787 36.2613 67.7224 36.1933 67.6577 36.0574H68.6279C68.5632 36.1933 68.4985 36.2613 68.4985 36.3293Z" fill="#FFFBFB"/>
<path d="M69.9216 36.3295V38.9805H71.4093C71.5387 38.9805 71.6034 38.9125 71.668 38.7766V39.4563C71.6034 39.3204 71.5387 39.2524 71.474 39.2524H69.9216V41.6995H71.474C71.6033 41.6995 71.7327 41.6315 71.7974 41.4955L71.668 41.9714H69.0807C69.1454 41.8354 69.2101 41.7674 69.2101 41.6995V36.3295C69.2101 36.2615 69.1454 36.1935 69.0807 36.0576H71.668V36.5334C71.6034 36.3974 71.5387 36.3295 71.4093 36.3295H69.9216ZM69.2748 35.5817L70.4391 34.3582L71.6034 35.5817H71.4093L70.4391 34.834L69.4688 35.5817H69.2748ZM70.8918 34.6301V34.1543C71.0859 34.0183 71.1506 33.9504 71.2153 33.8824C71.2799 33.7464 71.3446 33.6105 71.4093 33.4066C71.4093 33.2706 71.4093 33.2026 71.3446 33.0667C71.2799 32.9307 71.2153 32.8628 71.0859 32.8628C71.0212 32.8628 70.8918 32.9307 70.8272 32.9987C70.7625 33.0667 70.6978 33.2026 70.6978 33.3386C70.6978 33.4066 70.6978 33.4066 70.6978 33.4745C70.6978 33.4745 70.6978 33.4745 70.7625 33.5425L70.1157 33.8144C70.1803 33.6785 70.245 33.6105 70.245 33.6105C70.245 33.3386 70.3097 33.1347 70.4391 32.9987C70.5684 32.8628 70.8272 32.7268 71.0212 32.7268C71.2153 32.7268 71.474 32.7948 71.6034 32.9307C71.7327 33.0667 71.8621 33.2706 71.8621 33.4745C71.8621 33.6105 71.7974 33.8144 71.6034 33.9504C71.474 34.0863 71.3446 34.2222 71.2153 34.2222V34.4941L70.8918 34.6301Z" fill="#FFFBFB"/>
<path d="M80.7881 42.1751C80.5941 42.243 80.4 42.311 80.206 42.311C79.7532 42.311 79.3004 42.1071 78.9124 41.6992C78.4596 41.9032 78.0068 42.0391 77.554 42.0391C76.7132 42.0391 76.0017 41.7672 75.4195 41.1554C74.8374 40.5437 74.514 39.8639 74.514 38.9802C74.514 38.1645 74.8374 37.4168 75.4195 36.8051C76.0017 36.1933 76.7132 35.9214 77.554 35.9214C78.3949 35.9214 79.1064 36.1933 79.6885 36.8051C80.2707 37.4168 80.5941 38.0966 80.5941 38.9802C80.5941 39.9319 80.2707 40.6796 79.5592 41.2914C80.0766 41.9032 80.5294 42.1751 80.7881 42.1751ZM79.9473 39.0482C79.9473 38.2325 79.7532 37.5528 79.3651 37.009C78.9124 36.4652 78.3302 36.1933 77.554 36.1933C76.8425 36.1933 76.2604 36.4652 75.8076 37.009C75.3548 37.5528 75.1608 38.1645 75.1608 38.9802C75.1608 39.728 75.4195 40.4077 75.8723 40.9515C76.3251 41.4953 76.9072 41.7672 77.554 41.7672C78.2009 41.7672 78.783 41.4953 79.2358 40.9515C79.6885 40.4077 79.9473 39.7959 79.9473 39.0482Z" fill="#FFFBFB"/>
<path d="M86.2215 36.3293V41.6993C86.2215 41.7672 86.2862 41.8352 86.3509 41.9712H85.3806C85.4453 41.8352 85.51 41.7672 85.51 41.6993V41.2235C85.0572 41.7672 84.4104 42.0391 83.6342 42.0391C83.0521 42.0391 82.5993 41.8352 82.0818 41.4954C81.6291 41.0875 81.3703 40.6117 81.3703 39.9999V36.3293C81.3703 36.2613 81.3056 36.1933 81.241 36.0574H82.2112C82.1465 36.1933 82.0818 36.2613 82.0818 36.3293V39.9999C82.0818 40.3398 82.2759 40.6797 82.5993 41.0195C82.9227 41.2914 83.1814 41.4954 83.3755 41.5633C83.5048 41.5633 83.6342 41.6313 83.8283 41.6313C84.281 41.6313 84.6691 41.4954 85.0572 41.2914C85.3806 41.0875 85.51 40.9516 85.51 40.8836V36.3293C85.51 36.2613 85.4453 36.1933 85.3806 36.0574H86.3509C86.2215 36.1933 86.2215 36.2613 86.2215 36.3293Z" fill="#FFFBFB"/>
<path d="M87.5798 36.3294V38.9804H89.0675C89.1968 38.9804 89.2615 38.9125 89.3262 38.7765V39.4563C89.2615 39.3203 89.1968 39.2523 89.1321 39.2523H87.5798V41.6994H89.1321C89.2615 41.6994 89.3909 41.6315 89.4556 41.4955L89.3262 41.9713H86.7389C86.8036 41.8354 86.8683 41.7674 86.8683 41.6994V36.3294C86.8683 36.2614 86.8036 36.1935 86.7389 36.0575H89.3262V36.5333C89.2615 36.3974 89.1968 36.3294 89.0675 36.3294H87.5798ZM86.9329 35.5817L88.0972 34.3582L89.2615 35.5817H89.1321L88.1619 34.834L87.1917 35.5817H86.9329Z" fill="#FFFBFB"/>
<path d="M95.2771 42.0391L90.426 36.7371V41.6993C90.426 41.8352 90.4906 41.9032 90.62 41.9712H89.9732C90.1026 41.9032 90.1672 41.8352 90.1672 41.6993V36.5332C90.1026 36.3293 90.0379 36.1933 89.9085 36.1253H91.0081C91.0081 36.1933 91.0081 36.2613 91.0081 36.2613C91.0081 36.3293 91.0081 36.3293 91.0081 36.3293L95.0184 40.7476V36.3293C95.0184 36.1933 94.9537 36.1253 94.8243 36.0574H95.4712C95.3418 36.1253 95.2771 36.1933 95.2771 36.3293V42.0391Z" fill="#FFFBFB"/>
<path d="M26.5555 31.9905H95.578" stroke="#E1E1E1" stroke-opacity="0.5" stroke-width="0.5"/>
<path d="M110.777 42H111.394V34.7759H113.876V34.1851H108.333V34.7759H110.777V42ZM118.929 36.6021C118.489 36.6021 118.091 36.6987 117.731 36.8921C117.371 37.0854 117.081 37.354 116.856 37.6978H116.834V33.9004H116.254V42H116.834V39.3521C116.834 38.686 117.011 38.1543 117.371 37.7515C117.726 37.354 118.204 37.1499 118.795 37.1499C119.01 37.1499 119.198 37.1768 119.359 37.2305C119.52 37.2842 119.665 37.3755 119.799 37.5044C119.928 37.6333 120.03 37.8105 120.1 38.0469C120.17 38.2832 120.207 38.5679 120.207 38.9062V42H120.787V38.8311C120.787 38.063 120.621 37.499 120.299 37.1392C119.976 36.7847 119.52 36.6021 118.929 36.6021ZM128.139 39.1855C128.139 38.6968 128.037 38.2563 127.844 37.8643C127.645 37.4775 127.361 37.1714 126.995 36.9458C126.625 36.7202 126.2 36.6074 125.728 36.6074C125.379 36.6074 125.051 36.6772 124.745 36.8115C124.439 36.9458 124.175 37.1284 123.95 37.3647C123.724 37.6011 123.547 37.8911 123.418 38.2295C123.289 38.5732 123.225 38.9385 123.225 39.3306C123.225 39.728 123.289 40.0986 123.424 40.437C123.552 40.7808 123.735 41.0654 123.966 41.3018C124.197 41.5381 124.471 41.7261 124.793 41.855C125.115 41.9893 125.459 42.0537 125.824 42.0537C126.276 42.0537 126.673 41.9678 127.028 41.7905C127.382 41.6133 127.677 41.3662 127.914 41.0547L127.5 40.7002C127.296 40.9526 127.054 41.1514 126.77 41.291C126.485 41.436 126.168 41.5059 125.819 41.5059C125.26 41.5059 124.793 41.3179 124.423 40.9419C124.047 40.5659 123.848 40.0771 123.821 39.4702H128.123C128.134 39.438 128.139 39.3467 128.139 39.1855ZM125.776 37.1553C126.098 37.1553 126.394 37.2305 126.652 37.3809C126.909 37.5312 127.113 37.7354 127.269 38.0039C127.42 38.2725 127.516 38.584 127.559 38.9331H123.842C123.891 38.5786 124.009 38.2671 124.192 37.9985C124.374 37.73 124.6 37.5205 124.874 37.3755C125.148 37.2305 125.448 37.1553 125.776 37.1553ZM137.811 42.0537C138.251 42.0537 138.654 41.9839 139.019 41.8335C139.384 41.6831 139.696 41.4736 139.954 41.1997C140.211 40.9312 140.41 40.5928 140.55 40.1899C140.689 39.7925 140.765 39.3467 140.765 38.8525V34.1851H140.147V38.8042C140.147 39.6206 139.932 40.2651 139.502 40.7378C139.073 41.2104 138.509 41.4414 137.811 41.4414C137.349 41.4414 136.94 41.3394 136.591 41.1245C136.237 40.9097 135.968 40.6035 135.775 40.2061C135.582 39.8086 135.485 39.3413 135.485 38.8042V34.1851H134.867V38.8525C134.867 39.3467 134.937 39.7979 135.082 40.2007C135.222 40.6089 135.426 40.9419 135.684 41.2104C135.941 41.479 136.253 41.6885 136.618 41.8335C136.978 41.9839 137.375 42.0537 137.811 42.0537ZM146.339 36.6021C145.898 36.6021 145.501 36.6987 145.141 36.8921C144.781 37.0854 144.491 37.354 144.266 37.6978H144.244V36.6558H143.664V42H144.244V39.3521C144.244 38.686 144.421 38.1543 144.781 37.7515C145.136 37.354 145.614 37.1499 146.204 37.1499C146.36 37.1499 146.505 37.166 146.634 37.1982C146.763 37.2305 146.881 37.2896 146.999 37.3701C147.118 37.4507 147.214 37.5581 147.295 37.687C147.375 37.8159 147.44 37.9878 147.488 38.1919C147.531 38.396 147.558 38.6377 147.558 38.9062V42H148.138V38.8311C148.138 38.0684 147.977 37.5044 147.66 37.1445C147.338 36.7847 146.897 36.6021 146.339 36.6021ZM151.102 42H151.682V37.1929H153.385V36.6558H151.682V35.5225C151.682 35.1357 151.757 34.8564 151.913 34.6738C152.069 34.4912 152.283 34.3999 152.552 34.3999C152.864 34.3999 153.191 34.4912 153.524 34.6738L153.648 34.1582C153.288 33.9541 152.907 33.8467 152.504 33.8467C152.063 33.8467 151.72 33.9863 151.472 34.2549C151.225 34.5288 151.102 34.937 151.102 35.4741V36.6558H150.404V37.1929H151.102V42ZM157.831 42.0537C158.336 42.0537 158.798 41.9409 159.211 41.7153C159.619 41.4897 159.947 41.1675 160.183 40.7485C160.42 40.335 160.538 39.8623 160.538 39.3359C160.538 38.8042 160.42 38.3315 160.183 37.9126C159.947 37.4937 159.619 37.1714 159.211 36.9458C158.798 36.7202 158.336 36.6021 157.831 36.6021C157.428 36.6021 157.057 36.6772 156.714 36.8169C156.37 36.9619 156.085 37.1553 155.854 37.4023C155.618 37.6494 155.435 37.9395 155.306 38.2725C155.177 38.6055 155.113 38.96 155.113 39.3359C155.113 39.7119 155.177 40.061 155.306 40.394C155.435 40.7271 155.618 41.0171 155.854 41.2588C156.085 41.5059 156.37 41.6992 156.714 41.8389C157.057 41.9839 157.428 42.0537 157.831 42.0537ZM157.825 41.5059C157.412 41.5059 157.041 41.4092 156.719 41.2158C156.391 41.0225 156.139 40.7593 155.967 40.4263C155.79 40.0986 155.704 39.7334 155.704 39.3359C155.704 38.9385 155.79 38.5732 155.962 38.2402C156.133 37.9072 156.386 37.644 156.714 37.4453C157.036 37.252 157.406 37.1499 157.825 37.1499C158.115 37.1499 158.395 37.2036 158.653 37.311C158.91 37.4185 159.136 37.5635 159.329 37.7515C159.517 37.9448 159.668 38.1758 159.78 38.4497C159.888 38.7236 159.947 39.019 159.947 39.3359C159.947 39.7549 159.85 40.1309 159.662 40.4639C159.469 40.7969 159.216 41.0547 158.894 41.2373C158.572 41.4199 158.212 41.5059 157.825 41.5059ZM165.5 36.6021C165.113 36.6021 164.758 36.6987 164.447 36.8813C164.135 37.0693 163.878 37.3325 163.684 37.6709H163.657V36.6558H163.077V42H163.657V39.3789C163.657 38.7451 163.818 38.2295 164.146 37.832C164.468 37.4346 164.903 37.2305 165.446 37.2305C165.505 37.2305 165.618 37.2412 165.784 37.252V36.6074C165.72 36.6074 165.628 36.6021 165.5 36.6021ZM171.987 36.6558V37.6064H171.965C171.734 37.2896 171.444 37.0425 171.095 36.8652C170.741 36.6934 170.365 36.6021 169.957 36.6021C169.581 36.6021 169.231 36.6719 168.909 36.8062C168.587 36.9458 168.318 37.1338 168.098 37.3701C167.873 37.6064 167.701 37.8911 167.577 38.2188C167.448 38.5464 167.389 38.8955 167.389 39.2715C167.389 39.6636 167.454 40.0234 167.588 40.3564C167.722 40.6895 167.905 40.9634 168.141 41.189C168.372 41.4146 168.646 41.5864 168.963 41.71C169.28 41.8389 169.618 41.8979 169.978 41.8979C170.397 41.8979 170.778 41.8174 171.122 41.6455C171.46 41.4736 171.74 41.2319 171.965 40.9204H171.987V41.8335C171.987 42.1021 171.944 42.3491 171.863 42.5693C171.783 42.7949 171.665 42.9883 171.503 43.1548C171.342 43.3213 171.138 43.4502 170.886 43.5415C170.628 43.6382 170.338 43.6812 170.01 43.6812C169.629 43.6812 169.28 43.6382 168.968 43.5415C168.651 43.4448 168.324 43.2944 167.991 43.085L167.846 43.6328C168.501 44.0303 169.226 44.229 170.021 44.229C170.451 44.229 170.827 44.1699 171.154 44.0464C171.477 43.9282 171.745 43.7563 171.949 43.5308C172.153 43.3105 172.304 43.0527 172.406 42.752C172.508 42.4512 172.562 42.1182 172.562 41.7476V36.6558H171.987ZM169.999 41.3501C169.726 41.3501 169.468 41.3018 169.221 41.2051C168.974 41.1084 168.759 40.9688 168.576 40.7861C168.394 40.6089 168.249 40.3887 168.141 40.1201C168.034 39.8569 167.98 39.5669 167.98 39.2554C167.98 38.8579 168.066 38.5034 168.238 38.1812C168.41 37.8589 168.646 37.6064 168.957 37.4238C169.264 37.2412 169.613 37.1499 170.005 37.1499C170.225 37.1499 170.435 37.1821 170.639 37.2466C170.837 37.311 171.02 37.4023 171.187 37.5205C171.348 37.644 171.493 37.7891 171.616 37.9502C171.74 38.1167 171.836 38.3101 171.901 38.5249C171.965 38.7397 172.003 38.9707 172.003 39.2124C172.003 39.5186 171.955 39.8032 171.858 40.0664C171.761 40.3296 171.627 40.5552 171.455 40.7432C171.283 40.9365 171.068 41.0815 170.821 41.189C170.569 41.2964 170.295 41.3501 169.999 41.3501ZM179.94 39.1855C179.94 38.6968 179.838 38.2563 179.645 37.8643C179.446 37.4775 179.161 37.1714 178.796 36.9458C178.426 36.7202 178.001 36.6074 177.529 36.6074C177.18 36.6074 176.852 36.6772 176.546 36.8115C176.24 36.9458 175.976 37.1284 175.751 37.3647C175.525 37.6011 175.348 37.8911 175.219 38.2295C175.09 38.5732 175.026 38.9385 175.026 39.3306C175.026 39.728 175.09 40.0986 175.224 40.437C175.353 40.7808 175.536 41.0654 175.767 41.3018C175.998 41.5381 176.272 41.7261 176.594 41.855C176.916 41.9893 177.26 42.0537 177.625 42.0537C178.077 42.0537 178.474 41.9678 178.828 41.7905C179.183 41.6133 179.478 41.3662 179.715 41.0547L179.301 40.7002C179.097 40.9526 178.855 41.1514 178.571 41.291C178.286 41.436 177.969 41.5059 177.62 41.5059C177.061 41.5059 176.594 41.3179 176.224 40.9419C175.848 40.5659 175.649 40.0771 175.622 39.4702H179.924C179.935 39.438 179.94 39.3467 179.94 39.1855ZM177.577 37.1553C177.899 37.1553 178.195 37.2305 178.453 37.3809C178.71 37.5312 178.914 37.7354 179.07 38.0039C179.221 38.2725 179.317 38.584 179.36 38.9331H175.643C175.692 38.5786 175.81 38.2671 175.993 37.9985C176.175 37.73 176.401 37.5205 176.675 37.3755C176.949 37.2305 177.249 37.1553 177.577 37.1553ZM183.887 42.0537C184.327 42.0537 184.736 41.9409 185.112 41.71L184.961 41.189C184.607 41.3931 184.274 41.4951 183.951 41.4951C183.651 41.4951 183.441 41.4038 183.334 41.2212C183.226 41.0386 183.173 40.7432 183.173 40.3457V37.1929H185.122V36.6558H183.173V34.7168L182.593 34.7866V36.6558H181.884V37.1929H182.593V40.4907C182.593 41.0063 182.689 41.3984 182.888 41.6616C183.087 41.9248 183.42 42.0537 183.887 42.0537ZM189.026 42.0537C189.466 42.0537 189.875 41.9409 190.251 41.71L190.1 41.189C189.746 41.3931 189.413 41.4951 189.09 41.4951C188.79 41.4951 188.58 41.4038 188.473 41.2212C188.365 41.0386 188.312 40.7432 188.312 40.3457V37.1929H190.261V36.6558H188.312V34.7168L187.732 34.7866V36.6558H187.023V37.1929H187.732V40.4907C187.732 41.0063 187.828 41.3984 188.027 41.6616C188.226 41.9248 188.559 42.0537 189.026 42.0537ZM196.732 36.6558V37.7031H196.711C196.485 37.3594 196.201 37.0854 195.846 36.8921C195.492 36.6987 195.105 36.6021 194.686 36.6021C194.187 36.6021 193.741 36.7256 193.343 36.9727C192.946 37.2197 192.634 37.5527 192.42 37.9717C192.199 38.3906 192.092 38.8579 192.092 39.3735C192.092 39.771 192.156 40.1416 192.296 40.4746C192.436 40.813 192.624 41.0977 192.86 41.3232C193.096 41.5542 193.37 41.7314 193.692 41.8604C194.009 41.9893 194.348 42.0537 194.708 42.0537C195.153 42.0537 195.551 41.9624 195.9 41.769C196.244 41.5811 196.528 41.3179 196.743 40.9741H196.759V42H197.313V36.6558H196.732ZM194.745 41.5059C194.342 41.5059 193.982 41.4146 193.671 41.2266C193.354 41.0439 193.112 40.7861 192.941 40.4639C192.769 40.1416 192.683 39.7764 192.683 39.3789C192.683 39.0513 192.736 38.7451 192.844 38.4658C192.951 38.1865 193.102 37.9502 193.29 37.7568C193.478 37.5688 193.698 37.4238 193.95 37.3164C194.197 37.209 194.466 37.1553 194.751 37.1553C195.132 37.1553 195.476 37.2573 195.782 37.4561C196.088 37.6548 196.324 37.9233 196.496 38.2617C196.668 38.6001 196.754 38.9707 196.754 39.3789C196.754 39.6904 196.695 39.9805 196.587 40.249C196.48 40.5176 196.335 40.7378 196.152 40.9204C195.97 41.103 195.755 41.248 195.513 41.3501C195.266 41.4575 195.014 41.5059 194.745 41.5059ZM202.774 36.6021C202.355 36.6021 201.968 36.6987 201.614 36.8921C201.259 37.0854 200.969 37.3594 200.749 37.7031H200.722V33.9004H200.142V42H200.706V40.9795H200.722C200.937 41.3179 201.216 41.5811 201.565 41.769C201.909 41.9624 202.307 42.0537 202.752 42.0537C203.107 42.0537 203.445 41.9893 203.768 41.8604C204.084 41.7314 204.364 41.5542 204.6 41.3232C204.836 41.0977 205.019 40.813 205.159 40.4746C205.298 40.1416 205.368 39.771 205.368 39.3735C205.368 39.0674 205.325 38.772 205.245 38.4873C205.164 38.208 205.046 37.9502 204.895 37.7246C204.74 37.499 204.557 37.3003 204.348 37.1284C204.133 36.9619 203.896 36.833 203.628 36.7417C203.359 36.6504 203.075 36.6021 202.774 36.6021ZM202.715 41.5059C202.532 41.5059 202.36 41.4844 202.188 41.436C202.017 41.3931 201.861 41.3232 201.71 41.2373C201.56 41.1514 201.426 41.0493 201.302 40.9204C201.179 40.7915 201.071 40.6519 200.985 40.4961C200.899 40.3457 200.83 40.1738 200.781 39.9805C200.728 39.7871 200.706 39.5884 200.706 39.3789C200.706 39.0781 200.754 38.7881 200.856 38.5142C200.953 38.2402 201.093 38.0039 201.265 37.8052C201.437 37.6064 201.651 37.4507 201.904 37.3325C202.151 37.2144 202.419 37.1553 202.709 37.1553C202.989 37.1553 203.252 37.209 203.504 37.3164C203.757 37.4238 203.977 37.5688 204.165 37.7568C204.353 37.9502 204.503 38.1865 204.611 38.4658C204.718 38.7451 204.777 39.0513 204.777 39.3789C204.777 39.7764 204.691 40.1416 204.52 40.4639C204.348 40.7861 204.101 41.0439 203.789 41.2266C203.472 41.4146 203.112 41.5059 202.715 41.5059ZM207.977 42H208.557V33.9004H207.977V42ZM216.081 39.1855C216.081 38.6968 215.979 38.2563 215.786 37.8643C215.587 37.4775 215.303 37.1714 214.937 36.9458C214.567 36.7202 214.142 36.6074 213.67 36.6074C213.321 36.6074 212.993 36.6772 212.687 36.8115C212.381 36.9458 212.117 37.1284 211.892 37.3647C211.666 37.6011 211.489 37.8911 211.36 38.2295C211.231 38.5732 211.167 38.9385 211.167 39.3306C211.167 39.728 211.231 40.0986 211.366 40.437C211.494 40.7808 211.677 41.0654 211.908 41.3018C212.139 41.5381 212.413 41.7261 212.735 41.855C213.057 41.9893 213.401 42.0537 213.766 42.0537C214.218 42.0537 214.615 41.9678 214.97 41.7905C215.324 41.6133 215.619 41.3662 215.856 41.0547L215.442 40.7002C215.238 40.9526 214.996 41.1514 214.712 41.291C214.427 41.436 214.11 41.5059 213.761 41.5059C213.202 41.5059 212.735 41.3179 212.365 40.9419C211.989 40.5659 211.79 40.0771 211.763 39.4702H216.065C216.076 39.438 216.081 39.3467 216.081 39.1855ZM213.718 37.1553C214.04 37.1553 214.336 37.2305 214.594 37.3809C214.851 37.5312 215.055 37.7354 215.211 38.0039C215.362 38.2725 215.458 38.584 215.501 38.9331H211.784C211.833 38.5786 211.951 38.2671 212.134 37.9985C212.316 37.73 212.542 37.5205 212.816 37.3755C213.09 37.2305 213.39 37.1553 213.718 37.1553ZM226.467 42.0537C226.999 42.0537 227.503 41.9624 227.976 41.769C228.449 41.5757 228.857 41.3125 229.206 40.9688C229.55 40.6304 229.824 40.2114 230.028 39.7119C230.227 39.2124 230.329 38.6699 230.329 38.0845C230.329 37.5044 230.227 36.9673 230.028 36.4731C229.824 35.979 229.55 35.5601 229.206 35.2163C228.857 34.8779 228.449 34.6147 227.976 34.4214C227.503 34.228 226.999 34.1313 226.467 34.1313C225.898 34.1313 225.371 34.2388 224.888 34.4429C224.399 34.647 223.985 34.9263 223.652 35.2808C223.319 35.6353 223.056 36.0542 222.868 36.5376C222.68 37.021 222.589 37.5366 222.589 38.0845C222.589 38.6377 222.68 39.1587 222.868 39.6421C223.056 40.1309 223.319 40.5498 223.652 40.9043C223.985 41.2588 224.399 41.5435 224.888 41.7476C225.371 41.9517 225.898 42.0537 226.467 42.0537ZM226.467 41.4414C226.086 41.4414 225.726 41.3877 225.393 41.2749C225.054 41.1621 224.753 41.001 224.496 40.7969C224.238 40.5928 224.012 40.3511 223.824 40.0718C223.631 39.7925 223.486 39.4863 223.389 39.1479C223.293 38.8096 223.244 38.4551 223.244 38.0845C223.244 37.6333 223.319 37.1982 223.481 36.79C223.636 36.3818 223.851 36.0273 224.13 35.7266C224.404 35.4258 224.743 35.1841 225.151 35.0068C225.554 34.835 225.994 34.7437 226.467 34.7437C226.907 34.7437 227.321 34.8296 227.713 34.9907C228.105 35.1519 228.443 35.3774 228.733 35.6675C229.024 35.9575 229.249 36.3066 229.421 36.7256C229.587 37.1445 229.673 37.6011 229.673 38.0845C229.673 38.5732 229.587 39.0298 229.421 39.4487C229.249 39.8677 229.024 40.2222 228.733 40.5122C228.443 40.8022 228.105 41.0332 227.713 41.1943C227.321 41.3608 226.907 41.4414 226.467 41.4414ZM235.688 36.6021C235.248 36.6021 234.85 36.6987 234.49 36.8921C234.13 37.0854 233.84 37.354 233.615 37.6978H233.593V36.6558H233.013V42H233.593V39.3521C233.593 38.686 233.77 38.1543 234.13 37.7515C234.485 37.354 234.963 37.1499 235.554 37.1499C235.709 37.1499 235.854 37.166 235.983 37.1982C236.112 37.2305 236.23 37.2896 236.349 37.3701C236.467 37.4507 236.563 37.5581 236.644 37.687C236.725 37.8159 236.789 37.9878 236.837 38.1919C236.88 38.396 236.907 38.6377 236.907 38.9062V42H237.487V38.8311C237.487 38.0684 237.326 37.5044 237.009 37.1445C236.687 36.7847 236.247 36.6021 235.688 36.6021ZM244.834 39.1855C244.834 38.6968 244.732 38.2563 244.538 37.8643C244.34 37.4775 244.055 37.1714 243.69 36.9458C243.319 36.7202 242.895 36.6074 242.422 36.6074C242.073 36.6074 241.745 36.6772 241.439 36.8115C241.133 36.9458 240.87 37.1284 240.644 37.3647C240.419 37.6011 240.242 37.8911 240.113 38.2295C239.984 38.5732 239.919 38.9385 239.919 39.3306C239.919 39.728 239.984 40.0986 240.118 40.437C240.247 40.7808 240.43 41.0654 240.661 41.3018C240.891 41.5381 241.165 41.7261 241.488 41.855C241.81 41.9893 242.154 42.0537 242.519 42.0537C242.97 42.0537 243.368 41.9678 243.722 41.7905C244.077 41.6133 244.372 41.3662 244.608 41.0547L244.195 40.7002C243.991 40.9526 243.749 41.1514 243.464 41.291C243.18 41.436 242.863 41.5059 242.514 41.5059C241.955 41.5059 241.488 41.3179 241.117 40.9419C240.741 40.5659 240.542 40.0771 240.516 39.4702H244.818C244.828 39.438 244.834 39.3467 244.834 39.1855ZM242.471 37.1553C242.793 37.1553 243.088 37.2305 243.346 37.3809C243.604 37.5312 243.808 37.7354 243.964 38.0039C244.114 38.2725 244.211 38.584 244.254 38.9331H240.537C240.585 38.5786 240.703 38.2671 240.886 37.9985C241.069 37.73 241.294 37.5205 241.568 37.3755C241.842 37.2305 242.143 37.1553 242.471 37.1553Z" fill="white"/>
</svg>
