<svg width="360" height="1062" viewBox="0 0 360 1062" fill="none" xmlns="http://www.w3.org/2000/svg">
<rect width="360" height="1062" fill="white"/>
<path d="M119.754 178.272C77.2497 178.272 42.686 143.698 42.686 101.211C42.686 58.7109 77.2497 24.1361 119.754 24.1361C162.259 24.1361 196.822 58.7109 196.822 101.197C196.822 143.698 162.259 178.272 119.754 178.272ZM119.754 27.4242C79.0734 27.4242 45.96 60.52 45.96 101.211C45.96 141.889 79.059 174.984 119.754 174.984C160.449 174.984 193.548 141.889 193.548 101.211C193.548 60.52 160.435 27.4242 119.754 27.4242Z" fill="#E6215A"/>
<path d="M33.6675 148.053V81.0542H18.3224V53.5281H68.5061V148.053H33.6675Z" fill="#E6215A"/>
<path d="M66.189 55.8672V145.714H35.9983V78.7151H20.6533V55.8672H66.189ZM70.8369 51.2029H66.1751H20.6533H15.9915V55.8811V78.7151V83.3933H20.6533H31.3504V145.714V150.392H36.0122H66.2029H70.8647V145.714V55.8672V51.2029H70.8369Z" fill="#F8F8F6"/>
<path d="M90.7949 81.7504L88.0605 90.5394H88.0117L85.3262 81.7504H81.1855L86.3809 95.9496H89.7207L94.8867 81.7504H90.7949ZM100.01 80.4222H103.203L101.035 77.3754L97.5488 77.3656L100.01 80.4222ZM101.152 96.1547C105.469 96.1547 108.516 93.1957 108.516 88.85C108.516 84.4945 105.469 81.5355 101.152 81.5355C96.7773 81.5355 93.7598 84.5238 93.7598 88.85C93.7598 93.1664 96.7773 96.1547 101.152 96.1547ZM101.143 92.6097C99.1406 92.6097 97.7246 90.9496 97.7246 88.85C97.7246 86.7406 99.1406 85.0902 101.143 85.0902C103.174 85.0902 104.561 86.7601 104.561 88.85C104.561 90.9398 103.174 92.6097 101.143 92.6097ZM117.799 81.7504V89.7582H117.75L113.014 81.7504H109.186V95.9496H112.955V88.1761H113.014L117.672 95.9496H121.617V81.7504H117.799ZM129.689 96.1254C131.906 96.1254 134.123 95.3832 135.383 94.4164V87.8148H129.406V90.8812H131.828V92.1898C131.057 92.5414 130.441 92.6586 129.689 92.6586C127.482 92.6586 126.242 90.9008 126.242 88.8793C126.242 86.4476 127.795 85.1097 129.523 85.1097C131.008 85.1097 132.043 85.8129 132.697 86.4379L135.393 84.1625C133.957 82.4437 131.613 81.5355 129.533 81.5355C124.914 81.5355 122.277 84.7777 122.277 88.8793C122.277 93.557 125.578 96.1254 129.689 96.1254ZM89.1641 118.155C93.4805 118.155 96.5273 115.205 96.5273 110.85C96.5273 106.495 93.4805 103.536 89.1641 103.536C84.7891 103.536 81.7715 106.534 81.7715 110.85C81.7715 115.166 84.7891 118.155 89.1641 118.155ZM89.1543 114.61C87.1523 114.61 85.7363 112.95 85.7363 110.85C85.7363 108.741 87.1523 107.09 89.1543 107.09C91.1855 107.09 92.5723 108.76 92.5723 110.85C92.5723 112.95 91.1855 114.61 89.1543 114.61ZM105.811 103.75V111.758H105.762L101.025 103.75H97.1973V117.95H100.967V110.176H101.025L105.684 117.95H109.629V103.75H105.811ZM110.738 117.95H120.211V114.58H114.576V103.75H110.748L110.738 117.95ZM120.686 117.95H124.553V103.75H120.686V117.95ZM134.373 103.75V111.758H134.324L129.588 103.75H125.76V117.95H129.529V110.176H129.588L134.246 117.95H138.191V103.75H134.373ZM139.281 117.95H149.154V114.58H142.963V112.578H147.475V109.278H142.963V107.139H148.725V103.75H139.281V117.95Z" fill="#1A2141"/>
<line x1="81.5283" y1="911.295" x2="81.5283" y2="1062" stroke="#E6215A"/>
<circle cx="81.7256" cy="936.023" r="5" fill="#E6215A"/>
<path d="M114.317 946.023H116.84V935.511H120.382V933.243H110.793V935.511H114.317V946.023ZM126.807 937.234V938.236H126.763C126.112 937.48 125.207 937.084 124.17 937.084C121.814 937.084 120.03 938.983 120.03 941.655C120.03 944.37 121.806 946.172 124.249 946.172C125.374 946.172 126.262 945.741 126.868 944.959H126.912V946.023H129.162V937.234H126.807ZM124.68 944.063C123.361 944.063 122.43 943.087 122.43 941.663C122.43 940.16 123.423 939.202 124.688 939.202C125.963 939.202 126.903 940.257 126.903 941.663C126.903 943.105 125.893 944.063 124.671 944.063H124.68ZM124.636 947.64C123.845 947.64 123.177 948.281 123.177 949.081C123.177 949.864 123.845 950.514 124.636 950.514C125.444 950.514 126.095 949.864 126.095 949.081C126.095 948.281 125.444 947.64 124.636 947.64ZM132.748 936.003C133.548 936.003 134.216 935.362 134.216 934.562C134.216 933.78 133.548 933.129 132.748 933.129C131.939 933.129 131.289 933.78 131.289 934.562C131.289 935.362 131.939 936.003 132.748 936.003ZM131.57 946.023H133.926V937.234H131.57V946.023ZM141.379 946.023H143.919V941.039H149.148V946.023H151.697V933.243H149.148V938.781H143.919V933.243H141.379V946.023ZM160.082 936.012L158.061 933.375L155.582 933.366L157.806 936.021L160.082 936.012ZM160.565 937.242V938.236H160.53C159.88 937.48 158.975 937.084 157.938 937.084C155.582 937.084 153.798 938.983 153.798 941.655C153.798 944.37 155.573 946.172 158.008 946.172C159.142 946.172 160.029 945.741 160.636 944.959H160.68V946.023H162.93V937.234L160.565 937.242ZM158.438 944.063C157.12 944.063 156.188 943.087 156.188 941.663C156.188 940.16 157.182 939.202 158.447 939.202C159.722 939.202 160.671 940.257 160.671 941.663C160.671 943.105 159.66 944.063 158.438 944.063ZM178.434 933.243V941.883H178.398L172.712 933.243H170.189V946.023H172.712V937.559H172.747L178.372 946.023H180.965V933.243H178.434ZM187.741 934.702H187.794L188.699 936.056H190.861L188.77 933.358H186.678L184.683 936.056H186.836L187.741 934.702ZM187.759 937.084C184.964 937.084 183.083 939.018 183.083 941.637C183.083 944.256 184.964 946.172 187.759 946.172C190.492 946.172 192.435 944.335 192.435 941.637C192.435 938.939 190.492 937.084 187.759 937.084ZM187.759 944.063C186.414 944.063 185.465 942.999 185.465 941.637C185.465 940.248 186.388 939.202 187.759 939.202C189.06 939.202 190.044 940.196 190.044 941.637C190.044 943.061 189.033 944.063 187.759 944.063ZM187.768 947.64C186.968 947.64 186.309 948.281 186.309 949.081C186.309 949.864 186.968 950.514 187.768 950.514C188.576 950.514 189.227 949.864 189.227 949.081C189.227 948.281 188.576 947.64 187.768 947.64ZM195.625 936.003C196.425 936.003 197.093 935.362 197.093 934.562C197.093 933.78 196.425 933.129 195.625 933.129C194.816 933.129 194.166 933.78 194.166 934.562C194.166 935.362 194.816 936.003 195.625 936.003ZM194.447 946.023H196.803V937.234H194.447V946.023Z" fill="#1A2141"/>
<path d="M115.899 991.254H111.672V996.668H110.705V998.787H111.672V1004.04H115.952C120.065 1004.04 122.535 1001.44 122.535 997.67C122.535 993.891 119.942 991.254 115.899 991.254ZM115.794 1001.78H114.168V998.778H116.154V996.668H114.168V993.513H115.952C118.255 993.513 119.907 995.262 119.907 997.662C119.907 1000 118.281 1001.78 115.794 1001.78ZM135.385 989.716L132.985 989.725L130.946 992.371H132.704L135.385 989.716ZM128.784 992.713H128.837L129.742 994.067H131.913L129.812 991.369H127.729L125.734 994.067H127.888L128.784 992.713ZM128.802 995.095C126.007 995.095 124.126 997.029 124.126 999.648C124.126 1002.27 126.007 1004.18 128.802 1004.18C131.535 1004.18 133.478 1002.35 133.478 999.648C133.478 996.95 131.535 995.095 128.802 995.095ZM128.802 1002.07C127.457 1002.07 126.508 1001.01 126.508 999.648C126.508 998.259 127.431 997.213 128.802 997.213C130.103 997.213 131.087 998.207 131.087 999.648C131.087 1001.07 130.076 1002.07 128.802 1002.07ZM136.668 994.014C137.468 994.014 138.136 993.373 138.136 992.573C138.136 991.791 137.468 991.14 136.668 991.14C135.859 991.14 135.209 991.791 135.209 992.573C135.209 993.373 135.859 994.014 136.668 994.014ZM135.49 1004.03H137.846V995.245H135.49V1004.03ZM154.853 992.564H153.789V990.789H151.434V992.564H149.649V994.067H151.434V996.247H151.39C150.73 995.491 149.808 995.095 148.735 995.095C146.38 995.095 144.596 996.994 144.596 999.666C144.596 1002.38 146.371 1004.18 148.806 1004.18C149.983 1004.18 150.889 1003.75 151.504 1002.97H151.557V1004.03H153.798V994.058H154.861L154.853 992.564ZM149.245 1002.07C147.927 1002.07 146.995 1001.1 146.995 999.674C146.995 998.171 147.988 997.213 149.254 997.213C150.599 997.213 151.565 998.268 151.565 999.674C151.565 1001.12 150.537 1002.07 149.245 1002.07ZM164.881 992.362L163.352 989.716H160.97L163.149 992.362H164.881ZM160.249 992.713H160.302L161.207 994.067H163.378L161.277 991.369H159.194L157.199 994.067H159.353L160.249 992.713ZM162.323 996.247H162.288C161.638 995.491 160.732 995.095 159.695 995.095C157.34 995.095 155.556 996.994 155.556 999.666C155.556 1002.38 157.331 1004.18 159.766 1004.18C160.899 1004.18 161.787 1003.75 162.394 1002.97H162.438V1004.03H164.688V995.245H162.332L162.323 996.247ZM160.205 1002.07C158.887 1002.07 157.955 1001.1 157.955 999.674C157.955 998.171 158.948 997.213 160.214 997.213C161.488 997.213 162.429 998.268 162.429 999.674C162.429 1001.12 161.418 1002.07 160.196 1002.07H160.205ZM172.712 995.245V999.507C172.712 1001.21 171.789 1002.06 170.761 1002.06C169.662 1002.06 169.188 1001.54 169.188 999.929V995.245H166.832V1000.54C166.832 1003.22 168.168 1004.18 170.066 1004.18C171.06 1004.18 171.991 1003.78 172.677 1002.96H172.712V1004.03H175.067V995.245H172.712Z" fill="#1A2141"/>
<path d="M111.672 1045.06H114.168V1040.23H119.169V1037.97H114.168V1034.55H120.153V1032.28H111.672V1045.06ZM126.719 1036.12C125.682 1036.12 124.724 1036.63 124.064 1037.57H124.038V1036.27H121.683V1045.06H124.038V1040.99C124.038 1039.68 124.829 1038.7 126.279 1038.7C126.411 1038.7 126.666 1038.71 126.903 1038.73V1036.13C126.851 1036.12 126.789 1036.12 126.719 1036.12ZM136.387 1040.6C136.387 1038.01 134.655 1036.12 132.071 1036.12C129.575 1036.12 127.712 1037.99 127.712 1040.66C127.712 1043.4 129.663 1045.21 132.238 1045.21C134.005 1045.21 135.288 1044.5 136.035 1043.55L134.506 1042.13C134.022 1042.72 133.328 1043.13 132.405 1043.12C131.28 1043.11 130.445 1042.48 130.164 1041.43H136.325C136.369 1041.27 136.387 1040.87 136.387 1040.59V1040.6ZM132.15 1038.2C133.17 1038.2 133.812 1038.8 134.049 1039.74H130.173C130.445 1038.72 131.192 1038.2 132.15 1038.2ZM146.459 1040.6C146.459 1038.01 144.728 1036.12 142.144 1036.12C139.647 1036.12 137.784 1037.99 137.784 1040.66C137.784 1043.4 139.735 1045.21 142.311 1045.21C144.077 1045.21 145.36 1044.5 146.107 1043.55L144.578 1042.13C144.095 1042.72 143.4 1043.13 142.478 1043.12C141.353 1043.11 140.518 1042.48 140.236 1041.43H146.397C146.441 1041.27 146.459 1040.87 146.459 1040.59V1040.6ZM142.223 1038.2C143.242 1038.2 143.884 1038.8 144.121 1039.74H140.245C140.518 1038.72 141.265 1038.2 142.223 1038.2ZM151.188 1045.21C153.49 1045.21 154.598 1044.04 154.598 1042.49C154.598 1040.76 153.481 1040.34 151.574 1039.64C150.713 1039.31 150.256 1039.06 150.256 1038.69C150.256 1038.23 150.73 1038.03 151.117 1038.03C151.759 1038.03 152.532 1038.32 153.209 1038.96L154.352 1037.24C153.35 1036.47 152.356 1036.13 151.135 1036.13C149.342 1036.13 147.971 1037.18 147.971 1038.77C147.971 1040.47 149.228 1041.15 150.678 1041.63C151.82 1042 152.277 1042.2 152.277 1042.6C152.277 1043.02 151.882 1043.33 151.196 1043.33C150.238 1043.33 149.482 1042.97 148.762 1042.3L147.619 1043.93C148.577 1044.76 149.772 1045.21 151.179 1045.21H151.188ZM159.15 1045.21C160.328 1045.21 160.908 1044.97 161.471 1044.67L160.864 1042.79C160.469 1042.99 160.029 1043.09 159.757 1043.09C159.203 1043.09 158.983 1042.72 158.983 1041.97V1038.23H161.374V1036.28H158.983V1033.15L156.628 1033.41V1036.27H155.591V1038.22H156.628V1042.29C156.628 1044.26 157.63 1045.21 159.142 1045.21H159.15ZM168.889 1036.27L166.876 1041.72H166.85L164.696 1036.27H162.235L165.751 1044.52L164.187 1048.62H166.595L171.332 1036.27H168.889ZM172.932 1045.06H175.287V1031.82H172.932V1045.06ZM185.975 1040.6C185.975 1038.01 184.243 1036.12 181.659 1036.12C179.163 1036.12 177.3 1037.99 177.3 1040.66C177.3 1043.4 179.251 1045.21 181.826 1045.21C183.593 1045.21 184.876 1044.5 185.623 1043.55L184.094 1042.13C183.61 1042.72 182.916 1043.13 181.993 1043.12C180.868 1043.11 180.033 1042.48 179.752 1041.43H185.913C185.957 1041.27 185.975 1040.87 185.975 1040.59V1040.6ZM181.738 1038.2C182.758 1038.2 183.399 1038.8 183.637 1039.74H179.761C180.033 1038.72 180.78 1038.2 181.738 1038.2Z" fill="#1A2141"/>
<path d="M113.289 968.143V968.116L116.506 964.856C118.035 963.3 118.606 962.096 118.606 960.698C118.606 958.413 116.813 957.06 114.862 957.06C112.929 957.06 111.681 958.044 110.995 959.406L112.111 960.171C112.691 959.055 113.597 958.475 114.766 958.475C116.137 958.475 117.095 959.486 117.095 960.848C117.095 962.078 116.251 963.089 115.205 964.17L110.978 968.486L110.995 969.531H118.773V968.143H113.289ZM124.759 957.051C122.324 957.051 120.487 958.791 120.487 961.094C120.487 963.502 122.122 964.979 124.24 964.979C125.462 964.979 126.552 964.566 127.343 963.889L127.36 963.898C126.613 966.64 124.442 968.108 122.201 968.67L122.658 969.962C125.866 969.373 129.101 966.411 129.101 961.911C129.109 958.976 127.211 957.06 124.759 957.06V957.051ZM124.574 963.599C123.036 963.599 122.008 962.588 122.008 961.112C122.008 959.679 123.115 958.466 124.785 958.466C126.42 958.466 127.624 959.767 127.624 961.78V961.876C126.991 962.896 125.813 963.599 124.574 963.599ZM130.437 971.553L137.354 956.225L136.185 955.671L129.259 971.008L130.437 971.553ZM140.808 969.523H142.319V957.174H141.071L137.6 959.723L138.347 960.848L140.808 958.993V969.523ZM147.575 969.523H149.087V957.174H147.839L144.367 959.723L145.114 960.848L147.575 958.993V969.523ZM151.53 971.553L158.447 956.225L157.278 955.671L150.353 971.008L151.53 971.553ZM161.33 968.143V968.116L164.547 964.856C166.076 963.3 166.647 962.096 166.647 960.698C166.647 958.413 164.854 957.06 162.903 957.06C160.97 957.06 159.722 958.044 159.036 959.406L160.152 960.171C160.732 959.055 161.638 958.475 162.807 958.475C164.178 958.475 165.136 959.486 165.136 960.848C165.136 962.078 164.292 963.089 163.246 964.17L159.019 968.486L159.036 969.531H166.814V968.143H161.33ZM173.327 969.637C176.28 969.637 177.968 967.009 177.968 963.362C177.968 959.301 176.017 957.06 173.327 957.06C170.383 957.06 168.687 959.697 168.687 963.362C168.687 967.396 170.638 969.646 173.327 969.646V969.637ZM173.336 968.24C171.508 968.24 170.216 966.482 170.216 963.362C170.216 960.382 171.358 958.466 173.345 958.466C175.155 958.466 176.438 960.198 176.438 963.362C176.438 966.315 175.313 968.24 173.336 968.24ZM181.949 968.143V968.116L185.166 964.856C186.695 963.3 187.267 962.096 187.267 960.698C187.267 958.413 185.474 957.06 183.522 957.06C181.589 957.06 180.341 958.044 179.655 959.406L180.771 960.171C181.352 959.055 182.257 958.475 183.426 958.475C184.797 958.475 185.755 959.486 185.755 960.848C185.755 962.078 184.911 963.089 183.865 964.17L179.638 968.486L179.655 969.531H187.434V968.143H181.949ZM193.946 969.637C196.899 969.637 198.587 967.009 198.587 963.362C198.587 959.301 196.636 957.06 193.946 957.06C191.002 957.06 189.306 959.697 189.306 963.362C189.306 967.396 191.257 969.646 193.946 969.646V969.637ZM193.955 968.24C192.127 968.24 190.835 966.482 190.835 963.362C190.835 960.382 191.978 958.466 193.964 958.466C195.774 958.466 197.058 960.198 197.058 963.362C197.058 966.315 195.933 968.24 193.955 968.24Z" fill="#757575"/>
<line x1="81.5283" y1="551.676" x2="81.5283" y2="732.676" stroke="#E6215A"/>
<circle cx="81.7256" cy="572.699" r="5" fill="#E6215A"/>
<circle cx="81.7256" cy="637.449" r="5" fill="#E6215A"/>
<circle cx="81.7256" cy="706.687" r="5" fill="#E6215A"/>
<path d="M122.087 569.919L118.185 577.197H118.149L114.221 569.919H111.672V582.699H114.186V574.762H114.212L117.332 580.282H118.976L122.096 574.762H122.122V582.699H124.636V569.919H122.087ZM128.371 572.679C129.171 572.679 129.839 572.037 129.839 571.238C129.839 570.455 129.171 569.805 128.371 569.805C127.562 569.805 126.912 570.455 126.912 571.238C126.912 572.037 127.562 572.679 128.371 572.679ZM127.193 582.699H129.549V573.91H127.193V582.699ZM140.623 571.027L139.094 568.381H136.729L138.9 571.027H140.623ZM136 571.378H136.053L136.958 572.732H139.129L137.028 570.034H134.945L132.95 572.732H135.104L136 571.378ZM135.921 573.76C133.425 573.76 131.562 575.623 131.562 578.295C131.562 581.037 133.513 582.848 136.088 582.848C137.854 582.848 139.138 582.136 139.885 581.187L138.355 579.763C137.872 580.352 137.178 580.765 136.255 580.756C135.13 580.747 134.295 580.115 134.014 579.069H140.175C140.219 578.911 140.236 578.506 140.236 578.225C140.236 575.65 138.505 573.76 135.921 573.76ZM136 575.834C137.02 575.834 137.661 576.441 137.898 577.372H134.022C134.295 576.353 135.042 575.834 136 575.834ZM147.32 573.76C146.239 573.76 145.22 574.208 144.499 575.052H144.473V573.918H142.117V582.707H144.473V578.286C144.473 576.722 145.272 575.887 146.468 575.887C147.558 575.887 148.155 576.406 148.155 578.084V582.716H150.511V577.495C150.511 574.788 149.201 573.769 147.32 573.769V573.76ZM164.608 575.931V575.896C165.988 575.36 166.516 574.182 166.516 573.039C166.516 571.009 165.065 569.919 162.35 569.919H157.735V582.699H163.026C165.821 582.699 167.175 581.222 167.175 579.174C167.175 577.487 166.243 576.344 164.608 575.931ZM160.214 572.161H161.857C163.334 572.152 163.949 572.758 163.949 573.646C163.949 574.701 163.035 575.158 162.024 575.158H160.214V572.161ZM162.253 580.484H160.214V577.197H162.279C163.782 577.197 164.529 577.856 164.529 578.858C164.529 579.948 163.606 580.475 162.253 580.484ZM176.307 567.107L173.828 567.116L171.789 569.761H174.065L176.307 567.107ZM173.274 572.785C174.988 572.785 176.087 571.624 176.21 570.078H174.426C174.391 570.789 173.916 571.211 173.274 571.211C172.571 571.211 172.158 570.71 172.114 570.078H170.339C170.471 571.827 171.771 572.785 173.274 572.785ZM175.384 573.91V574.903H175.349C174.698 574.147 173.793 573.76 172.756 573.76C170.4 573.76 168.616 575.659 168.616 578.33C168.616 581.046 170.392 582.848 172.826 582.848C173.96 582.848 174.848 582.417 175.454 581.635H175.498V582.699H177.739V573.91H175.384ZM173.257 580.739C171.938 580.739 171.007 579.763 171.007 578.339C171.007 576.836 172 575.878 173.266 575.878C174.54 575.878 175.48 576.933 175.48 578.339C175.48 579.781 174.479 580.739 173.257 580.739ZM184.085 582.848C185.86 582.848 187.214 582.154 187.97 581.275L186.361 579.851C185.948 580.317 185.254 580.739 184.322 580.739C182.925 580.739 181.967 579.737 181.967 578.304C181.967 576.871 182.898 575.878 184.296 575.878C185.184 575.878 185.869 576.265 186.344 576.819L187.935 575.448C187.047 574.331 185.597 573.76 184.199 573.76C181.475 573.76 179.567 575.615 179.567 578.313C179.567 581.011 181.483 582.848 184.085 582.848ZM196.284 585.362L197.418 584.852C196.346 582.699 195.634 580.255 195.634 577.372C195.634 574.578 196.337 571.958 197.462 569.902L196.354 569.366C195.062 571.457 194.263 574.314 194.263 577.372C194.263 580.545 195.062 583.191 196.284 585.37V585.362ZM201.303 581.319V581.292L204.52 578.032C206.049 576.476 206.62 575.272 206.62 573.874C206.62 571.589 204.827 570.236 202.876 570.236C200.942 570.236 199.694 571.22 199.009 572.582L200.125 573.347C200.705 572.231 201.61 571.651 202.779 571.651C204.15 571.651 205.108 572.661 205.108 574.024C205.108 575.254 204.265 576.265 203.219 577.346L198.991 581.661L199.009 582.707H206.787V581.319H201.303ZM213.3 582.813C216.253 582.813 217.94 580.185 217.94 576.537C217.94 572.477 215.989 570.236 213.3 570.236C210.355 570.236 208.659 572.872 208.659 576.537C208.659 580.572 210.61 582.822 213.3 582.822V582.813ZM213.309 581.415C211.48 581.415 210.188 579.658 210.188 576.537C210.188 573.558 211.331 571.642 213.317 571.642C215.128 571.642 216.411 573.373 216.411 576.537C216.411 579.491 215.286 581.415 213.309 581.415ZM229.357 569.919H225.534V575.518H224.462V576.898H225.534V582.699H229.41C233.488 582.699 235.993 580.097 235.993 576.327C235.993 572.547 233.418 569.919 229.366 569.919H229.357ZM229.322 581.275H227.107V576.889H229.806V575.509H227.107V571.343H229.393C232.372 571.343 234.385 573.4 234.385 576.327C234.385 579.201 232.39 581.275 229.322 581.275ZM242.4 571.097H242.436L243.736 572.705H245.222L243.068 570.13H241.724L239.632 572.705H241.108L242.4 571.097ZM242.436 573.83C239.72 573.83 237.909 575.799 237.909 578.33C237.909 580.844 239.72 582.813 242.436 582.813C245.028 582.813 246.953 580.985 246.953 578.33C246.953 575.659 245.028 573.83 242.436 573.83ZM242.436 581.468C240.634 581.468 239.386 580.062 239.386 578.33C239.386 576.581 240.616 575.175 242.444 575.175C244.141 575.175 245.477 576.458 245.477 578.33C245.477 580.176 244.132 581.468 242.444 581.468H242.436ZM242.436 584.703C241.864 584.703 241.398 585.16 241.398 585.722C241.398 586.293 241.864 586.75 242.436 586.75C243.024 586.75 243.473 586.293 243.473 585.722C243.473 585.16 243.024 584.703 242.436 584.703ZM250.056 572.319C250.627 572.319 251.093 571.862 251.093 571.299C251.093 570.728 250.627 570.271 250.056 570.271C249.467 570.271 249.019 570.728 249.019 571.299C249.019 571.862 249.467 572.319 250.056 572.319ZM249.317 582.699H250.768V573.945H249.317V582.699ZM264.689 582.795C266.939 582.795 268.565 581.776 269.682 580.387L268.513 579.403C267.607 580.51 266.359 581.31 264.698 581.31C262 581.31 259.961 579.411 259.961 576.37C259.961 573.409 261.771 571.299 264.689 571.299C266.157 571.299 267.537 572.002 268.513 573.224L269.682 572.248C268.293 570.526 266.456 569.805 264.698 569.805C260.594 569.805 258.326 572.732 258.326 576.37C258.326 580.545 261.244 582.804 264.698 582.804L264.689 582.795ZM276.476 573.839C275.14 573.839 273.997 574.367 273.25 575.36H273.215V569.453H271.756V582.699H273.215V578.286C273.215 576.318 274.313 575.175 276.054 575.175C277.337 575.175 278.198 575.878 278.198 577.865V582.707H279.657V577.443C279.657 574.947 278.374 573.83 276.476 573.83V573.839ZM286.275 582.813C288.859 582.813 290.784 580.994 290.784 578.339C290.784 575.667 288.859 573.839 286.275 573.839C283.56 573.839 281.749 575.799 281.749 578.339C281.749 580.853 283.56 582.813 286.275 582.813ZM286.275 581.477C284.465 581.477 283.217 580.071 283.217 578.339C283.217 576.59 284.447 575.184 286.275 575.184C287.972 575.184 289.308 576.467 289.308 578.339C289.308 580.185 287.963 581.477 286.275 581.477ZM286.267 584.703C285.704 584.703 285.238 585.16 285.238 585.722C285.238 586.293 285.704 586.75 286.267 586.75C286.864 586.75 287.312 586.293 287.312 585.722C287.312 585.16 286.864 584.703 286.267 584.703ZM297.692 573.839C296.4 573.839 295.249 574.411 294.52 575.448H294.493V573.945H293.034V582.699H294.493V578.33C294.493 576.362 295.592 575.175 297.244 575.175C298.527 575.175 299.389 575.861 299.389 577.917V582.707H300.848V577.513C300.848 574.999 299.591 573.839 297.701 573.839H297.692ZM313.337 582.699H314.857V580.528H316.65V579.157H314.857V570.35H313.574L307.598 579.447V580.528H313.337V582.699ZM309.426 579.192L313.372 573.101V579.192H309.426ZM319.261 585.362C320.491 583.182 321.273 580.545 321.273 577.372C321.273 574.314 320.491 571.449 319.19 569.357L318.083 569.893C319.217 571.95 319.911 574.578 319.911 577.364C319.911 580.255 319.199 582.699 318.127 584.852L319.261 585.362Z" fill="#1A2141"/>
<path d="M122.087 631.669L118.185 638.947H118.149L114.221 631.669H111.672V644.449H114.186V636.512H114.212L117.332 642.032H118.976L122.096 636.512H122.122V644.449H124.636V631.669H122.087ZM128.371 634.429C129.171 634.429 129.839 633.787 129.839 632.988C129.839 632.205 129.171 631.555 128.371 631.555C127.562 631.555 126.912 632.205 126.912 632.988C126.912 633.787 127.562 634.429 128.371 634.429ZM127.193 644.449H129.549V635.66H127.193V644.449ZM140.623 632.777L139.094 630.131H136.729L138.9 632.777H140.623ZM136 633.128H136.053L136.958 634.482H139.129L137.028 631.784H134.945L132.95 634.482H135.104L136 633.128ZM135.921 635.51C133.425 635.51 131.562 637.373 131.562 640.045C131.562 642.787 133.513 644.598 136.088 644.598C137.854 644.598 139.138 643.886 139.885 642.937L138.355 641.513C137.872 642.102 137.178 642.515 136.255 642.506C135.13 642.497 134.295 641.865 134.014 640.819H140.175C140.219 640.661 140.236 640.256 140.236 639.975C140.236 637.4 138.505 635.51 135.921 635.51ZM136 637.584C137.02 637.584 137.661 638.191 137.898 639.122H134.022C134.295 638.103 135.042 637.584 136 637.584ZM147.32 635.51C146.239 635.51 145.22 635.958 144.499 636.802H144.473V635.668H142.117V644.457H144.473V640.036C144.473 638.472 145.272 637.637 146.468 637.637C147.558 637.637 148.155 638.156 148.155 639.834V644.466H150.511V639.245C150.511 636.538 149.201 635.519 147.32 635.519V635.51ZM160.372 644.449H162.895V633.937H166.437V631.669H156.848V633.937H160.372V644.449ZM171.895 635.51C170.857 635.51 169.899 636.02 169.24 636.952H169.214V635.66H166.858V644.449H169.214V640.379C169.214 639.07 170.005 638.085 171.455 638.085C171.587 638.085 171.842 638.094 172.079 638.112V635.519C172.026 635.51 171.965 635.51 171.895 635.51ZM179.321 635.66V639.922C179.321 641.627 178.398 642.48 177.37 642.48C176.271 642.48 175.797 641.953 175.797 640.344V635.66H173.441V640.959C173.441 643.631 174.777 644.598 176.676 644.598C177.669 644.598 178.601 644.194 179.286 643.376H179.321V644.449H181.677V635.66H179.321ZM189.191 635.51C188.11 635.51 187.091 635.958 186.37 636.802H186.344V635.668H183.988V644.457H186.344V640.036C186.344 638.472 187.144 637.637 188.339 637.637C189.429 637.637 190.026 638.156 190.026 639.834V644.466H192.382V639.245C192.382 636.538 191.072 635.519 189.191 635.519V635.51ZM200.872 635.66V636.574H200.828C200.134 635.862 199.185 635.51 198.2 635.51C195.845 635.51 194.131 637.391 194.131 639.975C194.131 642.533 195.897 644.299 198.323 644.299C199.396 644.299 200.257 643.93 200.881 643.271H200.925V644.15C200.925 645.222 200.081 646.101 198.438 646.101C197.312 646.101 196.442 645.758 195.581 645.284L195.036 647.27C196.064 647.859 197.269 648.158 198.64 648.158C202.015 648.158 203.228 646.18 203.228 643.438V635.66H200.872ZM198.754 642.155C197.497 642.155 196.521 641.285 196.521 639.896C196.521 638.569 197.444 637.655 198.754 637.655C200.002 637.655 200.978 638.534 200.978 639.878C200.978 641.205 200.055 642.155 198.754 642.155ZM212.21 647.112L213.344 646.602C212.271 644.449 211.56 642.005 211.56 639.122C211.56 636.328 212.263 633.708 213.388 631.652L212.28 631.116C210.988 633.207 210.188 636.064 210.188 639.122C210.188 642.295 210.988 644.941 212.21 647.12V647.112ZM217.229 643.069V643.042L220.445 639.782C221.975 638.226 222.546 637.022 222.546 635.624C222.546 633.339 220.753 631.986 218.802 631.986C216.868 631.986 215.62 632.97 214.935 634.332L216.051 635.097C216.631 633.981 217.536 633.401 218.705 633.401C220.076 633.401 221.034 634.411 221.034 635.774C221.034 637.004 220.19 638.015 219.145 639.096L214.917 643.411L214.935 644.457H222.713V643.069H217.229ZM229.226 644.563C232.179 644.563 233.866 641.935 233.866 638.287C233.866 634.227 231.915 631.986 229.226 631.986C226.281 631.986 224.585 634.622 224.585 638.287C224.585 642.322 226.536 644.572 229.226 644.572V644.563ZM229.234 643.165C227.406 643.165 226.114 641.408 226.114 638.287C226.114 635.308 227.257 633.392 229.243 633.392C231.054 633.392 232.337 635.123 232.337 638.287C232.337 641.241 231.212 643.165 229.234 643.165ZM245.283 631.669H241.46V637.268H240.388V638.648H241.46V644.449H245.336C249.414 644.449 251.919 641.847 251.919 638.077C251.919 634.297 249.344 631.669 245.292 631.669H245.283ZM245.248 643.025H243.033V638.639H245.731V637.259H243.033V633.093H245.318C248.298 633.093 250.311 635.15 250.311 638.077C250.311 640.951 248.315 643.025 245.248 643.025ZM258.326 632.847H258.361L259.662 634.455H261.147L258.994 631.88H257.649L255.558 634.455H257.034L258.326 632.847ZM258.361 635.58C255.646 635.58 253.835 637.549 253.835 640.08C253.835 642.594 255.646 644.563 258.361 644.563C260.954 644.563 262.879 642.735 262.879 640.08C262.879 637.409 260.954 635.58 258.361 635.58ZM258.361 643.218C256.56 643.218 255.312 641.812 255.312 640.08C255.312 638.331 256.542 636.925 258.37 636.925C260.066 636.925 261.402 638.208 261.402 640.08C261.402 641.926 260.058 643.218 258.37 643.218H258.361ZM258.361 646.453C257.79 646.453 257.324 646.91 257.324 647.472C257.324 648.043 257.79 648.5 258.361 648.5C258.95 648.5 259.398 648.043 259.398 647.472C259.398 646.91 258.95 646.453 258.361 646.453ZM265.981 634.069C266.553 634.069 267.019 633.612 267.019 633.049C267.019 632.478 266.553 632.021 265.981 632.021C265.393 632.021 264.944 632.478 264.944 633.049C264.944 633.612 265.393 634.069 265.981 634.069ZM265.243 644.449H266.693V635.695H265.243V644.449ZM280.615 644.545C282.865 644.545 284.491 643.526 285.607 642.137L284.438 641.153C283.533 642.26 282.285 643.06 280.624 643.06C277.926 643.06 275.887 641.161 275.887 638.12C275.887 635.159 277.697 633.049 280.615 633.049C282.083 633.049 283.463 633.752 284.438 634.974L285.607 633.998C284.219 632.276 282.382 631.555 280.624 631.555C276.52 631.555 274.252 634.482 274.252 638.12C274.252 642.295 277.17 644.554 280.624 644.554L280.615 644.545ZM292.401 635.589C291.065 635.589 289.923 636.117 289.176 637.11H289.141V631.203H287.682V644.449H289.141V640.036C289.141 638.068 290.239 636.925 291.979 636.925C293.263 636.925 294.124 637.628 294.124 639.615V644.457H295.583V639.193C295.583 636.697 294.3 635.58 292.401 635.58V635.589ZM302.201 644.563C304.785 644.563 306.71 642.744 306.71 640.089C306.71 637.417 304.785 635.589 302.201 635.589C299.485 635.589 297.675 637.549 297.675 640.089C297.675 642.603 299.485 644.563 302.201 644.563ZM302.201 643.227C300.391 643.227 299.143 641.821 299.143 640.089C299.143 638.34 300.373 636.934 302.201 636.934C303.897 636.934 305.233 638.217 305.233 640.089C305.233 641.935 303.889 643.227 302.201 643.227ZM302.192 646.453C301.63 646.453 301.164 646.91 301.164 647.472C301.164 648.043 301.63 648.5 302.192 648.5C302.79 648.5 303.238 648.043 303.238 647.472C303.238 646.91 302.79 646.453 302.192 646.453ZM313.618 635.589C312.326 635.589 311.175 636.161 310.445 637.198H310.419V635.695H308.96V644.449H310.419V640.08C310.419 638.112 311.518 636.925 313.17 636.925C314.453 636.925 315.314 637.611 315.314 639.667V644.457H316.773V639.263C316.773 636.749 315.517 635.589 313.627 635.589H313.618ZM325.984 643.069V643.042L329.201 639.782C330.73 638.226 331.302 637.022 331.302 635.624C331.302 633.339 329.509 631.986 327.558 631.986C325.624 631.986 324.376 632.97 323.69 634.332L324.807 635.097C325.387 633.981 326.292 633.401 327.461 633.401C328.832 633.401 329.79 634.411 329.79 635.774C329.79 637.004 328.946 638.015 327.9 639.096L323.673 643.411L323.69 644.457H331.469V643.069H325.984ZM334.325 647.112C335.556 644.932 336.338 642.295 336.338 639.122C336.338 636.064 335.556 633.199 334.255 631.107L333.147 631.643C334.281 633.7 334.976 636.328 334.976 639.114C334.976 642.005 334.264 644.449 333.191 646.602L334.325 647.112Z" fill="#1A2141"/>
<path d="M122.087 695.908L118.185 703.185H118.149L114.221 695.908H111.672V708.687H114.186V700.751H114.212L117.332 706.27H118.976L122.096 700.751H122.122V708.687H124.636V695.908H122.087ZM128.371 698.668C129.171 698.668 129.839 698.026 129.839 697.226C129.839 696.444 129.171 695.794 128.371 695.794C127.562 695.794 126.912 696.444 126.912 697.226C126.912 698.026 127.562 698.668 128.371 698.668ZM127.193 708.687H129.549V699.898H127.193V708.687ZM140.623 697.016L139.094 694.37H136.729L138.9 697.016H140.623ZM136 697.367H136.053L136.958 698.721H139.129L137.028 696.022H134.945L132.95 698.721H135.104L136 697.367ZM135.921 699.749C133.425 699.749 131.562 701.612 131.562 704.284C131.562 707.026 133.513 708.837 136.088 708.837C137.854 708.837 139.138 708.125 139.885 707.176L138.355 705.752C137.872 706.341 137.178 706.754 136.255 706.745C135.13 706.736 134.295 706.103 134.014 705.057H140.175C140.219 704.899 140.236 704.495 140.236 704.214C140.236 701.639 138.505 699.749 135.921 699.749ZM136 701.823C137.02 701.823 137.661 702.43 137.898 703.361H134.022C134.295 702.342 135.042 701.823 136 701.823ZM147.32 699.749C146.239 699.749 145.22 700.197 144.499 701.041H144.473V699.907H142.117V708.696H144.473V704.275C144.473 702.711 145.272 701.876 146.468 701.876C147.558 701.876 148.155 702.394 148.155 704.073V708.705H150.511V703.484C150.511 700.777 149.201 699.758 147.32 699.758V699.749ZM165.971 695.908V704.548H165.936L160.249 695.908H157.727V708.687H160.249V700.224H160.284L165.909 708.687H168.502V695.908H165.971ZM177.379 699.898V700.9H177.335C176.685 700.144 175.779 699.749 174.742 699.749C172.387 699.749 170.603 701.647 170.603 704.319C170.603 707.035 172.378 708.837 174.821 708.837C175.946 708.837 176.834 708.406 177.44 707.624H177.484V708.687H179.734V699.898H177.379ZM175.252 706.727C173.934 706.727 173.002 705.752 173.002 704.328C173.002 702.825 173.995 701.867 175.261 701.867C176.535 701.867 177.476 702.922 177.476 704.328C177.476 705.769 176.465 706.727 175.243 706.727H175.252ZM192.733 699.749C191.477 699.749 190.396 700.25 189.675 701.173H189.648C189.121 700.197 188.207 699.749 187.038 699.749C186.062 699.749 185.104 700.206 184.41 701.067H184.384V699.898H182.028V708.687H184.384V704.293C184.384 702.72 185.184 701.867 186.238 701.867C187.337 701.867 187.803 702.746 187.803 704.152V708.696H190.149V704.293C190.149 702.72 190.958 701.867 191.942 701.867C193.059 701.867 193.48 702.746 193.48 704.152V708.696H195.836V703.581C195.836 700.9 194.649 699.749 192.742 699.749H192.733ZM204.774 711.35L205.908 710.841C204.836 708.687 204.124 706.244 204.124 703.361C204.124 700.566 204.827 697.947 205.952 695.891L204.845 695.354C203.553 697.446 202.753 700.303 202.753 703.361C202.753 706.534 203.553 709.18 204.774 711.359V711.35ZM209.793 707.307V707.281L213.01 704.02C214.539 702.465 215.11 701.261 215.11 699.863C215.11 697.578 213.317 696.224 211.366 696.224C209.433 696.224 208.185 697.209 207.499 698.571L208.615 699.336C209.195 698.22 210.101 697.64 211.27 697.64C212.641 697.64 213.599 698.65 213.599 700.013C213.599 701.243 212.755 702.254 211.709 703.335L207.481 707.65L207.499 708.696H215.277V707.307H209.793ZM221.79 708.802C224.743 708.802 226.431 706.174 226.431 702.526C226.431 698.466 224.479 696.224 221.79 696.224C218.846 696.224 217.149 698.861 217.149 702.526C217.149 706.56 219.101 708.81 221.79 708.81V708.802ZM221.799 707.404C219.971 707.404 218.679 705.646 218.679 702.526C218.679 699.547 219.821 697.631 221.808 697.631C223.618 697.631 224.901 699.362 224.901 702.526C224.901 705.479 223.776 707.404 221.799 707.404ZM237.848 695.908H234.024V701.507H232.952V702.887H234.024V708.687H237.9C241.979 708.687 244.483 706.086 244.483 702.315C244.483 698.536 241.908 695.908 237.856 695.908H237.848ZM237.812 707.264H235.598V702.878H238.296V701.498H235.598V697.332H237.883C240.862 697.332 242.875 699.389 242.875 702.315C242.875 705.189 240.88 707.264 237.812 707.264ZM250.891 697.086H250.926L252.227 698.694H253.712L251.559 696.119H250.214L248.122 698.694H249.599L250.891 697.086ZM250.926 699.819C248.21 699.819 246.399 701.788 246.399 704.319C246.399 706.833 248.21 708.802 250.926 708.802C253.519 708.802 255.443 706.974 255.443 704.319C255.443 701.647 253.519 699.819 250.926 699.819ZM250.926 707.457C249.124 707.457 247.876 706.051 247.876 704.319C247.876 702.57 249.106 701.164 250.935 701.164C252.631 701.164 253.967 702.447 253.967 704.319C253.967 706.165 252.622 707.457 250.935 707.457H250.926ZM250.926 710.691C250.354 710.691 249.889 711.148 249.889 711.711C249.889 712.282 250.354 712.739 250.926 712.739C251.515 712.739 251.963 712.282 251.963 711.711C251.963 711.148 251.515 710.691 250.926 710.691ZM258.546 698.307C259.117 698.307 259.583 697.85 259.583 697.288C259.583 696.717 259.117 696.26 258.546 696.26C257.957 696.26 257.509 696.717 257.509 697.288C257.509 697.85 257.957 698.307 258.546 698.307ZM257.808 708.687H259.258V699.933H257.808V708.687ZM273.18 708.784C275.43 708.784 277.056 707.765 278.172 706.376L277.003 705.391C276.098 706.499 274.85 707.299 273.188 707.299C270.49 707.299 268.451 705.4 268.451 702.359C268.451 699.397 270.262 697.288 273.18 697.288C274.647 697.288 276.027 697.991 277.003 699.213L278.172 698.237C276.783 696.515 274.946 695.794 273.188 695.794C269.084 695.794 266.816 698.721 266.816 702.359C266.816 706.534 269.734 708.793 273.188 708.793L273.18 708.784ZM284.966 699.828C283.63 699.828 282.487 700.355 281.74 701.349H281.705V695.442H280.246V708.687H281.705V704.275C281.705 702.307 282.804 701.164 284.544 701.164C285.827 701.164 286.688 701.867 286.688 703.853V708.696H288.147V703.432C288.147 700.935 286.864 699.819 284.966 699.819V699.828ZM294.766 708.802C297.35 708.802 299.274 706.982 299.274 704.328C299.274 701.656 297.35 699.828 294.766 699.828C292.05 699.828 290.239 701.788 290.239 704.328C290.239 706.842 292.05 708.802 294.766 708.802ZM294.766 707.466C292.955 707.466 291.707 706.059 291.707 704.328C291.707 702.579 292.938 701.173 294.766 701.173C296.462 701.173 297.798 702.456 297.798 704.328C297.798 706.174 296.453 707.466 294.766 707.466ZM294.757 710.691C294.194 710.691 293.729 711.148 293.729 711.711C293.729 712.282 294.194 712.739 294.757 712.739C295.354 712.739 295.803 712.282 295.803 711.711C295.803 711.148 295.354 710.691 294.757 710.691ZM306.183 699.828C304.891 699.828 303.739 700.399 303.01 701.436H302.983V699.933H301.524V708.687H302.983V704.319C302.983 702.35 304.082 701.164 305.734 701.164C307.018 701.164 307.879 701.849 307.879 703.906V708.696H309.338V703.502C309.338 700.988 308.081 699.828 306.191 699.828H306.183ZM321.827 708.687H323.348V706.516H325.141V705.145H323.348V696.339H322.064L316.088 705.435V706.516H321.827V708.687ZM317.916 705.181L321.862 699.09V705.181H317.916ZM327.751 711.35C328.981 709.171 329.764 706.534 329.764 703.361C329.764 700.303 328.981 697.437 327.681 695.346L326.573 695.882C327.707 697.938 328.401 700.566 328.401 703.352C328.401 706.244 327.689 708.687 326.617 710.841L327.751 711.35Z" fill="#1A2141"/>
<path d="M113.86 606.199H115.372V593.85H114.124L110.652 596.399L111.399 597.524L113.86 595.669V606.199ZM122.685 606.313C125.638 606.313 127.325 603.685 127.325 600.037C127.325 595.977 125.374 593.736 122.685 593.736C119.74 593.736 118.044 596.372 118.044 600.037C118.044 604.072 119.995 606.322 122.685 606.322V606.313ZM122.693 604.915C120.865 604.915 119.573 603.158 119.573 600.037C119.573 597.058 120.716 595.142 122.702 595.142C124.513 595.142 125.796 596.873 125.796 600.037C125.796 602.991 124.671 604.915 122.693 604.915ZM129.013 608.229L135.93 592.901L134.761 592.347L127.835 607.684L129.013 608.229ZM139.384 606.199H140.896V593.85H139.647L136.176 596.399L136.923 597.524L139.384 595.669V606.199ZM146.151 606.199H147.663V593.85H146.415L142.943 596.399L143.69 597.524L146.151 595.669V606.199ZM150.106 608.229L157.023 592.901L155.854 592.347L148.929 607.684L150.106 608.229ZM159.906 604.819V604.792L163.123 601.532C164.652 599.976 165.224 598.772 165.224 597.374C165.224 595.089 163.431 593.736 161.479 593.736C159.546 593.736 158.298 594.72 157.612 596.082L158.729 596.847C159.309 595.731 160.214 595.151 161.383 595.151C162.754 595.151 163.712 596.161 163.712 597.524C163.712 598.754 162.868 599.765 161.822 600.846L157.595 605.161L157.612 606.207H165.391V604.819H159.906ZM171.903 606.313C174.856 606.313 176.544 603.685 176.544 600.037C176.544 595.977 174.593 593.736 171.903 593.736C168.959 593.736 167.263 596.372 167.263 600.037C167.263 604.072 169.214 606.322 171.903 606.322V606.313ZM171.912 604.915C170.084 604.915 168.792 603.158 168.792 600.037C168.792 597.058 169.935 595.142 171.921 595.142C173.731 595.142 175.015 596.873 175.015 600.037C175.015 602.991 173.89 604.915 171.912 604.915ZM180.525 604.819V604.792L183.742 601.532C185.271 599.976 185.843 598.772 185.843 597.374C185.843 595.089 184.05 593.736 182.099 593.736C180.165 593.736 178.917 594.72 178.231 596.082L179.348 596.847C179.928 595.731 180.833 595.151 182.002 595.151C183.373 595.151 184.331 596.161 184.331 597.524C184.331 598.754 183.487 599.765 182.441 600.846L178.214 605.161L178.231 606.207H186.01V604.819H180.525ZM192.522 606.313C195.476 606.313 197.163 603.685 197.163 600.037C197.163 595.977 195.212 593.736 192.522 593.736C189.578 593.736 187.882 596.372 187.882 600.037C187.882 604.072 189.833 606.322 192.522 606.322V606.313ZM192.531 604.915C190.703 604.915 189.411 603.158 189.411 600.037C189.411 597.058 190.554 595.142 192.54 595.142C194.351 595.142 195.634 596.873 195.634 600.037C195.634 602.991 194.509 604.915 192.531 604.915Z" fill="#757575"/>
<path d="M113.86 669.949H115.372V657.6H114.124L110.652 660.149L111.399 661.274L113.86 659.419V669.949ZM117.815 671.979L124.732 656.651L123.563 656.097L116.638 671.434L117.815 671.979ZM128.187 669.949H129.698V657.6H128.45L124.979 660.149L125.726 661.274L128.187 659.419V669.949ZM134.954 669.949H136.466V657.6H135.218L131.746 660.149L132.493 661.274L134.954 659.419V669.949ZM138.909 671.979L145.826 656.651L144.657 656.097L137.731 671.434L138.909 671.979ZM148.709 668.569V668.542L151.926 665.282C153.455 663.726 154.026 662.522 154.026 661.124C154.026 658.839 152.233 657.486 150.282 657.486C148.349 657.486 147.101 658.47 146.415 659.832L147.531 660.597C148.111 659.481 149.017 658.901 150.186 658.901C151.557 658.901 152.515 659.911 152.515 661.274C152.515 662.504 151.671 663.515 150.625 664.596L146.397 668.911L146.415 669.957H154.193V668.569H148.709ZM160.706 670.063C163.659 670.063 165.347 667.435 165.347 663.787C165.347 659.727 163.396 657.486 160.706 657.486C157.762 657.486 156.065 660.122 156.065 663.787C156.065 667.822 158.017 670.072 160.706 670.072V670.063ZM160.715 668.665C158.887 668.665 157.595 666.908 157.595 663.787C157.595 660.808 158.737 658.892 160.724 658.892C162.534 658.892 163.817 660.623 163.817 663.787C163.817 666.741 162.692 668.665 160.715 668.665ZM169.328 668.569V668.542L172.545 665.282C174.074 663.726 174.646 662.522 174.646 661.124C174.646 658.839 172.853 657.486 170.901 657.486C168.968 657.486 167.72 658.47 167.034 659.832L168.15 660.597C168.73 659.481 169.636 658.901 170.805 658.901C172.176 658.901 173.134 659.911 173.134 661.274C173.134 662.504 172.29 663.515 171.244 664.596L167.017 668.911L167.034 669.957H174.812V668.569H169.328ZM181.325 670.063C184.278 670.063 185.966 667.435 185.966 663.787C185.966 659.727 184.015 657.486 181.325 657.486C178.381 657.486 176.685 660.122 176.685 663.787C176.685 667.822 178.636 670.072 181.325 670.072V670.063ZM181.334 668.665C179.506 668.665 178.214 666.908 178.214 663.787C178.214 660.808 179.356 658.892 181.343 658.892C183.153 658.892 184.437 660.623 184.437 663.787C184.437 666.741 183.312 668.665 181.334 668.665Z" fill="#757575"/>
<line x1="81.5283" y1="185" x2="81.5283" y2="366.511" stroke="#E6215A"/>
<circle cx="81.7256" cy="205.022" r="5" fill="#E6215A"/>
<circle cx="81.7256" cy="269.772" r="5" fill="#E6215A"/>
<circle cx="81.7256" cy="339.011" r="5" fill="#E6215A"/>
<path d="M122.087 202.243L118.185 209.521H118.149L114.221 202.243H111.672V215.022H114.186V207.086H114.212L117.332 212.605H118.976L122.096 207.086H122.122V215.022H124.636V202.243H122.087ZM128.371 205.003C129.171 205.003 129.839 204.361 129.839 203.562C129.839 202.779 129.171 202.129 128.371 202.129C127.562 202.129 126.912 202.779 126.912 203.562C126.912 204.361 127.562 205.003 128.371 205.003ZM127.193 215.022H129.549V206.233H127.193V215.022ZM140.623 203.351L139.094 200.705H136.729L138.9 203.351H140.623ZM136 203.702H136.053L136.958 205.056H139.129L137.028 202.357H134.945L132.95 205.056H135.104L136 203.702ZM135.921 206.084C133.425 206.084 131.562 207.947 131.562 210.619C131.562 213.361 133.513 215.172 136.088 215.172C137.854 215.172 139.138 214.46 139.885 213.511L138.355 212.087C137.872 212.676 137.178 213.089 136.255 213.08C135.13 213.071 134.295 212.438 134.014 211.393H140.175C140.219 211.234 140.236 210.83 140.236 210.549C140.236 207.974 138.505 206.084 135.921 206.084ZM136 208.158C137.02 208.158 137.661 208.765 137.898 209.696H134.022C134.295 208.677 135.042 208.158 136 208.158ZM147.32 206.084C146.239 206.084 145.22 206.532 144.499 207.376H144.473V206.242H142.117V215.031H144.473V210.61C144.473 209.046 145.272 208.211 146.468 208.211C147.558 208.211 148.155 208.729 148.155 210.408V215.04H150.511V209.819C150.511 207.112 149.201 206.093 147.32 206.093V206.084ZM164.608 208.255V208.22C165.988 207.684 166.516 206.506 166.516 205.363C166.516 203.333 165.065 202.243 162.35 202.243H157.735V215.022H163.026C165.821 215.022 167.175 213.546 167.175 211.498C167.175 209.811 166.243 208.668 164.608 208.255ZM160.214 204.484H161.857C163.334 204.476 163.949 205.082 163.949 205.97C163.949 207.024 163.035 207.481 162.024 207.481H160.214V204.484ZM162.253 212.808H160.214V209.521H162.279C163.782 209.521 164.529 210.18 164.529 211.182C164.529 212.271 163.606 212.799 162.253 212.808ZM176.307 199.431L173.828 199.439L171.789 202.085H174.065L176.307 199.431ZM173.274 205.108C174.988 205.108 176.087 203.948 176.21 202.401H174.426C174.391 203.113 173.916 203.535 173.274 203.535C172.571 203.535 172.158 203.034 172.114 202.401H170.339C170.471 204.15 171.771 205.108 173.274 205.108ZM175.384 206.233V207.227H175.349C174.698 206.471 173.793 206.084 172.756 206.084C170.4 206.084 168.616 207.982 168.616 210.654C168.616 213.37 170.392 215.172 172.826 215.172C173.96 215.172 174.848 214.741 175.454 213.959H175.498V215.022H177.739V206.233H175.384ZM173.257 213.062C171.938 213.062 171.007 212.087 171.007 210.663C171.007 209.16 172 208.202 173.266 208.202C174.54 208.202 175.48 209.257 175.48 210.663C175.48 212.104 174.479 213.062 173.257 213.062ZM184.085 215.172C185.86 215.172 187.214 214.478 187.97 213.599L186.361 212.175C185.948 212.641 185.254 213.062 184.322 213.062C182.925 213.062 181.967 212.061 181.967 210.628C181.967 209.195 182.898 208.202 184.296 208.202C185.184 208.202 185.869 208.589 186.344 209.143L187.935 207.771C187.047 206.655 185.597 206.084 184.199 206.084C181.475 206.084 179.567 207.938 179.567 210.637C179.567 213.335 181.483 215.172 184.085 215.172Z" fill="#1A2141"/>
<path d="M122.087 263.993L118.185 271.271H118.149L114.221 263.993H111.672V276.772H114.186V268.836H114.212L117.332 274.355H118.976L122.096 268.836H122.122V276.772H124.636V263.993H122.087ZM128.371 266.753C129.171 266.753 129.839 266.111 129.839 265.312C129.839 264.529 129.171 263.879 128.371 263.879C127.562 263.879 126.912 264.529 126.912 265.312C126.912 266.111 127.562 266.753 128.371 266.753ZM127.193 276.772H129.549V267.983H127.193V276.772ZM140.623 265.101L139.094 262.455H136.729L138.9 265.101H140.623ZM136 265.452H136.053L136.958 266.806H139.129L137.028 264.107H134.945L132.95 266.806H135.104L136 265.452ZM135.921 267.834C133.425 267.834 131.562 269.697 131.562 272.369C131.562 275.111 133.513 276.922 136.088 276.922C137.854 276.922 139.138 276.21 139.885 275.261L138.355 273.837C137.872 274.426 137.178 274.839 136.255 274.83C135.13 274.821 134.295 274.188 134.014 273.143H140.175C140.219 272.984 140.236 272.58 140.236 272.299C140.236 269.724 138.505 267.834 135.921 267.834ZM136 269.908C137.02 269.908 137.661 270.515 137.898 271.446H134.022C134.295 270.427 135.042 269.908 136 269.908ZM147.32 267.834C146.239 267.834 145.22 268.282 144.499 269.126H144.473V267.992H142.117V276.781H144.473V272.36C144.473 270.796 145.272 269.961 146.468 269.961C147.558 269.961 148.155 270.479 148.155 272.158V276.79H150.511V271.569C150.511 268.862 149.201 267.843 147.32 267.843V267.834ZM160.372 276.772H162.895V266.261H166.437V263.993H156.848V266.261H160.372V276.772ZM171.895 267.834C170.857 267.834 169.899 268.344 169.24 269.275H169.214V267.983H166.858V276.772H169.214V272.703C169.214 271.394 170.005 270.409 171.455 270.409C171.587 270.409 171.842 270.418 172.079 270.436V267.843C172.026 267.834 171.965 267.834 171.895 267.834ZM179.321 267.983V272.246C179.321 273.951 178.398 274.804 177.37 274.804C176.271 274.804 175.797 274.276 175.797 272.668V267.983H173.441V273.283C173.441 275.955 174.777 276.922 176.676 276.922C177.669 276.922 178.601 276.518 179.286 275.7H179.321V276.772H181.677V267.983H179.321ZM189.191 267.834C188.11 267.834 187.091 268.282 186.37 269.126H186.344V267.992H183.988V276.781H186.344V272.36C186.344 270.796 187.144 269.961 188.339 269.961C189.429 269.961 190.026 270.479 190.026 272.158V276.79H192.382V271.569C192.382 268.862 191.072 267.843 189.191 267.843V267.834ZM200.872 267.983V268.897H200.828C200.134 268.186 199.185 267.834 198.2 267.834C195.845 267.834 194.131 269.715 194.131 272.299C194.131 274.856 195.897 276.623 198.323 276.623C199.396 276.623 200.257 276.254 200.881 275.595H200.925V276.474C200.925 277.546 200.081 278.425 198.438 278.425C197.312 278.425 196.442 278.082 195.581 277.607L195.036 279.594C196.064 280.183 197.269 280.481 198.64 280.481C202.015 280.481 203.228 278.504 203.228 275.762V267.983H200.872ZM198.754 274.479C197.497 274.479 196.521 273.608 196.521 272.22C196.521 270.893 197.444 269.979 198.754 269.979C200.002 269.979 200.978 270.857 200.978 272.202C200.978 273.529 200.055 274.479 198.754 274.479Z" fill="#1A2141"/>
<path d="M122.087 328.232L118.185 335.509H118.149L114.221 328.232H111.672V341.011H114.186V333.075H114.212L117.332 338.594H118.976L122.096 333.075H122.122V341.011H124.636V328.232H122.087ZM128.371 330.992C129.171 330.992 129.839 330.35 129.839 329.55C129.839 328.768 129.171 328.118 128.371 328.118C127.562 328.118 126.912 328.768 126.912 329.55C126.912 330.35 127.562 330.992 128.371 330.992ZM127.193 341.011H129.549V332.222H127.193V341.011ZM140.623 329.339L139.094 326.694H136.729L138.9 329.339H140.623ZM136 329.691H136.053L136.958 331.044H139.129L137.028 328.346H134.945L132.95 331.044H135.104L136 329.691ZM135.921 332.073C133.425 332.073 131.562 333.936 131.562 336.608C131.562 339.35 133.513 341.161 136.088 341.161C137.854 341.161 139.138 340.449 139.885 339.5L138.355 338.076C137.872 338.665 137.178 339.078 136.255 339.069C135.13 339.06 134.295 338.427 134.014 337.381H140.175C140.219 337.223 140.236 336.819 140.236 336.538C140.236 333.962 138.505 332.073 135.921 332.073ZM136 334.147C137.02 334.147 137.661 334.753 137.898 335.685H134.022C134.295 334.666 135.042 334.147 136 334.147ZM147.32 332.073C146.239 332.073 145.22 332.521 144.499 333.365H144.473V332.231H142.117V341.02H144.473V336.599C144.473 335.035 145.272 334.2 146.468 334.2C147.558 334.2 148.155 334.718 148.155 336.397V341.029H150.511V335.808C150.511 333.101 149.201 332.082 147.32 332.082V332.073ZM165.971 328.232V336.872H165.936L160.249 328.232H157.727V341.011H160.249V332.547H160.284L165.909 341.011H168.502V328.232H165.971ZM177.379 332.222V333.224H177.335C176.685 332.468 175.779 332.073 174.742 332.073C172.387 332.073 170.603 333.971 170.603 336.643C170.603 339.359 172.378 341.161 174.821 341.161C175.946 341.161 176.834 340.73 177.44 339.948H177.484V341.011H179.734V332.222H177.379ZM175.252 339.051C173.934 339.051 173.002 338.076 173.002 336.652C173.002 335.149 173.995 334.191 175.261 334.191C176.535 334.191 177.476 335.246 177.476 336.652C177.476 338.093 176.465 339.051 175.243 339.051H175.252ZM192.733 332.073C191.477 332.073 190.396 332.574 189.675 333.497H189.648C189.121 332.521 188.207 332.073 187.038 332.073C186.062 332.073 185.104 332.53 184.41 333.391H184.384V332.222H182.028V341.011H184.384V336.617C184.384 335.043 185.184 334.191 186.238 334.191C187.337 334.191 187.803 335.07 187.803 336.476V341.02H190.149V336.617C190.149 335.043 190.958 334.191 191.942 334.191C193.059 334.191 193.48 335.07 193.48 336.476V341.02H195.836V335.905C195.836 333.224 194.649 332.073 192.742 332.073H192.733Z" fill="#1A2141"/>
<path d="M110.758 226.174V227.562H116.726L112.006 238.443L113.509 238.733L118.404 227.22V226.174H110.758ZM118.659 240.553L125.576 225.225L124.407 224.671L117.481 240.008L118.659 240.553ZM130.56 226.051C128.125 226.051 126.288 227.791 126.288 230.094C126.288 232.502 127.923 233.979 130.041 233.979C131.263 233.979 132.353 233.565 133.144 232.889L133.161 232.897C132.414 235.64 130.243 237.107 128.002 237.67L128.459 238.962C131.667 238.373 134.901 235.411 134.901 230.911C134.91 227.976 133.012 226.06 130.56 226.06V226.051ZM130.375 232.599C128.837 232.599 127.809 231.588 127.809 230.111C127.809 228.679 128.916 227.466 130.586 227.466C132.221 227.466 133.425 228.767 133.425 230.779V230.876C132.792 231.896 131.614 232.599 130.375 232.599ZM141.845 233.697H147.171V232.265H141.845V233.697ZM159.458 238.522H160.979V236.352H162.771V234.98H160.979V226.174H159.695L153.719 235.271V236.352H159.458V238.522ZM155.547 235.016L159.493 228.925V235.016H155.547ZM164.063 240.553L170.98 225.225L169.812 224.671L162.886 240.008L164.063 240.553ZM174.435 238.522H175.946V226.174H174.698L171.227 228.723L171.974 229.848L174.435 227.993V238.522ZM183.259 238.637C186.212 238.637 187.899 236.009 187.899 232.361C187.899 228.301 185.948 226.06 183.259 226.06C180.314 226.06 178.618 228.696 178.618 232.361C178.618 236.396 180.569 238.646 183.259 238.646V238.637ZM183.268 237.239C181.439 237.239 180.147 235.481 180.147 232.361C180.147 229.382 181.29 227.466 183.276 227.466C185.087 227.466 186.37 229.197 186.37 232.361C186.37 235.314 185.245 237.239 183.268 237.239ZM189.587 240.553L196.504 225.225L195.335 224.671L188.409 240.008L189.587 240.553ZM199.387 237.143V237.116L202.604 233.855C204.133 232.3 204.704 231.096 204.704 229.698C204.704 227.413 202.911 226.06 200.96 226.06C199.026 226.06 197.778 227.044 197.093 228.406L198.209 229.171C198.789 228.055 199.694 227.475 200.863 227.475C202.234 227.475 203.192 228.485 203.192 229.848C203.192 231.078 202.349 232.089 201.303 233.17L197.075 237.485L197.093 238.531H204.871V237.143H199.387ZM211.384 238.637C214.337 238.637 216.024 236.009 216.024 232.361C216.024 228.301 214.073 226.06 211.384 226.06C208.439 226.06 206.743 228.696 206.743 232.361C206.743 236.396 208.694 238.646 211.384 238.646V238.637ZM211.393 237.239C209.564 237.239 208.272 235.481 208.272 232.361C208.272 229.382 209.415 227.466 211.401 227.466C213.212 227.466 214.495 229.197 214.495 232.361C214.495 235.314 213.37 237.239 211.393 237.239ZM220.006 237.143V237.116L223.223 233.855C224.752 232.3 225.323 231.096 225.323 229.698C225.323 227.413 223.53 226.06 221.579 226.06C219.646 226.06 218.397 227.044 217.712 228.406L218.828 229.171C219.408 228.055 220.313 227.475 221.482 227.475C222.854 227.475 223.812 228.485 223.812 229.848C223.812 231.078 222.968 232.089 221.922 233.17L217.694 237.485L217.712 238.531H225.49V237.143H220.006ZM232.003 238.637C234.956 238.637 236.644 236.009 236.644 232.361C236.644 228.301 234.692 226.06 232.003 226.06C229.059 226.06 227.362 228.696 227.362 232.361C227.362 236.396 229.313 238.646 232.003 238.646V238.637ZM232.012 237.239C230.184 237.239 228.892 235.481 228.892 232.361C228.892 229.382 230.034 227.466 232.021 227.466C233.831 227.466 235.114 229.197 235.114 232.361C235.114 235.314 233.989 237.239 232.012 237.239Z" fill="#757575"/>
<path d="M115.398 294.433C114.924 294.433 114.203 294.556 113.535 294.775L113.729 291.304H118.835V289.915H112.305L111.944 296.164L112.823 296.437C113.395 295.944 114.194 295.76 115.003 295.76C116.506 295.76 117.859 296.674 117.859 298.353C117.859 299.864 116.576 300.98 114.977 300.98C113.711 300.98 112.674 300.374 112.111 299.469L110.986 300.33C111.856 301.622 113.386 302.396 115.091 302.396C117.49 302.396 119.389 300.752 119.389 298.37C119.389 295.883 117.587 294.424 115.398 294.424V294.433ZM120.962 304.303L127.879 288.975L126.71 288.421L119.784 303.758L120.962 304.303ZM131.333 302.272H132.845V289.924H131.597L128.125 292.473L128.872 293.598L131.333 291.743V302.272ZM140.157 302.387C143.11 302.387 144.798 299.759 144.798 296.111C144.798 292.051 142.847 289.81 140.157 289.81C137.213 289.81 135.517 292.446 135.517 296.111C135.517 300.146 137.468 302.396 140.157 302.396V302.387ZM140.166 300.989C138.338 300.989 137.046 299.231 137.046 296.111C137.046 293.132 138.188 291.216 140.175 291.216C141.985 291.216 143.269 292.947 143.269 296.111C143.269 299.064 142.144 300.989 140.166 300.989ZM151.794 297.447H157.12V296.015H151.794V297.447ZM166.129 300.893V300.866L169.346 297.605C170.875 296.05 171.446 294.846 171.446 293.448C171.446 291.163 169.653 289.81 167.702 289.81C165.769 289.81 164.521 290.794 163.835 292.156L164.951 292.921C165.531 291.805 166.437 291.225 167.605 291.225C168.977 291.225 169.935 292.235 169.935 293.598C169.935 294.828 169.091 295.839 168.045 296.92L163.817 301.235L163.835 302.281H171.613V300.893H166.129ZM177.555 294.433C177.08 294.433 176.359 294.556 175.691 294.775L175.885 291.304H180.991V289.915H174.461L174.101 296.164L174.979 296.437C175.551 295.944 176.351 295.76 177.159 295.76C178.662 295.76 180.016 296.674 180.016 298.353C180.016 299.864 178.732 300.98 177.133 300.98C175.867 300.98 174.83 300.374 174.268 299.469L173.143 300.33C174.013 301.622 175.542 302.396 177.247 302.396C179.646 302.396 181.545 300.752 181.545 298.37C181.545 295.883 179.743 294.424 177.555 294.424V294.433ZM183.118 304.303L190.035 288.975L188.866 288.421L181.94 303.758L183.118 304.303ZM193.489 302.272H195.001V289.924H193.753L190.281 292.473L191.028 293.598L193.489 291.743V302.272ZM202.313 302.387C205.267 302.387 206.954 299.759 206.954 296.111C206.954 292.051 205.003 289.81 202.313 289.81C199.369 289.81 197.673 292.446 197.673 296.111C197.673 300.146 199.624 302.396 202.313 302.396V302.387ZM202.322 300.989C200.494 300.989 199.202 299.231 199.202 296.111C199.202 293.132 200.345 291.216 202.331 291.216C204.142 291.216 205.425 292.947 205.425 296.111C205.425 299.064 204.3 300.989 202.322 300.989ZM208.642 304.303L215.559 288.975L214.39 288.421L207.464 303.758L208.642 304.303ZM218.441 300.893V300.866L221.658 297.605C223.188 296.05 223.759 294.846 223.759 293.448C223.759 291.163 221.966 289.81 220.015 289.81C218.081 289.81 216.833 290.794 216.147 292.156L217.264 292.921C217.844 291.805 218.749 291.225 219.918 291.225C221.289 291.225 222.247 292.235 222.247 293.598C222.247 294.828 221.403 295.839 220.357 296.92L216.13 301.235L216.147 302.281H223.926V300.893H218.441ZM230.438 302.387C233.392 302.387 235.079 299.759 235.079 296.111C235.079 292.051 233.128 289.81 230.438 289.81C227.494 289.81 225.798 292.446 225.798 296.111C225.798 300.146 227.749 302.396 230.438 302.396V302.387ZM230.447 300.989C228.619 300.989 227.327 299.231 227.327 296.111C227.327 293.132 228.47 291.216 230.456 291.216C232.267 291.216 233.55 292.947 233.55 296.111C233.55 299.064 232.425 300.989 230.447 300.989ZM239.061 300.893V300.866L242.277 297.605C243.807 296.05 244.378 294.846 244.378 293.448C244.378 291.163 242.585 289.81 240.634 289.81C238.7 289.81 237.452 290.794 236.767 292.156L237.883 292.921C238.463 291.805 239.368 291.225 240.537 291.225C241.908 291.225 242.866 292.235 242.866 293.598C242.866 294.828 242.022 295.839 240.977 296.92L236.749 301.235L236.767 302.281H244.545V300.893H239.061ZM251.058 302.387C254.011 302.387 255.698 299.759 255.698 296.111C255.698 292.051 253.747 289.81 251.058 289.81C248.113 289.81 246.417 292.446 246.417 296.111C246.417 300.146 248.368 302.396 251.058 302.396V302.387ZM251.066 300.989C249.238 300.989 247.946 299.231 247.946 296.111C247.946 293.132 249.089 291.216 251.075 291.216C252.886 291.216 254.169 292.947 254.169 296.111C254.169 299.064 253.044 300.989 251.066 300.989Z" fill="#757575"/>
<path d="M115.398 357.671C114.924 357.671 114.203 357.794 113.535 358.014L113.729 354.542H118.835V353.154H112.305L111.944 359.403L112.823 359.675C113.395 359.183 114.194 358.999 115.003 358.999C116.506 358.999 117.859 359.913 117.859 361.591C117.859 363.103 116.576 364.219 114.977 364.219C113.711 364.219 112.674 363.613 112.111 362.708L110.986 363.569C111.856 364.861 113.386 365.634 115.091 365.634C117.49 365.634 119.389 363.991 119.389 361.609C119.389 359.122 117.587 357.663 115.398 357.663V357.671ZM120.962 367.542L127.879 352.213L126.71 351.66L119.784 366.997L120.962 367.542ZM131.333 365.511H132.845V353.163H131.597L128.125 355.711L128.872 356.836L131.333 354.982V365.511ZM140.157 365.625C143.11 365.625 144.798 362.998 144.798 359.35C144.798 355.29 142.847 353.048 140.157 353.048C137.213 353.048 135.517 355.685 135.517 359.35C135.517 363.384 137.468 365.634 140.157 365.634V365.625ZM140.166 364.228C138.338 364.228 137.046 362.47 137.046 359.35C137.046 356.371 138.188 354.455 140.175 354.455C141.985 354.455 143.269 356.186 143.269 359.35C143.269 362.303 142.144 364.228 140.166 364.228ZM151.794 360.686H157.12V359.253H151.794V360.686ZM166.7 365.511H168.212V353.163H166.964L163.492 355.711L164.239 356.836L166.7 354.982V365.511ZM170.655 367.542L177.572 352.213L176.403 351.66L169.478 366.997L170.655 367.542ZM181.026 365.511H182.538V353.163H181.29L177.818 355.711L178.565 356.836L181.026 354.982V365.511ZM187.794 365.511H189.306V353.163H188.058L184.586 355.711L185.333 356.836L187.794 354.982V365.511ZM191.749 367.542L198.666 352.213L197.497 351.66L190.571 366.997L191.749 367.542ZM201.549 364.131V364.105L204.766 360.844C206.295 359.289 206.866 358.084 206.866 356.687C206.866 354.402 205.073 353.048 203.122 353.048C201.188 353.048 199.94 354.033 199.255 355.395L200.371 356.16C200.951 355.043 201.856 354.463 203.025 354.463C204.396 354.463 205.354 355.474 205.354 356.836C205.354 358.067 204.511 359.078 203.465 360.159L199.237 364.474L199.255 365.52H207.033V364.131H201.549ZM213.546 365.625C216.499 365.625 218.187 362.998 218.187 359.35C218.187 355.29 216.235 353.048 213.546 353.048C210.602 353.048 208.905 355.685 208.905 359.35C208.905 363.384 210.856 365.634 213.546 365.634V365.625ZM213.555 364.228C211.727 364.228 210.435 362.47 210.435 359.35C210.435 356.371 211.577 354.455 213.563 354.455C215.374 354.455 216.657 356.186 216.657 359.35C216.657 362.303 215.532 364.228 213.555 364.228ZM222.168 364.131V364.105L225.385 360.844C226.914 359.289 227.485 358.084 227.485 356.687C227.485 354.402 225.692 353.048 223.741 353.048C221.808 353.048 220.56 354.033 219.874 355.395L220.99 356.16C221.57 355.043 222.476 354.463 223.645 354.463C225.016 354.463 225.974 355.474 225.974 356.836C225.974 358.067 225.13 359.078 224.084 360.159L219.856 364.474L219.874 365.52H227.652V364.131H222.168ZM234.165 365.625C237.118 365.625 238.806 362.998 238.806 359.35C238.806 355.29 236.854 353.048 234.165 353.048C231.221 353.048 229.524 355.685 229.524 359.35C229.524 363.384 231.476 365.634 234.165 365.634V365.625ZM234.174 364.228C232.346 364.228 231.054 362.47 231.054 359.35C231.054 356.371 232.196 354.455 234.183 354.455C235.993 354.455 237.276 356.186 237.276 359.35C237.276 362.303 236.151 364.228 234.174 364.228Z" fill="#757575"/>
<path d="M117.438 727.005V726.979C118.281 726.671 119.178 725.687 119.178 724.36C119.178 722.479 117.666 721.204 115.425 721.204C113.315 721.204 111.698 722.382 111.698 724.36C111.698 725.696 112.595 726.68 113.43 726.979V727.005C112.094 727.427 111.092 728.614 111.092 730.275C111.092 732.287 112.885 733.782 115.434 733.782C117.859 733.782 119.793 732.411 119.793 730.275C119.793 728.596 118.791 727.418 117.438 726.996V727.005ZM115.434 722.558C116.761 722.558 117.736 723.349 117.736 724.465C117.736 725.599 116.796 726.328 115.442 726.328C114.106 726.328 113.166 725.599 113.166 724.465C113.166 723.428 114.071 722.558 115.442 722.558H115.434ZM115.434 732.411C113.869 732.411 112.639 731.444 112.639 730.108C112.639 728.719 113.755 727.744 115.434 727.744C117.121 727.744 118.237 728.71 118.237 730.108C118.237 731.338 117.13 732.411 115.434 732.411ZM121.296 735.706L128.213 720.378L127.044 719.825L120.118 735.161L121.296 735.706ZM131.667 733.676H133.179V721.328H131.931L128.459 723.876L129.206 725.001L131.667 723.147V733.676ZM138.435 733.676H139.946V721.328H138.698L135.227 723.876L135.974 725.001L138.435 723.147V733.676ZM142.39 735.706L149.307 720.378L148.138 719.825L141.212 735.161L142.39 735.706ZM152.189 732.296V732.27L155.406 729.009C156.936 727.453 157.507 726.249 157.507 724.852C157.507 722.567 155.714 721.213 153.763 721.213C151.829 721.213 150.581 722.198 149.896 723.56L151.012 724.325C151.592 723.208 152.497 722.628 153.666 722.628C155.037 722.628 155.995 723.639 155.995 725.001C155.995 726.232 155.151 727.243 154.105 728.324L149.878 732.639L149.896 733.685H157.674V732.296H152.189ZM164.187 733.79C167.14 733.79 168.827 731.162 168.827 727.515C168.827 723.454 166.876 721.213 164.187 721.213C161.242 721.213 159.546 723.85 159.546 727.515C159.546 731.549 161.497 733.799 164.187 733.799V733.79ZM164.195 732.393C162.367 732.393 161.075 730.635 161.075 727.515C161.075 724.536 162.218 722.62 164.204 722.62C166.015 722.62 167.298 724.351 167.298 727.515C167.298 730.468 166.173 732.393 164.195 732.393ZM172.809 732.296V732.27L176.025 729.009C177.555 727.453 178.126 726.249 178.126 724.852C178.126 722.567 176.333 721.213 174.382 721.213C172.448 721.213 171.2 722.198 170.515 723.56L171.631 724.325C172.211 723.208 173.116 722.628 174.285 722.628C175.656 722.628 176.614 723.639 176.614 725.001C176.614 726.232 175.771 727.243 174.725 728.324L170.497 732.639L170.515 733.685H178.293V732.296H172.809ZM184.806 733.79C187.759 733.79 189.446 731.162 189.446 727.515C189.446 723.454 187.495 721.213 184.806 721.213C181.861 721.213 180.165 723.85 180.165 727.515C180.165 731.549 182.116 733.799 184.806 733.799V733.79ZM184.814 732.393C182.986 732.393 181.694 730.635 181.694 727.515C181.694 724.536 182.837 722.62 184.823 722.62C186.634 722.62 187.917 724.351 187.917 727.515C187.917 730.468 186.792 732.393 184.814 732.393Z" fill="#757575"/>
<line x1="48" y1="160.392" x2="48" y2="400.392" stroke="#E5E5E5" stroke-width="2"/>
<line x1="48" y1="519.949" x2="48" y2="770.949" stroke="#E5E5E5" stroke-width="2"/>
<line x1="48" y1="892.563" x2="48" y2="1062" stroke="#E5E5E5" stroke-width="2"/>
<path d="M133.213 541.676C90.7129 541.676 56.1525 507.101 56.1525 464.615C56.1381 422.115 90.7129 387.54 133.213 387.54C175.714 387.54 210.274 422.115 210.274 464.601C210.274 507.101 175.7 541.676 133.213 541.676ZM133.213 390.828C92.5364 390.828 59.4262 423.924 59.4262 464.615C59.4262 505.292 92.522 538.388 133.213 538.388C173.905 538.388 207.001 505.292 207.001 464.615C206.986 423.924 173.891 390.828 133.213 390.828Z" fill="#E6215A"/>
<path d="M17.4142 506.891V484.981L50.5428 454.338C53.1253 451.908 54.8609 449.853 55.68 448.229C56.4437 446.688 56.8464 445.188 56.8464 443.772C56.8464 442.245 56.402 441.175 55.444 440.384C54.3888 439.509 52.7088 439.065 50.4733 439.065C48.1546 439.065 46.0442 439.662 44.0031 440.898C41.9899 442.12 40.4764 443.814 39.3935 446.063L38.366 448.187L11.3188 434.664L12.4435 432.553C16.0535 425.791 21.399 420.362 28.3274 416.447C35.2142 412.545 43.6144 410.574 53.278 410.574C60.6368 410.574 67.2737 411.796 72.9941 414.212C78.8256 416.669 83.4631 420.251 86.7815 424.847C90.1277 429.499 91.8355 434.914 91.8355 440.926C91.8355 446.202 90.6969 451.214 88.4615 455.824C86.2122 460.447 82.0469 465.473 75.7016 471.194L67.3709 478.775H93.8904V506.863H17.4142V506.891Z" fill="#E6215A"/>
<path d="M53.292 412.907C60.3732 412.907 66.649 414.059 72.1056 416.364C77.5623 418.669 81.8387 421.959 84.9072 426.222C87.9757 430.485 89.5169 435.4 89.5169 440.94C89.5169 445.882 88.4755 450.52 86.379 454.824C84.2824 459.128 80.2142 464.016 74.1605 469.486L61.359 481.135H91.5718V504.559H19.7469V485.995L52.1257 456.046C54.9443 453.408 56.8187 451.145 57.7629 449.256C58.707 447.382 59.1652 445.549 59.1652 443.758C59.1652 441.537 58.4154 439.815 56.9298 438.579C55.4303 437.343 53.2781 436.719 50.4735 436.719C47.7382 436.719 45.1834 437.441 42.7953 438.899C40.4071 440.356 38.5744 442.397 37.297 445.036L14.5124 433.65C17.928 427.249 22.9126 422.195 29.4939 418.488C36.0474 414.767 43.9894 412.907 53.292 412.907ZM53.292 408.255C43.2257 408.255 34.4368 410.338 27.189 414.42C19.858 418.558 14.207 424.292 10.3887 431.456L8.1394 435.677L12.4159 437.816L35.2004 449.201L39.4213 451.311L41.4763 447.063C42.3649 445.23 43.5867 443.855 45.2112 442.87C46.8774 441.856 48.5852 441.37 50.4735 441.37C52.1118 441.37 53.3476 441.648 53.9585 442.161C54.1668 442.328 54.5139 442.62 54.5139 443.758C54.5139 444.813 54.2084 445.966 53.5975 447.174C53.2087 447.951 52.0841 449.687 48.9462 452.644L16.5812 482.579L15.0817 483.968V486.009V504.573V509.238H19.7469H91.5579H96.2231V504.573V481.135V476.47H91.5579H73.3969L77.2846 472.93C83.8381 467.029 88.1839 461.766 90.5582 456.865C92.9464 451.936 94.1682 446.577 94.1682 440.94C94.1682 434.428 92.3216 428.555 88.6838 423.501C85.1155 418.544 80.1448 414.712 73.9106 412.074C67.8986 409.533 60.9563 408.255 53.292 408.255Z" fill="#F8F8F6"/>
<path d="M110.503 447.928L107.769 456.718H107.72L105.034 447.928H100.894L106.089 462.128H109.429L114.595 447.928H110.503ZM119.718 446.6H122.911L120.743 443.553L117.257 443.544L119.718 446.6ZM120.86 462.333C125.177 462.333 128.224 459.374 128.224 455.028C128.224 450.673 125.177 447.714 120.86 447.714C116.485 447.714 113.468 450.702 113.468 455.028C113.468 459.344 116.485 462.333 120.86 462.333ZM120.851 458.788C118.849 458.788 117.433 457.128 117.433 455.028C117.433 452.919 118.849 451.268 120.851 451.268C122.882 451.268 124.269 452.938 124.269 455.028C124.269 457.118 122.882 458.788 120.851 458.788ZM137.507 447.928V455.936H137.458L132.722 447.928H128.894V462.128H132.663V454.354H132.722L137.38 462.128H141.325V447.928H137.507ZM149.397 462.303C151.614 462.303 153.831 461.561 155.091 460.594V453.993H149.114V457.059H151.536V458.368C150.765 458.719 150.149 458.837 149.397 458.837C147.19 458.837 145.95 457.079 145.95 455.057C145.95 452.626 147.503 451.288 149.231 451.288C150.716 451.288 151.751 451.991 152.405 452.616L155.101 450.341C153.665 448.622 151.321 447.714 149.241 447.714C144.622 447.714 141.985 450.956 141.985 455.057C141.985 459.735 145.286 462.303 149.397 462.303ZM110.044 476.55V476.51C111.763 475.837 112.222 474.557 112.222 473.405C112.222 471.276 110.776 469.928 107.515 469.928H101.938V484.137H108.472C111.479 484.137 112.964 482.428 112.964 480.143C112.964 478.483 112.251 477.126 110.044 476.55ZM105.62 473.239H106.831C107.905 473.239 108.403 473.737 108.403 474.401C108.403 475.114 107.788 475.534 106.86 475.534H105.62V473.239ZM107.3 480.876H105.62V478.317H107.28C108.501 478.317 109.028 478.864 109.028 479.587C109.028 480.436 108.325 480.876 107.3 480.876ZM113.565 484.128H117.433V469.928H113.565V484.128ZM128.122 464.606C127.048 464.606 126.169 465.094 125.69 465.534L126.618 466.452C126.872 466.276 127.448 465.944 127.78 465.944C128.112 465.944 128.278 466.012 128.278 466.237C128.278 466.911 126.745 467.204 126.745 467.78C126.745 467.985 126.901 468.2 127.077 468.405L128.386 468.307L128.483 467.887C129.499 467.663 130.241 467.106 130.241 466.257C130.241 465.28 129.47 464.606 128.132 464.606H128.122ZM123.308 467.653H123.347L124.089 469.069H127.087L124.821 465.954H121.735L119.616 469.069H122.585L123.308 467.653ZM122.302 478.757H126.813V475.456H122.302V473.317H128.063V469.928H118.62V484.128H128.483V480.759H122.302V478.757ZM134.944 484.333C138.841 484.333 140.96 481.891 140.96 478.171V469.928H137.132V477.956C137.132 479.772 136.194 480.807 134.944 480.807C133.489 480.807 132.825 479.46 132.825 477.956V469.928H128.978V478.171C128.978 482.175 131.37 484.333 134.944 484.333ZM145.532 484.128H150.708C155.317 484.128 158.022 481.237 158.022 477.057C158.022 472.858 155.142 469.928 150.649 469.928H145.532V484.128ZM149.224 480.759V473.317H150.728C152.593 473.317 154.038 474.938 154.038 477.057C154.038 479.098 152.622 480.759 150.464 480.759H149.224ZM158.761 484.128H162.628V469.928H158.761V484.128ZM169.987 467.028C171.149 467.028 171.999 466.325 172.399 465.192L170.993 464.85C170.72 465.329 170.3 465.632 169.89 465.632C169.509 465.632 169.196 465.495 168.854 465.329C168.366 465.104 167.819 464.811 167.097 464.811C165.954 464.811 165.144 465.534 164.733 466.52L166.169 466.989C166.442 466.52 166.833 466.208 167.165 466.208C167.478 466.208 167.868 466.384 168.288 466.579C168.776 466.803 169.313 467.028 169.987 467.028ZM164.44 469.43H167.38L168.552 468.532L169.743 469.43H172.702L169.753 467.389H167.253L164.44 469.43ZM163.806 484.128H173.679V480.749H167.487V478.747H172.009V475.446H167.487V473.317H173.259V469.928H163.815L163.806 484.128ZM182.933 469.928V477.936H182.884L178.147 469.928H174.319V484.128H178.089V476.354H178.147L182.806 484.128H186.751V469.928H182.933Z" fill="#1A2141"/>
<path d="M132.302 911.65C89.2988 911.65 54.3296 876.67 54.3296 833.685C54.3296 790.686 89.3133 755.705 132.302 755.705C175.291 755.705 210.274 790.686 210.274 833.67C210.274 876.67 175.305 911.65 132.302 911.65ZM132.302 759.032C91.1438 759.032 57.642 792.516 57.642 833.685C57.642 874.839 91.1293 908.323 132.302 908.323C173.475 908.323 206.962 874.839 206.962 833.685C206.962 792.516 173.475 759.032 132.302 759.032Z" fill="#E6215A"/>
<path d="M50.0637 881.466C43.5314 881.466 36.9147 880.748 30.4247 879.34C23.8643 877.919 18.0359 875.779 13.0945 872.991L11.194 871.921L23.5686 845.004L25.8211 846.313C29.3407 848.369 33.184 849.945 37.2385 851.001C41.3071 852.071 45.2771 852.606 49.036 852.606C52.1613 852.606 54.6531 852.099 56.4411 851.086C57.863 850.283 58.4824 849.354 58.4824 847.96C58.4824 847.003 58.4824 844.089 50.0778 844.089H35.6336V821.944L45.7417 811.639H16.5577V783.82H89.0319V805.965L74.2358 820.987C79.8811 822.972 84.4284 825.998 87.7649 830.039C91.8757 834.994 93.9593 841.02 93.9593 847.96C93.9593 853.845 92.3262 859.392 89.1164 864.474C85.9066 869.556 80.9229 873.709 74.3062 876.834C67.788 879.918 59.6368 881.466 50.0637 881.466Z" fill="#E6215A"/>
<path d="M86.6672 786.184V805.007L69.8016 822.14C76.8125 823.871 82.1903 827.011 85.9633 831.544C89.7221 836.091 91.6086 841.553 91.6086 847.959C91.6086 853.407 90.1163 858.489 87.1318 863.206C84.1472 867.922 79.5437 871.751 73.3071 874.693C67.0845 877.636 59.3275 879.1 50.0781 879.1C43.6726 879.1 37.2952 878.41 30.9319 877.016C24.5686 875.637 19.0077 873.595 14.2493 870.92L24.6249 848.339C28.3415 850.507 32.3397 852.14 36.6335 853.266C40.9133 854.393 45.0523 854.956 49.0223 854.956C52.57 854.956 55.4278 854.35 57.5818 853.14C59.7498 851.929 60.8198 850.197 60.8198 847.945C60.8198 843.792 57.2298 841.722 50.05 841.722H37.985V822.914L51.3593 809.286H18.9232V786.184H86.6672ZM91.3974 781.454H86.6672H18.9232H14.193V786.184V809.286V814.017H18.9232H40.1108L34.6204 819.606L33.2689 820.985V822.914V841.736V846.467H37.9991H50.0641C55.0336 846.467 56.0613 847.593 56.0754 847.607C56.0754 847.607 56.1177 847.706 56.1177 847.973C56.1177 848.325 56.1177 848.578 55.2871 849.043C53.8511 849.845 51.7394 850.254 49.0364 850.254C45.4746 850.254 41.7157 849.733 37.8443 848.719C33.9868 847.706 30.3547 846.213 27.0182 844.271L22.5273 841.652L20.3592 846.382L9.95548 868.964L8.1394 872.905L11.9264 875.045C17.079 877.945 23.1326 880.17 29.9183 881.648C36.5772 883.098 43.3629 883.83 50.0641 883.83C59.9751 883.83 68.4783 882.197 75.3061 878.959C82.3311 875.637 87.6386 871.188 91.1018 865.726C94.565 860.263 96.3107 854.28 96.3107 847.945C96.3107 840.441 94.0441 833.909 89.5814 828.517C86.6672 824.998 82.9224 822.182 78.4033 820.112L90.0319 808.315L91.3974 806.935V804.993V786.184V781.454Z" fill="#F8F8F6"/>
<path d="M105.92 816.763L103.186 825.552H103.137L100.451 816.763H96.3107L101.506 830.962H104.846L110.012 816.763H105.92ZM115.135 815.435H118.328L116.16 812.388L112.674 812.378L115.135 815.435ZM116.277 831.167C120.594 831.167 123.641 828.208 123.641 823.862C123.641 819.507 120.594 816.548 116.277 816.548C111.902 816.548 108.885 819.536 108.885 823.862C108.885 828.179 111.902 831.167 116.277 831.167ZM116.268 827.622C114.266 827.622 112.85 825.962 112.85 823.862C112.85 821.753 114.266 820.103 116.268 820.103C118.299 820.103 119.686 821.773 119.686 823.862C119.686 825.952 118.299 827.622 116.268 827.622ZM132.924 816.763V824.771H132.875L128.139 816.763H124.311V830.962H128.08V823.189H128.139L132.797 830.962H136.742V816.763H132.924ZM144.815 831.138C147.031 831.138 149.248 830.396 150.508 829.429V822.827H144.531V825.894H146.953V827.202C146.182 827.554 145.567 827.671 144.815 827.671C142.608 827.671 141.367 825.913 141.367 823.892C141.367 821.46 142.92 820.122 144.649 820.122C146.133 820.122 147.168 820.825 147.822 821.45L150.518 819.175C149.082 817.456 146.738 816.548 144.658 816.548C140.039 816.548 137.402 819.79 137.402 823.892C137.402 828.569 140.703 831.138 144.815 831.138ZM104.318 853.167C106.848 853.167 108.879 851.966 110.109 850.462L107.326 848.069C106.643 848.919 105.451 849.515 104.318 849.515C102.19 849.515 100.91 847.825 100.91 845.901C100.91 843.489 102.561 842.22 104.318 842.22C105.647 842.22 106.731 843.021 107.326 843.685L110.109 841.302C108.508 839.378 106.262 838.558 104.318 838.558C99.5919 838.558 96.9161 841.849 96.9161 845.901C96.9161 850.638 100.373 853.167 104.328 853.167H104.318ZM110.477 852.962H114.324V847.796H118.611V852.962H122.459V838.763H118.611V844.427H114.324V838.763H110.477V852.962ZM129.408 853.167C133.305 853.167 135.424 850.726 135.424 847.005V838.763H131.596V846.79C131.596 848.607 130.658 849.642 129.408 849.642C127.953 849.642 127.289 848.294 127.289 846.79V838.763H123.442V847.005C123.442 851.009 125.834 853.167 129.408 853.167ZM145.029 838.763V846.771H144.981L140.244 838.763H136.416V852.962H140.186V845.189H140.244L144.902 852.962H148.848V838.763H145.029ZM156.92 853.138C159.137 853.138 161.354 852.396 162.613 851.429V844.827H156.637V847.894H159.059V849.202C158.287 849.554 157.672 849.671 156.92 849.671C154.713 849.671 153.473 847.913 153.473 845.892C153.473 843.46 155.026 842.122 156.754 842.122C158.238 842.122 159.274 842.825 159.928 843.45L162.623 841.175C161.188 839.456 158.844 838.548 156.764 838.548C152.145 838.548 149.508 841.79 149.508 845.892C149.508 850.569 152.809 853.138 156.92 853.138ZM171.658 847.855L174.676 852.962H179.344L174.139 844.837L179.139 838.763H174.334L170.877 843.548H170.838V838.763H167.059V852.962H170.838V848.851L171.649 847.864L171.658 847.855ZM189.33 833.597L187.152 836.644H189.77L192.533 833.587L189.33 833.597ZM183.959 836.487H183.998L184.74 837.903H187.738L185.473 834.788H182.387L180.268 837.903H183.236L183.959 836.487ZM182.943 847.581H187.465V844.28H182.943V842.151H188.715V838.763H179.272V852.962H189.135V849.583H182.953L182.943 847.581ZM192.686 852.962H196.455V842.151H200.049V838.763H189.063V842.151H192.686V852.962Z" fill="#1A2141"/>
<circle cx="81.7256" cy="997.034" r="4.5" fill="white" stroke="#E6215A"/>
<circle cx="81.7256" cy="997.034" r="2.5" fill="#E6215A"/>
<circle cx="81.7256" cy="1038.06" r="4.5" fill="white" stroke="#E6215A"/>
<circle cx="81.7256" cy="1038.06" r="2.5" fill="#E6215A"/>
</svg>
