<svg width="1917" height="489" viewBox="0 0 1917 489" fill="none" xmlns="http://www.w3.org/2000/svg">
<rect x="-3" y="0.981934" width="1920" height="488" fill="white"/>
<path d="M970.297 208.093C924.797 208.093 887.797 171.078 887.797 125.593C887.782 80.0927 924.797 43.0776 970.297 43.0776C1015.8 43.0776 1052.8 80.0927 1052.8 125.578C1052.8 171.078 1015.78 208.093 970.297 208.093ZM970.297 46.5978C926.749 46.5978 891.302 82.0296 891.302 125.593C891.302 169.141 926.734 204.573 970.297 204.573C1013.86 204.573 1049.29 169.141 1049.29 125.593C1049.28 82.0296 1013.85 46.5978 970.297 46.5978Z" fill="#E6215A"/>
<path d="M846.325 170.853V147.396L881.792 114.59C884.556 111.989 886.415 109.789 887.292 108.05C888.109 106.4 888.54 104.795 888.54 103.278C888.54 101.643 888.065 100.499 887.039 99.6515C885.909 98.715 884.111 98.2394 881.717 98.2394C879.235 98.2394 876.976 98.8785 874.79 100.201C872.635 101.51 871.015 103.323 869.855 105.731L868.755 108.005L839.799 93.5273L841.003 91.2679C844.868 84.0289 850.591 78.2168 858.008 74.025C865.381 69.8481 874.374 67.7373 884.72 67.7373C892.598 67.7373 899.703 69.0454 905.828 71.6318C912.071 74.2628 917.036 78.0979 920.588 83.0181C924.171 87.9977 925.999 93.7949 925.999 100.231C925.999 105.88 924.78 111.246 922.387 116.181C919.979 121.131 915.519 126.512 908.726 132.636L899.808 140.752H928.199V170.823H846.325V170.853Z" fill="#E6215A"/>
<path d="M884.735 70.235C892.316 70.235 899.035 71.4688 904.877 73.9363C910.718 76.4038 915.297 79.9267 918.582 84.4901C921.867 89.0535 923.517 94.3156 923.517 100.247C923.517 105.538 922.402 110.503 920.157 115.111C917.913 119.719 913.557 124.951 907.076 130.808L893.371 143.279H925.717V168.356H848.822V148.482L883.486 116.419C886.504 113.595 888.511 111.172 889.521 109.15C890.532 107.144 891.023 105.182 891.023 103.264C891.023 100.886 890.22 99.0425 888.63 97.7196C887.024 96.3966 884.72 95.7277 881.718 95.7277C878.789 95.7277 876.054 96.5007 873.497 98.0614C870.941 99.6222 868.979 101.807 867.611 104.632L843.218 92.4426C846.875 85.5901 852.211 80.1794 859.257 76.2105C866.273 72.2268 874.776 70.235 884.735 70.235ZM884.735 65.2554C873.958 65.2554 864.549 67.4851 856.79 71.8552C848.941 76.2849 842.891 82.4239 838.804 90.094L836.396 94.6129L840.974 96.902L865.367 109.091L869.885 111.35L872.085 106.802C873.037 104.84 874.345 103.368 876.084 102.313C877.868 101.228 879.696 100.707 881.718 100.707C883.472 100.707 884.794 101.005 885.449 101.555C885.672 101.733 886.043 102.045 886.043 103.264C886.043 104.394 885.716 105.627 885.062 106.921C884.646 107.753 883.442 109.611 880.082 112.777L845.433 144.825L843.828 146.312V148.497V168.371V173.365H848.822H925.702H930.696V168.371V143.279V138.285H925.702H906.259L910.421 134.494C917.437 128.177 922.09 122.543 924.631 117.296C927.188 112.019 928.496 106.282 928.496 100.247C928.496 93.2751 926.519 86.9873 922.625 81.5767C918.805 76.27 913.483 72.1674 906.809 69.3431C900.373 66.6229 892.94 65.2554 884.735 65.2554Z" fill="#F8F8F6"/>
<path d="M945.306 107.46L942.571 116.249H942.522L939.837 107.46H935.696L940.892 121.659H944.231L949.397 107.46H945.306ZM954.521 106.132H957.714L955.546 103.085L952.06 103.075L954.521 106.132ZM955.663 121.864C959.979 121.864 963.026 118.905 963.026 114.56C963.026 110.204 959.979 107.245 955.663 107.245C951.288 107.245 948.271 110.233 948.271 114.56C948.271 118.876 951.288 121.864 955.663 121.864ZM955.653 118.319C953.651 118.319 952.235 116.659 952.235 114.56C952.235 112.45 953.651 110.8 955.653 110.8C957.685 110.8 959.071 112.47 959.071 114.56C959.071 116.649 957.685 118.319 955.653 118.319ZM972.31 107.46V115.468H972.261L967.524 107.46H963.696V121.659H967.466V113.886H967.524L972.183 121.659H976.128V107.46H972.31ZM984.2 121.835C986.417 121.835 988.634 121.093 989.894 120.126V113.524H983.917V116.591H986.339V117.899C985.567 118.251 984.952 118.368 984.2 118.368C981.993 118.368 980.753 116.61 980.753 114.589C980.753 112.157 982.306 110.819 984.034 110.819C985.519 110.819 986.554 111.522 987.208 112.147L989.903 109.872C988.468 108.153 986.124 107.245 984.044 107.245C979.425 107.245 976.788 110.487 976.788 114.589C976.788 119.267 980.089 121.835 984.2 121.835ZM944.847 136.081V136.042C946.565 135.368 947.024 134.089 947.024 132.937C947.024 130.808 945.579 129.46 942.317 129.46H936.741V143.669H943.274C946.282 143.669 947.767 141.96 947.767 139.675C947.767 138.015 947.054 136.657 944.847 136.081ZM940.423 132.771H941.634C942.708 132.771 943.206 133.269 943.206 133.933C943.206 134.646 942.591 135.065 941.663 135.065H940.423V132.771ZM942.103 140.407H940.423V137.849H942.083C943.304 137.849 943.831 138.396 943.831 139.118C943.831 139.968 943.128 140.407 942.103 140.407ZM948.368 143.659H952.235V129.46H948.368V143.659ZM962.925 124.138C961.851 124.138 960.972 124.626 960.493 125.065L961.421 125.983C961.675 125.808 962.251 125.476 962.583 125.476C962.915 125.476 963.081 125.544 963.081 125.769C963.081 126.442 961.548 126.735 961.548 127.312C961.548 127.517 961.704 127.731 961.88 127.937L963.188 127.839L963.286 127.419C964.302 127.194 965.044 126.638 965.044 125.788C965.044 124.812 964.272 124.138 962.935 124.138H962.925ZM958.11 127.185H958.149L958.892 128.601H961.89L959.624 125.485H956.538L954.419 128.601H957.388L958.11 127.185ZM957.104 138.288H961.616V134.987H957.104V132.849H962.866V129.46H953.423V143.659H963.286V140.29H957.104V138.288ZM969.747 143.864C973.644 143.864 975.763 141.423 975.763 137.702V129.46H971.935V137.487C971.935 139.304 970.997 140.339 969.747 140.339C968.292 140.339 967.628 138.991 967.628 137.487V129.46H963.78V137.702C963.78 141.706 966.173 143.864 969.747 143.864ZM980.335 143.659H985.511C990.12 143.659 992.825 140.769 992.825 136.589C992.825 132.39 989.944 129.46 985.452 129.46H980.335V143.659ZM984.026 140.29V132.849H985.53C987.396 132.849 988.841 134.47 988.841 136.589C988.841 138.63 987.425 140.29 985.267 140.29H984.026ZM993.563 143.659H997.431V129.46H993.563V143.659ZM1004.79 126.56C1005.95 126.56 1006.8 125.856 1007.2 124.724L1005.8 124.382C1005.52 124.86 1005.1 125.163 1004.69 125.163C1004.31 125.163 1004 125.026 1003.66 124.86C1003.17 124.636 1002.62 124.343 1001.9 124.343C1000.76 124.343 999.946 125.065 999.536 126.052L1000.97 126.521C1001.25 126.052 1001.64 125.739 1001.97 125.739C1002.28 125.739 1002.67 125.915 1003.09 126.11C1003.58 126.335 1004.12 126.56 1004.79 126.56ZM999.243 128.962H1002.18L1003.35 128.063L1004.55 128.962H1007.5L1004.56 126.921H1002.06L999.243 128.962ZM998.608 143.659H1008.48V140.28H1002.29V138.278H1006.81V134.978H1002.29V132.849H1008.06V129.46H998.618L998.608 143.659ZM1017.74 129.46V137.468H1017.69L1012.95 129.46H1009.12V143.659H1012.89V135.886H1012.95L1017.61 143.659H1021.55V129.46H1017.74Z" fill="#1A2141"/>
<path d="M1339.52 107.46L1336.78 116.249H1336.73L1334.05 107.46H1329.91L1335.1 121.659H1338.44L1343.61 107.46H1339.52ZM1348.73 106.132H1351.93L1349.76 103.085L1346.27 103.075L1348.73 106.132ZM1349.88 121.864C1354.19 121.864 1357.24 118.905 1357.24 114.56C1357.24 110.204 1354.19 107.245 1349.88 107.245C1345.5 107.245 1342.48 110.233 1342.48 114.56C1342.48 118.876 1345.5 121.864 1349.88 121.864ZM1349.87 118.319C1347.86 118.319 1346.45 116.659 1346.45 114.56C1346.45 112.45 1347.86 110.8 1349.87 110.8C1351.9 110.8 1353.28 112.47 1353.28 114.56C1353.28 116.649 1351.9 118.319 1349.87 118.319ZM1366.52 107.46V115.468H1366.47L1361.74 107.46H1357.91V121.659H1361.68V113.886H1361.74L1366.39 121.659H1370.34V107.46H1366.52ZM1378.41 121.835C1380.63 121.835 1382.85 121.093 1384.11 120.126V113.524H1378.13V116.591H1380.55V117.899C1379.78 118.251 1379.16 118.368 1378.41 118.368C1376.21 118.368 1374.96 116.61 1374.96 114.589C1374.96 112.157 1376.52 110.819 1378.25 110.819C1379.73 110.819 1380.77 111.522 1381.42 112.147L1384.12 109.872C1382.68 108.153 1380.34 107.245 1378.26 107.245C1373.64 107.245 1371 110.487 1371 114.589C1371 119.267 1374.3 121.835 1378.41 121.835ZM1337.92 143.864C1340.45 143.864 1342.48 142.663 1343.71 141.159L1340.92 138.767C1340.24 139.616 1339.05 140.212 1337.92 140.212C1335.79 140.212 1334.51 138.522 1334.51 136.599C1334.51 134.187 1336.16 132.917 1337.92 132.917C1339.24 132.917 1340.33 133.718 1340.92 134.382L1343.71 131.999C1342.11 130.075 1339.86 129.255 1337.92 129.255C1333.19 129.255 1330.51 132.546 1330.51 136.599C1330.51 141.335 1333.97 143.864 1337.93 143.864H1337.92ZM1344.07 143.659H1347.92V138.493H1352.21V143.659H1356.06V129.46H1352.21V135.124H1347.92V129.46H1344.07V143.659ZM1363.01 143.864C1366.9 143.864 1369.02 141.423 1369.02 137.702V129.46H1365.19V137.487C1365.19 139.304 1364.26 140.339 1363.01 140.339C1361.55 140.339 1360.89 138.991 1360.89 137.487V129.46H1357.04V137.702C1357.04 141.706 1359.43 143.864 1363.01 143.864ZM1378.63 129.46V137.468H1378.58L1373.84 129.46H1370.01V143.659H1373.78V135.886H1373.84L1378.5 143.659H1382.45V129.46H1378.63ZM1390.52 143.835C1392.73 143.835 1394.95 143.093 1396.21 142.126V135.524H1390.23V138.591H1392.66V139.899C1391.88 140.251 1391.27 140.368 1390.52 140.368C1388.31 140.368 1387.07 138.61 1387.07 136.589C1387.07 134.157 1388.62 132.819 1390.35 132.819C1391.84 132.819 1392.87 133.522 1393.53 134.147L1396.22 131.872C1394.79 130.153 1392.44 129.245 1390.36 129.245C1385.74 129.245 1383.11 132.487 1383.11 136.589C1383.11 141.267 1386.41 143.835 1390.52 143.835ZM1405.26 138.552L1408.27 143.659H1412.94L1407.74 135.534L1412.74 129.46H1407.93L1404.47 134.245H1404.44V129.46H1400.66V143.659H1404.44V139.548L1405.25 138.562L1405.26 138.552ZM1422.93 124.294L1420.75 127.341H1423.37L1426.13 124.284L1422.93 124.294ZM1417.56 127.185H1417.6L1418.34 128.601H1421.34L1419.07 125.485H1415.98L1413.87 128.601H1416.83L1417.56 127.185ZM1416.54 138.278H1421.06V134.978H1416.54V132.849H1422.31V129.46H1412.87V143.659H1422.73V140.28H1416.55L1416.54 138.278ZM1426.28 143.659H1430.05V132.849H1433.65V129.46H1422.66V132.849H1426.28V143.659Z" fill="#1A2141"/>
<path d="M575.076 205.982C529.575 205.982 492.576 168.97 492.576 123.49C492.576 77.9936 529.575 40.9819 575.076 40.9819C620.576 40.9819 657.576 77.9936 657.576 123.474C657.576 168.97 620.576 205.982 575.076 205.982ZM575.076 44.5017C531.528 44.5017 496.08 79.9302 496.08 123.49C496.08 167.034 531.512 202.462 575.076 202.462C618.639 202.462 654.071 167.034 654.071 123.49C654.071 79.9302 618.624 44.5017 575.076 44.5017Z" fill="#E6215A"/>
<path d="M482.922 173.632V101.911H466.495V72.4448H520.216V173.632H482.922Z" fill="#E6215A"/>
<path d="M517.736 74.9491V171.128H485.417V99.4074H468.99V74.9491H517.736ZM522.711 69.9561H517.721H468.99H464V74.964V99.4074V104.415H468.99H480.441V171.128V176.136H485.432H517.75H522.741V171.128V74.9491V69.9561H522.711Z" fill="#F8F8F6"/>
<path d="M543.398 107.46L540.664 116.249H540.615L537.93 107.46H533.789L538.984 121.659H542.324L547.49 107.46H543.398ZM552.613 106.132H555.807L553.639 103.085L550.152 103.075L552.613 106.132ZM553.756 121.864C558.072 121.864 561.119 118.905 561.119 114.56C561.119 110.204 558.072 107.245 553.756 107.245C549.381 107.245 546.363 110.233 546.363 114.56C546.363 118.876 549.381 121.864 553.756 121.864ZM553.746 118.319C551.744 118.319 550.328 116.659 550.328 114.56C550.328 112.45 551.744 110.8 553.746 110.8C555.777 110.8 557.164 112.47 557.164 114.56C557.164 116.649 555.777 118.319 553.746 118.319ZM570.402 107.46V115.468H570.354L565.617 107.46H561.789V121.659H565.559V113.886H565.617L570.275 121.659H574.221V107.46H570.402ZM582.293 121.835C584.51 121.835 586.727 121.093 587.986 120.126V113.524H582.01V116.591H584.432V117.899C583.66 118.251 583.045 118.368 582.293 118.368C580.086 118.368 578.846 116.61 578.846 114.589C578.846 112.157 580.398 110.819 582.127 110.819C583.611 110.819 584.646 111.522 585.301 112.147L587.996 109.872C586.561 108.153 584.217 107.245 582.137 107.245C577.518 107.245 574.881 110.487 574.881 114.589C574.881 119.267 578.182 121.835 582.293 121.835ZM541.768 143.864C546.084 143.864 549.131 140.915 549.131 136.56C549.131 132.204 546.084 129.245 541.768 129.245C537.393 129.245 534.375 132.243 534.375 136.56C534.375 140.876 537.393 143.864 541.768 143.864ZM541.758 140.319C539.756 140.319 538.34 138.659 538.34 136.56C538.34 134.45 539.756 132.8 541.758 132.8C543.789 132.8 545.176 134.47 545.176 136.56C545.176 138.659 543.789 140.319 541.758 140.319ZM558.414 129.46V137.468H558.365L553.629 129.46H549.801V143.659H553.57V135.886H553.629L558.287 143.659H562.232V129.46H558.414ZM563.342 143.659H572.814V140.29H567.18V129.46H563.352L563.342 143.659ZM573.289 143.659H577.156V129.46H573.289V143.659ZM586.977 129.46V137.468H586.928L582.191 129.46H578.363V143.659H582.133V135.886H582.191L586.85 143.659H590.795V129.46H586.977ZM591.885 143.659H601.758V140.29H595.566V138.288H600.078V134.987H595.566V132.849H601.328V129.46H591.885V143.659Z" fill="#1A2141"/>
<path d="M1362.99 208.078C1317.49 208.078 1280.49 171.066 1280.49 125.585C1280.49 80.0893 1317.5 43.0776 1362.99 43.0776C1408.47 43.0776 1445.49 80.0893 1445.49 125.57C1445.49 171.066 1408.49 208.078 1362.99 208.078ZM1362.99 46.5974C1319.44 46.5974 1283.99 82.0259 1283.99 125.585C1283.99 169.129 1319.43 204.558 1362.99 204.558C1406.55 204.558 1441.98 169.129 1441.98 125.585C1441.98 82.0259 1406.55 46.5974 1362.99 46.5974Z" fill="#E6215A"/>
<path d="M1275.98 176.141C1269.06 176.141 1262.06 175.381 1255.2 173.892C1248.26 172.387 1242.09 170.123 1236.86 167.174L1234.85 166.042L1247.94 137.561L1250.33 138.947C1254.05 141.121 1258.12 142.79 1262.41 143.907C1266.71 145.039 1270.91 145.605 1274.89 145.605C1278.2 145.605 1280.83 145.069 1282.72 143.996C1284.23 143.147 1284.88 142.164 1284.88 140.69C1284.88 139.677 1284.88 136.593 1275.99 136.593H1260.71V113.162L1271.4 102.259H1240.52V72.8252H1317.21V96.256L1301.55 112.15C1307.52 114.25 1312.34 117.452 1315.87 121.727C1320.22 126.971 1322.42 133.346 1322.42 140.69C1322.42 146.916 1320.69 152.785 1317.3 158.162C1313.9 163.539 1308.63 167.934 1301.63 171.24C1294.73 174.503 1286.1 176.141 1275.98 176.141Z" fill="#E6215A"/>
<path d="M1314.7 75.3262V95.2416L1296.86 113.37C1304.28 115.202 1309.97 118.523 1313.96 123.32C1317.94 128.131 1319.93 133.911 1319.93 140.688C1319.93 146.453 1318.35 151.83 1315.2 156.82C1312.04 161.81 1307.17 165.862 1300.57 168.975C1293.99 172.088 1285.78 173.637 1275.99 173.637C1269.21 173.637 1262.47 172.907 1255.73 171.433C1249 169.973 1243.12 167.813 1238.08 164.983L1249.06 141.09C1252.99 143.384 1257.22 145.112 1261.77 146.304C1266.29 147.495 1270.67 148.091 1274.87 148.091C1278.63 148.091 1281.65 147.451 1283.93 146.17C1286.22 144.889 1287.36 143.056 1287.36 140.673C1287.36 136.279 1283.56 134.089 1275.96 134.089H1263.2V114.189L1277.35 99.7699H1243.03V75.3262H1314.7ZM1319.71 70.3213H1314.7H1243.03H1238.02V75.3262V99.7699V104.775H1243.03H1265.45L1259.64 110.688L1258.21 112.148V114.189V134.104V139.109H1263.21H1275.98C1281.23 139.109 1282.32 140.301 1282.34 140.316C1282.34 140.316 1282.38 140.42 1282.38 140.703C1282.38 141.075 1282.38 141.343 1281.5 141.835C1279.98 142.684 1277.75 143.116 1274.89 143.116C1271.12 143.116 1267.14 142.565 1263.05 141.492C1258.97 140.42 1255.12 138.841 1251.59 136.785L1246.84 134.015L1244.55 139.02L1233.54 162.912L1231.62 167.083L1235.62 169.347C1241.08 172.416 1247.48 174.769 1254.66 176.333C1261.71 177.867 1268.89 178.642 1275.98 178.642C1286.46 178.642 1295.46 176.914 1302.68 173.488C1310.12 169.973 1315.73 165.266 1319.4 159.486C1323.06 153.707 1324.91 147.376 1324.91 140.673C1324.91 132.734 1322.51 125.822 1317.79 120.117C1314.7 116.393 1310.74 113.414 1305.96 111.225L1318.26 98.7421L1319.71 97.2823V95.2267V75.3262V70.3213Z" fill="#F8F8F6"/>
<line x1="504.043" y1="205.982" x2="504.043" y2="442.732" stroke="#E6215A"/>
<line x1="906.894" y1="205.982" x2="906.894" y2="442.732" stroke="#E6215A"/>
<line x1="1300.74" y1="205.982" x2="1300.74" y2="442.732" stroke="#E6215A"/>
<circle cx="504.24" cy="251.607" r="5" fill="#E6215A"/>
<circle cx="907.091" cy="251.607" r="5" fill="#E6215A"/>
<circle cx="1300.94" cy="251.607" r="5" fill="#E6215A"/>
<circle cx="1300.94" cy="323.357" r="4.5" fill="white" stroke="#E6215A"/>
<circle cx="1300.94" cy="323.357" r="2.5" fill="#E6215A"/>
<circle cx="1300.94" cy="376.68" r="4.5" fill="white" stroke="#E6215A"/>
<circle cx="1300.94" cy="376.68" r="2.5" fill="#E6215A"/>
<circle cx="504.24" cy="318.357" r="5" fill="#E6215A"/>
<circle cx="907.091" cy="318.357" r="5" fill="#E6215A"/>
<circle cx="504.24" cy="383.68" r="5" fill="#E6215A"/>
<circle cx="907.091" cy="383.68" r="5" fill="#E6215A"/>
<path d="M543.289 245.248L539.82 251.716H539.789L536.297 245.248H534.031V256.607H536.266V249.552H536.289L539.062 254.458H540.523L543.297 249.552H543.32V256.607H545.555V245.248H543.289ZM548.875 247.701C549.586 247.701 550.18 247.13 550.18 246.419C550.18 245.724 549.586 245.146 548.875 245.146C548.156 245.146 547.578 245.724 547.578 246.419C547.578 247.13 548.156 247.701 548.875 247.701ZM547.828 256.607H549.922V248.794H547.828V256.607ZM559.766 246.232L558.406 243.88H556.305L558.234 246.232H559.766ZM555.656 246.544H555.703L556.508 247.748H558.438L556.57 245.349H554.719L552.945 247.748H554.859L555.656 246.544ZM555.586 248.662C553.367 248.662 551.711 250.318 551.711 252.693C551.711 255.13 553.445 256.74 555.734 256.74C557.305 256.74 558.445 256.107 559.109 255.263L557.75 253.998C557.32 254.521 556.703 254.888 555.883 254.88C554.883 254.873 554.141 254.31 553.891 253.38H559.367C559.406 253.24 559.422 252.88 559.422 252.63C559.422 250.341 557.883 248.662 555.586 248.662ZM555.656 250.505C556.562 250.505 557.133 251.044 557.344 251.873H553.898C554.141 250.966 554.805 250.505 555.656 250.505ZM565.719 248.662C564.758 248.662 563.852 249.06 563.211 249.81H563.188V248.802H561.094V256.615H563.188V252.685C563.188 251.294 563.898 250.552 564.961 250.552C565.93 250.552 566.461 251.013 566.461 252.505V256.623H568.555V251.982C568.555 249.576 567.391 248.669 565.719 248.669V248.662ZM581.086 250.591V250.56C582.312 250.083 582.781 249.037 582.781 248.021C582.781 246.216 581.492 245.248 579.078 245.248H574.977V256.607H579.68C582.164 256.607 583.367 255.294 583.367 253.474C583.367 251.974 582.539 250.958 581.086 250.591ZM577.18 247.24H578.641C579.953 247.232 580.5 247.771 580.5 248.56C580.5 249.498 579.688 249.904 578.789 249.904H577.18V247.24ZM578.992 254.638H577.18V251.716H579.016C580.352 251.716 581.016 252.302 581.016 253.193C581.016 254.162 580.195 254.63 578.992 254.638ZM591.484 242.748L589.281 242.755L587.469 245.107H589.492L591.484 242.748ZM588.789 247.794C590.312 247.794 591.289 246.763 591.398 245.388H589.812C589.781 246.021 589.359 246.396 588.789 246.396C588.164 246.396 587.797 245.951 587.758 245.388H586.18C586.297 246.943 587.453 247.794 588.789 247.794ZM590.664 248.794V249.677H590.633C590.055 249.005 589.25 248.662 588.328 248.662C586.234 248.662 584.648 250.349 584.648 252.724C584.648 255.138 586.227 256.74 588.391 256.74C589.398 256.74 590.188 256.357 590.727 255.662H590.766V256.607H592.758V248.794H590.664ZM588.773 254.865C587.602 254.865 586.773 253.998 586.773 252.732C586.773 251.396 587.656 250.544 588.781 250.544C589.914 250.544 590.75 251.482 590.75 252.732C590.75 254.013 589.859 254.865 588.773 254.865ZM598.398 256.74C599.977 256.74 601.18 256.123 601.852 255.341L600.422 254.076C600.055 254.49 599.438 254.865 598.609 254.865C597.367 254.865 596.516 253.974 596.516 252.701C596.516 251.427 597.344 250.544 598.586 250.544C599.375 250.544 599.984 250.888 600.406 251.38L601.82 250.162C601.031 249.169 599.742 248.662 598.5 248.662C596.078 248.662 594.383 250.31 594.383 252.708C594.383 255.107 596.086 256.74 598.398 256.74Z" fill="#1A2141"/>
<path d="M946.14 245.248L942.671 251.716H942.64L939.147 245.248H936.882V256.607H939.116V249.552H939.14L941.913 254.458H943.374L946.147 249.552H946.171V256.607H948.405V245.248H946.14ZM951.726 247.701C952.437 247.701 953.03 247.13 953.03 246.419C953.03 245.724 952.437 245.146 951.726 245.146C951.007 245.146 950.429 245.724 950.429 246.419C950.429 247.13 951.007 247.701 951.726 247.701ZM950.679 256.607H952.772V248.794H950.679V256.607ZM962.616 246.232L961.257 243.88H959.155L961.085 246.232H962.616ZM958.507 246.544H958.554L959.358 247.748H961.288L959.421 245.349H957.569L955.796 247.748H957.71L958.507 246.544ZM958.437 248.662C956.218 248.662 954.562 250.318 954.562 252.693C954.562 255.13 956.296 256.74 958.585 256.74C960.155 256.74 961.296 256.107 961.96 255.263L960.601 253.998C960.171 254.521 959.554 254.888 958.733 254.88C957.733 254.873 956.991 254.31 956.741 253.38H962.218C962.257 253.24 962.272 252.88 962.272 252.63C962.272 250.341 960.733 248.662 958.437 248.662ZM958.507 250.505C959.413 250.505 959.983 251.044 960.194 251.873H956.749C956.991 250.966 957.655 250.505 958.507 250.505ZM968.569 248.662C967.608 248.662 966.702 249.06 966.062 249.81H966.038V248.802H963.944V256.615H966.038V252.685C966.038 251.294 966.749 250.552 967.812 250.552C968.78 250.552 969.312 251.013 969.312 252.505V256.623H971.405V251.982C971.405 249.576 970.241 248.669 968.569 248.669V248.662ZM983.937 250.591V250.56C985.163 250.083 985.632 249.037 985.632 248.021C985.632 246.216 984.343 245.248 981.929 245.248H977.827V256.607H982.53C985.015 256.607 986.218 255.294 986.218 253.474C986.218 251.974 985.39 250.958 983.937 250.591ZM980.03 247.24H981.491C982.804 247.232 983.351 247.771 983.351 248.56C983.351 249.498 982.538 249.904 981.64 249.904H980.03V247.24ZM981.843 254.638H980.03V251.716H981.866C983.202 251.716 983.866 252.302 983.866 253.193C983.866 254.162 983.046 254.63 981.843 254.638ZM994.335 242.748L992.132 242.755L990.319 245.107H992.343L994.335 242.748ZM991.64 247.794C993.163 247.794 994.14 246.763 994.249 245.388H992.663C992.632 246.021 992.21 246.396 991.64 246.396C991.015 246.396 990.647 245.951 990.608 245.388H989.03C989.147 246.943 990.304 247.794 991.64 247.794ZM993.515 248.794V249.677H993.483C992.905 249.005 992.101 248.662 991.179 248.662C989.085 248.662 987.499 250.349 987.499 252.724C987.499 255.138 989.077 256.74 991.241 256.74C992.249 256.74 993.038 256.357 993.577 255.662H993.616V256.607H995.608V248.794H993.515ZM991.624 254.865C990.452 254.865 989.624 253.998 989.624 252.732C989.624 251.396 990.507 250.544 991.632 250.544C992.765 250.544 993.601 251.482 993.601 252.732C993.601 254.013 992.71 254.865 991.624 254.865ZM1001.25 256.74C1002.83 256.74 1004.03 256.123 1004.7 255.341L1003.27 254.076C1002.91 254.49 1002.29 254.865 1001.46 254.865C1000.22 254.865 999.366 253.974 999.366 252.701C999.366 251.427 1000.19 250.544 1001.44 250.544C1002.23 250.544 1002.83 250.888 1003.26 251.38L1004.67 250.162C1003.88 249.169 1002.59 248.662 1001.35 248.662C998.929 248.662 997.233 250.31 997.233 252.708C997.233 255.107 998.937 256.74 1001.25 256.74ZM1012.09 258.974L1013.1 258.521C1012.15 256.607 1011.51 254.435 1011.51 251.873C1011.51 249.388 1012.14 247.06 1013.14 245.232L1012.16 244.755C1011.01 246.615 1010.3 249.154 1010.3 251.873C1010.3 254.693 1011.01 257.044 1012.09 258.982V258.974ZM1016.55 255.38V255.357L1019.41 252.458C1020.77 251.076 1021.28 250.005 1021.28 248.763C1021.28 246.732 1019.69 245.529 1017.95 245.529C1016.23 245.529 1015.12 246.404 1014.51 247.615L1015.51 248.294C1016.02 247.302 1016.83 246.787 1017.87 246.787C1019.08 246.787 1019.94 247.685 1019.94 248.896C1019.94 249.99 1019.19 250.888 1018.26 251.849L1014.5 255.685L1014.51 256.615H1021.43V255.38H1016.55ZM1027.22 256.708C1029.84 256.708 1031.34 254.373 1031.34 251.13C1031.34 247.521 1029.61 245.529 1027.22 245.529C1024.6 245.529 1023.09 247.873 1023.09 251.13C1023.09 254.716 1024.83 256.716 1027.22 256.716V256.708ZM1027.23 255.466C1025.6 255.466 1024.45 253.904 1024.45 251.13C1024.45 248.482 1025.47 246.779 1027.23 246.779C1028.84 246.779 1029.98 248.318 1029.98 251.13C1029.98 253.755 1028.98 255.466 1027.23 255.466ZM1046.29 246.498H1045.19V244.833H1043.89V246.498H1041.97V247.537H1043.89V249.982H1043.87C1043.22 249.169 1042.26 248.732 1041.22 248.732C1039.01 248.732 1037.41 250.466 1037.41 252.771C1037.41 255.154 1039.08 256.708 1041.23 256.708C1042.36 256.708 1043.3 256.208 1043.92 255.38H1043.94V256.607H1045.19V247.529H1046.29V246.498ZM1041.35 255.521C1039.76 255.521 1038.73 254.341 1038.73 252.779C1038.73 251.044 1039.88 249.919 1041.37 249.919C1042.83 249.919 1043.94 251.177 1043.94 252.779C1043.94 254.427 1042.72 255.521 1041.35 255.521ZM1051.15 246.294H1051.18L1052.33 247.724H1053.66L1051.74 245.435H1050.55L1048.69 247.724H1050L1051.15 246.294ZM1051.18 248.724C1048.76 248.724 1047.16 250.474 1047.16 252.724C1047.16 254.958 1048.76 256.708 1051.18 256.708C1053.48 256.708 1055.19 255.083 1055.19 252.724C1055.19 250.349 1053.48 248.724 1051.18 248.724ZM1051.18 255.513C1049.58 255.513 1048.47 254.263 1048.47 252.724C1048.47 251.169 1049.56 249.919 1051.19 249.919C1052.69 249.919 1053.88 251.06 1053.88 252.724C1053.88 254.365 1052.69 255.513 1051.19 255.513H1051.18ZM1051.18 258.388C1050.67 258.388 1050.26 258.794 1050.26 259.294C1050.26 259.802 1050.67 260.208 1051.18 260.208C1051.7 260.208 1052.1 259.802 1052.1 259.294C1052.1 258.794 1051.7 258.388 1051.18 258.388ZM1057.95 247.38C1058.46 247.38 1058.87 246.974 1058.87 246.474C1058.87 245.966 1058.46 245.56 1057.95 245.56C1057.43 245.56 1057.03 245.966 1057.03 246.474C1057.03 246.974 1057.43 247.38 1057.95 247.38ZM1057.3 256.607H1058.58V248.826H1057.3V256.607ZM1068.96 256.708C1070.36 256.708 1071.52 256.138 1072.18 255.388L1071.28 254.583C1070.8 255.123 1069.99 255.513 1069.08 255.513C1067.51 255.513 1066.43 254.38 1066.43 252.716C1066.43 251.068 1067.5 249.912 1069.08 249.912C1070.01 249.912 1070.77 250.31 1071.26 250.888L1072.16 250.107C1071.39 249.201 1070.18 248.724 1069.01 248.724C1066.73 248.724 1065.12 250.373 1065.12 252.732C1065.12 255.091 1066.73 256.708 1068.97 256.708H1068.96ZM1078.14 248.732C1076.95 248.732 1075.94 249.201 1075.27 250.083H1075.24V244.833H1073.94V256.607H1075.24V252.685C1075.24 250.935 1076.22 249.919 1077.76 249.919C1078.91 249.919 1079.67 250.544 1079.67 252.31V256.615H1080.97V251.935C1080.97 249.716 1079.83 248.724 1078.14 248.724V248.732ZM1086.85 256.708C1089.15 256.708 1090.86 255.091 1090.86 252.732C1090.86 250.357 1089.15 248.732 1086.85 248.732C1084.44 248.732 1082.83 250.474 1082.83 252.732C1082.83 254.966 1084.44 256.708 1086.85 256.708ZM1086.85 255.521C1085.24 255.521 1084.13 254.271 1084.13 252.732C1084.13 251.177 1085.23 249.927 1086.85 249.927C1088.36 249.927 1089.55 251.068 1089.55 252.732C1089.55 254.373 1088.35 255.521 1086.85 255.521ZM1086.84 258.388C1086.34 258.388 1085.93 258.794 1085.93 259.294C1085.93 259.802 1086.34 260.208 1086.84 260.208C1087.37 260.208 1087.77 259.802 1087.77 259.294C1087.77 258.794 1087.37 258.388 1086.84 258.388ZM1097 248.732C1095.85 248.732 1094.83 249.24 1094.18 250.162H1094.16V248.826H1092.86V256.607H1094.16V252.724C1094.16 250.974 1095.13 249.919 1096.6 249.919C1097.74 249.919 1098.51 250.529 1098.51 252.357V256.615H1099.8V251.998C1099.8 249.763 1098.69 248.732 1097.01 248.732H1097ZM1110.91 256.607H1112.26V254.677H1113.85V253.458H1112.26V245.63H1111.12L1105.8 253.716V254.677H1110.91V256.607ZM1107.43 253.49L1110.94 248.076V253.49H1107.43ZM1116.17 258.974C1117.26 257.037 1117.96 254.693 1117.96 251.873C1117.96 249.154 1117.26 246.607 1116.11 244.748L1115.12 245.224C1116.13 247.052 1116.75 249.388 1116.75 251.865C1116.75 254.435 1116.12 256.607 1115.16 258.521L1116.17 258.974Z" fill="#1A2141"/>
<path d="M1333.08 256.607H1335.33V247.263H1338.47V245.248H1329.95V247.263H1333.08V256.607ZM1344.19 248.794V249.685H1344.15C1343.57 249.013 1342.76 248.662 1341.84 248.662C1339.75 248.662 1338.16 250.349 1338.16 252.724C1338.16 255.138 1339.74 256.74 1341.91 256.74C1342.91 256.74 1343.7 256.357 1344.24 255.662H1344.28V256.607H1346.28V248.794H1344.19ZM1342.3 254.865C1341.12 254.865 1340.3 253.998 1340.3 252.732C1340.3 251.396 1341.18 250.544 1342.3 250.544C1343.44 250.544 1344.27 251.482 1344.27 252.732C1344.27 254.013 1343.37 254.865 1342.29 254.865H1342.3ZM1342.26 258.044C1341.55 258.044 1340.96 258.615 1340.96 259.326C1340.96 260.021 1341.55 260.599 1342.26 260.599C1342.97 260.599 1343.55 260.021 1343.55 259.326C1343.55 258.615 1342.97 258.044 1342.26 258.044ZM1349.47 247.701C1350.18 247.701 1350.77 247.13 1350.77 246.419C1350.77 245.724 1350.18 245.146 1349.47 245.146C1348.75 245.146 1348.17 245.724 1348.17 246.419C1348.17 247.13 1348.75 247.701 1349.47 247.701ZM1348.42 256.607H1350.51V248.794H1348.42V256.607ZM1357.14 256.607H1359.4V252.177H1364.05V256.607H1366.31V245.248H1364.05V250.169H1359.4V245.248H1357.14V256.607ZM1373.76 247.708L1371.97 245.365L1369.76 245.357L1371.74 247.716L1373.76 247.708ZM1374.19 248.802V249.685H1374.16C1373.58 249.013 1372.78 248.662 1371.86 248.662C1369.76 248.662 1368.18 250.349 1368.18 252.724C1368.18 255.138 1369.76 256.74 1371.92 256.74C1372.93 256.74 1373.72 256.357 1374.26 255.662H1374.3V256.607H1376.3V248.794L1374.19 248.802ZM1372.3 254.865C1371.13 254.865 1370.3 253.998 1370.3 252.732C1370.3 251.396 1371.19 250.544 1372.31 250.544C1373.44 250.544 1374.29 251.482 1374.29 252.732C1374.29 254.013 1373.39 254.865 1372.3 254.865ZM1390.08 245.248V252.927H1390.05L1384.99 245.248H1382.75V256.607H1384.99V249.083H1385.02L1390.02 256.607H1392.33V245.248H1390.08ZM1398.35 246.544H1398.4L1399.2 247.748H1401.12L1399.26 245.349H1397.4L1395.63 247.748H1397.55L1398.35 246.544ZM1398.37 248.662C1395.88 248.662 1394.21 250.38 1394.21 252.708C1394.21 255.037 1395.88 256.74 1398.37 256.74C1400.8 256.74 1402.52 255.107 1402.52 252.708C1402.52 250.31 1400.8 248.662 1398.37 248.662ZM1398.37 254.865C1397.17 254.865 1396.33 253.919 1396.33 252.708C1396.33 251.474 1397.15 250.544 1398.37 250.544C1399.52 250.544 1400.4 251.427 1400.4 252.708C1400.4 253.974 1399.5 254.865 1398.37 254.865ZM1398.37 258.044C1397.66 258.044 1397.08 258.615 1397.08 259.326C1397.08 260.021 1397.66 260.599 1398.37 260.599C1399.09 260.599 1399.67 260.021 1399.67 259.326C1399.67 258.615 1399.09 258.044 1398.37 258.044ZM1405.36 247.701C1406.07 247.701 1406.66 247.13 1406.66 246.419C1406.66 245.724 1406.07 245.146 1405.36 245.146C1404.64 245.146 1404.06 245.724 1404.06 246.419C1404.06 247.13 1404.64 247.701 1405.36 247.701ZM1404.31 256.607H1406.4V248.794H1404.31V256.607Z" fill="#1A2141"/>
<path d="M1333.24 317.998H1329.48V322.81H1328.62V324.693H1329.48V329.365H1333.29C1336.94 329.365 1339.14 327.052 1339.14 323.701C1339.14 320.341 1336.83 317.998 1333.24 317.998ZM1333.15 327.357H1331.7V324.685H1333.47V322.81H1331.7V320.005H1333.29C1335.33 320.005 1336.8 321.56 1336.8 323.693C1336.8 325.771 1335.36 327.357 1333.15 327.357ZM1350.56 316.63L1348.43 316.638L1346.62 318.99H1348.18L1350.56 316.63ZM1344.69 319.294H1344.74L1345.55 320.498H1347.47L1345.61 318.099H1343.76L1341.98 320.498H1343.9L1344.69 319.294ZM1344.71 321.412C1342.22 321.412 1340.55 323.13 1340.55 325.458C1340.55 327.787 1342.22 329.49 1344.71 329.49C1347.14 329.49 1348.87 327.857 1348.87 325.458C1348.87 323.06 1347.14 321.412 1344.71 321.412ZM1344.71 327.615C1343.51 327.615 1342.67 326.669 1342.67 325.458C1342.67 324.224 1343.49 323.294 1344.71 323.294C1345.87 323.294 1346.74 324.177 1346.74 325.458C1346.74 326.724 1345.84 327.615 1344.71 327.615ZM1351.7 320.451C1352.41 320.451 1353.01 319.88 1353.01 319.169C1353.01 318.474 1352.41 317.896 1351.7 317.896C1350.98 317.896 1350.4 318.474 1350.4 319.169C1350.4 319.88 1350.98 320.451 1351.7 320.451ZM1350.65 329.357H1352.75V321.544H1350.65V329.357ZM1367.87 319.162H1366.92V317.583H1364.83V319.162H1363.24V320.498H1364.83V322.435H1364.79C1364.2 321.763 1363.38 321.412 1362.43 321.412C1360.33 321.412 1358.75 323.099 1358.75 325.474C1358.75 327.888 1360.33 329.49 1362.49 329.49C1363.54 329.49 1364.34 329.107 1364.89 328.412H1364.94V329.357H1366.93V320.49H1367.87L1367.87 319.162ZM1362.88 327.615C1361.71 327.615 1360.88 326.748 1360.88 325.482C1360.88 324.146 1361.76 323.294 1362.89 323.294C1364.08 323.294 1364.94 324.232 1364.94 325.482C1364.94 326.763 1364.03 327.615 1362.88 327.615ZM1376.78 318.982L1375.42 316.63H1373.3L1375.24 318.982H1376.78ZM1372.66 319.294H1372.71L1373.51 320.498H1375.44L1373.58 318.099H1371.72L1369.95 320.498H1371.87L1372.66 319.294ZM1374.51 322.435H1374.47C1373.9 321.763 1373.09 321.412 1372.17 321.412C1370.08 321.412 1368.49 323.099 1368.49 325.474C1368.49 327.888 1370.07 329.49 1372.23 329.49C1373.24 329.49 1374.03 329.107 1374.57 328.412H1374.61V329.357H1376.61V321.544H1374.51L1374.51 322.435ZM1372.62 327.615C1371.45 327.615 1370.62 326.748 1370.62 325.482C1370.62 324.146 1371.51 323.294 1372.63 323.294C1373.76 323.294 1374.6 324.232 1374.6 325.482C1374.6 326.763 1373.7 327.615 1372.62 327.615H1372.62ZM1383.74 321.544V325.333C1383.74 326.849 1382.92 327.607 1382.01 327.607C1381.03 327.607 1380.61 327.138 1380.61 325.708V321.544H1378.51V326.255C1378.51 328.63 1379.7 329.49 1381.39 329.49C1382.27 329.49 1383.1 329.13 1383.71 328.404H1383.74V329.357H1385.83V321.544H1383.74Z" fill="#1A2141"/>
<path d="M1329.48 382.68H1331.7V378.383H1336.15V376.375H1331.7V373.336H1337.02V371.321H1329.48V382.68ZM1342.86 374.735C1341.94 374.735 1341.08 375.188 1340.5 376.016H1340.47V374.868H1338.38V382.68H1340.47V379.063C1340.47 377.899 1341.18 377.024 1342.47 377.024C1342.58 377.024 1342.81 377.032 1343.02 377.047V374.743C1342.97 374.735 1342.92 374.735 1342.86 374.735ZM1351.45 378.711C1351.45 376.415 1349.91 374.735 1347.62 374.735C1345.4 374.735 1343.74 376.391 1343.74 378.766C1343.74 381.204 1345.47 382.813 1347.76 382.813C1349.33 382.813 1350.47 382.18 1351.14 381.336L1349.78 380.071C1349.35 380.594 1348.73 380.961 1347.91 380.954C1346.91 380.946 1346.17 380.383 1345.92 379.454H1351.4C1351.44 379.313 1351.45 378.954 1351.45 378.704V378.711ZM1347.69 376.579C1348.59 376.579 1349.16 377.118 1349.37 377.946H1345.93C1346.17 377.04 1346.83 376.579 1347.69 376.579ZM1360.4 378.711C1360.4 376.415 1358.87 374.735 1356.57 374.735C1354.35 374.735 1352.69 376.391 1352.69 378.766C1352.69 381.204 1354.43 382.813 1356.72 382.813C1358.29 382.813 1359.43 382.18 1360.09 381.336L1358.73 380.071C1358.3 380.594 1357.69 380.961 1356.87 380.954C1355.87 380.946 1355.12 380.383 1354.87 379.454H1360.35C1360.39 379.313 1360.4 378.954 1360.4 378.704V378.711ZM1356.64 376.579C1357.55 376.579 1358.12 377.118 1358.33 377.946H1354.88C1355.12 377.04 1355.79 376.579 1356.64 376.579ZM1364.61 382.813C1366.65 382.813 1367.64 381.774 1367.64 380.391C1367.64 378.852 1366.65 378.485 1364.95 377.86C1364.19 377.571 1363.78 377.344 1363.78 377.016C1363.78 376.61 1364.2 376.43 1364.55 376.43C1365.12 376.43 1365.8 376.688 1366.4 377.258L1367.42 375.727C1366.53 375.04 1365.65 374.743 1364.56 374.743C1362.97 374.743 1361.75 375.672 1361.75 377.086C1361.75 378.594 1362.87 379.204 1364.15 379.625C1365.17 379.954 1365.58 380.133 1365.58 380.493C1365.58 380.868 1365.22 381.141 1364.62 381.141C1363.76 381.141 1363.09 380.821 1362.45 380.227L1361.44 381.672C1362.29 382.415 1363.35 382.813 1364.6 382.813H1364.61ZM1371.69 382.813C1372.73 382.813 1373.25 382.602 1373.75 382.329L1373.21 380.657C1372.86 380.836 1372.47 380.93 1372.22 380.93C1371.73 380.93 1371.54 380.602 1371.54 379.93V376.61H1373.66V374.875H1371.54V372.094L1369.44 372.321V374.868H1368.52V376.602H1369.44V380.211C1369.44 381.969 1370.33 382.813 1371.68 382.813H1371.69ZM1380.34 374.868L1378.55 379.711H1378.53L1376.62 374.868H1374.43L1377.55 382.196L1376.16 385.844H1378.3L1382.51 374.868H1380.34ZM1383.94 382.68H1386.03V370.907H1383.94V382.68ZM1395.53 378.711C1395.53 376.415 1393.99 374.735 1391.69 374.735C1389.47 374.735 1387.82 376.391 1387.82 378.766C1387.82 381.204 1389.55 382.813 1391.84 382.813C1393.41 382.813 1394.55 382.18 1395.22 381.336L1393.86 380.071C1393.43 380.594 1392.81 380.961 1391.99 380.954C1390.99 380.946 1390.25 380.383 1390 379.454H1395.47C1395.51 379.313 1395.53 378.954 1395.53 378.704V378.711ZM1391.76 376.579C1392.67 376.579 1393.24 377.118 1393.45 377.946H1390.01C1390.25 377.04 1390.91 376.579 1391.76 376.579Z" fill="#1A2141"/>
<path d="M543.289 311.998L539.82 318.466H539.789L536.297 311.998H534.031V323.357H536.266V316.302H536.289L539.062 321.208H540.523L543.297 316.302H543.32V323.357H545.555V311.998H543.289ZM548.875 314.451C549.586 314.451 550.18 313.88 550.18 313.169C550.18 312.474 549.586 311.896 548.875 311.896C548.156 311.896 547.578 312.474 547.578 313.169C547.578 313.88 548.156 314.451 548.875 314.451ZM547.828 323.357H549.922V315.544H547.828V323.357ZM559.766 312.982L558.406 310.63H556.305L558.234 312.982H559.766ZM555.656 313.294H555.703L556.508 314.498H558.438L556.57 312.099H554.719L552.945 314.498H554.859L555.656 313.294ZM555.586 315.412C553.367 315.412 551.711 317.068 551.711 319.443C551.711 321.88 553.445 323.49 555.734 323.49C557.305 323.49 558.445 322.857 559.109 322.013L557.75 320.748C557.32 321.271 556.703 321.638 555.883 321.63C554.883 321.623 554.141 321.06 553.891 320.13H559.367C559.406 319.99 559.422 319.63 559.422 319.38C559.422 317.091 557.883 315.412 555.586 315.412ZM555.656 317.255C556.562 317.255 557.133 317.794 557.344 318.623H553.898C554.141 317.716 554.805 317.255 555.656 317.255ZM565.719 315.412C564.758 315.412 563.852 315.81 563.211 316.56H563.188V315.552H561.094V323.365H563.188V319.435C563.188 318.044 563.898 317.302 564.961 317.302C565.93 317.302 566.461 317.763 566.461 319.255V323.373H568.555V318.732C568.555 316.326 567.391 315.419 565.719 315.419V315.412ZM577.32 323.357H579.562V314.013H582.711V311.998H574.188V314.013H577.32V323.357ZM587.562 315.412C586.641 315.412 585.789 315.865 585.203 316.693H585.18V315.544H583.086V323.357H585.18V319.74C585.18 318.576 585.883 317.701 587.172 317.701C587.289 317.701 587.516 317.708 587.727 317.724V315.419C587.68 315.412 587.625 315.412 587.562 315.412ZM594.164 315.544V319.333C594.164 320.849 593.344 321.607 592.43 321.607C591.453 321.607 591.031 321.138 591.031 319.708V315.544H588.938V320.255C588.938 322.63 590.125 323.49 591.812 323.49C592.695 323.49 593.523 323.13 594.133 322.404H594.164V323.357H596.258V315.544H594.164ZM602.938 315.412C601.977 315.412 601.07 315.81 600.43 316.56H600.406V315.552H598.312V323.365H600.406V319.435C600.406 318.044 601.117 317.302 602.18 317.302C603.148 317.302 603.68 317.763 603.68 319.255V323.373H605.773V318.732C605.773 316.326 604.609 315.419 602.938 315.419V315.412ZM613.32 315.544V316.357H613.281C612.664 315.724 611.82 315.412 610.945 315.412C608.852 315.412 607.328 317.083 607.328 319.38C607.328 321.654 608.898 323.224 611.055 323.224C612.008 323.224 612.773 322.896 613.328 322.31H613.367V323.091C613.367 324.044 612.617 324.826 611.156 324.826C610.156 324.826 609.383 324.521 608.617 324.099L608.133 325.865C609.047 326.388 610.117 326.654 611.336 326.654C614.336 326.654 615.414 324.896 615.414 322.458V315.544H613.32ZM611.438 321.318C610.32 321.318 609.453 320.544 609.453 319.31C609.453 318.13 610.273 317.318 611.438 317.318C612.547 317.318 613.414 318.099 613.414 319.294C613.414 320.474 612.594 321.318 611.438 321.318Z" fill="#1A2141"/>
<path d="M946.14 311.998L942.671 318.466H942.64L939.147 311.998H936.882V323.357H939.116V316.302H939.14L941.913 321.208H943.374L946.147 316.302H946.171V323.357H948.405V311.998H946.14ZM951.726 314.451C952.437 314.451 953.03 313.88 953.03 313.169C953.03 312.474 952.437 311.896 951.726 311.896C951.007 311.896 950.429 312.474 950.429 313.169C950.429 313.88 951.007 314.451 951.726 314.451ZM950.679 323.357H952.772V315.544H950.679V323.357ZM962.616 312.982L961.257 310.63H959.155L961.085 312.982H962.616ZM958.507 313.294H958.554L959.358 314.498H961.288L959.421 312.099H957.569L955.796 314.498H957.71L958.507 313.294ZM958.437 315.412C956.218 315.412 954.562 317.068 954.562 319.443C954.562 321.88 956.296 323.49 958.585 323.49C960.155 323.49 961.296 322.857 961.96 322.013L960.601 320.748C960.171 321.271 959.554 321.638 958.733 321.63C957.733 321.623 956.991 321.06 956.741 320.13H962.218C962.257 319.99 962.272 319.63 962.272 319.38C962.272 317.091 960.733 315.412 958.437 315.412ZM958.507 317.255C959.413 317.255 959.983 317.794 960.194 318.623H956.749C956.991 317.716 957.655 317.255 958.507 317.255ZM968.569 315.412C967.608 315.412 966.702 315.81 966.062 316.56H966.038V315.552H963.944V323.365H966.038V319.435C966.038 318.044 966.749 317.302 967.812 317.302C968.78 317.302 969.312 317.763 969.312 319.255V323.373H971.405V318.732C971.405 316.326 970.241 315.419 968.569 315.419V315.412ZM980.171 323.357H982.413V314.013H985.562V311.998H977.038V314.013H980.171V323.357ZM990.413 315.412C989.491 315.412 988.64 315.865 988.054 316.693H988.03V315.544H985.937V323.357H988.03V319.74C988.03 318.576 988.733 317.701 990.022 317.701C990.14 317.701 990.366 317.708 990.577 317.724V315.419C990.53 315.412 990.476 315.412 990.413 315.412ZM997.015 315.544V319.333C997.015 320.849 996.194 321.607 995.28 321.607C994.304 321.607 993.882 321.138 993.882 319.708V315.544H991.788V320.255C991.788 322.63 992.976 323.49 994.663 323.49C995.546 323.49 996.374 323.13 996.983 322.404H997.015V323.357H999.108V315.544H997.015ZM1005.79 315.412C1004.83 315.412 1003.92 315.81 1003.28 316.56H1003.26V315.552H1001.16V323.365H1003.26V319.435C1003.26 318.044 1003.97 317.302 1005.03 317.302C1006 317.302 1006.53 317.763 1006.53 319.255V323.373H1008.62V318.732C1008.62 316.326 1007.46 315.419 1005.79 315.419V315.412ZM1016.17 315.544V316.357H1016.13C1015.51 315.724 1014.67 315.412 1013.8 315.412C1011.7 315.412 1010.18 317.083 1010.18 319.38C1010.18 321.654 1011.75 323.224 1013.91 323.224C1014.86 323.224 1015.62 322.896 1016.18 322.31H1016.22V323.091C1016.22 324.044 1015.47 324.826 1014.01 324.826C1013.01 324.826 1012.23 324.521 1011.47 324.099L1010.98 325.865C1011.9 326.388 1012.97 326.654 1014.19 326.654C1017.19 326.654 1018.26 324.896 1018.26 322.458V315.544H1016.17ZM1014.29 321.318C1013.17 321.318 1012.3 320.544 1012.3 319.31C1012.3 318.13 1013.12 317.318 1014.29 317.318C1015.4 317.318 1016.26 318.099 1016.26 319.294C1016.26 320.474 1015.44 321.318 1014.29 321.318ZM1026.25 325.724L1027.26 325.271C1026.3 323.357 1025.67 321.185 1025.67 318.623C1025.67 316.138 1026.3 313.81 1027.3 311.982L1026.31 311.505C1025.16 313.365 1024.45 315.904 1024.45 318.623C1024.45 321.443 1025.16 323.794 1026.25 325.732V325.724ZM1030.71 322.13V322.107L1033.57 319.208C1034.93 317.826 1035.44 316.755 1035.44 315.513C1035.44 313.482 1033.84 312.279 1032.11 312.279C1030.39 312.279 1029.28 313.154 1028.67 314.365L1029.66 315.044C1030.18 314.052 1030.98 313.537 1032.02 313.537C1033.24 313.537 1034.09 314.435 1034.09 315.646C1034.09 316.74 1033.34 317.638 1032.41 318.599L1028.66 322.435L1028.67 323.365H1035.58V322.13H1030.71ZM1041.37 323.458C1044 323.458 1045.5 321.123 1045.5 317.88C1045.5 314.271 1043.76 312.279 1041.37 312.279C1038.76 312.279 1037.25 314.623 1037.25 317.88C1037.25 321.466 1038.98 323.466 1041.37 323.466V323.458ZM1041.38 322.216C1039.76 322.216 1038.61 320.654 1038.61 317.88C1038.61 315.232 1039.62 313.529 1041.39 313.529C1043 313.529 1044.14 315.068 1044.14 317.88C1044.14 320.505 1043.14 322.216 1041.38 322.216ZM1055.65 311.998H1052.25V316.974H1051.3V318.201H1052.25V323.357H1055.69C1059.32 323.357 1061.55 321.044 1061.55 317.693C1061.55 314.333 1059.26 311.998 1055.66 311.998H1055.65ZM1055.62 322.091H1053.65V318.193H1056.05V316.966H1053.65V313.263H1055.68C1058.33 313.263 1060.12 315.091 1060.12 317.693C1060.12 320.248 1058.34 322.091 1055.62 322.091ZM1067.24 313.044H1067.27L1068.43 314.474H1069.75L1067.83 312.185H1066.64L1064.78 314.474H1066.09L1067.24 313.044ZM1067.27 315.474C1064.86 315.474 1063.25 317.224 1063.25 319.474C1063.25 321.708 1064.86 323.458 1067.27 323.458C1069.58 323.458 1071.29 321.833 1071.29 319.474C1071.29 317.099 1069.58 315.474 1067.27 315.474ZM1067.27 322.263C1065.67 322.263 1064.56 321.013 1064.56 319.474C1064.56 317.919 1065.66 316.669 1067.28 316.669C1068.79 316.669 1069.98 317.81 1069.98 319.474C1069.98 321.115 1068.78 322.263 1067.28 322.263H1067.27ZM1067.27 325.138C1066.76 325.138 1066.35 325.544 1066.35 326.044C1066.35 326.552 1066.76 326.958 1067.27 326.958C1067.8 326.958 1068.19 326.552 1068.19 326.044C1068.19 325.544 1067.8 325.138 1067.27 325.138ZM1074.05 314.13C1074.55 314.13 1074.97 313.724 1074.97 313.224C1074.97 312.716 1074.55 312.31 1074.05 312.31C1073.52 312.31 1073.12 312.716 1073.12 313.224C1073.12 313.724 1073.52 314.13 1074.05 314.13ZM1073.39 323.357H1074.68V315.576H1073.39V323.357ZM1087.05 323.443C1089.05 323.443 1090.5 322.537 1091.49 321.302L1090.45 320.427C1089.65 321.412 1088.54 322.123 1087.06 322.123C1084.66 322.123 1082.85 320.435 1082.85 317.732C1082.85 315.099 1084.46 313.224 1087.05 313.224C1088.36 313.224 1089.58 313.849 1090.45 314.935L1091.49 314.068C1090.26 312.537 1088.62 311.896 1087.06 311.896C1083.41 311.896 1081.4 314.498 1081.4 317.732C1081.4 321.443 1083.99 323.451 1087.06 323.451L1087.05 323.443ZM1097.53 315.482C1096.34 315.482 1095.33 315.951 1094.66 316.833H1094.63V311.583H1093.33V323.357H1094.63V319.435C1094.63 317.685 1095.61 316.669 1097.16 316.669C1098.3 316.669 1099.06 317.294 1099.06 319.06V323.365H1100.36V318.685C1100.36 316.466 1099.22 315.474 1097.53 315.474V315.482ZM1106.24 323.458C1108.54 323.458 1110.25 321.841 1110.25 319.482C1110.25 317.107 1108.54 315.482 1106.24 315.482C1103.83 315.482 1102.22 317.224 1102.22 319.482C1102.22 321.716 1103.83 323.458 1106.24 323.458ZM1106.24 322.271C1104.63 322.271 1103.52 321.021 1103.52 319.482C1103.52 317.927 1104.62 316.677 1106.24 316.677C1107.75 316.677 1108.94 317.818 1108.94 319.482C1108.94 321.123 1107.74 322.271 1106.24 322.271ZM1106.23 325.138C1105.73 325.138 1105.32 325.544 1105.32 326.044C1105.32 326.552 1105.73 326.958 1106.23 326.958C1106.76 326.958 1107.16 326.552 1107.16 326.044C1107.16 325.544 1106.76 325.138 1106.23 325.138ZM1116.39 315.482C1115.24 315.482 1114.22 315.99 1113.57 316.912H1113.55V315.576H1112.25V323.357H1113.55V319.474C1113.55 317.724 1114.52 316.669 1115.99 316.669C1117.13 316.669 1117.9 317.279 1117.9 319.107V323.365H1119.19V318.748C1119.19 316.513 1118.08 315.482 1116.4 315.482H1116.39ZM1127.38 322.13V322.107L1130.24 319.208C1131.6 317.826 1132.11 316.755 1132.11 315.513C1132.11 313.482 1130.51 312.279 1128.78 312.279C1127.06 312.279 1125.95 313.154 1125.34 314.365L1126.33 315.044C1126.85 314.052 1127.66 313.537 1128.69 313.537C1129.91 313.537 1130.76 314.435 1130.76 315.646C1130.76 316.74 1130.01 317.638 1129.08 318.599L1125.33 322.435L1125.34 323.365H1132.26V322.13H1127.38ZM1134.8 325.724C1135.89 323.787 1136.58 321.443 1136.58 318.623C1136.58 315.904 1135.89 313.357 1134.73 311.498L1133.75 311.974C1134.76 313.802 1135.37 316.138 1135.37 318.615C1135.37 321.185 1134.74 323.357 1133.79 325.271L1134.8 325.724Z" fill="#1A2141"/>
<path d="M543.289 377.321L539.82 383.79H539.789L536.297 377.321H534.031V388.68H536.266V381.625H536.289L539.062 386.532H540.523L543.297 381.625H543.32V388.68H545.555V377.321H543.289ZM548.875 379.774C549.586 379.774 550.18 379.204 550.18 378.493C550.18 377.797 549.586 377.219 548.875 377.219C548.156 377.219 547.578 377.797 547.578 378.493C547.578 379.204 548.156 379.774 548.875 379.774ZM547.828 388.68H549.922V380.868H547.828V388.68ZM559.766 378.305L558.406 375.954H556.305L558.234 378.305H559.766ZM555.656 378.618H555.703L556.508 379.821H558.438L556.57 377.422H554.719L552.945 379.821H554.859L555.656 378.618ZM555.586 380.735C553.367 380.735 551.711 382.391 551.711 384.766C551.711 387.204 553.445 388.813 555.734 388.813C557.305 388.813 558.445 388.18 559.109 387.336L557.75 386.071C557.32 386.594 556.703 386.961 555.883 386.954C554.883 386.946 554.141 386.383 553.891 385.454H559.367C559.406 385.313 559.422 384.954 559.422 384.704C559.422 382.415 557.883 380.735 555.586 380.735ZM555.656 382.579C556.562 382.579 557.133 383.118 557.344 383.946H553.898C554.141 383.04 554.805 382.579 555.656 382.579ZM565.719 380.735C564.758 380.735 563.852 381.133 563.211 381.883H563.188V380.875H561.094V388.688H563.188V384.758C563.188 383.368 563.898 382.625 564.961 382.625C565.93 382.625 566.461 383.086 566.461 384.579V388.696H568.555V384.055C568.555 381.649 567.391 380.743 565.719 380.743V380.735ZM582.297 377.321V385H582.266L577.211 377.321H574.969V388.68H577.211V381.157H577.242L582.242 388.68H584.547V377.321H582.297ZM592.438 380.868V381.758H592.398C591.82 381.086 591.016 380.735 590.094 380.735C588 380.735 586.414 382.422 586.414 384.797C586.414 387.211 587.992 388.813 590.164 388.813C591.164 388.813 591.953 388.43 592.492 387.735H592.531V388.68H594.531V380.868H592.438ZM590.547 386.938C589.375 386.938 588.547 386.071 588.547 384.805C588.547 383.469 589.43 382.618 590.555 382.618C591.688 382.618 592.523 383.555 592.523 384.805C592.523 386.086 591.625 386.938 590.539 386.938H590.547ZM606.086 380.735C604.969 380.735 604.008 381.18 603.367 382H603.344C602.875 381.133 602.062 380.735 601.023 380.735C600.156 380.735 599.305 381.141 598.688 381.907H598.664V380.868H596.57V388.68H598.664V384.774C598.664 383.375 599.375 382.618 600.312 382.618C601.289 382.618 601.703 383.399 601.703 384.649V388.688H603.789V384.774C603.789 383.375 604.508 382.618 605.383 382.618C606.375 382.618 606.75 383.399 606.75 384.649V388.688H608.844V384.141C608.844 381.758 607.789 380.735 606.094 380.735H606.086Z" fill="#1A2141"/>
<path d="M946.14 377.321L942.671 383.79H942.64L939.147 377.321H936.882V388.68H939.116V381.625H939.14L941.913 386.532H943.374L946.147 381.625H946.171V388.68H948.405V377.321H946.14ZM951.726 379.774C952.437 379.774 953.03 379.204 953.03 378.493C953.03 377.797 952.437 377.219 951.726 377.219C951.007 377.219 950.429 377.797 950.429 378.493C950.429 379.204 951.007 379.774 951.726 379.774ZM950.679 388.68H952.772V380.868H950.679V388.68ZM962.616 378.305L961.257 375.954H959.155L961.085 378.305H962.616ZM958.507 378.618H958.554L959.358 379.821H961.288L959.421 377.422H957.569L955.796 379.821H957.71L958.507 378.618ZM958.437 380.735C956.218 380.735 954.562 382.391 954.562 384.766C954.562 387.204 956.296 388.813 958.585 388.813C960.155 388.813 961.296 388.18 961.96 387.336L960.601 386.071C960.171 386.594 959.554 386.961 958.733 386.954C957.733 386.946 956.991 386.383 956.741 385.454H962.218C962.257 385.313 962.272 384.954 962.272 384.704C962.272 382.415 960.733 380.735 958.437 380.735ZM958.507 382.579C959.413 382.579 959.983 383.118 960.194 383.946H956.749C956.991 383.04 957.655 382.579 958.507 382.579ZM968.569 380.735C967.608 380.735 966.702 381.133 966.062 381.883H966.038V380.875H963.944V388.688H966.038V384.758C966.038 383.368 966.749 382.625 967.812 382.625C968.78 382.625 969.312 383.086 969.312 384.579V388.696H971.405V384.055C971.405 381.649 970.241 380.743 968.569 380.743V380.735ZM985.147 377.321V385H985.116L980.062 377.321H977.819V388.68H980.062V381.157H980.093L985.093 388.68H987.397V377.321H985.147ZM995.288 380.868V381.758H995.249C994.671 381.086 993.866 380.735 992.944 380.735C990.851 380.735 989.265 382.422 989.265 384.797C989.265 387.211 990.843 388.813 993.015 388.813C994.015 388.813 994.804 388.43 995.343 387.735H995.382V388.68H997.382V380.868H995.288ZM993.397 386.938C992.226 386.938 991.397 386.071 991.397 384.805C991.397 383.469 992.28 382.618 993.405 382.618C994.538 382.618 995.374 383.555 995.374 384.805C995.374 386.086 994.476 386.938 993.39 386.938H993.397ZM1008.94 380.735C1007.82 380.735 1006.86 381.18 1006.22 382H1006.19C1005.73 381.133 1004.91 380.735 1003.87 380.735C1003.01 380.735 1002.16 381.141 1001.54 381.907H1001.51V380.868H999.421V388.68H1001.51V384.774C1001.51 383.375 1002.23 382.618 1003.16 382.618C1004.14 382.618 1004.55 383.399 1004.55 384.649V388.688H1006.64V384.774C1006.64 383.375 1007.36 382.618 1008.23 382.618C1009.23 382.618 1009.6 383.399 1009.6 384.649V388.688H1011.69V384.141C1011.69 381.758 1010.64 380.735 1008.94 380.735H1008.94ZM1019.64 391.047L1020.65 390.594C1019.69 388.68 1019.06 386.508 1019.06 383.946C1019.06 381.461 1019.69 379.133 1020.69 377.305L1019.7 376.829C1018.55 378.688 1017.84 381.227 1017.84 383.946C1017.84 386.766 1018.55 389.118 1019.64 391.055V391.047ZM1024.1 387.454V387.43L1026.96 384.532C1028.32 383.149 1028.83 382.079 1028.83 380.836C1028.83 378.805 1027.23 377.602 1025.5 377.602C1023.78 377.602 1022.67 378.477 1022.06 379.688L1023.05 380.368C1023.57 379.375 1024.37 378.86 1025.41 378.86C1026.63 378.86 1027.48 379.758 1027.48 380.969C1027.48 382.063 1026.73 382.961 1025.8 383.922L1022.05 387.758L1022.06 388.688H1028.98V387.454H1024.1ZM1034.76 388.782C1037.39 388.782 1038.89 386.446 1038.89 383.204C1038.89 379.594 1037.16 377.602 1034.76 377.602C1032.15 377.602 1030.64 379.946 1030.64 383.204C1030.64 386.79 1032.37 388.79 1034.76 388.79V388.782ZM1034.77 387.54C1033.15 387.54 1032 385.977 1032 383.204C1032 380.555 1033.01 378.852 1034.78 378.852C1036.39 378.852 1037.53 380.391 1037.53 383.204C1037.53 385.829 1036.53 387.54 1034.77 387.54ZM1049.04 377.321H1045.64V382.297H1044.69V383.524H1045.64V388.68H1049.08C1052.71 388.68 1054.94 386.368 1054.94 383.016C1054.94 379.657 1052.65 377.321 1049.05 377.321H1049.04ZM1049.01 387.415H1047.04V383.516H1049.44V382.29H1047.04V378.586H1049.07C1051.72 378.586 1053.51 380.415 1053.51 383.016C1053.51 385.571 1051.73 387.415 1049.01 387.415ZM1060.63 378.368H1060.66L1061.82 379.797H1063.14L1061.23 377.508H1060.03L1058.17 379.797H1059.48L1060.63 378.368ZM1060.66 380.797C1058.25 380.797 1056.64 382.547 1056.64 384.797C1056.64 387.032 1058.25 388.782 1060.66 388.782C1062.97 388.782 1064.68 387.157 1064.68 384.797C1064.68 382.422 1062.97 380.797 1060.66 380.797ZM1060.66 387.586C1059.06 387.586 1057.95 386.336 1057.95 384.797C1057.95 383.243 1059.05 381.993 1060.67 381.993C1062.18 381.993 1063.37 383.133 1063.37 384.797C1063.37 386.438 1062.17 387.586 1060.67 387.586H1060.66ZM1060.66 390.461C1060.16 390.461 1059.74 390.868 1059.74 391.368C1059.74 391.875 1060.16 392.282 1060.66 392.282C1061.19 392.282 1061.58 391.875 1061.58 391.368C1061.58 390.868 1061.19 390.461 1060.66 390.461ZM1067.44 379.454C1067.94 379.454 1068.36 379.047 1068.36 378.547C1068.36 378.04 1067.94 377.633 1067.44 377.633C1066.91 377.633 1066.51 378.04 1066.51 378.547C1066.51 379.047 1066.91 379.454 1067.44 379.454ZM1066.78 388.68H1068.07V380.899H1066.78V388.68ZM1080.44 388.766C1082.44 388.766 1083.89 387.86 1084.88 386.625L1083.84 385.75C1083.04 386.735 1081.93 387.446 1080.45 387.446C1078.05 387.446 1076.24 385.758 1076.24 383.055C1076.24 380.422 1077.85 378.547 1080.44 378.547C1081.75 378.547 1082.98 379.172 1083.84 380.258L1084.88 379.391C1083.65 377.86 1082.01 377.219 1080.45 377.219C1076.8 377.219 1074.79 379.821 1074.79 383.055C1074.79 386.766 1077.38 388.774 1080.45 388.774L1080.44 388.766ZM1090.92 380.805C1089.73 380.805 1088.72 381.274 1088.05 382.157H1088.02V376.907H1086.73V388.68H1088.02V384.758C1088.02 383.008 1089 381.993 1090.55 381.993C1091.69 381.993 1092.45 382.618 1092.45 384.383V388.688H1093.75V384.008C1093.75 381.79 1092.61 380.797 1090.92 380.797V380.805ZM1099.63 388.782C1101.93 388.782 1103.64 387.165 1103.64 384.805C1103.64 382.43 1101.93 380.805 1099.63 380.805C1097.22 380.805 1095.61 382.547 1095.61 384.805C1095.61 387.04 1097.22 388.782 1099.63 388.782ZM1099.63 387.594C1098.02 387.594 1096.91 386.344 1096.91 384.805C1096.91 383.25 1098.01 382 1099.63 382C1101.14 382 1102.33 383.141 1102.33 384.805C1102.33 386.446 1101.13 387.594 1099.63 387.594ZM1099.62 390.461C1099.12 390.461 1098.71 390.868 1098.71 391.368C1098.71 391.875 1099.12 392.282 1099.62 392.282C1100.16 392.282 1100.55 391.875 1100.55 391.368C1100.55 390.868 1100.16 390.461 1099.62 390.461ZM1109.78 380.805C1108.63 380.805 1107.61 381.313 1106.96 382.235H1106.94V380.899H1105.64V388.68H1106.94V384.797C1106.94 383.047 1107.91 381.993 1109.38 381.993C1110.52 381.993 1111.29 382.602 1111.29 384.43V388.688H1112.58V384.071C1112.58 381.836 1111.47 380.805 1109.79 380.805H1109.78ZM1123.69 388.68H1125.04V386.75H1126.63V385.532H1125.04V377.704H1123.9L1118.58 385.79V386.75H1123.69V388.68ZM1120.21 385.563L1123.72 380.149V385.563H1120.21ZM1128.95 391.047C1130.05 389.11 1130.74 386.766 1130.74 383.946C1130.74 381.227 1130.05 378.68 1128.89 376.821L1127.91 377.297C1128.91 379.125 1129.53 381.461 1129.53 383.938C1129.53 386.508 1128.9 388.68 1127.94 390.594L1128.95 391.047Z" fill="#1A2141"/>
<path d="M533.219 267.13V268.365H538.523L534.328 278.037L535.664 278.294L540.016 268.06V267.13H533.219ZM540.242 279.912L546.391 266.287L545.352 265.794L539.195 279.427L540.242 279.912ZM550.82 267.021C548.656 267.021 547.023 268.568 547.023 270.615C547.023 272.755 548.477 274.068 550.359 274.068C551.445 274.068 552.414 273.701 553.117 273.099L553.133 273.107C552.469 275.544 550.539 276.849 548.547 277.349L548.953 278.498C551.805 277.974 554.68 275.341 554.68 271.341C554.688 268.732 553 267.029 550.82 267.029V267.021ZM550.656 272.841C549.289 272.841 548.375 271.943 548.375 270.63C548.375 269.357 549.359 268.279 550.844 268.279C552.297 268.279 553.367 269.435 553.367 271.224V271.31C552.805 272.216 551.758 272.841 550.656 272.841ZM560.852 273.818H565.586V272.544H560.852V273.818ZM576.508 278.107H577.859V276.177H579.453V274.958H577.859V267.13H576.719L571.406 275.216V276.177H576.508V278.107ZM573.031 274.99L576.539 269.576V274.99H573.031ZM580.602 279.912L586.75 266.287L585.711 265.794L579.555 279.427L580.602 279.912ZM589.82 278.107H591.164V267.13H590.055L586.969 269.396L587.633 270.396L589.82 268.748V278.107ZM597.664 278.208C600.289 278.208 601.789 275.873 601.789 272.63C601.789 269.021 600.055 267.029 597.664 267.029C595.047 267.029 593.539 269.373 593.539 272.63C593.539 276.216 595.273 278.216 597.664 278.216V278.208ZM597.672 276.966C596.047 276.966 594.898 275.404 594.898 272.63C594.898 269.982 595.914 268.279 597.68 268.279C599.289 268.279 600.43 269.818 600.43 272.63C600.43 275.255 599.43 276.966 597.672 276.966ZM603.289 279.912L609.438 266.287L608.398 265.794L602.242 279.427L603.289 279.912ZM612 276.88V276.857L614.859 273.958C616.219 272.576 616.727 271.505 616.727 270.263C616.727 268.232 615.133 267.029 613.398 267.029C611.68 267.029 610.57 267.904 609.961 269.115L610.953 269.794C611.469 268.802 612.273 268.287 613.312 268.287C614.531 268.287 615.383 269.185 615.383 270.396C615.383 271.49 614.633 272.388 613.703 273.349L609.945 277.185L609.961 278.115H616.875V276.88H612ZM622.664 278.208C625.289 278.208 626.789 275.873 626.789 272.63C626.789 269.021 625.055 267.029 622.664 267.029C620.047 267.029 618.539 269.373 618.539 272.63C618.539 276.216 620.273 278.216 622.664 278.216V278.208ZM622.672 276.966C621.047 276.966 619.898 275.404 619.898 272.63C619.898 269.982 620.914 268.279 622.68 268.279C624.289 268.279 625.43 269.818 625.43 272.63C625.43 275.255 624.43 276.966 622.672 276.966ZM630.328 276.88V276.857L633.188 273.958C634.547 272.576 635.055 271.505 635.055 270.263C635.055 268.232 633.461 267.029 631.727 267.029C630.008 267.029 628.898 267.904 628.289 269.115L629.281 269.794C629.797 268.802 630.602 268.287 631.641 268.287C632.859 268.287 633.711 269.185 633.711 270.396C633.711 271.49 632.961 272.388 632.031 273.349L628.273 277.185L628.289 278.115H635.203V276.88H630.328ZM640.992 278.208C643.617 278.208 645.117 275.873 645.117 272.63C645.117 269.021 643.383 267.029 640.992 267.029C638.375 267.029 636.867 269.373 636.867 272.63C636.867 276.216 638.602 278.216 640.992 278.216V278.208ZM641 276.966C639.375 276.966 638.227 275.404 638.227 272.63C638.227 269.982 639.242 268.279 641.008 268.279C642.617 268.279 643.758 269.818 643.758 272.63C643.758 275.255 642.758 276.966 641 276.966Z" fill="#757575"/>
<path d="M938.827 278.107H940.171V267.13H939.062L935.976 269.396L936.64 270.396L938.827 268.748V278.107ZM946.671 278.208C949.296 278.208 950.796 275.873 950.796 272.63C950.796 269.021 949.062 267.029 946.671 267.029C944.054 267.029 942.546 269.373 942.546 272.63C942.546 276.216 944.28 278.216 946.671 278.216V278.208ZM946.679 276.966C945.054 276.966 943.905 275.404 943.905 272.63C943.905 269.982 944.921 268.279 946.687 268.279C948.296 268.279 949.437 269.818 949.437 272.63C949.437 275.255 948.437 276.966 946.679 276.966ZM952.296 279.912L958.444 266.287L957.405 265.794L951.249 279.427L952.296 279.912ZM961.515 278.107H962.858V267.13H961.749L958.663 269.396L959.327 270.396L961.515 268.748V278.107ZM967.53 278.107H968.874V267.13H967.765L964.679 269.396L965.343 270.396L967.53 268.748V278.107ZM971.046 279.912L977.194 266.287L976.155 265.794L969.999 279.427L971.046 279.912ZM979.757 276.88V276.857L982.616 273.958C983.976 272.576 984.483 271.505 984.483 270.263C984.483 268.232 982.89 267.029 981.155 267.029C979.437 267.029 978.327 267.904 977.718 269.115L978.71 269.794C979.226 268.802 980.03 268.287 981.069 268.287C982.288 268.287 983.14 269.185 983.14 270.396C983.14 271.49 982.39 272.388 981.46 273.349L977.702 277.185L977.718 278.115H984.632V276.88H979.757ZM990.421 278.208C993.046 278.208 994.546 275.873 994.546 272.63C994.546 269.021 992.812 267.029 990.421 267.029C987.804 267.029 986.296 269.373 986.296 272.63C986.296 276.216 988.03 278.216 990.421 278.216V278.208ZM990.429 276.966C988.804 276.966 987.655 275.404 987.655 272.63C987.655 269.982 988.671 268.279 990.437 268.279C992.046 268.279 993.187 269.818 993.187 272.63C993.187 275.255 992.187 276.966 990.429 276.966ZM998.085 276.88V276.857L1000.94 273.958C1002.3 272.576 1002.81 271.505 1002.81 270.263C1002.81 268.232 1001.22 267.029 999.483 267.029C997.765 267.029 996.655 267.904 996.046 269.115L997.038 269.794C997.554 268.802 998.358 268.287 999.397 268.287C1000.62 268.287 1001.47 269.185 1001.47 270.396C1001.47 271.49 1000.72 272.388 999.788 273.349L996.03 277.185L996.046 278.115H1002.96V276.88H998.085ZM1008.75 278.208C1011.37 278.208 1012.87 275.873 1012.87 272.63C1012.87 269.021 1011.14 267.029 1008.75 267.029C1006.13 267.029 1004.62 269.373 1004.62 272.63C1004.62 276.216 1006.36 278.216 1008.75 278.216V278.208ZM1008.76 276.966C1007.13 276.966 1005.98 275.404 1005.98 272.63C1005.98 269.982 1007 268.279 1008.76 268.279C1010.37 268.279 1011.51 269.818 1011.51 272.63C1011.51 275.255 1010.51 276.966 1008.76 276.966Z" fill="#757575"/>
<path d="M1332.17 276.88V276.857L1335.03 273.958C1336.39 272.576 1336.9 271.505 1336.9 270.263C1336.9 268.232 1335.3 267.029 1333.57 267.029C1331.85 267.029 1330.74 267.904 1330.13 269.115L1331.12 269.794C1331.64 268.802 1332.44 268.287 1333.48 268.287C1334.7 268.287 1335.55 269.185 1335.55 270.396C1335.55 271.49 1334.8 272.388 1333.87 273.349L1330.12 277.185L1330.13 278.115H1337.05V276.88H1332.17ZM1342.37 267.021C1340.2 267.021 1338.57 268.568 1338.57 270.615C1338.57 272.755 1340.02 274.068 1341.9 274.068C1342.99 274.068 1343.96 273.701 1344.66 273.099L1344.68 273.107C1344.01 275.544 1342.08 276.849 1340.09 277.349L1340.5 278.498C1343.35 277.974 1346.22 275.341 1346.22 271.341C1346.23 268.732 1344.55 267.029 1342.37 267.029V267.021ZM1342.2 272.841C1340.83 272.841 1339.92 271.943 1339.92 270.63C1339.92 269.357 1340.9 268.279 1342.39 268.279C1343.84 268.279 1344.91 269.435 1344.91 271.224V271.31C1344.35 272.216 1343.3 272.841 1342.2 272.841ZM1347.41 279.912L1353.56 266.287L1352.52 265.794L1346.37 279.427L1347.41 279.912ZM1356.63 278.107H1357.97V267.13H1356.87L1353.78 269.396L1354.44 270.396L1356.63 268.748V278.107ZM1362.65 278.107H1363.99V267.13H1362.88L1359.8 269.396L1360.46 270.396L1362.65 268.748V278.107ZM1366.16 279.912L1372.31 266.287L1371.27 265.794L1365.12 279.427L1366.16 279.912ZM1374.87 276.88V276.857L1377.73 273.958C1379.09 272.576 1379.6 271.505 1379.6 270.263C1379.6 268.232 1378.01 267.029 1376.27 267.029C1374.55 267.029 1373.44 267.904 1372.83 269.115L1373.83 269.794C1374.34 268.802 1375.15 268.287 1376.19 268.287C1377.4 268.287 1378.26 269.185 1378.26 270.396C1378.26 271.49 1377.51 272.388 1376.58 273.349L1372.82 277.185L1372.83 278.115H1379.75V276.88H1374.87ZM1385.54 278.208C1388.16 278.208 1389.66 275.873 1389.66 272.63C1389.66 269.021 1387.93 267.029 1385.54 267.029C1382.92 267.029 1381.41 269.373 1381.41 272.63C1381.41 276.216 1383.15 278.216 1385.54 278.216V278.208ZM1385.55 276.966C1383.92 276.966 1382.77 275.404 1382.77 272.63C1382.77 269.982 1383.79 268.279 1385.55 268.279C1387.16 268.279 1388.3 269.818 1388.3 272.63C1388.3 275.255 1387.3 276.966 1385.55 276.966ZM1393.65 278.107H1394.99V267.13H1393.88L1390.8 269.396L1391.46 270.396L1393.65 268.748V278.107ZM1401.49 278.208C1404.12 278.208 1405.62 275.873 1405.62 272.63C1405.62 269.021 1403.88 267.029 1401.49 267.029C1398.87 267.029 1397.37 269.373 1397.37 272.63C1397.37 276.216 1399.1 278.216 1401.49 278.216V278.208ZM1401.5 276.966C1399.87 276.966 1398.72 275.404 1398.72 272.63C1398.72 269.982 1399.74 268.279 1401.51 268.279C1403.12 268.279 1404.26 269.818 1404.26 272.63C1404.26 275.255 1403.26 276.966 1401.5 276.966Z" fill="#757575"/>
<path d="M537.344 337.888C536.922 337.888 536.281 337.998 535.688 338.193L535.859 335.107H540.398V333.873H534.594L534.273 339.427L535.055 339.669C535.562 339.232 536.273 339.068 536.992 339.068C538.328 339.068 539.531 339.88 539.531 341.373C539.531 342.716 538.391 343.708 536.969 343.708C535.844 343.708 534.922 343.169 534.422 342.365L533.422 343.13C534.195 344.279 535.555 344.966 537.07 344.966C539.203 344.966 540.891 343.505 540.891 341.388C540.891 339.177 539.289 337.88 537.344 337.88V337.888ZM542.289 346.662L548.438 333.037L547.398 332.544L541.242 346.177L542.289 346.662ZM551.508 344.857H552.852V333.88H551.742L548.656 336.146L549.32 337.146L551.508 335.498V344.857ZM559.352 344.958C561.977 344.958 563.477 342.623 563.477 339.38C563.477 335.771 561.742 333.779 559.352 333.779C556.734 333.779 555.227 336.123 555.227 339.38C555.227 342.966 556.961 344.966 559.352 344.966V344.958ZM559.359 343.716C557.734 343.716 556.586 342.154 556.586 339.38C556.586 336.732 557.602 335.029 559.367 335.029C560.977 335.029 562.117 336.568 562.117 339.38C562.117 342.005 561.117 343.716 559.359 343.716ZM569.695 340.568H574.43V339.294H569.695V340.568ZM582.438 343.63V343.607L585.297 340.708C586.656 339.326 587.164 338.255 587.164 337.013C587.164 334.982 585.57 333.779 583.836 333.779C582.117 333.779 581.008 334.654 580.398 335.865L581.391 336.544C581.906 335.552 582.711 335.037 583.75 335.037C584.969 335.037 585.82 335.935 585.82 337.146C585.82 338.24 585.07 339.138 584.141 340.099L580.383 343.935L580.398 344.865H587.312V343.63H582.438ZM592.594 337.888C592.172 337.888 591.531 337.998 590.938 338.193L591.109 335.107H595.648V333.873H589.844L589.523 339.427L590.305 339.669C590.812 339.232 591.523 339.068 592.242 339.068C593.578 339.068 594.781 339.88 594.781 341.373C594.781 342.716 593.641 343.708 592.219 343.708C591.094 343.708 590.172 343.169 589.672 342.365L588.672 343.13C589.445 344.279 590.805 344.966 592.32 344.966C594.453 344.966 596.141 343.505 596.141 341.388C596.141 339.177 594.539 337.88 592.594 337.88V337.888ZM597.539 346.662L603.688 333.037L602.648 332.544L596.492 346.177L597.539 346.662ZM606.758 344.857H608.102V333.88H606.992L603.906 336.146L604.57 337.146L606.758 335.498V344.857ZM614.602 344.958C617.227 344.958 618.727 342.623 618.727 339.38C618.727 335.771 616.992 333.779 614.602 333.779C611.984 333.779 610.477 336.123 610.477 339.38C610.477 342.966 612.211 344.966 614.602 344.966V344.958ZM614.609 343.716C612.984 343.716 611.836 342.154 611.836 339.38C611.836 336.732 612.852 335.029 614.617 335.029C616.227 335.029 617.367 336.568 617.367 339.38C617.367 342.005 616.367 343.716 614.609 343.716ZM620.227 346.662L626.375 333.037L625.336 332.544L619.18 346.177L620.227 346.662ZM628.938 343.63V343.607L631.797 340.708C633.156 339.326 633.664 338.255 633.664 337.013C633.664 334.982 632.07 333.779 630.336 333.779C628.617 333.779 627.508 334.654 626.898 335.865L627.891 336.544C628.406 335.552 629.211 335.037 630.25 335.037C631.469 335.037 632.32 335.935 632.32 337.146C632.32 338.24 631.57 339.138 630.641 340.099L626.883 343.935L626.898 344.865H633.812V343.63H628.938ZM639.602 344.958C642.227 344.958 643.727 342.623 643.727 339.38C643.727 335.771 641.992 333.779 639.602 333.779C636.984 333.779 635.477 336.123 635.477 339.38C635.477 342.966 637.211 344.966 639.602 344.966V344.958ZM639.609 343.716C637.984 343.716 636.836 342.154 636.836 339.38C636.836 336.732 637.852 335.029 639.617 335.029C641.227 335.029 642.367 336.568 642.367 339.38C642.367 342.005 641.367 343.716 639.609 343.716ZM647.266 343.63V343.607L650.125 340.708C651.484 339.326 651.992 338.255 651.992 337.013C651.992 334.982 650.398 333.779 648.664 333.779C646.945 333.779 645.836 334.654 645.227 335.865L646.219 336.544C646.734 335.552 647.539 335.037 648.578 335.037C649.797 335.037 650.648 335.935 650.648 337.146C650.648 338.24 649.898 339.138 648.969 340.099L645.211 343.935L645.227 344.865H652.141V343.63H647.266ZM657.93 344.958C660.555 344.958 662.055 342.623 662.055 339.38C662.055 335.771 660.32 333.779 657.93 333.779C655.312 333.779 653.805 336.123 653.805 339.38C653.805 342.966 655.539 344.966 657.93 344.966V344.958ZM657.938 343.716C656.312 343.716 655.164 342.154 655.164 339.38C655.164 336.732 656.18 335.029 657.945 335.029C659.555 335.029 660.695 336.568 660.695 339.38C660.695 342.005 659.695 343.716 657.938 343.716Z" fill="#757575"/>
<path d="M938.827 344.857H940.171V333.88H939.062L935.976 336.146L936.64 337.146L938.827 335.498V344.857ZM942.343 346.662L948.491 333.037L947.452 332.544L941.296 346.177L942.343 346.662ZM951.562 344.857H952.905V333.88H951.796L948.71 336.146L949.374 337.146L951.562 335.498V344.857ZM957.577 344.857H958.921V333.88H957.812L954.726 336.146L955.39 337.146L957.577 335.498V344.857ZM961.093 346.662L967.241 333.037L966.202 332.544L960.046 346.177L961.093 346.662ZM969.804 343.63V343.607L972.663 340.708C974.022 339.326 974.53 338.255 974.53 337.013C974.53 334.982 972.937 333.779 971.202 333.779C969.483 333.779 968.374 334.654 967.765 335.865L968.757 336.544C969.272 335.552 970.077 335.037 971.116 335.037C972.335 335.037 973.187 335.935 973.187 337.146C973.187 338.24 972.437 339.138 971.507 340.099L967.749 343.935L967.765 344.865H974.679V343.63H969.804ZM980.468 344.958C983.093 344.958 984.593 342.623 984.593 339.38C984.593 335.771 982.858 333.779 980.468 333.779C977.851 333.779 976.343 336.123 976.343 339.38C976.343 342.966 978.077 344.966 980.468 344.966V344.958ZM980.476 343.716C978.851 343.716 977.702 342.154 977.702 339.38C977.702 336.732 978.718 335.029 980.483 335.029C982.093 335.029 983.233 336.568 983.233 339.38C983.233 342.005 982.233 343.716 980.476 343.716ZM988.132 343.63V343.607L990.991 340.708C992.351 339.326 992.858 338.255 992.858 337.013C992.858 334.982 991.265 333.779 989.53 333.779C987.812 333.779 986.702 334.654 986.093 335.865L987.085 336.544C987.601 335.552 988.405 335.037 989.444 335.037C990.663 335.037 991.515 335.935 991.515 337.146C991.515 338.24 990.765 339.138 989.835 340.099L986.077 343.935L986.093 344.865H993.007V343.63H988.132ZM998.796 344.958C1001.42 344.958 1002.92 342.623 1002.92 339.38C1002.92 335.771 1001.19 333.779 998.796 333.779C996.179 333.779 994.671 336.123 994.671 339.38C994.671 342.966 996.405 344.966 998.796 344.966V344.958ZM998.804 343.716C997.179 343.716 996.03 342.154 996.03 339.38C996.03 336.732 997.046 335.029 998.812 335.029C1000.42 335.029 1001.56 336.568 1001.56 339.38C1001.56 342.005 1000.56 343.716 998.804 343.716Z" fill="#757575"/>
<path d="M537.344 403.211C536.922 403.211 536.281 403.321 535.688 403.516L535.859 400.43H540.398V399.196H534.594L534.273 404.75L535.055 404.993C535.562 404.555 536.273 404.391 536.992 404.391C538.328 404.391 539.531 405.204 539.531 406.696C539.531 408.04 538.391 409.032 536.969 409.032C535.844 409.032 534.922 408.493 534.422 407.688L533.422 408.454C534.195 409.602 535.555 410.29 537.07 410.29C539.203 410.29 540.891 408.829 540.891 406.711C540.891 404.5 539.289 403.204 537.344 403.204V403.211ZM542.289 411.985L548.438 398.36L547.398 397.868L541.242 411.5L542.289 411.985ZM551.508 410.18H552.852V399.204H551.742L548.656 401.469L549.32 402.469L551.508 400.821V410.18ZM559.352 410.282C561.977 410.282 563.477 407.946 563.477 404.704C563.477 401.094 561.742 399.102 559.352 399.102C556.734 399.102 555.227 401.446 555.227 404.704C555.227 408.29 556.961 410.29 559.352 410.29V410.282ZM559.359 409.04C557.734 409.04 556.586 407.477 556.586 404.704C556.586 402.055 557.602 400.352 559.367 400.352C560.977 400.352 562.117 401.891 562.117 404.704C562.117 407.329 561.117 409.04 559.359 409.04ZM569.695 405.891H574.43V404.618H569.695V405.891ZM582.945 410.18H584.289V399.204H583.18L580.094 401.469L580.758 402.469L582.945 400.821V410.18ZM586.461 411.985L592.609 398.36L591.57 397.868L585.414 411.5L586.461 411.985ZM595.68 410.18H597.023V399.204H595.914L592.828 401.469L593.492 402.469L595.68 400.821V410.18ZM601.695 410.18H603.039V399.204H601.93L598.844 401.469L599.508 402.469L601.695 400.821V410.18ZM605.211 411.985L611.359 398.36L610.32 397.868L604.164 411.5L605.211 411.985ZM613.922 408.954V408.93L616.781 406.032C618.141 404.649 618.648 403.579 618.648 402.336C618.648 400.305 617.055 399.102 615.32 399.102C613.602 399.102 612.492 399.977 611.883 401.188L612.875 401.868C613.391 400.875 614.195 400.36 615.234 400.36C616.453 400.36 617.305 401.258 617.305 402.469C617.305 403.563 616.555 404.461 615.625 405.422L611.867 409.258L611.883 410.188H618.797V408.954H613.922ZM624.586 410.282C627.211 410.282 628.711 407.946 628.711 404.704C628.711 401.094 626.977 399.102 624.586 399.102C621.969 399.102 620.461 401.446 620.461 404.704C620.461 408.29 622.195 410.29 624.586 410.29V410.282ZM624.594 409.04C622.969 409.04 621.82 407.477 621.82 404.704C621.82 402.055 622.836 400.352 624.602 400.352C626.211 400.352 627.352 401.891 627.352 404.704C627.352 407.329 626.352 409.04 624.594 409.04ZM632.25 408.954V408.93L635.109 406.032C636.469 404.649 636.977 403.579 636.977 402.336C636.977 400.305 635.383 399.102 633.648 399.102C631.93 399.102 630.82 399.977 630.211 401.188L631.203 401.868C631.719 400.875 632.523 400.36 633.562 400.36C634.781 400.36 635.633 401.258 635.633 402.469C635.633 403.563 634.883 404.461 633.953 405.422L630.195 409.258L630.211 410.188H637.125V408.954H632.25ZM642.914 410.282C645.539 410.282 647.039 407.946 647.039 404.704C647.039 401.094 645.305 399.102 642.914 399.102C640.297 399.102 638.789 401.446 638.789 404.704C638.789 408.29 640.523 410.29 642.914 410.29V410.282ZM642.922 409.04C641.297 409.04 640.148 407.477 640.148 404.704C640.148 402.055 641.164 400.352 642.93 400.352C644.539 400.352 645.68 401.891 645.68 404.704C645.68 407.329 644.68 409.04 642.922 409.04Z" fill="#757575"/>
<path d="M942.007 404.25V404.227C942.757 403.954 943.554 403.079 943.554 401.899C943.554 400.227 942.21 399.094 940.218 399.094C938.343 399.094 936.905 400.141 936.905 401.899C936.905 403.086 937.702 403.961 938.444 404.227V404.25C937.257 404.625 936.366 405.68 936.366 407.157C936.366 408.946 937.96 410.274 940.226 410.274C942.382 410.274 944.101 409.055 944.101 407.157C944.101 405.665 943.21 404.618 942.007 404.243V404.25ZM940.226 400.297C941.405 400.297 942.272 401 942.272 401.993C942.272 403 941.437 403.649 940.233 403.649C939.046 403.649 938.21 403 938.21 401.993C938.21 401.071 939.015 400.297 940.233 400.297H940.226ZM940.226 409.055C938.835 409.055 937.741 408.196 937.741 407.008C937.741 405.774 938.733 404.907 940.226 404.907C941.726 404.907 942.718 405.766 942.718 407.008C942.718 408.102 941.733 409.055 940.226 409.055ZM945.437 411.985L951.585 398.36L950.546 397.868L944.39 411.5L945.437 411.985ZM954.655 410.18H955.999V399.204H954.89L951.804 401.469L952.468 402.469L954.655 400.821V410.18ZM960.671 410.18H962.015V399.204H960.905L957.819 401.469L958.483 402.469L960.671 400.821V410.18ZM964.187 411.985L970.335 398.36L969.296 397.868L963.14 411.5L964.187 411.985ZM972.897 408.954V408.93L975.757 406.032C977.116 404.649 977.624 403.579 977.624 402.336C977.624 400.305 976.03 399.102 974.296 399.102C972.577 399.102 971.468 399.977 970.858 401.188L971.851 401.868C972.366 400.875 973.171 400.36 974.21 400.36C975.429 400.36 976.28 401.258 976.28 402.469C976.28 403.563 975.53 404.461 974.601 405.422L970.843 409.258L970.858 410.188H977.772V408.954H972.897ZM983.562 410.282C986.187 410.282 987.687 407.946 987.687 404.704C987.687 401.094 985.952 399.102 983.562 399.102C980.944 399.102 979.437 401.446 979.437 404.704C979.437 408.29 981.171 410.29 983.562 410.29V410.282ZM983.569 409.04C981.944 409.04 980.796 407.477 980.796 404.704C980.796 402.055 981.812 400.352 983.577 400.352C985.187 400.352 986.327 401.891 986.327 404.704C986.327 407.329 985.327 409.04 983.569 409.04ZM991.226 408.954V408.93L994.085 406.032C995.444 404.649 995.952 403.579 995.952 402.336C995.952 400.305 994.358 399.102 992.624 399.102C990.905 399.102 989.796 399.977 989.187 401.188L990.179 401.868C990.694 400.875 991.499 400.36 992.538 400.36C993.757 400.36 994.608 401.258 994.608 402.469C994.608 403.563 993.858 404.461 992.929 405.422L989.171 409.258L989.187 410.188H996.101V408.954H991.226ZM1001.89 410.282C1004.51 410.282 1006.01 407.946 1006.01 404.704C1006.01 401.094 1004.28 399.102 1001.89 399.102C999.272 399.102 997.765 401.446 997.765 404.704C997.765 408.29 999.499 410.29 1001.89 410.29V410.282ZM1001.9 409.04C1000.27 409.04 999.124 407.477 999.124 404.704C999.124 402.055 1000.14 400.352 1001.91 400.352C1003.51 400.352 1004.66 401.891 1004.66 404.704C1004.66 407.329 1003.66 409.04 1001.9 409.04Z" fill="#757575"/>
<line x1="410" y1="121.982" x2="464" y2="121.982" stroke="#E5E5E5" stroke-width="2"/>
<line x1="668.789" y1="121.982" x2="859" y2="121.982" stroke="#E5E5E5" stroke-width="2"/>
<line x1="1062.64" y1="121.982" x2="1231.62" y2="121.982" stroke="#E5E5E5" stroke-width="2"/>
<line x1="1455.49" y1="121.982" x2="1509.49" y2="121.982" stroke="#E5E5E5" stroke-width="2"/>
</svg>
