<svg width="133" height="40" viewBox="0 0 133 40" fill="none" xmlns="http://www.w3.org/2000/svg">
<path d="M0 15C0 6.71573 6.71573 0 15 0H133V25C133 33.2843 126.284 40 118 40H0V15Z" fill="#DF752E"/>
<path d="M50.5664 10.4473C50.4688 11.3066 49.1699 12.752 46.6699 14.7832C46.6699 14.7832 45.0293 16.0869 41.748 18.6943C41.4648 21.2334 41.3232 22.8105 41.3232 23.4258C41.3232 25.5254 42.0752 26.5752 43.5791 26.5752C44.7412 26.5752 45.9912 26.1064 47.3291 25.1689C47.3682 25.1494 47.4072 25.1592 47.4463 25.1982C47.5049 25.2764 47.4463 25.3691 47.2705 25.4766C45.5322 26.7559 43.8623 27.3955 42.2607 27.3955C41.5576 27.3955 41.0059 27.1562 40.6055 26.6777C40.2051 26.1895 40.0049 25.5889 40.0049 24.876C40.0049 23.792 40.1953 22.0195 40.5762 19.5586C37.7148 21.6387 35.9961 22.9277 35.4199 23.4258C33.0566 25.4082 31.8945 27.0098 31.9336 28.2305C31.9531 28.6113 32.2168 29.0898 32.7246 29.666C32.7051 29.7441 32.6611 29.7637 32.5928 29.7246C31.5967 29.0898 31.0693 28.7432 31.0107 28.6846C30.6494 28.4209 30.4688 28.1279 30.4688 27.8057C30.4688 27.2686 30.9375 26.541 31.875 25.623C33.3203 24.1973 36.2305 22.0146 40.6055 19.0752C40.6641 18.4014 40.7471 17.2539 40.8545 15.6328C40.9326 13.3672 40.2295 12.1953 38.7451 12.1172C37.8467 12.0586 36.6797 12.4492 35.2441 13.2891C35.2246 13.2891 35.1807 13.2695 35.1123 13.2305C35.0732 13.1914 35.1074 13.1523 35.2148 13.1133C36.9531 11.8145 38.4229 11.165 39.624 11.165C41.2842 11.165 42.1143 12.293 42.1143 14.5488C42.1143 14.9492 42.002 16.1797 41.7773 18.2402C42.7344 17.498 44.1553 16.3604 46.04 14.8271C48.0225 13.1377 49.0137 11.7754 49.0137 10.7402C49.0137 10.3008 48.6719 9.8418 47.9883 9.36328C47.9688 9.34375 47.9785 9.31445 48.0176 9.27539C48.7988 9.05078 49.3213 8.94824 49.585 8.96777C49.8584 8.9873 50.0977 9.16309 50.3027 9.49512C50.5176 9.82715 50.6055 10.1445 50.5664 10.4473ZM56.3672 24.085C56.3672 24.124 56.3477 24.168 56.3086 24.2168C54.7559 25.7109 53.0273 26.7168 51.123 27.2344C50.625 27.3809 50.1367 27.4541 49.6582 27.4541H49.5557C48.5205 27.4541 48.0029 27.0244 48.0029 26.165C48.0029 25.6572 48.1934 25.0566 48.5742 24.3633C49.4531 22.7617 50.6641 21.6191 52.207 20.9355C52.8418 20.6621 53.3398 20.5254 53.7012 20.5254H53.7305C54.1699 20.5254 54.3896 20.7012 54.3896 21.0527C54.3896 22.1953 52.7783 23.3574 49.5557 24.5391C49.3018 25.1152 49.1748 25.5547 49.1748 25.8574V25.916C49.1748 26.5996 49.6143 26.9414 50.4932 26.9414H50.5518C50.8936 26.9414 51.2158 26.9023 51.5186 26.8242C53.2764 26.3457 54.834 25.4131 56.1914 24.0264C56.2305 23.9873 56.2598 23.9678 56.2793 23.9678C56.3379 23.9678 56.3672 24.0068 56.3672 24.085ZM53.2471 21.6973V21.5654C53.2471 21.2041 53.1006 21.0234 52.8076 21.0234C52.6221 21.0234 52.4121 21.1064 52.1777 21.2725C51.1523 21.9756 50.332 22.9668 49.7168 24.2461C51.9531 23.5234 53.1299 22.6738 53.2471 21.6973ZM67.9688 23.0449C67.9688 23.084 67.9492 23.1328 67.9102 23.1914C66.875 24.8906 65.3662 26.2725 63.3838 27.3369C62.6611 27.708 62.0312 27.8936 61.4941 27.8936C60.9375 27.8936 60.6592 27.6445 60.6592 27.1465C60.6592 26.8535 60.7666 26.5264 60.9814 26.165C61.626 25.1006 62.1777 24.0801 62.6367 23.1035C62.7539 22.8398 62.8125 22.6396 62.8125 22.5029C62.8125 22.3174 62.7344 22.2246 62.5781 22.2246C62.4512 22.2246 62.2998 22.2881 62.124 22.415C61.4209 22.8936 60.6982 23.6602 59.9561 24.7148C59.2041 25.8379 58.6865 26.3994 58.4033 26.3994H58.3154C58.1104 26.3604 58.0078 26.2627 58.0078 26.1064C58.0078 25.999 58.0615 25.8867 58.1689 25.7695C59.0479 24.6855 59.6973 23.5869 60.1172 22.4736C60.1562 22.376 60.1758 22.2832 60.1758 22.1953C60.1758 22.0781 60.127 22.0195 60.0293 22.0195C59.9414 22.0195 59.8486 22.0488 59.751 22.1074C58.6572 22.791 57.666 23.792 56.7773 25.1104C56.6016 25.4912 56.2842 26.043 55.8252 26.7656C55.7275 26.8828 55.6445 26.9414 55.5762 26.9414C55.3809 26.9414 55.2832 26.7705 55.2832 26.4287C55.2832 26.3311 55.3027 26.2334 55.3418 26.1357C55.498 25.6963 55.918 24.832 56.6016 23.543C57.7246 21.4238 58.4229 20.3643 58.6963 20.3643C58.8037 20.3643 58.9453 20.5059 59.1211 20.7891C59.1406 20.8281 59.1504 20.8672 59.1504 20.9062C59.1504 20.9844 59.1309 21.0576 59.0918 21.126C58.916 21.3604 58.3887 22.249 57.5098 23.792C57.5293 23.792 57.5488 23.7725 57.5684 23.7334C58.4473 22.7471 59.5264 21.8975 60.8057 21.1846C60.9814 21.0771 61.1328 21.0234 61.2598 21.0234C61.4355 21.0234 61.5234 21.126 61.5234 21.3311C61.5234 21.5459 61.377 21.9219 61.084 22.459C60.8008 22.9863 60.6592 23.2793 60.6592 23.3379C60.6787 23.3379 60.708 23.3184 60.7471 23.2793C61.5088 22.498 62.3584 21.9268 63.2959 21.5654C63.4521 21.5068 63.5693 21.4775 63.6475 21.4775C63.9111 21.4775 64.0625 21.5801 64.1016 21.7852V21.873C64.1016 22.0488 64.0137 22.3076 63.8379 22.6494C63.0371 24.1143 62.4658 25.2764 62.124 26.1357C62.0264 26.3701 61.9775 26.5801 61.9775 26.7656C61.9775 27.1465 62.168 27.3369 62.5488 27.3369C62.7637 27.3369 63.0029 27.2734 63.2666 27.1465C65.2002 26.2285 66.6895 24.8711 67.7344 23.0742C67.7734 22.9961 67.8223 22.957 67.8809 22.957C67.9395 22.957 67.9688 22.9863 67.9688 23.0449ZM80.7422 21.4189C80.7422 21.4971 80.6885 21.5361 80.5811 21.5361C78.5889 21.6826 76.6992 21.7852 74.9121 21.8438C74.4531 22.8008 74.0527 23.7188 73.7109 24.5977C73.5156 25.1152 73.418 25.5449 73.418 25.8867C73.418 26.3652 73.6768 26.6045 74.1943 26.6045C74.7803 26.6045 75.5029 26.4189 76.3623 26.0479C77.2217 25.667 77.5977 25.4766 77.4902 25.4766C77.5781 25.4766 77.6221 25.5156 77.6221 25.5938C77.6221 25.6523 77.5879 25.7012 77.5195 25.7402C77.002 26.082 76.3525 26.3799 75.5713 26.6338C74.7314 26.9365 74.0332 27.0879 73.4766 27.0879C72.6562 27.0879 72.2461 26.7363 72.2461 26.0332C72.2461 25.3203 72.8662 23.9238 74.1064 21.8438L72.3926 21.873C72.2949 21.873 72.2461 21.834 72.2461 21.7559C72.2461 21.6094 72.3145 21.5361 72.4512 21.5361C73.0762 21.5361 73.6963 21.5264 74.3115 21.5068C74.6533 20.9893 75.2832 20.1201 76.2012 18.8994C77.3047 17.415 77.9443 16.6729 78.1201 16.6729C78.208 16.6729 78.252 16.707 78.252 16.7754C78.2324 16.7949 78.1885 16.8438 78.1201 16.9219C77.2607 18.0645 76.2451 19.583 75.0732 21.4775L80.5518 21.3311C80.6787 21.3506 80.7422 21.3799 80.7422 21.4189ZM81.6211 24.627C82.002 23.7285 82.3096 22.8691 82.5439 22.0488C82.583 21.9316 82.6025 21.834 82.6025 21.7559C82.6025 21.6094 82.5439 21.5361 82.4268 21.5361C82.3291 21.5361 82.207 21.5898 82.0605 21.6973C81.123 22.332 80.4053 22.9717 79.9072 23.6162C79.5068 24.1338 78.9551 25.042 78.252 26.3408C78.1152 26.585 77.959 26.7607 77.7832 26.8682C77.6172 26.9756 77.4756 27.0781 77.3584 27.1758C77.1729 27.3027 77.0312 27.3662 76.9336 27.3662C76.8555 27.3662 76.8164 27.332 76.8164 27.2637C76.8164 27.2051 76.8262 27.1562 76.8457 27.1172C78.6816 23.6016 80.9326 19.9102 83.5986 16.043C84.7607 14.3828 86.0693 12.7861 87.5244 11.2529C89.2432 9.44629 90.8252 8.1377 92.2705 7.32715C92.9639 6.92676 93.6523 6.72656 94.3359 6.72656C95.4004 6.72656 96.0693 7.07324 96.3428 7.7666C96.4014 8.12793 96.4746 8.48926 96.5625 8.85059V8.87988C96.5625 8.95801 96.5381 8.99707 96.4893 8.99707C96.4307 8.97754 96.3916 8.94824 96.3721 8.90918C96.0303 8.14746 95.2539 7.7666 94.043 7.7666C92.1777 7.7666 90.1758 8.90918 88.0371 11.1943C87.0215 12.2686 85.6299 14.1875 83.8623 16.9512C82.3291 19.3535 81.1719 21.2432 80.3906 22.6201C82.1484 21.2236 83.1689 20.5254 83.4521 20.5254C83.6865 20.5254 83.8037 20.7012 83.8037 21.0527C83.8037 21.3164 83.7256 21.668 83.5693 22.1074C83.3643 22.6934 83.1201 23.3037 82.8369 23.9385C82.4072 24.915 82.1924 25.7646 82.1924 26.4873C82.1924 27.3857 82.6123 27.835 83.4521 27.835C84.5459 27.835 85.5518 27.2979 86.4697 26.2236C86.5186 26.1846 86.5527 26.165 86.5723 26.165C86.6309 26.165 86.6602 26.2041 86.6602 26.2822C86.6602 26.5361 86.2793 26.8877 85.5176 27.3369C84.873 27.708 84.375 27.9473 84.0234 28.0547C83.5156 28.1914 83.042 28.2598 82.6025 28.2598C81.4893 28.2598 80.9326 27.7812 80.9326 26.8242C80.9326 26.4531 81.1621 25.7207 81.6211 24.627ZM93.8672 24.085C93.8672 24.124 93.8477 24.168 93.8086 24.2168C92.2559 25.7109 90.5273 26.7168 88.623 27.2344C88.125 27.3809 87.6367 27.4541 87.1582 27.4541H87.0557C86.0205 27.4541 85.5029 27.0244 85.5029 26.165C85.5029 25.6572 85.6934 25.0566 86.0742 24.3633C86.9531 22.7617 88.1641 21.6191 89.707 20.9355C90.3418 20.6621 90.8398 20.5254 91.2012 20.5254H91.2305C91.6699 20.5254 91.8896 20.7012 91.8896 21.0527C91.8896 22.1953 90.2783 23.3574 87.0557 24.5391C86.8018 25.1152 86.6748 25.5547 86.6748 25.8574V25.916C86.6748 26.5996 87.1143 26.9414 87.9932 26.9414H88.0518C88.3936 26.9414 88.7158 26.9023 89.0186 26.8242C90.7764 26.3457 92.334 25.4131 93.6914 24.0264C93.7305 23.9873 93.7598 23.9678 93.7793 23.9678C93.8379 23.9678 93.8672 24.0068 93.8672 24.085ZM90.7471 21.6973V21.5654C90.7471 21.2041 90.6006 21.0234 90.3076 21.0234C90.1221 21.0234 89.9121 21.1064 89.6777 21.2725C88.6523 21.9756 87.832 22.9668 87.2168 24.2461C89.4531 23.5234 90.6299 22.6738 90.7471 21.6973ZM92.915 19.5439C92.915 19.6807 92.8809 19.7637 92.8125 19.793L92.4023 19.998C92.3535 19.998 92.3291 19.9395 92.3291 19.8223L92.2559 18.3281C92.2559 18.2598 92.2217 18.2256 92.1533 18.2256C92.1143 18.2256 92.0703 18.2451 92.0215 18.2842C91.5234 18.5869 91.1914 18.8018 91.0254 18.9287C90.2539 19.4561 89.8242 19.7441 89.7363 19.793C89.668 19.793 89.6338 19.7686 89.6338 19.7197C89.6338 19.6123 89.6875 19.5342 89.7949 19.4854C90.2148 19.1826 90.5127 18.9678 90.6885 18.8408C91.626 18.2256 92.207 17.8691 92.4316 17.7715C92.4609 17.752 92.5439 17.7617 92.6807 17.8008C92.749 17.8008 92.7832 17.8252 92.7832 17.874C92.7832 18.0596 92.8027 18.3379 92.8418 18.709C92.8906 19.0703 92.915 19.3486 92.915 19.5439ZM105.469 23.0449C105.469 23.084 105.449 23.1328 105.41 23.1914C104.375 24.8906 102.866 26.2725 100.884 27.3369C100.161 27.708 99.5312 27.8936 98.9941 27.8936C98.4375 27.8936 98.1592 27.6445 98.1592 27.1465C98.1592 26.8535 98.2666 26.5264 98.4814 26.165C99.126 25.1006 99.6777 24.0801 100.137 23.1035C100.254 22.8398 100.312 22.6396 100.312 22.5029C100.312 22.3174 100.234 22.2246 100.078 22.2246C99.9512 22.2246 99.7998 22.2881 99.624 22.415C98.9209 22.8936 98.1982 23.6602 97.4561 24.7148C96.7041 25.8379 96.1865 26.3994 95.9033 26.3994H95.8154C95.6104 26.3604 95.5078 26.2627 95.5078 26.1064C95.5078 25.999 95.5615 25.8867 95.6689 25.7695C96.5479 24.6855 97.1973 23.5869 97.6172 22.4736C97.6562 22.376 97.6758 22.2832 97.6758 22.1953C97.6758 22.0781 97.627 22.0195 97.5293 22.0195C97.4414 22.0195 97.3486 22.0488 97.251 22.1074C96.1572 22.791 95.166 23.792 94.2773 25.1104C94.1016 25.4912 93.7842 26.043 93.3252 26.7656C93.2275 26.8828 93.1445 26.9414 93.0762 26.9414C92.8809 26.9414 92.7832 26.7705 92.7832 26.4287C92.7832 26.3311 92.8027 26.2334 92.8418 26.1357C92.998 25.6963 93.418 24.832 94.1016 23.543C95.2246 21.4238 95.9229 20.3643 96.1963 20.3643C96.3037 20.3643 96.4453 20.5059 96.6211 20.7891C96.6406 20.8281 96.6504 20.8672 96.6504 20.9062C96.6504 20.9844 96.6309 21.0576 96.5918 21.126C96.416 21.3604 95.8887 22.249 95.0098 23.792C95.0293 23.792 95.0488 23.7725 95.0684 23.7334C95.9473 22.7471 97.0264 21.8975 98.3057 21.1846C98.4814 21.0771 98.6328 21.0234 98.7598 21.0234C98.9355 21.0234 99.0234 21.126 99.0234 21.3311C99.0234 21.5459 98.877 21.9219 98.584 22.459C98.3008 22.9863 98.1592 23.2793 98.1592 23.3379C98.1787 23.3379 98.208 23.3184 98.2471 23.2793C99.0088 22.498 99.8584 21.9268 100.796 21.5654C100.952 21.5068 101.069 21.4775 101.147 21.4775C101.411 21.4775 101.562 21.5801 101.602 21.7852V21.873C101.602 22.0488 101.514 22.3076 101.338 22.6494C100.537 24.1143 99.9658 25.2764 99.624 26.1357C99.5264 26.3701 99.4775 26.5801 99.4775 26.7656C99.4775 27.1465 99.668 27.3369 100.049 27.3369C100.264 27.3369 100.503 27.2734 100.767 27.1465C102.7 26.2285 104.189 24.8711 105.234 23.0742C105.273 22.9961 105.322 22.957 105.381 22.957C105.439 22.957 105.469 22.9863 105.469 23.0449Z" fill="white"/>
</svg>
