<!-- Generated by IcoMoon.io -->
<svg version="1.1" xmlns="http://www.w3.org/2000/svg" width="32" height="32" viewBox="0 0 32 32">
<title>bullet-list-69</title>
<path d="M12 2h20v4h-20v-4z"></path>
<path d="M12 14h20v4h-20v-4z"></path>
<path d="M12 26h20v4h-20v-4z"></path>
<path d="M6 0h-4c-1.2 0-2 0.8-2 2v4c0 1.2 0.8 2 2 2h4c1.2 0 2-0.8 2-2v-4c0-1.2-0.8-2-2-2z"></path>
<path d="M6 12h-4c-1.2 0-2 0.8-2 2v4c0 1.2 0.8 2 2 2h4c1.2 0 2-0.8 2-2v-4c0-1.2-0.8-2-2-2z"></path>
<path d="M6 24h-4c-1.2 0-2 0.8-2 2v4c0 1.2 0.8 2 2 2h4c1.2 0 2-0.8 2-2v-4c0-1.2-0.8-2-2-2z"></path>
</svg>
