<svg width="17" height="18" viewBox="0 0 17 18" fill="none" xmlns="http://www.w3.org/2000/svg">
<path d="M16.8814 13.4213C16.8814 13.4013 16.8634 13.4013 16.8634 13.3814C16.8634 13.3761 16.8613 13.371 16.8575 13.3673C16.8538 13.3635 16.8487 13.3614 16.8434 13.3614C16.7773 13.1791 16.674 13.0125 16.5399 12.8722L16.522 12.8523L16.4641 12.7944C16.278 12.6078 16.0603 12.4557 15.8212 12.3451C15.738 12.2995 15.6485 12.2665 15.5556 12.2473C15.4432 12.2242 15.329 12.2109 15.2142 12.2074C15.0881 12.2036 14.9619 12.2103 14.8369 12.2273H14.7989C14.772 12.2242 14.7449 12.2314 14.723 12.2473C14.24 12.3463 13.8093 12.6173 13.5111 13.01L13.4732 13.0499C13.4532 13.0679 13.4153 13.1078 13.3973 13.1278C13.1404 13.3869 12.8612 13.6227 12.5627 13.8326C12.249 14.0287 11.9198 14.199 11.5784 14.3417H11.5605C11.2582 14.461 10.9479 14.559 10.632 14.6352C9.78123 14.8232 8.8976 14.8026 8.05644 14.5753C7.98057 14.5554 7.88474 14.5174 7.80887 14.4975C7.733 14.4775 7.65912 14.4396 7.58325 14.4196C7.53137 14.4031 7.48067 14.3831 7.43151 14.3597C7.33244 14.3232 7.23688 14.2777 7.146 14.2239C7.1407 14.2239 7.13562 14.2218 7.13188 14.2181C7.12814 14.2143 7.12603 14.2093 7.12603 14.204C6.44502 13.8665 5.83503 13.4015 5.3291 12.8343C4.82789 12.2594 4.45369 11.5852 4.23098 10.8557C3.9501 9.9175 3.88189 8.9285 4.03132 7.96064C4.03132 7.96064 4.69419 3.36848 9.67568 3.26266C10.7942 3.30998 11.8743 3.68413 12.7824 4.33882C9.91127 7.30376 6.1477 11.1312 6.1477 11.1312C6.6391 12.0162 7.44285 12.6861 8.40185 13.01C8.94293 12.4609 16.8814 4.30887 16.8814 4.30887C16.8814 4.30887 16.1306 2.9492 15.0625 2.16653C13.8242 1.09016 12.2966 0.402023 10.67 0.187915C6.38929 -0.379116 2.01477 2.40014 1.06839 7.52937C0.329649 12.3451 3.3405 16.9133 8.09438 17.7659C11.0114 18.3149 14.8369 16.9832 16.9572 13.617C16.9232 13.5555 16.8976 13.4897 16.8814 13.4213Z" fill="#00747B"/>
</svg>
