<!-- Generated by IcoMoon.io -->
<svg version="1.1" xmlns="http://www.w3.org/2000/svg" width="32" height="32" viewBox="0 0 32 32">
<title>home-1-2</title>
<path d="M21.896 32h3.998c1.2 0 1.998-0.8 1.998-1.998v-14.162h1.998c0.6 0 1.2-0.2 1.6-0.6 0.8-0.8 0.6-1.998-0.2-2.798l-13.99-11.992c-0.8-0.6-1.8-0.6-2.598 0l-13.994 11.992c-0.8 0.8-1 1.998-0.2 2.798 0.2 0.4 0.8 0.6 1.4 0.6h1.998v14.16c0 1.2 0.8 1.998 1.998 1.998h3.998c1.2 0 1.998-0.8 1.998-1.998v-6.164h7.996v6.164c0.002 1.2 0.802 2 2 2z"></path>
</svg>
