<!-- Generated by IcoMoon.io -->
<svg version="1.1" xmlns="http://www.w3.org/2000/svg" width="32" height="32" viewBox="0 0 32 32">
<title>Link</title>
<path d="M9 32c-2.4 0-4.6-1-6.4-2.6-3.6-3.6-3.6-9.2 0-12.8l1.4-1.4 2.8 2.8-1.4 1.4c-2 2-2 5.2 0 7.2s5.2 2 7.2 0l6-6c2-2 2-5.2 0-7.2l-1.4-1.4 2.8-2.8 1.4 1.4c3.6 3.6 3.6 9.2 0 12.8l-6 6c-1.6 1.6-4 2.6-6.4 2.6z"></path>
<path d="M12 22.8l-1.4-1.4c-3.6-3.6-3.6-9.2 0-12.8l6-6c1.8-1.8 4-2.6 6.4-2.6s4.6 1 6.4 2.6c3.6 3.6 3.6 9.2 0 12.8l-1.4 1.4-2.8-2.8 1.4-1.4c2-2 2-5.2 0-7.2s-5.2-2-7.2 0l-6 6c-2 2-2 5.2 0 7.2l1.4 1.4-2.8 2.8z"></path>
</svg>
