<!-- Generated by IcoMoon.io -->
<svg version="1.1" xmlns="http://www.w3.org/2000/svg" width="32" height="32" viewBox="0 0 32 32">
<title>media-2</title>
<path d="M12.814 1.61c-0.002-0.734-0.597-1.329-1.332-1.329-0.736 0-1.332 0.596-1.332 1.332 0 0.427 0.201 0.807 0.513 1.051l0.003 0.002v5.906l-8.488-6.938c-0.228-0.189-0.524-0.303-0.846-0.303-0.736 0-1.332 0.596-1.332 1.332 0 0.001 0 0.002 0 0.003v-0 26.666c0 0.001 0 0.002 0 0.003 0 0.736 0.596 1.332 1.332 1.332 0.322 0 0.618-0.114 0.848-0.305l-0.002 0.002 8.49-6.938v5.906c0 0.001 0 0.002 0 0.004 0 0.736 0.596 1.332 1.332 1.332 0.308 0 0.591-0.104 0.817-0.28l-0.003 0.002 17.334-13.334c0.319-0.246 0.523-0.628 0.523-1.058s-0.204-0.812-0.52-1.056l-0.003-0.002-17.334-13.33z"></path>
</svg>
