<!-- Generated by IcoMoon.io -->
<svg version="1.1" xmlns="http://www.w3.org/2000/svg" width="32" height="32" viewBox="0 0 32 32">
<title>media-3</title>
<path d="M19.262 1.474c-0.174-0.088-0.378-0.139-0.595-0.139-0.302 0-0.58 0.1-0.804 0.268l0.003-0.002-10.31 7.734h-6.222c-0.001 0-0.001 0-0.002 0-0.736 0-1.332 0.596-1.332 1.332 0 0 0 0 0 0v0 10.666c0 0.738 0.596 1.334 1.334 1.334h6.222l10.31 7.734c0.219 0.168 0.497 0.269 0.799 0.269 0.218 0 0.424-0.053 0.605-0.146l-0.007 0.003c0.441-0.224 0.737-0.673 0.738-1.192v-26.668c-0.001-0.519-0.297-0.968-0.73-1.188l-0.008-0.004z"></path>
<path d="M24.324 10.344l-0.942-0.942-1.886 1.886 0.942 0.942c0.964 0.966 1.56 2.299 1.56 3.771s-0.596 2.805-1.56 3.771l-0.942 0.942 1.886 1.886 0.942-0.942c1.445-1.449 2.338-3.449 2.338-5.657s-0.893-4.208-2.339-5.657l0 0z"></path>
<path d="M27.152 5.63l-1.886 1.886 0.942 0.942c1.927 1.932 3.119 4.598 3.119 7.543s-1.192 5.611-3.119 7.543l-0.942 0.942 1.886 1.886 0.942-0.942c2.409-2.415 3.898-5.748 3.898-9.429s-1.49-7.014-3.899-9.429l-0.942-0.942z"></path>
</svg>
