<!-- Generated by IcoMoon.io -->
<svg version="1.1" xmlns="http://www.w3.org/2000/svg" width="32" height="32" viewBox="0 0 32 32">
<title>ns-camera</title>
<path d="M27.253 6.273h-2.54l-1.602-1.602c-0.93-0.92-2.554-1.592-3.858-1.592h-6.408c-1.304 0-2.928 0.672-3.858 1.592l-1.602 1.602h-2.54c-2.64 0-4.796 2.156-4.796 4.806v12.796c0.003 2.647 2.149 4.793 4.796 4.796h22.408c2.647-0.003 4.793-2.149 4.796-4.796v-12.796c0-2.65-2.156-4.806-4.796-4.806zM16.049 22.273c-3.094 0-5.602-2.508-5.602-5.602v0c0-3.092 2.508-5.592 5.602-5.592s5.602 2.5 5.602 5.592c0 3.094-2.508 5.602-5.602 5.602v0zM25.651 14.751c-0.002 0-0.003 0-0.005 0-1.145 0-2.073-0.928-2.073-2.073 0-0.002 0-0.005 0-0.007v0c0-1.148 0.93-2.078 2.078-2.078s2.078 0.93 2.078 2.078v0c0 1.158-0.93 2.080-2.078 2.080z"></path>
</svg>
