<!-- Generated by IcoMoon.io -->
<svg version="1.1" xmlns="http://www.w3.org/2000/svg" width="32" height="32" viewBox="0 0 32 32">
<title>ns-flag</title>
<path d="M28 1.48c-7.040-5.080-14 4.8-21.1 1.36v-0.72c0-0.906-0.734-1.64-1.64-1.64s-1.64 0.734-1.64 1.64v0 28.24c0 0.906 0.734 1.64 1.64 1.64s1.64-0.734 1.64-1.64v0-12c6.68 3.26 13.38-5.48 20-2 0.134 0.071 0.292 0.112 0.46 0.112 0.549 0 0.995-0.443 1-0.992v-13.2c0-0.009 0-0.020 0-0.031 0-0.308-0.14-0.584-0.359-0.768l-0.002-0.001z"></path>
</svg>
