<!-- Generated by IcoMoon.io -->
<svg version="1.1" xmlns="http://www.w3.org/2000/svg" width="32" height="32" viewBox="0 0 32 32">
<title>ns-quote</title>
<path d="M4.351 15.336c0.374-0.467 0.947-0.853 1.719-1.158s1.672-0.456 2.702-0.456c1.73 0 3.193 0.561 4.386 1.684s1.789 2.667 1.789 4.632c0 2.012-0.691 3.626-2.070 4.842-1.38 1.217-3.053 1.825-5.018 1.825-2.386 0-4.293-0.772-5.719-2.316s-2.14-3.555-2.14-6.035c0-2.151 0.397-4.046 1.193-5.684 0.795-1.637 1.883-3.005 3.263-4.105 1.38-1.099 2.983-1.93 4.807-2.491 1.825-0.562 3.742-0.818 5.754-0.772v1.193c-1.403 0.047-2.761 0.235-4.070 0.561-1.31 0.328-2.456 0.842-3.438 1.544s-1.767 1.603-2.351 2.702c-0.586 1.099-0.854 2.444-0.807 4.034zM21.333 15.336c0.374-0.467 0.948-0.853 1.72-1.158s1.672-0.456 2.701-0.456c1.73 0 3.193 0.561 4.386 1.684s1.79 2.667 1.79 4.632c0 2.012-0.691 3.626-2.070 4.842-1.38 1.217-3.053 1.825-5.018 1.825-2.386 0-4.293-0.772-5.719-2.316-1.428-1.544-2.14-3.555-2.14-6.035 0-2.151 0.397-4.046 1.193-5.684 0.795-1.637 1.883-3.005 3.263-4.105 1.379-1.099 2.983-1.93 4.807-2.491 1.824-0.563 3.742-0.819 5.754-0.773v1.193c-1.403 0.047-2.761 0.235-4.070 0.561-1.31 0.328-2.456 0.842-3.439 1.544-0.982 0.702-1.767 1.603-2.351 2.702-0.585 1.1-0.854 2.445-0.807 4.035z"></path>
</svg>
