<!-- Generated by IcoMoon.io -->
<svg version="1.1" xmlns="http://www.w3.org/2000/svg" width="32" height="32" viewBox="0 0 32 32">
<title>ns-video</title>
<path d="M31.507 8.045c-0.171-0.107-0.378-0.171-0.601-0.171-0.186 0-0.362 0.045-0.518 0.124l0.006-0.003-6.352 3.745v-4.436c-0.001-1.894-1.535-3.428-3.429-3.429h-17.136c-1.894 0.001-3.428 1.535-3.429 3.429v17.143c0.001 1.893 1.536 3.428 3.429 3.428h17.137c1.893-0.001 3.428-1.535 3.429-3.428v-4.437l6.352 3.751c0.149 0.076 0.325 0.121 0.511 0.121 0.631 0 1.143-0.512 1.143-1.143 0-0.002 0-0.005-0-0.007v0-13.714c-0.001-0.409-0.216-0.768-0.538-0.97l-0.005-0.003zM12.052 21.472c-3.094 0-5.602-2.508-5.602-5.602v0c0.002-3.089 2.506-5.592 5.595-5.592 0.002 0 0.005 0 0.007 0h-0c3.094 0 5.602 2.5 5.602 5.592-0.001 3.094-2.508 5.601-5.602 5.602h-0zM19.961 10.033c-0.002 0-0.003 0-0.005 0-1.145 0-2.073-0.928-2.073-2.073 0-0.002 0-0.005 0-0.007v0c0-1.148 0.93-2.078 2.078-2.078s2.078 0.93 2.078 2.078v0c0 0.002 0 0.005 0 0.008 0 1.144-0.928 2.072-2.072 2.072-0.002 0-0.004 0-0.006 0h0z"></path>
</svg>
