<!-- Generated by IcoMoon.io -->
<svg version="1.1" xmlns="http://www.w3.org/2000/svg" width="32" height="32" viewBox="0 0 32 32">
<title>ns-wedding-8</title>
<path d="M19.332 1.793c0.016 0.039 0.022 0.072 0.033 0.105 0.006 0.011 0.006 0.022 0.011 0.033l1.732 3.034h5.218l1.732-3.034c0.011-0.011 0.011-0.022 0.017-0.033 0.011-0.033 0.016-0.066 0.033-0.105 0.006-0.033 0.011-0.066 0.016-0.105 0-0.011 0.006-0.022 0.006-0.033-0.003-0.035-0.008-0.071-0.017-0.105v-0.050c-0.259-1.45-3.96-1.5-4.396-1.5-0.431 0-4.137 0.050-4.391 1.5v0.050c-0.010 0.034-0.017 0.069-0.022 0.105 0 0.011 0.011 0.022 0.011 0.033 0.006 0.039 0.011 0.072 0.017 0.105v0z"></path>
<path d="M21.511 6.068h4.413v1.103h-4.413v-1.103z"></path>
<path d="M19.679 6.62c0.124-0.392 0.183-0.802 0.177-1.214 0-1.545-1.672-2.924-1.865-3.078-0.011-0.011-0.022-0.011-0.044-0.022-0.028-0.022-0.060-0.039-0.094-0.050-0.031-0.016-0.065-0.027-0.099-0.033-0.035-0.004-0.070-0.006-0.105-0.005-0.035-0.001-0.070 0.001-0.105 0.005-0.035 0.006-0.068 0.017-0.099 0.033-0.032 0.012-0.061 0.029-0.088 0.050-0.022 0.011-0.033 0.011-0.044 0.022-0.193 0.155-1.87 1.533-1.87 3.078-0.008 0.412 0.053 0.822 0.182 1.214h4.054z"></path>
<path d="M31.992 10.486c-0.001-0.44-0.176-0.861-0.488-1.171-0.311-0.31-0.733-0.484-1.173-0.483h-0.006c-0.433-0.001-0.849 0.172-1.153 0.48l-2.918 2.841c-0.105-0.006-0.215-0.017-0.331-0.017v-3.861h-4.413v3.861h-2.207v-2.207h-3.31v2.207h-1.653v-5.516h-3.31v5.516h-1.103v-3.31c-0.002-0.609-0.495-1.101-1.104-1.103v-1.103h-3.861v1.103c-0.608 0.004-1.1 0.495-1.103 1.103v3.437c-2.257 0.518-3.854 2.528-3.85 4.843l0.011 14.877 30.852 0.017 0.011-14.894c0.008-1.301-0.502-2.551-1.417-3.475l2.041-1.975c0.31-0.31 0.485-0.731 0.485-1.17v0zM30.734 10.867l-2.129 2.063c-0.326-0.213-0.676-0.385-1.043-0.513l2.383-2.322c0.102-0.103 0.241-0.161 0.386-0.16 0.15-0.007 0.297 0.053 0.397 0.165 0.212 0.212 0.214 0.553 0.006 0.767v0zM20.317 22.576l-4.111 4.11c-0.219 0.219-0.506 0.329-0.794 0.329s-0.574-0.11-0.793-0.329l-4.096-4.096c-0.596-0.558-0.929-1.429-0.914-2.395 0.014-0.94 0.352-1.769 0.927-2.283 0.616-0.601 1.427-0.932 2.289-0.932 0.876 0 1.698 0.341 2.318 0.96l0.269 0.269 0.269-0.269c1.278-1.278 3.357-1.278 4.635 0 1.278 1.279 1.278 3.358 0.001 4.636v0z"></path>
<path d="M9.377 1.103c-0.001-0.608-0.494-1.101-1.103-1.103h-2.758c-0.608 0.002-1.101 0.495-1.103 1.103v4.413h4.965v-4.413z"></path>
<path d="M15.997 7.723h3.31v1.103h-3.31v-1.103z"></path>
<path d="M13.757 3.045c-0.122-0.497-0.571-0.845-1.084-0.838s-0.952 0.366-1.062 0.866l-0.48 2.444h3.111l-0.485-2.472z"></path>
</svg>
