<!-- Generated by IcoMoon.io -->
<svg version="1.1" xmlns="http://www.w3.org/2000/svg" width="32" height="32" viewBox="0 0 32 32">
<title>search-1</title>
<path d="M14.212 24.050c-5.566 0-10.136-4.372-10.136-9.938s4.572-10.136 10.136-10.136 10.136 4.572 10.136 10.136-4.572 9.938-10.136 9.938zM25.342 22.46c1.736-2.262 2.782-5.133 2.782-8.248 0-0.035-0-0.070-0-0.105l0 0.005c0-7.752-6.162-14.112-13.912-14.112-7.752 0-14.112 6.36-14.112 14.112s6.36 14.112 14.112 14.112c3.18 0 6.162-0.994 8.348-2.782l5.962 5.962c0.398 0.398 0.994 0.596 1.39 0.596 0.398 0 0.994-0.198 1.392-0.596 0.368-0.35 0.597-0.844 0.597-1.391s-0.229-1.041-0.596-1.39l-0.001-0.001-5.962-6.162z"></path>
</svg>
