<!-- Generated by IcoMoon.io -->
<svg version="1.1" xmlns="http://www.w3.org/2000/svg" width="32" height="32" viewBox="0 0 32 32">
<title>shuffle-98</title>
<path d="M24 22c-2.986 0-4.024-1.066-5.684-2.962l-2.658 3.038c2.166 2.474 4.492 3.924 8.342 3.924v4l8-6-8-6v4z"></path>
<path d="M7.684 12.962l2.658-3.038c-2.1-2.4-4.544-3.924-7.972-3.924h-2.37v4h2.37c2.562 0 3.804 1.238 5.314 2.962z"></path>
<path d="M24 6c-3.434 0-6.036 1.29-7.896 3.416l-9.22 10.534c-1.138 1.302-2.784 2.050-4.514 2.050h-2.37v4h2.37c2.882 0 5.626-1.246 7.528-3.416l9.218-10.536c1.322-1.512 2.958-2.048 4.884-2.048v4l8-6-8-6v4z"></path>
</svg>
