<svg width="24" height="24" viewBox="0 0 24 24" fill="none" xmlns="http://www.w3.org/2000/svg">
<path d="M15.75 0V1.5H21.4395L16.0853 6.85425C14.3242 5.33503 12.0758 4.49947 9.75 4.5C4.374 4.5 0 8.874 0 14.25C0 19.626 4.374 24 9.75 24C15.126 24 19.5 19.626 19.5 14.25C19.5 11.8313 18.6098 9.62025 17.1458 7.91475L22.5 2.5605V8.25H24V0H15.75ZM9.75 22.5C5.20125 22.5 1.5 18.7987 1.5 14.25C1.5 9.70125 5.20125 6 9.75 6C14.2987 6 18 9.70125 18 14.25C18 18.7987 14.2987 22.5 9.75 22.5Z" fill="#222222"/>
</svg>
