<svg width="20" height="20" viewBox="0 0 20 20" fill="none" xmlns="http://www.w3.org/2000/svg">
<circle cx="10" cy="10" r="10" fill="white"/>
<path d="M10 2C5.6 2 2 5.6 2 10C2 14.4 5.6 18 10 18C14.4 18 18 14.4 18 10C18 5.6 14.4 2 10 2ZM14.4667 7.8L9.13333 13.1333C9 13.2667 8.86667 13.3333 8.66667 13.3333C8.46667 13.3333 8.33333 13.2667 8.2 13.1333L5.53333 10.4667C5.26667 10.2 5.26667 9.8 5.53333 9.53333C5.8 9.26667 6.2 9.26667 6.46667 9.53333L8.66667 11.7333L13.5333 6.86667C13.8 6.6 14.2 6.6 14.4667 6.86667C14.7333 7.13333 14.7333 7.53333 14.4667 7.8Z" fill="#9F224E"/>
</svg>
