<svg width="37" height="37" viewBox="0 0 37 37" fill="none" xmlns="http://www.w3.org/2000/svg">
<circle cx="18.5" cy="18.5" r="18.5" fill="#F2F2F2"/>
<g clip-path="url(#clip0)">
<path d="M19.3481 9.24727V11.8957C19.8724 12.1403 20.2811 12.5449 20.5425 13.0678C20.5632 13.1092 20.5865 13.1524 20.5991 13.197L21.2594 15.51C21.2785 15.5771 21.2956 15.6463 21.2956 15.716V22.6554C21.2956 23.069 20.9602 23.4045 20.5465 23.4045C20.1329 23.4045 19.7975 23.069 19.7975 22.6554V15.821L19.1842 13.684C18.9873 13.3365 18.6268 13.1311 18.2223 13.1311C17.8181 13.1311 17.4606 13.3365 17.2637 13.684L16.6512 15.821V22.6554C16.6512 23.069 16.3158 23.4045 15.9021 23.4045C15.4885 23.4045 15.153 23.069 15.153 22.6554V15.716C15.153 15.6463 15.1632 15.5771 15.1823 15.51L15.8378 13.197C15.8505 13.1524 15.8495 13.1092 15.8702 13.0678C16.1317 12.5448 16.5763 12.1402 17.0257 11.8956V9.24727H14.7081C14.6326 9.46832 14.4236 9.62181 14.1769 9.62181H10.1289C9.50017 9.62181 8.98877 9.12689 8.98877 8.49818C8.98877 7.86947 9.50017 7.37454 10.1289 7.37454H14.1769C14.4316 7.37454 14.6463 7.5168 14.7153 7.74909H17.0259V7.58504C17.0259 7.27469 17.3363 7 17.6466 7H18.8031C19.1135 7 19.348 7.27469 19.348 7.58504V7.74909H21.7344C21.8033 7.5168 22.0181 7.37454 22.2727 7.37454H26.3207C26.9495 7.37454 27.4609 7.86947 27.4609 8.49818C27.4609 9.12689 26.9495 9.62181 26.3207 9.62181H22.2727C22.0261 9.62181 21.8171 9.46832 21.7415 9.24727H19.3481ZM18.2245 13.9976C17.6479 13.9976 17.1758 14.4668 17.1758 15.0435V27.9542C17.1758 28.5308 17.6479 29.0001 18.2245 29.0001C18.8012 29.0001 19.2732 28.5308 19.2732 27.9542V15.0435C19.2732 14.4668 18.8012 13.9976 18.2245 13.9976ZM15.8523 25.2778H14.1044V24.919C14.1044 24.6087 13.9089 24.3789 13.5986 24.3789H10.1289C9.81854 24.3789 9.53501 24.6087 9.53501 24.919V26.6303C9.53501 26.9406 9.81854 27.2254 10.1289 27.2254H13.5986C13.9089 27.2254 14.1044 26.9405 14.1044 26.6303V26.4014H15.8523C16.1626 26.4014 16.4141 26.1499 16.4141 25.8396C16.4141 25.5292 16.1626 25.2778 15.8523 25.2778ZM28.4464 18.7607H24.9767C24.6664 18.7607 24.367 19.0011 24.367 19.3114V19.6596H22.5941C22.2838 19.6596 22.0323 19.9111 22.0323 20.2214C22.0323 20.5318 22.2838 20.7832 22.5941 20.7832H24.367V21.0226C24.367 21.3329 24.6664 21.6072 24.9767 21.6072H28.4464C28.7567 21.6072 29.0113 21.3329 29.0113 21.0226V19.3114C29.0113 19.0011 28.7567 18.7607 28.4464 18.7607Z" fill="#757575"/>
</g>
<defs>
<clipPath id="clip0">
<rect x="8" y="7" width="22" height="22" fill="white"/>
</clipPath>
</defs>
</svg>
