<svg width="16" height="16" viewBox="0 0 16 16" fill="none" xmlns="http://www.w3.org/2000/svg">
<path d="M13.888 2H2.08071C1.48435 2 1.33331 2.15365 1.33331 2.7526V12.9141C1.33331 13.5208 1.48435 13.6667 2.08071 13.6667H13.888C14.5234 13.6667 14.6666 13.5312 14.6666 12.8932V2.78646C14.6666 2.14583 14.526 2 13.888 2ZM5.97915 6.90365C5.263 6.3776 4.10154 6.67708 3.78644 7.51302C3.67446 7.80208 3.54425 7.76042 3.33071 7.72917C3.0781 7.6901 2.88279 7.64583 2.74477 7.58594C1.99477 7.28906 2.96873 6.14583 3.39321 5.91146C4.46352 5.35417 5.56508 5.33333 6.65623 5.78646C7.72133 6.22396 7.55467 7.32812 7.55467 9.13281C7.62498 9.80469 7.44269 10.651 7.79685 11.4453C7.84633 11.5599 7.80727 11.651 7.72654 11.724C7.50779 11.8984 6.7031 11.7812 6.513 11.5312C6.46352 11.474 6.46613 11.4375 6.41144 11.3698C6.31769 11.2682 6.22133 11.3125 6.10154 11.3958C4.60675 12.3438 2.4479 11.9531 2.27342 10.2682C2.19269 9.50521 2.59633 8.78125 3.30467 8.41927C4.29946 7.91146 6.22654 8.11198 6.27342 7.61458C6.30206 7.34896 6.22394 7.09115 5.97915 6.90365ZM13.4453 12.6849C13.4453 13.0781 13.1562 12.9427 12.9818 12.9427H2.6979C2.50519 12.9427 2.22394 13.0677 2.23435 12.6641C2.24477 12.3021 2.50779 12.4271 2.67967 12.4271C6.12498 12.4167 9.56769 12.4167 13.013 12.4271C13.1901 12.4271 13.4453 12.3125 13.4453 12.6849ZM13.5443 3.81771V11.3958C13.5443 11.5443 13.526 11.7578 13.3333 11.7578C13.0104 11.7474 12.6172 11.9427 12.3932 11.612C12.2422 11.3854 12.1901 11.5078 12.0703 11.5807C10.6797 12.3542 8.73435 11.7656 8.30988 9.36198C8.15102 8.49219 8.29165 7.61458 8.71873 6.75781C9.02602 6.13542 10.2005 4.77604 12.263 5.96354V4.11458C12.263 3.43229 12.2604 3.43229 12.9401 3.43229C13.0208 3.43229 13.112 3.44271 13.1927 3.43229C13.4557 3.41146 13.5469 3.54688 13.5469 3.80469C13.5443 3.8099 13.5443 3.8125 13.5443 3.81771ZM12.2031 9.86719C11.6953 11.1068 10.3047 10.9948 9.85935 10.0026C9.46613 9.13542 9.45571 8.22656 9.86977 7.35938C10.2943 6.47135 11.4245 6.42969 11.9922 7.23438C12.5286 7.98438 12.3802 9.4375 12.2031 9.86719ZM4.52602 10.7865C4.33071 10.7526 3.66665 10.7005 3.64842 10.0625C3.638 9.70052 3.85154 9.46354 4.16404 9.39062C4.79946 9.23698 5.4479 9.13281 6.08331 9.00781C6.31508 8.95573 6.27602 9.1224 6.28644 9.25521C6.3229 10.1146 5.60675 10.7969 4.52602 10.7865Z" fill="#F2C94C"/>
</svg>
