<svg id="Layer_1" data-name="Layer 1" xmlns="http://www.w3.org/2000/svg" width="1440" height="600" viewBox="0 0 1440 600"><title>icon_vne_1</title><rect y="416" width="60" height="60" fill="#fff" opacity="0.7" style="isolation:isolate"/><path d="M622.06,355.48V354h-1.51v-.87l1.82-1.8,2.39,2.36-1.82,1.8Zm7.77-10.68-5.5,5.44a.33.33,0,0,1-.46.06l-.06-.06a.32.32,0,0,1-.06-.45l.06-.06,5.5-5.44a.33.33,0,0,1,.46-.06l.06.06a.32.32,0,0,1,.06.45Zm1,8.27a.47.47,0,0,0-.55.11l-1,1a.48.48,0,0,0-.14.34v2a2.51,2.51,0,0,1-2.51,2.49H613.52a2.51,2.51,0,0,1-2.51-2.49v-13a2.51,2.51,0,0,1,2.51-2.49h13.06a2.82,2.82,0,0,1,.71.09.45.45,0,0,0,.5-.12l.77-.76a.48.48,0,0,0,.14-.45.45.45,0,0,0-.28-.36,4.35,4.35,0,0,0-1.84-.39H613.52a4.37,4.37,0,0,0-3.2,1.31,4.27,4.27,0,0,0-1.32,3.16v12.93a4.28,4.28,0,0,0,1.33,3.16,4.37,4.37,0,0,0,3.2,1.31h13.06a4.37,4.37,0,0,0,3.2-1.31,4.28,4.28,0,0,0,1.33-3.16v-3a.45.45,0,0,0-.33-.39ZM619,352.49V357h4.52l10.55-10.45L629.6,342ZM637,343a1.42,1.42,0,0,0-.44-1.06l-2.39-2.36a1.53,1.53,0,0,0-2.14,0L630.6,341l4.52,4.48,1.44-1.43A1.38,1.38,0,0,0,637,343Zm19-6a13,13,0,1,1-13,13,13,13,0,0,1,13-13Zm-2,7v12l-5-6Zm9,6-5-6v12Z" fill="#fff"/><path d="M322.55,270.31a3,3,0,0,0,.42-2.06,3.53,3.53,0,0,0-.91-2.06,2.37,2.37,0,0,0-1.71-.87,1.63,1.63,0,0,0-1.48.8,2.86,2.86,0,0,0-.37,2,4,4,0,0,0,.94,2.09,2.35,2.35,0,0,0,1.69.91A1.55,1.55,0,0,0,322.55,270.31Zm-.37,4.12a4.25,4.25,0,0,0-1.22-.19,4.07,4.07,0,0,0-2.41.75,2.13,2.13,0,0,0-1.05,1.73,2.34,2.34,0,0,0,.89,1.83,3.38,3.38,0,0,0,2.25.75c2.35,0,3.53-.83,3.52-2.48a1.54,1.54,0,0,0-.09-.52.63.63,0,0,0-.07-.3,1.61,1.61,0,0,0-.21-.3,2.85,2.85,0,0,0-.23-.26,3.11,3.11,0,0,0-.28-.23L323,275l-.4-.28a2.57,2.57,0,0,1-.41-.26ZM333,270.55h-3v3h-1.5v-3h-3V269h3v-3H330v3h3Zm-12.33,9.52a7.27,7.27,0,0,1-3.49-.77,2.29,2.29,0,0,1-1.43-2,3,3,0,0,1,1.38-2.37,5.28,5.28,0,0,1,3.3-1.05h.84a1.93,1.93,0,0,1-.66-1.36,2.14,2.14,0,0,1,.23-.89,1.48,1.48,0,0,1-.42,0,3.63,3.63,0,0,1-2.62-1,3.35,3.35,0,0,1-1-2.46,3.15,3.15,0,0,1,1.27-2.46,4.4,4.4,0,0,1,2.91-1h4.78l-1.08.75h-1.5a2.21,2.21,0,0,1,1.13,1,3.52,3.52,0,0,1,.42,1.71,3,3,0,0,1-1.36,2.48,4.32,4.32,0,0,0-.75.73,1.17,1.17,0,0,0-.19.68,2.43,2.43,0,0,0,1.27,1.45,4.43,4.43,0,0,1,1.31,1.38,3.7,3.7,0,0,1,.38,1.76,3,3,0,0,1-1.27,2.39,5.27,5.27,0,0,1-3.45,1Zm11.81-16.55A12,12,0,1,0,336,272,11.57,11.57,0,0,0,332.48,263.52Z" fill="#da5542" opacity="0.75" style="isolation:isolate"/><path d="M341.88,277a2.56,2.56,0,1,0,2.57,2.55,2.53,2.53,0,0,0-.75-1.8A2.5,2.5,0,0,0,341.88,277Zm8.35.12a12.17,12.17,0,0,0-5.9-5.9,11.92,11.92,0,0,0-4.1-1.08h-.07a.88.88,0,0,0-.86.86v1.81a.84.84,0,0,0,.77.85,8.57,8.57,0,0,1,7.71,7.71.79.79,0,0,0,.27.56.89.89,0,0,0,.58.22h1.81a.86.86,0,0,0,.86-.88v0a12,12,0,0,0-1.07-4.12Zm6.33-2.59a19.26,19.26,0,0,0-9.64-9.64,18.6,18.6,0,0,0-6.72-1.61h0a.88.88,0,0,0-.86.86V266a.83.83,0,0,0,.23.58.82.82,0,0,0,.57.26,15.38,15.38,0,0,1,13.07,9,15,15,0,0,1,1.35,5.47.82.82,0,0,0,.26.57.84.84,0,0,0,.6.23h1.92a.87.87,0,0,0,.86-.88v0a18.48,18.48,0,0,0-1.64-6.69Z" fill="#999"/><path d="M276.92,138.87a1.14,1.14,0,1,1,.81-.33A1.08,1.08,0,0,1,276.92,138.87Zm4.2-.09a.25.25,0,0,1-.2.09h-1.14a.3.3,0,0,1-.2-.08.28.28,0,0,1-.09-.19,3.72,3.72,0,0,0-3.44-3.44.28.28,0,0,1-.19-.09.3.3,0,0,1-.08-.2v-1.14a.27.27,0,0,1,.09-.21.24.24,0,0,1,.21-.08,5.4,5.4,0,0,1,5.12,5.12.27.27,0,0,1-.08.22Zm3.43,0a.27.27,0,0,1-.21.09H283.2a.3.3,0,0,1-.2-.08.25.25,0,0,1-.09-.2,6.93,6.93,0,0,0-1-3.37,7.24,7.24,0,0,0-2.49-2.49,6.93,6.93,0,0,0-3.37-1,.25.25,0,0,1-.2-.09.3.3,0,0,1-.08-.2v-1.13a.27.27,0,0,1,.09-.21.24.24,0,0,1,.21-.08,8.94,8.94,0,0,1,2.66.5,8.5,8.5,0,0,1,2.32,1.24,9.33,9.33,0,0,1,1.83,1.83,8.5,8.5,0,0,1,1.24,2.32,8.94,8.94,0,0,1,.5,2.66.22.22,0,0,1-.08.2Zm1.91-10.58a2.5,2.5,0,0,0-1.82-.75h-8.57A2.58,2.58,0,0,0,273.5,130v8.57a2.58,2.58,0,0,0,2.57,2.57h8.57a2.57,2.57,0,0,0,2.57-2.57h0V130a2.49,2.49,0,0,0-.76-1.82Z" fill="#e19126"/><path d="M654.06,209.33a.43.43,0,0,1-.32.12H650a.43.43,0,0,1-.31-.12.41.41,0,0,1-.12-.32v-.87a.42.42,0,0,1,.4-.44h.67l-.71-2.22h-3.77l-.37,1.12-1.36-2.72,2.22-6.38a.34.34,0,0,1,.15-.22.5.5,0,0,1,.26-.08h2a.5.5,0,0,1,.26.08.34.34,0,0,1,.15.22L653,207.7h.74a.42.42,0,0,1,.44.4h0v.9A.41.41,0,0,1,654.06,209.33Zm-5.78-9.06a4.2,4.2,0,0,1-.22-.93c-.06.31-.13.62-.22.93l-1.15,3.39h2.71Zm-14,7.19a.54.54,0,0,1,.56.52h0v1.17a.54.54,0,0,1-.52.56H629.5a.54.54,0,0,1-.56-.52h0V208a.54.54,0,0,1,.52-.56h1l4.55-13.1a.4.4,0,0,1,.19-.28.64.64,0,0,1,.33-.1h2.53a.56.56,0,0,1,.33.1.4.4,0,0,1,.19.28l4.57,13.11h1a.54.54,0,0,1,.56.52h0v1.17a.54.54,0,0,1-.52.56h-4.82a.54.54,0,0,1-.56-.52h0V208a.54.54,0,0,1,.52-.56h.85l-.92-2.85h-4.85l-1,2.85Zm2.25-9.56-1.48,4.36h3.48l-1.44-4.36a5.51,5.51,0,0,1-.28-1.2,9.78,9.78,0,0,1-.28,1.19Z" fill="#999"/><path d="M679.06,209.33a.43.43,0,0,1-.31.12H675a.43.43,0,0,1-.31-.12.41.41,0,0,1-.12-.32v-.87a.42.42,0,0,1,.4-.44h.67l-.71-2.22h-3.77l-.37,1.12-1.36-2.72,2.22-6.38a.34.34,0,0,1,.15-.22.5.5,0,0,1,.26-.08h2a.5.5,0,0,1,.26.08.34.34,0,0,1,.15.22L678,207.7h.74a.42.42,0,0,1,.44.4h0v.9A.41.41,0,0,1,679.06,209.33Zm-5.78-9.06a4.2,4.2,0,0,1-.22-.93c-.06.31-.13.62-.22.93l-1.15,3.39h2.71Zm-14,7.19a.54.54,0,0,1,.56.52h0v1.17a.54.54,0,0,1-.52.56H654.5a.54.54,0,0,1-.56-.52h0V208a.54.54,0,0,1,.52-.56h1l4.55-13.1a.4.4,0,0,1,.19-.28.64.64,0,0,1,.33-.1h2.53a.64.64,0,0,1,.33.1.4.4,0,0,1,.19.28l4.57,13.11h1a.54.54,0,0,1,.56.52h0v1.17a.54.54,0,0,1-.52.56h-4.82a.54.54,0,0,1-.56-.52h0V208a.54.54,0,0,1,.52-.56h.85l-.91-2.85h-4.85l-1,2.85Zm2.25-9.56-1.48,4.36h3.48l-1.44-4.36a5.29,5.29,0,0,1-.28-1.19,11.9,11.9,0,0,1-.28,1.18Z" fill="#9f224e"/><path d="M718,204.4a.56.56,0,0,1-.56.56h-3.23v3.23a.56.56,0,0,1-.56.56h-1.78a.56.56,0,0,1-.56-.56V205H708a.56.56,0,0,1-.56-.56v-1.78a.56.56,0,0,1,.56-.56h3.24v-3.23a.56.56,0,0,1,.56-.56h1.78a.56.56,0,0,1,.56.56V202h3.23a.56.56,0,0,1,.56.56v1.78Zm-13.85,5a.43.43,0,0,1-.32.12h-3.72a.43.43,0,0,1-.31-.12.41.41,0,0,1-.12-.32v-.87a.42.42,0,0,1,.4-.44h.67l-.71-2.22h-3.77l-.37,1.11-1.36-2.72,2.22-6.38a.34.34,0,0,1,.15-.22.5.5,0,0,1,.26-.08h2a.5.5,0,0,1,.26.08.34.34,0,0,1,.15.22l3.56,10.2h.74a.42.42,0,0,1,.44.4h0v.92a.42.42,0,0,1-.2.3Zm-5.78-9.07a4.2,4.2,0,0,1-.22-.93c-.06.31-.13.62-.22.93l-1.15,3.39h2.71Zm-14,7.19a.54.54,0,0,1,.56.52h0v1.17a.54.54,0,0,1-.52.56h-4.82a.54.54,0,0,1-.56-.52h0v-1.16a.54.54,0,0,1,.52-.56h1l4.57-13.11a.4.4,0,0,1,.19-.28.57.57,0,0,1,.33-.11h2.53a.57.57,0,0,1,.33.11.4.4,0,0,1,.19.28l4.57,13.11h1a.54.54,0,0,1,.56.52h0v1.17a.54.54,0,0,1-.52.56h-4.9a.54.54,0,0,1-.56-.52h0V208.1a.54.54,0,0,1,.52-.56h.85l-.92-2.85h-4.85l-1,2.85Zm2.25-9.56-1.48,4.36h3.48L687.18,198a5.29,5.29,0,0,1-.28-1.19,9.15,9.15,0,0,1-.31,1.17Z" fill="#999"/><path d="M757,204.4a.56.56,0,0,1-.56.56h-3.23v3.23a.56.56,0,0,1-.56.56h-1.78a.56.56,0,0,1-.56-.56V205H747a.56.56,0,0,1-.56-.56v-1.78a.56.56,0,0,1,.56-.56h3.24v-3.23a.56.56,0,0,1,.56-.56h1.78a.56.56,0,0,1,.56.56V202h3.23a.56.56,0,0,1,.56.56v1.78Zm-13.85,5a.43.43,0,0,1-.32.12h-3.72a.43.43,0,0,1-.31-.12.41.41,0,0,1-.12-.32v-.87a.42.42,0,0,1,.4-.44h.67l-.71-2.22h-3.77l-.37,1.11-1.36-2.72,2.22-6.38a.34.34,0,0,1,.15-.22.5.5,0,0,1,.26-.08h2a.5.5,0,0,1,.26.08.34.34,0,0,1,.15.22l3.56,10.2h.74a.42.42,0,0,1,.44.4h0v.92a.42.42,0,0,1-.2.3Zm-5.78-9.07a4.2,4.2,0,0,1-.22-.93c-.06.31-.13.62-.22.93l-1.15,3.39h2.71Zm-14,7.19a.54.54,0,0,1,.56.52h0v1.17a.54.54,0,0,1-.52.56h-4.82a.54.54,0,0,1-.56-.52h0v-1.16a.54.54,0,0,1,.52-.56h1l4.57-13.11a.4.4,0,0,1,.19-.28.57.57,0,0,1,.33-.11h2.53a.57.57,0,0,1,.33.11.4.4,0,0,1,.19.28l4.57,13.11h1a.54.54,0,0,1,.56.52h0v1.17a.54.54,0,0,1-.52.56h-4.9a.54.54,0,0,1-.56-.52h0V208.1a.54.54,0,0,1,.52-.56h.85l-.92-2.85h-4.85l-1,2.85Zm2.25-9.56-1.48,4.36h3.48L726.18,198a5.29,5.29,0,0,1-.28-1.19,9.15,9.15,0,0,1-.31,1.17Z" fill="#9f224e"/><path d="M795.5,204.14a.56.56,0,0,1-.56.56H791.7v3.23a.56.56,0,0,1-.56.56h-1.78a.56.56,0,0,1-.56-.56V204.7h-3.24a.56.56,0,0,1-.56-.56v-1.78a.56.56,0,0,1,.56-.56h3.24v-3.23a.56.56,0,0,1,.56-.56h1.78a.56.56,0,0,1,.56.56v3.23h3.23a.56.56,0,0,1,.56.56v1.78Zm14,0a.56.56,0,0,1-.56.56H805.7v3.23a.56.56,0,0,1-.56.56h-1.78a.56.56,0,0,1-.56-.56V204.7h-3.24a.56.56,0,0,1-.56-.56v-1.78a.56.56,0,0,1,.56-.56h3.24v-3.23a.56.56,0,0,1,.56-.56h1.78a.56.56,0,0,1,.56.56v3.23h3.23a.56.56,0,0,1,.56.56v1.78Zm-27.38,5.24a.43.43,0,0,1-.32.12h-3.72a.43.43,0,0,1-.31-.12.41.41,0,0,1-.12-.32v-.87a.42.42,0,0,1,.4-.44h.67l-.71-2.22h-3.77l-.37,1.11-1.36-2.72,2.22-6.38a.34.34,0,0,1,.15-.22.5.5,0,0,1,.26-.08h2a.5.5,0,0,1,.26.08.34.34,0,0,1,.15.22l3.55,10.2h.74a.42.42,0,0,1,.44.4h0v.92A.4.4,0,0,1,782.12,209.38Zm-5.78-9.07a4.2,4.2,0,0,1-.22-.93c-.06.31-.13.62-.22.93l-1.15,3.39h2.71Zm-14,7.19a.54.54,0,0,1,.56.52h0v1.17a.54.54,0,0,1-.52.56h-4.82a.54.54,0,0,1-.56-.52h0v-1.16a.54.54,0,0,1,.52-.56h1l4.57-13.11a.4.4,0,0,1,.19-.28.57.57,0,0,1,.33-.11h2.53a.57.57,0,0,1,.33.11.4.4,0,0,1,.19.28l4.57,13.11h.95a.54.54,0,0,1,.56.52h0v1.17a.54.54,0,0,1-.52.56H767.4a.54.54,0,0,1-.56-.52h0v-1.16a.54.54,0,0,1,.52-.56h.85l-.91-2.85h-4.85l-1,2.85Zm2.25-9.56-1.48,4.36h3.48l-1.44-4.36a5.51,5.51,0,0,1-.28-1.2,9.52,9.52,0,0,1-.28,1.2Z" fill="#999" opacity="0.99" style="isolation:isolate"/><path d="M848.5,204.14a.56.56,0,0,1-.56.56H844.7v3.23a.56.56,0,0,1-.56.56h-1.78a.56.56,0,0,1-.56-.56V204.7h-3.24a.56.56,0,0,1-.56-.56v-1.78a.56.56,0,0,1,.56-.56h3.24v-3.23a.56.56,0,0,1,.56-.56h1.78a.56.56,0,0,1,.56.56v3.23h3.23a.56.56,0,0,1,.56.56v1.78Zm14,0a.56.56,0,0,1-.56.56H858.7v3.23a.56.56,0,0,1-.56.56h-1.78a.56.56,0,0,1-.56-.56V204.7h-3.24a.56.56,0,0,1-.56-.56v-1.78a.56.56,0,0,1,.56-.56h3.24v-3.23a.56.56,0,0,1,.56-.56h1.78a.56.56,0,0,1,.56.56v3.23h3.23a.56.56,0,0,1,.56.56v1.78Zm-27.38,5.24a.43.43,0,0,1-.32.12h-3.72a.43.43,0,0,1-.31-.12.41.41,0,0,1-.12-.32v-.87a.42.42,0,0,1,.4-.44h.67l-.71-2.22h-3.77l-.37,1.11-1.36-2.72,2.22-6.38a.34.34,0,0,1,.15-.22.5.5,0,0,1,.26-.08h2a.5.5,0,0,1,.26.08.34.34,0,0,1,.15.22l3.55,10.2h.74a.42.42,0,0,1,.44.4h0v.92A.4.4,0,0,1,835.12,209.38Zm-5.78-9.07a4.2,4.2,0,0,1-.22-.93c-.06.31-.13.62-.22.93l-1.15,3.39h2.71Zm-14,7.19a.54.54,0,0,1,.56.52h0v1.17a.54.54,0,0,1-.52.56h-4.82a.54.54,0,0,1-.56-.52h0v-1.16a.54.54,0,0,1,.52-.56h1l4.57-13.11a.4.4,0,0,1,.19-.28.57.57,0,0,1,.33-.11h2.53a.57.57,0,0,1,.33.11.4.4,0,0,1,.19.28l4.57,13.11h.95a.54.54,0,0,1,.56.52h0v1.17a.54.54,0,0,1-.52.56H820.4a.54.54,0,0,1-.56-.52h0v-1.16a.54.54,0,0,1,.52-.56h.85l-.91-2.85h-4.85l-1,2.85Zm2.25-9.56-1.48,4.36h3.48l-1.44-4.36a5.51,5.51,0,0,1-.28-1.2,9.52,9.52,0,0,1-.28,1.2Z" fill="#9f224e" opacity="0.99" style="isolation:isolate"/><path d="M87.09,272h-2v7.22H82.45V272H80.62v-2.48h1.83v-1.45a4.11,4.11,0,0,1,.61-2.46,2.71,2.71,0,0,1,2.3-.82h2v2.48H86.11a1,1,0,0,0-.82.23,1.38,1.38,0,0,0-.16.8v1.22h2.25Zm5.39-8.48A12,12,0,1,0,96,272,11.57,11.57,0,0,0,92.48,263.52Z" fill="#3b589c" opacity="0.75" style="isolation:isolate"/><path d="M138,269.33a1.21,1.21,0,0,1,0,.38,8.53,8.53,0,0,1-2.3,5.79,7.79,7.79,0,0,1-6.14,2.6,8.23,8.23,0,0,1-4.5-1.31,4.09,4.09,0,0,0,.7,0,5.8,5.8,0,0,0,3.66-1.27,3,3,0,0,1-1.73-.61,2.79,2.79,0,0,1-1-1.45,2.62,2.62,0,0,0,.56,0,3.57,3.57,0,0,0,.8-.09,3.15,3.15,0,0,1-1.71-1,2.78,2.78,0,0,1-.68-1.87h0a2.61,2.61,0,0,0,1.36.38,2.77,2.77,0,0,1-1.36-2.44,2.83,2.83,0,0,1,.42-1.5,8,8,0,0,0,6.09,3.09,2.74,2.74,0,0,1-.09-.7,3,3,0,0,1,3-3,2.79,2.79,0,0,1,2.16.94,5.28,5.28,0,0,0,1.88-.7,2.79,2.79,0,0,1-1.27,1.64,5.91,5.91,0,0,0,1.69-.47A6.64,6.64,0,0,1,138,269.33Zm2.53-5.81A12,12,0,1,0,144,272a11.56,11.56,0,0,0-3.51-8.48Z" fill="#55acee" opacity="0.75" style="isolation:isolate"/><path d="M36,260a12,12,0,1,0,12,12A12,12,0,0,0,36,260Zm4,6.86v11.73a.36.36,0,0,1-.3.41h-.11a.45.45,0,0,1-.33-.15l-3-3a.44.44,0,0,0-.29-.11.36.36,0,0,0-.26.11l-3.07,3.07a.38.38,0,0,1-.3.11.35.35,0,0,1-.41-.3.21.21,0,0,1,0-.11v-13a.51.51,0,0,1,.42-.59h7.13a.51.51,0,0,1,.56.45.33.33,0,0,1,0,.14v1.26ZM12,260a12,12,0,1,0,12,12A12,12,0,0,0,12,260Zm6.44,14.87H12.86L8.18,279.1v-4.23h-2V266.7H18.44v8.17Z" fill="#ccc"/><path d="M60,260a12,12,0,1,0,12,12A12,12,0,0,0,60,260Zm4,6.86v11.73a.35.35,0,0,1-.3.41h-.11a.45.45,0,0,1-.33-.15l-3-3a.44.44,0,0,0-.29-.11.36.36,0,0,0-.26.11l-3.07,3.07a.38.38,0,0,1-.3.11.36.36,0,0,1-.41-.3.21.21,0,0,1,0-.11v-13a.51.51,0,0,1,.42-.59h7.14a.51.51,0,0,1,.56.45.33.33,0,0,1,0,.14v1.26Z" fill="#004f8b"/><path d="M160.37,260a5.28,5.28,0,0,1-1.13,3.88,4.31,4.31,0,0,1-3.5,1.88h-.06a4.83,4.83,0,0,1,1.13-3.75A5,5,0,0,1,160.37,260Zm.5,5.63a5.48,5.48,0,0,1,4.44,2.44,5,5,0,0,0-2.44,3.06,5.42,5.42,0,0,0,.31,3.88,5,5,0,0,0,2.81,2.63,19.09,19.09,0,0,1-1.5,2.87q-2.25,3.5-4.07,3.5h-.06a4.44,4.44,0,0,1-1.78-.5,5.22,5.22,0,0,0-2.16-.5,5.15,5.15,0,0,0-2.22.5,4.44,4.44,0,0,1-1.78.5h-.06c-1.25,0-2.59-1.1-4-3.31a14.57,14.57,0,0,1-2.31-6.62,8.26,8.26,0,0,1,1-5.44,5.6,5.6,0,0,1,4.88-3,7.26,7.26,0,0,1,2.35.5,7.24,7.24,0,0,0,2.1.5,6.6,6.6,0,0,0,2-.5,7.34,7.34,0,0,1,2.49-.52Z"/><path d="M185,268l-14.29-7.92h0a1.2,1.2,0,0,0-1.59.58v0a1.16,1.16,0,0,0-.11.52v9.43l11.21,8Z" fill="#00f076"/><path d="M169.36,260.34l15.92,15.56L171,283.73a1.22,1.22,0,0,1-1.72-.16h0a1.22,1.22,0,0,1-.28-.77V261.2A1.22,1.22,0,0,1,169.36,260.34Z" fill="#00d5ff"/><path d="M169.36,260.34,183,273.66,172,282a12.55,12.55,0,0,1-1.78,2,1.21,1.21,0,0,1-1.22-1.2h0V261.2A1.22,1.22,0,0,1,169.36,260.34Z" fill="#00d5ff"/><path d="M184.17,276.51l6.06-3.32a1.21,1.21,0,0,0,.06-2.23h0l-5.1-2.83-4.36,4.27Z" fill="#ffd800"/><path d="M181.24,272l4,3.94L171,283.73a1.22,1.22,0,0,1-1.68-.1Z" fill="#fc3944"/><path d="M238,276.61h-1.87l-1.87-1.87v-1.87l1.88-1.87H238Zm-20-4.24a2.07,2.07,0,0,1,.72-1.59,2.42,2.42,0,0,1,1.66-.65h10.49a2.42,2.42,0,0,1,1.66.65,2.07,2.07,0,0,1,.72,1.59V277a2.12,2.12,0,0,1-.67,1.59,2.37,2.37,0,0,1-1.71.65H220.38a2.42,2.42,0,0,1-1.66-.65A2.07,2.07,0,0,1,218,277Zm8.63-5.88a2.63,2.63,0,0,1,.82-1.94,3,3,0,0,1,4.09,0,2.7,2.7,0,0,1,.09,3.8l-.09.09a3,3,0,0,1-4.09,0,2.63,2.63,0,0,1-.82-1.94Zm-7.64,0a2.6,2.6,0,0,1,.83-1.94,3,3,0,0,1,4.1,0,2.7,2.7,0,0,1,.09,3.8l-.09.09a3,3,0,0,1-4.1,0,2.6,2.6,0,0,1-.83-1.94Zm42.49-.13H242.3a.37.37,0,0,0-.2.12.31.31,0,0,0-.11.2v13a.31.31,0,0,0,.11.2.54.54,0,0,0,.2.1h19.36a.54.54,0,0,0,.2-.1.31.31,0,0,0,.11-.2V266.77a.67.67,0,0,0,0-.2.31.31,0,0,0-.11-.2.54.54,0,0,0-.2-.1h-.18v.09ZM248.42,264h-3.84a.37.37,0,0,0-.2.07.29.29,0,0,1-.18.07.32.32,0,0,0-.12.18.67.67,0,0,0,0,.2v1.31h4.75v-1.7a.39.39,0,0,0-.19-.12h-.22ZM252,278.7a5.46,5.46,0,0,1-1.07-.1,7.12,7.12,0,0,1-1-.29,4.25,4.25,0,0,1-.88-.5,7.47,7.47,0,0,1-.8-.69,7.28,7.28,0,0,1-.67-.8,3.86,3.86,0,0,1-.47-.9,5,5,0,0,1-.29-1,6.59,6.59,0,0,1-.09-1.09,4.79,4.79,0,0,1,.11-1,3.59,3.59,0,0,1,.39-1,5.14,5.14,0,0,1,.47-.9l.55-.82a7.47,7.47,0,0,1,.8-.69,3.76,3.76,0,0,1,.88-.48,4.43,4.43,0,0,1,1-.3,7,7,0,0,1,2.14,0l1,.16a4.25,4.25,0,0,1,.88.5,7.47,7.47,0,0,1,.8.69,7.28,7.28,0,0,1,.67.8,3.86,3.86,0,0,1,.47.9,5,5,0,0,1,.29,1,6.92,6.92,0,0,1,.09,1.11,6.59,6.59,0,0,1-.09,1.09,5,5,0,0,1-.29,1,3.86,3.86,0,0,1-.47.9,7.28,7.28,0,0,1-.67.8,7.47,7.47,0,0,1-.8.69,4.25,4.25,0,0,1-.88.5,7.12,7.12,0,0,1-1,.29,5.46,5.46,0,0,1-1.07.1h0Zm0-8.79a2.71,2.71,0,0,0-.69.08c-.21.05-.4.12-.59.18l-.56.41a1.72,1.72,0,0,0-.46.51,1.57,1.57,0,0,0-.49.47,2.55,2.55,0,0,0-.29.57,3.25,3.25,0,0,1-.16.61,3.36,3.36,0,0,0-.08.71,3,3,0,0,0,.08.66c.05.25.11.46.16.66l.39.57a2.5,2.5,0,0,0,.39.47,1.47,1.47,0,0,0,.46.5,2.73,2.73,0,0,0,.56.3l.59.16a2.72,2.72,0,0,0,1.33,0l.64-.16.56-.42a2,2,0,0,0,.46-.5,1.86,1.86,0,0,0,.49-.48,2.29,2.29,0,0,0,.29-.56l.16-.61a2.74,2.74,0,0,0,.08-.7,3,3,0,0,0-.08-.67c-.05-.24-.11-.45-.16-.65l-.39-.58a4.54,4.54,0,0,0-.39-.48,1.75,1.75,0,0,0-.46-.48,2.73,2.73,0,0,0-.56-.3,5.76,5.76,0,0,0-.59-.18,2.71,2.71,0,0,0-.69-.08h0Zm32.09-3.56a.32.32,0,0,0,.18.12h.5a.32.32,0,0,0,.2-.12.35.35,0,0,0,.12-.23V263.5a.49.49,0,0,0,0-.17.11.11,0,0,0-.12-.08.14.14,0,0,1-.12-.06.14.14,0,0,0-.12-.06H282.2a.48.48,0,0,0-.31.08l-.21.17a.36.36,0,0,0-.11.25v.23a.27.27,0,0,0,.08.19l.16.2a.52.52,0,0,0,.26.1h.77l-4.3,4.72L273,263.74a1.23,1.23,0,0,0-.37-.12h-.19a.31.31,0,0,0-.19.11l-5.94,5.34a1.14,1.14,0,0,0-.18.25.73.73,0,0,0-.08.25.59.59,0,0,0,.07.29.48.48,0,0,1,.07.2.9.9,0,0,0,.26.17.68.68,0,0,0,.24.08.61.61,0,0,0,.26-.08.9.9,0,0,0,.26-.17l5.43-5,5.68,5.48a.48.48,0,0,1,.14.25h.24l.13-.12H279a.68.68,0,0,1,.26-.12l4.68-5.23v.51a.51.51,0,0,0,.08.29.81.81,0,0,0,.18.19Zm-16,14.44.13-.13.13-.13v-7a.29.29,0,0,0,0-.13l-.12-.13-.13-.12h-1.64l-.13.12a.69.69,0,0,0-.11.13.29.29,0,0,0,0,.13v7a.29.29,0,0,0,0,.13,1.36,1.36,0,0,0,.24.24H268v-.12Zm3.09-.13a.12.12,0,0,0,.07-.13v-9.08a.29.29,0,0,0,0-.13l-.12-.13a.32.32,0,0,0-.12-.11H269.3a.69.69,0,0,0-.13.11l-.1.13a.29.29,0,0,0,0,.13v9.08a.29.29,0,0,0,0,.13l.1.13a.69.69,0,0,0,.13.11h1.53a.14.14,0,0,0,.12-.06.14.14,0,0,1,.12-.06.12.12,0,0,1,.07-.12Zm2.85.13.1-.13a.29.29,0,0,0,0-.13v-11.7a.24.24,0,0,0,0-.12l-.1-.12-.13-.12a.29.29,0,0,0-.13,0h-1.64l-.12.13a.29.29,0,0,0,0,.13v11.82a.29.29,0,0,0,0,.13l.12.13a.32.32,0,0,0,.12.11h1.65a.69.69,0,0,0,.13-.11Zm3-.13.12-.13v-8.82a.29.29,0,0,0,0-.13l-.12-.13-.13-.12h-1.64l-.13.12a.69.69,0,0,0-.11.13.29.29,0,0,0,0,.13v8.82a.29.29,0,0,0,0,.13,1.36,1.36,0,0,0,.24.24h1.64a.69.69,0,0,0,.13-.11A.29.29,0,0,1,277,280.66Zm3,0a.29.29,0,0,0,0-.13v-7a.29.29,0,0,0,0-.13l-.12-.13a.34.34,0,0,0-.12-.12h-1.65l-.13.12-.1.13a.29.29,0,0,0,0,.13v7a.29.29,0,0,0,0,.13l.1.13a.69.69,0,0,0,.13.11h1.65a.32.32,0,0,0,.12-.11Zm2.94,0,.1-.13V271.2a.32.32,0,0,0-.11-.12l-.13-.12h-1.64l-.13.12a.25.25,0,0,0-.11.12v9.33a.29.29,0,0,0,0,.13,1.36,1.36,0,0,0,.24.24h1.64a.69.69,0,0,0,.13-.11.29.29,0,0,1,0-.13Zm3,0a.29.29,0,0,0,0-.13V269.71a.29.29,0,0,0,0-.13l-.12-.13-.13-.1a.29.29,0,0,0-.13,0h-1.38a.53.53,0,0,0-.37.25.29.29,0,0,0,0,.13v10.83a.29.29,0,0,0,0,.13,1.36,1.36,0,0,0,.24.24h1.64a.69.69,0,0,0,.13-.11Zm-87.06-13a.35.35,0,0,1-.32.11.44.44,0,0,1-.3-.15,4.21,4.21,0,0,1-.72-1.27,4.4,4.4,0,0,1-.25-1.44A4.06,4.06,0,0,1,198.5,262a3.89,3.89,0,0,1,5.5-.15h0l.15.15a4.08,4.08,0,0,1,1.17,2.94,4.44,4.44,0,0,1-.95,2.71.57.57,0,0,1-.16.11h-.34a.49.49,0,0,1-.3-.42.41.41,0,0,1,.12-.33,3.46,3.46,0,0,0,.54-1,3.24,3.24,0,0,0,.19-1.11,3.15,3.15,0,0,0-.91-2.28,3,3,0,0,0-4.24-.13.8.8,0,0,0-.13.13,3.18,3.18,0,0,0-.9,2.28,3.49,3.49,0,0,0,.18,1.11,3,3,0,0,0,.55,1,.38.38,0,0,1,.11.33.47.47,0,0,1-.17.33h0Zm.28-2.76a2.2,2.2,0,0,1,.62-1.58,2,2,0,0,1,1.52-.66,2,2,0,0,1,1.5.66,2.2,2.2,0,0,1,.62,1.58,1.82,1.82,0,0,1,0,.33.51.51,0,0,1-.07.31,2.06,2.06,0,0,0-.75-1.12,2.19,2.19,0,0,0-2.6,0,2,2,0,0,0-.75,1.09,1.27,1.27,0,0,1-.06-.28,1.61,1.61,0,0,1,0-.31Zm10.73,9.19a5.8,5.8,0,0,1-.19,2.65,13.79,13.79,0,0,1-1.65,3.33v.09l-.17,2.82a.18.18,0,0,1-.17.17h-6.63a.14.14,0,0,1-.09,0,.16.16,0,0,1-.06-.08l-4.72-9.41a1.17,1.17,0,0,1,0-1.38,1.36,1.36,0,0,1,1.1-.61,1.08,1.08,0,0,1,.55.15,1.38,1.38,0,0,1,.48.48l.6,1a.66.66,0,0,0,.21.23.54.54,0,0,0,.28.08.54.54,0,0,0,.4-.17A.63.63,0,0,0,200,273v-6.7a1.16,1.16,0,0,1,.4-1,1.27,1.27,0,0,1,1.71,0,1.18,1.18,0,0,1,.39,1v3.81a.17.17,0,0,0,.07.13.2.2,0,0,0,.15,0h.06l.32-.09a1.72,1.72,0,0,1,1.18.16,1.69,1.69,0,0,1,.71.74l.09.07h.16l.33-.1a1.78,1.78,0,0,1,1.18.11,1.75,1.75,0,0,1,.7.65.49.49,0,0,0,.18.2.43.43,0,0,0,.25.07,2.87,2.87,0,0,1,1.13.39,2.17,2.17,0,0,1,.91,1.68h0Z" fill="#333"/><path d="M288,283.68v-.53a5.45,5.45,0,0,1,.25-1.06,2.77,2.77,0,0,1,.64-1.13,5,5,0,0,1,1.59-.86c.79-.31,1.69-.65,2.69-1a19.65,19.65,0,0,0,2.2-.86,3.12,3.12,0,0,0,1.36-1.26,3.34,3.34,0,0,0,.49-1.74,2.34,2.34,0,0,0-.76-1.45,6.48,6.48,0,0,1-1.24-2.33,10.88,10.88,0,0,1-.48-3.4,7.31,7.31,0,0,1,.42-2.58,4.74,4.74,0,0,1,1.15-1.81,5,5,0,0,1,1.66-1,5.85,5.85,0,0,1,4,0,5,5,0,0,1,1.66,1,4.62,4.62,0,0,1,1.16,1.81,7.31,7.31,0,0,1,.42,2.58,11.17,11.17,0,0,1-.47,3.4,6.3,6.3,0,0,1-1.23,2.33,2.41,2.41,0,0,0-.77,1.45,3.3,3.3,0,0,0,.49,1.73,3.23,3.23,0,0,0,1.37,1.27,19.65,19.65,0,0,0,2.2.86c1,.35,1.89.68,2.67,1a5.06,5.06,0,0,1,1.58.86,2.53,2.53,0,0,1,.64,1.08,4.14,4.14,0,0,1,.25,1.16v.47ZM0,195H18v2H0Zm0,5H18v2H0Zm0,5H18v2H0Zm18-10H36v2H18Zm0,5H36v2H18Zm0,5H36v2H18Z" fill="#ccc"/><path d="M36,210v-.4a4.33,4.33,0,0,1,.19-.79,2,2,0,0,1,.48-.85,3.92,3.92,0,0,1,1.19-.64c.59-.23,1.26-.48,2-.74a14.48,14.48,0,0,0,1.65-.65,2.39,2.39,0,0,0,1-.94,2.57,2.57,0,0,0,.36-1.3,1.76,1.76,0,0,0-.57-1.09,4.7,4.7,0,0,1-.93-1.75A8.51,8.51,0,0,1,41,198.3a5.51,5.51,0,0,1,.32-1.93A3.44,3.44,0,0,1,42.2,195a3.68,3.68,0,0,1,1.25-.77A4.08,4.08,0,0,1,45,194a4,4,0,0,1,1.49.26,3.8,3.8,0,0,1,1.24.77,3.49,3.49,0,0,1,.87,1.36,5.51,5.51,0,0,1,.32,1.93,8.49,8.49,0,0,1-.35,2.55,4.7,4.7,0,0,1-.93,1.75,1.84,1.84,0,0,0-.57,1.09,2.48,2.48,0,0,0,.37,1.3,2.41,2.41,0,0,0,1,1,14.48,14.48,0,0,0,1.65.65c.75.26,1.41.51,2,.74a3.76,3.76,0,0,1,1.18.64,2,2,0,0,1,.48.81,3.22,3.22,0,0,1,.19.87v.35Z" fill="#333"/><path d="M611,210v-.4a4.33,4.33,0,0,1,.19-.79,2,2,0,0,1,.48-.85,3.92,3.92,0,0,1,1.19-.64c.59-.23,1.26-.48,2-.74a14.48,14.48,0,0,0,1.65-.65,2.3,2.3,0,0,0,1-1,2.57,2.57,0,0,0,.36-1.3,1.76,1.76,0,0,0-.57-1.09,4.7,4.7,0,0,1-.93-1.75,8.5,8.5,0,0,1-.36-2.55,5.51,5.51,0,0,1,.32-1.93,3.49,3.49,0,0,1,.87-1.36,3.68,3.68,0,0,1,1.25-.77A4.08,4.08,0,0,1,620,194a4,4,0,0,1,1.49.26,3.8,3.8,0,0,1,1.24.77,3.49,3.49,0,0,1,.87,1.36,5.51,5.51,0,0,1,.32,1.93,8.49,8.49,0,0,1-.35,2.55,4.7,4.7,0,0,1-.93,1.75,1.84,1.84,0,0,0-.57,1.09,2.48,2.48,0,0,0,.37,1.3,2.3,2.3,0,0,0,1,1,14.48,14.48,0,0,0,1.65.65c.75.26,1.41.51,2,.74a3.76,3.76,0,0,1,1.18.64,2,2,0,0,1,.48.81,3.22,3.22,0,0,1,.19.87v.36Z" fill="#ccc"/><polygon points="90.01 208.21 88.21 210.01 81 202.8 73.79 210.01 71.99 208.21 79.2 201 71.99 193.79 73.79 191.99 81 199.2 88.21 191.99 90.01 193.79 82.8 201 90.01 208.21" fill="#212121"/><polygon points="107.99 193.82 100.8 201 107.99 208.18 106.18 209.99 98.99 202.81 91.8 209.99 89.99 208.18 97.17 201 89.98 193.82 91.8 192.01 98.99 199.19 106.18 192.01 107.99 193.82" fill="#004f8b"/><path d="M54,210v-.4a4.33,4.33,0,0,1,.19-.79,2,2,0,0,1,.48-.85,3.92,3.92,0,0,1,1.19-.64c.59-.23,1.26-.48,2-.74a14.48,14.48,0,0,0,1.65-.65,2.39,2.39,0,0,0,1-.94,2.57,2.57,0,0,0,.36-1.3,1.76,1.76,0,0,0-.57-1.09,4.7,4.7,0,0,1-.93-1.75A8.51,8.51,0,0,1,59,198.3a5.51,5.51,0,0,1,.32-1.93A3.44,3.44,0,0,1,60.2,195a3.68,3.68,0,0,1,1.25-.77A4.08,4.08,0,0,1,63,194a4,4,0,0,1,1.49.26,3.8,3.8,0,0,1,1.24.77,3.49,3.49,0,0,1,.87,1.36,5.51,5.51,0,0,1,.32,1.93,8.49,8.49,0,0,1-.35,2.55,4.7,4.7,0,0,1-.93,1.75,1.84,1.84,0,0,0-.57,1.09,2.48,2.48,0,0,0,.37,1.3,2.41,2.41,0,0,0,1,1,14.48,14.48,0,0,0,1.65.65c.75.26,1.41.51,2,.74a3.76,3.76,0,0,1,1.18.64,2,2,0,0,1,.48.81,3.22,3.22,0,0,1,.19.87v.35Z" fill="#004f8b"/><path d="M143,191.93a1,1,0,0,1,.71.29.9.9,0,0,1,.32.68v16a.9.9,0,0,1-.32.68,1,1,0,0,1-.71.29h-4.59V203h2.34l.34-2.74h-2.68V198.5a1.19,1.19,0,0,1,1-1.33h1.74v-2.4a11.36,11.36,0,0,0-2.1-.15,3.37,3.37,0,0,0-2.51,1,3.57,3.57,0,0,0-1,2.67v2H133.2V203h2.35v7H127a1,1,0,0,1-1-1V193a1,1,0,0,1,1-1Z" fill="#3b589c"/><path d="M161.71,197.6v-1.43h-2.83v-2.85h-1.37v2.85h-2.88v1.43h2.88v2.85h1.37V197.6Zm-1-5.6a1.22,1.22,0,0,1,.9.37,1.25,1.25,0,0,1,.37.91v15.44a1.25,1.25,0,0,1-.37.91,1.22,1.22,0,0,1-.9.37h-7.07a4.33,4.33,0,0,0,.15-1.13,4,4,0,0,0-.63-2.26A8.61,8.61,0,0,0,151.7,205l-.93-.74a5.12,5.12,0,0,1-.44-.49,1.22,1.22,0,0,1-.24-.69,1.49,1.49,0,0,1,.24-.79l.44-.59.37-.3a5.58,5.58,0,0,0,.46-.39,4.75,4.75,0,0,0,.63-.79,4.19,4.19,0,0,0,.63-2.36,6.32,6.32,0,0,0-.2-1.43,4.22,4.22,0,0,0-.49-1,5.6,5.6,0,0,0-.59-.79,4.31,4.31,0,0,0-.59-.44h1.66l1.71-1H149a14.07,14.07,0,0,0-2.34.25,5.87,5.87,0,0,0-2.39,1.23l-.12.15L144,195v-1.72a1.2,1.2,0,0,1,.39-.91,1.26,1.26,0,0,1,.88-.37Zm-11.57,14.31a15,15,0,0,1,2.24,1.82,2.66,2.66,0,0,1,.68,1.82V210h-6.83a1.26,1.26,0,0,1-.88-.37,1.2,1.2,0,0,1-.39-.91V208a5.75,5.75,0,0,1,.44-.54,3.53,3.53,0,0,1,.78-.49l.29-.12.29-.12,1.71-.34h1.65Zm-.73-.79a17.45,17.45,0,0,0-2.39.25,8.8,8.8,0,0,0-2,.64v-4.87a4.07,4.07,0,0,0,3,1.13,6.46,6.46,0,0,0,.88,0l-.15.44a2,2,0,0,0-.1.64,2,2,0,0,0,.24,1,5.15,5.15,0,0,0,.55.77Zm-1.66-4.13a4.25,4.25,0,0,1-1.07-1.28,6.35,6.35,0,0,1-.83-3,3.62,3.62,0,0,1,.59-2.07,2.27,2.27,0,0,1,1.8-.88,2.56,2.56,0,0,1,1.46.49,3.48,3.48,0,0,1,1,1.28,7.43,7.43,0,0,1,.83,3.3,6.46,6.46,0,0,1,0,.88,2.09,2.09,0,0,1-2.24,1.87,2.34,2.34,0,0,1-1.51-.59Z" fill="#da5542"/><path d="M177.36,194.64,180,192v7.89h-7.92l3.64-3.63a6.68,6.68,0,1,0-.79,10.22,6.41,6.41,0,0,0,2.43-3.23h2.32a8.65,8.65,0,0,1-3.17,4.84A8.74,8.74,0,0,1,171,210a9,9,0,1,1,6.39-15.35Z" fill="#333"/><polygon points="198.02 199.89 198.02 202.1 184.32 202.1 190.59 208.41 189.01 210 180 201 189.01 192 190.65 193.58 184.32 199.89 198.02 199.89 198.02 199.89" fill="#333"/><polygon points="164 68.13 164 69.85 153.36 69.85 158.23 74.75 157 75.98 150 68.99 157 62 158.27 63.23 153.36 68.13 164 68.13 164 68.13" fill="#666"/><polygon points="197.99 199.89 197.99 202.1 211.69 202.1 205.42 208.41 207 210 216.01 201 207 192 205.37 193.58 211.69 199.89 197.99 199.89 197.99 199.89" fill="#333"/><polygon points="223.89 210.01 226.1 210.01 226.1 196.31 232.41 202.58 234 201 225 191.99 216 201 217.58 202.63 223.89 196.31 223.89 210.01 223.89 210.01" fill="#333"/><polygon points="241.89 191.99 244.1 191.99 244.1 205.69 250.41 199.42 252 201 243 210.01 234 201 235.58 199.37 241.89 205.69 241.89 191.99 241.89 191.99" fill="#333"/><path d="M262.64,209.44A2.55,2.55,0,0,1,261,210a2.47,2.47,0,0,1-1.64-.59,2.08,2.08,0,0,1-.8-1.43h4.88A2.21,2.21,0,0,1,262.64,209.44Zm4.27-9.84a14.32,14.32,0,0,0,.07,1.8c.07.53.09,1,.14,1.38a3.76,3.76,0,0,0,.33,1.13,6.38,6.38,0,0,1,.33.82,2,2,0,0,0,.49.7l.47.51a8.14,8.14,0,0,0,.63.54l.63.52H252a5.17,5.17,0,0,1,.51-.42,6.12,6.12,0,0,0,.49-.4l.42-.42a2.79,2.79,0,0,0,.42-.49l.35-.54a2.72,2.72,0,0,0,.33-.66l.24-.8a5.69,5.69,0,0,0,.19-1,8.08,8.08,0,0,1,.09-1.2,6.11,6.11,0,0,0,0-1.48q0-5.67,4.78-6.47V193a1,1,0,0,1,.33-.73,1.18,1.18,0,0,1,1.59,0,1,1,0,0,1,.33.73v.09c3.23.49,4.85,2.66,4.84,6.5Z" fill="#ccc"/><path d="M280.64,209.44A2.55,2.55,0,0,1,279,210a2.47,2.47,0,0,1-1.64-.59,2.08,2.08,0,0,1-.8-1.43h4.88A2.21,2.21,0,0,1,280.64,209.44Zm4.27-9.84a14.32,14.32,0,0,0,.07,1.8c.07.53.09,1,.14,1.38a3.76,3.76,0,0,0,.33,1.13,6.38,6.38,0,0,1,.33.82,2,2,0,0,0,.49.7l.47.51a8.14,8.14,0,0,0,.63.54l.63.52H270a5.3,5.3,0,0,1,.52-.42,6.12,6.12,0,0,0,.49-.4l.42-.42a2.79,2.79,0,0,0,.42-.49l.35-.54a2.72,2.72,0,0,0,.33-.66c.06-.2.14-.47.23-.8a5.69,5.69,0,0,0,.19-1,8.08,8.08,0,0,1,.09-1.2,6.11,6.11,0,0,0,0-1.48q0-5.67,4.78-6.47V193a1,1,0,0,1,.33-.73,1.18,1.18,0,0,1,1.59,0,1,1,0,0,1,.33.73v.09c3.23.49,4.85,2.66,4.84,6.5Z" fill="#9f224e"/><path d="M304.21,192a1.81,1.81,0,0,1,1.77,1.77V204.6a1.79,1.79,0,0,1-.53,1.27,1.68,1.68,0,0,1-1.24.55h-10.8a1.88,1.88,0,0,1-1.81-1.82V193.77a1.69,1.69,0,0,1,.55-1.25,1.77,1.77,0,0,1,1.27-.53h10.79Zm-7.68,6.76v-.93a1.37,1.37,0,0,0-1.35-1.35h-2.24v5.41h1.35v-1.78h.89a1.37,1.37,0,0,0,1.35-1.35Zm4.51,1.77v-2.7a1.34,1.34,0,0,0-.38-1,1.29,1.29,0,0,0-1-.4h-2.24v5.41h2.24a1.29,1.29,0,0,0,1-.4,1.34,1.34,0,0,0,.38-1Zm3.59-2.7v-1.35h-2.7v5.41h1.35v-1.78h1.35v-1.36h-1.35v-.93h1.35Zm-10.34.93v-.93h.89v.93Zm-4.52-3.17v12.64H302.4V210H289.78a1.81,1.81,0,0,1-1.77-1.77V195.59Zm9,4.94v-2.7h.89v2.7Z" fill="#999"/><path d="M370.33,196.9a1.5,1.5,0,0,1,.19-.88,1.24,1.24,0,0,1,1-.26H373V193h-2.33a3.33,3.33,0,0,0-2.72.91,4.33,4.33,0,0,0-.72,2.73v1.61H365V201h2.17v8h3.17v-8h2.33l.34-2.75h-2.67V196.9Z" fill="#3b5999"/><path d="M386.28,202.19a2.53,2.53,0,0,1-1.32-1.51,1.2,1.2,0,0,1,.2-.71,4.62,4.62,0,0,1,.78-.75,3.16,3.16,0,0,0,1.42-2.58,3.59,3.59,0,0,0-.44-1.78,2.3,2.3,0,0,0-1.17-1.09h1.57l1.13-.78h-5a4.64,4.64,0,0,0-3,1.1,3.25,3.25,0,0,0-1.32,2.55,3.42,3.42,0,0,0,1.08,2.55,3.75,3.75,0,0,0,2.74,1,1.62,1.62,0,0,0,.44,0,2.18,2.18,0,0,0-.24.93,2,2,0,0,0,.68,1.41H383a5.55,5.55,0,0,0-3.45,1.1,3.09,3.09,0,0,0-1.44,2.46,2.39,2.39,0,0,0,1.49,2.12,7.66,7.66,0,0,0,3.64.8,5.5,5.5,0,0,0,3.57-1.07,3.11,3.11,0,0,0,1.32-2.48,3.69,3.69,0,0,0-.39-1.82A4.81,4.81,0,0,0,386.28,202.19Zm-2.67-2.46a2.4,2.4,0,0,1-1.76-.95,4.07,4.07,0,0,1-1-2.16,2.89,2.89,0,0,1,.39-2.09,1.69,1.69,0,0,1,1.54-.83,2.44,2.44,0,0,1,1.79.9,3.68,3.68,0,0,1,1,2.14,3.1,3.1,0,0,1-.44,2.14,1.6,1.6,0,0,1-1.52.86Zm-.51,8.49a3.51,3.51,0,0,1-2.35-.78,2.39,2.39,0,0,1-.93-1.9,2.2,2.2,0,0,1,1.1-1.8,4.29,4.29,0,0,1,2.52-.78,4.21,4.21,0,0,1,1.27.2,2.82,2.82,0,0,0,.39.29l.42.29.32.24a2.17,2.17,0,0,1,.29.24l.24.27a1.4,1.4,0,0,1,.22.32.59.59,0,0,1,.07.29,1.66,1.66,0,0,1,.1.54q0,2.58-3.66,2.59Zm9.78-13.82h-1.57v3.11h-3.13v1.6h3.13v3.07h1.57v-3.07H396v-1.6h-3.13Z" fill="#dd4b39"/><path d="M412.53,195.26a6,6,0,0,1-2.08.78,3.07,3.07,0,0,0-2.4-1,3.29,3.29,0,0,0-3.28,3.28,2.94,2.94,0,0,0,.11.78,9,9,0,0,1-6.77-3.43,3.13,3.13,0,0,0-.47,1.66,3.07,3.07,0,0,0,1.51,2.7,2.87,2.87,0,0,1-1.51-.42h0a3.12,3.12,0,0,0,.76,2.08,3.44,3.44,0,0,0,1.9,1.14,3.8,3.8,0,0,1-.89.1,3.21,3.21,0,0,1-.62,0,3.11,3.11,0,0,0,1.15,1.61,3.37,3.37,0,0,0,1.93.68,6.51,6.51,0,0,1-4.06,1.4,6.81,6.81,0,0,1-.78-.05,9.24,9.24,0,0,0,5,1.47,8.66,8.66,0,0,0,6.83-2.89,9.46,9.46,0,0,0,2.55-6.42,2,2,0,0,0-.05-.42,6.83,6.83,0,0,0,1.67-1.72,6.49,6.49,0,0,1-1.88.52A3.1,3.1,0,0,0,412.53,195.26Z" fill="#55acee"/><path d="M349.91,199.73a2.22,2.22,0,0,0,.32-1.55,2.64,2.64,0,0,0-.68-1.55,1.78,1.78,0,0,0-1.28-.65,1.23,1.23,0,0,0-1.11.6,2.11,2.11,0,0,0-.28,1.51,2.93,2.93,0,0,0,.7,1.56,1.73,1.73,0,0,0,1.27.69A1.17,1.17,0,0,0,349.91,199.73Zm-.28,3.09a3.09,3.09,0,0,0-.91-.14,3,3,0,0,0-1.81.56,1.59,1.59,0,0,0-.79,1.3,1.74,1.74,0,0,0,.67,1.37,2.59,2.59,0,0,0,1.69.56q2.64,0,2.64-1.86a1.34,1.34,0,0,0-.07-.39A.54.54,0,0,0,351,204a1.19,1.19,0,0,0-.16-.23l-.18-.19-.21-.18-.23-.18-.3-.21a1.75,1.75,0,0,1-.29-.18Zm8.12-2.92H355.5v2.21h-1.12V199.9h-2.25v-1.16h2.25V196.5h1.13v2.25h2.25ZM348.5,207a5.4,5.4,0,0,1-2.62-.58,1.75,1.75,0,0,1-1.07-1.53,2.22,2.22,0,0,1,1-1.77,4,4,0,0,1,2.48-.79H349a1.42,1.42,0,0,1-.49-1,1.45,1.45,0,0,1,.17-.67h-.32a2.7,2.7,0,0,1-2-.76,2.48,2.48,0,0,1-.77-1.85,2.32,2.32,0,0,1,1-1.85,3.29,3.29,0,0,1,2.18-.79h3.58l-.81.56h-1.12a1.58,1.58,0,0,1,.84.79,2.7,2.7,0,0,1,.32,1.28,2.27,2.27,0,0,1-1,1.86,3.58,3.58,0,0,0-.56.54.84.84,0,0,0-.14.51,1.83,1.83,0,0,0,.95,1.09,3.4,3.4,0,0,1,1,1,2.73,2.73,0,0,1,.28,1.32,2.27,2.27,0,0,1-.95,1.79,4,4,0,0,1-2.57.77h0Zm8.86-12.41A9,9,0,1,0,360,201a8.65,8.65,0,0,0-2.64-6.36Z" fill="#da5542" opacity="0.75" style="isolation:isolate"/><path d="M317.32,201h-1.48v5.41h-2V201h-1.37v-1.86h1.37V198a3,3,0,0,1,.46-1.85,2,2,0,0,1,1.72-.62h1.48v1.86h-.92a.76.76,0,0,0-.61.18,1,1,0,0,0-.12.6v.91h1.69Zm4-6.36A9,9,0,1,0,324,201a8.65,8.65,0,0,0-2.64-6.36Z" fill="#3b589c" opacity="0.75" style="isolation:isolate"/><path d="M337.46,199a1.31,1.31,0,0,1,0,.28,6.42,6.42,0,0,1-1.72,4.34,5.84,5.84,0,0,1-4.61,2,6.18,6.18,0,0,1-3.37-1h.53a4.41,4.41,0,0,0,2.74-1,2.36,2.36,0,0,1-1.3-.46,2.07,2.07,0,0,1-.77-1.09h.42a2.46,2.46,0,0,0,.6-.07,2.33,2.33,0,0,1-1.28-.77,2.08,2.08,0,0,1-.51-1.41h0a2,2,0,0,0,1,.28,2.07,2.07,0,0,1-1-1.83,2.11,2.11,0,0,1,.32-1.12,6,6,0,0,0,4.57,2.32A1.85,1.85,0,0,1,333,199a2.22,2.22,0,0,1,2.21-2.21,2.08,2.08,0,0,1,1.62.7,4.15,4.15,0,0,0,1.41-.53,2.11,2.11,0,0,1-1,1.23,4.28,4.28,0,0,0,1.27-.35A4.83,4.83,0,0,1,337.46,199Zm1.9-4.36A9,9,0,1,0,342,201,8.65,8.65,0,0,0,339.36,194.64Z" fill="#55acee" opacity="0.75" style="isolation:isolate"/><path d="M120.88,203.34l5.12,5.12L124.45,210l-5.11-5.12v-.82l-.29-.29a6.42,6.42,0,0,1-4.34,1.59,6.5,6.5,0,0,1-4.75-1.93,6.4,6.4,0,0,1-2-4.73,6.67,6.67,0,0,1,6.63-6.71h.07a6.4,6.4,0,0,1,4.73,2,6.5,6.5,0,0,1,1.93,4.75,6.42,6.42,0,0,1-1.59,4.34l.29.29h.82Zm-6.18,0a4.63,4.63,0,1,0-3.28-1.35A4.49,4.49,0,0,0,114.7,203.34Z" fill="#999"/><path d="M875.88,203.34l5.12,5.12L879.45,210l-5.11-5.12v-.82l-.29-.29a6.42,6.42,0,0,1-4.34,1.59,6.5,6.5,0,0,1-4.75-1.93,6.4,6.4,0,0,1-2-4.73,6.67,6.67,0,0,1,6.63-6.71h.07a6.4,6.4,0,0,1,4.73,2,6.5,6.5,0,0,1,1.93,4.75,6.42,6.42,0,0,1-1.59,4.34l.29.29h.82Zm-6.18,0a4.63,4.63,0,1,0-3.28-1.35A4.49,4.49,0,0,0,869.7,203.34Z" fill="#fff"/><path d="M417.29,194.29v13.43h11.43v-2.29H421v-3.14h3.14v-2.57H421v-3.14h7.71v-2.29ZM430.14,192H415.86a.88.88,0,0,0-.86.86v16.28a.88.88,0,0,0,.86.86h14.29a.88.88,0,0,0,.86-.86V192.86a.88.88,0,0,0-.86-.86Zm-.57,4.6a.76.76,0,0,1-.68.83h-7v1.43h2.37a.82.82,0,0,1,.77.87h0v2.59a.76.76,0,0,1-.68.83h-2.47v1.43h6.94a.82.82,0,0,1,.77.87h0v2.31a.76.76,0,0,1-.68.83H417.39a.91.91,0,0,1-.94-.83V194.32a1,1,0,0,1,.94-.89H428.8a.82.82,0,0,1,.77.87h0v2.3Z" fill="#9f224e"/><polygon points="539.01 199.89 539.01 202.1 525.31 202.1 531.58 208.41 530 210 520.99 201 530 192 531.63 193.58 525.31 199.89 539.01 199.89 539.01 199.89" fill="#fff"/><polygon points="538.99 199.89 538.99 202.1 552.69 202.1 546.42 208.41 548 210 557.01 201 548 192 546.37 193.58 552.69 199.89 538.99 199.89 538.99 199.89" fill="#fff"/><polygon points="567.11 210.01 564.9 210.01 564.9 196.31 558.59 202.58 557 201 566 191.99 575 201 573.42 202.63 567.11 196.31 567.11 210.01 567.11 210.01" fill="#fff"/><polygon points="585.11 191.99 582.9 191.99 582.9 205.69 576.59 199.42 575 201 584 210.01 593 201 591.42 199.37 585.11 205.69 585.11 191.99 585.11 191.99" fill="#fff"/><polygon points="521.01 208.21 519.21 210.01 512 202.8 504.79 210.01 502.99 208.21 510.2 201 502.99 193.79 504.79 191.99 512 199.2 519.21 191.99 521.01 193.79 513.8 201 521.01 208.21" fill="#fff"/><path d="M493.8,192.72a7.78,7.78,0,0,0-2.49.41,7,7,0,0,0-2.14,1.19,5.82,5.82,0,0,0-1.51,1.87,5.42,5.42,0,0,0-.57,2.5,6.56,6.56,0,0,0,.43,2.19,2.29,2.29,0,0,0,1.34,1.52h.2a.56.56,0,0,0,.4-.54,4.27,4.27,0,0,0,.15-.71,1.5,1.5,0,0,0-.38-.74,2.44,2.44,0,0,1-.38-1.51,4.49,4.49,0,0,1,.36-1.85,4.28,4.28,0,0,1,1-1.45,4.23,4.23,0,0,1,1.5-.92,4.84,4.84,0,0,1,1.85-.28,4.43,4.43,0,0,1,1.53.26,3.61,3.61,0,0,1,1.22.73,3.22,3.22,0,0,1,.8,1.16,4.06,4.06,0,0,1,.29,1.58,10.87,10.87,0,0,1-.14,1.5,6.86,6.86,0,0,1-.48,1.66,3.91,3.91,0,0,1-.92,1.35,2,2,0,0,1-1.43.55,1.59,1.59,0,0,1-1.1-.4,1.37,1.37,0,0,1-.45-1.08,4.28,4.28,0,0,1,.45-1.86,4.61,4.61,0,0,0,.45-2,1.54,1.54,0,0,0-.38-1,1.18,1.18,0,0,0-.94-.43,1.46,1.46,0,0,0-1.29.74,2.8,2.8,0,0,0-.47,1.51v.88a1.6,1.6,0,0,0,.3.81l-.39,1.6c-.15.6-.29,1.21-.43,1.84s-.26,1.24-.35,1.85a11.65,11.65,0,0,0-.15,1.67v1a5.55,5.55,0,0,0,.09,1l.12.12h.1a9.15,9.15,0,0,0,1.48-2.57c.17-.59.44-1.65.81-3.17a2.28,2.28,0,0,0,1,.92,2.89,2.89,0,0,0,1.32.32,4.2,4.2,0,0,0,2.27-.6,4.94,4.94,0,0,0,1.57-1.55,6.83,6.83,0,0,0,.91-2.13,10,10,0,0,0,.29-2.37,5.25,5.25,0,0,0-1.8-4A5.88,5.88,0,0,0,496,193.1a6.45,6.45,0,0,0-2.22-.39Zm-17.29,3h2.64v-3.37h-2.64a3.57,3.57,0,0,0-.8.09,2.7,2.7,0,0,0-.72.26,3.39,3.39,0,0,0-.65.41,3.54,3.54,0,0,0-.57.59,2.91,2.91,0,0,0-.52.69c-.13.25-.25.51-.36.77a2.92,2.92,0,0,0-.25.81,5.14,5.14,0,0,0-.08.88v1.69h-2.64v3.38h2.64V210h3.29v-8.21h3.29v-3.37h-3.29v-1.69a.8.8,0,0,1,.07-.34,1.87,1.87,0,0,1,.15-.32.49.49,0,0,1,.21-.26.43.43,0,0,1,.22-.09h0Z" fill="#fff"/><path d="M458.9,193a7.94,7.94,0,0,0-2.56.42,7.22,7.22,0,0,0-2.21,1.21,6,6,0,0,0-1.55,1.91,5.4,5.4,0,0,0-.58,2.56,6.55,6.55,0,0,0,.44,2.23,2.4,2.4,0,0,0,1.38,1.55H454a.57.57,0,0,0,.42-.55,3.06,3.06,0,0,0,.15-.73,1.55,1.55,0,0,0-.39-.75,2.54,2.54,0,0,1-.39-1.54,4.64,4.64,0,0,1,.37-1.88,4.4,4.4,0,0,1,1-1.48,4.74,4.74,0,0,1,1.55-.94,5,5,0,0,1,1.91-.29,4.66,4.66,0,0,1,1.57.26,3.6,3.6,0,0,1,1.25.74,3.37,3.37,0,0,1,.83,1.18,4.09,4.09,0,0,1,.3,1.62,9.89,9.89,0,0,1-.14,1.53,6.65,6.65,0,0,1-.5,1.7,4.07,4.07,0,0,1-.95,1.37,2,2,0,0,1-1.47.57,1.67,1.67,0,0,1-1.13-.4,1.39,1.39,0,0,1-.46-1.1,4.47,4.47,0,0,1,.46-1.9,4.61,4.61,0,0,0,.46-2,1.48,1.48,0,0,0-.39-1,1.28,1.28,0,0,0-1-.44,1.5,1.5,0,0,0-1.33.75,2.81,2.81,0,0,0-.49,1.54v.9a1.62,1.62,0,0,0,.31.82l-.41,1.63c-.15.61-.3,1.24-.44,1.88s-.26,1.27-.36,1.89a9.68,9.68,0,0,0-.15,1.7v1a6.64,6.64,0,0,0,.1,1l.12.13h.2a9.63,9.63,0,0,0,1.53-2.63q.25-.92.84-3.24a2.33,2.33,0,0,0,1,.94,2.94,2.94,0,0,0,1.36.33,4.38,4.38,0,0,0,2.34-.61,5.2,5.2,0,0,0,1.62-1.58,7,7,0,0,0,.94-2.18,9.82,9.82,0,0,0,.3-2.41,5.31,5.31,0,0,0-1.85-4.11,6.19,6.19,0,0,0-2-1.13,6.9,6.9,0,0,0-2.29-.4Zm-17.48,2.43H444V192h-2.57a3.48,3.48,0,0,0-.79.09,3,3,0,0,0-.7.27,2.72,2.72,0,0,0-.64.42,3.47,3.47,0,0,0-.55.6,2.88,2.88,0,0,0-.5.7,7.91,7.91,0,0,0-.35.79,3,3,0,0,0-.24.82,5.47,5.47,0,0,0-.08.9v1.72H435v3.44h2.57V210h3.21v-8.37H444v-3.44h-3.21v-1.72a1,1,0,0,1,.07-.35c0-.11.1-.22.15-.33a.6.6,0,0,1,.2-.27.43.43,0,0,1,.22-.09Zm154.44,3a1.14,1.14,0,1,1,1.14-1.14h0a1.15,1.15,0,0,1-.34.8A1.06,1.06,0,0,1,595.86,198.43Zm10.34,3.19-6.38-6.37a3.16,3.16,0,0,0-2-.81h-3.71a1.15,1.15,0,0,0-1.14,1.14v3.71a2.87,2.87,0,0,0,.24,1,2.68,2.68,0,0,0,.58.9l6.38,6.39a1.06,1.06,0,0,0,.8.33,1.18,1.18,0,0,0,.81-.33l4.38-4.39a1.06,1.06,0,0,0,.33-.8,1.18,1.18,0,0,0-.33-.81Zm3.43,0-6.38-6.37a3.16,3.16,0,0,0-2-.81h-2a3.16,3.16,0,0,1,2,.81l6.38,6.38a1.18,1.18,0,0,1,.33.81,1.06,1.06,0,0,1-.33.8l-4.2,4.2a2.55,2.55,0,0,0,.47.4,1,1,0,0,0,.53.13,1.18,1.18,0,0,0,.81-.33l4.38-4.39a1.06,1.06,0,0,0,.33-.8,1.18,1.18,0,0,0-.33-.81Z" fill="#999"/><polygon points="3.01 126.95 4.21 126 13.99 134 4.21 142 3.01 141.05 11.59 134 3.01 126.95" fill="#ccc"/><polygon points="29.99 126.95 28.79 126 19.01 134 28.79 142 29.99 141.05 21.41 134 29.99 126.95" fill="#ccc"/><polygon points="47.05 138.99 48 137.79 40 128.01 32 137.79 32.95 138.99 40 130.41 47.05 138.99" fill="#ccc"/><polygon points="63.05 128.01 64 129.21 56 138.99 48 129.21 48.95 128.01 56 136.59 63.05 128.01" fill="#ccc"/><path d="M91.38,126a.59.59,0,0,1,.63.51v15a.41.41,0,0,1-.11.35.42.42,0,0,1-.34.12.48.48,0,0,1-.37-.17l-3.34-3.47a.46.46,0,0,0-.33-.13.39.39,0,0,0-.29.13l-3.43,3.51a.46.46,0,0,1-.33.13.42.42,0,0,1-.45-.36.21.21,0,0,1,0-.11V126.68a.57.57,0,0,1,.45-.67h0a.49.49,0,0,1,.17,0h7.74Z" fill="#ccc"/><polygon points="64 126 64 136.55 66.64 136.55 66.64 142 72.72 136.54 80 136.54 80 126 64 126" fill="#ccc"/><path d="M107.38,126a.59.59,0,0,1,.63.51v15a.41.41,0,0,1-.11.35.42.42,0,0,1-.34.12.48.48,0,0,1-.37-.17l-3.34-3.47a.46.46,0,0,0-.33-.13.39.39,0,0,0-.29.13l-3.43,3.51a.46.46,0,0,1-.33.13.42.42,0,0,1-.45-.36.21.21,0,0,1,0-.11V126.68a.57.57,0,0,1,.45-.67h0a.49.49,0,0,1,.17,0h7.74Z" fill="#004f8b"/><path d="M125.14,130.07a2.29,2.29,0,0,0,.33-.79.9.9,0,0,1-.49.3l-1,.3a1.76,1.76,0,0,0-.38-.39,1.4,1.4,0,0,0-.44-.22l-.41-.09a1.48,1.48,0,0,0-.42,0h-.39a2.15,2.15,0,0,0-.5.12c-.23.12-.43.23-.62.35a1.53,1.53,0,0,0-.44.4,4.48,4.48,0,0,0-.28.47,1.85,1.85,0,0,0-.16.52,2.08,2.08,0,0,0-.07.5v.62a9.2,9.2,0,0,1-1.17-.08,2.9,2.9,0,0,1-1-.3l-.85-.46c-.26-.15-.51-.3-.73-.45a3.38,3.38,0,0,1-.64-.55l-.64-.73a6.34,6.34,0,0,0-.26.73,1.3,1.3,0,0,0,0,.62,2,2,0,0,0,.08.59,1.83,1.83,0,0,0,.14.47,2.83,2.83,0,0,0,.32.45l.43.46a1.41,1.41,0,0,1-.41-.07c-.22-.07-.43-.15-.64-.24a3,3,0,0,0,.07.66,1.52,1.52,0,0,0,.23.54l.33.44a2.61,2.61,0,0,0,.27.31,2,2,0,0,0,.43.33,4.53,4.53,0,0,0,.54.27h-1a4.16,4.16,0,0,0,.24.47,1.64,1.64,0,0,0,.29.35,2.92,2.92,0,0,0,.38.32,1.41,1.41,0,0,0,.38.21,3.66,3.66,0,0,0,.46.18,4.37,4.37,0,0,0,.52.12,5.75,5.75,0,0,1-.64.46,3.07,3.07,0,0,1-.64.29l-.59.22a1.4,1.4,0,0,0-.3.15,3.43,3.43,0,0,1-.56.07h-.56a5.64,5.64,0,0,0,.63.46,4.51,4.51,0,0,0,.63.29q.3.1.6.18l.6.12a3.43,3.43,0,0,0,.56.07h1.08a2.32,2.32,0,0,0,.46-.07c.33-.07.67-.15,1-.24a3.61,3.61,0,0,0,.89-.36l.73-.41a5.11,5.11,0,0,0,.62-.41,6.66,6.66,0,0,0,.56-.5c.19-.19.38-.4.56-.62a7.85,7.85,0,0,0,.61-1,6.35,6.35,0,0,0,.44-.91c.07-.31.14-.59.21-.85s.12-.5.16-.73a4.64,4.64,0,0,0,.07-.64v-.49a.62.62,0,0,1,0-.33.14.14,0,0,1,.1-.11,2.5,2.5,0,0,0,.39-.34c.19-.19.43-.45.74-.79a1.9,1.9,0,0,1-.57.18l-.79.12A2.18,2.18,0,0,0,125.14,130.07Zm12,5.69a4.32,4.32,0,0,0-.72-.76l-.72-.56a.74.74,0,0,1-.33-.59,1.24,1.24,0,0,1,.79-1,1.77,1.77,0,0,0,.79-1.72,2.08,2.08,0,0,0-.26-1.12,3.51,3.51,0,0,0-.71-.83h.9l.9-.68H135a4.7,4.7,0,0,0-1.44.22,3.63,3.63,0,0,0-1.27.68,3.26,3.26,0,0,0-.64.88,2.3,2.3,0,0,0-.25,1.06,2.21,2.21,0,0,0,1.42,2.08,2.52,2.52,0,0,0,.9.17h.46a1.71,1.71,0,0,1-.09.3.71.71,0,0,0,0,.29.86.86,0,0,0,.16.51,1.49,1.49,0,0,0,.44.39,10.4,10.4,0,0,0-1.41.17,3.19,3.19,0,0,0-2.11,1.3,1.77,1.77,0,0,0-.31,1,2,2,0,0,0,.06.49,1.12,1.12,0,0,0,.18.42,1.89,1.89,0,0,0,1.21,1,5.39,5.39,0,0,0,1.55.23,5.55,5.55,0,0,0,1-.08,4.37,4.37,0,0,0,.94-.26,3.27,3.27,0,0,0,.83-.48,2.56,2.56,0,0,0,.63-.76,2.66,2.66,0,0,0,.21-.53,2,2,0,0,0,.09-.59,1.92,1.92,0,0,0-.39-1.18Zm-1.3,2.94a3.14,3.14,0,0,1-1.44.33,3.85,3.85,0,0,1-.83-.1,2.91,2.91,0,0,1-.8-.32,1.92,1.92,0,0,1-.61-.56,1.41,1.41,0,0,1-.24-.82,1.33,1.33,0,0,1,.26-.84,1.82,1.82,0,0,1,.67-.53,3,3,0,0,1,.88-.28,5.47,5.47,0,0,1,.9-.08H135c.35.26.68.54,1,.83a1.39,1.39,0,0,1,.53,1.12,1.26,1.26,0,0,1-.66,1.24Zm-.9-5.61a1.44,1.44,0,0,1-.54.1,1.25,1.25,0,0,1-.79-.26,2,2,0,0,1-.56-.64,3.37,3.37,0,0,1-.45-1.64,2.33,2.33,0,0,1,.08-.59,1.13,1.13,0,0,1,.3-.53,1.51,1.51,0,0,1,.43-.32,1.14,1.14,0,0,1,.54-.14,1.2,1.2,0,0,1,.79.29,2.37,2.37,0,0,1,.56.7,3.83,3.83,0,0,1,.45,1.72,2,2,0,0,1-.08.55,1.12,1.12,0,0,1-.3.49,1.37,1.37,0,0,1-.44.28Zm4.93.1v-1.42h-.68v1.42h-1.42v.75h1.42v1.5h.67v-1.5h1.42v-.75Zm12.83-2.46h1.65v-2.06H152.7a2.94,2.94,0,0,0-.51.05,1.72,1.72,0,0,0-.45.16,2.14,2.14,0,0,0-.41.25,2.38,2.38,0,0,0-.35.36,1.87,1.87,0,0,0-.32.42,4.09,4.09,0,0,0-.23.47,1.66,1.66,0,0,0-.16.49,2.44,2.44,0,0,0,0,.54v1h-1.65v2.06h1.65v5h2.06v-5h2.06v-2.06h-2.06v-1a.74.74,0,0,1,0-.21l.1-.2a.29.29,0,0,1,.13-.16.24.24,0,0,1,.14-.05Z" fill="#fff"/><path d="M174.82,133.68l-12.16-7.62a.47.47,0,0,0-.43,0,.38.38,0,0,0-.22.34v15.24a.38.38,0,0,0,.22.34.67.67,0,0,0,.2,0,.4.4,0,0,0,.24-.07l12.16-7.62a.36.36,0,0,0,.14-.49h0a.32.32,0,0,0-.14-.14ZM186,126h4v16h-4Zm-8,0h4v16h-4Z" fill="#333"/><path d="M207.11,131.82c-2,1.33-3.44,2.36-4.45,3.08l-.83.59a5.55,5.55,0,0,1-.84.43,2.69,2.69,0,0,1-1,.22h0a2.69,2.69,0,0,1-1-.22,5.55,5.55,0,0,1-.84-.43l-.83-.59c-.8-.59-2.28-1.61-4.44-3.08a4.76,4.76,0,0,1-.9-.78v7.09a1.43,1.43,0,0,0,1.43,1.43h13.14a1.43,1.43,0,0,0,1.43-1.43V131A5.19,5.19,0,0,1,207.11,131.82Zm.47-4.41a1.38,1.38,0,0,0-1-.42H193.43a1.27,1.27,0,0,0-1.06.46,1.74,1.74,0,0,0-.37,1.16,2.09,2.09,0,0,0,.49,1.22,4.74,4.74,0,0,0,1,1l1.83,1.27,2.34,1.63.38.27.48.34.46.29a2.38,2.38,0,0,0,.51.24,1.38,1.38,0,0,0,.45.08h0a1.38,1.38,0,0,0,.45-.08,2.38,2.38,0,0,0,.51-.24l.46-.29.48-.34.38-.27,4.18-2.9a4.22,4.22,0,0,0,1.09-1.1,2.34,2.34,0,0,0,.44-1.35A1.38,1.38,0,0,0,207.58,127.41Z" fill="#ccc"/><path d="M304,139h-1.5l-1.5-1.45V136.1l1.5-1.45H304Zm-16-3.27a1.58,1.58,0,0,1,.58-1.23,2,2,0,0,1,1.33-.51h8.39a2,2,0,0,1,1.33.51,1.58,1.58,0,0,1,.58,1.23v3.58a1.6,1.6,0,0,1-.54,1.23,1.92,1.92,0,0,1-1.37.51h-8.39a2,2,0,0,1-1.33-.51,1.58,1.58,0,0,1-.58-1.23v-3.58Zm6.91-4.54a2,2,0,0,1,.66-1.5,2.46,2.46,0,0,1,3.27,0,2,2,0,0,1,.18,2.82c-.06.07-.12.12-.18.18a2.46,2.46,0,0,1-3.27,0,2,2,0,0,1-.66-1.49Zm-6.11,0a2,2,0,0,1,.66-1.5,2.45,2.45,0,0,1,3.28,0,2,2,0,0,1,.18,2.82c-.06.07-.12.12-.18.18a2.45,2.45,0,0,1-3.28,0,2,2,0,0,1-.66-1.49Z" fill="#666"/><path d="M319.6,130.79H304.26a.32.32,0,0,0-.16.09.24.24,0,0,0-.09.15v9.76a.24.24,0,0,0,.09.15.35.35,0,0,0,.16.08h15.48a.35.35,0,0,0,.16-.08.25.25,0,0,0,.1-.15V131a.24.24,0,0,0-.09-.15.35.35,0,0,0-.16-.08h-.14v0ZM309.12,129H306a.3.3,0,0,0-.16.05h-.14a.21.21,0,0,0-.1.14.38.38,0,0,0,0,.15v1h3.8v-1.28a.38.38,0,0,0-.15-.09h-.15ZM312,140a4.91,4.91,0,0,1-.86-.08,5.28,5.28,0,0,1-.78-.21,3.72,3.72,0,0,1-.71-.38,6.32,6.32,0,0,1-.64-.52,5,5,0,0,1-.54-.6,2.68,2.68,0,0,1-.38-.68,3.34,3.34,0,0,1-.23-.76,4.54,4.54,0,0,1-.07-.82,3.06,3.06,0,0,1,.09-.74,2.53,2.53,0,0,1,.31-.74,3.48,3.48,0,0,1,.38-.68l.44-.62a6.32,6.32,0,0,1,.64-.52,3.16,3.16,0,0,1,.71-.36,4.1,4.1,0,0,1,.78-.22A4.91,4.91,0,0,1,312,132a6.11,6.11,0,0,1,.86.06l.78.12a3.72,3.72,0,0,1,.71.38,6.32,6.32,0,0,1,.64.52,5,5,0,0,1,.54.6,2.68,2.68,0,0,1,.38.68,3.83,3.83,0,0,1,.23.75,4.57,4.57,0,0,1,0,1.65,3.34,3.34,0,0,1-.23.76,2.68,2.68,0,0,1-.38.68,5,5,0,0,1-.54.6,6.32,6.32,0,0,1-.64.52,3.72,3.72,0,0,1-.71.38,5.28,5.28,0,0,1-.78.21,4.19,4.19,0,0,1-.86.15Zm0-6.61a2.57,2.57,0,0,0-.55.06l-.47.14-.45.31a1.34,1.34,0,0,0-.37.38,1.44,1.44,0,0,0-.39.35,2.22,2.22,0,0,0-.23.43l-.13.45a2.33,2.33,0,0,0-.06.53,2,2,0,0,0,.06.49,1.37,1.37,0,0,0,.13.49l.31.43a1.73,1.73,0,0,0,.31.35,1.22,1.22,0,0,0,.37.38,1.88,1.88,0,0,0,.45.22l.47.12a2.57,2.57,0,0,0,.55.06,2.22,2.22,0,0,0,.51-.06l.51-.12.45-.32a1.34,1.34,0,0,0,.37-.38,1.67,1.67,0,0,0,.39-.36,1.72,1.72,0,0,0,.23-.42l.13-.46a2.24,2.24,0,0,0,.06-.52,2.07,2.07,0,0,0-.06-.5,3.92,3.92,0,0,0-.13-.49l-.31-.44a2.67,2.67,0,0,0-.31-.36,1.27,1.27,0,0,0-.37-.36,1.88,1.88,0,0,0-.45-.22l-.47-.14a1.69,1.69,0,0,0-.55,0Z" fill="#666"/><path d="M1,63H13v8H1ZM3,75V71H7.67Z" fill="#9f224e"/><path d="M75.86,63a6.19,6.19,0,0,1,3.26,3.26,6,6,0,0,1,0,4.71,6.19,6.19,0,0,1-3.26,3.26,6,6,0,0,1-4.71,0A6.2,6.2,0,0,1,67.89,71a6,6,0,0,1,0-4.71A6.17,6.17,0,0,1,71.15,63,6,6,0,0,1,75.86,63Zm-.69,3.43a1.12,1.12,0,0,0-.37.89,1.22,1.22,0,0,0,.34.85,1.14,1.14,0,0,0,.88.37,1.2,1.2,0,0,0,.86-.34,1.17,1.17,0,0,0,.36-.88,1.19,1.19,0,0,0-.33-.86A1.12,1.12,0,0,0,76,66a1.22,1.22,0,0,0-.84.38Zm-5.11,0a1.12,1.12,0,0,0-.37.89,1.08,1.08,0,0,0,.41.88,1.36,1.36,0,0,0,.9.34,1.22,1.22,0,0,0,.85-.34,1.14,1.14,0,0,0,.37-.88,1.24,1.24,0,0,0-.34-.86A1.14,1.14,0,0,0,71,66a1.34,1.34,0,0,0-1,.38Zm5.21,5.9a4.28,4.28,0,0,0,1.29-.71,3.57,3.57,0,0,0,.86-1,2.35,2.35,0,0,0,.32-1.18H69.6a2.45,2.45,0,0,0,.31,1.18,3.31,3.31,0,0,0,.86,1,4.28,4.28,0,0,0,1.29.71,4.85,4.85,0,0,0,3.19,0ZM28.16,63,25.4,65.4a.2.2,0,0,1-.06.14l-.12.14-.14.13L25,66H22.82a.5.5,0,0,0-.27.08.75.75,0,0,0-.26.27.45.45,0,0,0-.21.2.8.8,0,0,0-.07.34v3.2a.52.52,0,0,0,.07.27,1.39,1.39,0,0,0,.21.27.44.44,0,0,0,.19.19.75.75,0,0,0,.33.07H25a.2.2,0,0,0,.09.13.2.2,0,0,1,.09.13.16.16,0,0,0,.06.13l.13.13,2.76,2.49a1.05,1.05,0,0,0,.39.27.44.44,0,0,0,.32,0,.43.43,0,0,0,.2-.26,1.24,1.24,0,0,0,.06-.47v-10A1.34,1.34,0,0,0,29,63a.43.43,0,0,0-.2-.26.44.44,0,0,0-.32,0,1.05,1.05,0,0,0-.39.27Zm2.67,2.84a.25.25,0,0,0-.16.14.33.33,0,0,0,0,.14.48.48,0,0,0-.07.2.21.21,0,0,0,.07.15l.25.49a1.1,1.1,0,0,1,.11.5,2.42,2.42,0,0,0,.13.53,2.33,2.33,0,0,1,.06.53,2.48,2.48,0,0,1-.06.54l-.12.53a2.08,2.08,0,0,1-.19.49c-.08.15-.17.32-.25.5V71a.2.2,0,0,0,.06.14l.13.13H31a.33.33,0,0,0,.14,0,.38.38,0,0,0,.25-.13.09.09,0,0,0,.06-.09,5.36,5.36,0,0,0,.34-.62,2.8,2.8,0,0,0,.2-.62q0-.3.12-.6a3.49,3.49,0,0,0,.06-.65,2.88,2.88,0,0,0-.06-.59L32,67.31a3.75,3.75,0,0,0-.2-.65,2.59,2.59,0,0,0-.34-.58L31.29,66a.2.2,0,0,0-.14-.06H31a.33.33,0,0,0-.13.07Zm2.31-.71A.15.15,0,0,0,33,65a.42.42,0,0,1-.17-.1.38.38,0,0,0-.15,0,1.22,1.22,0,0,1-.33.45.2.2,0,0,0-.06.14v.18a.21.21,0,0,0,.08.17,4.37,4.37,0,0,1,.35.68c.09.23.19.48.28.75a2.17,2.17,0,0,1,.13.76,4.87,4.87,0,0,1,.06.76v.75a2.71,2.71,0,0,1-.16.75c-.09.27-.19.52-.28.75a4.37,4.37,0,0,1-.35.68.25.25,0,0,0-.08.18V72a.2.2,0,0,0,.06.14l.13.14h.16a.33.33,0,0,0,.14,0H33a.31.31,0,0,1,.11-.09.09.09,0,0,0,.06-.09,3.49,3.49,0,0,0,.43-.81c.1-.28.2-.57.29-.88a6.72,6.72,0,0,0,.26-1.78,5.82,5.82,0,0,0-.07-.93,6.28,6.28,0,0,0-.19-.86A9.06,9.06,0,0,0,33.6,66a3.56,3.56,0,0,0-.43-.82Zm1.34-2a.16.16,0,0,0-.08-.1h-.3a.26.26,0,0,0-.15.07l-.12.14a.2.2,0,0,0-.06.14v.17a.3.3,0,0,0,.08.18,11.05,11.05,0,0,1,.6,1.13,10.23,10.23,0,0,1,.46,1.2,6,6,0,0,1,.28,1.25,10.37,10.37,0,0,1,0,2.49,6,6,0,0,1-.28,1.25c-.13.4-.29.8-.46,1.19a8,8,0,0,1-.6,1.12.3.3,0,0,0-.08.18v.18a.16.16,0,0,0,.06.13L34,74a.1.1,0,0,0,.08.1h.1a.32.32,0,0,1,.18-.1l.08-.1.08-.09a6.58,6.58,0,0,0,.68-1.25,12.29,12.29,0,0,0,.49-1.32A8.13,8.13,0,0,0,36,69.85c0-.42.07-.84.08-1.26A13.33,13.33,0,0,0,36,67.18a7.69,7.69,0,0,0-.27-1.35,12.29,12.29,0,0,0-.49-1.32,8.6,8.6,0,0,0-.68-1.27h0ZM52,72.08H50.69l-1.31-1.31V69.46l1.31-1.31H52v3.94Zm-14-3A1.45,1.45,0,0,1,38.51,68a1.67,1.67,0,0,1,1.16-.46H47a1.67,1.67,0,0,1,1.16.46,1.44,1.44,0,0,1,.51,1.11v3.24a1.5,1.5,0,0,1-.47,1.11,1.62,1.62,0,0,1-1.2.46H39.67a1.67,1.67,0,0,1-1.16-.46A1.44,1.44,0,0,1,38,72.35ZM44,65a1.84,1.84,0,0,1,.57-1.36,2.1,2.1,0,0,1,2.86,0,1.88,1.88,0,0,1,.06,2.66h0l-.06.06a2.1,2.1,0,0,1-2.86,0A1.84,1.84,0,0,1,44,65Zm-5.3,0a1.79,1.79,0,0,1,.58-1.36,2.09,2.09,0,0,1,2.87,0,1.88,1.88,0,0,1,.06,2.66h0l-.06.06a2.09,2.09,0,0,1-2.87,0A1.84,1.84,0,0,1,38.7,65Z" fill="#999"/><path d="M65.65,64.63H52.22a.29.29,0,0,0-.14.08.22.22,0,0,0-.08.13v8.92a.29.29,0,0,0,.08.14.37.37,0,0,0,.14.07H65.78a.37.37,0,0,0,.14-.07.29.29,0,0,0,.08-.14v-9a.29.29,0,0,0-.08-.14.37.37,0,0,0-.14-.07h-.13v.08ZM56.49,63h-3a.22.22,0,0,0-.08.13v1h3.33v-1a.22.22,0,0,0-.13-.08h-.13ZM59,73.09a3.81,3.81,0,0,1-.75-.07,5.31,5.31,0,0,1-.68-.2,2.87,2.87,0,0,1-.62-.34,4.22,4.22,0,0,1-.56-.47,4.13,4.13,0,0,1-.47-.55,2.46,2.46,0,0,1-.33-.62,3.22,3.22,0,0,1-.2-.69,4.52,4.52,0,0,1-.06-.74,3,3,0,0,1,.08-.67,2.77,2.77,0,0,1,.27-.67,3.55,3.55,0,0,1,.32-.61l.39-.56a4.22,4.22,0,0,1,.56-.47,2.46,2.46,0,0,1,.62-.33,3.31,3.31,0,0,1,.68-.2,3.81,3.81,0,0,1,.75-.07,4.74,4.74,0,0,1,.75.06l.68.11a2.87,2.87,0,0,1,.62.34,4.22,4.22,0,0,1,.56.47,4.13,4.13,0,0,1,.47.55,2.46,2.46,0,0,1,.33.62,3.22,3.22,0,0,1,.2.69,4.87,4.87,0,0,1,.06.76,4.52,4.52,0,0,1-.06.74,3.22,3.22,0,0,1-.2.69,2.46,2.46,0,0,1-.33.62,4.13,4.13,0,0,1-.47.55,4.22,4.22,0,0,1-.56.47,2.87,2.87,0,0,1-.62.34,5.31,5.31,0,0,1-.68.2,3.81,3.81,0,0,1-.75.07Zm0-6a2,2,0,0,0-.48.06l-.41.13-.39.28a1.07,1.07,0,0,0-.32.35,1,1,0,0,0-.34.32,1.79,1.79,0,0,0-.2.39l-.11.41a2,2,0,0,0-.06.48,4.28,4.28,0,0,0,.17.9l.27.39a2.08,2.08,0,0,0,.27.32,1,1,0,0,0,.32.34,1.79,1.79,0,0,0,.39.2l.41.11a2,2,0,0,0,.48.06,1.74,1.74,0,0,0,.45-.06l.45-.11.39-.29a1.3,1.3,0,0,0,.32-.34A1.37,1.37,0,0,0,61,70.7a1.79,1.79,0,0,0,.2-.39l.11-.42a2,2,0,0,0,.06-.48,1.76,1.76,0,0,0-.06-.46,2.18,2.18,0,0,0-.11-.44l-.27-.4a2.16,2.16,0,0,0-.27-.33,1.12,1.12,0,0,0-.32-.33,1.79,1.79,0,0,0-.39-.2l-.41-.13a2,2,0,0,0-.49-.06Z" fill="#999"/><path d="M82,71H80v5h5V74H82Zm-2-4h2V64h3V62H80Zm9-5v2h3v3h2V62Zm3,12H89v2h5V71H92Z" fill="#fff"/><path d="M109,74.17V68.3h2.54v5.87Zm3.53-5.87a3.8,3.8,0,0,0,2-1.66,2,2,0,0,0,.12-.84,3.72,3.72,0,0,0-.08-1c-.08-.3-.11-.77-.2-1.27a1,1,0,0,1,1-.49,1.41,1.41,0,0,1,1,.58,1.73,1.73,0,0,1,.39,1.07,1.83,1.83,0,0,1,0,.66,1,1,0,0,0-.12.41,6.74,6.74,0,0,0-.08,1h3.7A2.27,2.27,0,0,1,121,68a1.56,1.56,0,0,1-.17,1.06,1,1,0,0,0-.24.43.6.6,0,0,0,.12.32.82.82,0,0,1,.12.43,1,1,0,0,1-.24.72.6.6,0,0,0-.24.36.32.32,0,0,0,.09.32.87.87,0,0,1-.21,1.19c-.24.13-.34.26-.3.38a.51.51,0,0,0,.12.23.69.69,0,0,1,0,.35,1.73,1.73,0,0,1-.91,1.24H114.3a2,2,0,0,1-.74-.83h-1.07V68.3Z" fill="#999"/><path d="M95,74.17h2.55V68.3H95Zm3.2-5.87a3.79,3.79,0,0,0,2.29-1.66,2.39,2.39,0,0,0,.14-.84v-1c0-.3-.06-.77-.12-1.27a1,1,0,0,1,1-.49,1.46,1.46,0,0,1,1,.55,1.66,1.66,0,0,1,.39,1.11,1.85,1.85,0,0,1-.05.66,1,1,0,0,0-.12.41,6.74,6.74,0,0,0-.08,1h3.6A2.26,2.26,0,0,1,107,68a1.4,1.4,0,0,1-.17,1,.79.79,0,0,0-.24.46.6.6,0,0,0,.12.32.82.82,0,0,1,.12.43,1,1,0,0,1-.22.72,1.36,1.36,0,0,0-.27.36.32.32,0,0,0,.09.32.74.74,0,0,1,.15.5.76.76,0,0,1-.33.69.36.36,0,0,0-.33.39.37.37,0,0,0,.1.22.69.69,0,0,1,0,.35,1.72,1.72,0,0,1-.9,1.24h-4.84a2,2,0,0,1-.73-.83H98.21V68.3Z" fill="#9f224e"/><path d="M48,0H60V12H48Zm9.72,5.62H54.37V2.26h-.74V5.63H50.26v.74h3.37V9.74h.74V6.37h3.37V5.63ZM60,0H72V12H60Zm9.72,5.62H62.26v.74h7.47V5.63Z" fill="#ccc"/><polygon points="5.73 8.9 6.27 8.9 6.27 8.37 6.8 8.37 6.8 7.83 7.33 7.83 7.33 7.3 7.87 7.3 7.87 6.77 8.4 6.77 8.4 6.23 8.93 6.23 8.93 5.7 9.47 5.7 9.47 5.17 10 5.17 10 4.1 9.47 4.1 9.47 4.63 8.93 4.63 8.93 5.17 8.4 5.17 8.4 5.7 7.87 5.7 7.87 6.23 7.33 6.23 7.33 6.77 6.8 6.77 6.8 7.3 6.27 7.3 6.27 7.83 5.73 7.83 5.73 7.3 5.2 7.3 5.2 6.77 4.67 6.77 4.67 6.23 4.13 6.23 4.13 5.7 3.6 5.7 3.6 5.17 3.07 5.17 3.07 4.63 2.53 4.63 2.53 4.1 2 4.1 2 5.17 2.53 5.17 2.53 5.7 3.07 5.7 3.07 6.23 3.6 6.23 3.6 6.77 4.13 6.77 4.13 7.3 4.67 7.3 4.67 7.83 5.2 7.83 5.2 8.37 5.73 8.37 5.73 8.9" fill="#666"/><polygon points="17.73 4 18.27 4 18.27 4.55 18.8 4.55 18.8 5.11 19.33 5.11 19.33 5.67 19.87 5.67 19.87 6.22 20.4 6.22 20.4 6.78 20.93 6.78 20.93 7.33 21.47 7.33 21.47 7.89 22 7.89 22 9 21.47 9 21.47 8.44 20.93 8.44 20.93 7.89 20.4 7.89 20.4 7.33 19.87 7.33 19.87 6.78 19.33 6.78 19.33 6.22 18.8 6.22 18.8 5.67 18.27 5.67 18.27 5.11 17.73 5.11 17.73 5.67 17.2 5.67 17.2 6.22 16.67 6.22 16.67 6.78 16.13 6.78 16.13 7.33 15.6 7.33 15.6 7.89 15.07 7.89 15.07 8.44 14.53 8.44 14.53 9 14 9 14 7.89 14.53 7.89 14.53 7.33 15.07 7.33 15.07 6.78 15.6 6.78 15.6 6.22 16.13 6.22 16.13 5.67 16.67 5.67 16.67 5.11 17.2 5.11 17.2 4.55 17.73 4.55 17.73 4" fill="#666"/><polygon points="27.1 5.73 27.1 6.27 27.63 6.27 27.63 6.8 28.17 6.8 28.17 7.33 28.7 7.33 28.7 7.87 29.23 7.87 29.23 8.4 29.77 8.4 29.77 8.93 30.3 8.93 30.3 9.47 30.83 9.47 30.83 10 31.9 10 31.9 9.47 31.37 9.47 31.37 8.93 30.83 8.93 30.83 8.4 30.3 8.4 30.3 7.87 29.77 7.87 29.77 7.33 29.23 7.33 29.23 6.8 28.7 6.8 28.7 6.27 28.17 6.27 28.17 5.73 28.7 5.73 28.7 5.2 29.23 5.2 29.23 4.67 29.77 4.67 29.77 4.13 30.3 4.13 30.3 3.6 30.83 3.6 30.83 3.07 31.37 3.07 31.37 2.53 31.9 2.53 31.9 2 30.83 2 30.83 2.53 30.3 2.53 30.3 3.07 29.77 3.07 29.77 3.6 29.23 3.6 29.23 4.13 28.7 4.13 28.7 4.67 28.17 4.67 28.17 5.2 27.63 5.2 27.63 5.73 27.1 5.73" fill="#666"/><polygon points="45 5.73 45 6.27 44.45 6.27 44.45 6.8 43.89 6.8 43.89 7.33 43.33 7.33 43.33 7.87 42.78 7.87 42.78 8.4 42.22 8.4 42.22 8.93 41.67 8.93 41.67 9.47 41.11 9.47 41.11 10 40 10 40 9.47 40.56 9.47 40.56 8.93 41.11 8.93 41.11 8.4 41.67 8.4 41.67 7.87 42.22 7.87 42.22 7.33 42.78 7.33 42.78 6.8 43.34 6.8 43.34 6.27 43.89 6.27 43.89 5.73 43.33 5.73 43.33 5.2 42.78 5.2 42.78 4.67 42.22 4.67 42.22 4.13 41.67 4.13 41.67 3.6 41.11 3.6 41.11 3.07 40.56 3.07 40.56 2.53 40 2.53 40 2 41.11 2 41.11 2.53 41.67 2.53 41.67 3.07 42.22 3.07 42.22 3.6 42.78 3.6 42.78 4.13 43.34 4.13 43.34 4.67 43.89 4.67 43.89 5.2 44.45 5.2 44.45 5.73 45 5.73" fill="#666"/><path d="M63,350.47a15,15,0,1,1-4.06-10.74A15,15,0,0,1,63,350.47ZM40.31,352.7a.47.47,0,0,0-.46.46.49.49,0,0,0,0,.17,8.52,8.52,0,0,0,8.08,5.5,8.67,8.67,0,0,0,8.15-5.54.46.46,0,0,0-.43-.63A39.59,39.59,0,0,1,40.31,352.7Zm0,0a.47.47,0,0,0-.46.46.49.49,0,0,0,0,.17,8.52,8.52,0,0,0,8.08,5.5,8.67,8.67,0,0,0,8.15-5.54.46.46,0,0,0-.43-.63A39.59,39.59,0,0,1,40.31,352.7Z" fill="#e5bd9e"/><path d="M57.69,344.68a2,2,0,0,0-2.55-.32,2,2,0,0,0-1.92-1.71,2.1,2.1,0,0,0-2.1,2.08V345a15.82,15.82,0,0,0,1.21,4.22.81.81,0,0,0,1,.47,16,16,0,0,0,4-1.87,2.08,2.08,0,0,0,.5-2.9h0Zm-19.33,0a2,2,0,0,1,2.55-.32,2,2,0,0,1,1.92-1.71,2.1,2.1,0,0,1,2.1,2.08V345a15.82,15.82,0,0,1-1.21,4.22.81.81,0,0,1-1,.47,16,16,0,0,1-4-1.87,2.08,2.08,0,0,1-.5-2.9h0Z" fill="#ff586f"/><path d="M40.31,352.7a.47.47,0,0,0-.46.46.49.49,0,0,0,0,.17,8.52,8.52,0,0,0,8.08,5.5,8.67,8.67,0,0,0,8.15-5.54.46.46,0,0,0-.43-.63A39.59,39.59,0,0,1,40.31,352.7Z" fill="#403108"/><path d="M48,358.83a8.35,8.35,0,0,1-5-1.53,7.28,7.28,0,0,1,5.1-1.69,7.4,7.4,0,0,1,5,1.61A8.41,8.41,0,0,1,48,358.83Z" fill="#ff586f"/><path d="M95,350a15,15,0,1,1-15-15,15,15,0,0,1,15,15Z" fill="#d5ae91"/><path d="M73.7,350.31a1.56,1.56,0,0,1-1.56-1.56v-.62a1.56,1.56,0,0,1,3.12,0v.62A1.58,1.58,0,0,1,73.7,350.31Zm12.82,0A1.57,1.57,0,0,1,85,348.74v-.62a1.56,1.56,0,0,1,3.12,0h0v.62a1.58,1.58,0,0,1-1.56,1.56Zm-3.47,5.77a3.06,3.06,0,1,1-3-3.34,3.21,3.21,0,0,1,3,3.33Z" fill="#403108"/><path d="M74,342a3,3,0,0,0-3,2.88V345m15-3a3,3,0,0,1,3,3" fill="none" stroke="#403108"/><path d="M127,350a15,15,0,1,1-15-15,15,15,0,0,1,15,15Z" fill="#d5ae91"/><path d="M106,342a3,3,0,0,0-3,2.9v.1m15-3s3,.09,3,3" fill="none" stroke="#403108"/><path d="M105.7,349.19c-1,0-1.79.67-1.79-.32v-.72a1.79,1.79,0,0,1,3.58,0v.72C107.49,349.85,106.68,349.17,105.7,349.19Zm12.66,0c-1,0-1.79.67-1.79-.32v-.72a1.79,1.79,0,0,1,3.58,0v.72C120.15,349.87,119.34,349.17,118.36,349.19Zm1,10a.44.44,0,0,0,.44-.44h0a.43.43,0,0,0,0-.16,8.12,8.12,0,0,0-7.68-5.23,8.22,8.22,0,0,0-7.75,5.27.43.43,0,0,0,0,.41.44.44,0,0,0,.36.19,18.37,18.37,0,0,1,14.61,0Z" fill="#403108"/><path d="M159,350a15,15,0,1,1-15-15,15,15,0,0,1,15,15Z" fill="#ff6ca1"/><path d="M137,343l4,3m10-3-4,3m-7,11s0-4,4-4,4,4,4,4" fill="none" stroke="#403108"/><path d="M139,350.31a1.56,1.56,0,0,1-1.56-1.56v-.62a1.57,1.57,0,0,1,3.13,0v.63A1.57,1.57,0,0,1,139,350.31Zm10,0a1.58,1.58,0,0,1-1.56-1.56v-.62a1.56,1.56,0,0,1,3.12,0h0v.63A1.57,1.57,0,0,1,149,350.31Z" fill="#403108"/><path d="M16,334a16,16,0,1,0,16,16A16,16,0,0,0,16,334Zm-2.26,23.54L6.2,350l3-3,4.52,4.52,9-9,3,3Z" fill="#0cb2a5"/><path d="M176,360.15a1.4,1.4,0,0,1-1-2.42,1.47,1.47,0,0,1,2.06,0,1.44,1.44,0,0,1,0,2,1.38,1.38,0,0,1-1,.42Zm5.07-3.91a.58.58,0,0,1-.41.17h-9.33a.58.58,0,0,1-.58-.58V343.17a.58.58,0,0,1,.58-.58h9.33a.58.58,0,0,1,.58.58v12.66a.58.58,0,0,1-.17.41Zm-3.62-15.36h-2.91a.29.29,0,0,1,0-.58h2.92a.29.29,0,0,1,0,.58h0Zm4.85-2.19a2.24,2.24,0,0,0-1.64-.68h-9.33a2.24,2.24,0,0,0-1.64.68,2.17,2.17,0,0,0-.69,1.62v18.41a2.17,2.17,0,0,0,.69,1.62,2.24,2.24,0,0,0,1.64.68h9.33a2.24,2.24,0,0,0,1.64-.68,2.17,2.17,0,0,0,.69-1.62V340.3a2.17,2.17,0,0,0-.69-1.62ZM208,350.07a1.22,1.22,0,0,0-.91.38,1.29,1.29,0,0,0-.37.93.43.43,0,0,1-.12.31.44.44,0,0,1-.62,0,.43.43,0,0,1-.12-.31,2.14,2.14,0,0,1,.63-1.55,2,2,0,0,1,1.51-.64.39.39,0,0,1,.31.12.47.47,0,0,1,0,.63A.4.4,0,0,1,208,350.07Zm0-2.16a3.25,3.25,0,0,0-2.42,1,3.56,3.56,0,0,0,0,5,3.37,3.37,0,0,0,4.77.07h0l.07-.07a3.56,3.56,0,0,0,0-5A3.25,3.25,0,0,0,208,347.91Zm-10.28,9.6h20.55v1.75H197.73v-1.75Zm10.28-.85a4.89,4.89,0,0,1-3.63-1.54,5.33,5.33,0,0,1,0-7.43,5.06,5.06,0,0,1,7.15-.12l.12.12a5.33,5.33,0,0,1,0,7.43A4.9,4.9,0,0,1,208,356.66Zm-8.56-15.78h5.14v1.75h-5.14Zm-1.71,2.63h8.62l.86-1.75h11.08v3.5H197.73V343.5Zm21.76-3a1.62,1.62,0,0,0-1.21-.51H197.73a1.62,1.62,0,0,0-1.21.51,1.71,1.71,0,0,0-.5,1.24v17.51a1.71,1.71,0,0,0,.5,1.24,1.62,1.62,0,0,0,1.21.51h20.55a1.62,1.62,0,0,0,1.21-.51,1.71,1.71,0,0,0,.5-1.24V341.75a1.71,1.71,0,0,0-.5-1.24Zm28.21,15.22a2.2,2.2,0,0,0,1.62-.68,2.23,2.23,0,0,0,.67-1.64V343.2a2.23,2.23,0,0,0-.67-1.64,2.2,2.2,0,0,0-1.62-.68H232.1a2.2,2.2,0,0,0-1.62.68,2.23,2.23,0,0,0-.67,1.64v10.21a2.23,2.23,0,0,0,.67,1.64,2.2,2.2,0,0,0,1.62.68Zm-15.93-12.86a.43.43,0,0,1,.32-.14H247.7a.43.43,0,0,1,.32.14.47.47,0,0,1,.14.33v10.21a.47.47,0,0,1-.14.33.43.43,0,0,1-.32.14H232.1a.43.43,0,0,1-.32-.14.47.47,0,0,1-.14-.33V343.2a.48.48,0,0,1,.13-.32Zm-3.35,13.79h-2.3v1.39a1.17,1.17,0,0,0,.67,1,3.06,3.06,0,0,0,1.62.41h23A3.09,3.09,0,0,0,253,359a1.16,1.16,0,0,0,.68-1v-1.39H228.42Zm10.33,1.39a.23.23,0,1,1,0-.46H241a.23.23,0,0,1,0,.46ZM299.87,350l1.35,2.42h-9A13.12,13.12,0,0,1,292,350a11.72,11.72,0,0,1,3.15-8.11Zm-7.31,3.61h11.58l-4.38,7.6a11.43,11.43,0,0,1-4.47-3A12,12,0,0,1,292.56,353.61Zm8.32-5.41-.06.11-4.38-7.6A11.43,11.43,0,0,1,304,338a13,13,0,0,1,2.64.28Zm5.17,5.41,1.12-1.91,4.38,7.6A11.68,11.68,0,0,1,304,362a12.52,12.52,0,0,1-2.59-.28Zm9.39-7.21H303.86l4.38-7.6a11.62,11.62,0,0,1,4.47,3,12.06,12.06,0,0,1,2.73,4.64Zm.28,1.18A11,11,0,0,1,316,350a11.5,11.5,0,0,1-3.2,8.11l-5.68-9.91-.34-.62Zm22,2.92h-3.38a.79.79,0,0,1-.59-.26.89.89,0,0,1,0-1.23.79.79,0,0,1,.59-.26h3.38a.79.79,0,0,1,.59.26.89.89,0,0,1,0,1.23.76.76,0,0,1-.62.27Zm8.2-4.12a.79.79,0,0,0-.59-.26H326.7a.79.79,0,0,0-.6.26.86.86,0,0,0-.25.61v13.13a.86.86,0,0,0,.25.61.79.79,0,0,0,.6.26h18.6a.79.79,0,0,0,.59-.26.86.86,0,0,0,.25-.61V347a.86.86,0,0,0-.25-.61Zm.84-6.13a.79.79,0,0,0-.59-.26H325.86a.79.79,0,0,0-.59.26.86.86,0,0,0-.25.61v3.5a.9.9,0,0,0,.25.62.79.79,0,0,0,.59.26h20.28a.79.79,0,0,0,.59-.26.9.9,0,0,0,.25-.62v-3.5a.84.84,0,0,0-.25-.6ZM273.26,347a3,3,0,0,0-5.12,2.12.86.86,0,0,1-.95.76h0a.85.85,0,0,1-.76-.76,4.72,4.72,0,0,1,9.43-.43,3.09,3.09,0,0,1,0,.43.86.86,0,0,1-1.72,0A2.92,2.92,0,0,0,273.26,347Zm3.38-3.33a7.88,7.88,0,0,1,1.65,2.46,7.56,7.56,0,0,1,.61,3,5.91,5.91,0,0,1-.15,1.45,4.36,4.36,0,0,1-.5,1.25,10.71,10.71,0,0,1-.59.9c-.16.21-.4.49-.71.86l-.61.72c-.16.22-.31.44-.45.67a2.62,2.62,0,0,0-.36.86,4.78,4.78,0,0,0-.1,1,5.14,5.14,0,0,1-5.14,5.14h0a.86.86,0,1,1-.19-1.71h.19a3.45,3.45,0,0,0,3.43-3.43,6.69,6.69,0,0,1,.15-1.41,4.19,4.19,0,0,1,.5-1.22c.23-.38.42-.68.58-.89s.39-.49.7-.84a11,11,0,0,0,.8-1,4.25,4.25,0,0,0,.5-1,4.15,4.15,0,0,0,.24-1.39,6,6,0,0,0-12,0,.86.86,0,0,1-.95.76h0a.85.85,0,0,1-.76-.76,7.56,7.56,0,0,1,.61-3,7.72,7.72,0,0,1,10.1-4.11h0a7.9,7.9,0,0,1,2.45,1.71ZM260.15,358.8a.54.54,0,0,0,0,.76l0,0h0l2.25,2.25a.54.54,0,0,0,.76,0l0,0h0l7.76-7.76-3-3Zm21-20.81a.59.59,0,0,0-.4.16L278,340.94l-1.22,1.22a9,9,0,0,1,2.61,3.46l1-1,.35-.33,3.12-3.12a.59.59,0,0,0,.16-.4.55.55,0,0,0-.16-.39l-2.25-2.25a.53.53,0,0,0-.4-.13Z" fill="#999"/><path d="M368,360.15a1.4,1.4,0,0,1-1-2.42,1.47,1.47,0,0,1,2.06,0,1.44,1.44,0,0,1,0,2,1.38,1.38,0,0,1-1,.42Zm5.07-3.91a.58.58,0,0,1-.41.17h-9.33a.58.58,0,0,1-.58-.58V343.17a.58.58,0,0,1,.58-.58h9.33a.58.58,0,0,1,.58.58v12.66a.58.58,0,0,1-.17.41Zm-3.62-15.36h-2.92a.29.29,0,0,1,0-.58h2.92a.29.29,0,0,1,0,.58Zm4.85-2.19a2.24,2.24,0,0,0-1.64-.68h-9.33a2.24,2.24,0,0,0-1.64.68,2.17,2.17,0,0,0-.69,1.62v18.41a2.17,2.17,0,0,0,.69,1.62,2.24,2.24,0,0,0,1.64.68h9.33a2.24,2.24,0,0,0,1.64-.68,2.17,2.17,0,0,0,.69-1.62V340.3a2.17,2.17,0,0,0-.69-1.62ZM400,350.07a1.22,1.22,0,0,0-.91.38,1.29,1.29,0,0,0-.37.93.43.43,0,0,1-.12.31.44.44,0,0,1-.62,0,.43.43,0,0,1-.12-.31,2.14,2.14,0,0,1,.63-1.55,2,2,0,0,1,1.51-.64.39.39,0,0,1,.31.12.47.47,0,0,1,0,.63A.4.4,0,0,1,400,350.07Zm0-2.16a3.25,3.25,0,0,0-2.42,1,3.56,3.56,0,0,0,0,5,3.37,3.37,0,0,0,4.77.07h0l.07-.07a3.56,3.56,0,0,0,0-5A3.25,3.25,0,0,0,400,347.91Zm-10.28,9.6h20.55v1.75H389.73v-1.75Zm10.28-.85a4.89,4.89,0,0,1-3.63-1.54,5.33,5.33,0,0,1,0-7.43,5,5,0,0,1,7.07-.19l.08.08.12.11a5.33,5.33,0,0,1,0,7.43A4.9,4.9,0,0,1,400,356.66Zm-8.56-15.78h5.14v1.75h-5.14Zm-1.71,2.63h8.62l.86-1.75h11.08v3.5H389.73V343.5Zm21.76-3a1.62,1.62,0,0,0-1.21-.51H389.73a1.62,1.62,0,0,0-1.21.51,1.71,1.71,0,0,0-.5,1.24v17.51a1.71,1.71,0,0,0,.5,1.24,1.62,1.62,0,0,0,1.21.51h20.55a1.62,1.62,0,0,0,1.21-.51,1.71,1.71,0,0,0,.5-1.24V341.75a1.71,1.71,0,0,0-.5-1.24Zm28.21,15.22a2.2,2.2,0,0,0,1.62-.68,2.23,2.23,0,0,0,.67-1.64V343.2a2.23,2.23,0,0,0-.67-1.64,2.2,2.2,0,0,0-1.62-.68H424.1a2.2,2.2,0,0,0-1.62.68,2.23,2.23,0,0,0-.67,1.64v10.21a2.23,2.23,0,0,0,.67,1.64,2.2,2.2,0,0,0,1.62.68Zm-15.93-12.86a.43.43,0,0,1,.32-.14H439.7a.43.43,0,0,1,.32.14.47.47,0,0,1,.14.33v10.21a.47.47,0,0,1-.14.33.43.43,0,0,1-.32.14H424.1a.43.43,0,0,1-.32-.14.47.47,0,0,1-.14-.33V343.2a.48.48,0,0,1,.13-.32Zm-3.35,13.79h-2.3v1.39a1.17,1.17,0,0,0,.67,1,3.06,3.06,0,0,0,1.62.41h23A3.09,3.09,0,0,0,445,359a1.16,1.16,0,0,0,.68-1v-1.39H420.42Zm10.33,1.39a.23.23,0,0,1,0-.46H433a.23.23,0,0,1,0,.46ZM491.87,350l1.35,2.42h-9A13.12,13.12,0,0,1,484,350a11.72,11.72,0,0,1,3.15-8.11Zm-7.31,3.61h11.58l-4.38,7.6a11.43,11.43,0,0,1-4.47-3A12,12,0,0,1,484.56,353.61Zm8.32-5.41-.06.11-4.38-7.6A11.43,11.43,0,0,1,496,338a13,13,0,0,1,2.64.28Zm5.17,5.41,1.12-1.91,4.38,7.6A11.68,11.68,0,0,1,496,362a12.52,12.52,0,0,1-2.59-.28Zm9.39-7.21H495.86l4.38-7.6a11.62,11.62,0,0,1,4.47,3,12.06,12.06,0,0,1,2.73,4.64Zm.28,1.18A11,11,0,0,1,508,350a11.5,11.5,0,0,1-3.2,8.11l-5.68-9.91-.34-.62Zm22,2.92h-3.38a.79.79,0,0,1-.59-.26.89.89,0,0,1,0-1.23.79.79,0,0,1,.59-.26h3.38a.79.79,0,0,1,.59.26.89.89,0,0,1,0,1.23.76.76,0,0,1-.62.27Zm8.2-4.12a.79.79,0,0,0-.59-.26H518.7a.79.79,0,0,0-.59.26.86.86,0,0,0-.25.61v13.13a.86.86,0,0,0,.25.61.79.79,0,0,0,.59.26h18.59a.79.79,0,0,0,.59-.26.86.86,0,0,0,.25-.61V347a.85.85,0,0,0-.24-.61Zm.84-6.13a.79.79,0,0,0-.59-.26H517.86a.79.79,0,0,0-.59.26.86.86,0,0,0-.25.61v3.5a.9.9,0,0,0,.25.62.79.79,0,0,0,.59.26h20.28a.79.79,0,0,0,.59-.26.9.9,0,0,0,.25-.62v-3.5a.84.84,0,0,0-.25-.6ZM465.26,347a3,3,0,0,0-5.12,2.12.86.86,0,0,1-.95.76h0a.85.85,0,0,1-.76-.76,4.72,4.72,0,0,1,9.43-.43,3.09,3.09,0,0,1,0,.43.86.86,0,0,1-1.72,0A2.92,2.92,0,0,0,465.26,347Zm3.38-3.33a7.88,7.88,0,0,1,1.65,2.46,7.56,7.56,0,0,1,.61,3,5.91,5.91,0,0,1-.15,1.45,4.36,4.36,0,0,1-.5,1.25,10.71,10.71,0,0,1-.59.9c-.16.21-.4.49-.71.86l-.61.72c-.16.22-.31.44-.45.67a2.71,2.71,0,0,0-.36.86,4.78,4.78,0,0,0-.1,1,5.14,5.14,0,0,1-5.14,5.14h0a.86.86,0,1,1-.19-1.71h.19a3.45,3.45,0,0,0,3.43-3.43,6.69,6.69,0,0,1,.15-1.41,4.19,4.19,0,0,1,.5-1.22c.23-.38.42-.68.58-.89s.39-.49.7-.84a11,11,0,0,0,.8-1,4.25,4.25,0,0,0,.5-1,4.15,4.15,0,0,0,.24-1.39,6,6,0,0,0-12,0,.86.86,0,0,1-.95.76h0a.85.85,0,0,1-.76-.76,7.56,7.56,0,0,1,.61-3,7.72,7.72,0,0,1,10.1-4.11h0a7.9,7.9,0,0,1,2.45,1.71ZM452.15,358.8a.54.54,0,0,0,0,.76l0,0h0l2.25,2.25a.54.54,0,0,0,.76,0l0,0h0l7.76-7.76-3-3Zm21-20.81a.59.59,0,0,0-.4.16L470,340.94l-1.22,1.22a9,9,0,0,1,2.61,3.46l1-1,.35-.33,3.12-3.12a.59.59,0,0,0,.16-.4.55.55,0,0,0-.16-.39l-2.25-2.25a.53.53,0,0,0-.4-.13Z" fill="#999"/><path d="M39,443c-2.44-1.86-15-11-15-11s-6-5.25-6,1v27s.3,5.25,6,1c3.59-2.68,16-12,16-12S43.17,446.17,39,443Zm-5.11,4.55s-6.35,4.34-7.92,5.54c-2.72,2.08-3-.46-3-.46v-12c0-2.88,2.47-1.38,2.47-1.38s7.27,5.07,8.41,6a1.32,1.32,0,0,1,.52,1.79,1.3,1.3,0,0,1-.52.52Z" fill="#911b3a"/><path d="M136,67.94l-3.84,3.24L133.31,76,129,73.43,124.65,76l1.15-4.82L122,67.94l5-.42L129,63l2,4.53Zm-7,4.24,2.66,1.54-.72-2.93,2.33-2-3.05-.26L129,65.79l-1.18,2.76-3,.26,2.3,2-.69,2.92Z" fill="#999"/><polygon points="142.98 73.44 138.65 76 139.79 71.18 135.99 67.94 141.01 67.52 142.98 63 144.95 67.53 150 67.95 146.16 71.19 147.31 76 142.98 73.44" fill="#9f224e"/><path d="M576,347l-8.77,7.23L569.86,365,560,359.26,550.07,365l2.63-10.74L544,347l11.47-.93L560,336l4.5,10.1Zm-16,9.45,6.07,3.44-1.65-6.52,5.32-4.44-7-.57L560,342.22l-2.7,6.16-7,.57,5.25,4.44L554,359.91Z" fill="#999"/><polygon points="591.96 359.29 582.07 365.01 584.69 354.27 575.99 347.04 587.46 346.11 591.96 336.01 596.46 346.11 608 347.04 599.23 354.27 601.85 365.01 591.96 359.29" fill="#9f224e"/><path d="M211.09,131.68a2,2,0,0,0-1.45.64,2.33,2.33,0,0,0-.48.65,1.88,1.88,0,0,0-.15.81V138h2.82v2.82h8.36V138H223v-4.18a2.12,2.12,0,0,0-2.09-2.09h-9.82Zm.74-3.44v2.82h8.36v-2.82Zm7,11.07h-5.65v-3.44h5.65v3.45Zm1.42-5.23a.63.63,0,0,1-.07-.3.57.57,0,0,1,.07-.22l.15-.3.25-.15a.52.52,0,0,1,.27-.07.73.73,0,0,1,.29.07,1.14,1.14,0,0,1,.23.15,1.82,1.82,0,0,0,.15.27.43.43,0,0,1,.07.25.63.63,0,0,1-.07.3,1.07,1.07,0,0,1-.15.22l-.27.15a.43.43,0,0,1-.25.07.63.63,0,0,1-.3-.07.67.67,0,0,1-.37-.37Zm16.5,2.73a2.3,2.3,0,0,1,1.57.62,2,2,0,0,1,.69,1.49,2,2,0,0,1-.64,1.47,2.17,2.17,0,0,1-3,0,2,2,0,0,1-.64-1.47.45.45,0,0,1,0-.23.37.37,0,0,0,0-.21l-5.87-3.24a1.93,1.93,0,0,1-.72.64,2.05,2.05,0,0,1-1,.24,2.15,2.15,0,0,1-1.53-.62,2,2,0,0,1-.18-2.82l.18-.18a2.15,2.15,0,0,1,1.53-.62,2.05,2.05,0,0,1,1,.24,1.93,1.93,0,0,1,.72.64l5.79-3.07a.84.84,0,0,1-.08-.31v-.31a2,2,0,0,1,.65-1.48,2.12,2.12,0,0,1,1.52-.63,2.19,2.19,0,0,1,1.52.58,1.86,1.86,0,0,1,.65,1.44,2,2,0,0,1-.65,1.47,2.15,2.15,0,0,1-1.52.62,2,2,0,0,1-.87-.18,1.84,1.84,0,0,1-.66-.51l-6,3.07v.88l5.77,3.24a3.47,3.47,0,0,1,.76-.56,1.92,1.92,0,0,1,1-.21Z" fill="#666"/><path d="M253.76,131.09,252.7,130a.75.75,0,0,0-1.06,0l-5.12,5.13-2.3-2.3a.75.75,0,0,0-1.06,0l-1.06,1.06a.75.75,0,0,0,0,1.06l2.83,2.83,1.06,1.06a.75.75,0,0,0,1.06,0l1.06-1.06,5.66-5.66a.75.75,0,0,0,0-1.06Z" fill="#090"/><path d="M268.85,137l-2.3-2.3,2.3-2.3a.75.75,0,0,0,0-1.06l-1.06-1.06a.75.75,0,0,0-1.06,0l-2.3,2.3-2.3-2.3a.75.75,0,0,0-1.06,0L260,131.34a.75.75,0,0,0,0,1.06l2.3,2.3L260,137a.75.75,0,0,0,0,1.06l1.06,1.06a.75.75,0,0,0,1.06,0l2.3-2.3,2.3,2.3a.75.75,0,0,0,1.06,0l1.06-1.06a.75.75,0,0,0,0-1.06Z" fill="#cc0001"/><polygon points="332 139.8 330.8 141 326 136.2 321.2 141 320 139.8 324.8 135 320 130.2 321.2 129 326 133.8 330.8 129 332 130.2 327.2 135 332 139.8" fill="#fff"/><polygon points="344 139.8 342.8 141 338 136.2 333.2 141 332 139.8 336.8 135 332 130.2 333.2 129 338 133.8 342.8 129 344 130.2 339.2 135 344 139.8" fill="#ccc"/><path d="M894.65,195.35,897,193v7h-7l3.24-3.24a6.06,6.06,0,0,0-1.93-1.31A5.73,5.73,0,0,0,889,195a5.86,5.86,0,0,0-3,.8,6,6,0,1,0,6.52,10.08,5.7,5.7,0,0,0,2.16-2.88h2.07a7.67,7.67,0,0,1-1.56,3.09,8.2,8.2,0,0,1-2.69,2.13,8,8,0,1,1-.39-14.63A8.27,8.27,0,0,1,894.65,195.35Z" fill="#666"/><path d="M174.14,63.55c-2.64-1.9-5.27,1.8-7.91.51v-.27a.62.62,0,0,0-.69-.54.64.64,0,0,0-.54.54V74.38a.62.62,0,0,0,.69.54.64.64,0,0,0,.54-.54V69.89c2.51,1.22,5-2.06,7.52-.75a.35.35,0,0,0,.37,0,.38.38,0,0,0,.18-.32v-5a.37.37,0,0,0-.16-.3Z" fill="#999"/><path d="M184.44,63.55c-2.64-1.9-5.27,1.8-7.91.51v-.27a.62.62,0,0,0-.69-.54.64.64,0,0,0-.54.54V74.38a.62.62,0,0,0,.69.54.64.64,0,0,0,.54-.54V69.89c2.51,1.22,5-2.06,7.52-.75a.35.35,0,0,0,.37,0,.38.38,0,0,0,.18-.32v-5a.37.37,0,0,0-.16-.3Z" fill="#9f224e"/><path d="M198.5,63H186V83l7.5-3.75L201,83V63Zm-2,12.77-3-1.52-2.92,1.53.56-3.26-2.38-2.3,3.28-.47,1.46-3,1.47,3,3.28.48-2.38,2.3Z" fill="#fcc059"/></svg>