<svg width="37" height="37" viewBox="0 0 37 37" fill="none" xmlns="http://www.w3.org/2000/svg">
<circle cx="18.5" cy="18.5" r="18.5" fill="#F2F2F2"/>
<g clip-path="url(#clip0)">
<path d="M29.8739 15.033C29.7663 14.9017 29.6058 14.8251 29.4374 14.8251H27.2962C26.7678 13.4315 26.0795 12.066 25.297 11.5505C22.5903 9.76986 15.411 9.76986 12.7043 11.5505C11.9213 12.0665 11.2357 13.4337 10.7045 14.8251H8.5634C8.39329 14.8251 8.23331 14.9017 8.12684 15.033C8.01981 15.1637 7.977 15.3366 8.01193 15.5028L8.32907 17.0395C8.38315 17.3015 8.6141 17.4885 8.88055 17.4885H9.51483C8.90252 18.1949 8.60565 19.0844 8.60171 19.9745C8.59777 21.0741 9.01518 22.0678 9.77846 22.7708C9.78691 22.7781 9.79536 22.7832 9.80325 22.7905V24.9407C9.80325 25.4066 10.1818 25.7857 10.6482 25.7857H12.6232C13.0896 25.7857 13.4681 25.4066 13.4681 24.9407V24.0766H24.5321V24.9407C24.5321 25.4066 24.9106 25.7857 25.377 25.7857H27.352C27.8173 25.7857 28.1969 25.4066 28.1969 24.9407V22.8328C29.007 22.0909 29.394 21.0701 29.399 20.0511C29.4024 19.1306 29.092 18.2084 28.4437 17.4874H29.1202C29.3878 17.4874 29.6187 17.3004 29.6717 17.0379L29.9894 15.5017C30.0221 15.3366 29.9809 15.1648 29.8739 15.033ZM13.6321 12.9616C15.7895 11.5415 22.2107 11.5415 24.367 12.9616C24.7861 13.2365 25.3252 14.348 25.8192 15.709H12.181C12.6739 14.3485 13.213 13.2377 13.6321 12.9616ZM11.1051 20.1863C11.1051 19.268 11.8497 18.5245 12.7674 18.5245C13.6861 18.5245 14.4297 19.268 14.4297 20.1863C14.4297 21.1045 13.6861 21.8486 12.7674 21.8486C11.8497 21.8486 11.1051 21.1045 11.1051 20.1863ZM25.2548 21.8486C24.3372 21.8486 23.5925 21.1045 23.5925 20.1863C23.5925 19.268 24.3372 18.5245 25.2548 18.5245C26.1735 18.5245 26.9171 19.268 26.9171 20.1863C26.9171 21.1045 26.1724 21.8486 25.2548 21.8486Z" fill="#757575"/>
</g>
<defs>
<clipPath id="clip0">
<rect x="8" y="7" width="22" height="22" fill="white"/>
</clipPath>
</defs>
</svg>
