<svg width="29" height="30" viewBox="0 0 29 30" fill="none" xmlns="http://www.w3.org/2000/svg">
<path fill-rule="evenodd" clip-rule="evenodd" d="M1.77688 3.24299C1.53104 3.64608 1.5 4.15805 1.5 4.58135V26.0678C1.5 27.2476 1.74375 27.7814 1.93727 28.0005C2.1055 28.191 2.26396 28.1779 2.3386 28.1525L2.41708 28.1257H25C25.8752 28.1257 26.3563 27.8331 26.6246 27.5281C26.908 27.2059 27 26.8172 27 26.5794V11.7319H16.5V2.52344H3.5C2.43568 2.52344 1.99263 2.88922 1.77688 3.24299ZM0.923124 2.72231C1.35736 2.01029 2.16432 1.52344 3.5 1.52344H17.5V10.7319H28V26.5794C28 27.0237 27.842 27.6581 27.3754 28.1885C26.8937 28.7362 26.1248 29.1257 25 29.1257H2.57183C2.1557 29.2331 1.61324 29.1443 1.18773 28.6625C0.756249 28.1739 0.5 27.3435 0.5 26.0678V4.58135C0.5 4.15201 0.518955 3.38502 0.923124 2.72231Z" fill="#AAAAAA"/>
<path fill-rule="evenodd" clip-rule="evenodd" d="M18.5 0.5H25C26.2971 0.5 27.1808 0.870981 27.7439 1.40441C28.2985 1.92987 28.5 2.575 28.5 3.04636V9.68542H18.5V0.5ZM19.5 1.5V8.68542H27.5V3.04636C27.5 2.83559 27.4015 2.45755 27.0561 2.13036C26.7192 1.81114 26.1029 1.5 25 1.5H19.5Z" fill="#AAAAAA"/>
<path d="M9.71462 22.4191H7.31682L6.7783 24.0214H6L8.18553 17.8823H8.84591L11.0354 24.0214H10.261L9.71462 22.4191ZM7.54481 21.753H9.49057L8.51572 18.8816L7.54481 21.753Z" fill="#AAAAAA"/>
<path d="M12.5605 21.618V24.0214H11.8058V17.8823H13.9167C14.543 17.8823 15.033 18.0538 15.3868 18.3967C15.7432 18.7397 15.9214 19.1936 15.9214 19.7586C15.9214 20.3545 15.7471 20.8141 15.3986 21.1374C15.0527 21.4578 14.5561 21.618 13.9088 21.618H12.5605ZM12.5605 20.9561H13.9167C14.3202 20.9561 14.6295 20.8549 14.8443 20.6525C15.0592 20.4473 15.1667 20.1521 15.1667 19.767C15.1667 19.4016 15.0592 19.1093 14.8443 18.89C14.6295 18.6708 14.3346 18.5569 13.9599 18.5485H12.5605V20.9561Z" fill="#AAAAAA"/>
<path d="M17.6392 21.618V24.0214H16.8844V17.8823H18.9953C19.6216 17.8823 20.1116 18.0538 20.4654 18.3967C20.8218 18.7397 21 19.1936 21 19.7586C21 20.3545 20.8257 20.8141 20.4772 21.1374C20.1313 21.4578 19.6347 21.618 18.9874 21.618H17.6392ZM17.6392 20.9561H18.9953C19.3988 20.9561 19.7081 20.8549 19.923 20.6525C20.1378 20.4473 20.2453 20.1521 20.2453 19.767C20.2453 19.4016 20.1378 19.1093 19.923 18.89C19.7081 18.6708 19.4133 18.5569 19.0385 18.5485H17.6392V20.9561Z" fill="#AAAAAA"/>
</svg>
