<svg width="29" height="30" viewBox="0 0 29 30" fill="none" xmlns="http://www.w3.org/2000/svg">
<path d="M3.5 2.02344C1.1 2.02344 1 3.72871 1 4.58135V26.0678C1 28.5234 2 28.7962 2.5 28.6257H25C27 28.6257 27.5 27.2615 27.5 26.5794V11.2319H17V2.02344H3.5Z" stroke="#AAAAAA"/>
<path d="M19 9.18542V1H25C27.4 1 28 2.36424 28 3.04636V9.18542H19Z" stroke="#AAAAAA"/>
<path d="M9.71462 22.4191H7.31682L6.7783 24.0214H6L8.18553 17.8823H8.84591L11.0354 24.0214H10.261L9.71462 22.4191ZM7.54481 21.753H9.49057L8.51572 18.8816L7.54481 21.753Z" fill="#AAAAAA"/>
<path d="M12.5605 21.618V24.0214H11.8058V17.8823H13.9167C14.543 17.8823 15.033 18.0538 15.3868 18.3967C15.7432 18.7397 15.9214 19.1936 15.9214 19.7586C15.9214 20.3545 15.7471 20.8141 15.3986 21.1374C15.0527 21.4578 14.5561 21.618 13.9088 21.618H12.5605ZM12.5605 20.9561H13.9167C14.3202 20.9561 14.6295 20.8549 14.8443 20.6525C15.0592 20.4473 15.1667 20.1521 15.1667 19.767C15.1667 19.4016 15.0592 19.1093 14.8443 18.89C14.6295 18.6708 14.3346 18.5569 13.9599 18.5485H12.5605V20.9561Z" fill="#AAAAAA"/>
<path d="M17.6392 21.618V24.0214H16.8844V17.8823H18.9953C19.6216 17.8823 20.1116 18.0538 20.4654 18.3967C20.8218 18.7397 21 19.1936 21 19.7586C21 20.3545 20.8257 20.8141 20.4772 21.1374C20.1313 21.4578 19.6347 21.618 18.9874 21.618H17.6392ZM17.6392 20.9561H18.9953C19.3988 20.9561 19.7081 20.8549 19.923 20.6525C20.1378 20.4473 20.2453 20.1521 20.2453 19.767C20.2453 19.4016 20.1378 19.1093 19.923 18.89C19.7081 18.6708 19.4133 18.5569 19.0385 18.5485H17.6392V20.9561Z" fill="#AAAAAA"/>
</svg>
