<svg width="15" height="24" viewBox="0 0 15 24" fill="none" xmlns="http://www.w3.org/2000/svg">
<path d="M11.0475 4.19043H2.66688C1.19644 4.19043 0 5.38821 0 6.86032V17.1399C0 18.6121 1.19644 19.8098 2.66688 19.8098H11.0475C12.518 19.8098 13.7144 18.612 13.7144 17.1399V6.86043C13.7144 5.38821 12.518 4.19043 11.0475 4.19043ZM12.9525 17.1401C12.9525 18.1921 12.098 19.0482 11.0475 19.0482H2.66688C1.61642 19.0482 0.761949 18.1921 0.761949 17.1401V6.86055C0.761949 5.80853 1.61642 4.95249 2.66688 4.95249H11.0475C12.098 4.95249 12.9525 5.80853 12.9525 6.86055V17.1401Z" fill="#666666"/>
<path d="M11.8038 4.50328L11.2461 1.43584C11.0995 0.630698 10.3443 0 9.52643 0H4.18865C3.3709 0 2.61565 0.630475 2.46899 1.43562L1.91129 4.50306C1.89109 4.61433 1.92133 4.72862 1.99377 4.81545C2.06609 4.90217 2.17323 4.95217 2.28618 4.95217H11.4291C11.5421 4.95217 11.6491 4.90206 11.7213 4.81556C11.7936 4.72884 11.824 4.61433 11.8038 4.50328ZM2.74254 4.19033L3.21855 1.572C3.29858 1.13271 3.74278 0.761726 4.18865 0.761726H9.52643C9.9723 0.761726 10.4165 1.1326 10.4965 1.57178L10.9725 4.19033H2.74254Z" fill="#666666"/>
<path d="M11.7215 19.1846C11.6491 19.0979 11.5421 19.0479 11.4291 19.0479H2.28618C2.17323 19.0479 2.0662 19.098 1.99377 19.1846C1.92133 19.2714 1.89109 19.3859 1.91129 19.497L2.46899 22.5644C2.61542 23.3693 3.3709 24 4.18865 24H9.52643C10.3443 24 11.0995 23.3693 11.2463 22.5644L11.804 19.497C11.8242 19.3857 11.794 19.2714 11.7215 19.1846ZM10.4966 22.428C10.4166 22.8671 9.97241 23.2381 9.52654 23.2381H4.18876C3.74289 23.2381 3.29869 22.867 3.21867 22.4278L2.74266 19.8095H10.9726L10.4966 22.428Z" fill="#666666"/>
<path d="M14.0954 8.38086H13.3334C13.1232 8.38086 12.9525 8.55151 12.9525 8.76178V11.4284C12.9525 11.6387 13.1232 11.8094 13.3334 11.8094H14.0954C14.3057 11.8094 14.4763 11.6387 14.4763 11.4284V8.76178C14.4764 8.55151 14.3057 8.38086 14.0954 8.38086Z" fill="#666666"/>
</svg>
