<svg width="23" height="21" viewBox="0 0 23 21" fill="none" xmlns="http://www.w3.org/2000/svg">
<path fill-rule="evenodd" clip-rule="evenodd" d="M12.2021 2.0402C12.0095 1.8496 11.7003 1.84698 11.5045 2.03429L1.34574 11.7574L0.654297 11.035L4.48278 7.37069V3.8679H5.48278V6.41358L10.8131 1.31187C11.4002 0.749909 12.3281 0.75777 12.9056 1.32959L22.3518 10.6824L21.6482 11.393L12.2021 2.0402ZM12.3939 11.5673C11.0205 10.8255 9.50453 10.8207 8.96554 10.8207V9.82073H8.97451C9.53158 9.8207 11.2641 9.82062 12.8691 10.6874C13.6851 11.1281 14.471 11.794 15.0498 12.7922C15.6278 13.7893 15.9828 15.0892 15.9828 16.7736H14.9828C14.9828 15.2315 14.6588 14.1116 14.1847 13.2938C13.7112 12.4772 13.0714 11.9332 12.3939 11.5673ZM4.48278 19V11.3962H5.48278V19C5.48278 19.2761 5.70664 19.5 5.98278 19.5H17.7414C18.0175 19.5 18.2414 19.2761 18.2414 19V11.3962H19.2414V19C19.2414 19.8284 18.5698 20.5 17.7414 20.5H5.98278C5.15435 20.5 4.48278 19.8284 4.48278 19ZM11.3542 13.1364C10.3869 12.6176 9.32182 12.6132 8.96554 12.6132V11.6132H8.97296C9.35044 11.6131 10.6297 11.613 11.8269 12.2551C12.4384 12.5831 13.0321 13.0801 13.47 13.8262C13.9074 14.5714 14.1724 15.536 14.1724 16.7736H13.1724C13.1724 15.6809 12.9396 14.8979 12.6076 14.3324C12.2761 13.7677 11.8289 13.3909 11.3542 13.1364ZM10.4138 14.4056C9.8854 14.4056 9.46554 14.8285 9.46554 15.3396C9.46554 15.8507 9.8854 16.2736 10.4138 16.2736C10.9422 16.2736 11.3621 15.8507 11.3621 15.3396C11.3621 14.8285 10.9422 14.4056 10.4138 14.4056ZM8.46554 15.3396C8.46554 14.2668 9.3425 13.4056 10.4138 13.4056C11.4851 13.4056 12.3621 14.2668 12.3621 15.3396C12.3621 16.4124 11.4851 17.2736 10.4138 17.2736C9.3425 17.2736 8.46554 16.4124 8.46554 15.3396Z" fill="#666666"/>
</svg>
