<svg width="36" height="36" viewBox="0 0 36 36" fill="none" xmlns="http://www.w3.org/2000/svg">
<g clip-path="url(#clip0)">
<g clip-path="url(#clip1)">
<path fill-rule="evenodd" clip-rule="evenodd" d="M32.75 6.425H4.375C4.26454 6.425 4.175 6.51454 4.175 6.625V23.75C4.175 23.8605 4.26454 23.95 4.375 23.95H32.75C32.8605 23.95 32.95 23.8605 32.95 23.75V6.625C32.95 6.51454 32.8605 6.425 32.75 6.425ZM4.375 5.625C3.82272 5.625 3.375 6.07272 3.375 6.625V23.75C3.375 24.3023 3.82271 24.75 4.375 24.75H32.75C33.3023 24.75 33.75 24.3023 33.75 23.75V6.625C33.75 6.07272 33.3023 5.625 32.75 5.625H4.375Z" fill="#AAAAAA"/>
<path fill-rule="evenodd" clip-rule="evenodd" d="M0.725098 25.8751C0.725098 25.6542 0.904184 25.4751 1.1251 25.4751H8.0188L8.01899 25.8751L8.01894 26.2751H1.1251C0.904184 26.2751 0.725098 26.096 0.725098 25.8751ZM15.7501 26.2751H8.01894L8.01899 25.8751L8.0188 25.4751H15.7501V26.2751ZM21.5376 25.4751H35.4376C35.6585 25.4751 35.8376 25.6542 35.8376 25.8751C35.8376 26.096 35.6585 26.2751 35.4376 26.2751H21.5376V25.4751ZM1.53614 27.0001C1.53614 26.7792 1.71523 26.6001 1.93614 26.6001H35.1891C35.41 26.6001 35.5891 26.7792 35.5891 27.0001C35.5891 27.221 35.41 27.4001 35.1891 27.4001H1.93614C1.71523 27.4001 1.53614 27.221 1.53614 27.0001Z" fill="#AAAAAA"/>
</g>
</g>
<defs>
<clipPath id="clip0">
<rect width="36" height="36" fill="white"/>
</clipPath>
<clipPath id="clip1">
<rect width="37.1362" height="23.3235" fill="white" transform="translate(-1.125 5.625)"/>
</clipPath>
</defs>
</svg>
