<svg width="23" height="15" viewBox="0 0 23 15" fill="none" xmlns="http://www.w3.org/2000/svg">
<g clip-path="url(#clip0)">
<rect x="3.04636" y="0.4" width="17.5481" height="10.7525" rx="0.6" stroke="#666666" stroke-width="0.8"/>
<path d="M1.28723 11.7322C1.01109 11.7322 0.787231 11.956 0.787231 12.2322C0.787231 12.5083 1.01109 12.7322 1.28723 12.7322V11.7322ZM21.8827 12.7026C22.1588 12.7016 22.3818 12.4769 22.3808 12.2008C22.3798 11.9247 22.1551 11.7016 21.879 11.7026L21.8827 12.7026ZM13.8572 11.7322L13.3572 11.734L13.3609 12.734L13.8609 12.7322L13.8572 11.7322ZM1.77715 12.4117C1.501 12.4117 1.27715 12.6356 1.27715 12.9117C1.27715 13.1879 1.501 13.4117 1.77715 13.4117V12.4117ZM21.0851 13.4117C21.3613 13.4117 21.5851 13.1879 21.5851 12.9117C21.5851 12.6356 21.3613 12.4117 21.0851 12.4117V13.4117ZM21.879 11.7026L13.8572 11.7322L13.8609 12.7322L21.8827 12.7026L21.879 11.7026ZM1.77715 13.4117H21.0851V12.4117H1.77715V13.4117ZM1.28723 12.7322C1.29041 12.7322 1.29359 12.7322 1.29677 12.7322C1.29995 12.7322 1.30314 12.7322 1.30633 12.7322C1.30952 12.7322 1.31271 12.7322 1.31591 12.7322C1.31911 12.7322 1.32231 12.7322 1.32551 12.7322C1.32872 12.7322 1.33192 12.7322 1.33513 12.7322C1.33834 12.7322 1.34156 12.7322 1.34477 12.7322C1.34799 12.7322 1.35121 12.7322 1.35444 12.7322C1.35766 12.7322 1.36089 12.7322 1.36412 12.7322C1.36735 12.7322 1.37058 12.7322 1.37382 12.7322C1.37705 12.7322 1.38029 12.7322 1.38354 12.7322C1.38678 12.7322 1.39003 12.7322 1.39328 12.7322C1.39653 12.7322 1.39978 12.7322 1.40304 12.7322C1.40629 12.7322 1.40955 12.7322 1.41281 12.7322C1.41608 12.7322 1.41934 12.7322 1.42261 12.7322C1.42588 12.7322 1.42915 12.7322 1.43242 12.7322C1.4357 12.7322 1.43898 12.7322 1.44226 12.7322C1.44554 12.7322 1.44882 12.7322 1.45211 12.7322C1.4554 12.7322 1.45869 12.7322 1.46198 12.7322C1.46527 12.7322 1.46857 12.7322 1.47187 12.7322C1.47517 12.7322 1.47847 12.7322 1.48178 12.7322C1.48508 12.7322 1.48839 12.7322 1.4917 12.7322C1.49501 12.7322 1.49833 12.7322 1.50164 12.7322C1.50496 12.7322 1.50828 12.7322 1.5116 12.7322C1.51492 12.7322 1.51825 12.7322 1.52158 12.7322C1.52491 12.7322 1.52824 12.7322 1.53157 12.7322C1.53491 12.7322 1.53824 12.7322 1.54158 12.7322C1.54492 12.7322 1.54826 12.7322 1.55161 12.7322C1.55496 12.7322 1.5583 12.7322 1.56165 12.7322C1.56501 12.7322 1.56836 12.7322 1.57172 12.7322C1.57507 12.7322 1.57843 12.7322 1.58179 12.7322C1.58515 12.7322 1.58852 12.7322 1.59189 12.7322C1.59525 12.7322 1.59862 12.7322 1.602 12.7322C1.60537 12.7322 1.60874 12.7322 1.61212 12.7322C1.6155 12.7322 1.61888 12.7322 1.62226 12.7322C1.62565 12.7322 1.62903 12.7322 1.63242 12.7322C1.63581 12.7322 1.6392 12.7322 1.64259 12.7322C1.64599 12.7322 1.64938 12.7322 1.65278 12.7322C1.65618 12.7322 1.65958 12.7322 1.66298 12.7322C1.66639 12.7322 1.66979 12.7322 1.6732 12.7322C1.67661 12.7322 1.68002 12.7322 1.68343 12.7322C1.68685 12.7322 1.69026 12.7322 1.69368 12.7322C1.6971 12.7322 1.70052 12.7322 1.70394 12.7322C1.70737 12.7322 1.71079 12.7322 1.71422 12.7322C1.71765 12.7322 1.72108 12.7322 1.72451 12.7322C1.72794 12.7322 1.73138 12.7322 1.73482 12.7322C1.73825 12.7322 1.74169 12.7322 1.74513 12.7322C1.74858 12.7322 1.75202 12.7322 1.75547 12.7322C1.75891 12.7322 1.76236 12.7322 1.76581 12.7322C1.76926 12.7322 1.77272 12.7322 1.77617 12.7322C1.77963 12.7322 1.78309 12.7322 1.78655 12.7322C1.79001 12.7322 1.79347 12.7322 1.79693 12.7322C1.8004 12.7322 1.80386 12.7322 1.80733 12.7322C1.8108 12.7322 1.81427 12.7322 1.81774 12.7322C1.82122 12.7322 1.82469 12.7322 1.82817 12.7322C1.83164 12.7322 1.83512 12.7322 1.8386 12.7322C1.84209 12.7322 1.84557 12.7322 1.84905 12.7322C1.85254 12.7322 1.85603 12.7322 1.85952 12.7322C1.863 12.7322 1.8665 12.7322 1.86999 12.7322C1.87348 12.7322 1.87698 12.7322 1.88048 12.7322C1.88397 12.7322 1.88747 12.7322 1.89097 12.7322C1.89447 12.7322 1.89798 12.7322 1.90148 12.7322C1.90499 12.7322 1.90849 12.7322 1.912 12.7322C1.91551 12.7322 1.91902 12.7322 1.92253 12.7322C1.92605 12.7322 1.92956 12.7322 1.93308 12.7322C1.93659 12.7322 1.94011 12.7322 1.94363 12.7322C1.94715 12.7322 1.95067 12.7322 1.9542 12.7322C1.95772 12.7322 1.96124 12.7322 1.96477 12.7322C1.9683 12.7322 1.97183 12.7322 1.97536 12.7322C1.97889 12.7322 1.98242 12.7322 1.98595 12.7322C1.98949 12.7322 1.99302 12.7322 1.99656 12.7322C2.0001 12.7322 2.00364 12.7322 2.00718 12.7322C2.01072 12.7322 2.01426 12.7322 2.0178 12.7322C2.02135 12.7322 2.02489 12.7322 2.02844 12.7322C2.03199 12.7322 2.03554 12.7322 2.03909 12.7322C2.04264 12.7322 2.04619 12.7322 2.04974 12.7322C2.0533 12.7322 2.05685 12.7322 2.06041 12.7322C2.06396 12.7322 2.06752 12.7322 2.07108 12.7322C2.07464 12.7322 2.0782 12.7322 2.08176 12.7322C2.08533 12.7322 2.08889 12.7322 2.09246 12.7322C2.09602 12.7322 2.09959 12.7322 2.10316 12.7322C2.10673 12.7322 2.1103 12.7322 2.11387 12.7322C2.11744 12.7322 2.12101 12.7322 2.12458 12.7322C2.12816 12.7322 2.13173 12.7322 2.13531 12.7322C2.13889 12.7322 2.14246 12.7322 2.14604 12.7322C2.14962 12.7322 2.1532 12.7322 2.15678 12.7322C2.16037 12.7322 2.16395 12.7322 2.16753 12.7322C2.17112 12.7322 2.1747 12.7322 2.17829 12.7322C2.18188 12.7322 2.18547 12.7322 2.18906 12.7322C2.19265 12.7322 2.19624 12.7322 2.19983 12.7322C2.20342 12.7322 2.20701 12.7322 2.21061 12.7322C2.2142 12.7322 2.2178 12.7322 2.22139 12.7322C2.22499 12.7322 2.22859 12.7322 2.23218 12.7322C2.23578 12.7322 2.23938 12.7322 2.24298 12.7322C2.24659 12.7322 2.25019 12.7322 2.25379 12.7322C2.25739 12.7322 2.261 12.7322 2.2646 12.7322C2.26821 12.7322 2.27181 12.7322 2.27542 12.7322C2.27903 12.7322 2.28264 12.7322 2.28625 12.7322C2.28986 12.7322 2.29347 12.7322 2.29708 12.7322C2.30069 12.7322 2.3043 12.7322 2.30791 12.7322C2.31153 12.7322 2.31514 12.7322 2.31875 12.7322C2.32237 12.7322 2.32599 12.7322 2.3296 12.7322C2.33322 12.7322 2.33684 12.7322 2.34045 12.7322C2.34407 12.7322 2.34769 12.7322 2.35131 12.7322C2.35493 12.7322 2.35855 12.7322 2.36217 12.7322C2.3658 12.7322 2.36942 12.7322 2.37304 12.7322C2.37667 12.7322 2.38029 12.7322 2.38391 12.7322C2.38754 12.7322 2.39117 12.7322 2.39479 12.7322C2.39842 12.7322 2.40204 12.7322 2.40567 12.7322C2.4093 12.7322 2.41293 12.7322 2.41656 12.7322C2.42019 12.7322 2.42382 12.7322 2.42745 12.7322C2.43108 12.7322 2.43471 12.7322 2.43834 12.7322C2.44197 12.7322 2.4456 12.7322 2.44924 12.7322C2.45287 12.7322 2.4565 12.7322 2.46014 12.7322C2.46377 12.7322 2.46741 12.7322 2.47104 12.7322C2.47468 12.7322 2.47831 12.7322 2.48195 12.7322C2.48559 12.7322 2.48922 12.7322 2.49286 12.7322C2.4965 12.7322 2.50014 12.7322 2.50377 12.7322C2.50741 12.7322 2.51105 12.7322 2.51469 12.7322C2.51833 12.7322 2.52197 12.7322 2.52561 12.7322C2.52925 12.7322 2.53289 12.7322 2.53653 12.7322C2.54017 12.7322 2.54381 12.7322 2.54745 12.7322C2.5511 12.7322 2.55474 12.7322 2.55838 12.7322C2.56202 12.7322 2.56567 12.7322 2.56931 12.7322C2.57295 12.7322 2.57659 12.7322 2.58024 12.7322C2.58388 12.7322 2.58753 12.7322 2.59117 12.7322C2.59481 12.7322 2.59846 12.7322 2.6021 12.7322C2.60575 12.7322 2.60939 12.7322 2.61304 12.7322C2.61668 12.7322 2.62033 12.7322 2.62397 12.7322C2.62762 12.7322 2.63127 12.7322 2.63491 12.7322C2.63856 12.7322 2.6422 12.7322 2.64585 12.7322C2.6495 12.7322 2.65314 12.7322 2.65679 12.7322C2.66044 12.7322 2.66408 12.7322 2.66773 12.7322C2.67138 12.7322 2.67502 12.7322 2.67867 12.7322C2.68232 12.7322 2.68596 12.7322 2.68961 12.7322C2.69326 12.7322 2.6969 12.7322 2.70055 12.7322C2.7042 12.7322 2.70784 12.7322 2.71149 12.7322C2.71514 12.7322 2.71878 12.7322 2.72243 12.7322C2.72608 12.7322 2.72973 12.7322 2.73337 12.7322C2.73702 12.7322 2.74067 12.7322 2.74431 12.7322C2.74796 12.7322 2.75161 12.7322 2.75525 12.7322C2.7589 12.7322 2.76254 12.7322 2.76619 12.7322C2.76984 12.7322 2.77348 12.7322 2.77713 12.7322C2.78077 12.7322 2.78442 12.7322 2.78806 12.7322C2.79171 12.7322 2.79536 12.7322 2.799 12.7322C2.80265 12.7322 2.80629 12.7322 2.80993 12.7322C2.81358 12.7322 2.81722 12.7322 2.82087 12.7322C2.82451 12.7322 2.82816 12.7322 2.8318 12.7322C2.83544 12.7322 2.83909 12.7322 2.84273 12.7322C2.84637 12.7322 2.85001 12.7322 2.85366 12.7322C2.8573 12.7322 2.86094 12.7322 2.86458 12.7322C2.86822 12.7322 2.87186 12.7322 2.8755 12.7322C2.87914 12.7322 2.88278 12.7322 2.88642 12.7322C2.89006 12.7322 2.8937 12.7322 2.89734 12.7322C2.90098 12.7322 2.90462 12.7322 2.90826 12.7322C2.9119 12.7322 2.91553 12.7322 2.91917 12.7322C2.92281 12.7322 2.92644 12.7322 2.93008 12.7322C2.93372 12.7322 2.93735 12.7322 2.94099 12.7322C2.94462 12.7322 2.94826 12.7322 2.95189 12.7322C2.95552 12.7322 2.95916 12.7322 2.96279 12.7322C2.96642 12.7322 2.97005 12.7322 2.97368 12.7322C2.97732 12.7322 2.98095 12.7322 2.98458 12.7322C2.98821 12.7322 2.99184 12.7322 2.99546 12.7322C2.99909 12.7322 3.00272 12.7322 3.00635 12.7322C3.00997 12.7322 3.0136 12.7322 3.01723 12.7322C3.02085 12.7322 3.02448 12.7322 3.0281 12.7322C3.03173 12.7322 3.03535 12.7322 3.03897 12.7322C3.0426 12.7322 3.04622 12.7322 3.04984 12.7322C3.05346 12.7322 3.05708 12.7322 3.0607 12.7322C3.06432 12.7322 3.06794 12.7322 3.07156 12.7322C3.07517 12.7322 3.07879 12.7322 3.08241 12.7322C3.08602 12.7322 3.08964 12.7322 3.09325 12.7322C3.09687 12.7322 3.10048 12.7322 3.10409 12.7322C3.1077 12.7322 3.11132 12.7322 3.11493 12.7322C3.11854 12.7322 3.12215 12.7322 3.12575 12.7322C3.12936 12.7322 3.13297 12.7322 3.13658 12.7322C3.14018 12.7322 3.14379 12.7322 3.14739 12.7322C3.151 12.7322 3.1546 12.7322 3.1582 12.7322C3.16181 12.7322 3.16541 12.7322 3.16901 12.7322C3.17261 12.7322 3.17621 12.7322 3.1798 12.7322C3.1834 12.7322 3.187 12.7322 3.19059 12.7322C3.19419 12.7322 3.19778 12.7322 3.20138 12.7322C3.20497 12.7322 3.20856 12.7322 3.21215 12.7322C3.21574 12.7322 3.21933 12.7322 3.22292 12.7322C3.22651 12.7322 3.2301 12.7322 3.23368 12.7322C3.23727 12.7322 3.24086 12.7322 3.24444 12.7322C3.24802 12.7322 3.2516 12.7322 3.25519 12.7322C3.25877 12.7322 3.26235 12.7322 3.26592 12.7322C3.2695 12.7322 3.27308 12.7322 3.27666 12.7322C3.28023 12.7322 3.28381 12.7322 3.28738 12.7322C3.29095 12.7322 3.29452 12.7322 3.29809 12.7322C3.30166 12.7322 3.30523 12.7322 3.3088 12.7322C3.31237 12.7322 3.31593 12.7322 3.3195 12.7322C3.32306 12.7322 3.32662 12.7322 3.33018 12.7322C3.33375 12.7322 3.33731 12.7322 3.34086 12.7322C3.34442 12.7322 3.34798 12.7322 3.35154 12.7322C3.35509 12.7322 3.35864 12.7322 3.3622 12.7322C3.36575 12.7322 3.3693 12.7322 3.37285 12.7322C3.3764 12.7322 3.37995 12.7322 3.38349 12.7322C3.38704 12.7322 3.39058 12.7322 3.39412 12.7322C3.39767 12.7322 3.40121 12.7322 3.40475 12.7322C3.40829 12.7322 3.41182 12.7322 3.41536 12.7322C3.4189 12.7322 3.42243 12.7322 3.42596 12.7322C3.4295 12.7322 3.43303 12.7322 3.43656 12.7322C3.44009 12.7322 3.44361 12.7322 3.44714 12.7322C3.45066 12.7322 3.45419 12.7322 3.45771 12.7322C3.46123 12.7322 3.46475 12.7322 3.46827 12.7322C3.47179 12.7322 3.47531 12.7322 3.47882 12.7322C3.48234 12.7322 3.48585 12.7322 3.48936 12.7322C3.49287 12.7322 3.49638 12.7322 3.49989 12.7322C3.5034 12.7322 3.5069 12.7322 3.51041 12.7322C3.51391 12.7322 3.51741 12.7322 3.52091 12.7322C3.52441 12.7322 3.52791 12.7322 3.5314 12.7322C3.5349 12.7322 3.53839 12.7322 3.54189 12.7322C3.54538 12.7322 3.54887 12.7322 3.55236 12.7322C3.55584 12.7322 3.55933 12.7322 3.56281 12.7322C3.5663 12.7322 3.56978 12.7322 3.57326 12.7322C3.57674 12.7322 3.58021 12.7322 3.58369 12.7322C3.58717 12.7322 3.59064 12.7322 3.59411 12.7322C3.59758 12.7322 3.60105 12.7322 3.60452 12.7322C3.60798 12.7322 3.61145 12.7322 3.61491 12.7322C3.61837 12.7322 3.62183 12.7322 3.62529 12.7322C3.62875 12.7322 3.63221 12.7322 3.63566 12.7322C3.63912 12.7322 3.64257 12.7322 3.64602 12.7322C3.64947 12.7322 3.65291 12.7322 3.65636 12.7322C3.6598 12.7322 3.66324 12.7322 3.66668 12.7322C3.67013 12.7322 3.67356 12.7322 3.677 12.7322C3.68043 12.7322 3.68387 12.7322 3.6873 12.7322C3.69073 12.7322 3.69416 12.7322 3.69758 12.7322C3.70101 12.7322 3.70443 12.7322 3.70786 12.7322C3.71128 12.7322 3.7147 12.7322 3.71811 12.7322C3.72153 12.7322 3.72494 12.7322 3.72835 12.7322C3.73177 12.7322 3.73518 12.7322 3.73858 12.7322C3.74199 12.7322 3.74539 12.7322 3.74879 12.7322C3.7522 12.7322 3.7556 12.7322 3.75899 12.7322C3.76239 12.7322 3.76578 12.7322 3.76917 12.7322C3.77257 12.7322 3.77595 12.7322 3.77934 12.7322C3.78273 12.7322 3.78611 12.7322 3.78949 12.7322C3.79287 12.7322 3.79625 12.7322 3.79963 12.7322C3.803 12.7322 3.80638 12.7322 3.80975 12.7322C3.81312 12.7322 3.81649 12.7322 3.81985 12.7322C3.82322 12.7322 3.82658 12.7322 3.82994 12.7322C3.8333 12.7322 3.83666 12.7322 3.84001 12.7322C3.84337 12.7322 3.84672 12.7322 3.85007 12.7322C3.85342 12.7322 3.85676 12.7322 3.8601 12.7322C3.86345 12.7322 3.86679 12.7322 3.87013 12.7322C3.87346 12.7322 3.8768 12.7322 3.88013 12.7322C3.88346 12.7322 3.88679 12.7322 3.89012 12.7322C3.89345 12.7322 3.89677 12.7322 3.90009 12.7322C3.90341 12.7322 3.90673 12.7322 3.91004 12.7322C3.91336 12.7322 3.91667 12.7322 3.91998 12.7322C3.92329 12.7322 3.92659 12.7322 3.9299 12.7322C3.9332 12.7322 3.9365 12.7322 3.9398 12.7322C3.94309 12.7322 3.94639 12.7322 3.94968 12.7322C3.95297 12.7322 3.95626 12.7322 3.95954 12.7322C3.96283 12.7322 3.96611 12.7322 3.96939 12.7322C3.97267 12.7322 3.97594 12.7322 3.97921 12.7322C3.98249 12.7322 3.98576 12.7322 3.98902 12.7322C3.99229 12.7322 3.99555 12.7322 3.99881 12.7322C4.00207 12.7322 4.00533 12.7322 4.00858 12.7322C4.01184 12.7322 4.01509 12.7322 4.01834 12.7322C4.02158 12.7322 4.02483 12.7322 4.02807 12.7322C4.03131 12.7322 4.03455 12.7322 4.03778 12.7322C4.04102 12.7322 4.04425 12.7322 4.04747 12.7322C4.0507 12.7322 4.05393 12.7322 4.05715 12.7322C4.06037 12.7322 4.06359 12.7322 4.0668 12.7322C4.07002 12.7322 4.07323 12.7322 4.07644 12.7322C4.07964 12.7322 4.08285 12.7322 4.08605 12.7322C4.08925 12.7322 4.09245 12.7322 4.09564 12.7322C4.09884 12.7322 4.10203 12.7322 4.10522 12.7322C4.1084 12.7322 4.11159 12.7322 4.11477 12.7322C4.11795 12.7322 4.12113 12.7322 4.1243 12.7322C4.12748 12.7322 4.13065 12.7322 4.13381 12.7322C4.13698 12.7322 4.14014 12.7322 4.1433 12.7322C4.14646 12.7322 4.14962 12.7322 4.15277 12.7322C4.15592 12.7322 4.15907 12.7322 4.16222 12.7322C4.16536 12.7322 4.1685 12.7322 4.17164 12.7322C4.17478 12.7322 4.17792 12.7322 4.18105 12.7322C4.18418 12.7322 4.18731 12.7322 4.19043 12.7322C4.19355 12.7322 4.19667 12.7322 4.19979 12.7322C4.20291 12.7322 4.20602 12.7322 4.20913 12.7322C4.21224 12.7322 4.21534 12.7322 4.21844 12.7322C4.22154 12.7322 4.22464 12.7322 4.22774 12.7322C4.23083 12.7322 4.23392 12.7322 4.23701 12.7322C4.24009 12.7322 4.24317 12.7322 4.24625 12.7322C4.24933 12.7322 4.25241 12.7322 4.25548 12.7322C4.25855 12.7322 4.26162 12.7322 4.26468 12.7322C4.26774 12.7322 4.2708 12.7322 4.27386 12.7322C4.27691 12.7322 4.27997 12.7322 4.28301 12.7322C4.28606 12.7322 4.28911 12.7322 4.29215 12.7322C4.29519 12.7322 4.29822 12.7322 4.30125 12.7322C4.30428 12.7322 4.30731 12.7322 4.31034 12.7322C4.31336 12.7322 4.31638 12.7322 4.3194 12.7322C4.32241 12.7322 4.32542 12.7322 4.32843 12.7322C4.33144 12.7322 4.33444 12.7322 4.33744 12.7322C4.34044 12.7322 4.34344 12.7322 4.34643 12.7322C4.34942 12.7322 4.35241 12.7322 4.35539 12.7322C4.35838 12.7322 4.36136 12.7322 4.36433 12.7322C4.36731 12.7322 4.37028 12.7322 4.37324 12.7322C4.37621 12.7322 4.37917 12.7322 4.38213 12.7322C4.38509 12.7322 4.38804 12.7322 4.39099 12.7322C4.39394 12.7322 4.39689 12.7322 4.39983 12.7322C4.40277 12.7322 4.40571 12.7322 4.40864 12.7322C4.41157 12.7322 4.4145 12.7322 4.41743 12.7322C4.42035 12.7322 4.42327 12.7322 4.42619 12.7322C4.4291 12.7322 4.43201 12.7322 4.43492 12.7322C4.43783 12.7322 4.44073 12.7322 4.44363 12.7322C4.44653 12.7322 4.44942 12.7322 4.45231 12.7322C4.4552 12.7322 4.45808 12.7322 4.46097 12.7322C4.46385 12.7322 4.46672 12.7322 4.46959 12.7322C4.47247 12.7322 4.47533 12.7322 4.47819 12.7322C4.48106 12.7322 4.48392 12.7322 4.48677 12.7322C4.48962 12.7322 4.49247 12.7322 4.49532 12.7322C4.49816 12.7322 4.501 12.7322 4.50384 12.7322C4.50667 12.7322 4.5095 12.7322 4.51233 12.7322C4.51516 12.7322 4.51798 12.7322 4.52079 12.7322C4.52361 12.7322 4.52642 12.7322 4.52923 12.7322C4.53204 12.7322 4.53484 12.7322 4.53764 12.7322C4.54044 12.7322 4.54323 12.7322 4.54602 12.7322C4.54881 12.7322 4.5516 12.7322 4.55438 12.7322C4.55716 12.7322 4.55993 12.7322 4.5627 12.7322C4.56547 12.7322 4.56824 12.7322 4.571 12.7322C4.57376 12.7322 4.57652 12.7322 4.57927 12.7322C4.58202 12.7322 4.58476 12.7322 4.58751 12.7322C4.59025 12.7322 4.59298 12.7322 4.59572 12.7322C4.59845 12.7322 4.60117 12.7322 4.6039 12.7322C4.60662 12.7322 4.60934 12.7322 4.61205 12.7322C4.61476 12.7322 4.61747 12.7322 4.62017 12.7322C4.62287 12.7322 4.62557 12.7322 4.62826 12.7322C4.63096 12.7322 4.63364 12.7322 4.63633 12.7322C4.63901 12.7322 4.64169 12.7322 4.64436 12.7322C4.64703 12.7322 4.6497 12.7322 4.65236 12.7322C4.65503 12.7322 4.65768 12.7322 4.66034 12.7322C4.66299 12.7322 4.66564 12.7322 4.66828 12.7322C4.67092 12.7322 4.67356 12.7322 4.67619 12.7322C4.67882 12.7322 4.68145 12.7322 4.68407 12.7322C4.6867 12.7322 4.68931 12.7322 4.69193 12.7322C4.69454 12.7322 4.69714 12.7322 4.69975 12.7322C4.70235 12.7322 4.70494 12.7322 4.70753 12.7322C4.71013 12.7322 4.71271 12.7322 4.71529 12.7322C4.71787 12.7322 4.72045 12.7322 4.72302 12.7322C4.72559 12.7322 4.72815 12.7322 4.73071 12.7322C4.73327 12.7322 4.73583 12.7322 4.73838 12.7322C4.74092 12.7322 4.74347 12.7322 4.74601 12.7322C4.74854 12.7322 4.75108 12.7322 4.75361 12.7322C4.75613 12.7322 4.75866 12.7322 4.76117 12.7322C4.76369 12.7322 4.7662 12.7322 4.76871 12.7322C4.77121 12.7322 4.77371 12.7322 4.77621 12.7322C4.7787 12.7322 4.78119 12.7322 4.78368 12.7322C4.78616 12.7322 4.78864 12.7322 4.79111 12.7322C4.79359 12.7322 4.79606 12.7322 4.79852 12.7322C4.80098 12.7322 4.80344 12.7322 4.80589 12.7322C4.80834 12.7322 4.81079 12.7322 4.81323 12.7322C4.81567 12.7322 4.8181 12.7322 4.82053 12.7322C4.82296 12.7322 4.82538 12.7322 4.8278 12.7322C4.83022 12.7322 4.83263 12.7322 4.83504 12.7322C4.83744 12.7322 4.83984 12.7322 4.84224 12.7322C4.84463 12.7322 4.84702 12.7322 4.84941 12.7322C4.85179 12.7322 4.85417 12.7322 4.85654 12.7322C4.85891 12.7322 4.86128 12.7322 4.86364 12.7322C4.866 12.7322 4.86836 12.7322 4.87071 12.7322C4.87306 12.7322 4.8754 12.7322 4.87774 12.7322C4.88008 12.7322 4.88241 12.7322 4.88473 12.7322C4.88706 12.7322 4.88938 12.7322 4.8917 12.7322C4.89401 12.7322 4.89632 12.7322 4.89862 12.7322C4.90092 12.7322 4.90322 12.7322 4.90551 12.7322C4.9078 12.7322 4.91009 12.7322 4.91237 12.7322C4.91465 12.7322 4.91692 12.7322 4.91919 12.7322C4.92146 12.7322 4.92372 12.7322 4.92597 12.7322C4.92823 12.7322 4.93048 12.7322 4.93272 12.7322C4.93496 12.7322 4.9372 12.7322 4.93943 12.7322C4.94166 12.7322 4.94389 12.7322 4.94611 12.7322C4.94833 12.7322 4.95054 12.7322 4.95275 12.7322C4.95495 12.7322 4.95716 12.7322 4.95935 12.7322C4.96155 12.7322 4.96373 12.7322 4.96592 12.7322C4.9681 12.7322 4.97028 12.7322 4.97245 12.7322C4.97462 12.7322 4.97678 12.7322 4.97894 12.7322C4.9811 12.7322 4.98325 12.7322 4.9854 12.7322C4.98754 12.7322 4.98968 12.7322 4.99181 12.7322C4.99395 12.7322 4.99607 12.7322 4.99819 12.7322C5.00031 12.7322 5.00243 12.7322 5.00454 12.7322C5.00665 12.7322 5.00875 12.7322 5.01084 12.7322C5.01294 12.7322 5.01503 12.7322 5.01711 12.7322C5.01919 12.7322 5.02127 12.7322 5.02334 12.7322C5.02541 12.7322 5.02747 12.7322 5.02953 12.7322C5.03159 12.7322 5.03364 12.7322 5.03568 12.7322C5.03773 12.7322 5.03977 12.7322 5.0418 12.7322C5.04383 12.7322 5.04586 12.7322 5.04788 12.7322C5.04989 12.7322 5.05191 12.7322 5.05391 12.7322C5.05592 12.7322 5.05792 12.7322 5.05991 12.7322C5.0619 12.7322 5.06389 12.7322 5.06587 12.7322C5.06785 12.7322 5.06982 12.7322 5.07179 12.7322C5.07376 12.7322 5.07572 12.7322 5.07767 12.7322C5.07962 12.7322 5.08157 12.7322 5.08351 12.7322C5.08545 12.7322 5.08738 12.7322 5.08931 12.7322C5.09124 12.7322 5.09316 12.7322 5.09507 12.7322C5.09699 12.7322 5.09889 12.7322 5.10079 12.7322C5.10269 12.7322 5.10459 12.7322 5.10647 12.7322C5.10836 12.7322 5.11024 12.7322 5.11211 12.7322C5.11399 12.7322 5.11585 12.7322 5.11771 12.7322C5.11957 12.7322 5.12143 12.7322 5.12327 12.7322C5.12512 12.7322 5.12696 12.7322 5.12879 12.7322C5.13063 12.7322 5.13245 12.7322 5.13427 12.7322C5.13609 12.7322 5.1379 12.7322 5.13971 12.7322C5.14151 12.7322 5.14331 12.7322 5.1451 12.7322C5.14689 12.7322 5.14868 12.7322 5.15045 12.7322C5.15223 12.7322 5.154 12.7322 5.15577 12.7322C5.15753 12.7322 5.15929 12.7322 5.16104 12.7322C5.16279 12.7322 5.16453 12.7322 5.16627 12.7322C5.168 12.7322 5.16973 12.7322 5.17145 12.7322C5.17317 12.7322 5.17489 12.7322 5.1766 12.7322C5.1783 12.7322 5.18 12.7322 5.1817 12.7322C5.18339 12.7322 5.18508 12.7322 5.18676 12.7322C5.18844 12.7322 5.19011 12.7322 5.19177 12.7322C5.19344 12.7322 5.1951 12.7322 5.19675 12.7322C5.1984 12.7322 5.20004 12.7322 5.20168 12.7322C5.20332 12.7322 5.20494 12.7322 5.20657 12.7322C5.20819 12.7322 5.2098 12.7322 5.21141 12.7322C5.21302 12.7322 5.21462 12.7322 5.21621 12.7322C5.2178 12.7322 5.21939 12.7322 5.22097 12.7322C5.22255 12.7322 5.22412 12.7322 5.22568 12.7322C5.22725 12.7322 5.2288 12.7322 5.23035 12.7322C5.2319 12.7322 5.23344 12.7322 5.23498 12.7322C5.23651 12.7322 5.23804 12.7322 5.23956 12.7322C5.24108 12.7322 5.24259 12.7322 5.2441 12.7322C5.2456 12.7322 5.2471 12.7322 5.24859 12.7322C5.25008 12.7322 5.25156 12.7322 5.25304 12.7322C5.25451 12.7322 5.25598 12.7322 5.25744 12.7322C5.2589 12.7322 5.26035 12.7322 5.2618 12.7322C5.26324 12.7322 5.26468 12.7322 5.26611 12.7322C5.26754 12.7322 5.26896 12.7322 5.27038 12.7322C5.27179 12.7322 5.2732 12.7322 5.2746 12.7322C5.276 12.7322 5.27739 12.7322 5.27878 12.7322C5.28016 12.7322 5.28154 12.7322 5.28291 12.7322C5.28428 12.7322 5.28564 12.7322 5.28699 12.7322C5.28835 12.7322 5.28969 12.7322 5.29103 12.7322C5.29237 12.7322 5.2937 12.7322 5.29503 12.7322C5.29635 12.7322 5.29766 12.7322 5.29897 12.7322C5.30028 12.7322 5.30158 12.7322 5.30287 12.7322C5.30416 12.7322 5.30545 12.7322 5.30672 12.7322C5.308 12.7322 5.30927 12.7322 5.31053 12.7322C5.31179 12.7322 5.31304 12.7322 5.31429 12.7322C5.31554 12.7322 5.31677 12.7322 5.318 12.7322C5.31923 12.7322 5.32045 12.7322 5.32167 12.7322C5.32288 12.7322 5.32409 12.7322 5.32528 12.7322C5.32648 12.7322 5.32767 12.7322 5.32885 12.7322C5.33004 12.7322 5.33121 12.7322 5.33238 12.7322C5.33354 12.7322 5.3347 12.7322 5.33585 12.7322C5.337 12.7322 5.33814 12.7322 5.33928 12.7322C5.34041 12.7322 5.34154 12.7322 5.34265 12.7322C5.34377 12.7322 5.34488 12.7322 5.34598 12.7322C5.34709 12.7322 5.34818 12.7322 5.34926 12.7322C5.35035 12.7322 5.35143 12.7322 5.3525 12.7322C5.35357 12.7322 5.35463 12.7322 5.35568 12.7322C5.35673 12.7322 5.35778 12.7322 5.35881 12.7322C5.35985 12.7322 5.36088 12.7322 5.3619 12.7322C5.36292 12.7322 5.36393 12.7322 5.36494 12.7322C5.36594 12.7322 5.36694 12.7322 5.36792 12.7322C5.36891 12.7322 5.36989 12.7322 5.37086 12.7322C5.37183 12.7322 5.37279 12.7322 5.37375 12.7322C5.3747 12.7322 5.37565 12.7322 5.37658 12.7322C5.37752 12.7322 5.37845 12.7322 5.37937 12.7322C5.38029 12.7322 5.3812 12.7322 5.38211 12.7322C5.38301 12.7322 5.38391 12.7322 5.38479 12.7322C5.38568 12.7322 5.38656 12.7322 5.38743 12.7322C5.3883 12.7322 5.38916 12.7322 5.39002 12.7322C5.39087 12.7322 5.39171 12.7322 5.39255 12.7322C5.39339 12.7322 5.39421 12.7322 5.39503 12.7322C5.39585 12.7322 5.39666 12.7322 5.39747 12.7322C5.39827 12.7322 5.39906 12.7322 5.39985 12.7322C5.40063 12.7322 5.40141 12.7322 5.40218 12.7322C5.40294 12.7322 5.4037 12.7322 5.40445 12.7322C5.40521 12.7322 5.40595 12.7322 5.40668 12.7322C5.40741 12.7322 5.40814 12.7322 5.40885 12.7322C5.40957 12.7322 5.41028 12.7322 5.41098 12.7322C5.41168 12.7322 5.41237 12.7322 5.41305 12.7322C5.41373 12.7322 5.4144 12.7322 5.41506 12.7322C5.41573 12.7322 5.41638 12.7322 5.41703 12.7322C5.41768 12.7322 5.41831 12.7322 5.41894 12.7322C5.41957 12.7322 5.42019 12.7322 5.4208 12.7322C5.42141 12.7322 5.42201 12.7322 5.42261 12.7322C5.4232 12.7322 5.42379 12.7322 5.42436 12.7322C5.42494 12.7322 5.4255 12.7322 5.42606 12.7322C5.42662 12.7322 5.42717 12.7322 5.42771 12.7322C5.42825 12.7322 5.42878 12.7322 5.4293 12.7322C5.42982 12.7322 5.43034 12.7322 5.43084 12.7322C5.43134 12.7322 5.43184 12.7322 5.43233 12.7322C5.43281 12.7322 5.43329 12.7322 5.43376 12.7322C5.43422 12.7322 5.43468 12.7322 5.43513 12.7322C5.43558 12.7322 5.43602 12.7322 5.43646 12.7322C5.43689 12.7322 5.43731 12.7322 5.43772 12.7322C5.43814 12.7322 5.43854 12.7322 5.43894 12.7322C5.43933 12.7322 5.43972 12.7322 5.4401 12.7322C5.44047 12.7322 5.44084 12.7322 5.4412 12.7322C5.44156 12.7322 5.44191 12.7322 5.44225 12.7322C5.44259 12.7322 5.44292 12.7322 5.44324 12.7322C5.44356 12.7322 5.44387 12.7322 5.44418 12.7322C5.44448 12.7322 5.44478 12.7322 5.44506 12.7322C5.44534 12.7322 5.44562 12.7322 5.44589 12.7322C5.44615 12.7322 5.44641 12.7322 5.44666 12.7322C5.4469 12.7322 5.44714 12.7322 5.44737 12.7322C5.4476 12.7322 5.44782 12.7322 5.44803 12.7322C5.44824 12.7322 5.44844 12.7322 5.44863 12.7322C5.44882 12.7322 5.449 12.7322 5.44917 12.7322C5.44935 12.7322 5.44951 12.7322 5.44966 12.7322C5.44982 12.7322 5.44996 12.7322 5.45009 12.7322C5.45023 12.7322 5.45035 12.7322 5.45047 12.7322C5.45058 12.7322 5.45069 12.7322 5.45079 12.7322C5.45088 12.7322 5.45097 12.7322 5.45105 12.7322C5.45112 12.7322 5.45119 12.7322 5.45125 12.7322C5.45131 12.7322 5.45135 12.7322 5.45139 12.7322C5.45143 12.7322 5.45146 12.7322 5.45148 12.7322C5.4515 12.7322 5.45151 12.7322 5.45151 12.2322C5.45151 11.7322 5.4515 11.7322 5.45148 11.7322C5.45146 11.7322 5.45143 11.7322 5.45139 11.7322C5.45135 11.7322 5.45131 11.7322 5.45125 11.7322C5.45119 11.7322 5.45112 11.7322 5.45105 11.7322C5.45097 11.7322 5.45088 11.7322 5.45079 11.7322C5.45069 11.7322 5.45058 11.7322 5.45047 11.7322C5.45035 11.7322 5.45023 11.7322 5.45009 11.7322C5.44996 11.7322 5.44982 11.7322 5.44966 11.7322C5.44951 11.7322 5.44935 11.7322 5.44917 11.7322C5.449 11.7322 5.44882 11.7322 5.44863 11.7322C5.44844 11.7322 5.44824 11.7322 5.44803 11.7322C5.44782 11.7322 5.4476 11.7322 5.44737 11.7322C5.44714 11.7322 5.4469 11.7322 5.44666 11.7322C5.44641 11.7322 5.44615 11.7322 5.44589 11.7322C5.44562 11.7322 5.44534 11.7322 5.44506 11.7322C5.44478 11.7322 5.44448 11.7322 5.44418 11.7322C5.44387 11.7322 5.44356 11.7322 5.44324 11.7322C5.44292 11.7322 5.44259 11.7322 5.44225 11.7322C5.44191 11.7322 5.44156 11.7322 5.4412 11.7322C5.44084 11.7322 5.44047 11.7322 5.4401 11.7322C5.43972 11.7322 5.43933 11.7322 5.43894 11.7322C5.43854 11.7322 5.43814 11.7322 5.43772 11.7322C5.43731 11.7322 5.43689 11.7322 5.43646 11.7322C5.43602 11.7322 5.43558 11.7322 5.43513 11.7322C5.43468 11.7322 5.43422 11.7322 5.43376 11.7322C5.43329 11.7322 5.43281 11.7322 5.43233 11.7322C5.43184 11.7322 5.43134 11.7322 5.43084 11.7322C5.43034 11.7322 5.42982 11.7322 5.4293 11.7322C5.42878 11.7322 5.42825 11.7322 5.42771 11.7322C5.42717 11.7322 5.42662 11.7322 5.42606 11.7322C5.4255 11.7322 5.42494 11.7322 5.42436 11.7322C5.42379 11.7322 5.4232 11.7322 5.42261 11.7322C5.42201 11.7322 5.42141 11.7322 5.4208 11.7322C5.42019 11.7322 5.41957 11.7322 5.41894 11.7322C5.41831 11.7322 5.41768 11.7322 5.41703 11.7322C5.41638 11.7322 5.41573 11.7322 5.41506 11.7322C5.4144 11.7322 5.41373 11.7322 5.41305 11.7322C5.41237 11.7322 5.41168 11.7322 5.41098 11.7322C5.41028 11.7322 5.40957 11.7322 5.40885 11.7322C5.40814 11.7322 5.40741 11.7322 5.40668 11.7322C5.40595 11.7322 5.40521 11.7322 5.40445 11.7322C5.4037 11.7322 5.40294 11.7322 5.40218 11.7322C5.40141 11.7322 5.40063 11.7322 5.39985 11.7322C5.39906 11.7322 5.39827 11.7322 5.39747 11.7322C5.39666 11.7322 5.39585 11.7322 5.39503 11.7322C5.39421 11.7322 5.39339 11.7322 5.39255 11.7322C5.39171 11.7322 5.39087 11.7322 5.39002 11.7322C5.38916 11.7322 5.3883 11.7322 5.38743 11.7322C5.38656 11.7322 5.38568 11.7322 5.38479 11.7322C5.38391 11.7322 5.38301 11.7322 5.38211 11.7322C5.3812 11.7322 5.38029 11.7322 5.37937 11.7322C5.37845 11.7322 5.37752 11.7322 5.37658 11.7322C5.37565 11.7322 5.3747 11.7322 5.37375 11.7322C5.37279 11.7322 5.37183 11.7322 5.37086 11.7322C5.36989 11.7322 5.36891 11.7322 5.36792 11.7322C5.36694 11.7322 5.36594 11.7322 5.36494 11.7322C5.36393 11.7322 5.36292 11.7322 5.3619 11.7322C5.36088 11.7322 5.35985 11.7322 5.35881 11.7322C5.35778 11.7322 5.35673 11.7322 5.35568 11.7322C5.35463 11.7322 5.35357 11.7322 5.3525 11.7322C5.35143 11.7322 5.35035 11.7322 5.34926 11.7322C5.34818 11.7322 5.34709 11.7322 5.34598 11.7322C5.34488 11.7322 5.34377 11.7322 5.34265 11.7322C5.34154 11.7322 5.34041 11.7322 5.33928 11.7322C5.33814 11.7322 5.337 11.7322 5.33585 11.7322C5.3347 11.7322 5.33354 11.7322 5.33238 11.7322C5.33121 11.7322 5.33004 11.7322 5.32885 11.7322C5.32767 11.7322 5.32648 11.7322 5.32528 11.7322C5.32409 11.7322 5.32288 11.7322 5.32167 11.7322C5.32045 11.7322 5.31923 11.7322 5.318 11.7322C5.31677 11.7322 5.31554 11.7322 5.31429 11.7322C5.31304 11.7322 5.31179 11.7322 5.31053 11.7322C5.30927 11.7322 5.308 11.7322 5.30672 11.7322C5.30545 11.7322 5.30416 11.7322 5.30287 11.7322C5.30158 11.7322 5.30028 11.7322 5.29897 11.7322C5.29766 11.7322 5.29635 11.7322 5.29503 11.7322C5.2937 11.7322 5.29237 11.7322 5.29103 11.7322C5.28969 11.7322 5.28835 11.7322 5.28699 11.7322C5.28564 11.7322 5.28428 11.7322 5.28291 11.7322C5.28154 11.7322 5.28016 11.7322 5.27878 11.7322C5.27739 11.7322 5.276 11.7322 5.2746 11.7322C5.2732 11.7322 5.27179 11.7322 5.27038 11.7322C5.26896 11.7322 5.26754 11.7322 5.26611 11.7322C5.26468 11.7322 5.26324 11.7322 5.2618 11.7322C5.26035 11.7322 5.2589 11.7322 5.25744 11.7322C5.25598 11.7322 5.25451 11.7322 5.25304 11.7322C5.25156 11.7322 5.25008 11.7322 5.24859 11.7322C5.2471 11.7322 5.2456 11.7322 5.2441 11.7322C5.24259 11.7322 5.24108 11.7322 5.23956 11.7322C5.23804 11.7322 5.23651 11.7322 5.23498 11.7322C5.23344 11.7322 5.2319 11.7322 5.23035 11.7322C5.2288 11.7322 5.22725 11.7322 5.22568 11.7322C5.22412 11.7322 5.22255 11.7322 5.22097 11.7322C5.21939 11.7322 5.2178 11.7322 5.21621 11.7322C5.21462 11.7322 5.21302 11.7322 5.21141 11.7322C5.2098 11.7322 5.20819 11.7322 5.20657 11.7322C5.20494 11.7322 5.20332 11.7322 5.20168 11.7322C5.20004 11.7322 5.1984 11.7322 5.19675 11.7322C5.1951 11.7322 5.19344 11.7322 5.19177 11.7322C5.19011 11.7322 5.18844 11.7322 5.18676 11.7322C5.18508 11.7322 5.18339 11.7322 5.1817 11.7322C5.18 11.7322 5.1783 11.7322 5.1766 11.7322C5.17489 11.7322 5.17317 11.7322 5.17145 11.7322C5.16973 11.7322 5.168 11.7322 5.16627 11.7322C5.16453 11.7322 5.16279 11.7322 5.16104 11.7322C5.15929 11.7322 5.15753 11.7322 5.15577 11.7322C5.154 11.7322 5.15223 11.7322 5.15045 11.7322C5.14868 11.7322 5.14689 11.7322 5.1451 11.7322C5.14331 11.7322 5.14151 11.7322 5.13971 11.7322C5.1379 11.7322 5.13609 11.7322 5.13427 11.7322C5.13245 11.7322 5.13063 11.7322 5.12879 11.7322C5.12696 11.7322 5.12512 11.7322 5.12327 11.7322C5.12143 11.7322 5.11957 11.7322 5.11771 11.7322C5.11585 11.7322 5.11399 11.7322 5.11211 11.7322C5.11024 11.7322 5.10836 11.7322 5.10647 11.7322C5.10459 11.7322 5.10269 11.7322 5.10079 11.7322C5.09889 11.7322 5.09699 11.7322 5.09507 11.7322C5.09316 11.7322 5.09124 11.7322 5.08931 11.7322C5.08738 11.7322 5.08545 11.7322 5.08351 11.7322C5.08157 11.7322 5.07962 11.7322 5.07767 11.7322C5.07572 11.7322 5.07376 11.7322 5.07179 11.7322C5.06982 11.7322 5.06785 11.7322 5.06587 11.7322C5.06389 11.7322 5.0619 11.7322 5.05991 11.7322C5.05792 11.7322 5.05592 11.7322 5.05391 11.7322C5.05191 11.7322 5.04989 11.7322 5.04788 11.7322C5.04586 11.7322 5.04383 11.7322 5.0418 11.7322C5.03977 11.7322 5.03773 11.7322 5.03568 11.7322C5.03364 11.7322 5.03159 11.7322 5.02953 11.7322C5.02747 11.7322 5.02541 11.7322 5.02334 11.7322C5.02127 11.7322 5.01919 11.7322 5.01711 11.7322C5.01503 11.7322 5.01294 11.7322 5.01084 11.7322C5.00875 11.7322 5.00665 11.7322 5.00454 11.7322C5.00243 11.7322 5.00031 11.7322 4.99819 11.7322C4.99607 11.7322 4.99395 11.7322 4.99181 11.7322C4.98968 11.7322 4.98754 11.7322 4.9854 11.7322C4.98325 11.7322 4.9811 11.7322 4.97894 11.7322C4.97678 11.7322 4.97462 11.7322 4.97245 11.7322C4.97028 11.7322 4.9681 11.7322 4.96592 11.7322C4.96373 11.7322 4.96155 11.7322 4.95935 11.7322C4.95716 11.7322 4.95495 11.7322 4.95275 11.7322C4.95054 11.7322 4.94833 11.7322 4.94611 11.7322C4.94389 11.7322 4.94166 11.7322 4.93943 11.7322C4.9372 11.7322 4.93496 11.7322 4.93272 11.7322C4.93048 11.7322 4.92823 11.7322 4.92597 11.7322C4.92372 11.7322 4.92146 11.7322 4.91919 11.7322C4.91692 11.7322 4.91465 11.7322 4.91237 11.7322C4.91009 11.7322 4.9078 11.7322 4.90551 11.7322C4.90322 11.7322 4.90092 11.7322 4.89862 11.7322C4.89632 11.7322 4.89401 11.7322 4.8917 11.7322C4.88938 11.7322 4.88706 11.7322 4.88473 11.7322C4.88241 11.7322 4.88008 11.7322 4.87774 11.7322C4.8754 11.7322 4.87306 11.7322 4.87071 11.7322C4.86836 11.7322 4.866 11.7322 4.86364 11.7322C4.86128 11.7322 4.85891 11.7322 4.85654 11.7322C4.85417 11.7322 4.85179 11.7322 4.84941 11.7322C4.84702 11.7322 4.84463 11.7322 4.84224 11.7322C4.83984 11.7322 4.83744 11.7322 4.83504 11.7322C4.83263 11.7322 4.83022 11.7322 4.8278 11.7322C4.82538 11.7322 4.82296 11.7322 4.82053 11.7322C4.8181 11.7322 4.81567 11.7322 4.81323 11.7322C4.81079 11.7322 4.80834 11.7322 4.80589 11.7322C4.80344 11.7322 4.80098 11.7322 4.79852 11.7322C4.79606 11.7322 4.79359 11.7322 4.79111 11.7322C4.78864 11.7322 4.78616 11.7322 4.78368 11.7322C4.78119 11.7322 4.7787 11.7322 4.77621 11.7322C4.77371 11.7322 4.77121 11.7322 4.76871 11.7322C4.7662 11.7322 4.76369 11.7322 4.76117 11.7322C4.75866 11.7322 4.75613 11.7322 4.75361 11.7322C4.75108 11.7322 4.74854 11.7322 4.74601 11.7322C4.74347 11.7322 4.74092 11.7322 4.73838 11.7322C4.73583 11.7322 4.73327 11.7322 4.73071 11.7322C4.72815 11.7322 4.72559 11.7322 4.72302 11.7322C4.72045 11.7322 4.71787 11.7322 4.71529 11.7322C4.71271 11.7322 4.71013 11.7322 4.70753 11.7322C4.70494 11.7322 4.70235 11.7322 4.69975 11.7322C4.69714 11.7322 4.69454 11.7322 4.69193 11.7322C4.68931 11.7322 4.6867 11.7322 4.68407 11.7322C4.68145 11.7322 4.67882 11.7322 4.67619 11.7322C4.67356 11.7322 4.67092 11.7322 4.66828 11.7322C4.66564 11.7322 4.66299 11.7322 4.66034 11.7322C4.65768 11.7322 4.65503 11.7322 4.65236 11.7322C4.6497 11.7322 4.64703 11.7322 4.64436 11.7322C4.64169 11.7322 4.63901 11.7322 4.63633 11.7322C4.63364 11.7322 4.63096 11.7322 4.62826 11.7322C4.62557 11.7322 4.62287 11.7322 4.62017 11.7322C4.61747 11.7322 4.61476 11.7322 4.61205 11.7322C4.60934 11.7322 4.60662 11.7322 4.6039 11.7322C4.60117 11.7322 4.59845 11.7322 4.59572 11.7322C4.59298 11.7322 4.59025 11.7322 4.58751 11.7322C4.58476 11.7322 4.58202 11.7322 4.57927 11.7322C4.57652 11.7322 4.57376 11.7322 4.571 11.7322C4.56824 11.7322 4.56547 11.7322 4.5627 11.7322C4.55993 11.7322 4.55716 11.7322 4.55438 11.7322C4.5516 11.7322 4.54881 11.7322 4.54602 11.7322C4.54323 11.7322 4.54044 11.7322 4.53764 11.7322C4.53484 11.7322 4.53204 11.7322 4.52923 11.7322C4.52642 11.7322 4.52361 11.7322 4.52079 11.7322C4.51798 11.7322 4.51516 11.7322 4.51233 11.7322C4.5095 11.7322 4.50667 11.7322 4.50384 11.7322C4.501 11.7322 4.49816 11.7322 4.49532 11.7322C4.49247 11.7322 4.48962 11.7322 4.48677 11.7322C4.48392 11.7322 4.48106 11.7322 4.47819 11.7322C4.47533 11.7322 4.47247 11.7322 4.46959 11.7322C4.46672 11.7322 4.46385 11.7322 4.46097 11.7322C4.45808 11.7322 4.4552 11.7322 4.45231 11.7322C4.44942 11.7322 4.44653 11.7322 4.44363 11.7322C4.44073 11.7322 4.43783 11.7322 4.43492 11.7322C4.43201 11.7322 4.4291 11.7322 4.42619 11.7322C4.42327 11.7322 4.42035 11.7322 4.41743 11.7322C4.4145 11.7322 4.41157 11.7322 4.40864 11.7322C4.40571 11.7322 4.40277 11.7322 4.39983 11.7322C4.39689 11.7322 4.39394 11.7322 4.39099 11.7322C4.38804 11.7322 4.38509 11.7322 4.38213 11.7322C4.37917 11.7322 4.37621 11.7322 4.37324 11.7322C4.37028 11.7322 4.36731 11.7322 4.36433 11.7322C4.36136 11.7322 4.35838 11.7322 4.35539 11.7322C4.35241 11.7322 4.34942 11.7322 4.34643 11.7322C4.34344 11.7322 4.34044 11.7322 4.33744 11.7322C4.33444 11.7322 4.33144 11.7322 4.32843 11.7322C4.32542 11.7322 4.32241 11.7322 4.3194 11.7322C4.31638 11.7322 4.31336 11.7322 4.31034 11.7322C4.30731 11.7322 4.30428 11.7322 4.30125 11.7322C4.29822 11.7322 4.29519 11.7322 4.29215 11.7322C4.28911 11.7322 4.28606 11.7322 4.28301 11.7322C4.27997 11.7322 4.27691 11.7322 4.27386 11.7322C4.2708 11.7322 4.26774 11.7322 4.26468 11.7322C4.26162 11.7322 4.25855 11.7322 4.25548 11.7322C4.25241 11.7322 4.24933 11.7322 4.24625 11.7322C4.24317 11.7322 4.24009 11.7322 4.23701 11.7322C4.23392 11.7322 4.23083 11.7322 4.22774 11.7322C4.22464 11.7322 4.22154 11.7322 4.21844 11.7322C4.21534 11.7322 4.21224 11.7322 4.20913 11.7322C4.20602 11.7322 4.20291 11.7322 4.19979 11.7322C4.19667 11.7322 4.19355 11.7322 4.19043 11.7322C4.18731 11.7322 4.18418 11.7322 4.18105 11.7322C4.17792 11.7322 4.17478 11.7322 4.17164 11.7322C4.1685 11.7322 4.16536 11.7322 4.16222 11.7322C4.15907 11.7322 4.15592 11.7322 4.15277 11.7322C4.14962 11.7322 4.14646 11.7322 4.1433 11.7322C4.14014 11.7322 4.13698 11.7322 4.13381 11.7322C4.13065 11.7322 4.12748 11.7322 4.1243 11.7322C4.12113 11.7322 4.11795 11.7322 4.11477 11.7322C4.11159 11.7322 4.1084 11.7322 4.10522 11.7322C4.10203 11.7322 4.09884 11.7322 4.09564 11.7322C4.09245 11.7322 4.08925 11.7322 4.08605 11.7322C4.08285 11.7322 4.07964 11.7322 4.07644 11.7322C4.07323 11.7322 4.07002 11.7322 4.0668 11.7322C4.06359 11.7322 4.06037 11.7322 4.05715 11.7322C4.05393 11.7322 4.0507 11.7322 4.04747 11.7322C4.04425 11.7322 4.04102 11.7322 4.03778 11.7322C4.03455 11.7322 4.03131 11.7322 4.02807 11.7322C4.02483 11.7322 4.02158 11.7322 4.01834 11.7322C4.01509 11.7322 4.01184 11.7322 4.00858 11.7322C4.00533 11.7322 4.00207 11.7322 3.99881 11.7322C3.99555 11.7322 3.99229 11.7322 3.98902 11.7322C3.98576 11.7322 3.98249 11.7322 3.97921 11.7322C3.97594 11.7322 3.97267 11.7322 3.96939 11.7322C3.96611 11.7322 3.96283 11.7322 3.95954 11.7322C3.95626 11.7322 3.95297 11.7322 3.94968 11.7322C3.94639 11.7322 3.94309 11.7322 3.9398 11.7322C3.9365 11.7322 3.9332 11.7322 3.9299 11.7322C3.92659 11.7322 3.92329 11.7322 3.91998 11.7322C3.91667 11.7322 3.91336 11.7322 3.91004 11.7322C3.90673 11.7322 3.90341 11.7322 3.90009 11.7322C3.89677 11.7322 3.89345 11.7322 3.89012 11.7322C3.88679 11.7322 3.88346 11.7322 3.88013 11.7322C3.8768 11.7322 3.87346 11.7322 3.87013 11.7322C3.86679 11.7322 3.86345 11.7322 3.8601 11.7322C3.85676 11.7322 3.85342 11.7322 3.85007 11.7322C3.84672 11.7322 3.84337 11.7322 3.84001 11.7322C3.83666 11.7322 3.8333 11.7322 3.82994 11.7322C3.82658 11.7322 3.82322 11.7322 3.81985 11.7322C3.81649 11.7322 3.81312 11.7322 3.80975 11.7322C3.80638 11.7322 3.803 11.7322 3.79963 11.7322C3.79625 11.7322 3.79287 11.7322 3.78949 11.7322C3.78611 11.7322 3.78273 11.7322 3.77934 11.7322C3.77595 11.7322 3.77257 11.7322 3.76917 11.7322C3.76578 11.7322 3.76239 11.7322 3.75899 11.7322C3.7556 11.7322 3.7522 11.7322 3.74879 11.7322C3.74539 11.7322 3.74199 11.7322 3.73858 11.7322C3.73518 11.7322 3.73177 11.7322 3.72835 11.7322C3.72494 11.7322 3.72153 11.7322 3.71811 11.7322C3.7147 11.7322 3.71128 11.7322 3.70786 11.7322C3.70443 11.7322 3.70101 11.7322 3.69758 11.7322C3.69416 11.7322 3.69073 11.7322 3.6873 11.7322C3.68387 11.7322 3.68043 11.7322 3.677 11.7322C3.67356 11.7322 3.67013 11.7322 3.66668 11.7322C3.66324 11.7322 3.6598 11.7322 3.65636 11.7322C3.65291 11.7322 3.64947 11.7322 3.64602 11.7322C3.64257 11.7322 3.63912 11.7322 3.63566 11.7322C3.63221 11.7322 3.62875 11.7322 3.62529 11.7322C3.62183 11.7322 3.61837 11.7322 3.61491 11.7322C3.61145 11.7322 3.60798 11.7322 3.60452 11.7322C3.60105 11.7322 3.59758 11.7322 3.59411 11.7322C3.59064 11.7322 3.58717 11.7322 3.58369 11.7322C3.58021 11.7322 3.57674 11.7322 3.57326 11.7322C3.56978 11.7322 3.5663 11.7322 3.56281 11.7322C3.55933 11.7322 3.55584 11.7322 3.55236 11.7322C3.54887 11.7322 3.54538 11.7322 3.54189 11.7322C3.53839 11.7322 3.5349 11.7322 3.5314 11.7322C3.52791 11.7322 3.52441 11.7322 3.52091 11.7322C3.51741 11.7322 3.51391 11.7322 3.51041 11.7322C3.5069 11.7322 3.5034 11.7322 3.49989 11.7322C3.49638 11.7322 3.49287 11.7322 3.48936 11.7322C3.48585 11.7322 3.48234 11.7322 3.47882 11.7322C3.47531 11.7322 3.47179 11.7322 3.46827 11.7322C3.46475 11.7322 3.46123 11.7322 3.45771 11.7322C3.45419 11.7322 3.45066 11.7322 3.44714 11.7322C3.44361 11.7322 3.44009 11.7322 3.43656 11.7322C3.43303 11.7322 3.4295 11.7322 3.42596 11.7322C3.42243 11.7322 3.4189 11.7322 3.41536 11.7322C3.41182 11.7322 3.40829 11.7322 3.40475 11.7322C3.40121 11.7322 3.39767 11.7322 3.39412 11.7322C3.39058 11.7322 3.38704 11.7322 3.38349 11.7322C3.37995 11.7322 3.3764 11.7322 3.37285 11.7322C3.3693 11.7322 3.36575 11.7322 3.3622 11.7322C3.35864 11.7322 3.35509 11.7322 3.35154 11.7322C3.34798 11.7322 3.34442 11.7322 3.34086 11.7322C3.33731 11.7322 3.33375 11.7322 3.33018 11.7322C3.32662 11.7322 3.32306 11.7322 3.3195 11.7322C3.31593 11.7322 3.31237 11.7322 3.3088 11.7322C3.30523 11.7322 3.30166 11.7322 3.29809 11.7322C3.29452 11.7322 3.29095 11.7322 3.28738 11.7322C3.28381 11.7322 3.28023 11.7322 3.27666 11.7322C3.27308 11.7322 3.2695 11.7322 3.26592 11.7322C3.26235 11.7322 3.25877 11.7322 3.25519 11.7322C3.2516 11.7322 3.24802 11.7322 3.24444 11.7322C3.24086 11.7322 3.23727 11.7322 3.23368 11.7322C3.2301 11.7322 3.22651 11.7322 3.22292 11.7322C3.21933 11.7322 3.21574 11.7322 3.21215 11.7322C3.20856 11.7322 3.20497 11.7322 3.20138 11.7322C3.19778 11.7322 3.19419 11.7322 3.19059 11.7322C3.187 11.7322 3.1834 11.7322 3.1798 11.7322C3.17621 11.7322 3.17261 11.7322 3.16901 11.7322C3.16541 11.7322 3.16181 11.7322 3.1582 11.7322C3.1546 11.7322 3.151 11.7322 3.14739 11.7322C3.14379 11.7322 3.14018 11.7322 3.13658 11.7322C3.13297 11.7322 3.12936 11.7322 3.12575 11.7322C3.12215 11.7322 3.11854 11.7322 3.11493 11.7322C3.11132 11.7322 3.1077 11.7322 3.10409 11.7322C3.10048 11.7322 3.09687 11.7322 3.09325 11.7322C3.08964 11.7322 3.08602 11.7322 3.08241 11.7322C3.07879 11.7322 3.07517 11.7322 3.07156 11.7322C3.06794 11.7322 3.06432 11.7322 3.0607 11.7322C3.05708 11.7322 3.05346 11.7322 3.04984 11.7322C3.04622 11.7322 3.0426 11.7322 3.03897 11.7322C3.03535 11.7322 3.03173 11.7322 3.0281 11.7322C3.02448 11.7322 3.02085 11.7322 3.01723 11.7322C3.0136 11.7322 3.00997 11.7322 3.00635 11.7322C3.00272 11.7322 2.99909 11.7322 2.99546 11.7322C2.99184 11.7322 2.98821 11.7322 2.98458 11.7322C2.98095 11.7322 2.97732 11.7322 2.97368 11.7322C2.97005 11.7322 2.96642 11.7322 2.96279 11.7322C2.95916 11.7322 2.95552 11.7322 2.95189 11.7322C2.94826 11.7322 2.94462 11.7322 2.94099 11.7322C2.93735 11.7322 2.93372 11.7322 2.93008 11.7322C2.92644 11.7322 2.92281 11.7322 2.91917 11.7322C2.91553 11.7322 2.9119 11.7322 2.90826 11.7322C2.90462 11.7322 2.90098 11.7322 2.89734 11.7322C2.8937 11.7322 2.89006 11.7322 2.88642 11.7322C2.88278 11.7322 2.87914 11.7322 2.8755 11.7322C2.87186 11.7322 2.86822 11.7322 2.86458 11.7322C2.86094 11.7322 2.8573 11.7322 2.85366 11.7322C2.85001 11.7322 2.84637 11.7322 2.84273 11.7322C2.83909 11.7322 2.83544 11.7322 2.8318 11.7322C2.82816 11.7322 2.82451 11.7322 2.82087 11.7322C2.81722 11.7322 2.81358 11.7322 2.80993 11.7322C2.80629 11.7322 2.80265 11.7322 2.799 11.7322C2.79536 11.7322 2.79171 11.7322 2.78806 11.7322C2.78442 11.7322 2.78077 11.7322 2.77713 11.7322C2.77348 11.7322 2.76984 11.7322 2.76619 11.7322C2.76254 11.7322 2.7589 11.7322 2.75525 11.7322C2.75161 11.7322 2.74796 11.7322 2.74431 11.7322C2.74067 11.7322 2.73702 11.7322 2.73337 11.7322C2.72973 11.7322 2.72608 11.7322 2.72243 11.7322C2.71878 11.7322 2.71514 11.7322 2.71149 11.7322C2.70784 11.7322 2.7042 11.7322 2.70055 11.7322C2.6969 11.7322 2.69326 11.7322 2.68961 11.7322C2.68596 11.7322 2.68232 11.7322 2.67867 11.7322C2.67502 11.7322 2.67138 11.7322 2.66773 11.7322C2.66408 11.7322 2.66044 11.7322 2.65679 11.7322C2.65314 11.7322 2.6495 11.7322 2.64585 11.7322C2.6422 11.7322 2.63856 11.7322 2.63491 11.7322C2.63127 11.7322 2.62762 11.7322 2.62397 11.7322C2.62033 11.7322 2.61668 11.7322 2.61304 11.7322C2.60939 11.7322 2.60575 11.7322 2.6021 11.7322C2.59846 11.7322 2.59481 11.7322 2.59117 11.7322C2.58753 11.7322 2.58388 11.7322 2.58024 11.7322C2.57659 11.7322 2.57295 11.7322 2.56931 11.7322C2.56567 11.7322 2.56202 11.7322 2.55838 11.7322C2.55474 11.7322 2.5511 11.7322 2.54745 11.7322C2.54381 11.7322 2.54017 11.7322 2.53653 11.7322C2.53289 11.7322 2.52925 11.7322 2.52561 11.7322C2.52197 11.7322 2.51833 11.7322 2.51469 11.7322C2.51105 11.7322 2.50741 11.7322 2.50377 11.7322C2.50014 11.7322 2.4965 11.7322 2.49286 11.7322C2.48922 11.7322 2.48559 11.7322 2.48195 11.7322C2.47831 11.7322 2.47468 11.7322 2.47104 11.7322C2.46741 11.7322 2.46377 11.7322 2.46014 11.7322C2.4565 11.7322 2.45287 11.7322 2.44924 11.7322C2.4456 11.7322 2.44197 11.7322 2.43834 11.7322C2.43471 11.7322 2.43108 11.7322 2.42745 11.7322C2.42382 11.7322 2.42019 11.7322 2.41656 11.7322C2.41293 11.7322 2.4093 11.7322 2.40567 11.7322C2.40204 11.7322 2.39842 11.7322 2.39479 11.7322C2.39117 11.7322 2.38754 11.7322 2.38391 11.7322C2.38029 11.7322 2.37667 11.7322 2.37304 11.7322C2.36942 11.7322 2.3658 11.7322 2.36217 11.7322C2.35855 11.7322 2.35493 11.7322 2.35131 11.7322C2.34769 11.7322 2.34407 11.7322 2.34045 11.7322C2.33684 11.7322 2.33322 11.7322 2.3296 11.7322C2.32599 11.7322 2.32237 11.7322 2.31875 11.7322C2.31514 11.7322 2.31153 11.7322 2.30791 11.7322C2.3043 11.7322 2.30069 11.7322 2.29708 11.7322C2.29347 11.7322 2.28986 11.7322 2.28625 11.7322C2.28264 11.7322 2.27903 11.7322 2.27542 11.7322C2.27181 11.7322 2.26821 11.7322 2.2646 11.7322C2.261 11.7322 2.25739 11.7322 2.25379 11.7322C2.25019 11.7322 2.24659 11.7322 2.24298 11.7322C2.23938 11.7322 2.23578 11.7322 2.23218 11.7322C2.22859 11.7322 2.22499 11.7322 2.22139 11.7322C2.2178 11.7322 2.2142 11.7322 2.21061 11.7322C2.20701 11.7322 2.20342 11.7322 2.19983 11.7322C2.19624 11.7322 2.19265 11.7322 2.18906 11.7322C2.18547 11.7322 2.18188 11.7322 2.17829 11.7322C2.1747 11.7322 2.17112 11.7322 2.16753 11.7322C2.16395 11.7322 2.16037 11.7322 2.15678 11.7322C2.1532 11.7322 2.14962 11.7322 2.14604 11.7322C2.14246 11.7322 2.13889 11.7322 2.13531 11.7322C2.13173 11.7322 2.12816 11.7322 2.12458 11.7322C2.12101 11.7322 2.11744 11.7322 2.11387 11.7322C2.1103 11.7322 2.10673 11.7322 2.10316 11.7322C2.09959 11.7322 2.09602 11.7322 2.09246 11.7322C2.08889 11.7322 2.08533 11.7322 2.08176 11.7322C2.0782 11.7322 2.07464 11.7322 2.07108 11.7322C2.06752 11.7322 2.06396 11.7322 2.06041 11.7322C2.05685 11.7322 2.0533 11.7322 2.04974 11.7322C2.04619 11.7322 2.04264 11.7322 2.03909 11.7322C2.03554 11.7322 2.03199 11.7322 2.02844 11.7322C2.02489 11.7322 2.02135 11.7322 2.0178 11.7322C2.01426 11.7322 2.01072 11.7322 2.00718 11.7322C2.00364 11.7322 2.0001 11.7322 1.99656 11.7322C1.99302 11.7322 1.98949 11.7322 1.98595 11.7322C1.98242 11.7322 1.97889 11.7322 1.97536 11.7322C1.97183 11.7322 1.9683 11.7322 1.96477 11.7322C1.96124 11.7322 1.95772 11.7322 1.9542 11.7322C1.95067 11.7322 1.94715 11.7322 1.94363 11.7322C1.94011 11.7322 1.93659 11.7322 1.93308 11.7322C1.92956 11.7322 1.92605 11.7322 1.92253 11.7322C1.91902 11.7322 1.91551 11.7322 1.912 11.7322C1.90849 11.7322 1.90499 11.7322 1.90148 11.7322C1.89798 11.7322 1.89447 11.7322 1.89097 11.7322C1.88747 11.7322 1.88397 11.7322 1.88048 11.7322C1.87698 11.7322 1.87348 11.7322 1.86999 11.7322C1.8665 11.7322 1.863 11.7322 1.85952 11.7322C1.85603 11.7322 1.85254 11.7322 1.84905 11.7322C1.84557 11.7322 1.84209 11.7322 1.8386 11.7322C1.83512 11.7322 1.83164 11.7322 1.82817 11.7322C1.82469 11.7322 1.82122 11.7322 1.81774 11.7322C1.81427 11.7322 1.8108 11.7322 1.80733 11.7322C1.80386 11.7322 1.8004 11.7322 1.79693 11.7322C1.79347 11.7322 1.79001 11.7322 1.78655 11.7322C1.78309 11.7322 1.77963 11.7322 1.77617 11.7322C1.77272 11.7322 1.76926 11.7322 1.76581 11.7322C1.76236 11.7322 1.75891 11.7322 1.75547 11.7322C1.75202 11.7322 1.74858 11.7322 1.74513 11.7322C1.74169 11.7322 1.73825 11.7322 1.73482 11.7322C1.73138 11.7322 1.72794 11.7322 1.72451 11.7322C1.72108 11.7322 1.71765 11.7322 1.71422 11.7322C1.71079 11.7322 1.70737 11.7322 1.70394 11.7322C1.70052 11.7322 1.6971 11.7322 1.69368 11.7322C1.69026 11.7322 1.68685 11.7322 1.68343 11.7322C1.68002 11.7322 1.67661 11.7322 1.6732 11.7322C1.66979 11.7322 1.66639 11.7322 1.66298 11.7322C1.65958 11.7322 1.65618 11.7322 1.65278 11.7322C1.64938 11.7322 1.64599 11.7322 1.64259 11.7322C1.6392 11.7322 1.63581 11.7322 1.63242 11.7322C1.62903 11.7322 1.62565 11.7322 1.62226 11.7322C1.61888 11.7322 1.6155 11.7322 1.61212 11.7322C1.60874 11.7322 1.60537 11.7322 1.602 11.7322C1.59862 11.7322 1.59525 11.7322 1.59189 11.7322C1.58852 11.7322 1.58515 11.7322 1.58179 11.7322C1.57843 11.7322 1.57507 11.7322 1.57172 11.7322C1.56836 11.7322 1.56501 11.7322 1.56165 11.7322C1.5583 11.7322 1.55496 11.7322 1.55161 11.7322C1.54826 11.7322 1.54492 11.7322 1.54158 11.7322C1.53824 11.7322 1.53491 11.7322 1.53157 11.7322C1.52824 11.7322 1.52491 11.7322 1.52158 11.7322C1.51825 11.7322 1.51492 11.7322 1.5116 11.7322C1.50828 11.7322 1.50496 11.7322 1.50164 11.7322C1.49833 11.7322 1.49501 11.7322 1.4917 11.7322C1.48839 11.7322 1.48508 11.7322 1.48178 11.7322C1.47847 11.7322 1.47517 11.7322 1.47187 11.7322C1.46857 11.7322 1.46527 11.7322 1.46198 11.7322C1.45869 11.7322 1.4554 11.7322 1.45211 11.7322C1.44882 11.7322 1.44554 11.7322 1.44226 11.7322C1.43898 11.7322 1.4357 11.7322 1.43242 11.7322C1.42915 11.7322 1.42588 11.7322 1.42261 11.7322C1.41934 11.7322 1.41608 11.7322 1.41281 11.7322C1.40955 11.7322 1.40629 11.7322 1.40304 11.7322C1.39978 11.7322 1.39653 11.7322 1.39328 11.7322C1.39003 11.7322 1.38678 11.7322 1.38354 11.7322C1.38029 11.7322 1.37705 11.7322 1.37382 11.7322C1.37058 11.7322 1.36735 11.7322 1.36412 11.7322C1.36089 11.7322 1.35766 11.7322 1.35444 11.7322C1.35121 11.7322 1.34799 11.7322 1.34477 11.7322C1.34156 11.7322 1.33834 11.7322 1.33513 11.7322C1.33192 11.7322 1.32872 11.7322 1.32551 11.7322C1.32231 11.7322 1.31911 11.7322 1.31591 11.7322C1.31271 11.7322 1.30952 11.7322 1.30633 11.7322C1.30314 11.7322 1.29995 11.7322 1.29677 11.7322C1.29359 11.7322 1.29041 11.7322 1.28723 11.7322V12.7322ZM5.45151 12.7322H10.1215V11.7322H5.45151V12.7322ZM5.45151 12.2322C5.45151 12.7322 5.45151 12.7322 5.45151 12.7322C5.45151 12.2322 5.45151 11.7322 5.45151 11.7322V12.7322C5.45151 12.7322 5.45151 12.2322 5.45151 11.7322C5.45151 11.7322 5.45151 11.7322 5.45151 12.2322Z" fill="#666666"/>
</g>
<defs>
<clipPath id="clip0">
<rect width="22.4323" height="14.0886" fill="white" transform="translate(-0.0718994)"/>
</clipPath>
</defs>
</svg>
