<svg width="12" height="20" viewBox="0 0 12 20" fill="none" xmlns="http://www.w3.org/2000/svg">
<path d="M9.75 0.3125H2.25C1.83574 0.312965 1.43858 0.477735 1.14566 0.77066C0.852735 1.06358 0.687965 1.46074 0.6875 1.875V18.125C0.687965 18.5393 0.852735 18.9364 1.14566 19.2293C1.43858 19.5223 1.83574 19.687 2.25 19.6875H9.75C10.1643 19.687 10.5614 19.5223 10.8543 19.2293C11.1473 18.9364 11.312 18.5393 11.3125 18.125V1.875C11.312 1.46074 11.1473 1.06358 10.8543 0.77066C10.5614 0.477735 10.1643 0.312965 9.75 0.3125ZM8.11883 0.9375L7.93133 1.875H4.06871L3.88121 0.9375H8.11883ZM10.6875 18.125C10.6872 18.3736 10.5884 18.6119 10.4126 18.7876C10.2368 18.9634 9.99856 19.0622 9.75 19.0625H2.25C2.00145 19.0622 1.76315 18.9634 1.5874 18.7876C1.41164 18.6119 1.31278 18.3736 1.3125 18.125V1.875C1.31278 1.62645 1.41164 1.38815 1.5874 1.2124C1.76315 1.03664 2.00145 0.937779 2.25 0.9375H3.24379L3.50605 2.24879C3.52022 2.31963 3.5585 2.38337 3.61437 2.42917C3.67024 2.47498 3.74026 2.5 3.8125 2.5H8.1875C8.25974 2.5 8.32976 2.47498 8.38563 2.42917C8.4415 2.38337 8.47978 2.31963 8.49395 2.24879L8.75621 0.9375H9.75C9.99856 0.937779 10.2368 1.03664 10.4126 1.2124C10.5884 1.38815 10.6872 1.62645 10.6875 1.875V18.125Z" fill="black"/>
</svg>
