<svg width="375" height="43" viewBox="0 0 375 43" fill="none" xmlns="http://www.w3.org/2000/svg">
<g clip-path="url(#clip0)">
<path d="M131.814 33.3453C132.318 33.2862 132.761 32.9476 132.795 32.4517C132.798 31.9865 132.454 31.5815 132.014 31.4549C132.048 31.021 131.861 30.5858 131.421 30.4283C130.981 30.2707 130.601 30.5787 130.347 30.9183C129.908 30.7298 129.309 30.6954 128.992 31.0967C128.706 31.4671 128.798 31.9638 129.079 32.3375C128.794 32.6459 128.665 33.1413 128.915 33.5149C129.165 33.8574 129.7 33.9224 130.079 33.8316C130.297 34.2049 130.674 34.4861 131.115 34.3646C131.588 34.2433 131.811 33.7794 131.814 33.3453Z" fill="#FB7C82"/>
<path d="M131.407 32.9709C131.69 32.9415 131.975 32.7571 131.977 32.447C131.978 32.1679 131.759 31.9496 131.507 31.8552C131.541 31.5763 131.416 31.3275 131.164 31.2641C130.913 31.1696 130.66 31.3232 130.533 31.5396C130.282 31.4141 129.935 31.4121 129.745 31.6281C129.586 31.8443 129.616 32.1545 129.804 32.3416C129.614 32.5576 129.549 32.8363 129.705 33.0543C129.83 33.272 130.145 33.3048 130.397 33.2442C130.522 33.462 130.742 33.6183 130.994 33.5577C131.246 33.4661 131.374 33.2188 131.407 32.9709Z" fill="#FABEC0"/>
<path d="M144.561 38.6683C145.787 38.5244 146.864 37.7011 146.947 36.4951C146.954 35.3641 146.117 34.3791 145.046 34.0714C145.129 33.0162 144.676 31.958 143.605 31.5748C142.535 31.1917 141.612 31.9405 140.995 32.7665C139.925 32.3079 138.47 32.2243 137.699 33.2001C137.004 34.101 137.227 35.3088 137.911 36.2175C137.218 36.9676 136.904 38.1723 137.512 39.0806C138.12 39.9135 139.421 40.0717 140.342 39.8507C140.872 40.7586 141.788 41.4424 142.862 41.1469C144.012 40.8519 144.555 39.7239 144.561 38.6683Z" fill="#FB7C82"/>
<path d="M143.57 37.7571C144.259 37.6857 144.951 37.2372 144.956 36.4832C144.959 35.8045 144.426 35.2737 143.815 35.044C143.895 34.3658 143.592 33.7609 142.981 33.6066C142.369 33.3769 141.754 33.7504 141.445 34.2765C140.834 33.9714 139.991 33.9666 139.529 34.4918C139.143 35.0174 139.215 35.7719 139.672 36.2269C139.21 36.7521 139.053 37.4298 139.433 37.9598C139.736 38.4894 140.501 38.5691 141.115 38.4218C141.418 38.9514 141.952 39.3314 142.566 39.1841C143.18 38.9614 143.49 38.3599 143.57 37.7571Z" fill="#FABEC0"/>
<path d="M143.122 35.7191C142.742 35.1893 141.977 34.9588 141.439 35.3326C140.825 35.706 140.667 36.459 141.047 36.9888C141.427 37.5186 142.192 37.6737 142.729 37.3753C143.344 37.0019 143.502 36.2489 143.122 35.7191Z" fill="#FB7C82"/>
<path d="M147.923 33.2649C148.87 33.1539 149.702 32.5183 149.766 31.5872C149.771 30.7141 149.125 29.9536 148.298 29.7161C148.362 28.9014 148.012 28.0845 147.186 27.7887C146.36 27.4929 145.647 28.071 145.17 28.7086C144.344 28.3547 143.221 28.29 142.626 29.0434C142.09 29.7389 142.262 30.6713 142.79 31.3729C142.254 31.952 142.013 32.882 142.482 33.5833C142.951 34.2263 143.955 34.3484 144.666 34.1778C145.076 34.8787 145.782 35.4067 146.612 35.1785C147.5 34.9507 147.919 34.0799 147.923 33.2649Z" fill="#FB7C82"/>
<path d="M147.158 32.5615C147.691 32.5063 148.225 32.1601 148.228 31.578C148.231 31.0541 147.82 30.6442 147.348 30.4669C147.41 29.9433 147.176 29.4763 146.703 29.3572C146.231 29.1799 145.757 29.4682 145.518 29.8744C145.046 29.6388 144.396 29.6351 144.039 30.0406C143.741 30.4464 143.796 31.0288 144.149 31.3801C143.792 31.7856 143.671 32.3088 143.964 32.718C144.198 33.1268 144.789 33.1884 145.263 33.0747C145.497 33.4835 145.91 33.7769 146.383 33.6632C146.857 33.4912 147.096 33.0269 147.158 32.5615Z" fill="#FABEC0"/>
<path d="M146.812 30.9882C146.519 30.5791 145.929 30.4012 145.514 30.6898C145.039 30.9781 144.917 31.5594 145.211 31.9684C145.504 32.3775 146.094 32.4972 146.509 32.2668C146.984 31.9785 147.106 31.3972 146.812 30.9882Z" fill="#FB7C82"/>
<path d="M152.409 39.0606C153.101 38.9795 153.708 38.5152 153.755 37.835C153.759 37.1972 153.287 36.6417 152.683 36.4681C152.73 35.873 152.474 35.2762 151.87 35.0602C151.267 34.8441 150.746 35.2664 150.398 35.7322C149.795 35.4736 148.974 35.4264 148.539 35.9768C148.147 36.4848 148.273 37.166 148.659 37.6785C148.268 38.1015 148.091 38.7809 148.434 39.2931C148.777 39.7629 149.51 39.8521 150.03 39.7275C150.329 40.2395 150.845 40.6251 151.451 40.4585C152.1 40.2921 152.406 39.6559 152.409 39.0606Z" fill="#FB7C82"/>
<path d="M151.85 38.5468C152.239 38.5065 152.629 38.2536 152.632 37.8283C152.634 37.4456 152.333 37.1462 151.988 37.0167C152.034 36.6342 151.863 36.293 151.518 36.206C151.173 36.0765 150.826 36.2871 150.652 36.5838C150.307 36.4118 149.832 36.4091 149.571 36.7052C149.354 37.0017 149.394 37.4272 149.652 37.6838C149.391 37.98 149.303 38.3622 149.517 38.6611C149.688 38.9597 150.12 39.0047 150.466 38.9217C150.637 39.2203 150.938 39.4346 151.284 39.3516C151.63 39.226 151.805 38.8867 151.85 38.5468Z" fill="#FABEC0"/>
<path d="M151.597 37.3974C151.383 37.0986 150.952 36.9686 150.649 37.1795C150.302 37.3901 150.213 37.8147 150.427 38.1135C150.642 38.4123 151.073 38.4998 151.376 38.3315C151.723 38.1209 151.812 37.6962 151.597 37.3974Z" fill="#FB7C82"/>
<path d="M77.7739 2.45939L77.7161 12.606C73.5914 16.4084 63.7477 23.5383 57.3709 21.639C53.8063 20.5773 52.6594 16.4972 45.3605 12.9624C39.5472 11.4322 37.9643 11.8807 34.3324 7.03608C30.6335 6.64076 15.5823 8.86066 8.64262 15.2669" stroke="#7F7053" stroke-width="1.3" stroke-miterlimit="4.13357"/>
<path d="M79.7719 2.13794L90.3503 14.0084" stroke="#7F7053" stroke-width="1.2"/>
<g clip-path="url(#clip1)">
<path d="M39.7344 22.2238C40.3648 22.1499 40.9184 21.7267 40.9613 21.1067C40.9646 20.5254 40.5344 20.019 39.9841 19.8608C40.0266 19.3184 39.7934 18.7745 39.2434 18.5775C38.6933 18.3806 38.2187 18.7655 37.9013 19.1901C37.3514 18.9544 36.6036 18.9114 36.2071 19.413C35.8501 19.8761 35.9647 20.4969 36.3164 20.964C35.9598 21.3496 35.7988 21.9688 36.1111 22.4357C36.4237 22.8639 37.0925 22.9452 37.5656 22.8316C37.8385 23.2983 38.309 23.6498 38.861 23.4979C39.4525 23.3463 39.7314 22.7664 39.7344 22.2238Z" fill="#FBCFD4"/>
<path d="M39.147 21.6778C39.4622 21.6408 39.7785 21.41 39.7802 21.1C39.782 20.7899 39.5473 20.5172 39.2722 20.4382C39.3131 20.1671 39.1965 19.8951 38.8822 19.777C38.6073 19.6592 38.3306 19.8514 38.1718 20.0831C37.8969 19.9652 37.5032 19.963 37.305 20.1944C37.1069 20.4258 37.1836 20.7751 37.3398 21.0086C37.1416 21.24 37.0611 21.5496 37.2566 21.7833C37.4128 22.0167 37.7671 22.0188 38.0035 21.9814C38.1597 22.2148 38.3948 22.4099 38.7102 22.3342C38.9862 22.2583 39.1455 21.9491 39.147 21.6778Z" fill="#EA585E"/>
</g>
<g clip-path="url(#clip2)">
<path d="M25.7459 3.41741C26.3763 3.34348 26.9299 2.92026 26.9728 2.30034C26.9761 1.71896 26.5459 1.21262 25.9956 1.05445C26.038 0.512049 25.8049 -0.0319219 25.2548 -0.228854C24.7048 -0.425786 24.2301 -0.0408836 23.9128 0.383674C23.3629 0.147983 22.6151 0.104967 22.2185 0.606594C21.8616 1.06969 21.9762 1.6905 22.3278 2.15763C21.9713 2.5432 21.8103 3.16245 22.1226 3.62935C22.4351 4.0575 23.104 4.13882 23.5771 4.02523C23.85 4.49191 24.3205 4.84343 24.8725 4.69153C25.4639 4.53986 25.7428 3.96004 25.7459 3.41741Z" fill="#FBCFD4"/>
<path d="M25.1585 2.87138C25.4737 2.83441 25.7899 2.60365 25.7917 2.29358C25.7935 1.98351 25.5588 1.71085 25.2837 1.63176C25.3246 1.36067 25.208 1.08869 24.8937 0.970616C24.6188 0.852771 24.3421 1.045 24.1833 1.27666C23.9084 1.15881 23.5147 1.15657 23.3165 1.388C23.1183 1.61944 23.1951 1.96872 23.3512 2.20217C23.1531 2.4336 23.0726 2.74323 23.2681 2.9769C23.4243 3.21035 23.7786 3.21237 24.015 3.17495C24.1712 3.4084 24.4063 3.60354 24.7217 3.52782C24.9977 3.45187 25.1569 3.14269 25.1585 2.87138Z" fill="#EA585E"/>
</g>
<g clip-path="url(#clip3)">
<path d="M68.1887 24.9142C68.693 24.855 69.1359 24.5164 69.1702 24.0205C69.1728 23.5554 68.8287 23.1503 68.3884 23.0238C68.4224 22.5899 68.2359 22.1547 67.7959 21.9971C67.3558 21.8396 66.9761 22.1475 66.7222 22.4872C66.2823 22.2986 65.6841 22.2642 65.3668 22.6655C65.0812 23.036 65.1729 23.5326 65.4542 23.9063C65.169 24.2148 65.0402 24.7102 65.2901 25.0837C65.5401 25.4262 66.0752 25.4913 66.4536 25.4004C66.672 25.7738 67.0483 26.055 67.49 25.9334C67.9631 25.8121 68.1862 25.3483 68.1887 24.9142Z" fill="#FBCFD4"/>
<path d="M67.7188 24.4774C67.9709 24.4479 68.2239 24.2632 68.2253 24.0152C68.2268 23.7671 68.039 23.549 67.8189 23.4857C67.8516 23.2689 67.7584 23.0513 67.507 22.9568C67.287 22.8625 67.0657 23.0163 66.9386 23.2016C66.7187 23.1074 66.4037 23.1056 66.2452 23.2907C66.0867 23.4759 66.1481 23.7553 66.273 23.9421C66.1144 24.1272 66.05 24.3749 66.2065 24.5618C66.3314 24.7486 66.6148 24.7502 66.804 24.7203C66.9289 24.907 67.117 25.0632 67.3693 25.0026C67.5901 24.9418 67.7175 24.6945 67.7188 24.4774Z" fill="#EA585E"/>
</g>
<g clip-path="url(#clip4)">
<path d="M83.068 19.2622C83.4462 19.2179 83.7783 18.9639 83.8041 18.592C83.8061 18.2431 83.5479 17.9393 83.2178 17.8444C83.2432 17.519 83.1034 17.1926 82.7733 17.0745C82.4433 16.9563 82.1585 17.1872 81.9681 17.442C81.6382 17.3006 81.1895 17.2747 80.9516 17.5757C80.7374 17.8536 80.8061 18.2261 81.0171 18.5063C80.8032 18.7377 80.7066 19.1092 80.894 19.3894C81.0815 19.6463 81.4828 19.6951 81.7667 19.6269C81.9304 19.9069 82.2127 20.1178 82.5439 20.0267C82.8988 19.9357 83.0661 19.5878 83.068 19.2622Z" fill="#FBCFD4"/>
<path d="M82.7155 18.9345C82.9046 18.9124 83.0944 18.7739 83.0954 18.5879C83.0965 18.4018 82.9557 18.2382 82.7906 18.1908C82.8152 18.0281 82.7452 17.8649 82.5567 17.7941C82.3917 17.7234 82.2257 17.8387 82.1304 17.9777C81.9654 17.907 81.7292 17.9057 81.6103 18.0445C81.4914 18.1834 81.5375 18.3929 81.6312 18.533C81.5123 18.6719 81.464 18.8577 81.5813 18.9979C81.675 19.1379 81.8876 19.1391 82.0294 19.1167C82.1231 19.2568 82.2642 19.3738 82.4534 19.3284C82.619 19.2828 82.7146 19.0973 82.7155 18.9345Z" fill="#EA585E"/>
</g>
<path d="M70.6967 17.9888L73.6351 28.2188" stroke="#7F7053" stroke-width="1.2"/>
<path d="M64.0038 25.3362L58.8094 31.9604" stroke="#7F7053"/>
<path d="M54.6943 24.2851L45.0468 24.2302" stroke="#7F7053"/>
<path d="M15.369 11.0026L0.663452 10.9189" stroke="#7F7053" stroke-width="1.2"/>
<path d="M77.4428 18.086C78.7035 17.9382 79.8107 17.0917 79.8965 15.8519C79.9031 14.6891 79.0427 13.6765 77.9421 13.3601C78.027 12.2753 77.5608 11.1874 76.4607 10.7935C75.3605 10.3996 74.4112 11.1695 73.7765 12.0186C72.6768 11.5472 71.1812 11.4612 70.3881 12.4644C69.6741 13.3906 69.9033 14.6322 70.6066 15.5665C69.8936 16.3376 69.5716 17.5761 70.1962 18.5099C70.8212 19.3662 72.1589 19.5289 73.1051 19.3017C73.651 20.235 74.5919 20.9381 75.696 20.6343C76.8788 20.3309 77.4366 19.1713 77.4428 18.086Z" fill="#FB7C82"/>
<path d="M76.4245 17.15C77.1336 17.0766 77.8449 16.6155 77.8493 15.8403C77.8532 15.1426 77.3052 14.5969 76.6766 14.3607C76.7593 13.6635 76.4479 13.0416 75.8188 12.883C75.1902 12.6468 74.5581 13.0308 74.2401 13.5717C73.6119 13.258 72.7458 13.2531 72.2703 13.793C71.8735 14.3334 71.9478 15.109 72.4176 15.5768C71.9421 16.1168 71.7806 16.8135 72.1712 17.3584C72.4831 17.9028 73.2701 17.9848 73.9009 17.8334C74.2127 18.3778 74.7617 18.7685 75.3925 18.6171C76.0237 18.3881 76.3422 17.7697 76.4245 17.15Z" fill="#FABEC0"/>
<path d="M75.964 15.0543C75.5734 14.5094 74.7873 14.2724 74.2339 14.6569C73.6018 15.0409 73.4399 15.8152 73.8305 16.36C74.2211 16.9049 75.0076 17.0644 75.5606 16.7575C76.1927 16.3735 76.3546 15.5992 75.964 15.0543Z" fill="#FB7C82"/>
<path d="M63.3711 27.3596C64.1275 27.2709 64.7919 26.7631 64.8433 26.0192C64.8473 25.3215 64.3311 24.7139 63.6707 24.5241C63.7217 23.8732 63.4419 23.2204 62.7818 22.9841C62.1217 22.7478 61.5522 23.2097 61.1713 23.7191C60.5115 23.4363 59.6141 23.3847 59.1383 23.9867C58.7099 24.5424 58.8474 25.2873 59.2694 25.8479C58.8416 26.3106 58.6484 27.0537 59.0231 27.614C59.3982 28.1277 60.2008 28.2253 60.7685 28.089C61.096 28.649 61.6606 29.0709 62.323 28.8886C63.0327 28.7066 63.3674 28.0108 63.3711 27.3596Z" fill="#FB7C82"/>
<path d="M62.7601 26.798C63.1856 26.7539 63.6124 26.4773 63.615 26.0122C63.6174 25.5936 63.2885 25.2661 62.9114 25.1245C62.961 24.7061 62.7742 24.333 62.3967 24.2378C62.0196 24.0961 61.6403 24.3265 61.4495 24.651C61.0726 24.4628 60.5529 24.4599 60.2676 24.7838C60.0295 25.1081 60.0741 25.5734 60.356 25.8541C60.0707 26.1781 59.9738 26.5961 60.2082 26.9231C60.3953 27.2497 60.8675 27.2989 61.246 27.208C61.4331 27.5347 61.7625 27.7691 62.1409 27.6782C62.5197 27.5409 62.7108 27.1699 62.7601 26.798Z" fill="#FABEC0"/>
<path d="M101.39 12.2264C102.272 12.1229 103.048 11.5304 103.108 10.6625C103.112 9.84858 102.51 9.13972 101.74 8.91827C101.799 8.15891 101.473 7.39735 100.702 7.12165C99.9324 6.84594 99.2679 7.3848 98.8236 7.97918C98.0538 7.64922 97.0069 7.58899 96.4517 8.29127C95.9519 8.9396 96.1123 9.80875 96.6047 10.4627C96.1055 11.0025 95.8801 11.8695 96.3173 12.5231C96.7549 13.1225 97.6913 13.2364 98.3536 13.0774C98.7357 13.7307 99.3943 14.2228 100.167 14.0102C100.995 13.7978 101.386 12.9861 101.39 12.2264Z" fill="#FB7C82"/>
<path d="M100.677 11.5712C101.174 11.5198 101.671 11.197 101.675 10.6544C101.677 10.166 101.294 9.784 100.854 9.61871C100.912 9.13065 100.694 8.6953 100.253 8.58426C99.8132 8.41897 99.3707 8.68777 99.1481 9.06636C98.7084 8.84679 98.1021 8.84334 97.7692 9.2213C97.4915 9.59957 97.5435 10.1425 97.8724 10.47C97.5395 10.8479 97.4265 11.3357 97.6999 11.7171C97.9182 12.0982 98.4691 12.1556 98.9106 12.0495C99.1289 12.4306 99.5132 12.7042 99.9548 12.5981C100.397 12.4379 100.62 12.005 100.677 11.5712Z" fill="#FABEC0"/>
<path d="M102.896 20.1117C103.401 20.0525 103.843 19.7139 103.878 19.218C103.88 18.7529 103.536 18.3478 103.096 18.2213C103.13 17.7874 102.943 17.3522 102.503 17.1947C102.063 17.0371 101.684 17.345 101.43 17.6847C100.99 17.4961 100.392 17.4617 100.074 17.863C99.7888 18.2335 99.8805 18.7301 100.162 19.1038C99.8766 19.4123 99.7478 19.9077 99.9976 20.2812C100.248 20.6237 100.783 20.6888 101.161 20.5979C101.38 20.9713 101.756 21.2525 102.198 21.131C102.671 21.0096 102.894 20.5458 102.896 20.1117Z" fill="#FB7C82"/>
<path d="M102.489 19.7373C102.773 19.7079 103.057 19.5234 103.059 19.2134C103.06 18.9343 102.841 18.716 102.59 18.6215C102.623 18.3427 102.498 18.0939 102.247 18.0304C101.995 17.936 101.742 18.0896 101.615 18.3059C101.364 18.1805 101.017 18.1785 100.827 18.3945C100.669 18.6106 100.698 18.9209 100.886 19.108C100.696 19.324 100.631 19.6027 100.788 19.8206C100.912 20.0384 101.227 20.0712 101.48 20.0106C101.604 20.2284 101.824 20.3847 102.076 20.3241C102.329 20.2325 102.456 19.9851 102.489 19.7373Z" fill="#FABEC0"/>
<path d="M64.1314 21.1545C64.5096 21.1102 64.8417 20.8563 64.8675 20.4843C64.8695 20.1355 64.6113 19.8317 64.2812 19.7368C64.3066 19.4113 64.1668 19.0849 63.8367 18.9668C63.5067 18.8486 63.2219 19.0796 63.0315 19.3343C62.7016 19.1929 62.2529 19.1671 62.0149 19.4681C61.8008 19.7459 61.8695 20.1184 62.0805 20.3987C61.8666 20.63 61.77 21.0016 61.9574 21.2817C62.1449 21.5386 62.5462 21.5874 62.83 21.5192C62.9938 21.7992 63.2761 22.0102 63.6073 21.919C63.9622 21.828 64.1295 21.4801 64.1314 21.1545Z" fill="#FB7C82"/>
<path d="M63.8259 20.8738C64.0386 20.8517 64.252 20.7134 64.2533 20.4808C64.2545 20.2715 64.0901 20.1078 63.9015 20.037C63.9263 19.8278 63.8329 19.6412 63.6442 19.5936C63.4556 19.5228 63.266 19.638 63.1705 19.8002C62.9821 19.7061 62.7223 19.7047 62.5796 19.8666C62.4606 20.0288 62.4829 20.2614 62.6238 20.4018C62.4812 20.5638 62.4327 20.7728 62.5499 20.9363C62.6435 21.0996 62.8795 21.1242 63.0688 21.0787C63.1623 21.2421 63.327 21.3593 63.5163 21.3139C63.7056 21.2452 63.8012 21.0597 63.8259 20.8738Z" fill="#FABEC0"/>
<path d="M84.1847 12.2686C84.5629 12.2242 84.8951 11.9703 84.9208 11.5983C84.9228 11.2495 84.6647 10.9457 84.3345 10.8508C84.36 10.5253 84.2201 10.199 83.8901 10.0808C83.56 9.96264 83.2752 10.1936 83.0848 10.4483C82.7549 10.3069 82.3062 10.2811 82.0683 10.5821C81.8541 10.8599 81.9228 11.2324 82.1339 11.5127C81.9199 11.744 81.8233 12.1156 82.0107 12.3957C82.1982 12.6526 82.5995 12.7014 82.8834 12.6333C83.0472 12.9133 83.3294 13.1242 83.6607 13.033C84.0155 12.942 84.1828 12.5941 84.1847 12.2686Z" fill="#FB7C82"/>
<path d="M83.8792 11.9878C84.0919 11.9657 84.3053 11.8274 84.3067 11.5948C84.3078 11.3855 84.1434 11.2218 83.9548 11.151C83.9797 10.9418 83.8862 10.7552 83.6975 10.7076C83.5089 10.6368 83.3193 10.752 83.2239 10.9142C83.0354 10.8202 82.7756 10.8187 82.633 10.9807C82.5139 11.1428 82.5362 11.3755 82.6772 11.5158C82.5345 11.6778 82.4861 11.8868 82.6032 12.0503C82.6968 12.2136 82.9329 12.2382 83.1221 12.1928C83.2157 12.3561 83.3804 12.4733 83.5696 12.4279C83.759 12.3592 83.8545 12.1737 83.8792 11.9878Z" fill="#FABEC0"/>
<path d="M53.1852 12.092C53.5634 12.0477 53.8956 11.7938 53.9213 11.4218C53.9233 11.073 53.6652 10.7692 53.335 10.6743C53.3605 10.3488 53.2206 10.0224 52.8905 9.90429C52.5605 9.78613 52.2757 10.0171 52.0853 10.2718C51.7554 10.1304 51.3067 10.1046 51.0688 10.4056C50.8546 10.6834 50.9233 11.0559 51.1343 11.3362C50.9204 11.5675 50.8238 11.9391 51.0112 12.2192C51.1987 12.4761 51.6 12.5249 51.8839 12.4567C52.0476 12.7367 52.3299 12.9477 52.6611 12.8565C53.016 12.7655 53.1833 12.4176 53.1852 12.092Z" fill="#FB7C82"/>
<path d="M52.8797 11.8113C53.0924 11.7892 53.3058 11.6509 53.3071 11.4183C53.3083 11.209 53.1439 11.0453 52.9553 10.9745C52.9801 10.7653 52.8867 10.5787 52.698 10.5311C52.5094 10.4603 52.3198 10.5755 52.2244 10.7377C52.0359 10.6436 51.7761 10.6422 51.6334 10.8041C51.5144 10.9663 51.5367 11.1989 51.6776 11.3393C51.535 11.5013 51.4866 11.7103 51.6037 11.8738C51.6973 12.0371 51.9334 12.0617 52.1226 12.0162C52.2162 12.1796 52.3809 12.2968 52.5701 12.2514C52.7595 12.1827 52.855 11.9972 52.8797 11.8113Z" fill="#FABEC0"/>
<path d="M39.9542 9.75326C40.4585 9.69412 40.9014 9.35555 40.9357 8.85961C40.9384 8.3945 40.5942 7.98944 40.154 7.8629C40.1879 7.42898 40.0014 6.9938 39.5614 6.83625C39.1213 6.67871 38.7416 6.98663 38.4877 7.32627C38.0478 7.13772 37.4496 7.10331 37.1324 7.50461C36.8468 7.87509 36.9384 8.37174 37.2198 8.74544C36.9346 9.0539 36.8058 9.5493 37.0556 9.92282C37.3056 10.2653 37.8407 10.3304 38.2192 10.2395C38.4375 10.6129 38.8139 10.8941 39.2555 10.7726C39.7287 10.6512 39.9518 10.1874 39.9542 9.75326Z" fill="#FB7C82"/>
<path d="M39.5469 9.37887C39.8306 9.34947 40.1151 9.16504 40.1169 8.85497C40.1184 8.57591 39.8992 8.3576 39.6478 8.26314C39.6809 7.98426 39.5563 7.73548 39.3047 7.67203C39.0532 7.57758 38.8004 7.73118 38.6732 7.94752C38.4219 7.82205 38.0755 7.82008 37.8853 8.03606C37.7265 8.25221 37.7563 8.56246 37.9442 8.74958C37.754 8.96556 37.6894 9.24426 37.8456 9.46221C37.9704 9.67998 38.2852 9.71278 38.5375 9.6522C38.6622 9.86996 38.8818 10.0263 39.1341 9.96568C39.3866 9.87409 39.514 9.62675 39.5469 9.37887Z" fill="#FABEC0"/>
<path d="M13.712 9.34026C14.3424 9.26633 14.896 8.84312 14.9389 8.22319C14.9422 7.64181 14.512 7.13548 13.9617 6.9773C14.0042 6.4349 13.771 5.89093 13.221 5.694C12.6709 5.49707 12.1963 5.88197 11.8789 6.30653C11.329 6.07083 10.5812 6.02782 10.1847 6.52945C9.8277 6.99254 9.94228 7.61336 10.294 8.08048C9.93743 8.46605 9.77642 9.0853 10.0887 9.5522C10.4013 9.98035 11.0701 10.0617 11.5432 9.94808C11.8161 10.4148 12.2866 10.7663 12.8386 10.6144C13.4301 10.4627 13.709 9.88289 13.712 9.34026Z" fill="#FB7C82"/>
<path d="M13.2029 8.87227C13.5574 8.83552 13.9131 8.60499 13.9153 8.21739C13.9173 7.86856 13.6432 7.59568 13.3289 7.47761C13.3703 7.129 13.2146 6.81804 12.9001 6.73873C12.5858 6.62066 12.2697 6.81266 12.1107 7.08308C11.7966 6.92625 11.3635 6.92378 11.1258 7.19375C10.9274 7.46395 10.9646 7.85176 11.1995 8.08566C10.9617 8.35563 10.881 8.70401 11.0763 8.97644C11.2322 9.24865 11.6257 9.28965 11.9411 9.21393C12.097 9.48614 12.3715 9.6815 12.6869 9.60578C13.0025 9.49129 13.1617 9.18211 13.2029 8.87227Z" fill="#FABEC0"/>
<path d="M86.814 21.0201C87.3182 20.961 87.7611 20.6224 87.7954 20.1265C87.7981 19.6613 87.4539 19.2563 87.0137 19.1297C87.0477 18.6958 86.8612 18.2606 86.4211 18.1031C85.981 17.9456 85.6013 18.2535 85.3474 18.5931C84.9076 18.4046 84.3093 18.3702 83.9921 18.7715C83.7065 19.1419 83.7981 19.6386 84.0795 20.0123C83.7943 20.3207 83.6655 20.8161 83.9153 21.1897C84.1653 21.5322 84.7004 21.5972 85.0789 21.5064C85.2972 21.8797 85.6736 22.1609 86.1152 22.0394C86.5884 21.9181 86.8115 21.4542 86.814 21.0201Z" fill="#FB7C82"/>
<path d="M86.4066 20.6457C86.6903 20.6163 86.9748 20.4319 86.9765 20.1218C86.9781 19.8428 86.7589 19.6244 86.5075 19.53C86.5405 19.2511 86.416 19.0023 86.1644 18.9389C85.9129 18.8444 85.6601 18.998 85.5329 19.2144C85.2816 19.0889 84.9351 19.0869 84.7449 19.3029C84.5862 19.5191 84.616 19.8293 84.8039 20.0164C84.6137 20.2324 84.5491 20.5111 84.7053 20.7291C84.8301 20.9468 85.1449 20.9796 85.3972 20.919C85.5219 21.1368 85.7415 21.2931 85.9938 21.2325C86.2463 21.1409 86.3737 20.8936 86.4066 20.6457Z" fill="#FABEC0"/>
<path d="M55.8402 29.8441C56.3445 29.7849 56.7873 29.4464 56.8217 28.9504C56.8243 28.4853 56.4801 28.0803 56.0399 27.9537C56.0739 27.5198 55.8874 27.0846 55.4473 26.9271C55.0073 26.7695 54.6275 27.0774 54.3736 27.4171C53.9338 27.2285 53.3355 27.1941 53.0183 27.5954C52.7327 27.9659 52.8244 28.4626 53.1057 28.8363C52.8205 29.1447 52.6917 29.6401 52.9415 30.0136C53.1915 30.3562 53.7266 30.4212 54.1051 30.3303C54.3234 30.7037 54.6998 30.9849 55.1414 30.8634C55.6146 30.742 55.8377 30.2782 55.8402 29.8441Z" fill="#FB7C82"/>
<path d="M55.4329 29.4697C55.7165 29.4403 56.001 29.2559 56.0028 28.9458C56.0044 28.6667 55.7851 28.4484 55.5337 28.354C55.5668 28.0751 55.4422 27.8263 55.1906 27.7629C54.9392 27.6684 54.6863 27.822 54.5591 28.0383C54.3078 27.9129 53.9614 27.9109 53.7712 28.1269C53.6125 28.343 53.6422 28.6533 53.8301 28.8404C53.6399 29.0564 53.5753 29.3351 53.7316 29.553C53.8563 29.7708 54.1711 29.8036 54.4234 29.743C54.5482 29.9608 54.7677 30.1171 55.0201 30.0565C55.2726 29.9649 55.4 29.7176 55.4329 29.4697Z" fill="#FABEC0"/>
<path d="M75.8455 28.9579C76.3498 28.8987 76.7927 28.5601 76.827 28.0642C76.8296 27.5991 76.4855 27.194 76.0452 27.0675C76.0792 26.6336 75.8927 26.1984 75.4527 26.0408C75.0126 25.8833 74.6329 26.1912 74.379 26.5309C73.9391 26.3423 73.3409 26.3079 73.0236 26.7092C72.738 27.0797 72.8297 27.5763 73.111 27.95C72.8258 28.2585 72.697 28.7539 72.9469 29.1274C73.1969 29.4699 73.732 29.535 74.1104 29.4441C74.3288 29.8175 74.7051 30.0987 75.1468 29.9772C75.6199 29.8558 75.843 29.392 75.8455 28.9579Z" fill="#FB7C82"/>
<path d="M75.4382 28.5835C75.7218 28.5541 76.0064 28.3696 76.0081 28.0596C76.0097 27.7805 75.7905 27.5622 75.539 27.4677C75.5721 27.1888 75.4476 26.9401 75.1959 26.8766C74.9445 26.7822 74.6917 26.9358 74.5644 27.1521C74.3132 27.0266 73.9667 27.0247 73.7765 27.2406C73.6178 27.4568 73.6475 27.7671 73.8355 27.9542C73.6452 28.1701 73.5807 28.4489 73.7369 28.6668C73.8617 28.8846 74.1764 28.9174 74.4288 28.8568C74.5535 29.0746 74.7731 29.2308 75.0254 29.1703C75.2779 29.0787 75.4053 28.8313 75.4382 28.5835Z" fill="#FABEC0"/>
<path d="M92.9008 15.4825C94.1615 15.3347 95.2687 14.4882 95.3545 13.2484C95.3611 12.0856 94.5007 11.073 93.4001 10.7566C93.485 9.6718 93.0188 8.58386 91.9186 8.19C90.8185 7.79613 89.8692 8.56594 89.2344 9.41505C88.1348 8.94367 86.6392 8.85764 85.846 9.86089C85.1321 10.7871 85.3612 12.0287 86.0646 12.963C85.3515 13.7341 85.0295 14.9726 85.6541 15.9064C86.2792 16.7627 87.6169 16.9253 88.5631 16.6982C89.1089 17.6315 90.0498 18.3346 91.154 18.0308C92.3368 17.7274 92.8946 16.5678 92.9008 15.4825Z" fill="#FB7C82"/>
<path d="M91.8824 14.5465C92.5915 14.473 93.3028 14.012 93.3072 13.2368C93.3112 12.5391 92.7631 11.9934 92.1345 11.7572C92.2173 11.06 91.9058 10.4381 91.2768 10.2795C90.6482 10.0433 90.0161 10.4273 89.6981 10.9682C89.0699 10.6545 88.2038 10.6496 87.7283 11.1895C87.3315 11.7299 87.4058 12.5055 87.8756 12.9733C87.4001 13.5133 87.2386 14.21 87.6292 14.7549C87.9411 15.2993 88.728 15.3813 89.3588 15.2299C89.6707 15.7743 90.2197 16.165 90.8505 16.0136C91.4817 15.7846 91.8002 15.1662 91.8824 14.5465Z" fill="#FABEC0"/>
<path d="M91.4219 12.4508C91.0313 11.9059 90.2453 11.6689 89.6919 12.0534C89.0598 12.4374 88.8979 13.2116 89.2885 13.7565C89.6791 14.3014 90.4656 14.4609 91.0185 14.154C91.6507 13.77 91.8126 12.9957 91.4219 12.4508Z" fill="#FB7C82"/>
<path d="M80.249 5.10605C81.1315 5.00255 81.9066 4.41005 81.9666 3.54216C81.9712 2.72822 81.369 2.01935 80.5986 1.79791C80.658 1.03855 80.3316 0.276989 79.5615 0.00128432C78.7914 -0.27442 78.1269 0.264443 77.6826 0.858823C76.9128 0.528856 75.8659 0.468633 75.3107 1.17091C74.8109 1.81924 74.9714 2.68838 75.4637 3.34236C74.9646 3.88216 74.7392 4.74911 75.1764 5.40277C75.6139 6.00217 76.5503 6.11603 77.2126 5.95701C77.5948 6.61035 78.2534 7.10248 79.0263 6.88982C79.8542 6.67748 80.2447 5.86573 80.249 5.10605Z" fill="#FB7C82"/>
<path d="M79.5362 4.45086C80.0326 4.39942 80.5305 4.07667 80.5336 3.53404C80.5363 3.04568 80.1527 2.66364 79.7127 2.49834C79.7706 2.01029 79.5526 1.57494 79.1122 1.4639C78.6722 1.29861 78.2297 1.56741 78.0071 1.94599C77.5674 1.72643 76.9611 1.72298 76.6283 2.10094C76.3505 2.47921 76.4025 3.02215 76.7314 3.34961C76.3985 3.72757 76.2855 4.2153 76.5589 4.59671C76.7772 4.9778 77.3281 5.0352 77.7697 4.92919C77.988 5.31028 78.3722 5.58379 78.8138 5.47777C79.2557 5.31749 79.4786 4.88465 79.5362 4.45086Z" fill="#FABEC0"/>
<path d="M79.2138 2.98397C78.9404 2.60256 78.3902 2.43664 78.0028 2.70575C77.5603 2.97456 77.447 3.51656 77.7204 3.89797C77.9938 4.27937 78.5444 4.39103 78.9315 4.17618C79.3739 3.90738 79.4873 3.36538 79.2138 2.98397Z" fill="#FB7C82"/>
<path d="M22.9898 7.60248C23.9984 7.48418 24.8841 6.80704 24.9528 5.81517C24.9581 4.88495 24.2698 4.07482 23.3893 3.82174C23.4572 2.9539 23.0842 2.08354 22.2041 1.76845C21.324 1.45336 20.5646 2.06921 20.0568 2.7485C19.177 2.37139 17.9805 2.30257 17.346 3.10517C16.7749 3.84612 16.9582 4.83943 17.5209 5.58683C16.9504 6.20374 16.6928 7.19454 17.1925 7.94158C17.6926 8.62661 18.7627 8.75673 19.5197 8.57499C19.9564 9.32168 20.7091 9.88411 21.5924 9.64107C22.5386 9.39839 22.9849 8.47068 22.9898 7.60248Z" fill="#FB7C82"/>
<path d="M22.1752 6.85368C22.7424 6.79489 23.3115 6.42603 23.315 5.80589C23.3182 5.24776 22.8797 4.81115 22.3769 4.62224C22.443 4.06446 22.1939 3.56691 21.6907 3.44002C21.1878 3.25111 20.6821 3.55831 20.4277 3.99098C19.9251 3.74005 19.2322 3.73611 18.8518 4.16806C18.5344 4.60037 18.5939 5.22087 18.9697 5.59511C18.5893 6.02706 18.4601 6.58447 18.7726 7.02037C19.0221 7.4559 19.6516 7.5215 20.1563 7.40034C20.4058 7.83588 20.8449 8.14846 21.3496 8.0273C21.8546 7.84412 22.1094 7.34944 22.1752 6.85368Z" fill="#FABEC0"/>
<path d="M21.8068 5.1771C21.4943 4.7412 20.8654 4.55157 20.4227 4.85914C19.917 5.16634 19.7875 5.78577 20.1 6.22166C20.4125 6.65756 21.0417 6.78517 21.484 6.53962C21.9897 6.23242 22.1192 5.61299 21.8068 5.1771Z" fill="#FB7C82"/>
<path d="M67.827 17.6484C68.4574 17.5744 69.011 17.1512 69.0539 16.5313C69.0572 15.9499 68.627 15.4436 68.0767 15.2854C68.1191 14.743 67.886 14.199 67.3359 14.0021C66.7859 13.8052 66.3112 14.1901 65.9938 14.6146C65.444 14.3789 64.6962 14.3359 64.2996 14.8376C63.9427 15.3006 64.0572 15.9215 64.4089 16.3886C64.0524 16.7742 63.8914 17.3934 64.2037 17.8603C64.5162 18.2885 65.1851 18.3698 65.6582 18.2562C65.9311 18.7229 66.4015 19.0744 66.9536 18.9225C67.545 18.7708 67.8239 18.191 67.827 17.6484Z" fill="#FB7C82"/>
<path d="M67.3178 17.1804C67.6724 17.1436 68.028 16.9131 68.0302 16.5255C68.0322 16.1767 67.7582 15.9038 67.4439 15.7857C67.4852 15.4371 67.3295 15.1261 67.015 15.0468C66.7007 14.9288 66.3847 15.1208 66.2256 15.3912C65.9116 15.2344 65.4785 15.2319 65.2407 15.5019C65.0424 15.7721 65.0795 16.1599 65.3144 16.3938C65.0767 16.6637 64.9959 17.0121 65.1912 17.2846C65.3472 17.5568 65.7406 17.5978 66.056 17.522C66.212 17.7942 66.4865 17.9896 66.8018 17.9139C67.1175 17.7994 67.2767 17.4902 67.3178 17.1804Z" fill="#FABEC0"/>
<path d="M67.0876 16.1326C66.8923 15.8602 66.4993 15.7417 66.2226 15.9339C65.9065 16.1259 65.8256 16.513 66.0209 16.7855C66.2162 17.0579 66.6094 17.1377 66.8859 16.9842C67.2019 16.7922 67.2829 16.4051 67.0876 16.1326Z" fill="#FB7C82"/>
<path d="M49.683 14.5451C50.3133 14.4712 50.8669 14.0479 50.9098 13.428C50.9131 12.8466 50.4829 12.3403 49.9327 12.1821C49.9751 11.6397 49.742 11.0958 49.1919 10.8988C48.6419 10.7019 48.1672 11.0868 47.8498 11.5114C47.3 11.2757 46.5522 11.2327 46.1556 11.7343C45.7986 12.1974 45.9132 12.8182 46.2649 13.2853C45.9084 13.6709 45.7474 14.2901 46.0597 14.757C46.3722 15.1852 47.041 15.2665 47.5141 15.1529C47.7871 15.6196 48.2575 15.9711 48.8096 15.8192C49.401 15.6675 49.6799 15.0877 49.683 14.5451Z" fill="#FB7C82"/>
<path d="M49.1738 14.0771C49.5284 14.0404 49.884 13.8098 49.8862 13.4222C49.8882 13.0734 49.6142 12.8005 49.2999 12.6824C49.3412 12.3338 49.1855 12.0229 48.871 11.9436C48.5567 11.8255 48.2407 12.0175 48.0816 12.2879C47.7676 12.1311 47.3345 12.1286 47.0967 12.3986C46.8983 12.6688 46.9355 13.0566 47.1704 13.2905C46.9326 13.5605 46.8519 13.9088 47.0472 14.1813C47.2032 14.4535 47.5966 14.4945 47.912 14.4188C48.068 14.691 48.3424 14.8863 48.6578 14.8106C48.9735 14.6961 49.1327 14.3869 49.1738 14.0771Z" fill="#FABEC0"/>
<path d="M48.9436 13.0294C48.7483 12.7569 48.3552 12.6384 48.0786 12.8306C47.7625 13.0226 47.6815 13.4098 47.8769 13.6822C48.0722 13.9546 48.4654 14.0344 48.7419 13.8809C49.0579 13.6889 49.1389 13.3018 48.9436 13.0294Z" fill="#FB7C82"/>
<path d="M39.6775 15.4882C40.3078 15.4143 40.8614 14.9911 40.9043 14.3711C40.9076 13.7898 40.4774 13.2834 39.9271 13.1253C39.9696 12.5828 39.7365 12.0389 39.1864 11.8419C38.6363 11.645 38.1617 12.0299 37.8443 12.4545C37.2945 12.2188 36.5467 12.1758 36.1501 12.6774C35.7931 13.1405 35.9077 13.7613 36.2594 14.2284C35.9029 14.614 35.7418 15.2333 36.0542 15.7002C36.3667 16.1283 37.0355 16.2096 37.5086 16.096C37.7816 16.5627 38.252 16.9142 38.8041 16.7623C39.3955 16.6107 39.6744 16.0308 39.6775 15.4882Z" fill="#FB7C82"/>
<path d="M39.1683 15.0202C39.5229 14.9835 39.8785 14.7529 39.8807 14.3653C39.8827 14.0165 39.6086 13.7436 39.2944 13.6256C39.3357 13.277 39.18 12.966 38.8655 12.8867C38.5512 12.7686 38.2351 12.9606 38.0761 13.231C37.762 13.0742 37.329 13.0717 37.0912 13.3417C36.8928 13.6119 36.93 13.9997 37.1649 14.2336C36.9271 14.5036 36.8464 14.852 37.0417 15.1244C37.1976 15.3966 37.5911 15.4376 37.9065 15.3619C38.0624 15.6341 38.3369 15.8295 38.6523 15.7537C38.9679 15.6392 39.1272 15.3301 39.1683 15.0202Z" fill="#FABEC0"/>
<path d="M38.9381 13.9725C38.7427 13.7 38.3497 13.5815 38.073 13.7737C37.757 13.9657 37.676 14.3529 37.8713 14.6253C38.0666 14.8978 38.4599 14.9775 38.7364 14.824C39.0524 14.632 39.1334 14.2449 38.9381 13.9725Z" fill="#FB7C82"/>
<path d="M29.032 11.1787C29.7884 11.09 30.4527 10.5821 30.5042 9.83824C30.5082 9.14058 29.992 8.53298 29.3316 8.34317C29.3826 7.69229 29.1028 7.03953 28.4427 6.80321C27.7826 6.56689 27.2131 7.02877 26.8322 7.53824C26.1724 7.25541 25.275 7.20379 24.7992 7.80574C24.3708 8.36146 24.5083 9.10644 24.9303 9.66699C24.5025 10.1297 24.3093 10.8728 24.684 11.4331C25.0591 11.9468 25.8617 12.0444 26.4294 11.9081C26.7569 12.4681 27.3214 12.8899 27.9839 12.7077C28.6936 12.5257 29.0283 11.8299 29.032 11.1787Z" fill="#FB7C82"/>
<path d="M28.421 10.6171C28.8465 10.573 29.2733 10.2964 29.2759 9.83128C29.2783 9.41269 28.9494 9.08523 28.5723 8.94354C28.6219 8.52522 28.435 8.15205 28.0576 8.05688C27.6805 7.9152 27.3012 8.1456 27.1104 8.4701C26.7335 8.28191 26.2138 8.27895 25.9285 8.60291C25.6904 8.92714 25.735 9.39252 26.0169 9.6732C25.7316 9.99716 25.6347 10.4152 25.8691 10.7421C26.0562 11.0688 26.5284 11.118 26.9069 11.0271C27.094 11.3538 27.4234 11.5882 27.8018 11.4973C28.1806 11.36 28.3717 10.9889 28.421 10.6171Z" fill="#FABEC0"/>
<path d="M28.1447 9.35969C27.9103 9.03277 27.4387 8.89055 27.1067 9.12122C26.7274 9.35162 26.6302 9.81619 26.8646 10.1431C27.099 10.47 27.5709 10.5657 27.9026 10.3816C28.2819 10.1512 28.379 9.68661 28.1447 9.35969Z" fill="#FB7C82"/>
<path d="M29.7289 6.43133C30.3592 6.35739 30.9128 5.93418 30.9557 5.31426C30.959 4.73287 30.5288 4.22654 29.9785 4.06837C30.021 3.52597 29.7879 2.98199 29.2378 2.78506C28.6877 2.58813 28.2131 2.97303 27.8957 3.39759C27.3458 3.1619 26.5981 3.11888 26.2015 3.62051C25.8445 4.0836 25.9591 4.70442 26.3108 5.17154C25.9542 5.55712 25.7932 6.17637 26.1055 6.64327C26.4181 7.07141 27.0869 7.15274 27.56 7.03915C27.8329 7.50583 28.3034 7.85735 28.8555 7.70545C29.4469 7.55377 29.7258 6.97395 29.7289 6.43133Z" fill="#FB7C82"/>
<path d="M29.2197 5.96333C29.5742 5.92659 29.9299 5.69605 29.9321 5.30846C29.9341 4.95963 29.66 4.68675 29.3457 4.56868C29.3871 4.22007 29.2314 3.9091 28.9169 3.82979C28.6026 3.71172 28.2865 3.90372 28.1275 4.17414C27.8134 4.01731 27.3804 4.01485 27.1426 4.28482C26.9442 4.55501 26.9814 4.94282 27.2163 5.17672C26.9785 5.44669 26.8978 5.79508 27.0931 6.06751C27.249 6.33972 27.6425 6.38072 27.9579 6.30499C28.1138 6.5772 28.3883 6.77257 28.7037 6.69684C29.0193 6.58236 29.1786 6.27318 29.2197 5.96333Z" fill="#FABEC0"/>
<path d="M28.9894 4.91559C28.7941 4.64315 28.4011 4.52463 28.1244 4.71686C27.8083 4.90886 27.7274 5.29601 27.9227 5.56844C28.118 5.84087 28.5112 5.92063 28.7877 5.76716C29.1038 5.57516 29.1847 5.18802 28.9894 4.91559Z" fill="#FB7C82"/>
<path d="M92.1419 5.96445C92.6462 5.9053 93.0891 5.56673 93.1234 5.07079C93.1261 4.60568 92.7819 4.20062 92.3417 4.07408C92.3756 3.64016 92.1891 3.20498 91.7491 3.04743C91.309 2.88989 90.9293 3.19781 90.6754 3.53746C90.2355 3.3489 89.6373 3.31449 89.32 3.71579C89.0345 4.08627 89.1261 4.58292 89.4075 4.95662C89.1222 5.26508 88.9934 5.76048 89.2433 6.134C89.4933 6.47651 90.0284 6.54158 90.4069 6.4507C90.6252 6.82405 91.0016 7.10526 91.4432 6.98374C91.9163 6.8624 92.1395 6.39855 92.1419 5.96445Z" fill="#FB7C82"/>
<path d="M91.7346 5.59005C92.0182 5.56066 92.3027 5.37622 92.3045 5.06615C92.3061 4.78709 92.0869 4.56878 91.8354 4.47433C91.8685 4.19544 91.7439 3.94666 91.4923 3.88322C91.2409 3.78876 90.988 3.94236 90.8608 4.1587C90.6096 4.03323 90.2631 4.03126 90.0729 4.24724C89.9142 4.46339 89.9439 4.77364 90.1318 4.96076C89.9416 5.17674 89.8771 5.45545 90.0333 5.67339C90.158 5.89116 90.4728 5.92396 90.7251 5.86338C90.8499 6.08115 91.0695 6.23744 91.3218 6.17686C91.5743 6.08527 91.7017 5.83793 91.7346 5.59005Z" fill="#FABEC0"/>
<path d="M91.5504 4.75176C91.3942 4.53381 91.0797 4.43899 90.8584 4.59278C90.6055 4.74638 90.5408 5.05609 90.697 5.27404C90.8533 5.49199 91.1679 5.55579 91.389 5.43302C91.6419 5.27942 91.7066 4.9697 91.5504 4.75176Z" fill="#FB7C82"/>
<path d="M56.2239 25.3189C56.9803 25.2301 57.6446 24.7223 57.6961 23.9784C57.7001 23.2807 57.1838 22.6731 56.5235 22.4833C56.5744 21.8324 56.2947 21.1797 55.6346 20.9433C54.9745 20.707 54.4049 21.1689 54.0241 21.6784C53.3643 21.3955 52.4669 21.3439 51.991 21.9459C51.5627 22.5016 51.7002 23.2466 52.1222 23.8071C51.6943 24.2698 51.5011 25.0129 51.8759 25.5732C52.2509 26.087 53.0535 26.1846 53.6212 26.0482C53.9488 26.6083 54.5133 27.0301 55.1758 26.8478C55.8855 26.6658 56.2202 25.97 56.2239 25.3189Z" fill="#FDB8A8"/>
<path d="M55.7069 24.8508C56.1795 24.807 56.6538 24.4841 56.6567 23.9724C56.6594 23.5073 56.3308 23.1334 55.9064 22.9914C55.956 22.5731 55.7694 22.1534 55.345 22.0115C54.8737 21.8227 54.4941 22.0996 54.2558 22.4704C53.8317 22.2819 53.265 22.2322 52.9322 22.6024C52.6466 22.9729 52.7382 23.485 53.0198 23.8122C52.7345 24.1362 52.6371 24.6473 52.8715 24.9742C53.1056 25.3476 53.625 25.3971 54.0034 25.3062C54.2375 25.6796 54.5667 25.9606 55.0399 25.8237C55.4659 25.6866 55.7045 25.2694 55.7069 24.8508Z" fill="#FFDFDA"/>
<path d="M9.30396 9.84229C9.68218 9.79793 10.0143 9.544 10.0401 9.17205C10.0421 8.82322 9.78394 8.51942 9.45377 8.42452C9.47924 8.09908 9.33936 7.77269 9.00932 7.65453C8.67928 7.53637 8.3945 7.76732 8.20407 8.02205C7.87416 7.88064 7.42548 7.85483 7.18754 8.1558C6.97336 8.43366 7.04211 8.80615 7.25311 9.08642C7.0392 9.31777 6.94259 9.68932 7.12998 9.96946C7.3175 10.2263 7.7188 10.2751 8.00266 10.207C8.16642 10.487 8.44869 10.6979 8.77992 10.6068C9.13478 10.5158 9.30211 10.1679 9.30396 9.84229Z" fill="#FDB8A8"/>
<path d="M9.04546 9.60825C9.28181 9.58634 9.51895 9.42489 9.5204 9.16908C9.52173 8.93653 9.35744 8.74954 9.14524 8.67857C9.17005 8.4694 9.07675 8.25957 8.86456 8.18859C8.62887 8.09423 8.4391 8.23268 8.31993 8.41805C8.10787 8.32382 7.82454 8.29895 7.65813 8.48406C7.51534 8.66929 7.56113 8.92537 7.70193 9.08897C7.55928 9.25095 7.51058 9.50649 7.62776 9.66995C7.74481 9.85666 8.00452 9.8814 8.19375 9.83596C8.3108 10.0227 8.47536 10.1632 8.71197 10.0947C8.92497 10.0262 9.04427 9.81755 9.04546 9.60825Z" fill="#FFDFDA"/>
<path d="M81.7109 9.72722C82.3413 9.65329 82.8949 9.23008 82.9378 8.61016C82.9411 8.02877 82.5109 7.52244 81.9606 7.36427C82.0031 6.82186 81.7699 6.27789 81.2199 6.08096C80.6698 5.88403 80.1952 6.26893 79.8778 6.69349C79.3279 6.4578 78.5801 6.41478 78.1836 6.91641C77.8266 7.3795 77.9412 8.00032 78.2929 8.46744C77.9363 8.85302 77.7753 9.47227 78.0876 9.93917C78.4002 10.3673 79.069 10.4486 79.5421 10.335C79.815 10.8017 80.2855 11.1532 80.8375 11.0013C81.429 10.8497 81.7079 10.2699 81.7109 9.72722Z" fill="#FDB8A8"/>
<path d="M81.2801 9.33715C81.674 9.30063 82.0693 9.03156 82.0717 8.60521C82.0739 8.21762 81.8001 7.90598 81.4464 7.78769C81.4878 7.43908 81.3323 7.08935 80.9786 6.97106C80.5858 6.81378 80.2695 7.04454 80.0709 7.35349C79.7175 7.19644 79.2452 7.15499 78.9679 7.4635C78.7299 7.77223 78.8062 8.19902 79.0409 8.47168C78.8031 8.74165 78.722 9.16755 78.9173 9.43999C79.1124 9.75118 79.5452 9.7924 79.8606 9.71668C80.0557 10.0279 80.3299 10.262 80.7243 10.148C81.0793 10.0337 81.2781 9.68598 81.2801 9.33715Z" fill="#FFDFDA"/>
<path d="M49.7115 9.5451C50.3418 9.47116 50.8954 9.04795 50.9383 8.42803C50.9416 7.84664 50.5114 7.34031 49.9611 7.18214C50.0036 6.63973 49.7705 6.09576 49.2204 5.89883C48.6703 5.7019 48.1957 6.0868 47.8783 6.51136C47.3285 6.27567 46.5807 6.23265 46.1841 6.73428C45.8271 7.19737 45.9417 7.81819 46.2934 8.28531C45.9368 8.67089 45.7758 9.29014 46.0882 9.75704C46.4007 10.1852 47.0695 10.2665 47.5426 10.1529C47.8156 10.6196 48.286 10.9711 48.8381 10.8192C49.4295 10.6675 49.7084 10.0877 49.7115 9.5451Z" fill="#FDB8A8"/>
<path d="M49.2806 9.15502C49.6745 9.1185 50.0698 8.84943 50.0722 8.42308C50.0744 8.03549 49.8006 7.72385 49.4469 7.60556C49.4883 7.25695 49.3328 6.90722 48.9791 6.78893C48.5863 6.63165 48.27 6.86241 48.0714 7.17137C47.718 7.01431 47.2458 6.97287 46.9684 7.28137C46.7304 7.5901 46.8067 8.0169 47.0414 8.28955C46.8036 8.55952 46.7225 8.98542 46.9178 9.25786C47.1129 9.56905 47.5457 9.61027 47.8611 9.53455C48.0562 9.84574 48.3305 10.0799 48.7248 9.96583C49.0798 9.85157 49.2786 9.50385 49.2806 9.15502Z" fill="#FFDFDA"/>
<path d="M52.9822 8.82724C53.4865 8.76809 53.9293 8.42952 53.9636 7.93358C53.9663 7.46848 53.6221 7.06341 53.1819 6.93687C53.2159 6.50295 53.0294 6.06777 52.5893 5.91023C52.1493 5.75268 51.7695 6.0606 51.5156 6.40025C51.0758 6.2117 50.4775 6.17728 50.1603 6.57859C49.8747 6.94906 49.9664 7.44571 50.2477 7.81941C49.9625 8.12787 49.8337 8.62327 50.0835 8.99679C50.3335 9.33931 50.8686 9.40437 51.2471 9.3135C51.4654 9.68684 51.8418 9.96805 52.2834 9.84654C52.7566 9.72519 52.9797 9.26134 52.9822 8.82724Z" fill="#FDB8A8"/>
<path d="M52.6375 8.51518C52.9526 8.48597 53.2688 8.27071 53.2708 7.92963C53.2725 7.61955 53.0535 7.37024 52.7705 7.27561C52.8036 6.99672 52.6792 6.71694 52.3963 6.6223C52.082 6.49648 51.829 6.68109 51.6701 6.92825C51.3874 6.80261 51.0096 6.76945 50.7877 7.01626C50.5973 7.26324 50.6584 7.60468 50.8461 7.8228C50.6559 8.03878 50.591 8.3795 50.7472 8.59745C50.9033 8.8464 51.2496 8.87938 51.5019 8.8188C51.658 9.06775 51.8774 9.25505 52.1928 9.16382C52.4768 9.07241 52.6359 8.79425 52.6375 8.51518Z" fill="#FFDFDA"/>
<path d="M16.3921 12.8963C16.8963 12.8372 17.3392 12.4986 17.3735 12.0027C17.3762 11.5376 17.032 11.1325 16.5918 11.006C16.6258 10.572 16.4393 10.1369 15.9992 9.97932C15.5591 9.82177 15.1794 10.1297 14.9255 10.4693C14.4856 10.2808 13.8874 10.2464 13.5702 10.6477C13.2846 11.0182 13.3762 11.5148 13.6576 11.8885C13.3724 12.197 13.2436 12.6924 13.4934 13.0659C13.7434 13.4084 14.2785 13.4735 14.657 13.3826C14.8753 13.7559 15.2517 14.0371 15.6933 13.9156C16.1665 13.7943 16.3896 13.3304 16.3921 12.8963Z" fill="#FDB8A8"/>
<path d="M16.0474 12.5843C16.3625 12.5551 16.6787 12.3398 16.6806 11.9987C16.6824 11.6886 16.4633 11.4393 16.1804 11.3447C16.2135 11.0658 16.0891 10.786 15.8062 10.6914C15.4919 10.5656 15.2389 10.7502 15.08 10.9973C14.7973 10.8717 14.4195 10.8385 14.1976 11.0853C14.0072 11.3323 14.0683 11.6738 14.256 11.8919C14.0658 12.1079 14.0009 12.4486 14.1571 12.6665C14.3132 12.9155 14.6595 12.9485 14.9118 12.8879C15.0678 13.1368 15.2872 13.3241 15.6027 13.2329C15.8867 13.1415 16.0458 12.8633 16.0474 12.5843Z" fill="#FFDFDA"/>
<path d="M44.3497 18.042C44.7279 17.9976 45.0601 17.7437 45.0858 17.3718C45.0878 17.0229 44.8297 16.7191 44.4995 16.6242C44.525 16.2988 44.3851 15.9724 44.055 15.8542C43.725 15.7361 43.4402 15.967 43.2498 16.2218C42.9199 16.0803 42.4712 16.0545 42.2333 16.3555C42.0191 16.6334 42.0878 17.0059 42.2988 17.2861C42.0849 17.5175 41.9883 17.889 42.1757 18.1692C42.3632 18.426 42.7645 18.4748 43.0484 18.4067C43.2121 18.6867 43.4944 18.8976 43.8256 18.8065C44.1805 18.7155 44.3478 18.3676 44.3497 18.042Z" fill="#FDB8A8"/>
<path d="M44.0912 17.808C44.3275 17.786 44.5647 17.6246 44.5661 17.3688C44.5674 17.1362 44.4032 16.9493 44.191 16.8783C44.2158 16.6691 44.1225 16.4593 43.9103 16.3883C43.6746 16.2939 43.4848 16.4324 43.3657 16.6178C43.1536 16.5235 42.8703 16.4987 42.7038 16.6838C42.5611 16.869 42.6068 17.1251 42.7476 17.2887C42.605 17.4507 42.5563 17.7062 42.6735 17.8697C42.7905 18.0564 43.0502 18.0811 43.2395 18.0357C43.3565 18.2224 43.5211 18.3629 43.7577 18.2944C43.9707 18.2259 44.09 18.0173 44.0912 17.808Z" fill="#FFDFDA"/>
<path d="M58.4352 31.6436L59.1974 32.2573L58.6928 32.3833L57.9097 32.707L58.2021 32.1289L58.4352 31.6436Z" fill="#7F7053"/>
<path d="M8.60124 14.6191L7.77613 16.8332L9.48652 15.5617L8.60124 14.6191Z" fill="#7F7053"/>
<path d="M86.2853 31.2148L86.3508 31.1592L84.1961 32.0307C85.8428 32.7055 85.5734 33.514 84.8914 34.2271C84.1131 35.0666 79.6915 36.2139 79.6915 36.2139C79.6915 36.2139 85.432 35.6408 87.2859 34.512C87.5171 34.3602 87.6789 34.1781 87.7867 33.9305C88.6568 31.7422 86.2853 31.2148 86.2853 31.2148Z" fill="black"/>
<path d="M86.4549 31.2044C86.4356 31.1539 86.4818 31.0478 86.5126 30.977C86.7823 30.5473 87.4335 29.905 87.6838 29.4248C87.8571 29.1215 87.9996 28.8889 88.3157 28.732C88.3157 28.732 88.3311 28.6966 88.3465 28.6612C88.0265 28.7323 87.799 28.5912 87.6022 28.3793C87.5482 28.3137 87.4788 28.2835 87.4093 28.2532C87.0275 28.087 86.6768 28.2289 86.3607 28.3859C86.1295 28.5377 85.8982 28.6896 85.6824 28.806C85.6245 28.6546 85.5512 28.5385 85.5279 28.4021C85.2114 27.8014 84.7678 27.3979 84.0968 27.2321C83.2523 26.9907 82.4081 27.1281 81.5831 27.3161C79.9679 27.7071 80.2377 27.6562 78.7576 28.4007C78.2912 28.6185 77.8442 28.8868 77.3971 29.155L77.4164 29.2055C77.8173 29.0434 78.2296 28.76 78.6537 28.7342C80.0763 28.596 79.1935 28.6325 80.4156 28.5753C80.9746 28.5241 81.5376 28.5588 82.0582 28.7854C82.5441 28.9969 82.8836 29.3551 82.9418 29.8854C82.9806 30.3653 82.6724 30.694 82.3101 30.9571C81.9632 31.1849 81.6164 31.4126 81.2695 31.6404C79.6469 32.6173 77.8506 33.1399 75.9692 33.2888C75.6299 33.3094 75.2752 33.3654 74.9359 33.3861C75.1249 33.4262 75.2791 33.4513 75.4835 33.4561C76.9293 33.4542 78.348 33.2302 79.7242 32.8193C79.9593 32.7533 80.1945 32.6873 80.4489 32.6719C80.5337 32.6667 80.6031 32.6969 80.6726 32.7271C80.6418 32.7979 80.6457 32.8838 80.6149 32.9545C80.3721 33.2276 80.1294 33.5007 79.8326 33.7082C78.7999 34.5631 77.6244 35.2718 76.4256 35.8441C76.1597 35.9809 75.9091 36.0822 75.6432 36.2189C75.7627 36.2289 75.8977 36.2034 75.9979 36.1629C77.7749 35.5898 79.2394 34.502 80.7385 33.4292C81.1008 33.1661 81.4824 32.9534 81.972 32.872C82.5811 32.8005 83.1709 32.6785 83.7607 32.5565C83.9805 32.5259 84.231 32.4246 84.4662 32.3586C84.4662 32.3586 84.6512 32.3129 84.7013 32.2926C84.7013 32.2926 84.8055 32.338 84.9057 32.2974C85.1562 32.1961 85.4261 32.1452 85.6651 32.1651L86.8411 32.2141C87.1418 32.0925 87.1222 31.6632 86.8446 31.5423C86.6517 31.4163 86.5669 31.4214 86.4549 31.2044Z" fill="black"/>
<path d="M316.714 32.9084C317.722 32.7843 318.604 32.1022 318.667 31.1099C318.667 30.1797 317.974 29.3735 317.092 29.1254C317.155 28.2572 316.777 27.389 315.895 27.0789C315.013 26.7688 314.257 27.389 313.753 28.0712C312.872 27.6991 311.675 27.6371 311.045 28.4433C310.478 29.1875 310.667 30.1797 311.234 30.9239C310.667 31.544 310.415 32.5363 310.919 33.2805C311.423 33.9626 312.494 34.0867 313.249 33.9006C313.69 34.6448 314.446 35.203 315.328 34.9549C316.273 34.7068 316.714 33.7766 316.714 32.9084Z" fill="#FB7C82"/>
<path d="M315.895 32.1642C316.462 32.1022 317.029 31.7301 317.029 31.1099C317.029 30.5518 316.588 30.1177 316.084 29.9316C316.147 29.3735 315.895 28.8774 315.391 28.7533C314.887 28.5673 314.383 28.8774 314.131 29.3115C313.627 29.0634 312.935 29.0634 312.557 29.4975C312.242 29.9316 312.305 30.5518 312.683 30.9239C312.305 31.358 312.179 31.9161 312.494 32.3502C312.746 32.7843 313.375 32.8463 313.879 32.7223C314.131 33.1564 314.572 33.4665 315.076 33.3425C315.58 33.1564 315.832 32.6603 315.895 32.1642Z" fill="#FABEC0"/>
<path d="M315.517 30.4897C315.202 30.0556 314.572 29.8695 314.131 30.1796C313.627 30.4897 313.501 31.1098 313.816 31.544C314.131 31.9781 314.761 32.1021 315.202 31.854C315.706 31.544 315.832 30.9238 315.517 30.4897Z" fill="#FB7C82"/>
<path d="M322.571 34.6991C323.201 34.6216 323.752 34.1952 323.792 33.5751C323.792 32.9937 323.359 32.4898 322.808 32.3348C322.847 31.7921 322.611 31.2495 322.06 31.0557C321.508 30.8619 321.036 31.2495 320.721 31.6759C320.17 31.4433 319.422 31.4045 319.028 31.9084C318.674 32.3735 318.792 32.9937 319.146 33.4588C318.792 33.8464 318.634 34.4666 318.949 34.9317C319.264 35.358 319.934 35.4356 320.406 35.3193C320.682 35.7844 321.154 36.1332 321.705 35.9782C322.296 35.8231 322.571 35.2418 322.571 34.6991Z" fill="#FB7C82"/>
<path d="M322.06 34.2341C322.414 34.1953 322.768 33.9628 322.768 33.5752C322.768 33.2263 322.493 32.955 322.178 32.8387C322.217 32.4899 322.06 32.1798 321.745 32.1023C321.43 31.986 321.115 32.1798 320.957 32.4511C320.642 32.2961 320.209 32.2961 319.973 32.5674C319.776 32.8387 319.815 33.2263 320.052 33.4589C319.815 33.7302 319.737 34.079 319.934 34.3504C320.091 34.6217 320.485 34.6604 320.8 34.5829C320.957 34.8542 321.233 35.048 321.548 34.9705C321.863 34.8542 322.02 34.5442 322.06 34.2341Z" fill="#FABEC0"/>
<path d="M321.823 33.1875C321.626 32.9162 321.233 32.7999 320.957 32.9937C320.642 33.1875 320.563 33.5751 320.76 33.8464C320.957 34.1177 321.351 34.1952 321.626 34.0402C321.941 33.8464 322.02 33.4588 321.823 33.1875Z" fill="#FB7C82"/>
<path d="M261.041 6.47995C261.545 6.41793 261.986 6.07685 262.018 5.58072C262.018 5.11561 261.671 4.71251 261.23 4.58847C261.262 4.15437 261.073 3.72026 260.632 3.56522C260.191 3.41018 259.813 3.72026 259.561 4.06134C259.12 3.8753 258.522 3.84429 258.207 4.24739C257.923 4.61948 258.018 5.11561 258.301 5.4877C258.018 5.79778 257.892 6.2939 258.144 6.66599C258.396 7.00708 258.931 7.06909 259.309 6.97607C259.529 7.34816 259.907 7.62723 260.348 7.5032C260.821 7.37917 261.041 6.91406 261.041 6.47995Z" fill="#FDB8A8"/>
<path d="M260.695 6.16997C261.01 6.13896 261.325 5.9219 261.325 5.58082C261.325 5.27074 261.104 5.02268 260.821 4.92966C260.852 4.65059 260.726 4.37152 260.443 4.27849C260.128 4.15446 259.876 4.34051 259.718 4.58857C259.435 4.46454 259.057 4.43353 258.837 4.68159C258.648 4.92966 258.711 5.27074 258.9 5.48779C258.711 5.70485 258.648 6.04593 258.805 6.26299C258.963 6.51105 259.309 6.54206 259.561 6.48004C259.718 6.72811 259.939 6.91415 260.254 6.82113C260.537 6.72811 260.695 6.44904 260.695 6.16997Z" fill="#FFDFDA"/>
<path d="M296.242 31.2148L296.307 31.1592L294.153 32.0307C295.799 32.7055 295.53 33.514 294.848 34.2271C294.07 35.0666 289.648 36.2139 289.648 36.2139C289.648 36.2139 295.389 35.6408 297.242 34.512C297.474 34.3602 297.635 34.1781 297.743 33.9305C298.613 31.7422 296.242 31.2148 296.242 31.2148Z" fill="black"/>
<path d="M296.411 31.2044C296.392 31.1539 296.438 31.0478 296.469 30.977C296.739 30.5473 297.39 29.905 297.64 29.4248C297.814 29.1215 297.956 28.8889 298.272 28.732C298.272 28.732 298.288 28.6966 298.303 28.6612C297.983 28.7323 297.755 28.5912 297.559 28.3793C297.505 28.3137 297.435 28.2835 297.366 28.2532C296.984 28.087 296.633 28.2289 296.317 28.3859C296.086 28.5377 295.855 28.6896 295.639 28.806C295.581 28.6546 295.508 28.5385 295.484 28.4021C295.168 27.8014 294.724 27.3979 294.053 27.2321C293.209 26.9907 292.365 27.1281 291.54 27.3161C289.924 27.7071 290.194 27.6562 288.714 28.4007C288.248 28.6185 287.801 28.8868 287.354 29.155L287.373 29.2055C287.774 29.0434 288.186 28.76 288.61 28.7342C290.033 28.596 289.15 28.6325 290.372 28.5753C290.931 28.5241 291.494 28.5588 292.015 28.7854C292.501 28.9969 292.84 29.3551 292.898 29.8854C292.937 30.3653 292.629 30.694 292.267 30.9571C291.92 31.1849 291.573 31.4126 291.226 31.6404C289.603 32.6173 287.807 33.1399 285.926 33.2888C285.586 33.3094 285.232 33.3654 284.892 33.3861C285.081 33.4262 285.236 33.4513 285.44 33.4561C286.886 33.4542 288.304 33.2302 289.681 32.8193C289.916 32.7533 290.151 32.6873 290.405 32.6719C290.49 32.6667 290.56 32.6969 290.629 32.7271C290.598 32.7979 290.602 32.8838 290.571 32.9545C290.329 33.2276 290.086 33.5007 289.789 33.7082C288.756 34.5631 287.581 35.2718 286.382 35.8441C286.116 35.9809 285.866 36.0822 285.6 36.2189C285.719 36.2289 285.854 36.2034 285.954 36.1629C287.731 35.5898 289.196 34.502 290.695 33.4292C291.057 33.1661 291.439 32.9534 291.928 32.872C292.538 32.8005 293.127 32.6785 293.717 32.5565C293.937 32.5259 294.188 32.4246 294.423 32.3586C294.423 32.3586 294.608 32.3129 294.658 32.2926C294.658 32.2926 294.762 32.338 294.862 32.2974C295.113 32.1961 295.383 32.1452 295.622 32.1651L296.798 32.2141C297.098 32.0925 297.079 31.6632 296.801 31.5423C296.608 31.4163 296.523 31.4214 296.411 31.2044Z" fill="black"/>
<path d="M313.489 16.1283C312.815 16.2132 311.935 16.3104 311.224 16.365C309.865 16.4682 310.387 16.3771 309.61 16.3407C308.833 16.3043 307.206 16.2739 306.939 16.3104C306.745 16.3346 306.034 16.3711 305.628 16.4257C303.279 16.7535 305.094 15.4909 305.118 15.4605C305.118 15.4605 305.118 15.4545 305.124 15.4545C305.233 15.3209 309.185 10.7076 313.319 8.60121C313.319 8.60121 310.101 10.0095 307.995 11.6484C305.889 13.2813 304.638 13.7184 305.106 12.6258C305.573 11.5331 306.981 9.12931 306.575 7.18685C306.235 5.51147 306.235 5.51147 306.235 5.51147C306.235 5.51147 306.987 9.77276 302.769 14.4043C302.756 14.4165 302.738 14.4286 302.72 14.4347C302.593 14.4893 301.986 14.7564 301.773 14.9081C301.379 15.1752 300.978 15.2238 300.589 15.1206C298.859 15.2784 297.403 14.0826 296.267 12.4861C293.809 9.00184 292.395 7.28397 292.395 7.28397C292.395 7.28397 294.307 15.5516 298.198 16.7717L298.204 16.7656C298.198 16.7838 298.186 16.796 298.167 16.8081C298.046 16.9113 297.797 17.1541 297.664 17.5426C297.524 17.9615 297.524 18.3257 297.53 18.4531C297.53 18.4835 297.524 18.5199 297.5 18.5442L297.281 18.8174C297.196 18.9266 297.305 19.0784 297.433 19.0298C297.536 18.9934 297.639 19.0905 297.609 19.1998L297.603 19.218C297.573 19.3273 297.676 19.4244 297.779 19.388L298.307 19.2119C298.343 19.1998 298.38 19.1998 298.416 19.218C298.556 19.2908 299.029 19.4911 300.019 19.4608C301.239 19.4244 302.332 18.5685 302.556 18.4835C302.781 18.3924 303.139 18.6413 304.11 18.611C304.972 18.5867 310.563 17.4637 313.555 16.3893C313.707 16.3346 313.652 16.104 313.489 16.1283Z" fill="black"/>
<path d="M297.955 19.3393C297.955 19.3393 298.653 16.6441 301.81 15.3997C301.81 15.3997 302.872 15.4604 303.509 15.3997C304.147 15.339 303.934 15.8853 303.934 15.8853C303.934 15.8853 302.841 16.9173 302.781 17.069C302.72 17.2208 302.556 18.4895 302.556 18.4895C302.556 18.4895 300.608 20.0799 298.416 19.224L297.955 19.3393Z" fill="white"/>
</g>
<defs>
<clipPath id="clip0">
<rect x="0.5" y="-0.000244141" width="375" height="43" fill="white"/>
</clipPath>
<clipPath id="clip1">
<rect x="35.976" y="18.5203" width="5" height="5" transform="rotate(0.326054 35.976 18.5203)" fill="white"/>
</clipPath>
<clipPath id="clip2">
<rect x="21.9874" y="-0.286133" width="5" height="5" transform="rotate(0.326054 21.9874 -0.286133)" fill="white"/>
</clipPath>
<clipPath id="clip3">
<rect x="65.1819" y="21.9512" width="4" height="4" transform="rotate(0.326054 65.1819 21.9512)" fill="white"/>
</clipPath>
<clipPath id="clip4">
<rect x="80.8129" y="17.04" width="3" height="3" transform="rotate(0.326054 80.8129 17.04)" fill="white"/>
</clipPath>
</defs>
</svg>
