<?xml version="1.0" encoding="iso-8859-1"?>
<!-- Generator: Adobe Illustrator 21.1.0, SVG Export Plug-In . SVG Version: 6.00 Build 0)  -->
<svg version="1.1" id="Layer_1" xmlns="http://www.w3.org/2000/svg" xmlns:xlink="http://www.w3.org/1999/xlink" x="0px" y="0px"
	 viewBox="0 0 124.918 23.533" style="enable-background:new 0 0 124.918 23.533;" xml:space="preserve">
<g>
	<g>
		<g>
			<path style="fill-rule:evenodd;clip-rule:evenodd;fill:#868586;" d="M72.999,8.714h-4.871v2.51h4.871
				c0.401,0,0.653-0.049,0.804-0.2c0.1-0.1,0.201-0.301,0.201-0.552V9.467c0-0.251-0.1-0.452-0.201-0.552
				C73.652,8.764,73.4,8.714,72.999,8.714L72.999,8.714z M65.969,16.446V7.107h8.035c0.703,0,1.255,0.15,1.605,0.452
				c0.302,0.251,0.503,0.753,0.503,1.356v2.108c0,0.603-0.201,1.105-0.503,1.356c-0.351,0.302-0.903,0.452-1.605,0.452h-5.876v3.615
				H65.969L65.969,16.446z"/>
			<path style="fill-rule:evenodd;clip-rule:evenodd;fill:#868586;" d="M84.965,8.714h-4.873v2.611h4.873
				c0.401,0,0.653-0.051,0.803-0.15c0.101-0.101,0.202-0.302,0.202-0.603V9.467c0-0.251-0.102-0.452-0.202-0.552
				C85.618,8.764,85.366,8.714,84.965,8.714L84.965,8.714z M77.934,16.446V7.107h7.986c0.754,0,1.304,0.15,1.655,0.452
				c0.302,0.251,0.504,0.753,0.504,1.356v2.209c0,0.652-0.202,1.105-0.504,1.356c-0.351,0.301-0.901,0.452-1.655,0.452h-1.206
				l4.32,3.515h-3.113l-3.766-3.515h-2.061v3.515H77.934L77.934,16.446z"/>
			<polygon style="fill-rule:evenodd;clip-rule:evenodd;fill:#868586;" points="90.64,16.446 90.64,7.107 100.23,7.107 
				100.23,8.714 92.849,8.714 92.849,10.772 97.166,10.772 97.166,12.379 92.849,12.379 92.849,14.688 100.33,14.688 100.33,16.446 
				90.64,16.446 			"/>
			<path style="fill-rule:evenodd;clip-rule:evenodd;fill:#868586;" d="M110.533,8.764h-6.126v2.008h5.825
				c0.903,0,1.556,0.151,1.858,0.451c0.349,0.302,0.501,0.905,0.501,1.758v1.256c0,0.852-0.152,1.455-0.501,1.757
				c-0.302,0.301-0.955,0.452-1.858,0.452h-5.774c-0.905,0-1.506-0.151-1.859-0.452c-0.301-0.302-0.452-0.905-0.452-1.757v-0.252
				l1.909-0.401v1.104h6.577V12.58h-5.826c-0.902,0-1.504-0.151-1.807-0.502c-0.352-0.302-0.504-0.854-0.504-1.708V9.316
				c0-0.853,0.152-1.405,0.504-1.707c0.302-0.352,0.904-0.502,1.807-0.502h5.322c0.904,0,1.507,0.15,1.809,0.452
				c0.349,0.301,0.5,0.854,0.5,1.606v0.202l-1.907,0.451V8.764L110.533,8.764z"/>
			<path style="fill-rule:evenodd;clip-rule:evenodd;fill:#868586;" d="M122.908,8.764h-6.123v2.008h5.824
				c0.904,0,1.506,0.151,1.856,0.451c0.302,0.302,0.453,0.905,0.453,1.758v1.256c0,0.852-0.151,1.455-0.453,1.757
				c-0.35,0.301-0.952,0.452-1.856,0.452h-5.774c-0.904,0-1.556-0.151-1.859-0.452c-0.353-0.302-0.501-0.905-0.501-1.757v-0.252
				l1.909-0.401v1.104h6.625V12.58h-5.823c-0.903,0-1.507-0.151-1.857-0.502c-0.302-0.302-0.453-0.854-0.453-1.708V9.316
				c0-0.853,0.151-1.405,0.453-1.707c0.35-0.352,0.954-0.502,1.857-0.502h5.322c0.854,0,1.456,0.15,1.807,0.452
				c0.352,0.301,0.503,0.854,0.503,1.606v0.202l-1.91,0.451V8.764L122.908,8.764z"/>
			<polygon style="fill-rule:evenodd;clip-rule:evenodd;fill:#868586;" points="51.821,16.446 56.239,11.676 51.72,7.107 
				54.633,7.107 57.596,10.27 60.457,7.107 62.917,7.107 58.851,11.425 63.922,16.446 60.959,16.446 57.546,12.83 54.381,16.446 
				51.821,16.446 			"/>
		</g>
		<g>
			<polygon style="fill-rule:evenodd;clip-rule:evenodd;fill:#868586;" points="5.423,16.446 0,7.107 2.511,7.107 6.277,13.885 
				9.892,7.107 12.05,7.107 6.93,16.446 5.423,16.446 			"/>
			<path style="fill-rule:evenodd;clip-rule:evenodd;fill:#868586;" d="M13.754,16.446V7.107h1.456l6.577,5.523
				c0.252,0.2,0.453,0.351,0.603,0.502c0.201,0.151,0.352,0.351,0.503,0.502c-0.051-0.502-0.101-0.904-0.101-1.104
				c0-0.202,0-0.402,0-0.503v-4.92h1.959v9.338h-1.506l-6.88-5.774c-0.15-0.15-0.301-0.251-0.402-0.402
				c-0.151-0.1-0.25-0.2-0.35-0.351c0.05,0.301,0.05,0.552,0.05,0.854c0.05,0.251,0.05,0.451,0.05,0.653v5.021H13.754L13.754,16.446
				z"/>
		</g>
	</g>
	<g>
		<path style="fill-rule:evenodd;clip-rule:evenodd;fill:#8A113E;" d="M48.695,22.412c0,0.619-0.502,1.121-1.121,1.121H28.897
			c-0.619,0-1.121-0.502-1.121-1.121V1.121C27.776,0.502,28.278,0,28.897,0h18.677c0.619,0,1.121,0.502,1.121,1.121V22.412z"/>
		<path style="fill:#FFFFFF;" d="M36.741,7.097h9.073c0.619,0,1.012-0.463,1.012-1.081V3.028c0-0.619-0.393-1.16-1.012-1.16H35.355
			h-4.483c-0.619,0-1.229,0.541-1.229,1.16v17.556c0,0.619,0.61,1.081,1.229,1.081h4.483h10.459c0.619,0,1.012-0.463,1.012-1.081
			v-2.988c0-0.619-0.393-1.16-1.012-1.16h-9.073v-1.081v-0.787h3.097c0.619,0,1.012-0.463,1.012-1.081v-3.362
			c0-0.619-0.394-1.16-1.012-1.16h-3.097V8.257V7.097z M36.849,10.086h2.88v3.362h-2.88h-1.229v0.786v0.374v0.747v1.121v1.081h1.229
			h8.857v2.988H35.355h-4.591V2.988h4.591h10.351v2.988h-8.857h-1.229v1.16v1.121v0.747v0.373v0.708H36.849z"/>
	</g>
	<g>
		<path style="fill:#313133;" d="M51.72,21.665v-2.988h0.728v2.988H51.72z"/>
		<path style="fill:#313133;" d="M55.402,21.665v-2.988h0.503l2.54,1.984v-1.984h0.656v2.988H58.6l-2.532-2.015v2.015H55.402z"/>
		<path style="fill:#313133;" d="M63.842,19.215v2.45h-0.728v-2.45h-1.442v-0.538h3.616v0.538H63.842z"/>
		<path style="fill:#313133;" d="M67.855,21.665v-2.988h3.206v0.531H68.59v0.649h1.439v0.518H68.59v0.732h2.508v0.559H67.855z"/>
		<path style="fill:#313133;" d="M73.773,21.665v-2.988h2.694c0.242,0,0.419,0.045,0.531,0.135c0.113,0.09,0.169,0.238,0.169,0.446
			v0.705c0,0.203-0.057,0.349-0.171,0.439c-0.113,0.09-0.291,0.135-0.53,0.135h-0.41l1.422,1.128h-1.045l-1.253-1.128h-0.687v1.128
			H73.773z M76.158,19.195h-1.664v0.825h1.664c0.117,0,0.202-0.016,0.253-0.05c0.052-0.033,0.078-0.097,0.078-0.191v-0.344
			c0-0.096-0.026-0.16-0.078-0.192C76.359,19.211,76.274,19.195,76.158,19.195z"/>
		<path style="fill:#313133;" d="M79.991,21.665v-2.988h0.503l2.54,1.984v-1.984h0.656v2.988h-0.501l-2.532-2.015v2.015H79.991z"/>
		<path style="fill:#313133;" d="M86.195,21.665l1.774-2.988h0.7l1.801,2.988h-0.817l-0.376-0.656h-1.978l-0.376,0.656H86.195z
			 M87.611,20.465h1.369l-0.697-1.246L87.611,20.465z"/>
		<path style="fill:#313133;" d="M94.621,19.215v2.45h-0.728v-2.45h-1.442v-0.538h3.616v0.538H94.621z"/>
		<path style="fill:#313133;" d="M98.632,21.665v-2.988h0.728v2.988H98.632z"/>
		<path style="fill:#313133;" d="M102.245,19.381c0-0.191,0.024-0.337,0.071-0.436c0.048-0.1,0.126-0.17,0.235-0.209
			c0.11-0.039,0.266-0.059,0.471-0.059h2.313c0.204,0,0.361,0.02,0.471,0.059c0.109,0.039,0.187,0.109,0.235,0.209
			c0.047,0.1,0.071,0.245,0.071,0.436v1.577c0,0.189-0.024,0.334-0.071,0.435c-0.048,0.101-0.127,0.172-0.24,0.212
			c-0.113,0.041-0.268,0.061-0.465,0.061h-2.313c-0.199,0-0.357-0.02-0.469-0.061c-0.113-0.04-0.192-0.111-0.238-0.212
			c-0.046-0.101-0.069-0.246-0.069-0.435V19.381z M102.973,21.093h2.408v-1.863h-2.408V21.093z"/>
		<path style="fill:#313133;" d="M108.99,21.665v-2.988h0.503l2.54,1.984v-1.984h0.656v2.988h-0.501l-2.532-2.015v2.015H108.99z"/>
		<path style="fill:#313133;" d="M115.194,21.665l1.774-2.988h0.7l1.801,2.988h-0.817l-0.376-0.656h-1.978l-0.376,0.656H115.194z
			 M116.61,20.465h1.369l-0.697-1.246L116.61,20.465z"/>
		<path style="fill:#313133;" d="M121.84,21.665v-2.988h0.735v2.429h2.343v0.559H121.84z"/>
	</g>
</g>
</svg>
