<svg width="24" height="22" viewBox="0 0 24 22" fill="none" xmlns="http://www.w3.org/2000/svg">
<path d="M2.87988 13.2285H18.869C19.0632 13.2285 19.2206 13.0712 19.2206 12.877C19.2206 12.6827 19.0632 12.5254 18.869 12.5254H2.87988C2.68568 12.5254 2.52832 12.6827 2.52832 12.877C2.52832 13.0712 2.68568 13.2285 2.87988 13.2285Z" fill="#6B6B6B"/>
<path d="M2.87988 9.95508H12.6099C12.8041 9.95508 12.9614 9.79772 12.9614 9.60352C12.9614 9.40931 12.8041 9.25195 12.6099 9.25195H2.87988C2.68568 9.25195 2.52832 9.40931 2.52832 9.60352C2.52832 9.79772 2.68568 9.95508 2.87988 9.95508Z" fill="#6B6B6B"/>
<path d="M2.87988 6.68262H12.6099C12.8041 6.68262 12.9614 6.52526 12.9614 6.33105C12.9614 6.13685 12.8041 5.97949 12.6099 5.97949H2.87988C2.68568 5.97949 2.52832 6.13685 2.52832 6.33105C2.52832 6.52526 2.68568 6.68262 2.87988 6.68262Z" fill="#6B6B6B"/>
<path d="M23.9997 4.92586C23.9997 2.31956 21.8793 0.199219 19.273 0.199219C16.6667 0.199219 14.5464 2.31956 14.5464 4.92586C14.5464 7.53178 16.6671 9.65255 19.273 9.65255C21.879 9.65255 23.9997 7.53173 23.9997 4.92586ZM19.273 0.902344C21.4916 0.902344 23.2966 2.70731 23.2966 4.92586C23.2966 5.80191 23.0143 6.6128 22.5371 7.2742C22.2974 6.39145 21.71 5.64314 20.8981 5.20116C21.124 4.87908 21.2571 4.48739 21.2571 4.06495C21.2571 2.97094 20.3671 2.08092 19.2731 2.08092C18.179 2.08092 17.289 2.97094 17.289 4.06495C17.289 4.48739 17.4222 4.87908 17.648 5.20116C16.8361 5.64309 16.2487 6.39141 16.009 7.27416C15.5318 6.61275 15.2496 5.80186 15.2496 4.92581C15.2495 2.70731 17.0545 0.902344 19.273 0.902344ZM17.9921 4.06495C17.9921 3.35869 18.5667 2.78405 19.273 2.78405C19.9793 2.78405 20.5539 3.35869 20.5539 4.06495C20.5539 4.77122 19.9793 5.34586 19.273 5.34586C18.5667 5.34586 17.9921 4.77122 17.9921 4.06495ZM16.6034 7.93261C16.6886 6.95817 17.2897 6.11733 18.1826 5.72123C18.4957 5.92809 18.8705 6.04894 19.273 6.04894C19.6756 6.04894 20.0503 5.92809 20.3635 5.72119C21.2563 6.11733 21.8574 6.95817 21.9427 7.93256C21.2318 8.56444 20.2967 8.94933 19.273 8.94933C18.2494 8.94942 17.3143 8.56453 16.6034 7.93261Z" fill="#6B6B6B"/>
<path d="M21.7353 9.91358C21.5411 9.91358 21.3838 10.0709 21.3838 10.2651V14.4515C21.3838 15.4479 20.5731 16.2586 19.5766 16.2586H10.653C10.2492 16.2586 9.87258 16.4757 9.67017 16.8252L7.27509 20.9602C7.20319 21.0844 7.08427 21.0978 7.0365 21.0978C6.98869 21.0978 6.86977 21.0844 6.79791 20.9603L4.40278 16.8252C4.20042 16.4757 3.82378 16.2586 3.41995 16.2586H2.51025C1.51378 16.2586 0.703125 15.4479 0.703125 14.4515V4.856C0.703125 3.85953 1.51378 3.04883 2.51025 3.04883H13.812C14.0062 3.04883 14.1636 2.89147 14.1636 2.69727C14.1636 2.50306 14.0062 2.3457 13.812 2.3457H2.51025C1.12608 2.3457 0 3.47178 0 4.856V14.4515C0 15.8356 1.12608 16.9618 2.51025 16.9618H3.42C3.57384 16.9618 3.71728 17.0444 3.79434 17.1776L6.18947 21.3127C6.36656 21.6184 6.6832 21.8009 7.0365 21.8009C7.38975 21.8009 7.70639 21.6184 7.88348 21.3127L10.2786 17.1776C10.3557 17.0444 10.4991 16.9618 10.653 16.9618H19.5766C20.9607 16.9618 22.0868 15.8357 22.0868 14.4515V10.2651C22.0869 10.071 21.9295 9.91358 21.7353 9.91358Z" fill="#6B6B6B"/>
</svg>
