<svg width="24" height="24" viewBox="0 0 24 24" fill="none" xmlns="http://www.w3.org/2000/svg">
<g clip-path="url(#clip0)">
<path d="M20.8383 8.95971H9.68209C9.48793 8.95971 9.33053 9.11711 9.33053 9.31127C9.33053 9.50542 9.48793 9.66283 9.68209 9.66283H20.8383C21.0325 9.66283 21.1899 9.50542 21.1899 9.31127C21.1899 9.11711 21.0325 8.95971 20.8383 8.95971Z" fill="#191919"/>
<path d="M20.8383 11.6472H9.68209C9.48793 11.6472 9.33053 11.8046 9.33053 11.9987C9.33053 12.1929 9.48793 12.3503 9.68209 12.3503H20.8383C21.0325 12.3503 21.1899 12.1929 21.1899 11.9987C21.1899 11.8046 21.0325 11.6472 20.8383 11.6472Z" fill="#191919"/>
<path d="M20.8383 14.3347H9.68209C9.48793 14.3347 9.33053 14.4921 9.33053 14.6862C9.33053 14.8804 9.48793 15.0378 9.68209 15.0378H20.8383C21.0325 15.0378 21.1899 14.8804 21.1899 14.6862C21.1899 14.4921 21.0325 14.3347 20.8383 14.3347Z" fill="#191919"/>
<path d="M21.9553 5.88512H8.56569C7.43821 5.88512 6.52091 6.80237 6.52091 7.9299V16.3494C6.52091 17.4769 7.43816 18.3942 8.56569 18.3942H17.9506C18.0509 18.3942 18.1442 18.4394 18.2064 18.5182L21.2371 22.355C21.3566 22.5062 21.5308 22.5886 21.7133 22.5886C21.7812 22.5886 21.8502 22.5773 21.9179 22.5537C22.1676 22.467 22.3289 22.2402 22.3289 21.9758V18.3593C23.2769 18.1822 24.0001 17.344 24.0001 16.3494V7.92985C24.0001 6.80237 23.0829 5.88512 21.9553 5.88512ZM23.297 16.3494C23.297 17.0796 22.703 17.6813 21.9728 17.6905C21.7804 17.693 21.6257 17.8497 21.6257 18.0421V21.7126L18.7582 18.0823C18.5618 17.8336 18.2675 17.6911 17.9506 17.6911H8.56569C7.82591 17.6911 7.22404 17.0892 7.22404 16.3494V7.92985C7.22404 7.19007 7.82586 6.58819 8.56569 6.58819H21.9553C22.6951 6.58819 23.297 7.19007 23.297 7.92985V16.3494Z" fill="#191919"/>
<path d="M5.17941 11.6981C4.93894 11.7323 4.72359 11.8561 4.57303 12.0467L2.15798 15.1041V12.0399C2.15798 11.8474 2.0033 11.6908 1.81092 11.6883C1.20009 11.6805 0.703125 11.1772 0.703125 10.5663V3.23692C0.703125 2.61803 1.20666 2.1145 1.82555 2.1145H13.4816C14.1005 2.1145 14.604 2.61803 14.604 3.23692V4.59311C14.604 4.78727 14.7615 4.94467 14.9556 4.94467C15.1498 4.94467 15.3072 4.78727 15.3072 4.59311V3.23692C15.3072 2.23033 14.4882 1.41138 13.4816 1.41138H1.82555C0.818953 1.41138 0 2.23033 0 3.23692V10.5663C0 11.4414 0.626766 12.1806 1.45491 12.3534V15.4643C1.45491 15.7141 1.60734 15.9284 1.84331 16.0104C1.9073 16.0326 1.97245 16.0434 2.03658 16.0434C2.20894 16.0434 2.3737 15.9655 2.48653 15.8226L5.12484 12.4825C5.16291 12.4343 5.21742 12.403 5.27827 12.3943C5.4705 12.367 5.60423 12.189 5.57691 11.9968C5.54962 11.8045 5.37192 11.6707 5.17941 11.6981Z" fill="#191919"/>
</g>
<defs>
<clipPath id="clip0">
<rect width="24" height="24" fill="white"/>
</clipPath>
</defs>
</svg>
