<svg width="23" height="25" viewBox="0 0 23 25" fill="none" xmlns="http://www.w3.org/2000/svg">
<path fill-rule="evenodd" clip-rule="evenodd" d="M8.05229 13.3202C8.05229 11.6683 6.70842 10.3242 5.05633 10.3242C3.40442 10.3242 2.06055 11.6683 2.06055 13.3202C2.06055 14.9721 3.40442 16.3161 5.05633 16.3161C6.70842 16.3161 8.05229 14.9721 8.05229 13.3202ZM2.99988 13.3202C2.99988 12.1862 3.92234 11.2636 5.05633 11.2636C6.19032 11.2636 7.11296 12.1862 7.11296 13.3202C7.11296 14.4542 6.19032 15.3768 5.05633 15.3768C3.92234 15.3768 2.99988 14.4542 2.99988 13.3202Z" fill="#AA7D54"/>
<path fill-rule="evenodd" clip-rule="evenodd" d="M22.6904 3.92778L21.7153 2.33293L22.7049 0.714775C22.7935 0.569655 22.7968 0.388209 22.7139 0.239971C22.6308 0.0917319 22.4741 0 22.3042 0H18.3627C18.1033 0 17.893 0.210249 17.893 0.469667V5.88387H15.1794C13.8666 5.88387 12.7986 6.95181 12.7986 8.26468V13.0542C12.7986 14.3671 13.8666 15.435 15.1794 15.435H19.5692C20.3639 15.435 21.0105 16.0817 21.0105 16.8765V21.6662C21.0105 22.4609 20.3639 23.1074 19.5692 23.1074H5.8158L9.67735 15.3732C9.68083 15.3664 9.68414 15.3594 9.68707 15.3524C9.96961 14.7098 10.1127 14.026 10.1127 13.32C10.1127 10.5319 7.84454 8.26358 5.05645 8.26358C2.26835 8.26358 0 10.5319 0 13.32C0 14.0262 0.143102 14.7099 0.425453 15.3524C0.428571 15.3594 0.431874 15.3664 0.435176 15.3732L1.69631 17.8991C1.81226 18.131 2.09442 18.2253 2.32632 18.1095C2.5584 17.9936 2.6527 17.7116 2.53675 17.4795L1.28113 14.9642C1.05437 14.4445 0.939335 13.8913 0.939335 13.3198C0.939335 11.0498 2.78626 9.20291 5.05645 9.20291C7.32644 9.20291 9.17337 11.0498 9.17337 13.3198C9.17337 13.8913 9.05853 14.4445 8.83176 14.964L5.05645 22.5257L4.21545 20.8417C4.0995 20.6096 3.81751 20.5151 3.58543 20.6312C3.35353 20.747 3.25923 21.0292 3.37518 21.2613L4.63613 23.787C4.63686 23.7885 4.63796 23.7898 4.6387 23.7914C4.64787 23.809 4.65778 23.8261 4.66897 23.8424C4.67044 23.8446 4.67209 23.8466 4.67374 23.8488C4.68346 23.8624 4.69392 23.8756 4.70511 23.8881C4.7086 23.8921 4.71227 23.8962 4.71594 23.9C4.7286 23.9134 4.74199 23.9264 4.75612 23.9382C4.75667 23.9385 4.75703 23.9391 4.7574 23.9395C4.77226 23.9517 4.78804 23.9626 4.80437 23.973C4.80822 23.9756 4.81226 23.978 4.81629 23.9802C4.8306 23.989 4.84546 23.9969 4.86087 24.0039C4.86344 24.005 4.86583 24.0062 4.86821 24.0073C4.88619 24.0152 4.90472 24.022 4.92399 24.0277C4.92729 24.0286 4.93059 24.0292 4.93389 24.0303C4.94967 24.0345 4.96563 24.0378 4.98196 24.0404C4.98691 24.0413 4.99187 24.042 4.99682 24.0427C5.01627 24.0453 5.03608 24.047 5.05645 24.047H19.5692C20.8818 24.047 21.9498 22.979 21.9498 21.6662V16.8765C21.9498 15.5638 20.8818 14.4958 19.5692 14.4958H15.1794C14.3847 14.4958 13.738 13.8491 13.738 13.0544V8.26468C13.738 7.46991 14.3847 6.8232 15.1794 6.8232H17.893V7.97792C17.893 8.23734 18.1035 8.44759 18.3627 8.44759C18.6221 8.44759 18.8324 8.23734 18.8324 7.97792V4.66603H22.3042H22.3052C22.5646 4.66603 22.7748 4.4556 22.7748 4.19637C22.7748 4.09638 22.7436 4.00391 22.6904 3.92778ZM18.8324 3.7267V0.939335H21.4665L20.7642 2.088C20.6723 2.23826 20.6723 2.42759 20.7642 2.57803L21.4665 3.7267H18.8324Z" fill="#AA7D54"/>
<path fill-rule="evenodd" clip-rule="evenodd" d="M2.95618 18.9004C2.6975 18.9004 2.48633 19.1114 2.48633 19.3701C2.48633 19.6287 2.6975 19.8397 2.95618 19.8397C3.21486 19.8397 3.42585 19.6287 3.42585 19.3701C3.42585 19.1114 3.21486 18.9004 2.95618 18.9004Z" fill="#AA7D54"/>
</svg>
