<svg width="22" height="22" viewBox="0 0 22 22" fill="none" xmlns="http://www.w3.org/2000/svg">
<g clip-path="url(#clip0)">
<path d="M18.5124 12.3776V20.6948C18.5124 21.0558 18.2215 21.3495 17.8637 21.3495H17.3639C17.1858 21.3495 17.0416 21.4951 17.0416 21.6747C17.0416 21.8544 17.1858 22 17.3639 22H17.8637C18.5769 22 19.1571 21.4145 19.1571 20.6948V13.0548L19.8131 13.7439C20.1094 14.0551 20.6012 14.0604 20.9039 13.755L21.7779 12.8729C22.0698 12.5784 22.0746 12.0945 21.7886 11.7941L11.8691 1.37378C11.3948 0.875622 10.6055 0.875189 10.1309 1.37378L0.211326 11.7941C-0.0745868 12.0944 -0.0697736 12.5784 0.22207 12.8729L1.09614 13.755C1.3986 14.0601 1.89027 14.0555 2.18693 13.7439L2.8429 13.0549V14.6348C2.8429 14.8145 2.98721 14.9601 3.16521 14.9601C3.34321 14.9601 3.48752 14.8145 3.48752 14.6348V12.3777L10.7549 4.74339C10.8886 4.603 11.1109 4.60261 11.245 4.74339C17.037 10.8277 15.8904 9.62321 18.5124 12.3776ZM21.3221 12.4129L20.448 13.295C20.3908 13.3424 20.3342 13.3419 20.2779 13.2932L11.7099 4.2928C11.7099 4.29275 11.7099 4.29275 11.7098 4.29271C11.7094 4.29223 11.7089 4.29184 11.7085 4.29137C11.3208 3.88553 10.6775 3.88571 10.2901 4.29275L2.93276 12.0214C2.93259 12.0216 2.93246 12.0218 2.93229 12.0219L1.72207 13.2932C1.66586 13.3419 1.60913 13.3424 1.55197 13.2949L0.677905 12.4129C0.632395 12.3669 0.631664 12.2915 0.676229 12.2447L10.5958 1.82441C10.8167 1.59244 11.1834 1.59249 11.4042 1.82446L21.3237 12.2446C21.3683 12.2915 21.3676 12.367 21.3221 12.4129Z" fill="#6B6B6B"/>
<path d="M15.6857 21.3763H13.8214V17.8456C13.8214 16.2765 12.5348 15 10.9535 15C9.37218 15 8.08565 16.2765 8.08565 17.8456V21.3763H4.26109C3.9123 21.3763 3.62854 21.0948 3.62854 20.7487V16.394C3.62854 16.2217 3.48783 16.0821 3.31427 16.0821C3.14071 16.0821 3 16.2217 3 16.394V20.7487C3 21.4387 3.56572 22 4.26109 22H15.6857C15.8593 22 16 21.8604 16 21.6882C16 21.5159 15.8593 21.3763 15.6857 21.3763ZM8.71418 17.8456C8.71418 16.6205 9.71875 15.6237 10.9535 15.6237C12.1882 15.6237 13.1928 16.6205 13.1928 17.8456V21.3764H8.71418V17.8456Z" fill="#6B6B6B"/>
</g>
<defs>
<clipPath id="clip0">
<rect width="22" height="22" fill="white"/>
</clipPath>
</defs>
</svg>
