<svg width="28" height="24" viewBox="0 0 28 24" fill="none" xmlns="http://www.w3.org/2000/svg">
<path d="M19.8506 0C17.5052 0.00362219 15.308 1.1476 13.9597 3.06672C12.6114 1.1476 10.4142 0.00362219 8.06872 0C4.23303 0 0.868652 3.56871 0.868652 7.63643C0.868652 11.6008 3.10717 15.6839 7.34257 19.4446C9.30495 21.1836 11.4576 22.6954 13.7594 23.9514C13.8851 24.0162 14.0343 24.0162 14.16 23.9514C16.4609 22.6954 18.6129 21.1834 20.5747 19.4446C24.8122 15.6839 27.0507 11.6008 27.0507 7.63643C27.0507 3.56871 23.6863 0 19.8506 0V0ZM13.9597 23.0676C12.357 22.1832 1.74139 16.0041 1.74139 7.63643C1.74139 4.03342 4.69773 0.872735 8.06872 0.872735C10.3524 0.876783 12.4575 2.10875 13.5796 4.09798C13.6635 4.22624 13.8065 4.30338 13.9597 4.30338C14.1129 4.30338 14.2558 4.22624 14.3398 4.09798C15.4618 2.10875 17.567 0.876783 19.8506 0.872735C23.2216 0.872735 26.178 4.03342 26.178 7.63643C26.178 16.0041 15.5624 22.1832 13.9597 23.0676Z" fill="#6B6B6B"/>
</svg>
