<svg width="64" height="49" viewBox="0 0 64 49" fill="none" xmlns="http://www.w3.org/2000/svg">
<path fill-rule="evenodd" clip-rule="evenodd" d="M37.9595 0.414436C37.9594 0.414294 37.9594 0.414183 38.4145 0.207128L38.8696 0L38.8716 0.00447649L38.8788 0.0201455L38.9088 0.0844001C38.9356 0.141574 38.9761 0.227024 39.0302 0.33841C39.1382 0.561196 39.3001 0.887662 39.5141 1.2991C39.9423 2.12214 40.5786 3.28436 41.409 4.63636C43.0715 7.34321 45.5036 10.7972 48.5909 13.8131C51.6836 16.8344 55.2257 19.3497 58.0014 21.1123C59.3879 21.9927 60.5799 22.6832 61.4244 23.1532C61.8465 23.3881 62.1817 23.5679 62.4106 23.6885C62.5251 23.7488 62.613 23.7944 62.672 23.8247L62.7384 23.8587L62.7547 23.8669L62.7586 23.8689L62.7595 23.8694L63.6745 24.3287L62.7498 24.7679L62.7488 24.7683L62.745 24.7701L62.7287 24.7779L62.6625 24.81C62.6037 24.8387 62.5159 24.8819 62.4016 24.9392C62.1729 25.0538 61.8381 25.225 61.4162 25.4496C60.5724 25.8989 59.3811 26.562 57.9955 27.4148C55.2213 29.1222 51.6815 31.5819 48.5909 34.6012C45.5036 37.6171 43.0715 41.071 41.409 43.7779C40.5786 45.1299 39.9423 46.2921 39.5141 47.1152C39.3001 47.5266 39.1382 47.8531 39.0302 48.0758C38.9761 48.1872 38.9356 48.2727 38.9088 48.3299L38.8788 48.3941L38.8716 48.4098L38.87 48.4134L38.4145 48.2071C37.9594 48.0001 37.9594 48 37.9595 47.9998L37.9603 47.998L37.9626 47.993L37.971 47.9747L38.0035 47.905C38.0321 47.8441 38.0744 47.7549 38.1303 47.6395C38.2422 47.4089 38.4083 47.074 38.627 46.6536C39.0643 45.813 39.7122 44.6298 40.5568 43.2545C42.2444 40.5069 44.7257 36.979 47.8921 33.8858C51.0549 30.796 54.662 28.2921 57.4713 26.5631C58.6407 25.8434 59.6742 25.2566 60.4832 24.8162H0V23.8162H60.5625C59.7417 23.352 58.6765 22.7255 57.4654 21.9565C54.6576 20.1736 51.0528 17.6162 47.8921 14.5284C44.7257 11.4352 42.2444 7.9074 40.5568 5.15972C39.7122 3.78444 39.0643 2.60121 38.627 1.76061C38.4083 1.34023 38.2422 1.00533 38.1303 0.774709C38.0744 0.659391 38.0321 0.570125 38.0035 0.509259L37.971 0.439547L37.9626 0.421212L37.9603 0.41627L37.9595 0.414436Z" fill="#191919"/>
</svg>
