<svg width="25" height="24" viewBox="0 0 25 24" fill="none" xmlns="http://www.w3.org/2000/svg">
<path d="M14.7182 0.874512H3.15765C1.41653 0.874512 0 2.29104 0 4.03216V16.949C0 17.1553 0.167247 17.3226 0.373652 17.3226C0.58001 17.3226 0.747352 17.1553 0.747352 16.9489V4.03216C0.747352 2.70309 1.82863 1.62186 3.15765 1.62186H14.7182C14.9246 1.62186 15.0919 1.45457 15.0919 1.24816C15.0919 1.04181 14.9246 0.874512 14.7182 0.874512Z" fill="#6B6B6B"/>
<path d="M22.7516 8.9082C22.5452 8.9082 22.3779 9.0755 22.3779 9.28186V20.8424C22.3779 22.1715 21.2966 23.2527 19.9676 23.2527H3.15765C1.82863 23.2527 0.747352 22.1715 0.747352 20.8424V18.876C0.747352 18.6696 0.580105 18.5023 0.373652 18.5023C0.167199 18.5023 0 18.6696 0 18.876V20.8424C0 22.5835 1.41653 24.0001 3.15765 24.0001H19.9676C21.7087 24.0001 23.1252 22.5835 23.1252 20.8424V9.2819C23.1252 9.07554 22.9579 8.9082 22.7516 8.9082Z" fill="#6B6B6B"/>
<path d="M24.2533 3.25157L21.1112 0.10943C20.9652 -0.0364528 20.7287 -0.0365004 20.5827 0.10943C20.4368 0.255313 20.4368 0.491932 20.5827 0.637862L23.0869 3.14214H19.7481C14.2536 3.14214 9.78345 7.61226 9.78345 13.1067V15.9872C9.78345 16.1936 9.95069 16.3608 10.1571 16.3608C10.3635 16.3608 10.5308 16.1936 10.5308 15.9872V13.1067C10.5308 8.02431 14.6657 3.88944 19.7481 3.88944H23.0869L20.5179 6.45847C20.372 6.60435 20.372 6.84097 20.5179 6.9869C20.5909 7.05989 20.6864 7.09634 20.7821 7.09634C20.8777 7.09634 20.9733 7.05984 21.0463 6.9869L24.2532 3.78005C24.2619 3.77149 24.2703 3.76211 24.2779 3.75269C24.3975 3.607 24.3876 3.38451 24.2533 3.25157Z" fill="#6B6B6B"/>
</svg>
