<svg width="24" height="17" viewBox="0 0 24 17" fill="none" xmlns="http://www.w3.org/2000/svg">
<path d="M22 0H2C0.896 0.0013 0.0013 0.896 0 2V14.8C0.0013 15.904 0.896 16.7987 2 16.8H22C22.1122 16.8004 22.2243 16.7906 22.3348 16.7708C23.2972 16.6097 24.0018 15.7758 24 14.8V2C23.9987 0.89595 23.104 0.0013 22 0ZM2 16C1.37825 15.9999 0.8595 15.5249 0.8048 14.9056L8.78 9.6912L16.8904 16H2ZM23.2 14.8C23.2006 15.3871 22.7754 15.888 22.196 15.9828C22.1313 15.9944 22.0657 16.0002 22 16H18.1932L12.8936 11.8756L17.6328 8.086L23.2 11.4264V14.8ZM23.2 10.4936L17.806 7.2572C17.6626 7.17095 17.4807 7.1831 17.35 7.2876L12.2432 11.3716L9.0452 8.8844C8.91045 8.7797 8.72415 8.77195 8.5812 8.8652L0.8 13.9528V2C0.8 1.33725 1.33725 0.8 2 0.8H22C22.6627 0.8 23.2 1.33725 23.2 2V10.4936Z" fill="#6B6B6B"/>
<path d="M12.0001 2.40039C10.6746 2.40039 9.6001 3.47489 9.6001 4.80039C9.6014 6.12534 10.6751 7.19909 12.0001 7.20039C13.3256 7.20039 14.4001 6.12589 14.4001 4.80039C14.4001 3.47489 13.3256 2.40039 12.0001 2.40039ZM12.0001 6.40039C11.1164 6.40039 10.4001 5.68404 10.4001 4.80039C10.4001 3.91674 11.1164 3.20039 12.0001 3.20039C12.8837 3.20039 13.6001 3.91674 13.6001 4.80039C13.6001 5.68404 12.8837 6.40039 12.0001 6.40039Z" fill="#6B6B6B"/>
</svg>
