<svg width="20" height="29" viewBox="0 0 20 29" fill="none" xmlns="http://www.w3.org/2000/svg">
<path d="M10 0C4.48589 0 0 4.65246 0 10.3708V18.6294C0 24.3478 4.48589 29 10 29C15.5138 29 20 24.3619 20 18.6612V10.3708C20 4.65246 15.5138 0 10 0ZM18.1191 18.6612C18.1191 23.3031 14.4771 27.0795 10 27.0795C5.5232 27.0795 1.88091 23.2887 1.88091 18.6292V10.3708C1.88091 5.7113 5.5232 1.92051 10 1.92051C14.4771 1.92051 18.1191 5.7113 18.1191 10.3708V18.6612Z" fill="#5FAE2E"/>
<path d="M10 7C9.44768 7 9 7.48839 9 8.09092V11.9091C9 12.5116 9.44768 13 10 13C10.5523 13 11 12.5116 11 11.9091V8.09092C11 7.48839 10.5523 7 10 7Z" fill="#5FAE2E"/>
</svg>
