<svg aria-hidden="true" style="position: absolute; width: 0; height: 0; overflow: hidden;" version="1.1" xmlns="http://www.w3.org/2000/svg" xmlns:xlink="http://www.w3.org/1999/xlink">
<defs>
<symbol id="arrow" viewBox="0 0 58 32">
<title>arrow</title>
<path fill="none" stroke="#666" style="stroke: var(--color1, #666)" stroke-linejoin="miter" stroke-linecap="butt" stroke-miterlimit="4" stroke-width="2.9091" d="M2.909 2.909l26.182 26.182 26.182-26.182"></path>
</symbol>
<symbol id="face" viewBox="0 0 16 32">
<title>face</title>
<path d="M4.628 30.923h5.649v-13.762h4.386l0.721-5.468h-5.108v-3.786c0-0.842 0.119-1.502 0.48-1.924 0.361-0.48 1.142-0.721 2.224-0.721h2.885v-4.868c-1.26-0.151-2.722-0.238-4.204-0.24h-0.003c-2.164 0-3.846 0.661-5.108 1.924-1.324 1.26-1.924 3.002-1.924 5.287v4.327h-4.628v5.468h4.628v13.762z"></path>
</symbol>
<symbol id="insta" viewBox="0 0 32 32">
<title>insta</title>
<path d="M15.825 7.982c1.358 0 2.649 0.408 3.872 1.087 1.209 0.672 2.18 1.643 2.833 2.816l0.019 0.037c0.682 1.224 1.088 2.515 1.088 3.873 0 1.426-0.408 2.717-1.087 3.94-0.672 1.209-1.643 2.18-2.816 2.833l-0.037 0.019c-1.113 0.641-2.448 1.020-3.871 1.020-0.001 0-0.001 0-0.002 0h0c-0.016 0-0.035 0-0.054 0-1.428 0-2.768-0.378-3.925-1.039l0.039 0.020c-1.209-0.672-2.18-1.643-2.833-2.816l-0.019-0.037c-0.642-1.119-1.020-2.46-1.020-3.889 0-0.019 0-0.037 0-0.056v0.003c0-1.358 0.339-2.649 1.018-3.872 0.672-1.209 1.643-2.18 2.816-2.833l0.037-0.019c1.224-0.682 2.514-1.088 3.942-1.088zM15.825 20.889c1.358 0 2.581-0.476 3.601-1.494 0.923-0.904 1.494-2.162 1.494-3.554 0-0.016-0-0.033-0-0.049l0 0.002c0-1.358-0.543-2.581-1.494-3.601-1.020-0.95-2.241-1.494-3.601-1.494-1.427 0-2.649 0.543-3.601 1.494-0.922 0.897-1.495 2.149-1.495 3.535 0 0.023 0 0.046 0 0.069l-0-0.003c0 1.426 0.476 2.649 1.494 3.601 0.952 1.018 2.175 1.494 3.601 1.494zM25.811 7.642c0-0.476-0.205-0.883-0.544-1.291-0.408-0.339-0.815-0.543-1.291-0.543-0.543 0-0.95 0.203-1.291 0.543-0.335 0.311-0.543 0.753-0.543 1.245 0 0.016 0 0.033 0.001 0.049l-0-0.002c0 0.543 0.136 0.95 0.543 1.29 0.341 0.408 0.749 0.544 1.291 0.544 0.476 0 0.883-0.136 1.224-0.543 0.338-0.341 0.543-0.749 0.611-1.291zM30.973 9.476c0 1.291 0.070 3.396 0.070 6.318 0 2.99-0.070 5.095-0.136 6.386-0.059 1.208-0.253 2.346-0.569 3.433l0.026-0.105c-0.427 1.17-1.077 2.169-1.903 2.989l-0 0c-0.815 0.815-1.834 1.426-2.922 1.834-0.95 0.339-2.105 0.543-3.396 0.612-1.291 0.068-3.396 0.068-6.318 0.068-2.99 0-5.095 0-6.386-0.070-1.291-0.067-2.378-0.271-3.329-0.679-1.174-0.349-2.179-0.96-2.989-1.767l0 0c-0.815-0.814-1.426-1.832-1.834-2.989-0.339-0.95-0.543-2.037-0.612-3.328-0.068-1.291-0.068-3.396-0.068-6.386 0-2.922 0-5.027 0.070-6.318 0.067-1.291 0.271-2.446 0.611-3.396 0.408-1.088 1.018-2.106 1.834-2.922 0.821-0.826 1.819-1.475 2.933-1.884l0.056-0.018c0.982-0.29 2.121-0.484 3.295-0.541l0.034-0.001c1.753-0.088 3.807-0.137 5.872-0.137 0.181 0 0.362 0 0.542 0.001l-0.028-0c2.922 0 5.027 0.067 6.317 0.135 1.293 0.068 2.447 0.273 3.398 0.543 1.14 0.446 2.114 1.092 2.921 1.903l0 0c0.811 0.808 1.456 1.781 1.882 2.865l0.020 0.057c0.271 0.95 0.476 2.105 0.612 3.396zM27.715 24.761c0.271-0.747 0.408-1.97 0.543-3.667 0-0.952 0.070-2.379 0.070-4.213v-2.173c0-1.835-0.070-3.261-0.070-4.213-0.135-1.697-0.271-2.922-0.543-3.667-0.535-1.343-1.579-2.387-2.887-2.909l-0.035-0.012c-0.747-0.271-1.97-0.408-3.667-0.543-1.020 0-2.446-0.070-4.213-0.070h-2.173c-1.835 0-3.261 0.070-4.213 0.070-1.697 0.135-2.922 0.271-3.667 0.543-1.427 0.543-2.379 1.562-2.922 2.922-0.271 0.747-0.476 1.97-0.543 3.667-0.070 1.020-0.070 2.446-0.070 4.213v2.173c0 1.835 0 3.261 0.070 4.213 0.067 1.697 0.271 2.922 0.543 3.667 0.543 1.427 1.562 2.379 2.922 2.922 0.747 0.271 1.97 0.476 3.667 0.543 0.952 0.070 2.379 0.070 4.213 0.070h2.173c1.835 0 3.261 0 4.211-0.070 1.699-0.067 2.922-0.271 3.669-0.543 1.343-0.535 2.387-1.579 2.91-2.887l0.012-0.035z"></path>
</symbol>
</defs>
</svg>
