<svg width="16" height="34" viewBox="0 0 16 34" fill="none" xmlns="http://www.w3.org/2000/svg">
<path d="M3.35002 1.87793H12.6828C13.1909 1.87793 13.6027 2.28992 13.6027 2.79806V31.1757C13.6027 31.6835 13.1909 32.0956 12.6828 32.0956H3.35002C2.84193 32.0956 2.43018 31.6836 2.43018 31.1757V2.79806C2.43018 2.28992 2.84193 1.87793 3.35002 1.87793Z" fill="white"/>
<path d="M8.91077 25.7157C8.92897 25.6456 8.93828 25.5731 8.93939 25.5008V5.58335C8.93898 5.07521 8.52693 4.66345 8.01908 4.66345C7.51122 4.66392 7.09964 5.07544 7.09923 5.58335V25.5008C7.10039 25.5731 7.1097 25.6456 7.12785 25.7158C5.96571 26.2089 5.42376 27.551 5.91685 28.7129C6.41016 29.875 7.75206 30.4167 8.91397 29.9236C10.076 29.4305 10.6181 28.0884 10.1249 26.9265C9.89354 26.3812 9.45934 25.9471 8.91397 25.7158L8.91077 25.7157Z" fill="#EDF5FF"/>
<path d="M3.34989 32.5539H12.6827C13.4455 32.5539 14.0643 31.9351 14.0643 31.1723V2.80118C14.0643 2.03812 13.4455 1.41956 12.6827 1.41956H3.34989C2.58706 1.41956 1.96826 2.03812 1.96826 2.80118V31.1754C1.97036 31.9374 2.58799 32.5539 3.34989 32.5539ZM3.34989 2.33626H12.6827C12.9375 2.33626 13.1443 2.54307 13.1443 2.79804V31.1723C13.1443 31.4272 12.9375 31.634 12.6827 31.634H3.34989C3.09515 31.634 2.8884 31.4272 2.8884 31.1723V23.901H4.15292C4.19319 23.9111 4.23506 23.9131 4.27612 23.907C4.31718 23.9009 4.35664 23.8868 4.39224 23.8654C4.42784 23.8441 4.45889 23.8159 4.4836 23.7825C4.50832 23.7492 4.52622 23.7113 4.53629 23.671C4.5496 23.618 4.54896 23.5625 4.53441 23.5099C4.51987 23.4572 4.49192 23.4093 4.4533 23.3706C4.41468 23.332 4.3667 23.3041 4.31406 23.2895C4.26141 23.275 4.20589 23.2743 4.15292 23.2876H2.8884V21.7479H4.15292C4.19319 21.7378 4.23108 21.7199 4.26443 21.6952C4.29778 21.6705 4.32593 21.6395 4.34727 21.6038C4.36861 21.5682 4.38272 21.5288 4.38881 21.4877C4.39489 21.4467 4.39281 21.4048 4.38271 21.3645C4.3688 21.309 4.34009 21.2583 4.29962 21.2178C4.25915 21.1773 4.20845 21.1485 4.15292 21.1346H2.8884V19.5791H4.15292C4.19318 19.5893 4.23505 19.5913 4.27612 19.5853C4.31719 19.5792 4.35666 19.5651 4.39227 19.5438C4.42788 19.5224 4.45893 19.4943 4.48364 19.4609C4.50835 19.4275 4.52624 19.3896 4.53629 19.3493C4.54957 19.2964 4.5489 19.2409 4.53435 19.1882C4.51979 19.1356 4.49185 19.0876 4.45324 19.049C4.41463 19.0104 4.36667 18.9824 4.31404 18.9678C4.26141 18.9532 4.2059 18.9525 4.15292 18.9658H2.8884V17.4105H4.15292C4.19319 17.4206 4.23506 17.4227 4.27612 17.4166C4.31718 17.4105 4.35664 17.3963 4.39224 17.375C4.42784 17.3536 4.45889 17.3255 4.4836 17.2921C4.50832 17.2587 4.52622 17.2208 4.53629 17.1806C4.5464 17.1403 4.54848 17.0984 4.5424 17.0574C4.53632 17.0163 4.52221 16.9769 4.50087 16.9412C4.47953 16.9056 4.45138 16.8746 4.41802 16.8499C4.38467 16.8252 4.34678 16.8073 4.3065 16.7972C4.2561 16.7845 4.20332 16.7845 4.15292 16.7972H2.8884V15.2418H4.15292C4.19319 15.2518 4.23506 15.2539 4.27612 15.2478C4.31718 15.2417 4.35664 15.2275 4.39224 15.2062C4.42784 15.1848 4.45889 15.1567 4.4836 15.1233C4.50832 15.09 4.52622 15.0521 4.53629 15.0118C4.5496 14.9588 4.54896 14.9033 4.53441 14.8507C4.51987 14.798 4.49192 14.75 4.4533 14.7114C4.41468 14.6728 4.3667 14.6448 4.31406 14.6303C4.26141 14.6158 4.20589 14.6151 4.15292 14.6284H2.8884V13.073H4.15292C4.19319 13.0831 4.23506 13.0851 4.27612 13.079C4.31718 13.0729 4.35664 13.0588 4.39224 13.0374C4.42784 13.0161 4.45889 12.9879 4.4836 12.9545C4.50832 12.9212 4.52622 12.8833 4.53629 12.843C4.5496 12.79 4.54896 12.7345 4.53441 12.6819C4.51987 12.6292 4.49192 12.5813 4.4533 12.5426C4.41468 12.504 4.3667 12.4761 4.31406 12.4615C4.26141 12.447 4.20589 12.4463 4.15292 12.4597H2.8884V10.9041H4.15292C4.2213 10.887 4.282 10.8475 4.32538 10.7919C4.36875 10.7364 4.39231 10.6679 4.39231 10.5974C4.39231 10.5269 4.36875 10.4585 4.32538 10.4029C4.282 10.3473 4.2213 10.3079 4.15292 10.2908H2.8884V8.73537H4.15292C4.19319 8.74545 4.23506 8.7475 4.27612 8.74139C4.31718 8.73529 4.35664 8.72116 4.39224 8.6998C4.42784 8.67845 4.45889 8.65029 4.4836 8.61694C4.50832 8.58358 4.52622 8.54568 4.53629 8.50541C4.5496 8.45244 4.54896 8.39692 4.53441 8.34427C4.51987 8.29163 4.49192 8.24365 4.4533 8.20503C4.41468 8.16641 4.3667 8.13846 4.31406 8.12392C4.26141 8.10937 4.20589 8.10873 4.15292 8.12204H2.8884V6.55385H4.15292C4.19318 6.56396 4.23504 6.56603 4.2761 6.55995C4.31716 6.55387 4.35662 6.53976 4.39223 6.51842C4.42783 6.49708 4.45888 6.46893 4.4836 6.43558C4.50832 6.40223 4.52622 6.36434 4.53629 6.32407C4.54957 6.27109 4.5489 6.21558 4.53435 6.16295C4.51979 6.11031 4.49185 6.06234 4.45324 6.02371C4.41463 5.98509 4.36667 5.95712 4.31404 5.94254C4.26141 5.92796 4.2059 5.92727 4.15292 5.94053H2.8884V2.77896C2.89401 2.6604 2.9451 2.54857 3.03105 2.46671C3.117 2.38486 3.2312 2.33928 3.34989 2.33946V2.33626Z" fill="#242E33"/>
<path d="M8.01611 30.5812C9.53183 30.5844 10.7628 29.3582 10.766 27.8427C10.767 27.3608 10.641 26.8871 10.4008 26.4694C10.1606 26.0516 9.81468 25.7044 9.39774 25.4628V5.57057C9.3971 4.80774 8.77831 4.18941 8.01524 4.18982C7.25305 4.19052 6.63495 4.80838 6.63449 5.57057V25.4469C5.31446 26.1914 4.84768 27.8652 5.59213 29.185C5.83384 29.6137 6.18639 29.9695 6.61286 30.2151C7.03932 30.4608 7.524 30.5872 8.01611 30.5812V30.5812ZM8.01611 5.12787C8.26975 5.12787 8.47603 5.33288 8.47766 5.58628V14.4732H7.55462V5.57057C7.55619 5.31694 7.76253 5.11216 8.01611 5.11216V5.12787ZM7.30465 26.155C7.40497 26.1125 7.48699 26.0358 7.53619 25.9386C7.58538 25.8414 7.59857 25.7299 7.57341 25.6239C7.56932 25.5882 7.56932 25.5521 7.57341 25.5164V15.406H8.49354V25.5228C8.49762 25.5585 8.49762 25.5946 8.49354 25.6303C8.46744 25.7313 8.47635 25.8382 8.51883 25.9335C8.5613 26.0288 8.63483 26.1069 8.7274 26.155C9.65475 26.5485 10.0874 27.6198 9.69367 28.5469C9.2996 29.4743 8.22885 29.907 7.30168 29.5132C6.37433 29.1191 5.9414 28.0484 6.33541 27.1212C6.52003 26.686 6.86649 26.3395 7.30168 26.1549H7.30459L7.30465 26.155Z" fill="#242E33"/>
</svg>
