<svg width="35" height="29" viewBox="0 0 35 29" fill="none" xmlns="http://www.w3.org/2000/svg">
<path d="M31.4998 24.5519C31.4982 25.0756 31.0737 25.5 30.5501 25.5016H4.35108C3.82739 25.5 3.40292 25.0756 3.40137 24.5519V4.50098C3.40292 3.97723 3.82739 3.55282 4.35108 3.55115H30.5533C31.0769 3.55282 31.5014 3.97729 31.503 4.50092L31.4998 24.5519Z" fill="#F7F7F7"/>
<path d="M11.2702 13.4302L7.54883 9.7024C12.9816 4.26936 21.7612 4.17666 27.307 9.49417L23.6605 13.3002C20.1844 9.96741 14.6818 10.0253 11.2766 13.4302H11.2701H11.2702Z" fill="#F7F7F7"/>
<path d="M30.5534 3.07605H4.35114C3.56417 3.07605 2.92627 3.71413 2.92627 4.50092V24.5519C2.92627 25.3387 3.56441 25.9766 4.35114 25.9766H30.5534C31.3401 25.9766 31.978 25.3387 31.978 24.5519V4.50098C31.978 3.71413 31.3401 3.07611 30.5534 3.07611L30.5534 3.07605ZM4.35114 4.02606H30.5534C30.6793 4.02609 30.8001 4.07613 30.8892 4.16518C30.9782 4.25422 31.0282 4.37499 31.0283 4.50092V19.061H3.87628V4.50086C3.87631 4.37492 3.92636 4.25415 4.01542 4.1651C4.10448 4.07605 4.22526 4.02602 4.3512 4.026L4.35114 4.02606ZM3.87628 24.5519V19.9979H17.0603V25.0267H4.3512C4.22527 25.0267 4.1045 24.9767 4.01544 24.8877C3.92638 24.7986 3.87633 24.6779 3.87628 24.5519ZM30.5501 25.0268H18.01V20.0107H31.0217V24.5647C31.0184 24.6873 30.9678 24.8039 30.8805 24.89C30.7932 24.9761 30.676 25.0251 30.5534 25.0267L30.5501 25.0268Z" fill="#242E33"/>
<path d="M10.9447 13.7652C11.0337 13.8538 11.1541 13.9035 11.2797 13.9035C11.4053 13.9035 11.5257 13.8538 11.6147 13.7652C14.8361 10.5487 20.0366 10.4938 23.3253 13.6417C23.4138 13.7244 23.5294 13.7718 23.6505 13.775C23.7739 13.7703 23.8906 13.7178 23.9759 13.6286L27.6255 9.82259C27.7142 9.73366 27.764 9.61319 27.764 9.48759C27.764 9.362 27.7142 9.24153 27.6255 9.15259C21.8932 3.6546 12.8164 3.75011 7.20057 9.36734C7.11199 9.45633 7.06226 9.57678 7.06226 9.70234C7.06226 9.8279 7.11199 9.94835 7.20057 10.0373L10.9447 13.7652ZM9.26298 8.83385L9.96878 9.56906C10.0126 9.6434 10.0841 9.69731 10.1676 9.71894C10.2512 9.74057 10.3399 9.72815 10.4142 9.68441C10.4511 9.66277 10.4833 9.63408 10.509 9.59998C10.5347 9.56588 10.5535 9.52704 10.5642 9.48569C10.5749 9.44433 10.5774 9.40127 10.5714 9.35896C10.5655 9.31666 10.5513 9.27594 10.5296 9.23914C10.5037 9.19487 10.4676 9.15742 10.4243 9.12988L9.77358 8.45659C10.701 7.81415 11.7054 7.29067 12.7632 6.89844L13.1827 7.71487C13.1945 7.76262 13.2168 7.80709 13.2482 7.84495C13.2796 7.8828 13.3191 7.91306 13.3638 7.93345C13.4086 7.95384 13.4573 7.96382 13.5065 7.96265C13.5556 7.96148 13.6039 7.9492 13.6476 7.92671C13.6913 7.90422 13.7294 7.87212 13.7589 7.83282C13.7884 7.79351 13.8087 7.74803 13.8181 7.69978C13.8275 7.65153 13.8259 7.60178 13.8133 7.55425C13.8008 7.50672 13.7776 7.46265 13.7456 7.42536L13.3714 6.68686C14.6154 6.28737 15.9102 6.06826 17.2164 6.03623V6.93741C17.2356 7.02148 17.2874 7.09448 17.3604 7.14039C17.4334 7.1863 17.5216 7.20136 17.6057 7.18228C17.6655 7.16862 17.7201 7.1384 17.7634 7.09509C17.8068 7.05178 17.837 6.99713 17.8507 6.93741V6.04926C19.0971 6.07686 20.3338 6.27497 21.5264 6.63809L21.1099 7.44472C21.0738 7.51976 21.0679 7.60578 21.0934 7.68505C21.1188 7.76432 21.1737 7.83081 21.2468 7.87081C21.2909 7.8937 21.3399 7.90607 21.3898 7.90679C21.4481 7.90594 21.5051 7.88949 21.5549 7.85914C21.6046 7.8288 21.6453 7.78567 21.6728 7.73424L22.1313 6.83652C23.2061 7.22017 24.2281 7.73823 25.1729 8.37836L24.4312 9.1493C24.3585 9.19574 24.3072 9.26913 24.2886 9.35335C24.27 9.43757 24.2856 9.52573 24.332 9.59846C24.3619 9.64534 24.4034 9.68376 24.4524 9.71004C24.5015 9.73632 24.5564 9.74959 24.612 9.74859C24.6677 9.74758 24.7221 9.73233 24.7702 9.70429C24.8182 9.67625 24.8583 9.63635 24.8865 9.58842L25.6934 8.75239C26.0152 8.9938 26.3266 9.24882 26.6268 9.51676L23.6309 12.6363C22.0637 11.2673 20.0816 10.4653 18.0034 10.3594V7.85772C18.0031 7.59552 17.7902 7.38334 17.5278 7.38358C17.4021 7.38369 17.2815 7.43367 17.1926 7.52256C17.1036 7.61144 17.0536 7.73198 17.0534 7.85772V10.3754C14.9062 10.4757 12.8611 11.3211 11.2699 12.7664L8.20891 9.70867C8.54845 9.40312 8.90009 9.11128 9.26298 8.83385Z" fill="#242E33"/>
</svg>
