<svg width="14" height="15" viewBox="0 0 14 15" fill="none" xmlns="http://www.w3.org/2000/svg">
<path d="M14 6.15605L13.4539 0L11.5177 1.93619C10.2766 0.843985 8.63831 0.198594 6.95037 0.198594C3.12767 0.198594 0 3.32626 0 7.14896C0 10.9717 3.12767 14.0993 6.95037 14.0993C9.43264 14.0993 11.7163 12.7589 12.9575 10.6241L11.2199 9.63123C10.3262 11.1702 8.68797 12.1135 6.90073 12.1135C4.17023 12.1135 1.93619 9.87946 1.93619 7.14896C1.93619 4.41846 4.17023 2.18441 6.90073 2.18441C8.09222 2.18441 9.18444 2.58157 10.0781 3.32625L7.79432 5.60993L14 6.15605Z" fill="#616161"/>
</svg>
