<svg width="38" height="38" viewBox="0 0 38 38" fill="none" xmlns="http://www.w3.org/2000/svg">
<path d="M10.0938 25.5312C10.0938 23.891 8.76523 22.5625 7.125 22.5625C5.48477 22.5625 4.15625 23.891 4.15625 25.5312C4.15625 27.1715 5.48477 28.5 7.125 28.5C8.76523 28.5 10.0938 27.1715 10.0938 25.5312ZM7.125 27.3125C6.13789 27.3125 5.34375 26.5184 5.34375 25.5312C5.34375 24.5441 6.13789 23.75 7.125 23.75C8.11211 23.75 8.90625 24.5441 8.90625 25.5312C8.90625 26.5184 8.11211 27.3125 7.125 27.3125Z" fill="url(#paint0_linear)"/>
<path d="M6.53125 24.9375H7.71875V26.125H6.53125V24.9375Z" fill="url(#paint1_linear)"/>
<path d="M16.0312 25.5312C16.0312 23.891 14.7027 22.5625 13.0625 22.5625C11.4223 22.5625 10.0938 23.891 10.0938 25.5312C10.0938 27.1715 11.4223 28.5 13.0625 28.5C14.7027 28.5 16.0312 27.1715 16.0312 25.5312ZM13.0625 27.3125C12.0754 27.3125 11.2812 26.5184 11.2812 25.5312C11.2812 24.5441 12.0754 23.75 13.0625 23.75C14.0496 23.75 14.8438 24.5441 14.8438 25.5312C14.8438 26.5184 14.0496 27.3125 13.0625 27.3125Z" fill="url(#paint2_linear)"/>
<path d="M12.4688 24.9375H13.6562V26.125H12.4688V24.9375Z" fill="url(#paint3_linear)"/>
<path d="M27.9062 25.5312C27.9062 23.891 26.5777 22.5625 24.9375 22.5625C23.2973 22.5625 21.9688 23.891 21.9688 25.5312C21.9688 27.1715 23.2973 28.5 24.9375 28.5C26.5777 28.5 27.9062 27.1715 27.9062 25.5312ZM24.9375 27.3125C23.9504 27.3125 23.1562 26.5184 23.1562 25.5312C23.1562 24.5441 23.9504 23.75 24.9375 23.75C25.9246 23.75 26.7188 24.5441 26.7188 25.5312C26.7188 26.5184 25.9246 27.3125 24.9375 27.3125Z" fill="url(#paint4_linear)"/>
<path d="M24.3438 24.9375H25.5312V26.125H24.3438V24.9375Z" fill="url(#paint5_linear)"/>
<path d="M33.8438 25.5312C33.8438 23.891 32.5152 22.5625 30.875 22.5625C29.2348 22.5625 27.9062 23.891 27.9062 25.5312C27.9062 27.1715 29.2348 28.5 30.875 28.5C32.5152 28.5 33.8438 27.1715 33.8438 25.5312ZM30.875 27.3125C29.8879 27.3125 29.0938 26.5184 29.0938 25.5312C29.0938 24.5441 29.8879 23.75 30.875 23.75C31.8621 23.75 32.6562 24.5441 32.6562 25.5312C32.6562 26.5184 31.8621 27.3125 30.875 27.3125Z" fill="url(#paint6_linear)"/>
<path d="M30.2812 24.9375H31.4688V26.125H30.2812V24.9375Z" fill="url(#paint7_linear)"/>
<path d="M21.9688 25.5312C21.9688 23.891 20.6402 22.5625 19 22.5625C17.3598 22.5625 16.0312 23.891 16.0312 25.5312C16.0312 27.1715 17.3598 28.5 19 28.5C20.6402 28.5 21.9688 27.1715 21.9688 25.5312ZM19 27.3125C18.0129 27.3125 17.2188 26.5184 17.2188 25.5312C17.2188 24.5441 18.0129 23.75 19 23.75C19.9871 23.75 20.7812 24.5441 20.7812 25.5312C20.7812 26.5184 19.9871 27.3125 19 27.3125Z" fill="url(#paint8_linear)"/>
<path d="M18.4062 24.9375H19.5938V26.125H18.4062V24.9375Z" fill="url(#paint9_linear)"/>
<path d="M36.2188 11.875H34.4375V11.2812C34.4375 10.9547 34.1703 10.6875 33.8438 10.6875H32.6562V8.90625H31.4688V10.6875H30.0512L29.0344 8.63906C28.9305 8.43867 28.7227 8.3125 28.5 8.3125H19C18.7773 8.3125 18.5695 8.43867 18.4656 8.63906L17.4488 10.6875H16.0312C15.9793 10.6875 15.9348 10.6949 15.8902 10.7023L13.5895 11.2812H7.72617C7.39961 11.2812 7.13242 11.5484 7.13242 11.875V13.6562H1.78125C1.45469 13.6562 1.1875 13.9234 1.1875 14.25V16.625C1.1875 16.9516 1.45469 17.2188 1.78125 17.2188H13.582L15.8828 17.7977C15.9273 17.8125 15.9793 17.8125 16.0238 17.8125V19H2.96875C2.74609 19 2.53828 19.1262 2.43437 19.3266L1.2543 21.7016C1.20977 21.7832 1.1875 21.8723 1.1875 21.9688V25.5312C1.1875 25.65 1.22461 25.7613 1.28398 25.8578L2.67188 27.9359C3.39922 29.027 4.62383 29.6875 5.9375 29.6875H32.0625C33.5023 29.6949 34.8383 28.9082 35.5285 27.6391L36.716 25.8578C36.7828 25.7613 36.8125 25.6426 36.8125 25.5312V21.9688C36.8125 21.8797 36.7902 21.7832 36.7457 21.709L35.5656 19.334C35.4691 19.1336 35.2613 19 35.0312 19H31.4688V17.8125H33.8438C34.1703 17.8125 34.4375 17.5453 34.4375 17.2188V16.625H36.2188C36.5453 16.625 36.8125 16.3578 36.8125 16.0312V12.4688C36.8125 12.1422 36.5453 11.875 36.2188 11.875ZM13.0625 16.0312H2.375V14.8438H13.0625V16.0312ZM13.0625 13.6562H8.3125V12.4688H13.0625V13.6562ZM29.0938 11.875V14.25H27.9062V11.875H29.0938ZM19.3637 9.5H28.1289L28.7227 10.6875H18.7699L19.3637 9.5ZM35.625 22.5625V25.3531L34.534 26.9859C33.7992 28.0918 33.1313 28.5 32.0625 28.5H5.9375C5.02461 28.5 4.17109 28.0398 3.65898 27.2828L2.375 25.3531V22.5625H35.625ZM34.6676 20.1875L35.2613 21.375H2.73867L3.33242 20.1875H34.6676ZM17.2188 19V17.8125H30.2812V19H17.2188ZM33.25 16.625H16.1055L14.25 16.1648V12.3426L16.1055 11.8824H26.7188V13.0699H21.9688V14.2574H26.7188V14.8512C26.7188 15.1777 26.9859 15.4449 27.3125 15.4449H29.6875C30.0141 15.4449 30.2812 15.1777 30.2812 14.8512V14.2574H33.25V16.625ZM33.25 13.0625H30.2812V11.875H33.25V13.0625ZM35.625 15.4375H34.4375V13.0625H35.625V15.4375Z" fill="url(#paint10_linear)"/>
<path d="M19.5938 13.0625H20.7812V14.25H19.5938V13.0625Z" fill="url(#paint11_linear)"/>
<path d="M17.2188 13.0625H18.4062V14.25H17.2188V13.0625Z" fill="url(#paint12_linear)"/>
<defs>
<linearGradient id="paint0_linear" x1="4.15625" y1="25.5312" x2="10.0938" y2="25.5312" gradientUnits="userSpaceOnUse">
<stop stop-color="#CE1719"/>
<stop offset="1" stop-color="#134395"/>
</linearGradient>
<linearGradient id="paint1_linear" x1="6.53125" y1="25.5312" x2="7.71875" y2="25.5312" gradientUnits="userSpaceOnUse">
<stop stop-color="#CE1719"/>
<stop offset="1" stop-color="#134395"/>
</linearGradient>
<linearGradient id="paint2_linear" x1="10.0938" y1="25.5312" x2="16.0312" y2="25.5312" gradientUnits="userSpaceOnUse">
<stop stop-color="#CE1719"/>
<stop offset="1" stop-color="#134395"/>
</linearGradient>
<linearGradient id="paint3_linear" x1="12.4688" y1="25.5312" x2="13.6562" y2="25.5312" gradientUnits="userSpaceOnUse">
<stop stop-color="#CE1719"/>
<stop offset="1" stop-color="#134395"/>
</linearGradient>
<linearGradient id="paint4_linear" x1="21.9688" y1="25.5312" x2="27.9062" y2="25.5312" gradientUnits="userSpaceOnUse">
<stop stop-color="#CE1719"/>
<stop offset="1" stop-color="#134395"/>
</linearGradient>
<linearGradient id="paint5_linear" x1="24.3438" y1="25.5312" x2="25.5312" y2="25.5312" gradientUnits="userSpaceOnUse">
<stop stop-color="#CE1719"/>
<stop offset="1" stop-color="#134395"/>
</linearGradient>
<linearGradient id="paint6_linear" x1="27.9062" y1="25.5312" x2="33.8438" y2="25.5312" gradientUnits="userSpaceOnUse">
<stop stop-color="#CE1719"/>
<stop offset="1" stop-color="#134395"/>
</linearGradient>
<linearGradient id="paint7_linear" x1="30.2812" y1="25.5312" x2="31.4688" y2="25.5312" gradientUnits="userSpaceOnUse">
<stop stop-color="#CE1719"/>
<stop offset="1" stop-color="#134395"/>
</linearGradient>
<linearGradient id="paint8_linear" x1="16.0312" y1="25.5312" x2="21.9688" y2="25.5312" gradientUnits="userSpaceOnUse">
<stop stop-color="#CE1719"/>
<stop offset="1" stop-color="#134395"/>
</linearGradient>
<linearGradient id="paint9_linear" x1="18.4062" y1="25.5312" x2="19.5938" y2="25.5312" gradientUnits="userSpaceOnUse">
<stop stop-color="#CE1719"/>
<stop offset="1" stop-color="#134395"/>
</linearGradient>
<linearGradient id="paint10_linear" x1="1.1875" y1="19" x2="36.8125" y2="19" gradientUnits="userSpaceOnUse">
<stop stop-color="#CE1719"/>
<stop offset="1" stop-color="#134395"/>
</linearGradient>
<linearGradient id="paint11_linear" x1="19.5938" y1="13.6562" x2="20.7812" y2="13.6562" gradientUnits="userSpaceOnUse">
<stop stop-color="#CE1719"/>
<stop offset="1" stop-color="#134395"/>
</linearGradient>
<linearGradient id="paint12_linear" x1="17.2188" y1="13.6562" x2="18.4062" y2="13.6562" gradientUnits="userSpaceOnUse">
<stop stop-color="#CE1719"/>
<stop offset="1" stop-color="#134395"/>
</linearGradient>
</defs>
</svg>
