<svg width="48" height="48" viewBox="0 0 48 48" fill="none" xmlns="http://www.w3.org/2000/svg">
<path fill-rule="evenodd" clip-rule="evenodd" d="M24 1.90735e-06C10.7452 1.90735e-06 0 10.7452 0 24C0 37.2548 10.7452 48 24 48V1.90735e-06Z" fill="#CE1719"/>
<path fill-rule="evenodd" clip-rule="evenodd" d="M24 48C37.2548 48 48 37.2548 48 24C48 10.7452 37.2548 2.87533e-06 24 1.71655e-06L24 48Z" fill="#134395"/>
<path d="M39.5071 13.0446C39.2179 12.6362 38.9162 12.2378 38.595 11.8543C35.1075 7.66907 29.8591 5 23.9996 5C23.9887 5 23.9801 5.00078 23.9708 5.00078C23.9645 5.00078 23.9599 5 23.9536 5C23.9326 5 23.9107 5.00234 23.8881 5.00234C18.073 5.03586 12.8706 7.69714 9.40341 11.8543C9.08382 12.2386 8.78059 12.6362 8.4914 13.0446C6.29631 16.1432 5 19.9216 5 24C5 28.0777 6.29553 31.8576 8.4914 34.9554C8.78059 35.3638 9.08382 35.7622 9.40341 36.1457C12.8699 40.3029 18.0723 42.9641 23.8881 42.9977C23.9107 42.9977 23.9326 43 23.9536 43C23.9599 43 23.9645 42.9992 23.97 42.9992C23.9793 42.9992 23.9879 43 23.9988 43C29.8591 43 35.1068 40.3317 38.595 36.1465C38.9146 35.7629 39.2179 35.3638 39.5071 34.9554C41.7021 31.8568 42.9984 28.0784 42.9984 23.9992C42.9984 19.9223 41.7021 16.1432 39.5071 13.0446ZM18.4457 7.47108C16.6996 9.15562 15.2481 11.6181 14.248 14.5733C12.9081 14.0728 11.7022 13.4703 10.6623 12.789C12.7007 10.3678 15.3814 8.50316 18.4457 7.47108ZM9.74717 13.9808C10.9289 14.7697 12.2946 15.4596 13.8045 16.0279C13.1528 18.4085 12.7787 21.0511 12.7646 23.8394H6.56212C6.59564 20.1718 7.77659 16.7778 9.74717 13.9808ZM6.62059 25.3985H12.795C12.8956 27.7323 13.2503 29.947 13.8029 31.9729C12.2923 32.5412 10.9273 33.2311 9.74717 34.0207C8.00031 31.5411 6.87393 28.5929 6.62059 25.3985ZM10.667 35.2079C11.7068 34.5282 12.9096 33.9272 14.2465 33.4267C15.2466 36.3827 16.6988 38.8436 18.4457 40.5281C15.3814 39.4968 12.7062 37.6283 10.667 35.2079ZM23.2201 41.3848C20.021 40.9467 17.26 37.6657 15.6948 32.9403C17.9514 32.2637 20.5059 31.8537 23.2201 31.7874V41.3848ZM23.2201 30.2299C20.3578 30.2985 17.6599 30.7405 15.2575 31.4779C14.7656 29.6102 14.4507 27.5608 14.3564 25.3992H23.2201V30.2299ZM23.2201 23.8394H14.3236C14.3377 21.221 14.6783 18.7476 15.2645 16.5244C17.6638 17.2595 20.3601 17.7023 23.2193 17.7701V23.8394H23.2201ZM23.2201 16.2126C20.5074 16.1463 17.9538 15.7379 15.6995 15.0613C17.2639 10.3381 20.0226 7.05403 23.2201 6.61516V16.2126ZM41.4348 23.8394H35.1426C35.1286 21.0628 34.7591 18.4311 34.1121 16.059C35.6555 15.4853 37.0501 14.7845 38.2513 13.9816C40.2211 16.7785 41.4012 20.1718 41.4348 23.8394ZM37.3346 12.7905C36.2737 13.4851 35.0405 14.097 33.6686 14.6029C32.6591 11.6072 31.1866 9.11508 29.4133 7.4243C32.5344 8.44625 35.2642 10.3319 37.3346 12.7905ZM24.7791 6.62686C27.9431 7.11561 30.6683 10.3935 32.2164 15.0846C29.9831 15.7465 27.4583 16.1471 24.7791 16.2126V6.62686ZM24.7791 17.7709C27.6048 17.7038 30.2707 17.2704 32.649 16.5509C33.232 18.7679 33.5704 21.2319 33.5836 23.8402H24.7791V17.7709ZM24.7791 25.3985H33.5516C33.4573 27.5499 33.144 29.5899 32.6568 31.4522C30.2754 30.7304 27.6064 30.2977 24.7807 30.2299L24.7791 25.3985ZM24.7791 41.3731V31.7882C27.4598 31.8537 29.9846 32.2543 32.221 32.9161C30.6706 37.6088 27.9423 40.8844 24.7791 41.3731ZM29.4133 40.5765C31.1866 38.8865 32.6622 36.3959 33.6717 33.3994C35.0405 33.9046 36.2721 34.5157 37.3315 35.2087C35.2611 37.6665 32.5344 39.5537 29.4133 40.5765ZM38.2513 34.0207C37.0501 33.2178 35.6555 32.5155 34.1113 31.9425C34.6585 29.9251 35.0101 27.7206 35.1091 25.3992H41.3771C41.1237 28.5929 40.0005 31.5418 38.2513 34.0207Z" fill="white"/>
</svg>
