<svg width="34" height="34" viewBox="0 0 34 34" fill="none" xmlns="http://www.w3.org/2000/svg">
<path d="M33.3359 1.72656C32.9707 1.72656 32.6719 2.02539 32.6719 2.39062V4.38281H30.5535L30.7461 4.19023C31.0051 3.93125 31.0051 3.51289 30.7461 3.25391C30.4871 2.99492 30.0688 2.99492 29.8098 3.25391L28.6809 4.38281H26.5758L25.4402 3.24727C25.1812 2.98828 24.7629 2.98828 24.5039 3.24727C24.2449 3.50625 24.2449 3.92461 24.5039 4.18359L24.6965 4.37617H19.9352L20.1277 4.18359C20.3867 3.92461 20.3867 3.50625 20.1277 3.24727C19.8687 2.98828 19.4504 2.98828 19.1914 3.24727L18.0559 4.38281H15.9508L14.8152 3.24727C14.5563 2.98828 14.1379 2.98828 13.8789 3.24727C13.6199 3.50625 13.6199 3.92461 13.8789 4.18359L14.0715 4.37617H9.31016L9.50274 4.18359C9.76172 3.92461 9.76172 3.50625 9.50274 3.24727C9.24375 2.98828 8.82539 2.98828 8.56641 3.24727L7.43086 4.38281H5.31914L4.19023 3.24727C3.93125 2.98828 3.51289 2.98828 3.25391 3.24727C2.99492 3.50625 2.99492 3.92461 3.25391 4.18359L3.44648 4.37617H1.32812V2.39062C1.32812 2.02539 1.0293 1.72656 0.664062 1.72656C0.298828 1.72656 0 2.02539 0 2.39062V31.6094C0 31.9746 0.298828 32.2734 0.664062 32.2734H22.1797C22.5449 32.2734 22.8438 31.9746 22.8438 31.6094C22.8438 31.2441 22.5449 30.9453 22.1797 30.9453H17.6641V26.9609H32.6719V30.9453H28.1562C27.791 30.9453 27.4922 31.2441 27.4922 31.6094C27.4922 31.9746 27.791 32.2734 28.1562 32.2734H33.3359C33.7012 32.2734 34 31.9746 34 31.6094C34 29.4645 34 3.63906 34 2.39062C34 2.02539 33.7012 1.72656 33.3359 1.72656ZM9.69531 25.6328V21.6484H24.3047V25.6328H9.69531ZM1.32812 25.6328V21.6484H8.36719V25.6328H1.32812ZM3.24727 12.159C3.50625 12.418 3.92461 12.418 4.18359 12.159L5.31914 11.0234H7.42422L8.55976 12.159C8.81875 12.418 9.23711 12.418 9.49609 12.159C9.75508 11.9 9.75508 11.4816 9.49609 11.2227L9.30352 11.0301H14.0648L13.8723 11.2227C13.6133 11.4816 13.6133 11.9 13.8723 12.159C14.1312 12.418 14.5496 12.418 14.8086 12.159L15.9441 11.0234H18.0492L19.1848 12.159C19.4438 12.418 19.8621 12.418 20.1211 12.159C20.3801 11.9 20.3801 11.4816 20.1211 11.2227L19.9285 11.0301H24.6898L24.4973 11.2227C24.2383 11.4816 24.2383 11.9 24.4973 12.159C24.7563 12.418 25.1746 12.418 25.4336 12.159L26.5691 11.0234H28.6742L29.8098 12.159C30.0688 12.418 30.4871 12.418 30.7461 12.159C31.0051 11.9 31.0051 11.4816 30.7461 11.2227L30.5535 11.0301H32.6719V15.0145H1.32812V11.0301H3.44648L3.25391 11.2227C2.98828 11.475 2.98828 11.9 3.24727 12.159ZM1.32812 20.3203V16.3359H16.3359V20.3203H1.32812ZM17.6641 20.3203V16.3359H32.6719V20.3203H17.6641ZM3.44648 5.71094L3.25391 5.90352C2.99492 6.1625 2.99492 6.58086 3.25391 6.83984C3.51289 7.09883 3.93125 7.09883 4.19023 6.83984L5.31914 5.71094H7.42422L8.55976 6.84648C8.81875 7.10547 9.23711 7.10547 9.49609 6.84648C9.75508 6.5875 9.75508 6.16914 9.49609 5.91016L9.30352 5.71758H14.0648L13.8723 5.91016C13.6133 6.16914 13.6133 6.5875 13.8723 6.84648C14.1312 7.10547 14.5496 7.10547 14.8086 6.84648L15.9441 5.71094H18.0492L19.1848 6.84648C19.4438 7.10547 19.8621 7.10547 20.1211 6.84648C20.3801 6.5875 20.3801 6.16914 20.1211 5.91016L19.9285 5.71758H24.6898L24.4973 5.91016C24.2383 6.16914 24.2383 6.5875 24.4973 6.84648C24.7563 7.10547 25.1746 7.10547 25.4336 6.84648L26.5691 5.71094H28.6742L29.8098 6.84648C30.0688 7.10547 30.4871 7.10547 30.7461 6.84648C31.0051 6.5875 31.0051 6.16914 30.7461 5.91016L30.5535 5.71758H32.6719V9.70195H30.5535L30.7461 9.50937C31.0051 9.25039 31.0051 8.83203 30.7461 8.57305C30.4871 8.31406 30.0688 8.31406 29.8098 8.57305L28.6809 9.69531H26.5758L25.4402 8.55977C25.1812 8.30078 24.7629 8.30078 24.5039 8.55977C24.2449 8.81875 24.2449 9.23711 24.5039 9.49609L24.6965 9.68867H19.9352L20.1277 9.49609C20.3867 9.23711 20.3867 8.81875 20.1277 8.55977C19.8687 8.30078 19.4504 8.30078 19.1914 8.55977L18.0559 9.69531H15.9508L14.8152 8.55977C14.5563 8.30078 14.1379 8.30078 13.8789 8.55977C13.6199 8.81875 13.6199 9.23711 13.8789 9.49609L14.0715 9.68867H9.31016L9.50274 9.49609C9.76172 9.23711 9.76172 8.81875 9.50274 8.55977C9.24375 8.30078 8.82539 8.30078 8.56641 8.55977L7.43086 9.69531H5.31914L4.18359 8.55977C3.92461 8.30078 3.50625 8.30078 3.24727 8.55977C2.98828 8.81875 2.98828 9.23711 3.24727 9.49609L3.43984 9.68867H1.32812V5.71094H3.44648ZM16.3359 30.9453H1.32812V26.9609H16.3359V30.9453ZM25.6328 25.6328V21.6484H32.6719V25.6328H25.6328Z" fill="url(#paint0_linear)"/>
<path d="M25.168 32.2734C25.5347 32.2734 25.832 31.9761 25.832 31.6094C25.832 31.2426 25.5347 30.9453 25.168 30.9453C24.8012 30.9453 24.5039 31.2426 24.5039 31.6094C24.5039 31.9761 24.8012 32.2734 25.168 32.2734Z" fill="url(#paint1_linear)"/>
<defs>
<linearGradient id="paint0_linear" x1="-4.43309e-06" y1="17" x2="34" y2="17" gradientUnits="userSpaceOnUse">
<stop stop-color="#CE1719"/>
<stop offset="1" stop-color="#134395"/>
</linearGradient>
<linearGradient id="paint1_linear" x1="24.5039" y1="31.6094" x2="25.832" y2="31.6094" gradientUnits="userSpaceOnUse">
<stop stop-color="#CE1719"/>
<stop offset="1" stop-color="#134395"/>
</linearGradient>
</defs>
</svg>
