<svg width="33" height="33" viewBox="0 0 33 33" fill="none" xmlns="http://www.w3.org/2000/svg">
<path d="M33 11.55C32.945 10.615 31.845 9.90002 29.59 9.29502C29.645 9.13002 29.7 8.96502 29.7 8.80002V4.95002C29.48 1.76002 16.39 1.65002 14.85 1.65002C13.31 1.65002 0.22 1.76002 0 4.95002V5.00502V8.80002C0 9.84502 1.375 10.67 3.355 11.275C3.355 11.385 3.3 11.44 3.3 11.55V11.605V15.4C1.155 15.95 0.055 16.665 0 17.6V17.655V21.45C0 22.165 0.66 22.77 1.705 23.32C1.705 23.43 1.65 23.54 1.65 23.65V23.705V27.5C1.65 29.315 5.775 30.47 10.34 31.02C10.395 31.02 10.395 31.02 10.45 31.02C10.45 31.02 10.45 31.02 10.505 31.02C11.385 31.13 12.265 31.185 13.145 31.24H13.2C13.2 31.24 13.2 31.24 13.255 31.24C14.355 31.295 15.51 31.35 16.5 31.35C17.49 31.35 18.645 31.295 19.745 31.24C19.745 31.24 19.745 31.24 19.8 31.24H19.855C20.735 31.185 21.615 31.13 22.495 31.02C22.495 31.02 22.495 31.02 22.55 31.02C22.605 31.02 22.605 31.02 22.66 31.02C27.225 30.47 31.35 29.37 31.35 27.5V23.65C31.295 22.99 30.745 22.44 29.59 21.945C29.645 21.78 29.7 21.615 29.7 21.45V17.875C31.68 17.27 33 16.445 33 15.4V11.55ZM28.545 21.615L28.38 21.78C28.05 22.055 27.61 22.33 26.95 22.55V19.91C27.61 19.69 28.16 19.415 28.6 19.14V21.45C28.6 21.505 28.6 21.56 28.545 21.615ZM16.225 24.2C16.17 24.2 16.06 24.2 16.005 24.2C15.785 24.2 15.62 24.2 15.4 24.2V21.45C15.565 21.45 15.675 21.45 15.84 21.45C15.895 21.45 15.895 21.45 15.95 21.45C16.5 21.45 17.05 21.45 17.6 21.395V24.145C17.49 24.145 17.38 24.145 17.27 24.145C16.94 24.145 16.555 24.2 16.225 24.2ZM13.86 24.2C13.585 24.2 13.365 24.2 13.09 24.2C13.035 24.2 13.035 24.2 12.98 24.2C12.705 24.2 12.375 24.2 12.1 24.145V21.395C12.65 21.395 13.2 21.45 13.75 21.45C13.805 21.45 13.805 21.45 13.86 21.45C14.025 21.45 14.135 21.45 14.3 21.45V24.2C14.19 24.2 14.08 24.2 13.97 24.2C13.915 24.2 13.86 24.2 13.86 24.2ZM3.905 22.935C3.905 22.935 3.85 22.935 3.905 22.935L3.85 20.24C4.345 20.405 4.895 20.515 5.5 20.625V23.32C5.005 23.21 4.51 23.1 4.125 22.99C4.015 22.99 3.96 22.935 3.905 22.935ZM15.51 27.5C15.675 27.5 15.785 27.5 15.95 27.5V30.25C15.18 30.25 14.465 30.195 13.75 30.195V27.445C14.3 27.445 14.85 27.5 15.4 27.5C15.455 27.5 15.455 27.5 15.51 27.5ZM17.6 27.5C18.15 27.5 18.7 27.5 19.25 27.445V30.195C18.535 30.25 17.82 30.25 17.05 30.25V27.5C17.215 27.5 17.325 27.5 17.49 27.5C17.545 27.5 17.545 27.5 17.6 27.5ZM22 27.225V29.975C21.45 30.03 20.9 30.085 20.35 30.14V27.39C20.9 27.335 21.45 27.28 22 27.225ZM23.1 27.115C23.65 27.06 24.2 26.95 24.75 26.895V29.59C24.255 29.7 23.705 29.755 23.1 29.865V27.115ZM25.85 26.675C26.455 26.565 27.005 26.455 27.5 26.29V28.93C27.005 29.095 26.455 29.205 25.85 29.315V26.675ZM7.15 26.675V29.37C6.545 29.26 5.995 29.095 5.5 28.985V26.345C5.995 26.455 6.545 26.565 7.15 26.675ZM8.25 26.895C8.8 27.005 9.35 27.06 9.9 27.115V29.81C9.295 29.755 8.745 29.645 8.25 29.535V26.895ZM11 27.225C11.55 27.28 12.1 27.335 12.65 27.335V30.085C12.1 30.03 11.55 29.975 11 29.92V27.225ZM9.625 23.925C9.57 23.925 9.515 23.925 9.46 23.925C9.405 23.925 9.405 23.925 9.35 23.925V21.175C9.9 21.23 10.45 21.285 11 21.285V24.035C10.56 24.035 10.065 23.98 9.625 23.925ZM8.25 21.065V23.76C7.645 23.705 7.095 23.595 6.6 23.485V20.79C7.15 20.9 7.7 21.01 8.25 21.065ZM19.085 24.035C18.975 24.035 18.865 24.035 18.7 24.035V21.285C19.25 21.23 19.8 21.23 20.35 21.175V23.925C20.02 23.98 19.635 23.98 19.305 24.035C19.25 24.035 19.14 24.035 19.085 24.035ZM21.45 23.815V21.12C22 21.065 22.55 20.955 23.1 20.9V23.595C22.605 23.65 22.055 23.705 21.45 23.815ZM24.2 20.625C24.805 20.515 25.355 20.405 25.85 20.24V22.88C25.355 23.045 24.805 23.155 24.2 23.265V20.625ZM16.665 18.15C16.225 18.15 15.84 18.15 15.455 18.095H15.4V15.345C15.95 15.345 16.5 15.4 17.05 15.4C17.105 15.4 17.105 15.4 17.16 15.4C17.325 15.4 17.435 15.4 17.6 15.4V18.15C17.325 18.15 17.05 18.15 16.775 18.15C16.775 18.15 16.72 18.15 16.665 18.15ZM3.85 10.285V7.64502C4.345 7.81002 4.895 7.92002 5.5 8.03002V10.725C5.445 10.725 5.335 10.67 5.28 10.67C5.005 10.615 4.675 10.56 4.455 10.45C4.235 10.395 4.015 10.34 3.85 10.285ZM13.86 8.80002C14.025 8.80002 14.135 8.80002 14.3 8.80002V11.55C13.585 11.55 12.815 11.55 12.1 11.495V8.74502C12.65 8.74502 13.2 8.80002 13.75 8.80002C13.805 8.80002 13.805 8.80002 13.86 8.80002ZM15.95 8.80002C16.5 8.80002 17.05 8.74502 17.6 8.74502V11.495C17.49 11.495 17.435 11.495 17.325 11.495C16.94 11.495 16.555 11.55 16.225 11.55C16.17 11.55 16.115 11.55 16.06 11.55C15.84 11.55 15.675 11.55 15.455 11.55V8.80002C15.62 8.80002 15.73 8.80002 15.895 8.80002C15.895 8.80002 15.895 8.80002 15.95 8.80002ZM28.49 9.07502L28.27 9.24002C27.995 9.46002 27.5 9.68002 26.95 9.90002V7.26002C27.61 7.04002 28.16 6.76502 28.6 6.49002V8.80002C28.6 8.85502 28.545 8.96502 28.49 9.07502ZM21.45 11.165V8.47002C22 8.41502 22.55 8.30502 23.1 8.25002V10.945C22.605 11 22.055 11.055 21.45 11.165ZM24.2 10.67V7.97502C24.805 7.86502 25.355 7.75502 25.85 7.59002V10.23C25.355 10.395 24.805 10.56 24.2 10.67ZM20.35 8.52502V11.275C19.8 11.33 19.25 11.385 18.7 11.44V8.69002C19.25 8.63502 19.8 8.58002 20.35 8.52502ZM9.35 11.275V8.52502C9.9 8.58002 10.45 8.63502 11 8.63502V11.385C10.45 11.385 9.9 11.33 9.35 11.275ZM8.25 8.41502V11.11C8.14 11.11 8.03 11.11 7.92 11.055C7.865 11.055 7.755 11.055 7.7 11C7.37 10.945 7.095 10.89 6.765 10.835C6.71 10.835 6.655 10.835 6.6 10.78V8.08502C7.15 8.25002 7.7 8.36002 8.25 8.41502ZM14.19 17.985C14.135 17.985 14.025 17.985 13.97 17.985C13.64 17.985 13.255 17.93 12.925 17.875C12.87 17.875 12.76 17.875 12.705 17.875H12.65V15.125C13.2 15.18 13.75 15.235 14.3 15.235V17.985C14.245 17.985 14.19 17.985 14.19 17.985ZM10.505 17.6C10.285 17.545 10.065 17.545 9.9 17.49V14.795C10.45 14.905 11 14.96 11.55 15.015V17.71C11.22 17.71 10.89 17.655 10.505 17.6C10.56 17.6 10.56 17.6 10.505 17.6ZM8.8 14.575V17.27C8.195 17.16 7.645 16.995 7.15 16.83V14.19C7.645 14.355 8.195 14.465 8.8 14.575ZM6.05 13.86V16.5C5.17 16.17 4.62 15.84 4.455 15.51L4.4 15.455V15.4V13.145C4.84 13.42 5.39 13.64 6.05 13.86ZM19.25 15.4C19.8 15.4 20.35 15.4 20.9 15.345V18.095C20.185 18.15 19.415 18.15 18.7 18.15V15.4C18.865 15.4 18.975 15.4 19.14 15.4C19.195 15.4 19.195 15.4 19.25 15.4ZM26.345 17.49C26.125 17.545 25.85 17.6 25.63 17.6C25.465 17.6 25.355 17.655 25.19 17.655C25.025 17.655 24.915 17.71 24.75 17.71V15.015C25.3 14.96 25.85 14.85 26.4 14.795L26.345 17.49C26.4 17.49 26.345 17.49 26.345 17.49ZM22.605 17.985C22.385 17.985 22.165 18.04 22 18.04V15.29C22.55 15.235 23.1 15.235 23.65 15.18V17.93C23.32 17.985 22.99 17.985 22.66 18.04C22.66 17.985 22.66 17.985 22.605 17.985ZM28.93 16.94C28.655 16.995 28.38 17.105 28.05 17.16C27.94 17.215 27.775 17.215 27.61 17.27C27.555 17.27 27.5 17.27 27.5 17.27V14.575C28.105 14.465 28.655 14.355 29.15 14.19V16.83C29.095 16.885 28.985 16.94 28.93 16.94ZM31.9 11.605C31.845 11.99 31.02 12.485 29.48 12.925C27.555 13.53 24.475 14.08 20.625 14.245C20.405 14.245 20.24 14.245 20.02 14.245C19.855 14.245 19.69 14.245 19.525 14.245C19.085 14.245 18.59 14.245 18.15 14.245C17.71 14.245 17.215 14.245 16.775 14.245C16.61 14.245 16.445 14.245 16.28 14.245C16.06 14.245 15.895 14.245 15.675 14.245C11.825 14.08 8.745 13.53 6.82 12.925C5.335 12.485 4.455 11.99 4.4 11.605C4.4 11.605 4.4 11.605 4.4 11.55C4.455 11.55 4.455 11.55 4.51 11.55C4.73 11.605 4.95 11.66 5.17 11.715C6.27 11.935 7.48 12.155 8.745 12.265C9.625 12.375 10.56 12.43 11.495 12.485C12.155 12.54 12.87 12.54 13.53 12.595C13.97 12.595 14.355 12.595 14.795 12.595C15.07 12.595 15.4 12.595 15.675 12.595C19.69 12.54 23.375 12.045 25.96 11.33C26.07 11.275 26.18 11.275 26.29 11.22C26.345 11.22 26.455 11.165 26.51 11.165C26.73 11.11 26.895 11.055 27.06 10.945C27.115 10.945 27.115 10.945 27.17 10.89C27.335 10.835 27.5 10.78 27.61 10.725C27.665 10.725 27.72 10.67 27.72 10.67C27.885 10.615 27.995 10.505 28.16 10.45C28.215 10.395 28.27 10.395 28.325 10.34C28.38 10.285 28.435 10.285 28.545 10.23C28.6 10.23 28.6 10.175 28.655 10.175C31.185 10.78 31.845 11.385 31.9 11.605ZM14.85 2.75002C23.925 2.75002 28.49 4.18002 28.6 5.00502C28.545 5.39002 27.665 5.88502 26.18 6.32502C24.255 6.93002 21.175 7.48002 17.325 7.64502C17.105 7.64502 16.94 7.64502 16.72 7.64502C16.555 7.64502 16.39 7.64502 16.225 7.64502C15.785 7.64502 15.29 7.64502 14.85 7.64502C14.41 7.64502 13.915 7.64502 13.475 7.64502C13.31 7.64502 13.145 7.64502 12.98 7.64502C12.76 7.64502 12.595 7.64502 12.375 7.64502C8.525 7.48002 5.445 6.93002 3.52 6.32502C2.035 5.88502 1.155 5.39002 1.1 5.00502C1.21 4.18002 5.775 2.75002 14.85 2.75002ZM1.1 8.80002V6.54502C1.54 6.82002 2.09 7.09502 2.75 7.31502V9.90002C1.705 9.51502 1.1 9.13002 1.1 8.80002ZM3.74 16.39C3.795 16.445 3.795 16.445 3.74 16.39C4.51 17.16 6.105 17.765 8.03 18.205C8.085 18.205 8.14 18.205 8.14 18.26C8.305 18.315 8.415 18.315 8.58 18.37C10.34 18.755 12.485 19.03 14.795 19.14C15.565 19.195 16.28 19.195 17.105 19.25C17.435 19.25 17.765 19.25 18.095 19.25C18.48 19.25 18.865 19.25 19.25 19.25C19.965 19.25 20.68 19.195 21.395 19.14C23.705 19.03 25.905 18.7 27.72 18.315C27.335 18.535 26.785 18.755 26.07 18.975C24.035 19.635 20.735 20.185 16.555 20.295C16.445 20.295 16.335 20.295 16.17 20.295C16.06 20.295 15.895 20.295 15.785 20.295C15.455 20.295 15.07 20.295 14.74 20.295C14.245 20.295 13.805 20.295 13.365 20.295C13.2 20.295 13.035 20.295 12.87 20.295C12.65 20.295 12.485 20.295 12.265 20.295C8.415 20.13 5.335 19.58 3.41 18.975C1.87 18.535 1.045 17.985 0.99 17.655C1.155 17.435 1.705 16.885 3.74 16.39ZM1.1 21.45V19.195C1.54 19.47 2.09 19.745 2.75 19.965V22.55L2.42 22.44C1.54 22.055 1.1 21.725 1.1 21.45ZM2.75 27.5V25.245C3.19 25.52 3.74 25.795 4.4 26.015V28.6C3.355 28.215 2.75 27.83 2.75 27.5ZM28.6 28.6V25.96C29.26 25.74 29.81 25.465 30.25 25.19V27.5C30.25 27.83 29.645 28.215 28.6 28.6ZM30.25 23.705C30.195 24.09 29.37 24.585 27.83 25.025C25.905 25.63 22.825 26.18 18.975 26.345C18.755 26.345 18.59 26.345 18.37 26.345C18.205 26.345 18.04 26.345 17.875 26.345C17.435 26.345 16.94 26.345 16.5 26.345C16.06 26.345 15.565 26.345 15.125 26.345C14.96 26.345 14.795 26.345 14.63 26.345C14.41 26.345 14.245 26.345 14.025 26.345C10.175 26.18 7.095 25.63 5.17 25.025C3.74 24.585 2.86 24.09 2.75 23.705C2.915 23.76 3.08 23.815 3.245 23.87H3.3C3.465 23.925 3.575 23.98 3.74 23.98C3.795 23.98 3.85 24.035 3.905 24.035C4.015 24.035 4.07 24.09 4.18 24.09C6.16 24.585 8.745 24.97 11.495 25.135C12.32 25.19 13.2 25.19 14.08 25.245C14.3 25.245 14.52 25.245 14.795 25.245C15.125 25.245 15.4 25.245 15.73 25.245C16.555 25.245 17.325 25.19 18.095 25.135C19.03 25.08 19.965 24.97 20.845 24.915C20.845 24.915 20.845 24.915 20.9 24.915C21.89 24.805 22.825 24.64 23.65 24.475C23.815 24.42 23.98 24.42 24.2 24.365C24.255 24.365 24.255 24.365 24.31 24.365C25.96 24.035 27.335 23.595 28.325 23.045C28.38 22.99 28.435 22.99 28.49 22.935C28.545 22.88 28.6 22.88 28.655 22.825C28.71 22.77 28.765 22.77 28.82 22.715C29.92 23.21 30.195 23.54 30.25 23.705ZM30.25 16.5V13.86C30.91 13.64 31.46 13.365 31.9 13.09V15.4C31.9 15.73 31.295 16.115 30.25 16.5Z" fill="url(#paint0_linear)"/>
<defs>
<linearGradient id="paint0_linear" x1="0" y1="16.5" x2="33" y2="16.5" gradientUnits="userSpaceOnUse">
<stop stop-color="#CE1719"/>
<stop offset="1" stop-color="#134395"/>
</linearGradient>
</defs>
</svg>
