<svg width="42" height="42" viewBox="0 0 42 42" fill="none" xmlns="http://www.w3.org/2000/svg">
<path d="M21 42C32.598 42 42 32.598 42 21C42 9.40202 32.598 0 21 0C9.40202 0 0 9.40202 0 21C0 32.598 9.40202 42 21 42Z" fill="#D80027"/>
<path d="M11.4926 12.7805L13.3055 18.3586H19.1707L14.4293 21.8121L16.2422 27.3902L11.4926 23.9449L6.74297 27.3902L8.56406 21.8121L3.81445 18.3586H9.67969L11.4926 12.7805Z" fill="#FFDA44"/>
<path d="M24.8965 32.5254L23.5101 30.8191L21.4594 31.6148L22.6488 29.7691L21.2625 28.0547L23.3871 28.6207L24.5848 26.775L24.6996 28.9734L26.8324 29.5394L24.7734 30.3269L24.8965 32.5254Z" fill="#FFDA44"/>
<path d="M27.6527 27.5214L28.309 25.4214L26.5125 24.15L28.7109 24.1172L29.359 22.0172L30.0727 24.1007L32.2711 24.0761L30.5074 25.3886L31.2129 27.4722L29.4164 26.2007L27.6527 27.5214Z" fill="#FFDA44"/>
<path d="M31.3687 15.4136L30.4008 17.3906L31.9758 18.9246L29.802 18.6128L28.834 20.5816L28.4566 18.416L26.2746 18.1042L28.227 17.0789L27.8496 14.905L29.4246 16.439L31.3687 15.4136Z" fill="#FFDA44"/>
<path d="M24.9539 9.42535L24.7898 11.6156L26.8324 12.4441L24.6914 12.9691L24.5355 15.1675L23.3789 13.2972L21.2379 13.8222L22.657 12.1406L21.4922 10.2785L23.5348 11.107L24.9539 9.42535Z" fill="#FFDA44"/>
</svg>
