<svg width="39" height="39" viewBox="0 0 39 39" fill="none" xmlns="http://www.w3.org/2000/svg">
<g clip-path="url(#clip0)">
<path d="M16.6283 3.42011C17.39 2.97831 18.3422 2.87929 19.1801 3.14589C20.1246 3.43534 20.9244 4.17421 21.2672 5.1035C21.6023 5.96425 21.4348 6.89354 21.4805 7.79237C23.2172 7.79237 24.9539 7.79237 26.6982 7.79237C27.7037 7.79237 28.7016 8.14276 29.4937 8.76737C30.3926 9.46815 31.0019 10.5193 31.1771 11.6391C31.2457 12.0656 31.2305 12.5074 31.2305 12.9416C31.2305 17.7252 31.2305 22.5088 31.2305 27.2924C31.8779 27.2924 32.5254 27.2924 33.1805 27.2924C33.1881 26.7287 33.1728 26.1574 33.1881 25.5937C33.2109 25.1291 33.6146 24.7254 34.0717 24.6949C34.3916 24.6568 34.7115 24.8092 34.9172 25.0453C36.1816 26.424 37.4537 27.7951 38.7182 29.1662C38.8705 29.3262 38.9771 29.5318 39.0305 29.7451V29.9736C39 30.2174 38.8857 30.4383 38.7182 30.6058C37.4537 31.9769 36.1893 33.348 34.9172 34.7191C34.681 34.9933 34.3078 35.1381 33.9574 35.0619C33.5385 34.9857 33.2033 34.6049 33.1881 34.1783C33.1728 33.6146 33.1881 33.051 33.1805 32.4873C32.5102 32.4873 31.8475 32.4873 31.1771 32.4873C31.0172 33.5537 30.4764 34.5592 29.6613 35.2599C28.9986 35.8389 28.1684 36.2197 27.2924 36.334C26.9191 36.3873 26.5383 36.3797 26.1574 36.3797C20.6959 36.3797 15.2344 36.3797 9.77284 36.3797C8.79784 36.4025 7.89901 35.5799 7.83808 34.6125C7.81523 33.9041 7.83808 33.1957 7.82284 32.4873C7.17538 32.4873 6.5203 32.4873 5.87284 32.4873C5.86523 33.051 5.88046 33.6146 5.86523 34.1783C5.84237 34.6734 5.38534 35.0924 4.89022 35.0771C4.59315 35.0848 4.31894 34.94 4.12851 34.7191C2.86405 33.3404 1.59198 31.9769 0.327529 30.5982C0.175185 30.4383 0.0685448 30.2326 0.0152245 30.0193V29.7832C0.0456932 29.5623 0.137099 29.3566 0.289443 29.1967C1.56913 27.8103 2.84882 26.424 4.12851 25.0377C4.33417 24.8016 4.64647 24.6492 4.9664 24.6797C5.43105 24.7101 5.83476 25.1062 5.85761 25.5709C5.88046 26.1422 5.85761 26.7058 5.86523 27.2771C6.51269 27.2771 7.16776 27.2771 7.81523 27.2771C7.81523 21.6023 7.81523 15.9351 7.81523 10.2603C7.82284 9.90995 7.79237 9.55194 7.8914 9.20917C8.02089 8.72929 8.34843 8.31034 8.77499 8.05136C11.3953 6.51268 14.008 4.95878 16.6283 3.42011ZM17.192 4.58554C15.3943 5.65194 13.5967 6.71835 11.799 7.78475C14.5945 7.79237 17.3824 7.78475 20.1703 7.78475C20.1703 7.23632 20.1779 6.6955 20.1627 6.15468C20.1322 5.37011 19.5838 4.63886 18.8373 4.39511C18.3041 4.21229 17.6795 4.28847 17.192 4.58554ZM9.12538 9.81854C9.12538 15.6457 9.12538 21.4652 9.12538 27.2924C9.77284 27.2924 10.4279 27.2924 11.0754 27.2924C11.5172 27.2695 11.8523 27.7723 11.6771 28.176C11.5781 28.4502 11.281 28.6101 10.9992 28.5949C9.0873 28.5949 7.183 28.5949 5.27108 28.5949C4.91308 28.6254 4.56269 28.3131 4.5703 27.9474C4.56269 27.4676 4.5703 26.9801 4.5703 26.5002C3.52675 27.6351 2.47558 28.7625 1.43964 29.8974C2.49081 31.0248 3.52675 32.1598 4.5703 33.2871C4.5703 32.8072 4.56269 32.3197 4.5703 31.8398C4.56269 31.4971 4.86737 31.1924 5.20253 31.2C7.15253 31.1924 9.11015 31.1924 11.0678 31.2C11.4105 31.1924 11.7228 31.4971 11.7152 31.8398C11.7305 32.1902 11.4182 32.5025 11.0678 32.4949C10.4203 32.5025 9.76523 32.4949 9.11776 32.4949C9.11776 33.1424 9.11776 33.7898 9.11776 34.4297C9.11015 34.7039 9.28534 34.9629 9.54433 35.0543C9.74237 35.1152 9.94804 35.0924 10.1461 35.0924C15.6838 35.0924 21.2215 35.0924 26.7592 35.0924C28.2293 35.0771 29.5775 33.9346 29.8517 32.4949C29.2271 32.4949 28.5949 32.4949 27.9703 32.4949C27.6199 32.5101 27.3076 32.1902 27.3152 31.8398C27.3076 31.4894 27.6275 31.1771 27.9779 31.1924C29.9051 31.1924 31.8398 31.1924 33.767 31.1924C34.125 31.1619 34.4754 31.4666 34.4678 31.8322C34.4754 32.3197 34.4601 32.7996 34.4678 33.2871C35.5113 32.1521 36.5549 31.0248 37.5984 29.8974C36.5549 28.7625 35.5113 27.6351 34.4678 26.5002C34.4601 26.9801 34.4754 27.4676 34.4601 27.9474C34.4678 28.3131 34.125 28.6178 33.767 28.5873C31.8322 28.5873 29.8975 28.5949 27.9627 28.5873C27.6199 28.5949 27.3076 28.2826 27.3152 27.9398C27.3076 27.5894 27.6199 27.2848 27.9627 27.2924C28.6101 27.2848 29.2576 27.2924 29.9127 27.2924C29.9127 22.3031 29.9127 17.3215 29.9127 12.3322C29.9203 11.0525 29.0976 9.82616 27.917 9.34628C27.3838 9.11014 26.7896 9.07968 26.2184 9.09491C20.7568 9.09491 15.3029 9.09491 9.8414 9.09491C9.4453 9.04159 9.07968 9.41483 9.12538 9.81854Z" fill="url(#paint0_linear)"/>
<path d="M18.5783 11.0906C20.5131 10.8697 22.524 11.342 24.1541 12.4236C25.807 13.4976 27.0562 15.1658 27.6199 17.0549C28.2369 19.0658 28.0541 21.3129 27.1248 23.202C26.2336 25.0377 24.6568 26.523 22.7678 27.3C20.9853 28.0389 18.9516 28.1455 17.1082 27.5818C15.1125 26.9877 13.3605 25.6318 12.2941 23.8418C11.3039 22.2117 10.9078 20.2389 11.1668 18.3498C11.4334 16.3008 12.4998 14.3736 14.0842 13.0406C15.3334 11.959 16.9254 11.2734 18.5783 11.0906ZM18.3879 13.1701C17.9461 13.8252 17.6642 14.5717 17.4662 15.3334C18.8144 15.6685 20.2389 15.6685 21.5871 15.3334C21.3662 14.4879 21.0463 13.6424 20.5055 12.9492C20.2389 12.6141 19.8428 12.2713 19.3857 12.3551C18.9439 12.4541 18.6316 12.8121 18.3879 13.1701ZM14.8916 14.0537C15.2953 14.3889 15.7371 14.6707 16.2094 14.8916C16.4303 14.1527 16.7197 13.4367 17.1082 12.7664C16.3008 13.0559 15.5467 13.4976 14.8916 14.0537ZM21.9451 12.7664C22.3184 13.4367 22.6307 14.1451 22.8287 14.8916C23.3086 14.6783 23.758 14.3889 24.1617 14.0537C23.5066 13.4976 22.7525 13.0559 21.9451 12.7664ZM13.9851 14.9754C13.0939 16.0723 12.5379 17.4281 12.4084 18.8373C13.4824 18.8297 14.5641 18.8373 15.6381 18.8373C15.6685 17.9461 15.7447 17.0549 15.9199 16.1789C15.2191 15.8742 14.5564 15.4781 13.9851 14.9754ZM23.659 15.9275C23.4914 16.0266 23.2857 16.0723 23.141 16.1941C23.2857 17.0701 23.3848 17.9537 23.4076 18.8373C24.4816 18.8373 25.5633 18.8373 26.6373 18.8373C26.5154 17.4357 25.9518 16.0799 25.0682 14.983C24.634 15.341 24.1693 15.6762 23.659 15.9275ZM17.1691 16.5978C17.0473 17.3367 16.9711 18.0908 16.9406 18.8373C18.6621 18.8373 20.3912 18.8373 22.1127 18.8373C22.0822 18.0832 21.9984 17.3367 21.8842 16.5978C20.3379 16.9711 18.7078 16.9787 17.1691 16.5978ZM12.4084 20.1398C12.5303 21.5414 13.0939 22.9049 13.9775 23.9941C14.5564 23.499 15.2115 23.0953 15.9123 22.8059C15.7523 21.9223 15.6609 21.0311 15.6381 20.1398C14.5641 20.1398 13.49 20.1322 12.4084 20.1398ZM16.9406 20.1398C16.9635 20.8939 17.0473 21.6404 17.1691 22.3793C18.7078 22.0061 20.3379 21.9984 21.8842 22.3793C22.006 21.6404 22.0822 20.8863 22.1127 20.1398C20.3912 20.1398 18.6621 20.1398 16.9406 20.1398ZM23.4076 20.1398C23.3771 21.0311 23.2934 21.9223 23.1334 22.8059C23.8342 23.1029 24.4893 23.5066 25.0682 24.0018C25.9518 22.9049 26.5154 21.549 26.6373 20.1475C25.5633 20.1398 24.4892 20.1322 23.4076 20.1398ZM17.4662 23.6437C17.6871 24.4893 18.007 25.3271 18.5478 26.0279C18.8144 26.3631 19.2105 26.7059 19.6752 26.6221C20.1094 26.523 20.4217 26.165 20.6654 25.8146C21.0996 25.1596 21.3967 24.4131 21.5871 23.6514C20.2389 23.3162 18.8144 23.3162 17.4662 23.6437ZM14.8916 24.9234C15.5467 25.4795 16.3008 25.9213 17.1082 26.2107C16.735 25.5404 16.4226 24.832 16.2246 24.0932C15.7447 24.2988 15.3029 24.5883 14.8916 24.9234ZM21.9451 26.2107C22.7525 25.9213 23.5066 25.4871 24.1617 24.9234C23.758 24.5883 23.3162 24.3064 22.8439 24.0855C22.6154 24.8244 22.326 25.5404 21.9451 26.2107Z" fill="url(#paint1_linear)"/>
<path d="M14.7545 29.2805C14.8916 29.2348 15.0439 29.2424 15.1887 29.2424C18.1365 29.2424 21.0844 29.2424 24.0246 29.2424C24.375 29.2195 24.7102 29.5014 24.7178 29.8518C24.7559 30.2326 24.3979 30.5754 24.017 30.5373C21.0158 30.5449 18.0146 30.5297 15.0211 30.5449C14.7012 30.5678 14.3812 30.3316 14.3355 30.0117C14.2746 29.6994 14.465 29.3795 14.7545 29.2805Z" fill="url(#paint2_linear)"/>
<path d="M17.4814 31.8474C18.7992 31.8246 20.117 31.8398 21.4348 31.8398C21.7775 31.817 22.1051 32.0912 22.1203 32.434C22.1584 32.8072 21.8309 33.15 21.4652 33.1347C20.1703 33.1424 18.883 33.1424 17.5881 33.1347C17.2225 33.15 16.8949 32.7996 16.933 32.434C16.9482 32.1445 17.192 31.8779 17.4814 31.8474Z" fill="url(#paint3_linear)"/>
</g>
<defs>
<linearGradient id="paint0_linear" x1="0.0252868" y1="19.6925" x2="39.0253" y2="19.6925" gradientUnits="userSpaceOnUse">
<stop stop-color="#CE1719"/>
<stop offset="1" stop-color="#134395"/>
</linearGradient>
<linearGradient id="paint1_linear" x1="11.0749" y1="19.4877" x2="27.9731" y2="19.4877" gradientUnits="userSpaceOnUse">
<stop stop-color="#CE1719"/>
<stop offset="1" stop-color="#134395"/>
</linearGradient>
<linearGradient id="paint2_linear" x1="14.3262" y1="29.8886" x2="24.7241" y2="29.8886" gradientUnits="userSpaceOnUse">
<stop stop-color="#CE1719"/>
<stop offset="1" stop-color="#134395"/>
</linearGradient>
<linearGradient id="paint3_linear" x1="16.9258" y1="32.4882" x2="22.1241" y2="32.4882" gradientUnits="userSpaceOnUse">
<stop stop-color="#CE1719"/>
<stop offset="1" stop-color="#134395"/>
</linearGradient>
<clipPath id="clip0">
<rect width="39" height="39" fill="white"/>
</clipPath>
</defs>
</svg>
