<svg width="35" height="35" viewBox="0 0 35 35" fill="none" xmlns="http://www.w3.org/2000/svg">
<g clip-path="url(#clip0)">
<path d="M15.8184 17.124C17.4317 17.124 18.7373 15.8184 18.7373 14.2051C18.7373 12.5918 17.4317 11.2861 15.8184 11.2861C14.2051 11.2861 12.8994 12.5918 12.8994 14.2051C12.9063 15.8184 14.2051 17.1172 15.8184 17.124ZM15.8184 12.4551C16.7822 12.4551 17.5684 13.2412 17.5684 14.2051C17.5684 15.1689 16.7822 15.9551 15.8184 15.9551C14.8545 15.9551 14.0684 15.1689 14.0684 14.2051C14.0684 13.2412 14.8545 12.4551 15.8184 12.4551Z" fill="url(#paint0_linear)"/>
<path d="M22.2373 17.7052C23.2012 17.7052 23.9873 16.9191 23.9873 15.9552C23.9873 14.9913 23.2012 14.2052 22.2373 14.2052C21.2734 14.2052 20.4873 14.9913 20.4873 15.9552C20.4873 16.9191 21.2666 17.7052 22.2373 17.7052ZM22.2373 15.3741C22.5586 15.3741 22.8184 15.6339 22.8184 15.9552C22.8184 16.2765 22.5586 16.5362 22.2373 16.5362C21.916 16.5362 21.6563 16.2765 21.6563 15.9552C21.6563 15.6339 21.916 15.3741 22.2373 15.3741Z" fill="url(#paint1_linear)"/>
<path d="M11.1494 20.6241C12.1133 20.6241 12.8994 19.838 12.8994 18.8741C12.8994 17.9103 12.1133 17.1241 11.1494 17.1241C10.1856 17.1241 9.39942 17.9103 9.39942 18.8741C9.39942 19.838 10.1856 20.6241 11.1494 20.6241ZM11.1494 18.2863C11.4707 18.2863 11.7305 18.546 11.7305 18.8673C11.7305 19.1886 11.4707 19.4484 11.1494 19.4484C10.8281 19.4484 10.5684 19.1886 10.5684 18.8673C10.5684 18.546 10.8281 18.2863 11.1494 18.2863Z" fill="url(#paint2_linear)"/>
<path d="M14.6494 21.7861C14.6494 23.7207 16.2148 25.2861 18.1494 25.2861C20.084 25.2861 21.6494 23.7207 21.6494 21.7861C21.6494 19.8516 20.084 18.2861 18.1494 18.2861C16.2217 18.293 14.6563 19.8584 14.6494 21.7861ZM20.4873 21.7861C20.4873 23.0781 19.4414 24.1172 18.1562 24.1172C16.8643 24.1172 15.8252 23.0713 15.8252 21.7861C15.8252 20.4941 16.8711 19.4551 18.1562 19.4551C19.4414 19.4551 20.4873 20.501 20.4873 21.7861Z" fill="url(#paint3_linear)"/>
<path d="M2.39942 20.0362C2.83008 20.0362 3.25391 19.9131 3.62305 19.6876C3.79395 19.5645 4.00587 19.4961 4.21778 19.4893C4.9629 19.5303 6.07715 19.6124 7.28028 19.7833C7.36231 20.2071 7.47852 20.6309 7.61524 21.0411C6.61036 21.8272 5.67383 22.4629 5.07227 22.8526C4.91504 22.9415 4.73731 22.9756 4.56641 22.9551C3.95801 22.921 3.36329 23.126 2.90528 23.5225C2.167 24.1583 1.9004 25.1836 2.24219 26.0997C2.48145 26.7422 2.99415 27.2481 3.63672 27.4805C4.28614 27.7129 4.99708 27.6514 5.5918 27.3096C5.97462 27.0909 6.28223 26.7764 6.48731 26.3868C6.57618 26.1954 6.71973 26.0381 6.89747 25.9288C7.47169 25.6348 8.90723 25.0059 9.71387 24.6641C10.001 24.9854 10.3018 25.2862 10.6299 25.5665C10.1309 26.8038 9.6045 27.8633 9.32422 28.417C9.23536 28.5674 9.09864 28.6837 8.94141 28.752C8.23731 29.1075 7.76563 29.7911 7.67676 30.5772C7.5879 31.3565 7.89551 32.1358 8.50391 32.6348C8.92774 32.9835 9.45411 33.168 9.99415 33.1749C10.6231 33.1749 11.2246 32.9151 11.669 32.4639C12.1065 32.0128 12.3457 31.4044 12.3252 30.7686C12.3047 30.5567 12.3457 30.3448 12.4551 30.1602C12.8652 29.5313 13.4941 28.6085 14.2461 27.6446C14.6494 27.7813 15.0664 27.8975 15.4902 27.9864C15.5723 28.7042 15.7637 30.4337 15.791 31.1036C15.791 31.2745 15.7363 31.4454 15.6338 31.5821C15.2031 32.2383 15.1279 33.0723 15.4424 33.7969C15.7568 34.5215 16.4131 35.0342 17.1924 35.171C17.3223 35.1915 17.4522 35.1983 17.582 35.1983C18.2041 35.1983 18.7988 34.9522 19.2363 34.5147C19.6738 34.0772 19.9199 33.4825 19.9199 32.8604C19.9199 32.4229 19.7969 31.9922 19.5645 31.6163C19.4483 31.4522 19.3799 31.2471 19.3799 31.042C19.4209 30.2969 19.5029 29.1827 19.6738 27.9795C20.0977 27.8907 20.5215 27.7745 20.9317 27.6378C21.7588 28.6905 22.4082 29.6749 22.7432 30.1944C22.832 30.3448 22.8662 30.5225 22.8457 30.6934C22.8115 31.336 23.044 31.9649 23.4883 32.4297C23.9326 32.8946 24.5479 33.1612 25.1904 33.1612C25.4639 33.1612 25.7373 33.1133 25.9902 33.0176C26.6328 32.7784 27.1387 32.2657 27.3779 31.6231C27.6104 30.9737 27.5488 30.2628 27.2002 29.6612C26.9883 29.2852 26.667 28.9776 26.2842 28.7725C26.0928 28.6837 25.9287 28.5401 25.8193 28.3555C25.4775 27.6856 24.9922 26.6807 24.5342 25.5528C24.8555 25.2725 25.1631 24.9649 25.4502 24.6436C26.8516 25.252 27.8838 25.7237 28.3008 25.9424C28.4512 26.0313 28.5742 26.168 28.6426 26.3253C28.9981 27.0225 29.6748 27.4942 30.4473 27.5899C31.2197 27.6856 31.9922 27.3848 32.5049 26.7969C32.9561 26.2706 33.1543 25.5665 33.0381 24.8829C32.9219 24.1993 32.5049 23.5977 31.8965 23.2559C31.5137 23.0303 31.0762 22.9278 30.6318 22.9483C30.4336 22.9688 30.2285 22.921 30.0576 22.8253C29.1621 22.2442 28.3213 21.6495 27.5557 21.0342C27.6924 20.6241 27.8018 20.2071 27.8838 19.7764C29.21 19.5919 30.3858 19.5167 31.001 19.4825C31.1719 19.4825 31.3428 19.544 31.4795 19.6465C32.3135 20.1934 33.4004 20.1524 34.1865 19.5372C34.9727 18.9288 35.2871 17.8829 34.9658 16.9395C34.6445 15.9961 33.7559 15.3604 32.7647 15.3604C32.334 15.3604 31.9102 15.4835 31.541 15.709C31.3701 15.8321 31.1582 15.9004 30.9463 15.9073C30.2012 15.8663 29.0869 15.7842 27.8838 15.6133C27.8018 15.1895 27.6856 14.7657 27.5488 14.3555C28.5537 13.5694 29.4902 12.9336 30.0918 12.544C30.249 12.4551 30.4199 12.421 30.5977 12.4415C31.2061 12.4756 31.8008 12.2706 32.2588 11.8741C32.9971 11.2383 33.2637 10.2129 32.9219 9.29693C32.6826 8.65435 32.1699 8.14849 31.5274 7.91607C30.8848 7.68365 30.167 7.74517 29.5723 8.08697C29.1895 8.30572 28.8818 8.62017 28.6768 9.00982C28.5879 9.20123 28.4443 9.35845 28.2666 9.46783C27.6924 9.76177 26.2568 10.3907 25.4502 10.7325C25.1631 10.4112 24.8623 10.1172 24.541 9.83697C25.04 8.59966 25.5664 7.54009 25.8467 6.98638C25.9356 6.83599 26.0723 6.71978 26.2295 6.65142C27.1182 6.20025 27.624 5.23638 27.4873 4.25201C27.3506 3.26763 26.6055 2.47466 25.6279 2.28326C24.6504 2.09185 23.6592 2.54302 23.1602 3.40435C22.9414 3.78033 22.832 4.20416 22.8457 4.63482C22.8662 4.84673 22.8252 5.05865 22.7158 5.24322C22.3057 5.87212 21.6768 6.79498 20.9248 7.75201C20.5215 7.61529 20.1045 7.49908 19.6807 7.41021C19.5986 6.69244 19.4072 4.94927 19.3799 4.28619C19.3799 4.11529 19.4346 3.95123 19.5371 3.81451C20.0908 2.98052 20.0498 1.89361 19.4414 1.10064C18.833 0.30767 17.7871 -0.00678299 16.8438 0.314506C15.9004 0.635795 15.2647 1.52447 15.2647 2.52251C15.2647 2.96001 15.3877 3.39068 15.6201 3.75982C15.7432 3.93072 15.8047 4.12896 15.8047 4.33404C15.7705 4.96978 15.5996 6.52837 15.4902 7.40337C15.0732 7.49224 14.6563 7.60162 14.2529 7.74517C13.4258 6.69244 12.7764 5.70806 12.4414 5.18853C12.3594 5.03814 12.3252 4.8604 12.3457 4.68951C12.4004 3.69146 11.8193 2.77544 10.8965 2.39947C9.97364 2.02349 8.91407 2.27642 8.25782 3.02837C7.60157 3.78033 7.49903 4.86041 7.99122 5.72857C8.20313 6.10455 8.52442 6.41216 8.90723 6.61724C9.09864 6.70611 9.2627 6.84966 9.37208 7.03423C9.71387 7.70416 10.1992 8.70904 10.6572 9.83697C10.3359 10.1172 10.0283 10.4249 9.74122 10.7393C9.08497 10.4522 7.48536 9.75494 6.89063 9.44048C6.74024 9.35162 6.61719 9.2149 6.54883 9.05767C6.09766 8.169 5.13379 7.66314 4.14258 7.79986C3.15137 7.93658 2.3584 8.68169 2.167 9.66607C1.97559 10.6504 2.42676 11.6417 3.28809 12.1407C3.6709 12.3594 4.1084 12.4688 4.55274 12.4483C4.75098 12.4278 4.95606 12.4756 5.12696 12.5713C5.98829 13.1251 6.82911 13.7198 7.62891 14.3624C7.49219 14.7725 7.38282 15.1895 7.30079 15.6202C5.98145 15.8047 4.80567 15.8799 4.1836 15.9141C4.0127 15.9141 3.8418 15.8526 3.70508 15.7501C2.8711 15.2032 1.78419 15.2442 0.998052 15.8594C0.184576 16.4747 -0.123041 17.5137 0.198248 18.4571C0.519537 19.4004 1.40821 20.0362 2.39942 20.0362ZM11.4639 29.5245C11.2315 29.9073 11.1152 30.3585 11.1494 30.8096C11.1563 31.0284 11.1016 31.2403 10.9922 31.4249C10.7393 31.8555 10.2471 32.0811 9.75489 31.9786C9.26954 31.8829 8.89356 31.4864 8.8252 30.9942C8.75684 30.502 9.00977 30.0167 9.45411 29.7979C9.83692 29.6202 10.1514 29.3262 10.3496 28.9503C10.6777 28.3213 11.1221 27.3985 11.5732 26.3253C12.0586 26.6602 12.5645 26.9542 13.0977 27.2071C12.4209 28.0958 11.8535 28.9366 11.4639 29.5245ZM24.7529 28.8956C24.9717 29.292 25.2998 29.6133 25.71 29.8116C25.9014 29.9141 26.0586 30.0645 26.1611 30.2559C26.4072 30.6866 26.3594 31.2266 26.0313 31.6026C25.7031 31.9786 25.1768 32.1016 24.7119 31.917C24.2471 31.7256 23.96 31.2676 23.9873 30.7686C24.0215 30.3516 23.9258 29.9278 23.7002 29.5723C23.3858 29.0801 22.791 28.1915 22.0391 27.2003C22.5723 26.9473 23.0781 26.6534 23.5635 26.3116C23.9942 27.3575 24.4317 28.2735 24.7529 28.8956ZM30.8574 17.0831C31.3086 17.0967 31.7529 16.9669 32.1289 16.7139C32.6211 16.4268 33.25 16.5225 33.6328 16.9532C34.0156 17.3975 34.0156 18.0538 33.626 18.4913C33.2363 18.9288 32.5869 19.0108 32.1016 18.6827C31.7529 18.4434 31.3428 18.3204 30.9258 18.334C30.3447 18.3614 29.2783 18.4297 28.0479 18.587C28.0684 18.293 28.082 18.0059 28.082 17.7051C28.082 17.4112 28.0684 17.1172 28.0479 16.8233C29.1416 16.9669 30.1533 17.042 30.8574 17.0831ZM23.6729 5.8858C23.9053 5.50298 24.0215 5.05181 23.9873 4.60064C23.9805 4.38189 24.0352 4.16998 24.1445 3.9854C24.3975 3.55474 24.8897 3.32915 25.3818 3.43169C25.8672 3.5274 26.2432 3.92388 26.3115 4.41607C26.3799 4.90826 26.127 5.39361 25.6826 5.61236C25.2998 5.79009 24.9854 6.08404 24.7871 6.46001C24.459 7.08892 24.0147 8.01177 23.5635 9.08501C23.0781 8.75005 22.5723 8.45611 22.0391 8.20318C22.7158 7.31451 23.2832 6.47369 23.6729 5.8858ZM10.3838 6.5147C10.165 6.11822 9.83692 5.79693 9.42676 5.59869C9.23536 5.49615 9.07813 5.34576 8.97559 5.15435C8.7295 4.72369 8.77735 4.17681 9.10547 3.80083C9.4336 3.42486 9.9668 3.30181 10.4248 3.48638C10.8897 3.67779 11.1768 4.1358 11.1494 4.63482C11.1152 5.05181 11.2109 5.47564 11.4365 5.83111C11.8125 6.42584 12.3867 7.27349 13.0977 8.20318C12.5645 8.45611 12.0586 8.75005 11.5732 9.08501C11.1426 8.05279 10.7051 7.13677 10.3838 6.5147ZM5.74219 11.6006C5.36622 11.3682 4.92188 11.2588 4.48438 11.2862C4.26563 11.2999 4.04688 11.2452 3.85547 11.129C3.42481 10.876 3.20606 10.3838 3.30176 9.89849C3.39747 9.41314 3.79395 9.03716 4.28614 8.9688C4.77833 8.90044 5.25684 9.15337 5.48243 9.59087C5.66016 9.97369 5.95411 10.2881 6.33008 10.4864C6.93165 10.8008 8.42188 11.4571 9.25587 11.8126C9.72071 12.0108 10.2607 11.8877 10.5957 11.5049C11.9356 9.99419 13.7266 8.95513 15.7022 8.55181C16.2012 8.45611 16.584 8.04595 16.6387 7.54009C16.7412 6.65142 16.9121 5.07232 16.9463 4.4024C16.96 3.95123 16.8301 3.51373 16.5772 3.14458C16.4609 2.96001 16.3994 2.7481 16.3994 2.52935C16.3994 2.03033 16.7207 1.58599 17.1924 1.42876C17.6641 1.27154 18.1836 1.42876 18.4912 1.82525C18.792 2.22173 18.8125 2.76861 18.5391 3.17876C18.2998 3.52056 18.1768 3.93072 18.1904 4.34771C18.2246 5.02447 18.3955 6.64459 18.4981 7.54693C18.5596 8.05279 18.9356 8.46294 19.4346 8.55865C21.4102 8.96197 23.2012 10.001 24.541 11.5118C24.876 11.8946 25.416 12.0176 25.8809 11.8194C26.6943 11.4639 28.1572 10.8213 28.7588 10.5137C29.1484 10.3018 29.4629 9.96685 29.6611 9.57037C29.7637 9.37896 29.9209 9.2149 30.1123 9.11236C30.6318 8.81158 31.2949 8.9483 31.6436 9.44048C31.9922 9.92584 31.917 10.6026 31.4658 10.9991C31.2334 11.1973 30.9326 11.3067 30.625 11.293C30.2012 11.2588 29.7842 11.3545 29.4219 11.5801C28.793 11.9835 27.8291 12.6329 26.79 13.4532C26.4004 13.7608 26.25 14.2803 26.4141 14.752C27.0566 16.6729 27.0566 18.7579 26.4141 20.6788C26.2568 21.1504 26.4072 21.6631 26.79 21.9776C27.5899 22.6065 28.4649 23.2286 29.3877 23.8233C29.7637 24.0557 30.208 24.1651 30.6455 24.1378C30.8643 24.1241 31.083 24.1788 31.2744 24.295C31.7051 24.5479 31.9238 25.0401 31.8281 25.5254C31.7324 26.0108 31.3359 26.3868 30.8438 26.4551C30.3516 26.5235 29.8731 26.2706 29.6475 25.8331C29.4697 25.4503 29.1758 25.1358 28.7998 24.9376C28.2051 24.6299 26.7149 23.9737 25.8809 23.6114C25.416 23.4131 24.8692 23.5362 24.541 23.919C23.1123 25.5391 21.1641 26.6055 19.0313 26.9405C18.7783 26.9815 18.5801 27.1866 18.5459 27.4395C18.3272 28.8477 18.2315 30.1602 18.1836 31.0215C18.1699 31.4727 18.2998 31.9102 18.5527 32.2794C18.669 32.4639 18.7305 32.6758 18.7305 32.8946C18.7305 33.2364 18.5801 33.5645 18.3203 33.7833C17.876 34.1592 17.2266 34.1456 16.7891 33.7628C16.3584 33.3731 16.2695 32.7305 16.5908 32.2452C16.8301 31.9034 16.9531 31.4932 16.9395 31.0762C16.9053 30.3995 16.7344 28.7794 16.6318 27.877C16.5703 27.3711 16.1943 26.9678 15.6953 26.8721C13.7197 26.4688 11.9219 25.4297 10.5889 23.919C10.3633 23.6661 10.042 23.5225 9.70704 23.5157C9.54981 23.5157 9.39258 23.5499 9.24903 23.6114C8.43555 23.9669 6.97266 24.6094 6.3711 24.917C5.98145 25.129 5.667 25.4639 5.46876 25.8604C5.36622 26.0518 5.20899 26.2159 5.01758 26.3184C4.49805 26.626 3.82813 26.4893 3.47266 25.9971C3.11719 25.5049 3.19922 24.8282 3.65723 24.4317C3.88965 24.2335 4.19044 24.1241 4.49805 24.1378C4.92188 24.1719 5.33887 24.0762 5.70118 23.8506C6.33008 23.4473 7.29395 22.7979 8.33301 21.9776C8.72266 21.67 8.87305 21.1504 8.70899 20.6788C8.06641 18.7579 8.06641 16.6797 8.70899 14.752C8.87305 14.2803 8.72266 13.7608 8.33301 13.4532C7.54005 12.8174 6.66505 12.2022 5.74219 11.6006ZM1.25098 17.5001C1.31934 17.1104 1.57911 16.7891 1.94141 16.6319C2.30372 16.4747 2.71387 16.5088 3.04883 16.7276C3.39063 16.9669 3.80762 17.0899 4.22462 17.0762C4.92188 17.042 5.95411 16.9737 7.10255 16.8233C7.08204 17.1172 7.06837 17.4044 7.06837 17.7051C7.06837 17.9991 7.08204 18.293 7.10255 18.587C5.98829 18.4434 4.97657 18.3682 4.2793 18.334C3.82813 18.3204 3.38379 18.4503 3.00782 18.7032C2.51563 18.9903 1.88672 18.8946 1.51075 18.4708C1.28516 18.1973 1.18946 17.8487 1.25098 17.5001Z" fill="url(#paint4_linear)"/>
</g>
<defs>
<linearGradient id="paint0_linear" x1="12.9017" y1="14.2051" x2="18.735" y2="14.2051" gradientUnits="userSpaceOnUse">
<stop stop-color="#CE1719"/>
<stop offset="1" stop-color="#134395"/>
</linearGradient>
<linearGradient id="paint1_linear" x1="20.485" y1="15.9552" x2="23.985" y2="15.9552" gradientUnits="userSpaceOnUse">
<stop stop-color="#CE1719"/>
<stop offset="1" stop-color="#134395"/>
</linearGradient>
<linearGradient id="paint2_linear" x1="9.4017" y1="18.8719" x2="12.9017" y2="18.8719" gradientUnits="userSpaceOnUse">
<stop stop-color="#CE1719"/>
<stop offset="1" stop-color="#134395"/>
</linearGradient>
<linearGradient id="paint3_linear" x1="14.6517" y1="21.7884" x2="21.6517" y2="21.7884" gradientUnits="userSpaceOnUse">
<stop stop-color="#CE1719"/>
<stop offset="1" stop-color="#134395"/>
</linearGradient>
<linearGradient id="paint4_linear" x1="0.0709146" y1="17.7061" x2="35.0649" y2="17.7061" gradientUnits="userSpaceOnUse">
<stop stop-color="#CE1719"/>
<stop offset="1" stop-color="#134395"/>
</linearGradient>
<clipPath id="clip0">
<rect width="35" height="35" fill="white"/>
</clipPath>
</defs>
</svg>
