<svg width="36" height="36" viewBox="0 0 36 36" fill="none" xmlns="http://www.w3.org/2000/svg">
<path d="M1.78595 6.64458C1.98282 6.48989 2.25001 6.53208 2.45392 6.64458C3.70548 7.24927 5.2172 7.27036 6.49689 6.72192C6.72892 6.63755 6.97501 6.47583 7.23517 6.56723C7.47423 6.63755 7.62188 6.89067 7.60782 7.12973C7.60782 9.15473 7.60782 11.1797 7.60782 13.1977C8.1211 13.3383 8.5922 13.6407 8.89454 14.0766C9.33048 14.6743 9.42189 15.4899 9.17579 16.179C9.74532 16.3196 10.2797 16.6149 10.6734 17.0508C11.1797 17.5852 11.4609 18.3235 11.4539 19.0547C11.4539 20.0532 11.4609 21.0516 11.4469 22.05C11.4047 22.8868 10.6383 23.5758 9.80157 23.5758C9.80157 24.2016 9.80157 24.8344 9.80157 25.4602C12.1781 24.3422 14.7797 23.7024 17.4024 23.5899C20.4399 23.4493 23.4984 24.0118 26.2828 25.2141C26.2828 24.6657 26.2828 24.1243 26.2828 23.5758C25.432 23.5758 24.6586 22.8516 24.6375 21.9938C24.6305 21.0375 24.6375 20.0813 24.6305 19.125C24.6234 18.661 24.7078 18.1969 24.9117 17.7821C25.2914 16.9805 26.0438 16.3829 26.9086 16.179C26.7258 15.6446 26.7117 15.0399 26.9438 14.5125C27.218 13.8657 27.8016 13.3735 28.4766 13.1907C28.4766 11.1657 28.4766 9.1477 28.4766 7.1227C28.4484 6.77817 28.7789 6.46177 29.1234 6.53911C29.482 6.63755 29.8195 6.82036 30.1852 6.91177C31.2891 7.22817 32.5125 7.1438 33.5531 6.65864C33.736 6.57427 33.9399 6.47583 34.1438 6.55317C34.3828 6.62348 34.5375 6.87661 34.5234 7.1227C34.5305 8.3602 34.5234 9.60473 34.5234 10.8422C34.5445 11.0743 34.425 11.3204 34.207 11.4188C32.7867 12.129 31.0852 12.2415 29.5805 11.7282C29.5805 12.2133 29.5734 12.7055 29.5875 13.1907C30.2695 13.3665 30.8531 13.8657 31.1203 14.5125C31.3453 15.0399 31.3383 15.6375 31.1555 16.1719C31.9992 16.3688 32.7445 16.9454 33.1242 17.7258C33.3422 18.1547 33.4336 18.6329 33.4336 19.111C33.4266 20.025 33.4406 20.9391 33.4336 21.8461C33.4406 22.2961 33.2719 22.7461 32.9555 23.0625C32.6531 23.386 32.2172 23.5407 31.7883 23.5618C31.7813 25.0102 31.7883 26.4586 31.7883 27.9071C31.7953 28.1532 31.732 28.3922 31.6547 28.6172C31.8656 28.8071 32.0766 29.004 32.2805 29.2008C32.0344 29.468 31.7602 29.7071 31.5352 29.9883H31.5C30.0656 28.561 28.3711 27.4008 26.55 26.5149C23.407 24.9891 19.8352 24.3915 16.3617 24.75C12.1711 25.1649 8.14923 27.0493 5.13282 29.9883H5.11173C4.89376 29.7 4.61251 29.468 4.37345 29.2008C4.46485 29.1165 4.55626 29.0321 4.64767 28.9477C4.45782 28.6594 4.3172 28.329 4.3172 27.9774C4.31017 26.5079 4.3172 25.0313 4.3172 23.5547C3.48751 23.5477 2.7211 22.8727 2.67892 22.036C2.65782 21.0586 2.67892 20.0813 2.67189 19.104C2.66485 18.5766 2.78439 18.0422 3.05157 17.5782C3.45235 16.868 4.15548 16.3477 4.95001 16.1649C4.76017 15.6305 4.7461 15.0188 4.97814 14.4985C5.25235 13.8516 5.84298 13.3594 6.51095 13.1766C6.51095 12.6915 6.51798 12.2063 6.51095 11.7211C4.99923 12.2344 3.27657 12.129 1.84923 11.3907C1.64532 11.2922 1.54689 11.0532 1.56095 10.8352C1.56095 9.6188 1.56095 8.40239 1.56095 7.17895C1.54689 6.99614 1.60313 6.76411 1.78595 6.64458ZM2.65782 7.9102C2.65782 8.80317 2.65782 9.69614 2.65782 10.5821C3.87423 11.0954 5.28751 11.0813 6.50392 10.568C6.50392 9.67505 6.50392 8.78911 6.50392 7.89614C5.27345 8.31802 3.90235 8.31802 2.65782 7.9102ZM29.5875 7.89614C29.5945 8.78911 29.5734 9.68208 29.5945 10.575C30.8109 11.0813 32.2172 11.0954 33.4336 10.5821C33.4266 9.68911 33.4406 8.79614 33.4336 7.9102C32.1961 8.31802 30.832 8.31098 29.5875 7.89614ZM6.4336 14.4211C6.02579 14.6813 5.80079 15.2086 5.93438 15.6868C5.99063 15.9399 6.16642 16.1368 6.3422 16.3125C6.5672 16.5305 6.51798 16.9383 6.26485 17.1141C6.03985 17.2829 5.74454 17.2055 5.48439 17.2266C4.58438 17.2477 3.79689 18.0352 3.76173 18.9352C3.7547 19.9336 3.7547 20.9321 3.76173 21.9305C3.7547 22.2258 4.02188 22.4649 4.30313 22.486C4.30313 21.1993 4.30313 19.9125 4.30313 18.6258C4.66876 18.6258 5.03439 18.6258 5.40001 18.6258C5.40001 21.7055 5.40001 24.7852 5.40001 27.8649C5.40001 27.9915 5.40704 28.125 5.48439 28.2305C5.80782 27.9493 6.14532 27.6891 6.48985 27.436C6.50392 25.9665 6.48985 24.4969 6.49689 23.0274C6.86251 23.0274 7.2211 23.0274 7.58673 23.0204C7.60782 24.2368 7.58673 25.4602 7.59376 26.6766C7.95235 26.4516 8.31798 26.2407 8.69064 26.0297C8.69064 23.5618 8.69064 21.0938 8.69064 18.6258C9.05626 18.6258 9.42189 18.6258 9.78751 18.6258C9.78751 19.9125 9.78751 21.1993 9.78751 22.486C10.0688 22.4649 10.3359 22.2329 10.3289 21.9375C10.3289 21.0024 10.3359 20.0672 10.3359 19.1321C10.3992 18.1547 9.56954 17.2336 8.58517 17.2266C8.33204 17.2055 8.0297 17.2829 7.81876 17.1C7.58673 16.9243 7.53751 16.5446 7.74142 16.3266C7.87501 16.179 8.0297 16.0383 8.10704 15.8485C8.31095 15.3985 8.17735 14.829 7.8047 14.5125C7.4461 14.1821 6.84845 14.1399 6.4336 14.4211ZM27.893 15.2227C27.8297 15.6094 27.9984 16.0102 28.2867 16.2633C28.5328 16.4743 28.5258 16.8961 28.2656 17.093C28.0336 17.2899 27.7102 17.1985 27.4359 17.2266C26.543 17.2618 25.7695 18.0493 25.7414 18.9352C25.7344 19.9336 25.7344 20.9321 25.7414 21.9305C25.7344 22.2329 26.0016 22.4579 26.2828 22.486C26.2899 21.1993 26.2828 19.9125 26.2899 18.6258C26.6555 18.6258 27.0211 18.6258 27.3867 18.6258C27.4008 20.9954 27.3867 23.3719 27.3938 25.7415C27.7664 25.9243 28.125 26.1282 28.4906 26.3321C28.4906 25.2282 28.4906 24.1243 28.4906 23.0204C28.8563 23.0204 29.2219 23.0204 29.5875 23.0204C29.5945 24.3493 29.5805 25.6852 29.5945 27.0141C29.9391 27.3094 30.3328 27.5485 30.6914 27.8368C30.6914 24.7641 30.6914 21.6915 30.6914 18.6188C31.057 18.6188 31.4227 18.6188 31.7883 18.6188C31.7883 19.9055 31.7883 21.1922 31.7883 22.479C32.0695 22.4579 32.3367 22.2258 32.3297 21.9305C32.3367 20.9321 32.3367 19.9336 32.3297 18.9352C32.3016 18.0422 31.5211 17.2618 30.6352 17.2266C30.3609 17.1985 30.0375 17.2899 29.8055 17.093C29.5453 16.8891 29.5453 16.4672 29.7984 16.2563C30.143 15.954 30.2977 15.4477 30.1359 15.0047C29.9742 14.5125 29.4609 14.1821 28.9477 14.2313C28.4274 14.2735 27.9633 14.7094 27.893 15.2227Z" fill="url(#paint0_linear)"/>
<path d="M18.6047 10.3359C18.6188 10.0547 18.8859 9.82267 19.1602 9.83673C19.3781 9.83673 19.5398 9.99845 19.6945 10.125C20.7281 10.9828 21.7617 11.8477 22.7883 12.7055C23.0555 12.9094 23.0555 13.3594 22.7883 13.5633C21.7266 14.4563 20.6508 15.3422 19.5891 16.2352C19.4695 16.3336 19.3289 16.432 19.1672 16.432C18.893 16.4461 18.6328 16.2211 18.6117 15.9469C18.5977 15.5602 18.6117 15.1734 18.6047 14.7867C17.1422 14.7867 15.6867 14.7867 14.2242 14.7867C13.9289 14.8008 13.6617 14.5477 13.6617 14.2524C13.6547 13.5141 13.6547 12.7688 13.6617 12.0305C13.6547 11.7352 13.9289 11.475 14.2242 11.4891C15.6867 11.482 17.1492 11.5031 18.6117 11.482C18.5977 11.0953 18.5906 10.7156 18.6047 10.3359ZM19.7016 11.5594C19.7016 11.7563 19.7156 11.9602 19.6875 12.157C19.6383 12.4172 19.3711 12.6 19.1109 12.5859C17.6625 12.5859 16.2141 12.5859 14.7656 12.5789C14.7586 12.9445 14.7586 13.3172 14.7656 13.6828C16.2141 13.6758 17.6625 13.6758 19.1109 13.6828C19.343 13.6688 19.575 13.8024 19.6664 14.0203C19.7438 14.2383 19.7016 14.4774 19.7086 14.7094C20.3414 14.1891 20.9672 13.6617 21.6 13.1414C20.9602 12.607 20.3273 12.0867 19.7016 11.5594Z" fill="url(#paint1_linear)"/>
<path d="M16.4672 16.1157C16.5867 16.0172 16.7133 15.9047 16.875 15.8837C17.1773 15.8344 17.4867 16.0876 17.4938 16.3969C17.5078 16.7696 17.4938 17.1493 17.5008 17.529C18.9492 17.529 20.3977 17.529 21.8391 17.529C22.0359 17.5219 22.2398 17.6063 22.3453 17.7751C22.4508 17.9227 22.4367 18.1126 22.4437 18.2883C22.4367 18.9633 22.4437 19.6313 22.4437 20.3063C22.4367 20.5876 22.1836 20.8337 21.9023 20.8266C20.4328 20.8337 18.9633 20.8196 17.4938 20.8337C17.4938 21.2204 17.5078 21.6141 17.4867 22.0008C17.4586 22.4157 16.8961 22.6337 16.5938 22.3524C15.5039 21.4454 14.4141 20.5383 13.3242 19.6313C13.0359 19.4344 13.0219 18.9704 13.3031 18.7594C14.3578 17.8735 15.4195 17.0016 16.4672 16.1157ZM14.5125 19.1743C15.1313 19.7087 15.7711 20.229 16.3969 20.7493C16.3969 20.5383 16.3758 20.3133 16.425 20.1094C16.5023 19.8633 16.7555 19.7087 17.0086 19.7297C18.45 19.7297 19.8984 19.7297 21.3398 19.7297C21.3398 19.3641 21.3398 18.9985 21.3398 18.6329C19.9828 18.6329 18.6258 18.6399 17.2688 18.6329C17.0297 18.6329 16.7414 18.668 16.5586 18.4782C16.3195 18.2532 16.4039 17.9016 16.3898 17.6133C15.7641 18.1266 15.1453 18.654 14.5125 19.1743Z" fill="url(#paint2_linear)"/>
<defs>
<linearGradient id="paint0_linear" x1="1.55923" y1="18.2779" x2="34.5392" y2="18.2779" gradientUnits="userSpaceOnUse">
<stop stop-color="#CE1719"/>
<stop offset="1" stop-color="#134395"/>
</linearGradient>
<linearGradient id="paint1_linear" x1="13.6518" y1="13.1328" x2="22.9904" y2="13.1328" gradientUnits="userSpaceOnUse">
<stop stop-color="#CE1719"/>
<stop offset="1" stop-color="#134395"/>
</linearGradient>
<linearGradient id="paint2_linear" x1="13.1073" y1="19.1774" x2="22.4473" y2="19.1774" gradientUnits="userSpaceOnUse">
<stop stop-color="#CE1719"/>
<stop offset="1" stop-color="#134395"/>
</linearGradient>
</defs>
</svg>
