<svg width="39" height="39" viewBox="0 0 39 39" fill="none" xmlns="http://www.w3.org/2000/svg">
<path d="M15.0732 0.157288C15.0732 0.157288 16.8895 0.157288 18.1712 0.802046C19.4528 1.4468 20.2863 2.52402 20.2863 2.52402L17.094 7.48551L12.046 5.23672L15.0732 0.157288ZM20.9782 9.19963C21.8038 9.59277 21.6466 10.8037 21.6466 10.8037L21.1905 13.0053L26.5137 5.63773C26.5137 5.63773 26.3565 4.67059 24.6109 3.71132C22.8653 2.75205 21.2613 2.6341 21.2613 2.6341L17.9746 7.75285C17.9667 7.75285 19.8617 8.67281 20.9782 9.19963ZM27.0641 6.58914L20.8917 14.5071C20.8917 14.5071 21.7409 15.7022 22.5194 16.3234C23.2978 16.9446 24.4694 17.4714 24.4694 17.4714L31.3573 10.3555C31.3573 10.3555 30.3272 8.49983 29.3365 7.83148C28.3458 7.16313 27.0641 6.58914 27.0641 6.58914ZM25.0198 18.0375C25.0198 18.0375 25.4129 18.9575 25.9397 19.445C26.4665 19.9325 27.6381 20.6952 27.6381 20.6952L34.3609 14.8609C34.3609 14.8609 33.8341 13.4141 33.2837 12.793C32.7333 12.1718 31.3573 11.4406 31.3573 11.4406L25.0198 18.0375ZM32.9377 19.1855C32.8905 20.1762 32.3637 20.9547 32.3637 20.9547L27.8661 29.4466L27.9605 38.9529H11.7L13.4456 27.9369C13.4456 27.9369 4.70202 16.3863 4.21452 15.7258C3.73488 15.0575 4.35605 14.3498 4.35605 14.3498C4.35605 14.3498 9.49839 6.9587 10.0488 6.15668C10.5992 5.35467 11.2675 5.73995 11.2675 5.73995C11.2675 5.73995 19.9482 9.55346 20.5222 9.87584C21.0962 10.1982 20.7738 10.7014 20.7738 10.7014C20.7738 10.7014 20.475 12.1954 18.4071 13.021C16.3391 13.8466 13.6107 12.3527 13.6107 12.3527L12.2819 14.8766C12.2819 14.8766 15.773 16.4571 17.8409 18.5014C19.9089 20.5458 21.7409 26.443 21.7409 26.443L23.1877 19.9954L27.7325 22.197L32.9456 17.149C32.9377 17.149 32.9849 18.2027 32.9377 19.1855ZM24.3278 29.7297C24.3278 29.7297 22.3778 30.052 21.3399 29.9577C20.3099 29.8633 18.4936 29.0849 18.4936 29.0849L20.6794 31.1529L21.049 36.9164L22.0554 31.3416L24.3278 29.7297Z" fill="black"/>
</svg>
