<svg width="42" height="42" viewBox="0 0 42 42" fill="none" xmlns="http://www.w3.org/2000/svg">
<path d="M21 42C32.598 42 42 32.598 42 21C42 9.40202 32.598 0 21 0C9.40202 0 0 9.40202 0 21C0 32.598 9.40202 42 21 42Z" fill="#F0F0F0"/>
<path d="M21 0C14.6351 0 8.93206 2.83205 5.08094 7.30431H36.919C33.0679 2.83205 27.3649 0 21 0Z" fill="#0052B4"/>
<path d="M36.9191 34.6957H5.08094C8.93206 39.1679 14.6351 42 21 42C27.3649 42 33.0679 39.1679 36.9191 34.6957Z" fill="#0052B4"/>
<path d="M38.9178 10.0435H3.08224C1.12752 13.2333 0 16.9848 0 21C0 25.0152 1.12752 28.7668 3.08224 31.9565H38.9178C40.8725 28.7668 42 25.0152 42 21C42 16.9848 40.8725 13.2333 38.9178 10.0435Z" fill="#D80027"/>
<path d="M12.9196 29.0804C17.3823 29.0804 21 25.4627 21 21C21 16.5373 17.3823 12.9196 12.9196 12.9196C8.4569 12.9196 4.83918 16.5373 4.83918 21C4.83918 25.4627 8.4569 29.0804 12.9196 29.0804Z" fill="#F0F0F0"/>
<path d="M12.9196 12.9196L14.7326 18.4994H20.6091L15.8532 21.9482L17.6804 27.5447L12.9196 24.0795L8.16605 27.5382L9.986 21.9482L5.23434 18.4994H11.1065L12.9196 12.9196Z" fill="#D80027"/>
</svg>
