<svg width="139" height="57" viewBox="0 0 139 57" fill="none" xmlns="http://www.w3.org/2000/svg">
<path fill-rule="evenodd" clip-rule="evenodd" d="M89.4036 38.808L100.663 38.8054C100.663 38.8054 101.796 36.6973 101.924 32.87V32.5223C101.796 28.695 100.663 26.5869 100.663 26.5869H94.429L87.6768 30.0134C87.6543 30.1516 87.6311 30.2923 87.6108 30.4391L89.4036 38.808ZM90.5835 32.5987C90.6532 30.4958 91.2952 29.3362 91.2952 29.3362H98.0617C98.0617 29.3362 98.7007 30.4967 98.7734 32.5987V32.7927C98.7007 34.8957 98.0617 36.0553 98.0617 36.0553H91.2952C91.2952 36.0553 90.6532 34.8948 90.5835 32.7927V32.5987Z" fill="white"/>
<path fill-rule="evenodd" clip-rule="evenodd" d="M35.896 32.5213V32.869C36.0224 36.6964 37.1533 38.8044 37.1533 38.8044H49.1266C49.1266 38.8044 50.2576 36.6964 50.3875 32.869V32.5213C50.2576 28.694 49.1266 26.5859 49.1266 26.5859H37.1533C37.1533 26.5859 36.0224 28.694 35.896 32.5213ZM39.0447 32.5986C39.1185 30.4957 39.7568 29.3361 39.7568 29.3361H46.524C46.524 29.3361 47.1624 30.4966 47.2361 32.5986V32.7926C47.1624 34.8955 46.524 36.0552 46.524 36.0552H39.7568C39.7568 36.0552 39.1185 34.8947 39.0447 32.7926V32.5986Z" fill="white"/>
<path fill-rule="evenodd" clip-rule="evenodd" d="M51.0863 26.5864L54.2376 25.0586V38.8049H51.0863V26.5864Z" fill="white"/>
<path fill-rule="evenodd" clip-rule="evenodd" d="M16.8491 26.5859V34.6569L9.35833 26.5859H5.89352V38.8044H9.04488L9.04226 30.5952L16.6067 38.8044H20.0013V26.5859H16.8491Z" fill="white"/>
<path fill-rule="evenodd" clip-rule="evenodd" d="M20.7029 32.5215V32.8692C20.8293 36.6965 21.9603 38.8046 21.9603 38.8046H33.9344C33.9344 38.8046 35.0644 36.6965 35.1944 32.8692V32.5215C35.1777 32.0434 35.147 31.5936 35.104 31.1679H29.2078L27.0039 34.2235H31.8964C31.6848 35.4149 31.331 36.0553 31.331 36.0553H24.5637C24.5637 36.0553 23.9254 34.8948 23.8516 32.7927V32.5987C23.9254 30.4958 24.5637 29.3362 24.5637 29.3362H34.8221C34.4463 27.5431 33.9353 26.5869 33.9353 26.5869H21.9603C21.9603 26.5861 20.8293 28.6941 20.7029 32.5215Z" fill="white"/>
<path fill-rule="evenodd" clip-rule="evenodd" d="M55.8121 32.5213V32.869C55.8297 33.3471 55.8604 33.8003 55.9052 34.2226H67.3981L69.3737 31.1669H59.1109C59.3226 29.9756 59.6764 29.3352 59.6764 29.3352H69.2139L66.6078 26.5859H57.073C57.073 26.5859 55.943 28.694 55.8121 32.5213ZM66.1381 36.0552H56.5023C56.8754 37.8491 57.39 38.8044 57.39 38.8044L64.2511 38.807L66.1381 36.0552Z" fill="white"/>
<path fill-rule="evenodd" clip-rule="evenodd" d="M5.89352 42.6818V40.2441H6.38524V41.2089H7.3151V40.2441H7.80681V41.2089H7.3151V41.7196H7.80681V42.6818H7.3151V41.7196H6.38524V42.6818H5.89352Z" fill="white"/>
<path fill-rule="evenodd" clip-rule="evenodd" d="M10.3479 40.2441H12.2621V42.6818H11.7704V40.7008H10.8405V42.6818H10.3479V40.2441Z" fill="white"/>
<path fill-rule="evenodd" clip-rule="evenodd" d="M16.2248 42.1736V40.7008H15.2414V42.1736H16.2248ZM16.663 40.2441V42.681H14.8032V40.2441H16.663Z" fill="white"/>
<path fill-rule="evenodd" clip-rule="evenodd" d="M22.8954 42.6818H19.5605V40.2441H20.0522V42.1736H20.9821V40.2441H21.4738V42.1736H22.4045V40.2441H22.8954V42.6818Z" fill="white"/>
<path fill-rule="evenodd" clip-rule="evenodd" d="M30.8217 40.7008H29.4002V41.2089H30.33V41.7196H29.4002V42.1736H30.8217V42.6818H28.9084V40.2441H30.8217V40.7008Z" fill="white"/>
<path fill-rule="evenodd" clip-rule="evenodd" d="M33.4453 42.6818V42.1736H33.0072V40.2441H33.4453V42.1736H34.4288V40.2441H34.867V42.1736H34.4288V42.6818H33.4453Z" fill="white"/>
<path fill-rule="evenodd" clip-rule="evenodd" d="M39.3221 40.7008H37.8997V41.2089H38.8296V41.7196H37.8997V42.1736H39.3221V42.6818H37.408V40.2441H39.3221V40.7008Z" fill="white"/>
<path fill-rule="evenodd" clip-rule="evenodd" d="M43.7766 42.681H43.2849V41.7197H42.355V42.681H41.8633V40.2441H43.7766V41.2081H43.2849V41.7197H43.7766V42.681ZM43.284 41.2081V40.7H42.3542V41.2081H43.284Z" fill="white"/>
<path fill-rule="evenodd" clip-rule="evenodd" d="M47.7391 40.2441H48.1773V42.6818H46.3202V42.1736H47.7391V41.7196H46.3202V40.2441H46.7557V41.2089H47.7391V40.2441Z" fill="white"/>
<path fill-rule="evenodd" clip-rule="evenodd" d="M52.1403 40.2441V40.7008H51.703V42.6818H51.2113V40.7008H50.7187V40.2441H52.1403Z" fill="white"/>
<path fill-rule="evenodd" clip-rule="evenodd" d="M56.1038 40.2441H56.5955V42.6818H56.1038V41.7196H55.1766V42.6818H54.684V40.2441H55.1766V41.2089H56.1038V40.2441Z" fill="white"/>
<path d="M59.5746 40.2441H59.139V42.681H59.5746V40.2441Z" fill="white"/>
<path fill-rule="evenodd" clip-rule="evenodd" d="M62.4748 40.2441H64.3855V42.6818H63.8937V40.7008H62.9665V42.6818H62.4748V40.2441Z" fill="white"/>
<path fill-rule="evenodd" clip-rule="evenodd" d="M67.4218 42.1736H68.3516V41.7196H67.8573V41.2089H68.8434V42.6818H66.9292V40.2441H68.8434V40.7008H67.4218V42.1736Z" fill="white"/>
<path fill-rule="evenodd" clip-rule="evenodd" d="M90.5349 50.6891L86.2691 29.4537L114.719 14.8345L83.3751 18.1502L81.2887 6.47852L74.4147 19.0978L62.1156 20.3854L90.5349 50.6891ZM63.6988 22.0711L85.9762 45.8257L80.9321 18.661C80.4316 15.782 78.7977 17.9648 78.7977 17.9648L72.3986 26.3208L64.2185 22.1424L63.6988 22.0711Z" fill="white"/>
<path fill-rule="evenodd" clip-rule="evenodd" d="M65.7141 24.1405L71.5321 30.2811L65.6412 38.8551H69.1974L73.4797 32.3342L84.2171 43.6703L79.5169 19.1836L73.0696 28.0399L65.7141 24.1405ZM77.7331 25.8564V30.8459L75.3359 29.506L77.7331 25.8564Z" fill="white"/>
<path fill-rule="evenodd" clip-rule="evenodd" d="M43.0977 23.3418C43.0977 23.3418 42.2276 24.716 41.238 25.1658C40.252 25.6155 38.9147 26.0782 38.9147 26.0782H43.0977H47.2844C47.2844 26.0782 45.9471 25.6164 44.961 25.1658C43.9714 24.716 43.0977 23.3418 43.0977 23.3418Z" fill="white"/>
<path fill-rule="evenodd" clip-rule="evenodd" d="M89.4846 39.8636L101.01 39.8609C101.01 39.8609 102.17 37.6909 102.301 33.751V33.3931C102.17 29.4533 101.01 27.2832 101.01 27.2832H94.6288L87.717 30.8105C87.694 30.9527 87.6702 31.0976 87.6495 31.2487L89.4846 39.8636ZM90.6924 33.4718C90.7638 31.307 91.421 30.1133 91.421 30.1133H98.3474C98.3474 30.1133 99.0015 31.3079 99.0759 33.4718V33.6715C99.0015 35.8363 98.3474 37.03 98.3474 37.03H91.421C91.421 37.03 90.7638 35.8354 90.6924 33.6715V33.4718Z" fill="#8CB625"/>
<path fill-rule="evenodd" clip-rule="evenodd" d="M34.712 33.3931V33.751C34.8414 37.6909 35.9991 39.8609 35.9991 39.8609H48.2554C48.2554 39.8609 49.4131 37.6909 49.5461 33.751V33.3931C49.4131 29.4533 48.2554 27.2832 48.2554 27.2832H35.9991C35.9991 27.2832 34.8414 29.4533 34.712 33.3931ZM37.9351 33.4727C38.0106 31.3079 38.6641 30.1142 38.6641 30.1142H45.5913C45.5913 30.1142 46.2447 31.3088 46.3202 33.4727V33.6723C46.2447 35.8371 45.5913 37.0309 45.5913 37.0309H38.6641C38.6641 37.0309 38.0106 35.8363 37.9351 33.6723V33.4727Z" fill="#8CB625"/>
<path fill-rule="evenodd" clip-rule="evenodd" d="M50.2614 27.2827L53.4873 25.71V39.8604H50.2614V27.2827Z" fill="#8CB625"/>
<path fill-rule="evenodd" clip-rule="evenodd" d="M15.2146 27.2832V35.5915L7.54672 27.2832H4V39.8609H7.22586L7.22318 31.4104L14.9665 39.8609H18.4413V27.2832H15.2146Z" fill="#8CB625"/>
<path fill-rule="evenodd" clip-rule="evenodd" d="M19.1595 33.3923V33.7502C19.289 37.69 20.4466 39.8601 20.4466 39.8601H32.7038C32.7038 39.8601 33.8606 37.69 33.9937 33.7502V33.3923C33.9766 32.9001 33.9451 32.4371 33.9011 31.9988H27.8655L25.6095 35.1444H30.6177C30.4011 36.3708 30.0389 37.0299 30.0389 37.0299H23.1116C23.1116 37.0299 22.4582 35.8354 22.3827 33.6715V33.4718C22.4582 31.307 23.1116 30.1133 23.1116 30.1133H33.6125C33.2279 28.2675 32.7048 27.2832 32.7048 27.2832H20.4466C20.4466 27.2824 19.289 29.4524 19.1595 33.3923Z" fill="#8CB625"/>
<path fill-rule="evenodd" clip-rule="evenodd" d="M55.0989 33.3931V33.751C55.117 34.2432 55.1484 34.7097 55.1943 35.1445H66.9589L68.9812 31.9988H58.4758C58.6924 30.7725 59.0546 30.1133 59.0546 30.1133H68.8177L66.1499 27.2832H56.3897C56.3897 27.2832 55.2329 29.4533 55.0989 33.3931ZM65.6691 37.0309H55.8055C56.1874 38.8775 56.7141 39.8609 56.7141 39.8609L63.7375 39.8636L65.6691 37.0309Z" fill="#8CB625"/>
<path fill-rule="evenodd" clip-rule="evenodd" d="M4 43.8521V41.3428H4.50334V42.3359H5.45518V41.3428H5.95852V42.3359H5.45518V42.8616H5.95852V43.8521H5.45518V42.8616H4.50334V43.8521H4Z" fill="#8CB625"/>
<path fill-rule="evenodd" clip-rule="evenodd" d="M8.55966 41.3428H10.5191V43.8521H10.0157V41.8128H9.06388V43.8521H8.55966V41.3428Z" fill="#8CB625"/>
<path fill-rule="evenodd" clip-rule="evenodd" d="M14.5757 43.329V41.8128H13.569V43.329H14.5757ZM15.0242 41.3428V43.8512H13.1205V41.3428H15.0242Z" fill="#8CB625"/>
<path fill-rule="evenodd" clip-rule="evenodd" d="M21.4039 43.8521H17.9901V41.3428H18.4935V43.329H19.4454V41.3428H19.9487V43.329H20.9014V41.3428H21.4039V43.8521Z" fill="#8CB625"/>
<path fill-rule="evenodd" clip-rule="evenodd" d="M29.5176 41.8128H28.0624V42.3359H29.0143V42.8616H28.0624V43.329H29.5176V43.8521H27.5591V41.3428H29.5176V41.8128Z" fill="#8CB625"/>
<path fill-rule="evenodd" clip-rule="evenodd" d="M32.203 43.8521V43.329H31.7546V41.3428H32.203V43.329H33.2097V41.3428H33.6583V43.329H33.2097V43.8521H32.203Z" fill="#8CB625"/>
<path fill-rule="evenodd" clip-rule="evenodd" d="M38.2189 41.8128H36.7629V42.3359H37.7147V42.8616H36.7629V43.329H38.2189V43.8521H36.2596V41.3428H38.2189V41.8128Z" fill="#8CB625"/>
<path fill-rule="evenodd" clip-rule="evenodd" d="M42.7787 43.8512H42.2753V42.8617H41.3235V43.8512H40.8202V41.3428H42.7787V42.3351H42.2753V42.8617H42.7787V43.8512ZM42.2745 42.3351V41.812H41.3226V42.3351H42.2745Z" fill="#8CB625"/>
<path fill-rule="evenodd" clip-rule="evenodd" d="M46.835 41.3428H47.2835V43.8521H45.3825V43.329H46.835V42.8616H45.3825V41.3428H45.8283V42.3359H46.835V41.3428Z" fill="#8CB625"/>
<path fill-rule="evenodd" clip-rule="evenodd" d="M51.3402 41.3428V41.8128H50.8925V43.8521H50.3892V41.8128H49.8849V41.3428H51.3402Z" fill="#8CB625"/>
<path fill-rule="evenodd" clip-rule="evenodd" d="M55.3976 41.3428H55.9009V43.8521H55.3976V42.8616H54.4484V43.8521H53.9442V41.3428H54.4484V42.3359H55.3976V41.3428Z" fill="#8CB625"/>
<path d="M58.9502 41.3428H58.5043V43.8512H58.9502V41.3428Z" fill="#8CB625"/>
<path fill-rule="evenodd" clip-rule="evenodd" d="M61.9188 41.3428H63.8746V43.8521H63.3713V41.8128H62.4221V43.8521H61.9188V41.3428Z" fill="#8CB625"/>
<path fill-rule="evenodd" clip-rule="evenodd" d="M66.9831 43.329H67.935V42.8616H67.4289V42.3359H68.4383V43.8521H66.4789V41.3428H68.4383V41.8128H66.9831V43.329Z" fill="#8CB625"/>
<path fill-rule="evenodd" clip-rule="evenodd" d="M90.6426 52.0945L86.276 30.2347L115.399 15.1856L83.3135 18.5989L81.1778 6.58398L74.1413 19.5743L61.5515 20.8998L90.6426 52.0945ZM63.172 22.6351L85.9761 47.0881L80.8128 19.1246C80.3005 16.1611 78.6279 18.408 78.6279 18.408L72.0775 27.0097L63.7041 22.7084L63.172 22.6351Z" fill="url(#paint0_linear)"/>
<path fill-rule="evenodd" clip-rule="evenodd" d="M65.2348 24.7657L71.1903 31.0869L65.1602 39.913H68.8004L73.184 33.2004L84.1753 44.8698L79.3639 19.6631L72.7642 28.7798L65.2348 24.7657ZM77.538 26.5321V31.6683L75.0841 30.289L77.538 26.5321Z" fill="url(#paint1_linear)"/>
<path fill-rule="evenodd" clip-rule="evenodd" d="M42.084 23.9424C42.084 23.9424 41.1933 25.357 40.1803 25.82C39.1709 26.283 37.8021 26.7592 37.8021 26.7592H42.084H46.3696C46.3696 26.7592 45.0007 26.2839 43.9913 25.82C42.9783 25.357 42.084 23.9424 42.084 23.9424Z" fill="#8CB625"/>
<defs>
<linearGradient id="paint0_linear" x1="115.688" y1="26.5091" x2="64.9647" y2="17.7953" gradientUnits="userSpaceOnUse">
<stop stop-color="#26B4FC"/>
<stop offset="1" stop-color="#1676D5"/>
</linearGradient>
<linearGradient id="paint1_linear" x1="84.2774" y1="30.699" x2="66.0555" y2="28.7031" gradientUnits="userSpaceOnUse">
<stop stop-color="#26B4FC"/>
<stop offset="1" stop-color="#1676D5"/>
</linearGradient>
</defs>
</svg>
