<svg width="32" height="32" fill="none" xmlns="http://www.w3.org/2000/svg">
  <path d="M27.7746.249756H9.95755c-2.32393 0-4.22537 1.901434-4.22537 4.225374v1.43775H21.8491c2.324 0 4.2254 1.90144 4.2254 4.22542v10.5341h1.7001c2.3239 0 4.2253-1.9014 4.2253-4.2253V4.47513c0-2.324-1.9014-4.225374-4.2253-4.225374z" fill="url(#paint0_linear)"/>
  <path d="M22.0424 5.71973H4.22538C1.90144 5.71973 0 7.62116 0 9.9451V21.917c0 2.3239 1.90144 4.2254 4.22538 4.2254H14.9189c.4584 0 .8007.4266.6958.8728-.2836 1.2073-.7175 2.4841-1.359 3.7929-.2881.5878.3672 1.1854.9239.8409 1.6094-.9961 3.8993-2.6631 5.8277-5.0198.2535-.3098.6348-.4869 1.0351-.4869 2.3239 0 4.2253-1.9014 4.2253-4.2254V9.94504c0-2.32388-1.9014-4.22531-4.2253-4.22531z" fill="url(#paint1_linear)"/>
  <path d="M5.8572 17.6769c.77438 0 1.40213-.6277 1.40213-1.4021 0-.7744-.62775-1.4021-1.40213-1.4021-.77437 0-1.40212.6277-1.40212 1.4021 0 .7744.62775 1.4021 1.40212 1.4021zM10.386 17.6769c.7744 0 1.4021-.6277 1.4021-1.4021 0-.7744-.6277-1.4021-1.4021-1.4021-.77436 0-1.40211.6277-1.40211 1.4021 0 .7744.62775 1.4021 1.40211 1.4021zM14.9147 17.6769c.7744 0 1.4021-.6277 1.4021-1.4021 0-.7744-.6277-1.4021-1.4021-1.4021-.7744 0-1.4021.6277-1.4021 1.4021 0 .7744.6277 1.4021 1.4021 1.4021zM19.4434 17.6769c.7744 0 1.4021-.6277 1.4021-1.4021 0-.7744-.6277-1.4021-1.4021-1.4021-.7744 0-1.4021.6277-1.4021 1.4021 0 .7744.6277 1.4021 1.4021 1.4021z" fill="#fff"/>
  <defs>
    <linearGradient id="paint0_linear" x1="28.5437" y1="1.79079" x2="31.4775" y2="14.5368" gradientUnits="userSpaceOnUse">
      <stop offset=".0016226" stop-color="#BA68DA"/>
      <stop offset="1" stop-color="#653EA3"/>
    </linearGradient>
    <linearGradient id="paint1_linear" x1="10.1788" y1="31.7503" x2="10.1788" y2="5.71973" gradientUnits="userSpaceOnUse">
      <stop stop-color="#8442D7"/>
      <stop offset="1" stop-color="#AC8DEA"/>
    </linearGradient>
  </defs>
</svg>
