<!-- Generated by IcoMoon.io -->
<svg version="1.1" xmlns="http://www.w3.org/2000/svg" width="32" height="32" viewBox="0 0 32 32">
<title>l-pinterest</title>
<path d="M16 0c-8.8 0-16 7.2-16 16 0 6.8 4.267 12.533 10.133 14.933-0.133-1.2-0.267-3.2 0-4.533 0.267-1.2 1.867-8 1.867-8s-0.4-1.067-0.4-2.4c0-2.267 1.333-3.867 2.933-3.867 1.333 0 2 1.067 2 2.267 0 1.333-0.933 3.467-1.333 5.333-0.4 1.6 0.8 2.933 2.4 2.933 2.8 0 5.067-2.933 5.067-7.333 0-3.867-2.8-6.533-6.667-6.533-4.533 0-7.2 3.467-7.2 6.933 0 1.333 0.533 2.8 1.2 3.6 0.133 0.133 0.133 0.267 0.133 0.4-0.133 0.533-0.4 1.6-0.4 1.867-0.133 0.267-0.266 0.4-0.533 0.267-2-0.934-3.2-3.867-3.2-6.134 0-5.066 3.733-9.733 10.533-9.733 5.6 0 9.867 4 9.867 9.2 0 5.467-3.467 10-8.267 10-1.6 0-3.2-0.8-3.733-1.867 0 0-0.8 3.067-0.933 3.867-0.4 1.333-1.333 3.067-2 4.133 1.333 0.4 2.933 0.667 4.533 0.667 8.8 0 16-7.2 16-16s-7.2-16-16-16z"></path>
</svg>
