<!-- Generated by IcoMoon.io -->
<svg version="1.1" xmlns="http://www.w3.org/2000/svg" width="32" height="32" viewBox="0 0 32 32">
<title>media-1</title>
<path d="M19.186 30.39c0.222 0.172 0.505 0.276 0.812 0.276 0.737 0 1.334-0.597 1.334-1.334v-5.906l8.49 6.938c0.228 0.189 0.524 0.303 0.846 0.303 0.736 0 1.332-0.596 1.332-1.332 0-0 0-0.001 0-0.001v0-26.668c0-0.001 0-0.002 0-0.003 0-0.736-0.596-1.332-1.332-1.332-0.322 0-0.618 0.114-0.848 0.305l0.002-0.002-8.49 6.938v-5.906c0-0.001 0-0.002 0-0.004 0-0.736-0.596-1.332-1.332-1.332-0.308 0-0.591 0.104-0.817 0.28l0.003-0.002-17.332 13.334c-0.318 0.246-0.521 0.628-0.521 1.058s0.203 0.812 0.518 1.056l0.003 0.002 17.332 13.332z"></path>
</svg>
