<!-- Generated by IcoMoon.io -->
<svg version="1.1" xmlns="http://www.w3.org/2000/svg" width="32" height="32" viewBox="0 0 32 32">
<title>ns-arrow</title>
<path d="M26.324 16.152c-1.575 0.813-3.264 1.778-5.066 2.895-1.804 1.118-3.594 2.362-5.372 3.733-1.779 1.372-3.518 2.832-5.219 4.381-1.703 1.551-3.264 3.163-4.686 4.839h-0.305c1.016-3.352 2.158-6.387 3.429-9.105 1.269-2.717 2.564-5.016 3.886-6.895-1.321-1.879-2.617-4.177-3.886-6.895-1.271-2.717-2.413-5.753-3.429-9.105h0.305c1.422 1.676 2.983 3.289 4.686 4.838 1.701 1.55 3.44 3.010 5.219 4.381 1.777 1.372 3.568 2.617 5.372 3.733 1.802 1.118 3.492 2.083 5.066 2.895v0.305z"></path>
</svg>
