<!-- Generated by IcoMoon.io -->
<svg version="1.1" xmlns="http://www.w3.org/2000/svg" width="32" height="32" viewBox="0 0 32 32">
<title>ns-comment</title>
<path d="M16 0c-8.802 0-16 6-16 13.4 0 3.666 1.798 7 4.666 9.466v9.134l7.4-5.6c1.266 0.266 2.6 0.399 3.934 0.399 8.864 0 16-6 16-13.399 0-7.4-7.136-13.4-16-13.4zM23.896 11.97l-3.11 3.582 0.412 4.752c0.002 0.016 0.002 0.034 0.002 0.053 0 0.322-0.261 0.583-0.583 0.583-0.1 0-0.194-0.025-0.277-0.070l0.003 0.002-4.346-1.844-4.395 1.859c-0.068 0.030-0.147 0.048-0.231 0.048-0.237 0-0.441-0.143-0.53-0.348l-0.001-0.004c-0.031-0.068-0.048-0.146-0.048-0.23 0-0.018 0.001-0.037 0.003-0.055l-0 0.002 0.412-4.754-3.121-3.597c-0.088-0.101-0.141-0.234-0.141-0.379 0-0.177 0.079-0.336 0.204-0.442l0.001-0.001c0.067-0.060 0.149-0.104 0.24-0.125l0.004-0.001 4.644-1.074 2.458-4.084c0.104-0.172 0.29-0.285 0.502-0.285s0.398 0.113 0.501 0.282l0.001 0.003 2.452 4.078 4.649 1.090c0.26 0.062 0.451 0.293 0.451 0.568 0 0.043-0.005 0.084-0.013 0.124l0.001-0.004c-0.023 0.106-0.073 0.198-0.143 0.27l0-0z"></path>
</svg>
