<!-- Generated by IcoMoon.io -->
<svg version="1.1" xmlns="http://www.w3.org/2000/svg" width="32" height="32" viewBox="0 0 32 32">
<title>ns-play</title>
<path fill="#111" opacity="0.7" d="M28.39 7.813l-10.28-5.935c-0.134-0.078-0.268-0.16-0.401-0.243-0.247-0.152-0.495-0.307-0.752-0.426-0.264-0.133-0.575-0.213-0.904-0.218l-0.002-0c-0.502 0-0.983 0.207-1.566 0.542l-10.875 6.28c-0.537 0.323-0.891 0.901-0.895 1.562v13.25c0 0.636 0.351 1.249 0.895 1.562l10.28 5.935c0.134 0.078 0.268 0.16 0.401 0.243 0.247 0.152 0.495 0.307 0.752 0.426 0.89 0.412 1.556 0.204 2.472-0.325l10.875-6.278c0.403-0.232 0.67-0.545 0.794-0.929 0.073-0.24 0.101-0.433 0.101-0.634v-13.249c-0.004-0.662-0.358-1.24-0.887-1.558l-0.008-0.005z"></path>
<path fill="#fff" d="M28.886 6.954l-10.28-5.935c-0.125-0.072-0.25-0.15-0.376-0.228-0.238-0.156-0.518-0.317-0.808-0.46l-0.048-0.022c-1.409-0.652-2.485-0.153-3.385 0.366l-10.875 6.279c-0.838 0.494-1.391 1.392-1.391 2.42 0 0.001 0 0.002 0 0.002v-0 13.249c0 0.001 0 0.002 0 0.002 0 1.027 0.553 1.925 1.378 2.413l0.013 0.007 10.28 5.935c0.125 0.072 0.25 0.15 0.376 0.228 0.28 0.173 0.564 0.347 0.856 0.482 0.479 0.222 0.919 0.31 1.328 0.31 0.792 0 1.463-0.334 2.057-0.676l10.875-6.278c0.602-0.34 1.053-0.887 1.261-1.543l0.005-0.019c0.083-0.272 0.125-0.562 0.125-0.86v-13.25c0-0.001 0-0.002 0-0.002 0-1.027-0.553-1.925-1.378-2.413l-0.013-0.007zM29.285 22.625c0 0.201-0.027 0.394-0.101 0.634-0.124 0.384-0.391 0.696-0.794 0.929l-10.875 6.278c-0.916 0.529-1.582 0.737-2.472 0.325-0.258-0.119-0.506-0.274-0.752-0.426-0.049-0.034-0.18-0.115-0.312-0.194l-0.089-0.049-10.28-5.935c-0.537-0.323-0.891-0.901-0.895-1.561v-13.25c0-0.636 0.351-1.249 0.895-1.562l10.875-6.279c0.583-0.336 1.064-0.542 1.566-0.542 0.288 0 0.582 0.067 0.906 0.218 0.258 0.119 0.506 0.273 0.752 0.426 0.134 0.083 0.268 0.165 0.401 0.243l10.28 5.935c0.543 0.313 0.895 0.927 0.895 1.562v13.248z"></path>
<path fill="#fff" d="M21.481 16.036c-0.001 0.206-0.079 0.393-0.208 0.535l0.001-0.001c-0.071 0.087-4.606 3.328-6.784 4.888-0.513 0.368-1.219-0.128-1.219-0.699v-9.519c0-0.571 0.705-1.067 1.219-0.699 2.177 1.56 6.713 4.801 6.784 4.889 0.129 0.141 0.209 0.33 0.209 0.538 0 0.010-0 0.021-0.001 0.031l0-0.001c0 0.004 0 0.009 0 0.013 0 0.009-0 0.018-0.001 0.027l0-0.001z"></path>
</svg>
