<!-- Generated by IcoMoon.io -->
<svg version="1.1" xmlns="http://www.w3.org/2000/svg" width="32" height="32" viewBox="0 0 32 32">
<title>ns-shop</title>
<path d="M20.985 9.061c-0.783 0-1.417-0.634-1.417-1.417 0-3.19-0.553-4.811-3.57-4.811-3.030 0-3.564 1.552-3.564 4.811 0 0.783-0.634 1.417-1.417 1.417s-1.417-0.633-1.417-1.416c0-2.091 0-7.645 6.397-7.645 6.404 0 6.404 5.554 6.404 7.645 0.001 0.783-0.633 1.416-1.416 1.416z"></path>
<path d="M28.050 10.541c-0.067-0.536-0.542-0.962-1.065-0.962h-21.969c-0.523 0-0.998 0.426-1.071 0.962l-3.927 19.842c-0.116 0.881 0.351 1.617 1.039 1.617h29.887c0.686 0 1.149-0.736 1.040-1.617l-3.934-19.842zM10.398 14.567c-1.034 0-1.866-0.839-1.866-1.874 0-1.028 0.833-1.866 1.866-1.866 1.027 0 1.866 0.839 1.866 1.866 0 1.035-0.839 1.874-1.866 1.874v0zM21.604 14.567c-1.034 0-1.866-0.839-1.866-1.874 0-1.028 0.839-1.866 1.866-1.866s1.867 0.839 1.867 1.866c0 1.035-0.833 1.874-1.867 1.874v0z"></path>
</svg>
