<!-- Generated by IcoMoon.io -->
<svg version="1.1" xmlns="http://www.w3.org/2000/svg" width="32" height="32" viewBox="0 0 32 32">
<title>ns-wedding-3</title>
<path d="M25.602 10.718c-1.148 0-2.078 0.93-2.078 2.078 0 1.158 0.93 2.080 2.078 2.080s2.078-0.922 2.078-2.080c0-1.148-0.93-2.078-2.078-2.078z"></path>
<path d="M27.204 6.398h-2.54l-1.602-1.602c-0.93-0.92-2.554-1.592-3.858-1.592h-6.408c-1.304 0-2.928 0.672-3.858 1.592l-1.602 1.602h-2.54c-2.64 0-4.796 2.156-4.796 4.806v12.796c0 2.648 2.156 4.796 4.796 4.796h22.408c2.64 0 4.796-2.148 4.796-4.796v-12.796c0-2.65-2.156-4.806-4.796-4.806zM20.875 17.613l-4.111 4.11c-0.219 0.219-0.506 0.329-0.793 0.329s-0.575-0.11-0.793-0.329l-4.095-4.095c-0.596-0.558-0.929-1.429-0.914-2.395 0.014-0.94 0.352-1.769 0.927-2.283 0.616-0.602 1.427-0.932 2.289-0.932 0.876 0 1.699 0.341 2.318 0.96l0.269 0.269 0.269-0.269c1.278-1.278 3.357-1.278 4.635 0 1.276 1.277 1.276 3.356-0.001 4.635zM25.602 14.876c-1.148 0-2.078-0.922-2.078-2.080 0-1.148 0.93-2.078 2.078-2.078s2.078 0.93 2.078 2.078c0 1.158-0.93 2.080-2.078 2.080z"></path>
</svg>
