<!-- Generated by IcoMoon.io -->
<svg version="1.1" xmlns="http://www.w3.org/2000/svg" width="32" height="32" viewBox="0 0 32 32">
<title>ns-wedding-2</title>
<path d="M25.36 3.177v-3.177h-1.959v3.177h-2.25v-3.177h-1.959v3.177h-2.25v-3.177h-1.959v3.177h-2.25v-3.177h-1.959v3.177h-2.25v-3.177h-1.961v3.177h-4.227v23.95c0 2.687 2.185 4.873 4.872 4.873h17.583c2.687 0 4.873-2.186 4.873-4.873v-23.95h-4.304zM27.705 9.861h-23.411v-4.725h2.269v1.7h1.959v-1.7h2.25v1.7h1.959v-1.7h2.25v1.7h1.959v-1.7h2.25v1.7h1.959v-1.7h2.25v1.7h1.959v-1.7h2.345v4.725zM20.875 21.595l-4.111 4.111c-0.219 0.219-0.506 0.329-0.793 0.329s-0.574-0.11-0.793-0.329l-4.096-4.095c-0.596-0.558-0.929-1.429-0.914-2.395 0.015-0.94 0.352-1.769 0.927-2.283 0.615-0.602 1.427-0.933 2.289-0.933 0.876 0 1.699 0.341 2.318 0.96l0.269 0.269 0.269-0.269c1.278-1.278 3.357-1.278 4.635 0 1.277 1.278 1.277 3.357 0 4.635v0z"></path>
</svg>
