<!-- Generated by IcoMoon.io -->
<svg version="1.1" xmlns="http://www.w3.org/2000/svg" width="32" height="32" viewBox="0 0 32 32">
<title>search-2</title>
<path d="M1.333 13.333h9.333c0.736 0 1.333-0.597 1.333-1.333v0c0-0.736-0.597-1.333-1.333-1.333h-9.333c-0.737 0-1.333 0.597-1.333 1.333s0.596 1.333 1.333 1.333z"></path>
<path d="M1.333 21.333h9.333c0.736 0 1.333-0.597 1.333-1.333v0c0-0.736-0.597-1.333-1.333-1.333h-9.333c-0.737 0-1.333 0.597-1.333 1.333s0.596 1.333 1.333 1.333z"></path>
<path d="M21.333 26.667h-20c-0.737 0-1.333 0.597-1.333 1.333s0.596 1.333 1.333 1.333h20c0.737 0 1.333-0.597 1.333-1.333s-0.596-1.333-1.333-1.333z"></path>
<path d="M1.333 5.333h20c0.737 0 1.333-0.597 1.333-1.333s-0.596-1.333-1.333-1.333h-20c-0.737 0-1.333 0.597-1.333 1.333s0.596 1.333 1.333 1.333z"></path>
<path d="M31.609 24.391l-4.72-4.72c0.699-1.055 1.111-2.315 1.111-3.671 0-3.676-2.991-6.667-6.667-6.667s-6.667 2.991-6.667 6.667 2.991 6.667 6.667 6.667c1.356 0 2.616-0.412 3.671-1.111l4.72 4.72c0.26 0.26 0.601 0.391 0.943 0.391s0.683-0.131 0.943-0.391c0.521-0.521 0.521-1.364 0-1.885zM21.333 20c-2.209 0-4-1.791-4-4s1.791-4 4-4 4 1.791 4 4-1.791 4-4 4z"></path>
</svg>
