<!-- Generated by IcoMoon.io -->
<svg version="1.1" xmlns="http://www.w3.org/2000/svg" width="32" height="32" viewBox="0 0 32 32">
<title>shape-star</title>
<path d="M30.288 10.878l-8.634-1.256-3.854-7.822c-0.367-0.624-1.036-1.036-1.8-1.036s-1.433 0.412-1.795 1.026l-0.005 0.010-3.854 7.824-8.634 1.254c-0.976 0.144-1.716 0.975-1.716 1.98 0 0.561 0.231 1.069 0.604 1.432l0 0 6.246 6.090-1.474 8.6c-0.018 0.102-0.029 0.218-0.029 0.338 0 1.105 0.895 2 2 2 0.34 0 0.661-0.085 0.941-0.235l-0.011 0.005 7.726-4.062 7.722 4.058c0.27 0.145 0.59 0.23 0.931 0.23 1.105 0 2-0.895 2-2 0-0.119-0.010-0.236-0.030-0.35l0.002 0.012-1.474-8.6 6.25-6.086c0.372-0.364 0.603-0.87 0.603-1.431 0-1.003-0.738-1.833-1.7-1.978l-0.011-0.001z"></path>
</svg>
