<svg width="36" height="36" viewBox="0 0 36 36" fill="none" xmlns="http://www.w3.org/2000/svg">
<circle cx="18" cy="18" r="18" fill="url(#paint0_linear)"/>
<path d="M25.5946 17.5714H23.973V13.7143C23.973 12.5327 23.0641 11.5714 21.9464 11.5714H19.5135V6.85714H19.9189C20.0264 6.85714 20.1296 6.81199 20.2056 6.73162C20.2816 6.65124 20.3243 6.54224 20.3243 6.42857C20.3243 6.31491 20.2816 6.2059 20.2056 6.12553C20.1296 6.04515 20.0264 6 19.9189 6H15.0541C14.9465 6 14.8434 6.04515 14.7674 6.12553C14.6914 6.2059 14.6486 6.31491 14.6486 6.42857C14.6486 6.54224 14.6914 6.65124 14.7674 6.73162C14.8434 6.81199 14.9465 6.85714 15.0541 6.85714H15.4595V11.5714H13.0266C12.4893 11.5721 11.9741 11.7981 11.5942 12.1998C11.2142 12.6016 11.0005 13.1462 11 13.7143V27.4286C11 28.6101 11.9089 29.5714 13.0266 29.5714H14.2432C14.2432 29.6851 14.286 29.7941 14.362 29.8745C14.438 29.9548 14.5411 30 14.6486 30C14.7562 30 14.8593 29.9548 14.9353 29.8745C15.0113 29.7941 15.0541 29.6851 15.0541 29.5714H19.5135C19.5135 29.6851 19.5562 29.7941 19.6323 29.8745C19.7083 29.9548 19.8114 30 19.9189 30C20.0264 30 20.1296 29.9548 20.2056 29.8745C20.2816 29.7941 20.3243 29.6851 20.3243 29.5714H21.9464C22.4837 29.5707 22.9989 29.3448 23.3788 28.943C23.7588 28.5413 23.9724 27.9966 23.973 27.4286V22.2857H25.5946C25.7021 22.2857 25.8052 22.2406 25.8813 22.1602C25.9573 22.0798 26 21.9708 26 21.8571V18C26 17.8863 25.9573 17.7773 25.8813 17.697C25.8052 17.6166 25.7021 17.5714 25.5946 17.5714ZM16.2703 6.85714H18.7027V11.5714H16.2703V6.85714ZM25.1892 21.4286H23.973V18.4286H25.1892V21.4286Z" fill="white"/>
<path d="M13.0264 28.7142C12.704 28.7137 12.3949 28.5781 12.167 28.3371C11.9391 28.096 11.8109 27.7693 11.8105 27.4285V13.7142C11.8105 13.0053 12.3562 12.4285 13.0264 12.4285H21.9461C22.2685 12.4289 22.5775 12.5645 22.8055 12.8056C23.0334 13.0466 23.1616 13.3734 23.1619 13.7142V27.4285C23.1619 28.1373 22.6162 28.7142 21.9461 28.7142H13.0264Z" fill="#F2C94C"/>
<path d="M20.3271 19.2856H14.6465C14.2169 19.2864 13.8051 19.4674 13.5016 19.7888C13.198 20.1102 13.0275 20.5458 13.0273 20.9999V25.7142C13.0273 26.6596 13.7538 27.4285 14.6465 27.4285C14.7541 27.4285 14.8572 27.3833 14.9332 27.303C15.0092 27.2226 15.0519 27.1136 15.0519 26.9999C15.0519 26.8863 15.0092 26.7773 14.9332 26.6969C14.8572 26.6165 14.7541 26.5714 14.6465 26.5714C14.4319 26.5707 14.2263 26.4801 14.0748 26.3194C13.9232 26.1587 13.8382 25.9411 13.8382 25.7142V20.9999C13.8382 20.773 13.9232 20.5554 14.0748 20.3947C14.2263 20.2341 14.4319 20.1435 14.6465 20.1428H20.3271C20.5417 20.1435 20.7473 20.2341 20.8988 20.3947C21.0504 20.5554 21.1355 20.773 21.1355 20.9999V25.7142C21.1355 25.9411 21.0504 26.1587 20.8988 26.3194C20.7473 26.4801 20.5417 26.5707 20.3271 26.5714C20.2196 26.5714 20.1164 26.6165 20.0404 26.6969C19.9644 26.7773 19.9217 26.8863 19.9217 26.9999C19.9217 27.1136 19.9644 27.2226 20.0404 27.303C20.1164 27.3833 20.2196 27.4285 20.3271 27.4285C20.7567 27.4277 21.1685 27.2468 21.472 26.9254C21.7756 26.604 21.9462 26.1684 21.9463 25.7142V20.9999C21.9463 20.0545 21.2198 19.2856 20.3271 19.2856Z" fill="white"/>
<path d="M19.5132 20.5715H15.4591C15.3516 20.5715 15.2485 20.6167 15.1725 20.6971C15.0964 20.7774 15.0537 20.8864 15.0537 21.0001C15.0537 21.1138 15.0964 21.2228 15.1725 21.3032C15.2485 21.3835 15.3516 21.4287 15.4591 21.4287H19.5132C19.6207 21.4287 19.7238 21.3835 19.7998 21.3032C19.8759 21.2228 19.9186 21.1138 19.9186 21.0001C19.9186 20.8864 19.8759 20.7774 19.7998 20.6971C19.7238 20.6167 19.6207 20.5715 19.5132 20.5715Z" fill="white"/>
<defs>
<linearGradient id="paint0_linear" x1="-13.4094" y1="49.6194" x2="41.1508" y2="-15.3339" gradientUnits="userSpaceOnUse">
<stop stop-color="#F2709C"/>
<stop offset="1" stop-color="#FF9472"/>
</linearGradient>
</defs>
</svg>
