<svg width="36" height="36" viewBox="0 0 36 36" fill="none" xmlns="http://www.w3.org/2000/svg">
<circle cx="18" cy="18" r="18" fill="url(#paint0_linear)"/>
<path d="M27.6842 17.4389H26.7368V16.3478C26.7368 16.2641 26.7036 16.1838 26.6443 16.1245C26.5851 16.0653 26.5048 16.032 26.4211 16.032H24.034L16.0941 8.09246C16.0349 8.03326 15.9546 8 15.8708 8C15.7871 8 15.7068 8.03326 15.6476 8.09246L14.7589 8.98046L14.0898 8.31035C14.0605 8.28099 14.0256 8.2577 13.9873 8.24181C13.949 8.22592 13.9079 8.21774 13.8664 8.21774C13.8249 8.21774 13.7838 8.22592 13.7454 8.24181C13.7071 8.2577 13.6723 8.28099 13.6429 8.31035L10.9758 10.9778C10.9166 11.037 10.8833 11.1174 10.8833 11.2011C10.8833 11.2848 10.9166 11.3651 10.9758 11.4244L11.6453 12.0945L10.7573 12.9825C10.6981 13.0417 10.6648 13.122 10.6648 13.2057C10.6648 13.2895 10.6981 13.3698 10.7573 13.429L13.3606 16.0324H11.5789C11.4952 16.0324 11.4149 16.0656 11.3557 16.1248C11.2964 16.1841 11.2632 16.2644 11.2632 16.3481V17.4392H10.3158C10.232 17.4392 10.1517 17.4725 10.0925 17.5317C10.0333 17.5909 10 17.6712 10 17.755V21.8887C10 21.9724 10.0333 22.0527 10.0925 22.112C10.1517 22.1712 10.232 22.2045 10.3158 22.2045H11.2632V23.2955C11.2632 23.3793 11.2964 23.4596 11.3557 23.5188C11.4149 23.578 11.4952 23.6113 11.5789 23.6113H26.4211C26.5048 23.6113 26.5851 23.578 26.6443 23.5188C26.7036 23.4596 26.7368 23.3793 26.7368 23.2955V22.2048H27.6842C27.768 22.2048 27.8483 22.1715 27.9075 22.1123C27.9667 22.0531 28 21.9727 28 21.889V17.7547C28 17.6709 27.9667 17.5906 27.9075 17.5314C27.8483 17.4721 27.768 17.4389 27.6842 17.4389Z" fill="white"/>
<path d="M12.3157 12.3179C12.3749 12.2587 12.4082 12.1784 12.4082 12.0947C12.4082 12.0109 12.3749 11.9306 12.3157 11.8714L11.6459 11.2013L13.8666 8.98066L14.5364 9.65077C14.5956 9.70997 14.6759 9.74323 14.7596 9.74323C14.8434 9.74323 14.9237 9.70997 14.9829 9.65077L15.8712 8.76245L17.7262 10.6174L13.3177 15.0258C13.3051 15.0384 13.2997 15.0542 13.2896 15.0678L11.4277 13.2062L12.3157 12.3182V12.3179Z" fill="#F2C94C"/>
<path d="M13.7227 15.4999C13.7362 15.4905 13.7523 15.4845 13.7647 15.4721L18.1731 11.0637L23.1417 16.0324H14.2548L13.7227 15.5002V15.4999Z" fill="#F2C94C"/>
<path d="M11.5782 21.5728H10.6309V18.0707H11.5782C11.662 18.0707 11.7423 18.0374 11.8015 17.9782C11.8607 17.9189 11.894 17.8386 11.894 17.7549V16.6638H14.4203V22.9796H11.894V21.8882C11.894 21.8045 11.8607 21.7242 11.8015 21.6649C11.7423 21.6057 11.662 21.5724 11.5782 21.5724V21.5728Z" fill="#F2C94C"/>
<path d="M27.3685 21.5724H26.4212C26.3374 21.5724 26.2571 21.6056 26.1979 21.6648C26.1386 21.7241 26.1054 21.8044 26.1054 21.8881V22.9789H15.0527V16.6631H26.1054V17.7545C26.1054 17.8382 26.1386 17.9185 26.1979 17.9778C26.2571 18.037 26.3374 18.0702 26.4212 18.0702H27.3685V21.5724Z" fill="#F2C94C"/>
<defs>
<linearGradient id="paint0_linear" x1="46.5" y1="57" x2="-1.68388" y2="13.0741" gradientUnits="userSpaceOnUse">
<stop stop-color="#F2709C"/>
<stop offset="1" stop-color="#FF9472"/>
</linearGradient>
</defs>
</svg>
