<svg xmlns="http://www.w3.org/2000/svg" viewBox="0 0 1065.041 581.447">
    <path id="prefix__Path_407" d="M96.589 126.984c2.021 0 2.273.758 4.294 0 1.768-.758 7.072-4.294 9.093-4.8 1.768-.505 3.031.253.253 1.768s-8.083 4.8-7.072 4.546 3.536-1.515 7.577-3.284c3.789-1.768 3.536-1.01 4.546-3.031l1.515-3.031s6.062 6.314 6.567 6.567.758 0 1.01-.758 1.01-1.768 1.768-1.515 0 1.768.758 2.021c.505.253 1.263 0 3.031-.505a1.151 1.151 0 0 0 .758-1.768s-.253 0 1.768-.253c1.768-.253 7.577 2.021 9.345 2.526 1.768.758 6.82 1.263 8.335 1.768s2.021-.758 4.041.253 3.536 2.526 2.021 3.284-5.3 1.263-3.284 1.768a32.385 32.385 0 0 0 7.577 1.01c2.778 0 7.83-1.01 9.345-1.01s2.526 1.01 4.041 3.536 2.526 3.536 3.284 3.536c.505.253-.505-1.263-.253-2.273a7.726 7.726 0 0 0-.758-4.294c-.253-.758 0-1.263-.758-2.273-.758-1.263-1.768-1.01.253-2.021s3.536-2.526 6.062-2.273 3.284 3.536 5.3 3.789c2.273.253 2.526 1.01 6.314 1.263s2.273 0 6.314.253 2.526-.505 3.536-2.526c.758-2.021 1.768-2.526 2.778-2.526s4.546.505 4.546 1.01-1.515 2.778-.758 3.789a24.042 24.042 0 0 0 3.789 3.031s-.758-2.526-.758-2.778-.253-2.273.253-2.526 2.778.253 4.546-2.778c1.515-3.031-1.01-2.778-1.01-2.778s-1.01 0-.505-1.263 3.284-2.021 3.284-2.021l-.253-.505c-.758-1.263-2.526-1.01-4.294-1.01-2.021 0-3.284-.505-3.536-2.021a63.291 63.291 0 0 1-.505-7.577c0-2.273 2.021-1.515 2.273-2.778s0-7.83-.505-9.093.758-4.294 1.01-6.062 2.273-1.01 2.273-1.01c-.253-.758.505-2.526 3.031-3.284s7.577 0 7.577 0-.505 0-1.515 1.515c-1.263 1.515-.505 4.294-2.273 6.314s-6.314 1.263-6.314 1.263 1.515 3.284.758 4.294a19.976 19.976 0 0 0-1.01 3.284s4.041 1.01 4.294 3.789c.253 2.526 2.273 3.031 2.778 5.3s-2.021 4.294-1.515 4.8a3.636 3.636 0 0 0 2.273.505 34.857 34.857 0 0 1 3.536.253 2.6 2.6 0 0 0 0 2.526c.758 1.263.253 2.021.253 3.536 0 1.263 1.01 2.526 1.263 2.273a21.9 21.9 0 0 0 2.273-5.3c.253-1.515.505-2.526 1.263-2.526s3.031 2.021 3.284 2.778.505 1.768-.758 3.789-1.263 3.031 0 3.789c1.01.758 1.263.505 3.284 1.515s1.515.758 2.778.505-.505-3.536-.505-3.536c.253 0 3.031-.505 2.273-2.021s-1.263-2.526 0-3.284 2.273-1.515 2.273-1.515a18.032 18.032 0 0 1-1.768-3.789c-1.01-2.778.758-2.021 4.546-1.768s3.789 1.515 5.809 2.526.758 1.263 1.263 3.031c.758 1.515-1.515 1.768-1.515 1.768s-1.515.253-1.263 1.515a16.8 16.8 0 0 0 2.021 4.546c1.01 2.021-.253 3.283-2.021 4.8a8.416 8.416 0 0 1-5.557 2.021c-2.021 0-2.778.758-3.031.253a1.963 1.963 0 0 0-2.273-.758c-1.01.253-3.536 1.263-2.778 1.515s3.031.253 2.273 2.021c-1.01 1.768-1.768 1.768-3.789 1.515a35.762 35.762 0 0 0-4.8-.253c-1.263 0-7.072-.505-7.072-.505a38.54 38.54 0 0 0 7.325 3.536 16.542 16.542 0 0 0 6.567.505s-1.263 2.526-2.778 5.052-3.031 1.515-4.294 1.515c-1.263.253-2.021 1.263-4.546 1.515s-7.577-.758-6.567-.253c.758.253 1.01 1.01 2.526 1.263a7.191 7.191 0 0 1 3.536 1.515c1.263 1.01-.758 1.263-2.273 1.515a3.426 3.426 0 0 0-2.778 1.515c-.758 1.01-3.536 4.8-4.294 6.062a19.873 19.873 0 0 0-2.021 5.557c-.253 2.273-2.273 5.3-1.515 5.809 1.01.505 4.294.758 5.809 1.515s3.031 5.3 4.041 6.82c1.01 1.768 2.021 2.778 3.031 1.515 1.263-1.263 3.536-1.01 5.809-.253s6.82 4.041 8.335 5.3c1.515 1.515 4.041 1.263 6.82 1.515 2.778.505 3.031 1.515 3.031 1.515s3.031.253 1.768 1.515-1.515 0-.253 2.021a8.219 8.219 0 0 1 .758 6.314c-.253 1.515 3.789.758 5.557 1.768s1.768 5.3 2.778 4.8 2.526-1.515 2.526-2.526a15.054 15.054 0 0 0-.253-4.546c-.253-2.021-.758-5.557-1.515-6.82-1.01-1.515 1.768-2.021 1.263-2.526s-.253-1.768 1.515-2.273 2.021 0 3.031-.758 1.263-4.294 1.263-5.557a11.2 11.2 0 0 0-.758-5.052c-.505-1.01-2.273-4.294-2.778-5.052-.758-.758-1.515-1.01.253-3.284s.758-1.768.505-2.526a25.773 25.773 0 0 1-1.01-3.789c-.253-1.515.758-3.283 0-5.3-.758-2.273-1.263-1.768-1.263-2.273.253-.505 4.294-.253 7.325 0a20.786 20.786 0 0 0 5.052-.253 8.4 8.4 0 0 1 4.041 2.021c1.768 1.01 2.273.758 3.284 2.021.758 1.263 1.263 2.021 3.031 2.021a12.807 12.807 0 0 1 3.789.758s-1.263.758-1.01 3.031a26.178 26.178 0 0 1-.253 5.052c0 1.01.505 1.01 1.263 1.01s3.031 2.021 5.3 2.778 2.778.505 3.536-1.263 1.01-1.768 1.768-1.768c1.01 0 1.263.253 1.515-.253.505-.505-.758-1.263-.505-2.526a9.887 9.887 0 0 1 2.526-4.041c1.01-1.01 1.768 1.01 2.778 2.778s4.041 7.577 5.052 9.345 2.021 2.021 1.01 3.789-1.515 2.526 0 3.284c1.768.758 3.284 2.273 3.031 3.536s-.505 1.263 0 1.768c.505.253 2.526-.758 4.041 0s3.284 1.263 4.294 2.273 1.01 1.515-.505 2.021a19.448 19.448 0 0 0-3.789 1.515c-.758.505-2.021 1.263-1.768 2.021 0 .758-.253 1.768.758 1.01a25.469 25.469 0 0 1 4.546-2.273c1.263-.505.253 0 1.516-.253s2.526.505 4.294 1.01 1.263 1.515.758 2.526a3.25 3.25 0 0 0-.253 3.031c.758 1.01-.253 2.021-1.768 3.536-1.516 1.263-2.526 1.515-5.052 1.768s-3.536 1.768-5.3 3.284-2.526 1.263-5.052 1.263-1.515-1.263-2.273-1.01a14.875 14.875 0 0 1-3.275 1.268c-1.515.253-7.072.253-9.093.758s-1.515 2.021-2.021 3.284-1.263.758-2.778 1.263-3.284 2.778-5.3 6.062a20.315 20.315 0 0 1-4.294 5.052c.505 0 3.031-1.768 4.294-3.284s6.567-5.052 8.083-6.314c1.515-1.01 5.052-2.778 5.809-2.526s2.778 1.768 2.778 2.526-.505 1.515-2.021 2.778-3.284 0-3.284.505a4.544 4.544 0 0 0 2.273 2.021c1.01.253 1.01 1.768 1.01 2.273s-.758 1.515 2.021 3.789a7.865 7.865 0 0 0 6.314 2.273c2.021 0 1.01.758 1.768.505.758 0 1.01-1.515 1.263-2.778a5.7 5.7 0 0 1 1.263-2.778c.758-.505 1.263-1.515 1.515.253a6.512 6.512 0 0 1-1.768 5.052c-1.01.505-.758 1.263-.758 1.768s-1.01.505-3.789 2.021-3.536 1.768-4.041 1.768c-.505-.253-1.515.253-2.778 1.515s-2.778 2.778-3.536 2.778c-1.01 0-1.768-.505-.505-1.768s1.768-3.284 3.031-3.789a4.556 4.556 0 0 1 3.031-.505c1.01 0 .505-.758 1.515-1.263.758-.758-.758-.505-2.021-.758-1.515-.253-.253-1.515-.253-1.515l-1.515.758a14.7 14.7 0 0 1-2.778 1.263c-.505 0-.505.505-.758.758a9.374 9.374 0 0 1-2.273.505s-1.01 2.273-2.778 2.526-.505.253-1.768.758-1.01-.505-1.263-.253a18.386 18.386 0 0 1-1.768 1.515c-1.263 1.01-2.021 1.263-3.031 5.052a7.834 7.834 0 0 0 .253 5.557c0 .505-1.768-.253-2.273 0a7.811 7.811 0 0 1-3.031 2.273c-1.515.505-4.294 1.01-4.8 1.768-.758.758-.758 1.768-1.01 3.031a24.332 24.332 0 0 1-2.021 4.8 2.015 2.015 0 0 0-.758-2.273c-1.263-1.01-1.01-1.768-1.01-1.768a5.949 5.949 0 0 0 .253 2.778c.505 1.263 1.263 2.778 1.01 4.294-.505 1.515-1.01 3.284-2.021 3.789s.253-1.01.253-2.273-.505-1.263-1.01-1.768-.505-2.021.253-4.294c.758-2.021-.758-.758-1.516.505a6.083 6.083 0 0 0-.253 5.557c1.263 1.768-.758 1.515 0 3.789s-1.01 3.536-.758 3.789 1.263-.253 1.768 1.01-.758.758-1.263 1.01-.253.758 0 1.515.758.253.505.505a3.393 3.393 0 0 1-2.021 1.263c-1.01.253-1.263-.253-2.021.505a22.09 22.09 0 0 0-2.021 2.526c-.758 1.01-1.263.505-2.021 1.263a15.236 15.236 0 0 1-2.021 2.021 24.184 24.184 0 0 0-4.294 3.536c-1.263 1.516-.758 2.021-1.515 4.546-.505 2.526 1.515 6.82 2.778 11.113s1.768 3.031 1.515 4.294a8.554 8.554 0 0 1-1.515 3.789c-1.01 1.01-1.515-.758-2.778-1.515-1.263-1.01-.253-1.516-1.515-3.536s-1.01-2.526-1.263-4.041-.253-3.536-1.01-5.052-2.021-3.536-4.041-2.778-1.515.505-2.778 0c-1.01-.253-4.041-1.515-5.557-.758s-6.314-.253-7.325 0-1.768.253-1.768 1.01-.505.758 1.263 1.263 1.515 1.01 1.263 1.768-1.515-.505-2.021-.758c-.758-.253-1.263.505-2.526.505s-1.515-1.263-2.526-1.263c-1.01-.253-1.515 0-2.526-.505a9.366 9.366 0 0 0-3.536-1.01c-1.263 0-5.809 3.284-8.083 4.8-2.273 1.768-3.789 3.284-4.294 4.546s-.505 1.515 1.263 3.536 1.01 1.768.505 2.778c-.253 1.01-1.263 2.526-2.526 5.3s-.505 4.294 1.01 7.072a27.6 27.6 0 0 0 4.041 6.062c1.263 1.263 2.021 2.526 3.031 2.778 1.01.505 1.263.505 1.768 1.01s.253.758 2.021.253a13.511 13.511 0 0 1 4.041-1.01c1.263 0 2.273 0 2.778.758.758.505.758.253.758 0a5.348 5.348 0 0 1 .758-1.768 12.708 12.708 0 0 0 2.021-3.789c.253-1.263.253-3.536 1.768-3.789a30.453 30.453 0 0 1 7.577-.758c3.031.253 1.515 1.768.758 3.284s-1.01 1.768-1.01 2.778c0 1.263.253 1.263-.505 1.768-1.01.758-.253-.505-.758.253a6.982 6.982 0 0 1-1.515 1.515c.253-.253.505 1.263.505 1.768 0 .758-.253 1.01-.253 2.526s-3.031 3.283-3.031 3.283a4.9 4.9 0 0 0 2.778.758 13.5 13.5 0 0 1 5.3.758c1.768.758 5.052-.758 7.325.505 2.526 1.263 1.515 2.021 1.768 3.031a22.893 22.893 0 0 1 .253 5.809c-.253.758-1.263 3.284-2.021 5.052-.505 1.768 1.768 3.031 3.789 4.546a30.055 30.055 0 0 0 5.052 2.526c1.01.253 3.284-1.768 7.072-1.515a5.936 5.936 0 0 1 5.052 3.536 18.226 18.226 0 0 1 2.273-4.8c1.768-2.778 1.768-3.536 4.041-4.294l6.82-2.273c3.789-1.263 3.031-.253 5.052-.253a52.206 52.206 0 0 1 11.113 2.021c4.546 1.263 11.619 1.768 14.144 2.778 2.778 1.01 3.789 4.294 6.567 6.82s6.314 4.8 7.577 6.062c1.515 1.263 9.6 2.273 11.366 3.031s4.294 3.789 4.546 5.557 2.021 2.526 4.546 3.789c2.526 1.01 3.284 2.273 4.8 5.557s1.01 4.041 3.284 4.8 17.68 5.052 21.722 6.567c3.789 1.515 8.84 5.557 10.1 6.062s3.536-.505 4.546.253c1.01.505-.505 3.536.758 5.809s1.263 2.273.505 4.041c-.758 1.515-3.789 5.557-5.052 7.325-1.263 2.021-3.789 3.031-5.3 4.041-1.516.758-2.778 0-1.516 1.516s0 3.031-1.01 4.294c-1.01 1.516 0 1.263-.253 6.062-.253 4.546 0 9.6-.505 11.619s-3.536-1.768-7.072 2.526-4.294 7.577-6.567 8.083a30.406 30.406 0 0 0-8.588 4.294 10.973 10.973 0 0 0-3.031 4.294c-1.01 2.273-2.021 6.82-3.284 9.6-1.01 2.778-3.031 4.294-7.072 8.083s-6.062 7.577-8.588 10.608c-2.778 3.031-2.021 2.273-2.526 2.778-1.516 1.516-7.325-2.273-5.809-.253 1.01 1.516-.758 0 .253 1.516s1.516 2.021-.505 4.546-4.546 2.021-6.062 2.526-4.041-1.768-4.294-.758-1.01 3.536-2.526 4.294c-1.263.758-4.8 1.516-4.546 2.021 1.515 7.577 5.052 8.335 1.515 8.083-9.6-1.01-2.778-3.284-9.6 10.861-1.01 2.273-2.021 1.01-2.021 3.536.253 2.526 0 4.546 1.263 6.062s.505 1.515-2.021 3.789c-2.273 2.273-2.526 1.768-4.546 5.052-2.273 3.284-4.294 3.031-3.536 5.557s1.01 6.062 2.273 9.851 4.041 3.031 8.082 5.557c4.294 2.526 4.8 1.263 6.82 1.768 2.021.758-1.515.758-5.052 1.515-3.789.758-6.062 1.263-8.588.758s-8.588-4.041-10.861-5.557c-2.021-1.516-5.3-4.294-6.567-6.82s-2.021-5.3-3.536-8.84-.505-5.809.253-13.892c.758-7.83 1.263-14.144 2.273-18.438s4.546-23.237 5.557-28.036 5.3-24.753 5.809-28.036a50.339 50.339 0 0 1 1.263-8.588c.758-3.031.253-9.6.253-9.851s-.253-.505-1.263-3.536a9.344 9.344 0 0 0-4.546-5.557 63.068 63.068 0 0 1-6.062-4.041 25.172 25.172 0 0 1-5.557-5.052c-1.768-2.273-3.284-6.567-4.294-8.335a91.264 91.264 0 0 0-7.072-12.376c-3.031-4.294-3.031-4.294-4.546-9.093-1.515-4.546 1.263-4.546 1.768-7.325.505-2.526 2.273-5.052 4.041-8.84 2.021-3.536 4.294-4.546 5.809-7.83s.253-3.284-.253-6.314.253-2.526-.758-4.294-1.515-3.789-2.273-4.294-2.273-1.01-3.031 0c-.758.758-2.273 3.536-3.031 3.536-.758.253-1.263-.758-1.768-1.263s-3.031-.505-3.536-1.01a7.115 7.115 0 0 0-2.778-1.01c-.758-.505-4.294-2.273-5.052-3.031a6.679 6.679 0 0 1-2.273-4.8c0-2.021-1.768-2.778-5.809-5.809-4.041-2.778-5.809-3.284-10.608-4.546s-6.82-4.546-8.588-5.557c-1.515-1.01-1.515-2.021-5.052-1.515s-8.082-1.515-10.861-2.778c-2.778-1.01-7.577-2.021-9.851-3.283-2.021-1.263-5.557-1.768-7.325-5.052-1.515-3.284-1.263-2.021-.758-4.8s-3.536-5.3-6.062-8.083-4.294-3.031-5.809-6.567c-1.263-3.284-3.284-3.284-5.809-5.557-2.526-2.526-2.526-5.557-3.536-8.083-1.01-2.778-7.83-6.567-7.83-6.567s1.768 4.546 2.526 6.314a75.039 75.039 0 0 0 4.546 9.6c2.021 3.284 3.789 4.041 5.809 7.325s0 5.3-.505 4.041c-.758-1.263-3.536-1.768-3.536-3.284s-.758-2.526-1.263-3.789-3.284-2.526-5.809-4.546-4.294-3.031-2.778-3.031 4.041 1.515 3.536.505-3.284-4.041-4.8-6.062c-1.263-2.021-1.768-4.294-3.284-7.83-1.263-3.536-6.567-6.82-9.093-7.072s-3.284-1.515-4.041-4.041-1.01-5.3-2.273-7.325c-1.01-2.021-6.062-8.84-6.062-11.366s-1.515-10.1.253-14.144c1.768-4.294 1.263-13.387 1.01-15.407-.253-1.768-3.284-5.3-3.284-6.82 0-1.263 1.768-.505 3.284-.253 1.263.505 4.294 1.515 4.294 1.515a35.931 35.931 0 0 0-3.536-5.557c-1.263-1.515-5.557-3.284-7.325-3.789s-4.041-1.01-5.052-2.526-2.021-3.536-2.778-4.8-3.536-2.778-4.294-4.294c-.758-1.263-.505-4.041-1.515-5.3s-2.273-2.273-3.789-1.515-2.021-.758-3.284-2.778a9.1 9.1 0 0 0-4.546-3.284c-.758-.253-3.536-3.789-3.536-4.546a32.808 32.808 0 0 0-5.809-6.567c-1.263-1.01-14.65-5.3-15.155-5.3-.253 0-4.294.505-5.3.253s-4.546-3.284-6.314-4.041-3.031.758-4.041 2.778c-.758 2.021-5.052 5.557-7.325 7.072s-4.294 1.768-4.041 1.01 0-2.021.758-4.041 1.263-2.526 3.536-3.789c2.526-1.263 2.273-1.263 1.263-1.263s-1.515-.253.253-1.263c2.021-1.01 2.778-1.263 2.526-2.273 0-1.01-4.041 1.263-6.82 3.284a23.23 23.23 0 0 0-6.314 7.325c-2.273 3.789.253 2.273-1.515 4.8-2.021 2.526-8.335 7.325-10.356 9.093s-9.851 6.062-12.881 6.82c-3.284 1.01-4.546 1.263-6.062 2.526s-5.3 1.768-4.041.758 3.789-2.778 5.3-3.789a60.024 60.024 0 0 1 7.325-3.284 28.492 28.492 0 0 0 6.82-4.8 46.571 46.571 0 0 0 4.294-6.314c1.263-2.021 1.515-2.778-1.01-2.021a10.535 10.535 0 0 1-6.314 0c-1.263-.505-4.546 1.515-5.809.758-1.263-1.01 0-2.778-.758-3.536s-3.536-.253-5.052-.758c-1.768-.253-4.041-1.768-4.041-4.041s-1.768-4.546-.758-6.314 2.273-2.273 3.789-3.284A22.817 22.817 0 0 1 14 163.608a4.341 4.341 0 0 0 2.778-1.768c.758-.758-1.768-3.789-1.768-3.789a11.553 11.553 0 0 0 1.515-1.01c1.01-.758.253-2.021-1.515-1.768.253 2.021-3.536 4.041-5.809 4.546-2.526.758-5.809.253-5.557-.758 0-1.01.505-1.768-.253-2.526s-1.515-1.768-.758-2.021c.758-.505 6.314-3.284 6.314-3.284a8.61 8.61 0 0 0 4.041 2.273c2.021.253 6.567-3.536 6.567-3.536-2.778-1.768-2.273-2.273-2.273-2.273s-4.546 0-5.557-.758a4.986 4.986 0 0 1-1.515-3.031c-.253-1.01-4.546-2.021-3.536-3.789 1.263-1.768 3.536-2.526 4.8-4.294 1.515-1.768 2.778-5.3 7.072-7.325s9.345-3.789 11.619-5.3 3.284 0 4.041.253 6.314-.253 8.335-.253 2.526 2.273 3.031 2.778c.758.505 18.943 1.01 18.943 1.01s15.407.253 18.438 1.01a70.465 70.465 0 0 1 8.588 3.284c3.28-.254 3.027-4.295 5.048-4.295zm207.367-93.2s-1.515 6.314-7.83 8.083-17.68 6.82-18.186 7.072.758 3.789 2.273 5.557 3.031 3.031 4.294 4.8 3.789 1.515 5.809 3.536c2.021 1.768 3.284 1.263 8.335 1.263s3.789.505 9.6.758 11.871.758 13.892 2.526 4.8 8.588 6.567 12.881 5.052 11.113 5.052 11.619c0 .758-2.021 5.809-2.021 6.567s1.01 2.273 2.021 3.283.505 2.021.253 3.031 1.01 3.789 1.263 4.041 2.778-2.526 4.294-3.031 5.809 2.778 5.809 5.3c0 5.3 1.516 3.536-7.072 9.6-1.01.758-2.273 7.072-1.263 10.1.758 3.031 3.031 6.567 4.546 11.113 1.515 4.294 6.567 10.356 8.082 13.134s2.021 6.567 5.557 7.577c3.536.758 6.82 2.021 9.345 2.526s4.041 1.263 5.3-1.01 3.536-11.113 5.557-17.68c2.021-6.314-.253-8.335 4.546-9.851 4.546-1.515 12.124-4.294 14.144-5.3s1.516-7.325 6.062-9.345c4.294-2.021 5.052-2.021 9.345-3.284a55.628 55.628 0 0 0 14.65-7.072c4.294-3.031 5.557-1.515 7.072-4.294s-1.515-6.82-2.021-11.113c-.253-4.294 1.263-4.294 2.273-8.082.758-3.789 1.263-6.314 4.546-8.84s5.052-4.041 4.546-6.314c-.505-2.526-2.273-6.062-2.273-8.588 0-2.778.505-1.01-.758-4.8s-1.263-4.294 0-7.577c1.263-3.536 4.8-2.526 4.546-4.041s-5.557-3.789-5.557-8.083 1.01-5.557 1.768-6.567 9.6-8.083 10.356-8.588c.505-.758-.253-2.526 4.041-4.546s5.809-3.536 7.325-4.041c1.516-.758 4.294-.505-.758-2.021s-6.062-2.021-9.345-1.768c-3.283.505-4.294 2.273-10.356 2.778a52.194 52.194 0 0 0-12.629 3.284s2.021-1.768.253-3.536 4.546-7.325 5.557-7.83c1.01-.758-8.082-2.778-12.881-3.789S405.744-.568 400.44-.063 387.306.189 384.528 1.2c-2.778.758-2.273 4.294-5.3 4.546s-8.588-1.768-12.881-1.01-11.113 3.536-11.871 3.789 2.778 2.273 4.8 2.778c2.273.505 5.052 5.052 5.052 5.052s-6.062-2.021-12.124-3.789-13.387 0-15.66.758a39.72 39.72 0 0 1-10.867 2.276c-5.052.253-10.608 4.294-13.639 6.314-2.778 2.021-11.619 7.072-13.892 8.335s-1.263 1.768 1.01 2.526c2.274.502 4.799 1.007 4.799 1.007zm-127.8 66.428c.758 3.031.758 7.072-1.01 5.3-1.515-1.768-3.031-5.557-5.557-4.041s-5.3 1.01-5.052.758c.505-.253 0-2.021-1.263-2.526s-2.021.253-3.536 1.01c-1.263.758-5.809 1.768-4.041.505 1.768-1.515 1.263-2.021.505-3.789-.505-1.515-5.052 1.01-7.577 2.778s-3.789 4.294-5.3 6.062-.505 2.778 1.768 3.536 5.809 1.01 2.778 2.021-5.052 1.768-3.789 2.778c1.515 1.01 4.041 1.01 6.567.758s4.8-1.01 8.84 0a30.029 30.029 0 0 0 6.567 1.01 12.292 12.292 0 0 1-4.294 1.515c-2.778.505-7.83 0-10.356.505s-6.567 1.263-5.557 2.021a9.373 9.373 0 0 0 5.3 3.536c3.536 1.01 4.294 0 6.314.505s1.01 3.031 1.515 3.284 4.546-.253 8.588-1.01 2.526-1.515 5.809-2.273c3.031-.758 3.284-3.284 5.052-3.789s.505 1.263 2.778 1.768 1.01.758 3.284 1.01 2.021 1.263 4.294 1.01 5.052-1.768 4.546-2.021a2.18 2.18 0 0 1-.505-2.021c.253-1.01-2.273.253-3.284.758s-.758-1.515 1.01-2.526c2.021-1.01 3.789 0 4.8 0 1.263 0 0-3.284-2.021-3.789s-3.031-1.768-6.062-3.536-1.515-2.526-2.526-4.8-2.778-8.84-4.546-10.1-3.536-.758-5.3-2.021c1.005 1.266.751 2.781 1.256 5.812zm-47.737-4.546c.758 2.021.758.758-.758 3.031s-.758 3.284-1.768 5.052-3.789 4.041-3.031 5.3 3.536 1.768 4.8 2.778 2.273 2.778 4.294 2.021a34.763 34.763 0 0 0 4.294-2.021c1.515-.758 2.526-1.515 2.526-3.536 0-1.768 0-2.778.505-2.526s1.515 1.01 2.021-.253a11.661 11.661 0 0 1 2.273-3.789c1.01-1.01 3.789-2.021 5.052-3.031s3.536-2.273 4.294-3.284-1.263-1.768-2.273-2.021c-1.01-.505-2.273-2.021-4.8-2.021s-3.789 2.021-3.789 1.01c0-.758-1.768-1.263-2.778-1.768a9.048 9.048 0 0 0-5.3-.505 31.609 31.609 0 0 0-7.325 1.263c-2.031.762 1.252 2.025 1.757 4.298zm75.016 25.51c-.253.505-1.768 1.01-2.778 2.021s2.021.505 2.778.758c1.01.253 1.515 1.263 2.273 1.515s4.8.505 6.314-.253c1.768-.758 1.768-1.01 1.768-1.515a25.965 25.965 0 0 0-5.809-4.8c-2.526-1.263-2.526-1.263-3.031-1.01-.258.251-1.268 2.777-1.521 3.282zm-10.867-25.007c-1.515.758-2.778 1.768 0 3.031 2.526 1.263 3.536 2.526 5.3 3.536s2.526 4.294 6.314 2.778 5.3-3.031 5.809-4.546-.505-1.768-1.515-3.284c-1.01-1.263-1.263-2.021-3.031-1.768-2.021.253-2.526.253-2.526.253a11.239 11.239 0 0 1 3.284-2.526c2.021-1.01.253-1.768 1.263-2.778s-2.526-1.515-4.041-1.01c-1.515.253-1.515 0-4.041-.253-2.526 0-6.314 2.021-6.314 3.031.253.758 2.021.505 3.789 1.515s2.273.758.505 3.536-2.526-.758-3.284-1.01c-.501-.505.004-1.263-1.512-.505zm-11.113-4.8c-2.526.253-3.536 2.021-2.526 2.273s1.515-.253 3.031 1.515 3.031 2.526 3.536-.253c.758-2.776.004-4.039-4.041-3.534zm-41.423-20.71c-2.778 2.273-3.536 4.041-5.809 5.557s-1.768 2.778-1.01 3.536 3.031 0 4.041-.505 2.021-1.768 2.526-1.01c.758.758 3.284-2.778 4.294-3.789 1.01-1.263 2.526-2.526 3.031-2.273.253 0-1.01 1.515-.505 2.526s2.526 1.263 4.294-.758.253-3.789 1.515-5.3c1.515-1.515 2.526-1.263-.253-2.526a4.272 4.272 0 0 0-5.052.758c-.504.248-1.515-.763-7.072 3.784zm17.428 3.536c-1.515 0-2.273.253-5.052 1.515s-3.788 4.29-4.546 5.81c-.758 1.768.253 1.768 2.778 2.526a5.562 5.562 0 0 0 6.82-2.526c.758-2.273 1.768.505 1.263 1.768s1.768 0 2.778-.505a17.04 17.04 0 0 1 4.294-.758 17.075 17.075 0 0 1-5.3 3.031 22.98 22.98 0 0 1-5.557 1.515c-.758 0 .758 1.263 3.789 1.768 3.283.758 5.052-2.021 9.6-3.536 4.546-1.768 4.294-2.021 5.809-1.515s3.031-.758 5.052-1.263c1.768-.505 2.526.253 3.284-2.526s2.273-5.3-.253-5.557-2.778-.253-3.031 2.778-.505 1.01-.505 1.01-1.768-2.526-2.778-3.789-1.768-3.536-3.031-4.546-1.768.505-3.536 2.526-.253 2.778 1.515 3.536 3.031 3.031 2.273 3.536-1.768 0-5.052.253-3.284-1.01-4.041-1.515c-1.01-.505 1.515-1.263-2.021-2.778-3.542-1.011-3.289-.758-4.552-.758zm-10.608 2.778c.253-.505-4.294 2.778-5.052 3.789s.758 1.01 2.273.758c1.263.252 1.516-2.526 2.779-4.547zm9.093-7.072c-1.263.505-1.263 1.01.758 1.01 2.021.253 3.031-.758 2.526-1.515-.254-.505-2.274.004-3.285.504zM165.8 59.8c-1.263.253-5.052 1.515-5.3 2.273a4.556 4.556 0 0 0 .5 3.027c.505 1.01.758 1.263 4.041.505s5.557-2.526 4.294-2.778c-1.01-.253-1.768-.758-2.778-1.01s.758-.758 3.031-1.263c2.269-.754 3.027-2.019-3.788-.754zm-10.861 1.515c-1.01.505-1.263.505.758 1.263s4.041.758 3.789 0a3.9 3.9 0 0 0-4.552-1.265zm7.325-5.3a4.626 4.626 0 0 0-2.526 2.526c-.505.505 2.021-.253 3.031-.505s1.263.505 2.526-.505c1.01-1.01 3.284 0 5.3-.505s2.273-1.768 1.768-2.778c-.506-1.27-5.052-.26-10.104 1.761zm19.449 5.052c-.505.253-.253 1.01 0 2.021.505 1.01.505.758 1.515 1.01a5.826 5.826 0 0 1 2.273 1.515c.253.253.253.253.758-.758s-.253-.758-1.263-2.021-1.773-2.534-3.289-1.773zm6.567 8.335c-1.515-.505-2.273.505-2.778.758s.253.758.758 2.021c.253 1.263 0 1.515 2.273 1.768s2.778-.253 3.031-1.515c-.006-1.523-1.774-2.786-3.29-3.034zm8.588 2.526c-1.263-1.01-2.021-1.768-3.284-1.263s-.253 1.263-.253 1.515 1.768 0 1.768.758c0 1.01.505 1.263-1.515 1.515-2.021 0-2.526 0-3.284.505s1.515 0 2.273.758c.758 1.01 1.768 1.01 3.789.758s4.546-.758 4.546-.758a9.8 9.8 0 0 0-2.021 2.273c-.505 1.01-.758 2.273.253 3.031s1.01-.758 3.789-.758 3.536-1.515 3.536-1.515-.758-.505-.505-2.021v-1.774s1.01.758 1.263 1.01a16.645 16.645 0 0 1-.505-2.273c-.505-1.515 0-1.515-.505-3.536s-.253-2.526-2.526-2.526c-2.021 0-3.536.758-5.3.758s-2.526.253-1.263 1.01a7.424 7.424 0 0 1 2.021 2.021 5.842 5.842 0 0 1 .505 2.273c-.009.506-2.788-1.767-2.788-1.767zM186.254 79.5a2.316 2.316 0 0 0-1.263 2.021c0 .758 1.263.253 3.031-.253 2.021-.759 1.01-2.527-1.768-1.768zm27.278-3.536a15.378 15.378 0 0 0-3.789 3.031c-1.01 1.01 0 1.263 2.273 2.273 2.273 1.263 5.052 1.515 6.062.253s-.504-7.831-4.546-5.558zm11.113-9.345c-3.031.253-2.021.758-5.557-.505A29.8 29.8 0 0 0 210 64.849c-1.263 0-.758.505.505 2.526s1.515 2.778 4.294 2.021c2.526-.758 4.8-1.01 6.567 1.768s2.778 3.536 1.263 4.546-.758 2.526 0 4.8c1.01 2.021 3.031 2.021 5.809 2.021s21.217-.253 23.995-.758 5.3-3.031 6.82-4.041 2.273-2.778.253-4.041a15.915 15.915 0 0 0-7.325-2.526c-2.273 0-4.294 1.263-7.83 1.515s-2.778 2.021-6.062 2.021-1.515 1.515-5.557 0-6.82-3.536-5.052-3.789 3.284-.505 2.273-1.515c-.761-.759-2.529-3.032-5.307-2.78zm-36.624-14.9c2.021.758 2.273 1.01.253 1.768-2.021.505-3.789 2.021-1.515 1.768 2.021-.253 4.041.253 6.567.758 2.778.505 2.526.253 3.789 1.768s2.526 1.515 4.294 1.01 2.021-.505 1.01-1.768c-1.263-1.263-2.526-3.789-4.041-4.8s-3.031-2.273-4.546-2.273c-1.515.253-2.021.253-3.536-1.768s-2.526-1.01-4.546-.505-2.778 2.021-3.536 2.778c-2.022 1.008 4.04.503 5.808 1.26zm24.753-19.7c-2.273 2.778-4.041 5.052-1.515 5.557 2.526.253 3.789-.253 3.789.505.253.758-.505 1.263-4.294 1.263s-2.526.758-.505 3.284 2.273 1.768 5.557 1.515c3.284 0 4.294-1.263 7.072-.505s3.536 1.263 1.01 2.021-8.082 2.021-6.82 3.284 5.3 4.041 7.072 4.294 2.273-1.263 6.062-.758c4.041.505 3.031.758 3.284-.253.505-1.01 2.526-3.789 3.031-4.8s1.515-1.768 3.789-2.021c2.273-.505 2.778-1.263.758-1.768-2.021-.758-4.294-1.01-4.041-1.515s1.515-2.273.505-3.031c-.758-.758-2.273-.758-3.284-1.263s-2.273-2.526-3.789-3.284-2.778-1.01-4.294-2.273c-1.768-1.263-4.546-4.546-7.83-4.294-2.273-.257-3.283 1.259-5.556 4.037zM208.481 55.5c-.758.505-3.031.505-1.515 1.768s1.263 1.263 3.284.505 5.052-2.778 5.3-3.284-2.021-1.768-3.536-2.021c-1.515-.505-2.526-1.768-5.809-2.526-4.796-1.258 3.034 5.058 2.276 5.558zm105.577-41.924c-3.536-1.01-16.418-3.536-20.459-2.526S289.811 9.03 284 9.787s-14.65.253-17.428.758 1.263 1.515 2.778 2.526-7.072-1.01-13.639.758-10.861 2.778-3.789 5.557 7.83 3.536 7.83 3.536-9.093-1.515-12.882-3.031-1.768-1.515-8.84.758c-7.072 2.021-14.144 3.031-13.639 5.3.253 2.021 5.809 5.052 9.345 5.809s10.861-1.01 11.619-1.263c.505-.253-2.778 2.778-2.778 2.778s3.789-.758 7.83-1.768 7.325-2.273 11.366-3.536c3.789-1.515 4.546-1.768 4.546-1.768s-6.82 5.3-11.619 7.072-10.861 3.031-13.639 3.031-2.526 2.021.505 3.536c2.778 1.515 5.052 4.8 6.567 5.809a4.387 4.387 0 0 1 1.768 2.778 7.883 7.883 0 0 0-9.345 0c-5.052 3.536-4.294 5.3-3.031 5.809s5.557.758 6.314 2.273 6.57-1.509 6.57-1.509-3.031 3.284-5.809 3.284-2.526-2.273-6.567-2.021c-4.041.505-3.789 1.515-2.021 2.778 1.768 1.515 3.031 1.768 0 3.284s-4.294 1.768-4.546 3.536c0 1.768 3.789 1.768 6.314 1.768s5.052-.253 9.6-.253 4.041-1.515 5.809-1.515 3.536.505 2.778 2.273.758.758 5.809-1.263c5.052-1.768 2.778-4.546 2.526-5.557s-2.273-1.263-3.284-1.768c-1.263-.505 3.536-5.3 2.778-6.82s5.557-.253 8.588-4.041c2.778-3.789 1.768-6.567-.253-7.072-2.021-.758 3.789-.253 5.557-1.263s5.809-2.273 7.577-4.294c1.515-2.021 2.273-2.778-1.768-2.273-3.789.505 5.557-1.768 10.1-4.8s9.851-6.567 11.113-7.325 2.273-.505-3.284 0c-5.3.253-11.871-.505-8.335-.758 3.536-.505 14.144-1.768 16.923-3.789a25.841 25.841 0 0 1 4.044-3.535zm-64.407 74.258c-5.809-.505-14.144-2.021-15.912 3.031a154.853 154.853 0 0 0-4.546 17.933c-.253 2.021 6.82 5.052 11.871 5.3s12.881.505 11.366-.758-.253-1.768 4.294-1.515 5.052-1.01 5.052-2.021.758 1.263 4.041 2.778c3.284 1.768 6.062 6.567 8.84 9.345s9.345 6.567 8.082 8.588 1.263 9.6-8.588 11.366-10.356.505-10.356 2.778.505 3.283 4.546 3.283c3.789 0 9.345-3.283 11.113-.758a11.537 11.537 0 0 0 6.062 3.789c1.515.505-2.021 1.515-2.778 1.768-1.01.253 2.021.758 7.577 3.284 5.557 2.778 12.376 3.031 9.093 1.01s-5.052-5.557-6.314-6.567c-1.515-1.263 0-.253 2.526.505a20.833 20.833 0 0 1 6.314 3.789c1.263 1.01 1.768-.253 2.526-4.041s-.253-3.789-4.8-6.82-5.809-5.3-6.314-7.577c-.505-2.021 2.273-2.526 3.536-4.041s4.294 2.778 6.567 5.052c2.273 2.526 4.041 6.82 5.809 3.536 1.768-3.031 3.284-10.1 3.284-11.619s-1.768 0-9.093-3.536-11.113-5.052-11.871-5.052 2.021-1.515 5.052-3.031c3.283-1.515 4.546-1.263-2.273-7.83s-8.84-7.83-13.387-8.335-5.809-5.052-8.84-6.82c-3.284-1.515-10.608 2.021-12.882 2.526s-1.515 1.263-4.294-2.526a75.989 75.989 0 0 1-5.303-6.814zm5.052 0c-2.778.253 1.768 5.557 5.3 5.809 3.789.253 6.82-1.515 7.577-1.768 1.014-.252-8.331-4.546-12.88-4.041zm-12.882 53.294a30.229 30.229 0 0 0-1.768 6.567 9.952 9.952 0 0 1-1.01 3.789c-.505 1.263 1.263-.253 2.526 1.768s.758 2.526 2.778.253c2.273-2.273 4.546-3.031 7.577-2.273 3.031 1.01 5.3 1.263 4.294-.505s-2.526-1.768-4.546-4.294-3.536-3.031-6.314-4.041c-2.274-.759-2.527-3.792-3.537-1.264zm21.722 187.413c-1.01-1.768-2.273-4.8-7.83-5.809s-7.577 1.01-9.6 1.768 2.021 1.01 4.546 0c2.778-1.01 4.8-.253 5.052.253s-1.01.758-1.263.253c-.505-.505-.505 1.263 2.526 2.273s3.789 1.515 4.041 2.778a6.188 6.188 0 0 0 1.01 3.031c.758 1.01 1.01 1.515-.253 2.021s-.758.505 0 1.01a14.126 14.126 0 0 0 5.557 1.768c2.526.253 3.536.758 1.768-1.768a53.857 53.857 0 0 1-5.554-7.578zm8.335 11.871c1.515 1.516 1.01 3.031 1.01 4.041 0 .758-1.768.253-4.546-.505s-2.526-.505 0 1.01c2.526 1.263 4.041 1.01 4.041 2.778s2.273.253 3.284-.758 1.01 0 5.557.505c4.546.758 5.3 1.516 4.546-.505s2.021-1.768-2.021-3.536c-3.789-2.272-13.639-4.798-11.871-3.03zm-12.629 1.01c-1.768-1.768-3.789-2.021-3.789-.505s.505 1.515 2.021 2.021c1.519.253 2.778-.253 1.768-1.515zm32.33 8.082c-1.768-.505-2.273.758-1.01 1.768 1.263 1.263 3.031.758 4.8.758 2.019.001-.506-1.515-3.79-2.525zm-20.964-224.036c-2.526 1.01-3.789 1.768-1.768 4.546s3.284 4.546 4.294 2.526c.759-2.02 1.515-8.84-2.526-7.072zm-19.449 29.8c-3.536.505-4.8.758-4.294 2.778s1.515 1.768 4.041.505 4.295-4.036.254-3.279zm7.577 3.031c-.505.253-.758 1.515 0 2.778s2.273-.505 3.031-2.021c.759-1.256-.757-1.51-3.03-.756zm-39.654-98.754c-3.536 0-8.588 1.263-5.809 1.263s5.3.758 9.851.253c4.546-.253 5.052-.505 5.3-2.778.003-2.021-3.031 1.01-9.342 1.262zM197.62 40.6c-3.536 1.01-2.526 1.768 1.515 3.536s4.294 1.01 3.789-2.526c-.505-3.281-3.283-1.51-5.304-1.01zm245.506 89.665c-4.294 1.263-5.809.505-6.567 2.778s-2.526 1.01-3.536 1.263-2.273 6.314-3.031 5.557a19 19 0 0 1-2.021-3.536c-1.01-2.021.253-1.768-1.515-4.041-2.021-2.273-5.809-2.021-6.062-1.01s2.526 1.768 1.516 2.778a44.632 44.632 0 0 1-4.294 3.031c-1.01.758 1.768.505 3.284 0s2.778 1.263 3.536 2.273c.758 1.263-.758 2.273-1.515 2.778s2.273.505 3.536.758 1.768 1.263 1.01 2.778 3.536.253 6.062 0 3.031 1.768 6.82.505 5.557-1.01 9.093-3.536 3.284-2.021 5.557-3.536 1.768-2.021 1.768-4.041c0-1.768 1.516.505 1.01-2.273s-3.284-2.021-5.3-2.273-1.768-1.768-2.778-2.273c-.764-.504-2.027.755-6.573 2.022zM734.1 365.923a7.8 7.8 0 0 0-.505 2.778 27.328 27.328 0 0 0 0 4.546c0 1.515.253 2.526 1.01 2.778a2.645 2.645 0 0 0 2.778 0c1.263-.505 2.526-1.768 2.021-3.284-.758-1.768-2.021-4.041-2.526-5.052-1.014-1.261-2.278-2.777-2.778-1.766zm-1.01-1.768l.505 1.01c.253.505.505 0 .253-.505-.505-.505-.253-.505-.253-.505s-.505-.505-.505 0m124.01 85.371c-2.526 2.526-4.546 1.768-8.588 3.031s-11.366 5.557-11.871 7.325 0 2.021-.505 1.768a5.69 5.69 0 0 1-1.263-1.263 9.523 9.523 0 0 0-.758 4.294c.253 2.021 1.263 3.284 1.01 5.809 0 2.526-1.01 4.041-1.01 5.809s3.031 5.052 3.789 7.325c.758 2.021 1.263 1.516 1.768 5.3s2.526 5.809.505 7.83-3.536 1.515-1.01 3.789c2.526 2.021 4.294 3.536 8.335 2.021 3.789-1.263 2.778-2.526 5.809-3.283s3.536-1.263 6.314-1.516c2.526-.253 4.294 0 5.3-1.768s.253-1.768 2.778-3.031 2.273-1.515 4.041-2.021c1.768-.253 2.778 1.01 5.052-1.01 2.273-1.768.505-2.021 5.809-2.021a31.109 31.109 0 0 1 9.345 1.263c2.021.758 5.052 2.273 5.809 3.536s1.768 2.778 2.273 2.778c.253 0 .758 0 2.021-1.01a47.3 47.3 0 0 1 4.546-3.536 9.512 9.512 0 0 1-1.01 3.536 4.594 4.594 0 0 0-.758 2.778c0 .505 2.021-1.515 2.273-1.515s.505 3.536.758 3.789 1.01.253 1.768 1.263a12.2 12.2 0 0 1 2.526 3.789c.758 2.021 4.041 4.041 6.062 4.294a20.443 20.443 0 0 0 5.557 0c1.516-.253 1.516-2.021 3.283-1.263 1.516.758 0 2.273 3.789 2.021s4.8-1.516 6.567-2.778c1.516-1.01 1.768 1.516 3.789-1.263s2.273-2.021 2.778-5.3c.253-3.283.253-4.041 2.273-7.072s2.273-1.516 3.536-6.062 3.031-8.84 2.778-12.629 0-1.263-.758-5.557-.253-3.789-3.031-5.557-3.536-1.263-4.041-3.789c-.758-2.526.253-3.283-1.01-3.283s-2.526.505-3.283-1.01a10.937 10.937 0 0 0-2.273-4.041c-1.516-1.515-2.778-1.263-5.557-2.526s-1.263-1.515-1.263-3.536.252-4.294-2.021-5.3c-2.021-1.01-.758.505-.758-2.778 0-3.536 0-3.031-1.768-3.536s-2.273-.505-3.283-2.526-2.526-5.557-3.031-6.82c-.505-1.515-1.263.253-1.768 1.263a10.141 10.141 0 0 0-1.768 5.3c0 2.021 1.01 3.283 1.01 6.062s-2.021 5.557-3.283 7.072-2.273.253-3.284-.253-1.263-2.021-3.536-3.031-6.314-2.021-8.083-3.789-.505-1.768 0-3.536a7.974 7.974 0 0 1 2.778-4.294c1.263-1.01 1.01-1.516-.758-2.526s-4.041-1.01-7.072-1.01-4.546-.253-4.546 1.515c.253 1.768 2.021 2.273-.505 1.768s-4.546-.758-5.809.505c-1.01 1.263-1.263 1.768-2.021 4.294s.253 2.778-.758 2.778-5.052-2.021-6.567-2.526c-1.263-.505-2.021-.505-3.789 1.01-1.516 1.516-7.072 6.315-9.345 7.577-2.265.759-2.012.506-4.287 7.073zm-76.531-72.49c-1.263-.253-2.021-.505-.505 1.516a23.255 23.255 0 0 0 3.284 3.536c1.516 1.263 2.021-1.01 3.031 1.515s.758 2.526 1.768 3.536 2.021 1.263 2.273 2.273a6.416 6.416 0 0 0 2.021 3.536c1.263 1.01 1.263 1.01 2.021 3.031s2.021 3.536 2.526 5.3 3.789 3.536 5.557 5.557 4.546 5.3 5.052 4.294c.505-.758 1.768 0 2.526-.253s1.263-1.515 1.768-4.546-.505-4.294-1.263-5.052-2.273-.758-2.778-1.516-1.01-2.778-2.021-3.536-1.263 0-1.263-1.768 1.263-1.515-.253-2.526-1.516-1.768-2.021-2.021c-.505-.505-3.536-1.263-4.294-2.021s-4.294-2.526-5.809-4.041-3.284-2.778-3.789-4.041c-1.01-1.009-2.525-2.015-7.83-2.773zm33.34 34.6c-1.263 0-2.021-.758-3.031.758-1.01 1.768-.758 1.768.758 1.768s1.263.758 1.01 1.01c0 .253-.758-.253 2.273 1.01s5.052.758 5.809.253 1.01 1.01 5.052 1.768 6.062-.253 8.84.253c2.526.758 2.021-.253 0-1.768-1.768-1.516-1.768-.758-3.536-2.021a10.842 10.842 0 0 0-5.557-1.515c-1.263-.253 1.01 1.263-2.526.758-3.789-.505-2.273.253-4.294-1.01s-2.021-1.515-3.283-1.768c-1.261.002-1.513.507-1.513.507zm29.3 5.809c-1.01.253-3.284 1.01-2.273 1.263 1.01.505.253.758 3.284.505s5.809-.758 6.062-1.263c.505-.758-.505-.253-1.768-.505s-1.263.253-2.778.505a3 3 0 0 1-2.526-.501zm10.608-.252c-2.021.253-1.768.758-.253 1.263a6.376 6.376 0 0 0 4.294.253c1.263-.253 1.263-.758 3.536-1.01s3.031-.253 4.8-.505l1.768-.253s-.253-.253-1.263-.253h-3.283c-1.263 0-3.284 1.01-4.041 1.01s-2.526-.505-3.031-.253c-.253.509-.253-.502-2.526-.245zm11.619 2.778c-1.516 1.01-1.516 1.263-1.516 2.021a1.476 1.476 0 0 1-.253 1.01 5.834 5.834 0 0 0 3.789-1.768 8.6 8.6 0 0 1 3.284-2.273 13.875 13.875 0 0 0 3.536-2.273 15.831 15.831 0 0 1-2.778.253 7.136 7.136 0 0 0-3.283 1.01c-.505.508.505.76-2.778 2.023zm-12.124.758c-1.516-1.01-3.031-1.01-3.031-.253s-1.263.505.758 1.516c2.021.758 4.041 1.768 4.041.758-.252-1.26-1.009-1.513-1.767-2.018zm-13.639-44.454c-.758 1.263.758 1.01-.505 2.021s-2.273.505-3.536 2.273a19.071 19.071 0 0 1-4.041 3.283c-.758.505-3.283 1.263-4.546 2.778a1.609 1.609 0 0 0 .505 2.526 4.8 4.8 0 0 1-2.526-.253c-1.768-.758-2.021-1.516-2.021-1.516s-1.263 0-2.021 2.021-1.263 2.273.253 3.284c1.263 1.263-1.01 1.263-.505 2.021.253.758.253 2.273 1.01 2.526s1.01-.758 2.021.505.253 4.8 1.516 4.8c1.263.253 2.273-.253 3.284 0a3.741 3.741 0 0 0 3.284.505 4.568 4.568 0 0 1 3.789.505 13.38 13.38 0 0 0 4.8 1.263c1.263 0 1.516.253 1.768-1.768.253-1.768 0-3.536 1.768-5.052 1.515-1.516 1.768-1.516 1.768-2.778a6.074 6.074 0 0 1 1.01-4.041c1.01-1.516 1.515.758 2.021-.253s1.01-1.01.758-1.515-1.768-.505-2.273-1.516.253-1.515-.505-3.536-1.01-1.263 0-2.526 1.768-1.515 2.021-2.273c0-1.01.505-1.01 1.768-1.768s-.253-.505-1.263-1.263c-1.263-.758-3.284-4.041-4.546-4.041-1.519-.755-4.297 2.528-5.055 3.791zm169.733 113.408c-.505-.505-1.01 0 .252 1.515s1.263 1.01 2.273 1.01c.758 0 1.516 3.031 2.021 3.789s1.263 1.768 1.263 1.768.505 3.284 0 4.546c-.505 1.515-1.263 2.021-1.516 3.536-.253 1.263 1.263 1.01 2.273 1.515s.758.505.505 1.516c-.505 1.263-1.516 1.768-1.516 2.021s2.273 1.515 3.536 0 3.031-3.536 3.536-5.052-1.01-.758.758-2.021c1.768-1.01 1.516-.505 2.273-2.021s1.768-2.778.758-3.536-2.021 1.01-3.031 1.263a3.712 3.712 0 0 1-2.778-.253c-1.263-.505-1.516-.505-2.021-1.768a18.272 18.272 0 0 0-1.01-1.768s-.253 1.768-1.263 1.263c-.758-.505-.758-1.263-1.263-2.273a4.974 4.974 0 0 1-1.01-2.021c-.505-.758 0-2.273-2.02-2.526-1.767.005-1.515.005-2.02-.5zm.252 19.449a21.362 21.362 0 0 0-3.031 3.284 9.106 9.106 0 0 0-2.021 3.789c-.505 1.01-2.021 2.273-4.8 3.789s-3.789 2.021-4.8 3.284-4.294 5.557-4.546 6.062c-.505.505 1.516 1.01 3.536 1.01s5.051 1.768 6.82 0 3.536-6.314 4.546-7.83a17.856 17.856 0 0 1 3.789-3.789c1.768-1.515 4.546-4.546 4.546-5.557a12.6 12.6 0 0 0-.758-3.031 2.09 2.09 0 0 1-2.021 1.01c-1.512.002-1.259-2.019-1.259-2.019zm-13.387 20.711c-2.021-1.01-2.526 1.01-2.778 3.031s.758.253 2.526-.505c1.769-1.26 1.011-2.269.253-2.523zM927.823 515.7c-2.273-.758-2.021 1.516-1.515 3.031a10.367 10.367 0 0 0 1.768 4.294c.758 1.263 4.041 1.768 5.3 1.263s2.273-2.526 3.536-4.546a7.553 7.553 0 0 0 1.515-5.052c-.253-1.01-1.768 1.01-2.778 1.515s-2.526 1.768-4.294 1.263c-2.269-.756-2.774-1.514-3.532-1.768zm-28.541-114.922c-1.768.505-2.778-1.263-4.294-4.294s-2.526-3.536-6.314-2.021-3.283 1.01-.758 2.021 2.778 1.263 3.283 1.263c.253 0 4.041.505 3.283 1.01s-4.294 1.01-2.021 2.526 1.263.505 7.072 3.284 6.567.758 8.588 4.546c1.768 3.789 1.768 3.031.253 4.041s-3.536 2.021-2.526 2.021c.758 0 2.273.505 6.315.758 3.789.253.253 2.526 4.546 2.526s5.557-1.516 7.325-3.536 2.021-1.01 5.809 0c3.789.758 5.052 4.041 9.6 5.3s6.567 3.031 3.789.253-3.789-4.546-7.83-7.83c-3.789-3.031-4.041-3.536-5.3-5.809s-5.052-5.052-9.6-7.072c-4.546-1.768-7.072-2.021-12.376-3.536-6.065-1.26-7.076 4.044-8.844 4.549zm-30.309-10.608c-1.768 1.263-2.021.505-3.284-.253s-1.01 1.768-3.789.253c-2.778-1.263-4.041-2.021-7.072.253s-1.263 3.284-1.263 4.8-2.526 6.062-3.536 7.83-1.01 2.273-.253 3.284 1.768.758 2.273 1.263 0 4.8-.505 6.062c-.505 1.515 1.263 1.768 3.031 1.263s.253-.505.253-2.021.758-2.021.758-4.8v-4.041s.505-.253 1.263.758 1.516 3.536 2.273 4.8 1.516 2.273 2.778 1.516c1.263-1.01 2.273-2.021 2.273-2.021s-2.273-.758-2.273-1.515 1.01-1.516-.758-4.041c-1.768-2.778-2.526-2.778-.505-3.031s2.021-2.273 3.283-2.778a9.755 9.755 0 0 1 3.031-.505 3.251 3.251 0 0 0-3.031-.758c-1.768.505-3.536.758-5.052 1.768-1.515.758-3.031 1.515-3.284-.253a11.163 11.163 0 0 1-.253-4.294c.253-2.273 2.778-.505 4.546-1.01s1.768-.505 6.062-.253c4.041.253 4.294-.758 5.557-2.273a21.267 21.267 0 0 0 2.021-3.536s-2.776 2.27-4.544 3.533zm9.6-5.809c.253-.758-3.031 2.273-3.536 2.778-.758.505 0 1.516.505 2.273s.253 3.789.505 4.546 2.021 1.263 2.021 1.263a7.066 7.066 0 0 1 .505-2.778c.758-1.01 0-2.021 0-3.789s-1.013-2.273-.002-4.293zM872 401.789c-2.526-1.01-3.536-.253-3.536 1.01s-.253 2.021 2.526 2.021c2.782.252 6.065-1.011 1.01-3.031zm5.3-.758c-.758.253-1.263 2.273-1.01 3.536s.758.505 2.273.253 1.263-1.516 3.031-1.516c1.768-.253 5.809 1.263 5.809 1.263s.758-1.01-2.021-2.778c-3.023-2.021-4.282-2.021-8.074-.758zm-52.536-68.2h-3.031c-.505 0-1.263 1.01-2.021 1.515s-.758 1.01-.253 2.021 1.263 1.01 2.526 1.516c1.263.253.758-.505 1.768-1.01 1.01-.253 1.263-1.263 1.516-2.021s.758-1.01 1.01-1.515c.253-.253-.758-1.263-.758-1.263.008.256-.749.761-.749.761zm31.067 3.789c-1.01-.758-1.516 2.021-2.021 3.284-.253 1.515-.758 2.273 0 3.284.505 1.01.253 1.263.253 1.263l-1.515-1.01a7.828 7.828 0 0 0-.505 2.526c0 1.01-.505 1.515 1.263 2.526 1.768.758 2.273.253 2.526 1.516s.253 1.768 1.263 2.021a4.944 4.944 0 0 1 3.031 1.516c.505.758.253-2.021 1.01-1.768a5.749 5.749 0 0 1 2.273 2.021 1.8 1.8 0 0 0 1.516 1.01s-1.263-2.273-.758-2.526.758-.505-.758-1.515a5.653 5.653 0 0 0-3.789-.758c-1.263-.253-1.263.758-2.021-1.516a7.658 7.658 0 0 1-.253-4.041c0-.505.505.758 1.263-.758a8.63 8.63 0 0 0 .758-4.294c0-1.515 1.01-2.021.253-2.021-.75-.504-3.276-.251-3.781-.756zm13.639 28.794c.253 1.01-1.01-.253-1.516.253a2.881 2.881 0 0 1-1.515.758 12.3 12.3 0 0 0-2.526 2.021v-1.263c0-.253-.505-1.515-1.01-.758a6.1 6.1 0 0 1-2.273 2.021 2.9 2.9 0 0 0-2.021 2.526.751.751 0 0 0 .758 1.01 4.055 4.055 0 0 0 1.263-1.516c.758-1.263 1.01-1.263 2.273-1.263 1.515-.253 1.263-.253 1.768.505s0 2.021.253 2.778a2.259 2.259 0 0 0 1.516 2.526c1.515.505.758 0 2.021 0s1.263 0 1.263-.758c-.253-.758-.505-1.263-.758-2.021a1.383 1.383 0 0 1 1.01-1.263c.253-.253.505.758.758 1.768.505 1.01.505 1.01.758.253a8.029 8.029 0 0 0 .505-3.536 9.471 9.471 0 0 1-.253-2.526 3.8 3.8 0 0 0-1.01-2.021 12.808 12.808 0 0 1-1.768-1.516 3.887 3.887 0 0 1 .512 2.025zm-6.567-6.567s0-.758-1.263-2.021-1.263-1.516-3.283-2.021c-2.021-.253-3.789.253-3.031 2.273s1.01 2.273 2.526 2.526a3.493 3.493 0 0 0 2.526-.505s0 .253-1.516 1.263-1.768 2.778-.505 3.536 1.263 1.768 1.768 1.263c.758-.505 1.263-2.526 2.526-3.789 1.516-1.263 1.516-1.516 1.768-2.778a7.3 7.3 0 0 0 0-2.526zm3.284-4.041c-.253.253-1.263 0-.253 1.01s2.021 1.263 1.768 2.021 0 1.01-.505.758c-.505 0-.758-.253-1.01-.253s-.253.505 0 1.01 0 0 .505.758.253 1.01.505 2.021.505.505.505.505-.253-2.273 0-2.526c0-.505-.253-1.516.505-1.263s.505 1.515 1.01.505a4.869 4.869 0 0 0 0-3.283c-.253-1.01-1.01-1.01-1.768-1.01a7.087 7.087 0 0 0-1.254-.25zm-14.9 3.789c-.505 0-.758.505-1.01 2.021a4.4 4.4 0 0 1-2.021 3.031 19.117 19.117 0 0 0-3.283 3.536c-.253.505-.253.253 1.516-.758 1.768-.758 3.283-2.021 3.536-3.031.253-1.263-.253-.505 1.263-1.263s.758-1.01.758-2.273c.254-.758.004-1.513-.754-1.258zm95.222 43.949c-.253 1.515.505 2.021-1.01 3.031-1.263 1.01-3.031 1.01-4.294 1.263-1.515.253-.505-.253-2.273-.253s-2.273 0-1.515 1.01.505 1.768 3.283 1.768 4.8-1.516 6.567-2.021 1.515-2.021 1.768-2.526c.258-1.007-2.268-4.038-2.521-2.27zm7.325 3.031c.758 1.01.505 1.01 1.516 2.273 1.01 1.516 2.526 1.516 3.536 2.021 1.01.253 0-.505-.758-1.516a19.3 19.3 0 0 0-2.021-2.778c-1.507-1.26-3.531-1.766-2.268.002zm-96.99-89.918c-3.789 2.273-5.3 2.273-3.789 5.052 1.516 3.031 2.273 4.294 2.526 4.8s1.01-.253 2.021-2.778c1.01-2.273 1.01-5.557 1.515-6.314.258-.757-1.005-1.517-2.268-.757zm63.145-115.428c.505 1.515.758 4.041 0 4.294-1.01.253-1.516 2.021-1.768 3.789s-.758 4.041.253 5.3.253 1.515.253 2.778.253 4.294-.253 6.062-1.01 2.273-.758 4.041 0 2.273 0 5.052-.253 4.8 0 5.809c0 1.01.758-.505 1.01-1.01a2.8 2.8 0 0 1 2.778.253l.758 1.01s1.263.505-.505-3.536c-2.021-4.041-2.273-3.284-1.768-6.82.505-3.789.758-3.789 2.778-4.041s3.031 2.273 3.284 2.526-.253-1.01-.758-3.031a16.324 16.324 0 0 1-1.516-5.3c-.253-2.526-1.01-4.8-2.021-5.557s-.505-2.021 0-3.031a7.471 7.471 0 0 0 .505-4.294c-.253-1.768-.758-4.294-1.01-5.3s-1.516.505-1.516.505zm-1.768 40.918c0 1.263.253 2.273-.505 3.536s-.253 1.768-.758 3.536-2.778 0-2.778.505a3.522 3.522 0 0 1-1.01 2.273c-.505.505-2.526.505-2.021 2.526a26.28 26.28 0 0 0 1.516 3.789s1.263-1.01 1.515-1.263a10.936 10.936 0 0 0 1.263-.253s-.253-.505-1.516-1.01a1.714 1.714 0 0 1-1.01-2.273c.253-.505 1.768 0 2.778 0s2.021-.758 3.284.253a9.994 9.994 0 0 0 3.031 1.515 10.826 10.826 0 0 1 .758-2.526c.505-1.01 2.273-.505 3.789-1.01 1.768-.505 3.031-.758 2.273-1.515-.505-.758-.505-2.273-.758-3.536s-1.516 0-2.273.253c-.758.505-2.021 0-3.031-.758-1.263-.758-3.284-3.536-4.041-4.8.509.255-.754-.503-.501.76zm-5.051 17.68a3.649 3.649 0 0 0-1.01 3.284c.253 1.515 1.516 0-.253 4.8s-2.526 5.809-4.294 7.072-3.283 1.263-3.789 1.01c-.758-.253.253-1.515.758-1.768s-1.516-.505-2.273-.253c-.758 0 0 1.01-.253 1.768 0 .758-1.768 2.778-1.516 3.789s.253 1.263-.758 1.515-1.768-.758-2.021-1.01-1.768.253-3.789.505-2.526 1.01-3.283 2.526-2.778 1.768-4.294 2.273-1.01 2.778-2.526 3.284c-1.515.758-1.515 2.021-1.768 3.031 0 1.01 1.01.253 1.263.253s.253-1.515 1.263-1.263 1.01.253.505 1.263a23.434 23.434 0 0 1-1.263 2.526c-.505 1.01.253 1.515 1.01 2.273.758 1.01 1.515-.253 3.031-2.021s1.768-2.021 1.516-4.041-.758-2.021-2.021-2.526-1.516 0-.253-1.515 2.021 0 2.778-.758c1.01-.758 3.031-.758 5.3-1.263 2.02-.505 4.041-1.263 4.294-.505 0 .758.758 3.031.758 3.536s1.516-.758 2.778-1.263c1.516-.505 0-.758 0-1.768a1.4 1.4 0 0 1 .758-1.515s.758 1.515 3.031.505 2.526-1.515 3.031-1.263a1.818 1.818 0 0 0 2.021.253c1.01-.505 1.01 0 1.01.505-.253.505 2.778-1.01 3.284-1.263.758-.505.253 0 0-1.768s-1.01-1.768-.505-4.041a31.662 31.662 0 0 0 .505-3.789 1.927 1.927 0 0 1 1.01-1.768c.253 0 .253-1.768 1.01-2.778s.505-1.515.505-3.536c0-2.273-1.263-1.768-1.263-3.284a21.134 21.134 0 0 1 .253-3.031s-2.526 1.01-2.778 1.515l-.253.505a1.426 1.426 0 0 0-1.505.001zm-16.165 23.995a54.092 54.092 0 0 0-5.809 1.263c-1.516.505-1.768 1.263-1.516 2.778a25.788 25.788 0 0 0 1.01 3.789c.253.758 1.01 0 2.526-.758s1.263-3.031 2.778-3.031.758 1.515 2.778-.758c1.768-2.273.505-2.273.505-3.536-.247-1.008-2.268.255-2.268.255zm161.149-118.962c-2.778-.505-3.536-1.01-3.789-.253-.253 1.01-.505 1.263 1.263 2.021 1.768.505 2.526-.505 4.294.758 1.516 1.263 2.021 1.263 3.283 1.01a3.607 3.607 0 0 0 1.768-.758 58.716 58.716 0 0 0-6.819-2.778zm-31.32-42.686c-1.01.253-1.768-.758-1.516 1.768s.758 2.778 4.041 2.273c3.031-.505.758 0 5.052-.505 4.294-.253 5.3-1.01 5.3-1.01a5.549 5.549 0 0 0-2.021-2.273c-1.516-1.01-3.284.758-6.82.253a36.864 36.864 0 0 0-4.036-.506zM929.844 84.8c0 1.01 4.294 3.536 5.809 4.294s2.778.505 6.062 0c3.283-.253 3.536-1.768 4.041-2.526s-1.515-.505-3.789-1.01-4.041.505-4.8 0 1.263-.758-.758-1.515-2.526.253-2.778 0c-.505-.253-.505-1.01-1.516-1.01s-2.271 1.012-2.271 1.767zm-16.923 5.56c-1.516.505-1.263 1.01.253 2.526 1.768 1.515 1.01 1.01.505 2.021-.758 1.01 0 0 2.526 1.01s3.283 3.031 4.8 3.536a3.5 3.5 0 0 0 2.526 0 13.985 13.985 0 0 0-2.021-3.536c-1.515-2.021-4.546-2.526-5.052-4.294-.505-1.516-1.516-2.023-3.537-1.263zm15.407-7.83s-2.273-1.263-5.557-3.536c-3.284-2.021-4.546-2.526-5.809-2.778-1.01-.253-1.01 1.263-1.263 2.273-.505 1.01-.758.758-2.526 0s-3.536-2.021-5.3-2.526-2.778 1.01-4.8 3.031-.758 2.526 1.516 5.557c2.526 3.031 3.536 3.031 5.557 2.021 2.02-1.263 1.515-2.021 2.778-1.263 1.516.505 6.314-.505 6.567-.505s-.252 2.778 1.768 2.021c2.273-.758 4.041-1.01 5.052-2.273zM779.055 25.195c-.505.505-4.294.253-6.315 3.284s-3.283 1.01-4.294 2.778a26.414 26.414 0 0 0-1.768 4.041s1.768 2.021 3.536 1.768a8.4 8.4 0 0 1 6.82 3.031c1.768 2.526 3.031 2.526 7.325 3.031 4.294.758 2.273 1.263 4.546 1.01s5.3.253 4.546-.758a4.612 4.612 0 0 1-1.01-4.041c.253-2.273 2.273-2.021 0-3.536a4.143 4.143 0 0 0-3.789-.505c0-.253 2.021-1.01 1.263-1.01s-4.8-.253-5.3-2.526 1.01-2.526 1.768-2.526c.758-.253.505-.505-1.768-2.021a37.343 37.343 0 0 0-5.3-3.284c-.765.506.245.758-.26 1.264zm21.469 16.165c-1.768.253-3.031 2.021-4.041 3.536a36.739 36.739 0 0 1-4.041 4.546c-1.263 1.01-.758 1.263 1.01 2.021 2.021.758 5.3-1.263 6.314-1.263s1.768 1.515 4.8 1.01c3.031-.253 7.83-1.01 5.557-2.526-2.273-1.768-1.515-.758-4.041-2.778a11.87 11.87 0 0 0-5.809-2.273s5.3-1.768 4.041-1.768c-1.014-.253-3.79-.505-3.79-.505zM667.668 15.091c-3.031 1.01-2.021 1.515-3.789 3.284-2.02 1.515-.758 2.021 3.536 1.01s4.546-1.515 7.072-2.778c2.779-1.263-2.273-3.284-6.819-1.516zm6.82 7.577c-2.778 1.263-2.021 2.526-1.263 3.536s2.778-.758 3.283.505.758.758 3.284-1.01 1.768-1.263.758-3.031c-1.011-2.02-1.263-2.268-6.062.001zm-15.912-.758c-1.768.758-1.768.758 0 1.515s5.809 1.515 8.083 0 2.021-1.01-.758-1.515-5.301-1.01-7.326.001zm-26.521 3.284a37.886 37.886 0 0 1 7.577 0c2.273.253 1.516 2.273-2.778 2.526-4.041.505.505 1.01 3.284 1.01s1.01-2.526 3.536-3.284 4.041-.253 6.82-1.263c3.031-1.01-1.768-2.021-5.052-2.021a70.665 70.665 0 0 1-7.325 0c-2.778-.253-5.3 1.01-8.082 1.515-6.063.76-.759 1.518 2.019 1.518zm21.974.758c-2.526 0-8.335 1.263-3.283 1.768s4.546.758 6.567 0-.758-1.768-3.284-1.768zm17.428 1.01c-3.536-1.263-3.536-.758-6.314-.505-2.778 0-3.789 1.768-2.021 2.526a7.117 7.117 0 0 0 4.546.253c1.515-.253 1.263-.758.505-1.01-1.01-.506 5.304-.758 3.284-1.263zm14.65-4.294c-2.779.253-2.779.758-3.031 1.768-.253.758.505.758 3.284.253a13.24 13.24 0 0 0 6.062-1.768c1.768-1.01-.505-3.536-.505-3.789 0-.505-2.526 1.263-3.284 2.021-.759.253.757 1.011-2.527 1.516zM475.2 176.489c-1.263 3.789-3.536 5.557-1.01 4.546s5.3-4.294 5.052-1.515-2.778 2.273-2.021 5.052.253 2.526 4.546 3.536.758.758 2.021 3.283c1.01 2.526 1.768 3.284.758 4.041-1.263.758-4.546-2.273-4.8-1.01s.505 2.273 1.263 4.041-.505 2.778-3.031 4.041-.253 2.021 1.515 1.768 6.82-1.01 6.062.758-3.283-.253-4.8 2.526c-1.768 2.778-7.83 5.3-4.8 5.3 3.284-.253 2.778-1.01 12.376-2.526 9.6-1.263 3.031 0 9.345-2.021s4.294-2.526.758-2.021 2.273-3.536 1.516-7.072c-.758-3.789-3.031-.253-4.546-2.526s-1.263-3.031 1.516-2.273 2.526-.505-3.031-4.041-2.021-2.778-4.546-5.809-6.82-2.526-6.82-2.526a9.057 9.057 0 0 0 3.031-3.284c1.01-2.021 1.263-2.021 2.526-4.546s-1.263-2.273-4.041-1.768c-3.031.758-3.789 1.01-3.284-.253s1.01-1.515 2.273-3.031 1.515-2.273-.758-1.515a16.763 16.763 0 0 0-5.052 1.515c-3.025 1.521-.752 3.541-2.018 7.33zm-6.82 8.84c-4.546 1.768-3.284 2.778-2.526 3.536s2.021-.505-2.021 1.768-4.294 5.052-2.021 5.557 2.021-1.263-.505 3.031c-2.273 4.294-3.789 7.325.758 6.062 4.8-1.01 6.062-3.536 8.082-3.789 2.273-.253 2.526-2.021 2.526-4.8s-1.515-2.778.253-5.052 2.021-4.546-1.516-5.809c-3.026-1.009-.248-1.514-3.026-.504zm55.571 60.371c-.253.505.253 2.273-1.516 3.284s.758 2.021 1.516 3.284c.505 1.01 1.263-3.536 1.263-5.809-.253-2.279-.505-2.532-1.263-.759zm-.758 9.093c-3.031 1.263-3.031 2.526-3.536 4.546-.253 2.273 2.273.505 1.768 2.273-.758 2.021 0 3.031 3.031 1.01 3.031-1.768 1.263-3.536 1.768-5.809.253-2.025.758-4.045-3.031-2.025zm44.959 23.49c-2.526-.253-3.789 1.263.758 1.768a30.474 30.474 0 0 0 8.083.253c1.515-.505.253 0-2.021-1.515s-3.536-.258-6.82-.511zm24.5 1.516c-3.536-.758-2.526 3.536 1.01 2.778s2.273.253 3.789-2.526c1.768-2.531-1.01.5-4.799-.258zM504.5 259.84c-2.778.253-3.031 1.263-.758 2.021 2.273.505 2.021 0 3.284-1.01s-1.261-1.264-2.526-1.011zM330.476 207.3a28.321 28.321 0 0 0-6.314 7.83c-2.526 4.546-2.273 4.041-4.546 6.567-2.526 2.526-1.263 2.021 6.314 3.284 7.577 1.515 6.82 2.526 8.588 2.021s2.021 1.01 2.021 2.526 1.515.758 2.526-1.768c.758-2.526-.758-6.82-2.273-9.345s-2.021-2.526-4.294-1.768c-2.526.758-1.516-.505-2.526-2.526-.758-2.021-2.273-.505-.253-3.284 2.02-2.523 2.525-4.796.757-3.537zm-229.594-5.052c0 2.273 2.526 6.567 4.546 7.83s1.515.505.758-2.273-.253-2.778-.505-4.546c-.505-2.017-4.799-2.017-4.799-1.007zm12.629 13.134a23.948 23.948 0 0 0 4.546 4.546 14.664 14.664 0 0 0 6.062 2.778c2.778.758 4.041-.253 2.273-1.768s-.253-1.515-3.536-2.273-3.789-.505-5.557-1.515c-1.514-1.259-4.799-3.027-3.788-1.764zm-69.964-26.769c-2.021-.505-2.778-.505-4.294.505s-1.768 2.021-1.01 3.284.253.505 2.021-.758 1.01-1.515 3.284-2.021 1.768-1.263 1.768-1.263a1.969 1.969 0 0 1-1.769.253zm-.758-2.778c-1.515.758-1.768 1.515-.253 1.263s1.263-1.263 2.273-1.01 1.263-.253 1.263-.253a4.354 4.354 0 0 0-3.283-.001zM2.882 179.52c-2.021 1.01-3.789-.253-2.526.505a8.385 8.385 0 0 0 4.044 1.263c1.263-.253 2.021-.253 1.515-.758a1.391 1.391 0 0 1-.505-1.263c-.002-1.01-.51-.757-2.528.253zm636.245 261.671c-2.273 4.8-6.82 2.526-10.356 6.062-3.789 3.536-3.031 2.526-.253 7.325s-2.273 4.294-3.536 10.1 1.515 4.8 3.031 9.6 2.273 3.536 5.052 2.778a19.875 19.875 0 0 0 4.8-2.021 77.006 77.006 0 0 1 2.273-10.608c1.768-6.315 3.031-10.861 3.536-15.155.253-4.294.758-7.072 1.516-5.809 1.01 1.263 1.01 1.263 1.01-.758s-1.01-7.83-2.778-9.093c-3.538-2.272-2.022 2.527-4.295 7.579zm3.284-329.362c-3.031.758-4.546 2.526-2.273 3.284s2.021.253 5.557-1.01c3.787-1.264-.254-3.032-3.285-2.274zm56.325-54.809c-1.01-1.515-2.021.505-12.629 5.052s-10.356.758-20.459 8.335c-9.851 7.83-7.577 6.82-8.335 11.619-.505 4.8-2.778 2.778-3.789 7.072s-6.062 4.546-3.536 8.082 5.809 5.557 11.113 7.072 6.82 0 5.557-.758c-1.263-.505-5.052-6.82-4.294-14.144.758-7.072 3.536-6.062 5.809-8.84s8.335-9.6 12.124-11.871 13.892-5.557 18.943-7.325c.253 0 .253 0 .505-.253 4.547-4.042 0-2.274-1.01-4.042zm-28.541 48.242c-1.263.253-1.768.253.505 2.526s4.294 4.041 3.536 1.01-2.779-3.789-4.042-3.536zm37.886-21.722c-1.768-.758-2.526-1.515-3.031-.253s2.021 3.031 4.041 3.536c2.273.253.509-2.523-1.01-3.283zM312.29 218.164c-2.526-1.263-5.052-2.273-6.82-2.273s.253 1.768 3.031 3.283c2.779 1.264 5.305-.252 3.789-1.01zm-6.062 10.861c.253-2.021-1.515 2.526.505 3.536s2.778 1.263 4.041 0 .253-.505-1.515-.758c-1.515-.503-3.03-1.01-3.03-2.778zm752.936-73.753a16.669 16.669 0 0 1-5.557-.505 11.76 11.76 0 0 1-1.01 3.789 2.272 2.272 0 0 0-.253 2.526s-3.031-1.263-4.8-2.021-3.536 0-4.547-2.778-4.041-2.273-6.567-2.273-1.768-3.031-1.768-3.031h-1.516c-1.515 0-1.263 3.536-3.031 4.8-2.021 1.01-7.83 1.768-7.83 1.768s3.789 2.778 4.546 5.052a17.412 17.412 0 0 0 2.273 4.294s-.253 1.01-4.8.253-4.294 1.01-9.346 2.778c-4.8 2.021-10.608 5.052-11.871 6.062s-1.515.505-5.809-.505-5.052 1.263-6.314 1.768c-1.01.505-.758-2.526-.758-2.526a8.726 8.726 0 0 0-3.536 1.01c-19.7 10.1-6.062 9.345-6.82 11.366l-2.021 7.83c-2.778 8.588-4.8 4.041-7.325 10.861-7.83 21.722-12.124-3.284-12.124-9.093 0-3.536-.758-8.082 1.515-9.093 19.2-9.093 1.768-1.263 19.954-13.639 5.809-4.041 2.778-6.314 4.041-7.577a10.132 10.132 0 0 1 3.284-1.515l-3.284-.253c-3.284-.253-3.284.505-5.809 3.031-2.526 2.778-4.546 3.284-4.041 1.01.505-2.021.505-4.294-1.263-3.031-2.021 1.01-2.778 1.01-6.314 1.768a18.982 18.982 0 0 0-10.608 6.314c-3.284 4.041-1.263 3.536-.253 4.546s-5.052.758-8.083.505-1.263-.758.253-1.263c1.768-.505-2.526-1.01-6.315-1.768s-2.273.758-4.546 1.515c-2.273 1.01-2.273-.758-3.284-1.01s-6.062-.505-9.6-1.01-3.284.253-4.294 1.515-7.577 7.072-10.356 10.356-6.314 4.041-9.6 7.072-3.789 2.778-1.01 3.283c2.526.505 3.031.253 3.283 2.526.505 2.526 1.516 3.284 4.294 3.284s2.02.758 2.526-1.263-.758-4.546 1.515-2.526c2.273 1.768 4.294 3.284 4.8 5.809.758 2.526-.253 4.546-1.263 9.093-1.263 4.294-1.515 10.861-3.284 13.892-1.515 3.284-3.031 5.557-4.8 9.093s-10.608 12.376-12.629 13.134-3.284.758-4.294-.758c-1.01-1.768-1.515-1.515-3.789.505s-3.283 3.284-4.041 6.314c-.758 3.284-2.778 3.284-4.8 5.557-2.021 2.526-2.526 1.768-1.01 4.546s3.789 5.557 4.041 8.335-1.263 6.567-2.273 8.082c-1.01 1.768-5.557 2.526-5.3 1.768a64.324 64.324 0 0 0 0-7.072c-.253-2.273-2.021-2.273-1.263-3.031.505-.758 3.031-2.021 1.263-3.536-1.768-1.768-3.031-.253-3.789-2.273s.253-3.536 0-4.294c-.505-.758-1.768-1.515-4.294-1.768-2.778-.253-3.284 2.526-3.789 0-.505-2.273.253-2.526-1.01-3.536s-2.273-.253-5.3 2.273-3.789 2.021-6.314 3.284c-2.526 1.01-2.526 1.768-2.021 2.778.505.758 2.778 4.8 4.546 5.052 1.768.505 3.031-.758 5.809-.758s3.284.505 2.526 1.515-2.526 2.021-6.062 5.557c-3.283 3.284-2.273 2.778-1.263 4.041a24.947 24.947 0 0 1 4.041 5.809c1.263 2.526 0 3.536-.253 5.052a6.831 6.831 0 0 0 1.768 6.314c2.273 2.526.758 1.515.505 2.526-.253.758-4.041 7.83-5.809 11.366s-1.768 3.789-7.325 7.83-8.083 4.294-11.114 4.8a42.439 42.439 0 0 0-7.072 2.021c-1.516.758-1.01 2.021-1.01 2.778-.253.758-1.515 0-1.263-1.01.253-1.263 0-2.021-.758-2.526a5.369 5.369 0 0 0-5.809 1.01c-2.526 2.526-5.557 2.526-6.567 5.557s-.758 2.021.253 3.284 6.567 6.567 7.83 9.345a16.7 16.7 0 0 1 1.516 7.83c0 3.031-6.314 8.588-9.093 10.608-2.778 1.768-3.283 3.536-3.031.758.505-2.778-1.263-4.546-3.283-6.82s-8.083-4.041-9.093-4.294.505-2.021-.253-2.021-2.526-.505-2.273 2.526c.253 2.778-1.768 2.021-2.273 4.8s-1.01 5.809.758 5.557 1.516 2.526 2.778 5.557.758 1.263 4.294 4.294c3.536 2.778 2.526 2.273 3.283 5.052s.505 4.294 2.273 7.072c1.768 2.526 1.768 3.031-1.01 1.768a19.1 19.1 0 0 1-6.314-5.052c-1.01-1.768-1.768-6.314-2.526-8.588s-5.3-4.8-6.82-6.567c-1.516-1.515-.505-2.778.253-6.567s-.253-7.325-.505-9.345a50.988 50.988 0 0 0-3.031-10.608c-.758-2.021-.505-1.768-1.768 0s-2.273 3.031-3.536 3.031-3.284-.253-3.031-1.01 1.516-4.041 1.01-5.3-1.516-5.052-3.283-6.314a14.685 14.685 0 0 1-5.052-6.314c-1.263-3.284-1.516-2.273-3.789-.505s-7.325 1.768-9.851 2.021-.505 1.516-1.01 2.526c-.505 1.263-3.536 2.778-9.345 8.84s-6.82 6.314-8.083 6.82c-1.516.758-2.526.505-2.273 3.031a48.509 48.509 0 0 1 0 6.062c-.253 2.273-1.01 3.031-1.515 4.546s-1.263 4.041-1.516 5.3-1.516 2.778-3.283 4.294c-2.021 1.263-2.021 1.01-2.778-.758-.758-2.021-5.3-9.6-8.84-16.923s-2.778-8.588-3.031-10.608-.505-14.65-.253-15.66c0-.505-1.768 1.515-2.273 2.526s-.505 2.273-2.526 2.526-2.526.253-4.546-1.768-2.778-3.031-2.526-3.031a16.054 16.054 0 0 0 3.789-.758c1.263-.758.758-1.263.758-1.263a21.134 21.134 0 0 1-3.031.253c-1.768 0-1.01-.253-3.031-1.263-2.273-.758-2.778-1.01-3.031-2.021s-1.01-2.273-1.263-3.031-.505-.758-1.01-1.768c-.253-1.01-1.515.253-3.789.253s-1.768.253-4.8 1.263c-2.778 1.01-3.284.758-6.567.505-3.284 0-5.557-1.515-7.072-2.021s-2.021-.253-4.294-.758c-2.526-.253-2.021-1.515-2.526-2.526s-1.516-1.263-4.8-1.01a9.644 9.644 0 0 1-5.052-.505c-1.768-.505-2.021-1.01-3.536-2.526s-1.01-.253-2.021-1.01a7.513 7.513 0 0 1-2.778-4.041c-.758-2.021-.505-2.526-1.516-3.536s-.758-.758-3.536-.758-1.515.253-1.768.253c-.253.253-1.263 1.515-2.021 2.273-.758 1.01.505 2.273 1.768 3.536 1.01 1.263.253 1.263 2.021 3.031 1.768 2.021 1.263 1.768 2.526 4.546s2.021 3.536 2.273 4.294.505-.253.758-1.01a16.119 16.119 0 0 0 0-3.536 16.277 16.277 0 0 1 1.01 3.031 26.538 26.538 0 0 1 .505 3.284c.253 1.263 0 1.01 2.273 1.01a22.616 22.616 0 0 0 5.809-.505c2.273-.505 3.536-2.778 4.546-3.284 1.01-.758 1.01-2.778 1.768-2.526s0 2.526.758 4.294c.758 1.515.758 1.01 2.526 1.768s2.021 1.01 3.789 1.768.505.758 1.515 2.526.758.758 1.768 1.263.505.253 0 2.273-.758 2.021-2.273 3.789c-1.516 1.516-1.516 1.01-1.768 1.01s-.758-1.263-.758-1.263a10.825 10.825 0 0 0-1.01 4.294c-.253 2.273.758 1.515-2.021 2.526s-4.294 1.515-5.3 2.526-1.01 2.021-1.768 2.778c-.505.505-1.516 0-3.284.758a6.54 6.54 0 0 0-2.778 1.768c-1.515 1.263-.253 1.01-2.273 1.768s-5.557 2.526-7.325 2.778-1.515.758-2.021 1.263c-.505.758-.505 1.01-2.778 1.263a37.958 37.958 0 0 0-6.567 1.263c-1.516.758-3.536 2.273-5.052 2.021s-1.01-.253-1.515-1.768a15.268 15.268 0 0 1-1.01-4.546 20.247 20.247 0 0 0-2.273-7.577c-1.263-2.021-1.263-2.273-2.526-4.546s-2.273-4.041-3.536-5.052a11.352 11.352 0 0 1-2.273-1.515c-.505-.758-.253-2.778-.758-4.8-.505-1.768-1.01-3.789-2.021-4.8a18.881 18.881 0 0 1-3.536-4.546c-1.263-2.273-1.263-2.526-3.031-5.809-1.768-3.536-2.526-3.789-3.536-6.062-1.263-2.273-.505-1.768-.758-3.284-.505-1.263-1.515 2.273-2.526 3.031s-1.263.253-2.021-1.768-1.263-3.789-1.768-3.031-1.01 1.515-.253 3.789 1.01 1.768 2.021 3.789 3.536 7.325 4.8 9.345a14.516 14.516 0 0 1 1.768 4.294c1.01 3.284 1.516 3.536 3.031 5.052 1.263 1.263 1.01.758 1.768 2.778.505 2.273.253 4.8.505 6.062 0 1.263.758 2.021 2.526 3.284 1.515 1.263.758.758 1.515 2.273s1.516 3.536 2.021 4.8a4.705 4.705 0 0 0 2.273 3.031c1.263.505 1.516.758 2.778 1.263s.758.758 1.768 1.768c.758 1.01 2.526 2.021 3.536 3.789s.253 1.263.253 3.031-.505 1.01.253 1.768a34.119 34.119 0 0 0 4.294 3.031c2.273 1.515.505.505 2.273.505 2.021 0 2.273-.505 4.546-1.01 2.021-.505 4.8-1.263 7.325-1.768a46.791 46.791 0 0 0 6.315-1.515c1.263-.505 1.263 1.01.253 3.283s-1.515 4.041-2.273 6.062c-.758 1.768-1.263 2.021-1.768 3.536-.758 1.516-4.8 7.577-5.809 9.345a24.9 24.9 0 0 1-3.284 5.052c-1.263 1.515-5.3 4.546-7.325 6.062s-1.516 1.516-2.778 3.284a101.324 101.324 0 0 0-6.82 8.588c-1.263 1.768-1.768 2.526-2.778 4.041-.758 1.768-3.284 4.294-3.536 5.557s-1.516 1.516-.505 2.526a5.7 5.7 0 0 1 2.021 2.778c.253 1.515-1.263 3.031-.253 5.557s.253.758 1.768 2.778 1.515 3.284 1.515 6.314a25.818 25.818 0 0 1-.253 7.83 29.723 29.723 0 0 1-1.768 5.052c-.758 1.768-4.294 3.031-6.314 3.789-2.021 1.01-2.021.505-3.031 1.768s-3.789 3.536-4.8 5.557c-1.01 1.768-1.768 1.515-1.263 2.778.253 1.263 1.263 2.526 2.273 4.8 1.01 2.021.253 2.021 0 3.789s-.253 1.516-.505 3.789-2.778 2.273-5.809 3.536-2.021.505-2.273 2.273a57.146 57.146 0 0 0-.253 6.82c0 2.021-1.01 1.263-2.778 3.536-1.516 2.273-2.273 3.536-4.041 6.314s-1.516 2.526-3.789 4.294-4.041 2.273-5.052 4.294-2.021.758-6.82 2.273-1.263.758-5.809 1.263a82.95 82.95 0 0 0-8.588 1.263c-2.273.505-2.021-.253-3.536-1.768s-1.768-1.515-2.273-2.778c-.758-1.263-.253-1.768-.505-4.041a7.621 7.621 0 0 0-1.263-4.041c-1.01-1.516-.758-1.768-1.768-4.041a24.344 24.344 0 0 0-2.526-4.546c-1.01-1.516-1.515-1.01-2.526-2.021s-1.01-2.021-1.263-3.536-.505-5.052-1.01-8.588c-.505-3.789 0-1.768-.758-3.284a43.238 43.238 0 0 0-2.273-5.557l-2.021-4.041a37.077 37.077 0 0 1-2.273-4.294c-1.01-2.273-1.01-1.263-1.263-2.021 0-.758.505-2.526.505-3.789a29.122 29.122 0 0 1 1.01-5.557c.505-2.273-.505-2.273.505-3.789a17.47 17.47 0 0 0 2.526-4.8c.758-1.768.505-1.768.505-4.041s-.253-2.021-1.01-4.041a71.59 71.59 0 0 1-1.768-7.072l-1.01-4.041a28.33 28.33 0 0 0-1.263-5.557c-.505-1.515-.758-1.01-2.021-2.021s-.505-.505-1.515-1.768-1.01-1.515-2.021-2.778a11.214 11.214 0 0 1-2.021-2.778c-.758-1.515-.505-.505-.253-3.031a71.761 71.761 0 0 1 1.263-9.6c.505-2.526.505-2.526-.505-3.536s-1.768-2.778-2.526-3.031-2.526.253-5.3.253-2.526-.758-3.789-2.021-2.778-3.284-3.284-3.789-1.516-.505-6.062-.253-1.768.505-5.052 1.01c-3.031.505-4.294 2.021-6.567 3.031-2.273.758-3.031.505-7.325-.253s-6.314 1.01-8.335 1.768c-2.021 1.01-3.283.505-4.8-.505a26.43 26.43 0 0 0-4.8-3.031c-2.273-1.263-1.768-1.768-4.294-3.031-2.273-1.263-1.515-1.263-3.536-3.031s-2.021-3.789-3.536-5.557a48.585 48.585 0 0 0-4.294-6.567c-1.768-2.021-3.536-6.062-4.546-7.325s-1.515-1.263-1.515-2.021c0-.505 1.768-4.041 2.526-5.809s1.01-1.515 1.263-2.778c.253-1.01-.505-4.294-1.01-6.062-.758-1.768-1.515-5.557-2.021-7.325s.253-1.768 1.01-2.778a37.886 37.886 0 0 0 3.789-6.062 48.824 48.824 0 0 1 3.536-6.062c.758-1.515 2.778-5.809 4.041-7.072a33.054 33.054 0 0 1 6.062-4.294c1.515-.758 2.526-1.01 2.778-1.768s.758-6.062 1.263-8.082c.505-2.273-.253-3.536 1.515-4.294 1.516-.758 4.294-2.526 5.557-3.284s1.516-1.768 2.273-3.536c.758-1.515 1.01-3.789 2.021-4.294 1.01-.758.758.253 2.021 1.263s1.515 1.01 2.273 1.01c.758.253 1.263-.505 2.778-.505a4.537 4.537 0 0 1 2.778.758c1.01.505.505.505 3.031-1.263a36.528 36.528 0 0 1 8.335-4.041 51.572 51.572 0 0 1 7.577-2.273c1.516-.253.758 0 2.526.758s2.021 1.01 2.273.505 1.516-2.021 2.273-2.021a14.71 14.71 0 0 1 3.536.758c2.021.253 2.778.253 3.536-.253a11.25 11.25 0 0 1 2.021-1.263 19.969 19.969 0 0 1 3.284 1.01c1.263.505 1.516.505 1.01 1.01a5.117 5.117 0 0 0-1.263 2.273c-.758 1.515-.253.758.253 2.273s1.01 1.515.758 2.526c-.253 1.263-1.516 2.273-2.526 3.284s-.758 1.263 1.516 2.526 1.768 1.01 4.294 2.273 2.778.758 5.809 1.768 2.778 1.01 3.789 2.273 1.01 2.526 3.031 3.031c1.768.758 3.789.758 4.8 1.263a14.323 14.323 0 0 0 3.284 2.021c1.515.253 1.515.505 2.021-.505.758-1.01 1.263-2.021 1.01-2.526s-1.01-1.263-.758-1.768a18.84 18.84 0 0 1 1.768-3.031c.505-.505 1.263-.758 3.536-1.01 2.273 0 3.789-.505 4.294 1.01.253 1.263.253.758 2.021 1.515s2.021.758 3.284 1.263c1.515.505.758 1.263 1.515 1.263a7.748 7.748 0 0 1 3.284.253 23.721 23.721 0 0 0 6.567 1.768c2.778 0 3.789-.758 4.041-1.01.505-.253 2.273-2.526 3.536-1.01 1.01 1.515 2.526 1.515 5.3 1.515 2.778-.253 2.778-.505 3.536-1.263a17.226 17.226 0 0 0 2.778-5.3c.505-1.768 2.021-6.062 2.526-7.83a7.735 7.735 0 0 0-.253-4.294 4.556 4.556 0 0 1 .505-3.031c.505-1.263-1.263-.505-2.021-.253s-1.01-.253-1.516-.505c-.758-.253-1.263-.253-1.768 1.01s-.253 1.768-2.778 1.768c-2.526-.253-2.273-.253-3.031-1.263s-2.273-1.263-3.536-1.515-1.263-.253-1.263.505 0 1.263-1.01 1.515a8.389 8.389 0 0 1-4.546-.758 15.851 15.851 0 0 1-3.789-2.778c-1.516-1.515-1.263-1.515-2.021-4.041s-.758-4.546-.253-5.3c.253-.758.758-1.01-.505-.505-1.263.253-2.021.505-1.263-1.263a3.131 3.131 0 0 1 2.526-2.273 15.611 15.611 0 0 1 3.789-.253c1.516 0 2.778-1.01 3.536-1.263.505-.253 1.768-.758 1.263-.758-.505-.253-2.526-.253-2.021-.758.253-.505.505-.505 1.516-.505s2.526-.253 3.789-.253 2.021.253 2.526-.505 1.01-2.021 2.021-2.526 2.021-.253 4.8-.505c2.526 0 2.273.505 3.031 1.263.758.505 1.516.253 2.526.505s.505.758 1.263 1.263c.758.253 2.526.758 4.294 1.263 2.021.505.758.253 3.031.253a19.172 19.172 0 0 0 4.041-.253c1.768-.253 2.526-1.01 4.041-2.021 1.263-1.01.505-3.031 0-4.546s-2.526-2.526-3.536-3.284-3.031-3.031-4.041-4.041-2.273-1.263-3.536-1.768c-1.263-.758-3.284-1.768-3.536-2.778-.253-.758.505-1.01 2.273-1.263 1.768-.505 1.263-.758 1.516-1.768s.505-1.01 2.021-1.515-1.768-1.768-2.021-2.273c-.505-.505 1.01-.505 2.526-.758s1.516-1.01 1.768-1.768c.253-.505.253-1.01-1.516-.758-1.768 0-3.789.758-6.82 1.515-2.778.758-1.515.758-3.284 2.273-1.768 1.263-1.768.758-1.516 1.515a3.381 3.381 0 0 0 2.021 2.526c1.768 1.01 1.01 1.01 1.515 1.01.505.253 1.768.253 1.263.505s-1.01 1.01-1.768 1.01-1.263.758-2.526 1.515a8.521 8.521 0 0 1-3.031 1.01c-1.01.253-1.768-.253-1.515-1.768.253-1.768-.505-.505-1.516-1.01l-1.516-.758a6.308 6.308 0 0 0 2.021-1.01 4.457 4.457 0 0 0 2.021-2.273c.505-1.263-1.263-.505-2.273-.758-1.263-.253-.758-.253-2.021-.505s-1.515-1.01-1.515-1.01a2.351 2.351 0 0 0 1.515 0c1.01 0 .758-.253 1.263-.758.253-.253.758-.505.253-.505a6.68 6.68 0 0 1-2.273 0 8.28 8.28 0 0 0-2.526 0c-1.263.253-.758.758-1.516 1.263a2.458 2.458 0 0 0-1.263 1.515 5.51 5.51 0 0 1-1.01 1.263 8.636 8.636 0 0 0-.253 2.778 2.868 2.868 0 0 1-.758 2.021c-.505.758-.505.505-1.515.758-1.01.505-.253.758-.505 1.768 0 1.01-.505 1.263-.505 2.526s-.505 1.263-1.263 2.021-1.01.758-1.263 1.768a9.808 9.808 0 0 0 0 2.778c.253 1.768.758 1.263 2.021 3.031s2.021 1.01 1.516 2.021c-.505.758-.253.505-2.021.253-1.515-.253-1.768 0-3.031 1.263-1.263 1.01-1.263 1.768-2.021 2.021-.505.505-.505-.758-.505-1.263-.253-.505-2.778-.758-4.8-1.263a15.656 15.656 0 0 0-2.778-.758 5.448 5.448 0 0 0-3.031 1.01c-2.021 1.01-1.516 1.768-1.263 3.031s1.516 1.768 1.263 4.8c-.505 3.284 1.515 1.768 2.526 3.789.758 2.021 0 1.768-.505 2.021s-1.01 2.021-1.515 3.536 0 1.768-.505 1.768-1.01.253-2.021-1.01-1.516 0-1.768-.758c0-.758-1.263-2.021-.758-3.789s1.01-2.021-.505-2.778c-1.516-1.01-1.263-1.01-2.021-3.031a16.335 16.335 0 0 0-2.273-4.041c-1.516-1.768-1.263-1.263-1.01-3.031.505-1.768.758-4.041-.253-5.052-.758-1.263-4.546-4.546-7.325-6.062-3.031-1.515-3.536-.253-4.8-2.778s-1.768-5.052-4.041-6.567-1.01-1.768-3.031-.758c-2.021.758-2.021 1.01-2.021 1.768a3.651 3.651 0 0 1 .253 3.031c-.253 1.515-.758 1.01 1.516 2.526 2.273 1.263 1.263 1.01 2.273 3.284a15.856 15.856 0 0 0 2.021 3.789 4.815 4.815 0 0 0 3.284 2.273c2.273.505 1.768 0 2.273.505s-1.516.758-1.01 1.01a12.312 12.312 0 0 0 2.778 2.021c1.768 1.01 3.789 2.273 4.041 3.284.505.758 2.021 4.294-.253 1.768s-2.273-1.263-3.031.253c-.758 1.768.505 3.031.505 4.294s-1.263.758-2.021 1.768-1.01 2.273-2.021 2.778c-.758.758-.505-.758-1.01-.758s-.758.505-1.263 1.768 0 1.768.253 3.284.758 1.768-1.01 1.515c-1.768 0-1.263-1.768-2.778-2.778s-2.526-.758-3.789-1.515.505-1.01 3.789-1.516 3.536-.758 4.546-1.515.758-1.01 1.768-2.526 0-2.021-.758-4.041a6.425 6.425 0 0 0-2.526-3.031 23.013 23.013 0 0 1-2.526-2.526 5.672 5.672 0 0 0-3.536-1.515c-1.516-.505-1.263-1.768-2.273-2.273s-1.768-1.768-3.789-3.536c-2.021-2.021-1.263-3.284-2.273-5.052s-2.021-3.031-4.041-3.031-3.536 1.515-5.809 3.536c-2.021 2.021-1.515 3.031-4.041 1.515s-3.284-1.263-5.052 0c-1.768 1.515-2.021 2.778-2.021 5.809 0 2.778-2.021 1.768-3.789 2.526-1.516.758-3.031 2.778-5.557 7.577s.253 2.526-.253 4.041.253 2.778-2.273 5.052c-2.273 2.021-1.263-.253-2.778 1.515a6.267 6.267 0 0 1-6.567 2.526c-3.283-.505-2.273.758-4.294 1.263s-3.284 1.263-2.778-1.01 0-2.021-3.789-1.768c-4.041.253-5.3 1.263-5.052.758a21.492 21.492 0 0 0 1.01-3.789c.505-2.273 1.01-3.031.505-3.031s-2.021.253-1.01-3.789 1.263-4.8.758-7.072.253-5.557-.253-6.82 1.01-2.778.253-3.536-1.515-1.768-1.01-1.768a31.615 31.615 0 0 1 5.557.505c2.778.505 5.557-.505 7.325-.253 1.515.253 5.052.758 8.588 1.515 3.536.505 3.284-.505 3.031-5.557s.253-7.325-.758-8.335-2.273-1.01-3.284-2.273-.253-3.284-2.778-4.041-5.052-.253-3.789-.758 1.768-.758.505-1.768-1.768-2.273-.758-2.273a27.9 27.9 0 0 1 4.041-.253 1.1 1.1 0 0 0 1.768.758c1.516-.758 3.536-1.263 3.031-2.273s-1.263-2.273-1.01-2.273.758 1.515 4.041 1.515 3.031-.505 2.778-1.768 2.273-1.263 3.789-2.526c1.516-1.01-.505-2.526-.253-3.536s2.273-1.768 5.557-2.021 2.778-.758 2.526-1.263 0-2.021.253-4.294-.253-2.778 1.516-4.041c1.768-1.01 1.263-.758 4.8-1.01s1.263-1.01 2.021-1.263c.505-.253 4.8-1.263 5.557-1.515s.758-.253 0-1.768-1.516-2.526-2.526-9.345c-.758-7.072-.505-7.072 3.789-8.335s3.283-.758 3.031 3.031c-.253 4.041-2.273 4.041-2.778 6.82s0 4.546 1.768 7.83c1.768 3.031 1.516 1.515 5.557 1.515 3.789 0 3.031 1.01 5.557 1.768s1.768-1.515 4.294-2.526c2.526-.758 2.021.505 7.83-.253 2.273-.253 3.031-.505 3.284-.505-.253 0-.758 0-.253-.253 1.263-.758 1.768-2.273 3.789-2.526s3.284.505 3.284-2.526-1.263-2.526-.758-4.8c.253-2.273.505-1.263.505-3.031.253-1.768-.253-2.273 2.273-2.778 2.526-.758.758 2.273 3.789 2.778 3.031.758 2.526 1.01 3.031-1.263s2.273-5.3.758-5.3c-1.516.253-1.768 0-3.284-2.273s-2.273-2.526-1.263-2.526a72.3 72.3 0 0 1 8.588-.758c4.547.253 5.809.505 6.062 0s-.758-1.01.758-2.021 6.567.505 5.809-.505c-.758-.758-5.3-2.021-8.335-1.515s-10.356 1.263-11.366 1.263-3.284-.758-3.789-1.515c-.505-.505-2.273-1.01-2.273-3.536 0-2.778 1.01-3.789-.505-6.314s2.778-4.8 5.809-7.577 2.273-5.052 4.041-5.052c1.768-.253 2.526-1.01 1.516-2.021-.758-.758-4.041-4.041-5.557-4.294s-3.789-2.021-6.314 2.021c-2.526 4.294.253 4.546.505 6.82.505 2.273-3.284 3.789-6.314 5.809-2.778 2.021-3.789 1.515-4.8 6.567-.758 5.052-1.768 5.3 1.516 7.072s3.789 2.526 2.273 4.294c-1.516 1.515-4.546 1.515-6.567 5.052s-1.01 5.3-2.021 7.072c-.758 1.515-3.284 2.273-3.789 4.041-.758 1.515-.758 4.546-3.536 4.294-3.031-.505-1.263-4.294-2.526-6.314s-2.273-3.789-3.789-6.062c-1.516-2.526-.253-4.8-1.768-6.062a6.423 6.423 0 0 1-1.768-3.789l-.505 1.263c-.505 1.263-.253 2.021-3.284 5.557a9.293 9.293 0 0 1-9.6 3.031c-2.273-.758-1.768-3.031-1.768-5.557s-.505-6.062 0-10.356 1.516-3.789 6.314-6.567c4.546-2.778 4.546-2.526 5.809-4.294 1.01-1.768 4.294-4.294 6.314-5.809s5.052-7.83 6.82-12.124 4.8-7.072 8.083-11.619c3.031-4.546 8.588-8.84 15.66-11.619 7.072-3.031 5.809-3.284 7.577-5.557 1.516-2.273 2.273-1.01 5.052-1.515s2.273 0-.505 2.778-4.041 5.557-1.516 3.536c2.273-2.273 4.041-4.8 7.83-4.546 3.536.253 2.273 0 5.809 1.515s4.041 1.768 2.273 3.031c-2.021 1.263-5.3 1.01-5.3 1.01a5.49 5.49 0 0 0 4.294 3.031c3.284.505 5.052-2.526 7.325-1.515s2.778 2.021-.253 1.768-3.789 1.515-.253 2.778a26.83 26.83 0 0 0 8.588 2.021c4.8.758 6.82 4.041 10.356 5.557s7.83.253 6.567 3.536 1.01 6.567-5.3 8.083-6.062-.505-11.366-2.021a56.361 56.361 0 0 1-8.84-3.284 28.144 28.144 0 0 0 3.789 4.041c2.526 2.273 2.778 4.294 2.526 8.335s-1.263 5.3 2.778 7.325 3.536 1.515 4.8 1.01c1.263-.253 3.536-.758 3.031-1.263a6.857 6.857 0 0 0-2.273-2.526c-1.263-.758-1.515-2.273 0-2.778 1.263-.758 2.778.758 5.809.505s0-1.01 1.516-2.526 1.515-4.041 5.052-5.557c3.536-1.263 7.325.758 8.335-.758s2.021-3.284 0-5.557-3.536-3.031-2.273-4.294c1.263-1.01 3.536-4.041 4.8-2.526 1.01 1.768 4.041 3.536.253 3.284-3.536-.253-1.01 5.3 2.273 5.052s3.031-1.263 5.809-2.526 7.83-5.557 11.619-6.82 4.546-1.01 6.062-.253 1.516 1.768 5.557 1.01 5.3-1.768 9.093-2.526-.253 1.263 1.516 2.021c1.768.505 2.021 1.01 3.284.253 1.263-1.01 5.557-2.273 3.536-3.789s-3.284-2.526-3.284-2.526a5 5 0 0 1 5.052-2.778c3.536.253 9.093 3.536 12.629 6.062a56.22 56.22 0 0 1 7.83 7.577s1.516-2.526.253-7.072c-1.263-4.294-4.546-3.284-4.546-7.577s-3.031-3.031-2.021-6.062 4.041-4.041 4.8-7.83 1.516-6.82 4.041-6.82c2.778 0 8.335.758 8.335.758a23.143 23.143 0 0 1-2.273 8.588c-2.273 5.052 1.01 5.809.505 11.871-.505 6.314-.505 7.072.758 8.588 1.515 1.515 4.294 3.284 3.283 6.062s-1.516 4.294-5.557 6.062c-3.789 1.515-8.84.758-7.072 1.768a13.772 13.772 0 0 0 6.82 2.526c2.526.505 1.263-.253 3.283-1.768 2.021-1.768 6.82-5.052 6.567-6.567s-2.778-4.041-1.01-5.3 2.526-3.031 5.052-1.515c2.778 1.515 5.3 7.325 5.3 7.072s-.505-5.557-3.789-8.84-8.335-.253-8.335-3.031 1.516-6.567 1.01-9.6c-.253-3.031-1.515-6.062.505-8.84a9.085 9.085 0 0 0 2.021-4.8 13.592 13.592 0 0 1 .253 5.557c-.758 3.031.253 5.052 1.768 5.052s8.083 0 4.546-1.01-4.546-2.021-1.01-4.041 3.284-.758 8.588.505c5.052 1.263 6.314 2.021 8.082 2.021s1.516-.253.758-1.768a5.831 5.831 0 0 0-3.031-3.536c-1.516-1.01-2.778.253-3.284-1.263s-1.516-5.557-2.021-7.072 1.263-.253 4.041-.253 10.355-.517 16.167-.517c5.809-.253 0-6.062-.253-10.356-.505-4.294 10.608-4.294 16.165-5.3 5.557-.758 11.619-.505 21.974-3.031 10.1-2.526 3.536-2.021 5.052-4.8s4.041-3.284 7.072-3.284 5.809.505 4.546 1.01c-1.01.505-4.546 2.021.758 3.284 5.3 1.01 3.789 1.01 1.01 2.021s-.505 2.778 4.8 2.778 2.273-.505 1.263-2.273c-.758-1.768.758-1.01 5.052-.505 4.294.758 6.062 1.515 8.588 3.789s2.778 1.768 3.789 4.8c.758 3.031 0 2.526-3.789 5.557-3.789 2.778-6.062 2.778-11.366 6.314-5.3 3.284-4.041 5.052-7.072 7.325s-2.273 1.515 4.041 0 9.6-2.526 12.882-2.273 4.8 1.515 7.072 1.515c2.526 0-.253.505 7.325.505s6.567 0 3.789 2.273.505 2.778 3.789 2.778 7.577.253 10.608-.253.505-2.778 4.041-3.031c3.789-.253 4.8-.505 8.84-.505s2.778 1.515 4.041 3.031 3.284 2.526 2.021 5.3-2.021 3.031-1.263 6.82c.758 4.041 2.778 4.546 5.052 5.3 2.526.758 2.526-3.536 4.8-5.052s2.778 2.778 5.557 2.273a14.429 14.429 0 0 1 8.083.505 14.616 14.616 0 0 0 7.577.505c3.284-.758 2.273-2.021 1.01-4.041-1.01-2.021-1.263-1.768.758-4.041 2.02-2.021 3.536-1.01 10.1.758 6.82 1.768 4.546 1.768 8.335 2.778s2.526.758 8.335 3.536c5.809 2.526 4.546 5.809 7.325 7.577s2.778 0 8.083-.505 5.3.758 11.113 2.273 4.294 3.536 4.294 5.052c0 1.768-1.516 3.031 2.021 3.789s5.052 1.515 8.083.758.252.758 7.325.758c6.82 0 4.546-.758 6.567.758s2.526 4.294 6.062 4.041c3.284-.253 3.031-.253 1.768-3.284s-2.273-3.536-.253-3.284c2.021 0 6.062 1.01 13.639 2.273s7.83 2.526 13.892 6.314 7.83 4.294 12.376 7.577a7.226 7.226 0 0 1 2.021 1.768s.505.253 2.273 1.01c4.8 2.273 4.041 1.515 8.082 3.536a50.7 50.7 0 0 1 7.578 4.8s2.017-5.554-1.267-5.049zm-402.1 81.583s-.505.505 2.021-1.263c2.526-2.021-1.01 0-2.526-.505-1.263-.505-1.768-1.01-1.263-2.778s-.253-1.768-1.515-4.041c0 0-.758-.505-2.526.505-1.516 1.01-2.526-1.01-4.546-.253s-4.041.505-5.3 3.284c-1.263 3.031-2.526 1.01-3.031 3.536s-4.041 3.789-4.041 3.789 1.516 1.515 2.526 2.778.253.505 1.516 5.052c1.01 4.546 2.021 4.041 3.536 4.8s4.041 2.273 4.041 2.273-1.516-1.01-1.516 1.515-2.273 4.041-2.021 7.577-3.284 6.82-.505 7.072 2.021 1.515 4.8 2.273a30.3 30.3 0 0 0 9.093 1.263c4.294 0 2.021-1.768 1.263-4.294a29.609 29.609 0 0 1-1.01-6.82c-.253-2.778-1.263-2.021-2.021-3.789s.253-2.778 2.526-2.778c2.021 0 2.273 0 1.263-2.021-1.01-1.768-.505-2.526-1.768-3.284s-2.021 2.778-2.021 2.778-.758-.758-.505-4.294c.253-3.283.505-1.768-.505-2.526s-1.768.253-3.031-2.021-.253-1.768-1.768-4.546-.758-1.263 1.01-1.263.758-.505 0-1.263c-.758-1.01-1.516-2.273.758-2.021s5.3.758 6.567.758c1 .252.495.507.495.507zM335.528 113.092c-.758 1.263 1.263 3.031 2.778 2.526s2.021 0 3.031-.758a1.783 1.783 0 0 0 0-2.778c-1.01-1.01-.505-1.515-.758-1.768-2.273-1.014-4.294 1.262-5.051 2.778zm426.1-88.655c-2.273 0-4.8.253-2.778.758 2.273.758 1.263 4.294 5.3 2.273s3.284-2.273 6.062-3.284c2.778-1.263 1.263-.505-2.273-1.515-2.018-.253-4.039 1.768-6.312 1.768z" data-name="Path 407" transform="translate(.068 .125)" style="fill:#e7e7e7;opacity:.5"/>
</svg>
