<svg width="284" height="79" viewBox="0 0 284 79" fill="none" xmlns="http://www.w3.org/2000/svg">
<path d="M15.5983 13.1023V23.3229H25.5126V30.9878H15.5253V46.5489C15.4292 47.2048 15.48 47.8739 15.674 48.5078C15.868 49.1416 16.2004 49.7242 16.6471 50.2135C17.0938 50.7027 17.6436 51.0865 18.2567 51.3367C18.8697 51.5869 19.5306 51.6974 20.1916 51.6602C21.6884 51.6173 23.1572 51.2437 24.493 50.5661L26.9721 58.1579C24.6378 59.1334 22.1389 59.6535 19.6098 59.6905C11.8097 59.9828 6.70554 55.5292 6.70554 46.5489V30.9977H0V23.3229H6.70554V14.0503L15.5983 13.1023Z" fill="white"/>
<path d="M41.036 8.13672V28.1395C42.3232 26.3879 44.0201 24.9794 45.9777 24.0376C47.9353 23.0958 50.0938 22.6495 52.2638 22.7379C62.4701 22.7379 66.9904 29.6741 66.9904 40.2601V59.2419H58.0957V40.3332C58.0957 33.7623 54.6699 30.9875 49.9307 30.9875C44.6826 30.9875 41.036 35.4411 41.036 40.8427V59.2398H32.1412V8.13672H41.036Z" fill="white"/>
<path d="M84.1982 13.1021C84.1982 20.0383 73.7001 20.0383 73.7001 13.1021C73.7001 6.16585 84.1982 6.16585 84.1982 13.1021Z" fill="#27BECE"/>
<path d="M83.3953 23.1035H74.5006V59.2421H83.3953V23.1035Z" fill="white"/>
<path d="M117.878 59.2423V40.4066C117.878 34.9319 114.888 30.7706 109.2 30.7706C103.733 30.7706 100.013 35.3703 100.013 40.8431V59.2402H91.1917V23.1787H99.1377L99.7294 28.0708C101.22 26.404 103.038 25.0637 105.071 24.1342C107.103 23.2046 109.305 22.7059 111.539 22.6692C119.996 22.6692 126.776 29.0208 126.776 40.3375V59.2461L117.878 59.2423Z" fill="white"/>
<path d="M143.102 8.20996V37.7045L155.204 23.2496H165.854V23.761L151.2 40.1871L167.895 58.5843V59.242H157.178L143.108 42.9621V59.2439H134.214V8.20996H143.102Z" fill="white"/>
<path d="M171.97 74.2817V23.2516H180.281L180.872 28.2168C182.221 26.3991 183.982 24.9284 186.01 23.9258C188.038 22.9231 190.275 22.4172 192.536 22.4497C203.618 22.4497 210.98 30.6993 210.98 41.2853C210.98 51.7982 204.346 60.1209 192.836 60.1209C189.045 60.1209 183.432 58.9537 180.88 55.0096V74.2836L171.97 74.2817ZM202.08 41.2833C202.08 38.5727 201.004 35.973 199.09 34.0562C197.176 32.1395 194.58 31.0627 191.873 31.0627C189.167 31.0627 186.571 32.1395 184.657 34.0562C182.742 35.973 181.667 38.5727 181.667 41.2833C181.667 43.994 182.742 46.5937 184.657 48.5105C186.571 50.4272 189.167 51.5039 191.873 51.5039C194.58 51.5039 197.176 50.4272 199.09 48.5105C201.004 46.5937 202.08 43.994 202.08 41.2833Z" fill="#27BECE"/>
<path d="M225.768 23.2514L226.425 27.4127C227.456 25.6867 228.957 24.29 230.751 23.3853C232.545 22.4807 234.559 22.1055 236.558 22.3034C239.964 22.2488 243.267 23.4726 245.818 25.734L241.808 33.472C240.945 32.6783 239.934 32.0633 238.833 31.6623C237.732 31.2613 236.563 31.0823 235.392 31.1356C230.726 31.1356 226.425 33.6183 226.425 40.2622V59.2438H217.53V23.2514H225.768Z" fill="#27BECE"/>
<path d="M283.996 41.2813C283.996 51.648 276.924 60.0438 265.26 60.0438C253.596 60.0438 246.597 51.648 246.597 41.2813C246.571 38.806 247.036 36.3502 247.965 34.056C248.893 31.7617 250.266 29.6745 252.005 27.9152C253.744 26.1558 255.814 24.7591 258.096 23.8059C260.377 22.8528 262.824 22.3621 265.296 22.3621C267.768 22.3621 270.216 22.8528 272.497 23.8059C274.778 24.7591 276.849 26.1558 278.588 27.9152C280.326 29.6745 281.7 31.7617 282.628 34.056C283.556 36.3502 284.021 38.806 283.996 41.2813ZM255.491 41.2813C255.491 46.756 258.771 51.8672 265.26 51.8672C271.748 51.8672 275.028 46.756 275.028 41.2813C275.095 39.9366 274.895 38.592 274.439 37.3255C273.982 36.059 273.279 34.8958 272.371 33.9036C271.462 32.9114 270.365 32.1099 269.145 31.5456C267.924 30.9813 266.603 30.6654 265.26 30.6163C258.844 30.6163 255.491 35.8816 255.491 41.2813Z" fill="#27BECE"/>
</svg>
