<svg width="144" height="40" viewBox="0 0 144 40" fill="none" xmlns="http://www.w3.org/2000/svg">
<path d="M7.909 6.63403V11.809H12.936V15.69H7.87199V23.569C7.82326 23.9011 7.84901 24.2399 7.94739 24.5609C8.04577 24.8818 8.21431 25.1768 8.4408 25.4245C8.66728 25.6722 8.94606 25.8665 9.2569 25.9932C9.56774 26.1199 9.90285 26.1759 10.238 26.157C10.9969 26.1353 11.7417 25.9461 12.419 25.603L13.676 29.447C12.4924 29.9409 11.2254 30.2043 9.94299 30.223C5.98799 30.371 3.39999 28.116 3.39999 23.569V15.695H0V11.809H3.39999V7.11401L7.909 6.63403Z" fill="#171C27"/>
<path d="M20.807 4.11987V14.2479C21.4597 13.361 22.3201 12.6478 23.3127 12.171C24.3053 11.6941 25.3997 11.4681 26.5 11.5129C31.675 11.5129 33.967 15.0249 33.967 20.3849V29.9959H29.457V20.4219C29.457 17.0949 27.72 15.6899 25.317 15.6899C22.656 15.6899 20.807 17.9449 20.807 20.6799V29.9949H16.297V4.11987H20.807Z" fill="#171C27"/>
<path d="M42.692 6.634C42.692 10.146 37.369 10.146 37.369 6.634C37.369 3.122 42.692 3.122 42.692 6.634Z" fill="#27BECE"/>
<path d="M42.285 11.698H37.775V29.996H42.285V11.698Z" fill="#171C27"/>
<path d="M59.769 29.996V20.459C59.769 17.687 58.253 15.58 55.369 15.58C52.597 15.58 50.7111 17.909 50.7111 20.68V29.995H46.238V11.736H50.267L50.567 14.213C51.3227 13.3691 52.2448 12.6904 53.2753 12.2198C54.3057 11.7491 55.4224 11.4966 56.5551 11.478C60.8431 11.478 64.281 14.694 64.281 20.424V29.998L59.769 29.996Z" fill="#171C27"/>
<path d="M72.559 4.15698V19.0909L78.695 11.772H84.095V12.0309L76.665 20.348L85.13 29.663V29.996H79.696L72.562 21.753V29.9969H68.052V4.15698H72.559Z" fill="#171C27"/>
<path d="M87.196 37.611V11.773H91.41L91.71 14.287C92.394 13.3667 93.2869 12.622 94.3151 12.1143C95.3433 11.6067 96.4774 11.3505 97.624 11.367C103.243 11.367 106.976 15.5439 106.976 20.9039C106.976 26.2269 103.612 30.441 97.776 30.441C95.854 30.441 93.008 29.85 91.714 27.853V37.612L87.196 37.611ZM102.463 20.903C102.463 19.5305 101.918 18.2142 100.947 17.2437C99.9768 16.2732 98.6605 15.728 97.288 15.728C95.9155 15.728 94.5992 16.2732 93.6287 17.2437C92.6582 18.2142 92.113 19.5305 92.113 20.903C92.113 22.2755 92.6582 23.5918 93.6287 24.5623C94.5992 25.5328 95.9155 26.078 97.288 26.078C98.6605 26.078 99.9768 25.5328 100.947 24.5623C101.918 23.5918 102.463 22.2755 102.463 20.903Z" fill="#27BECE"/>
<path d="M114.474 11.7729L114.807 13.8799C115.33 13.006 116.091 12.2988 117 11.8407C117.91 11.3827 118.931 11.1927 119.945 11.2929C121.672 11.2652 123.347 11.8849 124.64 13.0299L122.607 16.9479C122.169 16.546 121.657 16.2346 121.099 16.0316C120.54 15.8285 119.947 15.7379 119.354 15.7649C116.988 15.7649 114.807 17.0219 114.807 20.3859V29.9969H110.297V11.7729H114.474Z" fill="#27BECE"/>
<path d="M143.998 20.9019C143.998 26.1509 140.412 30.4019 134.498 30.4019C128.584 30.4019 125.035 26.1509 125.035 20.9019C125.022 19.6485 125.258 18.4051 125.729 17.2435C126.199 16.0818 126.896 15.025 127.777 14.1342C128.659 13.2434 129.709 12.5362 130.865 12.0536C132.022 11.571 133.263 11.3225 134.516 11.3225C135.77 11.3225 137.011 11.571 138.167 12.0536C139.324 12.5362 140.374 13.2434 141.256 14.1342C142.137 15.025 142.834 16.0818 143.304 17.2435C143.775 18.4051 144.011 19.6485 143.998 20.9019ZM129.545 20.9019C129.545 23.6739 131.208 26.2618 134.498 26.2618C137.788 26.2618 139.451 23.6739 139.451 20.9019C139.485 20.221 139.383 19.5402 139.152 18.8989C138.921 18.2577 138.564 17.6687 138.103 17.1663C137.643 16.6639 137.087 16.2581 136.468 15.9724C135.849 15.6867 135.179 15.5267 134.498 15.5019C131.245 15.5019 129.545 18.1679 129.545 20.9019Z" fill="#27BECE"/>
</svg>
