<svg aria-hidden="true" style="position: absolute; width: 0; height: 0; overflow: hidden;" version="1.1" xmlns="http://www.w3.org/2000/svg" xmlns:xlink="http://www.w3.org/1999/xlink">
<defs>
<symbol id="icon-sun" viewBox="0 0 40 40">
<path fill="#ffb52d" style="fill: var(--color1, #ffb52d)" d="M34.119 15.573c0 0.595-0.087 1.17-0.248 1.714-0.737 2.49-3.043 4.306-5.772 4.306-3.325 0-6.020-2.695-6.020-6.019 0-2.592 1.639-4.802 3.936-5.649 0.649-0.24 1.35-0.37 2.083-0.37 3.325 0 6.020 2.695 6.020 6.019z"></path>
<path fill="#ffc14f" style="fill: var(--color2, #ffc14f)" d="M34.119 15.573c0 0.595-0.087 1.17-0.248 1.714-0.649 0.24-1.351 0.371-2.084 0.371-3.324 0-6.019-2.696-6.019-6.020 0-0.596 0.087-1.171 0.248-1.714 0.649-0.24 1.35-0.37 2.083-0.37 3.325 0 6.020 2.695 6.020 6.019z"></path>
<path fill="#5596fb" style="fill: var(--color3, #5596fb)" d="M39.33 28.907c-0.033 0.89-0.792 1.583-1.683 1.583h-20.724c-1.295 0-3.626-1.454-3.626-4.037 0-3.227 3.548-5.054 6.152-3.441 0.137 0.085 0.319 0.007 0.349-0.152 0.481-2.552 2.722-4.482 5.414-4.482 0.708 0 1.385 0.134 2.006 0.377 0.806 0.316 1.52 0.816 2.090 1.448 0.541 0.601 0.952 1.322 1.187 2.118 0.034 0.115 0.151 0.184 0.269 0.16 2.601-0.528 4.736 1.993 3.947 4.417-0.049 0.15 0.062 0.305 0.22 0.305h2.757c0.929 0 1.677 0.77 1.642 1.706z"></path>
<path fill="#2476ed" style="fill: var(--color4, #2476ed)" d="M28.098 21.281c0 0.663-0.154 1.252-0.404 1.761-0.725 1.474-2.26 2.277-3.222 2.277h-5.437c-0.58 0-0.973 0.576-0.778 1.121 0.003 0.007 0.005 0.014 0.008 0.022 0.157 0.445 0.642 0.671 1.085 0.508 2.097-0.773 4.57 0.723 4.57 3.195 0 0.111-0.006 0.22-0.016 0.327h-6.981c-1.295 0-3.627-1.454-3.627-4.038 0-3.35 3.825-5.192 6.446-3.24 0.333-2.724 2.654-4.834 5.469-4.834 0.708 0 1.385 0.134 2.006 0.377 0.543 0.669 0.881 1.531 0.881 2.526z"></path>
<path fill="#97bffd" style="fill: var(--color5, #97bffd)" d="M26.035 19.273c0 0.663-0.153 1.252-0.404 1.761-0.724 1.474-2.259 2.277-3.222 2.277h-20.724c-0.891 0-1.65-0.692-1.683-1.583-0.034-0.935 0.714-1.705 1.642-1.705h2.756c0.158 0 0.269-0.154 0.221-0.305-0.789-2.424 1.346-4.945 3.947-4.417 0.118 0.024 0.235-0.045 0.27-0.161 0.675-2.278 2.785-3.941 5.283-3.941 0.697 0 1.365 0.13 1.979 0.366 1.737 0.669 3.050 2.192 3.423 4.055 0.038 0.188 0.25 0.279 0.414 0.181 2.598-1.556 6.098 0.269 6.098 3.473z"></path>
<path fill="#b9d3fd" style="fill: var(--color6, #b9d3fd)" d="M26.035 19.273c0 0.663-0.153 1.252-0.404 1.761h-17.262c-0.891 0-1.65-0.692-1.683-1.583-0.034-0.935 0.714-1.706 1.642-1.706h2.757c0.158 0 0.269-0.154 0.22-0.305-0.788-2.424 1.346-4.944 3.947-4.416 0.118 0.024 0.235-0.045 0.269-0.16 0.137-0.462 0.332-0.898 0.578-1.3 1.737 0.669 3.050 2.192 3.423 4.055 0.038 0.188 0.25 0.279 0.414 0.181 2.598-1.556 6.098 0.269 6.098 3.473z"></path>
<path fill="#ffa90b" style="fill: var(--color7, #ffa90b)" d="M28.099 3.672c-0.329 0-0.596 0.267-0.596 0.596v2.736c0 0.329 0.267 0.596 0.596 0.596s0.596-0.267 0.596-0.596v-2.736c0-0.329-0.267-0.596-0.596-0.596z"></path>
<path fill="#ffa90b" style="fill: var(--color7, #ffa90b)" d="M22.962 5.484c-0.164-0.285-0.529-0.382-0.814-0.218s-0.383 0.529-0.218 0.814l1.368 2.37c0.165 0.286 0.53 0.382 0.814 0.218s0.382-0.529 0.218-0.814l-1.368-2.37z"></path>
<path fill="#ffa90b" style="fill: var(--color7, #ffa90b)" d="M20.975 10.773l-2.37-1.368c-0.285-0.164-0.649-0.067-0.814 0.218s-0.067 0.649 0.218 0.814c2.449 1.382 2.385 1.448 2.667 1.448 0.608 0 0.825-0.808 0.299-1.112z"></path>
<path fill="#ffa90b" style="fill: var(--color7, #ffa90b)" d="M38.188 20.71l-2.37-1.368c-0.285-0.164-0.649-0.067-0.814 0.218s-0.067 0.649 0.218 0.814c2.449 1.382 2.385 1.448 2.667 1.448 0.608 0 0.825-0.808 0.298-1.112z"></path>
<path fill="#ffa90b" style="fill: var(--color7, #ffa90b)" d="M39.404 14.977h-2.736c-0.329 0-0.596 0.267-0.596 0.596s0.267 0.596 0.596 0.596h2.736c0.329 0 0.596-0.267 0.596-0.596s-0.267-0.596-0.596-0.596z"></path>
<path fill="#ffa90b" style="fill: var(--color7, #ffa90b)" d="M35.52 11.885c0.283 0 0.219-0.067 2.667-1.448 0.285-0.164 0.382-0.529 0.218-0.814s-0.529-0.383-0.814-0.218l-2.37 1.368c-0.526 0.304-0.309 1.112 0.299 1.112z"></path>
<path fill="#ffa90b" style="fill: var(--color7, #ffa90b)" d="M34.049 5.266c-0.285-0.164-0.649-0.067-0.814 0.218l-1.368 2.37c-0.164 0.285-0.067 0.649 0.218 0.814 0.284 0.164 0.649 0.068 0.814-0.218l1.368-2.37c0.165-0.285 0.067-0.649-0.218-0.814z"></path>
</symbol>
<symbol id="icon-sun-1" viewBox="0 0 40 40">
<path fill="#ffb52d" style="fill: var(--color1, #ffb52d)" d="M34.119 15.573c0 0.595-0.087 1.17-0.248 1.714-0.737 2.49-3.043 4.306-5.772 4.306-3.325 0-6.020-2.695-6.020-6.019 0-2.592 1.639-4.802 3.936-5.649 0.649-0.24 1.35-0.37 2.083-0.37 3.325 0 6.020 2.695 6.020 6.019z"></path>
<path fill="#ffc14f" style="fill: var(--color2, #ffc14f)" d="M34.119 15.573c0 0.595-0.087 1.17-0.248 1.714-0.649 0.24-1.351 0.371-2.084 0.371-3.324 0-6.019-2.696-6.019-6.020 0-0.596 0.087-1.171 0.248-1.714 0.649-0.24 1.35-0.37 2.083-0.37 3.325 0 6.020 2.695 6.020 6.019z"></path>
<path fill="#5596fb" style="fill: var(--color3, #5596fb)" d="M39.33 28.907c-0.033 0.89-0.792 1.583-1.683 1.583h-20.724c-1.295 0-3.626-1.454-3.626-4.037 0-3.227 3.548-5.054 6.152-3.441 0.137 0.085 0.319 0.007 0.349-0.152 0.481-2.552 2.722-4.482 5.414-4.482 0.708 0 1.385 0.134 2.006 0.377 0.806 0.316 1.52 0.816 2.090 1.448 0.541 0.601 0.952 1.322 1.187 2.118 0.034 0.115 0.151 0.184 0.269 0.16 2.601-0.528 4.736 1.993 3.947 4.417-0.049 0.15 0.062 0.305 0.22 0.305h2.757c0.929 0 1.677 0.77 1.643 1.706v0z"></path>
<path fill="#2476ed" style="fill: var(--color4, #2476ed)" d="M28.098 21.281c0 0.663-0.154 1.252-0.404 1.761-0.725 1.474-2.26 2.277-3.222 2.277h-5.437c-0.58 0-0.973 0.576-0.778 1.121 0.003 0.007 0.005 0.014 0.008 0.022 0.157 0.445 0.642 0.671 1.085 0.508 2.097-0.773 4.57 0.723 4.57 3.195 0 0.111-0.006 0.22-0.016 0.327h-6.981c-1.295 0-3.627-1.454-3.627-4.037 0-3.35 3.825-5.192 6.446-3.24 0.333-2.724 2.654-4.834 5.469-4.834 0.708 0 1.385 0.134 2.006 0.377 0.543 0.669 0.881 1.531 0.881 2.526v0z"></path>
<path fill="#97bffd" style="fill: var(--color5, #97bffd)" d="M26.035 19.273c0 0.663-0.153 1.252-0.404 1.761-0.724 1.474-2.259 2.277-3.222 2.277h-20.724c-0.891 0-1.65-0.692-1.683-1.583-0.034-0.935 0.714-1.705 1.642-1.705h2.756c0.158 0 0.269-0.154 0.221-0.305-0.789-2.424 1.346-4.945 3.947-4.417 0.118 0.024 0.235-0.045 0.27-0.161 0.675-2.278 2.785-3.941 5.283-3.941 0.697 0 1.365 0.13 1.979 0.366 1.737 0.669 3.050 2.192 3.423 4.055 0.038 0.188 0.25 0.279 0.414 0.181 2.598-1.556 6.098 0.269 6.098 3.473z"></path>
<path fill="#b9d3fd" style="fill: var(--color6, #b9d3fd)" d="M26.035 19.273c0 0.663-0.153 1.252-0.404 1.761h-17.262c-0.891 0-1.65-0.692-1.683-1.583-0.034-0.935 0.714-1.706 1.642-1.706h2.757c0.158 0 0.269-0.154 0.22-0.305-0.788-2.424 1.346-4.944 3.947-4.416 0.118 0.024 0.235-0.045 0.269-0.16 0.137-0.462 0.332-0.898 0.578-1.3 1.737 0.669 3.050 2.192 3.423 4.055 0.038 0.188 0.25 0.279 0.414 0.181 2.598-1.556 6.098 0.269 6.098 3.473z"></path>
<path fill="#ffa90b" style="fill: var(--color7, #ffa90b)" d="M28.099 3.672c-0.329 0-0.596 0.267-0.596 0.596v2.736c0 0.329 0.267 0.596 0.596 0.596s0.596-0.267 0.596-0.596v-2.736c0-0.329-0.267-0.596-0.596-0.596z"></path>
<path fill="#ffa90b" style="fill: var(--color7, #ffa90b)" d="M22.962 5.484c-0.164-0.285-0.529-0.382-0.814-0.218s-0.383 0.529-0.218 0.814l1.368 2.37c0.165 0.286 0.53 0.382 0.814 0.218s0.382-0.529 0.218-0.814l-1.368-2.37z"></path>
<path fill="#ffa90b" style="fill: var(--color7, #ffa90b)" d="M20.975 10.773l-2.37-1.368c-0.285-0.164-0.649-0.067-0.814 0.218s-0.067 0.649 0.218 0.814c2.449 1.382 2.385 1.448 2.667 1.448 0.608 0 0.825-0.808 0.299-1.112z"></path>
<path fill="#ffa90b" style="fill: var(--color7, #ffa90b)" d="M38.188 20.71l-2.37-1.368c-0.285-0.164-0.649-0.067-0.814 0.218s-0.067 0.649 0.218 0.814c2.449 1.382 2.385 1.448 2.667 1.448 0.608 0 0.825-0.808 0.298-1.112v0z"></path>
<path fill="#ffa90b" style="fill: var(--color7, #ffa90b)" d="M39.404 14.977h-2.736c-0.329 0-0.596 0.267-0.596 0.596s0.267 0.596 0.596 0.596h2.736c0.329 0 0.596-0.267 0.596-0.596s-0.267-0.596-0.596-0.596z"></path>
<path fill="#ffa90b" style="fill: var(--color7, #ffa90b)" d="M35.52 11.885c0.283 0 0.219-0.067 2.667-1.448 0.285-0.164 0.382-0.529 0.218-0.814s-0.529-0.383-0.814-0.218l-2.37 1.368c-0.526 0.304-0.309 1.112 0.299 1.112z"></path>
<path fill="#ffa90b" style="fill: var(--color7, #ffa90b)" d="M34.049 5.266c-0.285-0.164-0.649-0.067-0.814 0.218l-1.368 2.37c-0.164 0.285-0.067 0.649 0.218 0.814 0.284 0.164 0.649 0.068 0.814-0.218l1.368-2.37c0.165-0.285 0.067-0.649-0.218-0.814v0z"></path>
<path fill="#97bffd" style="fill: var(--color5, #97bffd)" d="M22.49 32.92c0 0.796-0.263 1.464-0.65 1.992-0.67 0.915-1.712 1.407-2.403 1.407h-14.527c-0.711 0-1.323-0.544-1.363-1.254-0.034-0.596 0.325-1.114 0.842-1.317 0.119-0.047 0.171-0.183 0.125-0.303-0.802-2.075 1.009-4.303 3.239-3.874 0.117 0.022 0.232-0.045 0.267-0.159 0.578-1.903 2.346-3.289 4.439-3.289 0.535 0 1.049 0.091 1.527 0.258 1.64 0.571 2.86 2.037 3.077 3.812 2.206-1.642 5.427-0.092 5.427 2.728v0z"></path>
<path fill="#b9d3fd" style="fill: var(--color6, #b9d3fd)" d="M22.49 32.92c0 0.796-0.263 1.464-0.65 1.992h-11.842c-0.711 0-1.323-0.543-1.364-1.253-0.034-0.597 0.324-1.115 0.842-1.319 0.119-0.047 0.171-0.183 0.125-0.302-0.802-2.076 1.009-4.304 3.239-3.875 0.117 0.022 0.232-0.045 0.267-0.16 0.183-0.602 0.485-1.153 0.88-1.624 1.531 0.533 2.697 1.847 3.021 3.465 0.032 0.158 0.21 0.234 0.349 0.152 2.187-1.309 5.134 0.226 5.134 2.924v0z"></path>
</symbol>
<symbol id="icon-night" viewBox="0 0 40 40">
<path fill="#ffc14f" style="fill: var(--color2, #ffc14f)" d="M31.803 29.638c-0.042 0.159-0.131 0.31-0.273 0.437-4.189 3.73-10.372 4.786-15.734 2.194-6.944-3.358-9.982-11.694-6.816-18.727 1.659-3.684 4.666-6.309 8.16-7.577 0.136-0.049 0.271-0.065 0.397-0.051 0.593 0.059 1.016 0.733 0.684 1.328-5.382 9.639 1.779 21.458 12.706 21.273 0.635-0.010 1.015 0.594 0.875 1.124z"></path>
</symbol>
<symbol id="icon-night-1" viewBox="0 0 40 40">
<path fill="#ffc14f" style="fill: var(--color2, #ffc14f)" d="M30.439 29.638c-0.042 0.159-0.131 0.31-0.273 0.437-4.189 3.73-10.372 4.786-15.734 2.194-6.944-3.358-9.982-11.694-6.816-18.727 1.659-3.684 4.666-6.309 8.16-7.577 0.136-0.049 0.271-0.065 0.397-0.051 0.593 0.059 1.016 0.733 0.684 1.328-5.382 9.639 1.779 21.458 12.706 21.273 0.635-0.010 1.015 0.594 0.875 1.124z"></path>
<path fill="#97bffd" style="fill: var(--color5, #97bffd)" d="M38.181 29.938c-0.030 0.802-0.733 1.425-1.557 1.425h-19.177c-1.198 0-3.356-1.309-3.356-3.636 0-2.906 3.283-4.552 5.692-3.099 0.127 0.077 0.295 0.006 0.323-0.137 0.445-2.298 2.519-4.037 5.010-4.037 0.655 0 1.281 0.12 1.856 0.339 0.746 0.284 1.407 0.735 1.934 1.304 0.5 0.541 0.881 1.19 1.099 1.907 0.032 0.104 0.14 0.166 0.249 0.144 2.407-0.475 4.382 1.795 3.652 3.978-0.045 0.135 0.058 0.274 0.204 0.274h2.551c0.859 0 1.552 0.694 1.52 1.536z"></path>
<path fill="#5596fb" style="fill: var(--color3, #5596fb)" d="M27.727 23.069c0 0.598-0.141 1.128-0.372 1.586-0.668 1.327-2.082 2.051-2.969 2.051h-5.009c-0.534 0-0.897 0.518-0.716 1.010 0.003 0.006 0.005 0.013 0.007 0.019 0.144 0.401 0.591 0.605 0.999 0.457 1.931-0.696 4.21 0.651 4.21 2.877 0 0.1-0.005 0.198-0.015 0.294h-6.431c-1.193 0-3.341-1.309-3.341-3.636 0-3.017 3.524-4.676 5.938-2.919 0.307-2.454 2.445-4.354 5.038-4.354 0.652 0 1.276 0.12 1.848 0.339 0.5 0.602 0.812 1.379 0.812 2.275z"></path>
<path fill="#97bffd" style="fill: var(--color5, #97bffd)" d="M25.909 21.212c0 0.622-0.142 1.175-0.374 1.652-0.67 1.383-2.091 2.136-2.982 2.136h-19.177c-0.824 0-1.527-0.65-1.557-1.485-0.032-0.878 0.661-1.6 1.52-1.6h2.551c0.146 0 0.249-0.145 0.204-0.286-0.73-2.274 1.245-4.639 3.652-4.144 0.109 0.023 0.218-0.042 0.25-0.151 0.625-2.137 2.577-3.698 4.889-3.698 0.645 0 1.263 0.122 1.831 0.344 1.607 0.627 2.822 2.057 3.168 3.804 0.035 0.176 0.231 0.262 0.383 0.169 2.404-1.46 5.643 0.252 5.643 3.259z"></path>
<path fill="#b9d3fd" style="fill: var(--color6, #b9d3fd)" d="M25.909 21.122c0 0.605-0.14 1.142-0.37 1.606h-15.814c-0.816 0-1.512-0.632-1.542-1.443-0.031-0.853 0.654-1.556 1.505-1.556h2.525c0.145 0 0.247-0.141 0.202-0.278-0.722-2.211 1.233-4.51 3.616-4.028 0.108 0.022 0.216-0.041 0.247-0.146 0.125-0.421 0.304-0.819 0.53-1.186 1.591 0.61 2.794 1.999 3.136 3.698 0.034 0.171 0.229 0.255 0.379 0.165 2.38-1.419 5.587 0.245 5.587 3.168z"></path>
</symbol>
<symbol id="icon-night-2" viewBox="0 0 40 40">
<path fill="#ffc14f" style="fill: var(--color2, #ffc14f)" d="M30.439 28.729c-0.042 0.159-0.131 0.31-0.273 0.437-4.189 3.73-10.372 4.786-15.734 2.194-6.944-3.358-9.982-11.694-6.816-18.727 1.659-3.684 4.666-6.309 8.16-7.577 0.136-0.049 0.271-0.065 0.397-0.051 0.593 0.059 1.016 0.733 0.684 1.327-5.382 9.639 1.779 21.458 12.706 21.273 0.635-0.010 1.015 0.594 0.875 1.124z"></path>
<path fill="#97bffd" style="fill: var(--color5, #97bffd)" d="M37.76 28.487c-0.041 0.719-0.66 1.27-1.38 1.27h-14.693c-1.103 0-3.088-1.238-3.088-3.439 0-2.633 2.775-4.171 4.956-3.086 0.261 0.13 0.576-0.006 0.65-0.288 0.527-2.015 2.359-3.501 4.539-3.501 0.4 0 0.789 0.050 1.16 0.145 1.532 0.39 2.763 1.533 3.274 3.012 0.073 0.208 0.282 0.331 0.501 0.302 2.116-0.28 3.8 1.79 3.158 3.786-0.066 0.206 0.022 0.432 0.211 0.534 0.445 0.239 0.74 0.719 0.71 1.266z"></path>
<path fill="#5596fb" style="fill: var(--color3, #5596fb)" d="M30.363 21.485c0 0.671-0.155 1.266-0.409 1.781-0.733 1.491-2.285 2.303-3.259 2.303h-3.214c0.245 0.321 0.447 0.677 0.596 1.061 0.102 0.264 0.363 0.434 0.644 0.411 1.615-0.137 2.924 1.201 2.914 2.717h-5.946c-1.103 0-3.088-1.238-3.088-3.439 0-2.632 2.775-4.171 4.956-3.086 0.261 0.13 0.576-0.006 0.65-0.288 0.527-2.015 2.359-3.501 4.539-3.501 0.4 0 0.789 0.050 1.16 0.145 0.289 0.552 0.457 1.191 0.457 1.897z"></path>
<path fill="#97bffd" style="fill: var(--color5, #97bffd)" d="M27.723 33.544c0.032 0.662-0.496 1.208-1.151 1.208h-14.556c-0.908 0-2.542-1.019-2.542-2.83 0-1.621 1.277-2.738 2.672-2.824 0.41-0.026 0.829 0.037 1.231 0.203 0.31 0.128 0.668-0.041 0.771-0.361 0.501-1.553 1.958-2.677 3.678-2.677 1.642 0 3.044 1.024 3.603 2.469 0.091 0.235 0.324 0.387 0.575 0.366 1.538-0.131 2.765 1.241 2.579 2.702-0.044 0.344 0.221 0.649 0.567 0.649h1.39c0.481 0 0.911 0.287 1.093 0.706 0.053 0.121 0.084 0.252 0.091 0.391z"></path>
<path fill="#b9d3fd" style="fill: var(--color6, #b9d3fd)" d="M27.633 33.153h-13.037c-0.908 0-2.542-1.019-2.542-2.83 0-0.378 0.031-0.797 0.094-1.225 0.41-0.026 0.829 0.037 1.231 0.203 0.31 0.128 0.668-0.041 0.771-0.361 0.501-1.553 1.958-2.677 3.678-2.677 1.642 0 3.044 1.024 3.603 2.469 0.091 0.235 0.324 0.387 0.575 0.366 1.538-0.131 2.765 1.241 2.579 2.702-0.044 0.344 0.221 0.649 0.567 0.649h1.39c0.481 0 0.911 0.287 1.093 0.706z"></path>
<path fill="#97bffd" style="fill: var(--color5, #97bffd)" d="M25.753 20.918c0 0.598-0.138 1.129-0.365 1.588-0.654 1.329-2.038 2.053-2.906 2.053h-18.691c-0.803 0-1.488-0.624-1.518-1.427-0.031-0.844 0.644-1.538 1.481-1.538h2.486c0.143 0 0.243-0.139 0.199-0.275-0.711-2.186 1.213-4.459 3.56-3.983 0.107 0.022 0.212-0.041 0.243-0.145 0.609-2.055 2.512-3.555 4.765-3.555 0.629 0 1.231 0.117 1.785 0.33 1.566 0.603 2.751 1.977 3.087 3.657 0.034 0.17 0.225 0.252 0.373 0.163 2.343-1.403 5.5 0.242 5.5 3.133z"></path>
<path fill="#b9d3fd" style="fill: var(--color6, #b9d3fd)" d="M25.753 20.918c0 0.598-0.138 1.129-0.365 1.588h-15.568c-0.803 0-1.488-0.624-1.518-1.427-0.031-0.844 0.644-1.538 1.481-1.538h2.486c0.142 0 0.243-0.139 0.199-0.275-0.711-2.186 1.213-4.459 3.559-3.983 0.107 0.022 0.212-0.040 0.243-0.144 0.123-0.416 0.299-0.81 0.521-1.172 1.566 0.603 2.751 1.977 3.087 3.657 0.034 0.17 0.225 0.252 0.373 0.163 2.343-1.403 5.5 0.242 5.5 3.133z"></path>
</symbol>
<symbol id="icon-sun1" viewBox="0 0 40 40">
<path fill="#f29500" style="fill: var(--color8, #f29500)" d="M24.477 8.693c-0.010 0.268-0.231 0.482-0.499 0.482h-7.63c-0.268 0-0.489-0.213-0.499-0.482-0.197-5.246 3.091-7.642 4.053-8.229 0.161-0.098 0.361-0.098 0.522 0 0.304 0.185 0.84 0.551 1.425 1.13 1.266 1.255 2.763 3.509 2.629 7.099v0z"></path>
<path fill="#ffa90b" style="fill: var(--color7, #ffa90b)" d="M24.477 8.693c-0.010 0.268-0.231 0.482-0.499 0.482h-4.259c-0.268 0-0.489-0.213-0.499-0.482-0.135-3.59 1.362-5.844 2.628-7.099 1.266 1.255 2.763 3.509 2.629 7.099v0z"></path>
<path fill="#f29500" style="fill: var(--color8, #f29500)" d="M16.673 8.393c0.165 0.212 0.133 0.517-0.073 0.69l-5.845 4.905c-0.205 0.172-0.511 0.151-0.692-0.049-3.523-3.892-2.544-7.841-2.185-8.909 0.060-0.178 0.214-0.307 0.4-0.335 0.352-0.054 0.998-0.118 1.818-0.050 1.777 0.147 4.372 0.912 6.577 3.749z"></path>
<path fill="#ffa90b" style="fill: var(--color7, #ffa90b)" d="M16.673 8.393c0.165 0.212 0.133 0.517-0.073 0.69l-3.262 2.737c-0.206 0.173-0.512 0.151-0.692-0.048-2.41-2.663-2.713-5.352-2.549-7.128 1.777 0.147 4.372 0.913 6.577 3.749z"></path>
<path fill="#f29500" style="fill: var(--color8, #f29500)" d="M10.501 13.18c0.263 0.057 0.435 0.311 0.388 0.575l-1.325 7.514c-0.047 0.264-0.295 0.444-0.561 0.408-5.2-0.717-6.989-4.371-7.401-5.421-0.068-0.175-0.034-0.373 0.090-0.514 0.235-0.267 0.688-0.731 1.361-1.207 1.456-1.029 3.936-2.112 7.448-1.356v0z"></path>
<path fill="#ffa90b" style="fill: var(--color7, #ffa90b)" d="M10.501 13.18c0.263 0.057 0.435 0.311 0.388 0.575l-0.739 4.194c-0.047 0.264-0.295 0.444-0.561 0.408-3.558-0.491-5.519-2.356-6.535-3.821 1.456-1.029 3.936-2.112 7.448-1.356z"></path>
<path fill="#f29500" style="fill: var(--color8, #f29500)" d="M8.851 20.813c0.238-0.125 0.533-0.041 0.667 0.191l3.815 6.608c0.134 0.233 0.060 0.53-0.168 0.673-4.445 2.793-8.164 1.144-9.153 0.604-0.165-0.090-0.265-0.264-0.261-0.452 0.008-0.356 0.057-1.003 0.267-1.799 0.453-1.725 1.657-4.148 4.833-5.826v0z"></path>
<path fill="#ffa90b" style="fill: var(--color7, #ffa90b)" d="M8.851 20.813c0.238-0.125 0.533-0.041 0.667 0.191l2.129 3.688c0.134 0.233 0.059 0.53-0.168 0.673-3.041 1.911-5.742 1.743-7.462 1.273 0.453-1.725 1.657-4.148 4.833-5.826v0z"></path>
<path fill="#f29500" style="fill: var(--color8, #f29500)" d="M12.493 27.722c0.102-0.249 0.381-0.374 0.634-0.282l7.17 2.61c0.252 0.092 0.386 0.368 0.304 0.623-1.609 4.997-5.518 6.124-6.624 6.347-0.184 0.037-0.373-0.032-0.49-0.179-0.222-0.278-0.601-0.805-0.952-1.549-0.761-1.613-1.396-4.243-0.042-7.57v0z"></path>
<path fill="#ffa90b" style="fill: var(--color7, #ffa90b)" d="M12.493 27.722c0.102-0.249 0.381-0.374 0.634-0.282l4.002 1.457c0.252 0.092 0.387 0.367 0.304 0.623-1.101 3.419-3.279 5.026-4.898 5.772-0.761-1.613-1.396-4.243-0.042-7.57v0z"></path>
<path fill="#f29500" style="fill: var(--color8, #f29500)" d="M19.724 30.673c-0.082-0.256 0.052-0.532 0.304-0.623l7.17-2.61c0.252-0.092 0.532 0.033 0.634 0.282 1.979 4.862-0.291 8.239-0.994 9.119-0.117 0.147-0.306 0.215-0.49 0.179-0.349-0.070-0.978-0.23-1.726-0.575-1.619-0.746-3.797-2.353-4.898-5.772v0z"></path>
<path fill="#ffa90b" style="fill: var(--color7, #ffa90b)" d="M19.724 30.673c-0.082-0.256 0.052-0.532 0.304-0.624l4.002-1.456c0.252-0.092 0.532 0.033 0.634 0.282 1.354 3.327 0.719 5.957-0.042 7.57-1.619-0.746-3.797-2.353-4.898-5.772v0z"></path>
<path fill="#f29500" style="fill: var(--color8, #f29500)" d="M27.16 28.286c-0.227-0.143-0.302-0.441-0.168-0.673l3.815-6.608c0.134-0.233 0.429-0.317 0.667-0.191 4.641 2.452 5.073 6.498 5.1 7.625 0.004 0.188-0.096 0.362-0.261 0.452-0.312 0.171-0.897 0.452-1.691 0.669-1.72 0.47-4.421 0.638-7.462-1.273v0z"></path>
<path fill="#ffa90b" style="fill: var(--color7, #ffa90b)" d="M27.16 28.286c-0.227-0.143-0.302-0.441-0.168-0.673l2.129-3.688c0.134-0.232 0.429-0.316 0.667-0.191 3.176 1.678 4.38 4.102 4.834 5.826-1.72 0.47-4.421 0.638-7.462-1.273v0z"></path>
<path fill="#f29500" style="fill: var(--color8, #f29500)" d="M31.322 21.677c-0.266 0.036-0.515-0.144-0.561-0.408l-1.325-7.514c-0.047-0.264 0.125-0.519 0.388-0.575 5.132-1.105 8.063 1.717 8.808 2.563 0.124 0.141 0.159 0.339 0.091 0.514-0.129 0.331-0.397 0.923-0.866 1.599-1.016 1.465-2.976 3.33-6.535 3.821z"></path>
<path fill="#ffa90b" style="fill: var(--color7, #ffa90b)" d="M31.322 21.677c-0.266 0.036-0.515-0.144-0.561-0.408l-0.739-4.194c-0.046-0.264 0.125-0.519 0.388-0.575 3.512-0.756 5.992 0.326 7.447 1.356-1.016 1.465-2.976 3.33-6.535 3.821z"></path>
<path fill="#f29500" style="fill: var(--color8, #f29500)" d="M30.263 13.939c-0.18 0.199-0.486 0.221-0.692 0.048l-5.845-4.905c-0.206-0.172-0.237-0.478-0.073-0.69 3.221-4.145 7.28-3.867 8.395-3.699 0.186 0.028 0.339 0.157 0.4 0.336 0.114 0.337 0.289 0.962 0.365 1.782 0.164 1.775-0.139 4.464-2.549 7.128z"></path>
<path fill="#ffa90b" style="fill: var(--color7, #ffa90b)" d="M30.262 13.939c-0.18 0.199-0.486 0.221-0.692 0.048l-3.262-2.737c-0.206-0.173-0.237-0.478-0.073-0.69 2.204-2.836 4.8-3.601 6.577-3.749 0.164 1.775-0.139 4.464-2.549 7.128z"></path>
<path fill="#ffc14f" style="fill: var(--color2, #ffc14f)" d="M32.503 19.265c0 2.844-0.962 5.463-2.579 7.55-2.257 2.914-5.79 4.79-9.761 4.79-6.816 0-12.341-5.525-12.341-12.34 0-4.863 2.813-9.070 6.902-11.080 1.641-0.808 3.487-1.261 5.439-1.261 6.815 0 12.34 5.526 12.34 12.341v0z"></path>
<path fill="#ffd993" style="fill: var(--color9, #ffd993)" d="M32.503 19.265c0 2.844-0.962 5.463-2.579 7.55-1.641 0.807-3.487 1.26-5.439 1.26-6.816 0-12.34-5.525-12.34-12.34 0-2.844 0.962-5.463 2.579-7.55 1.641-0.808 3.487-1.261 5.439-1.261 6.815 0 12.34 5.526 12.34 12.341v0z"></path>
<path fill="#ffc14f" style="fill: var(--color2, #ffc14f)" d="M20.163 36.292c-0.326 0-0.591 0.265-0.591 0.591v2.184c0 0.326 0.264 0.591 0.591 0.591s0.59-0.264 0.59-0.591v-2.184c0-0.326-0.264-0.591-0.59-0.591z"></path>
<path fill="#ffc14f" style="fill: var(--color2, #ffc14f)" d="M39.409 21.303h-2.184c-0.326 0-0.591 0.264-0.591 0.59s0.264 0.591 0.591 0.591h2.184c0.326 0 0.591-0.264 0.591-0.591s-0.264-0.59-0.591-0.59z"></path>
<path fill="#ffc14f" style="fill: var(--color2, #ffc14f)" d="M2.775 21.303h-2.184c-0.326 0-0.591 0.264-0.591 0.59s0.264 0.591 0.591 0.591h2.184c0.326 0 0.591-0.264 0.591-0.591s-0.264-0.59-0.591-0.59z"></path>
<path fill="#ffc14f" style="fill: var(--color2, #ffc14f)" d="M31.884 32.323c-0.21-0.25-0.582-0.283-0.832-0.073s-0.282 0.582-0.073 0.832l1.404 1.673c0.117 0.139 0.284 0.211 0.453 0.211 0.134 0 0.269-0.045 0.379-0.138 0.25-0.21 0.282-0.582 0.073-0.832l-1.404-1.673z"></path>
<path fill="#ffc14f" style="fill: var(--color2, #ffc14f)" d="M9.674 32.25c-0.25-0.21-0.622-0.177-0.832 0.073l-1.404 1.673c-0.21 0.25-0.177 0.622 0.073 0.832 0.111 0.093 0.245 0.138 0.379 0.138 0.169 0 0.336-0.072 0.453-0.211l1.404-1.673c0.21-0.25 0.177-0.622-0.073-0.832z"></path>
<path fill="#ffc14f" style="fill: var(--color2, #ffc14f)" d="M5.010 9.559l-1.912-1.056c-0.285-0.157-0.645-0.054-0.802 0.232s-0.054 0.645 0.231 0.802l1.913 1.056c0.090 0.050 0.188 0.074 0.285 0.074 0.208 0 0.41-0.11 0.517-0.305 0.157-0.285 0.054-0.645-0.232-0.802z"></path>
<path fill="#ffc14f" style="fill: var(--color2, #ffc14f)" d="M37.742 8.735c-0.158-0.286-0.517-0.389-0.802-0.232l-1.913 1.056c-0.285 0.158-0.389 0.517-0.231 0.802 0.107 0.195 0.309 0.306 0.517 0.306 0.096 0 0.194-0.024 0.285-0.074l1.912-1.056c0.285-0.158 0.389-0.517 0.232-0.802v0z"></path>
<path fill="#ffc14f" style="fill: var(--color2, #ffc14f)" d="M27.44 0.748c-0.281-0.165-0.643-0.071-0.808 0.21l-1.105 1.884c-0.165 0.281-0.071 0.643 0.21 0.808 0.094 0.055 0.197 0.081 0.298 0.081 0.202 0 0.4-0.104 0.51-0.292l1.106-1.884c0.165-0.281 0.071-0.643-0.211-0.808v0z"></path>
<path fill="#ffc14f" style="fill: var(--color2, #ffc14f)" d="M13.586 0.958c-0.165-0.281-0.527-0.375-0.808-0.21s-0.375 0.527-0.21 0.808l1.105 1.884c0.11 0.187 0.307 0.292 0.51 0.292 0.101 0 0.204-0.026 0.298-0.081 0.281-0.165 0.375-0.527 0.21-0.808l-1.105-1.884z"></path>
</symbol>
<symbol id="icon-cloudy" viewBox="0 0 40 40">
<path fill="#97bffd" style="fill: var(--color5, #97bffd)" d="M36.392 31.922c-0.041 0.723-0.663 1.277-1.387 1.277h-14.772c-1.108 0-3.105-1.245-3.105-3.457 0-2.647 2.79-4.194 4.984-3.103 0.262 0.131 0.579-0.006 0.653-0.289 0.53-2.025 2.372-3.52 4.564-3.52 0.402 0 0.793 0.050 1.166 0.146 1.54 0.392 2.778 1.541 3.293 3.028 0.073 0.209 0.284 0.333 0.503 0.304 2.128-0.282 3.821 1.799 3.175 3.806-0.066 0.207 0.022 0.435 0.213 0.537 0.447 0.24 0.744 0.723 0.713 1.273v0z"></path>
<path fill="#5596fb" style="fill: var(--color3, #5596fb)" d="M28.955 24.881c0 0.675-0.156 1.274-0.411 1.79-0.737 1.499-2.298 2.315-3.277 2.315h-3.231c0.246 0.323 0.45 0.681 0.598 1.067 0.103 0.265 0.365 0.436 0.648 0.413 1.623-0.138 2.94 1.208 2.929 2.732h-5.979c-1.108 0-3.105-1.245-3.105-3.457 0-2.647 2.79-4.194 4.984-3.103 0.262 0.131 0.579-0.006 0.653-0.289 0.53-2.025 2.372-3.52 4.564-3.52 0.402 0 0.793 0.050 1.166 0.146 0.291 0.555 0.46 1.198 0.46 1.907v0z"></path>
<path fill="#0956c6" style="fill: var(--color10, #0956c6)" d="M39.999 18.359c-0.034 0.905-0.805 1.609-1.712 1.609h-21.076c-1.317 0-3.688-1.479-3.688-4.106 0-1.446 0.701-2.616 1.712-3.332 1.283-0.907 3.064-1.084 4.544-0.167 0.14 0.086 0.325 0.007 0.356-0.154 0.489-2.595 2.768-4.558 5.506-4.558 0.72 0 1.408 0.136 2.040 0.383 0.82 0.321 1.546 0.829 2.126 1.473 0.55 0.612 0.968 1.344 1.208 2.154 0.035 0.117 0.154 0.186 0.274 0.162 2.645-0.536 4.816 2.027 4.014 4.492-0.050 0.153 0.063 0.309 0.224 0.309h2.804c0.944 0 1.705 0.784 1.671 1.735v0z"></path>
<path fill="#0a4499" style="fill: var(--color11, #0a4499)" d="M28.168 19.968h-10.957c-1.317 0-3.688-1.479-3.688-4.106 0-1.446 0.701-2.616 1.712-3.332 0.285-0.044 0.577-0.068 0.874-0.068 0.709 0 1.388 0.132 2.013 0.372 1.657 0.638 2.935 2.042 3.401 3.777 0.092 0.345 0.476 0.528 0.796 0.37 2.403-1.184 5.4 0.287 5.85 2.986z"></path>
<path fill="#0a3575" style="fill: var(--color12, #0a3575)" d="M28.7 38.028c0.036 0.746-0.559 1.362-1.297 1.362h-16.415c-1.024 0-2.866-1.149-2.866-3.191 0-1.827 1.44-3.087 3.014-3.185 0.462-0.029 0.935 0.042 1.388 0.229 0.35 0.145 0.754-0.046 0.869-0.407 0.565-1.752 2.207-3.019 4.147-3.019 1.852 0 3.433 1.155 4.063 2.784 0.103 0.265 0.365 0.436 0.648 0.413 1.735-0.148 3.119 1.399 2.909 3.047-0.049 0.388 0.249 0.731 0.639 0.731h1.567c0.543 0 1.027 0.324 1.232 0.796 0.060 0.137 0.095 0.284 0.102 0.441v0z"></path>
<path fill="#0a4499" style="fill: var(--color11, #0a4499)" d="M28.597 37.587h-14.702c-1.024 0-2.866-1.149-2.866-3.191 0-0.426 0.035-0.898 0.106-1.382 0.462-0.029 0.935 0.042 1.388 0.229 0.35 0.145 0.754-0.046 0.869-0.407 0.565-1.752 2.207-3.019 4.147-3.019 1.852 0 3.433 1.155 4.063 2.784 0.103 0.265 0.365 0.436 0.648 0.413 1.735-0.148 3.119 1.4 2.909 3.047-0.049 0.388 0.249 0.731 0.639 0.731h1.567c0.543 0 1.027 0.324 1.232 0.796v0z"></path>
<path fill="#0a66ea" style="fill: var(--color13, #0a66ea)" d="M18.178 8.398c-0.015 0.637-0.561 1.135-1.198 1.135h-12.686c-0.952 0-2.667-1.069-2.667-2.969 0-1.205 0.673-2.144 1.585-2.622 0.853-0.446 1.915-0.49 2.834 0.029 0.154 0.087 0.348 0.005 0.386-0.169 0.4-1.817 2.020-3.177 3.958-3.177 1.81 0 3.344 1.187 3.863 2.825 0.039 0.123 0.161 0.202 0.288 0.18 1.965-0.347 3.542 1.662 2.75 3.49-0.015 0.036-0.031 0.072-0.049 0.108 0.543 0.107 0.949 0.592 0.936 1.169z"></path>
<path fill="#2476ed" style="fill: var(--color4, #2476ed)" d="M17.291 7.12h-11.069c-1.046 0-2.907-1.141-3.010-3.178 0.853-0.446 1.915-0.489 2.834 0.030 0.154 0.087 0.348 0.005 0.386-0.169 0.4-1.817 2.020-3.177 3.958-3.177 1.81 0 3.344 1.187 3.863 2.825 0.039 0.123 0.161 0.202 0.288 0.179 1.965-0.347 3.542 1.663 2.75 3.49z"></path>
<path fill="#0a66ea" style="fill: var(--color13, #0a66ea)" d="M26.477 23.164c0 0.674-0.156 1.273-0.411 1.79-0.737 1.499-2.298 2.316-3.277 2.316h-21.077c-0.906 0-1.678-0.704-1.711-1.609-0.035-0.952 0.726-1.735 1.671-1.735h2.803c0.161 0 0.274-0.157 0.224-0.31-0.802-2.465 1.368-5.029 4.014-4.492 0.12 0.024 0.239-0.046 0.274-0.164 0.687-2.317 2.833-4.009 5.373-4.009 0.709 0 1.388 0.132 2.012 0.373 1.895 0.73 3.295 2.46 3.549 4.544 2.665-1.984 6.556-0.112 6.556 3.296v0z"></path>
<path fill="#2476ed" style="fill: var(--color4, #2476ed)" d="M26.477 23.164c0 0.674-0.156 1.273-0.411 1.79h-17.556c-0.906 0-1.678-0.704-1.711-1.609-0.035-0.951 0.726-1.734 1.671-1.734h2.803c0.161 0 0.274-0.157 0.224-0.31-0.802-2.465 1.368-5.029 4.014-4.491 0.12 0.024 0.239-0.045 0.274-0.163 0.139-0.469 0.338-0.913 0.588-1.322 1.738 0.669 3.058 2.179 3.462 4.030 0.051 0.232 0.316 0.346 0.522 0.229 2.633-1.496 6.12 0.354 6.12 3.58v0z"></path>
</symbol>
<symbol id="icon-drops" viewBox="0 0 40 40">
<path fill="#2476ed" style="fill: var(--color4, #2476ed)" d="M31.132 23.889c-1.485 1.616-3.618 2.673-6.133 2.673-6.551 0-10.493-7.162-7.194-12.671l5.83-11.39c0.571-1.116 2.164-1.108 2.728 0l5.83 11.39c2.036 3.398 1.317 7.413-1.061 9.998z"></path>
<path fill="#5596fb" style="fill: var(--color3, #5596fb)" d="M31.132 23.889c-0.169 0.011-0.339 0.016-0.512 0.016-6.55 0-10.493-7.162-7.194-12.671l3.703-7.235 5.064 9.893c2.036 3.398 1.317 7.413-1.061 9.998z"></path>
<path fill="#97bffd" style="fill: var(--color5, #97bffd)" d="M19.538 34.755c-1.485 1.628-3.625 2.695-6.153 2.695-6.539 0-10.501-7.15-7.194-12.671l5.83-11.39c0.564-1.108 2.156-1.117 2.727 0l5.831 11.39c2.026 3.382 1.321 7.387-1.041 9.976z"></path>
<path fill="#b9d3fd" style="fill: var(--color6, #b9d3fd)" d="M19.538 34.755c-0.175 0.011-0.353 0.017-0.532 0.017-6.539 0-10.502-7.149-7.194-12.671l3.698-7.225 5.069 9.903c2.026 3.382 1.321 7.387-1.041 9.976z"></path>
</symbol>
<symbol id="icon-drops-1" viewBox="0 0 40 40">
<path fill="#2476ed" style="fill: var(--color4, #2476ed)" d="M37.474 19.078h-31.903c-1.989 0-5.571-2.289-5.571-6.359 0-3.424 2.475-5.847 5.312-6.287 1.35-0.209 2.783 0.031 4.071 0.826 0.246 0.152 0.563 0.012 0.618-0.275 0.77-3.981 4.194-6.982 8.303-6.982 3.821 0 7.050 2.594 8.104 6.159 0.061 0.21 0.267 0.335 0.477 0.293 3.95-0.785 7.18 3.114 6.038 6.894-0.083 0.274 0.111 0.553 0.391 0.553h4.1c1.091 0 2.051 0.691 2.422 1.682 0.096 0.253 0.152 0.526 0.163 0.812 0.051 1.474-1.098 2.684-2.525 2.684z"></path>
<path fill="#5596fb" style="fill: var(--color3, #5596fb)" d="M39.836 15.582h-29.371c-1.989 0-5.571-2.289-5.571-6.359 0-0.844 0.15-1.798 0.419-2.791 1.35-0.209 2.783 0.031 4.071 0.826 0.246 0.152 0.563 0.012 0.618-0.275 0.77-3.981 4.194-6.982 8.303-6.982 3.821 0 7.050 2.594 8.104 6.159 0.061 0.21 0.267 0.335 0.477 0.293 3.95-0.785 7.18 3.114 6.038 6.894-0.083 0.274 0.111 0.553 0.391 0.553h4.1c1.091 0 2.051 0.692 2.422 1.682z"></path>
<path fill="#97bffd" style="fill: var(--color5, #97bffd)" d="M8.497 22.73c-0.426-0.221-0.946-0.046-1.162 0.39l-1.731 3.504c-0.216 0.437-0.045 0.97 0.381 1.191 0.125 0.065 0.259 0.096 0.39 0.096 0.316 0 0.62-0.178 0.772-0.486l1.731-3.504c0.216-0.437 0.045-0.97-0.381-1.192z"></path>
<path fill="#5596fb" style="fill: var(--color3, #5596fb)" d="M16.541 22.731c-0.425-0.222-0.946-0.049-1.163 0.388l-1.741 3.504c-0.217 0.436-0.047 0.97 0.378 1.192 0.126 0.066 0.259 0.097 0.392 0.097 0.315 0 0.618-0.177 0.771-0.484l1.741-3.504c0.216-0.436 0.047-0.97-0.378-1.192z"></path>
<path fill="#97bffd" style="fill: var(--color5, #97bffd)" d="M24.587 22.732c-0.425-0.223-0.946-0.051-1.164 0.385l-1.751 3.504c-0.218 0.436-0.050 0.97 0.376 1.193 0.126 0.066 0.261 0.098 0.393 0.098 0.314 0 0.617-0.176 0.77-0.483l1.751-3.504c0.217-0.435 0.050-0.97-0.376-1.193z"></path>
<path fill="#5596fb" style="fill: var(--color3, #5596fb)" d="M32.631 22.733c-0.425-0.224-0.946-0.053-1.165 0.382l-1.76 3.504c-0.219 0.435-0.052 0.97 0.373 1.194 0.126 0.067 0.262 0.099 0.395 0.099 0.313 0 0.616-0.175 0.769-0.48l1.76-3.504c0.219-0.435 0.052-0.97-0.372-1.194z"></path>
<path fill="#97bffd" style="fill: var(--color5, #97bffd)" d="M3.296 33.26c-0.426-0.221-0.946-0.046-1.162 0.39l-1.731 3.504c-0.216 0.437-0.045 0.97 0.381 1.191 0.126 0.065 0.259 0.096 0.39 0.096 0.316 0 0.619-0.177 0.772-0.486l1.731-3.504c0.216-0.437 0.045-0.97-0.381-1.192z"></path>
<path fill="#5596fb" style="fill: var(--color3, #5596fb)" d="M11.311 33.262c-0.425-0.222-0.946-0.049-1.163 0.387l-1.741 3.504c-0.216 0.436-0.047 0.97 0.378 1.192 0.126 0.066 0.26 0.097 0.392 0.097 0.315 0 0.619-0.177 0.771-0.484l1.741-3.504c0.217-0.436 0.048-0.97-0.378-1.192z"></path>
<path fill="#97bffd" style="fill: var(--color5, #97bffd)" d="M19.327 33.263c-0.425-0.223-0.946-0.051-1.164 0.385l-1.75 3.504c-0.218 0.436-0.050 0.97 0.376 1.193 0.126 0.066 0.261 0.098 0.393 0.098 0.314 0 0.617-0.176 0.77-0.483l1.75-3.504c0.218-0.436 0.050-0.97-0.375-1.193z"></path>
<path fill="#5596fb" style="fill: var(--color3, #5596fb)" d="M27.342 33.263c-0.424-0.224-0.946-0.053-1.165 0.382l-1.76 3.504c-0.219 0.435-0.052 0.97 0.373 1.194 0.126 0.067 0.262 0.099 0.395 0.099 0.313 0 0.616-0.175 0.769-0.48l1.76-3.504c0.219-0.435 0.052-0.97-0.373-1.194z"></path>
</symbol>
<symbol id="icon-drops-2" viewBox="0 0 40 40">
<path fill="#2476ed" style="fill: var(--color4, #2476ed)" d="M24.271 10h-2.196c-0.521 0-0.943 0.426-0.943 0.951s0.423 0.952 0.943 0.952h2.196c1.143 0 2.073 0.937 2.073 2.090s-0.93 2.091-2.073 2.091h-13.933c-0.521 0-0.943 0.426-0.943 0.951s0.422 0.951 0.943 0.951h13.933c2.183 0 3.959-1.791 3.959-3.993s-1.776-3.993-3.959-3.993z"></path>
<path fill="#2476ed" style="fill: var(--color4, #2476ed)" d="M26.096 21.21h-25.152c-0.521 0-0.943 0.426-0.943 0.952s0.422 0.951 0.943 0.951h25.152c0.521 0 0.943-0.426 0.943-0.951s-0.422-0.952-0.943-0.952z"></path>
<path fill="#2476ed" style="fill: var(--color4, #2476ed)" d="M36.603 21.21h-6.735c-0.521 0-0.943 0.426-0.943 0.952s0.422 0.951 0.943 0.951h6.735c0.833 0 1.511 0.684 1.511 1.523s-0.678 1.523-1.511 1.523h-1.786c-0.521 0-0.943 0.426-0.943 0.951s0.422 0.952 0.943 0.952h1.786c1.873 0 3.397-1.537 3.397-3.427s-1.524-3.427-3.397-3.427z"></path>
<path fill="#2476ed" style="fill: var(--color4, #2476ed)" d="M20.291 26.853h-5.030c-0.521 0-0.943 0.426-0.943 0.951s0.422 0.951 0.943 0.951h5.030c0.521 0 0.944-0.426 0.944-0.951s-0.422-0.951-0.944-0.951z"></path>
<path fill="#2476ed" style="fill: var(--color4, #2476ed)" d="M11.488 26.853h-1.76c-0.521 0-0.943 0.426-0.943 0.951s0.422 0.951 0.943 0.951h1.76c0.521 0 0.943-0.426 0.943-0.951s-0.422-0.951-0.943-0.951z"></path>
</symbol>
<symbol id="icon-drops-3" viewBox="0 0 40 40">
<path fill="#ffb52d" style="fill: var(--color1, #ffb52d)" d="M30 19.952c0 1.026-0.144 2.017-0.412 2.954-1.224 4.292-5.054 7.421-9.588 7.421-5.523 0-9.999-4.645-9.999-10.375 0-4.468 2.723-8.277 6.539-9.737 1.078-0.413 2.243-0.638 3.46-0.638 5.523 0 10.001 4.645 10.001 10.375z"></path>
<path fill="#ffc14f" style="fill: var(--color2, #ffc14f)" d="M30 19.061c0 0.938-0.156 1.844-0.446 2.7-1.165 0.378-2.427 0.585-3.743 0.585-5.97 0-10.812-4.247-10.812-9.485 0-0.939 0.156-1.845 0.445-2.701 1.166-0.378 2.426-0.583 3.742-0.583 5.971 0 10.813 4.246 10.813 9.484z"></path>
<path fill="#ffa90b" style="fill: var(--color7, #ffa90b)" d="M19.495 0c-0.567 0-1.026 0.44-1.026 0.983v4.515c0 0.543 0.46 0.983 1.026 0.983s1.027-0.441 1.027-0.983v-4.515c0-0.543-0.459-0.983-1.027-0.983z"></path>
<path fill="#ffa90b" style="fill: var(--color7, #ffa90b)" d="M19.495 33.519c-0.567 0-1.026 0.44-1.026 0.983v4.515c0 0.543 0.46 0.983 1.026 0.983s1.027-0.441 1.027-0.983v-4.515c0-0.543-0.459-0.983-1.027-0.983z"></path>
<path fill="#ffa90b" style="fill: var(--color7, #ffa90b)" d="M10.645 2.99c-0.283-0.47-0.911-0.631-1.402-0.36s-0.659 0.873-0.376 1.343l2.358 3.91c0.284 0.472 0.913 0.631 1.402 0.36 0.491-0.271 0.659-0.873 0.375-1.343l-2.357-3.91z"></path>
<path fill="#ffa90b" style="fill: var(--color7, #ffa90b)" d="M10.645 37.308c-0.283 0.47-0.911 0.631-1.402 0.359s-0.659-0.873-0.376-1.343l2.358-3.91c0.284-0.472 0.913-0.631 1.402-0.36 0.491 0.271 0.659 0.873 0.375 1.343l-2.357 3.91z"></path>
<path fill="#ffa90b" style="fill: var(--color7, #ffa90b)" d="M7.223 11.716l-4.083-2.257c-0.491-0.271-1.119-0.11-1.402 0.36s-0.115 1.071 0.376 1.343c4.22 2.28 4.108 2.389 4.595 2.389 1.047 0 1.421-1.333 0.514-1.835z"></path>
<path fill="#ffa90b" style="fill: var(--color7, #ffa90b)" d="M36.877 28.112l-4.083-2.257c-0.491-0.271-1.119-0.11-1.402 0.36s-0.115 1.071 0.376 1.343c4.22 2.28 4.108 2.389 4.595 2.389 1.047 0 1.421-1.333 0.514-1.835z"></path>
<path fill="#ffa90b" style="fill: var(--color7, #ffa90b)" d="M7.29 27.558l-4.083 2.257c-0.491 0.271-1.119 0.11-1.402-0.36s-0.115-1.071 0.376-1.343c4.22-2.28 4.108-2.389 4.595-2.389 1.047 0 1.421 1.333 0.514 1.835z"></path>
<path fill="#ffa90b" style="fill: var(--color7, #ffa90b)" d="M38.974 18.654h-4.715c-0.567 0-1.026 0.441-1.026 0.983s0.459 0.983 1.026 0.983h4.715c0.567 0 1.026-0.44 1.026-0.983s-0.46-0.983-1.026-0.983z"></path>
<path fill="#ffa90b" style="fill: var(--color7, #ffa90b)" d="M5.741 18.654h-4.715c-0.567 0-1.026 0.441-1.026 0.983s0.46 0.983 1.026 0.983h4.715c0.567 0 1.026-0.44 1.026-0.983s-0.46-0.983-1.026-0.983z"></path>
<path fill="#ffa90b" style="fill: var(--color7, #ffa90b)" d="M32.282 13.551c0.487 0 0.377-0.11 4.595-2.39 0.491-0.271 0.659-0.873 0.375-1.343s-0.911-0.631-1.402-0.359l-4.083 2.257c-0.907 0.501-0.533 1.835 0.514 1.835z"></path>
<path fill="#ffa90b" style="fill: var(--color7, #ffa90b)" d="M29.748 2.631c-0.491-0.271-1.119-0.111-1.402 0.36l-2.358 3.91c-0.283 0.47-0.115 1.071 0.376 1.343 0.489 0.27 1.117 0.112 1.402-0.36l2.357-3.91c0.284-0.47 0.116-1.071-0.375-1.343z"></path>
<path fill="#ffa90b" style="fill: var(--color7, #ffa90b)" d="M29.748 37.667c-0.491 0.271-1.119 0.111-1.402-0.359l-2.358-3.91c-0.283-0.47-0.115-1.071 0.376-1.343 0.489-0.27 1.117-0.112 1.402 0.36l2.357 3.91c0.284 0.47 0.116 1.071-0.375 1.343z"></path>
</symbol>
<symbol id="icon-drops-4" viewBox="0 0 40 40">
<path fill="#2476ed" style="fill: var(--color4, #2476ed)" d="M37.474 30h-31.903c-1.989 0-5.571-2.4-5.571-6.667 0-3.59 2.475-6.13 5.312-6.591 1.35-0.219 2.783 0.032 4.071 0.866 0.246 0.159 0.563 0.013 0.618-0.289 0.77-4.173 4.194-7.32 8.303-7.32 3.821 0 7.050 2.72 8.104 6.457 0.061 0.221 0.267 0.351 0.477 0.307 3.95-0.823 7.18 3.264 6.038 7.227-0.083 0.287 0.111 0.58 0.391 0.58h4.1c1.091 0 2.051 0.725 2.422 1.763 0.096 0.265 0.152 0.551 0.163 0.851 0.051 1.545-1.098 2.814-2.525 2.814z"></path>
<path fill="#5596fb" style="fill: var(--color3, #5596fb)" d="M40 26.667h-29.42c-1.992 0-5.58-2.204-5.58-6.122 0-0.812 0.15-1.731 0.419-2.687 1.352-0.201 2.788 0.030 4.078 0.795 0.246 0.146 0.563 0.012 0.619-0.265 0.771-3.832 4.201-6.721 8.317-6.721 3.827 0 7.062 2.497 8.118 5.929 0.061 0.203 0.268 0.322 0.478 0.282 3.956-0.756 7.192 2.997 6.048 6.636-0.083 0.264 0.111 0.532 0.391 0.532h4.106c1.093 0 2.054 0.666 2.426 1.619z"></path>
</symbol>
<symbol id="icon-drops-5" viewBox="0 0 40 40">
<path fill="#c0694e" style="fill: var(--color14, #c0694e)" d="M12 10.368l-1.582 1.594c-0.391-0.394-6.241-6.284-6.631-6.677-0.874-0.88-0.874-2.308 0-3.187 0.272-0.274-0.41 0.413 1.492-1.503 0.717-0.705 1.918-0.214 1.918 0.789 0 0.584-0.307 0.778-1.124 1.598-0.389 0.392-0.389 1.026 0 1.418l5.927 5.969z"></path>
<path fill="#c97e67" style="fill: var(--color15, #c97e67)" d="M12 10.368l-0.786 0.791c-0.391-0.394-6.241-6.284-6.631-6.677-0.823-0.829-0.944-2.236 0.057-3.245 0.132-0.133 0.52-0.524 0.638-0.643 0.717-0.705 1.918-0.214 1.918 0.789 0 0.584-0.307 0.778-1.124 1.598-0.389 0.392-0.389 1.026 0 1.418l5.927 5.969z"></path>
<path fill="#fb5858" style="fill: var(--color16, #fb5858)" d="M28.814 28.966c-0.134 0.156-0.363 0.229-0.583 0.114-0.099-0.052-0.204-0.106-0.314-0.163h-0.001c-4.972-2.572-19.745-9.778-27.397-8.838-0.435 0.054-0.693-0.474-0.383-0.787l3.68-3.706c0.001-0.001 0.001-0.001 0.001-0.001l15.339-15.447c0.31-0.312 0.835-0.052 0.782 0.387-0.9 7.429 5.72 21.525 8.484 27.014v0.001c0.166 0.33 0.318 0.627 0.454 0.891 0.1 0.196 0.056 0.398-0.062 0.536z"></path>
<path fill="#f44545" style="fill: var(--color17, #f44545)" d="M28.814 28.966c-0.134 0.156-0.363 0.229-0.583 0.114-0.099-0.052-0.204-0.106-0.314-0.163h-0.001c-4.972-2.572-19.745-9.778-27.397-8.838-0.435 0.054-0.693-0.474-0.383-0.787l3.68-3.706c0.001-0.001 0.001-0.001 0.001-0.001 5.914-1.43 24.606 13.039 24.606 13.039l0.39 0.342z"></path>
<path fill="#d63030" style="fill: var(--color18, #d63030)" d="M9.774 16.854c-0.123 0.308-0.472 0.456-0.778 0.331-1.782-0.728-3.221-1.096-4.277-1.096-0.284 0-0.541 0.027-0.763 0.081-0.004 0.001-0.008 0.002-0.011 0.002-0.222 0.050-0.712 0.202-1.151 0.441l1.711-1.723c0.070-0.003 0.141-0.005 0.214-0.005 1.21 0 2.801 0.398 4.726 1.184 0.306 0.125 0.454 0.476 0.329 0.784z"></path>
<path fill="#d63030" style="fill: var(--color18, #d63030)" d="M28.231 29.079c-0.099-0.052-0.204-0.106-0.314-0.163h-0.001c-2.221-1.667-10.266-7.581-16.771-10.761-0.297-0.145-0.421-0.506-0.276-0.805s0.501-0.424 0.798-0.278c3.619 1.769 7.697 4.365 11.013 6.626l-13.377-13.638 0.845-0.851 13.66 13.927c-0.919-1.341-1.909-2.83-2.881-4.374-4.182-6.645-6.243-11.421-6.14-14.224l1.512-1.523-0.244 0.977c-1.064 4.462 8.13 17.915 12.367 23.546v0.001c0.166 0.33 0.318 0.627 0.453 0.891 0.214 0.418-0.23 0.866-0.645 0.65z"></path>
<path fill="#5596fb" style="fill: var(--color3, #5596fb)" d="M31.328 25.526h5.147c1.383 0 2.508-1.133 2.508-2.526s-1.125-2.526-2.508-2.526h-1.391c-0.33 0-0.598 0.269-0.598 0.602s0.267 0.602 0.598 0.602h1.391c0.724 0 1.313 0.593 1.313 1.322s-0.589 1.322-1.313 1.322h-5.147c-0.33 0-0.598 0.27-0.598 0.602s0.268 0.602 0.598 0.602z"></path>
<path fill="#97bffd" style="fill: var(--color5, #97bffd)" d="M37.848 34.619h-22.592c-0.33 0-0.598 0.27-0.598 0.602s0.268 0.602 0.598 0.602h22.592c0.528 0 0.957 0.432 0.957 0.963s-0.429 0.964-0.957 0.964h-1.132c-0.33 0-0.598 0.269-0.598 0.602s0.267 0.602 0.598 0.602h1.132c1.187 0 2.152-0.972 2.152-2.167s-0.965-2.167-2.152-2.167z"></path>
<path fill="#5596fb" style="fill: var(--color3, #5596fb)" d="M31.925 31.398c0-0.332-0.267-0.602-0.598-0.602h-30.442c-0.33 0-0.598 0.269-0.598 0.602s0.268 0.602 0.598 0.602h30.442c0.33 0 0.598-0.27 0.598-0.602z"></path>
<path fill="#5596fb" style="fill: var(--color3, #5596fb)" d="M19.815 38.797h-4.94c-0.33 0-0.598 0.269-0.598 0.602s0.268 0.602 0.598 0.602h4.94c0.33 0 0.598-0.27 0.598-0.602s-0.267-0.602-0.598-0.602z"></path>
<path fill="#5596fb" style="fill: var(--color3, #5596fb)" d="M12.485 38.797h-1.789c-0.33 0-0.598 0.269-0.598 0.602s0.267 0.602 0.598 0.602h1.789c0.33 0 0.598-0.27 0.598-0.602s-0.268-0.602-0.598-0.602z"></path>
<path fill="#5596fb" style="fill: var(--color3, #5596fb)" d="M35.15 28.125c-0.33 0-0.598 0.27-0.598 0.602s0.268 0.602 0.598 0.602h3.768c0.33 0 0.598-0.269 0.598-0.602s-0.268-0.602-0.598-0.602h-3.768z"></path>
</symbol>
<symbol id="icon-rain" viewBox="0 0 40 40">
<path fill="#b9d3fd" style="fill: var(--color6, #b9d3fd)" d="M31.613 24.183c-0.291-0.149-0.648-0.034-0.797 0.257l-1.074 2.097c-0.149 0.291-0.034 0.648 0.257 0.797 0.086 0.044 0.179 0.065 0.269 0.065 0.215 0 0.423-0.117 0.528-0.322l1.074-2.097c0.149-0.291 0.034-0.648-0.257-0.797z"></path>
<path fill="#b9d3fd" style="fill: var(--color6, #b9d3fd)" d="M36.548 24.184c-0.291-0.15-0.648-0.035-0.798 0.255l-1.080 2.097c-0.15 0.291-0.036 0.648 0.255 0.798 0.087 0.045 0.179 0.066 0.271 0.066 0.215 0 0.422-0.117 0.527-0.321l1.080-2.097c0.15-0.291 0.035-0.648-0.255-0.798z"></path>
<path fill="#5596fb" style="fill: var(--color3, #5596fb)" d="M18.551 30.482c-0.292-0.148-0.648-0.031-0.796 0.261l-1.062 2.097c-0.148 0.292-0.031 0.648 0.261 0.796 0.086 0.043 0.177 0.064 0.267 0.064 0.216 0 0.424-0.119 0.529-0.325l1.062-2.096c0.148-0.292 0.031-0.649-0.261-0.796z"></path>
<path fill="#5596fb" style="fill: var(--color3, #5596fb)" d="M23.469 30.483c-0.291-0.148-0.648-0.033-0.797 0.259l-1.067 2.096c-0.149 0.292-0.033 0.648 0.259 0.797 0.086 0.044 0.178 0.065 0.269 0.065 0.215 0 0.424-0.118 0.528-0.324l1.067-2.097c0.149-0.291 0.033-0.648-0.259-0.796z"></path>
<path fill="#b9d3fd" style="fill: var(--color6, #b9d3fd)" d="M28.386 30.483c-0.291-0.149-0.648-0.034-0.797 0.257l-1.074 2.097c-0.149 0.291-0.034 0.648 0.257 0.797 0.087 0.044 0.179 0.065 0.27 0.065 0.215 0 0.423-0.118 0.528-0.323l1.074-2.097c0.149-0.291 0.034-0.648-0.257-0.797z"></path>
<path fill="#b9d3fd" style="fill: var(--color6, #b9d3fd)" d="M33.303 30.484c-0.291-0.15-0.648-0.035-0.798 0.255l-1.080 2.096c-0.15 0.291-0.035 0.648 0.255 0.798 0.087 0.045 0.179 0.066 0.271 0.066 0.215 0 0.422-0.117 0.527-0.321l1.080-2.097c0.15-0.291 0.035-0.648-0.255-0.798z"></path>
<path fill="#b9d3fd" style="fill: var(--color6, #b9d3fd)" d="M38.302 30.484c-0.291-0.15-0.648-0.035-0.798 0.255l-1.080 2.096c-0.15 0.291-0.035 0.648 0.255 0.798 0.087 0.045 0.179 0.066 0.271 0.066 0.214 0 0.422-0.117 0.527-0.321l1.080-2.097c0.15-0.291 0.035-0.648-0.255-0.798z"></path>
<path fill="#5596fb" style="fill: var(--color3, #5596fb)" d="M15.361 36.783c-0.292-0.148-0.648-0.031-0.796 0.261l-1.062 2.097c-0.148 0.292-0.031 0.648 0.261 0.796 0.086 0.043 0.177 0.064 0.267 0.064 0.216 0 0.424-0.119 0.529-0.325l1.062-2.097c0.148-0.292 0.031-0.649-0.261-0.796z"></path>
<path fill="#5596fb" style="fill: var(--color3, #5596fb)" d="M13.545 30.482c-0.292-0.148-0.648-0.031-0.796 0.261l-1.061 2.097c-0.148 0.292-0.031 0.648 0.261 0.796 0.086 0.043 0.177 0.064 0.267 0.064 0.216 0 0.424-0.119 0.529-0.325l1.062-2.096c0.148-0.292 0.031-0.649-0.261-0.796z"></path>
<path fill="#5596fb" style="fill: var(--color3, #5596fb)" d="M16.922 24.155c-0.292-0.148-0.648-0.031-0.796 0.261l-1.061 2.097c-0.148 0.292-0.031 0.648 0.261 0.796 0.086 0.043 0.177 0.064 0.267 0.064 0.216 0 0.424-0.119 0.529-0.325l1.062-2.096c0.148-0.292 0.031-0.649-0.261-0.796z"></path>
<path fill="#5596fb" style="fill: var(--color3, #5596fb)" d="M21.922 24.155c-0.292-0.148-0.648-0.031-0.796 0.261l-1.061 2.097c-0.148 0.292-0.031 0.648 0.261 0.796 0.086 0.043 0.177 0.064 0.267 0.064 0.216 0 0.424-0.119 0.529-0.325l1.062-2.096c0.148-0.292 0.031-0.649-0.261-0.796z"></path>
<path fill="#5596fb" style="fill: var(--color3, #5596fb)" d="M26.013 24.155c-0.292-0.148-0.648-0.031-0.796 0.261l-1.061 2.097c-0.148 0.292-0.031 0.648 0.261 0.796 0.086 0.043 0.177 0.064 0.267 0.064 0.216 0 0.424-0.119 0.529-0.325l1.062-2.096c0.148-0.292 0.031-0.649-0.261-0.796z"></path>
<path fill="#5596fb" style="fill: var(--color3, #5596fb)" d="M10.355 36.783c-0.292-0.148-0.648-0.031-0.796 0.261l-1.062 2.097c-0.148 0.292-0.031 0.648 0.261 0.796 0.086 0.043 0.177 0.064 0.267 0.064 0.216 0 0.424-0.119 0.529-0.325l1.062-2.097c0.148-0.292 0.031-0.649-0.261-0.796z"></path>
<path fill="#5596fb" style="fill: var(--color3, #5596fb)" d="M20.26 36.783c-0.291-0.148-0.649-0.033-0.797 0.259l-1.067 2.097c-0.149 0.291-0.033 0.648 0.259 0.796 0.086 0.044 0.178 0.065 0.269 0.065 0.215 0 0.424-0.118 0.528-0.324l1.067-2.097c0.149-0.291 0.033-0.648-0.259-0.796z"></path>
<path fill="#b9d3fd" style="fill: var(--color6, #b9d3fd)" d="M25.159 36.784c-0.291-0.149-0.648-0.034-0.797 0.257l-1.074 2.097c-0.149 0.291-0.034 0.648 0.257 0.797 0.086 0.044 0.179 0.065 0.269 0.065 0.215 0 0.423-0.118 0.528-0.323l1.074-2.097c0.149-0.291 0.034-0.648-0.257-0.797z"></path>
<path fill="#b9d3fd" style="fill: var(--color6, #b9d3fd)" d="M30.058 36.784c-0.291-0.15-0.648-0.035-0.798 0.255l-1.080 2.097c-0.15 0.291-0.035 0.648 0.255 0.798 0.087 0.045 0.179 0.066 0.271 0.066 0.214 0 0.422-0.117 0.527-0.321l1.080-2.097c0.15-0.291 0.035-0.648-0.255-0.798z"></path>
<path fill="#b9d3fd" style="fill: var(--color6, #b9d3fd)" d="M5.269 17.881c-0.292-0.148-0.648-0.031-0.796 0.261l-1.061 2.097c-0.148 0.292-0.031 0.648 0.261 0.796 0.086 0.043 0.177 0.064 0.267 0.064 0.216 0 0.424-0.119 0.529-0.325l1.062-2.097c0.148-0.292 0.031-0.648-0.261-0.796z"></path>
<path fill="#b9d3fd" style="fill: var(--color6, #b9d3fd)" d="M8.599 21.034c0.086 0.044 0.178 0.064 0.268 0.064 0.216 0 0.424-0.118 0.528-0.324l1.068-2.097c0.148-0.291 0.032-0.648-0.259-0.796s-0.648-0.033-0.796 0.259l-1.068 2.096c-0.149 0.292-0.033 0.648 0.259 0.797z"></path>
<path fill="#b9d3fd" style="fill: var(--color6, #b9d3fd)" d="M2.078 24.182c-0.292-0.148-0.648-0.031-0.796 0.261l-1.062 2.096c-0.148 0.292-0.031 0.649 0.261 0.796 0.086 0.043 0.177 0.064 0.267 0.064 0.216 0 0.424-0.119 0.529-0.325l1.062-2.096c0.148-0.292 0.031-0.649-0.261-0.796z"></path>
<path fill="#b9d3fd" style="fill: var(--color6, #b9d3fd)" d="M6.995 24.182c-0.291-0.149-0.648-0.033-0.797 0.259l-1.067 2.097c-0.149 0.291-0.033 0.648 0.259 0.796 0.086 0.044 0.178 0.065 0.269 0.065 0.216 0 0.424-0.118 0.528-0.323l1.068-2.097c0.149-0.291 0.033-0.648-0.259-0.796z"></path>
<path fill="#b9d3fd" style="fill: var(--color6, #b9d3fd)" d="M3.787 30.483c-0.291-0.148-0.648-0.033-0.797 0.259l-1.068 2.097c-0.149 0.291-0.033 0.648 0.259 0.796 0.086 0.044 0.178 0.065 0.269 0.065 0.215 0 0.424-0.118 0.528-0.324l1.068-2.096c0.149-0.292 0.033-0.648-0.259-0.797z"></path>
<path fill="#b9d3fd" style="fill: var(--color6, #b9d3fd)" d="M8.747 30.519c-0.291-0.148-0.648-0.033-0.797 0.259l-1.067 2.097c-0.149 0.291-0.033 0.648 0.259 0.797 0.086 0.044 0.178 0.065 0.269 0.065 0.215 0 0.424-0.118 0.528-0.324l1.068-2.096c0.149-0.292 0.033-0.648-0.259-0.797z"></path>
<path fill="#b9d3fd" style="fill: var(--color6, #b9d3fd)" d="M11.929 24.156c-0.291-0.148-0.648-0.033-0.797 0.259l-1.067 2.097c-0.149 0.291-0.033 0.648 0.259 0.797 0.086 0.044 0.178 0.065 0.269 0.065 0.215 0 0.424-0.118 0.528-0.324l1.067-2.096c0.149-0.292 0.033-0.648-0.259-0.797z"></path>
<path fill="#b9d3fd" style="fill: var(--color6, #b9d3fd)" d="M15.565 18.246c-0.291-0.148-0.648-0.033-0.797 0.259l-1.067 2.097c-0.149 0.291-0.033 0.648 0.259 0.797 0.086 0.044 0.178 0.065 0.269 0.065 0.215 0 0.424-0.118 0.528-0.324l1.067-2.096c0.149-0.292 0.033-0.648-0.259-0.797z"></path>
<path fill="#b9d3fd" style="fill: var(--color6, #b9d3fd)" d="M15.565 17.792c-0.291-0.148-0.648-0.033-0.797 0.259l-1.067 2.097c-0.149 0.291-0.033 0.648 0.259 0.797 0.086 0.044 0.178 0.065 0.269 0.065 0.215 0 0.424-0.118 0.528-0.324l1.067-2.096c0.149-0.292 0.033-0.648-0.259-0.797z"></path>
<path fill="#f29500" style="fill: var(--color8, #f29500)" d="M29.37 0c-0.327 0-0.592 0.265-0.592 0.592v2.391c0 0.327 0.265 0.592 0.592 0.592s0.592-0.265 0.592-0.592v-2.391c0-0.327-0.265-0.592-0.592-0.592v0z"></path>
<path fill="#f29500" style="fill: var(--color8, #f29500)" d="M24.944 1.62c-0.164-0.283-0.526-0.38-0.809-0.217s-0.38 0.526-0.217 0.809l1.195 2.071c0.11 0.19 0.309 0.296 0.514 0.296 0.1 0 0.202-0.026 0.296-0.079 0.283-0.164 0.38-0.526 0.217-0.809l-1.195-2.071z"></path>
<path fill="#f29500" style="fill: var(--color8, #f29500)" d="M23.181 6.214l-2.071-1.195c-0.283-0.164-0.645-0.067-0.809 0.217s-0.067 0.646 0.217 0.809l2.071 1.195c0.093 0.054 0.195 0.079 0.296 0.079 0.205 0 0.404-0.106 0.514-0.296 0.164-0.284 0.066-0.646-0.217-0.809z"></path>
<path fill="#f29500" style="fill: var(--color8, #f29500)" d="M39.248 9.879h-2.391c-0.327 0-0.592 0.265-0.592 0.592s0.265 0.592 0.592 0.592h2.391c0.327 0 0.592-0.265 0.592-0.592s-0.265-0.592-0.592-0.592z"></path>
<path fill="#f29500" style="fill: var(--color8, #f29500)" d="M38.438 5.235c-0.164-0.283-0.526-0.38-0.809-0.217l-2.071 1.195c-0.283 0.164-0.38 0.526-0.217 0.809 0.11 0.19 0.309 0.296 0.513 0.296 0.101 0 0.202-0.025 0.296-0.079l2.071-1.195c0.284-0.164 0.381-0.526 0.217-0.809z"></path>
<path fill="#f29500" style="fill: var(--color8, #f29500)" d="M34.605 1.403c-0.284-0.164-0.645-0.067-0.809 0.217l-1.196 2.071c-0.164 0.284-0.067 0.646 0.217 0.809 0.093 0.054 0.195 0.079 0.295 0.079 0.205 0 0.404-0.106 0.514-0.296l1.195-2.071c0.164-0.283 0.067-0.645-0.217-0.809z"></path>
<path fill="#f29500" style="fill: var(--color8, #f29500)" d="M31.954 15.052c-2.531 1.427-5.739 0.533-7.166-1.997s-0.532-5.738 1.997-7.165c0.269-0.152 0.544-0.276 0.826-0.376 2.366-0.843 5.065 0.111 6.34 2.373 0.361 0.64 0.573 1.323 0.648 2.009 0.222 2.029-0.755 4.090-2.645 5.156z"></path>
<path fill="#ffb52d" style="fill: var(--color1, #ffb52d)" d="M34.599 9.896c-2.366 0.844-5.065-0.111-6.34-2.373-0.361-0.64-0.573-1.323-0.648-2.009 2.366-0.843 5.065 0.111 6.34 2.373 0.361 0.64 0.573 1.323 0.648 2.009z"></path>
<path fill="#5596fb" style="fill: var(--color3, #5596fb)" d="M39.634 20.768c-0.045 0.793-0.727 1.4-1.521 1.4h-16.196c-1.216 0-3.404-1.365-3.404-3.791 0-2.902 3.059-4.598 5.464-3.402 0.288 0.143 0.635-0.006 0.717-0.317 0.581-2.221 2.601-3.86 5.004-3.86 0.441 0 0.87 0.055 1.279 0.16 1.689 0.43 3.045 1.69 3.61 3.32 0.080 0.229 0.311 0.365 0.552 0.333 2.333-0.309 4.189 1.973 3.481 4.173-0.073 0.227 0.024 0.476 0.233 0.589 0.491 0.263 0.816 0.793 0.782 1.395z"></path>
<path fill="#2476ed" style="fill: var(--color4, #2476ed)" d="M31.48 13.049c0 0.739-0.171 1.396-0.451 1.963-0.808 1.643-2.519 2.539-3.593 2.539h-3.543c0.27 0.354 0.493 0.747 0.656 1.169 0.112 0.291 0.4 0.478 0.71 0.453 1.78-0.151 3.224 1.324 3.212 2.995h-6.555c-1.216 0-3.404-1.365-3.404-3.791 0-2.902 3.059-4.598 5.464-3.402 0.288 0.143 0.635-0.006 0.717-0.317 0.581-2.221 2.601-3.86 5.004-3.86 0.441 0 0.87 0.055 1.279 0.16 0.319 0.609 0.504 1.314 0.504 2.091z"></path>
<path fill="#97bffd" style="fill: var(--color5, #97bffd)" d="M26.397 12.425c0 0.659-0.153 1.245-0.402 1.75-0.721 1.465-2.246 2.264-3.203 2.264h-20.603c-0.886 0-1.641-0.688-1.673-1.574-0.034-0.93 0.71-1.695 1.633-1.695h2.74c0.157 0 0.268-0.154 0.219-0.303-0.784-2.409 1.338-4.916 3.924-4.391 0.117 0.024 0.234-0.045 0.268-0.16 0.671-2.265 2.769-3.918 5.252-3.918 0.693 0 1.357 0.129 1.967 0.364 1.727 0.665 3.032 2.179 3.403 4.031 0.038 0.187 0.248 0.278 0.412 0.179 2.583-1.546 6.063 0.267 6.063 3.453z"></path>
<path fill="#b9d3fd" style="fill: var(--color6, #b9d3fd)" d="M26.397 12.425c0 0.659-0.153 1.245-0.402 1.75h-17.162c-0.886 0-1.641-0.688-1.673-1.574-0.034-0.93 0.71-1.695 1.633-1.695h2.74c0.157 0 0.268-0.154 0.219-0.303-0.784-2.41 1.337-4.916 3.923-4.391 0.117 0.024 0.234-0.044 0.268-0.159 0.136-0.459 0.33-0.893 0.575-1.292 1.727 0.665 3.032 2.179 3.403 4.031 0.038 0.187 0.248 0.278 0.412 0.179 2.583-1.546 6.063 0.267 6.063 3.453z"></path>
</symbol>
<symbol id="icon-raining" viewBox="0 0 40 40">
<path fill="#97bffd" style="fill: var(--color5, #97bffd)" d="M31.561 24.006c-0.292-0.151-0.65-0.034-0.8 0.26l-1.077 2.122c-0.15 0.295-0.034 0.656 0.258 0.807 0.087 0.045 0.179 0.066 0.271 0.066 0.216 0 0.424-0.119 0.529-0.327l1.077-2.122c0.149-0.295 0.034-0.656-0.258-0.807z"></path>
<path fill="#97bffd" style="fill: var(--color5, #97bffd)" d="M36.513 24.007c-0.292-0.152-0.65-0.036-0.801 0.259l-1.083 2.122c-0.15 0.294-0.035 0.656 0.256 0.808 0.087 0.045 0.18 0.067 0.272 0.067 0.215 0 0.423-0.119 0.529-0.325l1.083-2.122c0.15-0.294 0.036-0.656-0.256-0.807z"></path>
<path fill="#5596fb" style="fill: var(--color3, #5596fb)" d="M18.457 30.381c-0.293-0.15-0.651-0.031-0.799 0.264l-1.065 2.122c-0.148 0.295-0.031 0.656 0.262 0.806 0.086 0.044 0.178 0.065 0.268 0.065 0.217 0 0.426-0.12 0.531-0.329l1.065-2.122c0.148-0.295 0.031-0.656-0.262-0.806z"></path>
<path fill="#5596fb" style="fill: var(--color3, #5596fb)" d="M23.39 30.382c-0.292-0.15-0.65-0.033-0.799 0.262l-1.071 2.122c-0.149 0.295-0.032 0.656 0.26 0.806 0.087 0.045 0.179 0.066 0.269 0.066 0.216 0 0.425-0.12 0.53-0.328l1.071-2.122c0.149-0.295 0.033-0.656-0.26-0.806z"></path>
<path fill="#97bffd" style="fill: var(--color5, #97bffd)" d="M28.324 30.383c-0.292-0.151-0.65-0.034-0.8 0.26l-1.077 2.122c-0.15 0.294-0.034 0.656 0.258 0.807 0.087 0.045 0.179 0.066 0.27 0.066 0.216 0 0.424-0.119 0.529-0.326l1.077-2.122c0.149-0.295 0.034-0.656-0.258-0.807z"></path>
<path fill="#97bffd" style="fill: var(--color5, #97bffd)" d="M33.257 30.383c-0.292-0.151-0.65-0.036-0.801 0.258l-1.083 2.122c-0.15 0.294-0.035 0.656 0.256 0.807 0.087 0.045 0.18 0.067 0.272 0.067 0.215 0 0.423-0.119 0.529-0.325l1.083-2.122c0.15-0.294 0.035-0.656-0.256-0.807z"></path>
<path fill="#97bffd" style="fill: var(--color5, #97bffd)" d="M11.95 24.157c-0.292-0.151-0.65-0.036-0.801 0.258l-1.083 2.122c-0.15 0.294-0.035 0.656 0.256 0.808 0.087 0.045 0.18 0.067 0.272 0.067 0.215 0 0.423-0.119 0.529-0.325l1.083-2.122c0.15-0.294 0.035-0.656-0.256-0.807z"></path>
<path fill="#97bffd" style="fill: var(--color5, #97bffd)" d="M15.132 17.794c-0.292-0.151-0.65-0.036-0.801 0.258l-1.083 2.122c-0.15 0.294-0.035 0.656 0.256 0.808 0.087 0.045 0.18 0.067 0.272 0.067 0.215 0 0.423-0.119 0.529-0.325l1.083-2.122c0.15-0.294 0.035-0.656-0.256-0.807z"></path>
<path fill="#97bffd" style="fill: var(--color5, #97bffd)" d="M38.273 30.383c-0.292-0.151-0.65-0.036-0.801 0.258l-1.083 2.122c-0.15 0.294-0.036 0.656 0.256 0.807 0.087 0.045 0.18 0.067 0.272 0.067 0.215 0 0.423-0.119 0.529-0.325l1.083-2.122c0.15-0.294 0.035-0.656-0.256-0.807z"></path>
<path fill="#5596fb" style="fill: var(--color3, #5596fb)" d="M15.255 36.758c-0.293-0.15-0.65-0.031-0.799 0.264l-1.065 2.122c-0.148 0.295-0.031 0.656 0.262 0.806 0.086 0.044 0.178 0.065 0.268 0.065 0.217 0 0.426-0.12 0.531-0.329l1.065-2.122c0.148-0.295 0.031-0.656-0.262-0.806z"></path>
<path fill="#5596fb" style="fill: var(--color3, #5596fb)" d="M13.434 30.381c-0.293-0.149-0.651-0.031-0.799 0.264l-1.065 2.122c-0.148 0.295-0.031 0.656 0.262 0.806 0.086 0.044 0.178 0.065 0.268 0.065 0.217 0 0.426-0.12 0.531-0.329l1.065-2.122c0.148-0.295 0.031-0.656-0.262-0.806z"></path>
<path fill="#5596fb" style="fill: var(--color3, #5596fb)" d="M16.474 24.61c-0.293-0.15-0.65-0.031-0.799 0.264l-1.065 2.122c-0.148 0.295-0.031 0.656 0.262 0.806 0.086 0.044 0.178 0.065 0.268 0.065 0.217 0 0.426-0.12 0.531-0.329l1.065-2.122c0.148-0.295 0.031-0.656-0.262-0.806z"></path>
<path fill="#5596fb" style="fill: var(--color3, #5596fb)" d="M21.019 24.61c-0.293-0.15-0.65-0.031-0.799 0.264l-1.065 2.122c-0.148 0.295-0.031 0.656 0.262 0.806 0.086 0.044 0.178 0.065 0.268 0.065 0.217 0 0.426-0.12 0.531-0.329l1.065-2.122c0.148-0.295 0.031-0.656-0.262-0.806z"></path>
<path fill="#5596fb" style="fill: var(--color3, #5596fb)" d="M26.019 24.61c-0.293-0.15-0.65-0.031-0.799 0.264l-1.065 2.122c-0.148 0.295-0.031 0.656 0.262 0.806 0.086 0.044 0.178 0.065 0.268 0.065 0.217 0 0.426-0.12 0.531-0.329l1.065-2.122c0.148-0.295 0.031-0.656-0.262-0.806z"></path>
<path fill="#5596fb" style="fill: var(--color3, #5596fb)" d="M10.232 36.758c-0.293-0.15-0.65-0.031-0.799 0.264l-1.065 2.122c-0.148 0.295-0.031 0.656 0.262 0.806 0.086 0.044 0.178 0.065 0.268 0.065 0.217 0 0.426-0.12 0.531-0.329l1.065-2.122c0.148-0.295 0.031-0.656-0.262-0.806z"></path>
<path fill="#5596fb" style="fill: var(--color3, #5596fb)" d="M20.171 36.758c-0.292-0.15-0.65-0.033-0.799 0.262l-1.071 2.122c-0.149 0.295-0.033 0.656 0.26 0.806 0.086 0.044 0.179 0.065 0.269 0.065 0.217 0 0.425-0.12 0.53-0.328l1.071-2.122c0.149-0.295 0.033-0.656-0.26-0.806z"></path>
<path fill="#97bffd" style="fill: var(--color5, #97bffd)" d="M25.086 36.759c-0.292-0.151-0.65-0.034-0.8 0.26l-1.077 2.122c-0.15 0.294-0.034 0.656 0.258 0.807 0.087 0.045 0.179 0.066 0.27 0.066 0.216 0 0.424-0.119 0.529-0.326l1.077-2.122c0.149-0.295 0.034-0.656-0.258-0.807z"></path>
<path fill="#97bffd" style="fill: var(--color5, #97bffd)" d="M30.002 36.76c-0.292-0.152-0.65-0.036-0.801 0.259l-1.083 2.122c-0.15 0.294-0.035 0.656 0.256 0.807 0.087 0.045 0.18 0.067 0.272 0.067 0.215 0 0.423-0.119 0.529-0.325l1.083-2.122c0.15-0.294 0.035-0.656-0.256-0.808z"></path>
<path fill="#97bffd" style="fill: var(--color5, #97bffd)" d="M5.129 17.628c-0.293-0.149-0.65-0.031-0.799 0.264l-1.065 2.122c-0.148 0.295-0.031 0.656 0.262 0.806 0.086 0.044 0.178 0.065 0.268 0.065 0.217 0 0.426-0.121 0.531-0.329l1.065-2.122c0.148-0.295 0.031-0.656-0.262-0.806z"></path>
<path fill="#97bffd" style="fill: var(--color5, #97bffd)" d="M8.471 20.819c0.087 0.045 0.179 0.065 0.269 0.065 0.216 0 0.425-0.12 0.53-0.327l1.071-2.122c0.149-0.295 0.033-0.656-0.26-0.806s-0.651-0.033-0.799 0.262l-1.071 2.122c-0.149 0.295-0.032 0.656 0.26 0.806z"></path>
<path fill="#97bffd" style="fill: var(--color5, #97bffd)" d="M1.928 24.005c-0.293-0.15-0.65-0.031-0.799 0.264l-1.065 2.122c-0.148 0.295-0.031 0.656 0.262 0.806 0.086 0.044 0.178 0.065 0.268 0.065 0.217 0 0.426-0.12 0.531-0.329l1.065-2.122c0.148-0.295 0.031-0.656-0.262-0.806z"></path>
<path fill="#97bffd" style="fill: var(--color5, #97bffd)" d="M6.862 24.006c-0.293-0.15-0.651-0.033-0.799 0.262l-1.071 2.122c-0.149 0.295-0.033 0.656 0.26 0.806 0.087 0.044 0.179 0.065 0.269 0.065 0.216 0 0.425-0.12 0.53-0.328l1.071-2.122c0.149-0.295 0.033-0.656-0.26-0.806z"></path>
<path fill="#97bffd" style="fill: var(--color5, #97bffd)" d="M3.642 30.382c-0.292-0.15-0.65-0.033-0.799 0.262l-1.071 2.122c-0.149 0.295-0.032 0.656 0.26 0.806 0.087 0.045 0.179 0.066 0.269 0.066 0.217 0 0.425-0.12 0.53-0.328l1.071-2.122c0.149-0.295 0.033-0.656-0.26-0.806z"></path>
<path fill="#97bffd" style="fill: var(--color5, #97bffd)" d="M8.558 30.383c-0.292-0.151-0.65-0.034-0.8 0.26l-1.077 2.122c-0.15 0.294-0.034 0.656 0.258 0.807 0.087 0.045 0.179 0.066 0.271 0.066 0.216 0 0.424-0.119 0.529-0.326l1.077-2.122c0.15-0.295 0.034-0.656-0.258-0.807z"></path>
<path fill="#f29500" style="fill: var(--color8, #f29500)" d="M39.652 12.078c-0.009 0.086-0.040 0.172-0.097 0.253-1.932 2.741-5.375 4.186-8.826 3.388-4.469-1.033-7.336-5.498-6.435-10.033 0.472-2.376 1.866-4.312 3.723-5.522 0.083-0.053 0.168-0.081 0.253-0.085 0.341-0.023 0.653 0.306 0.543 0.687-0.068 0.236-0.127 0.477-0.176 0.723-0.905 4.535 1.963 9.006 6.433 10.039 1.341 0.31 2.68 0.281 3.929-0.030 0.381-0.094 0.691 0.236 0.653 0.579z"></path>
<path fill="#ffb52d" style="fill: var(--color1, #ffb52d)" d="M39.652 12.078c-1.777 1.009-3.919 1.379-6.063 0.883-4.469-1.033-7.336-5.499-6.435-10.033 0.208-1.042 0.592-2.001 1.116-2.849 0.341-0.023 0.653 0.306 0.543 0.687-0.068 0.236-0.127 0.477-0.176 0.723-0.905 4.535 1.963 9.006 6.433 10.039 1.341 0.31 2.68 0.281 3.929-0.030 0.381-0.094 0.691 0.236 0.653 0.579z"></path>
<path fill="#0956c6" style="fill: var(--color10, #0956c6)" d="M39.609 21.216c-0.045 0.802-0.73 1.417-1.526 1.417h-16.25c-1.22 0-3.416-1.382-3.416-3.836 0-2.937 3.069-4.654 5.482-3.444 0.289 0.145 0.637-0.006 0.719-0.321 0.583-2.248 2.609-3.906 5.021-3.906 0.443 0 0.873 0.056 1.283 0.161 1.694 0.435 3.056 1.711 3.622 3.36 0.080 0.232 0.312 0.37 0.554 0.337 2.341-0.313 4.203 1.996 3.493 4.223-0.073 0.229 0.024 0.482 0.234 0.596 0.492 0.266 0.819 0.802 0.785 1.412z"></path>
<path fill="#0a4499" style="fill: var(--color11, #0a4499)" d="M31.428 13.404c0 0.749-0.172 1.413-0.453 1.987-0.811 1.663-2.527 2.57-3.605 2.57h-3.555c0.271 0.359 0.495 0.756 0.659 1.183 0.113 0.294 0.401 0.484 0.712 0.458 1.786-0.154 3.234 1.34 3.223 3.031h-6.577c-1.22 0-3.416-1.382-3.416-3.836 0-2.937 3.069-4.654 5.482-3.444 0.289 0.145 0.637-0.006 0.719-0.321 0.583-2.248 2.609-3.906 5.021-3.906 0.443 0 0.873 0.056 1.283 0.161 0.32 0.616 0.506 1.329 0.506 2.116z"></path>
<path fill="#2476ed" style="fill: var(--color4, #2476ed)" d="M26.328 12.106c0 0.667-0.153 1.259-0.403 1.771-0.723 1.483-2.254 2.291-3.214 2.291h-20.672c-0.889 0-1.646-0.696-1.679-1.592-0.034-0.941 0.712-1.716 1.639-1.716h2.749c0.158 0 0.269-0.155 0.22-0.306-0.787-2.439 1.342-4.975 3.937-4.444 0.118 0.024 0.235-0.046 0.269-0.162 0.673-2.292 2.778-3.966 5.27-3.966 0.696 0 1.361 0.13 1.974 0.369 1.732 0.673 3.042 2.205 3.415 4.079 0.038 0.189 0.249 0.281 0.413 0.182 2.592-1.565 6.083 0.27 6.083 3.495z"></path>
<path fill="#5596fb" style="fill: var(--color3, #5596fb)" d="M26.328 12.106c0 0.667-0.153 1.259-0.403 1.771h-17.219c-0.889 0-1.646-0.697-1.679-1.592-0.034-0.941 0.712-1.716 1.638-1.716h2.75c0.158 0 0.269-0.155 0.22-0.306-0.786-2.439 1.342-4.975 3.937-4.443 0.118 0.024 0.235-0.045 0.269-0.161 0.136-0.464 0.331-0.903 0.577-1.308 1.732 0.673 3.042 2.205 3.415 4.079 0.038 0.189 0.249 0.281 0.413 0.182 2.592-1.565 6.083 0.27 6.083 3.495z"></path>
</symbol>
<symbol id="icon-raining-1" viewBox="0 0 40 40">
<path fill="#97bffd" style="fill: var(--color5, #97bffd)" d="M31.561 24.006c-0.292-0.151-0.65-0.034-0.8 0.26l-1.077 2.122c-0.15 0.295-0.034 0.656 0.258 0.807 0.087 0.045 0.179 0.066 0.271 0.066 0.216 0 0.424-0.119 0.529-0.327l1.077-2.122c0.149-0.295 0.034-0.656-0.258-0.807z"></path>
<path fill="#97bffd" style="fill: var(--color5, #97bffd)" d="M36.513 24.007c-0.292-0.152-0.65-0.036-0.801 0.259l-1.083 2.122c-0.15 0.294-0.035 0.656 0.256 0.808 0.087 0.045 0.18 0.067 0.272 0.067 0.215 0 0.423-0.119 0.529-0.325l1.083-2.122c0.15-0.294 0.036-0.656-0.256-0.807z"></path>
<path fill="#5596fb" style="fill: var(--color3, #5596fb)" d="M18.457 30.381c-0.293-0.15-0.651-0.031-0.799 0.264l-1.065 2.122c-0.148 0.295-0.031 0.656 0.262 0.806 0.086 0.044 0.178 0.065 0.268 0.065 0.217 0 0.426-0.12 0.531-0.329l1.065-2.122c0.148-0.295 0.031-0.656-0.262-0.806z"></path>
<path fill="#5596fb" style="fill: var(--color3, #5596fb)" d="M23.39 30.382c-0.292-0.15-0.65-0.033-0.799 0.262l-1.071 2.122c-0.149 0.295-0.032 0.656 0.26 0.806 0.087 0.045 0.179 0.066 0.269 0.066 0.216 0 0.425-0.12 0.53-0.328l1.071-2.122c0.149-0.295 0.033-0.656-0.26-0.806z"></path>
<path fill="#97bffd" style="fill: var(--color5, #97bffd)" d="M28.324 30.383c-0.292-0.151-0.65-0.034-0.8 0.26l-1.077 2.122c-0.15 0.294-0.034 0.656 0.258 0.807 0.087 0.045 0.179 0.066 0.27 0.066 0.216 0 0.424-0.119 0.529-0.326l1.077-2.122c0.149-0.295 0.034-0.656-0.258-0.807z"></path>
<path fill="#97bffd" style="fill: var(--color5, #97bffd)" d="M33.257 30.383c-0.292-0.151-0.65-0.036-0.801 0.258l-1.083 2.122c-0.15 0.294-0.035 0.656 0.256 0.807 0.087 0.045 0.18 0.067 0.272 0.067 0.215 0 0.423-0.119 0.529-0.325l1.083-2.122c0.15-0.294 0.035-0.656-0.256-0.807z"></path>
<path fill="#97bffd" style="fill: var(--color5, #97bffd)" d="M38.273 30.383c-0.292-0.151-0.65-0.036-0.801 0.258l-1.083 2.122c-0.15 0.294-0.036 0.656 0.256 0.807 0.087 0.045 0.18 0.067 0.272 0.067 0.215 0 0.423-0.119 0.529-0.325l1.083-2.122c0.15-0.294 0.035-0.656-0.256-0.807z"></path>
<path fill="#5596fb" style="fill: var(--color3, #5596fb)" d="M15.255 36.758c-0.293-0.15-0.65-0.031-0.799 0.264l-1.065 2.122c-0.148 0.295-0.031 0.656 0.262 0.806 0.086 0.044 0.178 0.065 0.268 0.065 0.217 0 0.426-0.12 0.531-0.329l1.065-2.122c0.148-0.295 0.031-0.656-0.262-0.806z"></path>
<path fill="#5596fb" style="fill: var(--color3, #5596fb)" d="M13.434 30.381c-0.293-0.15-0.651-0.031-0.799 0.264l-1.065 2.122c-0.148 0.295-0.031 0.656 0.262 0.806 0.086 0.044 0.178 0.065 0.268 0.065 0.217 0 0.426-0.12 0.531-0.329l1.065-2.122c0.148-0.295 0.031-0.656-0.262-0.806z"></path>
<path fill="#5596fb" style="fill: var(--color3, #5596fb)" d="M10.232 36.758c-0.293-0.15-0.65-0.031-0.799 0.264l-1.065 2.122c-0.148 0.295-0.031 0.656 0.262 0.806 0.086 0.044 0.178 0.065 0.268 0.065 0.217 0 0.426-0.12 0.531-0.329l1.065-2.122c0.148-0.295 0.031-0.656-0.262-0.806z"></path>
<path fill="#5596fb" style="fill: var(--color3, #5596fb)" d="M20.171 36.758c-0.292-0.15-0.65-0.033-0.799 0.262l-1.071 2.122c-0.149 0.295-0.033 0.656 0.26 0.806 0.086 0.044 0.179 0.065 0.269 0.065 0.217 0 0.425-0.12 0.53-0.328l1.071-2.122c0.149-0.295 0.033-0.656-0.26-0.806z"></path>
<path fill="#97bffd" style="fill: var(--color5, #97bffd)" d="M25.086 36.759c-0.292-0.151-0.65-0.034-0.8 0.26l-1.077 2.122c-0.15 0.294-0.034 0.656 0.258 0.807 0.087 0.045 0.179 0.066 0.27 0.066 0.216 0 0.424-0.119 0.529-0.326l1.077-2.122c0.149-0.295 0.034-0.656-0.258-0.807z"></path>
<path fill="#97bffd" style="fill: var(--color5, #97bffd)" d="M30.002 36.76c-0.292-0.152-0.65-0.036-0.801 0.259l-1.083 2.122c-0.15 0.294-0.035 0.656 0.256 0.807 0.087 0.045 0.18 0.067 0.272 0.067 0.215 0 0.423-0.119 0.529-0.325l1.083-2.122c0.15-0.294 0.035-0.656-0.256-0.808z"></path>
<path fill="#97bffd" style="fill: var(--color5, #97bffd)" d="M5.129 17.628c-0.293-0.149-0.65-0.031-0.799 0.264l-1.065 2.122c-0.148 0.295-0.031 0.656 0.262 0.806 0.086 0.044 0.178 0.065 0.268 0.065 0.217 0 0.426-0.121 0.531-0.329l1.065-2.122c0.148-0.295 0.031-0.656-0.262-0.806z"></path>
<path fill="#97bffd" style="fill: var(--color5, #97bffd)" d="M8.471 20.819c0.087 0.045 0.179 0.065 0.269 0.065 0.216 0 0.425-0.12 0.53-0.327l1.071-2.122c0.149-0.295 0.033-0.656-0.26-0.806s-0.651-0.033-0.799 0.262l-1.071 2.122c-0.149 0.295-0.032 0.656 0.26 0.806z"></path>
<path fill="#97bffd" style="fill: var(--color5, #97bffd)" d="M1.928 24.005c-0.293-0.15-0.65-0.031-0.799 0.264l-1.065 2.122c-0.148 0.295-0.031 0.656 0.262 0.806 0.086 0.044 0.178 0.065 0.268 0.065 0.217 0 0.426-0.12 0.531-0.329l1.065-2.122c0.148-0.295 0.031-0.656-0.262-0.806z"></path>
<path fill="#97bffd" style="fill: var(--color5, #97bffd)" d="M6.862 24.006c-0.293-0.15-0.651-0.033-0.799 0.262l-1.071 2.122c-0.149 0.295-0.033 0.656 0.26 0.806 0.087 0.044 0.179 0.065 0.269 0.065 0.216 0 0.425-0.12 0.53-0.328l1.071-2.122c0.149-0.295 0.033-0.656-0.26-0.806z"></path>
<path fill="#97bffd" style="fill: var(--color5, #97bffd)" d="M3.642 30.382c-0.292-0.15-0.65-0.033-0.799 0.262l-1.071 2.122c-0.149 0.295-0.032 0.656 0.26 0.806 0.087 0.045 0.179 0.066 0.269 0.066 0.217 0 0.425-0.12 0.53-0.328l1.071-2.122c0.149-0.295 0.033-0.656-0.26-0.806z"></path>
<path fill="#97bffd" style="fill: var(--color5, #97bffd)" d="M8.558 30.383c-0.292-0.151-0.65-0.034-0.8 0.26l-1.077 2.122c-0.15 0.294-0.034 0.656 0.258 0.807 0.087 0.045 0.179 0.066 0.271 0.066 0.216 0 0.424-0.119 0.529-0.326l1.077-2.122c0.15-0.295 0.034-0.656-0.258-0.807z"></path>
<path fill="#0956c6" style="fill: var(--color10, #0956c6)" d="M39.609 21.216c-0.045 0.802-0.73 1.417-1.526 1.417h-16.25c-1.22 0-3.416-1.382-3.416-3.836 0-2.937 3.069-4.654 5.482-3.444 0.289 0.145 0.637-0.006 0.719-0.321 0.583-2.248 2.609-3.906 5.021-3.906 0.443 0 0.873 0.056 1.283 0.161 1.694 0.435 3.056 1.711 3.622 3.36 0.080 0.232 0.312 0.37 0.554 0.337 2.341-0.313 4.203 1.996 3.493 4.223-0.073 0.229 0.024 0.482 0.234 0.596 0.492 0.266 0.819 0.802 0.785 1.412z"></path>
<path fill="#0a4499" style="fill: var(--color11, #0a4499)" d="M31.428 13.404c0 0.749-0.172 1.413-0.453 1.987-0.811 1.663-2.527 2.57-3.605 2.57h-3.555c0.271 0.359 0.495 0.756 0.659 1.183 0.113 0.294 0.401 0.484 0.712 0.458 1.786-0.154 3.234 1.34 3.223 3.031h-6.577c-1.22 0-3.416-1.382-3.416-3.836 0-2.937 3.069-4.654 5.482-3.444 0.289 0.145 0.637-0.006 0.719-0.321 0.583-2.248 2.609-3.906 5.021-3.906 0.443 0 0.873 0.056 1.283 0.161 0.32 0.616 0.506 1.329 0.506 2.116z"></path>
<path fill="#0a4499" style="fill: var(--color11, #0a4499)" d="M28.508 26.191c0.035 0.739-0.548 1.348-1.273 1.348h-16.1c-1.004 0-2.812-1.137-2.812-3.157 0-1.808 1.412-3.054 2.956-3.151 0.453-0.029 0.918 0.041 1.361 0.226 0.343 0.143 0.739-0.045 0.853-0.403 0.554-1.733 2.165-2.987 4.067-2.987 1.816 0 3.367 1.143 3.985 2.754 0.1 0.262 0.358 0.432 0.635 0.409 1.701-0.146 3.059 1.384 2.853 3.014-0.048 0.384 0.244 0.724 0.627 0.724h1.537c0.532 0 1.008 0.32 1.209 0.787 0.058 0.135 0.094 0.281 0.1 0.436z"></path>
<path fill="#0956c6" style="fill: var(--color10, #0956c6)" d="M28.408 25.755h-14.42c-1.004 0-2.812-1.137-2.812-3.157 0-0.421 0.035-0.889 0.104-1.367 0.453-0.029 0.918 0.041 1.361 0.226 0.343 0.143 0.739-0.045 0.853-0.403 0.554-1.733 2.165-2.987 4.067-2.987 1.816 0 3.367 1.143 3.985 2.754 0.1 0.262 0.358 0.432 0.635 0.409 1.701-0.146 3.059 1.384 2.853 3.014-0.048 0.384 0.244 0.724 0.627 0.724h1.537c0.532 0 1.008 0.32 1.209 0.787z"></path>
<path fill="#2476ed" style="fill: var(--color4, #2476ed)" d="M26.328 12.106c0 0.667-0.153 1.259-0.403 1.771-0.723 1.483-2.254 2.291-3.214 2.291h-20.672c-0.889 0-1.646-0.696-1.679-1.592-0.034-0.941 0.712-1.716 1.639-1.716h2.749c0.158 0 0.269-0.155 0.22-0.306-0.787-2.439 1.342-4.975 3.937-4.444 0.118 0.024 0.235-0.046 0.269-0.162 0.673-2.292 2.778-3.966 5.27-3.966 0.696 0 1.361 0.13 1.974 0.369 1.732 0.673 3.042 2.205 3.415 4.079 0.038 0.189 0.249 0.281 0.413 0.182 2.592-1.565 6.083 0.27 6.083 3.495z"></path>
<path fill="#5596fb" style="fill: var(--color3, #5596fb)" d="M26.328 12.106c0 0.667-0.153 1.259-0.403 1.771h-17.219c-0.889 0-1.646-0.697-1.679-1.592-0.034-0.941 0.712-1.716 1.638-1.716h2.75c0.158 0 0.269-0.155 0.22-0.306-0.786-2.439 1.342-4.975 3.937-4.443 0.118 0.024 0.235-0.045 0.269-0.161 0.136-0.464 0.331-0.903 0.577-1.308 1.732 0.673 3.042 2.205 3.415 4.079 0.038 0.189 0.249 0.281 0.413 0.182 2.592-1.565 6.083 0.27 6.083 3.495z"></path>
</symbol>
</defs>
</svg>
