<svg width="24" height="24" viewBox="0 0 24 24" fill="none" xmlns="http://www.w3.org/2000/svg">
<g clip-path="url(#clip0)">
<path d="M20.0565 18.276C23.9751 14.3575 23.9751 7.98191 20.0565 4.06336C16.138 0.144812 9.76241 0.144812 5.84387 4.06336C2.12489 7.78234 1.94308 13.7096 5.28187 17.6536L4.06728 18.8682L1.69851 16.4994L0.514119 17.6838L2.8829 20.0526L0.514119 22.4214L1.69851 23.6058L4.06728 21.237L6.43606 23.6058L7.62045 22.4214L5.25167 20.0526L6.46626 18.838C10.4103 22.1768 16.3375 21.995 20.0565 18.276ZM7.02825 5.24775C10.2936 1.98239 15.6068 1.98239 18.8721 5.24775C22.1375 8.51311 22.1375 13.8263 18.8721 17.0916C15.6068 20.357 10.2936 20.357 7.02825 17.0916C3.7629 13.8263 3.7629 8.51311 7.02825 5.24775Z" fill="#222222"/>
</g>
<defs>
<clipPath id="clip0">
<rect width="24" height="24" fill="white"/>
</clipPath>
</defs>
</svg>
