<svg width="14" height="14" viewBox="0 0 14 14" fill="none" xmlns="http://www.w3.org/2000/svg">
<path fill-rule="evenodd" clip-rule="evenodd" d="M11.9502 2.05025C10.6279 0.728134 8.87012 0 7 0C5.12988 0 3.37207 0.728134 2.0498 2.05025C0.728516 3.37237 0 5.13022 0 7C0 8.86976 0.728516 10.6276 2.0498 11.9498C3.37207 13.2719 5.12988 14 7 14C8.87012 14 10.6279 13.2719 11.9502 11.9498C13.2715 10.6276 14 8.86976 14 7C14 5.13022 13.2715 3.37237 11.9502 2.05025ZM7.875 10.5C7.875 10.9832 7.4834 11.375 7 11.375C6.5166 11.375 6.125 10.9832 6.125 10.5V6.125C6.125 5.64175 6.5166 5.25 7 5.25C7.4834 5.25 7.875 5.64175 7.875 6.125V10.5ZM6.125 3.5C6.125 3.98325 6.5166 4.375 7 4.375C7.4834 4.375 7.875 3.98325 7.875 3.5C7.875 3.01675 7.4834 2.625 7 2.625C6.5166 2.625 6.125 3.01675 6.125 3.5Z" fill="#BDBDBD"/>
</svg>
