<svg width="12" height="12" viewBox="0 0 12 12" fill="none" xmlns="http://www.w3.org/2000/svg">
<path d="M6 10.5C3.525 10.5 1.5 8.475 1.5 6C1.5 3.525 3.525 1.5 6 1.5C8.475 1.5 10.5 3.525 10.5 6C10.5 8.475 8.475 10.5 6 10.5ZM6 0C2.7 0 0 2.7 0 6C0 9.3 2.7 12 6 12C9.3 12 12 9.3 12 6C12 2.7 9.3 0 6 0Z" fill="#757575"/>
<path d="M6.75 5.25H5.25V9.00001H6.75V5.25Z" fill="#757575"/>
<path d="M6.75 3.75001C6.75 4.01251 6.6 4.27501 6.375 4.38751C6.15 4.53751 5.85 4.53751 5.625 4.38751C5.4 4.23751 5.25 4.01251 5.25 3.75001C5.25 3.48751 5.4 3.225 5.625 3.1125C5.85 2.9625 6.15 2.9625 6.375 3.1125C6.6 3.2625 6.75 3.48751 6.75 3.75001Z" fill="#757575"/>
</svg>
