<svg id="Layer_1" data-name="Layer 1" xmlns="http://www.w3.org/2000/svg" viewBox="0 0 68.03 68.03"><defs><style>.cls-1{fill:#009ee2;}.cls-2{fill:#fff;}</style></defs><title>Nam</title><circle class="cls-1" cx="34.02" cy="34.02" r="34.02"/><path class="cls-2" d="M124.72,36.88c-.84-.74,1.71-4.83,1.09-5.9a16.36,16.36,0,0,1-1.81,3.1s-.06-5.76-1.2-7a27,27,0,0,1,.11,4.6s-1.73-5-3.47-5.7a6.54,6.54,0,0,1,1.71,4.46s-2.9-5.55-7-5.45a7.6,7.6,0,0,1,3.68,3.89s-19.12-2.59-15.65-10c-2.69.67-2.69,8.08-2.69,8.08s-2.65-4.45,1.76-10C92.12,22.68,95.65,33,95.65,33s-2-.16-3-7.41c-2,8.91,3.63,13.57,3.63,13.57S94,43.1,95.28,45s-1.65,6.06-1.6,7.41,2.18,1.19,2.18,1.19-.84,2.23,1,2.49c-.41.15-1.14,1.61.93,2.44-.62.15-1.86,7.41,7,2.85,2.22,1.14,3.23,5.8,3.67,8.78A30.16,30.16,0,0,0,124.33,64c-.88-2.63-2-6.15-2.51-8.33C120.73,50.27,129.85,42.81,124.72,36.88Z" transform="translate(-71.94 -5.95)"/></svg>