<svg xmlns="http://www.w3.org/2000/svg" width="16" height="12.938" viewBox="0 0 16 12.938">
  <metadata><?xpacket begin="﻿" id="W5M0MpCehiHzreSzNTczkc9d"?>
<x:xmpmeta xmlns:x="adobe:ns:meta/" x:xmptk="Adobe XMP Core 5.6-c142 79.160924, 2017/07/13-01:06:39        ">
   <rdf:RDF xmlns:rdf="http://www.w3.org/1999/02/22-rdf-syntax-ns#">
      <rdf:Description rdf:about=""/>
   </rdf:RDF>
</x:xmpmeta>
                                                                                                    
                                                                                                    
                                                                                                    
                                                                                                    
                                                                                                    
                                                                                                    
                                                                                                    
                                                                                                    
                                                                                                    
                                                                                                    
                                                                                                    
                                                                                                    
                                                                                                    
                                                                                                    
                                                                                                    
                                                                                                    
                                                                                                    
                                                                                                    
                                                                                                    
                                                                                                    
                           
<?xpacket end="w"?></metadata>
<defs>
    <style>
      .cls-1 {
        fill: #9f214e;
        fill-rule: evenodd;
      }
    </style>
  </defs>
  <path class="cls-1" d="M15.1,5.012Q12.18,7.048,10.663,8.177q-0.51.385-.825,0.6A5.012,5.012,0,0,1,9,9.218a2.507,2.507,0,0,1-.981.225H8a2.5,2.5,0,0,1-.981-0.225,4.968,4.968,0,0,1-.843-0.44q-0.316-.216-0.825-0.6Q4.148,7.27.915,5.012a4.735,4.735,0,0,1-.9-0.8V11.5a1.454,1.454,0,0,0,1.426,1.469H14.571A1.454,1.454,0,0,0,16,11.5V4.213A5,5,0,0,1,15.1,5.012Zm0.468-4.533a1.361,1.361,0,0,0-1-.432H1.44A1.257,1.257,0,0,0,.384.525a1.886,1.886,0,0,0-.37,1.192A2.179,2.179,0,0,0,.5,2.97a4.475,4.475,0,0,0,1.044,1.06q0.3,0.22,1.828,1.308T5.713,7.012l0.38,0.28q0.289,0.216.481,0.349t0.463,0.3a2.711,2.711,0,0,0,.513.248A1.393,1.393,0,0,0,8,8.269H8.014A1.393,1.393,0,0,0,8.46,8.187a2.711,2.711,0,0,0,.513-0.248q0.272-.164.463-0.3t0.481-.349l0.38-.28,4.173-2.98A4.271,4.271,0,0,0,15.559,2.9,2.473,2.473,0,0,0,16,1.515,1.429,1.429,0,0,0,15.573.478Z" transform="translate(0 -0.031)"/>
</svg>
