<svg xmlns="http://www.w3.org/2000/svg" width="17.969" height="17.969" viewBox="0 0 17.969 17.969">
  <metadata><?xpacket begin="﻿" id="W5M0MpCehiHzreSzNTczkc9d"?>
<x:xmpmeta xmlns:x="adobe:ns:meta/" x:xmptk="Adobe XMP Core 5.6-c142 79.160924, 2017/07/13-01:06:39        ">
   <rdf:RDF xmlns:rdf="http://www.w3.org/1999/02/22-rdf-syntax-ns#">
      <rdf:Description rdf:about=""/>
   </rdf:RDF>
</x:xmpmeta>
                                                                                                    
                                                                                                    
                                                                                                    
                                                                                                    
                                                                                                    
                                                                                                    
                                                                                                    
                                                                                                    
                                                                                                    
                                                                                                    
                                                                                                    
                                                                                                    
                                                                                                    
                                                                                                    
                                                                                                    
                                                                                                    
                                                                                                    
                                                                                                    
                                                                                                    
                                                                                                    
                           
<?xpacket end="w"?></metadata>
<defs>
    <style>
      .cls-1 {
        fill: #9f224e;
        fill-rule: evenodd;
      }
    </style>
  </defs>
  <path class="cls-1" d="M12.893,11.353L18,16.459,16.457,18l-5.106-5.1V12.077l-0.289-.288a6.4,6.4,0,0,1-4.335,1.589,6.5,6.5,0,0,1-4.744-1.927A6.38,6.38,0,0,1,.037,6.729,6.66,6.66,0,0,1,6.664.036h0.06a6.376,6.376,0,0,1,4.72,1.95A6.5,6.5,0,0,1,13.37,6.731a6.4,6.4,0,0,1-1.59,4.335l0.289,0.288h0.823Zm-6.166,0A4.606,4.606,0,1,0,3.453,10,4.459,4.459,0,0,0,6.724,11.35h0Z" transform="translate(-0.031 -0.031)"/>
</svg>
