<svg width="64" height="64" viewBox="0 0 64 64" fill="none" xmlns="http://www.w3.org/2000/svg">
<g clip-path="url(#clip0)">
<path d="M46 8C43.2311 8 40.5243 8.82109 38.222 10.3594C35.9197 11.8978 34.1253 14.0843 33.0657 16.6424C32.0061 19.2006 31.7288 22.0155 32.269 24.7313C32.8092 27.447 34.1426 29.9416 36.1005 31.8995C38.0584 33.8574 40.553 35.1908 43.2687 35.731C45.9845 36.2712 48.7994 35.9939 51.3576 34.9343C53.9157 33.8747 56.1022 32.0803 57.6406 29.778C59.1789 27.4757 60 24.7689 60 22C59.9958 18.2883 58.5195 14.7297 55.8949 12.1051C53.2703 9.48055 49.7117 8.0042 46 8ZM46 10C48.4808 10.003 50.9 10.7735 52.9255 12.2058C54.9511 13.6381 56.4839 15.6621 57.3136 18H50V17C50 16.7348 49.8946 16.4804 49.7071 16.2929C49.5196 16.1054 49.2652 16 49 16H45C44.7348 16 44.4804 16.1054 44.2929 16.2929C44.1054 16.4804 44 16.7348 44 17V20.5858L42.5858 22H39C38.7348 22 38.4804 22.1054 38.2929 22.2929C38.1054 22.4804 38 22.7348 38 23V26.5858L35.9843 28.6015C34.7905 26.7932 34.109 24.6953 34.012 22.5307C33.915 20.366 34.4063 18.2156 35.4335 16.3078C36.4607 14.4 37.9856 12.8061 39.8461 11.6954C41.7066 10.5848 43.8332 9.9989 46 10ZM48 18V20H46V18H48ZM42 24V26H40V24H42ZM46 34C44.3545 34.0007 42.7266 33.6621 41.2179 33.0053C39.7092 32.3485 38.3521 31.3877 37.2314 30.1828L39.4143 28H43C43.2652 28 43.5196 27.8946 43.7071 27.7071C43.8946 27.5196 44 27.2652 44 27V23.4142L45.4143 22H49C49.2652 22 49.5196 21.8946 49.7071 21.7071C49.8946 21.5196 50 21.2652 50 21V20H57.8324C58.123 21.7207 58.0349 23.4841 57.5742 25.1672C57.1134 26.8504 56.2912 28.4128 55.1647 29.7456C54.0383 31.0784 52.6347 32.1495 51.0519 32.8843C49.4691 33.619 47.7451 33.9998 46 34Z" fill="#B76E23"/>
<path d="M47 4.02828V4.00002H21.6569C21 3.99821 20.3493 4.12671 19.7424 4.37809C19.1355 4.62947 18.5846 4.99873 18.1214 5.4645L5.46443 18.1214C4.99871 18.5846 4.62949 19.1356 4.37812 19.7424C4.12675 20.3493 3.99824 21 4.00002 21.6569V59C4.00152 60.3256 4.52879 61.5965 5.46615 62.5339C6.4035 63.4713 7.6744 63.9985 9.00002 64H52C52.2652 64 52.5196 63.8947 52.7071 63.7071C52.8947 63.5196 53 63.2652 53 63V54C53 53.8448 52.9639 53.6916 52.8944 53.5528L50 47.7639V39.5514C58.0065 37.7276 64 30.5509 64 22C64 12.4103 56.4619 4.54897 47 4.02828ZM6.00002 59V21.6569C5.99895 21.2628 6.07607 20.8723 6.22689 20.5082C6.37771 20.1441 6.59925 19.8135 6.87868 19.5355L19 7.41427V16C18.9991 16.7954 18.6828 17.5579 18.1203 18.1203C17.5579 18.6828 16.7954 18.9991 16 19H10V21H16C17.3256 20.9985 18.5965 20.4712 19.5339 19.5339C20.4712 18.5965 20.9985 17.3256 21 16V6.07262C21.2157 6.02451 21.4359 6.00016 21.6569 6.00002H37.7597C34.9732 7.43794 32.6099 9.57787 30.9032 12.2085C29.1966 14.8391 28.2056 17.8693 28.0283 21H23C22.7348 21 22.4805 21.1054 22.2929 21.2929C22.1054 21.4805 22 21.7348 22 22V31H17C16.7348 31 16.4805 31.1054 16.2929 31.2929C16.1054 31.4805 16 31.7348 16 32V39H11C10.7348 39 10.4805 39.1054 10.2929 39.2929C10.1054 39.4805 10 39.7348 10 40V48H8.00002V50H38V48H36V36.9593C37.8241 38.184 39.858 39.0627 42 39.5514V47.7639L39.1056 53.5528C39.0362 53.6916 39 53.8448 39 54V62H9.00002C8.20465 61.9991 7.44212 61.6828 6.8797 61.1203C6.31729 60.5579 6.00093 59.7954 6.00002 59ZM30 48V30.2403C31.0094 32.1898 32.3647 33.9395 34 35.404V48H30ZM16 48H12V41H16V48ZM22 48H18V33H22V48ZM28 48H24V23H28V48ZM48.382 49L50.382 53H41.6181L43.6181 49H48.382ZM41 62V55H51V62H41ZM48 47H44V39.8883C45.3292 40.0373 46.6708 40.0373 48 39.8883V47ZM46 38C42.8355 38 39.7421 37.0616 37.1109 35.3035C34.4797 33.5454 32.429 31.0466 31.218 28.123C30.0069 25.1993 29.6901 21.9823 30.3075 18.8786C30.9248 15.7749 32.4487 12.924 34.6863 10.6863C36.924 8.44867 39.7749 6.92482 42.8786 6.30745C45.9823 5.69009 49.1993 6.00694 52.123 7.21795C55.0466 8.42895 57.5454 10.4797 59.3035 13.1109C61.0616 15.7421 62 18.8355 62 22C61.9952 26.242 60.308 30.3089 57.3084 33.3084C54.3089 36.308 50.242 37.9952 46 38Z" fill="#B76E23"/>
<path d="M16 52H12V54H16V52Z" fill="#B76E23"/>
<path d="M22 52H18V54H22V52Z" fill="#B76E23"/>
<path d="M28 52H24V54H28V52Z" fill="#B76E23"/>
<path d="M34 52H30V54H34V52Z" fill="#B76E23"/>
</g>
<defs>
<clipPath id="clip0">
<rect width="64" height="64" fill="white"/>
</clipPath>
</defs>
</svg>
