<svg width="40" height="32" viewBox="0 0 40 32" fill="none" xmlns="http://www.w3.org/2000/svg">
<path d="M17.0783 2.41509L9.05826 0.0328914C8.89945 -0.0465154 8.74064 0.0328913 8.58182 0.112298C8.42301 0.191705 8.3436 0.350518 8.2642 0.429925L-0.0735145 28.6987C-0.152921 29.0164 0.00589232 29.334 0.323519 29.4134L8.3436 31.7956C8.42301 31.875 8.42301 31.875 8.50242 31.875C8.58182 31.875 8.66123 31.875 8.82004 31.7956C8.97886 31.7162 9.05826 31.5574 9.13767 31.478L17.4754 3.12976C17.5548 2.81213 17.396 2.4945 17.0783 2.41509ZM8.10538 30.5251L1.2764 28.4605L9.29648 1.3034L16.1255 3.28857L8.10538 30.5251Z" fill="#D1A32C"/>
<path d="M27.4808 0.509155H19.1431C18.8254 0.509155 18.5078 0.747375 18.5078 1.14441V30.6837C18.5078 31.0014 18.746 31.319 19.1431 31.319H27.4808V31.2396C27.7984 31.2396 28.116 31.0014 28.116 30.6043V1.14441C28.116 0.826782 27.8778 0.509155 27.4808 0.509155ZM26.9249 30.1279H19.7783V1.77966H26.9249V30.1279Z" fill="#D1A32C"/>
<path d="M39.0745 0.588745H30.7368C30.4192 0.588745 30.1016 0.826966 30.1016 1.224V30.7633C30.1016 31.0809 30.3398 31.3986 30.7368 31.3986H39.0745C39.3922 31.3986 39.7098 31.1603 39.7098 30.7633V1.14459C39.6304 0.826965 39.3922 0.588745 39.0745 0.588745ZM38.4393 30.0487H31.2927V1.77985H38.4393V30.0487Z" fill="#D1A32C"/>
<path d="M12.3957 3.4474C11.1252 3.05036 9.77525 3.84443 9.45762 5.03553C9.29881 5.67079 9.37822 6.30604 9.61644 6.86189C9.93406 7.41774 10.4105 7.81477 11.0458 7.97358C11.284 8.05299 11.5222 8.05299 11.7604 8.05299C12.7927 8.05299 13.7456 7.33833 14.0632 6.30604C14.3808 5.11494 13.6662 3.84443 12.3957 3.4474ZM12.8721 6.06782C12.7133 6.70307 11.9986 7.10011 11.3634 6.86189C11.0458 6.78248 10.8075 6.54426 10.6487 6.30604C10.4899 5.98841 10.4899 5.67079 10.5693 5.35316C10.7281 4.87672 11.2046 4.47968 11.7604 4.47968C11.8398 4.47968 11.9986 4.47968 12.078 4.55909C12.6339 4.79731 13.0309 5.43257 12.8721 6.06782Z" fill="#D1A32C"/>
<path d="M23.351 2.89148C22.001 2.89148 20.9688 4.00317 20.9688 5.27368C20.9688 6.6236 22.0804 7.65589 23.351 7.65589C24.7009 7.65589 25.7332 6.54419 25.7332 5.27368C25.7332 4.00317 24.6215 2.89148 23.351 2.89148ZM23.351 6.46478C22.7157 6.46478 22.1599 5.90894 22.1599 5.27368C22.1599 4.63843 22.7157 4.08258 23.351 4.08258C23.9862 4.08258 24.5421 4.63843 24.5421 5.27368C24.5421 5.98834 23.9862 6.46478 23.351 6.46478Z" fill="#D1A32C"/>
<path d="M34.8627 2.8916C33.5128 2.8916 32.4805 4.0033 32.4805 5.2738C32.4805 6.62372 33.5922 7.65601 34.8627 7.65601C36.2126 7.65601 37.2449 6.54431 37.2449 5.2738C37.2449 3.92389 36.1332 2.8916 34.8627 2.8916ZM34.8627 6.46491C34.2274 6.46491 33.6716 5.90906 33.6716 5.2738C33.6716 4.63855 34.2274 4.0827 34.8627 4.0827C35.4979 4.0827 36.0538 4.63855 36.0538 5.2738C36.0538 5.90906 35.4979 6.46491 34.8627 6.46491Z" fill="#D1A32C"/>
<path d="M9.30045 19.9641L5.96537 18.9319C5.64774 18.8524 5.33011 19.0113 5.2507 19.3289C5.1713 19.6465 5.33011 19.9641 5.64774 20.0436L8.98282 21.0758C9.06223 21.0758 9.06223 21.0758 9.14164 21.0758C9.37986 21.0758 9.61808 20.917 9.69748 20.6788C9.8563 20.4406 9.61808 20.0436 9.30045 19.9641Z" fill="#D1A32C"/>
<path d="M8.03092 24.2518L4.69583 23.2989C4.37821 23.2195 4.06058 23.3783 3.98117 23.696C3.90177 24.0136 4.06058 24.3312 4.37821 24.4106L7.71329 25.4429C7.7927 25.4429 7.7927 25.4429 7.8721 25.4429C8.11032 25.4429 8.34854 25.2841 8.42795 25.0459C8.58676 24.7282 8.34854 24.3312 8.03092 24.2518Z" fill="#D1A32C"/>
<path d="M25.0979 19.6462H21.604C21.2864 19.6462 20.9688 19.8845 20.9688 20.2815C20.9688 20.5991 21.207 20.9167 21.604 20.9167H25.0979C25.4155 20.9167 25.7332 20.6785 25.7332 20.2815C25.6538 19.8845 25.4155 19.6462 25.0979 19.6462Z" fill="#D1A32C"/>
<path d="M25.0979 24.0931H21.604C21.2864 24.0931 20.9688 24.3314 20.9688 24.7284C20.9688 25.046 21.207 25.3636 21.604 25.3636H25.0979C25.4155 25.3636 25.7332 25.1254 25.7332 24.7284C25.6538 24.4108 25.4155 24.0931 25.0979 24.0931Z" fill="#D1A32C"/>
<path d="M36.6096 19.6462H33.1157C32.7981 19.6462 32.4805 19.8845 32.4805 20.2815C32.4805 20.5991 32.7187 20.9168 33.1157 20.9168H36.6096C36.9272 20.9168 37.2449 20.6785 37.2449 20.2815C37.2449 19.8845 36.9272 19.6462 36.6096 19.6462Z" fill="#D1A32C"/>
<path d="M36.6096 24.0931H33.1157C32.7981 24.0931 32.4805 24.3314 32.4805 24.7284C32.4805 25.046 32.7187 25.3636 33.1157 25.3636H36.6096C36.9272 25.3636 37.2449 25.1254 37.2449 24.7284C37.2449 24.4108 36.9272 24.0931 36.6096 24.0931Z" fill="#D1A32C"/>
</svg>
