<svg width="65" height="64" viewBox="0 0 65 64" fill="none" xmlns="http://www.w3.org/2000/svg">
<path d="M62.9339 2.79262e-08C62.9337 2.79262e-08 62.9335 2.79262e-08 62.9333 2.79262e-08H1.06667C0.477733 -0.000133305 0.000133333 0.4772 0 1.06613C0 1.06627 0 1.06653 0 1.06667V22.4H2.13333V2.13333H61.8667V25.6H24.5333V27.7333H62.9333C63.5223 27.7335 63.9999 27.2561 64 26.6672C64 26.6671 64 26.6668 64 26.6667V1.06667C64.0001 0.477733 63.5228 0.000133361 62.9339 2.79262e-08Z" fill="#B76E23"/>
<path d="M56.5345 5.33337H35.2012V7.46671H56.5345V5.33337Z" fill="#B76E23"/>
<path d="M59.7337 11.7333H38.4004V13.8666H59.7337V11.7333Z" fill="#B76E23"/>
<path d="M55.4661 18.1333H34.1328V20.2666H55.4661V18.1333Z" fill="#B76E23"/>
<path d="M34.0483 9.19659C33.318 7.44126 31.3031 6.61032 29.5479 7.34059C29.5179 7.35312 29.488 7.36592 29.4584 7.37926L20.8093 11.8659C21.1504 11.159 21.3295 10.3849 21.3333 9.60006C21.3333 6.65459 18.9455 4.26672 16 4.26672C13.0545 4.26672 10.6667 6.65459 10.6667 9.60006C10.6707 10.7578 11.0551 11.8822 11.7607 12.8001H11.7163C8.68853 12.8203 5.98573 14.7026 4.9168 17.5355L2.06933 27.3501C1.39147 29.1109 2.26933 31.0879 4.03027 31.7658C4.8332 32.0749 5.7232 32.0697 6.52253 31.7511C7.44093 31.3811 8.1556 30.6339 8.48453 29.7001L9.6 26.1501V41.5878C8.68213 40.8823 7.55773 40.4979 6.4 40.4938C3.45893 40.4894 1.07107 42.8701 1.06667 45.8113C1.06453 47.2517 1.64587 48.6314 2.67827 49.6359C1.03987 50.473 0.00640003 52.1551 2.79262e-08 53.9949V62.9334C-0.000133305 63.5223 0.4772 63.9999 1.06613 64.0001C1.06627 64.0001 1.06653 64.0001 1.06667 64.0001H11.7333C12.3223 64.0002 12.7999 63.5229 12.8 62.9339C12.8 62.9338 12.8 62.9335 12.8 62.9334V53.9949C12.7948 52.483 12.0924 51.0582 10.8965 50.1334H18.9703C17.7743 51.0582 17.0719 52.483 17.0668 53.9949V62.9334C17.0667 63.5223 17.544 63.9999 18.1329 64.0001C18.1331 64.0001 18.1333 64.0001 18.1335 64.0001H28.8001C29.3891 64.0002 29.8667 63.5229 29.8668 62.9339C29.8668 62.9338 29.8668 62.9335 29.8668 62.9334V53.9949C29.8604 52.1551 28.8269 50.473 27.1885 49.6359C29.2945 47.5803 29.3355 44.2066 27.2799 42.1006C26.014 40.8037 24.1757 40.239 22.4001 40.6017V18.7813L32.1923 13.6969C33.9475 12.9667 34.7784 10.9518 34.0483 9.19659ZM16 6.40006C17.7673 6.40006 19.2 7.83272 19.2 9.60006C19.2 11.3674 17.7673 12.8001 16 12.8001C14.2335 12.7982 12.8019 11.3666 12.8 9.60006C12.8 7.83272 14.2327 6.40006 16 6.40006ZM6.4 42.6271C8.16733 42.6271 9.6 44.0598 9.6 45.8271C9.6 47.5945 8.16733 49.0271 6.4 49.0271C4.63267 49.0271 3.2 47.5945 3.2 45.8271C3.20187 44.0606 4.63347 42.6291 6.4 42.6271ZM10.6667 61.8667H2.13333V53.9949C2.13547 52.4521 3.38573 51.2019 4.92867 51.2001H7.87133C9.41413 51.2019 10.6645 52.4521 10.6667 53.9949V61.8667ZM27.7333 53.9949V61.8667H19.2V53.9949C19.2021 52.4521 20.4524 51.2019 21.9953 51.2001H24.938C26.4809 51.2019 27.7312 52.4521 27.7333 53.9949ZM23.4667 42.6271C25.2332 42.629 26.6648 44.0606 26.6667 45.8271C26.6667 47.5945 25.234 49.0271 23.4667 49.0271C21.6993 49.0271 20.2667 47.5945 20.2667 45.8271C20.2667 44.0598 21.6993 42.6271 23.4667 42.6271ZM32.0964 10.9761C31.9536 11.3425 31.6604 11.6301 31.2912 11.7657L20.8423 17.1865C20.4887 17.3699 20.2667 17.7351 20.2667 18.1334V41.5878C18.2687 43.0651 17.5765 45.7389 18.6069 48.0001H17.0667V29.8667H14.9333V48.0001H11.2597C11.5632 47.3294 11.7231 46.6027 11.7293 45.8667H11.7333V19.2001C11.7332 18.6109 11.2555 18.1334 10.6664 18.1335C10.2007 18.1337 9.7888 18.4359 9.64907 18.8803L6.464 29.0157C6.22267 29.6813 5.48733 30.0253 4.82173 29.7838C4.77507 29.7669 4.72933 29.7473 4.6848 29.725C4.06947 29.407 3.80827 28.6646 4.08907 28.0313L6.9364 18.2167C7.70427 16.2447 9.59987 14.9426 11.7161 14.9334H19.2688C19.4397 14.9337 19.6083 14.8925 19.76 14.8137L30.3616 9.31059C30.9976 9.04526 31.7307 9.31672 32.0403 9.93246C32.2044 10.257 32.2248 10.6357 32.0964 10.9761Z" fill="#B76E23"/>
<path d="M44.2545 49.6358C46.3643 47.5804 46.4083 44.2037 44.3528 42.094C42.2973 39.9842 38.9207 39.9402 36.8109 41.9957C34.7012 44.0512 34.6572 47.4278 36.7127 49.5376C36.7451 49.5708 36.7779 49.6036 36.8111 49.6358C35.1728 50.4729 34.1392 52.155 34.1328 53.9948V62.9333C34.1327 63.5222 34.61 63.9998 35.1989 64C35.1991 64 35.1993 64 35.1995 64H45.8661C46.4551 64.0001 46.9327 63.5228 46.9328 62.9338C46.9328 62.9337 46.9328 62.9334 46.9328 62.9333V53.9948C46.9264 52.155 45.8929 50.4729 44.2545 49.6358ZM40.5328 42.627C42.3001 42.627 43.7328 44.0597 43.7328 45.827C43.7328 47.5944 42.3001 49.027 40.5328 49.027C38.7655 49.027 37.3328 47.5944 37.3328 45.827C37.3347 44.0605 38.7663 42.629 40.5328 42.627ZM44.7995 61.8666H36.2661V53.9948C36.2683 52.452 37.5185 51.2018 39.0615 51.2H42.0041C43.5469 51.2018 44.7973 52.452 44.7995 53.9948V61.8666Z" fill="#B76E23"/>
<path d="M61.3229 49.6358C63.4326 47.5804 63.4766 44.2037 61.4212 42.094C59.3657 39.9842 55.989 39.9402 53.8793 41.9957C51.7696 44.0512 51.7256 47.4278 53.781 49.5376C53.8134 49.5708 53.8462 49.6036 53.8794 49.6358C52.2412 50.4729 51.2076 52.155 51.2012 53.9948V62.9333C51.201 63.5222 51.6784 63.9998 52.2673 64C52.2674 64 52.2677 64 52.2678 64H62.9345C63.5234 64.0001 64.001 63.5228 64.0012 62.9338C64.0012 62.9337 64.0012 62.9334 64.0012 62.9333V53.9948C63.9948 52.155 62.9613 50.4729 61.3229 49.6358ZM57.6012 42.627C59.3685 42.627 60.8012 44.0597 60.8012 45.827C60.8012 47.5944 59.3685 49.027 57.6012 49.027C55.8338 49.027 54.4012 47.5944 54.4012 45.827C54.403 44.0605 55.8346 42.629 57.6012 42.627ZM61.8678 61.8666H53.3345V53.9948C53.3366 52.452 54.5869 51.2018 56.1298 51.2H59.0725C60.6153 51.2018 61.8657 52.452 61.8678 53.9948V61.8666Z" fill="#B76E23"/>
</svg>
