<svg width="64" height="62" viewBox="0 0 64 62" fill="none" xmlns="http://www.w3.org/2000/svg">
<path d="M3.75686 37.9269C3.96598 38.4937 4.29548 39.004 4.71711 39.4221C5.46473 40.1698 6.49248 40.6339 7.62623 40.6339C8.75661 40.6339 9.78773 40.1698 10.5352 39.4221C11.2829 38.6746 11.747 37.6435 11.747 36.5131V34.2206C10.879 34.295 10.1171 34.1073 9.52186 33.8591C9.46861 34.1177 9.40848 34.3694 9.33048 34.6174C9.03636 35.574 8.54386 36.4457 7.76436 37.0729C6.97423 37.7108 5.92548 38.0793 4.53636 38.0082C4.28836 37.9976 4.02961 37.9694 3.75686 37.9269ZM28.0431 31.7864H36.2849V29.1961H29.9387C29.4179 29.1961 28.943 29.4124 28.5994 29.756C28.2556 30.0997 28.0431 30.571 28.0431 31.0919V31.7864ZM36.2847 33.6607H28.043V36.513C28.043 37.6434 28.5071 38.6745 29.2547 39.422C30.0022 40.1696 31.0334 40.6337 32.1637 40.6337C33.2975 40.6337 34.3286 40.1696 35.0729 39.422C35.8204 38.6745 36.2846 37.6434 36.2846 36.513V33.6607H36.2847ZM61.9741 39.9182C62.4772 40.184 62.9201 40.5455 63.2851 40.9741C63.9406 41.7466 64.334 42.7422 64.334 43.8229V50.1441C64.334 50.6615 63.9159 51.0795 63.3986 51.0795C62.8814 51.0795 62.4596 50.6614 62.4596 50.1441V43.8229C62.4596 43.1994 62.2327 42.6252 61.8572 42.1824C61.5241 41.789 61.0741 41.4985 60.5604 41.3604C59.5719 42.0831 58.3562 42.5084 57.0454 42.5084C55.6884 42.5084 54.4339 42.0549 53.424 41.286C53.2327 41.3072 53.0484 41.3605 52.8712 41.442C52.6302 41.5552 52.4106 41.729 52.2334 41.9627L47.1982 48.6314C47.0211 48.8652 46.7447 49.007 46.4507 49.007H39.9984C39.52 49.007 39.0877 49.1982 38.776 49.51C38.4641 49.8254 38.2692 50.2576 38.2692 50.7325C38.2692 51.2108 38.4641 51.6431 38.776 51.9549C39.0877 52.2666 39.52 52.4616 39.9984 52.4616H47.705C48.0135 52.4616 48.2507 52.4297 48.545 52.2809C49.0906 52.008 49.6009 51.179 49.9729 50.6829L53.3072 46.2715C53.619 45.857 54.2036 45.7754 54.6181 46.0872C55.0291 46.399 55.1106 46.9871 54.7989 47.3982L51.6276 51.6005V59.7714H62.4596V54.389C62.4596 53.8716 62.8812 53.4536 63.3986 53.4536C63.916 53.4536 64.334 53.8717 64.334 54.389V60.7102C64.334 61.2276 63.9159 61.6456 63.3986 61.6456C42.6876 61.6456 21.9804 61.6456 1.27298 61.6456C0.755734 61.6456 0.333984 61.2275 0.333984 60.7102V54.389C0.333984 53.8716 0.755734 53.4536 1.27298 53.4536C1.79036 53.4536 2.20836 53.8717 2.20836 54.389V59.7714H13.044V51.6005L9.86923 47.3982C9.55748 46.9871 9.63898 46.399 10.0536 46.0872C10.4646 45.7754 11.0527 45.8569 11.3646 46.2715L14.6244 50.5872C14.922 50.9805 15.2197 51.3772 15.5172 51.7742C15.6872 51.9974 15.8964 52.1675 16.1267 52.2809C16.3854 52.412 16.6264 52.4616 16.9099 52.4616H24.6732C25.1481 52.4616 25.5804 52.2666 25.8956 51.9549C26.2075 51.6431 26.3987 51.2108 26.3987 50.7325C26.3987 50.2576 26.2075 49.8254 25.8956 49.51C25.5804 49.1982 25.1481 49.007 24.6732 49.007H18.2174C17.9339 49.007 17.654 48.8759 17.4699 48.6314L12.4347 41.9627C12.1476 41.5836 11.7189 41.3392 11.2442 41.286C10.2379 42.0514 8.98361 42.5084 7.62648 42.5084C6.31548 42.5084 5.09648 42.0832 4.10798 41.364C3.60486 41.4951 3.15836 41.7821 2.82523 42.1647C2.44248 42.6111 2.20861 43.1887 2.20861 43.823V50.1442C2.20861 50.6616 1.79048 51.0796 1.27323 51.0796C0.755984 51.0796 0.334234 50.6615 0.334234 50.1442V43.823C0.334234 42.7281 0.741734 41.7184 1.41136 40.9424C1.77286 40.5279 2.20861 40.177 2.69761 39.9184C1.99961 38.9156 1.63111 37.7321 1.63111 36.5132V31.092C1.63111 30.0538 2.05273 29.1112 2.73661 28.4275C3.42061 27.7472 4.35948 27.322 5.39761 27.322H9.85148C10.8897 27.322 11.8322 27.7471 12.516 28.4275C13.2 29.1114 13.6216 30.0539 13.6216 31.092V36.5132C13.6216 37.7144 13.2637 38.8377 12.6506 39.7766C13.1574 40.0317 13.586 40.3825 13.9297 40.8361L18.6815 47.129H22.4337V43.3271C22.4337 42.25 23.0042 41.2755 23.929 40.4499C24.6449 39.8121 25.5874 39.2557 26.6291 38.8165C26.3315 38.1042 26.1686 37.3283 26.1686 36.5132V32.7254V31.0919C26.1686 30.0536 26.5937 29.1111 27.2742 28.4274C27.9581 27.7471 28.9006 27.3219 29.9387 27.3219H37.2237C37.7412 27.3219 38.1629 27.7435 38.1629 28.2609V32.7255V36.5132C38.1629 37.2821 38.0141 38.0192 37.7484 38.6995C38.868 39.1389 39.8814 39.7057 40.6469 40.3647C41.6282 41.2081 42.2342 42.2144 42.2342 43.327V47.1289H45.9865L50.7382 40.836C51.0891 40.3753 51.5284 40.021 52.021 39.7801C51.4044 38.8376 51.0465 37.7144 51.0465 36.5131V31.0919C51.0465 30.0536 51.4717 29.1111 52.1521 28.4274C52.836 27.7471 53.7785 27.3219 54.8166 27.3219H59.2707C60.3089 27.3219 61.2515 27.747 61.9352 28.4274C62.6155 29.1112 63.0407 30.0538 63.0407 31.0919V36.5131C63.0406 37.7319 62.6686 38.9154 61.9741 39.9182ZM60.9111 37.9269C60.6419 37.9694 60.3796 37.9976 60.1316 38.0082C58.7461 38.0791 57.6972 37.7106 56.9071 37.0729C56.124 36.4457 55.6315 35.5741 55.3374 34.6174C55.2629 34.3694 55.1992 34.1177 55.1495 33.8591C54.5507 34.1071 53.7925 34.2949 52.9209 34.2206V36.5131C52.9209 37.6435 53.385 38.6746 54.1326 39.4221C54.8801 40.1698 55.9114 40.6339 57.0452 40.6339C58.1755 40.6339 59.2067 40.1698 59.9544 39.4221C60.3726 39.004 60.702 38.4937 60.9111 37.9269ZM52.9209 32.3426C54.1716 32.5197 55.0857 31.7934 55.2487 31.6516C55.4331 31.4958 55.6066 31.4001 55.8582 31.3894C56.3756 31.3646 56.8114 31.7615 56.8361 32.2787C56.8681 32.8882 56.953 33.5049 57.1266 34.0681C57.318 34.6953 57.6191 35.248 58.0764 35.6165C58.5264 35.978 59.1607 36.1835 60.043 36.1409C60.3831 36.1231 60.7551 36.0701 61.1661 35.9779V31.0916C61.1661 30.5707 60.95 30.0995 60.6062 29.7557C60.2626 29.4121 59.7912 29.1959 59.2705 29.1959H54.8165C54.2956 29.1959 53.8242 29.4121 53.4806 29.7557C53.1369 30.0995 52.9209 30.5707 52.9209 31.0916V32.3426ZM11.7471 32.3426V31.0917C11.7471 30.5709 11.5346 30.0996 11.1909 29.7559C10.8472 29.4122 10.3724 29.196 9.85148 29.196H5.39736C4.88011 29.196 4.40523 29.4122 4.06148 29.7559C3.71786 30.0996 3.50523 30.5709 3.50523 31.0917V35.978C3.91273 36.0701 4.28473 36.1232 4.62498 36.141C5.50736 36.1836 6.14161 35.978 6.59148 35.6166C7.04861 35.2482 7.34973 34.6954 7.54473 34.0682C7.71836 33.5049 7.80336 32.8884 7.83173 32.2789C7.85648 31.7615 8.29586 31.3647 8.80961 31.3895C9.05061 31.4002 9.23473 31.4888 9.41198 31.6446C9.54323 31.7615 10.4716 32.5232 11.7471 32.3426ZM27.6321 40.4285C26.654 40.8076 25.7895 41.2895 25.1729 41.8424C24.6379 42.3171 24.3082 42.8274 24.3082 43.327V47.1289H24.6732C25.6655 47.1289 26.569 47.5327 27.221 48.1847C27.873 48.8367 28.2769 49.7367 28.2769 50.7325C28.2769 51.3596 28.1139 51.9479 27.834 52.4616H36.834C36.5541 51.9479 36.3946 51.3596 36.3946 50.7325C36.3946 49.7367 36.7985 48.8367 37.4506 48.1847C38.1026 47.5327 39.0025 47.1289 39.9982 47.1289H40.3597V43.327C40.3597 42.8096 40.0054 42.2781 39.4314 41.7856C38.7581 41.2081 37.8226 40.7085 36.7809 40.3294C36.6604 40.4746 36.5329 40.6164 36.4017 40.7475C35.314 41.8352 33.8151 42.5085 32.164 42.5085C30.5162 42.5085 29.014 41.8352 27.9297 40.7475C27.8269 40.6445 27.7276 40.5384 27.6321 40.4285ZM8.14711 6.62875C7.62973 6.62875 7.21173 6.20712 7.21173 5.68975C7.21173 5.17237 7.62986 4.75437 8.14711 4.75437H25.5024C26.0197 4.75437 26.4379 5.1725 26.4379 5.68975C26.4379 6.20712 26.0196 6.62875 25.5024 6.62875H8.14711ZM8.14711 16.4934C7.62973 16.4934 7.21173 16.0717 7.21173 15.5544C7.21173 15.037 7.62986 14.6154 8.14711 14.6154H16.8249C17.3422 14.6154 17.7639 15.037 17.7639 15.5544C17.7639 16.0717 17.3422 16.4934 16.8249 16.4934H8.14711ZM8.14711 11.5611C7.62973 11.5611 7.21173 11.1394 7.21173 10.6221C7.21173 10.1047 7.62986 9.68675 8.14711 9.68675H25.5024C26.0197 9.68675 26.4379 10.1049 26.4379 10.6221C26.4379 11.1394 26.0196 11.5611 25.5024 11.5611H8.14711ZM26.4626 21.5567C26.5937 21.9217 26.8027 22.2476 27.0686 22.5134C27.5435 22.9917 28.2025 23.2894 28.9359 23.2894H34.4457C34.9631 23.2894 35.3811 23.7075 35.3811 24.2284C35.3811 24.7457 34.963 25.1637 34.4457 25.1637H28.9359C27.6851 25.1637 26.5582 24.6536 25.7432 23.8315C25.1339 23.2186 24.7015 22.432 24.5172 21.5567H11.446L7.20111 25.8016C7.03111 25.9717 6.79723 26.078 6.53498 26.078C6.01761 26.078 5.59598 25.6599 5.59598 25.1426V21.4789C4.40536 21.2804 3.33873 20.71 2.52036 19.8879C1.48923 18.8602 0.851484 17.4394 0.851484 15.8732V5.371C0.851484 3.80837 1.48936 2.3875 2.52036 1.3565C3.54786 0.328875 4.96873 -0.3125 6.53498 -0.3125H27.1149C28.6809 -0.3125 30.1019 0.328875 31.1294 1.3565C32.1605 2.3875 32.7982 3.80837 32.7982 5.371V7.10725H48.7222C49.9659 7.10725 51.0927 7.614 51.9112 8.4325C52.7297 9.251 53.2365 10.3777 53.2365 11.6215V20.6499C53.2365 21.8936 52.7297 23.0204 51.9112 23.8389C51.3052 24.4449 50.5259 24.8806 49.6577 25.065V28.75C49.6577 28.9874 49.5691 29.2282 49.3849 29.4126C49.0199 29.7775 48.4246 29.7775 48.0595 29.4126L43.8111 25.1641H38.691C38.1736 25.1641 37.752 24.746 37.752 24.2287C37.752 23.7079 38.1736 23.2897 38.691 23.2897H44.2009C44.4631 23.2897 44.6969 23.3961 44.867 23.5696L47.7831 26.4857V24.2286C47.7831 23.7078 48.2047 23.2896 48.7222 23.2896C49.445 23.2896 50.1076 22.992 50.586 22.5136C51.0644 22.0354 51.362 21.3762 51.362 20.6499V11.6215C51.362 10.8951 51.0644 10.2361 50.586 9.75775C50.1076 9.27937 49.445 8.98175 48.7222 8.98175H32.7981V15.8735C32.7981 17.4396 32.1604 18.8605 31.1292 19.8881C30.1016 20.9191 28.6807 21.557 27.1147 21.557H26.4626V21.5567ZM11.0561 19.6824H27.1147C28.1636 19.6824 29.1131 19.2536 29.8041 18.5627C30.495 17.8717 30.9237 16.9186 30.9237 15.8732V5.371C30.9237 4.32575 30.495 3.37262 29.8041 2.68162C29.1132 1.99062 28.1636 1.56187 27.1147 1.56187H6.53486C5.48598 1.56187 4.53636 1.99062 3.84536 2.68162C3.15448 3.3725 2.72561 4.32562 2.72561 5.371V15.8734C2.72561 16.9186 3.15448 17.8717 3.84536 18.5629C4.53623 19.2537 5.48598 19.6825 6.53486 19.6825C7.05223 19.6825 7.47023 20.1041 7.47023 20.6215V22.8786L10.3935 19.959C10.5779 19.7745 10.8152 19.6824 11.0561 19.6824ZM49.7531 54.3359H14.9185V59.7712H49.7532V54.3359H49.7531Z" fill="#B76E23"/>
</svg>
