<svg width="64" height="57" viewBox="0 0 64 57" fill="none" xmlns="http://www.w3.org/2000/svg">
<path d="M59.7804 20.3882C59.6664 20.2742 59.5505 20.1629 59.4336 20.0529V16.4503C59.4336 12.8679 56.5191 9.95344 52.9367 9.95344H41.5406V6.68844C41.5406 3.20269 38.7047 0.366943 35.2191 0.366943H24.5487C21.063 0.366943 18.2272 3.20269 18.2272 6.68844V9.95344H6.83086C3.24848 9.95344 0.333984 12.8679 0.333984 16.4503V45.3692C0.333984 48.9516 3.24848 51.8661 6.83086 51.8661H20.3954C20.9131 51.8661 21.3329 51.4463 21.3329 50.9286C21.3329 50.4108 20.9131 49.9911 20.3954 49.9911H6.83086C4.28223 49.9911 2.20886 47.9177 2.20886 45.3691V26.4566C4.04461 29.1796 7.06436 31.0412 10.5237 31.2976V34.7108C10.5237 36.6602 12.1097 38.2462 14.0591 38.2462C16.0086 38.2462 17.5946 36.6602 17.5946 34.7108V31.3282H33.2607C33.2607 31.3432 33.2602 31.3581 33.2602 31.3731C33.2602 34.5654 34.2176 37.6103 35.9949 40.1814L34.0046 42.1717C33.3096 41.9751 32.5309 42.1487 31.985 42.6948L24.3401 50.3397C22.8269 51.8529 22.8269 54.3152 24.3401 55.8284C25.8569 57.3452 28.312 57.3454 29.8289 55.8284L37.4737 48.1836C38.0197 47.6376 38.1935 46.8589 37.9969 46.1639L39.9889 44.1719C45.2567 47.8001 52.2787 47.8116 57.5589 44.2013V45.3692C57.5589 47.9178 55.4855 49.9912 52.9369 49.9912H38.1289C37.6111 49.9912 37.1914 50.4109 37.1914 50.9287C37.1914 51.4464 37.6111 51.8662 38.1289 51.8662H52.9367C56.5191 51.8662 59.4336 48.9517 59.4336 45.3693V42.6934C59.5504 42.5837 59.6662 42.4724 59.7804 42.3583C65.8515 36.2872 65.8522 26.4601 59.7804 20.3882ZM20.102 6.68844C20.102 4.23657 22.0967 2.24182 24.5486 2.24182H35.219C37.6709 2.24182 39.6656 4.23657 39.6656 6.68844V9.95344H37.6657V6.68844C37.6657 5.33932 36.5681 4.24169 35.219 4.24169H24.5486C23.1995 4.24169 22.1019 5.33932 22.1019 6.68844V9.95344H20.102V6.68844ZM23.9767 9.95344V6.68844C23.9767 6.37319 24.2332 6.11669 24.5486 6.11669H35.219C35.5344 6.11669 35.7909 6.37319 35.7909 6.68844V9.95344H23.9767ZM15.7197 31.8293H12.3987V28.6733C12.3987 27.7577 13.1436 27.0128 14.0592 27.0128C14.9749 27.0128 15.7197 27.7577 15.7197 28.6733V31.8293ZM14.0592 36.3714C13.1436 36.3714 12.3987 35.6266 12.3987 34.7109V33.7042H15.7197V34.7109C15.7197 35.6266 14.9749 36.3714 14.0592 36.3714ZM17.5946 29.4534V28.6733C17.5946 26.7239 16.0086 25.1379 14.0591 25.1379C12.1097 25.1379 10.5237 26.7239 10.5237 28.6733V29.4147C5.86961 28.9977 2.20886 25.0777 2.20886 20.3169V16.4503C2.20886 13.9017 4.28223 11.8283 6.83086 11.8283H52.9367C55.4854 11.8283 57.5587 13.9017 57.5587 16.4503V18.5417C51.6306 14.4746 43.2801 14.9182 37.8104 20.3881C35.3335 22.8648 33.7961 26.0307 33.377 29.4533H17.5946V29.4534ZM28.503 54.5028C27.719 55.2868 26.4499 55.2869 25.6657 54.5028C25.2867 54.1238 25.0781 53.6201 25.0781 53.0842C25.0781 52.5483 25.2867 52.0444 25.6657 51.6656L30.9619 46.3694L33.7991 49.2067L28.503 54.5028ZM36.1479 46.8579L35.1249 47.8809L32.2876 45.0437L33.3106 44.0207C33.3466 43.9848 33.3937 43.9668 33.4409 43.9668C33.488 43.9668 33.5351 43.9848 33.571 44.0206C33.5712 44.0207 33.5714 44.0209 33.5716 44.0211L36.1479 46.5973C36.2196 46.6692 36.2196 46.7861 36.1479 46.8579ZM36.8556 44.6536L35.5149 43.3128L37.1607 41.6669C37.3697 41.9026 37.5857 42.1336 37.8104 42.3581C38.0355 42.5832 38.2665 42.7989 38.5017 43.0073L36.8556 44.6536ZM39.1361 41.0324C36.556 38.4524 35.1351 35.0219 35.1351 31.3732C35.1351 27.7244 36.556 24.2939 39.1361 21.7139C44.4744 16.3756 53.1156 16.3748 58.4546 21.7139C63.793 27.0522 63.7937 35.6934 58.4546 41.0324C53.1161 46.3709 44.4751 46.3716 39.1361 41.0324Z" fill="#B76E23"/>
<path d="M59.0819 32.6604C58.5761 32.5504 58.0766 32.8712 57.9667 33.3773C57.5852 35.1315 56.7092 36.7333 55.4332 38.0092C51.7656 41.6767 45.8292 41.677 42.1612 38.0092C38.5021 34.35 38.5021 28.3963 42.1612 24.7372C45.8288 21.0696 51.7652 21.0692 55.4332 24.7372C56.7078 26.0118 57.5836 27.6118 57.9657 29.3642C58.0759 29.87 58.5756 30.1912 59.0813 30.0804C59.5872 29.9702 59.9078 29.4707 59.7976 28.9648C59.3388 26.8608 58.2881 24.9406 56.7591 23.4114C52.3587 19.0111 45.2364 19.0106 40.8356 23.4114C36.4454 27.8016 36.4454 34.9448 40.8356 39.3349C45.2256 43.7249 52.3687 43.7252 56.7591 39.3349C58.2897 37.8043 59.3408 35.8819 59.7988 33.7757C59.9087 33.2698 59.5878 32.7705 59.0819 32.6604Z" fill="#B76E23"/>
</svg>
