<svg width="20" height="20" viewBox="0 0 20 20" fill="none" xmlns="http://www.w3.org/2000/svg">
<g clip-path="url(#clip0)">
<path d="M19.8643 0.0182134C19.8203 8.29165e-05 19.7719 -0.00464373 19.7252 0.00462673C19.6786 0.0138972 19.6356 0.0367517 19.6019 0.0703217L0.0849888 19.5891C0.0515483 19.6228 0.0288222 19.6657 0.0196619 19.7124C0.0105016 19.759 0.0153151 19.8073 0.0334985 19.8512C0.0515778 19.895 0.082222 19.9325 0.121575 19.959C0.160928 19.9855 0.207231 19.9997 0.254657 19.9999H19.7716C19.9048 19.9999 20.0127 19.8922 20.0127 19.759V0.241998C20.013 0.194182 19.999 0.147374 19.9726 0.107525C19.9462 0.0676765 19.9085 0.036588 19.8643 0.0182134ZM0.837174 19.5178L19.5304 0.824548V2.67061H18.1667C18.0336 2.67061 17.9255 2.77835 17.9255 2.91154C17.9255 3.04472 18.0336 3.15277 18.1667 3.15277H19.5304V4.41807H18.9691C18.8358 4.41807 18.728 4.52593 18.728 4.65915C18.728 4.79238 18.8358 4.90033 18.9691 4.90033H19.5304V6.16375H18.9691C18.8358 6.16375 18.728 6.27185 18.728 6.40492C18.728 6.53799 18.8358 6.64588 18.9691 6.64588H19.5304V7.91146H18.1667C18.1027 7.91148 18.0414 7.9369 17.9962 7.98212C17.951 8.02735 17.9255 8.08868 17.9255 8.15263C17.9255 8.28573 18.0336 8.39359 18.1667 8.39359H19.5304V9.65892H18.9691C18.8358 9.65892 18.728 9.76691 18.728 9.90013C18.728 10.0333 18.8358 10.1412 18.9691 10.1412H19.5304V11.4047H18.9691C18.9374 11.4047 18.906 11.411 18.8768 11.4231C18.8475 11.4352 18.821 11.453 18.7986 11.4754C18.7762 11.4978 18.7584 11.5243 18.7463 11.5536C18.7342 11.5829 18.728 11.6142 18.728 11.6459C18.728 11.7789 18.8358 11.8871 18.9691 11.8871H19.5304V13.1523H18.1667C18.1027 13.1523 18.0414 13.1777 17.9962 13.223C17.9509 13.2682 17.9255 13.3295 17.9255 13.3935C17.9255 13.5266 18.0336 13.6346 18.1667 13.6346H19.5304V14.8999H18.9691C18.9056 14.9006 18.845 14.9263 18.8003 14.9715C18.7557 15.0166 18.7307 15.0775 18.7307 15.141C18.7307 15.2045 18.7557 15.2654 18.8003 15.3106C18.845 15.3557 18.9056 15.3814 18.9691 15.3822H19.5304V16.6475H18.9691C18.8358 16.6475 18.728 16.7555 18.728 16.8887C18.728 17.0219 18.8358 17.1299 18.9691 17.1299H19.5304V18.3951H18.1667C18.0336 18.3951 17.9255 18.5031 17.9255 18.6363C17.9255 18.7695 18.0336 18.8775 18.1667 18.8775H19.5304V19.5197L0.837174 19.5178Z" fill="#26282B"/>
<path d="M17.0305 7.23049C16.9864 7.21235 16.938 7.20763 16.8914 7.21693C16.8447 7.22622 16.8018 7.24911 16.768 7.28272L7.32977 16.719C7.29314 16.7526 7.26777 16.7966 7.2571 16.8451C7.24643 16.8936 7.25099 16.9442 7.27015 16.99C7.28944 17.0358 7.32237 17.0745 7.36445 17.1009C7.40653 17.1273 7.45572 17.1401 7.50533 17.1376H16.9379C17.0019 17.1376 17.0632 17.1122 17.1085 17.067C17.1537 17.0217 17.1791 16.9604 17.1791 16.8964V7.45239C17.1789 7.40488 17.1647 7.35849 17.1383 7.31902C17.1118 7.27955 17.0743 7.24875 17.0305 7.23049ZM16.6969 16.6475H8.08402L16.6969 8.03478V16.6475Z" fill="#26282B"/>
<path d="M3.21363 13.5439C3.47343 13.5448 3.73083 13.4941 3.9709 13.3947C4.21097 13.2954 4.42894 13.1494 4.61218 12.9652L12.2779 5.29763V5.2841C12.2968 5.27064 12.3137 5.25442 12.3278 5.23598C12.333 5.22727 12.3375 5.21821 12.3415 5.20895V5.19737L13.4023 1.68094C13.4152 1.63892 13.4164 1.59418 13.4058 1.55152C13.3951 1.50887 13.3731 1.46993 13.3419 1.4389C13.3107 1.40789 13.2716 1.38601 13.2289 1.37561C13.1862 1.36521 13.1414 1.3667 13.0994 1.3799L12.0617 1.6924L9.58301 2.44289C9.55403 2.45679 9.52605 2.47365 9.49998 2.49292L3.12677 8.8565L2.25878 9.72464L1.81523 10.1702C1.24874 10.735 1.0791 11.586 1.38558 12.325C1.69192 13.0642 2.41369 13.5452 3.21366 13.5439H3.21363ZM3.29872 9.36955L4.35565 10.4267L5.41274 11.4837L4.88415 12.0122L2.76238 9.89041L3.29872 9.36955ZM11.9885 2.21907C12.114 2.46361 12.3176 2.65916 12.5671 2.77456L11.9885 4.67264L10.1079 2.78611L11.9885 2.21907ZM9.65247 3.01395L10.5399 3.90102L4.52532 9.9137L3.64779 9.03592L9.65247 3.01395ZM5.75229 11.1423L4.86488 10.2552L10.8813 4.24054L11.7685 5.12796L5.75229 11.1423ZM12.7137 2.30207C12.6161 2.24624 12.5323 2.16908 12.4687 2.07634L12.812 1.97221L12.7137 2.30207ZM2.15657 10.5115L2.42854 10.2397L4.5504 12.3615L4.27843 12.6333C3.69255 13.2194 2.74261 13.2194 2.15657 12.6333C1.57078 12.0475 1.57078 11.0975 2.15657 10.5116V10.5115Z" fill="#26282B"/>
</g>
<defs>
<clipPath id="clip0">
<rect width="20" height="20" fill="white"/>
</clipPath>
</defs>
</svg>
