<svg id="Layer_1" data-name="Layer 1" xmlns="http://www.w3.org/2000/svg" width="28.47" height="32" viewBox="0 0 28.47 32"><defs><style>.cls-1{fill:#111;opacity:0.5;}.cls-2{fill:#fff;}</style></defs><title>Artboard 270</title><path class="cls-1" d="M28.19,22.78V9.22a2.24,2.24,0,0,0-1.1-1.92L16.58,1.24,16.18,1a7.79,7.79,0,0,0-.81-.46A2.54,2.54,0,0,0,14.29.28,3.6,3.6,0,0,0,12.5.89L1.38,7.31A2.24,2.24,0,0,0,.28,9.22V22.78a2.24,2.24,0,0,0,1.1,1.92l10.51,6.07.4.24a8,8,0,0,0,.81.46A2.79,2.79,0,0,0,16,31.11l11.12-6.42a2.05,2.05,0,0,0,1-1.15v0A2.46,2.46,0,0,0,28.19,22.78ZM19.81,16a.93.93,0,0,1-.24.62c0,.06-1.22.91-5.45,3.94l-1.29.93a.79.79,0,0,1-.47.15.9.9,0,0,1-.41-.1,1,1,0,0,1-.55-.86V11.28a1,1,0,0,1,.55-.86.82.82,0,0,1,.88,0L14,11.3c4.35,3.11,5.55,4,5.61,4.05a.93.93,0,0,1,.24.62A.58.58,0,0,1,19.81,16Z"/><path class="cls-2" d="M27.23,7.07,16.72,1,16.32.76a8,8,0,0,0-.84-.47,3.07,3.07,0,0,0-3.12.36L1.24,7.07A2.53,2.53,0,0,0,0,9.22V22.78a2.53,2.53,0,0,0,1.24,2.16L11.75,31l.39.24a8.2,8.2,0,0,0,.84.47,2.81,2.81,0,0,0,1.2.28,3.87,3.87,0,0,0,1.93-.64l11.12-6.42a2.35,2.35,0,0,0,1.1-1.31v-.08a2.67,2.67,0,0,0,.11-.77V9.22A2.53,2.53,0,0,0,27.23,7.07Zm.84,16.47a2.05,2.05,0,0,1-1,1.15L16,31.11a2.79,2.79,0,0,1-2.87.35,8,8,0,0,1-.81-.46l-.4-.24L1.38,24.69a2.24,2.24,0,0,1-1.1-1.92V9.22a2.24,2.24,0,0,1,1.1-1.92L12.5.89A3.6,3.6,0,0,1,14.29.28a2.54,2.54,0,0,1,1.08.26,7.79,7.79,0,0,1,.81.46l.4.24L27.09,7.31a2.24,2.24,0,0,1,1.1,1.92V22.78a2.46,2.46,0,0,1-.11.72Z"/><path class="cls-2" d="M19.57,15.35c-.06-.07-1.26-.94-5.61-4.05l-1.15-.82a.82.82,0,0,0-.88,0,1,1,0,0,0-.55.86v9.43a1,1,0,0,0,.55.86.9.9,0,0,0,.41.1.79.79,0,0,0,.47-.15l1.29-.93c4.23-3,5.4-3.88,5.45-3.94a.93.93,0,0,0,.24-.62.58.58,0,0,0,0-.08A.93.93,0,0,0,19.57,15.35Z"/></svg>