<svg width="24" height="24" viewBox="0 0 24 24" fill="none" xmlns="http://www.w3.org/2000/svg">
<path d="M20.53 10.0713C20.5588 6.68761 17.6769 3.58567 14.1057 3.15672C14.0347 3.14828 13.9573 3.13548 13.8754 3.12189C13.6986 3.09259 13.5158 3.0625 13.3313 3.0625C12.5994 3.0625 12.4038 3.57662 12.3523 3.88328C12.3022 4.1814 12.35 4.43176 12.494 4.62774C12.7364 4.95732 13.1629 5.01582 13.5054 5.06274C13.6058 5.07662 13.7006 5.08951 13.7799 5.10732C16.9884 5.82427 18.0688 6.95142 18.5968 10.1327C18.6097 10.2104 18.6155 10.3062 18.6217 10.4078C18.6447 10.7881 18.6927 11.5792 19.5433 11.5792H19.5434C19.6142 11.5792 19.6903 11.5731 19.7695 11.561C20.5616 11.4407 20.5368 10.7175 20.5248 10.37C20.5215 10.2721 20.5183 10.1796 20.5266 10.118C20.5287 10.1025 20.5299 10.0869 20.53 10.0713Z" fill="#7F40BD"/>
<path d="M13.1236 1.91465C13.2186 1.92149 13.3086 1.92805 13.3835 1.93954C18.6523 2.74982 21.0753 5.24609 21.7468 10.556C21.7582 10.6463 21.7599 10.7564 21.7618 10.8729C21.7685 11.2878 21.7823 12.1508 22.7091 12.1687L22.7379 12.169C23.0286 12.169 23.2598 12.0813 23.4252 11.9083C23.7137 11.6065 23.6936 11.1582 23.6773 10.7978C23.6734 10.7094 23.6696 10.6262 23.6706 10.5533C23.7375 5.12262 19.0367 0.198093 13.6109 0.0149999C13.5884 0.0142499 13.5669 0.0154687 13.5452 0.0185156C13.5346 0.0200624 13.5148 0.0220312 13.4809 0.0220312C13.4269 0.0220312 13.3603 0.0173437 13.2897 0.0125625C13.2043 0.0067031 13.1076 0 13.0095 0C12.1454 0 11.9812 0.614154 11.9602 0.980246C11.9117 1.82638 12.7303 1.88591 13.1236 1.91465Z" fill="#7F40BD"/>
<path d="M21.4926 17.4187C21.3806 17.3332 21.2647 17.2446 21.1563 17.1573C20.5811 16.6943 19.9691 16.2676 19.3772 15.8549C19.2544 15.7694 19.1315 15.6838 19.0091 15.5979C18.251 15.0653 17.5694 14.8065 16.9254 14.8065C16.058 14.8065 15.3018 15.2858 14.6777 16.2308C14.4012 16.6497 14.0657 16.8534 13.6523 16.8534C13.4078 16.8534 13.13 16.7837 12.8267 16.646C10.3795 15.5363 8.63207 13.8348 7.63284 11.5889C7.1498 10.5033 7.30641 9.79378 8.15653 9.21628C8.63929 8.88863 9.53788 8.27865 9.47423 7.11057C9.40213 5.78411 6.47536 1.79285 5.24218 1.33957C4.72009 1.14757 4.17151 1.14579 3.60878 1.33512C2.1911 1.81169 1.17377 2.64864 0.666496 3.75531C0.176279 4.82467 0.198404 6.08026 0.730527 7.38638C2.26877 11.1627 4.43143 14.4552 7.15871 17.1722C9.82823 19.8319 13.1093 22.0105 16.9106 23.6473C17.2533 23.7947 17.6127 23.8752 17.8751 23.9338C17.9645 23.9539 18.0417 23.9711 18.098 23.9865C18.129 23.9949 18.1608 23.9995 18.1928 23.9998L18.2229 23.9999C18.223 23.9999 18.2229 23.9999 18.223 23.9999C20.0109 23.9999 22.1578 22.3661 22.8171 20.5035C23.3947 18.8726 22.3401 18.0664 21.4926 17.4187Z" fill="#7F40BD"/>
<path d="M13.9145 6.22819C13.6084 6.23592 12.9714 6.25172 12.7479 6.90056C12.6433 7.20375 12.6558 7.467 12.7851 7.683C12.9749 7.99992 13.3385 8.09704 13.6692 8.15034C14.8685 8.3428 15.4845 9.00599 15.6077 10.2373C15.6649 10.8114 16.0515 11.2123 16.5479 11.2123H16.548C16.5847 11.2123 16.6222 11.2102 16.6595 11.2056C17.2565 11.1346 17.546 10.696 17.5198 9.90205C17.5294 9.07344 17.0957 8.13276 16.3582 7.38347C15.6181 6.63188 14.726 6.2086 13.9145 6.22819Z" fill="#7F40BD"/>
</svg>
