<svg id="Layer_1" data-name="Layer 1" xmlns="http://www.w3.org/2000/svg" viewBox="0 0 26.78 26.78"><defs><style>.cls-1{fill:#dd2925;}.cls-2{fill:#fff;}</style></defs><title>Untitled-1</title><path class="cls-1" d="M3.35,0H23.43a3.35,3.35,0,0,1,3.35,3.35V23.43a3.35,3.35,0,0,1-3.35,3.35H3.35A3.35,3.35,0,0,1,0,23.43V3.35A3.35,3.35,0,0,1,3.35,0Z"/><path class="cls-2" d="M9,16.71a17.87,17.87,0,0,0,5.94,4.62,9.17,9.17,0,0,0,3.32,1h.23a2.77,2.77,0,0,0,2.14-.91,0,0,0,0,1,0,0c.21-.24.44-.48.67-.7s.33-.31.49-.48a1.54,1.54,0,0,0,.41-.57,1.57,1.57,0,0,0,.15-.68,1.6,1.6,0,0,0-.15-.68,1.66,1.66,0,0,0-.41-.56l-2.1-2.09a1.64,1.64,0,0,0-1.22-.56,1.93,1.93,0,0,0-.68.15,1.88,1.88,0,0,0-.56.41L16,16.87a2.79,2.79,0,0,0-.34-.18,2.93,2.93,0,0,1-.39-.21,13.2,13.2,0,0,1-3.15-2.86A7.43,7.43,0,0,1,11,11.93c.33-.29.64-.6.93-.9l.32-.33a1.48,1.48,0,0,0,.43-.56,1.64,1.64,0,0,0,0-1.37,1.48,1.48,0,0,0-.43-.56l-1-1c-.13-.12-.24-.24-.36-.36s-.47-.48-.71-.7a1.76,1.76,0,0,0-.56-.39,1.66,1.66,0,0,0-.66-.14,1.75,1.75,0,0,0-1.24.54L6.39,7.41a2.66,2.66,0,0,0-.8,1.71,6.46,6.46,0,0,0,.48,2.78A16.43,16.43,0,0,0,9,16.71Z"/></svg>