<svg id="Layer_1" data-name="Layer 1" xmlns="http://www.w3.org/2000/svg" viewBox="0 0 26.78 26.78"><defs><style>.cls-1{fill:#395398;}.cls-2{fill:#fff;}</style></defs><title>Untitled-1</title><path class="cls-1" d="M23.43,0H3.35A3.35,3.35,0,0,0,0,3.35V23.43a3.35,3.35,0,0,0,3.35,3.35H23.43a3.35,3.35,0,0,0,3.35-3.35V3.35A3.35,3.35,0,0,0,23.43,0Z"/><path class="cls-2" d="M18.38,26.78V16.5h3.44l.52-4h-4V9.93c0-1.16.32-1.95,2-1.95h2.12V4.4a29.07,29.07,0,0,0-3.09-.16c-3.06,0-5.16,1.87-5.16,5.3v3H10.77v4h3.46V26.78Z"/></svg>