<svg width="32" height="32" viewBox="0 0 32 32" fill="none" xmlns="http://www.w3.org/2000/svg">
<path d="M28.7366 0.646362H3.73657C2.07972 0.646362 0.736572 1.98951 0.736572 3.64636V28.6464C0.736572 30.3032 2.07972 31.6464 3.73657 31.6464H28.7366C30.3934 31.6464 31.7366 30.3032 31.7366 28.6464V3.64636C31.7366 1.98951 30.3934 0.646362 28.7366 0.646362Z" fill="#E52D27"/>
<path d="M16.1775 28.0504C14.6289 28.0502 13.0956 27.7451 11.6649 27.1524C10.2343 26.5596 8.93446 25.6909 7.83957 24.5959C6.74467 23.5008 5.87619 22.2008 5.28371 20.77C4.69122 19.3393 4.38634 17.8059 4.38647 16.2574C4.38647 13.1302 5.62874 10.1311 7.83998 7.91986C10.0512 5.70862 13.0503 4.46635 16.1775 4.46635C19.0714 4.43527 21.8679 5.51051 23.9955 7.47235L20.9205 10.4324C19.6328 9.24243 17.9344 8.59733 16.1815 8.63235C14.1607 8.6642 12.2353 9.4974 10.8288 10.9487C9.42235 12.4 8.64993 14.3506 8.68147 16.3714C8.71341 18.3505 9.51384 20.2397 10.9135 21.6393C12.3132 23.039 14.2023 23.8394 16.1815 23.8714C17.7291 23.9746 19.2633 23.5263 20.5119 22.6061C21.7606 21.6859 22.6429 20.3532 23.0025 18.8444L23.0685 18.5234H16.2875V14.6644H27.3265C27.4375 15.2799 27.494 15.9039 27.4955 16.5294C27.6553 19.4226 26.6593 22.2608 24.7266 24.4197C22.7938 26.5786 20.0827 27.8813 17.1895 28.0414C16.8525 28.0594 16.5155 28.0614 16.1775 28.0504Z" fill="white"/>
</svg>
