<svg id="Layer_1" data-name="Layer 1" xmlns="http://www.w3.org/2000/svg" xmlns:xlink="http://www.w3.org/1999/xlink" viewBox="0 0 26.78 26.78"><defs><style>.cls-1{fill:url(#radial-gradient);}.cls-2{fill:#fff;}</style><radialGradient id="radial-gradient" cx="-700.61" cy="641.92" r="1" gradientTransform="matrix(46.31, -47.99, -38.59, -37.25, 57210.74, -9674.18)" gradientUnits="userSpaceOnUse"><stop offset="0" stop-color="#f9ed32"/><stop offset="0.06" stop-color="#f7d939"/><stop offset="0.19" stop-color="#f4a54c"/><stop offset="0.33" stop-color="#f0536b"/><stop offset="0.45" stop-color="#ee2a7b"/><stop offset="0.6" stop-color="#9e2aa7"/><stop offset="0.74" stop-color="#5a2acc"/><stop offset="0.86" stop-color="#292ae7"/><stop offset="0.95" stop-color="#0b2af8"/><stop offset="1" stop-color="#002aff"/></radialGradient></defs><title>Untitled-1</title><path class="cls-1" d="M23.43,0H3.35A3.35,3.35,0,0,0,0,3.35V23.43a3.35,3.35,0,0,0,3.35,3.35H23.43a3.35,3.35,0,0,0,3.35-3.35V3.35A3.35,3.35,0,0,0,23.43,0Z"/><path class="cls-2" d="M17.66,24H9.13a6.86,6.86,0,0,1-6.87-6.86V9.63A6.86,6.86,0,0,1,9.13,2.77h8.53a6.86,6.86,0,0,1,6.86,6.86v7.52A6.86,6.86,0,0,1,17.66,24ZM9.13,4.29A5.34,5.34,0,0,0,3.79,9.63v7.52a5.34,5.34,0,0,0,1.56,3.77,5.39,5.39,0,0,0,3.78,1.57h8.53A5.34,5.34,0,0,0,23,17.15V9.63a5.34,5.34,0,0,0-5.33-5.34Z"/><path class="cls-2" d="M13.39,19.5a6.09,6.09,0,0,1-3.39-1A6.11,6.11,0,0,1,12.2,7.4,6.11,6.11,0,0,1,18.47,10a6.11,6.11,0,0,1-5.08,9.5Zm0-10.69a4.55,4.55,0,0,0-2.55.77,4.61,4.61,0,0,0-1.69,2.06,4.7,4.7,0,0,0-.26,2.65,4.58,4.58,0,1,0,4.5-5.49Z"/></svg>