<svg width="23" height="26" viewBox="0 0 23 26" fill="none" xmlns="http://www.w3.org/2000/svg">
<path d="M8.0752 21.6312H14.9152C14.9352 22.6512 14.4552 23.6212 13.6352 24.2312C12.5052 25.1112 10.9452 25.2112 9.7152 24.4712C8.7052 23.8912 8.0752 22.8012 8.0752 21.6312Z" stroke="white" stroke-miterlimit="10"/>
<path d="M22.0453 18.4813C21.2553 17.6213 20.4953 16.7413 19.7053 15.9013C19.2953 15.4713 19.0853 14.8913 19.0953 14.3013C19.0853 12.9713 19.0753 11.6413 19.0653 10.3113C19.1253 6.79126 16.6553 3.72126 13.2053 3.02126C13.0953 3.00126 12.9953 2.95126 12.9253 2.87126L12.8553 2.66126C12.8553 2.61126 12.8553 2.57126 12.8553 2.52126C12.9553 1.96126 12.6653 1.39126 12.1453 1.14126C11.9453 1.04126 11.7253 0.991256 11.5053 1.00126C11.2853 0.991256 11.0653 1.04126 10.8653 1.14126C10.3453 1.39126 10.0653 1.95126 10.1553 2.52126C10.1553 2.57126 10.1553 2.61126 10.1553 2.66126L10.0753 2.86126C10.0053 2.94126 9.90525 3.00126 9.79525 3.01126C6.34525 3.71126 3.88525 6.78126 3.93525 10.3013C3.92525 11.6313 3.91525 12.9613 3.90525 14.2913C3.91525 14.8813 3.70525 15.4613 3.29525 15.8913C2.49525 16.7413 1.73525 17.6213 0.955254 18.4713C0.645254 18.7413 0.545254 19.1713 0.705254 19.5513C0.875254 19.9213 1.27525 20.1313 1.67525 20.0813C4.38525 20.0813 7.10525 20.0813 9.81525 20.0813H13.1853C15.8953 20.0813 18.6153 20.0813 21.3253 20.0813C21.7253 20.1413 22.1253 19.9213 22.2953 19.5513C22.4553 19.1813 22.3553 18.7413 22.0453 18.4813Z" stroke="white" stroke-miterlimit="10"/>
</svg>
