<svg width="24" height="24" viewBox="0 0 24 24" fill="none" xmlns="http://www.w3.org/2000/svg">
<path d="M20.5161 0H3.48386C1.77599 0 0.387085 1.3889 0.387085 3.09677V17.0323C0.387085 18.7401 1.77599 20.129 3.48386 20.129V23.2258C3.48386 23.5262 3.65728 23.8003 3.9298 23.9272C4.03354 23.9752 4.14657 24 4.25805 24C4.43457 24 4.61263 23.9381 4.75354 23.8204L9.18347 20.129H20.5161C22.224 20.129 23.6129 18.7401 23.6129 17.0323V3.09677C23.6129 1.3889 22.224 0 20.5161 0ZM22.0645 17.0323C22.0645 17.8854 21.3708 18.5806 20.5161 18.5806H8.90321C8.72205 18.5806 8.54708 18.6441 8.40773 18.7603L5.03225 21.5721V19.3548C5.03225 18.9275 4.68541 18.5806 4.25805 18.5806H3.48386C2.62915 18.5806 1.93547 17.8854 1.93547 17.0323V3.09677C1.93547 2.24361 2.62915 1.54839 3.48386 1.54839H20.5161C21.3708 1.54839 22.0645 2.24361 22.0645 3.09677V17.0323Z" fill="#0E0E0E"/>
<path d="M5.80647 9.29013C5.38066 9.29013 5.03227 8.9433 5.03227 8.51594C5.03227 8.08859 5.38066 7.74175 5.80647 7.74175H7.35485C7.78221 7.74175 8.12905 7.39491 8.12905 6.96755C8.12905 6.5402 7.78221 6.19336 7.35485 6.19336H5.80647C4.52595 6.19336 3.48389 7.23542 3.48389 8.51594C3.48389 9.79646 4.52595 10.8385 5.80647 10.8385C6.23227 10.8385 6.58066 11.1854 6.58066 11.6127C6.58066 12.0401 6.23227 12.3869 5.80647 12.3869H4.25808C3.83073 12.3869 3.48389 12.7337 3.48389 13.1611C3.48389 13.5885 3.83073 13.9353 4.25808 13.9353H5.80647C7.08698 13.9353 8.12905 12.8932 8.12905 11.6127C8.12905 10.3322 7.08698 9.29013 5.80647 9.29013Z" fill="#0E0E0E"/>
<path d="M18.1936 9.29013C17.7677 9.29013 17.4194 8.9433 17.4194 8.51594C17.4194 8.08859 17.7677 7.74175 18.1936 7.74175H19.7419C20.1693 7.74175 20.5161 7.39491 20.5161 6.96755C20.5161 6.5402 20.1693 6.19336 19.7419 6.19336H18.1936C16.913 6.19336 15.871 7.23542 15.871 8.51594C15.871 9.79646 16.913 10.8385 18.1936 10.8385C18.6194 10.8385 18.9677 11.1854 18.9677 11.6127C18.9677 12.0401 18.6194 12.3869 18.1936 12.3869H16.6452C16.2178 12.3869 15.871 12.7337 15.871 13.1611C15.871 13.5885 16.2178 13.9353 16.6452 13.9353H18.1936C19.4741 13.9353 20.5161 12.8932 20.5161 11.6127C20.5161 10.3322 19.4741 9.29013 18.1936 9.29013Z" fill="#0E0E0E"/>
<path d="M13.7265 6.21352C13.3688 6.133 13.0158 6.29868 12.8563 6.62075L12 8.33326L11.1438 6.62075C10.9843 6.29868 10.6297 6.133 10.2736 6.21352C9.92362 6.29558 9.67743 6.60836 9.67743 6.96758V13.1611C9.67743 13.5885 10.0243 13.9353 10.4516 13.9353C10.879 13.9353 11.2258 13.5885 11.2258 13.1611V10.2471L11.3079 10.4096C11.5711 10.9345 12.4305 10.9345 12.6937 10.4096L12.7742 10.2471V13.1611C12.7742 13.5885 13.121 13.9353 13.5484 13.9353C13.9758 13.9353 14.3226 13.5885 14.3226 13.1611V6.96758C14.3226 6.60836 14.0764 6.29558 13.7265 6.21352Z" fill="#0E0E0E"/>
</svg>
