<svg width="160" height="242" viewBox="0 0 160 242" fill="none" xmlns="http://www.w3.org/2000/svg">
<path fill-rule="evenodd" clip-rule="evenodd" d="M85.9191 5.26044C81.9471 3.81683 77.5939 3.81683 73.6219 5.26044L16.1219 26.1588C9.00706 28.7447 4.27051 35.5059 4.27051 43.0761V197.835C4.27051 205.379 8.97431 212.122 16.0537 214.727L73.8881 236.012C77.919 237.495 82.3475 237.489 86.3738 235.993L143.539 214.754C150.592 212.134 155.271 205.404 155.271 197.881V43.0761C155.271 35.5059 150.534 28.7447 143.419 26.1588L85.9191 5.26044ZM72.2556 1.50105C77.1102 -0.263369 82.4308 -0.263369 87.2855 1.50105L144.785 22.3994C153.481 25.56 159.271 33.8237 159.271 43.0761V197.881C159.271 207.076 153.552 215.301 144.932 218.503L87.7669 239.742C82.8459 241.571 77.4332 241.579 72.5066 239.766L14.6722 218.481C6.0196 215.297 0.270508 207.055 0.270508 197.835V43.0761C0.270508 33.8237 6.05963 25.56 14.7556 22.3994L72.2556 1.50105Z" fill="url(#paint0_linear)"/>
<path d="M157.062 197.934V43.0105C157.062 34.6045 151.806 27.0957 143.908 24.2185L86.5431 3.3218C82.1216 1.71112 77.2736 1.71112 72.8521 3.3218L15.4875 24.2185C7.58924 27.0957 2.33301 34.6045 2.33301 43.0105V197.888C2.33301 206.264 7.5528 213.753 15.4115 216.652L73.1099 237.935C77.597 239.59 82.5287 239.582 87.0107 237.913L144.042 216.676C151.87 213.761 157.062 206.287 157.062 197.934Z" fill="#E8EBD6"/>
<path d="M18.054 100.416L47.627 82.8301L40.7825 100.567L30.6808 99.9524C30.6808 99.9524 30.0046 99.9636 29.3913 99.9194L18.054 100.416Z" fill="url(#paint1_linear)"/>
<path d="M63.4316 41.4316L15.0643 43.0178L50.1566 76.0794L63.4316 41.4316Z" fill="url(#paint2_linear)"/>
<path d="M73.7584 57.8071L98.6179 36.0971L88.8071 81.1461L73.7584 57.8071Z" fill="url(#paint3_linear)"/>
<path d="M98.6124 36.1199L95.911 48.3554L113.167 47.3049L98.6124 36.1199Z" fill="url(#paint4_linear)"/>
<path d="M47.6328 82.8086L4.67898 118.568L40.7824 100.568L47.6328 82.8086Z" fill="url(#paint5_linear)"/>
<path d="M63.5369 41.5804L16.3222 22.5337L50.2126 76.1428L63.5369 41.5804Z" fill="url(#paint6_linear)"/>
<path d="M88.8296 81.1509L40.782 100.567L63.5363 41.5786L88.8296 81.1509Z" fill="url(#paint7_linear)"/>
<path fill-rule="evenodd" clip-rule="evenodd" d="M51.1836 111.812L55.4519 99.899L46.6239 106.533L51.1836 111.812ZM50.9288 110.447L47.6434 106.643L54.0043 101.862L50.9288 110.447Z" fill="url(#paint8_linear)"/>
<path fill-rule="evenodd" clip-rule="evenodd" d="M41.0118 62.7232C40.997 62.5857 40.9026 62.4699 40.7709 62.4276L22.0511 56.4171C21.9109 56.3721 21.7575 56.4197 21.6674 56.5361C21.5772 56.6525 21.5696 56.8129 21.6483 56.9374L29.4537 69.2837C29.5543 69.4427 29.7625 69.4938 29.9253 69.3994L40.8396 63.0635C40.9592 62.9941 41.0267 62.8607 41.0118 62.7232ZM39.8073 62.8534L29.8653 68.6248L22.7553 57.3784L39.8073 62.8534Z" fill="url(#paint9_linear)"/>
<path fill-rule="evenodd" clip-rule="evenodd" d="M34.6633 62.0323C34.5611 62.1255 34.5233 62.2701 34.5669 62.4014L38.7339 74.9414C38.7804 75.0811 38.9093 75.1769 39.0565 75.1809C39.2037 75.1849 39.3377 75.0964 39.3917 74.9594L42.9923 65.8263C43.0613 65.6513 42.9796 65.453 42.8073 65.3774L35.0396 61.9705C34.913 61.9149 34.7655 61.9392 34.6633 62.0323ZM35.4795 62.9278L42.2175 65.8831L39.0941 73.8056L35.4795 62.9278Z" fill="url(#paint10_linear)"/>
<path fill-rule="evenodd" clip-rule="evenodd" d="M111.024 74.1395L119.751 66.3451L113.413 56.8201L111.024 74.1395ZM113.853 58.7463L118.832 66.2274L111.977 72.3493L113.853 58.7463Z" fill="url(#paint11_linear)"/>
<defs>
<linearGradient id="paint0_linear" x1="152" y1="163.415" x2="27.3414" y2="-62.2924" gradientUnits="userSpaceOnUse">
<stop stop-color="#EFD16E"/>
<stop offset="0.902057" stop-color="#613B02"/>
</linearGradient>
<linearGradient id="paint1_linear" x1="18.0542" y1="100.749" x2="30.7131" y2="88.4867" gradientUnits="userSpaceOnUse">
<stop stop-color="#D6B094"/>
<stop offset="0.3075" stop-color="#D6C3A4"/>
<stop offset="0.7217" stop-color="#D7D8B5"/>
<stop offset="1" stop-color="#D7DFBB"/>
</linearGradient>
<linearGradient id="paint2_linear" x1="15.1602" y1="40.0363" x2="43.5729" y2="67.8508" gradientUnits="userSpaceOnUse">
<stop stop-color="#D6B094"/>
<stop offset="0.3075" stop-color="#D6C3A4"/>
<stop offset="0.7217" stop-color="#D7D8B5"/>
<stop offset="1" stop-color="#D7DFBB"/>
</linearGradient>
<linearGradient id="paint3_linear" x1="64.8078" y1="65.4581" x2="98.0058" y2="40.0362" gradientUnits="userSpaceOnUse">
<stop stop-color="#D6B094"/>
<stop offset="0.3075" stop-color="#D6C3A4"/>
<stop offset="0.7217" stop-color="#D7D8B5"/>
<stop offset="1" stop-color="#D7DFBB"/>
</linearGradient>
<linearGradient id="paint4_linear" x1="91.4266" y1="40.3354" x2="108.175" y2="44.3595" gradientUnits="userSpaceOnUse">
<stop stop-color="#D6B094"/>
<stop offset="0.3075" stop-color="#D6C3A4"/>
<stop offset="0.7217" stop-color="#D7D8B5"/>
<stop offset="1" stop-color="#D7DFBB"/>
</linearGradient>
<linearGradient id="paint5_linear" x1="62.1166" y1="81.3098" x2="24.1334" y2="105.535" gradientUnits="userSpaceOnUse">
<stop stop-color="#D6B094"/>
<stop offset="0.3075" stop-color="#D6C3A4"/>
<stop offset="0.7217" stop-color="#D7D8B5"/>
<stop offset="1" stop-color="#D7DFBB"/>
</linearGradient>
<linearGradient id="paint6_linear" x1="5.19023" y1="35.5506" x2="65.1358" y2="42.7286" gradientUnits="userSpaceOnUse">
<stop stop-color="#D6B094"/>
<stop offset="0.3075" stop-color="#D6C3A4"/>
<stop offset="0.7217" stop-color="#D7D8B5"/>
<stop offset="1" stop-color="#D7DFBB"/>
</linearGradient>
<linearGradient id="paint7_linear" x1="72.5839" y1="35.5488" x2="42.9749" y2="94.1686" gradientUnits="userSpaceOnUse">
<stop stop-color="#D6B094"/>
<stop offset="0.3075" stop-color="#D6C3A4"/>
<stop offset="0.7217" stop-color="#D7D8B5"/>
<stop offset="1" stop-color="#D7DFBB"/>
</linearGradient>
<linearGradient id="paint8_linear" x1="48.7489" y1="109.322" x2="56.886" y2="101.366" gradientUnits="userSpaceOnUse">
<stop stop-color="#D6B094"/>
<stop offset="0.3075" stop-color="#D6C3A4"/>
<stop offset="0.7217" stop-color="#D7D8B5"/>
<stop offset="1" stop-color="#D7DFBB"/>
</linearGradient>
<linearGradient id="paint9_linear" x1="34.361" y1="67.6949" x2="28.958" y2="53.6732" gradientUnits="userSpaceOnUse">
<stop stop-color="#D6B094"/>
<stop offset="0.3075" stop-color="#D6C3A4"/>
<stop offset="0.7217" stop-color="#D7D8B5"/>
<stop offset="1" stop-color="#D7DFBB"/>
</linearGradient>
<linearGradient id="paint10_linear" x1="31.6811" y1="73.6359" x2="40.6389" y2="65.5525" gradientUnits="userSpaceOnUse">
<stop stop-color="#7FDFEF"/>
<stop offset="0.1836" stop-color="#81D8EF"/>
<stop offset="0.4577" stop-color="#86C3EF"/>
<stop offset="0.7866" stop-color="#8FA2EF"/>
<stop offset="1" stop-color="#9589EF"/>
</linearGradient>
<linearGradient id="paint11_linear" x1="117.487" y1="73.1705" x2="109.777" y2="62.612" gradientUnits="userSpaceOnUse">
<stop stop-color="#7FDFEF"/>
<stop offset="0.1836" stop-color="#81D8EF"/>
<stop offset="0.4577" stop-color="#86C3EF"/>
<stop offset="0.7866" stop-color="#8FA2EF"/>
<stop offset="1" stop-color="#9589EF"/>
</linearGradient>
</defs>
</svg>
