<svg width="160" height="242" viewBox="0 0 160 242" fill="none" xmlns="http://www.w3.org/2000/svg">
<path fill-rule="evenodd" clip-rule="evenodd" d="M85.9191 5.26044C81.9471 3.81683 77.5939 3.81683 73.6219 5.26044L16.1219 26.1588C9.00706 28.7447 4.27051 35.5059 4.27051 43.0761V197.835C4.27051 205.379 8.97431 212.122 16.0537 214.727L73.8881 236.012C77.919 237.495 82.3475 237.489 86.3738 235.993L143.539 214.754C150.592 212.134 155.271 205.404 155.271 197.881V43.0761C155.271 35.5059 150.534 28.7447 143.419 26.1588L85.9191 5.26044ZM72.2556 1.50105C77.1102 -0.263369 82.4308 -0.263369 87.2855 1.50105L144.785 22.3994C153.481 25.56 159.271 33.8237 159.271 43.0761V197.881C159.271 207.076 153.552 215.301 144.932 218.503L87.7669 239.742C82.8459 241.571 77.4332 241.579 72.5066 239.766L14.6722 218.481C6.0196 215.297 0.270508 207.055 0.270508 197.835V43.0761C0.270508 33.8237 6.05963 25.56 14.7556 22.3994L72.2556 1.50105Z" fill="url(#paint0_linear)"/>
<path d="M157.062 197.934V43.0105C157.062 34.6045 151.806 27.0957 143.908 24.2185L86.5431 3.3218C82.1216 1.71112 77.2736 1.71112 72.8521 3.3218L15.4875 24.2185C7.58924 27.0957 2.33301 34.6045 2.33301 43.0105V197.888C2.33301 206.264 7.5528 213.753 15.4115 216.652L73.1099 237.935C77.597 239.59 82.5287 239.582 87.0107 237.913L144.042 216.676C151.87 213.761 157.062 206.287 157.062 197.934Z" fill="#F8F8FB"/>
<path d="M18.1672 100.706L47.7061 83.0332L40.9059 100.796L30.7982 100.208C30.7982 100.208 30.1217 100.221 29.508 100.179L18.1672 100.706Z" fill="url(#paint1_linear)"/>
<path d="M63.4082 41.5742L15.0241 43.2901L50.2198 76.2724L63.4082 41.5742Z" fill="url(#paint2_linear)"/>
<path d="M73.7826 57.9292L98.595 36.1435L88.9 81.2383L73.7826 57.9292Z" fill="url(#paint3_linear)"/>
<path d="M98.5897 36.1675L95.9197 48.4155L113.18 47.3186L98.5897 36.1675Z" fill="url(#paint4_linear)"/>
<path d="M47.7129 83.0117L4.83574 118.901L40.9068 100.797L47.7129 83.0117Z" fill="url(#paint5_linear)"/>
<path d="M63.513 41.722L16.2271 22.793L50.2751 76.335L63.513 41.722Z" fill="url(#paint6_linear)"/>
<path d="M88.9232 81.2447L40.9065 100.797L63.5135 41.7226L88.9232 81.2447Z" fill="url(#paint7_linear)"/>
<path fill-rule="evenodd" clip-rule="evenodd" d="M41.0265 62.9205C41.0116 62.783 40.9172 62.6671 40.7855 62.6249L22.0658 56.6144C21.9256 56.5694 21.7722 56.6169 21.682 56.7334C21.5919 56.8498 21.5842 57.0102 21.6629 57.1347L29.4684 69.481C29.5689 69.64 29.7772 69.6911 29.9399 69.5966L40.8542 63.2608C40.9738 63.1914 41.0414 63.058 41.0265 62.9205ZM39.8219 63.0507L29.8799 68.822L22.7699 57.5757L39.8219 63.0507Z" fill="url(#paint8_linear)"/>
<path fill-rule="evenodd" clip-rule="evenodd" d="M34.6789 62.2296C34.5767 62.3228 34.5389 62.4674 34.5825 62.5986L38.7496 75.1387C38.796 75.2784 38.9249 75.3741 39.0721 75.3781C39.2193 75.3822 39.3533 75.2936 39.4073 75.1566L43.008 66.0236C43.077 65.8485 42.9952 65.6502 42.8229 65.5747L35.0553 62.1677C34.9286 62.1122 34.7811 62.1364 34.6789 62.2296ZM35.4951 63.125L42.2331 66.0803L39.1098 74.0028L35.4951 63.125Z" fill="url(#paint9_linear)"/>
<path fill-rule="evenodd" clip-rule="evenodd" d="M111.039 74.3367L119.767 66.5423L113.428 57.0174L111.039 74.3367ZM113.869 58.9435L118.848 66.4247L111.993 72.5466L113.869 58.9435Z" fill="url(#paint10_linear)"/>
<path fill-rule="evenodd" clip-rule="evenodd" d="M51.1992 112.01L55.4675 100.096L46.6395 106.731L51.1992 112.01ZM50.9445 110.644L47.659 106.84L54.02 102.06L50.9445 110.644Z" fill="url(#paint11_linear)"/>
<defs>
<linearGradient id="paint0_linear" x1="258.167" y1="233.833" x2="2.99842" y2="-1.54486" gradientUnits="userSpaceOnUse">
<stop stop-color="white"/>
<stop offset="0.8703" stop-color="#9FC0BD"/>
</linearGradient>
<linearGradient id="paint1_linear" x1="38.7761" y1="92.2533" x2="7.31494" y2="94.2259" gradientUnits="userSpaceOnUse">
<stop stop-color="white"/>
<stop offset="1" stop-color="#9FC0BD"/>
</linearGradient>
<linearGradient id="paint2_linear" x1="52.7617" y1="55.9109" x2="18.5904" y2="21.9051" gradientUnits="userSpaceOnUse">
<stop stop-color="white"/>
<stop offset="1" stop-color="#9FC0BD"/>
</linearGradient>
<linearGradient id="paint3_linear" x1="107.745" y1="34.0394" x2="47.0109" y2="115.756" gradientUnits="userSpaceOnUse">
<stop stop-color="white"/>
<stop offset="1" stop-color="#9FC0BD"/>
</linearGradient>
<linearGradient id="paint4_linear" x1="113.381" y1="46.5633" x2="96.9778" y2="42.215" gradientUnits="userSpaceOnUse">
<stop stop-color="white"/>
<stop offset="1" stop-color="#9FC0BD"/>
</linearGradient>
<linearGradient id="paint5_linear" x1="4.65826" y1="118.647" x2="46.693" y2="90.2946" gradientUnits="userSpaceOnUse">
<stop stop-color="white"/>
<stop offset="1" stop-color="#9FC0BD"/>
</linearGradient>
<linearGradient id="paint6_linear" x1="62.6667" y1="40.2007" x2="15.841" y2="55.0923" gradientUnits="userSpaceOnUse">
<stop stop-color="white"/>
<stop offset="1" stop-color="#9FC0BD"/>
</linearGradient>
<linearGradient id="paint7_linear" x1="58.7116" y1="113.481" x2="73.8587" y2="52.2692" gradientUnits="userSpaceOnUse">
<stop stop-color="white"/>
<stop offset="1" stop-color="#9FC0BD"/>
</linearGradient>
<linearGradient id="paint8_linear" x1="16.9987" y1="67.5312" x2="37.1661" y2="58.2926" gradientUnits="userSpaceOnUse">
<stop stop-color="white"/>
<stop offset="1" stop-color="#9FC0BD"/>
</linearGradient>
<linearGradient id="paint9_linear" x1="40.1543" y1="63.8532" x2="34.5674" y2="72.5409" gradientUnits="userSpaceOnUse">
<stop stop-color="#D6B094"/>
<stop offset="0.3075" stop-color="#D6C3A4"/>
<stop offset="0.7217" stop-color="#D7D8B5"/>
<stop offset="1" stop-color="#D7DFBB"/>
</linearGradient>
<linearGradient id="paint10_linear" x1="108.608" y1="62.4682" x2="116.891" y2="69.7932" gradientUnits="userSpaceOnUse">
<stop stop-color="#D6B094"/>
<stop offset="0.3075" stop-color="#D6C3A4"/>
<stop offset="0.7217" stop-color="#D7D8B5"/>
<stop offset="1" stop-color="#D7DFBB"/>
</linearGradient>
<linearGradient id="paint11_linear" x1="48.332" y1="100.365" x2="54.828" y2="107.323" gradientUnits="userSpaceOnUse">
<stop stop-color="white"/>
<stop offset="1" stop-color="#9FC0BD"/>
</linearGradient>
</defs>
</svg>
