<svg width="188" height="42" viewBox="0 0 188 42" fill="none" xmlns="http://www.w3.org/2000/svg">
<g clip-path="url(#clip0)">
<path d="M67.5435 23.8263H76.6556C76.6556 23.8263 77.5668 22.2636 77.6807 19.4425V19.1787C77.5668 16.3577 76.6556 14.7949 76.6556 14.7949H71.6212L66.154 17.3115C66.1312 17.413 66.1084 17.5145 66.1084 17.616L67.5435 23.8263ZM68.5003 19.2599C68.5459 17.7174 69.0698 16.865 69.0698 16.865H74.5371C74.5371 16.865 75.061 17.7174 75.1066 19.2599V19.4019C75.0382 20.9444 74.5371 21.7968 74.5371 21.7968H69.0698C69.0698 21.7968 68.5459 20.9444 68.5003 19.4019V19.2599Z" fill="white"/>
<path d="M24.2607 19.1992V19.463C24.3746 22.2841 25.2859 23.8468 25.2859 23.8468H34.9674C34.9674 23.8468 35.8787 22.2841 35.9926 19.463V19.1992C35.8787 16.3782 34.9674 14.8154 34.9674 14.8154H25.2859C25.2859 14.8154 24.3746 16.3782 24.2607 19.1992ZM26.8121 19.2601C26.8805 17.7176 27.3816 16.8652 27.3816 16.8652H32.8489C32.8489 16.8652 33.3728 17.7176 33.4184 19.2601V19.4022C33.35 20.9446 32.8489 21.797 32.8489 21.797H27.3816C27.3816 21.797 26.8577 20.9446 26.8121 19.4022V19.2601Z" fill="white"/>
<path d="M36.5396 14.8155L39.0909 13.6992V23.8265H36.5396V14.8155Z" fill="white"/>
<path d="M8.86151 14.8154V20.7619L2.80197 14.8154H0V23.8265H2.55139V17.7785L8.65649 23.8265H11.4129V14.8154H8.86151Z" fill="white"/>
<path d="M11.9824 19.1992V19.463C12.0963 22.2841 13.0075 23.8468 13.0075 23.8468H22.6891C22.6891 23.8468 23.6003 22.2841 23.7142 19.463V19.1992C23.6915 18.8542 23.6687 18.5092 23.6459 18.2047H18.8621L17.0852 20.4575H21.049C20.8667 21.3302 20.5933 21.8173 20.5933 21.8173H15.1261C15.1261 21.8173 14.6021 20.9649 14.5566 19.4224V19.2804C14.5794 17.6974 15.1033 16.845 15.1033 16.845H23.3953C23.0992 15.5258 22.6663 14.8154 22.6663 14.8154H12.9848C12.9848 14.8154 12.0735 16.3782 11.9824 19.1992Z" fill="white"/>
<path d="M40.3667 19.1992V19.463C40.3895 19.8081 40.4123 20.1531 40.435 20.4575H49.7294L51.324 18.2047H43.032C43.2142 17.332 43.4876 16.845 43.4876 16.845H51.2101L49.0915 14.8154H41.3918C41.3918 14.8154 40.4806 16.3782 40.3667 19.1992ZM48.727 21.797H40.9362C41.2323 23.1162 41.6652 23.8265 41.6652 23.8265H47.2235L48.727 21.797Z" fill="white"/>
<path d="M88.0004 6.14945L62.646 8.58488L60.9831 0L55.4247 9.29521L45.4697 10.2491L68.455 32.5738L65.0152 16.9262L88.0004 6.14945ZM46.7454 11.4871L47.1555 11.548L53.7617 14.6329L58.9328 8.4834C58.9328 8.4834 60.2541 6.88008 60.6641 8.99078L64.7418 29.0222L46.7454 11.4871Z" fill="url(#paint0_linear)"/>
<path d="M48.3856 13.0092L53.0783 17.535L48.3173 23.8468H51.1876L54.6502 19.0369L63.3294 27.3985L59.5251 9.35604L54.3085 15.8911L48.3856 13.0092ZM58.09 14.2878V17.9612L56.1537 16.9668L58.09 14.2878Z" fill="url(#paint1_linear)"/>
<path d="M30.0925 12.4209C30.0925 12.4209 29.3863 13.4357 28.589 13.7604C27.7917 14.0851 26.6982 14.4301 26.6982 14.4301H33.464C33.464 14.4301 32.3933 14.0851 31.596 13.7604C30.7987 13.4357 30.0925 12.4209 30.0925 12.4209Z" fill="white"/>
</g>
<path d="M83 20.1038C83 17.983 84.8204 16.4609 87.285 16.4609C88.6573 16.4609 89.7776 16.9101 90.5337 17.7085L89.3575 18.6816C88.8253 18.1327 88.1532 17.8582 87.369 17.8582C85.8847 17.8582 84.8484 18.7814 84.8484 20.1038C84.8484 21.4262 85.8847 22.3494 87.369 22.3494C88.1532 22.3494 88.8253 22.075 89.3575 21.5261L90.5337 22.4992C89.7776 23.3225 88.6573 23.7467 87.285 23.7467C84.8484 23.7467 83 22.2247 83 20.1038Z" fill="white"/>
<path d="M91.9624 20.5274V16.5851H93.7828V20.4526C93.7828 21.8 94.427 22.3489 95.5472 22.3489C96.6675 22.3489 97.3116 21.8 97.3116 20.4526V16.5851H99.1041V20.5274C99.1041 22.5984 97.7597 23.7462 95.5192 23.7462C93.3067 23.7462 91.9624 22.5984 91.9624 20.5274ZM95.3512 15.5871C95.7993 15.4124 95.9393 15.2128 95.9393 14.9633C95.9393 14.7138 95.7153 14.5391 95.4072 14.5391C95.1831 14.5391 94.9591 14.589 94.735 14.7387L94.371 14.1149C94.707 13.8904 95.1271 13.7656 95.6032 13.7656C96.4154 13.7656 96.9476 14.1898 96.9476 14.8385C96.9476 15.4124 96.6115 15.8116 95.9113 16.1111L95.3512 15.5871Z" fill="white"/>
<path d="M106.274 22.1242H102.605L101.905 23.6212H100.028L103.557 16.585H105.35L108.906 23.6212H107.002L106.274 22.1242ZM105.714 20.8766L104.453 18.1818L103.193 20.8766H105.714Z" fill="white"/>
<path d="M119.534 16.8174V23.6422H118.092L114.247 19.4938V23.6422H112.505V16.8174H113.977L117.792 20.9658V16.8174H119.534Z" fill="white"/>
<path d="M126.714 22.1698H123.17L122.479 23.6418H120.676L124.101 16.817H125.843L129.268 23.6418H127.405L126.714 22.1698ZM122.929 14.8633H124.011C124.041 15.2915 124.431 15.5591 124.942 15.5591C125.453 15.5591 125.873 15.2915 125.873 14.8633H126.955C126.925 15.7733 126.084 16.3353 124.942 16.3353C123.831 16.3353 122.989 15.7733 122.929 14.8633ZM126.174 20.9922L124.972 18.3693L123.77 20.9922H126.174Z" fill="white"/>
<path d="M137.347 23.6422V19.5473L135.094 22.9195H134.283L132.03 19.6276V23.6422H130.377V16.8174H131.849L134.703 21.0461L137.527 16.8174H138.969L138.999 23.6422H137.347Z" fill="white"/>
<path d="M148.05 24.3528H153.233L153.215 22.5254L148.05 22.5417V24.3528Z" fill="url(#paint2_linear)"/>
<path d="M146 19.834L146.018 22.5262L148.07 24.3374V19.834H146Z" fill="url(#paint3_linear)"/>
<path d="M148.07 17.9414L146 19.8341H151.11V17.9414H148.07Z" fill="url(#paint4_linear)"/>
<path d="M153.233 15.2324H151.108V19.85L153.251 17.941L153.233 15.2324Z" fill="url(#paint5_linear)"/>
<path d="M151.091 13.3887H146L146.018 15.2161H153.234L151.091 13.3887Z" fill="white"/>
<path d="M162.721 13.4382L159.662 13.4219L159.68 15.2493H164.863L162.721 13.4382Z" fill="white"/>
<path d="M159.663 24.3694L162.703 24.3531L162.685 22.542H157.521L159.663 24.3694Z" fill="url(#paint6_linear)"/>
<path d="M162.684 15.2646L162.702 24.3693L164.864 22.5092V15.2646H162.684Z" fill="url(#paint7_linear)"/>
<path d="M159.661 13.4219L157.5 15.2493L157.518 22.5591H159.679L159.661 13.4219Z" fill="url(#paint8_linear)"/>
<path d="M171.149 24.3528H176.332L176.314 22.5254L171.149 22.5417V24.3528Z" fill="url(#paint9_linear)"/>
<path d="M169.099 19.834L169.117 22.5262L171.169 24.3374V19.834H169.099Z" fill="url(#paint10_linear)"/>
<path d="M171.169 17.9414L169.099 19.8341H174.209V17.9414H171.169Z" fill="url(#paint11_linear)"/>
<path d="M176.315 15.2324H174.191V19.85L176.334 17.941L176.315 15.2324Z" fill="url(#paint12_linear)"/>
<path d="M174.191 13.3887H169.1L169.118 15.2161H176.334L174.191 13.3887Z" fill="white"/>
<path d="M185.82 13.4382L182.761 13.4219L182.78 15.2493H187.963L185.82 13.4382Z" fill="white"/>
<path d="M182.744 24.3694L185.785 24.3531L185.766 22.542H180.602L182.744 24.3694Z" fill="url(#paint13_linear)"/>
<path d="M185.783 15.2646L185.802 24.3693L187.963 22.5092V15.2646H185.783Z" fill="url(#paint14_linear)"/>
<path d="M182.763 13.4219L180.602 15.2493L180.62 22.5591H182.781L182.763 13.4219Z" fill="url(#paint15_linear)"/>
<defs>
<linearGradient id="paint0_linear" x1="45.0094" y1="35.8312" x2="77.352" y2="55.7535" gradientUnits="userSpaceOnUse">
<stop stop-color="#EFD16E"/>
<stop offset="1" stop-color="#613B02"/>
</linearGradient>
<linearGradient id="paint1_linear" x1="45.0094" y1="35.8312" x2="77.352" y2="55.7535" gradientUnits="userSpaceOnUse">
<stop stop-color="#EFD16E"/>
<stop offset="1" stop-color="#613B02"/>
</linearGradient>
<linearGradient id="paint2_linear" x1="148.61" y1="24.493" x2="149.318" y2="21.5786" gradientUnits="userSpaceOnUse">
<stop offset="0.1619" stop-color="#A6C8CC"/>
<stop offset="0.3286" stop-color="#BFD7DA"/>
<stop offset="0.6754" stop-color="#EDF4F5"/>
<stop offset="0.8491" stop-color="white"/>
</linearGradient>
<linearGradient id="paint3_linear" x1="147.031" y1="24.3497" x2="147.031" y2="19.8377" gradientUnits="userSpaceOnUse">
<stop offset="0.1509" stop-color="white"/>
<stop offset="0.5418" stop-color="#FDFEFE"/>
<stop offset="0.6826" stop-color="#F6FAFA"/>
<stop offset="0.783" stop-color="#EBF2F3"/>
<stop offset="0.8641" stop-color="#DAE8EA"/>
<stop offset="0.9328" stop-color="#C4DBDD"/>
<stop offset="0.9934" stop-color="#A9CACE"/>
<stop offset="1" stop-color="#A6C8CC"/>
</linearGradient>
<linearGradient id="paint4_linear" x1="151.101" y1="18.8899" x2="145.998" y2="18.8899" gradientUnits="userSpaceOnUse">
<stop stop-color="#A6C8CC"/>
<stop offset="0.00198829" stop-color="#A7C9CD"/>
<stop offset="0.0683341" stop-color="#C2D9DC"/>
<stop offset="0.143" stop-color="#D9E7E9"/>
<stop offset="0.2302" stop-color="#EAF2F3"/>
<stop offset="0.3365" stop-color="#F6F9FA"/>
<stop offset="0.4821" stop-color="#FDFEFE"/>
<stop offset="0.8491" stop-color="white"/>
</linearGradient>
<linearGradient id="paint5_linear" x1="152.172" y1="19.8421" x2="152.172" y2="15.2283" gradientUnits="userSpaceOnUse">
<stop offset="0.1509" stop-color="white"/>
<stop offset="0.5418" stop-color="#FDFEFE"/>
<stop offset="0.6826" stop-color="#F6FAFA"/>
<stop offset="0.783" stop-color="#EBF2F3"/>
<stop offset="0.8641" stop-color="#DAE8EA"/>
<stop offset="0.9328" stop-color="#C4DBDD"/>
<stop offset="0.9934" stop-color="#A9CACE"/>
<stop offset="1" stop-color="#A6C8CC"/>
</linearGradient>
<linearGradient id="paint6_linear" x1="162.705" y1="23.463" x2="157.529" y2="23.463" gradientUnits="userSpaceOnUse">
<stop stop-color="#A6C8CC"/>
<stop offset="0.00198829" stop-color="#A7C9CD"/>
<stop offset="0.0683341" stop-color="#C2D9DC"/>
<stop offset="0.143" stop-color="#D9E7E9"/>
<stop offset="0.2302" stop-color="#EAF2F3"/>
<stop offset="0.3365" stop-color="#F6F9FA"/>
<stop offset="0.4821" stop-color="#FDFEFE"/>
<stop offset="0.8491" stop-color="white"/>
</linearGradient>
<linearGradient id="paint7_linear" x1="163.779" y1="24.3694" x2="163.779" y2="15.2623" gradientUnits="userSpaceOnUse">
<stop offset="0.1509" stop-color="white"/>
<stop offset="0.5418" stop-color="#FDFEFE"/>
<stop offset="0.6826" stop-color="#F6FAFA"/>
<stop offset="0.783" stop-color="#EBF2F3"/>
<stop offset="0.8641" stop-color="#DAE8EA"/>
<stop offset="0.9328" stop-color="#C4DBDD"/>
<stop offset="0.9934" stop-color="#A9CACE"/>
<stop offset="1" stop-color="#A6C8CC"/>
</linearGradient>
<linearGradient id="paint8_linear" x1="158.591" y1="22.5508" x2="158.591" y2="13.4194" gradientUnits="userSpaceOnUse">
<stop stop-color="#A6C8CC"/>
<stop offset="0.0676848" stop-color="#BED7DA"/>
<stop offset="0.1551" stop-color="#D6E6E7"/>
<stop offset="0.255" stop-color="#E8F1F2"/>
<stop offset="0.373" stop-color="#F5F9F9"/>
<stop offset="0.5268" stop-color="#FDFEFE"/>
<stop offset="0.8491" stop-color="white"/>
</linearGradient>
<linearGradient id="paint9_linear" x1="171.707" y1="24.493" x2="172.414" y2="21.5794" gradientUnits="userSpaceOnUse">
<stop offset="0.1619" stop-color="#A6C8CC"/>
<stop offset="0.3286" stop-color="#BFD7DA"/>
<stop offset="0.6754" stop-color="#EDF4F5"/>
<stop offset="0.8491" stop-color="white"/>
</linearGradient>
<linearGradient id="paint10_linear" x1="170.128" y1="24.3497" x2="170.128" y2="19.8377" gradientUnits="userSpaceOnUse">
<stop offset="0.1509" stop-color="white"/>
<stop offset="0.5418" stop-color="#FDFEFE"/>
<stop offset="0.6826" stop-color="#F6FAFA"/>
<stop offset="0.783" stop-color="#EBF2F3"/>
<stop offset="0.8641" stop-color="#DAE8EA"/>
<stop offset="0.9328" stop-color="#C4DBDD"/>
<stop offset="0.9934" stop-color="#A9CACE"/>
<stop offset="1" stop-color="#A6C8CC"/>
</linearGradient>
<linearGradient id="paint11_linear" x1="174.198" y1="18.8899" x2="169.095" y2="18.8899" gradientUnits="userSpaceOnUse">
<stop stop-color="#A6C8CC"/>
<stop offset="0.00198829" stop-color="#A7C9CD"/>
<stop offset="0.0683341" stop-color="#C2D9DC"/>
<stop offset="0.143" stop-color="#D9E7E9"/>
<stop offset="0.2302" stop-color="#EAF2F3"/>
<stop offset="0.3365" stop-color="#F6F9FA"/>
<stop offset="0.4821" stop-color="#FDFEFE"/>
<stop offset="0.8491" stop-color="white"/>
</linearGradient>
<linearGradient id="paint12_linear" x1="175.272" y1="19.8421" x2="175.272" y2="15.2283" gradientUnits="userSpaceOnUse">
<stop offset="0.1509" stop-color="white"/>
<stop offset="0.5418" stop-color="#FDFEFE"/>
<stop offset="0.6826" stop-color="#F6FAFA"/>
<stop offset="0.783" stop-color="#EBF2F3"/>
<stop offset="0.8641" stop-color="#DAE8EA"/>
<stop offset="0.9328" stop-color="#C4DBDD"/>
<stop offset="0.9934" stop-color="#A9CACE"/>
<stop offset="1" stop-color="#A6C8CC"/>
</linearGradient>
<linearGradient id="paint13_linear" x1="185.804" y1="23.463" x2="180.628" y2="23.463" gradientUnits="userSpaceOnUse">
<stop stop-color="#A6C8CC"/>
<stop offset="0.00198829" stop-color="#A7C9CD"/>
<stop offset="0.0683341" stop-color="#C2D9DC"/>
<stop offset="0.143" stop-color="#D9E7E9"/>
<stop offset="0.2302" stop-color="#EAF2F3"/>
<stop offset="0.3365" stop-color="#F6F9FA"/>
<stop offset="0.4821" stop-color="#FDFEFE"/>
<stop offset="0.8491" stop-color="white"/>
</linearGradient>
<linearGradient id="paint14_linear" x1="186.877" y1="24.3694" x2="186.877" y2="15.2623" gradientUnits="userSpaceOnUse">
<stop offset="0.1509" stop-color="white"/>
<stop offset="0.5418" stop-color="#FDFEFE"/>
<stop offset="0.6826" stop-color="#F6FAFA"/>
<stop offset="0.783" stop-color="#EBF2F3"/>
<stop offset="0.8641" stop-color="#DAE8EA"/>
<stop offset="0.9328" stop-color="#C4DBDD"/>
<stop offset="0.9934" stop-color="#A9CACE"/>
<stop offset="1" stop-color="#A6C8CC"/>
</linearGradient>
<linearGradient id="paint15_linear" x1="181.69" y1="22.5508" x2="181.69" y2="13.4194" gradientUnits="userSpaceOnUse">
<stop stop-color="#A6C8CC"/>
<stop offset="0.0676848" stop-color="#BED7DA"/>
<stop offset="0.1551" stop-color="#D6E6E7"/>
<stop offset="0.255" stop-color="#E8F1F2"/>
<stop offset="0.373" stop-color="#F5F9F9"/>
<stop offset="0.5268" stop-color="#FDFEFE"/>
<stop offset="0.8491" stop-color="white"/>
</linearGradient>
<clipPath id="clip0">
<rect width="88" height="41.0572" fill="white"/>
</clipPath>
</defs>
</svg>
