<svg width="160" height="242" viewBox="0 0 160 242" fill="none" xmlns="http://www.w3.org/2000/svg">
<path fill-rule="evenodd" clip-rule="evenodd" d="M86.4191 5.26044C82.4471 3.81683 78.0939 3.81683 74.1219 5.26044L16.6219 26.1588C9.50706 28.7447 4.77051 35.5059 4.77051 43.0761V197.835C4.77051 205.379 9.47431 212.122 16.5537 214.727L74.3881 236.012C78.419 237.495 82.8475 237.489 86.8738 235.993L144.039 214.754C151.092 212.134 155.771 205.404 155.771 197.881V43.0761C155.771 35.5059 151.034 28.7447 143.919 26.1588L86.4191 5.26044ZM72.7556 1.50105C77.6102 -0.263369 82.9308 -0.263369 87.7855 1.50105L145.285 22.3994C153.981 25.56 159.771 33.8237 159.771 43.0761V197.881C159.771 207.076 154.052 215.301 145.432 218.503L88.2669 239.742C83.3459 241.571 77.9332 241.579 73.0066 239.766L15.1722 218.481C6.5196 215.297 0.770508 207.055 0.770508 197.835V43.0761C0.770508 33.8237 6.55963 25.56 15.2556 22.3994L72.7556 1.50105Z" fill="url(#paint0_linear)"/>
<path d="M157.562 197.934V43.0105C157.562 34.6045 152.306 27.0957 144.408 24.2185L87.0431 3.3218C82.6216 1.71112 77.7736 1.71112 73.3521 3.3218L15.9875 24.2185C8.08924 27.0957 2.83301 34.6045 2.83301 43.0105V197.888C2.83301 206.264 8.0528 213.753 15.9115 216.652L73.6099 237.935C78.097 239.59 83.0287 239.582 87.5107 237.913L144.542 216.676C152.37 213.761 157.562 206.287 157.562 197.934Z" fill="#FCE6DE"/>
<path d="M18.5206 100.465L48.1064 82.8711L41.259 100.616L31.1529 100.001C31.1529 100.001 30.4764 100.012 29.8628 99.9679L18.5206 100.465Z" fill="url(#paint1_linear)"/>
<path d="M63.9189 41.4551L15.5304 43.042L50.6381 76.118L63.9189 41.4551Z" fill="url(#paint2_linear)"/>
<path d="M74.2505 57.8378L99.1209 36.1183L89.3058 81.1871L74.2505 57.8378Z" fill="url(#paint3_linear)"/>
<path d="M99.114 36.1414L96.4114 48.3823L113.675 47.3313L99.114 36.1414Z" fill="url(#paint4_linear)"/>
<path d="M48.1123 82.8496L5.13966 118.625L41.2588 100.617L48.1123 82.8496Z" fill="url(#paint5_linear)"/>
<path d="M64.0235 41.6025L16.7881 22.5475L50.6933 76.1801L64.0235 41.6025Z" fill="url(#paint6_linear)"/>
<path d="M89.3269 81.1917L41.2583 100.616L64.0226 41.602L89.3269 81.1917Z" fill="url(#paint7_linear)"/>
<path fill-rule="evenodd" clip-rule="evenodd" d="M41.5265 62.8482C41.5116 62.7107 41.4172 62.5949 41.2855 62.5526L22.5658 56.5421C22.4256 56.4971 22.2722 56.5447 22.182 56.6611C22.0919 56.7775 22.0842 56.9379 22.1629 57.0624L29.9684 69.4087C30.0689 69.5677 30.2772 69.6188 30.4399 69.5244L41.3542 63.1885C41.4738 63.1191 41.5414 62.9857 41.5265 62.8482ZM40.3219 62.9784L30.3799 68.7498L23.2699 57.5034L40.3219 62.9784Z" fill="url(#paint8_linear)"/>
<path fill-rule="evenodd" clip-rule="evenodd" d="M35.1789 62.1554C35.0767 62.2485 35.0389 62.3932 35.0825 62.5244L39.2496 75.0644C39.296 75.2041 39.4249 75.2999 39.5721 75.3039C39.7193 75.3079 39.8533 75.2194 39.9073 75.0824L43.508 65.9493C43.577 65.7743 43.4952 65.576 43.3229 65.5004L35.5553 62.0935C35.4286 62.038 35.2811 62.0622 35.1789 62.1554ZM35.9951 63.0508L42.7331 66.0061L39.6098 73.9286L35.9951 63.0508Z" fill="url(#paint9_linear)"/>
<path fill-rule="evenodd" clip-rule="evenodd" d="M111.539 74.2645L120.267 66.4701L113.928 56.9451L111.539 74.2645ZM114.369 58.8713L119.348 66.3524L112.493 72.4743L114.369 58.8713Z" fill="url(#paint10_linear)"/>
<path fill-rule="evenodd" clip-rule="evenodd" d="M51.6992 111.938L55.9675 100.024L47.1395 106.658L51.6992 111.938ZM51.4445 110.572L48.159 106.768L54.52 101.987L51.4445 110.572Z" fill="url(#paint11_linear)"/>
<defs>
<linearGradient id="paint0_linear" x1="-3" y1="22.8333" x2="328.984" y2="195.172" gradientUnits="userSpaceOnUse">
<stop stop-color="#E1ABAA"/>
<stop offset="0.056045" stop-color="#E3B0AF"/>
<stop offset="0.4509" stop-color="#F2D1CC"/>
<stop offset="0.7796" stop-color="#FCE6DE"/>
<stop offset="1" stop-color="#FFEDE5"/>
</linearGradient>
<linearGradient id="paint1_linear" x1="15.0969" y1="102.511" x2="43.5892" y2="99.2493" gradientUnits="userSpaceOnUse">
<stop stop-color="#E1ABAA"/>
<stop offset="0.056045" stop-color="#E3B0AF"/>
<stop offset="0.4509" stop-color="#F2D1CC"/>
<stop offset="0.7796" stop-color="#FCE6DE"/>
<stop offset="1" stop-color="#FFEDE5"/>
</linearGradient>
<linearGradient id="paint2_linear" x1="2.76327" y1="37.843" x2="1.66159" y2="82.0826" gradientUnits="userSpaceOnUse">
<stop stop-color="#E1ABAA"/>
<stop offset="0.056045" stop-color="#E3B0AF"/>
<stop offset="0.4509" stop-color="#F2D1CC"/>
<stop offset="0.7796" stop-color="#FCE6DE"/>
<stop offset="1" stop-color="#FFEDE5"/>
</linearGradient>
<linearGradient id="paint3_linear" x1="57.766" y1="68.8444" x2="110.733" y2="36.2417" gradientUnits="userSpaceOnUse">
<stop stop-color="#E1ABAA"/>
<stop offset="0.056045" stop-color="#E3B0AF"/>
<stop offset="0.4509" stop-color="#F2D1CC"/>
<stop offset="0.7796" stop-color="#FCE6DE"/>
<stop offset="1" stop-color="#FFEDE5"/>
</linearGradient>
<linearGradient id="paint4_linear" x1="91.1002" y1="39.5098" x2="104.095" y2="64.8845" gradientUnits="userSpaceOnUse">
<stop stop-color="#E1ABAA"/>
<stop offset="0.056045" stop-color="#E3B0AF"/>
<stop offset="0.4509" stop-color="#F2D1CC"/>
<stop offset="0.7796" stop-color="#FCE6DE"/>
<stop offset="1" stop-color="#FFEDE5"/>
</linearGradient>
<linearGradient id="paint5_linear" x1="49.765" y1="100.737" x2="12.917" y2="90.1391" gradientUnits="userSpaceOnUse">
<stop stop-color="#E1ABAA"/>
<stop offset="0.056045" stop-color="#E3B0AF"/>
<stop offset="0.4509" stop-color="#F2D1CC"/>
<stop offset="0.7796" stop-color="#FCE6DE"/>
<stop offset="1" stop-color="#FFEDE5"/>
</linearGradient>
<linearGradient id="paint6_linear" x1="20.4306" y1="20.8414" x2="14.4526" y2="74.6644" gradientUnits="userSpaceOnUse">
<stop stop-color="#E1ABAA"/>
<stop offset="0.056045" stop-color="#E3B0AF"/>
<stop offset="0.4509" stop-color="#F2D1CC"/>
<stop offset="0.7796" stop-color="#FCE6DE"/>
<stop offset="1" stop-color="#FFEDE5"/>
</linearGradient>
<linearGradient id="paint7_linear" x1="88.0992" y1="49.5088" x2="34.403" y2="64.9312" gradientUnits="userSpaceOnUse">
<stop stop-color="#E1ABAA"/>
<stop offset="0.056045" stop-color="#E3B0AF"/>
<stop offset="0.4509" stop-color="#F2D1CC"/>
<stop offset="0.7796" stop-color="#FCE6DE"/>
<stop offset="1" stop-color="#FFEDE5"/>
</linearGradient>
<linearGradient id="paint8_linear" x1="32.5322" y1="58.6877" x2="23.5425" y2="69.9233" gradientUnits="userSpaceOnUse">
<stop stop-color="#E1ABAA"/>
<stop offset="0.056045" stop-color="#E3B0AF"/>
<stop offset="0.4509" stop-color="#F2D1CC"/>
<stop offset="0.7796" stop-color="#FCE6DE"/>
<stop offset="1" stop-color="#FFEDE5"/>
</linearGradient>
<linearGradient id="paint9_linear" x1="42.2627" y1="66.7697" x2="29.3087" y2="63.0254" gradientUnits="userSpaceOnUse">
<stop stop-color="#C4C4D4"/>
<stop offset="0.0145184" stop-color="#C3C3D3"/>
<stop offset="0.4268" stop-color="#A2A2BB"/>
<stop offset="0.77" stop-color="#8D8EAC"/>
<stop offset="1" stop-color="#8687A7"/>
</linearGradient>
<linearGradient id="paint10_linear" x1="113.034" y1="60.6149" x2="106.708" y2="76.9181" gradientUnits="userSpaceOnUse">
<stop stop-color="#C4C4D4"/>
<stop offset="0.0145184" stop-color="#C3C3D3"/>
<stop offset="0.4268" stop-color="#A2A2BB"/>
<stop offset="0.77" stop-color="#8D8EAC"/>
<stop offset="1" stop-color="#8687A7"/>
</linearGradient>
<linearGradient id="paint11_linear" x1="54.6786" y1="104.841" x2="48.5642" y2="101.696" gradientUnits="userSpaceOnUse">
<stop stop-color="#E1ABAA"/>
<stop offset="0.056045" stop-color="#E3B0AF"/>
<stop offset="0.4509" stop-color="#F2D1CC"/>
<stop offset="0.7796" stop-color="#FCE6DE"/>
<stop offset="1" stop-color="#FFEDE5"/>
</linearGradient>
</defs>
</svg>
