<svg width="160" height="242" viewBox="0 0 160 242" fill="none" xmlns="http://www.w3.org/2000/svg">
<path fill-rule="evenodd" clip-rule="evenodd" d="M86.4347 5.26044C82.4628 3.81683 78.1095 3.81683 74.1375 5.26044L16.6375 26.1588C9.52269 28.7447 4.78613 35.5059 4.78613 43.0761V197.835C4.78613 205.379 9.48994 212.122 16.5693 214.727L74.4037 236.012C78.4346 237.495 82.8632 237.489 86.8895 235.993L144.055 214.754C151.107 212.134 155.786 205.404 155.786 197.881V43.0761C155.786 35.5059 151.05 28.7447 143.935 26.1588L86.4347 5.26044ZM72.7712 1.50105C77.6258 -0.263369 82.9465 -0.263369 87.8011 1.50105L145.301 22.3994C153.997 25.56 159.786 33.8237 159.786 43.0761V197.881C159.786 207.076 154.068 215.301 145.448 218.503L88.2825 239.742C83.3615 241.571 77.9489 241.579 73.0222 239.766L15.1878 218.481C6.53523 215.297 0.786133 207.055 0.786133 197.835V43.0761C0.786133 33.8237 6.57525 25.56 15.2712 22.3994L72.7712 1.50105Z" fill="url(#paint0_linear)"/>
<path d="M157.578 197.934V43.0105C157.578 34.6045 152.322 27.0957 144.423 24.2185L87.0587 3.3218C82.6372 1.71112 77.7893 1.71112 73.3677 3.3218L16.0031 24.2185C8.10487 27.0957 2.84863 34.6045 2.84863 43.0105V197.888C2.84863 206.264 8.06842 213.753 15.9272 216.652L73.6255 237.935C78.1126 239.59 83.0443 239.582 87.5263 237.913L144.557 216.676C152.386 213.761 157.578 206.287 157.578 197.934Z" fill="#C9ECF8"/>
<path d="M18.5333 100.469L48.1191 82.875L41.2717 100.62L31.1656 100.005C31.1656 100.005 30.4891 100.016 29.8755 99.9718L18.5333 100.469Z" fill="url(#paint1_linear)"/>
<path d="M63.9316 41.459L15.5431 43.0459L50.6508 76.1219L63.9316 41.459Z" fill="url(#paint2_linear)"/>
<path d="M74.2623 57.8418L99.1326 36.1222L89.3175 81.191L74.2623 57.8418Z" fill="url(#paint3_linear)"/>
<path d="M99.1258 36.1453L96.4231 48.3862L113.687 47.3352L99.1258 36.1453Z" fill="url(#paint4_linear)"/>
<path d="M48.125 82.8535L5.15236 118.629L41.2715 100.621L48.125 82.8535Z" fill="url(#paint5_linear)"/>
<path d="M64.0352 41.6064L16.7999 22.5514L50.7051 76.184L64.0352 41.6064Z" fill="url(#paint6_linear)"/>
<path d="M89.3396 81.1956L41.271 100.62L64.0353 41.6059L89.3396 81.1956Z" fill="url(#paint7_linear)"/>
<path fill-rule="evenodd" clip-rule="evenodd" d="M111.562 74.2723L120.289 66.4779L113.951 56.9529L111.562 74.2723ZM114.392 58.8791L119.37 66.3602L112.515 72.4822L114.392 58.8791Z" fill="url(#paint8_linear)"/>
<path fill-rule="evenodd" clip-rule="evenodd" d="M51.7227 111.945L55.9909 100.032L47.163 106.666L51.7227 111.945ZM51.4679 110.579L48.1824 106.776L54.5434 101.995L51.4679 110.579Z" fill="url(#paint9_linear)"/>
<path fill-rule="evenodd" clip-rule="evenodd" d="M41.5499 62.856C41.5351 62.7185 41.4406 62.6027 41.309 62.5604L22.5892 56.5499C22.449 56.5049 22.2956 56.5525 22.2055 56.6689C22.1153 56.7853 22.1077 56.9457 22.1864 57.0702L29.9918 69.4165C30.0923 69.5755 30.3006 69.6266 30.4633 69.5322L41.3777 63.1963C41.4973 63.1269 41.5648 62.9935 41.5499 62.856ZM40.3454 62.9862L30.4034 68.7576L23.2933 57.5112L40.3454 62.9862Z" fill="url(#paint10_linear)"/>
<path fill-rule="evenodd" clip-rule="evenodd" d="M35.2014 62.1651C35.0991 62.2583 35.0614 62.4029 35.105 62.5342L39.272 75.0742C39.3185 75.2139 39.4474 75.3097 39.5946 75.3137C39.7418 75.3177 39.8758 75.2292 39.9298 75.0922L43.5304 65.9591C43.5994 65.7841 43.5177 65.5858 43.3454 65.5102L35.5777 62.1033C35.4511 62.0477 35.3036 62.072 35.2014 62.1651ZM36.0175 63.0606L42.7556 66.0159L39.6322 73.9384L36.0175 63.0606Z" fill="url(#paint11_linear)"/>
<defs>
<linearGradient id="paint0_linear" x1="226.682" y1="253.5" x2="16.49" y2="-8.90707" gradientUnits="userSpaceOnUse">
<stop stop-color="#7FDFEF"/>
<stop offset="0.1836" stop-color="#81D8EF"/>
<stop offset="0.4577" stop-color="#86C3EF"/>
<stop offset="0.7866" stop-color="#8FA2EF"/>
<stop offset="1" stop-color="#9589EF"/>
</linearGradient>
<linearGradient id="paint1_linear" x1="61.8948" y1="91.6718" x2="15.8118" y2="92.7647" gradientUnits="userSpaceOnUse">
<stop stop-color="#7FDFEF"/>
<stop offset="0.1836" stop-color="#81D8EF"/>
<stop offset="0.4577" stop-color="#86C3EF"/>
<stop offset="0.7866" stop-color="#8FA2EF"/>
<stop offset="1" stop-color="#9589EF"/>
</linearGradient>
<linearGradient id="paint2_linear" x1="26.56" y1="74.8489" x2="18.9047" y2="40.3648" gradientUnits="userSpaceOnUse">
<stop stop-color="#7FDFEF"/>
<stop offset="0.1836" stop-color="#81D8EF"/>
<stop offset="0.4577" stop-color="#86C3EF"/>
<stop offset="0.7866" stop-color="#8FA2EF"/>
<stop offset="1" stop-color="#9589EF"/>
</linearGradient>
<linearGradient id="paint3_linear" x1="101.242" y1="43.1809" x2="84.4727" y2="82.163" gradientUnits="userSpaceOnUse">
<stop stop-color="#7FDFEF"/>
<stop offset="0.1836" stop-color="#81D8EF"/>
<stop offset="0.4577" stop-color="#86C3EF"/>
<stop offset="0.7866" stop-color="#8FA2EF"/>
<stop offset="1" stop-color="#9589EF"/>
</linearGradient>
<linearGradient id="paint4_linear" x1="117.896" y1="49.1811" x2="93.0831" y2="35.4287" gradientUnits="userSpaceOnUse">
<stop stop-color="#7FDFEF"/>
<stop offset="0.1836" stop-color="#81D8EF"/>
<stop offset="0.4577" stop-color="#86C3EF"/>
<stop offset="0.7866" stop-color="#8FA2EF"/>
<stop offset="1" stop-color="#9589EF"/>
</linearGradient>
<linearGradient id="paint5_linear" x1="10.5591" y1="110.85" x2="58.0313" y2="85.083" gradientUnits="userSpaceOnUse">
<stop stop-color="#7FDFEF"/>
<stop offset="0.1836" stop-color="#81D8EF"/>
<stop offset="0.4577" stop-color="#86C3EF"/>
<stop offset="0.7866" stop-color="#8FA2EF"/>
<stop offset="1" stop-color="#9589EF"/>
</linearGradient>
<linearGradient id="paint6_linear" x1="54.227" y1="61.8475" x2="9.13049" y2="10.8877" gradientUnits="userSpaceOnUse">
<stop stop-color="#7FDFEF"/>
<stop offset="0.1836" stop-color="#81D8EF"/>
<stop offset="0.4577" stop-color="#86C3EF"/>
<stop offset="0.7866" stop-color="#8FA2EF"/>
<stop offset="1" stop-color="#9589EF"/>
</linearGradient>
<linearGradient id="paint7_linear" x1="47.2268" y1="86.1813" x2="81.2659" y2="48.287" gradientUnits="userSpaceOnUse">
<stop stop-color="#7FDFEF"/>
<stop offset="0.1836" stop-color="#81D8EF"/>
<stop offset="0.4577" stop-color="#86C3EF"/>
<stop offset="0.7866" stop-color="#8FA2EF"/>
<stop offset="1" stop-color="#9589EF"/>
</linearGradient>
<linearGradient id="paint8_linear" x1="119.321" y1="59.3235" x2="109.81" y2="70.3943" gradientUnits="userSpaceOnUse">
<stop stop-color="white"/>
<stop offset="1" stop-color="#9FC0BD"/>
</linearGradient>
<linearGradient id="paint9_linear" x1="60.2843" y1="100.263" x2="48.5015" y2="104.335" gradientUnits="userSpaceOnUse">
<stop stop-color="#7FDFEF"/>
<stop offset="0.1836" stop-color="#81D8EF"/>
<stop offset="0.4577" stop-color="#86C3EF"/>
<stop offset="0.7866" stop-color="#8FA2EF"/>
<stop offset="1" stop-color="#9589EF"/>
</linearGradient>
<linearGradient id="paint10_linear" x1="30.4472" y1="49.3241" x2="32.2518" y2="66.786" gradientUnits="userSpaceOnUse">
<stop stop-color="#7FDFEF"/>
<stop offset="0.1836" stop-color="#81D8EF"/>
<stop offset="0.4577" stop-color="#86C3EF"/>
<stop offset="0.7866" stop-color="#8FA2EF"/>
<stop offset="1" stop-color="#9589EF"/>
</linearGradient>
<linearGradient id="paint11_linear" x1="43.6015" y1="71.8815" x2="34.2667" y2="66.0303" gradientUnits="userSpaceOnUse">
<stop stop-color="white"/>
<stop offset="1" stop-color="#9FC0BD"/>
</linearGradient>
</defs>
</svg>
