<svg aria-hidden="true" style="position: absolute; width: 0; height: 0; overflow: hidden;" version="1.1" xmlns="http://www.w3.org/2000/svg" xmlns:xlink="http://www.w3.org/1999/xlink">
<defs>
<symbol id="football-1" viewBox="0 0 32 32">
<title>football-1</title>
<path fill="#999" style="fill: var(--color1, #999)" d="M29.55 24.48c1.537-2.406 2.45-5.339 2.45-8.486 0-3.867-1.379-7.412-3.671-10.17l0.021 0.026c-0.029-0.041-0.059-0.077-0.090-0.11l0 0c-2.955-3.507-7.349-5.719-12.26-5.719s-9.305 2.213-12.24 5.695l-0.020 0.024c-0.043 0.045-0.083 0.094-0.118 0.146l-0.002 0.004c-2.253 2.726-3.619 6.256-3.619 10.106 0 3.146 0.913 6.079 2.487 8.548l-0.038-0.064c0.031 0.061 0.064 0.113 0.102 0.162l-0.002-0.002c2.132 3.309 5.378 5.742 9.199 6.784l0.111 0.026h0.12c1.209 0.328 2.598 0.516 4.030 0.516s2.821-0.188 4.142-0.541l-0.112 0.025h0.11c3.945-1.073 7.2-3.521 9.292-6.787l0.038-0.063c0.024-0.034 0.047-0.073 0.067-0.114l0.003-0.006zM27.92 8.68c1.103 1.787 1.824 3.918 1.997 6.203l0.003 0.047-3.36-2.37zM16 2c1.164 0.001 2.295 0.143 3.377 0.41l-0.097-0.020-3.28 2.47-3.28-2.46c0.984-0.25 2.114-0.396 3.277-0.4h0.003zM5.41 12.56l-3.41 2.36c0.176-2.332 0.897-4.463 2.035-6.31l-0.035 0.060zM5.35 25.070l4.1-0.070 1.21 3.93c-2.118-0.883-3.901-2.2-5.304-3.85l-0.016-0.020zM13 29.66l-1.84-6c-0.128-0.415-0.508-0.711-0.957-0.711-0.015 0-0.030 0-0.045 0.001l0.002-0-6.23 0.1c-0.987-1.648-1.655-3.597-1.865-5.681l-0.005-0.059 5.1-3.59c0.258-0.183 0.424-0.481 0.424-0.817 0-0.116-0.020-0.227-0.056-0.33l0.002 0.007-2-5.9c1.325-1.506 2.957-2.709 4.802-3.516l0.088-0.034 5 3.74c0.165 0.125 0.374 0.2 0.6 0.2s0.435-0.075 0.602-0.202l-0.003 0.002 5-3.74c1.933 0.84 3.566 2.043 4.877 3.535l0.013 0.015-2 5.9c-0.034 0.096-0.054 0.207-0.054 0.323 0 0.336 0.166 0.634 0.421 0.815l0.003 0.002 5.1 3.59c-0.215 2.143-0.883 4.092-1.905 5.804l0.035-0.064-6.28-0.050c-0.458 0.006-0.846 0.297-0.998 0.703l-0.002 0.007-1.84 6c-0.866 0.189-1.86 0.298-2.88 0.298-1.102 0-2.175-0.127-3.205-0.367l0.095 0.019zM23 28.12c-0.461 0.273-1.010 0.548-1.579 0.786l-0.091 0.034 1.22-3.94 4.11 0.060c-1.029 1.21-2.239 2.229-3.594 3.024l-0.066 0.036z"></path>
<path fill="#999" style="fill: var(--color1, #999)" d="M19.62 20.54l2.73-5.45c0.068-0.131 0.108-0.287 0.108-0.452 0-0.325-0.155-0.614-0.395-0.797l-0.002-0.002-5.46-4.090c-0.165-0.125-0.374-0.2-0.6-0.2s-0.435 0.075-0.602 0.202l0.002-0.002-5.45 4.090c-0.243 0.184-0.398 0.473-0.398 0.798 0 0.165 0.040 0.32 0.11 0.457l-0.003-0.006 2.73 5.45c0.168 0.328 0.503 0.549 0.89 0.55h5.46c0.383-0.005 0.714-0.225 0.877-0.544l0.003-0.006zM13.89 19.090l-2.080-4.15 4.19-3.14 4.19 3.14-2.080 4.15z"></path>
</symbol>
<symbol id="football-2" viewBox="0 0 32 32">
<title>football-2</title>
<path fill="#999" style="fill: var(--color1, #999)" d="M19.15 29.24l-0.13 0.41c-0.902 0.206-1.937 0.324-3 0.324s-2.098-0.118-3.094-0.341l0.094 0.018-1.84-6c-0.128-0.415-0.508-0.711-0.957-0.711-0.015 0-0.030 0-0.045 0.001l0.002-0-6.23 0.1c-0.987-1.648-1.655-3.597-1.865-5.681l-0.005-0.059 5.1-3.59c0.258-0.183 0.424-0.481 0.424-0.817 0-0.116-0.020-0.227-0.056-0.33l0.002 0.007-2-5.9c1.325-1.506 2.957-2.709 4.802-3.516l0.088-0.034 5 3.74c0.165 0.125 0.374 0.2 0.6 0.2s0.435-0.075 0.602-0.202l-0.003 0.002 5-3.74c1.933 0.84 3.566 2.043 4.877 3.535l0.013 0.015-2 5.9c-0.034 0.096-0.054 0.207-0.054 0.323 0 0.336 0.166 0.634 0.421 0.815l0.003 0.002 5.1 3.59c-0.086 0.776-0.22 1.472-0.403 2.148l0.023-0.098c0.605 0.534 1.115 1.158 1.511 1.854l0.019 0.036c0.539-1.527 0.85-3.288 0.85-5.122 0-0.041-0-0.083-0-0.124l0 0.006c-0.006-3.868-1.383-7.413-3.671-10.177l0.021 0.027c-0.029-0.041-0.059-0.077-0.090-0.11l0 0c-2.955-3.507-7.349-5.719-12.26-5.719s-9.305 2.213-12.24 5.695l-0.020 0.024c-0.043 0.045-0.083 0.094-0.118 0.146l-0.002 0.004c-2.253 2.726-3.619 6.256-3.619 10.106 0 3.146 0.913 6.079 2.487 8.548l-0.038-0.064c0.031 0.061 0.064 0.113 0.102 0.162l-0.002-0.002c2.132 3.309 5.378 5.742 9.199 6.784l0.111 0.026h0.11c1.209 0.328 2.598 0.516 4.030 0.516s2.821-0.188 4.142-0.541l-0.112 0.025h0.11c0.39-0.1 0.78-0.23 1.16-0.36-0.849-0.483-1.563-1.102-2.138-1.834l-0.012-0.016zM27.92 8.67c1.103 1.787 1.824 3.918 1.997 6.203l0.003 0.047-3.36-2.37zM16 2c1.166 0.004 2.296 0.15 3.377 0.421l-0.097-0.021-3.28 2.46-3.28-2.46c0.984-0.25 2.114-0.396 3.277-0.4h0.003zM4.080 8.68l1.33 3.88-3.41 2.36c0.203-2.335 0.951-4.461 2.114-6.297l-0.034 0.057zM9 28.12c-1.417-0.829-2.623-1.844-3.634-3.030l-0.016-0.020 4.1-0.070 1.21 3.93c-0.656-0.269-1.202-0.541-1.726-0.846l0.066 0.036z"></path>
<path fill="#999" style="fill: var(--color1, #999)" d="M20.3 19.19l2.050-4.11c0.068-0.131 0.108-0.287 0.108-0.452 0-0.325-0.155-0.614-0.395-0.797l-0.002-0.002-5.46-4.090c-0.165-0.125-0.374-0.2-0.6-0.2s-0.435 0.075-0.602 0.202l0.002-0.002-5.45 4.090c-0.243 0.184-0.398 0.473-0.398 0.798 0 0.165 0.040 0.32 0.11 0.457l-0.003-0.006 2.73 5.45c0.168 0.328 0.503 0.549 0.89 0.55h5.37c0.449-0.736 0.998-1.361 1.637-1.879l0.013-0.011zM13.89 19.090l-2.080-4.15 4.19-3.15 4.19 3.14-2.080 4.15z"></path>
<path fill="#d3000f" style="fill: var(--color2, #d3000f)" d="M24.8 17.6c-3.976 0-7.2 3.224-7.2 7.2s3.224 7.2 7.2 7.2c3.976 0 7.2-3.224 7.2-7.2v0c0-3.976-3.224-7.2-7.2-7.2v0zM26.64 28.87l-1.83-2.87-1.81 2.87h-1.93l2.67-4.090-2.59-4.060h1.85l1.79 2.8 1.79-2.8h1.84l-2.57 4.050 2.66 4.090z"></path>
</symbol>
<symbol id="football-3" viewBox="0 0 32 32">
<title>football-3</title>
<path fill="#d3000f" style="fill: var(--color2, #d3000f)" d="M22.050 23c-0.042-0.003-0.091-0.005-0.14-0.005-0.994 0-1.8 0.806-1.8 1.8s0.806 1.8 1.8 1.8c0.992 0 1.797-0.803 1.8-1.794v-0c0.002-0.033 0.004-0.071 0.004-0.11 0-0.924-0.742-1.675-1.662-1.69l-0.001-0z"></path>
<path fill="#d3000f" style="fill: var(--color2, #d3000f)" d="M24.8 17.6c-3.976 0-7.2 3.224-7.2 7.2s3.224 7.2 7.2 7.2c3.976 0 7.2-3.224 7.2-7.2v0c0-3.976-3.224-7.2-7.2-7.2v0zM22 27.61c-1.478-0.091-2.642-1.312-2.642-2.805s1.164-2.714 2.634-2.805l0.008-0c0.031-0.001 0.067-0.002 0.103-0.002 1.486 0 2.69 1.204 2.69 2.69 0 0.043-0.001 0.086-0.003 0.128l0-0.006c0.002 0.033 0.002 0.073 0.002 0.112 0 1.486-1.204 2.69-2.69 2.69-0.036 0-0.072-0.001-0.107-0.002l0.005 0zM28.15 27.61c-0.046 0.003-0.1 0.004-0.154 0.004-1.464 0-2.65-1.186-2.65-2.65 0-0.051 0.001-0.101 0.004-0.151l-0 0.007c-0.004-0.052-0.006-0.113-0.006-0.175 0-1.464 1.186-2.65 2.65-2.65 0.055 0 0.109 0.002 0.163 0.005l-0.007-0c0.009-0 0.019-0 0.029-0 0.849 0 1.614 0.361 2.149 0.938l0.002 0.002-0.77 0.65c-0.36-0.363-0.859-0.588-1.41-0.59h-0c-0.901 0.007-1.628 0.738-1.628 1.64 0 0.056 0.003 0.112 0.008 0.167l-0.001-0.007c-0.004 0.042-0.006 0.091-0.006 0.14 0 0.917 0.743 1.66 1.66 1.66 0.006 0 0.011-0 0.017-0h-0.001c0.012 0 0.026 0 0.040 0 0.397 0 0.767-0.116 1.078-0.315l-0.008 0.005v-0.81h-1.23v-0.93h2.29v2.37c-0.582 0.425-1.311 0.681-2.1 0.681-0.025 0-0.049-0-0.074-0.001l0.004 0z"></path>
<path fill="#999" style="fill: var(--color1, #999)" d="M19.15 29.24l-0.13 0.41c-0.902 0.206-1.937 0.324-3 0.324s-2.098-0.118-3.094-0.341l0.094 0.018-1.84-6c-0.128-0.415-0.508-0.711-0.957-0.711-0.015 0-0.030 0-0.045 0.001l0.002-0-6.23 0.1c-0.987-1.648-1.655-3.597-1.865-5.681l-0.005-0.059 5.1-3.59c0.258-0.183 0.424-0.481 0.424-0.817 0-0.116-0.020-0.227-0.056-0.33l0.002 0.007-2-5.9c1.325-1.506 2.957-2.709 4.802-3.516l0.088-0.034 5 3.74c0.165 0.125 0.374 0.2 0.6 0.2s0.435-0.075 0.602-0.202l-0.003 0.002 5-3.74c1.933 0.84 3.566 2.043 4.877 3.535l0.013 0.015-2 5.9c-0.034 0.096-0.054 0.207-0.054 0.323 0 0.336 0.166 0.634 0.421 0.815l0.003 0.002 5.1 3.59c-0.086 0.776-0.22 1.472-0.403 2.148l0.023-0.098c0.605 0.534 1.115 1.158 1.511 1.854l0.019 0.036c0.539-1.527 0.85-3.288 0.85-5.122 0-0.041-0-0.083-0-0.124l0 0.006c-0.006-3.868-1.383-7.413-3.671-10.177l0.021 0.027c-0.029-0.041-0.059-0.077-0.090-0.11l0 0c-2.955-3.507-7.349-5.719-12.26-5.719s-9.305 2.213-12.24 5.695l-0.020 0.024c-0.043 0.045-0.083 0.094-0.118 0.146l-0.002 0.004c-2.253 2.726-3.619 6.256-3.619 10.106 0 3.146 0.913 6.079 2.487 8.548l-0.038-0.064c0.031 0.061 0.064 0.113 0.102 0.162l-0.002-0.002c2.132 3.309 5.378 5.742 9.199 6.784l0.111 0.026h0.11c1.209 0.328 2.598 0.516 4.030 0.516s2.821-0.188 4.142-0.541l-0.112 0.025h0.11c0.39-0.1 0.78-0.23 1.16-0.36-0.849-0.483-1.563-1.102-2.138-1.834l-0.012-0.016zM27.92 8.67c1.103 1.787 1.824 3.918 1.997 6.203l0.003 0.047-3.36-2.37zM16 2c1.166 0.004 2.296 0.15 3.377 0.421l-0.097-0.021-3.28 2.46-3.28-2.46c0.984-0.25 2.114-0.396 3.277-0.4h0.003zM4.080 8.68l1.33 3.88-3.41 2.36c0.203-2.335 0.951-4.461 2.114-6.297l-0.034 0.057zM9 28.12c-1.417-0.829-2.623-1.844-3.634-3.030l-0.016-0.020 4.1-0.070 1.21 3.93c-0.656-0.269-1.202-0.541-1.726-0.846l0.066 0.036z"></path>
<path fill="#999" style="fill: var(--color1, #999)" d="M20.3 19.19l2.050-4.11c0.068-0.131 0.108-0.287 0.108-0.452 0-0.325-0.155-0.614-0.395-0.797l-0.002-0.002-5.46-4.090c-0.165-0.125-0.374-0.2-0.6-0.2s-0.435 0.075-0.602 0.202l0.002-0.002-5.45 4.090c-0.243 0.184-0.398 0.473-0.398 0.798 0 0.165 0.040 0.32 0.11 0.457l-0.003-0.006 2.73 5.45c0.168 0.328 0.503 0.549 0.89 0.55h5.37c0.449-0.736 0.998-1.361 1.637-1.879l0.013-0.011zM13.89 19.090l-2.080-4.15 4.19-3.15 4.19 3.14-2.080 4.15z"></path>
</symbol>
<symbol id="football-4" viewBox="0 0 32 32">
<title>football-4</title>
<path fill="#999" style="fill: var(--color1, #999)" d="M28.35 5.85c-0.029-0.041-0.058-0.077-0.090-0.11l0 0c-2.955-3.507-7.349-5.719-12.26-5.719s-9.305 2.213-12.24 5.695l-0.020 0.024c-0.043 0.045-0.083 0.094-0.118 0.146l-0.002 0.004c-2.253 2.726-3.619 6.256-3.619 10.106 0 3.146 0.913 6.079 2.487 8.548l-0.038-0.064c0.031 0.061 0.064 0.113 0.102 0.162l-0.002-0.002c2.132 3.309 5.378 5.742 9.199 6.784l0.111 0.026h0.11c1.209 0.328 2.598 0.516 4.030 0.516s2.821-0.188 4.142-0.541l-0.112 0.025h0.11c3.945-1.073 7.2-3.521 9.292-6.787l0.038-0.063c0.024-0.034 0.047-0.073 0.067-0.114l0.003-0.006c1.54-2.407 2.455-5.343 2.455-8.493 0-3.864-1.376-7.406-3.666-10.163l0.021 0.026zM27.91 8.67c1.103 1.787 1.824 3.918 1.997 6.203l0.003 0.047-3.36-2.37zM23 3.88c1.339 0.783 2.484 1.727 3.457 2.825l0.013 0.015-2 5.9c-0.020 0.075-0.032 0.161-0.032 0.25s0.012 0.175 0.033 0.257l-0.002-0.007c-1.23-3.487-4.476-5.95-8.304-6l-0.006-0c0.182-0.019 0.345-0.083 0.483-0.182l-0.003 0.002 5-3.74c0.548 0.238 0.995 0.466 1.427 0.716l-0.067-0.036zM20.52 13.88c0 2.76-1.84 4.090-4.62 4.090h-2v4.33h-2.42v-12.6h4.66c3.060 0 4.38 1.78 4.38 4.2zM16 2c1.164 0.001 2.295 0.143 3.377 0.41l-0.097-0.020-3.28 2.47-3.28-2.46c0.984-0.25 2.114-0.396 3.277-0.4h0.003zM9 3.88c0.38-0.223 0.843-0.457 1.32-0.665l0.090-0.035 5 3.74c0.135 0.097 0.298 0.161 0.476 0.18l0.004 0c-3.834 0.050-7.080 2.513-8.291 5.938l-0.019 0.062c0.021-0.076 0.033-0.164 0.033-0.255s-0.012-0.178-0.035-0.262l0.002 0.007-2-5.9c0.974-1.099 2.101-2.032 3.355-2.775l0.065-0.035zM4.080 8.68l1.33 3.88-3.41 2.36c0.203-2.335 0.951-4.461 2.114-6.297l-0.034 0.057zM9 28.12c-1.417-0.829-2.623-1.844-3.634-3.030l-0.016-0.020 4.1-0.070 1.21 3.93c-0.657-0.269-1.202-0.541-1.726-0.846l0.066 0.036zM10.17 23l-6.23 0.1c-0.987-1.648-1.655-3.597-1.865-5.681l-0.005-0.059 5.1-3.59c0.127-0.097 0.229-0.221 0.297-0.364l0.003-0.006c-0.247 0.778-0.389 1.673-0.389 2.601 0 2.926 1.414 5.522 3.595 7.142l0.024 0.017c-0.151-0.094-0.333-0.153-0.528-0.16l-0.002-0zM23 28.12c-0.461 0.273-1.010 0.548-1.579 0.786l-0.091 0.034 1.21-3.94 4.11 0.060c-1.026 1.21-2.233 2.228-3.585 3.024l-0.065 0.036zM28.060 23.12l-6.23-0.12c-0.458 0.006-0.846 0.297-0.998 0.703l-0.002 0.007-1.84 6c-0.902 0.206-1.937 0.324-3 0.324s-2.098-0.118-3.094-0.341l0.094 0.018-1.84-6c-0.059-0.176-0.159-0.324-0.289-0.439l-0.001-0.001c1.432 1.024 3.218 1.637 5.147 1.637 4.921 0 8.91-3.989 8.91-8.91 0-0.927-0.141-1.82-0.404-2.66l0.017 0.063c0.073 0.145 0.174 0.265 0.297 0.358l0.003 0.002 5.1 3.59c-0.215 2.143-0.883 4.092-1.905 5.804l0.035-0.064z"></path>
<path fill="#999" style="fill: var(--color1, #999)" d="M13.94 11.92v3.86h1.65c1.57 0 2.35-0.77 2.35-1.93s-0.79-1.93-2.24-1.93z"></path>
</symbol>
<symbol id="football-5" viewBox="0 0 32 32">
<title>football-5</title>
<path fill="#999" style="fill: var(--color1, #999)" d="M19.15 29.24l-0.13 0.41c-0.902 0.206-1.937 0.324-3 0.324s-2.098-0.118-3.094-0.341l0.094 0.018-1.84-6c-0.059-0.176-0.159-0.324-0.289-0.439l-0.001-0.001c1.421 1.027 3.198 1.642 5.119 1.642 0.577 0 1.14-0.055 1.686-0.161l-0.055 0.009c0.023-3.945 3.215-7.137 7.158-7.16h0.002c0.095-0.485 0.15-1.043 0.15-1.614 0-0.923-0.143-1.812-0.407-2.648l0.017 0.062c0.073 0.145 0.174 0.265 0.297 0.358l0.003 0.002 5.1 3.59c-0.086 0.776-0.22 1.472-0.403 2.148l0.023-0.098c0.605 0.534 1.114 1.158 1.511 1.854l0.019 0.036c0.563-1.558 0.889-3.356 0.89-5.23v-0c-0.006-3.868-1.383-7.413-3.671-10.177l0.021 0.027c-0.029-0.041-0.058-0.077-0.090-0.11l0 0c-2.955-3.507-7.349-5.719-12.26-5.719s-9.305 2.213-12.24 5.695l-0.020 0.024c-0.043 0.045-0.083 0.094-0.118 0.146l-0.002 0.004c-2.253 2.726-3.619 6.256-3.619 10.106 0 3.146 0.913 6.079 2.487 8.548l-0.038-0.064c0.031 0.061 0.064 0.113 0.102 0.162l-0.002-0.002c2.132 3.309 5.378 5.742 9.199 6.784l0.111 0.026h0.11c1.209 0.328 2.598 0.516 4.030 0.516s2.821-0.188 4.142-0.541l-0.112 0.025h0.11c0.39-0.1 0.78-0.23 1.16-0.36-0.849-0.483-1.563-1.102-2.138-1.834l-0.012-0.016zM15.9 18h-2v4.3h-2.42v-12.6h4.66c3.060 0 4.38 1.78 4.38 4.2 0 2.76-1.84 4.1-4.62 4.1zM27.9 8.69c1.103 1.787 1.824 3.918 1.997 6.203l0.003 0.047-3.36-2.37zM23 3.87c1.339 0.783 2.484 1.727 3.457 2.825l0.013 0.015-2 5.9c-0.020 0.075-0.032 0.161-0.032 0.25s0.012 0.175 0.033 0.257l-0.002-0.007c-1.23-3.487-4.476-5.95-8.304-6l-0.006-0c0.182-0.019 0.345-0.083 0.483-0.182l-0.003 0.002 5-3.74c0.548 0.238 0.995 0.466 1.427 0.716l-0.067-0.036zM16 2c1.166 0.004 2.296 0.15 3.377 0.421l-0.097-0.021-3.28 2.46-3.28-2.46c0.984-0.25 2.114-0.396 3.277-0.4h0.003zM9 3.87c0.38-0.223 0.843-0.457 1.32-0.665l0.090-0.035 5 3.74c0.135 0.097 0.298 0.161 0.476 0.18l0.004 0c-3.834 0.050-7.080 2.513-8.291 5.938l-0.019 0.062c0.021-0.076 0.033-0.164 0.033-0.255s-0.012-0.178-0.035-0.262l0.002 0.007-2-5.9c0.974-1.099 2.101-2.032 3.355-2.775l0.065-0.035zM4.080 8.68l1.33 3.88-3.41 2.36c0.203-2.335 0.951-4.461 2.114-6.297l-0.034 0.057zM9 28.12c-1.417-0.829-2.623-1.844-3.634-3.030l-0.016-0.020 4.1-0.070 1.21 3.93c-0.657-0.269-1.202-0.541-1.726-0.846l0.066 0.036zM10.17 23l-6.23 0.1c-0.987-1.648-1.655-3.597-1.865-5.681l-0.005-0.059 5.1-3.59c0.127-0.097 0.229-0.221 0.297-0.364l0.003-0.006c-0.247 0.778-0.389 1.673-0.389 2.601 0 2.926 1.414 5.522 3.595 7.142l0.024 0.017c-0.151-0.094-0.333-0.153-0.528-0.16l-0.002-0z"></path>
<path fill="#999" style="fill: var(--color1, #999)" d="M15.7 11.91h-1.76v3.86h1.65c1.57 0 2.35-0.77 2.35-1.93s-0.79-1.93-2.24-1.93z"></path>
<path fill="#d3000f" style="fill: var(--color2, #d3000f)" d="M24.8 17.6c-3.976 0-7.2 3.224-7.2 7.2s3.224 7.2 7.2 7.2c3.976 0 7.2-3.224 7.2-7.2v0c0-3.976-3.224-7.2-7.2-7.2v0zM26.64 28.87l-1.83-2.87-1.81 2.87h-1.93l2.67-4.090-2.59-4.060h1.85l1.79 2.8 1.79-2.8h1.84l-2.57 4.050 2.66 4.090z"></path>
</symbol>
<symbol id="football-6" viewBox="0 0 32 32">
<title>football-6</title>
<path fill="#ffe900" style="fill: var(--color3, #ffe900)" d="M14.17 16.17c0.736-0.697 1.733-1.126 2.83-1.126s2.094 0.429 2.832 1.128l-0.002-0.002c0.060 0.060 0.11 0.14 0.17 0.21v-14.38h-14v20h7v-3c0-0.001 0-0.002 0-0.003 0-1.104 0.447-2.103 1.17-2.827l-0 0z"></path>
<path fill="#999" style="fill: var(--color1, #999)" d="M27.74 19.74l-2.4-10.42c-0.31-1.259-1.063-2.306-2.082-2.989l-0.018-0.011-1.24-0.86v-4.46c0-0.552-0.448-1-1-1v0h-16c-0.552 0-1 0.448-1 1v0 22c0 0.552 0.448 1 1 1v0h4c0.552 0 1-0.448 1-1s-0.448-1-1-1v0h-3v-20h14v11c0 0.552 0.448 1 1 1s1-0.448 1-1v0-5.13l0.13 0.080c0.626 0.421 1.079 1.057 1.256 1.8l0.004 0.020 2.4 10.42c0.063 0.231 0.099 0.496 0.099 0.77s-0.036 0.539-0.104 0.791l0.005-0.021-2.53 8.27h-5.94c-1.258-0.941-2.119-2.354-2.317-3.972l-0.003-0.028v-7c0.002-0.551 0.227-1.050 0.59-1.41l0-0c0.368-0.349 0.867-0.563 1.415-0.563s1.047 0.214 1.416 0.564l-0.001-0.001c0.358 0.361 0.58 0.859 0.58 1.408 0 0.001 0 0.001 0 0.002v-0 5c0 0.552 0.448 1 1 1s1-0.448 1-1v0-5c-0.007-1.007-0.385-1.925-1.004-2.624l0.004 0.004c-0.060-0.070-0.11-0.14-0.17-0.21-0.736-0.697-1.733-1.126-2.83-1.126s-2.094 0.429-2.832 1.128l0.002-0.002c-0.723 0.724-1.17 1.723-1.17 2.827 0 0.001 0 0.002 0 0.003v-0 7.1c0.252 2.395 1.546 4.444 3.413 5.712l0.027 0.018c0.157 0.106 0.35 0.17 0.558 0.17 0.001 0 0.002 0 0.002 0h7c0.013 0.001 0.028 0.001 0.043 0.001 0.449 0 0.829-0.296 0.955-0.704l0.002-0.007 2.7-9c0.117-0.405 0.184-0.871 0.184-1.352 0-0.425-0.052-0.838-0.151-1.233l0.007 0.035z"></path>
</symbol>
<symbol id="football-7" viewBox="0 0 32 32">
<title>football-7</title>
<path fill="#d3000f" style="fill: var(--color2, #d3000f)" d="M14.17 16.17c0.736-0.697 1.733-1.126 2.83-1.126s2.094 0.429 2.832 1.128l-0.002-0.002c0.060 0.060 0.11 0.14 0.17 0.21v-14.38h-14v20h7v-3c0-0.001 0-0.002 0-0.003 0-1.104 0.447-2.103 1.17-2.827l-0 0z"></path>
<path fill="#999" style="fill: var(--color1, #999)" d="M27.74 19.74l-2.4-10.42c-0.31-1.259-1.063-2.306-2.082-2.989l-0.018-0.011-1.24-0.86v-4.46c0-0.552-0.448-1-1-1v0h-16c-0.552 0-1 0.448-1 1v0 22c0 0.552 0.448 1 1 1v0h4c0.552 0 1-0.448 1-1s-0.448-1-1-1v0h-3v-20h14v11c0 0.552 0.448 1 1 1s1-0.448 1-1v0-5.13l0.13 0.080c0.626 0.421 1.079 1.057 1.256 1.8l0.004 0.020 2.4 10.42c0.063 0.231 0.099 0.496 0.099 0.77s-0.036 0.539-0.104 0.791l0.005-0.021-2.53 8.27h-5.94c-1.258-0.941-2.119-2.354-2.317-3.972l-0.003-0.028v-7c0.002-0.551 0.227-1.050 0.59-1.41l0-0c0.368-0.349 0.867-0.563 1.415-0.563s1.047 0.214 1.416 0.564l-0.001-0.001c0.358 0.361 0.58 0.859 0.58 1.408 0 0.001 0 0.001 0 0.002v-0 5c0 0.552 0.448 1 1 1s1-0.448 1-1v0-5c-0.007-1.007-0.385-1.925-1.004-2.624l0.004 0.004c-0.060-0.070-0.11-0.14-0.17-0.21-0.736-0.697-1.733-1.126-2.83-1.126s-2.094 0.429-2.832 1.128l0.002-0.002c-0.723 0.724-1.17 1.723-1.17 2.827 0 0.001 0 0.002 0 0.003v-0 7.1c0.252 2.395 1.546 4.444 3.413 5.712l0.027 0.018c0.157 0.106 0.35 0.17 0.558 0.17 0.001 0 0.002 0 0.002 0h7c0.013 0.001 0.028 0.001 0.043 0.001 0.449 0 0.829-0.296 0.955-0.704l0.002-0.007 2.7-9c0.117-0.405 0.184-0.871 0.184-1.352 0-0.425-0.052-0.838-0.151-1.233l0.007 0.035z"></path>
</symbol>
<symbol id="football-8" viewBox="0 0 32 32">
<title>football-8</title>
<path fill="#999" style="fill: var(--color1, #999)" d="M31.92 9.38c0.048-0.113 0.075-0.243 0.075-0.381 0-0.277-0.113-0.528-0.295-0.709l-8-8c-0.184-0.215-0.456-0.35-0.76-0.35-0.552 0-1 0.448-1 1 0 0.303 0.135 0.575 0.348 0.758l0.001 0.001 6.3 6.3h-27.59c-0.552 0-1 0.448-1 1s0.448 1 1 1v0h27.59l-6.29 6.29c-0.215 0.184-0.35 0.456-0.35 0.76 0 0.552 0.448 1 1 1 0.303 0 0.575-0.135 0.758-0.348l0.001-0.001 8-8c0.087-0.090 0.158-0.196 0.208-0.313l0.002-0.007z"></path>
<path fill="#999" style="fill: var(--color1, #999)" d="M31 22h-27.59l6.29-6.29c0.215-0.184 0.35-0.456 0.35-0.76 0-0.552-0.448-1-1-1-0.303 0-0.575 0.135-0.758 0.348l-0.001 0.001-8 8c-0.183 0.181-0.296 0.432-0.296 0.71s0.113 0.529 0.296 0.71l8 8c0.184 0.215 0.456 0.35 0.76 0.35 0.552 0 1-0.448 1-1 0-0.303-0.135-0.575-0.348-0.758l-0.001-0.001-6.29-6.31h27.59c0.552 0 1-0.448 1-1s-0.448-1-1-1v0z"></path>
</symbol>
<symbol id="football-9" viewBox="0 0 32 32">
<title>football-9</title>
<path fill="#999" style="fill: var(--color1, #999)" d="M9.47 11c1.88-0.635 4.046-1.001 6.297-1.001 0.082 0 0.164 0.001 0.245 0.001l-0.012-0c0.061-0.001 0.134-0.001 0.206-0.001 2.257 0 4.428 0.366 6.458 1.043l-0.144-0.042c0.045 0.007 0.097 0.011 0.15 0.011s0.105-0.004 0.156-0.012l-0.006 0.001c0.045 0.007 0.097 0.011 0.15 0.011 0.558 0 1.011-0.453 1.011-1.011 0-0.506-0.371-0.924-0.856-0.999l-0.006-0.001c-1.995-0.637-4.289-1.005-6.669-1.005-0.159 0-0.317 0.002-0.475 0.005l0.024-0c-0.14-0.003-0.306-0.005-0.471-0.005-2.38 0-4.674 0.367-6.829 1.049l0.16-0.044c-0.432 0.135-0.74 0.531-0.74 1 0 0.577 0.468 1.045 1.045 1.045 0.109 0 0.214-0.017 0.312-0.047l-0.007 0.002z"></path>
<path fill="#999" style="fill: var(--color1, #999)" d="M32 10c0-3-3.080-5.64-8.24-7-2.329-0.615-5.003-0.968-7.76-0.968s-5.431 0.353-7.98 1.017l0.22-0.049c-5.16 1.36-8.24 4-8.24 7 0.014 0.222 0.043 0.428 0.085 0.628l-0.005-0.028c-0.002 0.024-0.003 0.052-0.003 0.080s0.001 0.056 0.004 0.084l-0-0.004 1.92 13.24c0 3.32 5.24 5.33 11 5.86v0c1 0.090 2 0.14 3 0.14s2-0.050 3-0.14v0c5.75-0.52 11-2.52 11-5.71l1.94-13.38c0.002-0.024 0.003-0.052 0.003-0.080s-0.001-0.056-0.004-0.084l0 0.004c0.032-0.179 0.054-0.39 0.060-0.604l0-0.006zM8.76 4.9c2.123-0.572 4.561-0.9 7.076-0.9 0.058 0 0.115 0 0.173 0.001l-0.009-0c0.049-0 0.107-0 0.164-0 2.515 0 4.952 0.329 7.273 0.945l-0.197-0.045c4.11 1.1 6.76 3.1 6.76 5.1s-2.65 4-6.76 5.1c-2.173 0.573-4.668 0.902-7.24 0.902s-5.067-0.329-7.445-0.947l0.205 0.045c-4.11-1.1-6.76-3.1-6.76-5.1s2.65-4 6.76-5.1zM14 27.9v-3.9h4v3.92c-0.65 0-1.3 0.080-2 0.080s-1.35 0-2-0.080zM20 27.71v-4.71c0-0.552-0.448-1-1-1v0h-6c-0.552 0-1 0.448-1 1v0 4.73c-5-0.65-8-2.42-8-3.87l-0.43-2.86c1.19 0.788 2.566 1.43 4.034 1.854l0.106 0.026 0.69 0.18 0.34 0.080c0.075 0.020 0.161 0.032 0.25 0.032 0.553 0 1.002-0.448 1.002-1.002 0-0.464-0.316-0.855-0.745-0.968l-0.007-0.002-0.37-0.090-0.59-0.15c-2.91-0.87-4.86-2.18-5.23-3.49l-0.44-3c1.604 1.142 3.487 2.016 5.519 2.507l0.111 0.023c2.316 0.635 4.975 1 7.719 1 0.014 0 0.029 0 0.043-0h-0.002c0.012 0 0.027 0 0.041 0 2.744 0 5.403-0.365 7.931-1.049l-0.212 0.049c2.143-0.535 4.021-1.428 5.667-2.622l-0.047 0.032-0.43 3c-0.35 1.32-2.31 2.64-5.23 3.51-0.492 0.073-0.865 0.493-0.865 1 0 0.558 0.452 1.010 1.010 1.010 0.051 0 0.101-0.004 0.151-0.011l-0.006 0.001c0.044 0.007 0.094 0.011 0.145 0.011s0.101-0.004 0.151-0.011l-0.006 0.001c1.575-0.463 2.951-1.118 4.194-1.954l-0.054 0.034-0.44 3c0 1.34-3 3.090-8 3.73z"></path>
</symbol>
<symbol id="football-10" viewBox="0 0 32 32">
<title>football-10</title>
<path fill="#999" style="fill: var(--color1, #999)" d="M25 32h-18c-0.552 0-1-0.448-1-1v0-17h-5c-0.552 0-1-0.448-1-1v0-10c0-0.001 0-0.002 0-0.003 0-0.438 0.281-0.81 0.673-0.945l0.007-0.002 6-2c0.093-0.032 0.201-0.050 0.312-0.050 0.003 0 0.005 0 0.008 0h4.1c0.006-0 0.013-0 0.020-0 0.482 0 0.884 0.34 0.979 0.794l0.001 0.006c0.195 0.933 0.692 1.727 1.383 2.294l0.007 0.006c0.69 0.543 1.572 0.871 2.53 0.871s1.84-0.328 2.539-0.878l-0.009 0.007c0.69-0.575 1.181-1.369 1.366-2.274l0.004-0.026c0.096-0.46 0.498-0.8 0.98-0.8 0.007 0 0.014 0 0.021 0l-0.001-0h4.080c0.002-0 0.005-0 0.008-0 0.112 0 0.219 0.018 0.319 0.052l-0.007-0.002 6 2c0.399 0.138 0.68 0.51 0.68 0.947 0 0.001 0 0.002 0 0.003v-0 10c0 0.552-0.448 1-1 1v0h-5v17c0 0.552-0.448 1-1 1v0zM8 30h16v-17c0-0.552 0.448-1 1-1v0h5v-8.28l-5.16-1.72h-3.18c-0.383 1.067-1.024 1.962-1.85 2.642l-0.010 0.008c-1.035 0.815-2.357 1.308-3.795 1.308s-2.76-0.492-3.808-1.318l0.013 0.010c-0.84-0.687-1.484-1.582-1.857-2.608l-0.013-0.042h-3.18l-5.16 1.72v8.28h5c0.552 0 1 0.448 1 1v0z"></path>
<path fill="#999" style="fill: var(--color1, #999)" d="M15.22 21.65h1.55c0.006 0 0.012 0 0.019 0 1.828 0 3.31-1.482 3.31-3.31 0-0.914-0.37-1.741-0.969-2.34v0c0.599-0.599 0.969-1.426 0.969-2.34 0-1.828-1.482-3.31-3.31-3.31-0.003 0-0.006 0-0.009 0h-1.56c-0.003 0-0.006 0-0.009 0-1.828 0-3.31 1.482-3.31 3.31 0 0.914 0.37 1.741 0.969 2.34v0c-0.599 0.599-0.969 1.426-0.969 2.34 0 1.828 1.482 3.31 3.31 3.31 0.007 0 0.013-0 0.020-0h-0.001zM15.22 16.99h1.55c0.743 0 1.345 0.602 1.345 1.345s-0.602 1.345-1.345 1.345h-1.55c-0.743 0-1.345-0.602-1.345-1.345s0.602-1.345 1.345-1.345v0zM16.77 14.99h-1.55c-0.743 0-1.345-0.602-1.345-1.345s0.602-1.345 1.345-1.345h1.55c0.743 0 1.345 0.602 1.345 1.345s-0.602 1.345-1.345 1.345v0z"></path>
</symbol>
<symbol id="football-11" viewBox="0 0 32 32">
<title>football-11</title>
<path fill="#999" style="fill: var(--color1, #999)" d="M31 5h-30c-0.552 0-1 0.448-1 1v0 20c0 0.552 0.448 1 1 1v0h30c0.552 0 1-0.448 1-1v0-20c0-0.552-0.448-1-1-1v0zM30 19h-4v-6h4zM14.51 18.6c-0.903-0.528-1.5-1.494-1.5-2.598 0-1.657 1.343-3 3-3s3 1.343 3 3c0 1.105-0.597 2.070-1.486 2.59l-0.014 0.008c-0.43 0.253-0.948 0.402-1.5 0.402s-1.070-0.149-1.514-0.41l0.014 0.008zM2 13h4v6h-4zM2 21h5c0.552 0 1-0.448 1-1v0-8c0-0.552-0.448-1-1-1v0h-5v-4h13v4.13c-0.564 0.106-1.067 0.294-1.524 0.553l0.024-0.013c-1.505 0.881-2.5 2.489-2.5 4.33s0.995 3.449 2.476 4.317l0.024 0.013c0.433 0.246 0.936 0.433 1.469 0.535l0.031 0.005v4.13h-13zM17 25v-4.13c0.564-0.107 1.067-0.294 1.525-0.553l-0.025 0.013c1.505-0.881 2.5-2.489 2.5-4.33s-0.995-3.449-2.476-4.317l-0.024-0.013c-0.433-0.246-0.936-0.434-1.469-0.535l-0.031-0.005v-4.13h13v4h-5c-0.552 0-1 0.448-1 1v0 8c0 0.552 0.448 1 1 1v0h5v4z"></path>
</symbol>
<symbol id="football-12" viewBox="0 0 32 32">
<title>football-12</title>
<path fill="#999" style="fill: var(--color1, #999)" d="M31.93 15.64c-0.047-1.047-0.183-2.035-0.401-2.992l0.021 0.112c-0.2-0.76-0.55-1.84-1.55-2.080-0.365-0.095-0.784-0.15-1.216-0.15-0.005 0-0.010 0-0.015 0h0.001c-0.007-0-0.016-0-0.025-0-0.483 0-0.95 0.073-1.388 0.209l0.033-0.009c-0.156 0.057-0.287 0.15-0.389 0.269l-0.001 0.001c-0.499 0.561-1.201 0.933-1.989 0.999l-0.011 0.001h-0.070c-0.856-0.023-1.635-0.336-2.246-0.845l0.006 0.005c-0.209-1.416-1.314-2.521-2.712-2.728l-0.018-0.002c-0.64-0.070-1.69 0.49-5.3 2.52l-0.26 0.15c-1.26 0.71-2.57 1.45-3.69 2-0.662 0.412-1.426 0.753-2.236 0.984l-0.064 0.016c-2.574 0.318-4.802 0.724-6.986 1.246l0.426-0.086c-1.067 0.287-1.841 1.242-1.85 2.379v0.001c0.002 0.704 0.145 1.374 0.403 1.984l-0.013-0.034c0.071 0.166 0.181 0.304 0.318 0.408l0.002 0.002c0.21 0.15 0.62 0.43 1.2 0.76-0.034 0.092-0.053 0.199-0.053 0.31 0 0.511 0.413 0.926 0.923 0.93h1.22c0.002 0 0.004 0 0.006 0 0.128 0 0.249-0.026 0.36-0.072l-0.006 0.002c0.41 0.16 0.82 0.29 1.22 0.41 0 0 0 0 0 0.070 0 0.514 0.416 0.93 0.93 0.93v0h1.29c0.384-0.002 0.713-0.233 0.858-0.564l0.002-0.006h0.73c0.079 0.44 0.459 0.77 0.916 0.77 0.001 0 0.003 0 0.004 0h1.26c0.425-0.004 0.781-0.292 0.888-0.683l0.002-0.007c2.18 0 4.7 0.060 6.95 0.060 1.080 0 2.46 0 3.84 0 0.142 0.348 0.478 0.589 0.87 0.59h1.26c0.42-0.001 0.774-0.281 0.888-0.663l0.002-0.007h0.8c0.162 0.288 0.465 0.48 0.814 0.48 0.002 0 0.004 0 0.006-0h1.26c0.514 0 0.93-0.416 0.93-0.93v0c0.002-0.024 0.003-0.052 0.003-0.080s-0.001-0.056-0.003-0.084l0 0.004c0.953-0.534 1.651-1.428 1.914-2.493l0.006-0.027c0.002-0.021 0.002-0.045 0.002-0.070s-0.001-0.049-0.003-0.073l0 0.003s0.050-1.91-0.070-3.92zM15.57 12.64c1.48-0.83 3.69-2.080 4.27-2.27 0.397 0.102 0.71 0.389 0.847 0.762l0.003 0.008c-1.453 0.583-3.215 1.127-5.028 1.534l-0.242 0.046 0.13-0.070-0.14-0.24zM16 14.19l2.15 5.37h-1.15l-2-5.15zM13.66 14.63l2 4.94h-1.1l-1.92-4.8zM2.42 17.1c0.34-0.1 4.47-0.93 6.13-1.1 0.866-0.171 1.637-0.466 2.337-0.869l-0.037 0.019h0.15l1.65 4.12c-1.94 0-4 0-5-0.18-2.050-0.397-3.876-1.063-5.551-1.97l0.101 0.050zM28.42 21.1c-1 0.16-4.25 0.26-9 0.26-5.42 0-11.19-0.12-12.11-0.26-2.094-0.41-3.949-1.208-5.57-2.322l0.050 0.032c1.645 0.875 3.553 1.549 5.567 1.921l0.123 0.019c1.49 0.19 4.69 0.19 7.52 0.19h0.35l13.65-0.040c-0.165 0.070-0.36 0.129-0.562 0.167l-0.018 0.003zM30.12 19.34h-10.4l-2.080-5.22c1.623-0.44 2.953-0.894 4.248-1.419l-0.248 0.089c0.896 0.684 2.028 1.099 3.258 1.11l0.003 0h0.1c1.26-0.058 2.383-0.598 3.199-1.439l0.001-0.001c0.188-0.039 0.404-0.061 0.625-0.061s0.437 0.022 0.646 0.064l-0.021-0.004c0.11 0.17 0.48 0.91 0.62 3.49 0.090 1.55 0.060 3.050 0.050 3.36z"></path>
</symbol>
<symbol id="football-13" viewBox="0 0 32 32">
<title>football-13</title>
<path fill="#999" style="fill: var(--color1, #999)" d="M15.18 31.8c-0.001 0-0.003 0-0.004 0-0.368 0-0.69-0.199-0.863-0.495l-0.003-0.005-13.72-23.77c-0.098-0.152-0.156-0.337-0.156-0.536 0-0.552 0.448-1 1-1 0.383 0 0.715 0.215 0.883 0.531l0.003 0.005 13.68 23.77c0.084 0.143 0.134 0.316 0.134 0.5 0 0.552-0.448 1-1 1-0.001 0-0.003 0-0.004 0h0z"></path>
<path fill="#999" style="fill: var(--color1, #999)" d="M13.16 19.62c-0.001 0-0.003 0-0.004 0-0.368 0-0.69-0.199-0.863-0.495l-0.003-0.005-6.5-11.26c-0.084-0.143-0.134-0.316-0.134-0.5s0.050-0.357 0.137-0.505l-0.003 0.005c2.54-4.48 6.21-4.44 9.37-4.41 2.59 0 5.060 0 7.28-2 0.178-0.167 0.419-0.27 0.683-0.27 0.376 0 0.704 0.208 0.874 0.514l0.003 0.005 6.48 11.3c0.085 0.144 0.136 0.318 0.136 0.503 0 0.297-0.129 0.563-0.335 0.746l-0.001 0.001c-2.81 2.52-5.92 2.5-8.62 2.48-3.2 0-5.67 0-7.64 3.44-0.181 0.273-0.488 0.45-0.835 0.45-0.009 0-0.017-0-0.026-0l0.001 0zM7.81 7.37l5.41 9.36c2.46-3.1 5.63-3.070 8.46-3.050 2.33 0 4.58 0 6.65-1.46l-5.5-9.51c-2.53 1.79-5.25 1.76-7.69 1.74-3-0.030-5.41-0.050-7.33 2.92z"></path>
</symbol>
<symbol id="football-14" viewBox="0 0 32 32">
<title>football-14</title>
<path fill="#999" style="fill: var(--color1, #999)" d="M3 0c-0.552 0-1 0.448-1 1v0 30c0 0.552 0.448 1 1 1s1-0.448 1-1v0-30c0-0.552-0.448-1-1-1v0z"></path>
<path fill="#999" style="fill: var(--color1, #999)" d="M29 4h-22c-0.552 0-1 0.448-1 1s0.448 1 1 1v0h5v6h-5c-0.552 0-1 0.448-1 1s0.448 1 1 1v0h5v6h-5c-0.552 0-1 0.448-1 1s0.448 1 1 1v0h22c0.552 0 1-0.448 1-1v0-16c0-0.552-0.448-1-1-1v0zM28 12h-6v-6h6zM14 6h6v6h-6zM14 14h6v6h-6zM22 20v-6h6v6z"></path>
</symbol>
<symbol id="football-15" viewBox="0 0 32 32">
<title>football-15</title>
<path fill="#999" style="fill: var(--color1, #999)" d="M9 32c-4.971 0-9-4.029-9-9s4.029-9 9-9v0h22c0.551 0.002 0.997 0.449 0.997 1 0 0.164-0.040 0.319-0.11 0.456l0.003-0.006-4 8c-0.168 0.328-0.503 0.549-0.89 0.55h-9.060c-0.52 4.522-4.326 8-8.944 8-0.020 0-0.039-0-0.059-0h0.003zM9 16c-3.866 0-7 3.134-7 7s3.134 7 7 7c3.866 0 7-3.134 7-7v0c0-0.552 0.448-1 1-1v0h9.38l3-6z"></path>
<path fill="#999" style="fill: var(--color1, #999)" d="M15 8c-0.552 0-1-0.448-1-1v0-6c0-0.552 0.448-1 1-1s1 0.448 1 1v0 6c0 0.552-0.448 1-1 1v0z"></path>
<path fill="#999" style="fill: var(--color1, #999)" d="M22.070 10.93c-0.002 0-0.004 0-0.006 0-0.552 0-1-0.448-1-1 0-0.278 0.113-0.529 0.296-0.71l0-0 4.25-4.22c0.183-0.264 0.484-0.435 0.825-0.435 0.552 0 1 0.448 1 1 0 0.341-0.171 0.643-0.432 0.823l-0.003 0.002-4.24 4.24c-0.176 0.18-0.419 0.293-0.689 0.3l-0.001 0z"></path>
<path fill="#999" style="fill: var(--color1, #999)" d="M7.93 10.93c-0.002 0-0.004 0-0.006 0-0.275 0-0.524-0.111-0.704-0.29l0 0-4.22-4.25c-0.109-0.158-0.175-0.354-0.175-0.565 0-0.552 0.448-1 1-1 0.211 0 0.407 0.065 0.568 0.177l-0.003-0.002 4.25 4.22c0.183 0.181 0.296 0.432 0.296 0.71 0 0.552-0.448 1-1 1-0.002 0-0.004 0-0.006-0h0z"></path>
</symbol>
<symbol id="football-16" viewBox="0 0 32 32">
<title>football-16</title>
<path fill="#999" style="fill: var(--color1, #999)" d="M25.27 31.27c-0.001 0-0.003 0-0.004 0-0.166 0-0.323-0.041-0.462-0.113l0.006 0.003-8.81-4.64-8.8 4.63c-0.137 0.075-0.301 0.12-0.474 0.12-0.552 0-1-0.448-1-1 0-0.060 0.005-0.119 0.015-0.176l-0.001 0.006 1.68-9.81-7.12-6.94c-0.189-0.182-0.306-0.438-0.306-0.72 0-0.502 0.369-0.917 0.851-0.989l0.005-0.001 9.84-1.43 4.4-8.92c0.166-0.334 0.506-0.56 0.898-0.56 0.004 0 0.008 0 0.013 0h-0.001c0.001 0 0.001 0 0.002 0 0.392 0 0.732 0.226 0.895 0.554l0.003 0.006 4.4 8.92 9.85 1.43c0.487 0.073 0.856 0.488 0.856 0.99 0 0.283-0.117 0.538-0.306 0.72l-0 0-7.12 6.94 1.68 9.81c0.009 0.051 0.015 0.11 0.015 0.17 0 0.552-0.448 1-1 1-0.005 0-0.010-0-0.015-0h0.001zM16 24.39c0.001 0 0.003 0 0.004 0 0.166 0 0.323 0.041 0.462 0.113l-0.006-0.003 7.48 3.93-1.43-8.33c-0.009-0.051-0.015-0.111-0.015-0.171 0-0.282 0.117-0.537 0.305-0.719l0-0 6-5.9-8.36-1.21c-0.332-0.051-0.606-0.259-0.747-0.544l-0.003-0.006-3.69-7.55-3.74 7.58c-0.144 0.291-0.418 0.499-0.744 0.549l-0.006 0.001-8.36 1.2 6 5.9c0.188 0.182 0.305 0.437 0.305 0.719 0 0.061-0.005 0.12-0.016 0.177l0.001-0.006-1.38 8.32 7.48-3.93c0.133-0.073 0.291-0.117 0.459-0.12h0.001z"></path>
</symbol>
<symbol id="football-17" viewBox="0 0 32 32">
<title>football-17</title>
<path fill="#999" style="fill: var(--color1, #999)" d="M5 32c-0.552 0-1-0.448-1-1v0-30c0-0.552 0.448-1 1-1s1 0.448 1 1v0 30c0 0.552-0.448 1-1 1v0z"></path>
<path fill="#999" style="fill: var(--color1, #999)" d="M11 24c-0.552 0-1-0.448-1-1v0-20c0.001-0.552 0.448-0.998 1-0.998 0.18 0 0.349 0.048 0.495 0.131l-0.005-0.003 18 10c0.31 0.174 0.516 0.5 0.516 0.875s-0.206 0.701-0.511 0.872l-0.005 0.003-18 10c-0.137 0.076-0.301 0.12-0.475 0.12-0.005 0-0.010-0-0.016-0h0.001zM12 4.7v16.6l14.94-8.3z"></path>
</symbol>
<symbol id="football-18" viewBox="0 0 32 32">
<title>football-18</title>
<path fill="#999" style="fill: var(--color1, #999)" d="M7 8h-6c-0.552 0-1-0.448-1-1v0-6c0-0.552 0.448-1 1-1v0h6c0.552 0 1 0.448 1 1v0 6c0 0.552-0.448 1-1 1v0zM2 6h4v-4h-4z"></path>
<path fill="#999" style="fill: var(--color1, #999)" d="M7 20h-6c-0.552 0-1-0.448-1-1v0-6c0-0.552 0.448-1 1-1v0h6c0.552 0 1 0.448 1 1v0 6c0 0.552-0.448 1-1 1v0zM2 18h4v-4h-4z"></path>
<path fill="#999" style="fill: var(--color1, #999)" d="M7 32h-6c-0.552 0-1-0.448-1-1v0-6c0-0.552 0.448-1 1-1v0h6c0.552 0 1 0.448 1 1v0 6c0 0.552-0.448 1-1 1v0zM2 30h4v-4h-4z"></path>
<path fill="#999" style="fill: var(--color1, #999)" d="M31 8h-18c-0.552 0-1-0.448-1-1v0-6c0-0.552 0.448-1 1-1v0h18c0.552 0 1 0.448 1 1v0 6c0 0.552-0.448 1-1 1v0zM14 6h16v-4h-16z"></path>
<path fill="#999" style="fill: var(--color1, #999)" d="M31 20h-18c-0.552 0-1-0.448-1-1v0-6c0-0.552 0.448-1 1-1v0h18c0.552 0 1 0.448 1 1v0 6c0 0.552-0.448 1-1 1v0zM14 18h16v-4h-16z"></path>
<path fill="#999" style="fill: var(--color1, #999)" d="M31 32h-18c-0.552 0-1-0.448-1-1v0-6c0-0.552 0.448-1 1-1v0h18c0.552 0 1 0.448 1 1v0 6c0 0.552-0.448 1-1 1v0zM14 30h16v-4h-16z"></path>
</symbol>
<symbol id="football-19" viewBox="0 0 32 32">
<title>football-19</title>
<path fill="#999" style="fill: var(--color1, #999)" d="M7 24c-0.552 0-1-0.448-1-1v0-5h-3c-1.657 0-3-1.343-3-3v0-12c0-1.657 1.343-3 3-3v0h18c1.657 0 3 1.343 3 3v0 12c0 1.657-1.343 3-3 3v0h-7.58l-5.71 5.71c-0.181 0.179-0.429 0.29-0.704 0.29-0.002 0-0.004 0-0.006-0h0zM3 2c-0.552 0-1 0.448-1 1v0 12c0 0.552 0.448 1 1 1v0h4c0.552 0 1 0.448 1 1v0 3.59l4.29-4.29c0.181-0.184 0.432-0.299 0.71-0.3h8c0.552 0 1-0.448 1-1v0-12c0-0.552-0.448-1-1-1v0z"></path>
<path fill="#999" style="fill: var(--color1, #999)" d="M25 32c-0.002 0-0.004 0-0.006 0-0.275 0-0.524-0.111-0.704-0.29l0 0-5.7-5.71h-5.59c-0.552 0-1-0.448-1-1s0.448-1 1-1v0h6c0.002 0 0.004-0 0.006-0 0.275 0 0.524 0.111 0.704 0.29l-0-0 4.29 4.3v-3.59c0-0.552 0.448-1 1-1v0h4c0.552 0 1-0.448 1-1v0-12c0-0.552-0.448-1-1-1v0h-2c-0.552 0-1-0.448-1-1s0.448-1 1-1v0h2c1.657 0 3 1.343 3 3v0 12c0 1.657-1.343 3-3 3v0h-3v5c0 0.552-0.448 1-1 1v0z"></path>
</symbol>
<symbol id="football-20" viewBox="0 0 32 32">
<title>football-20</title>
<path fill="#999" style="fill: var(--color1, #999)" d="M9 18c-0.001 0-0.002 0-0.003 0-0.552 0-1-0.448-1-1 0-0.115 0.019-0.225 0.055-0.327l-0.002 0.007 2-6c0.052-0.153 0.134-0.283 0.24-0.39l10-10c0.181-0.18 0.43-0.291 0.705-0.291s0.524 0.111 0.705 0.291l4 4c0.18 0.181 0.291 0.43 0.291 0.705s-0.111 0.524-0.291 0.705l-10 10c-0.107 0.106-0.237 0.188-0.383 0.238l-0.007 0.002-6 2c-0.092 0.035-0.198 0.056-0.308 0.060l-0.002 0zM11.88 11.54l-1.29 3.88 3.88-1.29 9.12-9.13-2.59-2.59z"></path>
<path fill="#999" style="fill: var(--color1, #999)" d="M31 32h-30c-0.552 0-1-0.448-1-1v0-18c0-0.552 0.448-1 1-1v0h4c0.552 0 1 0.448 1 1s-0.448 1-1 1v0h-3v16h28v-16h-7c-0.552 0-1-0.448-1-1s0.448-1 1-1v0h8c0.552 0 1 0.448 1 1v0 18c0 0.552-0.448 1-1 1v0z"></path>
<path fill="#999" style="fill: var(--color1, #999)" d="M25 24h-18c-0.552 0-1-0.448-1-1s0.448-1 1-1v0h18c0.552 0 1 0.448 1 1s-0.448 1-1 1v0z"></path>
</symbol>
</defs>
</svg>
