<svg xmlns="http://www.w3.org/2000/svg" xmlns:xlink="http://www.w3.org/1999/xlink"><symbol id="angle-up" viewBox="0 0 320 512"><path fill="currentColor" d="M177 159.7l136 136c9.4 9.4 9.4 24.6 0 33.9l-22.6 22.6c-9.4 9.4-24.6 9.4-33.9 0L160 255.9l-96.4 96.4c-9.4 9.4-24.6 9.4-33.9 0L7 329.7c-9.4-9.4-9.4-24.6 0-33.9l136-136c9.4-9.5 24.6-9.5 34-.1z"/></symbol><symbol id="arrow-left"><path d="M0 4.5L4.5.603v7.794L0 4.5z" fill="#FCF900"/><path fill="#FCF900" d="M4 4h15v1H4z"/></symbol><symbol id="arrow-left1"><path d="M3 3.5L0 0v7l3-3.5z" fill="#BEBEBE"/></symbol><symbol id="arrow-right"><path d="M19 4.5l-4.5 3.897V.603L19 4.5z" fill="#FCF900"/><path fill="#FCF900" d="M15 5H0V4h15z"/></symbol><symbol id="close"><path fill-rule="evenodd" clip-rule="evenodd" d="M9.59 8.884L.708 0 0 .707l8.884 8.884L.09 18.384l.707.707 8.793-8.793 8.793 8.793.707-.707-8.793-8.793L19.18.707 18.474 0 9.591 8.884z" fill="#CCC"/></symbol><symbol id="date"><path d="M1.323 13h12.648c.27 0 .48-.211.48-.48V1.793c0-.27-.21-.48-.48-.48h-2.38v-.41c0-.27-.21-.481-.48-.481s-.481.21-.481.48v.41H4.746v-.41c0-.27-.211-.48-.48-.48-.27 0-.481.21-.481.48v.41H1.323c-.27 0-.48.212-.48.481V12.53a.48.48 0 00.48.469zm.48-10.725h1.982v.258c0 .27.21.48.48.48s.481-.21.481-.48v-.258h5.884v.258c0 .27.211.48.48.48.27 0 .481-.21.481-.48v-.258h1.91v1.242H1.805V2.275zm0 2.203H13.49v7.572H1.804V4.478z" fill="#5A5A5A"/><path d="M11.11 6.682H4.196c-.27 0-.48.211-.48.48 0 .27.21.481.48.481h6.915c.27 0 .481-.21.481-.48s-.21-.48-.48-.48zM7.653 9.003H4.195c-.27 0-.48.21-.48.48s.21.481.48.481h3.458c.27 0 .48-.21.48-.48s-.21-.481-.48-.481z" fill="#5A5A5A"/></symbol><symbol id="face"><path d="M2.358 4.407v2.51H.52v3.069h1.838v9.12h3.778v-9.12H8.67s.237-1.472.352-3.081H6.15V4.806c0-.313.412-.735.819-.735h2.058V.876H6.23c-3.964 0-3.87 3.072-3.87 3.53z" fill="#00254C"/></symbol><symbol id="in"><path d="M13.469 0H.57A.58.58 0 000 .569v12.819c0 .35.263.612.57.612h12.855a.58.58 0 00.57-.569V.57C14.04.263 13.775 0 13.47 0zM4.168 11.944H2.062V5.25h2.106v6.694zM3.115 4.33a1.225 1.225 0 110-2.45 1.225 1.225 0 110 2.45zm8.862 7.613H9.915V8.706c0-.787 0-1.75-1.097-1.75S7.59 7.787 7.59 8.662v3.325H5.528V5.25h1.93v.919h.044c.263-.525.965-1.094 1.974-1.094 2.106 0 2.501 1.4 2.501 3.194v3.675z" fill="#00254C"/></symbol><symbol id="location"><path d="M24.5 21.233a5.723 5.723 0 005.717-5.716A5.724 5.724 0 0024.5 9.8a5.724 5.724 0 00-5.717 5.717 5.723 5.723 0 005.717 5.716zm0-9.8a4.088 4.088 0 014.083 4.084A4.088 4.088 0 0124.5 19.6a4.088 4.088 0 01-4.083-4.083 4.088 4.088 0 014.083-4.084z" fill="#fff" fill-opacity=".1"/><path d="M24.355 44.718l12.529-18.095c4.699-6.264 4.02-16.562-1.455-22.035A15.556 15.556 0 0024.355 0a15.56 15.56 0 00-11.074 4.587c-5.474 5.473-6.153 15.77-1.473 22.011l12.547 18.12zM14.436 5.742a13.938 13.938 0 019.92-4.109c3.746 0 7.268 1.46 9.919 4.109 4.94 4.94 5.549 14.24 1.284 19.926l-11.204 16.18-11.222-16.205c-4.246-5.66-3.637-14.961 1.303-19.901z" fill="#fff" fill-opacity=".1"/><path d="M34.395 35.122a.817.817 0 00-.191 1.622c8.588 1.011 13.163 3.736 13.163 5.314 0 2.217-8.7 5.309-22.867 5.309-14.168 0-22.867-3.092-22.867-5.309 0-1.578 4.574-4.303 13.163-5.314a.817.817 0 00-.192-1.622C6.006 36.135 0 38.987 0 42.058 0 45.508 8.416 49 24.5 49S49 45.508 49 42.058c0-3.071-6.006-5.923-14.605-6.936z" fill="#fff" fill-opacity=".1"/></symbol><symbol id="mail"><path d="M13.735 3.706c.106-.073.265-.004.265.111v4.836c0 .627-.588 1.135-1.313 1.135H1.313C.588 9.788 0 9.28 0 8.653V3.82c0-.118.156-.185.265-.111.613.411 1.425.934 4.214 2.686.577.364 1.55 1.13 2.521 1.125.976.007 1.969-.775 2.524-1.125 2.789-1.752 3.598-2.277 4.21-2.689zM7 6.761c.634.01 1.548-.69 2.007-.979 3.629-2.277 3.905-2.475 4.741-3.043A.542.542 0 0014 2.292v-.449c0-.627-.588-1.135-1.313-1.135H1.313C.588.708 0 1.216 0 1.843v.45c0 .174.093.337.252.446.836.565 1.112.766 4.741 3.043.46.289 1.373.989 2.007.98z" fill="#777"/></symbol><symbol id="menu-btn"><path fill-rule="evenodd" clip-rule="evenodd" d="M0 0h25v2H0V0zm0 6h25v2H0V6zm25 6H0v2h25v-2z" fill="#FCF900"/></symbol><symbol id="next"><path d="M6.667 0l-.944.884 3.724 3.491H0v1.25h9.447l-3.724 3.49.944.885L12 5 6.667 0z" fill="#D0A32C"/></symbol><symbol id="pdf"><path d="M3.375 9.701h-.667v.996h.667c.268 0 .48-.236.48-.484 0-.28-.212-.512-.48-.512zM6.061 9.722h-.663v1.79h.663c1.08 0 1.127-1.79 0-1.79z" fill="#34608C"/><path d="M11.5 7.5H.5c-.275 0-.5.225-.5.5v5c0 .275.225.5.5.5h11c.275 0 .5-.225.5-.5V8c0-.275-.225-.5-.5-.5zm-8.125 3.697h-.667v.528c0 .175-.113.275-.257.275a.27.27 0 01-.271-.276v-2.25c0-.133.104-.277.271-.277h.924c.52 0 .988.348.988 1.016 0 .632-.468.984-.988.984zM6.098 12h-.952c-.132 0-.276-.072-.276-.248v-2.27c0-.144.144-.248.276-.248h.915c1.827 0 1.787 2.766.037 2.766zM9.66 9.753H8.496v.636h1.02c.144 0 .287.144.287.284 0 .132-.143.239-.288.239H8.496v.84c0 .14-.1.247-.24.247-.175 0-.284-.107-.284-.248v-2.27c0-.144.109-.248.285-.248H9.66c.176 0 .28.104.28.248a.275.275 0 01-.28.272z" fill="#34608C"/><path d="M13.5 3.793L10.207.5A1.87 1.87 0 009 0H3.5C2.673 0 2 .673 2 1.5v5a.5.5 0 101 0v-5a.5.5 0 01.5-.5H8a1 1 0 011 1v1.875C9 4.494 9.507 5 10.125 5H12a1 1 0 011 1v8.5a.5.5 0 01-.5.5h-9a.5.5 0 01-.5-.5.5.5 0 10-1 0c0 .827.673 1.5 1.5 1.5h9c.827 0 1.5-.673 1.5-1.5V5c0-.41-.21-.918-.5-1.207z" fill="#34608C"/></symbol><symbol id="phone"><path d="M.857 1.381L3.986.757c.34-.068.689.085.827.361l1.445 2.914c.126.255.042.555-.208.729L4.227 6.05c1.083 1.996 2.975 3.656 5.331 4.611l1.493-1.577a.797.797 0 01.842-.18l3.37 1.25c.322.122.5.424.421.718l-.722 2.706c-.075.28-.364.484-.704.484-7.705 0-13.96-5.4-13.96-12.073 0-.292.23-.544.559-.609z" fill="#FCF900"/></symbol><symbol id="play"><path opacity=".3" d="M35 0l30.31 17.5v35L35 70 4.69 52.5v-35L35 0z" fill="#fff"/><path d="M49.559 34.203l-21.16-13.068a.911.911 0 00-1.272.326.946.946 0 00-.127.47v26.137a.946.946 0 00.47.812.911.911 0 00.928-.015l21.16-13.068A.927.927 0 0050 35a.944.944 0 00-.441-.797z" fill="#fff"/></symbol><symbol id="search"><path d="M9 2C5.146 2 2 5.146 2 9s3.146 7 7 7a6.959 6.959 0 004.574-1.719l.426.426V16l6 6 2-2-6-6h-1.293l-.426-.426A6.959 6.959 0 0016 9c0-3.854-3.146-7-7-7zm0 2c2.773 0 5 2.227 5 5s-2.227 5-5 5-5-2.227-5-5 2.227-5 5-5z"/></symbol><symbol id="skype"><path d="M18.964 11.958A9.163 9.163 0 008.051 1.045 4.959 4.959 0 005 0 5.004 5.004 0 000 5.001a4.96 4.96 0 001.04 3.045A9.164 9.164 0 0011.953 18.96 4.98 4.98 0 0015 20 5.004 5.004 0 0020 14.999a4.927 4.927 0 00-1.036-3.041zm-8.69 4.086c-2.929 0-5.38-1.304-5.38-2.903 0-.714.402-1.366 1.317-1.366 1.393 0 1.523 2.005 3.934 2.005 1.148 0 1.889-.51 1.889-1.175 0-.835-.715-.964-1.876-1.25-2.79-.687-5.26-.982-5.26-3.894 0-2.643 2.617-3.62 4.872-3.62 2.46 0 4.947.977 4.947 2.473 0 .755-.508 1.42-1.352 1.42-1.264 0-1.304-1.496-3.35-1.496-1.147 0-1.875.313-1.875 1.005 0 .884.929.973 3.086 1.473 1.848.416 4.05 1.197 4.05 3.465 0 2.64-2.55 3.863-5.001 3.863z" fill="#303030"/></symbol><symbol id="time"><path fill-rule="evenodd" clip-rule="evenodd" d="M9 18A9 9 0 119 0a9 9 0 010 18zM9 .99a8.01 8.01 0 100 16.02A8.01 8.01 0 009 .99zM8 10h6V9H9V4H8v6z" fill="#BDBDBD"/></symbol><symbol id="triangle-down"><path d="M5 5L0 0h10L5 5z" fill="#FCF900"/></symbol><symbol id="twitter"><path d="M14.253 1.424c-.525.248-1.05.433-1.634.495.584-.37 1.05-.99 1.284-1.67-.584.371-1.167.619-1.809.742a2.755 2.755 0 00-2.1-.99c-1.575 0-2.859 1.361-2.859 3.032 0 .247 0 .495.059.68-2.45-.123-4.551-1.36-5.951-3.217a2.92 2.92 0 00-.409 1.547 3.16 3.16 0 001.284 2.536c-.467 0-.934-.123-1.284-.37v.061c0 1.485.992 2.722 2.276 2.97-.234.061-.467.123-.759.123-.175 0-.35 0-.525-.062.35 1.238 1.4 2.104 2.684 2.104-.992.804-2.217 1.299-3.559 1.299-.233 0-.467 0-.7-.062a7.832 7.832 0 004.376 1.361c5.309 0 8.167-4.64 8.167-8.66V2.97c.584-.433 1.05-.99 1.459-1.547z" fill="#34608C"/></symbol><symbol id="twitter2"><path d="M17.944 4.048c.013.178.013.356.013.533 0 5.419-4.124 11.663-11.663 11.663-2.322 0-4.48-.673-6.294-1.84.33.038.647.05.99.05 1.916 0 3.68-.647 5.089-1.75A4.106 4.106 0 012.246 9.86c.254.038.508.064.774.064.368 0 .736-.05 1.079-.14A4.1 4.1 0 01.812 5.761v-.05c.546.304 1.18.495 1.853.52A4.096 4.096 0 01.838 2.817c0-.761.203-1.46.558-2.068a11.651 11.651 0 008.452 4.29 4.627 4.627 0 01-.102-.94A4.097 4.097 0 0113.846 0c1.18 0 2.245.495 2.994 1.294a8.07 8.07 0 002.602-.99 4.088 4.088 0 01-1.802 2.26A8.217 8.217 0 0020 1.928a8.812 8.812 0 01-2.056 2.12z" fill="#303030"/></symbol><symbol id="youtube"><path fill-rule="evenodd" clip-rule="evenodd" d="M15.142.258a2.519 2.519 0 012.518 2.52v6.756a2.519 2.519 0 01-2.518 2.52H3.327a2.519 2.519 0 01-2.518-2.52V2.778A2.519 2.519 0 013.327.258h11.815zM7.55 2.66v6.346l4.812-3.173L7.55 2.66z" fill="#00254C"/></symbol></svg>