<?xml version="1.0" encoding="utf-8"?><!DOCTYPE svg PUBLIC "-//W3C//DTD SVG 1.1//EN" "http://www.w3.org/Graphics/SVG/1.1/DTD/svg11.dtd"><svg xmlns="http://www.w3.org/2000/svg" xmlns:xlink="http://www.w3.org/1999/xlink"><symbol viewBox="0 0 20 20" id="News" xmlns="http://www.w3.org/2000/svg"><path d="M17.845 0H2.155A2.157 2.157 0 000 2.155v15.69C0 19.033.967 20 2.155 20h15.69A2.157 2.157 0 0020 17.845V2.155A2.157 2.157 0 0017.845 0zM2.155 1.172h15.69c.542 0 .983.44.983.983v2.866H1.172V2.155c0-.542.44-.983.983-.983zm15.69 17.656H2.155a.984.984 0 01-.983-.983V6.193h17.656v11.652a.984.984 0 01-.983.983z"/><path d="M3.096 11.841h2.51a.586.586 0 00.587-.586v-2.51a.586.586 0 00-.586-.586h-2.51a.586.586 0 00-.587.586v2.51c0 .324.263.586.586.586zm.586-2.51h1.339v1.338H3.682V9.331zm13.222 1.339H8.117a.586.586 0 000 1.171h8.787a.586.586 0 000-1.172zm0 5.02H3.096a.586.586 0 000 1.172h13.808a.586.586 0 000-1.172zm0-7.531H8.117a.586.586 0 100 1.172h8.787a.586.586 0 000-1.172z"/></symbol><symbol viewBox="0 0 16 16" id="Phone" xmlns="http://www.w3.org/2000/svg"><path d="M16 6.667h-1.333a5.34 5.34 0 00-5.334-5.334V0A6.674 6.674 0 0116 6.667z"/><path d="M13.333 6.667H12A2.667 2.667 0 009.333 4V2.667a4.004 4.004 0 014 4zm-2.985 2.98l-1.556 1.534-3.973-3.973 1.534-1.556a.667.667 0 00.137-.73L4.893 1.195A.667.667 0 004.11.814l-2.933.775a.667.667 0 00-.5.666 14.097 14.097 0 003.99 9.078 14.097 14.097 0 009.08 3.989.667.667 0 00.667-.5l.775-2.933a.667.667 0 00-.382-.783l-3.726-1.597a.667.667 0 00-.733.138z"/></symbol><symbol viewBox="0 0 37 32" id="Tracking" xmlns="http://www.w3.org/2000/svg"><path d="M10.791.64a.96.96 0 01.904.625l9.844 26.422 4.455-11.595a.96.96 0 01.896-.616h4.471a.96.96 0 010 1.92H27.55l-5.128 13.348a.961.961 0 01-1.796-.009L10.81 4.386 6.335 16.763a.96.96 0 01-.903.634H.961a.96.96 0 010-1.92h3.797L9.894 1.274a.96.96 0 01.898-.634z"/><path d="M36.16 16a3.2 3.2 0 11-6.4 0 3.2 3.2 0 016.4 0z"/></symbol><symbol viewBox="0 0 32 32" id="chart" xmlns="http://www.w3.org/2000/svg"><path d="M31.798 6.869a1.6 1.6 0 010 2.263L19.131 21.799a1.6 1.6 0 01-2.262 0l-5.535-5.535-8.869 8.869A1.6 1.6 0 11.202 22.87l10-10a1.6 1.6 0 012.262 0l5.535 5.535L29.534 6.87a1.6 1.6 0 012.263 0z"/><path d="M21.067 8a1.6 1.6 0 011.6-1.6h8a1.6 1.6 0 011.6 1.6v8a1.6 1.6 0 11-3.2 0V9.6h-6.4a1.6 1.6 0 01-1.6-1.6z"/></symbol><symbol viewBox="0 0 16 17" id="down" xmlns="http://www.w3.org/2000/svg"><g clip-path="url(#eclip0)"><path d="M1.3 9.609l1.4-1.4 4.3 4.3V.309h2v12.2l4.3-4.3 1.4 1.4-6.7 6.7-6.7-6.7z"/></g><defs><clipPath id="eclip0"><path d="M0 .309h16v16H0v-16z"/></clipPath></defs></symbol><symbol viewBox="0 0 21 32" id="face" xmlns="http://www.w3.org/2000/svg"><path d="M5.898 32V17.474H0v-5.898h5.788V7.972c0-5.352 3.386-7.973 8.191-7.973 2.293 0 4.259.218 4.915.218v5.679h-3.386c-2.621 0-3.167 1.201-3.167 3.058v2.621h7.645l-2.949 5.788h-4.696v14.526H5.897v.109z"/></symbol><symbol viewBox="0 0 32 32" id="faq" xmlns="http://www.w3.org/2000/svg"><path d="M1.92 30.08V16C1.92 8.224 8.224 1.92 16 1.92S30.08 8.224 30.08 16 23.776 30.08 16 30.08H1.92zM16 0C7.163 0 0 7.163 0 16v16h16c8.836 0 16-7.164 16-16S24.836 0 16 0z"/><path d="M17.086 19.44h-2.327c-.006-.38-.009-.612-.009-.695 0-.857.125-1.563.374-2.116s.748-1.175 1.497-1.867c.748-.691 1.196-1.144 1.341-1.359.225-.339.338-.712.338-1.12 0-.567-.201-1.051-.602-1.452-.395-.408-.931-.612-1.606-.612-.651 0-1.195.211-1.633.633s-.739 1.065-.903 1.929l-2.354-.332c.067-1.238.529-2.289 1.387-3.153C13.453 8.432 14.584 8 15.984 8c1.472 0 2.643.439 3.513 1.317.87.871 1.305 1.888 1.305 3.049 0 .643-.161 1.251-.484 1.825-.316.574-.998 1.355-2.044 2.344-.542.512-.879.923-1.013 1.234-.128.311-.186.868-.173 1.67zm-2.327 3.92v-2.914h2.564v2.914h-2.564z"/></symbol><symbol viewBox="0 0 512 512" id="link" xmlns="http://www.w3.org/2000/svg"><path d="M256 0C115.041 0 0 115.049 0 256c0 140.958 115.049 256 256 256 140.958 0 256-115.049 256-256C512 115.041 396.951 0 256 0zm-76.362 43.289c-14.631 18.602-25.864 40.779-34.271 62.906-15.649-4.188-30.303-9.279-43.634-15.191C123.98 70.19 150.42 53.81 179.638 43.289zm-99.376 70.786c16.706 8.178 35.478 15.1 55.72 20.612-9.21 32.565-14.609 68.722-15.746 106.313H30.51c3.154-47.889 21.287-91.746 49.752-126.925zM30.51 271h89.726c1.137 37.591 6.536 73.748 15.746 106.313-20.242 5.512-39.015 12.434-55.72 20.612C51.797 362.746 33.664 318.889 30.51 271zm71.223 149.995c13.331-5.912 27.985-11.002 43.634-15.191 8.405 22.123 19.638 44.301 34.271 62.906-29.218-10.521-55.657-26.901-77.905-47.715zM241 479.454c-31.316-10.526-53.597-49.048-66.032-80.275 21.003-3.85 43.235-6.21 66.032-6.932v87.207zm0-117.22c-26.142.787-51.697 3.614-75.785 8.295-8.704-30.253-13.835-64.123-14.967-99.529H241v91.234zM241 241h-90.752c1.133-35.406 6.264-69.276 14.967-99.529 24.088 4.681 49.643 7.508 75.785 8.295V241zm0-121.247c-22.797-.722-45.029-3.082-66.032-6.932 12.406-31.153 34.71-69.746 66.032-80.275v87.207zM481.49 241h-89.726c-1.137-37.591-6.536-73.748-15.746-106.313 20.242-5.512 39.015-12.434 55.72-20.612 28.466 35.179 46.599 79.036 49.752 126.925zM410.267 91.004c-13.331 5.912-27.985 11.003-43.634 15.191-8.405-22.121-19.637-44.301-34.271-62.906 29.218 10.521 55.657 26.901 77.905 47.715zM271 32.546c31.316 10.527 53.597 49.048 66.032 80.275-21.003 3.85-43.235 6.21-66.032 6.932V32.546zm0 117.22c26.142-.787 51.697-3.614 75.785-8.295 8.704 30.253 13.835 64.123 14.967 99.529H271v-91.234zm0 121.134h90.752c-1.133 35.406-6.264 69.376-14.967 99.629-24.088-4.681-49.643-7.508-75.785-8.295V270.9zm0 208.554v-87.207c22.797.722 45.029 3.082 66.032 6.932-12.406 31.153-34.71 69.746-66.032 80.275zm61.362-10.743c14.631-18.603 25.864-40.779 34.271-62.906 15.649 4.188 30.303 9.279 43.634 15.191-22.247 20.814-48.687 37.194-77.905 47.715zm99.376-70.786c-16.706-8.178-35.478-15.1-55.72-20.612 9.21-32.565 14.609-68.822 15.746-106.413h89.726c-3.154 47.889-21.287 91.846-49.752 127.025z"/></symbol><symbol viewBox="0 0 14 12" id="mail" xmlns="http://www.w3.org/2000/svg"><path d="M12.6 0H1.4C.627 0 .007.671.007 1.5L0 10.5c0 .829.626 1.5 1.4 1.5h11.2c.774 0 1.4-.671 1.4-1.5v-9c0-.829-.627-1.5-1.4-1.5zm0 3L7 6.75 1.4 3V1.5L7 5.25l5.6-3.75V3z"/></symbol><symbol viewBox="0 0 16 8" id="next" xmlns="http://www.w3.org/2000/svg"><path d="M16 4.107L12.16.267v2.826H0V5.12h12.16v2.827L16 4.107z"/></symbol><symbol viewBox="0 0 512 512" id="pause" xmlns="http://www.w3.org/2000/svg"><path d="M181.333 0H74.667c-17.643 0-32 14.357-32 32v448c0 17.643 14.357 32 32 32h106.667c17.643 0 32-14.357 32-32V32c-.001-17.643-14.358-32-32.001-32zm256 0H330.667c-17.643 0-32 14.357-32 32v448c0 17.643 14.357 32 32 32h106.667c17.643 0 32-14.357 32-32V32c-.001-17.643-14.358-32-32.001-32z"/></symbol><symbol viewBox="0 0 163.86 163.86" id="play" xmlns="http://www.w3.org/2000/svg"><path d="M34.857 3.613C20.084-4.861 8.107 2.081 8.107 19.106v125.637c0 17.042 11.977 23.975 26.75 15.509L144.67 97.275c14.778-8.477 14.778-22.211 0-30.686L34.857 3.613z"/></symbol><symbol viewBox="0 0 16 16" id="search" xmlns="http://www.w3.org/2000/svg"><path d="M7 14c-3.86 0-7-3.14-7-7s3.14-7 7-7 7 3.14 7 7-3.14 7-7 7zM7 2C4.243 2 2 4.243 2 7s2.243 5 5 5 5-2.243 5-5-2.243-5-5-5zm8.714 12.334L13.379 12c-.4.515-.863.979-1.379 1.38l2.335 2.333a.973.973 0 001.59-.316.976.976 0 00-.211-1.063z"/></symbol><symbol viewBox="0 0 23 19" id="search2" xmlns="http://www.w3.org/2000/svg"><path fill-rule="evenodd" clip-rule="evenodd" d="M18.682 11.974l4.172 4.172-.708.708-4.172-4.172.708-.708zM0 6h8v1H0V6zm0 6h8v1H0v-1zm0 6h16v1H0v-1zM0 0h16v1H0V0z"/><path fill-rule="evenodd" clip-rule="evenodd" d="M15.5 6a3.5 3.5 0 100 7 3.5 3.5 0 000-7zM11 9.5a4.5 4.5 0 119 0 4.5 4.5 0 01-9 0z"/></symbol><symbol viewBox="0 0 39 32" id="twiter" xmlns="http://www.w3.org/2000/svg"><path d="M39.385 3.815c-1.472.615-2.945 1.108-4.662 1.231 1.718-.985 2.945-2.585 3.558-4.431-1.595.985-3.313 1.6-5.153 1.969a7.954 7.954 0 00-5.889-2.585 8.103 8.103 0 00-8.098 8.123c0 .615.123 1.231.245 1.846-6.748-.369-12.637-3.569-16.564-8.492-.736 1.231-1.104 2.585-1.104 4.062 0 2.831 1.472 5.292 3.558 6.769-1.35 0-2.577-.369-3.681-.985v.123c0 3.938 2.822 7.138 6.503 7.877-.736.123-1.35.246-2.086.246-.491 0-.982 0-1.472-.123.982 3.2 4.049 5.538 7.484 5.662-2.699 2.215-6.257 3.446-10.061 3.446-.613 0-1.35 0-1.963-.123 3.558 2.338 7.852 3.569 12.392 3.569 14.846 0 22.944-12.308 22.944-23.015v-.985c1.595-1.231 2.945-2.585 4.049-4.185z"/></symbol><symbol viewBox="0 0 16 16" id="user" xmlns="http://www.w3.org/2000/svg"><g clip-path="url(#pclip0)"><path d="M8 8a4 4 0 100-8 4 4 0 000 8zm8 5.2a1.989 1.989 0 00-1.163-1.818A16.655 16.655 0 008 10a16.655 16.655 0 00-6.837 1.382A1.99 1.99 0 000 13.2V16h16v-2.8z"/></g><defs><clipPath id="pclip0"><path d="M0 0h16v16H0z"/></clipPath></defs></symbol></svg>