<svg width="37" height="37" viewBox="0 0 37 37" fill="none" xmlns="http://www.w3.org/2000/svg">
<circle cx="18.5" cy="18.5" r="18.5" fill="#F2F2F2"/>
<path d="M18.9476 22.5263C17.7897 22.5263 16.8423 23.4737 16.8423 24.6316V28.8947C16.8423 30.0526 17.7897 31 18.9476 31C20.1054 31 21.0528 30.0526 21.0528 28.8947V24.6316C21.0528 23.4737 20.1055 22.5263 18.9476 22.5263Z" fill="#757575"/>
<path d="M26.5791 9.63158H22.5264C22.0528 8.10526 20.6317 7 18.9475 7C17.2632 7 15.8422 8.10526 15.3685 9.63158H11.3685C10.7896 9.63158 10.3159 10.1053 10.3159 10.6842C10.3159 11.2632 10.7896 11.7368 11.3685 11.7368H15.4212C15.6843 12.6316 16.2633 13.3684 17.0528 13.8421C14.2107 14.6842 12.1054 17.3158 12.1054 20.4211V25.9474C12.1054 26.8947 12.8949 27.6842 13.8422 27.6842H15.2633V24.6842C15.2633 22.6315 16.9475 20.9474 19.0001 20.9474C21.0528 20.9474 22.737 22.6316 22.737 24.6842V27.6842H24.158C25.1054 27.6842 25.8949 26.8947 25.8949 25.9474V20.4737C25.8949 17.3684 23.7896 14.6842 20.9475 13.8947C21.7369 13.4211 22.3159 12.6842 22.579 11.7895H26.6317C27.2106 11.7895 27.6843 11.3158 27.6843 10.7368C27.6317 10.1053 27.158 9.63158 26.5791 9.63158ZM18.9475 12.8421C17.7896 12.8421 16.8422 11.8947 16.8422 10.7368C16.8422 9.57895 17.7896 8.63158 18.9475 8.63158C20.1054 8.63158 21.0528 9.57895 21.0528 10.7368C21.1054 11.8947 20.158 12.8421 18.9475 12.8421Z" fill="#757575"/>
</svg>
