<svg width="150" height="28" viewBox="0 0 150 28" fill="none" xmlns="http://www.w3.org/2000/svg">
<path fill-rule="evenodd" clip-rule="evenodd" d="M78.3143 19.4526V8.34863H88.0857C88.9398 8.34863 89.6121 8.5273 90.038 8.88552C90.4048 9.18374 90.6498 9.78063 90.6498 10.498V13.0051C90.6498 13.722 90.4048 14.3184 90.038 14.6166C89.6121 14.9753 88.9398 15.1535 88.0857 15.1535H80.9398V19.4526H78.3143ZM86.8639 10.2589H80.9398V13.2429H86.8639C87.3516 13.2429 87.6575 13.1846 87.8416 13.0051C87.9639 12.8855 88.0857 12.6464 88.0857 12.3482V11.154C88.0857 10.8553 87.9639 10.6162 87.8416 10.498C87.6575 10.3189 87.3516 10.2589 86.8639 10.2589Z" fill="#828282"/>
<path fill-rule="evenodd" clip-rule="evenodd" d="M92.8647 19.4526V8.34863H102.575C103.492 8.34863 104.162 8.5273 104.588 8.88552C104.956 9.18374 105.201 9.78063 105.201 10.498V13.1242C105.201 13.8997 104.956 14.4384 104.588 14.7366C104.162 15.0944 103.492 15.2735 102.575 15.2735H101.109L106.362 19.4526H102.575L97.9952 15.2735H95.4893V19.4526H92.8647ZM101.415 10.2589H95.4893V13.3633H101.415C101.902 13.3633 102.209 13.3029 102.391 13.1846C102.513 13.0646 102.637 12.8255 102.637 12.4682V11.154C102.637 10.8553 102.513 10.6162 102.391 10.498C102.209 10.3189 101.902 10.2589 101.415 10.2589Z" fill="#828282"/>
<path fill-rule="evenodd" clip-rule="evenodd" d="M108.316 19.4526V8.34863H119.978V10.2589H111.002V12.7064H116.253V14.6166H111.002V17.3629H120.1V19.4526H108.316Z" fill="#828282"/>
<path fill-rule="evenodd" clip-rule="evenodd" d="M132.507 10.3189H125.058V12.7064H132.142C133.24 12.7064 134.034 12.8855 134.401 13.2433C134.826 13.6024 135.011 14.3184 135.011 15.3335V16.8264C135.011 17.8397 134.826 18.5562 134.401 18.9153C134.034 19.2735 133.24 19.4526 132.142 19.4526H125.121C124.02 19.4526 123.29 19.2735 122.86 18.9153C122.495 18.5562 122.311 17.8397 122.311 16.8264V16.5269L124.633 16.05V17.3629H132.631V14.8557H125.547C124.449 14.8557 123.717 14.6766 123.35 14.2589C122.921 13.8997 122.737 13.2433 122.737 12.2286V10.9753C122.737 9.96063 122.921 9.30374 123.35 8.94552C123.717 8.5273 124.449 8.34863 125.547 8.34863H132.019C133.118 8.34863 133.851 8.5273 134.218 8.88552C134.643 9.24374 134.826 9.90063 134.826 10.7953V11.0353L132.507 11.5717V10.3189Z" fill="#828282"/>
<path fill-rule="evenodd" clip-rule="evenodd" d="M147.556 10.3189H140.109V12.7064H147.192C148.291 12.7064 149.024 12.8855 149.449 13.2433C149.817 13.6024 150 14.3184 150 15.3335V16.8264C150 17.8397 149.817 18.5562 149.449 18.9153C149.024 19.2735 148.291 19.4526 147.192 19.4526H140.17C139.071 19.4526 138.279 19.2735 137.91 18.9153C137.481 18.5562 137.301 17.8397 137.301 16.8264V16.5269L139.623 16.05V17.3629H147.679V14.8557H140.597C139.499 14.8557 138.764 14.6766 138.339 14.2589C137.972 13.8997 137.788 13.2433 137.788 12.2286V10.9753C137.788 9.96063 137.972 9.30374 138.339 8.94552C138.764 8.5273 139.499 8.34863 140.597 8.34863H147.069C148.108 8.34863 148.839 8.5273 149.267 8.88552C149.694 9.24374 149.879 9.90063 149.879 10.7953V11.0353L147.556 11.5717V10.3189Z" fill="#828282"/>
<path fill-rule="evenodd" clip-rule="evenodd" d="M61.1093 19.4526L66.4825 13.7811L60.9871 8.34863H64.5289L68.133 12.1091L71.6116 8.34863H74.603L69.6584 13.4824L75.8253 19.4526H72.2225L68.0721 15.1535L64.2234 19.4526H61.1093Z" fill="#828282"/>
<path fill-rule="evenodd" clip-rule="evenodd" d="M6.59501 19.4526L0 8.34863H3.05319L7.63274 16.4077L12.0287 8.34863H14.6541L8.42638 19.4526H6.59501Z" fill="#828282"/>
<path fill-rule="evenodd" clip-rule="evenodd" d="M16.726 19.4526V8.34863H18.4964L26.4946 14.9153C26.8005 15.1535 27.046 15.3331 27.2283 15.5126C27.4728 15.6913 27.6555 15.93 27.8392 16.11C27.7778 15.5126 27.716 15.0344 27.716 14.7966V14.1984V8.34863H30.0983V19.4526H28.2673L19.9005 12.5873C19.7187 12.4082 19.5346 12.2886 19.4123 12.1091C19.2287 11.99 19.1091 11.8709 18.9864 11.6917C19.0473 12.0495 19.0473 12.3482 19.0473 12.7064C19.1091 13.0051 19.1091 13.2429 19.1091 13.4824V19.4526H16.726Z" fill="#828282"/>
<path fill-rule="evenodd" clip-rule="evenodd" d="M58.2162 26.6667C58.2162 27.4031 57.6057 28 56.8526 28H34.1252C33.3721 28 32.7616 27.4031 32.7616 26.6667V1.33333C32.7616 0.596889 33.3721 0 34.1252 0H56.8526C57.6057 0 58.2162 0.596889 58.2162 1.33333V26.6667Z" fill="#9F224E"/>
<path fill-rule="evenodd" clip-rule="evenodd" d="M40.9434 10.7133V11.1577V11.9999H42.532H47.3071V15.9999H42.532H40.9434V16.9355V17.3799V18.2688V19.6022V20.8888H42.532H54.5798V24.4444H41.9843H36.3979V3.5555H41.9843H54.5798V7.11106H42.532H40.9434V8.49106V9.82439V10.7133ZM42.307 8.44439H54.7116C55.4643 8.44439 55.9434 7.89372 55.9434 7.15772V3.60217C55.9434 2.86617 55.4643 2.22217 54.7116 2.22217H41.9843H36.5298C35.7766 2.22217 35.0343 2.86617 35.0343 3.60217V24.4911C35.0343 25.2271 35.7766 25.7777 36.5298 25.7777H41.9843H54.7116C55.4643 25.7777 55.9434 25.2271 55.9434 24.4911V20.9355C55.9434 20.1995 55.4643 19.5555 54.7116 19.5555H42.307V18.2688V17.3333H47.4389C48.1916 17.3333 48.6707 16.7826 48.6707 16.0466V12.0466C48.6707 11.3106 48.1916 10.6666 47.4389 10.6666H42.307V9.82439V8.44439Z" fill="white"/>
</svg>
