<svg width="44" height="16" viewBox="0 0 44 16" fill="none" xmlns="http://www.w3.org/2000/svg">
<g clip-path="url(#clip0)">
<path d="M11.5381 6.59686C11.4661 6.26103 11.3702 5.94918 11.2502 5.61335C10.9384 4.62984 10.5786 3.67032 10.1468 2.85473C10.0029 2.56687 9.85894 2.303 9.69102 2.06312C9.42715 1.65533 9.16328 1.29551 8.87543 1.00765C8.15579 0.264023 7.48412 -0.0238329 6.81246 0.000155139C6.54859 0.000155139 6.28472 0.0721192 6.02086 0.168071C4.98937 0.575867 3.9339 1.63134 2.78247 2.78276C1.727 3.86222 0.767482 4.79776 0.287721 5.75728C0.143793 6.06912 0.0478412 6.35698 -0.000134776 6.66882C-0.0720988 7.38846 0.191769 8.1081 0.983374 8.87572C1.39117 9.28351 1.96688 9.66732 2.63855 10.0511C2.90241 10.1951 3.19027 10.339 3.47813 10.4589C4.7255 11.0107 6.16478 11.4664 7.50811 11.7543C7.79597 11.8023 8.10781 11.8742 8.37168 11.8982C9.83495 12.0901 11.0343 12.0181 11.5141 11.5384C12.2098 10.8907 12.0898 8.80375 11.5381 6.59686Z" fill="white"/>
<path d="M7.07645 5.15772C6.81258 3.1907 6.42877 1.29565 6.02098 0.168213C4.98949 0.576009 3.93402 1.63148 2.78259 2.78291C1.72712 3.86237 0.767602 4.7979 0.287842 5.75742C1.70313 5.32563 4.58169 5.13373 7.07645 5.15772Z" fill="#DA2032"/>
<path d="M9.71505 2.03914C9.45118 1.63134 9.18731 1.27152 8.89946 0.983665C8.15583 0.264025 7.48416 -0.0238315 6.8125 0.000156471C7.24428 0.911701 7.67607 2.66283 7.98791 4.55788C8.70755 3.64633 9.35523 2.7108 9.71505 2.03914Z" fill="#DA2032"/>
<path d="M11.2742 5.61336C10.9624 4.62985 10.6026 3.67033 10.1708 2.85474C9.85895 3.50241 9.28324 4.34199 8.61157 5.22955C9.763 5.27752 10.7465 5.42145 11.2742 5.61336Z" fill="#DA2032"/>
<path d="M6.64454 6.1649C4.14979 6.14091 1.41516 6.28484 -0.000134777 6.66865C-0.0720988 7.38829 0.191769 8.10793 0.983373 8.87554C1.39117 9.28334 1.96688 9.66715 2.63855 10.051C3.47813 9.54721 5.1333 7.91602 6.64454 6.1649Z" fill="#DA2032"/>
<path d="M11.5379 6.59682C10.8662 6.40492 9.64283 6.28498 8.22754 6.21301C8.53938 8.65979 8.65932 11.0106 8.39546 11.8982C9.85872 12.0901 11.0581 12.0181 11.5379 11.5383C12.2095 10.8907 12.0896 8.80372 11.5379 6.59682Z" fill="#DA2032"/>
<path d="M7.29206 6.8606C5.82879 8.56374 4.26957 10.123 3.50195 10.4828C4.74933 11.0345 6.18861 11.4903 7.53194 11.7781C7.6039 10.6507 7.48396 8.80363 7.29206 6.8606Z" fill="#DA2032"/>
<path d="M16.9811 4.82194C16.9571 4.46212 16.8851 4.2942 16.5493 4.22224C16.4773 4.19825 16.3094 4.19825 16.1655 4.19825C16.0455 4.19825 15.9976 4.17426 15.9976 4.1023C15.9976 4.03034 16.0695 4.00635 16.2134 4.00635C16.7412 4.00635 18.6123 4.00635 19.212 4.00635C20.4593 4.00635 21.9226 4.00635 23.026 5.20575C23.5298 5.75747 24.0096 6.62104 24.0096 7.86842C24.0096 9.18776 23.4818 10.1953 22.9061 10.795C22.4503 11.2747 21.6347 12.0183 19.7637 12.0183C19.4039 12.0183 16.4054 12.0183 16.2134 12.0183C16.0935 12.0183 16.0215 11.9704 16.0215 11.8984C16.0215 11.8504 16.0695 11.8024 16.1895 11.8264C16.5013 11.8504 16.9571 11.4186 16.9811 11.1308C17.0051 10.651 17.0051 5.15777 16.9811 4.82194ZM18.5403 10.2912C18.5403 10.5551 18.5643 10.9629 18.6602 11.0828C18.7802 11.2747 18.9241 11.5146 19.7157 11.4906C20.5793 11.4906 22.2344 10.9869 22.2824 8.1083C22.3064 6.78896 21.9226 5.94938 21.4908 5.51759C20.7232 4.72599 20.0995 4.46212 19.3079 4.46212C19.116 4.46212 18.7802 4.48611 18.6842 4.53408C18.5883 4.58206 18.5643 4.63004 18.5643 4.74998C18.5643 5.13378 18.5403 10.0993 18.5403 10.2912Z" fill="black"/>
<path d="M32.957 5.94938C32.5972 5.34968 32.1175 4.86992 31.4698 4.53408C30.8221 4.17426 30.1744 4.00635 29.5268 4.00635H29.5028C29.4788 4.00635 29.4788 4.00635 29.4788 4.00635C28.8071 4.00635 28.1594 4.17426 27.5357 4.53408C26.8881 4.8939 26.4083 5.34968 26.0485 5.94938C25.6887 6.54907 25.5208 7.22074 25.5208 7.96437C25.5208 8.70799 25.7127 9.42764 26.0965 10.0513C26.4803 10.699 26.96 11.1788 27.5837 11.4906C28.1834 11.8264 28.8311 11.9704 29.5268 11.9704C30.2224 11.9704 30.8701 11.8024 31.4698 11.4906C32.0695 11.1548 32.5732 10.675 32.957 10.0513C33.3409 9.40365 33.5328 8.70799 33.5328 7.96437C33.4848 7.22074 33.2929 6.54907 32.957 5.94938ZM31.038 10.8189C30.5582 11.3467 30.1744 11.5146 29.4788 11.5146C28.7591 11.5146 28.3993 11.3467 27.9196 10.8189C27.4398 10.2912 27.1999 9.35567 27.1999 7.98835C27.1999 6.74098 27.4398 5.82944 27.9196 5.25372C28.3993 4.702 28.7591 4.5101 29.4788 4.5101C30.1984 4.53408 30.5822 4.72599 31.038 5.25372C31.5178 5.80545 31.7576 6.71699 31.7576 7.98835C31.7576 9.33168 31.5178 10.2912 31.038 10.8189Z" fill="black"/>
<path d="M37.755 4.00635C37.5631 4.00635 34.9723 4.00635 34.9723 4.00635V11.9944C34.9723 11.9944 34.9724 15.4246 33.5091 15.8324C33.4131 15.8564 33.4371 16.0004 33.5331 16.0004C33.8929 15.9764 34.4206 15.6405 35.1643 14.8489C36.1718 13.8174 36.6035 12.0903 36.6035 10.9869C36.6035 10.4831 36.6035 6.54908 36.6035 4.98986C36.6035 4.34218 37.2752 4.27022 37.5631 4.19825C37.683 4.17426 37.659 4.17426 37.779 4.17426C37.8989 4.15028 37.9709 4.15028 37.9709 4.07831C37.9709 4.00635 37.9229 4.00635 37.755 4.00635Z" fill="black"/>
<path d="M43.5116 11.8264C43.3677 11.8024 43.4156 11.8264 43.2717 11.8024C42.9359 11.7544 42.0723 11.6824 42.0723 11.0108C42.0723 10.531 42.0723 9.90733 42.0723 9.25966C42.0723 8.58799 42.0723 7.65246 42.0723 6.76491C42.0723 6.11723 42.0723 5.49354 42.0723 5.01378C42.0723 4.36611 42.9359 4.29414 43.2717 4.22218C43.4156 4.19819 43.3677 4.19819 43.5116 4.19819C43.6555 4.1742 43.7275 4.1742 43.7275 4.10224C43.7275 4.03027 43.6555 4.03027 43.4876 4.03027C43.2717 4.03027 39.2177 4.03027 39.0018 4.03027C38.8339 4.03027 38.762 4.03027 38.762 4.10224C38.762 4.1742 38.8339 4.19819 38.9779 4.19819C39.1218 4.22218 39.0738 4.19819 39.2177 4.22218C39.5536 4.27015 40.4171 4.34212 40.4171 5.01378C40.4171 5.49354 40.4171 6.11723 40.4171 6.76491C40.4171 7.65246 40.4171 8.58799 40.4171 9.25966C40.4171 9.90733 40.4171 10.531 40.4171 11.0108C40.4171 11.6585 39.5536 11.7304 39.2177 11.8024C39.0738 11.8264 39.1218 11.8264 38.9779 11.8264C38.8339 11.8504 38.762 11.8504 38.762 11.9223C38.762 11.9943 38.8339 12.0183 39.0018 12.0183C39.2177 12.0183 43.2717 12.0183 43.4876 12.0183C43.6555 12.0183 43.7275 12.0183 43.7275 11.9223C43.7275 11.8504 43.6555 11.8264 43.5116 11.8264Z" fill="black"/>
</g>
<defs>
<clipPath id="clip0">
<rect y="0.00012207" width="43.7541" height="16" fill="white"/>
</clipPath>
</defs>
</svg>
