<svg width="50" height="15" viewBox="0 0 50 15" fill="none" xmlns="http://www.w3.org/2000/svg">
<g clip-path="url(#clip0)">
<path d="M16.8137 11.8154C15.6977 9.44839 10.9463 0.742984 10.5453 0H6.75623V14.9123H9.34243V3.09686C10.4584 5.46389 15.2032 14.1759 15.6041 14.9123H19.3999V0H16.8137V11.8154Z" fill="#1CB1D5"/>
<path d="M33.1329 14.9123H36.0933L30.286 0H26.8311L21.0171 14.9123H23.9776L25.4344 10.9475H31.676L33.1329 14.9123ZM26.2898 8.6265L28.5619 2.46565L30.8273 8.6265H26.2898Z" fill="#1CB1D5"/>
<path d="M50 14.9123L44.6071 7.03534L49.325 0H46.1307L42.9898 4.85241L39.7821 0H36.5878L41.3994 7.03534L36.1 14.9123H39.3277L43.0166 9.20511L46.7789 14.9123H50Z" fill="#1CB1D5"/>
<path d="M2.79337 0H0V14.9123H2.79337V0Z" fill="#1CB1D5"/>
</g>
<defs>
<clipPath id="clip0">
<rect width="50" height="14.9123" fill="white"/>
</clipPath>
</defs>
</svg>
