<svg width="28" height="28" viewBox="0 0 28 28" fill="none" xmlns="http://www.w3.org/2000/svg">
<path fill-rule="evenodd" clip-rule="evenodd" d="M23.9004 4.1005C21.2559 1.45627 17.7402 0 14 0C10.2598 0 6.74414 1.45627 4.09961 4.1005C1.45703 6.74475 0 10.2604 0 14C0 17.7395 1.45703 21.2552 4.09961 23.8995C6.74414 26.5437 10.2598 28 14 28C17.7402 28 21.2559 26.5437 23.9004 23.8995C26.543 21.2552 28 17.7395 28 14C28 10.2604 26.543 6.74475 23.9004 4.1005ZM15.75 21C15.75 21.9665 14.9668 22.75 14 22.75C13.0332 22.75 12.25 21.9665 12.25 21V12.25C12.25 11.2835 13.0332 10.5 14 10.5C14.9668 10.5 15.75 11.2835 15.75 12.25V21ZM12.25 7C12.25 7.9665 13.0332 8.75 14 8.75C14.9668 8.75 15.75 7.9665 15.75 7C15.75 6.0335 14.9668 5.25 14 5.25C13.0332 5.25 12.25 6.0335 12.25 7Z" fill="white"/>
</svg>
