<svg width="185" height="80" viewBox="0 0 185 80" fill="none" xmlns="http://www.w3.org/2000/svg">
<g clip-path="url(#clip0)">
<path d="M131.005 31.7117C131.005 30.4366 130.894 29.1615 130.672 27.8864C128.399 15.9113 117.755 7.70618 105.558 8.59322C99.6812 9.03674 94.6362 11.3652 90.5336 15.5787C85.3223 20.9009 83.1047 27.3874 83.9363 34.7609C85.7658 51.3375 103.673 60.8732 118.365 53.0007C119.64 52.3354 120.804 51.5038 122.134 50.5613C122.079 52.6126 122.301 54.4976 122.079 56.3825C121.192 63.8669 115.537 69.1338 107.997 69.5773C107.554 69.6327 107.387 69.7436 107.387 70.2425C107.387 72.7928 107.387 75.3985 107.387 77.9487C107.387 78.3922 107.498 78.5586 107.997 78.5031C111.656 78.3922 115.149 77.6161 118.309 75.842C126.403 71.2959 130.839 64.4213 131.06 55.1074C131.116 47.2904 130.949 39.4733 131.005 31.7117ZM106.999 46.8469C99.1268 46.736 92.5849 40.1386 92.6404 32.0444C92.6404 23.8392 99.1823 17.3527 107.332 17.3527C115.537 17.3527 122.079 23.8947 122.079 32.1552C122.024 40.3049 115.315 47.0132 106.999 46.8469Z" fill="#91278F"/>
<path d="M67.0825 50.9494C66.7498 50.9494 66.6389 51.1157 66.4726 51.2266C57.325 57.9349 44.5738 57.2696 36.2578 49.5634C31.2127 44.9064 28.6625 39.0298 28.6625 32.1552C28.607 24.6154 28.6625 17.0755 28.6625 9.53569C28.6625 8.98129 28.7734 8.81497 29.3278 8.81497C31.878 8.87041 34.3728 8.87041 36.9231 8.81497C37.4775 8.81497 37.5883 8.98129 37.5883 9.53569C37.5883 17.0755 37.5883 24.6154 37.5883 32.1552C37.5883 39.806 43.465 46.1816 51.1157 46.8468C58.711 47.5121 65.5856 42.1899 66.9161 34.5946C67.0825 33.763 67.1379 32.9314 67.1379 32.0998C67.1379 24.5599 67.1379 17.0755 67.1379 9.53569C67.1379 8.92585 67.3042 8.81497 67.8586 8.81497C70.3534 8.87041 72.8482 8.81497 75.3985 8.81497C75.8974 8.81497 76.0637 8.87041 76.0637 9.48025C76.0637 24.7263 76.0637 39.9723 76.0637 55.1629C76.0637 55.6618 75.9529 55.8281 75.4539 55.8281C72.9037 55.8281 70.298 55.8281 67.7477 55.8281C67.2488 55.8281 67.1379 55.6618 67.1379 55.2183C67.0825 53.8323 67.0825 52.3909 67.0825 50.9494Z" fill="#91278F"/>
<path d="M161.053 8.316C147.969 8.09424 137.048 18.517 136.937 31.9335C136.881 45.1836 147.471 55.7727 160.61 55.7727C173.139 55.8836 184.006 45.9044 184.283 32.5987C184.615 18.9605 173.805 8.53776 161.053 8.316ZM160.887 49.8406C151.351 49.8406 143.423 42.0236 143.423 32.377C143.423 22.7859 151.351 14.9134 160.942 14.9134C170.534 14.9134 178.351 22.7304 178.351 32.377C178.351 42.0236 170.534 49.8406 160.887 49.8406Z" fill="#91278F"/>
<path d="M8.92585 26.334C8.98129 28.4962 8.75953 31.1573 9.03673 33.763C9.86833 40.9148 15.8004 46.4588 23.0076 46.9023C23.6175 46.9577 23.7283 47.124 23.7283 47.6784C23.6729 50.0624 23.7283 52.4463 23.7283 54.8857C23.7283 55.8281 23.7283 55.8281 22.8413 55.7727C18.0735 55.6064 13.6937 54.1649 9.81289 51.3375C4.158 47.1795 0.997921 41.58 0.16632 34.7055C0.0554401 33.8184 0 32.9314 0 32.0998C0 21.6771 0 11.1989 0 0.776161C0 0.16632 0.16632 0 0.776161 0C3.27096 0.0554401 5.76577 0.0554401 8.20513 0C8.75953 0 8.92585 0.11088 8.92585 0.720721C8.87041 3.27096 8.92585 5.76577 8.92585 8.31601C8.92585 8.87041 9.03673 9.09217 9.64657 9.03673C14.0818 9.03673 18.5724 9.03673 23.0076 9.03673C23.562 9.03673 23.7283 9.14761 23.7283 9.75745C23.6729 12.3077 23.6729 14.8579 23.7283 17.4082C23.7283 17.9626 23.562 18.1289 23.0076 18.1289C18.5724 18.1289 14.0818 18.1289 9.64657 18.1289C9.03673 18.1289 8.92585 18.2952 8.92585 18.8496C8.92585 21.1227 8.92585 23.5066 8.92585 26.334Z" fill="#91278F"/>
<path d="M44.7956 71.2959C47.2904 69.2446 49.2862 69.3001 50.8385 71.5177C51.7256 70.1871 53.0007 69.6882 54.553 69.799C55.939 69.9099 56.8261 70.6861 57.1033 72.0721C57.325 73.1254 57.2141 74.2342 57.2141 75.343C57.2141 76.6182 57.2141 77.8933 57.2141 79.113C57.2141 79.6119 56.9924 79.6674 56.6043 79.7228C56.1053 79.7228 55.9945 79.5565 55.9945 79.113C55.9945 77.1726 55.9945 75.2322 55.9945 73.2363C55.9945 71.684 55.5509 71.0187 54.4421 70.8524C53.1116 70.6306 51.781 71.2959 51.2821 72.5156C51.0049 73.1809 50.9494 73.9016 50.9494 74.6223C50.9494 76.1192 50.9494 77.6161 50.9494 79.1684C50.9494 79.6674 50.7831 79.7782 50.3396 79.7782C49.8961 79.7782 49.7297 79.6674 49.7297 79.1684C49.7297 77.228 49.7297 75.2876 49.7297 73.2918C49.7297 71.7394 49.2862 71.0742 48.1774 70.8524C46.7914 70.6306 45.4608 71.2959 44.9619 72.5156C44.7401 73.1809 44.6292 73.8462 44.6292 74.5114C44.6292 76.0638 44.6292 77.5606 44.6292 79.113C44.6292 79.6674 44.4075 79.6674 43.964 79.6674C43.5759 79.6674 43.3541 79.6119 43.3541 79.113C43.3541 76.2301 43.3541 73.4026 43.3541 70.5198C43.3541 70.0208 43.5204 69.9654 43.964 69.9654C44.3521 69.9654 44.6847 69.9654 44.6292 70.5198C44.7401 70.8524 44.6847 71.0742 44.7956 71.2959Z" fill="#58595B"/>
<path d="M35.8697 72.9591C35.3153 71.1296 33.8739 70.0208 31.878 69.8545C29.7713 69.7436 28.1081 70.6306 27.2765 72.3493C26.833 73.3472 26.7221 74.4006 26.7775 75.4539C26.9439 78.614 29.5496 80.5544 32.6542 79.8337C34.8164 79.3347 36.1469 77.4498 36.1469 74.8441C36.1469 74.2342 36.0915 73.569 35.8697 72.9591ZM34.4837 76.9508C33.9293 78.2814 32.8205 79.0021 31.3791 79.0021C29.9931 79.0021 28.8843 78.2259 28.3853 76.8954C27.9418 75.5648 27.9418 74.2343 28.4407 72.9591C28.9951 71.5731 30.104 70.9078 31.6008 70.9633C33.0423 71.0187 34.0402 71.7394 34.5392 73.1254C34.7609 73.7353 34.8164 74.4006 34.8164 75.0104C34.8718 75.6202 34.7609 76.2855 34.4837 76.9508Z" fill="#58595B"/>
<path d="M92.474 71.3514C92.8621 71.0742 93.0839 70.8524 93.3611 70.6306C94.8579 69.5218 97.131 69.6327 98.3507 70.797C98.9605 71.3514 99.2377 72.0721 99.2377 72.8482C99.2377 75.0104 99.2377 77.1726 99.2377 79.2793C99.2377 79.7782 99.0159 79.7782 98.6833 79.7782C98.3507 79.7782 98.018 79.8337 98.018 79.2793C98.018 77.4498 98.018 75.6202 98.018 73.8462C98.018 71.7949 97.3527 70.9633 95.6341 70.9078C93.86 70.8524 92.5295 72.0166 92.474 73.8462C92.4186 75.6202 92.4186 77.3389 92.474 79.113C92.474 79.5565 92.4186 79.8337 91.8642 79.8337C91.3098 79.8337 91.2543 79.6119 91.2543 79.1684C91.2543 76.4518 91.2543 73.7353 91.2543 70.9633C91.2543 70.5752 91.1435 70.1317 91.8642 70.1317C92.5295 70.1317 92.5295 70.4643 92.474 70.9078C92.4186 70.9633 92.474 71.0742 92.474 71.3514Z" fill="#58595B"/>
<path d="M15.3569 80C12.8621 80 11.3652 78.7249 10.8662 76.341C10.3673 73.957 11.1989 71.6286 12.9175 70.5752C14.5253 69.5773 16.2439 69.6327 17.9071 70.5197C18.6833 70.9078 19.1268 71.6286 19.3486 72.4047C19.404 72.6265 19.6812 72.9591 19.3486 73.1809C19.0159 73.4026 18.3506 73.1809 18.1843 72.7928C17.7962 71.8503 17.0755 71.185 16.0776 70.9633C14.6362 70.6306 13.2502 71.2405 12.5849 72.571C11.8087 74.1233 11.7533 75.7866 12.5294 77.3389C13.1393 78.614 14.3035 79.113 15.6895 79.0021C17.0201 78.8912 17.9071 78.1705 18.2952 76.8954C18.4061 76.5073 19.2377 76.2301 19.5149 76.4518C19.7366 76.6182 19.5703 76.8399 19.5149 77.0062C19.0714 78.9466 17.5745 80 15.3569 80Z" fill="#58595B"/>
<path d="M79.5565 78.3368C80.6098 75.6757 81.6077 73.1809 82.6057 70.6861C82.7166 70.4643 82.7166 70.1317 83.0492 70.1317C83.3818 70.1317 83.7699 69.9654 83.9362 70.1871C84.158 70.4089 83.8254 70.6861 83.7145 70.9633C82.6057 73.6798 81.4969 76.3964 80.4435 79.113C80.2772 79.6119 80 79.7783 79.501 79.7783C78.9466 79.7783 78.7249 79.5565 78.5585 79.0575C77.5052 76.341 76.3964 73.6244 75.343 70.9078C75.2321 70.6861 74.8995 70.3534 75.2321 70.1317C75.6202 69.8545 76.3409 70.1871 76.5073 70.5752C77.228 72.4047 77.9487 74.1788 78.6694 76.0083C78.9466 76.7291 79.2238 77.4498 79.5565 78.3368Z" fill="#58595B"/>
<path d="M2.43937 78.9466C2.55025 79.501 2.43937 79.7782 1.71865 79.8337C0.997925 79.8337 0.997925 79.501 0.997925 78.9466C0.997925 78.3922 1.05336 78.0596 1.77409 78.0596C2.43937 78.0596 2.49481 78.3922 2.43937 78.9466Z" fill="#5F6062"/>
<path d="M67.3042 79.0021C67.4705 79.6119 67.1379 79.7228 66.5281 79.7782C65.641 79.8337 65.9182 79.2793 65.8073 78.7803C65.6965 78.115 66.0291 78.0596 66.5835 78.0042C67.4705 78.0042 67.3597 78.4477 67.3042 79.0021Z" fill="#606163"/>
<path d="M151.573 29.9376C150.409 29.9931 149.245 30.0485 148.08 30.1039C148.025 30.1039 147.97 30.1039 147.859 30.1039C147.249 30.1039 145.752 28.1635 145.974 27.5537C147.637 22.7304 150.852 19.4594 155.565 17.6299C156.008 17.4636 156.119 17.5745 156.286 17.9626C157.505 21.6216 158.669 25.2807 159.889 28.9397C160 29.3278 160 29.4941 159.557 29.4941C156.84 29.605 154.179 29.7713 151.573 29.9376Z" fill="#91278F"/>
<path d="M153.403 34.8718C155.343 34.9272 157.283 35.0381 159.168 35.0381C159.667 35.0381 159.778 35.149 159.612 35.648C158.337 39.307 157.117 42.966 155.897 46.6805C155.787 47.0686 155.62 47.1795 155.232 47.0132C150.52 45.0728 147.415 41.6909 145.807 36.8676C145.696 36.535 145.807 36.2578 145.974 35.9806C146.639 34.8718 147.526 34.5392 148.857 34.65C150.353 34.8164 151.85 34.7055 153.347 34.7055C153.403 34.7609 153.403 34.8164 153.403 34.8718Z" fill="#FEF100"/>
<path d="M160.665 48.0111C160.887 47.623 161.109 47.3458 161.275 47.0686C162.772 44.7956 164.269 42.5225 165.766 40.2495C165.988 39.9168 166.209 39.7505 166.597 39.7505C167.374 39.8059 168.205 39.7505 168.981 39.7505C169.314 39.7505 169.425 39.6396 169.48 39.307C169.591 38.4754 169.702 37.6992 169.924 36.8676C170.035 36.4241 169.813 36.3132 169.48 36.2578C169.203 36.2023 168.87 36.1469 168.593 36.0915C168.76 35.4816 169.092 35.2599 169.647 35.2599C171.642 35.2599 173.638 35.2599 175.634 35.149C176.189 35.149 176.244 35.3153 176.133 35.8143C174.692 42.3562 168.815 47.4567 162.107 47.9002C161.719 48.0111 161.275 48.122 160.665 48.0111Z" fill="#91278F"/>
<path d="M161.053 16.6874C163.16 16.6874 165.045 17.0755 166.875 17.8517C171.698 19.9584 174.747 23.562 176.133 28.607C176.355 29.3832 176.355 29.3832 175.579 29.3832C173.805 29.3832 172.03 29.3832 170.256 29.3832C169.702 29.3832 168.926 28.8288 168.76 28.2744C168.704 27.9972 168.926 27.9972 169.037 27.9418C169.591 27.8863 169.702 27.4982 169.702 26.9993C169.647 26.2231 169.702 25.3915 169.702 24.6154C169.702 24.2273 169.591 24.1164 169.203 24.1164C168.205 24.1164 167.263 24.1164 166.265 24.1164C166.043 24.1164 165.766 24.1164 165.599 23.8946C164.158 21.5662 162.661 19.1822 161.053 16.6874Z" fill="#FEF100"/>
</g>
<defs>
<clipPath id="clip0">
<rect width="184.338" height="80" fill="white"/>
</clipPath>
</defs>
</svg>
