<svg width="57" height="16" viewBox="0 0 57 16" fill="none" xmlns="http://www.w3.org/2000/svg">
<path d="M0.896861 4.42113C0.524543 4.42554 0.193604 4.56681 0.193604 4.56681C0.193604 4.56681 0.721925 8.55544 0.914041 9.68516C1.10616 10.8149 1.82658 11.5296 3.00329 11.5296C4.18 11.5296 4.99652 10.1002 4.99652 10.1002L7.87827 4.6129C5.90908 3.9904 5.35674 5.46594 5.35674 5.46594L3.5797 8.76293C3.5797 8.76293 3.29147 9.56985 3.00329 9.54679C2.71512 9.52374 2.64307 8.99349 2.64307 8.99349C2.64307 8.99349 2.1868 5.78878 2.04271 5.21239C1.89862 4.63599 1.49043 4.47455 1.05817 4.42844C1.00413 4.42267 0.95005 4.4205 0.896861 4.42113ZM34.1261 4.42844C34.1261 4.42844 32.4091 4.40543 32.0969 5.98474C31.7847 7.56406 31.4005 9.78885 31.4005 9.78885C31.4005 9.78885 31.0162 11.4028 32.8653 11.4604C32.8653 11.4604 34.4022 11.6103 34.6784 9.91572C34.6784 9.91572 33.1055 10.3192 33.2856 9.31623L33.6578 7.2989C33.6578 7.2989 35.1107 7.44879 35.3749 5.78878H33.898L34.1261 4.42844ZM38.0996 4.42844C38.0996 4.42844 36.3825 4.40543 36.0703 5.98474C35.7581 7.56406 35.3739 9.78885 35.3739 9.78885C35.3739 9.78885 34.9898 11.4028 36.8389 11.4604C36.8389 11.4604 38.3758 11.6103 38.6519 9.91572C38.6519 9.91572 37.079 10.3192 37.2591 9.31623L37.6313 7.2989C37.6313 7.2989 39.0842 7.44879 39.3483 5.78878H37.8714L38.0996 4.42844ZM22.4993 4.43031C22.4038 4.43102 22.3012 4.43784 22.1909 4.45153L21.2423 9.82344C21.2423 9.82344 20.8341 11.4027 22.6592 11.3682C24.4843 11.3336 24.4963 9.84654 24.4963 9.84654C24.4963 9.84654 22.9954 10.3192 23.1515 9.29323C23.3076 8.26726 23.7519 5.77719 23.7519 5.77719C23.7519 5.77719 23.9312 4.41954 22.4993 4.43031V4.43031ZM19.2048 4.44653C18.7911 4.45114 17.6552 4.5898 17.3039 5.93856L16.6676 9.77735C16.6676 9.77735 16.2593 11.4835 18.1684 11.4373C18.1684 11.4373 19.5974 11.4604 19.8975 9.91572C19.8975 9.91572 18.6728 10.3192 18.4927 9.52379L18.8889 7.2989C18.8889 7.2989 20.4018 7.4949 20.5699 5.78878H19.1531L19.3572 4.45153C19.3572 4.45153 19.3002 4.44547 19.2048 4.44653V4.44653ZM28.3746 5.65041C28.3746 5.65041 25.0006 5.67341 24.5563 8.9819C24.5563 8.9819 24.4242 11.4835 27.366 11.4604C27.366 11.4604 30.632 11.4951 30.9922 8.05976C30.728 5.62739 28.3746 5.65041 28.3746 5.65041ZM13.893 5.67448C13.334 5.68098 12.6671 5.82639 11.9007 6.2268C11.9007 6.2268 10.1236 7.2182 10.3158 9.07418C10.3158 9.07418 10.2437 11.4489 13.0534 11.5411C13.0534 11.5411 15.3227 11.495 15.9231 9.52379C15.3547 10.0425 13.5137 10.492 12.5611 9.55829C11.3004 7.8637 13.0293 6.92997 13.0293 6.92997C14.3621 6.51497 14.5303 7.46027 14.5303 7.46027C14.5063 8.91278 12.7412 8.63615 12.7412 8.63615C12.7412 8.63615 13.4857 9.88111 15.4548 8.88971C15.4548 8.88971 17.0158 8.10583 15.9351 6.42277C15.9351 6.42277 15.2168 5.65907 13.893 5.67448ZM9.29509 6.56114C9.29509 6.56114 7.67416 6.51498 7.34997 7.62165C7.02577 8.72832 6.91769 9.91572 6.91769 9.91572C6.91769 9.91572 6.6518 11.4309 8.43063 11.4834C9.99157 11.5296 10.2437 10.031 10.1957 9.95031C10.1957 9.95031 8.75479 10.2961 8.80282 9.4892C8.85085 8.68225 9.29509 6.56114 9.29509 6.56114ZM27.9903 7.10294C27.9903 7.10294 29.011 7.0683 29.1311 8.27873C28.999 9.92721 27.462 9.97331 27.462 9.97331C26.3454 9.75429 26.3935 8.80903 26.3935 8.80903C26.5255 7.32194 27.9903 7.10294 27.9903 7.10294Z" fill="#050934"/>
<path d="M9.61725 4.43312C9.11281 4.43447 8.4009 4.55513 8.19077 5.18916L8.03467 6.0653C8.03467 6.0653 9.65558 6.27278 9.90773 5.535C10.0478 5.20453 10.0678 4.82792 10.1479 4.4744C10.1479 4.4744 9.91992 4.43231 9.61725 4.43312Z" fill="#FF000E"/>
<path d="M49.2574 1.00041C48.5146 0.994736 47.7835 1.07296 47.25 1.23507C46.3014 1.52326 45.4489 1.96133 45.4489 1.96133C45.4489 1.96133 44.5243 2.50318 45.4008 2.90665C46.2774 3.31013 47.6102 3.96717 47.6102 3.96717C47.6102 3.96717 48.0905 4.26689 49.2552 4.313C50.4199 4.35911 50.9962 4.33609 50.9962 4.33609L51.6446 2.22648C51.6446 2.22648 52.0769 1.40797 50.9242 1.16588C50.4199 1.05997 49.8351 1.00482 49.2574 1.00041ZM52.4817 1.75369C52.2062 1.74771 51.9838 1.89566 52.0408 2.22648L52.7012 4.33609H54.8745C54.8745 4.33609 55.4509 4.16315 55.1387 3.7712C54.8265 3.37925 53.6018 2.20339 53.0495 1.97283C52.8836 1.8339 52.6702 1.75778 52.4817 1.75369ZM55.3378 4.55461C55.0782 4.5495 54.8625 4.75111 54.8625 4.75111L53.2536 5.88081C53.2536 5.88081 53.6138 7.09123 53.7699 7.46012C53.926 7.82901 54.2861 8.29016 54.2861 8.29016L55.8952 9.43136C55.8952 9.43136 56.2193 9.67342 56.4114 9.32758C56.6035 8.98175 56.5436 8.23246 56.5436 7.50621C56.5436 6.77996 56.0873 5.1315 55.7031 4.72802C55.583 4.60194 55.4558 4.55694 55.3378 4.55461ZM48.1839 4.69958C47.9716 4.69985 47.8383 4.73952 47.8383 4.73952L43.2155 4.97008C42.447 4.94703 42.327 5.66175 42.327 5.66175C42.327 5.66175 41.9908 6.45723 41.9428 8.02501C41.8948 9.59279 42.7833 11.3796 43.2395 12.0136C43.6958 12.6476 44.3923 12.175 44.3923 12.175C44.3923 12.175 48.5827 9.01638 49.2311 8.49763C49.8795 7.97887 50.0716 7.18347 50.0716 7.18347L50.5039 5.9154L49.2792 5.06236C48.8605 4.76407 48.4568 4.69923 48.1839 4.69958ZM51.8968 6.79154L50.4799 7.81746C50.4799 7.81746 49.8915 8.41693 49.6274 9.26999C49.3632 10.123 48.2225 13.9272 48.2225 13.9272C48.2225 13.9272 47.7302 15.0339 49.2552 14.9993C50.6116 14.9686 51.8727 14.7111 53.2055 13.9157C54.5383 13.1203 54.8986 12.394 54.8986 12.394C54.8986 12.394 55.1867 12.1981 54.9106 11.4488C54.6344 10.6995 53.8179 8.49763 53.8179 8.49763C53.8179 8.49763 53.5417 8.05955 53.1214 7.73677C52.7012 7.41399 51.8968 6.79154 51.8968 6.79154Z" fill="#FF000E"/>
</svg>
