<svg width="218" height="80" viewBox="0 0 218 80" fill="none" xmlns="http://www.w3.org/2000/svg">
<path d="M117.091 5.05555C98.3977 5.0188 83.2567 5.07014 64.6165 5.07014C62.3695 4.98645 60.5239 5.39118 59.1922 6.46365C57.839 7.55344 57.3328 8.80995 56.7261 9.88373C56.7158 9.90176 56.7058 9.91993 56.696 9.93819L48.4574 25.4234C48.2665 25.7386 48.0872 26.0395 47.9099 26.353C47.723 26.0268 47.5121 25.6833 47.3683 25.4273C47.3673 25.4253 47.3653 25.4223 47.3643 25.4205L39.295 10.3126C39.2643 10.2549 39.2312 10.1984 39.1958 10.1434C38.5261 9.10061 38.1978 8.07945 37.1255 6.91292C36.0532 5.74638 34.2082 5.07014 32.1524 5.07014H12.4838C12.4617 5.07017 12.4397 5.07047 12.4176 5.07113C10.7073 5.11793 8.95722 5.7455 7.84522 7.27761C6.88127 8.60572 6.80731 10.4779 7.42901 12.1564C7.47887 12.4282 7.57456 12.6896 7.71199 12.9295L39.014 68.9344C40.924 72.4829 44.1874 74.6892 47.6785 74.6602C51.1431 74.6314 54.4404 72.3756 56.4421 68.5795L76.6272 33.2263V69.2223C76.6272 70.3571 76.9187 71.5425 77.7221 72.5344C78.5256 73.5263 79.8956 74.1633 81.2336 74.1633H104.147C106.585 74.1633 108.675 72.4292 108.675 69.7707V36.1932L126.941 68.1176C128.797 71.5992 131.726 73.7785 134.912 74.1156C138.121 74.4553 141.314 72.8738 143.422 70.0323C143.486 69.9473 143.543 69.8583 143.595 69.7659L175.466 12.5725L175.433 12.6299C176.438 10.9379 176.185 8.75043 175.12 7.34371C174.055 5.93699 172.323 5.12459 170.419 5.12459L150.529 5.05555C150.457 5.05528 150.385 5.05804 150.313 5.06432C148.56 5.21326 146.948 6.07983 146.077 7.14631C145.206 8.2128 144.868 9.11514 144.253 10.0607C144.222 10.1083 144.192 10.157 144.164 10.2066L135.853 25.1638L135.199 26.1761C135.117 25.7269 134.971 25.2973 134.789 24.9119L134.788 24.9099C134.504 24.3089 134.475 24.346 134.212 23.918C133.95 23.49 133.598 22.9216 133.18 22.2532C132.344 20.9163 131.248 19.1802 130.127 17.4124C127.885 13.8768 125.636 10.3555 124.941 9.34886C124.927 9.32755 124.912 9.30648 124.896 9.28564C124.278 8.44863 123.933 7.43089 122.606 6.40332C121.28 5.37574 119.538 5.05551 117.093 5.05551L117.091 5.05555Z" fill="#FEFFFF"/>
<path d="M9.92566 11.6574L41.2464 67.6963C44.4059 73.566 51.0239 73.8096 54.4076 67.2882L86.6149 10.8789C87.7991 8.86832 86.7412 7.40445 85.0003 7.42777H64.7005C60.6983 7.25159 60.2409 8.68955 58.9343 11.0019L50.6863 26.506C50.2366 27.2275 49.0086 29.8171 47.9687 29.8262C47.001 29.755 45.7563 27.3066 45.3221 26.5345L37.2274 11.3802C35.6489 8.92273 35.6322 7.42777 32.2369 7.42777H12.5685C10.2968 7.48995 8.56882 9.10021 9.92566 11.6574Z" fill="#DC0000"/>
<path d="M141.548 68.4966C138.165 73.0554 132.277 72.7917 129.143 66.8243L110.04 33.4385C109.218 31.967 109.167 30.4414 111.452 30.4414C117.267 30.4414 126.234 30.4285 132.052 30.4414C133.662 30.4429 134.202 30.242 135.202 29.6335C135.953 29.1782 136.548 28.544 137.064 27.8339L138.03 26.3379L146.382 11.3096C147.836 9.07518 147.971 7.63705 150.605 7.41322L170.504 7.48268C172.923 7.48268 174.462 9.54727 173.42 11.3031L141.548 68.4966Z" fill="#000095"/>
<path d="M79.1513 32.4954V69.1407C79.1513 70.5445 79.8987 71.6412 81.3176 71.6412H104.232C105.279 71.6412 106.32 70.7458 106.32 69.6891V30.9278C106.32 29.2892 106.873 28.3628 109.258 28.3551L128.992 28.368C130.893 28.368 133.806 28.2841 132.667 25.8713C132.383 25.2701 124.124 12.2555 123.018 10.653C121.476 8.56411 121.649 7.41322 117.177 7.41322C117.177 7.41322 94.1608 7.42612 94.0502 7.44031C91.0413 7.56546 90.959 9.01181 89.4243 11.32L81.5157 24.7837C79.8794 27.7241 79.2529 27.6015 79.1513 32.4954" fill="#009500"/>
<path d="M191.706 4.46297C188.263 4.52068 184.546 5.2577 180.746 6.69698L179.89 7.02172L179.461 7.83104L173.418 19.2526C172.967 20.0891 172.655 20.7328 172.464 21.5043C172.368 21.89 172.272 22.3223 172.395 22.9839C172.518 23.6456 173.14 24.6136 173.941 24.9741C175.543 25.6949 176.209 25.0663 176.805 24.7851C177.402 24.504 177.949 24.1542 178.559 23.7332L178.555 23.737C181.927 21.4218 185.394 21.4024 187.278 22.3875C188.219 22.88 188.786 23.5364 189.061 24.4389C189.328 25.3164 189.313 26.5505 188.599 28.2366L163.72 66.1681L163.775 66.0872C163.146 66.9669 162.685 67.7524 162.416 68.6611C162.147 69.5698 162.129 70.8108 162.771 71.8055C163.412 72.8003 164.388 73.2195 165.168 73.4115C165.948 73.6036 166.673 73.625 167.426 73.603L167.356 73.6043H203.186C203.923 73.6085 204.933 73.5109 205.854 72.7229C206.776 71.9349 207.125 70.6508 207.091 69.6303L207.093 69.7105V56.7563C207.102 55.9555 206.857 54.9049 206.091 54.1451C205.325 53.3853 204.322 53.1577 203.545 53.1469H203.528H191.557L204.421 36.045L204.477 35.9571C211.264 25.1128 211.096 15.4381 205.759 9.72705C202.423 6.15763 197.445 4.36679 191.706 4.46297ZM174.796 20.2881C174.819 20.2819 174.877 20.293 174.908 20.29C174.869 20.3107 174.763 20.3834 174.736 20.3961C174.653 20.4355 174.635 20.331 174.796 20.2881V20.2881Z" fill="white"/>
<path d="M181.606 8.9659L175.554 20.4024C173.943 23.3943 174.977 23.2576 177.181 21.7367C185.163 16.2569 194.592 20.6806 190.769 29.3517L165.748 67.4986C163.603 70.4978 164.854 71.2513 167.356 71.1781H203.199C204.081 71.1832 204.705 70.8632 204.667 69.7108V56.7281C204.676 55.9626 204.284 55.5835 203.511 55.5727H189.595C187.93 55.5884 186.764 55.3944 188.336 53.3926L202.42 34.6697C215.325 14.0506 200.63 1.75997 181.606 8.9659Z" fill="#DC0000"/>
</svg>
