<!-- Generated by IcoMoon.io -->
<svg version="1.1" xmlns="http://www.w3.org/2000/svg" width="32" height="32" viewBox="0 0 32 32">
<title>advertising-1</title>
<path d="M6.626 11.5h6.562v-2.624h-6.562v1.312z"></path>
<path d="M20.124 15.438v3.938h5.252v-6.564h-5.252v1.312z"></path>
<path d="M30 0h-28c-1.2 0-2 0.8-2 2v28c0 1.2 0.8 2 2 2h28c1.2 0 2-0.8 2-2v-28c0-1.2-0.8-2-2-2zM4 20.688v-11.812h2.624v-2.626h6.56v2.624h2.628v13.126h-2.624v-7.876h-6.562v7.876h-2.626v-1.312zM28 28h-24v-2h24v2zM28 7.562v14.438h-10.5v-9.188h2.624v-2.624h5.248v-3.938h2.628v1.312z"></path>
</svg>
