<!-- Generated by IcoMoon.io -->
<svg version="1.1" xmlns="http://www.w3.org/2000/svg" width="32" height="32" viewBox="0 0 32 32">
<title>alarm-delete</title>
<path d="M20 28h-8c0 2.209 1.791 4 4 4s4-1.791 4-4v0z"></path>
<path d="M30.2 25.96c1.017-0.093 1.808-0.943 1.808-1.976 0-1.096-0.888-1.984-1.984-1.984-0.008 0-0.017 0-0.025 0h-0.999c-1.767-1.434-2.911-3.575-3-5.986l-0-0.014v-6c0-0.010 0-0.021 0-0.033 0-5.504-4.462-9.966-9.966-9.966-3.207 0-6.060 1.515-7.883 3.868l-0.017 0.023z"></path>
<path d="M6 10.242v5.758c-0.089 2.425-1.233 4.566-2.985 5.988l-0.015 0.012h-1c-1.105 0-2 0.895-2 2s0.895 2 2 2v0h19.758z"></path>
<path d="M30 31c-0.001 0-0.001 0-0.002 0-0.276 0-0.525-0.112-0.706-0.292l-28-28c-0.181-0.181-0.293-0.431-0.293-0.708 0-0.553 0.448-1.001 1.001-1.001 0.276 0 0.527 0.112 0.708 0.293v0l28 28c0.181 0.181 0.294 0.431 0.294 0.708 0 0.552-0.448 1-1 1-0.001 0-0.001 0-0.002 0h0z"></path>
</svg>
