<!-- Generated by IcoMoon.io -->
<svg version="1.1" xmlns="http://www.w3.org/2000/svg" width="32" height="32" viewBox="0 0 32 32">
<title>chart-bar-33</title>
<path d="M18.667 17.333h-5.333c-0.736 0-1.333 0.597-1.333 1.333v12c0 0.736 0.597 1.333 1.333 1.333h5.333c0.736 0 1.333-0.597 1.333-1.333v-12c0-0.736-0.597-1.333-1.333-1.333z"></path>
<path d="M6.667 22.667h-5.333c-0.736 0-1.333 0.597-1.333 1.333v6.667c0 0.736 0.597 1.333 1.333 1.333h5.333c0.736 0 1.333-0.597 1.333-1.333v-6.667c0-0.736-0.597-1.333-1.333-1.333z"></path>
<path d="M30.667 12h-5.333c-0.736 0-1.333 0.597-1.333 1.333v17.333c0 0.736 0.597 1.333 1.333 1.333h5.333c0.736 0 1.333-0.597 1.333-1.333v-17.333c0-0.736-0.597-1.333-1.333-1.333z"></path>
<path d="M16.943 12.943l8.391-8.391v4.781h2.667v-8c0-0.736-0.597-1.333-1.333-1.333h-8v2.667h4.781l-7.448 7.448-4.391-4.391c-0.521-0.521-1.364-0.521-1.885 0l-6.667 6.667 1.885 1.885 5.724-5.724 4.391 4.391c0.521 0.521 1.364 0.521 1.885 0z"></path>
</svg>
