<!-- Generated by IcoMoon.io -->
<svg version="1.1" xmlns="http://www.w3.org/2000/svg" width="32" height="32" viewBox="0 0 32 32">
<title>l-google</title>
<path d="M32 14.667h-2.667v-2.667h-2.666v2.667h-2.667v2.666h2.667v2.667h2.666v-2.667h2.667z"></path>
<path d="M22.035 14.673l-10.035-0.006v4h5.735c-0.309 1.693-2.005 4.781-6.402 4.781-3.869 0-7.027-3.206-7.027-7.156s3.157-7.156 7.027-7.156c2.202 0 3.675 0.939 4.517 1.749l3.076-2.963c-1.975-1.846-4.533-2.963-7.593-2.963-6.265-0.001-11.333 5.067-11.333 11.333s5.068 11.333 11.333 11.333c7.797 0 11.813-6.472 10.702-12.952z"></path>
</svg>
