<!-- Generated by IcoMoon.io -->
<svg version="1.1" xmlns="http://www.w3.org/2000/svg" width="32" height="32" viewBox="0 0 32 32">
<title>media-5</title>
<path d="M25.262 1.474c-0.174-0.088-0.378-0.139-0.595-0.139-0.302 0-0.58 0.099-0.805 0.267l0.003-0.002-10.31 7.734h-6.222c-0.001 0-0.001 0-0.002 0-0.736 0-1.332 0.596-1.332 1.332 0 0 0 0 0 0v0 10.666c0 0.738 0.596 1.334 1.334 1.334h6.222l10.31 7.734c0.219 0.168 0.497 0.269 0.799 0.269 0.218 0 0.424-0.053 0.605-0.146l-0.007 0.003c0.441-0.224 0.737-0.673 0.738-1.192v-26.668c-0.001-0.519-0.297-0.968-0.73-1.188l-0.008-0.004z"></path>
</svg>
