<!-- Generated by IcoMoon.io -->
<svg version="1.1" xmlns="http://www.w3.org/2000/svg" width="32" height="32" viewBox="0 0 32 32">
<title>media-6</title>
<path d="M14.090 23.566l9.11 6.834c0.219 0.168 0.497 0.269 0.799 0.269 0.218 0 0.424-0.053 0.605-0.146l-0.007 0.003c0.441-0.224 0.738-0.674 0.738-1.193 0-0 0-0 0-0.001v0-17.010l-11.244 11.244z"></path>
<path d="M2.666 22.666h6.666l16-16v-4c-0.001-0.519-0.297-0.969-0.73-1.19l-0.008-0.004c-0.173-0.087-0.377-0.138-0.593-0.138-0.302 0-0.581 0.1-0.805 0.269l0.003-0.002-10.31 7.734h-10.224c-0.001 0-0.001 0-0.002 0-0.736 0-1.332 0.596-1.332 1.332 0 0.001 0 0.001 0 0.002v-0 10.666c0.001 0.736 0.598 1.332 1.334 1.332 0 0 0 0 0 0v0z"></path>
<path d="M1.334 32c-0.001 0-0.001 0-0.002 0-0.736 0-1.332-0.596-1.332-1.332 0-0.369 0.15-0.703 0.392-0.944l29.332-29.334c0.241-0.241 0.575-0.391 0.943-0.391 0.737 0 1.334 0.597 1.334 1.334 0 0.368-0.149 0.702-0.391 0.943v0l-29.334 29.334c-0.241 0.241-0.573 0.39-0.941 0.39-0 0-0.001 0-0.001 0h0z"></path>
</svg>
