<!-- Generated by IcoMoon.io -->
<svg version="1.1" xmlns="http://www.w3.org/2000/svg" width="32" height="32" viewBox="0 0 32 32">
<title>ns-wedding-4</title>
<path d="M0 18.812v1.875h2.296l1.875 3.75h8.654l-1.25 3.75h-2.137v1.875h13.125v-1.875h-2.137l-1.25-3.75h8.654l1.875-3.75h2.295v-1.875h-32z"></path>
<path d="M18.549 5.922c0.165-0.358 0.264-0.752 0.264-1.172 0-1.551-1.262-2.812-2.812-2.812s-2.812 1.262-2.812 2.812c0 0.419 0.099 0.814 0.264 1.172-5.628 1.034-10.093 5.426-11.232 11.016h27.558c-1.139-5.59-5.604-9.982-11.23-11.016v0zM15.062 4.75c0-0.517 0.42-0.938 0.938-0.938 0.517 0 0.938 0.42 0.938 0.938s-0.42 0.938-0.938 0.938c-0.517 0-0.938-0.421-0.938-0.938v0z"></path>
</svg>
