<!-- Generated by IcoMoon.io -->
<svg version="1.1" xmlns="http://www.w3.org/2000/svg" width="32" height="32" viewBox="0 0 32 32">
<title>ns-wedding-6</title>
<path d="M24.605 3.967h-4.26v-2.704c0.011-0.129 0-0.263-0.037-0.395-0.168-0.597-0.788-0.944-1.385-0.776l-11.856 3.902c-0.958 0.158-1.692 0.991-1.692 1.993v23.943c0 1.114 0.906 2.020 2.020 2.020h17.209c1.114 0 2.020-0.906 2.020-2.020v-23.943c0.001-1.114-0.905-2.020-2.019-2.020v0zM19.496 26.389h-6.88c-0.62 0-1.122-0.503-1.122-1.122 0-0.62 0.503-1.122 1.122-1.122h6.88c0.62 0 1.122 0.503 1.122 1.122 0 0.62-0.502 1.122-1.122 1.122v0zM19.496 23.247h-6.88c-0.62 0-1.122-0.502-1.122-1.122s0.503-1.122 1.122-1.122h6.88c0.62 0 1.122 0.502 1.122 1.122s-0.502 1.122-1.122 1.122v0zM20.96 14.346l-4.111 4.11c-0.219 0.219-0.506 0.329-0.794 0.329s-0.574-0.109-0.793-0.329l-4.096-4.096c-0.596-0.558-0.929-1.429-0.914-2.395 0.015-0.94 0.352-1.769 0.927-2.283 0.616-0.601 1.427-0.932 2.289-0.932 0.876 0 1.698 0.341 2.318 0.96l0.269 0.269 0.269-0.269c1.278-1.278 3.357-1.278 4.635 0 1.279 1.279 1.279 3.358 0.001 4.636v0z"></path>
</svg>
