<!-- Generated by IcoMoon.io -->
<svg version="1.1" xmlns="http://www.w3.org/2000/svg" width="32" height="32" viewBox="0 0 32 32">
<title>quote</title>
<path d="M6.047 9.121c-2.37 2.963-2.712 5.949-2.016 8.038 2.632-2.090 6.289-1.652 8.517 0.428 2.25 2.102 2.443 5.796 1.008 8.189-1.208 2.013-3.328 3.225-5.694 3.225-5.385 0-7.861-4.75-7.861-10.079 0-3.46 0.882-6.56 2.646-9.298s4.426-4.947 7.987-6.627l0.957 1.865c-2.15 0.907-3.998 2.326-5.543 4.258zM23.584 9.121c-2.37 2.963-2.712 5.949-2.016 8.038 1.176-0.907 2.453-1.361 3.83-1.361 3.623 0 6.602 2.413 6.602 6.602 0 3.851-2.956 6.602-6.602 6.602-5.385 0-7.861-4.75-7.861-10.079 0-3.46 0.882-6.56 2.646-9.298s4.426-4.947 7.987-6.627l0.957 1.865c-2.15 0.907-3.998 2.327-5.543 4.258z"></path>
</svg>
