<!-- Generated by IcoMoon.io -->
<svg version="1.1" xmlns="http://www.w3.org/2000/svg" width="32" height="32" viewBox="0 0 32 32">
<title>refresh-02</title>
<path d="M16 6c2.358 0 4.622 0.846 6.41 2.34l-4.644 4.644 12.422 1.078-1.078-12.422-3.86 3.86c-2.544-2.236-5.83-3.5-9.25-3.5-6.866 0-12.672 4.908-13.806 11.668l3.946 0.662c0.808-4.826 4.956-8.33 9.86-8.33z"></path>
<path d="M16 26c-2.358 0-4.622-0.846-6.41-2.34l4.644-4.644-12.422-1.078 1.078 12.422 3.86-3.86c2.544 2.236 5.83 3.5 9.25 3.5 6.866 0 12.672-4.908 13.806-11.668l-3.946-0.662c-0.808 4.826-4.956 8.33-9.86 8.33z"></path>
</svg>
