<!-- Generated by IcoMoon.io -->
<svg version="1.1" xmlns="http://www.w3.org/2000/svg" width="32" height="32" viewBox="0 0 32 32">
<title>stopwatch</title>
<path d="M25.4 0.6c-0.8-0.8-2-0.8-2.8 0s-0.8 2 0 2.8l1.6 1.6-1.8 1.8c-2.4-1.8-5.2-2.8-8.4-2.8-7.8 0-14 6.2-14 14s6.2 14 14 14 14-6.2 14-14c0-3.2-1-6-2.8-8.4l1.8-1.8 1.6 1.6c0.4 0.4 0.8 0.6 1.4 0.6s1-0.2 1.4-0.6c0.8-0.8 0.8-2 0-2.8l-6-6zM14 28c-5.6 0-10-4.4-10-10s4.4-10 10-10 10 4.4 10 10-4.4 10-10 10z"></path>
<path d="M16 12h-4v8h8v-4h-4z"></path>
</svg>
