<!-- Generated by IcoMoon.io -->
<svg version="1.1" xmlns="http://www.w3.org/2000/svg" width="32" height="32" viewBox="0 0 32 32">
<title>weather-1</title>
<path d="M0 15h4v2h-4v-2z"></path>
<path d="M3.975 5.393l1.414-1.414 2.828 2.828-1.414 1.414-2.828-2.828z"></path>
<path d="M15 0h2v4h-2v-4z"></path>
<path d="M23.776 6.806l2.828-2.828 1.414 1.414-2.828 2.828-1.414-1.414z"></path>
<path d="M28 15h4v2h-4v-2z"></path>
<path d="M23.777 25.193l1.414-1.414 2.828 2.828-1.414 1.414-2.828-2.828z"></path>
<path d="M15 28h2v4h-2v-4z"></path>
<path d="M3.976 26.608l2.828-2.828 1.414 1.414-2.828 2.828-1.414-1.414z"></path>
<path d="M16 7c-4.971 0-9 4.029-9 9s4.029 9 9 9c4.971 0 9-4.029 9-9v0c0-4.971-4.029-9-9-9v0z"></path>
</svg>
