<!-- Generated by IcoMoon.io -->
<svg version="1.1" xmlns="http://www.w3.org/2000/svg" width="32" height="32" viewBox="0 0 32 32">
<title>zoom-2</title>
<path d="M30.748 27.919l-7.644-7.644c1.394-1.939 2.229-4.361 2.229-6.979 0-6.648-5.389-12.037-12.037-12.037s-12.037 5.389-12.037 12.037c0 6.648 5.389 12.037 12.037 12.037 2.617 0 5.040-0.835 7.015-2.254l-0.036 0.025 7.644 7.644zM4 13.333c0-5.155 4.179-9.333 9.333-9.333s9.333 4.179 9.333 9.333c0 5.155-4.179 9.333-9.333 9.333v0c-5.152-0.006-9.327-4.181-9.333-9.333v-0.001z"></path>
</svg>
