<svg width="60" height="60" viewBox="0 0 60 60" fill="none" xmlns="http://www.w3.org/2000/svg">
<path d="M30 45C23.625 45 18.75 40.125 18.75 33.75C18.75 27.375 23.625 22.5 30 22.5C36.375 22.5 41.25 27.375 41.25 33.75C41.25 40.125 36.375 45 30 45ZM56.25 15H46.875L40.5 5.25C39.75 4.5 38.625 3.75 37.5 3.75H22.5C21.375 3.75 20.2499 4.5 19.4999 5.25L13.125 15H3.75C1.5 15 0 16.5 0 18.75V52.5C0 54.75 1.5 56.25 3.75 56.25H56.25C58.5 56.25 60 54.75 60 52.5V18.75C60 16.5 58.5 15 56.25 15Z" fill="#EEEEEE"/>
</svg>
