<svg xmlns="http://www.w3.org/2000/svg" xmlns:xlink="http://www.w3.org/1999/xlink" width="116" height="60" viewBox="0 0 116 60">
    <defs>
        <path id="a" d="M0 0h7.7v4.418H0z"/>
        <path id="c" d="M0 0h23.406v31.088H0z"/>
    </defs>
    <g fill="none" fill-rule="evenodd">
        <path fill="#9F224E" d="M86.81 7.869h-2.701c-.61 0-1.109-.466-1.109-1.036V1.036C83 .466 83.499 0 84.109 0h2.7c.61 0 1.109.466 1.109 1.036v5.797c0 .57-.499 1.036-1.109 1.036M80.148 8.218l-2.395.618c-.54.139-1.1-.173-1.246-.693L75.034 2.85c-.144-.52.18-1.06.72-1.199l2.394-.618c.54-.139 1.101.173 1.246.693l1.473 5.292c.145.52-.179 1.06-.72 1.2M77.753 51.033l2.395.618c.54.14.864.68.72 1.2l-1.474 5.292c-.145.52-.706.832-1.246.693l-2.394-.618c-.54-.14-.864-.68-.72-1.2l1.473-5.292c.145-.52.706-.832 1.246-.693M84.109 52h2.7c.61 0 1.109.466 1.109 1.036v5.797c0 .57-.499 1.036-1.109 1.036h-2.7c-.61 0-1.109-.467-1.109-1.036v-5.797c0-.57.499-1.036 1.109-1.036M89.754 51.651l2.394-.618c.541-.139 1.101.173 1.246.693l1.473 5.292c.145.52-.179 1.06-.72 1.2l-2.394.618c-.54.139-1.1-.173-1.245-.693l-1.473-5.292c-.145-.52.178-1.06.719-1.2M95.498 49.32l2.103-1.19a1.012 1.012 0 0 1 1.363.357l2.788 4.729a.968.968 0 0 1-.364 1.333l-2.104 1.19a1.012 1.012 0 0 1-1.362-.358l-2.79-4.729a.968.968 0 0 1 .366-1.333M100.3 46.065l1.765-1.766a1.028 1.028 0 0 1 1.45 0l4.055 4.055a1.028 1.028 0 0 1 0 1.45l-1.766 1.766a1.028 1.028 0 0 1-1.45 0l-4.055-4.055a1.028 1.028 0 0 1 0-1.45M74.387 49.32l-2.103-1.19a1.012 1.012 0 0 0-1.363.357l-2.788 4.729a.967.967 0 0 0 .365 1.333l2.104 1.19a1.012 1.012 0 0 0 1.362-.358l2.788-4.729a.967.967 0 0 0-.365-1.333M70.57 46.065l-1.766-1.766a1.029 1.029 0 0 0-1.45 0l-4.055 4.055a1.028 1.028 0 0 0 0 1.45l1.766 1.766a1.028 1.028 0 0 0 1.45 0l4.055-4.055a1.028 1.028 0 0 0 0-1.45M104.146 41.602l1.338-2.104c.302-.475.977-.64 1.5-.365l5.32 2.788c.523.275.704.888.402 1.362l-1.337 2.104c-.303.475-.978.64-1.5.366l-5.32-2.79c-.524-.273-.705-.886-.403-1.361M106.033 36.148l.618-2.394c.139-.54.68-.864 1.2-.72l5.292 1.474c.52.144.832.705.693 1.245l-.618 2.395c-.14.54-.68.864-1.2.72l-5.292-1.474c-.52-.145-.832-.705-.693-1.246"/>
        <g transform="translate(107.213 27.541)">
            <mask id="b" fill="#fff">
                <use xlink:href="#a"/>
            </mask>
            <path fill="#9F224E" d="M0 3.422V.996C0 .448.456 0 1.014 0h5.671C7.243 0 7.7.448 7.7.996v2.426c0 .548-.456.996-1.014.996H1.014A1.008 1.008 0 0 1 0 3.422" mask="url(#b)"/>
        </g>
        <path fill="#9F224E" d="M106.65 25.148l-.617-2.394c-.139-.541.172-1.102.693-1.247l5.292-1.472c.52-.145 1.06.178 1.2.719l.618 2.394c.139.54-.173 1.101-.693 1.246l-5.293 1.473c-.52.145-1.06-.179-1.2-.72M105.484 19.387l-1.338-2.103c-.302-.475-.121-1.088.402-1.363l5.32-2.788c.523-.274 1.198-.11 1.5.365l1.338 2.104c.302.475.121 1.088-.402 1.362l-5.32 2.789c-.523.274-1.198.11-1.5-.366M102.065 15.57l-1.766-1.766a1.028 1.028 0 0 1 0-1.45l4.055-4.055a1.028 1.028 0 0 1 1.45 0l1.766 1.766a1.028 1.028 0 0 1 0 1.45l-4.055 4.055a1.029 1.029 0 0 1-1.45 0M97.602 10.739l-2.104-1.19a.968.968 0 0 1-.365-1.333l2.789-4.729a1.012 1.012 0 0 1 1.362-.357l2.104 1.19a.968.968 0 0 1 .365 1.333l-2.79 4.728a1.012 1.012 0 0 1-1.361.358M92.148 8.836l-2.394-.618c-.54-.14-.864-.68-.72-1.2l1.474-5.292c.144-.52.705-.832 1.245-.693l2.395.618c.54.14.864.68.72 1.2l-1.474 5.292c-.145.52-.705.832-1.246.693M72.283 10.739l2.104-1.19a.968.968 0 0 0 .366-1.333l-2.79-4.729a1.012 1.012 0 0 0-1.361-.357l-2.104 1.19a.968.968 0 0 0-.365 1.333l2.788 4.728c.275.465.888.626 1.362.358"/>
        <g transform="translate(0 10.82)">
            <mask id="d" fill="#fff">
                <use xlink:href="#c"/>
            </mask>
            <path fill="#9F224E" d="M14.545 17.124c-.803-.778-1.796-1.167-2.98-1.167-1.145 0-2.105.382-2.881 1.146-.777.779-1.165 1.744-1.165 2.898 0 1.18.382 2.18 1.145 2.998.776.832 1.742 1.248 2.901 1.248 1.157 0 2.144-.39 2.96-1.168.829-.79 1.243-1.777 1.243-2.957 0-1.208-.407-2.207-1.223-2.998m5.506 10.664c-2.21 2.2-4.96 3.3-8.25 3.3-3.42 0-6.236-1.086-8.446-3.26C1.118 25.628 0 22.785 0 19.297c0-1.409.257-2.838.77-4.286.46-1.288 1.118-2.583 1.973-3.884L10.183 0h8.861l-6.591 9.196.079.08c.197-.067.434-.114.71-.14l.75-.02c2.763 0 5.039 1.025 6.828 3.078 1.724 1.985 2.586 4.407 2.586 7.263 0 3.34-1.119 6.118-3.355 8.331" mask="url(#d)"/>
        </g>
        <path fill="#9F224E" d="M40.875 21.306c0-1.348-.24-2.395-.72-3.142-.6-.907-1.549-1.36-2.843-1.36-1.228 0-2.156.46-2.784 1.38-.52.787-.78 1.828-.78 3.122v8.844c0 1.307.26 2.355.78 3.141.614.92 1.543 1.381 2.784 1.381 1.294 0 2.242-.453 2.842-1.36.481-.76.721-1.815.721-3.162v-8.844zm7.748 8.644c0 2.361-.494 4.422-1.481 6.183-1.069 1.868-2.636 3.275-4.705 4.222-1.549.747-3.217 1.12-5.005 1.12-1.575 0-3.117-.313-4.625-.94C28.27 38.628 26 35.099 26 29.95v-8.444c0-5.243 2.282-8.778 6.847-10.606 1.548-.6 3.076-.9 4.585-.9 1.562 0 3.11.327 4.644.98 4.364 1.908 6.547 5.417 6.547 10.526v8.444zM65.875 21.306c0-1.348-.24-2.395-.72-3.142-.6-.907-1.549-1.36-2.843-1.36-1.228 0-2.156.46-2.784 1.38-.52.787-.78 1.828-.78 3.122v8.844c0 1.307.26 2.355.78 3.141.614.92 1.543 1.381 2.784 1.381 1.294 0 2.242-.453 2.842-1.36.481-.76.721-1.815.721-3.162v-8.844zm7.748 8.644c0 2.361-.494 4.422-1.481 6.183-1.069 1.868-2.636 3.275-4.705 4.222-1.549.747-3.217 1.12-5.005 1.12-1.575 0-3.117-.313-4.625-.94C53.27 38.628 51 35.099 51 29.95v-8.444c0-5.243 2.282-8.778 6.847-10.606 1.548-.6 3.076-.9 4.585-.9 1.562 0 3.11.327 4.644.98 4.364 1.908 6.547 5.417 6.547 10.526v8.444zM91.762 39.607C90 40.929 87.86 41.59 85.345 41.59c-2.503 0-4.596-.64-6.278-1.922-1.789-1.363-2.812-3.266-3.067-5.708h6.822c.201 1.417 1.069 2.125 2.603 2.125a2.93 2.93 0 0 0 1.594-.445c.538-.337.808-.79.808-1.356 0-.715-.363-1.302-1.09-1.761l-1.01-.486-3.975-1.437c-1.602-.58-2.853-1.301-3.755-2.165-1.143-1.08-1.714-2.36-1.714-3.846 0-2.28.927-4.142 2.784-5.586C80.776 17.668 82.814 17 85.183 17c2.408 0 4.393.6 5.953 1.801 1.682 1.283 2.63 3.104 2.846 5.465h-6.74c-.041-1.16-.754-1.74-2.14-1.74-1.305 0-1.958.512-1.958 1.537 0 .77.606 1.397 1.817 1.883.403.175 1.015.384 1.837.627.066.014.154.034.261.06l1.857.588c.82.27 1.527.553 2.12.85.726.364 1.338.782 1.836 1.255 1.21 1.12 1.817 2.597 1.817 4.432 0 2.442-.976 4.391-2.927 5.849M4.118 47.986v6.866H1.795v-6.866H0V46h5.902v1.986zM13.47 54.852v-3.538h-3.072v3.538H8V46h2.398v3.328h3.073V46h2.398v8.852zM24.93 45.835l-3.112-1.359.645-1.476 3.045 1.611-.578 1.224zm.83 3.205a2.33 2.33 0 0 0-1.839-.837c-.742 0-1.355.27-1.84.812-.467.52-.7 1.156-.7 1.907 0 .767.233 1.415.7 1.944.489.553 1.112.83 1.87.83.727 0 1.332-.28 1.816-.837.459-.529.688-1.162.688-1.9 0-.75-.231-1.39-.695-1.92zm1.895-1.267c.787.881 1.181 1.94 1.181 3.174 0 1.369-.482 2.521-1.445 3.456-.952.923-2.116 1.384-3.494 1.384-1.333 0-2.477-.453-3.433-1.36C19.488 53.51 19 52.389 19 51.064c0-.705.12-1.37.363-1.993.127-.332.328-.68.603-1.045.972-1.275 2.286-1.913 3.943-1.913 1.156 0 2.165.33 3.026.99a4.03 4.03 0 0 1 .13-.049c.426-.209.64-.515.64-.916h-.493v-1.403h1.409v1.446c-.058.594-.253 1.037-.585 1.328-.123.103-.25.19-.381.265zM31 54.852h1.967V46H31zM46.912 55.123c-.598.475-1.4.713-2.408.713-1.03 0-1.858-.25-2.486-.75C41.34 54.551 41 53.796 41 52.821v-.306h2.466c0 .35.079.644.237.881a.87.87 0 0 0 .775.413c.627 0 .942-.302.942-.907a.81.81 0 0 0-.327-.669 1.909 1.909 0 0 0-.333-.2l-.186-.088-1.057-.443a7.214 7.214 0 0 1-.903-.432 3.737 3.737 0 0 1-.756-.556 2.342 2.342 0 0 1-.71-1.726c0-.838.358-1.523 1.075-2.057.658-.488 1.431-.732 2.319-.732.5 0 .978.088 1.435.263.495.191.892.462 1.191.813.401.483.615 1.106.64 1.87h-2.453c-.093-.618-.39-.926-.89-.926-.568 0-.852.248-.852.744 0 .175.03.309.09.4.098.163.395.363.89.6l1.025.45c.359.16.658.311.897.457.29.175.53.36.717.556.436.45.653 1.017.653 1.701 0 .95-.324 1.682-.973 2.195M51.437 58.77h1.896v-1.883h-1.896v1.883zm4.327-10.655v4.005c0 .63-.05 1.14-.151 1.53-.136.5-.378.935-.727 1.304-.625.667-1.447 1-2.466 1-.493 0-.95-.075-1.373-.225a2.808 2.808 0 0 1-1.163-.762c-.373-.411-.62-.85-.745-1.317a4.061 4.061 0 0 1-.11-.713A9.185 9.185 0 0 1 49 52.12v-5.584h2.25v5.584c0 .244.012.453.036.628.03.223.083.412.157.567.178.378.496.567.953.567.473 0 .792-.185.954-.555.07-.15.117-.337.14-.561.015-.162.023-.378.023-.646v-5.584h2.25v.494a.915.915 0 0 0 .24-.64h-.466V45h1.332v1.432c-.054.59-.238 1.028-.553 1.317a2.251 2.251 0 0 1-.552.366z"/>
    </g>
</svg>
