<?xml version="1.0" encoding="iso-8859-1"?>
<!-- Generator: Adobe Illustrator 21.1.0, SVG Export Plug-In . SVG Version: 6.00 Build 0)  -->
<svg version="1.1" id="Layer_1" xmlns="http://www.w3.org/2000/svg" xmlns:xlink="http://www.w3.org/1999/xlink" x="0px" y="0px"
	 viewBox="0 0 385 160" style="enable-background:new 0 0 385 160;" xml:space="preserve">
<linearGradient id="Composite_Path_1_" gradientUnits="userSpaceOnUse" x1="314.414" y1="159.89" x2="314.414" y2="-0.11" gradientTransform="matrix(1 0 0 -1 0 159.89)">
	<stop  offset="0.445" style="stop-color:#9BC117"/>
	<stop  offset="0.509" style="stop-color:#AED71A"/>
	<stop  offset="0.551" style="stop-color:#BDE631"/>
</linearGradient>
<path id="Composite_Path" style="fill:url(#Composite_Path_1_);" d="M299.606,94.534c0.257-7.616,2.52-11.816,2.52-11.816h23.94
	c0,0,2.263,4.2,2.52,11.816v0.693c-0.257,7.615-2.52,11.816-2.52,11.816h-23.94c0,0-2.263-4.2-2.52-11.816V94.534z M295.437,117
	h39.836c0,0,4-7.637,4.459-21.484v-1.26c-0.455-13.847-4.459-21.484-4.459-21.484h-22.052l-23.892,12.4
	c-0.082,0.5-0.159,1.019-0.233,1.55L295.437,117z"/>
<linearGradient id="Composite_Path-2_1_" gradientUnits="userSpaceOnUse" x1="131.771" y1="159.89" x2="131.771" y2="-0.11" gradientTransform="matrix(1 0 0 -1 0 159.89)">
	<stop  offset="0.445" style="stop-color:#9BC117"/>
	<stop  offset="0.509" style="stop-color:#AED71A"/>
	<stop  offset="0.551" style="stop-color:#BDE631"/>
</linearGradient>
<path id="Composite_Path-2" style="fill:url(#Composite_Path-2_1_);" d="M117.281,94.534c0.257-7.616,2.52-11.816,2.52-11.816h23.94
	c0,0,2.263,4.2,2.52,11.816v0.693c-0.257,7.615-2.52,11.816-2.52,11.816H119.8c0,0-2.263-4.2-2.52-11.816L117.281,94.534
	L117.281,94.534z M106.135,94.25v1.26c0.455,13.848,4.459,21.49,4.459,21.49h42.354c0,0,4-7.637,4.459-21.484v-1.26
	c-0.455-13.847-4.459-21.484-4.459-21.484h-42.354C110.594,72.772,106.59,80.4,106.135,94.25L106.135,94.25z"/>
<linearGradient id="Path_1_" gradientUnits="userSpaceOnUse" x1="165.457" y1="159.89" x2="165.457" y2="-0.11" gradientTransform="matrix(1 0 0 -1 0 159.89)">
	<stop  offset="0.44" style="stop-color:#9BC117"/>
	<stop  offset="0.509" style="stop-color:#AED71A"/>
	<stop  offset="0.555" style="stop-color:#BDE631"/>
</linearGradient>
<path id="Path" style="fill:url(#Path_1_);" d="M159.884,72.767l11.146-5.529V117h-11.146V72.767z"/>
<linearGradient id="Path-2_1_" gradientUnits="userSpaceOnUse" x1="24.955" y1="159.89" x2="24.955" y2="-0.11" gradientTransform="matrix(1 0 0 -1 0 159.89)">
	<stop  offset="0.445" style="stop-color:#9BC117"/>
	<stop  offset="0.509" style="stop-color:#AED71A"/>
	<stop  offset="0.551" style="stop-color:#BDE631"/>
</linearGradient>
<path id="Path-2" style="fill:url(#Path-2_1_);" d="M38.764,72.767v29.214l-26.5-29.214H0V117h11.146V87.28L37.9,117h12.01V72.767
	H38.764z"/>
<linearGradient id="Path-3_1_" gradientUnits="userSpaceOnUse" x1="78.022" y1="159.89" x2="78.022" y2="-0.11" gradientTransform="matrix(1 0 0 -1 0 159.89)">
	<stop  offset="0.445" style="stop-color:#9BC117"/>
	<stop  offset="0.509" style="stop-color:#AED71A"/>
	<stop  offset="0.551" style="stop-color:#BDE631"/>
</linearGradient>
<path id="Path-3" style="fill:url(#Path-3_1_);" d="M52.386,94.251v1.26C52.841,109.358,56.845,117,56.845,117H99.2
	c0,0,4-7.637,4.458-21.484v-1.26c-0.057-1.731-0.17-3.364-0.323-4.9H82.481l-7.8,11.057h17.31c-0.339,2.298-1.013,4.534-2,6.637
	H66.052c0,0-2.263-4.2-2.52-11.816v-0.7c0.257-7.616,2.52-11.816,2.52-11.816h36.285c-0.619-3.437-1.673-6.781-3.137-9.951H56.845
	C56.845,72.767,52.841,80.4,52.386,94.251z"/>
<linearGradient id="Composite_Path-3_1_" gradientUnits="userSpaceOnUse" x1="200.5925" y1="159.89" x2="200.5925" y2="-0.11" gradientTransform="matrix(1 0 0 -1 0 159.89)">
	<stop  offset="0.445" style="stop-color:#9BC117"/>
	<stop  offset="0.509" style="stop-color:#AED71A"/>
	<stop  offset="0.551" style="stop-color:#BDE631"/>
</linearGradient>
<path id="Composite_Path-3" style="fill:url(#Composite_Path-3_1_);" d="M213.134,107.042h-34.1c0.62,3.439,1.676,6.786,3.142,9.958
	h24.277L213.134,107.042z M176.6,94.251v1.26c0.057,1.731,0.17,3.364,0.323,4.9h40.662l7-11.055h-36.31
	c0.339-2.297,1.013-4.532,2-6.634h33.742l-9.217-9.953h-33.734C181.066,72.769,177.057,80.4,176.6,94.251z"/>
<path id="Path-4" style="fill:#6E6E6E;" d="M0,131.024v-8.819h1.74v3.486h3.288v-3.486h1.74v3.486h-1.74v1.846h1.74v3.487h-1.74
	v-3.487H1.74v3.487H0z"/>
<path id="Path-5" style="fill:#6E6E6E;" d="M15.762,122.205h6.768v8.819h-1.74v-7.179H17.5v7.179h-1.74v-8.819l0,0H15.762z"/>
<path id="Composite_Path-4" style="fill:#6E6E6E;" d="M38.1,122.205v8.819h-6.576v-8.819H38.1z M36.553,129.178v-5.333H33.07v5.333
	h3.481H36.553z"/>
<path id="Path-6" style="fill:#6E6E6E;" d="M60.146,131.024H48.35v-8.819h1.74v6.973h3.287v-6.973h1.741v6.973h3.287v-6.973h1.741
	V131.024L60.146,131.024L60.146,131.024z"/>
<path id="Path-7" style="fill:#6E6E6E;" d="M88.189,123.845h-5.028v1.846h3.288v1.846h-3.288v1.641h5.028v1.846H81.42v-8.819h6.768
	v1.64l0,0H88.189z"/>
<path id="Path-8" style="fill:#6E6E6E;" d="M97.471,131.024v-1.846h-1.547v-6.973h1.547v6.973h3.481v-6.973h1.548v6.973h-1.547
	v1.846H97.471z"/>
<path id="Path-9" style="fill:#6E6E6E;" d="M118.261,123.845h-5.028v1.846h3.287v1.846h-3.287v1.641h5.028v1.846h-6.769v-8.819
	h6.769V123.845L118.261,123.845z"/>
<path id="Composite_Path-5" style="fill:#6E6E6E;" d="M132.282,125.691v-1.846h-3.288v1.846H132.282z M134.022,131.024h-1.74v-3.487
	h-3.288v3.487h-1.74v-8.819h6.768v3.486h-1.74v1.846h1.74V131.024L134.022,131.024z"/>
<path id="Path-10" style="fill:#6E6E6E;" d="M148.043,122.205h1.548v8.819h-6.575v-1.846h5.027v-1.641h-5.027v-5.332h1.547v3.486
	h3.48V122.205C148.043,122.205,148.043,122.205,148.043,122.205z"/>
<path id="Path-11" style="fill:#6E6E6E;" d="M163.612,122.205v1.64h-1.547v7.179h-1.74v-7.179h-1.741v-1.64H163.612z"/>
<path id="Path-12" style="fill:#6E6E6E;" d="M177.633,122.205h1.741v8.819h-1.741v-3.487h-3.287v3.487h-1.741v-8.819h1.741v3.486
	h3.287V122.205L177.633,122.205z"/>
<path id="Path-13" style="fill:#6E6E6E;" d="M188.367,122.205h1.547v8.819h-1.547V122.205L188.367,122.205z"/>
<path id="Path-14" style="fill:#6E6E6E;" d="M200.165,122.205h6.769v8.819h-1.741v-7.179h-3.287v7.179h-1.741V122.205
	L200.165,122.205z"/>
<path id="Path-15" style="fill:#6E6E6E;" d="M217.668,129.178h3.287v-1.641h-1.74v-1.846h3.485v5.333h-6.768v-8.819h6.768v1.64
	h-5.028v5.333l0,0L217.668,129.178z"/>
<radialGradient id="Path-16_1_" cx="253.8333" cy="97.2233" r="192.5" gradientTransform="matrix(1 0 0 -1 0 159.89)" gradientUnits="userSpaceOnUse">
	<stop  offset="0" style="stop-color:#0296F8"/>
	<stop  offset="0.229" style="stop-color:#0032C8"/>
</radialGradient>
<path id="Path-16" style="fill:url(#Path-16_1_);" d="M299.444,160l-15.1-76.85L385,30.236l-110.889,12L266.732,0l-24.327,45.669
	l-43.5,4.663L299.444,160z"/>
<path id="Path-17" style="fill:#FFFFFF;" d="M204.5,56.435l78.808,85.965l-17.834-98.305c-1.77-10.426-7.549-2.52-7.549-2.52
	l-22.647,30.236L206.34,56.693L204.5,56.435z"/>
<radialGradient id="Composite_Path-6_1_" cx="252.1667" cy="86.5567" r="142.5111" gradientTransform="matrix(1 0 0 -1 0 159.89)" gradientUnits="userSpaceOnUse">
	<stop  offset="0" style="stop-color:#0296F8"/>
	<stop  offset="0.226" style="stop-color:#0032C8"/>
</radialGradient>
<path id="Composite_Path-6" style="fill:url(#Composite_Path-6_1_);" d="M254.15,70.129v18.06l-8.48-4.85L254.15,70.129z
	 M211.63,63.918l20.578,22.217l-20.836,31.03h12.582l15.146-23.59l38,41.027L260.465,45.98l-22.816,32.055L211.63,63.918z"/>
<path id="Path-18" style="fill:#9BC117;" d="M131.624,61.031c0,0-3.085,4.969-6.581,6.6s-8.227,3.3-8.227,3.3h29.616
	c0,0-4.731-1.67-8.227-3.3S131.624,61.031,131.624,61.031z"/>
</svg>
