<svg xmlns="http://www.w3.org/2000/svg" xmlns:xlink="http://www.w3.org/1999/xlink" width="128" height="30" viewBox="0 0 128 30">
    <defs>
        <path id="a" d="M0 .054h127.654v15.11H0z"/>
    </defs>
    <g fill="none" fill-rule="evenodd">
        <g transform="translate(0 14.615)">
            <mask id="b" fill="#fff">
                <use xlink:href="#a"/>
            </mask>
            <path fill="#FFF" d="M71.859.657h-2.795c-1.168 1.21-9.858 11.834-6.368 14.038 2.406 1.52 6.85-1.319 8.986-2.836l-.833-1.413c-1.514 1.267-4.3 2.65-5.331 1.686-1.474-1.382 3.69-9.832 3.69-9.832.53 1.755 3.427 9.516 4.097 10.788l.75 1.478h3.12a58.018 58.018 0 0 1-.859-1.674C74.467 9.216 72.802 4.65 71.86.657zm-19.805 6.6c-.669-.337-1.608-.75-2.962-1.286-1.021-.393-1.78-.704-2.257-.927-.457-.21-.824-.464-1.099-.757a1.408 1.408 0 0 1-.407-1.002c0-.492.213-.883.652-1.197.437-.317 1.242-.478 1.979-.478 1.333 0 3.396.3 4.719 1.034l.788-1.146C52.557.978 50.914.266 47.89.266c-2.551 0-3.983 1.176-4.458 2.16-.583 1.191-.739 3.288 1.307 4.754.743.529 2.175 1.252 4.256 2.151l.104.043c.518.223.93.434 1.224.632.29.185.505.409.668.64.327.48.612 1.68-.518 2.558-.484.383-1.168.567-2.005.567-2.31 0-5.506-.98-5.506-.98l-.738 1.183s3.159 1.144 6.55 1.144c3.635 0 5.572-1.698 5.926-3.28.391-1.744-.41-3.447-2.645-4.58zm-13.07 0c-.666-.337-1.608-.75-2.963-1.286-1.019-.393-1.779-.704-2.256-.927-.455-.21-.826-.464-1.098-.757a1.413 1.413 0 0 1-.406-1.002c0-.492.211-.883.65-1.197.436-.317 1.244-.478 1.977-.478 1.332 0 3.394.3 4.721 1.034l.785-1.146C39.487.978 37.841.266 34.818.266c-2.55 0-3.984 1.176-4.459 2.16-.58 1.191-.74 3.288 1.307 4.754.743.529 2.175 1.252 4.257 2.151l.104.043c.518.223.93.434 1.227.632.289.185.503.409.663.64.33.48.612 1.68-.513 2.558-.488.383-1.171.567-2.008.567-2.31 0-5.507-.98-5.507-.98l-.737 1.183s3.16 1.144 6.551 1.144c3.635 0 5.57-1.698 5.925-3.28.39-1.744-.409-3.447-2.644-4.58zm72.092-5.972c-.726.244-.77.293-2.208.457v.886h.446c.712 0 1.178.493 1.178 1.13l.007 10.924h2.942V.657h-1.179c-.48.277-.869.521-1.186.628zm-19.707.637c-2.282-2.37-8.198-2.252-9.7.722-.939 1.863.12 3.563.12 3.563l1.158-.513c-.419-.556-.412-3.526 2.242-3.997 2.964-.525 4.393 2.152 3.763 3.784-1.09 2.819-6.227 6.724-8.434 8.247v1.003h12.248v-1.744l-8.44.02c4.326-1.764 11.34-6.63 7.043-11.085zM56.731 14.915h2.943V.657h-2.943v14.258zM26.985.657h-2.74l.188 1.333c.33 2.303.717 5.58.717 8.095 0 1.473-.981 3.829-3.694 3.829h-.027c-2.712 0-3.698-2.356-3.698-3.829 0-2.515.391-5.792.72-8.095l.187-1.333h-2.737l-.254 1.375c-.066.345-1.046 5.563-1.046 7.359 0 3.532 2.617 5.727 6.828 5.727h.027c4.21 0 6.827-2.195 6.827-5.727 0-1.796-.98-7.014-1.045-7.359L26.985.657zM13.354 4.21C13.354.657 9.367.657 6.65.657H.001V14.73h2.945V1.8h3.705c.813 0 3.304.003 3.304 2.41 0 1.92-4.179 4.178-6.178 5.234l.005 2.286a232.03 232.03 0 0 0 2.965-1.413l3.66 4.414h3.312L9.027 9.122c2.912-1.73 4.327-3.344 4.327-4.912zm110.333 9.071c-.442.556-1.18.835-2.209.835-1.032 0-1.772-.28-2.214-.835-.442-.56-.637-1.285-.602-2.17.03-.787.412-3.02 2.401-3.293V6.704c-.912-.165-1.885-.893-1.885-2.7 0-2.269 1.506-2.749 2.3-2.749.786 0 2.294.48 2.294 2.749 0 1.707-.86 2.447-1.721 2.663v1.176c1.844.372 2.21 2.504 2.24 3.269.034.884-.161 1.609-.604 2.17zm-.145-6.042c-.003-.015 2.88-.562 2.88-3.354 0-1.007-.441-1.856-1.369-2.559-.923-.703-2.08-1.06-3.512-1.06l-.063.007-.067-.007c-1.435 0-2.589.357-3.511 1.06-.929.703-1.366 1.552-1.366 2.559 0 2.792 2.878 3.34 2.876 3.354 0 0-4.112.492-4.112 3.696 0 3.645 4.131 4.23 6.18 4.23 2.046 0 6.176-.585 6.176-4.23 0-3.204-4.112-3.696-4.112-3.696zm-22.601 6.387h-.031c-2.268 0-4.085-1.656-3.486-7.037.317-2.83 1.339-5.042 3.486-5.042h.03c2.143 0 3.166 2.212 3.48 5.042.603 5.38-1.217 7.037-3.48 7.037zm.01-13.572h-.056c-4.097 0-6.05 2.777-6.65 6.312-1.147 6.712 2.328 8.752 6.65 8.752h.056c4.322 0 7.797-2.04 6.652-8.752-.605-3.535-2.553-6.312-6.652-6.312z" mask="url(#b)"/>
        </g>
        <path fill="#FFF" d="M48.63 7.984c-1.54 0-2.15-1.476-2.15-3.054 0-1.648.61-3.048 2.15-3.048 1.545 0 2.17 1.4 2.17 3.048 0 1.578-.625 3.054-2.17 3.054zm0-7.984c-3.141 0-4.78 1.871-4.78 4.93 0 3.034 1.664 4.937 4.78 4.937 3.126 0 4.79-1.903 4.79-4.937C53.42 1.871 51.78 0 48.63 0zm8.84 4.129h-.67v-2.16h.67c.968 0 1.85.156 1.85 1.05 0 1.081-1.04 1.11-1.85 1.11zM60.036 5v-.025c1.23-.29 1.821-1.138 1.821-2.405 0-1.64-1.375-2.412-3.065-2.412H54.25v9.548h2.548V5.93h.533c.942 0 1.26.407 1.783 2.053l.55 1.723h2.648l-.93-2.609c-.479-1.152-.526-1.88-1.346-2.097zm5.83 2.82h3.936v1.886h-6.479V.159h2.543v7.662zm38.885-3.262h-.655V1.97h.655c.878 0 1.574.305 1.574 1.284 0 .992-.696 1.306-1.574 1.306zm-.164-4.4h-3.032v9.548h2.541V6.368h.99c2.372 0 3.781-1.15 3.781-3.07 0-2.157-1.364-3.139-4.28-3.139zm-13.34 7.332l.117 1.992c-.719.181-1.53.384-2.825.384-2.543 0-5.475-1.283-5.475-4.89 0-3.325 2.317-4.977 5.46-4.977.974 0 1.915.222 2.834.494l-.215 2.057c-.817-.446-1.609-.67-2.477-.67-1.807 0-2.987 1.313-2.987 3.095 0 1.876 1.33 3.008 3.183 3.008.836 0 1.68-.218 2.386-.493zm-16.81.33h-.971V2.048h.972c1.868 0 2.971.991 2.971 2.882 0 1.906-1.065 2.89-2.971 2.89zm-.05-7.662H70.91v9.548h3.477c3.257 0 5.647-1.248 5.647-4.813 0-3.688-2.325-4.735-5.647-4.735zm23.546 0h2.554v5.928c0 2.61-1.699 3.78-4.19 3.78-2.49 0-4.175-1.17-4.175-3.78V.16h2.541v5.497c0 1.258.342 2.328 1.633 2.328 1.3 0 1.637-1.07 1.637-2.328V.159zM19.163 4.158l-.817 2.088H16.26v3.438h-3.008V.16h7.314l-.773 2.072H16.26v1.927h2.903zM0 .159h7.312l-.77 2.072H3.014v1.927h2.896l-.818 2.088H3.015v3.438H0V.16zm8.234 0h2.965v9.525H8.23L8.234.16zm35.686 0l-2.132 9.548H38.52l-1.346-7.329h-.027l-1.26 7.329h-3.298L30.47.159h2.61l1.223 7.332h.031l1.28-7.332h3.226l1.341 7.332h.027L41.453.159h2.467zM22.66 6.595l1.152-3.962 1.185 3.962H22.66zM22.316.18l-3.424 9.518h2.868l.38-1.282h3.347l.384 1.282h2.963L25.403.179h-3.087z"/>
    </g>
</svg>
