<svg width="32" height="32" viewBox="0 0 32 32" fill="none" xmlns="http://www.w3.org/2000/svg">
<path d="M3.33331 15.3322H6C6.368 15.3322 6.66669 15.0335 6.66669 14.6655V11.9988C6.66669 11.6308 6.368 11.3322 6 11.3322H3.33331C2.96531 11.3322 2.66663 11.6308 2.66663 11.9988V14.6655C2.66669 15.0335 2.96531 15.3322 3.33331 15.3322ZM4 12.6655H5.33331V13.9988H4V12.6655Z" fill="#171C27"/>
<path d="M28.2893 7.04424C28.0293 6.78424 27.6066 6.78424 27.3466 7.04424C27.0866 7.30424 27.0866 7.72693 27.3466 7.98693C29.4879 10.1269 30.6666 12.9736 30.6666 16.0002C30.6666 19.0269 29.4866 21.8736 27.3466 24.0136C27.0866 24.2736 27.0866 24.6962 27.3466 24.9562C27.4773 25.0856 27.6479 25.1509 27.8186 25.1509C27.9893 25.1509 28.1599 25.0856 28.2893 24.9562C30.6827 22.5642 32 19.3829 32 16.0002C32 12.6176 30.6813 9.43624 28.2893 7.04424Z" fill="#171C27"/>
<path d="M21.6894 12.6989C21.4294 12.9589 21.4294 13.3816 21.6894 13.6416C22.3187 14.2723 22.6654 15.1083 22.6654 15.9989C22.6654 16.8896 22.3187 17.7269 21.6894 18.3562C21.4294 18.6162 21.4294 19.0389 21.6894 19.2989C21.8201 19.4282 21.9907 19.4936 22.1614 19.4936C22.3321 19.4936 22.5027 19.4283 22.6321 19.2989C23.5134 18.4176 23.9988 17.2456 23.9988 15.9989C23.9988 14.7522 23.5135 13.5802 22.6321 12.6989C22.3721 12.4389 21.9494 12.4389 21.6894 12.6989Z" fill="#171C27"/>
<path d="M3.33331 20.6656H6C6.368 20.6656 6.66669 20.3669 6.66669 19.9989V17.3322C6.66669 16.9642 6.368 16.6655 6 16.6655H3.33331C2.96531 16.6655 2.66663 16.9642 2.66663 17.3322V19.9989C2.66669 20.3669 2.96531 20.6656 3.33331 20.6656ZM4 17.9989H5.33331V19.3322H4V17.9989Z" fill="#171C27"/>
<path d="M18 7.33228H12.6667C11.7987 7.33228 11.0654 7.89096 10.7894 8.66559H0.666687C0.298687 8.66559 0 8.96428 0 9.33228V22.6656C0 23.0336 0.298687 23.3323 0.666687 23.3323H10.7894C11.0654 24.107 11.7987 24.6656 12.6667 24.6656H18C19.1027 24.6656 20 23.7683 20 22.6656V9.33228C20 8.22959 19.1027 7.33228 18 7.33228ZM10.6667 21.9989H1.33331V9.9989H10.6666V21.9989H10.6667ZM18.6667 22.6656C18.6667 23.0336 18.368 23.3323 18 23.3323H12.6667C12.2987 23.3323 12 23.0336 12 22.6656V9.33228C12 8.96428 12.2987 8.66559 12.6667 8.66559H18C18.368 8.66559 18.6667 8.96428 18.6667 9.33228V22.6656Z" fill="#171C27"/>
<path d="M25.4613 9.87225C25.2013 9.61225 24.7786 9.61225 24.5186 9.87225C24.2586 10.1322 24.2586 10.5549 24.5186 10.8149C25.9039 12.2002 26.6666 14.0416 26.6666 16.0002C26.6666 17.9589 25.9039 19.8002 24.5186 21.1855C24.2586 21.4455 24.2586 21.8682 24.5186 22.1282C24.6493 22.2575 24.8199 22.3229 24.9906 22.3229C25.1613 22.3229 25.3319 22.2576 25.4613 22.1282C27.0987 20.4922 28 18.3149 28 16.0002C28 13.6856 27.0987 11.5096 25.4613 9.87225Z" fill="#171C27"/>
</svg>
