<svg width="32" height="32" viewBox="0 0 32 32" fill="none" xmlns="http://www.w3.org/2000/svg">
<g clip-path="url(#clip0)">
<path d="M19.9782 3.32358C17.3621 2.45155 14.5738 2.45155 11.9591 3.32358C11.6092 3.43976 11.4209 3.81766 11.5371 4.16757C11.6533 4.51743 12.0299 4.70841 12.3811 4.58954C14.722 3.80964 17.2139 3.80964 19.5562 4.58954C19.627 4.61357 19.6977 4.62428 19.7672 4.62428C20.0477 4.62428 20.3081 4.44801 20.4002 4.16757C20.5163 3.81766 20.328 3.43976 19.9782 3.32358Z" fill="#171C27"/>
<path d="M11.5384 2.05894C14.4349 1.09476 17.5076 1.09476 20.4014 2.05894C20.4722 2.08166 20.5429 2.0923 20.6124 2.0923C20.8915 2.0923 21.1519 1.91471 21.2454 1.63691C21.3616 1.28706 21.1733 0.907782 20.8234 0.791603C17.6545 -0.263342 14.2853 -0.264719 11.1151 0.791603C10.7666 0.909097 10.5769 1.28706 10.6931 1.63691C10.8106 1.98551 11.1858 2.1738 11.5384 2.05894Z" fill="#171C27"/>
<path d="M15.9999 9.2981C14.8955 9.2981 13.9968 10.1968 13.9968 11.3012V13.972C13.9968 15.0764 14.8955 15.9751 15.9999 15.9751C17.1043 15.9751 18.003 15.0764 18.003 13.972V11.3012C18.003 10.1969 17.1043 9.2981 15.9999 9.2981ZM16.6676 13.972C16.6676 14.3406 16.3685 14.6397 15.9999 14.6397C15.6314 14.6397 15.3322 14.3406 15.3322 13.972V11.3012C15.3322 10.9326 15.6314 10.6335 15.9999 10.6335C16.3685 10.6335 16.6676 10.9326 16.6676 11.3012V13.972Z" fill="#171C27"/>
<path d="M18.6708 6.62732H13.3292C10.0161 6.62732 7.31995 9.32349 7.31995 12.6366V23.3198C7.31995 28.1059 11.214 31.9999 16.0001 31.9999C20.7862 31.9999 24.6801 28.1059 24.6801 23.3198V12.6366C24.6801 9.32349 21.9839 6.62732 18.6708 6.62732ZM23.3447 23.3198C23.3447 27.37 20.0503 30.6644 16 30.6644C11.9497 30.6644 8.65532 27.37 8.65532 23.3198V12.6366C8.65532 10.0593 10.7519 7.9627 13.3292 7.9627H18.6708C21.2481 7.9627 23.3447 10.0593 23.3447 12.6366V23.3198H23.3447Z" fill="#171C27"/>
</g>
<defs>
<clipPath id="clip0">
<path d="M0 0H32V32H0V0Z" fill="white"/>
</clipPath>
</defs>
</svg>
