<svg width="32" height="32" viewBox="0 0 32 32" fill="none" xmlns="http://www.w3.org/2000/svg">
<path d="M20.1738 15.9981H22.9565C23.3405 15.9981 23.6521 15.6864 23.6521 15.3024V12.5198C23.6521 12.1358 23.3405 11.8241 22.9565 11.8241H20.1738C19.7898 11.8241 19.4781 12.1358 19.4781 12.5198V15.3024C19.4782 15.6864 19.7898 15.9981 20.1738 15.9981ZM20.8695 13.2154H22.2608V14.6067H20.8695V13.2154Z" fill="#171C27"/>
<path d="M11.3836 4.23323C14.3958 3.22869 17.6056 3.22869 20.6177 4.23323C20.6914 4.25827 20.7651 4.26942 20.8375 4.26942C21.1283 4.26942 21.3996 4.0844 21.4984 3.7936C21.6194 3.4291 21.4233 3.03532 21.0588 2.91427C17.76 1.81373 14.2414 1.81373 10.944 2.91427C10.5795 3.03532 10.3833 3.42903 10.5044 3.7936C10.6254 4.1581 11.0163 4.35427 11.3836 4.23323Z" fill="#171C27"/>
<path d="M14.6086 15.9981H17.3913C17.7753 15.9981 18.0869 15.6864 18.0869 15.3024V12.5198C18.0869 12.1358 17.7753 11.8241 17.3913 11.8241H14.6086C14.2246 11.8241 13.913 12.1358 13.913 12.5198V15.3024C13.913 15.6864 14.2246 15.9981 14.6086 15.9981ZM15.3043 13.2154H16.6956V14.6067H15.3043V13.2154Z" fill="#171C27"/>
<path d="M22.2609 18.0851V20.8677C22.2609 21.2517 22.5725 21.5634 22.9565 21.5634H25.7392C26.1232 21.5634 26.4348 21.2517 26.4348 20.8677V18.0851C26.4348 17.7011 26.1232 17.3894 25.7392 17.3894H22.9565C22.5725 17.3894 22.2609 17.7011 22.2609 18.0851ZM23.6522 18.7808H25.0435V20.172H23.6522V18.7808Z" fill="#171C27"/>
<path d="M20.1796 5.55214C17.454 4.64359 14.549 4.64359 11.8234 5.55214C11.4589 5.67318 11.2627 6.0669 11.3838 6.43146C11.5048 6.79459 11.8944 6.99494 12.2631 6.87109C14.7035 6.05855 17.2982 6.05855 19.7386 6.87109C19.8123 6.89614 19.886 6.90729 19.9584 6.90729C20.2492 6.90729 20.5205 6.72364 20.6193 6.43146C20.7402 6.06696 20.5441 5.67318 20.1796 5.55214Z" fill="#171C27"/>
<path d="M17.3913 17.3894C17.0074 17.3894 16.6957 17.7011 16.6957 18.0851V20.8677C16.6957 21.2517 17.0074 21.5634 17.3913 21.5634H20.174C20.558 21.5634 20.8696 21.2517 20.8696 20.8677V18.0851C20.8696 17.7011 20.558 17.3894 20.174 17.3894H17.3913ZM19.4783 20.172H18.087V18.7808H19.4783V20.172Z" fill="#171C27"/>
<path d="M11.826 17.3894C11.442 17.3894 11.1304 17.7011 11.1304 18.0851V20.8677C11.1304 21.2517 11.442 21.5634 11.826 21.5634H14.6087C14.9927 21.5634 15.3043 21.2517 15.3043 20.8677V18.0851C15.3043 17.7011 14.9927 17.3894 14.6087 17.3894H11.826ZM13.913 20.172H12.5217V18.7808H13.913V20.172Z" fill="#171C27"/>
<path d="M28.5216 11.8242H25.739C25.355 11.8242 25.0433 12.1359 25.0433 12.5199V15.3025C25.0433 15.6865 25.355 15.9982 25.739 15.9982H28.5216C28.9056 15.9982 29.2173 15.6865 29.2173 15.3025V12.5199C29.2173 12.1359 28.9056 11.8242 28.5216 11.8242ZM27.826 14.6068H26.4347V13.2156H27.826V14.6068Z" fill="#171C27"/>
<path d="M28.5216 22.9547H25.739C25.355 22.9547 25.0433 23.2664 25.0433 23.6504V26.433C25.0433 26.817 25.355 27.1287 25.739 27.1287H28.5216C28.9056 27.1287 29.2173 26.817 29.2173 26.433V23.6504C29.2173 23.2663 28.9056 22.9547 28.5216 22.9547ZM27.826 25.7373H26.4347V24.346H27.826V25.7373Z" fill="#171C27"/>
<path d="M28.5217 9.04163H3.47824C1.56104 9.04163 0 10.6027 0 12.5199V26.4329C0 28.3501 1.56104 29.9112 3.47824 29.9112H28.5217C30.4389 29.9112 31.9999 28.3501 31.9999 26.4329V12.5199C32 10.6027 30.439 9.04163 28.5217 9.04163ZM30.6087 26.4329C30.6087 27.5836 29.6723 28.5199 28.5217 28.5199H3.47824C2.32761 28.5199 1.39128 27.5836 1.39128 26.4329V12.5199C1.39128 11.3693 2.32761 10.433 3.47824 10.433H28.5217C29.6723 10.433 30.6087 11.3693 30.6087 12.5199V26.4329Z" fill="#171C27"/>
<path d="M22.9565 22.9547H9.04345C8.65945 22.9547 8.34778 23.2664 8.34778 23.6504V26.433C8.34778 26.817 8.65945 27.1287 9.04345 27.1287H22.9565C23.3405 27.1287 23.6521 26.817 23.6521 26.433V23.6504C23.6521 23.2663 23.3405 22.9547 22.9565 22.9547ZM22.2608 25.7373H9.73906V24.346H22.2608V25.7373Z" fill="#171C27"/>
<path d="M9.04345 15.9981H11.8261C12.2101 15.9981 12.5217 15.6864 12.5217 15.3024V12.5198C12.5217 12.1358 12.2101 11.8241 11.8261 11.8241H9.04345C8.65945 11.8241 8.34778 12.1358 8.34778 12.5198V15.3024C8.34778 15.6864 8.65945 15.9981 9.04345 15.9981ZM9.73906 13.2154H11.1303V14.6067H9.73906V13.2154Z" fill="#171C27"/>
<path d="M6.26086 17.3894C5.87686 17.3894 5.56519 17.7011 5.56519 18.0851V20.8677C5.56519 21.2517 5.87686 21.5634 6.26086 21.5634H9.04348C9.42748 21.5634 9.73915 21.2517 9.73915 20.8677V18.0851C9.73915 17.7011 9.42748 17.3894 9.04348 17.3894H6.26086ZM8.34781 20.172H6.95653V18.7808H8.34781V20.172Z" fill="#171C27"/>
<path d="M3.47827 15.9981H6.26089C6.64489 15.9981 6.95657 15.6864 6.95657 15.3024V12.5198C6.95657 12.1358 6.64489 11.8241 6.26089 11.8241H3.47827C3.09427 11.8241 2.78259 12.1358 2.78259 12.5198V15.3024C2.78266 15.6864 3.09427 15.9981 3.47827 15.9981ZM4.17394 13.2154H5.56522V14.6067H4.17394V13.2154Z" fill="#171C27"/>
<path d="M6.26089 22.9547H3.47827C3.09427 22.9547 2.78259 23.2664 2.78259 23.6504V26.433C2.78259 26.817 3.09427 27.1287 3.47827 27.1287H6.26089C6.64489 27.1287 6.95657 26.817 6.95657 26.433V23.6504C6.95657 23.2663 6.64489 22.9547 6.26089 22.9547ZM5.56522 25.7373H4.17394V24.346H5.56522V25.7373Z" fill="#171C27"/>
</svg>
