<svg width="32" height="32" viewBox="0 0 32 32" fill="none" xmlns="http://www.w3.org/2000/svg">
<path d="M31.3333 5.33331C30.9653 5.33331 30.6666 5.632 30.6666 6V23.3333C30.6667 25.9067 28.5733 28 26 28C23.4267 28 21.3333 25.9067 21.3333 23.3333V6C21.3333 2.692 18.6413 0 15.3333 0H14C10.92 0 8.404 2.34131 8.068 5.33331H6C2.692 5.33331 0 8.02531 0 11.3333V23.3333C0 28.112 3.888 32 8.66669 32C13.4454 32 17.3334 28.112 17.3334 23.3333V11.3333C17.3334 8.02531 14.6414 5.33331 11.3334 5.33331H9.40137C9.72806 3.07731 11.6547 1.33331 14.0001 1.33331H15.3334C17.9067 1.33331 20 3.42669 20 6V23.3333C20 26.6413 22.692 29.3333 26 29.3333C29.308 29.3333 32 26.6413 32 23.3333V6C32 5.632 31.7013 5.33331 31.3333 5.33331ZM8.66669 9.33331C8.83338 9.33331 9.33337 10.0426 9.33337 11.3333C9.33337 12.624 8.83338 13.3333 8.66669 13.3333C8.5 13.3333 8 12.624 8 11.3333C8 10.0427 8.5 9.33331 8.66669 9.33331ZM1.33331 11.3333C1.33331 8.76 3.42663 6.66663 6 6.66663H8V8.19063C7.20931 8.63062 6.66669 9.82931 6.66669 11.3333C6.66669 12.8373 7.20937 14.036 8 14.476V16H1.33331V11.3333ZM16 23.3333C16 27.3773 12.7107 30.6666 8.66669 30.6666C4.62269 30.6666 1.33331 27.3773 1.33331 23.3333V17.3333H16V23.3333ZM11.3333 6.66669C13.9066 6.66669 16 8.76 16 11.3334V16H9.33331V14.476C10.124 14.036 10.6666 12.8373 10.6666 11.3333C10.6666 9.82931 10.1239 8.63062 9.33331 8.19063V6.66663H11.3333V6.66669Z" fill="#171C27"/>
</svg>
