<svg width="32" height="32" viewBox="0 0 32 32" fill="none" xmlns="http://www.w3.org/2000/svg">
<g clip-path="url(#clip0)">
<path d="M8.00006 25.9996C8.73607 25.9996 9.33338 25.4023 9.33338 24.6663C9.33338 23.9303 8.73607 23.333 8.00006 23.333C7.26406 23.333 6.66675 23.9303 6.66675 24.6663C6.66675 25.4023 7.26406 25.9996 8.00006 25.9996Z" fill="#171C27"/>
<path d="M4.00006 25.9996C4.73606 25.9996 5.33337 25.4023 5.33337 24.6663C5.33337 23.9303 4.73606 23.333 4.00006 23.333C3.26406 23.333 2.66675 23.9303 2.66675 24.6663C2.66675 25.4023 3.26406 25.9996 4.00006 25.9996Z" fill="#171C27"/>
<path d="M28.6667 27.333H3.33331C2.96531 27.333 2.66663 27.6317 2.66663 27.9997C2.66663 28.3677 2.96531 28.6664 3.33331 28.6664H28.6666C29.0346 28.6664 29.3333 28.3677 29.3333 27.9997C29.3333 27.6316 29.0347 27.333 28.6667 27.333Z" fill="#171C27"/>
<path d="M31.7493 22.2089L30.4053 19.5183C30.24 19.1889 29.84 19.0556 29.5106 19.2196C29.1813 19.3836 29.0479 19.7849 29.2119 20.1143L29.4959 20.6823C29.4412 20.6796 29.3892 20.6663 29.3333 20.6663H2.66669C2.612 20.6663 2.56 20.6796 2.50537 20.6823L8.08669 9.51426C8.10537 9.48895 8.12 9.45957 8.13469 9.43026C8.35738 8.95957 8.816 8.66626 9.33337 8.66626H14C14.368 8.66626 14.6667 8.36757 14.6667 7.99957C14.6667 7.63157 14.368 7.33289 14 7.33289H9.33331C8.34131 7.33289 7.42 7.89957 6.96531 8.7822C6.952 8.80489 6.93731 8.82751 6.92531 8.85289L0.250688 22.2076C0.246688 22.2156 0.248 22.2249 0.244 22.2343C0.0906875 22.5689 0 22.9396 0 23.3329V28.6663C0 30.1369 1.196 31.3329 2.66669 31.3329H29.3334C30.8041 31.3329 32.0001 30.1369 32.0001 28.6663V23.3329C32.0001 22.9396 31.9094 22.5689 31.7561 22.2329C31.752 22.2249 31.7533 22.2156 31.7493 22.2089ZM30.6667 28.6663C30.6667 29.4023 30.0694 29.9996 29.3334 29.9996H2.66669C1.93069 29.9996 1.33337 29.4023 1.33337 28.6663V23.3329C1.33337 23.1449 1.37469 22.9663 1.44537 22.8036C1.65069 22.3316 2.11869 21.9996 2.66669 21.9996H29.3334C30.0694 21.9996 30.6667 22.5969 30.6667 23.3329V28.6663Z" fill="#171C27"/>
<path d="M31.772 0.83028C31.628 0.703593 31.4333 0.647593 31.244 0.672968L16.5773 2.67297C16.2466 2.71697 16 2.99966 16 3.33297V15.333C16 15.6663 16.2467 15.949 16.5773 15.993L31.244 17.993C31.2733 17.997 31.304 17.9997 31.3333 17.9997C31.4933 17.9997 31.6493 17.9423 31.772 17.8357C31.916 17.7077 32 17.5263 32 17.333V1.33297C32 1.13959 31.9173 0.95828 31.772 0.83028ZM22.6667 15.477L17.3334 14.7503V9.99959H22.6667V15.477ZM22.6667 8.66628H17.3334V3.91428L22.6667 3.18759V8.66628ZM30.6667 16.5676L24 15.6583V9.99959H30.6667V16.5676ZM30.6667 8.66628H24V3.00497L30.6667 2.09697V8.66628Z" fill="#171C27"/>
</g>
<defs>
<clipPath id="clip0">
<path d="M0 0H32V32H0V0Z" fill="white"/>
</clipPath>
</defs>
</svg>
