<svg width="32" height="32" viewBox="0 0 32 32" fill="none" xmlns="http://www.w3.org/2000/svg">
<path d="M30 8H4V3.33331C4 2.96531 3.70131 2.66663 3.33331 2.66663H0.666687C0.298687 2.66669 0 2.96531 0 3.33331C0 3.70131 0.298687 4 0.666687 4H2.66669V9.33331H0.666687C0.298687 9.33331 0 9.632 0 10V15.3333C0 15.7013 0.298687 16 0.666687 16H2.66669V17.3333H0.666687C0.298687 17.3333 0 17.632 0 18V23.3333C0 23.7013 0.298687 24 0.666687 24H2.66669V28.6667C2.66669 29.0347 2.96537 29.3334 3.33337 29.3334C3.70138 29.3334 4 29.0347 4 28.6667V25.3334H6.66669V27.3334C6.66669 27.7014 6.96537 28.0001 7.33337 28.0001H19.3334C19.7014 28.0001 20.0001 27.7014 20.0001 27.3334V25.3334H21.3334V27.3334C21.3334 27.7014 21.6321 28.0001 22.0001 28.0001H28.6667C29.0347 28.0001 29.3334 27.7014 29.3334 27.3334V25.3334H30C31.1027 25.3334 32 24.4361 32 23.3334V10C32 8.89731 31.1027 8 30 8ZM2.66669 22.6667H1.33331V18.6667H2.66663V22.6667H2.66669ZM2.66669 14.6667H1.33331V10.6667H2.66663V14.6667H2.66669ZM18.6667 26.6667H8V25.3334H18.6667V26.6667ZM28 26.6667H22.6667V25.3334H28V26.6667ZM30.6667 23.3333C30.6667 23.7013 30.368 24 30 24H4V9.33331H30C30.368 9.33331 30.6667 9.632 30.6667 10V23.3333Z" fill="#171C27"/>
<path d="M15.3333 15.9999C15.7013 15.9999 15.9999 15.7013 15.9999 15.3333C15.9999 14.9653 15.7013 14.6666 15.3333 14.6666H14.6666V13.9999C14.6666 13.6319 14.3679 13.3333 13.9999 13.3333H13.3332V12.6666C13.3332 12.2986 13.0345 11.9999 12.6665 11.9999C12.2985 11.9999 11.9999 12.2986 11.9999 12.6666V13.3333H10.6666V12.6666C10.6666 12.2986 10.3679 11.9999 9.99994 11.9999C9.63194 11.9999 9.33325 12.2986 9.33325 12.6666V13.3333H8.66657C8.29857 13.3333 7.99988 13.632 7.99988 14V14.6667H7.33319C6.96519 14.6667 6.6665 14.9654 6.6665 15.3334C6.6665 15.7014 6.96525 15.9999 7.33325 15.9999H7.99994V17.3333H7.33325C6.96525 17.3333 6.66657 17.6319 6.66657 17.9999C6.66657 18.3679 6.96525 18.6666 7.33325 18.6666H7.99994V19.3333C7.99994 19.7013 8.29863 20 8.66663 20H9.33332V20.6667C9.33332 21.0347 9.632 21.3334 10 21.3334C10.368 21.3334 10.6667 21.0347 10.6667 20.6667V19.9999H11.9999V20.6666C11.9999 21.0346 12.2986 21.3333 12.6666 21.3333C13.0346 21.3333 13.3333 21.0346 13.3333 20.6666V19.9999H13.9999C14.3679 19.9999 14.6666 19.7013 14.6666 19.3333V18.6666H15.3333C15.7013 18.6666 16 18.3679 16 17.9999C16 17.6319 15.7013 17.3332 15.3333 17.3332H14.6666V15.9999H15.3333ZM13.3333 18.6666H9.33325V14.6666H13.3333V18.6666Z" fill="#171C27"/>
<path d="M27.3334 12H18.0001C17.6321 12 17.3334 12.2987 17.3334 12.6667C17.3334 13.0347 17.6321 13.3334 18.0001 13.3334H27.3334C27.7014 13.3334 28.0001 13.0347 28.0001 12.6667C28.0001 12.2987 27.7014 12 27.3334 12Z" fill="#171C27"/>
<path d="M27.3334 20H18.0001C17.6321 20 17.3334 20.2987 17.3334 20.6667C17.3334 21.0347 17.6321 21.3334 18.0001 21.3334H27.3334C27.7014 21.3334 28.0001 21.0347 28.0001 20.6667C28.0001 20.2987 27.7014 20 27.3334 20Z" fill="#171C27"/>
<path d="M27.3334 14.6667H18.0001C17.6321 14.6667 17.3334 14.9654 17.3334 15.3334C17.3334 15.7014 17.6321 16.0001 18.0001 16.0001H27.3334C27.7014 16.0001 28.0001 15.7014 28.0001 15.3334C28.0001 14.9654 27.7014 14.6667 27.3334 14.6667Z" fill="#171C27"/>
<path d="M27.3334 17.3334H18.0001C17.6321 17.3334 17.3334 17.6321 17.3334 18.0001C17.3334 18.3681 17.6321 18.6667 18.0001 18.6667H27.3334C27.7014 18.6667 28.0001 18.3681 28.0001 18.0001C28.0001 17.6321 27.7014 17.3334 27.3334 17.3334Z" fill="#171C27"/>
</svg>
