<svg width="32" height="32" viewBox="0 0 32 32" fill="none" xmlns="http://www.w3.org/2000/svg">
<g clip-path="url(#clip0)">
<path d="M21.5214 5.53514C21.2614 5.79515 21.2614 6.21785 21.5214 6.47786L22.8548 7.81121C22.9855 7.94053 23.1561 8.0059 23.3268 8.0059C23.4975 8.0059 23.6681 7.94059 23.7975 7.8099L25.1309 6.47654C25.3909 6.21654 25.3909 5.79384 25.1309 5.53383L23.9081 4.31111C23.8814 4.26842 23.8481 4.22579 23.8108 4.18841C23.5508 3.92841 23.1281 3.92841 22.8681 4.18841L21.5214 5.53514ZM23.3268 5.61514L23.7175 6.00584L23.3268 6.39654L22.9361 6.00584L23.3268 5.61514Z" fill="#171C27"/>
<path d="M31.8059 8.19526L23.8056 0.195006C23.5456 -0.065002 23.1229 -0.065002 22.8629 0.195006L16.668 6.38989L15.8053 5.52717C15.5453 5.26716 15.1226 5.26716 14.8626 5.52717L7.47172 12.9167C6.12899 14.2594 5.39034 16.0435 5.39034 17.9409C5.39034 19.8382 6.12906 21.6237 7.47172 22.965L7.78242 23.2757L0.195494 30.8626C-0.0645138 31.1227 -0.0645138 31.5454 0.195494 31.8054C0.326186 31.9347 0.495504 32.0001 0.666197 32.0001C0.83689 32.0001 1.00752 31.9347 1.1369 31.8054L8.72382 24.2184L9.03315 24.5278C10.4185 25.9131 12.2386 26.6051 14.0573 26.6051C15.876 26.6051 17.6947 25.9131 19.0815 24.5291L26.4724 17.1382C26.7324 16.8782 26.7324 16.4555 26.4724 16.1954L25.611 15.3327L31.8059 9.13785C32.0645 8.87796 32.0645 8.45526 31.8059 8.19526ZM18.1387 23.585C15.8894 25.8358 12.2279 25.8344 9.97718 23.585L8.41444 22.0223C7.32372 20.9316 6.7237 19.4822 6.7237 17.9409C6.7237 16.3981 7.32503 14.9488 8.41444 13.8594L15.3333 6.94053L16.1894 7.79656C16.1921 7.79924 16.1921 7.80187 16.1947 7.80456L24.1949 15.8048C24.1962 15.8061 24.1976 15.8061 24.1989 15.8075L25.0576 16.6662L18.1387 23.585ZM24.6669 14.3901L17.6107 7.33254L23.3336 1.60836L30.3925 8.6659L24.6669 14.3901Z" fill="#171C27"/>
<path d="M24.1948 9.13794L25.5281 10.4713C25.6601 10.6006 25.8294 10.666 26.0001 10.666C26.1708 10.666 26.3414 10.6007 26.4708 10.4713L27.8042 9.13794C28.0642 8.87793 28.0642 8.45523 27.8042 8.19523L26.4708 6.86188C26.2108 6.60187 25.7881 6.60187 25.5281 6.86188L24.1948 8.19523C23.9348 8.45523 23.9348 8.87793 24.1948 9.13794ZM26.0001 8.27523L26.3921 8.66593L26.0001 9.05663L25.6108 8.66593L26.0001 8.27523Z" fill="#171C27"/>
</g>
<defs>
<clipPath id="clip0">
<path d="M0 0H32V32H0V0Z" fill="white"/>
</clipPath>
</defs>
</svg>
