<svg width="32" height="32" viewBox="0 0 32 32" fill="none" xmlns="http://www.w3.org/2000/svg">
<g clip-path="url(#clip0)">
<path d="M12.6666 2.66675H9.99994C9.63194 2.66675 9.33325 2.96544 9.33325 3.33344V6.00006C9.33325 6.36806 9.63194 6.66675 9.99994 6.66675H12.6666C13.0346 6.66675 13.3333 6.36806 13.3333 6.00006V3.33337C13.3333 2.96537 13.0346 2.66675 12.6666 2.66675ZM11.9999 5.33337H10.6666V4.00006H11.9999V5.33337Z" fill="#171C27"/>
<path d="M7.33331 2.66675H4.66669C4.29869 2.66675 4 2.96537 4 3.33337V6.00006C4 6.36806 4.29869 6.66675 4.66669 6.66675H7.33337C7.70138 6.66675 8.00006 6.36806 8.00006 6.00006V3.33337C8 2.96537 7.70131 2.66675 7.33331 2.66675ZM6.66669 5.33337H5.33331V4.00006H6.66663V5.33337H6.66669Z" fill="#171C27"/>
<path d="M24.6668 17.3334C20.6228 17.3334 17.3335 20.6227 17.3335 24.6667C17.3335 28.7107 20.6228 32.0001 24.6668 32.0001C28.7108 32.0001 32.0001 28.7107 32.0001 24.6667C32.0001 20.6227 28.7108 17.3334 24.6668 17.3334ZM24.6668 30.6667C21.3588 30.6667 18.6668 27.9747 18.6668 24.6667C18.6668 21.3587 21.3588 18.6667 24.6668 18.6667C27.9748 18.6667 30.6668 21.3587 30.6668 24.6667C30.6668 27.9747 27.9748 30.6667 24.6668 30.6667Z" fill="#171C27"/>
<path d="M26 0C22.692 0 20 2.692 20 6V16.244C20 16.612 20.2987 16.9107 20.6667 16.9107C21.0347 16.9107 21.3334 16.612 21.3334 16.244V6C21.3334 3.42669 23.4267 1.33331 26.0001 1.33331C28.5734 1.33331 30.6667 3.42669 30.6667 6V11.3333C30.6667 11.7013 30.9654 12 31.3334 12C31.7014 12 32.0001 11.7013 32.0001 11.3333V6C32 2.692 29.308 0 26 0Z" fill="#171C27"/>
<path d="M17.1547 30.02C16.3507 30.4493 15.5134 30.6667 14.6667 30.6667C11.7254 30.6667 9.33337 28.2747 9.33337 25.3334V25.3C13.8014 24.9573 17.3334 21.2213 17.3334 16.6667V12.6667C17.3334 11.7987 16.7747 11.0654 16.0001 10.7894V0.666687C16 0.298687 15.7013 0 15.3333 0H2C1.632 0 1.33331 0.298687 1.33331 0.666687V10.7894C0.558688 11.0653 0 11.7987 0 12.6667V16.6667C0 21.22 3.532 24.9573 8 25.3V25.3333C8 29.0093 10.9907 32 14.6667 32C15.7347 32 16.7827 31.7293 17.7827 31.1973C18.108 31.0226 18.2307 30.62 18.0574 30.2946C17.884 29.9707 17.4813 29.848 17.1547 30.02ZM2.66669 1.33331H14.6667V10.6666H2.66669V1.33331ZM1.33331 16.6667V12.6667C1.33331 12.2987 1.632 12 2 12H15.3333C15.7013 12 16 12.2987 16 12.6667V16.6667C16 20.7107 12.7107 24 8.66669 24C4.62269 24 1.33331 20.7107 1.33331 16.6667Z" fill="#171C27"/>
<path d="M27.804 21.5294C27.544 21.2694 27.1213 21.2694 26.8613 21.5294L24.6666 23.724L22.4719 21.5294C22.2119 21.2694 21.7892 21.2694 21.5292 21.5294C21.2692 21.7894 21.2692 22.212 21.5292 22.472L23.7239 24.6667L21.5292 26.8614C21.2692 27.1214 21.2692 27.5441 21.5292 27.8041C21.6585 27.9348 21.8292 28.0001 21.9999 28.0001C22.1706 28.0001 22.3412 27.9348 22.4706 27.8054L24.6653 25.6107L26.86 27.8054C26.992 27.9347 27.1627 28.0001 27.3333 28.0001C27.504 28.0001 27.6746 27.9348 27.804 27.8054C28.064 27.5454 28.064 27.1227 27.804 26.8627L25.6093 24.6667L27.804 22.472C28.064 22.212 28.064 21.7894 27.804 21.5294Z" fill="#171C27"/>
</g>
<defs>
<clipPath id="clip0">
<path d="M0 0H32V32H0V0Z" fill="white"/>
</clipPath>
</defs>
</svg>
