<svg width="32" height="32" viewBox="0 0 32 32" fill="none" xmlns="http://www.w3.org/2000/svg">
<g clip-path="url(#clip0)">
<path d="M7.33331 2.66663H4.66669C4.29869 2.66663 4 2.96525 4 3.33325V5.99994C4 6.36794 4.29869 6.66663 4.66669 6.66663H7.33337C7.70138 6.66663 8.00006 6.36794 8.00006 5.99994V3.33325C8 2.96525 7.70131 2.66663 7.33331 2.66663ZM6.66669 5.33325H5.33331V3.99994H6.66663V5.33325H6.66669Z" fill="#171C27"/>
<path d="M26 0C22.692 0 20 2.692 20 6V16.244C20 16.612 20.2987 16.9107 20.6667 16.9107C21.0347 16.9107 21.3334 16.612 21.3334 16.244V6C21.3334 3.42669 23.4267 1.33331 26.0001 1.33331C28.5734 1.33331 30.6667 3.42669 30.6667 6V11.3333C30.6667 11.7013 30.9654 12 31.3334 12C31.7014 12 32.0001 11.7013 32.0001 11.3333V6C32 2.692 29.308 0 26 0Z" fill="#171C27"/>
<path d="M24.6667 17.3334C20.6227 17.3334 17.3334 20.6227 17.3334 24.6667C17.3334 28.7107 20.6227 32.0001 24.6667 32.0001C28.7107 32.0001 32 28.7107 32 24.6667C32 20.6227 28.7107 17.3334 24.6667 17.3334ZM24.6667 30.6667C21.3587 30.6667 18.6667 27.9747 18.6667 24.6667C18.6667 21.3587 21.3587 18.6667 24.6667 18.6667C27.9747 18.6667 30.6667 21.3587 30.6667 24.6667C30.6667 27.9747 27.9747 30.6667 24.6667 30.6667Z" fill="#171C27"/>
<path d="M17.1547 30.02C16.3507 30.4493 15.5134 30.6667 14.6667 30.6667C11.7254 30.6667 9.33337 28.2747 9.33337 25.3334V25.3C13.8014 24.9573 17.3334 21.2213 17.3334 16.6667V12.6667C17.3334 11.7987 16.7747 11.0654 16.0001 10.7894V0.666687C16 0.298687 15.7013 0 15.3333 0H2C1.632 0 1.33331 0.298687 1.33331 0.666687V10.7894C0.558688 11.0653 0 11.7987 0 12.6667V16.6667C0 21.22 3.532 24.9573 8 25.3V25.3333C8 29.0093 10.9907 32 14.6667 32C15.7347 32 16.7827 31.7293 17.7827 31.1973C18.108 31.0226 18.2307 30.62 18.0574 30.2946C17.8827 29.9707 17.48 29.848 17.1547 30.02ZM2.66669 1.33331H14.6667V10.6666H2.66669V1.33331ZM1.33331 16.6667V12.6667C1.33331 12.2987 1.632 12 2 12H15.3333C15.7013 12 16 12.2987 16 12.6667V16.6667C16 20.7107 12.7107 24 8.66669 24C4.62269 24 1.33331 20.7107 1.33331 16.6667Z" fill="#171C27"/>
<path d="M28.1933 21.5294L23.332 26.3907L21.1373 24.196C20.8773 23.936 20.4546 23.936 20.1946 24.196C19.9346 24.456 19.9346 24.8787 20.1946 25.1387L22.8613 27.8054C22.992 27.9347 23.1626 28 23.3333 28C23.504 28 23.6746 27.9347 23.8026 27.8054L29.136 22.472C29.396 22.212 29.396 21.7894 29.136 21.5294C28.876 21.2694 28.4533 21.2694 28.1933 21.5294Z" fill="#171C27"/>
<path d="M12.6666 2.66663H9.99994C9.63194 2.66663 9.33325 2.96531 9.33325 3.33331V5.99994C9.33325 6.36794 9.63194 6.66663 9.99994 6.66663H12.6666C13.0346 6.66663 13.3333 6.36794 13.3333 5.99994V3.33325C13.3333 2.96525 13.0346 2.66663 12.6666 2.66663ZM11.9999 5.33325H10.6666V3.99994H11.9999V5.33325Z" fill="#171C27"/>
</g>
<defs>
<clipPath id="clip0">
<path d="M0 0H32V32H0V0Z" fill="white"/>
</clipPath>
</defs>
</svg>
