<svg width="32" height="32" viewBox="0 0 32 32" fill="none" xmlns="http://www.w3.org/2000/svg">
<g clip-path="url(#clip0)">
<path d="M25.1308 5.53426L23.9081 4.31158C23.8814 4.26889 23.8481 4.22627 23.8108 4.18889C23.5508 3.9289 23.1281 3.9289 22.8681 4.18889L21.5214 5.53557C21.2614 5.79557 21.2614 6.21825 21.5214 6.47825L22.8547 7.81155C22.9854 7.94086 23.156 8.00624 23.3267 8.00624C23.4974 8.00624 23.668 7.94093 23.7974 7.81024L25.1307 6.47694C25.3908 6.21694 25.3908 5.79426 25.1308 5.53426ZM23.3268 6.39694L22.9361 6.00625L23.3268 5.61557L23.7175 6.00625L23.3268 6.39694Z" fill="#171C27"/>
<path d="M26.0001 10.6662C26.1707 10.6662 26.3414 10.6009 26.4707 10.4715L27.804 9.13822C28.064 8.87822 28.064 8.45554 27.804 8.19554L26.4707 6.86223C26.2107 6.60224 25.7881 6.60224 25.5281 6.86223L24.1948 8.19554C23.9348 8.45554 23.9348 8.87822 24.1948 9.13822L25.5281 10.4715C25.6587 10.6009 25.8294 10.6662 26.0001 10.6662ZM26.0001 8.2756L26.3907 8.66628L26.0001 9.05697L25.6094 8.66628L26.0001 8.2756Z" fill="#171C27"/>
<path d="M27.3335 22.666C26.2308 22.666 25.3335 23.5633 25.3335 24.666V27.3327C25.3335 28.4353 26.2308 29.3326 27.3335 29.3326C28.4362 29.3326 29.3335 28.4353 29.3335 27.3327V24.666C29.3335 23.5634 28.4361 22.666 27.3335 22.666ZM28.0001 27.3327C28.0001 27.7007 27.7014 27.9993 27.3334 27.9993C26.9654 27.9993 26.6667 27.7007 26.6667 27.3327V24.666C26.6667 24.298 26.9654 23.9993 27.3334 23.9993C27.7014 23.9993 28.0001 24.298 28.0001 24.666V27.3327Z" fill="#171C27"/>
<path d="M28.6667 19.9996H23.6108L26.4721 17.1383C26.7321 16.8783 26.7321 16.4556 26.4721 16.1956L25.6094 15.333L31.804 9.13833C32.064 8.87833 32.064 8.45565 31.804 8.19565L23.8041 0.19573C23.5441 -0.0642669 23.1214 -0.0642669 22.8614 0.19573L16.6668 6.39036L15.8055 5.52905C15.5455 5.26905 15.1228 5.26905 14.8628 5.52905L7.47224 12.9197C4.70158 15.689 4.70158 20.1956 7.47224 22.9663L7.78155 23.2756L0.194998 30.8621C-0.0649994 31.1221 -0.0649994 31.5448 0.194998 31.8048C0.325684 31.9341 0.496308 31.9995 0.666993 31.9995C0.837679 31.9995 1.0083 31.9342 1.13768 31.8048L8.72429 24.2182L9.03497 24.5289C10.3803 25.8742 12.1843 26.6062 14.0496 26.6062C14.2549 26.6062 14.4616 26.5635 14.6669 26.5462V28.6661C14.6669 30.5034 16.1629 31.9994 18.0002 31.9994H28.6668C30.5041 31.9994 32.0001 30.5034 32.0001 28.6661V23.3329C32 21.4956 30.504 19.9996 28.6667 19.9996ZM23.3335 1.60909L30.3907 8.66633L24.6668 14.3903L17.6095 7.33303L23.3335 1.60909ZM14.6669 23.3329V25.2329C12.9349 25.4169 11.2176 24.8262 9.97759 23.5876L8.41492 22.0249C7.32562 20.9342 6.72425 19.4849 6.72425 17.9436C6.72425 16.4023 7.32555 14.953 8.41492 13.8623L15.3335 6.94373L24.1948 15.8049L25.0574 16.6676L21.7255 19.9996H18.0002C16.1628 19.9996 14.6669 21.4956 14.6669 23.3329ZM30.6667 28.6661C30.6667 29.7688 29.7694 30.6661 28.6667 30.6661H18.0001C16.8975 30.6661 16.0002 29.7688 16.0002 28.6661V23.3329C16.0002 22.2302 16.8975 21.3329 18.0001 21.3329H21.9988C22.0001 21.3329 22.0015 21.3329 22.0028 21.3329H28.6667C29.7694 21.3329 30.6667 22.2302 30.6667 23.3329V28.6661Z" fill="#171C27"/>
<path d="M23.3336 27.9994C22.9656 27.9994 22.6669 28.2981 22.6669 28.6661C22.6669 29.0341 22.9656 29.3328 23.3336 29.3328C23.7015 29.3328 24.0002 29.0341 24.0002 28.6661C24.0002 28.2981 23.7015 27.9994 23.3336 27.9994Z" fill="#171C27"/>
<path d="M19.3336 22.666C18.2309 22.666 17.3336 23.5633 17.3336 24.666C17.3336 25.034 17.6323 25.3327 18.0003 25.3327C18.3683 25.3327 18.667 25.034 18.667 24.666C18.667 24.298 18.9657 23.9993 19.3337 23.9993C19.7017 23.9993 20.0003 24.298 20.0003 24.666C20.0003 25.034 19.7017 25.3327 19.3337 25.3327C18.9657 25.3327 18.667 25.6314 18.667 25.9994C18.667 26.3674 18.9657 26.666 19.3337 26.666C19.7017 26.666 20.0003 26.9647 20.0003 27.3327C20.0003 27.7007 19.7017 27.9994 19.3337 27.9994C18.9657 27.9994 18.667 27.7007 18.667 27.3327C18.667 26.9647 18.3683 26.666 18.0003 26.666C17.6323 26.666 17.3336 26.9647 17.3336 27.3327C17.3336 28.4354 18.2309 29.3327 19.3336 29.3327C20.4363 29.3327 21.3336 28.4354 21.3336 27.3327C21.3336 26.8207 21.1403 26.354 20.8229 25.9994C21.1402 25.6447 21.3336 25.1781 21.3336 24.6661C21.3336 23.5634 20.4362 22.666 19.3336 22.666Z" fill="#171C27"/>
</g>
<defs>
<clipPath id="clip0">
<path d="M0 0H32V32H0V0Z" fill="white"/>
</clipPath>
</defs>
</svg>
