<svg width="32" height="32" viewBox="0 0 32 32" fill="none" xmlns="http://www.w3.org/2000/svg">
<path d="M8.00006 25.3334C8.73607 25.3334 9.33338 24.7361 9.33338 24.0001C9.33338 23.2641 8.73607 22.6667 8.00006 22.6667C7.26406 22.6667 6.66675 23.2641 6.66675 24.0001C6.66675 24.7361 7.26406 25.3334 8.00006 25.3334Z" fill="#171C27"/>
<path d="M4.00006 25.3334C4.73606 25.3334 5.33337 24.7361 5.33337 24.0001C5.33337 23.2641 4.73606 22.6667 4.00006 22.6667C3.26406 22.6667 2.66675 23.2641 2.66675 24.0001C2.66675 24.7361 3.26406 25.3334 4.00006 25.3334Z" fill="#171C27"/>
<path d="M28.6667 26.6667H3.33331C2.96531 26.6667 2.66663 26.9654 2.66663 27.3334C2.66663 27.7014 2.96531 28.0001 3.33331 28.0001H28.6666C29.0346 28.0001 29.3333 27.7014 29.3333 27.3334C29.3333 26.9654 29.0347 26.6667 28.6667 26.6667Z" fill="#171C27"/>
<path d="M16.6667 5.33331H18.0001C18.368 5.33331 18.6667 5.03463 18.6667 4.66663C18.6667 4.29863 18.368 4 18.0001 4H16.6667C15.5641 4 14.6667 4.89731 14.6667 6C14.6667 7.10269 15.5641 8 16.6667 8C17.0347 8 17.3334 8.3 17.3334 8.66669C17.3334 9.03338 17.0347 9.33337 16.6667 9.33337H15.3334C14.9654 9.33337 14.6667 9.63206 14.6667 10.0001C14.6667 10.3681 14.9654 10.6667 15.3334 10.6667H16.6667C17.7694 10.6667 18.6667 9.76944 18.6667 8.66675C18.6667 7.56406 17.7694 6.66675 16.6667 6.66675C16.2987 6.66675 16.0001 6.36675 16.0001 6.00006C16.0001 5.63331 16.2987 5.33331 16.6667 5.33331Z" fill="#171C27"/>
<path d="M32 11.3334V3.33337C32 2.23069 31.1027 1.33337 30 1.33337H14C12.8973 1.33337 12 2.23069 12 3.33337V6.66669H9.33331C8.34262 6.66669 7.42531 7.232 6.968 8.11069C6.952 8.136 6.93731 8.16 6.924 8.18668L0.250688 21.5414C0.246688 21.5494 0.248 21.5587 0.244 21.5681C0.0906875 21.9041 0 22.2734 0 22.6667V28.0001C0 29.4707 1.196 30.6667 2.66669 30.6667H29.3334C30.804 30.6667 32 29.4707 32 28.0001V22.6667C32 22.2734 31.9093 21.9027 31.756 21.5667C31.752 21.5587 31.7533 21.5507 31.7493 21.5427L27.6466 13.3334H30C31.1027 13.3334 32 12.4361 32 11.3334ZM30.6667 22.6667V28.0001C30.6667 28.7361 30.068 29.3334 29.3334 29.3334H2.66669C1.932 29.3334 1.33337 28.7361 1.33337 28.0001V22.6667C1.33337 21.9307 1.93206 21.3334 2.66669 21.3334H29.3334C30.068 21.3334 30.6667 21.9307 30.6667 22.6667ZM29.496 20.0161C29.4413 20.0134 29.3893 20.0001 29.3333 20.0001H2.66669C2.61069 20.0001 2.55869 20.0134 2.504 20.0161L8.08269 8.85206C8.10269 8.82537 8.11869 8.79475 8.13338 8.76537C8.35738 8.29337 8.81738 8.00006 9.33337 8.00006H12V11.3334C12 12.4361 12.8973 13.3334 14 13.3334H26.156L29.496 20.0161ZM14 12.0001C13.632 12.0001 13.3333 11.7001 13.3333 11.3334V3.33337C13.3333 2.96669 13.632 2.66669 14 2.66669H30C30.368 2.66669 30.6667 2.96669 30.6667 3.33337V11.3334C30.6667 11.7001 30.368 12.0001 30 12.0001H14Z" fill="#171C27"/>
<path d="M27.3334 4H26.0001C25.6321 4 25.3334 4.29869 25.3334 4.66669V10C25.3334 10.368 25.6321 10.6667 26.0001 10.6667H27.3334C28.4361 10.6667 29.3334 9.76938 29.3334 8.66669V6C29.3334 4.89731 28.4361 4 27.3334 4ZM28.0001 8.66669C28.0001 9.03338 27.7014 9.33337 27.3334 9.33337H26.6667V5.33337H27.3334C27.7014 5.33337 28.0001 5.63337 28.0001 6.00006V8.66669Z" fill="#171C27"/>
<path d="M22 5.33331H23.3333C23.7013 5.33331 24 5.03463 24 4.66663C24 4.29863 23.7013 4 23.3333 4H22C20.8973 4 20 4.89731 20 6C20 7.10269 20.8973 8 22 8C22.368 8 22.6667 8.3 22.6667 8.66669C22.6667 9.03338 22.368 9.33337 22 9.33337H20.6667C20.2987 9.33337 20 9.63206 20 10.0001C20 10.3681 20.2987 10.6667 20.6667 10.6667H22C23.1027 10.6667 24 9.76944 24 8.66675C24 7.56406 23.1027 6.66675 22 6.66675C21.632 6.66675 21.3333 6.36675 21.3333 6.00006C21.3333 5.63331 21.632 5.33331 22 5.33331Z" fill="#171C27"/>
</svg>
