<svg width="32" height="32" viewBox="0 0 32 32" fill="none" xmlns="http://www.w3.org/2000/svg">
<path d="M24.667 14.6668C28.7108 14.6668 32 11.3762 32 7.33374C32 3.29128 28.7108 0.000732422 24.667 0.000732422C20.6232 0.000732422 17.334 3.29122 17.334 7.33374C17.334 11.3763 20.6232 14.6668 24.667 14.6668ZM24.667 1.33399C27.9762 1.33399 30.6668 4.02588 30.6668 7.33374C30.6668 10.6416 27.9749 13.3335 24.667 13.3335C21.3591 13.3335 18.6672 10.6416 18.6672 7.33374C18.6672 4.02588 21.3591 1.33399 24.667 1.33399Z" fill="#171C27"/>
<path d="M22.0004 8.00043H27.3335C27.7028 8.00043 28.0002 7.70176 28.0002 7.33377C28.0002 6.96579 27.7015 6.66711 27.3335 6.66711H22.0004C21.6324 6.66711 21.3337 6.96579 21.3337 7.33377C21.3337 7.70176 21.6324 8.00043 22.0004 8.00043Z" fill="#171C27"/>
<path d="M7.99964 26.6663C8.73561 26.6663 9.3329 26.069 9.3329 25.333C9.3329 24.597 8.73561 23.9998 7.99964 23.9998C7.26367 23.9998 6.66638 24.597 6.66638 25.333C6.66638 26.069 7.26236 26.6663 7.99964 26.6663Z" fill="#171C27"/>
<path d="M31.748 22.8758L28.2482 15.8734C28.0828 15.5454 27.6829 15.4081 27.3535 15.5747C27.0242 15.7387 26.8895 16.14 27.0548 16.4694L29.4934 21.3492C29.4387 21.3465 29.3867 21.3332 29.3321 21.3332H2.66658C2.61058 21.3332 2.55858 21.3465 2.5039 21.3492L8.08236 10.1857C8.10236 10.159 8.11835 10.1283 8.13304 10.099C8.35703 9.62699 8.81701 9.33369 9.33299 9.33369H15.4394C15.8074 9.33369 16.1061 9.03501 16.1061 8.66703C16.1061 8.29904 15.8074 8.00037 15.4394 8.00037H9.33299C8.34235 8.00037 7.42507 8.56566 6.96778 9.44431C6.95178 9.46962 6.93709 9.49362 6.92378 9.5203L0.250677 22.8744C0.246677 22.8824 0.24799 22.8918 0.24399 22.9011C0.0893088 23.2371 0 23.6064 0 23.9998V29.3329C0 30.8035 1.19595 31.9994 2.66658 31.9994H29.3322C30.8028 31.9994 31.9987 30.8035 31.9987 29.3329V23.9998C31.9987 23.6065 31.9081 23.2358 31.7548 22.8998C31.7507 22.8918 31.7507 22.8838 31.748 22.8758ZM30.6654 29.3329C30.6654 30.0688 30.0668 30.6661 29.3322 30.6661H2.66658C1.93192 30.6661 1.33332 30.0688 1.33332 29.3329V23.9998C1.33332 23.2638 1.93198 22.6665 2.66658 22.6665H29.3322C30.0668 22.6665 30.6654 23.2638 30.6654 23.9998V29.3329Z" fill="#171C27"/>
<path d="M3.99988 26.6663C4.73585 26.6663 5.33314 26.069 5.33314 25.333C5.33314 24.597 4.73585 23.9998 3.99988 23.9998C3.26391 23.9998 2.66663 24.597 2.66663 25.333C2.66663 26.069 3.2626 26.6663 3.99988 26.6663Z" fill="#171C27"/>
<path d="M28.6655 27.9996H3.33316C2.96518 27.9996 2.6665 28.2983 2.6665 28.6663C2.6665 29.0343 2.96518 29.333 3.33316 29.333H28.6654C29.0334 29.333 29.3321 29.0343 29.3321 28.6663C29.3321 28.2983 29.0335 27.9996 28.6655 27.9996Z" fill="#171C27"/>
</svg>
