<svg width="32" height="32" viewBox="0 0 32 32" fill="none" xmlns="http://www.w3.org/2000/svg">
<path d="M9.13855 20.1831C8.87987 19.9244 8.45856 19.9244 8.19725 20.1818C3.87198 24.4764 3.87198 24.4764 4.0506 24.9084C4.08529 24.9897 4.13329 25.0644 4.19591 25.1257L6.86258 27.7924C6.99326 27.9217 7.16389 27.9871 7.33457 27.9871C7.50526 27.9871 7.67588 27.9217 7.80525 27.7924L11.8052 23.7924C12.0652 23.5324 12.0652 23.1097 11.8052 22.8497L9.13855 20.1831ZM7.33457 26.3776L5.60528 24.6483C6.27458 23.975 7.58126 22.6737 8.66656 21.5951L10.3919 23.3204L7.33457 26.3776Z" fill="#171C27"/>
<path d="M31.805 10.8498L30.357 9.40177L31.2183 8.54047C31.7223 8.03648 31.9996 7.36717 31.9996 6.65518C31.9996 5.94318 31.7223 5.27388 31.2183 4.76988L28.6063 2.1566C28.4623 2.0126 28.261 1.94191 28.061 1.9646C28.0023 1.97129 27.9464 1.9846 27.9997 1.9886C27.6317 1.9886 27.333 1.68991 27.3197 1.4366C27.3317 1.3966 27.3517 1.29792 27.3557 1.25529C27.3744 1.0513 27.297 0.84861 27.1464 0.708611C26.1224 -0.247379 24.4264 -0.208692 23.4478 0.769923L0.781305 23.4363C0.27731 23.9403 0 24.6096 0 25.3216C0 25.9936 0.255998 26.6376 0.719993 27.1349C0.859992 27.2856 1.1293 27.3362 1.3333 27.3216C1.7013 27.3216 1.99998 27.6203 2.01198 27.8803C2.00267 27.915 1.98129 28.011 1.97729 28.0483C1.95598 28.2496 2.02661 28.451 2.16929 28.5936L4.78258 31.2056C5.28657 31.7096 5.95588 31.9869 6.66787 31.9869C7.37987 31.9869 8.04917 31.7096 8.55185 31.2069L9.41453 30.3442L10.8625 31.7922C10.9932 31.9215 11.1638 31.9869 11.3345 31.9869C11.5052 31.9869 11.6758 31.9215 11.8052 31.7922L18.4718 25.1256C18.7318 24.8656 18.7318 24.4429 18.4718 24.1829L17.0238 22.7349L18.0811 21.6776L19.5291 23.1256C19.6598 23.2549 19.8304 23.3203 20.0011 23.3203C20.1718 23.3203 20.3424 23.2549 20.4718 23.1256L31.805 11.7924C32.065 11.5324 32.065 11.1098 31.805 10.8498ZM17.0585 24.6536L11.3346 30.3776L10.3586 29.4016L16.0825 23.6776L17.0585 24.6536ZM7.61061 30.2629C7.10662 30.7669 6.22931 30.7669 5.72532 30.2629L3.33203 27.8697C3.27466 26.8843 2.49998 26.0883 1.52399 25.9963C1.39999 25.791 1.33467 25.559 1.33467 25.3203C1.33467 24.9643 1.47336 24.6296 1.72536 24.3776L24.3918 1.71123C24.8131 1.28992 25.4998 1.20323 26.0104 1.50992C26.1024 2.48591 26.8984 3.26059 27.8837 3.3179L30.277 5.71119C30.529 5.96318 30.6677 6.29787 30.6677 6.65386C30.6677 7.00986 30.529 7.34455 30.277 7.59654L7.61061 30.2629ZM20.0011 21.711L19.0251 20.735L29.4157 10.3445L30.3917 11.3204L20.0011 21.711Z" fill="#171C27"/>
<path d="M17.1386 12.1831C16.8799 11.9244 16.4586 11.9244 16.1972 12.1818C11.872 16.4764 11.872 16.4764 12.0506 16.9084C12.0853 16.9897 12.1333 17.0644 12.1959 17.1257L14.8626 19.7924C14.9933 19.9217 15.1639 19.9871 15.3346 19.9871C15.5053 19.9871 15.6759 19.9217 15.8053 19.7924L19.8052 15.7924C20.0652 15.5324 20.0652 15.1097 19.8052 14.8497L17.1386 12.1831ZM15.3346 18.3776L13.6053 16.6483C14.2746 15.975 15.5813 14.6737 16.6666 13.5951L18.3919 15.3204L15.3346 18.3776Z" fill="#171C27"/>
<path d="M25.1383 4.18319C24.8796 3.92451 24.4583 3.92451 24.197 4.18188C19.8717 8.47653 19.8717 8.47653 20.0504 8.90852C20.085 8.98983 20.133 9.06452 20.1957 9.12583L22.8623 11.7925C22.993 11.9218 23.1636 11.9872 23.3343 11.9872C23.505 11.9872 23.6756 11.9219 23.805 11.7925L27.805 7.79253C28.065 7.53253 28.065 7.10985 27.805 6.84985L25.1383 4.18319ZM23.3343 10.3778L21.605 8.64846C22.2743 7.97516 23.581 6.67379 24.6663 5.59518L26.3916 7.32047L23.3343 10.3778Z" fill="#171C27"/>
</svg>
