<svg width="32" height="32" viewBox="0 0 32 32" fill="none" xmlns="http://www.w3.org/2000/svg">
<path d="M26 21.3334H22C20.8973 21.3334 20 22.2307 20 23.3334V26.0001C20 26.3681 20.2987 26.6667 20.6667 26.6667H27.3334C27.7014 26.6667 28.0001 26.3681 28.0001 26.0001V23.3334C28 22.2307 27.1027 21.3334 26 21.3334ZM26.6667 25.3334H21.3334V23.3334C21.3334 22.9654 21.6321 22.6667 22.0001 22.6667H26.0001C26.3681 22.6667 26.6668 22.9654 26.6668 23.3334V25.3334H26.6667Z" fill="#171C27"/>
<path d="M26 14.6667H22C20.8973 14.6667 20 15.5641 20 16.6667V19.3334C20 19.7014 20.2987 20.0001 20.6667 20.0001H27.3334C27.7014 20.0001 28.0001 19.7014 28.0001 19.3334V16.6667C28 15.5641 27.1027 14.6667 26 14.6667ZM26.6667 18.6667H21.3334V16.6667C21.3334 16.2987 21.6321 16.0001 22.0001 16.0001H26.0001C26.3681 16.0001 26.6668 16.2987 26.6668 16.6667V18.6667H26.6667Z" fill="#171C27"/>
<path d="M10.1079 20.4988C10.3866 19.3081 11.1439 18.4641 11.1532 18.4548C11.4039 18.1855 11.3892 17.7641 11.1212 17.5135C10.8532 17.2642 10.4332 17.2762 10.1812 17.5428C10.1292 17.5988 9.11192 18.7148 8.77854 20.3388C7.73323 19.7068 7.16523 18.7255 7.15854 18.7135C6.97986 18.3935 6.57586 18.2762 6.25323 18.4535C5.93192 18.6308 5.81454 19.0348 5.99054 19.3562C6.02785 19.4229 6.77454 20.7349 8.21723 21.5535C7.29323 22.3535 6.18392 22.5908 6.16923 22.5935C5.80792 22.6628 5.57192 23.0122 5.64123 23.3735C5.70392 23.6908 5.98123 23.9135 6.29454 23.9135C6.33585 23.9135 6.37723 23.9095 6.41986 23.9028C6.49454 23.8881 7.97317 23.5841 9.19717 22.4655C9.66917 23.5908 9.55317 24.7162 9.55186 24.7308C9.50786 25.0961 9.76786 25.4281 10.1319 25.4735C10.1599 25.4775 10.1879 25.4788 10.2159 25.4788C10.5465 25.4788 10.8332 25.2348 10.8759 24.8961C10.8852 24.8214 11.0519 23.3214 10.3665 21.8108C11.5825 21.7081 12.6199 22.1695 12.6332 22.1748C12.7239 22.2175 12.8185 22.2375 12.9132 22.2375C13.1639 22.2375 13.4052 22.0962 13.5185 21.8535C13.6732 21.5202 13.5319 21.1255 13.1999 20.9682C13.1332 20.9361 11.7559 20.3148 10.1079 20.4988Z" fill="#171C27"/>
<path d="M31.2467 13.2494L26.0027 3.13337C25.428 2.02269 24.2947 1.33337 23.044 1.33337H8.95331C7.704 1.33337 6.57062 2.02269 5.99462 3.13337L0.746687 13.2574C0.286687 13.8294 0 14.5454 0 15.3334V27.3334C0 29.1707 1.496 30.6667 3.33331 30.6667H28.6666C30.5039 30.6667 31.9999 29.1707 31.9999 27.3334V15.3334C32 14.5414 31.7107 13.8227 31.2467 13.2494ZM7.17869 3.74675C7.524 3.08006 8.204 2.66675 8.95469 2.66675H23.0454C23.7961 2.66675 24.4761 3.08006 24.8214 3.74675L29.1241 12.0467C28.9734 12.0254 28.8227 12.0001 28.6667 12.0001H3.33331C3.17731 12.0001 3.02662 12.0254 2.876 12.0467L7.17869 3.74675ZM30.6667 27.3334C30.6667 28.4361 29.7694 29.3334 28.6667 29.3334H3.33331C2.23062 29.3334 1.33331 28.4361 1.33331 27.3334V15.3334C1.33331 14.2307 2.23062 13.3334 3.33331 13.3334H28.6666C29.7693 13.3334 30.6666 14.2307 30.6666 15.3334V27.3334H30.6667Z" fill="#171C27"/>
<path d="M9.3332 14.6667C5.65719 14.6667 2.6665 17.6574 2.6665 21.3334C2.66657 25.0094 5.65719 28.0001 9.3332 28.0001C13.0092 28.0001 15.9999 25.0094 15.9999 21.3334C15.9999 17.6574 13.0092 14.6667 9.3332 14.6667ZM9.3332 26.6668C6.39188 26.6668 3.99988 24.2748 3.99988 21.3334C3.99988 18.3921 6.39188 16.0001 9.3332 16.0001C12.2745 16.0001 14.6665 18.3921 14.6665 21.3334C14.6666 24.2748 12.2746 26.6668 9.3332 26.6668Z" fill="#171C27"/>
</svg>
