<svg width="32" height="32" viewBox="0 0 32 32" fill="none" xmlns="http://www.w3.org/2000/svg">
<path d="M28.6667 1.33325H3.33331C1.496 1.33325 0 2.82925 0 4.66663V21.9999C0 23.8373 1.496 25.3333 3.33331 25.3333H12.648C12.552 27.9773 11.892 29.3333 10.6667 29.3333C10.2987 29.3333 10 29.6319 10 29.9999C10 30.3679 10.2987 30.6666 10.6667 30.6666H21.3334C21.7014 30.6666 21.9987 30.3679 21.9987 29.9999C21.9987 29.6319 21.7 29.3333 21.332 29.3333C20.1067 29.3333 19.4467 27.9773 19.3507 25.3333H28.6667C30.504 25.3333 32 23.8373 32 21.9999V4.66663C32 2.82925 30.504 1.33325 28.6667 1.33325ZM13.06 29.3333C13.6147 28.4466 13.9107 27.0946 13.9733 25.3333H18.0253C18.088 27.0946 18.384 28.4466 18.9386 29.3333H13.06ZM30.6667 21.9999C30.6667 23.1026 29.7694 23.9999 28.6667 23.9999H3.33331C2.23063 23.9999 1.33331 23.1026 1.33331 21.9999V19.9999H30.6666V21.9999H30.6667ZM30.6667 18.6666H1.33331V4.66663C1.33331 3.56394 2.23063 2.66663 3.33331 2.66663H28.6666C29.7693 2.66663 30.6666 3.56394 30.6666 4.66663V18.6666H30.6667Z" fill="#171C27"/>
<path d="M26.0266 22.6666C26.3946 22.6666 26.6933 22.3679 26.6933 21.9999C26.6933 21.6319 26.3946 21.3333 26.0266 21.3333H26.0133C25.6453 21.3333 25.3533 21.6319 25.3533 21.9999C25.3532 22.3679 25.6586 22.6666 26.0266 22.6666Z" fill="#171C27"/>
<path d="M16.0001 23.3333C16.7361 23.3333 17.3334 22.7359 17.3334 21.9999C17.3334 21.2639 16.7361 20.6666 16.0001 20.6666C15.2641 20.6666 14.6667 21.2639 14.6667 21.9999C14.6667 22.7359 15.2641 23.3333 16.0001 23.3333Z" fill="#171C27"/>
</svg>
