<svg width="32" height="32" viewBox="0 0 32 32" fill="none" xmlns="http://www.w3.org/2000/svg">
<path d="M28.5217 4.86951H3.47827C3.09427 4.86951 2.78259 5.18118 2.78259 5.56518V22.2608C2.78259 22.6448 3.09427 22.9565 3.47827 22.9565H28.5217C28.9057 22.9565 29.2174 22.6448 29.2174 22.2608V5.56518C29.2174 5.18112 28.9057 4.86951 28.5217 4.86951ZM27.8261 21.5651H4.17394V6.26079H27.8261V21.5651Z" fill="#171C27"/>
<path d="M29.913 2.08691H2.08696C0.936325 2.08691 0 3.02324 0 4.17387V23.6521C0 24.8028 0.936325 25.7391 2.08696 25.7391H15.3044V28.5217H9.04349C8.65949 28.5217 8.34782 28.8334 8.34782 29.2174C8.34782 29.6014 8.65949 29.9131 9.04349 29.9131H22.9565C23.3405 29.9131 23.6522 29.6014 23.6522 29.2174C23.6522 28.8334 23.3405 28.5217 22.9565 28.5217H16.6956V25.7391H29.913C31.0637 25.7391 32 24.8028 32 23.6521V4.17387C32 3.02324 31.0636 2.08691 29.913 2.08691ZM30.6087 23.6521C30.6087 24.0361 30.297 24.3478 29.913 24.3478H2.08696C1.70296 24.3478 1.39128 24.0361 1.39128 23.6521V4.17387C1.39128 3.78987 1.70296 3.4782 2.08696 3.4782H29.913C30.297 3.4782 30.6087 3.78987 30.6087 4.17387V23.6521H30.6087Z" fill="#171C27"/>
</svg>
