<svg width="32" height="32" viewBox="0 0 32 32" fill="none" xmlns="http://www.w3.org/2000/svg">
<g clip-path="url(#clip0)">
<path d="M25.9987 7.3338C27.8359 7.3338 29.3318 5.83787 29.3318 4.00064C29.3318 3.63266 29.0332 3.33398 28.6652 3.33398C26.828 3.33398 25.332 4.82991 25.332 6.66714C25.332 7.03519 25.6307 7.3338 25.9987 7.3338ZM27.8039 4.86191C27.6066 5.27389 27.2719 5.60857 26.8613 5.80456C27.0586 5.39258 27.3919 5.05928 27.8039 4.86191Z" fill="#171C27"/>
<path d="M31.8946 15.528C31.7879 15.3627 31.6159 15.2521 31.4213 15.2267C30.4707 15.1014 29.7534 14.3215 29.7534 13.4121C29.7534 12.6175 30.2921 11.9189 31.096 11.6695C31.2973 11.6082 31.456 11.4549 31.5267 11.2576C31.5974 11.0589 31.5707 10.8403 31.4547 10.6656C30.6774 9.48833 29.4361 8.66699 28.4361 8.66699C27.7669 8.66699 27.1629 8.86298 26.6309 9.03497C26.2189 9.16828 25.8309 9.29496 25.5096 9.29496C25.1883 9.29496 24.8004 9.16828 24.3884 9.03497C23.8551 8.86167 23.2511 8.66699 22.5832 8.66699C21.0245 8.66699 18.666 10.6842 18.666 13.7254C18.666 16.592 20.8592 20.6664 22.9085 20.6664C23.8885 20.6664 24.4858 20.4077 24.9231 20.2198C25.1191 20.1358 25.2484 20.0918 25.3658 20.0664C25.4018 20.4011 25.6804 20.6664 26.0257 20.6664C26.2417 20.6664 26.4244 20.5571 26.5457 20.3984C26.9337 20.5384 27.4244 20.6664 28.1097 20.6664C29.6429 20.6664 31.2762 18.3358 31.9708 16.084C32.0279 15.896 32.0013 15.6933 31.8946 15.528ZM28.1081 19.3319C27.4028 19.3319 27.0068 19.1612 26.6215 18.9946C26.2922 18.8519 25.9508 18.7053 25.5082 18.7053C25.0669 18.7053 24.7256 18.8533 24.3949 18.9946C24.011 19.1599 23.6123 19.3319 22.9083 19.3319C22.0417 19.3319 19.9991 16.3987 19.9991 13.7241C19.9991 11.3042 21.8324 9.99899 22.583 9.99899C23.0417 9.99899 23.4963 10.147 23.9763 10.303C24.4683 10.4617 24.9775 10.627 25.5082 10.627C26.0389 10.627 26.5482 10.463 27.0401 10.303C27.5201 10.1457 27.9748 9.99899 28.4334 9.99899C28.7334 9.99899 29.3107 10.2537 29.848 10.7936C28.9667 11.3709 28.4174 12.3389 28.4174 13.4095C28.4174 14.7188 29.256 15.8707 30.464 16.3454C29.7654 18.1119 28.6361 19.3319 28.1081 19.3319Z" fill="#171C27"/>
<path d="M27.3254 21.9825C26.9987 21.8092 26.5948 21.9345 26.4241 22.2598C26.0735 22.9224 25.4002 23.333 24.6655 23.333H3.33316C2.23052 23.333 1.33325 22.4358 1.33325 21.3331V20.6665H18.6658C19.0337 20.6665 19.3324 20.3678 19.3324 19.9998C19.3324 19.6318 19.0337 19.3332 18.6658 19.3332H1.33325V6.6672C1.33325 5.56457 2.23052 4.6673 3.33316 4.6673H24.0749C24.4429 4.6673 24.7415 4.36862 24.7415 4.00064C24.7415 3.63266 24.4429 3.33398 24.0749 3.33398H3.33316C1.49593 3.33398 0 4.82991 0 6.6672V21.3332C0 23.1704 1.49593 24.6664 3.33316 24.6664H11.3141C11.2461 26.0036 10.9434 27.3329 9.99947 27.3329C9.63149 27.3329 9.33281 27.6316 9.33281 27.9996C9.33281 28.3676 9.63149 28.6662 9.99947 28.6662H17.9991C18.3671 28.6662 18.6644 28.3676 18.6644 27.9996C18.6644 27.6316 18.3657 27.3329 17.9977 27.3329C17.0538 27.3329 16.7511 26.0037 16.6831 24.6664H24.6654C25.8947 24.6664 27.0213 23.9837 27.6026 22.8838C27.7747 22.5585 27.6507 22.1545 27.3254 21.9825ZM12.0821 27.3329C12.4074 26.6836 12.5888 25.7836 12.6421 24.6663H15.3553C15.4086 25.7836 15.59 26.6835 15.9153 27.3329H12.0821Z" fill="#171C27"/>
</g>
<defs>
<clipPath id="clip0">
<path d="M0 0H32V32H0V0Z" fill="white"/>
</clipPath>
</defs>
</svg>
