<svg width="32" height="32" viewBox="0 0 32 32" fill="none" xmlns="http://www.w3.org/2000/svg">
<path d="M28.6656 27.9995H3.33317C2.96518 27.9995 2.6665 28.2982 2.6665 28.6662C2.6665 29.0342 2.96518 29.3328 3.33317 29.3328H28.6655C29.0335 29.3328 29.3322 29.0342 29.3322 28.6662C29.3322 28.2982 29.0336 27.9995 28.6656 27.9995Z" fill="#171C27"/>
<path d="M31.7468 22.8758L29.7522 18.8839C29.5882 18.5559 29.1869 18.4199 28.8576 18.5852C28.5283 18.7492 28.3936 19.1505 28.5589 19.4799L29.4935 21.3491C29.4388 21.3464 29.3868 21.3331 29.3322 21.3331H2.66659C2.61059 21.3331 2.55859 21.3464 2.50391 21.3491L8.08239 10.1855C8.10239 10.1589 8.11839 10.1282 8.13307 10.0989C8.35707 9.62687 8.81705 9.33357 9.33303 9.33357H16.8608C17.2287 9.33357 17.5274 9.03489 17.5274 8.66691C17.5274 8.29892 17.2287 8.00024 16.8608 8.00024H9.33297C8.34232 8.00024 7.42504 8.56554 6.96774 9.44419C6.95174 9.4695 6.93706 9.4935 6.92374 9.52019L0.250678 22.8744C0.246678 22.8824 0.247991 22.8917 0.243991 22.9011C0.0893092 23.2371 0 23.6064 0 23.9997V29.3328C0 30.8035 1.19596 31.9994 2.66659 31.9994H29.3323C30.8029 31.9994 31.9989 30.8035 31.9989 29.3328V23.9997C31.9989 23.6064 31.9069 23.2358 31.7536 22.8998C31.7495 22.8918 31.7508 22.8838 31.7468 22.8758ZM30.6656 29.3328C30.6656 30.0688 30.0669 30.6661 29.3323 30.6661H2.66659C1.93193 30.6661 1.33333 30.0688 1.33333 29.3328V23.9997C1.33333 23.2638 1.93199 22.6665 2.66659 22.6665H29.3323C30.0669 22.6665 30.6656 23.2638 30.6656 23.9997V29.3328Z" fill="#171C27"/>
<path d="M25.9989 4.00046C27.8362 4.00046 29.3321 2.50583 29.3321 0.667273C29.3321 0.299287 29.0335 0.000610352 28.6655 0.000610352C26.8282 0.000610352 25.3323 1.49524 25.3323 3.3338C25.3323 3.70179 25.631 4.00046 25.9989 4.00046ZM27.8042 1.52855C27.6069 1.94054 27.2722 2.27384 26.8615 2.47121C27.0589 2.05916 27.3922 1.72586 27.8042 1.52855Z" fill="#171C27"/>
<path d="M3.99977 26.6663C4.73574 26.6663 5.33303 26.069 5.33303 25.333C5.33303 24.597 4.73574 23.9998 3.99977 23.9998C3.26379 23.9998 2.6665 24.597 2.6665 25.333C2.6665 26.069 3.26248 26.6663 3.99977 26.6663Z" fill="#171C27"/>
<path d="M7.99976 26.6663C8.73574 26.6663 9.33302 26.069 9.33302 25.333C9.33302 24.597 8.73574 23.9998 7.99976 23.9998C7.26379 23.9998 6.6665 24.597 6.6665 25.333C6.6665 26.069 7.26248 26.6663 7.99976 26.6663Z" fill="#171C27"/>
<path d="M22.9085 17.3333C23.8885 17.3333 24.4871 17.076 24.9231 16.8866C25.4764 16.6493 25.5458 16.6506 26.0937 16.8866C26.5297 17.0759 27.1297 17.3333 28.1097 17.3333C29.6429 17.3333 31.2762 15.0027 31.9708 12.7495C32.0282 12.5615 32.0002 12.3588 31.8949 12.1935C31.7882 12.0295 31.6149 11.9188 31.4202 11.8922C30.4709 11.7682 29.7536 10.9882 29.7536 10.0789C29.7536 9.28428 30.2922 8.5843 31.0948 8.33631C31.2961 8.275 31.4561 8.12163 31.5268 7.92433C31.5975 7.72702 31.5708 7.50703 31.4548 7.33235C30.6775 6.15508 29.4362 5.33374 28.4362 5.33374C27.7669 5.33374 27.163 5.52842 26.631 5.70173C26.219 5.83372 25.831 5.9604 25.5097 5.9604C25.1884 5.9604 24.8004 5.8351 24.3884 5.70173C23.8551 5.52842 23.2512 5.33374 22.5832 5.33374C21.0246 5.33374 18.666 7.35098 18.666 10.3922C18.666 13.2588 20.8606 17.3333 22.9085 17.3333ZM22.5832 6.667C23.0419 6.667 23.4965 6.81368 23.9778 6.97099C24.4698 7.12967 24.9791 7.29498 25.5098 7.29498C26.0404 7.29498 26.5497 7.12967 27.0417 6.97099C27.5217 6.81368 27.9764 6.667 28.435 6.667C28.735 6.667 29.3123 6.92168 29.8496 7.46166C28.9683 8.04032 28.419 9.00829 28.419 10.0789C28.419 11.3868 29.2576 12.5401 30.4656 13.0134C29.7669 14.7801 28.6377 16 28.1097 16C27.4044 16 27.007 15.828 26.6217 15.6627C26.2924 15.5187 25.9511 15.372 25.5085 15.372C25.0672 15.372 24.7258 15.52 24.3952 15.6627C24.0112 15.828 23.6125 16 22.9085 16C22.0419 16 19.9993 13.0668 19.9993 10.3922C19.9993 7.97233 21.8325 6.667 22.5832 6.667Z" fill="#171C27"/>
</svg>
