<svg width="32" height="32" viewBox="0 0 32 32" fill="none" xmlns="http://www.w3.org/2000/svg">
<path d="M24.6667 0H7.33331C5.496 0 4 1.496 4 3.33331V28.6666C4 30.504 5.496 32 7.33331 32H24.6666C26.504 32 28 30.504 28 28.6667V3.33331C28 1.496 26.504 0 24.6667 0ZM26.6667 28.6667C26.6667 29.7694 25.7694 30.6667 24.6667 30.6667H7.33331C6.23063 30.6667 5.33331 29.7694 5.33331 28.6667V3.33331C5.33331 2.23063 6.23063 1.33331 7.33331 1.33331H24.6666C25.7693 1.33331 26.6666 2.23063 26.6666 3.33331V28.6667H26.6667Z" fill="#171C27"/>
<path d="M24.6667 2.66528H11.3333C11.156 2.66528 10.9866 2.7346 10.8613 2.85997L6.86131 6.85997C6.73731 6.98528 6.66663 7.15466 6.66663 7.33197V19.636C6.66663 24.8307 10.7253 29.1787 15.7133 29.3293C15.8093 29.332 15.9066 29.3333 16.0026 29.3333C18.4439 29.3333 20.7426 28.404 22.4999 26.696C24.3266 24.9227 25.3333 22.5453 25.3333 19.9987V11.332C25.3333 10.964 25.0346 10.6653 24.6666 10.6653C23.5639 10.6653 22.6666 9.76797 22.6666 8.66528C22.6666 7.5626 23.5639 6.66528 24.6666 6.66528C25.0346 6.66528 25.3333 6.3666 25.3333 5.9986V3.33197C25.3333 2.96397 25.0347 2.66528 24.6667 2.66528ZM24 5.40128C22.48 5.71197 21.3333 7.05728 21.3333 8.66797C21.3333 10.2787 22.48 11.6253 24 11.9347V20.0013C24 22.184 23.1373 24.2227 21.5707 25.7427C20.0054 27.2627 17.9347 28.08 15.7534 27.9974C11.4773 27.868 8 24.1187 8 19.6373V7.60928L11.6093 3.99997H24V5.40128Z" fill="#171C27"/>
<path d="M16 24C18.2053 24 20 22.2053 20 20C20 17.7947 18.2053 16 16 16C13.7947 16 12 17.7947 12 20C12 22.2053 13.7947 24 16 24ZM16 17.3333C17.4707 17.3333 18.6667 18.5293 18.6667 20C18.6667 21.4707 17.4707 22.6667 16 22.6667C14.5293 22.6667 13.3333 21.4707 13.3333 20C13.3333 18.5293 14.5293 17.3333 16 17.3333Z" fill="#171C27"/>
</svg>
