<svg width="32" height="32" viewBox="0 0 32 32" fill="none" xmlns="http://www.w3.org/2000/svg">
<path d="M4.00006 25.3333C4.73606 25.3333 5.33337 24.7359 5.33337 23.9999C5.33337 23.2639 4.73606 22.6666 4.00006 22.6666C3.26406 22.6666 2.66675 23.2639 2.66675 23.9999C2.66675 24.7359 3.26406 25.3333 4.00006 25.3333Z" fill="#171C27"/>
<path d="M28.6667 26.6666H3.33331C2.96531 26.6666 2.66663 26.9653 2.66663 27.3333C2.66663 27.7013 2.96531 28 3.33331 28H28.6666C29.0346 28 29.3333 27.7013 29.3333 27.3333C29.3333 26.9653 29.0347 26.6666 28.6667 26.6666Z" fill="#171C27"/>
<path d="M8.00006 25.3333C8.73607 25.3333 9.33338 24.7359 9.33338 23.9999C9.33338 23.2639 8.73607 22.6666 8.00006 22.6666C7.26406 22.6666 6.66675 23.2639 6.66675 23.9999C6.66675 24.7359 7.26406 25.3333 8.00006 25.3333Z" fill="#171C27"/>
<path d="M27.3334 4H26.0001C25.6321 4 25.3334 4.29869 25.3334 4.66669V10C25.3334 10.368 25.6321 10.6667 26.0001 10.6667H27.3334C28.4361 10.6667 29.3334 9.76938 29.3334 8.66669V6C29.3334 4.89731 28.4361 4 27.3334 4ZM28.0001 8.66669C28.0001 9.03338 27.7014 9.33337 27.3334 9.33337H26.6667V5.33337H27.3334C27.7014 5.33337 28.0001 5.63337 28.0001 6.00006V8.66669Z" fill="#171C27"/>
<path d="M32 11.3333V3.33325C32 2.23056 31.1027 1.33325 30 1.33325H12.6667C11.564 1.33325 10.6667 2.23056 10.6667 3.33325V6.66656H9.33337C8.34269 6.66656 7.42537 7.23188 6.96806 8.11056C6.95206 8.13588 6.93738 8.15988 6.92406 8.18656L0.250688 21.5413C0.246688 21.5493 0.248 21.5586 0.244 21.5679C0.0906875 21.9039 0 22.2733 0 22.6666V27.9999C0 29.4706 1.196 30.6666 2.66669 30.6666H29.3334C30.804 30.6666 32 29.4706 32 27.9999V22.6666C32 22.2733 31.9093 21.9026 31.756 21.5666C31.752 21.5586 31.7533 21.5506 31.7493 21.5426L27.6466 13.3333H30C31.1027 13.3333 32 12.4359 32 11.3333ZM30.6667 22.6666V27.9999C30.6667 28.7359 30.068 29.3333 29.3334 29.3333H2.66669C1.932 29.3333 1.33337 28.7359 1.33337 27.9999V22.6666C1.33337 21.9306 1.93206 21.3333 2.66669 21.3333H29.3334C30.068 21.3333 30.6667 21.9306 30.6667 22.6666ZM29.496 20.0159C29.4413 20.0133 29.3893 19.9999 29.3333 19.9999H2.66669C2.61069 19.9999 2.55869 20.0133 2.504 20.0159L8.08269 8.85194C8.10269 8.82525 8.11869 8.79463 8.13338 8.76525C8.35738 8.29325 8.81738 7.99994 9.33337 7.99994H10.6667V11.3333C10.6667 12.4359 11.564 13.3333 12.6667 13.3333H26.156L29.496 20.0159ZM12.6667 11.9999C12.2987 11.9999 12 11.6999 12 11.3333V3.33325C12 2.96656 12.2987 2.66656 12.6667 2.66656H30C30.368 2.66656 30.6667 2.96656 30.6667 3.33325V11.3333C30.6667 11.6999 30.368 11.9999 30 11.9999H12.6667Z" fill="#171C27"/>
<path d="M17.9999 4C17.6319 4 17.3332 4.29869 17.3332 4.66669V6.66669H14.6666V4.66669C14.6666 4.29869 14.3679 4 13.9999 4C13.6319 4 13.3333 4.29869 13.3333 4.66669V10C13.3333 10.368 13.6319 10.6667 13.9999 10.6667C14.3679 10.6667 14.6666 10.368 14.6666 10V8H17.3333V10C17.3333 10.368 17.632 10.6667 18 10.6667C18.368 10.6667 18.6667 10.368 18.6667 10V4.66669C18.6666 4.29869 18.3679 4 17.9999 4Z" fill="#171C27"/>
<path d="M22 4H20.6667C20.2987 4 20 4.29869 20 4.66669V10C20 10.368 20.2987 10.6667 20.6667 10.6667H22C23.1027 10.6667 24 9.76938 24 8.66669V6C24 4.89731 23.1027 4 22 4ZM22.6667 8.66669C22.6667 9.03338 22.368 9.33337 22 9.33337H21.3333V5.33337H22C22.368 5.33337 22.6667 5.63337 22.6667 6.00006V8.66669Z" fill="#171C27"/>
</svg>
