<svg width="32" height="32" viewBox="0 0 32 32" fill="none" xmlns="http://www.w3.org/2000/svg">
<path d="M8.00006 22.6667C8.73607 22.6667 9.33338 22.0694 9.33338 21.3334C9.33338 20.5974 8.73607 20.0001 8.00006 20.0001C7.26406 20.0001 6.66675 20.5974 6.66675 21.3334C6.66675 22.0694 7.26406 22.6667 8.00006 22.6667Z" fill="#171C27"/>
<path d="M4.00006 22.6667C4.73606 22.6667 5.33337 22.0694 5.33337 21.3334C5.33337 20.5973 4.73606 20 4.00006 20C3.26406 20 2.66675 20.5973 2.66675 21.3333C2.66675 22.0693 3.26406 22.6667 4.00006 22.6667Z" fill="#171C27"/>
<path d="M31.748 18.8867C31.7467 18.8827 31.7467 18.8787 31.7453 18.8747L25.072 5.52C25.06 5.496 25.0453 5.472 25.0293 5.448C24.5733 4.56531 23.6547 4 22.664 4H9.33069C8.34138 4 7.424 4.564 6.968 5.444C6.95069 5.468 6.936 5.49469 6.92269 5.52131L0.249313 18.876C0.245313 18.8853 0.245312 18.8947 0.241313 18.904C0.0893125 19.24 0 19.608 0 20V25.3333C0 26.804 1.196 28 2.66669 28H29.3334C30.804 28 32 26.804 32 25.3333V20C32 19.6013 31.9067 19.2267 31.748 18.8867ZM8.08131 6.18931C8.10131 6.16131 8.11862 6.132 8.13331 6.1C8.35862 5.628 8.81731 5.33469 9.33331 5.33469H22.6666C23.1826 5.33469 23.6426 5.628 23.8666 6.1C23.8813 6.12931 23.8973 6.15731 23.9159 6.18531L29.4959 17.3493C29.4412 17.3466 29.3892 17.3333 29.3333 17.3333H2.66669C2.61069 17.3333 2.55869 17.3466 2.504 17.3493L8.08131 6.18931ZM30.6667 25.3333C30.6667 26.068 30.068 26.6666 29.3334 26.6666H2.66669C1.932 26.6666 1.33337 26.0679 1.33337 25.3333V20C1.33337 19.2653 1.93206 18.6667 2.66669 18.6667H29.3334C30.0681 18.6667 30.6667 19.2654 30.6667 20V25.3333Z" fill="#171C27"/>
<path d="M28.6666 24H3.33319C2.96519 24 2.6665 24.2987 2.6665 24.6667C2.6665 25.0347 2.96519 25.3334 3.33319 25.3334H28.6665C29.0345 25.3334 29.3332 25.0347 29.3332 24.6667C29.3332 24.2987 29.0346 24 28.6666 24Z" fill="#171C27"/>
</svg>
