<svg width="32" height="32" viewBox="0 0 32 32" fill="none" xmlns="http://www.w3.org/2000/svg">
<path d="M21.7444 15.9492C21.8271 15.9825 21.9137 15.9999 21.9991 15.9999C22.2164 15.9999 22.4271 15.8932 22.5564 15.7026L26.2295 10.1921L28.3695 11.2628C28.5441 11.3521 28.7494 11.3561 28.9294 11.2801C29.1094 11.2028 29.2467 11.0494 29.3041 10.8628L31.9707 2.19644C32.076 1.84977 31.888 1.48178 31.544 1.36716L27.5442 0.0339013C27.3535 -0.0274088 27.1442 -0.00340973 26.9735 0.105899C26.8042 0.213894 26.6922 0.393888 26.6695 0.592567L26.1082 5.64306L24.2976 4.73641C24.1123 4.64441 23.8949 4.64173 23.707 4.73372C23.519 4.82572 23.3857 4.99902 23.3457 5.20302L21.3457 15.2026C21.2831 15.5146 21.4498 15.8265 21.7444 15.9492ZM24.4817 6.32029L26.3683 7.26425C26.5616 7.36156 26.7936 7.35625 26.9843 7.25356C27.1749 7.14957 27.3042 6.95757 27.3282 6.74158L27.9042 1.56047L30.5041 2.42712L28.2602 9.71884L26.2976 8.73757C25.9963 8.58557 25.6309 8.68426 25.4443 8.96425L23.3137 12.1601L24.4817 6.32029Z" fill="#171C27"/>
<path d="M31.7468 22.8756L26.9589 13.296C26.795 12.968 26.3937 12.8307 26.0643 12.9973C25.735 13.1613 25.6003 13.5626 25.7656 13.892L29.4922 21.349C29.4388 21.3463 29.3869 21.333 29.3322 21.333H2.66658C2.61059 21.333 2.55859 21.3463 2.5039 21.349L8.08237 10.1854C8.10237 10.1587 8.11837 10.1281 8.13306 10.0987C8.35705 9.62675 8.81703 9.33344 9.33301 9.33344H20.6126C20.9806 9.33344 21.2792 9.03477 21.2792 8.66678C21.2792 8.2988 20.9806 8.00012 20.6126 8.00012H9.33301C8.34236 8.00012 7.42508 8.56541 6.96779 9.44406C6.95179 9.46938 6.9371 9.49338 6.92379 9.52006L0.250678 22.8742C0.246678 22.8822 0.24799 22.8915 0.24399 22.9009C0.089309 23.2369 0 23.6062 0 23.9996V29.3327C0 30.8033 1.19595 31.9992 2.66658 31.9992H29.3322C30.8029 31.9992 31.9988 30.8033 31.9988 29.3327V23.9996C31.9988 23.6063 31.9081 23.2356 31.7535 22.8996C31.7494 22.8916 31.7508 22.8836 31.7468 22.8756ZM30.6655 29.3327C30.6655 30.0686 30.0668 30.6659 29.3322 30.6659H2.66658C1.93192 30.6659 1.33332 30.0686 1.33332 29.3327V23.9996C1.33332 23.2636 1.93199 22.6663 2.66658 22.6663H29.3322C30.0669 22.6663 30.6655 23.2636 30.6655 23.9996V29.3327Z" fill="#171C27"/>
<path d="M7.99964 26.6662C8.73561 26.6662 9.3329 26.0689 9.3329 25.3329C9.3329 24.5969 8.73561 23.9996 7.99964 23.9996C7.26367 23.9996 6.66638 24.5969 6.66638 25.3329C6.66638 26.0689 7.26236 26.6662 7.99964 26.6662Z" fill="#171C27"/>
<path d="M3.99989 26.6662C4.73586 26.6662 5.33315 26.0689 5.33315 25.3329C5.33315 24.5969 4.73586 23.9996 3.99989 23.9996C3.26392 23.9996 2.66663 24.5969 2.66663 25.3329C2.66663 26.0689 3.2626 26.6662 3.99989 26.6662Z" fill="#171C27"/>
<path d="M28.6655 27.9994H3.33317C2.96518 27.9994 2.6665 28.2981 2.6665 28.6661C2.6665 29.034 2.96518 29.3327 3.33317 29.3327H28.6655C29.0335 29.3327 29.3321 29.034 29.3321 28.6661C29.3321 28.2981 29.0335 27.9994 28.6655 27.9994Z" fill="#171C27"/>
</svg>
