<svg width="32" height="32" viewBox="0 0 32 32" fill="none" xmlns="http://www.w3.org/2000/svg">
<path d="M5.33331 19.9988C4.59731 19.9988 4 20.5961 4 21.3321C4 22.0681 4.59731 22.6654 5.33331 22.6654C6.06931 22.6654 6.66663 22.0681 6.66663 21.3321C6.66663 20.5961 6.06931 19.9988 5.33331 19.9988Z" fill="#171C27"/>
<path d="M31.5787 20.588C31.5774 20.5853 31.5787 20.5827 31.5774 20.5813L25.16 6.02534C24.7413 4.81465 23.6053 4.00134 22.3333 4.00134H9.66669C8.39469 4.00134 7.25869 4.81465 6.86137 5.97334L0.424 20.5813C0.424 20.5827 0.424 20.584 0.424 20.584C0.150687 21.224 0 21.9267 0 22.6653C0 25.6067 2.392 27.9987 5.33331 27.9987H26.6666C29.6079 27.9987 31.9999 25.6067 31.9999 22.6653C32 21.9293 31.8493 21.2267 31.5787 20.588ZM8.10131 6.45872C8.33331 5.7854 8.96262 5.33341 9.66662 5.33341H22.3333C23.036 5.33341 23.6666 5.78541 23.9186 6.50941L28.9146 17.8467C28.2293 17.5254 27.4719 17.3334 26.6666 17.3334H5.33331C4.528 17.3334 3.77062 17.5267 3.08531 17.8467L8.10131 6.45872ZM26.6667 26.6653H5.33331C3.128 26.6653 1.33331 24.8707 1.33331 22.6653C1.33331 20.46 3.128 18.6653 5.33331 18.6653H26.6666C28.8719 18.6653 30.6666 20.46 30.6666 22.6653C30.6667 24.8707 28.872 26.6653 26.6667 26.6653Z" fill="#171C27"/>
<path d="M26 23.9988H11.3333C10.9653 23.9988 10.6666 24.2975 10.6666 24.6655C10.6666 25.0335 10.9653 25.3322 11.3333 25.3322H26C26.368 25.3322 26.6667 25.0335 26.6667 24.6655C26.6667 24.2974 26.368 23.9988 26 23.9988Z" fill="#171C27"/>
<path d="M26 21.332H11.3333C10.9653 21.332 10.6666 21.6307 10.6666 21.9987C10.6666 22.3667 10.9653 22.6654 11.3333 22.6654H26C26.368 22.6654 26.6667 22.3667 26.6667 21.9987C26.6667 21.6307 26.368 21.332 26 21.332Z" fill="#171C27"/>
</svg>
