<svg width="32" height="32" viewBox="0 0 32 32" fill="none" xmlns="http://www.w3.org/2000/svg">
<g clip-path="url(#clip0)">
<path d="M24.6671 14.6667C26.6803 14.6667 28.5069 13.8494 29.8336 12.5308C29.8389 12.5255 29.8469 12.5241 29.8522 12.5188C29.8576 12.5135 29.8589 12.5055 29.8642 12.5001C31.1829 11.1735 32.0002 9.34691 32.0002 7.33362C32.0002 3.2911 28.711 0.000610352 24.6671 0.000610352C22.6512 0.000610352 20.822 0.819264 19.4953 2.14052C19.4913 2.14452 19.486 2.14583 19.482 2.14983C19.478 2.15383 19.4767 2.15915 19.4727 2.16315C18.1515 3.48978 17.3341 5.3177 17.3341 7.33362C17.334 11.3762 20.6232 14.6667 24.6671 14.6667ZM24.6671 1.33393C27.9763 1.33393 30.6668 4.02582 30.6668 7.33368C30.6668 8.74694 30.1549 10.0309 29.3336 11.0575L20.9419 2.66719C21.9685 1.84591 23.2524 1.33393 24.6671 1.33393ZM19.9993 3.60984L28.3909 12.0002C27.3643 12.8215 26.0803 13.3334 24.6671 13.3334C21.3592 13.3334 18.6673 10.6415 18.6673 7.33368C18.6673 5.92043 19.178 4.63648 19.9993 3.60984Z" fill="#171C27"/>
<path d="M28.6655 27.9995H3.33316C2.96518 27.9995 2.6665 28.2982 2.6665 28.6662C2.6665 29.0342 2.96518 29.3328 3.33316 29.3328H28.6654C29.0334 29.3328 29.3321 29.0342 29.3321 28.6662C29.3321 28.2982 29.0335 27.9995 28.6655 27.9995Z" fill="#171C27"/>
<path d="M31.748 22.8757L28.2482 15.8733C28.0842 15.5453 27.6842 15.408 27.3535 15.5746C27.0242 15.7386 26.8895 16.1399 27.0548 16.4693L29.4934 21.3491C29.4387 21.3464 29.3867 21.3331 29.3321 21.3331H2.66658C2.61058 21.3331 2.55858 21.3464 2.5039 21.3491L8.08236 10.1855C8.10236 10.1588 8.11835 10.1282 8.13304 10.0988C8.35703 9.62687 8.81701 9.33356 9.33299 9.33356H15.4394C15.8074 9.33356 16.1061 9.03489 16.1061 8.6669C16.1061 8.29892 15.8074 8.00024 15.4394 8.00024H9.33299C8.34235 8.00024 7.42507 8.56553 6.96778 9.44419C6.95178 9.4695 6.93709 9.4935 6.92378 9.52018L0.250677 22.8743C0.246677 22.8823 0.24799 22.8916 0.24399 22.901C0.0893088 23.237 0 23.6063 0 23.9996V29.3327C0 30.8034 1.19595 31.9993 2.66658 31.9993H29.3322C30.8028 31.9993 31.9987 30.8034 31.9987 29.3327V23.9996C31.9987 23.6064 31.9081 23.2357 31.7548 22.8997C31.7507 22.8917 31.7507 22.8837 31.748 22.8757ZM30.6654 29.3327C30.6654 30.0687 30.0668 30.666 29.3322 30.666H2.66658C1.93192 30.666 1.33332 30.0687 1.33332 29.3327V23.9996C1.33332 23.2637 1.93198 22.6664 2.66658 22.6664H29.3322C30.0668 22.6664 30.6654 23.2637 30.6654 23.9996V29.3327Z" fill="#171C27"/>
<path d="M7.99964 26.6662C8.73561 26.6662 9.3329 26.0689 9.3329 25.3329C9.3329 24.5969 8.73561 23.9996 7.99964 23.9996C7.26367 23.9996 6.66638 24.5969 6.66638 25.3329C6.66638 26.0689 7.26236 26.6662 7.99964 26.6662Z" fill="#171C27"/>
<path d="M3.99988 26.6662C4.73585 26.6662 5.33314 26.0689 5.33314 25.3329C5.33314 24.5969 4.73585 23.9996 3.99988 23.9996C3.26391 23.9996 2.66663 24.5969 2.66663 25.3329C2.66663 26.0689 3.2626 26.6662 3.99988 26.6662Z" fill="#171C27"/>
</g>
<defs>
<clipPath id="clip0">
<path d="M0 0H32V32H0V0Z" fill="white"/>
</clipPath>
</defs>
</svg>
