<svg width="32" height="32" viewBox="0 0 32 32" fill="none" xmlns="http://www.w3.org/2000/svg">
<path d="M16.6667 3.33331C16.6667 2.96531 16.3681 2.66663 16.0001 2.66663C8.64806 2.66669 2.66675 8.64801 2.66675 16C2.66675 16.368 2.96544 16.6667 3.33344 16.6667C3.70144 16.6667 4.00006 16.368 4.00006 16C4.00006 9.38401 9.38275 4 16.0001 4C16.3681 4 16.6667 3.70131 16.6667 3.33331Z" fill="#171C27"/>
<path d="M16.0001 14.6667C15.2641 14.6667 14.6667 15.2654 14.6667 16.0001C14.6667 16.7347 15.2641 17.3334 16.0001 17.3334C16.7361 17.3334 17.3334 16.7347 17.3334 16.0001C17.3334 15.2654 16.7361 14.6667 16.0001 14.6667Z" fill="#171C27"/>
<path d="M15.9999 9.33325C12.3239 9.33325 9.33325 12.3239 9.33325 15.9999C9.33325 19.6759 12.3239 22.6666 15.9999 22.6666C19.6759 22.6666 22.6666 19.6759 22.6666 15.9999C22.6666 12.3239 19.6759 9.33325 15.9999 9.33325ZM15.9999 21.3333C13.0586 21.3333 10.6666 18.9413 10.6666 15.9999C10.6666 13.0586 13.0586 10.6666 15.9999 10.6666C18.9413 10.6666 21.3333 13.0586 21.3333 15.9999C21.3333 18.9413 18.9413 21.3333 15.9999 21.3333Z" fill="#171C27"/>
<path d="M16 0C7.17731 0 0 7.17731 0 16C0 24.8227 7.17731 32 16 32C24.8227 32 32 24.8227 32 16C32 7.17731 24.8227 0 16 0ZM16 30.6667C7.91331 30.6667 1.33331 24.0867 1.33331 16C1.33331 7.91331 7.91331 1.33331 16 1.33331C24.0867 1.33331 30.6667 7.91331 30.6667 16C30.6667 24.0867 24.0867 30.6667 16 30.6667Z" fill="#171C27"/>
</svg>
