<svg width="32" height="32" viewBox="0 0 32 32" fill="none" xmlns="http://www.w3.org/2000/svg">
<path d="M4.66657 8.66675C5.03457 8.66675 5.33325 8.36806 5.33325 8.00006C5.33325 7.63206 5.03457 7.33337 4.66657 7.33337H3.33319C2.96519 7.33337 2.6665 7.63206 2.6665 8.00006V10.6667C2.6665 11.0347 2.96519 11.3334 3.33319 11.3334H4.6665C5.0345 11.3334 5.33319 11.0347 5.33319 10.6667C5.33319 10.2987 5.03457 10.0001 4.66657 10.0001H3.99988V8.66675H4.66657Z" fill="#171C27"/>
<path d="M4.66675 14C5.03475 14 5.33344 13.7013 5.33344 13.3333C5.33344 12.9653 5.03475 12.6666 4.66675 12.6666C3.56406 12.6666 2.66675 13.5639 2.66675 14.6666C2.66675 15.7693 3.56406 16.6666 4.66675 16.6666C5.03475 16.6666 5.33344 16.3679 5.33344 15.9999C5.33344 15.6319 5.03475 15.3332 4.66675 15.3332C4.30006 15.3333 4.00006 15.0347 4.00006 14.6667C4.00006 14.2987 4.30006 14 4.66675 14Z" fill="#171C27"/>
<path d="M11.3333 26H1.33331V6H11.3333C11.7013 6 12 5.70131 12 5.33331C12 4.96531 11.7013 4.66663 11.3333 4.66663H0.666687C0.298687 4.66669 0 4.96531 0 5.33331V26.6666C0 27.0346 0.298687 27.3333 0.666687 27.3333H11.3334C11.7014 27.3333 12.0001 27.0346 12.0001 26.6666C12.0001 26.2986 11.7013 26 11.3333 26Z" fill="#171C27"/>
<path d="M28.6667 7.33337H10.0001C8.16137 7.33337 6.66675 8.82937 6.66675 10.6667V21.3334C6.66675 23.1707 8.16144 24.6667 10.0001 24.6667H18.6667V26.0001H14.0001C13.6321 26.0001 13.3334 26.2987 13.3334 26.6667C13.3334 27.0347 13.6321 27.3334 14.0001 27.3334H24.6667C25.0347 27.3334 25.3334 27.0347 25.3334 26.6667C25.3334 26.2987 25.0347 26.0001 24.6667 26.0001H20.0001V24.6667H28.6667C30.5054 24.6667 32.0001 23.1708 32.0001 21.3334V10.6667C32.0001 8.82937 30.5054 7.33337 28.6667 7.33337ZM30.6667 21.3334C30.6667 22.4361 29.7694 23.3334 28.6667 23.3334H10.0001C8.89737 23.3334 8.00006 22.4361 8.00006 21.3334V20.6667H30.6667V21.3334ZM30.6667 19.3334H8.00006V10.6667C8.00006 9.56406 8.89737 8.66675 10.0001 8.66675H28.6667C29.7694 8.66675 30.6667 9.56406 30.6667 10.6667V19.3334Z" fill="#171C27"/>
<path d="M4.66657 22H3.33319C2.96519 22 2.6665 22.2987 2.6665 22.6667C2.6665 23.0347 2.96519 23.3334 3.33319 23.3334H4.6665C5.0345 23.3334 5.33319 23.0347 5.33319 22.6667C5.33319 22.2987 5.03457 22 4.66657 22Z" fill="#171C27"/>
<path d="M4.66657 19.3334H3.33319C2.96519 19.3334 2.6665 19.6321 2.6665 20.0001C2.6665 20.3681 2.96519 20.6667 3.33319 20.6667H4.6665C5.0345 20.6667 5.33319 20.3681 5.33319 20.0001C5.33319 19.6321 5.03457 19.3334 4.66657 19.3334Z" fill="#171C27"/>
</svg>
