<svg width="32" height="32" viewBox="0 0 32 32" fill="none" xmlns="http://www.w3.org/2000/svg">
<path d="M8.66675 28H7.33344C6.96544 28 6.66675 28.2987 6.66675 28.6667C6.66675 29.0347 6.96544 29.3334 7.33344 29.3334H8.66675C9.03475 29.3334 9.33344 29.0347 9.33344 28.6667C9.33344 28.2987 9.03475 28 8.66675 28Z" fill="#171C27"/>
<path d="M11.3332 28C10.9652 28 10.6665 28.2987 10.6665 28.6667C10.6665 29.0347 10.9652 29.3334 11.3332 29.3334C11.7012 29.3334 11.9999 29.0347 11.9999 28.6667C11.9999 28.2987 11.7012 28 11.3332 28Z" fill="#171C27"/>
<path d="M26.0268 14.6667H26.0135C25.6455 14.6667 25.3535 14.9654 25.3535 15.3334C25.3535 15.7014 25.6588 16.0001 26.0268 16.0001C26.3948 16.0001 26.6935 15.7014 26.6935 15.3334C26.6935 14.9654 26.3948 14.6667 26.0268 14.6667Z" fill="#171C27"/>
<path d="M3.33319 26.6667H12.6665C13.0345 26.6667 13.3332 26.3681 13.3332 26.0001C13.3332 25.6321 13.0345 25.3334 12.6665 25.3334H3.33319C2.96519 25.3334 2.6665 25.6321 2.6665 26.0001C2.66657 26.3681 2.96519 26.6667 3.33319 26.6667Z" fill="#171C27"/>
<path d="M32 18V3.33331C32 1.496 30.504 0 28.6667 0H3.33331C1.496 0 0 1.496 0 3.33331V18C0 19.8373 1.496 21.3333 3.33331 21.3333H13.248C13.0627 22.24 12.476 22.6666 11.3333 22.6666H2C0.897313 22.6666 0 23.5639 0 24.6666V30C0 31.1027 0.897313 32 2 32H30C31.1027 32 32 31.1027 32 30V24.6667C32 23.564 31.1027 22.6667 30 22.6667H22C20.8573 22.6667 20.2707 22.24 20.0853 21.3334H28.6666C30.504 21.3333 32 19.8373 32 18ZM1.33331 3.33331C1.33331 2.23063 2.23063 1.33331 3.33331 1.33331H28.6666C29.7693 1.33331 30.6666 2.23063 30.6666 3.33331V17.3333H1.33331V3.33331ZM30 24C30.368 24 30.6667 24.2987 30.6667 24.6667V30C30.6667 30.368 30.368 30.6667 30 30.6667H2C1.632 30.6667 1.33331 30.368 1.33331 30V24.6667C1.33331 24.2987 1.632 24 2 24H30ZM14.1787 22.6667C14.4027 22.3014 14.5227 21.8387 14.592 21.3334H18.7413C18.8106 21.8387 18.9306 22.3014 19.1546 22.6667H14.1787ZM3.33331 20C2.46531 20 1.732 19.4413 1.456 18.6667H30.544C30.268 19.4413 29.5347 20 28.6667 20H3.33331Z" fill="#171C27"/>
<path d="M3.33319 29.3333H4.6665C5.0345 29.3333 5.33319 29.0346 5.33319 28.6666C5.33319 28.2986 5.03457 28 4.66657 28H3.33319C2.96519 28 2.6665 28.2987 2.6665 28.6667C2.6665 29.0347 2.96519 29.3333 3.33319 29.3333Z" fill="#171C27"/>
<path d="M16.6667 29.3334H28.6667C29.0347 29.3334 29.3334 29.0347 29.3334 28.6667V26.0001C29.3334 25.6321 29.0347 25.3334 28.6667 25.3334H16.6667C16.2987 25.3334 16 25.6321 16 26.0001V28.6667C16 29.0347 16.2987 29.3334 16.6667 29.3334ZM17.3333 26.6667H28V28.0001H17.3333V26.6667Z" fill="#171C27"/>
</svg>
