<svg width="32" height="32" viewBox="0 0 32 32" fill="none" xmlns="http://www.w3.org/2000/svg">
<path d="M23.7231 7.33376L21.5285 9.52836C21.2685 9.78966 21.2685 10.2123 21.5285 10.4723C21.6591 10.6016 21.8284 10.667 22.0004 10.667C22.1711 10.667 22.3417 10.6017 22.4711 10.4723L24.6657 8.27641L26.8603 10.4723C26.9923 10.6016 27.1616 10.667 27.3336 10.667C27.5043 10.667 27.6749 10.6017 27.8043 10.4723C28.0643 10.2123 28.0643 9.78966 27.8043 9.52967L25.6084 7.33376L27.803 5.13917C28.0629 4.87918 28.0629 4.45651 27.803 4.19652C27.543 3.93653 27.1203 3.93653 26.8603 4.19652L24.6657 6.39111L22.4698 4.19652C22.2098 3.93653 21.7871 3.93653 21.5271 4.19652C21.2672 4.45651 21.2672 4.87918 21.5271 5.13917L23.7231 7.33376Z" fill="#171C27"/>
<path d="M24.667 14.6667C28.7108 14.6667 32 11.3761 32 7.33368C32 3.29122 28.7108 0.000671387 24.667 0.000671387C20.6232 0.000671387 17.334 3.29116 17.334 7.33368C17.334 11.3762 20.6232 14.6667 24.667 14.6667ZM24.667 1.33393C27.9762 1.33393 30.6668 4.02582 30.6668 7.33368C30.6668 10.6415 27.9749 13.3334 24.667 13.3334C21.3591 13.3334 18.6672 10.6415 18.6672 7.33368C18.6672 4.02582 21.3591 1.33393 24.667 1.33393Z" fill="#171C27"/>
<path d="M28.6655 27.9995H3.33316C2.96518 27.9995 2.6665 28.2982 2.6665 28.6662C2.6665 29.0342 2.96518 29.3328 3.33316 29.3328H28.6654C29.0334 29.3328 29.3321 29.0342 29.3321 28.6662C29.3321 28.2982 29.0335 27.9995 28.6655 27.9995Z" fill="#171C27"/>
<path d="M31.748 22.8757L28.2482 15.8733C28.0828 15.5453 27.6829 15.408 27.3535 15.5746C27.0242 15.7386 26.8895 16.1399 27.0548 16.4693L29.4934 21.3491C29.4387 21.3464 29.3867 21.3331 29.3321 21.3331H2.66658C2.61058 21.3331 2.55858 21.3464 2.5039 21.3491L8.08236 10.1855C8.10236 10.1588 8.11835 10.1282 8.13304 10.0988C8.35703 9.62687 8.81701 9.33356 9.33299 9.33356H15.4394C15.8074 9.33356 16.1061 9.03489 16.1061 8.6669C16.1061 8.29892 15.8074 8.00024 15.4394 8.00024H9.33299C8.34235 8.00024 7.42507 8.56553 6.96778 9.44419C6.95178 9.4695 6.93709 9.4935 6.92378 9.52018L0.250677 22.8743C0.246677 22.8823 0.24799 22.8916 0.24399 22.901C0.0893088 23.237 0 23.6063 0 23.9996V29.3327C0 30.8034 1.19595 31.9993 2.66658 31.9993H29.3322C30.8028 31.9993 31.9987 30.8034 31.9987 29.3327V23.9996C31.9987 23.6064 31.9081 23.2357 31.7548 22.8997C31.7507 22.8917 31.7507 22.8837 31.748 22.8757ZM30.6654 29.3327C30.6654 30.0687 30.0668 30.666 29.3322 30.666H2.66658C1.93192 30.666 1.33332 30.0687 1.33332 29.3327V23.9996C1.33332 23.2637 1.93198 22.6664 2.66658 22.6664H29.3322C30.0668 22.6664 30.6654 23.2637 30.6654 23.9996V29.3327Z" fill="#171C27"/>
<path d="M3.99988 26.6662C4.73585 26.6662 5.33314 26.0689 5.33314 25.333C5.33314 24.597 4.73585 23.9997 3.99988 23.9997C3.26391 23.9997 2.66663 24.597 2.66663 25.333C2.66663 26.0689 3.2626 26.6662 3.99988 26.6662Z" fill="#171C27"/>
<path d="M7.99964 26.6662C8.73561 26.6662 9.3329 26.0689 9.3329 25.333C9.3329 24.597 8.73561 23.9997 7.99964 23.9997C7.26367 23.9997 6.66638 24.597 6.66638 25.333C6.66638 26.0689 7.26236 26.6662 7.99964 26.6662Z" fill="#171C27"/>
</svg>
