<svg width="32" height="32" viewBox="0 0 32 32" fill="none" xmlns="http://www.w3.org/2000/svg">
<g clip-path="url(#clip0)">
<path d="M16 19.3239C16 19.6919 16.2987 19.9906 16.6667 19.9906H22C22.368 19.9906 22.6667 19.6919 22.6667 19.3239C22.6667 18.9559 22.368 18.6572 22 18.6572H16.6667C16.2987 18.6572 16 18.9559 16 19.3239Z" fill="#171C27"/>
<path d="M22 21.3239H13.9999C13.6319 21.3239 13.3333 21.6226 13.3333 21.9906C13.3333 22.3586 13.6319 22.6573 13.9999 22.6573H22C22.368 22.6573 22.6666 22.3586 22.6666 21.9906C22.6666 21.6226 22.368 21.3239 22 21.3239Z" fill="#171C27"/>
<path d="M16 9.99066C16 9.62266 15.7013 9.32397 15.3333 9.32397H9.99994C9.63194 9.32397 9.33325 9.62266 9.33325 9.99066C9.33325 10.3587 9.63194 10.6573 9.99994 10.6573H15.3333C15.7013 10.6573 16 10.3587 16 9.99066Z" fill="#171C27"/>
<path d="M31.3333 13.3333C31.7013 13.3333 32 13.0346 32 12.6666C32 12.2986 31.7013 12 31.3333 12H29.344V8H31.3333C31.7013 8 32 7.70131 32 7.33331C32 6.96531 31.7013 6.66663 31.3333 6.66663H29.344V5.34269C29.344 3.872 28.148 2.676 26.6773 2.676H25.3333V0.666687C25.3333 0.298687 25.0347 0 24.6667 0C24.2987 0 24 0.298687 24 0.666687V2.676H20V0.666687C20 0.298687 19.7013 0 19.3333 0C18.9653 0 18.6666 0.298687 18.6666 0.666687V2.676H13.3333V0.666687C13.3333 0.298687 13.0347 0 12.6667 0C12.2987 0 12 0.298687 12 0.666687V2.676H8V0.666687C8 0.298687 7.70131 0 7.33331 0C6.96531 0 6.66663 0.298687 6.66663 0.666687V2.676H5.344C3.87331 2.676 2.67731 3.872 2.67731 5.34269V6.66669H0.666687C0.298687 6.66669 0 6.96531 0 7.33331C0 7.70131 0.298687 8 0.666687 8H2.67738V12H0.666687C0.298687 12 0 12.2987 0 12.6667C0 13.0347 0.298687 13.3334 0.666687 13.3334H2.67738V18.6667H0.666687C0.298687 18.6667 0 18.9653 0 19.3333C0 19.7013 0.298687 20 0.666687 20H2.67738V24H0.666687C0.298687 24 0 24.2987 0 24.6667C0 25.0347 0.298687 25.3334 0.666687 25.3334H2.67738V26.6761C2.67738 28.1467 3.87337 29.3428 5.34406 29.3428H6.66675V31.3334C6.66675 31.7014 6.96544 32.0001 7.33344 32.0001C7.70144 32.0001 8 31.7013 8 31.3333V29.3426H12V31.3333C12 31.7013 12.2987 32 12.6667 32C13.0347 32 13.3334 31.7013 13.3334 31.3333V29.3426H18.6667V31.3333C18.6667 31.7013 18.9654 32 19.3334 32C19.7014 32 20 31.7013 20 31.3333V29.3426H24V31.3333C24 31.7013 24.2987 32 24.6667 32C25.0347 32 25.3334 31.7013 25.3334 31.3333V29.3426H26.6774C28.1467 29.3426 29.3441 28.1466 29.3441 26.6759V25.3333H31.3334C31.7014 25.3333 32.0001 25.0346 32.0001 24.6666C32.0001 24.2986 31.7013 24 31.3333 24H29.344V20H31.3333C31.7013 20 32 19.7013 32 19.3333C32 18.9653 31.7013 18.6666 31.3333 18.6666H29.344V13.3333H31.3333ZM28.0107 7.28C28.0094 7.29869 28 7.31469 28 7.33331C28 7.352 28.0093 7.368 28.0107 7.38662V12.6133C28.0094 12.632 28 12.648 28 12.6666C28 12.6853 28.0093 12.7013 28.0107 12.7199V19.2812C28.0094 19.2986 28 19.3146 28 19.3333C28 19.3519 28.0093 19.3679 28.0107 19.3866V24.6146C28.0094 24.6319 28 24.6479 28 24.6666C28 24.6853 28.0093 24.7013 28.0107 24.7199V26.6759C28.0107 27.4106 27.4134 28.0092 26.6774 28.0092H24.76C24.728 28.0052 24.7 27.9905 24.6667 27.9905C24.6334 27.9905 24.6054 28.0052 24.5734 28.0092H19.4267C19.3947 28.0052 19.3667 27.9905 19.3334 27.9905C19.3001 27.9905 19.2721 28.0052 19.2401 28.0092H12.76C12.728 28.0052 12.7 27.9905 12.6667 27.9905C12.6334 27.9905 12.6054 28.0052 12.5734 28.0092H7.42669C7.39469 28.0052 7.36669 27.9905 7.33337 27.9905C7.30006 27.9905 7.27206 28.0052 7.24006 28.0092H5.344C4.608 28.0092 4.01069 27.4105 4.01069 26.6759V5.34269C4.01069 4.608 4.608 4.00938 5.344 4.00938H26.6773C27.4133 4.00938 28.0106 4.60806 28.0106 5.34269V7.28H28.0107Z" fill="#171C27"/>
<path d="M22.4719 5.528C22.3466 5.404 22.1773 5.33331 21.9999 5.33331H5.99994C5.63194 5.33331 5.33325 5.632 5.33325 6V26C5.33325 26.368 5.63194 26.6667 5.99994 26.6667H25.9999C26.3679 26.6667 26.6666 26.368 26.6666 26V10C26.6666 9.82269 26.5959 9.65331 26.4719 9.528L22.4719 5.528ZM25.3333 25.3333H6.66663V6.66669H21.7239L25.3333 10.276V25.3333Z" fill="#171C27"/>
</g>
<defs>
<clipPath id="clip0">
<path d="M0 0H32V32H0V0Z" fill="white"/>
</clipPath>
</defs>
</svg>
