<svg width="32" height="32" viewBox="0 0 32 32" fill="none" xmlns="http://www.w3.org/2000/svg">
<g clip-path="url(#clip0)">
<path d="M25.9999 16C26.3679 16 26.6666 15.7013 26.6666 15.3333V10C26.6666 9.82269 26.5959 9.65331 26.4719 9.528L22.4719 5.528C22.3466 5.404 22.1773 5.33331 21.9999 5.33331H5.99994C5.63194 5.33331 5.33325 5.632 5.33325 6V26C5.33325 26.368 5.63194 26.6667 5.99994 26.6667H17.9999C18.3679 26.6667 18.6666 26.368 18.6666 26C18.6666 25.632 18.3679 25.3333 17.9999 25.3333H6.66663V6.66669H21.7239L25.3333 10.276V15.3333C25.3333 15.7013 25.6319 16 25.9999 16Z" fill="#171C27"/>
<path d="M31.3333 12H29.3373L29.3413 8H31.3333C31.7013 8 32 7.70131 32 7.33331C32 6.96531 31.7013 6.66663 31.3333 6.66663H29.3426L29.3439 5.34263C29.3439 3.87194 28.1479 2.67594 26.6772 2.67594H25.3333V0.666687C25.3333 0.298687 25.0347 0 24.6667 0C24.2987 0 24 0.298687 24 0.666687V2.676H20V0.666687C20 0.298687 19.7013 0 19.3333 0C18.9653 0 18.6666 0.298687 18.6666 0.666687V2.676H13.3333V0.666687C13.3333 0.298687 13.0347 0 12.6667 0C12.2987 0 12 0.298687 12 0.666687V2.676H8V0.666687C8 0.298687 7.70131 0 7.33331 0C6.96531 0 6.66663 0.298687 6.66663 0.666687V2.676H5.344C3.87331 2.676 2.67731 3.872 2.67731 5.34269V6.66669H0.666687C0.298687 6.66669 0 6.96531 0 7.33331C0 7.70131 0.298687 8 0.666687 8H2.67738V12H0.666687C0.298687 12 0 12.2987 0 12.6667C0 13.0347 0.298687 13.3334 0.666687 13.3334H2.67738V18.6667H0.666687C0.298687 18.6667 0 18.9653 0 19.3333C0 19.7013 0.298687 20 0.666687 20H2.67738V24H0.666687C0.298687 24 0 24.2987 0 24.6667C0 25.0347 0.298687 25.3334 0.666687 25.3334H2.67738V26.6761C2.67738 28.1467 3.87206 29.3428 5.34406 29.3428L6.66675 29.3414V31.3334C6.66675 31.7014 6.96544 32.0001 7.33344 32.0001C7.70144 32.0001 8 31.7013 8 31.3333V29.3413L12 29.3386V31.3333C12 31.7013 12.2987 32 12.6667 32C13.0347 32 13.3334 31.7013 13.3334 31.3333V29.3373L18 29.3333C18.368 29.3333 18.6667 29.0346 18.6667 28.6666C18.6667 28.2986 18.368 28 18 28L12.732 28.004C12.7093 28.0013 12.6893 27.9907 12.6667 27.9907C12.6427 27.9907 12.624 28.0014 12.6 28.004L7.41731 28.008C7.388 28.004 7.36262 27.9907 7.332 27.9907C7.30137 27.9907 7.276 28.004 7.24669 28.008L5.34137 28.0093C4.60669 28.0093 4.00806 27.4106 4.00806 26.676V5.34269C4.00806 4.608 4.60675 4.00938 5.34137 4.00938H26.6747C27.4094 4.00938 28.008 4.60806 28.008 5.34269L28.0067 7.296C28.0067 7.30931 28 7.32 28 7.33331C28 7.34662 28.0067 7.35731 28.008 7.37063L28.0027 12.6546C28.0027 12.6586 28 12.6626 28 12.6666C28 12.6706 28.0027 12.6746 28.0027 12.6786L28 15.3333C28 15.7013 28.2987 16 28.6667 16C29.0347 16 29.3334 15.7013 29.3334 15.3333L29.3361 13.3333H31.3334C31.7014 13.3333 32.0001 13.0346 32.0001 12.6666C32.0001 12.2986 31.7013 12 31.3333 12Z" fill="#171C27"/>
<path d="M31.4947 18.6868L26.1614 17.3535C26.0561 17.3255 25.9441 17.3255 25.8387 17.3535L20.5054 18.6868C20.2081 18.7615 20.0001 19.0281 20.0001 19.3335V27.3335C20.0001 29.3962 24.3961 31.3882 25.7441 31.9482C25.8254 31.9828 25.9134 32.0001 26.0001 32.0001C26.0868 32.0001 26.1748 31.9828 26.2561 31.9482C27.6041 31.3882 32.0001 29.3962 32.0001 27.3335V19.3335C32 19.0281 31.792 18.7614 31.4947 18.6868ZM30.6667 27.3334C30.6667 28.0894 28.2587 29.6294 26 30.6094C23.7414 29.6294 21.3334 28.0907 21.3334 27.3334V19.8548L26 18.6881L30.6667 19.8548V27.3334Z" fill="#171C27"/>
<path d="M25.8386 20.0199L23.1719 20.6866C22.8746 20.7613 22.6666 21.0279 22.6666 21.3333V24.6666C22.6666 25.0346 22.9653 25.3333 23.3333 25.3333H25.3333V28.4053C25.3333 28.6346 25.452 28.8493 25.6466 28.9706C25.7546 29.0386 25.8773 29.0719 25.9999 29.0719C26.0999 29.0719 26.1999 29.0492 26.2933 29.0039C27.5093 28.4092 28.5906 27.7466 29.1133 27.2759C29.2533 27.1479 29.3333 26.9692 29.3333 26.7799V24.6666C29.3333 24.2986 29.0346 23.9999 28.6666 23.9999H26.6666V20.6666C26.6666 20.4613 26.5719 20.2679 26.4106 20.1413C26.2479 20.0146 26.0359 19.9666 25.8386 20.0199ZM25.3333 23.9999H23.9999V21.8546L25.3333 21.5213V23.9999ZM26.6666 25.3332H27.9999V26.4652C27.6799 26.7065 27.2079 27.0039 26.6666 27.3052V25.3332Z" fill="#171C27"/>
</g>
<defs>
<clipPath id="clip0">
<path d="M0 0H32V32H0V0Z" fill="white"/>
</clipPath>
</defs>
</svg>
