<svg width="32" height="32" viewBox="0 0 32 32" fill="none" xmlns="http://www.w3.org/2000/svg">
<g clip-path="url(#clip0)">
<path d="M13.9999 13.3226C14.3679 13.3226 14.6666 13.0239 14.6666 12.6559C14.6666 12.2879 14.3679 11.9893 13.9999 11.9893C11.4266 11.9893 9.33325 14.0826 9.33325 16.656V18.656C9.33325 20.1266 10.5293 21.3226 11.9999 21.3226C13.4706 21.3226 14.6666 20.1266 14.6666 18.656C14.6666 17.1853 13.4706 15.9893 11.9999 15.9893C11.5253 15.9893 11.0853 16.124 10.6986 16.3426C10.8586 14.6533 12.2693 13.3226 13.9999 13.3226ZM11.9999 17.3226C12.7346 17.3226 13.3333 17.92 13.3333 18.656C13.3333 19.392 12.7346 19.9893 11.9999 19.9893C11.2653 19.9893 10.6666 19.392 10.6666 18.656C10.6666 17.92 11.2653 17.3226 11.9999 17.3226Z" fill="#171C27"/>
<path d="M31.3333 13.3333C31.7013 13.3333 32 13.0346 32 12.6666C32 12.2986 31.7013 12 31.3333 12H29.3426V8H31.3333C31.7013 8 32 7.70131 32 7.33331C32 6.96531 31.7013 6.66663 31.3333 6.66663H29.3426V5.344C29.3426 3.87331 28.1466 2.67731 26.6759 2.67731H25.3333V0.666687C25.3333 0.298687 25.0347 0 24.6667 0C24.2987 0 24 0.298687 24 0.666687V2.67738H20V0.666687C20 0.298687 19.7013 0 19.3333 0C18.9653 0 18.6666 0.298687 18.6666 0.666687V2.67738H13.3333V0.666687C13.3333 0.298687 13.0347 0 12.6667 0C12.2987 0 12 0.298687 12 0.666687V2.67738H8V0.666687C8 0.298687 7.70131 0 7.33331 0C6.96531 0 6.66663 0.298687 6.66663 0.666687V2.67738H5.34269C3.872 2.67738 2.676 3.87337 2.676 5.34406V6.66675H0.666687C0.298687 6.66669 0 6.96531 0 7.33331C0 7.70131 0.298687 8 0.666687 8H2.676V12H0.666687C0.298687 12 0 12.2987 0 12.6667C0 13.0347 0.298687 13.3334 0.666687 13.3334H2.676V18.6667H0.666687C0.298687 18.6667 0 18.9653 0 19.3333C0 19.7013 0.298687 20 0.666687 20H2.676V24H0.666687C0.298687 24 0 24.2987 0 24.6667C0 25.0347 0.298687 25.3334 0.666687 25.3334H2.676V26.6774C2.676 28.1481 3.872 29.3441 5.34269 29.3441H6.66669V31.3334C6.66669 31.7014 6.96537 32.0001 7.33337 32.0001C7.70138 32.0001 8 31.7013 8 31.3333V29.344H12V31.3333C12 31.7013 12.2987 32 12.6667 32C13.0347 32 13.3334 31.7013 13.3334 31.3333V29.344H18.6667V31.3333C18.6667 31.7013 18.9654 32 19.3334 32C19.7014 32 20 31.7013 20 31.3333V29.344H24V31.3333C24 31.7013 24.2987 32 24.6667 32C25.0347 32 25.3334 31.7013 25.3334 31.3333V29.344H26.6761C28.1467 29.344 29.3428 28.1467 29.3428 26.6773V25.3333H31.3334C31.7014 25.3333 32.0001 25.0346 32.0001 24.6666C32.0001 24.2986 31.7013 24 31.3333 24H29.3426V20H31.3333C31.7013 20 32 19.7013 32 19.3333C32 18.9653 31.7013 18.6666 31.3333 18.6666H29.3426V13.3333H31.3333ZM28.0093 7.28669C28.008 7.30269 28 7.31738 28 7.33337C28 7.34937 28.008 7.36406 28.0093 7.38006V12.6214C28.008 12.6361 28 12.6507 28 12.6667C28 12.6827 28.008 12.6974 28.0093 12.7134V19.2881C28.008 19.3027 28 19.3174 28 19.3334C28 19.3494 28.008 19.3641 28.0093 19.3801V24.6214C28.008 24.6361 28 24.6507 28 24.6667C28 24.6827 28.008 24.6974 28.0093 24.7134V26.6774C28.0093 27.4134 27.4106 28.0107 26.676 28.0107H24.772C24.736 28.0054 24.704 27.9894 24.6667 27.9894C24.6294 27.9894 24.5974 28.0054 24.5614 28.0107H19.4387C19.4027 28.0054 19.3707 27.9894 19.3334 27.9894C19.2961 27.9894 19.2641 28.0054 19.2281 28.0107H12.772C12.736 28.0054 12.704 27.9894 12.6667 27.9894C12.6294 27.9894 12.5974 28.0054 12.5614 28.0107H7.43869C7.40269 28.0054 7.37069 27.9894 7.33337 27.9894C7.29606 27.9894 7.26406 28.0054 7.22806 28.0107H5.34269C4.608 28.0107 4.00938 27.4134 4.00938 26.6774V5.344C4.00938 4.608 4.60806 4.01069 5.34269 4.01069H26.676C27.4107 4.01069 28.0093 4.608 28.0093 5.344V7.28669Z" fill="#171C27"/>
<path d="M21.3333 12.6573C21.3333 12.3707 21.1493 12.1147 20.8773 12.024C20.6053 11.94 20.3053 12.028 20.1333 12.2573L16.1333 17.5907C15.9826 17.792 15.9586 18.0627 16.0706 18.288C16.1839 18.5133 16.4146 18.656 16.6666 18.656H19.9999V20.656C19.9999 21.024 20.2986 21.3227 20.6666 21.3227C21.0346 21.3227 21.3333 21.0253 21.3333 20.6573V18.6573H21.9999C22.3679 18.6573 22.6666 18.3587 22.6666 17.9907C22.6666 17.6227 22.3679 17.324 21.9999 17.324H21.3333V12.6573ZM19.9999 17.3227H17.9999L19.9999 14.656V17.3227Z" fill="#171C27"/>
<path d="M22.4733 5.51726C22.348 5.39326 22.1786 5.32257 22.0013 5.32257L6.01068 5.34395C5.64268 5.34395 5.34399 5.64263 5.34399 6.01063V25.9893C5.34399 26.3573 5.64268 26.656 6.01068 26.656H25.9907C26.3587 26.656 26.6574 26.3587 26.6587 25.9893L26.668 9.98932C26.668 9.81201 26.5987 9.64263 26.4733 9.51732L22.4733 5.51726ZM25.324 25.3226H6.67599V6.67595L21.724 6.65595L25.3333 10.2653L25.324 25.3226Z" fill="#171C27"/>
</g>
<defs>
<clipPath id="clip0">
<path d="M0 0H32V32H0V0Z" fill="white"/>
</clipPath>
</defs>
</svg>
