<svg width="32" height="32" viewBox="0 0 32 32" fill="none" xmlns="http://www.w3.org/2000/svg">
<g clip-path="url(#clip0)">
<path d="M22.472 5.5186C22.3467 5.3946 22.1773 5.32391 22 5.32391L6.00934 5.34391C5.64134 5.34391 5.34265 5.6426 5.34265 6.0106V25.9906C5.34265 26.3586 5.64134 26.6573 6.00934 26.6573H26C26.368 26.6573 26.6667 26.3586 26.6667 25.9906V9.9906C26.6667 9.81329 26.5974 9.64391 26.472 9.5186L22.472 5.5186ZM25.3333 25.3239H6.67603V6.67591L21.724 6.65723L25.3333 10.2665V25.3239Z" fill="#171C27"/>
<path d="M17.9999 13.3333C18.368 13.3333 18.6666 13.0346 18.6666 12.6666C18.6666 12.2986 18.368 12 17.9999 12C15.4266 12 13.3333 14.0933 13.3333 16.6667V18.6667C13.3333 20.1374 14.5293 21.3334 15.9999 21.3334C17.4706 21.3334 18.6666 20.1374 18.6666 18.6667C18.6666 17.196 17.4706 16 15.9999 16C15.5253 16 15.0853 16.1347 14.6986 16.3533C14.8586 14.6653 16.2693 13.3333 17.9999 13.3333ZM15.9999 17.3333C16.7346 17.3333 17.3333 17.932 17.3333 18.6666C17.3333 19.4013 16.7346 19.9999 15.9999 19.9999C15.2653 19.9999 14.6666 19.4012 14.6666 18.6666C14.6666 17.932 15.2653 17.3333 15.9999 17.3333Z" fill="#171C27"/>
<path d="M31.3333 13.3333C31.7013 13.3333 32 13.0346 32 12.6666C32 12.2986 31.7013 12 31.3333 12H29.3426V8H31.3333C31.7013 8 32 7.70131 32 7.33331C32 6.96531 31.7013 6.66663 31.3333 6.66663H29.3426V5.34269C29.3426 3.872 28.1466 2.676 26.6759 2.676H25.3333V0.666687C25.3333 0.298687 25.0347 0 24.6667 0C24.2987 0 24 0.298687 24 0.666687V2.676H20V0.666687C20 0.298687 19.7013 0 19.3333 0C18.9653 0 18.6666 0.298687 18.6666 0.666687V2.676H13.3333V0.666687C13.3333 0.298687 13.0347 0 12.6667 0C12.2987 0 12 0.298687 12 0.666687V2.676H8V0.666687C8 0.298687 7.70131 0 7.33331 0C6.96531 0 6.66663 0.298687 6.66663 0.666687V2.676H5.34269C3.872 2.676 2.676 3.872 2.676 5.34269V6.66669H0.666687C0.298687 6.66669 0 6.96531 0 7.33331C0 7.70131 0.298687 8 0.666687 8H2.676V12H0.666687C0.298687 12 0 12.2987 0 12.6667C0 13.0347 0.298687 13.3334 0.666687 13.3334H2.676V18.6667H0.666687C0.298687 18.6667 0 18.9653 0 19.3333C0 19.7013 0.298687 20 0.666687 20H2.676V24H0.666687C0.298687 24 0 24.2987 0 24.6667C0 25.0347 0.298687 25.3334 0.666687 25.3334H2.676V26.6761C2.676 28.1467 3.872 29.3428 5.34269 29.3428H6.66669V31.3334C6.66669 31.7014 6.96537 32.0001 7.33337 32.0001C7.70138 32.0001 8 31.7013 8 31.3333V29.3426H12V31.3333C12 31.7013 12.2987 32 12.6667 32C13.0347 32 13.3334 31.7013 13.3334 31.3333V29.3426H18.6667V31.3333C18.6667 31.7013 18.9654 32 19.3334 32C19.7014 32 20 31.7013 20 31.3333V29.3426H24V31.3333C24 31.7013 24.2987 32 24.6667 32C25.0347 32 25.3334 31.7013 25.3334 31.3333V29.3426H26.6761C28.1467 29.3426 29.3428 28.1466 29.3428 26.6759V25.3333H31.3334C31.7014 25.3333 32.0001 25.0346 32.0001 24.6666C32.0001 24.2986 31.7013 24 31.3333 24H29.3426V20H31.3333C31.7013 20 32 19.7013 32 19.3333C32 18.9653 31.7013 18.6666 31.3333 18.6666H29.3426V13.3333H31.3333ZM28.0093 7.28669C28.008 7.30269 28 7.31738 28 7.33337C28 7.34937 28.008 7.36406 28.0093 7.38006V12.6214C28.008 12.6361 28 12.6507 28 12.6667C28 12.6827 28.008 12.6974 28.0093 12.7134V19.2881C28.008 19.3027 28 19.3174 28 19.3334C28 19.3494 28.008 19.3641 28.0093 19.3801V24.6214C28.008 24.6361 28 24.6507 28 24.6667C28 24.6827 28.008 24.6974 28.0093 24.7134V26.6761C28.0093 27.4107 27.4106 28.0094 26.676 28.0094H24.76C24.728 28.0054 24.7 27.9907 24.6667 27.9907C24.6334 27.9907 24.6054 28.0054 24.5734 28.0094H19.4267C19.3947 28.0054 19.3667 27.9907 19.3334 27.9907C19.3001 27.9907 19.2721 28.0054 19.2401 28.0094H12.76C12.728 28.0054 12.7 27.9907 12.6667 27.9907C12.6334 27.9907 12.6054 28.0054 12.5734 28.0094H7.42669C7.39469 28.0054 7.36669 27.9907 7.33337 27.9907C7.30006 27.9907 7.27206 28.0054 7.24006 28.0094H5.34269C4.608 28.0094 4.00938 27.4107 4.00938 26.6761V5.34269C4.00938 4.608 4.60806 4.00938 5.34269 4.00938H26.676C27.4107 4.00938 28.0093 4.60806 28.0093 5.34269V7.28669Z" fill="#171C27"/>
</g>
<defs>
<clipPath id="clip0">
<path d="M0 0H32V32H0V0Z" fill="white"/>
</clipPath>
</defs>
</svg>
