<svg width="32" height="32" viewBox="0 0 32 32" fill="none" xmlns="http://www.w3.org/2000/svg">
<g clip-path="url(#clip0)">
<path d="M17.9999 17.324H17.3332V12.6574C17.3332 12.3707 17.1492 12.116 16.8786 12.0254C16.6092 11.9347 16.3066 12.028 16.1332 12.2574L12.1332 17.5907C11.9812 17.7934 11.9572 18.064 12.0706 18.2894C12.1839 18.5147 12.4146 18.6574 12.6666 18.6574H15.9999V20.6574C15.9999 21.0254 16.2986 21.324 16.6666 21.324C17.0346 21.324 17.3333 21.0254 17.3333 20.6574V18.6574H17.9999C18.3679 18.6574 18.6666 18.3587 18.6666 17.9907C18.6666 17.6227 18.3679 17.324 17.9999 17.324ZM15.9999 17.324H13.9999L15.9999 14.6574V17.324Z" fill="#171C27"/>
<path d="M31.3333 13.3333C31.7013 13.3333 32 13.0346 32 12.6666C32 12.2986 31.7013 12 31.3333 12H29.344V8H31.3333C31.7013 8 32 7.70131 32 7.33331C32 6.96531 31.7013 6.66663 31.3333 6.66663H29.344V5.344C29.344 3.87331 28.148 2.67731 26.6773 2.67731H25.3333V0.666687C25.3333 0.298687 25.0347 0 24.6667 0C24.2987 0 24 0.298687 24 0.666687V2.67738H20V0.666687C20 0.298687 19.7013 0 19.3333 0C18.9653 0 18.6666 0.298687 18.6666 0.666687V2.67738H13.3333V0.666687C13.3333 0.298687 13.0347 0 12.6667 0C12.2987 0 12 0.298687 12 0.666687V2.67738H8V0.666687C8 0.298687 7.70131 0 7.33331 0C6.96531 0 6.66663 0.298687 6.66663 0.666687V2.67738H5.344C3.87331 2.67738 2.67731 3.87337 2.67731 5.34406V6.66675H0.666687C0.298687 6.66669 0 6.96531 0 7.33331C0 7.70131 0.298687 8 0.666687 8H2.67738V12H0.666687C0.298687 12 0 12.2987 0 12.6667C0 13.0347 0.298687 13.3334 0.666687 13.3334H2.67738V18.6667H0.666687C0.298687 18.6667 0 18.9653 0 19.3333C0 19.7013 0.298687 20 0.666687 20H2.67738V24H0.666687C0.298687 24 0 24.2987 0 24.6667C0 25.0347 0.298687 25.3334 0.666687 25.3334H2.67738V26.6774C2.67738 28.1481 3.87337 29.3441 5.34406 29.3441H6.66675V31.3334C6.66675 31.7014 6.96544 32.0001 7.33344 32.0001C7.70144 32.0001 8 31.7027 8 31.3333V29.344H12V31.3333C12 31.7013 12.2987 32 12.6667 32C13.0347 32 13.3334 31.7027 13.3334 31.3333V29.344H18.6667V31.3333C18.6667 31.7013 18.9654 32 19.3334 32C19.7014 32 20 31.7027 20 31.3333V29.344H24V31.3333C24 31.7013 24.2987 32 24.6667 32C25.0347 32 25.3334 31.7027 25.3334 31.3333V29.344H26.6774C28.1467 29.344 29.3441 28.148 29.3441 26.6773V25.3333H31.3334C31.7014 25.3333 32.0001 25.0346 32.0001 24.6666C32.0001 24.2986 31.7013 24 31.3333 24H29.344V20H31.3333C31.7013 20 32 19.7013 32 19.3333C32 18.9653 31.7013 18.6666 31.3333 18.6666H29.344V13.3333H31.3333ZM28.0107 7.28C28.0094 7.29869 28 7.31469 28 7.33331C28 7.352 28.0093 7.368 28.0107 7.38662V12.6133C28.0094 12.632 28 12.648 28 12.6666C28 12.6853 28.0093 12.7013 28.0107 12.7199V19.2812C28.0094 19.2986 28 19.3146 28 19.3333C28 19.3519 28.0093 19.3679 28.0107 19.3866V24.6146C28.0094 24.6319 28 24.6479 28 24.6666C28 24.6853 28.0093 24.7013 28.0107 24.7199V26.6772C28.0107 27.4119 27.4134 28.0105 26.6774 28.0105H24.7654C24.7321 28.0052 24.7014 27.9905 24.6667 27.9905C24.632 27.9905 24.6014 28.0052 24.568 28.0105H19.4333C19.4 28.0052 19.3693 27.9905 19.3346 27.9905C19.2999 27.9905 19.2693 28.0052 19.2359 28.0105H12.7653C12.732 28.0052 12.7013 27.9905 12.6666 27.9905C12.6319 27.9905 12.6013 28.0052 12.5679 28.0105H7.43194C7.39863 28.0052 7.36794 27.9905 7.33325 27.9905C7.29856 27.9905 7.26794 28.0052 7.23456 28.0105H5.344C4.608 28.0105 4.01069 27.4118 4.01069 26.6772V5.344C4.01069 4.60931 4.608 4.01069 5.344 4.01069H26.6773C27.4133 4.01069 28.0106 4.60938 28.0106 5.344V7.28H28.0107Z" fill="#171C27"/>
<path d="M22.4721 5.5186C22.3467 5.3946 22.1774 5.32391 22.0001 5.32391C22.0001 5.32391 22.0001 5.32391 21.9987 5.32391L6.00943 5.34391C5.64274 5.34391 5.34412 5.6426 5.34412 6.0106V25.9906C5.34412 26.3586 5.6428 26.6573 6.0108 26.6573H26.0001C26.3681 26.6573 26.6667 26.3586 26.6667 25.9906V9.9906C26.6667 9.81329 26.5961 9.64391 26.4721 9.5186L22.4721 5.5186ZM25.3334 25.3239H6.67737V6.67591L21.7241 6.65723L25.3334 10.2665V25.3239Z" fill="#171C27"/>
</g>
<defs>
<clipPath id="clip0">
<path d="M0 0H32V32H0V0Z" fill="white"/>
</clipPath>
</defs>
</svg>
