<svg width="32" height="32" viewBox="0 0 32 32" fill="none" xmlns="http://www.w3.org/2000/svg">
<g clip-path="url(#clip0)">
<path d="M14.6666 14.6559C14.6666 13.1853 13.4706 11.9893 11.9999 11.9893C10.5293 11.9893 9.33325 13.1853 9.33325 14.6559C9.33325 15.0239 9.63194 15.3226 9.99994 15.3226C10.3679 15.3226 10.6666 15.0239 10.6666 14.6559C10.6666 13.9199 11.2653 13.3226 11.9999 13.3226C12.7346 13.3226 13.3333 13.9199 13.3333 14.6559C13.3333 15.392 12.7346 15.9893 11.9999 15.9893C11.6319 15.9893 11.3333 16.288 11.3333 16.656C11.3333 17.024 11.6319 17.3226 11.9999 17.3226C12.7346 17.3226 13.3333 17.92 13.3333 18.656C13.3333 19.392 12.7346 19.9893 11.9999 19.9893C11.2653 19.9893 10.6666 19.392 10.6666 18.656C10.6666 18.288 10.3679 17.9893 9.99994 17.9893C9.63194 17.9893 9.33325 18.288 9.33325 18.656C9.33325 20.1266 10.5293 21.3226 11.9999 21.3226C13.4706 21.3226 14.6666 20.1266 14.6666 18.656C14.6666 17.86 14.3159 17.1453 13.7613 16.656C14.3159 16.1666 14.6666 15.452 14.6666 14.6559Z" fill="#171C27"/>
<path d="M17.332 14.6559C17.332 15.0239 17.6307 15.3226 17.9987 15.3226C18.3667 15.3226 18.6654 15.0239 18.6654 14.6559C18.6654 13.9199 19.2641 13.3226 19.9987 13.3226C20.7334 13.3226 21.332 13.9199 21.332 14.6559C21.332 15.7679 20.8987 16.8132 20.1133 17.5999L17.528 20.1839C17.3373 20.3746 17.28 20.6612 17.384 20.9106C17.4867 21.1599 17.7307 21.3226 18 21.3226H22C22.368 21.3226 22.6653 21.0239 22.6653 20.6559C22.6653 20.2879 22.3667 19.9892 21.9987 19.9892H19.6093L21.056 18.5425C22.0933 17.5038 22.6653 16.1238 22.6653 14.6558C22.6653 13.1851 21.4693 11.9891 19.9987 11.9891C18.528 11.9891 17.332 13.1852 17.332 14.6559Z" fill="#171C27"/>
<path d="M31.3333 13.3333C31.7013 13.3333 32 13.0346 32 12.6666C32 12.2986 31.7013 12 31.3333 12H29.3426V8H31.3333C31.7013 8 32 7.70131 32 7.33331C32 6.96531 31.7013 6.66663 31.3333 6.66663H29.3426V5.344C29.3426 3.87331 28.1466 2.67731 26.6759 2.67731H25.3333V0.666687C25.3333 0.298687 25.0347 0 24.6667 0C24.2987 0 24 0.298687 24 0.666687V2.67738H20V0.666687C20 0.298687 19.7013 0 19.3333 0C18.9653 0 18.6666 0.298687 18.6666 0.666687V2.67738H13.3333V0.666687C13.3333 0.298687 13.0347 0 12.6667 0C12.2987 0 12 0.298687 12 0.666687V2.67738H8V0.666687C8 0.298687 7.70131 0 7.33331 0C6.96531 0 6.66663 0.298687 6.66663 0.666687V2.67738H5.34269C3.872 2.67738 2.676 3.87337 2.676 5.34406V6.66675H0.666687C0.298687 6.66669 0 6.96531 0 7.33331C0 7.70131 0.298687 8 0.666687 8H2.676V12H0.666687C0.298687 12 0 12.2987 0 12.6667C0 13.0347 0.298687 13.3334 0.666687 13.3334H2.676V18.6667H0.666687C0.298687 18.6667 0 18.9653 0 19.3333C0 19.7013 0.298687 20 0.666687 20H2.676V24H0.666687C0.298687 24 0 24.2987 0 24.6667C0 25.0347 0.298687 25.3334 0.666687 25.3334H2.676V26.6774C2.676 28.1481 3.872 29.3441 5.34269 29.3441H6.66669V31.3334C6.66669 31.7014 6.96537 32.0001 7.33337 32.0001C7.70138 32.0001 8 31.7013 8 31.3333V29.344H12V31.3333C12 31.7013 12.2987 32 12.6667 32C13.0347 32 13.3334 31.7013 13.3334 31.3333V29.344H18.6667V31.3333C18.6667 31.7013 18.9654 32 19.3334 32C19.7014 32 20 31.7013 20 31.3333V29.344H24V31.3333C24 31.7013 24.2987 32 24.6667 32C25.0347 32 25.3334 31.7013 25.3334 31.3333V29.344H26.6761C28.1467 29.344 29.3428 28.1467 29.3428 26.6773V25.3333H31.3334C31.7014 25.3333 32.0001 25.0346 32.0001 24.6666C32.0001 24.2986 31.7013 24 31.3333 24H29.3426V20H31.3333C31.7013 20 32 19.7013 32 19.3333C32 18.9653 31.7013 18.6666 31.3333 18.6666H29.3426V13.3333H31.3333ZM28.0093 7.28669C28.008 7.30269 28 7.31738 28 7.33337C28 7.34937 28.008 7.36406 28.0093 7.38006V12.6214C28.008 12.6361 28 12.6507 28 12.6667C28 12.6827 28.008 12.6974 28.0093 12.7134V19.2881C28.008 19.3027 28 19.3174 28 19.3334C28 19.3494 28.008 19.3641 28.0093 19.3801V24.6214C28.008 24.6361 28 24.6507 28 24.6667C28 24.6827 28.008 24.6974 28.0093 24.7134V26.6774C28.0093 27.4134 27.4106 28.0107 26.676 28.0107H24.772C24.736 28.0054 24.704 27.9894 24.6667 27.9894C24.6294 27.9894 24.5974 28.0054 24.5614 28.0107H19.4387C19.4027 28.0054 19.3707 27.9894 19.3334 27.9894C19.2961 27.9894 19.2641 28.0054 19.2281 28.0107H12.772C12.736 28.0054 12.704 27.9894 12.6667 27.9894C12.6294 27.9894 12.5974 28.0054 12.5614 28.0107H7.43869C7.40269 28.0054 7.37069 27.9894 7.33337 27.9894C7.29606 27.9894 7.26406 28.0054 7.22806 28.0107H5.34269C4.608 28.0107 4.00938 27.4134 4.00938 26.6774V5.344C4.00938 4.608 4.60806 4.01069 5.34269 4.01069H26.676C27.4107 4.01069 28.0093 4.608 28.0093 5.344V7.28669Z" fill="#171C27"/>
<path d="M22.4734 5.51726C22.3481 5.39326 22.1787 5.32257 22.0014 5.32257L6.0108 5.34395C5.6428 5.34395 5.34412 5.64263 5.34412 6.01063V25.9893C5.34412 26.3573 5.6428 26.656 6.0108 26.656H25.9908C26.3588 26.656 26.6575 26.3587 26.6588 25.9893L26.6681 9.98932C26.6681 9.81201 26.5988 9.64263 26.4734 9.51732L22.4734 5.51726ZM25.3241 25.3226H6.67612V6.67595L21.7241 6.65595L25.3334 10.2653L25.3241 25.3226Z" fill="#171C27"/>
</g>
<defs>
<clipPath id="clip0">
<path d="M0 0H32V32H0V0Z" fill="white"/>
</clipPath>
</defs>
</svg>
