<svg width="32" height="32" viewBox="0 0 32 32" fill="none" xmlns="http://www.w3.org/2000/svg">
<path d="M20 26.6667H11.9999C11.6319 26.6667 11.3333 26.9654 11.3333 27.3334C11.3333 27.7014 11.6319 28.0001 11.9999 28.0001H20C20.368 28.0001 20.6666 27.7014 20.6666 27.3334C20.6666 26.9653 20.368 26.6667 20 26.6667Z" fill="#171C27"/>
<path d="M15.3333 20C15.3333 18.5293 14.1373 17.3333 12.6666 17.3333C11.196 17.3333 10 18.5293 10 20C10 21.4707 11.196 22.6667 12.6667 22.6667C14.1373 22.6667 15.3333 21.4707 15.3333 20ZM11.3333 20C11.3333 19.2653 11.932 18.6667 12.6666 18.6667C13.4013 18.6667 13.9999 19.2654 13.9999 20C13.9999 20.7346 13.4012 21.3333 12.6666 21.3333C11.932 21.3333 11.3333 20.7347 11.3333 20Z" fill="#171C27"/>
<path d="M22.6667 2.66669H9.33331C8.96531 2.66669 8.66663 2.96537 8.66663 3.33337V15.3334C8.66663 15.7014 8.96531 16.0001 9.33331 16.0001H22.6666C23.0346 16.0001 23.3333 15.7014 23.3333 15.3334V3.33337C23.3333 2.96531 23.0347 2.66669 22.6667 2.66669ZM22 14.6667H10V12H22V14.6667ZM22 10.6667H10V8H22V10.6667ZM22 6.66669H10V4H22V6.66669Z" fill="#171C27"/>
<path d="M20 24H11.9999C11.6319 24 11.3333 24.2987 11.3333 24.6667C11.3333 25.0347 11.6319 25.3334 11.9999 25.3334H20C20.368 25.3334 20.6666 25.0347 20.6666 24.6667C20.6666 24.2987 20.368 24 20 24Z" fill="#171C27"/>
<path d="M22.6667 0H9.33331C7.496 0 6 1.496 6 3.33331V28.6666C6 30.504 7.496 32 9.33331 32H10.6666C11.0346 32 11.3333 31.7013 11.3333 31.3333V30.6666H20.6666V31.3333C20.6666 31.7013 20.9653 32 21.3333 32H22.6666C24.504 32 26 30.504 26 28.6667V3.33331C26 1.496 24.504 0 22.6667 0ZM24.6667 28.6667C24.6667 29.7694 23.7694 30.6667 22.6667 30.6667H22V30C22 29.632 21.7013 29.3333 21.3333 29.3333H10.6667C10.2987 29.3333 10 29.632 10 30V30.6667H9.33331C8.23062 30.6667 7.33331 29.7694 7.33331 28.6667V3.33331C7.33331 2.23063 8.23062 1.33331 9.33331 1.33331H22.6666C23.7693 1.33331 24.6666 2.23063 24.6666 3.33331V28.6667H24.6667Z" fill="#171C27"/>
<path d="M19.3333 17.3333C17.8626 17.3333 16.6666 18.5293 16.6666 20C16.6666 21.4707 17.8626 22.6667 19.3333 22.6667C20.804 22.6667 22 21.4707 22 20C22 18.5293 20.804 17.3333 19.3333 17.3333ZM19.3333 21.3333C18.5987 21.3333 18 20.7347 18 20C18 19.2653 18.5987 18.6667 19.3333 18.6667C20.068 18.6667 20.6666 19.2654 20.6666 20C20.6666 20.7346 20.068 21.3333 19.3333 21.3333Z" fill="#171C27"/>
</svg>
