<svg width="32" height="32" viewBox="0 0 32 32" fill="none" xmlns="http://www.w3.org/2000/svg">
<path d="M12.6667 14H3.33331C2.96531 14 2.66663 14.2987 2.66663 14.6667C2.66663 15.0347 2.96531 15.3334 3.33331 15.3334H12.6666C13.0346 15.3334 13.3333 15.0347 13.3333 14.6667C13.3333 14.2987 13.0347 14 12.6667 14Z" fill="#171C27"/>
<path d="M11.3333 18C10.9653 18 10.6666 18.2987 10.6666 18.6667C10.6666 19.0347 10.9653 19.3334 11.3333 19.3334C11.7013 19.3334 12 19.0347 12 18.6667C12 18.2987 11.7013 18 11.3333 18Z" fill="#171C27"/>
<path d="M8.66675 18H7.33344C6.96544 18 6.66675 18.2987 6.66675 18.6667C6.66675 19.0347 6.96544 19.3334 7.33344 19.3334H8.66675C9.03475 19.3334 9.33344 19.0347 9.33344 18.6667C9.33344 18.2987 9.03475 18 8.66675 18Z" fill="#171C27"/>
<path d="M4.66669 18H3.33331C2.96531 18 2.66663 18.2987 2.66663 18.6667C2.66663 19.0347 2.96531 19.3334 3.33331 19.3334H4.66663C5.03463 19.3334 5.33331 19.0347 5.33331 18.6667C5.33331 18.2987 5.03469 18 4.66669 18Z" fill="#171C27"/>
<path d="M30 8.66669H2C0.897313 8.66669 0 9.564 0 10.6667V20C0 21.1027 0.897313 22 2 22H3.33331C2.96531 22 2.66663 22.2987 2.66663 22.6667C2.66663 23.0347 2.96531 23.3334 3.33331 23.3334H6C6.368 23.3334 6.66669 23.0347 6.66669 22.6667C6.66669 22.2987 6.368 22 6 22H26C25.632 22 25.3333 22.2987 25.3333 22.6667C25.3333 23.0347 25.632 23.3334 26 23.3334H28.6667C29.0347 23.3334 29.3334 23.0347 29.3334 22.6667C29.3334 22.2987 29.0347 22 28.6667 22H30C31.1027 22 32 21.1027 32 20V10.6667C32 9.564 31.1027 8.66669 30 8.66669ZM30.6667 20C30.6667 20.368 30.368 20.6667 30 20.6667H2C1.632 20.6667 1.33331 20.368 1.33331 20V10.6667C1.33331 10.2987 1.632 10 2 10H30C30.368 10 30.6667 10.2987 30.6667 10.6667V20Z" fill="#171C27"/>
<path d="M12.6667 11.3333H3.33331C2.96531 11.3333 2.66663 11.632 2.66663 12C2.66663 12.368 2.96531 12.6667 3.33331 12.6667H12.6666C13.0346 12.6667 13.3333 12.368 13.3333 12C13.3333 11.632 13.0347 11.3333 12.6667 11.3333Z" fill="#171C27"/>
<path d="M19.3333 18C18.9653 18 18.6666 18.2987 18.6666 18.6667C18.6666 19.0347 18.9653 19.3334 19.3333 19.3334C19.7013 19.3334 20 19.0347 20 18.6667C20 18.2987 19.7013 18 19.3333 18Z" fill="#171C27"/>
<path d="M28.6667 11.3333H15.3333C14.9653 11.3333 14.6666 11.632 14.6666 12V16C14.6666 16.368 14.9653 16.6667 15.3333 16.6667H28.6666C29.0346 16.6667 29.3333 16.368 29.3333 16V12C29.3333 11.632 29.0347 11.3333 28.6667 11.3333ZM28 15.3333H16V12.6666H28V15.3333Z" fill="#171C27"/>
<path d="M16.6667 18C16.2987 18 16 18.2987 16 18.6667C16 19.0347 16.2987 19.3334 16.6667 19.3334C17.0347 19.3334 17.3334 19.0347 17.3334 18.6667C17.3334 18.2987 17.0347 18 16.6667 18Z" fill="#171C27"/>
</svg>
