<svg width="32" height="32" viewBox="0 0 32 32" fill="none" xmlns="http://www.w3.org/2000/svg">
<path d="M16.6667 12H27.3334C29.9067 12 32 9.90669 32 7.33331C32 4.76 29.9067 2.66663 27.3333 2.66663C27.2106 2.66663 27.0906 2.67331 26.972 2.68394C25.8613 1.01869 23.996 0 22 0C18.896 0 16.3347 2.368 16.0307 5.39469C14.496 5.69338 13.3334 7.04538 13.3334 8.66669C13.3333 10.5053 14.8293 12 16.6667 12ZM16.6667 6.66669C17.0347 6.66669 17.3334 6.368 17.3334 6C17.3334 3.42669 19.4267 1.33331 22.0001 1.33331C23.6667 1.33331 25.2201 2.25062 26.0507 3.73062C26.1894 3.97594 26.4641 4.10663 26.7481 4.05994C26.9387 4.02663 27.1334 3.99994 27.3334 3.99994C29.1707 3.99994 30.6667 5.49463 30.6667 7.33325C30.6667 9.17194 29.1707 10.6666 27.3334 10.6666H16.6667C15.564 10.6666 14.6667 9.76925 14.6667 8.66656C14.6667 7.564 15.564 6.66669 16.6667 6.66669Z" fill="#171C27"/>
<path d="M8.00006 26.6667C8.73607 26.6667 9.33338 26.0694 9.33338 25.3334C9.33338 24.5974 8.73607 24 8.00006 24C7.26406 24 6.66675 24.5973 6.66675 25.3333C6.66675 26.0693 7.26406 26.6667 8.00006 26.6667Z" fill="#171C27"/>
<path d="M28.6667 28H3.33331C2.96531 28 2.66663 28.2987 2.66663 28.6667C2.66663 29.0347 2.96531 29.3334 3.33331 29.3334H28.6666C29.0346 29.3334 29.3333 29.0347 29.3333 28.6667C29.3333 28.2987 29.0347 28 28.6667 28Z" fill="#171C27"/>
<path d="M4.00006 26.6667C4.73606 26.6667 5.33337 26.0694 5.33337 25.3334C5.33337 24.5974 4.73606 24 4.00006 24C3.26406 24 2.66675 24.5973 2.66675 25.3333C2.66675 26.0693 3.26406 26.6667 4.00006 26.6667Z" fill="#171C27"/>
<path d="M31.7493 22.876L27.1653 13.7027C27.0013 13.3747 26.6013 13.2387 26.2706 13.404C25.9413 13.568 25.8066 13.9693 25.9719 14.2987L29.4959 21.3494C29.4412 21.3467 29.3892 21.3334 29.3333 21.3334H2.66669C2.61069 21.3334 2.55869 21.3467 2.504 21.3494L8.08269 10.1854C8.10269 10.1587 8.11869 10.1281 8.13338 10.0987C8.35738 9.62669 8.81738 9.33337 9.33337 9.33337H11.3334C11.7014 9.33337 12.0001 9.03469 12.0001 8.66669C12.0001 8.29869 11.7013 8 11.3333 8H9.33331C8.34262 8 7.42531 8.56531 6.968 9.444C6.952 9.46931 6.93731 9.49331 6.924 9.52L0.250688 22.8747C0.246688 22.8827 0.248 22.892 0.244 22.9C0.0906875 23.236 0 23.6067 0 24V29.3333C0 30.804 1.196 32 2.66669 32H29.3334C30.804 32 32 30.804 32 29.3333V24C32 23.6067 31.9093 23.236 31.756 22.9C31.752 22.892 31.7533 22.884 31.7493 22.876ZM30.6667 29.3333C30.6667 30.0693 30.068 30.6666 29.3334 30.6666H2.66669C1.932 30.6666 1.33337 30.0693 1.33337 29.3333V24C1.33337 23.264 1.93206 22.6667 2.66669 22.6667H29.3334C30.0681 22.6667 30.6667 23.264 30.6667 24V29.3333Z" fill="#171C27"/>
</svg>
