<svg width="26" height="26" viewBox="0 0 26 26" fill="none" xmlns="http://www.w3.org/2000/svg">
<g clip-path="url(#clip0)">
<path d="M13.0216 1.06564e-08C9.57637 0.000848541 6.2724 1.37123 3.83797 3.80948C1.40353 6.24752 0.0382477 9.5534 0.0424903 12.9989V13.0012C0.0378234 18.257 3.20136 22.9977 8.05665 25.0102C12.9122 27.0227 18.5016 25.9103 22.2167 22.1923C25.9341 18.4738 27.0455 12.882 25.033 8.02434C23.0203 3.16672 18.2798 -0.000212122 13.0216 1.06564e-08V1.06564e-08ZM16.9766 4.30566C17.3778 5.13913 17.7025 6.0076 17.9467 6.90004C16.3252 6.57633 14.6752 6.41574 13.0216 6.42062C11.3683 6.41574 9.71829 6.57633 8.09675 6.90004C8.34091 6.0076 8.66569 5.13934 9.06683 4.30566C10.1506 2.08951 11.5554 0.868895 13.0216 0.868895C14.4879 0.868895 15.8926 2.08951 16.9766 4.30566ZM18.7322 12.9999C18.739 14.7354 18.5549 16.4662 18.1828 18.1611C16.4879 18.533 14.7571 18.7173 13.0216 18.7103C11.2864 18.7173 9.55558 18.533 7.86064 18.1611C7.48856 16.4662 7.30443 14.7354 7.31122 12.9999C7.30443 11.2647 7.48856 9.53388 7.86064 7.83894C9.55558 7.46686 11.2864 7.28273 13.0216 7.28952C14.7571 7.28273 16.4879 7.46686 18.1828 7.83894C18.5549 9.53388 18.739 11.2647 18.7322 12.9999ZM19.1217 8.07504C20.0142 8.31921 20.8824 8.64398 21.7161 9.04513C23.9322 10.1289 25.1529 11.5337 25.1529 12.9999C25.1529 14.4662 23.9322 15.8709 21.7161 16.9549C20.8824 17.3561 20.0142 17.6808 19.1217 17.9248C19.4452 16.3032 19.6058 14.6535 19.6011 12.9999C19.6058 11.3466 19.4452 9.69658 19.1217 8.07504ZM13.0216 25.1311C11.5554 25.1311 10.1506 23.9105 9.06683 21.6944C8.66569 20.8607 8.34091 19.9922 8.09675 19.1C9.71829 19.4235 11.3683 19.5841 13.0216 19.5792C14.6752 19.5841 16.3252 19.4235 17.9467 19.1C17.7025 19.9924 17.3778 20.8607 16.9766 21.6944C15.8926 23.9105 14.4879 25.1311 13.0216 25.1311ZM0.911386 12.9999V12.9991C0.911386 11.5328 2.12203 10.1287 4.33775 9.04513C5.16953 8.64398 6.0363 8.31921 6.92705 8.07504C6.28556 11.3268 6.28428 14.6726 6.92302 17.9248C6.03375 17.6808 5.16868 17.3561 4.33839 16.9549C2.12245 15.8713 0.911386 14.467 0.911386 13.001V12.9999ZM4.44382 4.42212C6.03397 2.82412 8.04032 1.70406 10.235 1.18943C9.51231 1.84661 8.85257 2.76579 8.28639 3.92403C7.79594 4.94693 7.41198 6.01736 7.14045 7.11875C6.03906 7.39028 4.96842 7.77424 3.94552 8.26448C2.78749 8.83087 1.86832 9.49039 1.21113 10.2131C1.72576 8.0184 2.84582 6.01205 4.44382 4.42212ZM4.44382 21.5779C2.84582 19.9878 1.72598 17.9814 1.21134 15.7867C1.86832 16.5094 2.78749 17.169 3.94573 17.7354C4.96864 18.2258 6.03906 18.6098 7.14045 18.8813C7.41198 19.9827 7.79594 21.0531 8.28618 22.076C8.85257 23.2343 9.5121 24.1534 10.235 24.8106C8.04011 24.2958 6.03375 23.1759 4.44382 21.5779ZM21.5996 21.5779C20.0095 23.1759 18.0031 24.2958 15.8084 24.8104C16.5311 24.1534 17.1909 23.234 17.7571 22.076C18.2475 21.0531 18.6315 19.9827 18.903 18.8813C20.0044 18.6098 21.075 18.2258 22.0977 17.7356C23.256 17.1692 24.1751 16.5094 24.8323 15.7867C24.3177 17.9814 23.1976 19.9878 21.5996 21.5779ZM22.0977 8.26448C21.0748 7.77424 20.0044 7.39028 18.903 7.11875C18.6315 6.01736 18.2475 4.94672 17.7573 3.92382C17.1909 2.76579 16.5311 1.84683 15.8084 1.18943C20.2804 2.24967 23.7719 5.74137 24.8321 10.2133C24.1749 9.4906 23.2558 8.83087 22.0977 8.26448Z" fill="black"/>
<path d="M10.124 12.8681C10.399 12.7392 10.567 12.38 10.567 11.9369C10.567 11.1908 10.0646 10.9329 9.38602 10.9329C8.438 10.9329 8.15862 11.5107 8.15862 11.9089C8.15862 12.1446 8.20975 12.2231 8.53516 12.2231C8.80436 12.2231 8.88327 12.1108 8.88327 11.9426C8.88327 11.7182 9.01797 11.5667 9.38284 11.5667C9.68577 11.5667 9.87669 11.6902 9.87669 12.0603C9.87669 12.5427 9.64101 12.61 9.36078 12.61C9.19807 12.61 9.14186 12.7559 9.14186 12.8961C9.14186 13.0421 9.19913 13.1823 9.36184 13.1823C9.72077 13.1823 9.97978 13.3 9.97978 13.7152V13.8217C9.97978 14.2481 9.79926 14.4275 9.3786 14.4275C9.01967 14.4275 8.79481 14.2703 8.79481 14.0181C8.79481 13.8384 8.7159 13.7599 8.4187 13.7599C8.16626 13.7599 8.0708 13.8217 8.0708 14.0461C8.0708 14.5005 8.43015 15.0671 9.35017 15.0671C10.0907 15.0671 10.6858 14.7249 10.6858 13.8217V13.7152C10.6855 13.2498 10.455 12.9971 10.124 12.8681Z" fill="black"/>
<path d="M11.7175 12.2174V13.7825C11.7175 14.7192 12.2833 15.0669 13.0238 15.0669C13.7642 15.0669 14.3242 14.7192 14.3242 13.7825V13.704C14.3242 12.8177 13.8002 12.5428 13.1664 12.5428C12.8747 12.5428 12.5864 12.61 12.4235 12.8289V12.2174C12.4235 11.7744 12.6537 11.5725 13.0351 11.5725C13.3435 11.5725 13.6072 11.7239 13.6072 11.9874C13.6072 12.2063 13.7867 12.2623 13.9886 12.2623C14.2186 12.2623 14.3308 12.1894 14.3308 11.9594C14.3308 11.4883 13.9581 10.9331 13.0605 10.9331C12.2977 10.9329 11.7175 11.2808 11.7175 12.2174ZM12.4235 13.704C12.4235 13.2776 12.6675 13.1149 13.0209 13.1149C13.3913 13.1149 13.6182 13.2886 13.6182 13.7545V13.8272C13.6182 14.2704 13.3913 14.4723 13.0264 14.4723C12.6562 14.4723 12.4235 14.2704 12.4235 13.8272V13.704Z" fill="black"/>
<path d="M16.6565 15.0669C17.3971 15.0669 17.9626 14.7194 17.9626 13.7824V12.2173C17.9626 11.2808 17.3971 10.9329 16.6565 10.9329C15.9162 10.9329 15.356 11.2808 15.356 12.2173V13.7824C15.356 14.7192 15.9162 15.0669 16.6565 15.0669ZM16.0619 12.2173C16.0619 11.7744 16.2864 11.5724 16.6565 11.5724C17.0212 11.5724 17.2567 11.7744 17.2567 12.2173V13.7824C17.2567 14.2256 17.0212 14.4275 16.6565 14.4275C16.2864 14.4275 16.0619 14.2256 16.0619 13.7824V12.2173Z" fill="black"/>
</g>
<defs>
<clipPath id="clip0">
<rect width="26" height="26" fill="white"/>
</clipPath>
</defs>
</svg>
