<svg width="79" height="17" viewBox="0 0 79 17" fill="none" xmlns="http://www.w3.org/2000/svg">
<g clip-path="url(#clip0)">
<path d="M7.59753 4.78427L0 16.9584H5.19316L12.4971 5.31948L7.59753 4.78427Z" fill="#707070"/>
<path d="M7.77588 4.51127C7.77588 4.51127 9.56867 1.48628 10.0143 0.889598C10.4389 0.285684 11.0033 0.02893 11.5956 0.02893H19.4343V4.14784C19.4343 4.14784 19.8327 2.56754 20.5351 1.81717C21.1939 1.11019 22.0728 0.130185 24.0805 0H38.8475V4.51127H7.77588Z" fill="#707070"/>
<path d="M79 4.51489V0H63.2004C61.1979 0.130185 60.3155 1.11019 59.655 1.81717C58.9525 2.56754 58.5576 4.14965 58.5576 4.14965V4.51308L79 4.51489Z" fill="#707070"/>
<path d="M44.0335 0.021698H39.6179V4.51127H44.0335V0.021698Z" fill="#707070"/>
<path d="M58.5244 0.021698H54.114V4.51127H58.5244V0.021698Z" fill="#707070"/>
<path d="M58.5244 6.13135L54.1875 5.86555V11.0748C54.1875 11.0748 54.1735 12.5755 52.7581 12.5755H45.3039C45.3039 12.5755 44.0423 12.4688 44.0423 11.0892V5.16039L39.6616 4.83673V12.825C40.3693 16.6564 43.7487 16.9512 43.7487 16.9512C43.7487 16.9512 44.0929 16.9747 44.1489 16.9801H54.2172C54.2172 16.9801 58.5262 16.6239 58.5262 12.3893V6.13135H58.5244Z" fill="#707070"/>
<path d="M14.9504 16.9602H35.6008C39.1968 16.2207 39.5725 12.8774 39.5725 12.8774C39.742 11.8848 39.6424 11.0802 39.6424 11.0802C39.5341 10.4112 38.29 7.45307 35.592 7.1945C33.9827 7.04081 19.6578 5.87638 19.6578 5.87638C19.9357 7.34639 20.5804 8.08772 21.0103 8.51263C22.0045 9.49082 23.5877 9.76747 23.5877 9.76747C23.9703 9.80544 34.6275 10.7077 34.6275 10.7077C34.9665 10.7258 35.6112 10.8144 35.6025 11.6768C35.6025 11.7817 35.5099 12.5411 34.6921 12.5411H19.2455V5.84022L14.9522 5.51837V16.9602H14.9504Z" fill="#707070"/>
<path d="M58.5664 12.5159H73.9064C74.2594 12.5159 74.6421 12.3025 74.6421 12.3025C74.8011 12.1561 74.9304 11.8866 74.9304 11.6281C74.9304 10.7674 74.2384 10.7294 73.8907 10.7114C73.8907 10.7114 63.113 9.79103 62.7373 9.75848C62.7373 9.75848 61.2433 9.52342 60.2473 8.54161C59.814 8.12032 59.2408 7.66105 58.8145 6.14584C58.8145 6.14584 73.2215 7.01555 74.8221 7.16924C77.5252 7.43323 78.7903 10.1725 78.9039 11.0838C78.9039 11.0838 79.0192 11.9065 78.8794 12.9191C78.8794 12.9191 78.3203 16.7686 74.3555 17.0018H58.5576L58.5664 12.5159Z" fill="#707070"/>
<path d="M7.59753 4.78427L0 16.9584H5.19316L12.4971 5.31948L7.59753 4.78427Z" fill="#707070"/>
<path d="M7.77588 4.51127C7.77588 4.51127 9.56867 1.48628 10.0143 0.889598C10.4389 0.285684 11.0033 0.02893 11.5956 0.02893H19.4343V4.14784C19.4343 4.14784 19.8327 2.56754 20.5351 1.81717C21.1939 1.11019 22.0728 0.130185 24.0805 0H38.8475V4.51127H7.77588Z" fill="#707070"/>
<path d="M79 4.51489V0H63.2004C61.1979 0.130185 60.3155 1.11019 59.655 1.81717C58.9525 2.56754 58.5576 4.14965 58.5576 4.14965V4.51308L79 4.51489Z" fill="#707070"/>
<path d="M44.0335 0.021698H39.6179V4.51127H44.0335V0.021698Z" fill="#707070"/>
<path d="M58.5244 0.021698H54.114V4.51127H58.5244V0.021698Z" fill="#707070"/>
<path d="M58.5244 6.13135L54.1875 5.86555V11.0748C54.1875 11.0748 54.1735 12.5755 52.7581 12.5755H45.3039C45.3039 12.5755 44.0423 12.4688 44.0423 11.0892V5.16039L39.6616 4.83673V12.825C40.3693 16.6564 43.7487 16.9512 43.7487 16.9512C43.7487 16.9512 44.0929 16.9747 44.1489 16.9801H54.2172C54.2172 16.9801 58.5262 16.6239 58.5262 12.3893V6.13135H58.5244Z" fill="#707070"/>
<path d="M14.9504 16.9602H35.6008C39.1968 16.2207 39.5725 12.8774 39.5725 12.8774C39.742 11.8848 39.6424 11.0802 39.6424 11.0802C39.5341 10.4112 38.29 7.45307 35.592 7.1945C33.9827 7.04081 19.6578 5.87638 19.6578 5.87638C19.9357 7.34639 20.5804 8.08772 21.0103 8.51263C22.0045 9.49082 23.5877 9.76747 23.5877 9.76747C23.9703 9.80544 34.6275 10.7077 34.6275 10.7077C34.9665 10.7258 35.6112 10.8144 35.6025 11.6768C35.6025 11.7817 35.5099 12.5411 34.6921 12.5411H19.2455V5.84022L14.9522 5.51837V16.9602H14.9504Z" fill="#707070"/>
<path d="M58.5664 12.5159H73.9064C74.2594 12.5159 74.6421 12.3025 74.6421 12.3025C74.8011 12.1561 74.9304 11.8866 74.9304 11.6281C74.9304 10.7674 74.2384 10.7294 73.8907 10.7114C73.8907 10.7114 63.113 9.79103 62.7373 9.75848C62.7373 9.75848 61.2433 9.52342 60.2473 8.54161C59.814 8.12032 59.2408 7.66105 58.8145 6.14584C58.8145 6.14584 73.2215 7.01555 74.8221 7.16924C77.5252 7.43323 78.7903 10.1725 78.9039 11.0838C78.9039 11.0838 79.0192 11.9065 78.8794 12.9191C78.8794 12.9191 78.3203 16.7686 74.3555 17.0018H58.5576L58.5664 12.5159Z" fill="#707070"/>
</g>
<defs>
<clipPath id="clip0">
<rect width="79" height="17" fill="white"/>
</clipPath>
</defs>
</svg>
