<svg width="50" height="50" viewBox="0 0 50 50" fill="none" xmlns="http://www.w3.org/2000/svg">
<path d="M40.3206 27.0382H44.0559V30.1823H36.5648V19.4265H40.3206V27.0382ZM28.0795 26.4441L21.9059 31.3L16.2589 26.8617C15.4471 28.8176 13.4854 30.1823 11.2148 30.1823H6.39124V19.4265H11.2148C13.7501 19.4265 15.5706 21.0294 16.2559 22.747L21.903 18.3088L23.9942 19.9529L18.8265 24.0206L19.8177 24.8L24.9883 20.7323L27.0795 22.3765L21.9089 26.4441L22.9001 27.2235L28.0765 23.1588V19.4265H31.8295V27.0323H35.5648V30.1823H28.0795V26.4441ZM13.1706 24.8029C13.1706 23.3412 12.203 22.5176 10.8412 22.5176H10.003V27.0912H10.8177C12.0883 27.0912 13.1706 26.3941 13.1706 24.8029Z" fill="#707070"/>
<path d="M25 0C11.1941 0 0 11.1912 0 25C0 38.8088 11.1941 50 25 50C38.8088 50 50 38.8059 50 25C50 11.1912 38.8059 0 25 0ZM25 47.2941C12.6882 47.2941 2.70588 37.3118 2.70588 25C2.70294 12.6853 12.6853 2.70294 25 2.70294C37.3147 2.70294 47.2971 12.6853 47.2971 25C47.2971 37.3118 37.3147 47.2941 25 47.2941Z" fill="#707070"/>
</svg>
