<svg width="19" height="4" viewBox="0 0 19 4" fill="none" xmlns="http://www.w3.org/2000/svg">
<path d="M14.5 2C14.5 2.39556 14.6173 2.78224 14.8371 3.11114C15.0568 3.44004 15.3692 3.69639 15.7346 3.84776C16.1001 3.99914 16.5022 4.03874 16.8902 3.96157C17.2781 3.8844 17.6345 3.69392 17.9142 3.41421C18.1939 3.13451 18.3844 2.77814 18.4616 2.39018C18.5387 2.00222 18.4991 1.60009 18.3478 1.23463C18.1964 0.869182 17.94 0.556825 17.6111 0.337062C17.2822 0.117299 16.8956 1.00766e-06 16.5 9.90367e-07C15.9696 9.67181e-07 15.4609 0.210715 15.0858 0.585788C14.7107 0.96086 14.5 1.46957 14.5 2ZM4.5 2C4.5 1.60444 4.3827 1.21776 4.16294 0.88886C3.94318 0.559962 3.63082 0.303616 3.26537 0.152241C2.89991 0.00086588 2.49778 -0.0387408 2.10982 0.0384296C1.72186 0.1156 1.36549 0.306082 1.08579 0.585787C0.806082 0.865492 0.615601 1.22186 0.538429 1.60982C0.461258 1.99778 0.500866 2.39991 0.652241 2.76537C0.803615 3.13082 1.05996 3.44318 1.38886 3.66294C1.71776 3.8827 2.10444 4 2.5 4C3.03043 4 3.53914 3.78929 3.91421 3.41421C4.28928 3.03914 4.5 2.53043 4.5 2ZM11.5 2C11.5 1.60444 11.3827 1.21776 11.1629 0.888861C10.9432 0.559962 10.6308 0.303617 10.2654 0.152241C9.89991 0.000866186 9.49778 -0.0387405 9.10982 0.0384299C8.72186 0.1156 8.36549 0.306082 8.08579 0.585787C7.80608 0.865492 7.6156 1.22186 7.53843 1.60982C7.46126 1.99778 7.50086 2.39991 7.65224 2.76537C7.80361 3.13082 8.05996 3.44318 8.38886 3.66294C8.71776 3.8827 9.10444 4 9.5 4C10.0304 4 10.5391 3.78929 10.9142 3.41421C11.2893 3.03914 11.5 2.53043 11.5 2Z" fill="#0E0E0E"/>
</svg>
