<svg width="50" height="50" viewBox="0 0 50 50" fill="none" xmlns="http://www.w3.org/2000/svg">
<path d="M25 50C24.7512 50 24.5035 49.9954 24.2569 49.9884L29.3657 35.9468H36.397C37.6308 35.9468 38.9861 34.9977 39.4074 33.8391L44.9502 18.6134C45.8565 16.1204 44.4294 14.081 41.7766 14.081H32.022L23.838 36.5718H23.8345L19.1944 49.3206C8.1875 46.7037 0 36.809 0 25C0 13.5324 7.72222 3.86806 18.25 0.922454L13.463 14.081H13.4618L5.50232 35.9468H10.8009L17.5694 17.3669H21.5509L14.7824 35.9468L20.0787 35.9479L26.3866 18.6134C27.294 16.1204 25.8657 14.081 23.2164 14.081H18.7627L23.8762 0.0266204C24.2488 0.00925926 24.6238 0 25 0C38.8067 0 50 11.1933 50 25C50 38.8067 38.8067 50 25 50ZM40.1262 17.3542H36.1458L30.5706 32.6505H34.5521L40.1262 17.3542Z" fill="#707070"/>
</svg>
