<svg width="87" height="18" viewBox="0 0 87 18" fill="none" xmlns="http://www.w3.org/2000/svg">
<path d="M36.4644 3.86072C34.8927 3.86072 33.1078 4.5917 32.0153 6.05101V6.04837V4.08766H28.269V17.7651H32.0153V9.98563C32.0153 8.58437 33.0973 7.09602 35.1033 7.09602C36.6539 7.09602 38.2572 8.17797 38.2572 9.98563V17.7678H42.0034V9.28895C42.006 6.14337 39.7604 3.86072 36.4644 3.86072Z" fill="#707070"/>
<path d="M68.6349 4.09033L65.2494 13.4083L61.8612 4.09033H57.5806L63.1959 17.7625H67.3002L72.9155 4.09033H68.6349Z" fill="#707070"/>
<path d="M24.2806 13.5614C22.7037 14.7304 21.8033 15.0101 20.3633 15.0101C19.068 15.0101 18.0571 14.6064 17.341 13.9018L26.9211 9.91706C26.7131 8.43135 26.1498 7.10662 25.2863 6.09856C24.0279 4.63396 22.164 3.85812 19.8973 3.85812C15.7773 3.85812 12.6708 6.90606 12.6708 10.9278C12.6708 15.055 15.7852 17.9974 20.3106 17.9974C22.8458 17.9974 25.439 16.7914 26.65 15.3849L24.2806 13.5614ZM17.083 8.21232C17.7201 7.35468 18.7363 6.85065 19.9657 6.85065C21.3163 6.85065 22.3404 7.62385 22.8695 8.76385L16.3222 11.4846C16.1432 10.0886 16.5012 8.99344 17.083 8.21232Z" fill="#707070"/>
<path d="M12.3127 14.3187H3.79623V0H0V17.7678H12.3127V14.3187Z" fill="#707070"/>
<path d="M79.6418 17.9974C75.5428 17.9974 72.3336 14.9363 72.3336 10.9278C72.3336 6.96412 75.5665 3.85812 79.6918 3.85812C83.7881 3.85812 86.9999 6.91926 86.9999 10.9278C86.9999 14.8914 83.7697 17.9974 79.6418 17.9974ZM79.6418 7.07759C77.5488 7.07759 76.0298 8.66621 76.0298 10.9278C76.0298 13.0864 77.6383 14.7779 79.6918 14.7779C81.7847 14.7779 83.3037 13.1444 83.3037 10.9278C83.3037 8.76913 81.6952 7.07759 79.6418 7.07759Z" fill="#707070"/>
<path d="M50.7963 17.9974C46.6973 17.9974 43.4882 14.9363 43.4882 10.9278C43.4882 6.96412 46.721 3.85812 50.8463 3.85812C54.9427 3.85812 58.1545 6.91926 58.1545 10.9278C58.1545 14.8914 54.9216 17.9974 50.7963 17.9974ZM50.7963 7.07759C48.7034 7.07759 47.1843 8.66621 47.1843 10.9278C47.1843 13.0864 48.7929 14.7779 50.8463 14.7779C52.9392 14.7779 54.4583 13.1444 54.4583 10.9278C54.4583 8.76913 52.8497 7.07759 50.7963 7.07759Z" fill="#707070"/>
</svg>
