<svg width="81" height="19" viewBox="0 0 81 19" fill="none" xmlns="http://www.w3.org/2000/svg">
<path d="M4.39402 1.46338V4.33846H7.18687V6.49462H4.37346V10.872C4.34638 11.0565 4.36069 11.2447 4.41535 11.423C4.47 11.6013 4.56364 11.7652 4.68947 11.9028C4.8153 12.0405 4.97018 12.1484 5.14287 12.2188C5.31557 12.2892 5.50175 12.3203 5.68794 12.3098C6.10959 12.2977 6.52335 12.1926 6.89964 12.002L7.598 14.1376C6.94042 14.412 6.2365 14.5584 5.52405 14.5688C3.32676 14.651 1.88894 13.3982 1.88894 10.872V6.4974H0V4.33846H1.88894V1.73004L4.39402 1.46338Z" fill="white"/>
<path d="M11.5598 0.0666504V5.69348C11.9224 5.20074 12.4004 4.80454 12.9519 4.53961C13.5033 4.27468 14.1114 4.14914 14.7227 4.174C17.5977 4.174 18.8711 6.12517 18.8711 9.10304V14.4427H16.3655V9.12359C16.3655 7.2752 15.4004 6.49462 14.0654 6.49462C12.587 6.49462 11.5598 7.74743 11.5598 9.26692V14.4421H9.05415V0.0666504H11.5598Z" fill="white"/>
<path d="M23.7185 1.46338C23.7185 3.41455 20.7612 3.41455 20.7612 1.46338C20.7612 -0.487792 23.7185 -0.487792 23.7185 1.46338Z" fill="white"/>
<path d="M23.4924 4.27673H20.9867V14.4426H23.4924V4.27673Z" fill="white"/>
<path d="M33.206 14.4426V9.14411C33.206 7.60406 32.3637 6.43349 30.7615 6.43349C29.2214 6.43349 28.1736 7.72741 28.1736 9.2669V14.442H25.6885V4.29788H27.9269L28.0936 5.67402C28.5135 5.20515 29.0257 4.82813 29.5982 4.56664C30.1707 4.30516 30.7911 4.16487 31.4204 4.15454C33.8027 4.15454 35.7127 5.94125 35.7127 9.12468V14.4437L33.206 14.4426Z" fill="white"/>
<path d="M40.3118 0.0871582V8.38405L43.7207 4.31783H46.7208V4.46171L42.5929 9.08241L47.2958 14.2576V14.4426H44.2769L40.3134 9.86301V14.4431H37.8078V0.0871582H40.3118Z" fill="white"/>
<path d="M48.4437 18.6733V4.31839H50.7849L50.9515 5.71512C51.3315 5.20381 51.8276 4.79009 52.3988 4.50804C52.97 4.226 53.6002 4.08367 54.2372 4.09282C57.3589 4.09282 59.4328 6.41344 59.4328 9.39131C59.4328 12.3486 57.5639 14.6898 54.3216 14.6898C53.2538 14.6898 51.6726 14.3615 50.9537 13.252V18.6738L48.4437 18.6733ZM56.9256 9.39076C56.9256 8.62824 56.6227 7.89694 56.0835 7.35776C55.5443 6.81857 54.813 6.51569 54.0505 6.51569C53.2879 6.51569 52.5566 6.81857 52.0175 7.35776C51.4783 7.89694 51.1754 8.62824 51.1754 9.39076C51.1754 10.1533 51.4783 10.8846 52.0175 11.4238C52.5566 11.963 53.2879 12.2658 54.0505 12.2658C54.813 12.2658 55.5443 11.963 56.0835 11.4238C56.6227 10.8846 56.9256 10.1533 56.9256 9.39076Z" fill="white"/>
<path d="M63.5985 4.31838L63.7835 5.48897C64.0741 5.00344 64.4968 4.61053 65.0022 4.35605C65.5076 4.10158 66.075 3.99604 66.6381 4.05172C67.5976 4.03634 68.528 4.38059 69.2465 5.01675L68.117 7.19346C67.874 6.97019 67.5891 6.79717 67.279 6.68438C66.9688 6.57158 66.6394 6.52124 66.3097 6.53623C64.9952 6.53623 63.7835 7.2346 63.7835 9.10354V14.4431H61.2779V4.31838H63.5985Z" fill="white"/>
<path d="M80.0012 9.39025C80.0012 12.3065 78.009 14.6682 74.7233 14.6682C71.4377 14.6682 69.4659 12.3065 69.4659 9.39025C69.4588 8.69394 69.5898 8.00313 69.8513 7.35776C70.1128 6.71238 70.4997 6.12526 70.9895 5.63034C71.4794 5.13543 72.0625 4.74254 72.7052 4.4744C73.3478 4.20627 74.0373 4.06824 74.7336 4.06824C75.43 4.06824 76.1194 4.20627 76.762 4.4744C77.4047 4.74254 77.9878 5.13543 78.4777 5.63034C78.9675 6.12526 79.3544 6.71238 79.6159 7.35776C79.8774 8.00313 80.0084 8.69394 80.0012 9.39025ZM71.9716 9.39025C71.9716 10.9303 72.8955 12.3681 74.7233 12.3681C76.5511 12.3681 77.4751 10.9303 77.4751 9.39025C77.4939 9.01199 77.4375 8.63375 77.309 8.27748C77.1805 7.92122 76.9824 7.59401 76.7264 7.3149C76.4704 7.03578 76.1615 6.81034 75.8176 6.65159C75.4738 6.49285 75.1018 6.40399 74.7233 6.39019C72.916 6.39019 71.9716 7.87132 71.9716 9.39025Z" fill="white"/>
</svg>
