<svg width="16" height="15" viewBox="0 0 16 15" fill="none" xmlns="http://www.w3.org/2000/svg">
<path d="M7.99998 9.88838C9.32546 9.88838 10.4 8.81386 10.4 7.48838C10.4 6.1629 9.32546 5.08838 7.99998 5.08838C6.67449 5.08838 5.59998 6.1629 5.59998 7.48838C5.59998 8.81386 6.67449 9.88838 7.99998 9.88838Z" fill="#4F4F4F"/>
<path d="M10.9994 0.28833H4.99939C2.68399 0.28833 0.799988 2.17293 0.799988 4.48893V10.4889C0.799988 12.8043 2.68459 14.6883 5.00059 14.6883H11.0006C13.316 14.6883 15.2 12.8037 15.2 10.4877V4.48773C15.2 2.17233 13.3154 0.28833 10.9994 0.28833ZM7.99999 11.0883C6.01459 11.0883 4.39999 9.47373 4.39999 7.48833C4.39999 5.50293 6.01459 3.88833 7.99999 3.88833C9.98539 3.88833 11.6 5.50293 11.6 7.48833C11.6 9.47373 9.98539 11.0883 7.99999 11.0883ZM12.2 3.88833C12.0409 3.88833 11.8882 3.82512 11.7757 3.71259C11.6632 3.60007 11.6 3.44746 11.6 3.28833C11.6 3.1292 11.6632 2.97659 11.7757 2.86407C11.8882 2.75154 12.0409 2.68833 12.2 2.68833C12.3591 2.68833 12.5117 2.75154 12.6243 2.86407C12.7368 2.97659 12.8 3.1292 12.8 3.28833C12.8 3.44746 12.7368 3.60007 12.6243 3.71259C12.5117 3.82512 12.3591 3.88833 12.2 3.88833Z" fill="#4F4F4F"/>
</svg>
