<svg width="32" height="32" viewBox="0 0 32 32" fill="none" xmlns="http://www.w3.org/2000/svg">
<path d="M27.1999 9.02152C26.3362 9.37543 25.4084 9.61358 24.4346 9.721C25.4402 9.16631 26.1925 8.2928 26.551 7.26366C25.6057 7.78111 24.5716 8.14581 23.4933 8.34203C22.7688 7.62687 21.8085 7.15258 20.7617 6.99287C19.7149 6.83316 18.6403 6.99698 17.7048 7.45887C16.7694 7.92076 16.0255 8.65484 15.5888 9.54701C15.1522 10.4392 15.0472 11.4395 15.2902 12.3924C13.3758 12.304 11.503 11.845 9.79344 11.0454C8.08384 10.2457 6.57566 9.12324 5.36685 7.7508C4.93934 8.42922 4.71478 9.20022 4.71613 9.98498C4.71537 10.7161 4.91039 11.4361 5.28387 12.081C5.65735 12.7259 6.19771 13.2756 6.85693 13.6814C6.09254 13.659 5.34498 13.4686 4.67642 13.126V13.1818C4.6763 14.2074 5.06085 15.2015 5.76478 15.9954C6.46872 16.7892 7.44868 17.3338 8.53834 17.5369C7.82944 17.7151 7.08573 17.7413 6.36415 17.6135C6.67163 18.4961 7.27044 19.268 8.07681 19.8212C8.88318 20.3744 9.85679 20.6812 10.8615 20.6987C9.15629 21.934 7.05018 22.6039 4.8822 22.6006C4.49411 22.6006 4.11053 22.5798 3.73328 22.5382C5.93471 23.843 8.49669 24.5356 11.1133 24.5333C19.9689 24.5333 24.81 17.765 24.81 11.8952C24.81 11.7029 24.8055 11.5113 24.7965 11.3207C25.7392 10.692 26.5531 9.91346 27.1999 9.02152Z" fill="#222222"/>
</svg>
