<svg width="32" height="32" viewBox="0 0 32 32" fill="none" xmlns="http://www.w3.org/2000/svg">
<path fill-rule="evenodd" clip-rule="evenodd" d="M6.36508 21.0318C7.50593 19.8909 9.05325 19.25 10.6666 19.25H21.3333C22.9467 19.25 24.494 19.8909 25.6349 21.0318C26.7757 22.1726 27.4166 23.7199 27.4166 25.3333V28C27.4166 28.4142 27.0809 28.75 26.6666 28.75C26.2524 28.75 25.9166 28.4142 25.9166 28V25.3333C25.9166 24.1178 25.4338 22.952 24.5742 22.0924C23.7147 21.2329 22.5489 20.75 21.3333 20.75H10.6666C9.45107 20.75 8.28528 21.2329 7.42574 22.0924C6.5662 22.952 6.08331 24.1178 6.08331 25.3333V28C6.08331 28.4142 5.74753 28.75 5.33331 28.75C4.9191 28.75 4.58331 28.4142 4.58331 28V25.3333C4.58331 23.7199 5.22423 22.1726 6.36508 21.0318Z" fill="#4F4F4F"/>
<path fill-rule="evenodd" clip-rule="evenodd" d="M16 4.75C13.4687 4.75 11.4166 6.80203 11.4166 9.33333C11.4166 11.8646 13.4687 13.9167 16 13.9167C18.5313 13.9167 20.5833 11.8646 20.5833 9.33333C20.5833 6.80203 18.5313 4.75 16 4.75ZM9.91663 9.33333C9.91663 5.9736 12.6402 3.25 16 3.25C19.3597 3.25 22.0833 5.9736 22.0833 9.33333C22.0833 12.6931 19.3597 15.4167 16 15.4167C12.6402 15.4167 9.91663 12.6931 9.91663 9.33333Z" fill="#4F4F4F"/>
</svg>
