<svg width="29" height="27" viewBox="0 0 29 27" fill="none" xmlns="http://www.w3.org/2000/svg">
<path d="M24.2921 6.10026C27.2136 5.47368 28.6052 1.25269 28.6052 1.25269L24.5904 1.25269L24.2921 6.10026Z" fill="white"/>
<path d="M0.819824 3.3305C1.47354 2.51676 2.59382 2.53018 2.87328 2.55204L6.98279 2.55204L6.98279 4.1797L2.76202 4.1797C2.55306 4.16334 1.93467 4.41027 2.17067 5.26471L5.16259 12.7136C5.16259 12.7136 5.57771 13.6794 7.10224 13.6874L7.11841 15.315C4.44925 15.315 3.67065 13.3808 3.64355 13.3077L0.640704 5.82353C0.277223 4.78198 0.336845 3.94101 0.819824 3.33055L0.819824 3.3305Z" fill="white"/>
<path d="M7.13755 1.25261L7.08316 24.1771C7.15725 25.0865 7.90977 25.7909 8.82209 25.8047L21.3408 25.8047C22.2531 25.7909 23.0056 25.0865 23.0797 24.1771L24.4929 1.25256L7.13755 1.25256L7.13755 1.25261Z" fill="white"/>
<path d="M24.5688 6.43665L23.4838 24.2017C23.393 25.3161 22.4701 26.1794 21.3516 26.1953L8.82198 26.1953C7.70364 26.1794 6.78079 25.3162 6.68973 24.2017L6.68973 23.716L6.70884 15.6974C4.09935 15.5075 3.3127 13.5463 3.28018 13.4622L0.271675 5.95911C-0.143299 4.77356 -0.0620215 3.80525 0.51042 3.08372C1.26722 2.12893 2.50152 2.12893 2.88665 2.15603L6.74137 2.15603L6.74137 1.24989C6.74135 1.19824 6.75151 1.14709 6.77127 1.09936C6.79102 1.05163 6.81999 1.00827 6.85651 0.971743C6.89303 0.935217 6.93639 0.906245 6.98412 0.886483C7.03184 0.866721 7.08299 0.856556 7.13464 0.856569L28.6052 0.856571C28.6677 0.856316 28.7294 0.870957 28.7851 0.89928C28.8407 0.927604 28.8889 0.968794 28.9255 1.01944C28.9621 1.07008 28.9861 1.12871 28.9955 1.19049C29.0049 1.25226 28.9995 1.31538 28.9796 1.37463C28.9091 1.55106 27.5391 5.63639 24.5687 6.43665L24.5688 6.43665ZM27.398 2.91009L24.7857 2.91009L24.6203 5.60381C25.8762 5.13994 26.8012 3.94371 27.398 2.90191L27.398 2.91009ZM23.9964 2.91009L7.52801 2.91009L7.50366 13.6088C7.52023 13.6701 7.52023 13.7347 7.50366 13.7959L7.50366 15.2283C7.52529 15.2971 7.52529 15.3709 7.50366 15.4397L7.48455 23.3227L22.7377 23.3227L23.9964 2.91009ZM6.73588 4.57572L2.7482 4.57572C2.67618 4.58934 2.61213 4.63008 2.56927 4.68953C2.53543 4.75872 2.51582 4.83399 2.5116 4.9109C2.50739 4.9878 2.51865 5.06477 2.54473 5.13724L5.52868 12.5643C5.52868 12.5914 5.79996 13.1422 6.71952 13.2724L6.73588 4.57572ZM8.82198 25.4087L21.3407 25.4087C22.0468 25.3965 22.6309 24.856 22.697 24.1528L22.697 24.1066L7.47657 24.1066L7.47657 24.1689C7.55006 24.8616 8.1258 25.3922 8.82198 25.4087ZM2.87318 2.94811L2.83521 2.94811C2.64536 2.93444 1.66054 2.89642 1.12083 3.58017C0.727512 4.07658 0.686798 4.79262 1.00138 5.69052L4.01238 13.1747C4.03967 13.2426 4.64445 14.7319 6.70884 14.9107L6.70884 14.0697C5.2087 13.907 4.79373 12.8736 4.79373 12.8736L1.80983 5.41381L1.79616 5.37304C1.72372 5.17423 1.70266 4.96034 1.73494 4.75121C1.76721 4.54209 1.85177 4.3445 1.98077 4.17677C2.07697 4.05782 2.19846 3.96178 2.33641 3.89564C2.47435 3.8295 2.6253 3.7949 2.77828 3.79437L6.73593 3.79437L6.73593 2.94811L2.87318 2.94811ZM7.53076 1.64595L7.53076 2.11257L24.0453 2.11257L24.0751 1.64596L7.53076 1.64595ZM24.8645 1.64596L24.8347 2.11257L27.8186 2.11257C27.8999 1.93894 27.9704 1.78162 28.0273 1.64596L24.8645 1.64596Z" fill="#242E33"/>
<path d="M8.97932 18.0222L12.202 18.0222C12.242 18.0122 12.2838 18.0114 12.3241 18.0199C12.3645 18.0284 12.4024 18.046 12.4349 18.0714C12.4674 18.0968 12.4937 18.1292 12.5118 18.1663C12.5299 18.2034 12.5393 18.2441 12.5393 18.2853C12.5393 18.3266 12.5299 18.3673 12.5118 18.4043C12.4937 18.4414 12.4674 18.4738 12.4349 18.4992C12.4024 18.5246 12.3645 18.5422 12.3241 18.5507C12.2838 18.5592 12.242 18.5585 12.202 18.5484L8.97932 18.5484C8.94477 18.5571 8.90885 18.5589 8.87361 18.5537C8.83837 18.5485 8.8045 18.5364 8.77394 18.5181C8.74338 18.4998 8.71673 18.4757 8.69552 18.447C8.67431 18.4184 8.65895 18.3859 8.65031 18.3513C8.63893 18.3059 8.63951 18.2582 8.652 18.2131C8.6645 18.1679 8.68848 18.1268 8.72161 18.0936C8.75474 18.0605 8.79589 18.0365 8.84105 18.0239C8.88622 18.0114 8.93385 18.0108 8.97932 18.0222Z" fill="#242E33"/>
<path d="M8.97925 18.9689L11.2797 18.9689C11.3142 18.9776 11.3467 18.993 11.3753 19.0142C11.4039 19.0354 11.428 19.062 11.4463 19.0926C11.4646 19.1231 11.4767 19.157 11.4819 19.1922C11.4872 19.2274 11.4854 19.2633 11.4767 19.2979C11.4648 19.3455 11.4402 19.389 11.4054 19.4237C11.3707 19.4585 11.3272 19.4831 11.2796 19.4951L8.9765 19.4951C8.94195 19.5038 8.90604 19.5055 8.8708 19.5003C8.83557 19.4951 8.80172 19.4829 8.77117 19.4646C8.74062 19.4463 8.71398 19.4222 8.69277 19.3935C8.67156 19.3649 8.65619 19.3324 8.64755 19.2979C8.63887 19.2633 8.63708 19.2274 8.6423 19.1921C8.64752 19.1569 8.65963 19.123 8.67795 19.0925C8.69627 19.0619 8.72043 19.0353 8.74906 19.0141C8.77769 18.9929 8.81021 18.9775 8.84478 18.9689C8.88801 18.958 8.93327 18.958 8.9765 18.9689L8.97925 18.9689Z" fill="#242E33"/>
<path d="M8.97924 19.9156L11.2797 19.9156C11.3142 19.9243 11.3467 19.9397 11.3753 19.9609C11.4039 19.9821 11.428 20.0088 11.4463 20.0393C11.4646 20.0699 11.4767 20.1037 11.4819 20.139C11.4872 20.1742 11.4854 20.2101 11.4767 20.2447C11.4648 20.2923 11.4402 20.3358 11.4055 20.3706C11.3708 20.4053 11.3273 20.43 11.2796 20.4419L8.97649 20.4419C8.91779 20.4272 8.86566 20.3934 8.82841 20.3457C8.79117 20.298 8.77093 20.2393 8.77093 20.1788C8.77093 20.1183 8.79117 20.0595 8.82841 20.0118C8.86566 19.9641 8.91779 19.9303 8.97649 19.9156L8.97924 19.9156Z" fill="#242E33"/>
<path d="M8.97921 21.8118L11.2797 21.8118C11.3142 21.8204 11.3467 21.8358 11.3753 21.857C11.4039 21.8782 11.428 21.9049 11.4463 21.9354C11.4646 21.966 11.4767 21.9999 11.482 22.0351C11.4872 22.0703 11.4854 22.1062 11.4767 22.1408C11.4648 22.1884 11.4401 22.2319 11.4054 22.2667C11.3707 22.3014 11.3272 22.3261 11.2796 22.338L8.97647 22.338C8.91783 22.3233 8.86578 22.2894 8.8286 22.2418C8.79141 22.1941 8.77122 22.1354 8.77122 22.0749C8.77122 22.0144 8.79141 21.9557 8.8286 21.908C8.86578 21.8604 8.91783 21.8265 8.97647 21.8118L8.97921 21.8118Z" fill="#242E33"/>
<path d="M8.97922 20.8516L11.2797 20.8516C11.3142 20.8602 11.3467 20.8756 11.3753 20.8968C11.4039 20.918 11.428 20.9447 11.4463 20.9752C11.4646 21.0058 11.4767 21.0397 11.482 21.0749C11.4872 21.1101 11.4854 21.146 11.4767 21.1806C11.4648 21.2282 11.4401 21.2717 11.4054 21.3065C11.3707 21.3412 11.3272 21.3659 11.2796 21.3778L8.97647 21.3778C8.94192 21.3865 8.906 21.3882 8.87077 21.383C8.83554 21.3778 8.80168 21.3657 8.77114 21.3473C8.74059 21.329 8.71395 21.3049 8.69274 21.2763C8.67153 21.2476 8.65616 21.2151 8.64751 21.1806C8.63883 21.146 8.63705 21.1101 8.64227 21.0749C8.64748 21.0396 8.6596 21.0057 8.67792 20.9752C8.69624 20.9446 8.7204 20.918 8.74903 20.8968C8.77765 20.8756 8.81018 20.8602 8.84475 20.8516C8.88798 20.8407 8.93324 20.8407 8.97647 20.8516L8.97922 20.8516Z" fill="#242E33"/>
<path d="M12.2022 4.52135L8.97947 4.52135C8.92077 4.50671 8.86864 4.47286 8.83139 4.42518C8.79415 4.3775 8.77391 4.31874 8.77391 4.25823C8.77391 4.19773 8.79415 4.13896 8.83139 4.09129C8.86864 4.04361 8.92077 4.00976 8.97947 3.99512L12.2022 3.99512C12.2609 4.00976 12.313 4.04361 12.3502 4.09129C12.3875 4.13897 12.4077 4.19773 12.4077 4.25823C12.4077 4.31874 12.3875 4.3775 12.3502 4.42518C12.313 4.47286 12.2609 4.50671 12.2022 4.52135Z" fill="#242E33"/>
<path d="M8.97922 4.9447L11.2797 4.9447C11.3142 4.95336 11.3467 4.96874 11.3753 4.98996C11.4039 5.01118 11.428 5.03783 11.4463 5.06838C11.4646 5.09894 11.4767 5.1328 11.482 5.16803C11.4872 5.20326 11.4854 5.23917 11.4767 5.27371C11.4647 5.32133 11.4401 5.36482 11.4054 5.39955C11.3707 5.43428 11.3272 5.45895 11.2796 5.47095L8.97647 5.47095C8.94192 5.4796 8.90601 5.48136 8.87077 5.47613C8.83554 5.4709 8.80169 5.45879 8.77114 5.44047C8.74059 5.42216 8.71395 5.398 8.69274 5.36939C8.67153 5.34078 8.65616 5.30826 8.64752 5.27371C8.63883 5.23916 8.63705 5.20323 8.64227 5.16799C8.64748 5.13274 8.6596 5.09887 8.67792 5.06831C8.69624 5.03776 8.7204 5.01111 8.74903 4.9899C8.77765 4.96869 8.81018 4.95333 8.84475 4.9447C8.88798 4.9338 8.93324 4.9338 8.97647 4.9447L8.97922 4.9447Z" fill="#242E33"/>
<path d="M8.9792 5.89134L11.2796 5.89134C11.3196 5.8813 11.3614 5.88051 11.4018 5.88904C11.4421 5.89757 11.48 5.91519 11.5125 5.94056C11.545 5.96593 11.5713 5.99838 11.5894 6.03545C11.6075 6.07251 11.6169 6.11322 11.6169 6.15446C11.6169 6.19571 11.6075 6.23641 11.5894 6.27348C11.5713 6.31054 11.545 6.343 11.5125 6.36836C11.48 6.39373 11.4421 6.41135 11.4018 6.41988C11.3614 6.42841 11.3196 6.42763 11.2796 6.41759L8.97651 6.41759C8.91787 6.40287 8.86582 6.36899 8.82864 6.32132C8.79145 6.27365 8.77126 6.21492 8.77126 6.15446C8.77126 6.094 8.79145 6.03528 8.82864 5.98761C8.86582 5.93993 8.91787 5.90605 8.97651 5.89134L8.9792 5.89134Z" fill="#242E33"/>
<path d="M8.97922 7.78467L11.2797 7.78467C11.3142 7.79333 11.3467 7.8087 11.3753 7.82992C11.4039 7.85114 11.428 7.87779 11.4463 7.90835C11.4646 7.9389 11.4767 7.97276 11.482 8.00799C11.4872 8.04322 11.4854 8.07914 11.4767 8.11368C11.4648 8.16131 11.4401 8.20482 11.4054 8.23955C11.3707 8.27429 11.3272 8.29895 11.2796 8.31091L8.97647 8.31091C8.94192 8.31956 8.90601 8.32133 8.87077 8.3161C8.83554 8.31087 8.80169 8.29875 8.77114 8.28043C8.74059 8.26212 8.71395 8.23797 8.69274 8.20935C8.67153 8.18074 8.65616 8.14823 8.64752 8.11368C8.63883 8.07912 8.63705 8.04319 8.64227 8.00795C8.64748 7.97271 8.6596 7.93884 8.67792 7.90828C8.69624 7.87772 8.7204 7.85107 8.74903 7.82986C8.77765 7.80865 8.81018 7.7933 8.84475 7.78467C8.88798 7.77376 8.93324 7.77376 8.97647 7.78467L8.97922 7.78467Z" fill="#242E33"/>
<path d="M8.97934 6.83796L11.2798 6.83796C11.3384 6.85266 11.3905 6.88653 11.4277 6.9342C11.4649 6.98187 11.4851 7.0406 11.4851 7.10106C11.4851 7.16153 11.4649 7.22026 11.4277 7.26793C11.3905 7.31559 11.3384 7.34947 11.2798 7.36416L8.97664 7.36416C8.94209 7.37284 8.90616 7.37463 8.87092 7.36941C8.83567 7.36419 8.8018 7.35208 8.77124 7.33376C8.74069 7.31544 8.71404 7.29128 8.69283 7.26265C8.67162 7.23402 8.65626 7.20149 8.64763 7.16692C8.63626 7.12147 8.63685 7.07385 8.64935 7.02869C8.66186 6.98354 8.68584 6.94239 8.71898 6.90926C8.75211 6.87613 8.79326 6.85215 8.83841 6.83966C8.88357 6.82716 8.93119 6.82658 8.97664 6.83796L8.97934 6.83796Z" fill="#242E33"/>
<path d="M12.202 9.18713L8.97927 9.18712C8.92056 9.17249 8.86844 9.13863 8.83119 9.09095C8.79394 9.04328 8.7737 8.98451 8.7737 8.92401C8.7737 8.8635 8.79394 8.80474 8.83119 8.75706C8.86844 8.70938 8.92056 8.67553 8.97927 8.66089L12.202 8.66089C12.2365 8.66953 12.269 8.68489 12.2976 8.7061C12.3262 8.72731 12.3504 8.75396 12.3687 8.78451C12.387 8.81506 12.3991 8.84892 12.4043 8.88416C12.4095 8.91939 12.4077 8.9553 12.3991 8.98984C12.3872 9.0375 12.3625 9.08103 12.3278 9.11578C12.2931 9.15053 12.2496 9.17519 12.202 9.18713Z" fill="#242E33"/>
<path d="M8.97923 9.61841L11.2797 9.61841C11.3384 9.63309 11.3905 9.66695 11.4277 9.71463C11.4649 9.7623 11.4851 9.82105 11.4851 9.88153C11.4851 9.94201 11.4649 10.0008 11.4277 10.0484C11.3905 10.0961 11.3384 10.13 11.2797 10.1447L8.97653 10.1447C8.91783 10.13 8.8657 10.0962 8.82845 10.0485C8.7912 10.0008 8.77097 9.94204 8.77097 9.88153C8.77097 9.82103 8.7912 9.76226 8.82845 9.71458C8.8657 9.6669 8.91783 9.63305 8.97653 9.61841L8.97923 9.61841Z" fill="#242E33"/>
<path d="M8.97924 10.5652L11.2797 10.5652C11.3142 10.5738 11.3467 10.5892 11.3753 10.6104C11.4039 10.6317 11.428 10.6583 11.4463 10.6888C11.4646 10.7194 11.4767 10.7533 11.4819 10.7885C11.4872 10.8237 11.4854 10.8596 11.4767 10.8941C11.4648 10.9418 11.4402 10.9853 11.4055 11.0201C11.3707 11.0548 11.3273 11.0795 11.2796 11.0914L8.97649 11.0914C8.94194 11.1001 8.90602 11.1018 8.87079 11.0966C8.83555 11.0914 8.80169 11.0793 8.77115 11.0609C8.7406 11.0426 8.71396 11.0185 8.69275 10.9898C8.67154 10.9612 8.65618 10.9287 8.64754 10.8941C8.63886 10.8596 8.63709 10.8237 8.64231 10.7884C8.64753 10.7532 8.65964 10.7193 8.67796 10.6888C8.69628 10.6582 8.72044 10.6316 8.74906 10.6104C8.77769 10.5892 8.81021 10.5738 8.84477 10.5652C8.888 10.5543 8.93326 10.5543 8.97649 10.5652L8.97924 10.5652Z" fill="#242E33"/>
<path d="M8.97932 12.4612L11.2798 12.4612C11.3384 12.4759 11.3904 12.5098 11.4275 12.5575C11.4647 12.6052 11.4849 12.6639 11.4849 12.7243C11.4849 12.7847 11.4647 12.8434 11.4275 12.8911C11.3904 12.9388 11.3384 12.9727 11.2798 12.9874L8.97662 12.9874C8.91792 12.9728 8.86579 12.9389 8.82854 12.8913C8.79129 12.8436 8.77106 12.7848 8.77106 12.7243C8.77106 12.6638 8.79129 12.605 8.82854 12.5574C8.86579 12.5097 8.91792 12.4758 8.97662 12.4612L8.97932 12.4612Z" fill="#242E33"/>
<path d="M8.97921 11.5145L11.2797 11.5145C11.3142 11.5232 11.3467 11.5386 11.3753 11.5598C11.4039 11.581 11.428 11.6076 11.4463 11.6382C11.4646 11.6688 11.4767 11.7026 11.482 11.7378C11.4872 11.7731 11.4854 11.809 11.4767 11.8435C11.4648 11.8912 11.4401 11.9347 11.4054 11.9694C11.3707 12.0041 11.3272 12.0288 11.2796 12.0408L8.97647 12.0408C8.91783 12.026 8.86578 11.9922 8.8286 11.9445C8.79141 11.8968 8.77122 11.8381 8.77122 11.7776C8.77122 11.7172 8.79141 11.6585 8.8286 11.6108C8.86578 11.5631 8.91783 11.5292 8.97647 11.5145L8.97921 11.5145Z" fill="#242E33"/>
<path d="M12.202 13.8718L8.97929 13.8718C8.94473 13.8805 8.90881 13.8822 8.87357 13.877C8.83834 13.8718 8.80447 13.8597 8.77392 13.8413C8.74337 13.823 8.71672 13.7989 8.69551 13.7703C8.67429 13.7416 8.65892 13.7091 8.65028 13.6746C8.6416 13.64 8.63982 13.6041 8.64504 13.5688C8.65026 13.5336 8.66237 13.4997 8.6807 13.4692C8.69902 13.4386 8.72319 13.412 8.75182 13.3908C8.78046 13.3696 8.81299 13.3542 8.84756 13.3456C8.89079 13.3347 8.93606 13.3347 8.97929 13.3456L12.202 13.3456C12.242 13.3355 12.2838 13.3348 12.3241 13.3433C12.3645 13.3518 12.4024 13.3694 12.4349 13.3948C12.4674 13.4202 12.4937 13.4526 12.5118 13.4897C12.5299 13.5267 12.5393 13.5674 12.5393 13.6087C12.5393 13.6499 12.5299 13.6906 12.5118 13.7277C12.4937 13.7648 12.4674 13.7972 12.4349 13.8226C12.4024 13.8479 12.3645 13.8656 12.3241 13.8741C12.2838 13.8826 12.242 13.8818 12.202 13.8718Z" fill="#242E33"/>
<path d="M8.97918 14.2922L11.2796 14.2922C11.3196 14.2822 11.3614 14.2814 11.4018 14.2899C11.4421 14.2985 11.48 14.3161 11.5125 14.3414C11.545 14.3668 11.5713 14.3993 11.5894 14.4363C11.6075 14.4734 11.6169 14.5141 11.6169 14.5553C11.6169 14.5966 11.6075 14.6373 11.5894 14.6743C11.5713 14.7114 11.545 14.7439 11.5125 14.7692C11.48 14.7946 11.4421 14.8122 11.4018 14.8207C11.3614 14.8293 11.3196 14.8285 11.2796 14.8184L8.97648 14.8184C8.91778 14.8038 8.86565 14.77 8.8284 14.7223C8.79115 14.6746 8.77092 14.6158 8.77092 14.5553C8.77092 14.4948 8.79115 14.4361 8.8284 14.3884C8.86565 14.3407 8.91778 14.3069 8.97648 14.2922L8.97918 14.2922Z" fill="#242E33"/>
<path d="M8.97931 15.2416L11.2798 15.2416C11.3384 15.2564 11.3904 15.2903 11.4275 15.3379C11.4647 15.3856 11.4849 15.4443 11.4849 15.5047C11.4849 15.5652 11.4647 15.6239 11.4275 15.6716C11.3904 15.7192 11.3384 15.7531 11.2798 15.7679L8.97662 15.7679C8.94207 15.7766 8.90615 15.7784 8.87091 15.7732C8.83567 15.768 8.8018 15.7559 8.77124 15.7376C8.74068 15.7193 8.71403 15.6951 8.69282 15.6665C8.67161 15.6379 8.65624 15.6053 8.64761 15.5708C8.63622 15.5253 8.63681 15.4777 8.6493 15.4325C8.6618 15.3873 8.68578 15.3462 8.71891 15.313C8.75204 15.2799 8.79319 15.2559 8.83835 15.2434C8.88352 15.2309 8.93115 15.2303 8.97662 15.2416L8.97931 15.2416Z" fill="#242E33"/>
<path d="M8.97924 17.1351L11.2797 17.1351C11.3142 17.1438 11.3467 17.1592 11.3753 17.1804C11.4039 17.2016 11.428 17.2283 11.4463 17.2588C11.4646 17.2894 11.4767 17.3232 11.4819 17.3585C11.4872 17.3937 11.4854 17.4296 11.4767 17.4641C11.4648 17.5118 11.4402 17.5553 11.4055 17.59C11.3708 17.6248 11.3273 17.6494 11.2796 17.6614L8.97649 17.6614C8.91779 17.6467 8.86566 17.6129 8.82841 17.5652C8.79117 17.5175 8.77093 17.4588 8.77093 17.3982C8.77093 17.3377 8.79117 17.279 8.82841 17.2313C8.86566 17.1836 8.91779 17.1498 8.97649 17.1351L8.97924 17.1351Z" fill="#242E33"/>
<path d="M8.97922 16.1886L11.2797 16.1886C11.3142 16.1973 11.3467 16.2126 11.3753 16.2339C11.4039 16.2551 11.428 16.2817 11.4463 16.3123C11.4646 16.3428 11.4767 16.3767 11.482 16.4119C11.4872 16.4471 11.4854 16.4831 11.4767 16.5176C11.4648 16.5652 11.4401 16.6087 11.4054 16.6435C11.3707 16.6782 11.3272 16.7029 11.2796 16.7148L8.97647 16.7148C8.94192 16.7235 8.906 16.7252 8.87077 16.72C8.83554 16.7148 8.80168 16.7027 8.77114 16.6844C8.74059 16.666 8.71395 16.6419 8.69274 16.6133C8.67153 16.5847 8.65616 16.5522 8.64751 16.5176C8.63883 16.483 8.63705 16.4471 8.64227 16.4119C8.64748 16.3766 8.6596 16.3428 8.67792 16.3122C8.69624 16.2816 8.7204 16.255 8.74903 16.2338C8.77765 16.2126 8.81018 16.1972 8.84475 16.1886C8.88798 16.1777 8.93324 16.1777 8.97647 16.1886L8.97922 16.1886Z" fill="#242E33"/>
</svg>
