<svg id="Layer_1" data-name="Layer 1" xmlns="http://www.w3.org/2000/svg" width="1440" height="600" viewBox="0 0 1440 600"><defs><style>.cls-1,.cls-2{fill:#fff;}.cls-1{opacity:0.7;}.cls-1,.cls-10,.cls-3,.cls-7,.cls-8,.cls-9{isolation:isolate;}.cls-20,.cls-3{fill:#da5542;}.cls-10,.cls-3,.cls-9{opacity:0.75;}.cls-4,.cls-7{fill:#999;}.cls-5{fill:#e19126;}.cls-6,.cls-8{fill:#9f224e;}.cls-7,.cls-8{opacity:0.99;}.cls-19,.cls-9{fill:#3b589c;}.cls-10,.cls-24{fill:#55acee;}.cls-11{fill:#ccc;}.cls-12{fill:#004f8b;}.cls-13{fill:#00f076;}.cls-14{fill:#00d5ff;}.cls-15{fill:#ffd800;}.cls-16{fill:#fc3944;}.cls-17{fill:#333;}.cls-18{fill:#212121;}.cls-21{fill:#666;}.cls-22{fill:#3b5999;}.cls-23{fill:#dd4b39;}.cls-25{fill:#e5bd9e;}.cls-26{fill:#ff586f;}.cls-27{fill:#403108;}.cls-28{fill:#d5ae91;}.cls-29{fill:none;stroke:#403108;}.cls-30{fill:#ff6ca1;}.cls-31{fill:#0cb2a5;}.cls-32{fill:#911b3a;}.cls-33{fill:#090;}.cls-34{fill:#cc0001;}</style></defs><title>icon_vne</title><rect class="cls-1" y="416" width="60" height="60"/><path class="cls-2" d="M622.06,355.48V354h-1.51v-.87l1.82-1.8,2.39,2.36-1.82,1.8Zm7.77-10.68-5.5,5.44a.33.33,0,0,1-.52,0,.32.32,0,0,1-.12-.26.32.32,0,0,1,.14-.25l5.5-5.44a.33.33,0,0,1,.52,0,.32.32,0,0,1,.12.26.32.32,0,0,1-.14.25Zm1,8.27a.47.47,0,0,0-.55.11l-1,1a.47.47,0,0,0-.14.34v2a2.38,2.38,0,0,1-.74,1.76,2.43,2.43,0,0,1-1.77.73H613.52a2.43,2.43,0,0,1-1.77-.73,2.38,2.38,0,0,1-.74-1.76V343.54a2.38,2.38,0,0,1,.74-1.76,2.43,2.43,0,0,1,1.77-.73h13.06a2.8,2.8,0,0,1,.71.09.46.46,0,0,0,.5-.12l.77-.76a.48.48,0,0,0,.14-.45.47.47,0,0,0-.28-.36,4.36,4.36,0,0,0-1.84-.39H613.52a4.38,4.38,0,0,0-3.2,1.31,4.29,4.29,0,0,0-1.32,3.16v12.93a4.29,4.29,0,0,0,1.33,3.16,4.38,4.38,0,0,0,3.2,1.31h13.06a4.38,4.38,0,0,0,3.2-1.31,4.29,4.29,0,0,0,1.33-3.16v-3A.45.45,0,0,0,630.79,353.07ZM619,352.49V357h4.52l10.55-10.45L629.6,342ZM637,343a1.43,1.43,0,0,0-.44-1.06l-2.39-2.36a1.53,1.53,0,0,0-2.14,0L630.6,341l4.52,4.48,1.44-1.43A1.43,1.43,0,0,0,637,343Zm19-6a13,13,0,1,1-13,13A13,13,0,0,1,656,337Zm-2,7v12l-5-6Zm9,6-5-6v12Z"/><path class="cls-3" d="M322.55,270.31a3,3,0,0,0,.42-2.06,3.58,3.58,0,0,0-.91-2.06,2.38,2.38,0,0,0-1.71-.87,1.63,1.63,0,0,0-1.48.8,2.86,2.86,0,0,0-.37,2,3.93,3.93,0,0,0,.94,2.09,2.32,2.32,0,0,0,1.69.91A1.55,1.55,0,0,0,322.55,270.31Zm-.37,4.12a4.13,4.13,0,0,0-1.22-.19,4.06,4.06,0,0,0-2.41.75,2.13,2.13,0,0,0-1.05,1.73,2.31,2.31,0,0,0,.89,1.83,3.37,3.37,0,0,0,2.25.75q3.52,0,3.52-2.48a1.68,1.68,0,0,0-.09-.52A.63.63,0,0,0,324,276a1.52,1.52,0,0,0-.21-.3,3.3,3.3,0,0,0-.23-.26,2.63,2.63,0,0,0-.28-.23l-.3-.23-.4-.28A2.71,2.71,0,0,1,322.17,274.44ZM333,270.55h-3v3h-1.5v-3h-3V269h3v-3H330v3h3Zm-12.33,9.52a7.26,7.26,0,0,1-3.49-.77,2.3,2.3,0,0,1-1.43-2,3,3,0,0,1,1.38-2.37,5.29,5.29,0,0,1,3.3-1.05h.84a1.93,1.93,0,0,1-.66-1.36,2,2,0,0,1,.23-.89,1.75,1.75,0,0,1-.42,0,3.6,3.6,0,0,1-2.62-1,3.31,3.31,0,0,1-1-2.46,3.13,3.13,0,0,1,1.27-2.46,4.41,4.41,0,0,1,2.91-1.05h4.78l-1.08.75h-1.5a2.22,2.22,0,0,1,1.13,1.05,3.51,3.51,0,0,1,.42,1.71,3,3,0,0,1-1.36,2.48,4.77,4.77,0,0,0-.75.73,1.14,1.14,0,0,0-.19.68,2.43,2.43,0,0,0,1.27,1.45,4.63,4.63,0,0,1,1.31,1.38,3.61,3.61,0,0,1,.38,1.76,3,3,0,0,1-1.27,2.39A5.26,5.26,0,0,1,320.67,280.06Zm11.81-16.55A12,12,0,1,0,336,272,11.56,11.56,0,0,0,332.48,263.52Z"/><path class="cls-4" d="M341.88,277a2.56,2.56,0,1,0,1.82.75A2.48,2.48,0,0,0,341.88,277Zm8.35.12a12.22,12.22,0,0,0-5.9-5.9,12,12,0,0,0-4.1-1.08h-.07a.87.87,0,0,0-.86.86v1.81a.82.82,0,0,0,.22.58.81.81,0,0,0,.55.27,8.57,8.57,0,0,1,7.71,7.71.82.82,0,0,0,.27.56.83.83,0,0,0,.58.22h1.81a.79.79,0,0,0,.63-.28.81.81,0,0,0,.23-.64A12,12,0,0,0,350.23,277.11Zm6.33-2.59a19.26,19.26,0,0,0-9.64-9.64,18.57,18.57,0,0,0-6.72-1.61h0a.87.87,0,0,0-.86.86V266a.82.82,0,0,0,.23.58.8.8,0,0,0,.57.26,15.4,15.4,0,0,1,13.07,9,15,15,0,0,1,1.35,5.47.8.8,0,0,0,.26.57.83.83,0,0,0,.6.23h1.92a.79.79,0,0,0,.62-.27.78.78,0,0,0,.24-.63A18.56,18.56,0,0,0,356.56,274.52Z"/><path class="cls-5" d="M276.92,138.87a1.14,1.14,0,1,1,.81-.33A1.1,1.1,0,0,1,276.92,138.87Zm4.2-.09a.28.28,0,0,1-.2.09h-1.14a.27.27,0,0,1-.2-.08.28.28,0,0,1-.09-.19,3.72,3.72,0,0,0-3.44-3.44.28.28,0,0,1-.19-.09.27.27,0,0,1-.08-.2v-1.14a.29.29,0,0,1,.09-.21.26.26,0,0,1,.21-.08,5.41,5.41,0,0,1,5.12,5.12.27.27,0,0,1-.08.22h0Zm3.43,0a.28.28,0,0,1-.21.09H283.2a.27.27,0,0,1-.2-.08.3.3,0,0,1-.09-.2,6.92,6.92,0,0,0-1-3.37,7.15,7.15,0,0,0-2.49-2.49,6.92,6.92,0,0,0-3.37-1,.31.31,0,0,1-.2-.09.27.27,0,0,1-.08-.2v-1.13a.28.28,0,0,1,.09-.21.24.24,0,0,1,.21-.08,8.69,8.69,0,0,1,2.66.5,8.5,8.5,0,0,1,2.32,1.24,9.53,9.53,0,0,1,1.83,1.83,8.57,8.57,0,0,1,1.24,2.32,8.72,8.72,0,0,1,.5,2.66.21.21,0,0,1-.08.2Zm1.91-10.58a2.48,2.48,0,0,0-1.82-.75h-8.57A2.58,2.58,0,0,0,273.5,130v8.57a2.58,2.58,0,0,0,2.57,2.57h8.57a2.57,2.57,0,0,0,2.57-2.57V130a2.48,2.48,0,0,0-.76-1.82Z"/><path class="cls-4" d="M654.06,209.33a.43.43,0,0,1-.32.12H650a.42.42,0,0,1-.31-.12.42.42,0,0,1-.12-.32v-.87a.42.42,0,0,1,.44-.44h.63l-.71-2.22h-3.77l-.37,1.12-1.36-2.72,2.22-6.38a.34.34,0,0,1,.15-.22.46.46,0,0,1,.26-.08h2a.46.46,0,0,1,.26.08.33.33,0,0,1,.15.22L653,207.7h.74a.42.42,0,0,1,.44.44V209A.43.43,0,0,1,654.06,209.33Zm-5.78-9.06a4.3,4.3,0,0,1-.22-.93,8.7,8.7,0,0,1-.22.93l-1.15,3.39h2.71Zm-14,7.19a.54.54,0,0,1,.56.56v1.13a.54.54,0,0,1-.56.56H629.5a.54.54,0,0,1-.56-.56V208a.54.54,0,0,1,.56-.56h.95L635,194.34a.43.43,0,0,1,.19-.28.6.6,0,0,1,.33-.1h2.53a.59.59,0,0,1,.33.1.44.44,0,0,1,.19.28l4.57,13.11h.95a.54.54,0,0,1,.56.56v1.13a.54.54,0,0,1-.56.56h-4.78a.54.54,0,0,1-.56-.56V208a.54.54,0,0,1,.56-.56h.81l-.92-2.85h-4.85l-.95,2.85Zm2.25-9.56-1.48,4.36h3.48l-1.44-4.36a5.51,5.51,0,0,1-.28-1.2A11.15,11.15,0,0,1,636.53,197.89Z"/><path class="cls-6" d="M679.06,209.33a.43.43,0,0,1-.31.12H675a.42.42,0,0,1-.31-.12.42.42,0,0,1-.12-.32v-.87a.42.42,0,0,1,.44-.44h.63l-.71-2.22h-3.77l-.37,1.12-1.36-2.72,2.22-6.38a.33.33,0,0,1,.15-.22.45.45,0,0,1,.26-.08h2a.46.46,0,0,1,.26.08.33.33,0,0,1,.15.22L678,207.7h.74a.42.42,0,0,1,.44.44V209A.43.43,0,0,1,679.06,209.33Zm-5.78-9.06a4.3,4.3,0,0,1-.22-.93,8.7,8.7,0,0,1-.22.93l-1.15,3.39h2.71Zm-14,7.19a.54.54,0,0,1,.56.56v1.13a.54.54,0,0,1-.56.56H654.5a.54.54,0,0,1-.56-.56V208a.54.54,0,0,1,.56-.56h.95L660,194.34a.44.44,0,0,1,.19-.28.6.6,0,0,1,.33-.1h2.53a.6.6,0,0,1,.33.1.44.44,0,0,1,.19.28l4.57,13.11h.95a.54.54,0,0,1,.56.56v1.13a.54.54,0,0,1-.56.56h-4.78a.54.54,0,0,1-.56-.56V208a.54.54,0,0,1,.56-.56h.81l-.91-2.85h-4.85l-.95,2.85Zm2.25-9.56-1.48,4.36h3.48l-1.44-4.36a5.51,5.51,0,0,1-.28-1.19A11.15,11.15,0,0,1,661.53,197.89Z"/><path class="cls-4" d="M718,204.4a.56.56,0,0,1-.56.56h-3.23v3.23a.56.56,0,0,1-.56.56h-1.78a.56.56,0,0,1-.56-.56V205H708a.56.56,0,0,1-.56-.56v-1.78a.56.56,0,0,1,.56-.56h3.24v-3.23a.56.56,0,0,1,.56-.56h1.78a.56.56,0,0,1,.56.56V202h3.23a.56.56,0,0,1,.56.56v1.78Zm-13.85,5a.43.43,0,0,1-.32.12h-3.72a.42.42,0,0,1-.31-.12.42.42,0,0,1-.12-.32v-.87a.42.42,0,0,1,.44-.44h.63l-.71-2.22h-3.77l-.37,1.11-1.36-2.72,2.22-6.38a.34.34,0,0,1,.15-.22.45.45,0,0,1,.26-.08h2a.46.46,0,0,1,.26.08.33.33,0,0,1,.15.22l3.56,10.2h.74a.42.42,0,0,1,.44.44v.88A.42.42,0,0,1,704.12,209.38Zm-5.78-9.07a4.3,4.3,0,0,1-.22-.93,8.7,8.7,0,0,1-.22.93l-1.15,3.39h2.71Zm-14,7.19a.54.54,0,0,1,.56.56v1.13a.54.54,0,0,1-.56.56h-4.78a.54.54,0,0,1-.56-.56v-1.12a.54.54,0,0,1,.56-.56h.95l4.57-13.11a.44.44,0,0,1,.19-.28.61.61,0,0,1,.33-.11h2.53a.59.59,0,0,1,.33.11.44.44,0,0,1,.19.28l4.57,13.11h.95a.54.54,0,0,1,.56.56v1.13a.54.54,0,0,1-.56.56H689.4a.54.54,0,0,1-.56-.56v-1.12a.54.54,0,0,1,.56-.56h.81l-.92-2.85h-4.85l-.95,2.85Zm2.25-9.56-1.48,4.36h3.48l-1.44-4.36a5.51,5.51,0,0,1-.28-1.19A10.69,10.69,0,0,1,686.59,197.94Z"/><path class="cls-6" d="M757,204.4a.56.56,0,0,1-.56.56h-3.23v3.23a.56.56,0,0,1-.56.56h-1.78a.56.56,0,0,1-.56-.56V205H747a.56.56,0,0,1-.56-.56v-1.78a.56.56,0,0,1,.56-.56h3.24v-3.23a.56.56,0,0,1,.56-.56h1.78a.56.56,0,0,1,.56.56V202h3.23a.56.56,0,0,1,.56.56v1.78Zm-13.85,5a.43.43,0,0,1-.32.12h-3.72a.42.42,0,0,1-.31-.12.42.42,0,0,1-.12-.32v-.87a.42.42,0,0,1,.44-.44h.63l-.71-2.22h-3.77l-.37,1.11-1.36-2.72,2.22-6.38a.34.34,0,0,1,.15-.22.45.45,0,0,1,.26-.08h2a.46.46,0,0,1,.26.08.33.33,0,0,1,.15.22l3.56,10.2h.74a.42.42,0,0,1,.44.44v.88A.42.42,0,0,1,743.12,209.38Zm-5.78-9.07a4.3,4.3,0,0,1-.22-.93,8.7,8.7,0,0,1-.22.93l-1.15,3.39h2.71Zm-14,7.19a.54.54,0,0,1,.56.56v1.13a.54.54,0,0,1-.56.56h-4.78a.54.54,0,0,1-.56-.56v-1.12a.54.54,0,0,1,.56-.56h.95l4.57-13.11a.44.44,0,0,1,.19-.28.61.61,0,0,1,.33-.11h2.53a.6.6,0,0,1,.33.11.44.44,0,0,1,.19.28l4.57,13.11h.95a.54.54,0,0,1,.56.56v1.13a.54.54,0,0,1-.56.56H728.4a.54.54,0,0,1-.56-.56v-1.12a.54.54,0,0,1,.56-.56h.81l-.92-2.85h-4.85l-.95,2.85Zm2.25-9.56-1.48,4.36h3.48l-1.44-4.36a5.51,5.51,0,0,1-.28-1.19A10.68,10.68,0,0,1,725.59,197.94Z"/><path class="cls-7" d="M795.5,204.14a.56.56,0,0,1-.56.56H791.7v3.23a.56.56,0,0,1-.56.56h-1.78a.56.56,0,0,1-.56-.56V204.7h-3.24a.56.56,0,0,1-.56-.56v-1.78a.56.56,0,0,1,.56-.56h3.24v-3.23a.56.56,0,0,1,.56-.56h1.78a.56.56,0,0,1,.56.56v3.23h3.23a.56.56,0,0,1,.56.56v1.78Zm14,0a.56.56,0,0,1-.56.56H805.7v3.23a.56.56,0,0,1-.56.56h-1.78a.56.56,0,0,1-.56-.56V204.7h-3.24a.56.56,0,0,1-.56-.56v-1.78a.56.56,0,0,1,.56-.56h3.24v-3.23a.56.56,0,0,1,.56-.56h1.78a.56.56,0,0,1,.56.56v3.23h3.23a.56.56,0,0,1,.56.56v1.78Zm-27.38,5.24a.43.43,0,0,1-.32.12h-3.72a.42.42,0,0,1-.31-.12.42.42,0,0,1-.12-.32v-.87a.42.42,0,0,1,.44-.44h.63l-.71-2.22h-3.77l-.37,1.11-1.36-2.72,2.22-6.38a.34.34,0,0,1,.15-.22.45.45,0,0,1,.26-.08h2a.46.46,0,0,1,.26.08.33.33,0,0,1,.15.22l3.55,10.2h.74a.42.42,0,0,1,.44.44v.88A.42.42,0,0,1,782.12,209.38Zm-5.78-9.07a4.3,4.3,0,0,1-.22-.93,8.7,8.7,0,0,1-.22.93l-1.15,3.39h2.71Zm-14,7.19a.54.54,0,0,1,.56.56v1.13a.54.54,0,0,1-.56.56h-4.78a.54.54,0,0,1-.56-.56v-1.12a.54.54,0,0,1,.56-.56h.95l4.57-13.11a.44.44,0,0,1,.19-.28.6.6,0,0,1,.33-.11h2.53a.6.6,0,0,1,.33.11.44.44,0,0,1,.19.28l4.57,13.11h.95a.54.54,0,0,1,.56.56v1.13a.54.54,0,0,1-.56.56H767.4a.54.54,0,0,1-.56-.56v-1.12a.54.54,0,0,1,.56-.56h.81l-.91-2.85h-4.85l-.95,2.85Zm2.25-9.56-1.48,4.36h3.48l-1.44-4.36a5.51,5.51,0,0,1-.28-1.2A10.69,10.69,0,0,1,764.59,197.94Z"/><path class="cls-8" d="M848.5,204.14a.56.56,0,0,1-.56.56H844.7v3.23a.56.56,0,0,1-.56.56h-1.78a.56.56,0,0,1-.56-.56V204.7h-3.24a.56.56,0,0,1-.56-.56v-1.78a.56.56,0,0,1,.56-.56h3.24v-3.23a.56.56,0,0,1,.56-.56h1.78a.56.56,0,0,1,.56.56v3.23h3.23a.56.56,0,0,1,.56.56v1.78Zm14,0a.56.56,0,0,1-.56.56H858.7v3.23a.56.56,0,0,1-.56.56h-1.78a.56.56,0,0,1-.56-.56V204.7h-3.24a.56.56,0,0,1-.56-.56v-1.78a.56.56,0,0,1,.56-.56h3.24v-3.23a.56.56,0,0,1,.56-.56h1.78a.56.56,0,0,1,.56.56v3.23h3.23a.56.56,0,0,1,.56.56v1.78Zm-27.38,5.24a.43.43,0,0,1-.32.12h-3.72a.42.42,0,0,1-.31-.12.42.42,0,0,1-.12-.32v-.87a.42.42,0,0,1,.44-.44h.63l-.71-2.22h-3.77l-.37,1.11-1.36-2.72,2.22-6.38a.34.34,0,0,1,.15-.22.45.45,0,0,1,.26-.08h2a.46.46,0,0,1,.26.08.33.33,0,0,1,.15.22l3.55,10.2h.74a.42.42,0,0,1,.44.44v.88A.42.42,0,0,1,835.12,209.38Zm-5.78-9.07a4.3,4.3,0,0,1-.22-.93,8.7,8.7,0,0,1-.22.93l-1.15,3.39h2.71Zm-14,7.19a.54.54,0,0,1,.56.56v1.13a.54.54,0,0,1-.56.56h-4.78a.54.54,0,0,1-.56-.56v-1.12a.54.54,0,0,1,.56-.56h.95l4.57-13.11a.44.44,0,0,1,.19-.28.6.6,0,0,1,.33-.11h2.53a.6.6,0,0,1,.33.11.44.44,0,0,1,.19.28l4.57,13.11h.95a.54.54,0,0,1,.56.56v1.13a.54.54,0,0,1-.56.56H820.4a.54.54,0,0,1-.56-.56v-1.12a.54.54,0,0,1,.56-.56h.81l-.91-2.85h-4.85l-.95,2.85Zm2.25-9.56-1.48,4.36h3.48l-1.44-4.36a5.51,5.51,0,0,1-.28-1.2A10.69,10.69,0,0,1,817.59,197.94Z"/><path class="cls-9" d="M87.09,272h-2v7.22H82.45V272H80.62v-2.48h1.83v-1.45a4.12,4.12,0,0,1,.61-2.46,2.71,2.71,0,0,1,2.3-.82h2v2.48H86.11a1,1,0,0,0-.82.23,1.43,1.43,0,0,0-.16.8v1.22h2.25Zm5.39-8.48A12,12,0,1,0,96,272,11.56,11.56,0,0,0,92.48,263.52Z"/><path class="cls-10" d="M138,269.33a1.53,1.53,0,0,1,0,.38,8.54,8.54,0,0,1-2.3,5.79,7.79,7.79,0,0,1-6.14,2.6,8.22,8.22,0,0,1-4.5-1.31,5,5,0,0,0,.7,0,5.84,5.84,0,0,0,3.66-1.27,3.06,3.06,0,0,1-1.73-.61,2.84,2.84,0,0,1-1-1.45,3.42,3.42,0,0,0,.56,0,3.65,3.65,0,0,0,.8-.09,3.09,3.09,0,0,1-1.71-1,2.8,2.8,0,0,1-.68-1.87v0a2.54,2.54,0,0,0,1.36.38,2.77,2.77,0,0,1-1.36-2.44,2.86,2.86,0,0,1,.42-1.5,8,8,0,0,0,6.09,3.09,2.58,2.58,0,0,1-.09-.7,3,3,0,0,1,3-3,2.77,2.77,0,0,1,2.16.94,5.41,5.41,0,0,0,1.88-.7,2.79,2.79,0,0,1-1.27,1.64,5.67,5.67,0,0,0,1.69-.47A6.39,6.39,0,0,1,138,269.33Zm2.53-5.81A12,12,0,1,0,144,272,11.56,11.56,0,0,0,140.49,263.52Z"/><path class="cls-11" d="M36,260a12,12,0,1,0,12,12A12,12,0,0,0,36,260Zm4,6.86v11.73a.36.36,0,0,1-.1.31.36.36,0,0,1-.31.1.46.46,0,0,1-.33-.15l-3-3a.4.4,0,0,0-.29-.11.36.36,0,0,0-.26.11l-3.07,3.07a.4.4,0,0,1-.3.11.36.36,0,0,1-.41-.41v-13a.51.51,0,0,1,.55-.59h7a.51.51,0,0,1,.56.59v1.26ZM12,260a12,12,0,1,0,12,12A12,12,0,0,0,12,260Zm6.44,14.87H12.86L8.18,279.1v-4.23h-2V266.7H18.44v8.17Z"/><path class="cls-12" d="M60,260a12,12,0,1,0,12,12A12,12,0,0,0,60,260Zm4,6.86v11.73a.36.36,0,0,1-.41.41.46.46,0,0,1-.33-.15l-3-3a.4.4,0,0,0-.29-.11.36.36,0,0,0-.26.11l-3.07,3.07a.4.4,0,0,1-.3.11.36.36,0,0,1-.31-.1.35.35,0,0,1-.1-.31v-13a.51.51,0,0,1,.56-.59h7a.51.51,0,0,1,.56.59v1.26Z"/><path d="M160.37,260a5.29,5.29,0,0,1-1.13,3.88,4.29,4.29,0,0,1-3.5,1.88h-.06a4.85,4.85,0,0,1,1.13-3.75A5,5,0,0,1,160.37,260Zm.5,5.63a5.5,5.5,0,0,1,4.44,2.44,5,5,0,0,0-2.44,3.06,5.41,5.41,0,0,0,.31,3.88,5,5,0,0,0,2.81,2.63,18.51,18.51,0,0,1-1.5,2.87q-2.25,3.5-4.07,3.5h-.06a4.56,4.56,0,0,1-1.78-.5,5.17,5.17,0,0,0-2.16-.5,5.29,5.29,0,0,0-2.22.5,4.55,4.55,0,0,1-1.78.5h-.06q-1.88,0-4-3.31a14.54,14.54,0,0,1-2.31-6.62,8.26,8.26,0,0,1,1-5.44,5.6,5.6,0,0,1,4.88-3,7.29,7.29,0,0,1,2.35.5,7.06,7.06,0,0,0,2.1.5,6.78,6.78,0,0,0,2-.5A7.39,7.39,0,0,1,160.87,265.62Z"/><path class="cls-13" d="M185,268l-14.29-7.92h0A1.21,1.21,0,0,0,169,261.2v9.43l11.21,8Z"/><path class="cls-14" d="M169.36,260.34l15.92,15.56L171,283.73a1.22,1.22,0,0,1-2-.93V261.2A1.21,1.21,0,0,1,169.36,260.34Z"/><path class="cls-14" d="M169.36,260.34,183,273.66,172,282a12.29,12.29,0,0,1-1.78,2A1.22,1.22,0,0,1,169,282.8V261.2A1.21,1.21,0,0,1,169.36,260.34Z"/><path class="cls-15" d="M184.17,276.51l6.06-3.32a1.21,1.21,0,0,0,.06-2.23v0l-5.1-2.83-4.36,4.27Z"/><path class="cls-16" d="M181.24,272l4,3.94L171,283.73a1.22,1.22,0,0,1-1.68-.1Z"/><path class="cls-17" d="M238,276.61h-1.87l-1.87-1.87v-1.87l1.88-1.87H238Zm-20-4.24a2.07,2.07,0,0,1,.72-1.59,2.4,2.4,0,0,1,1.66-.65h10.49a2.4,2.4,0,0,1,1.66.65,2.07,2.07,0,0,1,.72,1.59V277a2.13,2.13,0,0,1-.67,1.59,2.36,2.36,0,0,1-1.71.65H220.38a2.4,2.4,0,0,1-1.66-.65A2.07,2.07,0,0,1,218,277v-4.63Zm8.63-5.88a2.63,2.63,0,0,1,.82-1.94,3,3,0,0,1,4.09,0,2.69,2.69,0,0,1,0,3.89,3,3,0,0,1-4.09,0A2.64,2.64,0,0,1,226.63,266.5Zm-7.64,0a2.62,2.62,0,0,1,.83-1.94,3,3,0,0,1,4.1,0,2.69,2.69,0,0,1,0,3.89,3,3,0,0,1-4.1,0,2.62,2.62,0,0,1-.83-1.94Zm42.49-.13h-19l-.18,0a.4.4,0,0,0-.2.12.35.35,0,0,0-.11.2,1.79,1.79,0,0,0,0,.19v12.59a1.9,1.9,0,0,0,0,.2.35.35,0,0,0,.11.2.47.47,0,0,0,.2.1l.18,0h19l.18,0a.47.47,0,0,0,.2-.1.35.35,0,0,0,.11-.2c0-.07,0-.14,0-.2V266.77a1.31,1.31,0,0,0,0-.2.35.35,0,0,0-.11-.2.47.47,0,0,0-.2-.1l-.18,0v.12ZM248.42,264h-3.84a.34.34,0,0,0-.2.07.32.32,0,0,1-.18.07.31.31,0,0,0-.12.18,1,1,0,0,0,0,.2v1.31h4.75v-1.7a.4.4,0,0,0-.19-.12l-.19,0ZM252,278.7a5.28,5.28,0,0,1-1.07-.1,6.19,6.19,0,0,1-1-.29,4.33,4.33,0,0,1-.88-.5,7.81,7.81,0,0,1-.8-.69,6.49,6.49,0,0,1-.67-.8,3.82,3.82,0,0,1-.47-.9,4.9,4.9,0,0,1-.29-1,6.27,6.27,0,0,1-.09-1.09,4.53,4.53,0,0,1,.11-1,3.59,3.59,0,0,1,.39-1,5.17,5.17,0,0,1,.47-.9l.55-.82a8,8,0,0,1,.8-.69,3.7,3.7,0,0,1,.88-.48,4.64,4.64,0,0,1,1-.3,5.92,5.92,0,0,1,1.07-.09,6.62,6.62,0,0,1,1.07.08l1,.16a4.38,4.38,0,0,1,.88.5,8.3,8.3,0,0,1,.8.69,6.66,6.66,0,0,1,.67.8,3.84,3.84,0,0,1,.47.9,5,5,0,0,1,.29,1,6.41,6.41,0,0,1,.09,1.11,6.27,6.27,0,0,1-.09,1.09,5,5,0,0,1-.29,1,3.82,3.82,0,0,1-.47.9,6.66,6.66,0,0,1-.67.8,8,8,0,0,1-.8.69,4.38,4.38,0,0,1-.88.5,6.18,6.18,0,0,1-1,.29,5.28,5.28,0,0,1-1.07.1h0Zm0-8.79a2.68,2.68,0,0,0-.69.08c-.21.05-.4.12-.59.18l-.56.41a1.67,1.67,0,0,0-.46.51,1.58,1.58,0,0,0-.49.47,2.58,2.58,0,0,0-.29.57c-.05.19-.11.39-.16.61a3,3,0,0,0-.08.71,3.15,3.15,0,0,0,.08.66c.05.25.11.46.16.66l.39.57a2.56,2.56,0,0,0,.39.47,1.56,1.56,0,0,0,.46.5,2.44,2.44,0,0,0,.56.3l.59.16a2.68,2.68,0,0,0,.69.08,2.88,2.88,0,0,0,.64-.08l.64-.16.56-.42a1.88,1.88,0,0,0,.46-.5,1.86,1.86,0,0,0,.49-.48,2.35,2.35,0,0,0,.29-.56l.16-.61a2.8,2.8,0,0,0,.08-.7,3,3,0,0,0-.08-.67c-.05-.24-.11-.45-.16-.65l-.39-.58a3.68,3.68,0,0,0-.39-.48,1.65,1.65,0,0,0-.46-.48,2.52,2.52,0,0,0-.56-.3c-.19-.07-.38-.13-.59-.18a2.68,2.68,0,0,0-.69-.08h0Zm32.09-3.56a.3.3,0,0,0,.18.12l.2,0,.3,0a.31.31,0,0,0,.2-.12.33.33,0,0,0,.12-.23,2.14,2.14,0,0,0,0-.25v-2.37a.69.69,0,0,0,0-.17.11.11,0,0,0-.12-.08.13.13,0,0,1-.12-.06.13.13,0,0,0-.12-.06H282.2a.52.52,0,0,0-.31.08l-.21.17a.37.37,0,0,0-.11.25c0,.1,0,.18,0,.23a.3.3,0,0,0,.08.19l.16.2a.5.5,0,0,0,.26.1l.26,0h.51l-4.3,4.72L273,263.74a1.27,1.27,0,0,0-.37-.12h-.19a.34.34,0,0,0-.19.11l-5.94,5.34a1,1,0,0,0-.18.25.6.6,0,0,0-.08.25.56.56,0,0,0,.07.29.41.41,0,0,1,.07.2.93.93,0,0,0,.26.17.6.6,0,0,0,.24.08.63.63,0,0,0,.26-.08,1,1,0,0,0,.26-.17l5.43-5,5.68,5.48a.44.44,0,0,1,.14.25h.24l.13-.12a.27.27,0,0,1,.13,0,.68.68,0,0,1,.26-.12l4.68-5.23v.51a.51.51,0,0,0,.08.29.84.84,0,0,0,.18.19Zm-16,14.44.13-.13.13-.13v-7a.26.26,0,0,0,0-.13l-.12-.13-.13-.12-.13,0h-1.38a.28.28,0,0,0-.13,0l-.13.12a.57.57,0,0,0-.11.13.49.49,0,0,0,0,.13v7a.48.48,0,0,0,0,.13.57.57,0,0,0,.11.13.55.55,0,0,0,.13.11h1.52A.55.55,0,0,0,268,280.78Zm3.09-.13a.12.12,0,0,0,.07-.13v-9.08a.26.26,0,0,0,0-.13l-.12-.13a.32.32,0,0,0-.12-.11H269.3a.55.55,0,0,0-.13.11l-.1.13a.26.26,0,0,0,0,.13v9.08a.26.26,0,0,0,0,.13l.1.13a.55.55,0,0,0,.13.11h1.53a.14.14,0,0,0,.12-.06.14.14,0,0,1,.12-.06A.12.12,0,0,1,271.14,280.66Zm2.85.13.1-.13a.26.26,0,0,0,0-.13v-11.7a.28.28,0,0,0,0-.12.58.58,0,0,0-.1-.12l-.13-.12a.27.27,0,0,0-.13,0h-1.64l-.12.13a.25.25,0,0,0,0,.13v11.82a.25.25,0,0,0,0,.13l.12.13a.31.31,0,0,0,.12.11h1.65a.55.55,0,0,0,.13-.11Zm3-.13.12-.13v-8.82a.26.26,0,0,0,0-.13l-.12-.13-.13-.12a.27.27,0,0,0-.13,0h-1.38a.27.27,0,0,0-.13,0l-.13.12a.53.53,0,0,0-.11.13.48.48,0,0,0,0,.13v8.82a.48.48,0,0,0,0,.13.57.57,0,0,0,.11.13.55.55,0,0,0,.13.11h1.64a.55.55,0,0,0,.13-.11A.26.26,0,0,1,277,280.66Zm3,0a.26.26,0,0,0,0-.13v-7a.26.26,0,0,0,0-.13l-.12-.13a.47.47,0,0,0-.12-.12l-.12,0h-1.4a.28.28,0,0,0-.13,0l-.13.12-.1.13a.26.26,0,0,0,0,.13v7a.26.26,0,0,0,0,.13l.1.13a.55.55,0,0,0,.13.11h1.65a.32.32,0,0,0,.12-.11Zm2.94,0,.1-.13v-9.21a.56.56,0,0,0,0-.12.31.31,0,0,0-.11-.12l-.13-.12a.27.27,0,0,0-.13,0h-1.38a.27.27,0,0,0-.13,0l-.13.12a.3.3,0,0,0-.11.12.5.5,0,0,0,0,.12v9.21a.48.48,0,0,0,0,.13.51.51,0,0,0,.11.13.55.55,0,0,0,.13.11h1.64a.55.55,0,0,0,.13-.11A.26.26,0,0,1,283,280.66Zm3,0a.26.26,0,0,0,0-.13V269.71a.26.26,0,0,0,0-.13l-.12-.13-.13-.1a.27.27,0,0,0-.13,0h-1.38a.66.66,0,0,0-.26.12.57.57,0,0,0-.11.13.54.54,0,0,0,0,.13v10.83a.53.53,0,0,0,0,.13.57.57,0,0,0,.11.13.55.55,0,0,0,.13.11h1.64a.55.55,0,0,0,.13-.11Zm-87.06-13a.37.37,0,0,1-.32.11.44.44,0,0,1-.3-.15,4.09,4.09,0,0,1-.72-1.27,4.31,4.31,0,0,1-.25-1.44A4.06,4.06,0,0,1,198.5,262a3.89,3.89,0,0,1,5.65,0,4.08,4.08,0,0,1,1.17,2.94,4.33,4.33,0,0,1-.25,1.44,4.37,4.37,0,0,1-.7,1.27.53.53,0,0,1-.16.11.46.46,0,0,1-.18,0l-.16,0a.32.32,0,0,1-.14-.09.45.45,0,0,1-.16-.33.42.42,0,0,1,.12-.33,3.41,3.41,0,0,0,.54-1,3.31,3.31,0,0,0,.19-1.11,3.15,3.15,0,0,0-.91-2.28,3,3,0,0,0-4.37,0,3.18,3.18,0,0,0-.9,2.28,3.49,3.49,0,0,0,.18,1.11,3,3,0,0,0,.55,1,.39.39,0,0,1,.11.33.5.5,0,0,1-.17.33h0Zm.28-2.76a2.21,2.21,0,0,1,.62-1.58,2,2,0,0,1,1.52-.66,2,2,0,0,1,1.5.66,2.21,2.21,0,0,1,.62,1.58,2.57,2.57,0,0,1,0,.33,2.45,2.45,0,0,1-.07.31,2.12,2.12,0,0,0-.75-1.12,2.06,2.06,0,0,0-1.31-.44,2.11,2.11,0,0,0-1.29.42,2,2,0,0,0-.75,1.09,1.62,1.62,0,0,1-.06-.28,2.09,2.09,0,0,1,0-.31Zm10.73,9.19a5.83,5.83,0,0,1-.19,2.65,13.78,13.78,0,0,1-1.65,3.33.33.33,0,0,0,0,.09l-.17,2.82a.17.17,0,0,1-.05.12.17.17,0,0,1-.12.05h-6.63a.14.14,0,0,1-.09,0,.21.21,0,0,1-.06-.08l-4.72-9.41a1.16,1.16,0,0,1,0-1.38,1.35,1.35,0,0,1,1.1-.61,1.1,1.1,0,0,1,.55.15,1.45,1.45,0,0,1,.48.48l.6,1a.59.59,0,0,0,.21.23.53.53,0,0,0,.28.08.56.56,0,0,0,.4-.17A.61.61,0,0,0,200,273v-6.7a1.17,1.17,0,0,1,.4-1,1.27,1.27,0,0,1,1.71,0,1.19,1.19,0,0,1,.39,1v3.81a.15.15,0,0,0,.07.13.25.25,0,0,0,.15,0h.06l.32-.09a1.69,1.69,0,0,1,1.18.16,1.7,1.7,0,0,1,.71.74l.09.07.09,0h.07l.33-.1a1.76,1.76,0,0,1,1.18.11,1.7,1.7,0,0,1,.7.65.45.45,0,0,0,.18.2.49.49,0,0,0,.25.07,2.9,2.9,0,0,1,1.13.39,2.17,2.17,0,0,1,.91,1.68h0Z"/><path class="cls-11" d="M288,283.68c0-.13,0-.31,0-.53a5.26,5.26,0,0,1,.25-1.06,2.67,2.67,0,0,1,.64-1.13,5.17,5.17,0,0,1,1.59-.86q1.19-.47,2.69-1a20.43,20.43,0,0,0,2.2-.86,3.16,3.16,0,0,0,1.36-1.26,3.4,3.4,0,0,0,.49-1.74,2.36,2.36,0,0,0-.76-1.45,6.4,6.4,0,0,1-1.24-2.33,11.09,11.09,0,0,1-.48-3.4,7.31,7.31,0,0,1,.42-2.58,4.63,4.63,0,0,1,1.15-1.81,5,5,0,0,1,1.66-1,5.64,5.64,0,0,1,2-.35,5.5,5.5,0,0,1,2,.35,5.14,5.14,0,0,1,1.66,1,4.61,4.61,0,0,1,1.16,1.81,7.31,7.31,0,0,1,.42,2.58,11.24,11.24,0,0,1-.47,3.4,6.34,6.34,0,0,1-1.23,2.33,2.38,2.38,0,0,0-.77,1.45,3.38,3.38,0,0,0,.49,1.73,3.19,3.19,0,0,0,1.37,1.27,20.43,20.43,0,0,0,2.2.86q1.5.52,2.67,1a5.17,5.17,0,0,1,1.58.86,2.65,2.65,0,0,1,.64,1.08,4.37,4.37,0,0,1,.25,1.16l0,.47ZM0,195H18v2H0Zm0,5H18v2H0Zm0,5H18v2H0Zm18-10H36v2H18Zm0,5H36v2H18Zm0,5H36v2H18Z"/><path class="cls-17" d="M36,210c0-.1,0-.23,0-.4a4,4,0,0,1,.19-.79,2,2,0,0,1,.48-.85,3.85,3.85,0,0,1,1.19-.64q.89-.35,2-.74a15.39,15.39,0,0,0,1.65-.65,2.38,2.38,0,0,0,1-.94,2.55,2.55,0,0,0,.36-1.3,1.77,1.77,0,0,0-.57-1.09,4.79,4.79,0,0,1-.93-1.75,8.34,8.34,0,0,1-.36-2.55,5.48,5.48,0,0,1,.32-1.93,3.46,3.46,0,0,1,.87-1.36,3.75,3.75,0,0,1,1.25-.77A4.22,4.22,0,0,1,45,194a4.13,4.13,0,0,1,1.49.26,3.83,3.83,0,0,1,1.24.77,3.45,3.45,0,0,1,.87,1.36,5.48,5.48,0,0,1,.32,1.93,8.43,8.43,0,0,1-.35,2.55,4.75,4.75,0,0,1-.93,1.75,1.79,1.79,0,0,0-.57,1.09,2.54,2.54,0,0,0,.37,1.3,2.4,2.4,0,0,0,1,1,15.2,15.2,0,0,0,1.65.65q1.12.39,2,.74a3.86,3.86,0,0,1,1.18.64,2,2,0,0,1,.48.81,3.3,3.3,0,0,1,.19.87l0,.35Z"/><path class="cls-11" d="M611,210c0-.1,0-.23,0-.4a3.93,3.93,0,0,1,.19-.79,2,2,0,0,1,.48-.85,3.88,3.88,0,0,1,1.19-.64q.89-.35,2-.74a15.41,15.41,0,0,0,1.65-.65,2.37,2.37,0,0,0,1-1,2.55,2.55,0,0,0,.36-1.3,1.77,1.77,0,0,0-.57-1.09,4.8,4.8,0,0,1-.93-1.75,8.31,8.31,0,0,1-.36-2.55,5.5,5.5,0,0,1,.32-1.93,3.46,3.46,0,0,1,.87-1.36,3.75,3.75,0,0,1,1.25-.77A4.22,4.22,0,0,1,620,194a4.13,4.13,0,0,1,1.49.26,3.83,3.83,0,0,1,1.24.77,3.45,3.45,0,0,1,.87,1.36,5.5,5.5,0,0,1,.32,1.93,8.4,8.4,0,0,1-.35,2.55,4.74,4.74,0,0,1-.93,1.75,1.79,1.79,0,0,0-.57,1.09,2.54,2.54,0,0,0,.37,1.3,2.38,2.38,0,0,0,1,1,15.41,15.41,0,0,0,1.65.65q1.12.39,2,.74a3.86,3.86,0,0,1,1.18.64,2,2,0,0,1,.48.81,3.36,3.36,0,0,1,.19.87l0,.36Z"/><polygon class="cls-18" points="90.01 208.21 88.21 210.01 81 202.8 73.79 210.01 71.99 208.21 79.2 201 71.99 193.79 73.79 191.99 81 199.2 88.21 191.99 90.01 193.79 82.8 201 90.01 208.21"/><polygon class="cls-12" points="107.99 193.82 100.8 201 107.99 208.18 106.18 209.99 98.99 202.81 91.8 209.99 89.99 208.18 97.17 201 89.98 193.82 91.8 192.01 98.99 199.19 106.18 192.01 107.99 193.82"/><path class="cls-12" d="M54,210c0-.1,0-.23,0-.4a4,4,0,0,1,.19-.79,2,2,0,0,1,.48-.85,3.87,3.87,0,0,1,1.19-.64q.89-.35,2-.74a15.18,15.18,0,0,0,1.65-.65,2.38,2.38,0,0,0,1-.94,2.55,2.55,0,0,0,.36-1.3,1.77,1.77,0,0,0-.57-1.09,4.8,4.8,0,0,1-.93-1.75,8.34,8.34,0,0,1-.36-2.55,5.48,5.48,0,0,1,.32-1.93,3.46,3.46,0,0,1,.87-1.36,3.75,3.75,0,0,1,1.25-.77A4.22,4.22,0,0,1,63,194a4.13,4.13,0,0,1,1.49.26,3.83,3.83,0,0,1,1.24.77,3.45,3.45,0,0,1,.87,1.36,5.48,5.48,0,0,1,.32,1.93,8.43,8.43,0,0,1-.35,2.55,4.75,4.75,0,0,1-.93,1.75,1.79,1.79,0,0,0-.57,1.09,2.54,2.54,0,0,0,.37,1.3,2.4,2.4,0,0,0,1,1,15.18,15.18,0,0,0,1.65.65q1.12.39,2,.74a3.86,3.86,0,0,1,1.18.64,2,2,0,0,1,.48.81,3.32,3.32,0,0,1,.19.87l0,.35Z"/><path class="cls-19" d="M143,191.93a1,1,0,0,1,.71.29.91.91,0,0,1,.32.68v16a.91.91,0,0,1-.32.68,1,1,0,0,1-.71.29h-4.59V203h2.34l.34-2.74h-2.68v-1.76a1.19,1.19,0,0,1,1.37-1.32h1.41v-2.4a11.36,11.36,0,0,0-2.1-.15,3.39,3.39,0,0,0-2.51,1,3.61,3.61,0,0,0-1,2.67v2h-2.34V203h2.35v6.95H127a1,1,0,0,1-1-1v-16a1,1,0,0,1,1-1Z"/><path class="cls-20" d="M161.71,197.6v-1.43h-2.83v-2.85h-1.37v2.85h-2.88v1.43h2.88v2.85h1.37V197.6Zm-1-5.6a1.22,1.22,0,0,1,.9.37,1.24,1.24,0,0,1,.37.91v15.44a1.24,1.24,0,0,1-.37.91,1.22,1.22,0,0,1-.9.37h-7.07a4.36,4.36,0,0,0,.15-1.13,4.09,4.09,0,0,0-.63-2.26,8.57,8.57,0,0,0-1.46-1.57l-.93-.74a4.77,4.77,0,0,1-.44-.49,1.19,1.19,0,0,1-.24-.69,1.49,1.49,0,0,1,.24-.79l.44-.59.37-.3a5,5,0,0,0,.46-.39,5.11,5.11,0,0,0,.63-.79,4.11,4.11,0,0,0,.63-2.36,6,6,0,0,0-.2-1.43,4.4,4.4,0,0,0-.49-1,5.91,5.91,0,0,0-.59-.79,4.34,4.34,0,0,0-.59-.44h1.66l1.71-1H149a13.55,13.55,0,0,0-2.34.25,5.76,5.76,0,0,0-2.39,1.23l-.12.15L144,195v-1.72a1.2,1.2,0,0,1,.39-.91,1.25,1.25,0,0,1,.88-.37h15.47Zm-11.57,14.31a14.7,14.7,0,0,1,2.24,1.82,2.69,2.69,0,0,1,.68,1.82V210h-6.83a1.25,1.25,0,0,1-.88-.37,1.2,1.2,0,0,1-.39-.91V208a5.55,5.55,0,0,1,.44-.54,3.71,3.71,0,0,1,.78-.49l.29-.12.29-.12,1.71-.34c.39,0,.75,0,1.07,0h.58Zm-.73-.79a17.42,17.42,0,0,0-2.39.25,8.75,8.75,0,0,0-2,.64v-4.87a4.07,4.07,0,0,0,3,1.13,5.74,5.74,0,0,0,.88,0l-.15.44a2,2,0,0,0-.1.64,1.94,1.94,0,0,0,.24,1A4.85,4.85,0,0,0,148.44,205.52Zm-1.66-4.13a4.26,4.26,0,0,1-1.07-1.28,6.34,6.34,0,0,1-.83-3,3.65,3.65,0,0,1,.59-2.07,2.26,2.26,0,0,1,1.8-.88,2.61,2.61,0,0,1,1.46.49,3.49,3.49,0,0,1,1,1.28,7.37,7.37,0,0,1,.83,3.3,6.54,6.54,0,0,1,0,.88,2.09,2.09,0,0,1-2.24,1.87A2.38,2.38,0,0,1,146.78,201.39Z"/><path class="cls-17" d="M177.36,194.64,180,192v7.89h-7.92l3.64-3.63a6.68,6.68,0,1,0-.79,10.22,6.43,6.43,0,0,0,2.43-3.23h2.32a8.64,8.64,0,0,1-3.17,4.84A8.77,8.77,0,0,1,171,210a9,9,0,1,1,6.39-15.35Z"/><polygon class="cls-17" points="198.02 199.89 198.02 202.1 184.32 202.1 190.59 208.41 189.01 210 180 201 189.01 192 190.65 193.58 184.32 199.89 198.02 199.89 198.02 199.89"/><polygon class="cls-21" points="164 68.13 164 69.85 153.36 69.85 158.23 74.75 157 75.98 150 68.99 157 62 158.27 63.23 153.36 68.13 164 68.13 164 68.13"/><polygon class="cls-17" points="197.99 199.89 197.99 202.1 211.69 202.1 205.42 208.41 207 210 216.01 201 207 192 205.37 193.58 211.69 199.89 197.99 199.89 197.99 199.89"/><polygon class="cls-17" points="223.89 210.01 226.1 210.01 226.1 196.31 232.41 202.58 234 201 225 191.99 216 201 217.58 202.63 223.89 196.31 223.89 210.01 223.89 210.01"/><polygon class="cls-17" points="241.89 191.99 244.1 191.99 244.1 205.69 250.41 199.42 252 201 243 210.01 234 201 235.58 199.37 241.89 205.69 241.89 191.99 241.89 191.99"/><path class="cls-11" d="M262.64,209.44A2.54,2.54,0,0,1,261,210a2.48,2.48,0,0,1-1.64-.59,2.12,2.12,0,0,1-.8-1.43h4.88A2.2,2.2,0,0,1,262.64,209.44Zm4.27-9.84q0,1,.07,1.8t.14,1.38a3.84,3.84,0,0,0,.33,1.13,6.19,6.19,0,0,1,.33.82,2,2,0,0,0,.49.7c.28.3.44.47.47.51a6.13,6.13,0,0,0,.63.54l.63.52H252a5.47,5.47,0,0,1,.51-.42,5.41,5.41,0,0,0,.49-.4l.42-.42a3.14,3.14,0,0,0,.42-.49l.35-.54a2.56,2.56,0,0,0,.33-.66c.06-.2.14-.47.24-.8a5.46,5.46,0,0,0,.19-1q0-.52.09-1.2t0-1.48q0-5.67,4.78-6.47V193a1,1,0,0,1,.33-.73,1.19,1.19,0,0,1,1.59,0,1,1,0,0,1,.33.73v.09Q266.91,193.83,266.91,199.59Z"/><path class="cls-6" d="M280.64,209.44A2.55,2.55,0,0,1,279,210a2.48,2.48,0,0,1-1.64-.59,2.12,2.12,0,0,1-.8-1.43h4.88A2.2,2.2,0,0,1,280.64,209.44Zm4.27-9.84q0,1,.07,1.8t.14,1.38a3.84,3.84,0,0,0,.33,1.13,6.19,6.19,0,0,1,.33.82,2,2,0,0,0,.49.7c.28.3.44.47.47.51a6.13,6.13,0,0,0,.63.54l.63.52H270a5.47,5.47,0,0,1,.52-.42,5.42,5.42,0,0,0,.49-.4l.42-.42a3.13,3.13,0,0,0,.42-.49l.35-.54a2.56,2.56,0,0,0,.33-.66c.06-.2.14-.47.23-.8a5.46,5.46,0,0,0,.19-1q0-.52.09-1.2t0-1.48q0-5.67,4.78-6.47V193a1,1,0,0,1,.33-.73,1.19,1.19,0,0,1,1.59,0,1,1,0,0,1,.33.73v.09Q284.91,193.83,284.91,199.59Z"/><path class="cls-4" d="M304.21,192a1.8,1.8,0,0,1,1.77,1.77V204.6a1.78,1.78,0,0,1-.53,1.27,1.67,1.67,0,0,1-1.24.55h-10.8a1.88,1.88,0,0,1-1.81-1.82V193.77a1.68,1.68,0,0,1,.55-1.25,1.77,1.77,0,0,1,1.27-.53h10.8Zm-7.68,6.76v-.93a1.37,1.37,0,0,0-1.35-1.35h-2.24v5.41h1.35v-1.78h.89a1.37,1.37,0,0,0,1.35-1.35Zm4.51,1.77v-2.7a1.34,1.34,0,0,0-.38-1,1.28,1.28,0,0,0-1-.4h-2.24v5.41h2.24a1.28,1.28,0,0,0,1-.4,1.34,1.34,0,0,0,.38-1Zm3.59-2.7v-1.35h-2.7v5.41h1.35v-1.78h1.35v-1.36h-1.35v-.93h1.35Zm-10.34.93v-.93h.89v.93Zm-4.52-3.17v12.64H302.4V210H289.78a1.8,1.8,0,0,1-1.77-1.77V195.59h1.77Zm9,4.94v-2.7h.89v2.7Z"/><path class="cls-22" d="M370.33,196.9a1.51,1.51,0,0,1,.19-.88,1.24,1.24,0,0,1,1-.26h1.44V193h-2.33a3.33,3.33,0,0,0-2.72.91,4.33,4.33,0,0,0-.72,2.73v1.61H365V201h2.17v8h3.17v-8h2.33l.34-2.75h-2.67V196.9Z"/><path class="cls-23" d="M386.28,202.19a2.52,2.52,0,0,1-1.32-1.51,1.16,1.16,0,0,1,.2-.71,4.94,4.94,0,0,1,.78-.75,3.15,3.15,0,0,0,1.42-2.58,3.63,3.63,0,0,0-.44-1.78,2.31,2.31,0,0,0-1.17-1.09h1.57l1.13-.78h-5a4.61,4.61,0,0,0-3,1.1,3.24,3.24,0,0,0-1.32,2.55,3.42,3.42,0,0,0,1.08,2.55,3.77,3.77,0,0,0,2.74,1,1.81,1.81,0,0,0,.44,0,2.06,2.06,0,0,0-.24.93,2,2,0,0,0,.68,1.41h-.88a5.54,5.54,0,0,0-3.45,1.1,3.09,3.09,0,0,0-1.44,2.46,2.39,2.39,0,0,0,1.49,2.12,7.61,7.61,0,0,0,3.64.8,5.51,5.51,0,0,0,3.57-1.07,3.13,3.13,0,0,0,1.32-2.48,3.74,3.74,0,0,0-.39-1.82A4.84,4.84,0,0,0,386.28,202.19Zm-2.67-2.46a2.41,2.41,0,0,1-1.76-.95,4.07,4.07,0,0,1-1-2.16,2.94,2.94,0,0,1,.39-2.09,1.7,1.7,0,0,1,1.54-.83,2.48,2.48,0,0,1,1.79.9,3.7,3.7,0,0,1,1,2.14,3.09,3.09,0,0,1-.44,2.14A1.61,1.61,0,0,1,383.61,199.74Zm-.51,8.49a3.53,3.53,0,0,1-2.35-.78,2.39,2.39,0,0,1-.93-1.9,2.21,2.21,0,0,1,1.1-1.8,4.26,4.26,0,0,1,2.52-.78,4.32,4.32,0,0,1,1.27.2,2.93,2.93,0,0,0,.39.29c.2.13.33.23.42.29l.32.24a2.72,2.72,0,0,1,.29.24l.24.27a1.58,1.58,0,0,1,.22.32.64.64,0,0,1,.07.29,1.69,1.69,0,0,1,.1.54Q386.77,208.22,383.1,208.23Zm9.78-13.82h-1.57v3.11h-3.13v1.6h3.13v3.07h1.57v-3.07H396v-1.6h-3.13Z"/><path class="cls-24" d="M412.53,195.26a6.05,6.05,0,0,1-2.08.78,3.08,3.08,0,0,0-2.4-1,3.29,3.29,0,0,0-3.28,3.28,2.81,2.81,0,0,0,.11.78,8.92,8.92,0,0,1-6.77-3.43,3.18,3.18,0,0,0-.47,1.66,3.07,3.07,0,0,0,1.51,2.7,2.84,2.84,0,0,1-1.51-.42v.05a3.1,3.1,0,0,0,.76,2.08,3.45,3.45,0,0,0,1.9,1.14,4.13,4.13,0,0,1-.89.1,3.86,3.86,0,0,1-.62-.05,3.16,3.16,0,0,0,1.15,1.61,3.41,3.41,0,0,0,1.93.68,6.5,6.5,0,0,1-4.06,1.4,5.67,5.67,0,0,1-.78-.05,9.16,9.16,0,0,0,5,1.47,8.66,8.66,0,0,0,6.83-2.89,9.46,9.46,0,0,0,2.55-6.42,1.67,1.67,0,0,0-.05-.42,7.08,7.08,0,0,0,1.67-1.72,6.35,6.35,0,0,1-1.88.52A3.1,3.1,0,0,0,412.53,195.26Z"/><path class="cls-3" d="M349.91,199.73a2.23,2.23,0,0,0,.32-1.55,2.67,2.67,0,0,0-.68-1.55,1.78,1.78,0,0,0-1.28-.65,1.22,1.22,0,0,0-1.11.6,2.14,2.14,0,0,0-.28,1.51,2.94,2.94,0,0,0,.7,1.56,1.74,1.74,0,0,0,1.27.69A1.16,1.16,0,0,0,349.91,199.73Zm-.28,3.09a3.08,3.08,0,0,0-.91-.14,3,3,0,0,0-1.81.56,1.6,1.6,0,0,0-.79,1.3,1.73,1.73,0,0,0,.67,1.37,2.53,2.53,0,0,0,1.69.56q2.64,0,2.64-1.86a1.21,1.21,0,0,0-.07-.39A.47.47,0,0,0,351,204a1.12,1.12,0,0,0-.16-.23l-.18-.19-.21-.18-.23-.18-.3-.21A2,2,0,0,1,349.63,202.83Zm8.12-2.92H355.5v2.21h-1.12v-2.21h-2.25v-1.16h2.25V196.5h1.13v2.25h2.25ZM348.5,207a5.44,5.44,0,0,1-2.62-.58,1.73,1.73,0,0,1-1.07-1.53,2.23,2.23,0,0,1,1-1.77,4,4,0,0,1,2.48-.79H349a1.45,1.45,0,0,1-.49-1,1.51,1.51,0,0,1,.17-.67,1.35,1.35,0,0,1-.32,0,2.7,2.7,0,0,1-2-.76,2.48,2.48,0,0,1-.77-1.85,2.34,2.34,0,0,1,.95-1.85,3.3,3.3,0,0,1,2.18-.79h3.58l-.81.56h-1.12a1.66,1.66,0,0,1,.84.79,2.63,2.63,0,0,1,.32,1.28,2.28,2.28,0,0,1-1,1.86,3.58,3.58,0,0,0-.56.54.85.85,0,0,0-.14.51,1.82,1.82,0,0,0,.95,1.09,3.45,3.45,0,0,1,1,1,2.71,2.71,0,0,1,.28,1.32,2.27,2.27,0,0,1-.95,1.79,3.94,3.94,0,0,1-2.57.77h0Zm8.86-12.41A9,9,0,1,0,360,201,8.67,8.67,0,0,0,357.36,194.64Z"/><path class="cls-9" d="M317.32,201h-1.48v5.41h-2V201h-1.37v-1.86h1.37V198a3.08,3.08,0,0,1,.46-1.85,2,2,0,0,1,1.72-.62h1.48v1.86h-.92a.75.75,0,0,0-.61.18,1.08,1.08,0,0,0-.12.6v.91h1.69Zm4-6.36A9,9,0,1,0,324,201,8.67,8.67,0,0,0,321.36,194.64Z"/><path class="cls-10" d="M337.46,199a1.16,1.16,0,0,1,0,.28,6.41,6.41,0,0,1-1.72,4.34,5.84,5.84,0,0,1-4.61,2,6.17,6.17,0,0,1-3.37-1,3.73,3.73,0,0,0,.53,0,4.38,4.38,0,0,0,2.74-.95,2.3,2.3,0,0,1-1.3-.46,2.13,2.13,0,0,1-.77-1.09,2.58,2.58,0,0,0,.42,0,2.75,2.75,0,0,0,.6-.07,2.32,2.32,0,0,1-1.28-.77,2.1,2.1,0,0,1-.51-1.41v0a1.91,1.91,0,0,0,1,.28,2.08,2.08,0,0,1-1-1.83,2.16,2.16,0,0,1,.32-1.12,6,6,0,0,0,4.57,2.32A1.88,1.88,0,0,1,333,199a2.22,2.22,0,0,1,2.21-2.21,2.08,2.08,0,0,1,1.62.7,4,4,0,0,0,1.41-.53,2.1,2.1,0,0,1-1,1.23,4.28,4.28,0,0,0,1.27-.35A4.81,4.81,0,0,1,337.46,199Zm1.9-4.36A9,9,0,1,0,342,201a8.67,8.67,0,0,0-2.64-6.36Z"/><path class="cls-4" d="M120.88,203.34l5.12,5.12L124.45,210l-5.11-5.12v-.82l-.29-.29a6.41,6.41,0,0,1-4.34,1.59,6.51,6.51,0,0,1-4.75-1.93,6.39,6.39,0,0,1-2-4.73,6.67,6.67,0,0,1,6.7-6.71,6.39,6.39,0,0,1,4.73,2,6.51,6.51,0,0,1,1.93,4.75,6.41,6.41,0,0,1-1.59,4.34l.29.29h.82Zm-6.18,0a4.62,4.62,0,1,0-3.28-1.35,4.47,4.47,0,0,0,3.28,1.35h0Z"/><path class="cls-2" d="M875.88,203.34l5.12,5.12L879.45,210l-5.11-5.12v-.82l-.29-.29a6.41,6.41,0,0,1-4.34,1.59,6.51,6.51,0,0,1-4.75-1.93,6.39,6.39,0,0,1-2-4.73,6.67,6.67,0,0,1,6.7-6.71,6.39,6.39,0,0,1,4.73,2,6.51,6.51,0,0,1,1.93,4.75,6.41,6.41,0,0,1-1.59,4.34l.29.29h.82Zm-6.18,0a4.62,4.62,0,1,0-3.28-1.35,4.47,4.47,0,0,0,3.28,1.35h0Z"/><path class="cls-6" d="M417.29,194.29v13.43h11.43v-2.29H421v-3.14h3.14v-2.57H421v-3.14h7.71v-2.29ZM430.14,192H415.86a.86.86,0,0,0-.86.86v16.28a.86.86,0,0,0,.86.86h14.29a.86.86,0,0,0,.86-.86V192.86a.86.86,0,0,0-.86-.86Zm-.57,4.6a.76.76,0,0,1-.77.83h-6.94v1.43h2.37a.82.82,0,0,1,.77.89v2.57a.76.76,0,0,1-.78.83h-2.37v1.43h6.94a.82.82,0,0,1,.77.89v2.29a.76.76,0,0,1-.77.83H417.37a.91.91,0,0,1-.94-.83V194.32a1,1,0,0,1,.94-.89H428.8a.82.82,0,0,1,.77.89v2.28h0Z"/><polygon class="cls-2" points="539.01 199.89 539.01 202.1 525.31 202.1 531.58 208.41 530 210 520.99 201 530 192 531.63 193.58 525.31 199.89 539.01 199.89 539.01 199.89"/><polygon class="cls-2" points="538.99 199.89 538.99 202.1 552.69 202.1 546.42 208.41 548 210 557.01 201 548 192 546.37 193.58 552.69 199.89 538.99 199.89 538.99 199.89"/><polygon class="cls-2" points="567.11 210.01 564.9 210.01 564.9 196.31 558.59 202.58 557 201 566 191.99 575 201 573.42 202.63 567.11 196.31 567.11 210.01 567.11 210.01"/><polygon class="cls-2" points="585.11 191.99 582.9 191.99 582.9 205.69 576.59 199.42 575 201 584 210.01 593 201 591.42 199.37 585.11 205.69 585.11 191.99 585.11 191.99"/><polygon class="cls-2" points="521.01 208.21 519.21 210.01 512 202.8 504.79 210.01 502.99 208.21 510.2 201 502.99 193.79 504.79 191.99 512 199.2 519.21 191.99 521.01 193.79 513.8 201 521.01 208.21"/><path class="cls-2" d="M493.8,192.72a7.59,7.59,0,0,0-2.49.41,6.86,6.86,0,0,0-2.14,1.19,5.85,5.85,0,0,0-1.51,1.87,5.39,5.39,0,0,0-.57,2.5,6.48,6.48,0,0,0,.43,2.19,2.32,2.32,0,0,0,1.34,1.52h.2a.57.57,0,0,0,.4-.54,3.53,3.53,0,0,0,.15-.71,1.48,1.48,0,0,0-.38-.74,2.48,2.48,0,0,1-.38-1.51,4.65,4.65,0,0,1,.36-1.85,4.27,4.27,0,0,1,1-1.45,4.35,4.35,0,0,1,1.5-.92,4.82,4.82,0,0,1,1.85-.28,4.48,4.48,0,0,1,1.53.26,3.55,3.55,0,0,1,1.22.73,3.31,3.31,0,0,1,.8,1.16,4,4,0,0,1,.29,1.58,9.92,9.92,0,0,1-.14,1.5,6.9,6.9,0,0,1-.48,1.66,4.13,4.13,0,0,1-.92,1.35,2,2,0,0,1-1.43.55,1.59,1.59,0,0,1-1.1-.4,1.37,1.37,0,0,1-.45-1.08,4.36,4.36,0,0,1,.45-1.86,4.55,4.55,0,0,0,.45-2,1.51,1.51,0,0,0-.38-1,1.2,1.2,0,0,0-.94-.43,1.46,1.46,0,0,0-1.29.74,2.77,2.77,0,0,0-.47,1.51q0,.42,0,.88a1.59,1.59,0,0,0,.3.81l-.39,1.6q-.22.9-.43,1.84t-.35,1.85a10.5,10.5,0,0,0-.15,1.67q0,.51,0,1a6.56,6.56,0,0,0,.09,1l.12.12h.1a9.37,9.37,0,0,0,1.48-2.57q.25-.89.81-3.17a2.3,2.3,0,0,0,1,.92,2.92,2.92,0,0,0,1.32.32,4.18,4.18,0,0,0,2.27-.6,5.05,5.05,0,0,0,1.57-1.55,6.92,6.92,0,0,0,.91-2.13,9.87,9.87,0,0,0,.29-2.37,5.22,5.22,0,0,0-.49-2.29,5.39,5.39,0,0,0-1.31-1.74A5.87,5.87,0,0,0,496,193.1a6.46,6.46,0,0,0-2.22-.39Zm-17.29,3h2.64v-3.37h-2.64a3.69,3.69,0,0,0-.8.09,2.8,2.8,0,0,0-.72.26,3,3,0,0,0-.65.41,3.66,3.66,0,0,0-.57.59,3,3,0,0,0-.52.69,8.35,8.35,0,0,0-.36.77,3,3,0,0,0-.25.81,5.28,5.28,0,0,0-.08.88v1.69h-2.64v3.38h2.64V210h3.29v-8.21h3.29v-3.37h-3.29v-1.69a.9.9,0,0,1,.07-.34,3.22,3.22,0,0,1,.15-.32.52.52,0,0,1,.21-.26.45.45,0,0,1,.22-.09h0Z"/><path class="cls-4" d="M458.9,193a7.88,7.88,0,0,0-2.56.42,7.11,7.11,0,0,0-2.21,1.21,6,6,0,0,0-1.55,1.91,5.47,5.47,0,0,0-.58,2.56,6.55,6.55,0,0,0,.44,2.23,2.38,2.38,0,0,0,1.38,1.55H454a.58.58,0,0,0,.42-.55,3.59,3.59,0,0,0,.15-.73,1.51,1.51,0,0,0-.39-.75,2.52,2.52,0,0,1-.39-1.54,4.71,4.71,0,0,1,.37-1.88,4.37,4.37,0,0,1,1-1.48,4.51,4.51,0,0,1,1.55-.94,5,5,0,0,1,1.91-.29,4.62,4.62,0,0,1,1.57.26,3.69,3.69,0,0,1,1.25.74,3.41,3.41,0,0,1,.83,1.18,4.06,4.06,0,0,1,.3,1.62,10,10,0,0,1-.14,1.53,6.87,6.87,0,0,1-.5,1.7,4.19,4.19,0,0,1-.95,1.37,2.05,2.05,0,0,1-1.47.57,1.65,1.65,0,0,1-1.13-.4,1.39,1.39,0,0,1-.46-1.1,4.41,4.41,0,0,1,.46-1.9,4.61,4.61,0,0,0,.46-2,1.53,1.53,0,0,0-.39-1.05,1.24,1.24,0,0,0-1-.44,1.51,1.51,0,0,0-1.33.75,2.82,2.82,0,0,0-.49,1.54q0,.43,0,.9a1.62,1.62,0,0,0,.31.82l-.41,1.63q-.23.92-.44,1.88t-.36,1.89a10.76,10.76,0,0,0-.15,1.7q0,.52,0,1a6.54,6.54,0,0,0,.1,1l.12.13H455a9.57,9.57,0,0,0,1.53-2.63q.26-.91.84-3.24a2.34,2.34,0,0,0,1,.94,3,3,0,0,0,1.36.33,4.34,4.34,0,0,0,2.34-.61,5.18,5.18,0,0,0,1.62-1.58,7,7,0,0,0,.94-2.18,10,10,0,0,0,.3-2.41,5.29,5.29,0,0,0-.5-2.33,5.5,5.5,0,0,0-1.35-1.78,6.06,6.06,0,0,0-2-1.13,6.74,6.74,0,0,0-2.29-.4Zm-17.48,2.43H444V192h-2.57a3.46,3.46,0,0,0-.79.09,2.67,2.67,0,0,0-.7.27,2.9,2.9,0,0,0-.64.42,3.64,3.64,0,0,0-.55.6,3.06,3.06,0,0,0-.5.7,8,8,0,0,0-.35.79,3.13,3.13,0,0,0-.24.82,5.65,5.65,0,0,0-.08.9v1.72H435v3.44h2.57V210h3.21v-8.37H444v-3.44h-3.21v-1.72a1,1,0,0,1,.07-.35c0-.11.1-.22.15-.33a.53.53,0,0,1,.2-.27.43.43,0,0,1,.22-.09Zm154.44,3a1.14,1.14,0,1,1,.81-.33A1.1,1.1,0,0,1,595.86,198.43Zm10.34,3.19-6.38-6.37a3.15,3.15,0,0,0-2-.81h-3.71a1.16,1.16,0,0,0-1.14,1.14v3.71a2.75,2.75,0,0,0,.24,1,2.65,2.65,0,0,0,.58.9l6.38,6.39a1.09,1.09,0,0,0,.8.33,1.15,1.15,0,0,0,.81-.33l4.38-4.39a1.09,1.09,0,0,0,.33-.8,1.14,1.14,0,0,0-.33-.81Zm3.43,0-6.38-6.37a3.16,3.16,0,0,0-2-.81h-2a3.16,3.16,0,0,1,2,.81l6.38,6.38a1.14,1.14,0,0,1,.33.81,1.09,1.09,0,0,1-.33.8l-4.2,4.2a2.51,2.51,0,0,0,.47.4,1,1,0,0,0,.53.13,1.15,1.15,0,0,0,.81-.33l4.38-4.39a1.09,1.09,0,0,0,.33-.8,1.14,1.14,0,0,0-.33-.81Z"/><polygon class="cls-11" points="3.01 126.95 4.21 126 13.99 134 4.21 142 3.01 141.05 11.59 134 3.01 126.95"/><polygon class="cls-11" points="29.99 126.95 28.79 126 19.01 134 28.79 142 29.99 141.05 21.41 134 29.99 126.95"/><polygon class="cls-11" points="47.05 138.99 48 137.79 40 128.01 32 137.79 32.95 138.99 40 130.41 47.05 138.99"/><polygon class="cls-11" points="63.05 128.01 64 129.21 56 138.99 48 129.21 48.95 128.01 56 136.59 63.05 128.01"/><path class="cls-11" d="M91.38,126a.57.57,0,0,1,.62.68v14.85a.4.4,0,0,1-.11.35.41.41,0,0,1-.34.12.51.51,0,0,1-.37-.17l-3.34-3.47a.44.44,0,0,0-.33-.13.39.39,0,0,0-.29.13l-3.43,3.51a.44.44,0,0,1-.33.13.41.41,0,0,1-.45-.47V126.68a.57.57,0,0,1,.62-.68h7.76Z"/><polygon class="cls-11" points="64 126 64 136.55 66.64 136.55 66.64 142 72.72 136.54 80 136.54 80 126 64 126"/><path class="cls-12" d="M107.38,126a.57.57,0,0,1,.62.68v14.85a.4.4,0,0,1-.11.35.41.41,0,0,1-.34.12.51.51,0,0,1-.37-.17l-3.34-3.47a.44.44,0,0,0-.33-.13.39.39,0,0,0-.29.13l-3.43,3.51a.44.44,0,0,1-.33.13.41.41,0,0,1-.45-.47V126.68a.57.57,0,0,1,.62-.68h7.76Z"/><path class="cls-2" d="M125.14,130.07a2.33,2.33,0,0,0,.33-.79.9.9,0,0,1-.49.3l-1,.3a1.71,1.71,0,0,0-.38-.39,1.32,1.32,0,0,0-.44-.22l-.41-.09a1.76,1.76,0,0,0-.42,0l-.39,0a1.83,1.83,0,0,0-.5.12c-.23.12-.43.23-.62.35a1.61,1.61,0,0,0-.44.4,3.69,3.69,0,0,0-.28.47,1.78,1.78,0,0,0-.16.52,2.28,2.28,0,0,0-.07.5c0,.19,0,.39,0,.62a8.5,8.5,0,0,1-1.17-.08,3.19,3.19,0,0,1-1-.3l-.85-.46c-.26-.15-.51-.3-.73-.45a3.36,3.36,0,0,1-.64-.55l-.64-.73a6.78,6.78,0,0,0-.26.73,1.29,1.29,0,0,0,0,.62,1.88,1.88,0,0,0,.08.59q.08.25.14.47a2.1,2.1,0,0,0,.32.45l.43.46a1.55,1.55,0,0,1-.41-.07,6.46,6.46,0,0,1-.64-.24,3,3,0,0,0,.07.66,1.4,1.4,0,0,0,.23.54q.16.23.33.44a3.78,3.78,0,0,0,.27.31,2.34,2.34,0,0,0,.43.33,4,4,0,0,0,.54.27h-1a3,3,0,0,0,.24.47,2.15,2.15,0,0,0,.29.35,3,3,0,0,0,.38.32,1.59,1.59,0,0,0,.38.21,3.12,3.12,0,0,0,.46.18,4.33,4.33,0,0,0,.52.12,5.67,5.67,0,0,1-.64.46,2.89,2.89,0,0,1-.64.29l-.59.22a1.27,1.27,0,0,0-.3.15,3.44,3.44,0,0,1-.56.07h-.56a4.3,4.3,0,0,0,.63.46,4,4,0,0,0,.63.29,4.34,4.34,0,0,0,.6.18l.6.12a3.44,3.44,0,0,0,.56.07h1.08a2.29,2.29,0,0,0,.46-.07q.5-.11,1-.24a4,4,0,0,0,.89-.36l.73-.41a4.61,4.61,0,0,0,.62-.41,6.67,6.67,0,0,0,.56-.5c.19-.19.38-.4.56-.62s.43-.66.61-1a6.64,6.64,0,0,0,.44-.91q.11-.46.21-.85t.16-.73a5.26,5.26,0,0,0,.07-.64q0-.25,0-.49a.58.58,0,0,1,0-.33.13.13,0,0,1,.1-.11,2.36,2.36,0,0,0,.39-.34q.28-.28.74-.79a2.24,2.24,0,0,1-.57.18l-.79.12A2.19,2.19,0,0,0,125.14,130.07Zm12,5.69a3.91,3.91,0,0,0-.72-.76l-.72-.56a.72.72,0,0,1-.33-.59,1.25,1.25,0,0,1,.79-1.05,1.79,1.79,0,0,0,.79-1.72,2.15,2.15,0,0,0-.26-1.12,3.46,3.46,0,0,0-.71-.83h.9l.9-.68H135a4.76,4.76,0,0,0-1.44.22,3.81,3.81,0,0,0-1.27.68,3.4,3.4,0,0,0-.64.88,2.33,2.33,0,0,0-.25,1.06,2.19,2.19,0,0,0,.18.89,2.25,2.25,0,0,0,1.24,1.19,2.39,2.39,0,0,0,.9.17h.46a2.8,2.8,0,0,1-.09.3.86.86,0,0,0,0,.29.87.87,0,0,0,.16.51,1.33,1.33,0,0,0,.44.39q-.68.06-1.41.17a3,3,0,0,0-1.3.51,3.06,3.06,0,0,0-.81.79,1.72,1.72,0,0,0-.31,1,2.15,2.15,0,0,0,.06.49,1.13,1.13,0,0,0,.18.42,1.89,1.89,0,0,0,1.21,1,5.7,5.7,0,0,0,1.55.23,5.88,5.88,0,0,0,1-.08,4.54,4.54,0,0,0,.94-.26,3.38,3.38,0,0,0,.83-.48,2.38,2.38,0,0,0,.63-.76,3,3,0,0,0,.21-.53,2.05,2.05,0,0,0,.09-.59A1.94,1.94,0,0,0,137.17,135.76Zm-1.3,2.94a3.15,3.15,0,0,1-1.44.33,3.76,3.76,0,0,1-.83-.1,2.82,2.82,0,0,1-.8-.32,2,2,0,0,1-.61-.56,1.39,1.39,0,0,1-.24-.82,1.31,1.31,0,0,1,.26-.84,1.9,1.9,0,0,1,.67-.53,3,3,0,0,1,.88-.28,5.65,5.65,0,0,1,.9-.08H135q.52.39,1,.83a1.39,1.39,0,0,1,.53,1.12,1.26,1.26,0,0,1-.66,1.24Zm-.9-5.61a1.46,1.46,0,0,1-.54.1,1.25,1.25,0,0,1-.79-.26,2.26,2.26,0,0,1-.56-.64,3.09,3.09,0,0,1-.34-.83,3.35,3.35,0,0,1-.11-.81,2.46,2.46,0,0,1,.08-.59,1.11,1.11,0,0,1,.3-.53,1.62,1.62,0,0,1,.43-.32,1.14,1.14,0,0,1,.54-.14,1.18,1.18,0,0,1,.79.29,2.52,2.52,0,0,1,.56.7,3.77,3.77,0,0,1,.45,1.72,2,2,0,0,1-.08.55,1.12,1.12,0,0,1-.3.49,1.24,1.24,0,0,1-.44.28Zm4.93.1v-1.42h-.68v1.42h-1.42v.75h1.42v1.5h.67v-1.5h1.42v-.75H139.9Zm12.83-2.46h1.65v-2.06h-1.65a2.45,2.45,0,0,0-.51.05,1.81,1.81,0,0,0-.45.16,1.93,1.93,0,0,0-.41.25,2.23,2.23,0,0,0-.35.36,1.88,1.88,0,0,0-.32.42,4.63,4.63,0,0,0-.23.47,1.76,1.76,0,0,0-.16.49,3.24,3.24,0,0,0,0,.54v1h-1.65v2.06h1.65v5h2.06v-5h2.06v-2.06h-2.06v-1a.54.54,0,0,1,0-.21l.1-.2a.32.32,0,0,1,.13-.16.28.28,0,0,1,.14-.05Z"/><path class="cls-17" d="M174.82,133.68l-12.16-7.62a.46.46,0,0,0-.43,0,.38.38,0,0,0-.22.34v15.24a.38.38,0,0,0,.22.34.46.46,0,0,0,.2,0,.46.46,0,0,0,.24-.07l12.16-7.62a.36.36,0,0,0,0-.63ZM186,126h4v16h-4Zm-8,0h4v16h-4Z"/><path class="cls-11" d="M207.11,131.82q-2.93,2-4.45,3.08l-.83.59a5,5,0,0,1-.84.43,2.58,2.58,0,0,1-1,.22h0a2.58,2.58,0,0,1-1-.22,5,5,0,0,1-.84-.43l-.83-.59q-1.2-.88-4.44-3.08a4.7,4.7,0,0,1-.9-.78v7.09a1.43,1.43,0,0,0,1.43,1.43h13.14a1.43,1.43,0,0,0,1.43-1.43V131A4.93,4.93,0,0,1,207.11,131.82Zm.47-4.41a1.38,1.38,0,0,0-1-.42H193.43a1.27,1.27,0,0,0-1.06.46,1.8,1.8,0,0,0-.37,1.16,2.08,2.08,0,0,0,.49,1.22,4.41,4.41,0,0,0,1,1l1.83,1.27,2.34,1.63.38.27.48.34.46.29a2.73,2.73,0,0,0,.51.24,1.44,1.44,0,0,0,.45.08h0a1.44,1.44,0,0,0,.45-.08,2.74,2.74,0,0,0,.51-.24l.46-.29.48-.34.38-.27,4.18-2.9a4.2,4.2,0,0,0,1.09-1.1,2.35,2.35,0,0,0,.44-1.35A1.37,1.37,0,0,0,207.58,127.41Z"/><path class="cls-21" d="M304,139h-1.5l-1.5-1.45v-1.45l1.5-1.45H304Zm-16-3.27a1.58,1.58,0,0,1,.58-1.23,2,2,0,0,1,1.33-.51h8.39a2,2,0,0,1,1.33.51,1.58,1.58,0,0,1,.58,1.23v3.58a1.62,1.62,0,0,1-.54,1.23,1.92,1.92,0,0,1-1.37.51h-8.39a2,2,0,0,1-1.33-.51,1.57,1.57,0,0,1-.58-1.23v-3.58Zm6.91-4.54a2,2,0,0,1,.66-1.5,2.45,2.45,0,0,1,3.27,0,2,2,0,0,1,0,3,2.45,2.45,0,0,1-3.27,0A2,2,0,0,1,294.91,131.2Zm-6.11,0a2,2,0,0,1,.66-1.5,2.46,2.46,0,0,1,3.28,0,2,2,0,0,1,0,3,2.46,2.46,0,0,1-3.28,0A2,2,0,0,1,288.8,131.2Z"/><path class="cls-21" d="M319.6,130.79H304.26a.33.33,0,0,0-.16.09.25.25,0,0,0-.09.15,1.18,1.18,0,0,0,0,.15v9.46a1.32,1.32,0,0,0,0,.15.25.25,0,0,0,.09.15.37.37,0,0,0,.16.08l.14,0h15.2l.14,0a.37.37,0,0,0,.16-.08.25.25,0,0,0,.1-.15c0-.05,0-.1,0-.15V131.1a1,1,0,0,0,0-.15.25.25,0,0,0-.09-.15.38.38,0,0,0-.16-.08l-.14,0v.09ZM309.12,129H306a.28.28,0,0,0-.16.05.26.26,0,0,1-.14.05.24.24,0,0,0-.1.14.73.73,0,0,0,0,.15v1h3.8v-1.28a.33.33,0,0,0-.15-.09h-.15Zm2.88,11a4.41,4.41,0,0,1-.86-.08,5.24,5.24,0,0,1-.78-.21,3.5,3.5,0,0,1-.71-.38,6.11,6.11,0,0,1-.64-.52,5,5,0,0,1-.54-.6,2.82,2.82,0,0,1-.38-.68,3.49,3.49,0,0,1-.23-.76,4.46,4.46,0,0,1-.07-.82,3.17,3.17,0,0,1,.09-.74,2.58,2.58,0,0,1,.31-.74,3.74,3.74,0,0,1,.38-.68l.44-.62a6.36,6.36,0,0,1,.64-.52,3,3,0,0,1,.71-.36,3.91,3.91,0,0,1,.78-.22,4.93,4.93,0,0,1,.86-.07,5.48,5.48,0,0,1,.86.06l.78.12a3.55,3.55,0,0,1,.71.38,6.36,6.36,0,0,1,.64.52,5.09,5.09,0,0,1,.54.6,2.85,2.85,0,0,1,.38.68,3.5,3.5,0,0,1,.23.75,4.75,4.75,0,0,1,0,1.65,3.49,3.49,0,0,1-.23.76,2.85,2.85,0,0,1-.38.68,5.09,5.09,0,0,1-.54.6,6.12,6.12,0,0,1-.64.52,3.55,3.55,0,0,1-.71.38,5.37,5.37,0,0,1-.78.21A4.41,4.41,0,0,1,312,140.06Zm0-6.61a2.3,2.3,0,0,0-.55.06l-.47.14-.45.31a1.29,1.29,0,0,0-.37.38,1.24,1.24,0,0,0-.39.35,1.91,1.91,0,0,0-.23.43l-.13.45a2,2,0,0,0-.06.53,2.2,2.2,0,0,0,.06.49c0,.18.08.35.13.49l.31.43a2,2,0,0,0,.31.35,1.22,1.22,0,0,0,.37.38,2,2,0,0,0,.45.22l.47.12a2.3,2.3,0,0,0,.55.06,2.45,2.45,0,0,0,.51-.06l.51-.12.45-.32a1.47,1.47,0,0,0,.37-.38,1.44,1.44,0,0,0,.39-.36,1.76,1.76,0,0,0,.23-.42l.13-.46a2,2,0,0,0,.06-.52,2.22,2.22,0,0,0-.06-.5q-.06-.27-.13-.49l-.31-.44a2.7,2.7,0,0,0-.31-.36,1.27,1.27,0,0,0-.37-.36,2,2,0,0,0-.45-.22l-.47-.14A2.29,2.29,0,0,0,312,133.45Z"/><path class="cls-6" d="M1,63H13v8H1ZM3,75V71H7.67Z"/><path class="cls-4" d="M75.86,63a6.19,6.19,0,0,1,3.26,3.26,6,6,0,0,1,0,4.71,6.19,6.19,0,0,1-3.26,3.26,6,6,0,0,1-4.71,0,6.19,6.19,0,0,1-3.26-3.26,6,6,0,0,1,0-4.71A6.19,6.19,0,0,1,71.15,63,6,6,0,0,1,75.86,63Zm-.69,3.43a1.13,1.13,0,0,0-.37.89,1.23,1.23,0,0,0,.34.85,1.14,1.14,0,0,0,.88.37,1.21,1.21,0,0,0,.86-.34,1.15,1.15,0,0,0,.36-.88,1.23,1.23,0,0,0-.33-.86A1.14,1.14,0,0,0,76,66,1.23,1.23,0,0,0,75.16,66.38Zm-5.11,0a1.13,1.13,0,0,0-.37.89,1.09,1.09,0,0,0,.41.88,1.38,1.38,0,0,0,.9.34,1.23,1.23,0,0,0,.85-.34,1.14,1.14,0,0,0,.37-.88,1.22,1.22,0,0,0-.34-.86A1.15,1.15,0,0,0,71,66,1.36,1.36,0,0,0,70.05,66.38Zm5.21,5.9a4.34,4.34,0,0,0,1.29-.71,3.5,3.5,0,0,0,.86-1,2.4,2.4,0,0,0,.32-1.18H69.6a2.44,2.44,0,0,0,.31,1.18,3.36,3.36,0,0,0,.86,1,4.44,4.44,0,0,0,1.29.71,4.89,4.89,0,0,0,3.19,0ZM28.16,63l-2.76,2.4a.22.22,0,0,1-.06.14l-.12.14-.14.13L25,66H22.82a.54.54,0,0,0-.27.08.81.81,0,0,0-.26.27.47.47,0,0,0-.21.2.72.72,0,0,0-.07.34v3.2a.57.57,0,0,0,.07.27,1.15,1.15,0,0,0,.21.27.4.4,0,0,0,.19.19.74.74,0,0,0,.33.07H25a.17.17,0,0,0,.09.13.17.17,0,0,1,.09.13.2.2,0,0,0,.06.13l.13.13,2.76,2.49a1,1,0,0,0,.39.27.45.45,0,0,0,.32,0,.42.42,0,0,0,.2-.26,1.47,1.47,0,0,0,.06-.47v-10a1.48,1.48,0,0,0-.06-.47.42.42,0,0,0-.2-.26.45.45,0,0,0-.32,0,1,1,0,0,0-.39.27Zm2.67,2.84a.29.29,0,0,0-.16.14.47.47,0,0,0,0,.14.45.45,0,0,0-.07.2.21.21,0,0,0,.07.15l.25.49a1.11,1.11,0,0,1,.11.5c0,.18.09.35.13.53a2.54,2.54,0,0,1,.06.53,2.68,2.68,0,0,1-.06.54q-.06.27-.12.53a2.08,2.08,0,0,1-.19.49c-.08.15-.17.32-.25.5V71a.22.22,0,0,0,.06.14l.13.13h.17a.28.28,0,0,0,.14,0,.37.37,0,0,0,.25-.13.09.09,0,0,0,.06-.09,5.83,5.83,0,0,0,.34-.62,2.86,2.86,0,0,0,.2-.62c0-.18.09-.39.12-.6a3.88,3.88,0,0,0,.06-.65,3.55,3.55,0,0,0-.06-.59q-.06-.33-.12-.66a3.63,3.63,0,0,0-.2-.65,2.45,2.45,0,0,0-.34-.58l-.12-.12a.23.23,0,0,0-.14-.06H31a.33.33,0,0,0-.13.07Zm2.31-.71a.15.15,0,0,0-.1-.16.44.44,0,0,1-.17-.1.3.3,0,0,0-.15,0,1.24,1.24,0,0,1-.33.45.22.22,0,0,0-.06.14s0,.11,0,.18a.22.22,0,0,0,.08.17,4.38,4.38,0,0,1,.35.68q.14.35.28.75t.13.76a4.94,4.94,0,0,1,.06.76q0,.39,0,.75a2.69,2.69,0,0,1-.16.75c-.09.27-.19.52-.28.75a4.29,4.29,0,0,1-.35.68.27.27,0,0,0-.08.18c0,.07,0,.13,0,.17a.22.22,0,0,0,.06.14l.13.14h.16a.24.24,0,0,0,.14,0,.24.24,0,0,1,.14,0,.27.27,0,0,1,.11-.09.09.09,0,0,0,.06-.09,3.4,3.4,0,0,0,.43-.81q.15-.42.29-.88a6.73,6.73,0,0,0,.26-1.78,6.1,6.1,0,0,0-.07-.93,6,6,0,0,0-.19-.86q-.13-.48-.29-.88a3.77,3.77,0,0,0-.43-.82Zm1.34-2a.14.14,0,0,0-.08-.1q-.08,0-.08,0H34.1a.33.33,0,0,0-.15.07l-.12.14a.22.22,0,0,0-.06.14,1.33,1.33,0,0,0,0,.17.3.3,0,0,0,.08.18,10.06,10.06,0,0,1,.6,1.13,11.15,11.15,0,0,1,.46,1.2,5.86,5.86,0,0,1,.28,1.25,10.19,10.19,0,0,1,0,2.49,5.86,5.86,0,0,1-.28,1.25,12.09,12.09,0,0,1-.46,1.19,8.93,8.93,0,0,1-.6,1.12.3.3,0,0,0-.08.18,1.56,1.56,0,0,0,0,.18.2.2,0,0,0,.06.13l.13.13a.1.1,0,0,0,.08.1h.1a.31.31,0,0,1,.18-.1l.08-.1.08-.09a7.49,7.49,0,0,0,.68-1.25q.28-.65.49-1.32a7.88,7.88,0,0,0,.27-1.39A13.29,13.29,0,0,0,36,68.57a12.46,12.46,0,0,0-.08-1.41,8.08,8.08,0,0,0-.27-1.35q-.21-.67-.49-1.32a8,8,0,0,0-.68-1.27h0ZM52,72.08H50.69l-1.31-1.31V69.46l1.31-1.31H52v3.94Zm-14-3A1.45,1.45,0,0,1,38.51,68a1.68,1.68,0,0,1,1.16-.46H47a1.68,1.68,0,0,1,1.16.46,1.45,1.45,0,0,1,.51,1.11v3.24a1.5,1.5,0,0,1-.47,1.11,1.64,1.64,0,0,1-1.2.46H39.67a1.68,1.68,0,0,1-1.16-.46A1.45,1.45,0,0,1,38,72.35ZM44,65a1.85,1.85,0,0,1,.57-1.36,2.09,2.09,0,0,1,2.86,0,1.88,1.88,0,0,1,0,2.72,2.09,2.09,0,0,1-2.86,0A1.84,1.84,0,0,1,44,65ZM38.7,65a1.83,1.83,0,0,1,.58-1.36,2.1,2.1,0,0,1,2.87,0,1.88,1.88,0,0,1,0,2.72,2.1,2.1,0,0,1-2.87,0A1.84,1.84,0,0,1,38.7,65Z"/><path class="cls-4" d="M65.65,64.63H52.22a.28.28,0,0,0-.14.08.23.23,0,0,0-.08.13A1,1,0,0,0,52,65v8.62a1.31,1.31,0,0,0,0,.14.24.24,0,0,0,.08.14.33.33,0,0,0,.14.07H65.78a.33.33,0,0,0,.14-.07.23.23,0,0,0,.08-.14s0-.09,0-.14v-8.7a1,1,0,0,0,0-.14.24.24,0,0,0-.08-.14.33.33,0,0,0-.14-.07h-.13v.08ZM56.49,63h-2.7a.24.24,0,0,0-.14,0,.23.23,0,0,1-.13,0,.22.22,0,0,0-.08.13.73.73,0,0,0,0,.14v.9h3.33V63.12a.29.29,0,0,0-.13-.08h-.13ZM59,73.09a3.71,3.71,0,0,1-.75-.07,4.47,4.47,0,0,1-.68-.2,3,3,0,0,1-.62-.34,5.49,5.49,0,0,1-.56-.47,4.46,4.46,0,0,1-.47-.55,2.62,2.62,0,0,1-.33-.62,3.29,3.29,0,0,1-.2-.69,4.22,4.22,0,0,1-.06-.74,3,3,0,0,1,.08-.67,2.38,2.38,0,0,1,.27-.67,3.47,3.47,0,0,1,.32-.61l.39-.56a5.47,5.47,0,0,1,.56-.47,2.62,2.62,0,0,1,.62-.33,3.3,3.3,0,0,1,.68-.2,4.15,4.15,0,0,1,.75-.07,4.72,4.72,0,0,1,.75.06l.68.11a3,3,0,0,1,.62.34,5.58,5.58,0,0,1,.56.47,4.61,4.61,0,0,1,.47.55,2.62,2.62,0,0,1,.33.62,3.35,3.35,0,0,1,.2.69,4.28,4.28,0,0,1,.06.76,4.22,4.22,0,0,1-.06.74,3.35,3.35,0,0,1-.2.69,2.62,2.62,0,0,1-.33.62,4.61,4.61,0,0,1-.47.55,5.47,5.47,0,0,1-.56.47,3,3,0,0,1-.62.34,4.58,4.58,0,0,1-.68.2,3.71,3.71,0,0,1-.75.07Zm0-6a1.92,1.92,0,0,0-.48.06l-.41.13-.39.28a1.15,1.15,0,0,0-.32.35,1.08,1.08,0,0,0-.34.32,1.75,1.75,0,0,0-.2.39l-.11.41a1.92,1.92,0,0,0-.06.48,2.06,2.06,0,0,0,.06.45c0,.17.08.32.11.45l.27.39a1.76,1.76,0,0,0,.27.32,1.08,1.08,0,0,0,.32.34,1.75,1.75,0,0,0,.39.2l.41.11a1.92,1.92,0,0,0,.48.06,2.06,2.06,0,0,0,.45-.06l.45-.11.39-.29a1.32,1.32,0,0,0,.32-.34,1.3,1.3,0,0,0,.34-.33,1.61,1.61,0,0,0,.2-.39l.11-.42a1.87,1.87,0,0,0,.06-.48,2.05,2.05,0,0,0-.06-.46c0-.16-.08-.31-.11-.44l-.27-.4a2.47,2.47,0,0,0-.27-.33,1.14,1.14,0,0,0-.32-.33,1.75,1.75,0,0,0-.39-.2l-.41-.13A1.92,1.92,0,0,0,59,67.06Z"/><path class="cls-2" d="M82,71H80v5h5V74H82Zm-2-4h2V64h3V62H80Zm9-5v2h3v3h2V62Zm3,12H89v2h5V71H92Z"/><path class="cls-4" d="M109,74.17V68.3h2.54v5.87H109Zm3.53-5.87a3.8,3.8,0,0,0,2.05-1.66,2.11,2.11,0,0,0,.12-.84c0-.35,0-.7-.08-1s-.11-.77-.2-1.27a1,1,0,0,1,1-.49,1.41,1.41,0,0,1,1,.58,1.76,1.76,0,0,1,.39,1.07,1.88,1.88,0,0,1-.05.66,1,1,0,0,0-.12.41,7.12,7.12,0,0,0-.08,1h3.7A2.27,2.27,0,0,1,121,68a1.57,1.57,0,0,1-.17,1.06,1,1,0,0,0-.24.43.62.62,0,0,0,.12.32.77.77,0,0,1,.12.43.94.94,0,0,1-.24.72.61.61,0,0,0-.24.36.31.31,0,0,0,.09.32.79.79,0,0,1,.15.5.73.73,0,0,1-.36.69c-.24.13-.34.26-.3.38a.54.54,0,0,0,.12.23.62.62,0,0,1,.05.35,1.74,1.74,0,0,1-.91,1.24h-4.84a1.88,1.88,0,0,1-.74-.83h-1.07V68.3Z"/><path class="cls-6" d="M95,74.17h2.55V68.3H95v5.87Zm3.2-5.87a3.79,3.79,0,0,0,2.29-1.66,2.44,2.44,0,0,0,.14-.84c0-.35,0-.7,0-1s-.06-.77-.12-1.27a1,1,0,0,1,1-.49,1.43,1.43,0,0,1,1,.55,1.71,1.71,0,0,1,.39,1.11,1.88,1.88,0,0,1-.05.66,1,1,0,0,0-.12.41,6.83,6.83,0,0,0-.08,1h3.6A2.25,2.25,0,0,1,107,68a1.45,1.45,0,0,1-.17,1,.8.8,0,0,0-.24.46.62.62,0,0,0,.12.32.78.78,0,0,1,.12.43,1,1,0,0,1-.22.72,1.3,1.3,0,0,0-.27.36.31.31,0,0,0,.09.32.79.79,0,0,1,.15.5.75.75,0,0,1-.33.69.54.54,0,0,0-.33.38.49.49,0,0,0,.1.23.61.61,0,0,1,.05.35,1.7,1.7,0,0,1-.9,1.24h-4.84a2,2,0,0,1-.73-.83H98.21V68.3Z"/><path class="cls-11" d="M48,0H60V12H48Zm9.72,5.62H54.37V2.26h-.74V5.63H50.26v.74h3.37V9.74h.74V6.37h3.37V5.63ZM60,0H72V12H60Zm9.72,5.62H62.26v.74h7.47V5.63Z"/><polygon class="cls-21" points="5.73 8.9 6.27 8.9 6.27 8.37 6.8 8.37 6.8 7.83 7.33 7.83 7.33 7.3 7.87 7.3 7.87 6.77 8.4 6.77 8.4 6.23 8.93 6.23 8.93 5.7 9.47 5.7 9.47 5.17 10 5.17 10 4.1 9.47 4.1 9.47 4.63 8.93 4.63 8.93 5.17 8.4 5.17 8.4 5.7 7.87 5.7 7.87 6.23 7.33 6.23 7.33 6.77 6.8 6.77 6.8 7.3 6.27 7.3 6.27 7.83 5.73 7.83 5.73 7.3 5.2 7.3 5.2 6.77 4.67 6.77 4.67 6.23 4.13 6.23 4.13 5.7 3.6 5.7 3.6 5.17 3.07 5.17 3.07 4.63 2.53 4.63 2.53 4.1 2 4.1 2 5.17 2.53 5.17 2.53 5.7 3.07 5.7 3.07 6.23 3.6 6.23 3.6 6.77 4.13 6.77 4.13 7.3 4.67 7.3 4.67 7.83 5.2 7.83 5.2 8.37 5.73 8.37 5.73 8.9"/><polygon class="cls-21" points="17.73 4 18.27 4 18.27 4.55 18.8 4.55 18.8 5.11 19.33 5.11 19.33 5.67 19.87 5.67 19.87 6.22 20.4 6.22 20.4 6.78 20.93 6.78 20.93 7.33 21.47 7.33 21.47 7.89 22 7.89 22 9 21.47 9 21.47 8.44 20.93 8.44 20.93 7.89 20.4 7.89 20.4 7.33 19.87 7.33 19.87 6.78 19.33 6.78 19.33 6.22 18.8 6.22 18.8 5.67 18.27 5.67 18.27 5.11 17.73 5.11 17.73 5.67 17.2 5.67 17.2 6.22 16.67 6.22 16.67 6.78 16.13 6.78 16.13 7.33 15.6 7.33 15.6 7.89 15.07 7.89 15.07 8.44 14.53 8.44 14.53 9 14 9 14 7.89 14.53 7.89 14.53 7.33 15.07 7.33 15.07 6.78 15.6 6.78 15.6 6.22 16.13 6.22 16.13 5.67 16.67 5.67 16.67 5.11 17.2 5.11 17.2 4.55 17.73 4.55 17.73 4"/><polygon class="cls-21" points="27.1 5.73 27.1 6.27 27.63 6.27 27.63 6.8 28.17 6.8 28.17 7.33 28.7 7.33 28.7 7.87 29.23 7.87 29.23 8.4 29.77 8.4 29.77 8.93 30.3 8.93 30.3 9.47 30.83 9.47 30.83 10 31.9 10 31.9 9.47 31.37 9.47 31.37 8.93 30.83 8.93 30.83 8.4 30.3 8.4 30.3 7.87 29.77 7.87 29.77 7.33 29.23 7.33 29.23 6.8 28.7 6.8 28.7 6.27 28.17 6.27 28.17 5.73 28.7 5.73 28.7 5.2 29.23 5.2 29.23 4.67 29.77 4.67 29.77 4.13 30.3 4.13 30.3 3.6 30.83 3.6 30.83 3.07 31.37 3.07 31.37 2.53 31.9 2.53 31.9 2 30.83 2 30.83 2.53 30.3 2.53 30.3 3.07 29.77 3.07 29.77 3.6 29.23 3.6 29.23 4.13 28.7 4.13 28.7 4.67 28.17 4.67 28.17 5.2 27.63 5.2 27.63 5.73 27.1 5.73"/><polygon class="cls-21" points="45 5.73 45 6.27 44.45 6.27 44.45 6.8 43.89 6.8 43.89 7.33 43.33 7.33 43.33 7.87 42.78 7.87 42.78 8.4 42.22 8.4 42.22 8.93 41.67 8.93 41.67 9.47 41.11 9.47 41.11 10 40 10 40 9.47 40.56 9.47 40.56 8.93 41.11 8.93 41.11 8.4 41.67 8.4 41.67 7.87 42.22 7.87 42.22 7.33 42.78 7.33 42.78 6.8 43.34 6.8 43.34 6.27 43.89 6.27 43.89 5.73 43.33 5.73 43.33 5.2 42.78 5.2 42.78 4.67 42.22 4.67 42.22 4.13 41.67 4.13 41.67 3.6 41.11 3.6 41.11 3.07 40.56 3.07 40.56 2.53 40 2.53 40 2 41.11 2 41.11 2.53 41.67 2.53 41.67 3.07 42.22 3.07 42.22 3.6 42.78 3.6 42.78 4.13 43.34 4.13 43.34 4.67 43.89 4.67 43.89 5.2 44.45 5.2 44.45 5.73 45 5.73"/><path class="cls-25" d="M63,350.47a15,15,0,1,1-4.06-10.74A15,15,0,0,1,63,350.47ZM40.31,352.7a.46.46,0,0,0-.43.63,8.52,8.52,0,0,0,8.08,5.5,8.66,8.66,0,0,0,8.15-5.54.46.46,0,0,0-.43-.63A39.46,39.46,0,0,1,40.31,352.7Zm0,0a.46.46,0,0,0-.43.63,8.52,8.52,0,0,0,8.08,5.5,8.66,8.66,0,0,0,8.15-5.54.46.46,0,0,0-.43-.63A39.46,39.46,0,0,1,40.31,352.7Z"/><path class="cls-26" d="M57.69,344.68a2,2,0,0,0-2.55-.32,2,2,0,0,0-1.92-1.71,2.09,2.09,0,0,0-2.09,2.3,15.93,15.93,0,0,0,1.21,4.22.81.81,0,0,0,1,.47,16,16,0,0,0,4-1.87,2.09,2.09,0,0,0,.35-3.09Zm-19.33,0a2,2,0,0,1,2.55-.32,2,2,0,0,1,1.92-1.71,2.09,2.09,0,0,1,2.09,2.3,16,16,0,0,1-1.21,4.22.81.81,0,0,1-1,.47,16,16,0,0,1-4-1.87,2.09,2.09,0,0,1-.35-3.09Z"/><path class="cls-27" d="M40.31,352.7a.46.46,0,0,0-.43.63,8.52,8.52,0,0,0,8.08,5.5,8.66,8.66,0,0,0,8.15-5.54.46.46,0,0,0-.43-.63A39.46,39.46,0,0,1,40.31,352.7Z"/><path class="cls-26" d="M48,358.83a8.36,8.36,0,0,1-5-1.53,7.29,7.29,0,0,1,5.1-1.69,7.42,7.42,0,0,1,5,1.61A8.38,8.38,0,0,1,48,358.83Z"/><path class="cls-28" d="M95,350a15,15,0,1,1-15-15A15,15,0,0,1,95,350Z"/><path class="cls-27" d="M73.7,350.31a1.56,1.56,0,0,1-1.56-1.56v-.62a1.56,1.56,0,1,1,3.12,0v.62A1.57,1.57,0,0,1,73.7,350.31Zm12.82,0A1.57,1.57,0,0,1,85,348.74v-.62a1.56,1.56,0,1,1,3.12,0v.62a1.57,1.57,0,0,1-1.56,1.56Zm-3.47,5.77A3.06,3.06,0,1,1,80,352.74a3.2,3.2,0,0,1,3.05,3.33Z"/><path class="cls-29" d="M74,342a2.94,2.94,0,0,0-3,3m15-3a3,3,0,0,1,3,3"/><path class="cls-28" d="M127,350a15,15,0,1,1-15-15A15,15,0,0,1,127,350Z"/><path class="cls-29" d="M106,342a2.95,2.95,0,0,0-3,3m15-3s3,.09,3,3"/><path class="cls-27" d="M105.7,349.19c-1,0-1.79.67-1.79-.32v-.72a1.79,1.79,0,1,1,3.58,0v.72C107.49,349.85,106.68,349.17,105.7,349.19Zm12.66,0c-1,0-1.79.67-1.79-.32v-.72a1.79,1.79,0,0,1,3.58,0v.72c0,1-.81.3-1.79.32Zm1,10a.44.44,0,0,0,.41-.6,8.1,8.1,0,0,0-7.68-5.23,8.23,8.23,0,0,0-7.75,5.27.43.43,0,0,0,0,.41.44.44,0,0,0,.36.19A18.41,18.41,0,0,1,119.31,359.19Z"/><path class="cls-30" d="M159,350a15,15,0,1,1-15-15A15,15,0,0,1,159,350Z"/><path class="cls-29" d="M137,343l4,3m10-3-4,3m-7,11s0-4,4-4,4,4,4,4"/><path class="cls-27" d="M139,350.31a1.56,1.56,0,0,1-1.56-1.56v-.62a1.56,1.56,0,0,1,3.13,0v.63A1.57,1.57,0,0,1,139,350.31Zm10,0a1.57,1.57,0,0,1-1.56-1.56v-.62a1.56,1.56,0,1,1,3.12,0v.63A1.57,1.57,0,0,1,149,350.31Z"/><path class="cls-31" d="M16,334a16,16,0,1,0,16,16A16,16,0,0,0,16,334Zm-2.26,23.54L6.2,350l3-3,4.52,4.52,9.05-9,3,3Z"/><path class="cls-4" d="M176,360.15a1.43,1.43,0,0,1-1-2.46,1.47,1.47,0,0,1,2.06,0,1.44,1.44,0,0,1-1,2.46Zm5.07-3.91a.57.57,0,0,1-.41.17h-9.33a.56.56,0,0,1-.41-.17.55.55,0,0,1-.17-.41V343.17a.55.55,0,0,1,.17-.41.56.56,0,0,1,.41-.17h9.33a.57.57,0,0,1,.41.17.55.55,0,0,1,.17.41v12.66a.55.55,0,0,1-.17.41Zm-3.62-15.36h-2.91a.29.29,0,1,1,0-.58h2.92a.29.29,0,1,1,0,.58Zm4.85-2.19a2.26,2.26,0,0,0-1.64-.68h-9.33a2.26,2.26,0,0,0-1.64.68,2.2,2.2,0,0,0-.69,1.62v18.41a2.2,2.2,0,0,0,.69,1.62,2.26,2.26,0,0,0,1.64.68h9.33a2.26,2.26,0,0,0,1.64-.68,2.2,2.2,0,0,0,.69-1.62V340.3a2.2,2.2,0,0,0-.69-1.62ZM208,350.07a1.23,1.23,0,0,0-.91.38,1.28,1.28,0,0,0-.37.93.43.43,0,0,1-.12.31.45.45,0,0,1-.62,0,.43.43,0,0,1-.12-.31,2.13,2.13,0,0,1,.63-1.55,2,2,0,0,1,1.51-.64.41.41,0,0,1,.31.12.47.47,0,0,1,0,.63A.41.41,0,0,1,208,350.07Zm0-2.16a3.26,3.26,0,0,0-2.42,1,3.56,3.56,0,0,0,0,5,3.37,3.37,0,0,0,4.84,0,3.55,3.55,0,0,0,0-5A3.27,3.27,0,0,0,208,347.91Zm-10.28,9.6h20.55v1.75H197.73v-1.75Zm10.28-.85a4.9,4.9,0,0,1-3.63-1.54,5.33,5.33,0,0,1,0-7.43,5.06,5.06,0,0,1,7.27,0,5.33,5.33,0,0,1,0,7.43A4.9,4.9,0,0,1,208,356.66Zm-8.56-15.78h5.14v1.75h-5.14Zm-1.71,2.63h8.62l.86-1.75h11.08v3.5H197.73V343.5Zm21.76-3a1.63,1.63,0,0,0-1.21-.51H197.73a1.63,1.63,0,0,0-1.21.51,1.7,1.7,0,0,0-.5,1.24v17.51a1.7,1.7,0,0,0,.5,1.24,1.63,1.63,0,0,0,1.21.51h20.55a1.63,1.63,0,0,0,1.21-.51,1.7,1.7,0,0,0,.5-1.24V341.75a1.69,1.69,0,0,0-.5-1.24Zm28.21,15.22a2.2,2.2,0,0,0,1.62-.68,2.25,2.25,0,0,0,.67-1.64V343.2a2.25,2.25,0,0,0-.67-1.64,2.2,2.2,0,0,0-1.62-.68H232.1a2.2,2.2,0,0,0-1.62.68,2.25,2.25,0,0,0-.67,1.64v10.21a2.25,2.25,0,0,0,.67,1.64,2.2,2.2,0,0,0,1.62.68h15.6Zm-15.93-12.86a.44.44,0,0,1,.32-.14H247.7a.44.44,0,0,1,.32.14.45.45,0,0,1,.14.33v10.21a.45.45,0,0,1-.14.33.44.44,0,0,1-.32.14H232.1a.44.44,0,0,1-.32-.14.45.45,0,0,1-.14-.33V343.2a.45.45,0,0,1,.13-.32Zm-3.35,13.79h-2.3v1.39a1.16,1.16,0,0,0,.67,1,3.08,3.08,0,0,0,1.62.41h23A3.08,3.08,0,0,0,253,359a1.16,1.16,0,0,0,.68-1v-1.39H228.42Zm10.33,1.39a.23.23,0,1,1,0-.46H241a.23.23,0,1,1,0,.46ZM299.87,350l1.35,2.42h-9A13.48,13.48,0,0,1,292,350a11.75,11.75,0,0,1,3.15-8.11Zm-7.31,3.61h11.58l-4.38,7.6a11.56,11.56,0,0,1-4.47-3A12,12,0,0,1,292.56,353.61Zm8.32-5.41-.06.11-4.38-7.6A11.46,11.46,0,0,1,304,338a13,13,0,0,1,2.64.28Zm5.17,5.41,1.12-1.91,4.38,7.6A11.67,11.67,0,0,1,304,362a12.69,12.69,0,0,1-2.59-.28Zm9.39-7.21H303.86l4.38-7.6a11.59,11.59,0,0,1,4.47,3,12,12,0,0,1,2.73,4.64Zm.28,1.18A11,11,0,0,1,316,350a11.49,11.49,0,0,1-3.2,8.11l-5.68-9.91-.34-.62h8.93Zm22,2.92h-3.38a.8.8,0,0,1-.59-.26.88.88,0,0,1,0-1.23.8.8,0,0,1,.59-.26h3.38a.8.8,0,0,1,.59.26.88.88,0,0,1,0,1.23A.8.8,0,0,1,337.69,350.51Zm8.2-4.12a.8.8,0,0,0-.59-.26H326.7a.8.8,0,0,0-.6.26.86.86,0,0,0-.25.61v13.13a.86.86,0,0,0,.25.61.8.8,0,0,0,.6.26h18.6a.8.8,0,0,0,.59-.26.86.86,0,0,0,.25-.61V347A.86.86,0,0,0,345.89,346.39Zm.84-6.13a.8.8,0,0,0-.59-.26H325.86a.8.8,0,0,0-.59.26.86.86,0,0,0-.25.61v3.5a.86.86,0,0,0,.25.62.8.8,0,0,0,.59.26h20.28a.8.8,0,0,0,.59-.26.86.86,0,0,0,.25-.62v-3.5A.86.86,0,0,0,346.73,340.26ZM273.26,347a3,3,0,0,0-5.12,2.12.86.86,0,0,1-1.71,0,4.72,4.72,0,1,1,9.43,0,.86.86,0,0,1-1.72,0A2.88,2.88,0,0,0,273.26,347Zm3.38-3.33a7.75,7.75,0,0,1,1.65,2.46,7.55,7.55,0,0,1,.61,3,6.39,6.39,0,0,1-.15,1.45,4.43,4.43,0,0,1-.5,1.25,9.74,9.74,0,0,1-.59.9q-.24.31-.71.86t-.61.72c-.13.17-.28.39-.45.67a2.81,2.81,0,0,0-.36.86,4.47,4.47,0,0,0-.1,1,5.14,5.14,0,0,1-5.14,5.14.86.86,0,1,1,0-1.71,3.43,3.43,0,0,0,3.43-3.43,6.11,6.11,0,0,1,.15-1.41,4.27,4.27,0,0,1,.5-1.22q.34-.57.58-.89t.7-.84c.36-.41.62-.73.8-1a4,4,0,0,0,.5-1,4,4,0,0,0,.24-1.39,6,6,0,0,0-12,0,.86.86,0,0,1-1.71,0,7.53,7.53,0,0,1,.61-3,7.71,7.71,0,0,1,10.1-4.11A7.78,7.78,0,0,1,276.64,343.69Zm-16.49,15.13a.55.55,0,0,0,0,.78l2.25,2.25a.55.55,0,0,0,.78,0l7.76-7.76-3-3Zm21-20.81a.58.58,0,0,0-.4.16L278,340.94l-1.22,1.22a9,9,0,0,1,2.61,3.46l1-1,.35-.33,3.12-3.12a.58.58,0,0,0,.16-.4.53.53,0,0,0-.16-.39l-2.25-2.25A.53.53,0,0,0,281.21,338Z"/><path class="cls-4" d="M368,360.15a1.43,1.43,0,0,1-1-2.46,1.47,1.47,0,0,1,2.06,0,1.44,1.44,0,0,1-1,2.46Zm5.07-3.91a.57.57,0,0,1-.41.17h-9.33a.56.56,0,0,1-.41-.17.55.55,0,0,1-.17-.41V343.17a.55.55,0,0,1,.17-.41.56.56,0,0,1,.41-.17h9.33a.57.57,0,0,1,.41.17.55.55,0,0,1,.17.41v12.66a.55.55,0,0,1-.17.41Zm-3.62-15.36h-2.92a.29.29,0,1,1,0-.58h2.92a.29.29,0,1,1,0,.58Zm4.85-2.19a2.26,2.26,0,0,0-1.64-.68h-9.33a2.26,2.26,0,0,0-1.64.68,2.2,2.2,0,0,0-.69,1.62v18.41a2.2,2.2,0,0,0,.69,1.62,2.26,2.26,0,0,0,1.64.68h9.33a2.26,2.26,0,0,0,1.64-.68,2.2,2.2,0,0,0,.69-1.62V340.3a2.2,2.2,0,0,0-.69-1.62ZM400,350.07a1.23,1.23,0,0,0-.91.38,1.28,1.28,0,0,0-.37.93.43.43,0,0,1-.12.31.45.45,0,0,1-.62,0,.43.43,0,0,1-.12-.31,2.13,2.13,0,0,1,.63-1.55,2,2,0,0,1,1.51-.64.41.41,0,0,1,.31.12.47.47,0,0,1,0,.63A.41.41,0,0,1,400,350.07Zm0-2.16a3.26,3.26,0,0,0-2.42,1,3.56,3.56,0,0,0,0,5,3.37,3.37,0,0,0,4.84,0,3.56,3.56,0,0,0,0-5A3.26,3.26,0,0,0,400,347.91Zm-10.28,9.6h20.55v1.75H389.73v-1.75Zm10.28-.85a4.9,4.9,0,0,1-3.63-1.54,5.33,5.33,0,0,1,0-7.43,5.06,5.06,0,0,1,7.27,0,5.33,5.33,0,0,1,0,7.43A4.9,4.9,0,0,1,400,356.66Zm-8.56-15.78h5.14v1.75h-5.14Zm-1.71,2.63h8.62l.86-1.75h11.08v3.5H389.73V343.5Zm21.76-3a1.63,1.63,0,0,0-1.21-.51H389.73a1.63,1.63,0,0,0-1.21.51,1.7,1.7,0,0,0-.5,1.24v17.51a1.7,1.7,0,0,0,.5,1.24,1.63,1.63,0,0,0,1.21.51h20.55a1.63,1.63,0,0,0,1.21-.51,1.7,1.7,0,0,0,.5-1.24V341.75a1.69,1.69,0,0,0-.5-1.24Zm28.21,15.22a2.2,2.2,0,0,0,1.62-.68,2.25,2.25,0,0,0,.67-1.64V343.2a2.25,2.25,0,0,0-.67-1.64,2.2,2.2,0,0,0-1.62-.68H424.1a2.2,2.2,0,0,0-1.62.68,2.25,2.25,0,0,0-.67,1.64v10.21a2.25,2.25,0,0,0,.67,1.64,2.2,2.2,0,0,0,1.62.68h15.6Zm-15.93-12.86a.44.44,0,0,1,.32-.14H439.7a.44.44,0,0,1,.32.14.45.45,0,0,1,.14.33v10.21a.45.45,0,0,1-.14.33.44.44,0,0,1-.32.14H424.1a.44.44,0,0,1-.32-.14.45.45,0,0,1-.14-.33V343.2a.45.45,0,0,1,.13-.32Zm-3.35,13.79h-2.3v1.39a1.16,1.16,0,0,0,.67,1,3.08,3.08,0,0,0,1.62.41h23A3.08,3.08,0,0,0,445,359a1.16,1.16,0,0,0,.68-1v-1.39H420.42Zm10.33,1.39a.23.23,0,1,1,0-.46H433a.23.23,0,1,1,0,.46ZM491.87,350l1.35,2.42h-9A13.48,13.48,0,0,1,484,350a11.75,11.75,0,0,1,3.15-8.11Zm-7.31,3.61h11.58l-4.38,7.6a11.56,11.56,0,0,1-4.47-3A12,12,0,0,1,484.56,353.61Zm8.32-5.41-.06.11-4.38-7.6A11.46,11.46,0,0,1,496,338a13,13,0,0,1,2.64.28Zm5.17,5.41,1.12-1.91,4.38,7.6A11.67,11.67,0,0,1,496,362a12.69,12.69,0,0,1-2.59-.28Zm9.39-7.21H495.86l4.38-7.6a11.59,11.59,0,0,1,4.47,3,12,12,0,0,1,2.73,4.64Zm.28,1.18A11,11,0,0,1,508,350a11.49,11.49,0,0,1-3.2,8.11l-5.68-9.91-.34-.62h8.93Zm22,2.92h-3.38a.8.8,0,0,1-.59-.26.88.88,0,0,1,0-1.23.8.8,0,0,1,.59-.26h3.38a.8.8,0,0,1,.59.26.88.88,0,0,1,0,1.23A.8.8,0,0,1,529.69,350.51Zm8.2-4.12a.8.8,0,0,0-.59-.26H518.7a.8.8,0,0,0-.59.26.86.86,0,0,0-.25.61v13.13a.86.86,0,0,0,.25.61.8.8,0,0,0,.59.26h18.59a.8.8,0,0,0,.59-.26.86.86,0,0,0,.25-.61V347A.86.86,0,0,0,537.89,346.39Zm.84-6.13a.8.8,0,0,0-.59-.26H517.86a.8.8,0,0,0-.59.26.86.86,0,0,0-.25.61v3.5a.86.86,0,0,0,.25.62.8.8,0,0,0,.59.26h20.28a.8.8,0,0,0,.59-.26.86.86,0,0,0,.25-.62v-3.5A.86.86,0,0,0,538.73,340.26ZM465.26,347a3,3,0,0,0-5.12,2.12.86.86,0,0,1-1.71,0,4.72,4.72,0,1,1,9.43,0,.86.86,0,0,1-1.72,0A2.88,2.88,0,0,0,465.26,347Zm3.38-3.33a7.75,7.75,0,0,1,1.65,2.46,7.55,7.55,0,0,1,.61,3,6.39,6.39,0,0,1-.15,1.45,4.43,4.43,0,0,1-.5,1.25,9.74,9.74,0,0,1-.59.9q-.24.31-.71.86t-.61.72c-.13.17-.28.39-.45.67a2.87,2.87,0,0,0-.36.86,4.47,4.47,0,0,0-.1,1,5.14,5.14,0,0,1-5.14,5.14.86.86,0,1,1,0-1.71,3.43,3.43,0,0,0,3.43-3.43,6.11,6.11,0,0,1,.15-1.41,4.27,4.27,0,0,1,.5-1.22q.34-.57.58-.89t.7-.84c.36-.41.62-.73.8-1a4,4,0,0,0,.5-1,4,4,0,0,0,.24-1.39,6,6,0,0,0-12,0,.86.86,0,0,1-1.71,0,7.53,7.53,0,0,1,.61-3,7.71,7.71,0,0,1,10.1-4.11A7.78,7.78,0,0,1,468.64,343.69Zm-16.49,15.13a.55.55,0,0,0,0,.78l2.25,2.25a.55.55,0,0,0,.78,0l7.76-7.76-3-3Zm21-20.81a.58.58,0,0,0-.4.16L470,340.94l-1.22,1.22a9,9,0,0,1,2.61,3.46l1-1,.35-.33,3.12-3.12a.58.58,0,0,0,.16-.4.53.53,0,0,0-.16-.39l-2.25-2.25A.53.53,0,0,0,473.21,338Z"/><path class="cls-32" d="M39,443c-2.44-1.86-15-11-15-11s-6-5.25-6,1v27s.3,5.25,6,1c3.59-2.68,16-12,16-12S43.17,446.17,39,443Zm-5.11,4.55s-6.35,4.34-7.92,5.54c-2.72,2.08-3-.46-3-.46v-12c0-2.88,2.47-1.38,2.47-1.38s7.27,5.07,8.41,6a1.32,1.32,0,0,1,0,2.31Z"/><path class="cls-4" d="M136,67.94l-3.84,3.24L133.31,76,129,73.43,124.65,76l1.15-4.82L122,67.94l5-.42L129,63l2,4.53Zm-7,4.24,2.66,1.54-.72-2.93,2.33-2-3.05-.26L129,65.79l-1.18,2.76-3.05.26,2.3,2-.69,2.92Z"/><polygon class="cls-6" points="142.98 73.44 138.65 76 139.79 71.18 135.99 67.94 141.01 67.52 142.98 63 144.95 67.53 150 67.95 146.16 71.19 147.31 76 142.98 73.44"/><path class="cls-4" d="M576,347l-8.77,7.23L569.86,365,560,359.26,550.07,365l2.63-10.74L544,347l11.47-.93L560,336l4.5,10.1Zm-16,9.45,6.07,3.44-1.65-6.52,5.32-4.44-7-.57L560,342.22l-2.7,6.16-7,.57,5.25,4.44L554,359.91Z"/><polygon class="cls-6" points="591.96 359.29 582.07 365.01 584.69 354.27 575.99 347.04 587.46 346.11 591.96 336.01 596.46 346.11 608 347.04 599.23 354.27 601.85 365.01 591.96 359.29"/><path class="cls-21" d="M211.09,131.68a2,2,0,0,0-1.45.64,2.16,2.16,0,0,0-.48.65,1.9,1.9,0,0,0-.15.81v4.18h2.82v2.82h8.36v-2.82H223v-4.18a2.12,2.12,0,0,0-2.09-2.09h-9.82Zm.74-3.44v2.82h8.36v-2.82Zm7,11.07h-5.65v-3.44h5.65v3.45Zm1.42-5.23a.7.7,0,0,1-.07-.3.58.58,0,0,1,.07-.22l.15-.3.25-.15a.51.51,0,0,1,.27-.07.72.72,0,0,1,.29.07.78.78,0,0,1,.23.15,2.38,2.38,0,0,0,.15.27.48.48,0,0,1,.07.25.7.7,0,0,1-.07.3.8.8,0,0,1-.15.22l-.27.15a.48.48,0,0,1-.25.07.7.7,0,0,1-.3-.07.67.67,0,0,1-.37-.37Zm16.5,2.73a2.28,2.28,0,0,1,1.57.62,1.93,1.93,0,0,1,.69,1.49,2,2,0,0,1-.64,1.47,2.18,2.18,0,0,1-3,0,2,2,0,0,1-.64-1.47.51.51,0,0,1,0-.23.48.48,0,0,0,0-.21l-5.87-3.24a2,2,0,0,1-.72.64,2.06,2.06,0,0,1-1,.24,2.13,2.13,0,0,1-1.53-.62,2,2,0,0,1,0-3,2.13,2.13,0,0,1,1.53-.62,2.07,2.07,0,0,1,1,.24,2,2,0,0,1,.72.64l5.79-3.07a.81.81,0,0,1-.08-.31c0-.11,0-.22,0-.31a2,2,0,0,1,.65-1.48,2.11,2.11,0,0,1,1.52-.63,2.21,2.21,0,0,1,1.52.58,1.86,1.86,0,0,1,.65,1.44,2,2,0,0,1-.65,1.47,2.13,2.13,0,0,1-1.52.62,2,2,0,0,1-.87-.18,1.86,1.86,0,0,1-.66-.51l-6,3.07v.88l5.77,3.24a3.55,3.55,0,0,1,.76-.56A2,2,0,0,1,236.74,136.8Z"/><path class="cls-33" d="M253.76,131.09,252.7,130a.75.75,0,0,0-1.06,0l-5.12,5.13-2.3-2.3a.75.75,0,0,0-1.06,0l-1.06,1.06a.75.75,0,0,0,0,1.06l2.83,2.83,1.06,1.06a.75.75,0,0,0,1.06,0l1.06-1.06,5.66-5.66a.75.75,0,0,0,0-1.06Z"/><path class="cls-34" d="M268.85,137l-2.3-2.3,2.3-2.3a.75.75,0,0,0,0-1.06l-1.06-1.06a.75.75,0,0,0-1.06,0l-2.3,2.3-2.3-2.3a.75.75,0,0,0-1.06,0L260,131.34a.75.75,0,0,0,0,1.06l2.3,2.3L260,137a.75.75,0,0,0,0,1.06l1.06,1.06a.75.75,0,0,0,1.06,0l2.3-2.3,2.3,2.3a.75.75,0,0,0,1.06,0l1.06-1.06a.75.75,0,0,0,0-1.06Z"/><polygon class="cls-2" points="332 139.8 330.8 141 326 136.2 321.2 141 320 139.8 324.8 135 320 130.2 321.2 129 326 133.8 330.8 129 332 130.2 327.2 135 332 139.8"/><polygon class="cls-11" points="344 139.8 342.8 141 338 136.2 333.2 141 332 139.8 336.8 135 332 130.2 333.2 129 338 133.8 342.8 129 344 130.2 339.2 135 344 139.8"/><path class="cls-21" d="M894.65,195.35,897,193v7h-7l3.24-3.24a6.11,6.11,0,0,0-1.93-1.31A5.77,5.77,0,0,0,889,195a5.88,5.88,0,0,0-3,.8,6,6,0,0,0-2.19,2.19,6,6,0,0,0,0,6,6,6,0,0,0,2.19,2.19,6.09,6.09,0,0,0,6.52-.3,5.68,5.68,0,0,0,2.16-2.88h2.07a7.67,7.67,0,0,1-1.56,3.09,8.14,8.14,0,0,1-2.69,2.13,8,8,0,1,1-.39-14.63A8.06,8.06,0,0,1,894.65,195.35Z"/><path class="cls-4" d="M173.14,63.55c-2.64-1.9-5.27,1.8-7.91.51v-.27a.62.62,0,0,0-1.23,0V74.38a.62.62,0,0,0,1.23,0V69.89c2.51,1.22,5-2.06,7.52-.75a.37.37,0,0,0,.37,0,.37.37,0,0,0,.18-.32v-5a.37.37,0,0,0-.16-.3Z"/><path class="cls-6" d="M182.44,63.55c-2.64-1.9-5.27,1.8-7.91.51v-.27a.62.62,0,0,0-1.23,0V74.38a.62.62,0,0,0,1.23,0V69.89c2.51,1.22,5-2.06,7.52-.75a.37.37,0,0,0,.37,0,.37.37,0,0,0,.18-.32v-5a.38.38,0,0,0-.16-.3Z"/></svg>