<svg id="Layer_1" data-name="Layer 1" xmlns="http://www.w3.org/2000/svg" viewBox="0 0 162.82 31.06"><defs><style>.cls-1{fill:#969696;fill-rule:evenodd;}.cls-2{fill:#9f224e;}.cls-3{fill:#fff;}</style></defs><title>logo-vnexpress</title><path class="cls-1" d="M695.87,380h-6.43v3.31h6.43a1.46,1.46,0,0,0,1.06-.26,1.06,1.06,0,0,0,.26-.73V381a1.06,1.06,0,0,0-.26-.73,1.47,1.47,0,0,0-1.06-.27Zm-9.28,10.21V377.88h10.61a3.23,3.23,0,0,1,2.12.6,2.34,2.34,0,0,1,.66,1.79v2.78a2.34,2.34,0,0,1-.66,1.79,3.23,3.23,0,0,1-2.12.6h-7.76v4.77Z" transform="translate(-601.58 -368.5)"/><path class="cls-1" d="M711.66,380h-6.43v3.45h6.43a2,2,0,0,0,1.06-.2,1.12,1.12,0,0,0,.27-.8V381a1.05,1.05,0,0,0-.27-.73,1.46,1.46,0,0,0-1.06-.27Zm-9.28,10.21V377.88h10.54a3.3,3.3,0,0,1,2.18.6,2.34,2.34,0,0,1,.66,1.79v2.92a2.24,2.24,0,0,1-.66,1.79,3.31,3.31,0,0,1-2.18.6h-1.59l5.7,4.64h-4.11l-5-4.64h-2.72v4.64Z" transform="translate(-601.58 -368.5)"/><polygon class="cls-1" points="117.57 21.71 117.57 9.38 130.23 9.38 130.23 11.5 120.49 11.5 120.49 14.22 126.19 14.22 126.19 16.34 120.49 16.34 120.49 19.39 130.36 19.39 130.36 21.71 117.57 21.71 117.57 21.71"/><path class="cls-1" d="M745.41,380.07h-8.09v2.65H745a3.67,3.67,0,0,1,2.45.6,3.05,3.05,0,0,1,.66,2.32v1.66a3.05,3.05,0,0,1-.66,2.32,3.67,3.67,0,0,1-2.45.6h-7.62a3.79,3.79,0,0,1-2.45-.6,3.38,3.38,0,0,1-.6-2.32V387l2.52-.53v1.46h8.68v-2.78h-7.69a3.12,3.12,0,0,1-2.38-.66,2.87,2.87,0,0,1-.66-2.25V380.8a2.86,2.86,0,0,1,.66-2.25,3.11,3.11,0,0,1,2.38-.66h7a3.46,3.46,0,0,1,2.39.6,2.73,2.73,0,0,1,.66,2.12v.27l-2.52.6v-1.39Z" transform="translate(-601.58 -368.5)"/><path class="cls-1" d="M761.75,380.07h-8.08v2.65h7.69a3.78,3.78,0,0,1,2.45.6,3.37,3.37,0,0,1,.6,2.32v1.66a3.37,3.37,0,0,1-.6,2.32,3.78,3.78,0,0,1-2.45.6h-7.62a3.67,3.67,0,0,1-2.45-.6,3,3,0,0,1-.66-2.32V387l2.52-.53v1.46h8.74v-2.78h-7.69a3.39,3.39,0,0,1-2.45-.66,3.17,3.17,0,0,1-.6-2.25V380.8a3.16,3.16,0,0,1,.6-2.25,3.39,3.39,0,0,1,2.45-.66h7a3.69,3.69,0,0,1,2.38.6,2.71,2.71,0,0,1,.66,2.12v.27l-2.52.6v-1.39Z" transform="translate(-601.58 -368.5)"/><polygon class="cls-1" points="66.33 21.71 72.16 15.41 66.2 9.38 70.04 9.38 73.95 13.56 77.73 9.38 80.98 9.38 75.61 15.08 82.3 21.71 78.39 21.71 73.89 16.93 69.71 21.71 66.33 21.71 66.33 21.71"/><polygon class="cls-1" points="7.16 21.71 0 9.38 3.31 9.38 8.29 18.33 13.06 9.38 15.91 9.38 9.15 21.71 7.16 21.71 7.16 21.71"/><path class="cls-1" d="M619.74,390.21V377.88h1.92l8.68,7.29a9.93,9.93,0,0,1,.8.66,6.21,6.21,0,0,1,.66.66c-.07-.66-.13-1.19-.13-1.46v-7.16h2.59v12.33h-2l-9.08-7.62a4,4,0,0,1-.53-.53,1.53,1.53,0,0,1-.46-.46,6.45,6.45,0,0,1,.07,1.13,4,4,0,0,1,.07.86v6.63Z" transform="translate(-601.58 -368.5)"/><rect class="cls-2" x="35.63" width="27.61" height="31.06" rx="1.48" ry="1.48"/><path class="cls-3" d="M649,377.87h12a1.32,1.32,0,0,0,1.34-1.43V372.5A1.41,1.41,0,0,0,661,371H641.3a1.65,1.65,0,0,0-1.62,1.53v23.17a1.57,1.57,0,0,0,1.62,1.43H661a1.32,1.32,0,0,0,1.34-1.43v-3.94A1.41,1.41,0,0,0,661,390.2H649v-2.47h4.09a1.32,1.32,0,0,0,1.34-1.43v-4.44a1.41,1.41,0,0,0-1.34-1.53H649v-2.47Zm.14,3.94H653v4.44h-5.42v5.42h13.31v3.94H641.16V372.45h19.72v3.94H647.57v5.42Z" transform="translate(-601.58 -368.5)"/></svg>