<svg width="144" height="30" viewBox="0 0 144 30" fill="none" xmlns="http://www.w3.org/2000/svg">
<g clip-path="url(#clip0)">
<path fill-rule="evenodd" clip-rule="evenodd" d="M80.5279 11.7238H75.3004V14.4088H80.5279C80.9598 14.4088 81.2256 14.3536 81.3918 14.1989C81.5025 14.0884 81.6133 13.8785 81.6133 13.6022V12.5304C81.6133 12.2652 81.5025 12.0442 81.3918 11.9337C81.2256 11.779 80.9488 11.7238 80.5279 11.7238ZM72.9746 20.0111V10H81.6022C82.3553 10 82.9534 10.1657 83.3299 10.4862C83.6511 10.7514 83.8726 11.2928 83.8726 11.9337V14.1989C83.8726 14.8398 83.6511 15.3812 83.3299 15.6464C82.9534 15.9669 82.3553 16.1326 81.6022 16.1326H75.2893V20.0111H72.9746Z" fill="#222222"/>
<path fill-rule="evenodd" clip-rule="evenodd" d="M94.981 11.7238H89.7535V14.5193H94.981C95.413 14.5193 95.6788 14.4641 95.8449 14.3536C95.9557 14.2431 96.0664 14.0331 96.0664 13.7017V12.5193C96.0664 12.2541 95.9557 12.0331 95.8449 11.9227C95.6788 11.779 95.4019 11.7238 94.981 11.7238ZM87.4277 20.0111V10H96C96.8084 10 97.4065 10.1657 97.7831 10.4862C98.1043 10.7514 98.3258 11.2928 98.3258 11.9337V14.2983C98.3258 14.9945 98.1043 15.4807 97.7831 15.7459C97.4065 16.0663 96.8084 16.232 96 16.232H94.7042L99.3447 20H96L91.9575 16.232H89.7425V20H87.4277V20.0111Z" fill="#222222"/>
<path fill-rule="evenodd" clip-rule="evenodd" d="M103.011 20.0111V10H113.311V11.7238H105.381V13.9227H110.021V15.6464H105.381V18.1215H113.421V20.0111H103.011Z" fill="#222222"/>
<path fill-rule="evenodd" clip-rule="evenodd" d="M126.424 11.7791H119.845V13.9338H126.102C127.077 13.9338 127.775 14.0995 128.096 14.42C128.473 14.7404 128.639 15.3923 128.639 16.2984V17.6465C128.639 18.5636 128.473 19.2045 128.096 19.5249C127.775 19.8454 127.066 20.0111 126.102 20.0111H119.9C118.926 20.0111 118.283 19.8454 117.907 19.5249C117.586 19.2045 117.419 18.5525 117.419 17.6465V17.3813L119.468 16.9503V18.1327H126.534V15.8675H120.277C119.302 15.8675 118.66 15.7017 118.339 15.326C117.962 15.0056 117.796 14.4089 117.796 13.4918V12.3647C117.796 11.4476 117.962 10.8619 118.339 10.5304C118.66 10.1548 119.313 9.98901 120.277 9.98901H125.992C126.966 9.98901 127.609 10.1548 127.93 10.4752C128.306 10.7956 128.473 11.3923 128.473 12.199V12.42L126.424 12.9061V11.7791Z" fill="#222222"/>
<path fill-rule="evenodd" clip-rule="evenodd" d="M141.84 11.7791H135.262V13.9338H141.519C142.494 13.9338 143.136 14.0995 143.513 14.42C143.834 14.7404 144 15.3923 144 16.2984V17.6465C144 18.5636 143.834 19.2045 143.513 19.5249C143.136 19.8454 142.494 20.0111 141.519 20.0111H135.317C134.342 20.0111 133.645 19.8454 133.323 19.5249C132.947 19.2045 132.781 18.5525 132.781 17.6465V17.3813L134.83 16.9503V18.1327H141.951V15.8675H135.694C134.719 15.8675 134.077 15.7017 133.7 15.326C133.379 15.0056 133.213 14.4089 133.213 13.4918V12.3647C133.213 11.4476 133.379 10.8619 133.7 10.5304C134.077 10.1548 134.73 9.98901 135.694 9.98901H141.408C142.328 9.98901 142.97 10.1548 143.347 10.4752C143.723 10.7956 143.889 11.3923 143.889 12.199V12.42L141.84 12.9061V11.7791Z" fill="#222222"/>
<path fill-rule="evenodd" clip-rule="evenodd" d="M57.9235 20.0111L62.6748 14.895L57.8127 10H60.947L64.1256 13.3923L67.2045 10H69.8404L65.4768 14.6298L70.9258 20.0111H67.7361L64.0702 16.1326L60.6702 20.0111H57.9235Z" fill="#222222"/>
<path fill-rule="evenodd" clip-rule="evenodd" d="M5.82557 20.0111L0 10H2.70235L6.74481 17.2597L10.6211 10H12.9469L7.44255 20.0111H5.82557Z" fill="#222222"/>
<path fill-rule="evenodd" clip-rule="evenodd" d="M14.6746 20.0111V10H16.2362L23.3022 15.9227C23.568 16.1326 23.7895 16.2983 23.9556 16.4641C24.1771 16.6298 24.3322 16.8398 24.4983 17.0055C24.4429 16.4641 24.3875 16.0331 24.3875 15.8232C24.3875 15.6022 24.3875 15.3923 24.3875 15.2818V10H26.4918V20.0111H24.8748L17.4877 13.8232C17.3215 13.6575 17.1665 13.558 17.0557 13.3923C16.8896 13.2818 16.7899 13.1823 16.6792 13.0166C16.7346 13.337 16.7346 13.6133 16.7346 13.9337C16.7899 14.1989 16.7899 14.4199 16.7899 14.6298V20.0111H14.6746Z" fill="#222222"/>
<path d="M54.1467 0H30.7448C29.8255 0 29.0835 0.740332 29.0835 1.65746V28.3425C29.0835 29.2597 29.8255 30 30.7448 30H54.1467C55.066 30 55.808 29.2597 55.808 28.3425V1.65746C55.808 0.740332 55.066 0 54.1467 0Z" fill="#9F224E"/>
<path fill-rule="evenodd" clip-rule="evenodd" d="M38.2982 16.884V21.779H51.7214V25.9227H33.1704V4.07739H51.511V7.7901H38.2982V12.3647H45.0873V16.9393L38.2982 16.884Z" fill="white"/>
<path d="M51.7213 20.1216H39.9594V18.5525L45.0762 18.5967C45.5192 18.5636 45.94 18.431 46.2612 18.1105C46.5713 17.8011 46.7485 17.3702 46.7485 16.9393V12.3647C46.7485 11.4475 46.0065 10.7072 45.0872 10.7072H39.9483V9.44755H51.4998C52.419 9.44755 53.1611 8.70721 53.1611 7.79009V4.07738C53.1611 3.16025 52.419 2.41992 51.4998 2.41992H33.1703C32.2511 2.41992 31.509 3.16025 31.509 4.07738V25.9227C31.509 26.8398 32.2511 27.5801 33.1703 27.5801H51.7213C52.6405 27.5801 53.3826 26.8398 53.3826 25.9227V21.779C53.3826 20.8619 52.6405 20.1216 51.7213 20.1216Z" fill="white"/>
<path fill-rule="evenodd" clip-rule="evenodd" d="M38.298 16.884V21.779H51.7212V25.9227H33.1702V4.07739H51.5107V7.7901H38.298V12.3647H45.0871V16.9393L38.298 16.884Z" fill="#9F224E"/>
</g>
<defs>
<clipPath id="clip0">
<rect width="144" height="30" fill="white"/>
</clipPath>
</defs>
</svg>
