<svg width="160" height="34" viewBox="0 0 160 34" fill="none" xmlns="http://www.w3.org/2000/svg">
<path fill-rule="evenodd" clip-rule="evenodd" d="M89.5 13.1H83.7V16.1H89.5C90 16.1 90.3 16 90.5 15.9C90.6 15.8 90.7 15.5 90.7 15.2V14C90.7 13.7 90.6 13.5 90.5 13.3C90.2 13.1 89.9 13.1 89.5 13.1ZM81.1 22.3V11.1H90.7C91.5 11.1 92.2 11.3 92.6 11.6C93 11.9 93.2 12.5 93.2 13.2V15.7C93.2 16.4 93 17 92.6 17.3C92.2 17.7 91.5 17.8 90.7 17.8H83.7V22.1H81.1V22.3Z" fill="#999999"/>
<path fill-rule="evenodd" clip-rule="evenodd" d="M105.5 13.1H99.7V16.2H105.5C106 16.2 106.3 16.1 106.5 16C106.6 15.9 106.7 15.6 106.7 15.3V14C106.7 13.7 106.6 13.5 106.5 13.3C106.3 13.1 106 13.1 105.5 13.1ZM97.1 22.3V11.1H106.6C107.5 11.1 108.2 11.3 108.6 11.6C109 11.9 109.2 12.5 109.2 13.2V15.8C109.2 16.6 109 17.1 108.6 17.4C108.2 17.8 107.5 17.9 106.6 17.9H105.2L110.4 22.1H106.7L102.2 17.9H99.7V22.1H97.1V22.3Z" fill="#999999"/>
<path fill-rule="evenodd" clip-rule="evenodd" d="M114.5 22.3V11.1H125.9V13.1H117.1V15.5H122.2V17.4H117.1V20.2H126V22.3H114.5Z" fill="#999999"/>
<path fill-rule="evenodd" clip-rule="evenodd" d="M140.5 13.1H133.2V15.5H140.2C141.3 15.5 142.1 15.7 142.4 16C142.8 16.4 143 17.1 143 18.1V19.6C143 20.6 142.8 21.3 142.4 21.7C142 22.1 141.3 22.2 140.2 22.2H133.3C132.2 22.2 131.5 22 131.1 21.7C130.7 21.3 130.6 20.6 130.6 19.6V19.3L132.9 18.8V20.1H140.7V17.6H133.7C132.6 17.6 131.9 17.4 131.5 17C131.1 16.6 130.9 16 130.9 15V13.7C130.9 12.7 131.1 12 131.5 11.7C131.9 11.3 132.6 11.1 133.7 11.1H140.1C141.2 11.1 141.9 11.3 142.3 11.6C142.7 12 142.9 12.6 142.9 13.5V13.7L140.6 14.2V13.1H140.5Z" fill="#999999"/>
<path fill-rule="evenodd" clip-rule="evenodd" d="M157.6 13.1H150.3V15.5H157.3C158.4 15.5 159.1 15.7 159.5 16C159.9 16.4 160 17.1 160 18.1V19.6C160 20.6 159.8 21.3 159.5 21.7C159.1 22.1 158.4 22.2 157.3 22.2H150.4C149.3 22.2 148.5 22 148.2 21.7C147.8 21.3 147.6 20.6 147.6 19.6V19.3L149.9 18.8V20.1H157.8V17.6H150.8C149.7 17.6 149 17.4 148.6 17C148.2 16.6 148.1 16 148.1 15V13.7C148.1 12.7 148.3 12 148.6 11.7C149 11.3 149.7 11.1 150.8 11.1H157.2C158.2 11.1 158.9 11.3 159.4 11.6C159.8 12 160 12.6 160 13.5V13.7L157.7 14.2V13.1H157.6Z" fill="#999999"/>
<path fill-rule="evenodd" clip-rule="evenodd" d="M64.4 22.3L69.6 16.6L64.2 11.1H67.7L71.3 14.9L74.7 11.1H77.6L72.8 16.3L78.8 22.3H75.3L71.2 18L67.4 22.3H64.4Z" fill="#999999"/>
<path fill-rule="evenodd" clip-rule="evenodd" d="M6.5 22.3L0 11.1H3L7.5 19.2L11.8 11.1H14.4L8.3 22.3H6.5Z" fill="#999999"/>
<path fill-rule="evenodd" clip-rule="evenodd" d="M16.3 22.3V11.1H18L25.8 17.7C26.1 17.9 26.3 18.1 26.5 18.3C26.7 18.5 26.9001 18.7 27.1 18.9C27 18.3 27 17.8 27 17.6C27 17.4 27 17.1 27 17V11.1H29.3V22.2H27.5L19.3 15.3C19.1 15.1 18.9 15 18.8 14.8C18.6 14.7 18.5 14.6 18.4 14.4C18.5 14.8 18.5 15.1 18.5 15.4C18.6 15.7 18.6 15.9 18.6 16.2V22.2H16.3V22.3Z" fill="#999999"/>
<path d="M60.2 0H34.2C33.2 0 32.4 0.8 32.4 1.8V31.5C32.4 32.5 33.2 33.3 34.2 33.3H60.2C61.2 33.3 62 32.5 62 31.5V1.8C62 0.8 61.2 0 60.2 0Z" fill="#9F224E"/>
<path fill-rule="evenodd" clip-rule="evenodd" d="M42.5 18.8V24.3H57.5V28.9H36.9V4.5H57.2V8.7H42.5V13.8H50.1V18.9L42.5 18.8Z" fill="white"/>
<path d="M57.5 22.4H44.4V20.7H50.1C50.6 20.7 51.1 20.5 51.4 20.2C51.7 19.9 51.9 19.4 51.9 18.9V13.8C51.9 12.8 51.1 12 50.1 12H44.4V10.6H57.2C58.2 10.6 59 9.8 59 8.8V4.5C59 3.5 58.2 2.7 57.2 2.7H36.9C35.9 2.7 35.1 3.5 35.1 4.5V28.8C35.1 29.8 35.9 30.6 36.9 30.6H57.5C58.5 30.6 59.3 29.8 59.3 28.8V24.2C59.3 23.2 58.5 22.4 57.5 22.4Z" fill="white"/>
<path fill-rule="evenodd" clip-rule="evenodd" d="M42.5 18.8V24.3H57.5V28.9H36.9V4.5H57.2V8.7H42.5V13.8H50.1V18.9L42.5 18.8Z" fill="#9F224E"/>
</svg>
