<svg width="24" height="24" viewBox="0 0 24 24" fill="none" xmlns="http://www.w3.org/2000/svg">
<path fill-rule="evenodd" clip-rule="evenodd" d="M3 2H4H15.6667H16.0809L16.3738 2.29289L21.3738 7.29289L21.6667 7.58579V8V21.3333V22.3333H20.6667H4H3V21.3333V3V2ZM5 4V20.3333H19.6667V9H15.6667H14.6667V8V4H5ZM8.16667 7H7.16667V9H8.16667H11.5H12.5V7H11.5H8.16667ZM7.16667 11.1667H8.16667H16.5H17.5V13.1667H16.5H8.16667H7.16667V11.1667ZM8.16667 15.3333H7.16667V17.3333H8.16667H16.5H17.5V15.3333H16.5H8.16667Z" fill="#222222"/>
</svg>
