<svg width="224" height="120" viewBox="0 0 224 120" fill="none" xmlns="http://www.w3.org/2000/svg">
<g clip-path="url(#clip0)">
<path d="M127.037 88.4051H127.139C145.974 82.9368 159.645 65.519 159.645 44.9621C159.645 35.5444 156.708 26.7342 151.746 19.5444C151.645 19.3418 151.442 19.1393 151.341 18.9368C151.037 18.5317 150.835 18.2279 150.531 17.9241C150.126 17.4178 149.822 17.0127 149.417 16.5064L149.113 16.2026C148.607 15.595 148.101 15.0887 147.594 14.4811L147.392 14.2785C146.885 13.7722 146.48 13.2659 145.974 12.8608C145.468 12.3545 144.961 11.8482 144.354 11.3418L144.252 11.2406C142.936 10.0254 141.518 9.01271 140.101 8.00006C125.012 -2.53159 108.809 0.405119 108.809 0.405119C117.721 14.8861 135.544 17.6203 141.822 23.6963C147.594 29.2659 154.683 41.0127 149.417 59.9494C144.05 78.9874 125.62 85.6709 125.62 85.6709C125.62 85.6709 147.088 70.6836 142.025 42.9368C137.468 18.4304 116.809 20.4558 116.809 20.4558C119.746 40.1013 134.025 40.2026 134.126 58.2279C134.126 76.0507 118.43 86.8861 118.43 86.8861C132.101 69.0633 126.835 47.2912 115.189 41.2152C103.24 34.9368 96.86 48.1013 103.037 53.8735C109.62 60.152 115.493 53.3671 115.493 53.3671C126.936 66.0254 114.683 86.8861 114.683 86.8861C98.2777 83.4431 78.8347 64.8102 86.1259 38.5823C91.898 17.9241 113.366 16.3039 113.366 16.3039C104.961 3.34183 92.6069 4.35449 83.0879 12.7595C74.6828 20.9621 69.417 32.5064 69.417 45.1646C69.417 63.595 80.5562 79.3925 96.455 86.3798C97.0626 86.6836 97.7714 86.8861 98.379 87.1899L98.5815 87.2912C99.2904 87.595 100.101 87.7975 100.809 88.1013L101.012 88.2026C108.911 90.633 117.417 90.8355 125.822 88.8102C126.227 88.6076 126.632 88.5064 127.037 88.4051Z" fill="#D5A52A"/>
<path d="M15.4428 113.215V114.025C14.9365 114.025 14.5314 114.127 14.3289 114.329C14.1263 114.532 13.9238 114.937 13.9238 115.443V118.684C11.8985 119.595 10.0757 120 8.3542 120C4.80989 120 2.48078 118.886 1.16432 116.557C0.556727 115.443 0.25293 114.228 0.25293 112.81C0.25293 110.785 0.961791 109.165 2.48078 107.848C3.99977 106.532 5.82255 105.924 8.0504 105.924C9.06306 105.924 10.177 106.127 11.5947 106.43C12.2023 106.633 12.6074 106.633 12.7086 106.633C13.0124 106.633 13.215 106.532 13.3162 106.329H13.8225V110.279H13.0124C12.6074 108.76 11.7972 107.747 10.582 107.241C9.97445 106.937 9.26559 106.835 8.55673 106.835C6.43014 106.835 5.01242 107.747 4.10103 109.671C3.69597 110.582 3.49344 111.595 3.49344 112.709C3.49344 114.43 3.99976 115.949 5.01242 117.063C6.02508 118.177 7.24027 118.785 8.75926 118.785C9.67065 118.785 10.4808 118.582 11.0884 118.279V115.443C11.0884 114.734 10.7846 114.329 10.177 114.228C9.87318 114.127 9.26559 114.127 8.45546 114.127V113.316H15.4428V113.215Z" fill="#D5A52A"/>
<path d="M21.3159 114.025V117.266C21.3159 118.279 21.9235 118.785 23.0374 118.785H23.645V119.595H16.1514V118.785H16.4552C17.0628 118.785 17.5691 118.684 17.8729 118.481C18.1767 118.279 18.3792 117.873 18.3792 117.165V108.658C18.3792 108.051 18.2779 107.646 17.9742 107.342C17.6704 107.139 17.2653 107.038 16.6577 107.038H16.2526V106.329L18.9868 106.127C20.4045 106.025 21.6197 105.924 22.5311 105.924C24.1514 105.924 25.3666 106.025 26.2779 106.228C27.1893 106.43 27.8982 106.835 28.5058 107.342C29.2147 108.051 29.5185 108.861 29.5185 109.772C29.5185 111.494 28.5058 112.709 26.3792 113.215C26.8855 113.62 27.4931 114.228 28.1007 115.139C28.5058 115.747 29.2147 116.557 30.0248 117.57C30.4298 117.975 30.8349 118.279 31.3412 118.481C31.7463 118.684 32.2526 118.785 32.8602 118.785V119.595C32.5564 119.595 32.0501 119.595 31.5438 119.595C29.8223 119.595 28.6071 119.392 27.8982 118.987C27.4931 118.785 27.0881 118.481 26.7843 118.177C26.3792 117.772 25.9742 117.266 25.4678 116.557L24.2526 114.835C23.9488 114.43 23.5438 114.025 23.1387 113.62H21.3159V114.025ZM21.3159 106.937V113.114H22.1261C23.4425 113.114 24.3539 112.911 24.9615 112.506C25.7716 112 26.1767 111.19 26.1767 109.975C26.1767 107.949 24.8602 106.835 22.3286 106.835H21.3159V106.937Z" fill="#D5A52A"/>
<path d="M42.0755 114.734H37.4173L36.5059 117.266C36.3034 117.873 36.3034 118.279 36.5059 118.481C36.7085 118.684 37.316 118.886 38.2274 118.886H38.5312V119.696H32.8604V118.886H33.1641C33.7717 118.886 34.1768 118.684 34.5819 118.279C34.7844 117.975 35.0882 117.57 35.2907 116.861L38.9363 106.633L38.7338 106.025H41.7717L46.0249 116.962C46.2274 117.57 46.5312 118.076 46.7338 118.279C47.0376 118.582 47.5439 118.785 48.1515 118.886V119.696H41.1642V118.886H41.873C42.4806 118.886 42.8857 118.785 43.0882 118.481C43.2907 118.177 43.1895 117.772 42.9869 117.266L42.0755 114.734ZM41.5692 113.519L39.6452 108.456L37.8224 113.519H41.5692Z" fill="#D5A52A"/>
<path d="M51.9999 108.962V117.063C51.9999 117.975 52.3037 118.481 52.81 118.684C53.1138 118.785 53.5189 118.886 54.1265 118.886V119.696H48.9619V118.886H49.0632C49.6708 118.886 49.9746 118.785 50.2784 118.582C50.5822 118.38 50.6834 117.975 50.6834 117.468V107.646C50.1771 107.342 49.6708 107.139 48.9619 107.139V106.329H53.4176L62.2277 115.544V109.063C62.2277 108.051 62.0252 107.544 61.5189 107.342C61.2151 107.24 60.81 107.24 60.2024 107.24H59.9999V106.329H65.5695V107.139H65.367C64.7594 107.139 64.4556 107.139 64.1518 107.24C63.7467 107.443 63.5442 107.747 63.5442 108.152V119.696H62.329L51.9999 108.962Z" fill="#D5A52A"/>
<path d="M66.3796 107.139V106.329C66.8859 106.329 67.3923 106.228 67.8986 106.228H68.9112C69.0125 106.228 69.3163 106.228 69.8226 106.127C70.9365 106.025 71.9492 106.025 72.7593 106.025C75.5948 106.025 77.6201 106.329 78.8353 106.937C80.3543 107.646 81.3669 108.76 81.9745 110.177C82.2783 110.987 82.4809 111.798 82.4809 112.709C82.4809 114.633 81.772 116.152 80.4555 117.57C79.0378 118.987 76.6074 119.798 73.1644 119.798H66.2783V118.987C66.9872 118.987 67.4935 118.886 67.696 118.785C68.1011 118.582 68.2024 118.177 68.2024 117.57V109.266C68.2024 108.253 67.9998 107.747 67.4935 107.544C67.3922 107.139 66.8859 107.139 66.3796 107.139ZM71.3416 107.139V117.165C71.3416 117.873 71.4429 118.38 71.6454 118.481C71.8479 118.684 72.3543 118.785 73.1644 118.785C75.3922 118.785 77.0125 118.177 78.0252 116.861C78.8353 115.848 79.2403 114.532 79.2403 112.911C79.2403 111.089 78.734 109.57 77.6201 108.557C76.6074 107.544 74.9872 107.038 72.9619 107.038C72.4555 107.038 71.8479 107.038 71.3416 107.139Z" fill="#D5A52A"/>
<path d="M95.3416 109.367C95.2403 108.759 95.139 108.253 95.0378 108.051C94.8352 107.646 94.4302 107.443 93.9238 107.443H89.1643V112.304H92.6074C93.215 112.304 93.62 112.203 93.8226 112C94.0251 111.797 94.2276 111.392 94.2276 110.785H95.0378V115.038H94.2276C94.2276 114.228 94.0251 113.823 93.5188 113.62C93.215 113.519 92.8099 113.519 92.3036 113.519H89.1643V117.367C89.1643 117.772 89.1643 117.975 89.2656 118.177C89.3669 118.38 89.5694 118.481 89.9745 118.481H93.5188C94.3289 118.481 94.8352 118.278 95.2403 117.975C95.5441 117.671 95.8479 117.063 95.9491 116.354H96.7593L96.5567 119.696H83.5947V118.886H84.5061C85.62 118.886 86.2276 118.38 86.2276 117.367V108.759C86.2276 108.152 86.0251 107.646 85.7213 107.443C85.4175 107.24 85.0124 107.139 84.3036 107.139H84.1011V106.329H95.9491L96.1517 109.468H95.3416V109.367Z" fill="#D5A52A"/>
<path d="M108.405 107.139V106.329H113.975V107.139H113.773C113.064 107.139 112.557 107.24 112.254 107.544C111.95 107.848 111.747 108.253 111.747 108.962V114.329C111.747 116.253 111.241 117.671 110.127 118.684C109.114 119.595 107.595 120.101 105.671 120.101C103.848 120.101 102.431 119.696 101.317 118.987C100 118.177 99.3928 116.861 99.3928 115.139V108.759C99.3928 108.152 99.2915 107.848 99.089 107.646C98.8865 107.443 98.4814 107.342 97.8738 107.342H97.4688V106.329H104.152V107.139H103.747C102.735 107.139 102.228 107.646 102.228 108.557V114.937C102.228 116.557 102.836 117.57 104.152 118.076C104.76 118.278 105.367 118.38 106.076 118.38C107.393 118.38 108.405 118.076 109.114 117.367C109.924 116.658 110.228 115.646 110.228 114.43V109.367C110.228 108.354 110.026 107.646 109.519 107.342C109.216 107.139 108.912 107.139 108.507 107.139H108.405Z" fill="#D5A52A"/>
<path d="M119.443 114.025V117.266C119.443 118.279 120.05 118.785 121.164 118.785H121.772V119.595H114.278V118.785H114.582C115.19 118.785 115.696 118.684 116 118.481C116.304 118.279 116.506 117.873 116.506 117.165V108.658C116.506 108.051 116.405 107.646 116.101 107.342C115.797 107.139 115.392 107.038 114.785 107.038H114.38V106.329L117.114 106.127C118.531 106.025 119.747 105.924 120.658 105.924C122.278 105.924 123.494 106.025 124.405 106.228C125.316 106.43 126.025 106.835 126.633 107.342C127.342 108.051 127.645 108.861 127.645 109.772C127.645 111.494 126.633 112.709 124.506 113.215C125.012 113.62 125.62 114.228 126.228 115.139C126.633 115.747 127.342 116.557 128.152 117.57C128.557 117.975 128.962 118.279 129.468 118.481C129.873 118.684 130.38 118.785 130.987 118.785V119.595C130.683 119.595 130.177 119.595 129.671 119.595C127.949 119.595 126.734 119.392 126.025 118.987C125.62 118.785 125.215 118.481 124.911 118.177C124.506 117.772 124.101 117.266 123.595 116.557L122.38 114.835C122.076 114.43 121.671 114.025 121.266 113.62H119.443V114.025ZM119.443 106.937V113.114H120.253C121.569 113.114 122.481 112.911 123.088 112.506C123.899 112 124.304 111.19 124.304 109.975C124.304 107.949 122.987 106.835 120.456 106.835H119.443V106.937Z" fill="#D5A52A"/>
<path d="M141.317 114.025V117.266C141.317 117.873 141.519 118.38 141.823 118.582C142.127 118.785 142.532 118.886 143.241 118.886H143.848V119.696H136.557V118.886H136.861C137.468 118.886 137.772 118.785 137.975 118.684C138.177 118.481 138.38 118.177 138.38 117.671V108.355C138.38 107.747 138.177 107.342 137.772 107.241C137.57 107.139 137.266 107.139 136.861 107.139H136.354V106.329C137.165 106.228 138.279 106.228 139.798 106.127C141.418 106.025 142.532 106.025 143.241 106.025C145.165 106.025 146.684 106.43 147.696 107.241C148.608 108.051 149.114 108.962 149.114 110.177C149.114 112.101 148.101 113.317 145.975 113.924C145.266 114.127 144.557 114.228 143.747 114.228C143.038 114.228 142.228 114.228 141.317 114.025ZM141.317 107.038V113.114C141.722 113.215 142.329 113.317 142.836 113.317C144.152 113.317 145.063 112.81 145.57 111.798C145.772 111.291 145.975 110.684 145.975 109.975C145.975 108.962 145.671 108.253 145.165 107.646C144.658 107.139 143.848 106.836 142.836 106.836C142.329 106.937 141.823 106.937 141.317 107.038Z" fill="#D5A52A"/>
<path d="M159.341 114.734H154.683L153.772 117.266C153.569 117.873 153.569 118.279 153.772 118.481C153.974 118.684 154.582 118.886 155.493 118.886H155.797V119.696H150.126V118.886H150.43C151.037 118.886 151.442 118.684 151.847 118.279C152.05 117.975 152.354 117.57 152.556 116.861L156.202 106.633L155.999 106.025H159.139L163.392 116.962C163.594 117.57 163.898 118.076 164.101 118.279C164.404 118.582 164.911 118.785 165.518 118.886V119.696H158.531V118.886H159.24C159.848 118.886 160.253 118.785 160.455 118.481C160.658 118.177 160.556 117.772 160.354 117.266L159.341 114.734ZM158.835 113.519L156.81 108.456L154.987 113.519H158.835Z" fill="#D5A52A"/>
<path d="M178.885 115.949L177.366 119.696H166.024V118.886H166.328C167.138 118.886 167.746 118.684 167.948 118.177C168.05 117.975 168.151 117.671 168.151 117.266V108.658C168.151 107.646 167.645 107.139 166.531 107.139H166.126V106.329H173.316V107.139H172.708C171.695 107.139 171.088 107.646 171.088 108.658V117.57C171.088 117.975 171.189 118.177 171.29 118.38C171.493 118.481 171.695 118.582 172.1 118.582H174.835C175.645 118.582 176.252 118.278 176.759 117.671C176.961 117.367 177.467 116.861 178.075 116.051H178.885V115.949Z" fill="#D5A52A"/>
<path d="M188.202 114.734H183.544L182.633 117.266C182.43 117.873 182.43 118.279 182.633 118.481C182.835 118.684 183.443 118.886 184.354 118.886H184.658V119.696H178.987V118.886H179.291C179.899 118.886 180.304 118.684 180.709 118.279C180.911 117.975 181.215 117.57 181.418 116.861L185.063 106.633L184.861 106.025H188L192.253 116.962C192.456 117.57 192.759 118.076 192.962 118.279C193.266 118.582 193.772 118.785 194.38 118.886V119.696H187.392V118.886H188.101C188.709 118.886 189.114 118.785 189.316 118.481C189.519 118.177 189.418 117.772 189.215 117.266L188.202 114.734ZM187.797 113.519L185.873 108.456L184.051 113.519H187.797Z" fill="#D5A52A"/>
<path d="M208.861 115.848H209.773C209.57 117.165 209.165 118.481 208.557 119.797C208.254 119.696 207.848 119.696 207.241 119.696C206.937 119.696 206.431 119.797 205.621 119.899C204.811 120 204.102 120.101 203.595 120.101C202.178 120.101 200.962 119.797 199.747 119.19C198.532 118.582 197.519 117.772 196.811 116.658C196.102 115.544 195.798 114.43 195.798 113.114C195.798 111.19 196.608 109.468 198.228 108.152C199.848 106.734 201.773 106.127 204.102 106.127C205.013 106.127 205.924 106.228 206.735 106.532C207.747 106.835 208.254 107.038 208.254 107.038C208.456 107.038 208.557 106.937 208.659 106.835H209.165L209.367 110.582H208.557C208.051 109.165 207.241 108.152 206.127 107.646C205.519 107.342 204.912 107.241 204.304 107.241C202.785 107.241 201.57 107.747 200.557 108.861C199.545 109.975 199.14 111.291 199.14 113.013C199.14 114.127 199.342 115.139 199.848 116.051C200.355 117.063 200.962 117.772 201.874 118.38C202.684 118.886 203.595 119.19 204.608 119.19C205.621 119.19 206.532 118.886 207.342 118.278C207.848 117.468 208.456 116.759 208.861 115.848Z" fill="#D5A52A"/>
<path d="M222.228 109.367C222.127 108.759 222.026 108.253 221.924 108.051C221.722 107.646 221.317 107.443 220.811 107.443H216.051V112.304H219.494C220.102 112.304 220.507 112.203 220.709 112C220.912 111.797 221.114 111.392 221.114 110.785H221.924V115.038H221.114C221.114 114.228 220.912 113.823 220.406 113.62C220.102 113.519 219.697 113.519 219.19 113.519H216.051V117.367C216.051 117.772 216.051 117.975 216.152 118.177C216.254 118.38 216.456 118.481 216.861 118.481H220.406C221.216 118.481 221.722 118.278 222.127 117.975C222.431 117.671 222.735 117.063 222.836 116.354H223.646L223.443 119.696H210.481V118.886H211.393C212.507 118.886 213.114 118.38 213.114 117.367V108.759C213.114 108.152 212.912 107.646 212.608 107.443C212.304 107.24 211.899 107.139 211.19 107.139H210.988V106.329H222.836L223.038 109.468H222.228V109.367Z" fill="#D5A52A"/>
</g>
<defs>
<clipPath id="clip0">
<rect width="223.494" height="120" fill="white" transform="translate(0.25293)"/>
</clipPath>
</defs>
</svg>
