<svg width="90" height="90" viewBox="0 0 90 90" fill="none" xmlns="http://www.w3.org/2000/svg">
<mask id="mask0" mask-type="alpha" maskUnits="userSpaceOnUse" x="0" y="0" width="90" height="90">
<circle cx="45" cy="45" r="43.5" fill="white" stroke="#274C98" stroke-width="3"/>
</mask>
<g mask="url(#mask0)">
<circle cx="45" cy="45" r="43.5" stroke="#1C2F6E" stroke-width="3"/>
<path d="M76 45.0601C76 28.9843 63.7258 15.4067 47.8672 13.7774C47.2155 13.6688 46.6724 14.1032 46.6724 14.755C46.6724 15.2981 47.1068 15.8412 47.65 15.9498C62.4224 17.4705 73.8275 30.0705 73.8275 45.0601C73.8275 57.6601 65.681 68.8481 53.8413 72.867L53.1896 69.717L46.6724 75.3653L54.8189 78.1894L54.1672 74.9308C67.0931 70.8032 76 58.6377 76 45.0601Z" fill="#1C2F6E" stroke="#1C2F6E"/>
<path d="M15.1724 45.0605C15.1724 32.4605 23.319 21.2725 35.1586 17.2536L35.8103 20.4036L42.3276 14.7553L34.181 11.9312L34.8328 15.1898C21.9069 19.3174 13 31.4829 13 45.0605C13 61.1363 25.2741 74.7139 41.1328 76.3432C41.7845 76.4518 42.3276 75.9087 42.3276 75.3656C42.3276 74.8225 41.8931 74.2794 41.35 74.1708C26.5776 72.6501 15.1724 60.0501 15.1724 45.0605Z" fill="#1C2F6E" stroke="#1C2F6E"/>
<path d="M63 48.1091V41.8909L58.2068 40.9091C57.8705 40.0909 57.5341 39.2727 57.1136 38.4545L59.8045 34.4455L55.2636 30.0273L51.2273 32.7273C50.3864 32.3182 49.5455 31.9909 48.7045 31.6636L47.6955 27H41.3045L40.2955 31.6636C39.4545 31.9909 38.6136 32.3182 37.7727 32.7273L33.6523 30.1091L29.1114 34.5273L31.8864 38.4545C31.4659 39.2727 31.1295 40.0909 30.7932 40.9091L26 41.8909V48.1091L30.7932 49.0091C31.0455 49.9091 31.3818 50.7273 31.8864 51.4636L29.1955 55.4727L33.7364 59.8909L37.7727 57.2727C38.6136 57.6818 39.4545 58.0091 40.2955 58.3364L41.2205 63H47.6114L48.5364 58.3364C49.4614 58.0909 50.3023 57.7636 51.0591 57.2727L55.1795 59.8909L59.7205 55.4727L57.1136 51.5455C57.5341 50.7273 57.8705 49.9091 58.2068 49.0909L63 48.1091ZM44.5 57.2727C37.5205 57.2727 31.8864 51.7909 31.8864 45C31.8864 38.2091 37.5205 32.7273 44.5 32.7273C51.4795 32.7273 57.1136 38.2091 57.1136 45C57.1136 51.7909 51.4795 57.2727 44.5 57.2727Z" fill="#1C2F6E"/>
<path d="M58.5432 42.7091C58.7114 43.4455 58.7955 44.1818 58.7955 45C58.7955 45.8182 58.7114 46.5545 58.5432 47.4545L61.3182 46.8818M27.6818 46.8V43.2L30.4568 42.6273C30.2886 43.4455 30.2045 44.1818 30.2045 45M42.65 28.6364L42.1455 31.3364C42.9023 31.1727 43.6591 31.0909 44.5 31.0909C45.3409 31.0909 46.0977 31.1727 46.9386 31.3364M31.2977 34.6909L33.9045 32.1545L36.2591 33.6273M33.9045 57.8455L31.2977 55.3091L32.8114 53.0182M46.35 61.3636H42.65L42.0614 58.6636C42.9023 58.8273 43.6591 58.9091 44.5 58.9091M57.7023 55.3091L55.0955 57.8455L52.7409 56.3727M52.7409 33.7091C54.0023 34.6091 55.1795 35.7545 56.1045 36.9818L57.7023 34.7727M63 48.1091V41.8909L58.2068 40.9091C57.8705 40.0909 57.5341 39.2727 57.1136 38.4545L59.8045 34.4455L55.2636 30.0273L51.2273 32.7273C50.3864 32.3182 49.5455 31.9909 48.7045 31.6636L47.6955 27H41.3045L40.2955 31.6636C39.4545 31.9909 38.6136 32.3182 37.7727 32.7273L33.6523 30.1091L29.1114 34.5273L31.8864 38.4545C31.4659 39.2727 31.1295 40.0909 30.7932 40.9091L26 41.8909V48.1091L30.7932 49.0091C31.0455 49.9091 31.3818 50.7273 31.8864 51.4636L29.1955 55.4727L33.7364 59.8909L37.7727 57.2727C38.6136 57.6818 39.4545 58.0091 40.2955 58.3364L41.2205 63H47.6114L48.5364 58.3364C49.4614 58.0909 50.3023 57.7636 51.0591 57.2727L55.1795 59.8909L59.7205 55.4727L57.1136 51.5455C57.5341 50.7273 57.8705 49.9091 58.2068 49.0909L63 48.1091ZM44.5 57.2727C37.5205 57.2727 31.8864 51.7909 31.8864 45C31.8864 38.2091 37.5205 32.7273 44.5 32.7273C51.4795 32.7273 57.1136 38.2091 57.1136 45C57.1136 51.7909 51.4795 57.2727 44.5 57.2727Z" stroke="#1C2F6E"/>
</g>
</svg>
