<svg width="44" height="16" viewBox="0 0 44 16" fill="none" xmlns="http://www.w3.org/2000/svg">
<path d="M35.0954 3.55568C35.6139 3.03716 36.1324 2.51864 36.6509 2.00012C37.4423 2.76425 38.2065 3.55568 38.9979 4.31981C40.1714 5.4933 41.3449 6.6395 42.4911 7.81299C42.8731 8.19505 43.2552 8.57712 43.6373 8.95919C43.6918 8.98648 43.6373 9.04106 43.61 9.06835C41.2903 11.388 38.9706 13.6804 36.6509 16.0001C35.1499 14.4991 33.649 12.9982 32.148 11.4972C31.3293 10.6785 30.4833 9.83248 29.6646 9.01377C29.992 8.68628 30.3195 8.3588 30.647 8.03131C32.1207 6.53034 33.5944 5.02936 35.0954 3.55568ZM35.9141 3.2009C34.7133 4.40168 33.4852 5.60246 32.2844 6.80324C31.5476 7.54008 30.8108 8.24963 30.1012 8.98648C30.5106 9.39583 30.9199 9.80519 31.3293 10.2145C32.9394 11.8247 34.5495 13.4348 36.1597 15.0177C36.3234 15.1814 36.4872 15.3724 36.6782 15.5089C37.2786 14.8812 37.9063 14.2808 38.534 13.6531C40.0895 12.0976 41.6451 10.5693 43.2006 9.01377C43.2552 8.95919 43.1733 8.9319 43.146 8.90461C42.6275 8.38609 42.109 7.86757 41.5905 7.34905C40.0076 5.7662 38.4248 4.21065 36.8419 2.6278C36.7874 2.57322 36.7328 2.49135 36.6509 2.46406C36.378 2.70967 36.1597 2.95529 35.9141 3.2009Z" fill="#EB2227"/>
<path d="M35.4778 4.59277C36.2146 4.59277 36.9515 4.59277 37.661 4.59277C37.661 6.42123 37.661 8.24969 37.661 10.0782C36.9242 10.0782 36.1873 10.0782 35.4778 10.0782C35.4778 8.24969 35.4778 6.42123 35.4778 4.59277Z" fill="#EB2227"/>
<path d="M30.3745 8.98633C31.2478 8.98633 32.1211 8.98633 32.9944 8.98633C33.1581 8.98633 33.3219 8.98633 33.4856 8.98633C33.8131 9.28652 34.1133 9.61401 34.4408 9.9142C35.1776 10.651 35.9145 11.3879 36.6513 12.1247C37.6611 11.1423 38.6435 10.1325 39.6533 9.15007C39.7079 9.09549 39.7624 9.01362 39.8716 8.98633C40.8813 8.98633 41.9184 8.98633 42.9281 8.98633C42.6279 9.31381 42.3004 9.61401 42.0002 9.9142C40.3901 11.497 38.8073 13.1072 37.1971 14.69C37.0334 14.8538 36.8696 15.0175 36.7332 15.154C36.7059 15.1813 36.6513 15.2358 36.624 15.1813C35.0958 13.653 33.5675 12.1247 32.0392 10.5965C31.4934 10.0779 30.9203 9.53214 30.3745 8.98633Z" fill="#EB2227"/>
<path d="M0 4.10144C1.25536 4.10144 2.53801 4.10144 3.79337 4.10144C4.03899 4.10144 4.2846 4.10144 4.53021 4.12873C4.96686 4.15602 5.4308 4.18331 5.86745 4.29247C6.35867 4.42893 6.8499 4.61996 7.23197 4.97473C7.66862 5.3568 7.94152 5.90261 7.9961 6.47571C8.02339 6.83049 8.02339 7.15797 7.88694 7.48546C7.75049 7.9221 7.45029 8.27688 7.06823 8.52249C6.79532 8.71353 6.46784 8.82269 6.16764 8.93185C6.74074 9.0683 7.31384 9.28663 7.7232 9.72327C7.9961 9.99618 8.15984 10.3782 8.24172 10.7603C8.35088 11.2788 8.26901 11.8519 8.02339 12.3432C7.80507 12.7798 7.47758 13.1346 7.06823 13.3802C6.60429 13.6804 6.05848 13.8168 5.51267 13.8987C5.23977 13.9533 4.96686 13.9533 4.69396 13.9806C4.44834 13.9806 4.20273 13.9806 3.92982 14.0079C2.61988 14.0079 1.30994 14.0079 0 14.0079C0 10.7057 0 7.40358 0 4.10144ZM2.21053 5.657C2.21053 6.44842 2.21053 7.26713 2.21053 8.05856C3.1384 8.05856 4.06628 8.11314 4.96686 7.89481C5.21248 7.84023 5.4308 7.70378 5.59454 7.48546C5.75828 7.29442 5.81287 7.04881 5.81287 6.7759C5.81287 6.44842 5.67641 6.12093 5.40351 5.9299C5.1306 5.71158 4.74854 5.657 4.39376 5.62971C3.68421 5.657 2.94737 5.68429 2.21053 5.657ZM2.21053 9.9416C2.21053 10.7876 2.21053 11.6609 2.21053 12.5069C3.05653 12.5069 3.90253 12.5342 4.74854 12.4796C5.10331 12.4523 5.48538 12.3159 5.75828 12.0975C5.94932 11.9338 6.05848 11.6609 6.08577 11.4153C6.11306 11.1151 6.08577 10.7603 5.86745 10.5147C5.64912 10.2418 5.32164 10.1326 4.99415 10.0508C4.66667 9.99618 4.33918 9.96889 4.0117 9.96889C3.41131 9.91431 2.81092 9.9416 2.21053 9.9416Z" fill="#2A4199"/>
<path d="M9.36054 4.10144C10.0974 4.10144 10.8342 4.10144 11.5711 4.10144C11.5711 7.40358 11.5711 10.733 11.5711 14.0625C10.8342 14.0625 10.0974 14.0625 9.33325 14.0625C9.33325 10.9513 9.33325 7.84023 9.33325 4.70183C9.36054 4.5108 9.36054 4.31976 9.36054 4.10144Z" fill="#2A4199"/>
<path d="M12.6902 4.15613C13.5362 4.15613 14.3822 4.15613 15.2555 4.15613C15.965 4.15613 16.6746 4.18342 17.3569 4.29258C17.9572 4.40174 18.5576 4.59278 19.0762 4.92026C19.4036 5.13858 19.7038 5.3842 19.9767 5.68439C20.3588 6.12104 20.6317 6.66685 20.7954 7.21266C20.9865 7.84034 21.0411 8.49531 21.0411 9.12299C21.0411 10.2146 20.8227 11.3335 20.1951 12.2341C19.8949 12.6707 19.5128 13.0255 19.0762 13.2984C18.6941 13.5168 18.2847 13.7078 17.8481 13.7897C17.466 13.8715 17.0567 13.9261 16.6746 13.9534C16.5381 13.9534 16.3744 13.9534 16.2379 13.9807C15.5011 14.008 14.7643 13.9807 14.0001 13.9807C13.5635 13.9807 13.1541 13.9807 12.7175 13.9807C12.7175 11.0879 12.7175 8.16782 12.7175 5.27504C12.6902 4.94755 12.6902 4.53819 12.6902 4.15613ZM14.8734 5.68439C14.8734 7.9495 14.8734 10.2419 14.8734 12.507C15.3919 12.507 15.8832 12.507 16.4017 12.4251C16.9202 12.3433 17.466 12.1522 17.8754 11.7975C18.2847 11.4154 18.5303 10.9242 18.6668 10.3784C18.8305 9.83254 18.8305 9.25944 18.8032 8.68634C18.776 8.27699 18.6941 7.89492 18.5849 7.51285C18.4485 7.1035 18.2301 6.72143 17.93 6.39394C17.5752 6.03917 17.0839 5.82085 16.5927 5.73897C16.0196 5.6571 15.4465 5.68439 14.8734 5.68439Z" fill="#2A4199"/>
<path d="M19.9497 4.15607C20.7411 4.15607 21.5326 4.15607 22.324 4.15607C22.4331 4.42898 22.5423 4.70188 22.6515 4.97479C23.2791 6.58492 23.8795 8.19506 24.5072 9.77791C24.5891 10.0235 24.6982 10.2691 24.7801 10.542C24.862 10.4329 24.8893 10.2964 24.9439 10.16C25.517 8.659 26.0901 7.15802 26.6632 5.65705C26.8542 5.13853 27.0452 4.62001 27.2636 4.12878C28.055 4.12878 28.8464 4.12878 29.6378 4.12878C29.4195 4.75646 29.1739 5.38414 28.9283 5.98453C27.9458 8.54984 26.9361 11.1424 25.9536 13.7077C25.899 13.8169 25.899 13.9261 25.8172 14.0079C25.1349 14.0079 24.4526 14.0079 23.7431 14.0079C23.5248 13.3802 23.2791 12.7799 23.0335 12.1522C22.0238 9.505 20.9867 6.83054 19.9497 4.15607Z" fill="#2A4199"/>
<path d="M34.2768 5.68433C34.6316 5.68433 34.9863 5.68433 35.3684 5.68433C35.3684 6.50304 35.3684 7.34904 35.3684 8.16776C35.3684 8.44066 35.3684 8.74086 35.3684 9.01376C35.0136 9.01376 34.6588 9.01376 34.3041 9.01376C34.2768 8.9046 34.2768 8.79544 34.2768 8.68628C34.2768 7.81298 34.2768 6.93969 34.2768 6.06639C34.2768 5.95723 34.2495 5.82078 34.2768 5.68433Z" fill="#2A4199"/>
<path d="M37.7698 5.68433C38.07 5.71162 38.3975 5.62975 38.6977 5.7662C38.9433 5.90265 39.107 6.12097 39.2162 6.36659C39.4345 6.83053 39.4618 7.34904 39.3799 7.81298C39.3253 8.11318 39.1889 8.44066 38.9978 8.68628C38.8341 8.85002 38.6431 8.98647 38.3975 8.98647C38.1791 8.98647 37.9881 8.98647 37.7698 8.98647C37.7698 8.14047 37.7698 7.29446 37.7698 6.47575C37.7698 6.20284 37.7698 5.92994 37.7698 5.68433Z" fill="#2A4199"/>
</svg>
