<svg width="320" height="80" viewBox="0 0 320 80" fill="none" xmlns="http://www.w3.org/2000/svg">
<path fill-rule="evenodd" clip-rule="evenodd" d="M295.152 55.0033C301.048 55.0033 303.779 52.418 303.779 48.0343V44.2127C303.779 42.9764 303.451 42.4142 302.578 41.6274L298.645 38.2553C302.578 34.8832 302.578 34.8832 302.578 34.8832C303.451 34.0964 303.779 33.5346 303.779 32.2979V28.9262C303.779 24.5423 301.048 21.957 295.152 21.957H257.81V55.0033H295.152ZM297.661 49.3829H263.924V41.1778H297.661V49.3829ZM297.661 27.5772H263.924V35.5577H297.661V27.5772Z" fill="#ED2690"/>
<path fill-rule="evenodd" clip-rule="evenodd" d="M229.854 55.0033C235.861 55.0033 238.592 52.418 238.592 48.0343V44.2127C238.592 42.9764 238.264 42.4142 237.39 41.6274L233.458 38.2553C237.39 34.8832 237.39 34.8832 237.39 34.8832C238.264 34.0964 238.592 33.5346 238.592 32.2979V28.9262C238.592 24.5423 235.861 21.957 229.854 21.957H192.623V55.0033H229.854ZM232.478 49.3829H198.737V41.1778H232.478V49.3829ZM232.478 27.5772H198.737V35.5577H232.478V27.5772Z" fill="#ED2690"/>
<path d="M165.652 21.957C165.652 49.1584 165.652 49.1583 165.652 49.1583C133.768 49.1583 133.768 49.1583 133.768 49.1583C133.768 21.957 133.768 21.957 133.768 21.957C127.654 21.957 127.654 21.957 127.654 21.957C127.654 47.4722 127.654 47.4721 127.654 47.4721C127.654 52.1932 130.492 55.0033 135.953 55.0033C163.47 55.0033 163.47 55.0033 163.47 55.0033C168.928 55.0033 171.766 52.1932 171.766 47.4721C171.766 21.957 171.766 21.957 171.766 21.957H165.652Z" fill="#ED2690"/>
<path d="M68.3627 35.4454C68.3627 21.957 68.3627 21.957 68.3627 21.957C62.3596 21.957 62.3596 21.957 62.3596 21.957C62.3596 55.0033 62.3596 55.0033 62.3596 55.0033C68.3627 55.0033 68.3627 55.0033 68.3627 55.0033C68.3627 41.2902 68.3627 41.2901 68.3627 41.2901C100.792 41.2901 100.792 41.2901 100.792 41.2901C100.792 55.0032 100.792 55.0033 100.792 55.0033C106.799 55.0033 106.799 55.0033 106.799 55.0033C106.799 21.957 106.799 21.957 106.799 21.957C100.792 21.957 100.792 21.957 100.792 21.957C100.792 35.4454 100.792 35.4454 100.792 35.4454H68.3627Z" fill="#ED2690"/>
<path d="M44.6715 27.8021C44.6715 21.957 44.6715 21.957 44.6715 21.957C9.07407 21.957 9.07407 21.957 9.07407 21.957C3.61454 21.957 0.884811 24.7673 0.884811 29.488C0.884811 47.4721 0.884811 47.4721 0.884811 47.4721C0.884811 52.1932 3.61454 55.0033 9.07407 55.0033C44.6715 55.0033 44.6715 55.0033 44.6715 55.0033C44.6715 49.1584 44.6715 49.1583 44.6715 49.1583C6.99932 49.1583 6.99933 49.1583 6.99933 49.1583C6.99933 27.8021 6.99933 27.8021 6.99933 27.8021H44.6715Z" fill="#ED2690"/>
<path d="M318.066 25.5542C316.975 26.6779 315.884 27.1279 314.351 27.1279C313.04 27.1279 311.735 26.6779 310.858 25.5542C309.767 24.6551 309.332 23.306 309.332 21.957C309.332 20.3833 309.767 19.2589 310.858 18.1352C311.735 17.236 313.04 16.5615 314.351 16.5615C315.884 16.5615 316.975 17.236 318.066 18.1352C318.936 19.2589 319.592 20.3833 319.592 21.957C319.592 23.306 318.936 24.6551 318.066 25.5542ZM311.293 18.8096C310.423 19.4841 309.988 20.6079 309.988 21.957C309.988 23.0807 310.423 24.2052 311.293 25.1043C312.17 26.0034 313.261 26.4533 314.351 26.4533C315.663 26.4533 316.754 26.0034 317.631 25.1043C318.501 24.2052 318.722 23.0807 318.722 21.957C318.722 20.6079 318.501 19.4841 317.631 18.8096C316.754 17.9105 315.663 17.4605 314.351 17.4605C313.261 17.4605 312.17 17.9105 311.293 18.8096ZM314.351 19.0341C315.007 19.0341 315.442 19.0341 315.884 19.2585C316.54 19.4838 316.754 19.9331 316.754 20.6076C316.754 21.2822 316.54 21.5068 316.098 21.7321C315.884 21.9565 315.663 21.9565 315.442 22.1813C315.884 22.1813 316.098 22.4066 316.319 22.6313C316.54 22.8557 316.541 23.3057 316.541 23.5303C316.541 23.9803 316.541 23.9803 316.541 23.9803C316.541 24.2047 316.754 24.2047 316.754 24.4294C316.754 24.6547 316.754 24.6548 316.754 24.6548C316.754 24.8792 316.754 24.8792 316.754 24.8792C315.885 24.8792 315.885 24.8792 315.885 24.8792C315.885 24.6547 315.885 24.6548 315.885 24.6548C315.663 24.4295 315.663 24.4294 315.663 24.4294C315.663 23.9803 315.663 23.9803 315.663 23.9803C315.663 23.3057 315.663 22.8558 315.229 22.6313C315.007 22.6313 314.573 22.4068 314.138 22.4068C313.261 22.4068 313.261 22.4068 313.261 22.4068C313.261 24.8795 313.261 24.8796 313.261 24.8796C312.391 24.8796 312.391 24.8796 312.391 24.8796C312.391 19.0341 312.391 19.0341 312.391 19.0341H314.352H314.351ZM315.442 19.9333C315.228 19.7088 314.786 19.7089 314.138 19.7089C313.261 19.7089 313.261 19.7089 313.261 19.7089C313.261 21.7324 313.261 21.7324 313.261 21.7324C314.351 21.7324 314.351 21.7324 314.351 21.7324C314.573 21.7324 315.007 21.7324 315.228 21.7324C315.663 21.5071 315.663 21.2825 315.663 20.8333C315.663 20.3834 315.663 20.1588 315.442 19.9335L315.442 19.9333Z" fill="#ED2690"/>
</svg>
