<svg width="139" height="27" viewBox="0 0 139 27" fill="none" xmlns="http://www.w3.org/2000/svg">
<path d="M16.5885 0C16.5885 0 16.4544 0 16.3873 0C16.3203 0 16.1861 0 16.1861 0C6.63988 0.127687 0 4.32313 0 10.1968C0 16.0704 6.63989 20.2658 16.1638 20.3935C16.1638 20.3935 16.2979 20.3935 16.365 20.3935C16.432 20.3935 16.5662 20.3935 16.5662 20.3935C26.09 20.2658 32.7299 16.0704 32.7299 10.1968C32.7523 4.32313 26.1124 0.127687 16.5885 0ZM16.3873 17.0736C9.41209 17.0189 4.91843 14.3192 4.91843 10.1968C4.91843 6.07427 9.41209 3.3746 16.365 3.31987C23.3178 3.3746 27.8115 6.07427 27.8115 10.1968C27.8115 14.3192 23.3402 17.0189 16.3873 17.0736Z" fill="#070606"/>
<path d="M121.865 0C121.865 0 121.731 0 121.664 0C121.597 0 121.463 0 121.463 0C111.939 0.127687 105.299 4.32313 105.299 10.1968C105.299 16.0704 111.939 20.2658 121.463 20.3935C121.463 20.3935 121.597 20.3935 121.664 20.3935C121.731 20.3935 121.865 20.3935 121.865 20.3935C131.389 20.2658 138.029 16.0704 138.029 10.1968C138.051 4.32313 131.389 0.127687 121.865 0ZM121.664 17.0736C114.711 17.0189 110.218 14.3192 110.218 10.1968C110.218 6.07427 114.711 3.3746 121.664 3.31987C128.617 3.3746 133.111 6.07427 133.111 10.1968C133.111 14.3192 128.617 17.0189 121.664 17.0736Z" fill="#070606"/>
<path d="M86.8551 0C86.8551 0 86.7209 0 86.6538 0C86.5868 0 86.4526 0 86.4526 0C81.9143 0.0547235 78.0243 1.03975 75.2074 2.69969V0.948541H70.2889V26.7598H75.2074V17.7122C78.0243 19.3539 81.9143 20.3389 86.4526 20.4119C86.4526 20.4119 86.5868 20.4119 86.6538 20.4119C86.7209 20.4119 86.8551 20.4119 86.8551 20.4119C96.3789 20.2842 103.019 16.0887 103.019 10.2151C103.019 4.32316 96.3565 0.127688 86.8551 0ZM86.6315 17.0737C79.6786 17.019 75.185 14.3193 75.185 10.1968C75.185 6.07431 79.6786 3.37462 86.6315 3.31989C93.5843 3.37462 98.078 6.07431 98.078 10.1968C98.078 14.3193 93.5843 17.019 86.6315 17.0737Z" fill="#070606"/>
<path d="M51.7105 0C51.7105 0 51.5763 0 51.5093 0C51.4422 0 51.308 0 51.308 0C46.7697 0.0547235 42.8796 1.03975 40.0627 2.69969V0.948541H35.1443V26.7598H40.0627V17.7122C42.8796 19.3539 46.7697 20.3389 51.308 20.4119C51.308 20.4119 51.4422 20.4119 51.5093 20.4119C51.5763 20.4119 51.7105 20.4119 51.7105 20.4119C61.2343 20.2842 67.8742 16.0887 67.8742 10.2151C67.8966 4.32316 61.2343 0.127688 51.7105 0ZM51.5093 17.0737C44.5564 17.019 40.0627 14.3193 40.0627 10.1968C40.0627 6.07431 44.5564 3.37462 51.5093 3.31989C58.4621 3.37462 62.9558 6.07431 62.9558 10.1968C62.9558 14.3193 58.4621 17.019 51.5093 17.0737Z" fill="#070606"/>
</svg>
