<svg width="304" height="80" viewBox="0 0 304 80" fill="none" xmlns="http://www.w3.org/2000/svg">
<g clip-path="url(#clip0)">
<path d="M251.13 24.4912H249.31L238.587 51.0152C238.11 52.3304 237.497 53.5919 236.757 54.779C236.481 55.1277 236.139 55.4185 235.751 55.6346C235.363 55.8507 234.935 55.9879 234.494 56.0382L233.118 56.1251V58.7173H244.892V56.144H244.175C243.285 56.2223 242.389 56.0801 241.567 55.7299L241.549 55.7187L241.533 55.7076C241.372 55.6374 241.235 55.5219 241.138 55.3753C241.041 55.2287 240.989 55.0571 240.988 54.8814C241.123 54.2102 241.31 53.5508 241.549 52.9092C241.558 52.8848 242.609 50.0632 242.874 49.317H252.622C252.778 49.68 252.971 50.0999 252.971 50.0999C253.381 51.0832 253.68 51.7879 253.82 52.171C254.197 53.0818 254.452 54.0385 254.577 55.0161C254.577 55.6697 254.346 55.7698 254.254 55.7988L254.225 55.81L254.203 55.8289C253.331 56.1136 252.411 56.2207 251.497 56.144H250.769V58.7173H267.61V56.144H266.706C266.308 56.1284 265.921 56.011 265.582 55.803C265.242 55.5949 264.962 55.3032 264.768 54.9559C263.857 53.3338 263.05 51.6558 262.352 49.9318L251.618 24.4912H251.13ZM247.633 37.1887C248.544 39.4067 250.693 44.6625 251.266 46.0646H244.246C244.769 44.6872 246.771 39.4256 247.633 37.1887ZM302.481 25.1583H291.713V27.7528H292.192C292.755 27.6753 293.329 27.7288 293.869 27.909C294.408 28.0892 294.899 28.3912 295.303 28.7918L295.319 28.8239L295.348 28.844C295.839 29.736 296.036 30.7608 295.909 31.7714C295.909 31.7714 295.933 41.1282 295.909 44.1102C293.735 41.4546 280.402 25.1583 280.402 25.1583H268.881V27.7528H270.084C270.24 27.7528 270.59 27.8919 271.298 28.5265C272.02 29.2137 272.7 29.9444 273.333 30.7146V52.9828C273.395 53.4123 273.359 53.8502 273.228 54.2636C273.096 54.6771 272.872 55.0554 272.574 55.3701L272.558 55.3801L272.545 55.3924C271.699 55.8167 270.765 56.0357 269.819 56.0316L268.888 56.1016V58.7173H281.428V56.0951L280.765 56.0317C279.637 56.0639 278.53 55.7251 277.614 55.0673C277.027 54.2066 276.778 53.1602 276.914 52.1277C276.914 52.1277 276.901 38.3301 276.914 35.1142C279.177 37.8624 297.089 59.5972 297.089 59.5972H299.499V30.8271C299.414 30.0613 299.571 29.2883 299.946 28.6157C300.289 28.3089 300.694 28.0807 301.135 27.947C301.575 27.8134 302.038 27.7775 302.494 27.8419L303.2 27.8328V25.1583H302.481ZM201.712 25.1583H199.396V27.7261L201.799 27.7505C202.475 27.7742 203.139 27.9361 203.75 28.226C204.075 28.4554 204.333 28.7679 204.496 29.1308C204.659 29.4937 204.722 29.8938 204.678 30.2893V53.6098C204.701 53.9409 204.653 54.2729 204.538 54.5843C204.423 54.8957 204.244 55.1794 204.013 55.417C203.348 55.9002 202.529 56.1192 201.712 56.0316H199.396V58.7173H216.74C222.642 58.7173 227.105 57.0147 230.356 53.4873C233.26 50.1581 234.778 45.8422 234.596 41.4279C234.738 37.3836 233.289 33.4449 230.561 30.4563C227.396 26.9398 222.577 25.1583 216.266 25.1583L201.712 25.1583ZM213.805 53.5361V29.3295C213.792 29.2016 213.813 29.0726 213.863 28.9545C213.914 28.8364 213.993 28.7329 214.094 28.6535C214.817 28.3173 215.614 28.1723 216.408 28.2326C219.671 28.2326 221.942 29.9197 223.368 33.3848C224.424 36.1221 224.929 39.0413 224.853 41.9745C224.853 47.0078 223.973 50.7012 222.261 52.9639C221.509 53.8587 220.557 54.5633 219.481 55.0203C218.406 55.4774 217.238 55.6739 216.072 55.594C215.41 55.6447 214.747 55.5179 214.15 55.2266C213.871 54.7095 213.751 54.1213 213.805 53.5361ZM197.352 25.1583H184.428C184.428 25.1583 176.56 43.803 175.411 46.5389C174.242 43.803 166.358 25.1583 166.358 25.1583H153.274V27.7261H153.744C154.784 27.6094 155.833 27.8425 156.726 28.3886C156.975 28.6753 157.161 29.0112 157.272 29.3746C157.383 29.7379 157.416 30.1205 157.37 30.4976V53.044C157.37 54.5863 157.02 55.2266 156.739 55.4793L156.726 55.4982C155.6 55.9754 154.377 56.1777 153.158 56.0884H151.942V58.713H165.58V56.0884H164.85C163.149 56.0884 162.08 55.8289 161.596 55.2943C160.985 54.3788 160.713 53.2782 160.828 52.1833C160.828 52.1833 160.895 38.565 160.917 33.5842C163.077 38.6674 171.611 58.713 171.611 58.713H173.787C173.787 58.713 182.386 38.2242 184.568 33.0074V53.3201C184.568 54.1142 184.435 55.1541 183.851 55.5527C182.954 55.9053 182 56.0891 181.036 56.095L180.384 56.1541V58.713H198.089V56.0629L197.436 56.0138C196.299 55.9784 195.175 55.7646 194.105 55.3801L194.087 55.3646L194.069 55.3445C193.828 55.1541 193.412 54.5128 193.412 52.4861V31.4585C193.412 29.3963 193.877 28.5744 194.269 28.2415C195.247 27.8465 196.299 27.6705 197.351 27.7261H198.089V25.1583H197.352ZM150.971 25.1583H139.504V27.7192L140.455 27.7504C141.467 27.7732 142.473 27.908 143.455 28.1524L143.482 28.1691L143.506 28.188C143.679 28.257 143.818 28.3888 143.897 28.5569C143.976 28.7249 143.989 28.9167 143.932 29.0934C143.874 29.2382 138.417 39.0014 137.453 40.8075C136.491 38.9636 132.327 30.9575 132.327 30.9575L132.304 30.9297L131.977 30.3561C131.977 30.3561 131.763 29.9965 131.745 29.9486C131.491 29.5453 131.327 29.0918 131.264 28.6191C131.264 28.4275 131.284 28.0957 131.454 28.0323L131.487 28.0277L131.52 28.0142C132.434 27.7704 133.382 27.682 134.324 27.7526L135.05 27.7191V25.1583H116.655V27.7528H117.285C118.498 27.7493 119.686 28.0987 120.704 28.7582C121.083 29.1392 121.399 29.5787 121.639 30.0599C121.639 30.0599 129.995 45.3496 130.171 45.6602V52.4305C130.171 54.4403 129.79 55.1776 129.458 55.4538C128.508 55.839 127.492 56.0352 126.467 56.0316L125.81 56.095V58.7173H143.932V56.0951L143.602 56.0317C142.37 56.0087 141.15 55.793 139.985 55.3925C139.678 55.1587 139.328 54.4593 139.328 52.4306V43.8753C139.542 43.5312 147.479 29.4052 147.479 29.4052C148.006 28.7016 148.768 28.211 149.626 28.0232C150.119 27.8948 150.62 27.7955 151.125 27.7261H151.967V25.1583H150.971ZM114.62 25.1583H99.3798V27.7528H100.794C101.772 27.67 102.757 27.7746 103.696 28.0611L103.712 28.0645L103.738 28.0811C103.843 28.123 103.932 28.1985 103.99 28.2957C104.048 28.393 104.072 28.5067 104.059 28.6191C104.036 28.8839 103.955 29.1404 103.823 29.3708C103.518 29.7258 103.083 30.1703 102.556 30.7003C102.556 30.7003 95.4291 37.869 93.5094 39.811V31.3983C93.5094 29.7705 93.8123 28.6659 94.3913 28.1959C94.5473 28.0811 94.8234 27.7528 96.6229 27.7528H96.9926V25.1583H80.2208V27.6814L80.8755 27.7505C81.7717 27.7982 82.6573 27.9675 83.5079 28.2538C83.8216 28.5172 84.064 28.8555 84.2127 29.2373C84.3613 29.6191 84.4115 30.0322 84.3585 30.4385V53.4504C84.3585 54.8469 83.9377 55.2823 83.6237 55.4859C82.7482 55.8326 81.8171 56.0176 80.8755 56.0316L80.2208 56.1016V58.7173H97.0614V56.0738L97.0347 56.0316C96.0862 55.9938 95.1517 55.7902 94.2733 55.4302C93.9856 55.1945 93.764 54.8881 93.6301 54.5411C93.4962 54.1941 93.4546 53.8183 93.5094 53.4504V44.4276C93.643 44.2997 93.7522 44.2028 93.9837 43.9811C94.8678 45.0947 102.124 54.231 102.124 54.231L102.15 54.2556C103.008 55.1162 103.083 55.6485 103.094 55.81C103.023 55.8447 102.947 55.8697 102.87 55.8845C101.954 56.0102 101.03 56.0594 100.106 56.0316H99.4534V58.7173H117.646V56.0316H116.087C115.725 56.055 115.361 56.0185 115.011 55.9235L114.987 55.9091L114.969 55.9035C114.68 55.8007 114.431 55.6099 114.256 55.358C114.256 55.358 101.008 38.8679 100.24 37.9191C103.696 34.3826 105.883 32.1678 106.771 31.365C109.464 28.9363 111.987 27.7528 114.472 27.7528H115.348V25.1583H114.62Z" fill="url(#paint0_linear)"/>
<path d="M251.13 24.4912H249.31L238.587 51.0152C238.11 52.3304 237.497 53.5919 236.757 54.779C236.481 55.1277 236.139 55.4185 235.751 55.6346C235.363 55.8507 234.935 55.9879 234.494 56.0382L233.118 56.1251V58.7173H244.892V56.144H244.175C243.285 56.2223 242.389 56.0801 241.567 55.7299L241.549 55.7187L241.533 55.7076C241.372 55.6374 241.235 55.5219 241.138 55.3753C241.041 55.2287 240.989 55.0571 240.988 54.8814C241.123 54.2102 241.31 53.5508 241.549 52.9092C241.558 52.8848 242.609 50.0632 242.874 49.317H252.622C252.778 49.68 252.971 50.0999 252.971 50.0999C253.381 51.0832 253.68 51.7879 253.82 52.171C254.197 53.0818 254.452 54.0385 254.577 55.0161C254.577 55.6697 254.346 55.7698 254.254 55.7988L254.225 55.81L254.203 55.8289C253.331 56.1136 252.411 56.2207 251.497 56.144H250.769V58.7173H267.61V56.144H266.706C266.308 56.1284 265.921 56.011 265.582 55.803C265.242 55.5949 264.962 55.3032 264.768 54.9559C263.857 53.3338 263.05 51.6558 262.352 49.9318L251.618 24.4912H251.13ZM247.633 37.1887C248.544 39.4067 250.693 44.6625 251.266 46.0646H244.246C244.769 44.6872 246.771 39.4256 247.633 37.1887ZM302.481 25.1583H291.713V27.7528H292.192C292.755 27.6753 293.329 27.7288 293.869 27.909C294.408 28.0892 294.899 28.3912 295.303 28.7918L295.319 28.8239L295.348 28.844C295.839 29.736 296.036 30.7608 295.909 31.7714C295.909 31.7714 295.933 41.1282 295.909 44.1102C293.735 41.4546 280.402 25.1583 280.402 25.1583H268.881V27.7528H270.084C270.24 27.7528 270.59 27.8919 271.298 28.5265C272.02 29.2137 272.7 29.9444 273.333 30.7146V52.9828C273.395 53.4123 273.359 53.8502 273.228 54.2636C273.096 54.6771 272.872 55.0554 272.574 55.3701L272.558 55.3801L272.545 55.3924C271.699 55.8167 270.765 56.0357 269.819 56.0316L268.888 56.1016V58.7173H281.428V56.0951L280.765 56.0317C279.637 56.0639 278.53 55.7251 277.614 55.0673C277.027 54.2066 276.778 53.1602 276.914 52.1277C276.914 52.1277 276.901 38.3301 276.914 35.1142C279.177 37.8624 297.089 59.5972 297.089 59.5972H299.499V30.8271C299.414 30.0613 299.571 29.2883 299.946 28.6157C300.289 28.3089 300.694 28.0807 301.135 27.947C301.575 27.8134 302.038 27.7775 302.494 27.8419L303.2 27.8328V25.1583H302.481ZM201.712 25.1583H199.396V27.7261L201.799 27.7505C202.475 27.7742 203.139 27.9361 203.75 28.226C204.075 28.4554 204.333 28.7679 204.496 29.1308C204.659 29.4937 204.722 29.8938 204.678 30.2893V53.6098C204.701 53.9409 204.653 54.2729 204.538 54.5843C204.423 54.8957 204.244 55.1794 204.013 55.417C203.348 55.9002 202.529 56.1192 201.712 56.0316H199.396V58.7173H216.74C222.642 58.7173 227.105 57.0147 230.356 53.4873C233.26 50.1581 234.778 45.8422 234.596 41.4279C234.738 37.3836 233.289 33.4449 230.561 30.4563C227.396 26.9398 222.577 25.1583 216.266 25.1583L201.712 25.1583ZM213.805 53.5361V29.3295C213.792 29.2016 213.813 29.0726 213.863 28.9545C213.914 28.8364 213.993 28.7329 214.094 28.6535C214.817 28.3173 215.614 28.1723 216.408 28.2326C219.671 28.2326 221.942 29.9197 223.368 33.3848C224.424 36.1221 224.929 39.0413 224.853 41.9745C224.853 47.0078 223.973 50.7012 222.261 52.9639C221.509 53.8587 220.557 54.5633 219.481 55.0203C218.406 55.4774 217.238 55.6739 216.072 55.594C215.41 55.6447 214.747 55.5179 214.15 55.2266C213.871 54.7095 213.751 54.1213 213.805 53.5361ZM197.352 25.1583H184.428C184.428 25.1583 176.56 43.803 175.411 46.5389C174.242 43.803 166.358 25.1583 166.358 25.1583H153.274V27.7261H153.744C154.784 27.6094 155.833 27.8425 156.726 28.3886C156.975 28.6753 157.161 29.0112 157.272 29.3746C157.383 29.7379 157.416 30.1205 157.37 30.4976V53.044C157.37 54.5863 157.02 55.2266 156.739 55.4793L156.726 55.4982C155.6 55.9754 154.377 56.1777 153.158 56.0884H151.942V58.713H165.58V56.0884H164.85C163.149 56.0884 162.08 55.8289 161.596 55.2943C160.985 54.3788 160.713 53.2782 160.828 52.1833C160.828 52.1833 160.895 38.565 160.917 33.5842C163.077 38.6674 171.611 58.713 171.611 58.713H173.787C173.787 58.713 182.386 38.2242 184.568 33.0074V53.3201C184.568 54.1142 184.435 55.1541 183.851 55.5527C182.954 55.9053 182 56.0891 181.036 56.095L180.384 56.1541V58.713H198.089V56.0629L197.436 56.0138C196.299 55.9784 195.175 55.7646 194.105 55.3801L194.087 55.3646L194.069 55.3445C193.828 55.1541 193.412 54.5128 193.412 52.4861V31.4585C193.412 29.3963 193.877 28.5744 194.269 28.2415C195.247 27.8465 196.299 27.6705 197.351 27.7261H198.089V25.1583H197.352ZM150.971 25.1583H139.504V27.7192L140.455 27.7504C141.467 27.7732 142.473 27.908 143.455 28.1524L143.482 28.1691L143.506 28.188C143.679 28.257 143.818 28.3888 143.897 28.5569C143.976 28.7249 143.989 28.9167 143.932 29.0934C143.874 29.2382 138.417 39.0014 137.453 40.8075C136.491 38.9636 132.327 30.9575 132.327 30.9575L132.304 30.9297L131.977 30.3561C131.977 30.3561 131.763 29.9965 131.745 29.9486C131.491 29.5453 131.327 29.0918 131.264 28.6191C131.264 28.4275 131.284 28.0957 131.454 28.0323L131.487 28.0277L131.52 28.0142C132.434 27.7704 133.382 27.682 134.324 27.7526L135.05 27.7191V25.1583H116.655V27.7528H117.285C118.498 27.7493 119.686 28.0987 120.704 28.7582C121.083 29.1392 121.399 29.5787 121.639 30.0599C121.639 30.0599 129.995 45.3496 130.171 45.6602V52.4305C130.171 54.4403 129.79 55.1776 129.458 55.4538C128.508 55.839 127.492 56.0352 126.467 56.0316L125.81 56.095V58.7173H143.932V56.0951L143.602 56.0317C142.37 56.0087 141.15 55.793 139.985 55.3925C139.678 55.1587 139.328 54.4593 139.328 52.4306V43.8753C139.542 43.5312 147.479 29.4052 147.479 29.4052C148.006 28.7016 148.768 28.211 149.626 28.0232C150.119 27.8948 150.62 27.7955 151.125 27.7261H151.967V25.1583H150.971ZM114.62 25.1583H99.3798V27.7528H100.794C101.772 27.67 102.757 27.7746 103.696 28.0611L103.712 28.0645L103.738 28.0811C103.843 28.123 103.932 28.1985 103.99 28.2957C104.048 28.393 104.072 28.5067 104.059 28.6191C104.036 28.8839 103.955 29.1404 103.823 29.3708C103.518 29.7258 103.083 30.1703 102.556 30.7003C102.556 30.7003 95.4291 37.869 93.5094 39.811V31.3983C93.5094 29.7705 93.8123 28.6659 94.3913 28.1959C94.5473 28.0811 94.8234 27.7528 96.6229 27.7528H96.9926V25.1583H80.2208V27.6814L80.8755 27.7505C81.7717 27.7982 82.6573 27.9675 83.5079 28.2538C83.8216 28.5172 84.064 28.8555 84.2127 29.2373C84.3613 29.6191 84.4115 30.0322 84.3585 30.4385V53.4504C84.3585 54.8469 83.9377 55.2823 83.6237 55.4859C82.7482 55.8326 81.8171 56.0176 80.8755 56.0316L80.2208 56.1016V58.7173H97.0614V56.0738L97.0347 56.0316C96.0862 55.9938 95.1517 55.7902 94.2733 55.4302C93.9856 55.1945 93.764 54.8881 93.6301 54.5411C93.4962 54.1941 93.4546 53.8183 93.5094 53.4504V44.4276C93.643 44.2997 93.7522 44.2028 93.9837 43.9811C94.8678 45.0947 102.124 54.231 102.124 54.231L102.15 54.2556C103.008 55.1162 103.083 55.6485 103.094 55.81C103.023 55.8447 102.947 55.8697 102.87 55.8845C101.954 56.0102 101.03 56.0594 100.106 56.0316H99.4534V58.7173H117.646V56.0316H116.087C115.725 56.055 115.361 56.0185 115.011 55.9235L114.987 55.9091L114.969 55.9035C114.68 55.8007 114.431 55.6099 114.256 55.358C114.256 55.358 101.008 38.8679 100.24 37.9191C103.696 34.3826 105.883 32.1678 106.771 31.365C109.464 28.9363 111.987 27.7528 114.472 27.7528H115.348V25.1583H114.62Z" fill="#E20016"/>
</g>
<g clip-path="url(#clip1)">
<path d="M4.23807 66.8953L5.28914 66.8335C5.33036 67.1426 5.45402 67.39 5.6395 67.596C5.82499 67.8021 6.09291 67.9464 6.48448 68.0701C6.87606 68.1937 7.28825 68.2555 7.78287 68.2555C8.21567 68.2555 8.58664 68.2143 8.89578 68.1113C9.22552 68.0082 9.45223 67.8846 9.6171 67.7197C9.78198 67.5548 9.86441 67.39 9.86441 67.1839C9.86441 66.9984 9.78198 66.8129 9.63771 66.6686C9.49345 66.5244 9.22552 66.4007 8.87517 66.2977C8.64846 66.2358 8.15384 66.1328 7.37069 65.9885C6.58753 65.8443 6.05169 65.7206 5.74255 65.5969C5.35097 65.4939 5.04183 65.2878 4.85635 65.0611C4.67086 64.8344 4.56782 64.5871 4.56782 64.2986C4.56782 63.9894 4.69147 63.7009 4.93878 63.4124C5.1861 63.1238 5.53646 62.9383 5.98986 62.7941C6.44327 62.6498 6.9585 62.588 7.53556 62.588C8.15384 62.588 8.71029 62.6704 9.18431 62.8147C9.65832 62.959 10.0293 63.1857 10.2766 63.4742C10.5239 63.7627 10.6682 64.0925 10.6888 64.4428L9.6171 64.5046C9.55527 64.1131 9.36979 63.8245 9.04004 63.6184C8.71029 63.4124 8.21567 63.3093 7.57678 63.3093C6.89667 63.3093 6.42266 63.3917 6.11352 63.5772C5.78377 63.7627 5.6395 63.9894 5.6395 64.2367C5.6395 64.4634 5.74255 64.6489 5.96925 64.7932C6.17534 64.9374 6.7318 65.0817 7.63861 65.226C8.54542 65.3702 9.1637 65.5145 9.49345 65.6176C9.98807 65.7824 10.3384 65.9885 10.5857 66.2564C10.8331 66.5244 10.9361 66.8129 10.9361 67.1426C10.9361 67.4724 10.8124 67.7815 10.5445 68.0701C10.2972 68.3586 9.92624 68.5853 9.43162 68.7502C8.9576 68.915 8.42176 68.9975 7.80348 68.9975C7.04094 68.9975 6.40205 68.915 5.88681 68.7502C5.37158 68.5853 4.98 68.338 4.67086 68.0082C4.40294 67.6785 4.25868 67.3075 4.23807 66.8953Z" fill="#E20016"/>
<path d="M13.2048 68.8948V62.6914H14.0292V68.8948H13.2048Z" fill="#E20016"/>
<path d="M16.605 68.8948V62.6914H17.7591L22.2726 67.5552V62.6914H23.3649V68.8948H22.2108L17.6973 64.031V68.8948H16.605Z" fill="#E20016"/>
<path d="M31.4222 66.7098L32.5557 66.9159C32.3084 67.596 31.8962 68.1113 31.2779 68.4616C30.6596 68.812 29.8971 68.9975 29.0109 68.9975C28.0835 68.9975 27.3415 68.8532 26.7645 68.5853C26.1874 68.3174 25.7546 67.9258 25.4455 67.4106C25.1363 66.8953 24.9921 66.3389 24.9921 65.7412C24.9921 65.1023 25.1569 64.5253 25.5073 64.0512C25.8577 63.5772 26.3317 63.2063 26.9706 62.959C27.6095 62.7116 28.2896 62.588 29.0521 62.588C29.9177 62.588 30.639 62.7529 31.2161 63.062C31.7931 63.3711 32.2053 63.8245 32.432 64.4016L31.3191 64.5871C31.113 64.1337 30.8245 63.8039 30.4535 63.5978C30.0826 63.3917 29.6086 63.2887 29.0315 63.2887C28.372 63.2887 27.8155 63.4124 27.3827 63.6391C26.95 63.8658 26.6202 64.1749 26.4553 64.5665C26.2698 64.9581 26.1874 65.3496 26.1874 65.7618C26.1874 66.2977 26.2905 66.7511 26.4965 67.1426C26.7026 67.5342 27.0324 67.8228 27.4858 68.0288C27.9392 68.2143 28.4132 68.3174 28.9491 68.3174C29.5879 68.3174 30.1238 68.1937 30.5566 67.9258C30.9688 67.6373 31.2779 67.2457 31.4222 66.7098Z" fill="#E20016"/>
<path d="M34.492 68.8948V62.6914H40.6748V63.4127H35.6255V65.3088H40.3657V66.0301H35.6255V68.1529H40.8809V68.8742H34.492V68.8948Z" fill="#E20016"/>
<path d="M49.1253 68.8941H48.3628V64.051C48.1773 64.2158 47.93 64.4013 47.6414 64.5662C47.3529 64.7311 47.085 64.8753 46.8377 64.9578V64.2158C47.2705 64.0097 47.6414 63.783 47.9506 63.4945C48.2597 63.206 48.4864 62.9381 48.6307 62.6701H49.1253V68.8941Z" fill="#E20016"/>
<path d="M52.154 67.4515L53.1227 67.3897C53.2051 67.74 53.37 67.9873 53.5967 68.1316C53.8234 68.2965 54.1119 68.3583 54.4829 68.3583C54.792 68.3583 55.0599 68.2965 55.2866 68.1934C55.5133 68.0904 55.6988 67.9461 55.8637 67.7606C56.0286 67.5751 56.1316 67.3484 56.2347 67.0393C56.3377 66.7302 56.3789 66.421 56.3789 66.1119C56.3789 66.0707 56.3789 66.0294 56.3789 65.9676C56.1728 66.2149 55.9049 66.4004 55.5545 66.5653C55.2042 66.7096 54.8332 66.792 54.421 66.792C53.7409 66.792 53.1639 66.6065 52.7105 66.2355C52.2571 65.8646 52.0098 65.37 52.0098 64.7723C52.0098 64.154 52.2571 63.6388 52.7517 63.2472C53.2463 62.8556 53.844 62.6701 54.5859 62.6701C55.1218 62.6701 55.5958 62.7732 56.0492 62.9999C56.482 63.2266 56.8323 63.5357 57.059 63.9273C57.2857 64.3189 57.4094 64.9165 57.4094 65.6791C57.4094 66.4622 57.3063 67.1011 57.0796 67.5751C56.8529 68.0492 56.5232 68.3995 56.0698 68.6468C55.6164 68.8941 55.1011 69.0178 54.5035 69.0178C53.8646 69.0178 53.3494 68.8735 52.9372 68.6056C52.525 68.3377 52.2365 67.9461 52.154 67.4515ZM56.2553 64.7311C56.2553 64.2983 56.111 63.9479 55.8019 63.7006C55.4927 63.4533 55.1218 63.309 54.689 63.309C54.2356 63.309 53.8646 63.4533 53.5348 63.7212C53.2051 63.9891 53.0402 64.3601 53.0402 64.7929C53.0402 65.1845 53.2051 65.5142 53.5142 65.7615C53.8234 66.0088 54.2149 66.1325 54.6683 66.1325C55.1424 66.1325 55.5133 66.0088 55.8019 65.7615C56.111 65.4936 56.2553 65.1639 56.2553 64.7311Z" fill="#E20016"/>
<path d="M59.3886 67.2663L60.4397 67.2044C60.5222 67.596 60.7076 67.8846 60.9756 68.0906C61.2641 68.2967 61.5938 68.3792 62.006 68.3792C62.48 68.3792 62.8922 68.2349 63.222 67.967C63.5517 67.6991 63.7166 67.3281 63.7166 66.8747C63.7166 66.4419 63.5517 66.0915 63.2426 65.8442C62.9128 65.5969 62.5006 65.4733 61.9854 65.4733C61.6557 65.4733 61.3671 65.5351 61.1198 65.6381C60.8519 65.7412 60.6664 65.8854 60.5015 66.0709L59.5535 65.9679L60.3367 62.794H64.3761V63.5154H61.1198L60.687 65.1847C61.1816 64.9168 61.6969 64.7932 62.2327 64.7932C62.9334 64.7932 63.5517 64.9786 64.0257 65.3496C64.4997 65.7206 64.7677 66.2152 64.7677 66.7923C64.7677 67.3487 64.5616 67.8433 64.1288 68.2555C63.6135 68.7501 62.8922 69.0181 61.9854 69.0181C61.2435 69.0181 60.6458 68.8532 60.1718 68.544C59.7184 68.2143 59.4505 67.7815 59.3886 67.2663Z" fill="#E20016"/>
<path d="M69.8797 68.8948V67.411H66.3143V66.7102L70.0651 62.6914H70.8895V66.7102H72.0024V67.411H70.8895V68.8948H69.8797ZM69.8797 66.7102V63.9074L67.3241 66.7102H69.8797Z" fill="#E20016"/>
</g>
<g clip-path="url(#clip2)">
<path d="M6.34175 16H18.7676V38.6519L21.4629 33.1822H35.5336L29.2711 46.262L35.5336 59.5995H21.4629L18.8271 54.3081V59.5995H6.34175V29.7339H0L6.34175 16Z" fill="#E20016"/>
<path d="M57.214 16H26.0998L32.0452 29.6149H38.1887V59.5995C38.1887 59.5995 54.7763 59.5995 58.3436 59.5995C61.9108 59.5995 72.018 54.8432 72.018 37.1458C71.9981 19.4285 57.214 16 57.214 16ZM49.049 46.262V29.6744C49.049 29.6744 59.3939 28.2277 59.3939 38.3349C59.3939 48.442 49.049 46.262 49.049 46.262Z" fill="#E20016"/>
</g>
<defs>
<linearGradient id="paint0_linear" x1="22.5803" y1="-0.898586" x2="353.923" y2="83.0223" gradientUnits="userSpaceOnUse">
<stop stop-color="#B07833"/>
<stop offset="0.24849" stop-color="#C69E3B"/>
<stop offset="0.36364" stop-color="#E7C21E"/>
<stop offset="0.53333" stop-color="#F1DA4E"/>
<stop offset="0.72121" stop-color="#E7C21E"/>
<stop offset="0.89706" stop-color="#B27A2D"/>
<stop offset="1" stop-color="#A26528"/>
</linearGradient>
<clipPath id="clip0">
<rect x="80" y="24" width="223.2" height="36" fill="white"/>
</clipPath>
<clipPath id="clip1">
<rect x="4.23807" y="62.588" width="67.7635" height="6.4095" fill="white"/>
</clipPath>
<clipPath id="clip2">
<rect y="16" width="71.9987" height="43.5995" fill="white"/>
</clipPath>
</defs>
</svg>
