<svg width="44" height="33" viewBox="0 0 44 33" fill="none" xmlns="http://www.w3.org/2000/svg">
<path d="M5.04727 27.7391C4.62078 27.0283 4.12324 26.6728 3.4835 26.6728C3.34134 26.6728 3.12804 26.6728 2.98588 26.7439C2.84372 26.815 2.63049 26.8861 2.55941 26.9572C2.27508 27.1704 2.06182 27.4547 1.91966 27.8102C1.77749 28.1656 1.70646 28.6631 1.70646 29.2318C1.70646 30.0848 1.84859 30.7245 2.204 31.2221C2.48833 31.7196 2.98592 31.9329 3.55457 31.9329C3.76781 31.9329 4.05214 31.8618 4.26539 31.7907C4.47863 31.6486 4.76296 31.5064 4.9762 31.2931L5.47374 31.9329C5.11833 32.2883 4.69186 32.5015 4.33645 32.6437C3.98104 32.7859 3.55459 32.8569 3.1281 32.8569C2.70161 32.8569 2.27508 32.7859 1.84859 32.5726C1.49318 32.4305 1.13776 32.1461 0.853433 31.8618C0.569106 31.5775 0.355931 31.2221 0.213768 30.7956C0.0716046 30.3691 0.000488281 29.8715 0.000488281 29.3739C0.000488281 28.8053 0.0715872 28.3077 0.284832 27.8812C0.426995 27.4547 0.711322 27.0283 0.995648 26.7439C1.27997 26.4596 1.70645 26.1753 2.13294 26.0331C2.55943 25.8909 3.057 25.7488 3.55457 25.7488C3.69673 25.7488 3.8389 25.7488 3.90998 25.7488C4.05214 25.7488 4.12322 25.7488 4.26539 25.8199C4.40755 25.8199 4.47863 25.8909 4.62079 25.8909C4.76296 25.8909 4.83404 25.962 4.9762 26.0331V27.7391H5.04727Z" fill="#1E3683"/>
<path d="M5.82914 29.3027C5.90022 29.0184 6.11354 28.7341 6.2557 28.5208C6.46894 28.3076 6.68219 28.1654 6.96652 28.0233C7.25084 27.8811 7.53512 27.8811 7.89052 27.8811C8.24593 27.8811 8.53029 27.9522 8.81462 28.0233C9.09895 28.1654 9.31219 28.3076 9.52544 28.5208C9.73868 28.7341 9.88083 29.0184 9.95191 29.3027C10.0941 29.5871 10.094 29.9425 10.094 30.369C10.094 30.7244 10.023 31.0798 9.95191 31.4352C9.88083 31.7195 9.6676 32.0038 9.52544 32.2171C9.31219 32.4303 9.09895 32.5725 8.81462 32.7147C8.53029 32.8568 8.24593 32.8568 7.89052 32.8568C7.53512 32.8568 7.25084 32.7857 6.96652 32.7147C6.68219 32.5725 6.46894 32.4303 6.2557 32.2171C6.04245 32.0038 5.90022 31.7195 5.82914 31.4352C5.68698 31.1509 5.68701 30.7954 5.68701 30.369C5.68701 30.0136 5.75806 29.6581 5.82914 29.3027ZM7.39299 29.0184C7.25082 29.3027 7.17971 29.7292 7.17971 30.369C7.17971 31.5063 7.46402 32.146 7.96159 32.146C8.45916 32.146 8.74356 31.5773 8.74356 30.369C8.74356 29.8003 8.67244 29.3027 8.53028 29.0184C8.38811 28.7341 8.24592 28.5919 7.96159 28.5919C7.67726 28.5919 7.46407 28.7341 7.39299 29.0184Z" fill="#1E3683"/>
<path d="M10.9469 32.6436C10.9469 32.5725 10.9469 32.5725 10.9469 32.5014C10.9469 32.3592 10.9469 32.146 10.9469 31.9327C10.9469 31.7195 10.9469 31.5773 10.9469 31.4352V29.3027C10.9469 29.1606 10.9469 29.0184 10.9469 28.8052C10.9469 28.5919 10.9469 28.4497 10.9469 28.2365C10.9469 28.1654 10.9469 28.1654 10.9469 28.0943C10.9469 28.0233 10.9469 27.9522 10.9469 27.8811H12.4396V28.2365C12.6529 28.0943 12.9372 27.9522 13.0794 27.8811C13.2926 27.81 13.5059 27.7389 13.7191 27.7389C14.2167 27.7389 14.5721 27.8811 14.8564 28.2365C15.0697 28.0943 15.2829 27.9522 15.5672 27.81C15.7805 27.7389 16.0648 27.6678 16.2781 27.6678C16.5624 27.6678 16.8467 27.7389 17.0599 27.8811C17.2732 28.0233 17.4864 28.2365 17.5575 28.4497C17.6286 28.5919 17.6997 28.8052 17.6997 29.0895V31.293V31.5063C17.6997 31.5773 17.6997 31.6484 17.6997 31.7906C17.6997 32.0038 17.6997 32.2171 17.6997 32.3592C17.6997 32.4303 17.6997 32.5014 17.6997 32.5014C17.6997 32.5725 17.6997 32.5725 17.6997 32.7146H16.0648C16.0648 32.6436 16.0648 32.5725 16.0648 32.5014C16.0648 32.4303 16.0648 32.4303 16.0648 32.3592C16.0648 32.2882 16.0648 32.0749 16.0648 31.7906C16.0648 31.7195 16.0648 31.5773 16.0648 31.5063C16.0648 31.4352 16.0648 31.3641 16.0648 31.293V29.2317C16.0648 29.0895 16.0648 28.9473 15.9937 28.9473C15.9937 28.8762 15.9226 28.7341 15.7804 28.7341C15.6383 28.7341 15.5672 28.663 15.425 28.663C15.2829 28.663 15.2118 28.663 15.0696 28.7341C14.9985 28.8052 14.8564 28.8762 14.7854 28.9473V31.3641C14.7854 31.5773 14.7854 31.7906 14.7854 32.0038C14.7854 32.2171 14.7853 32.4303 14.8564 32.7146H13.2926C13.2926 32.6436 13.2926 32.5725 13.2926 32.5014C13.2926 32.4303 13.2926 32.4303 13.2926 32.3592C13.2926 32.2171 13.2927 32.0038 13.3637 31.8617C13.3637 31.6484 13.3637 31.5063 13.3637 31.3641V29.1606C13.3637 29.0184 13.2926 28.8762 13.2215 28.7341C13.1504 28.663 13.0083 28.5919 12.8661 28.5919C12.6529 28.5919 12.4396 28.663 12.2264 28.8762V31.293C12.2264 31.4352 12.2264 31.5773 12.2264 31.7906C12.2264 32.0038 12.2264 32.146 12.2264 32.3592C12.2264 32.4303 12.2264 32.4303 12.2264 32.5014C12.2264 32.5725 12.2264 32.5725 12.2264 32.7146H10.6626C10.9469 32.7146 10.9469 32.6436 10.9469 32.6436Z" fill="#1E3683"/>
<path d="M18.6955 32.6436C18.6955 32.5725 18.6955 32.5725 18.6955 32.5014C18.6955 32.3592 18.6955 32.146 18.6955 31.9327C18.6955 31.7195 18.6955 31.5773 18.6955 31.4352V29.3027C18.6955 29.1606 18.6955 29.0184 18.6955 28.8052C18.6955 28.5919 18.6955 28.4497 18.6955 28.2365C18.6955 28.1654 18.6955 28.1654 18.6955 28.0943C18.6955 28.0233 18.6955 27.9522 18.6955 27.8811H20.1882V28.2365C20.4014 28.0943 20.6858 27.9522 20.8279 27.8811C21.0412 27.81 21.2543 27.7389 21.4676 27.7389C21.9652 27.7389 22.3206 27.8811 22.605 28.2365C22.8182 28.0943 23.0315 27.9522 23.3158 27.81C23.529 27.7389 23.8134 27.6678 24.0266 27.6678C24.3109 27.6678 24.5952 27.7389 24.8085 27.8811C25.0217 28.0233 25.2349 28.2365 25.306 28.4497C25.3771 28.5919 25.4482 28.8052 25.4482 29.0895V31.293V31.5063C25.4482 31.5773 25.4482 31.6484 25.4482 31.7906C25.4482 32.0038 25.4482 32.2171 25.4482 32.3592C25.4482 32.4303 25.4482 32.5014 25.4482 32.5014C25.4482 32.5725 25.4482 32.5725 25.4482 32.7146H23.8133C23.8133 32.6436 23.8133 32.5725 23.8133 32.5014C23.8133 32.4303 23.8133 32.4303 23.8133 32.3592C23.8133 32.2882 23.8133 32.0749 23.8133 31.7906C23.8133 31.7195 23.8133 31.5773 23.8133 31.5063C23.8133 31.4352 23.8133 31.3641 23.8133 31.293V29.2317C23.8133 29.0895 23.8133 28.9473 23.7423 28.9473C23.7423 28.8762 23.6711 28.7341 23.529 28.7341C23.4579 28.663 23.3157 28.663 23.1736 28.663C23.0314 28.663 22.9603 28.663 22.8182 28.7341C22.7471 28.8052 22.6049 28.8762 22.5338 28.9473V31.3641C22.5338 31.5773 22.5338 31.7906 22.5338 32.0038C22.5338 32.2171 22.5339 32.4303 22.605 32.7146H21.0411C21.0411 32.6436 21.0411 32.5725 21.0411 32.5014C21.0411 32.4303 21.0411 32.4303 21.0411 32.3592C21.0411 32.2171 21.0411 32.0038 21.1122 31.8617C21.1122 31.6484 21.1122 31.5063 21.1122 31.3641V29.1606C21.1122 29.0184 21.0411 28.8762 20.9701 28.7341C20.899 28.663 20.7568 28.5919 20.6146 28.5919C20.4014 28.5919 20.1881 28.663 19.9749 28.8762V31.293C19.9749 31.4352 19.9749 31.5773 19.9749 31.7906C19.9749 32.0038 19.9749 32.146 19.9749 32.3592C19.9749 32.4303 19.9749 32.4303 19.9749 32.5014C19.9749 32.5725 19.9749 32.5725 19.9749 32.7146H18.4111C18.6955 32.7146 18.6955 32.6436 18.6955 32.6436Z" fill="#1E3683"/>
<path d="M26.6562 26.1752C26.7983 26.0331 27.0826 26.0331 27.438 26.0331C27.6513 26.0331 27.8646 26.1042 28.0067 26.2463C28.1489 26.3885 28.2199 26.5307 28.2199 26.7439C28.2199 27.0282 28.1489 27.1704 28.0067 27.3125C27.8646 27.4547 27.5802 27.4547 27.2248 27.4547C26.9405 27.4547 26.7983 27.3836 26.6562 27.2415C26.514 27.0993 26.4429 26.9571 26.4429 26.7439C26.4429 26.4596 26.514 26.3174 26.6562 26.1752ZM26.5851 32.075C26.5851 31.8618 26.5851 31.5774 26.5851 31.4353V29.2318V29.0185C26.5851 28.9474 26.5851 28.8763 26.5851 28.7342C26.5851 28.5209 26.5851 28.3788 26.5851 28.2366C26.5851 28.0944 26.5851 28.0234 26.5851 27.8812H28.1488V31.3642C28.1488 31.5774 28.1488 31.8618 28.1488 32.075C28.1488 32.2883 28.1488 32.5015 28.2199 32.7858H26.6562C26.514 32.5726 26.514 32.3593 26.5851 32.075Z" fill="#1E3683"/>
<path d="M28.5042 27.9523H29.215V27.7391V27.4548C29.215 27.3126 29.215 27.0994 29.215 26.9572C29.215 26.815 29.215 26.6018 29.1439 26.3885H30.6366V27.9523H31.5607V28.6632H30.6366V31.3643C30.6366 31.7908 30.7788 32.004 31.0631 32.004C31.1342 32.004 31.2764 32.004 31.3474 31.9329C31.4185 31.9329 31.4896 31.8618 31.6318 31.7907V32.6437C31.4185 32.7148 31.2763 32.7148 31.0631 32.7859C30.9209 32.7859 30.7077 32.857 30.5656 32.857C30.1391 32.857 29.7837 32.7859 29.4993 32.5726C29.2861 32.3594 29.1439 32.0751 29.1439 31.6486V28.6632H28.4331V27.9523H28.5042Z" fill="#1E3683"/>
<path d="M31.4896 27.9523H32.2004V27.7391V27.4548C32.2004 27.3126 32.2004 27.0994 32.2004 26.9572C32.2004 26.815 32.2004 26.6018 32.1293 26.3885H33.6221V27.9523H34.5461V28.6632H33.6221V31.3643C33.6221 31.7908 33.7642 32.004 34.0485 32.004C34.1196 32.004 34.2618 32.004 34.3329 31.9329C34.404 31.9329 34.546 31.8618 34.6171 31.7907V32.6437C34.4039 32.7148 34.2618 32.7148 34.0485 32.7859C33.9064 32.7859 33.6931 32.857 33.5509 32.857C33.1244 32.857 32.769 32.7859 32.4847 32.5726C32.2714 32.3594 32.1293 32.0751 32.1293 31.6486V28.6632H31.4185V27.9523H31.4896Z" fill="#1E3683"/>
<path d="M1.06689 22.1946V1.08337H6.25589C9.02807 1.08337 10.9473 1.43878 12.0135 2.22068C13.2219 3.07366 13.7905 4.8507 13.7905 7.48072C13.7905 8.19154 13.7905 8.68911 13.7905 8.97343C13.7905 9.25776 13.7194 9.68425 13.5772 10.1818C13.5062 10.7505 13.2218 11.248 12.8664 11.8167C12.0134 13.1672 10.6629 13.807 8.67259 13.807H5.90048V22.1946H1.06689ZM5.90048 4.8507V10.1107H7.10883C7.81965 10.1107 8.31722 9.8975 8.53046 9.54209C8.74371 9.1156 8.88587 8.40478 8.88587 7.40964C8.88587 6.27233 8.67261 5.49043 8.24612 5.13502C7.96179 4.92178 7.39316 4.77962 6.39802 4.77962H5.90048V4.8507Z" fill="#1E3683"/>
<path d="M15.4964 15.0154H20.1878V16.5792C20.1878 17.29 20.2589 17.7876 20.4722 18.0719C20.7565 18.4984 21.1829 18.7117 21.8226 18.7117C22.3202 18.7117 22.7468 18.5695 23.0311 18.2141C23.3154 17.9298 23.4575 17.5033 23.4575 17.0768C23.4575 16.1527 22.8889 15.1576 21.6805 14.1624L19.6191 12.5987C18.1264 11.3192 17.2024 10.5373 16.9181 10.253C16.5627 9.82648 16.2072 9.25782 15.994 8.61809C15.7807 7.97835 15.7096 7.33862 15.7096 6.6278C15.7096 4.63752 16.2783 3.1448 17.3445 2.22074C18.4108 1.2256 19.9035 0.728027 21.8938 0.728027C23.9552 0.728027 25.4478 1.2256 26.4429 2.14966C27.4381 3.07372 27.9357 4.35319 27.9357 6.05915V7.97835H23.3865V6.84104C23.3865 6.20131 23.3154 5.70374 23.1732 5.27725C22.96 4.77968 22.5335 4.49536 21.8938 4.49536C21.3962 4.49536 20.9697 4.63752 20.6853 4.85076C20.401 5.13509 20.2589 5.56158 20.2589 6.05915C20.2589 6.69888 20.8986 7.55186 22.107 8.61809L24.2394 10.253C26.1586 11.9589 27.2248 13.0251 27.5092 13.4516C28.0067 14.3757 28.2911 15.5841 28.2911 17.0768C28.2911 18.3563 27.7936 19.4936 26.8695 20.5598C25.6611 21.8393 23.9551 22.479 21.6805 22.479C19.5481 22.479 17.8421 21.9104 16.7759 20.702C15.8518 19.7779 15.4253 18.6406 15.4253 17.29V15.0154H15.4964Z" fill="#1E3683"/>
<path d="M30.3525 22.1946V1.08337H37.6029C39.5932 1.08337 40.9438 1.65203 41.7967 2.71825C42.5076 3.64231 42.863 4.99286 42.863 6.7699V16.7924C42.863 18.5695 42.2943 19.92 41.2281 20.9151C40.304 21.7681 39.0956 22.1946 37.6029 22.1946H30.3525ZM35.1861 4.70854V18.5695H35.968C37.3186 18.5695 38.0294 18.0008 38.0294 16.7924V6.48558C38.0294 5.27719 37.3186 4.70854 35.968 4.70854H35.1861Z" fill="#1E3683"/>
<path d="M36.3233 30.9378C36.3943 31.2932 36.5365 31.5775 36.7497 31.7907C36.963 32.004 37.2474 32.0751 37.5317 32.0751C37.9582 32.0751 38.3136 31.8618 38.669 31.5064L39.0955 32.0751C39.0244 32.1462 38.9533 32.2172 38.9533 32.2883C38.8823 32.3594 38.8822 32.3594 38.8111 32.4305C38.3135 32.7859 37.816 32.9281 37.1763 32.9281C36.8209 32.9281 36.4655 32.857 36.1811 32.7148C35.8968 32.5726 35.6125 32.4305 35.4703 32.2172C35.2571 32.004 35.1149 31.7197 34.9727 31.3643C34.8305 31.0089 34.8306 30.6534 34.8306 30.298C34.8306 29.9426 34.9016 29.5872 34.9727 29.3029C35.1149 29.0186 35.2571 28.7342 35.3993 28.521C35.6125 28.3078 35.8257 28.1656 36.1101 28.0234C36.3944 27.8813 36.6787 27.8102 37.0341 27.8102C37.6738 27.8102 38.1714 27.9523 38.5268 28.3077C38.8822 28.6632 39.0954 29.1607 39.1665 29.8005L36.3233 30.9378ZM36.1811 30.0848C36.1811 30.1559 36.1811 30.1559 36.1811 30.227L37.3895 29.7294C37.5317 29.6583 37.6028 29.5161 37.6028 29.374C37.6028 29.1607 37.5317 28.9475 37.3895 28.8053C37.2473 28.6632 37.1052 28.5921 36.963 28.5921C36.7498 28.5921 36.5365 28.7342 36.3943 28.9475C36.2522 29.1607 36.1811 29.5161 36.1811 29.9426C36.1811 29.9426 36.1811 30.0137 36.1811 30.0848Z" fill="#1E3683"/>
<path d="M41.1563 30.9378C41.2274 31.2932 41.3695 31.5775 41.5827 31.7907C41.796 32.004 42.0803 32.0751 42.3646 32.0751C42.7911 32.0751 43.1465 31.8618 43.5019 31.5064L43.9285 32.0751C43.8574 32.1462 43.7863 32.2172 43.7863 32.2883C43.7152 32.3594 43.7152 32.3594 43.6441 32.4305C43.1466 32.7859 42.6489 32.9281 42.0092 32.9281C41.6538 32.9281 41.2984 32.857 41.0141 32.7148C40.7297 32.5726 40.4454 32.4305 40.3032 32.2172C40.09 32.004 39.9479 31.7197 39.8057 31.3643C39.6635 31.0089 39.6636 30.6534 39.6636 30.298C39.6636 29.9426 39.7346 29.5872 39.8057 29.3029C39.9479 29.0186 40.09 28.7342 40.2322 28.521C40.4454 28.3078 40.6587 28.1656 40.943 28.0234C41.2273 27.8813 41.5117 27.8102 41.8671 27.8102C42.5068 27.8102 43.0044 27.9523 43.3598 28.3077C43.7152 28.6632 43.9285 29.1607 43.9995 29.8005L41.1563 30.9378ZM41.0141 30.0848C41.0141 30.1559 41.0141 30.1559 41.0141 30.227L42.2225 29.7294C42.3647 29.6583 42.4357 29.5161 42.4357 29.374C42.4357 29.1607 42.3647 28.9475 42.2225 28.8053C42.0803 28.6632 41.9382 28.5921 41.796 28.5921C41.5828 28.5921 41.3695 28.7342 41.2273 28.9475C41.0852 29.1607 41.0141 29.5161 41.0141 29.9426C40.943 29.9426 40.943 30.0137 41.0141 30.0848Z" fill="#1E3683"/>
</svg>
