<svg width="41" height="16" viewBox="0 0 41 16" fill="none" xmlns="http://www.w3.org/2000/svg">
<g clip-path="url(#clip0)">
<path d="M18.6524 3.26123C15.7862 3.26123 13.4932 5.40137 13.4932 8.0001C13.4932 10.5988 15.7862 12.739 18.6524 12.739C21.5187 12.739 23.8117 10.5988 23.8117 8.0001C23.7735 5.40137 21.4422 3.26123 18.6524 3.26123ZM18.6524 11.0192C17.162 11.0192 15.939 9.64342 15.939 8.0001C15.939 6.35678 17.162 4.98098 18.6524 4.98098C20.1429 4.98098 21.3658 6.35678 21.3658 8.0001C21.3276 9.68164 20.1047 11.0192 18.6524 11.0192Z" fill="#008C44"/>
<path d="M41.1238 9.91102C41.1238 9.56707 41.0091 9.22312 40.8945 8.91738C40.7416 8.61165 40.5123 8.34413 40.1684 8.11483C40.0155 8.00018 39.8244 7.92375 39.6333 7.8091C39.9773 7.65623 40.2448 7.38871 40.4359 7.1212C40.7416 6.70081 40.8563 6.204 40.8563 5.66896C40.8181 4.98106 40.5888 4.44603 40.1302 4.06386C39.6716 3.68169 39.0219 3.45239 38.1429 3.45239H33.0601V12.4715H37.4932C38.2575 12.4715 38.9454 12.3569 39.4805 12.1658C40.0537 11.9747 40.4741 11.669 40.7416 11.2486C41.0091 10.9429 41.1238 10.4461 41.1238 9.91102ZM36.8817 4.90463C37.99 4.90463 38.3722 5.13393 38.3722 5.9747C38.3722 6.70081 37.9136 7.00655 36.9199 7.00655H36.3085L35.697 8.68808H36.9964C38.1047 8.68808 38.6779 9.07025 38.6779 9.91102C38.6779 10.79 38.0664 11.134 36.9199 11.134H35.4295V4.90463H36.8817Z" fill="#008C44"/>
<path d="M32.0665 10.3314C31.4932 10.79 30.7289 11.0958 29.9264 11.0958C28.1302 11.0958 26.6779 9.71996 26.6779 8.07664C26.6779 6.43332 28.1302 5.05752 29.9264 5.05752C30.7289 5.05752 31.4932 5.32504 32.0665 5.82185V3.94924C31.3022 3.56707 30.4232 3.33777 29.4678 3.33777C26.5633 3.33777 24.1938 5.43969 24.1938 8.07664C24.1938 10.6754 26.5251 12.7773 29.4678 12.7773C30.385 12.7773 31.2639 12.5862 32.0665 12.1658V10.3314Z" fill="#008C44"/>
<path d="M0.0409175 8.64971C0.193784 10.0637 0.843468 11.3249 1.79889 12.2421C1.68424 11.9364 1.64602 11.6306 1.72245 11.3631C1.91354 10.5223 2.79252 9.94908 3.97724 9.758V5.70703C0.843468 5.17199 -0.188383 7.12105 0.0409175 8.64971Z" fill="#E39717"/>
<path d="M11.9266 7.31222C11.7737 5.8982 11.124 4.63705 10.1686 3.71985C10.2832 3.98737 10.3215 4.2931 10.245 4.59883C10.0539 5.4396 9.17495 6.01285 7.99023 6.20393V10.2931C11.0858 10.8282 12.0794 8.84089 11.9266 7.31222Z" fill="#E39717"/>
<path d="M0.117432 6.66256C0.919983 5.55428 2.41043 4.90459 5.0856 5.66893C9.82448 7.00651 11.3149 3.91096 8.63976 2.64981C7.83721 2.22942 6.92001 2.00012 5.96459 2.00012C3.13655 2.00012 0.728899 3.98739 0.117432 6.66256Z" fill="#E39717"/>
<path d="M11.8115 9.29944C11.0089 10.4077 9.51847 11.0574 6.8433 10.2931C2.10443 8.95549 0.575763 12.051 3.25093 13.3504C4.05348 13.7708 4.97069 14.0001 5.9261 14.0001C8.83057 13.9619 11.2 11.9746 11.8115 9.29944Z" fill="#E39717"/>
</g>
<defs>
<clipPath id="clip0">
<rect y="0.00012207" width="41" height="16" fill="white"/>
</clipPath>
</defs>
</svg>
