<svg width="284" height="80" viewBox="0 0 284 80" fill="none" xmlns="http://www.w3.org/2000/svg">
<g clip-path="url(#clip0)">
<path d="M69.3506 8.31169C69.2208 8.57143 69.0909 8.57143 68.961 8.7013L53.3766 20.5195L24.5455 8.18182L6.23376 0.38961C5.71428 0.25974 5.1948 0.12987 4.80519 0C5.1948 0 5.58441 0 5.97402 0H64.5455C67.1429 0 69.0909 0.909091 70 2.46753C70.7792 4.02597 70.6493 6.1039 69.3506 8.31169Z" fill="url(#paint0_linear)"/>
<path d="M31.2987 60.5195C31.039 60.1299 30.7792 59.8701 30.5195 59.4805L1.16883 8.31169C-0.12987 6.1039 -0.25974 4.02597 0.519481 2.46753C1.2987 1.16883 2.85714 0.25974 4.8052 0C5.32468 0 5.71429 0.12987 6.1039 0.38961L24.4156 8.18182L30.6494 58.7013C30.7792 59.3507 30.9091 60 31.2987 60.5195Z" fill="url(#paint1_linear)"/>
<path d="M69.2208 8.44153L40.1299 59.4805C38.8312 61.6883 37.1428 62.987 35.3247 62.987C33.8961 62.987 32.4675 62.2078 31.2987 60.6493C31.2987 60.6493 31.2987 60.6493 31.2987 60.5194C30.9091 60 30.7792 59.3506 30.6493 58.7013L28.3117 39.2207L53.3766 20.3896L68.961 8.5714C69.0909 8.5714 69.2208 8.5714 69.2208 8.44153Z" fill="url(#paint2_linear)"/>
<path d="M99.2208 16.3636V54.6753H89.8701V16.3636H79.7403V8.83118H109.351V16.3636H99.2208Z" fill="#5C2F86"/>
<path d="M150 23.2468C150 25.3247 149.61 27.4026 148.831 29.2208C148.052 31.039 146.883 32.5974 145.325 33.8961C143.766 35.1948 141.818 36.2338 139.61 37.013C137.273 37.7922 134.675 38.1818 131.688 38.1818C130.909 38.1818 130.13 38.1818 129.351 38.052C128.571 38.052 127.922 37.9221 127.403 37.7922V55.4546H118.442V10.6494C120.26 9.87014 122.208 9.22078 124.545 8.83117C126.753 8.31169 129.351 8.18182 131.948 8.18182C137.792 8.18182 142.338 9.6104 145.325 12.3377C148.442 14.9351 150 18.7013 150 23.2468ZM141.039 23.2468C141.039 17.9221 138.052 15.1948 132.078 15.1948C131.169 15.1948 130.26 15.1948 129.481 15.3247C128.571 15.4546 127.922 15.5844 127.403 15.8442V30.7792C128.442 31.039 129.61 31.1688 131.299 31.1688C134.545 31.1688 137.013 30.5195 138.571 29.0909C140.26 27.6623 141.039 25.7143 141.039 23.2468Z" fill="#5C2F86"/>
<path d="M188.701 42.4676C188.701 46.4935 187.273 49.6104 184.286 51.9481C181.299 54.2857 177.143 55.3247 171.688 55.3247C170.519 55.3247 169.351 55.3247 168.182 55.065C167.013 54.9351 165.844 54.8052 164.675 54.5455C163.636 54.2857 162.468 54.026 161.558 53.7663C160.649 53.5065 159.74 53.1169 159.091 52.8572V10.6494C160.649 9.87015 162.468 9.35067 164.675 8.96106C166.883 8.57145 169.091 8.31171 171.558 8.31171C174.156 8.31171 176.364 8.57145 178.312 9.2208C180.26 9.87015 181.948 10.6494 183.247 11.6883C184.545 12.7273 185.584 14.026 186.234 15.4546C186.883 16.8831 187.273 18.5714 187.273 20.3896C187.273 21.8182 187.013 23.2468 186.494 24.4156C185.974 25.5844 185.455 26.6234 184.675 27.5325C183.896 28.4416 183.117 29.2208 182.208 29.7403C181.299 30.2598 180.39 30.6494 179.481 30.9091V31.039C180.39 31.2987 181.429 31.6883 182.597 32.2078C183.636 32.7273 184.675 33.5065 185.584 34.4156C186.493 35.3247 187.273 36.4935 187.922 37.9221C188.442 39.0909 188.701 40.6494 188.701 42.4676ZM181.948 20.5195C181.948 18.052 181.039 15.974 179.221 14.5455C177.403 13.1169 174.805 12.4676 171.429 12.4676C170 12.4676 168.701 12.5974 167.403 12.7273C166.104 12.987 164.935 13.2468 164.156 13.5065V28.9611H170.779C172.857 28.9611 174.545 28.8312 175.714 28.5714C176.883 28.3117 177.922 27.7922 178.961 27.013C179.87 26.3637 180.649 25.4546 181.169 24.2857C181.688 23.2468 181.948 21.9481 181.948 20.5195ZM183.247 42.2078C183.247 38.7013 181.818 36.2338 179.091 34.6753C178.571 34.4156 178.052 34.1559 177.532 33.8961C177.013 33.7663 176.364 33.5065 175.844 33.3766C175.195 33.2468 174.545 33.1169 173.766 33.1169C172.987 33.1169 172.078 32.987 171.039 32.987H164.156V49.7403C165.065 50.1299 166.104 50.3896 167.532 50.5195C168.961 50.7792 170.26 50.7792 171.688 50.7792C175.455 50.7792 178.312 50 180.39 48.5715C182.338 47.2728 183.247 45.065 183.247 42.2078Z" fill="#5C2F86"/>
<path d="M219.351 52.987C218.701 53.3766 218.052 53.6364 217.143 53.8961C216.234 54.1559 215.325 54.4156 214.416 54.6753C213.377 54.9351 212.338 55.0649 211.299 55.1948C210.26 55.3247 209.091 55.4546 208.052 55.4546C203.506 55.4546 200.13 54.5455 197.922 52.5974C195.714 50.7792 194.545 48.1818 194.545 44.9351C194.545 42.4675 195.065 40.5195 196.234 39.0909C197.403 37.6623 198.961 36.4935 200.779 35.5844C202.597 34.8052 204.805 34.1558 207.143 33.8961C209.481 33.5065 211.948 33.3766 214.416 33.2468V30.6494C214.416 28.052 213.636 26.3636 212.208 25.4545C210.779 24.5455 208.831 24.026 206.623 24.026C205.065 24.026 203.506 24.2857 201.818 24.6753C200.13 25.0649 198.701 25.5844 197.662 26.1039L196.364 22.3377C197.662 21.8182 199.221 21.1688 201.039 20.7792C202.987 20.2597 204.935 20 207.013 20C208.831 20 210.519 20.2597 211.948 20.6494C213.377 21.039 214.675 21.6883 215.844 22.5974C216.883 23.5065 217.792 24.6753 218.312 25.974C218.831 27.4026 219.221 29.0909 219.221 31.1688V52.987H219.351ZM214.545 36.7532C212.727 36.8831 210.909 37.013 209.091 37.2727C207.273 37.4026 205.714 37.7922 204.286 38.3117C202.857 38.8312 201.688 39.6104 200.779 40.6494C199.87 41.6883 199.481 43.1169 199.481 44.8052C199.481 46.8831 200.13 48.4416 201.558 49.6104C202.987 50.7792 205.065 51.4286 207.922 51.4286C209.221 51.4286 210.519 51.2987 211.688 51.039C212.987 50.7792 213.896 50.5195 214.545 50.2597V36.7532V36.7532Z" fill="#5C2F86"/>
<path d="M245.844 54.6753V31.6883C245.844 29.3506 245.195 27.5325 243.766 26.2338C242.338 24.9351 240.26 24.1558 237.403 24.1558C235.844 24.1558 234.545 24.2857 233.247 24.5454C231.948 24.8052 230.909 25.0649 230.13 25.4545V54.6753H224.675V22.2078C226.364 21.5584 228.312 20.9091 230.39 20.5195C232.468 20.1299 234.805 19.8701 237.403 19.8701C241.948 19.8701 245.455 20.9091 247.792 22.8571C250.13 24.8052 251.299 27.6623 251.299 31.1688V54.6753H245.844Z" fill="#5C2F86"/>
<path d="M277.273 54.6753L261.688 37.1429H261.558V54.6753H256.364V7.53247H261.558V36.2338H261.688L276.364 20.5195H282.597L267.403 36.6234L283.507 54.6753H277.273Z" fill="#5C2F86"/>
</g>
<defs>
<linearGradient id="paint0_linear" x1="10.561" y1="-1.44533" x2="60.8857" y2="10.5677" gradientUnits="userSpaceOnUse">
<stop stop-color="#F5B419"/>
<stop offset="0.5269" stop-color="#F68E20"/>
<stop offset="1" stop-color="#E16226"/>
</linearGradient>
<linearGradient id="paint1_linear" x1="30.567" y1="48.796" x2="10.7618" y2="3.6661" gradientUnits="userSpaceOnUse">
<stop stop-color="#F5B419"/>
<stop offset="0.5269" stop-color="#F68E20"/>
<stop offset="1" stop-color="#E16226"/>
</linearGradient>
<linearGradient id="paint2_linear" x1="58.7026" y1="14.1961" x2="34.3519" y2="49.261" gradientUnits="userSpaceOnUse">
<stop stop-color="#F5B419"/>
<stop offset="0.5269" stop-color="#F68E20"/>
<stop offset="0.9193" stop-color="#E46925"/>
<stop offset="1" stop-color="#E16226"/>
</linearGradient>
<clipPath id="clip0">
<rect width="283.766" height="80" fill="white"/>
</clipPath>
</defs>
</svg>
