<svg width="284" height="80" viewBox="0 0 284 80" fill="none" xmlns="http://www.w3.org/2000/svg">
<g clip-path="url(#clip0)">
<path d="M69.3506 8.31169C69.2208 8.57143 69.0909 8.57143 68.961 8.7013L53.3766 20.5195L24.5455 8.18182L6.23376 0.38961C5.71428 0.25974 5.1948 0.12987 4.80519 0C5.1948 0 5.58441 0 5.97402 0H64.5454C67.1429 0 69.0909 0.909091 70 2.46753C70.7792 4.02597 70.6493 6.1039 69.3506 8.31169Z" fill="url(#paint0_linear)"/>
<path d="M31.2987 60.5195C31.039 60.1299 30.7792 59.8701 30.5195 59.4805L1.16883 8.31169C-0.12987 6.1039 -0.25974 4.02597 0.519481 2.46753C1.2987 1.16883 2.85714 0.25974 4.8052 0C5.32468 0 5.71429 0.12987 6.1039 0.38961L24.4156 8.18182L30.6494 58.7013C30.7792 59.3507 30.9091 60 31.2987 60.5195Z" fill="url(#paint1_linear)"/>
<path d="M69.2208 8.44156L40.1299 59.4805C38.8312 61.6883 37.1428 62.987 35.3247 62.987C33.8961 62.987 32.4675 62.2078 31.2987 60.6494C31.2987 60.6494 31.2987 60.6493 31.2987 60.5195C30.9091 60 30.7792 59.3507 30.6493 58.7013L28.3117 39.2208L53.3766 20.3896L68.961 8.57143C69.0909 8.57143 69.2208 8.57143 69.2208 8.44156Z" fill="url(#paint2_linear)"/>
<path d="M88.4416 67.5325H87.013C86.8831 67.5325 86.8831 67.5325 86.7532 67.6623C86.7532 67.6623 86.6234 67.7922 86.6234 67.9221V76.6234C86.6234 76.7532 86.6234 76.7532 86.4935 76.7532C86.4935 76.7532 86.3636 76.7532 86.3636 76.6234L82.4675 68.052C82.3377 67.7922 82.3377 67.6623 82.2078 67.6623C82.2078 67.5325 82.0779 67.5325 81.8182 67.5325H80C79.8701 67.5325 79.6104 67.5325 79.4805 67.6623C79.3506 67.7922 79.3506 67.9221 79.3506 68.1818V79.6104C79.3506 79.7403 79.3506 79.7403 79.4805 79.8701C79.6104 80 79.6104 80 79.7403 80H81.1688C81.2987 80 81.2987 80 81.4286 79.8701C81.4286 79.8701 81.5584 79.7403 81.5584 79.6104V71.1688C81.5584 71.039 81.5584 71.039 81.6883 71.039C81.6883 71.039 81.8182 71.039 81.8182 71.1688L85.5844 79.3506C85.7143 79.6104 85.8442 79.7403 85.974 79.8701C86.1039 80 86.3636 80 86.6234 80H88.3117C88.4416 80 88.7013 80 88.8312 79.7403C88.961 79.6104 88.961 79.4805 88.961 79.2208V67.7922C88.961 67.6623 88.961 67.6623 88.8312 67.5325C88.5714 67.5325 88.5714 67.5325 88.4416 67.5325Z" fill="#5C2F86"/>
<path d="M99.6104 68.1818C99.4805 68.0519 99.2208 67.9221 98.8312 67.7922C98.4416 67.6623 98.052 67.5325 97.6623 67.4026C97.2727 67.2727 96.7533 67.2727 96.2338 67.2727C95.5844 67.2727 95.065 67.4026 94.5455 67.5325C94.026 67.6623 93.5065 67.9221 92.987 68.3117C92.4675 68.7013 92.0779 69.2208 91.8182 69.8701C91.5585 70.5195 91.4286 71.4286 91.4286 72.4675V74.9351C91.4286 75.8442 91.5585 76.6234 91.8182 77.2727C92.0779 77.9221 92.4675 78.4416 92.987 78.8312C93.5065 79.2208 93.8961 79.4805 94.4156 79.7403C94.9351 79.8701 95.4546 80 95.974 80C96.3636 80 96.8831 80 97.4026 80C97.9221 80 98.3117 80 98.7013 79.8701C99.0909 79.8701 99.3507 79.7403 99.6104 79.7403C99.8701 79.7403 99.8701 79.6104 99.8701 79.3506V73.7662C99.8701 73.6364 99.8701 73.6364 99.7403 73.5065C99.6104 73.5065 99.6104 73.3766 99.4805 73.3766H97.7922C97.6624 73.3766 97.6623 73.3766 97.5325 73.5065C97.5325 73.6364 97.4026 73.6364 97.4026 73.7662V78.0519C96.8831 78.0519 96.3636 78.0519 95.7143 78.0519C95.1948 78.0519 94.6753 77.7922 94.1559 77.2727C93.7662 76.7532 93.5065 75.974 93.5065 74.9351V72.4675C93.5065 71.2987 93.7662 70.5195 94.1559 70C94.5455 69.4805 95.1948 69.3506 96.1039 69.3506C96.6234 69.3506 97.1429 69.4805 97.7922 69.6104C98.3117 69.7403 98.8312 69.8701 99.2208 70.1299C99.4805 70.2597 99.6104 70.1299 99.6104 69.8701V68.7013C99.8701 68.5714 99.7403 68.3117 99.6104 68.1818Z" fill="#5C2F86"/>
<path d="M105.584 66.6234C105.714 66.6234 105.714 66.6234 105.844 66.6234L105.974 66.4935L107.143 65.1948L108.312 66.4935L108.442 66.6234C108.442 66.6234 108.571 66.6234 108.571 66.7533H108.701H110.13C110.26 66.7533 110.26 66.7532 110.26 66.6234C110.26 66.4935 110.26 66.4935 110.13 66.4935L108.571 64.5455C108.442 64.4156 108.442 64.4156 108.312 64.2857C108.312 64.2857 108.182 64.2857 108.052 64.2857H105.844C105.714 64.2857 105.714 64.2857 105.584 64.2857C105.584 64.2857 105.455 64.4156 105.325 64.5455L103.766 66.4935L103.636 66.6234C103.636 66.7532 103.636 66.7533 103.766 66.7533H105.584V66.6234Z" fill="#5C2F86"/>
<path d="M112.338 79.4805L109.61 68.961C109.351 67.7922 108.571 67.2727 107.273 67.2727C105.974 67.2727 105.195 67.7922 104.935 68.961L102.208 79.4805C102.208 79.6104 102.208 79.6104 102.338 79.7403C102.338 79.7403 102.468 79.8701 102.597 79.8701H104.416C104.545 79.8701 104.545 79.8701 104.675 79.7403C104.675 79.7403 104.805 79.6104 104.805 79.4805L105.584 76.3636H109.481L110.26 79.4805C110.26 79.6104 110.26 79.6104 110.39 79.7403C110.39 79.7403 110.519 79.8701 110.649 79.8701H112.468C112.597 79.8701 112.597 79.8701 112.727 79.7403C112.208 79.7403 112.338 79.7403 112.338 79.4805C112.338 79.6104 112.338 79.6104 112.338 79.4805C112.338 79.6104 112.338 79.6104 112.338 79.4805ZM105.714 74.5455L106.883 69.6104C106.883 69.4805 106.883 69.4805 107.013 69.3506H107.143C107.273 69.3506 107.273 69.3506 107.273 69.3506C107.273 69.3506 107.403 69.4805 107.403 69.6104L108.571 74.5455H105.714Z" fill="#5C2F86"/>
<path d="M123.636 67.5325H122.208C122.078 67.5325 122.078 67.5325 121.948 67.6623C121.948 67.6623 121.818 67.7922 121.818 67.9221V76.6234C121.818 76.7532 121.818 76.7532 121.688 76.7532C121.688 76.7532 121.558 76.7532 121.558 76.6234L117.662 68.052C117.532 67.7922 117.532 67.6623 117.403 67.6623C117.273 67.5325 117.143 67.5325 117.013 67.5325H115.195C115.065 67.5325 114.805 67.5325 114.675 67.6623C114.545 67.7922 114.545 67.9221 114.545 68.1818V79.6104C114.545 79.7403 114.545 79.7403 114.675 79.8701C114.805 80 114.805 80 114.935 80H116.364C116.493 80 116.493 80 116.623 79.8701C116.753 79.8701 116.753 79.7403 116.753 79.6104V71.1688C116.753 71.039 116.753 71.039 116.883 71.039C116.883 71.039 117.013 71.039 117.013 71.1688L120.779 79.3506C120.909 79.6104 121.039 79.7403 121.169 79.8701C121.299 80 121.558 80 121.818 80H123.506C123.636 80 123.896 80 124.026 79.7403C124.156 79.6104 124.286 79.4805 124.286 79.2208V67.7922C124.286 67.6623 124.286 67.6623 124.156 67.5325C123.766 67.5325 123.636 67.5325 123.636 67.5325Z" fill="#5C2F86"/>
<path d="M141.039 67.5325H139.351C139.221 67.5325 139.221 67.5325 139.091 67.6623C138.961 67.6623 138.961 67.7922 138.961 67.9221V72.5974H134.156V67.9221C134.156 67.7922 134.156 67.7922 134.026 67.6623C134.026 67.6623 133.896 67.5325 133.766 67.5325H132.078C131.948 67.5325 131.948 67.5325 131.818 67.6623C131.688 67.6623 131.688 67.7922 131.688 67.9221V79.7403C131.688 79.8701 131.688 79.8701 131.818 80C131.948 80.1299 131.948 80.1299 132.078 80.1299H133.766C133.896 80.1299 133.896 80.1299 134.026 80C134.156 80 134.156 79.8701 134.156 79.7403V74.6753H138.961V79.7403C138.961 79.8701 138.961 79.8701 139.091 80C139.221 80.1299 139.221 80.1299 139.351 80.1299H141.039C141.169 80.1299 141.169 80.1299 141.299 80C141.299 80 141.429 79.8701 141.429 79.7403V67.9221C141.429 67.7922 141.429 67.7922 141.299 67.6623C141.169 67.5325 141.039 67.5325 141.039 67.5325Z" fill="#5C2F86"/>
<path d="M153.636 79.4805L150.909 68.961C150.649 67.7922 149.87 67.2727 148.571 67.2727C147.273 67.2727 146.493 67.7922 146.234 68.961L143.506 79.4805C143.506 79.6104 143.506 79.6104 143.636 79.7403C143.636 79.7403 143.766 79.8701 143.896 79.8701H145.714C145.844 79.8701 145.844 79.8701 145.974 79.7403C145.974 79.7403 146.104 79.6104 146.104 79.4805L146.883 76.3636H150.779L151.558 79.4805C151.558 79.6104 151.558 79.6104 151.688 79.7403C151.688 79.7403 151.818 79.8701 151.948 79.8701H153.766C153.896 79.8701 153.896 79.8701 154.026 79.7403C153.636 79.7403 153.766 79.7403 153.636 79.4805C153.766 79.6104 153.766 79.6104 153.636 79.4805C153.766 79.6104 153.766 79.6104 153.636 79.4805ZM147.143 74.5455L148.312 69.6104C148.312 69.4805 148.312 69.4805 148.442 69.3506H148.571C148.701 69.3506 148.701 69.3506 148.701 69.3506C148.701 69.3506 148.831 69.4805 148.831 69.6104L150 74.5455H147.143Z" fill="#5C2F86"/>
<path d="M148.571 66.3636C148.571 66.4935 148.571 66.4935 148.571 66.3636C148.701 66.4935 148.831 66.4935 148.831 66.6234H148.961H150.39C150.52 66.6234 150.52 66.6234 150.52 66.4935C150.52 66.3636 150.52 66.3636 150.52 66.3636L148.961 64.4156C148.831 64.2857 148.831 64.2857 148.701 64.1558C148.701 64.1558 148.571 64.1558 148.442 64.1558H146.623C146.494 64.1558 146.494 64.1558 146.494 64.2857C146.494 64.2857 146.494 64.4156 146.623 64.4156L148.571 66.3636Z" fill="#5C2F86"/>
<path d="M165.065 67.5325H163.636C163.506 67.5325 163.506 67.5325 163.377 67.6623C163.377 67.6623 163.247 67.7922 163.247 67.9221V76.6234C163.247 76.7532 163.247 76.7532 163.117 76.7532C163.117 76.7532 162.987 76.7532 162.987 76.6234L159.091 68.052C158.961 67.7922 158.961 67.6623 158.831 67.6623C158.701 67.5325 158.571 67.5325 158.442 67.5325H156.623C156.493 67.5325 156.234 67.5325 156.104 67.6623C155.974 67.7922 155.844 67.9221 155.844 68.1818V79.6104C155.844 79.7403 155.844 79.7403 155.974 79.8701C156.104 80 156.104 80 156.234 80H157.662C157.792 80 157.792 80 157.922 79.8701C157.922 79.8701 158.052 79.7403 158.052 79.6104V71.1688C158.052 71.039 158.052 71.039 158.182 71.039C158.182 71.039 158.312 71.039 158.312 71.1688L162.078 79.3506C162.208 79.6104 162.338 79.7403 162.468 79.8701C162.597 80 162.857 80 163.117 80H164.805C164.935 80 165.195 80 165.325 79.7403C165.455 79.6104 165.584 79.4805 165.584 79.2208V67.7922C165.584 67.6623 165.584 67.6623 165.455 67.5325C165.195 67.5325 165.065 67.5325 165.065 67.5325Z" fill="#5C2F86"/>
<path d="M176.104 68.1818C175.974 68.0519 175.714 67.9221 175.325 67.7922C174.935 67.6623 174.545 67.5325 174.156 67.4026C173.766 67.2727 173.247 67.2727 172.727 67.2727C172.078 67.2727 171.558 67.4026 171.039 67.5325C170.519 67.6623 170 67.9221 169.48 68.3117C168.961 68.7013 168.571 69.2208 168.312 69.8701C168.052 70.5195 167.922 71.4286 167.922 72.4675V74.9351C167.922 75.8442 168.052 76.6234 168.312 77.2727C168.571 77.9221 168.961 78.4416 169.48 78.8312C170 79.2208 170.39 79.4805 170.909 79.7403C171.429 79.8701 171.948 80 172.468 80C172.857 80 173.377 80 173.896 80C174.416 80 174.805 80 175.195 79.8701C175.584 79.8701 175.844 79.7403 176.104 79.7403C176.364 79.7403 176.364 79.6104 176.364 79.3506V73.7662C176.364 73.6364 176.364 73.6364 176.234 73.5065C176.104 73.5065 176.104 73.3766 175.974 73.3766H174.286C174.156 73.3766 174.156 73.3766 174.026 73.5065C174.026 73.6364 173.896 73.6364 173.896 73.7662V78.0519C173.377 78.0519 172.857 78.0519 172.208 78.0519C171.688 78.0519 171.169 77.7922 170.649 77.2727C170.26 76.7532 170 75.974 170 74.9351V72.4675C170 71.2987 170.26 70.5195 170.649 70C171.039 69.4805 171.688 69.3506 172.597 69.3506C173.117 69.3506 173.636 69.4805 174.286 69.6104C174.805 69.7403 175.325 69.8701 175.714 70.1299C175.974 70.2597 176.104 70.1299 176.104 69.8701V68.7013C176.494 68.5714 176.364 68.3117 176.104 68.1818Z" fill="#5C2F86"/>
<path d="M192.338 67.5325H184.156C184.026 67.5325 184.026 67.5325 183.896 67.6623C183.896 67.6623 183.766 67.7922 183.766 67.9221V69.2208C183.766 69.3507 183.766 69.3507 183.896 69.4805C184.026 69.4805 184.026 69.6104 184.156 69.6104H187.143V79.7403C187.143 79.8701 187.143 79.8701 187.273 80C187.403 80.1299 187.403 80.1299 187.532 80.1299H189.221C189.351 80.1299 189.351 80.1299 189.481 80C189.481 80 189.61 79.8701 189.61 79.7403V69.6104H192.597C192.727 69.6104 192.727 69.6104 192.857 69.4805C192.987 69.4805 192.987 69.3507 192.987 69.2208V67.9221C192.987 67.7922 192.987 67.7922 192.857 67.6623C192.468 67.5325 192.468 67.5325 192.338 67.5325Z" fill="#5C2F86"/>
<path d="M196.883 67.5325H195.195C195.065 67.5325 195.065 67.5325 194.935 67.6623C194.805 67.6623 194.805 67.7922 194.805 67.9221V79.7403C194.805 79.8701 194.805 79.8701 194.935 80C195.065 80.1299 195.065 80.1299 195.195 80.1299H196.883C197.013 80.1299 197.013 80.1299 197.143 80C197.273 80 197.273 79.8701 197.273 79.7403V67.9221C197.273 67.7922 197.273 67.7922 197.143 67.6623C197.143 67.5325 197.013 67.5325 196.883 67.5325Z" fill="#5C2F86"/>
<path d="M207.273 67.5325C206.364 67.4026 205.325 67.2727 204.156 67.2727C203.377 67.2727 202.727 67.4026 202.078 67.5325C201.558 67.6623 201.039 68.0519 200.779 68.5714C200.39 69.0909 200.26 69.7403 200.26 70.6493V76.6234C200.26 77.5325 200.39 78.1818 200.779 78.7013C201.169 79.2208 201.558 79.6104 202.078 79.7403C202.597 79.8701 203.377 80 204.156 80C204.675 80 205.065 80 205.195 80C205.455 80 205.714 80 206.104 80C206.494 80 206.753 80 206.883 79.8701C207.013 79.8701 207.143 79.8701 207.273 79.7403C207.532 79.7403 207.662 79.6104 207.662 79.3506V78.3117C207.662 78.1818 207.662 78.1818 207.532 78.0519C207.532 78.0519 207.403 77.9221 207.273 77.9221H203.896C203.377 77.9221 203.117 77.7922 202.857 77.6623C202.597 77.4026 202.597 77.1429 202.597 76.4935V74.2857H207.143C207.273 74.2857 207.273 74.2857 207.403 74.1558C207.532 74.026 207.532 74.026 207.532 73.8961V72.7273C207.532 72.5974 207.532 72.5974 207.403 72.4675C207.273 72.3377 207.273 72.3377 207.143 72.3377H202.597V70.5195C202.597 70 202.727 69.6104 202.857 69.3506C203.117 69.0909 203.377 69.0909 203.896 69.0909H207.273C207.403 69.0909 207.403 69.0909 207.532 68.961C207.662 68.8312 207.662 68.8312 207.662 68.7013V67.6623C207.662 67.5325 207.662 67.4026 207.532 67.4026C207.532 67.6623 207.403 67.6623 207.273 67.5325Z" fill="#5C2F86"/>
<path d="M201.429 66.6234H202.857C202.987 66.6234 202.987 66.6234 203.117 66.6234L203.247 66.4935L204.416 65.1948L205.584 66.4935L205.714 66.6234L205.844 66.7533H205.974H207.403C207.532 66.7533 207.532 66.7532 207.532 66.6234C207.532 66.4935 207.532 66.4935 207.403 66.4935L205.844 64.5455C205.714 64.4156 205.714 64.4156 205.584 64.2857C205.584 64.2857 205.455 64.2857 205.325 64.2857H203.117C202.987 64.2857 202.987 64.2857 202.857 64.2857C202.857 64.2857 202.727 64.4156 202.597 64.5455L201.039 66.4935V66.6234C201.299 66.6234 201.299 66.6234 201.429 66.6234Z" fill="#5C2F86"/>
<path d="M219.481 67.5325H218.052C217.922 67.5325 217.922 67.5325 217.792 67.6623C217.792 67.6623 217.662 67.7922 217.662 67.9221V76.6234C217.662 76.7532 217.662 76.7532 217.532 76.7532C217.532 76.7532 217.403 76.7532 217.403 76.6234L213.506 68.052C213.377 67.7922 213.377 67.6623 213.247 67.6623C213.117 67.5325 212.987 67.5325 212.857 67.5325H211.039C210.909 67.5325 210.649 67.5325 210.519 67.6623C210.39 67.7922 210.26 67.9221 210.26 68.1818V79.6104C210.26 79.7403 210.26 79.7403 210.39 79.8701C210.519 80 210.519 80 210.649 80H212.078C212.208 80 212.208 80 212.338 79.8701C212.338 79.8701 212.468 79.7403 212.468 79.6104V71.1688C212.468 71.039 212.468 71.039 212.597 71.039C212.597 71.039 212.727 71.039 212.727 71.1688L216.494 79.3506C216.623 79.6104 216.753 79.7403 216.883 79.8701C217.013 80 217.273 80 217.532 80H219.221C219.351 80 219.61 80 219.74 79.7403C219.87 79.6104 220 79.4805 220 79.2208V67.7922C220 67.6623 220 67.6623 219.87 67.5325C219.74 67.5325 219.61 67.5325 219.481 67.5325Z" fill="#5C2F86"/>
<path d="M235.195 68.3117C234.286 67.6623 233.117 67.4026 231.688 67.4026C230.39 67.4026 229.351 67.5325 228.442 67.6623C228.312 67.6623 228.182 67.7922 228.052 67.7922C227.922 67.9221 227.922 67.9221 227.922 68.1818V79.7403C227.922 79.8701 227.922 79.8701 228.052 80C228.182 80.1299 228.182 80.1299 228.312 80.1299H230C230.13 80.1299 230.13 80.1299 230.26 80C230.26 80 230.39 79.8701 230.39 79.7403V75.3247C230.519 75.3247 230.649 75.3247 230.649 75.3247C230.779 75.3247 230.909 75.3247 231.299 75.3247C231.558 75.3247 231.818 75.3247 231.818 75.3247C233.247 75.3247 234.416 75.0649 235.325 74.4156C236.234 73.7662 236.623 72.8571 236.623 71.4286V71.2987C236.493 69.8701 236.104 68.8312 235.195 68.3117ZM234.156 71.2987C234.156 71.8182 234.026 72.0779 233.896 72.4675C233.766 72.7273 233.506 72.987 233.117 73.1169C232.727 73.2467 232.208 73.3766 231.688 73.3766C231.169 73.3766 230.779 73.3766 230.26 73.3766V69.3506C230.779 69.3506 231.169 69.2208 231.688 69.2208C232.597 69.2208 233.117 69.3506 233.636 69.6104C234.026 69.8701 234.286 70.3896 234.286 71.1688V71.2987H234.156Z" fill="#5C2F86"/>
<path d="M247.922 67.5325H246.234C246.104 67.5325 246.104 67.5325 245.974 67.6623C245.844 67.6623 245.844 67.7922 245.844 67.9221V72.5974H241.039V67.9221C241.039 67.7922 241.039 67.7922 240.909 67.6623C240.779 67.6623 240.779 67.5325 240.649 67.5325H238.961C238.831 67.5325 238.831 67.5325 238.701 67.6623C238.571 67.6623 238.571 67.7922 238.571 67.9221V79.7403C238.571 79.8701 238.571 79.8701 238.701 80C238.831 80.1299 238.831 80.1299 238.961 80.1299H240.649C240.779 80.1299 240.779 80.1299 240.909 80C241.039 80 241.039 79.8701 241.039 79.7403V74.6753H245.844V79.7403C245.844 79.8701 245.844 79.8701 245.974 80C246.104 80.1299 246.104 80.1299 246.234 80.1299H247.922C248.052 80.1299 248.052 80.1299 248.182 80C248.312 79.8701 248.312 79.8701 248.312 79.7403V67.9221C248.312 67.7922 248.312 67.7922 248.182 67.6623C248.182 67.5325 248.052 67.5325 247.922 67.5325Z" fill="#5C2F86"/>
<path d="M258.312 67.9221C257.532 67.5325 256.753 67.4026 255.844 67.4026C254.935 67.4026 254.026 67.5325 253.377 67.9221C252.597 68.3117 252.078 68.8312 251.688 69.6104C251.299 70.3896 251.039 71.4286 251.039 72.5974V74.8052C251.039 75.974 251.299 77.013 251.688 77.7922C252.078 78.5714 252.597 79.0909 253.377 79.4805C254.156 79.8701 254.935 80 255.844 80C256.753 80 257.662 79.8701 258.312 79.4805C259.091 79.0909 259.61 78.5714 260 77.7922C260.39 77.013 260.649 75.974 260.649 74.8052V72.5974C260.649 71.4286 260.39 70.3896 260 69.6104C259.481 68.8312 258.961 68.3117 258.312 67.9221ZM258.182 74.8052C258.182 75.8442 257.922 76.7532 257.532 77.2727C257.143 77.7922 256.493 78.0519 255.714 78.0519C254.935 78.0519 254.286 77.7922 253.896 77.2727C253.506 76.7532 253.247 75.974 253.247 74.8052V72.5974C253.247 71.5584 253.377 70.6493 253.896 70.1299C254.286 69.6104 254.935 69.3506 255.714 69.3506C256.493 69.3506 257.143 69.6104 257.532 70.1299C257.922 70.6493 258.182 71.4286 258.182 72.5974V74.8052Z" fill="#5C2F86"/>
<path d="M272.338 67.5325H270.909C270.779 67.5325 270.779 67.5325 270.649 67.6623C270.649 67.6623 270.519 67.7922 270.519 67.9221V76.6234C270.519 76.7532 270.519 76.7532 270.39 76.7532C270.39 76.7532 270.26 76.7532 270.26 76.6234L266.364 68.052C266.234 67.7922 266.234 67.6623 266.104 67.6623C265.974 67.5325 265.844 67.5325 265.714 67.5325H263.896C263.766 67.5325 263.506 67.5325 263.377 67.6623C263.247 67.7922 263.117 67.9221 263.117 68.1818V79.6104C263.117 79.7403 263.117 79.7403 263.247 79.8701C263.377 80 263.377 80 263.506 80H264.935C265.065 80 265.065 80 265.195 79.8701C265.195 79.8701 265.325 79.7403 265.325 79.6104V71.1688C265.325 71.039 265.325 71.039 265.455 71.039C265.455 71.039 265.584 71.039 265.584 71.1688L269.351 79.3506C269.481 79.6104 269.61 79.7403 269.74 79.8701C269.87 80 270.13 80 270.39 80H272.078C272.208 80 272.468 80 272.597 79.7403C272.727 79.6104 272.857 79.4805 272.857 79.2208V67.7922C272.857 67.6623 272.857 67.6623 272.727 67.5325C272.468 67.5325 272.468 67.5325 272.338 67.5325Z" fill="#5C2F86"/>
<path d="M278.312 70C278.701 69.4805 279.351 69.3506 280.26 69.3506C280.779 69.3506 281.299 69.4805 281.948 69.6104C282.468 69.7403 282.987 69.8701 283.377 70.1299C283.636 70.2597 283.766 70.1299 283.766 69.8701V68.7013C283.766 68.5714 283.636 68.4416 283.377 68.1818C283.247 68.0519 282.987 67.9221 282.597 67.7922C282.208 67.6623 281.818 67.5325 281.429 67.4026C281.039 67.2727 280.52 67.2727 280 67.2727C279.351 67.2727 278.831 67.4026 278.312 67.5325C277.792 67.6623 277.273 67.9221 276.753 68.3117C276.234 68.7013 275.844 69.2208 275.584 69.8701C275.325 70.5195 275.195 71.4286 275.195 72.4675V74.9351C275.195 75.8442 275.325 76.6234 275.584 77.2727C275.844 77.9221 276.234 78.4416 276.753 78.8312C277.273 79.2208 277.662 79.4805 278.182 79.7403C278.701 79.8701 279.221 80 279.74 80C280.13 80 280.649 80 281.169 80C281.688 80 282.078 80 282.468 79.8701C282.857 79.8701 283.117 79.7403 283.377 79.7403C283.636 79.7403 283.636 79.6104 283.636 79.3506V73.7662C283.636 73.6364 283.636 73.6364 283.507 73.5065C283.377 73.5065 283.377 73.3766 283.247 73.3766H281.818C281.688 73.3766 281.688 73.3766 281.558 73.5065C281.558 73.6364 281.429 73.6364 281.429 73.7662V78.0519C280.909 78.0519 280.39 78.0519 279.74 78.0519C279.221 78.0519 278.701 77.7922 278.182 77.2727C277.792 76.7532 277.532 75.974 277.532 74.9351V72.4675C277.662 71.2987 277.922 70.5195 278.312 70Z" fill="#5C2F86"/>
<path d="M99.2208 16.3636V54.6753H89.8701V16.3636H79.7403V8.83117H109.351V16.3636H99.2208Z" fill="#5C2F86"/>
<path d="M150 23.2468C150 25.3247 149.61 27.4026 148.831 29.2208C148.052 31.039 146.883 32.5974 145.325 33.8961C143.766 35.1948 141.818 36.2338 139.61 37.013C137.273 37.7922 134.675 38.1818 131.688 38.1818C130.909 38.1818 130.13 38.1818 129.351 38.052C128.571 38.052 127.922 37.9221 127.403 37.7922V55.4546H118.442V10.6494C120.26 9.87013 122.208 9.22078 124.545 8.83117C126.753 8.31169 129.351 8.18182 131.948 8.18182C137.792 8.18182 142.338 9.61039 145.325 12.3377C148.442 14.9351 150 18.7013 150 23.2468ZM141.039 23.2468C141.039 17.9221 138.052 15.1948 132.078 15.1948C131.169 15.1948 130.26 15.1948 129.481 15.3247C128.571 15.4545 127.922 15.5844 127.403 15.8442V30.7792C128.442 31.039 129.61 31.1688 131.299 31.1688C134.545 31.1688 137.013 30.5195 138.571 29.0909C140.26 27.6623 141.039 25.7143 141.039 23.2468Z" fill="#5C2F86"/>
<path d="M188.701 42.4675C188.701 46.4935 187.273 49.6104 184.286 51.9481C181.299 54.2857 177.143 55.3247 171.688 55.3247C170.519 55.3247 169.351 55.3247 168.182 55.0649C167.013 54.9351 165.844 54.8052 164.675 54.5455C163.636 54.2857 162.468 54.026 161.558 53.7662C160.649 53.5065 159.74 53.1169 159.091 52.8571V10.6493C160.649 9.87013 162.468 9.35065 164.675 8.96104C166.883 8.57143 169.091 8.31169 171.558 8.31169C174.156 8.31169 176.364 8.57143 178.312 9.22078C180.26 9.87013 181.948 10.6493 183.247 11.6883C184.545 12.7273 185.584 14.026 186.234 15.4545C186.883 16.8831 187.273 18.5714 187.273 20.3896C187.273 21.8182 187.013 23.2468 186.494 24.4156C185.974 25.5844 185.455 26.6234 184.675 27.5325C183.896 28.4416 183.117 29.2208 182.208 29.7403C181.299 30.2597 180.39 30.6494 179.481 30.9091V31.039C180.39 31.2987 181.429 31.6883 182.597 32.2078C183.636 32.7273 184.675 33.5065 185.584 34.4156C186.493 35.3247 187.273 36.4935 187.922 37.9221C188.442 39.0909 188.701 40.6494 188.701 42.4675ZM181.948 20.5195C181.948 18.0519 181.039 15.974 179.221 14.5455C177.403 13.1169 174.805 12.4675 171.429 12.4675C170 12.4675 168.701 12.5974 167.403 12.7273C166.104 12.987 164.935 13.2468 164.156 13.5065V28.961H170.779C172.857 28.961 174.545 28.8312 175.714 28.5714C176.883 28.3117 177.922 27.7922 178.961 27.013C179.87 26.3636 180.649 25.4545 181.169 24.2857C181.688 23.2468 181.948 21.9481 181.948 20.5195ZM183.247 42.2078C183.247 38.7013 181.818 36.2338 179.091 34.6753C178.571 34.4156 178.052 34.1558 177.532 33.8961C177.013 33.7662 176.364 33.5065 175.844 33.3766C175.195 33.2468 174.545 33.1169 173.766 33.1169C172.987 33.1169 172.078 32.987 171.039 32.987H164.156V49.7403C165.065 50.1299 166.104 50.3896 167.532 50.5195C168.961 50.7792 170.26 50.7792 171.688 50.7792C175.455 50.7792 178.312 50 180.39 48.5714C182.338 47.2727 183.247 45.0649 183.247 42.2078Z" fill="#5C2F86"/>
<path d="M219.351 52.987C218.701 53.3766 218.052 53.6364 217.143 53.8961C216.234 54.1558 215.325 54.4156 214.416 54.6753C213.377 54.9351 212.338 55.0649 211.299 55.1948C210.26 55.3247 209.091 55.4546 208.052 55.4546C203.506 55.4546 200.13 54.5455 197.922 52.5974C195.714 50.7792 194.545 48.1818 194.545 44.9351C194.545 42.4675 195.065 40.5195 196.234 39.0909C197.403 37.6623 198.961 36.4935 200.779 35.5844C202.597 34.8052 204.805 34.1558 207.143 33.8961C209.481 33.5065 211.948 33.3766 214.416 33.2468V30.6494C214.416 28.052 213.636 26.3636 212.208 25.4545C210.779 24.5455 208.831 24.026 206.623 24.026C205.065 24.026 203.506 24.2857 201.818 24.6753C200.13 25.0649 198.701 25.5844 197.662 26.1039L196.364 22.3377C197.662 21.8182 199.221 21.1688 201.039 20.7792C202.987 20.2597 204.935 20 207.013 20C208.831 20 210.519 20.2597 211.948 20.6494C213.377 21.039 214.675 21.6883 215.844 22.5974C216.883 23.5065 217.792 24.6753 218.312 25.974C218.831 27.4026 219.221 29.0909 219.221 31.1688V52.987H219.351ZM214.545 36.7533C212.727 36.8831 210.909 37.013 209.091 37.2727C207.273 37.4026 205.714 37.7922 204.286 38.3117C202.857 38.8312 201.688 39.6104 200.779 40.6494C199.87 41.6883 199.481 43.1169 199.481 44.8052C199.481 46.8831 200.13 48.4416 201.558 49.6104C202.987 50.7792 205.065 51.4286 207.922 51.4286C209.221 51.4286 210.519 51.2987 211.688 51.039C212.987 50.7792 213.896 50.5195 214.545 50.2597V36.7533Z" fill="#5C2F86"/>
<path d="M245.844 54.6753V31.6883C245.844 29.3507 245.195 27.5325 243.766 26.2338C242.338 24.9351 240.26 24.1558 237.403 24.1558C235.844 24.1558 234.545 24.2857 233.247 24.5455C231.948 24.8052 230.909 25.0649 230.13 25.4545V54.6753H224.675V22.2078C226.364 21.5584 228.312 20.9091 230.39 20.5195C232.468 20.1299 234.805 19.8701 237.403 19.8701C241.948 19.8701 245.455 20.9091 247.792 22.8571C250.13 24.8052 251.299 27.6623 251.299 31.1688V54.6753H245.844Z" fill="#5C2F86"/>
<path d="M277.273 54.6753L261.688 37.1429H261.558V54.6753H256.364V7.53247H261.558V36.2338H261.688L276.364 20.5195H282.597L267.403 36.6234L283.507 54.6753H277.273Z" fill="#5C2F86"/>
</g>
<defs>
<linearGradient id="paint0_linear" x1="10.561" y1="-1.44533" x2="60.8857" y2="10.5677" gradientUnits="userSpaceOnUse">
<stop stop-color="#F5B419"/>
<stop offset="0.5269" stop-color="#F68E20"/>
<stop offset="1" stop-color="#E16226"/>
</linearGradient>
<linearGradient id="paint1_linear" x1="30.567" y1="48.796" x2="10.7618" y2="3.6661" gradientUnits="userSpaceOnUse">
<stop stop-color="#F5B419"/>
<stop offset="0.5269" stop-color="#F68E20"/>
<stop offset="1" stop-color="#E16226"/>
</linearGradient>
<linearGradient id="paint2_linear" x1="58.7026" y1="14.1961" x2="34.3519" y2="49.261" gradientUnits="userSpaceOnUse">
<stop stop-color="#F5B419"/>
<stop offset="0.5269" stop-color="#F68E20"/>
<stop offset="0.9193" stop-color="#E46925"/>
<stop offset="1" stop-color="#E16226"/>
</linearGradient>
<clipPath id="clip0">
<rect width="283.766" height="80" fill="white"/>
</clipPath>
</defs>
</svg>
