<svg aria-hidden="true" style="position: absolute; width: 0; height: 0; overflow: hidden;" version="1.1" xmlns="http://www.w3.org/2000/svg" xmlns:xlink="http://www.w3.org/1999/xlink">
<defs>
<symbol id="icon-Player" viewBox="0 0 32 32">
<path d="M21.124 15.477h-0.93c0.037 0.319 0.080 0.64 0.123 0.954 0.008 0.061 0.016 0.123 0.025 0.185h0.699c2.551 0 4.625 1.964 4.625 4.378v3.679c0 0.279-0.235 0.505-0.524 0.505s-0.524-0.226-0.524-0.505v-3.679c0-1.857-1.605-3.368-3.578-3.368h-0.706c-0.093 0.3-0.296 0.614-0.695 0.886-0.597 0.408-1.276 0.735-2.138 1.029-0.523 0.179-1.011 0.269-1.493 0.276l-0.012 0h-0.017l-0.012-0c-0.482-0.007-0.97-0.097-1.493-0.276-0.862-0.294-1.541-0.621-2.138-1.029-0.399-0.273-0.603-0.586-0.695-0.886h-0.723c-1.973 0-3.578 1.511-3.578 3.368v3.679c0 0.279-0.235 0.505-0.524 0.505s-0.524-0.226-0.524-0.505v-3.679c0-2.414 2.075-4.378 4.625-4.378h0.717c0.008-0.062 0.017-0.124 0.025-0.185 0.043-0.314 0.086-0.635 0.123-0.954h-0.947c-3.223 0-5.836 2.521-5.836 5.631v8.559c0 3.11 21.961 3.11 21.961 0v-8.559c0-3.11-2.613-5.631-5.836-5.631zM22.756 23.699c0 0.784-0.319 1.578-0.876 2.179-0.284 0.306-0.614 0.549-0.981 0.723-0.404 0.191-0.831 0.288-1.271 0.288s-0.867-0.097-1.271-0.288c-0.367-0.174-0.698-0.417-0.981-0.723-0.557-0.601-0.876-1.395-0.876-2.179v-1.201c0-0.743 0.626-1.347 1.396-1.347h3.463c0.77 0 1.396 0.604 1.396 1.347l-0 1.201z"></path>
<path d="M21.36 22.161h-3.463c-0.193 0-0.349 0.151-0.349 0.337v1.201c0 1.109 0.931 2.179 2.080 2.179s2.080-1.071 2.080-2.179v-1.201c0-0.186-0.156-0.337-0.349-0.337zM20.913 23.789c0 0.684-0.575 1.336-1.284 1.336s-1.284-0.651-1.284-1.336v-0.612c0-0.186 0.156-0.337 0.349-0.337h1.87c0.193 0 0.349 0.151 0.349 0.337l-0 0.612z"></path>
<path d="M10.462 10.272c0.132 0.302 0.243 0.635 0.464 0.89 0.154 0.177 0.395 0.305 0.637 0.34 0.687 1.061 1.148 2.321 1.035 3.569-0.012 0.136-0.027 0.272-0.042 0.408-0.043 0.38-0.094 0.759-0.146 1.138-0.020 0.145-0.039 0.289-0.058 0.434-0.030 0.232 0.021 0.419 0.131 0.576 0.074 0.105 0.175 0.198 0.297 0.282 0.599 0.41 1.262 0.7 1.95 0.935 0.415 0.142 0.831 0.227 1.249 0.233 0.003 0 0.006-0 0.009-0s0.006 0 0.009 0c0.418-0.006 0.834-0.092 1.249-0.233 0.689-0.235 1.351-0.525 1.95-0.935 0.123-0.084 0.223-0.176 0.297-0.282 0.111-0.157 0.161-0.344 0.131-0.576-0.019-0.145-0.038-0.29-0.058-0.434-0.051-0.379-0.103-0.758-0.146-1.138-0.015-0.136-0.030-0.271-0.042-0.408-0.113-1.248 0.348-2.508 1.035-3.569 0.242-0.035 0.483-0.162 0.637-0.34 0.221-0.255 0.333-0.588 0.464-0.89 0.168-0.386 0.344-0.77 0.504-1.159 0.246-0.599 0.375-1.359-0.2-1.829-0.158-0.129-0.365-0.193-0.57-0.193-0.005 0-0.009 0-0.013 0-0.024 0-0.049-0.032-0.074-0.087 0.007-0.942 0.095-1.934-0.040-2.863-0.082-0.56-0.272-1.1-0.518-1.612-0.567-1.175-1.497-1.886-2.781-2.257-0.598-0.173-1.213-0.266-1.824-0.273-0.003 0-0.006 0-0.009 0s-0.006 0-0.009 0c-0.611 0.006-1.226 0.1-1.824 0.273-1.284 0.371-2.215 1.082-2.781 2.257-0.247 0.512-0.436 1.052-0.518 1.612-0.135 0.929-0.047 1.921-0.040 2.863-0.025 0.054-0.050 0.087-0.074 0.087-0.005 0-0.009 0-0.014 0-0.206 0-0.412 0.063-0.57 0.193-0.575 0.47-0.447 1.23-0.2 1.829 0.16 0.389 0.335 0.773 0.503 1.159z"></path>
</symbol>
<symbol id="icon-Team" viewBox="0 0 32 32">
<path d="M18.293 17.416l0.872 1.019h2.806c0.492-0.858 0.8-1.816 0.903-2.803l-2.206-1.616-1.504 0.696-0.871 2.702z"></path>
<path d="M18.797 21.344l0.004-0.002c0.005-0.002 0.011-0.005 0.015-0.007 0.071-0.033 0.141-0.068 0.211-0.103 0.016-0.008 0.032-0.016 0.049-0.025 0.072-0.037 0.143-0.076 0.213-0.115 0.014-0.007 0.027-0.016 0.041-0.024 0.063-0.036 0.126-0.073 0.189-0.112 0.012-0.008 0.024-0.014 0.036-0.022 0.069-0.043 0.136-0.087 0.204-0.132 0.016-0.011 0.032-0.022 0.048-0.032 0.068-0.046 0.136-0.094 0.202-0.143l0.006-0.004c0.065-0.048 0.13-0.098 0.193-0.148 0.015-0.012 0.030-0.023 0.045-0.035 0.063-0.051 0.126-0.102 0.188-0.156 0.011-0.009 0.021-0.019 0.032-0.028 0.056-0.049 0.111-0.098 0.166-0.148 0.011-0.010 0.022-0.020 0.033-0.030 0.060-0.056 0.118-0.112 0.175-0.171 0.012-0.013 0.025-0.026 0.038-0.038 0.056-0.057 0.113-0.116 0.167-0.176 0.002-0.003 0.005-0.005 0.007-0.008l0.002-0.002h-1.729l-0.536 1.66z"></path>
<path d="M22.868 14.082c-0.001-0.009-0.002-0.018-0.002-0.027-0.002-0.015-0.004-0.029-0.006-0.044-0.009-0.074-0.019-0.148-0.030-0.222-0.002-0.013-0.004-0.026-0.006-0.039-0.013-0.081-0.027-0.161-0.043-0.242-0.003-0.017-0.007-0.035-0.011-0.052-0.016-0.078-0.033-0.156-0.051-0.234-0.001-0.004-0.002-0.008-0.003-0.012-0.019-0.081-0.040-0.16-0.063-0.24-0.005-0.017-0.010-0.036-0.015-0.053-0.022-0.079-0.046-0.157-0.071-0.235-0.002-0.008-0.006-0.017-0.009-0.025-0.024-0.072-0.048-0.144-0.074-0.215-0.006-0.016-0.011-0.032-0.017-0.047-0.028-0.076-0.058-0.152-0.089-0.227-0.006-0.014-0.012-0.028-0.017-0.041-0.029-0.069-0.058-0.136-0.089-0.204-0.005-0.011-0.010-0.023-0.016-0.034-0.034-0.074-0.071-0.147-0.107-0.221-0.008-0.016-0.016-0.032-0.024-0.048-0.037-0.072-0.076-0.144-0.115-0.215l-0.004-0.006-0.002-0.003-0.536 1.661 1.399 1.026z"></path>
<path d="M12.585 18.434l0.872-1.019-0.871-2.703-1.504-0.696-2.206 1.616c0.102 0.987 0.411 1.944 0.903 2.803h2.806z"></path>
<path d="M10.69 19.685l0.002 0.002c0.003 0.003 0.006 0.006 0.009 0.010 0.054 0.059 0.109 0.116 0.165 0.174 0.013 0.013 0.025 0.026 0.038 0.039 0.058 0.058 0.116 0.114 0.175 0.17 0.011 0.011 0.022 0.021 0.033 0.031 0.054 0.050 0.109 0.099 0.164 0.147 0.011 0.009 0.022 0.019 0.032 0.028 0.061 0.053 0.124 0.104 0.187 0.155 0.015 0.012 0.029 0.023 0.044 0.035 0.064 0.051 0.129 0.1 0.195 0.149l0.005 0.004c0.067 0.049 0.135 0.096 0.203 0.143 0.016 0.011 0.031 0.021 0.047 0.031 0.068 0.046 0.136 0.089 0.205 0.133 0.011 0.007 0.022 0.014 0.033 0.021 0.063 0.039 0.128 0.077 0.192 0.114 0.013 0.008 0.025 0.015 0.038 0.022 0.071 0.040 0.143 0.079 0.215 0.116 0.016 0.008 0.031 0.016 0.046 0.024 0.071 0.036 0.143 0.071 0.215 0.105 0.004 0.002 0.008 0.004 0.012 0.006l0.005 0.002-0.535-1.659-1.727-0.001z"></path>
<path d="M15.875 8.961l1.401-1.026-0.003-0.001c-0.003-0.001-0.006-0.001-0.009-0.002-0.077-0.016-0.155-0.029-0.233-0.043-0.020-0.003-0.041-0.007-0.061-0.010-0.076-0.012-0.152-0.022-0.229-0.032-0.024-0.003-0.048-0.006-0.072-0.008-0.058-0.006-0.116-0.012-0.174-0.017-0.027-0.003-0.055-0.005-0.082-0.007-0.071-0.006-0.142-0.009-0.213-0.012-0.032-0.001-0.065-0.003-0.096-0.004-0.057-0.002-0.115-0.003-0.172-0.003-0.038 0-0.075 0-0.113 0-0.058 0.001-0.115 0.001-0.172 0.003-0.032 0.001-0.064 0.002-0.096 0.004-0.071 0.003-0.143 0.007-0.214 0.013-0.027 0.002-0.053 0.004-0.080 0.007-0.059 0.005-0.118 0.011-0.177 0.017-0.024 0.003-0.046 0.005-0.069 0.008-0.077 0.009-0.154 0.020-0.23 0.033-0.020 0.003-0.040 0.006-0.060 0.010-0.079 0.013-0.157 0.027-0.235 0.042 0 0-0.006 0.001-0.009 0.002l-0.004 0.001 1.401 1.025z"></path>
<path d="M14.606 16.932h2.539l0.784-2.434-2.054-1.504-2.054 1.504 0.785 2.434z"></path>
<path d="M9.747 11.396l-0.002 0.003-0.004 0.006c-0.040 0.071-0.078 0.143-0.115 0.215-0.008 0.016-0.017 0.032-0.025 0.048-0.037 0.072-0.073 0.146-0.107 0.22-0.006 0.012-0.011 0.024-0.016 0.035-0.031 0.067-0.060 0.134-0.089 0.202-0.006 0.014-0.012 0.028-0.018 0.043-0.031 0.075-0.061 0.151-0.089 0.226-0.006 0.016-0.012 0.032-0.017 0.048-0.026 0.071-0.051 0.143-0.074 0.215-0.002 0.008-0.006 0.017-0.008 0.025-0.025 0.078-0.049 0.156-0.071 0.235-0.005 0.018-0.010 0.035-0.015 0.053-0.022 0.079-0.043 0.159-0.063 0.24-0.001 0.004-0.002 0.007-0.002 0.011-0.019 0.078-0.035 0.156-0.051 0.235-0.004 0.017-0.007 0.034-0.011 0.051-0.015 0.081-0.030 0.161-0.043 0.243-0.002 0.012-0.004 0.025-0.006 0.037-0.011 0.074-0.022 0.149-0.030 0.224-0.002 0.014-0.004 0.029-0.006 0.043-0.001 0.009-0.002 0.018-0.002 0.028l1.4-1.025-0.535-1.66z"></path>
<path d="M2.667 0v20.147c0 4.44 8.019 10.714 13.158 11.853 5.14-1.139 13.195-7.413 13.195-11.853v-20.147h-26.353zM22.842 19.398c-0.020 0.032-0.042 0.063-0.063 0.095-0.061 0.092-0.122 0.182-0.184 0.269-0.683 0.955-1.566 1.756-2.571 2.345-0.229 0.134-0.464 0.259-0.704 0.371-0.3 0.139-0.606 0.259-0.921 0.361-0.14 0.045-0.283 0.087-0.427 0.124-0.68 0.179-1.387 0.271-2.099 0.271s-1.417-0.091-2.098-0.271c-0.071-0.019-0.144-0.038-0.215-0.059-0.014-0.004-0.028-0.009-0.043-0.013-0.057-0.017-0.114-0.034-0.17-0.052-1.36-0.439-2.598-1.242-3.568-2.303-0.224-0.245-0.433-0.503-0.627-0.774-0.086-0.119-0.169-0.242-0.246-0.364-0.768-1.204-1.217-2.597-1.298-4.029-0.007-0.125-0.011-0.249-0.012-0.371-0.001-0.022-0.001-0.044-0.001-0.067 0-0.014 0-0.028 0-0.042 0-0.112 0.002-0.223 0.007-0.334 0.005-0.122 0.012-0.243 0.022-0.364 0.016-0.194 0.038-0.387 0.068-0.579 0.026-0.171 0.058-0.341 0.094-0.509 0.243-1.128 0.717-2.193 1.407-3.142 0.002-0.002 0.004-0.005 0.006-0.008l0.003-0.004c0.039-0.054 0.079-0.106 0.119-0.159 0.049-0.064 0.099-0.127 0.148-0.188 0.902-1.109 2.077-1.971 3.397-2.489 0.134-0.053 0.273-0.104 0.413-0.15 0.835-0.277 1.708-0.419 2.596-0.419s1.76 0.141 2.596 0.419c0.14 0.046 0.28 0.097 0.414 0.151 1.319 0.518 2.493 1.379 3.395 2.489l0.001 0.002c0.044 0.054 0.089 0.11 0.133 0.168s0.089 0.117 0.133 0.177c0.003 0.004 0.006 0.008 0.009 0.012 0.131 0.18 0.254 0.364 0.369 0.551 0.805 1.313 1.229 2.813 1.229 4.377 0 0.014 0 0.029-0.001 0.044-0.001 0.146-0.005 0.291-0.013 0.435-0.081 1.433-0.53 2.826-1.298 4.031z"></path>
<path d="M16.495 10.052v1.85l2.234 1.636 1.504-0.696 0.871-2.701c-0.661-0.739-1.468-1.331-2.364-1.734l-2.245 1.644z"></path>
<path d="M18.183 19.201l-0.872-1.019h-2.872l-0.872 1.019 0.847 2.628c0.959 0.203 1.966 0.203 2.923 0l0.847-2.628z"></path>
<path d="M11.517 12.842l1.504 0.696 2.234-1.636v-1.85l-2.245-1.644c-0.897 0.403-1.704 0.995-2.364 1.733l0.871 2.701z"></path>
</symbol>
<symbol id="icon-Home" viewBox="0 0 32 32">
<path d="M31.539 14.017l-14.825-13.738c-0.424-0.372-1.012-0.372-1.437 0l-14.857 13.775c-0.457 0.41-0.555 1.191-0.229 1.75 0.229 0.372 0.588 0.558 0.98 0.558h4.147v14.334c0 0.707 0.522 1.303 1.143 1.303h5.29c0.62 0 1.143-0.596 1.143-1.303v-5.212c0-1.936 1.404-3.537 3.102-3.537s3.102 1.601 3.102 3.537v5.212c0 0.707 0.522 1.303 1.143 1.303h5.29c0.62 0 1.143-0.596 1.143-1.303v-14.334h4.18c0.588 0 1.11-0.521 1.143-1.229 0.033-0.41-0.163-0.856-0.457-1.117z"></path>
</symbol>
<symbol id="icon-Summary" viewBox="0 0 32 32">
<path d="M0.427 5.236c0-1.321 1.087-2.392 2.429-2.392h26.716c1.341 0 2.429 1.071 2.429 2.392s-1.087 2.392-2.429 2.392h-26.716c-1.341 0-2.429-1.071-2.429-2.392z"></path>
<path d="M0.427 16c0-1.321 1.087-2.392 2.429-2.392h26.716c1.341 0 2.429 1.071 2.429 2.392s-1.087 2.392-2.429 2.392h-26.716c-1.341 0-2.429-1.071-2.429-2.392z"></path>
<path d="M0.427 26.764c0-1.321 1.087-2.392 2.429-2.392h17.001c1.341 0 2.429 1.071 2.429 2.392s-1.087 2.392-2.429 2.392h-17.001c-1.341 0-2.429-1.071-2.429-2.392z"></path>
</symbol>
<symbol id="icon-Live" viewBox="0 0 44 32">
<path d="M5.405 0h33.19c2.985 0 5.405 2.42 5.405 5.405v21.19c0 2.985-2.42 5.405-5.405 5.405h-33.19c-2.985 0-5.405-2.42-5.405-5.405v-21.19c0-2.985 2.42-5.405 5.405-5.405z"></path>
<path d="M6.614 21.050v-10.552h2.148v8.76h5.341v1.793h-7.49zM15.577 21.050v-10.639h2.148v10.639h-2.148zM22.494 21.050l-3.803-10.639h2.33l2.692 7.874 2.605-7.874h2.279l-3.81 10.639h-2.293zM29.693 21.050v-10.639h7.889v1.8h-5.741v2.359h5.341v1.793h-5.341v2.896h5.944v1.793h-8.092z"></path>
</symbol>
<symbol id="icon-Results" viewBox="0 0 33 32">
<path d="M26.973 8.979l-4.829 1.264c-0.214 0.056-0.397 0.189-0.51 0.367l-1.023 1.633-2.081 0.545-0.204-0.746c-0.113-0.412-0.565-0.651-1.009-0.535l-7.244 1.896c-4.438 1.162-7.131 5.452-6.004 9.563s5.655 6.511 10.093 5.349c3.985-1.043 6.592-4.576 6.233-8.338l8.298-5.914c0.273-0.194 0.396-0.519 0.313-0.822l-1.022-3.728c-0.113-0.412-0.565-0.651-1.009-0.535zM13.138 24.589c-2.223 0.582-4.482-0.615-5.047-2.675s0.779-4.2 3.002-4.782c2.223-0.582 4.482 0.615 5.047 2.674s-0.779 4.2-3.002 4.782z"></path>
<path d="M17.684 3.42c-0.444 0.116-0.713 0.545-0.6 0.956l1.227 4.474c0.113 0.411 0.565 0.651 1.009 0.535s0.713-0.545 0.6-0.956l-1.227-4.474c-0.113-0.412-0.565-0.651-1.009-0.535z"></path>
<path d="M16.418 8.866l-3.232-2.35c-0.358-0.261-0.881-0.194-1.168 0.146-0.288 0.341-0.232 0.826 0.125 1.086l3.232 2.35c0.211 0.154 0.481 0.194 0.726 0.13 0.168-0.044 0.325-0.138 0.442-0.276 0.288-0.341 0.231-0.826-0.125-1.086z"></path>
<path d="M24.249 3.459c-0.421-0.152-0.908 0.043-1.086 0.444l-1.597 3.615c-0.175 0.399 0.025 0.847 0.449 1.001 0.172 0.062 0.356 0.067 0.524 0.023 0.243-0.064 0.458-0.23 0.562-0.467l1.597-3.615c0.175-0.399-0.025-0.847-0.449-1.001z"></path>
</symbol>
<symbol id="icon-Fixtures" viewBox="0 0 33 32">
<path d="M11.825 10.219c0.771 0 1.397-0.614 1.397-1.369v-2.69c0-0.755-0.626-1.369-1.397-1.369s-1.397 0.614-1.397 1.369v2.69c0 0.755 0.626 1.369 1.397 1.369z"></path>
<path d="M21.023 10.219c0.77 0 1.397-0.614 1.397-1.369v-2.69c0-0.755-0.626-1.369-1.397-1.369s-1.397 0.614-1.397 1.369v2.69c0 0.755 0.626 1.369 1.397 1.369z"></path>
<path d="M24.563 7.954h-1.132v0.897c0 1.298-1.084 2.36-2.408 2.36s-2.408-1.062-2.408-2.36v-0.897h-4.382v0.897c0 1.298-1.084 2.36-2.408 2.36s-2.408-1.062-2.408-2.36v-0.897h-1.132c-1.686 0-3.058 1.345-3.058 2.997v13.261c0 1.652 1.372 2.997 3.058 2.997h16.301c1.686 0 3.058-1.345 3.058-2.997v-13.261c-0.024-1.652-1.372-2.997-3.082-2.997zM25.598 24.212c0 0.543-0.457 0.991-1.011 0.991h-16.301c-0.554 0-1.011-0.448-1.011-0.991v-10.099h18.324v10.099z"></path>
<path d="M9.755 18.666h2.817c0.217 0 0.409-0.189 0.409-0.401v-1.77c0-0.212-0.193-0.401-0.409-0.401h-2.817c-0.217 0-0.409 0.189-0.409 0.401v1.77c0 0.212 0.193 0.401 0.409 0.401z"></path>
<path d="M15.028 18.666h2.817c0.217 0 0.409-0.189 0.409-0.401v-1.77c0-0.212-0.193-0.401-0.409-0.401h-2.817c-0.217 0-0.409 0.189-0.409 0.401v1.77c0 0.212 0.169 0.401 0.409 0.401z"></path>
<path d="M20.277 18.666h2.817c0.217 0 0.409-0.189 0.409-0.401v-1.77c0-0.212-0.193-0.401-0.409-0.401h-2.817c-0.217 0-0.409 0.189-0.409 0.401v1.77c0 0.212 0.193 0.401 0.409 0.401z"></path>
<path d="M9.755 23.221h2.817c0.217 0 0.409-0.189 0.409-0.401v-1.77c0-0.212-0.193-0.401-0.409-0.401h-2.817c-0.217 0-0.409 0.189-0.409 0.401v1.77c0 0.212 0.193 0.401 0.409 0.401z"></path>
<path d="M15.028 23.221h2.817c0.217 0 0.409-0.189 0.409-0.401v-1.77c0-0.212-0.193-0.401-0.409-0.401h-2.817c-0.217 0-0.409 0.189-0.409 0.401v1.77c0 0.212 0.169 0.401 0.409 0.401z"></path>
<path d="M20.277 23.221h2.817c0.217 0 0.409-0.189 0.409-0.401v-1.77c0-0.212-0.193-0.401-0.409-0.401h-2.817c-0.217 0-0.409 0.189-0.409 0.401v1.77c0 0.212 0.193 0.401 0.409 0.401z"></path>
</symbol>
<symbol id="icon-Recent" viewBox="0 0 33 32">
<path d="M17.968 16.002h2.432c0.669 0 1.216 0.543 1.216 1.234 0 0.679-0.535 1.234-1.216 1.234h-3.648c-0.328 0-0.632-0.136-0.851-0.358-0.231-0.222-0.365-0.531-0.365-0.864v-4.96c0-0.666 0.547-1.221 1.216-1.221s1.216 0.555 1.216 1.221v3.714zM7.146 12.029c1.216-3.208 3.867-5.799 7.393-6.749 5.836-1.592 11.843 1.925 13.399 7.847s-1.897 12.017-7.733 13.596c-5.836 1.579-11.843-1.925-13.411-7.847l2.347-0.642c1.216 4.602 5.885 7.341 10.42 6.107s7.235-5.971 6.019-10.573c-1.216-4.602-5.885-7.341-10.42-6.107-2.87 0.777-4.997 2.961-5.873 5.626l2.748 1.616-5.873 1.592-1.569-5.959 2.553 1.493z"></path>
</symbol>
<symbol id="icon-Standings" viewBox="0 0 33 32">
<path d="M18.986 16.649h-5.031c-0.193 0-0.351 0.159-0.351 0.354v9.792h5.738v-9.792c-0.003-0.195-0.16-0.354-0.356-0.354z"></path>
<path d="M18.986 16.238c-1.058 0-2.116 0-3.177 0-0.555 0-1.107 0-1.662 0-0.209 0-0.411-0.003-0.598 0.118-0.253 0.162-0.356 0.43-0.356 0.718 0 0.916 0 1.832 0 2.75 0 1.442 0 2.885 0 4.327 0 0.866-0.016 1.736 0 2.605 0 0.014 0 0.027 0 0.041 0 0.222 0.188 0.411 0.408 0.411 0.65 0 1.297 0 1.947 0 1.025 0 2.051 0 3.076 0 0.239 0 0.476 0 0.715 0 0.22 0 0.408-0.189 0.408-0.411 0-0.351 0-0.699 0-1.050 0-0.831 0-1.662 0-2.492 0-0.976 0-1.955 0-2.931 0-0.806 0-1.61 0-2.416 0-0.233 0-0.466 0-0.699 0-0.219 0.005-0.43-0.125-0.622-0.15-0.222-0.375-0.335-0.636-0.348-0.212-0.011-0.419 0.197-0.408 0.411 0.011 0.233 0.18 0.4 0.408 0.411-0.008 0-0.063-0.019-0.022-0.003 0.046 0.016-0.014-0.008-0.016-0.011 0.082 0.063-0.052-0.060-0.014-0.019 0.033 0.033-0.014-0.008-0.005-0.019 0.005-0.008-0.005 0.074 0.005 0.016 0-0.006-0.003-0.025-0.003-0.016s0 0.016 0 0.025c-0.005 0.052 0 0.104 0 0.156 0 0.219 0 0.436 0 0.655 0 0.77 0 1.541 0 2.311 0 0.957 0 1.917 0 2.874 0 0.839 0 1.675 0 2.514 0 0.409-0.024 0.825 0 1.234 0 0.006 0 0.011 0 0.019 0.136-0.137 0.272-0.274 0.408-0.411-0.65 0-1.297 0-1.947 0-1.025 0-2.051 0-3.076 0-0.239 0-0.476 0-0.715 0 0.136 0.137 0.272 0.274 0.408 0.411 0-0.707 0-1.412 0-2.12 0-1.412 0-2.824 0-4.236 0-1.056 0-2.111 0-3.167 0-0.077 0.016-0.175 0-0.252 0-0.006 0-0.011 0-0.016s-0.008 0.036-0.008 0.036c0.003-0.011 0.005-0.022 0.008-0.033-0.022 0.044-0.019 0.047 0.003 0.006-0.014 0.016-0.090 0.085-0.022 0.033-0.011 0.005-0.022 0.011-0.035 0.014 0.011-0.003 0.022-0.006 0.033-0.008-0.054 0.071-0.049 0.006-0.038 0.008 0.003 0 0.005 0 0.008 0 0.016 0 0.030 0 0.046 0 0.454 0.014 0.914 0 1.368 0 1.178 0 2.358 0 3.536 0 0.024 0 0.049 0 0.073 0 0.212 0 0.419-0.189 0.408-0.411-0.003-0.225-0.171-0.411-0.402-0.411z"></path>
<path d="M11.698 19.391h-5.673c-0.193 0-0.351 0.159-0.351 0.354v7.050h6.024v-7.403z"></path>
<path d="M11.698 18.98c-0.805 0-1.61 0-2.415 0-1.031 0-2.064 0-3.095 0-0.125 0-0.25-0.003-0.375 0.030-0.348 0.096-0.544 0.428-0.547 0.776-0.003 0.291 0 0.581 0 0.872 0 1.187 0 2.372 0 3.559 0 0.845-0.014 1.689 0 2.534 0 0.014 0 0.027 0 0.041 0 0.222 0.188 0.411 0.408 0.411 0.68 0 1.357 0 2.037 0 1.082 0 2.162 0 3.245 0 0.248 0 0.495 0 0.742 0 0.22 0 0.408-0.189 0.408-0.411 0-0.834 0-1.667 0-2.501 0-1.33 0-2.657 0-3.987 0-0.304 0-0.611 0-0.916 0-0.214-0.188-0.42-0.408-0.409s-0.408 0.181-0.408 0.411c0 0.834 0 1.667 0 2.501 0 1.33 0 2.657 0 3.987 0 0.304 0 0.611 0 0.916 0.136-0.137 0.272-0.274 0.408-0.411-0.68 0-1.357 0-2.037 0-1.082 0-2.162 0-3.245 0-0.247 0-0.495 0-0.742 0 0.136 0.137 0.272 0.274 0.408 0.411 0-0.691 0-1.382 0-2.070 0-1.204 0-2.405 0-3.608 0-0.387 0-0.77 0-1.157 0-0.069 0.005-0.14 0-0.208 0-0.003 0-0.003 0-0.006 0-0.011 0.305-0.228-0.008 0.038 0.003-0.006 0.003-0.011 0.005-0.016 0.008-0.030 0.005-0.022-0.011 0.016 0.054-0.077-0.082 0.060-0.005 0.006-0.087 0.063 0.003 0 0 0.006-0.063 0.074-0.049 0.005-0.038 0.008 0.019 0.003 0.041 0 0.060 0 0.936 0 1.868 0 2.804 0 0.919 0 1.841 0.011 2.76 0 0.016 0 0.033 0 0.049 0 0.212 0 0.419-0.189 0.408-0.411-0.011-0.225-0.179-0.411-0.408-0.411z"></path>
<path d="M26.917 21.585h-5.673v5.21h6.024v-4.856c0-0.195-0.158-0.354-0.351-0.354z"></path>
<path d="M26.917 21.173c-0.639 0-1.276 0-1.915 0-1.017 0-2.034 0-3.054 0-0.234 0-0.471 0-0.704 0-0.22 0-0.408 0.189-0.408 0.411 0 0.584 0 1.171 0 1.755 0 0.938 0 1.876 0 2.813 0 0.214 0 0.428 0 0.642 0 0.222 0.188 0.411 0.408 0.411 0.68 0 1.357 0 2.037 0 1.082 0 2.162 0 3.244 0 0.247 0 0.495 0 0.742 0 0.22 0 0.408-0.189 0.408-0.411 0-0.622 0-1.248 0-1.87 0-0.888 0-1.777 0-2.665 0-0.099 0.003-0.197 0-0.299-0.008-0.439-0.326-0.765-0.759-0.787-0.212-0.011-0.419 0.197-0.408 0.411 0.011 0.233 0.18 0.4 0.408 0.411-0.008 0-0.063-0.019-0.022-0.003 0.046 0.016-0.014-0.008-0.016-0.011 0.082 0.063-0.052-0.060-0.014-0.019 0.033 0.033-0.014-0.008-0.005-0.019 0.005-0.008-0.005 0.074 0.005 0.016 0.003-0.014-0.003-0.025-0.003-0.016 0 0.019 0 0.036 0 0.055 0 0.099 0 0.197 0 0.299 0 0.376 0 0.749 0 1.124 0 0.91 0 1.818 0 2.728 0 0.217 0 0.433 0 0.65 0.136-0.137 0.272-0.274 0.408-0.411-0.68 0-1.357 0-2.037 0-1.082 0-2.162 0-3.245 0-0.247 0-0.495 0-0.742 0 0.136 0.137 0.272 0.274 0.408 0.411 0-0.584 0-1.171 0-1.755 0-0.938 0-1.876 0-2.813 0-0.214 0-0.428 0-0.642-0.136 0.137-0.272 0.274-0.408 0.411 0.639 0 1.276 0 1.915 0 1.017 0 2.034 0 3.054 0 0.234 0 0.471 0 0.704 0 0.212 0 0.419-0.189 0.408-0.411-0.014-0.23-0.182-0.417-0.411-0.417z"></path>
<path d="M16.471 5.204l-1.243 3.159-3.41 0.31 2.641 2.191-0.775 3.312 2.788-1.804 2.788 1.804-0.775-3.312 2.641-2.191-3.41-0.31-1.243-3.159z"></path>
<path d="M16.076 5.094c-0.364 0.921-0.726 1.843-1.091 2.764-0.052 0.132-0.103 0.26-0.155 0.392 0.131-0.101 0.261-0.2 0.394-0.302-0.993 0.090-1.985 0.181-2.978 0.272-0.144 0.014-0.286 0.025-0.43 0.038-0.163 0.014-0.307 0.091-0.373 0.252-0.057 0.14-0.041 0.345 0.084 0.45 0.77 0.639 1.539 1.275 2.309 1.914 0.111 0.093 0.223 0.184 0.335 0.277-0.035-0.134-0.071-0.266-0.106-0.4-0.226 0.968-0.454 1.936-0.68 2.904-0.033 0.137-0.063 0.271-0.095 0.409-0.079 0.332 0.288 0.666 0.598 0.463 0.813-0.527 1.626-1.053 2.437-1.579 0.117-0.074 0.234-0.151 0.348-0.225-0.136 0-0.275 0-0.411 0 0.813 0.526 1.626 1.053 2.437 1.579 0.117 0.074 0.234 0.151 0.348 0.225 0.313 0.203 0.677-0.132 0.598-0.463-0.226-0.968-0.454-1.936-0.68-2.904-0.033-0.137-0.063-0.271-0.095-0.409-0.035 0.134-0.071 0.266-0.106 0.4 0.77-0.639 1.539-1.275 2.309-1.914 0.111-0.093 0.223-0.184 0.334-0.277 0.122-0.101 0.144-0.313 0.084-0.45-0.071-0.159-0.204-0.239-0.373-0.252-0.993-0.090-1.985-0.181-2.978-0.271-0.144-0.014-0.286-0.025-0.43-0.038 0.131 0.101 0.261 0.2 0.394 0.302-0.364-0.921-0.726-1.843-1.091-2.764-0.052-0.132-0.103-0.261-0.155-0.392-0.082-0.206-0.272-0.351-0.503-0.288-0.196 0.055-0.367 0.299-0.286 0.507 0.364 0.921 0.726 1.843 1.091 2.764 0.052 0.132 0.103 0.261 0.155 0.392 0.073 0.184 0.196 0.285 0.394 0.302 0.993 0.091 1.985 0.181 2.978 0.271 0.144 0.014 0.286 0.025 0.43 0.038-0.095-0.233-0.193-0.469-0.288-0.702-0.77 0.639-1.539 1.275-2.309 1.914-0.112 0.093-0.223 0.184-0.335 0.277s-0.136 0.266-0.106 0.4c0.226 0.968 0.454 1.936 0.68 2.904 0.033 0.137 0.063 0.271 0.095 0.409 0.198-0.154 0.4-0.31 0.598-0.463-0.813-0.526-1.626-1.053-2.437-1.579-0.117-0.074-0.234-0.151-0.348-0.225-0.117-0.077-0.294-0.077-0.411 0-0.813 0.527-1.626 1.053-2.437 1.579-0.117 0.074-0.234 0.151-0.348 0.225 0.199 0.154 0.4 0.31 0.598 0.463 0.226-0.968 0.454-1.936 0.68-2.904 0.033-0.137 0.063-0.271 0.095-0.409 0.030-0.134 0.008-0.307-0.106-0.4-0.77-0.639-1.539-1.275-2.309-1.914-0.111-0.093-0.223-0.184-0.335-0.277-0.095 0.233-0.193 0.469-0.288 0.702 0.993-0.090 1.985-0.181 2.978-0.271 0.144-0.014 0.286-0.025 0.43-0.038 0.198-0.019 0.321-0.118 0.394-0.302 0.364-0.921 0.726-1.843 1.091-2.764 0.052-0.132 0.103-0.261 0.155-0.392 0.079-0.2-0.087-0.461-0.286-0.507-0.231-0.052-0.413 0.074-0.498 0.288z"></path>
</symbol>
<symbol id="icon-Top" viewBox="0 0 33 32">
<path d="M22.102 19.176c-0.179-0.493-0.426-0.956-0.732-1.382-0.090-0.142-0.194-0.276-0.306-0.404-0.127-0.149-0.262-0.291-0.403-0.433-0.112-0.112-0.239-0.232-0.366-0.336-0.022-0.015-0.045-0.037-0.067-0.052-0.007 0-0.007 0-0.007 0v-0.007c-0.008-0.008-0.008-0.008-0.015-0.015-0.022-0.015-0.037-0.030-0.052-0.037-0.030-0.022-0.052-0.037-0.075-0.052-0.045-0.037-0.090-0.067-0.134-0.097-0.015-0.015-0.037-0.030-0.060-0.045-0.007-0.015-0.022-0.022-0.037-0.030-0.015-0.015-0.037-0.030-0.060-0.037-0.008-0.008-0.015-0.015-0.030-0.030h-0.007c-0.022-0.015-0.052-0.030-0.075-0.045-0.015-0.015-0.037-0.022-0.052-0.037-0.090-0.052-0.179-0.105-0.269-0.149-0.037-0.022-0.075-0.045-0.105-0.060-0.022-0.015-0.045-0.022-0.067-0.037-0.008 0-0.008-0.007-0.015-0.007-0.052-0.022-0.105-0.052-0.157-0.075-0.060-0.030-0.119-0.052-0.179-0.075-0.052-0.022-0.105-0.045-0.157-0.067-0.119-0.045-0.232-0.090-0.359-0.12-0.075-0.030-0.157-0.052-0.239-0.075-0.344-0.097-0.702-0.157-1.061-0.187-0.164-0.015-0.344-0.030-0.515-0.030h-0.030c-0.172 0-0.344 0.008-0.501 0.022-0.366 0.030-0.732 0.097-1.076 0.194-0.045 0.015-0.097 0.030-0.142 0.045-0.149 0.037-0.299 0.082-0.441 0.142-0.008 0.007-0.015 0.007-0.015 0.007-0.015 0.007-0.030 0.007-0.037 0.015-0.008 0-0.008 0-0.008 0-0.022 0.015-0.045 0.022-0.060 0.030-0.134 0.052-0.261 0.112-0.389 0.172-0.022 0.015-0.045 0.030-0.075 0.037 0 0.008 0 0.008-0.007 0.008-0.022 0.015-0.045 0.022-0.075 0.037-0.112 0.060-0.209 0.12-0.314 0.187-0.015 0.007-0.022 0.015-0.037 0.022-0.022 0.015-0.052 0.030-0.075 0.045-0.052 0.030-0.097 0.067-0.142 0.105-0.097 0.060-0.187 0.127-0.276 0.202-0.022 0.015-0.052 0.037-0.075 0.052-0.015 0.015-0.037 0.030-0.052 0.045-0.127 0.105-0.247 0.209-0.359 0.329-0.142 0.134-0.276 0.284-0.403 0.433-0.112 0.134-0.217 0.269-0.321 0.404v0.007c-0.702 1.001-1.083 2.197-1.083 3.437 0 3.295 2.682 5.978 5.977 5.978s5.977-2.683 5.977-5.978c0-0.359-0.030-0.702-0.090-1.046s-0.157-0.687-0.269-1.009zM14.9 23.338c-0.261-0.187-0.381-0.523-0.284-0.829l0.284-0.934-0.74-0.56c-0.254-0.202-0.351-0.531-0.254-0.837 0.105-0.306 0.389-0.508 0.71-0.508h0.874l0.276-0.897c0.097-0.314 0.389-0.531 0.717-0.531s0.62 0.217 0.717 0.531l0.276 0.897h0.874c0.321 0 0.605 0.202 0.71 0.508 0.097 0.306 0 0.635-0.254 0.837l-0.74 0.56 0.284 0.934c0.097 0.306-0.022 0.643-0.284 0.829-0.134 0.090-0.276 0.134-0.433 0.134s-0.314-0.052-0.448-0.157l-0.702-0.53-0.702 0.53c-0.254 0.202-0.613 0.209-0.882 0.022z"></path>
<path d="M11.972 15.275c0.665-0.508 1.412-0.897 2.211-1.151 0.486-0.157 0.994-0.269 1.517-0.321l-4.535-8.616c-0.127-0.239-0.381-0.396-0.657-0.396h-4.483c-0.261 0-0.501 0.135-0.643 0.359-0.134 0.224-0.142 0.501-0.022 0.732l5.476 10.461c0.344-0.404 0.725-0.762 1.136-1.069z"></path>
<path d="M27.586 5.15c-0.142-0.224-0.381-0.359-0.642-0.359h-4.483c-0.276 0-0.53 0.157-0.657 0.396l-4.535 8.616c0.523 0.052 1.031 0.157 1.517 0.314 0.799 0.254 1.546 0.643 2.219 1.158 0.403 0.306 0.784 0.665 1.128 1.069l5.476-10.461c0.12-0.232 0.112-0.508-0.022-0.732z"></path>
</symbol>
<symbol id="icon-News" viewBox="0 0 32 32">
<path d="M25.183 4.792h-18.367c-1.121 0-2.025 0.904-2.025 2.025v18.367c0 1.121 0.904 2.025 2.025 2.025h18.367c1.121 0 2.025-0.904 2.025-2.025v-18.331c0.036-1.121-0.904-2.061-2.025-2.061zM8.841 9.926c0-0.289 0.217-0.506 0.506-0.506h5.098c0.289 0 0.506 0.217 0.506 0.506v5.098c0 0.289-0.217 0.506-0.506 0.506h-5.098c-0.289 0-0.506-0.217-0.506-0.506v-5.098zM21.097 23.195c0 0.289-0.217 0.506-0.506 0.506h-11.244c-0.289 0-0.506-0.217-0.506-0.506v-1.012c0-0.289 0.217-0.506 0.506-0.506h11.244c0.289 0 0.506 0.217 0.506 0.506v1.012zM23.158 19.109c0 0.289-0.217 0.506-0.506 0.506h-13.305c-0.289 0-0.506-0.217-0.506-0.506v-1.012c0-0.289 0.217-0.506 0.506-0.506h13.269c0.289 0 0.506 0.217 0.506 0.506v1.012h0.036zM23.158 15.024c0 0.289-0.217 0.506-0.506 0.506h-5.134c-0.289 0-0.506-0.217-0.506-0.506v-1.012c0-0.289 0.217-0.506 0.506-0.506h5.098c0.289 0 0.506 0.217 0.506 0.506v1.012h0.036zM23.158 10.938c0 0.289-0.217 0.506-0.506 0.506h-5.134c-0.289 0-0.506-0.217-0.506-0.506v-1.012c0-0.289 0.217-0.506 0.506-0.506h5.098c0.289 0 0.506 0.217 0.506 0.506v1.012h0.036z"></path>
</symbol>
<symbol id="icon-Arrow-up" viewBox="0 0 32 32">
<path d="M21.5 13.528c0-0.13-0.047-0.26-0.118-0.364l-4.874-7.854c-0.189-0.312-0.568-0.416-0.852-0.182-0.071 0.026-0.118 0.104-0.166 0.182l-4.874 7.854c-0.213 0.312-0.118 0.728 0.166 0.936 0.095 0.078 0.237 0.13 0.355 0.13h2.461v12.094c0 0.39 0.284 0.676 0.615 0.676h3.549c0.355 0 0.639-0.312 0.639-0.676v-12.094h2.461c0.355 0 0.639-0.312 0.639-0.702z"></path>
</symbol>
<symbol id="icon-Arrow-down" viewBox="0 0 32 32">
<path d="M10.5 18.472c0 0.13 0.047 0.26 0.118 0.364l4.874 7.854c0.189 0.312 0.568 0.416 0.852 0.182 0.071-0.026 0.118-0.104 0.166-0.182l4.874-7.854c0.213-0.312 0.118-0.728-0.166-0.936-0.095-0.078-0.237-0.13-0.355-0.13h-2.461v-12.094c0-0.39-0.284-0.676-0.615-0.676h-3.549c-0.355 0-0.639 0.312-0.639 0.676v12.094h-2.461c-0.355 0-0.639 0.312-0.639 0.702z"></path>
</symbol>
<symbol id="icon-Arrow-right" viewBox="0 0 32 32">
<path d="M18.472 21.5c0.13 0 0.26-0.047 0.364-0.118l7.854-4.874c0.312-0.189 0.416-0.568 0.182-0.852-0.026-0.071-0.104-0.118-0.182-0.166l-7.854-4.874c-0.312-0.213-0.728-0.118-0.936 0.166-0.078 0.095-0.13 0.237-0.13 0.355v2.461h-12.094c-0.39 0-0.676 0.284-0.676 0.615v3.549c0 0.355 0.312 0.639 0.676 0.639h12.094v2.461c0 0.355 0.312 0.639 0.702 0.639z"></path>
</symbol>
<symbol id="icon-Ball" viewBox="0 0 32 32">
<path d="M11.474 4.854c-1.492 0.605-2.831 1.495-3.978 2.642s-2.037 2.486-2.642 3.978c-0.585 1.439-0.881 2.964-0.881 4.526s0.296 3.084 0.881 4.526c0.605 1.492 1.492 2.831 2.642 3.978 1.147 1.15 2.486 2.037 3.978 2.642 1.442 0.585 2.964 0.881 4.526 0.881s3.084-0.296 4.526-0.881c1.492-0.605 2.831-1.492 3.978-2.642 1.15-1.146 2.037-2.486 2.642-3.978 0.585-1.439 0.881-2.964 0.881-4.526s-0.296-3.084-0.881-4.526c-0.605-1.492-1.495-2.831-2.642-3.978s-2.489-2.037-3.981-2.642c-1.439-0.585-2.961-0.881-4.523-0.881s-3.084 0.296-4.526 0.881zM6.977 21.061c-0.578-0.362-1.113-0.781-1.585-1.276-0.721-2.030-0.844-4.23-0.366-6.317 0.226-0.445 0.482-0.871 0.771-1.276 0.090-0.126 0.173-0.256 0.269-0.379l2.715 1.605c0 0.020 0 0.043 0 0.066-0.007 1.459 0.143 2.908 0.435 4.337 0 0.007 0.003 0.010 0.003 0.017l-2.104 3.3c-0.050-0.023-0.093-0.050-0.14-0.076zM15.046 26.641c0.469 0.239 0.95 0.442 1.446 0.605-2.104 0.093-4.224-0.402-6.101-1.479l4.55 0.811c0.033 0.020 0.070 0.043 0.106 0.063zM15.030 25.82l-5.367-0.957c-0.628-0.764-1.193-1.569-1.678-2.433-0.123-0.219-0.263-0.432-0.366-0.661l2.104-3.297c0.046 0.010 0.1 0.023 0.156 0.040 1.316 0.352 2.655 0.602 4.001 0.798 0.080 0.010 0.143 0.020 0.199 0.027l2.522 4.357c-0.439 0.615-0.881 1.226-1.333 1.831-0.076 0.1-0.156 0.199-0.239 0.296zM23.962 23.962c-0.429 0.429-0.881 0.814-1.356 1.157-0.080-0.628-0.216-1.246-0.405-1.848l2.689-5.018c0.741-0.336 1.456-0.721 2.117-1.193 0.086-0.063 0.16-0.13 0.216-0.206-0.196 2.592-1.283 5.131-3.26 7.108zM23.843 17.456c0.1 0.189 0.199 0.382 0.299 0.578l-2.599 4.845c-0.013 0.003-0.030 0.007-0.043 0.010-1.402 0.263-2.818 0.402-4.247 0.409l-2.592-4.483c0.402-0.748 0.804-1.502 1.2-2.253 0.269-0.512 0.535-1.024 0.798-1.539l5.364-0.552c0.658 0.964 1.279 1.951 1.821 2.984zM22.756 11.71c-0.256 0.671-0.528 1.336-0.798 2.004l-5.227 0.535c-0.063-0.083-0.126-0.163-0.196-0.243-0.618-0.698-1.24-1.392-1.858-2.090 0.007-0.007 0.010-0.013 0.017-0.020-0.249-0.249-0.502-0.498-0.751-0.751l1.456-4.38c0.1-0.027 0.203-0.050 0.302-0.060 0.791-0.080 1.582-0.173 2.376-0.216 0.485-0.027 0.974-0.043 1.469-0.007l3.599 4.058c-0.126 0.392-0.246 0.784-0.389 1.17zM23.962 8.034c0.994 0.994 1.761 2.127 2.306 3.34-0.671-0.462-1.392-0.844-2.147-1.153-0.116-0.050-0.239-0.090-0.362-0.133l-3.543-3.995c0.023-0.173 0.037-0.346 0.043-0.518 1.346 0.545 2.609 1.369 3.702 2.459zM12.391 5.362c0.013 0.010 0.020 0.020 0.030 0.020 0.811 0.279 1.545 0.691 2.24 1.18l-1.359 4.094c-0.007 0.003-0.013 0.003-0.020 0.007-0.279 0.116-0.562 0.219-0.834 0.342-1.13 0.512-2.227 1.080-3.263 1.761l-2.682-1.585c0.003-0.083 0.017-0.169 0.046-0.246 0.179-0.479 0.356-0.964 0.562-1.432 0.156-0.362 0.336-0.711 0.532-1.053 0.126-0.14 0.259-0.279 0.395-0.415 1.273-1.273 2.778-2.177 4.383-2.712-0.013 0.013-0.020 0.027-0.030 0.040z"></path>
</symbol>
<symbol id="icon-Card" viewBox="0 0 32 32">
<path stroke-linejoin="miter" stroke-linecap="butt" stroke-miterlimit="4" stroke-width="0.6682" d="M10.753 7.188c0.305-1.928 1.936-3.152 3.588-2.828l6.771 1.329c1.665 0.327 2.829 2.118 2.523 4.052l-2.388 15.072c-0.305 1.928-1.936 3.152-3.588 2.828l-6.771-1.329c-1.665-0.327-2.829-2.118-2.523-4.052l2.388-15.072z"></path>
</symbol>
</defs>
</svg>
