<svg width="10" height="10" viewBox="0 0 10 10" fill="none" xmlns="http://www.w3.org/2000/svg">
<path d="M0.550781 2.75217C0.80588 2.23108 1.1553 1.77933 1.58189 1.38432C2.45652 0.569068 3.4962 0.104713 4.70096 0.0164648C6.11579 -0.0885929 7.36341 0.308525 8.43526 1.22463C8.50385 1.28346 8.506 1.31498 8.44169 1.37801C8.00438 1.80245 7.57135 2.22688 7.14047 2.65551C7.08473 2.71014 7.05901 2.68913 7.01399 2.65131C6.48879 2.19116 5.86926 1.96213 5.16828 1.95373C3.91422 1.93902 2.79522 2.66602 2.30217 3.81115C2.27216 3.87839 2.24429 3.94562 2.21643 4.01286C1.65907 3.59263 1.10385 3.1724 0.550781 2.75217Z" fill="#E94335"/>
<path d="M2.20976 5.97955C2.34482 6.32414 2.51202 6.64982 2.7564 6.93348C3.45739 7.74453 4.34487 8.12063 5.43172 8.03028C5.93334 7.98826 6.40067 7.84538 6.82726 7.57853C6.84227 7.57013 6.85942 7.56593 6.87656 7.55962C6.898 7.57853 6.9173 7.59955 6.93873 7.61636C7.45107 8.00717 7.96556 8.39588 8.4779 8.7867C8.03844 9.20063 7.52396 9.49689 6.95159 9.6923C4.99227 10.3626 2.80356 9.94444 1.33514 8.37277C1.03717 8.0534 0.786357 7.7025 0.580563 7.31799C0.565557 7.29068 0.54412 7.26546 0.548408 7.23184C0.664167 7.1457 0.78207 7.05955 0.897829 6.9734C1.33514 6.64142 1.77245 6.30943 2.20976 5.97955Z" fill="#34A853"/>
<path d="M8.48001 8.78673C7.96767 8.39592 7.45319 8.00721 6.94085 7.61639C6.91941 7.59958 6.89797 7.57857 6.87868 7.55966C7.08662 7.39367 7.29027 7.22347 7.4489 7.00916C7.65041 6.73601 7.78975 6.43764 7.86692 6.10986C7.88621 6.02582 7.86263 6.00901 7.78117 6.00901C6.92798 6.01111 6.0748 6.00901 5.21947 6.01321C5.123 6.01321 5.10156 5.988 5.10156 5.89765C5.10585 5.32403 5.10799 4.75041 5.10371 4.1747C5.10371 4.08645 5.11871 4.05493 5.21947 4.05493C6.74791 4.05913 8.27636 4.05703 9.80481 4.05703C9.86698 4.05703 9.90771 4.05493 9.92057 4.13688C10.1478 5.68753 9.90771 7.12682 8.88303 8.38121C8.76084 8.52829 8.63436 8.67327 8.48001 8.78673Z" fill="#4285F3"/>
<path d="M2.21037 5.97945C1.77306 6.31143 1.33575 6.64131 0.898441 6.97329C0.782682 7.06154 0.664779 7.14559 0.54902 7.23174C0.328221 6.83672 0.186738 6.41229 0.0988474 5.97104C-0.113377 4.89105 0.0152444 3.84888 0.493285 2.85293C0.510435 2.81931 0.529727 2.78569 0.54902 2.75208C1.10423 3.17231 1.65945 3.59254 2.21466 4.01277C2.14177 4.27541 2.07532 4.53806 2.06031 4.81331C2.04317 5.18941 2.08175 5.55922 2.19965 5.91851C2.20823 5.93742 2.20823 5.95844 2.21037 5.97945Z" fill="#FABB06"/>
</svg>
