<svg width="10" height="10" viewBox="0 0 10 10" fill="none" xmlns="http://www.w3.org/2000/svg">
<path d="M9.92122 4.13649C9.90835 4.05455 9.86762 4.05665 9.80544 4.05665C8.27673 4.05665 6.74801 4.05875 5.2193 4.05455C5.11853 4.05455 5.10352 4.08606 5.10352 4.1743C5.10567 4.74786 5.10567 5.32142 5.10138 5.89708C5.10138 5.98953 5.12282 6.01474 5.2193 6.01264C6.07264 6.00843 6.92597 6.01053 7.78145 6.00843C7.86292 6.00843 7.88651 6.02524 7.86721 6.10928C7.79002 6.43703 7.65066 6.73536 7.44912 7.00849C7.29046 7.22278 7.08677 7.39296 6.8788 7.55893C6.86165 7.56524 6.8445 7.56944 6.82949 7.57784C6.40282 7.84466 5.93542 7.98753 5.43371 8.02955C4.34667 8.12199 3.45903 7.74592 2.75792 6.93285C2.5135 6.64922 2.34626 6.32358 2.21119 5.97902C2.20904 5.95801 2.20904 5.937 2.20261 5.91809C2.08469 5.55883 2.04395 5.18906 2.06325 4.81299C2.07611 4.53777 2.14472 4.27515 2.21762 4.01253C2.24549 3.9453 2.27551 3.87807 2.30338 3.81084C2.79866 2.66582 3.91571 1.93679 5.16999 1.9536C5.87109 1.962 6.49073 2.19311 7.01602 2.65112C7.06105 2.69103 7.08677 2.71204 7.14252 2.65532C7.57348 2.22672 8.00872 1.80023 8.44396 1.37794C8.50828 1.31491 8.50614 1.2834 8.43753 1.22457C7.3655 0.306456 6.11552 -0.0885226 4.70258 0.0165249C3.49762 0.104765 2.45776 0.569075 1.58084 1.38424C1.15631 1.77922 0.804687 2.23093 0.549545 2.75196C0.530248 2.78558 0.510952 2.81919 0.493799 2.85281C0.0135305 3.85076 -0.112969 4.89073 0.0992928 5.97062C0.185055 6.41182 0.328707 6.83621 0.549545 7.23119C0.545257 7.2648 0.566697 7.29001 0.581706 7.31733C0.787535 7.6997 1.03839 8.05266 1.33641 8.372C2.80509 9.94351 4.99417 10.3637 6.95384 9.6914C7.52631 9.49601 8.04088 9.19978 8.48041 8.78589C8.63693 8.67244 8.76128 8.52747 8.88135 8.38041C9.90835 7.12614 10.1485 5.68699 9.92122 4.13649Z" fill="white"/>
</svg>
