<svg width="53" height="45" viewBox="0 0 53 45" fill="none" xmlns="http://www.w3.org/2000/svg">
<path opacity="0.1" d="M32.9898 0.935059V19.8653H43.6258C43.6258 21.7981 43.5057 23.7309 43.2653 25.6637C42.9048 27.7102 42.3039 29.5294 41.4626 31.1211C40.6213 32.7128 39.5397 33.9635 38.2177 34.873C36.8957 35.8963 35.2132 36.4079 33.1701 36.4079V44.9351C36.5351 44.9351 39.4796 44.2529 42.0034 42.8885C44.5272 41.5242 46.6304 39.7051 48.3129 37.4312C49.8753 35.1573 51.0771 32.4854 51.9184 29.4157C52.6395 26.4596 53 23.2761 53 19.8653V0.935059H32.9898ZM0 0.935059V19.8653H10.636C10.636 21.7981 10.5159 23.7309 10.2755 25.6637C9.91496 27.7102 9.31405 29.5294 8.47278 31.1211C7.63152 32.7128 6.54988 33.9635 5.22788 34.873C3.90589 35.8963 2.22335 36.4079 0.180267 36.4079V44.9351C3.54535 44.9351 6.4898 44.2529 9.01361 42.8885C11.5374 41.5242 13.6406 39.7051 15.3231 37.4312C16.8855 35.1573 18.0873 32.4854 18.9286 29.4157C19.6497 26.4596 20.0102 23.2761 20.0102 19.8653V0.935059H0Z" fill="url(#paint0_linear)"/>
<defs>
<linearGradient id="paint0_linear" x1="53.532" y1="12.5932" x2="-1.73427" y2="15.0244" gradientUnits="userSpaceOnUse">
<stop stop-color="#C8A44F"/>
<stop offset="0.9999" stop-color="#F3E4BD"/>
<stop offset="1" stop-color="#C8A44F"/>
</linearGradient>
</defs>
</svg>
