<svg width="13" height="11" viewBox="0 0 13 11" fill="none" xmlns="http://www.w3.org/2000/svg">
<path d="M6.61971 1.95048C6.47844 1.62897 6.30592 1.34622 6.08994 1.09648C5.55066 0.476435 4.88777 0.10613 4.09448 0.018577C2.59754 -0.146482 1.22694 0.802247 0.767803 2.31217C0.618382 2.80591 0.592572 3.31114 0.650983 3.8221C0.761012 4.78231 1.12913 5.63344 1.62902 6.42859C2.17237 7.29264 2.83933 8.04329 3.57014 8.7308C4.45852 9.56614 5.41618 10.301 6.4404 10.9411C6.56537 11.0187 6.67676 11.0201 6.80173 10.9426C8.12615 10.1087 9.3487 9.13699 10.4259 7.96866C11.0399 7.30555 11.5805 6.5836 11.9935 5.76118C12.2977 5.15549 12.5137 4.51678 12.5925 3.83215C12.7107 2.80735 12.4784 1.88876 11.825 1.11083C11.2966 0.480741 10.6297 0.110436 9.83636 0.0214476C8.47797 -0.132129 7.24864 0.597 6.64824 1.89594C6.64144 1.91029 6.63329 1.92321 6.61971 1.95048Z" fill="#BE9457"/>
</svg>
