<svg width="22" height="17" viewBox="0 0 22 17" fill="none" xmlns="http://www.w3.org/2000/svg">
<path d="M11.3445 3.01438C11.0973 2.51751 10.7954 2.08053 10.4174 1.69456C9.47367 0.73631 8.31361 0.16402 6.92535 0.0287112C4.30571 -0.226379 1.90715 1.23984 1.10366 3.57336C0.842177 4.33641 0.797011 5.11721 0.89923 5.90688C1.09178 7.39084 1.73599 8.70622 2.61079 9.93509C3.56166 11.2704 4.72884 12.4305 6.00776 13.4931C7.56243 14.784 9.23833 15.9197 11.0307 16.909C11.2494 17.0288 11.4443 17.031 11.663 16.9113C13.9808 15.6225 16.1202 14.1208 18.0053 12.3152C19.0798 11.2904 20.0259 10.1747 20.7486 8.90364C21.2811 7.96757 21.659 6.98048 21.7969 5.92241C22.0037 4.33863 21.5972 2.919 20.4538 1.71674C19.5291 0.742963 18.3619 0.170674 16.9736 0.0331467C14.5965 -0.204198 12.4451 0.922637 11.3944 2.93009C11.3825 2.95227 11.3683 2.97223 11.3445 3.01438Z" fill="#EFD16E"/>
</svg>
