<svg width="16" height="16" viewBox="0 0 16 16" fill="none" xmlns="http://www.w3.org/2000/svg">
<path d="M14.5813 4.31734C14.0905 4.51643 13.5998 4.67571 13.0272 4.71553C13.5998 4.39697 14.0087 3.87932 14.2133 3.28204C13.6816 3.60059 13.109 3.79969 12.4955 3.91914C12.0048 3.4015 11.3095 3.08295 10.5325 3.08295C9.06013 3.08295 7.83319 4.2377 7.83319 5.711C7.83319 5.91009 7.87406 6.10919 7.91499 6.30829C5.66561 6.18883 3.70251 5.15353 2.39378 3.56077C2.14839 3.95896 2.0257 4.39697 2.0257 4.8748C2.0257 5.79064 2.51647 6.58702 3.21173 7.06485C2.76186 7.06485 2.35288 6.94539 1.9848 6.74629V6.78611C1.9848 8.06032 2.92545 9.09562 4.15239 9.33453C3.907 9.37435 3.70251 9.41417 3.45713 9.41417C3.29353 9.41417 3.12993 9.41417 2.96635 9.37435C3.29353 10.4097 4.31597 11.1662 5.46111 11.206C4.56136 11.9228 3.37533 12.321 2.10749 12.321C1.90301 12.321 1.65761 12.321 1.45312 12.2812C2.63916 13.0377 4.07059 13.4359 5.58381 13.4359C10.5325 13.4359 13.2317 9.45399 13.2317 5.98973C13.2317 5.87028 13.2317 5.75082 13.2317 5.67118C13.7634 5.27299 14.2133 4.83499 14.5813 4.31734Z" fill="white"/>
</svg>
