<svg width="21" height="17" viewBox="0 0 21 17" fill="none" xmlns="http://www.w3.org/2000/svg">
<path d="M20.3715 2.03587C19.6353 2.34356 18.8992 2.58971 18.0403 2.65125C18.8992 2.15894 19.5126 1.35894 19.8194 0.435866C19.0219 0.928174 18.163 1.23587 17.2428 1.42048C16.5067 0.620482 15.4638 0.128174 14.2982 0.128174C12.0897 0.128174 10.2493 1.91279 10.2493 4.18971C10.2493 4.4974 10.3106 4.8051 10.372 5.11279C6.99792 4.92817 4.05327 3.32817 2.09018 0.866635C1.7221 1.48202 1.53806 2.15894 1.53806 2.8974C1.53806 4.31279 2.27422 5.54356 3.31711 6.28202C2.6423 6.28202 2.02883 6.0974 1.47671 5.78971V5.85125C1.47671 7.82048 2.88769 9.42048 4.72809 9.78971C4.36001 9.85125 4.05328 9.91279 3.6852 9.91279C3.43981 9.91279 3.19441 9.91279 2.94903 9.85125C3.4398 11.4513 4.97347 12.6205 6.69118 12.682C5.34155 13.7897 3.5625 14.4051 1.66075 14.4051C1.35402 14.4051 0.985933 14.4051 0.679199 14.3436C2.45825 15.5128 4.60539 16.1282 6.87522 16.1282C14.2982 16.1282 18.3471 9.97433 18.3471 4.62048C18.3471 4.43587 18.3471 4.25125 18.3471 4.12817C19.1446 3.51279 19.8194 2.83587 20.3715 2.03587Z" fill="#1DA1F2"/>
</svg>
