<svg width="21" height="16" viewBox="0 0 21 16" fill="none" xmlns="http://www.w3.org/2000/svg">
<path d="M20.3715 1.90769C19.6353 2.21538 18.8992 2.46154 18.0403 2.52308C18.8992 2.03077 19.5126 1.23077 19.8194 0.307692C19.0219 0.8 18.163 1.10769 17.2428 1.29231C16.5067 0.492308 15.4638 0 14.2982 0C12.0897 0 10.2493 1.78462 10.2493 4.06154C10.2493 4.36923 10.3106 4.67692 10.372 4.98462C6.99792 4.8 4.05327 3.2 2.09018 0.738461C1.7221 1.35385 1.53806 2.03077 1.53806 2.76923C1.53806 4.18462 2.27422 5.41538 3.31711 6.15385C2.6423 6.15385 2.02883 5.96923 1.47671 5.66154V5.72308C1.47671 7.69231 2.88769 9.29231 4.72809 9.66154C4.36001 9.72308 4.05328 9.78462 3.6852 9.78462C3.43981 9.78462 3.19441 9.78462 2.94903 9.72308C3.4398 11.3231 4.97347 12.4923 6.69118 12.5538C5.34155 13.6615 3.5625 14.2769 1.66075 14.2769C1.35402 14.2769 0.985933 14.2769 0.679199 14.2154C2.45825 15.3846 4.60539 16 6.87522 16C14.2982 16 18.3471 9.84615 18.3471 4.49231C18.3471 4.30769 18.3471 4.12308 18.3471 4C19.1446 3.38462 19.8194 2.70769 20.3715 1.90769Z" fill="white"/>
</svg>
