<svg width="42" height="40" viewBox="0 0 42 40" fill="none" xmlns="http://www.w3.org/2000/svg">
<path fill-rule="evenodd" clip-rule="evenodd" d="M5.73856 14.3301C5.96709 15.2243 6.62401 15.9096 7.43219 16.0443L7.44357 16.0462L7.44354 16.0463C8.93441 16.3303 10.2053 15.0594 9.92132 13.5685L9.91916 13.5572L9.91929 13.5572C9.78198 12.7333 9.16905 12.0891 8.20955 11.8644C6.72736 11.5884 5.46564 12.8483 5.73856 14.3301ZM4.75882 14.531C4.34279 12.3469 6.22191 10.4678 8.40604 10.8838L8.41552 10.8856L8.42492 10.8878C9.733 11.1897 10.6906 12.1166 10.9047 13.3871C11.3161 15.5669 9.44192 17.4411 7.26207 17.0297C5.97743 16.8129 5.06421 15.7559 4.76492 14.5588L4.76147 14.545L4.75882 14.531Z" fill="white"/>
<path fill-rule="evenodd" clip-rule="evenodd" d="M16.625 11.875C15.4514 11.875 14.5 12.8264 14.5 14C14.5 15.1736 15.4514 16.125 16.625 16.125C17.7986 16.125 18.75 15.1736 18.75 14C18.75 12.8264 17.7986 11.875 16.625 11.875ZM13.5 14C13.5 12.2741 14.8991 10.875 16.625 10.875C18.3509 10.875 19.75 12.2741 19.75 14C19.75 15.7259 18.3509 17.125 16.625 17.125C14.8991 17.125 13.5 15.7259 13.5 14Z" fill="white"/>
<path fill-rule="evenodd" clip-rule="evenodd" d="M5.25 6.625C3.60114 6.625 2.25 7.97614 2.25 9.625V11.875H1.375V17H2.25V21.375H22.25V17.5H22.7444L22.7444 17H23.125V11.875H22.25V9.625C22.25 7.97614 20.8989 6.625 19.25 6.625H5.25ZM23.25 10.875V9.625C23.25 7.42386 21.4511 5.625 19.25 5.625H5.25C3.04886 5.625 1.25 7.42386 1.25 9.625V10.875H0.375V18H1.25V22.375H23.25V18H24.125V10.875H23.25Z" fill="white"/>
<path fill-rule="evenodd" clip-rule="evenodd" d="M12.75 0V6.125H11.75V0H12.75Z" fill="white"/>
<path fill-rule="evenodd" clip-rule="evenodd" d="M16.125 0.875C16.125 0.598858 16.3489 0.375 16.625 0.375H41.125C41.4011 0.375 41.625 0.598858 41.625 0.875V38.5C41.625 38.7761 41.4011 39 41.125 39H18.375V38H40.625V1.375H17.125V4.375H16.125V0.875Z" fill="white"/>
<path fill-rule="evenodd" clip-rule="evenodd" d="M36.75 3H38.5V4H36.75V3Z" fill="white"/>
<path fill-rule="evenodd" clip-rule="evenodd" d="M33.25 3H35V4H33.25V3Z" fill="white"/>
<path fill-rule="evenodd" clip-rule="evenodd" d="M24.5 5.625H41.125V6.625H24.5V5.625Z" fill="white"/>
<path fill-rule="evenodd" clip-rule="evenodd" d="M13.5 25.375V21.875H14.5V24.875H31.5V25.875H14C13.7239 25.875 13.5 25.6511 13.5 25.375Z" fill="white"/>
<path fill-rule="evenodd" clip-rule="evenodd" d="M30.625 22.725C29.828 22.725 29.1609 23.0836 28.616 23.6285L27.9089 22.9214C28.589 22.2413 29.497 21.725 30.625 21.725C32.6511 21.725 34.275 23.3488 34.275 25.375C34.275 27.4011 32.6511 29.025 30.625 29.025C29.715 29.025 28.9003 28.7177 28.1996 28.1171L28.8504 27.3578C29.3747 27.8072 29.96 28.025 30.625 28.025C32.0988 28.025 33.275 26.8488 33.275 25.375C33.275 23.9011 32.0988 22.725 30.625 22.725Z" fill="white"/>
<path fill-rule="evenodd" clip-rule="evenodd" d="M30.625 19.75C29.0188 19.75 27.6555 20.3891 26.6036 21.4411L25.8965 20.7339C27.1195 19.5109 28.7313 18.75 30.625 18.75C34.3137 18.75 37.25 21.6864 37.25 25.375C37.25 29.0636 34.3137 32 30.625 32C28.8172 32 27.2127 31.2383 25.9984 30.1174L26.6767 29.3826C27.7374 30.3617 29.1079 31 30.625 31C33.7614 31 36.25 28.5114 36.25 25.375C36.25 22.2386 33.7614 19.75 30.625 19.75Z" fill="white"/>
<path fill-rule="evenodd" clip-rule="evenodd" d="M7.375 28H8.375V38H16.125V28H17.125V39H7.375V28Z" fill="white"/>
<path fill-rule="evenodd" clip-rule="evenodd" d="M11 21.875V25.375C11 25.6511 10.7761 25.875 10.5 25.875H6.125C5.43864 25.875 4.875 26.4386 4.875 27.125V37.625H3.875V27.125C3.875 25.8864 4.88636 24.875 6.125 24.875H10V21.875H11Z" fill="white"/>
</svg>
