<svg width="42" height="42" viewBox="0 0 42 42" fill="none" xmlns="http://www.w3.org/2000/svg">
<path d="M17.7188 3.28125H24.2812V4.59375H17.7188V3.28125Z" fill="#F37021"/>
<path d="M33.4688 14.4375H38.7188V7.21875H41.3438V0.65625H34.7812V7.21875H37.4062V13.125H33.4688V3.9375C33.4688 2.12822 31.9968 0.65625 30.1875 0.65625H11.8125C10.0032 0.65625 8.53125 2.12822 8.53125 3.9375V13.125H4.59375V7.21875H7.21875V0.65625H0.65625V7.21875H3.28125V14.4375H8.53125V17.7188H5.90625V15.75H0.65625V21H5.90625V19.0312H8.53125V22.3125H3.28125V29.5312H0.65625V36.0938H7.21875V29.5312H4.59375V23.625H8.53125V38.0625C8.53125 39.8718 10.0032 41.3438 11.8125 41.3438H30.1875C31.9968 41.3438 33.4688 39.8718 33.4688 38.0625V23.625H37.4062V29.5312H34.7812V36.0938H41.3438V29.5312H38.7188V22.3125H33.4688V19.0312H36.0938V21H41.3438V15.75H36.0938V17.7188H33.4688V14.4375ZM36.0938 1.96875H40.0312V5.90625H36.0938V1.96875ZM1.96875 1.96875H5.90625V5.90625H1.96875V1.96875ZM4.59375 19.6875H1.96875V17.0625H4.59375V19.6875ZM5.90625 34.7812H1.96875V30.8438H5.90625V34.7812ZM32.1562 38.0625C32.1562 39.1479 31.2729 40.0312 30.1875 40.0312H11.8125C10.7271 40.0312 9.84375 39.1479 9.84375 38.0625V3.9375C9.84375 2.85206 10.7271 1.96875 11.8125 1.96875H30.1875C31.2729 1.96875 32.1562 2.85206 32.1562 3.9375V38.0625ZM40.0312 34.7812H36.0938V30.8438H40.0312V34.7812ZM37.4062 17.0625H40.0312V19.6875H37.4062V17.0625Z" fill="#F37021"/>
<path d="M29.5312 3.28125H25.7375L25.2059 5.40881C25.1324 5.7015 24.8706 5.90625 24.5687 5.90625H17.4313C17.1294 5.90625 16.8682 5.7015 16.7941 5.40881L16.2625 3.28125H12.4688C11.7449 3.28125 11.1562 3.86991 11.1562 4.59375V32.1562C11.1562 32.8801 11.7449 33.4688 12.4688 33.4688H29.5312C30.2551 33.4688 30.8438 32.8801 30.8438 32.1562V4.59375C30.8438 3.86991 30.2551 3.28125 29.5312 3.28125V3.28125ZM29.5312 32.1562H12.4688V4.59375H15.2375L15.5216 5.72775C15.7402 6.60516 16.5263 7.21875 17.4313 7.21875H24.5693C25.4743 7.21875 26.2598 6.60516 26.479 5.72775L26.7625 4.59375L29.5312 4.59309V32.1562Z" fill="#F37021"/>
<path d="M22.9688 34.7812H19.0312C18.3074 34.7812 17.7188 35.3699 17.7188 36.0938C17.7188 37.5414 18.8961 38.7188 20.3438 38.7188H21.6562C23.1039 38.7188 24.2812 37.5414 24.2812 36.0938C24.2812 35.3699 23.6926 34.7812 22.9688 34.7812ZM21.6562 37.4062H20.3438C19.6199 37.4062 19.0312 36.8176 19.0312 36.0938H22.9688C22.9688 36.8176 22.3801 37.4062 21.6562 37.4062Z" fill="#F37021"/>
<path d="M29.5312 34.7812H28.2188C27.4949 34.7812 26.9062 35.3699 26.9062 36.0938V36.75C26.9062 37.8354 27.7896 38.7188 28.875 38.7188C29.9604 38.7188 30.8438 37.8354 30.8438 36.75V36.0938C30.8438 35.3699 30.2551 34.7812 29.5312 34.7812ZM29.5312 36.75C29.5312 37.1122 29.2372 37.4062 28.875 37.4062C28.5128 37.4062 28.2188 37.1122 28.2188 36.75V36.0938H29.5312V36.75Z" fill="#F37021"/>
<path d="M13.7812 34.7812H12.4688C11.7449 34.7812 11.1562 35.3699 11.1562 36.0938V36.75C11.1562 37.8354 12.0396 38.7188 13.125 38.7188C14.2104 38.7188 15.0938 37.8354 15.0938 36.75V36.0938C15.0938 35.3699 14.5051 34.7812 13.7812 34.7812ZM13.7812 36.75C13.7812 37.1122 13.4872 37.4062 13.125 37.4062C12.7628 37.4062 12.4688 37.1122 12.4688 36.75V36.0938H13.7812V36.75Z" fill="#F37021"/>
<path d="M24.2812 15.75C24.2812 14.6823 23.7608 13.7412 22.9688 13.1421V11.1562H21.6562V12.535C21.4443 12.4917 21.2244 12.4688 21 12.4688H20.3438V11.1562H19.0312V12.4688H17.7188V17.7188V19.0312V24.2812H19.0312V25.5938H20.3438V24.2812H21C21.2244 24.2812 21.4443 24.2583 21.6562 24.215V25.5938H22.9688V23.6079C23.7608 23.0081 24.2812 22.0671 24.2812 21C24.2812 19.9231 23.7523 18.9735 22.9484 18.375C23.7523 17.7765 24.2812 16.8269 24.2812 15.75ZM22.9688 21C22.9688 22.0854 22.0854 22.9688 21 22.9688H19.0312V19.0312H21C22.0854 19.0312 22.9688 19.9146 22.9688 21ZM21 17.7188H19.0312V13.7812H21C22.0854 13.7812 22.9688 14.6646 22.9688 15.75C22.9688 16.8354 22.0854 17.7188 21 17.7188Z" fill="#F37021"/>
<path d="M26.9062 9.84375H28.2188V11.1562H26.9062V9.84375Z" fill="#F37021"/>
<path d="M26.9062 12.4688H28.2188V13.7812H26.9062V12.4688Z" fill="#F37021"/>
<path d="M26.9062 7.21875H28.2188V8.53125H26.9062V7.21875Z" fill="#F37021"/>
<path d="M13.7812 26.9062H15.0938V28.2188H13.7812V26.9062Z" fill="#F37021"/>
<path d="M13.7812 29.5312H15.0938V30.8438H13.7812V29.5312Z" fill="#F37021"/>
<path d="M13.7812 24.2812H15.0938V25.5938H13.7812V24.2812Z" fill="#F37021"/>
</svg>
