<svg width="42" height="42" viewBox="0 0 42 42" fill="none" xmlns="http://www.w3.org/2000/svg">
<path d="M32.5521 22.4069L28.0104 16.6253C29.6231 14.972 30.597 12.8 30.7588 10.496H37.7914V11.2657C36.1635 11.6002 34.9945 13.0322 34.9926 14.6942C34.9931 16.6263 36.5597 18.1923 38.4918 18.1919C40.4239 18.1916 41.9899 16.6249 41.9896 14.6928C41.9892 13.0306 40.8194 11.5981 39.1908 11.2657V9.79632C39.1908 9.40991 38.8775 9.09662 38.4911 9.09662H30.7588C30.622 7.15803 29.908 5.30472 28.7087 3.77545L29.6848 2.79938H37.9202C38.3066 3.89239 39.5059 4.46517 40.5989 4.07868C41.6919 3.69227 42.2647 2.49291 41.8782 1.39999C41.4917 0.307066 40.2925 -0.265808 39.1996 0.120598C38.6018 0.331905 38.1316 0.802187 37.9203 1.3999H29.3952C29.2096 1.3999 29.0317 1.47372 28.9005 1.60491L27.7705 2.73492C23.8821 -1.00985 17.6942 -0.893434 13.9493 2.99494C12.3577 4.64762 11.3982 6.80757 11.2388 9.09653H5.36139L3.07401 3.95177C4.09652 3.41362 4.48922 2.14857 3.95116 1.12606C3.4131 0.103543 2.14796 -0.289073 1.12545 0.248992C0.103018 0.787056 -0.289685 2.0521 0.24838 3.07462C0.531143 3.61198 1.03352 4.00005 1.62494 4.1378L4.26628 10.081C4.37876 10.3335 4.62943 10.4961 4.9058 10.4959H11.2387C11.3998 12.7734 12.3549 14.9222 13.9375 16.5679L8.03064 22.4747C4.21127 21.9024 0.651141 24.5347 0.0788788 28.354C-0.493383 32.1734 2.13887 35.7335 5.95823 36.3058C6.07351 36.3231 6.18922 36.3375 6.30519 36.3489V39.8831C6.30519 40.2695 6.61848 40.5828 7.00489 40.5828H13.4309C13.8173 41.6758 15.0166 42.2486 16.1096 41.8621C17.2025 41.4756 17.7754 40.2763 17.3889 39.1834C17.0024 38.0905 15.8031 37.5176 14.7102 37.9041C14.1124 38.1154 13.6422 38.5857 13.4309 39.1834H7.70458V36.3489C11.5475 35.9658 14.3523 32.54 13.9692 28.697C13.71 26.0966 12.0223 23.8576 9.59375 22.8924L14.9814 17.5048C18.49 20.2673 23.4286 20.2872 26.9595 17.553L30.8414 22.4943C25.4813 23.242 21.7422 28.1933 22.4899 33.5533C23.2376 38.9134 28.1889 42.6525 33.5489 41.9047C38.909 41.157 42.6481 36.2057 41.9004 30.8457C41.2437 26.1377 37.3026 22.58 32.5521 22.4069ZM40.5902 14.6942C40.5902 15.8535 39.6504 16.7933 38.4911 16.7933C37.3318 16.7933 36.392 15.8535 36.392 14.6942C36.392 13.5349 37.3318 12.5951 38.4911 12.5951C39.6504 12.5951 40.5902 13.5349 40.5902 14.6942ZM39.8905 1.39999C40.2769 1.39999 40.5902 1.71328 40.5902 2.09968C40.5902 2.48609 40.2769 2.79938 39.8905 2.79938C39.5041 2.79938 39.1908 2.48609 39.1908 2.09968C39.1908 1.71328 39.5041 1.39999 39.8905 1.39999ZM2.10703 2.79938C1.72062 2.79938 1.40734 2.48609 1.40734 2.09968C1.40734 1.71328 1.72062 1.39999 2.10703 1.39999C2.49344 1.39999 2.80672 1.71328 2.80672 2.09968C2.80672 2.48609 2.49344 2.79938 2.10703 2.79938ZM15.4012 39.1835C15.7876 39.1835 16.1009 39.4967 16.1009 39.8832C16.1009 40.2696 15.7876 40.5828 15.4012 40.5828C15.0148 40.5828 14.7015 40.2696 14.7015 39.8832C14.7015 39.4967 15.0148 39.1835 15.4012 39.1835ZM9.80366 34.2282C8.07446 35.2381 5.93532 35.2381 4.20611 34.2282V32.8862C4.20611 31.3405 5.45918 30.0874 7.00489 30.0874C8.5506 30.0874 9.80366 31.3405 9.80366 32.8862V34.2282ZM5.6055 27.2887C5.6055 26.5158 6.23199 25.8893 7.00489 25.8893C7.77779 25.8893 8.40427 26.5158 8.40427 27.2887C8.40427 28.0616 7.77779 28.6881 7.00489 28.6881C6.23199 28.6881 5.6055 28.0615 5.6055 27.2887ZM11.203 25.6731C12.1076 26.6987 12.6054 28.0201 12.6024 29.3877C12.6022 30.7474 12.1044 32.06 11.203 33.0779V32.8862C11.2022 31.3565 10.3693 29.9483 9.0291 29.2107C10.0964 28.0926 10.0551 26.321 8.937 25.2537C7.81889 24.1865 6.04727 24.2277 4.97997 25.3458C3.94766 26.4273 3.94766 28.1292 4.97997 29.2106C3.64006 29.9484 2.80751 31.3565 2.80672 32.8861V33.0778C0.761955 30.7592 0.983933 27.222 3.30246 25.1773C5.62107 23.1325 9.15828 23.3545 11.203 25.6731ZM25.8966 16.6001C22.9757 18.7207 19.0219 18.7207 16.1009 16.6001V14.9041C16.1009 13.6289 17.1347 12.5951 18.4099 12.5951H19.9632L18.948 15.1336C18.844 15.3936 18.9051 15.6907 19.1033 15.8885L20.5027 17.2879C20.7759 17.5611 21.2188 17.5611 21.492 17.2879L22.8914 15.8885C23.0896 15.6906 23.1508 15.3936 23.0468 15.1336L22.0322 12.5951H23.5876C24.8628 12.5951 25.8966 13.6289 25.8966 14.9041V16.6001V16.6001ZM21.0989 5.23781C21.0727 5.28154 21.0513 5.32789 21.0352 5.37626C20.6812 6.4377 18.7697 6.84002 17.539 6.95687C17.7266 4.61202 18.8301 3.49898 20.9989 3.49898C22.9846 3.49898 24.0775 4.43797 24.3903 6.39711L22.0589 4.99773C21.7274 4.79901 21.2976 4.9065 21.0989 5.23781ZM21.9636 6.57352L24.4644 8.07437C24.1838 9.78722 22.0728 11.1957 20.9988 11.1957C19.4382 10.9299 18.14 9.84774 17.5976 8.36054C18.7954 8.26189 20.9582 7.89874 21.9636 6.57352ZM21.5767 15.2252L20.9988 15.8039L20.4208 15.2252L20.9988 13.779L21.5767 15.2252ZM24.0515 11.2279C25.1431 10.3689 25.8147 9.08376 25.8966 7.69723C25.8966 3.07086 23.2329 2.09968 20.9988 2.09968C18.7646 2.09968 16.1009 3.07086 16.1009 7.69723C16.1822 9.08455 16.854 10.3706 17.946 11.23C16.0913 11.4585 14.6988 13.0353 14.7015 14.9041V15.3295C11.6343 11.8517 11.9672 6.5458 15.4451 3.4786C18.923 0.411408 24.2288 0.744287 27.296 4.22212C30.0948 7.39567 30.0948 12.1559 27.296 15.3294V14.904C27.2998 13.0345 25.907 11.4564 24.0515 11.2279ZM37.0917 38.9903C34.1708 41.1109 30.217 41.1109 27.296 38.9903V37.2943C27.296 36.0191 28.3298 34.9853 29.605 34.9853H31.1583L30.1431 37.5238C30.0391 37.7838 30.1002 38.0808 30.2984 38.2788L31.6978 39.6781C31.971 39.9513 32.4139 39.9513 32.6872 39.6781L34.0865 38.2788C34.2847 38.0808 34.3459 37.7838 34.2419 37.5238L33.2273 34.9853H34.7827C36.0579 34.9853 37.0917 36.0191 37.0917 37.2943V38.9903V38.9903ZM33.1587 28.9637V28.963L35.6595 30.4639C35.3789 32.1774 33.2679 33.5859 32.1939 33.5859C30.6333 33.3201 29.3351 32.2379 28.7927 30.7508C29.9905 30.6521 32.1533 30.2889 33.1587 28.9637ZM28.7339 29.3472C28.9214 27.0025 30.0248 25.8893 32.1939 25.8893C34.1796 25.8893 35.2725 26.8283 35.5853 28.7874L33.2539 27.388C32.9225 27.1892 32.4927 27.2967 32.2939 27.6281C32.2677 27.6718 32.2463 27.7182 32.2303 27.7666C31.8762 28.828 29.9646 29.2303 28.7339 29.3472ZM32.7718 37.6154L32.1939 38.1941L31.6159 37.6154L32.1939 36.1692L32.7718 37.6154ZM38.4911 37.7217V37.2942C38.4949 35.4246 37.1021 33.8466 35.2466 33.618C36.3382 32.759 37.0098 31.4739 37.0917 30.0874C37.0917 25.461 34.428 24.4898 32.1939 24.4898C29.9597 24.4898 27.296 25.461 27.296 30.0874C27.3773 31.4747 28.0491 32.7607 29.1411 33.6201C27.2864 33.8486 25.8939 35.4254 25.8966 37.2942V37.7196C22.8366 34.2391 23.1775 28.9368 26.6581 25.8768C30.1386 22.8167 35.4409 23.1577 38.5009 26.6382C39.8492 28.1718 40.592 30.1444 40.5902 32.1863C40.5898 34.226 39.8432 36.1948 38.4911 37.7217Z" fill="#F37021"/>
</svg>
