<svg width="42" height="42" viewBox="0 0 42 42" fill="none" xmlns="http://www.w3.org/2000/svg">
<g clip-path="url(#clip0)">
<path d="M39.2052 6.16986H34.448C34.1082 6.16986 33.8329 6.44525 33.8329 6.78492C33.8329 7.1246 34.1082 7.39999 34.448 7.39999H39.2052C40.027 7.39999 40.6956 8.0686 40.6956 8.89041V30.6072H1.3041V8.89041C1.3041 8.0686 1.97264 7.39999 2.79452 7.39999H7.55167C7.89144 7.39999 8.16674 7.1246 8.16674 6.78492C8.16674 6.44525 7.89144 6.16986 7.55167 6.16986H2.79452C1.29443 6.16986 0.0739746 7.39031 0.0739746 8.89041V32.5878C0.0739746 34.0879 1.29443 35.3083 2.79452 35.3083H13.1216V38.0776L11.4509 40.4076C11.23 40.7155 11.2003 41.1163 11.3734 41.4534C11.5465 41.7906 11.8894 42 12.2684 42H29.6494C30.0283 42 30.3713 41.7906 30.5443 41.4534C30.7174 41.1163 30.6877 40.7155 30.4669 40.4077L28.8701 38.1809C28.8584 38.1049 28.833 38.0335 28.7961 37.9694V35.3083H39.2052C40.7053 35.3083 41.9258 34.0879 41.9258 32.5878V8.89041C41.9257 7.39031 40.7053 6.16986 39.2052 6.16986V6.16986ZM39.2052 34.0781H25.4898C25.15 34.0781 24.8747 34.3535 24.8747 34.6932C24.8747 35.0328 25.15 35.3082 25.4898 35.3082H27.5659V37.6602H26.481C26.1413 37.6602 25.866 37.9356 25.866 38.2753C25.866 38.615 26.1413 38.8904 26.481 38.8904H27.8653L29.213 40.7698H12.7047L14.0524 38.8904H15.5186C15.8584 38.8904 16.1337 38.615 16.1337 38.2753C16.1337 37.9356 15.8584 37.6602 15.5186 37.6602H14.3517V35.3082H22.8686C23.2084 35.3082 23.4837 35.0328 23.4837 34.6932C23.4837 34.3535 23.2084 34.0781 22.8686 34.0781H2.79452C1.97272 34.0781 1.3041 33.4095 1.3041 32.5877V31.8372H40.6956V32.5877C40.6956 33.4096 40.027 34.0781 39.2052 34.0781V34.0781Z" fill="#F37021"/>
<path d="M25.5863 12.7514C25.9056 12.8677 26.2583 12.7033 26.3748 12.3842C26.6033 11.7572 26.7192 11.0981 26.7192 10.4257C26.7192 7.27196 24.1535 4.70624 20.9999 4.70624C17.8462 4.70624 15.2805 7.27196 15.2805 10.4257C15.2805 13.5794 17.8462 16.1451 20.9999 16.1451C22.3492 16.1451 23.6598 15.6653 24.6902 14.7939C24.9496 14.5746 24.982 14.1865 24.7627 13.9271C24.5435 13.6678 24.1554 13.6352 23.8959 13.8546C23.0874 14.5384 22.0588 14.915 21 14.915C18.5245 14.915 16.5107 12.9011 16.5107 10.4257C16.5107 7.95025 18.5246 5.93637 21 5.93637C23.4753 5.93637 25.4892 7.95025 25.4892 10.4257C25.4892 10.9541 25.3983 11.4713 25.219 11.963C25.1027 12.2821 25.2671 12.6351 25.5863 12.7514V12.7514Z" fill="#F37021"/>
<path d="M18.4202 10.4257C18.4202 11.8482 19.5774 13.0054 20.9999 13.0054C22.4224 13.0054 23.5796 11.8482 23.5796 10.4257C23.5796 9.00317 22.4224 7.84595 20.9999 7.84595C19.5774 7.84595 18.4202 9.00317 18.4202 10.4257V10.4257ZM22.3495 10.4257C22.3495 11.1698 21.7441 11.7753 20.9999 11.7753C20.2558 11.7753 19.6503 11.1698 19.6503 10.4257C19.6503 9.68154 20.2558 9.07607 20.9999 9.07607C21.7441 9.07607 22.3495 9.68154 22.3495 10.4257V10.4257Z" fill="#F37021"/>
<path d="M8.66814 3.7628C9.4902 3.7628 10.1903 3.23261 10.4458 2.4965H15.9211C15.0409 2.91507 14.1556 3.43935 13.268 4.06918C11.122 5.59208 9.41409 7.4134 8.35922 8.67314C7.50895 9.68857 7.50895 11.1627 8.35922 12.1782C8.62017 12.4897 8.89432 12.8034 9.17413 13.1103C9.4031 13.3613 9.79215 13.3794 10.0431 13.1505C10.2942 12.9216 10.3121 12.5326 10.0833 12.2816C9.81503 11.9873 9.55228 11.6869 9.3024 11.3884C8.83536 10.8305 8.83536 10.0207 9.3024 9.46288C11.0564 7.3683 15.7073 2.4965 20.9998 2.4965C26.2922 2.4965 30.9431 7.3683 32.6971 9.46288C33.1642 10.0207 33.1642 10.8305 32.6971 11.3884C30.943 13.483 26.2921 18.3548 20.9998 18.3548C17.3589 18.3548 14.0467 16.0446 11.9092 14.1064C11.6575 13.8782 11.2685 13.8972 11.0404 14.1489C10.8122 14.4005 10.8312 14.7896 11.0829 15.0177C12.3545 16.1708 14.021 17.4455 15.9389 18.3549H10.4459C10.1905 17.6187 9.49036 17.0885 8.66831 17.0885C7.6309 17.0885 6.78687 17.9326 6.78687 18.97C6.78687 20.0074 7.6309 20.8513 8.66831 20.8513C9.49036 20.8513 10.1905 20.3211 10.4459 19.585H31.5537C31.8091 20.3212 32.5092 20.8513 33.3313 20.8513C34.3687 20.8513 35.2127 20.0073 35.2127 18.97C35.2127 17.9326 34.3687 17.0885 33.3313 17.0885C32.5092 17.0885 31.8091 17.6187 31.5537 18.3549H26.0782C26.9585 17.9363 27.8439 17.412 28.7314 16.7821C30.8774 15.2592 32.5853 13.438 33.6402 12.1782C34.4905 11.1627 34.4905 9.68865 33.6402 8.67314C32.5853 7.4134 30.8774 5.59208 28.7314 4.06918C27.8439 3.43935 26.9586 2.91499 26.0783 2.4965H31.5537C31.8091 3.23269 32.5092 3.7628 33.3313 3.7628C34.3687 3.7628 35.2127 2.91876 35.2127 1.88144C35.2125 0.844032 34.3685 0 33.3311 0C32.509 0 31.8089 0.530185 31.5534 1.26638H10.4458C10.1903 0.530185 9.4902 0 8.66814 0C7.63065 0 6.78662 0.844032 6.78662 1.88144C6.78662 2.91885 7.63065 3.7628 8.66814 3.7628V3.7628ZM8.66814 19.6212C8.30894 19.6212 8.01683 19.329 8.01683 18.97C8.01683 18.6108 8.30903 18.3186 8.66814 18.3186C9.02726 18.3186 9.31937 18.6108 9.31937 18.97C9.31937 19.329 9.02726 19.6212 8.66814 19.6212ZM33.3311 18.3186C33.6902 18.3186 33.9824 18.6108 33.9824 18.97C33.9824 19.3291 33.6902 19.6212 33.3311 19.6212C32.9719 19.6212 32.6798 19.329 32.6798 18.97C32.6798 18.6108 32.9719 18.3186 33.3311 18.3186ZM33.3311 1.23013C33.6902 1.23013 33.9824 1.52232 33.9824 1.88144C33.9824 2.24055 33.6902 2.53267 33.3311 2.53267C32.9719 2.53267 32.6798 2.24047 32.6798 1.88144C32.6798 1.52232 32.9719 1.23013 33.3311 1.23013ZM8.66814 1.23013C9.02726 1.23013 9.31937 1.52232 9.31937 1.88144C9.31937 2.24055 9.02718 2.53267 8.66814 2.53267C8.30894 2.53267 8.01683 2.24047 8.01683 1.88144C8.01675 1.52232 8.30894 1.23013 8.66814 1.23013Z" fill="#F37021"/>
</g>
<defs>
<clipPath id="clip0">
<rect width="42" height="42" fill="white"/>
</clipPath>
</defs>
</svg>
