<svg width="42" height="42" viewBox="0 0 42 42" fill="none" xmlns="http://www.w3.org/2000/svg">
<g clip-path="url(#clip0)">
<path d="M10.8206 30.3588C10.8087 30.3004 10.7914 30.2428 10.7686 30.188C10.7458 30.1333 10.7175 30.0803 10.6846 30.0301C10.6508 29.9808 10.6134 29.9333 10.5705 29.8913C10.5285 29.8493 10.4819 29.811 10.4317 29.7781C10.3824 29.7452 10.3294 29.7169 10.2747 29.6941C10.219 29.6712 10.1615 29.6539 10.104 29.642C9.98616 29.6183 9.86476 29.6183 9.74696 29.642C9.68856 29.6539 9.63097 29.6712 9.57625 29.6941C9.52146 29.7169 9.46756 29.7452 9.41826 29.7781C9.36806 29.811 9.32147 29.8493 9.27947 29.8913C9.23747 29.9333 9.19916 29.9808 9.16626 30.0301C9.13337 30.0803 9.10507 30.1333 9.08226 30.188C9.05946 30.2428 9.04207 30.3004 9.03026 30.3588C9.01836 30.4181 9.01196 30.4775 9.01196 30.5378C9.01196 30.5971 9.01836 30.6565 9.03026 30.7158C9.04215 30.7742 9.05946 30.8318 9.08226 30.8865C9.10507 30.9412 9.13337 30.9942 9.16626 31.0445C9.19916 31.0938 9.23747 31.1404 9.27947 31.1833C9.32147 31.2253 9.36806 31.2627 9.41826 31.2965C9.46756 31.3294 9.52146 31.3577 9.57625 31.3805C9.63105 31.4033 9.68856 31.4207 9.74696 31.4325C9.80537 31.4444 9.86566 31.4508 9.92497 31.4508C9.98436 31.4508 10.0446 31.4444 10.104 31.4325C10.1615 31.4206 10.219 31.4033 10.2747 31.3805C10.3295 31.3577 10.3824 31.3294 10.4317 31.2965C10.4819 31.2627 10.5285 31.2253 10.5705 31.1833C10.6134 31.1404 10.6508 31.0938 10.6846 31.0445C10.7175 30.9943 10.7458 30.9413 10.7686 30.8865C10.7914 30.8317 10.8088 30.7742 10.8206 30.7158C10.8325 30.6564 10.8379 30.5971 10.8379 30.5378C10.838 30.4775 10.8325 30.4181 10.8206 30.3588Z" fill="#F37021"/>
<path d="M35.8495 6.151C32.1182 2.41981 27.1618 0.242129 21.8935 0.0191676C16.9033 -0.192637 12.0453 1.3621 8.13084 4.40497C7.08838 3.82411 5.74463 3.97521 4.86 4.85975C3.97538 5.74437 3.82436 7.08821 4.40522 8.13066C1.36227 12.0451 -0.191972 16.9028 0.0192583 21.8934C0.242219 27.1618 2.41982 32.1182 6.15101 35.8493C10.1174 39.8157 15.391 42 21.0003 42C26.6096 42 31.8831 39.8157 35.8495 35.8493C39.8158 31.8831 42.0002 26.6094 42.0002 21.0001C42.0002 15.3908 39.8157 10.1174 35.8495 6.151ZM6.15109 6.151C6.32361 5.97857 6.5528 5.88358 6.79668 5.88358C7.04056 5.88358 7.26984 5.97857 7.44227 6.151C7.61478 6.32351 7.70969 6.55271 7.70969 6.79659C7.70969 7.04047 7.6147 7.26974 7.44227 7.44217C7.26984 7.6146 7.04056 7.7096 6.79668 7.7096C6.5528 7.7096 6.32352 7.6146 6.15109 7.44217C5.97866 7.26974 5.88367 7.04047 5.88367 6.79659C5.88367 6.55279 5.97858 6.32351 6.15109 6.151ZM34.5582 34.5582C27.0823 42.0342 14.9183 42.0342 7.44235 34.5582C0.562223 27.678 -0.0967336 16.9685 5.77818 9.33898C6.10434 9.46908 6.45043 9.53446 6.79668 9.53446C7.49805 9.53446 8.19958 9.26745 8.73352 8.73351C9.53103 7.93584 9.73274 6.76484 9.33907 5.77809C16.7287 0.0879095 27.0071 0.527187 33.8976 6.8116L31.3084 9.40083C28.5507 6.95253 24.9264 5.47859 21.0002 5.47859C12.4416 5.47859 5.47852 12.4416 5.47852 21.0003C5.47852 23.7289 6.19679 26.4129 7.55572 28.7619C7.72503 29.0545 8.03158 29.2179 8.34682 29.2179C8.50195 29.2179 8.6592 29.1782 8.80316 29.095C9.23965 28.8425 9.38879 28.2839 9.13621 27.8475C7.93782 25.776 7.30445 23.4082 7.30445 21.0003C7.30445 13.4486 13.4483 7.30469 21.0001 7.30469C24.4263 7.30469 27.5919 8.57667 30.015 10.6941L27.4234 13.2856C25.681 11.8324 23.441 10.9568 21.0001 10.9568C15.4621 10.9568 10.9566 15.4623 10.9566 21.0002C10.9566 26.5381 15.4621 31.0436 21.0001 31.0436C26.538 31.0436 31.0435 26.5381 31.0435 21.0002C31.0435 18.5593 30.1679 16.3193 28.7147 14.5769L31.3075 11.9842C32.8932 13.7921 34.0137 16.0267 34.4692 18.5105C33.5263 18.9437 32.8696 19.8965 32.8696 21.0004C32.8696 22.1043 33.5263 23.057 34.4692 23.4903C33.288 29.9315 27.6321 34.696 21.0001 34.696C17.8516 34.696 14.8919 33.6574 12.4408 31.6926C12.0473 31.3771 11.4726 31.4404 11.1573 31.8338C10.842 32.2273 10.9051 32.802 11.2986 33.1173C14.0375 35.3129 17.4828 36.5221 21.0001 36.5221C28.5739 36.5221 35.0255 31.0385 36.296 23.6521C37.4748 23.3465 38.3478 22.2734 38.3478 21.0004C38.3478 19.7273 37.4747 18.6545 36.296 18.3486C35.7929 15.4235 34.4765 12.7973 32.6003 10.6914L35.188 8.10384C42.0271 15.619 41.8177 27.2987 34.5582 34.5582ZM20.3547 21.6459C20.5331 21.8242 20.7667 21.9133 21.0003 21.9133C21.2339 21.9133 21.4677 21.8242 21.6459 21.6459L23.4717 19.8201C23.6431 20.1777 23.7393 20.5779 23.7393 21.0002C23.7393 22.5106 22.5106 23.7393 21.0002 23.7393C19.4899 23.7393 18.2611 22.5106 18.2611 21.0002C18.2611 19.4899 19.4899 18.2611 21.0002 18.2611C21.4226 18.2611 21.8228 18.3573 22.1804 18.5288L20.3546 20.3545C19.9981 20.7111 19.9981 21.2892 20.3547 21.6459ZM23.5159 17.1932C22.794 16.7146 21.9293 16.4349 21.0001 16.4349C18.4829 16.4349 16.4349 18.4828 16.4349 21.0001C16.4349 23.5173 18.4829 25.5653 21.0001 25.5653C23.5174 25.5653 25.5653 23.5174 25.5653 21.0001C25.5653 20.071 25.2857 19.2064 24.8071 18.4844L27.4175 15.8739C28.5432 17.2803 29.2175 19.0628 29.2175 21.0001C29.2175 25.5311 25.5311 29.2174 21.0001 29.2174C16.4691 29.2174 12.7827 25.531 12.7827 21.0001C12.7827 16.469 16.4691 12.7827 21.0001 12.7827C22.9374 12.7827 24.7199 13.457 26.1263 14.5826L23.5159 17.1932ZM34.6959 21.0001C34.6959 20.4967 35.1055 20.0871 35.6089 20.0871C36.1124 20.0871 36.5219 20.4967 36.5219 21.0001C36.5219 21.5036 36.1124 21.9131 35.6089 21.9131C35.1055 21.9132 34.6959 21.5036 34.6959 21.0001Z" fill="#F37021"/>
</g>
<defs>
<clipPath id="clip0">
<rect width="42" height="42" fill="white"/>
</clipPath>
</defs>
</svg>
