<svg width="42" height="42" viewBox="0 0 42 42" fill="none" xmlns="http://www.w3.org/2000/svg">
<path d="M28.7128 10.7977H13.2874C11.9034 10.7992 10.7823 11.9207 10.7808 13.3044V28.7297C10.7823 30.1133 11.9034 31.2348 13.2874 31.2363H28.7128C30.0964 31.2348 31.2179 30.1133 31.2194 28.7297V13.3044C31.2179 11.9207 30.0964 10.7992 28.7128 10.7977ZM30.0625 28.7297C30.0613 29.4746 29.4577 30.0787 28.7128 30.0794H13.2874C12.5421 30.0787 11.9384 29.4746 11.9377 28.7297V13.3044C11.9384 12.5591 12.5421 11.9554 13.2874 11.9546H28.7128C29.4577 11.9554 30.0617 12.5591 30.0625 13.3044V28.7297Z" fill="#F37021"/>
<path d="M30.6411 7.90552H11.3594C9.44326 7.90778 7.89055 9.46011 7.88867 11.3762V30.6579C7.89055 32.5737 9.44326 34.1264 11.3594 34.1286H30.6411C32.5568 34.1264 34.1095 32.5737 34.1118 30.6579V11.3762C34.1095 9.46011 32.5568 7.90778 30.6411 7.90552ZM32.9549 30.6579C32.9534 31.9353 31.9181 32.9702 30.6411 32.9717H11.3594C10.082 32.9702 9.04708 31.9353 9.04557 30.6579V11.3762C9.0467 10.0988 10.082 9.06393 11.3594 9.06242H30.6411C31.9181 9.06393 32.9534 10.0988 32.9549 11.3762V30.6579Z" fill="#F37021"/>
<path d="M23.0843 36.0226C22.7646 36.0226 22.5059 36.2817 22.5059 36.601V41.4215C22.5059 41.7412 22.7646 41.9999 23.0843 41.9999C23.4037 41.9999 23.6627 41.7412 23.6627 41.4215V36.601C23.6627 36.2817 23.4037 36.0226 23.0843 36.0226Z" fill="#F37021"/>
<path d="M18.9161 36.0226C18.5964 36.0226 18.3376 36.2817 18.3376 36.601V41.4215C18.3376 41.7412 18.5964 41.9999 18.9161 41.9999C19.2355 41.9999 19.4946 41.7412 19.4946 41.4215V36.601C19.4946 36.2817 19.2355 36.0226 18.9161 36.0226Z" fill="#F37021"/>
<path d="M14.7479 36.0226C14.4285 36.0226 14.1694 36.2817 14.1694 36.601V41.4215C14.1694 41.7412 14.4285 41.9999 14.7479 41.9999C15.0672 41.9999 15.3263 41.7412 15.3263 41.4215V36.601C15.3263 36.2817 15.0672 36.0226 14.7479 36.0226Z" fill="#F37021"/>
<path d="M27.2523 36.0226C26.9325 36.0226 26.6738 36.2817 26.6738 36.601V41.4215C26.6738 41.7412 26.9325 41.9999 27.2523 41.9999C27.5716 41.9999 27.8307 41.7412 27.8307 41.4215V36.601C27.8307 36.2817 27.5716 36.0226 27.2523 36.0226Z" fill="#F37021"/>
<path d="M19.4946 5.39888V0.578451C19.4946 0.259098 19.2355 0 18.9161 0C18.5964 0 18.3376 0.259098 18.3376 0.578451V5.39888C18.3376 5.71823 18.5964 5.97733 18.9161 5.97733C19.2355 5.97733 19.4946 5.71823 19.4946 5.39888Z" fill="#F37021"/>
<path d="M23.6627 5.39888V0.578451C23.6627 0.259098 23.4037 0 23.0843 0C22.7646 0 22.5059 0.259098 22.5059 0.578451V5.39888C22.5059 5.71823 22.7646 5.97733 23.0843 5.97733C23.4037 5.97733 23.6627 5.71823 23.6627 5.39888Z" fill="#F37021"/>
<path d="M27.8307 5.39888V0.578451C27.8307 0.259098 27.5716 0 27.2523 0C26.9325 0 26.6738 0.259098 26.6738 0.578451V5.39888C26.6738 5.71823 26.9325 5.97733 27.2523 5.97733C27.5716 5.97733 27.8307 5.71823 27.8307 5.39888Z" fill="#F37021"/>
<path d="M15.3263 5.39888V0.578451C15.3263 0.259098 15.0672 0 14.7479 0C14.4285 0 14.1694 0.259098 14.1694 0.578451V5.39888C14.1694 5.71823 14.4285 5.97733 14.7479 5.97733C15.0672 5.97733 15.3263 5.71823 15.3263 5.39888Z" fill="#F37021"/>
<path d="M41.4213 18.3375H36.6009C36.2816 18.3375 36.0225 18.5962 36.0225 18.916C36.0225 19.2353 36.2816 19.4944 36.6009 19.4944H41.4213C41.7411 19.4944 41.9998 19.2353 41.9998 18.916C41.9998 18.5962 41.7411 18.3375 41.4213 18.3375Z" fill="#F37021"/>
<path d="M41.4213 22.5057H36.6009C36.2816 22.5057 36.0225 22.7645 36.0225 23.0842C36.0225 23.4035 36.2816 23.6626 36.6009 23.6626H41.4213C41.7411 23.6626 41.9998 23.4035 41.9998 23.0842C41.9998 22.7645 41.7411 22.5057 41.4213 22.5057Z" fill="#F37021"/>
<path d="M41.4213 26.674H36.6009C36.2816 26.674 36.0225 26.9327 36.0225 27.2524C36.0225 27.5718 36.2816 27.8309 36.6009 27.8309H41.4213C41.7411 27.8309 41.9998 27.5718 41.9998 27.2524C41.9998 26.9327 41.7411 26.674 41.4213 26.674Z" fill="#F37021"/>
<path d="M41.4213 14.1694H36.6009C36.2816 14.1694 36.0225 14.4285 36.0225 14.7479C36.0225 15.0672 36.2816 15.3263 36.6009 15.3263H41.4213C41.7411 15.3263 41.9998 15.0672 41.9998 14.7479C41.9998 14.4285 41.7411 14.1694 41.4213 14.1694Z" fill="#F37021"/>
<path d="M5.39888 22.5057H0.578451C0.259098 22.5057 0 22.7645 0 23.0842C0 23.4035 0.259098 23.6626 0.578451 23.6626H5.39888C5.71823 23.6626 5.97733 23.4035 5.97733 23.0842C5.97733 22.7645 5.71823 22.5057 5.39888 22.5057Z" fill="#F37021"/>
<path d="M5.39888 18.3375H0.578451C0.259098 18.3375 0 18.5962 0 18.916C0 19.2353 0.259098 19.4944 0.578451 19.4944H5.39888C5.71823 19.4944 5.97733 19.2353 5.97733 18.916C5.97733 18.5962 5.71823 18.3375 5.39888 18.3375Z" fill="#F37021"/>
<path d="M5.39888 14.1694H0.578451C0.259098 14.1694 0 14.4285 0 14.7479C0 15.0672 0.259098 15.3263 0.578451 15.3263H5.39888C5.71823 15.3263 5.97733 15.0672 5.97733 14.7479C5.97733 14.4285 5.71823 14.1694 5.39888 14.1694Z" fill="#F37021"/>
<path d="M5.39888 26.674H0.578451C0.259098 26.674 0 26.9327 0 27.2524C0 27.5718 0.259098 27.8309 0.578451 27.8309H5.39888C5.71823 27.8309 5.97733 27.5718 5.97733 27.2524C5.97733 26.9327 5.71823 26.674 5.39888 26.674Z" fill="#F37021"/>
<path d="M20.4592 16.8986C20.3741 16.644 20.0562 16.5167 19.738 16.5167C19.4198 16.5167 19.1121 16.644 19.0273 16.8986L16.9169 23.7703C16.9082 23.8016 16.9048 23.834 16.9064 23.866C16.9064 24.1417 17.2988 24.3326 17.6064 24.3326C17.7974 24.3326 17.9458 24.269 17.9989 24.0991L18.4335 22.5935H21.0531L21.4876 24.0991C21.5407 24.269 21.6891 24.3326 21.8695 24.3326C22.1877 24.3326 22.5802 24.1311 22.5802 23.866C22.5783 23.8332 22.5711 23.8008 22.5587 23.7703L20.4592 16.8986ZM18.6775 21.6919L19.738 18.0544L20.7985 21.6919H18.6775Z" fill="#F37021"/>
<path d="M23.9802 16.5804C23.7046 16.5804 23.418 16.6863 23.418 16.9408V23.9613C23.418 24.2054 23.7046 24.3327 23.9802 24.3327C24.2665 24.3327 24.5421 24.2054 24.5421 23.9613V16.9412C24.5421 16.6863 24.2665 16.5804 23.9802 16.5804Z" fill="#F37021"/>
</svg>
