<svg width="42" height="42" viewBox="0 0 42 42" fill="none" xmlns="http://www.w3.org/2000/svg">
<g clip-path="url(#clip0)">
<path d="M20.8304 28.1754C20.8304 33.2412 24.9518 37.3626 30.0177 37.3626C35.0835 37.3626 39.2049 33.2412 39.2049 28.1754C39.2049 24.8728 37.4531 21.9721 34.8301 20.3526V8.8384C34.8301 8.61004 34.7202 8.40783 34.5509 8.27999C25.8539 -0.417009 26.4166 0.0737657 26.1191 0.0147923C26.015 -0.0058571 27.1136 0.00114271 5.59509 0.00114271C4.05119 0.00114271 2.79517 1.25717 2.79517 2.80107V39.2001C2.79517 40.744 4.05119 42 5.59509 42H32.0194C33.5633 42 34.8193 40.744 34.8193 39.2001C34.8193 38.8135 34.5059 38.5001 34.1193 38.5001C33.7328 38.5001 33.4193 38.8135 33.4193 39.2001C33.4193 39.972 32.7913 40.6 32.0194 40.6H5.59509C4.82319 40.6 4.19513 39.972 4.19513 39.2001V2.80107C4.19513 2.02916 4.82319 1.4011 5.59509 1.4011H25.2821V6.73846C25.2821 8.28236 26.5381 9.53839 28.082 9.53839H33.4301V19.6457C32.2889 19.1875 31.0488 18.956 29.7552 18.9922V14.0009C29.7552 12.843 28.8131 11.9009 27.6553 11.9009H9.98073C8.82279 11.9009 7.88079 12.843 7.88079 14.0009V22.9256C7.88079 24.0835 8.82279 25.0256 9.98073 25.0256H19.168C19.5545 25.0256 19.868 24.7121 19.868 24.3256C19.868 23.939 19.5545 23.6256 19.168 23.6256H16.0181V19.1632H22.3179C22.7045 19.1632 23.0179 18.8498 23.0179 18.4632V13.3009H27.6553C28.0412 13.3009 28.3552 13.6149 28.3552 14.0009V19.1393C24.0803 19.9238 20.8304 23.677 20.8304 28.1754V28.1754ZM28.082 8.13842C27.3101 8.13842 26.682 7.51036 26.682 6.73846V2.39105L32.4295 8.13851H28.082V8.13842ZM9.98073 13.3008H14.6181V17.7632H9.28075V14.0008C9.28075 13.6148 9.59478 13.3008 9.98073 13.3008ZM14.6181 23.6255H9.98073C9.59478 23.6255 9.28075 23.3115 9.28075 22.9255V19.1631H14.6181V23.6255ZM21.6179 17.7632H16.0181V13.3008H21.6179V17.7632ZM37.805 28.1754C37.805 32.4693 34.3116 35.9627 30.0177 35.9627C25.7237 35.9627 22.2304 32.4693 22.2304 28.1754C22.2304 23.8814 25.7237 20.3881 30.0177 20.3881C34.3116 20.3881 37.805 23.8814 37.805 28.1754ZM30.7177 29.9253V29.6421C30.7177 29.3343 30.5203 29.0658 30.2265 28.974L29.3914 28.7131C28.5099 28.4376 27.9177 27.6321 27.9177 26.7087V26.4255C27.9177 25.513 28.503 24.735 29.3177 24.446V24.1506C29.3177 23.764 29.6311 23.4506 30.0177 23.4506C30.4043 23.4506 30.7177 23.764 30.7177 24.1506V24.446C31.5324 24.735 32.1176 25.513 32.1176 26.4255C32.1176 26.8121 31.8042 27.1255 31.4177 27.1255C31.0311 27.1255 30.7177 26.8121 30.7177 26.4255C30.7177 26.0396 30.4036 25.7255 30.0177 25.7255C29.6317 25.7255 29.3177 26.0396 29.3177 26.4255V26.7087C29.3177 27.0166 29.5151 27.285 29.8089 27.3769L30.644 27.6378C31.5255 27.9132 32.1176 28.7187 32.1176 29.6421V29.9253C32.1176 30.9332 31.4037 31.7772 30.4552 31.9791V32.2003C30.4552 32.5868 30.1418 32.9003 29.7552 32.9003C29.3686 32.9003 29.0552 32.5868 29.0552 32.2003V31.7908C28.3803 31.4411 27.9177 30.7364 27.9177 29.9253C27.9177 29.5388 28.2312 29.2254 28.6177 29.2254C29.0043 29.2254 29.3177 29.5388 29.3177 29.9253C29.3177 30.3113 29.6317 30.6253 30.0177 30.6253C30.4036 30.6253 30.7177 30.3113 30.7177 29.9253ZM7.88079 28.8754C7.88079 28.4888 8.19421 28.1754 8.58077 28.1754H15.4056C15.7922 28.1754 16.1056 28.4888 16.1056 28.8754C16.1056 29.2619 15.7922 29.5753 15.4056 29.5753H8.58077C8.19421 29.5753 7.88079 29.2619 7.88079 28.8754ZM7.88079 34.1252C7.88079 33.7387 8.19421 33.4252 8.58077 33.4252H17.1555C17.5421 33.4252 17.8555 33.7387 17.8555 34.1252C17.8555 34.5118 17.5421 34.8252 17.1555 34.8252H8.58077C8.19421 34.8252 7.88079 34.5118 7.88079 34.1252Z" fill="#F37021"/>
</g>
<defs>
<clipPath id="clip0">
<rect width="42" height="42" fill="white"/>
</clipPath>
</defs>
</svg>
