<svg width="42" height="42" viewBox="0 0 42 42" fill="none" xmlns="http://www.w3.org/2000/svg">
<g clip-path="url(#clip0)">
<path d="M39.5458 -0.119995H2.21399C0.927355 -0.119995 -0.120117 0.927089 -0.120117 2.21412V30.9903C-0.120117 32.2774 0.927355 33.3245 2.21399 33.3245H29.8632L37.2017 40.6632C37.716 41.1771 38.3995 41.46 39.1264 41.46C39.854 41.46 40.5376 41.1771 41.051 40.6628C41.5653 40.1485 41.8486 39.465 41.8486 38.7378C41.8486 38.0106 41.5653 37.3269 41.051 36.8128V36.8132L37.5626 33.3245H39.5458C40.8324 33.3245 41.8799 32.2774 41.8799 30.9903V2.21412C41.8799 0.927089 40.8324 -0.119995 39.5458 -0.119995V-0.119995ZM40.2932 38.7378C40.2932 39.0497 40.1717 39.3423 39.9514 39.563C39.5116 40.0036 38.7429 40.0044 38.3017 39.563L25.539 26.8003L27.1886 25.1504L39.9514 37.9128V37.9131C40.1717 38.1331 40.2932 38.4263 40.2932 38.7378V38.7378ZM24.6052 25.5342L22.8144 22.4371L25.9201 24.2194L24.6052 25.5342ZM39.5458 31.7689H36.0071L27.7387 23.5005C27.6901 23.4519 27.6355 23.4101 27.5762 23.3759L21.0805 19.6492C20.7745 19.4742 20.3901 19.5241 20.1425 19.7746C19.8942 20.0237 19.8441 20.4089 20.0202 20.713L23.7656 27.1897C23.7999 27.2483 23.8417 27.3025 23.8895 27.3503L28.3077 31.7689H2.21399C1.78486 31.7689 1.43544 31.4195 1.43544 30.9903V2.21412C1.43544 1.78498 1.78486 1.43556 2.21399 1.43556H39.5458C39.9749 1.43556 40.3243 1.78498 40.3243 2.21412V3.76889H17.7688C17.3389 3.76889 16.991 4.11714 16.991 4.54667C16.991 4.9762 17.3389 5.32445 17.7688 5.32445H40.3243V30.9903C40.3243 31.4195 39.9749 31.7689 39.5458 31.7689V31.7689Z" fill="#F37021"/>
<path d="M3.38005 4.54672C4.02438 4.54672 4.54672 4.02438 4.54672 3.38005C4.54672 2.73571 4.02438 2.21338 3.38005 2.21338C2.73571 2.21338 2.21338 2.73571 2.21338 3.38005C2.21338 4.02438 2.73571 4.54672 3.38005 4.54672Z" fill="#F37021"/>
<path d="M6.49089 4.54672C7.13522 4.54672 7.65756 4.02438 7.65756 3.38005C7.65756 2.73571 7.13522 2.21338 6.49089 2.21338C5.84655 2.21338 5.32422 2.73571 5.32422 3.38005C5.32422 4.02438 5.84655 4.54672 6.49089 4.54672Z" fill="#F37021"/>
<path d="M9.60222 4.54672C10.2465 4.54672 10.7689 4.02438 10.7689 3.38005C10.7689 2.73571 10.2465 2.21338 9.60222 2.21338C8.95788 2.21338 8.43555 2.73571 8.43555 3.38005C8.43555 4.02438 8.95788 4.54672 9.60222 4.54672Z" fill="#F37021"/>
<path d="M11.1578 36.4355C9.65685 36.4355 8.43555 37.6568 8.43555 39.1578C8.43555 40.6587 9.65685 41.88 11.1578 41.88C12.6587 41.88 13.88 40.6587 13.88 39.1578C13.88 37.6568 12.6587 36.4355 11.1578 36.4355ZM11.1578 40.3244C10.5144 40.3244 9.9911 39.8012 9.9911 39.1578C9.9911 38.5143 10.5144 37.9911 11.1578 37.9911C11.8012 37.9911 12.3244 38.5143 12.3244 39.1578C12.3244 39.8012 11.8012 40.3244 11.1578 40.3244Z" fill="#F37021"/>
<path d="M23.602 35.1658C23.1155 35.1658 22.7212 35.5601 22.7212 36.0466C22.7212 36.5329 23.1155 36.9274 23.602 36.9274C24.0883 36.9274 24.4829 36.5331 24.4829 36.0466C24.4829 35.5601 24.0883 35.1658 23.602 35.1658Z" fill="#F37021"/>
<path d="M17.8845 18.5825C17.4622 18.5088 17.0574 18.7861 16.9808 19.2088C16.8174 20.1042 16.5129 21.0541 16.2652 21.4916C16.1991 21.3844 16.1149 21.2266 16.0161 20.9963C15.6097 20.0488 15.0721 19.6232 14.4407 19.7097C14.1619 19.7503 13.5953 19.8324 13.0326 21.386C12.9035 21.1756 12.6771 21.0321 12.4174 21.0158C12.0436 20.9938 11.7002 21.2425 11.6122 21.6106C10.842 24.8212 9.4513 27.7807 8.69471 27.82C8.68946 27.8291 8.09388 27.8773 7.2356 25.4437C7.19983 25.3425 7.1658 25.2428 7.13313 25.144C8.64319 24.0857 10.3924 22.3621 10.6961 19.9331C10.848 18.7198 10.4204 17.7168 9.55299 17.2504C8.66652 16.7742 7.50821 16.9674 6.6021 17.7441C5.9968 18.2624 4.27713 20.1734 5.31546 24.4485C4.70705 24.7956 4.2711 24.9752 4.25671 24.9809C3.85869 25.1411 3.6658 25.5938 3.82524 25.9922C3.98546 26.3894 4.43735 26.5823 4.83538 26.4248C4.89002 26.4029 5.25305 26.2547 5.77416 25.977C6.29449 27.449 7.15802 29.3759 8.68013 29.3757C8.71124 29.3757 8.74313 29.3749 8.77502 29.3734C10.1581 29.3016 11.2474 27.4494 12.0038 25.5578L12.0835 26.277C12.1276 26.67 12.4588 26.9679 12.8545 26.9691H12.8568C13.2509 26.9691 13.5829 26.6739 13.6293 26.2821C13.8496 24.4079 14.2545 22.5182 14.5984 21.6374C14.7929 22.0909 15.3587 23.3256 16.4039 23.2128C17.61 23.0765 18.2153 21.1114 18.5101 19.4869C18.5879 19.0639 18.3077 18.6591 17.8845 18.5825V18.5825ZM7.6138 18.9249C7.92899 18.6548 8.24419 18.5475 8.49638 18.5475C8.62102 18.5475 8.7303 18.5741 8.81624 18.62C9.09955 18.7727 9.22263 19.181 9.15263 19.74C8.94827 21.3701 7.82574 22.6372 6.70691 23.5173C6.25891 21.1322 6.81638 19.6082 7.6138 18.9249V18.9249Z" fill="#F37021"/>
<path d="M15.4357 11.5467V7.65778C15.4357 7.22825 15.0878 6.88 14.6579 6.88H3.76899C3.33907 6.88 2.99121 7.22825 2.99121 7.65778V11.5467C2.99121 11.9762 3.33907 12.3244 3.76899 12.3244H14.6579C15.0878 12.3244 15.4357 11.9762 15.4357 11.5467ZM13.8801 10.7689H4.54677V8.43556H13.8801V10.7689Z" fill="#F37021"/>
<path d="M28.6581 6.88H17.7692C17.3393 6.88 16.9915 7.22826 16.9915 7.65778V13.88C16.9915 14.3095 17.3393 14.6578 17.7692 14.6578H28.6581C29.088 14.6578 29.4359 14.3095 29.4359 13.88V7.65778C29.4359 7.22826 29.088 6.88 28.6581 6.88ZM27.8803 13.1022H18.547V8.43556H27.8803V13.1022Z" fill="#F37021"/>
<path d="M31.7687 9.21339H36.4354C36.8653 9.21339 37.2132 8.86514 37.2132 8.43561C37.2132 8.00609 36.8653 7.65784 36.4354 7.65784H31.7687C31.3388 7.65784 30.991 8.00609 30.991 8.43561C30.991 8.86514 31.3388 9.21339 31.7687 9.21339Z" fill="#F37021"/>
<path d="M31.7687 11.5466H34.8799C35.3098 11.5466 35.6576 11.1984 35.6576 10.7689C35.6576 10.3393 35.3098 9.99109 34.8799 9.99109H31.7687C31.3388 9.99109 30.991 10.3393 30.991 10.7689C30.991 11.1984 31.3388 11.5466 31.7687 11.5466Z" fill="#F37021"/>
<path d="M37.991 12.3245H31.7687C31.3388 12.3245 30.991 12.6727 30.991 13.1022C30.991 13.5318 31.3388 13.88 31.7687 13.88H37.991C38.4209 13.88 38.7688 13.5318 38.7688 13.1022C38.7688 12.6727 38.4209 12.3245 37.991 12.3245Z" fill="#F37021"/>
</g>
<defs>
<clipPath id="clip0">
<rect width="42" height="42" fill="white"/>
</clipPath>
</defs>
</svg>
