<svg width="42" height="42" viewBox="0 0 42 42" fill="none" xmlns="http://www.w3.org/2000/svg">
<path d="M36.0938 8.53125C36.0445 8.53125 35.9953 8.53191 35.9454 8.53387C35.3456 5.87278 32.9746 3.9375 30.1875 3.9375C29.4256 3.9375 28.6689 4.08647 27.9654 4.37128C26.7008 2.09409 24.2924 0.65625 21.6562 0.65625C17.6886 0.65625 14.4585 3.87384 14.4375 7.83628C14.0503 8.02791 13.6999 8.26875 13.3711 8.53125H3.9375C2.12822 8.53125 0.65625 10.0032 0.65625 11.8125V31.5C0.65625 33.3093 2.12822 34.7812 3.9375 34.7812H10.9016L10.0268 37.4062H9.84375C8.03447 37.4062 6.5625 38.8782 6.5625 40.6875V41.3438H30.1875V40.6875C30.1875 38.8782 28.7155 37.4062 26.9062 37.4062H26.7232L25.8484 34.7812H32.8125C34.6218 34.7812 36.0938 33.3093 36.0938 31.5V19.0312C38.9885 19.0312 41.3438 16.676 41.3438 13.7812C41.3438 10.8865 38.9885 8.53125 36.0938 8.53125ZM28.7628 40.0312H7.98722C8.25825 39.2674 8.988 38.7188 9.84375 38.7188H26.9062C27.762 38.7188 28.4917 39.2674 28.7628 40.0312ZM25.3391 37.4062H11.4109L12.2857 34.7812H24.4643L25.3391 37.4062ZM34.7812 31.5C34.7812 32.5854 33.8979 33.4688 32.8125 33.4688H3.9375C2.85206 33.4688 1.96875 32.5854 1.96875 31.5V11.8125C1.96875 10.7271 2.85206 9.84375 3.9375 9.84375H12.159C11.8867 10.2506 11.6694 10.691 11.5054 11.1562H4.59375C3.86991 11.1562 3.28125 11.7449 3.28125 12.4688V28.2188C3.28125 28.9426 3.86991 29.5312 4.59375 29.5312H32.1562C32.8801 29.5312 33.4688 28.9426 33.4688 28.2188V19.0312H34.7812V31.5ZM26.9062 22.9688V19.0312H28.2188V24.2812H12.4688V25.5938H29.5312V19.0312H32.1562V28.2188H4.59375V12.4688H11.2022C11.1786 12.6853 11.1562 12.9032 11.1562 13.125C11.1562 16.382 13.8062 19.0312 17.0625 19.0312H25.5938V21.6562H16.4062V22.9688H26.9062ZM36.0938 17.7188H17.0625C14.5294 17.7188 12.4688 15.6575 12.4688 13.125C12.4688 11.2389 13.6027 9.5655 15.3569 8.862L15.7953 8.68613L15.7605 8.10469C15.7559 8.02856 15.75 7.95244 15.75 7.875C15.75 4.61803 18.3999 1.96875 21.6562 1.96875C23.9978 1.96875 26.1201 3.35606 27.0631 5.50397L27.3512 6.15956L27.9799 5.81569C28.6538 5.44556 29.4177 5.25 30.1875 5.25C32.5244 5.25 34.4853 6.99956 34.7491 9.31941L34.8259 9.99469L35.4985 9.89428C35.7276 9.8595 35.9166 9.84375 36.0938 9.84375C38.2653 9.84375 40.0312 11.6097 40.0312 13.7812C40.0312 15.9528 38.2653 17.7188 36.0938 17.7188Z" fill="#F37021"/>
<path d="M17.0625 7.875H18.375C18.375 6.06572 19.847 4.59375 21.6562 4.59375V3.28125C19.1231 3.28125 17.0625 5.34253 17.0625 7.875Z" fill="#F37021"/>
<path d="M36.0938 15.0938H34.7812V16.4062H36.0938C37.5414 16.4062 38.7188 15.2289 38.7188 13.7812H37.4062C37.4062 14.5051 36.8176 15.0938 36.0938 15.0938Z" fill="#F37021"/>
<path d="M28.2188 30.8438H33.4688V32.1562H28.2188V30.8438Z" fill="#F37021"/>
<path d="M25.5938 30.8438H26.9062V32.1562H25.5938V30.8438Z" fill="#F37021"/>
<path d="M13.7812 13.125H15.0938C15.0938 12.0396 15.9771 11.1562 17.0625 11.1562V9.84375C15.2532 9.84375 13.7812 11.3157 13.7812 13.125Z" fill="#F37021"/>
<path d="M8.53125 22.9688C7.44581 22.9688 6.5625 23.8521 6.5625 24.9375C6.5625 26.0229 7.44581 26.9062 8.53125 26.9062C9.61669 26.9062 10.5 26.0229 10.5 24.9375C10.5 23.8521 9.61669 22.9688 8.53125 22.9688ZM8.53125 25.5938C8.16966 25.5938 7.875 25.2997 7.875 24.9375C7.875 24.5753 8.16966 24.2812 8.53125 24.2812C8.89284 24.2812 9.1875 24.5753 9.1875 24.9375C9.1875 25.2997 8.89284 25.5938 8.53125 25.5938Z" fill="#F37021"/>
<path d="M13.7812 21.6562H15.0938V22.9688H13.7812V21.6562Z" fill="#F37021"/>
</svg>
