<svg width="42" height="42" viewBox="0 0 42 42" fill="none" xmlns="http://www.w3.org/2000/svg">
<g clip-path="url(#clip0)">
<path d="M40.2363 33.6327H39.004C39.162 33.3246 39.252 32.976 39.252 32.6065L39.2511 11.2789C39.2511 10.0351 38.2391 9.02304 36.9953 9.02304H33.6738V8.27163C33.6738 7.67912 33.1918 7.19702 32.5992 7.19702H31.581V4.10978C31.581 3.76287 31.4122 3.43565 31.1297 3.23434C30.8471 3.03312 30.4827 2.98062 30.1548 3.09407L28.2169 3.76418C27.8958 3.87525 27.7255 4.22552 27.8365 4.54668C27.9476 4.86775 28.2976 5.03845 28.619 4.92706L30.3504 4.32831V19.125L21.6152 22.1458V7.34911L26.1382 5.78502C26.4593 5.67395 26.6296 5.32368 26.5186 5.00252C26.4075 4.68145 26.0576 4.51091 25.7361 4.62215L21 6.2599L11.8452 3.09407C11.5173 2.98054 11.1529 3.03312 10.8703 3.23434C10.5878 3.43565 10.419 3.76287 10.419 4.10978V7.19694H9.40078C8.80819 7.19694 8.32617 7.67904 8.32617 8.27155V9.02378H5.00391C3.75998 9.02378 2.74805 10.0358 2.74805 11.2796L2.74813 13.4675C2.74813 13.8073 3.02359 14.0827 3.36336 14.0827C3.70314 14.0827 3.9786 13.8073 3.9786 13.4675L3.97852 11.2797C3.97852 10.7143 4.43846 10.2543 5.00391 10.2543H8.32617V11.4848H5.82422C5.66106 11.4848 5.50454 11.5496 5.38921 11.665C5.27379 11.7804 5.20898 11.9369 5.20898 12.1L5.2098 31.787C5.2098 32.1269 5.48527 32.4023 5.82504 32.4023L36.1758 32.4014C36.3389 32.4014 36.4955 32.3366 36.6109 32.2212C36.7262 32.1059 36.791 31.9494 36.791 31.7862L36.7902 12.0992C36.7902 11.7594 36.5147 11.484 36.175 11.484H33.6738V10.2535H36.9953C37.5607 10.2535 38.0207 10.7135 38.0207 11.2789L38.0215 32.6065C38.0215 33.172 37.5615 33.6319 36.9961 33.6319L5.00473 33.6327C4.43929 33.6327 3.97934 33.1728 3.97934 32.6073L3.97876 16.1002C3.97876 15.7603 3.7033 15.485 3.36353 15.485C3.02375 15.485 2.74829 15.7604 2.74829 16.1002L2.74887 32.6073C2.74887 32.9765 2.83853 33.3249 2.99644 33.6327H1.76367C0.791191 33.6327 0 34.4239 0 35.3964V37.2011C0 38.1737 0.791191 38.9648 1.76367 38.9648H26.2238C26.5637 38.9648 26.8391 38.6895 26.8391 38.3496C26.8391 38.0098 26.5637 37.7344 26.2238 37.7344H1.76367C1.46967 37.7344 1.23047 37.4952 1.23047 37.2012V35.3965C1.23047 35.1025 1.46967 34.8633 1.76367 34.8633H16.8574V35.2956C16.8574 36.1428 17.5467 36.8321 18.3939 36.8321H23.6061C24.4534 36.8321 25.1426 36.1429 25.1426 35.2956V34.8633H40.2363C40.5303 34.8633 40.7695 35.1025 40.7695 35.3965V37.2012C40.7695 37.4952 40.5303 37.7344 40.2363 37.7344H28.9099C28.57 37.7344 28.2946 38.0098 28.2946 38.3496C28.2946 38.6895 28.57 38.9648 28.9099 38.9648H40.2363C41.2088 38.9648 42 38.1737 42 37.2012V35.3965C42 34.4239 41.2088 33.6327 40.2363 33.6327ZM30.8576 20.2516C31.2902 20.1018 31.581 19.6937 31.581 19.2359V8.42749H32.4434V22.3943H24.6615L30.8576 20.2516ZM11.6495 4.32831L20.3848 7.34911V22.1458L11.6495 19.125V4.32831ZM9.55664 8.42749H10.419V19.236C10.419 19.6937 10.7098 20.1019 11.1426 20.2517L17.3385 22.3944H9.55664V8.42749ZM35.5597 12.7144L35.5605 31.171L6.44019 31.1718L6.43945 12.7153H8.32617V22.5502C8.32617 23.1427 8.80819 23.6248 9.40078 23.6248H32.5992C33.1918 23.6248 33.6738 23.1427 33.6738 22.5502V12.7144H35.5597ZM23.9121 35.2955C23.9121 35.4642 23.7748 35.6016 23.6061 35.6016H18.3939C18.2252 35.6016 18.0879 35.4642 18.0879 35.2955V34.8632H23.9121V35.2955Z" fill="#F37021"/>
<path d="M29.0812 25.3794H12.9192C12.5794 25.3794 12.304 25.6548 12.304 25.9946C12.304 26.3345 12.5794 26.6099 12.9192 26.6099H29.0812C29.4211 26.6099 29.6965 26.3345 29.6965 25.9946C29.6965 25.6548 29.421 25.3794 29.0812 25.3794Z" fill="#F37021"/>
<path d="M23.4007 27.9893H12.9192C12.5794 27.9893 12.304 28.2646 12.304 28.6045C12.304 28.9443 12.5794 29.2197 12.9192 29.2197H23.4007C23.7405 29.2197 24.0159 28.9443 24.0159 28.6045C24.0159 28.2646 23.7404 27.9893 23.4007 27.9893Z" fill="#F37021"/>
</g>
<defs>
<clipPath id="clip0">
<rect width="42" height="42" fill="white"/>
</clipPath>
</defs>
</svg>
