<svg width="42" height="42" viewBox="0 0 42 42" fill="none" xmlns="http://www.w3.org/2000/svg">
<g clip-path="url(#clip0)">
<path d="M31.5349 9.48064V5.99292C31.5349 5.65315 31.2595 5.37769 30.9197 5.37769C30.5799 5.37769 30.3044 5.65315 30.3044 5.99292V10.0959C30.3044 10.4357 30.5799 10.7111 30.9197 10.7111H35.0377C35.3776 10.7111 35.653 10.4357 35.653 10.0959C35.653 9.7561 35.3776 9.48064 35.0377 9.48064H31.5349Z" fill="#F37021"/>
<path d="M17.2174 38.0857H2.31804C1.71839 38.0857 1.23047 37.5979 1.23047 36.9982V10.2878C1.23047 9.68816 1.71831 9.20032 2.31804 9.20032H8.58555C8.92541 9.20032 9.20079 8.92486 9.20079 8.58508C9.20079 8.24531 8.92541 7.96985 8.58555 7.96985H2.31804C1.03991 7.96977 0 9.00968 0 10.2878V36.9982C0 38.2764 1.03991 39.3162 2.31804 39.3162H17.2174C17.5572 39.3162 17.8326 39.0407 17.8326 38.701C17.8326 38.3612 17.5571 38.0857 17.2174 38.0857Z" fill="#F37021"/>
<path d="M39.6819 7.96973H38.0311C37.1088 4.91496 34.2689 2.68396 30.9174 2.68396C27.5658 2.68396 24.726 4.91496 23.8037 7.96973H11.0464C10.7065 7.96973 10.4312 8.24519 10.4312 8.58496C10.4312 8.92473 10.7065 9.20019 11.0464 9.20019H23.5441C23.5073 9.49953 23.4879 9.80427 23.4879 10.1134C23.4879 14.21 26.8208 17.5429 30.9173 17.5429C35.0139 17.5429 38.3467 14.21 38.3467 10.1134C38.3467 9.80419 38.3274 9.49953 38.2905 9.20019H39.6819C40.2815 9.20019 40.7693 9.68803 40.7693 10.2877V36.9981C40.7693 37.5978 40.2815 38.0856 39.6819 38.0856H19.6782C19.3384 38.0856 19.063 38.3611 19.063 38.7008C19.063 39.0406 19.3384 39.3161 19.6782 39.3161H39.6819C40.9601 39.3161 41.9999 38.2763 41.9999 36.9981V10.2878C41.9999 9.00964 40.9601 7.96973 39.6819 7.96973V7.96973ZM30.9173 16.3124C27.4991 16.3124 24.7184 13.5315 24.7184 10.1134C24.7184 6.69529 27.4991 3.91443 30.9173 3.91443C34.3355 3.91443 37.1162 6.69529 37.1162 10.1134C37.1163 13.5316 34.3355 16.3124 30.9173 16.3124Z" fill="#F37021"/>
<path d="M21.7435 18.428H5.57834C4.80011 18.428 4.16699 19.0611 4.16699 19.8393V21.2821C4.16699 22.0603 4.80011 22.6934 5.57834 22.6934H21.7435C22.5217 22.6934 23.1548 22.0603 23.1548 21.2821V19.8393C23.1548 19.0612 22.5217 18.428 21.7435 18.428V18.428ZM21.9244 21.2822C21.9244 21.3819 21.8432 21.4631 21.7435 21.4631H5.57834C5.47859 21.4631 5.39746 21.3819 5.39746 21.2822V19.8394C5.39746 19.7397 5.47859 19.6585 5.57834 19.6585H21.7435C21.8432 19.6585 21.9244 19.7397 21.9244 19.8394V21.2822Z" fill="#F37021"/>
<path d="M4.16699 33.9275C4.16699 34.7057 4.80011 35.3389 5.57834 35.3389H15.181C15.9592 35.3389 16.5923 34.7058 16.5923 33.9275V32.4847C16.5923 31.7065 15.9592 31.0734 15.181 31.0734H5.57834C4.80011 31.0734 4.16699 31.7065 4.16699 32.4847V33.9275ZM5.39746 32.4847C5.39746 32.385 5.47859 32.3038 5.57834 32.3038H15.181C15.2808 32.3038 15.3619 32.385 15.3619 32.4847V33.9275C15.3619 34.0272 15.2808 34.1084 15.181 34.1084H5.57834C5.47859 34.1084 5.39746 34.0273 5.39746 33.9275V32.4847Z" fill="#F37021"/>
<path d="M15.181 12.1718H5.57834C4.80011 12.1718 4.16699 12.8049 4.16699 13.5832V15.0259C4.16699 15.8041 4.80011 16.4373 5.57834 16.4373H15.181C15.9592 16.4373 16.5923 15.8042 16.5923 15.0259V13.5832C16.5923 12.8049 15.9592 12.1718 15.181 12.1718ZM15.3619 15.0259C15.3619 15.1256 15.2808 15.2068 15.181 15.2068H5.57834C5.47859 15.2068 5.39746 15.1257 5.39746 15.0259V13.5832C5.39746 13.4834 5.47859 13.4022 5.57834 13.4022H15.181C15.2808 13.4022 15.3619 13.4833 15.3619 13.5832V15.0259Z" fill="#F37021"/>
<path d="M20.2724 35.3389H35.6173C36.3955 35.3389 37.0286 34.7058 37.0286 33.9275V32.4847C37.0286 31.7065 36.3955 31.0734 35.6173 31.0734H20.2724C19.4942 31.0734 18.8611 31.7065 18.8611 32.4847V33.9275C18.8611 34.7058 19.4941 35.3389 20.2724 35.3389V35.3389ZM20.0916 32.4847C20.0916 32.385 20.1727 32.3038 20.2724 32.3038H35.6173C35.717 32.3038 35.7981 32.385 35.7981 32.4847V33.9275C35.7981 34.0272 35.717 34.1084 35.6173 34.1084H20.2724C20.1727 34.1084 20.0916 34.0273 20.0916 33.9275V32.4847Z" fill="#F37021"/>
<path d="M5.57834 29.1393H11.0794C11.8577 29.1393 12.4908 28.5062 12.4908 27.728V26.2852C12.4908 25.507 11.8577 24.8738 11.0794 24.8738H5.57834C4.80011 24.8738 4.16699 25.5069 4.16699 26.2852V27.728C4.16699 28.5061 4.80011 29.1393 5.57834 29.1393V29.1393ZM5.39746 26.2852C5.39746 26.1855 5.47859 26.1042 5.57834 26.1042H11.0794C11.1792 26.1042 11.2603 26.1854 11.2603 26.2852V27.728C11.2603 27.8277 11.1792 27.9089 11.0794 27.9089H5.57834C5.47859 27.9089 5.39746 27.8277 5.39746 27.728V26.2852Z" fill="#F37021"/>
<path d="M37.1002 27.728V26.2852C37.1002 25.507 36.467 24.8738 35.6888 24.8738H16.2424C15.4642 24.8738 14.8311 25.5069 14.8311 26.2852V27.728C14.8311 28.5062 15.4642 29.1393 16.2424 29.1393H35.6888C36.467 29.1393 37.1002 28.5061 37.1002 27.728ZM16.0615 27.728V26.2852C16.0615 26.1855 16.1427 26.1042 16.2424 26.1042H35.6888C35.7886 26.1042 35.8697 26.1854 35.8697 26.2852V27.728C35.8697 27.8277 35.7886 27.9089 35.6888 27.9089H16.2424C16.1427 27.9089 16.0615 27.8276 16.0615 27.728Z" fill="#F37021"/>
</g>
<defs>
<clipPath id="clip0">
<rect width="42" height="42" fill="white"/>
</clipPath>
</defs>
</svg>
