<svg width="16" height="14" viewBox="0 0 16 14" fill="none" xmlns="http://www.w3.org/2000/svg">
<path d="M16 2.05024C15.4019 2.30024 14.8037 2.50024 14.1059 2.55024C14.8037 2.15024 15.3022 1.50024 15.5514 0.750244C14.9034 1.15024 14.2056 1.40024 13.4579 1.55024C12.8598 0.900244 12.0125 0.500244 11.0654 0.500244C9.27102 0.500244 7.7757 1.95024 7.7757 3.80024C7.7757 4.05024 7.82555 4.30024 7.87539 4.55024C5.13396 4.40024 2.74143 3.10024 1.14642 1.10024C0.847353 1.60024 0.697824 2.15024 0.697824 2.75024C0.697824 3.90024 1.29595 4.90024 2.1433 5.50024C1.59502 5.50024 1.09657 5.35024 0.647976 5.10024V5.15024C0.647976 6.75024 1.7944 8.05024 3.28972 8.35024C2.99066 8.40024 2.74144 8.45024 2.44237 8.45024C2.24299 8.45024 2.04361 8.45024 1.84423 8.40024C2.24299 9.70026 3.4891 10.6503 4.88474 10.7003C3.78816 11.6003 2.34268 12.1003 0.797511 12.1003C0.54829 12.1003 0.249221 12.1003 0 12.0503C1.44548 13.0003 3.19003 13.5003 5.03427 13.5003C11.0654 13.5003 14.3551 8.50024 14.3551 4.15024C14.3551 4.00024 14.3551 3.85024 14.3551 3.75024C15.0031 3.25024 15.5514 2.70024 16 2.05024Z" fill="white"/>
</svg>
