<!-- Generated by IcoMoon.io -->
<svg version="1.1" xmlns="http://www.w3.org/2000/svg" width="32" height="32" viewBox="0 0 32 32">
<title>trending-up-1</title>
<path d="M31.798 6.869c0.625 0.625 0.625 1.638 0 2.263l-12.667 12.667c-0.3 0.3-0.707 0.469-1.131 0.469s-0.831-0.169-1.131-0.469l-5.535-5.535-8.869 8.869c-0.625 0.625-1.638 0.625-2.263 0s-0.625-1.638 0-2.263l10-10c0.3-0.3 0.707-0.469 1.131-0.469s0.831 0.169 1.131 0.469l5.535 5.535 11.535-11.535c0.625-0.625 1.638-0.625 2.263 0z"></path>
<path d="M21.067 8c0-0.884 0.716-1.6 1.6-1.6h8c0.884 0 1.6 0.716 1.6 1.6v8c0 0.884-0.716 1.6-1.6 1.6s-1.6-0.716-1.6-1.6v-6.4h-6.4c-0.884 0-1.6-0.716-1.6-1.6z"></path>
</svg>
