<?xml version="1.0" encoding="iso-8859-1"?>
<!-- Generator: Adobe Illustrator 19.0.0, SVG Export Plug-In . SVG Version: 6.00 Build 0)  -->
<svg version="1.1" id="Capa_1" xmlns="http://www.w3.org/2000/svg" xmlns:xlink="http://www.w3.org/1999/xlink" x="0px" y="0px"
	 viewBox="0 0 512 512" style="enable-background:new 0 0 512 512;" xml:space="preserve">
<g>
	<g>
		<path d="M256,0C115.041,0,0,115.049,0,256c0,140.958,115.049,256,256,256c140.958,0,256-115.049,256-256
			C512,115.041,396.951,0,256,0z M179.638,43.289c-14.631,18.602-25.864,40.779-34.271,62.906
			c-15.649-4.188-30.303-9.279-43.634-15.191C123.98,70.19,150.42,53.81,179.638,43.289z M80.262,114.075
			c16.706,8.178,35.478,15.1,55.72,20.612c-9.21,32.565-14.609,68.722-15.746,106.313H30.51
			C33.664,193.111,51.797,149.254,80.262,114.075z M30.51,271h89.726c1.137,37.591,6.536,73.748,15.746,106.313
			c-20.242,5.512-39.015,12.434-55.72,20.612C51.797,362.746,33.664,318.889,30.51,271z M101.733,420.995
			c13.331-5.912,27.985-11.002,43.634-15.191c8.405,22.123,19.638,44.301,34.271,62.906
			C150.42,458.189,123.981,441.809,101.733,420.995z M241,479.454c-31.316-10.526-53.597-49.048-66.032-80.275
			c21.003-3.85,43.235-6.21,66.032-6.932V479.454z M241,362.234c-26.142,0.787-51.697,3.614-75.785,8.295
			c-8.704-30.253-13.835-64.123-14.967-99.529H241V362.234z M241,241h-90.752c1.133-35.406,6.264-69.276,14.967-99.529
			c24.088,4.681,49.643,7.508,75.785,8.295V241z M241,119.753c-22.797-0.722-45.029-3.082-66.032-6.932
			c12.406-31.153,34.71-69.746,66.032-80.275V119.753z M481.49,241h-89.726c-1.137-37.591-6.536-73.748-15.746-106.313
			c20.242-5.512,39.015-12.434,55.72-20.612C460.204,149.254,478.337,193.111,481.49,241z M410.267,91.004
			c-13.331,5.912-27.985,11.003-43.634,15.191c-8.405-22.121-19.637-44.301-34.271-62.906
			C361.58,53.81,388.019,70.19,410.267,91.004z M271,32.546c31.316,10.527,53.597,49.048,66.032,80.275
			c-21.003,3.85-43.235,6.21-66.032,6.932V32.546z M271,149.766c26.142-0.787,51.697-3.614,75.785-8.295
			c8.704,30.253,13.835,64.123,14.967,99.529H271V149.766z M271,270.9h90.752c-1.133,35.406-6.264,69.376-14.967,99.629
			c-24.088-4.681-49.643-7.508-75.785-8.295V270.9z M271,479.454v-87.207c22.797,0.722,45.029,3.082,66.032,6.932
			C324.626,430.332,302.322,468.925,271,479.454z M332.362,468.711c14.631-18.603,25.864-40.779,34.271-62.906
			c15.649,4.188,30.303,9.279,43.634,15.191C388.02,441.81,361.58,458.19,332.362,468.711z M431.738,397.925
			c-16.706-8.178-35.478-15.1-55.72-20.612c9.21-32.565,14.609-68.822,15.746-106.413h89.726
			C478.336,318.789,460.203,362.746,431.738,397.925z"/>
	</g>
</g>
<g>
</g>
<g>
</g>
<g>
</g>
<g>
</g>
<g>
</g>
<g>
</g>
<g>
</g>
<g>
</g>
<g>
</g>
<g>
</g>
<g>
</g>
<g>
</g>
<g>
</g>
<g>
</g>
<g>
</g>
</svg>
