<svg width="16" height="16" viewBox="0 0 16 16" fill="none" xmlns="http://www.w3.org/2000/svg">
<path d="M16.0001 6.66667H14.6667C14.6651 5.25267 14.1027 3.89703 13.1029 2.89718C12.103 1.89733 10.7474 1.33492 9.33339 1.33333V0C11.1009 0.00194106 12.7955 0.704943 14.0453 1.95477C15.2951 3.20459 15.9981 4.89915 16.0001 6.66667Z" fill="#222222"/>
<path d="M13.3334 6.66667H12.0001C12.0001 5.95943 11.7191 5.28115 11.219 4.78105C10.7189 4.28096 10.0406 4.00001 9.33339 4.00001V2.66667C10.3939 2.66773 11.4107 3.0895 12.1607 3.83942C12.9106 4.58933 13.3323 5.60613 13.3334 6.66667Z" fill="#222222"/>
<path d="M10.348 9.64733L8.79201 11.1807L4.81934 7.208L6.35268 5.652C6.4454 5.55767 6.50798 5.43789 6.53243 5.3079C6.55689 5.17791 6.54212 5.04357 6.49001 4.922L4.89334 1.19533C4.83023 1.04838 4.71638 0.929011 4.57258 0.859007C4.42878 0.789004 4.26461 0.77303 4.11001 0.813999L1.17667 1.58867C1.03012 1.62659 0.900831 1.71326 0.81008 1.83442C0.719328 1.95558 0.672515 2.10403 0.677341 2.25533C0.8639 5.66459 2.28143 8.89029 4.66668 11.3333C7.1105 13.7189 10.3372 15.1363 13.7473 15.322C13.8986 15.3268 14.0471 15.28 14.1683 15.1893C14.2894 15.0985 14.3761 14.9692 14.414 14.8227L15.1887 11.8893C15.2296 11.7347 15.2137 11.5706 15.1437 11.4268C15.0737 11.283 14.9543 11.1691 14.8073 11.106L11.0807 9.50933C10.9587 9.45672 10.8238 9.44175 10.6932 9.46634C10.5627 9.49093 10.4425 9.55395 10.348 9.64733Z" fill="#222222"/>
</svg>
