<svg width="16" height="16" viewBox="0 0 16 16" fill="none" xmlns="http://www.w3.org/2000/svg">
<g clip-path="url(#clip0)">
<path d="M8 8C10.2091 8 12 6.20914 12 4C12 1.79086 10.2091 0 8 0C5.79086 0 4 1.79086 4 4C4 6.20914 5.79086 8 8 8Z" fill="#BDBDBD"/>
<path d="M16 13.2001C16.0017 12.8173 15.8928 12.4422 15.6865 12.1197C15.4802 11.7972 15.1853 11.5411 14.837 11.3821C12.6811 10.444 10.351 9.97302 8.00002 10.0001C5.64902 9.97302 3.31892 10.444 1.16302 11.3821C0.814771 11.5411 0.519799 11.7972 0.313505 12.1197C0.107211 12.4422 -0.00163935 12.8173 1.86626e-05 13.2001V16.0001H16V13.2001Z" fill="#BDBDBD"/>
</g>
<defs>
<clipPath id="clip0">
<rect width="16" height="16" fill="white"/>
</clipPath>
</defs>
</svg>
