<svg width="1825" height="840" viewBox="0 0 1825 840" fill="none" xmlns="http://www.w3.org/2000/svg">
<path d="M1255.08 391.624C1238.96 334.78 1242.39 278.992 1264.62 224.259C1265.82 221.244 1267.01 218.228 1268.2 215.212C1266.71 211.292 1265.22 207.372 1263.88 203.301C1247.77 156.107 1220.76 117.508 1177.2 92.4782C1125.44 62.7748 1070.54 60.8146 1014.44 76.7972C983.116 85.6932 951.937 90.3673 919.714 84.7885C902.707 81.7729 885.701 80.1144 868.694 80.7175C848.107 81.4714 828.266 85.0901 811.259 98.0571C789.627 114.492 780.08 137.712 774.709 163.194C772.322 174.351 771.129 185.81 769.339 198.024C768.145 195.913 767.399 194.556 766.653 193.199C734.43 137.863 688.333 99.1125 628.66 77.5511C580.773 60.2115 531.095 58.2514 480.97 65.0365C412.048 74.3848 356.701 107.556 315.08 163.646C280.022 210.84 264.209 265.12 261.374 323.472C257.943 395.242 278.53 459.173 327.462 511.644C392.803 581.756 474.704 609.198 568.391 597.437C654.469 586.581 719.363 540.744 765.311 466.712C766.355 464.902 766.803 462.339 769.637 461.585C770.383 467.616 770.831 473.497 771.875 479.377C777.544 514.056 790.821 544.664 817.823 567.884C872.722 614.927 954.623 598.492 979.536 525.214C985.354 508.176 987.144 490.535 987.443 472.743C987.89 432.033 986.249 391.322 988.338 350.763C989.382 332.066 992.962 313.822 1005.34 298.895C1017.88 283.666 1038.61 284.721 1049.65 301.156C1057.71 313.219 1060.24 326.94 1061.29 341.113C1064.27 380.315 1062.03 419.518 1062.63 458.57C1062.93 472.592 1062.18 486.765 1064.27 500.637C1069.19 532.301 1082.77 558.687 1109.92 576.479C1170.04 615.832 1250.75 584.922 1272.98 514.358C1279.39 494.154 1279.39 473.346 1279.39 452.539C1269.69 432.937 1261.19 412.733 1255.08 391.624ZM526.918 404.44C486.788 404.44 454.266 369.308 454.266 326.035C454.266 282.761 486.788 247.63 526.918 247.63C567.048 247.63 599.57 282.761 599.57 326.035C599.57 369.308 567.048 404.44 526.918 404.44Z" fill="url(#paint0_linear)"/>
<path d="M7.25866 453.039C8.15571 436.701 5.46457 415.825 9.8003 395.1C19.2193 350.776 53.7557 323.849 95.6179 317.193C124.323 312.655 151.683 316.739 176.651 332.321C205.506 350.322 221.504 376.947 224.045 410.984C226.437 442.904 226.138 474.823 224.045 506.894C221.205 549.705 187.864 587.222 143.61 596.752C107.28 604.619 73.3412 598.87 43.4396 575.573C19.6678 556.966 9.05276 531.249 7.55768 501.448C6.51112 486.774 7.25866 472.251 7.25866 453.039Z" fill="url(#paint1_linear)"/>
<path d="M116.364 284.872C174.167 284.872 221.025 237.481 221.025 179.021C221.025 120.561 174.167 73.1702 116.364 73.1702C58.5618 73.1702 11.7036 120.561 11.7036 179.021C11.7036 237.481 58.5618 284.872 116.364 284.872Z" fill="url(#paint2_linear)"/>
<path d="M1760.83 343.247C1760.83 343.398 1760.83 343.548 1760.83 343.548C1759.94 349.123 1758.76 354.849 1757.13 360.273C1738.61 424.31 1697.12 467.403 1637.26 492.716C1572.96 519.837 1505.55 504.619 1457.69 453.239C1423.76 416.927 1421.09 367.204 1451.02 328.632C1470.28 303.771 1502.29 295.785 1526.14 309.948C1542.74 319.893 1547.92 336.165 1538.59 351.986C1533.4 360.725 1532.22 368.711 1538.59 376.847C1545.55 385.888 1556.52 389.504 1567.04 386.039C1591.78 378.053 1606.89 348.671 1600.22 321.851C1589.41 278.608 1550.59 252.24 1506.73 260.376C1461.1 268.814 1425.69 292.47 1411.46 339.782C1394.87 395.23 1411.02 454.143 1464.8 491.209C1495.18 512.153 1528.07 524.809 1564.81 525.261C1591.93 525.563 1618.45 521.042 1643.04 509.139C1650.3 505.674 1658.75 501.154 1665.12 496.031C1673.12 489.853 1675.79 487.744 1685.12 481.265C1691.2 476.895 1699.05 476.594 1705.57 482.018C1712.53 487.744 1713.12 495.88 1711.35 504.016C1709.27 513.207 1705.86 519.837 1697.86 527.823C1662.6 562.93 1620.08 584.778 1571.33 593.366C1493.55 607.077 1421.98 587.49 1355.46 547.41C1321.38 526.919 1296.93 495.428 1276.04 461.526C1274.27 458.814 1272.64 456.102 1270.86 453.239C1261.38 433.501 1252.93 413.311 1247 392.066C1231 335.261 1234.41 279.512 1256.49 224.817C1257.67 221.804 1258.86 218.79 1260.04 215.777C1302.42 128.687 1372.94 78.0609 1464.65 58.0212C1527.03 44.4605 1586.3 54.1037 1641.12 83.9371C1641.71 84.2385 1642.3 84.5398 1642.75 84.8412C1783.21 175.848 1764.98 312.66 1760.83 343.247Z" fill="url(#paint3_linear)"/>
<g opacity="0.2" filter="url(#filter0_f)">
<path d="M1708.29 152.07C1740.73 184.301 1750.13 227.226 1729.27 247.946C1708.41 268.666 1665.2 259.334 1632.76 227.103C1600.31 194.872 1590.92 151.947 1611.77 131.227C1632.63 110.508 1675.84 119.839 1708.29 152.07Z" fill="white"/>
<path d="M739.687 216.755C722.86 245.708 665.903 244.335 612.471 213.69C559.038 183.045 529.363 134.731 546.19 105.779C563.017 76.8264 619.974 78.1989 673.406 108.844C726.839 139.49 756.514 187.803 739.687 216.755Z" fill="white"/>
<path d="M205.847 173.476C195.555 191.185 160.718 190.345 128.036 171.601C95.3537 152.857 77.2032 123.306 87.4954 105.598C97.7875 87.8891 132.625 88.7286 165.307 107.473C197.989 126.217 216.139 155.768 205.847 173.476Z" fill="white"/>
<path d="M205.847 415.607C195.555 433.316 160.718 432.476 128.036 413.732C95.3537 394.988 77.2032 365.437 87.4954 347.729C97.7875 330.02 132.625 330.86 165.307 349.604C197.989 368.348 216.139 397.898 205.847 415.607Z" fill="white"/>
<path d="M1249.34 233.735C1231.49 264.454 1168.32 261.428 1108.25 226.977C1048.19 192.526 1013.96 139.695 1031.82 108.977C1049.67 78.2582 1112.84 81.284 1172.91 115.735C1232.98 150.186 1267.2 203.016 1249.34 233.735Z" fill="white"/>
</g>
<path d="M56.8996 774.782C41.037 770.168 29.4773 764.513 22.2203 757.819C15.0276 751.06 11.4312 742.742 11.4312 732.863C11.4312 721.685 15.8304 712.456 24.6286 705.177C33.4911 697.833 44.9866 694.161 59.1152 694.161C68.7483 694.161 77.3218 696.046 84.8356 699.815C92.4137 703.585 98.2578 708.784 102.368 715.413C106.542 722.042 108.629 729.289 108.629 737.152H90.0375C90.0375 728.574 87.3402 721.847 81.9457 716.973C76.5511 712.034 68.941 709.564 59.1152 709.564C49.9958 709.564 42.8673 711.611 37.7297 715.706C32.6562 719.735 30.1195 725.357 30.1195 732.571C30.1195 738.355 32.5278 743.261 37.3443 747.291C42.2251 751.255 50.4775 754.895 62.1014 758.209C73.7896 761.524 82.909 765.196 89.4595 769.225C96.0742 773.19 100.955 777.836 104.102 783.166C107.313 788.495 108.918 794.767 108.918 801.98C108.918 813.484 104.487 822.712 95.6247 829.666C86.7622 836.555 74.9135 840 60.0785 840C50.4454 840 41.4545 838.148 33.1058 834.443C24.7571 830.674 18.3029 825.54 13.7432 819.04C9.24773 812.541 7 805.165 7 796.911H25.5919C25.5919 805.49 28.7066 812.281 34.936 817.286C41.2297 822.225 49.6105 824.695 60.0785 824.695C69.8401 824.695 77.3218 822.68 82.5237 818.651C87.7255 814.621 90.3265 809.129 90.3265 802.175C90.3265 795.221 87.9182 789.86 83.1016 786.09C78.2851 782.256 69.5511 778.486 56.8996 774.782Z" fill="url(#paint4_angular)"/>
<path d="M259.002 838.05H240.411V772.442H169.703V838.05H151.208V696.111H169.703V757.137H240.411V696.111H259.002V838.05Z" fill="url(#paint5_angular)"/>
<path d="M389.531 801.006H330.769L317.572 838.05H298.498L352.058 696.111H368.242L421.898 838.05H402.921L389.531 801.006ZM336.356 785.603H384.04L360.15 719.215L336.356 785.603Z" fill="url(#paint6_angular)"/>
<path d="M510.716 780.631H477.771V838.05H459.179V696.111H505.61C521.409 696.111 533.546 699.75 542.023 707.029C550.565 714.308 554.836 724.902 554.836 738.81C554.836 747.648 552.459 755.35 547.707 761.914C543.019 768.478 536.468 773.385 528.055 776.634L561.001 836.88V838.05H541.156L510.716 780.631ZM477.771 765.326H506.188C515.372 765.326 522.661 762.921 528.055 758.112C533.514 753.303 536.244 746.868 536.244 738.81C536.244 730.036 533.643 723.309 528.441 718.63C523.303 713.951 515.854 711.579 506.092 711.514H477.771V765.326Z" fill="url(#paint7_angular)"/>
<path d="M678.621 772.442H617.836V822.745H688.447V838.05H599.341V696.111H687.484V711.514H617.836V757.137H678.621V772.442Z" fill="url(#paint8_angular)"/>
<path d="M890.453 711.514H845.37V838.05H826.971V711.514H781.984V696.111H890.453V711.514Z" fill="url(#paint9_angular)"/>
<path d="M1034.95 771.662C1034.95 785.57 1032.64 797.724 1028.01 808.122C1023.39 818.456 1016.84 826.352 1008.36 831.811C999.886 837.27 989.996 840 978.693 840C967.647 840 957.853 837.27 949.312 831.811C940.77 826.287 934.124 818.456 929.371 808.317C924.683 798.114 922.275 786.318 922.146 772.93V762.694C922.146 749.046 924.49 736.99 929.179 726.526C933.867 716.063 940.481 708.069 949.023 702.545C957.628 696.956 967.454 694.161 978.5 694.161C989.739 694.161 999.629 696.923 1008.17 702.447C1016.78 707.907 1023.39 715.868 1028.01 726.331C1032.64 736.73 1034.95 748.851 1034.95 762.694V771.662ZM1016.55 762.499C1016.55 745.666 1013.21 732.766 1006.53 723.797C999.854 714.763 990.509 710.246 978.5 710.246C966.812 710.246 957.596 714.763 950.853 723.797C944.174 732.766 940.738 745.244 940.546 761.231V771.662C940.546 787.975 943.917 800.811 950.66 810.169C957.468 819.463 966.812 824.11 978.693 824.11C990.638 824.11 999.886 819.723 1006.44 810.949C1012.99 802.11 1016.36 789.47 1016.55 773.027V762.499Z" fill="url(#paint10_angular)"/>
<path d="M1189.95 774.782C1174.08 770.168 1162.52 764.513 1155.27 757.819C1148.08 751.06 1144.48 742.742 1144.48 732.863C1144.48 721.685 1148.88 712.456 1157.68 705.177C1166.54 697.833 1178.03 694.161 1192.16 694.161C1201.8 694.161 1210.37 696.046 1217.88 699.815C1225.46 703.585 1231.31 708.784 1235.42 715.413C1239.59 722.042 1241.68 729.289 1241.68 737.152H1223.09C1223.09 728.574 1220.39 721.847 1214.99 716.973C1209.6 712.034 1201.99 709.564 1192.16 709.564C1183.04 709.564 1175.91 711.611 1170.78 715.706C1165.7 719.735 1163.17 725.357 1163.17 732.571C1163.17 738.355 1165.58 743.261 1170.39 747.291C1175.27 751.255 1183.53 754.895 1195.15 758.209C1206.84 761.524 1215.96 765.196 1222.51 769.225C1229.12 773.19 1234 777.836 1237.15 783.166C1240.36 788.495 1241.97 794.767 1241.97 801.98C1241.97 813.484 1237.53 822.712 1228.67 829.666C1219.81 836.555 1207.96 840 1193.13 840C1183.49 840 1174.5 838.148 1166.15 834.443C1157.8 830.674 1151.35 825.54 1146.79 819.04C1142.3 812.541 1140.05 805.165 1140.05 796.911H1158.64C1158.64 805.49 1161.75 812.281 1167.98 817.286C1174.28 822.225 1182.66 824.695 1193.13 824.695C1202.89 824.695 1210.37 822.68 1215.57 818.651C1220.77 814.621 1223.37 809.129 1223.37 802.175C1223.37 795.221 1220.97 789.86 1216.15 786.09C1211.33 782.256 1202.6 778.486 1189.95 774.782Z" fill="url(#paint11_angular)"/>
<path d="M1392.05 838.05H1373.46V772.442H1302.75V838.05H1284.26V696.111H1302.75V757.137H1373.46V696.111H1392.05V838.05Z" fill="url(#paint12_angular)"/>
<path d="M1463.24 838.05H1444.74V696.111H1463.24V838.05Z" fill="url(#paint13_angular)"/>
<path d="M1623.44 838.05H1604.85L1534.23 728.671V838.05H1515.64V696.111H1534.23L1605.04 805.977V696.111H1623.44V838.05Z" fill="url(#paint14_angular)"/>
<path d="M1754.06 772.442H1693.28V822.745H1763.89V838.05H1674.78V696.111H1762.93V711.514H1693.28V757.137H1754.06V772.442Z" fill="url(#paint15_angular)"/>
<defs>
<filter id="filter0_f" x="0.61377" y="0.931396" width="1823.76" height="511.427" filterUnits="userSpaceOnUse" color-interpolation-filters="sRGB">
<feFlood flood-opacity="0" result="BackgroundImageFix"/>
<feBlend mode="normal" in="SourceGraphic" in2="BackgroundImageFix" result="shape"/>
<feGaussianBlur stdDeviation="42" result="effect1_foregroundBlur"/>
</filter>
<linearGradient id="paint0_linear" x1="1145.4" y1="102.055" x2="1199.5" y2="447.578" gradientUnits="userSpaceOnUse">
<stop offset="0.0016226" stop-color="#BA68DA"/>
<stop offset="1" stop-color="#653EA3"/>
</linearGradient>
<linearGradient id="paint1_linear" x1="55.7404" y1="600.082" x2="196.438" y2="333.94" gradientUnits="userSpaceOnUse">
<stop stop-color="#F2709C"/>
<stop offset="1" stop-color="#FF9472"/>
</linearGradient>
<linearGradient id="paint2_linear" x1="58.3477" y1="284.88" x2="147.386" y2="68.1827" gradientUnits="userSpaceOnUse">
<stop stop-color="#F2709C"/>
<stop offset="1" stop-color="#FF9472"/>
</linearGradient>
<linearGradient id="paint3_linear" x1="1363.74" y1="486.197" x2="1705.72" y2="234.455" gradientUnits="userSpaceOnUse">
<stop stop-color="#218BA6"/>
<stop offset="1" stop-color="#6DD5ED"/>
</linearGradient>
<radialGradient id="paint4_angular" cx="0" cy="0" r="1" gradientUnits="userSpaceOnUse" gradientTransform="translate(23.1677 844.994) rotate(169.07) scale(278.36 212.199)">
<stop stop-color="#0F0C29"/>
<stop offset="0.5625" stop-color="#231B72"/>
<stop offset="1" stop-color="#0F0C29"/>
</radialGradient>
<radialGradient id="paint5_angular" cx="0" cy="0" r="1" gradientUnits="userSpaceOnUse" gradientTransform="translate(23.1677 844.994) rotate(169.07) scale(278.36 212.199)">
<stop stop-color="#0F0C29"/>
<stop offset="0.5625" stop-color="#231B72"/>
<stop offset="1" stop-color="#0F0C29"/>
</radialGradient>
<radialGradient id="paint6_angular" cx="0" cy="0" r="1" gradientUnits="userSpaceOnUse" gradientTransform="translate(23.1677 844.994) rotate(169.07) scale(278.36 212.199)">
<stop stop-color="#0F0C29"/>
<stop offset="0.5625" stop-color="#231B72"/>
<stop offset="1" stop-color="#0F0C29"/>
</radialGradient>
<radialGradient id="paint7_angular" cx="0" cy="0" r="1" gradientUnits="userSpaceOnUse" gradientTransform="translate(23.1677 844.994) rotate(169.07) scale(278.36 212.199)">
<stop stop-color="#0F0C29"/>
<stop offset="0.5625" stop-color="#231B72"/>
<stop offset="1" stop-color="#0F0C29"/>
</radialGradient>
<radialGradient id="paint8_angular" cx="0" cy="0" r="1" gradientUnits="userSpaceOnUse" gradientTransform="translate(23.1677 844.994) rotate(169.07) scale(278.36 212.199)">
<stop stop-color="#0F0C29"/>
<stop offset="0.5625" stop-color="#231B72"/>
<stop offset="1" stop-color="#0F0C29"/>
</radialGradient>
<radialGradient id="paint9_angular" cx="0" cy="0" r="1" gradientUnits="userSpaceOnUse" gradientTransform="translate(23.1677 844.994) rotate(169.07) scale(278.36 212.199)">
<stop stop-color="#0F0C29"/>
<stop offset="0.5625" stop-color="#231B72"/>
<stop offset="1" stop-color="#0F0C29"/>
</radialGradient>
<radialGradient id="paint10_angular" cx="0" cy="0" r="1" gradientUnits="userSpaceOnUse" gradientTransform="translate(23.1677 844.994) rotate(169.07) scale(278.36 212.199)">
<stop stop-color="#0F0C29"/>
<stop offset="0.5625" stop-color="#231B72"/>
<stop offset="1" stop-color="#0F0C29"/>
</radialGradient>
<radialGradient id="paint11_angular" cx="0" cy="0" r="1" gradientUnits="userSpaceOnUse" gradientTransform="translate(23.1677 844.994) rotate(169.07) scale(278.36 212.199)">
<stop stop-color="#0F0C29"/>
<stop offset="0.5625" stop-color="#231B72"/>
<stop offset="1" stop-color="#0F0C29"/>
</radialGradient>
<radialGradient id="paint12_angular" cx="0" cy="0" r="1" gradientUnits="userSpaceOnUse" gradientTransform="translate(23.1677 844.994) rotate(169.07) scale(278.36 212.199)">
<stop stop-color="#0F0C29"/>
<stop offset="0.5625" stop-color="#231B72"/>
<stop offset="1" stop-color="#0F0C29"/>
</radialGradient>
<radialGradient id="paint13_angular" cx="0" cy="0" r="1" gradientUnits="userSpaceOnUse" gradientTransform="translate(23.1677 844.994) rotate(169.07) scale(278.36 212.199)">
<stop stop-color="#0F0C29"/>
<stop offset="0.5625" stop-color="#231B72"/>
<stop offset="1" stop-color="#0F0C29"/>
</radialGradient>
<radialGradient id="paint14_angular" cx="0" cy="0" r="1" gradientUnits="userSpaceOnUse" gradientTransform="translate(23.1677 844.994) rotate(169.07) scale(278.36 212.199)">
<stop stop-color="#0F0C29"/>
<stop offset="0.5625" stop-color="#231B72"/>
<stop offset="1" stop-color="#0F0C29"/>
</radialGradient>
<radialGradient id="paint15_angular" cx="0" cy="0" r="1" gradientUnits="userSpaceOnUse" gradientTransform="translate(23.1677 844.994) rotate(169.07) scale(278.36 212.199)">
<stop stop-color="#0F0C29"/>
<stop offset="0.5625" stop-color="#231B72"/>
<stop offset="1" stop-color="#0F0C29"/>
</radialGradient>
</defs>
</svg>
