<svg width="87" height="27" viewBox="0 0 87 27" fill="none" xmlns="http://www.w3.org/2000/svg">
<g clip-path="url(#clip0)">
<path d="M61.3954 16.7259C60.6028 13.9333 60.7716 11.1926 61.8651 8.5037C61.9238 8.35555 61.9825 8.2074 62.0412 8.05925C61.9678 7.86666 61.8944 7.67407 61.8284 7.47407C61.0358 5.15555 59.7075 3.25925 57.5646 2.02962C55.0181 0.570365 52.3174 0.474069 49.5581 1.25925C48.017 1.69629 46.4832 1.92592 44.898 1.65185C44.0614 1.5037 43.2248 1.42222 42.3882 1.45185C41.3755 1.48888 40.3994 1.66666 39.5628 2.3037C38.4987 3.11111 38.029 4.25185 37.7648 5.5037C37.6474 6.05185 37.5887 6.61481 37.5006 7.21481C37.4419 7.11111 37.4052 7.04444 37.3686 6.97777C35.7834 4.25925 33.5157 2.35555 30.5803 1.29629C28.2246 0.44444 25.7808 0.348143 23.315 0.681477C19.9245 1.14074 17.2019 2.77037 15.1544 5.52592C13.4298 7.84444 12.6519 10.5111 12.5125 13.3778C12.3437 16.9037 13.3564 20.0444 15.7635 22.6222C18.9778 26.0667 23.0068 27.4148 27.6154 26.837C31.8499 26.3037 35.0422 24.0518 37.3025 20.4148C37.3539 20.3259 37.3759 20.2 37.5153 20.163C37.552 20.4593 37.574 20.7481 37.6254 21.037C37.9043 22.7407 38.5574 24.2444 39.8857 25.3852C42.5863 27.6963 46.6153 26.8889 47.8408 23.2889C48.1271 22.4518 48.2151 21.5852 48.2298 20.7111C48.2518 18.7111 48.1711 16.7111 48.2738 14.7185C48.3252 13.8 48.5013 12.9037 49.1104 12.1704C49.7269 11.4222 50.747 11.4741 51.29 12.2815C51.6863 12.8741 51.8111 13.5481 51.8624 14.2444C52.0092 16.1704 51.8991 18.0963 51.9285 20.0148C51.9432 20.7037 51.9065 21.4 52.0092 22.0815C52.2514 23.637 52.9192 24.9333 54.2548 25.8074C57.2123 27.7407 61.1826 26.2222 62.276 22.7555C62.5916 21.763 62.5916 20.7407 62.5916 19.7185C62.1146 18.7556 61.6963 17.763 61.3954 16.7259ZM25.5753 17.3556C23.6012 17.3556 22.0014 15.6296 22.0014 13.5037C22.0014 11.3778 23.6012 9.65185 25.5753 9.65185C27.5494 9.65185 29.1492 11.3778 29.1492 13.5037C29.1492 15.6296 27.5494 17.3556 25.5753 17.3556Z" fill="url(#paint0_linear)"/>
<path d="M0.0148329 19.8C0.058865 19 -0.0732312 17.9777 0.13959 16.9629C0.601927 14.7926 2.29716 13.474 4.35199 13.1481C5.76102 12.9259 7.10399 13.1259 8.32955 13.8889C9.74592 14.7703 10.5312 16.074 10.6559 17.7407C10.7733 19.3037 10.7587 20.8666 10.6559 22.437C10.5165 24.5333 8.87995 26.3703 6.70771 26.837C4.92441 27.2222 3.25853 26.9407 1.79079 25.8C0.623943 24.8889 0.102897 23.6296 0.0295103 22.1703C-0.0218605 21.4518 0.0148329 20.7407 0.0148329 19.8Z" fill="url(#paint1_linear)"/>
<path d="M5.36456 11.4829C8.22196 11.4829 10.5383 9.1448 10.5383 6.26064C10.5383 3.37649 8.22196 1.03842 5.36456 1.03842C2.50717 1.03842 0.190796 3.37649 0.190796 6.26064C0.190796 9.1448 2.50717 11.4829 5.36456 11.4829Z" fill="url(#paint2_linear)"/>
<path d="M86.4697 14.3182C86.4697 14.3256 86.4697 14.3331 86.4697 14.3331C86.4256 14.6071 86.3669 14.8886 86.2862 15.1553C85.3689 18.3034 83.3141 20.4219 80.3492 21.6664C77.1642 22.9997 73.8252 22.2516 71.4548 19.7256C69.7742 17.9405 69.6421 15.496 71.1245 13.5997C72.0786 12.3775 73.6637 11.9849 74.8452 12.6812C75.6672 13.1701 75.924 13.9701 75.4617 14.7479C75.2048 15.1775 75.1461 15.5701 75.4617 15.9701C75.8066 16.4145 76.3497 16.5923 76.8707 16.4219C78.0963 16.0293 78.8448 14.5849 78.5146 13.2664C77.9788 11.1405 76.0561 9.84416 73.8839 10.2442C71.6236 10.659 69.8696 11.8219 69.1651 14.1479C68.3432 16.8738 69.1431 19.7701 71.807 21.5923C73.3114 22.6219 74.9406 23.2442 76.7606 23.2664C78.1036 23.2812 79.4172 23.059 80.6354 22.4738C80.995 22.3034 81.4133 22.0812 81.7289 21.8293C82.1252 21.5256 82.2573 21.4219 82.7196 21.1034C83.0205 20.8886 83.4095 20.8738 83.7324 21.1405C84.0773 21.4219 84.1066 21.8219 84.0186 22.2219C83.9158 22.6738 83.747 22.9997 83.3507 23.3923C81.6041 25.1182 79.4979 26.1923 77.0835 26.6145C73.2307 27.2886 69.6862 26.3256 66.3911 24.3553C64.7032 23.3479 63.4923 21.7997 62.4576 20.1331C62.3695 19.9997 62.2888 19.8664 62.2007 19.7256C61.731 18.7553 61.3127 17.7627 61.0192 16.7182C60.2266 13.9256 60.3954 11.1849 61.4889 8.49601C61.5476 8.34787 61.6063 8.19972 61.665 8.05157C63.7639 3.77009 67.2571 1.2812 71.7997 0.296014C74.8893 -0.370653 77.8247 0.103421 80.54 1.57009C80.5694 1.5849 80.5987 1.59972 80.6208 1.61453C87.5778 6.08861 86.6752 12.8145 86.4697 14.3182Z" fill="url(#paint3_linear)"/>
<path d="M82.4647 11.2444C82.4354 11.2295 82.406 11.2147 82.384 11.1999L82.3766 11.1925C82.406 11.2073 82.4354 11.2221 82.4647 11.2444Z" fill="#09BDC8"/>
<g opacity="0.2" filter="url(#filter0_f)">
<path d="M83.7125 4.89229C85.3099 6.48965 85.7724 8.61701 84.7455 9.64388C83.7187 10.6707 81.5913 10.2083 79.9939 8.61089C78.3966 7.01353 77.9341 4.88617 78.961 3.8593C79.9878 2.83244 82.1152 3.29492 83.7125 4.89229Z" fill="white"/>
<path d="M36.0263 8.09808C35.1978 9.53295 32.3937 9.46494 29.7631 7.94615C27.1325 6.42737 25.6715 4.03295 26.5 2.59808C27.3284 1.1632 30.1325 1.23122 32.7631 2.75C35.3937 4.26878 36.8547 6.6632 36.0263 8.09808Z" fill="white"/>
<path d="M9.74415 5.95315C9.23744 6.83079 7.52233 6.78919 5.91333 5.86023C4.30433 4.93127 3.41074 3.46674 3.91744 2.5891C4.42414 1.71147 6.13926 1.75307 7.74826 2.68203C9.35726 3.61098 10.2509 5.07552 9.74415 5.95315Z" fill="white"/>
<path d="M9.74415 17.9532C9.23744 18.8308 7.52233 18.7892 5.91333 17.8602C4.30433 16.9313 3.41074 15.4667 3.91744 14.5891C4.42414 13.7115 6.13926 13.7531 7.74826 14.682C9.35726 15.611 10.2509 17.0755 9.74415 17.9532Z" fill="white"/>
<path d="M61.1178 8.93958C60.2388 10.462 57.1289 10.312 54.1716 8.60465C51.2143 6.89725 49.5295 4.27898 50.4085 2.75657C51.2874 1.23416 54.3973 1.38411 57.3546 3.09151C60.3119 4.7989 61.9967 7.41717 61.1178 8.93958Z" fill="white"/>
</g>
</g>
<defs>
<filter id="filter0_f" x="-0.224426" y="-2.43512" width="89.5165" height="25.0202" filterUnits="userSpaceOnUse" color-interpolation-filters="sRGB">
<feFlood flood-opacity="0" result="BackgroundImageFix"/>
<feBlend mode="normal" in="SourceGraphic" in2="BackgroundImageFix" result="shape"/>
<feGaussianBlur stdDeviation="2" result="effect1_foregroundBlur"/>
</filter>
<linearGradient id="paint0_linear" x1="56" y1="2.50009" x2="58.6547" y2="19.4759" gradientUnits="userSpaceOnUse">
<stop offset="0.0016226" stop-color="#BA68DA"/>
<stop offset="1" stop-color="#653EA3"/>
</linearGradient>
<linearGradient id="paint1_linear" x1="2.39459" y1="27.0001" x2="9.27451" y2="13.9543" gradientUnits="userSpaceOnUse">
<stop stop-color="#F2709C"/>
<stop offset="1" stop-color="#FF9472"/>
</linearGradient>
<linearGradient id="paint2_linear" x1="2.49659" y1="11.4833" x2="6.88314" y2="0.786239" gradientUnits="userSpaceOnUse">
<stop stop-color="#F2709C"/>
<stop offset="1" stop-color="#FF9472"/>
</linearGradient>
<linearGradient id="paint3_linear" x1="66.8012" y1="21.3459" x2="83.6508" y2="8.84944" gradientUnits="userSpaceOnUse">
<stop stop-color="#218BA6"/>
<stop offset="1" stop-color="#6DD5ED"/>
</linearGradient>
<clipPath id="clip0">
<rect width="87" height="27" fill="white"/>
</clipPath>
</defs>
</svg>
