<svg width="174" height="37" viewBox="0 0 174 37" fill="none" xmlns="http://www.w3.org/2000/svg">
<path fill-rule="evenodd" clip-rule="evenodd" d="M97.9808 12.8009H91.7238V15.9959H97.9808C98.5133 15.9959 98.7795 15.9959 99.0458 15.7297C99.1789 15.5966 99.312 15.3303 99.312 15.0641V13.7328C99.312 13.4665 99.1789 13.2003 99.0458 13.0672C98.7795 12.934 98.5133 12.8009 97.9808 12.8009ZM88.9282 22.7854V10.6709H99.312C100.244 10.6709 100.91 10.804 101.442 11.2034C101.841 11.4697 102.108 12.1353 102.108 12.934V15.5966C102.108 16.3953 101.841 17.0609 101.442 17.3272C101.043 17.7266 100.244 17.8597 99.312 17.8597H91.7238V22.5191H88.9282V22.7854Z" fill="white"/>
<path fill-rule="evenodd" clip-rule="evenodd" d="M115.154 12.8009H108.897V16.2622H115.154C115.686 16.2622 115.953 16.2622 116.219 16.1291C116.352 15.9959 116.485 15.7297 116.485 15.3303V13.8659C116.485 13.5997 116.352 13.3334 116.219 13.2003C115.953 12.934 115.686 12.8009 115.154 12.8009ZM106.101 22.7854V10.6709H116.352C117.284 10.6709 118.083 10.804 118.482 11.2034C118.881 11.4697 119.148 12.1353 119.148 12.934V15.7297C119.148 16.5284 118.881 17.1941 118.482 17.4603C118.083 17.8597 117.284 17.9928 116.352 17.9928H114.755L120.346 22.5191H116.352L111.426 17.9928H108.764V22.5191H106.101V22.7854Z" fill="white"/>
<path fill-rule="evenodd" clip-rule="evenodd" d="M124.606 22.7844V10.8031H136.987V12.8H127.535V15.4625H133.126V17.5925H127.535V20.5213H137.12V22.7844H124.606Z" fill="white"/>
<path fill-rule="evenodd" clip-rule="evenodd" d="M152.828 12.934H144.974V15.4634H152.429C153.627 15.4634 154.426 15.5966 154.825 15.9959C155.225 16.3953 155.491 17.1941 155.491 18.2591V19.8566C155.491 20.9216 155.358 21.7204 154.825 22.1197C154.426 22.5191 153.627 22.6522 152.429 22.6522H144.974C143.776 22.6522 142.977 22.5191 142.578 22.1197C142.178 21.7204 142.045 20.9216 142.045 19.8566V19.5903L144.575 19.0578V20.5222H153.095V17.8597H145.507C144.308 17.8597 143.51 17.7266 143.11 17.1941C142.711 16.7947 142.445 16.1291 142.445 14.9309V13.5997C142.445 12.5347 142.578 11.7359 143.11 11.3365C143.51 10.9372 144.308 10.6709 145.507 10.6709H152.429C153.627 10.6709 154.426 10.804 154.825 11.2034C155.225 11.6028 155.491 12.2684 155.491 13.3334V13.5997L153.095 14.1322V12.934H152.828Z" fill="white"/>
<path fill-rule="evenodd" clip-rule="evenodd" d="M170.534 12.934H162.68V15.4634H170.135C171.333 15.4634 172.132 15.5966 172.531 15.9959C172.931 16.3953 173.064 17.1941 173.064 18.2591V19.8566C173.064 20.9216 172.931 21.7204 172.531 22.1197C172.132 22.5191 171.333 22.6522 170.135 22.6522H162.68C161.482 22.6522 160.683 22.5191 160.284 22.1197C159.884 21.7204 159.618 20.9216 159.618 19.8566V19.5903L162.147 19.0578V20.5222H170.667V17.8597H163.212C162.014 17.8597 161.216 17.7266 160.816 17.1941C160.417 16.7947 160.284 16.1291 160.284 14.9309V13.5997C160.284 12.5347 160.417 11.7359 160.816 11.3365C161.216 10.9372 162.014 10.6709 163.212 10.6709H170.135C171.2 10.6709 171.999 10.804 172.531 11.2034C172.931 11.6028 173.197 12.2684 173.197 13.3334V13.5997L170.667 14.1322V12.934H170.534Z" fill="white"/>
<path fill-rule="evenodd" clip-rule="evenodd" d="M70.0242 22.7844L75.6155 16.6606L69.8911 10.8031H73.6186L77.4793 14.7969L81.0737 10.8031H84.2687L79.0768 16.3944L85.6 22.7844H81.7393L77.3462 18.125L73.2193 22.7844H70.0242Z" fill="white"/>
<path fill-rule="evenodd" clip-rule="evenodd" d="M7.05568 22.7838L0 10.8025H3.19502L8.12068 19.4557L12.7801 10.8025H15.5757L8.91944 22.7838H7.05568Z" fill="white"/>
<path fill-rule="evenodd" clip-rule="evenodd" d="M17.5726 22.7854V10.6709H19.4363L27.9564 17.8597C28.2226 18.126 28.4889 18.2591 28.7552 18.5253C29.0214 18.6585 29.1545 18.9247 29.4208 19.191C29.4208 18.5253 29.2877 17.9928 29.2877 17.7266C29.2877 17.4603 29.2877 17.1941 29.2877 17.0609V10.6709H31.817V22.7854H29.8202L20.9007 15.3303C20.7676 15.1972 20.5013 15.0641 20.3682 14.7978C20.2351 14.6647 20.102 14.5315 19.9688 14.3984C19.9688 14.7978 19.9688 15.0641 19.9688 15.4634C19.9688 15.7297 19.9688 15.9959 19.9688 16.2622V22.7854H17.5726Z" fill="white"/>
<path d="M65.0988 0.420166H37.0092C35.9442 0.420166 35.0123 1.35205 35.0123 2.41706V34.6335C35.0123 35.6985 35.9442 36.6304 37.0092 36.6304H65.0988C66.1638 36.6304 67.0957 35.6985 67.0957 34.6335V2.41706C67.0957 1.35205 66.1638 0.420166 65.0988 0.420166ZM64.1669 31.7048C64.1669 32.7698 63.235 33.7016 62.17 33.7016H39.8048C38.7398 33.7016 37.8079 32.7698 37.8079 31.7048V5.34583C37.8079 4.28082 38.7398 3.34894 39.8048 3.34894H61.9037C62.9687 3.34894 63.9006 4.28082 63.9006 5.34583V9.87211C63.9006 10.9371 62.9687 11.869 61.9037 11.869H48.0586V13.3334H54.1824C55.2474 13.3334 56.1793 14.2653 56.1793 15.3303V20.7884C56.1793 21.3209 55.9131 21.8534 55.6468 22.2528C55.2474 22.6522 54.7149 22.7853 54.1824 22.7853H48.0586V24.6491H62.17C63.235 24.6491 64.1669 25.581 64.1669 26.646V31.7048Z" fill="white"/>
<path d="M46.0617 20.7888L54.1824 20.9219V15.3306H46.0617V9.87248H61.9037V5.34619H39.8047V31.7051H62.1699V26.7795H46.0617V20.7888Z" fill="white"/>
</svg>
