<svg width="172" height="70" viewBox="0 0 172 70" fill="none" xmlns="http://www.w3.org/2000/svg">
<path fill-rule="evenodd" clip-rule="evenodd" d="M110.683 47.2516L124.602 47.2484C124.602 47.2484 126.003 44.6425 126.16 39.9112V39.4815C126.003 34.7503 124.602 32.1443 124.602 32.1443H116.896L108.549 36.3801C108.521 36.5509 108.492 36.7248 108.467 36.9063L110.683 47.2516ZM112.142 39.5759C112.228 36.9763 113.022 35.5429 113.022 35.5429H121.386C121.386 35.5429 122.176 36.9774 122.266 39.5759V39.8157C122.176 42.4153 121.386 43.8488 121.386 43.8488H113.022C113.022 43.8488 112.228 42.4143 112.142 39.8157V39.5759Z" fill="white"/>
<path fill-rule="evenodd" clip-rule="evenodd" d="M44.5389 39.4802V39.91C44.6951 44.6413 46.0932 47.2472 46.0932 47.2472H60.8942C60.8942 47.2472 62.2922 44.6413 62.4528 39.91V39.4802C62.2922 34.749 60.8942 32.1431 60.8942 32.1431H46.0932C46.0932 32.1431 44.6951 34.749 44.5389 39.4802ZM48.4312 39.5758C48.5224 36.9762 49.3115 35.5427 49.3115 35.5427H57.6769C57.6769 35.5427 58.466 36.9773 58.5572 39.5758V39.8155C58.466 42.4151 57.6769 43.8486 57.6769 43.8486H49.3115C49.3115 43.8486 48.5224 42.4141 48.4312 39.8155V39.5758Z" fill="white"/>
<path fill-rule="evenodd" clip-rule="evenodd" d="M63.3166 32.1431L67.2122 30.2544V47.2472H63.3166V32.1431Z" fill="white"/>
<path fill-rule="evenodd" clip-rule="evenodd" d="M20.9937 32.1431V42.1202L11.7339 32.1431H7.45079V47.2472H11.3464L11.3432 37.0992L20.6941 47.2472H24.8904V32.1431H20.9937Z" fill="white"/>
<path fill-rule="evenodd" clip-rule="evenodd" d="M25.7576 39.4805V39.9102C25.914 44.6414 27.312 47.2474 27.312 47.2474H42.114C42.114 47.2474 43.5109 44.6414 43.6716 39.9102V39.4805C43.651 38.8894 43.613 38.3334 43.5598 37.8071H36.2711L33.5467 41.5845H39.5948C39.3331 43.0572 38.8958 43.8488 38.8958 43.8488H30.5303C30.5303 43.8488 29.7412 42.4143 29.65 39.8157V39.5759C29.7412 36.9763 30.5303 35.5429 30.5303 35.5429H43.2113C42.7468 33.3263 42.1151 32.1443 42.1151 32.1443H27.312C27.312 32.1433 25.914 34.7492 25.7576 39.4805Z" fill="white"/>
<path fill-rule="evenodd" clip-rule="evenodd" d="M69.1585 39.4802V39.91C69.1803 40.501 69.2183 41.0612 69.2737 41.5833H83.4808L85.923 37.8059H73.2365C73.4981 36.3332 73.9355 35.5417 73.9355 35.5417H85.7255L82.5039 32.1431H70.7172C70.7172 32.1431 69.3203 34.749 69.1585 39.4802ZM81.9232 43.8486H70.0117C70.473 46.0662 71.1091 47.2472 71.1091 47.2472L79.5906 47.2504L81.9232 43.8486Z" fill="white"/>
<path fill-rule="evenodd" clip-rule="evenodd" d="M7.45079 52.0401V49.0267H8.05863V50.2193H9.2081V49.0267H9.81594V50.2193H9.2081V50.8506H9.81594V52.0401H9.2081V50.8506H8.05863V52.0401H7.45079Z" fill="white"/>
<path fill-rule="evenodd" clip-rule="evenodd" d="M12.9572 49.0267H15.3234V52.0401H14.7155V49.5912H13.5661V52.0401H12.9572V49.0267Z" fill="white"/>
<path fill-rule="evenodd" clip-rule="evenodd" d="M20.222 51.4119V49.5912H19.0063V51.4119H20.222ZM20.7636 49.0267V52.039H18.4646V49.0267H20.7636Z" fill="white"/>
<path fill-rule="evenodd" clip-rule="evenodd" d="M28.4679 52.0401H24.3454V49.0267H24.9533V51.4119H26.1028V49.0267H26.7106V51.4119H27.8611V49.0267H28.4679V52.0401Z" fill="white"/>
<path fill-rule="evenodd" clip-rule="evenodd" d="M38.2662 49.5912H36.5089V50.2193H37.6584V50.8506H36.5089V51.4119H38.2662V52.0401H35.901V49.0267H38.2662V49.5912Z" fill="white"/>
<path fill-rule="evenodd" clip-rule="evenodd" d="M41.5095 52.0401V51.4119H40.9679V49.0267H41.5095V51.4119H42.7251V49.0267H43.2668V51.4119H42.7251V52.0401H41.5095Z" fill="white"/>
<path fill-rule="evenodd" clip-rule="evenodd" d="M48.7742 49.5912H47.0158V50.2193H48.1652V50.8506H47.0158V51.4119H48.7742V52.0401H46.408V49.0267H48.7742V49.5912Z" fill="white"/>
<path fill-rule="evenodd" clip-rule="evenodd" d="M54.2807 52.04H53.6728V50.8517H52.5233V52.04H51.9155V49.0277H54.2807V50.2193H53.6728V50.8517H54.2807V52.04ZM53.6718 50.2193V49.5912H52.5223V50.2193H53.6718Z" fill="white"/>
<path fill-rule="evenodd" clip-rule="evenodd" d="M59.179 49.0267H59.7207V52.0401H57.425V51.4119H59.179V50.8506H57.425V49.0267H57.9634V50.2193H59.179V49.0267Z" fill="white"/>
<path fill-rule="evenodd" clip-rule="evenodd" d="M64.6196 49.0267V49.5912H64.079V52.0401H63.4711V49.5912H62.8622V49.0267H64.6196Z" fill="white"/>
<path fill-rule="evenodd" clip-rule="evenodd" d="M69.5192 49.0267H70.127V52.0401H69.5192V50.8506H68.3729V52.0401H67.764V49.0267H68.3729V50.2193H69.5192V49.0267Z" fill="white"/>
<path d="M73.8096 49.0267H73.2712V52.039H73.8096V49.0267Z" fill="white"/>
<path fill-rule="evenodd" clip-rule="evenodd" d="M77.3949 49.0267H79.7567V52.0401H79.1489V49.5912H78.0026V52.0401H77.3949V49.0267Z" fill="white"/>
<path fill-rule="evenodd" clip-rule="evenodd" d="M83.5101 51.4119H84.6596V50.8506H84.0485V50.2193H85.2675V52.0401H82.9012V49.0267H85.2675V49.5912H83.5101V51.4119Z" fill="white"/>
<path fill-rule="evenodd" clip-rule="evenodd" d="M112.082 61.9386L106.809 35.6881L141.978 17.6162L103.231 21.7151L100.652 7.28687L92.1545 22.8865L76.9508 24.4781L112.082 61.9386ZM78.9078 26.562L106.446 55.9266L100.211 22.3464C99.5925 18.7876 97.5727 21.4858 97.5727 21.4858L89.6622 31.8153L79.5503 26.6501L78.9078 26.562Z" fill="white"/>
<path fill-rule="evenodd" clip-rule="evenodd" d="M81.3991 29.12L88.5911 36.7108L81.309 47.3097H85.705L90.9987 39.2489L104.272 53.2622L98.4617 22.9924L90.4917 33.9404L81.3991 29.12ZM96.2567 31.2411V37.409L93.2933 35.7527L96.2567 31.2411Z" fill="white"/>
<path fill-rule="evenodd" clip-rule="evenodd" d="M53.4415 28.1323C53.4415 28.1323 52.3658 29.8311 51.1425 30.3871C49.9236 30.9431 48.2705 31.515 48.2705 31.515H53.4415H58.6168C58.6168 31.515 56.9638 30.9442 55.7448 30.3871C54.5215 29.8311 53.4415 28.1323 53.4415 28.1323Z" fill="white"/>
</svg>
