<svg width="35" height="35" viewBox="0 0 35 35" fill="none" xmlns="http://www.w3.org/2000/svg">
<path d="M17.5 35C27.165 35 35 27.165 35 17.5C35 7.83502 27.165 0 17.5 0C7.83502 0 0 7.83502 0 17.5C0 27.165 7.83502 35 17.5 35Z" fill="#EB3697"/>
<path fill-rule="evenodd" clip-rule="evenodd" d="M12.5413 24.3862C12.5413 27.5945 14.8723 29.1112 17.3171 29.1695C19.7619 29.2278 22.2635 27.5362 22.2635 24.2695V21.1778C22.2635 17.9112 19.7619 16.2195 17.3171 16.2778C14.9292 16.3362 12.5413 17.8528 12.5413 21.0612V24.3862Z" fill="white"/>
<path fill-rule="evenodd" clip-rule="evenodd" d="M17.3216 5.83301C16.4688 5.83301 15.6728 6.00801 15.1043 6.29967C14.024 6.82467 13.1712 7.81634 12.8301 9.04134C12.4889 10.208 12.4889 11.433 12.9438 12.5413C13.7398 14.2913 15.5023 15.283 17.3216 15.283H17.3785C19.1979 15.283 20.9035 14.233 21.6995 12.5413C22.268 11.3747 22.268 9.74134 21.7563 8.57467C21.2446 7.40801 20.335 6.59134 19.1979 6.12467C18.5724 5.94967 17.947 5.83301 17.3216 5.83301Z" fill="white"/>
</svg>
